<svg xmlns="http://www.w3.org/2000/svg" width="32" height="32" fill="none" viewBox="0 0 32 32">
  <path fill="#000001" d="M30.475 12.19h-1.52v7.62h1.52v-7.62Zm-1.52 7.62h-1.52v3.05h1.52v-3.05Zm0-9.14h-1.52v1.52h1.52v-1.52Zm-1.52 12.19h-1.53v1.52h1.53v-1.52Zm-1.53 1.52h-1.52v1.53h1.52v-1.53Zm1.53-15.24h-3.05v1.53h3.05V9.14Zm-3.05 16.77h-1.53v1.52h1.53v-1.52Zm-3.05-18.29h-3.05v1.52h6.1V7.62h-1.53V3.05h-1.52v4.57Zm1.52 19.81h-3.04v1.52h3.04v-1.52Zm-1.52-25.91h-1.52v1.53h1.52V1.52Zm-3.05 16.77h-1.52v-1.53h1.52v-1.52h-4.57v1.52h-1.52v3.05h1.52v1.52h1.53v4.58h1.52v-4.58h1.52v-1.52h1.53v-3.05h-1.53v1.53Zm1.53 10.66h-3.05v1.53h3.05v-1.53Zm-1.53-19.81h-1.52v1.53h1.52V9.14Zm-1.52 21.34h-1.52V32h1.52v-1.52Zm0-19.81h-1.52v1.52h1.52v-1.52Zm-1.52 18.28h-3.05v1.53h3.05v-1.53Zm0-19.81h-1.53v1.53h1.53V9.14ZM19.815 0h-7.62v1.52h7.62V0Zm-7.62 27.43h-3.05v1.52h3.05v-1.52Zm0-25.91h-1.53v1.53h1.53V1.52Zm1.52 7.62V7.62h-3.05V3.05h-1.52v4.57h-1.52v1.52h6.09Zm-4.57 16.77h-1.52v1.52h1.52v-1.52Zm-1.52-1.53h-1.53v1.53h1.53v-1.53Zm0-15.24h-3.05v1.53h3.05V9.14Zm-1.53 13.72h-1.52v1.52h1.52v-1.52Zm-1.52-3.05h-1.53v3.05h1.53v-3.05Zm0-9.14h-1.53v1.52h1.53v-1.52Zm-1.53 1.52h-1.52v7.62h1.52v-7.62Z"/>
</svg>
