<svg width="24" height="24" viewBox="0 0 24 24" fill="none" xmlns="http://www.w3.org/2000/svg">
<g clip-path="url(#clip0_1_14196)">
<path d="M19.0711 4.92892C22.4044 8.26226 24.0711 9.92892 24.0711 12C24.0711 14.0711 22.4044 15.7377 19.0711 19.0711C15.7377 22.4044 14.0711 24.0711 12 24.0711C9.92892 24.0711 8.26226 22.4044 4.92892 19.0711C1.59559 15.7377 -0.0710754 14.0711 -0.0710754 12C-0.0710754 9.92892 1.59559 8.26226 4.92892 4.92892C8.26226 1.59559 9.92892 -0.0710754 12 -0.0710754C13.3771 -0.0710751 14.5754 0.665769 16.2037 2.13946" stroke="#1C274C" stroke-width="1.5" stroke-linecap="round"/>
<path d="M16 11.5L13.3333 9M16 11.5L13.3333 14M16 11.5L10.6667 11.5C9.77778 11.5 8 12 8 14" stroke="#1C274C" stroke-width="1.5" stroke-linecap="round" stroke-linejoin="round"/>
</g>
<defs>
<clipPath id="clip0_1_14196">
<rect width="24" height="24" fill="white"/>
</clipPath>
</defs>
</svg>
