<svg width="24" height="24" viewBox="0 0 24 24" fill="none" xmlns="http://www.w3.org/2000/svg">
<path opacity="0.2" d="M12 24C18.6274 24 24 18.6274 24 12C24 5.37258 18.6274 0 12 0C5.37258 0 0 5.37258 0 12C0 18.6274 5.37258 24 12 24Z" fill="white"/>
<path fill-rule="evenodd" clip-rule="evenodd" d="M8.22437 10.123C8.76616 9.23476 9.26051 8.3179 9.80689 7.43188C10.8981 7.43414 11.9901 7.43264 13.0814 7.43264C12.5778 8.36002 12.0429 9.27011 11.5241 10.1892C10.4719 10.1832 9.41891 10.199 8.36747 10.1817C8.3315 10.1674 8.26033 10.1381 8.22437 10.123Z" fill="white"/>
<path fill-rule="evenodd" clip-rule="evenodd" d="M8.03215 11.0954C9.11879 11.0917 10.2047 11.0947 11.2906 11.0939C11.2018 11.3 11.1046 11.5031 10.9913 11.6972C10.5781 12.4049 10.184 13.1225 9.77002 13.8295C8.9206 13.8295 8.07117 13.8295 7.22175 13.8295C6.97075 13.8287 6.71669 13.846 6.46875 13.7979C6.98835 12.8961 7.49954 11.9897 8.03215 11.0954Z" fill="white"/>
<path fill-rule="evenodd" clip-rule="evenodd" d="M6.06235 14.9029C6.11056 14.8179 6.17178 14.7089 6.29269 14.7352C7.34413 14.7337 8.39558 14.736 9.44703 14.7344C8.94426 15.6626 8.40629 16.5712 7.88822 17.491C6.84443 17.4895 5.79987 17.4925 4.75608 17.4895C4.62751 17.5264 4.59231 17.3617 4.67496 17.2955C5.14405 16.502 5.60244 15.7024 6.06235 14.9029Z" fill="white"/>
<path fill-rule="evenodd" clip-rule="evenodd" d="M13.0812 7.43262C14.125 7.43337 15.1696 7.43337 16.2133 7.43262C15.7075 8.35925 15.1734 9.27084 14.6522 10.1884C13.6092 10.1892 12.5662 10.1884 11.5239 10.1892C12.0428 9.27009 12.5777 8.36 13.0812 7.43262Z" fill="white"/>
<path fill-rule="evenodd" clip-rule="evenodd" d="M11.2906 11.0939C12.3397 11.0939 13.3896 11.0932 14.4388 11.0947C13.9475 12.0198 13.4187 12.9269 12.8846 13.8287C11.8469 13.8302 10.8085 13.8287 9.77002 13.8295C10.184 13.1225 10.5781 12.4049 10.9914 11.6972C11.1046 11.5031 11.2018 11.3 11.2906 11.0939Z" fill="white"/>
<path fill-rule="evenodd" clip-rule="evenodd" d="M9.44699 14.7344C10.4854 14.7359 11.5239 14.7336 12.5623 14.7359C12.0817 15.6715 11.5308 16.5703 11.0203 17.4902C9.97654 17.4917 8.93274 17.4902 7.88818 17.491C8.40625 16.5711 8.94422 15.6625 9.44699 14.7344Z" fill="white"/>
<path fill-rule="evenodd" clip-rule="evenodd" d="M16.2137 7.43273C17.259 7.43574 18.3043 7.42671 19.3489 7.43799C19.3588 7.57639 19.2532 7.67943 19.1928 7.793C18.7727 8.52634 18.3533 9.25967 17.9378 9.99451C17.8865 10.0787 17.8345 10.2119 17.7082 10.1893C16.6897 10.1893 15.6711 10.1886 14.6526 10.1886C15.1737 9.27095 15.7079 8.35936 16.2137 7.43273Z" fill="white"/>
<path fill-rule="evenodd" clip-rule="evenodd" d="M14.439 11.0948C15.4935 11.1038 16.5488 11.0722 17.6017 11.1106C17.1342 12.0275 16.5863 12.9044 16.098 13.8108C15.029 13.8544 13.9561 13.8183 12.8848 13.8288C13.4189 12.927 13.9477 12.0199 14.439 11.0948Z" fill="white"/>
<path fill-rule="evenodd" clip-rule="evenodd" d="M12.5625 14.7359C13.5374 14.7329 14.5131 14.7359 15.488 14.7336C15.5867 14.7148 15.7872 14.7585 15.6786 14.8938C15.1781 15.7581 14.6967 16.6335 14.184 17.4917C13.1295 17.4895 12.075 17.4917 11.0205 17.4902C11.5309 16.5704 12.0819 15.6716 12.5625 14.7359Z" fill="white"/>
</svg>
