<svg width="24" height="24" viewBox="0 0 24 24" fill="none" xmlns="http://www.w3.org/2000/svg">
<path opacity="0.2" d="M12 24C18.6274 24 24 18.6274 24 12C24 5.37258 18.6274 0 12 0C5.37258 0 0 5.37258 0 12C0 18.6274 5.37258 24 12 24Z" fill="white"/>
<path fill-rule="evenodd" clip-rule="evenodd" d="M8.30853 5.53857H15.5807L19.3847 11.9766L15.6388 18.4617H8.30853L4.61548 12.0001L8.30853 5.53857ZM9.11385 17.0671H14.8362L17.755 12.0168L14.7878 6.99441H9.11385L6.2337 12.0304L9.11385 17.0671Z" fill="white"/>
<path fill-rule="evenodd" clip-rule="evenodd" d="M9.2478 10.4429H11.3322V11.4369H9.2478V12.6293H12.5054V10.4429H13.4828V13.4908H9.2478V14.6839H14.656V9.18311H9.2478V10.4429Z" fill="white"/>
</svg>
