<svg width="24" height="24" viewBox="0 0 24 24" fill="none" xmlns="http://www.w3.org/2000/svg">
<path opacity="0.2" d="M12 24C18.6274 24 24 18.6274 24 12C24 5.37258 18.6274 0 12 0C5.37258 0 0 5.37258 0 12C0 18.6274 5.37258 24 12 24Z" fill="white"/>
<path fill-rule="evenodd" clip-rule="evenodd" d="M6.15979 6.24341C6.80698 5.53168 7.92684 5.34352 8.78948 5.74963C9.02313 5.85591 9.23197 6.01058 9.4131 6.1913C10.2803 7.04405 11.1421 7.90177 11.9948 8.7694C12.4146 8.36444 12.8251 7.94993 13.2356 7.53543L13.2357 7.53539C13.7168 7.04954 14.1979 6.56371 14.694 6.09329C15.5649 5.28521 17.0797 5.37826 17.8617 6.26616C18.6553 7.08665 18.6611 8.52789 17.87 9.35169C16.9966 10.24 16.1137 11.1192 15.2308 11.9984L15.2308 11.9984C15.5862 12.3599 15.9455 12.7175 16.3049 13.0751C16.8361 13.6038 17.3673 14.1325 17.8861 14.6737C18.7016 15.5227 18.6367 17.0231 17.779 17.82C17.0541 18.5566 15.811 18.6662 14.95 18.1083C14.7622 17.9926 14.6069 17.8367 14.4523 17.6814C14.4135 17.6424 14.3747 17.6035 14.3355 17.5653C13.8886 17.122 13.4447 16.6758 13.0009 16.2296L13.0007 16.2294C12.6703 15.8974 12.34 15.5653 12.0085 15.2345C11.6168 15.6145 11.2317 16.001 10.8466 16.3876C10.3301 16.9059 9.81365 17.4243 9.2816 17.9267C8.39455 18.7315 6.8657 18.6079 6.10107 17.6927C5.41625 16.9458 5.35463 15.7262 5.92779 14.8975C6.03125 14.7444 6.16176 14.6135 6.29187 14.4829L6.29188 14.4829L6.29189 14.4829C6.32663 14.4481 6.36134 14.4132 6.39551 14.378C7.07785 13.6824 7.76887 12.9951 8.46403 12.3119L8.63318 12.4816C8.90088 12.7502 9.16861 13.0189 9.43915 13.285C9.13354 13.598 8.82284 13.9061 8.51213 14.2142L8.51211 14.2142C8.03998 14.6823 7.56782 15.1505 7.11341 15.6361C6.78134 15.9884 6.89341 16.5881 7.24574 16.885C7.45417 17.0794 7.76391 17.1236 8.03436 17.0616C8.29239 16.9856 8.48612 16.7937 8.67349 16.6081C8.70024 16.5816 8.72685 16.5552 8.75351 16.5293C9.1123 16.1666 9.4726 15.8052 9.83292 15.4437C10.2293 15.0461 10.6257 14.6485 11.0201 14.249C10.372 13.5977 9.72133 12.949 9.07067 12.3004L9.07057 12.3003C8.09461 11.3273 7.11867 10.3544 6.15152 9.37278C5.33023 8.54691 5.33933 7.06638 6.15979 6.24341ZM7.08312 7.28889C6.84037 7.62594 6.85236 8.14578 7.17203 8.43072C7.65032 8.93068 8.14094 9.41873 8.63153 9.90674L8.63153 9.90675L8.63157 9.90678C9.00288 10.2761 9.37418 10.6455 9.7401 11.02C9.98271 10.7918 10.2173 10.5552 10.4519 10.3184L10.4519 10.3184C10.6396 10.129 10.8273 9.93958 11.0192 9.75451L10.8519 9.58544L10.8518 9.58535C10.0574 8.78273 9.26302 7.98012 8.45855 7.18799C8.32125 7.05317 8.14384 6.95846 7.95362 6.92621C7.62568 6.86128 7.27252 7.01719 7.08312 7.28889ZM12.9714 9.75374C13.8328 8.88884 14.6943 8.02394 15.5649 7.16814C15.7506 6.99445 16.0074 6.89436 16.2625 6.91339C16.5103 6.93779 16.7513 7.06351 16.8998 7.26615C17.0863 7.52049 17.1384 7.87408 17.0156 8.16687C16.9641 8.29225 16.8699 8.39104 16.7775 8.48783C16.7675 8.4983 16.7575 8.50876 16.7476 8.51922C16.3234 8.96665 15.8845 9.39974 15.4457 9.83282C15.0481 10.2251 14.6505 10.6174 14.2639 11.0204C13.9687 10.7442 13.6828 10.4579 13.3969 10.1717C13.3588 10.1335 13.3207 10.0954 13.2826 10.0572C12.9633 10.3852 12.6408 10.7098 12.3137 11.0299C13.4746 12.2024 14.6432 13.3676 15.8119 14.5329C16.0716 14.7919 16.3313 15.0508 16.5909 15.3098C16.825 15.5327 17.0586 15.8007 17.0905 16.1365C17.0987 16.4074 16.992 16.689 16.7786 16.8627C16.461 17.1389 15.9218 17.1803 15.612 16.8701C14.953 16.2485 14.3169 15.603 13.681 14.9578C13.4471 14.7204 13.2132 14.4831 12.9782 14.247C13.1771 14.0529 13.3728 13.8557 13.5685 13.6584C13.6926 13.5333 13.8167 13.4082 13.9418 13.2838C13.7098 13.0588 13.4818 12.83 13.2537 12.6011C13.1577 12.5048 13.0617 12.4084 12.9654 12.3123C12.8056 12.474 12.6445 12.6346 12.4834 12.7952C12.3223 12.9557 12.1613 13.1163 12.0014 13.278C11.5883 12.8539 11.1641 12.441 10.7396 12.0279L10.7166 12.0055C11.4722 11.2589 12.2218 10.5063 12.9714 9.75374Z" fill="white"/>
</svg>
