<svg width="24" height="24" viewBox="0 0 24 24" fill="none" xmlns="http://www.w3.org/2000/svg">
<path opacity="0.2" d="M12 24C18.6274 24 24 18.6274 24 12C24 5.37258 18.6274 0 12 0C5.37258 0 0 5.37258 0 12C0 18.6274 5.37258 24 12 24Z" fill="white"/>
<path fill-rule="evenodd" clip-rule="evenodd" d="M5.68215 10.7322C5.82201 10.378 5.96802 10.0259 6.1146 9.67392C6.7367 9.68633 7.389 9.60904 7.97698 9.85952C8.40607 10.0321 8.75795 10.3988 8.88607 10.8496C9.03488 11.3878 8.9946 12.0055 8.67795 12.4771C8.47935 12.775 8.1711 12.9798 7.84383 13.109C8.13026 13.7397 8.41334 14.3715 8.69809 15.0034C8.24047 15.0056 7.78285 15.0039 7.32523 15.0045C7.08802 14.4364 6.85977 13.8655 6.62201 13.298C5.95851 13.298 5.29502 13.298 4.63208 13.298C4.77586 12.951 4.91739 12.6024 5.06005 12.2549C5.67879 12.2537 6.29753 12.2537 6.91628 12.2549C7.12215 12.2554 7.33809 12.2126 7.50425 12.0834C7.89977 11.7979 7.87404 11.0837 7.43823 10.8502C7.28047 10.761 7.09698 10.7283 6.91795 10.73C6.50565 10.7328 6.0939 10.7294 5.68215 10.7322Z" fill="white"/>
<path fill-rule="evenodd" clip-rule="evenodd" d="M15.5361 10.7301C15.6822 10.3781 15.8215 10.0238 15.9708 9.67349C16.6293 9.68647 17.3303 9.60128 17.9406 9.90874C18.3826 10.1169 18.7037 10.5496 18.7848 11.0336C18.8715 11.5498 18.815 12.1286 18.4805 12.5489C18.2808 12.8096 17.9982 12.9895 17.6984 13.1102C17.9871 13.7398 18.2673 14.3739 18.5549 15.0041C18.0967 15.0052 17.6385 15.0035 17.1803 15.0052C16.9454 14.4365 16.7132 13.8673 16.4799 13.2981C15.8164 13.297 15.1535 13.2998 14.49 13.297C14.6304 12.9489 14.7731 12.6014 14.9163 12.2544C15.549 12.2544 16.1823 12.2544 16.815 12.255C17.135 12.2544 17.4908 12.0908 17.5932 11.7631C17.6687 11.4991 17.6475 11.1747 17.4483 10.9682C17.2699 10.7905 17.0097 10.7279 16.7658 10.7301C16.3557 10.7313 15.9457 10.7324 15.5361 10.7301Z" fill="white"/>
<path fill-rule="evenodd" clip-rule="evenodd" d="M9.34546 9.71484C9.74602 9.71597 10.1466 9.71541 10.5471 9.71484C11.0579 10.9469 11.5541 12.1852 12.0694 13.415C12.5796 12.1835 13.0797 10.9481 13.5888 9.71654C13.9989 9.71428 14.4095 9.71597 14.8201 9.71541C14.1102 11.4558 13.3947 13.1939 12.6831 14.9337C12.2825 14.9337 11.8825 14.9343 11.482 14.9332C10.7715 13.1933 10.0548 11.4558 9.34546 9.71484Z" fill="white"/>
</svg>
