<svg width="24" height="24" viewBox="0 0 24 24" fill="none" xmlns="http://www.w3.org/2000/svg">
<path opacity="0.2" d="M12 24C18.6274 24 24 18.6274 24 12C24 5.37258 18.6274 0 12 0C5.37258 0 0 5.37258 0 12C0 18.6274 5.37258 24 12 24Z" fill="white"/>
<path fill-rule="evenodd" clip-rule="evenodd" d="M12.0053 5.86597C11.8438 5.86597 11.6839 5.87415 11.5246 5.8868V4.63235C11.6839 4.62267 11.8416 4.61523 12.0053 4.61523C12.2471 4.61598 12.4882 4.62788 12.7292 4.65169V5.90838C12.4889 5.88011 12.2471 5.86597 12.0053 5.86597ZM6.05073 10.5229C5.236 13.8101 7.24045 17.1352 10.5276 17.95V19.2319C7.62438 18.6419 5.35579 16.3726 4.76502 13.4693C3.95253 9.47383 6.53212 5.57654 10.5276 4.76404V6.04603C8.3208 6.5929 6.5976 8.3161 6.05073 10.5229Z" fill="white"/>
<path fill-rule="evenodd" clip-rule="evenodd" d="M13.7255 6.11099V4.81934L13.7263 4.82306C16.422 5.4726 18.5269 7.57676 19.1757 10.2724C20.1295 14.2359 17.6898 18.2225 13.7263 19.1771V17.8862C15.6854 17.3111 17.2307 15.8006 17.8513 13.8557H16.5023C16.0797 14.8773 15.3223 15.7248 14.3535 16.2582C12.0001 17.5544 9.04255 16.698 7.74643 14.3446C6.45031 11.9912 7.3067 9.03359 9.6601 7.73747C12.0135 6.44135 14.9711 7.29848 16.2672 9.65114H17.6719C16.9584 7.93538 15.5083 6.6348 13.7255 6.11099ZM11.7285 13.1392L13.1511 15.1593L13.1564 15.16H14.9101L13.2791 12.9406C13.2791 12.9406 14.547 12.605 14.547 10.9205C14.547 9.23597 13.1125 8.83716 12.2099 8.83716H9.361V9.99638H12.0678C12.7568 9.99638 13.0641 10.4592 13.0641 10.9659C13.0641 11.4726 12.8201 11.8982 12.1407 11.8982H9.36026V13.1392H11.7285Z" fill="white"/>
<path fill-rule="evenodd" clip-rule="evenodd" d="M12.7293 18.0879C12.4889 18.1162 12.2471 18.1303 12.0053 18.1303C11.8416 18.1303 11.6839 18.1221 11.5247 18.1095V19.3624C11.6839 19.3729 11.8439 19.3795 12.0053 19.3795C12.2516 19.3795 12.4912 19.3669 12.7293 19.3431V18.0879V18.0879Z" fill="white"/>
</svg>
