<svg width="24" height="24" viewBox="0 0 24 24" fill="none" xmlns="http://www.w3.org/2000/svg">
<path opacity="0.2" d="M12 24C18.6274 24 24 18.6274 24 12C24 5.37258 18.6274 0 12 0C5.37258 0 0 5.37258 0 12C0 18.6274 5.37258 24 12 24Z" fill="white"/>
<path fill-rule="evenodd" clip-rule="evenodd" d="M15.5791 7.86737C14.5215 7.22887 13.464 6.59037 12.4071 5.95111C12.2217 5.82149 11.9817 5.82088 11.7963 5.94989C11.4621 6.15074 11.1279 6.35161 10.7938 6.55248C9.07152 7.58765 7.34916 8.6229 5.62597 9.65644C5.43119 9.75624 5.21235 9.87612 5.17773 10.125V12.0723C5.21822 12.4301 5.39657 12.7794 5.70107 12.9662C6.67805 13.5581 7.65544 14.1492 8.63277 14.7403C9.69438 15.3824 10.7559 16.0244 11.8168 16.6673C11.9712 16.775 12.1788 16.7835 12.3361 16.6764C13.2597 16.1212 14.1827 15.5645 15.1057 15.0078C16.217 14.3374 17.3285 13.667 18.4413 12.9991C18.439 13.1626 18.4398 13.3262 18.4407 13.4897C18.4417 13.7 18.4428 13.9102 18.4372 14.12C18.4407 14.3287 18.2829 14.4869 18.1168 14.577C17.1634 15.1495 16.2115 15.7249 15.2596 16.3003C14.2 16.9407 13.1404 17.5812 12.0785 18.2178C10.8303 17.4617 9.5804 16.7086 8.33051 15.9555C7.3996 15.3945 6.4687 14.8336 5.53856 14.2715C5.44175 14.4224 5.3467 14.5746 5.25283 14.7273C6.43164 15.4414 7.61115 16.1541 8.79069 16.8669C9.77038 17.459 10.7501 18.051 11.7294 18.6438C11.8996 18.7442 12.1167 18.8464 12.2979 18.7126C13.1435 18.2049 13.9886 17.6964 14.8336 17.188C16.0337 16.4659 17.2336 15.7438 18.4348 15.0243C18.7399 14.8612 18.9617 14.5521 19.0239 14.2022V12.5883C18.9453 12.3108 18.6062 12.1867 18.3762 12.3467C17.5919 12.8188 16.8074 13.2904 16.0229 13.762C14.7152 14.5481 13.4074 15.3342 12.1008 16.1227C10.5979 15.2103 9.09359 14.3004 7.58948 13.3905C7.07907 13.0818 6.56869 12.773 6.05837 12.4642C5.88588 12.3656 5.74273 12.1897 5.73627 11.978C5.72768 11.7495 5.72936 11.5211 5.73104 11.2927C5.73211 11.1469 5.73318 11.0011 5.73158 10.8552C6.91088 11.562 8.0869 12.2746 9.26285 12.9872C10.0158 13.4434 10.7686 13.8996 11.5223 14.3543C11.5738 14.3831 11.6241 14.4153 11.6744 14.4476C11.7907 14.5222 11.9074 14.597 12.041 14.6306C12.1983 14.6536 12.3342 14.5679 12.4652 14.4853C12.5002 14.4632 12.5349 14.4414 12.5696 14.4218C14.6342 13.1737 16.6988 11.9269 18.764 10.6806C18.9118 10.607 18.9869 10.4506 19.0239 10.2924V10.1944C18.9951 10.0228 18.9065 9.86152 18.7511 9.78362C17.6941 9.14436 16.6366 8.50587 15.5791 7.86737ZM6.15999 10.0334C6.22422 9.99555 6.28848 9.95773 6.35172 9.91811C6.98798 9.53501 7.62424 9.15198 8.2605 8.76894C9.53337 8.00267 10.8062 7.23639 12.0791 6.46958C13.124 7.10031 14.1697 7.72968 15.2153 8.35904C16.2609 8.98842 17.3066 9.61779 18.3515 10.2485C17.0138 11.0635 15.6713 11.8704 14.3288 12.6773C13.578 13.1285 12.8273 13.5797 12.0773 14.0324C11.1358 13.464 10.1935 12.8969 9.25121 12.3299C8.10331 11.6391 6.95546 10.9484 5.80903 10.2552C5.92152 10.1738 6.04071 10.1036 6.15999 10.0334Z" fill="white"/>
</svg>
