<svg width="24" height="24" viewBox="0 0 24 24" fill="none" xmlns="http://www.w3.org/2000/svg">
<path opacity="0.2" d="M12 24C18.6274 24 24 18.6274 24 12C24 5.37258 18.6274 0 12 0C5.37258 0 0 5.37258 0 12C0 18.6274 5.37258 24 12 24Z" fill="white"/>
<path fill-rule="evenodd" clip-rule="evenodd" d="M8.07914 5.81556C9.9034 4.75667 12.1314 4.4116 14.1861 4.89259C16.1696 5.34465 17.9811 6.57409 19.0754 8.30119C19.7389 9.34035 20.1667 10.5444 20.2262 11.7813C20.2472 11.6537 20.2607 11.5252 20.2638 11.3959V12.7744C20.2161 13.123 20.1872 13.4746 20.1151 13.8197C19.7682 15.6099 18.7654 17.2519 17.3719 18.4174C16.7053 18.9795 15.9456 19.425 15.1453 19.7661C14.239 20.1243 13.2733 20.3392 12.2997 20.376C10.6924 20.4418 9.06234 20.0335 7.69294 19.1816C6.20939 18.2907 5.04555 16.8744 4.46954 15.2385C4.42667 15.1232 4.35013 15.0232 4.32039 14.9027C4.31121 14.8465 4.38206 14.8505 4.41793 14.8527C4.41443 14.9185 4.40962 14.9842 4.40349 15.05C4.61168 15.4525 4.82905 15.8537 5.12078 16.2036C5.44268 16.5798 5.79651 16.9314 6.19714 17.2239C7.2735 18.0022 8.57992 18.4231 9.8964 18.5314C10.3049 18.5472 10.7143 18.5458 11.1232 18.5375C11.5978 18.5266 12.0614 18.4174 12.5267 18.3354C13.1399 18.2021 13.7382 17.9978 14.3064 17.7312C14.6742 17.5291 15.0503 17.3414 15.3972 17.1042C16.4425 16.4206 17.3325 15.4832 17.895 14.3612C17.9921 14.1858 18.0411 13.9902 18.1167 13.8061C18.3096 13.3777 18.3988 12.9112 18.4574 12.4473C18.5768 11.5682 18.4776 10.6535 18.1233 9.83669C17.8499 9.22021 17.5346 8.60899 17.074 8.10959C16.8816 7.88159 16.662 7.67858 16.432 7.48916C15.1566 6.44913 13.4981 5.9449 11.8663 5.94446C10.4392 5.91859 9.01248 6.26586 7.73974 6.90908C6.76091 7.41199 5.86868 8.10169 5.17982 8.96546C4.92921 9.26449 4.73327 9.60342 4.52377 9.93183C5.18595 8.2021 6.47924 6.73457 8.07914 5.81556Z" fill="white"/>
<path fill-rule="evenodd" clip-rule="evenodd" d="M9.50586 8.62011C9.81114 8.59951 10.1169 8.58372 10.423 8.5789C10.6811 8.55478 10.9098 8.69685 11.1525 8.75867C11.2418 8.84329 11.3257 8.93405 11.4014 9.03139C11.4167 9.16644 11.4434 9.30017 11.4675 9.4339C11.6735 9.24273 11.8532 9.00158 12.1314 8.91345C12.3418 8.81918 12.5836 8.80909 12.7975 8.8981C12.8145 8.91169 12.8482 8.93975 12.8648 8.95378C12.7463 9.08181 12.6155 9.20458 12.5373 9.36375C12.406 9.63384 12.3063 9.91796 12.176 10.1885C12.0225 10.4638 11.8064 10.7072 11.537 10.8738C11.4675 10.9273 11.3962 10.979 11.3227 11.0273C10.9229 11.289 10.4589 11.4228 9.99921 11.5333C9.67162 11.6332 9.33484 11.6999 8.99501 11.7393C8.9972 11.7218 9.00201 11.6863 9.00463 11.6683C9.27274 11.5591 9.52641 11.4175 9.77396 11.2675C10.1129 11.072 10.4095 10.7589 10.4987 10.3683C10.5529 10.2065 10.5512 10.0355 10.5337 9.86798C10.4606 9.73425 10.3058 9.63208 10.308 9.46766C10.4405 9.46459 10.5743 9.47292 10.7064 9.45801C10.7161 9.44442 10.7357 9.4168 10.7454 9.40277C10.4755 9.39619 10.1969 9.46415 9.9371 9.35848C9.86231 9.30455 9.77178 9.25501 9.75647 9.15416C9.8903 9.14057 10.0298 9.13268 10.1518 9.06822C10.2363 9.05901 10.3207 9.05419 10.4055 9.05025C10.4064 9.04191 10.4073 9.02569 10.4077 9.01736C10.2021 9.00684 9.99702 9.02613 9.79189 9.03139C9.77965 9.04893 9.75472 9.08445 9.74247 9.10242C9.57015 9.09935 9.39695 9.11382 9.22463 9.10023C8.78201 9.00245 8.32934 9.09102 7.88672 9.14451C7.8959 9.11952 7.91471 9.06954 7.9239 9.04498C8.17582 8.93888 8.43562 8.84987 8.70591 8.80734C8.9574 8.69027 9.22725 8.62187 9.50586 8.62011Z" fill="white"/>
<path fill-rule="evenodd" clip-rule="evenodd" d="M8.60978 10.1546C8.95355 10.0366 9.32181 10.045 9.68002 10.0638C9.96649 10.0888 10.2289 10.2111 10.4966 10.3063L10.4988 10.3681C10.4095 10.7588 10.113 11.0718 9.77405 11.2674C9.49763 11.1946 9.18929 11.1635 8.92075 11.2823C8.46107 11.4686 8.1208 11.9549 8.16104 12.4591C8.15054 12.731 8.27519 12.9783 8.41427 13.2023C8.65351 13.4746 9.00428 13.6671 9.37473 13.6364C10.0185 13.6618 10.5722 13.0484 10.5456 12.4157C10.5657 12.0676 10.3802 11.7554 10.1598 11.5028C10.106 11.512 10.0527 11.5221 9.9993 11.5331C10.459 11.4226 10.923 11.2889 11.3228 11.0271C11.3626 11.0784 11.4024 11.1301 11.4417 11.1823C11.5642 11.4077 11.6749 11.6418 11.7335 11.8931C11.8437 12.4113 11.7969 12.9739 11.5528 13.4487C11.1933 14.195 10.4135 14.7304 9.58598 14.7764L9.55537 14.7957C9.30475 14.8036 9.05371 14.7939 8.80834 14.7391C8.57435 14.6926 8.35435 14.5953 8.14092 14.491C7.57496 14.1718 7.13585 13.6228 6.97883 12.9879C6.86118 12.4946 6.89923 11.9632 7.10129 11.4971C7.37509 10.8548 7.94848 10.362 8.60978 10.1546Z" fill="white"/>
<path fill-rule="evenodd" clip-rule="evenodd" d="M2.96641 11.2572C2.94454 10.8907 2.95723 10.5232 2.95767 10.1562C4.26321 10.1593 5.56875 10.1571 6.8743 10.1571C6.87648 10.5228 6.89442 10.8898 6.86336 11.2542C6.426 11.3116 5.979 11.2296 5.53989 11.2866C5.54207 12.4108 5.53114 13.535 5.54557 14.6588C5.12483 14.6421 4.7032 14.6702 4.28289 14.6439C4.29689 13.8292 4.28508 13.0141 4.28901 12.1995C4.28464 11.8886 4.29951 11.5773 4.27852 11.2669C3.84115 11.2656 3.40291 11.2813 2.96641 11.2572Z" fill="white"/>
<path fill-rule="evenodd" clip-rule="evenodd" d="M14.1848 10.1626C13.975 10.1629 13.7652 10.1633 13.5556 10.1582C13.5014 10.2823 13.4524 10.4086 13.4043 10.5353C13.2512 10.9509 13.0939 11.365 12.9365 11.779C12.7792 12.193 12.6218 12.607 12.4688 13.0227C12.4031 13.1988 12.3359 13.3744 12.2687 13.5501C12.1274 13.9194 11.9861 14.2887 11.8586 14.6625C12.0306 14.6629 12.2026 14.6628 12.3747 14.6627C12.6328 14.6626 12.8911 14.6625 13.1493 14.6638C13.168 14.6148 13.1879 14.566 13.2079 14.5173C13.268 14.3704 13.3282 14.2232 13.3531 14.0662C13.4397 14.0443 13.529 14.0333 13.6186 14.0364C13.8922 14.0418 14.1659 14.0391 14.4395 14.0364C14.5411 14.0354 14.6428 14.0344 14.7444 14.0338C14.8016 14.0401 14.8169 14.0946 14.8319 14.1479C14.8387 14.172 14.8454 14.1958 14.8559 14.2148C14.8706 14.2536 14.8856 14.2921 14.9007 14.3307C14.9433 14.4403 14.986 14.55 15.0213 14.6625C15.1811 14.6634 15.3409 14.6631 15.5007 14.6628C15.675 14.6625 15.8492 14.6623 16.0233 14.6634C16.043 14.6631 16.0629 14.6635 16.083 14.6638C16.17 14.6651 16.2586 14.6665 16.3369 14.6226C16.3472 14.6243 16.3635 14.6268 16.3792 14.6292C16.3922 14.6312 16.4047 14.6331 16.4134 14.6345C16.384 14.6212 16.355 14.6077 16.3262 14.5943C16.3112 14.5873 16.2963 14.5804 16.2813 14.5735C16.2629 14.4928 16.2393 14.4135 16.2109 14.3363C16.1558 14.2073 16.107 14.076 16.0583 13.9447C16.0158 13.8301 15.9733 13.7156 15.9266 13.6028C15.856 13.4027 15.7802 13.2045 15.7044 13.0064C15.623 12.7934 15.5415 12.5803 15.4665 12.365C15.4488 12.3242 15.4318 12.2834 15.4148 12.2427C15.4092 12.2291 15.4035 12.2155 15.3978 12.2019C15.3677 12.1083 15.332 12.0167 15.2963 11.9251C15.2626 11.8385 15.2288 11.7519 15.1997 11.6634C15.1087 11.4319 15.0213 11.1991 14.936 10.9658C14.8883 10.8497 14.8441 10.7326 14.8026 10.6142C14.744 10.4664 14.6862 10.3174 14.6438 10.1639C14.4908 10.1621 14.3378 10.1623 14.1848 10.1626ZM13.8365 12.6518C13.8528 12.6018 13.8692 12.5518 13.8832 12.5013C13.9163 12.4091 13.9436 12.315 13.971 12.221C14.0087 12.091 14.0465 11.9611 14.0993 11.8362C14.1457 12.0046 14.1973 12.1715 14.2489 12.3384C14.3166 12.5569 14.3842 12.7755 14.44 12.9972C14.3634 12.9974 14.2869 12.9973 14.2104 12.9973C14.0573 12.9972 13.9044 12.9971 13.7516 12.9986C13.7622 12.879 13.7994 12.7653 13.8365 12.6518Z" fill="white"/>
</svg>
