<svg xmlns="http://www.w3.org/2000/svg" width="32" height="32" fill="none" viewBox="0 0 32 32">
  <g clip-path="url(#a)">
    <path fill="#000001" d="M29.71 19.81h-1.52v7.62h1.52v-7.62Zm-1.52 7.62h-1.52v1.52h1.52v-1.52Zm0-9.14h-1.52v1.52h1.52v-1.52Zm-1.52 10.66h-1.53v1.53h1.53v-1.53Zm0-12.19h-1.53v1.53h1.53v-1.53Zm-1.53 13.72h-7.62V32h7.62v-1.52Zm-4.57-4.57h-1.52v1.52h1.52v-1.52ZM19.05 6.1V4.57h1.52v10.67H16v3.05h1.52v-1.53h7.62v-1.52H22.1V6.1h3.04V4.57h1.53V3.05h1.52V0h-4.57v1.52H22.1v1.53h-1.53V1.52h-1.52V0h-7.62v3.05h1.52v1.52h4.57V6.1h1.53Zm-1.53 22.85H16v1.53h1.52v-1.53Zm0-7.62H16v4.58h1.52v-4.58Z"/>
    <path fill="#000001" d="M17.52 6.1H16v1.52h1.52V6.1Zm-3.04 21.33v-7.62h-1.53v7.62H6.86v1.52H16v-1.52h-1.52ZM16 18.29h-1.52v1.52H16v-1.52Zm0-4.58h-1.52v1.53H16v-1.53Zm0-6.09h-1.52v1.52H16V7.62Zm-1.52 1.52h-1.53v1.53h1.53V9.14Zm0 4.57v-1.52h-1.53v-1.52h-1.52v1.52H6.86v1.52h7.62Zm-6.1 9.15H6.86v1.52h1.52v-1.52Zm-1.52 3.05H5.33v1.52h1.53v-1.52Zm0-7.62H5.33v4.57h1.53v-4.57Zm0-4.58H5.33v1.53h1.53v-1.53ZM5.33 24.38H3.81v1.53h1.52v-1.53Zm0-9.14H3.81v1.52h1.52v-1.52Zm-1.52 1.52H2.29v7.62h1.52v-7.62Z"/>
  </g>
  <defs>
    <clipPath id="a">
      <path fill="#fff" d="M0 0h32v32H0z"/>
    </clipPath>
  </defs>
</svg>
