<svg width="24" height="24" viewBox="0 0 24 24" fill="none" xmlns="http://www.w3.org/2000/svg">
<path d="M5.36328 12.0521C4.01081 11.5708 3.33457 11.3302 3.13309 10.9652C2.95849 10.6489 2.95032 10.2671 3.11124 9.94364C3.29694 9.57038 3.96228 9.30108 5.29295 8.76247L17.8356 3.68569C19.1461 3.15523 19.8014 2.88999 20.2154 3.02598C20.5747 3.14402 20.8565 3.42583 20.9746 3.78515C21.1106 4.19912 20.8453 4.8544 20.3149 6.16497L15.2381 18.7076C14.6995 20.0383 14.4302 20.7036 14.0569 20.8893C13.7335 21.0502 13.3516 21.0421 13.0353 20.8675C12.6704 20.666 12.4297 19.9897 11.9485 18.6373L10.4751 14.4965C10.3815 14.2334 10.3347 14.1018 10.2582 13.9919C10.1905 13.8946 10.106 13.8101 10.0086 13.7423C9.89876 13.6659 9.76719 13.6191 9.50407 13.5254L5.36328 12.0521Z" stroke="black" stroke-width="2" stroke-linecap="round" stroke-linejoin="round"/>
</svg>
