<svg width="24" height="24" viewBox="0 0 24 24" fill="none" xmlns="http://www.w3.org/2000/svg">
<path d="M12 2.25C10.2051 2.25 8.75 3.70507 8.75 5.5C8.75 7.03679 9.81665 8.32445 11.25 8.66303V10.25H9C8.58579 10.25 8.25 10.5858 8.25 11C8.25 11.4142 8.58579 11.75 9 11.75H11.25V20.2283C9.88875 20.15 8.1898 19.8392 6.76087 18.9819C5.1125 17.9929 3.75 16.2374 3.75 13C3.75 12.5858 3.41421 12.25 3 12.25C2.58579 12.25 2.25 12.5858 2.25 13C2.25 16.7626 3.8875 19.0071 5.98913 20.2681C8.01523 21.4838 10.4 21.7455 11.9595 21.7499C13.6545 21.9247 16.0591 21.3645 18.0505 19.9926C20.091 18.587 21.75 16.2892 21.75 13C21.75 12.5858 21.4142 12.25 21 12.25C20.5858 12.25 20.25 12.5858 20.25 13C20.25 15.7108 18.909 17.5797 17.1995 18.7574C15.7314 19.7688 14.0289 20.2417 12.75 20.2787V11.75H15C15.4142 11.75 15.75 11.4142 15.75 11C15.75 10.5858 15.4142 10.25 15 10.25H12.75V8.66303C14.1833 8.32445 15.25 7.03679 15.25 5.5C15.25 3.70507 13.7949 2.25 12 2.25Z" fill="black"/>
</svg>
