<svg width="24" height="24" viewBox="0 0 24 24" fill="none" xmlns="http://www.w3.org/2000/svg">
<path fill-rule="evenodd" clip-rule="evenodd" d="M13.2 8.35C12.6806 7.65753 11.8656 7.25 11 7.25H5C5 7.25 4.25002 7.25 4.25002 8C4.25002 8.75 5 8.75 5 8.75H5.89222L4.49222 12.25H4C3.58579 12.25 3.25 12.5858 3.25 13V15.2929C2.86553 15.1568 2.44134 15.3534 2.29767 15.7369C2.15235 16.1248 2.34977 16.5573 2.73765 16.7026L2.74347 16.7048L2.75926 16.7106L2.81721 16.7318C2.86717 16.7498 2.9393 16.7755 3.03034 16.8071C3.21228 16.8701 3.47051 16.9567 3.77884 17.0518C4.73119 17.3457 6.27321 17.7578 7.50476 17.75C8.8669 17.7413 10.6168 17.2408 11.5336 16.9487L11.5514 16.9432C11.8493 16.8522 12.1698 16.8541 12.4665 16.9486C13.3875 17.2423 15.1563 17.75 16.5 17.75C17.0224 17.75 17.5947 17.6745 18.1398 17.571C18.9263 17.4218 19.7053 17.2047 20.282 17.0274C20.5718 16.9383 20.8137 16.8583 20.9839 16.8002C21.069 16.7712 21.1364 16.7476 21.183 16.7311L21.237 16.7118L21.2517 16.7065L21.2559 16.705L21.2578 16.7043C21.6468 16.5619 21.8467 16.1312 21.7043 15.7422C21.5619 15.3532 21.1309 15.1535 20.742 15.2958L20.7396 15.2967L20.7285 15.3007L20.682 15.3173C20.6406 15.3319 20.5789 15.3535 20.4998 15.3805C20.3415 15.4345 20.1142 15.5097 19.8412 15.5936C19.7668 15.6165 19.6893 15.6399 19.6091 15.6637L21.6373 12.3955C21.7808 12.1642 21.7877 11.8733 21.6554 11.6354C21.5231 11.3975 21.2722 11.25 21 11.25H15.375L13.2 8.35ZM7.50777 8.75L6.10777 12.25H9.82295L11.6646 11.3292C11.7687 11.2771 11.8836 11.25 12 11.25H13.5L12 9.25C11.9705 9.21066 11.9389 9.17333 11.9054 9.13815C11.671 8.89183 11.3443 8.75 11 8.75H7.50777Z" fill="black"/>
</svg>
