<svg width="24" height="24" viewBox="0 0 24 24" fill="none" xmlns="http://www.w3.org/2000/svg">
<path fill-rule="evenodd" clip-rule="evenodd" d="M6.58281 20.1077C8.1325 21.145 9.99674 21.75 12 21.75C17.1836 21.75 21.4224 17.7048 21.7319 12.599C21.7439 12.4009 21.75 12.2012 21.75 12C21.75 11.3489 21.6861 10.7119 21.5639 10.0953C21.0975 7.74133 19.7849 5.69407 17.9587 4.2822C16.3111 3.00835 14.243 2.25 12 2.25C9.50333 2.25 7.22428 3.1894 5.49981 4.73283C3.75933 6.29061 2.58041 8.46667 2.30947 10.9176C2.27016 11.2732 2.25 11.6344 2.25 12C2.25 12.7436 2.33338 13.4687 2.49161 14.166C3.05171 16.6343 4.54685 18.7449 6.58281 20.1077ZM16.6312 5.9325L17.3401 5.71119C18.5832 6.76785 19.5081 8.18543 19.9537 9.80036C18.9102 10.3398 18.4758 11.6287 19.0113 12.6996L19.0418 12.7606C19.1171 12.9113 19.1171 13.0887 19.0418 13.2394C18.8245 13.6739 18.7699 14.1718 18.8877 14.6431L19.0563 15.3176C19.1423 15.6614 19.0782 16.0256 18.8801 16.3195L18.1322 17.4289L17.5371 17.3619C17.2462 17.3292 17.0007 17.1305 16.9082 16.8528C16.7194 16.2864 16.3132 15.8181 15.7792 15.5511L15.3772 15.3501L14.9539 15.0679C14.5952 14.8288 14.4256 14.39 14.5302 13.9717C14.6024 13.6828 14.7972 13.4399 15.0636 13.3067L16.1036 12.7867C16.3152 12.6809 16.5123 12.5483 16.6899 12.392L18.2051 11.0595C18.5515 10.7548 18.75 10.3159 18.75 9.85457V9.80902C18.75 8.948 18.052 8.25 17.191 8.25C16.949 8.25 16.7102 8.30635 16.4938 8.41459L16.1807 8.57112C15.6723 8.82531 15.2858 9.27104 15.106 9.81026L15.0844 9.87514C15.0098 10.099 14.8003 10.25 14.5643 10.25C14.303 10.25 14.078 10.0655 14.0267 9.80929L13.9387 9.36934C13.8968 9.15956 14.0176 8.95138 14.2205 8.88373C14.7575 8.70474 15.1884 8.29842 15.3986 7.77291L15.8432 6.66146C15.9829 6.31231 16.2723 6.04458 16.6312 5.9325ZM6.25 17.7427V17.9161C5.15712 16.8537 4.35809 15.4918 3.98511 13.9643L4.16455 12.6687C4.23497 12.1602 4.16167 11.6422 3.95295 11.1732L3.82463 10.8849C4.07181 9.05411 4.91992 7.41303 6.16574 6.16699L7.68882 6.78044C8.0279 6.91702 8.25 7.2459 8.25 7.61146C8.25 7.75054 8.21762 7.88771 8.15542 8.01211L7.85006 8.62282L7.26826 9.49553C7.20079 9.59674 7.07864 9.64685 6.95954 9.62219C6.36255 9.49858 5.7436 9.68584 5.31526 10.1196L4.96799 10.4714L4.77869 10.6607C4.03899 11.4004 4.03899 12.5996 4.77869 13.3393C4.98661 13.5473 5.2401 13.7039 5.51906 13.7969L6.31492 14.0622C6.49902 14.1236 6.6663 14.227 6.80352 14.3642L7.2057 14.7664C7.29696 14.8576 7.36572 14.9689 7.40654 15.0913L7.45328 15.2315C7.54424 15.5044 7.44131 15.8044 7.20198 15.964C6.60723 16.3605 6.25 17.028 6.25 17.7427Z" fill="black"/>
</svg>
