<svg width="24" height="24" viewBox="0 0 24 24" fill="none" xmlns="http://www.w3.org/2000/svg">
<path d="M12.75 3C12.75 2.58579 12.4142 2.25 12 2.25C11.5858 2.25 11.25 2.58579 11.25 3V3.25H4C3.58579 3.25 3.25 3.58579 3.25 4C3.25 4.41421 3.58579 4.75 4 4.75H11.25V7.25H3.75V7C3.75 6.58579 3.41421 6.25 3 6.25C2.58579 6.25 2.25 6.58579 2.25 7V10C2.25 10.4142 2.58579 10.75 3 10.75H5C6.54103 10.75 7.67597 11.0659 8.47704 11.6201C9.26315 12.1639 9.80467 12.9902 10.0688 14.1762C10.3115 15.2656 11.0987 16.3203 12.25 16.6469V19.25H9C8.58579 19.25 8.25 19.5858 8.25 20C8.25 20.4142 8.58579 20.75 9 20.75H20C20.4142 20.75 20.75 20.4142 20.75 20V19C20.75 18.5858 20.4142 18.25 20 18.25C19.5858 18.25 19.25 18.5858 19.25 19V19.25H13.75V16.75H19C20.5188 16.75 21.75 15.5188 21.75 14V12.8284C21.75 12.0991 21.4603 11.3996 20.9445 10.8839L18.1161 8.05546C17.6004 7.53973 16.9009 7.25 16.1716 7.25H12.75V4.75H20C20.4142 4.75 20.75 4.41421 20.75 4C20.75 3.58579 20.4142 3.25 20 3.25H12.75V3Z" fill="black"/>
</svg>
