<svg width="24" height="24" viewBox="0 0 24 24" fill="none" xmlns="http://www.w3.org/2000/svg">
<path fill-rule="evenodd" clip-rule="evenodd" d="M14.584 2.37597C14.7765 2.24758 15.0176 2.2153 15.2372 2.28849L19.8696 3.83264C20.9926 4.20696 21.75 5.25784 21.75 6.44152V16.2252C21.75 18.1022 19.9111 19.4276 18.1304 18.834L15.1108 17.8275L9.41603 21.624C9.22345 21.7524 8.9824 21.7847 8.76283 21.7115L4.13037 20.1674C3.00743 19.7931 2.25 18.7422 2.25 17.5585V7.77486C2.25 5.89782 4.08892 4.57241 5.86963 5.16598L8.88918 6.17249L14.584 2.37597ZM15.75 4C15.75 3.58579 15.4142 3.25 15 3.25C14.5858 3.25 14.25 3.58579 14.25 4V16.1111C14.25 16.5253 14.5858 16.8611 15 16.8611C15.4142 16.8611 15.75 16.5253 15.75 16.1111V4ZM9.75 7.88889C9.75 7.47468 9.41421 7.13889 9 7.13889C8.58579 7.13889 8.25 7.47468 8.25 7.88889V20C8.25 20.4142 8.58579 20.75 9 20.75C9.41421 20.75 9.75 20.4142 9.75 20V7.88889Z" fill="black"/>
</svg>
