<svg width="24" height="24" viewBox="0 0 24 24" fill="none" xmlns="http://www.w3.org/2000/svg">
<path fill-rule="evenodd" clip-rule="evenodd" d="M10.668 2.65329C11.0625 2.39032 11.5259 2.25 12 2.25C12.4741 2.25 12.9376 2.39034 13.3321 2.65332L13.4581 2.73729C14.2652 3.2754 14.75 4.1813 14.75 5.15139V8.46374L19.7999 10.1897C20.2407 10.3404 20.6075 10.6536 20.8253 11.0654C21.4697 12.2837 20.5864 13.75 19.2082 13.75L14.75 13.75V16.5633C14.75 16.9169 14.9165 17.2498 15.1993 17.4619L15.6362 17.7896C16.3974 18.3605 16.6414 19.3941 16.2159 20.2452C15.7296 21.2178 14.547 21.612 13.5744 21.1257L12.559 20.618C12.2071 20.4421 11.7929 20.4421 11.441 20.618L10.4242 21.1264C9.45253 21.6123 8.27092 21.2191 7.78401 20.2479C7.35731 19.3968 7.60084 18.3623 8.36241 17.791L8.80048 17.4623C9.08347 17.25 9.25 16.9168 9.25 16.5631L9.25 13.75L4.78036 13.75C3.40488 13.75 2.51027 12.3025 3.1254 11.0722C3.34486 10.6333 3.72969 10.2995 4.19524 10.1444L9.25003 8.45943L9.24998 5.15148C9.24996 4.18134 9.73483 3.27538 10.542 2.73726L10.668 2.65329Z" fill="black"/>
</svg>
