<svg width="24" height="24" viewBox="0 0 24 24" fill="none" xmlns="http://www.w3.org/2000/svg">
<path fill-rule="evenodd" clip-rule="evenodd" d="M12 2.25C7.71979 2.25 4.25 5.71979 4.25 10C4.25 10.8388 4.51757 11.7438 4.90392 12.6276C5.29431 13.5207 5.82975 14.4453 6.41864 15.3377C7.59643 17.1224 9.02738 18.8372 10.0575 20.0004C11.0981 21.1754 12.9019 21.1754 13.9425 20.0004C14.9726 18.8372 16.4036 17.1224 17.5814 15.3377C18.1703 14.4453 18.7057 13.5207 19.0961 12.6276C19.4824 11.7438 19.75 10.8388 19.75 10C19.75 5.71979 16.2802 2.25 12 2.25ZM9.75 10C9.75 8.75736 10.7574 7.75 12 7.75C13.2426 7.75 14.25 8.75736 14.25 10C14.25 11.2426 13.2426 12.25 12 12.25C10.7574 12.25 9.75 11.2426 9.75 10Z" fill="black"/>
</svg>
