<svg width="24" height="24" viewBox="0 0 24 24" fill="none" xmlns="http://www.w3.org/2000/svg">
<path d="M17.9014 14.8407C18.3629 14.1051 18.7777 13.3559 19.0961 12.6276C19.4824 11.7438 19.75 10.8388 19.75 10C19.75 5.71979 16.2802 2.25 12 2.25C10.13 2.25 8.41467 2.91231 7.07582 4.01516L11.03 7.96929C11.3238 7.8287 11.6528 7.75 12 7.75C13.2426 7.75 14.25 8.75736 14.25 10C14.25 10.3472 14.1713 10.6762 14.0307 10.97L17.9014 14.8407Z" fill="black"/>
<path d="M3.46967 3.46967C3.67357 3.26577 3.96565 3.20382 4.22315 3.28381C4.33554 3.31872 4.44133 3.38067 4.53033 3.46967L20.5303 19.4697C20.6193 19.5587 20.6813 19.6645 20.7162 19.7769C20.7962 20.0343 20.7342 20.3264 20.5303 20.5303C20.3264 20.7342 20.0343 20.7962 19.7769 20.7162C19.6645 20.6813 19.5587 20.6193 19.4697 20.5303L3.46967 4.53033C3.38067 4.44133 3.31872 4.33554 3.28381 4.22315C3.20382 3.96565 3.26577 3.67357 3.46967 3.46967Z" fill="black"/>
<path d="M4.60708 7.66774C4.3751 8.40381 4.25 9.18729 4.25 10C4.25 10.8388 4.51757 11.7438 4.90392 12.6276C5.29431 13.5207 5.82975 14.4453 6.41864 15.3377C7.59643 17.1224 9.02738 18.8372 10.0575 20.0004C11.0981 21.1754 12.9019 21.1754 13.9425 20.0004C14.3521 19.5378 14.8252 18.988 15.3205 18.3812L4.60708 7.66774Z" fill="black"/>
</svg>
