<?xml version="1.0" encoding="iso-8859-1"?>
<!-- Generator: Adobe Illustrator 19.0.0, SVG Export Plug-In . SVG Version: 6.00 Build 0)  -->
<svg version="1.1" id="Layer_1" xmlns="http://www.w3.org/2000/svg" xmlns:xlink="http://www.w3.org/1999/xlink" x="0px" y="0px"
	 viewBox="0 0 512 512" style="enable-background:new 0 0 512 512;" xml:space="preserve">
<g>
	<g>
		<polygon points="478.609,367.301 478.609,333.91 445.217,333.91 445.21,333.91 445.208,333.91 378.435,333.91 378.427,333.91 
			378.427,367.301 345.036,367.301 345.036,333.91 378.427,333.91 378.427,256 345.036,256 345.036,222.609 166.957,222.609 
			166.957,256 133.565,256 133.565,333.91 166.957,333.91 166.957,367.301 133.565,367.301 133.565,333.91 66.775,333.91 
			33.391,333.91 33.391,367.301 33.384,367.301 0,367.301 0,400.692 0,400.696 0,445.217 0,445.221 0,478.609 33.384,478.609 
			33.391,478.609 33.391,512 66.775,512 66.783,512 356.174,512 445.21,512 445.217,512 478.609,512 478.609,478.609 512,478.609 
			512,445.217 512,400.692 512,367.301 		"/>
	</g>
</g>
<g>
	<g>
		<rect x="411.826" y="66.783" width="33.391" height="33.391"/>
	</g>
</g>
<g>
	<g>
		<rect x="445.217" y="33.391" width="33.391" height="33.391"/>
	</g>
</g>
<g>
	<g>
		<rect x="178.087" y="66.783" width="33.391" height="33.391"/>
	</g>
</g>
<g>
	<g>
		<rect x="144.696" y="33.391" width="33.391" height="33.391"/>
	</g>
</g>
<g>
	<g>
		<polygon points="378.435,133.565 378.435,100.174 244.87,100.174 244.87,133.565 211.478,133.565 211.478,189.217 
			378.435,189.217 378.435,222.609 411.826,222.609 411.826,189.217 411.826,133.565 		"/>
	</g>
</g>
<g>
	<g>
		<rect x="289.391" width="33.391" height="66.783"/>
	</g>
</g>
<g>
	<g>
		<rect x="445.217" y="155.826" width="66.783" height="33.391"/>
	</g>
</g>
<g>
	<g>
		<rect x="111.304" y="155.826" width="66.783" height="33.391"/>
	</g>
</g>
<g>
</g>
<g>
</g>
<g>
</g>
<g>
</g>
<g>
</g>
<g>
</g>
<g>
</g>
<g>
</g>
<g>
</g>
<g>
</g>
<g>
</g>
<g>
</g>
<g>
</g>
<g>
</g>
<g>
</g>
</svg>
