<svg width="24" height="24" viewBox="0 0 24 24" fill="none" xmlns="http://www.w3.org/2000/svg">
<path fill-rule="evenodd" clip-rule="evenodd" d="M8.45711 11.4571C8.06659 11.8476 7.43342 11.8476 7.0429 11.4571C6.65237 11.0666 6.65237 10.4334 7.04289 10.0429L11.5429 5.5429C11.7304 5.35536 11.9847 5.25 12.25 5.25C12.5152 5.25 12.7695 5.35536 12.9571 5.54289L17.4571 10.0429C17.8476 10.4334 17.8476 11.0666 17.4571 11.4571C17.0666 11.8476 16.4334 11.8476 16.0429 11.4571L12.25 7.66421L8.45711 11.4571ZM8.45711 16.4571C8.06659 16.8476 7.43342 16.8476 7.0429 16.4571C6.65237 16.0666 6.65237 15.4334 7.04289 15.0429L11.5429 10.5429C11.7304 10.3554 11.9847 10.25 12.25 10.25C12.5152 10.25 12.7695 10.3554 12.9571 10.5429L17.4571 15.0429C17.8476 15.4334 17.8476 16.0666 17.4571 16.4571C17.0666 16.8476 16.4334 16.8476 16.0429 16.4571L12.25 12.6642L8.45711 16.4571Z" fill="#333333"/>
</svg>
