<svg width="24" height="24" viewBox="0 0 24 24" fill="none" xmlns="http://www.w3.org/2000/svg">
<path fill-rule="evenodd" clip-rule="evenodd" d="M5 5H19V19H5L5 5ZM3 5C3 3.89543 3.89543 3 5 3H19C20.1046 3 21 3.89543 21 5V19C21 20.1046 20.1046 21 19 21H5C3.89543 21 3 20.1046 3 19V5ZM14 11.4142V14.9999C14 15.5522 14.4477 15.9999 15 15.9999C15.5523 15.9999 16 15.5522 16 14.9999L16 8.99994C16 8.44765 15.5523 7.99994 15 7.99994L9.00001 7.99994C8.44772 7.99994 8.00001 8.44765 8.00001 8.99994C8.00001 9.55222 8.44772 9.99994 9.00001 9.99994L12.5858 9.99994L8.2929 14.2928C7.90237 14.6834 7.90237 15.3165 8.2929 15.707C8.68342 16.0976 9.31659 16.0976 9.70711 15.707L14 11.4142Z" fill="#333333"/>
</svg>
