<svg width="24" height="24" viewBox="0 0 24 24" fill="none" xmlns="http://www.w3.org/2000/svg">
<path fill-rule="evenodd" clip-rule="evenodd" d="M20 12C20 16.4183 16.4183 20 12 20C7.58172 20 4 16.4183 4 12C4 7.58172 7.58172 4 12 4C16.4183 4 20 7.58172 20 12ZM22 12C22 17.5228 17.5228 22 12 22C6.47715 22 2 17.5228 2 12C2 6.47715 6.47715 2 12 2C17.5228 2 22 6.47715 22 12ZM10.5 6.75C9.94772 6.75 9.5 7.19772 9.5 7.75V8.33579L8.20711 7.04289C7.81658 6.65237 7.18342 6.65237 6.79289 7.04289C6.40237 7.43342 6.40237 8.06658 6.79289 8.45711L8.08579 9.75H7.5C6.94772 9.75 6.5 10.1977 6.5 10.75C6.5 11.3023 6.94772 11.75 7.5 11.75H10.5C11.0523 11.75 11.5 11.3023 11.5 10.75V7.75C11.5 7.19772 11.0523 6.75 10.5 6.75ZM10.5 17.25C9.94772 17.25 9.5 16.8023 9.5 16.25V15.6642L8.20711 16.9571C7.81658 17.3476 7.18342 17.3476 6.79289 16.9571C6.40237 16.5666 6.40237 15.9334 6.79289 15.5429L8.08579 14.25H7.5C6.94772 14.25 6.5 13.8023 6.5 13.25C6.5 12.6977 6.94772 12.25 7.5 12.25H10.5C11.0523 12.25 11.5 12.6977 11.5 13.25V16.25C11.5 16.8023 11.0523 17.25 10.5 17.25ZM14.5 8.33579V7.75C14.5 7.19772 14.0523 6.75 13.5 6.75C12.9477 6.75 12.5 7.19772 12.5 7.75V10.75C12.5 11.3023 12.9477 11.75 13.5 11.75H16.5C17.0523 11.75 17.5 11.3023 17.5 10.75C17.5 10.1977 17.0523 9.75 16.5 9.75H15.9142L17.2071 8.45711C17.5976 8.06658 17.5976 7.43342 17.2071 7.04289C16.8166 6.65237 16.1834 6.65237 15.7929 7.04289L14.5 8.33579ZM13.5 17.25C14.0523 17.25 14.5 16.8023 14.5 16.25V15.6642L15.7929 16.9571C16.1834 17.3476 16.8166 17.3476 17.2071 16.9571C17.5976 16.5666 17.5976 15.9334 17.2071 15.5429L15.9142 14.25H16.5C17.0523 14.25 17.5 13.8023 17.5 13.25C17.5 12.6977 17.0523 12.25 16.5 12.25H13.5C12.9477 12.25 12.5 12.6977 12.5 13.25V16.25C12.5 16.8023 12.9477 17.25 13.5 17.25Z" fill="#333333"/>
</svg>
