<svg width="24" height="24" viewBox="0 0 24 24" fill="none" xmlns="http://www.w3.org/2000/svg">
<path fill-rule="evenodd" clip-rule="evenodd" d="M15.6088 14.0052C15.6088 14.5575 16.0565 15.0052 16.6088 15.0052C17.161 15.0052 17.6088 14.5575 17.6088 14.0052L17.6088 7.64129C17.6088 7.37607 17.5034 7.12172 17.3159 6.93418C17.1284 6.74665 16.874 6.64129 16.6088 6.64129L10.2448 6.64126C9.69252 6.64126 9.2448 7.08897 9.2448 7.64126C9.2448 8.19354 9.69251 8.64126 10.2448 8.64126L15.6088 8.64128L15.6088 14.0052ZM12.0732 17.5408C12.0732 18.093 12.5209 18.5408 13.0732 18.5408C13.6255 18.5408 14.0732 18.093 14.0732 17.5408L14.0733 11.1768C14.0733 10.9116 13.9679 10.6573 13.7804 10.4697C13.5928 10.2822 13.3385 10.1768 13.0733 10.1768L6.70927 10.1768C6.15699 10.1768 5.70927 10.6245 5.70927 11.1768C5.70926 11.7291 6.15698 12.1768 6.70926 12.1768L12.0732 12.1768L12.0732 17.5408Z" fill="#333333"/>
</svg>
