<svg width="24" height="24" viewBox="0 0 24 24" fill="none" xmlns="http://www.w3.org/2000/svg">
<path fill-rule="evenodd" clip-rule="evenodd" d="M20 12C20 16.4183 16.4183 20 12 20C7.58172 20 4 16.4183 4 12C4 7.58172 7.58172 4 12 4C16.4183 4 20 7.58172 20 12ZM22 12C22 17.5228 17.5228 22 12 22C6.47715 22 2 17.5228 2 12C2 6.47715 6.47715 2 12 2C17.5228 2 22 6.47715 22 12ZM12.7071 8.46443C13.0976 8.07391 13.0976 7.44074 12.7071 7.05022C12.3166 6.65969 11.6834 6.65969 11.2929 7.05022L7.05025 11.2929C6.65973 11.6834 6.65973 12.3165 7.05025 12.7071L11.2929 16.9497C11.6834 17.3402 12.3166 17.3402 12.7071 16.9497C13.0976 16.5592 13.0976 15.926 12.7071 15.5355L10.1716 13H16.2426C16.7949 13 17.2426 12.5522 17.2426 12C17.2426 11.4477 16.7949 11 16.2426 11H10.1716L12.7071 8.46443Z" fill="#333333"/>
</svg>
