<svg width="24" height="24" viewBox="0 0 24 24" fill="none" xmlns="http://www.w3.org/2000/svg">
<path fill-rule="evenodd" clip-rule="evenodd" d="M20 12C20 16.4183 16.4183 20 12 20C7.58172 20 4 16.4183 4 12C4 7.58172 7.58172 4 12 4C16.4183 4 20 7.58172 20 12ZM22 12C22 17.5228 17.5228 22 12 22C6.47715 22 2 17.5228 2 12C2 6.47715 6.47715 2 12 2C17.5228 2 22 6.47715 22 12ZM17.2071 12.2071C16.8166 12.5976 16.1834 12.5976 15.7929 12.2071L13 9.41419L13 10.8431L16.9497 14.7929C17.3403 15.1834 17.3403 15.8166 16.9497 16.2071C16.5592 16.5976 15.9261 16.5976 15.5355 16.2071L13 13.6716L13 17.3713C13 17.9236 12.5523 18.3713 12 18.3713C11.4477 18.3713 11 17.9236 11 17.3713L11 13.6716L8.46446 16.2071C8.07394 16.5976 7.44078 16.5976 7.05025 16.2071C6.65973 15.8166 6.65973 15.1834 7.05025 14.7929L11 10.8431L11 9.41424L8.2071 12.2071C7.81658 12.5976 7.18341 12.5976 6.79289 12.2071C6.40237 11.8166 6.40237 11.1834 6.79289 10.7929L11.244 6.34181C11.4274 6.13024 11.6981 5.99642 12 5.99642C12.3017 5.99642 12.5722 6.13002 12.7555 6.34129L17.2071 10.7929C17.5976 11.1834 17.5976 11.8166 17.2071 12.2071Z" fill="#333333"/>
</svg>
