<svg width="24" height="24" viewBox="0 0 24 24" fill="none" xmlns="http://www.w3.org/2000/svg">
<path fill-rule="evenodd" clip-rule="evenodd" d="M17 5.5C17 4.94772 16.5523 4.5 16 4.5C15.4477 4.5 15 4.94772 15 5.5V6H9V5.5C9 4.94772 8.55228 4.5 8 4.5C7.44772 4.5 7 4.94772 7 5.5V6H5C3.89543 6 3 6.89543 3 8V11V20C3 21.1046 3.89543 22 5 22H19C20.1046 22 21 21.1046 21 20V11V8C21 6.89543 20.1046 6 19 6H17V5.5ZM7 8.5V8H5V10H19V8H17V8.5C17 9.05228 16.5523 9.5 16 9.5C15.4477 9.5 15 9.05228 15 8.5V8H9V8.5C9 9.05228 8.55228 9.5 8 9.5C7.44772 9.5 7 9.05228 7 8.5ZM19 20V12H5L5 20L19 20ZM15.7718 14.6359C16.123 14.2096 16.0621 13.5794 15.6359 13.2282C15.2096 12.877 14.5794 12.9379 14.2282 13.3641L11.2112 17.026L9.75597 15.3454C9.39444 14.9279 8.7629 14.8825 8.34539 15.244C7.92788 15.6056 7.8825 16.2371 8.24403 16.6546L9.69929 18.3352C10.5098 19.2712 11.9675 19.2534 12.7548 18.2977L15.7718 14.6359Z" fill="#333333"/>
</svg>
