<svg width="24" height="24" viewBox="0 0 24 24" fill="none" xmlns="http://www.w3.org/2000/svg">
<path fill-rule="evenodd" clip-rule="evenodd" d="M5 5H19V19H5L5 5ZM3 5C3 3.89543 3.89543 3 5 3H19C20.1046 3 21 3.89543 21 5V19C21 20.1046 20.1046 21 19 21H5C3.89543 21 3 20.1046 3 19V5ZM13.8087 15.4118C14.1336 15.8585 14.0348 16.4839 13.5882 16.8087C13.1415 17.1336 12.5161 17.0348 12.1913 16.5882L10.1913 13.8382C10.067 13.6672 10 13.4613 10 13.25V8.375C10 7.82272 10.4477 7.375 11 7.375C11.5523 7.375 12 7.82272 12 8.375V12.9248L13.8087 15.4118Z" fill="#333333"/>
</svg>
