<svg width="24" height="24" viewBox="0 0 24 24" fill="none" xmlns="http://www.w3.org/2000/svg">
<path fill-rule="evenodd" clip-rule="evenodd" d="M5 5H19V19H5L5 5ZM3 5C3 3.89543 3.89543 3 5 3H19C20.1046 3 21 3.89543 21 5V19C21 20.1046 20.1046 21 19 21H5C3.89543 21 3 20.1046 3 19V5ZM13.2652 9.32172C13.6398 8.9159 14.2725 8.89059 14.6783 9.2652C15.0841 9.6398 15.1094 10.2725 14.7348 10.6783L11.7348 13.9283C11.4555 14.2308 11.0193 14.3313 10.6359 14.1813C10.2524 14.0314 9.99999 13.6617 9.99999 13.25V8.37501C9.99999 7.82272 10.4477 7.37501 11 7.37501C11.5523 7.37501 12 7.82272 12 8.37501V10.6924L13.2652 9.32172Z" fill="#333333"/>
</svg>
