<svg width="24" height="24" viewBox="0 0 24 24" fill="none" xmlns="http://www.w3.org/2000/svg">
<path fill-rule="evenodd" clip-rule="evenodd" d="M6.78131 9H17.2419L12.612 12.3285C12.2577 12.5832 11.7724 12.5817 11.4109 12.3161C10.1125 11.3621 8.6586 10.3237 7.52601 9.52401C7.25799 9.33476 7.00765 9.15866 6.78131 9ZM5 15.5858L5 10.1957C5.34222 10.4332 5.81849 10.7667 6.37243 11.1578C6.91239 11.539 7.5249 11.9742 8.15781 12.428L5 15.5858ZM6.41425 17H17.5857L14.2209 13.6351L13.7794 13.9524C12.7115 14.7202 11.2767 14.6993 10.2267 13.9278C10.0859 13.8244 9.94327 13.7199 9.79935 13.6149L6.41425 17ZM15.8663 12.4521L19 15.5858V10.1993L15.8663 12.4521ZM5 7C3.89543 7 3 7.89543 3 9V17C3 18.1046 3.89543 19 5 19H19C20.1046 19 21 18.1046 21 17V9C21 7.89543 20.1046 7 19 7H5Z" fill="#333333"/>
</svg>
