<svg width="24" height="24" viewBox="0 0 24 24" fill="none" xmlns="http://www.w3.org/2000/svg">
<path fill-rule="evenodd" clip-rule="evenodd" d="M5 6C5 5.44772 5.44772 5 6 5H8C8.55288 5 9 5.4474 9 5.99909V6.00628V6.01348V6.02069V6.02791V6.03513V6.04236V6.0496V6.05684V6.06409V6.07135V6.07862V6.0859V6.09318V6.10047V6.10777V6.11507V6.12238V6.1297V6.13702V6.14436V6.1517V6.15904V6.1664V6.17376V6.18112V6.1885V6.19588V6.20327V6.21066V6.21807V6.22547V6.23289V6.24031V6.24774V6.25518V6.26262V6.27007V6.27752V6.28498V6.29245V6.29993V6.30741V6.31489V6.32239V6.32989V6.33739V6.34491V6.35243V6.35995V6.36748V6.37502V6.38256V6.39011V6.39767V6.40523V6.4128V6.42037V6.42795V6.43554V6.44313V6.45073V6.45833V6.46594V6.47355V6.48117V6.4888V6.49643V6.50407V6.51171V6.51936V6.52701V6.53467V6.54234V6.55001V6.55768V6.56536V6.57305V6.58074V6.58844V6.59614V6.60385V6.61156V6.61928V6.627V6.63473V6.64247V6.6502V6.65795V6.6657V6.67345V6.68121V6.68897V6.69674V6.70451V6.71229V6.72007V6.72786V6.73565V6.74345V6.75125V6.75905V6.76686V6.77468V6.7825V6.79032V6.79815V6.80598V6.81382V6.82166V6.82951V6.83736V6.84521V6.85307V6.86094V6.8688V6.87667V6.88455V6.89243V6.90031V6.9082V6.91609V6.92399V6.93189V6.93979V6.9477V6.95561V6.96352V6.97144V6.97936V6.98729V6.99522V7.00315V7.01109V7.01903V7.02698V7.03493V7.04288V7.05083V7.05879V7.06675V7.07472V7.08269V7.09066V7.09863V7.10661V7.11459V7.12258V7.13057V7.13856V7.14655V7.15455V7.16255V7.17055V7.17856V7.18657V7.19458V7.2026V7.21061V7.21863V7.22666V7.23468V7.24271V7.25075V7.25878V7.26682V7.27486V7.2829V7.29095V7.29899V7.30704V7.31509V7.32315V7.33121V7.33927V7.34733V7.35539V7.36346V7.37153V7.3796V7.38767V7.39575V7.40383V7.41191V7.41999V7.42807V7.43616V7.44425V7.45234V7.46043V7.46852V7.47662V7.48471V7.49281V7.50091V7.50902V7.51712V7.52522V7.53333V7.54144V7.54955V7.55766V7.56578V7.57389V7.58201V7.59013V7.59825V7.60637V7.61449V7.62261V7.63074V7.63886V7.64699V7.65512V7.66325V7.67138V7.67951V7.68764V7.69578V7.70391V7.71205V7.72018V7.72832V7.73646V7.7446V7.75274V7.76088V7.76902V7.77716V7.78531V7.79345V7.80159V7.80974V7.81788V7.82603V7.83418V7.84232V7.85047V7.85862V7.86677V7.87492V7.88306V7.89121V7.89936V7.90751V7.91566V7.92381V7.93196V7.94011V7.94826V7.95641V7.96456V7.97271V7.98086V7.98901V7.99716V8.00531V8.01346V8.02161V8.02976V8.03791V8.04606V8.05421V8.06235V8.0705V8.07865V8.0868V8.09494V8.10309V8.11123V8.11938V8.12752V8.13566V8.14381V8.15195V8.16009V8.16823V8.17637V8.18451V8.19265V8.20078V8.20892V8.21706V8.22519V8.23332V8.24146V8.24959V8.25772V8.26585V8.27397V8.2821V8.29022V8.29835V8.30647V8.31459V8.32271V8.33083V8.33895V8.34707V8.35518V8.36329V8.3714V8.37951V8.38762V8.39573V8.40383V8.41194V8.42004V8.42814V8.43624V8.44433V8.45243V8.46052V8.46861V8.4767V8.48479V8.49287V8.50096V8.50904V8.51711V8.52519V8.53327V8.54134V8.54941V8.55748V8.56554V8.57361V8.58167V8.58972V8.59778V8.60583V8.61389V8.62193V8.62998V8.63802V8.64607V8.6541V8.66214V8.67017V8.67821V8.68623V8.69426V8.70228V8.7103V8.71832V8.72633V8.73434V8.74235V8.75035V8.75836V8.76636V8.77435V8.78234V8.79033V8.79832V8.8063V8.81428V8.82226V8.83024V8.83821V8.84617V8.85414V8.8621V8.87005V8.87801V8.88596V8.8939V8.90185V8.90978V8.91772V8.92565V8.93358V8.9415V8.94943V8.95734V8.96526V8.97317V8.98107V8.98897V8.99687V9.00476V9.01265V9.02054V9.02842V9.0363V9.04417V9.05204V9.05991V9.06777V9.07562V9.08348V9.09133V9.09917V9.10701V9.11484V9.12268V9.1305V9.13832V9.14614V9.15395V9.16176V9.16957V9.17736V9.18516V9.19295V9.20073V9.20851V9.21629V9.22406V9.23183V9.23959V9.24734V9.25509V9.26284V9.27058V9.27832V9.28605V9.29377V9.30149V9.30921V9.31692V9.32463V9.33233V9.34002V9.34771V9.35539V9.36307V9.37075V9.37841V9.38608V9.39373V9.40138V9.40903V9.41667V9.42431V9.43193V9.43956V9.44718V9.45479V9.46239V9.46999V9.47759V9.48518V9.49276V9.50034V9.50791V9.51547V9.52303V9.53058V9.53813V9.54567V9.55321V9.56074V9.56826V9.57577V9.58328V9.59079V9.59828V9.60577V9.61326V9.62074V9.62821V9.63567V9.64313V9.65058V9.65803V9.66547V9.6729V9.68033V9.68775V9.69516V9.70256V9.70996V9.71735V9.72474V9.73212V9.73949V9.74685V9.75421V9.76156V9.7689V9.77624V9.78357V9.79089V9.79821V9.80551V9.81282V9.82011V9.82739V9.83467V9.84195V9.84921V9.85647V9.86372V9.87096V9.87819V9.88542V9.89264V9.89985V9.90705V9.91425V9.92144V9.92862V9.93579V9.94296V9.95012V9.95727V9.96441V9.97154V9.97867V9.98579V9.9929V10C9 10.0565 9.00469 10.1119 9.0137 10.1659C7.84136 10.5738 7 11.6887 7 13V18C7 19.6569 8.34315 21 10 21H18C19.6569 21 21 19.6569 21 18V13C21 11.3431 19.6569 10 18 10L11 10V9.9929V9.98579V9.97867V9.97154V9.96441V9.95727V9.95012V9.94296V9.93579V9.92862V9.92144V9.91425V9.90705V9.89985V9.89264V9.88542V9.87819V9.87096V9.86372V9.85647V9.84921V9.84195V9.83467V9.82739V9.82011V9.81282V9.80551V9.79821V9.79089V9.78357V9.77624V9.7689V9.76156V9.75421V9.74685V9.73949V9.73212V9.72474V9.71735V9.70996V9.70256V9.69516V9.68775V9.68033V9.6729V9.66547V9.65803V9.65058V9.64313V9.63567V9.62821V9.62074V9.61326V9.60577V9.59828V9.59079V9.58328V9.57577V9.56826V9.56074V9.55321V9.54567V9.53813V9.53058V9.52303V9.51547V9.50791V9.50034V9.49276V9.48518V9.47759V9.46999V9.46239V9.45479V9.44718V9.43956V9.43193V9.42431V9.41667V9.40903V9.40138V9.39373V9.38608V9.37841V9.37075V9.36307V9.35539V9.34771V9.34002V9.33233V9.32463V9.31692V9.30921V9.30149V9.29377V9.28605V9.27832V9.27058V9.26284V9.25509V9.24734V9.23959V9.23183V9.22406V9.21629V9.20851V9.20073V9.19295V9.18516V9.17736V9.16957V9.16176V9.15395V9.14614V9.13832V9.1305V9.12268V9.11484V9.10701V9.09917V9.09133V9.08348V9.07562V9.06777V9.05991V9.05204V9.04417V9.0363V9.02842V9.02054V9.01265V9.00476V8.99687V8.98897V8.98107V8.97317V8.96526V8.95734V8.94943V8.9415V8.93358V8.92565V8.91772V8.90978V8.90185V8.8939V8.88596V8.87801V8.87005V8.8621V8.85414V8.84617V8.83821V8.83024V8.82226V8.81428V8.8063V8.79832V8.79033V8.78234V8.77435V8.76636V8.75836V8.75035V8.74235V8.73434V8.72633V8.71832V8.7103V8.70228V8.69426V8.68623V8.67821V8.67017V8.66214V8.6541V8.64607V8.63802V8.62998V8.62193V8.61389V8.60583V8.59778V8.58972V8.58167V8.57361V8.56554V8.55748V8.54941V8.54134V8.53327V8.52519V8.51711V8.50904V8.50096V8.49287V8.48479V8.4767V8.46861V8.46052V8.45243V8.44433V8.43624V8.42814V8.42004V8.41194V8.40383V8.39573V8.38762V8.37951V8.3714V8.36329V8.35518V8.34707V8.33895V8.33083V8.32271V8.31459V8.30647V8.29835V8.29022V8.2821V8.27397V8.26585V8.25772V8.24959V8.24146V8.23332V8.22519V8.21706V8.20892V8.20078V8.19265V8.18451V8.17637V8.16823V8.16009V8.15195V8.14381V8.13566V8.12752V8.11938V8.11123V8.10309V8.09494V8.0868V8.07865V8.0705V8.06235V8.05421V8.04606V8.03791V8.02976V8.02161V8.01346V8.00531V7.99716V7.98901V7.98086V7.97271V7.96456V7.95641V7.94826V7.94011V7.93196V7.92381V7.91566V7.90751V7.89936V7.89121V7.88306V7.87492V7.86677V7.85862V7.85047V7.84232V7.83418V7.82603V7.81788V7.80974V7.80159V7.79345V7.78531V7.77716V7.76902V7.76088V7.75274V7.7446V7.73646V7.72832V7.72018V7.71205V7.70391V7.69578V7.68764V7.67951V7.67138V7.66325V7.65512V7.64699V7.63886V7.63074V7.62261V7.61449V7.60637V7.59825V7.59013V7.58201V7.57389V7.56578V7.55766V7.54955V7.54144V7.53333V7.52522V7.51712V7.50902V7.50091V7.49281V7.48471V7.47662V7.46852V7.46043V7.45234V7.44425V7.43616V7.42807V7.41999V7.41191V7.40383V7.39575V7.38767V7.3796V7.37153V7.36346V7.35539V7.34733V7.33927V7.33121V7.32315V7.31509V7.30704V7.29899V7.29095V7.2829V7.27486V7.26682V7.25878V7.25075V7.24271V7.23468V7.22666V7.21863V7.21061V7.2026V7.19458V7.18657V7.17856V7.17055V7.16255V7.15455V7.14655V7.13856V7.13057V7.12258V7.11459V7.10661V7.09863V7.09066V7.08269V7.07472V7.06675V7.05879V7.05083V7.04288V7.03493V7.02698V7.01903V7.01109V7.00315V6.99522V6.98729V6.97936V6.97144V6.96352V6.95561V6.9477V6.93979V6.93189V6.92399V6.91609V6.9082V6.90031V6.89243V6.88455V6.87667V6.8688V6.86094V6.85307V6.84521V6.83736V6.82951V6.82166V6.81382V6.80598V6.79815V6.79032V6.7825V6.77468V6.76686V6.75905V6.75125V6.74345V6.73565V6.72786V6.72007V6.71229V6.70451V6.69674V6.68897V6.68121V6.67345V6.6657V6.65795V6.6502V6.64247V6.63473V6.627V6.61928V6.61156V6.60385V6.59614V6.58844V6.58074V6.57305V6.56536V6.55768V6.55001V6.54234V6.53467V6.52701V6.51936V6.51171V6.50407V6.49643V6.4888V6.48117V6.47355V6.46594V6.45833V6.45073V6.44313V6.43554V6.42795V6.42037V6.4128V6.40523V6.39767V6.39011V6.38256V6.37502V6.36748V6.35995V6.35243V6.34491V6.33739V6.32989V6.32239V6.31489V6.30741V6.29993V6.29245V6.28498V6.27752V6.27007V6.26262V6.25518V6.24774V6.24031V6.23289V6.22547V6.21807V6.21066V6.20327V6.19588V6.1885V6.18112V6.17376V6.1664V6.15904V6.1517V6.14436V6.13702V6.1297V6.12238V6.11507V6.10777V6.10047V6.09318V6.0859V6.07862V6.07135V6.06409V6.05684V6.0496V6.04236V6.03513V6.02791V6.02069V6.01348V6.00628V5.99909C11 4.34164 9.65626 3 8 3H6C4.34315 3 3 4.34315 3 6V10C3 10.5523 3.44772 11 4 11C4.55228 11 5 10.5523 5 10V6ZM9 13C9 12.4477 9.44772 12 10 12H18C18.5523 12 19 12.4477 19 13V18C19 18.5523 18.5523 19 18 19H10C9.44772 19 9 18.5523 9 18V13Z" fill="#333333"/>
</svg>
