<svg width="24" height="24" viewBox="0 0 24 24" fill="none" xmlns="http://www.w3.org/2000/svg">
<path fill-rule="evenodd" clip-rule="evenodd" d="M4 4H20V20H4V4ZM2 4C2 2.89543 2.89543 2 4 2H20C21.1046 2 22 2.89543 22 4V20C22 21.1046 21.1046 22 20 22H4C2.89543 22 2 21.1046 2 20V4ZM10.775 8.45587L9.70711 9.52372C9.31658 9.91424 8.68342 9.91424 8.29289 9.52372C7.90237 9.13319 7.90237 8.50003 8.29289 8.1095L9.36074 7.04166C10.8154 5.58697 13.1972 5.66627 14.5519 7.2145C15.8547 8.70334 15.692 10.9691 14.1899 12.2566L13.112 13.1806C13.0409 13.2415 13 13.3304 13 13.424V14.8166C13 15.3689 12.5523 15.8166 12 15.8166C11.4477 15.8166 11 15.3689 11 14.8166V13.424C11 12.7466 11.296 12.1029 11.8104 11.6621L12.8884 10.7381C13.5457 10.1746 13.6169 9.18307 13.0468 8.53151C12.4539 7.85396 11.4116 7.81925 10.775 8.45587ZM11 18C11 17.4477 11.4477 17 12 17H12.01C12.5623 17 13.01 17.4477 13.01 18C13.01 18.5523 12.5623 19 12.01 19H12C11.4477 19 11 18.5523 11 18Z" fill="#333333"/>
</svg>
