<svg width="24" height="24" viewBox="0 0 24 24" fill="none" xmlns="http://www.w3.org/2000/svg">
<path fill-rule="evenodd" clip-rule="evenodd" d="M9.70711 9.52372L10.775 8.45587C11.4116 7.81925 12.4539 7.85396 13.0468 8.53151C13.6169 9.18307 13.5457 10.1746 12.8884 10.7381L11.8104 11.6621C11.296 12.1029 11 12.7466 11 13.424L11 14.8166C11 15.3689 11.4477 15.8166 12 15.8166C12.5523 15.8166 13 15.3689 13 14.8166V13.424C13 13.3304 13.0409 13.2415 13.112 13.1806L14.1899 12.2566C15.692 10.9691 15.8547 8.70334 14.5519 7.2145C13.1972 5.66627 10.8154 5.58697 9.36074 7.04166L8.29289 8.1095C7.90237 8.50003 7.90237 9.13319 8.29289 9.52372C8.68342 9.91424 9.31658 9.91424 9.70711 9.52372ZM12 17C11.4477 17 11 17.4477 11 18C11 18.5523 11.4477 19 12 19H12.01C12.5623 19 13.01 18.5523 13.01 18C13.01 17.4477 12.5623 17 12.01 17H12Z" fill="#333333"/>
</svg>
