<svg width="24" height="24" viewBox="0 0 24 24" fill="none" xmlns="http://www.w3.org/2000/svg">
<path fill-rule="evenodd" clip-rule="evenodd" d="M19 6C19 4.34315 17.6569 3 16 3H8C6.34315 3 5 4.34315 5 6L5 18C5 19.6569 6.34315 21 8 21H16C17.6569 21 19 19.6569 19 18V6ZM16 5C16.5523 5 17 5.44772 17 6L17 18C17 18.5523 16.5523 19 16 19H8C7.44772 19 7 18.5523 7 18L7 6C7 5.44772 7.44772 5 8 5L16 5ZM14.3944 13.7889C15.072 13.4501 15.5 12.7575 15.5 12C15.5 11.2425 15.072 10.5499 14.3944 10.2111L11.3944 8.71115C10.7745 8.40116 10.0382 8.43429 9.44854 8.7987C8.8589 9.16311 8.5 9.80684 8.5 10.5L8.5 13.5C8.5 14.1932 8.85891 14.8369 9.44854 15.2013C10.0382 15.5657 10.7745 15.5988 11.3944 15.2889L14.3944 13.7889ZM12.5 11.5L13.5 12L12.5 12.5L11.2639 13.118L10.5 13.5V12.7361V11.2639V10.5L11.2639 10.882L12.5 11.5ZM3 7C3.55228 7 4 7.44772 4 8V16C4 16.5523 3.55228 17 3 17C2.44772 17 2 16.5523 2 16V8C2 7.44772 2.44772 7 3 7ZM22 8C22 7.44772 21.5523 7 21 7C20.4477 7 20 7.44772 20 8V16C20 16.5523 20.4477 17 21 17C21.5523 17 22 16.5523 22 16V8Z" fill="#333333"/>
</svg>
