<svg width="24" height="24" viewBox="0 0 24 24" fill="none" xmlns="http://www.w3.org/2000/svg">
<path fill-rule="evenodd" clip-rule="evenodd" d="M11.0296 8.0523C9.69657 7.25183 8 8.21201 8 9.76692V14.32C8 15.836 9.62089 16.8008 10.9535 16.0781L14.9375 13.9173C14.9586 13.9058 14.9795 13.8941 15 13.882V14.9999C15 15.5522 15.4477 15.9999 16 15.9999C16.5523 15.9999 17 15.5522 17 14.9999V8.99991C17 8.44762 16.5523 7.99991 16 7.99991C15.4477 7.99991 15 8.44762 15 8.99991V10.4365L11.0296 8.0523ZM10 14.32V9.76692L13.984 12.1592L10 14.32Z" fill="#333333"/>
</svg>
