<svg width="24" height="24" viewBox="0 0 24 24" fill="none" xmlns="http://www.w3.org/2000/svg">
<path fill-rule="evenodd" clip-rule="evenodd" d="M20 12C20 7.58172 16.4183 4 12 4C7.58172 4 4 7.58172 4 12C4 16.4183 7.58172 20 12 20C16.4183 20 20 16.4183 20 12ZM22 12C22 6.47715 17.5228 2 12 2C6.47715 2 2 6.47715 2 12C2 17.5228 6.47715 22 12 22C17.5228 22 22 17.5228 22 12ZM11.5296 8.05256C10.1966 7.25208 8.5 8.21226 8.5 9.76717V14.3203C8.5 15.8363 10.1209 16.8011 11.4535 16.0783L15.4375 13.9176C16.7982 13.1795 16.8407 11.2418 15.5136 10.4449L11.5296 8.05256ZM10.5 14.3203V9.76717L14.484 12.1595L10.5 14.3203Z" fill="#333333"/>
</svg>
