<svg width="24" height="24" viewBox="0 0 24 24" fill="none" xmlns="http://www.w3.org/2000/svg">
<path fill-rule="evenodd" clip-rule="evenodd" d="M17.1716 4.58577C16.781 4.19524 16.781 3.56208 17.1716 3.17156C17.5621 2.78103 18.1952 2.78103 18.5858 3.17156L20.7071 5.29288C21.0976 5.6834 21.0976 6.31656 20.7071 6.70709L18.5858 8.82841C18.1952 9.21893 17.5621 9.21893 17.1716 8.82841C16.781 8.43789 16.781 7.80472 17.1716 7.4142L17.5858 7H6C5.44772 7 5 7.44771 5 8V18C5 18.5523 5.44772 19 6 19H9C9.55228 19 10 19.4477 10 20C10 20.5523 9.55228 21 9 21H6C4.34315 21 3 19.6569 3 18V8C3 6.34315 4.34315 5 6 5H17.5858L17.1716 4.58577ZM13.3827 14.0761C13.7564 14.2309 14 14.5955 14 15V21H12V17.4142L11.7071 17.7071C11.3166 18.0976 10.6834 18.0976 10.2929 17.7071C9.90237 17.3166 9.90237 16.6834 10.2929 16.2929L12.2929 14.2929C12.5789 14.0069 13.009 13.9213 13.3827 14.0761ZM19 17.5C19 18.0077 18.8231 18.4163 18.6028 18.6733C18.3862 18.926 18.1668 19 18 19C17.8332 19 17.6138 18.926 17.3972 18.6733C17.1769 18.4163 17 18.0077 17 17.5C17 16.9923 17.1769 16.5837 17.3972 16.3267C17.6138 16.074 17.8332 16 18 16C18.1668 16 18.3862 16.074 18.6028 16.3267C18.8231 16.5837 19 16.9923 19 17.5ZM21 17.5C21 19.433 19.6569 21 18 21C16.3431 21 15 19.433 15 17.5C15 15.567 16.3431 14 18 14C19.6569 14 21 15.567 21 17.5Z" fill="#333333"/>
</svg>
