<svg width="24" height="24" viewBox="0 0 24 24" fill="none" xmlns="http://www.w3.org/2000/svg">
<path fill-rule="evenodd" clip-rule="evenodd" d="M2 5C2 3.34315 3.34315 2 5 2H19C20.6569 2 22 3.34315 22 5V10C22 10.5523 21.5523 11 21 11C20.4477 11 20 10.5523 20 10V5C20 4.44772 19.5523 4 19 4H5C4.44772 4 4 4.44772 4 5V19C4 19.5523 4.44771 20 5 20H10.5C11.0523 20 11.5 20.4477 11.5 21C11.5 21.5523 11.0523 22 10.5 22H5C3.34315 22 2 20.6569 2 19V5ZM20 14H14V20H20V14ZM14 12C12.8954 12 12 12.8954 12 14V20C12 21.1046 12.8954 22 14 22H20C21.1046 22 22 21.1046 22 20V14C22 12.8954 21.1046 12 20 12H14ZM10.2929 11.7071C10.6834 12.0976 11.3166 12.0976 11.7071 11.7071C12.0976 11.3166 12.0976 10.6834 11.7071 10.2929L8.41421 7H9C9.55228 7 10 6.55228 10 6C10 5.44772 9.55228 5 9 5H6C5.44772 5 5 5.44772 5 6V9C5 9.55228 5.44772 10 6 10C6.55228 10 7 9.55228 7 9V8.41421L10.2929 11.7071Z" fill="#333333"/>
</svg>
