<svg width="24" height="24" viewBox="0 0 24 24" fill="none" xmlns="http://www.w3.org/2000/svg">
<path fill-rule="evenodd" clip-rule="evenodd" d="M11 9C11 9.55229 10.5523 10 10 10L7 10C6.44772 10 6 10.4477 6 11L6 13C6 13.5523 6.44772 14 7 14H10C10.5523 14 11 14.4477 11 15C11 15.5523 10.5523 16 10 16H7C5.34315 16 4 14.6569 4 13L4 11C4 9.34315 5.34315 8 7 8L10 8C10.5523 8 11 8.44772 11 9ZM13 15C13 14.4477 13.4477 14 14 14H17C17.5523 14 18 13.5523 18 13V11C18 10.4477 17.5523 10 17 10H14C13.4477 10 13 9.55228 13 9C13 8.44772 13.4477 8 14 8L17 8C18.6569 8 20 9.34315 20 11V13C20 14.6569 18.6569 16 17 16H14C13.4477 16 13 15.5523 13 15ZM8 11C7.44772 11 7 11.4477 7 12C7 12.5523 7.44772 13 8 13H16C16.5523 13 17 12.5523 17 12C17 11.4477 16.5523 11 16 11H8Z" fill="#333333"/>
</svg>
