<svg width="24" height="24" viewBox="0 0 24 24" fill="none" xmlns="http://www.w3.org/2000/svg">
<path d="M12 2C17.5228 2 22 6.47715 22 12C22 17.5228 17.5228 22 12 22C6.47715 22 2 17.5228 2 12C2 6.47715 6.47715 2 12 2ZM12 4C7.58172 4 4 7.58172 4 12C4 16.4183 7.58172 20 12 20C16.4183 20 20 16.4183 20 12C20 7.58172 16.4183 4 12 4ZM12 6.75781C12.5521 6.75781 12.9997 7.20478 13 7.75684V13.8281L15.5352 11.293C15.9257 10.9024 16.5597 10.9024 16.9502 11.293C17.3404 11.6834 17.3404 12.3166 16.9502 12.707L12.707 16.9502C12.3166 17.3403 11.6834 17.3403 11.293 16.9502L7.0498 12.707C6.65962 12.3166 6.65964 11.6834 7.0498 11.293C7.44033 10.9024 8.07432 10.9024 8.46484 11.293L11 13.8281V7.75684C11.0003 7.20478 11.4479 6.75781 12 6.75781Z" fill="#333333"/>
</svg>
