<svg xmlns="http://www.w3.org/2000/svg" viewBox="0 0 400 400"><defs><style>.cls-1{fill:none;}.cls-2{fill:#fff;}</style></defs><title>Circuit1dGrowwwKit</title><g id="Layer_2" data-name="Layer 2"><rect width="400" height="400"/></g><g id="Layer_1" data-name="Layer 1"><path class="cls-1" d="M39.08,108.48a17.21,17.21,0,0,0,1.3,6.56c.42,0,.85,0,1.28,0A25,25,0,0,0,66.25,94.42a17.22,17.22,0,0,0-27.17,14.06Z"/><path class="cls-1" d="M56.31,89.34a19,19,0,0,1,10.22,3c.06-.73.1-1.46.1-2.21a25,25,0,1,0-28.37,24.74,19.13,19.13,0,0,1,18.05-25.5Z"/><path class="cls-1" d="M41.66,117h-.33a17.22,17.22,0,1,0,26.6-21.21A26.92,26.92,0,0,1,41.66,117Z"/><path class="cls-2" d="M68.31,93.58a28.51,28.51,0,0,0,.23-3.48,26.88,26.88,0,1,0-29.43,26.76,19.13,19.13,0,1,0,29.2-23.28ZM16.69,90.1a25,25,0,0,1,49.94,0c0,.75,0,1.48-.1,2.21a19.13,19.13,0,0,0-28.27,22.53A25,25,0,0,1,16.69,90.1Zm22.39,18.38A17.22,17.22,0,0,1,66.25,94.42a25,25,0,0,1-24.59,20.66c-.43,0-.86,0-1.28,0A17.21,17.21,0,0,1,39.08,108.48Zm17.23,17.24a17.25,17.25,0,0,1-15-8.74h.33A26.92,26.92,0,0,0,67.93,95.77a17.23,17.23,0,0,1-11.62,30Z"/><path class="cls-2" d="M22.83,162a1,1,0,0,0-1.91,0v4.2a1,1,0,1,0,1.91,0Z"/><path class="cls-2" d="M110.12,318.2c-4,0-6.31-6.33-8.51-12.45-2.43-6.73-4.93-13.7-10.31-13.7s-7.88,7-10.31,13.7c-2.2,6.12-4.47,12.45-8.51,12.45s-6.31-6.33-8.51-12.45c-2.42-6.73-4.93-13.7-10.31-13.7s-7.88,7-10.3,13.7c-2.2,6.12-4.48,12.45-8.51,12.45s-6.31-6.33-8.51-12.45c-2.43-6.73-4.93-13.7-10.31-13.7A1,1,0,0,0,16,294c4,0,6.31,6.32,8.51,12.44,2.43,6.74,4.93,13.71,10.31,13.71s7.88-7,10.3-13.71c2.21-6.12,4.48-12.44,8.51-12.44s6.31,6.32,8.52,12.44c2.42,6.74,4.93,13.71,10.3,13.71s7.88-7,10.31-13.71C85,300.28,87.27,294,91.3,294s6.31,6.32,8.51,12.44c2.43,6.74,4.93,13.71,10.31,13.71a1,1,0,0,0,0-1.91Z"/><path class="cls-2" d="M43.5,234.67a1,1,0,0,0,1-.95v-4.2a1,1,0,1,0-1.91,0v4.2A1,1,0,0,0,43.5,234.67Z"/><path class="cls-2" d="M43.5,226.44a1,1,0,0,0,1-1v-4.2a1,1,0,0,0-1.91,0v4.2A1,1,0,0,0,43.5,226.44Z"/><path class="cls-2" d="M45.52,228.45h4.2a1,1,0,1,0,0-1.9h-4.2a1,1,0,0,0,0,1.9Z"/><path class="cls-2" d="M37.29,228.45h4.2a.95.95,0,1,0,0-1.9h-4.2a1,1,0,1,0,0,1.9Z"/><path class="cls-2" d="M369.53,290.62a1,1,0,0,0-.95.95v4.2a1,1,0,1,0,1.9,0v-4.2A1,1,0,0,0,369.53,290.62Z"/><path class="cls-2" d="M369.53,282.38a1,1,0,0,0-.95,1v4.2a1,1,0,0,0,1.9,0v-4.2A1,1,0,0,0,369.53,282.38Z"/><path class="cls-2" d="M375.75,288.6h-4.2a1,1,0,1,0,0,1.91h4.2a1,1,0,0,0,0-1.91Z"/><path class="cls-2" d="M367.51,288.6h-4.2a1,1,0,0,0,0,1.91h4.2a1,1,0,1,0,0-1.91Z"/><path class="cls-2" d="M21.88,175.35a1,1,0,0,0,.95-.95v-4.2a1,1,0,1,0-1.91,0v4.2A1,1,0,0,0,21.88,175.35Z"/><path class="cls-2" d="M23.89,169.13h4.2a1,1,0,1,0,0-1.9h-4.2a1,1,0,0,0,0,1.9Z"/><path class="cls-2" d="M19.86,169.13a1,1,0,1,0,0-1.9h-4.2a1,1,0,1,0,0,1.9Z"/><path class="cls-1" d="M121.89,99.48a3.14,3.14,0,0,0-.78-1,3.21,3.21,0,0,0-4.1,0,3.14,3.14,0,0,0-.78,1,3.06,3.06,0,0,0-.33,1,3.43,3.43,0,0,0-.05.56c0,.13,0,.26,0,.39a3.43,3.43,0,0,0,.28,1,3,3,0,0,0,.67,1,3.21,3.21,0,0,0,4.48,0,3,3,0,0,0,.67-1,3.13,3.13,0,0,0,.28-1c0-.13,0-.26,0-.39a3.43,3.43,0,0,0,0-.56A3.06,3.06,0,0,0,121.89,99.48Z"/><path class="cls-1" d="M100.39,256.51a2.19,2.19,0,0,0-1.91-1.95h-.06l-.3,0a2.18,2.18,0,1,0,2.28,2.27,1.64,1.64,0,0,1,0-.23A.15.15,0,0,1,100.39,256.51Z"/><path class="cls-1" d="M173.66,121.23a.48.48,0,1,0,0-1H141.72c0,.08,0,.15,0,.23a4.4,4.4,0,0,1-.06.73Z"/><path class="cls-1" d="M361.12,107.11a3.38,3.38,0,0,0-1-.5,3.21,3.21,0,0,0-1-.16,3.45,3.45,0,0,0-.91.13,3.12,3.12,0,0,0-.95.47,3.25,3.25,0,0,0-.95,1.07,3.21,3.21,0,0,0-.4,1.54,3.23,3.23,0,0,0,1.35,2.6,3.12,3.12,0,0,0,.95.47,3.08,3.08,0,0,0,.91.13,2.94,2.94,0,0,0,1-.16,3.14,3.14,0,0,0,1-.5,3.26,3.26,0,0,0,.95-1.19,3.12,3.12,0,0,0,0-2.71A3.34,3.34,0,0,0,361.12,107.11Z"/><path class="cls-1" d="M161.13,112.06a3.38,3.38,0,0,0,.81,1,3.25,3.25,0,0,0,4.08,0,3.08,3.08,0,0,0,.81-1,3.27,3.27,0,0,0,.36-1,3.41,3.41,0,0,0,.07-.65c0-.1,0-.2,0-.3a3.27,3.27,0,0,0-.85-1.91,3.28,3.28,0,0,0-2.41-1.06,3.24,3.24,0,0,0-2.4,1.06,3.31,3.31,0,0,0-.62,1,3.38,3.38,0,0,0-.24,1c0,.1,0,.2,0,.3a3.42,3.42,0,0,0,.06.65A3.58,3.58,0,0,0,161.13,112.06Z"/><path class="cls-1" d="M173.66,111.1a.48.48,0,1,0,0-.95h-4.51c0,.1,0,.2,0,.3a4.62,4.62,0,0,1,0,.65Z"/><path class="cls-1" d="M190.07,329.24v5.39h73.1l.2-59H253c0,5.23,0,33.08,0,44.86v.3a7.27,7.27,0,0,1-1.84,5.68c-1.66,1.63-4.34,2.43-8.18,2.43H201.72V327h40.46c3.7.1,6.25-.53,7.61-1.87a5.49,5.49,0,0,0,1.27-4.3v-.31c-.05-11.68,0-39.11,0-44.71v-.16H200.27c0,5.17-.05,34.14,0,45.49v.08a7.17,7.17,0,0,1-1.88,5.51C196.72,328.37,193.92,329.21,190.07,329.24Z"/><path class="cls-1" d="M360.16,104.64V99a.95.95,0,0,0-1.9,0v5.64a4.6,4.6,0,0,1,.91-.09A5.36,5.36,0,0,1,360.16,104.64Z"/><path class="cls-2" d="M99.38,268.09v-1h0v-4.85a5.68,5.68,0,0,0,4.45-4.75h18.55a1,1,0,1,0,0-1.91H103.79a5.69,5.69,0,0,0-4.41-4.46V233.73a1,1,0,1,0-1.91,0V251.1a5.7,5.7,0,0,0-4.82,4.52H73.88a1,1,0,1,0,0,1.91H92.61a5.67,5.67,0,0,0,4.86,4.81v4.79h0V269h0v10.7a1,1,0,1,0,1.91,0V269h0Zm-1.16-7.6a3.77,3.77,0,1,1,0-7.54h0l.19,0h.07a3.78,3.78,0,0,1,3.49,3.56s0,0,0,.06a.77.77,0,0,0,0,.15A3.77,3.77,0,0,1,98.22,260.49Z"/><path class="cls-2" d="M79.52,63.25V131.8l1-.16,1-.15V65.16H383.27V273.75H335.46c-.08.33-.15.64-.23,1s-.16.64-.23,1h50.18V63.25Z"/><polygon class="cls-2" points="95.88 273.75 81.43 273.75 81.43 259.12 80.47 259.12 79.52 259.12 79.52 275.66 95.88 275.66 95.88 274.71 95.88 273.75"/><polygon class="cls-2" points="81.43 259.12 81.43 258.32 79.52 258.32 79.52 259.12 80.47 259.12 81.43 259.12"/><polygon class="cls-2" points="80.47 257.53 79.52 257.53 79.52 258.32 81.43 258.32 81.43 257.53 80.47 257.53"/><path class="cls-2" d="M130.69,273.75H101v1.91H131c-.06-.31-.12-.63-.17-1S130.74,274.07,130.69,273.75Z"/><path class="cls-2" d="M81.43,199.4V146.29l-1,.2-1,.23V199l1,.2Z"/><path class="cls-2" d="M146.79,274.71l.18,1h51.39c0,5.18-.05,34.14,0,45.5v.08a5.36,5.36,0,0,1-1.31,4.13c-1.42,1.4-4.08,2.06-7.91,2l-1,0v9.24h76.91l.2-60.88h55.26c.07-.31.13-.63.19-1l.18-1H146.62C146.68,274.07,146.74,274.39,146.79,274.71Zm53.48,46.52v-.08c-.05-11.35,0-40.32,0-45.49h50.78v.16c0,5.6,0,33,0,44.71v.31a5.49,5.49,0,0,1-1.27,4.3c-1.36,1.34-3.91,2-7.61,1.87H201.72v1.91H243c3.84,0,6.52-.8,8.18-2.43a7.27,7.27,0,0,0,1.84-5.68v-.3c0-11.78,0-39.63,0-44.86h10.41l-.2,59h-73.1v-5.39c3.85,0,6.65-.87,8.32-2.5A7.17,7.17,0,0,0,200.27,321.23Z"/><path class="cls-2" d="M81.43,254V214.14l-1-.11-1-.13V254h1.91Z"/><path class="cls-2" d="M88.54,254V214.34l-1,0h-1V254h1.91Z"/><path class="cls-2" d="M379.23,75.63a4.85,4.85,0,0,0-4.85-4.85H91.48a4.85,4.85,0,0,0-4.85,4.85V131l1,0,1,0V75.63a3,3,0,0,1,2.94-2.95h282.9a3,3,0,0,1,2.95,2.95v30.59l.16.2c.28.37.54.75.79,1.14a15.56,15.56,0,0,1,1,1.69Z"/><path class="cls-2" d="M101,269h29l-.12-1c-.05-.32-.09-.64-.13-1H101V269Z"/><path class="cls-2" d="M379.23,264.19V124.44a15.5,15.5,0,0,1-1,1.75c-.3.47-.62.93-.95,1.37V264.19a3,3,0,0,1-2.95,2.94h-37.5c-.06.32-.13.64-.19,1s-.13.63-.19,1h37.88A4.85,4.85,0,0,0,379.23,264.19Z"/><path class="cls-2" d="M86.63,199.79h1l1,0V145.6l-1,0-1,0Z"/><path class="cls-2" d="M290.8,267.13c-1.6.16-3.2.25-4.76.25a43.71,43.71,0,0,1-4.6-.25H145.58c0,.32.09.64.13,1s.09.63.14,1H321.76c.05-.32.1-.64.16-1l.15-1H290.8Z"/><path class="cls-2" d="M95.88,268.09v-1h-4.4a2.94,2.94,0,0,1-2.94-2.94v-5.07H86.63v5.07A4.86,4.86,0,0,0,91.48,269h4.4Z"/><path class="cls-2" d="M359.21,96.13A2.86,2.86,0,0,0,356.36,99v6.4a5.13,5.13,0,0,0-1.62,1.72l-.09,4.94a5,5,0,0,0,1.71,1.87v9.81c.31,0,.63,0,.95,0a7.61,7.61,0,0,1,.82.09l.13,0v-9.16a5.5,5.5,0,0,0,.91.08,4.62,4.62,0,0,0,1-.1v9.73a8.52,8.52,0,0,1,1,.47l.12.07.83-4.75v-6.32a5.33,5.33,0,0,0,1.35-1.37l.71-4.06a5.09,5.09,0,0,0-2.06-3V99A2.86,2.86,0,0,0,359.21,96.13ZM358.26,99a1,1,0,0,1,1.9,0v5.65a5.36,5.36,0,0,0-1-.1,4.6,4.6,0,0,0-.91.09Zm4.12,10.67a3.08,3.08,0,0,1-.31,1.35,3.26,3.26,0,0,1-.95,1.19,3.14,3.14,0,0,1-1,.5,2.94,2.94,0,0,1-1,.16,3.08,3.08,0,0,1-.91-.13,3.25,3.25,0,0,1-1.9-1.54,3.17,3.17,0,0,1-.4-1.53,3.21,3.21,0,0,1,.4-1.54,3.25,3.25,0,0,1,.95-1.07,3.12,3.12,0,0,1,.95-.47,3.45,3.45,0,0,1,.91-.13,3.21,3.21,0,0,1,1,.16,3.15,3.15,0,0,1,1.91,1.69A3.09,3.09,0,0,1,362.38,109.66Z"/><path class="cls-2" d="M357.31,142.36l-.95.66V248.33a2.86,2.86,0,1,0,5.71,0v-109l-.13.11c-.27.19-.54.36-.82.52a8.59,8.59,0,0,1-1,.48V248.33a.95.95,0,0,1-1.9,0V141.64C358,141.89,357.63,142.13,357.31,142.36Z"/><path class="cls-2" d="M173.66,98.52h-36q.33.47.63,1c.19.31.37.63.54,1h34.81a.48.48,0,1,1,0,.95H139.31c.14.32.26.64.38,1s.23.63.33,1h33.64a2.39,2.39,0,0,0,0-4.77Z"/><path class="cls-2" d="M94.65,100.43h2.47c.12-.32.25-.64.39-1a10.45,10.45,0,0,1,.44-1h-3.3a2.39,2.39,0,1,0,0,4.77h1.7c.06-.32.13-.64.2-1s.16-.64.26-1H94.65a.48.48,0,1,1,0-.95Z"/><path class="cls-2" d="M94.65,113h2.72c-.12-.31-.24-.63-.35-1s-.2-.64-.29-1H94.65a.48.48,0,1,1,0-.95H96.5c-.07-.32-.13-.63-.18-1s-.1-.63-.13-1H94.65a2.39,2.39,0,1,0,0,4.77Z"/><polygon class="cls-2" points="122.31 109.19 122.47 108.24 114.35 108.24 114.33 109.19 114.32 110.15 122.14 110.15 122.31 109.19"/><path class="cls-2" d="M140.37,112.06c0,.2-.09.41-.14.62s-.07.22-.1.33h19.35a5.16,5.16,0,0,0,9,0h5.18a2.39,2.39,0,0,0,0-4.77h-5a5.17,5.17,0,0,0-9.36,0H140.77c0,.32,0,.64,0,1s0,.64-.07,1h18.13c0,.1,0,.2,0,.3s0,.44,0,.65H140.55Q140.48,111.58,140.37,112.06Zm28.78-1.91h4.51a.48.48,0,1,1,0,.95h-4.54a4.62,4.62,0,0,0,0-.65C169.17,110.35,169.16,110.25,169.15,110.15Zm-8.43,0a3.38,3.38,0,0,1,.24-1,3.31,3.31,0,0,1,.62-1,3.24,3.24,0,0,1,2.4-1.06,3.28,3.28,0,0,1,2.41,1.06,3.27,3.27,0,0,1,.85,1.91c0,.1,0,.2,0,.3a3.41,3.41,0,0,1-.07.65,3.27,3.27,0,0,1-.36,1,3.08,3.08,0,0,1-.81,1,3.25,3.25,0,0,1-4.08,0,3.38,3.38,0,0,1-.81-1,3.58,3.58,0,0,1-.36-1,3.42,3.42,0,0,1-.06-.65C160.71,110.35,160.71,110.25,160.72,110.15Z"/><polygon class="cls-2" points="114.28 112.06 114.26 113.01 121.64 113.01 121.8 112.06 121.97 111.1 114.3 111.1 114.28 112.06"/><path class="cls-2" d="M94.65,123.14h12.13c-.52-.29-1-.61-1.58-1l-.33-.22c-.36-.24-.7-.48-1-.73H94.65a.48.48,0,0,1,0-1h8c-.36-.31-.7-.62-1-1s-.62-.63-.91-.95H94.65a2.39,2.39,0,1,0,0,4.77Z"/><path class="cls-2" d="M176,120.75a2.39,2.39,0,0,0-2.38-2.38H141.27A5.24,5.24,0,0,0,139,116c-.14.29-.28.58-.43.86s-.31.55-.48.82a3.34,3.34,0,0,1,1.47,1.69,3,3,0,0,1,.21,1,1.77,1.77,0,0,1,0,.23,3.55,3.55,0,0,1-.08.73,3.37,3.37,0,0,1-1.26,1.91,3.27,3.27,0,0,1-3.86,0,3.38,3.38,0,0,1-.75-.76l-.76.57-.27.19-.52.34a5.17,5.17,0,0,0,8.68-.34h32.66A2.39,2.39,0,0,0,176,120.75Zm-34.32-.48h31.94a.48.48,0,1,1,0,1h-32a4.4,4.4,0,0,0,.06-.73C141.73,120.42,141.72,120.35,141.72,120.27Z"/><path class="cls-2" d="M327.22,114.42c-2.05-7.08-4-13.76-8.5-13.76s-6.44,6.68-8.49,13.76c-.45,1.55-.92,3.16-1.42,4.69-1.37,4.17-3,7.69-5.24,7.69-3,0-4.84-6.1-6.48-11.73l-.18-.65c-2.05-7.08-4-13.76-8.5-13.76-3.46,0-5.4,3.94-7.05,9-.49,1.52-1,3.14-1.44,4.78-1.68,5.8-3.59,12.38-6.66,12.38s-5-6.58-6.66-12.38c-1.31-4.51-2.57-8.86-4.48-11.42a5,5,0,0,0-4-2.34v1.91c3.08,0,5,6.58,6.67,12.38,2.05,7.08,4,13.76,8.49,13.76S279.7,122,281.75,115c.45-1.55.92-3.16,1.42-4.69,1.37-4.17,3-7.69,5.24-7.69,3,0,4.84,6.1,6.48,11.73l.18.65c2.05,7.08,4,13.76,8.5,13.76,3.46,0,5.4-3.94,7.05-9,.5-1.52,1-3.14,1.44-4.78,1.68-5.8,3.59-12.38,6.66-12.38s5,6.58,6.66,12.38c1.31,4.51,2.57,8.86,4.48,11.42a5,5,0,0,0,4,2.34V126.8C330.81,126.8,328.9,120.22,327.22,114.42Z"/><polygon class="cls-2" points="359.55 88.27 359.55 87.32 136.55 87.32 136.55 89.22 359.55 89.22 359.55 88.27"/><polygon class="cls-2" points="251.01 84.18 359.55 84.18 359.55 83.22 359.55 82.27 251.01 82.27 251.01 84.18"/><polygon class="cls-2" points="330.63 77.27 330.63 78.22 330.63 79.18 359.54 79.18 359.54 77.27 330.63 77.27"/><path class="cls-2" d="M363.09,88.82a1,1,0,0,0,.71.31.92.92,0,0,0,.64-.25l4.44-4,4.44,4a.92.92,0,0,0,.64.25,1,1,0,0,0,.71-.31,1,1,0,0,0-.07-1.35l-4.3-3.93,4.3-3.93a1,1,0,1,0-1.28-1.41l-4.44,4-4.44-4a1,1,0,0,0-1.29,1.41l4.31,3.93-4.31,3.93A1,1,0,0,0,363.09,88.82Z"/><path class="cls-2" d="M123.22,104l.12-.67.17-1,.17-1,.16-.95.15-.82,0-.13.17-1h-.64a5.11,5.11,0,0,0-9,0h0v1l0,1,0,.95,0,1v1h0a5.11,5.11,0,0,0,8.73.67Zm-1-2.58a3.13,3.13,0,0,1-.28,1,3,3,0,0,1-.67,1,3.21,3.21,0,0,1-4.48,0,3,3,0,0,1-.67-1,3.43,3.43,0,0,1-.28-1c0-.13,0-.26,0-.39a3.43,3.43,0,0,1,.05-.56,3.06,3.06,0,0,1,.33-1,3.14,3.14,0,0,1,.78-1,3.21,3.21,0,0,1,4.1,0,3.14,3.14,0,0,1,.78,1,3.06,3.06,0,0,1,.33,1,3.43,3.43,0,0,1,0,.56C122.27,101.12,122.26,101.25,122.25,101.38Z"/><polygon class="cls-2" points="212.27 220.06 213.1 229.41 220.28 228.6 219.16 219.28 212.27 220.06"/><path class="cls-2" d="M290.29,236.26l-4-34.83-.49.25c-6.87,3.36-14,6.84-18.33,12a25.23,25.23,0,0,0-1.87,2.55,32.06,32.06,0,0,1,1.47,8.5,1,1,0,0,1-.85,1l-4.28.48a24,24,0,0,0,2,13.07Z"/><path class="cls-2" d="M207.73,220.58l-.09.12c-1.12,1.23-.91,5.94-.37,9.37l3.93-.44-.83-9.35Z"/><path class="cls-2" d="M262.3,224.25l2.84-.33a32.26,32.26,0,0,0-.82-5.41A24.2,24.2,0,0,0,262.3,224.25Z"/><path class="cls-2" d="M256.32,204.25a41.1,41.1,0,0,1,5.78-5.58l-3.35-29.49h0v0a9.31,9.31,0,0,0-18.5,2.1v.14l4.93,43.45,5-.57A39,39,0,0,1,256.32,204.25Z"/><path class="cls-2" d="M247.15,227.89l-1.31.14h-.11a.94.94,0,0,1-.93-.78c-.25-1.31-1.24-7.19-.11-10.46l-.24,0h-.11a1,1,0,0,1-1-.85l-5-44.5a1,1,0,0,1,0-.17,11.21,11.21,0,0,1,22.3-2.39h0a0,0,0,0,1,0,0l3.22,28.37a102,102,0,0,1,15.52-8.79c1.91-.94,3.62-1.81,5.15-2.63l-2.74-24s0-.07,0-.11l-1.34-11.51L172.82,162.6l9.82,86L249,241A38.35,38.35,0,0,1,247.15,227.89ZM227,229.76l-20.41,2.31h-.11a1,1,0,0,1-.93-.78c-.25-1.32-1.24-7.2-.11-10.46l-.24,0h-.11a1,1,0,0,1-1-.84l-5-44.5a1,1,0,0,1,0-.17,11.21,11.21,0,0,1,22.3-2.39h0v0l5,44.49a.95.95,0,0,1-.84,1.06h0c2,3.22,2.25,9.42,2.28,10.22A1,1,0,0,1,227,229.76Z"/><path class="cls-2" d="M246.52,226l.75-.09a39,39,0,0,1,2.12-9.68l-2.41.27-.09.12C245.77,217.89,246,222.6,246.52,226Z"/><path class="cls-2" d="M219.5,173.21h0v0a9.31,9.31,0,1,0-18.5,2.1v.14l4.93,43.44,18.51-2.1Z"/><path class="cls-2" d="M223.36,218.81l-2.3.26,1.12,9.31,3.71-.42C225.67,224.76,224.86,220.12,223.36,218.81Z"/><path class="cls-2" d="M61.24,183.11c-.4-1.67-.71-3.31-1-4.92l-10.76,1.14c.29,2.06.68,4.17,1.2,6.3a37.35,37.35,0,0,0,3.8,9.79l9.43-5.3A26.55,26.55,0,0,1,61.24,183.11Z"/><path class="cls-2" d="M65,191.73l-9.45,5.32a32.29,32.29,0,0,0,12.9,11.47L73.59,199A21.63,21.63,0,0,1,65,191.73Z"/><path class="cls-2" d="M65.61,153A23.13,23.13,0,0,1,71,148.26l-4.64-9.79a33.53,33.53,0,0,0-9.08,7.6c-.46.55-.9,1.12-1.33,1.71l8.52,6.68C64.85,154,65.22,153.46,65.61,153Z"/><path class="cls-2" d="M79.52,144.76l1-.22,1-.19h.06l-.06-.28-1-4.61-1-4.62-.22-1.05a41.52,41.52,0,0,0-11.25,3.78l4.63,9.74A29.23,29.23,0,0,1,79.52,144.76Z"/><path class="cls-2" d="M63.46,156.08l-8.56-6.72A36.59,36.59,0,0,0,50,161.58l10.58,2.23A26.21,26.21,0,0,1,63.46,156.08Z"/><path class="cls-2" d="M60.18,165.68l-10.59-2.23a50.72,50.72,0,0,0-.3,14L60,176.3A40.71,40.71,0,0,1,60.18,165.68Z"/><path class="cls-2" d="M81.43,201.33l-1-.16c-.32,0-.63-.12-1-.19l-.53-.11a26.77,26.77,0,0,1-3.64-1.11l-5.19,9.57a38.23,38.23,0,0,0,6.39,2.08c1,.22,2,.41,3,.56l1,.14,1,.11c1.28.14,2.59.22,3.92.25l-.11-10.8A34.13,34.13,0,0,1,81.43,201.33Z"/><path class="cls-2" d="M88.54,201.64l-1,.05h-.43l.1,10.78h.33l1,0a53.54,53.54,0,0,0,10.51-1.57l-2.27-10.52A41.64,41.64,0,0,1,88.54,201.64Z"/><path class="cls-2" d="M118.72,136a18.36,18.36,0,0,0,3.4-5.27,8.7,8.7,0,0,1-12.28-1.2,13.39,13.39,0,0,1-4.34,2.21l5.47,9.52A21.41,21.41,0,0,0,118.72,136Z"/><path class="cls-2" d="M103.6,132.24A37,37,0,0,1,95,133l-.14,10.82a43.77,43.77,0,0,0,14.3-1.93Z"/><path class="cls-2" d="M115.28,204.08a60.9,60.9,0,0,0,10.16-7.63l-8.29-7.09a51.44,51.44,0,0,1-8,5.8Z"/><path class="cls-2" d="M137.47,171a52.83,52.83,0,0,0-10,7.54L134,187.2a42.38,42.38,0,0,1,8.12-6.42Z"/><path class="cls-2" d="M131,190.57c.56-.68,1.13-1.34,1.72-2l-6.65-8.7q-1.74,1.75-3.42,3.79a49.39,49.39,0,0,1-4.06,4.36l8.25,7.07A59.82,59.82,0,0,0,131,190.57Z"/><path class="cls-2" d="M154.29,175.92l-5-9.88a51.33,51.33,0,0,0-10.14,4.05l4.67,9.73A40,40,0,0,1,154.29,175.92Z"/><path class="cls-2" d="M156.49,175.48a49.17,49.17,0,0,1,10-.51,111.52,111.52,0,0,1-9.59-10.48c-.51.07-1,.14-1.55.23-1.3.2-2.69.47-4.14.82l5.06,10Z"/><path class="cls-2" d="M107.48,196.1a49.29,49.29,0,0,1-8.86,3.72l2.27,10.55c1.48-.43,2.94-.91,4.39-1.45a60.17,60.17,0,0,0,8.34-3.88Z"/><path class="cls-2" d="M88.54,143.69c1.11,0,2.25,0,3.42.07l1,0L93.1,133l-.57,0q-1.65-.09-3.24-.09h-.75l-1,0-1,0c-1.78.08-3.51.25-5.2.49l-.24,0,.24,1.17,1.94,9.42c1.06-.14,2.14-.24,3.26-.3l1,0Z"/><path class="cls-2" d="M111.86,336.64l17.47,0c-.34-1.92-1.18-6.28-2.21-11.61A16.39,16.39,0,0,0,111.86,336.64Z"/><path class="cls-2" d="M135.66,286.92c4.57-.44,8.58-.08,11.83,2-.6-2.33-1.62-6.89-2.46-11.17l-12-1.23c.64,3.22,1.59,7.79,2.12,10.44Z"/><path class="cls-2" d="M171.67,226.7l-3,12.15a109.45,109.45,0,0,1,11.4,5.7l-1.45-13.88Q175,228.45,171.67,226.7Z"/><path class="cls-2" d="M145.16,239.31a7.24,7.24,0,0,1,1.57-2.18l-6.94-13.45c-3.52,2.81-5.83,7.21-7.25,12.45l11.22,7.29A21.79,21.79,0,0,1,145.16,239.31Z"/><path class="cls-2" d="M156.71,220.92l-.14,14.23a48.24,48.24,0,0,1,10.33,3l3-12.31A57.88,57.88,0,0,0,156.71,220.92Z"/><path class="cls-2" d="M143.24,263.89a94.14,94.14,0,0,1-.57-9.84l-12-3.42a107.89,107.89,0,0,0,.48,12.33Z"/><path class="cls-2" d="M130.75,248.67l11.95,3.4a47.33,47.33,0,0,1,.64-6.64l-11.28-7.33A62.72,62.72,0,0,0,130.75,248.67Z"/><path class="cls-2" d="M149.83,235.38a13.64,13.64,0,0,1,4.83-.43l.15-14.39a27.31,27.31,0,0,0-4.3-.36,17.22,17.22,0,0,0-9.15,2.37L148.29,236A8.12,8.12,0,0,1,149.83,235.38Z"/><path class="cls-2" d="M131.73,268.09c.05.32.09.63.13,1q.34,2.43.75,4.71l.15.84,1.66.12,10.54.74c-.05-.24-.1-.49-.14-.74s-.12-.64-.17-1c-.27-1.52-.53-3.1-.76-4.71,0-.32-.09-.63-.14-1s-.08-.64-.13-1-.11-.87-.16-1.31l-12.11-.93c.08.76.17,1.5.26,2.24Z"/><path class="cls-2" d="M341.85,324.61c-1,5.29-1.86,9.63-2.2,11.54l16.69,0C355.58,333.18,352.54,325.08,341.85,324.61Z"/><path class="cls-2" d="M289.52,254.48a33.29,33.29,0,0,1-8.2-.16l-.89,10.77a41.51,41.51,0,0,0,5.61.38,44.15,44.15,0,0,0,4.57-.24c1.18-.12,2.36-.28,3.53-.47l-2.89-10.5C290.68,254.34,290.1,254.42,289.52,254.48Z"/><path class="cls-2" d="M264.81,244.52l-8.57,6.57a35,35,0,0,0,8.4,8.08l5.4-9.38A23.78,23.78,0,0,1,264.81,244.52Z"/><path class="cls-2" d="M293.47,182.18a32,32,0,0,1-6.61,4.63l3.78,10.32a53.33,53.33,0,0,0,8.15-5.08,28.1,28.1,0,0,0,2.48-2.17Z"/><path class="cls-2" d="M302.85,251a44.43,44.43,0,0,1-9.7,3L296,264.41a54.76,54.76,0,0,0,11.75-3.77Z"/><path class="cls-2" d="M266.25,260.2c.49.3,1,.59,1.51.86a36.72,36.72,0,0,0,10.78,3.73l.89-10.82a25.24,25.24,0,0,1-7.8-3.11Z"/><path class="cls-2" d="M262.87,241.39a.2.2,0,0,1,0-.08q-.24-.45-.45-.9c-.15-.31-.29-.61-.42-.92a25.88,25.88,0,0,1-1.64-5.36l-10.55,2.39a35.32,35.32,0,0,0,1.12,4.24c.1.31.21.61.32.92s.22.62.34.92a38.8,38.8,0,0,0,1.75,3.84c.57,1.06,1.18,2.09,1.84,3.09l8.61-6.6C263.44,242.43,263.15,241.92,262.87,241.39Z"/><path class="cls-2" d="M296.68,173l10.67.14a24,24,0,0,0-3.82-13l-8.21,7.36A14.1,14.1,0,0,1,296.68,173Z"/><path class="cls-2" d="M296.39,177.11a8.77,8.77,0,0,1-1.66,3.64l7.85,7.73a18.3,18.3,0,0,0,4.58-10.34c.11-1.07.17-2.11.2-3.12l-10.69-.14A19.14,19.14,0,0,1,296.39,177.11Z"/><path class="cls-2" d="M292.94,155.66c-1.28,2.25-2.6,4.41-3.81,6.32a12.32,12.32,0,0,1,4.34,2.83,8.89,8.89,0,0,1,.84,1l8.08-7.23c-.36-.44-.73-.87-1.13-1.28a21.76,21.76,0,0,0-6.66-4.65C294.08,153.62,293.53,154.62,292.94,155.66Z"/><path class="cls-2" d="M314.9,243.35l6.66,8.31c.84-.74,1.67-1.51,2.52-2.34.28-5.95,0-11.21-1.22-14.84l-.36.51A51.62,51.62,0,0,1,314.9,243.35Z"/><path class="cls-2" d="M304.59,250.21l4.91,9.61c1.26-.62,2.51-1.29,3.73-2a51.19,51.19,0,0,0,6.89-4.9l-6.68-8.34A46.17,46.17,0,0,1,304.59,250.21Z"/><path class="cls-2" d="M263.49,216.05c.3-.51.62-1,.95-1.49l.22-.31c.31-.44.64-.87,1-1.3.13-.17.27-.33.41-.5s.45-.52.69-.78l-1.38-1.21-2.14-1.88-4.6-4.05c-.29.32-.57.62-.84.95a37.21,37.21,0,0,0-5.41,8.53c-.31.67-.59,1.34-.86,2a35.88,35.88,0,0,0-1.14,3.46L261,221.6A25.88,25.88,0,0,1,263.49,216.05Z"/><path class="cls-2" d="M285,200l1.11-.54L287,199l.91-.45,1-.51-1.57-4.3-1.4-3.82-.79-2.15-.39.21c-1.39.73-2.9,1.49-4.55,2.3-2.57,1.26-5.24,2.57-7.9,4l5.4,9.37C280.09,202.36,282.55,201.15,285,200Z"/><path class="cls-2" d="M264.12,199.52c-.6.46-1.19.94-1.76,1.42-.84.71-1.65,1.44-2.42,2.21l3,2.61,2.14,1.87,3,2.68a42.9,42.9,0,0,1,8-5.72l-5.39-9.37A62,62,0,0,0,264.12,199.52Z"/><path class="cls-2" d="M260,226.43c.08-.66.18-1.31.3-2,.06-.34.14-.68.22-1l-10.63-2.09a36,36,0,0,0-.69,4.38c-.06.65-.11,1.29-.14,1.94a37,37,0,0,0,.36,7l10.6-2.4A25.66,25.66,0,0,1,260,226.43Z"/><path class="cls-2" d="M282.48,151l1.16,9.76.11,1,.12,1,.38,3.25c.6-.87,1.25-1.84,1.93-2.89l.55-.86q.27-.41.54-.84c1.83-2.88,3.8-6.17,5.54-9.45.16-.28.31-.57.46-.85l.43-.84c2.95-5.8,5-11.31,4.07-14.16-.34-1-.78-1.09-.95-1.12-2.59-.37-9.1,7.1-13.56,13.32-.23.31-.45.63-.67.94l-.27.4h0l.07.56Z"/><path class="cls-2" d="M153.43,298.69a12.68,12.68,0,0,0-3.15-5.44,12.92,12.92,0,0,0-1.16-1.05,13.41,13.41,0,0,0-1.63-1.12,16.56,16.56,0,0,0-9.12-2.12c-.37,0-.74,0-1.12.07l-.51.06c-.39.05-.79.11-1.17.18a15,15,0,0,0-9.19,5.19,8.79,8.79,0,0,0-2,6.79c1.89,9.59,6,30.61,6.84,35.36l31.38.17-8.74-36.34Z"/><path class="cls-2" d="M344.35,189.58l-10.78,1a83,83,0,0,1,.17,10.07l10.88-.57A93.69,93.69,0,0,0,344.35,189.58Z"/><path class="cls-2" d="M342,218.42l-10.27-3.58c-.33,1.3-.69,2.59-1.09,3.84a32.79,32.79,0,0,1,4.5,6.65,35.17,35.17,0,0,1,2.18,5.76A71.08,71.08,0,0,0,342,218.42Z"/><path class="cls-2" d="M342.1,151a11.43,11.43,0,0,1,4.46-4.78l-7.91-7.63a21.65,21.65,0,0,0-6.26,7.66,25.23,25.23,0,0,0-1.52,3.93l10.26,3.48A14.56,14.56,0,0,1,342.1,151Z"/><path class="cls-2" d="M333.4,188.73l10.78-1a110.87,110.87,0,0,0-1.82-11.62l-10.74,1.5c0,.11.05.22.07.33A95.86,95.86,0,0,1,333.4,188.73Z"/><path class="cls-2" d="M344.53,202.05l-10.9.57A72.19,72.19,0,0,1,332.16,213l10.3,3.59A80.9,80.9,0,0,0,344.53,202.05Z"/><path class="cls-2" d="M340.52,164.44a37.52,37.52,0,0,1,.21-8.9L330.39,152a42.38,42.38,0,0,0-.77,11.55Z"/><path class="cls-2" d="M345.85,134.31a49.4,49.4,0,0,0-5.63,3.14l8,7.77c.74-.4,1.53-.8,2.39-1.23a43,43,0,0,0,5.16-2.88l-.37-.05a8.72,8.72,0,0,1-7.35-7.9C347.44,133.51,346.7,133.89,345.85,134.31Z"/><path class="cls-2" d="M329.75,165.51a91.63,91.63,0,0,0,1.49,10.17L342,174.19c-.58-2.81-1-5.42-1.26-7.82Z"/><path class="cls-2" d="M98.1,108.24c0,.32.09.64.14,1s.13.64.2,1,.16.64.26.95.21.64.33,1,.25.64.4,1a16.77,16.77,0,0,0,3.94,5.36c.36.32.74.64,1.13.95s.83.65,1.28,1l.1.08c.47.32.94.61,1.4.88l.88.49c0-.17.09-.33.14-.49a8,8,0,0,1,.39-1,7.91,7.91,0,0,1,.52-1,9.29,9.29,0,0,1,.7-.95,8.7,8.7,0,0,1,2.38-2l.06-3.38,0-1,0-1,0-.95,0-1v-1l.1-4.95v-1l0-1,0-.95,0-1,0-1,.12-6.77a12.4,12.4,0,0,0-1.36-.08,12.59,12.59,0,0,0-8.3,3.26,14.77,14.77,0,0,0-3,3.59c-.19.31-.36.63-.52,1s-.31.63-.44,1-.25.63-.36.95-.2.64-.29,1-.16.63-.23,1a15.55,15.55,0,0,0-.28,4Z"/><path class="cls-2" d="M123.94,119.32a7.4,7.4,0,0,1,.53,1c.1.21.19.43.27.65a2.83,2.83,0,0,1,.11.31,7.85,7.85,0,0,1,.26,1,7.67,7.67,0,0,1,.15,1,8.39,8.39,0,0,1,0,1.42l.17,0a26.49,26.49,0,0,0,2.71-1l.87-.39c.62-.3,1.21-.62,1.78-1,.24-.14.48-.3.71-.45s.49-.33.72-.5l.13-.1c.32-.23.62-.47.91-.72l.16-.14c.35-.3.68-.62,1-1s.58-.63.85-.95.56-.73.82-1.11.42-.65.61-1,.34-.61.49-.92a17.44,17.44,0,0,0,.94-2.35c.08-.27.16-.54.23-.81l0-.14q.12-.48.21-1c.06-.31.1-.63.14-.95s.07-.64.08-1,0-.63,0-1a15.7,15.7,0,0,0-.86-4.95c-.11-.32-.24-.64-.37-1s-.29-.64-.45-1-.34-.64-.53-.95-.42-.64-.64-1l-.26-.36c-.16-.21-.32-.4-.49-.6a12.27,12.27,0,0,0-8.39-4.37l-.76,4.37-.17,1-.17,1-.17.95-.16,1-.17,1-.87,4.95-.17,1-.16,1-.17.95-.17,1-.17,1-.84,4.8a6.77,6.77,0,0,1,.51.56A8,8,0,0,1,123.94,119.32Z"/><path class="cls-2" d="M112.25,118.73a7,7,0,0,0-.63.59,6.27,6.27,0,0,0-.75,1,6.83,6.83,0,0,0-.52,1,5.94,5.94,0,0,0-.34,1l-.09.39c0,.12,0,.24-.07.37l0,.2c0,.14,0,.28,0,.41a7.33,7.33,0,0,0,0,1,6.85,6.85,0,0,0,.36,1.64,6.25,6.25,0,0,0,.48,1.05,5.94,5.94,0,0,0,.56.85,6.79,6.79,0,0,0,11.43-1,5.41,5.41,0,0,0,.44-1.05,6.9,6.9,0,0,0,.25-1v0a6.67,6.67,0,0,0,0-1.89l0-.22a6.52,6.52,0,0,0-.16-.74l-.06-.19a6.92,6.92,0,0,0-.28-.76.77.77,0,0,1-.07-.16,7.44,7.44,0,0,0-.44-.78v0a6.81,6.81,0,0,0-.75-1l0,0a7.49,7.49,0,0,0-.84-.75l-.23-.16a6.68,6.68,0,0,0-2.81-1.12,6.35,6.35,0,0,0-1-.08,6.64,6.64,0,0,0-2.4.44,7.8,7.8,0,0,0-1,.45l-.48.31A5.46,5.46,0,0,0,112.25,118.73Zm4,10.2a1,1,0,0,1-.93.74l-.22,0a1,1,0,0,1-.71-1.15l1-4.51.2-.85,0-.15.19-.81,0-.18.18-.77.22-1,.22-1,0-.14a1,1,0,0,1,1.14-.71.93.93,0,0,1,.73.85.71.71,0,0,1,0,.29l-.15.66-.22,1-.12.49-.1.46-.13.54-.1.42-.13.57Z"/><path class="cls-2" d="M158.37,163.35l.72.89a125.53,125.53,0,0,0,10.3,10.91l1.14,1.07,1.19,1.1.84.76-.07-.66-.11-1L171,163.65l-.11-1h0c-5.26-4.86-13.32-11-16.46-11a1.57,1.57,0,0,0-.6.1c-.14,0-.56.22-.64,1.31-.18,2.34,1.72,5.76,4.51,9.42Z"/><path class="cls-2" d="M346.1,128.81a24.46,24.46,0,0,0,2.27,1.37,8.62,8.62,0,0,1,2-3.61,9.78,9.78,0,0,1,.87-.83,8.55,8.55,0,0,1,1.28-.88l.46-24.65a12.4,12.4,0,0,0-1.36-.08,12.61,12.61,0,0,0-8.3,3.26,15.24,15.24,0,0,0-5.07,12.34C338.56,121.09,341.21,125.49,346.1,128.81Z"/><path class="cls-2" d="M378.28,111.93a16.36,16.36,0,0,0-.95-2.24,14.3,14.3,0,0,0-1.36-2.11,12.41,12.41,0,0,0-8.88-5l-4,22.75-.15.89.06.07a8.57,8.57,0,0,1,.82,1,1.51,1.51,0,0,1,.18.26,8.52,8.52,0,0,1,1.48,5.46,25.76,25.76,0,0,0,2.88-1,17.17,17.17,0,0,0,9-8,16.1,16.1,0,0,0,.95-2.3c.11-.35.22-.7.31-1.06A15.25,15.25,0,0,0,378.28,111.93Z"/><path class="cls-2" d="M362.94,129.5c-.13-.25-.27-.5-.43-.75a3.62,3.62,0,0,0-.22-.32,3,3,0,0,0-.22-.28c-.11-.14-.23-.27-.35-.4a5.66,5.66,0,0,0-.43-.42l-.17-.14-.24-.2a6.76,6.76,0,0,0-.72-.46l-.19-.11a6.86,6.86,0,0,0-1.71-.62l-.42-.09-.53-.06-.52,0-.43,0a6.78,6.78,0,0,0-2,.42,6.52,6.52,0,0,0-1,.46l-.18.1a8.68,8.68,0,0,0-.79.56,6.75,6.75,0,0,0-1.23,1.33,6.94,6.94,0,0,0-1,2l-.12.49c0,.12-.05.24-.07.36s-.05.41-.07.61h0a6,6,0,0,0,0,1,6.81,6.81,0,0,0,5.73,6.12c.21,0,.41,0,.62.06a6,6,0,0,0,.95,0,7.5,7.5,0,0,0,.95-.14l.09,0a6.71,6.71,0,0,0,1.81-.72,1.88,1.88,0,0,0,.24-.14l.41-.27.31-.25a6.63,6.63,0,0,0,.95-1,6.19,6.19,0,0,0,.76-1.15,6.86,6.86,0,0,0,.44-1.05,7.36,7.36,0,0,0,.25-1v0h0a6.59,6.59,0,0,0,0-1.88A6.81,6.81,0,0,0,362.94,129.5Zm-4.68,7.44-.89.14h-.06l-.88.14-.07-.46-1.42-9,1.42-.23.47-.07.48,3.08.95,6.07.05.3Z"/><path class="cls-2" d="M330.64,284.26,321,282.05c-.67,3.11-1.29,5.77-1.76,7.73a17.87,17.87,0,0,1,10.65-3.21C330.07,286.1,330.32,285.31,330.64,284.26Z"/><path class="cls-2" d="M333,275.66l.24-1c.08-.32.15-.63.23-1,.28-1.15.55-2.36.83-3.63L329.57,269l-4.21-1-1.45-.33c0,.11,0,.22-.05.33-.06.32-.11.63-.16,1-.28,1.61-.57,3.19-.86,4.71-.06.32-.12.64-.19,1l-.18,1c-.19,1-.74,3.62-.93,4.53l9.65,2.5C331.6,281.26,332.54,277.59,333,275.66Z"/><path class="cls-2" d="M320.71,228.34l9-7.63c-.22-.26-.45-.51-.68-.76-3.66-3.85-8.59-6.18-14.74-7l-2.07,12.69A19.62,19.62,0,0,1,320.71,228.34Z"/><path class="cls-2" d="M337,242l-10.35.26-.57,0a73.32,73.32,0,0,1,0,7.54c-.08,1.65-.21,3.39-.38,5.22l11,1.17A86.69,86.69,0,0,0,337,242Z"/><path class="cls-2" d="M290.37,215.65l1.24,12.09a78.86,78.86,0,0,1,7.9-1.6l-.86-12.44Q294.71,214.42,290.37,215.65Z"/><path class="cls-2" d="M301.41,225.88a55.71,55.71,0,0,1,6.69-.43c.73,0,1.47,0,2.19.06l2.08-12.74a51.43,51.43,0,0,0-11.83.61Z"/><path class="cls-2" d="M334.75,268.09c.06-.32.12-.64.19-1,.47-2.45.9-5,1.26-7.71.05-.43.11-.87.16-1.31l-10.94-1.17c-.23,2.16-.53,4.44-.88,6.84-.1.7-.21,1.4-.32,2.09l5.56,1.26,4.21,1,.72.16A.94.94,0,0,0,334.75,268.09Z"/><path class="cls-2" d="M325.9,240.37h.59l10.3-.27c-.63-6.62-2.35-13-5.91-17.88l-8.66,7.35a9.1,9.1,0,0,1,1.51,2.13A23.44,23.44,0,0,1,325.9,240.37Z"/><path class="cls-2" d="M344.56,300.79a8.8,8.8,0,0,0-2-6.8,15.62,15.62,0,0,0-10.87-5.42c-.41,0-.81-.06-1.21-.08a20,20,0,0,0-2.58.08,15,15,0,0,0-8.86,3.85,12.2,12.2,0,0,0-1.48,1.65,13,13,0,0,0-2.06,4.15l0,.12-9.17,38,31.38-.16c.81-4.68,4.83-25.07,6.67-34.36Z"/><path class="cls-2" d="M249.07,103l0,0a1.17,1.17,0,0,0-.27,0,2.87,2.87,0,0,0-1.26.41,12.53,12.53,0,0,0-3.15,2.66,37.84,37.84,0,0,0-8.72,14.42l4.22.45C241.84,113.21,245.56,107.68,249.07,103Z"/><path class="cls-2" d="M207.41,122.11l.94.12,1,.11-2.37,19.57,40.34,4.21,2.33-22.36-8.21-.85-.95-.1-1-.1-4.35-.45-1-.1-1-.11-30.48-3.17a43.16,43.16,0,0,0-.69,5.24,7.82,7.82,0,1,1-8.32-1.55l-.16,0c.27-1.61.59-3.11,1-4.52l-6-.63-2.33,22.36,18.84,2Z"/><path class="cls-2" d="M198.89,122.3a7.51,7.51,0,0,1,1.34.54c.14-1.45.34-2.84.6-4.16.06-.32.12-.63.19-.94s.13-.63.21-.94c1.89-7.9,5.7-13.58,9.29-18.4l0,0a1.17,1.17,0,0,0-.27,0,2.66,2.66,0,0,0-1.26.41,12.16,12.16,0,0,0-3.15,2.66,37.66,37.66,0,0,0-8.89,15q-.14.45-.27.93c-.09.3-.18.61-.26.93-.32,1.21-.61,2.48-.85,3.84A7.76,7.76,0,0,1,198.89,122.3Z"/><path class="cls-2" d="M198.35,124.13a6.07,6.07,0,0,0-1.67-.24,5.92,5.92,0,0,0-5.67,4.24,5.91,5.91,0,1,0,7.34-4Z"/></g></svg>