<svg width="24" height="24" viewBox="0 0 24 24" fill="none" xmlns="http://www.w3.org/2000/svg">
<path d="M12.7115 3.23715C12.832 2.87577 12.6624 2.48148 12.3172 2.32037C11.972 2.15925 11.5609 2.28248 11.3613 2.60691L3.36126 15.6069C3.23686 15.809 3.21549 16.0581 3.30364 16.2785L5.30364 21.2785C5.42053 21.5707 5.70744 21.7589 6.02203 21.7497C6.33663 21.7404 6.61199 21.5357 6.71151 21.2372L12.7115 3.23715Z" fill="#D9D9D9"/>
<path d="M12.6386 2.60691C12.439 2.28248 12.0279 2.15925 11.6827 2.32037C11.3375 2.48148 11.1679 2.87577 11.2884 3.23715L17.2884 21.2372C17.3879 21.5357 17.6633 21.7404 17.9779 21.7497C18.2925 21.7589 18.5794 21.5707 18.6962 21.2785L20.3226 17.2127C20.6458 16.4046 20.5675 15.4913 20.1113 14.7501L12.6386 2.60691Z" fill="black"/>
<path d="M12.7115 2.76283C12.6094 2.45657 12.3228 2.25 12 2.25C11.6772 2.25 11.3906 2.45657 11.2885 2.76283L5.28849 20.7628C5.21226 20.9915 5.25061 21.243 5.39157 21.4385C5.53254 21.6341 5.75892 21.75 6.00001 21.75H18C18.2411 21.75 18.4675 21.6341 18.6084 21.4385C18.7494 21.243 18.7878 20.9915 18.7115 20.7628L12.7115 2.76283Z" fill="#5D5D5D"/>
</svg>
