<svg preserveAspectRatio="xMinYMin" viewBox="0 0 339 351" xmlns="http://www.w3.org/2000/svg" xmlns:xlink="http://www.w3.org/1999/xlink"><defs><linearGradient id="a" x1="28.38%" x2="73.593%" y1="22.97%" y2="90.77%"><stop offset="0%" stop-color="#FFF"/><stop offset="100%" stop-color="#E3E3E3"/></linearGradient><linearGradient id="b" x1="34.192%" x2="61.357%" y1="2.556%" y2="97.352%"><stop offset="0%" stop-color="#0038A5"/><stop offset="36.4%" stop-color="#114AAF"/><stop offset="100%" stop-color="#8CCEFE"/></linearGradient><mask id="c"><use fill="#FFF" xlink:href="#u"/></mask><mask id="d"><use fill="#FFF" xlink:href="#u"/></mask><mask id="e"><use fill="#FFF" xlink:href="#u"/></mask><mask id="f"><use fill="#FFF" xlink:href="#u"/></mask><mask id="g"><use fill="#FFF" xlink:href="#u"/></mask><mask id="h"><use fill="#FFF" xlink:href="#u"/></mask><mask id="i"><use fill="#FFF" xlink:href="#u"/></mask><radialGradient id="j" fr="0" fx="50%" fy="50%" cx="50%" cy="50%" r="50.604%"><stop offset="0%" stop-color="#FFF"/><stop offset="100%" stop-color="#FFF" stop-opacity="0"/></radialGradient><radialGradient id="k" fr="0" fx="50%" fy="50%" cx="50%" cy="50%" r="43.542%" xlink:href="#j"/><radialGradient id="l" fr="0" fx="50%" fy="50%" cx="50%" cy="50%" r="43.542%" xlink:href="#j"/><radialGradient id="m" fr="0" fx="50%" fy="50%" cx="50%" cy="50%" r="43.542%" xlink:href="#j"/><radialGradient id="n" fr="0" fx="50%" fy="50%" cx="50%" cy="50%" r="43.542%" xlink:href="#j"/><radialGradient id="o" fr="0" fx="50%" fy="50%" cx="50%" cy="50%" r="43.542%" xlink:href="#j"/><radialGradient id="p" fr="0" fx="50%" fy="50%" cx="50%" cy="50%" r="43.542%"><stop offset="0%" stop-color="#FFF" stop-opacity=".67"/><stop offset="100%" stop-color="#FFF" stop-opacity="0"/></radialGradient><radialGradient id="q" fr="0" fx="50%" fy="50%" cx="50%" cy="50%" r="43.542%" xlink:href="#p"/><radialGradient id="r" fr="0" fx="50%" fy="50%" cx="50%" cy="50%" r="43.542%" xlink:href="#p"/><radialGradient id="s" fr="0" fx="52.99%" fy="86.031%" cx="52.99%" cy="86.031%" r="82.588%"><stop offset="0%" stop-color="#FFF" stop-opacity="0"/><stop offset="65.191%" stop-color="#FFF" stop-opacity=".135"/><stop offset="100%" stop-color="#FFF" stop-opacity=".765"/></radialGradient><linearGradient id="t" x1="50%" x2="50%" y1="0" y2="100%"><stop offset="0%" stop-color="#FFF" stop-opacity=".017"/><stop offset="100%" stop-color="#FFF" stop-opacity=".326"/></linearGradient><path id="u" d="M97.5 0a97.5 97.5 0 1 0 0 195 97.5 97.5 0 1 0 0-195Z"/></defs><g transform="translate(4 0)"><path fill="url(#a)" fill-rule="evenodd" d="M183.354 278.205c46.137-8.37 82.43-44.99 90.3-91.29l57.08-17.43 -56.83-18.77v0c-7.3-47.12-43.96-84.53-90.69-92.94v-.001L165.724.48 147.01 57.15c-48.98 7.1-87.7 45.9-94.67 94.92v0L.21 167.98l52.325 17.28c7.48 48.297 45.816 86.39 94.229 93.52l17.46 57.19 19.08-57.8Z"/><path fill="#9F9F9F" d="M183.44 278.69c46.37-8.41 82.8-45.22 90.71-91.7l-.35.39 57.08-17.43 1.5-.46 -1.5-.5 -56.83-18.77 .33.39c-7.32-47.26-44.09-84.89-91.1-93.36l.38.34L166.17.3l-.46-1.51 -.5 1.49L146.49 56.94l.4-.34c-49.21 7.13-88.09 46.11-95.09 95.34l.34-.41L.01 167.44l-1.51.45 1.49.49 52.325 17.28 -.34-.4c7.51 48.53 46.04 86.78 94.65 93.93l-.41-.35 17.46 57.19 .45 1.5 .49-1.5 19.08-57.8 -.39.33Zm-.18-.99l-.3.05 -.1.28 -19.09 57.79 .95.01 -17.47-57.2 -.1-.31 -.32-.05c-48.18-7.09-86.36-45.01-93.81-93.11l-.05-.31 -.3-.1L.34 167.47l-.02.95 52.12-15.92 .3-.1 .04-.32c6.93-48.8 45.47-87.43 94.24-94.5l.3-.05 .09-.3L166.129.56l-.96-.02 17.48 57.28 .08.29 .3.05c46.58 8.39 83.02 45.69 90.28 92.52l.04.3 .29.09 56.82 18.76 .01-.96 -57.09 17.42 -.3.09 -.06.3c-7.84 46.06-43.95 82.55-89.91 90.87Z"/></g><g transform="translate(70 70)"><use fill="url(#b)" fill-rule="evenodd" xlink:href="#u"/><path fill="#979797" d="M194.5 97.5c0 53.57-43.43 97-97 97 -53.58 0-97-43.43-97-97 0-53.58 43.42-97 97-97 53.57 0 97 43.42 97 97Zm1 0c0-54.13-43.88-98-98-98 -54.13 0-98 43.87-98 98 0 54.12 43.87 98 98 98 54.12 0 98-43.88 98-98Z"/><g fill-rule="evenodd" fill="#B1D1EA"><path mask="url(#c)" opacity=".313" d="M67.18 157.6c31.36 0 53.32-33.18 53.32-78.11C120.5 33.71 92.79.65 51.432.65c-16.229 0-25.838 3.54-31.515 11.48 -4.74 6.61-6.55 14.75-8.48 33.48 .09-.94-1.04 10.27-1.4 13.58 -.61 5.56-1.21 10.47-1.93 15.4 -3.38 23.29 2.26 44.37 14.857 60.06 11.55 14.4 28.08 22.92 44.2 22.92Zm0-3c-15.18 0-30.86-8.08-41.864-21.8 -12.07-15.05-17.49-35.29-14.23-57.76 .72-4.97 1.33-9.92 1.93-15.52l-.001-.001c.47-4.54.94-9.07 1.39-13.61 1.87-18.181 3.62-26.02 7.93-32.042C27.35 6.84 36.05 3.63 51.41 3.63c39.58 0 66.068 31.61 66.068 75.836 0 43.468-20.94 75.1-50.32 75.1Z"/><path mask="url(#d)" opacity=".313" d="M179.95 186.49c14.18-15.76 15.94-42.37 7.05-72.863 -7.95-27.268-23.7-54.33-40.16-69.148C130.76 30 101.17 18.33 71.302 14.37c-32.215-4.28-59.43.89-72.89 15.83 -13.74 15.25-22.9 52.02-24.1 92.783 -1.25 42.3 6.25 79.85 21.26 97.89 14.913 17.92 50.044 20.35 93.22 9.84 38.38-9.35 76.13-27.59 91.13-44.25Zm-2.23-2.01c-14.52 16.12-51.77 34.12-89.62 43.33 -42.16 10.26-76.273 7.9-90.208-8.85 -14.43-17.34-21.8-54.25-20.57-95.886C-21.5 82.95-12.49 46.79.64 32.2c12.64-14.04 38.92-19.03 70.26-14.87 29.31 3.89 58.348 15.33 73.927 29.36 16.01 14.42 31.48 40.99 39.27 67.759 8.62 29.6 6.94 55.199-6.41 70.016Z"/><path mask="url(#e)" opacity=".313" d="M189.18 164.14c15.24 0 26.21-9.9 33.08-27.87 5.81-15.23 8.58-35.98 8.58-59.95 0-6.52.95-13.62 2.79-21.62 1.5-6.55 3.39-13.02 6.43-22.43 .23-.74 2.72-8.38 3.41-10.56 1.25-3.92 2.19-7.04 2.99-9.93 1.96-7.11 2.96-12.61 2.96-17.21 0-11.3-6.25-17.098-20.101-17.098 -24.07 0-47.38 5.08-66.27 15.74 -22.93 12.93-38.39 33.42-44.33 61.9 -5.9 28.25 1.45 55.64 18.43 77.495 14.83 19.08 35.57 31.49 51.99 31.49Zm0-3c-15.39 0-35.32-11.93-49.625-30.34 -16.47-21.18-23.58-47.69-17.87-75.04 5.76-27.619 20.68-47.382 42.86-59.91 18.4-10.39 41.2-15.357 64.791-15.357 12.24 0 17.1 4.51 17.1 14.09 0 4.273-.96 9.53-2.86 16.406 -.79 2.84-1.73 5.927-2.97 9.814 -.7 2.16-3.18 9.802-3.42 10.54 -3.06 9.485-4.98 16.03-6.5 22.67 -1.89 8.19-2.88 15.51-2.88 22.28 0 51.97-12.55 84.81-38.67 84.81Zm-90.7 120.4c25.8-18.76 1.33-117.5-37.89-157.719C20.97 83.18-5.72 73.37-31.03 91.76c-25.8 18.74-25.42 62.84.5 98.51 13.97 19.22 40.066 46.38 63.89 65.71 29.62 24.03 52.91 34.39 65.1 25.53Zm-1.77-2.43c-10.55 7.66-32.94-2.31-61.46-25.44 -23.63-19.18-49.544-46.14-63.36-65.15 -25.05-34.48-25.414-76.713-1.17-94.33C-5.53 76.92 19.72 86.2 58.42 125.91c38.12 39.1 62.11 135.874 38.267 153.196Z"/><path mask="url(#f)" opacity=".313" d="M-25.14 72c0 18.15 17.51 39.52 44.41 55.77 27.83 16.81 60.82 25.31 88.91 21.45 27.61-3.81 54.88-19.79 76.72-42.9 19.44-20.58 32-44.43 32-60.57 0-15.43-17.06-41.042-41.66-64.1 -25.93-24.3-54.14-40.215-74.72-40.215 -20.63 0-50.88 20.51-79.445 51.435 -27.15 29.38-46.23 61.27-46.23 79.118Zm3 0c0-16.86 18.76-48.22 45.43-77.09C51.324-35.44 81-55.56 100.53-55.56c19.63 0 47.25 15.58 72.66 39.4 24.03 22.53 40.7 47.564 40.7 61.91 0 15.244-12.22 38.44-31.18 58.51 -21.41 22.64-48.08 38.28-74.95 41.98 -27.35 3.76-59.67-4.57-86.95-21.05 -26.09-15.77-42.96-36.35-42.96-53.21Z"/><path mask="url(#g)" opacity=".313" d="M36.23 211.85c15.15 12.67 67 23.16 118.213 24.7 57.32 1.72 95.9-7.82 95.9-28.85 0-6.51-.17-3.72 1.83-33.75 1.63-24.38 2.22-41.19 1.63-58.64 -.94-27.82-5.07-50.59-13.4-68.18 -9.98-21.07-25.76-33.96-48.2-37.36C152.96 3.81 118.39 7.65 89.99 20 64.41 31.13 44.65 48.92 32.72 70.53c-11.29 20.43-18.25 49.11-18.49 76.02 -.27 29.1 7.18 52.9 21.96 65.26Zm1.92-2.31C24.19 197.86 17 174.89 17.25 146.6c.24-26.43 7.07-54.63 18.11-74.6 11.61-21.03 30.86-38.37 55.84-49.24 27.86-12.125 61.86-15.896 100.562-10.024 21.39 3.24 36.35 15.469 45.93 35.677 8.125 17.15 12.18 39.546 13.11 66.988 .58 17.32-.01 34.05-1.63 58.339 -2.02 30.17-1.85 27.33-1.85 33.94 0 18.27-37.39 27.51-92.82 25.85 -50.556-1.52-101.92-11.91-116.38-24.01Z"/><path mask="url(#h)" opacity=".313" d="M37.97 236.77c20.347 0 72.16-7 112.12-16.42 56.12-13.24 89.73-29.98 89.73-50.36 0-7.48.19-10.85 1.77-34.85 .94-14.36 1.44-23.73 1.67-33.51 .57-24.61-1.01-43.649-5.64-58.212 -5.7-17.92-15.93-28.22-31.56-29.62C155.31 9.25 89.09 42.15 60.4 84.26c-13.55 19.88-27.42 57.26-33.97 90.71 -7.32 37.37-4.256 61.74 11.509 61.74Zm0-3c-12.651 0-15.503-22.726-8.57-58.18 6.47-33.089 20.212-70.1 33.5-89.61C90.98 44.74 156.16 12.36 205.81 16.8c14.27 1.27 23.6 10.67 28.964 27.53 4.5 14.17 6.06 32.929 5.49 57.23 -.23 9.72-.72 19.06-1.67 33.37 -1.6 24.1-1.79 27.47-1.79 35.04 0 18.19-32.89 34.572-87.43 47.43 -39.75 9.37-91.34 16.33-111.44 16.33Z"/><path mask="url(#i)" opacity=".313" d="M-41.33 201.05c0 20.93 8.33 32.67 26.023 38.35 7.785 2.5 17.47 3.9 30.252 4.58 9.87.52 18.32.59 40.33.52 5.79-.02 8.71-.03 12.21-.03 37.51 0 78.643-5.95 107.16-16.54 34.99-12.99 49.82-32.07 37.57-56.11 -14.19-27.85-31.09-50.24-51.44-66.42C137.21 86.67 109.52 76.73 77.21 76.73c-31.76 0-61.73 16.91-85.06 45.01 -20.56 24.74-33.51 55.77-33.51 79.27Zm3 0c0-22.738 12.683-53.12 32.81-77.36 22.8-27.46 51.979-43.93 82.75-43.93 31.63 0 58.66 9.7 81.697 28.015 19.98 15.88 36.625 37.93 50.62 65.42 11.2 21.99-2.41 39.48-35.946 51.93 -28.15 10.44-68.935 16.34-106.12 16.34 -3.51 0-6.43 0-12.23.02 -21.96.06-30.38-.01-40.17-.53 -12.546-.66-22-2.04-29.5-4.45 -16.432-5.28-23.95-15.86-23.95-35.5Z"/></g></g><g transform="translate(82 81)"><g fill-rule="evenodd" fill="url(#j)"><path d="M11 77a9 7 0 1 0 0 14 9 7 0 1 0 0-14Z" transform="rotate(20 11 84)"/><path fill="url(#k)" d="M40 31.933a6.515 5.06 0 1 0 0 10.134 6.515 5.06 0 1 0 0-10.134Z" transform="rotate(30 40 37)"/><path fill="url(#l)" d="M84 1.75a9.31 7.24 0 1 0 0 14.482A9.31 7.24 0 1 0 84 1.75Z" transform="rotate(-10 84 9)"/><path fill="url(#m)" d="M117 15.95a7.26 5.65 0 1 0 0 11.3 7.26 5.65 0 1 0 0-11.31Z" transform="rotate(-10 117 21.607)"/><path fill="url(#n)" d="M153 49.955a7.26 5.65 0 1 0 0 11.3 7.26 5.65 0 1 0 0-11.31Z" transform="rotate(-10 153 55.607)"/><path fill="url(#o)" d="M159.138 96.834a11.279 8.773 0 1 0 0 17.54 11.279 8.773 0 1 0 0-17.55Z" transform="rotate(-10 159.138 105.607)"/><path fill="url(#p)" d="M65.13 125.814a12.592 9.793 0 1 0 0 19.58 12.592 9.793 0 1 0 0-19.59Z" transform="rotate(-10 65.138 135.607)"/><path fill="url(#q)" d="M36.936 94.858a8.004 6.225 0 1 0 0 12.45 8.004 6.225 0 1 0 0-12.45Z" transform="rotate(28 36.936 101.083)"/><path fill="url(#r)" d="M106.862 67.52a8.004 6.225 0 1 0 0 12.45 8.004 6.225 0 1 0 0-12.45Z" transform="rotate(-30 106.862 73.746)"/></g></g><g fill-rule="evenodd" fill="url(#s)"><path d="M78.33 173.31c-1.24-9.29-2.19-73.82 59.08-94.11 61.27-20.29 96.87 39.06 96.87 45.071 -3.69 0-50.83-7.4-85.39 4.96 -34.56 12.35-62.12 34.79-70.58 44.077Z" transform="translate(4 0)"/><path fill="url(#t)" d="M26.547 113.6c4.95-4.39 12.85-3.14 11.33-11.59 -.47-2.61-3.85-9.06-1.17-9.06 4.47 0 12.08-.14 33.54-10.51 1.89-.92 3.19-4.84 2.45-6.83 -2.46-6.56-3.54-9.57-4.6-15.49 -2.46-13.665 9.58.52 11.55-10.2 1.04-5.68-.34-11.25 0-17.006 .07-1.22 2.57-1.67 3.67-2.22 13.6-6.82 2.06 10.52 13.6 6.87 4.75-1.51 9.77-6.35 14.81-6.88 11.59-1.221 10.29 3.23 19.59-13.93 1.1-2.04.45-4.68 0-6.95 -.35-1.72-1.21-3.37-2.35-4.7C126.25 1.93 119.71.98 116.45.84 103.81.29 91.137.08 78.48.57 26.79 2.6-6.32 31.81 1.76 78.4 4.57 94.61 10.6 89.01 21.1 100.51s1.9 9.78 5.372 13.03Zm60.17-57.08c-2.07-3.5-7.06-7.69 3-11.66 2.99-1.19 5.8 4.57 8.63 3.33 2.84-1.25 2.9-12.01 3.47-8.628 3.87 23.31-3.15 14.39-6.98 20.485 -1.5 2.37.76 4.94 0 7.64 -1.1 3.87-4.81.97-5.65 0 -1.38-1.61-2.06-3.71-3.09-5.56l.6-5.63Zm6.81 132.349c-3.5 2.06-7.69 7.05-11.66-3.01 -1.19-3 4.57-5.81 3.33-8.64 -1.25-2.84-12.006-2.91-8.63-3.47 23.31-3.88 14.4 3.14 20.485 6.97 2.37 1.49 4.94-.77 7.64 0 3.87 1.09.97 4.81 0 5.64 -1.61 1.38-3.71 2.05-5.56 3.08l-5.63-.61ZM188.96 56.04c-10.87-12.41-36.72-28.92-55-23.46 -17.71 5.28-8.03 39.187-7.95 48.98 .01 2.16-3.73 4.49-2.26 6.08 5 5.384 13.45 6.52 18.72 11.64 6.61 6.43-4.88 15.18 2.94 21.27 3.61 2.81 12.81 5.82 14.85 11.59 1.02 2.9.84 6.13.65 9.2 -.43 6.72-6.01 14.3-2.52 20.07 1.24 2.05 15.8-.98 19.5-3.26 14.375-8.87 1.52-2.73 7.64-20.81 1.78-5.28 12.09-9.08 9.29-13.9l-.53-2.96c-8.25-14.2-10.55-28.87-9.643-45.6 .43-8.1 4.24 5.93 4.77-13.77l-.52-5.125ZM44.21 104.68c-18.35 14.29 9.01 11.012 8.78 29.61 -.04 2.44-1.42 5.94-2.7 7.92 -10.665 16.49-16.46 7.77 11.03 44.48 1.69 2.26 6.05 7.1 9.28 7.18 2.01-2.5-11.75-22.92-6.45-25.31 8.91-4.03 19.94-2.86 28.22-8.07 3.99-2.51 4.13-8.53 5.38-13.08 .71-2.59 2.2-6.03.43-8.04 -4.29-4.88-11.26-7.32-16.545-10.29 -12.05-6.75 7.36-10.16-32.34-24.76 0 0-3.11-.69-5.12.33Z" transform="translate(58 59)"/></g></svg>