<svg preserveAspectRatio="xMinYMin" viewBox="0 0 605 605" xmlns="http://www.w3.org/2000/svg"><path fill="#87B044" fill-rule="evenodd" d="M113.601 324.248c-1.36-4.91-2.86-9.78-3.96-14.74 -.27-1.2.46-2.95 1.3-4 37.169-46.66 80.038-86.22 136.834-107.87 25.3-9.65 51.541-13.119 78.529-8.64 .79.13 1.625.01 2.89-.83 -1.69-1-3.31-2.15-5.07-2.98 -19.76-9.35-40.77-11.23-62.04-8.82 -43.86 4.96-82.03 23.96-114.14 53.13 -21.95 19.93-41.34 42.976-55.336 69.803 -1.84 3.5-5.01 6.74-8.33 8.95 -5.65 3.76-10.83.95-10.96-5.91 -.11-5.44.33-11.04 1.58-16.31 5.65-23.85 16.44-45.69 27.4-67.4 14.57-28.91 30.25-57.12 51.77-81.66 36.75-41.93 82.38-67.448 137.841-74.61 28.95-3.74 57.815-1.85 86.517 3.16 4.73.82 9.56 1.52 14.36 1.56 16.59.13 26.74-9.305 27.22-26 .27-9.61-.83-19.26-1.34-28.88 -.11-2-.62-4-.46-5.96 .16-2.02.91-3.987 1.4-5.977 1.92.748 4.3 1.015 5.71 2.323 8.89 8.266 18.02 16.35 26.238 25.274 14.12 15.33 23.34 33.566 28.95 53.588 1.95 6.97 5.56 12.4 11.09 17.25 32.73 28.69 62.33 60.16 84.46 98.01 13.66 23.36 23.6 48.12 27.24 75.09 3.125 23.15 1.4 45.83-7.57 67.71 -.9 2.18-.76 5.13-.21 7.51 2.38 10.18 5.16 20.28 7.64 30.45 .54 2.23.44 4.62.57 6.95 .86 15.73-10.6 20.1-22.35 16.41 -8.21-2.58-16.03-7.43-23.05-12.58 -22.14-16.23-40.81-36.27-59.78-55.94l-.001 0c-17.58-18.23-35.18-36.43-52.8-54.61 -2.09-2.15-4.52-3.96-6.65-6.07 -6.54-6.47-13.96-8.03-23.19-6.79 -28.36 3.8-56.53 2.27-84-6.34 -7.72-2.42-15.08-5.94-22.51-9.57 15.27-3.1 29.6-8.08 43.1-15.24 4.66-2.48 9.14-5.53 13.13-8.98 4.34-3.77 3.87-6.369-.31-10.36 -9.18-8.75-20.99-11.33-32.72-13.63 -32.65-6.42-63.16 1.09-92.411 15.33 -31.363 15.26-58.6 36.357-83.054 60.92 -14.32 14.37-27.34 30.04-40.91 45.15 -.65.71-.97 1.7-1.45 2.57l-1.32-.63Zm-56.179 25.8c-4.57 15.43-7.46 30.18-21.65 38.68 -11.22 6.72-23.78 3.41-28.9-7.54 -3.545-7.59-1.97-14.45 4.78-19.45 7.913-5.86 16.79-9.53 26.63-10.488 5.91-.58 11.875-.77 19.12-1.22Zm-1.94-11.77c-7.04.65-14.12 2.13-21.1 1.72 -7.35-.43-14.825-1.95-21.831-4.25 -9.89-3.25-12.9-8.86-11.484-18.2 1.32-8.78 7.84-14.71 17.12-15.29 9.76-.62 17.84 3.61 23.57 10.89 5.66 7.2 9.89 15.53 14.75 23.36l-1.05 1.73Z"/></svg>