<svg preserveAspectRatio="xMinYMin" viewBox="117 265 239 235" xmlns="http://www.w3.org/2000/svg"><g fill="#0080F5" fill-rule="evenodd"><path d="M116.37 262.2h239.97v239.97H116.37V262.2Z"/><path fill="#FFF" d="M255.114 423.02h-.001c-5.1-1.13-10.3-1.7-15.512-1.7v0c-7.14-.01-14.23 1.05-21.05 3.13V388.4h36.56V423Zm18.73 6.95V369.7l-74.06.01v63.6l-.21.13h-36.35V332.16h110.25s36.92.17 36.92 35.65v65.59l-30.8.04v0c-1.87-1.26-3.8-2.42-5.77-3.49"/><path fill="#A6D3FC" d="M125.75 491.55v-33.315l0-.001c4.58-1.96 9.44-3.17 14.41-3.57l-.01.07c.86-.12 1.8-.19 2.77-.22l1.14-.03v-.001c1.22 0 2.43.05 3.65.15 3.15.26 6.48.85 9.65 1.75 -.29 1.21.07.02.07.02l-.08-.02 .06-.27c-1-1.61-3.42-3.84-6.3-5.68 7.14-7.68 17.32-12.5 28.64-12.5 3.89 0 7.65.57 11.2 1.63 -2.02 3.9-3.61 8.73-3.78 12.69l.14.13 -.02.02s1.02.9.01-.03c4.03-5.38 6.65-8.17 9.46-10.57l.06.02h0c.65-.59 1.32-1.17 2-1.72 .99-.78 2.05-1.59 3.22-2.48 10.54-7.63 23.49-12.15 37.5-12.15 15.71 0 30.09 5.66 41.24 15.04 -1.36 2.41-2.24 5.53-2.79 8.03l.22.32 -.08.05s.69.84.08-.06c2.31-1.77 4.88-3.06 7.12-4.13l.02.02v0c3.9-1.65 8.1-2.49 12.34-2.48 12.58 0 23.45 7.3 28.62 17.89 .17.35.34.72.51 1.1l.15.33c.85 2.04 1.59 4.45 2.11 7.46 -1.26.21.02.08.02.08l-.02-.08 .25-.04c1.35-2.06 2.52-5.84 2.8-9.29 4.54-2.47 9.53-4.22 14.82-5.07v36.79H125.68Z"/></g></svg>