<svg width="24" height="24" viewBox="0 0 24 24" fill="none" xmlns="http://www.w3.org/2000/svg">
<path d="M18 9L18 15H16L16 9L18 9Z" fill="black"/>
<path d="M4 7L4 17H2L2 7H4Z" fill="black"/>
<path d="M14 3L14 21H12L12 3L14 3Z" fill="black"/>
<path d="M8 7V9L2 9L2 7H8Z" fill="black"/>
<path d="M8 15V17H2L2 15H8Z" fill="black"/>
<path d="M10 17V19H8V17H10Z" fill="black"/>
<path d="M12 19V21H10V19H12Z" fill="black"/>
<path d="M12 3L12 5H10V3H12Z" fill="black"/>
<path d="M10 5V7H8V5H10Z" fill="black"/>
</svg>
