<svg id="Layer_1" enable-background="new 0 0 64 64" height="512" viewBox="0 0 64 64" width="512" xmlns="http://www.w3.org/2000/svg" xmlns:xlink="http://www.w3.org/1999/xlink"><linearGradient id="SVGID_1_" gradientUnits="userSpaceOnUse" x1="3.466" x2="57.034" y1="60.534" y2="6.966"><stop offset="0" stop-color="#005ece"/><stop offset="1" stop-color="#2488ff"/></linearGradient><linearGradient id="SVGID_2_" gradientUnits="userSpaceOnUse" x1="6.966" x2="57.034" y1="64.034" y2="13.966"><stop offset="0" stop-color="#00969b"/><stop offset="1" stop-color="#00d7df"/></linearGradient><linearGradient id="lg1"><stop offset="0" stop-color="#b3d8f4"/><stop offset="1" stop-color="#d1e7f8"/></linearGradient><linearGradient id="SVGID_3_" gradientUnits="userSpaceOnUse" x1="27.086" x2="36.914" xlink:href="#lg1" y1="38.914" y2="29.086"/><linearGradient id="SVGID_4_" gradientUnits="userSpaceOnUse" x1="27.086" x2="36.914" xlink:href="#lg1" y1="48.914" y2="39.086"/><g><path d="m59 11h-33c-.83 0-2.12-.534-2.707-1.121l-4.172-4.172c-.973-.973-2.745-1.707-4.121-1.707h-10c-2.757 0-5 2.243-5 5v46c0 2.757 2.243 5 5 5h54c2.757 0 5-2.243 5-5v-39c0-2.757-2.243-5-5-5z" fill="url(#SVGID_1_)"/><path d="m59 18h-54c-2.757 0-5 2.243-5 5v32c0 2.757 2.243 5 5 5h54c2.757 0 5-2.243 5-5v-32c0-2.757-2.243-5-5-5z" fill="url(#SVGID_2_)"/><g><g><path d="m39 36h-14c-1.105 0-2-.896-2-2s.895-2 2-2h14c1.104 0 2 .896 2 2s-.896 2-2 2z" fill="url(#SVGID_3_)"/></g><g><path d="m39 46h-14c-1.105 0-2-.896-2-2s.895-2 2-2h14c1.104 0 2 .896 2 2s-.896 2-2 2z" fill="url(#SVGID_4_)"/></g></g></g></svg>