<svg id="Layer_1" enable-background="new 0 0 64.001 64.001" height="512" viewBox="0 0 64.001 64.001" width="512" xmlns="http://www.w3.org/2000/svg" xmlns:xlink="http://www.w3.org/1999/xlink"><linearGradient id="SVGID_1_" gradientUnits="userSpaceOnUse" x1="5.467" x2="53.707" y1="58.535" y2="10.294"><stop offset="0" stop-color="#b3d8f4"/><stop offset="1" stop-color="#d1e7f8"/></linearGradient><linearGradient id="lg1"><stop offset="0" stop-color="#00969b"/><stop offset="1" stop-color="#00d7df"/></linearGradient><linearGradient id="SVGID_2_" gradientUnits="userSpaceOnUse" x1="42.467" x2="49.707" xlink:href="#lg1" y1="13.535" y2="6.294"/><linearGradient id="SVGID_3_" gradientUnits="userSpaceOnUse" x1="19.38" x2="36.621" y1="40.621" y2="23.381"><stop offset="0" stop-color="#005ece"/><stop offset="1" stop-color="#2488ff"/></linearGradient><linearGradient id="SVGID_4_" gradientUnits="userSpaceOnUse" x1="32.29" x2="33.71" xlink:href="#lg1" y1="28.711" y2="27.291"/><linearGradient id="SVGID_5_" gradientUnits="userSpaceOnUse" x1="37.543" x2="47.458" xlink:href="#lg1" y1="36.958" y2="27.044"/><g><g><path d="m55.994 13.887c-.018-.151-.196-1.502-1.115-2.422l-10.343-10.343c-.919-.919-2.27-1.098-2.422-1.115-.037-.004-.076-.006-.114-.006h-29c-2.757 0-5 2.243-5 5v54c0 2.757 2.243 5 5 5h38c2.757 0 5-2.243 5-5v-45c0-.038-.002-.076-.006-.114z" fill="url(#SVGID_1_)"/><path d="m54.879 11.465-10.343-10.343c-.919-.919-2.27-1.098-2.422-1.115-.287-.035-.567.058-.779.248-.213.189-.335.461-.335.746v9c0 2.757 2.243 5 5 5h9c.285 0 .557-.122.746-.335.19-.212.28-.496.248-.779-.018-.151-.196-1.502-1.115-2.422z" fill="url(#SVGID_2_)"/></g><g><path d="m35 23.001h-14c-1.654 0-3 1.346-3 3v12c0 1.654 1.346 3 3 3h14c1.654 0 3-1.346 3-3v-12c0-1.654-1.345-3-3-3z" fill="url(#SVGID_3_)"/><g><path d="m33 29.001c-.26 0-.52-.11-.71-.29-.18-.19-.29-.45-.29-.71s.11-.52.29-.71c.37-.37 1.05-.37 1.42 0 .18.19.29.45.29.71s-.11.52-.29.71c-.19.179-.45.29-.71.29z" fill="url(#SVGID_4_)"/></g></g><path d="m45 25.001h-5c-.265 0-.52.106-.707.293l-1.293 1.293v10.828l1.293 1.293c.187.188.442.293.707.293h5c.552 0 1-.448 1-1v-12c0-.552-.447-1-1-1z" fill="url(#SVGID_5_)"/></g></svg>