<svg id="Layer_1" enable-background="new 0 0 64.001 64.001" height="512" viewBox="0 0 64.001 64.001" width="512" xmlns="http://www.w3.org/2000/svg" xmlns:xlink="http://www.w3.org/1999/xlink"><linearGradient id="SVGID_1_" gradientUnits="userSpaceOnUse" x1="5.466" x2="53.708" y1="58.534" y2="10.293"><stop offset="0" stop-color="#b3d8f4"/><stop offset="1" stop-color="#d1e7f8"/></linearGradient><linearGradient id="lg1"><stop offset="0" stop-color="#00969b"/><stop offset="1" stop-color="#00d7df"/></linearGradient><linearGradient id="SVGID_2_" gradientUnits="userSpaceOnUse" x1="42.467" x2="49.708" xlink:href="#lg1" y1="13.535" y2="6.293"/><linearGradient id="SVGID_3_" gradientUnits="userSpaceOnUse" x1="26.293" x2="37.707" xlink:href="#lg1" y1="43.708" y2="32.294"/><linearGradient id="lg2"><stop offset="0" stop-color="#005ece"/><stop offset="1" stop-color="#2488ff"/></linearGradient><linearGradient id="SVGID_4_" gradientUnits="userSpaceOnUse" x1="29.293" x2="34.707" xlink:href="#lg2" y1="34.708" y2="29.293"/><linearGradient id="SVGID_5_" gradientUnits="userSpaceOnUse" x1="41.88" x2="46.121" xlink:href="#lg2" y1="27.121" y2="22.88"/><linearGradient id="SVGID_6_" gradientUnits="userSpaceOnUse" x1="17.88" x2="22.121" xlink:href="#lg2" y1="27.121" y2="22.88"/><linearGradient id="SVGID_7_" gradientUnits="userSpaceOnUse" x1="26.908" x2="37.092" xlink:href="#lg1" y1="30.093" y2="19.909"/><linearGradient id="SVGID_8_" gradientUnits="userSpaceOnUse" x1="37.397" x2="41.082" xlink:href="#lg2" y1="31.811" y2="28.126"/><linearGradient id="SVGID_9_" gradientUnits="userSpaceOnUse" x1="19.157" x2="30.365" xlink:href="#lg2" y1="35.572" y2="24.365"/><g><g><g><path d="m55.994 13.887c-.018-.152-.196-1.503-1.115-2.422l-10.343-10.343c-.919-.919-2.271-1.098-2.422-1.115-.038-.004-.076-.006-.114-.006h-29c-2.757 0-5 2.243-5 5v54c0 2.757 2.243 5 5 5h38c2.757 0 5-2.243 5-5v-45c0-.039-.002-.077-.006-.114z" fill="url(#SVGID_1_)"/><path d="m54.879 11.465-10.343-10.343c-.919-.919-2.271-1.098-2.422-1.115-.287-.032-.567.058-.779.248-.213.189-.335.46-.335.746v9c0 2.757 2.243 5 5 5h9c.285 0 .557-.121.746-.334.19-.213.28-.496.248-.779-.018-.153-.196-1.504-1.115-2.423z" fill="url(#SVGID_2_)"/></g><path d="m37.555 35.169c-2.221-1.48-4.078-5.905-4.606-7.484-.137-.408-.519-.684-.949-.684-.43 0-.812.275-.948.684-.526 1.578-2.379 6-4.606 7.484-.393.263-.549.765-.374 1.203l1.495 3.737c-.333.163-.567.496-.567.892 0 .553.448 1 1 1v3c0 .553.448 1 1 1h6c.552 0 1-.447 1-1v-3c.552 0 1-.447 1-1 0-.396-.234-.729-.566-.892l1.495-3.737c.175-.439.019-.941-.374-1.203z" fill="url(#SVGID_3_)"/><g><g><path d="m32 37.001c-.552 0-1-.447-1-1v-8c0-.553.448-1 1-1s1 .447 1 1v8c0 .552-.448 1-1 1z" fill="url(#SVGID_4_)"/></g><g><circle cx="44" cy="25.001" fill="url(#SVGID_5_)" r="3"/><circle cx="20" cy="25.001" fill="url(#SVGID_6_)" r="3"/></g></g><path d="m41.185 26.001c-.112-.315-.185-.648-.185-1 0-.353.072-.686.184-1h-18.368c.112.314.184.647.184 1 0 .352-.072.685-.184 1z" fill="url(#SVGID_7_)"/></g><g><path d="m38.619 26.001h-6.619c5.514 0 10 4.486 10 10 0 .553.448 1 1 1s1-.447 1-1c0-4.172-2.142-7.849-5.381-10z" fill="url(#SVGID_8_)"/><path d="m20 36.001c0 .553.448 1 1 1s1-.447 1-1c0-5.514 4.486-10 10-10h-6.619c-3.239 2.151-5.381 5.828-5.381 10z" fill="url(#SVGID_9_)"/></g></g></svg>