<svg id="Layer_1" enable-background="new 0 0 64.002 64.002" height="512" viewBox="0 0 64.002 64.002" width="512" xmlns="http://www.w3.org/2000/svg" xmlns:xlink="http://www.w3.org/1999/xlink"><linearGradient id="SVGID_1_" gradientUnits="userSpaceOnUse" x1="5.467" x2="53.708" y1="58.536" y2="10.295"><stop offset="0" stop-color="#b3d8f4"/><stop offset="1" stop-color="#d1e7f8"/></linearGradient><linearGradient id="SVGID_2_" gradientUnits="userSpaceOnUse" x1="42.467" x2="49.708" y1="13.536" y2="6.295"><stop offset="0" stop-color="#00969b"/><stop offset="1" stop-color="#00d7df"/></linearGradient><linearGradient id="SVGID_3_" gradientUnits="userSpaceOnUse" x1="15.381" x2="48.621" y1="49.622" y2="16.381"><stop offset="0" stop-color="#005ece"/><stop offset="1" stop-color="#2488ff"/></linearGradient><g><path d="m61.001 30.002h-5v-16c0-.038-.002-.076-.006-.114-.018-.15-.196-1.502-1.115-2.421l-10.344-10.344c-.919-.92-2.271-1.098-2.422-1.114-.038-.005-.075-.007-.113-.007h-29c-2.757 0-5 2.243-5 5v25h-5c-1.654 0-3 1.346-3 3s1.346 3 3 3h5v23c0 2.757 2.243 5 5 5h38c2.757 0 5-2.243 5-5v-23h5c1.654 0 3-1.346 3-3s-1.346-3-3-3z" fill="url(#SVGID_1_)"/><path d="m54.879 11.467-10.343-10.344c-.919-.92-2.271-1.098-2.422-1.114-.283-.039-.566.058-.779.247-.212.19-.334.461-.334.746v9c0 2.757 2.243 5 5 5h9c.285 0 .557-.122.746-.334.19-.213.28-.497.248-.78-.018-.151-.196-1.502-1.116-2.421z" fill="url(#SVGID_2_)"/></g><path d="m61.001 30.002h-58c-1.654 0-3 1.346-3 3s1.346 3 3 3h58c1.654 0 3-1.346 3-3s-1.346-3-3-3z" fill="url(#SVGID_3_)"/></svg>