<svg width="25" height="25" viewBox="0 0 25 25" fill="none" xmlns="http://www.w3.org/2000/svg">
<rect x="0.0649414" y="0.0649414" width="24" height="24" fill="white" fill-opacity="0.01"/>
<path d="M0.0649414 0.0649414H24.0649M0.0649414 0.0649414V24.0649M0.0649414 0.0649414L24.0649 24.0649M24.0649 0.0649414V24.0649M24.0649 0.0649414L0.0649414 24.0649M24.0649 24.0649H0.0649414" stroke="#DADEE4" stroke-width="0.13"/>
<circle cx="12.0649" cy="12.0649" r="10" stroke="#DADEE4" stroke-width="0.13"/>
<rect x="2.06494" y="4.06494" width="20" height="16" rx="1" stroke="#DADEE4" stroke-width="0.13"/>
<rect x="4.06494" y="2.06494" width="16" height="20" rx="1" stroke="#DADEE4" stroke-width="0.13"/>
<rect x="3.06494" y="3.06494" width="18" height="18" rx="1" stroke="#DADEE4" stroke-width="0.13"/>
<circle cx="12.0649" cy="12.0649" r="4" stroke="#DADEE4" stroke-width="0.13"/>
<path fill-rule="evenodd" clip-rule="evenodd" d="M9.99449 19.7925C13.6708 20.7776 17.4377 19.0343 19.1406 15.8025C19.3981 15.3138 20.0029 15.1264 20.4915 15.3839C20.9801 15.6413 21.1675 16.2461 20.91 16.7348C18.7813 20.7749 14.075 22.9564 9.47685 21.7244C4.14219 20.2949 0.976364 14.8116 2.40578 9.47691C3.8352 4.14225 9.31857 0.976423 14.6532 2.40584C18.6571 3.47866 21.4371 6.83427 21.9729 10.6935C22.032 11.1192 22.0638 11.5511 22.067 11.9868C22.0736 12.8892 21.0716 13.3883 20.3543 12.905L17.6808 11.1036C16.6727 10.4244 17.3486 8.85298 18.535 9.11777L19.5926 9.3538C18.7331 6.9744 16.7623 5.04151 14.1356 4.33769C9.86786 3.19416 5.48117 5.72682 4.33763 9.99455C3.1941 14.2623 5.72676 18.649 9.99449 19.7925Z" fill="#09244B"/>
</svg>
