<svg width="24" height="24" viewBox="0 0 24 24" fill="none" xmlns="http://www.w3.org/2000/svg">
<path d="M15 8C15 6.89543 14.1046 6 13 6H5C3.89543 6 3 6.89543 3 8V16C3 17.1046 3.89543 18 5 18H13C14.1046 18 15 17.1046 15 16V15V9V8Z" fill="#D9D9D9"/>
<path d="M15 9V15L18.1056 16.5528C19.4354 17.2177 21 16.2507 21 14.7639V9.23607C21 7.7493 19.4354 6.78231 18.1056 7.44721L15 9Z" fill="#D9D9D9"/>
<path d="M15 9V8C15 6.89543 14.1046 6 13 6H5C3.89543 6 3 6.89543 3 8V16C3 17.1046 3.89543 18 5 18H13C14.1046 18 15 17.1046 15 16V15M15 9V15M15 9L18.1056 7.44721C19.4354 6.78231 21 7.7493 21 9.23607V14.7639C21 16.2507 19.4354 17.2177 18.1056 16.5528L15 15" stroke="black" stroke-width="2" stroke-linecap="round" stroke-linejoin="round"/>
</svg>
