<svg xmlns="http://www.w3.org" xmlns:xlink="http://www.w3.org/1999/xlink" width="36px" height="36px" preserveAspectRatio="xMidYMid meet" viewBox="0 0 15 15" aria-hidden="true" role="img"><g fill="none"><path d="M0 4.5V0h1v4.5a1.5 1.5 0 1 0 3 0v-3a.5.5 0 0 0-1 0V5H2V1.5a1.5 1.5 0 1 1 3 0v3a2.5 2.5 0 0 1-5 0z" fill="currentColor"></path><path fill-rule="evenodd" clip-rule="evenodd" d="M12.5 0H6v4.5A3.5 3.5 0 0 1 2.5 8H1v5.5A1.5 1.5 0 0 0 2.5 15h10a1.5 1.5 0 0 0 1.5-1.5v-12A1.5 1.5 0 0 0 12.5 0zM11 4H7v1h4V4zm0 3H7v1h4V7zm-7 3h7v1H4v-1z" fill="currentColor"></path></g></svg>