<svg xmlns="http://www.w3.org" xmlns:xlink="http://www.w3.org/1999/xlink" width="36px" height="36px" preserveAspectRatio="xMidYMid meet" viewBox="0 0 15 15" aria-hidden="true" role="img"><g fill="none"><path d="M13.768 1.06a2.5 2.5 0 0 0-3.536 0L7.5 3.794l-.646-.647l-.708.708l5 5l.708-.708l-.647-.646l2.732-2.732a2.5 2.5 0 0 0 0-3.536l-.171-.171z" fill="currentColor"></path><path d="M6.146 6.146a.5.5 0 0 1 .708 0l2 2a.5.5 0 0 1 0 .708L2.707 15H.5a.5.5 0 0 1-.5-.5v-2.207l6.146-6.147z" fill="currentColor"></path></g></svg>