<svg xmlns="http://www.w3.org" xmlns:xlink="http://www.w3.org/1999/xlink" width="36px" height="36px" preserveAspectRatio="xMidYMid meet" viewBox="0 0 15 15" aria-hidden="true" role="img"><g fill="none"><path fill-rule="evenodd" clip-rule="evenodd" d="M0 7.5a7.5 7.5 0 1 1 15 0a7.5 7.5 0 0 1-15 0zm4.249-2.432a.5.5 0 0 1 .5-.002L8 6.924V5.5a.5.5 0 0 1 .748-.434l3.5 2a.5.5 0 0 1 0 .868l-3.5 2A.5.5 0 0 1 8 9.5V8.076L4.748 9.934A.5.5 0 0 1 4 9.5v-4a.5.5 0 0 1 .249-.432z" fill="currentColor"></path></g></svg>