<svg xmlns="http://www.w3.org" xmlns:xlink="http://www.w3.org/1999/xlink" width="36px" height="36px" preserveAspectRatio="xMidYMid meet" viewBox="0 0 15 15" aria-hidden="true" role="img"><g fill="none"><path d="M1.5 1A1.5 1.5 0 0 0 0 2.5v2A1.5 1.5 0 0 0 1.5 6h2A1.5 1.5 0 0 0 5 4.5v-2A1.5 1.5 0 0 0 3.5 1h-2z" fill="currentColor"></path><path d="M7 4h8V3H7v1z" fill="currentColor"></path><path d="M1.5 9A1.5 1.5 0 0 0 0 10.5v2A1.5 1.5 0 0 0 1.5 14h2A1.5 1.5 0 0 0 5 12.5v-2A1.5 1.5 0 0 0 3.5 9h-2z" fill="currentColor"></path><path d="M7 12h8v-1H7v1z" fill="currentColor"></path></g></svg>