<svg xmlns="http://www.w3.org" xmlns:xlink="http://www.w3.org/1999/xlink" width="36px" height="36px" preserveAspectRatio="xMidYMid meet" viewBox="0 0 15 15" aria-hidden="true" role="img"><g fill="none"><path fill-rule="evenodd" clip-rule="evenodd" d="M5 5H2v5h1V9h2a2 2 0 1 0 0-4zm0 3H3V6h2a1 1 0 0 1 0 2z" fill="currentColor"></path><path fill-rule="evenodd" clip-rule="evenodd" d="M7.5 0a7.49 7.49 0 0 0-6 3A1.5 1.5 0 0 0 0 4.5v6A1.5 1.5 0 0 0 1.5 12a7.5 7.5 0 1 0 6-12zM1 4.5a.5.5 0 0 1 .5-.5h6a.5.5 0 0 1 .5.487v6.026a.5.5 0 0 1-.5.487h-6a.5.5 0 0 1-.5-.5v-6z" fill="currentColor"></path></g></svg>