<svg width="200" height="144" fill="none" xmlns="http://www.w3.org/2000/svg"><g clip-path="url(#clip0)"><path d="M196 0H4a4 4 0 00-4 4v136a4 4 0 004 4h192a4 4 0 004-4V4a4 4 0 00-4-4z" fill="#F8FAFD"/><g filter="url(#filter0_d)"><path d="M167.2 58H32.8c-1.546 0-2.8 1.094-2.8 2.444v83.112c0 1.35 1.254 2.444 2.8 2.444h134.4c1.546 0 2.8-1.094 2.8-2.444V60.444c0-1.35-1.254-2.444-2.8-2.444z" fill="#fff"/></g><rect x="36" y="64" width="128" height="24" rx="4" fill="#E5E9F2" fill-opacity=".6"/><rect x="57" y="72" width="86" height="8" rx="4" fill="#D9DDEA"/><rect x="57" y="100" width="86" height="8" rx="4" fill="#D9DDEA"/><rect x="57" y="122" width="86" height="8" rx="4" fill="#D9DDEA"/><rect x="30" y="30" width="22" height="22" rx="4" fill="#E5E9F2"/><circle cx="41.5" cy="40.5" r="1.5" fill="#71869D"/><circle cx="46.5" cy="40.5" r="1.5" fill="#71869D"/><circle cx="36.5" cy="40.5" r="1.5" fill="#71869D"/></g><defs><clipPath id="clip0"><path fill="#fff" d="M0 0h200v144H0z"/></clipPath><filter id="filter0_d" x="14" y="50" width="172" height="120" filterUnits="userSpaceOnUse" color-interpolation-filters="sRGB"><feFlood flood-opacity="0" result="BackgroundImageFix"/><feColorMatrix in="SourceAlpha" values="0 0 0 0 0 0 0 0 0 0 0 0 0 0 0 0 0 0 127 0"/><feOffset dy="8"/><feGaussianBlur stdDeviation="8"/><feColorMatrix values="0 0 0 0 0.741176 0 0 0 0 0.772549 0 0 0 0 0.819608 0 0 0 0.3 0"/><feBlend in2="BackgroundImageFix" result="effect1_dropShadow"/><feBlend in="SourceGraphic" in2="effect1_dropShadow" result="shape"/></filter></defs></svg>