<svg width="200" height="144" fill="none" xmlns="http://www.w3.org/2000/svg"><path d="M196 0H4a4 4 0 00-4 4v136a4 4 0 004 4h192a4 4 0 004-4V4a4 4 0 00-4-4z" fill="#F3F4F6"/><g filter="url(#filter0_d)"><rect x="27" y="27" width="146" height="89" rx="4" fill="#fff"/><rect x="27.5" y="27.5" width="145" height="88" rx="3.5" stroke="#E7EAF3"/></g><path d="M51.295 86.14a.4.4 0 01.61.52l-3.4 4a.4.4 0 01-.57.039l-1.8-1.6a.4.4 0 11.53-.598l1.495 1.328 3.135-3.688zM117.545 86.14a.4.4 0 01.61.52l-3.4 4a.4.4 0 01-.571.039l-1.8-1.6a.4.4 0 11.532-.598l1.494 1.328 3.135-3.688z" fill="#0ABF53"/><rect x="59" y="94" width="6" height="3" rx="1.5" fill="#D9DDEA"/><rect x="125.25" y="94" width="6" height="3" rx="1.5" fill="#D9DDEA"/><rect x="68" y="94" width="12" height="3" rx="1.5" fill="#D9DDEA"/><rect x="134.25" y="94" width="12" height="3" rx="1.5" fill="#D9DDEA"/><rect x="83" y="94" width="8" height="3" rx="1.5" fill="#D9DDEA"/><rect x="149.25" y="94" width="8" height="3" rx="1.5" fill="#D9DDEA"/><rect x="59" y="100" width="10" height="3" rx="1.5" fill="#D9DDEA"/><rect x="125.25" y="100" width="10" height="3" rx="1.5" fill="#D9DDEA"/><rect x="72" y="100" width="12" height="3" rx="1.5" fill="#D9DDEA"/><rect x="138.25" y="100" width="12" height="3" rx="1.5" fill="#D9DDEA"/><rect x="87" y="100" width="4" height="3" rx="1.5" fill="#D9DDEA"/><rect x="153.25" y="100" width="4" height="3" rx="1.5" fill="#D9DDEA"/><rect x="59" y="87" width="18" height="3" rx="1.5" fill="#0ABF53"/><rect x="125.25" y="87" width="18" height="3" rx="1.5" fill="#0ABF53"/><rect x="66" y="60" width="18" height="3" rx="1.5" fill="#D9DDEA"/><rect x="88" y="60" width="21" height="3" rx="1.5" fill="#D9DDEA"/><rect x="113" y="60" width="21" height="3" rx="1.5" fill="#D9DDEA"/><path d="M61.578 44h.91l1.021-3.572h.04L64.57 44h.91l1.436-5.09h-.992l-.917 3.743h-.045l-.982-3.744h-.902l-.98 3.741h-.047l-.917-3.74h-.992L61.578 44zm6.837-2.237c0-.552.342-.87.825-.87.472 0 .75.3.75.815V44h.9v-2.431c0-.922-.522-1.437-1.315-1.437-.586 0-.96.266-1.136.699h-.044v-1.922h-.88V44h.9v-2.237zm4.491 2.314c.6 0 .957-.28 1.121-.602h.03V44h.865v-2.555c0-1.01-.822-1.313-1.55-1.313-.804 0-1.42.358-1.62 1.054l.841.12c.09-.262.343-.485.783-.485.418 0 .646.213.646.589v.015c0 .258-.27.27-.944.343-.741.08-1.45.3-1.45 1.16 0 .751.55 1.15 1.278 1.15zm.234-.661c-.375 0-.644-.172-.644-.502 0-.346.3-.49.704-.547.236-.032.708-.092.825-.187v.45c0 .425-.343.786-.885.786zm4.594-3.234h-.753v-.915h-.9v.915h-.542v.696h.542V43c-.005.718.517 1.071 1.193 1.051a1.81 1.81 0 00.53-.09l-.152-.703c-.05.013-.152.035-.264.035-.226 0-.407-.08-.407-.442v-1.974h.753v-.696zm2.402 3.893c.89 0 1.501-.435 1.66-1.1l-.84-.094c-.122.324-.42.493-.808.493-.582 0-.967-.383-.974-1.037h2.66v-.276c0-1.34-.806-1.929-1.746-1.929-1.093 0-1.807.803-1.807 1.981 0 1.198.704 1.962 1.855 1.962zm-.96-2.345c.027-.487.388-.897.925-.897.517 0 .865.378.87.898h-1.795zm6.72-1.548h-.957l-.88 2.836h-.04l-.877-2.836h-.96L83.542 44h.994l1.36-3.818zm2.183 3.893c.89 0 1.501-.435 1.66-1.1l-.84-.094c-.121.324-.42.493-.808.493-.581 0-.967-.383-.974-1.037h2.66v-.276c0-1.34-.806-1.929-1.745-1.929-1.094 0-1.807.803-1.807 1.981 0 1.198.703 1.962 1.854 1.962zm-.96-2.345c.028-.487.388-.897.925-.897.517 0 .865.378.87.898H87.12zM90.538 44h.9v-2.245c0-.484.365-.827.86-.827.152 0 .34.027.418.052v-.828a2.162 2.162 0 00-.324-.025.953.953 0 00-.942.691h-.04v-.636h-.872V44zm5.3 0h.94l.715-2.58h.053L98.26 44h.938l1.081-3.818h-.92l-.661 2.67h-.037l-.687-2.67h-.907l-.686 2.684h-.035l-.67-2.684h-.918L95.838 44zm6.633.075c1.119 0 1.83-.788 1.83-1.97s-.711-1.973-1.83-1.973c-1.119 0-1.829.79-1.829 1.974 0 1.18.71 1.969 1.829 1.969zm.005-.721c-.619 0-.922-.552-.922-1.25 0-.7.303-1.258.922-1.258.609 0 .912.559.912 1.257 0 .699-.303 1.25-.912 1.25zm2.588.646h.9v-2.245c0-.484.366-.827.86-.827.152 0 .341.027.418.052v-.828a2.165 2.165 0 00-.323-.025.953.953 0 00-.942.691h-.04v-.636h-.873V44zm2.776 0h.9v-1.283l.328-.35L110.236 44h1.076l-1.566-2.17 1.479-1.648h-1.051l-1.372 1.534h-.062v-2.807h-.9V44zm6.281 1.432c.701 0 1.106-.36 1.322-.97l1.534-4.275-.962-.005-.882 2.883h-.04l-.88-2.883h-.955l1.385 3.898-.077.206c-.167.435-.43.465-.823.35l-.209.701c.122.05.341.095.587.095zm5.016-1.357c1.119 0 1.83-.788 1.83-1.97s-.711-1.973-1.83-1.973c-1.118 0-1.829.79-1.829 1.974 0 1.18.711 1.969 1.829 1.969zm.005-.721c-.619 0-.922-.552-.922-1.25 0-.7.303-1.258.922-1.258.609 0 .912.559.912 1.257 0 .699-.303 1.25-.912 1.25zm5.022-.96c0 .582-.415.87-.813.87-.432 0-.721-.306-.721-.79v-2.292h-.9v2.43c0 .918.522 1.438 1.273 1.438.572 0 .975-.301 1.149-.729h.039V44h.873v-3.818h-.9v2.212zm4.978 1.673c.657 0 .953-.39 1.094-.669h.055V44h.885v-5.09h-.903v1.903h-.037c-.137-.276-.417-.68-1.091-.68-.883 0-1.576.69-1.576 1.963 0 1.258.674 1.971 1.573 1.971zm.252-.738c-.595 0-.908-.522-.908-1.238 0-.711.308-1.22.908-1.22.579 0 .897.48.897 1.22s-.323 1.238-.897 1.238zm4.406.746c1.119 0 1.83-.788 1.83-1.97s-.711-1.973-1.83-1.973c-1.118 0-1.829.79-1.829 1.974 0 1.18.711 1.969 1.829 1.969zm.005-.721c-.619 0-.922-.552-.922-1.25 0-.7.303-1.258.922-1.258.609 0 .912.559.912 1.257 0 .699-.303 1.25-.912 1.25zm3.645-.05h-.795l-.018.278c-.042.674-.219 1.36-.291 1.66h.607c.119-.312.395-1.038.465-1.665l.032-.273zm-60.495 7.09c0 .582-.415.87-.813.87-.432 0-.72-.306-.72-.79v-2.292h-.9v2.43c0 .918.521 1.438 1.272 1.438.572 0 .975-.301 1.149-.729h.04V52h.872v-3.818h-.9v2.212zm4.843-1.203c-.124-.646-.641-1.059-1.536-1.059-.92 0-1.546.453-1.544 1.159-.002.556.34.924 1.074 1.076l.651.137c.35.077.515.218.515.435 0 .26-.284.457-.711.457-.413 0-.681-.179-.758-.522l-.878.084c.112.701.701 1.117 1.638 1.117.955 0 1.629-.495 1.631-1.219-.002-.544-.353-.877-1.074-1.034l-.651-.139c-.388-.087-.542-.221-.54-.442-.002-.259.284-.438.66-.438.414 0 .633.227.703.478l.82-.09zm2.514 2.884c.89 0 1.502-.435 1.66-1.1l-.84-.094c-.121.324-.42.493-.807.493-.582 0-.967-.383-.975-1.037h2.66v-.276c0-1.34-.805-1.929-1.745-1.929-1.094 0-1.807.803-1.807 1.981 0 1.198.703 1.962 1.854 1.962zm-.96-2.345c.028-.487.389-.897.926-.897.517 0 .865.378.87.898h-1.795zm6.821 2.345c1.119 0 1.83-.788 1.83-1.97s-.711-1.973-1.83-1.973c-1.118 0-1.83.79-1.83 1.974 0 1.18.712 1.969 1.83 1.969zm.005-.721c-.619 0-.922-.552-.922-1.25 0-.7.303-1.258.922-1.258.61 0 .913.559.913 1.257 0 .699-.304 1.25-.913 1.25zm5.022-.96c0 .582-.415.87-.813.87-.432 0-.72-.306-.72-.79v-2.292h-.9v2.43c0 .918.522 1.438 1.272 1.438.572 0 .975-.301 1.149-.729h.04V52h.872v-3.818h-.9v2.212zM97.025 52h.9v-2.245c0-.484.366-.827.86-.827.152 0 .34.027.418.052v-.828a2.162 2.162 0 00-.323-.025.953.953 0 00-.942.691h-.04v-.636h-.873V52zm5.929.067c.656 0 .952-.39 1.094-.669h.054V52h.885v-5.09h-.902v1.903h-.037c-.137-.276-.418-.68-1.092-.68-.882 0-1.576.69-1.576 1.963 0 1.258.674 1.971 1.574 1.971zm.251-.738c-.594 0-.907-.522-.907-1.238 0-.711.308-1.22.907-1.22.579 0 .897.48.897 1.22s-.323 1.238-.897 1.238zm4.432.746c.89 0 1.501-.435 1.66-1.1l-.84-.094c-.122.324-.42.493-.808.493-.582 0-.967-.383-.974-1.037h2.659v-.276c0-1.34-.805-1.929-1.745-1.929-1.093 0-1.807.803-1.807 1.981 0 1.198.704 1.962 1.855 1.962zm-.96-2.345c.027-.487.388-.897.925-.897.517 0 .865.378.87.898h-1.795zm6.436-.539c-.124-.646-.641-1.059-1.536-1.059-.92 0-1.546.453-1.543 1.159-.003.556.34.924 1.073 1.076l.652.137c.35.077.514.218.514.435 0 .26-.283.457-.711.457-.412 0-.681-.179-.758-.522l-.877.084c.111.701.701 1.117 1.638 1.117.954 0 1.628-.495 1.63-1.219-.002-.544-.353-.877-1.073-1.034l-.652-.139c-.387-.087-.542-.221-.539-.442-.003-.259.283-.438.659-.438.415 0 .633.227.703.478l.82-.09zm.824 2.809h.9v-3.818h-.9V52zm.453-4.36c.286 0 .519-.219.519-.487 0-.271-.233-.49-.519-.49-.288 0-.522.219-.522.49 0 .268.234.487.522.487zm3.033 5.871c1.032 0 1.792-.472 1.792-1.449v-3.88h-.887v.631h-.05c-.136-.276-.422-.68-1.096-.68-.882 0-1.576.69-1.576 1.945 0 1.246.694 1.867 1.574 1.867.653 0 .959-.35 1.098-.631h.045v.723c0 .562-.373.793-.885.793-.542 0-.78-.256-.89-.48l-.81.197c.164.534.713.964 1.685.964zm.008-2.272c-.594 0-.908-.462-.908-1.165 0-.694.309-1.204.908-1.204.579 0 .897.48.897 1.204 0 .728-.323 1.165-.897 1.165zm3.607-1.476c0-.552.333-.87.807-.87.465 0 .744.306.744.815V52h.9v-2.431c.002-.915-.52-1.437-1.308-1.437-.572 0-.965.274-1.139.699h-.044v-.65h-.86V52h.9v-2.237z" fill="#555A60"/><path fill="#E7EAF3" d="M28 73h144v1H28z"/><defs><filter id="filter0_d" x="22" y="25" width="156" height="99" filterUnits="userSpaceOnUse" color-interpolation-filters="sRGB"><feFlood flood-opacity="0" result="BackgroundImageFix"/><feColorMatrix in="SourceAlpha" values="0 0 0 0 0 0 0 0 0 0 0 0 0 0 0 0 0 0 127 0"/><feOffset dy="3"/><feGaussianBlur stdDeviation="2.5"/><feColorMatrix values="0 0 0 0 0.54902 0 0 0 0 0.596078 0 0 0 0 0.643137 0 0 0 0.125 0"/><feBlend in2="BackgroundImageFix" result="effect1_dropShadow"/><feBlend in="SourceGraphic" in2="effect1_dropShadow" result="shape"/></filter></defs></svg>