<svg width="200" height="144" fill="none" xmlns="http://www.w3.org/2000/svg"><path d="M196 0H4a4 4 0 00-4 4v136a4 4 0 004 4h192a4 4 0 004-4V4a4 4 0 00-4-4z" fill="#F3F4F6"/><g filter="url(#filter0_d)"><rect x="27" y="29" width="146" height="85" rx="4" fill="#fff"/><rect x="27.5" y="29.5" width="145" height="84" rx="3.5" stroke="#E7EAF3"/></g><path d="M70.808 52h.922v-1.864h.94l1 1.864h1.029l-1.102-2.019c.6-.24.915-.753.915-1.444 0-.972-.626-1.628-1.795-1.628h-1.909V52zm.922-2.63v-1.69h.846c.688 0 .997.315.997.857s-.309.833-.992.833h-.85zm5.227 2.705c.89 0 1.501-.435 1.66-1.1l-.84-.094c-.122.324-.42.493-.808.493-.581 0-.967-.383-.974-1.037h2.66v-.276c0-1.34-.806-1.929-1.745-1.929-1.094 0-1.807.803-1.807 1.981 0 1.198.703 1.962 1.854 1.962zm-.96-2.345c.028-.487.388-.897.925-.897.517 0 .865.378.87.898h-1.795zm4.518 2.347c.599 0 .957-.28 1.12-.602h.03V52h.866v-2.555c0-1.01-.823-1.313-1.552-1.313-.802 0-1.419.358-1.618 1.054l.84.12c.09-.262.344-.485.784-.485.417 0 .646.213.646.589v.015c0 .258-.271.27-.945.343-.74.08-1.449.3-1.449 1.16 0 .751.55 1.15 1.278 1.15zm.233-.661c-.375 0-.644-.172-.644-.502 0-.346.301-.49.704-.547.236-.032.708-.092.825-.187v.45c0 .425-.343.786-.885.786zm4.104.651c.657 0 .953-.39 1.094-.669h.055V52h.885v-5.09h-.903v1.903h-.037c-.137-.276-.418-.68-1.091-.68-.883 0-1.576.69-1.576 1.963 0 1.258.674 1.971 1.573 1.971zm.251-.738c-.594 0-.907-.522-.907-1.238 0-.711.308-1.22.907-1.22.58 0 .898.48.898 1.22s-.323 1.238-.898 1.238zm3.301 2.103c.701 0 1.106-.36 1.322-.97l1.534-4.275-.962-.005-.882 2.883h-.04l-.88-2.883h-.955l1.385 3.898-.077.206c-.167.435-.43.465-.823.35l-.209.701c.122.05.34.095.587.095zm7.124-5.25h-.754v-.915h-.9v.915h-.541v.696h.542V51c-.005.718.517 1.071 1.193 1.051.256-.007.432-.057.53-.09l-.152-.703c-.05.013-.152.035-.264.035-.226 0-.407-.08-.407-.442v-1.974h.753v-.696zm2.377 3.893c1.118 0 1.83-.788 1.83-1.97s-.712-1.973-1.83-1.973c-1.119 0-1.83.79-1.83 1.974 0 1.18.711 1.969 1.83 1.969zm.005-.721c-.62 0-.923-.552-.923-1.25 0-.7.304-1.258.923-1.258.609 0 .912.559.912 1.257 0 .699-.303 1.25-.912 1.25zm5.741.713c.656 0 .952-.39 1.094-.669h.055V52h.885v-5.09h-.903v1.903h-.037c-.137-.276-.418-.68-1.091-.68-.883 0-1.576.69-1.576 1.963 0 1.258.673 1.971 1.573 1.971zm.251-.738c-.594 0-.907-.522-.907-1.238 0-.711.308-1.22.907-1.22.579 0 .898.48.898 1.22s-.323 1.238-.898 1.238zm2.742.671h.899v-3.818h-.899V52zm.452-4.36c.286 0 .519-.219.519-.487 0-.271-.233-.49-.519-.49-.288 0-.522.219-.522.49 0 .268.234.487.522.487zm4.783.542h-.957l-.88 2.836h-.04l-.877-2.836h-.96l1.36 3.818h.994l1.36-3.818zm2.183 3.893c.89 0 1.502-.435 1.661-1.1l-.84-.094c-.122.324-.42.493-.808.493-.582 0-.967-.383-.975-1.037h2.66v-.276c0-1.34-.805-1.929-1.745-1.929-1.094 0-1.807.803-1.807 1.981 0 1.198.703 1.962 1.854 1.962zm-.959-2.345c.027-.487.388-.897.925-.897.517 0 .865.378.87.898h-1.795zm5.155 2.27h.9v-3.818h-.9V52zm.452-4.36c.286 0 .52-.219.52-.487 0-.271-.234-.49-.52-.49-.288 0-.522.219-.522.49 0 .268.234.487.522.487zm2.273 2.123c0-.552.333-.87.808-.87.465 0 .743.306.743.815V52h.9v-2.431c.002-.915-.52-1.437-1.308-1.437-.571 0-.964.274-1.138.699h-.045v-.65h-.86V52h.9v-2.237zm4.226.74h.827v-.064c.005-.527.177-.768.582-1.017.458-.273.743-.646.743-1.215 0-.84-.653-1.367-1.603-1.367-.87 0-1.576.482-1.601 1.426h.885c.022-.467.361-.69.711-.69.38 0 .686.253.686.643 0 .348-.231.587-.532.776-.44.273-.693.549-.698 1.444v.065zm.435 1.552a.554.554 0 00.547-.547.553.553 0 00-.547-.542.542.542 0 00-.547.542.543.543 0 00.547.547z" fill="#555A60"/><path d="M60.319 57.373h1.031c-.014-.907-.76-1.533-1.894-1.533-1.116 0-1.934.616-1.929 1.54-.002.751.527 1.181 1.387 1.388l.555.139c.554.134.862.293.865.636-.003.373-.356.627-.903.627-.559 0-.962-.259-.996-.768h-1.042c.027 1.1.816 1.67 2.05 1.67 1.244 0 1.975-.594 1.977-1.526-.002-.848-.641-1.298-1.526-1.497l-.457-.109c-.443-.102-.813-.266-.806-.631 0-.328.29-.57.818-.57.515 0 .83.234.87.634zm3.836-.191h-.718v-.915h-1.06v.915h-.521v.795h.522v1.989c-.005.748.504 1.118 1.273 1.086.273-.01.467-.064.574-.1l-.167-.787c-.052.01-.164.035-.263.035-.212 0-.358-.08-.358-.373v-1.85h.718v-.795zm1.779 3.89c.564 0 .93-.246 1.116-.602h.03V61h1.004v-2.575c0-.91-.77-1.293-1.62-1.293-.916 0-1.517.438-1.664 1.134l.98.08c.072-.254.298-.44.678-.44.36 0 .567.18.567.494v.015c0 .246-.261.278-.925.343-.755.07-1.434.323-1.434 1.176 0 .755.54 1.138 1.268 1.138zm.303-.73c-.326 0-.56-.152-.56-.443 0-.299.247-.445.62-.497.23-.033.609-.087.735-.172v.405c0 .4-.33.706-.795.706zm2.669.658h1.058v-2.16c0-.47.344-.793.81-.793.147 0 .349.025.448.057v-.94a1.589 1.589 0 00-.333-.037c-.427 0-.778.249-.917.721h-.04v-.666h-1.026V61zm5.086-3.818h-.718v-.915h-1.06v.915h-.521v.795h.522v1.989c-.005.748.504 1.118 1.272 1.086.274-.01.468-.064.575-.1l-.167-.787c-.052.01-.164.035-.263.035-.212 0-.358-.08-.358-.373v-1.85h.718v-.795zm2.964 5.25c.788 0 1.205-.403 1.422-1.02l1.484-4.225-1.121-.005-.798 2.804h-.04l-.79-2.804h-1.114l1.37 3.927-.063.162c-.139.358-.405.375-.778.261l-.238.79c.151.065.397.11.666.11zm5.043-1.357c1.158 0 1.88-.793 1.88-1.97 0-1.182-.722-1.973-1.88-1.973-1.159 0-1.88.79-1.88 1.974 0 1.176.721 1.969 1.88 1.969zm.005-.82c-.535 0-.808-.49-.808-1.157 0-.666.273-1.158.808-1.158.524 0 .798.492.798 1.158 0 .667-.274 1.156-.798 1.156zm5.011-.88c.003.511-.348.78-.728.78-.4 0-.659-.281-.661-.731v-2.242h-1.06v2.43c.003.893.525 1.438 1.293 1.438.575 0 .987-.296 1.159-.743h.04V61h1.016v-3.818h-1.059v2.192zM88.921 61h1.06v-2.16c0-.47.342-.793.81-.793.146 0 .347.025.447.057v-.94a1.588 1.588 0 00-.333-.037c-.428 0-.778.249-.918.721h-.04v-.666h-1.026V61zm6.538-3.818H94.7v-.256c0-.259.104-.41.415-.41.127 0 .256.027.34.054l.187-.795a2.788 2.788 0 00-.749-.105c-.718 0-1.252.406-1.252 1.236v.276h-.54v.795h.54V61H94.7v-3.023h.758v-.795zM96.106 61h1.059v-2.16c0-.47.343-.793.81-.793.147 0 .348.025.448.057v-.94a1.589 1.589 0 00-.334-.037c-.427 0-.778.249-.917.721h-.04v-.666h-1.026V61zm4.426.075c.945 0 1.581-.46 1.73-1.169l-.979-.064c-.107.29-.38.442-.733.442-.53 0-.865-.35-.865-.92v-.002h2.6v-.291c0-1.298-.786-1.939-1.795-1.939-1.124 0-1.852.798-1.852 1.976 0 1.21.718 1.967 1.894 1.967zm-.847-2.37a.807.807 0 01.822-.782c.46 0 .778.328.781.783h-1.603zm5.031 2.37c.944 0 1.581-.46 1.73-1.169l-.979-.064c-.107.29-.381.442-.734.442-.529 0-.865-.35-.865-.92v-.002h2.6v-.291c0-1.298-.785-1.939-1.794-1.939-1.124 0-1.852.798-1.852 1.976 0 1.21.718 1.967 1.894 1.967zm-.848-2.37a.807.807 0 01.823-.782c.46 0 .778.328.781.783h-1.604zm6.942-1.523h-.718v-.915h-1.059v.915h-.522v.795h.522v1.989c-.005.748.505 1.118 1.273 1.086a2.06 2.06 0 00.574-.1l-.167-.787c-.052.01-.164.035-.263.035-.211 0-.358-.08-.358-.373v-1.85h.718v-.795zM111.5 61h1.059v-2.16c0-.47.343-.793.811-.793.146 0 .348.025.447.057v-.94a1.582 1.582 0 00-.333-.037c-.428 0-.778.249-.917.721h-.04v-.666H111.5V61zm2.864 0h1.059v-3.818h-1.059V61zm.532-4.31c.316 0 .575-.241.575-.537 0-.294-.259-.535-.575-.535-.313 0-.571.241-.571.535 0 .296.258.537.571.537zm2.464 4.382c.565 0 .93-.246 1.117-.602h.029V61h1.005v-2.575c0-.91-.771-1.293-1.621-1.293-.915 0-1.516.438-1.663 1.134l.979.08c.072-.254.299-.44.679-.44.36 0 .567.18.567.494v.015c0 .246-.261.278-.925.343-.756.07-1.434.323-1.434 1.176 0 .755.539 1.138 1.267 1.138zm.304-.73c-.326 0-.56-.152-.56-.443 0-.299.247-.445.619-.497.232-.033.609-.087.736-.172v.405c0 .4-.33.706-.795.706zm3.727-4.433h-1.059V61h1.059v-5.09zm4.499 1.273h-.718v-.915h-1.059v.915h-.522v.795h.522v1.989c-.005.748.505 1.118 1.273 1.086a2.06 2.06 0 00.574-.1l-.166-.787c-.053.01-.165.035-.264.035-.211 0-.358-.08-.358-.373v-1.85h.718v-.795zm2.374 3.893c1.159 0 1.88-.793 1.88-1.97 0-1.182-.721-1.973-1.88-1.973-1.158 0-1.879.79-1.879 1.974 0 1.176.721 1.969 1.879 1.969zm.005-.82c-.534 0-.807-.49-.807-1.157 0-.666.273-1.158.807-1.158.525 0 .798.492.798 1.158 0 .667-.273 1.156-.798 1.156zm3.97.807c.617 0 .937-.355 1.084-.673h.045V61h1.044v-5.09h-1.057v1.913h-.032c-.142-.31-.447-.69-1.086-.69-.838 0-1.546.65-1.546 1.963 0 1.278.678 1.966 1.548 1.966zm.336-.843c-.52 0-.803-.462-.803-1.128 0-.661.278-1.116.803-1.116.514 0 .803.435.803 1.116s-.294 1.128-.803 1.128zm3.796.853c.565 0 .93-.246 1.116-.602h.03V61h1.004v-2.575c0-.91-.77-1.293-1.62-1.293-.915 0-1.517.438-1.663 1.134l.979.08c.072-.254.298-.44.679-.44.36 0 .566.18.566.494v.015c0 .246-.261.278-.924.343-.756.07-1.435.323-1.435 1.176 0 .755.54 1.138 1.268 1.138zm.303-.73c-.325 0-.559-.152-.559-.443 0-.299.246-.445.619-.497.231-.033.609-.087.736-.172v.405c0 .4-.331.706-.796.706zm3.186 2.09c.788 0 1.206-.403 1.422-1.02l1.484-4.225-1.121-.005-.798 2.804h-.04l-.79-2.804h-1.114l1.37 3.927-.062.162c-.14.358-.406.375-.779.261l-.238.79c.151.065.398.11.666.11z" fill="#0ABF53"/><rect x="66" y="69" width="18" height="2" rx="1" fill="#D9DDEA"/><rect x="88" y="69" width="21" height="2" rx="1" fill="#D9DDEA"/><rect x="113" y="69" width="21" height="2" rx="1" fill="#D9DDEA"/><rect x="76" y="74" width="12" height="2" rx="1" fill="#D9DDEA"/><rect x="92" y="74" width="14" height="2" rx="1" fill="#D9DDEA"/><rect x="110" y="74" width="14" height="2" rx="1" fill="#D9DDEA"/><g filter="url(#filter1_d)"><rect x="72" y="89" width="29" height="9" rx="2" fill="#0ABF53"/></g><g filter="url(#filter2_d)"><rect x="106" y="89" width="21" height="9" rx="2" fill="#fff"/><rect x="106.5" y="89.5" width="20" height="8" rx="1.5" stroke="#D9DDEA"/></g><rect x="80" y="93" width="13" height="1" rx=".5" fill="#fff"/><rect x="112" y="93" width="9" height="1" rx=".5" fill="#D9DDEA"/><defs><filter id="filter0_d" x="22" y="27" width="156" height="95" filterUnits="userSpaceOnUse" color-interpolation-filters="sRGB"><feFlood flood-opacity="0" result="BackgroundImageFix"/><feColorMatrix in="SourceAlpha" values="0 0 0 0 0 0 0 0 0 0 0 0 0 0 0 0 0 0 127 0"/><feOffset dy="3"/><feGaussianBlur stdDeviation="2.5"/><feColorMatrix values="0 0 0 0 0.54902 0 0 0 0 0.596078 0 0 0 0 0.643137 0 0 0 0.125 0"/><feBlend in2="BackgroundImageFix" result="effect1_dropShadow"/><feBlend in="SourceGraphic" in2="effect1_dropShadow" result="shape"/></filter><filter id="filter1_d" x="70" y="88" width="33" height="13" filterUnits="userSpaceOnUse" color-interpolation-filters="sRGB"><feFlood flood-opacity="0" result="BackgroundImageFix"/><feColorMatrix in="SourceAlpha" values="0 0 0 0 0 0 0 0 0 0 0 0 0 0 0 0 0 0 127 0"/><feOffset dy="1"/><feGaussianBlur stdDeviation="1"/><feColorMatrix values="0 0 0 0 0.215686 0 0 0 0 0.490196 0 0 0 0 1 0 0 0 0.2 0"/><feBlend in2="BackgroundImageFix" result="effect1_dropShadow"/><feBlend in="SourceGraphic" in2="effect1_dropShadow" result="shape"/></filter><filter id="filter2_d" x="104" y="88" width="25" height="13" filterUnits="userSpaceOnUse" color-interpolation-filters="sRGB"><feFlood flood-opacity="0" result="BackgroundImageFix"/><feColorMatrix in="SourceAlpha" values="0 0 0 0 0 0 0 0 0 0 0 0 0 0 0 0 0 0 127 0"/><feOffset dy="1"/><feGaussianBlur stdDeviation="1"/><feColorMatrix values="0 0 0 0 0.54902 0 0 0 0 0.596078 0 0 0 0 0.643137 0 0 0 0.18 0"/><feBlend in2="BackgroundImageFix" result="effect1_dropShadow"/><feBlend in="SourceGraphic" in2="effect1_dropShadow" result="shape"/></filter></defs></svg>