<svg width="200" height="144" fill="none" xmlns="http://www.w3.org/2000/svg"><path d="M196 0H4a4 4 0 00-4 4v136a4 4 0 004 4h192a4 4 0 004-4V4a4 4 0 00-4-4z" fill="#F3F4F6"/><g filter="url(#filter0_d)"><rect x="73.663" y="39.279" width="52.673" height="65.442" rx="4.889" fill="#fff"/><rect x="74.275" y="39.89" width="51.451" height="64.22" rx="4.278" stroke="#E7EAF3" stroke-width="1.222"/></g><path d="M78.552 39.89h42.896a4.277 4.277 0 014.277 4.278V58.62h-51.45V44.168a4.278 4.278 0 014.277-4.278z" fill="#F8FAFD" stroke="#E7EAF3" stroke-width="1.222"/><rect x="83.418" y="69.768" width="17.558" height="1.951" rx=".975" fill="#0ABF53"/><rect x="83.418" y="76.596" width="17.558" height="1.951" rx=".975" fill="#71869D"/><rect x="104.877" y="76.596" width="11.705" height="1.951" rx=".975" fill="#71869D"/><rect x="83.418" y="84.4" width="17.558" height="1.951" rx=".975" fill="#D9DDEA"/><rect x="104.877" y="84.4" width="7.803" height="1.951" rx=".975" fill="#D9DDEA"/><rect x="83.418" y="90.252" width="6.828" height="1.951" rx=".975" fill="#D9DDEA"/><rect x="94.147" y="90.252" width="18.533" height="1.951" rx=".975" fill="#D9DDEA"/><g filter="url(#filter1_d)"><rect x="15" y="39.279" width="52.673" height="65.442" rx="4.889" fill="#fff"/><rect x="15.611" y="39.89" width="51.451" height="64.22" rx="4.278" stroke="#E7EAF3" stroke-width="1.222"/></g><path d="M19.889 39.89h42.895a4.278 4.278 0 014.278 4.278V58.62h-51.45V44.168a4.278 4.278 0 014.277-4.278z" fill="#F8FAFD" stroke="#E7EAF3" stroke-width="1.222"/><rect x="24.754" y="69.768" width="17.558" height="1.951" rx=".975" fill="#0ABF53"/><rect x="24.754" y="76.596" width="17.558" height="1.951" rx=".975" fill="#71869D"/><rect x="46.214" y="76.596" width="11.705" height="1.951" rx=".975" fill="#71869D"/><rect x="24.754" y="84.4" width="17.558" height="1.951" rx=".975" fill="#D9DDEA"/><rect x="46.214" y="84.4" width="7.803" height="1.951" rx=".975" fill="#D9DDEA"/><rect x="24.754" y="90.252" width="6.828" height="1.951" rx=".975" fill="#D9DDEA"/><rect x="35.484" y="90.252" width="18.533" height="1.951" rx=".975" fill="#D9DDEA"/><g filter="url(#filter2_d)"><rect x="132.327" y="39.279" width="52.673" height="65.442" rx="4.889" fill="#fff"/><rect x="132.938" y="39.89" width="51.451" height="64.22" rx="4.278" stroke="#E7EAF3" stroke-width="1.222"/></g><path d="M137.216 39.89h42.895a4.278 4.278 0 014.278 4.278V58.62h-51.451V44.168a4.278 4.278 0 014.278-4.278z" fill="#F8FAFD" stroke="#E7EAF3" stroke-width="1.222"/><rect x="142.081" y="69.768" width="17.558" height="1.951" rx=".975" fill="#0ABF53"/><rect x="142.081" y="76.596" width="17.558" height="1.951" rx=".975" fill="#71869D"/><rect x="163.541" y="76.596" width="11.705" height="1.951" rx=".975" fill="#71869D"/><rect x="142.081" y="84.4" width="17.558" height="1.951" rx=".975" fill="#D9DDEA"/><rect x="163.541" y="84.4" width="7.803" height="1.951" rx=".975" fill="#D9DDEA"/><rect x="142.081" y="90.252" width="6.828" height="1.951" rx=".975" fill="#D9DDEA"/><rect x="152.811" y="90.252" width="18.533" height="1.951" rx=".975" fill="#D9DDEA"/><path d="M0 104h200v36a4 4 0 01-4 4H4a4 4 0 01-4-4v-36z" fill="url(#paint0_linear)"/><defs><filter id="filter0_d" x="67.552" y="36.834" width="64.895" height="77.665" filterUnits="userSpaceOnUse" color-interpolation-filters="sRGB"><feFlood flood-opacity="0" result="BackgroundImageFix"/><feColorMatrix in="SourceAlpha" values="0 0 0 0 0 0 0 0 0 0 0 0 0 0 0 0 0 0 127 0"/><feOffset dy="3.667"/><feGaussianBlur stdDeviation="3.056"/><feColorMatrix values="0 0 0 0 0.54902 0 0 0 0 0.596078 0 0 0 0 0.643137 0 0 0 0.125 0"/><feBlend in2="BackgroundImageFix" result="effect1_dropShadow"/><feBlend in="SourceGraphic" in2="effect1_dropShadow" result="shape"/></filter><filter id="filter1_d" x="8.889" y="36.834" width="64.895" height="77.665" filterUnits="userSpaceOnUse" color-interpolation-filters="sRGB"><feFlood flood-opacity="0" result="BackgroundImageFix"/><feColorMatrix in="SourceAlpha" values="0 0 0 0 0 0 0 0 0 0 0 0 0 0 0 0 0 0 127 0"/><feOffset dy="3.667"/><feGaussianBlur stdDeviation="3.056"/><feColorMatrix values="0 0 0 0 0.54902 0 0 0 0 0.596078 0 0 0 0 0.643137 0 0 0 0.125 0"/><feBlend in2="BackgroundImageFix" result="effect1_dropShadow"/><feBlend in="SourceGraphic" in2="effect1_dropShadow" result="shape"/></filter><filter id="filter2_d" x="126.216" y="36.834" width="64.895" height="77.665" filterUnits="userSpaceOnUse" color-interpolation-filters="sRGB"><feFlood flood-opacity="0" result="BackgroundImageFix"/><feColorMatrix in="SourceAlpha" values="0 0 0 0 0 0 0 0 0 0 0 0 0 0 0 0 0 0 127 0"/><feOffset dy="3.667"/><feGaussianBlur stdDeviation="3.056"/><feColorMatrix values="0 0 0 0 0.54902 0 0 0 0 0.596078 0 0 0 0 0.643137 0 0 0 0.125 0"/><feBlend in2="BackgroundImageFix" result="effect1_dropShadow"/><feBlend in="SourceGraphic" in2="effect1_dropShadow" result="shape"/></filter><linearGradient id="paint0_linear" x1="100" y1="154" x2="100" y2="92.5" gradientUnits="userSpaceOnUse"><stop offset=".256" stop-color="#F3F4F6"/><stop offset=".749" stop-color="#F3F4F6" stop-opacity="0"/></linearGradient></defs></svg>