<svg width="200" height="144" fill="none" xmlns="http://www.w3.org/2000/svg"><g clip-path="url(#clip0)"><path d="M196 0H4a4 4 0 00-4 4v136a4 4 0 004 4h192a4 4 0 004-4V4a4 4 0 00-4-4z" fill="#F3F4F6"/><g filter="url(#filter0_d)"><path d="M27 0h146v120a4 4 0 01-4 4H31a4 4 0 01-4-4V0z" fill="#fff"/><path d="M27.5.5h145V120a3.5 3.5 0 01-3.5 3.5H31a3.5 3.5 0 01-3.5-3.5V.5z" stroke="#E7EAF3"/></g><rect x="66" y="76" width="18" height="3" rx="1.5" fill="#D9DDEA"/><rect x="88" y="76" width="21" height="3" rx="1.5" fill="#D9DDEA"/><rect x="113" y="76" width="21" height="3" rx="1.5" fill="#D9DDEA"/><path d="M60.753 65.309h.887c-.017-.86-.75-1.47-1.834-1.47-1.07 0-1.872.602-1.87 1.502 0 .73.52 1.15 1.358 1.367l.579.15c.55.138.912.31.915.705-.003.435-.416.726-1.017.726-.577 0-1.024-.258-1.062-.793h-.907c.037 1.012.79 1.581 1.976 1.581 1.22 0 1.93-.609 1.932-1.506-.003-.883-.731-1.285-1.497-1.467l-.477-.12c-.418-.099-.87-.275-.865-.7.002-.383.346-.664.922-.664.55 0 .913.256.96.689zM62.493 69h.899v-3.818h-.9V69zm.452-4.36c.285 0 .52-.219.52-.487 0-.271-.235-.49-.52-.49-.289 0-.523.219-.523.49 0 .268.234.487.523.487zm3.033 5.871c1.032 0 1.792-.472 1.792-1.449v-3.88h-.887v.631h-.05c-.137-.276-.423-.68-1.096-.68-.883 0-1.576.69-1.576 1.946 0 1.245.693 1.866 1.573 1.866.654 0 .96-.35 1.099-.631h.045v.723c0 .562-.373.793-.885.793-.542 0-.78-.256-.89-.48l-.81.197c.163.534.713.964 1.685.964zm.007-2.272c-.594 0-.907-.462-.907-1.166 0-.693.308-1.203.907-1.203.58 0 .898.48.898 1.203 0 .729-.323 1.166-.898 1.166zm3.607-1.476c0-.552.333-.87.808-.87.465 0 .743.305.743.815V69h.9v-2.431c.003-.915-.52-1.437-1.307-1.437-.572 0-.965.273-1.139.699h-.045v-.65h-.86V69h.9v-2.237zm7.536.631c0 .582-.415.87-.813.87-.433 0-.72-.305-.72-.79v-2.292h-.9v2.43c0 .918.521 1.438 1.272 1.438.572 0 .975-.301 1.148-.729h.04V69h.873v-3.818h-.9v2.212zm1.825 3.038h.9v-2.034h.037c.142.279.438.67 1.094.67.9 0 1.574-.714 1.574-1.972 0-1.273-.694-1.964-1.577-1.964-.673 0-.954.405-1.09.681h-.053v-.631h-.885v5.25zm.882-3.341c0-.74.319-1.22.898-1.22.599 0 .907.509.907 1.22 0 .716-.313 1.238-.907 1.238-.574 0-.898-.497-.898-1.238zm7.136-1.91h-.753v-.914h-.9v.915h-.542v.696h.542V68c-.005.718.517 1.071 1.193 1.051a1.81 1.81 0 00.53-.09l-.152-.703c-.05.013-.152.035-.263.035-.227 0-.408-.08-.408-.442v-1.974h.753v-.696zm2.377 3.894c1.119 0 1.83-.788 1.83-1.97s-.711-1.973-1.83-1.973c-1.119 0-1.83.79-1.83 1.974 0 1.18.711 1.969 1.83 1.969zm.005-.721c-.619 0-.922-.552-.922-1.25 0-.7.303-1.258.922-1.258.609 0 .912.559.912 1.257 0 .699-.303 1.25-.912 1.25zm5.99.72c1.119 0 1.83-.787 1.83-1.968 0-1.183-.711-1.974-1.83-1.974-1.118 0-1.83.79-1.83 1.974 0 1.18.712 1.969 1.83 1.969zm.005-.72c-.619 0-.922-.552-.922-1.25 0-.7.303-1.258.922-1.258.61 0 .912.559.912 1.257 0 .699-.303 1.25-.912 1.25zm5.022-.96c0 .582-.415.87-.813.87-.432 0-.72-.305-.72-.79v-2.292h-.9v2.43c0 .918.522 1.438 1.272 1.438.572 0 .975-.301 1.149-.729h.039V69h.873v-3.818h-.9v2.212zM102.195 69h.9v-2.245c0-.484.366-.827.86-.827.152 0 .341.027.418.052v-.828a2.165 2.165 0 00-.323-.025.953.953 0 00-.942.691h-.04v-.636h-.873V69zm5.412-2.237c0-.552.333-.87.808-.87.465 0 .743.305.743.815V69h.9v-2.431c.002-.915-.52-1.437-1.308-1.437-.571 0-.964.273-1.138.699h-.045v-.65h-.86V69h.9v-2.237zm5.056 2.312c.89 0 1.501-.435 1.66-1.1l-.84-.094c-.122.323-.42.493-.808.493-.581 0-.967-.383-.974-1.037h2.66v-.276c0-1.34-.806-1.929-1.745-1.929-1.094 0-1.807.803-1.807 1.981 0 1.198.703 1.962 1.854 1.962zm-.96-2.344c.028-.488.388-.898.925-.898.517 0 .865.378.87.898h-1.795zM115.89 69h.939l.716-2.58h.052l.716 2.58h.937l1.082-3.818h-.92l-.661 2.67h-.038l-.686-2.67h-.907l-.686 2.684h-.035l-.671-2.684h-.917L115.89 69zm8.088-2.809c-.125-.646-.642-1.059-1.537-1.059-.919 0-1.546.453-1.543 1.158-.003.557.34.925 1.074 1.077l.651.137c.35.077.514.218.514.435 0 .26-.283.457-.71.457-.413 0-.682-.179-.759-.522l-.877.085c.112.7.701 1.116 1.638 1.116.955 0 1.628-.495 1.631-1.219-.003-.544-.353-.877-1.074-1.034l-.651-.139c-.388-.087-.542-.221-.54-.442-.002-.259.284-.438.659-.438.415 0 .634.227.703.478l.821-.09zm1.724-2.282h-.9V69h.9v-5.09zm2.615 5.166c.89 0 1.502-.435 1.661-1.1l-.84-.094c-.122.323-.421.493-.808.493-.582 0-.967-.383-.975-1.037h2.66v-.276c0-1.34-.805-1.929-1.745-1.929-1.094 0-1.807.803-1.807 1.981 0 1.198.703 1.962 1.854 1.962zm-.959-2.344c.027-.488.388-.898.924-.898.517 0 .866.378.87.898h-1.794zm5.325-1.55h-.753v-.914h-.9v.915h-.542v.696h.542V68c-.005.718.517 1.071 1.193 1.051.256-.007.433-.057.53-.09l-.152-.703c-.05.013-.152.035-.264.035-.226 0-.407-.08-.407-.442v-1.974h.753v-.696zm2.659 0h-.753v-.914h-.9v.915h-.542v.696h.542V68c-.005.718.517 1.071 1.193 1.051.256-.007.433-.057.53-.09l-.152-.703c-.05.013-.152.035-.263.035-.227 0-.408-.08-.408-.442v-1.974h.753v-.696zm2.402 3.894c.89 0 1.501-.435 1.661-1.1l-.841-.094c-.121.323-.42.493-.808.493-.581 0-.967-.383-.974-1.037h2.66v-.276c0-1.34-.806-1.929-1.745-1.929-1.094 0-1.807.803-1.807 1.981 0 1.198.703 1.962 1.854 1.962zm-.96-2.344c.028-.488.388-.898.925-.898.517 0 .865.378.87.898h-1.795zM140.203 69h.9v-2.245c0-.484.365-.827.86-.827.152 0 .341.027.418.052v-.828a2.168 2.168 0 00-.324-.025.954.954 0 00-.942.691h-.039v-.636h-.873V69z" fill="#555A60"/><path d="M75.776 61h1.049l.967-3.328h.04l.97 3.328h1.048l1.457-5.09H80.13l-.843 3.544h-.044l-.928-3.545H77.31l-.93 3.537h-.042l-.843-3.537h-1.176L75.776 61zm6.766.072c.564 0 .93-.246 1.116-.602h.03V61h1.004v-2.575c0-.91-.77-1.293-1.62-1.293-.916 0-1.517.438-1.664 1.134l.98.08c.072-.254.298-.44.678-.44.36 0 .567.18.567.494v.015c0 .246-.261.278-.925.343-.755.07-1.434.323-1.434 1.176 0 .755.54 1.138 1.268 1.138zm.303-.73c-.326 0-.56-.152-.56-.443 0-.299.247-.445.62-.497.23-.033.609-.087.735-.172v.405c0 .4-.33.706-.795.706zm3.727-1.55c.003-.492.296-.78.724-.78.425 0 .68.279.678.746V61h1.06v-2.431c0-.89-.523-1.437-1.318-1.437-.567 0-.977.279-1.149.724h-.044v-.674h-1.01V61h1.06v-2.207zm5.327-1.61h-.719v-.915h-1.059v.915H89.6v.795h.522v1.989c-.004.748.505 1.118 1.273 1.086.274-.01.468-.064.574-.1l-.166-.787c-.052.01-.164.035-.264.035-.21 0-.358-.08-.358-.373v-1.85h.719v-.795zm4.758 2.192c.003.512-.348.78-.728.78-.4 0-.659-.28-.661-.73v-2.242h-1.06v2.43c.003.893.525 1.438 1.293 1.438.575 0 .987-.296 1.159-.743h.04V61h1.016v-3.818h-1.059v2.192zm1.906 3.058h1.06v-2.044h.031c.147.319.468.674 1.084.674.87 0 1.549-.688 1.549-1.966 0-1.313-.709-1.964-1.546-1.964-.639 0-.945.38-1.087.691h-.047v-.641h-1.044v5.25zM99.6 59.09c0-.681.288-1.116.803-1.116.524 0 .803.455.803 1.116 0 .666-.284 1.128-.803 1.128-.51 0-.803-.447-.803-1.128zm4.8 1.971c.616 0 .937-.355 1.084-.673h.044V61h1.044v-5.09h-1.056v1.913h-.032c-.142-.31-.448-.69-1.087-.69-.837 0-1.546.65-1.546 1.963 0 1.278.679 1.966 1.549 1.966zm.335-.843c-.519 0-.802-.462-.802-1.128 0-.661.278-1.116.802-1.116.515 0 .803.435.803 1.116s-.293 1.128-.803 1.128zm3.797.853c.564 0 .93-.246 1.116-.602h.03V61h1.004v-2.575c0-.91-.771-1.293-1.621-1.293-.914 0-1.516.438-1.663 1.134l.98.08c.072-.254.298-.44.678-.44.361 0 .567.18.567.494v.015c0 .246-.261.278-.925.343-.755.07-1.434.323-1.434 1.176 0 .755.54 1.138 1.268 1.138zm.303-.73c-.326 0-.559-.152-.559-.443 0-.299.246-.445.619-.497.231-.033.609-.087.736-.172v.405c0 .4-.331.706-.796.706zm4.7-3.16h-.719v-.915h-1.059v.915h-.522v.795h.522v1.989c-.005.748.505 1.118 1.273 1.086a2.06 2.06 0 00.574-.1l-.166-.787c-.053.01-.164.035-.264.035-.211 0-.358-.08-.358-.373v-1.85h.719v-.795zm2.388 3.893c.945 0 1.581-.46 1.73-1.169l-.979-.064c-.107.29-.38.442-.733.442-.53 0-.865-.35-.865-.92v-.002h2.6v-.291c0-1.298-.786-1.939-1.795-1.939-1.123 0-1.852.798-1.852 1.976 0 1.21.719 1.967 1.894 1.967zm-.847-2.37a.806.806 0 01.823-.782c.459 0 .778.328.78.783h-1.603zm6.468-.434c-.095-.704-.661-1.139-1.626-1.139-.977 0-1.621.453-1.618 1.188-.003.572.358.942 1.103 1.092l.662.131c.333.067.484.19.489.38-.005.227-.251.388-.621.388-.378 0-.629-.161-.694-.472l-1.041.055c.099.73.721 1.18 1.732 1.18.99 0 1.698-.504 1.701-1.257-.003-.552-.363-.883-1.104-1.034l-.691-.14c-.355-.077-.487-.198-.485-.382-.002-.229.256-.378.584-.378.368 0 .587.201.639.447l.97-.06zm1.663 1.203h.943v-.085c.004-.485.178-.71.571-.947.465-.276.768-.641.768-1.225 0-.87-.701-1.377-1.688-1.377-.902 0-1.638.472-1.66 1.466h1.014c.015-.405.316-.621.642-.621.335 0 .606.223.606.569 0 .326-.236.542-.542.736-.417.263-.651.53-.654 1.4v.084zm.49 1.59a.606.606 0 00.597-.596.605.605 0 00-.597-.592.595.595 0 100 1.189z" fill="#0ABF53"/><path d="M97 41.25c0-.69.56-1.25 1.25-1.25h7.5c.69 0 1.25.56 1.25 1.25v5c0 .69-.56 1.25-1.25 1.25h-7.5c-.69 0-1.25-.56-1.25-1.25v-5zm1.25-.625a.625.625 0 00-.625.625v.136L102 44.01l4.375-2.625v-.136a.625.625 0 00-.625-.625h-7.5zm8.125 1.49l-2.974 1.784 2.974 1.797v-3.582zm-.022 4.298l-3.558-2.15-.795.476-.795-.477-3.558 2.151a.625.625 0 00.603.462h7.5a.624.624 0 00.603-.462zm-8.728-.717l2.974-1.797-2.974-1.785v3.582z" fill="#D9DDEA"/><g filter="url(#filter1_d)"><rect x="128" y="93" width="21" height="11" rx="2" fill="#0ABF53"/></g><rect x="135" y="98" width="7" height="1" rx=".5" fill="#fff"/><rect x="51.5" y="93.5" width="71" height="10" rx="1.5" stroke="#D9DDEA"/><path d="M0 40h200V4a4 4 0 00-4-4H4a4 4 0 00-4 4v36z" fill="url(#paint0_linear)"/></g><defs><filter id="filter0_d" x="22" y="-2" width="156" height="134" filterUnits="userSpaceOnUse" color-interpolation-filters="sRGB"><feFlood flood-opacity="0" result="BackgroundImageFix"/><feColorMatrix in="SourceAlpha" values="0 0 0 0 0 0 0 0 0 0 0 0 0 0 0 0 0 0 127 0"/><feOffset dy="3"/><feGaussianBlur stdDeviation="2.5"/><feColorMatrix values="0 0 0 0 0.54902 0 0 0 0 0.596078 0 0 0 0 0.643137 0 0 0 0.125 0"/><feBlend in2="BackgroundImageFix" result="effect1_dropShadow"/><feBlend in="SourceGraphic" in2="effect1_dropShadow" result="shape"/></filter><filter id="filter1_d" x="126" y="92" width="25" height="15" filterUnits="userSpaceOnUse" color-interpolation-filters="sRGB"><feFlood flood-opacity="0" result="BackgroundImageFix"/><feColorMatrix in="SourceAlpha" values="0 0 0 0 0 0 0 0 0 0 0 0 0 0 0 0 0 0 127 0"/><feOffset dy="1"/><feGaussianBlur stdDeviation="1"/><feColorMatrix values="0 0 0 0 0.215686 0 0 0 0 0.490196 0 0 0 0 1 0 0 0 0.2 0"/><feBlend in2="BackgroundImageFix" result="effect1_dropShadow"/><feBlend in="SourceGraphic" in2="effect1_dropShadow" result="shape"/></filter><linearGradient id="paint0_linear" x1="100" y1="-10" x2="100" y2="51.5" gradientUnits="userSpaceOnUse"><stop offset=".256" stop-color="#F3F4F6"/><stop offset=".749" stop-color="#F3F4F6" stop-opacity="0"/></linearGradient><clipPath id="clip0"><path fill="#fff" d="M0 0h200v144H0z"/></clipPath></defs></svg>