<svg height="512pt" viewBox="0 0 512 512" width="512pt" xmlns="http://www.w3.org/2000/svg"><path d="m416 512h-320c-53.023438 0-96-42.976562-96-96v-320c0-53.023438 42.976562-96 96-96h320c53.023438 0 96 42.976562 96 96v320c0 53.023438-42.976562 96-96 96zm0 0" fill="#e3f8fa"/><path d="m362.671875 266.671875h-128c-5.902344 0-10.671875-4.785156-10.671875-10.671875s4.785156-10.671875 10.671875-10.671875h128c5.886719 0 10.671875 4.785156 10.671875 10.671875-.015625 5.886719-4.785156 10.671875-10.671875 10.671875zm0 0" fill="#8ce1eb"/><path d="m379.726562 360.847656-74.78125-69.441406c-5.074218-4.527344-12.753906-5.117188-18.976562 1.28125l-67.488281 67.519531c-.160157.144531-1.074219.929688-1.214844 1.089844-2.53125 2.542969-3.921875 5.871094-3.921875 9.375 0 7.359375 5.984375 13.328125 13.328125 13.328125h144c7.34375 0 13.328125-5.984375 13.328125-13.328125 0-3.792969-1.585938-7.390625-4.273438-9.824219zm0 0" fill="#26c6da"/><path d="m370.671875 128h-144c-7.359375 0-13.328125 5.984375-13.328125 13.328125 0 3.519531 1.410156 6.847656 4.6875 10.03125l67.535156 67.503906c.128906.160157.929688 1.058594 1.074219 1.199219 2.527344 2.546875 5.855469 3.9375 9.359375 3.9375 3.296875 0 6.480469-1.214844 9.070312-3.519531l74.578126-69.25c2.71875-2.445313 4.351562-6.160157 4.351562-9.902344 0-7.34375-5.984375-13.328125-13.328125-13.328125zm0 0" fill="#26c6da"/><path d="m197.726562 267.28125c-2.972656-1.25-6.414062-.5625-8.71875 1.726562l-23.917968 23.921876c-10.035156-13.808594-15.761719-30.417969-15.761719-47.601563 0-24.6875 11.230469-47.871094 30.785156-63.566406 4.589844-3.683594 5.328125-10.402344 1.648438-14.992188-3.699219-4.609375-10.402344-5.328125-14.992188-1.648437-24.640625 19.773437-38.769531 49.007812-38.769531 80.207031 0 22.847656 7.984375 44.878906 21.886719 62.800781l-19.550781 19.550782c-2.289063 2.289062-2.976563 5.726562-1.726563 8.71875 1.230469 2.992187 4.160156 4.945312 7.390625 4.945312h58.671875c4.417969 0 8-3.582031 8-8v-58.671875c0-3.246094-1.953125-6.160156-4.945313-7.390625zm0 0" fill="#8ce1eb"/></svg>