<svg height="512pt" viewBox="0 0 512 512" width="512pt" xmlns="http://www.w3.org/2000/svg"><path d="m416 512h-320c-53.023438 0-96-42.976562-96-96v-320c0-53.023438 42.976562-96 96-96h320c53.023438 0 96 42.976562 96 96v320c0 53.023438-42.976562 96-96 96zm0 0" fill="#f5e6fe"/><path d="m207.070312 220.59375c2.464844 2.191406 5.632813 3.40625 8.929688 3.40625 3.503906 0 6.832031-1.390625 10.03125-4.6875l67.488281-67.519531c.160157-.128907 1.054688-.914063 1.214844-1.074219 2.546875-2.542969 3.9375-5.871094 3.9375-9.390625 0-7.359375-5.984375-13.328125-13.328125-13.328125h-144c-7.359375 0-13.34375 5.984375-13.34375 13.328125 0 3.742187 1.632812 7.441406 4.257812 9.808594zm0 0" fill="#be63f9"/><path d="m226.480469 293.183594c-.144531-.175782-.945313-1.085938-1.105469-1.246094-4.941406-4.914062-13.054688-5.183594-18.445312-.402344l-74.59375 69.265625c-2.75 2.480469-4.335938 6.078125-4.335938 9.871094 0 7.34375 5.984375 13.328125 13.328125 13.328125h144c7.359375 0 13.328125-5.984375 13.328125-13.328125 0-3.503906-1.390625-6.832031-4.6875-10.03125zm0 0" fill="#be63f9"/><g fill="#d9a4fc"><path d="m277.34375 245.328125h-128c-5.886719 0-10.671875 4.785156-10.671875 10.671875s4.785156 10.671875 10.671875 10.671875h128c5.886719 0 10.65625-4.785156 10.65625-10.671875s-4.769531-10.671875-10.65625-10.671875zm0 0"/><path d="m362.113281 203.871094 19.550781-19.550782c2.289063-2.289062 2.976563-5.726562 1.726563-8.71875-1.230469-2.992187-4.160156-4.945312-7.390625-4.945312h-58.671875c-4.417969 0-8 3.582031-8 8v58.671875c0 3.230469 1.953125 6.144531 4.945313 7.390625.992187.417969 2.03125.609375 3.054687.609375 2.078125 0 4.128906-.816406 5.664063-2.335937l23.917968-23.921876c10.035156 13.808594 15.761719 30.417969 15.761719 47.601563 0 24.6875-11.214844 47.871094-30.785156 63.585937-4.589844 3.679688-5.328125 10.398438-1.648438 14.988282 2.113281 2.625 5.203125 3.984375 8.320313 3.984375 2.335937 0 4.707031-.765625 6.671875-2.351563 24.640625-19.773437 38.769531-49.023437 38.769531-80.207031 0-22.863281-7.984375-44.894531-21.886719-62.800781zm0 0"/></g></svg>