<svg height="512pt" viewBox="0 0 512 512" width="512pt" xmlns="http://www.w3.org/2000/svg"><path d="m416 512h-320c-53.023438 0-96-42.976562-96-96v-320c0-53.023438 42.976562-96 96-96h320c53.023438 0 96 42.976562 96 96v320c0 53.023438-42.976562 96-96 96zm0 0" fill="#ffe6e2"/><path d="m312 128h-154.671875c-16.175781 0-29.328125 13.152344-29.328125 29.328125v37.328125c0 16.191406 13.152344 29.34375 29.328125 29.34375h154.671875c16.175781 0 29.328125-13.152344 29.328125-29.328125v-37.328125c0-16.191406-13.152344-29.34375-29.328125-29.34375zm0 0" fill="#fc573b"/><path d="m357.328125 165.328125h-16v21.328125h16c2.945313 0 5.328125 2.382812 5.328125 5.328125v48c0 2.945313-2.398438 5.328125-5.328125 5.328125h-106.671875c-17.648438 0-32 14.351562-32 32v10.6875h21.34375v-10.671875c0-5.871094 4.785156-10.671875 10.671875-10.671875h106.671875c14.703125.015625 26.65625-11.953125 26.65625-26.65625v-48c0-14.703125-11.953125-26.671875-26.671875-26.671875zm0 0" fill="#fd907e"/><path d="m248 288h-37.328125c-10.304687 0-18.671875 8.367188-18.671875 18.671875v58.671875c0 10.289062 8.367188 18.65625 18.671875 18.65625h37.328125c10.289062 0 18.671875-8.367188 18.671875-18.671875v-58.671875c0-10.289062-8.382813-18.65625-18.671875-18.65625zm0 0" fill="#fc573b"/></svg>