<svg width="24" height="24" viewBox="0 0 24 24" fill="none" xmlns="http://www.w3.org/2000/svg">
<rect width="2" height="2" transform="matrix(-1 -8.74228e-08 -8.74228e-08 1 17 5)" fill="black"/>
<rect width="2" height="8" transform="matrix(-1 -8.74228e-08 -8.74228e-08 1 18 6)" fill="black"/>
<rect width="2" height="8" transform="matrix(-1 -8.74228e-08 -8.74228e-08 1 8 6)" fill="black"/>
<rect width="2" height="2" transform="matrix(-1 -8.74228e-08 -8.74228e-08 1 9 5)" fill="black"/>
<rect width="2" height="2" transform="matrix(-1 -8.74228e-08 -8.74228e-08 1 10 4)" fill="black"/>
<rect width="2" height="2" transform="matrix(-1 -8.74228e-08 -8.74228e-08 1 7 14)" fill="black"/>
<rect x="17" y="14" width="2" height="2" fill="black"/>
<rect width="2" height="2" transform="matrix(-1 -8.74228e-08 -8.74228e-08 1 6 16)" fill="black"/>
<rect x="18" y="16" width="2" height="2" fill="black"/>
<rect width="14" height="2" transform="matrix(-1 -8.74228e-08 -8.74228e-08 1 19 17)" fill="black"/>
<rect width="2" height="2" transform="matrix(-1 -8.74228e-08 -8.74228e-08 1 13 19)" fill="black"/>
<rect width="4" height="2" transform="matrix(-1 -8.74228e-08 -8.74228e-08 1 14 18)" fill="black"/>
<rect width="4" height="2" transform="matrix(-1 -8.74228e-08 -8.74228e-08 1 14 3)" fill="black"/>
<rect width="2" height="2" transform="matrix(-1 -8.74228e-08 -8.74228e-08 1 16 4)" fill="black"/>
</svg>
