<svg width="24" height="24" viewBox="0 0 24 24" fill="none" xmlns="http://www.w3.org/2000/svg">
<rect x="5" y="6" width="14" height="2" transform="rotate(90 5 6)" fill="black"/>
<rect x="21" y="6" width="7" height="2" transform="rotate(90 21 6)" fill="black"/>
<rect x="4" y="8.5" width="16" height="2" fill="black"/>
<rect x="4" y="5" width="16" height="2" fill="black"/>
<rect x="11" y="11.75" width="2" height="2" fill="black"/>
<rect x="15" y="11.75" width="2" height="2" fill="black"/>
<rect x="7" y="11.75" width="2" height="2" fill="black"/>
<rect x="6" y="3" width="2" height="2" fill="black"/>
<rect x="7" y="15.75" width="2" height="2" fill="black"/>
<rect x="11" y="15.75" width="2" height="2" fill="black"/>
<rect x="4" y="19" width="8" height="2" fill="black"/>
<rect x="16" y="3" width="2" height="2" fill="black"/>
<path d="M20 19H18L18 21L20 21V19Z" fill="black"/>
<path d="M19 20H16L16 22L19 22V20Z" fill="black"/>
<path d="M17 19H15L15 21L17 21L17 19Z" fill="black"/>
<path d="M21 17L19 17V19L21 19V17Z" fill="black"/>
<path d="M22 15L20 15V17L22 17V15Z" fill="black"/>
</svg>
