<svg width="24" height="24" viewBox="0 0 24 24" fill="none" xmlns="http://www.w3.org/2000/svg">
<rect x="18" y="9" width="2" height="2" transform="rotate(90 18 9)" fill="black"/>
<rect x="6" y="9" width="2" height="2" fill="black"/>
<rect x="17" y="8" width="2" height="2" transform="rotate(90 17 8)" fill="black"/>
<rect x="5" y="10" width="2" height="2" fill="black"/>
<rect x="19" y="10" width="2" height="2" transform="rotate(90 19 10)" fill="black"/>
<rect x="7" y="8" width="2" height="2" fill="black"/>
<rect x="13" y="7" width="2" height="2" fill="black"/>
<rect x="10" y="11" width="2" height="2" fill="black"/>
<rect x="11" y="12" width="2" height="2" fill="black"/>
<rect x="6" y="15" width="2" height="2" transform="rotate(-90 6 15)" fill="black"/>
<rect x="7" y="16" width="2" height="2" transform="rotate(-90 7 16)" fill="black"/>
<rect x="19" y="13" width="2" height="1" transform="rotate(-180 19 13)" fill="black"/>
<rect x="5" y="14" width="2" height="2" transform="rotate(-90 5 14)" fill="black"/>
<rect x="15" y="17" width="6" height="2" transform="rotate(-180 15 17)" fill="black"/>
<rect x="4" y="4" width="2" height="2" fill="black"/>
<rect x="6" y="6" width="2" height="2" fill="black"/>
<rect x="8" y="8" width="2" height="2" fill="black"/>
<rect x="10" y="10" width="2" height="2" fill="black"/>
<rect x="12" y="12" width="2" height="2" fill="black"/>
<rect x="14" y="14" width="2" height="2" fill="black"/>
<rect x="16" y="16" width="2" height="2" fill="black"/>
<rect x="18" y="18" width="2" height="2" fill="black"/>
<rect x="5" y="5" width="2" height="2" fill="black"/>
<rect x="7" y="7" width="2" height="2" fill="black"/>
<rect x="9" y="9" width="2" height="2" fill="black"/>
<rect x="11" y="11" width="2" height="2" fill="black"/>
<rect x="13" y="13" width="2" height="2" fill="black"/>
<rect x="15" y="15" width="2" height="2" fill="black"/>
<rect x="17" y="17" width="2" height="2" fill="black"/>
<rect x="12" y="7" width="2" height="1" fill="black"/>
<rect x="19" y="12" width="2" height="1" transform="rotate(90 19 12)" fill="black"/>
</svg>
