<svg width="24" height="24" viewBox="0 0 24 24" fill="none" xmlns="http://www.w3.org/2000/svg">
<rect width="2" height="2" transform="matrix(-1 -8.74228e-08 -8.74228e-08 1 13.5 5.5)" fill="black"/>
<rect width="2" height="2" transform="matrix(-1 -8.74228e-08 -8.74228e-08 1 12.5 6.5)" fill="black"/>
<rect width="2" height="2" transform="matrix(-1 -8.74228e-08 -8.74228e-08 1 12.5 11.5)" fill="black"/>
<rect width="3" height="2" transform="matrix(-1 -8.74228e-08 -8.74228e-08 1 11.5 3.5)" fill="black"/>
<rect width="2" height="2" transform="matrix(-1 -8.74228e-08 -8.74228e-08 1 8.5 4.5)" fill="black"/>
<rect width="2" height="2" transform="matrix(-1 -8.74228e-08 -8.74228e-08 1 13.5 3.5)" fill="black"/>
<rect width="2" height="2" transform="matrix(-1 -8.74228e-08 -8.74228e-08 1 7.5 15.5)" fill="black"/>
<rect width="2" height="2" transform="matrix(-1 -8.74228e-08 -8.74228e-08 1 7.5 5.5)" fill="black"/>
<rect width="2" height="2" transform="matrix(-1 -8.74228e-08 -8.74228e-08 1 6.5 7.5)" fill="black"/>
<rect width="2" height="2" transform="matrix(-1 -8.74228e-08 -8.74228e-08 1 6.5 13.5)" fill="black"/>
<rect width="2" height="4" transform="matrix(-1 -8.74228e-08 -8.74228e-08 1 5.5 9.5)" fill="black"/>
<rect width="2" height="4" transform="matrix(-1 -8.74228e-08 -8.74228e-08 1 11.5 8.5)" fill="black"/>
<rect x="18.5" y="10.5" width="2" height="2" transform="rotate(90 18.5 10.5)" fill="black"/>
<rect x="17.5" y="11.5" width="2" height="2" transform="rotate(90 17.5 11.5)" fill="black"/>
<rect x="20.5" y="12.5" width="3" height="2" transform="rotate(90 20.5 12.5)" fill="black"/>
<rect x="19.5" y="15.5" width="2" height="2" transform="rotate(90 19.5 15.5)" fill="black"/>
<rect x="20.5" y="10.5" width="2" height="2" transform="rotate(90 20.5 10.5)" fill="black"/>
<rect x="8.5" y="16.5" width="2" height="2" transform="rotate(90 8.5 16.5)" fill="black"/>
<rect x="18.5" y="16.5" width="2" height="2" transform="rotate(90 18.5 16.5)" fill="black"/>
<rect x="16.5" y="17.5" width="2" height="2" transform="rotate(90 16.5 17.5)" fill="black"/>
<rect x="10.5" y="17.5" width="2" height="2" transform="rotate(90 10.5 17.5)" fill="black"/>
<rect x="14.5" y="18.5" width="2" height="4" transform="rotate(90 14.5 18.5)" fill="black"/>
<rect x="15.5" y="12.5" width="2" height="4" transform="rotate(90 15.5 12.5)" fill="black"/>
</svg>
