<svg width="24" height="24" viewBox="0 0 24 24" fill="none" xmlns="http://www.w3.org/2000/svg">
<rect x="7" y="4" width="16" height="2" transform="rotate(90 7 4)" fill="black"/>
<rect x="19" y="7" width="6" height="2" transform="rotate(90 19 7)" fill="black"/>
<rect x="6" y="3" width="7" height="2" fill="black"/>
<rect x="15" y="5" width="2" height="2" fill="black"/>
<rect x="16" y="6" width="2" height="2" fill="black"/>
<rect x="14" y="4" width="2" height="2" fill="black"/>
<rect x="12" y="3" width="3" height="2" fill="black"/>
<rect x="6" y="19" width="6" height="2" fill="black"/>
<rect x="16" y="15" width="2" height="2" transform="rotate(90 16 15)" fill="black"/>
<rect x="19" y="16" width="4" height="4" transform="rotate(90 19 16)" fill="black"/>
<rect x="20" y="19" width="2" height="2" transform="rotate(90 20 19)" fill="black"/>
<rect x="20" y="15" width="2" height="2" transform="rotate(90 20 15)" fill="black"/>
<rect x="16" y="19" width="2" height="2" transform="rotate(90 16 19)" fill="black"/>
</svg>
