<svg width="24" height="24" viewBox="0 0 24 24" fill="none" xmlns="http://www.w3.org/2000/svg">
<rect x="5" y="18" width="7" height="2" fill="black"/>
<rect x="4" y="8" width="16" height="2" fill="black"/>
<rect x="5" y="9" width="9" height="2" transform="rotate(90 5 9)" fill="black"/>
<rect x="9" y="6" width="6" height="2" transform="rotate(90 9 6)" fill="black"/>
<rect x="17" y="6" width="6" height="2" transform="rotate(90 17 6)" fill="black"/>
<rect x="15" y="4" width="2" height="6" transform="rotate(90 15 4)" fill="black"/>
<rect x="21" y="9" width="3" height="2" transform="rotate(90 21 9)" fill="black"/>
<path d="M16 18H18V20H16V18Z" fill="black"/>
<path d="M17 17H19V19H17V17Z" fill="black"/>
<path d="M15 19H17V21H15V19Z" fill="black"/>
<path d="M14 20H16V22H14V20Z" fill="black"/>
<path d="M18 16H20V18H18V16Z" fill="black"/>
<path d="M19 15H21V17H19V15Z" fill="black"/>
<path fill-rule="evenodd" clip-rule="evenodd" d="M22 15H21V14L20 14V16H22V15Z" fill="black"/>
</svg>
