<svg width="24" height="24" viewBox="0 0 24 24" fill="none" xmlns="http://www.w3.org/2000/svg">
<rect width="4" height="2" transform="matrix(1 -5.24537e-08 -1.45705e-07 -1 5 10)" fill="black"/>
<rect width="2" height="2" transform="matrix(1 -8.74228e-08 -8.74228e-08 -1 8 9)" fill="black"/>
<rect width="2" height="6" transform="matrix(1 -8.74228e-08 -8.74228e-08 -1 3 15)" fill="black"/>
<rect width="2" height="2" transform="matrix(1 -8.74228e-08 -8.74228e-08 -1 9 8)" fill="black"/>
<rect width="4" height="2" transform="matrix(1 -5.24537e-08 -1.45705e-07 -1 5 16)" fill="black"/>
<rect width="2" height="2" transform="matrix(1 -8.74228e-08 -8.74228e-08 -1 8 17)" fill="black"/>
<rect width="2" height="2" transform="matrix(1 -8.74228e-08 -8.74228e-08 -1 9 18)" fill="black"/>
<rect width="2" height="2" transform="matrix(1 -8.74228e-08 -8.74228e-08 -1 10 7)" fill="black"/>
<rect width="2" height="14" transform="matrix(1 -8.74228e-08 -8.74228e-08 -1 12 19)" fill="black"/>
<rect width="2" height="2" transform="matrix(1 -8.74228e-08 -8.74228e-08 -1 15 11)" fill="black"/>
<rect width="2" height="2" transform="matrix(1 -8.74228e-08 -8.74228e-08 -1 16 12)" fill="black"/>
<rect width="2" height="2" transform="matrix(1 -8.74228e-08 -8.74228e-08 -1 17 13)" fill="black"/>
<rect width="2" height="2" transform="matrix(1 -8.74228e-08 -8.74228e-08 -1 18 14)" fill="black"/>
<rect width="2" height="2" transform="matrix(1 -8.74228e-08 -8.74228e-08 -1 19 15)" fill="black"/>
<rect width="2" height="2" transform="matrix(1 -8.74228e-08 -8.74228e-08 -1 15 15)" fill="black"/>
<rect width="2" height="2" transform="matrix(1 -8.74228e-08 -8.74228e-08 -1 16 14)" fill="black"/>
<rect width="2" height="2" transform="matrix(1 -8.74228e-08 -8.74228e-08 -1 17 13)" fill="black"/>
<rect width="2" height="2" transform="matrix(1 -8.74228e-08 -8.74228e-08 -1 18 12)" fill="black"/>
<rect width="2" height="2" transform="matrix(1 -8.74228e-08 -8.74228e-08 -1 19 11)" fill="black"/>
<rect width="2" height="2" transform="matrix(1 -8.74228e-08 -8.74228e-08 -1 10 19)" fill="black"/>
</svg>
