<svg width="24" height="24" viewBox="0 0 24 24" fill="none" xmlns="http://www.w3.org/2000/svg">
<rect width="10" height="2" transform="matrix(4.99559e-08 1 1 -3.82475e-08 6 10)" fill="black"/>
<rect width="10" height="2" transform="matrix(4.99559e-08 1 1 -3.82475e-08 16 10)" fill="black"/>
<rect width="10" height="2" transform="matrix(-1 -8.74228e-08 -8.74228e-08 1 17 19)" fill="black"/>
<rect width="14" height="2" transform="matrix(-1 -8.74228e-08 -8.74228e-08 1 19 8)" fill="black"/>
<rect width="2" height="5" transform="matrix(-1 -8.74228e-08 -8.74228e-08 1 11.25 12)" fill="black"/>
<rect width="2" height="5" transform="matrix(-1 -8.74228e-08 -8.74228e-08 1 14.75 12)" fill="black"/>
<rect width="2" height="2" transform="matrix(-1 -8.74228e-08 -8.74228e-08 1 16 5)" fill="black"/>
<rect width="2" height="2" transform="matrix(-1 -8.74228e-08 -8.74228e-08 1 17 6)" fill="black"/>
<rect width="2" height="2" transform="matrix(-1 -8.74228e-08 -8.74228e-08 1 9 6)" fill="black"/>
<rect width="2" height="2" transform="matrix(-1 -8.74228e-08 -8.74228e-08 1 10 5)" fill="black"/>
<rect width="2" height="2" transform="matrix(-1 -8.74228e-08 -8.74228e-08 1 11 4)" fill="black"/>
<rect width="2" height="2" transform="matrix(-1 -8.74228e-08 -8.74228e-08 1 13 3)" fill="black"/>
<rect width="2" height="2" transform="matrix(-1 -8.74228e-08 -8.74228e-08 1 15 4)" fill="black"/>
</svg>
