<svg width="24" height="24" viewBox="0 0 24 24" fill="none" xmlns="http://www.w3.org/2000/svg">
<path opacity="0.2" fill-rule="evenodd" clip-rule="evenodd" d="M12 24C18.6274 24 24 18.6274 24 12C24 5.37258 18.6274 0 12 0C5.37258 0 0 5.37258 0 12C0 18.6274 5.37258 24 12 24Z" fill="black"/>
<path fill-rule="evenodd" clip-rule="evenodd" d="M11.9998 19.3845C7.92354 19.3845 4.61523 16.0762 4.61523 11.9998C4.61523 7.92354 7.92354 4.61523 11.9998 4.61523C14.038 4.61523 15.8871 5.44231 17.2222 6.77745L15.9934 8.00625C14.9714 6.98422 13.5595 6.3521 11.9998 6.3521C8.88059 6.3521 6.3521 8.88059 6.3521 11.9998C6.3521 15.1191 8.88059 17.6476 11.9998 17.6476C14.8237 17.6476 17.1573 15.574 17.5708 12.8683H11.9998V11.1314H19.3313C19.3667 11.415 19.3845 11.7045 19.3845 11.9998C19.3845 16.0762 16.0762 19.3845 11.9998 19.3845Z" fill="black"/>
</svg>
