<svg width="24" height="24" viewBox="0 0 24 24" fill="none" xmlns="http://www.w3.org/2000/svg">
<path opacity="0.2" d="M12 24C18.6274 24 24 18.6274 24 12C24 5.37258 18.6274 0 12 0C5.37258 0 0 5.37258 0 12C0 18.6274 5.37258 24 12 24Z" fill="black"/>
<path fill-rule="evenodd" clip-rule="evenodd" d="M19.0075 9.89666V10.6475L11.8397 15.1901L6.43813 12.4582L6.44846 12.0375L11.8191 14.7641L18.646 10.4399V10.131L12.2012 6.92506L5.01285 11.5103V13.5606L11.8191 17.0328L18.9248 12.5381L19.1262 12.8576L11.8397 17.4588L4.65137 13.7949V11.3026L12.1806 6.49902L19.0075 9.89666Z" fill="black"/>
<path fill-rule="evenodd" clip-rule="evenodd" d="M18.8865 13.4657L19.0027 12.7388L18.2939 12.6177L18.3404 12.335L19.3339 12.5023L19.1712 13.5119L18.8865 13.4657Z" fill="black"/>
</svg>
