<svg width="24" height="24" viewBox="0 0 24 24" fill="none" xmlns="http://www.w3.org/2000/svg">
<path opacity="0.2" d="M12 24C18.6274 24 24 18.6274 24 12C24 5.37258 18.6274 0 12 0C5.37258 0 0 5.37258 0 12C0 18.6274 5.37258 24 12 24Z" fill="black"/>
<path fill-rule="evenodd" clip-rule="evenodd" d="M4.61523 11.9998C4.61523 7.92125 7.9214 4.61523 11.9998 4.61523C16.0784 4.61523 19.3845 7.92125 19.3845 11.9998C19.3845 16.0784 16.0783 19.3845 11.9998 19.3845C7.9214 19.3845 4.61523 16.0784 4.61523 11.9998ZM12.7095 10.5034C12.7095 10.1115 12.3918 9.79377 11.9998 9.79377C11.6079 9.79389 11.2902 10.1116 11.2902 10.5036C11.2903 10.8955 11.608 11.2131 11.9999 11.2131C12.3919 11.213 12.7095 10.8953 12.7095 10.5034ZM15.2156 14.5902C14.9285 14.5902 14.6696 14.4173 14.5597 14.1521C14.4498 13.8869 14.5105 13.5816 14.7135 13.3786C14.9165 13.1756 15.2218 13.1148 15.487 13.2247C15.7523 13.3346 15.9252 13.5934 15.9251 13.8805C15.9251 14.2724 15.6074 14.5901 15.2156 14.5902V14.5902ZM7.52315 8.81117L11.9998 17.5309L16.477 8.81117H14.1213L12.0154 13.2257L9.86289 8.81117H7.52315Z" fill="black"/>
</svg>
