<svg width="24" height="24" viewBox="0 0 24 24" fill="none" xmlns="http://www.w3.org/2000/svg">
<path opacity="0.2" d="M12 24C18.6274 24 24 18.6274 24 12C24 5.37258 18.6274 0 12 0C5.37258 0 0 5.37258 0 12C0 18.6274 5.37258 24 12 24Z" fill="black"/>
<path fill-rule="evenodd" clip-rule="evenodd" d="M9.10582 7.48358C9.6028 7.38659 10.102 7.50783 10.5953 7.5692C10.8434 7.61012 11.1514 7.64043 11.2732 7.90489C11.2614 7.87003 11.237 7.80107 11.2252 7.76622C11.4305 7.84502 11.6328 7.93292 11.833 8.02537C11.7724 8.08523 11.7089 8.14282 11.6432 8.19662C11.6816 8.18904 11.7591 8.17465 11.7975 8.16707C11.5538 8.42243 11.2533 8.60884 11.0066 8.86041C10.6396 9.22261 10.3346 9.64695 10.0998 10.1099C10.1123 10.0667 10.1367 9.9796 10.1493 9.93641C9.68108 9.93944 9.19443 9.86064 8.74619 10.0417C7.69314 10.3971 6.93179 11.5368 7.06323 12.6787C7.11714 12.9636 7.15923 13.2569 7.27 13.5259C7.54176 14.0768 7.99886 14.5284 8.54459 14.789C9.13314 15.052 9.81548 15.0467 10.421 14.8481C11.0221 14.6155 11.5405 14.1472 11.8174 13.5509C11.9607 13.2175 12.0368 12.8568 12.0567 12.4946C12.8594 12.4893 13.6629 12.4961 14.4656 12.4923C14.4124 12.953 14.4043 13.4251 14.2558 13.8684C14.1628 14.2268 13.99 14.5549 13.8541 14.8966C13.3859 15.6627 12.7907 16.3887 11.9851 16.7918C11.5996 16.9858 11.2208 17.2131 10.791 17.2904C10.3597 17.3699 9.92699 17.4722 9.48686 17.4722C8.75653 17.3965 8.01216 17.2836 7.35345 16.9304C6.83726 16.6448 6.33216 16.3068 5.95406 15.8393C5.67123 15.5051 5.39726 15.1588 5.19345 14.7663C5.25253 14.6617 5.23185 14.5504 5.16391 14.4571C5.14102 14.4776 5.09449 14.5193 5.0716 14.5397C4.93351 14.1874 4.84933 13.8176 4.75554 13.4516C4.53769 12.534 4.65954 11.5701 4.96674 10.6896L4.99554 10.6775C5.58926 8.90057 7.29511 7.62528 9.10582 7.48358Z" fill="black"/>
<path fill-rule="evenodd" clip-rule="evenodd" d="M12.824 7.70729C13.8291 7.35721 14.9309 7.35948 15.95 7.64667C17.353 8.1195 18.5442 9.23491 19.0633 10.6618C19.2309 11.0876 19.2863 11.5453 19.3845 11.9901V12.8729C19.2435 14.1247 18.6919 15.3401 17.7621 16.1789C16.8546 17.0549 15.6007 17.4944 14.3637 17.4807C13.53 17.4595 12.7096 17.2155 11.9852 16.7919C12.7908 16.3888 13.386 15.6629 13.8542 14.8968C14.7559 15.1605 15.7772 14.8089 16.3635 14.0625C16.8841 13.451 17.0717 12.5523 16.8442 11.7756C16.6449 10.9762 16.0157 10.323 15.2588 10.0624C14.5676 9.82292 13.7737 9.90476 13.1564 10.3102C12.4209 10.7368 12.0176 11.59 11.9564 12.4334C11.1477 12.425 10.3391 12.4311 9.53125 12.4303C9.54233 11.6249 9.73802 10.8254 10.0999 10.1101C10.3347 9.64713 10.6397 9.22279 11.0067 8.86058C11.2533 8.60901 11.5539 8.4226 11.7976 8.16724C11.8072 8.15815 11.8271 8.1392 11.8367 8.13011C12.1838 8.03615 12.4858 7.82701 12.824 7.70729Z" fill="black"/>
</svg>
