<?xml version="1.0" ?>
<!DOCTYPE svg  PUBLIC '-//W3C//DTD SVG 1.1//EN'  'http://www.w3.org/Graphics/SVG/1.1/DTD/svg11.dtd'>
<!-- Uploaded to: SVG Repo, www.svgrepo.com, Generator: SVG Repo Mixer Tools -->
<svg width="800px" height="800px" viewBox="0 0 1019 1019" style="shape-rendering:geometricPrecision; text-rendering:geometricPrecision; image-rendering:optimizeQuality; fill-rule:evenodd; clip-rule:evenodd" version="1.1" xml:space="preserve" xmlns="http://www.w3.org/2000/svg" xmlns:xlink="http://www.w3.org/1999/xlink">
<defs>
<style type="text/css">
   <![CDATA[
    .fil0 {fill:#FEFEFE}
    .fil1 {fill:#1D1819}
   ]]>
  </style>
</defs>
<g id="Layer_x0020_1">
<g id="_835295632">
<polygon class="fil0" points="832,0 832,126 958,126 958,191 1019,191 1019,828 893,828 893,767 828,767 828,893 893,893 893,1019 511,1019 511,832 382,832 382,1019 0,1019 0,893 65,893 65,832 126,832 126,702 65,702 65,576 130,576 130,511 191,511 256,511 256,446 191,446 191,382 130,382 130,256 65,256 65,65 191,65 191,130 317,130 317,65 446,65 446,0 572,0 572,65 702,65 702,0 "/>
<path class="fil1" d="M317 65l129 0 0 -65 126 0 0 65 4 0 124 0 0 -65 67 0 61 0 4 0 0 126 126 0 0 65 61 0 0 450 0 187 -61 0 -65 0 0 -61 -65 0 0 126 65 0 0 65 0 61 -65 0 -317 0 0 -61 0 -126 -129 0 0 126 0 61 -317 0 -65 0 0 -61 0 -65 65 0 0 -61 61 0 0 -130 0 -126 0 -65 130 0 0 -65 -65 0 0 -64 -61 0 0 -61 0 -65 0 -126 61 0 0 61 0 65 0 65 191 0 0 -65 64 0 0 -61 65 0 65 0 0 61 191 0 65 0 0 -65 126 0 0 450 -65 0 0 -255 -65 0 -126 0 0 -65 -65 0 0 61 0 64 191 0 0 -60 0 -65 -61 0 0 -65 0 -191 -65 0 0 65 0 65 -126 0 0 -65 -259 0 -61 0 -65 0 0 -65 -126 0 0 4 0 61 0 126 65 0 61 0 65 0 0 -65 61 0 0 -61 0 -65zm385 446l0 65 -130 0 0 126 256 0 0 -191 -126 0zm-130 -190l-61 0 0 -65 -65 0 0 65 65 0 0 61 61 0 0 -61zm0 125l-61 0 0 65 61 0 0 -65zm-61 -64l-255 0 0 64 255 0 0 -64zm-65 129l-129 0 0 65 0 65 -61 0 0 -65 61 0 129 0 65 0 0 65 -65 0 0 -65 0 -65zm65 191l0 65 61 0 0 -65 -61 0zm-65 -61l-129 0 0 126 129 0 0 -126zm-320 61l65 0 0 -61 0 -65 -65 0 -61 0 0 126 61 0zm65 65l0 65 0 61 0 65 126 0 0 -126 -61 0 0 -65 -65 0zm-65 126l0 65 -61 0 0 -65 61 0zm511 65l65 0 0 -65 -65 0 0 65zm0 -126l65 0 65 0 0 -65 -130 0 0 65zm130 126l61 0 0 -65 -61 0 0 65z"/>
</g>
</g>
</svg>