<svg xmlns="http://www.w3.org/2000/svg" width="32" height="32" fill="none" viewBox="0 0 32 32">
  <path fill="#000001" d="M11.43 16.76v1.53h6.09v-1.53h1.53v1.53h6.09v-1.53h1.53v10.67h1.52V10.67h-1.52V9.15h-1.53V7.62h-1.52V6.1h-4.57V3.05h-1.53V6.1h-4.57v1.52h-1.52v1.53H9.9v1.52H8.38v16.76H9.9V16.76h1.53ZM16 9.15h1.52V7.62h1.53v1.53h1.52v3.04h-1.52v1.53h-1.53v-1.53H16V9.15Zm10.67 18.28h-1.53v1.53h1.53v-1.53Z"/>
  <path fill="#000001" d="M25.14 22.86h-1.52v3.05h1.52v-3.05Zm0 6.1h-3.05v1.52h3.05v-1.52Zm-1.52-3.05h-1.53v1.52h1.53v-1.52Zm-1.53 1.52h-3.04v1.53h3.04v-1.53Zm0 3.05h-7.62V32h7.62v-1.52ZM17.52 1.53h-3.05v1.52h3.05V1.53Zm-3.05 27.43h-3.04v1.52h3.04v-1.52Zm0-25.91h-3.04v1.52h3.04V3.05Zm-3.04 24.38H9.9v1.53h1.53v-1.53Zm0-22.86H9.9V6.1h1.53V4.57ZM9.9 6.1H5.33v1.52H9.9V6.1ZM8.38 0H6.86v1.53h1.52V0ZM6.86 1.53H5.33v1.52h1.53V1.53ZM5.33 3.05H3.81V6.1h1.52V3.05Z"/>
</svg>
