<svg xmlns="http://www.w3.org/2000/svg" width="32" height="32" fill="none" viewBox="0 0 32 32">
  <g clip-path="url(#a)">
    <path fill="#000001" d="M30.48 28.95h-1.52v1.53H18.29v-3.05h9.14V16.76h1.53v-1.52h-3.05V3.05h-1.52v10.66h-1.53v1.53H10.67v-1.53H9.15v1.53H0v13.71h1.53v-1.52h12.19v1.52h1.52v-1.52h1.53v1.52h-1.53v1.53H3.05V32H32V18.29h-1.52v10.66ZM12.2 25.9H1.53v-9.14H12.2v9.14Zm3.04 0v-9.14h10.67v9.14H15.24Z"/>
    <path fill="#000001" d="M30.48 16.76h-1.52v1.53h1.52v-1.53Zm-1.52 10.67h-1.53v1.52h1.53v-1.52ZM24.39 1.52h-1.53v1.53h1.53V1.52Zm-1.53 18.29h-1.52v1.52h1.52v-1.52Zm0-7.62h-1.52v1.52h1.52v-1.52Zm-1.52 6.1h-1.53v1.52h1.53v-1.52Zm1.52 4.57h-4.57v-1.53h-1.52v3.05h7.62v-3.05h-1.53v1.53Zm-3.05-3.05h-1.52v1.52h1.52v-1.52ZM16.77 3.05h-1.53v1.52h-1.52V3.05H12.2v1.52h-1.53V6.1h1.53v1.52h1.52v1.52h1.52V7.62h1.53V6.1h1.52V4.57h-1.52V3.05Z"/>
    <path fill="#000001" d="M21.34 12.19V1.52h1.52V0H7.62v13.71h1.53v-1.52h12.19ZM9.15 1.52h10.66v9.15H9.15V1.52Zm0 18.29H7.62v3.05h1.53v-3.05Zm-1.53-1.52H4.58v1.52h3.04v-1.52Zm0 4.57H4.58v1.52h3.04v-1.52Zm-3.04-3.05H3.05v3.05h1.53v-3.05Zm-1.53 9.14H1.53v1.53h1.52v-1.53Z"/>
  </g>
  <defs>
    <clipPath id="a">
      <path fill="#fff" d="M0 0h32v32H0z"/>
    </clipPath>
  </defs>
</svg>
