<svg xmlns="http://www.w3.org/2000/svg" width="32" height="32" fill="none" viewBox="0 0 32 32">
  <path fill="#000001" d="M10.665 7.62V1.53h-1.52v6.09h-1.53v21.34h1.53V9.15h13.71v19.81h1.53V7.62h-1.53V1.53h-1.52v6.09h-10.67Zm12.19 21.34h-1.52v1.52h1.52v-1.52Z"/>
  <path fill="#000001" d="M21.335 15.24h-1.53v3.05h1.53v-3.05Zm0 15.24h-10.67V32h10.67v-1.52Zm-1.53-12.19h-1.52v1.52h1.52v-1.52Z"/>
  <path fill="#000001" d="M16.765 10.67h-1.53v9.14h-1.52v4.57h4.57v-4.57h-1.52v-9.14Zm3.04-7.62h-7.61v1.52h7.61V3.05Zm-6.09 15.24h-1.52v1.52h1.52v-1.52ZM21.335 0h-10.67v1.53h10.67V0Zm-9.14 13.72h-1.53v4.57h1.53v-4.57Zm-1.53 15.24h-1.52v1.52h1.52v-1.52Z"/>
</svg>
