<svg id="Capa_1" enable-background="new 0 0 512 512" height="512" viewBox="0 0 512 512" width="512" xmlns="http://www.w3.org/2000/svg" xmlns:xlink="http://www.w3.org/1999/xlink"><linearGradient id="SVGID_1_" gradientUnits="userSpaceOnUse" x1="74.98" x2="437.019" y1="437.019" y2="74.98"><stop offset="0" stop-color="#ff4747"/><stop offset="1" stop-color="#fff200"/></linearGradient><radialGradient id="SVGID_2_" cx="256" cy="256" gradientUnits="userSpaceOnUse" r="256"><stop offset="0" stop-color="#ff4747" stop-opacity=".8"/><stop offset="1" stop-color="#fffa78" stop-opacity="0"/></radialGradient><linearGradient id="SVGID_3_" gradientUnits="userSpaceOnUse" x1="-865.221" x2="707.529" y1="1377.221" y2="-195.529"><stop offset="0" stop-color="#ffcb00"/><stop offset="1" stop-color="#fffa78"/></linearGradient><linearGradient id="lg1"><stop offset="0" stop-color="#ff3838"/><stop offset="1" stop-color="#fff200"/></linearGradient><linearGradient id="SVGID_4_" gradientUnits="userSpaceOnUse" x1="14.361" x2="552.017" xlink:href="#lg1" y1="497.639" y2="-40.017"/><linearGradient id="SVGID_5_" gradientUnits="userSpaceOnUse" x1="121.267" x2="810.765" xlink:href="#lg1" y1="390.734" y2="-298.765"/><linearGradient id="lg2"><stop offset="0" stop-color="#ffb11d" stop-opacity="0"/><stop offset=".1761" stop-color="#ffad1e" stop-opacity=".141"/><stop offset=".3595" stop-color="#ffa021" stop-opacity=".288"/><stop offset=".5464" stop-color="#ff8b25" stop-opacity=".437"/><stop offset=".7356" stop-color="#ff6e2c" stop-opacity=".589"/><stop offset=".9248" stop-color="#ff4934" stop-opacity=".74"/><stop offset="1" stop-color="#ff3838" stop-opacity=".8"/></linearGradient><radialGradient id="SVGID_6_" cx="256" cy="256" gradientUnits="userSpaceOnUse" r="207.125" xlink:href="#lg2"/><radialGradient id="SVGID_7_" cx="256" cy="256" gradientUnits="userSpaceOnUse" r="258.897" xlink:href="#lg2"/><linearGradient id="SVGID_8_" gradientUnits="userSpaceOnUse" x1="-238.312" x2="363.351" y1="750.312" y2="148.649"><stop offset="0" stop-color="#fffa78"/><stop offset="1" stop-color="#fff"/></linearGradient><linearGradient id="lg3"><stop offset="0" stop-color="#ffcb00"/><stop offset=".5" stop-color="#fff200"/><stop offset=".6048" stop-color="#fff52f"/><stop offset=".8789" stop-color="#fefca6"/><stop offset="1" stop-color="#feffd6"/></linearGradient><linearGradient id="SVGID_9_" gradientUnits="userSpaceOnUse" x1="-399.024" x2="377.703" xlink:href="#lg3" y1="911.024" y2="134.297"/><linearGradient id="SVGID_10_" gradientUnits="userSpaceOnUse" x1="-133.491" x2="354.556" xlink:href="#lg3" y1="646.223" y2="158.177"/><linearGradient id="SVGID_11_" gradientUnits="userSpaceOnUse" x1="165.831" x2="287.167" xlink:href="#lg1" y1="346.169" y2="224.832"/><linearGradient id="SVGID_12_" gradientUnits="userSpaceOnUse" x1="195.909" x2="248.859" xlink:href="#lg1" y1="316.102" y2="263.153"/><linearGradient id="lg4"><stop offset="0" stop-color="#ffb11d" stop-opacity="0"/><stop offset=".2823" stop-color="#ff8b25" stop-opacity=".226"/><stop offset=".7679" stop-color="#ff5033" stop-opacity=".614"/><stop offset="1" stop-color="#ff3838" stop-opacity=".8"/></linearGradient><radialGradient id="SVGID_13_" cx="215.814" cy="296.186" gradientUnits="userSpaceOnUse" r="25.406" xlink:href="#lg4"/><linearGradient id="SVGID_14_" gradientUnits="userSpaceOnUse" x1="246.186" x2="367.524" xlink:href="#lg1" y1="265.814" y2="144.476"/><linearGradient id="SVGID_15_" gradientUnits="userSpaceOnUse" x1="276.257" x2="329.254" xlink:href="#lg1" y1="235.755" y2="182.758"/><radialGradient id="SVGID_16_" cx="296.186" cy="215.813" gradientUnits="userSpaceOnUse" r="25.406" xlink:href="#lg4"/><linearGradient id="SVGID_17_" gradientUnits="userSpaceOnUse" x1="205.861" x2="327.555" xlink:href="#lg1" y1="306.138" y2="184.444"/><linearGradient id="SVGID_18_" gradientUnits="userSpaceOnUse" x1="236.025" x2="289.153" xlink:href="#lg1" y1="275.987" y2="222.858"/><radialGradient id="SVGID_19_" cx="256" cy="256" gradientUnits="userSpaceOnUse" r="25.431" xlink:href="#lg4"/><g><circle cx="256" cy="256" fill="url(#SVGID_1_)" r="256"/><circle cx="256" cy="256" fill="url(#SVGID_2_)" r="256"/><circle cx="256" cy="256" fill="url(#SVGID_3_)" r="200.9"/><circle cx="256" cy="256" fill="url(#SVGID_4_)" r="170.15"/><path d="m382.422 256c-.14 68.859-57.563 126.282-126.422 126.422-68.859-.14-126.282-57.563-126.422-126.422.14-68.859 57.563-126.282 126.422-126.422 68.859.139 126.282 57.563 126.422 126.422z" fill="url(#SVGID_5_)"/><circle cx="256" cy="256" fill="url(#SVGID_6_)" r="170.15"/><circle cx="256" cy="256" fill="url(#SVGID_7_)" r="170.15"/><path d="m323.254 354.128c-44.836.363-89.672.363-134.508 0-16.871-.145-30.728-14.002-30.874-30.874-.363-44.836-.363-89.672 0-134.508.146-16.871 14.003-30.728 30.874-30.874 44.836-.363 89.672-.363 134.508 0 16.871.146 30.728 14.003 30.874 30.874.363 44.836.363 89.672 0 134.508-.146 16.87-14.003 30.728-30.874 30.874z" fill="url(#SVGID_8_)"/><circle cx="256" cy="256" fill="url(#SVGID_9_)" r="98.4"/><path d="m271.332 323.64c-54.098.018-98.448-44.256-98.31-98.263.03-9.659 1.483-18.994 4.142-27.828-12.254 16.395-19.567 36.597-19.564 58.451.066 53.892 44.509 98.335 98.4 98.4 44.31-.012 82.115-30.112 94.331-70.63-18.021 24.031-46.749 39.831-78.999 39.87z" fill="url(#SVGID_10_)"/><path d="m231.174 296.21c.009 8.489-6.85 15.36-15.324 15.336-8.474-.025-15.372-6.922-15.396-15.396s6.847-15.333 15.336-15.324c8.489.01 15.374 6.897 15.384 15.384z" fill="url(#SVGID_11_)"/><path d="m217.672 303.744c-6.844-.878-12.387-6.42-13.266-13.263-.21-1.638-.138-3.224.134-4.74-2.95 3.179-4.575 7.599-3.955 12.405.883 6.842 6.428 12.386 13.269 13.269 8.403 1.085 15.651-4.66 17.053-12.456-3.215 3.469-7.997 5.457-13.235 4.785z" fill="url(#SVGID_12_)"/><path d="m231.174 296.21c.009 8.489-6.85 15.36-15.324 15.336-8.474-.025-15.372-6.922-15.396-15.396s6.847-15.333 15.336-15.324c8.489.01 15.374 6.897 15.384 15.384z" fill="url(#SVGID_13_)"/><path d="m311.546 215.849c.024 8.475-6.847 15.332-15.336 15.324-8.489-.01-15.375-6.895-15.384-15.384s6.85-15.359 15.324-15.336c8.474.025 15.372 6.923 15.396 15.396z" fill="url(#SVGID_14_)"/><path d="m298.043 223.37c-6.85-.874-12.387-6.412-13.26-13.262-.209-1.639-.136-3.227.136-4.746-2.947 3.183-4.576 7.612-3.965 12.425.87 6.852 6.406 12.387 13.258 13.258 8.416 1.068 15.68-4.671 17.071-12.452-3.211 3.462-7.998 5.445-13.24 4.777z" fill="url(#SVGID_15_)"/><path d="m311.546 215.849c.024 8.475-6.847 15.332-15.336 15.324-8.489-.01-15.375-6.895-15.384-15.384s6.85-15.359 15.324-15.336c8.474.025 15.372 6.923 15.396 15.396z" fill="url(#SVGID_16_)"/><path d="m271.375 256c0 8.49-6.886 15.374-15.375 15.375-8.49 0-15.375-6.886-15.375-15.375 0-8.49 6.885-15.375 15.375-15.375s15.375 6.885 15.375 15.375z" fill="url(#SVGID_17_)"/><path d="m257.844 263.561c-6.852-.864-12.387-6.397-13.25-13.25-.207-1.639-.131-3.228.144-4.748-2.958 3.189-4.595 7.622-3.988 12.435.864 6.852 6.399 12.386 13.25 13.25 8.416 1.061 15.69-4.701 17.103-12.5-3.222 3.476-8.015 5.474-13.259 4.813z" fill="url(#SVGID_18_)"/><path d="m271.375 256c0 8.49-6.886 15.374-15.375 15.375-8.49 0-15.375-6.886-15.375-15.375 0-8.49 6.885-15.375 15.375-15.375s15.375 6.885 15.375 15.375z" fill="url(#SVGID_19_)"/></g></svg>