<svg id="Capa_1" enable-background="new 0 0 512 512" height="512" viewBox="0 0 512 512" width="512" xmlns="http://www.w3.org/2000/svg" xmlns:xlink="http://www.w3.org/1999/xlink"><linearGradient id="SVGID_1_" gradientUnits="userSpaceOnUse" x1="74.981" x2="437.02" y1="437.019" y2="74.98"><stop offset="0" stop-color="#364aff"/><stop offset="1" stop-color="#fc54ff"/></linearGradient><radialGradient id="SVGID_2_" cx="256.001" cy="256" gradientUnits="userSpaceOnUse" r="256"><stop offset="0" stop-color="#8d00db" stop-opacity=".7"/><stop offset="1" stop-color="#fc54ff" stop-opacity="0"/></radialGradient><linearGradient id="lg1"><stop offset="0" stop-color="#fc54ff"/><stop offset=".2201" stop-color="#fd75ff"/><stop offset=".7016" stop-color="#fec8ff"/><stop offset="1" stop-color="#fff"/></linearGradient><linearGradient id="SVGID_3_" gradientUnits="userSpaceOnUse" x1="-135.417" x2="338.807" xlink:href="#lg1" y1="530.363" y2="56.139"/><linearGradient id="SVGID_4_" gradientUnits="userSpaceOnUse" x1="-283.614" x2="394.658" xlink:href="#lg1" y1="769.633" y2="91.361"/><linearGradient id="SVGID_5_" gradientUnits="userSpaceOnUse" x1="-468.39" x2="374.17" xlink:href="#lg1" y1="957.449" y2="114.89"/><linearGradient id="SVGID_6_" gradientUnits="userSpaceOnUse" x1="102.455" x2="507.275" xlink:href="#lg1" y1="400.659" y2="-4.162"/><linearGradient id="SVGID_7_" gradientUnits="userSpaceOnUse" x1="50.345" x2="519.069" xlink:href="#lg1" y1="544.027" y2="75.303"/><linearGradient id="SVGID_8_" gradientUnits="userSpaceOnUse" x1="256" x2="256" y1="347.802" y2="109.93"><stop offset="0" stop-color="#8d00db" stop-opacity=".7"/><stop offset=".0249" stop-color="#a613e3" stop-opacity=".665"/><stop offset=".0588" stop-color="#c127ec" stop-opacity=".617"/><stop offset=".0978" stop-color="#d738f3" stop-opacity=".563"/><stop offset=".1433" stop-color="#e844f8" stop-opacity=".499"/><stop offset=".1996" stop-color="#f34dfc" stop-opacity=".419"/><stop offset=".2786" stop-color="#fa53fe" stop-opacity=".308"/><stop offset=".4979" stop-color="#fc54ff" stop-opacity="0"/></linearGradient><linearGradient id="SVGID_9_" gradientUnits="userSpaceOnUse" x1="-376.457" x2="437.623" xlink:href="#lg1" y1="903.761" y2="89.681"/><linearGradient id="SVGID_10_" gradientUnits="userSpaceOnUse" x1="-214.494" x2="421.866" xlink:href="#lg1" y1="901.93" y2="265.571"/><g><circle cx="256" cy="256" fill="url(#SVGID_1_)" r="256"/><circle cx="256" cy="256" fill="url(#SVGID_2_)" r="256"/><path d="m153.067 103.497c-17.311.309-31.807 15.509-31.321 33.032 1.471 49.982 4.41 100.046 8.522 150.181 27.51 15.417 54.985 30.955 82.204 46.439-.795-76.791-.596-153.581.596-230.372-20.001.141-40.001.381-60.001.72z" fill="url(#SVGID_3_)"/><path d="m256 102.625c-14.311 0-28.622.051-42.933.152-17.312.131-31.471 15.307-30.695 32.977 2.307 50.378 5.482 100.802 9.228 151.262 31.767 10.333 63.444 20.658 94.918 30.818 31.598-10.33 63.374-20.757 95.215-31.124 1.445-17.621 2.745-35.233 3.888-52.836-43.311-43.357-87.465-87.522-129.621-131.249z" fill="url(#SVGID_4_)"/><path d="m358.933 103.497c-34.311-.581-68.622-.872-102.933-.872-.248 71.979 57.829 130.428 129.621 131.249 2.108-32.481 3.68-64.93 4.634-97.345.485-17.523-14.011-32.722-31.322-33.032z" fill="url(#SVGID_5_)"/><path d="m130.267 286.71c1.25 15.243 2.608 30.494 4.067 45.75 40.556.527 81.111.79 121.667.79-21.292-15.375-42.817-30.823-64.4-46.234-20.445-.069-40.89-.171-61.334-.306z" fill="url(#SVGID_6_)"/><path d="m191.6 287.016c1.139 15.342 2.331 30.688 3.567 46.036 60.833.395 121.667.198 182.5-.593 1.458-15.256 2.817-30.506 4.067-45.75-63.378.419-126.756.521-190.134.307z" fill="url(#SVGID_7_)"/><path d="m358.933 103.497c-68.622-1.163-137.245-1.163-205.867 0-17.311.309-31.807 15.509-31.321 33.032 1.918 65.179 6.333 130.496 12.588 195.931 81.111 1.054 162.222 1.054 243.333 0 6.255-65.435 10.67-130.751 12.588-195.931.486-17.523-14.01-32.722-31.321-33.032z" fill="url(#SVGID_8_)"/><path d="m256 317.875c-54.871 0-109.741-.399-164.612-1.197-5.402-.079-10.327-3.168-13.213-7.818-2.796-4.512-7.805-7.571-13.438-7.646-8.448-.108-15.088 6.502-14.737 14.786 1.479 33.031 30.519 60.849 63.5 61.704 67.5 1.583 135 2.042 202.501 1.375-19.557-20.259-39.655-40.704-60.001-61.204z" fill="url(#SVGID_9_)"/><path d="m447.687 301.214c8.446.116 14.731 7.175 14.284 15.456-1.843 32.732-30.707 60.187-63.468 61.033-27.501.645-55.002 1.104-82.503 1.375-16.561.167-31.449-6.641-42.323-17.745-10.859-11.093-17.674-26.476-17.677-43.458 54.773 0 109.546-.398 164.318-1.193 5.427-.079 10.577-2.999 13.432-7.697 2.849-4.693 8.082-7.849 13.937-7.771z" fill="url(#SVGID_10_)"/></g></svg>