<svg id="Capa_1" enable-background="new 0 0 512 512" height="512" viewBox="0 0 512 512" width="512" xmlns="http://www.w3.org/2000/svg" xmlns:xlink="http://www.w3.org/1999/xlink"><linearGradient id="SVGID_1_" gradientUnits="userSpaceOnUse" x1="74.98" x2="437.018" y1="437.018" y2="74.98"><stop offset="0" stop-color="#00aa45"/><stop offset="1" stop-color="#d3ff33"/></linearGradient><radialGradient id="SVGID_2_" cx="-9159.445" cy="-5179.924" gradientTransform="matrix(1 0 0 .798 9415.445 4390.287)" gradientUnits="userSpaceOnUse" r="327.339"><stop offset="0" stop-color="#00aa45"/><stop offset=".12" stop-color="#2cba50" stop-opacity=".88"/><stop offset=".2917" stop-color="#64ce5e" stop-opacity=".708"/><stop offset=".4587" stop-color="#92df6a" stop-opacity=".541"/><stop offset=".6168" stop-color="#b7ed73" stop-opacity=".383"/><stop offset=".764" stop-color="#d1f67a" stop-opacity=".236"/><stop offset=".896" stop-color="#e0fc7e" stop-opacity=".104"/><stop offset="1" stop-color="#e6fe7f" stop-opacity="0"/></radialGradient><linearGradient id="lg1"><stop offset="0" stop-color="#008547"/><stop offset=".1212" stop-color="#128f45"/><stop offset=".3647" stop-color="#41aa41"/><stop offset=".7046" stop-color="#8cd63a"/><stop offset="1" stop-color="#d3ff33"/></linearGradient><linearGradient id="SVGID_3_" gradientUnits="userSpaceOnUse" x1="39.585" x2="626.378" xlink:href="#lg1" y1="373.384" y2="-213.408"/><linearGradient id="SVGID_4_" gradientUnits="userSpaceOnUse" x1="74.651" x2="643.671" xlink:href="#lg1" y1="645.2" y2="76.18"/><linearGradient id="SVGID_5_" gradientUnits="userSpaceOnUse" x1="72.492" x2="627.554" xlink:href="#lg1" y1="509.543" y2="-45.519"/><linearGradient id="SVGID_6_" gradientUnits="userSpaceOnUse" x1="256" x2="256" y1="368.568" y2="276.318"><stop offset="0" stop-color="#00aa45" stop-opacity="0"/><stop offset=".4151" stop-color="#00a845" stop-opacity=".415"/><stop offset=".6245" stop-color="#00a045" stop-opacity=".625"/><stop offset=".7879" stop-color="#009345" stop-opacity=".788"/><stop offset=".9266" stop-color="#008045" stop-opacity=".927"/><stop offset="1" stop-color="#007345"/></linearGradient><linearGradient id="SVGID_7_" gradientUnits="userSpaceOnUse" x1="97.426" x2="493.896" y1="331.109" y2="-65.362"><stop offset="0" stop-color="#007345"/><stop offset=".7147" stop-color="#6ac135"/><stop offset="1" stop-color="#95e12e"/></linearGradient><linearGradient id="lg2"><stop offset="0" stop-color="#ddff59"/><stop offset="1" stop-color="#fff"/></linearGradient><linearGradient id="SVGID_8_" gradientUnits="userSpaceOnUse" x1="-170.441" x2="291.173" xlink:href="#lg2" y1="565.737" y2="104.123"/><linearGradient id="SVGID_9_" gradientUnits="userSpaceOnUse" x1="241.99" x2="519.605" xlink:href="#lg2" y1="432.401" y2="154.786"/><linearGradient id="SVGID_10_" gradientUnits="userSpaceOnUse" x1="-203.597" x2="465.531" y1="779.642" y2="110.515"><stop offset="0" stop-color="#95e12e"/><stop offset=".5" stop-color="#ddff59"/><stop offset="1" stop-color="#e6fe7f"/></linearGradient><linearGradient id="SVGID_11_" gradientUnits="userSpaceOnUse" x1="280.771" x2="470.026" xlink:href="#lg1" y1="361.678" y2="172.423"/><linearGradient id="SVGID_12_" gradientUnits="userSpaceOnUse" x1="317.593" x2="468.254" xlink:href="#lg1" y1="324.889" y2="174.229"/><g><circle cx="256" cy="256" fill="url(#SVGID_1_)" r="256"/><circle cx="256" cy="256" fill="url(#SVGID_2_)" r="256"/><path d="m179.14 248.337c-40.992.025-81.983.071-122.975.138-.269 25.086.806 50.172 3.223 75.258.811 8.307 8.344 15.17 16.612 15.315 35 .589 70 1.007 105 1.252-1.364-30.655-1.984-61.309-1.86-91.963z" fill="url(#SVGID_3_)"/><path d="m409.719 248.408c.248 30.367-.992 60.735-3.719 91.102 10-.14 20-.295 30-.463 8.265-.145 15.802-7.007 16.612-15.315 2.417-25.086 3.491-50.172 3.223-75.258-15.373-.025-30.744-.047-46.116-.066z" fill="url(#SVGID_4_)"/><path d="m422.363 324.146c2.045-25.239 2.955-50.478 2.727-75.718-87.107-.119-174.215-.146-261.322-.081-.124 25.51.372 51.02 1.488 76.531.382 8.451 7.476 15.362 15.744 15.422 75 .526 150 .263 225-.789 8.269-.121 15.673-7.007 16.363-15.365z" fill="url(#SVGID_5_)"/><path d="m56.165 248.474c-.269 25.086.806 50.172 3.223 75.258.811 8.307 8.344 15.17 16.612 15.315 120 2.02 240 2.02 360 0 8.265-.145 15.802-7.007 16.612-15.315 2.417-25.086 3.491-50.172 3.223-75.258-133.223-.215-266.447-.215-399.67 0z" fill="url(#SVGID_6_)"/><path d="m74.512 323.948c-.446-5.033-.843-10.066-1.19-15.099 25.372.268 50.744.48 76.116.636.202 5.094.434 10.188.694 15.281-25.207-.201-50.413-.474-75.62-.818z" fill="url(#SVGID_7_)"/><path d="m256 171.438c-65 0-130 .593-195 1.778-8.267.156-15.862 7.005-16.736 15.284-3.124 30-4.165 60-3.124 90 .289 8.279 7.554 15.055 15.992 15.129 66.289.539 132.579.808 198.868.808 24.569-20.5 49.535-41.037 73.945-61.433-24.888-20.485-49.854-41.066-73.945-61.566z" fill="url(#SVGID_8_)"/><path d="m451 173.216c-10-.182-20-.351-30-.505 4 40.383 5.091 80.765 3.273 121.148 10.198-.07 20.397-.147 30.595-.23 8.441-.074 15.7-6.85 15.991-15.129 1.042-30 0-60-3.124-90-.872-8.278-8.469-15.128-16.735-15.284z" fill="url(#SVGID_9_)"/><path d="m440.165 278.649c.893-30.199 0-60.398-2.678-90.597-.75-8.334-8.22-15.209-16.488-15.341-55-.849-110-1.273-165-1.273v123c56.091 0 112.182-.193 168.273-.579 8.44-.063 15.644-6.875 15.893-15.21z" fill="url(#SVGID_10_)"/><path d="m378.777 233.121c.332 16.86 13.964 30.506 30.942 30.471 16.963-.039 30.951-13.582 30.446-30.241-.513-16.659-15.165-30.328-31.934-30.494-16.785-.162-29.747 13.405-29.454 30.264z" fill="url(#SVGID_11_)"/><path d="m417.405 248.418c-16.991-.008-30.8-13.666-31.376-30.51-.065-1.866.044-3.688.297-5.459-4.829 5.403-7.704 12.671-7.549 20.672.332 16.86 13.964 30.506 30.942 30.471 15.082-.029 27.807-10.756 30.085-24.83-5.481 5.936-13.487 9.666-22.399 9.656z" fill="url(#SVGID_12_)"/></g></svg>