<svg id="Capa_1" enable-background="new 0 0 512 512" height="512" viewBox="0 0 512 512" width="512" xmlns="http://www.w3.org/2000/svg" xmlns:xlink="http://www.w3.org/1999/xlink"><linearGradient id="SVGID_1_" gradientUnits="userSpaceOnUse" x1="74.98" x2="437.019" y1="437.019" y2="74.98"><stop offset="0" stop-color="#ff4747"/><stop offset="1" stop-color="#fff200"/></linearGradient><radialGradient id="SVGID_2_" cx="256.675" cy="249.239" gradientUnits="userSpaceOnUse" r="263.592"><stop offset="0" stop-color="#ff4747" stop-opacity=".8"/><stop offset=".1192" stop-color="#ff624f" stop-opacity=".705"/><stop offset=".4278" stop-color="#ffa360" stop-opacity=".458"/><stop offset=".6881" stop-color="#ffd26d" stop-opacity=".25"/><stop offset=".8866" stop-color="#ffef75" stop-opacity=".091"/><stop offset="1" stop-color="#fffa78" stop-opacity="0"/></radialGradient><linearGradient id="SVGID_3_" gradientUnits="userSpaceOnUse" x1="-132.437" x2="247.699" y1="573.689" y2="193.553"><stop offset="0" stop-color="#ffcb00"/><stop offset="1" stop-color="#fffa78"/></linearGradient><linearGradient id="lg1"><stop offset="0" stop-color="#ffcb00"/><stop offset=".5" stop-color="#fffa78"/><stop offset="1" stop-color="#feffd6"/></linearGradient><linearGradient id="SVGID_4_" gradientUnits="userSpaceOnUse" x1="-280.434" x2="444.704" xlink:href="#lg1" y1="982.001" y2="256.862"/><linearGradient id="SVGID_5_" gradientUnits="userSpaceOnUse" x1="-171.958" x2="601.813" xlink:href="#lg1" y1="743.833" y2="-29.938"/><linearGradient id="lg2"><stop offset="0" stop-color="#ffb11d"/><stop offset=".2603" stop-color="#ffc315"/><stop offset="1" stop-color="#fff200"/></linearGradient><linearGradient id="SVGID_6_" gradientUnits="userSpaceOnUse" x1="-294.017" x2="326.23" xlink:href="#lg2" y1="801.105" y2="180.858"/><linearGradient id="lg3"><stop offset="0" stop-color="#fffa78" stop-opacity="0"/><stop offset=".3388" stop-color="#fff876" stop-opacity=".048"/><stop offset=".5079" stop-color="#fff16e" stop-opacity=".072"/><stop offset=".5228" stop-color="#fff06d" stop-opacity=".074"/><stop offset=".6063" stop-color="#ffec68" stop-opacity=".201"/><stop offset=".7008" stop-color="#ffdf5b" stop-opacity=".345"/><stop offset=".8005" stop-color="#ffca44" stop-opacity=".497"/><stop offset=".9032" stop-color="#ffae25" stop-opacity=".653"/><stop offset="1" stop-color="#ff8c00" stop-opacity=".8"/></linearGradient><linearGradient id="SVGID_7_" gradientUnits="userSpaceOnUse" x1="256" x2="256" xlink:href="#lg3" y1="409.154" y2="193.503"/><linearGradient id="lg4"><stop offset="0" stop-color="#ff3838"/><stop offset=".9923" stop-color="#fff200"/></linearGradient><linearGradient id="SVGID_8_" gradientUnits="userSpaceOnUse" x1="-67.41" x2="550.865" xlink:href="#lg4" y1="540.059" y2="-78.216"/><linearGradient id="lg5"><stop offset="0" stop-color="#ff3838"/><stop offset="1" stop-color="#fff200"/></linearGradient><linearGradient id="SVGID_9_" gradientUnits="userSpaceOnUse" x1="-29.372" x2="513.245" xlink:href="#lg5" y1="629.14" y2="86.522"/><linearGradient id="SVGID_10_" gradientUnits="userSpaceOnUse" x1="-46.475" x2="351.127" xlink:href="#lg4" y1="473.378" y2="75.777"/><linearGradient id="SVGID_11_" gradientUnits="userSpaceOnUse" x1="-83.905" x2="452.214" xlink:href="#lg5" y1="652.793" y2="116.674"/><linearGradient id="SVGID_12_" gradientUnits="userSpaceOnUse" x1="256" x2="256" y1="322.998" y2="164.123"><stop offset="0" stop-color="#fffa78" stop-opacity="0"/><stop offset=".2364" stop-color="#fff775" stop-opacity=".189"/><stop offset=".4137" stop-color="#ffee6b" stop-opacity=".331"/><stop offset=".5716" stop-color="#ffe05b" stop-opacity=".457"/><stop offset=".7184" stop-color="#ffcb44" stop-opacity=".575"/><stop offset=".8574" stop-color="#ffb027" stop-opacity=".686"/><stop offset=".9888" stop-color="#ff8f03" stop-opacity=".791"/><stop offset="1" stop-color="#ff8c00" stop-opacity=".8"/></linearGradient><linearGradient id="lg6"><stop offset="0" stop-color="#fffa78"/><stop offset="1" stop-color="#fff"/></linearGradient><linearGradient id="SVGID_13_" gradientUnits="userSpaceOnUse" x1="-94.502" x2="657.363" xlink:href="#lg6" y1="414.848" y2="-337.017"/><linearGradient id="SVGID_14_" gradientUnits="userSpaceOnUse" x1="-273.392" x2="401.961" xlink:href="#lg6" y1="826.14" y2="150.787"/><linearGradient id="SVGID_15_" gradientUnits="userSpaceOnUse" x1="-136.922" x2="558.656" xlink:href="#lg6" y1="614.132" y2="-81.445"/><linearGradient id="SVGID_16_" gradientUnits="userSpaceOnUse" x1="1.88" x2="500.032" xlink:href="#lg5" y1="302.606" y2="-195.546"/><linearGradient id="SVGID_17_" gradientUnits="userSpaceOnUse" x1="83.002" x2="469.933" xlink:href="#lg2" y1="422.796" y2="35.865"/><linearGradient id="SVGID_18_" gradientUnits="userSpaceOnUse" x1="256" x2="256" xlink:href="#lg3" y1="379.537" y2="210.839"/><linearGradient id="SVGID_19_" gradientUnits="userSpaceOnUse" x1="162.485" x2="351.128" xlink:href="#lg4" y1="360.008" y2="171.365"/><linearGradient id="SVGID_20_" gradientUnits="userSpaceOnUse" x1="189.781" x2="336.986" xlink:href="#lg5" y1="331.197" y2="183.993"/><linearGradient id="SVGID_21_" gradientUnits="userSpaceOnUse" x1="59.201" x2="466.645" xlink:href="#lg5" y1="371.035" y2="-36.41"/><linearGradient id="SVGID_22_" gradientUnits="userSpaceOnUse" x1="70.015" x2="467.773" xlink:href="#lg5" y1="410.41" y2="12.651"/><linearGradient id="SVGID_23_" gradientUnits="userSpaceOnUse" x1="109.245" x2="336.97" xlink:href="#lg2" y1="416.448" y2="188.722"/><linearGradient id="SVGID_24_" gradientUnits="userSpaceOnUse" x1="82.661" x2="370.062" xlink:href="#lg2" y1="378.472" y2="91.071"/><radialGradient id="SVGID_25_" cx="256" cy="266.5" gradientUnits="userSpaceOnUse" r="30.474"><stop offset="0" stop-color="#ffb11d" stop-opacity="0"/><stop offset="1" stop-color="#ff4747" stop-opacity=".8"/></radialGradient><g><circle cx="256" cy="256" fill="url(#SVGID_1_)" r="256"/><circle cx="256" cy="256" fill="url(#SVGID_2_)" r="256"/><path d="m79.208 236c-.191 46.667.957 93.333 3.446 140 .449 8.277 7.571 15.278 15.846 15.603 25 .959 50 1.69 75 2.193-1.825-65.404-2.439-130.808-1.841-196.212-30.786 12.939-61.653 25.829-92.451 38.416z" fill="url(#SVGID_3_)"/><path d="m386.445 205.546c.748 62.366-.234 124.732-2.945 187.098 10-.311 20-.658 30-1.042 8.275-.325 15.397-7.327 15.846-15.603 2.489-46.667 3.637-93.333 3.446-140-15.414-10.043-30.879-20.211-46.347-30.453z" fill="url(#SVGID_4_)"/><path d="m399.199 377.032c2.496-57.117 3.361-114.233 2.592-171.35-81.848-.766-163.696-.887-245.543-.363-.526 57.631.066 115.262 1.774 172.892.257 8.421 7.202 15.415 15.478 15.584 70 1.407 140 1.023 210-1.151 8.275-.261 15.327-7.268 15.699-15.612z" fill="url(#SVGID_5_)"/><path d="m317.413 281.769c-40.942.141-81.883.141-122.825 0-.1-20.44-.114-40.879-.043-61.319 40.97-.101 81.941-.101 122.911 0 .071 20.44.056 40.879-.043 61.319z" fill="url(#SVGID_6_)"/><path d="m317.413 281.769c-40.942.141-81.883.141-122.825 0-.1-20.44-.114-40.879-.043-61.319 40.97-.101 81.941-.101 122.911 0 .071 20.44.056 40.879-.043 61.319z" fill="url(#SVGID_7_)"/><path d="m110.71 314.036c.362 15.959.852 31.918 1.469 47.877 15.139.413 30.278.761 45.417 1.043 9.382-26.932 19.229-54.024 29.315-81.215-25.528 10.964-50.96 21.78-76.201 32.295z" fill="url(#SVGID_8_)"/><path d="m401.29 314.036c-9.948-10.758-20.008-21.61-30.142-32.533-71.648.463-143.296.494-214.944.093.216 27.12.68 54.241 1.391 81.361 80.742 1.507 161.484 1.16 242.226-1.043.618-15.96 1.107-31.919 1.469-47.878z" fill="url(#SVGID_9_)"/><path d="m110.005 266.159c.107 15.959.342 31.918.704 47.877 15.294.242 30.587.447 45.881.612 10.072-7.941 20.204-15.937 30.375-23.972-10.283-8.134-20.575-16.252-30.857-24.336-15.367-.049-30.735-.11-46.103-.181z" fill="url(#SVGID_10_)"/><path d="m401.995 266.159c-81.962.383-163.924.444-245.886.181.073 16.103.234 32.205.482 48.308 81.567.885 163.133.681 244.7-.612.362-15.959.596-31.918.704-47.877z" fill="url(#SVGID_11_)"/><path d="m79.208 236c-.191 46.667.957 93.333 3.446 140 .449 8.277 7.571 15.278 15.846 15.603 105 4.029 210 4.029 315 0 8.275-.325 15.397-7.327 15.846-15.603 2.489-46.667 3.637-93.333 3.446-140-117.861-.333-235.723-.333-353.584 0z" fill="url(#SVGID_12_)"/><path d="m166 98.362c-7.5.165-15 .35-22.5.555-32.993.996-61.579 29.063-62.831 62.083-.872 25-1.359 50-1.461 75 25.622-.073 51.244-.129 76.866-.17 33.361-22.936 66.845-46.205 99.926-69.267-30.536-23.063-60.698-45.95-90-68.201z" fill="url(#SVGID_13_)"/><path d="m368.5 98.917c-10-.274-20-.512-30-.713 21.28 46.27 42.895 92.311 63.546 137.716 10.249.024 20.498.05 30.746.079-.103-25-.59-50-1.461-75-1.252-33.018-29.838-61.088-62.831-62.082z" fill="url(#SVGID_14_)"/><path d="m338.5 98.204c-59.431 19.18-120.221 40.174-181.6 61.35-.493 25.425-.768 50.851-.826 76.276 12.811-.021 25.622-.037 38.433-.05 20.505-5.13 41.008-10.28 61.493-15.405 20.485 5.125 40.988 10.275 61.493 15.405 28.184.028 56.369.075 84.553.14-.085-25.198-.487-50.397-1.207-75.595-1.054-33.302-29.344-61.387-62.339-62.121z" fill="url(#SVGID_15_)"/><path d="m173.5 98.204c-32.995.735-61.285 28.819-62.338 62.121-.432 15.119-.75 30.238-.953 45.357 15.346-.144 30.693-.265 46.039-.363 20.787-35.726 41.799-71.757 62.252-107.773-15 .138-30 .357-45 .658z" fill="url(#SVGID_16_)"/><path d="m225.272 220.394c-.027 15.363-.029 30.727-.008 46.091.031 16.964 13.814 30.763 30.736 30.765 16.921-.002 30.704-13.801 30.736-30.765.021-15.364.019-30.728-.008-46.091-20.485-.025-40.971-.025-61.456 0z" fill="url(#SVGID_17_)"/><path d="m225.272 220.394c-.027 15.363-.029 30.727-.008 46.091.031 16.964 13.814 30.763 30.736 30.765 16.921-.002 30.704-13.801 30.736-30.765.021-15.364.019-30.728-.008-46.091-20.485-.025-40.971-.025-61.456 0z" fill="url(#SVGID_18_)"/><path d="m271.368 266.496c-.007 8.488-6.891 15.378-15.368 15.379-8.477-.001-15.36-6.889-15.368-15.379-.007-8.489 6.877-15.37 15.368-15.371s15.374 6.882 15.368 15.371z" fill="url(#SVGID_19_)"/><path d="m256 258.813c7.16 0 13.159 4.902 14.861 11.527.318-1.23.505-2.514.507-3.843.007-8.489-6.877-15.37-15.368-15.371s-15.375 6.882-15.368 15.371c.001 1.33.188 2.613.507 3.843 1.702-6.626 7.701-11.528 14.861-11.527z" fill="url(#SVGID_20_)"/><path d="m256 97.375c-12.5 0-25 .057-37.5.171-32.999.343-60.845 28.377-61.6 62.008-.296 15.255-.513 30.51-.652 45.766 12.789-.082 25.577-.148 38.366-.198 20.433 5.029 40.901 10.129 61.386 15.254 20.485-5.125 40.952-10.225 61.386-15.254 15.346.061 30.693.144 46.039.25-36.158-35.799-72.425-72.122-107.425-107.997z" fill="url(#SVGID_21_)"/><path d="m338.5 98.204c-27.5-.553-55-.829-82.5-.829-.213 59.483 47.955 107.653 107.425 107.995 12.789.088 25.577.192 38.366.312-.203-15.119-.521-30.238-.953-45.357-1.053-33.302-29.343-61.387-62.338-62.121z" fill="url(#SVGID_22_)"/><path d="m317.386 205.121c-10.231-.04-20.462-.071-30.693-.091.029 10.243.046 20.485.053 30.727 10.249.005 20.498.012 30.746.023 8.491.006 15.365-6.838 15.326-15.287-.038-8.448-6.959-15.337-15.432-15.372z" fill="url(#SVGID_23_)"/><path d="m302.092 220.418c-.024-8.476-6.926-15.369-15.399-15.387-30.693-.061-61.386-.03-92.079.091-8.473.035-15.395 6.923-15.433 15.372s6.836 15.293 15.326 15.287c30.746-.03 61.493-.038 92.239-.023 8.491.003 15.369-6.865 15.346-15.34z" fill="url(#SVGID_24_)"/><path d="m271.368 266.496c-.007 8.488-6.891 15.378-15.368 15.379-8.477-.001-15.36-6.889-15.368-15.379-.007-8.489 6.877-15.37 15.368-15.371s15.374 6.882 15.368 15.371z" fill="url(#SVGID_25_)"/></g></svg>