<svg id="Capa_1" enable-background="new 0 0 512 512" height="512" viewBox="0 0 512 512" width="512" xmlns="http://www.w3.org/2000/svg" xmlns:xlink="http://www.w3.org/1999/xlink"><linearGradient id="SVGID_1_" gradientUnits="userSpaceOnUse" x1="74.98" x2="437.019" y1="437.019" y2="74.981"><stop offset="0" stop-color="#00aa45"/><stop offset="1" stop-color="#d3ff33"/></linearGradient><radialGradient id="SVGID_2_" cx="-9159.445" cy="-5179.924" gradientTransform="matrix(1 0 0 1.216 9415.445 6555.045)" gradientUnits="userSpaceOnUse" r="266.234"><stop offset="0" stop-color="#00aa45"/><stop offset=".0077" stop-color="#04ab46" stop-opacity=".992"/><stop offset=".1151" stop-color="#38bf53" stop-opacity=".885"/><stop offset=".227" stop-color="#67d05f" stop-opacity=".773"/><stop offset=".3413" stop-color="#8ede69" stop-opacity=".659"/><stop offset=".4584" stop-color="#aeea71" stop-opacity=".542"/><stop offset=".5792" stop-color="#c7f377" stop-opacity=".421"/><stop offset=".7055" stop-color="#d8f97c" stop-opacity=".295"/><stop offset=".8406" stop-color="#e3fd7e" stop-opacity=".159"/><stop offset="1" stop-color="#e6fe7f" stop-opacity="0"/></radialGradient><linearGradient id="SVGID_3_" gradientUnits="userSpaceOnUse" x1="190.934" x2="513.773" y1="477.7" y2="154.861"><stop offset="0" stop-color="#008547"/><stop offset=".1201" stop-color="#128f45"/><stop offset=".3614" stop-color="#41aa41"/><stop offset=".6981" stop-color="#8cd63a"/><stop offset=".9908" stop-color="#d3ff33"/></linearGradient><linearGradient id="lg1"><stop offset="0" stop-color="#95e12e"/><stop offset=".5" stop-color="#ddff59"/><stop offset="1" stop-color="#e6fe7f"/></linearGradient><linearGradient id="SVGID_4_" gradientUnits="userSpaceOnUse" x1="54.476" x2="437.092" xlink:href="#lg1" y1="426.741" y2="44.125"/><linearGradient id="SVGID_5_" gradientUnits="userSpaceOnUse" x1="19.697" x2="402.312" xlink:href="#lg1" y1="515.042" y2="132.427"/><linearGradient id="lg2"><stop offset="0" stop-color="#95e12e"/><stop offset=".8" stop-color="#ddff59"/><stop offset="1" stop-color="#e6fe7f"/></linearGradient><linearGradient id="SVGID_6_" gradientUnits="userSpaceOnUse" x1="234.356" x2="360.652" xlink:href="#lg2" y1="377.569" y2="251.274"/><linearGradient id="lg3"><stop offset="0" stop-color="#ddff59"/><stop offset="1" stop-color="#fff"/></linearGradient><linearGradient id="SVGID_7_" gradientUnits="userSpaceOnUse" x1="37.952" x2="342.064" xlink:href="#lg3" y1="365.236" y2="61.124"/><linearGradient id="SVGID_8_" gradientUnits="userSpaceOnUse" x1="-157.436" x2="325.801" xlink:href="#lg3" y1="597.064" y2="113.827"/><linearGradient id="SVGID_9_" gradientUnits="userSpaceOnUse" x1="187.309" x2="337.912" xlink:href="#lg2" y1="265.715" y2="115.113"/><linearGradient id="SVGID_10_" gradientUnits="userSpaceOnUse" x1="132.751" x2="399.197" xlink:href="#lg2" y1="355.746" y2="89.3"/><linearGradient id="SVGID_11_" gradientUnits="userSpaceOnUse" x1="-83.043" x2="264.125" y1="436.55" y2="89.382"><stop offset="0" stop-color="#95e12e"/><stop offset="1" stop-color="#ddff59"/></linearGradient><linearGradient id="SVGID_12_" gradientUnits="userSpaceOnUse" x1="78.283" x2="560.799" xlink:href="#lg3" y1="306.076" y2="-176.439"/><linearGradient id="SVGID_13_" gradientUnits="userSpaceOnUse" x1="170.04" x2="423.024" xlink:href="#lg2" y1="214.252" y2="-38.733"/><linearGradient id="SVGID_14_" gradientUnits="userSpaceOnUse" x1="237.309" x2="435.776" xlink:href="#lg2" y1="146.998" y2="-51.468"/><g><circle cx="256" cy="256" fill="url(#SVGID_1_)" r="256"/><circle cx="256" cy="256" fill="url(#SVGID_2_)" r="256"/><path d="m210.092 371.226c.096 25.606.226 51.211.386 76.817.056 8.485 6.882 15.412 15.241 15.45 20.187.093 40.374.093 60.562 0 8.358-.038 15.184-6.967 15.241-15.45.161-25.606.29-51.211.386-76.817-30.605.115-61.21.115-91.816 0z" fill="url(#SVGID_3_)"/><path d="m179.59 125.586c-.729 102.286-.601 204.571.386 306.856.084 8.471 6.952 15.416 15.328 15.488 15.174.129 30.348.209 45.521.241 4.78-133.228 10.128-266.483 15.175-399.733-41.714.013-76.034 34.823-76.41 77.148z" fill="url(#SVGID_4_)"/><path d="m256 48.438c-16.685.002-30.413 34.483-30.564 76.919-.292 102.466-.24 204.931.155 307.397.036 8.488 6.858 15.401 15.236 15.418 25.29.054 50.579-.027 75.869-.241 8.378-.072 15.243-7.016 15.328-15.488.987-102.286 1.116-204.571.386-306.856-.378-42.326-34.696-77.136-76.41-77.149z" fill="url(#SVGID_5_)"/><path d="m271.321 355.929c.013-8.49-6.852-15.366-15.321-15.367-8.472.001-15.33 6.876-15.321 15.367.011 8.491 6.871 15.383 15.321 15.383 8.449 0 15.31-6.893 15.321-15.383z" fill="url(#SVGID_6_)"/><path d="m194.872 125.488c-.204 35.827-.324 71.654-.361 107.481-.024 22.725 12.37 42.562 30.749 53.211l35.299-106.655-24.421-112.302c-23.783 8.406-41.098 31.394-41.266 58.265z" fill="url(#SVGID_7_)"/><path d="m256 63.813c-6.955 0-13.629 1.211-19.862 3.41-6.463 14.112-10.635 34.921-10.702 58.133-.153 53.608-.211 107.215-.176 160.823 9.049 5.241 19.54 8.258 30.74 8.258 33.937-.01 61.52-27.569 61.489-61.469-.036-35.827-.156-71.654-.361-107.481-.239-33.897-27.662-61.667-61.128-61.674z" fill="url(#SVGID_8_)"/><path d="m226.14 217.616c-2.931.009-5.862.02-8.794.032-4.213.017-7.646 3.473-7.665 7.716-.024 5.121-.046 10.242-.067 15.363-.019 4.243 3.395 7.668 7.621 7.654 2.72-.009 5.441-.017 8.161-.023 5.113-4.966 10.221-9.929 15.322-14.89-4.867-5.289-9.727-10.573-14.578-15.852z" fill="url(#SVGID_9_)"/><path d="m293.636 217.644c-5.086-.02-10.172-.036-15.258-.048-4.212-.01-7.637-3.456-7.641-7.702-.008-5.125-.017-10.249-.026-15.374-.008-4.245-3.418-7.693-7.616-7.698-5.068-.005-10.135-.004-15.204.001-4.198.005-7.608 3.454-7.617 7.698-.01 5.125-.019 10.249-.028 15.374-.005 4.245-3.429 7.692-7.642 7.703-2.154.005-4.309.011-6.464.018-.445 5.127-.689 10.439-.704 15.884-.014 4.952-.027 9.905-.04 14.858 2.38-.006 4.76-.011 7.141-.016 4.226-.007 7.646 3.43 7.641 7.674-.006 5.125-.012 10.249-.017 15.374-.005 4.245 3.427 7.683 7.66 7.681 5.112-.003 10.224-.003 15.335 0 4.235.002 7.665-3.437 7.661-7.682-.005-5.125-.01-10.249-.016-15.374-.006-4.245 3.417-7.682 7.642-7.675 5.101.01 10.201.022 15.302.038 4.226.012 7.639-3.414 7.621-7.655-.021-5.121-.042-10.243-.065-15.364-.019-4.243-3.453-7.698-7.665-7.715z" fill="url(#SVGID_10_)"/><path d="m209.884 128.296c-.012 13.647 5.931 25.903 15.368 34.35 10.247-11.451 20.5-22.91 30.749-34.367-10.248-11.457-20.49-22.911-30.714-34.352-9.434 8.456-15.393 20.723-15.403 34.369z" fill="url(#SVGID_11_)"/><path d="m256 82.154c-11.795-.001-22.552 4.46-30.714 11.773-.029 22.906-.04 45.812-.034 68.719 8.162 7.306 18.934 11.758 30.749 11.758 25.463-.004 46.137-20.661 46.116-46.108-.028-25.445-20.698-46.138-46.117-46.142z" fill="url(#SVGID_12_)"/><path d="m286.744 128.287c-.012-16.975-13.782-30.757-30.744-30.758-16.961.001-30.732 13.783-30.744 30.758-.008 16.974 13.761 30.741 30.744 30.742 16.983-.001 30.753-13.767 30.744-30.742z" fill="url(#SVGID_13_)"/><path d="m263.687 143.654c-16.983-.002-30.749-13.764-30.738-30.743 0-1.883.182-3.722.506-5.511-5.081 5.487-8.196 12.824-8.2 20.887-.008 16.974 13.761 30.741 30.744 30.742 15.099 0 27.651-10.889 30.244-25.232-5.613 6.058-13.638 9.858-22.556 9.857z" fill="url(#SVGID_14_)"/></g></svg>