<svg id="Capa_1" enable-background="new 0 0 512 512" height="512" viewBox="0 0 512 512" width="512" xmlns="http://www.w3.org/2000/svg" xmlns:xlink="http://www.w3.org/1999/xlink"><linearGradient id="SVGID_1_" gradientUnits="userSpaceOnUse" x1="74.98" x2="437.019" y1="437.019" y2="74.98"><stop offset="0" stop-color="#ff4747"/><stop offset="1" stop-color="#fff200"/></linearGradient><radialGradient id="SVGID_2_" cx="256" cy="256" gradientUnits="userSpaceOnUse" r="256"><stop offset="0" stop-color="#ff4747" stop-opacity=".8"/><stop offset="1" stop-color="#fffa78" stop-opacity="0"/></radialGradient><linearGradient id="lg1"><stop offset="0" stop-color="#ffcb00"/><stop offset=".5" stop-color="#fff200"/><stop offset=".6048" stop-color="#fff52f"/><stop offset=".8789" stop-color="#fefca6"/><stop offset="1" stop-color="#feffd6"/></linearGradient><linearGradient id="SVGID_3_" gradientUnits="userSpaceOnUse" x1="-34.214" x2="1009.466" xlink:href="#lg1" y1="320.855" y2="-722.825"/><linearGradient id="SVGID_4_" gradientUnits="userSpaceOnUse" x1="-17.419" x2="272.655" xlink:href="#lg1" y1="236.957" y2="-53.117"/><linearGradient id="SVGID_5_" gradientUnits="userSpaceOnUse" x1="-327.058" x2="520.035" xlink:href="#lg1" y1="855.346" y2="8.253"/><linearGradient id="SVGID_6_" gradientUnits="userSpaceOnUse" x1="-1131.082" x2="2377.033" xlink:href="#lg1" y1="1536.942" y2="-1971.173"/><linearGradient id="SVGID_7_" gradientUnits="userSpaceOnUse" x1="-294.12" x2="807.596" xlink:href="#lg1" y1="882.585" y2="-219.131"/><linearGradient id="lg2"><stop offset="0" stop-color="#ff3838"/><stop offset="1" stop-color="#fff200"/></linearGradient><linearGradient id="SVGID_8_" gradientUnits="userSpaceOnUse" x1="-348.127" x2="450.719" xlink:href="#lg2" y1="937.233" y2="138.386"/><radialGradient id="SVGID_9_" cx="256" cy="334.087" gradientUnits="userSpaceOnUse" r="142.43"><stop offset="0" stop-color="#ffcb00" stop-opacity="0"/><stop offset=".1914" stop-color="#ffc801" stop-opacity=".153"/><stop offset=".3556" stop-color="#ffbd05" stop-opacity=".285"/><stop offset=".5096" stop-color="#ffab0c" stop-opacity=".408"/><stop offset=".6576" stop-color="#ff9216" stop-opacity=".526"/><stop offset=".8012" stop-color="#ff7222" stop-opacity=".641"/><stop offset=".9396" stop-color="#ff4c31" stop-opacity=".752"/><stop offset="1" stop-color="#ff3838" stop-opacity=".8"/></radialGradient><linearGradient id="SVGID_10_" gradientUnits="userSpaceOnUse" x1="-956.281" x2="466.055" xlink:href="#lg1" y1="1545.646" y2="123.311"/><linearGradient id="SVGID_11_" gradientUnits="userSpaceOnUse" x1="-320.547" x2="865.851" xlink:href="#lg1" y1="910.133" y2="-276.265"/><linearGradient id="SVGID_12_" gradientUnits="userSpaceOnUse" x1="141.952" x2="634.249" xlink:href="#lg2" y1="259.366" y2="-232.93"/><linearGradient id="SVGID_13_" gradientUnits="userSpaceOnUse" x1="73.268" x2="562.817" xlink:href="#lg2" y1="281.599" y2="-207.951"/><linearGradient id="SVGID_14_" gradientUnits="userSpaceOnUse" x1="-51.437" x2="849.971" xlink:href="#lg1" y1="641.252" y2="-260.157"/><linearGradient id="lg3"><stop offset="0" stop-color="#fffa78"/><stop offset="1" stop-color="#fff"/></linearGradient><linearGradient id="SVGID_15_" gradientUnits="userSpaceOnUse" x1="116.5" x2="972.975" xlink:href="#lg3" y1="289.565" y2="-566.91"/><linearGradient id="SVGID_16_" gradientUnits="userSpaceOnUse" x1="-386.529" x2="465.622" xlink:href="#lg3" y1="727.181" y2="-124.97"/><linearGradient id="SVGID_17_" gradientUnits="userSpaceOnUse" x1="-101.781" x2="534.546" xlink:href="#lg2" y1="506.819" y2="-129.508"/><linearGradient id="SVGID_18_" gradientUnits="userSpaceOnUse" x1="-167.964" x2="466.73" xlink:href="#lg2" y1="504.786" y2="-129.908"/><linearGradient id="SVGID_19_" gradientUnits="userSpaceOnUse" x1="20.403" x2="306.472" xlink:href="#lg2" y1="533.787" y2="247.719"/><linearGradient id="SVGID_20_" gradientTransform="matrix(0 -1 1 0 -6 558)" gradientUnits="userSpaceOnUse" x1="-.041" x2="287.263" xlink:href="#lg2" y1=".473" y2="287.777"/><linearGradient id="SVGID_21_" gradientTransform="matrix(0 -1 1 0 -6 558)" gradientUnits="userSpaceOnUse" x1="-10.634" x2="274.327" xlink:href="#lg2" y1="-8.423" y2="276.538"/><linearGradient id="SVGID_22_" gradientUnits="userSpaceOnUse" x1="40.64" x2="325.842" xlink:href="#lg2" y1="585.788" y2="300.586"/><linearGradient id="SVGID_23_" gradientTransform="matrix(-1 0 0 -1 552 564)" gradientUnits="userSpaceOnUse" x1="530.239" x2="245.788" xlink:href="#lg2" y1="-40.145" y2="244.306"/><linearGradient id="SVGID_24_" gradientTransform="matrix(0 1 -1 0 558 6)" gradientUnits="userSpaceOnUse" x1="564.569" x2="277.253" xlink:href="#lg2" y1="502.885" y2="215.569"/><g><circle cx="256" cy="256" fill="url(#SVGID_1_)" r="256"/><circle cx="256" cy="256" fill="url(#SVGID_2_)" r="256"/><path d="m134.539 90.592c-16.754.718-30.69 14.873-31.032 31.408-.298 15-.543 30-.735 45-.219 16.538 13.431 29.734 30.395 29.536 10.236-.137 20.472-.258 30.708-.36-10.066-35.457-19.903-70.687-29.336-105.584z" fill="url(#SVGID_3_)"/><path d="m134.848 75.457c-.108 5.045-.211 10.09-.309 15.135 1.265-.052 2.53-.104 3.796-.154-1.17-5-2.333-9.994-3.487-14.981z" fill="url(#SVGID_4_)"/><path d="m377.461 90.592c-9.433 34.898-19.27 70.128-29.336 105.584 10.236.103 20.472.223 30.708.36 16.963.199 30.614-12.998 30.395-29.536-.192-15-.437-30-.735-45-.342-16.534-14.279-30.691-31.032-31.408z" fill="url(#SVGID_5_)"/><path d="m378.583 166.266c-10.471-25.442-20.996-51.057-31.487-76.771-60.731-1.878-121.461-1.878-182.191 0-10.491 25.713-21.016 51.328-31.487 76.771-.177 16.693 13.494 30.056 30.458 29.91 61.417-.618 122.833-.618 184.25 0 16.963.148 30.633-13.216 30.457-29.91z" fill="url(#SVGID_6_)"/><path d="m393.882 332.397c-1.192 74.238-63.792 139.781-137.882 140.065-74.09-.285-136.69-65.828-137.882-140.066-.898-74.298 61.702-136.342 137.882-136.684 76.18.343 138.78 62.385 137.882 136.685z" fill="url(#SVGID_7_)"/><path d="m363.242 333.065c-.702 58.409-49.124 108.518-107.242 108.647-58.118-.13-106.54-50.238-107.242-108.648-.562-58.444 47.859-106.437 107.242-106.602 59.383.165 107.805 48.159 107.242 106.603z" fill="url(#SVGID_8_)"/><path d="m363.242 333.065c-.702 58.409-49.124 108.518-107.242 108.647-58.118-.13-106.54-50.238-107.242-108.648-.562-58.444 47.859-106.437 107.242-106.602 59.383.165 107.805 48.159 107.242 106.603z" fill="url(#SVGID_9_)"/><path d="m347.921 333.336c-.508 50.298-41.92 92.92-91.921 93.001-50.001-.081-91.413-42.703-91.921-93.001-.421-50.323 40.991-91.393 91.921-91.499 50.931.106 92.342 41.175 91.921 91.499z" fill="url(#SVGID_10_)"/><path d="m332.601 333.566c-.348 42.079-34.792 77.353-76.601 77.397-41.809-.045-76.253-35.318-76.601-77.397-.297-42.097 34.147-76.292 76.601-76.353 42.454.061 76.898 34.256 76.601 76.353z" fill="url(#SVGID_11_)"/><path d="m133.89 128.429c-.15 10.09-.28 20.18-.392 30.27-.047 4.178 3.349 7.494 7.581 7.41 17.877-.357 35.753-.63 53.63-.82 20.453-4.635 40.885-9.195 61.291-13.629 20.406 4.434 40.839 8.995 61.291 13.629 17.877.19 35.753.464 53.63.82 4.232.084 7.628-3.232 7.581-7.41-.112-10.09-.243-20.18-.392-30.27-81.407-2.539-162.813-2.539-244.22 0z" fill="url(#SVGID_12_)"/><path d="m369.149 57.859c-16.621-10.243-34.402-18.493-53.04-24.214-40.072-1.122-80.145-1.122-120.217 0-18.638 5.722-36.42 13.971-53.04 24.214-4.761 2.937-7.795 8.088-7.915 13.523-.416 19.016-.765 38.031-1.046 57.047-.063 4.178 3.311 7.465 7.53 7.352 76.387-2.091 152.773-2.091 229.16 0 4.219.114 7.593-3.174 7.53-7.352-.282-19.016-.631-38.031-1.046-57.047-.121-5.434-3.155-10.586-7.916-13.523z" fill="url(#SVGID_13_)"/><path d="m271.245 380.18c-42.015.149-76.458-34.861-76.655-77.057-.02-6.229.727-12.269 2.122-18.061-10.93 13.195-17.435 30.048-17.313 48.503.348 42.079 34.792 77.353 76.601 77.397 35.682-.007 65.893-25.742 74.311-59.331-14.165 17.214-35.392 28.454-59.066 28.549z" fill="url(#SVGID_14_)"/><path d="m194.709 165.288c10.215-.109 20.43-.19 30.646-.244 10.226-4.484 20.442-8.951 30.646-13.385 10.203 4.434 20.419 8.9 30.646 13.385 10.215.054 20.43.136 30.646.244-.051-10.21-.112-20.42-.182-30.63-20.44-10.507-40.819-20.946-61.109-31.196-20.29 10.25-40.67 20.689-61.109 31.196-.072 10.211-.133 20.42-.184 30.63z" fill="url(#SVGID_15_)"/><path d="m286.013 26.78c-20.009-.289-40.018-.289-60.027 0-10.246 1.538-20.29 3.853-30.095 6.864-.436 33.671-.77 67.343-1.001 101.014 40.74-.595 81.479-.595 122.219 0-.231-33.671-.565-67.343-1.001-101.014-9.805-3.011-19.848-5.325-30.095-6.864z" fill="url(#SVGID_16_)"/><path d="m225.354 165.044c20.43-.109 40.861-.109 61.291 0-.026-10.24-.056-20.48-.091-30.72-10.58-10.317-21.128-20.615-31.63-30.861-9.788 10.254-19.619 20.55-29.479 30.861-.035 10.24-.065 20.48-.091 30.72z" fill="url(#SVGID_17_)"/><path d="m256 24.537c-10.171 0-20.185.768-30.013 2.243-.238 35.848-.419 71.696-.541 107.544 20.37-.149 40.74-.149 61.109 0-.123-35.848-.303-71.696-.541-107.544-9.829-1.475-19.843-2.243-30.014-2.243z" fill="url(#SVGID_18_)"/><path d="m252.377 274.088c-6.832 6.834-13.66 13.662-20.481 20.477-3.222 3.218-.93 8.743 3.629 8.753 13.65.031 27.299.031 40.949 0 4.559-.01 6.851-5.534 3.629-8.753-6.82-6.815-13.649-13.644-20.481-20.477-2-2-5.244-2-7.245 0z" fill="url(#SVGID_19_)"/><path d="m198.717 327.654c-.84.836-1.68 1.671-2.52 2.505-1.985 1.974-1.968 5.204.036 7.221 6.844 6.885 13.68 13.774 20.504 20.659.743.752 1.607 1.194 2.495 1.401-6.824-10.6-13.666-21.2-20.515-31.786z" fill="url(#SVGID_20_)"/><path d="m225.423 354.489c-.043-13.657-.078-27.313-.105-40.969-.008-4.561-5.524-6.865-8.74-3.659-5.963 5.949-11.918 11.882-17.862 17.794 4.168 12.222 11.3 23.117 20.515 31.787 2.963.683 6.203-1.443 6.192-4.953z" fill="url(#SVGID_21_)"/><path d="m230.771 368.414c-.5 1.676-.177 3.618 1.284 5.093 6.803 6.873 13.59 13.736 20.358 20.578 1.982 2.004 5.191 2.004 7.173 0 4.589-4.639 9.188-9.289 13.794-13.944-14.182-3.827-28.386-7.744-42.609-11.727z" fill="url(#SVGID_22_)"/><path d="m276.37 364.782c-13.58.067-27.16.067-40.739 0-2.473-.01-4.26 1.62-4.859 3.632 11.763 7.486 25.616 11.832 40.474 11.766.714-.003 1.426-.015 2.135-.04 2.186-2.21 4.375-4.421 6.564-6.634 3.214-3.247.962-8.745-3.575-8.724z" fill="url(#SVGID_23_)"/><path d="m315.803 330.159c-6.78-6.74-13.575-13.51-20.381-20.299-3.215-3.209-8.732-.902-8.74 3.659-.027 13.656-.062 27.313-.105 40.969-.013 4.564 5.463 6.802 8.686 3.551 6.824-6.885 13.66-13.774 20.504-20.659 2.004-2.016 2.021-5.246.036-7.221z" fill="url(#SVGID_24_)"/></g></svg>