<svg id="Capa_1" enable-background="new 0 0 512 512" height="512" viewBox="0 0 512 512" width="512" xmlns="http://www.w3.org/2000/svg" xmlns:xlink="http://www.w3.org/1999/xlink"><linearGradient id="SVGID_1_" gradientUnits="userSpaceOnUse" x1="74.98" x2="437.019" y1="437.019" y2="74.98"><stop offset="0" stop-color="#ff4747"/><stop offset="1" stop-color="#fff200"/></linearGradient><radialGradient id="SVGID_2_" cx="256" cy="256" gradientUnits="userSpaceOnUse" r="256"><stop offset="0" stop-color="#ff4747" stop-opacity=".8"/><stop offset="1" stop-color="#fffa78" stop-opacity="0"/></radialGradient><linearGradient id="lg1"><stop offset="0" stop-color="#fffa78"/><stop offset="1" stop-color="#fff"/></linearGradient><linearGradient id="SVGID_3_" gradientUnits="userSpaceOnUse" x1="-159.126" x2="469.771" xlink:href="#lg1" y1="811.82" y2="182.923"/><linearGradient id="SVGID_4_" gradientUnits="userSpaceOnUse" x1="-6.375" x2="658.098" xlink:href="#lg1" y1="360.415" y2="-304.058"/><linearGradient id="SVGID_5_" gradientUnits="userSpaceOnUse" x1="-83.876" x2="578.52" xlink:href="#lg1" y1="594.876" y2="-67.52"/><linearGradient id="lg2"><stop offset="0" stop-color="#ffcb00"/><stop offset="1" stop-color="#fffa78"/></linearGradient><linearGradient id="SVGID_6_" gradientUnits="userSpaceOnUse" x1="-68.541" x2="323.158" xlink:href="#lg2" y1="693.61" y2="301.911"/><linearGradient id="SVGID_7_" gradientUnits="userSpaceOnUse" x1="126.09" x2="423.632" xlink:href="#lg2" y1="546.724" y2="249.182"/><linearGradient id="SVGID_8_" gradientUnits="userSpaceOnUse" x1="-171.056" x2="345.533" xlink:href="#lg2" y1="667.078" y2="150.49"/><linearGradient id="lg3"><stop offset="0" stop-color="#ffcb00"/><stop offset=".5" stop-color="#fffa78"/><stop offset="1" stop-color="#feffd6"/></linearGradient><linearGradient id="SVGID_9_" gradientUnits="userSpaceOnUse" x1="380.728" x2="529.63" xlink:href="#lg3" y1="292.266" y2="143.365"/><linearGradient id="SVGID_10_" gradientUnits="userSpaceOnUse" x1="376.91" x2="452.365" xlink:href="#lg3" y1="347.929" y2="272.474"/><linearGradient id="lg4"><stop offset="0" stop-color="#ff3838"/><stop offset="1" stop-color="#fff200"/></linearGradient><linearGradient id="SVGID_11_" gradientUnits="userSpaceOnUse" x1="314.05" x2="389.249" xlink:href="#lg4" y1="380.729" y2="305.53"/><linearGradient id="SVGID_12_" gradientUnits="userSpaceOnUse" x1="-123.26" x2="169.632" xlink:href="#lg2" y1="517.94" y2="225.049"/><linearGradient id="SVGID_13_" gradientUnits="userSpaceOnUse" x1="98.683" x2="245.259" xlink:href="#lg3" y1="295.883" y2="149.307"/><linearGradient id="SVGID_14_" gradientUnits="userSpaceOnUse" x1="110.87" x2="183.04" xlink:href="#lg4" y1="368.985" y2="296.815"/><linearGradient id="SVGID_15_" gradientUnits="userSpaceOnUse" x1="102.281" x2="173.852" xlink:href="#lg3" y1="346.806" y2="275.235"/><linearGradient id="SVGID_16_" gradientUnits="userSpaceOnUse" x1="320.817" x2="472.874" xlink:href="#lg4" y1="275.568" y2="123.512"/><linearGradient id="SVGID_17_" gradientUnits="userSpaceOnUse" x1="344.557" x2="465.241" xlink:href="#lg4" y1="251.857" y2="131.173"/><linearGradient id="SVGID_18_" gradientUnits="userSpaceOnUse" x1="50.573" x2="208.338" xlink:href="#lg4" y1="268.891" y2="111.126"/><linearGradient id="SVGID_19_" gradientUnits="userSpaceOnUse" x1="76.153" x2="199.345" xlink:href="#lg4" y1="243.317" y2="120.126"/><linearGradient id="SVGID_20_" gradientUnits="userSpaceOnUse" x1="93.221" x2="403.687" xlink:href="#lg4" y1="378.345" y2="67.879"/><linearGradient id="SVGID_21_" gradientUnits="userSpaceOnUse" x1="82.979" x2="411.612" xlink:href="#lg4" y1="443.309" y2="114.676"/><linearGradient id="SVGID_22_" gradientUnits="userSpaceOnUse" x1="167.689" x2="483.466" xlink:href="#lg4" y1="254.35" y2="-61.428"/><linearGradient id="SVGID_23_" gradientUnits="userSpaceOnUse" x1="166.967" x2="509.505" xlink:href="#lg4" y1="320.187" y2="-22.35"/><linearGradient id="SVGID_24_" gradientUnits="userSpaceOnUse" x1="167.92" x2="472.67" xlink:href="#lg4" y1="343.139" y2="38.389"/><g><circle cx="256" cy="256" fill="url(#SVGID_1_)" r="256"/><circle cx="256" cy="256" fill="url(#SVGID_2_)" r="256"/><path d="m422 141.705c-20-.486-40-.885-60-1.195 3.533 76.326 3.533 152.654 0 228.98 20-.311 40-.709 60-1.195 16.52-.424 31.175-14.252 32.265-30.795 3.513-55 3.513-110 0-165-1.09-16.544-15.744-30.37-32.265-30.795z" fill="url(#SVGID_3_)"/><path d="m90 141.705c-16.521.424-31.175 14.252-32.265 30.795-3.513 55-3.513 110 0 165 1.09 16.542 15.744 30.373 32.265 30.795 10 .243 20 .464 30 .664-4.533-75.972-4.533-151.945 0-227.917-10 .199-20 .42-30 .663z" fill="url(#SVGID_4_)"/><path d="m392 141.042c-90.667-1.805-181.333-1.805-272 0-16.521.35-30.989 14.21-31.918 30.875-2.976 55.389-2.976 110.777 0 166.166.929 16.666 15.397 30.527 31.918 30.875 15 .299 30 .548 45 .748 29.929-9.792 60.316-19.894 91-30.144 30.684 10.25 61.071 20.352 91 30.144 15-.2 30-.449 45-.748 16.522-.349 30.99-14.211 31.918-30.875 2.976-55.389 2.976-110.777 0-166.166-.928-16.664-15.396-30.53-31.918-30.875z" fill="url(#SVGID_5_)"/><path d="m296.423 324.118c-26.949.093-53.898.093-80.847 0-4.042-.015-7.901 1.587-10.715 4.454-13.542 13.788-26.873 27.514-39.861 41.135 60.667.808 121.333.808 182 0-12.988-13.621-26.319-27.347-39.861-41.135-2.814-2.866-6.673-4.468-10.716-4.454z" fill="url(#SVGID_6_)"/><path d="m395.385 247.403c-16.953-.034-30.683 13.647-30.841 30.495-.137 16.845 13.267 30.451 30.116 30.282 16.841-.171 31.07-13.883 31.324-30.521.25-16.638-13.653-30.215-30.599-30.256z" fill="url(#SVGID_7_)"/><path d="m162.978 293.236c-.472-35.687-.283-71.373.566-107.06.207-8.443 7.206-15.357 15.578-15.428 51.252-.413 102.504-.413 153.756 0 8.372.071 15.371 6.984 15.578 15.428.849 35.687 1.038 71.373.566 107.06-.115 8.444-7.095 15.333-15.536 15.38-51.657.263-103.315.263-154.972 0-8.441-.046-15.421-6.937-15.536-15.38z" fill="url(#SVGID_8_)"/><path d="m410.624 277.729c-.113 8.362-7.138 15.198-15.602 15.258-8.466.059-15.204-6.722-15.118-15.138.089-8.416 6.989-15.243 15.481-15.251 8.49-.007 15.352 6.766 15.239 15.131z" fill="url(#SVGID_9_)"/><path d="m401.493 330.87c-.177 4.188-3.734 7.639-7.921 7.699-4.188.061-7.442-3.299-7.287-7.5.156-4.202 3.681-7.645 7.891-7.694 4.209-.048 7.496 3.306 7.317 7.495z" fill="url(#SVGID_10_)"/><path d="m371.076 331.246c-.141 4.208-3.664 7.665-7.852 7.713-4.188.049-7.476-3.337-7.357-7.558.119-4.22 3.618-7.671 7.828-7.708 4.211-.037 7.522 3.345 7.381 7.553z" fill="url(#SVGID_11_)"/><path d="m116.615 247.403c-16.945.04-30.85 13.618-30.599 30.256.254 16.637 14.484 30.349 31.324 30.521 16.849.169 30.253-13.436 30.116-30.282-.158-16.846-13.887-30.531-30.841-30.495z" fill="url(#SVGID_12_)"/><path d="m132.096 277.848c.085 8.417-6.652 15.196-15.118 15.138-8.464-.059-15.489-6.893-15.602-15.258-.114-8.364 6.749-15.138 15.239-15.132 8.492.009 15.392 6.837 15.481 15.252z" fill="url(#SVGID_13_)"/><path d="m156.132 331.402c.119 4.22-3.169 7.604-7.357 7.558-4.188-.049-7.711-3.504-7.852-7.713s3.171-7.59 7.38-7.552c4.211.036 7.709 3.484 7.829 7.707z" fill="url(#SVGID_14_)"/><path d="m125.715 331.069c.156 4.202-3.098 7.562-7.287 7.5-4.188-.062-7.744-3.51-7.922-7.699-.178-4.188 3.107-7.542 7.317-7.495 4.211.049 7.736 3.492 7.892 7.694z" fill="url(#SVGID_15_)"/><path d="m425.246 202.129c.588 16.668-13.013 30.126-29.982 30.08-16.977-.05-30.836-13.761-31.191-30.637-.335-16.874 12.767-30.398 29.499-30.141 16.724.26 31.082 14.035 31.674 30.698z" fill="url(#SVGID_16_)"/><path d="m402.689 217.065c-16.953-.101-30.886-13.828-31.373-30.687-.056-1.866.064-3.691.328-5.461-4.851 5.385-7.743 12.645-7.571 20.655.355 16.876 14.214 30.584 31.191 30.637 15.084.049 27.508-10.608 29.658-24.669-5.411 5.901-13.341 9.587-22.233 9.525z" fill="url(#SVGID_17_)"/><path d="m147.927 201.572c-.355 16.876-14.214 30.584-31.191 30.637-16.969.047-30.57-13.413-29.982-30.08.592-16.664 14.951-30.439 31.675-30.698 16.732-.259 29.833 13.269 29.498 30.141z" fill="url(#SVGID_18_)"/><path d="m124.645 216.965c-16.945.086-30.403-13.356-29.68-30.049.078-1.852.333-3.666.734-5.431-5.272 5.472-8.673 12.722-8.944 20.644-.588 16.668 13.014 30.126 29.982 30.08 15.093-.049 27.719-10.889 30.579-25.161-5.71 6.055-13.777 9.863-22.671 9.917z" fill="url(#SVGID_19_)"/><path d="m178.311 293.296c10.222.037 20.444.067 30.667.09 15.231-15.321 30.624-30.698 45.997-46.073-25.622 5.125-51.256 10.259-76.867 15.347.023 10.211.091 20.424.203 30.636z" fill="url(#SVGID_20_)"/><path d="m208.978 293.386c41.57.091 83.141.061 124.711-.09.113-10.212.18-20.425.203-30.637-41.645-15.289-83.446-30.782-124.914-46.045-.171 25.591-.171 51.181 0 76.772z" fill="url(#SVGID_21_)"/><path d="m178.784 186.066c-.507 25.531-.732 51.062-.676 76.593 10.249.008 20.498.013 30.747.018 15.356-12.788 30.772-25.614 46.122-38.427-15.347-12.812-30.626-25.61-45.713-38.344-10.16.04-20.32.093-30.48.16z" fill="url(#SVGID_22_)"/><path d="m239.744 185.824c-10.16.014-20.32.041-30.48.082-.307 25.591-.443 51.181-.409 76.771 35.871.016 71.742.013 107.613-.007-25.578-25.554-51.431-51.26-76.724-76.846z" fill="url(#SVGID_23_)"/><path d="m239.744 185.824c-.225 42.433 34.302 76.878 76.724 76.846 5.808-.003 11.615-.007 17.423-.011.056-25.531-.169-51.062-.676-76.593-31.156-.205-62.314-.285-93.471-.242z" fill="url(#SVGID_24_)"/></g></svg>