<svg id="Capa_1" enable-background="new 0 0 512 512" height="512" viewBox="0 0 512 512" width="512" xmlns="http://www.w3.org/2000/svg" xmlns:xlink="http://www.w3.org/1999/xlink"><linearGradient id="SVGID_1_" gradientUnits="userSpaceOnUse" x1="74.98" x2="437.019" y1="437.018" y2="74.98"><stop offset="0" stop-color="#ff4747"/><stop offset="1" stop-color="#ff9ceb"/></linearGradient><radialGradient id="SVGID_2_" cx="-8547.445" cy="-5188.038" gradientTransform="matrix(1 0 0 .922 8803.445 5032.024)" gradientUnits="userSpaceOnUse" r="289.817"><stop offset="0" stop-color="#ff2f2b"/><stop offset=".1038" stop-color="#ff434f" stop-opacity=".896"/><stop offset=".2609" stop-color="#ff5e7e" stop-opacity=".739"/><stop offset=".418" stop-color="#ff74a5" stop-opacity=".582"/><stop offset=".5721" stop-color="#ff86c4" stop-opacity=".428"/><stop offset=".7223" stop-color="#ff92d9" stop-opacity=".278"/><stop offset=".867" stop-color="#ff99e7" stop-opacity=".133"/><stop offset="1" stop-color="#ff9ceb" stop-opacity="0"/></radialGradient><linearGradient id="lg1"><stop offset="0" stop-color="#ffb5d3"/><stop offset=".4183" stop-color="#ffdbea"/><stop offset=".7836" stop-color="#fff5f9"/><stop offset="1" stop-color="#fff"/></linearGradient><linearGradient id="SVGID_3_" gradientUnits="userSpaceOnUse" x1="132.426" x2="220.898" xlink:href="#lg1" y1="411.157" y2="322.684"/><linearGradient id="SVGID_4_" gradientUnits="userSpaceOnUse" x1="189.603" x2="321.798" xlink:href="#lg1" y1="483.733" y2="351.537"/><linearGradient id="SVGID_5_" gradientUnits="userSpaceOnUse" x1="183.765" x2="341.023" xlink:href="#lg1" y1="433.009" y2="275.751"/><linearGradient id="lg2"><stop offset="0" stop-color="#ff79a2"/><stop offset="1" stop-color="#ffe3f1"/></linearGradient><linearGradient id="SVGID_6_" gradientUnits="userSpaceOnUse" x1="182.997" x2="381.596" xlink:href="#lg2" y1="450.824" y2="252.226"/><linearGradient id="SVGID_7_" gradientUnits="userSpaceOnUse" x1="119.263" x2="448.5" xlink:href="#lg2" y1="446.089" y2="116.852"/><linearGradient id="SVGID_8_" gradientUnits="userSpaceOnUse" x1="249.5" x2="249.5" y1="375.027" y2="313.223"><stop offset="0" stop-color="#ff9ceb" stop-opacity="0"/><stop offset=".1199" stop-color="#ff99e6" stop-opacity=".12"/><stop offset=".2661" stop-color="#ff91d7" stop-opacity=".266"/><stop offset=".4261" stop-color="#ff82be" stop-opacity=".426"/><stop offset=".5958" stop-color="#ff6f9c" stop-opacity=".596"/><stop offset=".7734" stop-color="#ff566f" stop-opacity=".773"/><stop offset=".9548" stop-color="#ff373a" stop-opacity=".955"/><stop offset="1" stop-color="#ff2f2b"/></linearGradient><linearGradient id="SVGID_9_" gradientUnits="userSpaceOnUse" x1="17.933" x2="231.954" xlink:href="#lg2" y1="346.013" y2="131.991"/><linearGradient id="SVGID_10_" gradientUnits="userSpaceOnUse" x1="77.525" x2="132.85" y1="251.056" y2="251.056"><stop offset="0" stop-color="#ff9ceb" stop-opacity="0"/><stop offset=".1159" stop-color="#ff99e5" stop-opacity=".116"/><stop offset=".2633" stop-color="#ff90d6" stop-opacity=".263"/><stop offset=".428" stop-color="#ff81bc" stop-opacity=".428"/><stop offset=".6051" stop-color="#ff6c97" stop-opacity=".605"/><stop offset=".7922" stop-color="#ff5268" stop-opacity=".792"/><stop offset=".985" stop-color="#ff3230" stop-opacity=".985"/><stop offset="1" stop-color="#ff2f2b"/></linearGradient><linearGradient id="SVGID_11_" gradientUnits="userSpaceOnUse" x1="92.982" x2="522.376" xlink:href="#lg1" y1="566.798" y2="137.404"/><linearGradient id="SVGID_12_" gradientUnits="userSpaceOnUse" x1="86.506" x2="488.016" xlink:href="#lg1" y1="323.131" y2="-78.38"/><linearGradient id="SVGID_13_" gradientUnits="userSpaceOnUse" x1="43.779" x2="571.951" xlink:href="#lg1" y1="498.382" y2="-29.79"/><linearGradient id="SVGID_14_" gradientUnits="userSpaceOnUse" x1="15.631" x2="139.924" xlink:href="#lg1" y1="435.199" y2="310.906"/><linearGradient id="SVGID_15_" gradientUnits="userSpaceOnUse" x1="-62.322" x2="240.299" xlink:href="#lg1" y1="408.516" y2="105.896"/><linearGradient id="SVGID_16_" gradientUnits="userSpaceOnUse" x1="11.98" x2="141.521" xlink:href="#lg1" y1="287.502" y2="157.961"/><linearGradient id="SVGID_17_" gradientUnits="userSpaceOnUse" x1="387.534" x2="516.94" xlink:href="#lg1" y1="367.978" y2="238.572"/><linearGradient id="SVGID_18_" gradientUnits="userSpaceOnUse" x1="365.653" x2="485.84" xlink:href="#lg1" y1="237.49" y2="117.303"/><linearGradient id="SVGID_19_" gradientUnits="userSpaceOnUse" x1="-144.111" x2="230.623" xlink:href="#lg1" y1="594.875" y2="220.141"/><linearGradient id="lg3"><stop offset="0" stop-color="#ff3838"/><stop offset="1" stop-color="#ff9ceb"/></linearGradient><linearGradient id="SVGID_20_" gradientUnits="userSpaceOnUse" x1="82.358" x2="264.605" xlink:href="#lg3" y1="370.035" y2="187.788"/><linearGradient id="SVGID_21_" gradientUnits="userSpaceOnUse" x1="89.078" x2="261.06" xlink:href="#lg3" y1="323.473" y2="151.492"/><linearGradient id="SVGID_22_" gradientUnits="userSpaceOnUse" x1="121.394" x2="307.291" xlink:href="#lg3" y1="360.29" y2="174.394"/><linearGradient id="SVGID_23_" gradientUnits="userSpaceOnUse" x1="132.827" x2="287.265" xlink:href="#lg3" y1="338.104" y2="183.666"/><linearGradient id="lg4"><stop offset="0" stop-color="#ff9ceb" stop-opacity="0"/><stop offset=".1645" stop-color="#ff9ae7" stop-opacity=".165"/><stop offset=".3102" stop-color="#ff94dd" stop-opacity=".31"/><stop offset=".4488" stop-color="#ff8acb" stop-opacity=".449"/><stop offset=".5831" stop-color="#ff7bb1" stop-opacity=".583"/><stop offset=".7143" stop-color="#ff6890" stop-opacity=".714"/><stop offset=".8431" stop-color="#ff5168" stop-opacity=".843"/><stop offset=".9678" stop-color="#ff3739" stop-opacity=".968"/><stop offset="1" stop-color="#ff2f2b"/></linearGradient><radialGradient id="SVGID_24_" cx="203.395" cy="246.888" gradientUnits="userSpaceOnUse" r="69.771" xlink:href="#lg4"/><linearGradient id="SVGID_25_" gradientUnits="userSpaceOnUse" x1="170.774" x2="249.485" xlink:href="#lg1" y1="279.563" y2="200.852"/><linearGradient id="SVGID_26_" gradientUnits="userSpaceOnUse" x1="188.205" x2="251.064" xlink:href="#lg1" y1="262.135" y2="199.275"/><linearGradient id="SVGID_27_" gradientUnits="userSpaceOnUse" x1="11.413" x2="382.998" xlink:href="#lg1" y1="592.035" y2="220.45"/><linearGradient id="SVGID_28_" gradientUnits="userSpaceOnUse" x1="236.501" x2="416.916" xlink:href="#lg3" y1="368.905" y2="188.491"/><linearGradient id="SVGID_29_" gradientUnits="userSpaceOnUse" x1="243.508" x2="413.257" xlink:href="#lg3" y1="322.36" y2="152.611"/><linearGradient id="SVGID_30_" gradientUnits="userSpaceOnUse" x1="274.803" x2="460.916" xlink:href="#lg3" y1="360.33" y2="174.217"/><linearGradient id="SVGID_31_" gradientUnits="userSpaceOnUse" x1="287.796" x2="439.607" xlink:href="#lg3" y1="336.724" y2="184.913"/><radialGradient id="SVGID_32_" cx="357.078" cy="246.971" gradientUnits="userSpaceOnUse" r="69.586" xlink:href="#lg4"/><linearGradient id="SVGID_33_" gradientUnits="userSpaceOnUse" x1="324.61" x2="402.658" xlink:href="#lg1" y1="279.371" y2="201.324"/><linearGradient id="SVGID_34_" gradientUnits="userSpaceOnUse" x1="341.899" x2="404.543" xlink:href="#lg1" y1="262.084" y2="199.44"/><g><circle cx="256" cy="256" fill="url(#SVGID_1_)" r="256"/><circle cx="256" cy="256" fill="url(#SVGID_2_)" r="256"/><path d="m199.975 331.59c-16.382 10.17-32.604 20.279-48.582 30.282.094 2.548.191 5.096.292 7.644.17 4.222 3.674 7.69 7.814 7.74 11.252.139 22.504.252 33.755.339 4.14.033 7.424-3.382 7.343-7.623-.252-12.793-.46-25.588-.622-38.382z" fill="url(#SVGID_3_)"/><path d="m295.22 331.604c-.18 15.356-.42 30.713-.72 46.069 15-.092 30-.231 45-.417 4.139-.051 7.645-3.52 7.814-7.74.101-2.548.199-5.096.292-7.644-17.233-9.989-34.726-20.095-52.386-30.268z" fill="url(#SVGID_4_)"/><path d="m302.169 369.949c.272-12.792.496-25.583.671-38.375-25.4.108-50.8.139-76.2.092.075 12.809.171 25.618.287 38.426.042 4.242 3.432 7.696 7.573 7.704 20 .041 40 0 60-.124 4.139-.026 7.577-3.486 7.669-7.723z" fill="url(#SVGID_5_)"/><path d="m241.853 316.311c20.414 15.384 40.652 30.738 60.473 45.963 15.093-.094 30.187-.228 45.28-.402.563-15.288.997-30.576 1.3-45.864-35.684.219-71.368.32-107.053.303z" fill="url(#SVGID_6_)"/><path d="m150.093 316.008c.303 15.288.737 30.576 1.3 45.864 50.311.58 100.622.714 150.933.402.303-15.35.537-30.7.7-46.05-50.977.168-101.955.096-152.933-.216z" fill="url(#SVGID_7_)"/><path d="m150.093 316.008c.354 17.836.885 35.672 1.593 53.508.17 4.222 3.674 7.69 7.814 7.74 11.252.139 22.504.252 33.755.339 4.14.033 7.424-3.382 7.343-7.623-.051-2.559-.099-5.118-.146-7.676 8.803.051 17.605.088 26.408.111.022 2.562.044 5.124.068 7.686.042 4.242 3.432 7.696 7.573 7.704 35 .072 70-.108 105-.54 4.139-.051 7.645-3.52 7.814-7.74.708-17.836 1.239-35.672 1.593-53.508-66.272.405-132.544.405-198.815-.001z" fill="url(#SVGID_8_)"/><path d="m135.7 178.574c-15.173.169-30.347.373-45.52.611-2.785 5.089-5.56 10.172-8.32 15.248-1.87 42.857-1.974 85.714-.312 128.571 17.813.211 35.626.389 53.439.533-1.266-48.321-1.029-96.642.713-144.963z" fill="url(#SVGID_9_)"/><path d="m90.18 179.185c-2.785 5.089-5.56 10.172-8.32 15.248-1.87 42.857-1.974 85.714-.312 128.571 17.813.211 35.626.389 53.439.533-1.267-48.321-1.029-96.642.712-144.963-15.172.17-30.346.373-45.519.611z" fill="url(#SVGID_10_)"/><path d="m429.5 149.41c-15-.37-30-.694-45-.972 3.9 65.903 4.42 131.806 1.56 197.709 15.173-.204 30.347-.442 45.52-.713 12.549-.237 23.433-10.519 24.043-22.933 2.4-50 1.8-100-1.8-150-.913-12.412-11.923-22.772-24.323-23.091z" fill="url(#SVGID_11_)"/><path d="m129.5 148.175c-12.401.213-23.134 10.615-23.782 23.189-2.533 50.631-2.956 101.262-1.267 151.893.432 12.572 11.113 22.924 23.662 23.081 25.289.302 50.578.509 75.867.623-.953-66.544-.78-133.09.52-199.634-25 .154-50 .437-75 .848z" fill="url(#SVGID_12_)"/><path d="m384.5 148.438c-60-1.112-120-1.482-180-1.111-12.401.081-22.789 10.476-23.108 23.174-1.2 51.112-1.4 102.222-.6 153.334.214 12.697 10.636 23.068 23.188 23.127 60.693.271 121.387 0 182.08-.815 12.55-.179 23.281-10.516 23.757-23.053 1.867-50.493 1.4-100.988-1.4-151.481-.714-12.54-11.517-22.936-23.917-23.175z" fill="url(#SVGID_13_)"/><path d="m134.988 323.537c.109 4.213-3.2 7.6-7.407 7.558-4.207-.04-7.735-3.485-7.861-7.689-.128-4.205 3.21-7.583 7.434-7.554 4.224.032 7.725 3.471 7.834 7.685z" fill="url(#SVGID_14_)"/><path d="m44.188 187.5c-.251 4.141 2.983 7.443 7.193 7.377 7.62-.12 15.24-.234 22.86-.341-2.645 57.895-1.91 115.789 2.204 173.684.298 4.168 3.917 7.629 8.056 7.725 4.14.095 7.26-3.223 6.993-7.408-4.084-63.117-4.521-126.235-1.313-189.352-12.645.198-25.289.42-37.933.665-4.189.084-7.81 3.508-8.06 7.65z" fill="url(#SVGID_15_)"/><path d="m135.988 170.944c-.164 4.215-3.682 7.667-7.874 7.718-4.192.049-7.45-3.314-7.261-7.52.189-4.204 3.736-7.664 7.901-7.723 4.166-.057 7.397 3.311 7.234 7.525z" fill="url(#SVGID_16_)"/><path d="m440.354 322.714c-.185 4.155-3.768 7.579-7.974 7.64-4.207.064-7.462-3.27-7.294-7.443.168-4.172 3.709-7.59 7.934-7.636 4.224-.045 7.521 3.281 7.334 7.439z" fill="url(#SVGID_17_)"/><path d="m438.688 172.179c.279 4.156-2.917 7.462-7.108 7.388-4.193-.074-7.775-3.512-8.027-7.684-.251-4.172 2.901-7.484 7.068-7.394 4.165.091 7.788 3.535 8.067 7.69z" fill="url(#SVGID_18_)"/><path d="m272.552 246.874c.002 38.181-31.032 69.23-68.934 69.118-37.888-.156-69.597-31.151-69.379-69.006.344-37.852 32.217-68.989 69.745-69.203 37.543-.173 68.412 30.909 68.568 69.091z" fill="url(#SVGID_19_)"/><path d="m232.564 201.607c-8.311-5.387-18.164-8.506-28.781-8.467-8.82.032-17.162 2.244-24.565 6.095.002.016-26.508 36.056-29.531 45.203-.044.835-.076 1.675-.08 2.52-.115 18.893 9.884 35.502 24.816 45.089.003.002 40.054 2.588 53.673 2.629 16.535-8.57 28.118-25.528 29.025-45.272-8.228-15.937-16.448-31.875-24.557-47.797z" fill="url(#SVGID_20_)"/><path d="m179.218 199.235c-16.603 8.651-28.481 25.576-29.531 45.203 6.948-11.744 22.051-15.822 33.805-9.033 6.623 3.821 13.26 7.649 19.904 11.483.02-7.678.056-15.357.106-23.035.075-13.645-10.751-24.654-24.284-24.618z" fill="url(#SVGID_21_)"/><path d="m203.38 269.922c-.01-7.678-.004-15.357.016-23.035-6.665 3.845-13.33 7.686-19.991 11.523-11.845 6.821-15.865 21.826-8.976 33.645 15.798 10.088 36.173 11.687 53.668 2.62-13.615-.053-24.696-11.116-24.717-24.753z" fill="url(#SVGID_22_)"/><path d="m232.56 201.598c6.704 11.832 2.66 26.915-9.176 33.75-6.659 3.848-13.323 7.695-19.988 11.54 6.644 3.834 13.297 7.672 19.953 11.514 11.825 6.826 26.92 2.804 33.772-8.999.858-18.658-8.079-37.157-24.561-47.805z" fill="url(#SVGID_23_)"/><path d="m257.184 246.869c-.006 29.714-24.092 53.832-53.686 53.766-29.587-.087-54.05-24.162-53.891-53.678.216-29.515 24.807-53.686 54.176-53.817 29.377-.116 53.333 24.016 53.401 53.729z" fill="url(#SVGID_24_)"/><path d="m226.448 246.874c-.017 12.733-10.334 23.057-23.068 23.049-12.733-.008-23.088-10.312-23.036-23.011.056-12.697 10.466-23.029 23.158-23.058 12.694-.028 22.956 10.285 22.946 23.02z" fill="url(#SVGID_25_)"/><path d="m211.067 254.563c-12.735.003-23.052-10.296-22.958-23.002.005-.634.041-1.257.096-1.878-4.786 4.228-7.834 10.379-7.861 17.229-.052 12.699 10.303 23.003 23.036 23.011 12.101.009 22.01-9.312 22.983-21.167-4.073 3.609-9.428 5.807-15.296 5.807z" fill="url(#SVGID_26_)"/><path d="m426.233 247.145c.362 37.432-31.796 68.229-69.674 68.56-37.912.287-68.498-30.627-68.639-68.824.031-38.195 30.233-69.078 67.785-68.644 37.518.477 70.058 31.478 70.528 68.908z" fill="url(#SVGID_27_)"/><path d="m385.268 202.241c-8.496-5.419-18.479-8.637-29.095-8.729-8.821-.076-17.074 2.024-24.341 5.79.103-.028-25.43 35.833-28.488 45.063-.036.841-.059 1.681-.056 2.53.058 18.975 9.87 35.644 24.637 45.143.003.012 40.012 2.366 53.629 2.326 16.694-8.59 28.514-25.331 29.269-44.769-8.346-15.72-16.899-31.51-25.555-47.354z" fill="url(#SVGID_28_)"/><path d="m331.832 199.302c-16.292 8.448-27.636 25.35-28.488 45.063 6.813-11.776 21.813-15.746 33.69-8.909 6.682 3.845 13.365 7.685 20.043 11.516-.047-7.637-.13-15.275-.247-22.912-.22-13.56-11.467-24.631-24.998-24.758z" fill="url(#SVGID_29_)"/><path d="m357.114 269.883c.023-7.637.01-15.274-.037-22.911-6.631 3.806-13.275 7.622-19.927 11.447-11.815 6.789-15.894 21.844-9.22 33.628 15.613 10.008 35.946 11.398 53.624 2.318-13.616.032-24.472-10.907-24.44-24.482z" fill="url(#SVGID_30_)"/><path d="m385.263 202.233c7.128 11.776 3.408 26.627-8.338 33.355-6.599 3.782-13.217 7.577-19.848 11.384 6.678 3.831 13.352 7.654 20.017 11.467 11.824 6.771 26.949 2.759 33.729-8.843.734-18.375-8.7-36.642-25.56-47.363z" fill="url(#SVGID_31_)"/><path d="m410.865 247.1c.269 29.226-24.447 53.143-54.028 53.332-29.6.164-53.431-23.849-53.549-53.536-.032-29.687 23.502-53.662 52.885-53.383 29.363.295 54.376 24.362 54.692 53.587z" fill="url(#SVGID_32_)"/><path d="m380.129 247.02c.098 12.606-10.282 22.842-23.015 22.863-12.736.018-23.026-10.261-23.089-22.95-.055-12.69 10.109-22.938 22.805-22.872 12.691.066 23.199 10.354 23.299 22.959z" fill="url(#SVGID_33_)"/><path d="m364.799 254.616c-12.74-.007-23.078-10.291-23.212-22.973-.007-.63.021-1.254.062-1.873-4.707 4.188-7.657 10.319-7.625 17.162.063 12.69 10.354 22.968 23.089 22.95 12.098-.018 22.066-9.267 22.945-20.999-4.044 3.567-9.391 5.737-15.259 5.733z" fill="url(#SVGID_34_)"/></g></svg>