<svg id="Capa_1" enable-background="new 0 0 512 512" height="512" viewBox="0 0 512 512" width="512" xmlns="http://www.w3.org/2000/svg" xmlns:xlink="http://www.w3.org/1999/xlink"><linearGradient id="SVGID_1_" gradientUnits="userSpaceOnUse" x1="74.98" x2="437.018" y1="437.018" y2="74.979"><stop offset="0" stop-color="#00aa45"/><stop offset="1" stop-color="#d3ff33"/></linearGradient><radialGradient id="SVGID_2_" cx="256" cy="255.998" gradientUnits="userSpaceOnUse" r="256"><stop offset="0" stop-color="#00aa45"/><stop offset="1" stop-color="#e6fe7f" stop-opacity="0"/></radialGradient><linearGradient id="lg1"><stop offset="0" stop-color="#008547"/><stop offset=".1212" stop-color="#128f45"/><stop offset=".3647" stop-color="#41aa41"/><stop offset=".7046" stop-color="#8cd63a"/><stop offset="1" stop-color="#d3ff33"/></linearGradient><linearGradient id="SVGID_3_" gradientUnits="userSpaceOnUse" x1="114.761" x2="616.155" xlink:href="#lg1" y1="336.141" y2="-165.253"/><linearGradient id="SVGID_4_" gradientUnits="userSpaceOnUse" x1="34.229" x2="687.14" xlink:href="#lg1" y1="562.12" y2="-90.791"/><linearGradient id="SVGID_5_" gradientUnits="userSpaceOnUse" x1="51.003" x2="721.546" xlink:href="#lg1" y1="482.62" y2="-187.922"/><linearGradient id="SVGID_6_" gradientUnits="userSpaceOnUse" x1="-45.367" x2="508.052" xlink:href="#lg1" y1="572.906" y2="19.488"/><linearGradient id="SVGID_7_" gradientUnits="userSpaceOnUse" x1="-69.364" x2="491.129" xlink:href="#lg1" y1="679.526" y2="119.033"/><linearGradient id="SVGID_8_" gradientUnits="userSpaceOnUse" x1="141.954" x2="696.851" xlink:href="#lg1" y1="210.466" y2="-344.431"/><linearGradient id="SVGID_9_" gradientUnits="userSpaceOnUse" x1="122.572" x2="667.479" xlink:href="#lg1" y1="313.313" y2="-231.593"/><radialGradient id="SVGID_10_" cx="286.742" cy="148.661" gradientUnits="userSpaceOnUse" r="100.352"><stop offset="0" stop-color="#d3ff33" stop-opacity=".5"/><stop offset=".0016" stop-color="#d1fe33" stop-opacity=".499"/><stop offset=".036" stop-color="#b2f134" stop-opacity=".468"/><stop offset=".0741" stop-color="#97e636" stop-opacity=".435"/><stop offset=".118" stop-color="#81dd36" stop-opacity=".396"/><stop offset=".1693" stop-color="#70d637" stop-opacity=".351"/><stop offset=".2327" stop-color="#65d138" stop-opacity=".295"/><stop offset=".3216" stop-color="#5ece38" stop-opacity=".217"/><stop offset=".5685" stop-color="#5ccd38" stop-opacity="0"/></radialGradient><radialGradient id="SVGID_11_" cx="317.462" cy="148.661" gradientUnits="userSpaceOnUse" r="123.088"><stop offset="0" stop-color="#d3ff33" stop-opacity=".7"/><stop offset=".0016" stop-color="#d1fe33" stop-opacity=".698"/><stop offset=".036" stop-color="#b2f134" stop-opacity=".656"/><stop offset=".0741" stop-color="#97e636" stop-opacity=".609"/><stop offset=".118" stop-color="#81dd36" stop-opacity=".555"/><stop offset=".1693" stop-color="#70d637" stop-opacity=".492"/><stop offset=".2327" stop-color="#65d138" stop-opacity=".414"/><stop offset=".3216" stop-color="#5ece38" stop-opacity=".304"/><stop offset=".5685" stop-color="#5ccd38" stop-opacity="0"/></radialGradient><linearGradient id="lg2"><stop offset="0" stop-color="#007345"/><stop offset=".7147" stop-color="#6ac135"/><stop offset="1" stop-color="#95e12e"/></linearGradient><linearGradient id="SVGID_12_" gradientUnits="userSpaceOnUse" x1="195.4" x2="568.666" xlink:href="#lg2" y1="198.658" y2="-174.609"/><linearGradient id="SVGID_13_" gradientUnits="userSpaceOnUse" x1="193.192" x2="568.133" xlink:href="#lg2" y1="260.851" y2="-114.091"/><linearGradient id="lg3"><stop offset="0" stop-color="#95e12e"/><stop offset=".8" stop-color="#ddff59"/><stop offset="1" stop-color="#e6fe7f"/></linearGradient><linearGradient id="SVGID_14_" gradientUnits="userSpaceOnUse" x1="141.957" x2="351.026" xlink:href="#lg3" y1="408.843" y2="199.774"/><linearGradient id="SVGID_15_" gradientUnits="userSpaceOnUse" x1="107.986" x2="315.869" xlink:href="#lg3" y1="480.55" y2="272.667"/><linearGradient id="SVGID_16_" gradientUnits="userSpaceOnUse" x1="291.083" x2="320.183" y1="175.071" y2="145.971"><stop offset="0" stop-color="#ddff59"/><stop offset="1" stop-color="#fff"/></linearGradient><linearGradient id="SVGID_17_" gradientUnits="userSpaceOnUse" x1="270.118" x2="299.539" y1="164.965" y2="135.544"><stop offset="0" stop-color="#95e12e"/><stop offset="1" stop-color="#ddff59"/></linearGradient><linearGradient id="SVGID_18_" gradientUnits="userSpaceOnUse" x1="168.745" x2="329.117" xlink:href="#lg1" y1="420.066" y2="259.694"/><linearGradient id="SVGID_19_" gradientUnits="userSpaceOnUse" x1="199.29" x2="314.738" xlink:href="#lg1" y1="389.523" y2="274.075"/><g><circle cx="256" cy="256" fill="url(#SVGID_1_)" r="256"/><circle cx="256" cy="256" fill="url(#SVGID_2_)" r="256"/><path d="m158.5 67.333c-8.277.606-15.199 7.895-15.432 16.167-3.174 115-3.174 230 0 345 .233 8.271 7.156 15.559 15.432 16.167 25 1.805 50 2.916 75 3.333-.75-128-.75-256 0-384-25 .417-50 1.528-75 3.333z" fill="url(#SVGID_3_)"/><path d="m353.5 67.333c-10-.722-20-1.333-30-1.833 2.25 127 2.25 254 0 381 10-.5 20-1.111 30-1.833 8.277-.606 15.199-7.894 15.432-16.167 3.174-115 3.174-230 0-345-.234-8.273-7.154-15.56-15.432-16.167z" fill="url(#SVGID_4_)"/><path d="m338.817 430.494c.101-5.058.198-10.116.29-15.173-4.964-3.754-9.943-7.55-14.938-11.384 5.105-4.222 10.22-8.449 15.344-12.677.615-39.595.959-79.189 1.033-118.784-5.116-3.984-10.237-7.989-15.36-12.011 5.127-4.034 10.251-8.052 15.373-12.051-.009-10.115-.035-20.231-.079-30.347-10.328-20.353-20.694-40.88-31.022-61.473 10.037-20.189 19.946-40.196 29.65-59.914-.092-5.058-.189-10.116-.29-15.173-.176-8.37-7.038-15.588-15.317-16.007-30-1.5-60-2-90-1.5-8.277.14-15.062 7.204-15.144 15.667-1.058 117.556-1.058 235.11 0 352.667.083 8.464 6.865 15.525 15.144 15.667 30 .5 60 0 90-1.5 8.276-.418 15.143-7.638 15.316-16.007z" fill="url(#SVGID_5_)"/><path d="m171.441 248.414c-.007 8.021-.003 16.041.012 24.062.008 4.024 1.635 7.892 4.528 10.767 3.632 3.611 7.266 7.231 10.899 10.859.09 25.4.27 50.8.54 76.2-3.554 3.486-7.1 6.954-10.637 10.401-2.816 2.744-4.359 6.533-4.296 10.558.124 8.02.26 16.041.406 24.062 15.11.77 30.221 1.33 45.331 1.68 12.361-27.82 25.013-55.938 37.776-84.125-12.762-28.187-25.635-56.445-38.436-84.542-15.374.014-30.749.041-46.123.078z" fill="url(#SVGID_6_)"/><path d="m336.019 283.242c2.892-2.874 4.518-6.741 4.528-10.767.015-8.021.019-16.041.012-24.062-40.998-.097-81.997-.124-122.995-.08-.022 56.222.198 112.445.66 168.667 40.294.933 80.589.373 120.883-1.68.147-8.021.282-16.041.406-24.062.063-4.026-1.48-7.814-4.296-10.558-3.537-3.447-7.084-6.914-10.637-10.401.27-25.4.45-50.8.54-76.2 3.633-3.626 7.266-7.247 10.899-10.857z" fill="url(#SVGID_7_)"/><path d="m172.893 96.68c-.74 40.462-1.197 80.925-1.373 121.387 15.36-.183 30.72-.316 46.08-.4 10.28-20.5 20.56-41.067 30.763-61.593-10.161-20.469-20.234-40.863-30.139-61.074-15.11.35-30.221.91-45.331 1.68z" fill="url(#SVGID_8_)"/><path d="m339.107 96.68c-40.294-2.053-80.589-2.614-120.883-1.68-.336 40.889-.544 81.778-.624 122.667 40.96-.222 81.92-.089 122.88.4-.176-40.462-.634-80.924-1.373-121.387z" fill="url(#SVGID_9_)"/><path d="m339.107 96.68c-40.294-2.053-80.589-2.614-120.883-1.68-.336 40.889-.544 81.778-.624 122.667 40.96-.222 81.92-.089 122.88.4-.176-40.462-.634-80.924-1.373-121.387z" fill="url(#SVGID_10_)"/><path d="m339.107 96.68c-40.294-2.053-80.589-2.614-120.883-1.68-.336 40.889-.544 81.778-.624 122.667 40.96-.222 81.92-.089 122.88.4-.176-40.462-.634-80.924-1.373-121.387z" fill="url(#SVGID_11_)"/><path d="m202.442 171.887c-8.447.147-15.354 7.125-15.41 15.533-.055 8.411 6.784 15.138 15.259 15.053 5.115-.054 10.23-.101 15.346-.14 5.129-5.15 10.255-10.303 15.374-15.453-5.098-5.09-10.188-10.164-15.266-15.213-5.102.061-10.203.134-15.303.22z" fill="url(#SVGID_12_)"/><path d="m309.558 171.887c-30.605-.513-61.209-.586-91.814-.22-.044 10.222-.08 20.444-.108 30.667 30.691-.233 61.383-.187 92.074.14 8.477.084 15.317-6.641 15.259-15.053-.056-8.412-6.964-15.386-15.411-15.534z" fill="url(#SVGID_13_)"/><path d="m202.397 332.467c.081 14.574 6.02 27.907 15.498 37.744 12.629-12.308 25.342-24.787 38.105-37.336-12.762-12.549-25.574-25.167-38.398-37.752-9.481 9.627-15.286 22.768-15.205 37.344z" fill="url(#SVGID_14_)"/><path d="m256 279.063c-15.057 0-28.66 6.17-38.398 16.06.05 25.029.148 50.059.294 75.088 9.745 10.103 23.219 16.482 38.105 16.477 29.331-.028 53.397-24.736 53.603-54.221.178-29.503-23.887-53.365-53.604-53.404z" fill="url(#SVGID_15_)"/><path d="m324.658 149.32c.043 4.208-3.346 7.531-7.564 7.436-4.219-.094-7.663-3.585-7.694-7.809s3.351-7.572 7.559-7.459c4.21.112 7.656 3.625 7.699 7.832z" fill="url(#SVGID_16_)"/><path d="m294.143 148.667c.025 4.233-3.378 7.617-7.596 7.569-4.22-.05-7.647-3.512-7.661-7.756-.012-4.243 3.386-7.647 7.594-7.593s7.639 3.547 7.663 7.78z" fill="url(#SVGID_17_)"/><path d="m278.972 332.8c-.039 12.718-10.326 23.137-22.972 23.138-12.646.002-22.938-10.42-22.972-23.138-.035-12.72 10.256-22.983 22.972-22.987 12.714.005 23.008 10.266 22.972 22.987z" fill="url(#SVGID_18_)"/><path d="m263.651 340.554c-12.671.029-22.967-10.354-22.988-23.08 0-.634.03-1.259.081-1.881-4.748 4.208-7.734 10.344-7.716 17.208.037 12.717 10.325 23.135 22.972 23.138 12.017 0 21.896-9.411 22.885-21.257-4.063 3.633-9.393 5.858-15.234 5.872z" fill="url(#SVGID_19_)"/></g></svg>