<svg xmlns="http://www.w3.org/2000/svg" width="800" height="800" class="icon" viewBox="0 0 1024 1024"><path fill="#094" d="M303.104 221.184h61.44v61.44h-61.44zm59.392 69.632h61.44v61.44h-61.44zm61.44 0h61.44v61.44h-61.44zm0 61.44h61.44v61.44h-61.44zm61.44 0h61.44v61.44h-61.44zm59.392-61.44h61.44v61.44h-61.44zm61.44 0h61.44v61.44h-61.44z"/><path fill="#094" d="M544.768 352.256h61.44v61.44h-61.44zm-182.272 59.392h61.44v61.44h-61.44z"/><path fill="#E60012" d="M303.104 473.088h61.44v61.44h-61.44z"/><path fill="#E60012" d="M362.496 473.088h61.44v61.44h-61.44z"/><path fill="#094" d="M606.208 411.648h61.44v61.44h-61.44zm0 120.832h61.44v61.44h-61.44z"/><path fill="#E60012" d="M241.664 532.48h61.44v61.44h-61.44zm0 61.44h61.44v61.44h-61.44zm61.44-61.44h61.44v61.44h-61.44z"/><path fill="#E60012" d="M362.496 532.48h61.44v61.44h-61.44zm-59.392 61.44h61.44v61.44h-61.44z"/><path fill="#E60012" d="M362.496 593.92h61.44v61.44h-61.44zm61.44-61.44h61.44v61.44h-61.44zm0 61.44h61.44v61.44h-61.44zm182.272 0h61.44v61.44h-61.44zm-61.44 61.44h61.44v61.44h-61.44zm61.44 0h61.44v61.44h-61.44z"/><path fill="#094" d="M667.648 290.816h61.44v61.44h-61.44zm0 182.272h61.44v61.44h-61.44z"/><path fill="#E60012" d="M667.648 593.92h61.44v61.44h-61.44zm0 61.44h61.44v61.44h-61.44z"/><path fill="#E60012" d="M727.04 655.36h61.44v61.44h-61.44zm-423.936 0h61.44v61.44h-61.44z"/><path fill="#E60012" d="M362.496 655.36h61.44v61.44h-61.44zm182.272 59.392h61.44v61.44h-61.44zm61.44 0h61.44v61.44h-61.44zm0 61.44h61.44v61.44h-61.44zm61.44-61.44h61.44v61.44h-61.44z"/><path fill="#E60012" d="M727.04 714.752h61.44v61.44h-61.44zm-59.392 61.44h61.44v61.44h-61.44z"/></svg>