<svg width="24" height="24" viewBox="0 0 24 24" fill="none" xmlns="http://www.w3.org/2000/svg">
<path fill-rule="evenodd" clip-rule="evenodd" d="M23 15V9C20.7909 9 19 7.20914 19 5H5C5 7.20914 3.20914 9 1 9V15C3.20914 15 5 16.7909 5 19H19C19 16.7909 20.7909 15 23 15ZM12 16C13.6569 16 15 14.2091 15 12C15 9.79086 13.6569 8 12 8C10.3431 8 9 9.79086 9 12C9 14.2091 10.3431 16 12 16Z" fill="#D9D9D9"/>
<path d="M19 5H21C22.1046 5 23 5.89543 23 7V9M19 5H5M19 5C19 7.20914 20.7909 9 23 9M23 9V15M23 15V17C23 18.1046 22.1046 19 21 19H19M23 15C20.7909 15 19 16.7909 19 19M19 19H5M1 15V17C1 18.1046 1.89543 19 3 19H5M1 15V9M1 15C3.20914 15 5 16.7909 5 19M1 9V7C1 5.89543 1.89543 5 3 5H5M1 9C3.20914 9 5 7.20914 5 5M15 12C15 14.2091 13.6569 16 12 16C10.3431 16 9 14.2091 9 12C9 9.79086 10.3431 8 12 8C13.6569 8 15 9.79086 15 12Z" stroke="black" stroke-width="2" stroke-linecap="round" stroke-linejoin="round"/>
</svg>
