<svg width="24" height="24" viewBox="0 0 24 24" fill="none" xmlns="http://www.w3.org/2000/svg">
<path d="M12.7499 13C12.7499 12.5858 12.4141 12.25 11.9999 12.25C11.5857 12.25 11.2499 12.5858 11.2499 13V17C11.2499 17.4142 11.5857 17.75 11.9999 17.75C12.4141 17.75 12.7499 17.4142 12.7499 17V13Z" fill="#2D264B"/>
<path fill-rule="evenodd" clip-rule="evenodd" d="M11.9999 1.25C8.82427 1.25 6.24991 3.82436 6.24991 7V7.52281L6.22306 7.53142C4.47255 8.1002 3.10011 9.47263 2.53134 11.2232C2.24946 12.0907 2.24963 13.1319 2.24989 14.8382V15.1618C2.24963 16.8681 2.24946 17.9093 2.53134 18.7768C3.10011 20.5274 4.47254 21.8998 6.22306 22.4686C7.09058 22.7505 8.13179 22.7503 9.83805 22.75H14.1618C15.868 22.7503 16.9092 22.7505 17.7768 22.4686C19.5273 21.8998 20.8997 20.5274 21.4685 18.7768C21.7504 17.9093 21.7502 16.8681 21.7499 15.1619V14.8381C21.7502 13.1319 21.7504 12.0907 21.4685 11.2232C20.8997 9.47263 19.5273 8.1002 17.7768 7.53142C16.9092 7.24955 15.868 7.24971 14.1618 7.24998L9.91596 7.25C9.03676 7.24997 8.33502 7.24994 7.74991 7.28306V7C7.74991 4.65279 9.6527 2.75 11.9999 2.75C12.9577 2.75 13.8396 3.06595 14.5499 3.59962C14.8811 3.84843 15.3512 3.78167 15.6 3.45051C15.8488 3.11935 15.7821 2.64919 15.4509 2.40038C14.4897 1.67823 13.2937 1.25 11.9999 1.25ZM13.9999 8.75C15.9196 8.75 16.7015 8.75925 17.3132 8.95801C18.6071 9.37841 19.6215 10.3928 20.0419 11.6867C20.2407 12.2984 20.2499 13.0803 20.2499 15C20.2499 16.9197 20.2407 17.7016 20.0419 18.3133C19.6215 19.6072 18.6071 20.6216 17.3132 21.042C16.7015 21.2407 15.9196 21.25 13.9999 21.25H9.99991C8.08025 21.25 7.2983 21.2407 6.68659 21.042C5.39273 20.6216 4.37832 19.6072 3.95792 18.3133C3.75916 17.7016 3.74991 16.9197 3.74991 15C3.74991 13.0803 3.75916 12.2984 3.95792 11.6867C4.37832 10.3928 5.39273 9.37841 6.68659 8.95801C6.81676 8.91571 6.95926 8.88113 7.12451 8.85329C7.72211 8.75262 8.52806 8.75 9.99991 8.75H13.9999Z" fill="#2D264B"/>
</svg>
