<svg width="24" height="24" viewBox="0 0 24 24" fill="none" xmlns="http://www.w3.org/2000/svg">
<path d="M13 2.25C12.5858 2.25 12.25 2.58579 12.25 3C12.25 3.41421 12.5858 3.75 13 3.75C14.7561 3.75 16.5749 4.63559 17.9697 6.03033C19.3644 7.42507 20.25 9.24392 20.25 11C20.25 11.4142 20.5858 11.75 21 11.75C21.4142 11.75 21.75 11.4142 21.75 11C21.75 8.75608 20.6356 6.57493 19.0303 4.96967C17.4251 3.36441 15.2439 2.25 13 2.25Z" fill="black"/>
<path d="M8.94454 3.88388C7.8706 2.80994 6.1294 2.80994 5.05546 3.88388L4.05546 4.88388C3.53973 5.39961 3.25 6.09908 3.25 6.82843V8.64226C3.25 8.96539 3.30639 9.30554 3.45185 9.63309C3.86947 10.5735 5.18479 13.1788 8.003 15.997C10.8212 18.8152 13.4265 20.1305 14.3669 20.5482C14.6945 20.6936 15.0346 20.75 15.3577 20.75H17.1716C17.9009 20.75 18.6004 20.4603 19.1161 19.9445L20.1161 18.9445C21.1901 17.8706 21.1901 16.1294 20.1161 15.0555L18.6897 13.629C17.7628 12.7021 16.3105 12.5583 15.2197 13.2855L14.5497 13.7322C14.1705 13.9849 13.7137 13.9999 13.3654 13.7941C12.7282 13.4176 11.9886 12.9279 11.5303 12.4697C11.0721 12.0114 10.5824 11.2718 10.2059 10.6346C10.0001 10.2863 10.0151 9.82948 10.2678 9.45031L10.7145 8.78026C11.4417 7.68955 11.2979 6.23722 10.371 5.31029L8.94454 3.88388Z" fill="black"/>
<path d="M14 6.25C13.5858 6.25 13.25 6.58579 13.25 7C13.25 7.41421 13.5858 7.75 14 7.75C14.5061 7.75 15.0749 8.01059 15.5322 8.46783C15.9894 8.92507 16.25 9.49392 16.25 10C16.25 10.4142 16.5858 10.75 17 10.75C17.4142 10.75 17.75 10.4142 17.75 10C17.75 9.00608 17.2606 8.07493 16.5928 7.40717C15.9251 6.73941 14.9939 6.25 14 6.25Z" fill="black"/>
</svg>
