<svg width="24" height="24" viewBox="0 0 24 24" fill="none" xmlns="http://www.w3.org/2000/svg">
<path fill-rule="evenodd" clip-rule="evenodd" d="M10.6645 3.88397C11.495 3.42255 12.505 3.42255 13.3355 3.88397L20.4901 7.85872C21.2677 8.29074 21.75 9.1104 21.75 9.99998V18C21.75 19.5188 20.5188 20.75 19 20.75H5C3.48122 20.75 2.25 19.5188 2.25 18V9.99998C2.25 9.1104 2.73229 8.29074 3.50993 7.85872L10.6645 3.88397ZM4.3721 9.92023C4.01247 9.71472 3.55433 9.83967 3.34882 10.1993C3.14331 10.5589 3.26826 11.0171 3.6279 11.2226L9.16675 14.3877C9.58227 14.6251 10.0526 14.75 10.5311 14.75H13.4689C13.9474 14.75 14.4177 14.6251 14.8333 14.3877L20.3721 11.2226C20.7317 11.0171 20.8567 10.5589 20.6512 10.1993C20.4457 9.83967 19.9875 9.71472 19.6279 9.92023L14.089 13.0853C13.9002 13.1932 13.6864 13.25 13.4689 13.25H10.5311C10.3136 13.25 10.0998 13.1932 9.91095 13.0853L4.3721 9.92023Z" fill="black"/>
</svg>
