<svg width="24" height="24" viewBox="0 0 24 24" fill="none" xmlns="http://www.w3.org/2000/svg">
<path fill-rule="evenodd" clip-rule="evenodd" d="M13.3046 2.31465C13.6831 2.48287 13.8536 2.92609 13.6854 3.30461L11.9318 7.25H16.2904L18.3146 2.6954C18.4829 2.31689 18.9261 2.14642 19.3046 2.31465C19.6831 2.48287 19.8536 2.92609 19.6854 3.30461L17.9318 7.25H21C21.4142 7.25 21.75 7.58579 21.75 8C21.75 8.41422 21.4142 8.75 21 8.75H17.2652L14.3763 15.25H19C19.4142 15.25 19.75 15.5858 19.75 16C19.75 16.4142 19.4142 16.75 19 16.75H13.7096L11.6854 21.3046C11.5171 21.6831 11.0739 21.8536 10.6954 21.6854C10.3169 21.5171 10.1464 21.0739 10.3146 20.6954L12.0682 16.75H7.70963L5.68536 21.3046C5.51713 21.6831 5.07391 21.8536 4.6954 21.6854C4.31688 21.5171 4.14641 21.0739 4.31464 20.6954L6.06815 16.75H3C2.58579 16.75 2.25 16.4142 2.25 16C2.25 15.5858 2.58579 15.25 3 15.25H6.73482L9.62371 8.75H5C4.58579 8.75 4.25 8.41422 4.25 8C4.25 7.58579 4.58579 7.25 5 7.25H10.2904L12.3146 2.6954C12.4829 2.31689 12.9261 2.14642 13.3046 2.31465ZM11.2652 8.75L8.37629 15.25H12.7348L15.6237 8.75H11.2652Z" fill="black"/>
</svg>
