<svg width="24" height="24" viewBox="0 0 24 24" fill="none" xmlns="http://www.w3.org/2000/svg">
<path fill-rule="evenodd" clip-rule="evenodd" d="M2.25 11.75C2.25 6.36522 6.61522 2 12 2C17.3848 2 21.75 6.36522 21.75 11.75C21.75 17.1348 17.3848 21.5 12 21.5C6.61522 21.5 2.25 17.1348 2.25 11.75ZM8.25 8.75C8.25 8.33579 8.58579 8 9 8H9.00898C9.4232 8 9.75898 8.33579 9.75898 8.75C9.75898 9.16421 9.4232 9.5 9.00898 9.5H9C8.58579 9.5 8.25 9.16421 8.25 8.75ZM14.25 8.75C14.25 8.33579 14.5858 8 15 8H15.009C15.4232 8 15.759 8.33579 15.759 8.75C15.759 9.16421 15.4232 9.5 15.009 9.5H15C14.5858 9.5 14.25 9.16421 14.25 8.75ZM10.25 14.75C10.25 13.7835 11.0335 13 12 13C12.9665 13 13.75 13.7835 13.75 14.75C13.75 15.7165 12.9665 16.5 12 16.5C11.0335 16.5 10.25 15.7165 10.25 14.75Z" fill="black"/>
</svg>
