<svg width="24" height="24" viewBox="0 0 24 24" fill="none" xmlns="http://www.w3.org/2000/svg">
<path fill-rule="evenodd" clip-rule="evenodd" d="M2.25 12C2.25 6.61522 6.61522 2.25 12 2.25C17.3848 2.25 21.75 6.61522 21.75 12C21.75 17.3848 17.3848 21.75 12 21.75C6.61522 21.75 2.25 17.3848 2.25 12ZM8.25 9C8.25 8.58579 8.58579 8.25 9 8.25H9.00898C9.4232 8.25 9.75898 8.58579 9.75898 9C9.75898 9.41421 9.4232 9.75 9.00898 9.75H9C8.58579 9.75 8.25 9.41421 8.25 9ZM14.25 9C14.25 8.58579 14.5858 8.25 15 8.25H15.009C15.4232 8.25 15.759 8.58579 15.759 9C15.759 9.41421 15.4232 9.75 15.009 9.75H15C14.5858 9.75 14.25 9.41421 14.25 9ZM8.21435 12.7815C8.99152 11.81 10.2345 11.25 12 11.25C13.8257 11.25 15.0548 11.9783 15.8033 12.992C16.5245 13.9685 16.75 15.1395 16.75 16C16.75 16.4142 16.4142 16.75 16 16.75H8C7.80109 16.75 7.61032 16.671 7.46967 16.5303C7.32902 16.3897 7.25 16.1989 7.25 16C7.25 14.9199 7.46275 13.721 8.21435 12.7815Z" fill="black"/>
</svg>
