<svg width="24" height="24" viewBox="0 0 24 24" fill="none" xmlns="http://www.w3.org/2000/svg">
<g clip-path="url(#clip0_16_1761)">
<path d="M21.2578 13.99C20.9838 15.4 18.8018 16.945 16.2958 17.244C14.9898 17.4 13.7028 17.544 12.3308 17.48C10.0878 17.377 8.31676 16.945 8.31676 16.945C8.31676 17.163 8.33076 17.371 8.35676 17.565C8.64876 19.78 10.5528 19.912 12.3568 19.975C14.1768 20.037 15.7968 19.525 15.7968 19.525L15.8728 21.171C15.8728 21.171 14.5988 21.855 12.3308 21.981C11.0808 22.049 9.52776 21.949 7.71876 21.471C3.79576 20.432 3.12076 16.251 3.01776 12.007C2.98676 10.747 3.00576 9.56 3.00576 8.567C3.00576 4.227 5.84876 2.956 5.84876 2.956C7.28176 2.298 9.74076 2.021 12.2988 2H12.3608C14.9178 2.02 17.3788 2.298 18.8118 2.956C18.8118 2.956 21.6548 4.228 21.6548 8.566C21.6548 8.566 21.6908 11.767 21.2578 13.99ZM18.3018 8.903C18.3018 7.829 18.0288 6.976 17.4798 6.345C16.9128 5.714 16.1718 5.39 15.2508 5.39C14.1858 5.39 13.3798 5.8 12.8458 6.618L12.3278 7.488L11.8088 6.618C11.2758 5.8 10.4698 5.39 9.40476 5.39C8.48376 5.39 7.74176 5.714 7.17576 6.345C6.62676 6.976 6.35376 7.829 6.35376 8.903V14.156H8.43476V9.057C8.43476 7.982 8.88676 7.437 9.79176 7.437C10.7918 7.437 11.2928 8.084 11.2928 9.364V12.154H13.3628V9.364C13.3628 8.084 13.8628 7.437 14.8628 7.437C15.7678 7.437 16.2208 7.982 16.2208 9.057V14.157H18.3008V8.902L18.3018 8.903Z" fill="#09121F"/>
</g>
<defs>
<clipPath id="clip0_16_1761">
<rect width="24" height="24" fill="white"/>
</clipPath>
</defs>
</svg>
