<svg xmlns="http://www.w3.org/2000/svg" width="32" height="32" fill="none" viewBox="0 0 32 32">
  <path fill="#000001" d="M27.425 25.9h-1.52v3.05h1.52V25.9Zm-1.52 3.05H6.095v1.53h19.81v-1.53Zm-3.05-9.14h-1.52v1.52h1.52v-1.52Zm-1.52-1.52h-1.53v1.52h1.53v-1.52Zm-7.62 0v-7.62h4.57v7.62h1.52v-7.62h3.05V9.14h1.53V1.52h-3.05v1.53h-3.05V1.52h-4.57v1.53h-3.05V1.52h-3.05v7.62h1.53v1.53H12.2v7.62h1.515ZM12.2 6.1h7.61v1.52H12.2V6.1Zm-.005 12.19h-1.53v1.52h1.53v-1.52Zm-1.53 1.52h-1.52v1.52h1.52v-1.52Zm-1.52 4.57v-3.05h-1.53v3.05h-1.52v1.52h19.81v-1.52h-1.52v-3.05h-1.53v3.05H9.145Zm-3.05 1.52h-1.52v3.05h1.52V25.9Z"/>
</svg>
