<svg xmlns="http://www.w3.org/2000/svg" width="32" height="32" fill="none" viewBox="0 0 32 32">
  <g clip-path="url(#a)">
    <path fill="#000001" d="M22.86 18.28v-4.57H9.14v4.57H0V32h32V18.28h-9.14ZM9.14 30.47H1.53V19.81h7.61v10.66Zm12.19 0H10.67V15.24h10.66v15.23Zm9.15 0h-7.62V19.81h7.62v10.66Z"/>
    <path fill="#000001" d="M28.95 21.33h-4.57v1.53h3.05v1.52h-3.05v1.52h3.05v1.53h-3.05v1.52h4.57v-7.62Zm0-15.24h-3.04v1.53h3.04V6.09ZM25.91 0h-1.53v1.52h1.53V0Zm-1.53 1.52h-1.52v1.53h1.52V1.52Zm-6.09 21.34h-1.53v-6.1h-3.04v1.52h1.52v4.58h-1.52v1.52h4.57v-1.52ZM16.76 0h-1.52v3.05h1.52V0ZM9.14 4.57v6.09h1.53v1.53h10.66v-1.53h1.53V4.57h-1.53v1.52h-1.52v1.53h-1.52V6.09h-1.53V4.57h-1.52v1.52h-1.52v1.53h-1.53V6.09h-1.52V4.57H9.14Zm9.15 4.57h1.52v1.52h-1.52V9.14Zm-3.05 0h1.52v1.52h-1.52V9.14Zm-3.05 0h1.53v1.52h-1.53V9.14ZM9.14 1.52H7.62v1.53h1.52V1.52ZM7.62 0H6.1v1.52h1.52V0Zm0 27.43H4.57V25.9h3.05v-4.57H3.05v1.53H6.1v1.52H3.05v4.57h4.57v-1.52ZM6.1 6.09H3.05v1.53H6.1V6.09Z"/>
  </g>
  <defs>
    <clipPath id="a">
      <path fill="#fff" d="M0 0h32v32H0z"/>
    </clipPath>
  </defs>
</svg>
