<svg xmlns="http://www.w3.org/2000/svg" width="32" height="32" fill="none" viewBox="0 0 32 32">
  <g clip-path="url(#a)">
    <path fill="#000001" d="M32 3.05h-1.53v25.9H32V3.05Zm-1.53 25.9h-1.52v1.53h1.52v-1.53Zm0-27.43h-1.52v1.53h1.52V1.52Zm-1.52 28.96H3.04V32h25.91v-1.52Zm-1.53-4.58H25.9v3.05h1.52V25.9ZM24.38 4.57v6.1h1.52v9.14h1.52v-9.14h1.53v-6.1h-4.57Zm3.04 4.57H25.9V6.1h1.52v3.04Z"/>
    <path fill="#000001" d="M25.9 19.81h-1.52v1.52h1.52v-1.52Zm-1.52 6.09h-1.53v3.05h1.53V25.9Z"/>
    <path fill="#000001" d="M22.85 18.29h1.53v-6.1h-1.53V9.14h-1.52V7.62H19.8V6.1h-3.04V4.57h-6.1V6.1H7.61v1.52H6.09v1.52H4.57v3.05H3.04v6.1h1.53v3.04h1.52v1.53h1.52v1.52h3.05v1.52h6.1v-1.52h3.04v-1.52h-4.57v-1.53h4.57v1.53h4.58v-1.53h-1.53v-3.04Zm-7.62-1.53h-3.04v-3.05h3.04v3.05Zm6.1-3.05H19.8v-3.04h-1.52V9.14h-3.05V7.62h3.05v1.52h1.52v1.53h1.53v3.04ZM9.14 27.43H7.61v1.52h1.53v-1.52Zm-3.05 0H4.57v1.52h1.52v-1.52ZM28.95 0H3.04v1.52h25.91V0ZM3.04 28.95H1.52v1.53h1.52v-1.53Zm0-27.43H1.52v1.53h1.52V1.52ZM1.52 3.05H0v25.9h1.52V3.05Z"/>
  </g>
  <defs>
    <clipPath id="a">
      <path fill="#fff" d="M0 0h32v32H0z"/>
    </clipPath>
  </defs>
</svg>
