<svg xmlns="http://www.w3.org/2000/svg" width="32" height="32" fill="none" viewBox="0 0 32 32">
  <g clip-path="url(#a)">
    <path fill="#000001" d="M32 27.43h-3.05v1.52H32v-1.52Zm-3.05 1.52h-1.53v1.53h1.53v-1.53Zm0-21.33h-1.53v13.71h1.53V7.62Z"/>
    <path fill="#000001" d="M27.42 21.33H25.9v3.05h1.52v-3.05Zm0-16.76H25.9v3.05h1.52V4.57Zm0 25.91h-3.04V32h3.04v-1.52Zm-1.52-6.1h-1.52v1.52h1.52v-1.52Zm0-21.33h-1.52v1.52h1.52V3.05ZM24.38 25.9h-3.05v1.53h1.52v3.05h1.53V25.9Zm-1.53-4.57h1.53v-3.04h-1.53v-1.53H19.8v1.53h-1.52v3.04h1.52v1.53h3.05v-1.53Zm1.53-19.81h-3.05v1.53h3.05V1.52ZM19.8 12.19h3.05v-1.52h1.53V7.62h-1.53V6.1H19.8v1.52h-1.52v3.05h1.52v1.52Z"/>
    <path fill="#000001" d="M21.33 27.43H7.61v1.52h13.72v-1.52Zm-4.57-15.24h-4.57v4.57h4.57v-4.57ZM21.33 0H7.61v1.52h13.72V0ZM9.14 16.76H6.09v1.53H4.57v3.04h1.52v1.53h3.05v-1.53h1.52v-3.04H9.14v-1.53Zm0-10.66H6.09v1.52H4.57v3.05h1.52v1.52h3.05v-1.52h1.52V7.62H9.14V6.1ZM7.61 25.9H4.57v1.53h3.04V25.9Zm0-24.38H4.57v1.53h3.04V1.52ZM4.57 24.38H3.04v1.52h1.53v-1.52Zm0-21.33H3.04v1.52h1.53V3.05ZM3.04 21.33H1.52v3.05h1.52v-3.05Zm0-16.76H1.52v3.05h1.52V4.57ZM1.52 7.62H0v13.71h1.52V7.62Z"/>
  </g>
  <defs>
    <clipPath id="a">
      <path fill="#fff" d="M0 0h32v32H0z"/>
    </clipPath>
  </defs>
</svg>
