<svg xmlns="http://www.w3.org/2000/svg" width="32" height="32" fill="none" viewBox="0 0 32 32">
  <path fill="#000001" d="M30.475 7.62h-1.53v4.57h1.53V7.62Zm-1.53 4.57h-1.52v1.52h1.52v-1.52Zm0-6.09h-4.57v1.52h4.57V6.1Zm-6.09 7.61v1.53h1.52v9.14h-1.52v6.1h-1.53V16.76h1.53v-1.52h-6.1v1.52h1.53v13.72h-3.05V15.24h-1.52v-1.53h-3.05v1.53h1.52v15.24h-1.52v-6.1h-1.53v-7.62h1.53v-1.52h-3.05v-3.05h-3.05v1.52h1.53v10.67h1.52v6.1h1.52V32h15.24v-1.52h1.53v-6.1h1.52V13.71h-4.57Zm3.05-3.04h-1.53v1.52h1.53v-1.52Zm-1.53-3.05h-1.52v1.52h1.52V7.62Zm-1.52-3.05h-1.53v3.05h1.53V4.57Zm-1.53 4.57h-1.52v1.53h1.52V9.14Zm0-6.09h-1.52v1.52h1.52V3.05Zm-1.52-1.53h-3.05v1.53h3.05V1.52Zm0 9.15h-3.05v1.52h3.05v-1.52Z"/>
  <path fill="#000001" d="M16.755 13.71h-1.52v1.53h1.52v-1.53Zm0-4.57h-1.52v1.53h1.52V9.14Zm0-6.09h-1.52v1.52h1.52V3.05Zm-1.52-1.53h-1.52v1.53h1.52V1.52Zm-3.05 4.58h-1.52v1.52h1.52V6.1Zm1.53-6.1h-4.58v1.52h4.58V0Zm-3.05 10.67h-1.53v1.52h1.53v-1.52Zm0-6.1h-3.05V6.1h3.05V4.57Zm-1.53-3.05h-3.04v1.53h3.04V1.52ZM7.615 6.1h-1.52v1.52h1.52V6.1Zm-1.52-3.05h-3.05v1.52h3.05V3.05Zm-1.53 6.09h-1.52v3.05h1.52V9.14Zm-1.52-4.57h-1.52v4.57h1.52V4.57Z"/>
</svg>
