<svg xmlns="http://www.w3.org/2000/svg" width="32" height="32" fill="none" viewBox="0 0 32 32">
  <path fill="#000001" d="M17.525 31.24v-1.52h3.04v-1.53h3.05v-1.52h3.05v-1.53h1.52v-1.52h1.53V8.38h-1.53V6.86h-1.52v1.52h-3.05v1.53h-3.05v1.52h-3.04v1.52h-3.05v1.53H16v15.24h-1.52v1.52h3.045Zm6.09-18.29h3.05v1.53h-3.05v-1.53Zm-4.57 9.15H22.1v3.04h-3.05l-.005-3.04Zm7.62-16.76h-3.05v1.52h3.05V5.34Zm-3.05-1.53h-3.05v1.53h3.05V3.81Zm-3.05-1.52h-3.04v1.52h3.04V2.29Zm-3.04 4.57h-3.05v3.05h3.05V6.86Zm0-6.1h-3.05v1.53h3.05V.76Zm-3.05 27.43h-3.05v1.53h3.05v-1.53Z"/>
  <path fill="#000001" d="M14.475 11.43h-3.05v1.52h3.05v-1.52Zm0-9.14h-3.05v1.52h3.05V2.29Zm0 19.81h-3.05v3.04h3.05V22.1Zm0-6.1h-3.05v3.05h3.05V16Zm-3.05 10.67h-3.05v1.52h3.05v-1.52Zm0-16.76h-3.05v1.52h3.05V9.91Zm0-6.1h-3.05v1.53h3.05V3.81Zm-3.05 21.33h-3.04v1.53h3.04v-1.53Zm0-16.76h-3.04v1.53h3.04V8.38Zm0-3.04h-3.04v1.52h3.04V5.34Zm0 13.71h-3.04v3.05h3.04v-3.05Zm0-6.1h-3.04V16h3.04v-3.05Zm-3.04 10.67h-1.53v1.52h1.53v-1.52Zm0-16.76h-1.53v1.52h1.53V6.86Zm-1.53 1.52h-1.52v15.24h1.52V8.38Z"/>
</svg>
