<svg width="25" height="25" viewBox="0 0 25 25" fill="none" xmlns="http://www.w3.org/2000/svg">
<rect x="0.0649414" y="0.0649414" width="24" height="24" fill="white" fill-opacity="0.01"/>
<path d="M0.0649414 0.0649414H24.0649M0.0649414 0.0649414V24.0649M0.0649414 0.0649414L24.0649 24.0649M24.0649 0.0649414V24.0649M24.0649 0.0649414L0.0649414 24.0649M24.0649 24.0649H0.0649414" stroke="#DADEE4" stroke-width="0.13"/>
<circle cx="12.0649" cy="12.0649" r="10" stroke="#DADEE4" stroke-width="0.13"/>
<rect x="2.06494" y="4.06494" width="20" height="16" rx="1" stroke="#DADEE4" stroke-width="0.13"/>
<rect x="4.06494" y="2.06494" width="16" height="20" rx="1" stroke="#DADEE4" stroke-width="0.13"/>
<rect x="3.06494" y="3.06494" width="18" height="18" rx="1" stroke="#DADEE4" stroke-width="0.13"/>
<circle cx="12.0649" cy="12.0649" r="4" stroke="#DADEE4" stroke-width="0.13"/>
<path d="M3.06494 4.06494C3.06494 3.51266 3.51266 3.06494 4.06494 3.06494H20.0649C20.6172 3.06494 21.0649 3.51266 21.0649 4.06494C21.0649 4.61723 20.6172 5.06494 20.0649 5.06494H4.06494C3.51266 5.06494 3.06494 4.61723 3.06494 4.06494Z" fill="#09244B"/>
<path d="M10.0649 9.06494C10.0649 8.51266 10.5127 8.06494 11.0649 8.06494H20.0649C20.6172 8.06494 21.0649 8.51266 21.0649 9.06494C21.0649 9.61723 20.6172 10.0649 20.0649 10.0649H11.0649C10.5127 10.0649 10.0649 9.61723 10.0649 9.06494Z" fill="#09244B"/>
<path d="M3.12458 9.61699C3.15189 9.30034 3.4504 9.10621 3.7079 9.23773C4.14352 9.46024 4.82622 9.83351 5.64827 10.3674C6.5024 10.9222 7.1478 11.4172 7.53257 11.729C7.74734 11.903 7.73792 12.25 7.5121 12.4322C7.12737 12.7426 6.49269 13.2266 5.64746 13.7756C4.80281 14.3242 4.11322 14.7004 3.68186 14.9201C3.42842 15.0492 3.15626 14.8844 3.12984 14.5877C3.08244 14.0555 3.02434 13.1777 3.02434 12.0723C3.02434 11.0076 3.07824 10.154 3.12458 9.61699Z" fill="#09244B"/>
<path d="M10.0649 14.0649C10.0649 13.5127 10.5127 13.0649 11.0649 13.0649H20.0649C20.6172 13.0649 21.0649 13.5127 21.0649 14.0649C21.0649 14.6172 20.6172 15.0649 20.0649 15.0649H11.0649C10.5127 15.0649 10.0649 14.6172 10.0649 14.0649Z" fill="#09244B"/>
<path d="M4.06494 18.0649C3.51266 18.0649 3.06494 18.5127 3.06494 19.0649C3.06494 19.6172 3.51266 20.0649 4.06494 20.0649H20.0649C20.6172 20.0649 21.0649 19.6172 21.0649 19.0649C21.0649 18.5127 20.6172 18.0649 20.0649 18.0649H4.06494Z" fill="#09244B"/>
</svg>
