<svg width="25" height="25" viewBox="0 0 25 25" fill="none" xmlns="http://www.w3.org/2000/svg">
<rect x="0.0650024" y="0.0649414" width="24" height="24" fill="white" fill-opacity="0.01"/>
<path d="M0.0650024 0.0649414H24.065M0.0650024 0.0649414V24.0649M0.0650024 0.0649414L24.065 24.0649M24.065 0.0649414V24.0649M24.065 0.0649414L0.0650024 24.0649M24.065 24.0649H0.0650024" stroke="#DADEE4" stroke-width="0.13"/>
<circle cx="12.065" cy="12.0649" r="10" stroke="#DADEE4" stroke-width="0.13"/>
<rect x="2.065" y="4.06494" width="20" height="16" rx="1" stroke="#DADEE4" stroke-width="0.13"/>
<rect x="4.065" y="2.06494" width="16" height="20" rx="1" stroke="#DADEE4" stroke-width="0.13"/>
<rect x="3.065" y="3.06494" width="18" height="18" rx="1" stroke="#DADEE4" stroke-width="0.13"/>
<circle cx="12.065" cy="12.0649" r="4" stroke="#DADEE4" stroke-width="0.13"/>
<path d="M12.6373 2.56494H10.9355C7.51554 2.56494 5.10066 5.91541 6.18213 9.15983C6.28771 9.47654 6.4238 9.77945 6.58726 10.0649H11.4191L10.0364 9.37358C9.55945 9.13512 9.1968 8.71699 9.02818 8.21115C8.59424 6.90932 9.56322 5.56494 10.9355 5.56494H12.6373C13.8634 5.56494 14.9843 6.25768 15.5326 7.35435L15.7142 7.71742C15.7388 7.76959 15.7725 7.82943 15.8101 7.88693C15.9329 8.07481 16.0955 8.23124 16.2854 8.3466C16.6197 8.54966 17.0222 8.61557 17.4055 8.52601C17.5847 8.48446 17.7545 8.40989 17.9063 8.30691C18.0779 8.19102 18.2227 8.04107 18.3325 7.86729C18.5434 7.53385 18.6158 7.12828 18.5297 6.74058C18.5011 6.61019 18.4546 6.48378 18.3921 6.36539L18.2159 6.01276C17.1594 3.8997 14.9997 2.56494 12.6373 2.56494Z" fill="#09244B"/>
<path d="M17.793 14.5649H19.065C19.8934 14.5649 20.565 13.8934 20.565 13.0649C20.565 12.2365 19.8934 11.5649 19.065 11.5649H5.065C4.23658 11.5649 3.565 12.2365 3.565 13.0649C3.565 13.8934 4.23658 14.5649 5.065 14.5649H13.711L14.0936 14.7563C14.5705 14.9948 14.9332 15.4129 15.1018 15.9187C15.5357 17.2206 14.5668 18.5649 13.1945 18.5649H11.4926C10.2665 18.5649 9.14565 17.8722 8.59733 16.7755L8.41679 16.4144C8.38789 16.353 8.34858 16.2845 8.3041 16.2194C8.06206 15.8652 7.67856 15.6285 7.24763 15.576C7.07122 15.5541 6.89074 15.5639 6.71555 15.6059C6.54576 15.6465 6.38483 15.7165 6.23974 15.8122C5.87669 16.0506 5.63781 16.4343 5.57889 16.8604C5.55267 17.0502 5.56287 17.2437 5.61004 17.4308C5.63879 17.5456 5.68138 17.657 5.7365 17.7618L5.91404 18.1171C6.97054 20.2302 9.13018 21.5649 11.4926 21.5649H13.1945C16.6144 21.5649 19.0293 18.2145 17.9478 14.97C17.9019 14.8323 17.8502 14.6972 17.793 14.5649Z" fill="#09244B"/>
</svg>
