<svg width="14" height="14" viewBox="0 0 14 14" fill="none" xmlns="http://www.w3.org/2000/svg">
<g clip-path="url(#clip0_1552_23845)">
<path d="M7 10.99C8.933 10.99 10.5 9.42299 10.5 7.48999C10.5 5.55699 8.933 3.98999 7 3.98999C5.067 3.98999 3.5 5.55699 3.5 7.48999C3.5 9.42299 5.067 10.99 7 10.99Z" stroke="#000001" stroke-linecap="round" stroke-linejoin="round"/>
<path d="M9.34999 1.31C9.81362 1.77458 10.1291 2.36616 10.2567 3.00999C10.3843 3.65382 10.3181 4.32101 10.0666 4.92727C9.81514 5.53352 9.3896 6.05163 8.84378 6.41614C8.29796 6.78064 7.65634 6.97518 6.99999 6.97518C6.34365 6.97518 5.70203 6.78064 5.15621 6.41614C4.61038 6.05163 4.18485 5.53352 3.93337 4.92727C3.68188 4.32101 3.61574 3.65382 3.74329 3.00999C3.87084 2.36616 4.18636 1.77458 4.64999 1.31" stroke="#000001" stroke-linecap="round" stroke-linejoin="round"/>
<path d="M0.5 8.5C0.67047 7.86616 1.02499 7.29708 1.51877 6.86465C2.01254 6.43222 2.62342 6.15586 3.2742 6.07048C3.92499 5.9851 4.58648 6.09453 5.17509 6.38496C5.7637 6.67538 6.25302 7.13376 6.58122 7.70217C6.90942 8.27059 7.06177 8.92353 7.01902 9.5785C6.97627 10.2335 6.74035 10.8611 6.34105 11.382C5.94175 11.9029 5.397 12.2938 4.77564 12.5053C4.15427 12.7167 3.48417 12.7392 2.85 12.57" stroke="#000001" stroke-linecap="round" stroke-linejoin="round"/>
<path d="M11.15 12.57C10.5158 12.7392 9.84574 12.7167 9.22438 12.5053C8.60301 12.2938 8.05826 11.9029 7.65896 11.382C7.25966 10.8611 7.02374 10.2335 6.98099 9.5785C6.93824 8.92353 7.09059 8.27059 7.41879 7.70217C7.74699 7.13376 8.23631 6.67538 8.82492 6.38496C9.41353 6.09453 10.075 5.9851 10.7258 6.07048C11.3766 6.15586 11.9875 6.43222 12.4812 6.86465C12.975 7.29708 13.3295 7.86616 13.5 8.5" stroke="#000001" stroke-linecap="round" stroke-linejoin="round"/>
</g>
<defs>
<clipPath id="clip0_1552_23845">
<rect width="14" height="14" fill="white"/>
</clipPath>
</defs>
</svg>
