<svg xmlns="http://www.w3.org/2000/svg" width="32" height="32" fill="none" viewBox="0 0 32 32">
  <path fill="#000001" d="M30.475 12.19h-1.52v3.05h-1.53v-1.52h-1.52v-1.53h3.05v-1.52h-3.05V9.14h-1.52v6.1h-1.53v1.52H9.145v-1.52h-1.53v-6.1H6.1v1.53H3.045v1.52H6.1v1.53H4.575v1.52h-1.53v-3.05h-1.52v4.57h1.52v1.53H6.1v10.66h1.52v1.53h1.53V32h13.71v-1.52h1.53v-1.53h1.52V18.29h3.05v-1.53h1.52l-.005-4.57Zm-6.09 9.15H7.615v-1.53h16.77v1.53Zm0-13.72h-1.53v1.52h1.53V7.62Zm0-6.09h-1.53v3.04h1.53V1.53Zm-1.53 3.04h-1.52v3.05h1.52V4.57Zm0-4.57h-3.05v1.53h3.05V0Z"/>
  <path fill="#000001" d="M21.335 10.67h-1.53v1.52h1.53v-1.52Zm-1.53-9.14h-1.52v3.04h1.52V1.53Zm-1.52 3.04h-1.52V6.1h1.52V4.57Zm-3.05 10.67h1.53v-1.52h1.52v-1.53h-4.57v1.53h1.52v1.52Zm1.53-9.14h-1.53v1.52h1.53V6.1Zm-1.53-1.53h-1.52V6.1h1.52V4.57Zm-1.52-3.04h-1.53v3.04h1.53V1.53Zm-1.53 9.14h-1.52v1.52h1.52v-1.52Zm0-10.67h-3.04v1.53h3.04V0Zm-1.52 4.57h-1.52v3.05h1.52V4.57Zm-1.52 3.05h-1.53v1.52h1.53V7.62Zm0-6.09h-1.53v3.04h1.53V1.53Z"/>
</svg>
