<svg xmlns="http://www.w3.org/2000/svg" width="32" height="32" fill="none" viewBox="0 0 32 32">
  <path fill="#000001" d="M28.19 9.14v1.53h-1.52v1.52h1.52v1.53h1.52v-1.53h1.53v-1.52h-1.53V9.14h-1.52Zm1.52 16.77h-1.52v1.52h1.52v-1.52Zm-4.57-1.53h-1.52v1.53h1.52v1.52h1.53v-7.62h-1.53v4.57Zm1.53-19.81h-1.53V6.1h1.53V4.57Zm-1.53 13.72h-1.52v1.52h1.52v-1.52ZM20.57 4.57V3.05h-1.52V1.52h-1.53V0h-4.57v1.52h-1.52v1.53H9.9v1.52H8.38v12.19H6.86v1.53h1.52v4.57H6.86v1.52H9.9V7.62h10.67v16.76h3.05v-1.52H22.1v-4.57h1.52v-1.53H22.1V4.57h-1.53Zm-1.52 22.86h-1.53v3.05h1.53v-3.05Z"/>
  <path fill="#000001" d="M20.57 24.38H9.9v1.53h10.67v-1.53Zm-3.05-6.09H16v1.52h1.52v-1.52Zm0-7.62H16v1.52h1.52v-1.52ZM16 27.43h-1.52V32H16v-4.57Zm0-7.62h-1.52v1.52H16v-1.52Zm0-3.05h-1.52v1.53H16v-1.53Zm0-4.57h-1.52v1.53H16v-1.53Zm0-3.05h-1.52v1.53H16V9.14Zm-1.52 9.15h-1.53v1.52h1.53v-1.52Zm0-7.62h-1.53v1.52h1.53v-1.52Zm-1.53 16.76h-1.52v3.05h1.52v-3.05Zm-6.09-9.14H5.33v1.52h1.53v-1.52Zm-1.53 1.52H3.81v7.62h1.52v-1.52h1.53v-1.53H5.33v-4.57Zm0-15.24H3.81V6.1h1.52V4.57Zm-1.52 7.62H2.29v1.53h1.52v-1.53Zm0-6.09H2.29v1.52h1.52V6.1Zm0-3.05H2.29v1.52h1.52V3.05Zm-1.52 25.9H.76v1.53h1.53v-1.53Zm0-24.38H.76V6.1h1.53V4.57Z"/>
</svg>
