<svg id="Layer_1" data-name="Layer 1" xmlns="http://www.w3.org/2000/svg" viewBox="0 0 24 24"><defs><style>.cls-1{fill:#003;}</style></defs><ellipse class="cls-1" cx="8.99" cy="4.8" rx="4.21" ry="4.25"/><path class="cls-1" d="M22.09,17.31H20.24V15.44a1.41,1.41,0,1,0-2.82,0v1.87H15.56a1.42,1.42,0,0,0,0,2.84h1.86V22a1.41,1.41,0,1,0,2.82,0V20.15h1.85a1.42,1.42,0,0,0,0-2.84Z"/><path class="cls-1" d="M13.84,14a.59.59,0,0,0-.06-.95A8.84,8.84,0,0,0,9,11.66,9.08,9.08,0,0,0,.76,16.92a2.73,2.73,0,0,0,2.45,3.89H10.3a.54.54,0,0,0,.55-.58A7.43,7.43,0,0,1,13.84,14Z"/></svg>