<svg id="Layer_1" data-name="Layer 1" xmlns="http://www.w3.org/2000/svg" viewBox="0 0 24 24"><defs><style>.cls-1,.cls-2{fill:#003;}.cls-1{opacity:0.6;}</style></defs><path class="cls-1" d="M20,6V18A2,2,0,0,1,18,20H6a2,2,0,0,0,2,2H20a2,2,0,0,0,2-2V8A2,2,0,0,0,20,6Z"/><path class="cls-2" d="M16,2H4A2,2,0,0,0,2,4V16a2,2,0,0,0,2,2H16a2,2,0,0,0,2-2V4A2,2,0,0,0,16,2ZM14.3,8.29,9.46,13.12a1,1,0,0,1-.7.3,1,1,0,0,1-.71-.3L5.71,10.78a1,1,0,0,1,0-1.42,1,1,0,0,1,1.41,0L8.76,11l4.12-4.12A1,1,0,0,1,14.3,8.29Z"/></svg>