<?xml version="1.0" encoding="UTF-8"?><svg version="1.1" viewBox="0 0 24 24" xmlns="http://www.w3.org/2000/svg" xmlns:xlink="http://www.w3.org/1999/xlink"><path d="M1 7h22v-2 0c0-1.10457-.895431-2-2-2h-18l-8.74228e-08 1.77636e-15c-1.10457 4.82823e-08-2 .895431-2 2 0 0 0 8.88178e-16 0 8.88178e-16Z" fill="#003"></path><path fill="#FFA523" d="M23 10h-22v9l2.13163e-14 3.01992e-07c1.66785e-07 1.10457.895431 2 2 2h18l-8.74228e-08-3.55271e-15c1.10457 4.82823e-08 2-.89543 2-2Zm-3.5 8h-3 -6.55671e-08c-.828427-3.62117e-08-1.5-.671573-1.5-1.5 3.62117e-08-.828427.671573-1.5 1.5-1.5h3l6.06805e-08 1.77636e-15c.828427 6.25445e-08 1.5.671573 1.5 1.5 -6.25445e-08.828427-.671573 1.5-1.5 1.5Z"></path></svg>