<?xml version="1.0" encoding="UTF-8"?><svg version="1.1" viewBox="0 0 24 24" xmlns="http://www.w3.org/2000/svg" xmlns:xlink="http://www.w3.org/1999/xlink"><g fill="#003"><path d="M15.5 21.25h-7l1.21789e-07 2.2083e-10c-3.03528-.00550363-5.4945-2.46472-5.5-5.5v-.83l1.77636e-14 2.26494e-07c-1.25089e-07-.828427.671573-1.5 1.5-1.5 .828427-1.25089e-07 1.5.671573 1.5 1.5 0 0 0 1.77636e-15 0 1.77636e-15v.83l2.84217e-14-3.77489e-07c-2.08482e-07 1.38071 1.11929 2.5 2.5 2.5h7l-1.09278e-07-3.55271e-15c1.38071 6.03528e-08 2.5-1.11929 2.5-2.5v-.83l1.77636e-14 2.26494e-07c-1.25089e-07-.828427.671573-1.5 1.5-1.5 .828427-1.25089e-07 1.5.671573 1.5 1.5 0 0 0 1.77636e-15 0 1.77636e-15v.83l1.90204e-07-.000105456c-.00544549 3.03528-2.46461 5.49454-5.49989 5.50011Z"></path><path opacity=".60" d="M13.5 4.25v9.5 0c0 .828427-.671573 1.5-1.5 1.5 -.828427 0-1.5-.671573-1.5-1.5v-9.5l1.77636e-14 2.26494e-07c-1.25089e-07-.828427.671573-1.5 1.5-1.5 .828427-1.25089e-07 1.5.671573 1.5 1.5 0 0 0 8.88178e-16 0 8.88178e-16Z"></path><path d="M18.5 9.25l-1.44773e-09 3.99807e-07c-.00143933.397472-.159539.778348-.44 1.06l1.41487e-08-1.43224e-08c-.578319.585422-1.52172.59118-2.10714.0128611 -.00431314-.00426081-.00860023-.0085479-.012861-.012861l-3.94-3.94 -3.94 3.94 7.69125e-08-8.25409e-08c-.564757.606086-1.51391.63959-2.12.0748333 -.606086-.564757-.63959-1.51391-.0748333-2.12 .0240564-.0258168.0490163-.0507768.0748331-.0748332l5-5 -4.32781e-08 4.38097e-08c.578319-.585422 1.52172-.59118 2.10714-.0128611 .00431314.00426081.00860023.0085479.012861.012861l5 5 -2.68641e-08-2.69781e-08c.280461.281652.438561.662528.44 1.06Z"></path></g></svg>