<svg id="Layer_1" data-name="Layer 1" xmlns="http://www.w3.org/2000/svg" viewBox="0 0 24 24"><defs><style>.cls-1,.cls-2{fill:#003;}.cls-2{opacity:0.6;}</style></defs><path class="cls-1" d="M15.5,21.25h-7A5.51,5.51,0,0,1,3,15.75v-.83a1.5,1.5,0,0,1,3,0v.83a2.5,2.5,0,0,0,2.5,2.5h7a2.5,2.5,0,0,0,2.5-2.5v-.83a1.5,1.5,0,0,1,3,0v.83A5.51,5.51,0,0,1,15.5,21.25Z"/><path class="cls-2" d="M13.5,4.25v9.5a1.5,1.5,0,0,1-3,0V4.25a1.5,1.5,0,0,1,3,0Z"/><path class="cls-1" d="M18.5,9.25a1.51,1.51,0,0,1-.44,1.06,1.49,1.49,0,0,1-2.12,0L12,6.37,8.06,10.31A1.5,1.5,0,1,1,5.94,8.19l5-5a1.49,1.49,0,0,1,2.12,0l5,5A1.51,1.51,0,0,1,18.5,9.25Z"/></svg>