<?xml version="1.0" encoding="UTF-8"?><svg version="1.1" viewBox="0 0 24 24" xmlns="http://www.w3.org/2000/svg" xmlns:xlink="http://www.w3.org/1999/xlink"><g fill="#003"><path d="M19.9 8.46l3.48886e-07 2.42283e-07c-4.75014-3.29872-11.0499-3.29872-15.8-4.84565e-07l-2.75 1.92 -1.38998e-07 1.00633e-07c-.894701.647753-1.09489 1.89816-.44714 2.79286 .124392.171815.275325.322748.44714.44714l2.75 1.92 -6.65344e-07-4.62046e-07c4.75014 3.29872 11.0499 3.29872 15.8 9.24092e-07l2.75-1.92 -2.6266e-09 1.90163e-09c.894701-.647753 1.09489-1.89816.44714-2.79286 -.124392-.171815-.275325-.322748-.44714-.44714Zm-7.9 8.07l-1.98013e-07-3.55271e-15c-2.50185-1.09359e-07-4.53-2.02815-4.53-4.53 1.09359e-07-2.50185 2.02815-4.53 4.53-4.53 2.50185 1.09359e-07 4.53 2.02815 4.53 4.53l3.55271e-15-1.98013e-07c0 2.50185-2.02815 4.53-4.53 4.53Z"></path><path d="M12 9l-3.42168e-08 4.59899e-12c-1.68447.00022638-3.04982 1.36594-3.04959 3.05041 .00022638 1.68447 1.36594 3.04982 3.05041 3.04959 1.68447-.00022638 3.04982-1.36594 3.04959-3.05041 -2.22163e-06-.0165309-.000138838-.0330615-.000409836-.0495901l-1.73472e-08-8.84746e-07c-.0325995-1.66263-1.38706-2.99488-3.05-3Zm-.4 4.13l-6.46929e-08-1.77636e-15c-.817381-3.57289e-08-1.48-.662619-1.48-1.48 3.57289e-08-.817381.662619-1.48 1.48-1.48 .817381 3.57289e-08 1.48.662619 1.48 1.48l8.40718e-08-2.48717e-06c-.0269664.797791-.681751 1.43046-1.48 1.43Z"></path></g></svg>