<svg id="Layer_1" data-name="Layer 1" xmlns="http://www.w3.org/2000/svg" viewBox="0 0 24 24"><defs><style>.cls-1,.cls-2{fill:#003;}.cls-2{opacity:0.6;}</style></defs><path class="cls-1" d="M18.92,9.92l-.08-6.77a1,1,0,0,0-1-1l-6.77-.08a2,2,0,0,0-1.44.58L1.37,10.93a1,1,0,0,0,0,1.42l7.28,7.28a1,1,0,0,0,1.42,0l8.27-8.27A2,2,0,0,0,18.92,9.92ZM12.49,8.51a2,2,0,1,1,2.82,0A2,2,0,0,1,12.49,8.51Z"/><path class="cls-2" d="M22.84,5.14a1,1,0,0,0-1-1h-1l.07,5.76a4,4,0,0,1-1.17,2.87l-8,8,.87.87a1,1,0,0,0,1.41,0l8.27-8.27a2,2,0,0,0,.59-1.43Z"/></svg>