<svg id="Layer_1" data-name="Layer 1" xmlns="http://www.w3.org/2000/svg" viewBox="0 0 24 24"><defs><style>.cls-1{fill:#003;}.cls-2{opacity:0.6;}</style></defs><rect class="cls-1" x="3.12" y="9.54" width="10.91" height="10.65" rx="1"/><path class="cls-1" d="M17.42,4.25,16.21,6.07a.3.3,0,0,0,.25.47h4.18a1,1,0,0,0,.84-.45l1.21-1.82a.3.3,0,0,0-.25-.46H18.25A1,1,0,0,0,17.42,4.25Z"/><g class="cls-2"><path class="cls-1" d="M11.12,3.81H1.56a.3.3,0,0,0-.25.46L2.52,6.09a1,1,0,0,0,.84.45h9.55a.3.3,0,0,0,.25-.47L12,4.25A1,1,0,0,0,11.12,3.81Z"/></g><g class="cls-2"><rect class="cls-1" x="17.04" y="9.54" width="4.14" height="10.65" rx="1"/></g></svg>