<?xml version="1.0" encoding="UTF-8"?><svg version="1.1" viewBox="0 0 24 24" xmlns="http://www.w3.org/2000/svg" xmlns:xlink="http://www.w3.org/1999/xlink"><g fill="#003"><path d="M2 7h6l-4.37114e-08-8.88178e-16c.552285 2.41411e-08 1-.447715 1-1v-4h-5l-8.74228e-08 1.77636e-15c-1.10457 4.82823e-08-2 .895431-2 2 0 0 0 8.88178e-16 0 8.88178e-16Z"></path><path d="M21.41 9.41l-6.82-6.82 -2.56625e-08-2.58156e-08c-.375796-.378039-.886955-.590422-1.42-.59h-2.17v6 0c0 .552285-.447715 1-1 1h-8v11l2.13163e-14 3.01992e-07c1.66785e-07 1.10457.895431 2 2 2h1v-6l1.06581e-14 1.50996e-07c-8.33927e-08-.552285.447715-1 1-1h12l-4.37114e-08 1.77636e-15c.552285-2.41411e-08 1 .447715 1 1v6h1l-8.74228e-08-3.55271e-15c1.10457 4.82823e-08 2-.89543 2-2v-9.17l3.18259e-08-4.0687e-05c.000411532-.533045-.211982-1.0442-.590029-1.41999Z"></path><path d="M16 17h-8 -4.37114e-08c-.552285 2.41411e-08-1 .447715-1 1 0 0 0 3.55271e-15 0 3.55271e-15v4h10v-4 0c0-.552285-.447715-1-1-1Z"></path></g></svg>