<svg id="Layer_1" data-name="Layer 1" xmlns="http://www.w3.org/2000/svg" viewBox="0 0 24 24"><defs><style>.cls-1,.cls-2{fill:#003;}.cls-2{opacity:0.6;}</style></defs><path class="cls-1" d="M17.69,9H6.31a2,2,0,0,0-2,2.28l1.42,10a2,2,0,0,0,2,1.72h8.54a2,2,0,0,0,2-1.72l1.42-10A2,2,0,0,0,17.69,9ZM10.5,19a1,1,0,0,1-2,0V13a1,1,0,0,1,2,0Zm5,0a1,1,0,0,1-2,0V13a1,1,0,0,1,2,0Z"/><path class="cls-2" d="M19,3H14a2,2,0,0,0-4,0H5A1.5,1.5,0,0,0,3.5,4.5h0A1.5,1.5,0,0,0,5,6H19a1.5,1.5,0,0,0,1.5-1.5h0A1.5,1.5,0,0,0,19,3Z"/></svg>