<svg width="25" height="25" viewBox="0 0 25 25" fill="none" xmlns="http://www.w3.org/2000/svg">
<rect x="0.0649414" y="0.0649414" width="24" height="24" fill="white" fill-opacity="0.01"/>
<path d="M0.0649414 0.0649414H24.0649M0.0649414 0.0649414V24.0649M0.0649414 0.0649414L24.0649 24.0649M24.0649 0.0649414V24.0649M24.0649 0.0649414L0.0649414 24.0649M24.0649 24.0649H0.0649414" stroke="#DADEE4" stroke-width="0.13"/>
<circle cx="12.0649" cy="12.0649" r="10" stroke="#DADEE4" stroke-width="0.13"/>
<rect x="2.06494" y="4.06494" width="20" height="16" rx="1" stroke="#DADEE4" stroke-width="0.13"/>
<rect x="4.06494" y="2.06494" width="16" height="20" rx="1" stroke="#DADEE4" stroke-width="0.13"/>
<rect x="3.06494" y="3.06494" width="18" height="18" rx="1" stroke="#DADEE4" stroke-width="0.13"/>
<circle cx="12.0649" cy="12.0649" r="4" stroke="#DADEE4" stroke-width="0.13"/>
<path fill-rule="evenodd" clip-rule="evenodd" d="M7.63113 3.06494C6.92861 3.06494 6.27759 3.43354 5.91615 4.03595L3.49246 8.07542C3.21271 8.54167 3.06494 9.07518 3.06494 9.61891V19.0649C3.06494 20.1695 3.96037 21.0649 5.06494 21.0649H19.0649C20.1695 21.0649 21.0649 20.1695 21.0649 19.0649V9.61891C21.0649 9.07518 20.9172 8.54167 20.6374 8.07542L18.2137 4.03595C17.8523 3.43354 17.2013 3.06494 16.4988 3.06494H7.63113ZM13.0649 5.06494L16.4988 5.06494L18.8988 9.06494H13.0649V5.06494ZM11.0649 5.06494L7.63113 5.06494L5.23113 9.06494H11.0649V5.06494Z" fill="#09244B"/>
</svg>
