<svg width="25" height="25" viewBox="0 0 25 25" fill="none" xmlns="http://www.w3.org/2000/svg">
<rect x="0.0649414" y="0.0649414" width="24" height="24" fill="white" fill-opacity="0.01"/>
<path d="M0.0649414 0.0649414H24.0649M0.0649414 0.0649414V24.0649M0.0649414 0.0649414L24.0649 24.0649M24.0649 0.0649414V24.0649M24.0649 0.0649414L0.0649414 24.0649M24.0649 24.0649H0.0649414" stroke="#DADEE4" stroke-width="0.13"/>
<circle cx="12.0649" cy="12.0649" r="10" stroke="#DADEE4" stroke-width="0.13"/>
<rect x="2.06494" y="4.06494" width="20" height="16" rx="1" stroke="#DADEE4" stroke-width="0.13"/>
<rect x="4.06494" y="2.06494" width="16" height="20" rx="1" stroke="#DADEE4" stroke-width="0.13"/>
<rect x="3.06494" y="3.06494" width="18" height="18" rx="1" stroke="#DADEE4" stroke-width="0.13"/>
<circle cx="12.0649" cy="12.0649" r="4" stroke="#DADEE4" stroke-width="0.13"/>
<path fill-rule="evenodd" clip-rule="evenodd" d="M12.0649 2.06494C11.5127 2.06494 11.0649 2.51266 11.0649 3.06494V5.06494H5.06494C3.96037 5.06494 3.06494 5.96037 3.06494 7.06494V20.0649C3.06494 21.1695 3.96037 22.0649 5.06494 22.0649H19.0649C20.1695 22.0649 21.0649 21.1695 21.0649 20.0649V7.06494C21.0649 5.96037 20.1695 5.06494 19.0649 5.06494H13.0649V3.06494C13.0649 2.51266 12.6172 2.06494 12.0649 2.06494ZM13.0649 5.06494V11.772H16.204C16.8722 11.772 17.2068 12.5799 16.7344 13.0524L12.772 17.0147C12.3815 17.4052 11.7484 17.4052 11.3578 17.0147L7.39552 13.0524C6.92305 12.5799 7.25767 11.772 7.92585 11.772H11.0649V5.06494H13.0649Z" fill="#09244B"/>
</svg>
