<svg width="24" height="24" viewBox="0 0 24 24" fill="none" xmlns="http://www.w3.org/2000/svg">
<path fill-rule="evenodd" clip-rule="evenodd" d="M3 3H9V9H3V3ZM5 5V7H7V5H5Z" fill="black"/>
<path fill-rule="evenodd" clip-rule="evenodd" d="M3 15H9V21H3V15ZM5 19V17H7V19H5Z" fill="black"/>
<path d="M8 11V13H13V11H8Z" fill="black"/>
<path fill-rule="evenodd" clip-rule="evenodd" d="M21 9H15V3H21V9ZM19 7V5H17V7H19Z" fill="black"/>
<path d="M11 3H13L13 9H11L11 3Z" fill="black"/>
<path d="M19 17H21V11H15V13H19V17Z" fill="black"/>
<path d="M17 17V15H11L11 21H13L13 17H17Z" fill="black"/>
<path d="M3 11V13H6V11H3Z" fill="black"/>
<path d="M15 21V19H21V21H15Z" fill="black"/>
</svg>
