<svg width="25" height="25" viewBox="0 0 25 25" fill="none" xmlns="http://www.w3.org/2000/svg">
<rect width="24" height="24" transform="matrix(-1 0 0 1 24.0649 0.0649414)" fill="white" fill-opacity="0.01"/>
<path d="M15.2153 11.854H15.124L14.8911 12.4336L14.6587 11.854H14.5669L14.856 12.5649H14.9272L15.2153 11.854ZM15.2451 11.854H15.1646L15.1514 12.2876V12.5649H15.2451V11.854ZM14.6182 11.854H14.5376V12.5649H14.6313V12.2876L14.6182 11.854ZM14.2876 12.0366V12.5649H14.3784V12.0366H14.2876ZM14.3853 11.8965C14.3853 11.8818 14.3809 11.8695 14.3721 11.8594C14.363 11.8493 14.3496 11.8442 14.332 11.8442C14.3148 11.8442 14.3016 11.8493 14.2925 11.8594C14.283 11.8695 14.2783 11.8818 14.2783 11.8965C14.2783 11.9105 14.283 11.9225 14.2925 11.9326C14.3016 11.9424 14.3148 11.9473 14.332 11.9473C14.3496 11.9473 14.363 11.9424 14.3721 11.9326C14.3809 11.9225 14.3853 11.9105 14.3853 11.8965ZM14.0522 12.1494V12.5649H14.1426V12.0366H14.0571L14.0522 12.1494ZM14.0737 12.2808L14.1113 12.2793C14.111 12.2432 14.1056 12.2098 14.0952 12.1792C14.0848 12.1483 14.0701 12.1214 14.0513 12.0986C14.0324 12.0758 14.0099 12.0583 13.9839 12.0459C13.9575 12.0332 13.9284 12.0269 13.8965 12.0269C13.8704 12.0269 13.847 12.0304 13.8262 12.0376C13.8053 12.0444 13.7876 12.0555 13.7729 12.0708C13.758 12.0861 13.7466 12.106 13.7388 12.1304C13.731 12.1545 13.7271 12.1839 13.7271 12.2188V12.5649H13.8179V12.2178C13.8179 12.1901 13.8219 12.168 13.8301 12.1514C13.8382 12.1344 13.8501 12.1222 13.8657 12.1147C13.8813 12.1069 13.9006 12.103 13.9233 12.103C13.9458 12.103 13.9663 12.1077 13.9849 12.1172C14.0031 12.1266 14.0189 12.1396 14.0322 12.1562C14.0452 12.1729 14.0555 12.1919 14.063 12.2134C14.0701 12.2345 14.0737 12.257 14.0737 12.2808ZM13.2476 12.0366H13.1655V12.5537C13.1655 12.6003 13.175 12.64 13.1938 12.6729C13.2127 12.7057 13.2391 12.7306 13.2729 12.7476C13.3065 12.7648 13.3452 12.7734 13.3892 12.7734C13.4074 12.7734 13.4289 12.7705 13.4536 12.7646C13.478 12.7591 13.5021 12.7495 13.5259 12.7358C13.5493 12.7225 13.569 12.7044 13.585 12.6816L13.5376 12.6279C13.5155 12.6546 13.4924 12.6732 13.4683 12.6836C13.4438 12.694 13.4198 12.6992 13.396 12.6992C13.3674 12.6992 13.3426 12.6938 13.3218 12.6831C13.3009 12.6724 13.2848 12.6564 13.2734 12.6353C13.2617 12.6144 13.2559 12.5887 13.2559 12.5581V12.1528L13.2476 12.0366ZM13.6113 12.3066V12.2964C13.6113 12.256 13.6066 12.2194 13.5972 12.1865C13.5874 12.1533 13.5736 12.1248 13.5557 12.1011C13.5374 12.0773 13.5155 12.0591 13.4897 12.0464C13.464 12.0334 13.4351 12.0269 13.4028 12.0269C13.3696 12.0269 13.3407 12.0327 13.3159 12.0444C13.2909 12.0558 13.2697 12.0726 13.2524 12.0947C13.2349 12.1165 13.221 12.1429 13.2109 12.1738C13.2008 12.2048 13.1938 12.2397 13.1899 12.2788V12.3237C13.1935 12.3625 13.2005 12.3973 13.2109 12.4282C13.221 12.4591 13.2349 12.4855 13.2524 12.5073C13.2697 12.5291 13.2909 12.5459 13.3159 12.5576C13.341 12.569 13.3703 12.5747 13.4038 12.5747C13.4354 12.5747 13.464 12.568 13.4897 12.5547C13.5151 12.5413 13.5369 12.5226 13.5552 12.4985C13.5734 12.4744 13.5874 12.4461 13.5972 12.4136C13.6066 12.3807 13.6113 12.3451 13.6113 12.3066ZM13.521 12.2964V12.3066C13.521 12.333 13.5184 12.3577 13.5132 12.3809C13.5076 12.404 13.4993 12.4243 13.4883 12.4419C13.4769 12.4595 13.4624 12.4733 13.4448 12.4834C13.4272 12.4932 13.4062 12.498 13.3818 12.498C13.3519 12.498 13.3271 12.4917 13.3076 12.479C13.2881 12.4663 13.2726 12.4495 13.2612 12.4287C13.2495 12.4079 13.2404 12.3853 13.2339 12.3608V12.2432C13.2375 12.2253 13.243 12.208 13.2505 12.1914C13.2576 12.1745 13.2671 12.1595 13.2788 12.1465C13.2902 12.1331 13.3044 12.1226 13.3213 12.1147C13.3382 12.1069 13.3581 12.103 13.3809 12.103C13.4056 12.103 13.4269 12.1082 13.4448 12.1187C13.4624 12.1287 13.4769 12.1427 13.4883 12.1606C13.4993 12.1782 13.5076 12.1987 13.5132 12.2222C13.5184 12.2453 13.521 12.27 13.521 12.2964ZM12.5854 12.3389H12.4917C12.4966 12.3838 12.5094 12.424 12.5303 12.4595C12.5511 12.495 12.5806 12.5231 12.6187 12.5439C12.6567 12.5645 12.7043 12.5747 12.7612 12.5747C12.8029 12.5747 12.8408 12.5669 12.875 12.5513C12.9089 12.5356 12.938 12.5135 12.9624 12.4849C12.9868 12.4559 13.0057 12.4212 13.019 12.3809C13.0321 12.3402 13.0386 12.2949 13.0386 12.2451V12.1743C13.0386 12.1245 13.0321 12.0794 13.019 12.0391C13.0057 11.9984 12.9867 11.9635 12.9619 11.9346C12.9368 11.9056 12.9067 11.8833 12.8716 11.8677C12.8364 11.8521 12.7969 11.8442 12.7529 11.8442C12.6992 11.8442 12.6538 11.8543 12.6167 11.8745C12.5796 11.8947 12.5508 11.9227 12.5303 11.9585C12.5094 11.994 12.4966 12.0352 12.4917 12.082H12.5854C12.59 12.0488 12.5985 12.0203 12.6108 11.9966C12.6232 11.9725 12.6408 11.9539 12.6636 11.9409C12.6864 11.9279 12.7161 11.9214 12.7529 11.9214C12.7845 11.9214 12.8123 11.9274 12.8364 11.9395C12.8602 11.9515 12.8802 11.9686 12.8965 11.9907C12.9124 12.0129 12.9245 12.0394 12.9326 12.0703C12.9408 12.1012 12.9448 12.1356 12.9448 12.1733V12.2451C12.9448 12.2799 12.9412 12.3127 12.9341 12.3433C12.9266 12.3739 12.9154 12.4007 12.9004 12.4238C12.8854 12.4469 12.8664 12.4652 12.8433 12.4785C12.8201 12.4915 12.7928 12.498 12.7612 12.498C12.7212 12.498 12.6893 12.4917 12.6655 12.479C12.6418 12.4663 12.6239 12.4481 12.6118 12.4243C12.5994 12.4006 12.5907 12.3721 12.5854 12.3389ZM12.0537 12.4429V12.0366H11.9629V12.5649H12.0493L12.0537 12.4429ZM12.0366 12.3315L11.999 12.3306C11.999 12.3657 12.0028 12.3983 12.0103 12.4282C12.0174 12.4578 12.0291 12.4836 12.0454 12.5054C12.0617 12.5272 12.083 12.5443 12.1094 12.5566C12.1357 12.5687 12.1678 12.5747 12.2056 12.5747C12.2313 12.5747 12.2549 12.571 12.2764 12.5635C12.2975 12.556 12.3158 12.5444 12.3311 12.5288C12.3464 12.5132 12.3582 12.4928 12.3667 12.4678C12.3748 12.4427 12.3789 12.4126 12.3789 12.3774V12.0366H12.2886V12.3784C12.2886 12.4022 12.286 12.4219 12.2808 12.4375C12.2752 12.4528 12.2679 12.465 12.2588 12.4741C12.2493 12.4829 12.2389 12.4891 12.2275 12.4927C12.2158 12.4963 12.2038 12.498 12.1914 12.498C12.153 12.498 12.1226 12.4907 12.1001 12.4761C12.0776 12.4611 12.0615 12.4411 12.0518 12.416C12.0417 12.3906 12.0366 12.3625 12.0366 12.3315ZM11.604 12.0366V12.106H11.8896V12.0366H11.604ZM11.793 11.9082H11.7026V12.4341C11.7026 12.452 11.6999 12.4655 11.6943 12.4746C11.6888 12.4837 11.6816 12.4897 11.6729 12.4927C11.6641 12.4956 11.6546 12.4971 11.6445 12.4971C11.637 12.4971 11.6292 12.4964 11.6211 12.4951C11.6126 12.4935 11.6063 12.4922 11.6021 12.4912L11.6016 12.5649C11.6087 12.5672 11.6182 12.5693 11.6299 12.5713C11.6413 12.5736 11.6551 12.5747 11.6714 12.5747C11.6935 12.5747 11.7139 12.5703 11.7324 12.5615C11.751 12.5527 11.7658 12.5381 11.7769 12.5176C11.7876 12.4967 11.793 12.4688 11.793 12.4336V11.9082ZM11.2788 12.5747C11.3156 12.5747 11.349 12.5685 11.3789 12.5562C11.4085 12.5435 11.4341 12.5257 11.4556 12.5029C11.4767 12.4801 11.493 12.4531 11.5044 12.4219C11.5158 12.3906 11.5215 12.3564 11.5215 12.3193V12.2988C11.5215 12.2559 11.5151 12.2176 11.5024 12.1841C11.4897 12.1502 11.4725 12.1216 11.4507 12.0981C11.4289 12.0747 11.4041 12.057 11.3765 12.0449C11.3488 12.0329 11.3201 12.0269 11.2905 12.0269C11.2528 12.0269 11.2202 12.0334 11.1929 12.0464C11.1652 12.0594 11.1426 12.0776 11.125 12.1011C11.1074 12.1242 11.0944 12.1515 11.0859 12.1831C11.0775 12.2144 11.0732 12.2485 11.0732 12.2856V12.3262H11.4678V12.2524H11.1636V12.2456C11.1649 12.2222 11.1698 12.1994 11.1782 12.1772C11.1864 12.1551 11.1994 12.1369 11.2173 12.1226C11.2352 12.1082 11.2596 12.1011 11.2905 12.1011C11.311 12.1011 11.3299 12.1055 11.3472 12.1143C11.3644 12.1227 11.3792 12.1354 11.3916 12.1523C11.404 12.1693 11.4136 12.1899 11.4204 12.2144C11.4272 12.2388 11.4307 12.2669 11.4307 12.2988V12.3193C11.4307 12.3444 11.4272 12.368 11.4204 12.3901C11.4132 12.4119 11.403 12.4312 11.3896 12.4478C11.376 12.4644 11.3595 12.4774 11.3403 12.4868C11.3208 12.4963 11.2987 12.501 11.2739 12.501C11.242 12.501 11.215 12.4945 11.1929 12.4814C11.1707 12.4684 11.1514 12.451 11.1348 12.4292L11.0801 12.4727C11.0915 12.4899 11.106 12.5063 11.1235 12.522C11.1411 12.5376 11.1628 12.5503 11.1885 12.5601C11.2139 12.5698 11.244 12.5747 11.2788 12.5747ZM10.9663 12.5171C10.9663 12.5018 10.9616 12.4889 10.9521 12.4785C10.9424 12.4678 10.9284 12.4624 10.9102 12.4624C10.8919 12.4624 10.8781 12.4678 10.8687 12.4785C10.8589 12.4889 10.854 12.5018 10.854 12.5171C10.854 12.5321 10.8589 12.5448 10.8687 12.5552C10.8781 12.5656 10.8919 12.5708 10.9102 12.5708C10.9284 12.5708 10.9424 12.5656 10.9521 12.5552C10.9616 12.5448 10.9663 12.5321 10.9663 12.5171ZM10.4927 12.5005C10.4712 12.5005 10.4513 12.4961 10.4331 12.4873C10.4149 12.4785 10.3999 12.4665 10.3882 12.4512C10.3765 12.4355 10.3698 12.4178 10.3682 12.3979H10.2822C10.2839 12.4292 10.2944 12.4583 10.314 12.4854C10.3332 12.512 10.3584 12.5337 10.3896 12.5503C10.4209 12.5666 10.4552 12.5747 10.4927 12.5747C10.5324 12.5747 10.5671 12.5677 10.5967 12.5537C10.626 12.5397 10.6504 12.5205 10.6699 12.4961C10.6891 12.4717 10.7036 12.4437 10.7134 12.4121C10.7228 12.3802 10.7275 12.3465 10.7275 12.311V12.2905C10.7275 12.255 10.7228 12.2215 10.7134 12.1899C10.7036 12.158 10.6891 12.1299 10.6699 12.1055C10.6504 12.0811 10.626 12.0618 10.5967 12.0479C10.5671 12.0339 10.5324 12.0269 10.4927 12.0269C10.4513 12.0269 10.4152 12.0353 10.3843 12.0522C10.3534 12.0688 10.3291 12.0916 10.3115 12.1206C10.2936 12.1493 10.2839 12.1818 10.2822 12.2183H10.3682C10.3698 12.1965 10.376 12.1768 10.3867 12.1592C10.3971 12.1416 10.4115 12.1276 10.4297 12.1172C10.4476 12.1064 10.4686 12.1011 10.4927 12.1011C10.5203 12.1011 10.5436 12.1066 10.5625 12.1177C10.5811 12.1284 10.5959 12.1431 10.6069 12.1616C10.6177 12.1799 10.6255 12.2002 10.6304 12.2227C10.6349 12.2448 10.6372 12.2674 10.6372 12.2905V12.311C10.6372 12.3341 10.6349 12.3569 10.6304 12.3794C10.6258 12.4019 10.6182 12.4222 10.6074 12.4404C10.5964 12.4587 10.5815 12.4733 10.563 12.4844C10.5441 12.4951 10.5207 12.5005 10.4927 12.5005ZM10.2046 12.3066V12.2954C10.2046 12.2573 10.1991 12.222 10.188 12.1895C10.1769 12.1566 10.161 12.1281 10.1401 12.104C10.1193 12.0796 10.0941 12.0607 10.0645 12.0474C10.0348 12.0337 10.0016 12.0269 9.96484 12.0269C9.92773 12.0269 9.89437 12.0337 9.86475 12.0474C9.8348 12.0607 9.80941 12.0796 9.78857 12.104C9.76742 12.1281 9.7513 12.1566 9.74023 12.1895C9.72917 12.222 9.72363 12.2573 9.72363 12.2954V12.3066C9.72363 12.3447 9.72917 12.38 9.74023 12.4126C9.7513 12.4451 9.76742 12.4736 9.78857 12.498C9.80941 12.5221 9.83464 12.541 9.86426 12.5547C9.89355 12.568 9.92676 12.5747 9.96387 12.5747C10.001 12.5747 10.0343 12.568 10.064 12.5547C10.0936 12.541 10.119 12.5221 10.1401 12.498C10.161 12.4736 10.1769 12.4451 10.188 12.4126C10.1991 12.38 10.2046 12.3447 10.2046 12.3066ZM10.1143 12.2954V12.3066C10.1143 12.333 10.1112 12.3579 10.105 12.3813C10.0988 12.4045 10.0895 12.425 10.0771 12.4429C10.0645 12.4608 10.0487 12.4749 10.0298 12.4854C10.0109 12.4954 9.98893 12.5005 9.96387 12.5005C9.93913 12.5005 9.91748 12.4954 9.89893 12.4854C9.88005 12.4749 9.86442 12.4608 9.85205 12.4429C9.83968 12.425 9.8304 12.4045 9.82422 12.3813C9.81771 12.3579 9.81445 12.333 9.81445 12.3066V12.2954C9.81445 12.2694 9.81771 12.2448 9.82422 12.2217C9.8304 12.1982 9.83984 12.1776 9.85254 12.1597C9.86491 12.1414 9.88053 12.1271 9.89941 12.1167C9.91797 12.1063 9.93978 12.1011 9.96484 12.1011C9.98958 12.1011 10.0114 12.1063 10.0303 12.1167C10.0488 12.1271 10.0645 12.1414 10.0771 12.1597C10.0895 12.1776 10.0988 12.1982 10.105 12.2217C10.1112 12.2448 10.1143 12.2694 10.1143 12.2954ZM9.52051 12.1416V12.5649H9.61133V12.0366H9.52539L9.52051 12.1416ZM9.53906 12.2808L9.58105 12.2793C9.58073 12.2432 9.57601 12.2098 9.56689 12.1792C9.55778 12.1483 9.54427 12.1214 9.52637 12.0986C9.50846 12.0758 9.48617 12.0583 9.45947 12.0459C9.43278 12.0332 9.40186 12.0269 9.3667 12.0269C9.34196 12.0269 9.31917 12.0304 9.29834 12.0376C9.27751 12.0444 9.25944 12.0553 9.24414 12.0703C9.22884 12.0853 9.21696 12.1045 9.2085 12.1279C9.20003 12.1514 9.1958 12.1797 9.1958 12.2129V12.5649H9.28613V12.2173C9.28613 12.1896 9.29085 12.1675 9.30029 12.1509C9.30941 12.1343 9.32243 12.1222 9.33936 12.1147C9.35628 12.1069 9.37614 12.103 9.39893 12.103C9.42562 12.103 9.44792 12.1077 9.46582 12.1172C9.48372 12.1266 9.49805 12.1396 9.50879 12.1562C9.51953 12.1729 9.52734 12.1919 9.53223 12.2134C9.53678 12.2345 9.53906 12.257 9.53906 12.2808ZM9.19678 12.231L9.25732 12.2495C9.257 12.2205 9.25228 12.1927 9.24316 12.166C9.23372 12.1393 9.22021 12.1156 9.20264 12.0947C9.18473 12.0739 9.16276 12.0575 9.13672 12.0454C9.11068 12.033 9.08089 12.0269 9.04736 12.0269C9.01904 12.0269 8.99398 12.0306 8.97217 12.0381C8.95003 12.0456 8.93148 12.0571 8.9165 12.0728C8.9012 12.0881 8.88965 12.1077 8.88184 12.1318C8.87402 12.1559 8.87012 12.1846 8.87012 12.2178V12.5649H8.96094V12.2168C8.96094 12.1872 8.96566 12.1642 8.9751 12.1479C8.98421 12.1313 8.99723 12.1198 9.01416 12.1133C9.03076 12.1064 9.05062 12.103 9.07373 12.103C9.09359 12.103 9.11117 12.1064 9.12646 12.1133C9.14176 12.1201 9.15462 12.1296 9.16504 12.1416C9.17546 12.1533 9.18343 12.1668 9.18896 12.1821C9.19417 12.1974 9.19678 12.2137 9.19678 12.231Z" fill="#F2F4F6"/>
<path d="M24.0649 0.0649414H0.0649414M24.0649 0.0649414V24.0649M24.0649 0.0649414L0.0649414 24.0649M0.0649414 0.0649414V24.0649M0.0649414 0.0649414L24.0649 24.0649M0.0649414 24.0649H24.0649" stroke="#DADEE4" stroke-width="0.13"/>
<circle cx="10" cy="10" r="10" transform="matrix(-1 0 0 1 22.0649 2.06494)" stroke="#DADEE4" stroke-width="0.13"/>
<rect width="20" height="16" rx="1" transform="matrix(-1 0 0 1 22.0649 4.06494)" stroke="#DADEE4" stroke-width="0.13"/>
<rect width="16" height="20" rx="1" transform="matrix(-1 0 0 1 20.0649 2.06494)" stroke="#DADEE4" stroke-width="0.13"/>
<rect width="18" height="18" rx="1" transform="matrix(-1 0 0 1 21.0649 3.06494)" stroke="#DADEE4" stroke-width="0.13"/>
<circle cx="4" cy="4" r="4" transform="matrix(-1 0 0 1 16.0649 8.06494)" stroke="#DADEE4" stroke-width="0.13"/>
<path d="M12.5794 6.20736C13.053 6.4915 13.2066 7.10576 12.9224 7.57934L10.8311 11.0648H13.0473C13.8324 11.0648 14.3173 11.9213 13.9133 12.5945L10.9224 17.5793C10.6383 18.0529 10.024 18.2065 9.55045 17.9223C9.07687 17.6382 8.9233 17.0239 9.20745 16.5504L11.2988 13.0648H9.0826C8.29754 13.0648 7.81262 12.2084 8.21654 11.5352L11.2074 6.55035C11.4916 6.07677 12.1059 5.92321 12.5794 6.20736Z" fill="#09244B"/>
<path d="M2.06494 8.06485C2.06494 6.96028 2.96037 6.06485 4.06494 6.06485H8.06494C8.61723 6.06485 9.06494 6.51256 9.06494 7.06485C9.06494 7.61713 8.61723 8.06485 8.06494 8.06485L4.06494 8.06485V16.0648H7.06494C7.61723 16.0648 8.06494 16.5126 8.06494 17.0648C8.06494 17.6171 7.61723 18.0648 7.06494 18.0648H4.06494C2.96037 18.0648 2.06494 17.1694 2.06494 16.0648V8.06485Z" fill="#09244B"/>
<path d="M14.0649 7.06485C14.0649 6.51256 14.5127 6.06485 15.0649 6.06485H18.0649C19.1695 6.06485 20.0649 6.96028 20.0649 8.06485V9.06485C21.1695 9.06485 22.0649 9.96028 22.0649 11.0648V13.0648C22.0649 14.1694 21.1695 15.0648 20.0649 15.0648V16.0648C20.0649 17.1694 19.1695 18.0648 18.0649 18.0648H14.0649C13.5127 18.0648 13.0649 17.6171 13.0649 17.0648C13.0649 16.5126 13.5127 16.0648 14.0649 16.0648H18.0649V8.06485H15.0649C14.5127 8.06485 14.0649 7.61713 14.0649 7.06485Z" fill="#09244B"/>
</svg>
