<svg width="24" height="24" viewBox="0 0 24 24" fill="none" xmlns="http://www.w3.org/2000/svg">
<g clip-path="url(#clip0_16_1240)">
<path d="M1.58378 13.007C0.800333 11.0347 0.832458 8.83199 1.67309 6.88339C2.51372 4.93479 4.094 3.39995 6.06628 2.6165C8.03857 1.83305 10.2413 1.86517 12.1899 2.7058C14.1385 3.54644 15.6733 5.12672 16.4568 7.099C17.2949 6.93704 18.1593 6.9724 18.9814 7.20227C19.8035 7.43215 20.5608 7.85024 21.1934 8.42344C21.826 8.99664 22.3164 9.70922 22.626 10.5048C22.9355 11.3003 23.0556 12.157 22.9768 13.007H1.58378ZM3.99978 19H20.9998V21H3.99978V19ZM1.99978 15H22.9998V17H1.99978V15Z" fill="#09121F"/>
</g>
<defs>
<clipPath id="clip0_16_1240">
<rect width="24" height="24" fill="white"/>
</clipPath>
</defs>
</svg>
