<svg width="24" height="24" viewBox="0 0 24 24" fill="none" xmlns="http://www.w3.org/2000/svg">
<g clip-path="url(#clip0_16_2130)">
<path d="M8.66984 5.00706C9.32614 3.61869 10.4208 2.48467 11.7851 1.77974C13.1494 1.07481 14.7077 0.838091 16.2198 1.10606C15.9621 1.89594 15.928 2.74176 16.1215 3.5498C16.3149 4.35784 16.7283 5.09654 17.3158 5.68406C17.9034 6.27157 18.6421 6.68496 19.4501 6.87841C20.2581 7.07186 21.104 7.03782 21.8938 6.78006C21.9638 7.17606 21.9998 7.58406 21.9998 8.00006C22.0016 9.17948 21.7039 10.34 21.1348 11.3731C21.9733 12.1117 22.5669 13.0881 22.8366 14.1725C23.1063 15.2568 23.0393 16.3976 22.6446 17.4429C22.2499 18.4882 21.5462 19.3886 20.6271 20.024C19.708 20.6595 18.6172 20.9999 17.4998 21.0001H8.99984C6.90748 20.9989 4.89886 20.178 3.40457 18.7134C1.91028 17.2488 1.04926 15.257 1.0061 13.1651C0.962934 11.0732 1.74106 9.04761 3.17366 7.52261C4.60626 5.99761 6.57931 5.09456 8.66984 5.00706ZM10.8468 5.21406C12.1071 5.51436 13.2758 6.11565 14.2528 6.96641C15.2298 7.81718 15.9861 8.89208 16.4568 10.0991C17.4474 9.90922 18.471 9.99395 19.4168 10.3441C19.6428 9.91906 19.8098 9.45906 19.9048 8.97406C18.3926 8.83468 16.9769 8.17035 15.9032 7.09633C14.8295 6.02231 14.1657 4.60634 14.0268 3.09406C12.7281 3.35205 11.5845 4.11441 10.8468 5.21406Z" fill="#09121F"/>
</g>
<defs>
<clipPath id="clip0_16_2130">
<rect width="24" height="24" fill="white"/>
</clipPath>
</defs>
</svg>
