<svg width="24" height="24" viewBox="0 0 24 24" fill="none" xmlns="http://www.w3.org/2000/svg">
<g clip-path="url(#clip0_16_270)">
<path d="M18.5861 20H4.00007C3.90721 20 3.81619 19.9741 3.7372 19.9253C3.65821 19.8765 3.59438 19.8067 3.55285 19.7236C3.51133 19.6406 3.49375 19.5476 3.50209 19.4551C3.51043 19.3626 3.54435 19.2743 3.60007 19.2L4.00007 18.667V10C4.00007 8.67001 4.32407 7.41601 4.89907 6.31301L1.39307 2.80801L2.80807 1.39301L22.6071 21.193L21.1921 22.607L18.5861 20ZM6.40807 7.82201C6.13768 8.51628 5.99931 9.25494 6.00007 10V18H16.5861L6.40807 7.82201ZM20.0001 15.786L18.0001 13.786V10C18.0003 8.94767 17.7237 7.9138 17.1981 7.00212C16.6725 6.09045 15.9163 5.33305 15.0055 4.80593C14.0947 4.2788 13.0613 4.00049 12.009 3.99893C10.9567 3.99736 9.92242 4.27259 9.01007 4.79701L7.56007 3.34501C8.7648 2.54122 10.1651 2.07955 11.6117 2.00924C13.0582 1.93893 14.4967 2.26262 15.7737 2.94578C17.0508 3.62894 18.1184 4.64594 18.8627 5.88829C19.607 7.13064 20.0001 8.55175 20.0001 10V15.786ZM9.50007 21H14.5001C14.5001 21.663 14.2367 22.2989 13.7678 22.7678C13.299 23.2366 12.6631 23.5 12.0001 23.5C11.337 23.5 10.7011 23.2366 10.2323 22.7678C9.76346 22.2989 9.50007 21.663 9.50007 21Z" fill="#09121F"/>
</g>
<defs>
<clipPath id="clip0_16_270">
<rect width="24" height="24" fill="white"/>
</clipPath>
</defs>
</svg>
