<svg xmlns="http://www.w3.org/2000/svg" width="32" height="32" fill="none" viewBox="0 0 32 32">
  <g clip-path="url(#a)">
    <path fill="#000001" d="M32 28.95h-1.53v1.53H32v-1.53ZM30.47 1.52h-1.52v1.53h-1.52v1.52h1.52V6.1h1.52V4.57H32V3.05h-1.53V1.52Zm0 21.34h-1.52v1.52h1.52v-1.52Zm-1.52 1.52h-1.52v1.53h1.52v-1.53Zm0-3.05h-1.52v1.53h1.52v-1.53Zm0-6.09h-1.52v1.52h1.52v-1.52Zm0-6.1h-1.52v1.53h1.52V9.14Zm-1.52 13.72H25.9v1.52h1.53v-1.52Zm0-6.1H25.9v1.53h1.53v-1.53Zm0-9.14H25.9v1.52h1.53V7.62ZM25.9 18.29h-1.52v1.52h1.52v-1.52Zm0-12.19h-1.52v1.52h1.52V6.1ZM24.38 32v-1.52h1.52v-1.53h-1.52v-1.52h-1.53v1.52h-1.52v1.53h1.52V32h1.53Zm0-12.19h-1.53v1.52h1.53v-1.52Zm-1.53 1.52h-1.52v1.53h1.52v-1.53Zm0-6.09h-1.52v1.52h1.52v-1.52Zm0-6.1h-1.52v1.53h1.52V9.14Zm0-7.62h-1.52v1.53h1.52V1.52Zm-1.52 21.34h-1.52v1.52h1.52v-1.52Zm0-6.1h-1.52v3.05h1.52v-3.05Zm0-9.14h-1.52v1.52h1.52V7.62Zm-1.52 12.19h-1.53v3.05h1.53v-3.05Z"/>
    <path fill="#000001" d="M18.28 22.86h-1.52v4.57h1.52v-1.52h1.53v-1.53h-1.53v-1.52Zm0-22.86h-1.52v1.52h1.52V0Zm-1.52 27.43h-3.05v1.52h3.05v-1.52Zm-3.05-4.57h-1.52v1.52h-1.53v1.53h1.53v1.52h1.52v-4.57Zm-1.52-3.05h-1.53v3.05h1.53v-3.05Zm-1.53 3.05H9.14v1.52h1.52v-1.52Zm0-6.1H9.14v3.05h1.52v-3.05Zm0-9.14H9.14v1.52h1.52V7.62Zm0-6.1H9.14v1.53h1.52V1.52ZM9.14 27.43H7.62v1.52h1.52v-1.52Zm0-6.1H7.62v1.53h1.52v-1.53Zm0-6.09H7.62v1.52h1.52v-1.52Zm0-6.1H7.62v1.53h1.52V9.14Zm1.52-3.04v1.52h1.53V6.1h6.09v1.52h1.53V6.1h4.57V4.57H6.09V6.1h4.57ZM7.62 19.81H6.09v1.52h1.53v-1.52Zm-1.53-1.52H4.57v1.52h1.52v-1.52Zm0-12.19H4.57v1.52h1.52V6.1ZM4.57 24.38H3.04v1.53h1.53v-1.53Zm0-7.62H3.04v1.53h1.53v-1.53Zm0-9.14H3.04v1.52h1.53V7.62ZM3.04 30.48H1.52V32h1.52v-1.52Zm0-4.57H1.52v1.52h1.52v-1.52Zm0-3.05H1.52v1.52h1.52v-1.52Zm0-7.62H1.52v1.52h1.52v-1.52Zm-1.52-1.53h4.57v1.53h1.53v-1.53h15.23v1.53h1.53v-1.53h4.57v1.53h1.52v-4.57h-1.52v1.52h-4.57v-1.52h-1.53v1.52H7.62v-1.52H6.09v1.52H1.52v-1.52H0v4.57h1.52v-1.53Zm1.52-4.57H1.52v1.53h1.52V9.14ZM1.52 4.57h1.52V3.05h1.53V1.52H3.04V0H1.52v1.52H0v1.53h1.52v1.52Zm0 19.81H0v1.53h1.52v-1.53Z"/>
  </g>
  <defs>
    <clipPath id="a">
      <path fill="#fff" d="M0 0h32v32H0z"/>
    </clipPath>
  </defs>
</svg>
