<svg xmlns="http://www.w3.org/2000/svg" width="32" height="32" fill="none" viewBox="0 0 32 32">
  <path fill="#000001" d="M3.045 16h10.67v10.67h-9.15v-1.52h-1.52v3.05h1.52v1.52h22.86V28.2h1.53v-1.53h1.52V5.335h-1.52v-1.53h-1.53v-1.52H4.565v1.52h9.15v10.67H3.045v-9.14h-1.52v19.81h1.52V16Zm12.19-12.19h9.14v1.53h1.53v9.14h-10.67V3.81Zm0 12.19h10.67v9.15h-1.53v1.52h-9.14V16Z"/>
  <path fill="#000001" d="M22.855 22.095h-4.57v1.52h4.57v-1.52Zm0-3.05h-4.57v1.53h4.57v-1.53Zm0-10.66h-4.57v1.52h4.57v-1.52Zm-12.19 13.71h-1.52v1.52h1.52v-1.52Zm0-3.05h-1.52v1.53h1.52v-1.53Zm-1.52 1.53h-1.53v1.52h1.53v-1.52Zm-1.53-9.15h1.53v-1.52h1.52v-1.52h-1.52v-1.53h-1.53v1.53h-1.52v1.52h1.52v1.52Zm0 10.67h-1.52v1.52h1.52v-1.52Zm0-3.05h-1.52v1.53h1.52v-1.53Zm-3.05-15.24h-1.52v1.53h1.52v-1.53Z"/>
</svg>
