<svg xmlns="http://www.w3.org/2000/svg" width="32" height="32" fill="none" viewBox="0 0 32 32">
  <g clip-path="url(#a)">
    <path fill="#000001" d="M32 4.57h-1.53v7.62H32V4.57Zm-1.53 7.62h-1.52v1.52h1.52v-1.52Zm0-9.14h-1.52v1.52h1.52V3.05Zm-3.04 24.38v-4.57h3.04v-1.53h-1.52v-1.52h-1.52v-1.52H25.9v1.52h-1.52v1.52h-1.53v1.53h3.05v4.57h1.53Zm1.52-13.72h-1.52v1.53h1.52v-1.53Zm0-12.19h-1.52v1.53h1.52V1.52Zm-1.52 7.62H25.9v1.53h1.53V9.14ZM25.9 27.43h-1.52v1.52h1.52v-1.52Zm1.53-12.19h-7.62v1.52h7.62v-1.52ZM25.9 7.62h-4.57v1.52h4.57V7.62Zm-4.57 3.05v1.52h1.52v1.52h1.53v-1.52h1.52v-1.52h-4.57ZM25.9 6.1V4.57h-1.52V3.05h-1.53v1.52h-1.52V6.1h4.57Zm-1.52 22.85h-6.1v1.53h6.1v-1.53ZM27.43 0h-7.62v1.52h7.62V0Zm-6.1 6.1h-1.52v1.52h1.52V6.1Zm-1.52 7.61h-1.53v1.53h1.53v-1.53Zm0-12.19h-1.53v1.53h1.53V1.52Zm-1.53 10.67h-1.52v1.52h1.52v-1.52Zm0-9.14h-1.52v1.52h1.52V3.05Zm-1.52 16.76h-1.52v7.62h1.52v-7.62Zm0-15.24h-1.52v7.62h1.52V4.57Zm-1.52 22.86h-1.53v1.52h1.53v-1.52Zm0-9.14h-1.53v1.52h1.53v-1.52Zm-1.53 10.66h-1.52v1.53h1.52v-1.53Zm0-12.19h-1.52v1.53h1.52v-1.53Zm-1.52 13.72H4.57V32h7.62v-1.52Zm1.52-28.96H7.62v1.53h6.09V1.52Zm-3.05 25.91H7.62v1.52h3.04v-1.52Zm0-9.14H7.62v1.52h3.04v-1.52Zm-4.57 9.14h1.53v-1.52h1.52v-1.53H6.09v-1.52h4.57v-1.53H7.62v-1.52H6.09v1.52H3.04v1.53h1.53v1.52H3.04v1.53h3.05v1.52Zm6.1-12.19H4.57v1.52h7.62v-1.52ZM7.62 3.05H6.09v1.52h1.53V3.05Zm-3.05 25.9H3.04v1.53h1.53v-1.53Zm0-12.19H3.04v1.53h1.53v-1.53Zm-1.53-4.57h1.53v1.52h1.52v-1.52h1.53v-1.52h1.52V9.14H6.09V4.57H4.57v4.57H1.52v1.53h1.52v1.52Zm0 15.24H1.52v1.52h1.52v-1.52Zm0-9.14H1.52v1.52h1.52v-1.52Zm-1.52 1.52H0v7.62h1.52v-7.62Z"/>
  </g>
  <defs>
    <clipPath id="a">
      <path fill="#fff" d="M0 0h32v32H0z"/>
    </clipPath>
  </defs>
</svg>
