<svg xmlns="http://www.w3.org/2000/svg" width="32" height="32" fill="none" viewBox="0 0 32 32">
  <g clip-path="url(#a)">
    <path fill="#000001" d="M28.95 16.76v1.53H32v-4.57h-1.52v3.04h-1.53ZM32 1.53h-1.52v7.62H32V1.53Zm-1.52 10.66h-1.53v1.53h1.53v-1.53Zm-1.53 9.15h-1.52v6.09h1.52v-6.09Z"/>
    <path fill="#000001" d="M27.43 10.67h-6.09v1.52h3.04v7.62h1.53v-3.05h3.04v-1.52h-3.04v-3.05h3.04v-1.52h1.53V9.15h-3.05v1.52Zm1.52-9.14h1.53V0h-4.57v1.53h1.52v3.04h1.52V1.53Zm-1.52 18.28h-1.52v1.53h1.52v-1.53Zm0 7.62h-3.05v1.53h3.05v-1.53Zm0-22.86h-3.05V6.1h3.05V4.57Zm-3.05 24.39h-3.04v1.52h3.04v-1.52Zm0-25.91h-3.04v1.52h3.04V3.05Z"/>
    <path fill="#000001" d="M18.29 15.24v1.52h1.52v1.53h1.53v-1.53h1.52v-1.52h-4.57Zm3.05-13.71h-3.05v1.52h3.05V1.53Zm0 28.95H10.67V32h10.67v-1.52Zm-10.67-9.14v4.57h1.52v-3.05h1.53v3.05h-1.53v1.52h7.62v-1.52h-1.52v-3.05h1.52v3.05h1.53v-4.57H10.67ZM21.34 9.15h-3.05v1.52h3.05V9.15Zm-3.05-1.53h-1.53v1.53h1.53V7.62Zm0-4.57h-1.53v1.52h1.53V3.05Zm-1.53 1.52h-1.52v3.05h1.52V4.57Zm-1.52 3.05h-1.52v1.53h1.52V7.62Zm0-4.57h-1.52v1.52h1.52V3.05Zm-1.52-1.52h-3.05v1.52h3.05V1.53Zm-3.05 16.76h1.52v-1.53h1.53v-1.52H9.15v1.52h1.52v1.53Zm3.05-9.14h-3.05v1.52h3.05V9.15Zm-3.05 19.81H7.62v1.52h3.05v-1.52Zm0-25.91H7.62v1.52h3.05V3.05ZM7.62 27.43H4.57v1.53h3.05v-1.53Z"/>
    <path fill="#000001" d="M7.62 12.19h3.05v-1.52h-6.1V9.15H1.53v1.52h1.52v1.52H6.1v3.05H3.05v1.52H6.1v3.05h1.52v-7.62ZM6.1 19.81H4.57v1.53H6.1v-1.53ZM7.62 4.57H4.57V6.1h3.05V4.57ZM4.57 21.34H3.05v6.09h1.52v-6.09ZM3.05 4.57h1.52V1.53H6.1V0H1.53v1.53h1.52v3.04Z"/>
    <path fill="#000001" d="M3.05 12.19H1.53v1.53h1.52v-1.53Zm-1.52 1.53H0v4.57h3.05v-1.53H1.53v-3.04Zm0-12.19H0v7.62h1.53V1.53Z"/>
  </g>
  <defs>
    <clipPath id="a">
      <path fill="#fff" d="M0 0h32v32H0z"/>
    </clipPath>
  </defs>
</svg>
