<svg xmlns="http://www.w3.org/2000/svg" width="32" height="32" fill="none" viewBox="0 0 32 32">
  <g clip-path="url(#a)">
    <path fill="#000001" d="M32 15.24h-1.52v10.67H32V15.24Zm-1.52 10.67h-1.53v1.52h1.53v-1.52Zm0-13.72h-1.53v3.05h1.53v-3.05Zm-1.53 15.24h-1.52v1.53h1.52v-1.53Zm0-18.28h-1.52v3.04h1.52V9.15Zm-1.52 19.81h-1.52v1.52h1.52v-1.52Zm0-21.34h-1.52v1.53h1.52V7.62Zm-1.52-4.57h-1.53v4.57h1.53V3.05Zm-9.15 27.43v-1.52h3.05v-1.53h-4.57v1.53H7.62v1.52h7.62V32h10.67v-1.52h-9.15Zm7.62-28.95h-1.52v1.52h1.52V1.53Zm-1.52 13.71h-3.05v1.52h3.05v-1.52Zm-1.52 10.67h-1.53v1.52h1.53v-1.52ZM22.86 0h-4.57v1.53h4.57V0Zm-3.05 24.38h-1.52v1.53h1.52v-1.53Zm0-7.62h-1.52v1.53h1.52v-1.53Zm1.53-13.71h-3.05V6.1h3.05V3.05Zm-3.05 15.24h-1.53v6.09h1.53v-6.09Zm0-16.76h-1.53v1.52h1.53V1.53Zm-1.53 1.52h-1.52V6.1h1.52V3.05Zm-1.52 22.86h-1.52v1.52h1.52v-1.52Zm-1.52-4.57h-1.53v4.57h1.53v-4.57ZM15.24 6.1h-3.05v1.52h3.05V6.1Zm-3.05 13.71h-1.52v1.53h1.52v-1.53Zm0-10.66h-1.52v1.52h1.52V9.15Zm0-6.1h-1.52V6.1h1.52V3.05Zm-1.52-1.52H9.15v1.52h1.52V1.53Zm0 9.14H6.1v1.52h4.57v-1.52ZM7.62 27.43H6.1v1.53h1.52v-1.53ZM9.15 0H4.57v1.53h4.58V0ZM1.53 30.48v-1.52H0V32h7.62v-1.52H1.53Zm9.14-12.19H3.05v1.52h7.62v-1.52ZM7.62 3.05H4.57V6.1h3.05V3.05ZM4.57 27.43H6.1v-1.52H3.05v1.52H1.53v1.53h3.04v-1.53Zm0-19.81H3.05v3.05h1.52V7.62Zm0-6.09H3.05v1.52h1.52V1.53ZM3.05 24.38H1.53v1.53h1.52v-1.53Zm0-13.71H1.53v3.05h1.52v-3.05Zm0-7.62H1.53v4.57h1.52V3.05Zm0 18.29v-1.53H1.53v-6.09H0v10.66h1.53v-3.04h1.52Z"/>
  </g>
  <defs>
    <clipPath id="a">
      <path fill="#fff" d="M0 0h32v32H0z"/>
    </clipPath>
  </defs>
</svg>
