<svg xmlns="http://www.w3.org/2000/svg" width="24" height="24" viewBox="0 0 24 24">
  <g id="arrowheads" transform="translate(10039.059 1154.195)">
    <rect id="Rectangle_152118" data-name="Rectangle 152118" width="24" height="24" transform="translate(-10039.059 -1154.195)" fill="#fff"/>
    <g id="arrow65" transform="translate(-9864.075 -1267.291)">
      <path id="path22279" d="M-164.835,121.393v3.173H-168.8v1.059h3.969V128.8h1.056v-1.058h1.059v-1.059h1.059v-1.058h1.058v-1.059h-1.058v-1.058h-1.058c0-.354,0-.705,0-1.059h-1.059v-1.056Zm3.439,0v1.056h1.059v-1.056Zm1.059,1.056v1.059h1.056v-1.059Zm1.056,1.059v1.058h1.059v-1.058Zm1.059,1.058v1.059h1.058v-1.059Zm0,1.059h-1.059v1.058h1.059Zm-1.059,1.058h-1.056v1.059h1.056Zm-1.056,1.059H-161.4V128.8h1.059Z"/>
    </g>
  </g>
</svg>
