<svg xmlns="http://www.w3.org/2000/svg" width="24" height="24" viewBox="0 0 24 24">
  <g id="arrow4" transform="translate(10319.059 986.195)">
    <rect id="Rectangle_152050" data-name="Rectangle 152050" width="24" height="24" transform="translate(-10319.059 -986.195)" fill="#fff"/>
    <g id="arrow4-2" data-name="arrow4" transform="translate(-19630.242 -2288.268)">
      <rect id="Rectangle_151047" data-name="Rectangle 151047" width="2" height="2" transform="translate(9317.184 1311.073)"/>
      <rect id="Rectangle_151048" data-name="Rectangle 151048" width="2" height="2" transform="translate(9317.184 1313.074)"/>
      <rect id="Rectangle_151049" data-name="Rectangle 151049" width="2" height="2" transform="translate(9319.184 1313.074)"/>
      <rect id="Rectangle_151050" data-name="Rectangle 151050" width="2" height="2" transform="translate(9317.184 1315.074)"/>
      <rect id="Rectangle_151051" data-name="Rectangle 151051" width="2" height="2" transform="translate(9313.184 1313.074)"/>
      <rect id="Rectangle_151052" data-name="Rectangle 151052" width="2" height="2" transform="translate(9315.184 1313.074)"/>
      <rect id="Rectangle_151053" data-name="Rectangle 151053" width="2" height="2" transform="translate(9315.184 1311.073)"/>
      <rect id="Rectangle_151054" data-name="Rectangle 151054" width="2" height="2" transform="translate(9315.184 1315.074)"/>
      <rect id="Rectangle_151055" data-name="Rectangle 151055" width="2" height="2" transform="translate(9321.185 1305.073)"/>
      <rect id="Rectangle_151056" data-name="Rectangle 151056" width="2" height="2" transform="translate(9319.184 1307.074)"/>
      <rect id="Rectangle_151057" data-name="Rectangle 151057" width="2" height="2" transform="translate(9321.184 1307.074)"/>
      <rect id="Rectangle_151058" data-name="Rectangle 151058" width="2" height="2" transform="translate(9321.184 1309.073)"/>
      <rect id="Rectangle_151059" data-name="Rectangle 151059" width="2" height="2" transform="translate(9323.184 1309.073)"/>
      <rect id="Rectangle_151060" data-name="Rectangle 151060" width="2" height="2" transform="translate(9325.184 1309.073)"/>
      <rect id="Rectangle_151061" data-name="Rectangle 151061" width="2" height="2" transform="translate(9323.184 1311.073)"/>
      <rect id="Rectangle_151062" data-name="Rectangle 151062" width="2" height="2" transform="translate(9325.184 1311.073)"/>
      <rect id="Rectangle_151063" data-name="Rectangle 151063" width="2" height="2" transform="translate(9327.184 1311.073)"/>
      <rect id="Rectangle_151064" data-name="Rectangle 151064" width="2" height="2" transform="translate(9329.184 1311.073)"/>
      <rect id="Rectangle_151065" data-name="Rectangle 151065" width="2" height="2" transform="translate(9325.184 1313.074)"/>
      <rect id="Rectangle_151066" data-name="Rectangle 151066" width="2" height="2" transform="translate(9327.184 1313.074)"/>
      <rect id="Rectangle_151067" data-name="Rectangle 151067" width="2" height="2" transform="translate(9329.184 1313.074)"/>
      <rect id="Rectangle_151068" data-name="Rectangle 151068" width="2" height="2" transform="translate(9331.184 1313.074)"/>
      <rect id="Rectangle_151069" data-name="Rectangle 151069" width="2" height="2" transform="translate(9323.184 1315.074)"/>
      <rect id="Rectangle_151070" data-name="Rectangle 151070" width="2" height="2" transform="translate(9325.184 1315.074)"/>
      <rect id="Rectangle_151071" data-name="Rectangle 151071" width="2" height="2" transform="translate(9327.184 1315.074)"/>
      <rect id="Rectangle_151072" data-name="Rectangle 151072" width="2" height="2" transform="translate(9329.184 1315.074)"/>
      <rect id="Rectangle_151073" data-name="Rectangle 151073" width="2" height="2" transform="translate(9321.184 1317.074)"/>
      <rect id="Rectangle_151074" data-name="Rectangle 151074" width="2" height="2" transform="translate(9323.184 1317.074)"/>
      <rect id="Rectangle_151075" data-name="Rectangle 151075" width="2" height="2" transform="translate(9325.184 1317.074)"/>
      <rect id="Rectangle_151076" data-name="Rectangle 151076" width="2" height="2" transform="translate(9319.184 1319.074)"/>
      <rect id="Rectangle_151077" data-name="Rectangle 151077" width="2" height="2" transform="translate(9321.184 1319.074)"/>
      <rect id="Rectangle_151078" data-name="Rectangle 151078" width="2" height="2" transform="translate(9321.185 1321.074)"/>
      <rect id="Rectangle_151079" data-name="Rectangle 151079" width="2" height="2" transform="translate(9319.185 1305.073)"/>
      <rect id="Rectangle_151080" data-name="Rectangle 151080" width="2" height="2" transform="translate(9319.185 1321.074)"/>
      <rect id="Rectangle_151081" data-name="Rectangle 151081" width="2" height="2" transform="translate(9323.185 1307.073)"/>
      <rect id="Rectangle_151082" data-name="Rectangle 151082" width="2" height="2" transform="translate(9323.185 1319.074)"/>
      <rect id="Rectangle_151083" data-name="Rectangle 151083" width="2" height="2" transform="translate(9327.185 1309.073)"/>
      <rect id="Rectangle_151084" data-name="Rectangle 151084" width="2" height="2" transform="translate(9327.185 1317.074)"/>
      <rect id="Rectangle_151085" data-name="Rectangle 151085" width="2" height="2" transform="translate(9325.185 1307.073)"/>
      <rect id="Rectangle_151086" data-name="Rectangle 151086" width="2" height="2" transform="translate(9325.185 1319.074)"/>
      <rect id="Rectangle_151535" data-name="Rectangle 151535" width="2" height="2" transform="translate(9317.184 1311.073)"/>
      <rect id="Rectangle_151536" data-name="Rectangle 151536" width="2" height="2" transform="translate(9317.184 1313.074)"/>
      <rect id="Rectangle_151537" data-name="Rectangle 151537" width="2" height="2" transform="translate(9319.184 1313.074)"/>
      <rect id="Rectangle_151538" data-name="Rectangle 151538" width="2" height="2" transform="translate(9317.184 1315.074)"/>
      <rect id="Rectangle_151539" data-name="Rectangle 151539" width="2" height="2" transform="translate(9313.184 1313.074)"/>
      <rect id="Rectangle_151540" data-name="Rectangle 151540" width="2" height="2" transform="translate(9315.184 1313.074)"/>
      <rect id="Rectangle_151541" data-name="Rectangle 151541" width="2" height="2" transform="translate(9315.184 1311.073)"/>
      <rect id="Rectangle_151542" data-name="Rectangle 151542" width="2" height="2" transform="translate(9315.184 1315.074)"/>
      <rect id="Rectangle_151543" data-name="Rectangle 151543" width="2" height="2" transform="translate(9321.185 1305.073)"/>
      <rect id="Rectangle_151544" data-name="Rectangle 151544" width="2" height="2" transform="translate(9319.184 1307.074)"/>
      <rect id="Rectangle_151545" data-name="Rectangle 151545" width="2" height="2" transform="translate(9321.184 1307.074)"/>
      <rect id="Rectangle_151546" data-name="Rectangle 151546" width="2" height="2" transform="translate(9321.184 1309.073)"/>
      <rect id="Rectangle_151547" data-name="Rectangle 151547" width="2" height="2" transform="translate(9323.184 1309.073)"/>
      <rect id="Rectangle_151548" data-name="Rectangle 151548" width="2" height="2" transform="translate(9325.184 1309.073)"/>
      <rect id="Rectangle_151549" data-name="Rectangle 151549" width="2" height="2" transform="translate(9323.184 1311.073)"/>
      <rect id="Rectangle_151550" data-name="Rectangle 151550" width="2" height="2" transform="translate(9325.184 1311.073)"/>
      <rect id="Rectangle_151551" data-name="Rectangle 151551" width="2" height="2" transform="translate(9327.184 1311.073)"/>
      <rect id="Rectangle_151552" data-name="Rectangle 151552" width="2" height="2" transform="translate(9329.184 1311.073)"/>
      <rect id="Rectangle_151553" data-name="Rectangle 151553" width="2" height="2" transform="translate(9325.184 1313.074)"/>
      <rect id="Rectangle_151554" data-name="Rectangle 151554" width="2" height="2" transform="translate(9327.184 1313.074)"/>
      <rect id="Rectangle_151555" data-name="Rectangle 151555" width="2" height="2" transform="translate(9329.184 1313.074)"/>
      <rect id="Rectangle_151556" data-name="Rectangle 151556" width="2" height="2" transform="translate(9331.184 1313.074)"/>
      <rect id="Rectangle_151557" data-name="Rectangle 151557" width="2" height="2" transform="translate(9323.184 1315.074)"/>
      <rect id="Rectangle_151558" data-name="Rectangle 151558" width="2" height="2" transform="translate(9325.184 1315.074)"/>
      <rect id="Rectangle_151559" data-name="Rectangle 151559" width="2" height="2" transform="translate(9327.184 1315.074)"/>
      <rect id="Rectangle_151560" data-name="Rectangle 151560" width="2" height="2" transform="translate(9329.184 1315.074)"/>
      <rect id="Rectangle_151561" data-name="Rectangle 151561" width="2" height="2" transform="translate(9321.184 1317.074)"/>
      <rect id="Rectangle_151562" data-name="Rectangle 151562" width="2" height="2" transform="translate(9323.184 1317.074)"/>
      <rect id="Rectangle_151563" data-name="Rectangle 151563" width="2" height="2" transform="translate(9325.184 1317.074)"/>
      <rect id="Rectangle_151564" data-name="Rectangle 151564" width="2" height="2" transform="translate(9319.184 1319.074)"/>
      <rect id="Rectangle_151565" data-name="Rectangle 151565" width="2" height="2" transform="translate(9321.184 1319.074)"/>
      <rect id="Rectangle_151566" data-name="Rectangle 151566" width="2" height="2" transform="translate(9321.185 1321.074)"/>
      <rect id="Rectangle_151567" data-name="Rectangle 151567" width="2" height="2" transform="translate(9319.185 1305.073)"/>
      <rect id="Rectangle_151568" data-name="Rectangle 151568" width="2" height="2" transform="translate(9319.185 1321.074)"/>
      <rect id="Rectangle_151569" data-name="Rectangle 151569" width="2" height="2" transform="translate(9323.185 1307.073)"/>
      <rect id="Rectangle_151570" data-name="Rectangle 151570" width="2" height="2" transform="translate(9323.185 1319.074)"/>
      <rect id="Rectangle_151571" data-name="Rectangle 151571" width="2" height="2" transform="translate(9327.185 1309.073)"/>
      <rect id="Rectangle_151572" data-name="Rectangle 151572" width="2" height="2" transform="translate(9327.185 1317.074)"/>
      <rect id="Rectangle_151573" data-name="Rectangle 151573" width="2" height="2" transform="translate(9325.185 1307.073)"/>
      <rect id="Rectangle_151574" data-name="Rectangle 151574" width="2" height="2" transform="translate(9325.185 1319.074)"/>
    </g>
  </g>
</svg>
