<svg xmlns="http://www.w3.org/2000/svg" width="24" height="24" viewBox="0 0 24 24">
  <g id="Bluetooth" transform="translate(10347.059 1406.195)">
    <rect id="Rectangle_152364" data-name="Rectangle 152364" width="24" height="24" transform="translate(-10347.059 -1406.195)" fill="#fff"/>
    <path id="Bluetooth-2" data-name="Bluetooth" d="M18,7V6H17V5H15V4H14V3H12V2H9V9H8V7H5V9H6v2H8v2H6v2H5v2H8V15H9v7h3V21h2V20h1V19h2V18h1V17h1V14H18V13H16V11h2V10h1V7Zm-3,3H13v1H11V5h1V6h1V7h2V8h1V9H15Zm1,5v1H15v1H13v1H12v1H11V13h2v1h2v1Z" transform="translate(-10347.059 -1406.195)"/>
  </g>
</svg>
