<svg xmlns="http://www.w3.org/2000/svg" width="24" height="24" viewBox="0 0 24 24">
  <g id="clock" transform="translate(10011.059 1406.195)">
    <rect id="Rectangle_152355" data-name="Rectangle 152355" width="24" height="24" transform="translate(-10011.059 -1406.195)" fill="#fff"/>
    <g id="Clock-2" data-name="Clock" transform="translate(-10011.059 -1406.195)">
      <path id="Path_4407" data-name="Path 4407" d="M13,11V6H11v7h5V11Z"/>
      <path id="Path_4408" data-name="Path 4408" d="M21,5V4H20V3H19V2H5V3H4V4H3V5H2V19H3v1H4v1H5v1H19V21h1V20h1V19h1V5ZM20,17H19v1H18v1H17v1H7V19H6V18H5V17H4V7H5V6H6V5H7V4H17V5h1V6h1V7h1Z"/>
    </g>
  </g>
</svg>
