<svg xmlns="http://www.w3.org/2000/svg" width="24" height="24" viewBox="0 0 24 24">
  <g id="close" transform="translate(10375.059 818.195)">
    <rect id="Rectangle_151928" data-name="Rectangle 151928" width="24" height="24" transform="translate(-10375.059 -818.195)" fill="#fff"/>
    <path id="close-2" data-name="close" d="M5,5H7V7H5ZM9,9H7V7H9Zm2,2H9V9h2Zm2,0H11v2H9v2H7v2H5v2H7V17H9V15h2V13h2v2h2v2h2v2h2V17H17V15H15V13H13Zm2-2v2H13V9Zm2-2V9H15V7Zm0,0V5h2V7Z" transform="translate(-10375.059 -818.195)"/>
  </g>
</svg>
