<svg xmlns="http://www.w3.org/2000/svg" width="24" height="24" viewBox="0 0 24 24">
  <g id="crossing" transform="translate(10375.059 1070.195)">
    <rect id="Rectangle_152186" data-name="Rectangle 152186" width="24" height="24" transform="translate(-10375.059 -1070.195)" fill="#fff"/>
    <g id="arrow17" transform="translate(-10200.075 -1183.291)">
      <path id="rect6684" d="M-166.158,119.275v1.059h1.059v-1.059Zm1.059,1.059v1.058h1.058v-1.058Zm1.058,1.058v1.059h1.059v-1.059Zm-2.117-1.058h-1.058v1.058h1.058Zm-1.058,1.058h-1.059v1.059h1.059Zm1.058,1.059V128.8h5.291v-1.058H-165.1v-5.291Zm5.291,3.174v1.058h1.059v-1.058Zm1.059,1.058v1.059h1.058v-1.059Zm1.058,1.059V128.8h1.059v-1.058Zm0,1.058h-1.058v1.059h1.058Zm-1.058,1.059h-1.059v1.058h1.059Z"/>
    </g>
  </g>
</svg>
