<svg xmlns="http://www.w3.org/2000/svg" width="24" height="24" viewBox="0 0 24 24">
  <g id="delete-message" transform="translate(10291.059 1378.195)">
    <rect id="Rectangle_152328" data-name="Rectangle 152328" width="24" height="24" transform="translate(-10291.059 -1378.195)" fill="#fff"/>
    <g id="Delete_Message" transform="translate(-10291.059 -1379.195)">
      <path id="Path_4427" data-name="Path 4427" d="M22,5H16V7h6Z"/>
      <path id="Path_4428" data-name="Path 4428" d="M20,11v8H19v1H5V19H4V11H5v1H7v1H9v1h1v1h4V14h1V13h2V11H13v1H11V11H9V10H7V9H5V8H4V7H5V6h8V4H3V5H2V21H3v1H21V21h1V11Z"/>
    </g>
  </g>
</svg>
