<svg xmlns="http://www.w3.org/2000/svg" xmlns:xlink="http://www.w3.org/1999/xlink" width="24" height="24" viewBox="0 0 24 24">
  <defs>
    <clipPath id="clip-path">
      <rect id="Rectangle_320" data-name="Rectangle 320" width="20" height="20"/>
    </clipPath>
  </defs>
  <g id="ecology-global-warming-globe-fire" transform="translate(9955.059 1238.195)">
    <rect id="Rectangle_152231" data-name="Rectangle 152231" width="24" height="24" transform="translate(-9955.059 -1238.195)" fill="#fff"/>
    <g id="ecology-global-warming-globe-fire-31" transform="translate(-9953.059 -1236.195)" clip-path="url(#clip-path)">
      <path id="Path_5676" data-name="Path 5676" d="M46.67,16h-.95v.95h.95Z" transform="translate(-26.67 -9.336)"/>
      <path id="Path_5677" data-name="Path 5677" d="M19.05,5.719V3.812H20V2.856H18.094v.956h-.95v.95h-.95v.956h-.956V2.856h-.95V.956h-.956v1.9h-.95V4.762h-.95v-.95h-.956V1.906h.956V0H9.525V.956h-.95v.95H7.619V3.812h-.95v.95H5.713V2.856h-.95v-.95h-.95V.956H1.906v.95h.95V4.762h-.95V6.669h.95v.95H.95v-.95H0V9.525H.95v1.906h.956v-.95h.95V8.575h.956V4.762h.95v.956h.95v.95H7.619v-.95h.956V3.812h.95V5.719h3.806V4.762h.956V7.619h1.906v2.863h.95v1.9h.95v-1.9h.956V7.619h-.956v-1.9Z"/>
      <path id="Path_5678" data-name="Path 5678" d="M42.1,2.3h-.95v.95h.95Z" transform="translate(-24.001 -1.339)"/>
      <path id="Path_5679" data-name="Path 5679" d="M39.815,4.575h-.95v.95h.95Z" transform="translate(-22.671 -2.669)"/>
      <path id="Path_5680" data-name="Path 5680" d="M37.526,0H36.57V.956h.956Z" transform="translate(-21.333)"/>
      <path id="Path_5681" data-name="Path 5681" d="M35.24,36.57h-.95v1.906h.95Z" transform="translate(-20.003 -21.333)"/>
      <path id="Path_5682" data-name="Path 5682" d="M34.29,25.716h.95v2.856H36.2V24.766H35.24V22.86h-.95Z" transform="translate(-20.003 -13.335)"/>
      <path id="Path_5683" data-name="Path 5683" d="M32.951,41.145h-.956V42.1h.956Z" transform="translate(-18.664 -24.001)"/>
      <path id="Path_5684" data-name="Path 5684" d="M32.951,29.715h-.956v.956h.956Z" transform="translate(-18.664 -17.334)"/>
      <path id="Path_5685" data-name="Path 5685" d="M32.951,20.58h-.956v.95h.956Z" transform="translate(-18.664 -12.005)"/>
      <path id="Path_5686" data-name="Path 5686" d="M30.665,36.57h-.95v1.906h.95Z" transform="translate(-17.334 -21.333)"/>
      <path id="Path_5687" data-name="Path 5687" d="M30.665,27.435h-.95v.95h.95Z" transform="translate(-17.334 -16.004)"/>
      <path id="Path_5688" data-name="Path 5688" d="M29.335,43.44h-1.9v.95h1.9Z" transform="translate(-16.004 -25.34)"/>
      <path id="Path_5689" data-name="Path 5689" d="M28.385,34.29h-.95v.95h.95Z" transform="translate(-16.004 -20.003)"/>
      <path id="Path_5690" data-name="Path 5690" d="M28.385,25.155h-.95v.95h.95Z" transform="translate(-16.004 -14.674)"/>
      <path id="Path_5691" data-name="Path 5691" d="M29.335,18.285h-1.9v.956h1.9Z" transform="translate(-16.004 -10.666)"/>
      <path id="Path_5692" data-name="Path 5692" d="M24.766,32.01H22.86v.95h1.906Z" transform="translate(-13.335 -18.672)"/>
      <path id="Path_5693" data-name="Path 5693" d="M26.1,20.58H25.14v1.906H26.1Z" transform="translate(-14.665 -12.005)"/>
      <path id="Path_5694" data-name="Path 5694" d="M20.191,41.145h-.95v1.906h-.956V44H22.1v-.95H20.191Z" transform="translate(-10.666 -24.001)"/>
      <path id="Path_5695" data-name="Path 5695" d="M23.81,36.57h-.95v1.906h.95Z" transform="translate(-13.335 -21.333)"/>
      <path id="Path_5696" data-name="Path 5696" d="M21.53,34.29h-.95v.95h.95Z" transform="translate(-12.005 -20.003)"/>
      <path id="Path_5697" data-name="Path 5697" d="M19.241,25.155h-.956v1.9h.956Z" transform="translate(-10.666 -14.674)"/>
      <path id="Path_5698" data-name="Path 5698" d="M15.616,43.44H13.71v.95h1.906Z" transform="translate(-7.997 -25.34)"/>
      <path id="Path_5699" data-name="Path 5699" d="M16.955,29.715H16v.956h.95Z" transform="translate(-9.336 -17.334)"/>
      <path id="Path_5700" data-name="Path 5700" d="M16.955,22.86H16v.956h.95Z" transform="translate(-9.336 -13.335)"/>
      <path id="Path_5701" data-name="Path 5701" d="M13.71,16.955v.956h1.906v.95h.956V16.955h2.856V16H15.616v.95Z" transform="translate(-7.997 -9.336)"/>
      <path id="Path_5702" data-name="Path 5702" d="M14.666,32.01H13.71v.95h.956Z" transform="translate(-7.997 -18.672)"/>
      <path id="Path_5703" data-name="Path 5703" d="M14.666,2.3H13.71v.95h.956Z" transform="translate(-7.997 -1.339)"/>
      <path id="Path_5704" data-name="Path 5704" d="M12.38,41.145h-.95V42.1h.95Z" transform="translate(-6.668 -24.001)"/>
      <path id="Path_5705" data-name="Path 5705" d="M12.38,29.715h-.95v.956h.95Z" transform="translate(-6.668 -17.334)"/>
      <path id="Path_5706" data-name="Path 5706" d="M12.38,20.58h-.95v.95h.95Z" transform="translate(-6.668 -12.005)"/>
      <path id="Path_5707" data-name="Path 5707" d="M12.38,0h-.95V.956h.95Z" transform="translate(-6.668)"/>
      <path id="Path_5708" data-name="Path 5708" d="M10.1,36.57H9.15v1.906h.95Z" transform="translate(-5.338 -21.333)"/>
      <path id="Path_5709" data-name="Path 5709" d="M7.811,25.716h.95V22.86h-.95v1.906H6.855v3.806h.956Z" transform="translate(-3.999 -13.335)"/>
      <path id="Path_5710" data-name="Path 5710" d="M3.236,6.855H2.28v.956h.956Z" transform="translate(-1.33 -3.999)"/>
      <path id="Path_5711" data-name="Path 5711" d="M.95,4.575H0v.95H.95Z" transform="translate(0 -2.669)"/>
    </g>
  </g>
</svg>
