<svg xmlns="http://www.w3.org/2000/svg" width="24" height="24" viewBox="0 0 24 24">
  <g id="entertainment-events-hobbies-film-player" transform="translate(9843.059 1238.195)">
    <rect id="Rectangle_152228" data-name="Rectangle 152228" width="24" height="24" transform="translate(-9843.059 -1238.195)" fill="#fff"/>
    <g id="entertainment-events-hobbies-film-player-3" transform="translate(-9841.059 -1239.528)">
      <path id="Path_5788" data-name="Path 5788" d="M0,5.715V20.952H20V5.715ZM4.756,20H.95V6.665H4.756Zm9.525,0H5.713V6.665h8.569Zm4.763,0H15.237V6.665h3.806Z"/>
      <path id="Path_5789" data-name="Path 5789" d="M40.756,30.855H38.85v1.906h1.906Z" transform="translate(-22.662 -14.665)"/>
      <path id="Path_5790" data-name="Path 5790" d="M40.756,21.7H38.85v1.906h1.906Z" transform="translate(-22.662 -9.327)"/>
      <path id="Path_5791" data-name="Path 5791" d="M40.756,12.57H38.85v1.906h1.906Z" transform="translate(-22.662 -3.999)"/>
      <path id="Path_5792" data-name="Path 5792" d="M20.185,20.569h.956v-.956h.95v-.95h.95v-.956h-.95v-.95h-.95v-.95h-.956V14.85h-1.9v6.669h1.9Z" transform="translate(-10.666 -5.329)"/>
      <path id="Path_5793" data-name="Path 5793" d="M6.466,30.855H4.56v1.906H6.466Z" transform="translate(-2.66 -14.665)"/>
      <path id="Path_5794" data-name="Path 5794" d="M6.466,21.7H4.56v1.906H6.466Z" transform="translate(-2.66 -9.327)"/>
      <path id="Path_5795" data-name="Path 5795" d="M6.466,12.57H4.56v1.906H6.466Z" transform="translate(-2.66 -3.999)"/>
    </g>
  </g>
</svg>
