<svg xmlns="http://www.w3.org/2000/svg" width="24" height="24" viewBox="0 0 24 24">
  <g id="filter" transform="translate(9983.059 930.195)">
    <rect id="Rectangle_152022" data-name="Rectangle 152022" width="24" height="24" transform="translate(-9983.059 -930.195)" fill="#fff"/>
    <path id="filter-2" data-name="filter" d="M5.531,7.581H9.975m0,0V5.358H14.42V7.581m-4.444,0V9.8H14.42V7.581m0,0H25.531m-20,8.889H16.642m0,0V14.247h4.444V16.47m-4.444,0v2.222h4.444V16.47m0,0h4.444" transform="translate(-9986.59 -930.22)"/>
    <path id="filter_-_Outline" data-name="filter - Outline" d="M22.087,19.692H16.642L16.195,17.8,18.85,16.47l-2.656-1.328.447-1.894h5.444V15.47h4.444v2H22.087ZM15.42,10.8H9.975L9.528,8.908l2.656-1.328L9.528,6.253l.447-1.894H15.42Z" transform="translate(-9986.59 -930.22)"/>
  </g>
</svg>
