<svg xmlns="http://www.w3.org/2000/svg" width="24" height="24" viewBox="0 0 24 24">
  <g id="hash" transform="translate(9899.059 1378.195)">
    <rect id="Rectangle_152342" data-name="Rectangle 152342" width="24" height="24" transform="translate(-9899.059 -1378.195)" fill="#fff"/>
    <path id="Hash-2" data-name="Hash" d="M18,8V6h1V2H17V4H16V8H11V6h1V2H10V4H9V8H2v2H8v1H7v3H2v2H6v2H5v4H7V20H8V16h5v2H12v4h2V20h1V16h7V14H16V13h1V10h5V8Zm-3,3H14v3H9V13h1V10h5Z" transform="translate(-9899.059 -1378.195)"/>
  </g>
</svg>
