<svg xmlns="http://www.w3.org/2000/svg" width="24" height="24" viewBox="0 0 24 24">
  <g id="image-plus" transform="translate(10319.059 874.195)">
    <rect id="Rectangle_151985" data-name="Rectangle 151985" width="24" height="24" transform="translate(-10319.059 -874.195)" fill="#fff"/>
    <path id="image-plus-2" data-name="image-plus" d="M4,3H14V5H4V19H20V11h2V21H2V3ZM14,9H12v2H10v2H8v2H6v2H8V15h2V13h2V11h2v2h2v2h2V13H16V11H14ZM8,7H6V9H8ZM18,3h2V5h2V7H20V9H18V7H16V5h2Z" transform="translate(-10319.059 -874.195)"/>
  </g>
</svg>
