<svg xmlns="http://www.w3.org/2000/svg" width="24" height="24" viewBox="0 0 24 24">
  <g id="next" transform="translate(10067.059 1126.195)">
    <rect id="Rectangle_152131" data-name="Rectangle 152131" width="24" height="24" transform="translate(-10067.059 -1126.195)" fill="#fff"/>
    <g id="arrow46" transform="translate(-9892.075 -1239.291)">
      <path id="rect1406" d="M-166.158,119.275v1.059h1.059v-1.059Zm1.059,1.059v1.058h1.058v-1.058Zm1.058,1.058v1.059h1.059v-1.059Zm1.059,1.059v1.058h1.058v-1.058Zm1.058,1.058v1.059h1.059v-1.059Zm1.059,1.059v1.057h1.056v-1.057Zm0,1.057h-1.059v1.058h1.059Zm-1.059,1.058h-1.058v1.059h1.058Zm-1.058,1.059h-1.059V128.8h1.059Zm-1.059,1.058H-165.1v1.059h1.058Zm-1.058,1.059h-1.059v1.058h1.059Z"/>
    </g>
  </g>
</svg>
