<svg xmlns="http://www.w3.org/2000/svg" width="24" height="24" viewBox="0 0 24 24">
  <g id="notification" transform="translate(10124.059 567.306)">
    <rect id="Rectangle_151725" data-name="Rectangle 151725" width="24" height="24" transform="translate(-10124.059 -567.306)" fill="#fff"/>
    <path id="notification-2" data-name="notification" d="M12,20v1H10V20H8V18h6v2ZM2,15H3V14H4V6H5V4H6V3H8V2h2V1h2V2h2V3h2V4h1V6h1v8h1v1h1v2H2Zm4,0H16V7H15V5H13V4H9V5H7V7H6Z" transform="translate(-10123.059 -566.306)"/>
  </g>
</svg>
