<svg xmlns="http://www.w3.org/2000/svg" width="24" height="24" viewBox="0 0 24 24">
  <g id="Outgoing-call" transform="translate(9899.059 1350.195)">
    <rect id="Rectangle_152312" data-name="Rectangle 152312" width="24" height="24" transform="translate(-9899.059 -1350.195)" fill="#fff"/>
    <g id="Outgoing_Call" transform="translate(-9899.059 -1350.195)">
      <path id="Path_4486" data-name="Path 4486" d="M21,14V13H15V12H14V11H13V10H12V9H11V3H10V2H4V3H3V4H2v7H3v1H4v1H5v1H6v1H7v1H8v1H9v1h1v1h1v1h1v1h1v1h7V21h1V20h1V14Zm-1,4H19v1H18v1H15V19H14V18H13V17H12V16H11V15H10V14H9V13H8V12H7V11H6V10H5V9H4V6H5V5H6V4H8V5H9V7H8v3H9v1h1v1h1v1h1v1h1v1h1v1h3V15h2v1h1Z"/>
      <path id="Path_4487" data-name="Path 4487" d="M21,5V4H20V3H19V2H17V4h1V5H15V7h3V8H17v2h2V9h1V8h1V7h1V5Z"/>
    </g>
  </g>
</svg>
