<svg xmlns="http://www.w3.org/2000/svg" width="24" height="24" viewBox="0 0 24 24">
  <g id="px-icon19" transform="translate(9955.059 1042.195)">
    <rect id="Rectangle_152113" data-name="Rectangle 152113" width="24" height="24" transform="translate(-9955.059 -1042.195)" fill="#fff"/>
    <g id="px-icon19-2" data-name="px-icon19" transform="translate(-10555.398 -1642.534)">
      <rect id="Rectangle_123662" data-name="Rectangle 123662" width="1.818" height="1.818" transform="translate(604.158 602.34)"/>
      <rect id="Rectangle_123663" data-name="Rectangle 123663" width="1.818" height="1.818" transform="translate(618.703 602.34)"/>
      <rect id="Rectangle_123664" data-name="Rectangle 123664" width="1.818" height="1.818" transform="translate(602.34 604.158)"/>
      <rect id="Rectangle_123665" data-name="Rectangle 123665" width="1.818" height="1.818" transform="translate(605.976 604.158)"/>
      <rect id="Rectangle_123666" data-name="Rectangle 123666" width="1.818" height="1.818" transform="translate(616.885 604.158)"/>
      <rect id="Rectangle_123667" data-name="Rectangle 123667" width="1.818" height="1.818" transform="translate(620.521 604.158)"/>
      <rect id="Rectangle_123668" data-name="Rectangle 123668" width="1.818" height="1.818" transform="translate(602.34 605.976)"/>
      <rect id="Rectangle_123669" data-name="Rectangle 123669" width="1.818" height="1.818" transform="translate(607.794 604.158)"/>
      <rect id="Rectangle_123670" data-name="Rectangle 123670" width="1.818" height="1.818" transform="translate(609.612 605.976)"/>
      <rect id="Rectangle_123671" data-name="Rectangle 123671" width="1.818" height="1.818" transform="translate(611.431 605.976)"/>
      <rect id="Rectangle_123672" data-name="Rectangle 123672" width="1.818" height="1.818" transform="translate(613.249 605.976)"/>
      <rect id="Rectangle_123673" data-name="Rectangle 123673" width="1.818" height="1.818" transform="translate(615.067 604.158)"/>
      <rect id="Rectangle_123674" data-name="Rectangle 123674" width="1.818" height="1.818" transform="translate(620.521 605.976)"/>
      <rect id="Rectangle_123675" data-name="Rectangle 123675" width="1.818" height="1.818" transform="translate(602.34 607.794)"/>
      <rect id="Rectangle_123676" data-name="Rectangle 123676" width="1.818" height="1.818" transform="translate(620.521 607.794)"/>
      <rect id="Rectangle_123677" data-name="Rectangle 123677" width="1.818" height="1.818" transform="translate(602.34 609.612)"/>
      <rect id="Rectangle_123678" data-name="Rectangle 123678" width="1.818" height="1.818" transform="translate(611.431 609.612)"/>
      <rect id="Rectangle_123679" data-name="Rectangle 123679" width="1.818" height="1.818" transform="translate(620.521 609.612)"/>
      <rect id="Rectangle_123680" data-name="Rectangle 123680" width="1.818" height="1.818" transform="translate(602.34 611.431)"/>
      <rect id="Rectangle_123681" data-name="Rectangle 123681" width="1.818" height="1.818" transform="translate(602.34 613.249)"/>
      <rect id="Rectangle_123682" data-name="Rectangle 123682" width="1.818" height="1.818" transform="translate(620.521 611.431)"/>
      <rect id="Rectangle_123683" data-name="Rectangle 123683" width="1.818" height="1.818" transform="translate(620.521 613.249)"/>
      <rect id="Rectangle_123684" data-name="Rectangle 123684" width="1.818" height="1.818" transform="translate(604.158 615.067)"/>
      <rect id="Rectangle_123685" data-name="Rectangle 123685" width="1.818" height="1.818" transform="translate(611.431 613.249)"/>
      <rect id="Rectangle_123686" data-name="Rectangle 123686" width="1.818" height="1.818" transform="translate(618.703 615.067)"/>
      <rect id="Rectangle_123687" data-name="Rectangle 123687" width="1.818" height="1.818" transform="translate(607.794 618.703)"/>
      <rect id="Rectangle_123688" data-name="Rectangle 123688" width="1.818" height="1.818" transform="translate(605.976 616.885)"/>
      <rect id="Rectangle_123689" data-name="Rectangle 123689" width="1.818" height="1.818" transform="translate(616.885 616.885)"/>
      <rect id="Rectangle_123690" data-name="Rectangle 123690" width="1.818" height="1.818" transform="translate(615.067 618.703)"/>
      <rect id="Rectangle_123691" data-name="Rectangle 123691" width="1.818" height="1.818" transform="translate(609.612 620.521)"/>
      <rect id="Rectangle_123692" data-name="Rectangle 123692" width="1.818" height="1.818" transform="translate(613.249 620.521)"/>
      <rect id="Rectangle_123693" data-name="Rectangle 123693" width="1.818" height="1.818" transform="translate(609.612 611.431)"/>
      <rect id="Rectangle_123694" data-name="Rectangle 123694" width="1.818" height="1.818" transform="translate(611.431 611.431)"/>
      <rect id="Rectangle_123695" data-name="Rectangle 123695" width="1.818" height="1.818" transform="translate(613.249 611.431)"/>
      <rect id="Rectangle_123696" data-name="Rectangle 123696" width="1.818" height="1.818" transform="translate(611.431 615.067)"/>
      <rect id="Rectangle_123697" data-name="Rectangle 123697" width="1.818" height="1.818" transform="translate(611.431 620.521)"/>
    </g>
  </g>
</svg>
