<svg xmlns="http://www.w3.org/2000/svg" width="24" height="24" viewBox="0 0 24 24">
  <g id="px-icon25" transform="translate(10123.059 1042.195)">
    <rect id="Rectangle_152147" data-name="Rectangle 152147" width="24" height="24" transform="translate(-10123.059 -1042.195)" fill="#fff"/>
    <g id="px-icon25-2" data-name="px-icon25" transform="translate(-10590.783 -1112.075)">
      <rect id="Rectangle_123409" data-name="Rectangle 123409" width="1.818" height="1.818" transform="translate(476.997 71.88)"/>
      <rect id="Rectangle_123410" data-name="Rectangle 123410" width="1.818" height="1.818" transform="translate(478.816 71.88)"/>
      <rect id="Rectangle_123411" data-name="Rectangle 123411" width="1.818" height="1.818" transform="translate(480.634 71.88)"/>
      <rect id="Rectangle_123412" data-name="Rectangle 123412" width="1.818" height="1.818" transform="translate(475.179 71.88)"/>
      <rect id="Rectangle_123413" data-name="Rectangle 123413" width="1.818" height="1.818" transform="translate(482.452 71.88)"/>
      <rect id="Rectangle_123414" data-name="Rectangle 123414" width="1.818" height="1.818" transform="translate(484.27 73.698)"/>
      <rect id="Rectangle_123415" data-name="Rectangle 123415" width="1.818" height="1.818" transform="translate(473.361 73.698)"/>
      <rect id="Rectangle_123416" data-name="Rectangle 123416" width="1.818" height="1.818" transform="translate(473.361 75.516)"/>
      <rect id="Rectangle_123417" data-name="Rectangle 123417" width="1.818" height="1.818" transform="translate(484.27 75.516)"/>
      <rect id="Rectangle_123418" data-name="Rectangle 123418" width="1.818" height="1.818" transform="translate(484.27 77.335)"/>
      <rect id="Rectangle_123419" data-name="Rectangle 123419" width="1.818" height="1.818" transform="translate(484.27 79.153)"/>
      <rect id="Rectangle_123420" data-name="Rectangle 123420" width="1.818" height="1.818" transform="translate(471.543 80.971)"/>
      <rect id="Rectangle_123421" data-name="Rectangle 123421" width="1.818" height="1.818" transform="translate(473.361 80.971)"/>
      <rect id="Rectangle_123422" data-name="Rectangle 123422" width="1.818" height="1.818" transform="translate(475.179 80.971)"/>
      <rect id="Rectangle_123423" data-name="Rectangle 123423" width="1.818" height="1.818" transform="translate(476.997 80.971)"/>
      <rect id="Rectangle_123424" data-name="Rectangle 123424" width="1.818" height="1.818" transform="translate(478.816 80.971)"/>
      <rect id="Rectangle_123425" data-name="Rectangle 123425" width="1.818" height="1.818" transform="translate(480.634 80.971)"/>
      <rect id="Rectangle_123426" data-name="Rectangle 123426" width="1.818" height="1.818" transform="translate(482.452 80.971)"/>
      <rect id="Rectangle_123427" data-name="Rectangle 123427" width="1.818" height="1.818" transform="translate(484.27 80.971)"/>
      <rect id="Rectangle_123428" data-name="Rectangle 123428" width="1.818" height="1.818" transform="translate(486.088 80.971)"/>
      <rect id="Rectangle_123429" data-name="Rectangle 123429" width="1.818" height="1.818" transform="translate(469.725 82.789)"/>
      <rect id="Rectangle_123430" data-name="Rectangle 123430" width="1.818" height="1.818" transform="translate(487.907 82.789)"/>
      <rect id="Rectangle_123431" data-name="Rectangle 123431" width="1.818" height="1.818" transform="translate(469.725 84.607)"/>
      <rect id="Rectangle_123432" data-name="Rectangle 123432" width="1.818" height="1.818" transform="translate(478.816 84.607)"/>
      <rect id="Rectangle_123433" data-name="Rectangle 123433" width="1.818" height="1.818" transform="translate(487.907 84.607)"/>
      <rect id="Rectangle_123434" data-name="Rectangle 123434" width="1.818" height="1.818" transform="translate(469.725 86.426)"/>
      <rect id="Rectangle_123435" data-name="Rectangle 123435" width="1.818" height="1.818" transform="translate(476.997 86.426)"/>
      <rect id="Rectangle_123436" data-name="Rectangle 123436" width="1.818" height="1.818" transform="translate(478.816 86.426)"/>
      <rect id="Rectangle_123437" data-name="Rectangle 123437" width="1.818" height="1.818" transform="translate(480.634 86.426)"/>
      <rect id="Rectangle_123438" data-name="Rectangle 123438" width="1.818" height="1.818" transform="translate(487.907 86.426)"/>
      <rect id="Rectangle_123439" data-name="Rectangle 123439" width="1.818" height="1.818" transform="translate(469.725 88.244)"/>
      <rect id="Rectangle_123440" data-name="Rectangle 123440" width="1.818" height="1.818" transform="translate(487.907 88.244)"/>
      <rect id="Rectangle_123441" data-name="Rectangle 123441" width="1.818" height="1.818" transform="translate(471.543 90.062)"/>
      <rect id="Rectangle_123442" data-name="Rectangle 123442" width="1.818" height="1.818" transform="translate(473.361 90.062)"/>
      <rect id="Rectangle_123443" data-name="Rectangle 123443" width="1.818" height="1.818" transform="translate(475.179 90.062)"/>
      <rect id="Rectangle_123444" data-name="Rectangle 123444" width="1.818" height="1.818" transform="translate(476.997 90.062)"/>
      <rect id="Rectangle_123445" data-name="Rectangle 123445" width="1.818" height="1.818" transform="translate(478.816 90.062)"/>
      <rect id="Rectangle_123446" data-name="Rectangle 123446" width="1.818" height="1.818" transform="translate(480.634 90.062)"/>
      <rect id="Rectangle_123447" data-name="Rectangle 123447" width="1.818" height="1.818" transform="translate(482.452 90.062)"/>
      <rect id="Rectangle_123448" data-name="Rectangle 123448" width="1.818" height="1.818" transform="translate(484.27 90.062)"/>
      <rect id="Rectangle_123449" data-name="Rectangle 123449" width="1.818" height="1.818" transform="translate(486.088 90.062)"/>
    </g>
  </g>
</svg>
