<svg xmlns="http://www.w3.org/2000/svg" width="24" height="24" viewBox="0 0 24 24">
  <g id="px-icon34" transform="translate(10375.059 1042.195)">
    <rect id="Rectangle_152187" data-name="Rectangle 152187" width="24" height="24" transform="translate(-10375.059 -1042.195)" fill="#fff"/>
    <g id="px-icon34-2" data-name="px-icon34" transform="translate(-11108.013 -1377.305)">
      <rect id="Rectangle_123020" data-name="Rectangle 123020" width="1.818" height="1.818" transform="translate(736.773 337.11)"/>
      <rect id="Rectangle_123021" data-name="Rectangle 123021" width="1.818" height="1.818" transform="translate(738.591 337.11)"/>
      <rect id="Rectangle_123022" data-name="Rectangle 123022" width="1.818" height="1.818" transform="translate(740.409 337.11)"/>
      <rect id="Rectangle_123023" data-name="Rectangle 123023" width="1.818" height="1.818" transform="translate(747.682 337.11)"/>
      <rect id="Rectangle_123024" data-name="Rectangle 123024" width="1.818" height="1.818" transform="translate(749.5 337.11)"/>
      <rect id="Rectangle_123025" data-name="Rectangle 123025" width="1.818" height="1.818" transform="translate(751.318 337.11)"/>
      <rect id="Rectangle_123026" data-name="Rectangle 123026" width="1.818" height="1.818" transform="translate(734.954 338.928)"/>
      <rect id="Rectangle_123027" data-name="Rectangle 123027" width="1.818" height="1.818" transform="translate(753.136 338.928)"/>
      <rect id="Rectangle_123028" data-name="Rectangle 123028" width="1.818" height="1.818" transform="translate(734.954 340.746)"/>
      <rect id="Rectangle_123029" data-name="Rectangle 123029" width="1.818" height="1.818" transform="translate(753.136 340.746)"/>
      <rect id="Rectangle_123030" data-name="Rectangle 123030" width="1.818" height="1.818" transform="translate(734.954 342.564)"/>
      <rect id="Rectangle_123031" data-name="Rectangle 123031" width="1.818" height="1.818" transform="translate(740.409 342.564)"/>
      <rect id="Rectangle_123032" data-name="Rectangle 123032" width="1.818" height="1.818" transform="translate(747.682 342.564)"/>
      <rect id="Rectangle_123033" data-name="Rectangle 123033" width="1.818" height="1.818" transform="translate(753.136 342.564)"/>
      <rect id="Rectangle_123034" data-name="Rectangle 123034" width="1.818" height="1.818" transform="translate(734.954 344.383)"/>
      <rect id="Rectangle_123035" data-name="Rectangle 123035" width="1.818" height="1.818" transform="translate(742.227 344.383)"/>
      <rect id="Rectangle_123036" data-name="Rectangle 123036" width="1.818" height="1.818" transform="translate(745.864 344.383)"/>
      <rect id="Rectangle_123037" data-name="Rectangle 123037" width="1.818" height="1.818" transform="translate(753.136 344.383)"/>
      <rect id="Rectangle_123038" data-name="Rectangle 123038" width="1.818" height="1.818" transform="translate(736.773 346.201)"/>
      <rect id="Rectangle_123039" data-name="Rectangle 123039" width="1.818" height="1.818" transform="translate(751.318 346.201)"/>
      <rect id="Rectangle_123040" data-name="Rectangle 123040" width="1.818" height="1.818" transform="translate(742.227 337.11)"/>
      <rect id="Rectangle_123041" data-name="Rectangle 123041" width="1.818" height="1.818" transform="translate(744.045 338.928)"/>
      <rect id="Rectangle_123042" data-name="Rectangle 123042" width="1.818" height="1.818" transform="translate(745.864 337.11)"/>
      <rect id="Rectangle_123043" data-name="Rectangle 123043" width="1.818" height="1.818" transform="translate(749.5 340.746)"/>
      <rect id="Rectangle_123044" data-name="Rectangle 123044" width="1.818" height="1.818" transform="translate(744.045 346.201)"/>
      <rect id="Rectangle_123045" data-name="Rectangle 123045" width="1.818" height="1.818" transform="translate(734.954 348.019)"/>
      <rect id="Rectangle_123046" data-name="Rectangle 123046" width="1.818" height="1.818" transform="translate(753.136 348.019)"/>
      <rect id="Rectangle_123047" data-name="Rectangle 123047" width="1.818" height="1.818" transform="translate(734.954 349.837)"/>
      <rect id="Rectangle_123048" data-name="Rectangle 123048" width="1.818" height="1.818" transform="translate(753.136 349.837)"/>
      <rect id="Rectangle_123049" data-name="Rectangle 123049" width="1.818" height="1.818" transform="translate(734.954 351.655)"/>
      <rect id="Rectangle_123050" data-name="Rectangle 123050" width="1.818" height="1.818" transform="translate(753.136 351.655)"/>
      <rect id="Rectangle_123051" data-name="Rectangle 123051" width="1.818" height="1.818" transform="translate(734.954 353.474)"/>
      <rect id="Rectangle_123052" data-name="Rectangle 123052" width="1.818" height="1.818" transform="translate(753.136 353.474)"/>
      <rect id="Rectangle_123053" data-name="Rectangle 123053" width="1.818" height="1.818" transform="translate(736.773 355.292)"/>
      <rect id="Rectangle_123054" data-name="Rectangle 123054" width="1.818" height="1.818" transform="translate(738.591 355.292)"/>
      <rect id="Rectangle_123055" data-name="Rectangle 123055" width="1.818" height="1.818" transform="translate(740.409 355.292)"/>
      <rect id="Rectangle_123056" data-name="Rectangle 123056" width="1.818" height="1.818" transform="translate(742.227 355.292)"/>
      <rect id="Rectangle_123057" data-name="Rectangle 123057" width="1.818" height="1.818" transform="translate(744.045 353.474)"/>
      <rect id="Rectangle_123058" data-name="Rectangle 123058" width="1.818" height="1.818" transform="translate(745.864 355.292)"/>
      <rect id="Rectangle_123059" data-name="Rectangle 123059" width="1.818" height="1.818" transform="translate(747.682 355.292)"/>
      <rect id="Rectangle_123060" data-name="Rectangle 123060" width="1.818" height="1.818" transform="translate(749.5 355.292)"/>
      <rect id="Rectangle_123061" data-name="Rectangle 123061" width="1.818" height="1.818" transform="translate(751.318 355.292)"/>
    </g>
  </g>
</svg>
