<svg xmlns="http://www.w3.org/2000/svg" width="24" height="24" viewBox="0 0 24 24">
  <g id="px-icon41" transform="translate(10011.059 1070.195)">
    <rect id="Rectangle_152125" data-name="Rectangle 152125" width="24" height="24" transform="translate(-10011.059 -1070.195)" fill="#fff"/>
    <g id="px-icon41-2" data-name="px-icon41" transform="translate(-10080.938 -1405.305)">
      <path id="Union_9" data-name="Union 9" d="M10876.063,1254.11v-1.818h1.817v1.818Zm-3.637,0v-1.818h1.818v1.818Zm-10.909,0v-1.818h1.818v1.818Zm-3.636,0v-3.636h0v-1.818h1.817v1.818h1.818v1.818h-1.818v1.818Zm18.182-1.818v-1.818h1.817v1.818Zm-1.818,0v-1.818h1.818v1.818Zm-1.818,0v-1.818h1.818v1.818Zm-10.909,0v-1.818h1.818v1.818Zm14.546-1.818v-1.818h1.817v1.818Zm-3.637,0v-1.818h1.818v1.818Zm-1.818,0h-1.818v-1.818h3.637v1.818Zm-3.636,0v-1.818h1.817v1.818Zm-1.818,0v-1.818h1.818v1.818Zm-1.818,0v-1.818h1.818v1.818Zm-1.818,0v-1.818h1.818v1.818Zm14.546-1.818v-1.818h1.817v1.818Zm-1.818,0v-1.818h1.818v1.818Zm-1.818,0v-1.818h1.818v1.818Zm-10.909,0v-1.818h1.818v1.818Zm-1.818,0h-1.817v-1.818h0v-1.818h1.817v1.818h1.818v1.818Zm16.364-1.818v-1.818h1.817v1.818Zm-3.637,0V1243.2h1.818v3.636Zm-10.909,0v-1.818h-1.818V1243.2h1.818v0h1.818v3.636Zm14.546-1.818h-1.818V1243.2h3.636v1.818Zm-18.182,0V1243.2h1.817v1.818Zm18.182-1.818v-1.818h1.817v1.818Zm-3.637,0v-1.818h1.818v1.818Zm-3.637,0v-1.818h1.818v1.818Zm-7.272,0v-1.818h1.818v1.818Zm-3.636,0v-1.818h1.817v1.818Zm18.182-1.818v-1.818h1.817v1.818Zm-1.818,0h-1.818v-1.818h0v-1.818h1.818v1.818h1.818v1.818Zm-12.728,0v-1.818h1.818v1.818Zm-1.818,0v-1.818h1.818v1.818Zm-1.817,0v-1.818h1.817v1.818Zm18.182-1.818v-1.818h1.817v1.818Zm-5.455,0v-1.818h1.818v1.818Zm-1.818,0v-1.818h1.818v1.818Zm-1.817,0v-1.818h1.817v1.818Zm-1.818,0v-1.818h1.818v1.818Zm-1.818,0h-1.818v-1.818h3.637v1.818Zm-5.454,0v-1.818h1.817v1.818Zm18.182-1.818v-1.818h1.817v1.818Zm-1.818,0v-1.818h1.818v1.818Zm-1.818,0v-1.818h1.818v1.818Zm-10.909,0v-1.818h1.818v1.818Zm-1.818,0v-1.818h1.818v1.818Zm-1.817,0v-1.818h1.817v1.818Zm18.182-1.818v-1.818h1.817v1.818Zm-3.637,0v-1.818h1.818v1.818Zm-10.909,0v-1.818h1.818v1.818Zm-3.636,0v-1.818h1.817v1.818Z" transform="translate(-10786 -897)"/>
      <path id="Union_9_-_Outline" data-name="Union 9 - Outline" d="M10878.38,1254.61h-2.817v-1.818h-.818v1.818h-2.818v-3.636h-8.091v3.636h-2.818v-1.818h-.818v1.818h-2.817v-21h2.817v1.818h.818v-1.818h2.818v3.636h8.091v-3.636h2.818v1.818h.818v-1.818h2.817Zm-1.817-1h.817v-.818h-.817Zm-3.637,0h.818v-.818h-.818Zm-10.909,0h.818v-.818h-.818Zm-3.636,0h.817v-1.818h1.818v-.818h-2.636Zm18.182-1.818h.817v-.818h-.817Zm-1.818,0h.818v-.818h-.818Zm-1.818,0h.818v-.818h-.818Zm-10.909,0h.818v-.818h-.818Zm14.546-1.818h.817v-.818h-.817Zm-1.818,0h.818v-.818h-.818Zm-1.818,0h.818v-.818h-.818Zm-3.637,0h2.637v-.818h-2.637Zm-1.817,0h.817v-.818h-.817Zm-1.818,0h.818v-.818h-.818Zm-1.818,0h.818v-.818h-.818Zm-1.818,0h.818v-.818h-.818Zm-1.818,0h.818v-.818h-.818Zm-1.817,0h.817v-.818h-.817Zm18.182-1.818h.817v-.818h-.817Zm-1.818,0h.818v-.818h-.818Zm-1.818,0h.818v-.818h-.818Zm-4.637,0h3.637v-8.091h-8.091v8.091Zm-6.272,0h.818v-.818h-.818Zm-1.818,0h.818v-.818h-2.636v.818Zm16.364-1.818h.817v-.818h-.817Zm-1.818,0h.818v-.818h-.818Zm-1.818,0h.818V1243.7h-.818Zm-10.909,0h.818V1243.7h-.818Zm-1.818,0h.818v-.818h-.818Zm-1.817,0h.817v-.818h-.817Zm17.182-1.818h1.817v-.818h-2.636v.818Zm-15.364,0h.818v-.818h-.818Zm-1.817,0h.817v-.818h-.817Zm18.182-1.818h.817v-.818h-.817Zm-1.818,0h.818v-.818h-.818Zm-1.818,0h.818v-.818h-.818Zm-10.909,0h.818v-.818h-.818Zm-1.818,0h.818v-.818h-.818Zm-1.817,0h.817v-.818h-.817Zm18.182-1.818h.817v-.818h-.817Zm-1.818,0h.818v-.818h-2.637v.818Zm-12.728,0h.818v-.818h-.818Zm-1.818,0h.818v-.818h-.818Zm-1.817,0h.817v-.818h-.817Zm18.182-1.818h.817v-.818h-.817Zm-1.818,0h.818v-.818h-.818Zm-1.818,0h.818v-.818h-.818Zm-1.818,0h.818v-.818h-.818Zm-1.818,0h.818v-.818h-.818Zm-1.817,0h.817v-.818h-.817Zm-1.818,0h.818v-.818h-.818Zm-1.818,0h.818v-.818h-2.637v.818Zm-3.637,0h.818v-.818h-.818Zm-1.817,0h.817v-.818h-.817Zm18.182-1.818h.817v-.818h-.817Zm-1.818,0h.818v-.818h-.818Zm-1.818,0h.818v-.818h-.818Zm-10.909,0h.818v-.818h-.818Zm-1.818,0h.818v-.818h-.818Zm-1.817,0h.817v-.818h-.817Zm18.182-1.818h.817v-.818h-.817Zm-3.637,0h.818v-.818h-.818Zm-10.909,0h.818v-.818h-.818Zm-3.636,0h.817v-.818h-.817Zm12.727,8.273h-2.818v-2.818h2.818Zm-1.818-1h.818v-.818h-.818Z" transform="translate(-10786 -897)" fill="rgba(0,0,0,0)"/>
    </g>
  </g>
</svg>
