<svg xmlns="http://www.w3.org/2000/svg" width="24" height="24" viewBox="0 0 24 24">
  <g id="right-arrow" transform="translate(10123.059 1126.195)">
    <rect id="Rectangle_152141" data-name="Rectangle 152141" width="24" height="24" transform="translate(-10123.059 -1126.195)" fill="#fff"/>
    <g id="arrow48" transform="translate(-9948.075 -1239.291)">
      <path id="rect1821" d="M-168.142,119.275v1.059h1.056v-1.059Zm1.056,1.059v1.058h1.059v-1.058Zm1.059,1.058v1.059h1.058v-1.059Zm1.058,1.059v1.058h1.059v-1.058Zm1.059,1.058v1.059h1.058v-1.059Zm1.058,1.059v1.057h1.059v-1.057Zm0,1.057h-1.058v1.058h1.058Zm-1.058,1.058h-1.059v1.059h1.059Zm-1.059,1.059h-1.058V128.8h1.058Zm-1.058,1.058h-1.059v1.059h1.059Zm-1.059,1.059h-1.056v1.058h1.056Zm2.912-10.584v1.059h1.056v-1.059Zm1.056,1.059v1.058h1.059v-1.058Zm1.059,1.058v1.059H-161v-1.059Zm1.058,1.059v1.058h1.059v-1.058Zm1.059,1.058v1.059h1.058v-1.059Zm1.058,1.059v1.057h1.059v-1.057Zm0,1.057h-1.058v1.058h1.058Zm-1.058,1.058H-161v1.059h1.059ZM-161,127.742h-1.058V128.8H-161Zm-1.058,1.058h-1.059v1.059h1.059Zm-1.059,1.059h-1.056v1.058h1.056Z"/>
    </g>
  </g>
</svg>
