<svg xmlns="http://www.w3.org/2000/svg" width="24" height="24" viewBox="0 0 24 24">
  <g id="section-plus" transform="translate(10291.059 846.195)">
    <rect id="Rectangle_151951" data-name="Rectangle 151951" width="24" height="24" transform="translate(-10291.059 -846.195)" fill="#fff"/>
    <path id="section-plus-2" data-name="section-plus" d="M3,3H5.222V5.222H3ZM7.444,3H9.667V5.222H7.444ZM9.667,20.778H7.444V23H9.667Zm2.222,0h2.222V23H11.889ZM5.222,7.444H3V9.667H5.222Zm15.556,0H23V9.667H20.778ZM23,11.889H20.778v2.222H23Zm-20,0H5.222v2.222H3Zm2.222,4.444H3v2.222H5.222Zm13.333,0h2.222v2.222H23v2.222H20.778V23H18.556V20.778H16.333V18.556h2.222ZM5.222,20.778H3V23H5.222ZM11.889,3h2.222V5.222H11.889Zm6.667,0H16.333V5.222h2.222ZM23,3H20.778V5.222H23Z" transform="translate(-10292.059 -847.195)"/>
  </g>
</svg>
