<svg xmlns="http://www.w3.org/2000/svg" width="24" height="24" viewBox="0 0 24 24">
  <g id="svg" transform="translate(10356.5 1406.5)">
    <rect id="Rectangle_152541" data-name="Rectangle 152541" width="24" height="24" transform="translate(-10356.5 -1406.5)" fill="#fff"/>
    <path id="svg-2" data-name="svg" d="M13.5,3.5H14V3.293l-.146-.146Zm-3-3,.354-.354L10.707,0H10.5Zm-8,6V6H2v.5Zm0,2H2V9h.5Zm2,0H5V8H4.5Zm0,2V11H5v-.5Zm2-1H6v.207l.146.146Zm1,1-.354.354.354.354.354-.354Zm1-1,.354.354L9,9.707V9.5Zm2-3V6H10v.5Zm0,4H10V11h.5Zm2,0V11H13v-.5ZM2,5V1.5H1V5ZM13,3.5V5h1V3.5ZM2.5,1h8V0h-8ZM10.146.854l3,3,.707-.707-3-3ZM2,1.5A.5.5,0,0,1,2.5,1V0A1.5,1.5,0,0,0,1,1.5ZM1,12v1.5H2V12Zm1.5,3h10V14H2.5ZM14,13.5V12H13v1.5ZM12.5,15A1.5,1.5,0,0,0,14,13.5H13a.5.5,0,0,1-.5.5ZM1,13.5A1.5,1.5,0,0,0,2.5,15V14a.5.5,0,0,1-.5-.5ZM5,6H2.5V7H5ZM2,6.5v2H3v-2ZM2.5,9h2V8h-2ZM4,8.5v2H5v-2ZM4.5,10H2v1H4.5ZM6,6V9.5H7V6Zm.146,3.854,1,1,.707-.707-1-1Zm1.707,1,1-1-.707-.707-1,1ZM9,9.5V6H8V9.5ZM13,6H10.5V7H13Zm-3,.5v4h1v-4Zm.5,4.5h2V10h-2Zm2.5-.5v-2H12v2Z" transform="translate(-10352 -1402)"/>
  </g>
</svg>
