<svg xmlns="http://www.w3.org/2000/svg" width="24" height="24" viewBox="0 0 24 24">
  <g id="target" transform="translate(10347.059 538.195)">
    <rect id="Rectangle_151753" data-name="Rectangle 151753" width="24" height="24" transform="translate(-10347.059 -538.195)" fill="#fff"/>
    <path id="target-2" data-name="target" d="M12,13H10V12H9V10h1V9h2v1h1v2H12Zm2,4H8V16H7V15H6V14H5V8H6V7H7V6H8V5h6V6h1V7h1V8h1v6H16v1H15v1H14Zm1,4H7V20H5V19H4V18H3V17H2V15H1V7H2V5H3V4H4V3H5V2H7V1h8V2h2V3h1V4h1V5h1V7h1v8H20v2H19v1H18v1H17v1H15Zm-2-6V14h1V13h1V9H14V8H13V7H9V8H8V9H7v4H8v1H9v1Zm1,4V18h2V17h1V16h1V14h1V8H18V6H17V5H16V4H14V3H8V4H6V5H5V6H4V8H3v6H4v2H5v1H6v1H8v1Z" transform="translate(-10346.059 -537.195)"/>
  </g>
</svg>
