<svg xmlns="http://www.w3.org/2000/svg" width="24" height="24" viewBox="0 0 24 24">
  <g id="transportation-motorcycle" transform="translate(10067.059 1182.195)">
    <rect id="Rectangle_152209" data-name="Rectangle 152209" width="24" height="24" transform="translate(-10067.059 -1182.195)" fill="#fff"/>
    <g id="transportation-motorcycle-1" transform="translate(-10065.059 -1182.863)">
      <path id="Path_6461" data-name="Path 6461" d="M46.67,27.435h-.95v2.856h.95Z" transform="translate(-26.67 -13.335)"/>
      <path id="Path_6462" data-name="Path 6462" d="M44.39,25.14h-.95V26.1h.95Z" transform="translate(-25.34 -11.996)"/>
      <path id="Path_6463" data-name="Path 6463" d="M23.437,28.385h-.956v1.906H16.769V28.385h-.95v.956h-.956V27.435h-.95v1.906H12.006v.95H9.15v.95h2.856V32.2h.95v-.956h3.812V32.2h.95v-.956h4.762V32.2h.956v-.956h.95v-.95h-.95Z" transform="translate(-5.337 -13.335)"/>
      <path id="Path_6464" data-name="Path 6464" d="M39.815,38.865h-.95v.95h.95Z" transform="translate(-22.671 -20.002)"/>
      <path id="Path_6465" data-name="Path 6465" d="M39.815,27.435h-.95v.95h.95Z" transform="translate(-22.671 -13.335)"/>
      <path id="Path_6466" data-name="Path 6466" d="M34.866,41.145H32.01v.95h2.856Z" transform="translate(-18.672 -21.333)"/>
      <path id="Path_6467" data-name="Path 6467" d="M33.916,29.715H32.01v.956h1.906Z" transform="translate(-18.672 -14.665)"/>
      <path id="Path_6468" data-name="Path 6468" d="M33.528,25.14H29.715V26.1h3.813Z" transform="translate(-17.334 -11.996)"/>
      <path id="Path_6469" data-name="Path 6469" d="M30.671,38.865h-.956v.95h.956Z" transform="translate(-17.334 -20.002)"/>
      <path id="Path_6470" data-name="Path 6470" d="M28.385,27.435h-.95v.95h.95Z" transform="translate(-16.004 -13.335)"/>
      <path id="Path_6471" data-name="Path 6471" d="M22.486,18.861h6.663v.95H30.1v-.95h.95V16.955H30.1V16H21.53v.95h-.95v1.906h.95v1.906h.956Z" transform="translate(-12.005 -6.668)"/>
      <path id="Path_6472" data-name="Path 6472" d="M14.675,38.865h-.95v.95h.95Z" transform="translate(-8.006 -20.002)"/>
      <path id="Path_6473" data-name="Path 6473" d="M12.386,19.429H11.43v.95h.956v.956h.95V13.71h-.95Z" transform="translate(-6.668 -5.329)"/>
      <path id="Path_6474" data-name="Path 6474" d="M11.056,7.431h.95v.95h.95v-.95h1.906v-.95H12.956V5.525h-.95v-.95H9.15v.95h1.906Z" transform="translate(-5.337)"/>
      <path id="Path_6475" data-name="Path 6475" d="M9.726,41.145H6.87v.95H9.726Z" transform="translate(-4.007 -21.333)"/>
      <path id="Path_6476" data-name="Path 6476" d="M7.431,9.15h-.95v1.9H4.575v.956H6.481v.95h.95Z" transform="translate(-2.669 -2.669)"/>
      <path id="Path_6477" data-name="Path 6477" d="M7.82,18.285H6.87v1.906h.95Z" transform="translate(-4.007 -7.997)"/>
      <path id="Path_6478" data-name="Path 6478" d="M6.481,6.855H4.575v.956H6.481Z" transform="translate(-2.669 -1.33)"/>
      <path id="Path_6479" data-name="Path 6479" d="M5.531,38.865H4.575v.95h.956Z" transform="translate(-2.669 -20.002)"/>
      <path id="Path_6480" data-name="Path 6480" d="M6.1,24.766V23.81H4.2v-.95H3.245v.95H2.3v.956Z" transform="translate(-1.339 -10.666)"/>
      <path id="Path_6481" data-name="Path 6481" d="M3.812,30.291v-.95H.956V27.435H0v2.856H.956V32.2h.95V30.291Z" transform="translate(0 -13.335)"/>
      <path id="Path_6482" data-name="Path 6482" d="M3.245,9.15H2.3v1.9h.95Z" transform="translate(-1.339 -2.669)"/>
    </g>
  </g>
</svg>
