<svg xmlns="http://www.w3.org/2000/svg" width="24" height="24" viewBox="0 0 24 24">
  <g id="transportation-train" transform="translate(10319.059 1238.195)">
    <rect id="Rectangle_152262" data-name="Rectangle 152262" width="24" height="24" transform="translate(-10319.059 -1238.195)" fill="#fff"/>
    <g id="transportation-train-2" data-name="transportation-train" transform="translate(-10322.913 -1236.794)">
      <path id="Path_5338" data-name="Path 5338" d="M7.758,22.285H23.952v4.763h.95V13.71h-.95v1.906H7.758V13.71h-.95V27.048h.95Zm8.575-5.719h7.619v4.763H16.333Zm-8.575,0h7.619v4.763H7.758Z" transform="translate(0 -11.21)"/>
      <path id="Path_5339" data-name="Path 5339" d="M119.4,105.68h-.956v.95h.956Z" transform="translate(-95.449 -89.844)"/>
      <path id="Path_5340" data-name="Path 5340" d="M119.4,7.155h-.956V8.1h.956Z" transform="translate(-95.449 -5.605)"/>
      <path id="Path_5341" data-name="Path 5341" d="M112.854,85.984h-.95v1.9h.95Z" transform="translate(-89.857 -73.004)"/>
      <path id="Path_5342" data-name="Path 5342" d="M19.963,112.236v.95h1.9v.956h-.95v.95h-.95v.956h1.9v-.956h.956v-.95h.95v-.956h6.669v.956h.95v.95h.956v.956h1.9v-.956H33.3v-.95h-.95v-.956h1.9v-.95Z" transform="translate(-11.248 -95.449)"/>
      <path id="Path_5343" data-name="Path 5343" d="M100.654,79.4H98.748v.956h1.906Z" transform="translate(-78.609 -67.374)"/>
      <path id="Path_5344" data-name="Path 5344" d="M100.654,99.1H98.748v.956h1.906Z" transform="translate(-78.609 -84.214)"/>
      <path id="Path_5345" data-name="Path 5345" d="M93.158,85.984h-.95v1.9h.95Z" transform="translate(-73.017 -73.004)"/>
      <path id="Path_5346" data-name="Path 5346" d="M62.212,85.984H59.356v1.9h2.856Z" transform="translate(-44.929 -73.004)"/>
      <path id="Path_5347" data-name="Path 5347" d="M62.212,13.7H59.356v.956h2.856Z" transform="translate(-44.929 -11.197)"/>
      <path id="Path_5348" data-name="Path 5348" d="M40.61,85.984h-.95v1.9h.95Z" transform="translate(-28.088 -73.004)"/>
      <path id="Path_5349" data-name="Path 5349" d="M28.41,79.4H26.5v.956H28.41Z" transform="translate(-16.84 -67.374)"/>
      <path id="Path_5350" data-name="Path 5350" d="M28.41,99.1H26.5v.956H28.41Z" transform="translate(-16.84 -84.214)"/>
      <path id="Path_5351" data-name="Path 5351" d="M34.245.6H19.963v.95H34.245Z" transform="translate(-11.248)"/>
      <path id="Path_5352" data-name="Path 5352" d="M20.913,85.984h-.95v1.9h.95Z" transform="translate(-11.248 -73.004)"/>
      <path id="Path_5353" data-name="Path 5353" d="M14.319,105.68h-.956v.95h.956Z" transform="translate(-5.605 -89.844)"/>
      <path id="Path_5354" data-name="Path 5354" d="M14.319,7.155h-.956V8.1h.956Z" transform="translate(-5.605 -5.605)"/>
    </g>
  </g>
</svg>
