<svg xmlns="http://www.w3.org/2000/svg" width="24" height="24" viewBox="0 0 24 24">
  <g id="up" transform="translate(9871.059 1098.195)">
    <rect id="Rectangle_152093" data-name="Rectangle 152093" width="24" height="24" transform="translate(-9871.059 -1098.195)" fill="#fff"/>
    <g id="arrow19" transform="translate(-9696.075 -1211.291)">
      <path id="rect6456" d="M-160.338,120.334v1.058h1.059v-1.058Zm1.059,1.058v1.059h1.058v-1.059Zm1.058,1.059v1.058h1.059v-1.058Zm0,1.058h-1.058V128.8h-1.059v-5.291H-161.4v6.35h3.176Zm-3.176,0v-1.058h-1.059v1.058Zm0-1.058h1.058v-1.059H-161.4Zm-5.291,0v1.058h1.059v-1.058Zm1.059,1.058v1.057h1.058v-1.057Zm-1.059,0h-1.058v1.057h1.058Zm-2.117,1.059v1.057h1.059v-1.057Zm1.059,1.057v4.234h3.176v-4.234h-1.058V128.8h-1.059v-3.176Zm3.176,0h1.059v-1.057h-1.059Z"/>
    </g>
  </g>
</svg>
