<svg xmlns="http://www.w3.org/2000/svg" width="16" height="16" fill="none" viewBox="0 0 16 16">
  <g clip-path="url(#a)">
    <path fill="#000" d="M3 4h1v1H3zm1 0h1v1H4zm1 0h1v1H5zm1 0h1v1H6zm1 0h1v1H7zm1 0h1v1H8zm1 0h1v1H9zm1 0h1v1h-1zm1 0h1v1h-1zm1 0h1v1h-1zm1 0h1v1h-1zm0 2h1v1h-1zM9 6h1v1H9zm3 2h1v1h-1zm1 0h1v1h-1zm1 0h1v1h-1zm0 1h1v1h-1zm0 1h1v1h-1zm-1 0h1v1h-1zM3 6h1v1H3zm0 1h1v1H3zm0 1h1v1H3zM2 6h1v1H2zm0 1h1v1H2zM1 6h1v1H1zm0-1h1v1H1zm1 0h1v1H2zm1 0h1v1H3zM2 4h1v1H2zm1-1h1v1H3zm0-1h1v1H3zm1-1h1v1H4zm6 10h1v1h-1zm0 1h1v1h-1zm1-1h1v1h-1zm0 1h1v1h-1zm1 0h1v1h-1zm0-1h1v1h-1zm1 0h1v1h-1zm0 1h1v1h-1zm-4 0h1v1H9zm0 1h1v1H9zm4 0h1v1h-1zm-1 0h1v1h-1zm-1 0h1v1h-1zm-1 0h1v1h-1zm-1 1h1v1H9zM1 9h1v1H1zm10 6h1v1h-1zm3-2h1v1h-1zm0-1h1v1h-1zm0 2h1v1h-1zM9 7h1v1H9zm4 0h1v1h-1zM8 6h1v1H8zm4 0h1v1h-1zM4 5h1v1H4zm1 0h1v1H5zm1 0h1v1H6zm1 0h1v1H7zm1 0h1v1H8zm1 0h1v1H9zm1 0h1v1h-1zm1 0h1v1h-1zm1 0h1v1h-1zm1 0h1v1h-1zm1 0h1v1h-1zm1 0h1v1h-1zM5 3h1v1H5zm0-1h1v1H5zM4 3h1v1H4zm0-1h1v1H4zm2 0h1v1H6zm0 1h1v1H6zm0-2h1v1H6zm1 0h1v1H7zm0 1h1v1H7zm0 1h1v1H7zM5 1h1v1H5zm3 2h1v1H8zm0-2h1v1H8zm1 1h1v1H9zm0 1h1v1H9zM8 2h1v1H8zm1-1h1v1H9zm1 1h1v1h-1zm0 1h1v1h-1zm1 0h1v1h-1z"/>
    <path fill="#fff" d="M12 2h1v1h-1z"/>
    <path fill="#000" d="M12 3h1v1h-1zm1 0h1v1h-1zm0-1h1v1h-1zM2 3h1v1H2zm2-3h1v1H4zm1 0h1v1H5zm1 0h1v1H6zm1 0h1v1H7zm1 0h1v1H8zm1 0h1v1H9zm1 0h1v1h-1zm1 0h1v1h-1zM3 1h1v1H3zM2 2h1v1H2zM0 7h1v1H0zm0 2h1v1H0zm0-1h1v1H0zm1 2h1v1H1zm1 1h1v1H2zm0 1h1v1H2zm0 1h1v1H2zm1 1h1v1H3z"/>
    <path fill="#fff" d="M3 15h1v1H3z"/>
    <path fill="#000" d="M4 14h1v1H4zm1 0h1v1H5zm1 0h1v1H6zm1 0h1v1H7zm1 1h1v1H8zM3 9h1v1H3zM0 5h1v1H0zm12-4h1v1h-1zm-2 5h1v1h-1z"/>
    <path fill="#fff" d="M7 10h1v1H7zm0 1h1v1H7zm0 1h1v1H7zm0 1h1v1H7zm1 0h1v1H8zm0 1h1v1H8zm0-2h1v1H8zm0-1h1v1H8zm0-1h1v1H8zm0-1h1v1H8zm0-1h1v1H8zm0-1h1v1H8zM7 7h1v1H7zm0 1h1v1H7zm0 1h1v1H7zM6 9h1v1H6zm0 1h1v1H6zm0 1h1v1H6zm0 1h1v1H6zm0 1h1v1H6zm-1 0h1v1H5zm0-1h1v1H5zm0-1h1v1H5zm0-1h1v1H5zm0-1h1v1H5zm0-1h1v1H5zm0-1h1v1H5zm0-1h1v1H5zm1 0h1v1H6zm0 1h1v1H6zm0 1h1v1H6zm1-2h1v1H7zM4 6h1v1H4zm0 1h1v1H4zm0 1h1v1H4zm0 1h1v1H4zm0 1h1v1H4zm0 1h1v1H4zm0 1h1v1H4zm0 1h1v1H4zm-1 0h1v1H3zm0-1h1v1H3zm0-1h1v1H3zm0-1h1v1H3zm-1 0h1v1H2zm0-1h1v1H2zm0-1h1v1H2zM1 8h1v1H1zm0-1h1v1H1zm8 1h1v1H9zm0 1h1v1H9zm0 1h1v1H9zm0 1h1v1H9zm1-1h1v1h-1zm0-1h1v1h-1zm0-1h1v1h-1zm0-1h1v1h-1zm1 0h1v1h-1zm0 1h1v1h-1zm0 1h1v1h-1zm0 1h1v1h-1zm1 0h1v1h-1zm0-1h1v1h-1zm1 0h1v1h-1zm-2-3h1v1h-1zm1 1h1v1h-1z"/>
    <path fill="#000" d="M1 14h1v1H1zm-1 1h1v1H0zm1 0h1v1H1zm1-1h1v1H2z"/>
    <path fill="#fff" d="M2 15h1v1H2zm7 0h1v1H9zm1 0h1v1h-1zm0-1h1v1h-1zm1 0h1v1h-1zm-7 1h1v1H4zm1 0h1v1H5zm1 0h1v1H6zm1 0h1v1H7z"/>
    <path fill="#000" d="M10 1h1v1h-1zm1 1h1v1h-1z"/>
    <path fill="#fff" d="M11 1h1v1h-1z"/>
  </g>
  <defs>
    <clipPath id="a">
      <path fill="#fff" d="M0 0h16v16H0z"/>
    </clipPath>
  </defs>
</svg>
