<svg xmlns="http://www.w3.org/2000/svg" width="16" height="16" fill="none" viewBox="0 0 16 16">
  <g clip-path="url(#a)">
    <path fill="#000" d="M15 6h1v1h-1zm0 3h1v1h-1zm-1-4h1v1h-1zm-1-1h1v1h-1zm-2-1h1v1h-1zm1 0h1v1h-1zM9 2h1v1H9zm1 0h1v1h-1zM6 1h1v1H6zM5 1h1v1H5zM1 0h1v1H1zM0 0h1v1H0zm3 0h1v1H3zM2 0h1v1H2zm12 10h1v1h-1zm-1 1h1v1h-1zm-1 1h1v1h-1zm-1 0h1v1h-1zm-1 1h1v1h-1zm-1 0h1v1H9zm-3 1h1v1H6zm-1 0h1v1H5zm-3 1h1v1H2zm-2 0h1v1H0zm1 0h1v1H1zm14-8h1v1h-1zm0 1h1v1h-1zM3 4h1v1H3zm0 1h1v1H3zm0 1h1v1H3zm1 1h1v1H4zm1 0h1v1H5zm1 0h1v1H6zm1-1h1v1H7zM5 5h1v1H5zM3 9h1v1H3zM0 4h1v1H0zm0 1h1v1H0zm0 1h1v1H0zm0 1h1v1H0zm1 0h1v1H1zm0-1h1v1H1zm0-1h1v1H1zm0-1h1v1H1zm0-1h1v1H1zm0-1h1v1H1zm0-1h1v1H1zm1 0h1v1H2zm0 1h1v1H2zm0 1h1v1H2zm0 1h1v1H2zm0 1h1v1H2zm0 1h1v1H2zm0 1h1v1H2zm0 1h1v1H2zm1 0h1v1H3zm0-1h1v1H3zm1 1h1v1H4zm0 1h1v1H4zm1 0h1v1H5zm0-1h1v1H5zm1 0h1v1H6zm0 1h1v1H6zm1-1h1v1H7zm0-1h1v1H7zm1 0h1v1H8zm0 1h1v1H8zm0 1h1v1H8zm2 1h1v1h-1zm0-1h1v1h-1zm0-1h1v1h-1zm0-1h1v1h-1zm0-1h1v1h-1zm0-1h1v1h-1zm0-1h1v1h-1zm0-1h1v1h-1zM9 3h1v1H9zm0 1h1v1H9zm0 1h1v1H9zm0 1h1v1H9zm0 1h1v1H9zm0 1h1v1H9zm0 1h1v1H9zM8 6h1v1H8zm0-1h1v1H8zm0-1h1v1H8zm0-1h1v1H8zm0-1h1v1H8zM7 2h1v1H7zm0 1h1v1H7zM6 2h1v1H6zM5 2h1v1H5zM4 2h1v1H4zm0-1h1v1H4zM3 1h1v1H3zm0 1h1v1H3zm0 1h1v1H3zm8 1h1v1h-1zm0 1h1v1h-1zm0 1h1v1h-1zm0 1h1v1h-1zm0 1h1v1h-1zm0 1h1v1h-1zm0 1h1v1h-1zm1 1h1v1h-1zm0-1h1v1h-1zm0-1h1v1h-1zm0-1h1v1h-1zm0-1h1v1h-1zm0-1h1v1h-1zm0-1h1v1h-1zm0-1h1v1h-1zm1 1h1v1h-1zm0 1h1v1h-1zm0 1h1v1h-1zm0 1h1v1h-1zm0 1h1v1h-1zm0 1h1v1h-1zm1-1h1v1h-1zm0-1h1v1h-1zm0-1h1v1h-1zm0-1h1v1h-1zM0 1h1v1H0zm0 1h1v1H0zm0 1h1v1H0zm4 0h1v1H4zm2 2h1v1H6zm0-1h1v1H6zM5 4h1v1H5zM4 6h1v1H4zm3 3h1v1H7zm0 1h1v1H7zm1 0h1v1H8zm1 0h1v1H9zm-5 4h1v1H4zm-1-1h1v1H3zm0 1h1v1H3zm-1-2h1v1H2zm1-1h1v1H3zm1 0h1v1H4zm2 1h1v1H6zm-1 0h1v1H5zm2 1h1v1H7zm1 0h1v1H8zm-7-3h1v1H1zm-1 1h1v1H0zm0 1h1v1H0zM7 1h1v1H7z"/>
    <path fill="#fff" d="M1 9h1v1H1zm0-1h1v1H1zM0 8h1v1H0zm0 1h1v1H0zm0 1h1v1H0zm2-1h1v1H2zm0 1h1v1H2zm0 1h1v1H2zm-1 0h1v1H1zm0 1h1v1H1zm0 1h1v1H1zm0 1h1v1H1zm1 0h1v1H2zm0-1h1v1H2zm-2 1h1v1H0zm0-1h1v1H0zm3-3h1v1H3zm1 0h1v1H4zm1 0h1v1H5zm0 1h1v1H5zm1 0h1v1H6zm0-1h1v1H6zm1 1h1v1H7zm0 1h1v1H7zm1 0h1v1H8zm0-1h1v1H8zm1 0h1v1H9zm0 1h1v1H9zm1 0h1v1h-1zm0-1h1v1h-1zm1 0h1v1h-1zM5 3h1v1H5zm1 0h1v1H6zm1 1h1v1H7zm0 1h1v1H7zM6 6h1v1H6zM5 6h1v1H5zM4 5h1v1H4zm0-1h1v1H4zm0 8h1v1H4zm-1 0h1v1H3zm1 1h1v1H4zm1 0h1v1H5zm1 0h1v1H6z"/>
  </g>
  <defs>
    <clipPath id="a">
      <path fill="#fff" d="M0 0h16v16H0z"/>
    </clipPath>
  </defs>
</svg>
