<svg xmlns="http://www.w3.org/2000/svg" width="16" height="16" fill="none" viewBox="0 0 16 16">
  <g clip-path="url(#a)">
    <path fill="#000" d="M14 8h1v1h-1zm-1-1h1v1h-1zm-1 1h1v1h-1zm3-1h1v1h-1zm-3-2h1v1h-1zm2 0h1v1h-1zm0 6h1v1h-1z"/>
    <path fill="#fff" d="M12 11h1v1h-1z"/>
    <path fill="#000" d="M12 12h1v1h-1zm1-1h1v1h-1z"/>
    <path fill="#fff" d="M11 12h1v1h-1z"/>
    <path fill="#000" d="M12 13h1v1h-1zm1 0h1v1h-1z"/>
    <path fill="#fff" d="M13 12h1v1h-1zm1 0h1v1h-1z"/>
    <path fill="#000" d="M8 0h1v1H8zM7 1h1v1H7zm2-1h1v1H9zm1 0h1v1h-1zm2 0h1v1h-1zm-1 0h1v1h-1zm2 1h1v1h-1zm1 1h1v1h-1zm1 1h1v1h-1zM6 2h1v1H6zM5 3h1v1H5z"/>
    <path fill="#fff" d="M10 3h1v1h-1zM9 4h1v1H9z"/>
    <path fill="#000" d="M8 5h1v1H8zm3-2h1v1h-1zm1 1h1v1h-1zm1 0h1v1h-1zm0-1h1v1h-1zm1 0h1v1h-1zm1 1h1v1h-1z"/>
    <path fill="#fff" d="M8 6h1v1H8z"/>
    <path fill="#000" d="M8 8h1v1H8z"/>
    <path fill="#fff" d="M7 7h1v1H7z"/>
    <path fill="#000" d="M6 8h1v1H6zM4 4h1v1H4zM3 5h1v1H3zm-1 5h1v1H2zm0 1h1v1H2zm1-5h1v1H3zm5 4h1v1H8zm-1 1h1v1H7zm-1-1h1v1H6zm-1 1h1v1H5zm1 2h1v1H6zm-1 1h1v1H5zm4-2h1v1H9zm-1 1h1v1H8zm0 1h1v1H8zm-1 1h1v1H7z"/>
    <path fill="#fff" d="M12 15h1v1h-1zm-2-3h1v1h-1zm5-6h1v1h-1zm0-1h1v1h-1zm-1-1h1v1h-1zm0 5h1v1h-1zm0 1h1v1h-1z"/>
    <path fill="#000" d="M8 9h1v1H8zm0 2h1v1H8z"/>
    <path fill="#fff" d="M10 11h1v1h-1zm0-1h1v1h-1zm0-1h1v1h-1zm0-1h1v1h-1zm0-1h1v1h-1z"/>
    <path fill="#000" d="M10 6h1v1h-1zm0-1h1v1h-1zm0-1h1v1h-1z"/>
    <path fill="#fff" d="M11 4h1v1h-1zm0 1h1v1h-1zm0 1h1v1h-1zm0 1h1v1h-1zm0 1h1v1h-1zm0 1h1v1h-1zm0 1h1v1h-1zm0 1h1v1h-1zm1-1h1v1h-1zm0-1h1v1h-1zm1 0h1v1h-1zm0 1h1v1h-1zm-1-3h1v1h-1zm0-1h1v1h-1zm1 0h1v1h-1zm0-1h1v1h-1zm1 1h1v1h-1zm0 1h1v1h-1zM9 5h1v1H9zm0 1h1v1H9z"/>
    <path fill="#000" d="M9 7h1v1H9z"/>
    <path fill="#fff" d="M9 8h1v1H9zm0 1h1v1H9zm0 1h1v1H9zm0 1h1v1H9zM8 7h1v1H8zm-4 4h1v1H4z"/>
    <path fill="#000" d="M3 13h1v1H3zm0 1h1v1H3z"/>
    <path fill="#fff" d="M3 15h1v1H3zm1 0h1v1H4zm0-1h1v1H4zm0-1h1v1H4zm0-1h1v1H4z"/>
    <path fill="#000" d="M5 12h1v1H5z"/>
    <path fill="#fff" d="M5 13h1v1H5zm1-1h1v1H6zm0-1h1v1H6zm1 1h1v1H7zm0 1h1v1H7zm0 1h1v1H7zm-1 0h1v1H6zm0 1h1v1H6zm-1 0h1v1H5zm3-3h1v1H8zm-5 0h1v1H3zm0-1h1v1H3z"/>
    <path fill="#000" d="M3 10h1v1H3zm0-1h1v1H3zm0-1h1v1H3z"/>
    <path fill="#fff" d="M4 7h1v1H4zm0 1h1v1H4z"/>
    <path fill="#000" d="M4 9h1v1H4zm0 1h1v1H4z"/>
    <path fill="#fff" d="M5 10h1v1H5zm0-1h1v1H5zm0-1h1v1H5z"/>
    <path fill="#000" d="M5 7h1v1H5z"/>
    <path fill="#fff" d="M5 6h1v1H5zm0-1h1v1H5zm0-1h1v1H5zm1 0h1v1H6z"/>
    <path fill="#000" d="M6 5h1v1H6zm0 1h1v1H6z"/>
    <path fill="#fff" d="M6 7h1v1H6zm1-1h1v1H7zm0-1h1v1H7zm0-1h1v1H7z"/>
    <path fill="#000" d="M7 3h1v1H7z"/>
    <path fill="#fff" d="M7 2h1v1H7z"/>
    <path fill="#000" d="M8 2h1v1H8z"/>
    <path fill="#fff" d="M8 3h1v1H8zm0 1h1v1H8zm1-1h1v1H9zm0-1h1v1H9zm0-1h1v1H9zm1 0h1v1h-1zm0 1h1v1h-1z"/>
    <path fill="#000" d="M11 2h1v1h-1z"/>
    <path fill="#fff" d="M11 1h1v1h-1z"/>
    <path fill="#000" d="M12 1h1v1h-1z"/>
    <path fill="#fff" d="M12 2h1v1h-1zm0 1h1v1h-1zm1-1h1v1h-1zM8 1h1v1H8zM6 3h1v1H6zM4 5h1v1H4zm0 1h1v1H4zm2 3h1v1H6zm1 0h1v1H7zm0 1h1v1H7zm0-2h1v1H7zm-5 4h1v1H2zm0 1h1v1H2zm0 1h1v1H2z"/>
    <path fill="#000" d="M2 15h1v1H2zm8 0h1v1h-1z"/>
    <path fill="#fff" d="M10 14h1v1h-1z"/>
    <path fill="#000" d="M10 13h1v1h-1zm1 0h1v1h-1zm0 1h1v1h-1z"/>
    <path fill="#fff" d="M11 15h1v1h-1zm1-1h1v1h-1zm-3-1h1v1H9zm0 1h1v1H9zm0 1h1v1H9zm-1 0h1v1H8zm7-6h1v1h-1z"/>
    <path fill="#000" d="M14 13h1v1h-1z"/>
    <path fill="#fff" d="M15 10h1v1h-1z"/>
    <path fill="#000" d="M13 15h1v1h-1zm0-1h1v1h-1zM3 7h1v1H3z"/>
    <path fill="#fff" d="M13 8h1v1h-1zm2 0h1v1h-1z"/>
    <path fill="#000" d="M5 2h1v1H5zM4 1h1v1H4zm2 0h1v1H6zm0-1h1v1H6zM4 3h1v1H4zM3 3h1v1H3zm-2 8h1v1H1zm-1 1h1v1H0z"/>
    <path fill="#fff" d="M1 12h1v1H1z"/>
    <path fill="#000" d="M1 13h1v1H1z"/>
    <path fill="#fff" d="M1 14h1v1H1zm0 1h1v1H1zm-1-2h1v1H0z"/>
    <path fill="#000" d="M0 14h1v1H0z"/>
    <path fill="#fff" d="M0 15h1v1H0z"/>
  </g>
  <defs>
    <clipPath id="a">
      <path fill="#fff" d="M0 0h16v16H0z"/>
    </clipPath>
  </defs>
</svg>
