<svg width="329" height="298" viewBox="0 0 329 298" fill="none" xmlns="http://www.w3.org/2000/svg">
<path d="M322.6 297.3C321.3 297.3 320 296.8 318.9 295.9L44.5 54.9C42.2 52.9 41.9 49.3 44 47C46 44.7 49.6 44.4 51.9 46.5L326.3 287.5C328.6 289.5 328.9 293.1 326.8 295.4C325.7 296.7 324.2 297.3 322.6 297.3Z" fill="#978CFF"/>
<path d="M10 95.6C7.6 95.6 5.2 94.7 3.4 92.9C-0.3 89.3 -0.3 83.3 3.4 79.7L79.1 3.49998C82.7 -0.200024 88.7 -0.200024 92.3 3.49998C96 7.09998 96 13.1 92.3 16.7L16.6 92.9C14.8 94.7 12.4 95.6 10 95.6Z" fill="#978CFF"/>
</svg>
