<svg width="24" height="24" viewBox="0 0 24 24" fill="none" xmlns="http://www.w3.org/2000/svg">
<g clip-path="url(#clip0_16_388)">
<path d="M11.9999 3.515L3.51488 12L11.9999 20.485L20.4849 12L11.9999 3.515ZM12.7069 1.393L22.6069 11.293C22.7944 11.4805 22.8997 11.7348 22.8997 12C22.8997 12.2652 22.7944 12.5195 22.6069 12.707L12.7069 22.607C12.5194 22.7945 12.265 22.8998 11.9999 22.8998C11.7347 22.8998 11.4804 22.7945 11.2929 22.607L1.39288 12.707C1.20541 12.5195 1.1001 12.2652 1.1001 12C1.1001 11.7348 1.20541 11.4805 1.39288 11.293L11.2929 1.393C11.4804 1.20553 11.7347 1.10021 11.9999 1.10021C12.265 1.10021 12.5194 1.20553 12.7069 1.393ZM12.9999 10V7.5L16.4999 11L12.9999 14.5V12H9.99988V15H7.99988V11C7.99988 10.7348 8.10524 10.4804 8.29278 10.2929C8.48031 10.1054 8.73467 10 8.99988 10H12.9999Z" fill="#09121F"/>
</g>
<defs>
<clipPath id="clip0_16_388">
<rect width="24" height="24" fill="white"/>
</clipPath>
</defs>
</svg>
