<svg width="24" height="24" viewBox="0 0 24 24" fill="none" xmlns="http://www.w3.org/2000/svg">
<g clip-path="url(#clip0_16_385)">
<path d="M15.5 6.937C16.5645 7.55121 17.4484 8.43495 18.0628 9.4993C18.6772 10.5636 19.0004 11.771 19 13V21H14.83C14.6234 21.5855 14.2403 22.0926 13.7334 22.4512C13.2265 22.8099 12.6209 23.0024 12 23.0024C11.3791 23.0024 10.7735 22.8099 10.2666 22.4512C9.75974 22.0926 9.3766 21.5855 9.17 21H5V13C4.99955 11.771 5.3228 10.5636 5.93721 9.4993C6.55163 8.43495 7.43554 7.55121 8.5 6.937C8.33569 6.64187 8.20967 6.327 8.125 6H5V4H8.126C8.34844 3.14176 8.84957 2.38168 9.55074 1.83907C10.2519 1.29646 11.1134 1.00205 12 1.00205C12.8866 1.00205 13.7481 1.29646 14.4493 1.83907C15.1504 2.38168 15.6516 3.14176 15.874 4H19V6H15.874C15.789 6.33 15.662 6.645 15.501 6.937H15.5ZM14.047 8.437C13.448 8.795 12.748 9 12 9C11.2793 9.00108 10.5718 8.8065 9.953 8.437C9.07325 8.8319 8.32643 9.47274 7.80251 10.2823C7.27858 11.0919 6.99989 12.0357 7 13V19H9V15C9 14.2043 9.31607 13.4413 9.87868 12.8787C10.4413 12.3161 11.2044 12 12 12C12.7957 12 13.5587 12.3161 14.1213 12.8787C14.6839 13.4413 15 14.2043 15 15V19H17V13C17.0001 12.0357 16.7214 11.0919 16.1975 10.2823C15.6736 9.47274 14.9268 8.8319 14.047 8.437ZM12 14C11.7348 14 11.4804 14.1054 11.2929 14.2929C11.1054 14.4804 11 14.7348 11 15V20C11 20.2652 11.1054 20.5196 11.2929 20.7071C11.4804 20.8946 11.7348 21 12 21C12.2652 21 12.5196 20.8946 12.7071 20.7071C12.8946 20.5196 13 20.2652 13 20V15C13 14.7348 12.8946 14.4804 12.7071 14.2929C12.5196 14.1054 12.2652 14 12 14ZM12 7C12.5304 7 13.0391 6.78928 13.4142 6.41421C13.7893 6.03914 14 5.53043 14 5C14 4.46956 13.7893 3.96086 13.4142 3.58578C13.0391 3.21071 12.5304 3 12 3C11.4696 3 10.9609 3.21071 10.5858 3.58578C10.2107 3.96086 10 4.46956 10 5C10 5.53043 10.2107 6.03914 10.5858 6.41421C10.9609 6.78928 11.4696 7 12 7Z" fill="#09121F"/>
</g>
<defs>
<clipPath id="clip0_16_385">
<rect width="24" height="24" fill="white"/>
</clipPath>
</defs>
</svg>
