<svg xmlns="http://www.w3.org/2000/svg" width="32" height="32" fill="none" viewBox="0 0 32 32">
  <g clip-path="url(#a)">
    <path fill="#000001" d="M32 9.14h-4.57v1.52H32V9.14Zm0 21.33H0V32h32v-1.53Zm-3.04-6.09h-1.53v3.05H32V25.9h-3.04v-1.52ZM32 13.71h-4.57v1.53H32v-1.53Zm-4.57 7.62h-1.52v3.05h1.52v-3.05Zm-3.04 4.57h-1.53v-1.52h-1.52v1.52h-1.53v-1.52h-1.52v1.52h-4.57v-1.52h-1.53v1.52h-1.52v-1.52H9.15v1.52H7.62v-1.52H6.1v3.05h19.81v-3.05h-1.52v1.52Zm1.52-6.09h-1.52v1.52h1.52v-1.52Zm0-18.29h-1.52v15.24h1.52V1.52Zm-3.05 22.86h1.53v-3.05h-1.53v-1.52h-1.52v3.04h1.52v1.53Zm-4.57-7.62v3.05h1.52v-1.53h4.58v-1.52h-6.1Zm3.05 6.09h-1.53v1.53h1.53v-1.53Zm-3.05-3.04h-1.52v3.04h1.52v-3.04Zm-1.52 3.04h-1.53v1.53h1.53v-1.53Zm-1.53-3.04h-1.52v3.04h1.52v-3.04Zm-7.62-3.05v1.52h4.57v1.53h1.53v-3.05h-6.1Zm4.57 6.09h-1.52v1.53h1.52v-1.53ZM10.67 9.14H9.15v1.52h1.52v4.58h4.57v-3.05h1.53v3.05h4.57v-4.58h1.52V9.14h-1.52V7.62h-1.53V6.09h-1.52V4.57h-1.52V3.04h-1.53v1.53h-1.52v1.52h-1.53v1.53h-1.52v1.52ZM24.39 0H7.62v1.52h16.77V0ZM9.15 24.38v-1.53h1.52v-3.04H9.15v1.52H7.62v3.05h1.53Zm-1.53-4.57H6.1v1.52h1.52v-1.52Zm0-18.29H6.1v15.24h1.52V1.52ZM6.1 21.33H4.58v3.05H6.1v-3.05ZM3.05 25.9H0v1.53h4.58v-3.05H3.05v1.52Zm1.53-12.19H0v1.53h4.58v-1.53Zm0-4.57H0v1.52h4.58V9.14Z"/>
  </g>
  <defs>
    <clipPath id="a">
      <path fill="#fff" d="M0 0h32v32H0z"/>
    </clipPath>
  </defs>
</svg>
