<svg width="25" height="25" viewBox="0 0 25 25" fill="none" xmlns="http://www.w3.org/2000/svg">
<rect x="0.0649414" y="0.0649414" width="24" height="24" fill="white" fill-opacity="0.01"/>
<path d="M0.0649414 0.0649414H24.0649M0.0649414 0.0649414V24.0649M0.0649414 0.0649414L24.0649 24.0649M24.0649 0.0649414V24.0649M24.0649 0.0649414L0.0649414 24.0649M24.0649 24.0649H0.0649414" stroke="#DADEE4" stroke-width="0.13"/>
<circle cx="12.0649" cy="12.0649" r="10" stroke="#DADEE4" stroke-width="0.13"/>
<rect x="2.06494" y="4.06494" width="20" height="16" rx="1" stroke="#DADEE4" stroke-width="0.13"/>
<rect x="4.06494" y="2.06494" width="16" height="20" rx="1" stroke="#DADEE4" stroke-width="0.13"/>
<rect x="3.06494" y="3.06494" width="18" height="18" rx="1" stroke="#DADEE4" stroke-width="0.13"/>
<circle cx="12.0649" cy="12.0649" r="4" stroke="#DADEE4" stroke-width="0.13"/>
<path d="M4.06494 5.06494C4.06494 3.40809 5.40809 2.06494 7.06494 2.06494H17.0649C18.7218 2.06494 20.0649 3.40809 20.0649 5.06494V21.0933C20.0649 22.3134 18.6859 23.0231 17.6931 22.3139L12.0649 18.2938L6.4368 22.3139C5.444 23.0231 4.06494 22.3134 4.06494 21.0933V5.06494Z" fill="#09244B"/>
</svg>
