<svg width="24" height="24" viewBox="0 0 24 24" fill="none" xmlns="http://www.w3.org/2000/svg">
<path fill-rule="evenodd" clip-rule="evenodd" d="M18.6963 18.6959C19.9193 17.4729 20.5002 15.4268 20.5002 11.9999C20.5002 8.57298 19.9193 6.52681 18.6963 5.30383C17.4733 4.08086 15.4271 3.49988 12.0002 3.49988C8.57334 3.49988 6.52717 4.08086 5.3042 5.30383C4.08123 6.52681 3.50024 8.57298 3.50024 11.9999C3.50024 15.4268 4.08123 17.4729 5.3042 18.6959C6.52717 19.9189 8.57334 20.4999 12.0002 20.4999C15.4271 20.4999 17.4733 19.9189 18.6963 18.6959ZM19.7569 19.7566C18.0892 21.4244 15.5103 21.9999 12.0002 21.9999C8.49015 21.9999 5.91132 21.4244 4.24354 19.7566C2.57576 18.0888 2.00024 15.51 2.00024 11.9999C2.00024 8.48978 2.57576 5.91095 4.24354 4.24317C5.91132 2.5754 8.49015 1.99988 12.0002 1.99988C15.5103 1.99988 18.0892 2.5754 19.7569 4.24317C21.4247 5.91095 22.0002 8.48978 22.0002 11.9999C22.0002 15.51 21.4247 18.0888 19.7569 19.7566Z" fill="black"/>
<path fill-rule="evenodd" clip-rule="evenodd" d="M12.0002 16.645C11.586 16.645 11.2502 16.3092 11.2502 15.895V12C11.2502 11.5858 11.586 11.25 12.0002 11.25C12.4145 11.25 12.7502 11.5858 12.7502 12V15.895C12.7502 16.3092 12.4145 16.645 12.0002 16.645Z" fill="black"/>
<path fill-rule="evenodd" clip-rule="evenodd" d="M12.7546 8.5C12.7546 8.91421 12.4189 9.25 12.0046 9.25H11.9956C11.5814 9.25 11.2456 8.91421 11.2456 8.5C11.2456 8.08579 11.5814 7.75 11.9956 7.75H12.0046C12.4189 7.75 12.7546 8.08579 12.7546 8.5Z" fill="black"/>
</svg>
