<svg width="24" height="24" viewBox="0 0 24 24" fill="none" xmlns="http://www.w3.org/2000/svg">
<path fill-rule="evenodd" clip-rule="evenodd" d="M13.214 4.87707C9.54177 5.88816 5.71936 7.24598 4.05338 8.20762C3.65544 8.43734 3.56757 8.5906 3.55188 8.62434C3.55928 8.65024 3.58827 8.71244 3.68936 8.81967C3.87466 9.0162 4.20112 9.2467 4.67149 9.49435C5.1318 9.73671 5.68563 9.97276 6.28641 10.1961C7.4877 10.6427 8.82586 11.0199 9.87219 11.2868C10.3935 11.4198 10.8385 11.5244 11.1526 11.5956C11.3095 11.6313 11.4336 11.6585 11.518 11.6767L11.614 11.6972L11.6379 11.7023L11.6449 11.7037C11.9378 11.7644 12.167 11.9933 12.2276 12.2862L12.2291 12.2934L12.2341 12.3174L12.2546 12.4133C12.2729 12.4977 12.3001 12.6218 12.3357 12.7788C12.407 13.0929 12.5116 13.5379 12.6445 14.0592C12.9114 15.1055 13.2887 16.4437 13.7352 17.645C13.9586 18.2457 14.1946 18.7996 14.437 19.2599C14.6847 19.7302 14.9152 20.0567 15.1117 20.242C15.2189 20.3431 15.2811 20.3721 15.307 20.3795C15.3408 20.3638 15.494 20.2759 15.7237 19.878C16.6854 18.212 18.0432 14.3896 19.0543 10.7173C19.5564 8.89368 19.9637 7.14058 20.1896 5.74933C20.3028 5.05203 20.3675 4.46366 20.3793 4.01131C20.3841 3.83098 20.3801 3.68164 20.3697 3.56168C20.2497 3.55128 20.1004 3.5473 19.92 3.55202C19.4677 3.56386 18.8793 3.62852 18.182 3.74176C16.7908 3.96768 15.0377 4.37496 13.214 4.87707ZM15.3213 20.3813C15.3214 20.3819 15.3181 20.3822 15.3112 20.3806C15.3177 20.38 15.3212 20.3808 15.3213 20.3813ZM10.8633 13.0681C10.8493 13.065 10.8352 13.0618 10.8207 13.0585C10.4961 12.9849 10.0379 12.8771 9.50145 12.7403C8.43222 12.4675 7.03634 12.0752 5.76371 11.6021C5.12753 11.3656 4.50943 11.1042 3.97267 10.8216C3.44596 10.5443 2.95021 10.2223 2.59796 9.84867C2.24692 9.47634 1.93519 8.93318 2.08966 8.28396C2.23298 7.6816 2.72525 7.24232 3.30348 6.90853C5.14965 5.84287 9.13531 4.44425 12.8158 3.43089C14.6685 2.92078 16.478 2.49882 17.9416 2.26115C18.6717 2.14259 19.3338 2.06685 19.8808 2.05254C20.1543 2.04538 20.4138 2.05311 20.6467 2.08305C20.8706 2.11184 21.1184 2.16686 21.3381 2.28385C21.4697 2.35394 21.5774 2.46166 21.6475 2.59326C21.7645 2.81293 21.8195 3.06072 21.8483 3.28464C21.8783 3.51758 21.886 3.77704 21.8788 4.05055C21.8645 4.59753 21.7888 5.25965 21.6702 5.98977C21.4325 7.45335 21.0106 9.26282 20.5005 11.1155C19.4871 14.796 18.0885 18.7817 17.0228 20.6279C16.6891 21.2061 16.2498 21.6984 15.6474 21.8417C14.9982 21.9962 14.455 21.6844 14.0827 21.3334C13.7091 20.9812 13.387 20.4854 13.1097 19.9587C12.8271 19.4219 12.5658 18.8038 12.3293 18.1676C11.8561 16.895 11.4638 15.4991 11.1911 14.4299C11.0542 13.8934 10.9465 13.4352 10.8729 13.1106C10.8696 13.0962 10.8664 13.082 10.8633 13.0681ZM3.55002 8.61006C3.55057 8.61016 3.55137 8.61361 3.55079 8.62014C3.54918 8.61323 3.54947 8.60997 3.55002 8.61006Z" fill="black"/>
<path fill-rule="evenodd" clip-rule="evenodd" d="M21.5159 2.41547C21.8088 2.70836 21.8088 3.18324 21.5159 3.47613L12.0235 12.9685C11.7306 13.2614 11.2557 13.2614 10.9628 12.9685C10.6699 12.6756 10.6699 12.2008 10.9628 11.9079L20.4552 2.41547C20.7481 2.12258 21.223 2.12258 21.5159 2.41547Z" fill="black"/>
</svg>
