<svg width="24" height="24" viewBox="0 0 24 24" fill="none" xmlns="http://www.w3.org/2000/svg">
<path fill-rule="evenodd" clip-rule="evenodd" d="M4.24342 4.24342C5.91119 2.57564 8.49002 2.00012 12.0001 2.00012C15.5102 2.00012 18.0891 2.57564 19.7568 4.24342C21.4246 5.91119 22.0001 8.49002 22.0001 12.0001C22.0001 15.5102 21.4246 18.0891 19.7568 19.7568C18.0891 21.4246 15.5102 22.0001 12.0001 22.0001C8.49002 22.0001 5.91119 21.4246 4.24342 19.7568C2.57564 18.0891 2.00012 15.5102 2.00012 12.0001C2.00012 8.49002 2.57564 5.91119 4.24342 4.24342ZM5.30408 5.30408C4.0811 6.52705 3.50012 8.57322 3.50012 12.0001C3.50012 15.427 4.0811 17.4732 5.30408 18.6962C6.52705 19.9191 8.57322 20.5001 12.0001 20.5001C15.427 20.5001 17.4732 19.9191 18.6962 18.6962C19.9191 17.4732 20.5001 15.427 20.5001 12.0001C20.5001 8.57322 19.9191 6.52705 18.6962 5.30408C17.4732 4.0811 15.427 3.50012 12.0001 3.50012C8.57322 3.50012 6.52705 4.0811 5.30408 5.30408Z" fill="black"/>
<path fill-rule="evenodd" clip-rule="evenodd" d="M11.9993 6.88416C12.4135 6.88416 12.7493 7.21994 12.7493 7.63416V11.5693L15.7745 13.3741C16.1302 13.5863 16.2466 14.0467 16.0344 14.4024C15.8221 14.7581 15.3617 14.8745 15.006 14.6622L11.615 12.6392C11.3882 12.5039 11.2493 12.2593 11.2493 11.9952V7.63416C11.2493 7.21994 11.5851 6.88416 11.9993 6.88416Z" fill="black"/>
</svg>
