<svg width="24" height="24" viewBox="0 0 24 24" fill="none" xmlns="http://www.w3.org/2000/svg">
<path fill-rule="evenodd" clip-rule="evenodd" d="M9.56302 17.9028C10.368 18.5198 11.47 19.3638 12.726 19.3638C13.208 19.3638 13.712 19.2398 14.231 18.9308C15.648 17.9248 16.15 16.1128 16.15 12.0058C16.15 7.84682 15.666 6.09882 14.18 5.04682C12.359 3.96982 10.677 5.25682 9.56402 6.10882L9.56154 6.11073C9.14031 6.43413 8.70546 6.768 8.41902 6.86082C7.99803 7.00015 7.62656 7.0444 7.26716 7.08721L7.26202 7.08782C6.57102 7.16982 5.85702 7.25482 5.06002 7.93182C3.78102 9.01782 3.78502 10.7438 3.78902 12.0058C3.78502 13.2668 3.78102 14.9918 5.06002 16.0798C5.85702 16.7578 6.57202 16.8428 7.26302 16.9248C7.62402 16.9678 7.99702 17.0128 8.41802 17.1498C8.70212 17.2439 9.13224 17.5731 9.55024 17.893L9.56302 17.9028ZM10.476 7.29982C11.374 6.61182 12.077 6.12382 12.722 6.12382C12.941 6.12382 13.153 6.17982 13.363 6.30382C14.158 6.86782 14.65 8.01882 14.65 12.0058C14.65 15.9928 14.158 17.1438 13.414 17.6748C12.532 18.1958 11.678 17.6348 10.475 16.7118L10.4734 16.7106C9.93001 16.294 9.4155 15.8996 8.88702 15.7258C8.32302 15.5408 7.85402 15.4838 7.44002 15.4358L7.43737 15.4355C6.84295 15.3637 6.48335 15.3202 6.03102 14.9368C5.28262 14.3013 5.28602 13.0848 5.28901 12.0104L5.28902 12.0078V12.0038L5.28901 12.0012C5.28602 10.9269 5.28262 9.71031 6.03102 9.07482C6.48302 8.69082 6.84302 8.64782 7.43902 8.57782L7.45693 8.57566C7.86657 8.52621 8.33115 8.47013 8.88802 8.28582C9.41602 8.11182 9.93102 7.71782 10.476 7.29982Z" fill="black"/>
<path d="M18.1649 16.315C18.2799 16.379 18.4049 16.409 18.5279 16.409C18.7919 16.409 19.0479 16.269 19.1849 16.022C20.5539 13.55 20.5539 10.472 19.1849 7.99096C18.9849 7.62796 18.5279 7.49696 18.1659 7.69696C17.8029 7.89696 17.6719 8.35296 17.8719 8.71596C18.9939 10.749 18.9939 13.27 17.8719 15.296C17.6719 15.658 17.8029 16.114 18.1649 16.315Z" fill="black"/>
</svg>
