<svg xmlns="http://www.w3.org" xmlns:xlink="http://www.w3.org/1999/xlink" width="36px" height="36px" preserveAspectRatio="xMidYMid meet" viewBox="0 0 100 100" aria-hidden="true" role="img"><path fill-rule="evenodd" clip-rule="evenodd" fill="#BDC3C7" d="M95 79H62v12h4.5a1.5 1.5 0 1 1 0 3h-33a1.5 1.5 0 1 1 0-3H38V79H5a5 5 0 0 1-5-5v-9h100v9a5 5 0 0 1-5 5z"></path><path fill-rule="evenodd" clip-rule="evenodd" fill="#95A5A5" d="M38 79h24v2H38v-2z"></path><path fill-rule="evenodd" clip-rule="evenodd" fill="#2C3E50" d="M5 0h90a5 5 0 0 1 5 5v60H0V5a5 5 0 0 1 5-5z"></path><path fill-rule="evenodd" clip-rule="evenodd" fill="#35495E" d="M5 5h90v55H5V5z"></path><circle fill-rule="evenodd" clip-rule="evenodd" fill="#35495E" cx="50" cy="72" r="2"></circle></svg>