<?xml version="1.0" ?><!DOCTYPE svg  PUBLIC '-//W3C//DTD SVG 1.1//EN'  'http://www.w3.org/Graphics/SVG/1.1/DTD/svg11.dtd'><svg id="Layer_1" style="enable-background:new 0 0 1600 1200;" version="1.1" viewBox="0 0 1600 1200" xml:space="preserve" xmlns="http://www.w3.org/2000/svg" xmlns:vectornator="http://vectornator.io" xmlns:xlink="http://www.w3.org/1999/xlink"><style type="text/css">
	.st0{fill:#A97653;}
	.st1{fill:#FEFFFF;}
	.st2{fill:#8197E5;}
	.st3{fill:#EFB940;}
	.st4{fill:#EFE7DE;}
	.st5{fill:#2552C2;}
	.st6{fill:#2E2543;}
</style><g><g id="Layer_3"><g><path class="st0" d="M966.8,281.9l-130.4-70.8c0,0-12.6-21-15.5-25c-2.8-4-17.7-11.3-28.1-13.3c-10.4-2-11.4-3.5-12.8,2.9      c-1.4,6.4,23.2,16.6,23.4,19.5c0.2,2.9,1.8,12.8,1.8,12.8c-7.5-8.7-30.4-20.1-30.4-20.1c-3.8,5.9-2,8.3-2,8.3      c-5.8,4.2-3.6,10.1-3.6,10.1c-5.5,4.2-2.6,10.4-2.6,10.4s-4.2,2.6-3.8,7.1c0.5,4.5,19.2,12.1,22.8,12.8c3.6,0.7,4.5,0.4,4.5,0.4      l0.5,2.4c4,7,17.6,13.4,17.6,13.4s125.4,94.2,154,99.7c21.4,4.1,133.9-34.5,133.9-34.5l6-42.2l-1.1-49.3L966.8,281.9z"/></g><g><path d="M1200.3,135c3,3.2,47.6,53.9,70.5,48.6c23-5.3,26-48.1,26-48.1c-36,17.2-53.3-16.3-76.6-35.6c-23.3-19.3-46-3.7-46-3.7      S1197.3,131.8,1200.3,135z"/></g><g><path class="st0" d="M1128.9,130.8c-3.1,31.9,6.1,42.5,21.1,44.3c15,1.9,31.1-24.4,31.1-24.4c13.4-0.2,13.9-15.7,8.7-20.1      c-5.2-4.4-14.7,3.1-14.7,3.1c-16.7-12.2-34-30.2-34-30.2C1131.7,114.8,1128.9,130.8,1128.9,130.8z"/></g><g><path d="M1206.1,119.1c9.7,24.3-18.4,44-18.4,44l-7.2-12.1c14.7-5.3,13.4-10.8,10.9-17.6c-3.1-8.5-15.1,3.6-15.1,3.6      c-11.8-9.9-35.9-33.3-35.9-33.3C1170.6,81.6,1196.3,94.9,1206.1,119.1z"/></g><g><path class="st0" d="M885.9,964.9l-57.6,71.3L716.4,1015l69.9-91.6L885.9,964.9z"/></g><g><path class="st0" d="M1332.8,973.6l1,45.3l-89.6,12.1l6.9-60.7L1332.8,973.6z"/></g><g><path class="st1" d="M1125.5,137.1c0,0,11.5,8.8,27.6,6.7c16.1-2.1,21.2-3.4,26.7-11.9c5.5-8.5,27.2-2.3,27.2-2.3      c1.5-4.1-0.1-11.1-0.1-11.1l-38.3,2.3l-41-4.1C1117.9,127.3,1125.5,137.1,1125.5,137.1z"/></g><g><path class="st0" d="M1154.1,174c6.5,37.3-30.8,45.8-30.8,45.8c1.5,31.7,9.6,31.6,9.6,31.6c20.5,33.3,58.8,16.2,58.8,16.2      c35.1-11.4,38.3-63.8,38.3-63.8c-34.3-12.9-48.1-55.2-48.1-55.2L1154.1,174z"/></g><g><path class="st0" d="M1104.6,478.2c0,0,30.3,6.4,76.1,5.8c45.8-0.5,107-7.9,107-7.9s-6.3-14.5-9.3-30.8      c-2.9-16.3-2.6-34.5-2.6-34.5c-33.8,6.5-160.6,4.6-160.6,4.6C1110.9,453.7,1104.6,478.2,1104.6,478.2z"/></g><g><path class="st2" d="M1100.8,226.5c0,0-1,65.1-5,83.2s13.1,32.9,15.3,43.9c2.2,11,4.2,62,4.2,62s43.5,2.7,82.8,1.5      c39.3-1.3,77.6-4.9,77.6-4.9s1.7-58.8,2.1-60c7.7-18.2-4-67-9.9-76.7c-5.9-9.7-9.2-66.7-9.2-66.7l-29.3-4.9      c-10.8,75.5-55.2,64.8-55.2,64.8c-49.8,6.9-51.1-48.6-51.1-48.6L1100.8,226.5z"/></g><g><path d="M1276.7,396.8l-0.7,15.7c0,0-14.9-8.7-35.8-30.5c-21-21.7-48.1-56.5-48.1-56.5L1276.7,396.8z"/></g><g><path class="st3" d="M1182.8,482.9c44.3-0.3,103.8-9.2,103.8-9.2s97.3,169.3,102.8,229.1c10.4,40.7-56.1,285-56.1,285l-85.5-1.9      c-6.3-130.3,31.1-255,31.1-255l-91.4-117.5L859.8,998.2l-103-37.3l349.6-483.4C1106.5,477.5,1138.5,483.2,1182.8,482.9z"/></g><g><path class="st4" d="M1166.8,258.9l-29-8.3l-36.5,12.7l2.3,11.5l4.7,8.2l27.1-5.2l15.6,43.7l9.4,35.3l18.9-3.9l-4.7-34.9      L1166.8,258.9z"/></g><g><path class="st0" d="M1267.6,276.1c4.7,8.6,10.4,38.8,10.4,38.8l-84.2-48.5c0,0-21.3-14.4-27-18.7c-5.7-4.3-38.4,1.8-38,7.4      c0.5,5.6,19.5,5.8,22.2,5.6c2.7-0.2,7.6-2.4,9.5,4.4c1.9,6.8-26.3,13.7-26.3,13.7c-4.6,3.2-0.1,8.5-0.1,8.5      c-4.2,5.6,0.6,10.2,0.6,10.2c-3,9,5.7,13.5,5.7,13.5c0.2,17.8,43.8,10,43.8,10s82.3,80.7,149.2,111c45.5,20.5,55.3,8.1,55.3,8.1      c60.9-50.3-89.1-208-108.9-221.9c-8.1-8.9-21.1-9.2-21.1-9.2C1257.1,222.5,1262.9,267.5,1267.6,276.1z"/></g><g><path class="st3" d="M324.5,987.5l57.9-166.9c-43.9,11.1-92.1,166.7-92.1,166.7L324.5,987.5z"/></g><g><path d="M290.5,987.6l20.7-0.6l-3.1-48.6L290.5,987.6z"/></g><g><path class="st5" d="M295.1,986.5c26.9-55.9,33.5-267.2,33.5-267.2c-59.6,30.4-57.4,266.9-57.4,266.9L295.1,986.5z"/></g><g><path class="st3" d="M246.1,986.8c0,0-74.5-146.2-25.7-198.3l58.9,198.7L246.1,986.8z"/></g><g><path d="M350.5,1123.3H218.4c-3.9,0-7-3.1-7-7V992.6c0-3.9,3.1-7,7-7h132.1c3.9,0,7,3.1,7,7v123.7      C357.5,1120.2,354.4,1123.3,350.5,1123.3z M218.4,987.6c-2.8,0-5,2.2-5,5v123.7c0,2.8,2.2,5,5,5h132.1c2.8,0,5-2.2,5-5V992.6      c0-2.8-2.2-5-5-5H218.4z"/></g><g><path class="st3" d="M278.1,671.5c-4.8,12.1,1.8,5.5,9.1,7.9c7.3,2.4,19.2,8.9,18.8,3.9c-0.4-5-1.5-11.9,3-19.7      c4.5-7.8-0.2-8.2-3.4-8.2c-3.2,0-11.7-0.4-17.3-4.5c-5.6-4.1-7-1-7-1C281.3,651.9,282.9,659.4,278.1,671.5z"/></g><g><path class="st3" d="M278.1,671.5c-4.8,12.1,1.8,5.5,9.1,7.9c7.3,2.4,19.2,8.9,18.8,3.9c-0.4-5-1.5-11.9,3-19.7      c4.5-7.8-0.2-8.2-3.4-8.2c-3.2,0-11.7-0.4-17.3-4.5c-5.6-4.1-7-1-7-1C281.3,651.9,282.9,659.4,278.1,671.5z"/></g><g><g><path class="st3" d="M912.3,171.3c0-12.3,9.9-22.3,22.1-22.3c12.2,0,22.1,10,22.1,22.3c0,12.3-9.9,22.3-22.1,22.3       C922.2,193.6,912.3,183.6,912.3,171.3z"/></g><g><path class="st3" d="M912.3,171.3c0-12.3,9.9-22.3,22.1-22.3c12.2,0,22.1,10,22.1,22.3c0,12.3-9.9,22.3-22.1,22.3       C922.2,193.6,912.3,183.6,912.3,171.3z"/></g><g><path class="st6" d="M933.6,148c-9,0.4-17.4,6.1-20.7,15.1c-4.5,12,1.7,25.3,13.6,29.8c12,4.5,25.3-1.6,29.8-13.6       c4.5-12-1.6-25.3-13.6-29.8C939.6,148.3,936.6,147.9,933.6,148z M933.6,149.4c2.8-0.1,5.7,0.3,8.6,1.4       c11.3,4.2,17,16.8,12.8,28c-4.2,11.3-16.7,17-28,12.8c-11.3-4.2-17-16.7-12.8-28C917.3,155.1,925.1,149.7,933.6,149.4z"/></g><g><path class="st6" d="M905.6,133.5c-0.6,0.1-1.1,0.3-1.6,0.7c-4.9,4.3,5.6,23.4,23.2,43.2c17.5,19.8,35.2,32.5,40.1,28.2       c3.5-3.1-0.6-13.3-10-26.7c-0.2-0.3-0.7-0.4-1-0.2s-0.4,0.7-0.1,1c8.9,12.7,12.8,22.5,10.2,24.8c-3.9,3.5-21.3-9-38.1-28       c-16.9-19-27.2-37.7-23.3-41.2c2.5-2.2,12.3,3.4,23.9,13.8c0.3,0.3,0.7,0.2,1-0.1s0.2-0.7-0.1-1       C919,138.4,909.9,132.8,905.6,133.5z"/></g></g><g><path class="st6" d="M284,647.2c-2.7-0.1-4.7,2-4.5,5.6l0.3,5.4c0.2,3.2-1,8.2-2.5,11l-2.6,4.8c-2.3,4.1-0.1,7.7,4.5,7.5      l5.3-0.3c3.2-0.2,8.1,1,10.8,2.6l4.7,2.7c4.1,2.3,7.7,0.1,7.4-4.7l-0.3-5.4c-0.2-3.2,1-8.2,2.5-11l2.6-4.8      c2.3-4.1,0.1-7.7-4.5-7.5l-5.4,0.3c-3.2,0.2-8.1-1-10.8-2.6l-4.6-2.7C285.9,647.5,284.9,647.2,284,647.2z M283.2,650.4      c0.5-0.3,1.2-0.2,2.2,0.4l4.7,2.7c3.3,1.9,8.8,3.2,12.5,3l5.3-0.3c2.2-0.1,2.9,0.9,1.8,2.9l-2.7,4.7c-1.8,3.3-3.1,8.9-2.9,12.7      l0.3,5.5c0.1,2.3-0.9,2.9-2.8,1.8l-4.7-2.7c-3.3-1.9-8.8-3.2-12.5-3l-5.3,0.3c-2.2,0.1-2.9-0.9-1.8-2.9l2.7-4.7      c1.8-3.3,3.1-8.9,2.9-12.7l-0.3-5.5C282.5,651.4,282.7,650.7,283.2,650.4z"/></g></g><g id="Layer_2_1_"><g><path d="M1154.2,142.3c-9.1,0-18.6-1-24.1-2.2c-7.2-1.5-8.9-7.9-8-13.4c0.8-5.1,3.9-10.4,7.3-10.1c6.4,0.6,35.7,3.3,40.3,3.1      c4.9-0.1,36.1-1.6,36.4-1.6c0.5,0,0.8,0.2,1,0.6c1.7,4.4,1.2,10.1,1.2,10.4c0,0.3-0.2,0.5-0.4,0.7c-0.2,0.2-0.5,0.2-0.8,0.2      c-0.3,0-25.2-4.7-29.5,6.1C1175.8,140.8,1165.3,142.3,1154.2,142.3z M1129,118.6c-1.7,0-4.3,3.8-5,8.4      c-0.4,2.9-0.7,9.7,6.5,11.2c13.6,2.9,42.7,3.7,45.3-2.8c4.3-11,25.4-8.4,30.6-7.6c0.1-1.7,0-5-0.8-7.7      c-4.8,0.2-31.3,1.5-35.7,1.6c-5.1,0.1-35.8-2.7-40.6-3.1C1129.1,118.6,1129,118.6,1129,118.6z"/></g><g><path d="M1180.8,142.3c-0.1,0-0.2,0-0.3,0c-0.5-0.2-0.8-0.7-0.7-1.3c0.1-0.2,1.6-5.2,4.5-8.6c0.4-0.4,1-0.5,1.4-0.1      c0.4,0.4,0.5,1,0.1,1.4c-2.7,3.1-4.1,7.9-4.2,7.9C1181.7,142,1181.3,142.3,1180.8,142.3z"/></g><g><path d="M1165.4,127.2C1165.3,127.2,1165.3,127.2,1165.4,127.2c-0.3,0-28.1-1.9-36-3c-0.5-0.1-0.9-0.6-0.9-1.1      c0.1-0.5,0.6-0.9,1.1-0.9c7.8,1.1,35.5,3,35.8,3c0.6,0,1,0.5,0.9,1.1C1166.3,126.8,1165.9,127.2,1165.4,127.2z"/></g><g><path d="M1175.4,137.2c-1.5,1.9-18.5,4.1-32.2,3.7c-10.1-0.3-18-3.6-18-3.6c-1.5,17.1,53.4,7.2,53.5,3.8      c0.1-3.4,2.6-9.9,2.6-9.9S1178,133.8,1175.4,137.2z"/></g><g><path d="M789.2,179.6c-2.4,0-5.3-1.6-8.9-4.8c-0.4-0.4-0.4-1-0.1-1.4c0.4-0.4,1-0.4,1.4-0.1c3.8,3.4,6.8,4.8,8.5,4.1      c1.8-0.8,2-3.8,2-3.8c0-0.6,0.5-1,1-0.9c0.6,0,1,0.5,0.9,1c0,0.2-0.2,4.3-3.3,5.6C790.4,179.5,789.9,179.6,789.2,179.6z"/></g><g><path d="M782.9,193.1c-0.1,0-0.3,0-0.4-0.1c-9.3-4.5-31.1-15.4-31.8-19c-0.7-3.5,1.5-14.8,5.4-15.8c3.1-0.7,23.8,8.3,30.1,11      c0.5,0.2,0.7,0.8,0.5,1.3c-0.2,0.5-0.8,0.7-1.3,0.5c-12.7-5.6-27-11.3-28.8-10.9c-2.1,0.5-4.5,10.1-3.9,13.4      c0.7,2,16.2,10.6,30.8,17.6c0.5,0.2,0.7,0.8,0.5,1.3C783.6,192.9,783.3,193.1,782.9,193.1z"/></g><g><path d="M803.4,216.3c-4.5,0-12.8-4.1-24.9-12.1c-4.4-3-6.8-6.1-7.1-9.4c-0.3-3.5,2.1-5.8,2.2-5.9c0.4-0.4,1-0.4,1.4,0      c0.4,0.4,0.4,1,0,1.4c-0.1,0.1-1.8,1.7-1.5,4.3c0.2,2.6,2.4,5.3,6.2,7.8c18.3,12.2,23.5,12.2,24.9,11.6c0.3-0.1,0.7-0.4,0.8-1.1      c0.9-5-10.5-13.5-22.2-19.2c-0.5-0.2-0.7-0.8-0.5-1.3c0.2-0.5,0.8-0.7,1.3-0.5c2.6,1.2,24.9,12.5,23.3,21.4      c-0.2,1.2-0.9,2.1-2,2.6C804.7,216.1,804.1,216.3,803.4,216.3z"/></g><g><path d="M799.7,225.3c-0.2,0-0.5,0-0.7,0c-10.9-0.7-27.7-14.4-30.1-17.7c-3.9-5.2,2.2-11.3,2.4-11.5c0.4-0.4,1-0.4,1.4,0      c0.4,0.4,0.4,1,0,1.4c-0.1,0.1-5.1,5-2.2,8.9c2.3,3.1,18.5,16.3,28.6,16.9c1,0.1,2.6,0,3-1c0.5-1.2-0.8-4-4.1-6.9      c-0.4-0.4-0.5-1-0.1-1.4c0.4-0.4,1-0.5,1.4-0.1c3.8,3.2,5.6,6.8,4.6,9.1C803.6,224.1,802.5,225.3,799.7,225.3z"/></g><g><path d="M794.3,232.5c-1.5,0-3.6-0.5-6.5-1.8c-9.7-4.6-19.1-9.5-21.8-14.6c-2.9-5.5,2.2-10.7,2.4-11c0.4-0.4,1-0.4,1.4,0      c0.4,0.4,0.4,1,0,1.4c0,0-4.2,4.5-2,8.6c2.8,5.2,15,11,20.9,13.7c4.3,2,6.9,1.9,7.5,1c0.6-0.9-0.2-3-2.6-5      c-0.4-0.4-0.5-1-0.1-1.4c0.4-0.4,1-0.5,1.4-0.1c3.1,2.6,4.3,5.7,3,7.6C797.4,231.5,796.5,232.5,794.3,232.5z"/></g><g><path d="M786.9,238.1c-0.2,0-0.5,0-0.7,0c-2.7-0.1-17.7-5.4-22.7-11.5c-1.4-1.7-1.9-3.8-1.4-5.9c0.8-3.2,3.5-5.7,4-6      c0.5-0.2,1.1,0,1.3,0.5c0.2,0.5,0,1-0.4,1.3c-0.4,0.3-2.8,2.6-3.1,5.2c-0.2,1.3,0.2,2.5,1.1,3.6c4.4,5.4,18.9,10.6,21.2,10.7      c2.8,0.1,4-0.5,4.2-1c0.1-0.2,0.4-1.4-3-4.7c-0.4-0.4-0.4-1,0-1.4c0.4-0.4,1-0.4,1.4,0c3.1,3,4.2,5.2,3.4,6.9      C791.7,237.4,789.9,238.1,786.9,238.1z"/></g><g><path d="M781.5,260.4c-0.1,0-0.2,0-0.4-0.1l-20.6-8.3c-0.5-0.2-0.7-0.8-0.6-1.3l7.4-21.1c0.2-0.5,0.8-0.8,1.3-0.6      c0.5,0.2,0.8,0.8,0.6,1.3l-7.1,20.1l18.8,7.5l8.8-21.5c0.2-0.5,0.8-0.8,1.3-0.5c0.5,0.2,0.8,0.8,0.5,1.3l-9.2,22.4      C782.2,260.1,781.9,260.4,781.5,260.4z"/></g><g><path d="M783.3,183.1c-3.2,0-8.3-1.9-11.4-4.8c-1.9-1.8-2.7-3.8-2.5-5.9c0.3-2.4,1.2-3.9,2.8-4.6c3.5-1.5,8.5,1.9,9,2.3      c0.5,0.3,0.6,0.9,0.2,1.4c-0.3,0.5-0.9,0.6-1.4,0.2c-1.3-0.9-5-3-7.1-2.1c-0.9,0.4-1.5,1.4-1.7,3c-0.2,1.4,0.5,2.8,1.9,4.2      c2.9,2.8,8.2,4.6,10.6,4.2c0.5-0.1,1.1,0.3,1.1,0.8s-0.3,1.1-0.8,1.1C784,183.1,783.7,183.1,783.3,183.1z"/></g><g><path d="M1148.9,291.7c-8.9,0-14.4-1.7-16.5-5.1c-2.3-3.8,0.7-8,0.8-8.2c0.1-0.2,0.3-0.3,0.6-0.4c0.2,0,19.5-4.6,24.3-9.3      c1.4-1.4,1.8-2.7,1.2-3.9c-1.1-2-4.8-3.3-8-2.6c-5,1-19.3-0.9-22.6-5c-0.8-1.1-1-2.2-0.5-3.4c2.7-6,29.5-8.7,38.8-6.9      c9.7,1.9,24.2,17.4,24.8,18.1c0.4,0.4,0.4,1-0.1,1.4c-0.4,0.4-1,0.4-1.4-0.1c-0.1-0.2-14.7-15.7-23.7-17.5      c-9.7-1.9-34.7,1.5-36.6,5.8c-0.1,0.3-0.2,0.7,0.2,1.3c2.6,3.3,15.7,5.3,20.6,4.3c4.1-0.8,8.7,0.8,10.2,3.7      c0.6,1.2,1.2,3.5-1.6,6.2c-4.9,4.8-22,9.1-24.9,9.8c-0.5,0.9-1.9,3.5-0.6,5.7c1.4,2.4,7.1,5.9,29.2,3c0.5-0.1,1,0.3,1.1,0.9      c0.1,0.5-0.3,1-0.9,1.1C1158,291.3,1153.1,291.7,1148.9,291.7z"/></g><g><path d="M1132.8,256.3c-1.1,0-2.3-0.1-3.5-0.2c-0.5-0.1-0.9-0.6-0.9-1.1c0.1-0.5,0.6-0.9,1.1-0.9c4.8,0.6,8.4-0.1,10.4-1.8      c1.6-1.4,1.7-3,1.7-3.1c0-0.5,0.5-1,1-1c0,0,0,0,0,0c0.5,0,1,0.5,1,1c0,0.1,0,2.5-2.3,4.5      C1139.4,255.5,1136.6,256.3,1132.8,256.3z"/></g><g><path d="M1150.2,302.8c-8.9,0-14.6-1.8-17.1-5.5c-3-4.4-0.1-9.5,0.1-9.7c0.3-0.5,0.9-0.6,1.4-0.4c0.5,0.3,0.6,0.9,0.4,1.4      c0,0.1-2.4,4.3-0.1,7.6c2.2,3.2,9.2,6.4,29.9,3.4c0.5-0.1,1.1,0.3,1.1,0.8c0.1,0.5-0.3,1.1-0.8,1.1      C1159.3,302.4,1154.4,302.8,1150.2,302.8z"/></g><g><path d="M1150.2,312.1c-6.5,0-11.1-1.5-13.8-4.5c-3.9-4.3-2.1-10-2-10.3c0.2-0.5,0.7-0.8,1.3-0.6c0.5,0.2,0.8,0.7,0.6,1.3      c0,0-1.5,4.9,1.6,8.3c2.7,3,9.5,5.7,26.9,1.9c0.5-0.1,1.1,0.2,1.2,0.8s-0.2,1.1-0.8,1.2C1159.4,311.5,1154.4,312.1,1150.2,312.1      z"/></g><g><path d="M1155.2,322c-0.4,0-0.9,0-1.3,0c-5.2,0-9.1-1.5-11.6-4.2c-3.1-3.5-2.6-7.8-2.6-7.9c0.1-0.5,0.6-0.9,1.1-0.9      c0.5,0.1,0.9,0.6,0.9,1.1c0,0-0.4,3.6,2.1,6.4c2,2.3,5.4,3.5,10.1,3.5c14.2,0.1,36.8-1.8,37-1.8c0.6,0,1,0.4,1.1,0.9      s-0.4,1-0.9,1.1C1190.9,320.2,1169.5,322,1155.2,322z"/></g><g><path d="M1109,283.2c-0.1,0-0.2,0-0.4-0.1c-3.8-1.5-7.8-16.3-8.5-19.3c-0.1-0.5,0.1-1,0.6-1.2l28.7-10.7      c0.5-0.2,1.1,0.1,1.3,0.6c0.2,0.5-0.1,1.1-0.6,1.3l-27.9,10.4c2,7.7,5,15.7,6.9,16.9l26.3-4.3c0.5-0.1,1.1,0.3,1.1,0.8      c0.1,0.5-0.3,1.1-0.8,1.1l-26.6,4.3C1109.1,283.2,1109.1,283.2,1109,283.2z"/></g><g><path d="M1159.1,357.2c-0.5,0-0.9-0.3-1-0.8l-8.2-33.7c-0.1-0.5,0.2-1.1,0.7-1.2c0.5-0.1,1.1,0.2,1.2,0.7l8,32.8l17.2-3      l-3.9-31.9c-0.1-0.5,0.3-1,0.9-1.1c0.6-0.1,1,0.3,1.1,0.9l4,32.9c0.1,0.5-0.3,1-0.8,1.1l-19.1,3.4      C1159.3,357.2,1159.2,357.2,1159.1,357.2z"/></g><g><path d="M1351.5,360.7c-0.3,0-0.5-0.1-0.7-0.3c-1.6-1.7-15.8-10.9-74.6-44.8c-0.5-0.3-0.6-0.9-0.4-1.4c0.3-0.5,0.9-0.6,1.4-0.4      c47.4,27.3,72.7,42.5,75.1,45.2c0.4,0.4,0.4,1-0.1,1.4C1352,360.6,1351.8,360.7,1351.5,360.7z"/></g><g><path d="M1434.5,1126.4C1434.5,1126.4,1434.5,1126.4,1434.5,1126.4l-201.7-0.5c-0.3,0-0.6-0.1-0.7-0.3s-0.3-0.5-0.2-0.8      l10.7-96.2c0.1-0.5,0.6-0.9,1.1-0.9c0.5,0.1,0.9,0.6,0.9,1.1l-10.6,95l199.7,0.5c0.2-2.6,0.4-10.8-3.2-20.1      c-5.7-14.8-18.5-25.6-36.9-31.2c-46.7-14.3-61.4-46-61.4-53.7c0-0.6,0.4-1,1-1s1,0.4,1,1c0,7.1,15,38,60,51.8      c46.2,14.2,41.5,54,41.5,54.4C1435.4,1126,1435,1126.4,1434.5,1126.4z"/></g><g><path d="M577.9,1125.8c-0.3,0-0.6-0.1-0.8-0.4c-0.2-0.2-0.3-0.6-0.2-0.9c0.1-0.5,13.5-51.9,63.4-67.2      c37.5-11.5,59-21.4,65.9-30.4c0.3-0.4,1-0.5,1.4-0.2c0.4,0.3,0.5,1,0.2,1.4c-7.1,9.3-29,19.5-66.9,31.1      c-44.4,13.6-59.3,56.6-61.7,64.5l213.8-2.4l33.1-83.9c0.2-0.5,0.8-0.8,1.3-0.6c0.5,0.2,0.8,0.8,0.6,1.3l-33.4,84.5      c-0.1,0.4-0.5,0.6-0.9,0.6L577.9,1125.8C577.9,1125.8,577.9,1125.8,577.9,1125.8z"/></g><g><path d="M1431.2,1115.2C1431.2,1115.2,1431.2,1115.2,1431.2,1115.2l-197.7-3.1c-0.6,0-1-0.5-1-1s0.5-1,1-1l197.7,3.1      c0.6,0,1,0.5,1,1C1432.2,1114.8,1431.8,1115.2,1431.2,1115.2z"/></g><g><path d="M584.6,1111.7c-0.5,0-1-0.4-1-1c0-0.6,0.4-1,1-1l208.3-3.4c0,0,0,0,0,0c0.5,0,1,0.4,1,1c0,0.6-0.4,1-1,1L584.6,1111.7      C584.6,1111.7,584.6,1111.7,584.6,1111.7z"/></g><g><path d="M1328.9,1049.4c-0.5,0-1-0.4-1-1c0-0.6,0.4-1,1-1l23.3-0.2c0,0,0,0,0,0c0.5,0,1,0.4,1,1c0,0.6-0.4,1-1,1L1328.9,1049.4      C1328.9,1049.4,1328.9,1049.4,1328.9,1049.4z"/></g><g><path d="M1336.7,1056.8c-0.5,0-1-0.4-1-1c0-0.6,0.4-1,1-1l23.2-0.7c0,0,0,0,0,0c0.5,0,1,0.4,1,1c0,0.6-0.4,1-1,1L1336.7,1056.8      C1336.8,1056.8,1336.7,1056.8,1336.7,1056.8z"/></g><g><path d="M1276.5,1057.2c-8,0-19.1-4.7-33-14.1l-0.8-0.5c-0.5-0.3-0.6-0.9-0.3-1.4c0.3-0.5,0.9-0.6,1.4-0.3l0.8,0.6      c16.1,10.9,28.1,15.4,35.7,13.3c3.2-0.9,5.4-2.8,7-6c12.7-26.4,47.7-20.4,48-20.3c0.5,0.1,0.9,0.6,0.8,1.2      c-0.1,0.5-0.6,0.9-1.2,0.8c-0.3-0.1-33.8-5.8-45.9,19.2c-1.8,3.7-4.5,6.1-8.2,7C1279.5,1057.1,1278.1,1057.2,1276.5,1057.2z"/></g><g><path d="M1279.2,732.1c-0.2,0-0.5-0.1-0.7-0.3c-0.4-0.4-0.4-1,0-1.4l16-17.1c0.4-0.4,1-0.4,1.4,0c0.4,0.4,0.4,1,0,1.4l-16,17.1      C1279.7,732,1279.5,732.1,1279.2,732.1z"/></g><g><path d="M1187.7,613.1c-0.3,0-0.7-0.2-0.9-0.5l-22-38.2c-0.3-0.5-0.1-1.1,0.4-1.4c0.5-0.3,1.1-0.1,1.4,0.4l22,38.2      c0.3,0.5,0.1,1.1-0.4,1.4C1188.1,613,1187.9,613.1,1187.7,613.1z"/></g><g><path d="M1154.1,175c13.6-4.6,27.5-23.2,27.5-23.2c-8,24.6-27.1,36.2-27.1,36.2C1155.5,183.7,1154.1,175,1154.1,175z"/></g><g><path d="M982.3,292.6c-0.2,0-0.4-0.1-0.6-0.2l-15.1-10.2c-0.5-0.3-0.6-0.9-0.3-1.4c0.3-0.5,0.9-0.6,1.4-0.3l15.1,10.2      c0.5,0.3,0.6,0.9,0.3,1.4C982.9,292.5,982.6,292.6,982.3,292.6z"/></g><g><path d="M749.6,1060.8c-1,0-1.8-0.2-2.6-0.5c-2-1-3.2-3.1-3.6-6.4c-3.2-24.7-35.7-25.6-36-25.6c-0.6,0-1-0.5-1-1      c0-0.6,0.5-1,1-1c0.3,0,34.6,0.9,37.9,27.4c0.3,2.6,1.2,4.2,2.5,4.9c3.8,1.8,12.1-3.4,21.6-9.4c17.2-10.9,40.8-25.7,58.3-10.9      c0.4,0.4,0.5,1,0.1,1.4c-0.4,0.4-1,0.5-1.4,0.1c-16.3-13.9-38.3,0-55.9,11.1C761.8,1056.2,754.6,1060.8,749.6,1060.8z"/></g><g><path d="M688.4,1067c-0.2,0-0.4,0-0.5-0.1l-24.1-14.6c-0.5-0.3-0.6-0.9-0.3-1.4c0.3-0.5,0.9-0.6,1.4-0.3l24.1,14.6      c0.5,0.3,0.6,0.9,0.3,1.4C689.1,1066.8,688.8,1067,688.4,1067z"/></g><g><path d="M678.7,1073c-0.2,0-0.4-0.1-0.6-0.2l-25.8-17.3c-0.5-0.3-0.6-0.9-0.3-1.4c0.3-0.5,0.9-0.6,1.4-0.3l25.8,17.3      c0.5,0.3,0.6,0.9,0.3,1.4C679.3,1072.9,679,1073,678.7,1073z"/></g><g><path d="M1509,1125.2C1509,1125.2,1509,1125.2,1509,1125.2l-1398.5-1.8c-0.6,0-1-0.4-1-1c0-0.6,0.4-1,1-1c0,0,0,0,0,0      l1398.5,1.8c0.6,0,1,0.4,1,1S1509.5,1125.2,1509,1125.2z"/></g><g><path d="M271.3,960.4l7.2,25.8l12.3,0.5l-19.4-30L271.3,960.4z"/></g><g><path d="M1137.4,358.2c-8.8,0-16.7-1.3-17.2-1.3c-0.5-0.1-0.9-0.6-0.8-1.1s0.6-0.9,1.1-0.8c0.2,0,18.2,2.9,29.8,0      c0.5-0.1,1.1,0.2,1.2,0.7c0.1,0.5-0.2,1.1-0.7,1.2C1146.7,357.9,1141.9,358.2,1137.4,358.2z"/></g><g><path d="M708.1,1028.1c-0.2,0-0.5-0.1-0.6-0.2c-0.4-0.4-0.5-1-0.1-1.4l9-10.6c0.4-0.4,1-0.5,1.4-0.1c0.4,0.4,0.5,1,0.1,1.4      l-9,10.6C708.6,1028,708.4,1028.1,708.1,1028.1z"/></g><g><g><path class="st2" d="M416.5,396.7c0-8.7,7.2-15.8,16-15.8c8.8,0,16,7.1,16,15.8c0,8.7-7.2,15.8-16,15.8       C423.7,412.5,416.5,405.4,416.5,396.7z"/></g><g><path class="st2" d="M403.6,446.8c0,4,14.9,3.2,29.8,3.1c14.5,0,29,0.9,29-2.7c0-15.4-14.3-28.9-29.8-28.9       C417.1,418.2,403.6,431.4,403.6,446.8z"/></g></g><g><g><path class="st3" d="M805.7,498.8c0-8.7-7.2-15.8-16-15.8s-16,7.1-16,15.8c0,8.7,7.2,15.8,16,15.8S805.7,507.5,805.7,498.8z"/></g><g><path class="st3" d="M818.6,548.8c0,4-14.9,3.2-29.8,3.1c-14.5,0-29,0.9-29-2.7c0-15.4,14.3-28.9,29.8-28.9       C805.1,520.3,818.6,533.4,818.6,548.8z"/></g></g><g><path class="st3" d="M506.1,385.3h296.7c8.8,0,15.9,7.1,15.9,15.9v34.2c0,8.8-7.1,15.9-15.9,15.9H506.1      c-8.8,0-15.9-7.1-15.9-15.9v-34.2C490.3,392.4,497.4,385.3,506.1,385.3z"/></g><g><path class="st5" d="M716.1,487.4H419.5c-8.8,0-15.9,7.1-15.9,15.9v34.2c0,8.8,7.1,15.9,15.9,15.9h296.7      c8.8,0,15.9-7.1,15.9-15.9v-34.2C732,494.5,724.9,487.4,716.1,487.4z"/></g><g><path d="M872.3,597.7H347.6c-0.6,0-1-0.4-1-1v-251c0-0.6,0.4-1,1-1h524.6c0.6,0,1,0.4,1,1v251      C873.3,597.3,872.8,597.7,872.3,597.7z M348.6,595.7h522.6v-249H348.6V595.7z"/></g><g><path d="M919,661.5c-15.2,0-27.6-12.4-27.6-27.6s12.4-27.6,27.6-27.6s27.6,12.4,27.6,27.6S934.2,661.5,919,661.5z M919,608.3      c-14.1,0-25.6,11.5-25.6,25.6s11.5,25.6,25.6,25.6c14.1,0,25.6-11.5,25.6-25.6S933.1,608.3,919,608.3z"/></g><g><path d="M659.4,653.5c-6.8,0-12.4-5.6-12.4-12.4s5.6-12.4,12.4-12.4c6.8,0,12.4,5.6,12.4,12.4S666.2,653.5,659.4,653.5z       M659.4,630.7c-5.7,0-10.4,4.7-10.4,10.4s4.7,10.4,10.4,10.4c5.7,0,10.4-4.7,10.4-10.4S665.1,630.7,659.4,630.7z"/></g><g><path d="M269.2,491.2c-0.3,0-0.5-0.1-0.7-0.3l-30.1-31l-28.7-32.3c-0.2-0.3-0.3-0.6-0.2-1c0.1-0.3,0.4-0.6,0.7-0.7l41.9-10.6      l42.3-8.7c0.3-0.1,0.7,0,0.9,0.3c0.2,0.3,0.3,0.6,0.2,1l-11.8,41.6l-13.6,41c-0.1,0.3-0.4,0.6-0.7,0.7      C269.3,491.2,269.3,491.2,269.2,491.2z M212.2,427.5l27.6,31.1l28.9,29.8l13.1-39.4l11.3-39.9l-40.7,8.4L212.2,427.5z"/></g><g><path d="M586.9,215.1H530c-0.6,0-1-0.4-1-1v-56.9c0-0.6,0.4-1,1-1h56.9c0.6,0,1,0.4,1,1v56.9      C587.9,214.6,587.4,215.1,586.9,215.1z M531,213.1h54.9v-54.9H531V213.1z"/></g><g><path class="st5" d="M1361.7,204.3c0-14.2,11.5-25.7,25.7-25.7c14.2,0,25.7,11.5,25.7,25.7c0,14.2-11.5,25.7-25.7,25.7      C1373.2,230,1361.7,218.5,1361.7,204.3z"/></g><g><path class="st1" d="M816.5,977.1c-0.2,0-0.4-0.1-0.6-0.2c-0.4-0.4-0.5-1-0.1-1.4l329.8-400.6c0.4-0.4,1-0.5,1.4-0.1      c0.4,0.4,0.5,1,0.1,1.4L817.2,976.8C817,977,816.8,977.1,816.5,977.1z"/></g><g><path class="st1" d="M1280.3,982.8c0,0-0.1,0-0.1,0c-0.5-0.1-0.9-0.6-0.9-1.1c0.4-2.5,35.3-250.9,39.7-273.5      c4.3-22.2-86.2-122.1-87.1-123.1c-0.4-0.4-0.3-1,0.1-1.4c0.4-0.4,1-0.3,1.4,0.1c3.8,4.1,92.1,101.7,87.6,124.9      c-4.4,22.6-39.3,270.9-39.7,273.4C1281.2,982.5,1280.8,982.8,1280.3,982.8z"/></g><g><path d="M1143,158.2c-1.1,0-2.1-0.1-3-0.4c-3.1-0.9-4.2-3.1-4.3-3.2c-0.3-0.5-0.1-1.1,0.4-1.3c0.5-0.3,1.1-0.1,1.3,0.4      c0,0.1,0.9,1.6,3.2,2.2c2.2,0.6,6.1,0.6,12.4-3.1c0.5-0.3,1.1-0.1,1.4,0.4c0.3,0.5,0.1,1.1-0.4,1.4      C1149.9,157,1146.2,158.2,1143,158.2z"/></g></g></g></svg>