<svg width="24" height="24" viewBox="0 0 24 24" fill="none" xmlns="http://www.w3.org/2000/svg">
<path d="M11.2809 2.90457C10.073 2.42142 8.77893 3.37831 8.88696 4.67473L9.16559 8.01832L6.98559 7.47332C6.66397 7.39291 6.38746 7.18804 6.2169 6.90376L5.31436 5.39953C5.11175 5.06184 4.79502 4.80777 4.42142 4.68324C3.35317 4.32716 2.25 5.12228 2.25 6.24831V8.17158C2.25 8.90092 2.53973 9.60039 3.05546 10.1161L3.17484 10.2355C3.44223 10.5029 3.76188 10.7123 4.11384 10.8505L17.3732 16.0596C17.6935 16.1854 18.0346 16.25 18.3788 16.25H19.8258C21.3209 16.25 22.1275 14.4963 21.1545 13.3611L19.9041 11.9024C19.6022 11.5502 19.2161 11.2801 18.7818 11.1172L15.5518 9.90595L12.8478 4.04725C12.6603 3.64097 12.3243 3.32195 11.9088 3.15576L11.2809 2.90457Z" fill="#5D5D5D"/>
<path fill-rule="evenodd" clip-rule="evenodd" d="M3.25 20C3.25 19.5858 3.58579 19.25 4 19.25H20C20.4142 19.25 20.75 19.5858 20.75 20C20.75 20.4142 20.4142 20.75 20 20.75H4C3.58579 20.75 3.25 20.4142 3.25 20Z" fill="#D9D9D9"/>
</svg>
