<svg width="25" height="25" viewBox="0 0 25 25" fill="none" xmlns="http://www.w3.org/2000/svg">
<rect x="0.0649414" y="0.0649414" width="24" height="24" fill="white" fill-opacity="0.01"/>
<path d="M0.0649414 0.0649414H24.0649M0.0649414 0.0649414V24.0649M0.0649414 0.0649414L24.0649 24.0649M24.0649 0.0649414V24.0649M24.0649 0.0649414L0.0649414 24.0649M24.0649 24.0649H0.0649414" stroke="#DADEE4" stroke-width="0.13"/>
<circle cx="12.0649" cy="12.0649" r="10" stroke="#DADEE4" stroke-width="0.13"/>
<rect x="2.06494" y="4.06494" width="20" height="16" rx="1" stroke="#DADEE4" stroke-width="0.13"/>
<rect x="4.06494" y="2.06494" width="16" height="20" rx="1" stroke="#DADEE4" stroke-width="0.13"/>
<rect x="3.06494" y="3.06494" width="18" height="18" rx="1" stroke="#DADEE4" stroke-width="0.13"/>
<circle cx="12.0649" cy="12.0649" r="4" stroke="#DADEE4" stroke-width="0.13"/>
<path fill-rule="evenodd" clip-rule="evenodd" d="M14.4103 3.46488C13.6543 3.70372 12.8677 4.05318 12.065 4.50923C11.2624 4.05324 10.4758 3.70381 9.71993 3.465C7.67664 2.81945 5.63974 2.93402 4.28694 4.28681C2.93414 5.63961 2.81958 7.67651 3.46513 9.7198C3.70395 10.4757 4.05338 11.2623 4.50938 12.0649C4.05338 12.8675 3.70395 13.6542 3.46513 14.4101C2.81958 16.4533 2.93414 18.4902 4.28694 19.843C5.63974 21.1958 7.67664 21.3104 9.71993 20.6649C10.4758 20.426 11.2624 20.0766 12.065 19.6206C12.8677 20.0767 13.6543 20.4261 14.4103 20.665C16.4536 21.3105 18.4905 21.196 19.8433 19.8432C21.1961 18.4904 21.3107 16.4535 20.6651 14.4102C20.4263 13.6542 20.0768 12.8676 19.6208 12.0649C20.0768 11.2623 20.4263 10.4756 20.6651 9.71968C21.3107 7.67639 21.1961 5.6395 19.8433 4.2867C18.4905 2.9339 16.4536 2.81933 14.4103 3.46488ZM15.0128 5.37197C14.6798 5.47719 14.3326 5.6115 13.9739 5.77546C14.7521 6.36544 15.5343 7.04889 16.3078 7.82235C17.0812 8.59576 17.7646 9.3779 18.3545 10.1561C18.5185 9.79734 18.6528 9.45021 18.758 9.11717C19.2945 7.41925 19.0289 6.30073 18.4291 5.70091C17.8293 5.10109 16.7107 4.83553 15.0128 5.37197ZM5.37221 9.11728C5.47742 9.45028 5.6117 9.79736 5.77563 10.156C6.36559 9.37784 7.04903 8.59567 7.82247 7.82223C8.59587 7.04884 9.37799 6.36543 10.1561 5.77549C9.79747 5.61157 9.4504 5.47729 9.11741 5.37208C7.4195 4.83565 6.30098 5.1012 5.70115 5.70103C5.10133 6.30085 4.83578 7.41937 5.37221 9.11728ZM5.37221 15.0126C5.47742 14.6796 5.6117 14.3325 5.77563 13.9738C6.36559 14.752 7.04903 15.5342 7.82247 16.3076C8.59587 17.081 9.37799 17.7644 10.1562 18.3544C9.79747 18.5183 9.4504 18.6526 9.11741 18.7578C7.4195 19.2942 6.30098 19.0287 5.70115 18.4288C5.10133 17.829 4.83578 16.7105 5.37221 15.0126ZM15.0128 18.7579C14.6798 18.6527 14.3326 18.5184 13.9739 18.3544C14.7521 17.7644 15.5343 17.081 16.3078 16.3075C17.0812 15.5341 17.7646 14.752 18.3545 13.9738C18.5185 14.3325 18.6528 14.6797 18.758 15.0127C19.2945 16.7106 19.0289 17.8291 18.4291 18.4289C17.8293 19.0288 16.7107 19.2943 15.0128 18.7579ZM12.0649 13.5649C12.8934 13.5649 13.5649 12.8934 13.5649 12.0649C13.5649 11.2365 12.8934 10.5649 12.0649 10.5649C11.2365 10.5649 10.5649 11.2365 10.5649 12.0649C10.5649 12.8934 11.2365 13.5649 12.0649 13.5649Z" fill="#09244B"/>
</svg>
