<svg id="Layer_1" height="512" viewBox="0 0 256 256" width="512" xmlns="http://www.w3.org/2000/svg" data-name="Layer 1"><path d="m228 232h-200a20 20 0 0 1 -20-20v-168a20 20 0 0 1 20-20h77.72a20 20 0 0 1 14.14 5.86l18.28 18.28a20 20 0 0 0 14.14 5.86h75.72a20 20 0 0 1 20 20v138a20 20 0 0 1 -20 20z" fill="#ff9a00"/><path d="m16 62h210a14 14 0 0 1 14 14v134a14 14 0 0 1 -14 14h-196a14 14 0 0 1 -14-14v-148a0 0 0 0 1 0 0z" fill="#300"/><g fill="#ff9a00"><path d="m166.93 116a8.88 8.88 0 0 1 -6.46-2.4 9.86 9.86 0 0 1 .07-13.13 9 9 0 0 1 6.53-2.47 8.69 8.69 0 0 1 6.53 2.47 9.08 9.08 0 0 1 2.4 6.6 8.73 8.73 0 0 1 -2.47 6.53 9.08 9.08 0 0 1 -6.6 2.4z"/><path d="m127.24 160h-26.09l-6.73 21c-.09.65-.49 1-1.23 1h-12.25c-.82 0-1.1-.4-.86-1.22l23.92-71.57a20.41 20.41 0 0 0 1-6.48.64.64 0 0 1 .73-.73h16.88c.49 0 .77.2.85.61l26.46 78.3c.24.73 0 1.09-.61 1.09h-13.74a1.28 1.28 0 0 1 -1.23-.73zm-23.15-12h20.33l-10.42-34z"/><path d="m160 180.87v-57.87a.88.88 0 0 1 1-1h12a.88.88 0 0 1 1 1v58a.88.88 0 0 1 -1 1h-11.87a1 1 0 0 1 -1.13-1.13z"/></g></svg>