<svg id="Layer_1" height="512" viewBox="0 0 256 256" width="512" xmlns="http://www.w3.org/2000/svg" data-name="Layer 1"><g id="Surfaces"><g id="Photo_Surface" data-name="Photo Surface"><g id="Outline_no_shadow" data-name="Outline no shadow"><rect fill="#001e36" height="232" rx="42" width="240" x="8" y="12"/></g></g></g><g fill="#31a8ff"><path d="m143 104h17a1.84 1.84 0 0 1 1.83 1.33 23.4 23.4 0 0 1 2.17 8.67c6.42-8.3 14.32-12 24.84-12a1 1 0 0 1 1.16 1.16v17.66c0 .89-.44 1.27-1.33 1.16-9.63-.55-17.27.71-22.8 6.24a5.24 5.24 0 0 0 -1.87 3.78v50.84c0 .77-.44 1.16-1.33 1.16h-17.18c-1 0-1.49-.44-1.49-1.33v-56.67c0-13.42-1-15.33-2-20.84-.11-.77.22-1.16 1-1.16z"/><path d="m129.52 184h-62c-1 0-1.53-.57-1.53-1.7v-104.94a1.2 1.2 0 0 1 1.37-1.36h17.64c.68 0 1 .4 1 1.19v90.81h46.75c1 0 1.41.46 1.19 1.36l-2.72 13.28a1.61 1.61 0 0 1 -1.7 1.36z"/></g></svg>