<svg width="25" height="25" viewBox="0 0 25 25" fill="none" xmlns="http://www.w3.org/2000/svg">
<rect width="24" height="24" transform="matrix(-1 0 0 1 24.0649 0.0649414)" fill="white" fill-opacity="0.01"/>
<path d="M24.0649 0.0649414H0.0649414M24.0649 0.0649414V24.0649M24.0649 0.0649414L0.0649414 24.0649M0.0649414 0.0649414V24.0649M0.0649414 0.0649414L24.0649 24.0649M0.0649414 24.0649H24.0649" stroke="#DADEE4" stroke-width="0.13"/>
<circle cx="10" cy="10" r="10" transform="matrix(-1 0 0 1 22.0649 2.06494)" stroke="#DADEE4" stroke-width="0.13"/>
<rect width="20" height="16" rx="1" transform="matrix(-1 0 0 1 22.0649 4.06494)" stroke="#DADEE4" stroke-width="0.13"/>
<rect width="16" height="20" rx="1" transform="matrix(-1 0 0 1 20.0649 2.06494)" stroke="#DADEE4" stroke-width="0.13"/>
<rect width="18" height="18" rx="1" transform="matrix(-1 0 0 1 21.0649 3.06494)" stroke="#DADEE4" stroke-width="0.13"/>
<circle cx="4" cy="4" r="4" transform="matrix(-1 0 0 1 16.0649 8.06494)" stroke="#DADEE4" stroke-width="0.13"/>
<path fill-rule="evenodd" clip-rule="evenodd" d="M2.06494 12.0649C2.06494 6.54209 6.54209 2.06494 12.0649 2.06494C17.5878 2.06494 22.0649 6.54209 22.0649 12.0649C22.0649 17.5878 17.5878 22.0649 12.0649 22.0649C6.54209 22.0649 2.06494 17.5878 2.06494 12.0649ZM9.3102 4.55187C7.10796 5.35959 5.35959 7.10796 4.55187 9.3102C4.81665 9.19631 5.09557 9.09136 5.38484 8.99494C6.23728 8.71079 7.23261 8.48333 8.32449 8.32449C8.48333 7.23261 8.71079 6.23728 8.99494 5.38484C9.09136 5.09557 9.19631 4.81665 9.3102 4.55187ZM14.8197 4.55187C14.9336 4.81665 15.0385 5.09557 15.1349 5.38484C15.4191 6.23727 15.6466 7.2326 15.8054 8.32446C16.8973 8.4833 17.8927 8.71078 18.7452 8.99494C19.0344 9.09134 19.3133 9.19625 19.578 9.31011C18.7702 7.10791 17.0219 5.35958 14.8197 4.55187ZM13.7475 8.11537C13.6123 7.3289 13.439 6.62157 13.2376 6.0173C12.9855 5.26119 12.7075 4.72145 12.4473 4.39127C12.3765 4.30152 12.2038 4.06459 12.0649 4.06503C11.9261 4.06459 11.7533 4.30152 11.6826 4.39127C11.4224 4.72145 11.1443 5.26119 10.8923 6.0173C10.6909 6.62157 10.5176 7.3289 10.3824 8.11538C11.478 8.04891 12.6519 8.0489 13.7475 8.11537ZM16.0145 10.3824C16.801 10.5176 17.5084 10.6909 18.1128 10.8923C18.8689 11.1443 19.4086 11.4224 19.7388 11.6826C19.8377 11.7606 20.0519 11.9181 20.0649 12.063C20.0649 12.2235 19.8489 12.3605 19.7388 12.4473C19.4086 12.7075 18.8689 12.9855 18.1128 13.2376C17.5084 13.439 16.8011 13.6123 16.0145 13.7475C16.081 12.6519 16.081 11.478 16.0145 10.3824ZM13.9932 13.9932C14.0904 12.7108 14.0904 11.4191 13.9932 10.1367C12.7108 10.0395 11.4191 10.0395 10.1367 10.1367C10.0395 11.4191 10.0395 12.7108 10.1367 13.9932C11.4191 14.0904 12.7108 14.0904 13.9932 13.9932ZM15.8054 15.8054C16.8974 15.6466 17.8927 15.4191 18.7452 15.1349C19.0344 15.0385 19.3133 14.9336 19.578 14.8198C18.7703 17.0219 17.0219 18.7703 14.8198 19.578C14.9336 19.3133 15.0385 19.0344 15.1349 18.7452C15.4191 17.8927 15.6466 16.8974 15.8054 15.8054ZM12.0669 20.0649C12.2117 20.0519 12.3693 19.8377 12.4473 19.7388C12.7075 19.4086 12.9855 18.8689 13.2376 18.1128C13.439 17.5084 13.6123 16.8011 13.7475 16.0145C12.6519 16.081 11.478 16.081 10.3824 16.0145C10.5176 16.801 10.6909 17.5084 10.8923 18.1128C11.1443 18.8689 11.4224 19.4086 11.6826 19.7388C11.7701 19.8498 11.9048 20.0649 12.0669 20.0649ZM9.31011 19.578C7.10791 18.7702 5.35958 17.0219 4.55187 14.8197C4.81665 14.9336 5.09557 15.0385 5.38484 15.1349C6.23727 15.4191 7.2326 15.6466 8.32446 15.8054C8.4833 16.8973 8.71078 17.8927 8.99494 18.7452C9.09134 19.0344 9.19625 19.3133 9.31011 19.578ZM8.11537 13.7475C7.3289 13.6123 6.62157 13.439 6.0173 13.2376C5.26119 12.9855 4.72145 12.7075 4.39127 12.4473C4.29749 12.3734 4.02256 12.199 4.06809 12.0496C4.0786 12.0151 4.15176 11.8714 4.39127 11.6826C4.72145 11.4224 5.26119 11.1443 6.0173 10.8923C6.62157 10.6909 7.3289 10.5176 8.11538 10.3824C8.04891 11.478 8.0489 12.6519 8.11537 13.7475Z" fill="#09244B"/>
</svg>
