<svg width="24" height="24" viewBox="0 0 24 24" fill="none" xmlns="http://www.w3.org/2000/svg">
<path d="M13 17V19H11V17H13Z" fill="black"/>
<path d="M7 17V19H5L5 17H7Z" fill="black"/>
<path d="M19 17V19H17V17H19Z" fill="black"/>
<path d="M13 11V13H11V11H13Z" fill="black"/>
<path d="M7 11V13H5L5 11H7Z" fill="black"/>
<path d="M19 11V13H17V11H19Z" fill="black"/>
<path d="M13 5V7H11V5L13 5Z" fill="black"/>
<path d="M7 5V7H5L5 5L7 5Z" fill="black"/>
<path d="M19 5V7H17V5L19 5Z" fill="black"/>
</svg>
