<svg xmlns="http://www.w3.org/2000/svg" width="32" height="32" fill="none" viewBox="0 0 32 32">
  <path fill="#000001" d="M27.425 6.09h-1.52v10.67h1.52V6.09Zm-1.52 10.67h-1.52v3.05h1.52v-3.05Zm0-13.71h-1.52v3.04h1.52V3.05Zm-1.52 16.76h-1.53v1.52h1.53v-1.52Zm-1.53 1.52h-1.52v1.53h1.52v-1.53Zm1.53-19.81h-3.05v1.53h3.05V1.52Zm-3.05 6.1h-1.53v10.66h1.53V7.62Zm-1.53 10.66h-1.52v4.58h-4.57v-4.58h-1.53v4.58h-1.52v1.52h1.52v3.05h-1.52v3.05h1.52V32h7.62v-1.52h1.53v-3.05h-1.53v-3.05h1.53v-1.52h-1.53v-4.58Zm-1.52 9.15h-4.57v-3.05h4.57v3.05Zm-6.1-19.81h1.53v-6.1h4.57v6.1h1.52v-6.1h1.53V0h-10.67v1.52h1.52v6.1Zm0 0h-1.52v10.66h1.52V7.62Zm-1.52 13.71h-1.52v1.53h1.52v-1.53Zm0-19.81h-3.05v1.53h3.05V1.52Zm-1.52 18.29h-1.53v1.52h1.53v-1.52Zm-1.53-3.05h-1.52v3.05h1.52v-3.05Zm0-13.71h-1.52v3.04h1.52V3.05Zm-1.52 3.04h-1.52v10.67h1.52V6.09Z"/>
</svg>
