<svg xmlns="http://www.w3.org/2000/svg" width="32" height="32" fill="none" viewBox="0 0 32 32">
  <g clip-path="url(#a)">
    <path fill="#000001" d="M32 22.86h-6.09v1.52H32v-1.52Zm-3.05-9.15h-1.52v3.05h1.52v-3.05Zm-1.52-6.09v1.52h3.05V6.09h-1.53v1.53h-1.52Zm1.52-3.05h-1.52v1.52h1.52V4.57Zm-1.52 12.19h-1.52v1.52h1.52v-1.52Zm0-4.57h-1.52v1.52h1.52v-1.52Zm0-6.1h-9.14v1.53h9.14V6.09Zm0-3.04h-1.52v1.52h1.52V3.05Zm-1.52 21.33h-1.53v1.52h1.53v-1.52Zm0-9.14h-1.53v1.52h1.53v-1.52Zm0-4.57h-1.53v1.52h1.53v-1.52Zm-1.53 3.04h-3.04v1.53h3.04v-1.53Z"/>
    <path fill="#000001" d="M22.86 19.81h-1.52v-3.05h-1.53v-1.52h-1.52v-1.53h-1.53v-1.52h-4.57v3.05h1.53v3.04h1.52v3.05h1.52v7.62h-1.52v1.53h10.67v-1.53h-1.53V25.9h-1.52v-6.09Zm-3.05 9.14h-1.52V25.9h1.52v3.05Zm0-6.09h-1.52v-3.05h-1.53v-3.05h-1.52v-1.52h1.52v1.52h1.53v3.05h1.52v3.05Zm1.53-10.67h-3.05v1.52h3.05v-1.52Zm4.57-10.67h-9.15v1.53h9.15V1.52Zm-9.15 9.15h7.62V9.14h-6.09V7.62h-1.53v3.05Zm0-7.62h-1.52v1.52h1.52V3.05Z"/>
    <path fill="#000001" d="M15.24 24.38h-6.1v1.52h6.1v-1.52Zm0-19.81h-1.52v1.52h1.52V4.57Zm-1.52 1.52h-1.53v1.53h1.53V6.09Zm-1.53 9.15h-1.52v4.57h1.52v-4.57Zm0-10.67h-1.52v1.52h1.52V4.57Zm-1.52 15.24H9.14v1.52h1.53v-1.52Zm-1.53-4.57h1.53v-3.05H7.62v1.52h1.52v1.53Zm0 10.66H7.62v1.53h1.52V25.9Zm0-4.57H7.62v1.53h1.52v-1.53Zm0-6.09H7.62v1.52h1.52v-1.52Zm-4.57-6.1v1.53h6.1V7.62H9.14v1.52H4.57Zm3.05 7.62H6.1v4.57h1.52v-4.57Zm0-3.05H6.1v1.53h1.52v-1.53Zm1.52-7.62H4.57v1.53h4.57V6.09ZM7.62 27.43H1.53v1.52h6.09v-1.52ZM6.1 15.24H4.57v1.52H6.1v-1.52Zm4.57-12.19H3.05v1.52h7.62V3.05Zm-6.1 13.71H3.05v3.05h1.52v-3.05Zm0-6.09H3.05v1.52h1.52v-1.52Zm0-3.05H3.05v1.52h1.52V7.62ZM3.05 19.81H1.53v1.52h1.52v-1.52Zm0-7.62H1.53v1.52h1.52v-1.52Zm0-3.05H1.53v1.53h1.52V9.14Zm0-4.57H1.53v1.52h1.52V4.57ZM1.53 28.95H0v1.53h1.53v-1.53Zm0-15.24H0v6.1h1.53v-6.1Zm0-7.62H0v3.05h1.53V6.09Z"/>
  </g>
  <defs>
    <clipPath id="a">
      <path fill="#fff" d="M0 0h32v32H0z"/>
    </clipPath>
  </defs>
</svg>
