<svg width="25" height="25" viewBox="0 0 25 25" fill="none" xmlns="http://www.w3.org/2000/svg">
<rect x="0.0649414" y="0.0650024" width="24" height="24" fill="white" fill-opacity="0.01"/>
<path d="M0.0649414 0.0650024H24.0649M0.0649414 0.0650024V24.065M0.0649414 0.0650024L24.0649 24.065M24.0649 0.0650024V24.065M24.0649 0.0650024L0.0649414 24.065M24.0649 24.065H0.0649414" stroke="#DADEE4" stroke-width="0.13"/>
<circle cx="12.0649" cy="12.065" r="10" stroke="#DADEE4" stroke-width="0.13"/>
<rect x="2.06494" y="4.065" width="20" height="16" rx="1" stroke="#DADEE4" stroke-width="0.13"/>
<rect x="4.06494" y="2.065" width="16" height="20" rx="1" stroke="#DADEE4" stroke-width="0.13"/>
<rect x="3.06494" y="3.065" width="18" height="18" rx="1" stroke="#DADEE4" stroke-width="0.13"/>
<circle cx="12.0649" cy="12.065" r="4" stroke="#DADEE4" stroke-width="0.13"/>
<path fill-rule="evenodd" clip-rule="evenodd" d="M7.64526 4.065C6.92755 4.065 6.26486 4.44958 5.90878 5.07272L2.32845 11.3383C2.15577 11.6405 2.06494 11.9825 2.06494 12.3306V16.8289C2.06494 17.1394 2.13723 17.4457 2.27609 17.7234L3.39412 19.9594C3.73291 20.637 4.42543 21.065 5.18298 21.065H6.06494C7.16951 21.065 8.06494 20.1696 8.06494 19.065H16.0649C16.0649 20.1696 16.9604 21.065 18.0649 21.065H18.9469C19.7045 21.065 20.397 20.637 20.7358 19.9594L21.8538 17.7234C21.9927 17.4457 22.0649 17.1394 22.0649 16.8289V12.3306C22.0649 11.9825 21.9741 11.6405 21.8014 11.3383L18.2211 5.07272C17.865 4.44957 17.2023 4.065 16.4846 4.065H7.64526ZM12.0649 12.065C10.4676 12.065 8.99304 11.7223 7.51163 11.1703C7.01776 10.9237 6.41739 11.124 6.17049 11.6178C5.9235 12.1117 6.12372 12.7124 6.6177 12.9594C7.11168 13.2064 9.62452 14.065 12.0649 14.065C13.9191 14.065 15.8331 13.7913 17.5097 12.9606C17.9983 12.717 18.2038 12.1068 17.9593 11.6178C17.7124 11.124 17.1121 10.9237 16.6182 11.1703C15.2534 11.8518 13.5609 12.065 12.0649 12.065Z" fill="#09244B"/>
</svg>
