<svg width="32" height="32" viewBox="0 0 32 32" fill="none" xmlns="http://www.w3.org/2000/svg">
<g clip-path="url(#clip0_1128_10611)">
<path d="M31.24 22.86H29.72V24.38H31.24V22.86Z" fill="#000001"/>
<path d="M31.24 16.77H29.72V18.29H31.24V16.77Z" fill="#000001"/>
<path d="M31.24 9.15002H29.72V10.67H31.24V9.15002Z" fill="#000001"/>
<path d="M31.24 3.05003H29.72V1.53003H28.19V3.05003H26.67V4.57003H28.19V6.10003H29.72V4.57003H31.24V3.05003Z" fill="#000001"/>
<path d="M29.7201 21.34H28.1901V22.86H29.7201V21.34Z" fill="#000001"/>
<path d="M28.19 32.0001V30.4801H29.72V28.9601H28.19V27.4301H26.67V28.9601H25.15V30.4801H26.67V32.0001H28.19Z" fill="#000001"/>
<path d="M28.19 22.86H26.67V24.38H28.19V22.86Z" fill="#000001"/>
<path d="M26.67 12.1899H25.15V13.7199H26.67V12.1899Z" fill="#000001"/>
<path d="M25.15 13.72H23.62V15.24H25.15V13.72Z" fill="#000001"/>
<path d="M25.15 10.67H23.62V12.19H25.15V10.67Z" fill="#000001"/>
<path d="M23.62 25.91H22.1V27.43H23.62V25.91Z" fill="#000001"/>
<path d="M23.62 18.29H22.1V19.81H23.62V18.29Z" fill="#000001"/>
<path d="M23.62 12.1899H22.1V13.7199H23.62V12.1899Z" fill="#000001"/>
<path d="M23.62 4.56995H22.1V6.09995H23.62V4.56995Z" fill="#000001"/>
<path d="M8.38 27.4301V28.9601H9.91V30.4801H11.43V28.9601H19.05V30.4801H20.57V28.9601H22.1V27.4301H8.38Z" fill="#000001"/>
<path d="M19.0501 30.48H11.4301V32H19.0501V30.48Z" fill="#000001"/>
<path d="M19.0501 0H11.4301V1.53H19.0501V0Z" fill="#000001"/>
<path d="M5.34006 30.48V22.86H9.91006V24.38H8.38006V25.91H22.1001V24.38H20.5701V7.62003H22.1001V6.10003H8.38006V7.62003H9.91006V9.15003H5.34006V1.53003H3.81006V30.48H5.34006ZM19.0501 24.38H16.0001V22.86H17.5301V21.34H19.0501V24.38ZM11.4301 9.15003H12.9601V7.62003H16.0001V9.15003H14.4801V10.67H12.9601V12.19H11.4301V9.15003ZM11.4301 15.24H12.9601V13.72H14.4801V12.19H16.0001V10.67H17.5301V9.15003H19.0501V12.19H17.5301V13.72H16.0001V15.24H14.4801V16.77H12.9601V18.29H11.4301V15.24ZM11.4301 21.34H12.9601V19.81H14.4801V18.29H16.0001V16.77H17.5301V15.24H19.0501V18.29H17.5301V19.81H16.0001V21.34H14.4801V22.86H12.9601V24.38H11.4301V21.34ZM5.34006 10.67H9.91006V21.34H5.34006V10.67Z" fill="#000001"/>
<path d="M22.1 4.57003V3.05003H20.57V1.53003H19.05V3.05003H11.43V1.53003H9.91V3.05003H8.38V4.57003H22.1Z" fill="#000001"/>
<path d="M8.37999 25.91H6.85999V27.43H8.37999V25.91Z" fill="#000001"/>
<path d="M8.37999 4.56995H6.85999V6.09995H8.37999V4.56995Z" fill="#000001"/>
<path d="M3.81001 0H0.76001V1.53H3.81001V0Z" fill="#000001"/>
<path d="M3.81001 30.48H0.76001V32H3.81001V30.48Z" fill="#000001"/>
</g>
<defs>
<clipPath id="clip0_1128_10611">
<rect width="32" height="32" fill="white"/>
</clipPath>
</defs>
</svg>
