<svg width="32" height="32" viewBox="0 0 32 32" fill="none" xmlns="http://www.w3.org/2000/svg">
<g clip-path="url(#clip0_1178_12530)">
<path d="M30.48 21.34H28.96V22.86H30.48V24.38H32V19.81H30.48V21.34Z" fill="#BFFB4F"/>
<path d="M30.48 24.38H28.96V25.91H30.48V24.38Z" fill="#BFFB4F"/>
<path d="M30.48 18.29H28.96V19.81H30.48V18.29Z" fill="#BFFB4F"/>
<path d="M28.9599 22.86H22.8599V24.38H28.9599V22.86Z" fill="#BFFB4F"/>
<path d="M28.9599 16.76H22.8599V18.29H28.9599V16.76Z" fill="#BFFB4F"/>
<path d="M28.9599 25.91H22.8599V27.43H28.9599V25.91Z" fill="#BFFB4F"/>
<path d="M22.8598 18.29H21.3398V19.81H22.8598V18.29Z" fill="#BFFB4F"/>
<path d="M19.81 22.86H18.29V24.38H19.81V25.91H18.29V27.43H19.81V28.95H21.34V21.34H19.81V22.86Z" fill="#BFFB4F"/>
<path d="M19.81 28.95H18.29V30.48H19.81V28.95Z" fill="#BFFB4F"/>
<path d="M19.81 19.81H18.29V21.34H19.81V19.81Z" fill="#BFFB4F"/>
<path d="M18.2899 30.48H10.6699V32H18.2899V30.48Z" fill="#BFFB4F"/>
<path d="M18.2899 27.43H10.6699V28.95H18.2899V27.43Z" fill="#BFFB4F"/>
<path d="M18.2899 24.38H10.6699V25.91H18.2899V24.38Z" fill="#BFFB4F"/>
<path d="M18.2899 18.29H10.6699V19.81H18.2899V18.29Z" fill="#BFFB4F"/>
<path d="M10.6699 15.24V16.76H13.7199V13.72H12.1899V15.24H10.6699Z" fill="#BFFB4F"/>
<path d="M12.1899 12.19H10.6699V13.72H12.1899V12.19Z" fill="#BFFB4F"/>
<path d="M10.6699 28.95H9.1499V30.48H10.6699V28.95Z" fill="#BFFB4F"/>
<path d="M10.6701 27.43V25.91H9.15012V24.38H10.6701V22.86H9.15012V21.34H7.62012V28.95H9.15012V27.43H10.6701Z" fill="#BFFB4F"/>
<path d="M10.6699 19.81H9.1499V21.34H10.6699V19.81Z" fill="#BFFB4F"/>
<path d="M10.6698 16.76H3.0498V18.29H10.6698V16.76Z" fill="#BFFB4F"/>
<path d="M28.9601 9.14V0H19.8101V1.53H21.3401V3.05H22.8601V4.57H21.3401V6.1H18.2901V4.57H16.7701V3.05H15.2401V1.53H12.1901V3.05H10.6701V4.57H9.1501V6.1H7.6201V7.62H6.1001V9.14H9.1501V7.62H10.6701V6.1H12.1901V4.57H15.2401V6.1H16.7701V7.62H18.2901V9.14H21.3401V7.62H22.8601V6.1H25.9101V7.62H27.4301V9.14H28.9601Z" fill="#BFFB4F"/>
<path d="M10.6698 10.67H3.0498V12.19H10.6698V10.67Z" fill="#BFFB4F"/>
<path d="M6.0998 27.43H3.0498V28.95H6.0998V27.43Z" fill="#BFFB4F"/>
<path d="M6.0998 22.86H3.0498V24.38H6.0998V22.86Z" fill="#BFFB4F"/>
<path d="M6.0998 19.81H3.0498V21.34H6.0998V19.81Z" fill="#BFFB4F"/>
<path d="M3.04979 25.91H1.52979V27.43H3.04979V25.91Z" fill="#BFFB4F"/>
<path d="M3.04979 12.19H1.52979V13.72H3.04979V12.19Z" fill="#BFFB4F"/>
<path d="M1.53 16.76H3.05V15.24H1.53V13.72H0V25.91H1.53V22.86H3.05V21.34H1.53V19.81H3.05V18.29H1.53V16.76Z" fill="#BFFB4F"/>
</g>
<defs>
<clipPath id="clip0_1178_12530">
<rect width="32" height="32" fill="white"/>
</clipPath>
</defs>
</svg>
