<svg width="32" height="32" viewBox="0 0 32 32" fill="none" xmlns="http://www.w3.org/2000/svg">
<g clip-path="url(#clip0_1178_12782)">
<path d="M28.9497 4.57999H27.4297V21.34H28.9497V4.57999Z" fill="#BFFB4F"/>
<path d="M27.4297 21.34H25.9097V24.39H27.4297V21.34Z" fill="#BFFB4F"/>
<path d="M25.9099 24.39H24.3799V25.91H25.9099V24.39Z" fill="#BFFB4F"/>
<path d="M25.9099 6.10001H24.3799V21.34H25.9099V6.10001Z" fill="#BFFB4F"/>
<path d="M27.4299 3.04999H24.3799V4.57999H27.4299V3.04999Z" fill="#BFFB4F"/>
<path d="M24.3799 25.91H22.8599V27.43H24.3799V25.91Z" fill="#BFFB4F"/>
<path d="M24.3799 21.34H22.8599V24.39H24.3799V21.34Z" fill="#BFFB4F"/>
<path d="M22.8598 27.43H21.3398V28.96H22.8598V27.43Z" fill="#BFFB4F"/>
<path d="M22.8598 24.39H21.3398V25.91H22.8598V24.39Z" fill="#BFFB4F"/>
<path d="M24.3798 4.57999H21.3398V6.09999H24.3798V4.57999Z" fill="#BFFB4F"/>
<path d="M24.3798 1.53H21.3398V3.05H24.3798V1.53Z" fill="#BFFB4F"/>
<path d="M21.34 28.96H18.29V30.48H21.34V28.96Z" fill="#BFFB4F"/>
<path d="M21.34 25.91H18.29V27.43H21.34V25.91Z" fill="#BFFB4F"/>
<path d="M19.81 16.77H18.29V19.81H19.81V16.77Z" fill="#BFFB4F"/>
<path d="M19.81 12.19H18.29V13.72H19.81V12.19Z" fill="#BFFB4F"/>
<path d="M13.7197 12.19H15.2397V15.24H13.7197V16.77H15.2397V19.81H13.7197V21.34H15.2397V22.86H16.7597V21.34H18.2897V19.81H16.7597V16.77H18.2897V15.24H16.7597V12.19H18.2897V10.67H16.7597V9.14999H15.2397V10.67H13.7197V12.19Z" fill="#BFFB4F"/>
<path d="M18.2897 30.48H13.7197V32H18.2897V30.48Z" fill="#BFFB4F"/>
<path d="M18.2897 27.43H13.7197V28.96H18.2897V27.43Z" fill="#BFFB4F"/>
<path d="M13.7199 28.96H10.6699V30.48H13.7199V28.96Z" fill="#BFFB4F"/>
<path d="M13.7199 25.91H10.6699V27.43H13.7199V25.91Z" fill="#BFFB4F"/>
<path d="M13.7199 18.29H12.1899V19.81H13.7199V18.29Z" fill="#BFFB4F"/>
<path d="M13.7199 12.19H12.1899V15.24H13.7199V12.19Z" fill="#BFFB4F"/>
<path d="M21.3399 3.04999H10.6699V4.57999H21.3399V3.04999Z" fill="#BFFB4F"/>
<path d="M21.3399 0H10.6699V1.53H21.3399V0Z" fill="#BFFB4F"/>
<path d="M10.6696 27.43H9.13965V28.96H10.6696V27.43Z" fill="#BFFB4F"/>
<path d="M10.6696 24.39H9.13965V25.91H10.6696V24.39Z" fill="#BFFB4F"/>
<path d="M10.6696 4.57999H7.61963V6.09999H10.6696V4.57999Z" fill="#BFFB4F"/>
<path d="M10.6696 1.53H7.61963V3.05H10.6696V1.53Z" fill="#BFFB4F"/>
<path d="M9.13963 25.91H7.61963V27.43H9.13963V25.91Z" fill="#BFFB4F"/>
<path d="M9.13963 21.34H7.61963V24.39H9.13963V21.34Z" fill="#BFFB4F"/>
<path d="M7.61961 24.39H6.09961V25.91H7.61961V24.39Z" fill="#BFFB4F"/>
<path d="M7.61961 6.10001H6.09961V21.34H7.61961V6.10001Z" fill="#BFFB4F"/>
<path d="M7.61982 3.04999H4.56982V4.57999H7.61982V3.04999Z" fill="#BFFB4F"/>
<path d="M6.09982 21.34H4.56982V24.39H6.09982V21.34Z" fill="#BFFB4F"/>
<path d="M4.5698 4.57999H3.0498V21.34H4.5698V4.57999Z" fill="#BFFB4F"/>
</g>
<defs>
<clipPath id="clip0_1178_12782">
<rect width="32" height="32" fill="white"/>
</clipPath>
</defs>
</svg>
