<svg width="32" height="32" viewBox="0 0 32 32" fill="none" xmlns="http://www.w3.org/2000/svg">
<g clip-path="url(#clip0_1128_4703)">
<path d="M32 18.29H30.47V19.81H32V18.29Z" fill="#000001"/>
<path d="M30.4699 19.81H28.95V21.33H30.4699V19.81Z" fill="#000001"/>
<path d="M30.4699 16.76H28.95V18.29H30.4699V16.76Z" fill="#000001"/>
<path d="M28.9501 21.33H27.4301V22.86H28.9501V21.33Z" fill="#000001"/>
<path d="M28.9501 15.24H27.4301V16.76H28.9501V15.24Z" fill="#000001"/>
<path d="M27.43 22.86H25.9V24.38H27.43V22.86Z" fill="#000001"/>
<path d="M27.43 13.72H25.9V15.24H27.43V13.72Z" fill="#000001"/>
<path d="M25.9 24.38H24.38V25.91H25.9V24.38Z" fill="#000001"/>
<path d="M25.9 12.19H24.38V13.72H25.9V12.19Z" fill="#000001"/>
<path d="M24.38 25.91H22.86V27.43H24.38V25.91Z" fill="#000001"/>
<path d="M24.38 10.67H22.86V12.19H24.38V10.67Z" fill="#000001"/>
<path d="M22.86 27.43H21.33V28.95H22.86V27.43Z" fill="#000001"/>
<path d="M22.86 21.33H21.33V22.86H22.86V21.33Z" fill="#000001"/>
<path d="M22.86 16.76H21.33V19.81H22.86V16.76Z" fill="#000001"/>
<path d="M22.86 9.14H21.33V10.67H22.86V9.14Z" fill="#000001"/>
<path d="M21.3301 28.95H19.8101V30.48H21.3301V28.95Z" fill="#000001"/>
<path d="M21.3301 19.81H19.8101V21.33H21.3301V19.81Z" fill="#000001"/>
<path d="M21.33 15.24H18.28V16.76H21.33V15.24Z" fill="#000001"/>
<path d="M21.3301 7.62H19.8101V9.14H21.3301V7.62Z" fill="#000001"/>
<path d="M19.81 30.48H18.28V32H19.81V30.48Z" fill="#000001"/>
<path d="M19.81 18.29H18.28V19.81H19.81V18.29Z" fill="#000001"/>
<path d="M19.81 6.10001H18.28V7.62001H19.81V6.10001Z" fill="#000001"/>
<path d="M18.28 28.95H16.76V30.48H18.28V28.95Z" fill="#000001"/>
<path d="M19.81 21.33H16.76V22.86H19.81V21.33Z" fill="#000001"/>
<path d="M18.28 16.76H16.76V18.29H18.28V16.76Z" fill="#000001"/>
<path d="M18.28 12.19H15.24V13.72H18.28V12.19Z" fill="#000001"/>
<path d="M18.28 4.57001H16.76V6.10001H18.28V4.57001Z" fill="#000001"/>
<path d="M16.76 27.43H15.24V28.95H16.76V27.43Z" fill="#000001"/>
<path d="M16.76 15.24H15.24V16.76H16.76V15.24Z" fill="#000001"/>
<path d="M16.76 3.05H15.24V4.57H16.76V3.05Z" fill="#000001"/>
<path d="M15.24 25.91H13.71V27.43H15.24V25.91Z" fill="#000001"/>
<path d="M16.76 18.29H13.71V19.81H16.76V18.29Z" fill="#000001"/>
<path d="M15.24 13.72H13.71V15.24H15.24V13.72Z" fill="#000001"/>
<path d="M13.7099 24.38H12.1899V25.91H13.7099V24.38Z" fill="#000001"/>
<path d="M13.7099 15.24H12.1899V18.29H13.7099V15.24Z" fill="#000001"/>
<path d="M13.7099 12.19H12.1899V13.72H13.7099V12.19Z" fill="#000001"/>
<path d="M12.19 22.86H10.66V24.38H12.19V22.86Z" fill="#000001"/>
<path d="M10.66 21.33H9.14001V22.86H10.66V21.33Z" fill="#000001"/>
<path d="M9.13995 7.62001H7.61995V9.14001H6.08995V7.62001H4.56995V10.67H10.6599V4.57001H7.61995V6.10001H9.13995V7.62001Z" fill="#000001"/>
<path d="M9.14 19.81H7.62V21.33H9.14V19.81Z" fill="#000001"/>
<path d="M7.61997 18.29H6.08997V19.81H7.61997V18.29Z" fill="#000001"/>
<path d="M7.61997 6.10001H6.08997V7.62001H7.61997V6.10001Z" fill="#000001"/>
<path d="M15.2399 1.52H4.56995V3.05H15.2399V1.52Z" fill="#000001"/>
<path d="M6.08995 16.76H4.56995V18.29H6.08995V16.76Z" fill="#000001"/>
<path d="M6.08995 4.57001H4.56995V6.10001H6.08995V4.57001Z" fill="#000001"/>
<path d="M4.57005 15.24H3.05005V16.76H4.57005V15.24Z" fill="#000001"/>
<path d="M4.57005 3.05H3.05005V4.57H4.57005V3.05Z" fill="#000001"/>
<path d="M3.05002 4.57001H1.52002V15.24H3.05002V4.57001Z" fill="#000001"/>
<path d="M3.05002 1.52H1.52002V3.05H3.05002V1.52Z" fill="#000001"/>
<path d="M1.52 0H0V1.52H1.52V0Z" fill="#000001"/>
</g>
<defs>
<clipPath id="clip0_1128_4703">
<rect width="32" height="32" fill="white"/>
</clipPath>
</defs>
</svg>
