<svg width="32" height="32" viewBox="0 0 32 32" fill="none" xmlns="http://www.w3.org/2000/svg">
<g clip-path="url(#clip0_1178_8599)">
<path d="M32 1.53003H30.48V30.48H32V1.53003Z" fill="#BFFB4F"/>
<path d="M30.48 30.48H1.52002V32H30.48V30.48Z" fill="#BFFB4F"/>
<path d="M28.9498 3.04999H3.0498V28.96H28.9498V3.04999ZM15.2398 6.09999H16.7598V12.19H15.2398V6.09999ZM9.1398 6.09999H13.7098V12.19H9.1398V6.09999ZM6.0998 6.09999H7.6198V12.19H6.0998V6.09999ZM6.0998 13.72H10.6698V19.81H6.0998V13.72ZM12.1898 25.91H10.6698V27.43H9.1398V25.91H10.6698V22.86H9.1398V21.34H10.6698V22.86H12.1898V25.91ZM12.1898 13.72H13.7098V19.81H12.1898V13.72ZM18.2898 27.43H13.7098V25.91H18.2898V27.43ZM15.2398 19.81V13.72H19.8098V19.81H15.2398ZM22.8598 22.86H21.3298V25.91H22.8598V27.43H21.3298V25.91H19.8098V22.86H21.3298V21.34H22.8598V22.86ZM22.8598 19.81H21.3298V13.72H22.8598V19.81ZM22.8598 12.19H18.2898V6.09999H22.8598V12.19ZM25.8998 19.81H24.3798V13.72H25.8998V19.81ZM25.8998 12.19H24.3798V6.09999H25.8998V12.19Z" fill="#BFFB4F"/>
<path d="M21.3301 7.62H19.8101V10.67H21.3301V7.62Z" fill="#BFFB4F"/>
<path d="M18.2898 15.24H16.7598V18.29H18.2898V15.24Z" fill="#BFFB4F"/>
<path d="M12.1899 7.62H10.6699V10.67H12.1899V7.62Z" fill="#BFFB4F"/>
<path d="M9.14012 15.24H7.62012V18.29H9.14012V15.24Z" fill="#BFFB4F"/>
<path d="M30.48 0H1.52002V1.53H30.48V0Z" fill="#BFFB4F"/>
<path d="M1.52 1.53003H0V30.48H1.52V1.53003Z" fill="#BFFB4F"/>
</g>
<defs>
<clipPath id="clip0_1178_8599">
<rect width="32" height="32" fill="white"/>
</clipPath>
</defs>
</svg>
