<svg width="32" height="32" viewBox="0 0 32 32" fill="none" xmlns="http://www.w3.org/2000/svg">
<path d="M29.7151 9.90503H28.1851V28.195H29.7151V9.90503Z" fill="#BFFB4F"/>
<path d="M28.185 28.195H26.665V29.715H28.185V28.195Z" fill="#BFFB4F"/>
<path d="M28.185 8.38501H26.665V9.90501H28.185V8.38501Z" fill="#BFFB4F"/>
<path d="M26.665 29.715H5.33496V31.235H26.665V29.715Z" fill="#BFFB4F"/>
<path d="M26.6649 6.85504H20.5649V8.38504H26.6649V6.85504Z" fill="#BFFB4F"/>
<path d="M20.5649 3.80499H19.0449V6.85499H20.5649V3.80499Z" fill="#BFFB4F"/>
<path d="M19.0454 2.28503H17.5254V3.80503H19.0454V2.28503Z" fill="#BFFB4F"/>
<path d="M17.5251 0.765015H14.4751V2.28501H17.5251V0.765015Z" fill="#BFFB4F"/>
<path d="M14.4753 2.28503H12.9453V3.80503H14.4753V2.28503Z" fill="#BFFB4F"/>
<path d="M12.9453 3.80499H11.4253V6.85499H12.9453V3.80499Z" fill="#BFFB4F"/>
<path d="M9.905 17.525H8.375V20.575H9.905V17.525Z" fill="#BFFB4F"/>
<path d="M8.37498 20.575H6.85498V22.095H8.37498V20.575Z" fill="#BFFB4F"/>
<path d="M8.37498 15.995H6.85498V17.525H8.37498V15.995Z" fill="#BFFB4F"/>
<path d="M11.425 6.85504H5.33496V8.38504H11.425V6.85504Z" fill="#BFFB4F"/>
<path d="M3.80516 14.475V9.90503H2.28516V15.995H6.85516V14.475H3.80516Z" fill="#BFFB4F"/>
<path d="M5.33518 28.195H3.80518V29.715H5.33518V28.195Z" fill="#BFFB4F"/>
<path d="M5.33518 8.38501H3.80518V9.90501H5.33518V8.38501Z" fill="#BFFB4F"/>
<path d="M3.80516 23.615H6.85516V22.095H2.28516V28.195H3.80516V23.615Z" fill="#BFFB4F"/>
</svg>
