<svg width="32" height="32" viewBox="0 0 32 32" fill="none" xmlns="http://www.w3.org/2000/svg">
<g clip-path="url(#clip0_1178_9202)">
<path d="M32 4.57501H30.48V6.09501H32V4.57501Z" fill="#BFFB4F"/>
<path d="M30.4799 15.235H27.4299V16.765H28.9499V21.335H25.8999V19.815H24.3799V22.855H28.9499V27.435H30.4799V22.855H31.9999V21.335H30.4799V15.235Z" fill="#BFFB4F"/>
<path d="M30.4802 9.14496H28.9502V10.665H27.4302V12.195H28.9502V13.715H30.4802V12.195H32.0002V10.665H30.4802V9.14496Z" fill="#BFFB4F"/>
<path d="M27.4299 16.765H25.8999V19.815H27.4299V16.765Z" fill="#BFFB4F"/>
<path d="M25.8999 6.09497H24.3799V7.62497H25.8999V6.09497Z" fill="#BFFB4F"/>
<path d="M24.3799 12.195H22.8599V15.235H24.3799V12.195Z" fill="#BFFB4F"/>
<path d="M12.1901 25.905V18.285H10.6701V22.855H9.14012V24.385H7.62012V27.435H9.14012V28.955H22.8601V27.435H24.3801V24.385H22.8601V22.855H21.3301V18.285H19.8101V25.905H12.1901Z" fill="#BFFB4F"/>
<path d="M22.8601 15.235H21.3301V16.765H22.8601V15.235Z" fill="#BFFB4F"/>
<path d="M22.8601 10.665H21.3301V12.195H22.8601V10.665Z" fill="#BFFB4F"/>
<path d="M21.3301 3.04498H19.8101V4.57498H21.3301V3.04498Z" fill="#BFFB4F"/>
<path d="M19.81 16.765H18.29V18.285H19.81V16.765Z" fill="#BFFB4F"/>
<path d="M19.81 10.665H18.29V12.195H19.81V10.665Z" fill="#BFFB4F"/>
<path d="M18.2898 19.815H16.7598V21.335H18.2898V19.815Z" fill="#BFFB4F"/>
<path d="M18.29 22.855H13.71V24.385H18.29V22.855Z" fill="#BFFB4F"/>
<path d="M18.29 15.235H13.71V16.765H18.29V15.235Z" fill="#BFFB4F"/>
<path d="M15.24 19.815H13.71V21.335H15.24V19.815Z" fill="#BFFB4F"/>
<path d="M13.7099 7.625V9.145H12.1899V10.665H13.7099V12.195H15.2399V10.665H16.7599V9.145H15.2399V7.625H13.7099Z" fill="#BFFB4F"/>
<path d="M13.7099 16.765H12.1899V18.285H13.7099V16.765Z" fill="#BFFB4F"/>
<path d="M12.1901 12.195H9.14014V13.715H12.1901V12.195Z" fill="#BFFB4F"/>
<path d="M10.6701 15.235H9.14014V16.765H10.6701V15.235Z" fill="#BFFB4F"/>
<path d="M10.6701 3.04498H9.14014V4.57498H10.6701V3.04498Z" fill="#BFFB4F"/>
<path d="M9.14012 13.715H7.62012V15.235H9.14012V13.715Z" fill="#BFFB4F"/>
<path d="M3.05 15.235V16.765H4.57V21.335H1.52V19.815H0V22.855H4.57V25.905H6.1V22.855H7.62V21.335H6.1V15.235H3.05Z" fill="#BFFB4F"/>
<path d="M7.6201 9.14496H6.1001V10.665H7.6201V9.14496Z" fill="#BFFB4F"/>
<path d="M3.05002 16.765H1.52002V19.815H3.05002V16.765Z" fill="#BFFB4F"/>
<path d="M1.52 4.57501V6.09501H0V7.62501H1.52V9.14501H3.05V7.62501H4.57V6.09501H3.05V4.57501H1.52Z" fill="#BFFB4F"/>
</g>
<defs>
<clipPath id="clip0_1178_9202">
<rect width="32" height="32" fill="white"/>
</clipPath>
</defs>
</svg>
