<svg width="32" height="32" viewBox="0 0 32 32" fill="none" xmlns="http://www.w3.org/2000/svg">
<g clip-path="url(#clip0_1178_9542)">
<path d="M30.4802 1.53H28.9502V30.48H30.4802V1.53Z" fill="#BFFB4F"/>
<path d="M28.9498 30.48H3.0498V32H28.9498V30.48Z" fill="#BFFB4F"/>
<path d="M27.4302 27.43H25.9102V28.96H27.4302V27.43Z" fill="#BFFB4F"/>
<path d="M25.9101 21.34H24.3801V22.86H22.8601V24.38H21.3301V25.91H27.4301V19.81H25.9101V21.34Z" fill="#BFFB4F"/>
<path d="M27.4302 3.05H25.9102V4.57H27.4302V3.05Z" fill="#BFFB4F"/>
<path d="M25.9099 9.15H24.3799V16.76H25.9099V9.15Z" fill="#BFFB4F"/>
<path d="M24.3799 16.76H22.8599V19.81H24.3799V16.76Z" fill="#BFFB4F"/>
<path d="M24.3799 6.1H22.8599V9.15H24.3799V6.1Z" fill="#BFFB4F"/>
<path d="M22.8601 19.81H19.8101V21.34H22.8601V19.81Z" fill="#BFFB4F"/>
<path d="M22.8601 10.67H21.3301V13.72H22.8601V10.67Z" fill="#BFFB4F"/>
<path d="M22.8601 4.57H19.8101V6.1H22.8601V4.57Z" fill="#BFFB4F"/>
<path d="M21.3301 9.15H19.8101V10.67H21.3301V9.15Z" fill="#BFFB4F"/>
<path d="M19.8103 7.62H16.7603V9.15H19.8103V7.62Z" fill="#BFFB4F"/>
<path d="M19.8099 3.05H12.1899V4.57H19.8099V3.05Z" fill="#BFFB4F"/>
<path d="M19.8099 21.34H12.1899V22.86H19.8099V21.34Z" fill="#BFFB4F"/>
<path d="M18.2903 12.19H16.7603V13.72H18.2903V12.19Z" fill="#BFFB4F"/>
<path d="M16.7602 13.72H15.2402V15.24H16.7602V13.72Z" fill="#BFFB4F"/>
<path d="M16.7602 10.67H15.2402V12.19H16.7602V10.67Z" fill="#BFFB4F"/>
<path d="M15.24 12.19H13.71V13.72H15.24V12.19Z" fill="#BFFB4F"/>
<path d="M13.7099 16.76H12.1899V18.29H13.7099V16.76Z" fill="#BFFB4F"/>
<path d="M12.1899 18.29H10.6699V19.81H12.1899V18.29Z" fill="#BFFB4F"/>
<path d="M10.6701 19.81H9.14014V21.34H10.6701V19.81Z" fill="#BFFB4F"/>
<path d="M12.1901 4.57H9.14014V6.1H12.1901V4.57Z" fill="#BFFB4F"/>
<path d="M10.6698 22.86H9.13982V21.34H7.61982V22.86H4.56982V25.91H10.6698V22.86Z" fill="#BFFB4F"/>
<path d="M9.14012 16.76H7.62012V18.29H9.14012V16.76Z" fill="#BFFB4F"/>
<path d="M9.14012 6.1H7.62012V9.15H9.14012V6.1Z" fill="#BFFB4F"/>
<path d="M7.6201 9.15H6.1001V16.76H7.6201V9.15Z" fill="#BFFB4F"/>
<path d="M6.09982 27.43H4.56982V28.96H6.09982V27.43Z" fill="#BFFB4F"/>
<path d="M6.09982 3.05H4.56982V4.57H6.09982V3.05Z" fill="#BFFB4F"/>
<path d="M28.9498 0H3.0498V1.53H28.9498V0Z" fill="#BFFB4F"/>
<path d="M3.05002 1.53H1.52002V30.48H3.05002V1.53Z" fill="#BFFB4F"/>
</g>
<defs>
<clipPath id="clip0_1178_9542">
<rect width="32" height="32" fill="white"/>
</clipPath>
</defs>
</svg>
