<svg width="32" height="32" viewBox="0 0 32 32" fill="none" xmlns="http://www.w3.org/2000/svg">
<g clip-path="url(#clip0_1178_9492)">
<path d="M30.48 28.95H28.96V30.48H18.29V27.43H27.43V16.76H28.96V15.24H25.91V3.05H24.39V13.71H22.86V15.24H10.67V13.71H9.15V15.24H0V28.95H1.53V27.43H13.72V28.95H15.24V27.43H16.77V28.95H15.24V30.48H3.05V32H32V18.29H30.48V28.95ZM12.2 25.9H1.53V16.76H12.2V25.9ZM15.24 25.9V16.76H25.91V25.9H15.24Z" fill="#BFFB4F"/>
<path d="M30.48 16.76H28.96V18.29H30.48V16.76Z" fill="#BFFB4F"/>
<path d="M28.9602 27.43H27.4302V28.95H28.9602V27.43Z" fill="#BFFB4F"/>
<path d="M24.3899 1.52H22.8599V3.05H24.3899V1.52Z" fill="#BFFB4F"/>
<path d="M22.8598 19.81H21.3398V21.33H22.8598V19.81Z" fill="#BFFB4F"/>
<path d="M22.8598 12.19H21.3398V13.71H22.8598V12.19Z" fill="#BFFB4F"/>
<path d="M21.3401 18.29H19.8101V19.81H21.3401V18.29Z" fill="#BFFB4F"/>
<path d="M22.86 22.86H18.29V21.33H16.77V24.38H24.39V21.33H22.86V22.86Z" fill="#BFFB4F"/>
<path d="M19.81 19.81H18.29V21.33H19.81V19.81Z" fill="#BFFB4F"/>
<path d="M16.7699 3.05H15.2399V4.57H13.7199V3.05H12.1999V4.57H10.6699V6.1H12.1999V7.62H13.7199V9.14H15.2399V7.62H16.7699V6.1H18.2899V4.57H16.7699V3.05Z" fill="#BFFB4F"/>
<path d="M21.3401 12.19V1.52H22.8601V0H7.62012V13.71H9.15012V12.19H21.3401ZM9.15012 1.52H19.8101V10.67H9.15012V1.52Z" fill="#BFFB4F"/>
<path d="M9.15012 19.81H7.62012V22.86H9.15012V19.81Z" fill="#BFFB4F"/>
<path d="M7.62008 18.29H4.58008V19.81H7.62008V18.29Z" fill="#BFFB4F"/>
<path d="M7.62008 22.86H4.58008V24.38H7.62008V22.86Z" fill="#BFFB4F"/>
<path d="M4.5798 19.81H3.0498V22.86H4.5798V19.81Z" fill="#BFFB4F"/>
<path d="M3.04979 28.95H1.52979V30.48H3.04979V28.95Z" fill="#BFFB4F"/>
</g>
<defs>
<clipPath id="clip0_1178_9492">
<rect width="32" height="32" fill="white"/>
</clipPath>
</defs>
</svg>
