<svg width="32" height="32" viewBox="0 0 32 32" fill="none" xmlns="http://www.w3.org/2000/svg">
<g clip-path="url(#clip0_1178_9973)">
<path d="M30.4798 22.1H28.9598V23.62H25.9098V26.67H22.8598V29.72H21.3398V31.24H31.9998V29.72H30.4798V22.1Z" fill="#BFFB4F"/>
<path d="M30.48 5.34H28.96V8.38H30.48V5.34Z" fill="#BFFB4F"/>
<path d="M28.9602 20.57H27.4302V22.1H28.9602V20.57Z" fill="#BFFB4F"/>
<path d="M28.9602 8.38H27.4302V9.91H28.9602V8.38Z" fill="#BFFB4F"/>
<path d="M28.9602 3.81H27.4302V5.34H28.9602V3.81Z" fill="#BFFB4F"/>
<path d="M27.4302 9.91H25.9102V11.43H27.4302V9.91Z" fill="#BFFB4F"/>
<path d="M27.4302 2.29001H25.9102V3.81001H27.4302V2.29001Z" fill="#BFFB4F"/>
<path d="M25.9101 11.43H24.3901V12.96H25.9101V11.43Z" fill="#BFFB4F"/>
<path d="M25.9101 8.38H24.3901V9.91H25.9101V8.38Z" fill="#BFFB4F"/>
<path d="M25.9099 0.76001H22.8599V2.29001H25.9099V0.76001Z" fill="#BFFB4F"/>
<path d="M27.4299 19.05H22.8599V20.57H27.4299V19.05Z" fill="#BFFB4F"/>
<path d="M24.3899 12.96H22.8599V14.48H24.3899V12.96Z" fill="#BFFB4F"/>
<path d="M24.3899 6.86002H22.8599V8.38002H24.3899V6.86002Z" fill="#BFFB4F"/>
<path d="M22.8598 20.57H21.3398V22.1H22.8598V20.57Z" fill="#BFFB4F"/>
<path d="M22.8598 17.53H21.3398V19.05H22.8598V17.53Z" fill="#BFFB4F"/>
<path d="M22.8598 14.48H21.3398V16H22.8598V14.48Z" fill="#BFFB4F"/>
<path d="M22.8598 8.38H21.3398V9.91H22.8598V8.38Z" fill="#BFFB4F"/>
<path d="M22.8598 5.34H21.3398V6.86H22.8598V5.34Z" fill="#BFFB4F"/>
<path d="M22.8598 2.29001H21.3398V3.81001H22.8598V2.29001Z" fill="#BFFB4F"/>
<path d="M21.3401 28.19H19.8101V29.72H21.3401V28.19Z" fill="#BFFB4F"/>
<path d="M21.3401 22.1H19.8101V23.62H21.3401V22.1Z" fill="#BFFB4F"/>
<path d="M21.3401 16H19.8101V17.53H21.3401V16Z" fill="#BFFB4F"/>
<path d="M21.3401 9.91H19.8101V11.43H21.3401V9.91Z" fill="#BFFB4F"/>
<path d="M21.3401 3.81H19.8101V5.34H21.3401V3.81Z" fill="#BFFB4F"/>
<path d="M19.81 23.62H18.29V28.19H19.81V23.62Z" fill="#BFFB4F"/>
<path d="M19.81 17.53H18.29V19.05H19.81V17.53Z" fill="#BFFB4F"/>
<path d="M19.81 11.43H18.29V12.96H19.81V11.43Z" fill="#BFFB4F"/>
<path d="M19.81 5.34H18.29V6.86H19.81V5.34Z" fill="#BFFB4F"/>
<path d="M18.29 22.1H16.77V23.62H18.29V22.1Z" fill="#BFFB4F"/>
<path d="M18.29 19.05H16.77V20.57H18.29V19.05Z" fill="#BFFB4F"/>
<path d="M18.29 12.96H16.77V14.48H18.29V12.96Z" fill="#BFFB4F"/>
<path d="M18.29 6.86002H16.77V8.38002H18.29V6.86002Z" fill="#BFFB4F"/>
<path d="M16.7702 20.57H15.2402V22.1H16.7702V20.57Z" fill="#BFFB4F"/>
<path d="M16.7702 14.48H15.2402V16H16.7702V14.48Z" fill="#BFFB4F"/>
<path d="M16.7702 8.38H15.2402V9.91H16.7702V8.38Z" fill="#BFFB4F"/>
<path d="M15.2402 22.1H13.7202V23.62H15.2402V22.1Z" fill="#BFFB4F"/>
<path d="M15.2402 16H13.7202V17.53H15.2402V16Z" fill="#BFFB4F"/>
<path d="M15.2402 9.91H13.7202V11.43H15.2402V9.91Z" fill="#BFFB4F"/>
<path d="M13.7202 23.62H12.2002V25.15H13.7202V23.62Z" fill="#BFFB4F"/>
<path d="M13.7202 17.53H12.2002V19.05H13.7202V17.53Z" fill="#BFFB4F"/>
<path d="M13.7202 11.43H12.2002V12.96H13.7202V11.43Z" fill="#BFFB4F"/>
<path d="M13.7202 8.38H12.2002V9.91H13.7202V8.38Z" fill="#BFFB4F"/>
<path d="M12.1999 25.15H10.6699V26.67H12.1999V25.15Z" fill="#BFFB4F"/>
<path d="M12.1999 19.05H10.6699V20.57H12.1999V19.05Z" fill="#BFFB4F"/>
<path d="M12.1999 12.96H10.6699V14.48H12.1999V12.96Z" fill="#BFFB4F"/>
<path d="M12.1999 6.86002H10.6699V8.38002H12.1999V6.86002Z" fill="#BFFB4F"/>
<path d="M10.6699 26.67H9.1499V28.19H10.6699V26.67Z" fill="#BFFB4F"/>
<path d="M10.6699 20.57H9.1499V22.1H10.6699V20.57Z" fill="#BFFB4F"/>
<path d="M10.6699 14.48H9.1499V16H10.6699V14.48Z" fill="#BFFB4F"/>
<path d="M10.6699 5.34H9.1499V6.86H10.6699V5.34Z" fill="#BFFB4F"/>
<path d="M9.15012 28.19H7.62012V29.72H9.15012V28.19Z" fill="#BFFB4F"/>
<path d="M9.15012 22.1H7.62012V23.62H9.15012V22.1Z" fill="#BFFB4F"/>
<path d="M9.15012 16H7.62012V17.53H9.15012V16Z" fill="#BFFB4F"/>
<path d="M9.15012 12.96H7.62012V14.48H9.15012V12.96Z" fill="#BFFB4F"/>
<path d="M9.15012 3.81H7.62012V5.34H9.15012V3.81Z" fill="#BFFB4F"/>
<path d="M7.6201 26.67H6.1001V28.19H7.6201V26.67Z" fill="#BFFB4F"/>
<path d="M7.6201 23.62H6.1001V25.15H7.6201V23.62Z" fill="#BFFB4F"/>
<path d="M7.6201 17.53H6.1001V19.05H7.6201V17.53Z" fill="#BFFB4F"/>
<path d="M7.6201 11.43H6.1001V12.96H7.6201V11.43Z" fill="#BFFB4F"/>
<path d="M7.6201 2.29001H6.1001V3.81001H7.6201V2.29001Z" fill="#BFFB4F"/>
<path d="M4.58 28.19H3.05V26.67H1.53V23.62H0V31.24H7.62V29.72H4.58V28.19Z" fill="#BFFB4F"/>
<path d="M6.10008 25.15H4.58008V26.67H6.10008V25.15Z" fill="#BFFB4F"/>
<path d="M6.10008 19.05H4.58008V20.57H6.10008V19.05Z" fill="#BFFB4F"/>
<path d="M6.10008 9.91H4.58008V11.43H6.10008V9.91Z" fill="#BFFB4F"/>
<path d="M6.0998 0.76001H3.0498V2.29001H6.0998V0.76001Z" fill="#BFFB4F"/>
<path d="M4.5798 23.62H3.0498V25.15H4.5798V23.62Z" fill="#BFFB4F"/>
<path d="M4.5798 20.57H3.0498V22.1H4.5798V20.57Z" fill="#BFFB4F"/>
<path d="M4.5798 8.38H3.0498V9.91H4.5798V8.38Z" fill="#BFFB4F"/>
<path d="M3.04979 22.1H1.52979V23.62H3.04979V22.1Z" fill="#BFFB4F"/>
<path d="M3.04979 6.86002H1.52979V8.38002H3.04979V6.86002Z" fill="#BFFB4F"/>
<path d="M3.04979 2.29001H1.52979V3.81001H3.04979V2.29001Z" fill="#BFFB4F"/>
<path d="M1.53 3.81H0V6.86H1.53V3.81Z" fill="#BFFB4F"/>
</g>
<defs>
<clipPath id="clip0_1178_9973">
<rect width="32" height="32" fill="white"/>
</clipPath>
</defs>
</svg>
