<svg width="32" height="32" viewBox="0 0 32 32" fill="none" xmlns="http://www.w3.org/2000/svg">
<g clip-path="url(#clip0_1128_6160)">
<path d="M28.96 25.91V27.43H30.48V30.48H32V24.38H30.48V25.91H28.96Z" fill="#000001"/>
<path d="M30.48 21.33H28.96V24.38H30.48V21.33Z" fill="#000001"/>
<path d="M30.48 30.48H1.53003V32H30.48V30.48Z" fill="#000001"/>
<path d="M28.9601 18.29H27.4301V21.33H28.9601V18.29Z" fill="#000001"/>
<path d="M28.96 27.43H3.05005V28.95H28.96V27.43Z" fill="#000001"/>
<path d="M25.91 18.29H27.43V13.72H28.96V12.19H25.91V18.29Z" fill="#000001"/>
<path d="M24.39 3.05V4.57H27.43V1.52H25.91V3.05H24.39Z" fill="#000001"/>
<path d="M18.29 15.24H13.72V16.76H18.29V15.24Z" fill="#000001"/>
<path d="M22.86 1.52V3.05H24.39V1.52H25.91V0H10.67V1.52H22.86Z" fill="#000001"/>
<path d="M27.43 25.91V22.86H25.91V19.81H24.39V18.29H7.61996V19.81H6.09996V22.86H4.57996V25.91H27.43ZM24.39 24.38H22.86V22.86H24.39V24.38ZM21.34 19.81H22.86V21.33H21.34V19.81ZM21.34 24.38H19.81V22.86H21.34V24.38ZM18.29 19.81H19.81V21.33H18.29V19.81ZM18.29 24.38H13.72V22.86H18.29V24.38ZM15.24 19.81H16.77V21.33H15.24V19.81ZM12.2 19.81H13.72V21.33H12.2V19.81ZM12.2 24.38H10.67V22.86H12.2V24.38ZM9.14996 19.81H10.67V21.33H9.14996V19.81ZM7.61996 22.86H9.14996V24.38H7.61996V22.86Z" fill="#000001"/>
<path d="M6.10003 12.19H4.58003V10.67H6.10003V12.19H7.62003V10.67H12.2V12.19H10.67V13.72H21.34V12.19H19.81V10.67H24.39V12.19H25.91V10.67H28.96V12.19H30.48V9.14H27.43V7.62H25.91V9.14H22.86V7.62H25.91V6.1H22.86V3.05H21.34V9.14H10.67V1.52H9.15003V6.1H6.10003V7.62H9.15003V9.14H6.10003V7.62H4.58003V9.14H1.53003V10.67H3.05003V13.72H4.58003V18.29H6.10003V12.19Z" fill="#000001"/>
<path d="M4.58005 18.29H3.05005V21.33H4.58005V18.29Z" fill="#000001"/>
<path d="M3.05003 21.33H1.53003V24.38H3.05003V21.33Z" fill="#000001"/>
<path d="M1.53 27.43H3.05V25.91H1.53V24.38H0V30.48H1.53V27.43Z" fill="#000001"/>
<path d="M1.53 6.1H0V9.14H1.53V6.1Z" fill="#000001"/>
</g>
<defs>
<clipPath id="clip0_1128_6160">
<rect width="32" height="32" fill="white"/>
</clipPath>
</defs>
</svg>
