<svg width="32" height="32" viewBox="0 0 32 32" fill="none" xmlns="http://www.w3.org/2000/svg">
<g clip-path="url(#clip0_1178_15190)">
<path d="M30.4748 6.09998H28.9448V12.19H30.4748V6.09998Z" fill="#BFFB4F"/>
<path d="M28.9448 12.1899H27.4248V16.7599H28.9448V12.1899Z" fill="#BFFB4F"/>
<path d="M27.4248 16.76H25.9048V22.86H27.4248V16.76Z" fill="#BFFB4F"/>
<path d="M25.905 22.86H24.375V28.95H25.905V22.86Z" fill="#BFFB4F"/>
<path d="M22.8547 6.10002H28.9447V4.57002H22.8547V1.52002H21.3247V30.48H24.3747V28.95H22.8547V6.10002Z" fill="#BFFB4F"/>
<path d="M21.3249 30.48H3.04492V32H21.3249V30.48Z" fill="#BFFB4F"/>
<path d="M19.8047 25.9H18.2847V28.95H19.8047V25.9Z" fill="#BFFB4F"/>
<path d="M13.7147 9.14001H10.6647V12.19H7.61475V15.24H10.6647V16.76H9.13475V18.29H15.2347V16.76H13.7147V15.24H16.7547V12.19H13.7147V9.14001Z" fill="#BFFB4F"/>
<path d="M6.09494 3.05005H4.56494V6.10005H6.09494V3.05005Z" fill="#BFFB4F"/>
<path d="M21.3249 0H3.04492V1.52H21.3249V0Z" fill="#BFFB4F"/>
<path d="M3.0449 1.52002H1.5249V30.48H3.0449V1.52002Z" fill="#BFFB4F"/>
</g>
<defs>
<clipPath id="clip0_1178_15190">
<rect width="32" height="32" fill="white"/>
</clipPath>
</defs>
</svg>
