<svg width="32" height="32" viewBox="0 0 32 32" fill="none" xmlns="http://www.w3.org/2000/svg">
<g clip-path="url(#clip0_1128_14553)">
<path d="M30.4699 14.48H28.9499V12.95H25.8999V5.34H24.3799V23.62H25.8999V28.19H27.4299V25.14H28.9499V23.62H30.4699V22.1H31.9999V16H30.4699V14.48ZM27.4299 22.1H25.8999V14.48H27.4299V22.1Z" fill="#000001"/>
<path d="M25.9001 28.19H21.3301V29.72H25.9001V28.19Z" fill="#000001"/>
<path d="M24.3801 3.81H22.8501V5.34H24.3801V3.81Z" fill="#000001"/>
<path d="M22.8501 2.29001H21.3301V3.81001H22.8501V2.29001Z" fill="#000001"/>
<path d="M21.3299 0.76001H10.6599V2.29001H21.3299V0.76001Z" fill="#000001"/>
<path d="M21.33 29.72H16.76V31.24H21.33V29.72Z" fill="#000001"/>
<path d="M21.33 26.67H16.76V28.19H21.33V26.67Z" fill="#000001"/>
<path d="M16.76 28.19H15.24V29.72H16.76V28.19Z" fill="#000001"/>
<path d="M10.6599 2.29001H9.13989V3.81001H10.6599V2.29001Z" fill="#000001"/>
<path d="M9.14012 3.81H7.62012V5.34H9.14012V3.81Z" fill="#000001"/>
<path d="M6.09 12.95H3.05V14.48H1.52V16H0V22.1H1.52V23.62H3.05V25.14H6.09V23.62H7.62V5.34H6.09V12.95ZM6.09 22.1H4.57V14.48H6.09V22.1Z" fill="#000001"/>
</g>
<defs>
<clipPath id="clip0_1128_14553">
<rect width="32" height="32" fill="white"/>
</clipPath>
</defs>
</svg>
