<svg width="32" height="32" viewBox="0 0 32 32" fill="none" xmlns="http://www.w3.org/2000/svg">
<g clip-path="url(#clip0_1178_6017)">
<path d="M32.0002 25.9H30.4702V28.95H32.0002V25.9Z" fill="#BFFB4F"/>
<path d="M32.0002 3.05H30.4702V6.1H32.0002V3.05Z" fill="#BFFB4F"/>
<path d="M30.4702 28.95H28.9502V30.48H30.4702V28.95Z" fill="#BFFB4F"/>
<path d="M30.4702 1.52H28.9502V3.05H30.4702V1.52Z" fill="#BFFB4F"/>
<path d="M28.9502 25.9H27.4302V27.43H28.9502V25.9Z" fill="#BFFB4F"/>
<path d="M28.9502 19.81H27.4302V22.86H28.9502V19.81Z" fill="#BFFB4F"/>
<path d="M28.9502 4.57H27.4302V6.1H28.9502V4.57Z" fill="#BFFB4F"/>
<path d="M28.9499 0H25.8999V1.52H28.9499V0Z" fill="#BFFB4F"/>
<path d="M28.9499 30.48H25.8999V32H28.9499V30.48Z" fill="#BFFB4F"/>
<path d="M27.4299 27.43H25.8999V28.95H27.4299V27.43Z" fill="#BFFB4F"/>
<path d="M27.4299 22.86H25.8999V24.38H27.4299V22.86Z" fill="#BFFB4F"/>
<path d="M27.4299 18.29H25.8999V19.81H27.4299V18.29Z" fill="#BFFB4F"/>
<path d="M27.4299 3.05H25.8999V4.57H27.4299V3.05Z" fill="#BFFB4F"/>
<path d="M25.9001 24.38H22.8501V25.9H25.9001V24.38Z" fill="#BFFB4F"/>
<path d="M25.8999 10.67H24.3799V18.29H25.8999V10.67Z" fill="#BFFB4F"/>
<path d="M24.3801 21.33H22.8501V22.86H24.3801V21.33Z" fill="#BFFB4F"/>
<path d="M24.3801 7.62H22.8501V10.67H24.3801V7.62Z" fill="#BFFB4F"/>
<path d="M9.14014 21.33H12.1901V22.86H13.7101V24.38H18.2801V22.86H19.8101V21.33H22.8501V19.81H9.14014V21.33Z" fill="#BFFB4F"/>
<path d="M22.8501 6.1H21.3301V7.62H22.8501V6.1Z" fill="#BFFB4F"/>
<path d="M22.8501 25.9H9.14014V27.43H22.8501V25.9Z" fill="#BFFB4F"/>
<path d="M21.3298 4.57H18.2798V6.1H21.3298V4.57Z" fill="#BFFB4F"/>
<path d="M18.28 3.05H13.71V4.57H18.28V3.05Z" fill="#BFFB4F"/>
<path d="M13.7102 4.57H10.6602V6.1H13.7102V4.57Z" fill="#BFFB4F"/>
<path d="M10.6601 6.1H9.14014V7.62H10.6601V6.1Z" fill="#BFFB4F"/>
<path d="M9.13984 24.38H6.08984V25.9H9.13984V24.38Z" fill="#BFFB4F"/>
<path d="M9.14012 21.33H7.62012V22.86H9.14012V21.33Z" fill="#BFFB4F"/>
<path d="M9.14012 7.62H7.62012V10.67H9.14012V7.62Z" fill="#BFFB4F"/>
<path d="M7.61984 10.67H6.08984V18.29H7.61984V10.67Z" fill="#BFFB4F"/>
<path d="M6.08982 27.43H4.56982V28.95H6.08982V27.43Z" fill="#BFFB4F"/>
<path d="M6.08982 22.86H4.56982V24.38H6.08982V22.86Z" fill="#BFFB4F"/>
<path d="M6.08982 18.29H4.56982V19.81H6.08982V18.29Z" fill="#BFFB4F"/>
<path d="M6.08982 3.05H4.56982V4.57H6.08982V3.05Z" fill="#BFFB4F"/>
<path d="M6.0898 0H3.0498V1.52H6.0898V0Z" fill="#BFFB4F"/>
<path d="M6.0898 30.48H3.0498V32H6.0898V30.48Z" fill="#BFFB4F"/>
<path d="M4.5698 25.9H3.0498V27.43H4.5698V25.9Z" fill="#BFFB4F"/>
<path d="M4.5698 19.81H3.0498V22.86H4.5698V19.81Z" fill="#BFFB4F"/>
<path d="M4.5698 4.57H3.0498V6.1H4.5698V4.57Z" fill="#BFFB4F"/>
<path d="M3.05002 28.95H1.52002V30.48H3.05002V28.95Z" fill="#BFFB4F"/>
<path d="M3.05002 1.52H1.52002V3.05H3.05002V1.52Z" fill="#BFFB4F"/>
<path d="M1.52 25.9H0V28.95H1.52V25.9Z" fill="#BFFB4F"/>
<path d="M1.52 3.05H0V6.1H1.52V3.05Z" fill="#BFFB4F"/>
</g>
<defs>
<clipPath id="clip0_1178_6017">
<rect width="32" height="32" fill="white"/>
</clipPath>
</defs>
</svg>
