<svg width="32" height="32" viewBox="0 0 32 32" fill="none" xmlns="http://www.w3.org/2000/svg">
<g clip-path="url(#clip0_1178_5646)">
<path d="M32.0002 12.19H30.4702V19.81H32.0002V12.19Z" fill="#BFFB4F"/>
<path d="M30.4702 19.81H28.9502V22.86H30.4702V19.81Z" fill="#BFFB4F"/>
<path d="M30.4702 9.14H28.9502V12.19H30.4702V9.14Z" fill="#BFFB4F"/>
<path d="M28.9502 22.86H27.4302V25.9H28.9502V22.86Z" fill="#BFFB4F"/>
<path d="M28.9502 6.1H27.4302V9.14H28.9502V6.1Z" fill="#BFFB4F"/>
<path d="M27.4299 25.9H25.8999V27.43H27.4299V25.9Z" fill="#BFFB4F"/>
<path d="M27.4299 4.57H25.8999V6.1H27.4299V4.57Z" fill="#BFFB4F"/>
<path d="M6.08982 24.38H7.61982V25.9H10.6598V24.38H12.1898V22.86H10.6598V21.33H9.13982V15.24H10.6598V13.71H21.3298V15.24H22.8498V21.33H21.3298V22.86H19.8098V24.38H21.3298V25.9H24.3798V24.38H25.8998V21.33H27.4298V13.71H25.8998V10.67H24.3798V9.14H22.8498V7.62H21.3298V6.1H10.6598V7.62H9.13982V9.14H7.61982V10.67H6.08982V13.71H4.56982V21.33H6.08982V24.38Z" fill="#BFFB4F"/>
<path d="M25.9001 27.43H22.8501V28.95H25.9001V27.43Z" fill="#BFFB4F"/>
<path d="M25.9001 3.05H22.8501V4.57H25.9001V3.05Z" fill="#BFFB4F"/>
<path d="M22.8501 28.95H19.8101V30.48H22.8501V28.95Z" fill="#BFFB4F"/>
<path d="M21.3301 16.76H19.8101V19.81H21.3301V16.76Z" fill="#BFFB4F"/>
<path d="M22.8501 1.52H19.8101V3.05H22.8501V1.52Z" fill="#BFFB4F"/>
<path d="M19.8099 30.48H12.1899V32H19.8099V30.48Z" fill="#BFFB4F"/>
<path d="M19.8099 24.38H12.1899V25.9H19.8099V24.38Z" fill="#BFFB4F"/>
<path d="M18.28 21.33H13.71V22.86H18.28V21.33Z" fill="#BFFB4F"/>
<path d="M19.8099 0H12.1899V1.52H19.8099V0Z" fill="#BFFB4F"/>
<path d="M12.1901 28.95H9.14014V30.48H12.1901V28.95Z" fill="#BFFB4F"/>
<path d="M12.1902 16.76H10.6602V19.81H12.1902V16.76Z" fill="#BFFB4F"/>
<path d="M12.1901 1.52H9.14014V3.05H12.1901V1.52Z" fill="#BFFB4F"/>
<path d="M9.13984 27.43H6.08984V28.95H9.13984V27.43Z" fill="#BFFB4F"/>
<path d="M9.13984 3.05H6.08984V4.57H9.13984V3.05Z" fill="#BFFB4F"/>
<path d="M6.08982 25.9H4.56982V27.43H6.08982V25.9Z" fill="#BFFB4F"/>
<path d="M6.08982 4.57H4.56982V6.1H6.08982V4.57Z" fill="#BFFB4F"/>
<path d="M4.5698 22.86H3.0498V25.9H4.5698V22.86Z" fill="#BFFB4F"/>
<path d="M4.5698 6.1H3.0498V9.14H4.5698V6.1Z" fill="#BFFB4F"/>
<path d="M3.05002 19.81H1.52002V22.86H3.05002V19.81Z" fill="#BFFB4F"/>
<path d="M3.05002 9.14H1.52002V12.19H3.05002V9.14Z" fill="#BFFB4F"/>
<path d="M1.52 12.19H0V19.81H1.52V12.19Z" fill="#BFFB4F"/>
</g>
<defs>
<clipPath id="clip0_1178_5646">
<rect width="32" height="32" fill="white"/>
</clipPath>
</defs>
</svg>
