<svg width="32" height="32" viewBox="0 0 32 32" fill="none" xmlns="http://www.w3.org/2000/svg">
<g clip-path="url(#clip0_1178_5169)">
<path d="M23.6198 20.57H22.0998V22.09H20.5698V23.62H17.5298V25.14H20.5698V26.66H22.0998V28.19H23.6198V29.71H25.1398V31.24H29.7198V29.71H31.2398V25.14H29.7198V23.62H28.1898V22.09H26.6698V20.57H25.1398V17.52H23.6198V20.57ZM25.1398 23.62H26.6698V25.14H28.1898V26.66H29.7198V28.19H28.1898V26.66H26.6698V25.14H25.1398V23.62Z" fill="#BFFB4F"/>
<path d="M26.6696 9.89999H25.1396V17.52H26.6696V9.89999Z" fill="#BFFB4F"/>
<path d="M25.1396 6.84999H23.6196V9.89999H25.1396V6.84999Z" fill="#BFFB4F"/>
<path d="M23.6196 5.32999H22.0996V6.84999H23.6196V5.32999Z" fill="#BFFB4F"/>
<path d="M22.0998 3.81H20.5698V5.33H22.0998V3.81Z" fill="#BFFB4F"/>
<path d="M20.5698 2.28H17.5298V3.81H20.5698V2.28Z" fill="#BFFB4F"/>
<path d="M5.33984 16H6.85984V17.52H8.37984V19.04H9.90984V20.57H12.9498V19.04H14.4798V17.52H15.9998V16H17.5298V14.47H19.0498V12.95H20.5698V11.43H22.0998V9.89999H20.5698V8.37999H19.0498V9.89999H17.5298V11.43H15.9998V12.95H14.4798V14.47H12.9498V16H9.90984V14.47H8.37984V12.95H6.85984V14.47H5.33984V16Z" fill="#BFFB4F"/>
<path d="M17.5297 25.14H9.90967V26.66H17.5297V25.14Z" fill="#BFFB4F"/>
<path d="M17.5297 0.759995H9.90967V2.27999H17.5297V0.759995Z" fill="#BFFB4F"/>
<path d="M9.90986 23.62H6.85986V25.14H9.90986V23.62Z" fill="#BFFB4F"/>
<path d="M9.90986 2.28H6.85986V3.81H9.90986V2.28Z" fill="#BFFB4F"/>
<path d="M6.85984 22.09H5.33984V23.62H6.85984V22.09Z" fill="#BFFB4F"/>
<path d="M6.85984 3.81H5.33984V5.33H6.85984V3.81Z" fill="#BFFB4F"/>
<path d="M5.33957 20.57H3.80957V22.09H5.33957V20.57Z" fill="#BFFB4F"/>
<path d="M5.33957 5.32999H3.80957V6.84999H5.33957V5.32999Z" fill="#BFFB4F"/>
<path d="M3.80955 17.52H2.28955V20.57H3.80955V17.52Z" fill="#BFFB4F"/>
<path d="M3.80955 6.84999H2.28955V9.89999H3.80955V6.84999Z" fill="#BFFB4F"/>
<path d="M2.28977 9.89999H0.759766V17.52H2.28977V9.89999Z" fill="#BFFB4F"/>
</g>
<defs>
<clipPath id="clip0_1178_5169">
<rect width="32" height="32" fill="white"/>
</clipPath>
</defs>
</svg>
