<svg width="32" height="32" viewBox="0 0 32 32" fill="none" xmlns="http://www.w3.org/2000/svg">
<g clip-path="url(#clip0_1178_4977)">
<path d="M30.4802 25.9H28.9502V27.43H32.0002V21.33H30.4802V25.9Z" fill="#BFFB4F"/>
<path d="M30.4802 19.81H28.9502V21.33H30.4802V19.81Z" fill="#BFFB4F"/>
<path d="M28.9502 24.38H27.4302V25.9H28.9502V24.38Z" fill="#BFFB4F"/>
<path d="M22.8598 22.86V27.43H24.3798V28.95H25.9098V30.48H21.3398V32H27.4298V27.43H25.9098V24.38H27.4298V22.86H22.8598Z" fill="#BFFB4F"/>
<path d="M21.3401 28.95H19.8101V30.48H21.3401V28.95Z" fill="#BFFB4F"/>
<path d="M21.3401 19.81H19.8101V21.33H21.3401V19.81Z" fill="#BFFB4F"/>
<path d="M19.81 22.86H18.29V28.95H19.81V22.86Z" fill="#BFFB4F"/>
<path d="M19.81 18.28H18.29V19.81H19.81V18.28Z" fill="#BFFB4F"/>
<path d="M18.2898 21.33H16.7598V22.86H18.2898V21.33Z" fill="#BFFB4F"/>
<path d="M18.2898 16.76H16.7598V18.28H18.2898V16.76Z" fill="#BFFB4F"/>
<path d="M16.7602 19.81H15.2402V21.33H16.7602V19.81Z" fill="#BFFB4F"/>
<path d="M16.7602 15.24H15.2402V16.76H16.7602V15.24Z" fill="#BFFB4F"/>
<path d="M15.2402 18.28H13.7202V19.81H15.2402V18.28Z" fill="#BFFB4F"/>
<path d="M15.2402 13.71H13.7202V15.24H15.2402V13.71Z" fill="#BFFB4F"/>
<path d="M13.7199 16.76H12.1899V18.28H13.7199V16.76Z" fill="#BFFB4F"/>
<path d="M13.7199 12.19H12.1899V13.71H13.7199V12.19Z" fill="#BFFB4F"/>
<path d="M12.1899 15.24H10.6699V16.76H12.1899V15.24Z" fill="#BFFB4F"/>
<path d="M12.1899 10.67H10.6699V12.19H12.1899V10.67Z" fill="#BFFB4F"/>
<path d="M10.6699 13.71H9.1499V15.24H10.6699V13.71Z" fill="#BFFB4F"/>
<path d="M9.1498 12.19H3.0498V13.71H9.1498V12.19Z" fill="#BFFB4F"/>
<path d="M7.6201 3.05H6.1001V4.57H7.6201V3.05Z" fill="#BFFB4F"/>
<path d="M10.6698 1.52V3.05H12.1898V9.14H13.7198V10.67H15.2398V12.19H16.7598V13.71H18.2898V15.24H19.8098V16.76H21.3398V18.28H22.8598V19.81H28.9498V18.28H24.3798V16.76H22.8598V15.24H21.3398V13.71H19.8098V12.19H18.2898V10.67H16.7598V9.14H15.2398V3.05H13.7198V1.52H12.1898V0H4.56982V3.05H6.09982V1.52H10.6698Z" fill="#BFFB4F"/>
<path d="M3.04979 10.67H1.52979V12.19H3.04979V10.67Z" fill="#BFFB4F"/>
<path d="M1.53 6.09001H3.05V7.62001H4.57V9.14001H9.15V4.57001H7.62V7.62001H6.1V6.09001H4.57V4.57001H0V10.67H1.53V6.09001Z" fill="#BFFB4F"/>
</g>
<defs>
<clipPath id="clip0_1178_4977">
<rect width="32" height="32" fill="white"/>
</clipPath>
</defs>
</svg>
