<svg width="32" height="32" viewBox="0 0 32 32" fill="none" xmlns="http://www.w3.org/2000/svg">
<g clip-path="url(#clip0_1178_7625)">
<path d="M32 19.05H30.48V26.67H32V19.05Z" fill="#BFFB4F"/>
<path d="M30.4802 26.67H28.9502V28.19H30.4802V26.67Z" fill="#BFFB4F"/>
<path d="M30.4802 17.52H28.9502V19.05H30.4802V17.52Z" fill="#BFFB4F"/>
<path d="M28.9502 28.19H27.4302V31.24H28.9502V28.19Z" fill="#BFFB4F"/>
<path d="M28.9501 12.95H27.4301V11.43H22.8601V12.95H21.3401V8.38H19.8101V16H27.4301V17.52H28.9501V12.95Z" fill="#BFFB4F"/>
<path d="M25.9099 17.52H24.3799V22.1H25.9099V17.52Z" fill="#BFFB4F"/>
<path d="M27.4298 8.38001V6.86001H28.9498V2.29001H27.4298V0.76001H22.8598V2.29001H21.3398V6.86001H22.8598V8.38001H27.4298Z" fill="#BFFB4F"/>
<path d="M21.3401 17.52H19.8101V22.1H21.3401V17.52Z" fill="#BFFB4F"/>
<path d="M19.8098 6.86002H16.7598V8.38002H19.8098V6.86002Z" fill="#BFFB4F"/>
<path d="M16.7602 26.67H15.2402V31.24H16.7602V26.67Z" fill="#BFFB4F"/>
<path d="M15.2399 11.43H12.1899V12.95H10.6699V23.62H12.1899V17.52H15.2399V20.57H16.7599V8.38H15.2399V11.43Z" fill="#BFFB4F"/>
<path d="M15.2402 25.14H13.7202V26.67H15.2402V25.14Z" fill="#BFFB4F"/>
<path d="M13.7199 23.62H12.1899V25.14H13.7199V23.62Z" fill="#BFFB4F"/>
<path d="M13.7199 8.38001V6.86001H15.2399V5.33001H18.2899V2.29001H16.7599V0.76001H12.1899V2.29001H10.6699V6.86001H12.1899V8.38001H13.7199Z" fill="#BFFB4F"/>
<path d="M1.53 29.72H6.1V28.19H7.62V23.62H6.1V22.1H1.53V23.62H0V28.19H1.53V29.72Z" fill="#BFFB4F"/>
<path d="M1.53 19.05H6.1V17.52H7.62V12.95H6.1V11.43H1.53V12.95H0V17.52H1.53V19.05Z" fill="#BFFB4F"/>
<path d="M1.53 8.38001H6.1V6.86001H7.62V2.29001H6.1V0.76001H1.53V2.29001H0V6.86001H1.53V8.38001Z" fill="#BFFB4F"/>
</g>
<defs>
<clipPath id="clip0_1178_7625">
<rect width="32" height="32" fill="white"/>
</clipPath>
</defs>
</svg>
