<svg width="32" height="32" viewBox="0 0 32 32" fill="none" xmlns="http://www.w3.org/2000/svg">
<g clip-path="url(#clip0_1178_7290)">
<path d="M3.0498 32H28.9498V7.62H27.4298V6.1H25.9098V4.57H24.3798V3.05H22.8598V1.52H21.3298V0H3.0498V32ZM4.5698 1.52H19.8098V9.14H27.4298V30.48H4.5698V1.52Z" fill="#BFFB4F"/>
<path d="M7.61963 19.81V21.33H18.2896V24.38H19.8096V21.33H22.8596V24.38H24.3796V19.81H7.61963Z" fill="#BFFB4F"/>
<path d="M22.8596 12.19H21.3296V13.71H19.8096V15.24H21.3296V16.76H22.8596V15.24H24.3796V13.71H22.8596V12.19Z" fill="#BFFB4F"/>
<path d="M22.8596 24.38H19.8096V25.9H22.8596V24.38Z" fill="#BFFB4F"/>
<path d="M9.13963 16.76H10.6696V15.24H12.1896V13.71H10.6696V12.19H9.13963V13.71H7.61963V15.24H9.13963V16.76Z" fill="#BFFB4F"/>
</g>
<defs>
<clipPath id="clip0_1178_7290">
<rect width="32" height="32" fill="white"/>
</clipPath>
</defs>
</svg>
