<svg width="32" height="32" viewBox="0 0 32 32" fill="none" xmlns="http://www.w3.org/2000/svg">
<g clip-path="url(#clip0_1178_5514)">
<path d="M32 3.05H30.48V28.95H32V3.05Z" fill="#BFFB4F"/>
<path d="M30.4802 28.95H28.9502V30.48H30.4802V28.95Z" fill="#BFFB4F"/>
<path d="M30.4802 1.52H28.9502V3.05H30.4802V1.52Z" fill="#BFFB4F"/>
<path d="M28.9498 30.48H3.0498V32H28.9498V30.48Z" fill="#BFFB4F"/>
<path d="M27.4299 24.38H25.9099V25.9H24.3799V27.43H25.9099V28.95H27.4299V27.43H28.9499V25.9H27.4299V24.38Z" fill="#BFFB4F"/>
<path d="M27.4299 3.05H25.9099V4.57H24.3799V6.09H25.9099V7.62H27.4299V6.09H28.9499V4.57H27.4299V3.05Z" fill="#BFFB4F"/>
<path d="M21.3399 6.09H19.8099V4.57H12.1899V6.09H10.6699V7.62H9.1499V12.19H12.1899V9.14H13.7199V7.62H16.7599V9.14H18.2899V12.19H16.7599V13.71H15.2399V15.24H13.7199V18.28H18.2899V16.76H19.8099V15.24H21.3399V13.71H22.8599V7.62H21.3399V6.09Z" fill="#BFFB4F"/>
<path d="M18.2899 19.81H13.7199V21.33H12.1899V25.9H13.7199V27.43H18.2899V25.9H19.8099V21.33H18.2899V19.81Z" fill="#BFFB4F"/>
<path d="M6.0998 24.38H4.5698V25.9H3.0498V27.43H4.5698V28.95H6.0998V27.43H7.6198V25.9H6.0998V24.38Z" fill="#BFFB4F"/>
<path d="M6.0998 3.05H4.5698V4.57H3.0498V6.09H4.5698V7.62H6.0998V6.09H7.6198V4.57H6.0998V3.05Z" fill="#BFFB4F"/>
<path d="M28.9498 0H3.0498V1.52H28.9498V0Z" fill="#BFFB4F"/>
<path d="M3.04979 28.95H1.52979V30.48H3.04979V28.95Z" fill="#BFFB4F"/>
<path d="M3.04979 1.52H1.52979V3.05H3.04979V1.52Z" fill="#BFFB4F"/>
<path d="M1.53 3.05H0V28.95H1.53V3.05Z" fill="#BFFB4F"/>
</g>
<defs>
<clipPath id="clip0_1178_5514">
<rect width="32" height="32" fill="white"/>
</clipPath>
</defs>
</svg>
