<svg width="32" height="32" viewBox="0 0 32 32" fill="none" xmlns="http://www.w3.org/2000/svg">
<g clip-path="url(#clip0_1178_8398)">
<path d="M29.7153 7.62H28.1953V13.71H29.7153V7.62Z" fill="#BFFB4F"/>
<path d="M28.1953 13.71H26.6753V15.24H28.1953V13.71Z" fill="#BFFB4F"/>
<path d="M28.1953 6.09998H26.6753V7.61998H28.1953V6.09998Z" fill="#BFFB4F"/>
<path d="M25.145 19.81H28.195V21.33H25.145V25.91H28.195V27.43H25.145V30.48H26.675V28.95H29.715V24.38H26.675V22.86H29.715V18.29H26.675V15.24H25.145V19.81Z" fill="#BFFB4F"/>
<path d="M25.1452 30.48H22.0952V32H25.1452V30.48Z" fill="#BFFB4F"/>
<path d="M20.5752 4.56999V6.09999H23.6252V7.61999H20.5752V12.19H26.6752V7.61999H25.1452V6.09999H26.6752V4.56999H25.1452V3.04999H23.6252V4.56999H20.5752ZM23.6252 10.67H22.1002V9.13999H23.6302L23.6252 10.67Z" fill="#BFFB4F"/>
<path d="M23.6252 1.52002H22.0952V3.05002H23.6252V1.52002Z" fill="#BFFB4F"/>
<path d="M22.0952 15.24H20.5752V13.71H19.0552V16.76H20.5752V30.48H22.0952V15.24Z" fill="#BFFB4F"/>
<path d="M20.5752 6.09998H19.0552V7.61998H20.5752V6.09998Z" fill="#BFFB4F"/>
<path d="M16.0054 9.14V12.19H17.5254V13.71H19.0554V7.62H17.5254V9.14H16.0054Z" fill="#BFFB4F"/>
<path d="M19.0551 16.76H14.4751V18.29H19.0551V16.76Z" fill="#BFFB4F"/>
<path d="M17.5251 6.09998H14.4751V7.61998H17.5251V6.09998Z" fill="#BFFB4F"/>
<path d="M22.0951 0H14.4751V1.52H22.0951V0Z" fill="#BFFB4F"/>
<path d="M16.0051 22.86H14.4751V24.38H16.0051V22.86Z" fill="#BFFB4F"/>
<path d="M14.4751 24.38H12.9551V25.91H14.4751V24.38Z" fill="#BFFB4F"/>
<path d="M14.4751 21.33H12.9551V22.86H14.4751V21.33Z" fill="#BFFB4F"/>
<path d="M14.4751 18.29H12.9551V19.81H14.4751V18.29Z" fill="#BFFB4F"/>
<path d="M14.4751 7.62H12.9551V9.14H14.4751V7.62Z" fill="#BFFB4F"/>
<path d="M14.4751 1.52002H12.9551V3.05002H14.4751V1.52002Z" fill="#BFFB4F"/>
<path d="M12.9551 25.91H11.4351V27.43H12.9551V25.91Z" fill="#BFFB4F"/>
<path d="M12.9551 19.81H11.4351V21.33H12.9551V19.81Z" fill="#BFFB4F"/>
<path d="M12.9551 9.14001H11.4351V15.24H12.9551V9.14001Z" fill="#BFFB4F"/>
<path d="M12.9551 3.04999H11.4351V7.61999H12.9551V3.04999Z" fill="#BFFB4F"/>
<path d="M11.4353 24.38H9.90527V25.91H11.4353V24.38Z" fill="#BFFB4F"/>
<path d="M11.4353 15.24H9.90527V16.76H11.4353V15.24Z" fill="#BFFB4F"/>
<path d="M9.90525 22.86H8.38525V24.38H9.90525V22.86Z" fill="#BFFB4F"/>
<path d="M9.90525 16.76H8.38525V18.29H9.90525V16.76Z" fill="#BFFB4F"/>
<path d="M8.38523 24.38H6.86523V25.91H8.38523V24.38Z" fill="#BFFB4F"/>
<path d="M8.38523 18.29H6.86523V19.81H8.38523V18.29Z" fill="#BFFB4F"/>
<path d="M6.86496 25.91H5.33496V27.43H6.86496V25.91Z" fill="#BFFB4F"/>
<path d="M6.86496 19.81H5.33496V21.33H6.86496V19.81Z" fill="#BFFB4F"/>
<path d="M5.33494 24.38H3.81494V25.91H5.33494V24.38Z" fill="#BFFB4F"/>
<path d="M5.33494 21.33H3.81494V22.86H5.33494V21.33Z" fill="#BFFB4F"/>
<path d="M3.81516 22.86H2.28516V24.38H3.81516V22.86Z" fill="#BFFB4F"/>
</g>
<defs>
<clipPath id="clip0_1178_8398">
<rect width="32" height="32" fill="white"/>
</clipPath>
</defs>
</svg>
