<svg width="32" height="32" viewBox="0 0 32 32" fill="none" xmlns="http://www.w3.org/2000/svg">
<g clip-path="url(#clip0_1178_4538)">
<path d="M23.6152 8.38001V11.43H25.1452V8.38001H26.6652V6.85001H28.1852V5.33001H31.2352V2.28001H29.7152V0.76001H26.6652V3.81001H25.1452V5.33001H23.6152V6.85001H20.5752V8.38001H23.6152Z" fill="#BFFB4F"/>
<path d="M28.185 14.47H26.665V20.57H28.185V14.47Z" fill="#BFFB4F"/>
<path d="M26.665 20.57H25.145V22.09H26.665V20.57Z" fill="#BFFB4F"/>
<path d="M26.665 11.43H25.145V14.47H26.665V11.43Z" fill="#BFFB4F"/>
<path d="M23.6152 23.62H22.0952V28.19H23.6152V26.66H25.1452V28.19H26.6652V31.24H29.7152V29.71H31.2352V26.66H28.1852V25.14H26.6652V23.62H25.1452V22.09H23.6152V23.62Z" fill="#BFFB4F"/>
<path d="M19.0449 17.52H22.0949V16H23.6149V12.95H22.0949V11.43H19.0449V12.95H17.5249V16H19.0449V17.52Z" fill="#BFFB4F"/>
<path d="M19.0453 25.14H17.5253V28.19H14.4753V25.14H12.9553V28.19H9.90527V29.71H22.0953V28.19H19.0453V25.14Z" fill="#BFFB4F"/>
<path d="M17.5251 19.04H14.4751V20.57H17.5251V19.04Z" fill="#BFFB4F"/>
<path d="M9.90525 17.52H12.9553V16H14.4753V12.95H12.9553V11.43H9.90525V12.95H8.38525V16H9.90525V17.52Z" fill="#BFFB4F"/>
<path d="M20.5753 5.33002H11.4253V6.85002H20.5753V5.33002Z" fill="#BFFB4F"/>
<path d="M5.33514 23.62V25.14H3.80514V26.66H0.765137V29.71H2.28514V31.24H5.33514V28.19H6.85514V26.66H8.38514V28.19H9.90514V23.62H8.38514V22.09H6.85514V23.62H5.33514Z" fill="#BFFB4F"/>
<path d="M8.38514 8.38001H11.4251V6.85001H8.38514V5.33001H6.85514V3.81001H5.33514V0.76001H2.28514V2.28001H0.765137V5.33001H3.80514V6.85001H5.33514V8.38001H6.85514V11.43H8.38514V8.38001Z" fill="#BFFB4F"/>
<path d="M6.85496 20.57H5.33496V22.09H6.85496V20.57Z" fill="#BFFB4F"/>
<path d="M6.85496 11.43H5.33496V14.47H6.85496V11.43Z" fill="#BFFB4F"/>
<path d="M5.33518 14.47H3.80518V20.57H5.33518V14.47Z" fill="#BFFB4F"/>
</g>
<defs>
<clipPath id="clip0_1178_4538">
<rect width="32" height="32" fill="white"/>
</clipPath>
</defs>
</svg>
