<svg width="32" height="32" viewBox="0 0 32 32" fill="none" xmlns="http://www.w3.org/2000/svg">
<g clip-path="url(#clip0_1178_13305)">
<path d="M32.0002 16.005H30.4702V22.095H32.0002V16.005Z" fill="#BFFB4F"/>
<path d="M30.4702 22.095H28.9502V23.625H30.4702V22.095Z" fill="#BFFB4F"/>
<path d="M30.4702 14.475H28.9502V16.005H30.4702V14.475Z" fill="#BFFB4F"/>
<path d="M28.9502 23.625H27.4302V25.145H28.9502V23.625Z" fill="#BFFB4F"/>
<path d="M28.9502 12.955H27.4302V14.475H28.9502V12.955Z" fill="#BFFB4F"/>
<path d="M27.4298 25.145H3.0498V26.665H27.4298V25.145Z" fill="#BFFB4F"/>
<path d="M27.4299 11.435H24.3799V12.955H27.4299V11.435Z" fill="#BFFB4F"/>
<path d="M24.3801 9.905H22.8501V11.435H24.3801V9.905Z" fill="#BFFB4F"/>
<path d="M22.8501 17.525H21.3301V19.045H22.8501V17.525Z" fill="#BFFB4F"/>
<path d="M22.8501 14.475H21.3301V16.005H22.8501V14.475Z" fill="#BFFB4F"/>
<path d="M22.8501 8.38501H21.3301V9.90501H22.8501V8.38501Z" fill="#BFFB4F"/>
<path d="M21.3301 16.005H19.8101V17.525H21.3301V16.005Z" fill="#BFFB4F"/>
<path d="M19.8098 17.525H18.2798V19.045H19.8098V17.525Z" fill="#BFFB4F"/>
<path d="M19.8098 14.475H18.2798V16.005H19.8098V14.475Z" fill="#BFFB4F"/>
<path d="M21.3298 6.85501H18.2798V8.38501H21.3298V6.85501Z" fill="#BFFB4F"/>
<path d="M13.71 22.095H16.76V23.625H19.81V20.575H13.71V22.095Z" fill="#BFFB4F"/>
<path d="M18.28 5.33501H13.71V6.85501H18.28V5.33501Z" fill="#BFFB4F"/>
<path d="M13.7099 17.525H12.1899V19.045H13.7099V17.525Z" fill="#BFFB4F"/>
<path d="M13.7099 14.475H12.1899V16.005H13.7099V14.475Z" fill="#BFFB4F"/>
<path d="M13.7102 6.85501H10.6602V8.38501H13.7102V6.85501Z" fill="#BFFB4F"/>
<path d="M12.1902 16.005H10.6602V17.525H12.1902V16.005Z" fill="#BFFB4F"/>
<path d="M10.6601 17.525H9.14014V19.045H10.6601V17.525Z" fill="#BFFB4F"/>
<path d="M10.6601 14.475H9.14014V16.005H10.6601V14.475Z" fill="#BFFB4F"/>
<path d="M10.6601 8.38501H9.14014V9.90501H10.6601V8.38501Z" fill="#BFFB4F"/>
<path d="M9.14012 9.905H7.62012V12.955H9.14012V9.905Z" fill="#BFFB4F"/>
<path d="M7.6198 12.955H3.0498V14.475H7.6198V12.955Z" fill="#BFFB4F"/>
<path d="M3.05002 23.625H1.52002V25.145H3.05002V23.625Z" fill="#BFFB4F"/>
<path d="M3.05002 14.475H1.52002V16.005H3.05002V14.475Z" fill="#BFFB4F"/>
<path d="M1.52 16.005H0V23.625H1.52V16.005Z" fill="#BFFB4F"/>
</g>
<defs>
<clipPath id="clip0_1178_13305">
<rect width="32" height="32" fill="white"/>
</clipPath>
</defs>
</svg>
