<svg width="32" height="32" viewBox="0 0 32 32" fill="none" xmlns="http://www.w3.org/2000/svg">
<g clip-path="url(#clip0_1128_13599)">
<path d="M27.4299 16.76H28.9499V30.47H30.4699V16.76H31.9999V15.24H27.4299V16.76Z" fill="#000001"/>
<path d="M30.4699 1.52H28.95V6.09H30.4699V1.52Z" fill="#000001"/>
<path d="M30.4699 9.14H28.95V13.71H30.4699V9.14Z" fill="#000001"/>
<path d="M28.9501 30.47H3.05005V32H28.9501V30.47Z" fill="#000001"/>
<path d="M28.9499 0H24.3799V1.52H28.9499V0Z" fill="#000001"/>
<path d="M25.9001 15.24H22.8501V16.76H25.9001V15.24Z" fill="#000001"/>
<path d="M21.3299 19.81V9.14H10.6599V10.66H12.1899V12.19H13.7099V13.71H12.1899V15.24H10.6599V19.81H12.1899V22.85H13.7099V24.38H19.8099V22.85H16.7599V21.33H15.2399V18.28H16.7599V16.76H18.2799V18.28H19.8099V19.81H21.3299Z" fill="#000001"/>
<path d="M21.33 0H16.76V1.52H21.33V0Z" fill="#000001"/>
<path d="M15.2399 0H10.6599V1.52H15.2399V0Z" fill="#000001"/>
<path d="M9.14009 15.24H6.09009V16.76H9.14009V15.24Z" fill="#000001"/>
<path d="M7.62005 0H3.05005V1.52H7.62005V0Z" fill="#000001"/>
<path d="M3.05002 1.52H1.52002V6.09H3.05002V1.52Z" fill="#000001"/>
<path d="M3.05002 9.14H1.52002V13.71H3.05002V9.14Z" fill="#000001"/>
<path d="M4.57 16.76V15.24H0V16.76H1.52V30.47H3.05V16.76H4.57Z" fill="#000001"/>
</g>
<defs>
<clipPath id="clip0_1128_13599">
<rect width="32" height="32" fill="white"/>
</clipPath>
</defs>
</svg>
