<svg width="32" height="32" viewBox="0 0 32 32" fill="none" xmlns="http://www.w3.org/2000/svg">
<g clip-path="url(#clip0_1178_17715)">
<path d="M32.0002 6.10001H30.4702V7.62001H32.0002V6.10001Z" fill="#BFFB4F"/>
<path d="M28.9502 15.24V16.76H27.4302V18.29H28.9502V19.81H27.4302V21.33H28.9502V22.86H27.4302V24.38H30.4702V12.19H28.9502V13.71H27.4302V15.24H28.9502Z" fill="#BFFB4F"/>
<path d="M30.4699 4.57001H25.8999V6.10001H30.4699V4.57001Z" fill="#BFFB4F"/>
<path d="M25.8999 7.62V9.14H27.4299V10.67H28.9499V9.14H30.4699V7.62H25.8999Z" fill="#BFFB4F"/>
<path d="M30.4699 3.05V1.52H28.9499V0H27.4299V1.52H25.8999V3.05H30.4699Z" fill="#BFFB4F"/>
<path d="M27.4299 12.19H24.3799V13.71H27.4299V12.19Z" fill="#BFFB4F"/>
<path d="M10.6598 15.24H13.7098V16.76H15.2398V18.29H18.2798V19.81H15.2398V21.33H18.2798V22.86H15.2398V24.38H18.2798V25.91H15.2398V27.43H18.2798V28.95H21.3298V27.43H24.3798V25.91H27.4298V24.38H24.3798V22.86H27.4298V21.33H24.3798V19.81H27.4298V18.29H24.3798V16.76H27.4298V15.24H24.3798V13.71H21.3298V12.19H18.2798V10.67H15.2398V9.14H12.1898V10.67H9.13984V12.19H6.08984V13.71H10.6598V15.24Z" fill="#BFFB4F"/>
<path d="M25.8999 3.05H24.3799V4.57H25.8999V3.05Z" fill="#BFFB4F"/>
<path d="M24.3801 7.62H21.3301V9.14H24.3801V7.62Z" fill="#BFFB4F"/>
<path d="M21.3298 6.10001H18.2798V7.62001H21.3298V6.10001Z" fill="#BFFB4F"/>
<path d="M18.2802 7.62H15.2402V9.14H18.2802V7.62Z" fill="#BFFB4F"/>
<path d="M18.2802 28.95H15.2402V30.48H18.2802V28.95Z" fill="#BFFB4F"/>
<path d="M15.24 4.57001H13.71V6.10001H15.24V4.57001Z" fill="#BFFB4F"/>
<path d="M13.7101 28.95H15.2401V27.43H13.7101V25.91H15.2401V24.38H13.7101V22.86H15.2401V21.33H13.7101V19.81H15.2401V18.29H12.1901V19.81H9.14014V21.33H12.1901V22.86H9.14014V24.38H12.1901V25.91H9.14014V27.43H12.1901V28.95H9.14014V30.48H12.1901V32H15.2401V30.48H13.7101V28.95Z" fill="#BFFB4F"/>
<path d="M13.7102 0H10.6602V1.52H13.7102V0Z" fill="#BFFB4F"/>
<path d="M13.7102 6.10001H10.6602V7.62001H13.7102V6.10001Z" fill="#BFFB4F"/>
<path d="M13.7102 3.05H10.6602V4.57H13.7102V3.05Z" fill="#BFFB4F"/>
<path d="M10.6601 1.52H9.14014V3.05H10.6601V1.52Z" fill="#BFFB4F"/>
<path d="M9.13984 27.43H6.08984V28.95H9.13984V27.43Z" fill="#BFFB4F"/>
<path d="M9.13984 18.29H6.08984V19.81H9.13984V18.29Z" fill="#BFFB4F"/>
<path d="M9.13984 24.38H6.08984V25.91H9.13984V24.38Z" fill="#BFFB4F"/>
<path d="M9.13984 21.33H6.08984V22.86H9.13984V21.33Z" fill="#BFFB4F"/>
<path d="M7.61984 6.10001H6.08984V7.62001H7.61984V6.10001Z" fill="#BFFB4F"/>
<path d="M6.09004 25.91H3.04004V27.43H6.09004V25.91Z" fill="#BFFB4F"/>
<path d="M6.09004 22.86H3.04004V24.38H6.09004V22.86Z" fill="#BFFB4F"/>
<path d="M6.09004 19.81H3.04004V21.33H6.09004V19.81Z" fill="#BFFB4F"/>
<path d="M6.09004 16.76H3.04004V18.29H6.09004V16.76Z" fill="#BFFB4F"/>
<path d="M6.09004 13.71H3.04004V15.24H6.09004V13.71Z" fill="#BFFB4F"/>
<path d="M1.52002 7.62V9.14H3.04002V10.67H4.57002V9.14H6.09002V7.62H1.52002Z" fill="#BFFB4F"/>
<path d="M6.09002 3.05V1.52H4.57002V0H3.04002V1.52H1.52002V3.05H6.09002Z" fill="#BFFB4F"/>
<path d="M3.04 24.38H1.52V22.86H3.04V21.33H1.52V19.81H3.04V18.29H1.52V16.76H3.04V15.24H0V25.91H3.04V24.38Z" fill="#BFFB4F"/>
<path d="M6.09002 4.57001H1.52002V6.10001H6.09002V4.57001Z" fill="#BFFB4F"/>
<path d="M1.52 3.05H0V4.57H1.52V3.05Z" fill="#BFFB4F"/>
</g>
<defs>
<clipPath id="clip0_1178_17715">
<rect width="32" height="32" fill="white"/>
</clipPath>
</defs>
</svg>
