<svg width="32" height="32" viewBox="0 0 32 32" fill="none" xmlns="http://www.w3.org/2000/svg">
<path d="M30.4749 1.52502H1.5249V30.475H30.4749V1.52502ZM28.9549 28.955H12.1999V3.04502H28.9599L28.9549 28.955Z" fill="#BFFB4F"/>
<path d="M27.4348 25.905H25.9048V27.435H27.4348V25.905Z" fill="#BFFB4F"/>
<path d="M27.4348 16.765H25.9048V22.855H27.4348V16.765Z" fill="#BFFB4F"/>
<path d="M27.4348 4.57507H25.9048V6.09507H27.4348V4.57507Z" fill="#BFFB4F"/>
<path d="M25.9048 22.855H24.3848V24.385H25.9048V22.855Z" fill="#BFFB4F"/>
<path d="M25.9048 15.235H24.3848V16.765H25.9048V15.235Z" fill="#BFFB4F"/>
<path d="M24.385 18.285H22.855V21.335H24.385V18.285Z" fill="#BFFB4F"/>
<path d="M24.385 7.625H22.855V10.665H24.385V7.625Z" fill="#BFFB4F"/>
<path d="M24.3847 24.385H18.2847V25.905H24.3847V24.385Z" fill="#BFFB4F"/>
<path d="M22.8549 16.765H19.8149V18.285H22.8549V16.765Z" fill="#BFFB4F"/>
<path d="M22.8549 6.09497H19.8149V7.62497H22.8549V6.09497Z" fill="#BFFB4F"/>
<path d="M22.8549 21.3351H19.8149V22.8551H22.8549V21.3351Z" fill="#BFFB4F"/>
<path d="M24.3847 13.715H18.2847V15.235H24.3847V13.715Z" fill="#BFFB4F"/>
<path d="M22.8549 10.665H19.8149V12.195H22.8549V10.665Z" fill="#BFFB4F"/>
<path d="M19.8147 18.285H18.2847V21.335H19.8147V18.285Z" fill="#BFFB4F"/>
<path d="M19.8147 7.625H18.2847V10.665H19.8147V7.625Z" fill="#BFFB4F"/>
<path d="M18.2851 22.855H16.7651V24.385H18.2851V22.855Z" fill="#BFFB4F"/>
<path d="M18.2851 15.235H16.7651V16.765H18.2851V15.235Z" fill="#BFFB4F"/>
<path d="M16.7651 16.765H15.2451V22.855H16.7651V16.765Z" fill="#BFFB4F"/>
<path d="M15.2448 25.905H13.7148V27.435H15.2448V25.905Z" fill="#BFFB4F"/>
<path d="M15.2448 4.57507H13.7148V6.09507H15.2448V4.57507Z" fill="#BFFB4F"/>
</svg>
