<svg width="32" height="32" viewBox="0 0 32 32" fill="none" xmlns="http://www.w3.org/2000/svg">
<path d="M32 14.4749H30.48V20.5649H32V14.4749Z" fill="#000001"/>
<path d="M32 3.80493H30.48V9.90493H32V3.80493Z" fill="#000001"/>
<path d="M30.4799 20.5649H28.95V23.6149H30.4799V20.5649Z" fill="#000001"/>
<path d="M30.4799 9.90503H28.95V14.475H30.4799V9.90503Z" fill="#000001"/>
<path d="M28.9501 23.615H27.4301V25.135H28.9501V23.615Z" fill="#000001"/>
<path d="M28.9501 8.375H27.4301V9.905H28.9501V8.375Z" fill="#000001"/>
<path d="M27.43 25.135H25.91V26.665H27.43V25.135Z" fill="#000001"/>
<path d="M27.43 6.85498H25.91V8.37498H27.43V6.85498Z" fill="#000001"/>
<path d="M30.48 2.28491H22.86V3.80491H30.48V2.28491Z" fill="#000001"/>
<path d="M25.91 26.6648H21.34V28.1848H25.91V26.6648Z" fill="#000001"/>
<path d="M22.86 3.80493H21.34V5.32493H22.86V3.80493Z" fill="#000001"/>
<path d="M21.34 16H10.67V17.52H9.15002V22.1H10.67V23.62H21.34V22.1H22.86V17.52H21.34V16ZM15.24 22.1H12.19V19.05H15.24V22.1ZM19.81 22.1H16.76V19.05H19.81V22.1Z" fill="#000001"/>
<path d="M21.34 28.1848H10.67V29.7148H21.34V28.1848Z" fill="#000001"/>
<path d="M19.81 12.9448H18.29V14.4748H19.81V12.9448Z" fill="#000001"/>
<path d="M13.7199 12.9448H12.1899V14.4748H13.7199V12.9448Z" fill="#000001"/>
<path d="M21.34 2.28491H10.67V3.80491H21.34V2.28491Z" fill="#000001"/>
<path d="M10.67 26.6648H6.09998V28.1848H10.67V26.6648Z" fill="#000001"/>
<path d="M10.67 3.80493H9.15002V5.32493H10.67V3.80493Z" fill="#000001"/>
<path d="M6.09995 25.135H4.56995V26.665H6.09995V25.135Z" fill="#000001"/>
<path d="M6.09995 6.85498H4.56995V8.37498H6.09995V6.85498Z" fill="#000001"/>
<path d="M4.57005 23.615H3.05005V25.135H4.57005V23.615Z" fill="#000001"/>
<path d="M4.57005 8.375H3.05005V9.905H4.57005V8.375Z" fill="#000001"/>
<path d="M9.15003 2.28491H1.53003V3.80491H9.15003V2.28491Z" fill="#000001"/>
<path d="M3.05003 20.5649H1.53003V23.6149H3.05003V20.5649Z" fill="#000001"/>
<path d="M3.05003 9.90503H1.53003V14.475H3.05003V9.90503Z" fill="#000001"/>
<path d="M1.53 14.4749H0V20.5649H1.53V14.4749Z" fill="#000001"/>
<path d="M1.53 3.80493H0V9.90493H1.53V3.80493Z" fill="#000001"/>
</svg>
