<svg width="32" height="32" viewBox="0 0 32 32" fill="none" xmlns="http://www.w3.org/2000/svg">
<g clip-path="url(#clip0_1135_3198)">
<path d="M32 18.28H30.47V27.42H32V18.28Z" fill="#000001"/>
<path d="M27.4199 18.2799H30.4699V16.7599H27.4199V10.6599H25.8999V30.4699H27.4199V28.9499H30.4699V27.4199H27.4199V18.2799Z" fill="#000001"/>
<path d="M25.8999 7.61011H24.3799V10.6601H25.8999V7.61011Z" fill="#000001"/>
<path d="M25.9001 30.47H6.09009V32H25.9001V30.47Z" fill="#000001"/>
<path d="M24.3801 19.8101H22.8501V27.4201H24.3801V19.8101Z" fill="#000001"/>
<path d="M24.3801 6.09009H21.3301V7.61009H24.3801V6.09009Z" fill="#000001"/>
<path d="M22.8499 27.4199H9.13989V28.9499H22.8499V27.4199Z" fill="#000001"/>
<path d="M10.6599 21.3301V22.8501H12.1899V25.9001H13.7099V22.8501H21.3299V21.3301H10.6599Z" fill="#000001"/>
<path d="M18.28 0H13.71V1.52H18.28V0Z" fill="#000001"/>
<path d="M13.7099 13.7099H15.2299V15.2299H16.7599V13.7099H18.2799V12.1899H19.7999V10.6599H18.2799V9.13989H16.7599V10.6599H15.2299V9.13989H13.7099V10.6599H12.1899V12.1899H13.7099V13.7099Z" fill="#000001"/>
<path d="M21.3299 6.09002V4.57002H19.7999V1.52002H18.2799V4.57002H13.7099V1.52002H12.1899V4.57002H10.6599V6.09002H21.3299Z" fill="#000001"/>
<path d="M22.8499 18.28H9.13989V19.81H22.8499V18.28Z" fill="#000001"/>
<path d="M10.6601 6.09009H7.61011V7.61009H10.6601V6.09009Z" fill="#000001"/>
<path d="M9.14011 19.8101H7.61011V27.4201H9.14011V19.8101Z" fill="#000001"/>
<path d="M7.61009 7.61011H6.09009V10.6601H7.61009V7.61011Z" fill="#000001"/>
<path d="M6.09002 10.6599H4.57002V16.7599H1.52002V18.2799H4.57002V27.4199H1.52002V28.9499H4.57002V30.4699H6.09002V10.6599Z" fill="#000001"/>
<path d="M1.52 18.28H0V27.42H1.52V18.28Z" fill="#000001"/>
</g>
<defs>
<clipPath id="clip0_1135_3198">
<rect width="32" height="32" fill="white"/>
</clipPath>
</defs>
</svg>
