<svg width="32" height="32" viewBox="0 0 32 32" fill="none" xmlns="http://www.w3.org/2000/svg">
<g clip-path="url(#clip0_1178_18705)">
<path d="M0.759766 17.53H31.2398V12.96H0.759766V17.53ZM2.28977 14.48H29.7198V16H2.28977V14.48Z" fill="#BFFB4F"/>
<path d="M29.7199 19.05H28.1899V28.19H29.7199V19.05Z" fill="#BFFB4F"/>
<path d="M29.7199 3.81H28.1899V11.43H29.7199V3.81Z" fill="#BFFB4F"/>
<path d="M26.6699 19.05H25.1499V28.19H26.6699V19.05Z" fill="#BFFB4F"/>
<path d="M26.6699 3.81H25.1499V11.43H26.6699V3.81Z" fill="#BFFB4F"/>
<path d="M23.6198 3.81H20.5698V11.43H23.6198V3.81Z" fill="#BFFB4F"/>
<path d="M23.6198 19.05H20.5698V28.19H23.6198V19.05Z" fill="#BFFB4F"/>
<path d="M19.0498 19.05H17.5298V28.19H19.0498V19.05Z" fill="#BFFB4F"/>
<path d="M19.0498 3.81H17.5298V11.43H19.0498V3.81Z" fill="#BFFB4F"/>
<path d="M12.9597 3.81H9.90967V11.43H12.9597V3.81Z" fill="#BFFB4F"/>
<path d="M12.9597 19.05H9.90967V28.19H12.9597V19.05Z" fill="#BFFB4F"/>
<path d="M8.37986 19.05H6.85986V28.19H8.37986V19.05Z" fill="#BFFB4F"/>
<path d="M8.37986 3.81H6.85986V11.43H8.37986V3.81Z" fill="#BFFB4F"/>
<path d="M5.33955 3.81H2.28955V11.43H5.33955V3.81Z" fill="#BFFB4F"/>
<path d="M5.33955 19.05H2.28955V28.19H5.33955V19.05Z" fill="#BFFB4F"/>
</g>
<defs>
<clipPath id="clip0_1178_18705">
<rect width="32" height="32" fill="white"/>
</clipPath>
</defs>
</svg>
