<svg width="32" height="32" viewBox="0 0 32 32" fill="none" xmlns="http://www.w3.org/2000/svg">
<g clip-path="url(#clip0_1178_18722)">
<path d="M30.47 6.1H27.43V7.62H25.9V6.1H24.38V9.15H18.28V7.62H22.85V6.1H19.81V4.57H24.38V3.05H21.33V1.53H19.81V3.05H18.28V4.57H16.76V9.15H15.24V6.1H13.71V9.15H10.66V7.62H9.14V9.15H6.09V7.62H4.57V9.15H3.04V3.05H1.52V9.15H0V22.86H1.52V10.67H22.85V21.34H24.38V30.48H3.04V32H25.9V30.48H27.43V28.96H28.95V27.43H30.47V25.91H32V18.29H30.47V6.1Z" fill="#BFFB4F"/>
<path d="M27.4299 3.04999H25.8999V6.09999H27.4299V3.04999Z" fill="#BFFB4F"/>
<path d="M25.8999 1.53H24.3799V3.05H25.8999V1.53Z" fill="#BFFB4F"/>
<path d="M24.3801 0H21.3301V1.53H24.3801V0Z" fill="#BFFB4F"/>
<path d="M16.7602 13.72H15.2402V16.76H16.7602V13.72Z" fill="#BFFB4F"/>
<path d="M16.7602 3.04999H15.2402V4.56999H16.7602V3.04999Z" fill="#BFFB4F"/>
<path d="M13.7099 4.57001H12.1899V6.10001H13.7099V4.57001Z" fill="#BFFB4F"/>
<path d="M12.1902 6.10001H10.6602V7.62001H12.1902V6.10001Z" fill="#BFFB4F"/>
<path d="M15.2401 16.76H9.14014V18.29H15.2401V16.76Z" fill="#BFFB4F"/>
<path d="M12.1901 4.57V3.05H15.2401V1.53H10.6601V3.05H9.14014V4.57H12.1901Z" fill="#BFFB4F"/>
<path d="M9.14012 13.72H7.62012V16.76H9.14012V13.72Z" fill="#BFFB4F"/>
<path d="M9.14012 4.57001H7.62012V6.10001H9.14012V4.57001Z" fill="#BFFB4F"/>
<path d="M7.61984 6.10001H6.08984V7.62001H7.61984V6.10001Z" fill="#BFFB4F"/>
<path d="M6.08982 4.57001H4.56982V6.10001H6.08982V4.57001Z" fill="#BFFB4F"/>
<path d="M9.14004 1.53H3.04004V3.05H9.14004V1.53Z" fill="#BFFB4F"/>
<path d="M3.04002 22.86H1.52002V30.48H3.04002V22.86Z" fill="#BFFB4F"/>
</g>
<defs>
<clipPath id="clip0_1178_18722">
<rect width="32" height="32" fill="white"/>
</clipPath>
</defs>
</svg>
