<svg width="32" height="32" viewBox="0 0 32 32" fill="none" xmlns="http://www.w3.org/2000/svg">
<g clip-path="url(#clip0_1178_18209)">
<path d="M32 12.1899H30.48V13.7099H32V12.1899Z" fill="#BFFB4F"/>
<path d="M30.4802 13.71H28.9502V15.23H30.4802V13.71Z" fill="#BFFB4F"/>
<path d="M28.9502 27.4301H27.4302V30.4701H28.9502V27.4301Z" fill="#BFFB4F"/>
<path d="M27.4299 24.38H25.8999V27.43H27.4299V24.38Z" fill="#BFFB4F"/>
<path d="M28.9499 15.23H25.8999V16.76H28.9499V15.23Z" fill="#BFFB4F"/>
<path d="M27.4299 30.47H24.3799V32H27.4299V30.47Z" fill="#BFFB4F"/>
<path d="M25.8999 21.33H24.3799V24.38H25.8999V21.33Z" fill="#BFFB4F"/>
<path d="M25.8999 16.76H24.3799V18.28H25.8999V16.76Z" fill="#BFFB4F"/>
<path d="M24.3799 28.95H22.8599V30.4699H24.3799V28.95Z" fill="#BFFB4F"/>
<path d="M24.3799 18.28H22.8599V21.33H24.3799V18.28Z" fill="#BFFB4F"/>
<path d="M22.8601 27.4301H19.8101V28.9501H22.8601V27.4301Z" fill="#BFFB4F"/>
<path d="M30.4801 10.66H21.3301V12.19H30.4801V10.66Z" fill="#BFFB4F"/>
<path d="M21.3301 7.62H19.8101V10.66H21.3301V7.62Z" fill="#BFFB4F"/>
<path d="M19.81 25.9H18.29V27.43H19.81V25.9Z" fill="#BFFB4F"/>
<path d="M19.81 16.76H18.29V18.28H19.81V16.76Z" fill="#BFFB4F"/>
<path d="M19.81 4.56995H18.29V7.61995H19.81V4.56995Z" fill="#BFFB4F"/>
<path d="M18.2898 24.38H16.7598V25.9H18.2898V24.38Z" fill="#BFFB4F"/>
<path d="M18.2898 13.71H16.7598V15.23H18.2898V13.71Z" fill="#BFFB4F"/>
<path d="M18.2898 1.52002H16.7598V4.57002H18.2898V1.52002Z" fill="#BFFB4F"/>
<path d="M16.7602 22.85H15.2402V24.38H16.7602V22.85Z" fill="#BFFB4F"/>
<path d="M18.29 18.28H13.71V19.81H18.29V18.28Z" fill="#BFFB4F"/>
<path d="M16.7602 0H15.2402V1.52H16.7602V0Z" fill="#BFFB4F"/>
<path d="M15.24 24.38H13.71V25.9H15.24V24.38Z" fill="#BFFB4F"/>
<path d="M15.24 13.71H13.71V15.23H15.24V13.71Z" fill="#BFFB4F"/>
<path d="M15.24 1.52002H13.71V4.57002H15.24V1.52002Z" fill="#BFFB4F"/>
<path d="M13.7099 25.9H12.1899V27.43H13.7099V25.9Z" fill="#BFFB4F"/>
<path d="M13.7099 16.76H12.1899V18.28H13.7099V16.76Z" fill="#BFFB4F"/>
<path d="M13.7099 4.56995H12.1899V7.61995H13.7099V4.56995Z" fill="#BFFB4F"/>
<path d="M12.1899 7.62H10.6699V10.66H12.1899V7.62Z" fill="#BFFB4F"/>
<path d="M12.1901 27.4301H9.14014V28.9501H12.1901V27.4301Z" fill="#BFFB4F"/>
<path d="M9.14012 28.95H7.62012V30.4699H9.14012V28.95Z" fill="#BFFB4F"/>
<path d="M9.14012 18.28H7.62012V21.33H9.14012V18.28Z" fill="#BFFB4F"/>
<path d="M7.6201 21.33H6.1001V24.38H7.6201V21.33Z" fill="#BFFB4F"/>
<path d="M7.6201 16.76H6.1001V18.28H7.6201V16.76Z" fill="#BFFB4F"/>
<path d="M7.61982 30.47H4.56982V32H7.61982V30.47Z" fill="#BFFB4F"/>
<path d="M6.09982 24.38H4.56982V27.43H6.09982V24.38Z" fill="#BFFB4F"/>
<path d="M6.0998 15.23H3.0498V16.76H6.0998V15.23Z" fill="#BFFB4F"/>
<path d="M4.5698 27.4301H3.0498V30.4701H4.5698V27.4301Z" fill="#BFFB4F"/>
<path d="M10.67 10.66H1.52002V12.19H10.67V10.66Z" fill="#BFFB4F"/>
<path d="M3.05002 13.71H1.52002V15.23H3.05002V13.71Z" fill="#BFFB4F"/>
<path d="M1.52 12.1899H0V13.7099H1.52V12.1899Z" fill="#BFFB4F"/>
</g>
<defs>
<clipPath id="clip0_1178_18209">
<rect width="32" height="32" fill="white"/>
</clipPath>
</defs>
</svg>
