<svg width="32" height="32" viewBox="0 0 32 32" fill="none" xmlns="http://www.w3.org/2000/svg">
<g clip-path="url(#clip0_1178_17110)">
<path d="M30.4699 18.28V7.62H28.9499V16.76H27.4299V15.24H25.8999V27.43H27.4299V25.9H30.4699V24.38H31.9999V18.28H30.4699Z" fill="#BFFB4F"/>
<path d="M25.8999 12.1899H24.3799V15.2399H25.8999V12.1899Z" fill="#BFFB4F"/>
<path d="M6.08984 27.4301V28.9501H7.61984V30.4801H9.13984V28.9501H22.8498V30.4801H24.3798V28.9501H25.8998V27.4301H6.08984Z" fill="#BFFB4F"/>
<path d="M24.3801 18.28H22.8501V21.33H24.3801V18.28Z" fill="#BFFB4F"/>
<path d="M24.3801 10.67H22.8501V12.19H24.3801V10.67Z" fill="#BFFB4F"/>
<path d="M22.8501 16.76H19.8101V18.28H22.8501V16.76Z" fill="#BFFB4F"/>
<path d="M22.8501 30.48H9.14014V32H22.8501V30.48Z" fill="#BFFB4F"/>
<path d="M22.8501 21.33H19.8101V22.86H22.8501V21.33Z" fill="#BFFB4F"/>
<path d="M19.8098 18.28H18.2798V21.33H19.8098V18.28Z" fill="#BFFB4F"/>
<path d="M19.8098 1.52002H18.2798V3.05002H19.8098V1.52002Z" fill="#BFFB4F"/>
<path d="M18.28 24.38H13.71V25.9H18.28V24.38Z" fill="#BFFB4F"/>
<path d="M18.28 0H13.71V1.52H18.28V0Z" fill="#BFFB4F"/>
<path d="M13.7099 18.28H12.1899V21.33H13.7099V18.28Z" fill="#BFFB4F"/>
<path d="M13.7099 1.52002H12.1899V3.05002H13.7099V1.52002Z" fill="#BFFB4F"/>
<path d="M12.1901 16.76H9.14014V18.28H12.1901V16.76Z" fill="#BFFB4F"/>
<path d="M22.8501 10.67V9.14005H16.7601V4.57005H18.2801V3.05005H13.7101V4.57005H15.2301V9.14005H9.14014V10.67H22.8501Z" fill="#BFFB4F"/>
<path d="M12.1901 21.33H9.14014V22.86H12.1901V21.33Z" fill="#BFFB4F"/>
<path d="M9.14012 18.28H7.62012V21.33H9.14012V18.28Z" fill="#BFFB4F"/>
<path d="M9.14012 10.67H7.62012V12.19H9.14012V10.67Z" fill="#BFFB4F"/>
<path d="M7.61984 12.1899H6.08984V15.2399H7.61984V12.1899Z" fill="#BFFB4F"/>
<path d="M6.09 15.24H4.57V16.76H3.04V7.62H1.52V18.28H0V24.38H1.52V25.9H4.57V27.43H6.09V15.24Z" fill="#BFFB4F"/>
</g>
<defs>
<clipPath id="clip0_1178_17110">
<rect width="32" height="32" fill="white"/>
</clipPath>
</defs>
</svg>
