<svg width="32" height="32" viewBox="0 0 32 32" fill="none" xmlns="http://www.w3.org/2000/svg">
<path d="M27.4249 6.08997H25.9049V16.76H27.4249V6.08997Z" fill="#000001"/>
<path d="M25.905 16.76H24.385V19.81H25.905V16.76Z" fill="#000001"/>
<path d="M25.905 3.05005H24.385V6.09005H25.905V3.05005Z" fill="#000001"/>
<path d="M24.385 19.8101H22.855V21.3301H24.385V19.8101Z" fill="#000001"/>
<path d="M22.855 21.33H21.335V22.86H22.855V21.33Z" fill="#000001"/>
<path d="M24.385 1.52002H21.335V3.05002H24.385V1.52002Z" fill="#000001"/>
<path d="M21.3349 7.62H19.8049V18.28H21.3349V7.62Z" fill="#000001"/>
<path d="M19.8049 18.28H18.2849V22.86H13.7149V18.28H12.1849V22.86H10.6649V24.38H12.1849V27.43H10.6649V30.48H12.1849V32H19.8049V30.48H21.3349V27.43H19.8049V24.38H21.3349V22.86H19.8049V18.28ZM18.2849 27.43H13.7149V24.38H18.2849V27.43Z" fill="#000001"/>
<path d="M12.1849 7.62H13.7149V1.52H18.2849V7.62H19.8049V1.52H21.3349V0H10.6649V1.52H12.1849V7.62Z" fill="#000001"/>
<path d="M12.1849 7.62H10.6649V18.28H12.1849V7.62Z" fill="#000001"/>
<path d="M10.6649 21.33H9.1449V22.86H10.6649V21.33Z" fill="#000001"/>
<path d="M10.665 1.52002H7.61499V3.05002H10.665V1.52002Z" fill="#000001"/>
<path d="M9.14499 19.8101H7.61499V21.3301H9.14499V19.8101Z" fill="#000001"/>
<path d="M7.61497 16.76H6.09497V19.81H7.61497V16.76Z" fill="#000001"/>
<path d="M7.61497 3.05005H6.09497V6.09005H7.61497V3.05005Z" fill="#000001"/>
<path d="M6.09495 6.08997H4.57495V16.76H6.09495V6.08997Z" fill="#000001"/>
</svg>
