<svg width="32" height="32" viewBox="0 0 32 32" fill="none" xmlns="http://www.w3.org/2000/svg">
<path d="M27.4302 7.62H25.9102V15.24H27.4302V7.62Z" fill="#000001"/>
<path d="M25.9101 15.24H24.3801V18.28H25.9101V15.24Z" fill="#000001"/>
<path d="M25.9101 4.57001H24.3801V7.62001H25.9101V4.57001Z" fill="#000001"/>
<path d="M24.3801 18.28H22.8601V19.81H24.3801V18.28Z" fill="#000001"/>
<path d="M24.3801 3.04999H22.8601V4.56999H24.3801V3.04999Z" fill="#000001"/>
<path d="M22.8601 19.81H19.8101V21.33H22.8601V19.81Z" fill="#000001"/>
<path d="M22.8601 1.52002H19.8101V3.05002H22.8601V1.52002Z" fill="#000001"/>
<path d="M12.1902 21.33V22.86H15.2402V27.43H12.1902V28.95H15.2402V32H16.7602V28.95H19.8102V27.43H16.7602V22.86H19.8102V21.33H12.1902Z" fill="#000001"/>
<path d="M19.8102 0H12.1902V1.52H19.8102V0Z" fill="#000001"/>
<path d="M12.1901 19.81H9.15015V21.33H12.1901V19.81Z" fill="#000001"/>
<path d="M12.1901 1.52002H9.15015V3.05002H12.1901V1.52002Z" fill="#000001"/>
<path d="M9.15012 18.28H7.62012V19.81H9.15012V18.28Z" fill="#000001"/>
<path d="M9.15012 3.04999H7.62012V4.56999H9.15012V3.04999Z" fill="#000001"/>
<path d="M7.6201 15.24H6.1001V18.28H7.6201V15.24Z" fill="#000001"/>
<path d="M7.6201 4.57001H6.1001V7.62001H7.6201V4.57001Z" fill="#000001"/>
<path d="M6.10007 7.62H4.57007V15.24H6.10007V7.62Z" fill="#000001"/>
</svg>
