<svg width="32" height="32" viewBox="0 0 32 32" fill="none" xmlns="http://www.w3.org/2000/svg">
<g clip-path="url(#clip0_1135_4835)">
<path d="M32 9.15002H30.47V10.67H32V9.15002Z" fill="#000001"/>
<path d="M32 4.56995H30.47V6.09995H32V4.56995Z" fill="#000001"/>
<path d="M32 0H30.47V1.53H32V0Z" fill="#000001"/>
<path d="M30.4699 13.72H28.95V15.24H30.4699V13.72Z" fill="#000001"/>
<path d="M30.4699 6.09998H28.95V7.61998H30.4699V6.09998Z" fill="#000001"/>
<path d="M30.4699 1.53003H28.95V3.05003H30.4699V1.53003Z" fill="#000001"/>
<path d="M28.9499 15.24H27.4299V16.77H28.9499V15.24Z" fill="#000001"/>
<path d="M28.9499 7.62H27.4299V9.14999H28.9499V7.62Z" fill="#000001"/>
<path d="M28.9499 3.05005H27.4299V4.57005H28.9499V3.05005Z" fill="#000001"/>
<path d="M27.4299 16.77H25.8999V19.81H27.4299V16.77Z" fill="#000001"/>
<path d="M27.4299 10.67H25.8999V12.19H27.4299V10.67Z" fill="#000001"/>
<path d="M27.4299 4.56995H25.8999V6.09995H27.4299V4.56995Z" fill="#000001"/>
<path d="M27.4299 0H25.8999V1.53H27.4299V0Z" fill="#000001"/>
<path d="M25.8999 19.8101H24.3799V22.8601H25.8999V19.8101Z" fill="#000001"/>
<path d="M25.8999 12.1899H24.3799V13.7199H25.8999V12.1899Z" fill="#000001"/>
<path d="M25.8999 6.09998H24.3799V7.61998H25.8999V6.09998Z" fill="#000001"/>
<path d="M25.8999 1.53003H24.3799V3.05003H25.8999V1.53003Z" fill="#000001"/>
<path d="M24.3801 22.86H22.8501V25.91H24.3801V22.86Z" fill="#000001"/>
<path d="M24.3801 3.05005H22.8501V4.57005H24.3801V3.05005Z" fill="#000001"/>
<path d="M22.8501 15.24H21.3301V16.77H22.8501V15.24Z" fill="#000001"/>
<path d="M22.8501 9.15002H21.3301V10.67H22.8501V9.15002Z" fill="#000001"/>
<path d="M22.8501 0H21.3301V1.53H22.8501V0Z" fill="#000001"/>
<path d="M22.8501 25.91H19.8101V27.43H22.8501V25.91Z" fill="#000001"/>
<path d="M21.3301 4.56995H19.8101V6.09995H21.3301V4.56995Z" fill="#000001"/>
<path d="M21.3301 1.53003H19.8101V3.05003H21.3301V1.53003Z" fill="#000001"/>
<path d="M19.81 27.4301H18.28V28.9601H19.81V27.4301Z" fill="#000001"/>
<path d="M19.81 12.1899H18.28V13.7199H19.81V12.1899Z" fill="#000001"/>
<path d="M18.28 7.62H16.76V9.14999H18.28V7.62Z" fill="#000001"/>
<path d="M18.28 1.53003H16.76V3.05003H18.28V1.53003Z" fill="#000001"/>
<path d="M18.28 28.96H15.24V30.48H18.28V28.96Z" fill="#000001"/>
<path d="M16.76 9.15002H15.24V10.67H16.76V9.15002Z" fill="#000001"/>
<path d="M16.76 3.05005H13.71V4.57005H16.76V3.05005Z" fill="#000001"/>
<path d="M15.2399 30.48H9.13989V32H15.2399V30.48Z" fill="#000001"/>
<path d="M13.7099 4.56995H12.1899V6.09995H13.7099V4.56995Z" fill="#000001"/>
<path d="M12.1899 6.09998H9.13989V7.61998H12.1899V6.09998Z" fill="#000001"/>
<path d="M15.2401 27.4299V25.9099H16.7601V24.3799H18.2801V22.8599H19.8101V16.7699H18.2801V15.2399H16.7601V13.7199H15.2401V12.1899H9.14007V13.7199H7.62007V15.2399H6.09007V16.7699H4.57007V22.8599H6.09007V24.3799H7.62007V25.9099H9.14007V27.4299H15.2401ZM12.1901 15.2399H15.2401V16.7699H16.7601V18.2899H18.2801V21.3399H16.7601V18.2899H15.2401V16.7699H12.1901V15.2399Z" fill="#000001"/>
<path d="M9.14007 28.96H4.57007V30.48H9.14007V28.96Z" fill="#000001"/>
<path d="M9.14009 7.62H6.09009V9.14999H9.14009V7.62Z" fill="#000001"/>
<path d="M6.09007 9.15002H4.57007V10.67H6.09007V9.15002Z" fill="#000001"/>
<path d="M4.57005 27.4301H3.05005V28.9601H4.57005V27.4301Z" fill="#000001"/>
<path d="M4.57005 10.67H3.05005V12.19H4.57005V10.67Z" fill="#000001"/>
<path d="M3.05002 24.38H1.52002V27.43H3.05002V24.38Z" fill="#000001"/>
<path d="M3.05002 12.1899H1.52002V15.2399H3.05002V12.1899Z" fill="#000001"/>
<path d="M1.52 15.24H0V24.38H1.52V15.24Z" fill="#000001"/>
</g>
<defs>
<clipPath id="clip0_1135_4835">
<rect width="32" height="32" fill="white"/>
</clipPath>
</defs>
</svg>
