<svg width="32" height="32" viewBox="0 0 32 32" fill="none" xmlns="http://www.w3.org/2000/svg">
<g clip-path="url(#clip0_1178_17228)">
<path d="M32.0002 15.24H30.4702V19.81H32.0002V15.24Z" fill="#BFFB4F"/>
<path d="M30.4702 19.8101H28.9502V21.3401H30.4702V19.8101Z" fill="#BFFB4F"/>
<path d="M30.4702 12.1899H28.9502V15.2399H30.4702V12.1899Z" fill="#BFFB4F"/>
<path d="M28.9502 18.29H27.4302V19.81H28.9502V18.29Z" fill="#BFFB4F"/>
<path d="M28.9502 9.15002H27.4302V12.19H28.9502V9.15002Z" fill="#BFFB4F"/>
<path d="M27.4299 16.77H24.3799V18.29H27.4299V16.77Z" fill="#BFFB4F"/>
<path d="M27.4299 7.62H25.8999V9.14999H27.4299V7.62Z" fill="#BFFB4F"/>
<path d="M25.8999 6.09998H24.3799V7.61998H25.8999V6.09998Z" fill="#BFFB4F"/>
<path d="M24.3801 18.29H22.8501V19.81H24.3801V18.29Z" fill="#BFFB4F"/>
<path d="M22.8501 12.1899H21.3301V15.2399H22.8501V12.1899Z" fill="#BFFB4F"/>
<path d="M24.3801 4.56995H21.3301V6.09995H24.3801V4.56995Z" fill="#BFFB4F"/>
<path d="M22.8501 19.8101H19.8101V21.3401H22.8501V19.8101Z" fill="#BFFB4F"/>
<path d="M21.3301 9.15002H19.8101V12.19H21.3301V9.15002Z" fill="#BFFB4F"/>
<path d="M19.8098 18.29H18.2798V19.81H19.8098V18.29Z" fill="#BFFB4F"/>
<path d="M19.8098 7.62H18.2798V9.14999H19.8098V7.62Z" fill="#BFFB4F"/>
<path d="M13.71 16.77V18.29H15.24V30.48H16.76V18.29H18.28V16.77H13.71Z" fill="#BFFB4F"/>
<path d="M15.2399 30.48H12.1899V32H15.2399V30.48Z" fill="#BFFB4F"/>
<path d="M13.7099 18.29H12.1899V19.81H13.7099V18.29Z" fill="#BFFB4F"/>
<path d="M13.7099 7.62H12.1899V9.14999H13.7099V7.62Z" fill="#BFFB4F"/>
<path d="M21.3302 4.57V3.05H16.7602V0H15.2402V3.05H10.6602V4.57H21.3302Z" fill="#BFFB4F"/>
<path d="M12.1902 28.96H10.6602V30.48H12.1902V28.96Z" fill="#BFFB4F"/>
<path d="M12.1902 9.15002H10.6602V12.19H12.1902V9.15002Z" fill="#BFFB4F"/>
<path d="M12.1901 19.8101H9.14014V21.3401H12.1901V19.8101Z" fill="#BFFB4F"/>
<path d="M10.6601 12.1899H9.14014V15.2399H10.6601V12.1899Z" fill="#BFFB4F"/>
<path d="M10.6601 4.56995H7.62012V6.09995H10.6601V4.56995Z" fill="#BFFB4F"/>
<path d="M9.14012 18.29H7.62012V19.81H9.14012V18.29Z" fill="#BFFB4F"/>
<path d="M7.61982 16.77H4.56982V18.29H7.61982V16.77Z" fill="#BFFB4F"/>
<path d="M7.61984 6.09998H6.08984V7.61998H7.61984V6.09998Z" fill="#BFFB4F"/>
<path d="M6.08982 7.62H4.56982V9.14999H6.08982V7.62Z" fill="#BFFB4F"/>
<path d="M4.5698 18.29H3.0498V19.81H4.5698V18.29Z" fill="#BFFB4F"/>
<path d="M4.5698 9.15002H3.0498V12.19H4.5698V9.15002Z" fill="#BFFB4F"/>
<path d="M3.05002 19.8101H1.52002V21.3401H3.05002V19.8101Z" fill="#BFFB4F"/>
<path d="M3.05002 12.1899H1.52002V15.2399H3.05002V12.1899Z" fill="#BFFB4F"/>
<path d="M1.52 15.24H0V19.81H1.52V15.24Z" fill="#BFFB4F"/>
</g>
<defs>
<clipPath id="clip0_1178_17228">
<rect width="32" height="32" fill="white"/>
</clipPath>
</defs>
</svg>
