<?xml version="1.0" encoding="UTF-8"?><svg version="1.1" viewBox="0 0 500 500" xmlns="http://www.w3.org/2000/svg" xmlns:xlink="http://www.w3.org/1999/xlink"><defs><linearGradient id="a" x1="242.978" x2="304" gradientUnits="userSpaceOnUse" y1="195.581" y2="419.942"><stop offset="0%" stop-color="#6400C9"></stop><stop offset="100%" stop-color="#410281"></stop></linearGradient></defs><ellipse rx="177" ry="10" cx="250.19" cy="430.718" transform="matrix(.999708 -.0241778 .0241778 .999708 -10.3407 6.17495)" fill="#F2C47F"></ellipse><path fill="#6400C9" stroke="#000" stroke-width="2" d="M167.171 238.639c-48.16 38-35.84 118.442-4.84 140.942 25.2 2.8 43.333-3.167 49.5-6.5l2.5-26.5c18 7.2 38.5 5.5 51.5-3l9.5 24c29.5 6.5 59.399-6.144 60.5-9.5 10-30.5 10.769 18.288 15-14.5 4-31-23.217-123.739-47.831-125.581 -80.16-6-71.329-5.861-135.829 20.639Z"></path><g stroke-width="2" fill="#6400C9" stroke="#000"><path d="M174 208c-36-19.087-33.5 91.942-2.5 114.442 25.2 2.8 43.333-3.167 49.5-6.5l2.5-26.5c18 7.2 38.5 5.5 51.5-3l9.5 24c29.5 6.5 59.4-6.144 60.5-9.5 10-30.5 10.769 18.289 15-14.5 4-31-33.189-104.395-54.5-91.942 -83 48.5-57 53-131.5 13.5Z"></path><path fill="url(#a)" d="M141 214.442c-46-7-5 193.5 26 216 25.2 2.8 43.333-3.167 49.5-6.5l3.5-24.001c18 7.2 38.5 5.5 51.5-3l9.5 24c29.5 6.5 59.4.857 60.5-2.499 10-30.5 14.269-99.212 18.5-132 4-31 13.369-99.287-9.5-90.001 -82.5 33.501-125.5 46.001-209.5 18.001Z"></path><path fill="#8114EF" d="M300.5 336.942c-74.5 17.5-111 10.5-113 10.5 0 47.942 83.442 33.811 95.5 27.558 13.5-7 16.667-26.372 17.5-38.058Z"></path><path fill="#FFF" d="M238.5 367l-2.5-19 -30 .942c-.5 10 21.833 19.891 32.5 18.058Z"></path><path fill="#FFF" d="M265.5 365.5l-3.5-20.5 24-4.558c2.4 16-14.5 23.558-20.5 25.058Z"></path><path fill="#FFF" d="M300.844 308.344c-7.279 7.5-16.096 12.073-24.433 13.438 -8.338 1.366-16.124-.479-21.508-5.704 -5.384-5.225-7.461-12.952-6.346-21.327 1.115-8.375 5.422-17.325 12.701-24.825 7.278-7.5 16.095-12.073 24.433-13.439 8.338-1.365 16.124.48 21.508 5.705 5.384 5.225 7.461 12.952 6.346 21.327 -1.115 8.375-5.423 17.325-12.701 24.825Z"></path><path fill="#FFF" d="M228.011 277.561c6.388 8.272 9.659 17.65 9.824 26.097 .165 8.447-2.769 15.891-8.707 20.477 -5.938 4.585-13.883 5.542-22.013 3.246 -8.131-2.296-16.377-7.833-22.765-16.105 -6.388-8.271-9.659-17.65-9.824-26.097 -.165-8.447 2.769-15.891 8.707-20.477 5.938-4.585 13.883-5.541 22.013-3.246 8.131 2.296 16.377 7.833 22.765 16.105Z"></path></g><ellipse rx="18.3726" ry="20.6586" cx="270.572" cy="303.062" fill="#161212" transform="matrix(.717617 .696438 -.696438 .717617 287.469 -102.857)"></ellipse><ellipse rx="18.3726" ry="20.6586" cx="216.168" cy="309.022" transform="matrix(.79148 -.611196 .611196 .79148 -143.797 196.558)" fill="#161212"></ellipse><path fill="none" stroke="#0D0A11" stroke-width="2" d="M271.5 396.942c3.833-1.833 12.5-6.7 16.5-11.5"></path><path d="M202 390.86c3.423 2.517 11.799 7.869 17.917 9.136" stroke-width="2" fill="none" stroke="#0D0A11"></path><path fill="#791ED5" d="M144.958 246.942c0 21.539-3.134 39-7 39 -3.866 0-7-17.461-7-39 0-21.539 3.134-17.5 7-17.5 3.866 0 7-4.039 7 17.5Z"></path><g fill="#791ED5"><path d="M162 232.761c0 4.55-3.134 8.239-7 8.239 -3.866 0-7-3.689-7-8.239 0-4.551 3.134-3.698 7-3.698 3.866 0 7-.853 7 3.698Z"></path><path d="M283.979 252.195c-4.7 2.259-8.84 3.406-9.245 2.562 -.405-.843 3.076-3.358 7.777-5.617 4.7-2.259 10.439-.346 10.844.498 .406.844-4.675.299-9.376 2.557Z"></path><path d="M225.751 267.893c2.782 4.412 5.679 7.583 6.47 7.084 .792-.5-.821-4.48-3.603-8.892 -2.781-4.411-8.659-5.84-9.451-5.34 -.792.499 3.803 2.737 6.584 7.148Z"></path><path d="M252 320.069c0 .758-3.134 1.373-7 1.373 -3.866 0-7-.615-7-1.373 0-.759 3.134-.617 7-.617 3.866 0 7-.142 7 .617Z"></path><path d="M248 323.627c0 .758-2.462 1.373-5.5 1.373 -3.038 0-5.5-.615-5.5-1.373 0-.759 2.462-.616 5.5-.616 3.038 0 5.5-.143 5.5.616Z"></path><path d="M257 323.627c0 .758-1.567 1.373-3.5 1.373 -1.933 0-3.5-.615-3.5-1.373 0-.759 1.567-.616 3.5-.616 1.933 0 3.5-.143 3.5.616Z"></path></g></svg>