<?xml version="1.0" encoding="UTF-8"?><svg version="1.1" viewBox="0 0 500 500" xmlns="http://www.w3.org/2000/svg" xmlns:xlink="http://www.w3.org/1999/xlink"><defs><linearGradient id="a" x1="254" x2="254" gradientUnits="userSpaceOnUse" y1="249" y2="425"><stop offset="0%" stop-color="#EB1E80"></stop><stop offset="100%" stop-color="#9E0D53"></stop></linearGradient></defs><ellipse rx="177" ry="10" cx="250.19" cy="424.777" transform="matrix(.999708 -.0241778 .0241778 .999708 -10.197 6.17321)" fill="#F2C47F"></ellipse><path fill="#B00658" stroke="#000" stroke-width="1.51989" d="M322.448 400.423c-9.62-1.006-18.435-.597-24.902.858 -3.237.729-5.843 1.71-7.662 2.874 -1.827 1.17-2.753 2.45-2.89 3.757 -.137 1.307.504 2.751 2.05 4.273 1.539 1.516 3.885 3.015 6.901 4.398 6.026 2.762 14.565 4.987 24.185 5.994 9.619 1.006 18.435.597 24.901-.858 3.238-.729 5.843-1.71 7.663-2.874 1.827-1.17 2.753-2.45 2.89-3.757 .137-1.307-.505-2.751-2.05-4.273 -1.539-1.516-3.885-3.015-6.902-4.398 -6.025-2.762-14.565-4.987-24.184-5.994Z"></path><g stroke-width="1.51989" fill="none" stroke="#000"><path d="M355.011 416.701c-4.18-2.28-13.071-6.839-15.199-6.839"></path><path d="M340.192 422.021c-1.773-2.533-5.623-7.827-6.839-8.739"></path><path fill="#B00658" d="M183.13 401.423c9.619-1.006 18.435-.597 24.901.858 3.238.729 5.843 1.71 7.663 2.874 1.827 1.17 2.753 2.45 2.89 3.757 .137 1.307-.505 2.751-2.05 4.273 -1.539 1.516-3.885 3.015-6.902 4.398 -6.025 2.762-14.565 4.987-24.184 5.994 -9.62 1.006-18.435.597-24.902-.858 -3.237-.729-5.843-1.71-7.662-2.874 -1.827-1.17-2.753-2.45-2.89-3.757 -.137-1.307.504-2.751 2.05-4.273 1.539-1.516 3.885-3.015 6.901-4.398 6.026-2.762 14.565-4.987 24.185-5.994Z"></path><path d="M150.567 417.701c4.179-2.28 13.071-6.839 15.199-6.839"></path><path d="M165.385 423.021c1.774-2.533 5.624-7.827 6.84-8.739"></path><path fill="#EB1E80" stroke-width="2" d="M273.224 240.866l-9.819 29.628 3.887 2.478 9.529-30.585Z"></path><path fill="#EB1E80" stroke-width="2" d="M206.319 254.948l20.42 23.606 4.119-2.07 -21.391-23.847Z"></path><circle cx="254" cy="337" r="87" fill="url(#a)" stroke-width="2"></circle><circle cx="281.325" cy="227.957" r="15" fill="#EB1E80" stroke-width="2" transform="matrix(.956908 -.290392 .290392 .956908 -54.0739 91.5176)"></circle><circle cx="199.379" cy="241.38" r="15" fill="#EB1E80" stroke-width="2" transform="matrix(.240591 -.970627 .970627 .240591 -82.8796 376.829)"></circle><path stroke-width="2" d="M278.5 366c-17.5 10.5-40.5 0-40.5 0"></path><path fill="#FFF" stroke-width="2" d="M300 309c0 5.504-4.383 10.744-12.05 14.666 -7.613 3.895-18.201 6.334-29.95 6.334 -11.749 0-22.337-2.439-29.95-6.334 -7.667-3.922-12.05-9.162-12.05-14.666 0-5.504 4.383-10.744 12.05-14.666 7.613-3.895 18.201-6.334 29.95-6.334 11.749 0 22.337 2.439 29.95 6.334 7.667 3.922 12.05 9.162 12.05 14.666Z"></path></g><path fill="#000" d="M290.5 322.5c-.5-.5-6 7-32.5 7.5 -22.5-3-30-5.5-30.5-7.5 0-8.008 13.931-21.5 30.5-21.5 16.569 0 32.5 13.492 32.5 21.5Z"></path><g stroke-width="2" fill="none" stroke="#000"><path d="M193.5 360c-1 3.333-2.4 9.9 0 9.5 2.4-.4 6.667-3.833 8.5-5.5"></path><path d="M214.325 375c-1 3.333-2.4 9.9 0 9.5 2.4-.4 6.667-3.833 8.5-5.5"></path><path d="M306.639 362.618c2.602 2.556 8.002 7.081 8.79 4.731 .787-2.35-.331-7.884-.989-10.357"></path><path d="M286.639 378.618c2.602 2.556 8.002 7.081 8.79 4.731 .787-2.35-.331-7.884-.989-10.357"></path></g><path fill="#C51B6D" d="M283 266c0 4.971-11.484 5-27.5 5 -16.016 0-30.5-.029-30.5-5 0-4.971 12.484-10 28.5-10 16.016 0 29.5 5.029 29.5 10Z"></path><g fill="#C21E6D"><path d="M290.023 222.182c1.443 4.757-2.527 5.992-8.076 7.676 -5.549 1.684-10.576 3.179-12.019-1.577 -1.444-4.757 1.421-10.882 6.97-12.566 5.549-1.684 11.681 1.711 13.125 6.467Z"></path><path d="M198.874 230.952c4.824 1.196 3.852 5.239 2.457 10.867 -1.395 5.629-2.685 10.712-7.51 9.516 -4.824-1.196-8.619-6.793-7.223-12.422 1.395-5.628 7.451-9.157 12.276-7.961Z"></path></g><path fill="#7D053F" d="M225 408c0-4.971 13.484 6.5 29.5 6.5 16.016 0 28.5-11.471 28.5-6.5 0 4.971-12.484 10-28.5 10 -16.016 0-29.5-5.029-29.5-10Z"></path><g stroke-width="2" fill="#FFF" stroke="#000"><path d="M253.539 382.5l.961-11.5 -7.5-1.5 -7.5-2.5c-.5 10 3.372 17.333 14.039 15.5Z"></path><path d="M264.656 379.5v-8.898l11.844-2.602c-.5 7.5-5.66 11.402-11.844 11.5Z"></path></g></svg>