<?xml version="1.0" encoding="UTF-8"?><svg version="1.1" viewBox="0 0 500 500" xmlns="http://www.w3.org/2000/svg" xmlns:xlink="http://www.w3.org/1999/xlink"><defs><linearGradient id="a" x1="236" x2="236" gradientUnits="userSpaceOnUse" y1="102" y2="310"><stop offset="0%" stop-color="#035C9C"></stop><stop offset="100%" stop-color="#0A3D62"></stop></linearGradient></defs><ellipse rx="177" ry="10" cx="250.19" cy="428.709" transform="matrix(.999708 -.0241778 .0241778 .999708 -10.2921 6.17436)" fill="#F2C47F"></ellipse><rect width="7" height="68" x="223" y="299" rx="1.93298" ry="0" fill="#0C0C0C"></rect><rect width="7" height="68" x="242" y="298" rx="1.93298" ry="0" fill="#0C0C0C"></rect><rect width="208" height="208" x="132" y="102" rx="18.2252" ry="0" fill="url(#a)"></rect><g stroke-width="2" fill="#FFF" stroke="#000"><circle cx="236" cy="206" r="71"></circle><circle cx="236" cy="206" r="42" fill="#15649C"></circle></g><circle cx="236" cy="206" r="26" fill="#010101"></circle><circle cx="252" cy="193" r="12" stroke-width="2" fill="#FFF" stroke="#000"></circle><path fill="#4E4E4E" d="M211 356h14v10h-14Z"></path><g fill="#4E4E4E"><path d="M211 369h14v10h-14Z"></path><path d="M211 382h14v10h-14Z"></path><path d="M211 395h14v10h-14Z"></path><path d="M211 408h14v10h-14Z"></path><path d="M247 356h14v10h-14Z"></path><path d="M247 369h14v10h-14Z"></path><path d="M247 382h14v10h-14Z"></path><path d="M247 395h14v10h-14Z"></path><path d="M247 408h14v10h-14Z"></path></g><path fill="#131313" d="M218 351h36v70h-36Z"></path></svg>