<?xml version="1.0" encoding="UTF-8"?><svg version="1.1" viewBox="0 0 500 500" xmlns="http://www.w3.org/2000/svg" xmlns:xlink="http://www.w3.org/1999/xlink"><ellipse rx="177" ry="10" cx="250.19" cy="448.709" transform="matrix(.999708 -.0241778 .0241778 .999708 -10.7757 6.18021)" fill="#F2C47F"></ellipse><path fill="#127D00" stroke="#000" stroke-width="2" d="M260.224 79.8657l-9.819 29.6283 3.887 2.478 9.529-30.5852Z"></path><circle cx="268.325" cy="66.9567" r="15" transform="matrix(.956908 -.290392 .290392 .956908 -7.88097 80.8046)" stroke-width="2" fill="#127D00" stroke="#000"></circle><path fill="#0B4402" d="M277.023 61.1823c1.443 4.7563-2.527 5.9919-8.076 7.6759 -5.549 1.684-10.576 3.1787-12.019-1.5777 -1.444-4.7564 1.421-10.8816 6.97-12.5656 5.549-1.684 11.681 1.711 13.125 6.4674Z"></path><g stroke-width="2" fill="#127D00" stroke="#000"><rect width="23" height="203" x="210" y="244" rx="6.35122" ry="0"></rect><rect width="23" height="207" x="267" y="240" rx="6.35122" ry="0"></rect><rect width="134" height="250" x="183" y="100" rx="37.0028" ry="0"></rect><circle cx="250" cy="185" r="43" fill="#FFF"></circle><circle cx="250" cy="185" r="25"></circle></g><circle cx="250" cy="185" r="16" fill="#010101"></circle><g stroke-width="2" fill="#FFF" stroke="#000"><circle cx="260" cy="177" r="7"></circle><path fill="#044237" d="M191 267c33.5 16 74.8 8.6 122-17 -39.6 48.346-97.833 31.478-122 17Z"></path><path d="M262.275 281.368c11.725-14.801-.775-9.801-.775-9.801l-16.5 3 -16 1.5c.508 10 21.55 20.102 33.275 5.301Z"></path></g><path fill="#135808" d="M279 125c0 4.971-11.484 5-27.5 5 -16.016 0-30.5-.029-30.5-5 0-4.971 12.484-10 28.5-10 16.016 0 29.5 5.029 29.5 10Z"></path></svg>