<svg xmlns="http://www.w3.org/2000/svg" width="32" height="32" fill="none" viewBox="0 0 32 32">
  <g clip-path="url(#a)">
    <path fill="#000001" d="M32 12.19h-1.52v7.62H32v-7.62Zm-1.52 7.62h-1.52v3.05h1.52v-3.05Zm0-10.66h-1.52v3.04h1.52V9.15Zm-1.52 13.71h-1.53v3.05h1.53v-3.05Zm0-16.76h-1.53v3.05h1.53V6.1Zm-1.53 19.81h-1.52v1.52h1.52v-1.52Zm0-10.67h-1.52v1.53h-1.52v1.52h1.52v1.52h1.52v-1.52h1.53v-1.52h-1.53v-1.53Zm0-10.66h-1.52V6.1h1.52V4.58Zm-1.52 6.09h-1.52v1.52h1.52v-1.52Zm0 16.76h-3.05v1.53h3.05v-1.53Zm-1.52-6.09h-1.53v1.52h1.53v-1.52Zm1.52-18.29h-3.05v1.53h3.05V3.05ZM22.86 6.1h-1.52v1.52h1.52V6.1Zm0 22.86h-3.05v1.52h3.05v-1.52Zm0-27.43h-3.05v1.52h3.05V1.53Zm-3.05 18.28h-1.52v1.53h-1.52v1.52h1.52v1.52h1.52v-1.52h1.53v-1.52h-1.53v-1.53Zm0 10.67H12.2V32h7.61v-1.52Zm-4.57-10.67h-1.52v1.53h1.52v-1.53Zm-1.52-1.52h1.52v1.52h1.53v-1.52h1.52v-1.52h1.52v-1.53h1.53v-1.52h1.52v-1.53h-1.52v-1.52h-1.53V9.15h-1.52v1.52h-1.52v1.52h-1.53v1.53h-1.52v1.52H12.2v1.53h1.52v1.52Zm1.52-15.24h-1.52v1.53H12.2V6.1h1.52v1.52h1.52V6.1h1.53V4.58h-1.53V3.05ZM19.81 0H12.2v1.53h7.61V0Zm-6.09 21.34H12.2v1.52h1.52v-1.52Zm-1.52 7.62H9.15v1.52h3.05v-1.52Zm0-6.1h-1.53v1.52h1.53v-1.52Zm0-6.09h-1.53v1.52h1.53v-1.52Zm0-7.62h-1.53v1.52h1.53V9.15Zm0-7.62H9.15v1.52h3.05V1.53Zm-1.53 22.85H9.15v1.53h1.52v-1.53Zm0-6.09H9.15v1.52h1.52v-1.52Zm-3.05 7.62v1.52H6.1v1.53h3.05v-3.05H7.62Zm1.53-6.1H7.62v1.53h1.53v-1.53Zm0-16.76H6.1v1.53h3.05V3.05ZM7.62 21.34H6.1v1.52h1.52v-1.52Zm0-12.19H6.1v1.52H4.58v1.52H6.1v1.53h1.52v-1.53h1.53v-1.52H7.62V9.15ZM6.1 25.91H4.58v1.52H6.1v-1.52Zm0-1.53v-1.52H3.05v3.05h1.53v-1.53H6.1Zm0-19.8H4.58V6.1H6.1V4.58ZM4.58 6.1H3.05v3.05h1.53V6.1ZM3.05 19.81H1.53v3.05h1.52v-3.05Zm0-10.66H1.53v3.04h1.52V9.15Zm-1.52 3.04H0v7.62h1.53v-7.62Z"/>
  </g>
  <defs>
    <clipPath id="a">
      <path fill="#fff" d="M0 0h32v32H0z"/>
    </clipPath>
  </defs>
</svg>
