<svg xmlns="http://www.w3.org/2000/svg" width="32" height="32" fill="none" viewBox="0 0 32 32">
  <g clip-path="url(#a)">
    <path fill="#000001" d="M19.05 13.72v1.52h1.52v6.1h1.52v-6.1h7.62v9.14h1.53V7.62h-1.53v6.1H19.05Z"/>
    <path fill="#000001" d="M29.71 24.38h-1.52v1.53h1.52v-1.53Zm0-18.28h-1.52v1.52h1.52V6.1Zm-1.52 3.05h-1.52v1.52h1.52V9.15Zm0 16.76H3.81v1.52h24.38v-1.52Zm-1.52-15.24h-4.58v1.52h4.58v-1.52Zm0-3.05h-4.58v1.53h4.58V7.62Zm-4.58 1.53h-1.52v1.52h1.52V9.15Zm-1.52 12.19h-1.52v1.52h1.52v-1.52Zm7.62-16.77H17.52V6.1h10.67V4.57ZM14.48 21.34h3.04v-1.53h1.53v-3.05h-1.53v1.53H16v-1.53h1.52v-1.52h-3.04v1.52h-1.53v3.05h1.53v1.53Zm4.57-9.15h-6.1v1.53h6.1v-1.53Zm0 10.67h-6.1v1.52h6.1v-1.52ZM17.52 6.1H16v1.52h1.52V6.1Zm-4.57 15.24h-1.52v1.52h1.52v-1.52Zm0-16.77H8.38V6.1h4.57V4.57Zm-4.57 6.1H5.33v1.52h3.05v-1.52ZM16 9.15V7.62h-1.52V6.1h-1.53v1.52H8.38V6.1H6.86v1.52H3.81v1.53H16ZM3.81 24.38H2.28v1.53h1.53v-1.53Zm0-15.23H2.28v1.52h1.53V9.15Z"/>
    <path fill="#000001" d="M2.28 15.24H9.9v6.1h1.53v-6.1h1.52v-1.52H2.28v-3.05H.76v13.71h1.52v-9.14Z"/>
  </g>
  <defs>
    <clipPath id="a">
      <path fill="#fff" d="M0 0h32v32H0z"/>
    </clipPath>
  </defs>
</svg>
