<svg xmlns="http://www.w3.org/2000/svg" width="32" height="32" fill="none" viewBox="0 0 32 32">
  <g clip-path="url(#a)">
    <path fill="#000001" d="M31.24 3.81h-1.52v25.91h1.52V3.81Zm-1.52 25.91H3.81v1.52h25.91v-1.52ZM28.19 2.29h-1.52v24.38h1.52V2.29Zm-4.57 12.19h-3.05V16h3.05v4.57h1.53V5.34h-1.53v9.14Zm-3.05 4.57h-1.52v1.52H5.34v1.53h18.28v-1.53h-3.05v-1.52Zm0-3.05h-1.52v1.53h1.52V16Zm-1.52 1.53h-1.52v1.52h1.52v-1.52Z"/>
    <path fill="#000001" d="M17.53 12.95h3.04v-1.52h1.53V8.38h-1.53V6.86h-3.04v1.52H16v3.05h1.53v1.52Zm0 3.05H16v1.53h1.53V16ZM16 14.48h-1.52V16H16v-1.52Zm-1.52-1.53h-1.52v1.53h1.52v-1.53Zm-1.52-1.52H9.91v1.52h3.05v-1.52Zm-3.05 1.52H8.38v1.53h1.53v-1.53Zm-1.53 1.53H6.86V16h1.52v-1.52ZM23.62 3.81H5.34v1.53h18.28V3.81ZM5.34 17.53h1.52V16H5.34V5.34H3.81v15.23h1.53v-3.04ZM26.67.76H2.29v1.53h24.38V.76Zm0 25.91H2.29v1.52h24.38v-1.52ZM2.29 2.29H.76v24.38h1.53V2.29Z"/>
  </g>
  <defs>
    <clipPath id="a">
      <path fill="#fff" d="M0 0h32v32H0z"/>
    </clipPath>
  </defs>
</svg>
