<svg width="24" height="24" viewBox="0 0 24 24" fill="none" xmlns="http://www.w3.org/2000/svg">
<rect x="22" y="5" width="4" height="2" transform="rotate(90 22 5)" fill="black"></rect>
<rect x="22" y="3" width="2" height="16" transform="rotate(90 22 3)" fill="black"></rect>
<rect x="8" y="5" width="4" height="2" transform="rotate(90 8 5)" fill="black"></rect>
<rect x="22" y="9" width="2" height="16" transform="rotate(90 22 9)" fill="black"></rect>
<rect x="15" y="15" width="4" height="2" transform="rotate(90 15 15)" fill="black"></rect>
<rect x="15" y="13" width="2" height="9" transform="rotate(90 15 13)" fill="black"></rect>
<rect x="8" y="15" width="4" height="2" transform="rotate(90 8 15)" fill="black"></rect>
<rect x="15" y="19" width="2" height="9" transform="rotate(90 15 19)" fill="black"></rect>
<rect x="4" y="2" width="20" height="2" transform="rotate(90 4 2)" fill="black"></rect>
</svg>