<svg width="24" height="24" viewBox="0 0 24 24" fill="none" xmlns="http://www.w3.org/2000/svg">
<rect x="9" y="10" width="2" height="2" fill="black"></rect>
<rect x="11" y="8" width="2" height="2" fill="black"></rect>
<rect x="13" y="6" width="2" height="2" fill="black"></rect>
<rect x="9" y="6" width="2" height="2" fill="black"></rect>
<rect x="6" y="13" width="6" height="2" fill="black"></rect>
<rect x="8" y="15" width="2" height="2" fill="black"></rect>
<rect x="13" y="11" width="2" height="2" fill="black"></rect>
<rect x="15" y="13" width="2" height="2" fill="black"></rect>
<rect x="14" y="15" width="2" height="2" fill="black"></rect>
<rect x="17" y="13" width="1" height="2" fill="black"></rect>
<rect x="6" y="2" width="12" height="2" fill="black"></rect>
<rect x="6" y="20" width="12" height="2" fill="black"></rect>
<rect x="2" y="6" width="2" height="12" fill="black"></rect>
<rect x="20" y="6" width="2" height="12" fill="black"></rect>
<rect x="18" y="4" width="2" height="2" fill="black"></rect>
<rect x="18" y="18" width="2" height="2" fill="black"></rect>
<rect x="4" y="4" width="2" height="2" fill="black"></rect>
<rect x="4" y="18" width="2" height="2" fill="black"></rect>
</svg>