<svg width="24" height="24" viewBox="0 0 24 24" fill="none" xmlns="http://www.w3.org/2000/svg">
<rect y="5" width="6" height="2" fill="black"></rect>
<rect x="4" y="3" width="12" height="2" fill="black"></rect>
<rect x="14" y="5" width="6" height="2" fill="black"></rect>
<rect y="7" width="2" height="12" fill="black"></rect>
<rect y="19" width="14" height="2" fill="black"></rect>
<rect x="18" y="7" width="2" height="5" fill="black"></rect>
<rect x="8" y="8" width="4" height="2" fill="black"></rect>
<rect x="8" y="14" width="4" height="2" fill="black"></rect>
<rect x="6" y="10" width="2" height="4" fill="black"></rect>
<rect x="12" y="10" width="2" height="4" fill="black"></rect>
<rect x="16" y="14" width="2" height="10" fill="black"></rect>
<rect x="18" y="14" width="2" height="2" fill="black"></rect>
<rect x="20" y="16" width="2" height="2" fill="black"></rect>
<rect x="22" y="18" width="2" height="2" fill="black"></rect>
<rect x="20" y="20" width="2" height="2" fill="black"></rect>
<rect x="18" y="22" width="2" height="2" fill="black"></rect>
</svg>