<svg width="24" height="24" viewBox="0 0 24 24" fill="none" xmlns="http://www.w3.org/2000/svg">
<rect x="5" y="5" width="2" height="6" fill="black"></rect>
<rect x="5" y="15" width="2" height="5" fill="black"></rect>
<rect x="13" y="5" width="2" height="6" fill="black"></rect>
<rect x="13" y="15" width="2" height="5" fill="black"></rect>
<rect x="5" y="19" width="6" height="2" fill="black"></rect>
<rect x="13" y="19" width="6" height="2" fill="black"></rect>
<rect x="9" y="5" width="2" height="6" fill="black"></rect>
<rect x="9" y="15" width="2" height="5" fill="black"></rect>
<rect x="17" y="5" width="2" height="6" fill="black"></rect>
<rect x="17" y="15" width="2" height="5" fill="black"></rect>
<rect x="7" y="3" width="2" height="2" fill="black"></rect>
<rect x="15" y="3" width="2" height="2" fill="black"></rect>
<rect x="3" y="11" width="18" height="2" fill="black"></rect>
<rect x="3" y="15" width="18" height="2" fill="black"></rect>
<rect x="1" y="13" width="2" height="2" fill="black"></rect>
<rect x="21" y="13" width="2" height="2" fill="black"></rect>
</svg>