<svg width="24" height="24" viewBox="0 0 24 24" fill="none" xmlns="http://www.w3.org/2000/svg">
<rect x="2" y="14" width="20" height="2" fill="black"></rect>
<rect x="2" y="16" width="2" height="4" fill="black"></rect>
<rect x="4" y="20" width="16" height="2" fill="black"></rect>
<rect x="20" y="16" width="2" height="4" fill="black"></rect>
<rect x="3" y="10" width="2" height="2" fill="black"></rect>
<rect width="2" height="2" transform="matrix(-1 0 0 1 21 10)" fill="black"></rect>
<rect x="5" y="8" width="2" height="2" fill="black"></rect>
<rect width="2" height="2" transform="matrix(-1 0 0 1 19 8)" fill="black"></rect>
<rect x="7" y="10" width="2" height="4" fill="black"></rect>
<rect width="2" height="4" transform="matrix(-1 0 0 1 17 10)" fill="black"></rect>
<rect x="11" y="6" width="2" height="8" fill="black"></rect>
<rect x="13" y="4" width="2" height="2" fill="black"></rect>
<rect x="9" y="4" width="2" height="2" fill="black"></rect>
<rect x="5" y="2" width="4" height="2" fill="black"></rect>
<rect x="3" y="4" width="2" height="2" fill="black"></rect>
<rect x="15" y="2" width="4" height="2" fill="black"></rect>
<rect x="19" y="4" width="2" height="2" fill="black"></rect>
</svg>