<svg width="24" height="24" viewBox="0 0 24 24" fill="none" xmlns="http://www.w3.org/2000/svg">
<rect x="2" y="3" width="20" height="2" fill="black"></rect>
<rect x="2" y="5" width="2" height="14" fill="black"></rect>
<rect x="2" y="19" width="10" height="2" fill="black"></rect>
<rect x="20" y="5" width="2" height="6" fill="black"></rect>
<rect x="8" y="7" width="2" height="8" fill="black"></rect>
<rect x="10" y="7" width="2" height="2" fill="black"></rect>
<rect x="12" y="9" width="2" height="2" fill="black"></rect>
<rect x="14" y="11" width="2" height="2" fill="black"></rect>
<rect x="12" y="13" width="2" height="2" fill="black"></rect>
<rect x="8" y="15" width="4" height="2" fill="black"></rect>
<rect x="18" y="13" width="2" height="2" fill="black"></rect>
<rect x="18" y="21" width="2" height="2" fill="black"></rect>
<rect x="14" y="17" width="2" height="2" fill="black"></rect>
<rect x="22" y="17" width="2" height="2" fill="black"></rect>
<rect x="16" y="15" width="2" height="2" fill="black"></rect>
<rect x="20" y="15" width="2" height="2" fill="black"></rect>
<rect x="20" y="19" width="2" height="2" fill="black"></rect>
<rect x="16" y="19" width="2" height="2" fill="black"></rect>
</svg>