<svg width="24" height="24" viewBox="0 0 24 24" fill="none" xmlns="http://www.w3.org/2000/svg">
<rect x="4" y="14" width="2" height="6" fill="black"></rect>
<rect x="9" y="14" width="2" height="6" fill="black"></rect>
<rect x="4" y="12" width="7" height="2" fill="black"></rect>
<rect x="4" y="20" width="7" height="2" fill="black"></rect>
<rect x="2" y="16" width="2" height="2" fill="black"></rect>
<rect x="22" y="8" width="4" height="2" transform="rotate(180 22 8)" fill="black"></rect>
<rect x="10" y="16" width="12" height="2" fill="black"></rect>
<rect x="15" y="8" width="13" height="2" transform="rotate(180 15 8)" fill="black"></rect>
<rect x="20" y="4" width="2" height="2" transform="rotate(90 20 4)" fill="black"></rect>
<rect width="2" height="2" transform="matrix(-6.55671e-08 -1 -1 2.91409e-08 20 10)" fill="black"></rect>
<rect x="13" y="2" width="7" height="2" fill="black"></rect>
<rect width="7" height="2" transform="matrix(1 0 0 -1 13 12)" fill="black"></rect>
<rect x="13" y="4" width="2" height="2" fill="black"></rect>
<rect width="2" height="2" transform="matrix(1 0 0 -1 13 10)" fill="black"></rect>
</svg>