<svg width="24" height="24" viewBox="0 0 24 24" fill="none" xmlns="http://www.w3.org/2000/svg">
<rect x="4" y="3" width="6" height="2" fill="black"></rect>
<rect x="2" y="3" width="2" height="8" fill="black"></rect>
<rect x="4" y="9" width="4" height="2" fill="black"></rect>
<rect x="6" y="9" width="2" height="10" fill="black"></rect>
<rect x="16" y="9" width="2" height="4" fill="black"></rect>
<rect x="16" y="9" width="4" height="2" fill="black"></rect>
<rect x="20" y="3" width="2" height="8" fill="black"></rect>
<rect x="14" y="3" width="6" height="2" fill="black"></rect>
<rect x="8" y="5" width="8" height="2" fill="black"></rect>
<rect x="10" y="15" width="4" height="2" fill="black"></rect>
<rect x="10" y="19" width="4" height="2" fill="black"></rect>
<rect x="14" y="17" width="4" height="2" fill="black"></rect>
<rect x="14" y="21" width="4" height="2" fill="black"></rect>
<rect x="18" y="15" width="4" height="2" fill="black"></rect>
<rect x="18" y="19" width="4" height="2" fill="black"></rect>
</svg>