<svg width="24" height="24" viewBox="0 0 24 24" fill="none" xmlns="http://www.w3.org/2000/svg">
<rect x="6" y="11" width="2" height="5" fill="black"></rect>
<rect x="8" y="9" width="2" height="2" fill="black"></rect>
<rect x="10" y="7" width="4" height="2" fill="black"></rect>
<rect x="14" y="9" width="2" height="2" fill="black"></rect>
<rect x="16" y="11" width="2" height="5" fill="black"></rect>
<rect x="6" y="16" width="12" height="2" fill="black"></rect>
<rect x="4" y="20" width="16" height="2" fill="black"></rect>
<rect x="4" y="18" width="2" height="2" fill="black"></rect>
<rect x="18" y="18" width="2" height="2" fill="black"></rect>
<rect x="11" y="12" width="2" height="4" fill="black"></rect>
<rect x="20" y="11" width="3" height="2" fill="black"></rect>
<rect x="1" y="11" width="3" height="2" fill="black"></rect>
<rect x="6" y="5" width="2" height="2" fill="black"></rect>
<rect x="16" y="5" width="2" height="2" fill="black"></rect>
<rect x="18" y="3" width="2" height="2" fill="black"></rect>
<rect x="4" y="3" width="2" height="2" fill="black"></rect>
<rect x="11" y="2" width="2" height="3" fill="black"></rect>
</svg>