<svg width="24" height="24" viewBox="0 0 24 24" fill="none" xmlns="http://www.w3.org/2000/svg">
<rect x="1" y="19" width="22" height="2" fill="black"></rect>
<rect x="3" y="17" width="2" height="3" fill="black"></rect>
<rect x="5" y="14" width="2" height="3" fill="black"></rect>
<rect x="7" y="11" width="2" height="3" fill="black"></rect>
<rect x="9" y="8" width="2" height="3" fill="black"></rect>
<rect x="11" y="5" width="2" height="3" fill="black"></rect>
<rect x="9" y="3" width="2" height="2" fill="black"></rect>
<rect x="13" y="8" width="2" height="3" fill="black"></rect>
<rect x="15" y="11" width="2" height="3" fill="black"></rect>
<rect x="17" y="14" width="2" height="3" fill="black"></rect>
<rect x="19" y="17" width="2" height="3" fill="black"></rect>
<rect x="9" y="17" width="2" height="2" fill="black"></rect>
<rect x="13" y="17" width="2" height="2" fill="black"></rect>
<rect x="11" y="15" width="2" height="2" fill="black"></rect>
<rect x="13" y="3" width="2" height="2" fill="black"></rect>
</svg>