<svg width="24" height="24" viewBox="0 0 24 24" fill="none" xmlns="http://www.w3.org/2000/svg">
<rect width="2" height="12" transform="matrix(-1 0 0 1 22 10)" fill="black"></rect>
<rect width="14" height="2" transform="matrix(-1 0 0 1 20 20)" fill="black"></rect>
<rect width="2" height="4" transform="matrix(-1 0 0 1 6 16)" fill="black"></rect>
<rect width="2" height="4" transform="matrix(-1 0 0 1 4 12)" fill="black"></rect>
<rect width="6" height="2" transform="matrix(-1 0 0 1 10 10)" fill="black"></rect>
<rect width="2" height="2" transform="matrix(-1 0 0 1 10 8)" fill="black"></rect>
<rect width="2" height="4" transform="matrix(-1 0 0 1 8 4)" fill="black"></rect>
<rect width="2" height="2" transform="matrix(-1 0 0 1 10 2)" fill="black"></rect>
<rect width="2" height="2" transform="matrix(-1 0 0 1 12 4)" fill="black"></rect>
<rect width="2" height="2" transform="matrix(-1 0 0 1 14 6)" fill="black"></rect>
<rect width="2" height="2" transform="matrix(-1 0 0 1 16 8)" fill="black"></rect>
<rect width="4" height="2" transform="matrix(-1 0 0 1 20 10)" fill="black"></rect>
<rect width="2" height="8" transform="matrix(-1 0 0 1 18 12)" fill="black"></rect>
</svg>