<svg xmlns="http://www.w3.org/2000/svg" width="24" height="24" viewBox="0 0 24 24">
  <g id="arrow-right-circle" transform="translate(10263.059 594.195)">
    <rect id="Rectangle_151826" data-name="Rectangle 151826" width="24" height="24" transform="translate(-10263.059 -594.195)" fill="#fff"/>
    <path id="arrow-right-circle-2" data-name="arrow-right-circle" d="M7,1h8V2h2V3h1V4h1V5h1V7h1v8H20v2H19v1H18v1H17v1H15v1H7V20H5V19H4V18H3V17H2V15H1V7H2V5H3V4H4V3H5V2H7ZM6,5H5V6H4V8H3v6H4v2H5v1H6v1H8v1h6V18h2V17h1V16h1V14h1V8H18V6H17V5H16V4H14V3H8V4H6Zm4,1h2V7h1V8h1V9h1v1h1v2H15v1H14v1H13v1H12v1H10V14h1V13h1V12H6V10h6V9H11V8H10Z" transform="translate(-10262.059 -593.195)"/>
  </g>
</svg>
