<svg xmlns="http://www.w3.org/2000/svg" width="24" height="24" viewBox="0 0 24 24">
  <g id="arrow6" transform="translate(10375.06 986.195)">
    <rect id="Rectangle_152048" data-name="Rectangle 152048" width="24" height="24" transform="translate(-10375.06 -986.195)" fill="#fff"/>
    <g id="arrow6-2" data-name="arrow6" transform="translate(-19643.746 -2211.916)">
      <rect id="Rectangle_150946" data-name="Rectangle 150946" width="2" height="2" transform="translate(9280.687 1228.721)"/>
      <rect id="Rectangle_150947" data-name="Rectangle 150947" width="2" height="2" transform="translate(9280.687 1230.722)"/>
      <rect id="Rectangle_150948" data-name="Rectangle 150948" width="2" height="2" transform="translate(9282.687 1230.722)"/>
      <rect id="Rectangle_150949" data-name="Rectangle 150949" width="2" height="2" transform="translate(9270.687 1232.721)"/>
      <rect id="Rectangle_150950" data-name="Rectangle 150950" width="2" height="2" transform="translate(9272.687 1232.721)"/>
      <rect id="Rectangle_150951" data-name="Rectangle 150951" width="2" height="2" transform="translate(9274.687 1232.721)"/>
      <rect id="Rectangle_150952" data-name="Rectangle 150952" width="2" height="2" transform="translate(9276.687 1232.721)"/>
      <rect id="Rectangle_150953" data-name="Rectangle 150953" width="2" height="2" transform="translate(9278.687 1232.721)"/>
      <rect id="Rectangle_150954" data-name="Rectangle 150954" width="2" height="2" transform="translate(9280.687 1232.721)"/>
      <rect id="Rectangle_150955" data-name="Rectangle 150955" width="2" height="2" transform="translate(9282.687 1232.721)"/>
      <rect id="Rectangle_150956" data-name="Rectangle 150956" width="2" height="2" transform="translate(9284.687 1232.721)"/>
      <rect id="Rectangle_150957" data-name="Rectangle 150957" width="2" height="2" transform="translate(9270.687 1234.721)"/>
      <rect id="Rectangle_150958" data-name="Rectangle 150958" width="2" height="2" transform="translate(9272.687 1234.721)"/>
      <rect id="Rectangle_150959" data-name="Rectangle 150959" width="2" height="2" transform="translate(9274.687 1234.721)"/>
      <rect id="Rectangle_150960" data-name="Rectangle 150960" width="2" height="2" transform="translate(9276.687 1234.721)"/>
      <rect id="Rectangle_150961" data-name="Rectangle 150961" width="2" height="2" transform="translate(9278.687 1234.721)"/>
      <rect id="Rectangle_150962" data-name="Rectangle 150962" width="2" height="2" transform="translate(9280.687 1234.721)"/>
      <rect id="Rectangle_150963" data-name="Rectangle 150963" width="2" height="2" transform="translate(9282.687 1234.721)"/>
      <rect id="Rectangle_150964" data-name="Rectangle 150964" width="2" height="2" transform="translate(9284.687 1234.721)"/>
      <rect id="Rectangle_150965" data-name="Rectangle 150965" width="2" height="2" transform="translate(9286.687 1234.721)"/>
      <rect id="Rectangle_150966" data-name="Rectangle 150966" width="2" height="2" transform="translate(9270.687 1236.721)"/>
      <rect id="Rectangle_150967" data-name="Rectangle 150967" width="2" height="2" transform="translate(9272.687 1236.721)"/>
      <rect id="Rectangle_150968" data-name="Rectangle 150968" width="2" height="2" transform="translate(9274.687 1236.721)"/>
      <rect id="Rectangle_150969" data-name="Rectangle 150969" width="2" height="2" transform="translate(9276.687 1236.721)"/>
      <rect id="Rectangle_150970" data-name="Rectangle 150970" width="2" height="2" transform="translate(9278.687 1236.721)"/>
      <rect id="Rectangle_150971" data-name="Rectangle 150971" width="2" height="2" transform="translate(9280.687 1236.721)"/>
      <rect id="Rectangle_150972" data-name="Rectangle 150972" width="2" height="2" transform="translate(9282.687 1236.721)"/>
      <rect id="Rectangle_150973" data-name="Rectangle 150973" width="2" height="2" transform="translate(9284.687 1236.721)"/>
      <rect id="Rectangle_150974" data-name="Rectangle 150974" width="2" height="2" transform="translate(9286.687 1236.721)"/>
      <rect id="Rectangle_150975" data-name="Rectangle 150975" width="2" height="2" transform="translate(9288.687 1236.721)"/>
      <rect id="Rectangle_150976" data-name="Rectangle 150976" width="2" height="2" transform="translate(9270.687 1238.721)"/>
      <rect id="Rectangle_150977" data-name="Rectangle 150977" width="2" height="2" transform="translate(9272.687 1238.721)"/>
      <rect id="Rectangle_150978" data-name="Rectangle 150978" width="2" height="2" transform="translate(9274.687 1238.721)"/>
      <rect id="Rectangle_150979" data-name="Rectangle 150979" width="2" height="2" transform="translate(9276.687 1238.721)"/>
      <rect id="Rectangle_150980" data-name="Rectangle 150980" width="2" height="2" transform="translate(9278.687 1238.721)"/>
      <rect id="Rectangle_150981" data-name="Rectangle 150981" width="2" height="2" transform="translate(9280.687 1238.721)"/>
      <rect id="Rectangle_150982" data-name="Rectangle 150982" width="2" height="2" transform="translate(9282.687 1238.721)"/>
      <rect id="Rectangle_150983" data-name="Rectangle 150983" width="2" height="2" transform="translate(9284.687 1238.721)"/>
      <rect id="Rectangle_150984" data-name="Rectangle 150984" width="2" height="2" transform="translate(9286.687 1238.721)"/>
      <rect id="Rectangle_150985" data-name="Rectangle 150985" width="2" height="2" transform="translate(9270.687 1240.722)"/>
      <rect id="Rectangle_150986" data-name="Rectangle 150986" width="2" height="2" transform="translate(9272.687 1240.722)"/>
      <rect id="Rectangle_150987" data-name="Rectangle 150987" width="2" height="2" transform="translate(9274.687 1240.722)"/>
      <rect id="Rectangle_150988" data-name="Rectangle 150988" width="2" height="2" transform="translate(9276.687 1240.722)"/>
      <rect id="Rectangle_150989" data-name="Rectangle 150989" width="2" height="2" transform="translate(9278.687 1240.722)"/>
      <rect id="Rectangle_150990" data-name="Rectangle 150990" width="2" height="2" transform="translate(9280.687 1240.722)"/>
      <rect id="Rectangle_150991" data-name="Rectangle 150991" width="2" height="2" transform="translate(9282.687 1240.722)"/>
      <rect id="Rectangle_150992" data-name="Rectangle 150992" width="2" height="2" transform="translate(9284.687 1240.722)"/>
      <rect id="Rectangle_150993" data-name="Rectangle 150993" width="2" height="2" transform="translate(9280.687 1242.722)"/>
      <rect id="Rectangle_150994" data-name="Rectangle 150994" width="2" height="2" transform="translate(9282.687 1242.722)"/>
      <rect id="Rectangle_150995" data-name="Rectangle 150995" width="2" height="2" transform="translate(9280.687 1244.722)"/>
      <rect id="Rectangle_150996" data-name="Rectangle 150996" width="2" height="2" transform="translate(9278.687 1228.721)"/>
      <rect id="Rectangle_150997" data-name="Rectangle 150997" width="2" height="2" transform="translate(9278.687 1230.721)"/>
      <rect id="Rectangle_150998" data-name="Rectangle 150998" width="2" height="2" transform="translate(9278.687 1242.721)"/>
      <rect id="Rectangle_150999" data-name="Rectangle 150999" width="2" height="2" transform="translate(9278.687 1244.721)"/>
      <rect id="Rectangle_151434" data-name="Rectangle 151434" width="2" height="2" transform="translate(9280.687 1228.721)"/>
      <rect id="Rectangle_151435" data-name="Rectangle 151435" width="2" height="2" transform="translate(9280.687 1230.722)"/>
      <rect id="Rectangle_151436" data-name="Rectangle 151436" width="2" height="2" transform="translate(9282.687 1230.722)"/>
      <rect id="Rectangle_151437" data-name="Rectangle 151437" width="2" height="2" transform="translate(9270.687 1232.721)"/>
      <rect id="Rectangle_151438" data-name="Rectangle 151438" width="2" height="2" transform="translate(9272.687 1232.721)"/>
      <rect id="Rectangle_151439" data-name="Rectangle 151439" width="2" height="2" transform="translate(9274.687 1232.721)"/>
      <rect id="Rectangle_151440" data-name="Rectangle 151440" width="2" height="2" transform="translate(9276.687 1232.721)"/>
      <rect id="Rectangle_151441" data-name="Rectangle 151441" width="2" height="2" transform="translate(9278.687 1232.721)"/>
      <rect id="Rectangle_151442" data-name="Rectangle 151442" width="2" height="2" transform="translate(9280.687 1232.721)"/>
      <rect id="Rectangle_151443" data-name="Rectangle 151443" width="2" height="2" transform="translate(9282.687 1232.721)"/>
      <rect id="Rectangle_151444" data-name="Rectangle 151444" width="2" height="2" transform="translate(9284.687 1232.721)"/>
      <rect id="Rectangle_151445" data-name="Rectangle 151445" width="2" height="2" transform="translate(9270.687 1234.721)"/>
      <rect id="Rectangle_151446" data-name="Rectangle 151446" width="2" height="2" transform="translate(9272.687 1234.721)"/>
      <rect id="Rectangle_151447" data-name="Rectangle 151447" width="2" height="2" transform="translate(9274.687 1234.721)"/>
      <rect id="Rectangle_151448" data-name="Rectangle 151448" width="2" height="2" transform="translate(9276.687 1234.721)"/>
      <rect id="Rectangle_151449" data-name="Rectangle 151449" width="2" height="2" transform="translate(9278.687 1234.721)"/>
      <rect id="Rectangle_151450" data-name="Rectangle 151450" width="2" height="2" transform="translate(9280.687 1234.721)"/>
      <rect id="Rectangle_151451" data-name="Rectangle 151451" width="2" height="2" transform="translate(9282.687 1234.721)"/>
      <rect id="Rectangle_151452" data-name="Rectangle 151452" width="2" height="2" transform="translate(9284.687 1234.721)"/>
      <rect id="Rectangle_151453" data-name="Rectangle 151453" width="2" height="2" transform="translate(9286.687 1234.721)"/>
      <rect id="Rectangle_151454" data-name="Rectangle 151454" width="2" height="2" transform="translate(9270.687 1236.721)"/>
      <rect id="Rectangle_151455" data-name="Rectangle 151455" width="2" height="2" transform="translate(9272.687 1236.721)"/>
      <rect id="Rectangle_151456" data-name="Rectangle 151456" width="2" height="2" transform="translate(9274.687 1236.721)"/>
      <rect id="Rectangle_151457" data-name="Rectangle 151457" width="2" height="2" transform="translate(9276.687 1236.721)"/>
      <rect id="Rectangle_151458" data-name="Rectangle 151458" width="2" height="2" transform="translate(9278.687 1236.721)"/>
      <rect id="Rectangle_151459" data-name="Rectangle 151459" width="2" height="2" transform="translate(9280.687 1236.721)"/>
      <rect id="Rectangle_151460" data-name="Rectangle 151460" width="2" height="2" transform="translate(9282.687 1236.721)"/>
      <rect id="Rectangle_151461" data-name="Rectangle 151461" width="2" height="2" transform="translate(9284.687 1236.721)"/>
      <rect id="Rectangle_151462" data-name="Rectangle 151462" width="2" height="2" transform="translate(9286.687 1236.721)"/>
      <rect id="Rectangle_151463" data-name="Rectangle 151463" width="2" height="2" transform="translate(9288.687 1236.721)"/>
      <rect id="Rectangle_151464" data-name="Rectangle 151464" width="2" height="2" transform="translate(9270.687 1238.721)"/>
      <rect id="Rectangle_151465" data-name="Rectangle 151465" width="2" height="2" transform="translate(9272.687 1238.721)"/>
      <rect id="Rectangle_151466" data-name="Rectangle 151466" width="2" height="2" transform="translate(9274.687 1238.721)"/>
      <rect id="Rectangle_151467" data-name="Rectangle 151467" width="2" height="2" transform="translate(9276.687 1238.721)"/>
      <rect id="Rectangle_151468" data-name="Rectangle 151468" width="2" height="2" transform="translate(9278.687 1238.721)"/>
      <rect id="Rectangle_151469" data-name="Rectangle 151469" width="2" height="2" transform="translate(9280.687 1238.721)"/>
      <rect id="Rectangle_151470" data-name="Rectangle 151470" width="2" height="2" transform="translate(9282.687 1238.721)"/>
      <rect id="Rectangle_151471" data-name="Rectangle 151471" width="2" height="2" transform="translate(9284.687 1238.721)"/>
      <rect id="Rectangle_151472" data-name="Rectangle 151472" width="2" height="2" transform="translate(9286.687 1238.721)"/>
      <rect id="Rectangle_151473" data-name="Rectangle 151473" width="2" height="2" transform="translate(9270.687 1240.722)"/>
      <rect id="Rectangle_151474" data-name="Rectangle 151474" width="2" height="2" transform="translate(9272.687 1240.722)"/>
      <rect id="Rectangle_151475" data-name="Rectangle 151475" width="2" height="2" transform="translate(9274.687 1240.722)"/>
      <rect id="Rectangle_151476" data-name="Rectangle 151476" width="2" height="2" transform="translate(9276.687 1240.722)"/>
      <rect id="Rectangle_151477" data-name="Rectangle 151477" width="2" height="2" transform="translate(9278.687 1240.722)"/>
      <rect id="Rectangle_151478" data-name="Rectangle 151478" width="2" height="2" transform="translate(9280.687 1240.722)"/>
      <rect id="Rectangle_151479" data-name="Rectangle 151479" width="2" height="2" transform="translate(9282.687 1240.722)"/>
      <rect id="Rectangle_151480" data-name="Rectangle 151480" width="2" height="2" transform="translate(9284.687 1240.722)"/>
      <rect id="Rectangle_151481" data-name="Rectangle 151481" width="2" height="2" transform="translate(9280.687 1242.722)"/>
      <rect id="Rectangle_151482" data-name="Rectangle 151482" width="2" height="2" transform="translate(9282.687 1242.722)"/>
      <rect id="Rectangle_151483" data-name="Rectangle 151483" width="2" height="2" transform="translate(9280.687 1244.722)"/>
      <rect id="Rectangle_151484" data-name="Rectangle 151484" width="2" height="2" transform="translate(9278.687 1228.721)"/>
      <rect id="Rectangle_151485" data-name="Rectangle 151485" width="2" height="2" transform="translate(9278.687 1230.721)"/>
      <rect id="Rectangle_151486" data-name="Rectangle 151486" width="2" height="2" transform="translate(9278.687 1242.721)"/>
      <rect id="Rectangle_151487" data-name="Rectangle 151487" width="2" height="2" transform="translate(9278.687 1244.721)"/>
    </g>
  </g>
</svg>
