<svg xmlns="http://www.w3.org/2000/svg" width="24" height="24" viewBox="0 0 24 24">
  <g id="check-double" transform="translate(10039.059 874.195)">
    <rect id="Rectangle_151971" data-name="Rectangle 151971" width="24" height="24" transform="translate(-10039.059 -874.195)" fill="#fff"/>
    <path id="check-double-2" data-name="check-double" d="M13.727,6h1.818V7.818H13.727ZM11.909,9.636V7.818h1.818V9.636Zm-1.818,1.818V9.636h1.818v1.818ZM8.273,13.273V11.455h1.818v1.818ZM6.455,15.091V13.273H8.273v1.818Zm-1.818,0H6.455v1.818H4.636ZM2.818,13.273H4.636v1.818H2.818Zm0,0H1V11.455H2.818Zm7.273,1.818h1.818v1.818H10.091Zm3.636-1.818v1.818H11.909V13.273Zm1.818-1.818v1.818H13.727V11.455Zm1.818-1.818v1.818H15.545V9.636Zm1.818-1.818H17.364V9.636h1.818Zm0,0H21V6H19.182Z" transform="translate(-10038.059 -873.649)"/>
  </g>
</svg>
