<svg xmlns="http://www.w3.org/2000/svg" width="24" height="24" viewBox="0 0 24 24">
  <g id="copy-document" transform="translate(9955.059 1406.195)">
    <rect id="Rectangle_152349" data-name="Rectangle 152349" width="24" height="24" transform="translate(-9955.059 -1406.195)" fill="#fff"/>
    <g id="Copy_Document" transform="translate(-9955.059 -1406.195)">
      <path id="Path" d="M15,15H9v2h6Z"/>
      <path id="Path-2" data-name="Path" d="M15,12H9v2h6Z"/>
      <path id="Path-3" data-name="Path" d="M19,7V6H18V5H17V4H16V3H15V2H5V3H4V21H5v1H19V21h1V7ZM18,19H17v1H7V19H6V5H7V4h5v6h6ZM16,7V8H14V6h1V7Z"/>
    </g>
  </g>
</svg>
