<svg xmlns="http://www.w3.org/2000/svg" width="24" height="24" viewBox="0 0 24 24">
  <g id="edit" transform="translate(10347.059 1462.195)">
    <rect id="Rectangle_152399" data-name="Rectangle 152399" width="24" height="24" transform="translate(-10347.059 -1462.195)" fill="#fff"/>
    <g id="Edit-2" data-name="Edit" transform="translate(-10351.877 -1466.195)">
      <path id="Path_4218" data-name="Path 4218" d="M22.818,6h-2V8h-2v2h-2v2h-2v2h-2v2h-2v2h-2v2h-2v6h6V24h2V22h2V20h2V18h2V16h2V14h2V12h2V10h-2V8h-2Zm-2,4v2h2v2h-2v2h-2v2h-2v2h-2v2h-2V20h-2V18h2V16h2V14h2V12h2V10Zm-10,10v2h2v2h-4V20Z" fill-rule="evenodd"/>
    </g>
  </g>
</svg>
