<svg xmlns="http://www.w3.org/2000/svg" width="24" height="24" viewBox="0 0 24 24">
  <g id="email-envelope" transform="translate(9899.059 1238.195)">
    <rect id="Rectangle_152229" data-name="Rectangle 152229" width="24" height="24" transform="translate(-9899.059 -1238.195)" fill="#fff"/>
    <g id="email-envelope-46" transform="translate(-9897.059 -1241.528)">
      <path id="Path_5760" data-name="Path 5760" d="M44.375,12.387h-.95v.956h.95v.95h-.95v.95h.95V16.2h-.95v.95h.95v.95h-.95v.956h.95v.95h-.95v.956h.95v.95h.956V11.438h-.956Z" transform="translate(-25.331 -1.339)"/>
      <path id="Path_5761" data-name="Path 5761" d="M18.474,34.3h-.956v.95h-.95V34.3h-.95v.95h-.956V34.3h-.95v.95h-.956V34.3H11.8v.95h-.95V34.3H9.9v.95h-.95V34.3H7.992v.95h-.95V34.3h-.95v.95H5.136V34.3h-.95v.95H2.28v.95H20.374v-.95h-1.9Z" transform="translate(-1.33 -14.674)"/>
      <path id="Path_5762" data-name="Path 5762" d="M34.851,16.013h-1.9v.95h-.956v1.906h.956v.95h1.9v-.95h.956V16.963h-.956Z" transform="translate(-18.664 -4.008)"/>
      <path id="Path_5763" data-name="Path 5763" d="M12.568,29.722H6.855v.95h5.713Z" transform="translate(-3.999 -12.005)"/>
      <path id="Path_5764" data-name="Path 5764" d="M10.661,25.147H6.855v.95h3.806Z" transform="translate(-3.999 -9.336)"/>
      <path id="Path_5765" data-name="Path 5765" d="M4.186,11.049h.95V10.1h.956v.95h.95V10.1h.95v.95h.956V10.1H9.9v.95h.956V10.1h.95v.95h.95V10.1h.956v.95h.95V10.1h.956v.95h.95V10.1h.95v.95h.956V10.1h1.9V9.142H2.28V10.1H4.186Z" transform="translate(-1.33)"/>
      <path id="Path_5766" data-name="Path 5766" d="M1.906,20.962v-.956H.95v-.95h.956V18.1H.95v-.95h.956V16.2H.95v-.956h.956v-.95H.95v-.95h.956v-.956H.95v-.95H0V21.912H.95v-.95Z" transform="translate(0 -1.339)"/>
    </g>
  </g>
</svg>
