<svg xmlns="http://www.w3.org/2000/svg" width="24" height="24" viewBox="0 0 24 24">
  <g id="expand" transform="translate(10067.059 622.195)">
    <rect id="Rectangle_151799" data-name="Rectangle 151799" width="24" height="24" transform="translate(-10067.059 -622.195)" fill="#fff"/>
    <path id="expand-2" data-name="expand" d="M11,5h2V7h2V9h2V7H15V5H13V3H11ZM9,7V5h2V7ZM9,7V9H7V7ZM4,13H20V11H4Zm9,6H11V17H9V15H7v2H9v2h2v2h2Zm2-2H13v2h2Zm0,0h2V15H15Z" transform="translate(-10067.059 -622.195)"/>
  </g>
</svg>
