<svg xmlns="http://www.w3.org/2000/svg" width="24" height="24" viewBox="0 0 24 24">
  <g id="image-delete" transform="translate(10263.059 650.195)">
    <rect id="Rectangle_151824" data-name="Rectangle 151824" width="24" height="24" transform="translate(-10263.059 -650.195)" fill="#fff"/>
    <path id="image-delete-2" data-name="image-delete" d="M14,3H2V21H22V11H20v8H4V5H14ZM6,7H8V9H6ZM20,5H18V3H16V5h2V7H16V9h2V7h2V9h2V7H20Zm0,0V3h2V5ZM12,9h2v2H12Zm-2,4V11h2v2ZM8,15h2V13H8Zm0,0v2H6V15Zm8-2H14V11h2Zm0,0h2v2H16Z" transform="translate(-10263.059 -650.195)"/>
  </g>
</svg>
