<svg xmlns="http://www.w3.org/2000/svg" xmlns:xlink="http://www.w3.org/1999/xlink" width="24" height="24" viewBox="0 0 24 24">
  <defs>
    <clipPath id="clip-path">
      <rect id="Rectangle_324" data-name="Rectangle 324" width="20" height="20"/>
    </clipPath>
  </defs>
  <g id="interface-essential-bookmark" transform="translate(10179.059 1210.195)">
    <rect id="Rectangle_152210" data-name="Rectangle 152210" width="24" height="24" transform="translate(-10179.059 -1210.195)" fill="#fff"/>
    <g id="interface-essential-bookmark-23" transform="translate(-10177.059 -1208.195)" clip-path="url(#clip-path)">
      <path id="Path_5944" data-name="Path 5944" d="M46.67,6.855h-.95V22.093h.95Z" transform="translate(-26.67 -3.999)"/>
      <path id="Path_5945" data-name="Path 5945" d="M44.381,43.425h-.956v.956h.956Z" transform="translate(-25.331 -25.331)"/>
      <path id="Path_5946" data-name="Path 5946" d="M44.381,4.575h-.956v.95h.956Z" transform="translate(-25.331 -2.669)"/>
      <path id="Path_5947" data-name="Path 5947" d="M20.763,45.72H4.575v.95H20.763Z" transform="translate(-2.669 -26.67)"/>
      <path id="Path_5948" data-name="Path 5948" d="M21.531,36.57H9.15v.956H21.531Z" transform="translate(-5.337 -21.333)"/>
      <path id="Path_5949" data-name="Path 5949" d="M21.531,27.435H9.15v.95H21.531Z" transform="translate(-5.337 -16.004)"/>
      <path id="Path_5950" data-name="Path 5950" d="M32.2,18.285H27.435v.95H32.2Z" transform="translate(-16.004 -10.666)"/>
      <path id="Path_5951" data-name="Path 5951" d="M32.2,11.43H27.435v.95H32.2Z" transform="translate(-16.004 -6.668)"/>
      <path id="Path_5952" data-name="Path 5952" d="M6.092,1.906V8.569h.95v-.95H8v-.95h.95v.95H9.9v.95h.956V1.906h8.569V.95H9.9V0H4.186V.95H2.28v.956ZM8,.95h.95v.956H9.9V3.812h-.95V1.906H8Z" transform="translate(-1.33)"/>
      <path id="Path_5953" data-name="Path 5953" d="M3.236,43.425H2.28v.956h.956Z" transform="translate(-1.33 -25.331)"/>
      <path id="Path_5954" data-name="Path 5954" d="M.95,4.575H0V20.763H.95Z" transform="translate(0 -2.669)"/>
    </g>
  </g>
</svg>
