<svg xmlns="http://www.w3.org/2000/svg" width="24" height="24" viewBox="0 0 24 24">
  <g id="microphone" transform="translate(10293.69 1437.766)">
    <rect id="Rectangle_152392" data-name="Rectangle 152392" width="24" height="24" transform="translate(-10293.69 -1437.766)" fill="#fff"/>
    <g id="Microphone-2" data-name="Microphone" transform="translate(-10304.059 -1444.766)">
      <path id="Path_4266" data-name="Path 4266" d="M15,30h2.105v2.105H15Z" transform="translate(0 -13.632)"/>
      <path id="Path_4267" data-name="Path 4267" d="M15,36h2.105v2.105H15Z" transform="translate(0 -17.526)"/>
      <path id="Path_4268" data-name="Path 4268" d="M15,42h2.105v2.105H15Z" transform="translate(0 -21.421)"/>
      <path id="Path_4269" data-name="Path 4269" d="M15,48h2.105v2.105H15Z" transform="translate(0 -25.316)"/>
      <path id="Path_4270" data-name="Path 4270" d="M21,48h2.105v2.105H21Z" transform="translate(-3.895 -25.316)"/>
      <path id="Path_4271" data-name="Path 4271" d="M27,48h2.105v2.105H27Z" transform="translate(-7.789 -25.316)"/>
      <path id="Path_4272" data-name="Path 4272" d="M33,48h2.105v2.105H33Z" transform="translate(-11.684 -25.316)"/>
      <path id="Path_4273" data-name="Path 4273" d="M33,54h2.105v2.105H33Z" transform="translate(-11.684 -29.211)"/>
      <path id="Path_4274" data-name="Path 4274" d="M33,60h2.105v2.105H33Z" transform="translate(-11.684 -33.105)"/>
      <path id="Path_4275" data-name="Path 4275" d="M39,48h2.105v2.105H39Z" transform="translate(-15.579 -25.316)"/>
      <path id="Path_4276" data-name="Path 4276" d="M45,48h2.105v2.105H45Z" transform="translate(-19.474 -25.316)"/>
      <path id="Path_4277" data-name="Path 4277" d="M51,48h2.105v2.105H51Z" transform="translate(-23.368 -25.316)"/>
      <path id="Path_4278" data-name="Path 4278" d="M51,42h2.105v2.105H51Z" transform="translate(-23.368 -21.421)"/>
      <path id="Path_4279" data-name="Path 4279" d="M51,36h2.105v2.105H51Z" transform="translate(-23.368 -17.526)"/>
      <path id="Path_4280" data-name="Path 4280" d="M51,30h2.105v2.105H51Z" transform="translate(-23.368 -13.632)"/>
      <path id="Path_4281" data-name="Path 4281" d="M42,39h2.105v2.105H42Z" transform="translate(-17.526 -19.474)"/>
      <path id="Path_4282" data-name="Path 4282" d="M36,39h2.105v2.105H36Z" transform="translate(-13.632 -19.474)"/>
      <path id="Path_4283" data-name="Path 4283" d="M30,39h2.105v2.105H30Z" transform="translate(-9.737 -19.474)"/>
      <path id="Path_4284" data-name="Path 4284" d="M24,39h2.105v2.105H24Z" transform="translate(-5.842 -19.474)"/>
      <path id="Path_4285" data-name="Path 4285" d="M24,33h2.105v2.105H24Z" transform="translate(-5.842 -15.579)"/>
      <path id="Path_4286" data-name="Path 4286" d="M24,27h2.105v2.105H24Z" transform="translate(-5.842 -11.684)"/>
      <path id="Path_4287" data-name="Path 4287" d="M24,21h2.105v2.105H24Z" transform="translate(-5.842 -7.789)"/>
      <path id="Path_4288" data-name="Path 4288" d="M24,15h2.105v2.105H24Z" transform="translate(-5.842 -3.895)"/>
      <path id="Path_4289" data-name="Path 4289" d="M24,9h2.105v2.105H24Z" transform="translate(-5.842)"/>
      <path id="Path_4290" data-name="Path 4290" d="M30,9h2.105v2.105H30Z" transform="translate(-9.737)"/>
      <path id="Path_4291" data-name="Path 4291" d="M36,9h2.105v2.105H36Z" transform="translate(-13.632)"/>
      <path id="Path_4292" data-name="Path 4292" d="M42,9h2.105v2.105H42Z" transform="translate(-17.526)"/>
      <path id="Path_4293" data-name="Path 4293" d="M42,15h2.105v2.105H42Z" transform="translate(-17.526 -3.895)"/>
      <path id="Path_4294" data-name="Path 4294" d="M42,21h2.105v2.105H42Z" transform="translate(-17.526 -7.789)"/>
      <path id="Path_4295" data-name="Path 4295" d="M42,27h2.105v2.105H42Z" transform="translate(-17.526 -11.684)"/>
      <path id="Path_4296" data-name="Path 4296" d="M42,33h2.105v2.105H42Z" transform="translate(-17.526 -15.579)"/>
    </g>
  </g>
</svg>
