<svg xmlns="http://www.w3.org/2000/svg" width="24" height="24" viewBox="0 0 24 24">
  <g id="non-gmo-fertilizer" transform="translate(10179.059 1182.195)">
    <rect id="Rectangle_152212" data-name="Rectangle 152212" width="24" height="24" transform="translate(-10179.059 -1182.195)" fill="#fff"/>
    <g id="non-gmo-fertilizer-41" transform="translate(-10178.198 -1181.339)">
      <path id="Path_6391" data-name="Path 6391" d="M45.569,24.007h-1v1h1Z" transform="translate(-24.429 -12.86)"/>
      <path id="Path_6392" data-name="Path 6392" d="M45.569,19.433h-1v1h1Z" transform="translate(-24.429 -10.286)"/>
      <path id="Path_6393" data-name="Path 6393" d="M45.569,14.858h-1v1h1Z" transform="translate(-24.429 -7.713)"/>
      <path id="Path_6394" data-name="Path 6394" d="M45.569,10.283h-1v1h1Z" transform="translate(-24.429 -5.139)"/>
      <path id="Path_6395" data-name="Path 6395" d="M45.569,5.708h-1v1h1Z" transform="translate(-24.429 -2.565)"/>
      <path id="Path_6396" data-name="Path 6396" d="M45.569,1.148h-1v1h1Z" transform="translate(-24.429)"/>
      <path id="Path_6397" data-name="Path 6397" d="M41,24.007h-1v1h1Z" transform="translate(-21.864 -12.86)"/>
      <path id="Path_6398" data-name="Path 6398" d="M41,19.433h-1v1h1Z" transform="translate(-21.864 -10.286)"/>
      <path id="Path_6399" data-name="Path 6399" d="M41,14.858h-1v1h1Z" transform="translate(-21.864 -7.713)"/>
      <path id="Path_6400" data-name="Path 6400" d="M41,10.283h-1v1h1Z" transform="translate(-21.864 -5.139)"/>
      <path id="Path_6401" data-name="Path 6401" d="M41,5.708h-1v1h1Z" transform="translate(-21.864 -2.565)"/>
      <path id="Path_6402" data-name="Path 6402" d="M41,1.148h-1v1h1Z" transform="translate(-21.864)"/>
      <path id="Path_6403" data-name="Path 6403" d="M36.427,24.007h-1v1h1Z" transform="translate(-19.29 -12.86)"/>
      <path id="Path_6404" data-name="Path 6404" d="M36.427,19.433h-1v1h1Z" transform="translate(-19.29 -10.286)"/>
      <path id="Path_6405" data-name="Path 6405" d="M36.427,14.858h-1v1h1Z" transform="translate(-19.29 -7.713)"/>
      <path id="Path_6406" data-name="Path 6406" d="M36.427,10.283h-1v1h1Z" transform="translate(-19.29 -5.139)"/>
      <path id="Path_6407" data-name="Path 6407" d="M36.427,5.708h-1v1h1Z" transform="translate(-19.29 -2.565)"/>
      <path id="Path_6408" data-name="Path 6408" d="M36.427,1.148h-1v1h1Z" transform="translate(-19.29)"/>
      <path id="Path_6409" data-name="Path 6409" d="M31.852,19.433h-1v1h1Z" transform="translate(-16.716 -10.286)"/>
      <path id="Path_6410" data-name="Path 6410" d="M31.852,14.858h-1v1h1Z" transform="translate(-16.716 -7.713)"/>
      <path id="Path_6411" data-name="Path 6411" d="M31.852,10.283h-1v1h1Z" transform="translate(-16.716 -5.139)"/>
      <path id="Path_6412" data-name="Path 6412" d="M31.852,5.708h-1v1h1Z" transform="translate(-16.716 -2.565)"/>
      <path id="Path_6413" data-name="Path 6413" d="M27.284,14.858h-1v1h1Z" transform="translate(-14.143 -7.713)"/>
      <path id="Path_6414" data-name="Path 6414" d="M27.284,10.283h-1v1h1Z" transform="translate(-14.143 -5.139)"/>
      <path id="Path_6415" data-name="Path 6415" d="M25,21.713H24v10h1Z" transform="translate(-12.86 -11.569)"/>
      <path id="Path_6416" data-name="Path 6416" d="M22.717,19.433h-1v1h1Z" transform="translate(-11.577 -10.286)"/>
      <path id="Path_6417" data-name="Path 6417" d="M12.423,44.572h-9v1h9Z" transform="translate(-1.283 -24.429)"/>
      <path id="Path_6418" data-name="Path 6418" d="M20.429,5.708h-1v1h1Z" transform="translate(-10.286 -2.565)"/>
      <path id="Path_6419" data-name="Path 6419" d="M11.712,24.007h-5v1h-1v5h1v1h1V30h1v1h1V30h1v1h1V30h1V25h-1Zm-3,4h-2v-2h2Zm3,0h-2v-2h2Z" transform="translate(-2.574 -12.86)"/>
      <path id="Path_6420" data-name="Path 6420" d="M12.995,3.428h-5v1h5Z" transform="translate(-3.856 -1.283)"/>
      <path id="Path_6421" data-name="Path 6421" d="M11.425,13V12H8.42V11h4V10h-4V9h2V8h-5V9h2v1h-4v1h4v1h-3v1Z" transform="translate(-1.283 -3.856)"/>
      <path id="Path_6422" data-name="Path 6422" d="M6.712,5.708h-1v1h1Z" transform="translate(-2.574 -2.565)"/>
      <path id="Path_6423" data-name="Path 6423" d="M4.424,19.433h-1v1h1Z" transform="translate(-1.283 -10.286)"/>
      <path id="Path_6424" data-name="Path 6424" d="M2.137,21.713h-1v10h1Z" transform="translate(0 -11.569)"/>
      <path id="Path_6425" data-name="Path 6425" d="M2.137,14.858h-1v1h1Z" transform="translate(0 -7.713)"/>
    </g>
  </g>
</svg>
