<svg xmlns="http://www.w3.org/2000/svg" width="24" height="24" viewBox="0 0 24 24">
  <g id="path_6682" data-name="path 6682" transform="translate(10011.059 930.195)">
    <rect id="Rectangle_152021" data-name="Rectangle 152021" width="24" height="24" transform="translate(-10011.059 -930.195)" fill="#fff"/>
    <path id="Path_6682-2" data-name="Path 6682" d="M7.753,5.358H5.531V7.581H7.753ZM23.309,9.8h2.222V16.47H23.309V12.025H12.2V23.136h4.444v2.222H9.975V9.8ZM9.975,5.358H12.2V7.581H9.975ZM7.753,9.8H5.531v2.222H7.753ZM5.531,14.247H7.753V16.47H5.531Zm2.222,4.444H5.531v2.222H7.753ZM14.42,5.358h2.222V7.581H14.42Zm6.667,0H18.864V7.581h2.222ZM18.864,20.914V18.692h6.667v2.222H23.309v2.222H21.087v2.222H18.864Zm4.444,2.222v2.222h2.222V23.136Z" transform="translate(-10014.59 -933.553)"/>
  </g>
</svg>
