<svg xmlns="http://www.w3.org/2000/svg" width="24" height="24" viewBox="0 0 24 24">
  <g id="px-icon16" transform="translate(9871.059 1042.195)">
    <rect id="Rectangle_152116" data-name="Rectangle 152116" width="24" height="24" transform="translate(-9871.059 -1042.195)" fill="#fff"/>
    <g id="px-icon16-2" data-name="px-icon16" transform="translate(-10471.398 -1907.764)">
      <rect id="Rectangle_123792" data-name="Rectangle 123792" width="1.818" height="1.818" transform="translate(602.34 867.569)"/>
      <rect id="Rectangle_123793" data-name="Rectangle 123793" width="1.818" height="1.818" transform="translate(604.158 869.388)"/>
      <rect id="Rectangle_123794" data-name="Rectangle 123794" width="1.818" height="1.818" transform="translate(611.431 869.388)"/>
      <rect id="Rectangle_123795" data-name="Rectangle 123795" width="1.818" height="1.818" transform="translate(609.612 871.206)"/>
      <rect id="Rectangle_123796" data-name="Rectangle 123796" width="1.818" height="1.818" transform="translate(604.158 873.024)"/>
      <rect id="Rectangle_123797" data-name="Rectangle 123797" width="1.818" height="1.818" transform="translate(607.794 873.024)"/>
      <rect id="Rectangle_123798" data-name="Rectangle 123798" width="1.818" height="1.818" transform="translate(609.612 873.024)"/>
      <rect id="Rectangle_123799" data-name="Rectangle 123799" width="1.818" height="1.818" transform="translate(611.431 873.024)"/>
      <rect id="Rectangle_123800" data-name="Rectangle 123800" width="1.818" height="1.818" transform="translate(613.249 873.024)"/>
      <rect id="Rectangle_123801" data-name="Rectangle 123801" width="1.818" height="1.818" transform="translate(615.067 873.024)"/>
      <rect id="Rectangle_123802" data-name="Rectangle 123802" width="1.818" height="1.818" transform="translate(618.703 873.024)"/>
      <rect id="Rectangle_123803" data-name="Rectangle 123803" width="1.818" height="1.818" transform="translate(602.34 874.842)"/>
      <rect id="Rectangle_123804" data-name="Rectangle 123804" width="1.818" height="1.818" transform="translate(613.249 874.842)"/>
      <rect id="Rectangle_123805" data-name="Rectangle 123805" width="1.818" height="1.818" transform="translate(620.521 874.842)"/>
      <rect id="Rectangle_123806" data-name="Rectangle 123806" width="1.818" height="1.818" transform="translate(602.34 876.66)"/>
      <rect id="Rectangle_123807" data-name="Rectangle 123807" width="1.818" height="1.818" transform="translate(620.521 876.66)"/>
      <rect id="Rectangle_123808" data-name="Rectangle 123808" width="1.818" height="1.818" transform="translate(613.249 878.479)"/>
      <rect id="Rectangle_123809" data-name="Rectangle 123809" width="1.818" height="1.818" transform="translate(613.249 880.297)"/>
      <rect id="Rectangle_123810" data-name="Rectangle 123810" width="1.818" height="1.818" transform="translate(616.885 880.297)"/>
      <rect id="Rectangle_123811" data-name="Rectangle 123811" width="1.818" height="1.818" transform="translate(613.249 883.933)"/>
      <rect id="Rectangle_123812" data-name="Rectangle 123812" width="1.818" height="1.818" transform="translate(613.249 867.569)"/>
      <rect id="Rectangle_123813" data-name="Rectangle 123813" width="1.818" height="1.818" transform="translate(605.976 871.206)"/>
      <rect id="Rectangle_123814" data-name="Rectangle 123814" width="1.818" height="1.818" transform="translate(605.976 873.024)"/>
      <rect id="Rectangle_123815" data-name="Rectangle 123815" width="1.818" height="1.818" transform="translate(616.885 873.024)"/>
      <rect id="Rectangle_123816" data-name="Rectangle 123816" width="1.818" height="1.818" transform="translate(613.249 876.66)"/>
      <rect id="Rectangle_123817" data-name="Rectangle 123817" width="1.818" height="1.818" transform="translate(616.885 876.66)"/>
      <rect id="Rectangle_123818" data-name="Rectangle 123818" width="1.818" height="1.818" transform="translate(602.34 878.479)"/>
      <rect id="Rectangle_123819" data-name="Rectangle 123819" width="1.818" height="1.818" transform="translate(620.521 878.479)"/>
      <rect id="Rectangle_123820" data-name="Rectangle 123820" width="1.818" height="1.818" transform="translate(602.34 880.297)"/>
      <rect id="Rectangle_123821" data-name="Rectangle 123821" width="1.818" height="1.818" transform="translate(620.521 880.297)"/>
      <rect id="Rectangle_123822" data-name="Rectangle 123822" width="1.818" height="1.818" transform="translate(602.34 882.115)"/>
      <rect id="Rectangle_123823" data-name="Rectangle 123823" width="1.818" height="1.818" transform="translate(613.249 882.115)"/>
      <rect id="Rectangle_123824" data-name="Rectangle 123824" width="1.818" height="1.818" transform="translate(620.521 882.115)"/>
      <rect id="Rectangle_123825" data-name="Rectangle 123825" width="1.818" height="1.818" transform="translate(602.34 883.933)"/>
      <rect id="Rectangle_123826" data-name="Rectangle 123826" width="1.818" height="1.818" transform="translate(620.521 883.933)"/>
      <rect id="Rectangle_123827" data-name="Rectangle 123827" width="1.818" height="1.818" transform="translate(604.158 885.751)"/>
      <rect id="Rectangle_123828" data-name="Rectangle 123828" width="1.818" height="1.818" transform="translate(605.976 885.751)"/>
      <rect id="Rectangle_123829" data-name="Rectangle 123829" width="1.818" height="1.818" transform="translate(607.794 885.751)"/>
      <rect id="Rectangle_123830" data-name="Rectangle 123830" width="1.818" height="1.818" transform="translate(609.612 885.751)"/>
      <rect id="Rectangle_123831" data-name="Rectangle 123831" width="1.818" height="1.818" transform="translate(611.431 885.751)"/>
      <rect id="Rectangle_123832" data-name="Rectangle 123832" width="1.818" height="1.818" transform="translate(613.249 885.751)"/>
      <rect id="Rectangle_123833" data-name="Rectangle 123833" width="1.818" height="1.818" transform="translate(615.067 885.751)"/>
      <rect id="Rectangle_123834" data-name="Rectangle 123834" width="1.818" height="1.818" transform="translate(616.885 885.751)"/>
      <rect id="Rectangle_123835" data-name="Rectangle 123835" width="1.818" height="1.818" transform="translate(618.703 885.751)"/>
    </g>
  </g>
</svg>
