<svg xmlns="http://www.w3.org/2000/svg" width="24" height="24" viewBox="0 0 24 24">
  <g id="px-icon13" transform="translate(10347.059 1014.195)">
    <rect id="Rectangle_152069" data-name="Rectangle 152069" width="24" height="24" transform="translate(-10347.059 -1014.195)" fill="#fff"/>
    <g id="px-icon13-2" data-name="px-icon13" transform="translate(-11212.628 -1349.305)">
      <rect id="Rectangle_123925" data-name="Rectangle 123925" width="1.818" height="1.818" transform="translate(873.024 337.11)"/>
      <rect id="Rectangle_123926" data-name="Rectangle 123926" width="1.818" height="1.818" transform="translate(880.297 337.11)"/>
      <rect id="Rectangle_123927" data-name="Rectangle 123927" width="1.818" height="1.818" transform="translate(867.569 338.928)"/>
      <rect id="Rectangle_123928" data-name="Rectangle 123928" width="1.818" height="1.818" transform="translate(869.388 338.928)"/>
      <rect id="Rectangle_123929" data-name="Rectangle 123929" width="1.818" height="1.818" transform="translate(871.206 338.928)"/>
      <rect id="Rectangle_123930" data-name="Rectangle 123930" width="1.818" height="1.818" transform="translate(874.842 338.928)"/>
      <rect id="Rectangle_123931" data-name="Rectangle 123931" width="1.818" height="1.818" transform="translate(876.66 338.928)"/>
      <rect id="Rectangle_123932" data-name="Rectangle 123932" width="1.818" height="1.818" transform="translate(878.478 338.928)"/>
      <rect id="Rectangle_123933" data-name="Rectangle 123933" width="1.818" height="1.818" transform="translate(882.115 338.928)"/>
      <rect id="Rectangle_123934" data-name="Rectangle 123934" width="1.818" height="1.818" transform="translate(883.933 338.928)"/>
      <rect id="Rectangle_123935" data-name="Rectangle 123935" width="1.818" height="1.818" transform="translate(885.751 338.928)"/>
      <rect id="Rectangle_123936" data-name="Rectangle 123936" width="1.818" height="1.818" transform="translate(867.569 340.746)"/>
      <rect id="Rectangle_123937" data-name="Rectangle 123937" width="1.818" height="1.818" transform="translate(869.388 340.746)"/>
      <rect id="Rectangle_123938" data-name="Rectangle 123938" width="1.818" height="1.818" transform="translate(883.933 340.746)"/>
      <rect id="Rectangle_123939" data-name="Rectangle 123939" width="1.818" height="1.818" transform="translate(885.751 340.746)"/>
      <rect id="Rectangle_123940" data-name="Rectangle 123940" width="1.818" height="1.818" transform="translate(869.388 342.564)"/>
      <rect id="Rectangle_123941" data-name="Rectangle 123941" width="1.818" height="1.818" transform="translate(883.933 342.564)"/>
      <rect id="Rectangle_123942" data-name="Rectangle 123942" width="1.818" height="1.818" transform="translate(869.388 344.383)"/>
      <rect id="Rectangle_123943" data-name="Rectangle 123943" width="1.818" height="1.818" transform="translate(873.024 344.383)"/>
      <rect id="Rectangle_123944" data-name="Rectangle 123944" width="1.818" height="1.818" transform="translate(876.66 344.383)"/>
      <rect id="Rectangle_123945" data-name="Rectangle 123945" width="1.818" height="1.818" transform="translate(880.297 344.383)"/>
      <rect id="Rectangle_123946" data-name="Rectangle 123946" width="1.818" height="1.818" transform="translate(883.933 344.383)"/>
      <rect id="Rectangle_123947" data-name="Rectangle 123947" width="1.818" height="1.818" transform="translate(869.388 348.019)"/>
      <rect id="Rectangle_123948" data-name="Rectangle 123948" width="1.818" height="1.818" transform="translate(873.024 348.019)"/>
      <rect id="Rectangle_123949" data-name="Rectangle 123949" width="1.818" height="1.818" transform="translate(876.66 348.019)"/>
      <rect id="Rectangle_123950" data-name="Rectangle 123950" width="1.818" height="1.818" transform="translate(880.297 348.019)"/>
      <rect id="Rectangle_123951" data-name="Rectangle 123951" width="1.818" height="1.818" transform="translate(883.933 348.019)"/>
      <rect id="Rectangle_123952" data-name="Rectangle 123952" width="1.818" height="1.818" transform="translate(869.388 349.837)"/>
      <rect id="Rectangle_123953" data-name="Rectangle 123953" width="1.818" height="1.818" transform="translate(873.024 349.837)"/>
      <rect id="Rectangle_123954" data-name="Rectangle 123954" width="1.818" height="1.818" transform="translate(880.297 349.837)"/>
      <rect id="Rectangle_123955" data-name="Rectangle 123955" width="1.818" height="1.818" transform="translate(883.933 349.837)"/>
      <rect id="Rectangle_123956" data-name="Rectangle 123956" width="1.818" height="1.818" transform="translate(869.388 351.655)"/>
      <rect id="Rectangle_123957" data-name="Rectangle 123957" width="1.818" height="1.818" transform="translate(873.024 351.655)"/>
      <rect id="Rectangle_123958" data-name="Rectangle 123958" width="1.818" height="1.818" transform="translate(880.297 351.655)"/>
      <rect id="Rectangle_123959" data-name="Rectangle 123959" width="1.818" height="1.818" transform="translate(883.933 351.655)"/>
      <rect id="Rectangle_123960" data-name="Rectangle 123960" width="1.818" height="1.818" transform="translate(869.388 353.474)"/>
      <rect id="Rectangle_123961" data-name="Rectangle 123961" width="1.818" height="1.818" transform="translate(883.933 353.474)"/>
      <rect id="Rectangle_123962" data-name="Rectangle 123962" width="1.818" height="1.818" transform="translate(874.842 337.11)"/>
      <rect id="Rectangle_123963" data-name="Rectangle 123963" width="1.818" height="1.818" transform="translate(876.66 337.11)"/>
      <rect id="Rectangle_123964" data-name="Rectangle 123964" width="1.818" height="1.818" transform="translate(878.478 337.11)"/>
      <rect id="Rectangle_123965" data-name="Rectangle 123965" width="1.818" height="1.818" transform="translate(873.024 338.928)"/>
      <rect id="Rectangle_123966" data-name="Rectangle 123966" width="1.818" height="1.818" transform="translate(880.297 338.928)"/>
      <rect id="Rectangle_123967" data-name="Rectangle 123967" width="1.818" height="1.818" transform="translate(869.388 346.201)"/>
      <rect id="Rectangle_123968" data-name="Rectangle 123968" width="1.818" height="1.818" transform="translate(873.024 346.201)"/>
      <rect id="Rectangle_123969" data-name="Rectangle 123969" width="1.818" height="1.818" transform="translate(876.66 346.201)"/>
      <rect id="Rectangle_123970" data-name="Rectangle 123970" width="1.818" height="1.818" transform="translate(880.297 346.201)"/>
      <rect id="Rectangle_123971" data-name="Rectangle 123971" width="1.818" height="1.818" transform="translate(883.933 346.201)"/>
      <rect id="Rectangle_123972" data-name="Rectangle 123972" width="1.818" height="1.818" transform="translate(876.66 349.837)"/>
      <rect id="Rectangle_123973" data-name="Rectangle 123973" width="1.818" height="1.818" transform="translate(876.66 351.655)"/>
      <rect id="Rectangle_123974" data-name="Rectangle 123974" width="1.818" height="1.818" transform="translate(871.206 355.292)"/>
      <rect id="Rectangle_123975" data-name="Rectangle 123975" width="1.818" height="1.818" transform="translate(873.024 355.292)"/>
      <rect id="Rectangle_123976" data-name="Rectangle 123976" width="1.818" height="1.818" transform="translate(874.842 355.292)"/>
      <rect id="Rectangle_123977" data-name="Rectangle 123977" width="1.818" height="1.818" transform="translate(876.66 355.292)"/>
      <rect id="Rectangle_123978" data-name="Rectangle 123978" width="1.818" height="1.818" transform="translate(878.478 355.292)"/>
      <rect id="Rectangle_123979" data-name="Rectangle 123979" width="1.818" height="1.818" transform="translate(880.297 355.292)"/>
      <rect id="Rectangle_123980" data-name="Rectangle 123980" width="1.818" height="1.818" transform="translate(882.115 355.292)"/>
    </g>
  </g>
</svg>
