<svg xmlns="http://www.w3.org/2000/svg" width="24" height="24" viewBox="0 0 24 24">
  <g id="px-icon31" transform="translate(10291.059 1042.195)">
    <rect id="Rectangle_152172" data-name="Rectangle 152172" width="24" height="24" transform="translate(-10291.059 -1042.195)" fill="#fff"/>
    <g id="px-icon31-2" data-name="px-icon31" transform="translate(-11024.013 -1509.919)">
      <rect id="Rectangle_123149" data-name="Rectangle 123149" width="1.818" height="1.818" transform="translate(747.682 469.725)"/>
      <rect id="Rectangle_123150" data-name="Rectangle 123150" width="1.818" height="1.818" transform="translate(749.5 469.725)"/>
      <rect id="Rectangle_123151" data-name="Rectangle 123151" width="1.818" height="1.818" transform="translate(751.318 469.725)"/>
      <rect id="Rectangle_123152" data-name="Rectangle 123152" width="1.818" height="1.818" transform="translate(745.864 471.543)"/>
      <rect id="Rectangle_123153" data-name="Rectangle 123153" width="1.818" height="1.818" transform="translate(753.136 471.543)"/>
      <rect id="Rectangle_123154" data-name="Rectangle 123154" width="1.818" height="1.818" transform="translate(744.045 473.361)"/>
      <rect id="Rectangle_123155" data-name="Rectangle 123155" width="1.818" height="1.818" transform="translate(753.136 473.361)"/>
      <rect id="Rectangle_123156" data-name="Rectangle 123156" width="1.818" height="1.818" transform="translate(740.409 475.179)"/>
      <rect id="Rectangle_123157" data-name="Rectangle 123157" width="1.818" height="1.818" transform="translate(742.227 475.179)"/>
      <rect id="Rectangle_123158" data-name="Rectangle 123158" width="1.818" height="1.818" transform="translate(744.045 475.179)"/>
      <rect id="Rectangle_123159" data-name="Rectangle 123159" width="1.818" height="1.818" transform="translate(751.318 475.179)"/>
      <rect id="Rectangle_123160" data-name="Rectangle 123160" width="1.818" height="1.818" transform="translate(736.773 476.997)"/>
      <rect id="Rectangle_123161" data-name="Rectangle 123161" width="1.818" height="1.818" transform="translate(740.409 476.997)"/>
      <rect id="Rectangle_123162" data-name="Rectangle 123162" width="1.818" height="1.818" transform="translate(742.227 476.997)"/>
      <rect id="Rectangle_123163" data-name="Rectangle 123163" width="1.818" height="1.818" transform="translate(744.045 476.997)"/>
      <rect id="Rectangle_123164" data-name="Rectangle 123164" width="1.818" height="1.818" transform="translate(745.864 476.997)"/>
      <rect id="Rectangle_123165" data-name="Rectangle 123165" width="1.818" height="1.818" transform="translate(753.136 476.997)"/>
      <rect id="Rectangle_123166" data-name="Rectangle 123166" width="1.818" height="1.818" transform="translate(734.954 478.816)"/>
      <rect id="Rectangle_123167" data-name="Rectangle 123167" width="1.818" height="1.818" transform="translate(736.773 480.634)"/>
      <rect id="Rectangle_123168" data-name="Rectangle 123168" width="1.818" height="1.818" transform="translate(738.591 480.634)"/>
      <rect id="Rectangle_123169" data-name="Rectangle 123169" width="1.818" height="1.818" transform="translate(740.409 480.634)"/>
      <rect id="Rectangle_123170" data-name="Rectangle 123170" width="1.818" height="1.818" transform="translate(742.227 480.634)"/>
      <rect id="Rectangle_123171" data-name="Rectangle 123171" width="1.818" height="1.818" transform="translate(745.864 480.634)"/>
      <rect id="Rectangle_123172" data-name="Rectangle 123172" width="1.818" height="1.818" transform="translate(747.682 480.634)"/>
      <rect id="Rectangle_123173" data-name="Rectangle 123173" width="1.818" height="1.818" transform="translate(736.773 482.452)"/>
      <rect id="Rectangle_123174" data-name="Rectangle 123174" width="1.818" height="1.818" transform="translate(738.591 482.452)"/>
      <rect id="Rectangle_123175" data-name="Rectangle 123175" width="1.818" height="1.818" transform="translate(740.409 482.452)"/>
      <rect id="Rectangle_123176" data-name="Rectangle 123176" width="1.818" height="1.818" transform="translate(742.227 482.452)"/>
      <rect id="Rectangle_123177" data-name="Rectangle 123177" width="1.818" height="1.818" transform="translate(745.864 482.452)"/>
      <rect id="Rectangle_123178" data-name="Rectangle 123178" width="1.818" height="1.818" transform="translate(747.682 482.452)"/>
      <rect id="Rectangle_123179" data-name="Rectangle 123179" width="1.818" height="1.818" transform="translate(736.773 484.27)"/>
      <rect id="Rectangle_123180" data-name="Rectangle 123180" width="1.818" height="1.818" transform="translate(738.591 484.27)"/>
      <rect id="Rectangle_123181" data-name="Rectangle 123181" width="1.818" height="1.818" transform="translate(740.409 484.27)"/>
      <rect id="Rectangle_123182" data-name="Rectangle 123182" width="1.818" height="1.818" transform="translate(747.682 484.27)"/>
      <rect id="Rectangle_123183" data-name="Rectangle 123183" width="1.818" height="1.818" transform="translate(736.773 486.088)"/>
      <rect id="Rectangle_123184" data-name="Rectangle 123184" width="1.818" height="1.818" transform="translate(738.591 486.088)"/>
      <rect id="Rectangle_123185" data-name="Rectangle 123185" width="1.818" height="1.818" transform="translate(740.409 486.088)"/>
      <rect id="Rectangle_123186" data-name="Rectangle 123186" width="1.818" height="1.818" transform="translate(742.227 486.088)"/>
      <rect id="Rectangle_123187" data-name="Rectangle 123187" width="1.818" height="1.818" transform="translate(744.045 486.088)"/>
      <rect id="Rectangle_123188" data-name="Rectangle 123188" width="1.818" height="1.818" transform="translate(745.864 486.088)"/>
      <rect id="Rectangle_123189" data-name="Rectangle 123189" width="1.818" height="1.818" transform="translate(738.591 475.179)"/>
      <rect id="Rectangle_123190" data-name="Rectangle 123190" width="1.818" height="1.818" transform="translate(738.591 476.997)"/>
      <rect id="Rectangle_123191" data-name="Rectangle 123191" width="1.818" height="1.818" transform="translate(736.773 478.816)"/>
      <rect id="Rectangle_123192" data-name="Rectangle 123192" width="1.818" height="1.818" transform="translate(738.591 478.816)"/>
      <rect id="Rectangle_123193" data-name="Rectangle 123193" width="1.818" height="1.818" transform="translate(740.409 478.816)"/>
      <rect id="Rectangle_123194" data-name="Rectangle 123194" width="1.818" height="1.818" transform="translate(745.864 478.816)"/>
      <rect id="Rectangle_123195" data-name="Rectangle 123195" width="1.818" height="1.818" transform="translate(747.682 478.816)"/>
      <rect id="Rectangle_123196" data-name="Rectangle 123196" width="1.818" height="1.818" transform="translate(734.954 480.634)"/>
      <rect id="Rectangle_123197" data-name="Rectangle 123197" width="1.818" height="1.818" transform="translate(734.954 482.452)"/>
      <rect id="Rectangle_123198" data-name="Rectangle 123198" width="1.818" height="1.818" transform="translate(744.045 482.452)"/>
      <rect id="Rectangle_123199" data-name="Rectangle 123199" width="1.818" height="1.818" transform="translate(734.954 484.27)"/>
      <rect id="Rectangle_123200" data-name="Rectangle 123200" width="1.818" height="1.818" transform="translate(742.227 484.27)"/>
      <rect id="Rectangle_123201" data-name="Rectangle 123201" width="1.818" height="1.818" transform="translate(744.045 484.27)"/>
      <rect id="Rectangle_123202" data-name="Rectangle 123202" width="1.818" height="1.818" transform="translate(745.864 484.27)"/>
      <rect id="Rectangle_123203" data-name="Rectangle 123203" width="1.818" height="1.818" transform="translate(738.591 487.907)"/>
      <rect id="Rectangle_123204" data-name="Rectangle 123204" width="1.818" height="1.818" transform="translate(740.409 487.907)"/>
      <rect id="Rectangle_123205" data-name="Rectangle 123205" width="1.818" height="1.818" transform="translate(742.227 487.907)"/>
      <rect id="Rectangle_123206" data-name="Rectangle 123206" width="1.818" height="1.818" transform="translate(744.045 487.907)"/>
    </g>
  </g>
</svg>
