<svg xmlns="http://www.w3.org/2000/svg" width="24" height="24" viewBox="0 0 24 24">
  <g id="px-icon8" transform="translate(10207.059 1014.195)">
    <rect id="Rectangle_152074" data-name="Rectangle 152074" width="24" height="24" transform="translate(-10207.059 -1014.195)" fill="#fff"/>
    <g id="px-icon8-2" data-name="px-icon8" transform="translate(-11072.628 -1747.149)">
      <rect id="Rectangle_124125" data-name="Rectangle 124125" width="1.818" height="1.818" transform="translate(867.569 734.955)"/>
      <rect id="Rectangle_124126" data-name="Rectangle 124126" width="1.818" height="1.818" transform="translate(869.388 734.955)"/>
      <rect id="Rectangle_124127" data-name="Rectangle 124127" width="1.818" height="1.818" transform="translate(871.206 734.955)"/>
      <rect id="Rectangle_124128" data-name="Rectangle 124128" width="1.818" height="1.818" transform="translate(873.024 734.955)"/>
      <rect id="Rectangle_124129" data-name="Rectangle 124129" width="1.818" height="1.818" transform="translate(880.297 734.955)"/>
      <rect id="Rectangle_124130" data-name="Rectangle 124130" width="1.818" height="1.818" transform="translate(882.115 734.955)"/>
      <rect id="Rectangle_124131" data-name="Rectangle 124131" width="1.818" height="1.818" transform="translate(883.933 734.955)"/>
      <rect id="Rectangle_124132" data-name="Rectangle 124132" width="1.818" height="1.818" transform="translate(885.751 734.955)"/>
      <rect id="Rectangle_124133" data-name="Rectangle 124133" width="1.818" height="1.818" transform="translate(867.569 736.773)"/>
      <rect id="Rectangle_124134" data-name="Rectangle 124134" width="1.818" height="1.818" transform="translate(885.751 736.773)"/>
      <rect id="Rectangle_124135" data-name="Rectangle 124135" width="1.818" height="1.818" transform="translate(867.569 738.591)"/>
      <rect id="Rectangle_124136" data-name="Rectangle 124136" width="1.818" height="1.818" transform="translate(885.751 738.591)"/>
      <rect id="Rectangle_124137" data-name="Rectangle 124137" width="1.818" height="1.818" transform="translate(867.569 740.409)"/>
      <rect id="Rectangle_124138" data-name="Rectangle 124138" width="1.818" height="1.818" transform="translate(885.751 740.409)"/>
      <rect id="Rectangle_124139" data-name="Rectangle 124139" width="1.818" height="1.818" transform="translate(867.569 742.227)"/>
      <rect id="Rectangle_124140" data-name="Rectangle 124140" width="1.818" height="1.818" transform="translate(869.388 742.227)"/>
      <rect id="Rectangle_124141" data-name="Rectangle 124141" width="1.818" height="1.818" transform="translate(873.024 742.227)"/>
      <rect id="Rectangle_124142" data-name="Rectangle 124142" width="1.818" height="1.818" transform="translate(874.842 742.227)"/>
      <rect id="Rectangle_124143" data-name="Rectangle 124143" width="1.818" height="1.818" transform="translate(876.66 742.227)"/>
      <rect id="Rectangle_124144" data-name="Rectangle 124144" width="1.818" height="1.818" transform="translate(878.478 742.227)"/>
      <rect id="Rectangle_124145" data-name="Rectangle 124145" width="1.818" height="1.818" transform="translate(880.297 742.227)"/>
      <rect id="Rectangle_124146" data-name="Rectangle 124146" width="1.818" height="1.818" transform="translate(883.933 742.227)"/>
      <rect id="Rectangle_124147" data-name="Rectangle 124147" width="1.818" height="1.818" transform="translate(885.751 742.227)"/>
      <rect id="Rectangle_124148" data-name="Rectangle 124148" width="1.818" height="1.818" transform="translate(867.569 744.045)"/>
      <rect id="Rectangle_124149" data-name="Rectangle 124149" width="1.818" height="1.818" transform="translate(885.751 744.045)"/>
      <rect id="Rectangle_124150" data-name="Rectangle 124150" width="1.818" height="1.818" transform="translate(871.206 745.864)"/>
      <rect id="Rectangle_124151" data-name="Rectangle 124151" width="1.818" height="1.818" transform="translate(874.842 745.864)"/>
      <rect id="Rectangle_124152" data-name="Rectangle 124152" width="1.818" height="1.818" transform="translate(880.297 745.864)"/>
      <rect id="Rectangle_124153" data-name="Rectangle 124153" width="1.818" height="1.818" transform="translate(882.115 745.864)"/>
      <rect id="Rectangle_124154" data-name="Rectangle 124154" width="1.818" height="1.818" transform="translate(880.297 747.682)"/>
      <rect id="Rectangle_124155" data-name="Rectangle 124155" width="1.818" height="1.818" transform="translate(882.115 747.682)"/>
      <rect id="Rectangle_124156" data-name="Rectangle 124156" width="1.818" height="1.818" transform="translate(871.206 749.5)"/>
      <rect id="Rectangle_124157" data-name="Rectangle 124157" width="1.818" height="1.818" transform="translate(880.297 749.5)"/>
      <rect id="Rectangle_124158" data-name="Rectangle 124158" width="1.818" height="1.818" transform="translate(882.115 749.5)"/>
      <rect id="Rectangle_124159" data-name="Rectangle 124159" width="1.818" height="1.818" transform="translate(867.569 753.136)"/>
      <rect id="Rectangle_124160" data-name="Rectangle 124160" width="1.818" height="1.818" transform="translate(874.842 734.955)"/>
      <rect id="Rectangle_124161" data-name="Rectangle 124161" width="1.818" height="1.818" transform="translate(876.66 734.955)"/>
      <rect id="Rectangle_124162" data-name="Rectangle 124162" width="1.818" height="1.818" transform="translate(878.478 734.955)"/>
      <rect id="Rectangle_124163" data-name="Rectangle 124163" width="1.818" height="1.818" transform="translate(871.206 742.227)"/>
      <rect id="Rectangle_124164" data-name="Rectangle 124164" width="1.818" height="1.818" transform="translate(882.115 742.227)"/>
      <rect id="Rectangle_124165" data-name="Rectangle 124165" width="1.818" height="1.818" transform="translate(867.569 745.864)"/>
      <rect id="Rectangle_124166" data-name="Rectangle 124166" width="1.818" height="1.818" transform="translate(885.751 745.864)"/>
      <rect id="Rectangle_124167" data-name="Rectangle 124167" width="1.818" height="1.818" transform="translate(867.569 747.682)"/>
      <rect id="Rectangle_124168" data-name="Rectangle 124168" width="1.818" height="1.818" transform="translate(885.751 747.682)"/>
      <rect id="Rectangle_124169" data-name="Rectangle 124169" width="1.818" height="1.818" transform="translate(867.569 749.5)"/>
      <rect id="Rectangle_124170" data-name="Rectangle 124170" width="1.818" height="1.818" transform="translate(874.842 749.5)"/>
      <rect id="Rectangle_124171" data-name="Rectangle 124171" width="1.818" height="1.818" transform="translate(885.751 749.5)"/>
      <rect id="Rectangle_124172" data-name="Rectangle 124172" width="1.818" height="1.818" transform="translate(867.569 751.318)"/>
      <rect id="Rectangle_124173" data-name="Rectangle 124173" width="1.818" height="1.818" transform="translate(885.751 751.318)"/>
      <rect id="Rectangle_124174" data-name="Rectangle 124174" width="1.818" height="1.818" transform="translate(869.388 753.136)"/>
      <rect id="Rectangle_124175" data-name="Rectangle 124175" width="1.818" height="1.818" transform="translate(871.206 753.136)"/>
      <rect id="Rectangle_124176" data-name="Rectangle 124176" width="1.818" height="1.818" transform="translate(873.024 753.136)"/>
      <rect id="Rectangle_124177" data-name="Rectangle 124177" width="1.818" height="1.818" transform="translate(874.842 753.136)"/>
      <rect id="Rectangle_124178" data-name="Rectangle 124178" width="1.818" height="1.818" transform="translate(876.66 753.136)"/>
      <rect id="Rectangle_124179" data-name="Rectangle 124179" width="1.818" height="1.818" transform="translate(878.478 753.136)"/>
      <rect id="Rectangle_124180" data-name="Rectangle 124180" width="1.818" height="1.818" transform="translate(880.297 753.136)"/>
      <rect id="Rectangle_124181" data-name="Rectangle 124181" width="1.818" height="1.818" transform="translate(882.115 753.136)"/>
      <rect id="Rectangle_124182" data-name="Rectangle 124182" width="1.818" height="1.818" transform="translate(883.933 753.136)"/>
      <rect id="Rectangle_124183" data-name="Rectangle 124183" width="1.818" height="1.818" transform="translate(885.751 753.136)"/>
    </g>
  </g>
</svg>
