<svg xmlns="http://www.w3.org/2000/svg" width="24" height="24" viewBox="0 0 24 24">
  <g id="px-icon26" transform="translate(10151.059 1042.195)">
    <rect id="Rectangle_152146" data-name="Rectangle 152146" width="24" height="24" transform="translate(-10151.059 -1042.195)" fill="#fff"/>
    <g id="px-icon26-2" data-name="px-icon26" transform="translate(-10618.783 -1642.534)">
      <rect id="Rectangle_123381" data-name="Rectangle 123381" width="1.818" height="1.818" transform="translate(473.361 604.158)"/>
      <rect id="Rectangle_123382" data-name="Rectangle 123382" width="1.818" height="1.818" transform="translate(478.816 604.158)"/>
      <rect id="Rectangle_123383" data-name="Rectangle 123383" width="1.818" height="1.818" transform="translate(484.27 604.158)"/>
      <rect id="Rectangle_123384" data-name="Rectangle 123384" width="1.818" height="1.818" transform="translate(471.543 605.976)"/>
      <rect id="Rectangle_123385" data-name="Rectangle 123385" width="1.818" height="1.818" transform="translate(478.816 605.976)"/>
      <rect id="Rectangle_123386" data-name="Rectangle 123386" width="1.818" height="1.818" transform="translate(486.088 605.976)"/>
      <rect id="Rectangle_123387" data-name="Rectangle 123387" width="1.818" height="1.818" transform="translate(469.725 607.794)"/>
      <rect id="Rectangle_123388" data-name="Rectangle 123388" width="1.818" height="1.818" transform="translate(478.816 607.794)"/>
      <rect id="Rectangle_123389" data-name="Rectangle 123389" width="1.818" height="1.818" transform="translate(487.907 607.794)"/>
      <rect id="Rectangle_123390" data-name="Rectangle 123390" width="1.818" height="1.818" transform="translate(469.725 609.612)"/>
      <rect id="Rectangle_123391" data-name="Rectangle 123391" width="1.818" height="1.818" transform="translate(478.816 609.612)"/>
      <rect id="Rectangle_123392" data-name="Rectangle 123392" width="1.818" height="1.818" transform="translate(487.907 609.612)"/>
      <rect id="Rectangle_123393" data-name="Rectangle 123393" width="1.818" height="1.818" transform="translate(469.725 611.431)"/>
      <rect id="Rectangle_123394" data-name="Rectangle 123394" width="1.818" height="1.818" transform="translate(487.907 611.431)"/>
      <rect id="Rectangle_123395" data-name="Rectangle 123395" width="1.818" height="1.818" transform="translate(471.543 616.885)"/>
      <rect id="Rectangle_123396" data-name="Rectangle 123396" width="1.818" height="1.818" transform="translate(486.088 616.885)"/>
      <rect id="Rectangle_123397" data-name="Rectangle 123397" width="1.818" height="1.818" transform="translate(473.361 618.703)"/>
      <rect id="Rectangle_123398" data-name="Rectangle 123398" width="1.818" height="1.818" transform="translate(484.27 618.703)"/>
      <rect id="Rectangle_123399" data-name="Rectangle 123399" width="1.818" height="1.818" transform="translate(478.816 602.34)"/>
      <rect id="Rectangle_123400" data-name="Rectangle 123400" width="1.818" height="1.818" transform="translate(469.725 613.249)"/>
      <rect id="Rectangle_123401" data-name="Rectangle 123401" width="1.818" height="1.818" transform="translate(487.907 613.249)"/>
      <rect id="Rectangle_123402" data-name="Rectangle 123402" width="1.818" height="1.818" transform="translate(469.725 615.067)"/>
      <rect id="Rectangle_123403" data-name="Rectangle 123403" width="1.818" height="1.818" transform="translate(487.907 615.067)"/>
      <rect id="Rectangle_123404" data-name="Rectangle 123404" width="1.818" height="1.818" transform="translate(475.179 620.521)"/>
      <rect id="Rectangle_123405" data-name="Rectangle 123405" width="1.818" height="1.818" transform="translate(476.997 620.521)"/>
      <rect id="Rectangle_123406" data-name="Rectangle 123406" width="1.818" height="1.818" transform="translate(478.816 620.521)"/>
      <rect id="Rectangle_123407" data-name="Rectangle 123407" width="1.818" height="1.818" transform="translate(480.634 620.521)"/>
      <rect id="Rectangle_123408" data-name="Rectangle 123408" width="1.818" height="1.818" transform="translate(482.452 620.521)"/>
    </g>
  </g>
</svg>
