<svg xmlns="http://www.w3.org/2000/svg" width="24" height="24" viewBox="0 0 24 24">
  <g id="px-icon21" transform="translate(10011.059 1042.195)">
    <rect id="Rectangle_152127" data-name="Rectangle 152127" width="24" height="24" transform="translate(-10011.059 -1042.195)" fill="#fff"/>
    <g id="px-icon21-2" data-name="px-icon21" transform="translate(-10611.398 -1244.69)">
      <rect id="Rectangle_123571" data-name="Rectangle 123571" width="1.818" height="1.818" transform="translate(609.612 206.313)"/>
      <rect id="Rectangle_123572" data-name="Rectangle 123572" width="1.818" height="1.818" transform="translate(607.794 208.131)"/>
      <rect id="Rectangle_123573" data-name="Rectangle 123573" width="1.818" height="1.818" transform="translate(609.612 208.131)"/>
      <rect id="Rectangle_123574" data-name="Rectangle 123574" width="1.818" height="1.818" transform="translate(607.794 209.95)"/>
      <rect id="Rectangle_123575" data-name="Rectangle 123575" width="1.818" height="1.818" transform="translate(609.612 209.95)"/>
      <rect id="Rectangle_123576" data-name="Rectangle 123576" width="1.818" height="1.818" transform="translate(602.34 211.768)"/>
      <rect id="Rectangle_123577" data-name="Rectangle 123577" width="1.818" height="1.818" transform="translate(604.158 211.768)"/>
      <rect id="Rectangle_123578" data-name="Rectangle 123578" width="1.818" height="1.818" transform="translate(607.794 211.768)"/>
      <rect id="Rectangle_123579" data-name="Rectangle 123579" width="1.818" height="1.818" transform="translate(609.612 211.768)"/>
      <rect id="Rectangle_123580" data-name="Rectangle 123580" width="1.818" height="1.818" transform="translate(602.34 213.586)"/>
      <rect id="Rectangle_123581" data-name="Rectangle 123581" width="1.818" height="1.818" transform="translate(620.521 213.586)"/>
      <rect id="Rectangle_123582" data-name="Rectangle 123582" width="1.818" height="1.818" transform="translate(604.158 215.404)"/>
      <rect id="Rectangle_123583" data-name="Rectangle 123583" width="1.818" height="1.818" transform="translate(605.976 215.404)"/>
      <rect id="Rectangle_123584" data-name="Rectangle 123584" width="1.818" height="1.818" transform="translate(607.794 215.404)"/>
      <rect id="Rectangle_123585" data-name="Rectangle 123585" width="1.818" height="1.818" transform="translate(609.612 215.404)"/>
      <rect id="Rectangle_123586" data-name="Rectangle 123586" width="1.818" height="1.818" transform="translate(616.885 215.404)"/>
      <rect id="Rectangle_123587" data-name="Rectangle 123587" width="1.818" height="1.818" transform="translate(605.976 217.222)"/>
      <rect id="Rectangle_123588" data-name="Rectangle 123588" width="1.818" height="1.818" transform="translate(607.794 217.222)"/>
      <rect id="Rectangle_123589" data-name="Rectangle 123589" width="1.818" height="1.818" transform="translate(609.612 217.222)"/>
      <rect id="Rectangle_123590" data-name="Rectangle 123590" width="1.818" height="1.818" transform="translate(616.885 217.222)"/>
      <rect id="Rectangle_123591" data-name="Rectangle 123591" width="1.818" height="1.818" transform="translate(605.976 219.04)"/>
      <rect id="Rectangle_123592" data-name="Rectangle 123592" width="1.818" height="1.818" transform="translate(607.794 219.04)"/>
      <rect id="Rectangle_123593" data-name="Rectangle 123593" width="1.818" height="1.818" transform="translate(607.794 220.859)"/>
      <rect id="Rectangle_123594" data-name="Rectangle 123594" width="1.818" height="1.818" transform="translate(609.612 220.859)"/>
      <rect id="Rectangle_123595" data-name="Rectangle 123595" width="1.818" height="1.818" transform="translate(609.612 204.495)"/>
      <rect id="Rectangle_123596" data-name="Rectangle 123596" width="1.818" height="1.818" transform="translate(607.794 206.313)"/>
      <rect id="Rectangle_123597" data-name="Rectangle 123597" width="1.818" height="1.818" transform="translate(605.976 208.131)"/>
      <rect id="Rectangle_123598" data-name="Rectangle 123598" width="1.818" height="1.818" transform="translate(605.976 209.95)"/>
      <rect id="Rectangle_123599" data-name="Rectangle 123599" width="1.818" height="1.818" transform="translate(616.885 209.95)"/>
      <rect id="Rectangle_123600" data-name="Rectangle 123600" width="1.818" height="1.818" transform="translate(605.976 211.768)"/>
      <rect id="Rectangle_123601" data-name="Rectangle 123601" width="1.818" height="1.818" transform="translate(616.885 211.768)"/>
      <rect id="Rectangle_123602" data-name="Rectangle 123602" width="1.818" height="1.818" transform="translate(604.158 213.586)"/>
      <rect id="Rectangle_123603" data-name="Rectangle 123603" width="1.818" height="1.818" transform="translate(605.976 213.586)"/>
      <rect id="Rectangle_123604" data-name="Rectangle 123604" width="1.818" height="1.818" transform="translate(607.794 213.586)"/>
      <rect id="Rectangle_123605" data-name="Rectangle 123605" width="1.818" height="1.818" transform="translate(609.612 213.586)"/>
      <rect id="Rectangle_123606" data-name="Rectangle 123606" width="1.818" height="1.818" transform="translate(613.249 213.586)"/>
      <rect id="Rectangle_123607" data-name="Rectangle 123607" width="1.818" height="1.818" transform="translate(615.067 213.586)"/>
      <rect id="Rectangle_123608" data-name="Rectangle 123608" width="1.818" height="1.818" transform="translate(616.885 213.586)"/>
      <rect id="Rectangle_123609" data-name="Rectangle 123609" width="1.818" height="1.818" transform="translate(618.703 213.586)"/>
      <rect id="Rectangle_123610" data-name="Rectangle 123610" width="1.818" height="1.818" transform="translate(602.34 215.404)"/>
      <rect id="Rectangle_123611" data-name="Rectangle 123611" width="1.818" height="1.818" transform="translate(609.612 219.04)"/>
      <rect id="Rectangle_123612" data-name="Rectangle 123612" width="1.818" height="1.818" transform="translate(609.612 222.677)"/>
    </g>
  </g>
</svg>
