<svg xmlns="http://www.w3.org/2000/svg" width="24" height="24" viewBox="0 0 24 24">
  <g id="reload" transform="translate(9899.059 622.195)">
    <rect id="Rectangle_151781" data-name="Rectangle 151781" width="24" height="24" transform="translate(-9899.059 -622.195)" fill="#fff"/>
    <path id="reload-2" data-name="reload" d="M16,2H14V4h2V6H4V8H2v5H4V8H16v2H14v2h2V10h2V8h2V6H18V4H16ZM6,20H8v2h2V20H8V18H20V16h2V11H20v5H8V14h2V12H8v2H6v2H4v2H6Z" transform="translate(-9899.059 -622.195)"/>
  </g>
</svg>
