<svg xmlns="http://www.w3.org/2000/svg" width="24" height="24" viewBox="0 0 24 24">
  <g id="reload" transform="translate(9927.059 1126.195)">
    <rect id="Rectangle_152101" data-name="Rectangle 152101" width="24" height="24" transform="translate(-9927.059 -1126.195)" fill="#fff"/>
    <g id="arrow41" transform="translate(-9752.075 -1239.291)">
      <path id="rect4861" d="M-166.687,119.54V120.6h1.059V119.54Zm1.059,1.058v1.059h1.058V120.6Zm1.058,1.059v1.058h1.059v-1.058Zm-2.117-1.059h-1.058v1.059h1.058Zm-1.058,1.059H-168.8v1.058h1.059Zm5.291,0v1.058h2.117v-1.058Zm2.117,1.058v4.762h1.059v-4.762Zm-6.349,0v4.762h1.059v-4.762Zm1.059,4.762v1.058h2.117v-1.058Zm3.173,0v1.058h1.059v-1.058Zm1.059,1.058v1.059h1.058v-1.059Zm1.058,1.059v1.058h1.059v-1.058Zm1.059,0h1.058v-1.059h-1.058Zm1.058-1.059h1.059v-1.058h-1.059Z"/>
    </g>
  </g>
</svg>
