<svg xmlns="http://www.w3.org/2000/svg" width="24" height="24" viewBox="0 0 24 24">
  <g id="right-arrows" transform="translate(10263.059 1070.195)">
    <rect id="Rectangle_152171" data-name="Rectangle 152171" width="24" height="24" transform="translate(-10263.059 -1070.195)" fill="#fff"/>
    <g id="arrow13" transform="translate(-10088.075 -1183.291)">
      <path id="rect3933" d="M-164.57,121.392v2.117H-168.8v3.176h4.234V128.8h1.059v-1.059h1.056v-1.056h-1.056v-3.176h1.056v-1.058h-1.056v-1.059Zm2.115,2.117v1.059h1.059v-1.059Zm1.059,1.059v1.058h1.058v-1.058Zm0,1.058h-1.059v1.059h1.059Zm0-4.234v1.059h1.058v-1.059Zm1.058,1.059v1.058h1.059v-1.058Zm1.059,1.058v1.059h1.058v-1.059Zm1.058,1.059v1.058h1.059v-1.058Zm0,1.058h-1.058v1.059h1.058Zm-1.058,1.059h-1.059v1.056h1.059Zm-1.059,1.056H-161.4V128.8h1.058Zm-7.408-3.173h3.176v1.058h-3.176Z"/>
    </g>
  </g>
</svg>
