<svg xmlns="http://www.w3.org/2000/svg" width="24" height="24" viewBox="0 0 24 24">
  <g id="shopping-shipping-shop" transform="translate(9843.059 1266.195)">
    <rect id="Rectangle_152241" data-name="Rectangle 152241" width="24" height="24" transform="translate(-9843.059 -1266.195)" fill="#fff"/>
    <g id="shopping-shipping-shop-2" data-name="shopping-shipping-shop" transform="translate(-9841.059 -1264.789)">
      <path id="Path_5273" data-name="Path 5273" d="M19.044,25.055H16.188V23.149h2.856v-1.9h-.95v.95H16.188v-.95h-.95v.95H12.375V20.292h-.95V22.2H8.569V20.292h-.95V22.2H4.756v-.95h-.95v.95H1.9v-.95H.95v1.9H3.806v1.906H.95V23.149H0v2.863H.95V36.486H0v.95H20v-.95h-.956V26.011H20V23.149h-.956Zm-6.669-1.906h2.863v1.906H12.375Zm-3.806,0h2.856v1.906H8.569Zm-3.813,0H7.619v1.906H4.756ZM18.094,36.486H9.519V27.911h-.95v8.575H3.806V27.911h-.95v8.575H1.9V26.011H18.094Z" transform="translate(0 -16.842)"/>
      <path id="Path_5274" data-name="Path 5274" d="M119.148,20.292h-.956v.956h.956Z" transform="translate(-101.054 -16.842)"/>
      <path id="Path_5275" data-name="Path 5275" d="M78.908,67.235h-.95v1.906H76.052V67.235h1.906v-.95H73.2v.95H75.1v1.906H73.2V67.235h-.95v5.719h6.663ZM75.1,72H73.2V70.091H75.1Zm2.856,0H76.052V70.091h1.906Z" transform="translate(-61.77 -56.165)"/>
      <path id="Path_5276" data-name="Path 5276" d="M112.587,13.737h-.95v.95h.95Z" transform="translate(-95.45 -11.237)"/>
      <path id="Path_5277" data-name="Path 5277" d="M99.452,20.292H98.5v.956h.956Z" transform="translate(-84.214 -16.842)"/>
      <path id="Path_5278" data-name="Path 5278" d="M31.015,66.285H26.253v.95h4.763Z" transform="translate(-22.446 -56.165)"/>
      <path id="Path_5279" data-name="Path 5279" d="M33.763,92.537h-.956v1.906h.956Z" transform="translate(-28.05 -78.611)"/>
      <path id="Path_5280" data-name="Path 5280" d="M33.763,20.292h-.956v.956h.956Z" transform="translate(-28.05 -16.842)"/>
      <path id="Path_5281" data-name="Path 5281" d="M28.159,3.451h.95V2.5h1.906v.95h.95V2.5h.956v.95h.95V2.5h1.906v.95h.95V2.5h1.906V.595H26.253V2.5h1.906Z" transform="translate(-22.446)"/>
      <path id="Path_5282" data-name="Path 5282" d="M20.646,13.737H19.7v.95h.95Z" transform="translate(-16.84 -11.237)"/>
      <path id="Path_5283" data-name="Path 5283" d="M14.067,20.292h-.956v.956h.956Z" transform="translate(-11.21 -16.842)"/>
    </g>
  </g>
</svg>
