<svg xmlns="http://www.w3.org/2000/svg" width="24" height="24" viewBox="0 0 24 24">
  <g id="sort-alpabetic" transform="translate(10263.059 846.195)">
    <rect id="Rectangle_151952" data-name="Rectangle 151952" width="24" height="24" transform="translate(-10263.059 -846.195)" fill="#fff"/>
    <path id="sort-alpabetic-2" data-name="sort-alpabetic" d="M11,2h2V4H11Zm0,2V6H9V4Zm2,0h2V6H13ZM9,18v2h2v2h2V20h2V18H13v2H11V18ZM8,8H2v8H4V14H6v2H8ZM6,12H4V10H6Zm6-1V10h2v1Zm4-3H10v8h6Zm-4,6V13h2v1ZM22,8H18v8h4V14H20V10h2Z" transform="translate(-10263.059 -846.195)"/>
  </g>
</svg>
