<svg xmlns="http://www.w3.org/2000/svg" width="24" height="24" viewBox="0 0 24 24">
  <g id="users" transform="translate(10375.059 958.195)">
    <rect id="Rectangle_152028" data-name="Rectangle 152028" width="24" height="24" transform="translate(-10375.059 -958.195)" fill="#fff"/>
    <path id="users-2" data-name="users" d="M491.167,214h-5v1.667H484.5v5h1.667v1.667h5v-1.667h-5v-5h5Zm0,1.667h1.667v5h-1.667Zm-9.167,10h1.667V229h10v1.667H482Zm1.667,0h10V224h-10Zm11.667,0h-1.667v5h1.667ZM494.5,214h3.333v1.667H494.5Zm3.333,6.667H494.5v1.667h3.333Zm0-5H499.5v5h-1.667Zm4.167,10h-1.667V229H497v1.667h5ZM497,224h3.333v1.667H497Z" transform="translate(-10855.059 -1168.528)"/>
  </g>
</svg>
