<svg xmlns="http://www.w3.org/2000/svg" width="24" height="24" viewBox="0 0 24 24">
  <g id="volume-high" transform="translate(10319.059 510.195)">
    <rect id="Rectangle_151767" data-name="Rectangle 151767" width="24" height="24" transform="translate(-10319.059 -510.195)" fill="#fff"/>
    <path id="volume-high-2" data-name="volume-high" d="M14.222,2h2.222V3.111h1.111V4.222h1.111V5.333h1.111V6.444h1.111V8.667H22v6.667H20.889v2.222H19.778v1.111H18.667v1.111H17.556v1.111H16.444V22H14.222V19.778h1.111V18.667h1.111V17.556h1.111V16.444h1.111V14.222h1.111V9.778H18.667V7.556H17.556V6.444H16.444V5.333H15.333V4.222H14.222Zm1.111,5.556V8.667h1.111v2.222h1.111v2.222H16.444v2.222H15.333v1.111H14.222V7.556ZM2,8.667H6.444V7.556H7.556V6.444H8.667V5.333H9.778V4.222h1.111V3.111H12V20.889H10.889V19.778H9.778V18.667H8.667V17.556H7.556V16.444H6.444V15.333H2Zm2.222,2.222v2.222H7.556v1.111H8.667v1.111H9.778V8.667H8.667V9.778H7.556v1.111Z" transform="translate(-10319.059 -510.195)"/>
  </g>
</svg>
