<svg xmlns="http://www.w3.org/2000/svg" width="24" height="24" viewBox="0 0 24 24"><path d="M10,2H8V0h2Z" transform="translate(3 3)"/><path d="M14,2h2V4H14Z" transform="translate(3 3)"/><path d="M6,4h6V6H6Z" transform="translate(3 3)"/><path d="M6,12H4V6H6Z" transform="translate(3 3)"/><path d="M12,12v2H6V12Z" transform="translate(3 3)"/><path d="M12,6h2v6H12Z" transform="translate(3 3)"/><path d="M10,10H8V8h2Z" transform="translate(3 3)"/><path d="M2,2H4V4H2Z" transform="translate(3 3)"/><path d="M2,10H0V8H2Z" transform="translate(3 3)"/><path d="M2,14H4v2H2Z" transform="translate(3 3)"/><path d="M10,18H8V16h2Z" transform="translate(3 3)"/><path d="M14,14h2v2H14Z" transform="translate(3 3)"/><path d="M18,10H16V8h2Z" transform="translate(3 3)"/></svg>