<svg id="Capa_1" enable-background="new 0 0 512 512" height="512" viewBox="0 0 512 512" width="512" xmlns="http://www.w3.org/2000/svg" xmlns:xlink="http://www.w3.org/1999/xlink"><linearGradient id="SVGID_1_" gradientUnits="userSpaceOnUse" x1="256" x2="256" y1="491" y2="21"><stop offset="0" stop-color="#c3ffe8"/><stop offset=".9973" stop-color="#f0fff4"/></linearGradient><linearGradient id="SVGID_00000121998379083613247520000018290458248003364287_" gradientUnits="userSpaceOnUse" x1="297" x2="297" y1="431" y2="41"><stop offset="0" stop-color="#00b59c"/><stop offset="1" stop-color="#9cffac"/></linearGradient><g><path d="m512 116v360c0 8.284-6.716 15-15 15h-482c-8.284 0-15-6.716-15-15v-360c0-8.284 6.716-15 15-15h38.289l17.159-68.638c1.669-6.677 7.669-11.362 14.552-11.362h122c5.682 0 10.875 3.21 13.417 8.292l35.854 71.708h240.729c8.284 0 15 6.716 15 15z" fill="url(#SVGID_1_)"/><path d="m256.271 101-30-60h231.729c8.284 0 15 6.716 15 15v45zm134.729 195v30c0 24.813-20.187 45-45 45-15.992 0-30.052-8.392-38.035-20.997-13.491 12.987-31.805 20.997-51.965 20.997-41.355 0-75-33.645-75-75s33.645-75 75-75 75 33.645 75 75v30c0 8.271 6.729 15 15 15s15-6.729 15-15v-30c0-57.897-47.103-105-105-105s-105 47.103-105 105 47.103 105 105 105c8.284 0 15 6.716 15 15s-6.716 15-15 15c-74.439 0-135-60.561-135-135s60.561-135 135-135 135 60.561 135 135zm-90 0c0-24.813-20.187-45-45-45s-45 20.187-45 45 20.187 45 45 45 45-20.187 45-45z" fill="url(#SVGID_00000121998379083613247520000018290458248003364287_)"/></g></svg>