<svg id="Capa_1" enable-background="new 0 0 512 512" height="512" viewBox="0 0 512 512" width="512" xmlns="http://www.w3.org/2000/svg" xmlns:xlink="http://www.w3.org/1999/xlink"><linearGradient id="SVGID_1_" gradientUnits="userSpaceOnUse" x1="256" x2="256" y1="491" y2="21"><stop offset="0" stop-color="#addcff"/><stop offset=".5028" stop-color="#eaf6ff"/><stop offset="1" stop-color="#eaf6ff"/></linearGradient><linearGradient id="SVGID_00000099641111695561690600000002177510882962044574_" gradientUnits="userSpaceOnUse" x1="301.5" x2="301.5" y1="431" y2="41"><stop offset="0" stop-color="#5558ff"/><stop offset="1" stop-color="#00c0ff"/></linearGradient><g><path d="m512 116v360c0 8.284-6.716 15-15 15h-482c-8.284 0-15-6.716-15-15v-360c0-8.284 6.716-15 15-15h38.288l17.16-68.638c1.669-6.677 7.669-11.362 14.552-11.362h122c5.682 0 10.876 3.21 13.416 8.292l35.855 71.708h240.729c8.284 0 15 6.716 15 15z" fill="url(#SVGID_1_)"/><path d="m256.271 101-30-60h230.729c8.284 0 15 6.716 15 15v45zm109.729 260c-8.284 0-15 6.716-15 15v25h-190v-25c0-8.284-6.716-15-15-15s-15 6.716-15 15v40c0 8.284 6.716 15 15 15h220c8.284 0 15-6.716 15-15v-40c0-8.284-6.716-15-15-15zm-98.287-194.37 59.194 73.992c7.857 9.821.865 24.37-11.713 24.37h-14.194v91.008c0 8.284-6.716 15-15 15h-60c-8.284 0-15-6.716-15-15v-91.008h-14.194c-12.578 0-19.57-14.549-11.713-24.37l59.194-73.992c6.005-7.507 17.421-7.507 23.426 0z" fill="url(#SVGID_00000099641111695561690600000002177510882962044574_)"/></g></svg>