<svg id="Capa_1" enable-background="new 0 0 512 512" height="512" viewBox="0 0 512 512" width="512" xmlns="http://www.w3.org/2000/svg" xmlns:xlink="http://www.w3.org/1999/xlink"><linearGradient id="SVGID_1_" gradientUnits="userSpaceOnUse" x1="256" x2="256" y1="501" y2="11"><stop offset="0" stop-color="#c3ffe8"/><stop offset=".9973" stop-color="#f0fff4"/></linearGradient><linearGradient id="SVGID_00000091714854652263146380000010421171395393415307_" gradientUnits="userSpaceOnUse" x1="276.5" x2="276.5" y1="441" y2="31"><stop offset="0" stop-color="#00b59c"/><stop offset="1" stop-color="#9cffac"/></linearGradient><g><path d="m512 106v380c0 8.284-6.716 15-15 15h-480c-8.253 0-14.957-6.667-15-14.921l-2-380c-.021-3.992 1.55-7.828 4.366-10.658 2.815-2.83 6.643-4.421 10.634-4.421h38.289l17.159-68.638c1.669-6.677 7.669-11.362 14.552-11.362h122c5.682 0 10.875 3.21 13.417 8.292l35.854 71.708h240.729c8.284 0 15 6.716 15 15z" fill="url(#SVGID_1_)"/><path d="m256.271 91-30-60h230.729c8.284 0 15 6.716 15 15v45zm159.729 320h-258.85c8.316-6.109 16.191-12.845 23.531-20.185l138.274-138.274-49.498-49.497-138.273 138.273c-22.444 22.444-39.353 49.805-49.389 79.917-3.371 10.116 4.471 19.806 14.216 19.766h319.989c8.284 0 15-6.716 15-15s-6.716-15-15-15zm-58.154-197.349c13.668-13.668 13.668-35.829 0-49.498-13.668-13.668-35.829-13.668-49.497 0l-17.678 17.678 49.498 49.497z" fill="url(#SVGID_00000091714854652263146380000010421171395393415307_)"/></g></svg>