<svg id="Capa_1" enable-background="new 0 0 512 512" height="512" viewBox="0 0 512 512" width="512" xmlns="http://www.w3.org/2000/svg" xmlns:xlink="http://www.w3.org/1999/xlink"><linearGradient id="SVGID_1_" gradientUnits="userSpaceOnUse" x1="256" x2="256" y1="491" y2="21"><stop offset="0" stop-color="#addcff"/><stop offset=".5028" stop-color="#eaf6ff"/><stop offset="1" stop-color="#eaf6ff"/></linearGradient><linearGradient id="SVGID_00000110467575116435234250000013720773025155566224_" gradientUnits="userSpaceOnUse" x1="306.499" x2="306.499" y1="420.542" y2="41"><stop offset="0" stop-color="#5558ff"/><stop offset="1" stop-color="#00c0ff"/></linearGradient><g><path d="m512 116v360c0 8.284-6.716 15-15 15h-482c-8.284 0-15-6.716-15-15v-360c0-8.284 6.716-15 15-15h38.288l17.16-68.638c1.669-6.677 7.669-11.362 14.552-11.362h122c5.682 0 10.876 3.21 13.416 8.292l35.855 71.708h240.729c8.284 0 15 6.716 15 15z" fill="url(#SVGID_1_)"/><path d="m256.271 101-30-60h230.729c8.284 0 15 6.716 15 15v45zm108.049 152.52c-21.453-14.302-35.167-37.216-37.834-62.52h9.514c8.284 0 15-6.716 15-15s-6.716-15-15-15h-160c-8.284 0-15 6.716-15 15s6.716 15 15 15h9.514c-2.667 25.303-16.381 48.217-37.834 62.52-6.893 4.595-8.755 13.908-4.16 20.801l97.48 146.221v-119.542c0-8.284 6.716-15 15-15s15 6.716 15 15v119.542l97.48-146.221c4.596-6.893 2.733-16.206-4.16-20.801z" fill="url(#SVGID_00000110467575116435234250000013720773025155566224_)"/></g></svg>