<svg id="Capa_1" enable-background="new 0 0 512 512" height="512" viewBox="0 0 512 512" width="512" xmlns="http://www.w3.org/2000/svg" xmlns:xlink="http://www.w3.org/1999/xlink"><linearGradient id="SVGID_1_" gradientUnits="userSpaceOnUse" x1="256" x2="256" y1="491" y2="21"><stop offset="0" stop-color="#addcff"/><stop offset=".5028" stop-color="#eaf6ff"/><stop offset="1" stop-color="#eaf6ff"/></linearGradient><linearGradient id="SVGID_00000054982409876817348120000010913657377301938317_" gradientUnits="userSpaceOnUse" x1="287.61" x2="287.61" y1="431" y2="21"><stop offset="0" stop-color="#5558ff"/><stop offset="1" stop-color="#00c0ff"/></linearGradient><g><path d="m512 116v360c0 8.284-6.716 15-15 15h-482c-8.284 0-15-6.716-15-15v-360c0-8.284 6.716-15 15-15h38.289l17.159-68.638c1.669-6.677 7.669-11.362 14.552-11.362h122c5.682 0 10.875 3.21 13.417 8.292l35.854 71.708h240.729c8.284 0 15 6.716 15 15z" fill="url(#SVGID_1_)"/><path d="m256.271 101-30-60h230.729c8.284 0 15 6.716 15 15v45zm195.729 255c0-8.284-6.716-15-15-15h-60c-8.284 0-15 6.716-15 15s6.716 15 15 15h60c8.284 0 15-6.716 15-15zm0 60c0-8.284-6.716-15-15-15h-60c-8.284 0-15 6.716-15 15s6.716 15 15 15h60c8.284 0 15-6.716 15-15zm-269.78-50.35-21.22-33.952v-40.698h5c8.284 0 15-6.716 15-15s-6.716-15-15-15h-5v-37.5h5c8.284 0 15-6.716 15-15s-6.716-15-15-15h-5v-37.5h5c8.284 0 15-6.716 15-15s-6.716-15-15-15h-5v-37.5h5c8.284 0 15-6.716 15-15s-6.716-15-15-15h-5v-37.5h-30v37.5h-5c-8.284 0-15 6.716-15 15s6.716 15 15 15h5v37.5h-5c-8.284 0-15 6.716-15 15s6.716 15 15 15h5v37.5h-5c-8.284 0-15 6.716-15 15s6.716 15 15 15h5v37.5h-5c-8.284 0-15 6.716-15 15s6.716 15 15 15h5v40.698l-21.22 33.952c-17.78 28.449 2.672 65.35 36.22 65.35s54-36.901 36.22-65.35z" fill="url(#SVGID_00000054982409876817348120000010913657377301938317_)"/></g></svg>