<svg xmlns="http://www.w3.org/2000/svg" xml:space="preserve" width="800" height="800" viewBox="0 0 400 400"><path d="M186.7 0h26.7v26.7h-26.7zM160 26.7h26.7v26.7H160zM213.3 26.7H240v26.7h-26.7zM133.3 53.3H160V80h-26.7zM240 53.3h26.7V80H240zM106.7 80h26.7v26.7h-26.7zM266.7 80h26.7v26.7h-26.7zM80 106.7h26.7v26.7H80zM293.3 106.7H320v26.7h-26.7zM53.3 133.3H80V160H53.3zM320 133.3h26.7V160H320zM26.7 160h26.7v26.7H26.7zM346.7 160h26.7v26.7h-26.7zM373.3 213.3v160H400V186.7h-26.7zM213.3 240H160v26.7h80V240zM133.3 293.3v80H160V266.7h-26.7zM26.7 320V186.7H0V373.3h26.7v-26.6zM266.7 320v-53.3H240v106.6h26.7v-26.6zM80 373.3H26.7V400h106.6v-26.7h-26.6zM320 373.3h-53.3V400h106.6v-26.7h-26.6z"/></svg>