<svg xmlns="http://www.w3.org/2000/svg" xml:space="preserve" width="800" height="800" viewBox="0 0 400 400"><path d="M186.7 26.7h80V0H133.3v26.7H160zM106.7 26.7h26.7v26.7h-26.7zM266.7 26.7h26.7v26.7h-26.7zM80 53.3h26.7V80H80z"/><path d="M293.3 53.3H320V80h-26.7zM213.3 106.7H240V80h-80v26.7h26.7zM320 80v106.7h26.7V80zM240 133.3v53.4h26.7v-80H240zM80 133.3V80H53.3v106.7H80V160zM160 133.3v-26.6h-26.7v80H160V160zM106.7 186.7H80V240h26.7v-26.7zM186.7 186.7H160v26.6h80v-26.6h-26.7zM293.3 213.3V240H320v-53.3h-26.7zM133.3 240h-26.6v53.3h26.6v-26.6zM266.7 266.7v26.6h26.6V240h-26.6zM133.3 293.3H160V320h-26.7zM240 293.3h26.7V320H240zM186.7 320H160v53.3h26.7v-26.6zM213.3 346.7v26.6H240V320h-26.7zM186.7 373.3h26.7V400h-26.7z"/></svg>