<svg xmlns="http://www.w3.org" xmlns:xlink="http://www.w3.org/1999/xlink" width="36px" height="36px" preserveAspectRatio="xMidYMid meet" viewBox="0 0 24 24" aria-hidden="true" role="img"><g fill="none"><path fill-rule="evenodd" clip-rule="evenodd" d="M15 6a3.001 3.001 0 0 1-2 2.83v8.044c1.725-.444 3-2.01 3-3.874h2a6.002 6.002 0 0 1-5 5.917V20a1 1 0 1 1-2 0v-1.083A6.002 6.002 0 0 1 6 13h2a4.002 4.002 0 0 0 3 3.874V8.829A3.001 3.001 0 1 1 15 6zm-3 1a1 1 0 1 0 0-2a1 1 0 0 0 0 2z" fill="currentColor"></path></g></svg>