<svg xmlns="http://www.w3.org" xmlns:xlink="http://www.w3.org/1999/xlink" width="36px" height="36px" preserveAspectRatio="xMidYMid meet" viewBox="0 0 24 24" aria-hidden="true" role="img"><g fill="none"><path d="M14 13.963h2v-6h-6v2h2.586l-5.33 5.33l1.414 1.414l5.33-5.33v2.586z" fill="currentColor"></path><path fill-rule="evenodd" clip-rule="evenodd" d="M23 19a4 4 0 0 1-4 4H5a4 4 0 0 1-4-4V5a4 4 0 0 1 4-4h14a4 4 0 0 1 4 4v14zm-4 2H5a2 2 0 0 1-2-2V5a2 2 0 0 1 2-2h14a2 2 0 0 1 2 2v14a2 2 0 0 1-2 2z" fill="currentColor"></path></g></svg>