<svg xmlns="http://www.w3.org" xmlns:xlink="http://www.w3.org/1999/xlink" width="36px" height="36px" preserveAspectRatio="xMidYMid meet" viewBox="0 0 24 24" aria-hidden="true" role="img"><g fill="none"><path d="M11.725 16.546l4.5-2.598l-4.5-2.598v1.598h-3.95v2h3.95v1.598z" fill="currentColor"></path><path d="M8 7a1 1 0 0 0 0 2h8a1 1 0 1 0 0-2H8z" fill="currentColor"></path><path fill-rule="evenodd" clip-rule="evenodd" d="M6 3a3 3 0 0 0-3 3v12a3 3 0 0 0 3 3h12a3 3 0 0 0 3-3V6a3 3 0 0 0-3-3H6zm12 2H6a1 1 0 0 0-1 1v12a1 1 0 0 0 1 1h12a1 1 0 0 0 1-1V6a1 1 0 0 0-1-1z" fill="currentColor"></path></g></svg>