<svg xmlns="http://www.w3.org" xmlns:xlink="http://www.w3.org/1999/xlink" width="36px" height="36px" preserveAspectRatio="xMidYMid meet" viewBox="0 0 24 24" aria-hidden="true" role="img"><g fill="none"><path d="M20 6H4v2H2V6a2 2 0 0 1 2-2h16a2 2 0 0 1 2 2v12a2 2 0 0 1-2 2h-5v-2h5V6z" fill="currentColor"></path><path d="M2 13a7 7 0 0 1 7 7H7a5 5 0 0 0-5-5v-2z" fill="currentColor"></path><path d="M2 17a3 3 0 0 1 3 3H2v-3z" fill="currentColor"></path><path d="M2 9c6.075 0 11 4.925 11 11h-2a9 9 0 0 0-9-9V9z" fill="currentColor"></path></g></svg>