<svg xmlns="http://www.w3.org" xmlns:xlink="http://www.w3.org/1999/xlink" width="36px" height="36px" preserveAspectRatio="xMidYMid meet" viewBox="0 0 24 24" aria-hidden="true" role="img"><g fill="none"><path d="M7.757 10.586l1.415-1.414L12 12l2.828-2.828l1.415 1.414L12 14.828l-4.243-4.242z" fill="currentColor"></path><path fill-rule="evenodd" clip-rule="evenodd" d="M1 5a4 4 0 0 1 4-4h14a4 4 0 0 1 4 4v14a4 4 0 0 1-4 4H5a4 4 0 0 1-4-4V5zm4-2h14a2 2 0 0 1 2 2v14a2 2 0 0 1-2 2H5a2 2 0 0 1-2-2V5a2 2 0 0 1 2-2z" fill="currentColor"></path></g></svg>