<svg xmlns="http://www.w3.org" xmlns:xlink="http://www.w3.org/1999/xlink" width="36px" height="36px" preserveAspectRatio="xMidYMid meet" viewBox="0 0 24 24" aria-hidden="true" role="img"><g fill="none"><path d="M16.396 7.757a1 1 0 0 1 0 1.415l-2.982 2.981l2.676 2.675a1 1 0 1 1-1.415 1.415L12 13.567l-2.675 2.676a1 1 0 0 1-1.415-1.415l2.676-2.675l-2.982-2.981A1 1 0 1 1 9.02 7.757L12 10.74l2.981-2.982a1 1 0 0 1 1.415 0z" fill="currentColor"></path><path fill-rule="evenodd" clip-rule="evenodd" d="M4 1a3 3 0 0 0-3 3v16a3 3 0 0 0 3 3h16a3 3 0 0 0 3-3V4a3 3 0 0 0-3-3H4zm16 2H4a1 1 0 0 0-1 1v16a1 1 0 0 0 1 1h16a1 1 0 0 0 1-1V4a1 1 0 0 0-1-1z" fill="currentColor"></path></g></svg>