<svg xmlns="http://www.w3.org" xmlns:xlink="http://www.w3.org/1999/xlink" width="36px" height="36px" preserveAspectRatio="xMidYMid meet" viewBox="0 0 24 24" aria-hidden="true" role="img"><g fill="none"><path d="M6 2.5a1 1 0 0 0-1 1v2a1 1 0 0 0 2 0v-2a1 1 0 0 0-1-1z" fill="currentColor"></path><path fill-rule="evenodd" clip-rule="evenodd" d="M13 21.5a6.002 6.002 0 0 0 5.917-5H19a4 4 0 0 0 0-8v-1H1v8a6 6 0 0 0 6 6h6zM3 9.5v6a4 4 0 0 0 4 4h6a4 4 0 0 0 4-4v-6H3zm18 3a2 2 0 0 1-2 2v-4a2 2 0 0 1 2 2z" fill="currentColor"></path><path d="M9 3.5a1 1 0 1 1 2 0v2a1 1 0 1 1-2 0v-2z" fill="currentColor"></path><path d="M14 2.5a1 1 0 0 0-1 1v2a1 1 0 1 0 2 0v-2a1 1 0 0 0-1-1z" fill="currentColor"></path></g></svg>