<svg xmlns="http://www.w3.org" xmlns:xlink="http://www.w3.org/1999/xlink" width="36px" height="36px" preserveAspectRatio="xMidYMid meet" viewBox="0 0 24 24" aria-hidden="true" role="img"><g fill="none"><path fill-rule="evenodd" clip-rule="evenodd" d="M12 9a3 3 0 1 0 0 6a3 3 0 0 0 0-6zm-1 3a1 1 0 1 0 2 0a1 1 0 0 0-2 0z" fill="currentColor"></path><path d="M5 12a7 7 0 0 1 7-7v2a5 5 0 0 0-5 5H5z" fill="currentColor"></path><path d="M12 17a5 5 0 0 0 5-5h2a7 7 0 0 1-7 7v-2z" fill="currentColor"></path><path fill-rule="evenodd" clip-rule="evenodd" d="M12 1C5.925 1 1 5.925 1 12s4.925 11 11 11s11-4.925 11-11S18.075 1 12 1zM3 12a9 9 0 1 0 18 0a9 9 0 0 0-18 0z" fill="currentColor"></path></g></svg>