<svg xmlns="http://www.w3.org" xmlns:xlink="http://www.w3.org/1999/xlink" width="36px" height="36px" preserveAspectRatio="xMidYMid meet" viewBox="0 0 24 24" aria-hidden="true" role="img"><g fill="none"><path d="M17 18a1 1 0 0 1-1 1H8a1 1 0 0 1-1-1v-3H5v3a3 3 0 0 0 3 3h8a3 3 0 0 0 3-3v-3h-2v3z" fill="currentColor" fill-opacity=".5"></path><path d="M16 5a1 1 0 0 1 1 1v3h2V6a3 3 0 0 0-3-3H8a3 3 0 0 0-3 3v3h2V6a1 1 0 0 1 1-1h8z" fill="currentColor"></path><path d="M21 13v-2H3v2h18z" fill="currentColor"></path></g></svg>