<svg xmlns="http://www.w3.org" xmlns:xlink="http://www.w3.org/1999/xlink" width="36px" height="36px" preserveAspectRatio="xMidYMid meet" viewBox="0 0 24 24" aria-hidden="true" role="img"><g fill="none"><path d="M16 7a1 1 0 1 0 0 2h3a1 1 0 1 0 0-2h-3z" fill="currentColor"></path><path d="M15 12a1 1 0 0 1 1-1h3a1 1 0 1 1 0 2h-3a1 1 0 0 1-1-1z" fill="currentColor"></path><path d="M16 15a1 1 0 1 0 0 2h3a1 1 0 1 0 0-2h-3z" fill="currentColor"></path><path fill-rule="evenodd" clip-rule="evenodd" d="M3 3a3 3 0 0 0-3 3v12a3 3 0 0 0 3 3h18a3 3 0 0 0 3-3V6a3 3 0 0 0-3-3H3zm18 2h-8v14h8a1 1 0 0 0 1-1V6a1 1 0 0 0-1-1zM3 5h8v14H3a1 1 0 0 1-1-1V6a1 1 0 0 1 1-1z" fill="currentColor"></path></g></svg>