<svg xmlns="http://www.w3.org" xmlns:xlink="http://www.w3.org/1999/xlink" width="36px" height="36px" preserveAspectRatio="xMidYMid meet" viewBox="0 0 24 24" aria-hidden="true" role="img"><g fill="none"><path d="M4 5a1 1 0 0 0 0 2h16a1 1 0 1 0 0-2H4z" fill="currentColor"></path><path d="M4 13a1 1 0 1 0 0 2h16a1 1 0 1 0 0-2H4z" fill="currentColor"></path><path d="M6 10a1 1 0 0 1 1-1h10a1 1 0 1 1 0 2H7a1 1 0 0 1-1-1z" fill="currentColor"></path><path d="M7 17a1 1 0 1 0 0 2h10a1 1 0 1 0 0-2H7z" fill="currentColor"></path></g></svg>