<svg xmlns="http://www.w3.org" xmlns:xlink="http://www.w3.org/1999/xlink" width="36px" height="36px" preserveAspectRatio="xMidYMid meet" viewBox="0 0 24 24" aria-hidden="true" role="img"><g fill="none"><path d="M10 5a1 1 0 1 1-2 0a1 1 0 0 1 2 0z" fill="currentColor"></path><path d="M9 9a1 1 0 1 0 0-2a1 1 0 0 0 0 2z" fill="currentColor"></path><path d="M10 19a1 1 0 1 1-2 0a1 1 0 0 1 2 0z" fill="currentColor"></path><path d="M9 12a1 1 0 1 0 0-2a1 1 0 0 0 0 2z" fill="currentColor"></path><path d="M13 5a1 1 0 1 1-2 0a1 1 0 0 1 2 0z" fill="currentColor"></path><path d="M12 9a1 1 0 1 0 0-2a1 1 0 0 0 0 2z" fill="currentColor"></path><path d="M13 19a1 1 0 1 1-2 0a1 1 0 0 1 2 0z" fill="currentColor"></path><path d="M15 6a1 1 0 1 0 0-2a1 1 0 0 0 0 2z" fill="currentColor"></path><path d="M16 8a1 1 0 1 1-2 0a1 1 0 0 1 2 0z" fill="currentColor"></path><path d="M15 20a1 1 0 1 0 0-2a1 1 0 0 0 0 2z" fill="currentColor"></path><path fill-rule="evenodd" clip-rule="evenodd" d="M8 1a3 3 0 0 0-3 3v16a3 3 0 0 0 3 3h8a3 3 0 0 0 3-3V4a3 3 0 0 0-3-3H8zm8 2H8a1 1 0 0 0-1 1v16a1 1 0 0 0 1 1h8a1 1 0 0 0 1-1V4a1 1 0 0 0-1-1z" fill="currentColor"></path></g></svg>