<svg xmlns="http://www.w3.org" xmlns:xlink="http://www.w3.org/1999/xlink" width="36px" height="36px" preserveAspectRatio="xMidYMid meet" viewBox="0 0 24 24" aria-hidden="true" role="img"><g fill="none"><path d="M3.035 12.943a8.963 8.963 0 0 0 2.587 5.421a8.963 8.963 0 0 0 5.42 2.587l-8.007-8.008z" fill="currentColor"></path><path d="M3 11.494l9.492 9.492a9.016 9.016 0 0 0 2.378-.459L3.46 9.115A9.016 9.016 0 0 0 3 11.494z" fill="currentColor"></path><path d="M3.867 8.11l12.009 12.009a8.948 8.948 0 0 0 1.773-1.123L4.99 6.336A8.95 8.95 0 0 0 3.867 8.11z" fill="currentColor"></path><path d="M5.663 5.595a9 9 0 0 1 12.728 12.728L5.663 5.595z" fill="currentColor"></path></g></svg>