<svg xmlns="http://www.w3.org" xmlns:xlink="http://www.w3.org/1999/xlink" width="36px" height="36px" preserveAspectRatio="xMidYMid meet" viewBox="0 0 24 24" aria-hidden="true" role="img"><g fill="none"><path fill-rule="evenodd" clip-rule="evenodd" d="M20 4H4a1 1 0 0 0-1 1v14a1 1 0 0 0 1 1h16a1 1 0 0 0 1-1V5a1 1 0 0 0-1-1zM4 2a3 3 0 0 0-3 3v14a3 3 0 0 0 3 3h16a3 3 0 0 0 3-3V5a3 3 0 0 0-3-3H4zm2 5h2v2H6V7zm5 0a1 1 0 1 0 0 2h6a1 1 0 1 0 0-2h-6zm-3 4H6v2h2v-2zm2 1a1 1 0 0 1 1-1h6a1 1 0 1 1 0 2h-6a1 1 0 0 1-1-1zm-2 3H6v2h2v-2zm2 1a1 1 0 0 1 1-1h6a1 1 0 1 1 0 2h-6a1 1 0 0 1-1-1z" fill="currentColor"></path></g></svg>