<svg xmlns="http://www.w3.org" xmlns:xlink="http://www.w3.org/1999/xlink" width="36px" height="36px" preserveAspectRatio="xMidYMid meet" viewBox="0 0 24 24" aria-hidden="true" role="img"><g fill="none"><path fill-rule="evenodd" clip-rule="evenodd" d="M15 12a3 3 0 1 1-6 0a3 3 0 0 1 6 0zm-2 0a1 1 0 1 1-2 0a1 1 0 0 1 2 0z" fill="currentColor"></path><path fill-rule="evenodd" clip-rule="evenodd" d="M12 19a7 7 0 1 0 0-14a7 7 0 0 0 0 14zm0-2a5 5 0 1 0 0-10a5 5 0 0 0 0 10z" fill="currentColor"></path><path fill-rule="evenodd" clip-rule="evenodd" d="M12 23c6.075 0 11-4.925 11-11S18.075 1 12 1S1 5.925 1 12s4.925 11 11 11zm0-2a9 9 0 1 0 0-18a9 9 0 0 0 0 18z" fill="currentColor"></path></g></svg>