<svg xmlns="http://www.w3.org" xmlns:xlink="http://www.w3.org/1999/xlink" width="36px" height="36px" preserveAspectRatio="xMidYMid meet" viewBox="0 0 24 24" aria-hidden="true" role="img"><g fill="none"><path d="M3 6a1 1 0 0 1 1-1h16a1 1 0 1 1 0 2H4a1 1 0 0 1-1-1z" fill="currentColor"></path><path d="M3 18a1 1 0 0 1 1-1h16a1 1 0 1 1 0 2H4a1 1 0 0 1-1-1z" fill="currentColor"></path><path d="M3 12a1 1 0 0 1 1-1h16a1 1 0 1 1 0 2h-9.738l-2.647 2.648L4.967 13H4a1 1 0 0 1-1-1z" fill="currentColor"></path></g></svg>