<svg xmlns="http://www.w3.org" xmlns:xlink="http://www.w3.org/1999/xlink" width="36px" height="36px" preserveAspectRatio="xMidYMid meet" viewBox="0 0 24 24" aria-hidden="true" role="img"><g fill="none"><path fill-rule="evenodd" clip-rule="evenodd" d="M16.272 10.272a4 4 0 1 1-8 0a4 4 0 0 1 8 0zm-2 0a2 2 0 1 1-4 0a2 2 0 0 1 4 0z" fill="currentColor"></path><path fill-rule="evenodd" clip-rule="evenodd" d="M5.794 16.518a9 9 0 1 1 12.724-.312l-6.206 6.518l-6.518-6.206zm11.276-1.691l-4.827 5.07l-5.07-4.827a7 7 0 1 1 9.897-.243z" fill="currentColor"></path></g></svg>