<svg xmlns="http://www.w3.org" xmlns:xlink="http://www.w3.org/1999/xlink" width="36px" height="36px" preserveAspectRatio="xMidYMid meet" viewBox="0 0 24 24" aria-hidden="true" role="img"><g fill="none"><path d="M11 3h2v18h-2V3z" fill="currentColor"></path><path d="M5 8a1 1 0 0 1 1-1h3V5H6a3 3 0 0 0-3 3v8a3 3 0 0 0 3 3h3v-2H6a1 1 0 0 1-1-1V8z" fill="currentColor"></path><path d="M19 8a1 1 0 0 0-1-1h-3V5h3a3 3 0 0 1 3 3v8a3 3 0 0 1-3 3h-3v-2h3a1 1 0 0 0 1-1V8z" fill="currentColor"></path></g></svg>