<svg xmlns="http://www.w3.org" xmlns:xlink="http://www.w3.org/1999/xlink" width="36px" height="36px" preserveAspectRatio="xMidYMid meet" viewBox="0 0 24 24" aria-hidden="true" role="img"><g fill="none"><path d="M9 6a1 1 0 0 0 0 2h6a1 1 0 1 0 0-2H9z" fill="currentColor"></path><path d="M9 10a1 1 0 1 0 0 2h6a1 1 0 1 0 0-2H9z" fill="currentColor"></path><path d="M13 17a1 1 0 1 1-2 0a1 1 0 0 1 2 0z" fill="currentColor"></path><path fill-rule="evenodd" clip-rule="evenodd" d="M4 5a3 3 0 0 1 3-3h10a3 3 0 0 1 3 3v14a3 3 0 0 1-3 3H7a3 3 0 0 1-3-3V5zm3-1h10a1 1 0 0 1 1 1v14a1 1 0 0 1-1 1H7a1 1 0 0 1-1-1V5a1 1 0 0 1 1-1z" fill="currentColor"></path></g></svg>