<svg xmlns="http://www.w3.org" xmlns:xlink="http://www.w3.org/1999/xlink" width="36px" height="36px" preserveAspectRatio="xMidYMid meet" viewBox="0 0 24 24" aria-hidden="true" role="img"><g fill="none"><path d="M9 6a1 1 0 0 1 2 0v2a1 1 0 1 1-2 0V6z" fill="currentColor"></path><path d="M10 13a1 1 0 0 0-1 1v2a1 1 0 1 0 2 0v-2a1 1 0 0 0-1-1z" fill="currentColor"></path><path fill-rule="evenodd" clip-rule="evenodd" d="M5 4a3 3 0 0 1 3-3h8a3 3 0 0 1 3 3v16a3 3 0 0 1-3 3H8a3 3 0 0 1-3-3V4zm3-1h8a1 1 0 0 1 1 1v6H7V4a1 1 0 0 1 1-1zm-1 9h10v8a1 1 0 0 1-1 1H8a1 1 0 0 1-1-1v-8z" fill="currentColor"></path></g></svg>