<svg xmlns="http://www.w3.org" xmlns:xlink="http://www.w3.org/1999/xlink" width="36px" height="36px" preserveAspectRatio="xMidYMid meet" viewBox="0 0 24 24" aria-hidden="true" role="img"><g fill="none"><path fill-rule="evenodd" clip-rule="evenodd" d="M17 7a3 3 0 0 0-3-3h-4a3 3 0 0 0-3 3H6a3 3 0 0 0-3 3v8a3 3 0 0 0 3 3h12a3 3 0 0 0 3-3v-8a3 3 0 0 0-3-3h-1zm-3-1h-4a1 1 0 0 0-1 1h6a1 1 0 0 0-1-1zM6 9h12a1 1 0 0 1 1 1v8a1 1 0 0 1-1 1H6a1 1 0 0 1-1-1v-8a1 1 0 0 1 1-1z" fill="currentColor"></path></g></svg>