<svg width="24" height="24" viewBox="0 0 24 24" fill="none" xmlns="http://www.w3.org/2000/svg">
<path fill-rule="evenodd" clip-rule="evenodd" d="M12 2C12.2841 2 12.5438 2.1605 12.6708 2.41459L14.9635 7H20C20.2841 7 20.5438 7.1605 20.6708 7.41459C20.7979 7.66868 20.7705 7.97274 20.6 8.2L17.9375 11.75L20.6 15.3C20.7705 15.5273 20.7979 15.8313 20.6708 16.0854C20.5438 16.3395 20.2841 16.5 20 16.5H14.9635L12.6708 21.0854C12.5438 21.3395 12.2841 21.5 12 21.5C11.7159 21.5 11.4562 21.3395 11.3292 21.0854L9.03648 16.5H4C3.71593 16.5 3.45623 16.3395 3.32918 16.0854C3.20214 15.8313 3.22956 15.5273 3.4 15.3L6.0625 11.75L3.4 8.2C3.22956 7.97274 3.20214 7.66868 3.32918 7.41459C3.45623 7.1605 3.71593 7 4 7H9.03648L11.3292 2.41459C11.4562 2.1605 11.7159 2 12 2ZM10.636 8.40249C10.4165 8.05124 9.95375 7.94446 9.6025 8.16399C9.25125 8.38352 9.14447 8.84623 9.364 9.19749L10.6468 11.25H8C7.58579 11.25 7.25 11.5858 7.25 12C7.25 12.4142 7.58579 12.75 8 12.75H10.6468L9.364 14.8025C9.14447 15.1537 9.25125 15.6165 9.6025 15.836C9.95375 16.0555 10.4165 15.9487 10.636 15.5975L12 13.4151L13.364 15.5975C13.5835 15.9487 14.0462 16.0555 14.3975 15.836C14.7488 15.6165 14.8555 15.1537 14.636 14.8025L13.3532 12.75H16C16.4142 12.75 16.75 12.4142 16.75 12C16.75 11.5858 16.4142 11.25 16 11.25H13.3532L14.636 9.19749C14.8555 8.84623 14.7488 8.38352 14.3975 8.16399C14.0462 7.94446 13.5835 8.05124 13.364 8.40249L12 10.5849L10.636 8.40249Z" fill="black"/>
</svg>
