<svg width="24" height="24" viewBox="0 0 24 24" fill="none" xmlns="http://www.w3.org/2000/svg">
<path d="M12 14.25C11.0335 14.25 10.25 15.0335 10.25 16C10.25 16.9665 11.0335 17.75 12 17.75C12.9665 17.75 13.75 16.9665 13.75 16C13.75 15.0335 12.9665 14.25 12 14.25Z" fill="black"/>
<path fill-rule="evenodd" clip-rule="evenodd" d="M12 2.25C9.93977 2.25 8.25 3.89783 8.25 5.95455V12.3258C7.32294 13.272 6.75 14.5695 6.75 16C6.75 18.8995 9.1005 21.25 12 21.25C14.8995 21.25 17.25 18.8995 17.25 16C17.25 14.5695 16.6771 13.272 15.75 12.3258V5.95455C15.75 3.89783 14.0602 2.25 12 2.25ZM9.75 5.95455C9.75 4.74776 10.7465 3.75 12 3.75C13.2535 3.75 14.25 4.74776 14.25 5.95455V12.6458C14.25 12.8592 14.3409 13.0624 14.4998 13.2047C15.2682 13.8924 15.75 14.8894 15.75 16C15.75 18.0711 14.0711 19.75 12 19.75C9.92893 19.75 8.25 18.0711 8.25 16C8.25 14.8894 8.7318 13.8924 9.50019 13.2047C9.65915 13.0624 9.75 12.8592 9.75 12.6458V5.95455Z" fill="black"/>
</svg>
