<svg id="Layer_1" enable-background="new 0 0 64.001 64.001" height="512" viewBox="0 0 64.001 64.001" width="512" xmlns="http://www.w3.org/2000/svg" xmlns:xlink="http://www.w3.org/1999/xlink"><linearGradient id="lg1"><stop offset="0" stop-color="#b3d8f4"/><stop offset="1" stop-color="#d1e7f8"/></linearGradient><linearGradient id="SVGID_1_" gradientUnits="userSpaceOnUse" x1="7.467" x2="55.708" xlink:href="#lg1" y1="58.534" y2="10.293"/><linearGradient id="SVGID_2_" gradientUnits="userSpaceOnUse" x1="11.13" x2="35.871" y1="44.371" y2="19.63"><stop offset="0" stop-color="#005ece"/><stop offset="1" stop-color="#2488ff"/></linearGradient><linearGradient id="SVGID_3_" gradientUnits="userSpaceOnUse" x1="44.467" x2="51.708" y1="13.534" y2="6.293"><stop offset="0" stop-color="#00969b"/><stop offset="1" stop-color="#00d7df"/></linearGradient><linearGradient id="SVGID_4_" gradientUnits="userSpaceOnUse" x1="9.043" x2="15.957" xlink:href="#lg1" y1="35.458" y2="28.543"/><linearGradient id="SVGID_5_" gradientUnits="userSpaceOnUse" x1="15.793" x2="22.207" xlink:href="#lg1" y1="34.208" y2="27.793"/><linearGradient id="SVGID_6_" gradientUnits="userSpaceOnUse" x1="31.043" x2="36.457" xlink:href="#lg1" y1="35.458" y2="30.043"/><linearGradient id="SVGID_7_" gradientUnits="userSpaceOnUse" x1="22.793" x2="31.207" xlink:href="#lg1" y1="36.208" y2="27.793"/><g><path d="m57.993 13.887c-.017-.151-.194-1.503-1.114-2.422l-10.344-10.343c-.919-.919-2.271-1.098-2.421-1.115-.038-.004-.076-.006-.114-.006h-29c-2.757 0-5 2.243-5 5v18h-1c-1.654 0-3 1.346-3 3v12c0 1.654 1.346 3 3 3h1v18c0 2.757 2.243 5 5 5h38c2.757 0 5-2.243 5-5v-45c0-.039-.002-.076-.007-.114z" fill="url(#SVGID_1_)"/><path d="m38 23.001h-29c-1.654 0-3 1.346-3 3v12c0 1.654 1.346 3 3 3h29c1.654 0 3-1.346 3-3v-12c0-1.655-1.345-3-3-3z" fill="url(#SVGID_2_)"/><path d="m56.879 11.465-10.344-10.343c-.919-.919-2.271-1.098-2.421-1.115-.283-.034-.566.057-.78.248-.212.189-.334.46-.334.746v9c0 2.757 2.243 5 5 5h9c.285 0 .557-.122.746-.334.189-.213.279-.496.247-.779-.016-.152-.194-1.504-1.114-2.423z" fill="url(#SVGID_3_)"/><g><path d="m14 27.001c-.553 0-1 .448-1 1v3h-1v-3c0-.552-.447-1-1-1s-1 .448-1 1v8c0 .552.447 1 1 1s1-.448 1-1v-3h1v3c0 .552.447 1 1 1s1-.448 1-1v-8c0-.553-.447-1-1-1z" fill="url(#SVGID_4_)"/><path d="m21 27.001h-4c-.553 0-1 .448-1 1s.447 1 1 1h1v7c0 .552.447 1 1 1s1-.448 1-1v-7h1c.553 0 1-.448 1-1s-.447-1-1-1z" fill="url(#SVGID_5_)"/><path d="m36 35.001h-2v-7c0-.552-.447-1-1-1s-1 .448-1 1v8c0 .552.447 1 1 1h3c.553 0 1-.448 1-1s-.447-1-1-1z" fill="url(#SVGID_6_)"/><path d="m30 27.001h-6c-.553 0-1 .448-1 1v8c0 .552.447 1 1 1s1-.448 1-1v-7h1v7c0 .552.447 1 1 1s1-.448 1-1v-7h1v7c0 .552.447 1 1 1s1-.448 1-1v-8c0-.553-.447-1-1-1z" fill="url(#SVGID_7_)"/></g></g></svg>