<svg id="Layer_1" enable-background="new 0 0 64 64" height="512" viewBox="0 0 64 64" width="512" xmlns="http://www.w3.org/2000/svg" xmlns:xlink="http://www.w3.org/1999/xlink"><linearGradient id="SVGID_1_" gradientUnits="userSpaceOnUse" x1="5.466" x2="53.707" y1="58.534" y2="10.293"><stop offset="0" stop-color="#b3d8f4"/><stop offset="1" stop-color="#d1e7f8"/></linearGradient><linearGradient id="SVGID_2_" gradientUnits="userSpaceOnUse" x1="42.466" x2="49.707" y1="13.534" y2="6.293"><stop offset="0" stop-color="#00969b"/><stop offset="1" stop-color="#00d7df"/></linearGradient><linearGradient id="SVGID_3_" gradientUnits="userSpaceOnUse" x1="23.586" x2="40.414" y1="40.414" y2="23.586"><stop offset="0" stop-color="#005ece"/><stop offset="1" stop-color="#2488ff"/></linearGradient><g><g><path d="m55.994 13.886c-.018-.151-.196-1.502-1.115-2.422l-10.343-10.342c-.919-.919-2.271-1.098-2.422-1.115-.038-.005-.076-.007-.114-.007h-29c-2.757 0-5 2.243-5 5v54c0 2.757 2.243 5 5 5h38c2.757 0 5-2.243 5-5v-45c0-.038-.002-.076-.006-.114z" fill="url(#SVGID_1_)"/><path d="m54.878 11.465-10.342-10.343c-.919-.919-2.271-1.098-2.422-1.115-.285-.033-.567.057-.779.248-.213.189-.335.46-.335.745v9c0 2.757 2.243 5 5 5h9c.285 0 .557-.122.746-.335.19-.212.28-.496.248-.779-.018-.151-.196-1.502-1.116-2.421z" fill="url(#SVGID_2_)"/></g></g><g><path d="m34.828 32 5.586-5.586c.781-.781.781-2.047 0-2.828-.78-.781-2.048-.781-2.828 0l-5.586 5.586-5.586-5.586c-.78-.781-2.048-.781-2.828 0-.781.781-.781 2.047 0 2.828l5.586 5.586-5.586 5.586c-.781.781-.781 2.047 0 2.828.39.391.902.586 1.414.586s1.024-.195 1.414-.586l5.586-5.586 5.586 5.586c.39.391.902.586 1.414.586s1.024-.195 1.414-.586c.781-.781.781-2.047 0-2.828z" fill="url(#SVGID_3_)"/></g></svg>