<svg id="Layer_1" enable-background="new 0 0 64.001 64.001" height="512" viewBox="0 0 64.001 64.001" width="512" xmlns="http://www.w3.org/2000/svg" xmlns:xlink="http://www.w3.org/1999/xlink"><linearGradient id="lg1"><stop offset="0" stop-color="#b3d8f4"/><stop offset="1" stop-color="#d1e7f8"/></linearGradient><linearGradient id="SVGID_1_" gradientUnits="userSpaceOnUse" x1="7.761" x2="50.002" xlink:href="#lg1" y1="56.829" y2="14.588"/><linearGradient id="SVGID_2_" gradientUnits="userSpaceOnUse" x1="34.467" x2="41.708" y1="13.535" y2="6.294"><stop offset="0" stop-color="#00969b"/><stop offset="1" stop-color="#00d7df"/></linearGradient><linearGradient id="SVGID_3_" gradientUnits="userSpaceOnUse" x1="38.379" x2="55.622" y1="66.622" y2="49.379"><stop offset="0" stop-color="#005ece"/><stop offset="1" stop-color="#2488ff"/></linearGradient><linearGradient id="SVGID_4_" gradientUnits="userSpaceOnUse" x1="44.793" x2="49.208" xlink:href="#lg1" y1="54.208" y2="49.794"/><linearGradient id="SVGID_5_" gradientUnits="userSpaceOnUse" x1="46.291" x2="47.711" xlink:href="#lg1" y1="59.711" y2="58.291"/><g><path d="m59.544 59.411-10-16c-.368-.589-.913-1.019-1.544-1.24v-28.17c0-.038-.002-.076-.007-.113-.017-.151-.194-1.503-1.114-2.422l-10.343-10.343c-.919-.92-2.271-1.098-2.421-1.115-.038-.004-.076-.006-.114-.006h-25c-2.757 0-5 2.243-5 5v46c0 2.757 2.243 5 5 5h27.587l-2.132 3.411c-.577.924-.607 2.091-.079 3.044.529.953 1.534 1.545 2.624 1.545h20c1.09 0 2.095-.592 2.624-1.545.528-.954.498-2.121-.081-3.046z" fill="url(#SVGID_1_)"/><g><path d="m46.879 11.465-10.343-10.342c-.919-.92-2.271-1.098-2.421-1.115-.282-.035-.567.057-.78.248-.212.19-.334.461-.334.746v9c0 2.757 2.243 5 5 5h9c.285 0 .557-.122.746-.334.189-.213.279-.496.247-.779-.017-.153-.195-1.504-1.115-2.424z" fill="url(#SVGID_2_)"/><path d="m59.544 59.411-10-16c-.553-.883-1.504-1.41-2.544-1.41s-1.991.527-2.544 1.41l-10 16.001c-.577.924-.607 2.091-.079 3.044.529.953 1.534 1.545 2.624 1.545h20c1.09 0 2.095-.592 2.624-1.545.528-.953.498-2.12-.081-3.045z" fill="url(#SVGID_3_)"/><g><path d="m47.001 48.001c-.553 0-1 .447-1 1v6c0 .553.447 1 1 1s1-.447 1-1v-6c0-.553-.448-1-1-1z" fill="url(#SVGID_4_)"/><path d="m46.291 58.291c-.181.18-.29.439-.29.71 0 .26.109.52.29.71.189.18.45.29.71.29s.519-.11.71-.29c.18-.191.29-.45.29-.71 0-.271-.11-.521-.29-.71-.371-.37-1.05-.37-1.42 0z" fill="url(#SVGID_5_)"/></g></g></g></svg>