<svg id="Layer_1" enable-background="new 0 0 64.001 64.001" height="512" viewBox="0 0 64.001 64.001" width="512" xmlns="http://www.w3.org/2000/svg" xmlns:xlink="http://www.w3.org/1999/xlink"><linearGradient id="SVGID_1_" gradientUnits="userSpaceOnUse" x1="6.795" x2="48.536" y1="54.863" y2="13.122"><stop offset="0" stop-color="#b3d8f4"/><stop offset="1" stop-color="#d1e7f8"/></linearGradient><linearGradient id="lg1"><stop offset="0" stop-color="#00969b"/><stop offset="1" stop-color="#00d7df"/></linearGradient><linearGradient id="SVGID_2_" gradientUnits="userSpaceOnUse" x1="34.467" x2="41.708" xlink:href="#lg1" y1="13.535" y2="6.294"/><linearGradient id="SVGID_3_" gradientUnits="userSpaceOnUse" x1="37.81" x2="56.19" xlink:href="#lg1" y1="60.19" y2="41.81"/><linearGradient id="SVGID_4_" gradientUnits="userSpaceOnUse" x1="18.517" x2="35.482" y1="39.483" y2="22.517"><stop offset="0" stop-color="#005ece"/><stop offset="1" stop-color="#2488ff"/></linearGradient><g><path d="m59.777 48.641c-.174-.95-1.001-1.64-1.967-1.64h-.569c-.054-.139-.111-.276-.172-.413l.405-.405c.683-.683.78-1.755.233-2.549-.906-1.315-2.03-2.439-3.337-3.338-.772-.533-1.883-.435-2.551.232l-.405.404c-.136-.061-.274-.117-.413-.172v-.568c0-.966-.69-1.793-1.639-1.967-.466-.086-.917-.147-1.361-.183v-24.041c0-.038-.002-.076-.007-.113-.017-.151-.194-1.503-1.114-2.422l-10.344-10.344c-.919-.92-2.271-1.098-2.422-1.114-.037-.005-.075-.007-.113-.007h-25c-2.757 0-5 2.243-5 5v45c0 2.757 2.243 5 5 5h27.76c.054.139.111.276.172.413l-.405.405c-.683.683-.78 1.755-.232 2.549.906 1.315 2.03 2.439 3.337 3.338.772.534 1.884.436 2.551-.231l.405-.404c.136.061.274.117.413.172v.568c0 .966.689 1.793 1.639 1.967.817.15 1.59.224 2.361.224s1.544-.073 2.36-.224c.95-.174 1.64-1.001 1.64-1.967v-.568c.139-.055.276-.111.412-.172l.405.405c.668.667 1.78.764 2.549.232 1.314-.906 2.438-2.029 3.342-3.341.547-.794.448-1.866-.233-2.548l-.405-.406c.06-.136.117-.273.172-.412h.568c.966 0 1.793-.689 1.967-1.639.15-.817.224-1.59.224-2.361s-.076-1.544-.226-2.36zm-9.776 2.36c0 1.654-1.346 3-3 3s-3-1.346-3-3 1.346-3 3-3 3 1.346 3 3z" fill="url(#SVGID_1_)"/><g><path d="m46.879 11.466-10.343-10.344c-.919-.92-2.271-1.098-2.422-1.114-.281-.037-.566.058-.779.247s-.334.461-.334.746v9c0 2.757 2.243 5 5 5h9c.285 0 .557-.121.746-.334s.279-.496.247-.779c-.017-.151-.195-1.503-1.115-2.422z" fill="url(#SVGID_2_)"/><path d="m59.777 48.641c-.174-.95-1.001-1.64-1.967-1.64h-.569c-.054-.139-.111-.276-.172-.413l.405-.405c.683-.683.78-1.755.233-2.549-.906-1.315-2.03-2.439-3.337-3.338-.772-.533-1.883-.435-2.551.232l-.405.404c-.136-.061-.274-.117-.413-.172v-.568c0-.966-.69-1.793-1.639-1.967-1.635-.301-3.089-.301-4.722 0-.95.174-1.64 1.001-1.64 1.967v.568c-.139.055-.276.112-.413.172l-.405-.405c-.666-.665-1.764-.772-2.551-.232-.661.457-1.275.968-1.825 1.518-.548.547-1.057 1.161-1.513 1.822-.548.795-.45 1.867.232 2.55l.405.405c-.061.137-.117.274-.172.412h-.568c-.966 0-1.793.689-1.967 1.639-.15.817-.224 1.59-.224 2.361s.073 1.544.224 2.36c.174.95 1.001 1.64 1.967 1.64h.569c.054.139.111.276.172.413l-.405.405c-.683.683-.78 1.755-.232 2.549.906 1.315 2.03 2.439 3.337 3.338.772.534 1.884.436 2.551-.231l.405-.404c.136.061.274.117.413.172v.568c0 .966.689 1.793 1.639 1.967.817.15 1.59.224 2.361.224s1.544-.073 2.36-.224c.95-.174 1.64-1.001 1.64-1.967v-.568c.139-.055.276-.111.412-.172l.405.405c.668.667 1.78.764 2.549.232 1.314-.906 2.438-2.029 3.342-3.341.547-.794.448-1.866-.233-2.548l-.405-.406c.06-.136.117-.273.172-.412h.568c.966 0 1.793-.689 1.967-1.639.15-.817.224-1.59.224-2.361s-.074-1.545-.224-2.361zm-9.776 2.36c0 1.654-1.346 3-3 3s-3-1.346-3-3 1.346-3 3-3 3 1.346 3 3z" fill="url(#SVGID_3_)"/></g><g><path d="m38.794 28.82c-.087-.475-.501-.819-.983-.819h-1.275c-.176-.558-.401-1.099-.674-1.619l.906-.906c.341-.341.391-.877.116-1.274-.836-1.213-1.873-2.251-3.083-3.083-.172-.119-.37-.177-.567-.177-.258 0-.514.1-.707.293l-.907.905c-.52-.272-1.061-.497-1.619-.673v-1.275c0-.482-.345-.897-.819-.983-.759-.14-1.472-.207-2.181-.207s-1.422.067-2.181.207c-.475.087-.819.501-.819.983v1.275c-.558.176-1.099.4-1.619.673l-.906-.906c-.193-.193-.449-.293-.707-.293-.197 0-.395.059-.568.177-.612.423-1.178.893-1.687 1.401-.505.505-.975 1.071-1.396 1.684-.274.397-.225.934.116 1.274l.906.906c-.273.521-.498 1.062-.673 1.619l-1.275-.001c-.482 0-.896.345-.983.819-.14.759-.207 1.472-.207 2.181s.067 1.422.207 2.181c.087.475.501.819.983.819h1.275c.176.558.401 1.099.674 1.619l-.906.906c-.341.341-.391.877-.116 1.274.836 1.213 1.873 2.251 3.083 3.083.172.119.37.177.567.177.258 0 .514-.1.707-.293l.906-.905c.52.272 1.061.497 1.619.673v1.275c0 .482.345.896.819.983.759.14 1.472.207 2.181.207s1.422-.067 2.181-.207c.475-.087.819-.501.819-.983v-1.275c.558-.176 1.099-.4 1.618-.673l.906.906c.193.193.449.293.707.293.197 0 .396-.058.567-.177 1.213-.836 2.251-1.873 3.085-3.084.273-.397.226-.933-.116-1.274l-.906-.907c.273-.52.497-1.061.673-1.618h1.275c.482 0 .896-.345.983-.819.14-.759.207-1.472.207-2.181s-.067-1.422-.206-2.181zm-11.793 6.181c-2.209 0-4-1.791-4-4s1.791-4 4-4 4 1.791 4 4-1.791 4-4 4z" fill="url(#SVGID_4_)"/></g></g></svg>