<svg id="Layer_1" enable-background="new 0 0 64 64" height="512" viewBox="0 0 64 64" width="512" xmlns="http://www.w3.org/2000/svg" xmlns:xlink="http://www.w3.org/1999/xlink"><linearGradient id="SVGID_1_" gradientUnits="userSpaceOnUse" x1="6.32" x2="49.888" y1="55.388" y2="11.82"><stop offset="0" stop-color="#005ece"/><stop offset="1" stop-color="#2488ff"/></linearGradient><linearGradient id="lg1"><stop offset="0" stop-color="#00969b"/><stop offset="1" stop-color="#00d7df"/></linearGradient><linearGradient id="SVGID_2_" gradientUnits="userSpaceOnUse" x1="2.793" x2="43.861" xlink:href="#lg1" y1="51.861" y2="10.793"/><linearGradient id="lg2"><stop offset="0" stop-color="#b3d8f4"/><stop offset="1" stop-color="#d1e7f8"/></linearGradient><linearGradient id="SVGID_3_" gradientUnits="userSpaceOnUse" x1="22.336" x2="30.664" xlink:href="#lg2" y1="34.164" y2="25.836"/><linearGradient id="SVGID_4_" gradientUnits="userSpaceOnUse" x1="22.336" x2="30.664" xlink:href="#lg2" y1="42.164" y2="33.836"/><linearGradient id="SVGID_5_" gradientUnits="userSpaceOnUse" x1="40.069" x2="61.929" xlink:href="#lg2" y1="54.551" y2="32.69"/><linearGradient id="SVGID_6_" gradientUnits="userSpaceOnUse" x1="46.543" x2="55.457" xlink:href="#lg1" y1="50.957" y2="42.043"/><g><path d="m62.64 33.492c-.836-.549-1.933-.638-2.848-.238-.017.008-1.758.746-3.792.746-2.035 0-3.765-.734-3.775-.739-.074-.033-.148-.062-.225-.09v-17.171c0-2.757-2.243-5-5-5h-21c-.83 0-2.12-.534-2.707-1.121l-4.172-4.172c-.957-.957-2.768-1.707-4.121-1.707h-10c-2.757 0-5 2.243-5 5v38c0 2.757 2.243 5 5 5h33.385c1.701 4.412 8.681 6.951 11.757 7.875.279.083.568.125.858.125s.579-.042.861-.126c3.651-1.096 12.139-4.251 12.139-9.874v-14c0-1.015-.51-1.952-1.36-2.508z" fill="url(#SVGID_1_)"/><path d="m38 50v-14c0-1.021.512-1.962 1.368-2.517.836-.544 1.93-.633 2.854-.224.013.007 1.743.741 3.778.741 2.034 0 3.775-.738 3.792-.746.693-.303 1.498-.314 2.208-.065v-12.189c0-2.757-2.243-5-5-5h-42c-2.757 0-5 2.243-5 5v26c0 2.757 2.243 5 5 5h33.375c-.241-.629-.375-1.295-.375-2z" fill="url(#SVGID_2_)"/><g><g><g><path d="m32 32h-11c-1.105 0-2-.896-2-2s.895-2 2-2h11c1.104 0 2 .896 2 2s-.896 2-2 2z" fill="url(#SVGID_3_)"/></g><g><path d="m32 40h-11c-1.105 0-2-.896-2-2s.895-2 2-2h11c1.104 0 2 .896 2 2s-.896 2-2 2z" fill="url(#SVGID_4_)"/></g></g><path d="m62.64 33.492c-.836-.549-1.933-.638-2.848-.238-.017.008-1.758.746-3.792.746-2.035 0-3.765-.734-3.775-.739-.758-.339-1.667-.342-2.433-.007-.017.008-1.758.746-3.792.746-2.035 0-3.765-.734-3.777-.74-.925-.409-2.019-.32-2.854.224-.857.554-1.369 1.495-1.369 2.516v14c0 5.623 8.488 8.778 12.142 9.875.279.083.568.125.858.125s.579-.042.861-.126c3.651-1.096 12.139-4.251 12.139-9.874v-14c0-1.015-.51-1.952-1.36-2.508z" fill="url(#SVGID_5_)"/><g><path d="m51 55c-.553 0-1-.447-1-1v-15c0-.553.447-1 1-1s1 .447 1 1v15c0 .553-.447 1-1 1z" fill="url(#SVGID_6_)"/></g></g></g></svg>