<svg xmlns="http://www.w3.org" xmlns:xlink="http://www.w3.org/1999/xlink" width="36px" height="36px" preserveAspectRatio="xMidYMid meet" viewBox="0 0 24 24" aria-hidden="true" role="img"><path d="M12 20.5l-.435-.432C10.02 18.541 9 17.534 9 16.298a1.712 1.712 0 0 1 1.65-1.798a1.74 1.74 0 0 1 1.35.683a1.74 1.74 0 0 1 1.35-.683A1.712 1.712 0 0 1 15 16.298c0 1.236-1.02 2.243-2.565 3.774z" fill="currentColor"></path><path d="M11 4h2v1h-2z" fill="currentColor"></path><circle cx="9" cy="4" r="1" fill="currentColor"></circle><circle cx="15" cy="4" r="1" fill="currentColor"></circle><path d="M18 10h-5V8l3-.008A2.998 2.998 0 0 0 19 5V3a3.004 3.004 0 0 0-3-3H8a3.004 3.004 0 0 0-3 3v2a3.004 3.004 0 0 0 3 3h3v2H6a3.005 3.005 0 0 0-3 3v8a3.004 3.004 0 0 0 3 3h12a3.004 3.004 0 0 0 3-3v-8a3.005 3.005 0 0 0-3-3zM8 6a1.001 1.001 0 0 1-1-1V3a1.001 1.001 0 0 1 1-1l7.992.002A1.006 1.006 0 0 1 17 3v2a1.008 1.008 0 0 1-1.008 1zm11 15a1.001 1.001 0 0 1-1 1H6a1.001 1.001 0 0 1-1-1v-8a1.002 1.002 0 0 1 1-1h12a1.001 1.001 0 0 1 1 1z" fill="currentColor"></path></svg>