<svg xmlns="http://www.w3.org" xmlns:xlink="http://www.w3.org/1999/xlink" width="36px" height="36px" preserveAspectRatio="xMidYMid meet" viewBox="0 0 24 24" aria-hidden="true" role="img"><path d="M1 3v2h22l-.01-1.993A2 2 0 0 0 21 1H3a2.001 2.001 0 0 0-2 2zm3 1a1 1 0 1 1 1-1a1 1 0 0 1-1 1zm3 0a1 1 0 1 1 1-1a1.004 1.004 0 0 1-1 1z" fill="currentColor"></path><path d="M12 10a4 4 0 1 0 4 4h-4z" fill="currentColor"></path><path d="M1 6v14a2 2 0 0 0 2 2h18a2 2 0 0 0 2-2V6zm20 14H3V8h18z" fill="currentColor"></path></svg>