<svg xmlns="http://www.w3.org" xmlns:xlink="http://www.w3.org/1999/xlink" width="36px" height="36px" preserveAspectRatio="xMidYMid meet" viewBox="0 0 24 24" aria-hidden="true" role="img"><path d="M19 8l-4 4h3c0 3.31-2.69 6-6 6a5.87 5.87 0 0 1-2.8-.7l-1.46 1.46A7.93 7.93 0 0 0 12 20c4.42 0 8-3.58 8-8h3l-4-4zM6 12c0-3.31 2.69-6 6-6 1.01 0 1.97.25 2.8.7l1.46-1.46A7.93 7.93 0 0 0 12 4c-4.42 0-8 3.58-8 8H1l4 4 4-4H6z" fill="currentColor"><animateTransform attributeName="transform" attributeType="XML" type="rotate" from="360 12 12" to="0 12 12" dur="5s" repeatCount="indefinite"></animateTransform></path></svg>