<svg xmlns="http://www.w3.org" xmlns:xlink="http://www.w3.org/1999/xlink" width="36px" height="36px" preserveAspectRatio="xMidYMid meet" viewBox="0 0 24 24" aria-hidden="true" role="img"><path d="M19 4h-4.18a3 3 0 0 0-5.64 0H5a2 2 0 0 0-2 2v14a2 2 0 0 0 2 2h14a2 2 0 0 0 2-2V6a2 2 0 0 0-2-2zm-7 0a1 1 0 1 1-1 1a1 1 0 0 1 1-1zm7 15H5v-4h14zm0-6H5V9h14z" fill="currentColor"></path><circle cx="17" cy="11" r="1" fill="currentColor"></circle><circle cx="14" cy="11" r="1" fill="currentColor"></circle><circle cx="14" cy="17" r="1" fill="currentColor"></circle><circle cx="17" cy="17" r="1" fill="currentColor"></circle><path d="M6 10h5v2H6z" fill="currentColor"></path><path d="M6 16h5v2H6z" fill="currentColor"></path></svg>