<svg xmlns="http://www.w3.org" xmlns:xlink="http://www.w3.org/1999/xlink" width="36px" height="36px" preserveAspectRatio="xMidYMid meet" viewBox="0 0 24 24" aria-hidden="true" role="img"><path d="M16 17h-3v-4h-2v4H8v1H2v2h6v1h8v-1h6v-2h-6v-1z" fill="currentColor"></path><path d="M18 4h-5.793l-.853-.854L11.207 3H6a1.502 1.502 0 0 0-1.5 1.5v8A1.502 1.502 0 0 0 6 14h12a1.502 1.502 0 0 0 1.5-1.5v-7A1.502 1.502 0 0 0 18 4zm-.5 2v6h-11V5h3.793l.853.854l.147.146H17.5z" fill="currentColor"></path></svg>