<svg xmlns="http://www.w3.org" xmlns:xlink="http://www.w3.org/1999/xlink" width="36px" height="36px" preserveAspectRatio="xMidYMid meet" viewBox="0 0 24 24" aria-hidden="true" role="img"><path d="M12.841 15.1L12 13l-.841 2.1L9 15.292l1.64 1.489L10.146 19L12 17.821L13.854 19l-.494-2.219L15 15.292l-2.159-.192z" fill="currentColor"></path><path d="M6 2h12v2H6z" fill="currentColor"></path><path d="M4 6h16v2H4z" fill="currentColor"></path><path d="M20 12v8H4v-8h16m0-2H4a2 2 0 0 0-2 2v8a2 2 0 0 0 2 2h16a2 2 0 0 0 2-2v-8a2 2 0 0 0-2-2z" fill="currentColor"></path></svg>