<svg xmlns="http://www.w3.org" xmlns:xlink="http://www.w3.org/1999/xlink" width="36px" height="36px" preserveAspectRatio="xMidYMid meet" viewBox="0 0 24 24" aria-hidden="true" role="img"><circle cx="5" cy="19" r="1" fill="currentColor"></circle><path d="M4 4h2v9H4z" fill="currentColor"></path><path d="M7 2H3a1 1 0 0 0-1 1v18a1 1 0 0 0 1 1h4a1 1 0 0 0 1-1V3a1 1 0 0 0-1-1zm0 19H3V3h4z" fill="currentColor"></path><path d="M14 3v7h-3V3h3m1-1h-5v9h5V2z" fill="currentColor"></path><path d="M21 3v7h-3V3h3m1-1h-5v9h5V2z" fill="currentColor"></path><path d="M14 14v7h-3v-7h3m1-1h-5v9h5v-9z" fill="currentColor"></path><path d="M21 14v7h-3v-7h3m1-1h-5v9h5v-9z" fill="currentColor"></path></svg>