<svg xmlns="http://www.w3.org" xmlns:xlink="http://www.w3.org/1999/xlink" width="36px" height="36px" preserveAspectRatio="xMidYMid meet" viewBox="0 0 24 24" aria-hidden="true" role="img"><path d="M19 4h-4.18a2.988 2.988 0 0 0-5.64 0H5a2.006 2.006 0 0 0-2 2v14a2.006 2.006 0 0 0 2 2h14a2.006 2.006 0 0 0 2-2V6a2.006 2.006 0 0 0-2-2zm-7 0a1 1 0 1 1-1 1a1.003 1.003 0 0 1 1-1zm-2 5l2.79 2.794l2.52-2.52L14 8h4v4l-1.276-1.311l-3.932 3.935L10 11.83l-2.586 2.584L6 13zm9 10H5v-2h14z" fill="currentColor"></path></svg>