<svg xmlns="http://www.w3.org" xmlns:xlink="http://www.w3.org/1999/xlink" width="36px" height="36px" preserveAspectRatio="xMidYMid meet" viewBox="0 0 24 24" aria-hidden="true" role="img"><path d="M4.172 19l2 2l-1 1H2v-1a2.002 2.002 0 0 1 2-2h.172M5 17H4a4 4 0 0 0-4 4v3h8l-1-1l2-2l-4-4z" fill="currentColor"></path><path d="M19.828 19H20a2.002 2.002 0 0 1 2 2v1h-3.172l-1-1l2-2M19 17l-4 4l2 2l-1 1h8v-3a4 4 0 0 0-4-4z" fill="currentColor"></path><path d="M12 18l-1 2v4h2v-4l-1-2z" fill="currentColor"></path><path d="M17 5V2a2 2 0 0 0-2-2H9a2 2 0 0 0-2 2v3H4v1h16V5zm-2-1H9V2h6z" fill="currentColor"></path><path d="M15.5 7a2.488 2.488 0 0 0-1.989 1H10.49a2.436 2.436 0 1 0 .46 1h2.101a2.5 2.5 0 1 0 2.45-2zm-7 3.5a1 1 0 1 1 1-1a1 1 0 0 1-1 1zm7 0a1 1 0 1 1 1-1a1 1 0 0 1-1 1z" fill="currentColor"></path></svg>