<svg xmlns="http://www.w3.org" xmlns:xlink="http://www.w3.org/1999/xlink" width="36px" height="36px" preserveAspectRatio="xMidYMid meet" viewBox="0 0 24 24" aria-hidden="true" role="img"><path d="M21.8 17v-1.5a2.818 2.818 0 0 0-5.6 0V17a1.29 1.29 0 0 0-1.2 1.2v3.5a1.31 1.31 0 0 0 1.2 1.3h5.5a1.31 1.31 0 0 0 1.3-1.2v-3.5a1.31 1.31 0 0 0-1.2-1.3zm-4.3-1.5a1.375 1.375 0 0 1 1.5-1.3a1.375 1.375 0 0 1 1.5 1.3V17h-3z" fill="currentColor"></path><path d="M24 11V2a2 2 0 0 0-2-2H2a2 2 0 0 0-2 2v18a2 2 0 0 0 2 2h11v-2H2V2h20v9" fill="currentColor"></path><path d="M6 4H4v2h2V4z" fill="currentColor"></path><path d="M20 4H8v2h12V4z" fill="currentColor"></path><path d="M13 16H8v2h5v-2z" fill="currentColor"></path><path d="M6 16H4v2h2v-2z" fill="currentColor"></path><path d="M10 8H8v2h2V8z" fill="currentColor"></path><path d="M20 8h-8v2h8V8z" fill="currentColor"></path><path d="M14.808 12H12v2h2.2v-.5a2.26 2.26 0 0 1 .608-1.5z" fill="currentColor"></path><path d="M10 12H8v2h2v-2z" fill="currentColor"></path></svg>