<svg xmlns="http://www.w3.org" xmlns:xlink="http://www.w3.org/1999/xlink" width="36px" height="36px" preserveAspectRatio="xMidYMid meet" viewBox="0 0 24 24" aria-hidden="true" role="img"><path d="M7 2H3a1 1 0 0 0-1 1v18a1 1 0 0 0 1 1h4a1 1 0 0 0 1-1V3a1 1 0 0 0-1-1zM5 21a2 2 0 1 1 2-2a2 2 0 0 1-2 2zm2-9H3V3h4z" fill="currentColor"></path><circle cx="5.01" cy="19.01" r="1" fill="currentColor"></circle><path d="M14 2h8v2.02h-8z" fill="currentColor"></path><path d="M10 2h2.01v2.02H10z" fill="currentColor"></path><path d="M14 6h8v2.02h-8z" fill="currentColor"></path><path d="M10 6h2.01v2.02H10z" fill="currentColor"></path><path d="M14 10h8v2.02h-8z" fill="currentColor"></path><path d="M10 10h2.01v2.02H10z" fill="currentColor"></path></svg>