<svg xmlns="http://www.w3.org" xmlns:xlink="http://www.w3.org/1999/xlink" width="36px" height="36px" preserveAspectRatio="xMidYMid meet" viewBox="0 0 24 24" aria-hidden="true" role="img"><path d="M4 2a2 2 0 0 0-2 2v4h2V4h4V2z" fill="currentColor"></path><path d="M16 2v2h4v4h2V4a2 2 0 0 0-2-2z" fill="currentColor"></path><path d="M16 22v-2h4v-4h2v4a2 2 0 0 1-2 2z" fill="currentColor"></path><path d="M4 20v-4H2v4a2 2 0 0 0 2 2h4v-2z" fill="currentColor"></path><path d="M12.37 9.52A6 6 0 0 0 8 11.45L6 9.5v5h5l-2-2a4.48 4.48 0 0 1 7.6 1.5l1.4-.44a6 6 0 0 0-5.63-4.04z" fill="currentColor"></path></svg>