<svg xmlns="http://www.w3.org" xmlns:xlink="http://www.w3.org/1999/xlink" width="36px" height="36px" preserveAspectRatio="xMidYMid meet" viewBox="0 0 24 24" aria-hidden="true" role="img"><path d="M20 0H4a2 2 0 0 0-2 2v20a2 2 0 0 0 2 2h16a2 2 0 0 0 2-2V2a2 2 0 0 0-2-2zm0 22H4V2h16z" fill="currentColor"></path><path d="M6 4h12v2H6z" fill="currentColor"></path><path d="M6 8h7v2H6z" fill="currentColor"></path><path d="M8 20h8l-4-3l-4 3z" fill="currentColor"></path><path d="M19 19v-6l-5 3l5 3z" fill="currentColor"></path><path d="M6 13v6l4-3l-4-3z" fill="currentColor"></path><path d="M16 12H8l4 3l4-3z" fill="currentColor"></path></svg>