<svg xmlns="http://www.w3.org" xmlns:xlink="http://www.w3.org/1999/xlink" width="36px" height="36px" preserveAspectRatio="xMidYMid meet" viewBox="0 0 24 24" aria-hidden="true" role="img"><path d="M4 6H2v14a2 2 0 0 0 2 2h14v-2H4z" fill="currentColor"></path><path d="M10 10h8v2h-8z" fill="currentColor"></path><path d="M10 13h8v2h-8z" fill="currentColor"></path><path d="M13.47 4.99h-2.31L10 7l1.16 2h2.31l1.16-2l-1.16-2.01z" fill="currentColor"></path><path d="M20 2H8a2 2 0 0 0-2 2v12a2 2 0 0 0 2 2h12a2 2 0 0 0 2-2V4a2 2 0 0 0-2-2zm0 14H8V4h12z" fill="currentColor"></path></svg>