<?xml version="1.0" standalone="no"?>
<!DOCTYPE svg PUBLIC "-//W3C//DTD SVG 1.1//EN" "http://www.w3.org/Graphics/SVG/1.1/DTD/svg11.dtd">
<svg xmlns="http://www.w3.org/2000/svg">
<metadata>Copyright (C) 2024 by original authors @ fontello.com</metadata>
<defs>
<font id="majesticons" horiz-adv-x="1000" >
<font-face font-family="majesticons" font-weight="400" font-stretch="normal" units-per-em="1000" ascent="850" descent="-150" />
<missing-glyph horiz-adv-x="1000" />
<glyph glyph-name="add-column" unicode="&#xe800;" d="M112 764c-9-3-18-10-23-19-4-6-5-9-5-20 0-11 1-14 5-20 2-5 7-10 10-13 11-8 15-8 64-9l45 0v-166h-44c-47 0-54-1-65-9-3-3-8-9-10-13-4-6-5-9-5-20 0-11 1-14 5-20 2-5 7-10 10-13 11-8 15-8 64-9l45 0v-166h-44c-47 0-54-1-65-9-3-3-8-9-10-13-4-6-5-9-5-20 0-11 1-14 5-20 2-5 7-10 10-13 11-8 15-8 64-9l45 0v-166h-44c-47 0-54-1-65-9-3-3-8-9-10-13-4-6-5-9-5-20 0-11 1-14 5-21 5-9 15-17 25-19 4-1 60-2 166-1l161 0 12 4c41 14 71 45 84 85l4 13v628l-4 13a129 129 0 0 1-84 85l-14 4-160 0c-128 0-161 0-167-2m318-83a37 37 0 0 0 16-10c12-13 12-15 12-90v-64h-166v166h64c53 0 67 0 74-2m307-167a43 43 0 0 1-23-19l-5-7 0-48-1-48h-44c-47 0-54-1-65-9-3-3-8-9-10-13-4-6-5-9-5-20 0-11 1-14 5-20 2-5 7-10 10-13 11-8 15-8 64-9l45 0 1-48 0-48 5-8a42 42 0 0 1 72 0l5 8 0 48 1 48 45 0c49 1 53 1 64 9 3 3 8 8 10 13 4 6 5 9 5 20 0 11-1 14-5 20a50 50 0 0 1-10 13c-11 8-17 9-65 9h-44l-1 48 0 48-5 7a42 42 0 0 1-49 19m-279-164v-83h-166v166h166v-83m0-231c0-71 0-75-9-86-2-4-8-8-12-11l-8-4-69-1-68 0v166h166v-64" horiz-adv-x="1000" />

<glyph glyph-name="add-row" unicode="&#xe801;" d="M112 764a43 43 0 0 1-23-19l-5-7v-327l4-13a129 129 0 0 1 85-85l13-4h628l13 4a129 129 0 0 1 85 85l4 13v327l-5 7a42 42 0 0 1-45 20c-11-2-21-10-27-20l-5-7 0-48-1-48h-166l-1 48 0 48-5 7a42 42 0 0 1-72 0l-5-7 0-48-1-48h-166l-1 48 0 48-5 7a42 42 0 0 1-72 0l-5-7 0-48-1-48h-166l-1 48 0 48-5 7a42 42 0 0 1-49 19m221-289v-83l-68 0-69 1-8 4a50 50 0 0 0-12 10c-9 12-9 15-9 86v65h166v-83m250 0v-83h-166v166h166v-83m250 19c0-71 0-75-9-86-2-4-8-8-12-11l-8-4-69-1-68 0v166h166v-64m-346-230a43 43 0 0 1-23-19l-5-7 0-48-1-48h-44c-47 0-54-1-65-9-3-3-8-9-10-13-4-6-5-9-5-20 0-11 1-14 5-20 2-5 7-10 10-13 11-8 15-8 64-9l45 0 1-48 0-48 5-8a42 42 0 0 1 72 0l5 8 0 48 1 48 45 0c49 1 53 1 64 9 3 3 8 8 10 13 4 6 5 9 5 20 0 11-1 14-5 20a50 50 0 0 1-10 13c-11 8-17 9-65 9h-44l-1 48 0 48-5 7a42 42 0 0 1-49 19" horiz-adv-x="1000" />

<glyph glyph-name="airplane-flight-2" unicode="&#xe802;" d="M837 807c-6-1-17-4-24-6-23-8-32-15-73-55l-37-37-92 6c-102 7-108 7-128-2a101 101 0 0 1-63-94c0-44 26-81 69-97l14-4-45-1c-48-1-53-2-72-13-12-6-32-25-38-36a102 102 0 0 1-12-76c7-25 11-31 61-82 25-25 50-49 56-53 23-17 45-24 75-24 38 0 62 11 95 43 6 5 10 9 10 8 0-1 5-12 11-25 12-25 23-38 40-49 54-35 129-7 147 56 3 9 3 22 4 114 1 84 1 105 3 108 1 3 27 29 57 60 55 55 61 62 70 80 24 48 15 100-23 139-30 31-67 45-105 40m31-87c8-4 19-15 23-23 4-8 4-23-1-32-2-5-22-26-58-62-30-31-57-59-60-63-7-11-15-27-18-40-2-9-3-25-3-113l-1-102-4-3a15 15 0 0 0-17-2c-2 1-11 17-25 49-12 26-23 50-26 53a39 39 0 0 1-29 16c-19 2-22 0-63-41-34-34-37-37-46-39-11-4-14-4-25 0-9 2-12 5-51 44-24 23-44 44-45 47a17 17 0 0 0 4 20c4 4 4 4 48 5 55 1 66 3 91 20 4 3 65 63 136 134 71 70 132 130 135 131 12 6 24 7 35 1m-291-86c26-2 46-3 46-4 0 0-10-12-24-25l-24-24-31 11c-36 12-41 15-41 27 0 4 2 9 3 11a21 21 0 0 0 19 8c3-1 27-2 52-4m-387-234c-9-5-36-27-56-45-44-41-89-99-92-120-2-16 8-35 22-42a42 42 0 0 1 30-4c12 4 20 10 32 29 22 34 52 67 90 97 11 9 21 18 23 20a41 41 0 0 1 8 43c-5 10-16 21-25 24-11 3-24 2-32-2m85-133c-11-6-61-58-98-104-54-67-98-142-127-217-8-21-10-30-7-40a41 41 0 0 1 38-31 30 30 0 0 1 20 4c13 6 18 13 28 38 36 94 93 179 181 271 20 20 21 22 23 33a41 41 0 0 1-40 49c-7 0-13-1-18-3m155-85c-13-4-18-9-55-55-49-62-98-138-103-161-3-14 2-28 14-39a39 39 0 0 1 43-6c12 5 17 11 30 36 22 38 57 89 98 138 10 12 20 26 22 29 5 9 5 26 0 35-10 18-31 28-49 23" horiz-adv-x="1000" />

<glyph glyph-name="airplane" unicode="&#xe803;" d="M381 681c-43-11-71-54-62-96 2-9 7-21 16-40 7-15 13-27 13-28 0 0-16 0-36 0l-36 0-12 24c-14 28-25 40-42 49-17 9-26 10-79 10-51 0-58-1-76-9-11-6-26-20-33-32-11-17-15-41-11-60 1-4 24-58 50-120 53-124 54-126 74-139 5-3 14-8 19-10 10-4 11-4 99-5l90-1-21-52c-20-49-21-53-22-66a83 83 0 0 1 62-86c10-3 18-3 63-3 31 0 55 0 60 2 12 2 27 10 36 17 4 4 41 48 81 98l73 91h89c94 0 102 1 124 8 32 10 64 36 81 65 47 85 4 188-90 214-13 4-16 4-130 5l-116 1-54 71c-73 98-66 93-147 94-41 0-55 0-63-2m129-123l32-41h-99l-21 41c-11 22-20 41-20 41 0 1 17 1 38 1h39l31-42m-316-64c6-12 14-26 18-30 7-10 22-20 36-26l10-4 305-1 306 0 10-5c13-6 26-19 32-32 4-9 5-12 5-25s-1-17-5-25c-6-13-19-26-32-32l-10-5-100-1c-96-1-100-1-109-4a96 96 0 0 1-29-17c-3-2-38-45-78-96l-73-91h-85l3 8 19 48c9 22 17 44 19 50 11 43-17 88-62 100-8 2-24 2-95 2h-85l-44 103a19210 19210 0 0 1-44 104c-1 1 16 2 38 2h39l11-23" horiz-adv-x="1000" />

<glyph glyph-name="alert-circle" unicode="&#xe804;" d="M462 765a421 421 0 0 1-189-66 376 376 0 0 1-68-56 411 411 0 0 1-121-306c3-89 31-167 84-239 17-22 53-59 74-75 60-46 124-74 200-86 27-4 89-4 116 0 94 15 171 54 236 119 65 65 104 142 119 236 4 27 4 89 0 116-12 76-40 140-86 200-14 19-50 55-69 69-86 67-189 97-296 88m69-83a330 330 0 0 0 200-93 333 333 0 0 0 68-385 326 326 0 0 0-70-96 312 312 0 0 0-84-58 331 331 0 0 0-290 0 327 327 0 0 0-111 88c-84 99-101 241-43 358a333 333 0 0 0 296 187c8 0 24 0 34-1m-44-126a43 43 0 0 1-23-19l-5-8v-233l5-9a42 42 0 0 1 72 0l5 9v233l-5 8a42 42 0 0 1-49 19m0-333a43 43 0 0 1-23-19c-4-7-5-10-5-21 0-11 1-13 5-21a42 42 0 0 1 72 0c4 8 5 10 5 21 0 11-1 14-5 21a42 42 0 0 1-49 19" horiz-adv-x="1000" />

<glyph glyph-name="align-bottom" unicode="&#xe805;" d="M313 723a127 127 0 0 1-100-88l-4-12v-420l4-13a129 129 0 0 1 85-85c18-6 52-6 70 0a129 129 0 0 1 86 85l4 13v420l-4 12c-13 41-45 73-85 85-15 4-43 6-56 3m33-84a37 37 0 0 0 16-10c14-13 13 0 13-216 0-209 0-201-9-214-3-3-8-8-12-10-7-4-10-5-21-5s-13 1-20 5a50 50 0 0 0-12 10c-10 13-9 3-9 213 0 217-1 204 12 217 12 12 26 15 42 10m300-82a127 127 0 0 1-100-89l-3-12v-253l3-13a129 129 0 0 1 86-85c10-4 16-4 36-4 20 0 25 1 36 4a129 129 0 0 1 83 85l4 13v253l-4 12c-13 41-45 73-84 85-15 4-43 6-57 4m34-84c11-4 22-15 26-27 3-12 4-221 0-233a43 43 0 0 0-19-24c-7-4-10-5-20-5s-14 1-20 5a50 50 0 0 0-13 10c-9 13-9 10-9 129 0 125 0 121 13 134 11 12 25 15 42 11m-568-417a43 43 0 0 1-23-19c-4-7-5-10-5-20 0-11 1-14 5-21 5-9 13-15 22-19 10-3 769-3 778 0 9 4 17 10 22 19 4 7 5 10 5 21 0 10-1 13-5 20a43 43 0 0 1-24 19c-11 3-764 3-775 0" horiz-adv-x="1000" />

<glyph glyph-name="align-horizontal-center" unicode="&#xe806;" d="M487 764a43 43 0 0 1-23-19l-5-7 0-48-1-48-115-1-115 0-14-4a129 129 0 0 1-84-85c-6-18-6-52 0-70a130 130 0 0 1 84-85l12-4 116-1 116 0v-83l-53-1c-50-1-53-1-66-5a128 128 0 0 1-84-85c-3-10-4-16-4-35 0-18 1-24 4-35a129 129 0 0 1 84-85c11-3 15-4 66-4l53-1 1-48 0-48 5-8c3-5 9-11 13-14 20-13 46-7 59 14l5 8 0 48 1 48 54 1c50 0 54 1 65 4a129 129 0 0 1 84 85c6 18 6 52 0 70a128 128 0 0 1-84 85c-13 4-16 4-66 5l-53 1v83l116 0 116 1 12 4a130 130 0 0 1 84 85c6 18 6 52 0 70a129 129 0 0 1-84 85l-13 4-116 0-115 1-1 48 0 48-5 7a42 42 0 0 1-49 19m276-208c16-5 29-23 29-39 0-14-9-29-22-37l-7-4h-525l-8 4c-24 15-29 46-9 66 13 13-8 12 278 12 224 0 257 0 264-2m-125-333c16-5 29-23 29-40 0-13-9-29-22-36l-7-4h-275l-8 4c-24 14-29 46-9 65 13 13 7 13 153 13 112 0 132 0 139-2" horiz-adv-x="1000" />

<glyph glyph-name="analytics-plus" unicode="&#xe807;" d="M779 806a43 43 0 0 1-24-19l-4-8-1-48 0-48h-44c-48 0-54-1-65-9-3-2-8-8-11-12-3-7-4-10-4-20 0-11 1-14 5-21 2-4 7-9 10-12 11-8 15-9 64-9l45 0 0-48 1-48 5-8a42 42 0 0 1 72 0l5 8 0 48 1 48 45 0c49 0 53 1 64 9 3 3 7 8 10 12 4 7 5 10 5 21 0 10-1 13-5 20a50 50 0 0 1-11 12c-10 8-17 9-65 9h-43l-1 48 0 48-5 8a42 42 0 0 1-49 19m-550-83c-46-8-85-42-99-88l-4-12v-545l4-13a129 129 0 0 1 85-85l13-4h545l12 4a129 129 0 0 1 85 85l4 13v285l-4 7a42 42 0 0 1-73 0l-4-7-1-137c-1-104-2-138-3-141a48 48 0 0 0-19-21l-7-5h-525l-8 5a50 50 0 0 0-12 10c-10 13-10-3-10 275 0 288-1 267 13 280 13 13 7 13 156 13 105 0 132 0 137 2 9 3 17 10 22 19 4 7 5 10 5 20 0 11-1 14-5 21a50 50 0 0 1-10 12c-12 9-10 9-155 9-73 0-137-1-142-2m258-167a43 43 0 0 1-23-19l-5-8v-358l5-9c3-4 9-10 13-13 20-13 46-7 59 13l5 9v358l-5 8a42 42 0 0 1-49 19m-166-125a43 43 0 0 1-24-19l-4-8v-233l5-9a42 42 0 0 1 71 0l5 9v233l-4 8a42 42 0 0 1-49 19m333-125a43 43 0 0 1-24-19l-4-8v-108l5-9a42 42 0 0 1 72 0l5 9v108l-5 8a42 42 0 0 1-49 19" horiz-adv-x="1000" />

<glyph glyph-name="analytics" unicode="&#xe808;" d="M229 723c-46-8-85-42-99-88l-4-12v-545l4-13a129 129 0 0 1 85-85l13-4h545l12 4a129 129 0 0 1 85 85l4 13v545l-4 12a129 129 0 0 1-84 85l-13 4-268 0c-147 1-271 0-276-1m534-84c12-3 23-14 26-26 2-7 3-40 3-263 0-211-1-256-3-262a43 43 0 0 0-19-24l-7-5h-525l-8 5a44 44 0 0 0-19 23c-4 11-4 513 0 526 3 11 15 23 25 26 13 4 514 4 527 0m-276-83a43 43 0 0 1-23-19l-5-8v-358l5-9c3-4 9-10 13-13 20-13 46-7 59 13l5 9v358l-5 8a42 42 0 0 1-49 19m-166-125a43 43 0 0 1-24-19l-4-8v-233l5-9a42 42 0 0 1 71 0l5 9v233l-4 8a42 42 0 0 1-49 19m333-125a43 43 0 0 1-24-19l-4-8v-108l5-9a42 42 0 0 1 72 0l5 9v108l-5 8a42 42 0 0 1-49 19" horiz-adv-x="1000" />

<glyph glyph-name="analytics-restricted" unicode="&#xe809;" d="M746 807c-69-9-132-61-153-128a185 185 0 0 1 0-116c25-79 103-133 187-129a187 187 0 0 1 178 178c6 116-95 209-212 195m-517-84c-46-8-85-42-99-88l-4-12v-545l4-13a129 129 0 0 1 85-85l13-4h545l12 4a129 129 0 0 1 85 85l4 13v285l-4 7a42 42 0 0 1-73 0l-4-7-1-137c-1-104-2-138-3-141a48 48 0 0 0-19-21l-7-5h-525l-8 5a50 50 0 0 0-12 10c-10 13-10-3-10 275 0 288-1 267 13 280 13 13 7 13 156 13 105 0 132 0 137 2 9 3 17 10 22 19 4 7 5 10 5 20 0 11-1 14-5 21a50 50 0 0 1-10 12c-12 9-10 9-155 9-73 0-137-1-142-2m564 0a104 104 0 0 0 81-108 128 128 0 0 0-3-23l-3-9-67 67c-52 52-67 68-65 69 5 3 23 6 34 6 6 0 16-1 23-2m12-201c-7-3-27-6-42-5-56 4-99 53-96 110a128 128 0 0 0 4 23l3 9 67-67c64-64 67-68 64-70m-318 34a43 43 0 0 1-23-19l-5-8v-358l5-9c3-4 9-10 13-13 20-13 46-7 59 13l5 9v358l-5 8a42 42 0 0 1-49 19m-166-125a43 43 0 0 1-24-19l-4-8v-233l5-9a42 42 0 0 1 71 0l5 9v233l-4 8a42 42 0 0 1-49 19m333-125a43 43 0 0 1-24-19l-4-8v-108l5-9a42 42 0 0 1 72 0l5 9v108l-5 8a42 42 0 0 1-49 19" horiz-adv-x="1000" />

<glyph glyph-name="analytics-delete" unicode="&#xe80a;" d="M695 764c-10-3-18-10-23-19-4-6-4-9-4-20 0-9 1-14 3-18 1-3 16-19 32-36l29-29-29-30c-16-16-30-32-32-35-10-19-2-44 17-55 7-4 10-4 20-4 9 0 15 1 19 3 3 1 19 16 35 32l30 29 29-29c17-16 33-31 36-32 4-2 9-3 18-3 11 0 14 0 21 4 9 6 17 16 19 25a50 50 0 0 1-2 30c-2 3-17 19-33 35l-29 30 29 29c16 17 31 33 33 36 2 4 3 9 3 18 0 11-1 14-5 20a42 42 0 0 1-50 19c-7-2-13-8-39-33l-30-30-31 30c-25 25-31 31-38 33a42 42 0 0 1-28 0m-466-41c-46-8-85-42-99-88l-4-12v-545l4-13a129 129 0 0 1 85-85l13-4h545l12 4a129 129 0 0 1 85 85l4 13v326l-4 8a42 42 0 0 1-73 0l-4-8-1-157c-1-121-2-159-3-162a48 48 0 0 0-19-21l-7-5h-525l-8 5a50 50 0 0 0-12 10c-10 13-10-3-10 275 0 288-1 267 13 280 13 13 5 13 176 13 123 0 153 0 158 2 10 3 18 10 23 19 4 7 5 10 5 20 0 11-1 14-5 21a50 50 0 0 1-11 12c-12 9-8 9-175 9-85 0-158-1-163-2m258-167a43 43 0 0 1-23-19l-5-8v-358l5-9c3-4 9-10 13-13 20-13 46-7 59 13l5 9v358l-5 8a42 42 0 0 1-49 19m-166-125a43 43 0 0 1-24-19l-4-8v-233l5-9a42 42 0 0 1 71 0l5 9v233l-4 8a42 42 0 0 1-49 19m333-125a43 43 0 0 1-24-19l-4-8v-108l5-9a42 42 0 0 1 72 0l5 9v108l-5 8a42 42 0 0 1-49 19" horiz-adv-x="1000" />

<glyph glyph-name="arrow-down-circle" unicode="&#xe80b;" d="M462 765a421 421 0 0 1-189-66 376 376 0 0 1-68-56 411 411 0 0 1-121-306c3-89 31-167 84-239 17-22 53-59 74-75 60-46 124-74 200-86 27-4 89-4 116 0 94 15 171 54 236 119 65 65 104 142 119 236 4 27 4 89 0 116-12 76-40 140-86 200-14 19-50 55-69 69-86 67-189 97-296 88m69-83a330 330 0 0 0 200-93 333 333 0 0 0 68-385 326 326 0 0 0-70-96 312 312 0 0 0-84-58 331 331 0 0 0-290 0 327 327 0 0 0-111 88c-84 99-101 241-43 358a333 333 0 0 0 296 187c8 0 24 0 34-1m-46-168c-6-2-18-13-75-70-37-36-69-70-71-74-4-6-5-9-5-20 0-11 1-14 5-20 5-10 15-17 25-20 9-2 22-1 30 3 3 1 19 16 35 32l29 29 1-81 0-81 5-8a42 42 0 0 1 72 0l5 8 0 81 1 81 29-29c17-16 33-31 36-33 4-2 9-3 18-3 11 0 14 1 21 5 19 12 26 37 15 57-2 3-34 37-71 73-60 60-68 68-76 70a43 43 0 0 1-29 0" horiz-adv-x="1000" />

<glyph glyph-name="align-left" unicode="&#xe80c;" d="M154 764a43 43 0 0 1-24-19l-4-7v-776l5-8a42 42 0 0 1 72 0l5 8v776l-5 7a42 42 0 0 1-49 19m200-124c-46-8-85-42-99-88-6-18-6-52 0-70a129 129 0 0 1 85-86l13-3h420l12 3a129 129 0 0 1 85 86c6 18 6 52 0 70a129 129 0 0 1-84 85l-13 4-205 0c-113 0-209 0-214-1m409-84c16-5 29-23 29-39 0-14-9-29-22-37l-7-4h-400l-8 4c-24 15-29 46-9 66 13 13-1 12 216 12 168 0 194 0 201-2m-409-249a127 127 0 0 1-99-89c-6-18-6-52 0-70a129 129 0 0 1 85-85l13-4h253l12 4a129 129 0 0 1 86 85c5 18 5 52 0 70a129 129 0 0 1-85 85l-13 5-122 0c-67 0-125-1-130-1m242-84c16-5 29-23 29-40 0-13-9-29-21-36l-8-4h-233l-8 4c-24 14-29 46-9 65 13 13 8 13 132 13 94 0 111 0 118-2" horiz-adv-x="1000" />

<glyph glyph-name="arrow-left" unicode="&#xe80d;" d="M443 639c-6-2-25-20-137-132-74-74-131-133-134-137-4-6-4-9-4-20s0-14 4-20c6-9 260-264 268-267 19-10 43-2 55 17 4 6 4 9 4 20 0 9-1 14-3 18-2 4-44 48-95 98l-92 92 245 0c201 1 246 1 251 3 10 3 18 10 23 19 4 6 5 9 5 20 0 11-1 14-5 20a43 43 0 0 1-24 19c-6 2-50 3-251 3h-244l92 92c51 50 93 95 95 98 2 4 3 9 3 18 0 11 0 14-4 20a42 42 0 0 1-52 19" horiz-adv-x="1000" />

<glyph glyph-name="align-top" unicode="&#xe80e;" d="M112 723a43 43 0 0 1-23-19c-4-7-5-10-5-21 0-10 1-13 5-20 5-9 13-16 22-19 10-3 769-3 778 0 9 3 17 10 22 19 4 7 5 10 5 20 0 11-1 14-5 21a43 43 0 0 1-24 19c-11 3-764 3-775 0m201-125a127 127 0 0 1-100-88l-4-12v-420l4-13a129 129 0 0 1 85-85c18-6 52-6 70 0a129 129 0 0 1 86 85l4 13v420l-4 12c-13 41-45 73-85 85-15 4-43 6-56 3m333 0a127 127 0 0 1-100-88l-3-12v-254l3-12a129 129 0 0 1 86-86c10-3 16-3 36-3 20 0 25 0 36 4a129 129 0 0 1 83 85l4 12v254l-4 12c-13 41-45 73-84 85-15 4-43 6-57 3m-300-84a37 37 0 0 0 16-10c14-13 13 0 13-216 0-209 0-201-9-214-3-3-8-8-12-10-7-4-10-5-21-5s-13 1-20 5a50 50 0 0 0-12 10c-10 13-9 3-9 213 0 217-1 204 12 217 12 12 26 15 42 10m334 0c11-3 22-14 26-26 3-12 4-222 0-233a43 43 0 0 0-19-25c-7-3-10-4-20-4s-14 1-20 4a50 50 0 0 0-13 11c-9 12-9 10-9 129 0 125 0 121 13 134 11 12 25 15 42 10" horiz-adv-x="1000" />

<glyph glyph-name="align-right" unicode="&#xe80f;" d="M821 764a43 43 0 0 1-24-19l-4-7v-776l5-8a42 42 0 0 1 71 0l5 8v776l-4 7a42 42 0 0 1-49 19m-592-124c-46-8-85-42-99-88-6-18-6-52 0-70a129 129 0 0 1 85-86l13-3h420l12 3a129 129 0 0 1 85 86c6 18 6 52 0 70a129 129 0 0 1-84 85l-13 4-205 0c-113 0-209 0-214-1m409-84c16-5 29-23 29-39 0-14-9-29-22-37l-7-4h-400l-8 4c-24 15-29 46-9 66 13 13-1 12 216 12 168 0 194 0 201-2m-242-249a127 127 0 0 1-100-89c-5-18-5-52 0-70a129 129 0 0 1 86-85l12-4h254l12 4a129 129 0 0 1 85 85c6 18 6 52 0 70a129 129 0 0 1-84 85l-13 5-122 0c-67 0-126-1-130-1m242-84c16-5 29-23 29-40 0-13-9-29-22-36l-7-4h-234l-7 4c-25 14-29 46-9 65 13 13 7 13 131 13 94 0 112 0 119-2" horiz-adv-x="1000" />

<glyph glyph-name="arrow-right" unicode="&#xe810;" d="M528 639c-9-3-18-10-23-19-3-6-4-9-4-20 0-9 1-14 3-18 2-3 44-48 95-98l92-92h-244c-201 0-244-1-251-3a43 43 0 0 1-24-19c-4-6-4-9-4-20 0-11 0-14 4-20 5-9 13-16 23-19 5-2 51-2 251-3l245 0-92-92c-51-50-93-94-95-98-2-4-3-9-3-18 0-11 1-14 5-20 5-10 15-17 25-20 8-2 22-1 29 3 8 3 262 258 268 267 4 6 5 9 5 20s-1 14-5 20c-2 4-60 63-134 137-118 118-131 130-138 132a42 42 0 0 1-28 0" horiz-adv-x="1000" />

<glyph glyph-name="arrow-right-circle" unicode="&#xe811;" d="M462 765a421 421 0 0 1-189-66 376 376 0 0 1-68-56 411 411 0 0 1-121-306c3-89 31-167 84-239 17-22 53-59 74-75 60-46 124-74 200-86 27-4 89-4 116 0 94 15 171 54 236 119 65 65 104 142 119 236 4 27 4 89 0 116-12 76-40 140-86 200-14 19-50 55-69 69-86 67-189 97-296 88m69-83a330 330 0 0 0 200-93 333 333 0 0 0 68-385 326 326 0 0 0-70-96 312 312 0 0 0-84-58 331 331 0 0 0-290 0 327 327 0 0 0-111 88c-84 99-101 241-43 358a333 333 0 0 0 296 187c8 0 24 0 34-1m-46-168c-6-2-18-13-75-70-37-36-69-70-71-74-4-6-5-9-5-20s1-14 5-20c5-9 135-139 143-142 18-10 43-2 54 17 4 6 5 9 5 20 0 9-1 14-3 18-2 4-17 20-33 36l-29 29 78 0c61 1 80 1 85 3 9 3 17 10 22 19 4 6 5 9 5 20 0 11-1 14-5 20a50 50 0 0 1-10 13c-12 8-15 9-98 9h-77l29 29c16 17 31 33 33 36 2 4 3 9 3 18 0 11-1 14-5 20a42 42 0 0 1-51 19" horiz-adv-x="1000" />

<glyph glyph-name="align-vertical-center" unicode="&#xe812;" d="M313 723c-47-8-84-41-100-87l-4-12 0-116-1-116h-44c-47 0-54-1-65-9-3-3-8-9-10-13-4-6-5-9-5-20 0-11 1-14 5-20 2-5 7-10 10-13 11-8 15-8 64-9l45 0 1-116 0-116 4-12a130 130 0 0 1 85-84c18-6 52-6 70 0a130 130 0 0 1 86 84l4 12 0 116 1 116h82l1-53c1-51 1-55 5-66a129 129 0 0 1 85-84c10-3 16-4 35-4 19 0 24 1 35 4a129 129 0 0 1 85 84c3 11 4 15 4 66l1 53 45 0c49 1 53 1 64 9 3 3 8 8 10 13 4 6 5 9 5 20 0 11-1 14-5 20a50 50 0 0 1-10 13c-11 8-17 9-65 9h-44l-1 53c0 51-1 55-4 66a129 129 0 0 1-84 84c-12 3-17 4-36 4-19 0-25-1-36-4a129 129 0 0 1-84-84c-4-11-4-15-5-66l-1-53h-82l-1 116 0 116-4 12c-14 41-46 72-85 84-15 4-43 6-56 3m33-84a37 37 0 0 0 16-10c14-13 13 7 13-279 0-211 0-256-2-262a43 43 0 0 0-19-24c-7-4-10-5-21-5s-13 1-20 5a50 50 0 0 0-12 10c-10 13-9-3-9 275 0 288-1 267 12 280 12 12 26 15 42 10m334-125c11-3 22-14 26-26 3-12 4-263 0-275a43 43 0 0 0-19-24c-7-4-10-5-20-5s-14 1-20 5a50 50 0 0 0-13 10c-9 13-9 8-9 150 0 148 0 142 13 155 11 12 25 15 42 10" horiz-adv-x="1000" />

<glyph glyph-name="arrow-left-circle" unicode="&#xe813;" d="M462 765a421 421 0 0 1-189-66 376 376 0 0 1-68-56 411 411 0 0 1-121-306c3-89 31-167 84-239 17-22 53-59 74-75 60-46 124-74 200-86 27-4 89-4 116 0 94 15 171 54 236 119 65 65 104 142 119 236 4 27 4 89 0 116-12 76-40 140-86 200-14 19-50 55-69 69-86 67-189 97-296 88m69-83a330 330 0 0 0 200-93 333 333 0 0 0 68-385 326 326 0 0 0-70-96 312 312 0 0 0-84-58 331 331 0 0 0-290 0 327 327 0 0 0-111 88c-84 99-101 241-43 358a333 333 0 0 0 296 187c8 0 24 0 34-1m-44-168a43 43 0 0 1-23-19l-5-7 0-81-1-81-30 30c-28 28-31 31-40 33-11 3-15 3-25 0a43 43 0 0 1-24-19c-4-6-5-9-5-20s1-14 5-20c5-9 135-138 143-143 4-2 9-3 18-3s14 1 18 3c8 5 138 134 143 143 4 6 5 9 5 20s-1 14-5 20a43 43 0 0 1-24 19c-10 3-14 3-25 0-8-2-12-5-40-33l-30-30-1 81 0 81-5 7a42 42 0 0 1-49 19" horiz-adv-x="1000" />

<glyph glyph-name="arrow-down" unicode="&#xe814;" d="M487 681a43 43 0 0 1-23-19l-5-8 0-247-1-248-93 93c-83 84-93 93-101 95a42 42 0 0 1-50-18c-4-7-5-10-5-21s1-13 5-20c5-9 260-263 268-267 4-2 9-3 18-3 11 0 14 0 20 4 9 6 264 260 268 268 2 4 3 10 3 18 0 11-1 14-5 21a42 42 0 0 1-50 18c-8-2-17-11-101-95l-93-93-1 248 0 247-5 8a42 42 0 0 1-49 19" horiz-adv-x="1000" />

<glyph glyph-name="arrow-up-circle" unicode="&#xe815;" d="M462 765a421 421 0 0 1-189-66 376 376 0 0 1-68-56 411 411 0 0 1-121-306c3-89 31-167 84-239 17-22 53-59 74-75 60-46 124-74 200-86 27-4 89-4 116 0 94 15 171 54 236 119 65 65 104 142 119 236 4 27 4 89 0 116-12 76-40 140-86 200-14 19-50 55-69 69-86 67-189 97-296 88m69-83a330 330 0 0 0 200-93 333 333 0 0 0 68-385 326 326 0 0 0-70-96 312 312 0 0 0-84-58 331 331 0 0 0-290 0 327 327 0 0 0-111 88c-84 99-101 241-43 358a333 333 0 0 0 296 187c8 0 24 0 34-1m-45-168c-9-3-17-10-22-19-4-6-5-9-5-20 0-9 1-14 3-18 2-3 17-19 33-36l29-29h-77c-83 0-86-1-98-9-3-3-8-9-10-13-4-6-5-9-5-20 0-11 1-14 5-20 5-9 13-16 22-19 5-2 24-2 85-3l78 0-29-29c-16-16-31-32-32-35-10-19-2-44 17-55 6-4 9-5 20-5 9 0 14 1 18 3 8 5 138 134 143 143 4 6 5 9 5 20s-1 14-5 20c-2 4-34 38-71 74-60 60-68 68-76 70a42 42 0 0 1-28 0" horiz-adv-x="1000" />

<glyph glyph-name="arrow-up" unicode="&#xe816;" d="M485 681c-6-3-25-21-137-132-74-74-132-133-134-137-4-7-5-10-5-20 0-11 1-14 5-21 5-9 15-17 25-19 9-3 22-1 30 2 3 2 47 44 97 95l92 92 1-248 0-247 5-9a42 42 0 0 1 72 0l5 9 0 247 1 248 92-92c50-51 94-93 98-95 18-9 43-2 54 17 4 7 5 10 5 21 0 10-1 13-5 20-2 4-60 63-134 137-118 117-130 129-138 132a44 44 0 0 1-29 0" horiz-adv-x="1000" />

<glyph glyph-name="arrows-collapse-full" unicode="&#xe817;" d="M195 681c-10-4-18-10-23-19-4-7-4-10-4-20 0-9 1-14 3-19 1-3 25-28 53-56l50-50h-35c-38 0-46-1-56-9-4-3-8-9-11-13-4-6-4-9-4-20 0-11 0-14 4-20 5-9 13-16 23-19 9-3 185-3 194 0 9 3 17 10 22 19l5 8v191l-5 8a42 42 0 0 1-72 0l-5-8 0-39-1-39-51 51c-45 45-52 51-59 54a42 42 0 0 1-28 0m417 0a43 43 0 0 1-23-19l-5-8v-191l5-8c5-9 13-16 22-19 9-3 185-3 194 0 10 3 18 10 23 19 4 6 5 9 5 20 0 11-1 14-5 20a50 50 0 0 1-11 13c-10 8-17 9-56 9h-35l50 50c28 28 52 53 53 56 3 5 4 10 4 19 0 10-1 13-5 20a42 42 0 0 1-51 19c-7-3-14-9-59-54l-51-51-1 39c0 39 0 39-5 47a42 42 0 0 1-49 19m-416-417a43 43 0 0 1-24-19c-4-6-4-9-4-20 0-11 0-14 4-20 3-5 7-10 11-13 10-8 15-8 55-9l36 0-50-50c-28-28-52-53-53-56-10-19-2-44 17-55 7-4 10-4 20-4 9 0 15 1 19 3 3 1 28 25 56 53l50 50 1-39 0-39 5-9a42 42 0 0 1 72 0l5 9v192l-5 7a44 44 0 0 1-23 19c-9 4-182 4-192 0m415 0c-9-3-17-10-22-19l-5-7v-192l5-9a42 42 0 0 1 72 0l5 9 0 39 1 39 50-50c28-28 53-52 56-53 5-2 10-3 19-3 10 0 13 0 20 4 9 6 17 16 20 25a50 50 0 0 1-3 30c-1 3-25 28-53 56l-50 50 37 0c39 1 44 1 55 9 3 3 7 8 10 13 4 6 5 9 5 20 0 11-1 14-5 20a43 43 0 0 1-24 19c-11 4-184 4-193 0" horiz-adv-x="1000" />

<glyph glyph-name="arrows-expand-full" unicode="&#xe818;" d="M195 681c-10-4-18-10-23-19l-4-8v-192l5-8a42 42 0 0 1 71 0l5 8 1 39 0 40 51-50c27-28 53-52 56-54 4-2 9-3 18-3 11 0 14 1 21 5 9 5 17 15 19 25a50 50 0 0 1-2 30c-2 3-26 28-54 56l-50 50 37 0c39 0 44 1 55 9 3 3 8 8 10 12 4 7 5 10 5 21 0 10-1 13-5 20a43 43 0 0 1-24 19c-11 3-183 3-192 0m417 0a43 43 0 0 1-23-19c-4-7-5-10-5-20 0-11 1-14 5-21 2-4 7-9 10-12 11-8 16-9 55-9l37 0-50-50c-28-28-52-53-53-56-10-19-2-44 17-55 6-4 9-5 20-5 9 0 14 1 18 3 4 2 29 26 57 54l50 50 0-40 1-39 5-8a42 42 0 0 1 72 0l5 8v192l-5 8a44 44 0 0 1-23 19c-10 3-182 3-193 0m-416-417a43 43 0 0 1-24-19l-4-7v-192l4-8c5-9 13-16 23-19 9-3 185-3 194 0 9 3 17 10 22 19 4 7 5 10 5 20 0 11-1 14-5 21a50 50 0 0 1-10 12c-11 8-18 9-57 9h-35l50 50c28 28 52 54 54 57 2 4 3 9 3 18 0 11-1 14-5 20a42 42 0 0 1-50 19c-7-2-15-9-60-54l-51-50 0 39c-1 38-1 39-5 46a42 42 0 0 1-49 19m415 0c-9-3-17-10-22-19-4-6-5-9-5-20 0-9 1-14 3-18 2-3 26-29 54-57l50-50h-35c-39 0-46-1-57-9-3-3-8-8-10-12-4-7-5-10-5-21 0-10 1-13 5-20 5-9 13-16 22-19 9-3 185-3 194 0 10 3 18 10 23 19l5 8v192l-5 7a42 42 0 0 1-45 20c-11-2-22-10-28-20l-4-7-1-39 0-39-51 50c-45 45-52 52-60 54a42 42 0 0 1-28 0" horiz-adv-x="1000" />

<glyph glyph-name="article-search" unicode="&#xe819;" d="M188 723c-47-8-85-42-100-88l-4-12v-545l4-13c13-41 43-71 85-85l11-4 161-1c106 0 162 0 167 2 9 2 19 10 24 19 4 7 5 10 5 21 0 10-1 13-5 20a48 48 0 0 1-20 18c-4 2-42 3-163 3l-157 1-8 5a50 50 0 0 0-12 10c-10 13-9-3-9 275 0 288-1 267 12 280 14 14-12 13 321 13 331 0 307 1 320-12 13-13 12-3 13-156l1-137 5-8a42 42 0 0 1 72 0l5 8v286l-4 12a129 129 0 0 1-84 85l-14 4-309 0c-170 1-313 0-317-1m91-167a43 43 0 0 1-24-19l-4-8v-191l5-8c5-9 13-16 22-19 9-3 185-3 194 0 9 3 17 10 23 19l4 8v191l-4 8a43 43 0 0 1-25 19c-10 3-181 3-191 0m333 0a43 43 0 0 1-23-19c-4-7-5-10-5-20 0-11 1-14 5-21 5-9 13-15 22-19 9-3 102-3 111 0 9 4 17 10 23 19 4 7 4 10 4 21 0 10 0 13-4 20a43 43 0 0 1-25 19c-10 3-98 3-108 0m-195-123v-41h-84v83h84v-42m195-44a43 43 0 0 1-23-19c-4-6-5-9-5-20 0-11 1-14 5-20 5-9 13-16 22-19 9-3 102-3 111 0 9 3 17 10 23 19 4 6 4 9 4 20 0 11 0 14-4 20a43 43 0 0 1-25 19c-10 4-98 4-108 0m92-125c-56-10-98-48-115-103-4-14-5-18-5-40 0-22 1-27 5-40 15-50 50-85 101-100 12-4 17-5 38-5 27 0 40 2 61 12l10 4 26-26c14-14 29-27 32-29 4-2 9-3 18-3 11 0 14 1 21 5 9 5 17 15 19 25a49 49 0 0 1-3 29c-1 4-14 18-28 32l-26 27 4 9c10 21 12 35 12 61 0 21-1 26-5 39-15 50-53 88-103 101-17 4-46 5-62 2m-425-41a43 43 0 0 1-24-19c-3-7-4-10-4-21 0-10 1-13 5-20 5-9 13-16 22-19 9-3 227-3 236 0 9 3 17 10 22 19 4 7 5 10 5 20 0 11-1 14-5 21a43 43 0 0 1-24 19c-11 3-223 3-233 0m476-46c12-5 25-18 31-31 4-9 5-12 5-25s-1-17-5-25c-6-13-19-26-32-32-8-4-12-5-25-5s-16 1-25 5a70 70 0 0 0-32 32c-4 8-4 12-4 25 0 13 0 16 4 25 8 17 26 32 44 36 11 2 29 0 39-5" horiz-adv-x="1000" />

<glyph glyph-name="article" unicode="&#xe81a;" d="M188 723c-47-8-85-42-100-88l-4-12v-545l4-13a129 129 0 0 1 85-85l13-4h628l13 4a129 129 0 0 1 85 85l4 13v545l-4 12a129 129 0 0 1-84 85l-14 4-309 0c-170 1-313 0-317-1m617-84c11-3 22-14 26-26 2-7 2-40 2-263 0-211 0-256-2-262a43 43 0 0 0-19-24l-8-5h-608l-8 5a44 44 0 0 0-19 23c-4 11-3 513 0 526 4 11 15 23 26 26 12 4 597 4 610 0m-526-83a43 43 0 0 1-24-19l-4-8v-191l5-8c5-9 13-16 22-19 9-3 185-3 194 0 9 3 17 10 23 19l4 8v191l-4 8a43 43 0 0 1-25 19c-10 3-181 3-191 0m333 0a43 43 0 0 1-23-19c-4-7-5-10-5-20 0-11 1-14 5-21 5-9 13-15 22-19 9-3 102-3 111 0 9 4 17 10 23 19 4 7 4 10 4 21 0 10 0 13-4 20a43 43 0 0 1-25 19c-10 3-98 3-108 0m-195-123v-41h-84v83h84v-42m195-44a43 43 0 0 1-23-19c-4-6-5-9-5-20 0-11 1-14 5-20 5-9 13-16 22-19 9-3 102-3 111 0 9 3 17 10 23 19 4 6 4 9 4 20 0 11 0 14-4 20a43 43 0 0 1-25 19c-10 4-98 4-108 0m-333-166a43 43 0 0 1-24-19c-3-7-4-10-4-21 0-10 1-13 5-20 5-9 13-16 22-19 9-3 435-3 444 0 9 3 17 10 23 19 4 7 4 10 4 20 0 11 0 14-4 21a43 43 0 0 1-25 19c-10 3-431 3-441 0" horiz-adv-x="1000" />

<glyph glyph-name="atom-2" unicode="&#xe81b;" d="M461 723c-57-6-119-28-168-61a374 374 0 0 1-167-326 361 361 0 0 1 30-135l6-14-5-8c-11-18-17-40-17-65 0-36 11-61 37-87 26-26 51-37 87-37 37 0 65 12 91 39 11 11 13 15 20 26 19 35 19 86-1 120-12 21-34 42-55 52-19 9-35 12-60 11-12-1-23-1-25-2-2 0-4 3-9 18-34 98-14 204 53 285 42 50 105 86 173 99 13 2 25 3 57 3 39 0 42 0 48 4a42 42 0 0 1 13 62c-7 10-18 15-37 16a426 426 0 0 1-71 0m246-16c-23-4-50-21-68-42-27-32-36-80-21-120a128 128 0 0 1 77-77c21-8 37-9 71-4 2 0 4-3 9-18a295 295 0 0 0 5-177c-18-62-57-118-111-156-17-13-55-32-76-40a382 382 0 0 0-36-9c-20-4-24-5-64-5-46 0-46 0-58-10-11-10-16-28-11-44 4-11 15-22 26-26 13-4 59-5 86-3 198 21 346 190 338 388a352 352 0 0 1-28 131l-8 18 5 8c12 20 17 40 17 65 0 36-11 62-37 87-13 14-18 18-31 24a143 143 0 0 1-28 11c-14 3-43 3-57-1m46-83a42 42 0 0 0 19-57c-15-29-53-30-71-4-4 6-5 10-6 19 0 13 2 20 8 29 10 14 34 20 50 13m-274-151a127 127 0 0 1-99-88c-6-18-6-52 0-70a129 129 0 0 1 85-85c11-4 16-4 36-4 20 0 25 1 36 4a129 129 0 0 1 83 83c3 11 4 16 4 36 0 20 0 25-4 36-12 41-45 73-84 85-15 4-43 6-57 3m34-84c16-4 29-22 29-39 0-14-9-29-22-36-6-4-9-5-20-5s-14 1-20 5c-24 14-29 45-9 65 12 12 26 15 42 10m-226-240c11-8 17-17 18-31 1-19-7-33-22-40a41 41 0 0 0-60 36c0 17 8 30 22 37 8 4 11 4 22 4 10-1 13-2 20-6" horiz-adv-x="1000" />

<glyph glyph-name="attachment" unicode="&#xe81c;" d="M392 765c-69-8-131-52-162-114a224 224 0 0 1-18-53c-3-13-3-26-3-207 0-152 1-196 2-208 20-128 117-226 247-247 17-2 67-2 85 0 129 21 226 119 246 247 1 12 2 62 2 243v228l-5 8a42 42 0 0 1-72 0l-5-8-1-228c0-151-1-231-3-237-5-25-11-42-22-62-29-55-80-93-143-106-20-5-60-5-80 0a210 210 0 0 0-162 152c-6 26-6 42-6 229l1 179 4 13a128 128 0 0 0 84 84c11 4 17 4 36 4 19 0 24 0 36-4a128 128 0 0 0 84-84l4-13 0-158c1-110 0-160-1-166a43 43 0 0 0-20-27c-6-3-9-4-20-4-11 0-14 1-20 4a48 48 0 0 0-19 21c-1 4-2 33-3 121l0 116-5 7a43 43 0 0 1-27 20 42 42 0 0 1-46-20l-4-7v-244l4-12a129 129 0 0 1 85-86c18-5 52-5 70 0a129 129 0 0 1 85 86l4 12v170c0 158 0 171-3 184-14 65-54 118-112 147a207 207 0 0 1-117 20" horiz-adv-x="1000" />

<glyph glyph-name="award" unicode="&#xe81d;" d="M467 807c-100-10-191-66-248-152-26-41-45-95-51-145-9-86 18-177 73-244l9-12v-128c0-140 0-138 10-158 2-5 9-14 14-19 25-25 62-32 92-18 5 2 36 20 70 40 34 21 63 37 64 37 1 0 30-16 63-36 34-21 66-39 71-41a80 80 0 0 1 45-6 84 84 0 0 1 69 62c2 9 2 29 2 139v128l10 12a333 333 0 0 1 40 354 327 327 0 0 1-87 111c-68 57-157 84-246 76m57-84a250 250 0 0 0 212-167c21-61 17-133-11-188-35-73-98-121-177-138-25-6-71-6-96 0-79 17-141 65-177 138-28 55-32 127-11 188a246 246 0 0 0 58 94 247 247 0 0 0 202 73m-169-548a331 331 0 0 1 290 0c11 6 21 10 21 10 0 0 1-40 1-89v-89l-62 37c-33 20-65 39-71 41a83 83 0 0 1-68 0c-6-2-38-21-71-41l-62-37v89c0 49 1 89 1 89 0 0 10-4 21-10" horiz-adv-x="1000" />

<glyph glyph-name="back-circle" unicode="&#xe81e;" d="M470 807l-23-2a445 445 0 0 1-148-43c-47-23-83-49-122-89-40-40-67-76-90-124-74-156-57-336 47-475 20-27 64-70 91-91 165-122 386-122 552 2 25 19 70 63 88 89 124 166 124 387 0 553-18 25-63 69-88 88-67 50-137 78-218 89-17 3-77 5-89 3m85-86c107-16 200-76 260-168 13-19 31-56 39-79 14-41 20-77 20-124 0-62-11-109-37-164-30-61-74-111-132-150-33-22-85-44-125-53a377 377 0 0 0-315 75c-63 50-110 124-129 202-8 32-10 53-10 90 0 62 11 109 37 164a374 374 0 0 0 219 192c29 9 53 14 91 18 13 1 65-1 82-3m-234-165a43 43 0 0 1-24-19l-4-8v-358l5-9a42 42 0 0 1 71 0l5 9 1 65 1 66 134-77c74-43 138-79 143-80 21-9 45 3 53 25 2 5 2 39 2 179 0 195 1 184-12 197a39 39 0 0 1-41 10c-5-1-69-37-143-80l-136-78-1 66-1 65-4 8a42 42 0 0 1-49 19m304-253l-1-47-82 46c-45 26-82 48-82 48 0 1 37 22 82 48l82 46 1-47c0-26 0-68 0-94" horiz-adv-x="1000" />

<glyph glyph-name="backward-circle" unicode="&#xe81f;" d="M470 807l-23-2a445 445 0 0 1-148-43c-47-23-83-49-122-89-40-40-67-76-90-124-74-156-57-336 47-475 20-27 64-70 91-91 165-122 386-122 552 2 25 19 70 63 88 89 124 166 124 387 0 553-18 25-63 69-88 88-67 50-137 78-218 89-17 3-77 5-89 3m85-86c107-16 200-76 260-168 13-19 31-56 39-79 14-41 20-77 20-124 0-62-11-109-37-164-30-61-74-111-132-150-33-22-85-44-125-53a377 377 0 0 0-315 75c-63 50-110 124-129 202-8 32-10 53-10 90 0 62 11 109 37 164a374 374 0 0 0 219 192c29 9 53 14 91 18 13 1 65-1 82-3m-108-206c-9-3-220-130-227-137-16-16-14-46 3-60 8-6 216-130 222-132 14-5 32-1 43 10 11 11 12 17 12 64 0 22 1 40 1 40 1 0 43-25 95-56 51-31 96-57 99-58 14-5 32-1 43 10 13 13 12 6 12 158l-1 134-4 7a42 42 0 0 1-45 20c-6-1-35-17-104-59l-96-57 0 44-1 45-4 7a42 42 0 0 1-48 20m-30-165v-51l-43 25c-23 14-42 26-42 26 0 1 82 51 84 52 1 0 1-23 1-52m250 0v-51l-43 25c-23 14-42 26-42 26 0 1 82 51 84 52 1 0 1-23 1-52" horiz-adv-x="1000" />

<glyph glyph-name="backward-start-circle" unicode="&#xe820;" d="M470 807l-23-2a445 445 0 0 1-148-43c-47-23-83-49-122-89-40-40-67-76-90-124-74-156-57-336 47-475 20-27 64-70 91-91 165-122 386-122 552 2 25 19 70 63 88 89 124 166 124 387 0 553-18 25-63 69-88 88-67 50-137 78-218 89-17 3-77 5-89 3m85-86c107-16 200-76 260-168 13-19 31-56 39-79 14-41 20-77 20-124 0-62-11-109-37-164-30-61-74-111-132-150-33-22-85-44-125-53a377 377 0 0 0-315 75c-63 50-110 124-129 202-8 32-10 53-10 90 0 62 11 109 37 164a374 374 0 0 0 219 192c29 9 53 14 91 18 13 1 65-1 82-3m-276-207a43 43 0 0 1-24-19l-4-7v-276l5-8a42 42 0 0 1 72 0l5 8 0 32c0 17 1 31 2 31 0 0 33-20 73-44 40-24 76-44 79-45 14-5 31-1 42 10 11 11 13 18 13 51 0 15 0 28 1 28 0 0 33-20 73-44 40-24 76-44 79-45 14-5 32-1 43 10 13 13 12 6 12 158l-1 134-4 7a42 42 0 0 1-45 20c-6-1-30-14-83-46l-75-45-1 32c0 31 0 32-5 39a42 42 0 0 1-44 20c-7-1-30-14-84-46l-74-45-1 32c0 31-1 32-5 39a42 42 0 0 1-49 19m179-164v-51l-42 25c-23 14-42 26-42 26 0 1 82 51 84 52 0 0 0-23 0-52m209 0v-51l-43 25c-23 14-42 26-42 26 0 1 82 51 84 52 1 0 1-23 1-52" horiz-adv-x="1000" />

<glyph glyph-name="band-aids" unicode="&#xe821;" d="M312 728c-50-9-92-31-127-66-29-30-48-65-59-108-6-22-8-65-4-88 7-36 22-73 41-99l10-13-9-11c-17-23-31-54-39-86-3-14-4-20-4-49 0-36 2-48 12-77 26-75 91-132 170-149 20-4 70-4 90 0 34 7 69 23 95 43l8 6 12-9c23-17 53-31 85-39 14-3 20-4 49-4 25 0 35 1 46 3a232 232 0 0 1 180 180c2 11 3 21 3 46 0 29-1 35-4 49-8 32-22 63-39 86l-9 11 6 9c20 25 36 60 43 94 4 20 4 70 0 90-21 96-97 167-195 181-18 3-59 2-76-2-33-7-68-23-93-42l-8-7-13 10a245 245 0 0 1-88 39c-17 4-66 5-83 2m63-83a139 139 0 0 0 62-28c15-12 322-320 328-330 17-26 23-48 23-81a145 145 0 0 0-100-138c-13-4-19-5-37-6-36-1-60 5-88 23-10 6-318 313-330 328a139 139 0 0 0-28 62 195 195 0 0 0 1 56c10 55 57 102 112 113 14 3 43 3 57 1m293 0a157 157 0 0 0 63-27 148 148 0 0 0 56-93c2-15 1-47-3-61-2-10-17-40-21-46-3-4-8 1-105 98a8744 8744 0 0 0-101 102c0 2 18 12 31 18 7 3 18 7 25 8 13 3 40 3 55 1m-191-166c-28-14-30-55-3-71a41 41 0 0 1 62 43c-5 27-34 40-59 28m-88-88c-35-18-28-69 10-77 35-8 62 31 43 63-7 11-18 17-33 18-10 0-13 0-20-4m176 0c-20-10-28-34-17-55 17-35 69-28 77 10 7 33-29 60-60 45m-88-89c-34-18-27-69 11-77 35-7 62 32 42 63-7 12-18 18-32 18-11 1-13 0-21-4m-143-110c97-97 102-102 99-104-7-5-37-19-47-22-14-4-47-5-62-3a146 146 0 0 0-113 97 147 147 0 0 0 3 102c6 13 16 31 18 31 0 0 46-45 102-101" horiz-adv-x="1000" />

<glyph glyph-name="barcode-2" unicode="&#xe822;" d="M132 640c-17-4-35-18-43-36l-5-10v-488l5-10c6-13 19-26 32-32 8-4 12-5 25-5s16 1 25 5c13 6 26 19 32 32l5 10v488l-5 10a70 70 0 0 1-31 32 75 75 0 0 1-40 4m147-1a43 43 0 0 1-24-19l-4-7v-526l5-8a42 42 0 0 1 72 0l5 8v526l-5 7a42 42 0 0 1-49 19m145 1c-18-4-35-18-43-36l-5-10v-488l5-10c6-13 19-26 31-32 9-4 13-5 26-5s16 1 25 5c13 6 25 19 32 32l4 10v488l-4 10a70 70 0 0 1-32 32 75 75 0 0 1-39 4m147-1a43 43 0 0 1-24-19l-4-7v-526l5-8a42 42 0 0 1 71 0l5 8v526l-4 7a42 42 0 0 1-49 19m145 1c-18-4-36-18-44-36l-4-10v-488l4-10c6-13 19-26 32-32 9-4 12-5 25-5s17 1 25 5c13 6 26 19 32 32l5 10v488l-5 10a70 70 0 0 1-31 32 75 75 0 0 1-39 4m146-1a43 43 0 0 1-23-19l-5-7v-526l5-8a42 42 0 0 1 72 0l5 8v526l-5 7a42 42 0 0 1-49 19" horiz-adv-x="1000" />

<glyph glyph-name="basket-2" unicode="&#xe823;" d="M476 724c-29-3-56-11-78-23-45-24-77-62-94-113-9-29-11-39-12-78l-1-35h-85c-93 0-95 0-107-9a43 43 0 0 1-14-44c4-15 19-28 35-30 7-1 9-1 9-4 1-2 9-88 19-190 11-108 20-190 21-194 4-11 10-18 19-24l8-4h608l8 4a41 41 0 0 1 19 24c1 4 10 86 21 194 10 102 19 188 19 190 1 3 2 3 9 4 16 2 31 15 35 30a43 43 0 0 1-14 44c-12 9-14 9-107 9h-85l-1 35c-1 39-3 49-12 78-24 71-76 117-148 132-17 4-56 6-72 4m63-87a107 107 0 0 0 70-57c12-24 15-37 16-74l0-31h-250l0 31c1 37 4 50 16 74 16 33 46 54 85 60 15 2 48 1 63-3m248-247c0-4-32-324-33-328l-1-4h-506l-1 4c-1 4-33 324-33 328 0 3 574 3 574 0m-425-84a43 43 0 0 1-23-19l-5-8v-108l5-9a42 42 0 0 1 72 0l5 9v108l-5 8a42 42 0 0 1-49 19m125 0a43 43 0 0 1-23-19l-5-8v-108l5-9a42 42 0 0 1 72 0l5 9v108l-5 8a42 42 0 0 1-49 19m125 0a43 43 0 0 1-23-19l-5-8v-108l5-9a42 42 0 0 1 72 0l5 9v108l-5 8a42 42 0 0 1-49 19" horiz-adv-x="1000" />

<glyph glyph-name="bath-shower" unicode="&#xe824;" d="M725 723a160 160 0 0 1-54-16 137 137 0 0 1-50-40 153 153 0 0 1-27-51l-5-15-29-1c-17-1-31-2-34-3a47 47 0 0 1-21-18c-3-7-4-10-4-21 0-10 1-13 5-20 5-9 13-16 22-19 9-3 185-3 194 0 9 3 17 10 23 19 4 7 4 10 4 20 0 11 0 14-4 21-10 16-22 21-50 21h-18l4 7c15 27 53 40 91 32 23-5 41-18 51-40 10-19 10-26 10-122v-85h-356c-297 0-358-1-364-3a43 43 0 0 1-24-19c-4-6-5-9-5-20 0-11 1-14 5-21 6-10 18-18 29-20l7-1v-29c0-45 6-74 22-108 19-38 44-66 79-87 2-1 2-4-8-31-5-17-10-33-10-36 0-15 9-29 22-37 11-6 27-6 39 0 13 7 18 14 29 49l11 30h382l11-30c12-35 16-42 29-49 12-6 28-6 39 0 13 8 22 22 22 37 0 3-5 19-10 36a492 492 0 0 0-10 30c0 0 6 4 13 8 28 18 51 46 68 80 17 35 22 62 22 114l0 34 6 4c9 6 22 21 27 30 9 18 9 21 9 123 0 105-1 111-11 141-10 29-28 56-50 73-13 10-39 24-56 28a203 203 0 0 1-75 5m67-438c0-29-3-47-8-63-8-20-16-35-30-49-15-14-28-21-49-27l-14-3h-383l-14 3c-21 7-33 13-47 27-14 14-23 29-31 49-5 16-8 34-8 63v23h584v-23" horiz-adv-x="1000" />

<glyph glyph-name="battery-full" unicode="&#xe825;" d="M188 640c-47-8-85-42-100-88l-4-13v-378l4-13a129 129 0 0 1 85-85l13-4h545l12 4a129 129 0 0 1 85 85c4 10 4 16 5 47l1 36 13 7a129 129 0 0 1 65 77c6 18 6 52 0 70a129 129 0 0 1-65 77l-13 7-1 36c-1 31-1 37-5 48a129 129 0 0 1-84 84l-13 4-268 0c-147 0-271 0-275-1m533-84c12-4 23-15 27-26 2-8 2-32 2-180 0-186 0-180-9-192-3-4-8-8-12-11l-8-4h-525l-8 4a44 44 0 0 0-19 23c-4 11-3 347 0 360 4 11 15 22 26 26 12 3 514 4 526 0m-442-83a43 43 0 0 1-24-19l-4-8v-192l5-8c3-5 8-11 13-14 20-13 46-7 59 14l5 8v192l-5 8a42 42 0 0 1-49 19m167 0a43 43 0 0 1-24-19l-4-8v-192l5-8c2-5 8-11 13-14 19-13 45-7 58 14l5 8v192l-4 8a42 42 0 0 1-49 19m166 0a43 43 0 0 1-23-19l-5-8v-192l5-8c3-5 9-11 13-14 20-13 46-7 59 14l5 8v192l-5 8a42 42 0 0 1-49 19" horiz-adv-x="1000" />

<glyph glyph-name="battery-half" unicode="&#xe826;" d="M188 640c-47-8-85-42-100-88l-4-13v-378l4-13a129 129 0 0 1 85-85l13-4h545l12 4a129 129 0 0 1 85 85c4 10 4 16 5 47l1 36 13 7a129 129 0 0 1 65 77c6 18 6 52 0 70a129 129 0 0 1-65 77l-13 7-1 36c-1 31-1 37-5 48a129 129 0 0 1-84 84l-13 4-268 0c-147 0-271 0-275-1m533-84c12-4 23-15 27-26 2-8 2-32 2-180 0-186 0-180-9-192-3-4-8-8-12-11l-8-4h-525l-8 4a44 44 0 0 0-19 23c-4 11-3 347 0 360 4 11 15 22 26 26 12 3 514 4 526 0m-442-83a43 43 0 0 1-24-19l-4-8v-192l5-8c3-5 8-11 13-14 20-13 46-7 59 14l5 8v192l-5 8a42 42 0 0 1-49 19m167 0a43 43 0 0 1-24-19l-4-8v-192l5-8c2-5 8-11 13-14 19-13 45-7 58 14l5 8v192l-4 8a42 42 0 0 1-49 19" horiz-adv-x="1000" />

<glyph glyph-name="battery-low" unicode="&#xe827;" d="M188 640c-47-8-85-42-100-88l-4-13v-378l4-13a129 129 0 0 1 85-85l13-4h545l12 4a129 129 0 0 1 85 85c4 10 4 16 5 47l1 36 13 7a129 129 0 0 1 65 77c6 18 6 52 0 70a129 129 0 0 1-65 77l-13 7-1 36c-1 31-1 37-5 48a129 129 0 0 1-84 84l-13 4-268 0c-147 0-271 0-275-1m533-84c12-4 23-15 27-26 2-8 2-32 2-180 0-186 0-180-9-192-3-4-8-8-12-11l-8-4h-525l-8 4a44 44 0 0 0-19 23c-4 11-3 347 0 360 4 11 15 22 26 26 12 3 514 4 526 0m-442-83a43 43 0 0 1-24-19l-4-8v-192l5-8c3-5 8-11 13-14 20-13 46-7 59 14l5 8v192l-5 8a42 42 0 0 1-49 19" horiz-adv-x="1000" />

<glyph glyph-name="battery" unicode="&#xe828;" d="M188 640c-47-8-85-42-100-88l-4-13v-378l4-13a129 129 0 0 1 85-85l13-4h545l12 4a129 129 0 0 1 85 85c4 10 4 16 5 47l1 36 13 7a129 129 0 0 1 65 77c6 18 6 52 0 70a129 129 0 0 1-65 77l-13 7-1 36c-1 31-1 37-5 48a129 129 0 0 1-84 84l-13 4-268 0c-147 0-271 0-275-1m533-84c12-4 23-15 27-26 2-8 2-32 2-180 0-186 0-180-9-192-3-4-8-8-12-11l-8-4h-525l-8 4a44 44 0 0 0-19 23c-4 11-3 347 0 360 4 11 15 22 26 26 12 3 514 4 526 0" horiz-adv-x="1000" />

<glyph glyph-name="beach" unicode="&#xe829;" d="M551 766c-55-9-99-30-134-66-19-18-37-43-40-55-4-14 0-30 10-40 3-3 43-27 97-58 50-29 91-53 91-54 0-1-23-41-51-90a6548 6548 0 0 1-52-92c-2-3-4-4-18-6-71-8-144-40-195-84-15-13-19-21-20-34a41 41 0 0 1 36-45c13-1 22 2 37 15 63 50 136 73 211 67 63-6 114-27 165-67 15-13 24-16 37-15 32 4 48 41 29 66-5 7-31 27-51 40-33 22-85 44-123 52a115 115 0 0 0-16 4c-1 1 84 146 85 146 1 0 43-23 93-52 50-29 94-54 98-55 19-5 38 5 50 27 25 47 32 106 18 161-13 55-47 110-91 151a400 400 0 0 1-20 17l-4 2 4 9c6 16 2 33-9 44-18 18-48 16-62-4-3-4-6-6-8-5a451 451 0 0 1-60 18c-18 3-25 4-56 5-26 0-40 0-51-2m66-86a321 321 0 0 1-60-61l-10-12c0-1-59 33-64 37-3 2-3 3 6 10 17 13 42 24 68 28 7 2 24 3 39 3l27 0-6-5m91-62a175 175 0 0 0-5-53c-4-13-13-38-14-39-1-1-66 36-69 38-1 1 19 25 30 35 15 15 47 34 54 34 2 0 3-5 4-15m95-49c10-16 19-38 24-56 6-21 6-68 1-68-1 0-55 31-64 37-2 1-1 4 4 17 12 29 19 56 21 77 2 13 1 13 14-7m-327-478c-32-6-56-20-79-46-15-16-23-21-38-21a53 53 0 0 0-16 3c-4 2-14 11-24 21-29 29-52 40-87 42-30 1-51-5-74-20-14-9-24-19-50-50-21-26-23-29-24-41-2-16 6-32 21-40 6-4 9-5 19-5 19 0 24 3 51 36 27 32 33 37 51 37 14 0 24-6 35-19a125 125 0 0 1 98-47c39 0 68 14 98 46 16 18 25 22 43 22 18 0 27-4 43-22 29-31 59-46 96-46 40 0 74 16 100 47 11 13 21 19 35 19 18 0 24-5 51-37 27-33 32-36 51-36 10 0 13 1 19 5a41 41 0 0 1 19 23c4 9 3 23-1 31-3 6-36 46-49 59-40 41-103 50-153 21-8-4-18-13-30-25-20-21-25-24-40-24s-20 3-40 24c-13 13-22 20-32 26a135 135 0 0 1-93 17" horiz-adv-x="1000" />

<glyph glyph-name="bell" unicode="&#xe82a;" d="M487 764a43 43 0 0 1-23-19c-5-7-5-8-5-36l-1-29-6-1c-108-18-193-85-225-176-16-46-19-68-19-175v-85l-36-37c-21-20-39-40-42-44-3-7-4-10-4-20s1-14 4-20c3-5 8-10 11-13 12-9 12-9 106-9h86l1-13c4-49 29-96 64-122 58-43 146-43 204 0 35 26 60 73 64 122l1 13h86c94 0 94 0 106 9 4 3 8 8 11 13 4 6 4 9 4 20 0 9-1 14-3 18-2 3-20 23-41 44l-38 39-1 92c-1 98-1 98-9 131-26 100-87 170-176 200-20 7-50 14-59 14h-5l-1 29c0 28 0 29-5 36a42 42 0 0 1-49 19m59-168c63-10 112-47 139-105 7-16 14-34 19-55 3-14 3-20 4-118 1-117 0-109 15-125l9-10h-464l9 10c15 16 14 8 15 125 1 114 1 120 11 150 19 58 63 100 127 120a313 313 0 0 0 48 11c11 1 53-1 68-3m37-498c0-8-5-30-10-39-10-21-25-33-47-39-33-8-67-1-86 20-11 12-20 31-22 50l-2 10h84c71 0 83 0 83-2" horiz-adv-x="1000" />

<glyph glyph-name="bitcoin-circle" unicode="&#xe82b;" d="M470 807l-23-2c-63-7-128-29-184-63-59-36-115-91-152-149a581 581 0 0 1-40-82c-44-119-38-246 16-360 23-48 50-84 90-124 40-41 76-67 124-90 156-75 336-57 476 48 25 19 70 63 88 89 124 166 124 387 1 552-19 26-64 70-89 89-67 50-137 78-218 89-17 3-77 5-89 3m85-86c107-16 200-76 260-168 13-19 31-56 39-79 14-41 20-77 20-124 0-37-2-58-10-90-22-90-79-170-157-223-34-23-86-45-127-54a377 377 0 0 0-315 75c-63 50-110 124-129 202-8 32-10 53-10 90 0 62 11 109 37 164a374 374 0 0 0 219 192c29 9 53 14 91 18 13 1 65-1 82-3m-151-82a43 43 0 0 1-24-19c-4-7-4-9-5-35l0-27h-23c-33 0-45-4-55-21-4-7-4-10-4-20 0-11 0-14 4-21 5-9 13-15 23-19 4-1 14-2 30-2l25 0v-250h-23c-33 0-45-5-55-21-4-7-4-10-4-21 0-10 0-13 4-20 5-9 13-16 23-19 4-1 14-2 30-2l25 0 0-27c1-27 1-28 6-36a42 42 0 0 1 72 0c5 8 5 9 5 36l1 27h41l0-27c1-27 1-28 6-36a42 42 0 0 1 72 0c5 8 5 9 5 35l1 27 15 2a125 125 0 0 1 75 36c19 19 29 39 33 66 2 15 1 44-3 58a142 142 0 0 1-19 40l-5 7 7 10c15 22 20 41 20 73 0 27-2 37-10 57-16 35-55 62-98 67l-15 2-1 27c0 25-1 27-5 34a42 42 0 0 1-73 0c-4-7-4-9-5-35l0-27h-41l-1 27c0 26-1 28-5 35a42 42 0 0 1-49 19m193-166a38 38 0 0 0 23-18c3-6 4-10 4-22 0-16-3-25-13-32-11-9-16-9-87-9h-66v83h66c52 0 67 0 73-2m0-167a38 38 0 0 0 23-18c3-6 4-10 4-21 0-17-3-26-13-33-11-8-16-9-87-9h-66v83h66c52 0 67 0 73-2" horiz-adv-x="1000" />

<glyph glyph-name="bluetooth" unicode="&#xe82c;" d="M487 723a42 42 0 0 1-23-19l-5-8 0-130-1-129-71 57c-39 31-73 58-76 60-12 7-32 5-44-4a50 50 0 0 1-11-13c-4-7-5-10-5-20 0-21-3-19 95-97 47-38 86-69 86-70 0-1-39-32-86-70-98-78-95-75-95-97 0-10 1-13 5-20 5-9 15-17 25-20 9-2 23-1 30 3 3 2 37 29 76 61l71 56 0-127c1-101 1-128 3-133 3-9 10-17 19-23 10-6 29-6 39-1 3 2 54 43 114 91 122 97 116 92 116 114 0 20 2 19-95 96-47 38-86 69-86 70 0 1 39 32 86 70 97 78 95 76 95 96 0 22 6 17-116 114-60 48-111 89-114 90-7 5-23 6-32 3m153-206c0-1-22-19-49-41l-49-39v160l49-40c27-21 49-40 49-40m0-334c0 0-22-19-49-40l-49-40v160l49-39c27-22 49-40 49-41" horiz-adv-x="1000" />

<glyph glyph-name="bold" unicode="&#xe82d;" d="M237 639a43 43 0 0 1-23-19l-5-7v-525l5-8c5-9 13-16 22-19 5-2 44-2 205-3 193 0 200 1 216 4 56 11 101 48 122 101 33 82-3 174-83 212l-16 8 5 8c14 21 23 57 23 84 0 28-9 62-24 86-24 41-69 71-117 78-22 4-319 4-330 0m327-84a84 84 0 0 0 52-117c-6-13-23-31-36-37-18-9-16-9-158-9h-130v166l130 0c118 0 132 0 142-3m83-250a84 84 0 0 0 53-117c-7-13-24-31-36-37-19-10-13-9-200-9h-172v166l172 0c157 0 173 0 183-3" horiz-adv-x="1000" />

<glyph glyph-name="book-minus" unicode="&#xe82e;" d="M229 765c-46-8-85-42-99-88l-4-13v-628l4-13c12-40 43-71 84-85l12-4 139 0c93-1 142 0 146 1 10 2 20 10 25 19 4 7 5 10 5 21 0 11-1 14-5 20a48 48 0 0 1-20 19c-4 1-37 2-142 3l-136 1-8 4a50 50 0 0 0-12 10c-10 14-10-7-10 317 0 334-1 308 13 322 10 10 19 12 48 12h23l0-170c0-138 0-172 2-177a42 42 0 0 1 53-25c8 3 13 7 60 54l51 51 51-50c28-28 53-52 56-54 4-2 10-3 18-3 11 0 14 1 21 5 4 2 9 7 12 10 9 13 9 5 9 190v169h65c74 0 77 0 88-11 14-13 13 0 14-177l1-158 5-8a42 42 0 0 1 71 0l5 8v327l-4 13a129 129 0 0 1-84 85l-13 4-268 0c-147 0-271 0-276-1m313-198v-116l-31 30c-32 32-38 36-53 36s-20-4-53-36l-30-30v232h167v-116m112-469a43 43 0 0 1-24-19c-3-7-4-10-4-21 0-10 1-13 5-20 5-9 13-16 22-19 9-3 268-3 277 0 10 3 18 10 23 19 4 7 5 10 5 20 0 11-1 14-5 21a43 43 0 0 1-24 19c-11 3-265 3-275 0" horiz-adv-x="1000" />

<glyph glyph-name="book-open" unicode="&#xe82f;" d="M273 682a327 327 0 0 1-145-53c-26-18-35-26-40-35l-4-8 0-267c0-174 0-268 1-272 4-15 19-28 35-30 13-1 22 2 40 16 51 37 100 53 156 50 52-3 103-20 150-52 30-19 38-19 68 0 35 23 71 39 109 47 72 14 135 0 196-44 9-7 20-14 24-15 21-7 46 6 52 28 1 4 2 98 1 272l0 267-4 8c-5 9-14 17-40 35-94 63-208 71-319 24-19-8-40-19-48-25-5-3-5-3-10 0-22 16-73 37-110 45-34 9-82 12-112 9m75-86a308 308 0 0 0 94-33l16-9 0-211c0-169 0-211-2-211-48 22-91 32-138 34-47 2-98-7-138-25a217 217 0 0 0-13-6c0 0 0 94 0 210v210l12 7c44 28 84 39 133 37 12 0 28-2 36-3m373 2c37-4 66-15 100-36l12-7v-210c0-116 0-210 0-210s-6 3-13 6c-40 18-91 27-137 25-48-2-90-12-139-34-2 0-2 42-2 211l1 211 15 9c50 28 112 41 163 35" horiz-adv-x="1000" />

<glyph glyph-name="book-plus" unicode="&#xe830;" d="M229 765c-46-8-85-42-99-88l-4-13v-628l4-13c12-40 43-71 84-85l12-4 139 0c93-1 142 0 146 1 10 2 20 10 25 19 4 7 5 10 5 21 0 11-1 14-5 20a48 48 0 0 1-20 19c-4 1-37 2-142 3l-136 1-8 4a50 50 0 0 0-12 10c-10 14-10-7-10 317 0 334-1 308 13 322 10 10 19 12 48 12h23l0-170c0-138 0-172 2-177a42 42 0 0 1 53-25c8 3 13 7 60 54l51 51 51-50c28-28 53-52 56-54 4-2 10-3 18-3 11 0 14 1 21 5 4 2 9 7 12 10 9 13 9 5 9 190v169h65c74 0 77 0 88-11 14-13 13 0 14-177l1-158 5-8a42 42 0 0 1 71 0l5 8v327l-4 13a129 129 0 0 1-84 85l-13 4-268 0c-147 0-271 0-276-1m313-198v-116l-31 30c-32 32-38 36-53 36s-20-4-53-36l-30-30v232h167v-116m237-344a43 43 0 0 1-24-19l-4-8-1-48 0-48h-44c-48 0-54-1-65-9-3-3-8-8-11-12-3-7-4-10-4-21 0-10 1-13 5-20 2-4 7-10 10-12 11-9 15-9 64-9l45 0 0-48 1-49 5-8a42 42 0 0 1 72 0l5 8 0 49 1 48 45 0c49 0 53 0 64 9 3 2 7 8 10 12 4 7 5 10 5 20 0 11-1 14-5 21a50 50 0 0 1-11 12c-10 8-17 9-65 9h-43l-1 48 0 48-5 8a42 42 0 0 1-49 19" horiz-adv-x="1000" />

<glyph glyph-name="book" unicode="&#xe831;" d="M229 765c-46-8-85-42-99-88l-4-13v-628l4-13a129 129 0 0 1 85-85l13-4h545l12 4a129 129 0 0 1 85 85l4 13v628l-4 13a129 129 0 0 1-84 85l-13 4-268 0c-147 0-271 0-276-1m63-252c0-138 0-172 2-177a42 42 0 0 1 53-25c8 3 13 7 60 54l51 51 51-50c28-28 53-52 56-54 4-2 10-3 18-3 11 0 14 1 21 5 4 2 9 7 12 10 9 13 9 5 9 190v169h65c75 0 77 0 89-12 14-14 13 12 13-321 0-246-1-297-3-304a43 43 0 0 0-19-24l-7-4h-525l-8 4a50 50 0 0 0-12 10c-10 14-10-7-10 317 0 334-1 308 13 322 10 10 18 12 47 12l24 0 0-170m250 54v-116l-31 30c-32 32-38 36-53 36s-20-4-53-36l-30-30v232h167v-116" horiz-adv-x="1000" />

<glyph glyph-name="bookmark-minus" unicode="&#xe832;" d="M271 765c-47-8-85-42-100-88l-3-13v-668l4-10c6-13 18-25 31-31 10-5 13-6 26-6 13 0 17 1 24 4 5 3 57 32 115 65 57 33 109 62 114 64a36 36 0 0 0 18 5c7 0 12-1 19-5 5-2 56-31 114-64 57-33 109-62 114-65 7-3 11-4 24-4 13 0 16 1 24 5 14 6 26 17 32 31l6 11v668l-4 13a129 129 0 0 1-85 85l-13 4-226 0c-124 0-230 0-234-1m450-84a42 42 0 0 0 27-26c2-8 2-46 2-308l-1-300-90 52c-100 57-115 65-132 69a149 149 0 0 1-54 0c-17-4-32-12-132-69l-90-52-1 300c0 336-1 310 13 324 13 13-3 12 236 12 187 0 215 0 222-2m-359-208a43 43 0 0 1-23-19c-4-7-5-10-5-21 0-10 1-13 5-20 5-9 13-16 22-19 10-3 269-3 278 0 9 3 17 10 22 19 4 7 5 10 5 20 0 11-1 14-5 21a43 43 0 0 1-24 19c-11 3-264 3-275 0" horiz-adv-x="1000" />

<glyph glyph-name="bookmark-plus" unicode="&#xe833;" d="M271 765c-47-8-85-42-100-88l-3-13v-668l4-10c6-13 18-25 31-31 10-5 13-6 26-6 13 0 17 1 24 4 5 3 57 32 115 65 57 33 109 62 114 64a36 36 0 0 0 18 5c7 0 12-1 19-5 5-2 56-31 114-64 57-33 109-62 114-65 7-3 11-4 24-4 13 0 16 1 24 5 14 6 26 17 32 31l6 11v668l-4 13a129 129 0 0 1-85 85l-13 4-226 0c-124 0-230 0-234-1m450-84a42 42 0 0 0 27-26c2-8 2-46 2-308l-1-300-90 52c-100 57-115 65-132 69a149 149 0 0 1-54 0c-17-4-32-12-132-69l-90-52-1 300c0 336-1 310 13 324 13 13-3 12 236 12 187 0 215 0 222-2m-234-83a43 43 0 0 1-23-19l-5-8 0-48-1-48h-44c-47 0-54-1-65-9-3-3-8-8-10-12-4-7-5-10-5-21 0-10 1-13 5-20 2-4 7-10 10-12 11-9 15-9 64-9l45 0 1-48 0-48 5-9a42 42 0 0 1 72 0l5 9 0 48 1 48 45 0c49 0 53 0 64 9 3 2 8 8 10 12 4 7 5 10 5 20 0 11-1 14-5 21a50 50 0 0 1-10 12c-11 8-17 9-65 9h-44l-1 48 0 48-5 8a42 42 0 0 1-49 19" horiz-adv-x="1000" />

<glyph glyph-name="bookmark" unicode="&#xe834;" d="M271 765c-47-8-85-42-100-88l-3-13v-668l4-10c6-13 18-25 31-31 10-5 13-6 26-6 13 0 17 1 24 4 5 3 57 32 115 65 57 33 109 62 114 64a36 36 0 0 0 18 5c7 0 12-1 19-5 5-2 56-31 114-64 57-33 109-62 114-65 7-3 11-4 24-4 13 0 16 1 24 5 14 6 26 17 32 31l6 11v668l-4 13a129 129 0 0 1-85 85l-13 4-226 0c-124 0-230 0-234-1m450-84a42 42 0 0 0 27-26c2-8 2-46 2-308l-1-300-90 52c-100 57-115 65-132 69a149 149 0 0 1-54 0c-17-4-32-12-132-69l-90-52-1 300c0 336-1 310 13 324 13 13-3 12 236 12 187 0 215 0 222-2" horiz-adv-x="1000" />

<glyph glyph-name="box" unicode="&#xe835;" d="M488 765c-3-1-83-50-178-110-118-74-173-109-176-113-9-12-9-5-9-191 0-193-1-183 11-195 4-4 80-53 177-113 134-84 173-107 179-109 17-3 12-6 195 109 97 60 173 109 177 113 12 12 11 2 11 195 0 186 0 179-9 191-3 4-58 39-176 113-95 60-175 109-178 110a43 43 0 0 1-24 0m56-116c23-15 42-27 42-28 0-1-57-37-126-81l-127-78-43 27c-24 14-43 27-43 28 0 1 250 158 253 158 1 0 20-12 44-26m167-105c23-14 42-27 42-28-1-2-251-158-253-157-4 0-85 52-85 54 0 1 250 159 252 158 1 0 20-12 44-27m-253-376l0-118-14 9-125 78-110 69-1 118 0 118 125-78 125-78 0-118m334 156l0-118-111-69-125-78-14-9 0 118 1 118 124 78a67267 67267 0 0 0 124 78c1 0 1-53 1-118" horiz-adv-x="1000" />

<glyph glyph-name="briefcase" unicode="&#xe836;" d="M438 723a127 127 0 0 1-100-87c-3-10-4-17-4-45l-1-32-74-1c-72-1-73-1-86-5a128 128 0 0 1-85-85l-4-12v-378l4-13a129 129 0 0 1 85-85l13-4h628l13 4a129 129 0 0 1 85 85l4 13v378l-4 12a128 128 0 0 1-84 85c-14 4-14 4-87 5l-74 1-1 32c0 28-1 35-4 45a129 129 0 0 1-84 84c-13 4-15 4-73 4-32 1-63 0-67-1m117-84a37 37 0 0 0 16-10c10-10 12-19 12-48v-23h-166v23c0 29 2 38 12 48 12 12 16 12 70 13 38 0 49-1 56-3m250-166a37 37 0 0 0 16-11c11-11 12-16 12-68v-44h-208l0 27c-1 26-1 28-5 35a43 43 0 0 1-25 19c-11 3-179 3-190 0a43 43 0 0 1-25-19c-4-7-4-9-5-35l0-27h-208v44c0 52 1 57 12 68a39 39 0 0 0 16 10c12 4 597 4 610 1m-263-165v-41h-84v83h84v-42m-167-68c1-26 1-28 6-35 5-9 13-16 22-19 9-3 185-3 194 0 9 3 17 10 23 19 4 7 4 9 5 35l0 27h208v-86c0-93 0-95-9-107-2-3-8-8-12-10l-8-5h-608l-8 5a50 50 0 0 0-12 10c-9 12-9 12-9 106v87h208l0-27" horiz-adv-x="1000" />

<glyph glyph-name="browser-cookie" unicode="&#xe837;" d="M188 723c-47-8-85-42-100-88l-4-12v-545l4-13a130 130 0 0 1 85-85c11-4 12-4 109-5 65 0 100 0 104 2 10 2 20 10 25 19 4 7 5 10 5 21 0 10-1 13-5 20a48 48 0 0 1-20 18c-4 2-29 3-100 3l-95 1-8 5a50 50 0 0 0-12 10c-10 13-9 3-9 210v191h666l1-27c0-27 0-27 5-36a42 42 0 0 1 72 0l5 9v202l-4 12a129 129 0 0 1-84 85l-14 4-309 0c-170 1-313 0-317-1m617-84a37 37 0 0 0 16-10c10-10 12-19 12-48v-23h-666v23c0 29 2 38 12 48a39 39 0 0 0 16 10c12 4 597 4 610 0m-122-249c-109-11-196-91-220-200-5-25-5-72 0-97 22-101 96-175 197-197 15-3 23-3 48-3 35 0 52 2 81 12 98 34 167 128 168 228 1 20 0 22-4 29-10 17-22 21-55 21h-23l0 48-1 48-4 8a50 50 0 0 1-11 12c-11 8-17 9-65 9h-44l0 27c-1 26-1 28-5 35-11 19-26 24-62 20m-11-144c3-4 7-9 11-12 11-8 14-9 63-9l46 0 0-45c0-49 0-53 9-64 2-3 8-8 12-10 7-5 9-5 32-6l25-1-4-11a167 167 0 0 0-125-110c-92-18-183 45-197 139a142 142 0 0 0 0 50 167 167 0 0 0 111 132l11 4 1-24c1-23 1-25 5-33m-60-65a43 43 0 0 1-23-19c-4-7-5-10-5-20 0-12 1-14 5-21a42 42 0 0 1 72 0c4 7 5 9 5 21 0 10-1 13-5 20a42 42 0 0 1-49 19m125-83a43 43 0 0 1-23-19c-4-7-5-10-5-21 0-11 1-13 5-21a42 42 0 0 1 72 0c4 8 5 10 5 21 0 11-1 14-5 21a42 42 0 0 1-49 19" horiz-adv-x="1000" />

<glyph glyph-name="browser" unicode="&#xe838;" d="M188 723c-47-8-85-42-100-88l-4-12v-545l4-13a129 129 0 0 1 85-85l13-4h628l13 4a129 129 0 0 1 85 85l4 13v545l-4 12a129 129 0 0 1-84 85l-14 4-309 0c-170 1-313 0-317-1m617-84a37 37 0 0 0 16-10c10-10 12-19 12-48v-23h-666v23c0 29 2 38 12 48a39 39 0 0 0 16 10c12 4 597 4 610 0m28-354c0-206 1-198-9-211-2-3-8-8-12-10l-8-5h-608l-8 5a50 50 0 0 0-12 10c-10 13-9 3-9 210v191h666v-190" horiz-adv-x="1000" />

<glyph glyph-name="bug-2" unicode="&#xe839;" d="M320 723c-10-4-18-11-23-19-4-7-4-10-4-21 0-8 1-14 3-18 1-3 16-19 32-35 24-25 29-30 27-32-10-5-32-24-43-35-11-13-32-41-32-45 0-2-35-2-44 1-17 5-25 16-28 39-1 17-6 26-16 34a42 42 0 0 1-62-13c-4-8-4-9-4-26 0-22 3-34 13-54 12-25 38-48 67-58 13-5 29-8 40-8 7 0 8 0 6-3 0-1-1-20-2-41l0-39h-44c-48 0-54-1-65-9-3-3-8-8-11-12-3-7-4-10-4-21 0-10 1-13 5-20 2-4 7-10 10-12 11-9 15-9 63-9l46 0 1-37c0-21 1-40 2-42 1-4 1-5-6-5-23 0-49-8-70-22-17-12-30-27-39-43-9-20-12-32-12-54 0-18 0-19 5-27 13-20 39-26 59-13 11 8 16 17 18 35 4 32 17 41 55 41h18l6-11c10-16 26-36 41-51 47-44 108-65 181-63 31 1 50 4 76 13 54 17 102 54 128 102l6 10h18c38 0 51-9 55-41 2-18 7-27 19-35 19-13 45-7 58 13 5 8 5 9 5 27 0 20-3 33-11 51-15 33-50 59-90 66a152 152 0 0 1-19 2l-8 0 1 6c1 3 2 22 2 41l1 37 46 0c48 0 52 0 63 9 3 2 8 8 11 12 4 7 4 10 4 20 0 11 0 14-4 21a50 50 0 0 1-11 12c-11 8-17 9-65 9h-44l-1 36a604 604 0 0 1-2 42l-1 5h8c19 0 44 8 63 19 14 8 33 27 41 40 17 28 22 69 11 87a42 42 0 0 1-60 13c-11-8-15-17-17-34-4-32-17-41-55-41h-18l-6 9c-14 26-40 54-64 72l-5 4 29 28c15 16 30 32 31 35 3 4 4 9 4 18 0 11-1 14-5 21a43 43 0 0 1-24 19c-10 3-15 3-26-1-8-2-12-5-51-44l-43-42-11 2c-28 5-70 4-98-1l-9-2-42 42c-38 37-44 43-51 45a42 42 0 0 1-28 1m206-166c69-9 113-48 133-116 7-24 8-42 7-145 0-81-1-97-3-107-9-37-25-67-46-88-28-28-68-43-117-43-81 0-134 39-157 112-9 27-10 38-10 139 0 119 2 132 19 165 14 28 35 49 66 64a192 192 0 0 0 108 19m-39-84a43 43 0 0 1-23-19c-4-7-5-10-5-21 0-11 1-13 5-21a42 42 0 0 1 72 0c4 8 5 10 5 21 0 11-1 14-5 21a42 42 0 0 1-49 19m-83-125a43 43 0 0 1-24-19c-3-7-4-10-4-21 0-11 0-13 5-21a42 42 0 0 1 72 0c4 8 5 10 5 21 0 11-1 14-5 21a42 42 0 0 1-49 19m167 0a43 43 0 0 1-24-19c-4-7-4-10-4-21 0-11 0-13 5-21a42 42 0 0 1 71 0c5 8 5 10 5 21 0 11 0 14-4 21a42 42 0 0 1-49 19" horiz-adv-x="1000" />

<glyph glyph-name="burger" unicode="&#xe83a;" d="M453 723c-75-4-140-20-196-47-88-43-143-110-164-202-7-27-9-45-7-58l2-10-7-7a122 122 0 0 1-35-56c-3-10-3-16-3-35 0-19 0-24 3-35 7-21 17-37 32-52l5-6v-44c0-38 1-47 4-61a168 168 0 0 1 78-112c14-8 35-16 54-20 15-3 23-3 281-3 258 0 266 0 282 3 56 12 101 49 122 102 11 25 13 40 13 91v44l5 6c15 15 25 31 32 52 3 11 4 16 4 35 0 19-1 25-4 35a122 122 0 0 1-35 56l-7 7 2 10c2 12 1 22-5 50-16 79-57 141-124 186-82 55-196 79-332 71m90-83c83-5 146-24 197-58a211 211 0 0 0 73-87c7-15 14-40 16-55l1-7h-330c-198 0-330 1-330 2 0 5 6 29 10 42 26 77 93 129 196 152 48 11 109 15 167 11m69-42a43 43 0 0 1-23-19c-4-7-5-10-5-21 0-11 1-13 5-21 13-20 39-26 59-13 4 3 10 9 13 13 4 8 5 10 5 21 0 11-1 14-5 21a42 42 0 0 1-49 19m-333-42a43 43 0 0 1-24-19c-3-7-4-10-4-20 0-12 0-14 5-21a42 42 0 0 1 72 0c4 7 5 9 5 21 0 10-1 13-5 20a42 42 0 0 1-49 19m208 0a43 43 0 0 1-23-19c-4-7-5-10-5-20 0-12 1-14 5-21 13-21 39-27 59-14 4 3 10 9 13 14 4 7 5 9 5 21 0 10-1 13-5 20a42 42 0 0 1-49 19m-95-209c44-9 83-31 117-65l15-15-185 0-185 1-7 4c-25 14-29 46-9 65 13 13 8 13 134 12 75 0 114-1 120-2m266-30l-33-33-33 33-33 33h132l-33-33m188 31c16-5 29-23 29-40 0-13-9-29-21-36l-8-4-60-1-60 0 36 36c19 19 38 37 42 40 11 7 27 9 42 5m-13-189c0-41-5-56-25-76a76 76 0 0 0-37-22c-15-4-527-4-541 0-29 7-53 31-60 59-2 8-3 18-3 37l0 26h666l0-24" horiz-adv-x="1000" />

<glyph glyph-name="bus" unicode="&#xe83b;" d="M308 765c-68-8-130-52-161-114a224 224 0 0 1-18-53c-3-13-3-28-3-246v-233l4-12c10-34 34-62 64-77l14-7 0-21c1-19 2-22 6-31 6-13 19-26 32-32 8-4 12-5 25-5s16 1 25 5c13 6 26 19 32 32 4 8 5 12 5 28l1 18h332l1-18c1-16 1-20 5-28 6-13 19-26 32-32 9-4 12-5 25-5s17 1 25 5c13 6 26 19 32 32 4 9 5 12 6 31l1 21 13 7a130 130 0 0 1 64 77l4 12v233c0 218 0 233-3 246-12 55-43 103-88 132-31 21-58 31-93 35-20 2-363 2-382 0m395-87a130 130 0 0 0 76-64l6-13-142-1c-79 0-207 0-286 0l-142 1 7 13a127 127 0 0 0 91 68c4 0 91 1 192 1l184 0 14-5m-245-245v-83h-250v167h250v-84m334 0v-83h-250v167h250v-84m0-231c0-70-1-75-9-86-3-3-9-8-13-11l-7-4h-525l-8 4a50 50 0 0 0-12 11c-9 12-10 14-10 85v66h584v-65m-471 21a43 43 0 0 1-24-19c-4-7-4-10-4-21 0-11 0-13 5-21a42 42 0 0 1 71 0c5 8 5 10 5 21 0 11 0 14-4 21a42 42 0 0 1-49 19m333 0a43 43 0 0 1-24-19c-3-7-4-10-4-21 0-11 0-13 5-21a42 42 0 0 1 72 0c4 8 5 10 5 21 0 11-1 14-5 21a42 42 0 0 1-49 19" horiz-adv-x="1000" />

<glyph glyph-name="cake" unicode="&#xe83c;" d="M279 764a44 44 0 0 1-24-19c-3-6-4-9-4-20 0-11 1-14 5-20 21-37 77-22 77 20a41 41 0 0 1-22 37 49 49 0 0 1-32 2m208 0a44 44 0 0 1-23-19c-4-6-5-9-5-20 0-11 1-14 5-20 22-37 78-22 78 20a41 41 0 0 1-23 37 49 49 0 0 1-32 2m209 0a44 44 0 0 1-24-19c-4-6-4-9-4-20 0-11 0-14 4-20 22-37 78-22 78 20a41 41 0 0 1-22 37 49 49 0 0 1-32 2m-417-125a43 43 0 0 1-24-19l-4-7-1-51 0-50-6-1c-11-2-31-9-46-17-57-29-97-81-111-146-3-13-3-25-3-163v-149l4-13a129 129 0 0 1 85-85l13-4h628l13 4a129 129 0 0 1 85 85l4 13v149c0 138 0 150-3 163-14 66-55 118-114 147-12 7-33 14-43 16l-6 1 0 50-1 51-4 7a42 42 0 0 1-73 0l-4-7-1-48 0-48h-125l-1 48 0 48-5 7a42 42 0 0 1-72 0l-5-7 0-48-1-48h-124l-1 48 0 48-5 7a42 42 0 0 1-49 19m465-211c50-15 85-59 89-110 2-33-12-66-36-81-17-11-48-15-73-9-21 6-36 17-45 36-7 13-10 23-12 42-2 19-6 28-17 36a42 42 0 0 1-61-13c-3-5-5-11-6-21-2-21-4-29-10-41-14-28-38-42-73-42-33 0-58 14-71 39-7 13-10 23-12 42-1 12-3 18-6 23a42 42 0 0 1-61 13c-10-8-15-17-17-34-2-21-4-29-10-41-14-28-38-42-73-42-40 0-66 18-78 55-6 16-6 45 0 64a126 126 0 0 0 99 88c4 0 110 1 234 1l226 0 13-5m-362-241c15-15 41-30 65-37 61-19 126-5 169 36l9 8 9-8c31-29 71-44 116-44 26 0 57 6 75 16l8 4v-54c0-59 0-64-9-75-2-4-8-8-12-11l-8-4h-608l-8 4a50 50 0 0 0-12 10c-9 12-9 16-9 75v55l8-4c10-6 33-12 48-14 53-8 112 9 145 43a33 33 0 0 0 7 6c1 0 4-2 7-6" horiz-adv-x="1000" />

<glyph glyph-name="calculator" unicode="&#xe83d;" d="M271 765c-47-8-85-42-100-88l-3-13v-628l3-13a129 129 0 0 1 86-85l12-4h462l12 4a129 129 0 0 1 86 85l4 13v628l-4 13a129 129 0 0 1-85 85l-13 4-226 0c-124 0-230 0-234-1m450-84c12-4 23-15 27-26 2-8 2-45 2-305 0-246 0-297-2-304a43 43 0 0 0-19-24l-8-4h-442l-7 4a50 50 0 0 0-13 10c-10 14-9-7-9 317 0 334-1 308 13 322 13 13-3 12 236 12 187 0 215 0 222-2m-359-83a43 43 0 0 1-23-19l-5-8v-192l5-8c5-9 13-15 22-19 10-3 269-3 278 0 9 4 17 10 22 19l5 8v192l-5 8a43 43 0 0 1-24 19c-11 3-264 3-275 0m221-123v-42h-166v84h166v-42m-221-169a44 44 0 0 1-23-19c-4-7-5-10-5-20 0-11 1-14 5-21 22-37 78-22 78 21a41 41 0 0 1-23 37 49 49 0 0 1-32 2m125 0a44 44 0 0 1-23-19c-4-7-5-10-5-20 0-11 1-14 5-21 22-37 78-22 78 21a41 41 0 0 1-23 37 49 49 0 0 1-32 2m125 0a43 43 0 0 1-23-19l-5-8v-150l5-8a42 42 0 0 1 72 0l5 8v150l-5 8a42 42 0 0 1-49 19m-250-125a44 44 0 0 1-23-19c-4-7-5-10-5-20 0-11 1-14 5-21 22-37 78-22 78 21a41 41 0 0 1-23 37 49 49 0 0 1-32 2m125 0a44 44 0 0 1-23-19c-4-7-5-10-5-20 0-11 1-14 5-21 22-37 78-22 78 21a41 41 0 0 1-23 37 49 49 0 0 1-32 2" horiz-adv-x="1000" />

<glyph glyph-name="calendar-plus" unicode="&#xe83e;" d="M321 764a43 43 0 0 1-24-19c-4-7-4-9-5-34l-1-27-31-1c-28-1-34-1-46-5a128 128 0 0 1-84-85l-4-12v-545l4-13c12-40 43-71 84-85l12-4 139 0c93-1 142 0 146 1 10 2 20 10 25 19 4 7 5 10 5 21 0 11-1 14-5 20a48 48 0 0 1-20 19c-4 1-37 2-142 3l-136 1-8 4a50 50 0 0 0-12 10c-10 13-10 3-10 211v190h584l0-48 1-48 5-8a42 42 0 0 1 71 0l5 8v244l-4 12a128 128 0 0 1-84 85c-12 4-18 4-45 5l-32 1-1 27c0 25-1 27-5 34a42 42 0 0 1-73 0c-4-7-4-9-5-35l0-27h-250l0 27c-1 26-1 28-5 35a42 42 0 0 1-49 19m442-166a37 37 0 0 0 16-11c11-10 13-18 13-47v-23h-584v23c0 29 3 37 13 47 13 14-8 13 278 13 224 0 257 0 264-2m16-375a43 43 0 0 1-24-19l-4-8-1-48 0-48h-44c-48 0-54-1-65-9-3-3-8-8-11-12-3-7-4-10-4-21 0-10 1-13 5-20 2-4 7-10 10-12 11-9 15-9 64-9l45 0 0-48 1-49 5-8a42 42 0 0 1 72 0l5 8 0 49 1 48 45 0c49 0 53 0 64 9 3 2 7 8 10 12 4 7 5 10 5 20 0 11-1 14-5 21a50 50 0 0 1-11 12c-10 8-17 9-65 9h-43l-1 48 0 48-5 8a42 42 0 0 1-49 19" horiz-adv-x="1000" />

<glyph glyph-name="calendar" unicode="&#xe83f;" d="M321 764a43 43 0 0 1-24-19c-4-7-4-9-5-34l-1-27-31-1c-28-1-34-1-46-5a128 128 0 0 1-84-85l-4-12v-545l4-13a129 129 0 0 1 85-85l13-4h545l12 4a129 129 0 0 1 85 85l4 13v545l-4 12a128 128 0 0 1-84 85c-12 4-18 4-45 5l-32 1-1 27c0 25-1 27-5 34a42 42 0 0 1-73 0c-4-7-4-9-5-35l0-27h-250l0 27c-1 26-1 28-5 35a42 42 0 0 1-49 19m442-166a37 37 0 0 0 16-11c11-10 13-18 13-47v-23h-584v23c0 29 3 37 13 47 13 14-8 13 278 13 224 0 257 0 264-2m29-354c0-206 0-199-9-211-3-4-9-8-13-11l-7-4h-525l-8 4a50 50 0 0 0-12 10c-10 13-10 3-10 211v190h584v-189" horiz-adv-x="1000" />

<glyph glyph-name="camera-off" unicode="&#xe840;" d="M111 764c-9-3-17-10-22-19-4-6-5-9-5-20s1-14 5-20c2-4 26-30 53-56l50-50-15-3c-42-11-76-43-89-86l-4-12v-420l4-13c13-41 43-71 85-85l11-4 316-1 316 0 17-17c22-22 26-24 42-24 11 0 14 1 21 5 19 11 27 37 15 56-2 4-175 178-384 387-351 351-380 380-388 382a42 42 0 0 1-28 0m251-41a43 43 0 0 1-23-19c-4-7-5-10-5-21 0-10 1-13 5-20 5-9 13-16 22-19 5-2 29-2 115-2 59 0 111-1 115-2 13-3 19-9 41-42 12-17 24-35 28-39 15-18 40-33 65-39 11-3 20-3 43-3 35 0 42-2 53-13 13-13 12-6 12-166l0-142 4-8c8-16 21-25 38-25a39 39 0 0 1 30 13c13 14 12 4 11 172l0 151-4 12c-14 41-45 72-84 84-12 3-18 4-50 5-51 1-47-1-80 48-11 17-24 35-29 40a126 126 0 0 1-66 35c-20 3-230 3-241 0m-53-241l35-35-9-12c-19-25-30-48-38-79-4-17-4-21-4-48 0-26 0-31 4-46 10-40 26-69 51-96 30-31 63-50 105-60 16-5 21-5 47-5 25 0 32 1 45 4 32 8 56 19 80 37l14 10 47-47 47-47-269 1-268 0-8 5a50 50 0 0 0-12 10c-10 13-9 3-9 213 0 217-1 204 12 217 12 11 17 12 59 13l36 0 35-35m183-183c49-49 87-88 86-89a134 134 0 0 0-54-24c-55-11-111 17-136 68-9 18-12 32-12 55 0 21 1 28 9 46 4 11 16 32 18 32 1 0 41-40 89-88" horiz-adv-x="1000" />

<glyph glyph-name="camera" unicode="&#xe841;" d="M396 722a128 128 0 0 1-65-34c-5-5-18-23-29-40-33-49-29-47-79-48-32-1-39-2-50-5a128 128 0 0 1-85-85l-4-12v-420l4-13a129 129 0 0 1 85-85l13-4h628l13 4a129 129 0 0 1 85 85l4 13v420l-4 12a128 128 0 0 1-84 85c-12 3-18 4-50 5-51 1-47-1-80 48-11 17-24 35-29 40a126 126 0 0 1-66 35c-21 3-187 3-207-1m195-82c13-3 19-9 41-42 12-17 24-35 28-39 15-18 40-33 65-39 11-3 20-3 43-3 35 0 42-2 53-13 13-13 12 0 12-216 0-209 1-201-9-214-2-3-8-8-12-10l-8-5h-608l-8 5a50 50 0 0 0-12 10c-10 13-9 3-9 213 0 217-1 204 12 217 11 11 19 13 53 13 34 0 50 3 71 13 26 13 35 22 70 75 17 25 24 32 36 35 7 2 174 2 182 0m-118-167c-47-8-92-39-116-79a166 166 0 0 1 81-240 166 166 0 0 1 216 92 165 165 0 0 1 0 124 166 166 0 0 1-129 103 155 155 0 0 1-52 0m49-84a84 84 0 0 0 60-68c4-27-4-51-23-71-17-17-36-25-59-25-21 0-40 7-56 22-55 52-19 145 56 145 6 0 16-2 22-3" horiz-adv-x="1000" />

<glyph glyph-name="car" unicode="&#xe842;" d="M286 723a125 125 0 0 1-87-58c-4-6-31-67-61-137l-54-125v-345l5-13c11-30 34-54 64-65 12-4 15-4 35-4 19 0 23 0 34 4 30 11 55 37 64 66l4 12h420l4-12c9-29 34-55 64-66 12-4 15-4 35-4 19 0 23 0 34 4a108 108 0 0 1 64 65l5 13v345l-54 125c-30 69-57 131-61 137-12 21-37 42-61 51-20 8-13 8-234 8-116 1-215 0-220-1m423-84c17-6 18-7 62-111l40-94-155 0c-86 0-226 0-312 0l-155 0 40 94c35 83 41 95 47 101 13 13-2 12 223 13 184 0 203-1 210-3m124-393v-104h-666v208h666v-104m-554 60a43 43 0 0 1-24-19c-3-7-4-10-4-20 0-12 0-14 5-21a42 42 0 0 1 72 0c4 7 5 9 5 21 0 10-1 13-5 20a42 42 0 0 1-49 19m417 0a43 43 0 0 1-24-19c-4-7-4-10-4-20 0-12 0-14 5-21a42 42 0 0 1 71 0c5 7 5 9 5 21 0 10 0 13-4 20a42 42 0 0 1-49 19" horiz-adv-x="1000" />

<glyph glyph-name="cent-circle" unicode="&#xe843;" d="M470 807l-23-2c-63-7-128-29-184-63-59-36-115-91-152-149a581 581 0 0 1-40-82c-44-119-38-246 16-360 23-48 50-84 90-124 40-41 76-67 124-90 156-75 336-57 476 48 25 19 70 63 88 89 124 166 124 387 1 552-19 26-64 70-89 89-67 50-137 78-218 89-17 3-77 5-89 3m85-86c107-16 200-76 260-168 13-19 31-56 39-79 14-41 20-77 20-124 0-37-2-58-10-90-22-90-79-170-157-223-34-23-86-45-127-54a377 377 0 0 0-315 75c-63 50-110 124-129 202-8 32-10 53-10 90 0 62 11 109 37 164a374 374 0 0 0 219 192c29 9 53 14 91 18 13 1 65-1 82-3m-68-82a43 43 0 0 1-23-19c-5-7-5-8-5-37l-1-29-6-1c-10-2-30-10-45-17-58-29-98-81-111-146-5-20-5-60 0-80 13-63 52-115 106-143 18-10 33-16 47-19l9-2 1-29 0-30 5-8a42 42 0 0 1 72 0l5 8 0 30 1 29 6 2c15 2 44 14 60 24a245 245 0 0 1 39 31c10 11 14 23 12 37a41 41 0 0 1-37 33c-15 1-21-2-38-15-17-15-31-23-49-28-18-6-52-6-70 0a128 128 0 0 0-85 84c-3 12-4 17-4 36 0 19 1 25 4 36a128 128 0 0 0 84 84c12 3 17 4 36 4 19 0 25-1 36-4 17-5 32-14 47-27 16-14 19-15 35-15 12 0 14 0 21 5 17 10 24 28 19 46-3 8-5 12-12 19-22 23-64 47-95 54l-9 2-1 29c0 29 0 30-5 37a42 42 0 0 1-49 19" horiz-adv-x="1000" />

<glyph glyph-name="chat-2-text" unicode="&#xe844;" d="M467 766c-58-5-97-13-139-27-208-69-324-250-275-429 14-54 44-105 86-149l13-14-4-12a359 359 0 0 0-31-58c-11-15-28-36-52-61-14-15-19-21-21-28a42 42 0 0 1 15-46c10-8 17-9 45-8 96 4 165 30 241 92l12 9 18-4c116-28 246-15 354 36 90 42 163 113 200 193 87 190-26 402-256 479a595 595 0 0 1-112 24c-16 2-81 4-94 3m71-84c102-9 190-46 254-108 42-41 67-85 79-140 2-10 3-21 3-42s-1-33-3-43c-12-54-37-99-79-139-57-56-133-91-224-105-20-3-31-4-65-4-53 0-83 4-127 16-35 10-42 8-65-11-32-27-61-48-86-60-14-7-38-17-38-15 0 0 3 6 7 12a375 375 0 0 1 43 94c6 20 6 31 0 42-1 3-14 16-27 29-25 25-39 42-52 65-39 67-43 145-12 213 35 80 111 142 210 175a473 473 0 0 0 182 21m-217-126a43 43 0 0 1-24-19c-4-7-4-10-4-20 0-11 0-14 4-21 5-9 13-15 23-19 9-3 351-3 360 0 10 4 18 10 23 19 4 7 5 10 5 21 0 10-1 13-5 20a43 43 0 0 1-24 19c-11 3-348 3-358 0m0-125a43 43 0 0 1-24-19c-4-7-4-10-4-20 0-11 0-14 4-21 5-9 13-15 23-19 9-3 351-3 360 0 10 4 18 10 23 19 4 7 5 10 5 21 0 10-1 13-5 20a43 43 0 0 1-24 19c-11 3-348 3-358 0m0-125a43 43 0 0 1-24-19c-4-7-4-10-4-20 0-11 0-14 4-21 5-9 13-15 23-19 9-3 143-3 152 0 9 4 17 10 23 19 4 7 4 10 4 21 0 10 0 13-4 20a43 43 0 0 1-25 19c-10 3-139 3-149 0" horiz-adv-x="1000" />

<glyph glyph-name="chat-2" unicode="&#xe845;" d="M467 766c-58-5-97-13-139-27-208-69-324-250-275-429 14-54 44-105 86-149l13-14-4-12c-15-38-40-74-82-118-22-23-23-26-23-42 0-11 0-14 4-20 5-9 14-16 24-20 7-2 13-2 33-1 96 4 165 30 241 92l12 9 18-4c116-28 246-15 354 36 90 42 163 113 200 193 87 190-26 402-256 479a595 595 0 0 1-112 24c-16 2-81 4-94 3m71-84c102-9 190-46 254-108 42-41 67-85 79-140 2-10 3-21 3-42s-1-33-3-43c-12-54-37-99-79-139-57-56-133-91-224-105-20-3-31-4-65-4-53 0-84 4-127 16-22 6-37 7-46 3-3-2-14-10-23-17-32-27-55-43-80-56-15-8-40-18-40-16 0 0 3 6 7 12a377 377 0 0 1 43 94c6 20 6 31 0 42-1 3-14 16-27 29-25 25-39 42-52 65-39 67-43 145-12 213 35 80 111 142 210 175a473 473 0 0 0 182 21" horiz-adv-x="1000" />

<glyph glyph-name="chat-signal" unicode="&#xe846;" d="M389 752c-116-33-213-114-264-221a416 416 0 0 1-35-255c7-37 18-72 36-109l11-23-27-81c-17-50-27-83-27-87a43 43 0 0 1 43-43c4 0 37 10 87 27l81 27 23-11a441 441 0 0 1 75-28 415 415 0 0 1 400 105c55 55 91 116 111 190 7 25 5 38-6 51-9 10-17 13-31 13-21 0-35-11-41-32-13-47-26-77-45-106-35-53-81-93-135-119-104-49-214-44-317 15-25 14-27 13-88-7-26-9-47-16-48-16 0 1 7 22 16 48 14 41 16 49 16 59 0 11 0 13-7 24-30 54-45 98-49 153-9 121 49 238 153 305 29 19 58 31 104 44 27 8 41 34 29 58a48 48 0 0 1-22 21c-8 4-24 3-43-2m178 2a48 48 0 0 1-21-21c-11-24 2-50 29-58 74-21 119-46 163-93 44-45 67-86 87-157 3-11 5-14 12-21 14-13 30-16 46-8 15 7 24 20 24 36 0 18-15 64-34 102-48 100-138 178-242 212-35 11-52 13-64 8m-80-156c-26-9-37-41-20-64 8-12 17-16 38-17 33-3 47-7 72-20a166 166 0 0 0 70-70c13-25 17-39 20-73 1-15 2-19 6-25a42 42 0 0 1 71 0c5 8 5 9 5 30-1 100-71 194-168 227a246 246 0 0 1-57 12c-21 2-28 2-37 0m0-167a43 43 0 0 1-23-19c-4-7-5-10-5-20 0-12 1-14 5-21 6-10 18-19 28-20 8-1 8-1 9-8 1-10 9-22 18-28a41 41 0 0 1 64 32c2 21-6 42-22 59-20 22-51 32-74 25" horiz-adv-x="1000" />

<glyph glyph-name="chat-status" unicode="&#xe847;" d="M438 762a410 410 0 0 1-198-87c-83-65-136-159-153-267-4-26-4-89 0-116 7-44 20-85 38-124l12-24-27-81c-17-50-27-83-27-87a43 43 0 0 1 43-43c4 0 37 10 87 27l81 27 24-12c39-19 80-31 124-38 27-4 91-4 118 0 185 30 325 170 353 355 3 23 1 33-10 44-9 10-17 13-30 13-14 0-23-4-31-13-7-8-9-14-13-35-10-71-41-133-92-185a332 332 0 0 0-304-92c-36 7-66 19-104 40-26 15-27 15-89-6-26-9-47-16-48-16 0 1 7 22 16 48 14 41 16 49 16 59 0 11 0 13-7 24-46 81-60 156-43 243 18 97 85 185 175 231 32 16 60 25 99 32 27 5 30 6 38 13 27 23 13 67-23 72-3 0-14-1-25-2m169-22a41 41 0 0 1-11-66c3-3 13-8 28-14 41-18 72-37 101-64 40-37 68-80 87-128 7-19 15-28 28-33a41 41 0 0 1 56 38c0 25-40 102-75 143-39 46-86 83-137 107-47 23-60 26-77 17m-136-142a258 258 0 0 1-113-43c-16-11-23-20-24-34-3-27 20-49 48-45 5 1 13 4 25 12a181 181 0 0 0 53 24c10 3 17 4 39 4 24 0 29-1 44-5a170 170 0 0 0 109-93c3-6 7-18 9-26 4-14 5-20 5-41 0-38-7-61-27-93-12-19-15-25-13-38 2-23 24-39 48-36 12 2 22 10 33 26a264 264 0 0 1 38 92c5 23 6 70 1 92-19 99-91 175-186 198a253 253 0 0 1-89 6m7-168c-28-7-51-31-59-59a86 86 0 0 1 7-60c6-11 24-29 35-35a85 85 0 0 1 78 0c11 6 29 24 35 35a85 85 0 0 1 7 59 75 75 0 0 1-20 36 82 82 0 0 1-61 27c-6 0-16-1-22-3m-199-41a43 43 0 0 1-24-19c-4-7-4-8-4-29 1-99 71-194 168-227 31-11 76-17 92-12 10 2 20 10 25 19 4 7 5 10 5 21 0 10-1 13-5 20-8 14-22 21-41 21-14 0-42 6-57 12a168 168 0 0 0-86 80c-12 23-16 38-18 70-2 15-3 20-6 26a42 42 0 0 1-49 18" horiz-adv-x="1000" />

<glyph glyph-name="chat-text" unicode="&#xe848;" d="M467 765a418 418 0 0 1-293-156c-46-58-76-128-88-208-2-20-2-82 1-103a439 439 0 0 1 42-137l8-16-27-82c-16-50-27-83-27-87a43 43 0 0 1 43-43c4 0 37 10 87 27l81 27 24-12c40-19 80-31 124-38 29-4 93-4 122 1a414 414 0 0 1 119 38c124 60 208 177 230 316 2 14 3 29 3 56 0 47-3 73-15 113a417 417 0 0 1-304 294c-37 9-92 13-130 10m66-83c118-13 215-82 267-188 32-64 41-140 26-213-10-48-36-102-67-141a336 336 0 0 0-258-123c-61 0-113 14-172 47-26 15-27 15-89-6-26-9-47-16-48-16 0 1 7 22 16 48 21 63 21 62 4 93a538 538 0 0 0-19 37c-26 60-33 128-19 197 16 83 69 163 143 212 39 26 98 47 148 53a378 378 0 0 0 68 0m-212-168a43 43 0 0 1-24-19c-4-6-4-9-4-20 0-11 0-14 4-20 5-9 13-16 23-19 9-4 351-4 360 0 10 3 18 10 23 19 4 6 5 9 5 20 0 11-1 14-5 20a43 43 0 0 1-24 19c-11 4-348 4-358 0m0-125a43 43 0 0 1-24-19c-4-6-4-9-4-20 0-11 0-14 4-20 5-9 13-16 23-19 9-4 351-4 360 0 10 3 18 10 23 19 4 6 5 9 5 20 0 11-1 14-5 20a43 43 0 0 1-24 19c-11 4-348 4-358 0m0-125a43 43 0 0 1-24-19c-4-6-4-9-4-20 0-11 0-14 4-20 5-9 13-16 23-19 9-3 143-3 152 0 9 3 17 10 23 19 4 6 4 9 4 20 0 11 0 14-4 20a43 43 0 0 1-25 19c-10 4-139 4-149 0" horiz-adv-x="1000" />

<glyph glyph-name="chat" unicode="&#xe849;" d="M475 766c-61-6-103-16-153-40a422 422 0 0 1-159-131 417 417 0 0 1-73-319c7-38 19-72 36-109l11-23-27-81c-16-50-27-83-27-87a43 43 0 0 1 43-43c4 0 37 10 87 27l81 27 24-12c63-30 126-44 193-41 31 1 46 3 72 8a414 414 0 0 1 230 134c56 64 89 138 101 224 2 20 2 80 0 100-19 140-101 258-224 320-46 24-86 36-135 43-19 2-66 4-80 3m74-87c103-16 189-75 241-165 59-103 57-235-5-336-82-134-241-193-390-144a378 378 0 0 0-66 30c-26 15-27 15-89-6-26-9-47-16-48-16 0 1 7 22 16 48 21 62 21 63 5 91-14 26-15 28-22 45a334 334 0 0 0-24 136c3 43 9 74 23 110a332 332 0 0 0 164 177 342 342 0 0 0 114 33c19 2 62 0 81-3" horiz-adv-x="1000" />

<glyph glyph-name="chats-2" unicode="&#xe84a;" d="M467 766c-58-5-97-13-139-27-208-69-324-250-275-429 14-54 44-105 86-149l13-14-4-12a359 359 0 0 0-31-58c-11-15-28-36-52-61-14-15-19-21-21-28a42 42 0 0 1 15-46c10-8 17-9 45-8 96 4 166 31 243 93 23 19 27 26 27 44 0 10-1 13-4 20a43 43 0 0 1-43 20c-10-1-14-4-35-21a383 383 0 0 0-65-43c-15-8-40-18-40-16 0 0 3 6 7 12a375 375 0 0 1 43 94c6 20 6 31 0 42-1 3-14 16-27 29-25 25-39 42-52 65-57 99-38 216 50 300 86 84 217 123 352 106 109-13 206-65 263-140 25-33 38-61 48-105 5-21 9-28 20-35 19-13 46-7 58 13 5 8 5 10 5 23 0 25-15 73-33 106-65 120-196 202-354 222-20 2-85 4-100 3m176-334c-53-5-85-13-121-29-56-24-104-67-128-114-11-23-19-57-19-82 0-27 8-59 20-83 14-28 47-66 76-86 37-26 83-44 134-53 18-4 27-4 62-4 35 0 44 0 61 4l21 3 17-11c19-12 39-23 57-29 31-12 89-18 106-13 23 8 34 31 27 53-3 8-6 13-24 31-19 19-32 36-35 45 0 2 2 6 9 13a207 207 0 0 1 44 75c6 19 7 30 7 56 0 23 0 28-4 43-23 84-100 150-205 173a437 437 0 0 1-33 6c-15 2-62 3-72 2m52-84c71-7 130-38 162-83 17-26 22-59 13-89-7-22-19-38-50-67-15-14-18-27-11-50 2-7 4-12 3-12a136 136 0 0 0-14 10c-26 20-34 21-65 14-25-6-47-8-78-7-65 2-122 25-160 63-55 55-47 127 19 176 48 35 114 52 181 45" horiz-adv-x="1000" />

<glyph glyph-name="chats" unicode="&#xe84b;" d="M341 723c-106-16-189-93-211-198-6-25-6-75 0-99 4-20 12-42 19-56l5-10-15-43c-8-25-14-46-14-50a43 43 0 0 1 42-42c4 0 25 6 50 14l43 14 11-5c25-12 48-4 59 20a29 29 0 0 1 3 19 43 43 0 0 1-12 27c-3 2-15 9-26 15-25 13-31 14-50 8a68 68 0 0 0-11-3 70 70 0 0 0 3 11c6 18 4 29-8 52-15 28-19 45-19 78 0 23 0 28 4 42 4 17 14 37 24 52 20 31 56 57 95 67 22 6 59 7 81 1a170 170 0 0 0 79-45c14-14 23-26 31-44 11-21 22-29 39-31 26-2 49 23 44 48a130 130 0 0 1-10 24c-33 67-99 117-173 131-23 5-62 6-83 3m252-250a260 260 0 0 1-134-61c-38-33-67-83-79-137-4-19-6-58-3-79 4-33 17-72 32-97a256 256 0 0 1 167-119c24-6 74-6 99 0a262 262 0 0 1 56 19l9 5 43-15c25-8 46-14 50-14 23 0 42 19 42 42 0 4-6 25-14 50l-14 42 6 14a249 249 0 0 1 6 190 195 195 0 0 1-23 46c-38 59-99 100-166 112-18 3-61 5-77 2m74-87c60-15 108-65 121-125 9-43 2-84-22-125-6-11-8-26-3-41 2-6 3-11 3-11a68 68 0 0 0-11 3c-18 5-26 4-46-6-33-18-60-24-93-22-42 2-78 18-108 49-23 22-36 46-45 78-5 21-5 57 0 78a176 176 0 0 0 44 79 173 173 0 0 0 95 47c18 3 47 1 65-4" horiz-adv-x="1000" />

<glyph glyph-name="checkbox-list-detail" unicode="&#xe84c;" d="M145 680c-28-7-52-31-59-59-2-8-3-21-3-63 0-57 1-63 10-80 5-11 24-30 35-35 17-9 23-10 80-10 57 0 64 1 81 10 11 5 29 24 35 35 9 17 9 24 9 80 0 55-1 64-9 80-9 19-31 37-52 42-16 5-111 5-127 0m301 1a43 43 0 0 1-24-19c-4-7-4-10-4-20 0-11 0-14 4-21 5-9 13-15 23-19 9-3 435-3 444 0 9 4 17 10 22 19 4 7 5 10 5 21 0 10-1 13-5 20a43 43 0 0 1-24 19c-11 3-431 3-441 0m-196-123v-41h-83v83h83v-42m196-44a43 43 0 0 1-24-19c-4-6-4-9-4-20 0-11 0-14 4-20 5-9 13-16 23-19 9-3 226-3 235 0 10 3 18 10 23 19 4 6 5 9 5 20 0 11-1 14-5 20a43 43 0 0 1-24 19c-11 4-223 4-233 0m-301-250c-28-8-52-32-59-60-2-8-3-21-3-62 0-57 1-64 10-81 5-11 24-29 35-35 17-9 23-9 80-9 57 0 64 0 81 9 11 6 29 24 35 35 9 17 9 24 9 80 0 56-1 65-9 81-9 19-31 36-52 42-16 4-111 4-127 0m301 0a43 43 0 0 1-24-19c-4-6-4-9-4-20 0-11 0-14 4-20 5-9 13-16 23-19 9-4 435-4 444 0 9 3 17 10 22 19 4 6 5 9 5 20 0 11-1 14-5 20a43 43 0 0 1-24 19c-11 4-431 4-441 0m-196-122v-42h-83v83h83v-41m196-44a43 43 0 0 1-24-19c-4-7-4-10-4-21 0-10 0-13 4-20 5-9 13-16 23-19 9-3 226-3 235 0 10 3 18 10 23 19 4 7 5 10 5 20 0 11-1 14-5 21a43 43 0 0 1-24 19c-11 3-223 3-233 0" horiz-adv-x="1000" />

<glyph glyph-name="checkbox-list" unicode="&#xe84d;" d="M145 764c-28-8-52-32-59-60-2-8-3-21-3-62 0-57 1-64 10-81 5-11 24-29 35-35 17-9 23-9 80-9 57 0 64 0 81 9 11 6 29 24 35 35 9 17 9 24 9 80 0 56-1 65-9 81-9 19-31 36-52 42-16 4-111 4-127 0m105-122v-42h-83v83h83v-41m196 39a43 43 0 0 1-24-19c-4-7-4-10-4-20 0-11 0-14 4-21 5-9 13-15 23-19 9-3 435-3 444 0 9 4 17 10 22 19 4 7 5 10 5 21 0 10-1 13-5 20a43 43 0 0 1-24 19c-11 3-431 3-441 0m-301-209c-28-7-52-31-59-60-2-7-3-21-3-62 0-57 1-63 10-80 5-12 24-30 35-36 17-8 23-9 80-9 57 0 64 1 81 9 11 6 29 24 35 35 9 17 9 25 9 80 0 56-1 65-9 81-9 19-31 37-52 42-16 4-111 4-127 0m105-122v-42h-83v84h83v-42m196 39a43 43 0 0 1-24-19c-4-6-4-9-4-20 0-11 0-14 4-20 5-9 13-16 23-19 9-4 435-4 444 0 9 3 17 10 22 19 4 6 5 9 5 20 0 11-1 14-5 20a43 43 0 0 1-24 19c-11 4-431 4-441 0m-301-209c-28-7-52-31-59-59-2-8-3-21-3-63 0-57 1-63 10-80 5-11 24-30 35-35 17-9 23-10 80-10 57 0 64 1 81 10 11 5 29 24 35 35 9 17 9 24 9 80 0 55-1 64-9 80-9 19-31 37-52 42-16 5-111 5-127 0m105-122v-41h-83v83h83v-42m196 40a43 43 0 0 1-24-19c-4-7-4-10-4-21 0-10 0-13 4-20 5-9 13-16 23-19 9-3 435-3 444 0 9 3 17 10 22 19 4 7 5 10 5 20 0 11-1 14-5 21a43 43 0 0 1-24 19c-11 3-431 3-441 0" horiz-adv-x="1000" />

<glyph glyph-name="cheese" unicode="&#xe84e;" d="M436 721c-72-18-135-47-184-86-78-60-129-142-153-243-9-41-11-62-11-118 0-41 0-56 3-74 8-63 22-116 44-169 16-37 21-44 34-52l7-3 352-1c233 0 355 0 359 2 9 2 19 10 24 19l5 8v150l-5 8a40 40 0 0 1-28 20l-19 3a38 38 0 0 0-26 19c-6 10-5 32 0 43 8 13 18 18 44 21 11 1 22 9 29 19l5 9v192l-5 7a50 50 0 0 1-10 12c-3 3-101 52-218 111-240 120-218 110-247 103m141-143l121-61-225 0-225 0 7 8c30 36 83 73 134 94 18 7 58 19 63 19 2 0 58-27 125-60m256-190l0-45-9-3c-13-5-34-21-45-32-10-12-20-31-25-48-2-8-3-17-3-35 0-28 2-38 13-60 10-22 35-44 59-54l10-4 0-24 0-25h-619l-7 18c-35 88-46 194-29 282 4 22 9 42 17 63l4 12h634l0-45m-304-40a43 43 0 0 1-24-19c-3-7-4-10-4-21 0-11 0-13 5-21a42 42 0 0 1 72 0c4 8 5 10 5 21 0 11-1 14-5 21a42 42 0 0 1-49 19m-208-125a43 43 0 0 1-24-19c-4-7-4-10-4-21 0-11 0-13 5-21a42 42 0 0 1 71 0c5 8 5 10 5 21 0 11 0 14-4 21a42 42 0 0 1-49 19m291 0a43 43 0 0 1-23-19c-4-7-5-10-5-21 0-11 1-13 5-21a42 42 0 0 1 72 0c4 8 5 10 5 21 0 11-1 14-5 21a42 42 0 0 1-49 19" horiz-adv-x="1000" />

<glyph glyph-name="chevron-down-circle" unicode="&#xe84f;" d="M462 765a421 421 0 0 1-189-66 376 376 0 0 1-68-56 411 411 0 0 1-121-306c3-89 31-167 84-239 17-22 53-59 74-75 60-46 124-74 200-86 27-4 89-4 116 0 94 15 171 54 236 119 65 65 104 142 119 236 4 27 4 89 0 116-12 76-40 140-86 200-14 19-50 55-69 69-86 67-189 97-296 88m69-83a330 330 0 0 0 200-93 333 333 0 0 0 68-385 326 326 0 0 0-70-96 312 312 0 0 0-84-58 331 331 0 0 0-290 0 327 327 0 0 0-111 88c-84 99-101 241-43 358a333 333 0 0 0 296 187c8 0 24 0 34-1m-170-251c-9-4-17-10-22-19-4-7-5-10-5-20 0-9 1-14 3-19 5-8 134-137 143-143 6-3 9-4 20-4s14 1 20 4c9 6 139 135 143 143 2 5 3 10 3 19 0 10-1 13-5 20a42 42 0 0 1-50 19c-7-3-15-9-60-54l-51-51-51 51c-45 45-52 51-60 54a42 42 0 0 1-28 0" horiz-adv-x="1000" />

<glyph glyph-name="chevron-down" unicode="&#xe850;" d="M278 473c-9-4-18-11-23-19-3-7-4-10-4-21s1-13 4-20c6-9 219-221 227-226 4-2 9-3 18-3s14 1 18 3c8 5 221 217 227 226 4 7 4 10 4 20s0 14-4 21a42 42 0 0 1-51 18c-7-2-17-11-101-95l-93-93-93 93c-84 84-94 93-101 95a42 42 0 0 1-28 1" horiz-adv-x="1000" />

<glyph glyph-name="chevron-left-circle" unicode="&#xe851;" d="M462 765a421 421 0 0 1-189-66 376 376 0 0 1-68-56 411 411 0 0 1-121-306c3-89 31-167 84-239 17-22 53-59 74-75 60-46 124-74 200-86 27-4 89-4 116 0 94 15 171 54 236 119 65 65 104 142 119 236 4 27 4 89 0 116-12 76-40 140-86 200-14 19-50 55-69 69-86 67-189 97-296 88m69-83a330 330 0 0 0 200-93 333 333 0 0 0 68-385 326 326 0 0 0-70-96 312 312 0 0 0-84-58 331 331 0 0 0-290 0 327 327 0 0 0-111 88c-84 99-101 241-43 358a333 333 0 0 0 296 187c8 0 24 0 34-1m-4-168c-7-2-18-13-75-70-37-36-69-70-72-74-3-6-4-9-4-20s1-14 4-20c6-9 136-139 143-142 19-10 44-2 55 17 4 6 5 9 5 20 0 9-1 14-4 18-1 4-25 29-53 57l-50 50 50 50c28 28 52 54 53 57 3 4 4 9 4 18 0 11-1 14-5 20a42 42 0 0 1-51 19" horiz-adv-x="1000" />

<glyph glyph-name="chevron-left" unicode="&#xe852;" d="M569 597c-8-2-16-10-117-111-61-61-111-112-113-116-4-6-5-9-5-20 0-9 1-14 3-18 4-8 217-221 226-226 19-12 45-5 57 15 4 7 4 10 4 21 0 9-1 14-3 18-2 3-44 47-95 98l-92 92 92 92c51 51 93 95 95 98 2 4 3 10 3 18 0 11 0 14-4 21a43 43 0 0 1-25 19c-9 3-15 3-26-1" horiz-adv-x="1000" />

<glyph glyph-name="chevron-right-circle" unicode="&#xe853;" d="M462 765a421 421 0 0 1-189-66 376 376 0 0 1-68-56 411 411 0 0 1-121-306c3-89 31-167 84-239 17-22 53-59 74-75 60-46 124-74 200-86 27-4 89-4 116 0 94 15 171 54 236 119 65 65 104 142 119 236 4 27 4 89 0 116-12 76-40 140-86 200-14 19-50 55-69 69-86 67-189 97-296 88m69-83a330 330 0 0 0 200-93 333 333 0 0 0 68-385 326 326 0 0 0-70-96 312 312 0 0 0-84-58 331 331 0 0 0-290 0 327 327 0 0 0-111 88c-84 99-101 241-43 358a333 333 0 0 0 296 187c8 0 24 0 34-1m-86-168c-10-3-18-10-23-19-4-6-4-9-4-20 0-9 1-14 3-18 1-3 25-29 53-57l50-50-50-50c-28-28-52-53-53-56-10-19-2-44 17-55 7-4 10-5 20-5 9 0 15 1 19 3 8 5 137 134 143 143 4 6 4 9 4 20s0 14-4 20c-3 4-35 38-72 74-60 60-68 68-75 70a42 42 0 0 1-28 0" horiz-adv-x="1000" />

<glyph glyph-name="chevron-right" unicode="&#xe854;" d="M404 598a43 43 0 0 1-24-19c-3-7-4-10-4-21 0-8 1-14 3-18 2-3 44-47 95-98l92-92-92-92c-51-51-93-95-95-98-2-4-3-9-3-18 0-11 1-14 5-21 11-20 37-27 56-15 9 5 222 218 226 226 2 4 3 9 3 18 0 11-1 14-5 20-2 4-51 55-113 116-105 105-109 109-118 111-11 4-17 4-26 1" horiz-adv-x="1000" />

<glyph glyph-name="chevron-up-circle" unicode="&#xe855;" d="M462 765a421 421 0 0 1-189-66 376 376 0 0 1-68-56 411 411 0 0 1-121-306c3-89 31-167 84-239 17-22 53-59 74-75 60-46 124-74 200-86 27-4 89-4 116 0 94 15 171 54 236 119 65 65 104 142 119 236 4 27 4 89 0 116-12 76-40 140-86 200-14 19-50 55-69 69-86 67-189 97-296 88m69-83a330 330 0 0 0 200-93 333 333 0 0 0 68-385 326 326 0 0 0-70-96 312 312 0 0 0-84-58 331 331 0 0 0-290 0 327 327 0 0 0-111 88c-84 99-101 241-43 358a333 333 0 0 0 296 187c8 0 24 0 34-1m-46-210c-6-2-18-13-75-69-37-37-69-70-71-75-4-6-5-9-5-20 0-10 1-13 5-20 5-9 15-17 25-20 9-2 22-1 30 3 3 1 28 25 56 53l50 50 50-50c28-28 54-52 57-53 4-2 9-3 18-3 11 0 14 0 21 4 19 12 26 38 15 57-2 4-34 37-71 74-60 59-68 67-76 69a43 43 0 0 1-29 0" horiz-adv-x="1000" />

<glyph glyph-name="chevron-up" unicode="&#xe856;" d="M485 514c-6-2-23-18-116-111-62-62-111-112-114-116-3-7-4-10-4-20 0-11 1-14 5-21 5-9 15-17 25-19 8-3 22-1 29 2 3 2 47 44 98 95l92 92 92-92c51-51 95-93 98-95 4-2 10-3 18-3 11 0 14 1 21 5 20 11 27 37 15 56-2 4-53 56-113 116-98 98-109 109-117 111a44 44 0 0 1-29 0" horiz-adv-x="1000" />

<glyph glyph-name="chromecast" unicode="&#xe857;" d="M188 723c-47-8-85-41-100-87-3-11-4-14-4-79-1-76-1-76 11-89a39 39 0 0 1 30-13c17 0 30 8 38 24 4 8 4 9 4 67 0 68 0 71 12 83 14 14-12 13 321 13s307 1 321-13c13-13 12 7 12-279 0-211 0-256-2-262a43 43 0 0 0-19-24l-8-5-95-1c-71 0-96-1-99-3a48 48 0 0 1-21-18c-4-7-5-10-5-20 0-11 1-14 5-21 5-9 15-17 25-19 4-2 39-2 104-2 97 1 98 1 110 5a130 130 0 0 1 84 85l4 13v545l-4 12a129 129 0 0 1-84 85l-14 4-309 0c-170 1-313 0-317-1m-76-334a42 42 0 0 1-20-64c2-3 8-8 12-11 7-4 11-5 35-7 32-2 38-3 55-7 105-25 189-110 214-214 4-18 5-24 8-56 2-25 2-27 7-35a42 42 0 0 1 71 0c4 7 5 11 6 23a272 272 0 0 1-2 33c-18 188-170 332-357 340-16 1-24 0-29-2m0-166c-26-9-37-41-20-64 8-12 17-16 38-17 40-4 67-17 91-46 17-20 26-43 29-74 1-16 2-20 6-27a42 42 0 0 1 72 1c4 8 5 9 5 27-1 64-37 129-91 166-32 20-59 30-94 34-20 3-27 2-36 0m0-167a44 44 0 0 1-23-19c-4-7-5-10-5-20 0-11 1-14 5-21 22-37 78-22 78 21a41 41 0 0 1-23 37 49 49 0 0 1-32 2" horiz-adv-x="1000" />

<glyph glyph-name="church" unicode="&#xe858;" d="M487 723a43 43 0 0 1-23-19c-5-8-5-9-5-35l-1-27h-23c-33 0-45-5-55-22-3-6-4-9-4-20 0-11 1-14 5-20 5-9 13-16 22-19 4-2 15-2 31-3l24 0v-62l-161-121c-177-133-169-127-171-145a41 41 0 0 1 11-34c11-10 19-13 48-13h23v-125h-44c-47 0-54-1-65-9-3-2-8-8-10-12-4-7-5-10-5-20 0-11 1-14 5-21 5-9 13-15 22-19 10-3 769-3 778 0 9 4 17 10 22 19 4 7 5 10 5 21 0 10-1 13-5 20a50 50 0 0 1-10 12c-11 8-17 9-65 9h-44v125h24c28 0 36 3 47 13a41 41 0 0 1 12 34c-2 18 5 12-172 145l-161 121v62l24 0c16 1 27 1 31 3 9 3 17 10 23 19 4 6 4 9 4 20 0 11 0 14-4 20-10 17-22 22-55 22h-23l-1 27c0 26 0 27-5 35a42 42 0 0 1-49 19m125-384l110-82-5-6c-8-12-8-12-9-106l0-87h-83l0 54c-1 51-1 55-5 66a129 129 0 0 1-84 84c-11 3-17 4-36 4-19 0-24-1-36-4a129 129 0 0 1-84-84c-4-11-4-15-5-66l0-54h-83l0 87c0 94 0 94-9 106l-5 6 110 82c60 45 111 83 112 83 1 0 51-37 112-83m-98-158c5-2 11-6 15-10 12-12 13-17 13-69v-44h-84v44c0 52 1 57 13 69a40 40 0 0 0 43 10" horiz-adv-x="1000" />

<glyph glyph-name="clipboard-check" unicode="&#xe859;" d="M396 765a127 127 0 0 1-91-68l-7-13-35-1c-31-1-37-1-49-5a128 128 0 0 1-84-85l-4-12v-545l4-13a129 129 0 0 1 85-85l13-4h545l12 4a129 129 0 0 1 85 85l4 13v545l-4 12a128 128 0 0 1-84 85c-12 4-18 4-49 5l-35 1-7 13a129 129 0 0 1-76 65l-13 4-101 0c-55 0-105 0-109-1m200-84c16-5 29-23 29-39 0-14-9-29-21-37l-8-4h-192l-7 4c-25 15-29 46-9 66 12 12 11 12 111 12 75 0 90 0 97-2m-291-95a129 129 0 0 1 77-65l12-3h212l12 3a129 129 0 0 1 77 65l7 14h26c33 0 40-2 51-13 14-13 13 8 13-279 0-210-1-255-3-262a43 43 0 0 0-19-24l-7-4h-525l-8 4a50 50 0 0 0-12 10c-10 13-10-3-10 275 0 288-1 267 13 280 11 11 17 13 50 13l27 0 7-14m308-155a66 66 0 0 1-11-4c-2-2-36-42-74-90a21082 21082 0 0 0-71-89c-1-1-14 10-31 26-24 24-30 29-37 32a42 42 0 0 1-50-19c-4-7-5-10-5-20s1-14 5-20c5-10 93-97 101-101 4-2 10-3 18-3 22 0 17-6 114 116 48 60 89 111 90 115a41 41 0 0 1-33 59 53 53 0 0 1-16-2" horiz-adv-x="1000" />

<glyph glyph-name="clipboard-minus" unicode="&#xe85a;" d="M396 765a127 127 0 0 1-91-68l-7-13-35-1c-31-1-37-1-49-5a128 128 0 0 1-84-85l-4-12v-545l4-13a129 129 0 0 1 85-85l13-4h545l12 4a129 129 0 0 1 85 85l4 13v545l-4 12a128 128 0 0 1-84 85c-12 4-18 4-49 5l-35 1-7 13a129 129 0 0 1-76 65l-13 4-101 0c-55 0-105 0-109-1m200-84c16-5 29-23 29-39 0-14-9-29-21-37l-8-4h-192l-7 4c-25 15-29 46-9 66 12 12 11 12 111 12 75 0 90 0 97-2m-291-95a129 129 0 0 1 77-65l12-3h212l12 3a129 129 0 0 1 77 65l7 14h26c33 0 40-2 51-13 14-13 13 8 13-279 0-210-1-255-3-262a43 43 0 0 0-19-24l-7-4h-525l-8 4a50 50 0 0 0-12 10c-10 13-10-3-10 275 0 288-1 267 13 280 11 11 17 13 50 13l27 0 7-14m57-280a43 43 0 0 1-23-19c-4-7-5-10-5-20 0-11 1-14 5-21 5-9 13-15 22-19 10-3 269-3 278 0 9 4 17 10 22 19 4 7 5 10 5 21 0 10-1 13-5 20a43 43 0 0 1-24 19c-11 3-264 3-275 0" horiz-adv-x="1000" />

<glyph glyph-name="clipboard-plus" unicode="&#xe85b;" d="M396 765a127 127 0 0 1-91-68l-7-13-35-1c-31-1-37-1-49-5a128 128 0 0 1-84-85l-4-12v-545l4-13a129 129 0 0 1 85-85l13-4h545l12 4a129 129 0 0 1 85 85l4 13v545l-4 12a128 128 0 0 1-84 85c-12 4-18 4-49 5l-35 1-7 13a129 129 0 0 1-76 65l-13 4-101 0c-55 0-105 0-109-1m200-84c16-5 29-23 29-39 0-14-9-29-21-37l-8-4h-192l-7 4c-25 15-29 46-9 66 12 12 11 12 111 12 75 0 90 0 97-2m-291-95a129 129 0 0 1 77-65l12-3h212l12 3a129 129 0 0 1 77 65l7 14h26c33 0 40-2 51-13 14-13 13 8 13-279 0-210-1-255-3-262a43 43 0 0 0-19-24l-7-4h-525l-8 4a50 50 0 0 0-12 10c-10 13-10-3-10 275 0 288-1 267 13 280 11 11 17 13 50 13l27 0 7-14m182-155a43 43 0 0 1-23-19l-5-8 0-48-1-48h-44c-47 0-54-1-65-9-3-2-8-8-10-12-4-7-5-10-5-20 0-11 1-14 5-21 2-4 7-9 10-12 11-8 15-9 64-9l45 0 1-48 0-48 5-8a42 42 0 0 1 72 0l5 8 0 48 1 48 45 0c49 0 53 1 64 9 3 3 8 8 10 12 4 7 5 10 5 21 0 10-1 13-5 20a50 50 0 0 1-10 12c-11 8-17 9-65 9h-44l-1 48 0 48-5 8a42 42 0 0 1-49 19" horiz-adv-x="1000" />

<glyph glyph-name="clipboard" unicode="&#xe85c;" d="M396 765a127 127 0 0 1-91-68l-7-13-35-1c-31-1-37-1-49-5a128 128 0 0 1-84-85l-4-12v-545l4-13a129 129 0 0 1 85-85l13-4h545l12 4a129 129 0 0 1 85 85l4 13v545l-4 12a128 128 0 0 1-84 85c-12 4-18 4-49 5l-35 1-7 13a129 129 0 0 1-76 65l-13 4-101 0c-55 0-105 0-109-1m200-84c16-5 29-23 29-39 0-14-9-29-21-37l-8-4h-192l-7 4c-25 15-29 46-9 66 12 12 11 12 111 12 75 0 90 0 97-2m-291-95a129 129 0 0 1 77-65l12-3h212l12 3a129 129 0 0 1 77 65l7 14h26c33 0 40-2 51-13 14-13 13 8 13-279 0-210-1-255-3-262a43 43 0 0 0-19-24l-7-4h-525l-8 4a50 50 0 0 0-12 10c-10 13-10-3-10 275 0 288-1 267 13 280 11 11 17 13 50 13l27 0 7-14" horiz-adv-x="1000" />

<glyph glyph-name="clock-plus" unicode="&#xe85d;" d="M462 765a421 421 0 0 1-189-66 376 376 0 0 1-68-56 411 411 0 0 1-121-306c3-89 31-167 84-239 17-22 53-59 74-75 59-46 125-75 198-85 24-4 62-6 71-3 10 2 20 10 25 19 4 7 5 10 5 21 0 11-1 14-5 20-8 15-22 22-43 22-42 0-95 13-138 33a327 327 0 0 0-111 88c-73 86-96 207-60 316a339 339 0 0 0 134 175 382 382 0 0 0 78 38 334 334 0 0 0 250-18 330 330 0 0 0 153-153c20-39 30-77 33-123 1-13 2-27 2-31 2-9 10-22 20-28 7-4 10-5 21-5 11 0 14 1 21 5 9 5 17 15 19 25 3 9 1 47-3 71-10 73-39 139-85 198-14 19-50 55-69 69-86 67-189 97-296 88m25-167a43 43 0 0 1-23-19l-5-8 0-89c-1-60 0-93 1-100a129 129 0 0 1 48-80c6-4 37-21 78-41 75-38 77-39 94-33a43 43 0 0 1 28 39 45 45 0 0 1-11 28c-5 5-22 14-71 39-36 18-68 34-71 37a44 44 0 0 0-9 12l-3 8-1 90-1 90-5 8a42 42 0 0 1-49 19m292-375a43 43 0 0 1-24-19l-4-8-1-48 0-48h-44c-48 0-54-1-65-9-3-3-8-8-11-12-3-7-4-10-4-21 0-10 1-13 5-20 2-4 7-10 10-12 11-9 15-9 64-9l45 0 0-48 1-49 5-8a42 42 0 0 1 72 0l5 8 0 49 1 48 45 0c49 0 53 0 64 9 3 2 7 8 10 12 4 7 5 10 5 20 0 11-1 14-5 21a50 50 0 0 1-11 12c-10 8-17 9-65 9h-43l-1 48 0 48-5 8a42 42 0 0 1-49 19" horiz-adv-x="1000" />

<glyph glyph-name="clock" unicode="&#xe85e;" d="M462 765a421 421 0 0 1-189-66 376 376 0 0 1-68-56 411 411 0 0 1-121-306c3-89 31-167 84-239 17-22 53-59 74-75 60-46 124-74 200-86 27-4 89-4 116 0 94 15 171 54 236 119 65 65 104 142 119 236 4 27 4 89 0 116-12 76-40 140-86 200-14 19-50 55-69 69-86 67-189 97-296 88m69-83a330 330 0 0 0 200-93 333 333 0 0 0 68-385 326 326 0 0 0-70-96 312 312 0 0 0-84-58 331 331 0 0 0-290 0 327 327 0 0 0-111 88c-84 99-101 241-43 358a333 333 0 0 0 296 187c8 0 24 0 34-1m-44-84a43 43 0 0 1-23-19l-5-8 0-89c-1-60 0-93 1-100a129 129 0 0 1 48-80c6-4 37-21 78-41 75-38 77-39 94-33a43 43 0 0 1 28 39 45 45 0 0 1-11 28c-5 5-22 14-71 39-36 18-68 34-71 37a44 44 0 0 0-9 12l-3 8-1 90-1 90-5 8a42 42 0 0 1-49 19" horiz-adv-x="1000" />

<glyph glyph-name="close" unicode="&#xe85f;" d="M279 598a43 43 0 0 1-24-19c-3-7-4-10-4-21 0-8 1-14 3-18 2-3 44-47 95-98l92-92-92-92c-51-51-93-95-95-98-2-4-3-9-3-18 0-11 1-14 5-21 5-9 15-17 25-19 8-3 22-1 29 2 3 2 47 44 98 95l92 92 92-92c51-51 95-93 98-95 4-2 10-3 18-3 11 0 14 1 21 5 9 5 17 15 20 25a50 50 0 0 1-3 29c-2 3-44 47-95 98l-92 92 92 92c51 51 93 95 95 98 2 4 3 10 3 18 0 11 0 14-4 21a43 43 0 0 1-25 19c-9 3-14 3-25-1-9-2-13-6-102-95l-93-93-93 93c-89 89-93 93-102 95-11 4-17 4-26 1" horiz-adv-x="1000" />

<glyph glyph-name="cloud" unicode="&#xe860;" d="M491 682c-61-7-117-34-164-79-11-11-24-26-30-33l-9-13-10-1a391 391 0 0 1-28-5c-81-18-146-67-180-134-38-76-38-183 0-259 28-56 77-98 140-122a354 354 0 0 1 73-18c11-1 85-1 247-1l231 1 18 4c84 21 140 68 166 140 10 29 12 45 12 84 0 30 0 37-3 52-19 88-77 147-167 169l-21 6-5 18c-27 92-98 165-183 185a261 261 0 0 1-87 6m51-84c35-4 65-20 91-47 31-33 50-75 55-118 1-13 4-20 12-28 8-9 18-13 37-14 55-4 102-32 122-73 13-27 18-58 15-90-3-24-6-35-15-54-16-33-46-56-90-69l-16-4h-467l-18 4c-87 23-134 76-141 161-6 65 12 120 50 156 33 31 75 49 128 53 28 2 35 7 50 31 8 14 24 33 37 44 44 38 97 55 150 48" horiz-adv-x="1000" />

<glyph glyph-name="code-block" unicode="&#xe861;" d="M188 723c-47-8-85-42-100-88l-4-12v-545l4-13a129 129 0 0 1 85-85l13-4h628l13 4a129 129 0 0 1 85 85l4 13v545l-4 12a129 129 0 0 1-84 85l-14 4-309 0c-170 1-313 0-317-1m617-84c11-3 22-14 26-26 2-7 2-40 2-263 0-211 0-256-2-262a43 43 0 0 0-19-24l-8-5h-608l-8 5a44 44 0 0 0-19 23c-4 11-3 513 0 526 4 11 15 23 26 26 12 4 597 4 610 0m-526-83a43 43 0 0 1-24-19c-3-7-4-10-4-20 0-11 1-14 5-21 5-9 13-15 22-19 9-3 227-3 236 0 9 4 17 10 22 19 4 7 5 10 5 21 0 10-1 13-5 20a43 43 0 0 1-24 19c-11 3-223 3-233 0m333 0a43 43 0 0 1-23-19c-4-7-5-10-5-20 0-11 1-14 5-21 5-9 13-15 22-19 9-3 102-3 111 0 9 4 17 10 23 19 4 7 4 10 4 21 0 10 0 13-4 20a43 43 0 0 1-25 19c-10 3-98 3-108 0m-333-167a43 43 0 0 1-24-19c-3-6-4-9-4-20 0-11 1-14 5-20 5-9 13-16 22-19 9-3 60-3 69 0 9 3 17 10 23 19 4 6 4 9 4 20 0 11 0 14-4 20a43 43 0 0 1-25 19c-10 3-56 3-66 0m167 0a43 43 0 0 1-24-19c-4-6-4-9-4-20 0-11 0-14 4-20 5-9 13-16 23-19 9-4 268-4 277 0 9 3 17 10 23 19 4 6 4 9 4 20 0 11 0 14-4 20a43 43 0 0 1-25 19c-10 4-264 4-274 0m-167-166a43 43 0 0 1-24-19c-3-7-4-10-4-21 0-10 1-13 5-20 5-9 13-16 22-19 9-3 227-3 236 0 9 3 17 10 22 19 4 7 5 10 5 20 0 11-1 14-5 21a43 43 0 0 1-24 19c-11 3-223 3-233 0m333 0a43 43 0 0 1-23-19c-4-7-5-10-5-21 0-10 1-13 5-20 5-9 13-16 22-19 9-3 102-3 111 0 9 3 17 10 23 19 4 7 4 10 4 20 0 11 0 14-4 21a43 43 0 0 1-25 19c-10 3-98 3-108 0" horiz-adv-x="1000" />

<glyph glyph-name="code" unicode="&#xe862;" d="M319 597c-8-2-16-10-117-111-61-61-111-112-113-116-4-6-5-9-5-20 0-9 1-14 3-18 4-8 217-221 226-226 19-12 45-5 57 15 4 7 4 10 4 21 0 9-1 14-3 18-2 3-44 47-95 98l-92 92 92 92c51 51 93 95 95 98 2 4 3 10 3 18 0 11 0 14-4 21a43 43 0 0 1-25 19c-9 3-15 3-26-1m335 1a43 43 0 0 1-24-19c-3-7-4-10-4-21 0-8 1-14 3-18 2-3 44-47 95-98l92-92-92-92c-51-51-93-95-95-98-2-4-3-9-3-18 0-11 1-14 5-21 11-20 37-27 56-15 9 5 222 218 226 226 2 4 3 9 3 18 0 11-1 14-5 20-2 4-51 55-113 116-105 105-109 109-118 111-11 4-17 4-26 1" horiz-adv-x="1000" />

<glyph glyph-name="coins" unicode="&#xe863;" d="M543 682c-65-5-92-9-133-21-83-24-139-66-155-114-3-8-4-17-5-32 0-15-1-20-2-20-7 0-47-15-67-25-53-26-85-58-94-96-3-12-4-19-4-107 0-107 1-108 13-132 8-15 33-41 51-53 47-31 117-53 201-62 26-3 112-3 138 0 83 9 153 31 201 62 18 12 42 38 50 53a112 112 0 0 1 13 54c0 12 1 16 2 16 3 0 43 13 52 18a367 367 0 0 1 49 26c20 13 43 37 51 54 13 24 13 25 12 135 0 96 0 98-4 109-23 68-118 117-253 132-20 3-100 5-116 3m112-86c79-9 145-34 171-64 10-12 9-21-5-35-26-27-87-49-159-59-32-4-92-6-124-3-88 7-161 30-193 62-10 10-13 19-10 26 6 15 37 36 73 49 37 14 80 23 138 27 18 1 89-1 109-3m-405-222c0-45 4-60 19-83 3-4 4-6 2-6-3 0-40 13-52 18-25 12-47 30-51 43-2 5-1 7 2 13 5 9 15 18 32 29 13 7 42 20 46 20 2 0 2-8 2-34m116 14c27-11 71-23 108-29 38-7 59-8 109-8 30 0 58 1 70 2 66 7 126 23 169 45l11 5v-27c0-32 0-35-12-46-27-27-86-48-160-59-36-5-119-5-155 0-74 10-133 32-160 59-12 11-13 14-13 46v27l12-5c6-3 15-8 21-10m-167-167c39-16 91-28 148-35 24-2 116-2 138 0 11 2 19 2 30 0 20-2 118-2 137 0 8 1 14 2 15 2 1-2-3-13-7-19-24-29-87-54-171-65-33-4-116-4-150 1-73 10-133 31-160 58-12 12-12 14-12 46v28l11-6c6-3 16-7 21-10" horiz-adv-x="1000" />

<glyph glyph-name="comet" unicode="&#xe864;" d="M601 757c-61-4-111-22-158-57-20-14-62-55-68-65-3-6-4-9-4-20 0-14 2-20 13-30 11-11 26-14 42-9 7 2 13 7 32 26 12 12 28 27 35 32 23 17 59 33 90 38 14 2 53 2 67 0a209 209 0 0 0 168-152c15-60 2-129-34-177-4-6-31-34-60-63-38-38-53-55-55-60-4-8-5-21-2-31 2-8 15-21 24-25 11-4 28-3 37 3 10 6 110 109 121 124 79 108 79 248-2 354-45 59-118 101-190 110-17 2-44 3-56 2m7-165c-44-3-84-30-104-72-8-18-11-33-10-57 1-35 11-58 36-83 25-25 48-35 83-36 25-1 39 2 60 12a126 126 0 0 1 63 71c21 60-7 127-66 155-16 7-41 12-62 10m-298-26c-10-3-13-7-63-56-51-51-54-55-54-71a42 42 0 0 1 56-40c8 3 12 7 60 54 45 45 51 52 53 59a40 40 0 0 1 0 29 50 50 0 0 1-21 23c-7 4-23 5-31 2m323-60c8-2 19-12 23-21 2-5 3-11 3-18 0-28-26-46-55-38-9 2-23 17-26 26-5 19 2 38 18 47 12 8 22 9 37 4m-229-86a60 60 0 0 1-13-4c-7-4-278-275-282-282-4-8-5-22-2-31 2-10 13-22 22-26 4-2 11-4 16-4 20 0 10-9 161 143 81 80 141 141 143 145 15 30-12 65-45 59m-271-30c-9-4-14-8-34-29-15-15-19-20-21-27-10-30 16-60 47-54 12 2 19 8 40 30 19 19 23 27 23 40 0 15-10 31-24 37-8 4-23 5-31 3m383-89a74 74 0 0 0-7-3c-3 0-43-42-46-47-5-9-5-27-1-36a41 41 0 0 1 38-24c15 0 22 4 42 24 19 18 25 27 28 39 4 17-6 36-22 45-9 4-23 5-32 2m-122-120c-6-3-20-15-57-54-56-55-57-57-55-75a36 36 0 0 1 12-26 36 36 0 0 1 29-12 36 36 0 0 1 19 4c10 5 103 99 107 108 5 9 5 28 0 37a42 42 0 0 1-55 18m206-29c-10-5-75-70-79-79-4-8-4-23-1-32 3-10 14-20 24-24 11-4 16-4 28-1 8 3 12 5 44 38 22 22 37 38 39 42a41 41 0 0 1-19 55c-10 5-25 5-36 1" horiz-adv-x="1000" />

<glyph glyph-name="comment-2-text" unicode="&#xe865;" d="M188 723c-47-8-85-42-100-88l-4-12v-462l4-13a130 130 0 0 1 85-85c11-4 13-4 95-5 91-1 87 0 97-11a37 37 0 0 0 10-25c0-48 51-87 98-75 21 6 25 9 75 58 25 26 49 48 52 49 6 3 12 4 111 4 104 1 105 1 117 5a130 130 0 0 1 84 85l4 13v462l-4 12a129 129 0 0 1-84 85l-14 4-309 0c-170 1-313 0-317-1m617-84c11-3 22-14 26-26 2-7 2-36 2-221 0-176 0-214-2-221a43 43 0 0 0-19-24l-8-4-105-1c-104-1-105-1-116-5-29-10-36-15-84-62l-40-40-1 6a115 115 0 0 1-30 61 116 116 0 0 1-36 28c-21 11-22 11-113 12l-83 1-8 4a44 44 0 0 0-19 23c-4 11-3 430 0 443 4 11 15 23 26 26 12 4 597 4 610 0m-526-83a43 43 0 0 1-24-19c-3-7-4-10-4-20 0-11 1-14 5-21 5-9 13-15 22-19 9-3 435-3 444 0 9 4 17 10 23 19 4 7 4 10 4 21 0 10 0 13-4 20a43 43 0 0 1-25 19c-10 3-431 3-441 0m0-125a43 43 0 0 1-24-19c-3-7-4-10-4-20 0-11 1-14 5-21 5-9 13-15 22-19 9-3 435-3 444 0 9 4 17 10 23 19 4 7 4 10 4 21 0 10 0 13-4 20a43 43 0 0 1-25 19c-10 3-431 3-441 0m0-125a43 43 0 0 1-24-19c-3-7-4-10-4-20 0-11 1-14 5-21 5-9 13-15 22-19 9-3 185-3 194 0 9 4 17 10 23 19 4 7 4 10 4 21 0 10 0 13-4 20a43 43 0 0 1-25 19c-10 3-181 3-191 0" horiz-adv-x="1000" />

<glyph glyph-name="comment-2" unicode="&#xe866;" d="M188 723c-47-8-85-42-100-88l-4-12v-462l4-13a130 130 0 0 1 85-85c11-4 13-4 95-5 91-1 87 0 97-11a37 37 0 0 0 10-25c0-48 51-87 98-75 21 6 25 9 75 58 25 26 49 48 52 49 6 3 12 4 111 4 104 1 105 1 117 5a130 130 0 0 1 84 85l4 13v462l-4 12a129 129 0 0 1-84 85l-14 4-309 0c-170 1-313 0-317-1m617-84c11-3 22-14 26-26 2-7 2-36 2-221 0-176 0-214-2-221a43 43 0 0 0-19-24l-8-4-105-1c-104-1-105-1-116-5-29-10-36-15-84-62l-40-40-1 6a115 115 0 0 1-30 61 116 116 0 0 1-36 28c-21 11-22 11-113 12l-83 1-8 4a44 44 0 0 0-19 23c-4 11-3 430 0 443 4 11 15 23 26 26 12 4 597 4 610 0" horiz-adv-x="1000" />

<glyph glyph-name="comment-text" unicode="&#xe867;" d="M188 723c-47-8-84-41-100-87l-4-12 0-326c-1-248 0-329 1-334 6-22 29-35 51-29 6 1 28 17 84 59 42 32 79 59 82 61 5 2 20 3 260 3l254 1 12 4c41 14 71 45 84 85l4 13v462l-4 12a129 129 0 0 1-84 85l-14 4-309 0c-170 1-313 0-317-1m617-84c11-3 22-14 26-26 2-7 2-36 2-221 0-176 0-214-2-221a43 43 0 0 0-19-24l-8-4-253-1c-235-1-254-1-263-4-20-6-35-15-78-47l-43-33v273c0 240 0 275 2 282 4 11 15 23 26 26 12 4 597 4 610 0m-526-83a43 43 0 0 1-24-19c-3-7-4-10-4-20 0-11 1-14 5-21 5-9 13-15 22-19 9-3 435-3 444 0 9 4 17 10 23 19 4 7 4 10 4 21 0 10 0 13-4 20a43 43 0 0 1-25 19c-10 3-431 3-441 0m0-125a43 43 0 0 1-24-19c-3-7-4-10-4-20 0-11 1-14 5-21 5-9 13-15 22-19 9-3 435-3 444 0 9 4 17 10 23 19 4 7 4 10 4 21 0 10 0 13-4 20a43 43 0 0 1-25 19c-10 3-431 3-441 0m0-125a43 43 0 0 1-24-19c-3-7-4-10-4-20 0-11 1-14 5-21 5-9 13-15 22-19 9-3 185-3 194 0 9 4 17 10 23 19 4 7 4 10 4 21 0 10 0 13-4 20a43 43 0 0 1-25 19c-10 3-181 3-191 0" horiz-adv-x="1000" />

<glyph glyph-name="comment" unicode="&#xe868;" d="M188 723c-47-8-84-41-100-87l-4-12 0-327c-1-217 0-329 1-334 4-15 19-27 35-29 17-2 18-1 100 60 42 32 79 59 82 61 5 2 20 3 260 3l254 1 12 4c41 14 71 45 84 85l4 13v462l-4 12a129 129 0 0 1-84 85l-14 4-309 0c-170 1-313 0-317-1m617-84c11-3 22-14 26-26 2-7 2-36 2-221 0-176 0-214-2-221a43 43 0 0 0-19-24l-8-4-253-1c-235-1-254-1-263-4-20-6-35-15-78-47l-43-33v273c0 240 0 275 2 282 4 11 15 23 26 26 12 4 597 4 610 0" horiz-adv-x="1000" />

<glyph glyph-name="comments-2" unicode="&#xe869;" d="M188 765c-47-8-85-42-100-88l-4-13v-211l4-13c16-50 60-86 110-89 21-2 30-5 39-13 11-11 12-14 13-51l1-33 5-8a42 42 0 0 1 72 0l5 8v38c0 36-1 40-4 51a126 126 0 0 1-24 44c-25 29-52 43-92 46-20 2-29 6-37 16-9 12-9 12-9 108 0 102 0 101 12 114 14 13 5 12 175 12 169 0 162 1 174-11 13-13 13-10 14-94l1-74 5-8a42 42 0 0 1 71 0l5 8v80c0 79 0 80-4 93a129 129 0 0 1-84 85l-13 4-164 0c-90 0-167 0-171-1m291-333c-47-8-85-42-99-89l-4-12v-212l4-12a129 129 0 0 1 84-85c11-4 17-4 54-5 37-1 44-2 49-4 3-2 20-18 38-35 18-18 36-35 40-37 9-5 25-9 35-9 4 0 13 1 19 3 28 8 47 31 51 62 2 18 3 19 37 20 23 1 31 2 41 5a129 129 0 0 1 84 85l4 12v212l-4 12a129 129 0 0 1-84 85l-14 5-163 0c-90 0-167-1-172-1m326-84c11-4 22-15 26-27 3-12 4-180 0-191a42 42 0 0 0-19-25c-7-4-9-4-37-5-20-1-32-2-38-4a100 100 0 0 1-60-50c-3-7-6-14-6-14-1-1-11 9-22 20-28 27-40 35-65 43-10 3-16 4-54 5-42 1-42 1-50 5a44 44 0 0 0-19 24c-4 10-4 180 0 192 3 12 15 23 25 26 12 4 306 4 319 1" horiz-adv-x="1000" />

<glyph glyph-name="comments" unicode="&#xe86a;" d="M188 765c-47-8-84-41-100-87l-4-12 0-202c-1-228-2-213 12-226 11-12 28-16 42-11 4 1 31 19 62 40 31 20 58 37 60 38 2 1 13 3 24 3 18 1 22 2 28 6 33 19 26 67-11 76-10 3-43 1-57-2-15-4-31-12-55-28l-21-15-1 150c0 171-1 162 12 176 14 13 5 12 175 12 169 0 162 1 174-11 13-12 13-13 14-73l1-53 5-9a42 42 0 0 1 71 0l5 9v59c0 57 0 60-4 72a129 129 0 0 1-84 85l-13 4-164 0c-90 0-167 0-171-1m291-292c-47-8-85-42-99-88l-4-12v-254l4-12a130 130 0 0 1 84-85l12-4 130-1c93-1 131-2 134-3 3-1 30-19 60-39 31-21 59-38 63-40 21-7 46 7 52 28 1 5 2 75 1 209l0 202-4 12c-14 41-44 71-84 84l-14 4-163 0c-90 1-167 0-172-1m326-84a37 37 0 0 0 16-10c13-13 12-5 12-175l0-151-22 15c-24 16-40 24-55 28-9 3-23 3-139 4l-129 1-8 4a44 44 0 0 0-19 24c-4 10-4 221 0 234 3 11 15 23 25 26 12 4 306 4 319 0" horiz-adv-x="1000" />

<glyph glyph-name="community" unicode="&#xe86b;" d="M354 723c-46-8-84-41-99-87-4-11-4-14-5-78l0-65-70-70c-70-71-78-81-87-101-10-22-10-26-9-141 0-105 0-105 4-117a130 130 0 0 1 85-84l13-4h628l13 4a129 129 0 0 1 85 85l4 13v545l-4 12a129 129 0 0 1-84 85l-14 4-226 0c-124 1-229 0-234-1m451-84c11-3 22-14 26-26 2-7 2-40 2-263 0-211 0-256-2-262a43 43 0 0 0-19-24l-8-5-110 0-111-1 0 115c0 124 0 125-9 148a139 139 0 0 1-11 22c-8 12-139 144-155 156a115 115 0 0 1-62 24l-13 1v40c0 48 1 54 13 65 13 13-3 12 237 13 186 0 214-1 222-3m-276-83a43 43 0 0 1-24-19c-3-7-4-10-4-20 0-12 0-14 5-21 13-21 39-27 59-14 4 3 10 9 13 14 4 7 5 9 5 21 0 10-1 13-5 20a42 42 0 0 1-49 19m167 0a43 43 0 0 1-24-19c-4-7-4-10-4-20 0-12 0-14 5-21 12-21 39-27 58-14 5 3 10 9 13 14 5 7 5 9 5 21 0 10 0 13-4 20a42 42 0 0 1-49 19m-346-119c6-3 24-20 75-71 37-37 69-70 71-73 3-7 3-8 4-121l0-114h-125l0 69-1 69-4 8a42 42 0 0 1-73 0l-4-8-1-69 0-69-48 1-48 0-8 5a49 49 0 0 0-12 10c-9 13-9 12-9 116 1 95 1 96 4 103 2 3 34 36 71 73 73 73 74 74 91 74 6 0 12-1 17-3m346-48a43 43 0 0 1-24-19c-4-6-4-9-4-20 0-11 0-14 5-21a42 42 0 0 1 71 0c5 7 5 10 5 21 0 11 0 14-4 20a42 42 0 0 1-49 19m0-166a43 43 0 0 1-24-19c-4-7-4-10-4-21 0-11 0-13 5-21a42 42 0 0 1 71 0c5 8 5 10 5 21 0 11 0 14-4 21a42 42 0 0 1-49 19" horiz-adv-x="1000" />

<glyph glyph-name="compass-2" unicode="&#xe86c;" d="M462 765a421 421 0 0 1-189-66 376 376 0 0 1-68-56 411 411 0 0 1-121-306c3-89 31-167 84-239 17-22 53-59 74-75 60-46 124-74 200-86 27-4 89-4 116 0 94 15 171 54 236 119 65 65 104 142 119 236 4 27 4 89 0 116-12 76-40 140-86 200-14 19-50 55-69 69-86 67-189 97-296 88m69-83a330 330 0 0 0 200-93 333 333 0 0 0 68-385 326 326 0 0 0-70-96 312 312 0 0 0-84-58 331 331 0 0 0-290 0 327 327 0 0 0-111 88c-84 99-101 241-43 358a333 333 0 0 0 296 187c8 0 24 0 34-1m1-159c-75-25-140-48-143-50-12-7-13-10-62-155-44-133-46-139-45-148a42 42 0 0 1 41-38c10 0 280 89 289 96 12 9 13 11 61 154 44 133 46 139 45 148a42 42 0 0 1-42 38c-4 0-53-15-144-45m78-64c0-1-12-38-27-83l-27-82-82-27c-46-15-83-27-83-26-1 1 52 160 54 164 1 1 159 55 163 55 1 0 2-1 2-1" horiz-adv-x="1000" />

</font>
</defs>
</svg>
