<svg width="24" height="24" viewBox="0 0 24 24" fill="none" xmlns="http://www.w3.org/2000/svg">
<path fill-rule="evenodd" clip-rule="evenodd" d="M20.2517 15.4702L20.6721 15.6745C21.0447 15.8556 21.4935 15.7004 21.6745 15.3279C21.8556 14.9553 21.7004 14.5065 21.3279 14.3255L20.9972 14.1647" fill="black"/>
<path d="M3.73415 11.8463L3.73303 11.8413C3.64557 11.4372 3.24735 11.18 2.84284 11.2667C2.43782 11.3534 2.17993 11.7524 2.26672 12.1575L2.26695 12.1585L2.26735 12.1604L2.26842 12.1652L2.27173 12.18C2.27446 12.1919 2.27826 12.2082 2.2832 12.2286C2.29308 12.2693 2.30753 12.3263 2.32717 12.3978C2.36641 12.5409 2.42648 12.7424 2.51224 12.9876C2.62588 13.3126 2.78547 13.7167 3.0028 14.1647L2.67213 14.3255C2.2996 14.5065 2.14439 14.9553 2.32546 15.3279C2.50654 15.7004 2.95534 15.8556 3.32787 15.6745L3.74837 15.4702C4.08823 15.9803 4.50136 16.5053 5.00019 17.0052L3.98767 17.9523C3.68517 18.2352 3.66931 18.7098 3.95226 19.0123C4.23521 19.3148 4.70982 19.3307 5.01233 19.0477L6.14941 17.9842C6.67647 18.3629 7.27117 18.7041 7.94108 18.9836L7.3341 20.1549C7.14352 20.5227 7.28717 20.9753 7.65494 21.1659C8.02271 21.3565 8.47534 21.2128 8.66591 20.8451L9.38693 19.4536C9.96585 19.5926 10.5861 19.6868 11.25 19.7274V21C11.25 21.4142 11.5858 21.75 12 21.75C12.4142 21.75 12.75 21.4142 12.75 21V19.7274C13.4139 19.6868 14.0342 19.5926 14.6131 19.4536L15.3341 20.8451C15.5247 21.2128 15.9773 21.3565 16.3451 21.1659C16.7128 20.9753 16.8565 20.5227 16.6659 20.1549L16.0589 18.9835C16.7222 18.7067 17.3132 18.3687 17.8383 17.9928L18.9753 19.1061C19.2713 19.3959 19.7461 19.3909 20.0359 19.0949C20.3257 18.7989 20.3207 18.3241 20.0247 18.0343L18.9869 17.0182C19.4919 16.5142 19.909 15.9847 20.2517 15.4702L20.6721 15.6745C21.0447 15.8556 21.4935 15.7004 21.6745 15.3279C21.8556 14.9553 21.7004 14.5065 21.3279 14.3255L20.9972 14.1647C21.2145 13.7167 21.3741 13.3126 21.4878 12.9876C21.5735 12.7424 21.6336 12.5409 21.6728 12.3978C21.6925 12.3263 21.7069 12.2693 21.7168 12.2286C21.7217 12.2082 21.7255 12.1919 21.7283 12.18L21.7316 12.1652L21.7327 12.1604L21.7334 12.1571C21.8201 11.7521 21.5622 11.3534 21.1571 11.2667C20.7522 11.1799 20.3536 11.438 20.2666 11.8429L20.2659 11.8463L20.2591 11.8747C20.2526 11.9017 20.2418 11.9443 20.2263 12.0009C20.1952 12.1142 20.1452 12.2827 20.0718 12.4924C19.9248 12.9129 19.6859 13.4937 19.3217 14.1253C18.8817 14.888 18.2649 15.7146 17.4154 16.4245C16.7125 17.0119 15.8463 17.523 14.7782 17.8537C13.9798 18.1009 13.06 18.25 12 18.25C10.94 18.25 10.0202 18.1009 9.22182 17.8537C8.15962 17.5249 7.29266 17.0153 6.58719 16.4266L6.58059 16.421C5.73207 15.7113 5.11767 14.887 4.67835 14.1253C4.31408 13.4937 4.0752 12.9129 3.92816 12.4924C3.8548 12.2827 3.80477 12.1142 3.7737 12.0009C3.75817 11.9443 3.74741 11.9017 3.74087 11.8747L3.73415 11.8463Z" fill="black"/>
</svg>
