<svg width="24" height="24" viewBox="0 0 24 24" fill="none" xmlns="http://www.w3.org/2000/svg">
<path fill-rule="evenodd" clip-rule="evenodd" d="M9.59607 5.78274C10.6438 3.89676 13.3562 3.89676 14.4039 5.78274L21.0049 17.6645C22.0232 19.4974 20.6978 21.75 18.601 21.75H5.39904C3.3022 21.75 1.97679 19.4974 2.9951 17.6645L9.59607 5.78274ZM12.75 10C12.75 9.58579 12.4142 9.25 12 9.25C11.5858 9.25 11.25 9.58579 11.25 10V14C11.25 14.4142 11.5858 14.75 12 14.75C12.4142 14.75 12.75 14.4142 12.75 14V10ZM12 17.25C11.5858 17.25 11.25 17.5858 11.25 18C11.25 18.4142 11.5858 18.75 12 18.75H12.009C12.4232 18.75 12.759 18.4142 12.759 18C12.759 17.5858 12.4232 17.25 12.009 17.25H12Z" fill="black"/>
</svg>
