<svg width="24" height="24" viewBox="0 0 24 24" fill="none" xmlns="http://www.w3.org/2000/svg">
<path d="M4.46965 4.46967C4.63358 4.30573 4.85453 4.23355 5.06867 4.25313C5.08975 4.28899 5.11567 4.32278 5.14645 4.35355L19.6464 18.8536C19.6772 18.8843 19.711 18.9102 19.7468 18.9313C19.7664 19.1455 19.6942 19.3664 19.5303 19.5303C19.3664 19.6943 19.1455 19.7664 18.9313 19.7469C18.9103 19.711 18.8843 19.6772 18.8536 19.6464L4.35355 5.14645C4.32277 5.11566 4.28897 5.08973 4.25311 5.06865C4.23354 4.85453 4.30572 4.6336 4.46965 4.46967Z" fill="black"/>
<path d="M5.42521 7.63232C4.20979 8.89245 3.56017 10.3127 3.24779 11.1821C3.05673 11.7138 3.05673 12.2862 3.24779 12.8179C3.91156 14.6652 6.09798 19 12 19C13.5828 19 14.8985 18.6882 15.9891 18.1962L12.7087 14.9158C12.4815 14.9708 12.2441 15 12 15C10.3431 15 8.99998 13.6569 8.99998 12C8.99998 11.7559 9.02914 11.5185 9.08418 11.2913L5.42521 7.63232Z" fill="black"/>
<path d="M20.7522 12.8179C20.4398 13.6873 19.7902 15.1075 18.5748 16.3677L14.9158 12.7087C14.9708 12.4815 15 12.2441 15 12C15 10.3431 13.6568 9 12 9C11.7558 9 11.5185 9.02916 11.2913 9.08419L8.01086 5.80375C9.10152 5.31178 10.4171 5 12 5C17.902 5 20.0884 9.33485 20.7522 11.1821C20.9432 11.7138 20.9432 12.2862 20.7522 12.8179Z" fill="black"/>
</svg>
