<svg width="24" height="24" viewBox="0 0 24 24" fill="none" xmlns="http://www.w3.org/2000/svg">
<path d="M12.6716 2.66621C12.5449 2.41123 12.2848 2.25 12 2.25C11.7153 2.25 11.4551 2.41123 11.3284 2.66621L8.72234 7.90993L2.89291 8.75111C2.60975 8.79197 2.37451 8.99036 2.28644 9.26255C2.19838 9.53475 2.27283 9.83333 2.47839 10.0323L6.69348 14.1124L5.69866 19.8724C5.65011 20.1534 5.76522 20.4377 5.99565 20.6059C6.22609 20.774 6.53195 20.7969 6.78482 20.6648L12 17.9421L17.2152 20.6648C17.4681 20.7969 17.774 20.774 18.0044 20.6059C18.2348 20.4377 18.3499 20.1534 18.3014 19.8724L17.3066 14.1124L21.5217 10.0323C21.7272 9.83333 21.8017 9.53475 21.7136 9.26255C21.6255 8.99036 21.3903 8.79197 21.1071 8.75111L15.2777 7.90993L12.6716 2.66621Z" fill="black"/>
</svg>
