<svg width="24" height="24" viewBox="0 0 24 24" fill="none" xmlns="http://www.w3.org/2000/svg">
<path fill-rule="evenodd" clip-rule="evenodd" d="M16.75 5V5.25H21C21.4142 5.25 21.75 5.58579 21.75 6C21.75 6.41421 21.4142 6.75 21 6.75H19.75V19C19.75 20.5188 18.5188 21.75 17 21.75H7C5.48122 21.75 4.25 20.5188 4.25 19V6.75H3C2.58579 6.75 2.25 6.41421 2.25 6C2.25 5.58579 2.58579 5.25 3 5.25H7.25V5C7.25 3.48122 8.48122 2.25 10 2.25H14C15.5188 2.25 16.75 3.48122 16.75 5ZM8.75 5C8.75 4.30964 9.30964 3.75 10 3.75H14C14.6904 3.75 15.25 4.30964 15.25 5V5.25H8.75V5Z" fill="black"/>
</svg>
