<svg id="_1" height="512" viewBox="0 0 512 512" width="512" xmlns="http://www.w3.org/2000/svg" data-name="1"><path d="m101.676 157.02h28.28v28.28h-28.28z"/><path d="m73.396 213.58h28.28v28.28h-28.28z"/><path d="m16.836 270.14h28.28v28.28h-28.28z"/><path d="m45.116 241.86h28.28v28.28h-28.28z"/><path d="m16.836 298.42h28.28v28.28h-28.28z"/><path d="m73.396 185.3h28.28v28.28h-28.28z"/><path d="m297.204 72.18h28.28v28.28h-28.28z"/><path d="m325.484 72.18h28.28v28.28h-28.28z"/><path d="m101.676 128.74h28.28v28.28h-28.28z"/><path d="m73.396 354.98h28.28v28.28h-28.28z"/><path d="m101.676 354.98h28.28v28.28h-28.28z"/><path d="m45.116 326.7h28.28v28.28h-28.28z"/><path d="m129.956 270.14h28.28v28.28h-28.28z"/><path d="m129.956 241.86h28.28v28.28h-28.28z"/><path d="m129.956 298.42h28.28v28.28h-28.28z"/><path d="m129.956 326.7h28.28v28.28h-28.28z"/><path d="m101.676 213.58h28.28v28.28h-28.28z"/><path d="m73.396 270.14h28.28v28.28h-28.28z"/><path d="m73.396 241.86h28.28v28.28h-28.28z"/><path d="m73.396 298.42h28.28v28.28h-28.28z"/><path d="m73.396 326.7h28.28v28.28h-28.28z"/><path d="m382.044 157.02h28.28v28.28h-28.28z"/><path d="m410.324 213.58h28.28v28.28h-28.28z"/><path d="m466.884 270.14h28.28v28.28h-28.28z"/><path d="m438.604 241.86h28.28v28.28h-28.28z"/><path d="m466.884 298.42h28.28v28.28h-28.28z"/><path d="m410.324 185.3h28.28v28.28h-28.28z"/><path d="m382.044 128.74h28.28v28.28h-28.28z"/><path d="m410.324 354.98h28.28v28.28h-28.28z"/><path d="m382.044 383.26h28.28v28.28h-28.28z"/><path d="m353.764 411.54h28.28v28.28h-28.28z"/><path d="m325.484 411.54h28.28v28.28h-28.28z"/><path d="m297.204 411.54h28.28v28.28h-28.28z"/><path d="m268.924 411.54h28.28v28.28h-28.28z"/><path d="m382.044 354.98h28.28v28.28h-28.28z"/><path d="m438.604 326.7h28.28v28.28h-28.28z"/><path d="m353.764 270.14h28.28v28.28h-28.28z"/><path d="m353.764 241.86h28.28v28.28h-28.28z"/><path d="m353.764 298.42h28.28v28.28h-28.28z"/><path d="m353.764 326.7h28.28v28.28h-28.28z"/><path d="m382.044 213.58h28.28v28.28h-28.28z"/><path d="m410.324 270.14h28.28v28.28h-28.28z"/><path d="m410.324 241.86h28.28v28.28h-28.28z"/><path d="m410.324 298.42h28.28v28.28h-28.28z"/><path d="m410.324 326.7h28.28v28.28h-28.28z"/><path d="m268.924 72.18h28.28v28.28h-28.28z"/><path d="m240.644 72.18h28.28v28.28h-28.28z"/><path d="m186.516 72.18h28.28v28.28h-28.28z"/><path d="m214.796 72.18h28.28v28.28h-28.28z"/><path d="m158.236 72.18h28.28v28.28h-28.28z"/><path d="m129.956 100.46h28.28v28.28h-28.28z"/><path d="m353.764 100.46h28.28v28.28h-28.28z"/></svg>