<svg width="24" height="24" viewBox="0 0 24 24" fill="none" xmlns="http://www.w3.org/2000/svg">
<path d="M9 12H11M11 12V5H15M11 12H15M11 12V19H15M5 11H5.00898M19 3H19.009M19 10H19.009M19 18H19.009M4 14C4 13.4477 4.44772 13 5 13C5.55228 13 6 13.4477 6 14H4ZM18 6C18 5.44772 18.4477 5 19 5C19.5523 5 20 5.44772 20 6H18ZM18 13C18 12.4477 18.4477 12 19 12C19.5523 12 20 12.4477 20 13H18ZM18 21C18 20.4477 18.4477 20 19 20C19.5523 20 20 20.4477 20 21H18Z" stroke="black" stroke-width="2" stroke-linecap="round" stroke-linejoin="round"/>
</svg>
