<svg width="24" height="24" viewBox="0 0 24 24" fill="none" xmlns="http://www.w3.org/2000/svg">
<path fill-rule="evenodd" clip-rule="evenodd" d="M13.3644 3.9158C12.5189 3.43269 11.4811 3.43269 10.6356 3.9158L4.6279 7.34878C4.39421 7.48231 4.25 7.73082 4.25 7.99996V15.8393C4.25 16.8262 4.77879 17.7374 5.63562 18.227L11.6279 21.6511C11.8585 21.7829 12.1415 21.7829 12.3721 21.6511L18.3644 18.227C19.2212 17.7374 19.75 16.8262 19.75 15.8393V7.99996C19.75 7.73082 19.6058 7.48231 19.3721 7.34878L13.3644 3.9158ZM11.3798 5.21816C11.7641 4.99857 12.2359 4.99857 12.6202 5.21816L17.4883 7.99996L12 11.1362L6.51167 7.99996L11.3798 5.21816ZM12.75 19.7076V12.4352L18.25 9.29235V15.8393C18.25 16.2318 18.066 16.598 17.7591 16.8325C17.7152 16.866 17.6689 16.8968 17.6202 16.9246L12.75 19.7076Z" fill="black"/>
</svg>
