<svg width="24" height="24" viewBox="0 0 24 24" fill="none" xmlns="http://www.w3.org/2000/svg">
<path fill-rule="evenodd" clip-rule="evenodd" d="M8.12906 20.9386C7.14451 20.4463 6.25 19.6275 6.25 18.5V5.5C6.25 4.37252 7.14451 3.55369 8.12906 3.06141C9.15847 2.54671 10.5281 2.25 12 2.25C13.4719 2.25 14.8415 2.54671 15.8709 3.06141C16.8555 3.55369 17.75 4.37252 17.75 5.5V18.5C17.75 19.6275 16.8555 20.4463 15.8709 20.9386C14.8415 21.4533 13.4719 21.75 12 21.75C10.5281 21.75 9.15847 21.4533 8.12906 20.9386ZM7.75 5.5C7.75 5.24677 7.97478 4.8156 8.79988 4.40305C9.58011 4.01294 10.7105 3.75 12 3.75C13.2895 3.75 14.4199 4.01294 15.2001 4.40305C16.0252 4.8156 16.25 5.24677 16.25 5.5C16.25 5.75323 16.0252 6.1844 15.2001 6.59695C14.4199 6.98706 13.2895 7.25 12 7.25C10.7105 7.25 9.58011 6.98706 8.79988 6.59695C7.97478 6.1844 7.75 5.75323 7.75 5.5ZM15.2001 17.4031C16.0252 17.8156 16.25 18.2468 16.25 18.5C16.25 18.7532 16.0252 19.1844 15.2001 19.5969C14.4199 19.9871 13.2895 20.25 12 20.25C10.7105 20.25 9.58011 19.9871 8.79988 19.5969C7.97478 19.1844 7.75 18.7532 7.75 18.5C7.75 18.2468 7.97478 17.8156 8.79988 17.4031C9.58011 17.0129 10.7105 16.75 12 16.75C13.2895 16.75 14.4199 17.0129 15.2001 17.4031Z" fill="black"/>
</svg>
