<svg width="24" height="24" viewBox="0 0 24 24" fill="none" xmlns="http://www.w3.org/2000/svg">
<path fill-rule="evenodd" clip-rule="evenodd" d="M12.6387 2.60693C12.5022 2.38512 12.2604 2.25 12 2.25C11.7395 2.25 11.4977 2.38512 11.3612 2.60693L3.88854 14.7501C3.43242 15.4913 3.35407 16.4046 3.67729 17.2127L5.30363 21.2785C5.41753 21.5633 5.69331 21.75 5.99999 21.75H18C18.3067 21.75 18.5825 21.5633 18.6964 21.2785L20.3227 17.2127C20.6055 16.5056 20.5809 15.718 20.2647 15.0356C20.2196 14.9381 20.1685 14.8427 20.1114 14.7501L12.6387 2.60693ZM7.04056 20.25L12 5.37171L16.9594 20.25H7.04056ZM18.93 16.6556L18.064 18.8204L14.7656 8.92518L18.834 15.5362C19.0413 15.8731 19.0769 16.2883 18.93 16.6556Z" fill="black"/>
</svg>
