<svg enable-background="new 0 0 960 960" height="512" viewBox="0 0 960 960" width="512" xmlns="http://www.w3.org/2000/svg"><g id="Layer_3" display="none"><g display="inline"><path d="m774.6 849.3c5.6-159.2-5.5-338.1-6.8-497.2h-.5c.2-18.8-5.9-39.1-22-45.7-26.7-10.7-49.1 4.9-57.7 31.1l-1.2-.5c-6.2-46.1 15.8-226.7-20.1-244-7.6-4-27.8-10.5-37.9 8.3-29.1 54-4 136.7-35.3 189.5-7.3 12.3-22.8 16.4-30.5-2.3-21.5-51.9-14.6-127.9-34.2-181.5-10.1-27.6-51-37.2-56.5 14.8-8.6 34.5 9.7 179.4-33.4 184.9-5.2 0-15.1-3.5-17.8-12.3-17.9-56.7-20.1-119.6-41.8-164.6-24.4-32.8-55.4-9-60.6 25.5-11.6 102.3 12.9 212.2 20.6 314.1l.4.3c-54.1 95-32.4 269-37.9 380.2-.2 27.8 473.2 27.3 473.2-.6z" fill="#ffcbb1"/><g fill="#7d6c5d"><path d="m310 849.5c-.9-97.9.1-201 9.4-296.1 2.3-18 7.6-40.3 13.9-54.9 3.9-9.7 12.9-24.6 17.4-30.1 7.1-9.5 20.9-22.5 27.6-27.5 31.4-24.3 70.2-36.9 107.8-41.9 39.8-5.1 80.1-3.5 120.1-1.1 12.5.7 27.1 3 37.5 7.3 3.7 1.6 7.4 3.6 10.7 5.9.5.3 2.6 2 1 .7 2.3 2 4.6 4 6.4 6.4 5.9 7.7 7 20.9 3.6 31.6-.8 2.6-2.7 5-4.1 7.3-.3.4-1.9 2.6-.8 1.1-2.6 3.3-5.5 6.4-8.8 9-2.6 2.1-20.9 12.1-25.4 13.6-54 22.4-118.7 14-167.5 49.8-6.9 6.2-23.2 16-14.7 26.4 8.5 7.2 13.6-1.7 19.2-7.3 51.7-45 143.4-24.6 201.7-70.6 19.4-15.2 26-44.1 14.4-66-13.6-24-43.5-30.6-69-32.5-100.7-8.5-227.6-3.2-285.1 94-35.6 68.3-26.9 149.1-32.1 223.7-1.5 50.4-1.8 100.8-1.1 151.2.5 11.4 17.6 11.8 17.9 0z"/><path d="m347.5 469.3c-8.4-95.3-25.8-190.5-23.6-286.5.3-14 3.1-30.6 7-39.9 1.9-4.4 4.1-8.6 7-12.3-1.3 2-.8 1-.3.5 1.5-1.8 3.1-3.4 4.9-4.9 1.1-.9-.6.5-.7.5 4.7-3.1 3.5-2.5 8.3-3.8 1.7-.4-2.2.2-.5 0 1.7-.1 3.3-.1 4.9 0s-.6 0-.7-.1c5.7 1.3 5.9 1.5 11 4.8 1.4 1-1.4-1.2.1.1 2 1.7 3.9 3.6 5.6 5.6.9 1.1.6 0-.1-.2 1.8 2.2 3.1 4.9 4.3 7.5.5 1-.1 1.1-.1-.3 18.7 52.1 21.1 109 39.5 161.2 13.1 21.6 43.3 16.3 51.2-7 16.1-49.5 9.7-103.3 14-154.7.4-11.9 2.4-27.7 4.9-33.3 3.2-6.5 3.2-6.6 7.2-10.5.7-.6 2-1.2-.5.3 4.7-2.9 2-1.8 6.9-3.1.9-.2 2.4-.1-.8.1 6.1-.2 3.5-.4 9.7 1.4 1.3.5-2.3-1-1.1-.4 8 4.4 8.5 5.1 13.1 12.7 5.3 11.3 10.8 37.9 13 56 5.2 36.5 6.3 86.5 21.1 125.1 4.2 14.9 19.5 27.3 34.9 19.2 23.7-15.1 27.1-50.2 30.5-75.9 4.2-41.9-.8-81.1 14.3-119.1-.4 1-.5 1.2-.4 1.1 1.6-3.8 3.6-8.2 6.1-11.7-.3.3-.5.7-.8 1 .3-.9 5.8-5.1 2.3-2.5 1.2-.7 2.6-1.4 3.7-2.2 0 0-2.2.8-1 .4 1.5-.6 3-.9 4.5-1.2 1.1-.2-2.5.3-1 .1 1.6-.2 3.2-.2 4.7-.1 3.6.5 8.5 1.3 13.8 5.1 0 0-1.8-1.5-.9-.7 1.4 1.2 2.7 2.5 3.9 4-2-2.2-.4-.5.1.2 1.1 1.7 2.1 3.4 2.9 5.2 1 2.1-.7-1.8.2.3 1.7 4.3 2.8 8.9 3.6 13.4.2.6.9 6.5.5 2.8 4.6 69.6.8 139.5 2.4 209.2-.1 11.4 17.8 11.5 17.7 0-.6-52.4.1-104.7-.4-157.1-1-26.7 2.5-55.5-9.8-80.1-11.4-22.2-48.6-28.3-62.6-5-25.1 44.6-15.6 98.2-22.5 147.1-.6 5.9-4.6 25.1-8.9 34.6 0-.1.9-2 .3-.7-1.9 4.5-4.4 8.7-6.9 12.9 1.1-2 1-1.2.5-.6-1 1.2-2.2 2.3-3.4 3.3 2.1-2 .7-.5-.1 0-.5.3-1.1.6-1.7.9-1.2.6 1.2-.5 1.1-.4-.7.4-1.6.5-2.4.8-.4.1-1.7.3.1 0 2.5-.3-1.2 0-1.7-.1-1.3 0 1.4.1 1.3.2-.8 0-1.7-.6-2.5-.7 1.9.3 1.8.9.9.3-.6-.3-1.3-.7-1.8-1.2 2 1.2 1.3 1.1.8.6-.8-.7-1.5-1.5-2.2-2.3-6-8-14.8-48-15.9-61.5-6-41.6-6-84.9-20.7-124.7-12.4-32.7-55.5-38.4-68.4-2.8-4.7 11.3-5.3 23.9-6.1 35.9-2.5 39.8-2.2 92-6.5 125.8-1.1 8.4-2.7 16.8-5.7 24.7-.2.6-.9 1.7.2-.5-1.2 2.8-2.6 5.5-4.4 7.9 0-.1 1.4-1.7.5-.7s-1.8 2-2.8 2.9c-1.2 1.1 1.5-1 .6-.4s-1.8 1.2-2.8 1.7c-1.4.7 1.8-.5.7-.3-.3.2-4 .9-2.1.6 1.8-.2-1 0-1.5 0s-2.3-.2-.4 0c1.9.3-.2-.1-.6-.2-.9.1-5.7-2.4-2.2-.6-1.1-.7-2.4-1.3-3.5-2-1.4-.9 1.3 1.2.5.4-.5-.5-1.1-.9-1.5-1.5-.6-.7-1.2-1.4.2.3-.3-.7-.9-1.4-1.3-2.1-.4-.6-.2-1.2.3.7-10.4-34.1-16-69.4-23.5-104.2-6.9-24.6-8.3-53.5-27.2-72.3-47.5-37.4-73.7 25-72.6 65.9-2.9 77.6 11.1 154.5 17.6 231.6 1.9 18.5 3.9 36.9 6.1 55.3.3 2.4.8 4.5 2.6 6.3 4.8 5.6 15.6 1.5 15-6.1z"/><path d="m672.9 404.4c1.9-12.7 5.1-25.2 10.1-37.1-.3.7-.6 1.4-.9 2.1 8.4-15.8 14.1-33.1 24.1-48-.5.6-.9 1.2-1.4 1.8 1.8-2.3 3.8-4.4 6.2-6.3-.6.5-1.2.9-1.8 1.4 2.4-1.8 5-3.3 7.8-4.5-.7.3-1.4.6-2.1.9 3.3-1.4 6.7-2.2 10.2-2.7-.8.1-1.6.2-2.4.3 3.9-.5 7.9-.5 11.8 0-.8-.1-1.6-.2-2.4-.3 3.7.5 7.4 1.5 10.9 2.9-.7-.3-1.4-.6-2.1-.9 2.2.9 4.2 2.1 6 3.5-.6-.5-1.2-.9-1.8-1.4 2.1 1.7 4 3.6 5.7 5.7-.5-.6-.9-1.2-1.4-1.8 2.1 2.8 3.8 5.9 5.2 9.1-.3-.7-.6-1.4-.9-2.1 2.1 5 3.4 10.3 4.1 15.7-.1-.8-.2-1.6-.3-2.4 1 7.2.9 14.5 0 21.8.1-.8.2-1.6.3-2.4-6.6 39.5-11.9 79.8-27.5 117 .3-.7.6-1.4.9-2.1-2.6 6.1-5.1 12.3-7.7 18.5.3-.7.6-1.4.9-2.1-3.8 9.1-8.3 18-14.4 25.9.5-.6.9-1.2 1.4-1.8-2.9 3.8-6.2 7.2-10 10.1.6-.5 1.2-.9 1.8-1.4-2.6 2-5.5 3.7-8.5 5 .7-.3 1.4-.6 2.1-.9-2.7 1.1-5.5 1.9-8.4 2.3.8-.1 1.6-.2 2.4-.3-3.2.4-6.5.4-9.7 0 .8.1 1.6.2 2.4.3-3.9-.6-7.7-1.6-11.4-3.2.7.3 1.4.6 2.1.9-2.5-1.1-4.8-2.4-6.9-4.1.6.5 1.2.9 1.8 1.4-2.3-1.8-4.4-3.9-6.2-6.3.5.6.9 1.2 1.4 1.8-2.4-3.1-4.4-6.6-5.9-10.3.3.7.6 1.4.9 2.1-1.9-4.5-3.1-9.1-3.8-13.9.1.8.2 1.6.3 2.4-.6-4.3-.7-8.8-.1-13.1-.1.8-.2 1.6-.3 2.4.4-2.8 1-5.5 2.1-8.1-.3.7-.6 1.4-.9 2.1 6.7-10.2-8.4-20.4-14.9-9.9-5.9 12.5-5 27.3-.6 40.2 8 28.7 44.7 43.2 69.4 25.7 18.1-12.6 26.7-33.8 34.6-53.6-.3.7-.6 1.4-.9 2.1 16.4-35.6 22.5-74.6 28.8-113 4.3-20.5 4.9-43.5-6.4-62-12.5-21.1-42.7-24.9-62.9-13.4-19.6 11.8-23.9 36.2-34.8 54.7-4 9.7-22.6 51.7-7.1 55.2 4.7 1.6 10.1-1.3 11.1-5.9z"/><path d="m758.9 352.1c1.3 164.5 12.5 328.8 6.9 493.2-3 13.7 15.7 19 17.7 4.3 5.6-161-5.1-321.9-6.5-483-.8-8.3 2.8-22.7-9.2-23.3-4.7.1-9 3.8-8.9 8.8z"/></g></g></g><g id="line"><path d="m540 720h90v30c-26.7 0-63.3 0-90 0zm-90 30v-30c-15 0-45 0-60 0v30zm-90 90c0-37.6 0-82.4 0-120h30v-30c-15 0-45 0-60 0v150zm-30-150v-30h-30v30zm60-90h30v-30h-30zm30-30h120v-30c-19.9 0-120 0-120 0zm-120-30h-30v120h30c0-37.6 0-82.4 0-120zm30-30h-30v30h30zm240-120v90h-30v60h30v-30h30c0-15 0-105 0-120zm-180 60v30h150v-30s-123.3 0-150 0zm0 30h-30s0-213.9 0-300h-30v330h60zm210 30v30h60v150h-30v30h30v120h30c0-149.4 0-300.6 0-450h-30v120c-15 0-45 0-60 0zm60-120v-30h-30c0-51.2 0-128.6 0-180h-30v210zm-120 0c0-63.4 0-146.3 0-210h60v-30c-15 0-45 0-60 0v-30h-30v270zm-120 0h30c0-85.8 0-184.2 0-270h-30v30c-15 0-45 0-60 0v30h60zm90-300c-15 0-45 0-60 0v30h60z"/></g><g id="color" display="none"><g display="inline"><path d="m660 390v-30h-30c0-51.2 0-128.6 0-180h-30v-30c-15 0-45 0-60 0v-30h-30v-30c-15 0-45 0-60 0v30h-30v30c-15 0-45 0-60 0v30h-30v330h-30v30h-30v120h30v30h30v150h30v30h30v30h240v-30h30v-30h30c0-149.4 0-300.6 0-450z" fill="#ffcca1"/><g><path d="m540 720v30h90v-30c-15 0-90 0-90 0z" fill="#f0a595"/><path d="m450 750v-30c-15 0-45 0-60 0v30z" fill="#f0a595"/><path d="m300 660h30v30h-30z" fill="#806752"/><path d="m390 570h30v30h-30z" fill="#f0a595"/><path d="m420 540v30h120v-30c-19.9 0-120 0-120 0z" fill="#f0a595"/><path d="m270 660h30c0-37.6 0-82.4 0-120h-30z" fill="#806752"/><path d="m300 510h30v30h-30z" fill="#806752"/><path d="m600 390h-30v90h-30v60h30v-30h30c0-15 0-105 0-120z" fill="#f0a595"/><path d="m390 450v30h150v-30s-123.3 0-150 0z" fill="#f0a595"/><g fill="#806752"><path d="m360 180h-30v330h30s0-243.9 0-330z"/><path d="m600 390h60v-30h-30c0-51.2 0-128.6 0-180h-30z"/><path d="m510 120v-30c-15 0-45 0-60 0v30z"/></g></g><path d="m360 480h30v30h-30z" fill="#f0a595"/><g><path d="m420 390h30c0-56.9 0-119.4 0-180h-30z" fill="#f0a595"/><path d="m420 120v30c-15 0-45 0-60 0v30h60v30h30c0-30.8 0-61.1 0-90z" fill="#806752"/></g><g><path d="m510 390h30c0-53.8 0-121.7 0-180h-30z" fill="#f0a595"/><path d="m540 150v-30h-30v90h30c0-10.3 0-20.4 0-30h60v-30c-15 0-45 0-60 0z" fill="#806752"/></g><g><path d="m330 690v150h30c0-37.6 0-150 0-150-11.3 0-22.5 0-30 0z" fill="#806752"/><g fill="#f0a595"><path d="m330 660v30h30v-30c-7.5 0-18.7 0-30 0z"/><path d="m360 690v30h30v-30c-7.5 0-18.7 0-30 0z"/><path d="m300 630v30h30v-30c-7.5 0-18.7 0-30 0z"/></g></g><g><path d="m630 690h30v30h-30z" fill="#f0a595"/><path d="m600 510v30h60v-30c-15 0-45 0-60 0z" fill="#f0a595"/><path d="m660 390v450h30c0-149.4 0-300.6 0-450z" fill="#806752"/></g><g fill="#ffe0c7"><path d="m390 870h240v30h-240z"/><path d="m360 840h30v30h-30z"/><path d="m630 840h30v30h-30z"/><path d="m390 480h150v30h-150z"/><path d="m300 540h30v30h-30z"/><path d="m330 510h60v30h-60z"/><path d="m600 390h60v30h-60z"/></g></g></g></svg>