<?xml version="1.0" encoding="utf-8"?>
<!-- Generator: Adobe Illustrator 26.3.1, SVG Export Plug-In . SVG Version: 6.00 Build 0)  -->
<svg version="1.1" id="background" xmlns="http://www.w3.org/2000/svg" xmlns:xlink="http://www.w3.org/1999/xlink" x="0px" y="0px"
	 viewBox="0 0 800 600" style="enable-background:new 0 0 800 600;" xml:space="preserve">
<style type="text/css">
	.st0{fill:#516FF3;}
	.st1{fill:#FFFEFF;}
	.st2{fill:#181818;}
</style>
<g>
	<path class="st0" d="M429.7,460.6c3,10.2,5.1,23.7,3.4,29.3c-1.7,5.6-3.7,4.8-26,4.5c-22.3-0.4-33.7,1.1-35.5-0.5
		c-1.7-1.6-3.1-5.3,3.4-10.7c6.6-5.4,23-13.7,23.7-14.3c0.7-0.6,0.7-1.1,0.7-1.1l2.6-3.6L429.7,460.6z"/>
	<path class="st0" d="M352.4,468.9c-3.6,9.7-12.5,22.5-17.3,24.6c-4.8,2.1-9.3,0.7-29.8-11.5c-20.5-12.2-24.3-21.7-20.4-25.6
		c3.8-3.8,12.6-5.8,24.3-5.7c11.7,0.1,17.6-0.4,19.9-3C331.3,444.9,352.4,468.9,352.4,468.9z"/>
	<path class="st1" d="M379.1,434.9c8.3,21.1,18.7,32.1,20.2,32.8c1.5,0.7,29.7-5.2,30.4-7.1c0.7-1.9-1.1-34.1-12.8-58.5L379.1,434.9
		z"/>
	<path class="st2" d="M448.4,482.5c-0.1,3.3,2.5,6,5.9,6c3.4,0,6.3-2.7,6.4-6c0.1-3.3-2.5-6-5.9-6
		C451.4,476.6,448.5,479.2,448.4,482.5z"/>
	<path class="st2" d="M478,482.5c-0.1,3.3,2.5,6,5.9,6c3.4,0,6.3-2.7,6.4-6c0.1-3.3-2.5-6-5.9-6S478.2,479.2,478,482.5z"/>
	<path class="st2" d="M517.7,482.5c-0.1,3.3,2.5,6,5.9,6c3.4,0,6.3-2.7,6.4-6c0.1-3.3-2.5-6-5.9-6
		C520.7,476.6,517.9,479.2,517.7,482.5z"/>
	<path class="st2" d="M446.7,478.5c0.9-4.1,27-8.4,39.4-8.4c1.2,0-1.8-75.8-0.8-76.6c1-0.8,8.3,0.7,8.3,0.7s-0.9,74.5,0.5,74.7
		c1.4,0.2,34,3.1,38.5,8.7c2.9,3.6-4.4,1.8-42.2,2.6C452.8,480.9,446.3,480.6,446.7,478.5z"/>
	<path class="st1" d="M560.3,399.8c11.3-3.6,15.3-10.2,12.4-23.2c-3-13-15.8-15.7-15.8-15.7l-17.3,4.6l-98.1,12.3
		c0,0-11,11.7-1.8,20.5c9.2,8.8,23.3,9.3,48.7,7.5C513.6,404,545.6,404.4,560.3,399.8z"/>
	<path class="st1" d="M540,375.9c-3.8,8.7-5.5,23.2-2.4,28.9c3,5.7,8.2,7.9,8.2,7.9s-3.7,6.4-3.9,7.6c-0.2,1.2,4.4,0.8,9.1-6.5
		c0,0,8.6,2.5,13-3.9c2-2.9,4.1-12,1.6-19.9c-2.3-7.1-5.5-13.3-5.5-13.3L540,375.9z"/>
	<path class="st1" d="M443.1,381.3c47-0.7,85.1-5.7,111.5-21.1l-6.5-57.8c0,0-79,4.7-103.6,7.2c-24.7,2.5-63.2,11.8-79.1,31.6
		c-14.7,18.4-5.9,46.4-5.9,46.4S324.6,437.5,325,446c0.3,6.4,14.4,22.8,27.4,22.8c2.7,0,13.6-13,28.2-26.1
		C395.1,429.6,432.8,397.3,443.1,381.3z"/>
	<path class="st1" d="M533.3,200.3c13.7-9.7,34.5-17.2,55.9-1.1c31.3,23.7,6.5,116.3-19.3,141.1L533.3,200.3z"/>
	<path class="st0" d="M562,379.6c4.7-9.2,15.6-35.5,13.6-77.1c-2.1-41.6-12.1-78.6-33.1-100c-21-21.3-61.3-35.7-97.7-29.1
		c-13.9,2.5-41.6,13.7-69.2,35.2c-31.6,24.6-50.3,53.4-43,71.2c7.3,17.8,16.6,22.4,34.2,15.1c17.6-7.3,67.4-43.6,71.3-46.3
		c0,0,21.5,14.8,27,54.9l65.5,2.7c0,0,0.6,4.5,3.9,26.4c3.3,21.9,1.7,42.2,3,44.5C542.5,385.7,559.5,384.6,562,379.6z"/>
	<path class="st1" d="M396.4,174.3c-0.6,15,0.8,26.6,6.7,32.8c5.9,6.2,13.2,6.6,18.2,0.7c5-5.9-21.7-35-21.7-35L396.4,174.3z"/>
	<path class="st1" d="M447.6,174.3c-0.5,4.4,1.7,11.4,8.5,13.5c1.2,0.4,5.9,7.7,2,15.4c-3.4,6.7-8.6,8.3-9.9,6.9
		c-3-3.3-6.6-5.4-15.2-5.9C423.6,203.6,447.6,174.3,447.6,174.3z"/>
	<path class="st1" d="M397.5,174.8c1.9,7.8,8,24.7,15.7,30.2c7.8,5.5,17.3,5.4,23.2-1.7c5.9-7.1,6.4-14.3,6.5-20.5
		c0,0,2.1-2.3,4.1-7c1.5-3.4,3-9.8-2.2-11.2c-5.5-1.4-15.9-15.5-15.9-15.5l-30.5,10.7L397.5,174.8z"/>
	<path class="st2" d="M397.2,179c3.7-1.7,7.2-0.4,8.4-6.5c1.2-6.1,2.9-10.4,6-10.4c3.1-0.1,3.8,4.1,6.9,3.4c3.1-0.7,4.9-4.1,6.1-6
		c1.2-1.9,5.8-1.2,6.9,4.9c1.2,6.1,1.8,9.5,5.3,10.1c3.5,0.7,3.5-2.6,4.7-6c1.2-3.4,3.4-3.8,3.4-3.8s0.1-12.5-5.9-20.5
		c-6-8-10.3-3.5-10.4-1.1c0,0-8.4-7.5-12.5-5.3s-3.2,5.1-5.5,5.3c-8.5,0.7-11.9,1.2-17.6,4.8c-5.7,3.6-7.8,6.7-4.8,9.3
		c3,2.6,3.7,3.5,0.3,7.2c-3.4,3.7-4.9,6.3-2.7,8c2.2,1.7,2.8,2.7,1.4,5.4c-1.4,2.7,1.1,5,4.6,4.7C395.3,182.1,394.2,180.4,397.2,179
		z"/>
	<path class="st2" d="M420.3,198.2c1.4-2.2,4.8-2.9,6.7,0C427.5,199,419.9,198.8,420.3,198.2z"/>
	<path class="st2" d="M591.2,306.1c0,8.1-1,184.2,0.2,185.2c1.2,1,10.6,0.9,10.7-0.5c0.1-2.7-0.4-184.7-0.4-184.7H591.2z"/>
	<path class="st0" d="M529.9,422.8c3.7-5.5,10.2-9.5,15.9-6.7c6.4,3.1,9.9,10,5.1,19.8c0,0-3.9-0.9-3.7-1.1
		c0.2-0.2,5.5-11.9-2.5-15.1c-8-3.2-11.5,5.8-11.5,5.8L529.9,422.8z"/>
	<path class="st0" d="M555.4,451.1c-1.1,1.7-2.3,3.1-3.6,4.2c-3.1,2.9-6.5,4.1-9.9,3l0,0c-0.4-0.1-0.7-0.3-1.1-0.5
		c-0.6-0.3-1.3-0.7-2.1-1.1c-6.3-3.6-18.4-11.6-21-14.5c-6.8-7.5,4.9-26.2,14-21.9c13.4,6.4,20.3,12.3,22.8,13.7
		c0.8,0.4,1.5,1.3,2,2.4C558.4,440.1,558.7,446.3,555.4,451.1z"/>
	<path class="st2" d="M555.4,451.1c-1.1,1.7-2.3,3.1-3.6,4.2c-3.1,2.9-6.5,4.1-9.9,3l0,0c-1-0.7-1.6-1.7-2-2.8
		c-1.3-3.9,0.8-9.9,3.8-14.2c3.8-5.4,9-7.1,12.9-4.8C558.4,440.1,558.7,446.3,555.4,451.1z"/>
	<path class="st1" d="M551.8,455.4c-3.1,2.9-6.5,4.1-9.9,3l0,0c-1-0.7-1.6-1.7-2-2.8C543.1,453.1,548.8,452.8,551.8,455.4z"/>
	<path class="st1" d="M543,461.8c-1,0.5-4.1,12.2,0.4,12.2C547.3,473.9,544.2,461.2,543,461.8z"/>
	<path class="st1" d="M539,491.3c-0.9-3.5,29.4-1.4,29.4,0C568.4,493.5,540.1,495.4,539,491.3z"/>
	<path class="st2" d="M254.5,298.9c-0.2-4.7,4.4-8.5,22.2-9.3c17.8-0.8,48.9,3,48.3,10.5C324.4,307.7,254.5,298.9,254.5,298.9z"/>
	<path class="st2" d="M276.7,292.3c0.5,1.6,13.1,0,13.1,0s-3.9-12.8-2.4-16.6c1.5-3.8-6.1-9.8-6.1-9.8l-6.8,7.5
		C274.5,273.4,274.2,283.6,276.7,292.3z"/>
	<path class="st2" d="M287.4,275.7c16.5,0,67,1.2,70.5-1.3c3.5-2.5,2.2,0-1.9-25.3c-4-25.4-11.5-65.8-13-69c-1.5-3.2-3.4-0.9-47.8-1
		s-69.4-0.4-69.6,3.3c-0.2,3.8,13.5,89.2,16.8,91.5C245.9,276.2,267.7,275.7,287.4,275.7z"/>
	<path class="st1" d="M205.8,432.5c12.2-0.6,44-0.3,44.8,1.1s-8,55.5-9.8,57.3c-1.8,1.8-18.8,0.1-24.3-0.3S203.2,432.6,205.8,432.5z
		"/>
	<path class="st1" d="M227.5,330.5c5.8-2.9,8.3,15.3,6.2,18.9C227.9,350.8,221.4,333.5,227.5,330.5z"/>
	<path class="st1" d="M235.9,357.5c0.3-7.6,4.5-21.3,9.2-18.2S246.2,355,235.9,357.5z"/>
	<path class="st1" d="M237.8,376.3c1.4-7.7,7.4-17.8,12.6-15C255.6,364,249.7,372.5,237.8,376.3z"/>
	<path class="st1" d="M236.8,362.4c-5.4-5.2-16.7-5.4-14.8-1.1C223.9,365.7,231.8,366.7,236.8,362.4z"/>
	<path class="st1" d="M251.3,394.4c-2-6.4,7.3-19,11.6-15.1C267.2,383.2,259,393.9,251.3,394.4z"/>
	<path class="st1" d="M243.9,403.6c-5.2-5.7-5.8-14-1.8-15.4C246.1,386.8,248.2,397.5,243.9,403.6z"/>
	<path class="st1" d="M236.5,409.1c4.5,3.9,17.2,2.8,15.8-1.7C250.9,402.9,241.1,406,236.5,409.1z"/>
	<path class="st1" d="M226,380.5c-2.7-7.9,0.6-12.5,4.3-11.2C234,370.5,231.2,377.5,226,380.5z"/>
	<path class="st1" d="M228.5,398.7c-1.5-7.8-6.9-12.5-10.1-9.7C215.3,391.8,219.3,398.5,228.5,398.7z"/>
	<path class="st1" d="M229,419c-5.6-4.7-14.6-4.5-13.5,0.6C216.4,424,224.1,423.8,229,419z"/>
	<path class="st2" d="M499.8,307.5c0,8.1-0.8,183.8,0.4,184.8c1.2,1,10.2,1.2,10.9,0c0.7-1.2,0.9-186.3,0.9-186.3L499.8,307.5z"/>
	<path class="st2" d="M201.2,307.5c0,8.1-0.8,183.8,0.4,184.8c1.2,1,10.2,1.2,10.9,0c0.7-1.2,0.9-186.3,0.9-186.3L201.2,307.5z"/>
	<path class="st2" d="M292.6,306.1c0,8.1-1,184.2,0.2,185.2c1.2,1,10.6,0.9,10.7-0.5c0.1-2.7-0.4-184.7-0.4-184.7H292.6z"/>
	<path class="st1" d="M616.3,298c1.8,0.1,2.1,11.1,0,11.6c-2.1,0.4-206.4,0-238.6,0s-188.6,0.1-192.5-0.1
		c-3.9-0.3-3.6-11.1-1.4-11.4c2.1-0.3,112.4-0.4,148,0c35.7,0.4,184.4-0.8,224.6-0.3C596.6,298.3,611.5,297.7,616.3,298z"/>
	<g>
		<g>
			<path class="st2" d="M426.3,175.8c-0.4-0.2-0.5-0.2-1.3,0.1c-0.4,0.2-1.1,0.5-1.9,0.7c-0.8,0.2-1.5,0.2-2,0.2
				c-0.5,0-0.9,0-1.1,0.1c-0.2,0.1-0.3,0.2-0.4,0.4c-0.1,0.2-0.1,0.4,0.1,0.6c0.2,0.2,0.5,0.4,1.2,0.5c0.6,0.1,1.6,0.1,2.5-0.1
				c0.9-0.2,1.8-0.7,2.2-1C426.7,176.5,426.7,175.9,426.3,175.8z"/>
		</g>
	</g>
	<g>
		<g>
			<path class="st2" d="M409.2,183.5c-0.4-0.1-0.6,0-1.1,0.6c-0.2,0.3-0.6,0.7-1.2,1.1c-0.5,0.4-1.1,0.7-1.5,0.9
				c-0.9,0.4-1,0.7-0.9,1.1c0.1,0.4,0.4,0.6,1.4,0.4c0.5-0.1,1.2-0.4,1.9-0.9c0.7-0.5,1.3-1.2,1.5-1.7
				C409.8,183.9,409.5,183.6,409.2,183.5z"/>
		</g>
	</g>
	<g>
		<g>
			<path class="st2" d="M419.2,190c0.1-0.2,0-0.3-0.2-0.6c-0.2-0.2-0.7-0.5-1.3-0.9c-0.1-0.1-0.3-0.2-0.4-0.4l0,0l0,0l0,0l0,0l0,0
				c0,0-0.3,0.3-0.2,0.1l0.1,0l0.1-0.1c0,0,0,0,0,0l0,0l0,0c0,0,0,0-0.1-0.1c-0.1-0.1-0.1-0.2-0.2-0.4c-0.2-0.6-0.5-1.3-0.8-2
				c-0.5-1.4-1.1-2.8-1.5-3.6c-0.5-1-0.8-1.5-1.2-1.8c-0.1-0.1-0.2-0.1-0.2-0.2c-0.1,0-0.2-0.1-0.3-0.1c-0.1,0-0.2,0.1-0.2,0.2
				c0,0.1,0,0.2-0.1,0.3c0,0,0,0.1,0,0.1c0,0.1,0,0.1,0,0.2c0,0.3,0.2,0.9,0.6,1.8c0.3,0.8,0.8,2.2,1.3,3.6c0.3,0.7,0.5,1.4,0.8,2
				c0.1,0.3,0.3,0.6,0.6,1c0.3,0.3,0.5,0.5,0.8,0.6c0.9,0.5,1.5,0.6,1.8,0.6C419,190.3,419.1,190.2,419.2,190z"/>
		</g>
	</g>
	<g>
		<g>
			<path class="st2" d="M422.3,167.3c0.2-0.3-0.2-0.8-1.5-0.8c-0.6,0-1.7,0.1-2.7,0.4c-1,0.3-2,0.8-2.6,1.2c-0.6,0.5-0.9,0.9-1,1.2
				c-0.1,0.3,0,0.4,0.2,0.6c0.4,0.3,0.6,0.2,1.7-0.4c0.5-0.2,1.3-0.6,2.2-0.9c0.9-0.3,1.8-0.5,2.3-0.6
				C422,167.7,422.1,167.6,422.3,167.3z"/>
		</g>
	</g>
	<g>
		<g>
			<path class="st1" d="M414.3,216.8c-0.2,0-0.5,0.5-1,2.2c-0.3,0.9-0.8,2.1-1.3,3.7c-0.6,1.6-1.4,3.6-2.4,6.1
				c-1,2.3-2.4,5.5-4.2,9.1c-1.8,3.6-3.9,7.6-6.2,11.5c-2.2,3.9-4.6,7.8-6.9,11.2c-1.1,1.7-2.2,3.3-3.2,4.7c-1,1.4-1.9,2.7-2.7,3.8
				c-1.9,2.5-3.3,4.5-4.6,6.1c-0.6,0.8-1.1,1.5-1.6,2.1c-0.5,0.6-0.8,1.1-1.2,1.5c-1.3,1.7-1.6,2.3-1.4,2.4c0.2,0.1,0.7-0.2,2.2-1.7
				c0.8-0.8,1.8-1.8,3-3.4c0.6-0.8,1.4-1.6,2.2-2.6c0.8-1,1.6-2.1,2.6-3.4c3.2-4.3,8.4-11.9,12.9-19.8c2.3-3.9,4.4-8,6.2-11.6
				c1.7-3.7,3.2-6.9,4.1-9.3c1-2.5,1.7-4.6,2.3-6.3c0.5-1.7,0.9-3,1-3.9C414.5,217.4,414.5,216.8,414.3,216.8z"/>
		</g>
	</g>
	<g>
		<g>
			<path class="st1" d="M567,367.9c-0.1-0.1-0.4,0-1.1,0.5c-0.2,0.1-0.3,0.3-0.5,0.5c-0.1,0.1-0.2,0.2-0.3,0.3
				c-0.1,0.1-0.3,0.2-0.4,0.3c-0.6,0.4-1.3,1-2.3,1.6c-1.8,1.2-5.4,2.7-9.3,3c-1.9,0.2-3.9,0.1-5.6,0c-1.7-0.2-3.3-0.5-4.4-0.8
				c-2.6-0.7-4.1-1.3-5-1.6c-0.9-0.3-1.2-0.3-1.3-0.2c-0.1,0.2,0,0.4,0.8,1c0.8,0.6,2.3,1.5,5,2.3c1.2,0.4,2.8,0.7,4.6,0.9
				c1.8,0.2,3.9,0.3,6,0.1c4.2-0.3,8.1-2,10-3.4c0.5-0.4,1-0.7,1.4-1c0.4-0.3,0.7-0.7,1-0.9c0.6-0.5,0.9-1.1,1.2-1.4
				C567.1,368.3,567.2,368.1,567,367.9z"/>
		</g>
	</g>
	<g>
		<g>
			<path class="st1" d="M556.9,381.5c0.3,0.2,0.8,0,1.1-1.1c0.3-1,0.4-3.7,0.3-4.7c-0.2-1.3-0.4-1.5-0.8-1.4c-0.4,0-0.7,0.3-0.7,1.5
				c0,1-0.1,3.5-0.2,4.4C556.4,381.1,556.6,381.3,556.9,381.5z"/>
		</g>
	</g>
	<g>
		<g>
			<path class="st1" d="M550,381.9c0.4-0.1,0.6-0.3,0.5-1.1c-0.1-0.7-0.5-2.5-0.7-3.3c-0.3-0.9-0.6-1-1-0.9
				c-0.4,0.1-0.6,0.3-0.6,1.2c0,0.8,0.5,2.6,0.8,3.3C549.3,381.9,549.6,382,550,381.9z"/>
		</g>
	</g>
	<g>
		<g>
			<path class="st1" d="M544,381.3c0.3-0.2,0.4-0.5,0.2-1.2c-0.3-0.7-1-2.6-1.3-3.3c-0.4-0.9-0.7-1-1.1-0.9
				c-0.4,0.1-0.6,0.4-0.4,1.4c0.2,0.9,1,2.8,1.5,3.5C543.3,381.4,543.7,381.5,544,381.3z"/>
		</g>
	</g>
	<g>
		<g>
			<path class="st1" d="M420.8,157.7c-0.2-0.1-0.3-0.1-0.5,0c-0.2,0.1-0.4,0.4-0.8,0.7c-0.3,0.3-0.9,0.5-1.7,0.2
				c-0.8-0.2-1.5-0.9-1.9-1.3c-1-0.9-1.3-1.1-1.7-0.8c-0.3,0.2-0.5,0.6,0.5,1.9c0.4,0.5,1.3,1.4,2.5,1.8c0.6,0.2,1.3,0.3,2,0.1
				c0.6-0.2,1.1-0.5,1.3-0.8c0.5-0.6,0.6-1.1,0.6-1.3C421.1,157.9,421,157.8,420.8,157.7z"/>
		</g>
	</g>
	<g>
		<g>
			<path class="st1" d="M403.7,147.9c0-0.4-0.4-0.6-2.2-0.4c-0.8,0.1-2.3,0.4-3.8,1.1c-1.4,0.6-2.7,1.8-3.2,2.6
				c-0.6,0.9-0.8,1.6-0.8,2c0,0.4,0.1,0.5,0.3,0.6c0.2,0.1,0.4,0,0.6-0.2c0.2-0.2,0.6-0.7,1.1-1.4c0.5-0.6,1.5-1.5,2.7-2
				c1.2-0.6,2.5-0.9,3.3-1.2C403.4,148.5,403.7,148.3,403.7,147.9z"/>
		</g>
	</g>
	<g>
		<g>
			<path class="st2" d="M353.2,111.1c-0.1-0.5-0.6-0.7-3.2-0.5c-0.1,0-0.1,0-0.2,0c-0.1,0,0,0-0.1,0l0,0c0,0,0,0,0,0
				c0,0,0-0.1,0.1-0.1l0,0c0,0-0.1,0.1,0.2-0.2c0.4-0.4,0.8-0.8,1.2-1.2c0.3-0.4,0.7-0.8,0.9-1.2c0.2-0.4,0.3-0.8,0.3-1.1
				c0-0.3-0.2-0.7-0.4-0.9c-0.2-0.2-0.5-0.3-0.8-0.4c-0.2,0-0.3-0.1-0.5-0.1c-0.2,0-0.3,0-0.5,0c-0.3,0-0.6,0-0.8,0
				c-0.3,0-0.6,0.1-0.8,0.1c-0.5,0.1-0.8,0.2-1.1,0.3c-0.5,0.2-0.6,0.5-0.6,0.7c0,0.3,0.2,0.5,0.7,0.6c0.3,0.1,0.6,0.1,1,0.1
				c0.2,0,0.5,0,0.8,0.1c0.2,0,0.2,0,0.2,0.1c0,0,0,0.1-0.1,0.1c-0.3,0.4-0.8,0.7-1.2,1.1c-0.8,0.7-1.5,1.4-2.3,2.2L346,111
				c-0.1,0.1-0.1,0.1-0.1,0.2l-0.1,0.4c0,0.2,0,0.3,0.1,0.5c0.1,0.3,0.2,0.4,0.3,0.5c0.1,0.1,0.3,0.2,0.6,0.3
				c1.1,0.2,2.9-0.2,3.5-0.3C352.8,112,353.3,111.6,353.2,111.1z"/>
		</g>
	</g>
	<g>
		<g>
			<path class="st2" d="M341,135.9c-0.1-0.5-1.1-0.6-5.8-0.3c-0.3,0-0.6,0-0.9,0c-0.2,0-0.3,0-0.5,0l-0.1,0c0,0,0,0,0,0l0,0
				c-0.1,0-0.1,0,0-0.1c0,0,0,0,0-0.1c0.1-0.1,0.2-0.3,0.4-0.5c0.3-0.4,0.6-0.7,0.9-1.1c0.6-0.7,1.3-1.5,2-2.2
				c0.7-0.8,1.4-1.5,2-2.2l0.5-0.6l0.2-0.3c0.1-0.1,0.3-0.3,0.4-0.5c0.3-0.4,0.6-0.7,0.7-1.1c0.1-0.3,0.1-0.7-0.1-1
				c-0.3-0.7-1-1-1.8-1.1c-1-0.1-1.2-0.1-1.7-0.1c-0.8,0-1.5,0.1-2.2,0.1c-2.8,0.3-4.5,0.7-5.4,1c-0.9,0.3-1.2,0.6-1.1,0.8
				c0,0.3,0.3,0.5,1.3,0.5c1,0.1,2.6-0.1,5.3-0.2c0.6,0,1.3,0,2,0c0.2,0,0.4,0,0.6,0l0.3,0c0,0,0,0,0,0c0,0,0,0,0,0c0,0,0,0,0,0l0,0
				l-0.2,0.2l-0.5,0.5c-0.7,0.7-1.3,1.5-2,2.2c-0.7,0.8-1.4,1.5-2,2.3c-0.3,0.4-0.6,0.8-0.9,1.2c-0.2,0.2-0.3,0.4-0.4,0.6
				c-0.2,0.3-0.5,0.7-0.7,1.1c-0.4,0.8-0.5,1.4-0.1,1.9c0.2,0.2,0.4,0.4,0.7,0.5c0.3,0.1,0.7,0.1,1,0.1c0.3,0,0.8,0,1,0
				c0.2,0,0.4,0,0.5,0c0.3,0,0.7-0.1,1-0.1C340.1,136.9,341.1,136.4,341,135.9z"/>
		</g>
	</g>
	<g>
		<g>
			<path class="st2" d="M367,156c0-0.2-0.3-0.4-1-0.4c-0.7-0.1-1.9,0-3.9,0.1c-0.2,0-0.5,0-0.7,0c-0.1,0-0.3,0-0.4,0l-0.2,0
				c0,0,0,0,0,0c0,0-0.1-0.1,0-0.1l0,0l0,0l0.2-0.2c0.3-0.3,0.6-0.5,0.9-0.8c0.6-0.5,1.3-1.1,2-1.6c0.7-0.6,1.3-1.1,2-1.8
				c0.2-0.2,0.3-0.4,0.5-0.6c0.2-0.2,0.4-0.6,0.5-0.9c0-0.1,0.1-0.2,0.1-0.4c0-0.2,0-0.2,0-0.4c0-0.2-0.1-0.4-0.2-0.5
				c-0.1-0.1-0.2-0.3-0.3-0.4c-0.1-0.1-0.2-0.2-0.3-0.2c-0.1,0-0.2-0.1-0.3-0.1c-0.2-0.1-0.3-0.1-0.5-0.1c-1.1-0.1-1.8,0-2.5,0.1
				c-0.7,0.1-1.3,0.2-1.8,0.3c-4.7,1.1-5.4,1.7-5.3,2.2c0.1,0.6,1.1,0.6,5.7-0.2c0.5-0.1,1.1-0.2,1.7-0.2c0.6-0.1,1.3-0.2,1.9-0.1
				c0,0,0.1,0,0.1,0c0,0,0,0.1,0,0c0-0.1,0.1-0.3,0.2-0.4c0.2-0.3,0.3-0.1-0.3-0.2c-0.1,0-0.1,0-0.2-0.1c0,0,0,0,0,0c0,0,0,0,0,0
				c0,0,0,0-0.1,0.1c-0.1,0.1-0.2,0.2-0.3,0.3c-0.5,0.5-1.2,1.1-1.8,1.6c-0.7,0.5-1.3,1.1-2,1.7c-0.3,0.3-0.6,0.6-1,0.9
				c-0.2,0.2-0.9,0.9-1.2,1.5c-0.3,0.6-0.2,1.2,0.1,1.7c0.2,0.2,0.4,0.4,0.7,0.5l0.4,0.2c0.2,0,0.3,0.1,0.5,0.1
				c0.3,0.1,0.6,0.1,0.8,0.1c0.2,0,0.3,0,0.5,0c0.3,0,0.6,0,0.8,0c2.2-0.2,3.4-0.6,4.1-0.9C366.9,156.5,367,156.3,367,156z"/>
		</g>
	</g>
	<g>
		<g>
			<path class="st1" d="M460.3,188.7c-0.1,0.2,0.2,0.4,0.9,1c0.7,0.7,2,1.8,3,4.5c0.4,1.2,0.8,3.1,0.8,5.2c0.1,1.1-0.1,2.2-0.1,3.4
				c-0.2,1.2-0.3,2.4-0.6,3.5c-0.1,0.6-0.4,1.1-0.6,1.7c-0.2,0.5-0.5,1-0.8,1.5c-0.6,0.9-1.3,1.8-2.1,2.5c-1.6,1.4-3.3,2.1-4.7,2.4
				c-1.6,0.3-2.9,0.3-3.9,0.2c-0.5-0.1-0.9-0.2-1.3-0.3c-0.4-0.1-0.7-0.2-1-0.3c-1-0.4-1.4-0.5-1.5-0.3c-0.1,0.2,0,0.5,1.1,1.2
				c0.3,0.2,0.6,0.3,1,0.5c0.4,0.1,0.9,0.3,1.4,0.5c1.1,0.3,2.6,0.4,4.4,0.1c1.5-0.3,3.6-1,5.5-2.6c0.9-0.8,1.8-1.8,2.5-2.8
				c0.3-0.6,0.6-1.1,0.9-1.7c0.2-0.6,0.5-1.2,0.7-1.9c1.3-5,0.9-10.3-0.2-13.1c-0.6-1.5-1.3-2.6-2-3.3c-0.7-0.8-1.3-1.2-1.8-1.5
				C460.8,188.4,460.4,188.5,460.3,188.7z"/>
		</g>
	</g>
	<g>
		<g>
			<path class="st1" d="M457.2,212.9c0.3-0.2,0.4-0.5,0-1.1c-0.3-0.5-1.6-1.5-2.3-1.7c-0.8-0.2-1,0-1.1,0.4c-0.1,0.4-0.1,0.7,0.4,1
				c0.4,0.3,1.5,1,1.9,1.3C456.6,213.2,456.9,213.1,457.2,212.9z"/>
		</g>
	</g>
	<g>
		<g>
			<path class="st1" d="M461.5,209.6c0.3-0.2,0.3-0.6-0.2-1.2c-0.5-0.6-2.1-1.6-2.9-1.8c-0.9-0.3-1.1,0-1.3,0.3
				c-0.1,0.4-0.1,0.7,0.6,1.1c0.6,0.3,2,1.2,2.6,1.5C461,209.9,461.2,209.9,461.5,209.6z"/>
		</g>
	</g>
	<g>
		<g>
			<path class="st1" d="M463.9,205.2c0.3-0.3,0.3-0.6-0.1-1.1c-0.4-0.5-1.7-1.4-2.3-1.7c-0.7-0.3-1-0.2-1.2,0.2
				c-0.2,0.3-0.2,0.6,0.3,1.1c0.5,0.4,1.7,1.3,2.2,1.6C463.4,205.6,463.6,205.5,463.9,205.2z"/>
		</g>
	</g>
	<g>
		<g>
			<path class="st1" d="M464.9,197.5c0.2-0.3,0.2-0.6-0.3-1c-0.3-0.2-0.8-0.4-1.3-0.5c-0.5-0.1-1-0.1-1.3-0.1
				c-0.7,0.1-0.8,0.4-0.8,0.8c0,0.4,0.2,0.7,0.7,0.8c0.5,0.1,1.6,0.3,2.1,0.3C464.6,198,464.7,197.8,464.9,197.5z"/>
		</g>
	</g>
	<g>
		<g>
			<path class="st1" d="M462.9,192c0.1-0.4,0-0.6-0.3-0.8c-0.3-0.2-1.2-0.2-1.6,0c-0.4,0.2-0.4,0.4-0.4,0.8c0.1,0.4,0.2,0.6,0.5,0.7
				c0.3,0.1,1,0.1,1.3,0C462.7,192.6,462.8,192.3,462.9,192z"/>
		</g>
	</g>
	<g>
		<g>
			<path class="st1" d="M395.5,203.9c0.3,0.2,0.5,0.3,0.9,0c0.4-0.3,1.2-1.1,1.4-1.5c0.3-0.5,0.2-0.7-0.1-1c-0.3-0.3-0.6-0.4-1-0.1
				c-0.4,0.3-1.2,1.2-1.5,1.6C395.1,203.4,395.2,203.7,395.5,203.9z"/>
		</g>
	</g>
	<g>
		<g>
			<path class="st1" d="M412.8,215c-0.1-0.2-0.4-0.1-1.1,0.1c-0.7,0.2-2,0.6-4.2,0.5c-1,0-2.4-0.2-3.9-0.9c-1.5-0.6-3-1.6-4.2-3
				c-1.2-1.3-2.1-2.9-2.6-4.5c-0.5-1.6-0.7-3.1-0.8-4.1c-0.2-2.6-0.1-4.2-0.1-5.1c0-0.9-0.2-1.2-0.4-1.2c-0.2,0-0.4,0.2-0.6,1.1
				c-0.2,0.9-0.5,2.5-0.5,5.2c0.1,1.2,0.2,2.8,0.8,4.5c0.5,1.8,1.5,3.6,2.9,5.2c1.4,1.5,3.1,2.7,4.8,3.4c1.7,0.7,3.3,0.9,4.5,0.9
				c2.5-0.1,3.9-0.7,4.7-1.1C412.8,215.4,412.9,215.1,412.8,215z"/>
		</g>
	</g>
	<g>
		<g>
			<path class="st1" d="M400.5,206.6c-0.3-0.2-0.6-0.3-1.1,0.2c-0.5,0.5-1.6,1.8-2,2.5c-0.4,0.7-0.3,1,0,1.3
				c0.3,0.2,0.6,0.3,1.2-0.3c0.5-0.5,1.6-1.9,1.9-2.5C400.8,207.1,400.7,206.8,400.5,206.6z"/>
		</g>
	</g>
	<g>
		<g>
			<path class="st1" d="M406.1,210.9c-0.3-0.2-0.6-0.2-1,0.2c-0.3,0.4-1.1,1.4-1.4,1.8c-0.3,0.5-0.2,0.8,0.1,1.1
				c0.3,0.3,0.6,0.4,1.1,0c0.5-0.4,1.3-1.5,1.5-2.1C406.6,211.3,406.5,211,406.1,210.9z"/>
		</g>
	</g>
	<g>
		<g>
			<path class="st1" d="M411.3,213.2c-0.4-0.1-0.6-0.1-0.9,0.3c-0.2,0.3-0.7,1.3-0.8,1.7c-0.2,0.5,0,0.7,0.3,0.9
				c0.3,0.2,0.6,0.3,1-0.1c0.4-0.4,0.9-1.5,0.9-2C411.8,213.5,411.6,213.3,411.3,213.2z"/>
		</g>
	</g>
	<g>
		<g>
			<path class="st2" d="M556.1,401.2c-0.2,0-0.3,0.1-0.4,0.5c-0.1,0.4-0.1,0.9-0.3,1.9c-0.1,0.9-0.4,2.5-1.2,3.9
				c-0.7,1.4-1.8,2.7-2.5,3.3c-0.8,0.8-1.3,1.3-1.5,1.6c-0.3,0.3-0.2,0.5-0.1,0.7c0.1,0.2,0.3,0.2,0.7,0.1c0.4-0.1,1.1-0.5,2-1.3
				c0.8-0.7,2.1-2,2.9-3.7c0.9-1.6,1.2-3.5,1.2-4.5c0-1.1-0.1-1.8-0.3-2.1C556.4,401.3,556.2,401.2,556.1,401.2z"/>
		</g>
	</g>
	<g>
		<g>
			<path class="st2" d="M562.6,401.9c-0.2,0-0.4,0.1-0.5,0.4c-0.1,0.3-0.3,0.9-0.6,1.7c-0.2,0.8-0.8,2.2-1.6,3.5
				c-0.8,1.3-1.9,2.4-2.6,2.9c-0.8,0.7-1.3,1.1-1.6,1.4c-0.3,0.3-0.3,0.5-0.2,0.7c0.1,0.2,0.3,0.3,0.7,0.2c0.4-0.1,1.1-0.3,2-1
				c0.8-0.6,2.1-1.8,3-3.2c0.9-1.5,1.5-3.1,1.6-4.1c0.2-1,0.1-1.6,0-2C562.9,402,562.8,401.9,562.6,401.9z"/>
		</g>
	</g>
	<g>
		<g>
			<path class="st2" d="M543.6,388.3c-0.2,0.1-0.2,0.4-0.1,1.2c0.2,0.8,0.6,2.1,1.2,4.4c0.6,2.1,1.5,5.9,1.5,9.7
				c0.2,3.8-0.9,7.6-1.7,9.7c-1,2.4-1.8,3.8-2.2,4.7c-0.4,0.9-0.4,1.2-0.2,1.3c0.2,0.1,0.4,0,1.1-0.7c0.6-0.7,1.6-2,2.8-4.6
				c1-2.1,2.2-6.2,2-10.3c0-4.1-1.1-8-1.8-10.1c-0.7-2.3-1.4-3.6-1.8-4.3C544,388.4,543.8,388.3,543.6,388.3z"/>
		</g>
	</g>
	<g>
		<g>
			<path class="st2" d="M486,309.7c0.5,0,0.8-0.3,1-2.1c0.2-1.7,0.2-5.9,0.1-7.6c-0.2-2-0.5-2.4-1.1-2.4c-0.5,0-0.9,0.4-1.1,2.4
				c-0.1,1.7-0.1,5.9,0,7.5C485.1,309.3,485.5,309.6,486,309.7z"/>
		</g>
	</g>
	<g>
		<g>
			<path class="st1" d="M428,490.1c0-0.4-1.7-0.6-10.1-0.5c-7.9,0.1-28,0.4-36.3,0.3c-9.7-0.1-11.5-0.3-11.6,0.2
				c-0.1,0.3,1.7,1.1,11.4,1.4c8.3,0.3,28.4,0,36.3-0.3C426.2,490.8,428,490.5,428,490.1z"/>
		</g>
	</g>
	<g>
		<g>
			<path class="st1" d="M401.5,474.3c0.3-0.2,0.4-0.6-0.2-1.4c-0.3-0.4-0.9-1-1.5-1.6c-0.7-0.6-1.4-1-1.8-1.2
				c-1.1-0.5-1.4-0.3-1.6,0c-0.2,0.4-0.1,0.7,0.8,1.3c0.4,0.3,1,0.7,1.6,1.2c0.6,0.5,1.2,1,1.5,1.3
				C400.9,474.5,401.2,474.5,401.5,474.3z"/>
		</g>
	</g>
	<g>
		<g>
			<path class="st1" d="M398.3,475.8c0.2-0.3,0.2-0.6-0.6-1.3c-0.8-0.6-3-1.8-4-2.2c-1.2-0.4-1.5-0.2-1.6,0.2c-0.2,0.4,0,0.7,1,1.3
				c0.9,0.5,3,1.6,3.8,2C397.7,476.2,398,476.2,398.3,475.8z"/>
		</g>
	</g>
	<g>
		<g>
			<path class="st1" d="M393,478.3c0.2-0.3,0.2-0.6-0.4-1.3c-0.6-0.6-2.5-1.8-3.4-2.2c-1-0.4-1.3-0.2-1.5,0.1
				c-0.2,0.4-0.1,0.7,0.7,1.2c0.7,0.5,2.5,1.6,3.2,2C392.5,478.6,392.8,478.6,393,478.3z"/>
		</g>
	</g>
	<g>
		<g>
			<path class="st1" d="M333.5,494c0.2-0.4-0.7-1-5.1-3.3c-2.1-1.1-5.8-3.1-9.5-5.1c-3.7-2.1-7.3-4.3-9.4-5.6
				c-4.9-3.1-5.9-3.7-6.2-3.3c-0.2,0.3,0.4,1.2,5.2,4.6c2,1.4,5.7,3.7,9.4,5.8c3.7,2.1,7.5,4,9.6,5
				C332.3,494.1,333.4,494.3,333.5,494z"/>
		</g>
	</g>
	<g>
		<g>
			<path class="st1" d="M292.3,467c0.3-0.3,0.2-0.7-0.7-1.9c-0.4-0.6-1.2-1.6-1.9-2.7c-0.7-1.1-1.3-2.2-1.6-2.9
				c-0.6-1.6-0.7-1.9-1.2-1.9c-0.2,0-0.4,0.1-0.5,0.4c-0.1,0.3-0.1,1,0.1,2c0.2,0.8,0.8,2.2,1.6,3.3c0.8,1.2,1.7,2.2,2.2,2.8
				C291.6,467.2,292,467.2,292.3,467z"/>
		</g>
	</g>
	<g>
		<g>
			<path class="st1" d="M313.6,457.1c0.3-0.1,0.5-0.4,0.3-1.3c-0.2-0.9-0.8-3-1-3.9c-0.3-1-0.5-1.2-0.9-1.2c-0.4,0-0.7,0.2-0.7,1.4
				c0,1,0.6,3.4,1.1,4.2C312.9,457.2,313.2,457.3,313.6,457.1z"/>
		</g>
	</g>
	<g>
		<g>
			<path class="st1" d="M318.3,456.3c0.4-0.1,0.6-0.3,0.5-1.1c-0.1-0.8-0.5-2.7-0.7-3.5c-0.3-0.9-0.6-1.1-1-1
				c-0.4,0.1-0.6,0.3-0.6,1.3c0,0.8,0.5,2.8,0.8,3.6C317.6,456.3,317.9,456.4,318.3,456.3z"/>
		</g>
	</g>
	<g>
		<g>
			<path class="st1" d="M322.9,457.1c0.4-0.1,0.6-0.3,0.5-1.3c-0.1-1-0.6-3.4-0.9-4.3c-0.4-1.1-0.7-1.3-1.1-1.2
				c-0.4,0.1-0.6,0.4-0.5,1.5c0.1,1,0.7,3.3,1,4.3C322.2,457,322.5,457.2,322.9,457.1z"/>
		</g>
	</g>
	<g>
		<g>
			<path class="st1" d="M527.8,481.7c-0.2,0-0.3,0-0.5,0.2c-0.1,0.2-0.3,0.4-0.5,0.8c-0.2,0.4-0.6,1-1.3,1.3c-0.7,0.4-1.5,0.5-2,0.6
				c-1.2,0.1-1.4,0.2-1.5,0.7c-0.1,0.4,0.1,0.8,1.6,0.9c0.6,0,1.8-0.1,2.8-0.7c1-0.5,1.7-1.6,1.9-2.2c0.2-0.7,0.2-1.1,0.1-1.3
				C528.1,481.8,528,481.8,527.8,481.7z"/>
		</g>
	</g>
	<g>
		<g>
			<path class="st1" d="M486.1,484.7c-0.2-0.4-0.4-0.5-1.1-0.4c-0.3,0-0.9,0-1.5-0.2c-0.5-0.2-1-0.5-1.3-0.7
				c-0.6-0.5-0.9-0.7-1.3-0.4c-0.2,0.1-0.3,0.2-0.3,0.4c0,0.2,0.1,0.6,0.4,1.1c0.3,0.4,1,1,1.9,1.3c0.9,0.3,1.8,0.2,2.2,0.1
				C486.2,485.4,486.3,485,486.1,484.7z"/>
		</g>
	</g>
	<g>
		<g>
			<path class="st1" d="M456.6,485.8c-0.1-0.4-0.3-0.5-1.3-0.6c-0.4,0-1.2-0.1-1.7-0.4c-0.6-0.3-1-0.9-1.2-1.2
				c-0.5-0.9-0.8-1.1-1.2-1c-0.4,0.1-0.7,0.4-0.2,1.7c0.2,0.5,0.8,1.5,1.8,2.1c1,0.5,2.1,0.5,2.6,0.4
				C456.5,486.5,456.6,486.1,456.6,485.8z"/>
		</g>
	</g>
	<g>
		<g>
			<path class="st1" d="M355.6,272.6c0.5-0.1,0.3-2.8-1.9-15.8c-2.1-12.3-7.8-43.7-10.3-56.6c-2.9-15.1-3.8-17.9-4.3-17.8
				c-0.5,0.1-0.4,2.9,2.2,18c2.2,12.9,8,44.2,10.4,56.5C354.2,270,355.1,272.7,355.6,272.6z"/>
		</g>
	</g>
	<g>
		<g>
			<path class="st2" d="M233.8,349.6c-0.2,0.1-0.1,0.7,0.4,2.8c0.5,2.1,1.4,5.7,2.1,11.9c0.3,2.9,0.7,6.9,0.6,11.5
				c-0.1,2.3-0.3,4.7-0.9,7.1c-0.1,0.6-0.4,1.2-0.5,1.8c-0.2,0.6-0.5,1.1-0.7,1.7c-0.6,1.1-1.3,2.2-1.9,3.3
				c-1.4,2.2-2.9,4.4-4.1,6.7c-1.3,2.3-2.2,4.8-2.6,7.2c-0.4,2.4-0.3,4.8-0.1,6.8c0.3,2,0.7,3.9,1.1,5.4c1,3.6,2.1,6.2,2.9,8.4
				c0.7,2.1,1.2,3.8,1.5,5c0.3,1.2,0.4,2,0.6,2.4c0.1,0.5,0.2,0.6,0.4,0.6c0.1,0,0.2-0.2,0.2-0.7c0-0.5,0-1.3-0.1-2.5
				c-0.2-1.2-0.5-2.9-1.2-5.1c-0.6-2.2-1.7-4.9-2.6-8.3c-0.7-2.9-1.7-7-1-11.5c0.4-2.2,1.1-4.5,2.3-6.7c1.2-2.2,2.6-4.4,4-6.6
				c0.7-1.1,1.4-2.3,2-3.4c0.3-0.6,0.6-1.2,0.9-1.9c0.2-0.6,0.4-1.3,0.6-1.9c0.7-2.6,0.9-5.1,0.9-7.4c0.2-4.7-0.3-8.8-0.7-11.8
				c-0.9-6.3-2-10-2.7-12.1C234.4,350.2,234,349.6,233.8,349.6z"/>
		</g>
	</g>
	<g>
		<g>
			<path class="st2" d="M251.4,394.2c-0.2-0.1-0.4,0-0.9,0.7c-0.3,0.3-0.5,0.8-1,1.3c-0.2,0.3-0.5,0.6-0.7,1c-0.3,0.4-0.6,0.7-1,1.2
				c-1.3,1.6-3.9,4.4-6.9,6.7c-3,2.4-6.2,4.3-8.2,5.5c-4.5,2.7-5.4,3.2-5.2,3.6c0.2,0.3,1.2,0.3,5.9-2.2c2-1.1,5.4-3.1,8.4-5.5
				c1.5-1.2,3-2.5,4.2-3.7c1.2-1.2,2.2-2.4,2.8-3.3c0.3-0.5,0.6-0.9,0.9-1.3c0.2-0.4,0.5-0.8,0.7-1.1c0.4-0.6,0.6-1.2,0.8-1.6
				C251.6,394.6,251.6,394.3,251.4,394.2z"/>
		</g>
	</g>
	<g>
		<g>
			<path class="st2" d="M232.2,392.2c0.2,0,0.3-0.2,0.4-0.9c0-0.6,0-1.8-0.6-3.6c-0.3-0.8-0.8-1.9-1.5-3.1c-0.7-1.2-1.6-2.4-2.7-3.6
				c-2-2.3-4.4-4.3-5.8-5.3c-1.7-1.2-2.7-1.9-3.4-2.2c-0.7-0.3-0.9-0.3-1-0.1c-0.1,0.2-0.1,0.4,0.4,0.9c0.5,0.5,1.4,1.3,3,2.6
				c1.3,1.1,3.6,3,5.5,5.2c1,1.1,1.8,2.2,2.6,3.3c0.7,1.1,1.2,2.1,1.5,2.8c0.7,1.6,0.9,2.6,1.1,3.2
				C231.8,392.1,232,392.3,232.2,392.2z"/>
		</g>
	</g>
	<g>
		<g>
			<g>
				<path class="st1" d="M477,179c0.2-0.3-0.1-0.8-1.8-1.2c-0.8-0.2-2.2-0.3-3.6-0.2c-1.4,0-2.8,0.2-3.6,0.3
					c-1.9,0.3-2.2,0.7-2.1,1.1c0.1,0.4,0.4,0.6,2.3,0.5c0.8-0.1,2.1-0.1,3.4-0.2c1.3,0,2.6,0,3.4,0C476.5,179.4,476.8,179.4,477,179
					z"/>
			</g>
		</g>
		<g>
			<g>
				<path class="st1" d="M496.8,206.6c0.2-0.3,0.1-0.6-0.8-1.7c-0.5-0.5-1.3-1.4-2.1-2.3c-0.8-0.9-1.5-1.9-2-2.5
					c-1.1-1.3-1.4-1.5-1.8-1.3c-0.3,0.2-0.4,0.6,0.5,2.1c0.4,0.6,1.1,1.7,2,2.7c0.8,1,1.8,1.9,2.3,2.3
					C496.1,206.9,496.6,206.9,496.8,206.6z"/>
			</g>
		</g>
		<g>
			<g>
				<path class="st1" d="M503.5,185.3c0-0.4-0.3-0.6-2.1-0.8c-1.6-0.1-5.8-0.1-7.5,0c-2,0.1-2.4,0.4-2.4,0.8c0,0.4,0.4,0.7,2.4,0.8
					c1.7,0.1,5.8,0.1,7.4,0C503.1,185.9,503.5,185.7,503.5,185.3z"/>
			</g>
		</g>
		<g>
			<g>
				<path class="st1" d="M525.6,198.1c0.2-0.3,0.3-0.7-0.6-1.3c-0.4-0.3-1.3-0.6-2.1-0.8c-0.9-0.2-1.8-0.2-2.3-0.1
					c-1.2,0.2-1.4,0.5-1.3,0.9c0.1,0.4,0.3,0.6,1.3,0.7c0.4,0,1.2,0.1,1.9,0.2c0.7,0.1,1.4,0.3,1.8,0.5
					C525,198.4,525.3,198.4,525.6,198.1z"/>
			</g>
		</g>
		<g>
			<g>
				<path class="st1" d="M528.6,219.6c0.2-0.3,0.1-0.7-0.9-1.3c-1-0.7-3.7-1.8-4.9-2c-1.4-0.3-1.8,0-1.8,0.4
					c-0.1,0.4,0.1,0.7,1.4,1.1c1.1,0.3,3.6,1.4,4.7,1.8C528.1,220,528.4,219.9,528.6,219.6z"/>
			</g>
		</g>
		<g>
			<g>
				<path class="st1" d="M553.1,249.4c0.3-0.2,0.4-0.6-0.3-2.3c-0.6-1.6-2.5-5.5-3.4-7.1c-1-1.9-1.4-2.1-1.8-1.9
					c-0.4,0.2-0.4,0.6,0.4,2.6c0.7,1.7,2.6,5.6,3.5,7.1C552.4,249.3,552.8,249.5,553.1,249.4z"/>
			</g>
		</g>
		<g>
			<g>
				<path class="st1" d="M534.1,246.6c0.3-0.2,0.4-0.5-0.1-1.3c-0.4-0.7-1.7-2.4-2.3-3c-0.7-0.7-1-0.7-1.4-0.5
					c-0.3,0.3-0.4,0.6,0.1,1.4c0.5,0.7,1.8,2.4,2.4,3C533.5,246.8,533.8,246.8,534.1,246.6z"/>
			</g>
		</g>
		<g>
			<g>
				<path class="st1" d="M550.4,279.2c0.3-0.1,0.5-0.6-0.2-2.1c-0.3-0.7-0.9-2-1.6-3.2c-0.7-1.2-1.5-2.4-2-3c-1.2-1.5-1.7-1.6-2-1.3
					c-0.3,0.3-0.3,0.7,0.7,2.2c0.4,0.7,1.2,1.8,1.8,3c0.7,1.2,1.3,2.3,1.7,3C549.7,279.2,550,279.4,550.4,279.2z"/>
			</g>
		</g>
		<g>
			<g>
				<path class="st1" d="M567,285.1c0.4,0,0.6-0.3,0.6-1.3c0-1-0.5-3.5-0.9-4.4c-0.4-1.1-0.8-1.3-1.2-1.2c-0.4,0.1-0.6,0.4-0.4,1.6
					c0.2,1,0.7,3.3,1,4.3C566.4,285,566.7,285.2,567,285.1z"/>
			</g>
		</g>
		<g>
			<g>
				<path class="st1" d="M540.7,290.1c0.3-0.2,0.4-0.5,0-1.8c-0.4-1.2-1.8-4.1-2.5-5.3c-0.8-1.4-1.1-1.5-1.5-1.3
					c-0.4,0.2-0.5,0.5,0.1,2c0.5,1.2,1.9,4.2,2.6,5.3C540,290.1,540.4,290.3,540.7,290.1z"/>
			</g>
		</g>
		<g>
			<g>
				<path class="st1" d="M554.6,326.2c0.4,0,0.6-0.4,0.5-1.9c-0.1-0.7-0.3-1.9-0.7-3.1c-0.4-1.2-0.9-2.4-1.2-3
					c-0.8-1.5-1.2-1.7-1.6-1.5c-0.4,0.2-0.4,0.6,0.1,2.1c0.2,0.7,0.7,1.8,1,2.9c0.4,1.1,0.7,2.3,0.9,2.9
					C554,326,554.2,326.2,554.6,326.2z"/>
			</g>
		</g>
		<g>
			<g>
				<path class="st1" d="M546.6,334.3c0.4,0,0.6-0.3,0.5-1.5c0-1.1-0.6-4-1-5.1c-0.4-1.3-0.8-1.5-1.2-1.4c-0.4,0.1-0.6,0.4-0.4,1.8
					c0.2,1.1,0.8,3.9,1,5C545.9,334.1,546.2,334.3,546.6,334.3z"/>
			</g>
		</g>
		<g>
			<g>
				<path class="st1" d="M552.6,352.7c0.4-0.1,0.5-0.4,0.4-1.4c-0.2-1-0.9-3.4-1.4-4.3c-0.5-1.1-0.8-1.2-1.2-1.1
					c-0.4,0.1-0.6,0.4-0.3,1.6c0.2,1,1,3.3,1.4,4.2C552,352.7,552.3,352.8,552.6,352.7z"/>
			</g>
		</g>
		<g>
			<g>
				<path class="st1" d="M566.1,355.7c0.4,0,0.6-0.3,0.5-1.7c0-1.3-0.8-4.6-1.3-5.8c-0.6-1.5-0.9-1.7-1.3-1.6
					c-0.4,0.1-0.5,0.5-0.2,2c0.3,1.4,1,4.2,1.3,5.6C565.5,355.5,565.7,355.7,566.1,355.7z"/>
			</g>
		</g>
		<g>
			<g>
				<path class="st1" d="M547.8,371c0.4-0.1,0.5-0.4,0.3-1.7c-0.2-1.3-1.1-4.3-1.7-5.6c-0.7-1.5-1.1-1.6-1.5-1.4
					c-0.4,0.2-0.4,0.5,0,1.9c0.4,1.2,1.3,4.2,1.7,5.4C547.2,370.9,547.5,371.1,547.8,371z"/>
			</g>
		</g>
		<g>
			<g>
				<path class="st1" d="M527.4,290.1c0.4-0.1,0.5-1.1-0.2-5.9c-0.6-4.5-2.5-16.1-3.3-20.8c-1-5.6-1.4-6.6-1.8-6.5
					c-0.4,0.1-0.5,1.1,0.3,6.7c0.7,4.8,2.5,16.3,3.4,20.8C526.7,289.2,527.1,290.2,527.4,290.1z"/>
			</g>
		</g>
		<g>
			<g>
				<path class="st1" d="M509.5,231.1c0.3-0.2,0.3-0.7-0.8-2c-0.5-0.6-1.4-1.6-2.5-2.5c-1-0.9-2.1-1.8-2.8-2.2c-1.6-1.1-2-1-2.3-0.7
					c-0.2,0.3-0.1,0.7,1.3,1.9c0.6,0.5,1.6,1.4,2.6,2.3c1,0.9,1.9,1.7,2.5,2.3C508.8,231.3,509.2,231.4,509.5,231.1z"/>
			</g>
		</g>
		<g>
			<g>
				<path class="st1" d="M518.3,275.1c0.3-0.2,0.4-0.4,0.2-1.3c-0.3-0.8-1.1-2.7-1.4-3.5c-0.5-0.9-0.8-1-1.2-0.9
					c-0.4,0.1-0.6,0.4-0.3,1.4c0.2,0.9,1.1,2.9,1.6,3.6C517.6,275.3,518,275.3,518.3,275.1z"/>
			</g>
		</g>
		<g>
			<g>
				<path class="st1" d="M494.7,246.6c0.3-0.2,0.3-0.6-0.5-2c-0.7-1.3-2.7-4.6-3.5-5.9c-1-1.6-1.3-1.8-1.7-1.6
					c-0.4,0.2-0.5,0.6,0.3,2.3c0.6,1.5,2.7,4.8,3.7,6C493.9,246.7,494.4,246.8,494.7,246.6z"/>
			</g>
		</g>
		<g>
			<g>
				<path class="st1" d="M494.7,279.2c0.4,0,0.6-0.4,0.4-2.1c-0.1-0.8-0.4-2.1-0.8-3.5c-0.4-1.3-0.8-2.7-1.2-3.4
					c-0.8-1.8-1.2-2-1.5-1.8c-0.4,0.2-0.5,0.6,0,2.3c0.5,1.5,1.5,5.2,1.9,6.7C494,279,494.3,279.3,494.7,279.2z"/>
			</g>
		</g>
		<g>
			<g>
				<path class="st1" d="M512,294.6c0.4,0,0.6-0.3,0.4-1.4c-0.1-1-1.1-3.3-1.6-4.2c-0.6-1-0.9-1.1-1.3-0.9c-0.4,0.2-0.5,0.5-0.1,1.6
					c0.3,0.9,1.2,3.1,1.6,4C511.4,294.6,511.6,294.7,512,294.6z"/>
			</g>
		</g>
		<g>
			<g>
				<path class="st1" d="M481,290.1c0.4-0.1,0.6-0.4,0.5-1.8c0-1.3-0.4-4.7-0.7-6.1c-0.3-1.6-0.6-1.9-1-1.9c-0.4,0-0.6,0.4-0.5,2
					c0.1,1.4,0.5,4.8,0.8,6.1C480.4,289.9,480.7,290.2,481,290.1z"/>
			</g>
		</g>
		<g>
			<g>
				<path class="st1" d="M477.8,233.4c0.3-0.2,0.4-0.6-0.3-2.1c-0.6-1.4-2.5-4.7-3.4-6.1c-1-1.6-1.4-1.7-1.8-1.5
					c-0.4,0.2-0.4,0.6,0.4,2.3c0.7,1.4,2.6,4.8,3.5,6C477,233.4,477.4,233.6,477.8,233.4z"/>
			</g>
		</g>
		<g>
			<g>
				<path class="st1" d="M453.4,245.1c0.4,0,0.7-0.3,0.9-2.4c0.1-1,0.2-2.7,0.2-4.4c0-1.7-0.1-3.5-0.2-4.5c-0.3-2.4-0.6-2.8-1-2.7
					c-0.4,0-0.6,0.5-0.6,2.8c0,2,0.1,6.8,0,8.7C452.9,244.6,453,245.1,453.4,245.1z"/>
			</g>
		</g>
		<g>
			<g>
				<path class="st1" d="M467.6,266.5c0.4,0,0.7-0.3,0.7-1.8c0-1.4-0.7-4.8-1.1-6.2c-0.5-1.6-0.9-1.8-1.2-1.7
					c-0.4,0.1-0.6,0.5-0.3,2.1c0.3,1.5,0.9,4.5,1.1,5.9C467,266.2,467.2,266.5,467.6,266.5z"/>
			</g>
		</g>
		<g>
			<g>
				<path class="st1" d="M437.6,219.6c0.4,0.1,0.7-0.1,0.9-1.2c0.3-1,0.5-3.7,0.5-4.8c0-1.3-0.3-1.5-0.7-1.6c-0.4,0-0.7,0.2-0.9,1.5
					c-0.2,1.1-0.4,3.7-0.4,4.7C437,219.3,437.2,219.5,437.6,219.6z"/>
			</g>
		</g>
		<g>
			<g>
				<path class="st1" d="M420.3,222.5c0.2,0.3,0.6,0.3,1.6-0.4c0.9-0.7,3-2.8,3.8-3.7c0.9-1.1,0.9-1.5,0.6-1.8
					c-0.3-0.3-0.7-0.3-1.7,0.6c-0.9,0.8-3,2.8-3.7,3.7C420.1,221.9,420,222.2,420.3,222.5z"/>
			</g>
		</g>
		<g>
			<g>
				<path class="st1" d="M421.9,250.9c0.4,0.1,0.6-0.1,1.4-1.3c0.8-1.4,2.4-4.2,3.2-5.6c0.8-1.5,0.8-1.9,0.5-2.2
					c-0.3-0.2-0.7-0.1-1.8,1.3c-0.9,1.2-2.8,4.4-3.3,5.8C421.4,250.3,421.6,250.8,421.9,250.9z"/>
			</g>
		</g>
		<g>
			<g>
				<path class="st1" d="M409.2,242.4c-0.3-0.2-0.6-0.1-1.3,0.7c-0.3,0.4-0.9,1.1-1.5,1.8c-0.6,0.7-1.3,1.3-1.6,1.7
					c-0.9,0.9-1,1.2-0.7,1.6c0.2,0.3,0.6,0.4,1.7-0.3c0.5-0.3,1.2-1,1.9-1.8c0.7-0.7,1.2-1.5,1.5-2
					C409.6,242.9,409.5,242.5,409.2,242.4z"/>
			</g>
		</g>
		<g>
			<g>
				<path class="st1" d="M406.6,261.7c-0.2-0.3-0.7-0.3-2,0.7c-1.2,0.9-3.9,3.7-4.9,5c-1.1,1.5-1.2,1.9-0.8,2.2
					c0.3,0.3,0.7,0.2,2-1.1c1.1-1.2,3.5-3.7,4.7-4.9C406.7,262.3,406.8,262,406.6,261.7z"/>
			</g>
		</g>
		<g>
			<g>
				<path class="st1" d="M398.9,235.4c-0.1-0.1-0.2-0.1-0.2-0.1c0,0,0,0,0,0C398.7,235.3,398.8,235.4,398.9,235.4
					C398.9,235.4,398.9,235.4,398.9,235.4C398.9,235.4,398.9,235.4,398.9,235.4C398.9,235.4,398.9,235.4,398.9,235.4l0.2,0.1
					c0.1,0,0,0,0,0c0,0,0,0,0.1,0c0,0,0.1,0,0.1,0c0.2-0.1,0.4-0.3,0.6-0.7c0.5-0.7,1.1-2.9,1.1-3.8c0-1.1-0.2-1.3-0.6-1.3
					c-0.4,0-0.7,0.1-0.9,1.1c-0.2,0.8-0.7,2.7-0.9,3.5c-0.1,0.4-0.1,0.7-0.1,0.9c0,0,0,0.1,0,0.1c0,0,0,0,0,0.1c0,0,0,0,0,0.1
					c0,0,0,0,0,0.2c0,0.1,0.3,0.2,0.3,0.2c0.1,0,0.1,0,0.1-0.1c0.1,0,0,0,0,0l0,0l0,0C399.1,235.5,399,235.4,398.9,235.4z"/>
			</g>
		</g>
		<g>
			<g>
				<path class="st1" d="M388.5,233.4c-0.3-0.2-0.7-0.1-1.5,0.8c-0.7,0.9-2.5,3.3-3.2,4.4c-0.8,1.2-0.7,1.6-0.4,1.8
					c0.3,0.3,0.7,0.2,1.7-0.9c0.8-0.9,2.6-3.4,3.1-4.4C388.9,234,388.9,233.6,388.5,233.4z"/>
			</g>
		</g>
		<g>
			<g>
				<path class="st1" d="M386,213.2c-0.2-0.3-0.5-0.4-1.3,0c-0.8,0.4-2.5,1.6-3.2,2.2c-0.8,0.7-0.8,1-0.5,1.4
					c0.2,0.3,0.5,0.4,1.4-0.1c0.8-0.4,2.5-1.7,3.1-2.3C386.2,213.8,386.3,213.5,386,213.2z"/>
			</g>
		</g>
		<g>
			<g>
				<path class="st1" d="M365.4,224.8c-0.1-0.3-0.5-0.5-1.6,0c-1,0.5-3.2,2.3-3.9,3.2c-0.9,1-0.8,1.4-0.5,1.7
					c0.3,0.3,0.7,0.3,1.6-0.5c0.8-0.7,2.8-2.4,3.6-3C365.4,225.4,365.5,225.1,365.4,224.8z"/>
			</g>
		</g>
		<g>
			<g>
				<path class="st1" d="M370.7,240.4c-0.3-0.2-0.7-0.1-1.6,0.8c-0.5,0.5-1.3,1.3-2.1,2.1c-0.8,0.8-1.7,1.6-2.1,2.1
					c-1.1,1.1-1.3,1.4-1,1.8c0.2,0.3,0.7,0.4,2-0.6c0.6-0.4,1.5-1.2,2.3-2.1c0.8-0.9,1.6-1.8,2-2.3C371,241,371,240.6,370.7,240.4z"
					/>
			</g>
		</g>
		<g>
			<g>
				<path class="st1" d="M370,269.5c0.4,0,0.6-0.2,0.9-1.3c0.2-1.1,0.7-3.8,0.9-4.9c0.2-1.3,0-1.6-0.4-1.7c-0.4-0.1-0.7,0.1-1.1,1.4
					c-0.4,1.1-0.8,3.9-0.8,5C369.4,269.2,369.6,269.5,370,269.5z"/>
			</g>
		</g>
		<g>
			<g>
				<path class="st1" d="M353.8,283c-0.1-0.4-0.7-0.5-1.7,0.5c-0.5,0.4-1.2,1.3-1.7,2.2c-0.6,0.9-1.1,1.9-1.3,2.5
					c-0.6,1.4-0.5,1.7-0.1,1.9c0.4,0.2,0.7,0.1,1.5-1.2c0.3-0.6,0.9-1.4,1.4-2.3c0.5-0.9,1.1-1.7,1.4-2.2
					C353.9,283.5,353.9,283.4,353.8,283z"/>
			</g>
		</g>
	</g>
	<g>
		<g>
			<path class="st2" d="M249.4,444.3c0-0.4-1.2-0.6-7.1-0.8c-5.6-0.1-19.7-0.4-25.5-0.6c-6.8-0.2-8.1-0.2-8.2,0.2
				c-0.1,0.4,1.2,0.9,8,1.3c5.8,0.4,20,0.6,25.5,0.5C248.1,444.9,249.4,444.6,249.4,444.3z"/>
		</g>
	</g>
	<g>
		<g>
			<path class="st2" d="M502.2,316.1c0-0.2-1.7-0.2-7.7,0.2c-5.9,0.4-16.2,1-33,3.6c-2,0.3-4.2,0.6-6.5,1.1
				c-2.3,0.4-4.8,0.9-7.5,1.4c-5.3,1.1-11.1,2.5-17.2,4.5c-6.1,2-12.4,4.6-18.5,8c-3.1,1.7-6.1,3.5-9,5.6c-1.5,1.1-2.9,2.1-4.3,3.3
				c-1.4,1.1-2.8,2.3-4.1,3.5c-5.4,4.7-10.5,9.9-15.3,15c-4.8,5.2-9.2,10.4-13.2,15.5c-4,5.1-7.5,10.1-10.6,14.7
				c-3.1,4.6-5.9,8.7-8.2,12.2c-10.9,16.6-16.7,26.8-19.6,33.1c-1.4,3.1-2.1,5.2-2.4,6.6c0,0.3-0.1,0.6-0.1,0.9c0,0.2,0,0.4,0,0.6
				c0,0.3,0.1,0.4,0.1,0.4c0.1,0,0.1-0.1,0.2-0.4c0-0.1,0.1-0.3,0.1-0.5c0.1-0.2,0.1-0.5,0.2-0.8c0.4-1.2,1.2-3.2,2.7-6.1
				c3-5.9,8.9-16,19.8-32.3c2.3-3.5,5.1-7.6,8.2-12.1c3.1-4.6,6.5-9.5,10.5-14.5c8-10,17.5-20.8,28.2-30.3
				c10.5-9.6,23.2-16.4,35.2-20.3c6-2,11.7-3.5,17-4.6c1.3-0.3,2.6-0.6,3.8-0.8c1.2-0.2,2.4-0.5,3.6-0.7c1.2-0.2,2.3-0.4,3.4-0.6
				c1.1-0.2,2.1-0.3,3.1-0.5c16.9-2.7,27.3-3.5,33.4-4.2C500.4,316.5,502.2,316.2,502.2,316.1z"/>
		</g>
	</g>
	<g>
		<path class="st1" d="M390.3,490.9c-8.6,0-16.3-0.2-20.2-0.7l0-0.1c11.7,1.5,57.4,0,57.9,0l0,0.2
			C427.7,490.2,407.4,490.9,390.3,490.9z"/>
	</g>
	<g>
		<path class="st1" d="M401.4,474.4c0,0-2-2.7-5.1-4.1l0.1-0.1c3.2,1.5,5.2,4.1,5.2,4.2L401.4,474.4z"/>
	</g>
	<g>
		<path class="st1" d="M398.2,475.9c0,0-2.7-1.9-6.2-3.3l0.1-0.1c3.5,1.4,6.2,3.3,6.3,3.3L398.2,475.9z"/>
	</g>
	<g>
		<path class="st1" d="M392.9,478.3c0,0-3.1-2.3-5.3-3.3l0.1-0.1c2.3,1,5.3,3.3,5.3,3.3L392.9,478.3z"/>
	</g>
	<g>
		<path class="st1" d="M313.5,457.2c0,0-1.4-3.4-1.6-6.5l0.1,0c0.1,3.1,1.6,6.4,1.6,6.5L313.5,457.2z"/>
	</g>
	<g>
		<path class="st1" d="M318.2,456.3c0,0-0.7-2.9-1.2-5.7l0.1,0c0.4,2.7,1.2,5.6,1.2,5.7L318.2,456.3z"/>
	</g>
	<g>
		<path class="st1" d="M322.8,457.1c0,0-0.6-2.9-1.5-6.9l0.1,0c1,3.9,1.5,6.8,1.5,6.9L322.8,457.1z"/>
	</g>
	<g>
		<g>
			<path class="st2" d="M579.4,328.1c0.3,0.2,0.9-0.2,2.5-2.7c0.8-1.2,2-3.4,3.2-5.6c1.2-2.3,2.2-4.6,2.8-5.9c1.3-3.2,1.3-4,0.9-4.1
				c-0.4-0.2-0.9,0.3-2.4,3.4c-0.7,1.3-1.8,3.6-2.9,5.8c-1.1,2.2-2.3,4.4-3,5.7C579.2,327.2,579,327.9,579.4,328.1z"/>
		</g>
	</g>
	<g>
		<g>
			<path class="st2" d="M593.3,298c0.2,0.1,0.7-0.9,2-4.6c1.3-3.7,3.4-10.1,5.8-21c1.1-5.2,2.4-12.4,3.1-20.7
				c0.7-8.3,0.8-17.8-0.9-27.2c-0.9-4.7-2.2-9.3-4.1-13.6c-2-4.2-4.7-8.1-8-11c-1.6-1.5-3.4-2.6-5.1-3.7c-0.9-0.5-1.7-1-2.5-1.5
				c-0.8-0.5-1.7-0.9-2.5-1.3c-0.4-0.2-0.8-0.4-1.2-0.6c-0.4-0.2-0.8-0.3-1.2-0.5c-0.8-0.3-1.6-0.7-2.4-0.9c-1.6-0.5-3-1-4.4-1.2
				c-1.6-0.4-3.2-0.6-4.6-0.8c-0.7-0.1-1.5-0.1-2.2-0.1c-0.7,0-1.4-0.1-2.1,0c-0.7,0-1.3,0-1.9,0c-0.6,0-1.2,0.1-1.8,0.2
				c-1.2,0.1-2.3,0.3-3.3,0.5c-4.1,0.8-7,1.8-9.1,2.7c-1,0.4-1.9,0.8-2.6,1.2c-0.7,0.3-1.2,0.6-1.5,0.9c-0.8,0.4-1,0.7-0.9,0.8
				c0,0.1,0.4,0,1.2-0.2c0.4-0.1,0.9-0.3,1.6-0.6c0.7-0.3,1.5-0.6,2.5-0.9c2.1-0.7,4.9-1.6,8.9-2.3c1-0.1,2-0.3,3.2-0.4
				c0.6,0,1.1-0.1,1.7-0.1c0.6,0,1.2,0,1.9,0c1.3-0.1,2.6,0.1,4,0.2c0.7,0.1,1.4,0.2,2.2,0.3c0.7,0.1,1.5,0.3,2.3,0.4
				c5.2,1.1,12.2,4,18.6,9.3c3.2,2.6,5.7,6.2,7.7,10.3c1.9,4,3.2,8.5,4.1,13.1c1.7,9.1,1.6,18.5,1.1,26.7
				c-0.6,8.3-1.8,15.4-2.8,20.6c-2.2,11-4.2,17.5-5.2,21.4C593.4,296.7,593.1,297.9,593.3,298z"/>
		</g>
	</g>
	<g>
		<g>
			<path class="st2" d="M420.3,198.2c0,0-0.1,0-0.1,0c-0.1,0-0.1,0.1-0.1,0.3c0.1,0.2,0.2,0.4,0.4,0.5c0.4,0.2,1.1,0.4,2.2,0.5
				c0.5,0.1,1.3,0.1,2.1,0.1c0.2,0,0.4,0,0.7,0l0.2,0l0.3,0c0.2,0,0.4-0.1,0.6-0.1c0.4-0.1,0.8-0.2,1-0.5c0.1-0.1,0.2-0.2,0.2-0.4
				c0-0.1,0-0.1,0-0.2l-0.1-0.2l-0.1-0.5c-0.1-0.2-0.3-0.3-0.4-0.5c-0.1-0.2-0.3-0.3-0.4-0.5l-0.4-0.3c-0.4-0.3-0.9-0.6-1.4-0.7
				c-1-0.3-1.9-0.2-2.5,0.1c-1.4,0.5-2,1.3-2.2,1.8C420,197.9,420.1,198.1,420.3,198.2c0.2,0.1,0.4,0.1,0.7-0.1
				c0.3-0.2,0.9-0.6,1.8-0.9c0.4-0.1,1-0.2,1.6,0c0.3,0.1,0.6,0.2,0.9,0.4l0.2,0.2c0,0,0,0,0,0l0,0c0,0,0,0,0,0c0,0,0.1,0-0.1,0
				c-0.2,0-0.4,0-0.6,0c-0.8,0-1.5,0-2,0.1c-1.1,0-1.7,0-2.1,0.1c-0.1,0-0.2,0-0.2,0c0,0,0,0-0.1,0c0,0-0.1,0.1-0.1,0.1
				C420.4,198.3,420.4,198.3,420.3,198.2C420.4,198.3,420.4,198.3,420.3,198.2C420.4,198.3,420.3,198.2,420.3,198.2z"/>
		</g>
	</g>
	<g>
		<g>
			<path class="st2" d="M442.9,182.8c-0.2,0-0.3,0.6-0.5,2.7c-0.1,1-0.3,2.4-0.6,4.3c-0.3,1.8-0.9,4.1-2,6.7
				c-0.6,1.2-1.3,2.7-2.3,4.2c-1,1.5-2.3,3.1-3.9,4.4c-1.6,1.3-3.7,2.3-6,2.7c-2.2,0.5-4.7,0.4-7-0.3c-2.3-0.6-4.5-1.6-6.5-3
				c-1.9-1.3-3.5-3-4.8-4.8c-2.6-3.5-4.4-7.1-5.6-9.8c-2.8-6.2-4.1-10.2-4.9-12.4c-0.8-2.2-1.1-2.8-1.3-2.8c-0.2,0-0.2,0.7,0.3,3
				c0.6,2.3,1.6,6.3,4.4,12.6c1.2,2.7,2.9,6.4,5.6,10.1c1.4,1.8,3,3.8,5.1,5.3c2.1,1.4,4.4,2.6,7,3.3c2.5,0.7,5.2,0.9,7.7,0.4
				c2.5-0.5,4.8-1.5,6.7-3c1.9-1.4,3.2-3.2,4.3-4.7c1.1-1.6,1.9-3.1,2.5-4.5c1.2-2.8,1.7-5.3,2-7.2c0.2-1.9,0.3-3.4,0.3-4.5
				C443.3,183.5,443.1,182.8,442.9,182.8z"/>
		</g>
	</g>
	<g>
		<g>
			<path class="st2" d="M429,149.1c-0.3,0.2,0,1.2,2.8,4.8c1.3,1.7,3.8,4.7,6.7,7.4c1.4,1.3,3,2.6,4.6,3.5c0.4,0.2,0.9,0.4,1.3,0.5
				c0.2,0.1,0.4,0.1,0.5,0.2c0.2,0,0.3,0.1,0.5,0.2c0.6,0.2,1,0.6,1.3,0.9c0.7,0.8,0.9,1.8,1,2.5c0.1,0.8,0.1,1.4,0.1,1.8
				c0,0.9,0.1,1.2,0.3,1.2c0.2,0,0.4-0.2,0.7-1.1c0.1-0.5,0.2-1.1,0.2-2c0-0.9-0.2-2.1-1.1-3.4c-0.4-0.5-1-1.1-1.8-1.4
				c-0.4-0.2-0.9-0.3-1.2-0.5c-0.3-0.1-0.7-0.2-1-0.4c-1.4-0.7-2.9-1.9-4.3-3.2c-2.8-2.6-5.3-5.5-6.7-7.1
				C430,149.6,429.3,148.9,429,149.1z"/>
		</g>
	</g>
	<g>
		<g>
			<path class="st2" d="M397.3,193.5c0.4-0.1,0.5-0.7,0.3-3.4c-0.1-1.3-0.2-3.6-0.3-5.9c-0.1-2.3-0.1-4.7-0.1-6
				c0-3.2-0.3-3.8-0.7-3.9c-0.4,0-0.7,0.6-0.9,3.8c-0.1,1.4-0.1,3.8,0,6.1c0.1,2.4,0.3,4.7,0.5,6
				C396.5,193.1,396.9,193.6,397.3,193.5z"/>
		</g>
	</g>
	<g>
		<g>
			<path class="st2" d="M562.7,382.4c-0.4,0.2-0.1,1.1,1.4,5.6c0.3,1.1,0.8,2.6,1.2,4.2c0.4,1.7,0.5,3.7,0.5,5.6
				c0,3.9-0.9,7.9-1.8,10c-0.2,0.6-0.5,1.1-0.8,1.6c-0.3,0.4-0.6,0.8-0.8,1.1c-0.5,0.6-1,1-1.3,1.4c-0.7,0.6-0.9,0.9-0.8,1.1
				c0.1,0.2,0.4,0.2,1.3-0.2c0.4-0.2,1-0.6,1.7-1.2c0.3-0.3,0.7-0.7,1.1-1.2c0.2-0.2,0.4-0.5,0.5-0.8c0.2-0.3,0.3-0.6,0.5-0.9
				c1.1-2.3,2-6.4,2-10.6c0-2.1-0.2-4.2-0.6-6c-0.4-1.8-1-3.3-1.4-4.4C563.8,383.1,563,382.3,562.7,382.4z"/>
		</g>
	</g>
	<g>
		<g>
			<path class="st2" d="M537.5,404.8c0.2-0.1,0.2-0.3,0.1-0.9c-0.1-0.6-0.4-1.5-0.6-3.1c-0.2-1.5-0.4-4.3-0.2-7
				c0.1-2.8,0.5-5.6,0.8-7.2c0.6-3.8,0.7-4.6,0.2-4.7c-0.4-0.1-0.9,0.5-1.8,4.3c-0.4,1.6-0.8,4.5-0.9,7.4c-0.1,1.4-0.1,2.9,0,4.2
				c0.1,1.3,0.2,2.4,0.4,3.2c0.3,1.7,0.8,2.7,1.2,3.3C537.1,404.8,537.3,404.9,537.5,404.8z"/>
		</g>
	</g>
	<g>
		<g>
			<path class="st2" d="M536.9,403.3c0-0.4-3.2-0.3-18.8,0.3c-7.4,0.3-20.5,0.6-33.6,1.6c-6.6,0.4-13.2,0.7-19.1,0.5
				c-5.9-0.1-11-0.9-14.7-2c-4.3-1.2-7.3-3.2-9.5-4.9c-2.2-1.7-3.4-3.4-4-4.8c-0.6-1.4-0.8-2.3-0.9-2.9c-0.1-0.6-0.2-0.8-0.3-0.8
				c-0.1,0-0.2,0.2-0.2,0.8c0,0.6,0,1.7,0.5,3.2c0.5,1.5,1.7,3.5,4,5.4c2.2,1.9,5.4,4,9.8,5.4c3.8,1.2,9.1,2.1,15,2.2
				c6,0.2,12.6-0.1,19.2-0.5c13.1-1,26.2-1.4,33.6-1.8c7.9-0.4,12.7-0.8,15.5-1.1C536.1,403.7,536.9,403.5,536.9,403.3z"/>
		</g>
	</g>
	<g>
		<g>
			<path class="st2" d="M566.6,397c0.1,0.2,0.4,0.2,1.1-0.2c0.7-0.4,2-1.1,3.6-3c0.7-0.9,1.6-2.3,2.2-4c0.6-1.7,0.9-3.7,0.9-5.7
				c0-4-0.9-7.9-1.7-10.1c-1-2.6-2-3.9-2.7-4.6c-0.6-0.7-1-0.8-1.1-0.7c-0.2,0.1-0.1,0.4,0.3,1.2c0.4,0.8,1.2,2.1,2,4.5
				c0.7,2,1.5,5.9,1.5,9.6c0,1.9-0.2,3.7-0.7,5.2c-0.5,1.5-1.2,2.8-1.8,3.6c-1.3,1.8-2.4,2.6-2.9,3.2
				C566.7,396.5,566.5,396.8,566.6,397z"/>
		</g>
	</g>
	<g>
		<g>
			<path class="st2" d="M613.4,297.9c0-0.1-0.8-0.2-3-0.3c-2.2-0.1-5.8-0.1-11.4-0.2c-5.6,0-13.2-0.1-23.4-0.2
				c-10.2-0.1-23-0.4-38.9-0.4c-30.2-0.1-83.7,0.1-137.6,0.3c-27,0.1-54,0.2-78.3-0.1c-24.3-0.1-45.8-0.1-61.6-0.1
				c-37.2,0.1-59.3,0.2-72.2,0.5c-0.8,0-1.6,0-2.3,0.1c-0.2,0-0.4,0-0.6,0c-0.2,0-0.3,0-0.6,0.1c-0.5,0.2-0.8,0.6-0.9,1
				c-0.6,1.4-0.7,2.6-0.7,3.7c0,2.2,0.3,3.9,0.8,5.1c0.5,1.2,1.2,1.9,1.8,2c0.5,0.2,0.8,0.1,0.8,0.1c0-0.1-0.2-0.1-0.6-0.3
				c-0.4-0.2-1-0.8-1.4-1.9c-0.4-1.1-0.7-2.7-0.6-4.7c0.1-1,0.2-2.2,0.6-3.3c0.1-0.3,0.3-0.5,0.4-0.6c0.1,0,0.1-0.1,0.2-0.1
				c0.2,0,0.3,0,0.5,0c0.7,0,1.4,0,2.2,0c12.7,0,34.5,0,71.5,0.1c15.8,0.1,37.2,0.1,61.4,0.2c24.2,0.3,51.2,0.2,78.1,0.1
				c53.8-0.2,107.3-0.5,137.5-0.5c16.1,0,29.1,0.2,39.5,0.2c10.4,0,18.1,0,23.9-0.1c5.7-0.1,9.5-0.2,11.8-0.3
				C612.6,298.1,613.4,298,613.4,297.9z"/>
		</g>
	</g>
	<g>
		<g>
			<path class="st2" d="M190.6,309.4c0,0.1,0.8,0.2,3,0.3c2.2,0.1,5.8,0.2,11.3,0.2c11.1,0.1,30.1,0.2,61.6,0.3
				c59.7,0.1,211.9,0.2,274.6,0.3c36.8,0,58.7-0.2,71.4-0.4c0.8,0,1.6,0,2.3-0.1c0.4,0,0.7,0,1.1,0c0.2,0,0.3,0,0.6-0.1
				c0.1,0,0.2-0.1,0.3-0.2c0.1-0.1,0.2-0.2,0.3-0.2c0.5-0.7,0.6-1.3,0.8-1.9c0.1-0.6,0.2-1.2,0.2-1.7c0.1-2.2,0-3.8-0.3-5
				c-0.2-1.2-0.5-2.1-0.9-2.5c-0.2-0.2-0.4-0.3-0.5-0.4c-0.1,0-0.2,0-0.2,0c0,0.1,0.2,0.1,0.4,0.5c0.2,0.4,0.4,1.2,0.6,2.4
				c0.1,1.2,0.2,2.8,0,4.8c-0.1,0.5-0.1,1-0.2,1.6c-0.1,0.5-0.3,1.1-0.5,1.6c-0.1,0.1-0.1,0.2-0.2,0.2c-0.1,0-0.1,0.1-0.3,0.1
				c-0.3,0-0.7,0-1,0c-0.7,0-1.4,0-2.2,0c-12.5,0-34.2-0.1-70.7-0.2c-31.2-0.1-84.8-0.1-138-0.2c-53.3,0-106.2,0-136.1,0
				c-31.9,0.1-51.3,0.1-62.7,0.3c-5.7,0.1-9.4,0.1-11.6,0.2C191.5,309.3,190.6,309.4,190.6,309.4z"/>
		</g>
	</g>
	<g>
		<g>
			<path class="st2" d="M486,309.7c0.4,0,0.6-0.3,0.8-2.1c0.1-1.7,0.1-5.9,0-7.6c-0.1-2-0.4-2.4-0.8-2.4c-0.4,0-0.7,0.4-0.8,2.4
				c-0.1,1.7-0.1,5.9,0,7.5C485.3,309.3,485.6,309.6,486,309.7z"/>
		</g>
	</g>
	<g>
		<g>
			<path class="st2" d="M436,390.3c-0.1-0.1-0.8,0.4-2.8,2.4c-2,2-5.4,5.5-11.2,11.1c-5.5,5.3-15.5,14.6-25.7,23.7
				c-5.1,4.6-10.2,9.1-14.8,13.2c-4.6,4.1-8.5,7.9-11.4,10.8c-6.7,6.7-10.5,10.8-12.8,13.1c-2.3,2.3-2.9,2.9-2.8,3.1
				c0.1,0.2,1-0.2,3.4-2.3c2.5-2.1,6.4-6,13.1-12.6c2.9-2.8,6.8-6.6,11.4-10.6c4.6-4.1,9.7-8.7,14.8-13.2
				c5.1-4.6,10.1-9.2,14.6-13.3c4.4-4.1,8.3-7.8,11-10.6c5.8-5.8,9.2-9.5,11.1-11.7C435.7,391.2,436.2,390.4,436,390.3z"/>
		</g>
	</g>
	<g>
		<g>
			<path class="st2" d="M358.5,383.8c0.2,0,0.1-1-0.3-4.3c-0.2-1.6-0.4-3.9-0.6-6.9c-0.1-3-0.2-6.8,0.5-11.4
				c0.6-4.3,2-10.5,5.7-16.4c3.8-5.8,9.8-11.1,16.6-15.2c6.8-4.2,14.1-7.3,20.9-9.7c6.8-2.4,12.9-4,17.5-5.2
				c10.7-2.5,17.2-3.4,21-4.1c3.8-0.6,4.8-0.8,4.8-1.1c0-0.2-1-0.3-4.8,0c-3.7,0.4-10.2,1.1-21,3.5c-4.6,1.1-10.8,2.7-17.6,5
				c-6.8,2.4-14.3,5.5-21.2,9.7l-2.6,1.6l-1.3,0.8l-1.2,0.9c-1.6,1.2-3.2,2.4-4.6,3.8c-0.7,0.7-1.5,1.3-2.2,2
				c-0.7,0.7-1.3,1.4-1.9,2.1c-1.3,1.4-2.4,2.9-3.4,4.4c-2,3.1-3.3,6.2-4.2,9.1c-0.4,1.5-0.8,2.9-1.1,4.2c-0.1,0.7-0.3,1.3-0.4,1.9
				c-0.1,0.6-0.2,1.2-0.3,1.8c-0.6,4.8-0.5,8.7-0.3,11.8c0.2,3.1,0.6,5.4,0.9,7.1C357.9,382.9,358.4,383.8,358.5,383.8z"/>
		</g>
	</g>
	<g>
		<g>
			<path class="st2" d="M398.3,466.9c0.3-0.3-0.2-0.9-2.6-4c-1.1-1.5-3.1-4.1-4.9-6.9c-1.8-2.8-3.5-5.7-4.4-7.4
				c-2.3-4-2.8-4.7-3.2-4.5c-0.2,0.1-0.2,0.4,0,1.1c0.2,0.8,0.8,2,1.8,4.1c0.9,1.8,2.5,4.7,4.4,7.5c1.8,2.8,3.9,5.5,5.1,6.9
				C397.1,466.8,398,467.2,398.3,466.9z"/>
		</g>
	</g>
	<g>
		<g>
			<path class="st2" d="M420.4,410.4c-0.2,0.1-0.2,0.5,0.1,1.7c0.1,0.6,0.4,1.4,0.7,2.5c0.3,1.1,0.7,2.5,1.2,4.2
				c0.9,3.2,2.4,9,3.5,14.9c1.2,5.9,2,11.9,2.4,15.4c0.9,8.2,1,9.8,1.4,9.8c0.4,0,0.9-1.6,0.1-9.8c-0.3-3.5-1.1-9.6-2.3-15.5
				c-1.1-5.9-2.7-11.7-3.8-15c-1.1-3.5-1.9-5.5-2.5-6.7C420.9,410.7,420.6,410.4,420.4,410.4z"/>
		</g>
	</g>
	<g>
		<g>
			<path class="st2" d="M555.4,451.1c0.1,0.1,0.2,0,0.5-0.2c0.3-0.2,0.6-0.7,1-1.4c0.4-0.8,0.9-1.8,1.3-3.3c0.4-1.5,0.6-3.5,0.3-6
				c-0.1-0.6-0.2-1.2-0.4-1.9c-0.1-0.3-0.2-0.7-0.3-1c-0.1-0.2-0.1-0.4-0.2-0.5l-0.1-0.3c-0.1-0.1-0.1-0.3-0.2-0.5
				c-0.2-0.1-0.5-0.3-0.8-0.4c-0.2-0.1-0.4-0.2-0.6-0.3c-0.4-0.2-0.8-0.3-1.3-0.4c-0.9-0.2-1.9-0.2-2.8-0.1c-1,0.2-1.9,0.5-2.8,0.9
				c-0.9,0.4-1.8,1-2.6,1.6c-1.6,1.3-2.9,2.9-4,4.7c-1.1,1.7-2,3.6-2.6,5.5c-0.6,1.9-1.1,3.9-1,5.8c0.1,1.9,0.7,3.9,2.1,5.1
				c0.2,0.1,0.3,0.3,0.5,0.4c0.1,0,0.1,0.1,0.2,0.2l0.2,0.1l0.3,0.1c0.4,0.1,0.8,0.2,1.1,0.2c0.7,0.1,1.5,0.1,2.1,0.1
				c1.5-0.1,2.8-0.7,3.8-1.3c1-0.6,1.8-1.2,2.5-1.8c1.3-1.2,2.1-2.3,2.7-3.1C555.4,451.8,555.5,451.2,555.4,451.1
				c-0.2-0.1-0.6,0.2-1.8,1.6c-0.6,0.7-1.5,1.6-2.8,2.7c-1.3,1-3,2.3-5.5,2.6c-0.5,0-1.1,0-1.7,0c-0.3-0.1-0.6-0.1-0.9-0.2
				c-0.1,0-0.2-0.1-0.4-0.1l-0.3-0.2c-0.5-0.4-0.9-1-1.2-1.6c-0.2-0.7-0.4-1.4-0.5-2.3c-0.1-1.6,0.2-3.4,0.8-5.2
				c0.6-1.8,1.4-3.5,2.4-5.2c1-1.7,2.2-3.1,3.6-4.3c1.4-1.2,3-2,4.5-2.3c1.6-0.3,3.1,0,4.2,0.6c0,0,0,0,0,0c0.1,0.2,0.1,0.3,0.2,0.5
				c0.1,0.3,0.2,0.6,0.3,0.9c0.2,0.6,0.3,1.2,0.4,1.7c0.4,2.2,0.3,4.1,0,5.5c-0.2,1.4-0.6,2.5-0.9,3.3c-0.3,0.8-0.5,1.3-0.6,1.6
				C555.3,450.9,555.3,451.1,555.4,451.1z"/>
		</g>
	</g>
	<g>
		<g>
			<path class="st2" d="M543,461.8c0.1,0.1,0.1,0.2,0.1,0.2c0,0.1,0,0.2,0.1,0.5c0.2,0.6,0.5,1.7,0.9,3.6c0.2,0.9,0.4,2.1,0.4,3.5
				c0,0.7,0,1.4-0.1,2.1c-0.1,0.3-0.2,0.7-0.3,0.9c-0.1,0.2-0.3,0.3-0.4,0.4c-0.2,0-0.5,0-0.7-0.1c-0.2-0.1-0.4-0.2-0.5-0.5
				c-0.3-0.5-0.4-1.2-0.5-1.9c-0.1-1.4,0.1-2.7,0.2-3.6c0.3-2.2,0.7-3.5,0.8-4.2C543.1,462.1,543.1,462,543,461.8
				c-0.1-0.2-0.6-0.1-1,0.6c-0.4,0.7-1,2-1.5,4.3c-0.2,1-0.4,2.3-0.3,4c0.1,0.8,0.2,1.7,0.7,2.6c0.2,0.5,0.7,0.9,1.2,1.2
				c0.6,0.2,1.1,0.3,1.8,0.2c0.7-0.1,1.2-0.6,1.5-1.1c0.3-0.5,0.5-1,0.5-1.4c0.2-0.9,0.2-1.7,0.2-2.5c-0.1-1.6-0.3-2.9-0.6-3.8
				c-0.5-2-1-3.1-1.5-3.8c-0.2-0.3-0.5-0.5-0.8-0.6c-0.1,0-0.2,0-0.3,0.1C543,461.7,543,461.7,543,461.8z"/>
		</g>
	</g>
	<g>
		<g>
			<path class="st2" d="M539,491.3c-0.1,0-0.2,0.2,0,0.5c0.1,0.3,0.6,0.8,1.3,1.1c1.5,0.7,4.2,1.3,8.6,1.5c2.1,0.1,5,0.1,8.3-0.1
				c1.6-0.1,3.4-0.2,5.2-0.5c0.9-0.1,1.8-0.2,2.7-0.4c0.5-0.1,0.9-0.2,1.4-0.3l0.2,0l0.3-0.1c0.2-0.1,0.4-0.1,0.6-0.2
				c0.4-0.1,0.8-0.3,1-0.5c0.3-0.2,0.4-0.4,0.5-0.6c0-0.1,0.1-0.3,0-0.4l-0.1-0.4c-0.1-0.4-0.8-0.7-1.7-0.9l-0.7-0.1l-0.4-0.1
				l-0.7-0.1c-0.5-0.1-0.9-0.1-1.4-0.2c-1.8-0.2-3.6-0.4-5.2-0.5c-3.3-0.2-6.3-0.3-8.5-0.3c-5.1,0-8.2,0.4-10,0.9
				c-0.9,0.3-1.5,0.7-1.7,1.2C538.7,491.2,539,491.4,539,491.3c0.2-0.1,0-0.4,1.7-0.8c1.6-0.3,4.6-0.5,9.6-0.4
				c2.1,0,5.1,0.2,8.4,0.4c1.6,0.1,3.4,0.3,5.1,0.5c0.4,0.1,0.9,0.1,1.3,0.2l1.1,0.2l0,0l0,0c-0.4,0.1-0.8,0.2-1.3,0.3
				c-0.9,0.2-1.8,0.3-2.6,0.4c-1.8,0.2-3.5,0.4-5.1,0.5c-3.2,0.2-6.1,0.3-8.1,0.3c-4.4,0-7-0.4-8.4-0.8
				C539.3,491.7,539.3,491.3,539,491.3z"/>
		</g>
	</g>
	<g>
		<g>
			<path class="st2" d="M210.1,472.2c-0.2,0-0.2,1.1,0.5,4.7c0.4,1.8,0.8,4.2,1.8,7.4c0.5,1.6,1,3.4,2.2,5.4
				c0.2,0.2,0.3,0.5,0.6,0.7c0.2,0.2,0.5,0.5,0.9,0.7c0.1,0,0.2,0.1,0.4,0.1l0.2,0l0.4,0c0.3,0,0.6,0.1,0.9,0.1
				c1.2,0.1,2.4,0.2,3.7,0.3c2.4,0.2,5.4,0.5,8.6,0.6c1.6,0.1,3.4,0.1,5.2,0.1c0.9,0,1.9,0,2.8-0.1c0.5,0,1-0.1,1.5-0.2
				c0.3-0.1,0.5-0.1,0.8-0.2c0.2-0.1,0.3-0.1,0.5-0.2c0.2-0.1,0.3-0.3,0.4-0.5c0.1-0.1,0.1-0.2,0.2-0.3c0-0.1,0.1-0.1,0.1-0.2
				l0.1-0.4c0.1-0.3,0.2-0.5,0.2-0.7c0.2-0.5,0.3-1,0.4-1.5c0.2-1,0.5-2,0.7-3c0.4-2,0.8-4.1,1.2-6.1c0.8-4.2,1.6-8.5,2.3-12.8
				c1.5-8.6,2.8-17.3,3.9-25.1c0.3-2,0.5-3.9,0.7-5.7l0-0.7c0-0.1,0-0.2,0-0.4l0-0.2c0-0.1,0-0.2,0-0.3c0-0.2-0.1-0.4-0.2-0.6
				c-0.1-0.2-0.3-0.3-0.5-0.4c-0.2-0.1-0.3-0.2-0.6-0.3l-0.4-0.1c-0.9-0.2-1.8-0.3-2.7-0.3c-3.4-0.3-6.4-0.4-9-0.4
				c-12.1-0.3-19.3-0.1-23.4,0.1c-4.2,0.2-5.3,0.4-5.3,0.6c0,0.2,1.1,0.3,5.2,0.4c4.1,0.1,11.2,0.1,23.1,0.4
				c2.5,0.1,5.6,0.2,8.9,0.5c0.8,0.1,1.7,0.2,2.5,0.3c0.2,0,0.4,0.1,0.6,0.1c0,0,0,0,0,0l0,0.1c0,0.2,0,0.4,0,0.6
				c-0.1,1.8-0.4,3.7-0.7,5.6c-1.1,7.8-2.4,16.4-3.9,25c-0.7,4.3-1.5,8.6-2.3,12.7c-0.4,2.1-0.8,4.1-1.2,6.1c-0.4,2-0.8,4-1.4,5.7
				c0,0.1-0.1,0.2-0.1,0.2c0,0,0,0,0,0l0,0c0.1,0.1,0.2,0.2,0.2,0.2l0.1,0.1c-0.6-0.6-0.2-0.2-0.3-0.3c0,0,0,0,0,0c0,0,0,0-0.1,0.1
				c-0.1,0-0.1,0.1-0.2,0.1c-0.4,0.1-0.8,0.2-1.2,0.2c-0.9,0.1-1.8,0.1-2.7,0.2c-1.8,0-3.5,0-5.1-0.1c-3.3-0.1-6.2-0.3-8.6-0.5
				c-1.3-0.1-2.5-0.2-3.7-0.3c-0.6,0-1.2-0.1-1.7-0.1l-0.2,0c0,0,0,0,0,0c0,0-0.1,0-0.2-0.1c-0.1-0.1-0.3-0.3-0.4-0.4
				c-0.6-0.7-1-1.7-1.3-2.5c-0.4-0.9-0.6-1.7-0.9-2.5c-1-3.2-1.6-5.6-2.1-7.4C210.6,473.3,210.3,472.2,210.1,472.2z"/>
		</g>
	</g>
	<g>
		<g>
			<g>
				<path class="st2" d="M227.5,330.5c0-0.1-0.2-0.1-0.4-0.1c-0.3,0.1-0.7,0.2-1.1,0.7c-1,0.9-2,3.2-1.5,6.7
					c0.2,1.6,0.7,3.9,1.8,6.2c0.6,1.2,1.2,2.4,2.2,3.5c0.9,1.1,2.1,2.3,3.8,2.7c0.2,0.1,0.4,0.1,0.7,0.1c0.1,0,0.2,0,0.4,0l0.5-0.1
					c0.2,0,0.4,0,0.5-0.1l0.2-0.5c0.1-0.2,0.2-0.3,0.2-0.5l0.1-0.3c0.2-0.8,0.3-1.5,0.4-2.2c0.1-1.4,0.1-2.8,0-4.1
					c-0.2-2.6-0.7-4.9-1.2-6.5c-0.6-1.9-1.3-3.4-2.1-4.5c-0.8-1.1-1.8-1.7-2.6-1.8c-0.4,0-0.7,0-1,0.1c-0.3,0.1-0.4,0.2-0.5,0.3
					C227.5,330.3,227.5,330.4,227.5,330.5c0,0.1,0.2,0.1,0.4,0.1c0.1,0,0.3,0,0.5,0c0.2,0,0.4,0,0.7,0.1c0.5,0.2,1.1,0.6,1.7,1.5
					c0.6,0.9,1.2,2.3,1.7,4.1c0.4,1.5,0.9,3.7,1,6.2c0.1,1.2,0.1,2.5,0,3.9c0,0.7-0.1,1.3-0.3,1.9l-0.1,0.3c0,0,0.1,0-0.1,0
					c-0.1,0-0.3,0-0.4,0c-1-0.2-2.1-1-2.9-2c-0.8-1-1.5-2.1-2-3.1c-1.1-2.2-1.6-4.2-1.8-5.7c-0.5-3.2,0.1-5.1,0.7-6
					c0.3-0.5,0.5-0.7,0.7-0.9C227.5,330.7,227.6,330.6,227.5,330.5z"/>
			</g>
		</g>
		<g>
			<g>
				<path class="st2" d="M235.9,357.5c0,0.2,0.4,0.3,1.6,0c1.2-0.3,3.3-1,5.9-3.4c1.2-1.2,2.7-3,3.7-5.5c0.5-1.2,0.9-2.6,0.9-4.1
					c0.1-1.5-0.1-3.1-1.1-4.6c-0.5-0.7-1.2-1.3-2-1.6c-0.9-0.4-2-0.2-2.7,0.3c-1.5,0.9-2.2,2.2-2.9,3.3c-1.3,2.4-2,4.6-2.4,6.2
					c-1,3.9-1.2,6.3-1.2,7.6C235.5,357.1,235.7,357.5,235.9,357.5c0.2,0,0.4-0.3,0.6-1.6c0.3-1.3,0.6-3.6,1.7-7.2
					c0.5-1.6,1.2-3.7,2.3-5.8c0.6-1,1.3-2.2,2.3-2.7c0.5-0.3,0.9-0.4,1.3-0.2c0.4,0.1,0.9,0.5,1.3,0.9c0.7,0.9,1,2.2,0.9,3.4
					c0,1.3-0.3,2.5-0.7,3.6c-0.8,2.2-2.1,4-3.1,5.1c-2.3,2.3-4.2,3.2-5.2,3.7C236.2,357.1,235.9,357.3,235.9,357.5z"/>
			</g>
		</g>
		<g>
			<g>
				<path class="st2" d="M237.8,376.3c0.1,0.2,0.4,0.2,1.6,0c1.1-0.3,3.1-0.9,6-2.5c1.4-0.8,3.2-2,5-3.9c0.9-0.9,1.8-2,2.3-3.4
					c0.3-0.7,0.5-1.5,0.5-2.3c0-0.8-0.3-1.8-0.9-2.4c-0.6-0.7-1.3-1.1-2-1.4c-0.8-0.3-1.7-0.4-2.5-0.2c-1.6,0.3-2.8,1.2-3.8,2.1
					c-1.9,1.8-3.1,3.8-3.9,5.3c-1.8,3.5-2.2,5.8-2.5,7.1C237.4,375.9,237.6,376.3,237.8,376.3c0.2,0,0.4-0.3,0.8-1.5
					c0.5-1.2,1.1-3.3,2.8-6.6c0.8-1.4,1.9-3.2,3.6-4.8c0.8-0.8,1.9-1.5,2.9-1.7c0.5-0.1,1.1-0.1,1.6,0.1c0.5,0.2,1,0.5,1.4,0.9
					c0.7,0.7,0.7,1.9,0.3,3c-0.4,1.1-1.2,2.1-1.9,3c-1.6,1.7-3.3,2.9-4.6,3.7c-2.7,1.7-4.6,2.5-5.6,3
					C238,375.9,237.7,376.2,237.8,376.3z"/>
			</g>
		</g>
		<g>
			<g>
				<path class="st2" d="M236.8,362.4c-0.1-0.1-0.4-0.1-1.2,0.3c-0.8,0.3-2,1.1-4.4,1.5c-1.1,0.2-2.7,0.3-4.3-0.2
					c-1.7-0.4-3.4-1.4-4.2-3c-0.2-0.4-0.2-0.6-0.1-0.8c0.1-0.2,0.4-0.4,0.7-0.6c0.8-0.3,1.7-0.4,2.6-0.4c1.8,0,3.4,0.3,4.5,0.7
					c2.7,0.8,4.1,1.7,5,2.2C236.4,362.5,236.7,362.6,236.8,362.4c0.1-0.1,0.1-0.5-0.6-1.2c-0.7-0.7-2.2-1.9-5.1-2.9
					c-1.2-0.4-2.9-0.8-5-0.9c-1,0-2.1,0.1-3.3,0.5c-0.6,0.2-1.2,0.6-1.6,1.3c-0.4,0.7-0.3,1.7-0.1,2.3c0.5,1.2,1.3,2.1,2.3,2.8
					c0.9,0.7,2,1.1,3,1.3c2,0.5,3.8,0.3,5,0.1c2.7-0.6,4-1.6,4.7-2.2C236.8,362.9,236.9,362.6,236.8,362.4z"/>
			</g>
		</g>
		<g>
			<g>
				<path class="st2" d="M251.3,394.4c0,0.2,0.4,0.4,1.5,0.3c1.2-0.1,3.2-0.6,5.9-2.6c1.3-1,2.9-2.4,4.3-4.6
					c0.7-1.1,1.3-2.3,1.7-3.7c0.2-0.7,0.3-1.5,0.2-2.3c-0.1-0.8-0.4-1.6-0.9-2.3c-0.5-0.6-1.2-1.2-2.1-1.4c-0.9-0.2-1.7-0.1-2.4,0.2
					c-1.5,0.5-2.5,1.4-3.5,2.3c-1.8,1.8-3,3.7-3.8,5.2c-1.7,3.5-1.9,6-1.7,7.3C250.7,394.2,251.1,394.4,251.3,394.4
					c0.2-0.1,0.2-0.4,0.2-1.6c0.1-1.2,0.3-3.3,2-6.5c0.7-1.3,1.8-3.1,3.5-4.7c0.8-0.8,1.8-1.6,2.8-2c1.1-0.4,2-0.3,2.7,0.6
					c0.7,0.8,0.8,1.9,0.5,3.1c-0.2,1.1-0.8,2.2-1.4,3.2c-1.2,1.9-2.7,3.4-3.8,4.3c-2.4,2-4.2,2.6-5.3,3
					C251.6,394.1,251.3,394.2,251.3,394.4z"/>
			</g>
		</g>
		<g>
			<g>
				<path class="st2" d="M243.9,403.6c0.1,0.1,0.4,0,1-0.8c0.6-0.8,1.4-2.2,1.9-4.9c0.2-1.3,0.4-3,0.1-5.1c-0.2-1-0.4-2.1-0.9-3.2
					c-0.3-0.5-0.6-1.1-1-1.6c-0.5-0.5-1.1-0.9-1.9-1c-0.4,0-0.8,0-1.1,0.1c-0.3,0.1-0.6,0.3-0.9,0.4c-0.3,0.2-0.5,0.4-0.8,0.6
					c-0.2,0.3-0.4,0.5-0.6,0.8c-0.7,1.1-0.9,2.3-0.9,3.3c-0.1,2.1,0.4,3.9,0.8,5.2c1.1,3,2.4,4.4,3.1,5.1
					C243.4,403.6,243.7,403.7,243.9,403.6c0.2-0.1,0.1-0.5-0.4-1.3c-0.5-0.9-1.5-2.3-2.4-5c-0.4-1.1-0.8-2.8-0.7-4.6
					c0-0.9,0.2-1.8,0.7-2.5c0.1-0.2,0.3-0.3,0.4-0.5c0.1-0.2,0.3-0.3,0.5-0.4c0.2-0.1,0.4-0.2,0.5-0.3c0.2-0.1,0.3-0.1,0.5-0.1
					c0.6,0,1.2,0.7,1.6,1.5c0.4,0.8,0.7,1.8,0.8,2.7c0.3,1.8,0.2,3.4,0.1,4.6c-0.3,2.5-0.9,3.9-1.3,4.7
					C243.8,403.2,243.7,403.5,243.9,403.6z"/>
			</g>
		</g>
		<g>
			<g>
				<path class="st2" d="M236.5,409.1c0.1,0.2,0.4,0.1,1.2-0.2c0.8-0.3,2.2-1,4.6-1.8c1.1-0.4,2.7-0.9,4.6-1.1
					c0.9-0.1,1.9-0.1,2.8,0.1c0.9,0.2,1.5,0.7,1.8,1.5c0.1,0.4,0.1,0.7,0,1c-0.1,0.3-0.4,0.6-0.8,0.8c-0.8,0.5-1.7,0.8-2.6,1
					c-1.8,0.4-3.5,0.4-4.8,0.3c-2.9-0.2-4.5-0.9-5.5-1.2C236.9,409.1,236.6,409,236.5,409.1c-0.1,0.1-0.1,0.5,0.8,1.2
					c0.9,0.6,2.6,1.6,5.8,1.9c1.3,0.1,3.2,0.2,5.2-0.2c1-0.2,2.1-0.5,3.2-1.2c0.5-0.3,1.1-0.8,1.4-1.5c0.4-0.7,0.4-1.6,0.2-2.2
					c-0.2-0.7-0.6-1.3-1.1-1.8c-0.5-0.5-1.2-0.7-1.8-0.9c-1.2-0.3-2.3-0.3-3.4-0.2c-2.1,0.2-3.7,0.8-4.9,1.2c-2.5,1-3.9,1.9-4.7,2.5
					C236.5,408.7,236.4,409,236.5,409.1z"/>
			</g>
		</g>
		<g>
			<g>
				<path class="st2" d="M226,380.5c0.1,0.2,0.3,0.2,1.1-0.1c0.7-0.3,1.9-1,3.3-2.7c0.7-0.8,1.5-2,2.1-3.6c0.3-0.8,0.5-1.7,0.4-2.8
					c-0.1-0.5-0.3-1.1-0.6-1.6c-0.4-0.5-0.9-0.9-1.4-1.1c-1-0.4-2.2-0.4-3.2,0c-1,0.4-1.8,1.2-2.2,2c-0.9,1.6-1.1,3.2-1.1,4.3
					c0,2.6,0.6,4,1,4.8C225.6,380.4,225.8,380.6,226,380.5c0.2-0.1,0.3-0.3,0.2-1.1c-0.1-0.8-0.5-2.2-0.4-4.5c0-1,0.2-2.3,0.9-3.4
					c0.3-0.6,0.8-1.1,1.4-1.3c0.6-0.3,1.3-0.3,1.9,0c0.6,0.2,0.9,0.6,1,1.3c0.1,0.6,0,1.4-0.2,2c-0.4,1.4-1.1,2.5-1.7,3.2
					c-1.2,1.6-2.2,2.4-2.7,2.9C226,380.1,225.9,380.3,226,380.5z"/>
			</g>
		</g>
		<g>
			<g>
				<path class="st2" d="M228.5,398.7c0-0.2-0.2-0.4-1-0.5c-0.8-0.2-2.2-0.4-4.3-1.3c-1-0.4-2.3-1.2-3.4-2.4c-1.1-1.1-1.9-3-1.1-4.3
					c0.4-0.6,1.1-1.1,1.8-1.1c0.7-0.1,1.5,0.3,2.2,0.7c1.4,0.9,2.3,2.2,2.9,3.1c1.4,2.3,1.9,3.9,2.3,4.7
					C228.1,398.5,228.3,398.8,228.5,398.7c0.2,0,0.3-0.3,0.2-1.3c-0.1-1-0.4-2.7-1.9-5.3c-0.7-1.1-1.6-2.5-3.3-3.7
					c-0.8-0.6-1.9-1.1-3.2-1.1c-1.3,0-2.5,0.8-3.2,1.9c-0.7,1.1-0.7,2.5-0.4,3.6c0.3,1.1,1,2,1.6,2.7c1.4,1.5,2.9,2.2,4,2.7
					c2.4,0.9,4,0.9,4.9,0.9C228.2,399,228.5,398.9,228.5,398.7z"/>
			</g>
		</g>
		<g>
			<g>
				<path class="st2" d="M229,419c-0.1-0.1-0.4-0.1-1.1,0.4c-0.7,0.4-1.8,1.2-3.9,2c-1,0.3-2.4,0.7-4,0.6c-0.8-0.1-1.6-0.3-2.3-0.7
					c-0.7-0.4-1.2-1-1.3-1.8c-0.2-0.8-0.1-1.5,0.4-2c0.5-0.5,1.3-0.8,2.1-0.9c1.6-0.2,3.1,0,4.2,0.3c2.5,0.6,3.9,1.5,4.7,1.9
					C228.5,419.1,228.8,419.2,229,419c0.1-0.1,0.1-0.5-0.7-1.1c-0.7-0.6-2.1-1.7-4.9-2.6c-1.2-0.3-2.9-0.7-4.8-0.4
					c-1,0.2-2.1,0.4-3,1.3c-0.5,0.4-0.8,1-1,1.7c-0.2,0.6-0.1,1.3,0,1.9c0.2,1.2,1,2.3,2,2.9c1,0.6,2.1,0.9,3,1
					c2,0.1,3.6-0.4,4.7-0.8c2.4-1,3.5-2.1,4.1-2.7C229,419.5,229.1,419.2,229,419z"/>
			</g>
		</g>
	</g>
	<g>
		<g>
			<path class="st2" d="M380.6,442.8c0.1,0.1,1.2-0.6,4.7-3.6c3.5-3,9.4-8,19.2-16.8c4.6-4.1,10.9-9.9,17.9-16.7
				c3.5-3.4,7.2-7.1,10.8-11c1.8-2,3.6-4,5.4-6.1c0.9-1.1,1.8-2.1,2.6-3.2c0.4-0.6,0.8-1.1,1.2-1.7l0.6-0.9l0.5-0.7
				c0,0,0.1-0.1,0-0.1c0,0,0,0,0,0l0.3,0l1,0l2.1,0c1.4,0,2.8-0.1,4.1-0.1c2.7-0.1,5.5-0.2,8.2-0.3c5.4-0.2,10.6-0.5,15.6-0.9
				c9.9-0.7,18.6-1.8,25.1-2.7c7.5-1.1,13.5-2.4,18.2-3.5c4.7-1.1,8.1-2.2,10.6-3c5-1.7,6.3-2.3,6.2-2.5c-0.1-0.2-1.4,0.1-6.4,1.5
				c-2.5,0.7-5.9,1.6-10.5,2.6c-4.6,1-10.5,2.2-18,3.3c-6.4,0.9-15,1.9-24.9,2.6c-4.9,0.3-10.1,0.7-15.5,0.9
				c-2.7,0.1-5.4,0.2-8.1,0.3c-1.4,0-2.7,0.1-4.1,0.1l-4.3,0.1l-0.5,0c-0.1,0.1-0.2,0.2-0.3,0.4l-0.4,0.6l-0.6,0.8
				c-0.4,0.6-0.8,1.1-1.2,1.6c-0.8,1.1-1.7,2.1-2.5,3.2c-1.7,2.1-3.5,4.1-5.3,6c-3.6,3.9-7.2,7.6-10.7,11
				c-7,6.8-13.2,12.6-17.8,16.8c-9.7,8.9-15.7,14.2-19.1,17.5C381.4,441.6,380.4,442.6,380.6,442.8z"/>
		</g>
	</g>
	<g>
		<g>
			<path class="st1" d="M499.5,479.5c0.4,0,0.6-0.3,0.7-1.7c0.1-1.4,0.1-4.8-0.1-6.2c-0.1-1.7-0.4-2-0.8-2c-0.4,0-0.7,0.3-0.8,2
				c-0.1,1.4,0,4.9,0.1,6.2C498.9,479.2,499.1,479.5,499.5,479.5z"/>
		</g>
	</g>
	<g>
		<g>
			<path class="st1" d="M511.3,479.5c0.4,0,0.6-0.3,0.8-1.5c0.1-1.2,0.1-4.2,0-5.4c-0.1-1.4-0.4-1.7-0.8-1.7c-0.4,0-0.7,0.3-0.8,1.7
				c-0.1,1.2-0.1,4.2,0,5.4C510.7,479.3,510.9,479.5,511.3,479.5z"/>
		</g>
	</g>
</g>
</svg>
