<svg xmlns="http://www.w3.org" xmlns:xlink="http://www.w3.org/1999/xlink" width="36px" height="36px" preserveAspectRatio="xMidYMid meet" viewBox="0 0 48 48" aria-hidden="true" role="img"><g fill="none" stroke-width="4" stroke-linejoin="round"><path d="M34 4H14c-2 1-5 5-5 15c0 12.5 5 25 8 25c2 0 2-2.5 2-2.5V24c0-5 8-4.5 8 0v11c0 8 7 11 9 9s-2-4-2-7c0-5 4-9 4-22c0-5-2.333-9-4-11z" fill="#2F88FF" stroke="#000"></path><path d="M10 12h27" stroke="#fff" stroke-linecap="round"></path><path d="M10.803 8c-.732 1.696-1.337 3.981-1.624 7M38 15a16.91 16.91 0 0 0-1.124-6" stroke="#000"></path></g></svg>