<svg xmlns="http://www.w3.org" xmlns:xlink="http://www.w3.org/1999/xlink" width="36px" height="36px" preserveAspectRatio="xMidYMid meet" viewBox="0 0 48 48" aria-hidden="true" role="img"><g fill="none" stroke="#000" stroke-width="4"><circle cx="24" cy="10" r="5" fill="#2F88FF"></circle><path d="M24 21C14 21 11 6 11 6L6 8l3 16.5c1.167.667 5.5 3 8 6.5s2 7 7.5 7s6-4.5 7.5-7s5.667-6 7-6.5L42 8l-5-2s-3 15-13 15z" fill="#2F88FF" stroke-linecap="round" stroke-linejoin="round"></path><path d="M34 29s7 4 7 13h-5c0-6-5-9-5-9M15 29s-7 4-7 13h5c0-6 5-9 5-9" stroke-linecap="round" stroke-linejoin="round"></path></g></svg>