<svg xmlns="http://www.w3.org" xmlns:xlink="http://www.w3.org/1999/xlink" width="36px" height="36px" preserveAspectRatio="xMidYMid meet" viewBox="0 0 48 48" aria-hidden="true" role="img"><g fill="none" stroke="#000" stroke-width="4" stroke-linecap="round" stroke-linejoin="round"><path d="M16 22l-6-10l-6 10"></path><path fill-rule="evenodd" clip-rule="evenodd" d="M10 28a6 6 0 0 0 6-6H4a6 6 0 0 0 6 6z" fill="#2F88FF"></path><path d="M44 22l-6-10l-6 10"></path><path fill-rule="evenodd" clip-rule="evenodd" d="M38 28a6 6 0 0 0 6-6H32a6 6 0 0 0 6 6z" fill="#2F88FF"></path><path d="M24 6v36M10 12h28M10 12h28M38 42H10"></path></g></svg>