<svg xmlns="http://www.w3.org" xmlns:xlink="http://www.w3.org/1999/xlink" width="36px" height="36px" preserveAspectRatio="xMidYMid meet" viewBox="0 0 48 48" aria-hidden="true" role="img"><g fill="none"><path d="M18 24c0-6.624 5.376-12 12-12s12 5.376 12 12" fill="#2F88FF"></path><path d="M18 24c0-6.624 5.376-12 12-12s12 5.376 12 12M12 4H4v32h8V4zM12 24h32M18 24l2 4.5c2 5 1.9 10.4 0 15.5M41 24l-2 4.5c-2 5-1.91 10.4 0 15.5M21.22 32h16.56M21.69 40h15.63M29.5 40V24" stroke="#000" stroke-width="4" stroke-miterlimit="2" stroke-linecap="round" stroke-linejoin="round"></path></g></svg>