<svg xmlns="http://www.w3.org" xmlns:xlink="http://www.w3.org/1999/xlink" width="36px" height="36px" preserveAspectRatio="xMidYMid meet" viewBox="0 0 48 48" aria-hidden="true" role="img"><g fill="none" stroke-width="4" stroke-linecap="round" stroke-linejoin="round"><path d="M32 15H16c0 3.47-5.78 7.903-9.317 10.291C5.123 26.345 4 27 4 27s1 3 3.5 8c1.894 3.788 4.075 5.854 5.02 6.633c.306.25.69.367 1.085.367h21.693c.455 0 .894-.154 1.217-.474c.86-.852 2.672-2.9 4.485-6.526c2.5-5 3-8 3-8s-1.278-.639-3-1.709c-3.554-2.207-9-6.25-9-10.291z" fill="#2F88FF" stroke="#000"></path><path d="M32 15l2-9h8M16 15l-2-9H6" stroke="#000"></path><path d="M4 27s2 4 8 4h24c5 0 8-4 8-4" stroke="#fff"></path><path d="M7.5 35C5 30 4 27 4 27s1.124-.655 2.683-1.709M41 35c2.5-5 3-8 3-8s-1.278-.639-3-1.709" stroke="#000"></path></g></svg>