<svg xmlns="http://www.w3.org" xmlns:xlink="http://www.w3.org/1999/xlink" width="36px" height="36px" preserveAspectRatio="xMidYMid meet" viewBox="0 0 48 48" aria-hidden="true" role="img"><g fill="none" stroke-width="4" stroke-linecap="round"><path d="M15 21.56a9.82 9.82 0 0 1 4.767-8.42a.479.479 0 0 0 .233-.411V4h8v8.729c0 .168.088.324.233.41A9.82 9.82 0 0 1 33 21.56V42a2 2 0 0 1-2 2H17a2 2 0 0 1-2-2V21.56z" fill="#2F88FF" stroke="#000" stroke-linejoin="round"></path><path d="M20 10h8" stroke="#fff"></path><path d="M33 23h-9v15h9" stroke="#fff" stroke-linejoin="round"></path><path d="M33 40V21M20 12V8M28 12V8" stroke="#000" stroke-linejoin="round"></path></g></svg>