<svg xmlns="http://www.w3.org" xmlns:xlink="http://www.w3.org/1999/xlink" width="36px" height="36px" preserveAspectRatio="xMidYMid meet" viewBox="0 0 48 48" aria-hidden="true" role="img"><g fill="none"><path d="M24 44c11.05 0 20-8.95 20-20S35.05 4 24 4S4 12.95 4 24s8.95 20 20 20z" stroke="#000" stroke-width="4" stroke-miterlimit="2" stroke-linejoin="round"></path><path d="M24 26c1.66 0 3-1.34 3-3s-1.34-3-3-3s-3 1.34-3 3s1.34 3 3 3zM31 18c1.66 0 3-1.34 3-3s-1.34-3-3-3s-3 1.34-3 3s1.34 3 3 3zM17 18c1.66 0 3-1.34 3-3s-1.34-3-3-3s-3 1.34-3 3s1.34 3 3 3z" fill="#000"></path></g></svg>