<svg xmlns="http://www.w3.org" xmlns:xlink="http://www.w3.org/1999/xlink" width="36px" height="36px" preserveAspectRatio="xMidYMid meet" viewBox="0 0 48 48" aria-hidden="true" role="img"><g fill="none" stroke="#000" stroke-width="4"><path d="M41 18H19a1 1 0 0 0-1 1v22a1 1 0 0 0 1 1h22a1 1 0 0 0 1-1V19a1 1 0 0 0-1-1z" fill="#2F88FF" stroke-linejoin="round"></path><path d="M9.97 6H6v4.034M9.997 30H6v-3.988M26.002 6H30v4.015M16.028 6h3.98M6 16v4M30 16v2.007" stroke-linecap="round" stroke-linejoin="round"></path><path d="M15.993 30H18" stroke-linecap="round"></path></g></svg>