<svg xmlns="http://www.w3.org" xmlns:xlink="http://www.w3.org/1999/xlink" width="36px" height="36px" preserveAspectRatio="xMidYMid meet" viewBox="0 0 48 48" aria-hidden="true" role="img"><g stroke-width="4" fill="none" fill-rule="evenodd" stroke-linejoin="round"><path d="M24 42c12 0 14-10.468 14-14V14H10v14c0 3.45 2 14 14 14z" stroke="#000" fill="#2F88FF" fill-rule="nonzero"></path><path d="M4 8l6 6M44 8l-6 6M4 27h6M44 27h-6M7 44l6-6M41 44l-6-6" stroke="#000" stroke-linecap="round"></path><path d="M24 42V14" stroke="#FFF" stroke-linecap="round"></path><path d="M14.92 39.04C17.002 40.784 19.925 42 24 42h0c4.111 0 7.049-1.229 9.134-2.986" stroke="#000" stroke-linecap="round"></path><path d="M32 12.333C32 7.731 28.418 4 24 4s-8 3.731-8 8.333V14h16v-1.667z" stroke="#000" fill="#2F88FF" fill-rule="nonzero"></path></g></svg>