<svg xmlns="http://www.w3.org" xmlns:xlink="http://www.w3.org/1999/xlink" width="36px" height="36px" preserveAspectRatio="xMidYMid meet" viewBox="0 0 48 48" aria-hidden="true" role="img"><g fill="none" stroke="#000" stroke-width="4" stroke-linejoin="round"><path d="M6.012 34.005V8.036a2 2 0 0 1 2-2H40a2 2 0 0 1 2 2v25.969a3 3 0 0 1-3 3h-1.995V38a4 4 0 0 1-4 4h0a4 4 0 0 1-4-4v-.995h-9.997v.997a3.998 3.998 0 0 1-7.997 0v-.997H9.012a3 3 0 0 1-3-3z"></path><path d="M42 23H6" stroke-linecap="round"></path><path d="M34 13H14v10h20V13z" fill="#2F88FF" stroke-linecap="round"></path><path d="M14 30h2M32 30h2" stroke-linecap="round"></path></g></svg>