<svg xmlns="http://www.w3.org" xmlns:xlink="http://www.w3.org/1999/xlink" width="36px" height="36px" preserveAspectRatio="xMidYMid meet" viewBox="0 0 48 48" aria-hidden="true" role="img"><g fill="none" stroke-width="4" stroke-linejoin="round"><path d="M5 19h38v21a2 2 0 0 1-2 2H7a2 2 0 0 1-2-2V19z" fill="#2F88FF" stroke="#000"></path><path d="M5 9a2 2 0 0 1 2-2h34a2 2 0 0 1 2 2v10H5V9z" stroke="#000"></path><path d="M16 4v8M32 4v8" stroke="#000" stroke-linecap="round"></path><path d="M28 34h6M14 34h6M28 26h6M14 26h6" stroke="#fff" stroke-linecap="round"></path></g></svg>