<svg xmlns="http://www.w3.org" xmlns:xlink="http://www.w3.org/1999/xlink" width="36px" height="36px" preserveAspectRatio="xMidYMid meet" viewBox="0 0 48 48" aria-hidden="true" role="img"><g fill="none"><path fill-rule="evenodd" clip-rule="evenodd" d="M13.5 32a2.5 2.5 0 1 0 0-5a2.5 2.5 0 0 0 0 5zM34.5 32a2.5 2.5 0 1 0 0-5a2.5 2.5 0 0 0 0 5z" fill="#000"></path><path d="M7 37a3 3 0 0 1-3-3v-9.29a6 6 0 0 1 3.319-5.368l.682-.34l2.31-9.91A4 4 0 0 1 14.205 6h19.688a4 4 0 0 1 3.904 3.128l2.205 9.873l.68.34A6 6 0 0 1 44 24.709V34a3 3 0 0 1-3 3h-1.997v1A4.001 4.001 0 0 1 31 38v-1H17v1a4 4 0 1 1-8 0v-1H7z" fill="#2F88FF" stroke="#000" stroke-width="4" stroke-linejoin="round"></path><path d="M14 22h20l-1.652-7.434A2 2 0 0 0 30.396 13H17.604a2 2 0 0 0-1.952 1.566L14 22z" fill="#43CCF8" stroke="#fff" stroke-width="4" stroke-linejoin="round"></path></g></svg>