<svg xmlns="http://www.w3.org" xmlns:xlink="http://www.w3.org/1999/xlink" width="36px" height="36px" preserveAspectRatio="xMidYMid meet" viewBox="0 0 48 48" aria-hidden="true" role="img"><g fill="none" stroke="#000" stroke-width="4" stroke-linejoin="round"><path d="M24 42c9.389 0 17-7.611 17-17S33.389 8 24 8S7 15.611 7 25s7.611 17 17 17z"></path><path d="M33 21l-2 1l-2-1M19 21l-2 1l-2-1M24 38v6M24 8c-.25-1-2-4-6-4M24 8c.083-1 .6-3.2 2-4M31.975 40c0-6 0-9-7.975-9c-8 0-7.975 3-7.975 9M5 23v4M43 23v4" stroke-linecap="round"></path></g></svg>