<svg xmlns="http://www.w3.org" xmlns:xlink="http://www.w3.org/1999/xlink" width="36px" height="36px" preserveAspectRatio="xMidYMid meet" viewBox="0 0 48 48" aria-hidden="true" role="img"><g fill="#2F88FF" fill-rule="evenodd" clip-rule="evenodd" stroke="#000" stroke-width="4" stroke-linecap="round" stroke-linejoin="round"><path d="M24 12a4 4 0 1 0 0-8a4 4 0 0 0 0 8zM24 28a4 4 0 1 0 0-8a4 4 0 0 0 0 8zM34.393 18a4 4 0 1 0 6.928-4a4 4 0 0 0-6.928 4zM34.393 30a4 4 0 1 0 6.928 4a4 4 0 0 0-6.928-4zM24 36a4 4 0 1 0 0 8a4 4 0 0 0 0-8zM13.608 30a4 4 0 1 0-6.928 4a4 4 0 0 0 6.928-4zM13.608 18a4 4 0 1 0-6.928-4a4 4 0 0 0 6.928 4z"></path></g></svg>