<svg xmlns="http://www.w3.org" xmlns:xlink="http://www.w3.org/1999/xlink" width="36px" height="36px" preserveAspectRatio="xMidYMid meet" viewBox="0 0 48 48" aria-hidden="true" role="img"><g fill="none" stroke-width="4" stroke-linejoin="round"><path d="M24 44c9.941 0 18-8.059 18-18S33.941 8 24 8S6 16.059 6 26s8.059 18 18 18z" fill="#2F88FF" stroke="#000"></path><path d="M24 8c-.25-1-2-4-6-4M24 8c.083-1 .6-3.2 2-4" stroke="#000" stroke-linecap="round"></path><path d="M31 35s-2-4-7-4s-7 4-7 4M34 20l-6-1M20 19l-6 1M15 20v5M33 20v5" stroke="#fff" stroke-linecap="round"></path><path d="M4 24v4M44 24v4" stroke="#000" stroke-linecap="round"></path></g></svg>