<svg xmlns="http://www.w3.org" xmlns:xlink="http://www.w3.org/1999/xlink" width="36px" height="36px" preserveAspectRatio="xMidYMid meet" viewBox="0 0 48 48" aria-hidden="true" role="img"><g fill="none" stroke-width="4" stroke-linecap="round" stroke-linejoin="round"><path d="M5 10v28a2 2 0 0 0 2 2h11l-3-11l7-2l-1-7l8-4l-2-3l3-5H7a2 2 0 0 0-2 2zM43 38V10a2 2 0 0 0-2-2h-3l-4 6l3 5l-9 4l1 8l-7 2l2 7h17a2 2 0 0 0 2-2z" fill="#2F88FF" stroke="#000"></path><path fill-rule="evenodd" clip-rule="evenodd" d="M14.5 18a1.5 1.5 0 1 0 0-3a1.5 1.5 0 0 0 0 3z" fill="#43CCF8" stroke="#fff"></path></g></svg>