<svg xmlns="http://www.w3.org" xmlns:xlink="http://www.w3.org/1999/xlink" width="36px" height="36px" preserveAspectRatio="xMidYMid meet" viewBox="0 0 48 48" aria-hidden="true" role="img"><g fill="none" stroke="#000" stroke-width="4" stroke-linecap="round" stroke-linejoin="round"><path d="M4 40l2.5 1.351c1.6.865 3.4.865 5 0c1.6-.864 3.4-.864 5 0c1.6.865 3.4.865 5 0c1.6-.864 3.4-.864 5 0c1.6.865 3.4.865 5 0c1.6-.864 3.4-.864 5 0c1.6.865 3.4.865 5 0L44 40M14 11V4M31 11V4M21 8V4M38 8V4" stroke-miterlimit="2"></path><path d="M12 6h8M29 6h8"></path><rect x="10" y="11" width="8" height="24" rx="4"></rect><rect x="27" y="11" width="8" height="24" rx="4"></rect><path d="M27 15a4 4 0 0 1 8 0v4h-8v-4zM10 15a4 4 0 0 1 8 0v4h-8v-4z" fill="#2F88FF"></path></g></svg>