<svg xmlns="http://www.w3.org" xmlns:xlink="http://www.w3.org/1999/xlink" width="36px" height="36px" preserveAspectRatio="xMidYMid meet" viewBox="0 0 48 48" aria-hidden="true" role="img"><g fill="none" stroke="#000" stroke-width="4" stroke-linecap="round"><path fill-rule="evenodd" clip-rule="evenodd" d="M24 37a15.95 15.95 0 0 0 11.314-4.686A15.95 15.95 0 0 0 40 21a15.95 15.95 0 0 0-4.686-11.314A15.95 15.95 0 0 0 24 5a15.95 15.95 0 0 0-11.314 4.686A15.95 15.95 0 0 0 8 21a15.95 15.95 0 0 0 4.686 11.314A15.95 15.95 0 0 0 24 37z" fill="#2F88FF"></path><path d="M39.556 36.556A21.932 21.932 0 0 1 24 43a21.932 21.932 0 0 1-15.556-6.444"></path></g></svg>