<svg xmlns="http://www.w3.org" xmlns:xlink="http://www.w3.org/1999/xlink" width="36px" height="36px" preserveAspectRatio="xMidYMid meet" viewBox="0 0 48 48" aria-hidden="true" role="img"><g fill="none" stroke="#000" stroke-width="4" stroke-linecap="round"><path d="M5 17h13M30 17h13M30 31h13M5 31h13M30 9h13v30H30M18 9H5v30h13" stroke-linejoin="round"></path><path d="M43 39v-8h-9v8h9zM14 39v-8H5v8h9zM43 17V9h-9v8h9zM5 9v8h9V9H5z" fill="#2F88FF" stroke-linejoin="round"></path><path d="M24 7v4M24 17v4M24 27v4M24 37v4"></path></g></svg>