<svg xmlns="http://www.w3.org" xmlns:xlink="http://www.w3.org/1999/xlink" width="36px" height="36px" preserveAspectRatio="xMidYMid meet" viewBox="0 0 48 48" aria-hidden="true" role="img"><g fill="none"><path d="M16 10a5 5 0 1 1-10 0a5 5 0 0 1 10 0z" fill="#2F88FF"></path><path d="M16 10a5 5 0 1 1-10 0a5 5 0 0 1 10 0zm0 0h11m0 0l-4-4m4 4l-4 4" stroke="#000" stroke-width="4" stroke-linecap="round" stroke-linejoin="round"></path><path d="M32 38a5 5 0 1 0 10 0a5 5 0 0 0-10 0z" fill="#2F88FF"></path><path d="M32 38a5 5 0 1 0 10 0a5 5 0 0 0-10 0zm0 0H21m0 0l4-4m-4 4l4 4" stroke="#000" stroke-width="4" stroke-linecap="round" stroke-linejoin="round"></path><path d="M33 11a5 5 0 1 0 10 0a5 5 0 0 0-10 0z" fill="#2F88FF"></path><path d="M38 16a5 5 0 1 1 0-10a5 5 0 0 1 0 10zm0 0v11m0 0l4-4m-4 4l-4-4" stroke="#000" stroke-width="4" stroke-linecap="round" stroke-linejoin="round"></path><path d="M5 37a5 5 0 1 1 10 0a5 5 0 0 1-10 0z" fill="#2F88FF"></path><path d="M10 32a5 5 0 1 0 0 10a5 5 0 0 0 0-10zm0 0V21m0 0l4 4m-4-4l-4 4" stroke="#000" stroke-width="4" stroke-linecap="round" stroke-linejoin="round"></path></g></svg>