<svg xmlns="http://www.w3.org" xmlns:xlink="http://www.w3.org/1999/xlink" width="36px" height="36px" preserveAspectRatio="xMidYMid meet" viewBox="0 0 48 48" aria-hidden="true" role="img"><g fill="none"><path d="M9 44l15-22M39 44L24 22" stroke="#000" stroke-width="4" stroke-linecap="round"></path><path d="M9.132 24A15.14 15.14 0 0 1 9 22a14.95 14.95 0 0 1 1.5-6.546M11.157 29.753A15.018 15.018 0 0 0 21 36.7M27 36.7a15.019 15.019 0 0 0 9.911-7.06M38.868 24c.087-.654.132-1.322.132-2a14.94 14.94 0 0 0-1.5-6.546M27 7.3a14.954 14.954 0 0 1 7 3.52M21 7.3a14.954 14.954 0 0 0-7.614 4.101" stroke="#000" stroke-width="4"></path><circle cx="10" cy="27" r="3" fill="#2F88FF" stroke="#000" stroke-width="4"></circle><circle cx="24" cy="37" r="3" fill="#2F88FF" stroke="#000" stroke-width="4"></circle><circle cx="24" cy="7" r="3" fill="#2F88FF" stroke="#000" stroke-width="4"></circle><circle cx="12" cy="13" r="3" fill="#2F88FF" stroke="#000" stroke-width="4"></circle><circle cx="36" cy="13" r="3" fill="#2F88FF" stroke="#000" stroke-width="4"></circle><circle cx="38" cy="27" r="3" fill="#2F88FF" stroke="#000" stroke-width="4"></circle><circle cx="24" cy="22" r="4" fill="#000"></circle><path d="M6 44h8M34 44h8" stroke="#000" stroke-width="4" stroke-linecap="round" stroke-linejoin="round"></path></g></svg>