<svg xmlns="http://www.w3.org" xmlns:xlink="http://www.w3.org/1999/xlink" width="36px" height="36px" preserveAspectRatio="xMidYMid meet" viewBox="0 0 48 48" aria-hidden="true" role="img"><g fill="none"><path d="M10 44h28a2 2 0 0 0 2-2V14L31 4H10a2 2 0 0 0-2 2v36a2 2 0 0 0 2 2z" stroke="#000" stroke-width="4" stroke-linecap="round" stroke-linejoin="round"></path><path d="M24 31v-3c2.21 0 4-2.015 4-4.5S26.21 19 24 19s-4 2.015-4 4.5" stroke="#000" stroke-width="4" stroke-linecap="round" stroke-linejoin="round"></path><path fill-rule="evenodd" clip-rule="evenodd" d="M24 39a2.5 2.5 0 1 0 0-5a2.5 2.5 0 0 0 0 5z" fill="#000"></path><path d="M30 4v10h10" stroke="#000" stroke-width="4" stroke-linecap="round" stroke-linejoin="round"></path></g></svg>