<svg xmlns="http://www.w3.org" xmlns:xlink="http://www.w3.org/1999/xlink" width="36px" height="36px" preserveAspectRatio="xMidYMid meet" viewBox="0 0 48 48" aria-hidden="true" role="img"><g fill="none" stroke="#000" stroke-width="4" stroke-linecap="round"><path d="M25 41h13v-7M25 7h13v7M25 34.243V44l-15-5.381V34M25 13.973V4L10 9.381v4.592" stroke-linejoin="round"></path><rect x="4" y="14" width="40" height="20" rx="2" stroke-linejoin="round"></rect><path d="M10 19v10M21 19v10"></path><path d="M35 20v8M32 20h6M10 19h3a3 3 0 0 1 3 3v0a3 3 0 0 1-3 3h-3M21 19h3a3 3 0 0 1 3 3v0a3 3 0 0 1-3 3h-3" stroke-linejoin="round"></path></g></svg>