<svg xmlns="http://www.w3.org" xmlns:xlink="http://www.w3.org/1999/xlink" width="36px" height="36px" preserveAspectRatio="xMidYMid meet" viewBox="0 0 48 48" aria-hidden="true" role="img"><path d="M34 41c-5.83 3.175-12.5 2.5-16 1S6 35.5 6 27c0-4.247 5.771-6.33 7.51-6.86a.686.686 0 0 0 .49-.652V12a3.5 3.5 0 1 1 7 0V9.5a3.5 3.5 0 0 1 7 0V12a3.5 3.5 0 1 1 7 0v4.493a3.5 3.5 0 0 1 7 .003V30c0 4-3.87 8.751-8 11z" fill="#2F88FF" stroke="#000" stroke-width="4" stroke-linecap="round" stroke-linejoin="round"></path></svg>