<svg xmlns="http://www.w3.org" xmlns:xlink="http://www.w3.org/1999/xlink" width="36px" height="36px" preserveAspectRatio="xMidYMid meet" viewBox="0 0 48 48" aria-hidden="true" role="img"><g fill="none" stroke="#000" stroke-width="4" stroke-linejoin="round"><path d="M38.986 23c-.313 10.709-5.866 16.522-13.984 20c-4.393-1.881-8.034-4.447-10.502-8.101M39 19v-8.744L25.007 5L11 10.256v11.773c0 2.587.294 4.9.848 6.971"></path><path d="M9.268 30.632c-1.373-1.257-2.99-3.877-3.587-4.027c0 0-1.798 4.434-1.68 7.395c.117 2.96 2.896 4.635 5.824 3.22C12.753 35.806 44 20 44 20l-9-2L9.268 30.632z" fill="#2F88FF" stroke-linecap="round"></path><path d="M28 21l-9-3l-2 1l3 6" stroke-linecap="round"></path></g></svg>