<svg xmlns="http://www.w3.org" xmlns:xlink="http://www.w3.org/1999/xlink" width="36px" height="36px" preserveAspectRatio="xMidYMid meet" viewBox="0 0 48 48" aria-hidden="true" role="img"><g fill="none" stroke-width="4"><path d="M21 22V12a2 2 0 0 0-2-2h-3a2 2 0 0 0-2 2v9M35 21v-7a2 2 0 0 0-2-2h-3a2 2 0 0 0-2 2v8M28 22V6a2 2 0 0 0-2-2h-3a2 2 0 0 0-2 2v16" stroke="#000" stroke-linecap="round" stroke-linejoin="round"></path><path d="M7 18s7 5 17 5s17-5 17-5l-4.818 26H11.818L7 18z" fill="#2F88FF" stroke="#000" stroke-linecap="round" stroke-linejoin="round"></path><ellipse cx="24" cy="33" rx="6" ry="3" fill="#43CCF8" stroke="#fff"></ellipse></g></svg>