<svg xmlns="http://www.w3.org" xmlns:xlink="http://www.w3.org/1999/xlink" width="36px" height="36px" preserveAspectRatio="xMidYMid meet" viewBox="0 0 48 48" aria-hidden="true" role="img"><g fill="none" stroke="#000" stroke-width="4" stroke-linecap="round" stroke-linejoin="round"><ellipse cx="14" cy="10" rx="10" ry="5"></ellipse><path d="M4 10v7c0 2.761 4.477 5 10 5s10-2.239 10-5v-7"></path><path d="M4 17v7c0 2.761 4.477 5 10 5s10-2.239 10-5v-7"></path><path d="M4 24v7c0 2.761 4.477 5 10 5s10-2.239 10-5v-7"></path><path d="M4 31v7c0 2.761 4.477 5 10 5s10-2.239 10-5v-7"></path><ellipse cx="34" cy="24" rx="10" ry="5"></ellipse><path d="M24 24v7c0 2.761 4.477 5 10 5s10-2.239 10-5v-7"></path><path d="M24 31v7c0 2.761 4.477 5 10 5s10-2.239 10-5v-7"></path></g></svg>