<svg xmlns="http://www.w3.org" xmlns:xlink="http://www.w3.org/1999/xlink" width="36px" height="36px" preserveAspectRatio="xMidYMid meet" viewBox="0 0 48 48" aria-hidden="true" role="img"><g fill="none" stroke="#000" stroke-width="4"><path d="M11 12.138c0-.079.059-.146.137-.156L32.082 9.28C37.342 8.6 42 12.697 42 18v0c0 5.303-4.659 9.399-9.918 8.72l-20.945-2.702a.157.157 0 0 1-.137-.156V12.138z"></path><path d="M11 12L4 8v20l7-4" stroke-linecap="round" stroke-linejoin="round"></path><path d="M38 25l-6.694 15.898A5.07 5.07 0 0 1 26.634 44v0c-3.625 0-6.078-3.695-4.672-7.036L27 25"></path><circle cx="35" cy="18" r="9" fill="#2F88FF"></circle></g></svg>