<svg xmlns="http://www.w3.org" xmlns:xlink="http://www.w3.org/1999/xlink" width="36px" height="36px" preserveAspectRatio="xMidYMid meet" viewBox="0 0 48 48" aria-hidden="true" role="img"><g fill="none" stroke="#000" stroke-width="4" stroke-linecap="round" stroke-linejoin="round"><path d="M21 16h-6v9a3 3 0 0 0 3 3v0a3 3 0 0 0 3-3v-9z" fill="#2F88FF"></path><path d="M18 28v10h-6M21 16V4H10.5C8 4 5 6 5 10s3.5 6 6 6h10zM27 22V10h10.5c2.5 0 5.5 2 5.5 6s-3.5 6-6 6H27z"></path><path d="M33 22h-6v9a3 3 0 1 0 6 0v-9z" fill="#2F88FF"></path><path d="M30 34v10h6"></path></g></svg>