<svg xmlns="http://www.w3.org" xmlns:xlink="http://www.w3.org/1999/xlink" width="36px" height="36px" preserveAspectRatio="xMidYMid meet" viewBox="0 0 48 48" aria-hidden="true" role="img"><g fill="none" stroke-width="4"><path d="M39 6H9a3 3 0 0 0-3 3v30a3 3 0 0 0 3 3h30a3 3 0 0 0 3-3V9a3 3 0 0 0-3-3z" fill="#2F88FF" stroke="#000"></path><path d="M27.3 12c-1.823 0-3.3 1.435-3.3 3.204c0 3.205 3.9 6.118 6 6.796c2.1-.678 6-3.59 6-6.796C36 13.434 34.523 12 32.7 12a3.326 3.326 0 0 0-2.7 1.362A3.326 3.326 0 0 0 27.3 12z" fill="#43CCF8" stroke="#fff" stroke-linecap="round" stroke-linejoin="round"></path></g></svg>