<svg xmlns="http://www.w3.org" xmlns:xlink="http://www.w3.org/1999/xlink" width="36px" height="36px" preserveAspectRatio="xMidYMid meet" viewBox="0 0 48 48" aria-hidden="true" role="img"><g fill="none" stroke-width="4"><path d="M4 4h40" stroke="#000" stroke-linecap="round" stroke-linejoin="round"></path><rect x="8" y="4" width="32" height="40" rx="2" fill="#2F88FF" stroke="#000" stroke-linejoin="round"></rect><path d="M20 32h8v12h-8V32z" stroke="#fff" stroke-linecap="round" stroke-linejoin="round"></path><path d="M15 12h2M15 18h2M23 12h2M23 18h2M31 12h2M31 18h2" stroke="#fff" stroke-linecap="round"></path><path d="M4 44h40" stroke="#000" stroke-linecap="round" stroke-linejoin="round"></path><path d="M28 32h2c.552 0 1.01-.452.904-.994C30.352 28.166 27.471 26 24 26c-3.47 0-6.352 2.165-6.904 5.006c-.106.542.352.994.904.994h2" stroke="#fff" stroke-linecap="round" stroke-linejoin="round"></path></g></svg>