<svg xmlns="http://www.w3.org" xmlns:xlink="http://www.w3.org/1999/xlink" width="36px" height="36px" preserveAspectRatio="xMidYMid meet" viewBox="0 0 48 48" aria-hidden="true" role="img"><g fill="none"><path d="M24 44a19.937 19.937 0 0 0 14.142-5.858A19.937 19.937 0 0 0 44 24a19.938 19.938 0 0 0-5.858-14.142A19.937 19.937 0 0 0 24 4A19.938 19.938 0 0 0 9.858 9.858A19.938 19.938 0 0 0 4 24a19.937 19.937 0 0 0 5.858 14.142A19.938 19.938 0 0 0 24 44z" fill="#2F88FF" stroke="#000" stroke-width="4" stroke-linejoin="round"></path><path fill-rule="evenodd" clip-rule="evenodd" d="M24 11a2.5 2.5 0 1 1 0 5a2.5 2.5 0 0 1 0-5z" fill="#fff"></path><path d="M24.5 34V20h-2M21 34h7" stroke="#fff" stroke-width="4" stroke-linecap="round" stroke-linejoin="round"></path></g></svg>