<svg xmlns="http://www.w3.org" xmlns:xlink="http://www.w3.org/1999/xlink" width="36px" height="36px" preserveAspectRatio="xMidYMid meet" viewBox="0 0 48 48" aria-hidden="true" role="img"><g fill="none" stroke="#000" stroke-width="4" stroke-linecap="round" stroke-linejoin="round"><path d="M31 31h9a2 2 0 0 0 2-2V8a2 2 0 0 0-2-2H19a2 2 0 0 0-2 2v9"></path><path d="M17 17H8a2 2 0 0 0-2 2v21a2 2 0 0 0 2 2h21a2 2 0 0 0 2-2v-9"></path><rect x="17" y="17" width="14" height="14" rx="2" fill="#2F88FF"></rect></g></svg>