<svg xmlns="http://www.w3.org" xmlns:xlink="http://www.w3.org/1999/xlink" width="36px" height="36px" preserveAspectRatio="xMidYMid meet" viewBox="0 0 48 48" aria-hidden="true" role="img"><g fill="none" stroke-width="4" stroke-linejoin="round"><path d="M44 24v16.818C44 42.023 43.105 43 42 43H6c-1.105 0-2-.977-2-2.182V24l20 13l20-13z" stroke="#000"></path><path d="M4 23.784l10-6.892m30 6.892l-10-6.892" stroke="#000" stroke-linecap="round"></path><path d="M34 5H14v24.415a2 2 0 0 0 .91 1.677l8 5.2a2 2 0 0 0 2.18 0l8-5.2a2 2 0 0 0 .91-1.677V5z" fill="#2F88FF" stroke="#000"></path><path d="M20 13h4M20 19h8" stroke="#fff" stroke-linecap="round"></path></g></svg>