<svg xmlns="http://www.w3.org" xmlns:xlink="http://www.w3.org/1999/xlink" width="36px" height="36px" preserveAspectRatio="xMidYMid meet" viewBox="0 0 48 48" aria-hidden="true" role="img"><g fill="none" stroke="#000" stroke-width="4" stroke-linecap="round" stroke-linejoin="round"><path d="M40 12v12H8M24 12v24M8 12v24"></path><path d="M44 8a4 4 0 1 1-8 0a4 4 0 0 1 8 0zM28 8a4 4 0 1 1-8 0a4 4 0 0 1 8 0zM12 8a4 4 0 1 1-8 0a4 4 0 0 1 8 0zM28 40a4 4 0 1 1-8 0a4 4 0 0 1 8 0zM12 40a4 4 0 1 1-8 0a4 4 0 0 1 8 0z" fill="#2F88FF"></path><circle cx="40" cy="40" r="4" fill="#2F88FF"></circle></g></svg>