<svg xmlns="http://www.w3.org" xmlns:xlink="http://www.w3.org/1999/xlink" width="36px" height="36px" preserveAspectRatio="xMidYMid meet" viewBox="0 0 48 48" aria-hidden="true" role="img"><g fill="none" stroke="#000" stroke-width="4" stroke-linecap="round" stroke-linejoin="round"><path d="M40 40H8a2 2 0 0 1-2-2V19.106a2 2 0 0 1 .336-1.11l6.07-9.105A2 2 0 0 1 14.07 8H40a2 2 0 0 1 2 2v28a2 2 0 0 1-2 2zM18 16V8M24 16V8M30 16V8M36 16V8"></path><path d="M15 28h18v12H15V28z" fill="#2F88FF"></path></g></svg>