<svg xmlns="http://www.w3.org" xmlns:xlink="http://www.w3.org/1999/xlink" width="36px" height="36px" preserveAspectRatio="xMidYMid meet" viewBox="0 0 48 48" aria-hidden="true" role="img"><g fill="none"><path d="M20.07 9.586l-4.242-4.243a2 2 0 0 0-2.828 0L7.343 11a2 2 0 0 0 0 2.828l4.243 4.243M28.929 37.414l4.242 4.243a2 2 0 0 0 2.829 0L41.657 36a2 2 0 0 0 0-2.828l-4.243-4.243" stroke="#000" stroke-width="4" stroke-linecap="round" stroke-linejoin="round"></path><rect x="34.606" y="4.908" width="12" height="42" rx="2" transform="rotate(45 34.606 4.908)" fill="#2F88FF" stroke="#000" stroke-width="4" stroke-linecap="round" stroke-linejoin="round"></rect><circle cx="24" cy="24" r="2" fill="#fff"></circle><circle cx="20" cy="28" r="2" fill="#fff"></circle><circle cx="28" cy="20" r="2" fill="#fff"></circle></g></svg>