<svg xmlns="http://www.w3.org" xmlns:xlink="http://www.w3.org/1999/xlink" width="36px" height="36px" preserveAspectRatio="xMidYMid meet" viewBox="0 0 48 48" aria-hidden="true" role="img"><g fill="none"><path d="M5 8a2 2 0 0 1 2-2h34a2 2 0 0 1 2 2v24a2 2 0 0 1-2 2H7a2 2 0 0 1-2-2V8z" stroke="#000" stroke-width="4" stroke-linecap="round" stroke-linejoin="round"></path><path d="M5 26a2 2 0 0 1 2-2h34a2 2 0 0 1 2 2v6a2 2 0 0 1-2 2H7a2 2 0 0 1-2-2v-6z" fill="#2F88FF" stroke="#000" stroke-width="4" stroke-linecap="round" stroke-linejoin="round"></path><path d="M22 12l-4 5M28 14l-3 4" stroke="#000" stroke-width="4" stroke-linecap="round" stroke-linejoin="round"></path><circle cx="24" cy="29" r="2" fill="#fff"></circle><path d="M17 34l-3 8h20l-3-8" stroke="#000" stroke-width="4" stroke-linecap="round" stroke-linejoin="round"></path></g></svg>