<svg xmlns="http://www.w3.org" xmlns:xlink="http://www.w3.org/1999/xlink" width="36px" height="36px" preserveAspectRatio="xMidYMid meet" viewBox="0 0 48 48" aria-hidden="true" role="img"><g fill="none" stroke="#000" stroke-width="4" stroke-linecap="round" stroke-linejoin="round"><path d="M26.829 37.172l10.343-10.344M21.172 26.828L10.829 37.172M26.829 21.172l10.343-10.344M10.829 21.172l10.343-10.344"></path><path d="M12 8a4 4 0 1 1-8 0a4 4 0 0 1 8 0zM28 8a4 4 0 1 1-8 0a4 4 0 0 1 8 0zM44 8a4 4 0 1 1-8 0a4 4 0 0 1 8 0zM44 24a4 4 0 1 1-8 0a4 4 0 0 1 8 0zM44 40a4 4 0 1 1-8 0a4 4 0 0 1 8 0zM28 40a4 4 0 1 1-8 0a4 4 0 0 1 8 0zM12 40a4 4 0 1 1-8 0a4 4 0 0 1 8 0zM12 24a4 4 0 1 1-8 0a4 4 0 0 1 8 0zM28 24a4 4 0 1 1-8 0a4 4 0 0 1 8 0z" fill="#2F88FF"></path></g></svg>