<svg xmlns="http://www.w3.org" xmlns:xlink="http://www.w3.org/1999/xlink" width="36px" height="36px" preserveAspectRatio="xMidYMid meet" viewBox="0 0 48 48" aria-hidden="true" role="img"><g fill="none" stroke="#000" stroke-width="4" stroke-linecap="round" stroke-linejoin="round"><path d="M36 40.015A19.989 19.989 0 0 1 24 44c-7.403 0-13.866-4.022-17.324-10H15M32 5.664C39.064 8.75 44 15.8 44 24c0 3.643-.974 7.058-2.676 10l-4.042-7M4.099 26A20.239 20.239 0 0 1 4 24C4 12.954 12.954 4 24 4l-4.042 7"></path><path d="M24 30a6 6 0 1 0 0-12a6 6 0 0 0 0 12z" fill="#2F88FF"></path></g></svg>