<svg xmlns="http://www.w3.org" xmlns:xlink="http://www.w3.org/1999/xlink" width="36px" height="36px" preserveAspectRatio="xMidYMid meet" viewBox="0 0 48 48" aria-hidden="true" role="img"><g fill="none"><g clip-path="url(#simplesvg-id-a)" stroke="#000" stroke-width="4" stroke-linecap="round" stroke-linejoin="round"><path d="M30.657 21.586l4.103-4.103a6 6 0 1 0-4.243-4.243l-4.103 4.103"></path><path d="M41.264 32.192L15.808 6.737l-3.89 3.889l7.779 11.313l-2.829 4.243l4.597 4.596l4.242-2.828l11.667 8.131l3.89-3.889z" fill="#2F88FF"></path><path d="M19.32 21.885a9.998 9.998 0 0 0-9.876 2.53c-3.906 3.904-3.906 10.236 0 14.141c3.905 3.906 10.237 3.906 14.142 0a9.998 9.998 0 0 0 2.529-9.876"></path></g><defs><clipPath id="simplesvg-id-a"><path fill="#fff" d="M0 0h48v48H0z"></path></clipPath></defs></g></svg>