<svg xmlns="http://www.w3.org" xmlns:xlink="http://www.w3.org/1999/xlink" width="36px" height="36px" preserveAspectRatio="xMidYMid meet" viewBox="0 0 48 48" aria-hidden="true" role="img"><g fill="none" stroke="#000" stroke-width="4" stroke-linejoin="round"><path d="M4 13h40v24H4V13z"></path><path clip-rule="evenodd" d="M4 21a8 8 0 0 0 8-8H4v8zM4 29a8 8 0 0 1 8 8H4v-8zM44 29v8h-8a8 8 0 0 1 8-8zM44 21a8 8 0 0 1-8-8h8v8z" stroke-linecap="round"></path><path d="M24 31c2.761 0 5-2.686 5-6s-2.239-6-5-6s-5 2.686-5 6s2.239 6 5 6z"></path></g></svg>