<svg xmlns="http://www.w3.org" xmlns:xlink="http://www.w3.org/1999/xlink" width="36px" height="36px" preserveAspectRatio="xMidYMid meet" viewBox="0 0 48 48" aria-hidden="true" role="img"><g fill="none" stroke-width="4" stroke-linejoin="round"><path d="M24 44c5.96 0 2.336-8.864 6-13c3.126-3.53 14-1.914 14-7c0-11.046-8.954-20-20-20S4 12.954 4 24s8.954 20 20 20z" fill="#2F88FF" stroke="#000"></path><path d="M28 17a3 3 0 1 0 0-6a3 3 0 0 0 0 6zM16 21a3 3 0 1 0 0-6a3 3 0 0 0 0 6zM17 34a3 3 0 1 0 0-6a3 3 0 0 0 0 6z" fill="#43CCF8" stroke="#fff"></path></g></svg>