<svg xmlns="http://www.w3.org" xmlns:xlink="http://www.w3.org/1999/xlink" width="36px" height="36px" preserveAspectRatio="xMidYMid meet" viewBox="0 0 48 48" aria-hidden="true" role="img"><g fill="none"><path d="M29 14a5 5 0 1 0 0-10a5 5 0 0 0 0 10z" fill="#2F88FF" stroke="#000" stroke-width="4" stroke-miterlimit="2"></path><path d="M41 24a3 3 0 1 0 0-6a3 3 0 0 0 0 6z" fill="#000"></path><path d="M16 24l-2.27 11.26a2 2 0 0 1-2.81 1.5L4 34M38 30L23.76 19.07c-.77-.57-1.83-.51-2.54.13l-4.84 4.43a.996.996 0 0 0 .09 1.55L26 32.15c.72.53 1.01 1.48.69 2.32L23.12 44" stroke="#000" stroke-width="4" stroke-miterlimit="2" stroke-linecap="round" stroke-linejoin="round"></path></g></svg>