<svg xmlns="http://www.w3.org" xmlns:xlink="http://www.w3.org/1999/xlink" width="36px" height="36px" preserveAspectRatio="xMidYMid meet" viewBox="0 0 48 48" aria-hidden="true" role="img"><g fill="none" stroke-width="4" stroke-linecap="round"><path d="M37 23.2C37 32 24 44 24 44S11 32 11 23.2C11 15.91 16.82 10 24 10s13 5.91 13 13.2z" fill="#2F88FF" stroke="#000" stroke-linejoin="round"></path><path d="M24 4v6M18 5l4 5M30 5l-4 5" stroke="#000" stroke-miterlimit="2" stroke-linejoin="round"></path><path d="M12 20h8M29 27h7M16 34h6" stroke="#fff" stroke-miterlimit="2" stroke-linejoin="round"></path><path d="M13.812 15A13.272 13.272 0 0 0 11 23.2c0 5.555 5.18 12.384 9 16.666" stroke="#000" stroke-linejoin="round"></path><path d="M37 23.2c0 2.774-1.292 5.866-3.061 8.8" stroke="#000"></path></g></svg>