<svg xmlns="http://www.w3.org" xmlns:xlink="http://www.w3.org/1999/xlink" width="36px" height="36px" preserveAspectRatio="xMidYMid meet" viewBox="0 0 48 48" aria-hidden="true" role="img"><g fill="none" stroke-width="4" stroke-linecap="round" stroke-linejoin="round"><path d="M33 22c0 7-9 13-9 13s-9-6-9-13a9 9 0 0 1 18 0z" fill="#2F88FF" stroke="#000"></path><path d="M24 25a3 3 0 1 0 0-6a3 3 0 0 0 0 6z" fill="#43CCF8" stroke="#fff"></path><path d="M9 14s7.5-11.5 20.5-7S42 24.5 42 24.5M42 8v16M39 34s-6 11-19.5 7.5S6 24 6 24M6 24v16" stroke="#000"></path></g></svg>