<svg xmlns="http://www.w3.org" xmlns:xlink="http://www.w3.org/1999/xlink" width="36px" height="36px" preserveAspectRatio="xMidYMid meet" viewBox="0 0 48 48" aria-hidden="true" role="img"><g fill="none"><path d="M27 6h-6l-1.25 4.5L18.5 15L16 24l-2.5 9l-1.25 4.5L11 42h26l-1.5-5.4L32 24l-2.5-9l-1.25-4.5L27 6z" fill="#2F88FF"></path><path d="M37 42H11m26 0H6h5m26 0h5m-5 0l-1.5-5.4L32 24l-2.5-9l-1.25-4.5L27 6h-6l-1.25 4.5L18.5 15L16 24l-2.5 9l-1.25 4.5L11 42" stroke="#000" stroke-width="4" stroke-linecap="round" stroke-linejoin="round"></path><path d="M13.5 33h21M32 24H16M29.5 15h-11" stroke="#fff" stroke-width="4" stroke-linecap="round" stroke-linejoin="round"></path><path d="M28.25 10.5l7.25 26.1M12.25 37.5l7.5-27" stroke="#000" stroke-width="4" stroke-linecap="round" stroke-linejoin="round"></path></g></svg>