<svg xmlns="http://www.w3.org" xmlns:xlink="http://www.w3.org/1999/xlink" width="36px" height="36px" preserveAspectRatio="xMidYMid meet" viewBox="0 0 48 48" aria-hidden="true" role="img"><g fill="none"><path d="M10 32V11a7 7 0 1 1 14 0v26a7 7 0 1 0 14 0V16" stroke="#000" stroke-width="4" stroke-linecap="round" stroke-linejoin="round"></path><path d="M41 4v12h-6V4h6z" fill="#2F88FF"></path><path d="M32 16h3m9 0h-3m0 0V4h-6v12m6 0h-6" stroke="#000" stroke-width="4" stroke-linecap="round" stroke-linejoin="round"></path><path d="M7 44V32h6v12H7z" fill="#2F88FF"></path><path d="M16 32h-3m-9 0h3m0 0v12h6V32m-6 0h6" stroke="#000" stroke-width="4" stroke-linecap="round" stroke-linejoin="round"></path></g></svg>