<svg xmlns="http://www.w3.org" xmlns:xlink="http://www.w3.org/1999/xlink" width="36px" height="36px" preserveAspectRatio="xMidYMid meet" viewBox="0 0 48 48" aria-hidden="true" role="img"><g fill="none"><path d="M6 9a3 3 0 0 1 3-3h25.281L42 13.207V39a3 3 0 0 1-3 3H9a3 3 0 0 1-3-3V9z" fill="#2F88FF" stroke="#000" stroke-width="4" stroke-linejoin="round"></path><path fill-rule="evenodd" clip-rule="evenodd" d="M24.008 6L24 13.385c0 .34-.448.615-1 .615h-8c-.552 0-1-.275-1-.615V6" fill="#43CCF8"></path><path d="M24.008 6L24 13.385c0 .34-.448.615-1 .615h-8c-.552 0-1-.275-1-.615V6h10.008z" stroke="#fff" stroke-width="4" stroke-linejoin="round"></path><path d="M9 6h25.281" stroke="#000" stroke-width="4" stroke-linecap="round" stroke-linejoin="round"></path><path d="M14 26h20M14 34h10.008" stroke="#fff" stroke-width="4" stroke-linecap="round" stroke-linejoin="round"></path></g></svg>