<svg xmlns="http://www.w3.org" xmlns:xlink="http://www.w3.org/1999/xlink" width="36px" height="36px" preserveAspectRatio="xMidYMid meet" viewBox="0 0 48 48" aria-hidden="true" role="img"><g fill="none" stroke="#000" stroke-width="4" stroke-linecap="round" stroke-linejoin="round"><path d="M37.856 20v8M27.464 38l3.464-2l3.464-2M20.536 38l-3.465-2l-3.464-2M10.144 20v8M13.607 14l3.465-2l3.464-2M27.464 10l3.464 2l3.464 2"></path><path d="M24 44a4 4 0 1 0 0-8a4 4 0 0 0 0 8zM24 12a4 4 0 1 0 0-8a4 4 0 0 0 0 8zM24 28a4 4 0 1 0 0-8a4 4 0 0 0 0 8zM38 20a4 4 0 1 0 0-8a4 4 0 0 0 0 8zM38 36a4 4 0 1 0 0-8a4 4 0 0 0 0 8zM10 20a4 4 0 1 0 0-8a4 4 0 0 0 0 8zM10 36a4 4 0 1 0 0-8a4 4 0 0 0 0 8z" fill="#2F88FF"></path></g></svg>