<svg xmlns="http://www.w3.org" xmlns:xlink="http://www.w3.org/1999/xlink" width="36px" height="36px" preserveAspectRatio="xMidYMid meet" viewBox="0 0 48 48" aria-hidden="true" role="img"><g fill="none" stroke="#000" stroke-width="4"><path d="M42 43V6a2 2 0 0 0-2-2h-7a2 2 0 0 0-2 2v18" stroke-linejoin="round"></path><path d="M24 22c-9.941 0-18 8.059-18 18v4h36v-4c0-9.941-8.059-18-18-18z"></path><path d="M8 31V8M16 24V14" stroke-linecap="round"></path><path d="M31 14h11" stroke-linecap="round" stroke-linejoin="round"></path><path d="M17 42v-3c0-9.389 3.134-17 7-17s7 7.611 7 17v3"></path><path d="M4 44h40" stroke-linecap="round" stroke-linejoin="round"></path><path d="M7 35s10.35-1 17-1s17 1 17 1"></path></g></svg>