<svg xmlns="http://www.w3.org" xmlns:xlink="http://www.w3.org/1999/xlink" width="36px" height="36px" preserveAspectRatio="xMidYMid meet" viewBox="0 0 48 48" aria-hidden="true" role="img"><g fill="none" stroke="#000" stroke-width="4" stroke-linecap="round"><path d="M4 14V5a1 1 0 0 1 1-1h14a1 1 0 0 1 1 1v38a1 1 0 0 1-1 1H5a1 1 0 0 1-1-1v-9M44 34v9a1 1 0 0 1-1 1H29a1 1 0 0 1-1-1V5a1 1 0 0 1 1-1h14a1 1 0 0 1 1 1v9M28 24l16 .013M4 24.013L20 24"></path><path d="M39.227 28.778l1.592-1.591L44 24.005l-3.181-3.182l-1.592-1.591M8.755 28.786l-1.59-1.59l-3.183-3.183l3.182-3.182l1.591-1.59" stroke-linejoin="round"></path></g></svg>