<svg xmlns="http://www.w3.org" xmlns:xlink="http://www.w3.org/1999/xlink" width="36px" height="36px" preserveAspectRatio="xMidYMid meet" viewBox="0 0 48 48" aria-hidden="true" role="img"><g fill="none" stroke="#000" stroke-width="4"><path d="M28 33.168A10.036 10.036 0 0 0 33.168 28M14.832 28A10.037 10.037 0 0 0 20 33.168M20 14.832A10.037 10.037 0 0 0 14.832 20M28 14.832A10.036 10.036 0 0 1 33.168 20M30 40.976A18.05 18.05 0 0 0 40.976 30M7.024 30A18.05 18.05 0 0 0 18 40.976M18 7.024A18.05 18.05 0 0 0 7.024 18M30 7.024A18.05 18.05 0 0 1 40.976 18" stroke-linecap="round"></path><path d="M27 17h-6L18 7l2-3h8l2 3l-3 10zM17 21v6L7 30l-3-2v-8l3-2l10 3zM21 31h6l3 10l-2 3h-8l-2-3l3-10zM31 27v-6l10-3c1.08.8 1.92 1.2 3 2v8c-1.08.8-1.92 1.2-3 2l-10-3z" fill="#2F88FF" stroke-miterlimit="2" stroke-linejoin="round"></path></g></svg>