<svg xmlns="http://www.w3.org" xmlns:xlink="http://www.w3.org/1999/xlink" width="36px" height="36px" preserveAspectRatio="xMidYMid meet" viewBox="0 0 48 48" aria-hidden="true" role="img"><g fill="none"><path d="M6 12a8 8 0 0 1 8-8h5a2 2 0 0 1 2 2v34a2 2 0 0 1-2 2h-5a8 8 0 0 1-8-8V12zM42 14a8 8 0 0 0-8-8h-6a2 2 0 0 0-2 2v34a2 2 0 0 0 2 2h6a8 8 0 0 0 8-8V14z" fill="#2F88FF" stroke="#000" stroke-width="4"></path><rect x="11" y="30" width="5" height="5" rx="2.5" fill="#fff"></rect><rect x="31.5" y="14" width="5" height="5" rx="2.5" fill="#fff"></rect><path d="M15 17h-3M34 28v6M31 31h6" stroke="#fff" stroke-width="4" stroke-linecap="round" stroke-linejoin="round"></path></g></svg>