<svg xmlns="http://www.w3.org" xmlns:xlink="http://www.w3.org/1999/xlink" width="36px" height="36px" preserveAspectRatio="xMidYMid meet" viewBox="0 0 48 48" aria-hidden="true" role="img"><g fill="none" stroke-width="4" stroke-linecap="round"><path d="M40 16.398V6a2 2 0 0 0-2-2H10a2 2 0 0 0-2 2v36a2 2 0 0 0 2 2h10" stroke="#000" stroke-linejoin="round"></path><path d="M16 14h13M16 21h5" stroke="#000"></path><path d="M34 44c-5.523 0-10-4.477-10-10s4.477-10 10-10s10 4.477 10 10s-4.477 10-10 10z" fill="#2F88FF" stroke="#000" stroke-linejoin="round"></path><path d="M27 27l14 14" stroke="#fff"></path><path d="M24 34c0-5.523 4.477-10 10-10M34 44c5.523 0 10-4.477 10-10" stroke="#000" stroke-linejoin="round"></path></g></svg>