<svg xmlns="http://www.w3.org" xmlns:xlink="http://www.w3.org/1999/xlink" width="36px" height="36px" preserveAspectRatio="xMidYMid meet" viewBox="0 0 48 48" aria-hidden="true" role="img"><g fill="none"><g clip-path="url(#simplesvg-id-a)" stroke="#000" stroke-width="4"><path d="M13 12a4 4 0 1 0 8 0a4 4 0 0 0-8 0zM31 24a4 4 0 1 0 8 0a4 4 0 0 0-8 0zM13 36a4 4 0 1 0 8 0a4 4 0 0 0-8 0z" fill="#2F88FF" stroke-linejoin="round"></path><path d="M4 36h9M21 36h23M4 12h9M21 12h23" stroke-linecap="round"></path><path d="M4 4v40" stroke-linecap="round" stroke-linejoin="round"></path><path d="M4 24h27M39 24h5" stroke-linecap="round"></path></g><defs><clipPath id="simplesvg-id-a"><path fill="#fff" d="M0 0h48v48H0z"></path></clipPath></defs></g></svg>