<svg xmlns="http://www.w3.org" xmlns:xlink="http://www.w3.org/1999/xlink" width="36px" height="36px" preserveAspectRatio="xMidYMid meet" viewBox="0 0 48 48" aria-hidden="true" role="img"><g fill="none"><path d="M5 16h38a1 1 0 0 1 1 1v22a1 1 0 0 1-1 1H30l-5.992-5.999L18 40H5a1 1 0 0 1-1-1V17a1 1 0 0 1 1-1z" fill="#2F88FF" stroke="#000" stroke-width="4" stroke-linejoin="round"></path><path d="M14 32a4 4 0 1 0 0-8a4 4 0 0 0 0 8zM34 32a4 4 0 1 0 0-8a4 4 0 0 0 0 8z" fill="#43CCF8" stroke="#fff" stroke-width="4" stroke-linecap="round" stroke-linejoin="round"></path><path fill-rule="evenodd" clip-rule="evenodd" d="M6 10h36H6z" fill="#2F88FF"></path><path d="M6 10h36" stroke="#000" stroke-width="4" stroke-linecap="round" stroke-linejoin="round"></path></g></svg>