<svg xmlns="http://www.w3.org" xmlns:xlink="http://www.w3.org/1999/xlink" width="36px" height="36px" preserveAspectRatio="xMidYMid meet" viewBox="0 0 48 48" aria-hidden="true" role="img"><g fill="none" stroke-width="4"><path d="M24 44c11.046 0 20-8.954 20-20S35.046 4 24 4S4 12.954 4 24s8.954 20 20 20z" fill="#2F88FF" stroke="#000"></path><path d="M7 14l9 23l6-11h4l6 11l9-23" stroke="#fff" stroke-linecap="round" stroke-linejoin="round"></path><path d="M16 6l6 13h4l6-13" stroke="#fff" stroke-linecap="round" stroke-linejoin="round"></path><path d="M44 24a19.952 19.952 0 0 0-6.77-15A19.924 19.924 0 0 0 24 4a19.924 19.924 0 0 0-13.23 5A19.952 19.952 0 0 0 4 24" stroke="#000" stroke-linecap="round"></path></g></svg>