<svg xmlns="http://www.w3.org" xmlns:xlink="http://www.w3.org/1999/xlink" width="36px" height="36px" preserveAspectRatio="xMidYMid meet" viewBox="0 0 48 48" aria-hidden="true" role="img"><g fill="none" stroke-width="4" stroke-linecap="round" stroke-linejoin="round"><path d="M34.956 31L31 44H17l-3.957-13M13.043 17L17 4h14l3.956 13" stroke="#000"></path><path d="M37 24c0 2.577-.75 4.98-2.044 7A12.99 12.99 0 0 1 24 37a12.99 12.99 0 0 1-10.956-6A12.94 12.94 0 0 1 11 24c0-2.577.75-4.98 2.044-7A12.99 12.99 0 0 1 24 11a12.99 12.99 0 0 1 10.956 6A12.94 12.94 0 0 1 37 24z" fill="#2F88FF" stroke="#000"></path><path d="M24 17v7l4 4" stroke="#fff"></path></g></svg>