<svg id="svg1059" height="512" viewBox="0 0 12.7 12.7" width="512" xmlns="http://www.w3.org/2000/svg" xmlns:svg="http://www.w3.org/2000/svg"><g id="layer1" transform="translate(169.333 -118.746)"><path id="rect2431" d="m-168.80365 120.33367v1.05885h1.05886v1.05627h1.05833v-1.05627h5.29115v-1.05885c-2.46944 0-4.93889 0-7.40834 0zm7.40834 1.05885v1.05627h1.05885v-1.05627zm1.05885 1.05627v1.05885h1.05833v-1.05885zm1.05833 1.05885v1.05833h1.05886v-1.05833zm1.05886 1.05833v1.05885h.26355.79271v-1.05885zm0 1.05885h-1.05886v1.05833h1.05886zm-1.05886 1.05833h-1.05833v1.05885h1.05833zm-1.05833 1.05885h-1.05885v1.05834h1.05885zm-1.05885 1.05834h-5.29115v-1.05834h-1.05833v1.05834h-1.05886v1.05885h7.40834zm-5.29115-1.05834h1.05885v-1.05885h-1.05885zm1.05885-1.05885h1.05627v-1.05833h-1.05627zm1.05627-1.05833h1.05885v-1.05885h-1.05885zm0-1.05885v-1.05833h-1.05627v1.05833zm-1.05627-1.05833v-1.05885h-1.05885v1.05885z" font-variant-ligatures="normal" font-variant-position="normal" font-variant-caps="normal" font-variant-numeric="normal" font-variant-alternates="normal" font-feature-settings="normal" text-indent="0" text-align="start" text-decoration-line="none" text-decoration-style="solid" text-decoration-color="rgb(0,0,0)" text-transform="none" text-orientation="mixed" white-space="normal" shape-padding="0" isolation="auto" mix-blend-mode="normal" solid-color="rgb(0,0,0)" solid-opacity="1" vector-effect="none" paint-order="normal"/></g></svg>