<svg id="svg1059" height="512" viewBox="0 0 12.7 12.7" width="512" xmlns="http://www.w3.org/2000/svg" xmlns:svg="http://www.w3.org/2000/svg"><g id="layer1" transform="translate(169.333 -118.746)"><path id="rect6918" d="m-166.68646 120.46674v1.05833h.26355.7953v-1.05833zm0 1.05833h-1.05833v1.05885h1.05833zm-1.05833 1.05885h-1.05885v1.05834h1.05885zm0 1.05834v1.05885h.79272.26561v-1.05885zm1.05833 1.05885v1.05626h1.05885v-1.05626zm6.35-4.23437v1.05833h1.05834v-1.05833zm1.05834 1.05833v1.05885h1.05885v-1.05885zm1.05885 1.05885v1.05834h1.05626v-1.05834zm0 1.05834h-1.05885v1.05885h1.05885zm-1.05885 1.05885h-1.05834v1.05626h1.05834zm-6.34949-2.11719v1.05834h2.11512v-1.05834zm2.11512 1.05834v6.08386h1.05833v-6.08386zm1.05833 0h2.1177c0-.35278 0-.70556 0-1.05834h-2.1177z" font-variant-ligatures="normal" font-variant-position="normal" font-variant-caps="normal" font-variant-numeric="normal" font-variant-alternates="normal" font-feature-settings="normal" text-indent="0" text-align="start" text-decoration-line="none" text-decoration-style="solid" text-decoration-color="rgb(0,0,0)" text-transform="none" text-orientation="mixed" white-space="normal" shape-padding="0" isolation="auto" mix-blend-mode="normal" solid-color="rgb(0,0,0)" solid-opacity="1" vector-effect="none" paint-order="normal"/></g></svg>