<svg id="svg1059" height="512" viewBox="0 0 12.7 12.7" width="512" xmlns="http://www.w3.org/2000/svg" xmlns:svg="http://www.w3.org/2000/svg"><g id="layer1" transform="translate(169.333 -118.746)"><path id="rect5378" d="m-163.51302 119.14331v1.05833h1.05885v-1.05833zm1.05885 1.05833v1.05886h1.05834v-1.05886zm-1.05885 0h-1.05833v1.05886h1.05833zm0 2.11512v2.11718h-2.11718v1.05885h2.11718v2.11719h1.05885v-2.11719h2.11719v-1.05885h-2.11719v-2.11718zm-4.2323 1.05885v1.05833h1.05679v-1.05833zm8.46512 0v1.05833h1.05834v-1.05833zm1.05834 1.05833v1.05885h.26562.79323v-1.05885zm0 1.05885h-1.05834v1.05834h1.05834zm-10.58179-1.05885v1.05885h1.05627v-1.05885zm1.05627 1.05885v1.05834h1.05886v-1.05834zm3.17604 3.43959v1.05833h1.05833c0-.35278 0-.70556 0-1.05833zm1.05833 1.05833v1.05885h1.05885c0-.35295 0-.7059 0-1.05885zm1.05885 0h1.05833c0-.35278 0-.70556 0-1.05833h-1.05833z" font-variant-ligatures="normal" font-variant-position="normal" font-variant-caps="normal" font-variant-numeric="normal" font-variant-alternates="normal" font-feature-settings="normal" text-indent="0" text-align="start" text-decoration-line="none" text-decoration-style="solid" text-decoration-color="rgb(0,0,0)" text-transform="none" text-orientation="mixed" white-space="normal" shape-padding="0" isolation="auto" mix-blend-mode="normal" solid-color="rgb(0,0,0)" solid-opacity="1" vector-effect="none" paint-order="normal"/></g></svg>