<svg id="svg1059" height="512" viewBox="0 0 12.7 12.7" width="512" xmlns="http://www.w3.org/2000/svg" xmlns:svg="http://www.w3.org/2000/svg"><g id="layer1" transform="translate(169.333 -118.746)"><path id="rect6827" d="m-163.51301 121.39227v1.05885h1.05885c0-.35295 0-.7059 0-1.05885zm1.05885 1.05885v1.05833h1.05833c0-.35277 0-.70555 0-1.05833zm-1.05885 0h-1.05833v1.05833h1.05833c0-.35277 0-.70555 0-1.05833zm0 2.11718v2.11512h-2.11718v1.05885h5.29322c0-.35295 0-.7059 0-1.05885h-2.11719v-2.11512zm-4.23437 1.05679v1.05833h1.05886v-1.05833zm0 1.05833h-1.05627v1.05885h1.05627zm0 1.05885v1.05833h1.05886v-1.05833zm8.46718-2.11718v1.05833h1.05834v-1.05833zm1.05834 1.05833v1.05885h1.05885v-1.05885zm0 1.05885h-1.05834v1.05833h1.05834z" font-variant-ligatures="normal" font-variant-position="normal" font-variant-caps="normal" font-variant-numeric="normal" font-variant-alternates="normal" font-feature-settings="normal" text-indent="0" text-align="start" text-decoration-line="none" text-decoration-style="solid" text-decoration-color="rgb(0,0,0)" text-transform="none" text-orientation="mixed" white-space="normal" shape-padding="0" isolation="auto" mix-blend-mode="normal" solid-color="rgb(0,0,0)" solid-opacity="1" vector-effect="none" paint-order="normal"/></g></svg>