<svg id="main_layer" height="512" viewBox="0 0 512 512" width="512" xmlns="http://www.w3.org/2000/svg" data-name="main layer"><path d="m43.92 161.74v47.13h47.13 47.13v-47.13h-47.13v-47.13h-47.13z"/><path d="m138.18 67.49h-47.13v47.12h47.13 47.13v-47.12z"/><path d="m232.44 161.74v-47.13h-47.13v47.13 47.13 47.13h47.13v-47.13z"/><path d="m373.82 67.49h-47.13v47.12h47.13 47.13v-47.12z"/><path d="m420.95 114.61v47.13h-47.13v47.13h47.13 47.13v-47.13-47.13z"/><path d="m279.56 161.74v47.13 47.13h47.13v-47.13-47.13-47.13h-47.13z"/><path d="m232.44 303.13v47.13 47.13 47.12h47.12v-47.12-47.13-47.13-47.13h-47.12z"/></svg>