<svg id="main_layer" height="512" viewBox="0 0 512 512" width="512" xmlns="http://www.w3.org/2000/svg" data-name="main layer"><path d="m397.26 397.31h-47-47.13-47.13-47.01-.12-47.01-47.12-47.13v47.13h47.13 47.12 47.01.12 47.01 47.13 47.13 47 .13 47v-47.13h-47z"/><path d="m256 67.56h-47.13v47.1h-47.01v47.13h47.13v-47.1h47.01 47.13v-47.13z"/><path d="m161.86 350.24h47.13v-47.09-.04-47.09h-47.13v-47.07-.03-47.1h-47.12v47.1.03 47.1h47.12v47.06h-47.12-47.13v47.13h47.13z"/><path d="m397.39 303.15h-.13-47v-47.1h47.13v-47.1-.03-47.1h-47.13v47.1.03 47.07h-47.13v47.13 47.12h47.13 47 .13 47v-47.12z"/><path d="m303.13 114.69h47.13v47.13h-47.13z"/></svg>