<svg id="main_layer" height="512" viewBox="0 0 512 512" width="512" xmlns="http://www.w3.org/2000/svg" data-name="main layer"><path d="m185.2 114.61v-47.13h-47.08-.05-47.08v47.13h47.08.05z"/><path d="m185.2 208.87h.06v-47.13h47.09v-47.13h-47.13v47.13h-47.09v47.13h-.06v47.13h47.13z"/><path d="m232.28 350.26h-47.08v47.13h47.08 47.13v-47.13h-47.08 47.08v-47.13h-47.13z"/><path d="m279.41 350.26h47.13v47.13h-47.13z"/><path d="m232.28 397.39h47.13v47.13h-47.13z"/><path d="m232.31 67.49h47.13v47.13h-47.13z"/><path d="m279.43 114.61h47.13v47.13h-47.13z"/><path d="m185.18 256h47.13v47.13h-47.13z"/><path d="m279.43 256h47.13v47.13h-47.13z"/><path d="m326.71 67.49h47.13v47.13h-47.13z"/><path d="m373.69 161.74h-47.13v47.13h.13v47.13h47.13v-47.13h-.13z"/><path d="m373.88 67.49h47.13v47.13h-47.13z"/></svg>