<svg width="24" height="24" viewBox="0 0 24 24" fill="none" xmlns="http://www.w3.org/2000/svg">
<path d="M19 18C19 18.5523 18.5523 19 18 19C17.4477 19 17 18.5523 17 18C17 17.4477 17.4477 17 18 17C18.5523 17 19 17.4477 19 18Z" fill="#D9D9D9"/>
<path d="M11 18C11 18.5523 10.5523 19 10 19C9.44772 19 9 18.5523 9 18C9 17.4477 9.44772 17 10 17C10.5523 17 11 17.4477 11 18Z" fill="#D9D9D9"/>
<path d="M9.28101 11.7519C9.1318 12.9456 10.0626 14 11.2656 14H18.2344C19.2431 14 20.0939 13.2489 20.219 12.2481L20.719 8.24807C20.8682 7.05436 19.9374 6 18.7344 6H10L9.28101 11.7519Z" fill="#D9D9D9"/>
<path d="M8 4H8.99981L10 6M10 6H18.7344C19.9374 6 20.8682 7.05436 20.719 8.24807L20.219 12.2481C20.0939 13.2489 19.2431 14 18.2344 14H11.2656C10.0626 14 9.1318 12.9456 9.28101 11.7519L10 6ZM6 7H3M5 11H3M4 15H3M19 18C19 18.5523 18.5523 19 18 19C17.4477 19 17 18.5523 17 18C17 17.4477 17.4477 17 18 17C18.5523 17 19 17.4477 19 18ZM11 18C11 18.5523 10.5523 19 10 19C9.44772 19 9 18.5523 9 18C9 17.4477 9.44772 17 10 17C10.5523 17 11 17.4477 11 18Z" stroke="black" stroke-width="2" stroke-linecap="round" stroke-linejoin="round"/>
</svg>
