<?xml version="1.0" encoding="utf-8"?><!-- Uploaded to: SVG Repo, www.svgrepo.com, Generator: SVG Repo Mixer Tools -->
<svg width="800px" height="800px" viewBox="0 0 40 40" fill="none" xmlns="http://www.w3.org/2000/svg">
<rect width="40" height="40" rx="8" fill="#000000" fill-opacity="0.4"/>
<path d="M28.8667 8.79999H13C12.5049 8.79999 12.0301 8.99665 11.6801 9.34672C11.33 9.69679 11.1333 10.1716 11.1333 10.6667V29.3333C11.1333 29.8284 11.33 30.3032 11.6801 30.6533C12.0301 31.0033 12.5049 31.2 13 31.2H28.8667C29.3617 31.2 29.8365 31.0033 30.1866 30.6533C30.5367 30.3032 30.7333 29.8284 30.7333 29.3333V10.6667C30.7333 10.1716 30.5367 9.69679 30.1866 9.34672C29.8365 8.99665 29.3617 8.79999 28.8667 8.79999Z" fill="white"/>
<path fill-rule="evenodd" clip-rule="evenodd" d="M14.5835 14.893C14.4087 14.7254 14.1755 14.6323 13.9334 14.6333H10.2L10.13 14.6357C9.88843 14.6528 9.66294 14.7631 9.50119 14.9433C9.33943 15.1236 9.25408 15.3597 9.26317 15.6017C9.27226 15.8437 9.37507 16.0727 9.54989 16.2404C9.7247 16.408 9.95783 16.5011 10.2 16.5H13.9334L14.0034 16.4977C14.2449 16.4806 14.4704 16.3703 14.6322 16.19C14.7939 16.0097 14.8793 15.7737 14.8702 15.5316C14.8611 15.2896 14.7583 15.0606 14.5835 14.893ZM14.5835 23.7597C14.4087 23.592 14.1755 23.4989 13.9334 23.5H10.2L10.13 23.5023C9.88843 23.5194 9.66294 23.6297 9.50119 23.81C9.33943 23.9903 9.25408 24.2263 9.26317 24.4684C9.27226 24.7104 9.37507 24.9394 9.54989 25.107C9.7247 25.2747 9.95783 25.3678 10.2 25.3667H13.9334L14.0034 25.3643C14.2449 25.3473 14.4704 25.2369 14.6322 25.0567C14.7939 24.8764 14.8793 24.6403 14.8702 24.3983C14.8611 24.1563 14.7583 23.9273 14.5835 23.7597ZM26.0667 23.7333V16.2667C26.0667 16.1441 26.0425 16.0227 25.9956 15.9095C25.9487 15.7963 25.88 15.6934 25.7933 15.6067C25.7066 15.52 25.6038 15.4513 25.4905 15.4044C25.3773 15.3575 25.2559 15.3333 25.1333 15.3333C24.6179 15.3333 24.2 15.7512 24.2 16.2667V23.7333C24.2 24.2488 24.6179 24.6667 25.1333 24.6667C25.2559 24.6667 25.3773 24.6425 25.4905 24.5956C25.6038 24.5487 25.7066 24.48 25.7933 24.3933C25.88 24.3066 25.9487 24.2037 25.9956 24.0905C26.0425 23.9773 26.0667 23.8559 26.0667 23.7333Z" fill="#B5B5B5"/>
</svg>