<?xml version="1.0" encoding="utf-8"?><!-- Uploaded to: SVG Repo, www.svgrepo.com, Generator: SVG Repo Mixer Tools -->
<svg width="800px" height="800px" viewBox="0 0 40 40" fill="none" xmlns="http://www.w3.org/2000/svg">
<rect width="40" height="40" rx="8" fill="#000000" fill-opacity="0.4"/>
<path d="M22.3333 8.33334H11.1333C10.3907 8.33334 9.67855 8.62834 9.15344 9.15344C8.62834 9.67855 8.33334 10.3907 8.33334 11.1333V29.8C8.33334 30.2951 8.53001 30.7699 8.88008 31.1199C9.23015 31.47 9.70494 31.6667 10.2 31.6667H24.2C24.3226 31.6667 24.4439 31.6425 24.5572 31.5956C24.6704 31.5487 24.7733 31.48 24.86 31.3933C24.9466 31.3066 25.0154 31.2038 25.0623 31.0905C25.1092 30.9773 25.1333 30.8559 25.1333 30.7333V11.1333C25.1333 10.3907 24.8383 9.67855 24.3132 9.15344C23.7881 8.62834 23.0759 8.33334 22.3333 8.33334Z" fill="white"/>
<path d="M29.8 17.6667H24.2C23.9525 17.6667 23.7151 17.765 23.54 17.9401C23.365 18.1151 23.2667 18.3525 23.2667 18.6V30.7334C23.2667 30.8559 23.2908 30.9773 23.3377 31.0905C23.3846 31.2038 23.4534 31.3067 23.54 31.3933C23.6267 31.48 23.7296 31.5487 23.8428 31.5956C23.9561 31.6425 24.0774 31.6667 24.2 31.6667L29.8 31.6667C30.2951 31.6667 30.7699 31.47 31.1199 31.12C31.47 30.7699 31.6667 30.2951 31.6667 29.8V19.5334C31.6667 19.0383 31.47 18.5635 31.1199 18.2134C30.7699 17.8634 30.2951 17.6667 29.8 17.6667Z" fill="white"/>
<path d="M16.7333 13.9333C17.2488 13.9333 17.6667 14.3512 17.6667 14.8667V17.6667H20.4667C20.9821 17.6667 21.4 18.0845 21.4 18.6V18.6C21.4 19.1155 20.9821 19.5333 20.4667 19.5333H17.6667V22.3333C17.6667 22.8488 17.2488 23.2667 16.7333 23.2667V23.2667C16.2179 23.2667 15.8 22.8488 15.8 22.3333V19.5333H13C12.4845 19.5333 12.0667 19.1155 12.0667 18.6V18.6C12.0667 18.0845 12.4845 17.6667 13 17.6667H15.8V14.8667C15.8 14.3512 16.2179 13.9333 16.7333 13.9333V13.9333Z" fill="#B5B5B5"/>
</svg>