<svg id="main_layer" height="512" viewBox="0 0 512 512" width="512" xmlns="http://www.w3.org/2000/svg" data-name="main layer"><path d="m397.39 161.74v-47h-47.13v47h-47.13v-46.97-.03-47.1h-47.13-47.13v47.1h-47.13v-47.1h-47.13v-.03h-47.12v47.13 47 .12 47.01 47.13 47.01.12 47.01 47.12h47.12v-47.12-47.01-.12-47.01-47.13-47.01-.12-46.97h47.13v46.97.12 47.01 47.13 47.01.12 47.01 47.12h47.13v-47.12-47.01-.12-47.01-47.13-47.01-.12-46.97h47.13v46.97.12 47.01 47.13 47.01.12 47.01h47.13v-47.01-.12-47.01-47.13h47.13v-47.01h47.13v47.01 47.13 47.01h-47.13v47.13h47.13v-47.01h47.12v-47.13-47.13-47.13z"/><path d="m303.13 350.14h47.13v47.13h-47.13z"/><path d="m397.39 444.39h47.12v-47.13h-47.12-47.13v47.13z"/><path d="m256 397.26h47.13v47.13h-47.13z"/></svg>