<?xml version="1.0" encoding="iso-8859-1"?>
<!-- Generator: Adobe Illustrator 19.0.0, SVG Export Plug-In . SVG Version: 6.00 Build 0)  -->
<svg xmlns="http://www.w3.org/2000/svg" xmlns:xlink="http://www.w3.org/1999/xlink" version="1.1" id="Layer_1" x="0px" y="0px" viewBox="0 0 512 512" style="enable-background:new 0 0 512 512;" xml:space="preserve">
<g>
	<g>
		<path d="M478.609,200.348H512v-66.783h-33.391V33.391h-33.391V0h-33.391h-66.783v33.391h-33.391v33.391H200.348V33.391h-33.391V0    h-66.783H66.783v33.391H33.391v100.174H0v66.783h33.391h166.957v33.395H33.399v244.87h33.383V512h378.435v-33.386h33.399v-244.87    H311.652v-33.397H478.609z M311.652,100.174h33.391V66.783h66.783v66.783H311.652V100.174z M200.348,133.565H100.174V66.783    h66.783v33.391h33.391V133.565z M278.261,155.826v322.783h-44.522V200.348v-66.783h44.522V155.826z"/>
	</g>
</g>
<g>
</g>
<g>
</g>
<g>
</g>
<g>
</g>
<g>
</g>
<g>
</g>
<g>
</g>
<g>
</g>
<g>
</g>
<g>
</g>
<g>
</g>
<g>
</g>
<g>
</g>
<g>
</g>
<g>
</g>
</svg>
