<?xml version="1.0" encoding="iso-8859-1"?>
<!-- Generator: Adobe Illustrator 19.0.0, SVG Export Plug-In . SVG Version: 6.00 Build 0)  -->
<svg xmlns="http://www.w3.org/2000/svg" xmlns:xlink="http://www.w3.org/1999/xlink" version="1.1" id="Layer_1" x="0px" y="0px" viewBox="0 0 512 512" style="enable-background:new 0 0 512 512;" xml:space="preserve">
<g>
	<g>
		<polygon points="378.435,122.435 378.435,189.217 345.043,189.217 345.043,122.435 166.957,122.435 166.957,189.217     133.565,189.217 133.565,122.435 66.783,122.435 66.783,478.609 100.174,478.609 100.174,512 411.826,512 411.826,478.609     445.217,478.609 445.217,122.435   "/>
	</g>
</g>
<g>
	<g>
		<rect x="166.957" y="33.391" width="33.391" height="33.391"/>
	</g>
</g>
<g>
	<g>
		<rect x="133.565" y="66.783" width="33.391" height="55.652"/>
	</g>
</g>
<g>
	<g>
		<rect x="200.348" width="111.304" height="33.391"/>
	</g>
</g>
<g>
	<g>
		<polygon points="345.047,66.781 345.047,33.391 311.656,33.391 311.656,66.783 345.045,66.783 345.045,122.434 378.436,122.434     378.436,66.781   "/>
	</g>
</g>
<g>
</g>
<g>
</g>
<g>
</g>
<g>
</g>
<g>
</g>
<g>
</g>
<g>
</g>
<g>
</g>
<g>
</g>
<g>
</g>
<g>
</g>
<g>
</g>
<g>
</g>
<g>
</g>
<g>
</g>
</svg>
