<svg xmlns="http://www.w3.org/2000/svg" width="48" height="48" viewBox="0 0 48 48"><rect width="48" height="48" fill="none"/><path d="M0,0H2.3V2.3H0Z" transform="translate(45.705 31.995)"/><path d="M45.705,11.43H48v6.855H45.705v2.3h-2.28v2.28h-2.28v2.28H38.85v2.3H36.57v2.28H34.29v2.3H32v2.28h-2.28v2.28h-2.3v2.295H25.14v2.28H22.86v-2.28h-2.3V36.57h2.3V34.29h2.28V29.715h2.28V25.14h2.3V20.58H32V16.005H22.86V34.29h-2.3V29.715h-2.28V25.14h-2.3V20.58H13.71V16.005H2.28v2.28H0V11.43H2.28V9.15h2.3v-2.3h2.28V4.575h2.28V2.3h2.3V0H36.57V2.3h2.28v2.28H36.57v9.15h9.135ZM32,11.43h-2.28V9.15h-2.3v-2.3H25.14V4.575H22.86V2.3H13.71V11.43h2.28v2.3H31.995Z" transform="translate(0 6.855)"/><path d="M0,0H2.28V2.28H0Z" transform="translate(43.425 38.865)"/><path d="M0,0H2.28V2.28H0Z" transform="translate(43.425 16.005)"/><path d="M0,0H2.28V2.28H0Z" transform="translate(41.145 41.145)"/><path d="M0,0H2.28V2.3H0Z" transform="translate(41.145 36.57)"/><path d="M0,0H2.28V2.3H0Z" transform="translate(41.145 13.71)"/><path d="M2.3,0h2.28V2.3h2.28v2.28H4.575v2.3H2.295v-2.3H0V2.295h2.3Z" transform="translate(38.85 2.28)"/><path d="M0,0H2.3V2.28H0Z" transform="translate(38.85 38.865)"/><path d="M0,0H2.3V2.28H0Z" transform="translate(38.85 11.43)"/><path d="M0,0H2.28V2.28H0Z" transform="translate(34.29 45.72)"/><path d="M0,0H2.28V2.28H0Z" transform="translate(34.29)"/><path d="M0,0H2.3V2.28H0Z" transform="translate(20.565 11.43)"/><path d="M0,0H2.3V2.3H0Z" transform="translate(20.565 2.28)"/><path d="M0,0H2.28V2.28H0Z" transform="translate(18.285 41.145)"/><path d="M0,0H2.28V2.3H0Z" transform="translate(18.285 13.71)"/><path d="M0,0H2.3V2.28H0Z" transform="translate(15.99 38.865)"/><path d="M0,0H2.3V2.28H0Z" transform="translate(15.99 16.005)"/><path d="M0,0H2.28V2.3H0Z" transform="translate(13.71 43.425)"/><path d="M0,0H2.28V2.3H0Z" transform="translate(13.71 36.57)"/><path d="M0,0H2.28V2.28H0Z" transform="translate(11.43 34.29)"/><path d="M0,0H2.3V2.3H0Z" transform="translate(9.135 31.995)"/><path d="M0,0H2.28V2.28H0Z" transform="translate(6.855 29.715)"/><path d="M0,0H2.28V2.28H0Z" transform="translate(6.855 4.575)"/><path d="M4.575,0V2.3h2.28v2.28H4.575v2.28H2.295V4.575H0V2.295h2.3V0Z" transform="translate(2.28 36.57)"/><path d="M0,0H2.28V2.28H0Z" transform="translate(4.575 27.435)"/><path d="M0,0H2.28V2.3H0Z" transform="translate(4.575 6.855)"/><path d="M0,0H2.28V2.3H0Z" transform="translate(4.575 2.28)"/><path d="M0,0H2.3V2.3H0Z" transform="translate(2.28 25.14)"/><path d="M0,0H2.3V2.28H0Z" transform="translate(2.28 4.575)"/><path d="M0,0H2.28V2.3H0Z" transform="translate(0 31.995)"/></svg>