<svg xmlns="http://www.w3.org/2000/svg" width="48" height="48" viewBox="0 0 48 48"><rect width="48" height="48" fill="none"/><path d="M9.15,2.28H0V0H13.71V2.28H11.43V4.575H9.15Z" transform="translate(32.002)"/><path d="M0,0H2.3V2.28H0Z" transform="translate(38.858 4.575)"/><path d="M0,0H2.28V2.3H0Z" transform="translate(36.577 6.855)"/><path d="M0,0H2.28V2.28H0Z" transform="translate(34.298 9.15)"/><path d="M0,0H2.3V4.575H0Z" transform="translate(32.002 11.43)"/><path d="M0,0H2.3V2.28H0Z" transform="translate(32.002 4.575)"/><path d="M0,0H2.28V2.28H0Z" transform="translate(29.722 16.005)"/><path d="M0,0H2.28V2.3H0Z" transform="translate(29.722 6.855)"/><path d="M0,0H4.575V2.3H0Z" transform="translate(27.427 2.28)"/><path d="M0,0H2.3V2.28H0Z" transform="translate(27.427 9.15)"/><path d="M0,0H4.575V2.3H0Z" transform="translate(25.147 18.285)"/><path d="M0,0H2.28V2.28H0Z" transform="translate(25.147 11.43)"/><path d="M0,0H2.28V2.28H0Z" transform="translate(25.147 4.575)"/><path d="M2.3,11.43H0V2.28H2.3V0H6.863V2.28H11.43v2.3H22.86V2.28h2.28v9.15H22.86v2.28H2.3Zm2.28-2.3H6.862v2.3h4.575v-2.3H6.863V4.575H4.575Z" transform="translate(2.287 34.29)"/><path d="M0,0H2.28V2.3H0Z" transform="translate(22.868 13.71)"/><path d="M0,0H2.28V2.3H0Z" transform="translate(22.868 6.855)"/><path d="M0,0H4.575V2.28H0Z" transform="translate(20.573 34.29)"/><path d="M9.135,6.855H0V0H2.28V2.28H4.56V4.575H9.135Z" transform="translate(16.013 16.005)"/><path d="M0,0H2.3V2.28H0Z" transform="translate(20.573 16.005)"/><path d="M0,0H2.3V2.28H0Z" transform="translate(20.573 9.15)"/><path d="M0,0H2.28V4.575H0Z" transform="translate(18.292 11.43)"/><path d="M4.575,11.43H2.28V6.855H0V4.575H6.855V0h2.3V4.575H16v2.28h-2.3V11.43H11.43V6.855H4.575Z" transform="translate(6.862 22.86)"/></svg>