<svg xmlns="http://www.w3.org/2000/svg" width="48" height="48" viewBox="0 0 48 48"><rect width="48" height="48" fill="none"/><path d="M45.705,4.575H48v11.43H45.705V20.58h-2.28v-2.3H38.85v2.3H36.57v-2.3H11.43v2.3h-2.3v-2.3H4.575v2.3H2.28V16.005H0V4.575H2.28V0h2.3V2.3h4.56V0h2.3V2.3H36.57V0h2.28V2.3h4.575V0h2.28ZM15.99,6.855H13.71V13.71H11.43V9.15h-2.3v4.56H6.855V6.855H4.575V13.71h2.28V16h2.28v-2.3h2.3V16h2.28v-2.3h2.28Zm13.725,0h-2.3V13.71H25.14V9.15H22.86v4.56h-2.3V6.855h-2.28V13.71h2.28V16h2.3v-2.3h2.28V16h2.28v-2.3h2.3Zm13.71,0h-2.28V13.71h-2.3V9.15H36.57v4.56H34.275V6.855H32V13.71h2.28V16H36.57v-2.3h2.28V16h2.295v-2.3h2.28Z" transform="translate(0 13.71)"/><path d="M0,0H2.28V4.56H0Z" transform="translate(41.145 34.29)"/><path d="M0,0H2.28V4.575H0Z" transform="translate(41.145 9.135)"/><path d="M0,0H2.3V2.3H0Z" transform="translate(38.85 38.85)"/><path d="M0,0H2.3V2.28H0Z" transform="translate(38.85 6.855)"/><path d="M6.855,4.575v2.28H4.56V4.575H0V0H2.28V2.28H9.135V4.575Z" transform="translate(29.715 6.855)"/><path d="M0,0H4.575V2.28H0Z" transform="translate(34.275 41.145)"/><path d="M4.56,0h2.3V2.28h2.28V4.56H2.28v2.3H0V2.28H4.56Z" transform="translate(29.715 34.29)"/><path d="M0,0H4.575V2.28H0Z" transform="translate(34.275 4.575)"/><path d="M0,0H4.56V2.3H0Z" transform="translate(29.715 43.425)"/><path d="M0,0H4.56V2.3H0Z" transform="translate(29.715 2.28)"/><path d="M0,0H2.3V2.28H0Z" transform="translate(27.42 41.145)"/><path d="M0,0H2.3V2.28H0Z" transform="translate(27.42 4.575)"/><path d="M9.135,2.3h2.3v2.28H0V2.295H2.28V0H4.575v2.3h2.28V0h2.28Z" transform="translate(18.285 43.425)"/><path d="M0,0H11.43V2.28H0Z" transform="translate(18.285 11.43)"/><path d="M0,0H11.43V2.28H0Z" transform="translate(18.285 34.29)"/><path d="M2.28,2.28H0V0H11.43V2.28h-2.3V4.575H6.855V2.28H4.575v2.3H2.28Z" transform="translate(18.285)"/><path d="M0,0H2.28V2.28H0Z" transform="translate(18.285 41.145)"/><path d="M0,0H2.28V2.28H0Z" transform="translate(18.285 4.575)"/><path d="M0,0H4.575V2.3H0Z" transform="translate(13.71 43.425)"/><path d="M0,0H4.575V2.3H0Z" transform="translate(13.71 2.28)"/><path d="M0,0H4.575V2.28H0Z" transform="translate(9.135 41.145)"/><path d="M4.575,6.855H2.295V4.575H0V2.28H6.855V0h2.3V4.575H4.575Z" transform="translate(9.135 6.855)"/><path d="M0,0H4.575V2.28H0Z" transform="translate(9.135 4.575)"/><path d="M2.3,2.28V0h2.28V2.28H9.15V6.855h-2.3V4.56H0V2.28Z" transform="translate(9.135 34.29)"/><path d="M0,0H2.28V2.3H0Z" transform="translate(6.855 38.85)"/><path d="M0,0H2.28V2.28H0Z" transform="translate(6.855 6.855)"/><path d="M0,0H2.28V4.56H0Z" transform="translate(4.575 34.29)"/><path d="M0,0H2.28V4.575H0Z" transform="translate(4.575 9.135)"/></svg>