<svg id="Layer_2" data-name="Layer 2" xmlns="http://www.w3.org/2000/svg" viewBox="0 0 800 600"><defs><style>.cls-1{fill:#6788ec;}.cls-2{fill:#a07df0;}.cls-3{fill:#f1a19e;}.cls-4{fill:#fff;}.cls-5{fill:#0b0e20;}.cls-6{fill:#b7d1ff;}.cls-7{fill:#ddccfb;}.cls-8{fill:#c5b5f9;}</style></defs><title>Endorsement</title><path class="cls-1" d="M277.49,276.39H231.25a3.62,3.62,0,0,0-3.62,3.62v18.2a3.62,3.62,0,0,0,3.62,3.62h38.17a3.62,3.62,0,0,0,3.62-3.62V283.79l5.23-5.64A1,1,0,0,0,277.49,276.39Z"/><path class="cls-2" d="M563.17,202.78H532.88a3.54,3.54,0,0,0-3.54,3.54v12.46L527,223.16a.76.76,0,0,0,1,1l5.41-2.81h29.73a3.54,3.54,0,0,0,3.54-3.54V206.32A3.54,3.54,0,0,0,563.17,202.78Z"/><path class="cls-1" d="M566.74,83H513.5a5.63,5.63,0,0,0-5.63,5.63v13.21l.09,3a1.16,1.16,0,0,0,2.09.67,9.08,9.08,0,0,1,7.35-3.68h49.34a5.63,5.63,0,0,0,5.63-5.63V88.61A5.63,5.63,0,0,0,566.74,83Z"/><path class="cls-3" d="M552.8,529.83H468.54a10,10,0,0,1-.57-2.3c-.17-1-.35-2.3-.54-3.84-.42-3.44-.87-8.11-1.35-13.6s-1-11.63-1.58-18.27c-.41-4.71-.84-9.65-1.3-14.64-.8-8.63-1.68-17.47-2.54-25.91-1.92-18.68-3.77-35.38-4.59-43.34-1.56-15.31-7-46.65-10.31-65-1.53-8.54-2.6-14.27-2.6-14.27l38.28-8.13c.09,1.18.49,5.77,1.11,12.74,2.16,24.21,7,77,10.7,114.28,2.26,22.62,4.12,39.47,4.73,40.66a5.22,5.22,0,0,0,1.33,1.53h0c2,1.68,5.9,3.27,10.59,4.87,11.44,3.91,27.93,7.9,35.77,13.64,4.92,3.58,6.51,10.42,7,15.45.14,1.48.19,2.8.19,3.84C552.87,528.95,552.8,529.83,552.8,529.83Z"/><path class="cls-1" d="M509.91,494.59a4.06,4.06,0,0,1-.1,1.3l-43.73,14.19c-.83-9.26-1.77-20.88-2.88-32.91-.61-6.62-1.28-13.37-1.94-20q-.3-3-.6-5.94l32.59-3.73q.32,3.16.62,6.16c2,19.46,3.56,33.42,4.11,34.5C499.15,490.46,503.82,492.52,509.91,494.59Z"/><path class="cls-4" d="M482.33,463.53a.5.5,0,0,1-.33-.87l3.45-3a.5.5,0,0,1,.66.75l-3.45,3A.5.5,0,0,1,482.33,463.53Z"/><path class="cls-4" d="M492.62,473.21a.5.5,0,0,1-.36-.15l-3.11-3.18a.5.5,0,0,1,.71-.7l3.11,3.18a.5.5,0,0,1-.36.85Z"/><path class="cls-4" d="M491.6,488a.5.5,0,0,1-.5-.44l-.54-4.2a.5.5,0,0,1,1-.13l.54,4.2a.5.5,0,0,1-.43.56Z"/><path class="cls-4" d="M485.51,477.61h-5.08a.5.5,0,0,1,0-1h5.08a.5.5,0,0,1,0,1Z"/><path class="cls-4" d="M473.46,481.4A.5.5,0,0,1,473,481l-1.15-4.6a.5.5,0,0,1,1-.24l1.15,4.6a.5.5,0,0,1-.36.61Z"/><path class="cls-4" d="M481.93,489.59a.5.5,0,0,1-.22-.05l-4.13-2a.5.5,0,0,1,.44-.9l4.13,2a.5.5,0,0,1-.22.95Z"/><path class="cls-4" d="M484.5,499.56a.5.5,0,0,1-.34-.13L480.44,496a.5.5,0,0,1,.68-.74l3.72,3.42a.5.5,0,0,1-.34.87Z"/><path class="cls-4" d="M472.31,500.79a.49.49,0,0,1-.23-.06.5.5,0,0,1-.21-.67L474,495.9a.5.5,0,0,1,.89.46l-2.17,4.17A.5.5,0,0,1,472.31,500.79Z"/><path class="cls-4" d="M465.61,489.59a.51.51,0,0,1-.24-.06.5.5,0,0,1-.19-.68l2-3.66a.5.5,0,1,1,.88.49l-2,3.66A.5.5,0,0,1,465.61,489.59Z"/><path class="cls-4" d="M469.27,467.52a.5.5,0,0,1-.12-1l4.2-1.08a.5.5,0,1,1,.25,1l-4.2,1.08Z"/><path class="cls-4" d="M464.53,467.52h-.08a.5.5,0,0,1-.42-.57l.61-4a.51.51,0,0,1,.57-.42.5.5,0,0,1,.42.57l-.61,4A.5.5,0,0,1,464.53,467.52Z"/><path class="cls-5" d="M552.86,527.52H468c-.57-3.29-1.19-9.5-1.89-17.44-.22-2.48-.46-5.13-.69-7.92-.29-3.28-.58-6.75-.89-10.35,2.79,3.26,6.55,7.15,9.26,8a11.27,11.27,0,0,0,12.82-4.45c2.7-4,3.46-6,12.73-5.69h0a15.61,15.61,0,0,0,2.63,1.66,61.9,61.9,0,0,0,8,3.21c5.47,1.87,12.09,3.75,18.37,5.84,1.54.51,3.06,1,4.54,1.58,5.1,1.86,9.69,3.9,12.86,6.22C552,512.88,552.84,523,552.86,527.52Z"/><path class="cls-6" d="M515.29,527.52H468c-.57-3.29-1.19-9.5-1.89-17.44-.22-2.48-.46-5.13-.69-7.92,3.8,1.66,7.34,4.45,11.58,8.37,8.46,7.83,23.28,14.6,35.49,14.32C516.3,524.77,516.64,525.91,515.29,527.52Z"/><path class="cls-6" d="M552.86,527.52h-30c-1.14-15.88.48-23.4,10-25.51,5.1,1.86,9.69,3.9,12.86,6.22C552,512.88,552.84,523,552.86,527.52Z"/><path class="cls-5" d="M482.55,333.26c-11.37.65-24.72,4.31-36.79,9.66-1.53-8.54-2.6-14.27-2.6-14.27l38.28-8.13C481.53,321.7,481.93,326.28,482.55,333.26Z"/><path class="cls-3" d="M426.75,332.88s-.51,4.65-1.6,13.26c-1.4,11-3.76,28.62-7.21,51.26-2.37,15.57-14.46,19.51-34.11,13.31-10.38-3.27-23.67-7.15-38.24-11.65-5.22-1.62-10.61-3.32-16.09-5.1-20.75-6.75-24.25-7-25.34-6.25-.88.61-1.84,1.37-2.86,2.23a126.1,126.1,0,0,0-16.8,18.19c-4.59,6.25-11.09,16.92-19.34,18.5a18.22,18.22,0,0,1-6.25,0,28.36,28.36,0,0,1-5.67-1.51,32.73,32.73,0,0,1-5.26-2.51l29.59-77.25a31.49,31.49,0,0,1,6.18.47c1.72.25,3.69.59,5.87,1,6.21,1.18,14.13,2.94,22.72,5,1.56.37,3.13.75,4.73,1.15,12.29,3,25.56,6.46,37,9.53,17.19,4.58,30.39,8.28,30.39,8.28l3.2-31.21,2.56-24.89Z"/><path class="cls-5" d="M289.62,346.84l-30.71,79.8a28.36,28.36,0,0,1-5.67-1.51,32.73,32.73,0,0,1-5.26-2.51l29.59-77.25a31.49,31.49,0,0,1,6.18.47C285.47,346.09,287.44,346.43,289.62,346.84Z"/><path class="cls-1" d="M354.12,362.52l-8.53,36.53-6.07-1.9c-3.29-1-6.64-2.1-10-3.2-20.75-6.75-24.25-7-25.34-6.25-.88.61-1.84,1.37-2.86,2.23-4.16-9.21-7.65-16.87-7.79-17s-.82-15,18.83-21.08c11.71,2.81,24.7,6.15,36.39,9.25Z"/><path class="cls-4" d="M341.44,367.12a.49.49,0,0,1-.23-.06l-5.42-2.8a.5.5,0,1,1,.46-.89l5.42,2.8a.5.5,0,0,1-.23.94Z"/><path class="cls-4" d="M336,385.94a.5.5,0,0,1-.48-.37l-1.4-5a.5.5,0,0,1,1-.27l1.4,5a.5.5,0,0,1-.35.62Z"/><path class="cls-4" d="M336,374.3a.5.5,0,0,1-.5-.5v-6.12a.5.5,0,0,1,1,0v6.12A.5.5,0,0,1,336,374.3Z"/><path class="cls-4" d="M326.92,368.17h-7.31a.5.5,0,0,1,0-1h7.31a.5.5,0,0,1,0,1Z"/><path class="cls-4" d="M321.32,379a.5.5,0,0,1-.46-.69l1.94-4.72a.5.5,0,0,1,.93.38l-1.94,4.72A.5.5,0,0,1,321.32,379Z"/><path class="cls-4" d="M322.3,388.47a.5.5,0,0,1-.49-.41c-.08-.42-.17-.94,5.65-3.09a.5.5,0,0,1,.35.94,30.36,30.36,0,0,0-5,2.22.5.5,0,0,1-.38.33Z"/><path class="cls-4" d="M314.15,383.44l-.16,0a36.5,36.5,0,0,0-5.69-1.61.47.47,0,0,1-.6-.32.53.53,0,0,1,.35-.64c.17-.06.68-.23,6.26,1.62a.5.5,0,0,1-.16,1Z"/><path class="cls-4" d="M309.78,373.07a.5.5,0,0,1-.3-.9c.7-.53,4.38-3.16,4.38-3.16l.58.81s-3.67,2.62-4.37,3.14A.5.5,0,0,1,309.78,373.07Z"/><path class="cls-4" d="M319.61,361.17a.5.5,0,0,1-.44-.26,24.9,24.9,0,0,0-2.81-4.38.51.51,0,0,1-.18-.68.49.49,0,0,1,.66-.19c.75.41,2.49,3.47,3.21,4.78a.5.5,0,0,1-.44.74Z"/><path class="cls-4" d="M308.2,364.32a.5.5,0,0,1-.5-.5c-.22-.55-3.57-3.5-6.68-6a.5.5,0,1,1,.63-.78c4.68,3.76,7.05,6,7.05,6.78A.5.5,0,0,1,308.2,364.32Z"/><path class="cls-4" d="M298.53,373.07a.5.5,0,0,1-.29-.91l7.05-4.9a.5.5,0,1,1,.57.82l-7.05,4.9A.5.5,0,0,1,298.53,373.07Z"/><path class="cls-5" d="M304.16,375c3,4.27,2.06,8.34,0,12.74-.81.56-1.69,1.25-2.63,2l-.23.19a126.1,126.1,0,0,0-16.8,18.19c-.36.49-.73,1-1.11,1.54-.83,1.17-1.72,2.43-2.67,3.73-4.15,5.72-9.36,12-15.56,13.23-4.22.81-8.63-.26-11.92-1.49,3.75-9.64,7.31-18.86,10.6-27.43,2.72-7.06,5.26-13.68,7.56-19.72,5.7-14.92,10-26.31,12.35-32.14,5.35.78,13.16,2.41,22.09,4.47l6.5,1.53c1.56.37,3.13.75,4.73,1.15-3.73,1.28-10.5,3.9-12.91,6.78C300.78,363.83,301.22,370.7,304.16,375Z"/><path class="cls-4" d="M301.53,389.74l-.23.19a126.1,126.1,0,0,0-16.8,18.19c-.36.49-.73,1-1.11,1.54-.42-2.78-.93-6.35-.92-7.36s8-15.6,17.37-20.68C300.55,381.23,301.41,385.65,301.53,389.74Z"/><path class="cls-6" d="M280.72,413.39c-4.15,5.72-9.36,12-15.56,13.23-4.22.81-8.63-.26-11.92-1.49,3.75-9.64,7.31-18.86,10.6-27.43,7.12,1.77,13.19,4.45,15.12,8.19A17.68,17.68,0,0,1,280.72,413.39Z"/><path class="cls-6" d="M305.84,350.32c-2.39,3.68-8.06,6.18-16.19,10.36-6.77,3.48-11.16,8.32-18.25,17.31,5.7-14.92,10-26.31,12.35-32.14C289.1,346.63,296.91,348.26,305.84,350.32Z"/><path class="cls-5" d="M426.75,332.88s-.51,4.65-1.6,13.26a316.31,316.31,0,0,0-37.44-6.54l2.56-24.89Z"/><rect class="cls-2" x="300.78" y="84.77" width="196.87" height="198.86" transform="translate(-15.17 37.28) rotate(-5.25)"/><path class="cls-3" d="M355.75,160.43c-.85,2.3-1.19,41.42-1.48,48.67,2-3.28,10.18,5,10.18,5-4.26,6.44-7.71,13-11.35,18.11-4.48,6.31-9.25,10.43-16.18,9.46-12.56-1.76-12.82-10.94-12.56-18.39s4-32.81,5.55-42.68,2.77-17.93,2.42-20-5-18-5.19-20.08,4.06-14.38,7.44-18.79,7.17-6.89,15-6.89c6.16,0,4.35,8.8-1.27,12.17a16,16,0,0,0-1,7.38c.28,3.34,4.43,9.23,8,9.81s9.49-3,11.63-1.44-1.9,3.86-4,6C359.64,152.08,356.66,158,355.75,160.43Z"/><path class="cls-5" d="M364.45,214.08c-4.26,6.44-7.71,13-11.35,18.11a204.79,204.79,0,0,0,1.17-23.09C356.23,205.83,364.45,214.08,364.45,214.08Z"/><path class="cls-3" d="M493.3,165.51c-2.56-1-5.3-1.33-6.18-2.72-1.19-1.87,1.65-5.09,5.38-4.26Z"/><polygon class="cls-3" points="499 190.94 447.31 241.66 444.61 234.65 434.7 208.85 448.67 198.94 493.35 167.24 499 190.94"/><path class="cls-5" d="M444.61,234.64l-9.91-25.79,14-9.92C453.73,212.9,453.08,227.71,444.61,234.64Z"/><path class="cls-7" d="M485.48,322.83,467.29,330l-3.79,1.51L449,337.3h0L442.33,340l-6,2.39L432.18,311,428,342.34s-6.58-1.94-15.13-4.77l-4.09-1.38c-4.06-1.39-8.38-2.93-12.53-4.52h0c-1.27-.49-2.51-1-3.73-1.47a104.26,104.26,0,0,1-12.45-5.83s3.41-27.48,5.27-38.23a125.51,125.51,0,0,1,4.5-16.77c.5-1.51,1-3,1.53-4.57,1.56-4.66,3.16-9.35,4.51-13.88,0-.09,0-.18.08-.26.54-1.82,1-3.38,1.43-4.74s.77-2.65,1.05-3.71a21.43,21.43,0,0,0,.57-2.94,10.28,10.28,0,0,0,.09-1.07c.07-2.39-.69-4.35-2.43-7.89L433,216.73l6-2.23,4.27-1.6c2.43,4.65,4.84,9,7.27,13.28l.39.69c.54,1,1.09,1.94,1.64,2.91,4.29,7.64,8.66,15.51,13.25,25.32.34.73.69,1.47,1,2.22.21.47.43,1,.64,1.47C475.68,277.92,485.48,322.83,485.48,322.83Z"/><path class="cls-4" d="M451.12,250.49a11.23,11.23,0,0,1,3.24,3.35,1.5,1.5,0,0,0,2.54-1.59,14,14,0,0,0-4.34-4.39,1.5,1.5,0,0,0-1.44,2.63Z"/><path class="cls-4" d="M416.11,252.62a15.31,15.31,0,0,0-1.92,2.42,1.5,1.5,0,1,0,2.61,1.49,13.45,13.45,0,0,1,1.68-2c1.49,1.14,2.74,2.06,2.84,2.13a1.5,1.5,0,0,0,1.77-2.42s-1.12-.82-2.47-1.85c.79-.76,1.58-1.49,2.21-2a1.5,1.5,0,0,0-2-2.24c-.24.22-1.34,1.2-2.6,2.42-.64-.52-1.24-1-1.72-1.46a1.5,1.5,0,1,0-2,2.21C414.95,251.64,415.51,252.12,416.11,252.62Z"/><path class="cls-4" d="M467.29,330l-3.79,1.51A93.45,93.45,0,0,0,461,322c-2.55,2.56-7.78,9.3-12,15.3h0L442.33,340c2.44-3.7,6.17-8.89,9.51-13.19,7.61-9.82,8.81-9.71,9.94-9.61S464.56,317.4,467.29,330Z"/><path class="cls-4" d="M404.9,309.61a1.5,1.5,0,0,0-1.7,1.26c-.47,3.16.42,6.21,2.31,8a5.78,5.78,0,0,0,4,1.53,7.15,7.15,0,0,0,1.65-.2,5.12,5.12,0,0,0,3.37-2.46c1.67-2.93.45-7.13.3-7.6a1.5,1.5,0,0,0-2.87.89c.29.93.84,3.7,0,5.23a2.11,2.11,0,0,1-1.45,1,3,3,0,0,1-2.91-.62,6.14,6.14,0,0,1-1.37-5.3A1.5,1.5,0,0,0,404.9,309.61Z"/><path class="cls-4" d="M447.21,320.35a1.5,1.5,0,0,0,.41-3,27.77,27.77,0,0,0-7.54,0,1.5,1.5,0,0,0,.27,3l.28,0A25.15,25.15,0,0,1,447.21,320.35Z"/><path class="cls-4" d="M468.34,286.73a2,2,0,0,1-1.49.67,2,2,0,0,1-1.34-.52,23.69,23.69,0,0,1-7.27-19.15,16.57,16.57,0,0,1,7.58-12.63c.34.73.69,1.47,1,2.22.21.47.43,1,.64,1.47a12.63,12.63,0,0,0-5.27,9.34,19.78,19.78,0,0,0,6,15.78A2,2,0,0,1,468.34,286.73Z"/><path class="cls-4" d="M477,312.72a3,3,0,0,0-3.48,1,4.11,4.11,0,0,0-.69,4.86,4,4,0,0,0,3.52,1.86,5.24,5.24,0,0,0,1.1-.13,2.83,2.83,0,0,0,2.19-2.7C479.79,315.85,478.77,313.45,477,312.72Zm-.35,4.7a1.22,1.22,0,0,1-1.26-.38c-.19-.32,0-.83.42-1.37l.12-.13a2.14,2.14,0,0,1,.54.85A2.25,2.25,0,0,1,476.65,317.42Z"/><path class="cls-4" d="M415.28,269.51a2,2,0,0,0-3.06.31c-.76,1.13-7.44,11.21-8.22,17a2,2,0,1,0,4,.54c.45-3.35,3.93-9.5,6.24-13.21a188.48,188.48,0,0,1,14.86,18.81,2,2,0,0,0,3.3-2.26C432,290.13,423.13,277.25,415.28,269.51Z"/><path class="cls-4" d="M415.84,330.23a20.31,20.31,0,0,1-2.92,7.34l-4.09-1.38c1.31-1.06,2.3-3.65,2.8-5.5-2.69-1.75-8.23-4-11.36-5.16a25.45,25.45,0,0,0-4,6.14h0c-1.27-.49-2.51-1-3.73-1.47a26.21,26.21,0,0,1,5.91-8.52,2,2,0,0,1,2-.35c1.17.41,11.45,4.13,14.77,7A2,2,0,0,1,415.84,330.23Z"/><path class="cls-4" d="M401,261.63c-1.85,3.87-5.87,6.59-11.15,7.75.5-1.51,1-3,1.53-4.57a10.2,10.2,0,0,0,6-4.9c1.28-2.69.77-5.89-1.42-9.24.54-1.82,1-3.38,1.43-4.74C402,251.24,403.28,256.92,401,261.63Z"/><path class="cls-8" d="M495.47,70.17,283.8,89.61l21.58,234.89L517,305.08ZM297.76,98.95,483.45,81.89l17.23,187.57L315,286.51Z"/><circle class="cls-2" cx="291.98" cy="219.61" r="13.22"/><path class="cls-4" d="M293.35,226.87a11.63,11.63,0,0,1,5-14.52C301.3,216.21,300.23,224,293.35,226.87Z"/><circle class="cls-2" cx="288.01" cy="177.66" r="13.22"/><path class="cls-3" d="M506.29,188c2.89-3.6,4.09-3.52,3.79-7.11s-.83-13.55-1.87-17.21a11.67,11.67,0,0,0-6.44-6.8c-1.35-.3-5.51-.6-6.28.89-1.26,2.42-.76,20.56,3.51,22.14S505.61,180.53,506.29,188Z"/><circle class="cls-2" cx="284.04" cy="135.72" r="13.22"/><path class="cls-3" d="M450.54,226.18l-51.4,12c.07-2.39-.69-4.35-2.43-7.89L433,216.73l6-2.23,4.27-1.6C445.7,217.55,448.11,221.88,450.54,226.18Z"/><path class="cls-7" d="M447.65,217.77l-59.28,17.31-.14-.79h0c-.15-.79-.41-2.15-.77-3.94-.45-2.13-1-4.87-1.81-8-.34-1.42-.72-2.92-1.13-4.48a191.22,191.22,0,0,0-7.32-22.67,36.36,36.36,0,0,1-2.32,6.77c-.46,1.12-1,2.38-1.67,3.8-1.26,2.75-2.91,6.1-5.09,10.12-.62,1.17-1.3,2.39-2,3.68-1.17,2.08-2.45,4.31-3.87,6.7,0,0-6.42-12.52-11.24-25.22-.46-1.22-.91-2.44-1.33-3.65-2.64-7.46-4.44-14.56-3.76-18.77,0,0,11.7-13.87,15.83-18.2,5.41-5.68,15.53-3.45,21-5a5.38,5.38,0,0,0,2.81-1.63l15.1-5.91.32-.42c0,.23,1.45,3.74,2.11,4.1a5,5,0,0,0,2.52.42c3.21-.1,9.83-.9,14.93-1.52l2.82-.34a10.65,10.65,0,0,1,1.26-.07,13.41,13.41,0,0,1,7.69,2.59,10.65,10.65,0,0,1,2.78,2.92,6.92,6.92,0,0,1,.69,1.39,148.31,148.31,0,0,1,7.13,22c.84,3.35,1.61,6.35,2.22,9.08h0c.08.39.16.76.23,1.13h0c1.56,7.46,1.66,13-2.11,18.74Z"/><path class="cls-4" d="M399.22,166.52s-2.15-.91-6.71-.42-7.93,3.24-9,2.75c-.73-.34-.8-7.85-.75-13.45a5.38,5.38,0,0,0,2.81-1.63l15.1-5.91q.62.9,1.35,2l1.08,1.67c2.06,3.2,4.67,7.44,7.8,12.9C411.57,165.59,403.64,162.64,399.22,166.52Z"/><path class="cls-4" d="M435.11,155.54c-2.43,2-5.47,3.9-8.11,3.9a5.07,5.07,0,0,1-1.24-.15c-2.22-.61-3.94-4.39-5.2-8.85l2.82-.34a10.65,10.65,0,0,1,1.26-.07c.9,3,1.77,4.87,2.32,5.42,1.08.13,3.19-1.1,5.37-2.83A10.65,10.65,0,0,1,435.11,155.54Z"/><path class="cls-4" d="M424.51,164.86a5.32,5.32,0,0,0-6.52,1.48h0a5.9,5.9,0,0,0-.44,6.74,6.34,6.34,0,0,0,5.24,3.12,5.21,5.21,0,0,0,.69,0,4.71,4.71,0,0,0,3.86-3.78C428.39,168.33,426.57,165.84,424.51,164.86Zm-.08,6.76c-.37,1.41-1.14,1.52-1.39,1.56a3.27,3.27,0,0,1-2.93-1.65,2.9,2.9,0,0,1,.3-3.42,2.31,2.31,0,0,1,2.81-.54C424.5,168.18,424.94,169.65,424.43,171.63Z"/><path class="cls-4" d="M438.61,185.62c0,.2.18,1.06.36,2.2l-1.46.12a1.5,1.5,0,0,0,0,3c.05,0,.17,0,1.89-.15l.48,3.07a1.5,1.5,0,0,0,1.48,1.27l.23,0a1.5,1.5,0,0,0,1.25-1.71l-.45-2.88,1.61-.15a1.5,1.5,0,1,0-.28-3l-1.81.17c-.41-2.55-.44-2.66-.48-2.77a1.5,1.5,0,0,0-2.88.83Z"/><path class="cls-4" d="M403.29,172.81l5.38,3.18a1.5,1.5,0,0,0,1.53-2.58l-5.38-3.18a1.5,1.5,0,0,0-1.53,2.58Z"/><path class="cls-4" d="M409.34,191.79c-.85-1.6-3-2.73-5.9-1.44a4,4,0,0,0-2.34,3.48,4.1,4.1,0,0,0,1.88,3.78,3.54,3.54,0,0,0,1.88.52,5.1,5.1,0,0,0,2.67-.84A4.18,4.18,0,0,0,409.34,191.79ZM406,194.73c-.62.38-1.15.49-1.45.31a1.19,1.19,0,0,1-.43-1,1,1,0,0,1,.59-.91c1-.44,1.74-.4,2,.1S406.76,194.24,406,194.73Z"/><path class="cls-4" d="M401.45,225.83c-1.22,1.19-8.39,6.59-13.22,8.45-.15-.79-.41-2.15-.77-3.94a68.05,68.05,0,0,0,10.44-6.69,69.16,69.16,0,0,0-6-6.77,57,57,0,0,0-6.21,5.44c-.34-1.42-.72-2.92-1.13-4.48,3-2.81,6.1-5.27,7.47-5.27.81,0,1.65,0,6.09,5,4.18,4.75,4.27,5.56,4.33,6A2.62,2.62,0,0,1,401.45,225.83Z"/><path class="cls-4" d="M379.13,180.4a5.17,5.17,0,0,1,.84.19,30.14,30.14,0,0,0-1.28,3.11,1.5,1.5,0,1,0,2.83,1,27.23,27.23,0,0,1,1.19-2.91c.69.37,1.29.72,1.63.94A1.5,1.5,0,0,0,386,180.2c-.16-.1-.83-.53-1.75-1a8.08,8.08,0,0,1,.7-.89,1.5,1.5,0,0,0-2.1-2.14,11.64,11.64,0,0,0-1.36,1.77,9.21,9.21,0,0,0-2-.5,1.5,1.5,0,1,0-.35,3Z"/><path class="cls-4" d="M373.21,165c-3.88-3.5-5-3.67-5.36-3.74s-2-.31-6.26,3.73c-2.79,2.66-3.08,3.87-3,4.79.47,4.29,8.29,7.75,9.05,7.85l.32,0c.59,0,1.44-.34,4.82-2.71,3.88-2.73,4.27-3.53,4.4-4.38C377.36,169.57,377.17,168.58,373.21,165Zm-5.38,8.45c-1.74-.84-4.51-2.69-5.12-3.79a23.13,23.13,0,0,1,4.69-4.26,42.6,42.6,0,0,1,5.28,4.65A58.53,58.53,0,0,1,367.83,173.45Z"/><path class="cls-4" d="M439,214.35a114.5,114.5,0,0,0-6.07-11.74,2,2,0,0,0-3.08-.36,53.46,53.46,0,0,0-7.2,9.64,2,2,0,0,0,1,2.89,46,46,0,0,0,8.37,1.81,40.37,40.37,0,0,0,4.81.5c1.09,0,1.32-.24,1.69-.62A2,2,0,0,0,439,214.35Zm-11.52-2.64a52.86,52.86,0,0,1,3.42-4.69c1.06,1.91,2.14,4.07,3,5.77A61.23,61.23,0,0,1,427.44,211.71Z"/><path class="cls-4" d="M409.52,209.43a57.89,57.89,0,0,0-6.15,2.71,1.5,1.5,0,1,0,1.38,2.66,55.82,55.82,0,0,1,5.8-2.55,1.5,1.5,0,0,0-1-2.82Z"/><path class="cls-4" d="M374.88,201.93c-.46,1.12-1,2.38-1.67,3.8a5.89,5.89,0,0,0-4.18,1,6.23,6.23,0,0,0-2.33,5.87,6.51,6.51,0,0,0,1.42,3.25c-.62,1.17-1.3,2.39-2,3.68a10.45,10.45,0,0,1,.56-16A10.12,10.12,0,0,1,374.88,201.93Z"/><path class="cls-4" d="M360.73,191.29c0,1.06,0,1.45-8.59,9.23A2,2,0,0,1,351,201c-.46-1.22-.91-2.44-1.33-3.65,3.93-3.56,5.76-5.34,6.61-6.21-1-1.44-3.14-4.14-5.06-6.54a2,2,0,0,1,3.13-2.49C360.73,190.13,360.73,190.49,360.73,191.29Z"/><path class="cls-5" d="M390.33,108.7c13.05-8.61,24.69-12.91,37.75-7.83s10.75,14.87,13.76,22.79c2.29,6,7.86,12.63,19.54,9s21-1.69,23,7.48c2.46,11.5-3.59,21-14.32,22.37-11.67,1.52-11.13-13.56-18.91-16.93-9.83-4.26-14.82,4.41-23,1.54s-5.45-11.87-6.26-20C421,118,414.6,112.44,403,116.68Z"/><path class="cls-5" d="M404.15,130.28c7.22-7.38-.34-25.71-12-24.61-10.28,1-12.8,8.19-12.82,14.14,0,4.61.22,6.27,3.07,8.59Z"/><path class="cls-3" d="M382.11,123.69c-5.24-.57-5.16,7.65.2,7.88Z"/><path class="cls-3" d="M403.79,128s-.24,2.91-.62,7.1c-.9,9.81-2.6,26.62-4,29.32,0,0-5.28-2.79-13.64-10.67a61.29,61.29,0,0,0,1.44-6.72c.43-2.59.87-5.89,1.15-9.8C388.17,137.26,393.9,125.63,403.79,128Z"/><path class="cls-5" d="M403.79,128s-.24,2.91-.62,7.1c-3.32,5.62-9.47,11.79-16.15,11.93.43-2.59.87-5.89,1.15-9.8C388.17,137.26,393.9,125.63,403.79,128Z"/><path class="cls-3" d="M403,124.76c7,1.94,3.35,9.09-1.26,6.87,0,0-5.51,9.33-13.51,8-7.27-1.23-8.33-8.78-7.43-19.21,2.17-3.08,4.76-2.78,5.95-7.74a18,18,0,0,0,6,8.56C398.66,125.6,403,124.76,403,124.76Z"/><path class="cls-4" d="M253.2,284.57v8.88h-2.39v-6.87h-1.32v-2Z"/><path class="cls-4" d="M258.23,284.57v8.88h-2.39v-6.87h-1.32v-2Z"/><path class="cls-4" d="M266.69,290.36a3.54,3.54,0,0,1-7.05,0,5.78,5.78,0,0,1,1-3.06l1.63-2.75h2.56l-1.76,2.93a3.87,3.87,0,0,1,.59,0A2.83,2.83,0,0,1,266.69,290.36Zm-2.29,0a1.24,1.24,0,1,0-1.24,1.25A1.2,1.2,0,0,0,264.4,290.36Z"/><path class="cls-6" d="M243.89,284a2.89,2.89,0,0,0-3.72,2.84,2.89,2.89,0,0,0-3.72-2.84,3.84,3.84,0,0,0-2,5.42c1.22,2.58,3.76,2.68,5.77,4.87,2-2.19,4.55-2.29,5.77-4.87A3.84,3.84,0,0,0,243.89,284Z"/><path class="cls-4" d="M554.83,210.83a5.29,5.29,0,0,1-.92,2.77l-1.49,2.51H550.1l1.6-2.68a3.63,3.63,0,0,1-.53,0,2.57,2.57,0,0,1-2.73-2.63,3.21,3.21,0,0,1,6.39,0Zm-2,0a1.18,1.18,0,1,0-1.18,1.16A1.11,1.11,0,0,0,552.82,210.84Z"/><path class="cls-4" d="M561,211.85a2.12,2.12,0,0,1,1.07,1.88c0,1.52-1.29,2.56-3.19,2.56s-3.18-1-3.18-2.56a2.1,2.1,0,0,1,1.07-1.89,2.07,2.07,0,0,1-.85-1.65c0-1.39,1.19-2.34,3-2.34s3,.95,3,2.34a2,2,0,0,1-.85,1.65Zm-1,1.82a1.09,1.09,0,1,0-1.07,1A1,1,0,0,0,560,213.67Zm-2-3.4a.93.93,0,1,0,.92-.8A.84.84,0,0,0,558,210.26Z"/><path class="cls-4" d="M544.1,215.51a.32.32,0,0,1,.09-.3,4.89,4.89,0,0,0,1.46-3.44c0-2.88-2.61-5.22-5.84-5.22s-5.84,2.34-5.84,5.22,2.61,5.22,5.84,5.22a6.4,6.4,0,0,0,2.23-.4.32.32,0,0,1,.27,0l1.72,1a.33.33,0,0,0,.47-.36Z"/><path class="cls-4" d="M287.71,170.74s-3.15,4.75-2.72,9.31c.14,1.5,1.85,2.56,3.82,2.38s3.45-1.55,3.31-3C291.69,174.82,287.71,170.74,287.71,170.74Z"/><path class="cls-4" d="M286.79,185c-1.86,0-3.6-.24-4.31-.83a1,1,0,0,1-.4-.7c-.07-.67.55-1.23,1.9-1.73a.5.5,0,1,1,.34.94c-1.11.41-1.25.72-1.25.72.2.31,2.4.82,5.89.49s5.54-1.23,5.68-1.64a3.44,3.44,0,0,0-1.4-.43.5.5,0,0,1,.15-1c1.42.22,2.17.68,2.24,1.36.15,1.62-4.07,2.46-6.58,2.69C288.31,184.92,287.54,185,286.79,185Z"/><path class="cls-4" d="M277.46,132.55l6.27-3.7,1.17,13.74S278.29,142.24,277.46,132.55Z"/><path class="cls-7" d="M290.54,131.43l-6.81-2.59,1.17,13.74S291.37,141.12,290.54,131.43Z"/><path class="cls-2" d="M325.69,297.44c-1.37-3.37-6.54-2.51-6,1.78.45,3.89,6.65,7.46,6.65,7.46s5.68-4.34,5.63-8.26C331.85,294.1,326.62,293.91,325.69,297.44Z"/><path class="cls-7" d="M348.73,302.82a.32.32,0,0,1,.07-.3,4.81,4.81,0,0,0,1.21-3.47c-.18-2.83-2.9-5-6.07-4.75s-5.58,2.67-5.4,5.5,2.9,5,6.07,4.75a6.31,6.31,0,0,0,2.17-.53.31.31,0,0,1,.26,0l1.75.83a.32.32,0,0,0,.44-.38Z"/><path class="cls-7" d="M366,294.74l-3.57,8.17a.51.51,0,0,1-1,0l-1.54-4.58-.06-.12-.07-.08-3-2.92a.52.52,0,0,1,.35-.89l8.37-.25a.52.52,0,0,1,.49.72Z"/><path class="cls-8" d="M366,294.74l-3.57,8.17a.51.51,0,0,1-1,0l-1.54-4.58-.06-.12,6.06-3.93A.51.51,0,0,1,366,294.74Z"/><path class="cls-7" d="M293.17,225c.26-3.72-3.07-7.41-9.09-8,0,0,1.33,2.54,2,3.85C287.5,223.41,289.39,225.26,293.17,225Z"/><path class="cls-2" d="M293.13,224.31a.5.5,0,0,1-.44-.27c-.62-1.2-3.38-2.76-4.39-3.26a.5.5,0,1,1,.44-.9c.4.2,4,2,4.84,3.7a.5.5,0,0,1-.44.73Z"/><path class="cls-2" d="M293,226.16h-.1a.5.5,0,0,1-.39-.59,26.82,26.82,0,0,1,3.95-8.88.5.5,0,1,1,.81.58,26.32,26.32,0,0,0-3.78,8.51A.5.5,0,0,1,293,226.16Z"/><path class="cls-4" d="M386.27,131.48c.84.47,2.53.21,2.85-.73.47,1.95-.21,2.93-.9,3.15C386.25,134.52,386.27,131.48,386.27,131.48Z"/><ellipse class="cls-5" cx="390.33" cy="123.54" rx="1.48" ry="0.87" transform="translate(234.35 502.08) rotate(-85.17)"/><ellipse class="cls-5" cx="383.79" cy="123.22" rx="1.48" ry="0.87" transform="translate(228.68 495.27) rotate(-85.17)"/><path class="cls-6" d="M519.15,90.23a2,2,0,0,0-3.83.86c.12,2.43,3.83,4.9,3.83,4.9s3.7-2.47,3.83-4.9A2,2,0,0,0,519.15,90.23Z"/><path class="cls-4" d="M529.64,90.23a2,2,0,0,0-3.83.86c.12,2.43,3.83,4.9,3.83,4.9s3.7-2.47,3.83-4.9A2,2,0,0,0,529.64,90.23Z"/><path class="cls-4" d="M540.12,90.23a2,2,0,0,0-3.83.86c.12,2.43,3.83,4.9,3.83,4.9s3.7-2.47,3.83-4.9A2,2,0,0,0,540.12,90.23Z"/><path class="cls-4" d="M550.6,90.23a2,2,0,0,0-3.83.86c.12,2.43,3.83,4.9,3.83,4.9s3.7-2.47,3.83-4.9A2,2,0,0,0,550.6,90.23Z"/><path class="cls-4" d="M561.09,90.23a2,2,0,0,0-3.83.86c.12,2.43,3.83,4.9,3.83,4.9s3.7-2.47,3.83-4.9A2,2,0,0,0,561.09,90.23Z"/><path class="cls-4" d="M435.2,237.7s9,15.88,11.89,26.8l-4.65,2a92.62,92.62,0,0,0-11.24-26.93c2.47,13.06,3.5,21.62,3.5,21.62l-4.6.51c-.64-8.4-3.73-22.13-3.73-22.13-8.38,1.22-22.17,2.28-27.89,2.7a21.43,21.43,0,0,0,.57-2.94c11.6-.92,27-2.54,32.05-4.2,3.94-1.29,14.27-5.77,19.83-8.2.54,1,1.09,1.94,1.64,2.91Z"/><path class="cls-4" d="M493.87,453.7l-32.61,3.51q-.3-3-.6-5.94l32.59-3.73Q493.56,450.7,493.87,453.7Z"/><path class="cls-5" d="M552.8,529.83H468.54a10,10,0,0,1-.57-2.3c-.17-1-.35-2.3-.54-3.84h85.24c.14,1.48.19,2.8.19,3.84C552.87,528.95,552.8,529.83,552.8,529.83Z"/><path class="cls-4" d="M528.28,500.43a18.35,18.35,0,0,0-5.74,2.41c-2.93,2.11-3.77,2.3-11.55,0s-15.16-6.22-15.77-6.89c-.93-1,2.54-3.06,6.73-4.57a61.9,61.9,0,0,0,8,3.21C515.38,496.46,522,498.34,528.28,500.43Z"/><path class="cls-4" d="M354.12,362.52l-8.53,36.53-6.07-1.9c2.35-9.17,6.16-24.1,9.21-36.06Z"/><polygon class="cls-4" points="363.41 144.56 356.23 145.37 354.64 140.15 352.63 133.5 350.32 125.94 348.58 120.19 361.46 117.31 361.72 121 362.3 129.06 363.01 139 363.41 144.56"/><polygon class="cls-6" points="363.41 144.56 356.23 145.37 354.64 140.15 363.01 139 363.41 144.56"/><path class="cls-1" d="M362.3,129.05c-4.57,3.94-7.26,4.72-9.67,4.45l-2.31-7.57c4.61-.14,9.16-3.18,11.4-4.93Z"/><path class="cls-5" d="M443.26,208.44a.5.5,0,0,1-.44-.27c-8.61-16.41-13.46-26.44-13.76-27.45a24.37,24.37,0,0,1-.51-3.46.5.5,0,0,1,.46-.54.49.49,0,0,1,.54.46,24.26,24.26,0,0,0,.47,3.26c.28.94,5.23,11.14,13.69,27.27a.5.5,0,0,1-.44.73Z"/><path class="cls-5" d="M344.16,134.64a.5.5,0,0,1-.5-.5c0-3.55,0-6.9,2.71-11.94.5-.92,1-1.79,1.57-2.64,1.21-1.93,2.35-3.75,1.57-4.34a.5.5,0,1,1,.6-.8c1.52,1.15.2,3.24-1.32,5.67-.52.83-1.06,1.69-1.54,2.58a20.89,20.89,0,0,0-2.59,11.47A.5.5,0,0,1,344.16,134.64Z"/><path class="cls-5" d="M339.68,135a.5.5,0,0,1-.5-.48l0-.56c-.1-1.63-.15-2.38,1.87-7.38.73-1.82,1.53-3.44,2.24-4.87,1.21-2.45,2.16-4.38,1.8-5.38a1.18,1.18,0,0,0-.7-.67.5.5,0,0,1,.41-.91A2.17,2.17,0,0,1,346,116c.5,1.39-.48,3.39-1.85,6.16-.7,1.42-1.49,3-2.21,4.8-1.93,4.79-1.89,5.42-1.8,6.95l0,.58a.5.5,0,0,1-.48.52Z"/><path class="cls-5" d="M346.36,152.19a.5.5,0,0,1-.49-.42c-1-6-5.53-10.38-8.25-13-1.46-1.42-2.06-2-2.06-2.59,0-5.76,1.71-14.66,6.68-20.77a.5.5,0,1,1,.78.63c-4.8,5.91-6.48,14.54-6.46,20.13a12.38,12.38,0,0,0,1.76,1.87c2.81,2.72,7.5,7.27,8.54,13.57a.5.5,0,0,1-.41.57Z"/><path class="cls-5" d="M509.81,177.65a.5.5,0,0,1-.32-.12c-5-4.19-9.81-5.09-13.1-2.49a.5.5,0,1,1-.62-.78c3.7-2.93,8.93-2,14.36,2.5a.5.5,0,0,1-.32.88Z"/><path class="cls-5" d="M509.45,173.08a.5.5,0,0,1-.38-.17c-6.48-7.49-12.1-4.82-13.68-3.82a.5.5,0,0,1-.54-.84c1.74-1.1,8-4.08,15,4a.5.5,0,0,1-.38.83Z"/><path class="cls-5" d="M509,168.6a.5.5,0,0,1-.44-.27c-2.28-4.31-5.05-5.66-7-6a7.6,7.6,0,0,0-6.36,1.76.5.5,0,1,1-.65-.76,8.58,8.58,0,0,1,7.2-2c2.14.41,5.21,1.88,7.68,6.54a.5.5,0,0,1-.21.68A.49.49,0,0,1,509,168.6Z"/><path class="cls-5" d="M404.7,130.19a.5.5,0,0,1-.37-.84.83.83,0,0,0,0-1.13,1.28,1.28,0,0,0-1.49-.51.5.5,0,0,1-.45-.89,2.27,2.27,0,0,1,2.73.8,1.81,1.81,0,0,1-.06,2.41A.5.5,0,0,1,404.7,130.19Z"/><path class="cls-5" d="M386.93,129.64a.5.5,0,0,1-.17,0c-.93-.35-1.95-.8-2.19-1.76s.26-1.93,1.56-3.39a.5.5,0,1,1,.75.66c-1.26,1.42-1.42,2.14-1.33,2.48s.82.79,1.56,1.06a.5.5,0,0,1-.17,1Z"/><path class="cls-5" d="M513,505a.5.5,0,0,1-.36-.85c2.13-2.21,6.37-6,10.73-6.65a.5.5,0,1,1,.15,1c-4.07.6-8.11,4.24-10.16,6.36A.5.5,0,0,1,513,505Z"/><path class="cls-5" d="M506.6,503a.5.5,0,0,1-.36-.85c4.1-4.24,7.61-6.53,10.73-7a.5.5,0,0,1,.15,1c-2.9.43-6.22,2.62-10.16,6.69A.5.5,0,0,1,506.6,503Z"/><path class="cls-5" d="M499,500.21a.5.5,0,0,1-.36-.85c3.79-3.92,7.33-6.14,10.52-6.62a.5.5,0,1,1,.15,1c-3,.44-6.32,2.56-9.95,6.32A.5.5,0,0,1,499,500.21Z"/><path class="cls-5" d="M297.32,396.22a.5.5,0,0,1-.5-.46c0-.08-.75-8.18-2.25-11.89a.5.5,0,0,1,.93-.38c1.56,3.85,2.29,11.84,2.33,12.18a.5.5,0,0,1-.45.54Z"/><path class="cls-5" d="M292.37,401.09a.5.5,0,0,1-.49-.41c0-.08-1.56-8.19-3.48-11a.5.5,0,1,1,.83-.56c2,3,3.57,11,3.63,11.39a.5.5,0,0,1-.4.58Z"/><path class="cls-5" d="M287.6,406.63a.5.5,0,0,1-.5-.47c0-.08-.53-7.53-2.69-10.91a.5.5,0,0,1,.84-.54c2.3,3.59,2.83,11.06,2.85,11.38a.5.5,0,0,1-.47.53Z"/></svg>