<svg id="Layer_2" data-name="Layer 2" xmlns="http://www.w3.org/2000/svg" xmlns:xlink="http://www.w3.org/1999/xlink" viewBox="0 0 800 600"><defs><style>.cls-1{fill:none;}.cls-2{fill:#ddccfb;}.cls-3{fill:#fff;}.cls-4{clip-path:url(#clip-path);}.cls-5{fill:#c5b5f9;}.cls-6{fill:#0b0e20;}.cls-7{fill:#b7d1ff;}.cls-8{clip-path:url(#clip-path-2);}.cls-9{fill:#f1a19e;}.cls-10{fill:#6788ec;}.cls-11{fill:#a07df0;}</style><clipPath id="clip-path"><path class="cls-1" d="M369.22,374.42c10.76-31.68,28.91-51,41.07-78A214.42,214.42,0,0,0,425,249.58c-1.29-10.52-8-33.54-8-33.54l-10.23.85,9.38,12.42-12.29,26.15c-15.82-25-27.83-39.12-26.47-50,.74-5.89,4.41-7.8,19.71-11.1s40.41-10,40.41-10l3.48,26.82H459.8l59.87,15.27s-4.77,22.12-10.52,44.79c0,0,7.48,26.68,9.65,73.09L500,401.29c-22.33.79-61-.65-97.91-11.76A128.12,128.12,0,0,1,369.22,374.42Z"/></clipPath><clipPath id="clip-path-2"><polygon class="cls-1" points="487.27 253.3 478.58 298.17 502.51 306.93 506.51 257.58 487.27 253.3"/></clipPath></defs><title>Instagram Photo Shoot</title><path class="cls-2" d="M259.76,92.7v400A20.73,20.73,0,0,1,239,513.44H589a20.73,20.73,0,0,0,20.73-20.73V91.47Z"/><path class="cls-3" d="M369.22,374.42c10.76-31.68,28.91-51,41.07-78A214.42,214.42,0,0,0,425,249.58c-1.29-10.52-8-33.54-8-33.54l-10.23.85,9.38,12.42-12.29,26.15c-15.82-25-27.83-39.12-26.47-50,.74-5.89,4.41-7.8,19.71-11.1s40.41-10,40.41-10l3.48,26.82H459.8l59.87,15.27s-4.77,22.12-10.52,44.79c0,0,7.48,26.68,9.65,73.09L500,401.29c-22.33.79-61-.65-97.91-11.76A128.12,128.12,0,0,1,369.22,374.42Z"/><g class="cls-4"><path class="cls-5" d="M500.5,236c.19-.06,7.21-2,7.21-2s1.49,5.58-2.14,6.1S500.5,236,500.5,236Z"/><path class="cls-5" d="M515.47,231.8c-2.24,1.24-2.89,7.8,3.86,6.76,0,0,2-9,1.5-9.2S515.47,231.8,515.47,231.8Z"/><path class="cls-5" d="M494.75,244.46c1.48-1.18,7.47.35,8.22,3.75s.7,4.89-2.47,3.53S493,245.82,494.75,244.46Z"/><path class="cls-5" d="M510.09,316.93c.7-2.19,6,4.45,4.9,6.15S509,320.42,510.09,316.93Z"/><path class="cls-5" d="M517.15,306.6c-1.34-2.78-5.39,5.62-3.48,6.93s5.23-.46,5.17-2.07S518.06,308.5,517.15,306.6Z"/><path class="cls-5" d="M501.65,289.76c1.8,2.63,6.74,2.06,7.22-.37.39-2-2.1-.56-3.95-1.73C502.91,286.38,500.29,287.76,501.65,289.76Z"/><path class="cls-5" d="M489.86,286.39c3-3.43,7.86,6,5.92,7.81s-2.27-2-4-3S488.34,288.15,489.86,286.39Z"/><path class="cls-5" d="M504.51,271.35c-1.52,2.46,3.07,6,5.65,4S507.78,266.05,504.51,271.35Z"/><path class="cls-5" d="M505.55,258.14c-3.1-.15-2.42,4.32,0,4.18S511,258.41,505.55,258.14Z"/><path class="cls-5" d="M484.24,248.15c1.32,1.12,3.33-.08,3.66,2.41s-3,4.63-5.17,2.74S481.1,245.49,484.24,248.15Z"/><path class="cls-5" d="M484.68,261.28a1.92,1.92,0,0,1,3.25,2C487.25,264.94,481.91,264.16,484.68,261.28Z"/><path class="cls-5" d="M486.85,273.7c1.21.32,1.19,2.62,2.42,3.07s4.78-5.5,2.15-8.24C489.67,266.7,482.49,272.54,486.85,273.7Z"/><path class="cls-5" d="M507,300.46c2.35.08,3.82-.07,3.89,1.31s-1.92,3.73-4.81,2.81-3-4.94-1.27-5.07S505.84,300.43,507,300.46Z"/><path class="cls-5" d="M478.3,289.33c3-1.66,6.4-2.15,6.75,1.38s-7.05,7.55-8.17,6.56S477.35,289.84,478.3,289.33Z"/><path class="cls-5" d="M450.18,215.28c2.55-2.62-5.76-3.47-5.74-.67S448.12,217.41,450.18,215.28Z"/><path class="cls-5" d="M436.46,202.56c-5.36,1-7.8-3.69-2.9-7.11S440.72,201.76,436.46,202.56Z"/><path class="cls-5" d="M434.76,188.61c-2.93-1.15-5.93-2.39-7.12-.85s4.15,4.5,6.43,3.36S436.88,189.45,434.76,188.61Z"/><path class="cls-5" d="M427.18,209.56c2.36-2.2,6.83.2,5.63,3.31S423,213.49,427.18,209.56Z"/><path class="cls-5" d="M431.73,224.19c2-2.89,7.67,3,7,5.48S427.58,230.22,431.73,224.19Z"/><path class="cls-5" d="M405.67,201.13c2.77-1.22,5.94,2.43,3,3.57S402.1,202.7,405.67,201.13Z"/><path class="cls-5" d="M415.88,196.32c-2-.86-3.92-.65-3.27,3.19s1.27,4.59,3.32,3.18,5.89-5.18,3.84-7.29S417,196.82,415.88,196.32Z"/><path class="cls-5" d="M383.59,196.19c-3.11.65.78,8.95,5.53,5.94S390.11,194.83,383.59,196.19Z"/><path class="cls-5" d="M393.67,210.54c.19,1.78,2.47.61,3.15,1.42s3.27,2.5,3.89-.71C401.69,206.17,393.33,207.29,393.67,210.54Z"/><path class="cls-5" d="M416.94,219.81c-.31-1.71,3.56-5.61,5.28-1.39S417.42,222.45,416.94,219.81Z"/><path class="cls-5" d="M420.09,230.7c2.35-.3,5.13,1,5.24,4s-4.87,0-4.87,0Z"/><path class="cls-5" d="M435.23,240.3c.09-3.67-5.77-3.79-6.73-1.44s1.27,6.94,5,5.18S435.19,241.87,435.23,240.3Z"/><path class="cls-5" d="M487.16,385.58c-.18,2,3.45,1.41,4.51,3.54s3.06,2.23,4.33-.88C497.77,383.9,487.6,380.71,487.16,385.58Z"/><path class="cls-5" d="M481.95,371.79c1.56,3.52,6.69-.51,5.21-3.27S479.91,367.19,481.95,371.79Z"/><path class="cls-5" d="M481.06,403.69c-2-3.18-.3-7.34,3.16-7.42s3.2,6.81,2.49,7.42S481.06,403.69,481.06,403.69Z"/><path class="cls-5" d="M471.16,395.56c-1.78-.84-3.47,2.39-1.38,3.27S474.17,397,471.16,395.56Z"/><path class="cls-5" d="M465.95,387.34c1.29,2.62,6.36-3.88,5.72-7.07C469.78,371,463.47,382.31,465.95,387.34Z"/><path class="cls-5" d="M416.26,292.17c3.86-1.12,5.45,5,1.54,5.25S411.69,293.49,416.26,292.17Z"/><path class="cls-5" d="M416.88,275.16c4.65.39,6.26-1,6.37-5.07s-3.74-6.32-3.74-6.32Z"/><path class="cls-5" d="M409.28,218c-3.12.79-3-4.43-.62-5.1S414.51,216.65,409.28,218Z"/><path class="cls-5" d="M399.92,221.7c0,3.84,8.49,5.68,11,1.71C413.79,218.75,399.92,219.48,399.92,221.7Z"/><path class="cls-5" d="M391.25,228.41c2.35-1.61,3.74,2.21,2.12,3S388.74,230.13,391.25,228.41Z"/><path class="cls-5" d="M386.14,220.64c3.49,0,.49-8-2-7.5-1.79.38-.74,2.72,0,4.55C384.69,219.11,385.18,220.63,386.14,220.64Z"/><path class="cls-5" d="M391.5,239.14c3.41-1,9.27.36,7,6.84S391.5,239.14,391.5,239.14Z"/><path class="cls-5" d="M457.77,319.14c1.33,3.81,7.41,1.16,5.56-2.65S456.19,314.59,457.77,319.14Z"/><path class="cls-5" d="M446,315.8c5.82-.16,11.06-6.83,4.23-9.74S446,315.8,446,315.8Z"/><path class="cls-5" d="M448.94,296.65c3.65,3.28,7.35,6,8.54,1.38s-4-6.93-4-6.93Z"/><path class="cls-5" d="M451.59,401.91c-.16-3.66,4.41-5.95,7.72-4.7s0,5.47,0,5.47Z"/><path class="cls-5" d="M451.93,389.4c.92,2.29,2.67-.63,3.16-1.9s4.5-4.55,0-5.16S451.08,387.29,451.93,389.4Z"/><path class="cls-5" d="M448.36,372.65c1.87-2.23,6.73-1.4,4.9,1.7S445.78,375.74,448.36,372.65Z"/><path class="cls-5" d="M468.82,364.92c2.1-.88,4.05,4.31,1,5.22S465.33,366.39,468.82,364.92Z"/><path class="cls-5" d="M462.33,357.2c1.17,2.49,7.37.63,6.74-3.52S460.65,353.61,462.33,357.2Z"/><path class="cls-5" d="M464.88,335.19c.49,2.28,5.18,3.09,4.56-.46S464.2,332,464.88,335.19Z"/><path class="cls-5" d="M450.24,333c2.95.33,2.46-2.32,3.94-2.74s3.81-2.38,1.17-3.42c-2.39-.94-5.88,1.6-5.88,1.6Z"/><path class="cls-5" d="M453.37,342.78c.76,1.33,3.6-.27,5.05.23a1.48,1.48,0,0,0,1.41-2.59C457.83,338.5,452.26,340.82,453.37,342.78Z"/><path class="cls-5" d="M441.17,351.45c5.15-1.08,8.24-4.36,6.43-9.65s-6.47,2.17-6.43,2.25S441.17,351.45,441.17,351.45Z"/><path class="cls-5" d="M447.14,362.72c-.18,1.22-2.67,2.94.27,4.39s6.2,1.15,5.54-1.8-2.76-7-4.83-5.85S447.29,361.68,447.14,362.72Z"/><path class="cls-5" d="M436,386.89c4.1-1.54,7,.44,7.48,4.18s-4,3.66-7.48,3S436,386.89,436,386.89Z"/><path class="cls-5" d="M398.82,391.21c-1.3-4.76,2.66-7.62,5.88-5.35s3.88,8.14,3.88,8.14Z"/><path class="cls-5" d="M400.3,368c1.54,2.29,1.41,4.77,3.27,5.73s3.08-3.34,3.69-4.69C408.73,365.78,396.35,362.08,400.3,368Z"/><path class="cls-5" d="M404.63,351c-.17,2.78,4,4.9,6.08,1.21S404.92,346.14,404.63,351Z"/><path class="cls-5" d="M396.05,339c3.24-.65,2.57,5.13,0,4.69S392.75,339.61,396.05,339Z"/><path class="cls-5" d="M396.86,329.36c1.68,3.68,7.26,2.79,7.11,0S393.78,322.63,396.86,329.36Z"/><path class="cls-5" d="M401.77,310.72c-5-.12-2.59,6,0,6.14S407.12,310.85,401.77,310.72Z"/><path class="cls-5" d="M412,310.69c-2.61-1.41-4.1,1.91-1.54,3.76S417.38,313.58,412,310.69Z"/><path class="cls-5" d="M382.31,355.89c-1.06,4.06,9.32-1.95,9.34-5.25C391.67,346.32,384.16,348.79,382.31,355.89Z"/><path class="cls-5" d="M383.23,363.62c.94,2.71,5.33-2.17,4.79-3.33S381.92,359.85,383.23,363.62Z"/><path class="cls-5" d="M389.1,372.8c4-.89,7.18,7.64.77,7.64S385.63,373.57,389.1,372.8Z"/><path class="cls-5" d="M366.48,366.85c8.65-3.23,15.29,5.4,4.63,13.13C360.78,387.46,366.48,366.85,366.48,366.85Z"/><path class="cls-5" d="M379.68,345.58c.87,3.11,5.41,4,6.6.66,1.26-3.58-2.32-5-5.09-3.13Z"/></g><path class="cls-6" d="M427.83,485.88l-3.48,27.56H413.59l2.15-27.56S421.07,475.92,427.83,485.88Z"/><path class="cls-6" d="M522,488l-.8,25.41H510.6L507.51,488C513.7,476.26,522,488,522,488Z"/><path class="cls-6" d="M497.62,154.44c3.72,16.15,9.59,30.14-6.66,38.61l-58.56-2.71s-15.61-8.91-9.79-25.86c4.45-13,19.2-14,27.39-11.49,12,3.65,18.19,2.81,21.39-.74C471.39,152.25,486.68,141.23,497.62,154.44Z"/><path class="cls-7" d="M578.1,513.44H536.42s-8.08-15.93-16.5-20.85S507.51,488,507.51,488s-1.45-12.86-3.28-28.76c-.36-3.13-.74-6.38-1.12-9.67-1.53-13.21-3.16-27.09-4.37-36.82-3.05-24.46-6.67-45.18-9.6-50.56-1.4-2.58-5.67-11.12-11.76-22.56-6.59-12.39-15.31-28.18-24.86-43.48-1.59,7.6-3.3,17.6-5,29-5.7,37.22-11.85,89.67-15.72,124.39l-.72,6.53c-2,18-3.21,29.75-3.21,29.75-15.12,7.92-17.39,11.36-21.51,15.53-9.36,9.43-12,12-12,12h-41c-3.52-2.13-4.68-7.77,6.7-11.6,14.23-4.78,20.26-9.37,25.11-15.14,7.71-9.2,11.32-16,13.83-30.57.34-2,.67-4.18,1-6.53.53-3.94,1-8.37,1.5-13.42,2.88-29.9,8.79-91.77,13.22-121.62l.06-.36c3.29-21.86,14.77-67,14.77-67l1.33-2.38q2.63-4.71,5-8.91l2.32-4.06,2.27-3.91c-.18-.71-.38-1.57-.61-2.54l.35-.73V186.23c1.88-.47,3.68-.83,5.42-1.11a56.8,56.8,0,0,1,26.38,2c4.84,1.42,6.38.46,6.6-.84l13.5,1.08c.15,3.11.67,4.16,7.35,4.23s16.51-.2,18.82,6.47,1.38,10.9-3,30.26l-23.75,9.1s1.54-6.94,2.86-12.93l-14.63,19-7.64,9.91s6.94,9.55,31.3,55.31c.93,1.75,1.91,3.63,2.92,5.62,8.34,16.43,18.52,39.68,19.2,51.18.9,15.29,6.59,71.2,7.36,79.68a30.74,30.74,0,0,0,.8,4.51,58.35,58.35,0,0,0,3.44,9.67,116.06,116.06,0,0,0,11.69,20c9.13,12.72,20.22,20.1,23.65,22.62C578.53,506.33,580,509.83,578.1,513.44Z"/><path class="cls-6" d="M498.37,320.75a49.19,49.19,0,0,1-22.2-10.2,48.91,48.91,0,0,0,1.19-6.34l20.74,6A37,37,0,0,1,498.37,320.75Z"/><polygon class="cls-3" points="487.27 253.3 478.58 298.17 502.51 306.93 506.51 257.58 487.27 253.3"/><g class="cls-8"><path class="cls-5" d="M500.5,236c.19-.06,7.21-2,7.21-2s1.49,5.58-2.14,6.1S500.5,236,500.5,236Z"/><path class="cls-5" d="M515.47,231.8c-2.24,1.24-2.89,7.8,3.86,6.76,0,0,2-9,1.5-9.2S515.47,231.8,515.47,231.8Z"/><path class="cls-5" d="M494.75,244.46c1.48-1.18,7.47.35,8.22,3.75s.7,4.89-2.47,3.53S493,245.82,494.75,244.46Z"/><path class="cls-5" d="M510.09,316.93c.7-2.19,6,4.45,4.9,6.15S509,320.42,510.09,316.93Z"/><path class="cls-5" d="M517.15,306.6c-1.34-2.78-5.39,5.62-3.48,6.93s5.23-.46,5.17-2.07S518.06,308.5,517.15,306.6Z"/><path class="cls-5" d="M501.65,289.76c1.8,2.63,6.74,2.06,7.22-.37.39-2-2.1-.56-3.95-1.73C502.91,286.38,500.29,287.76,501.65,289.76Z"/><path class="cls-5" d="M489.86,286.39c3-3.43,7.86,6,5.92,7.81s-2.27-2-4-3S488.34,288.15,489.86,286.39Z"/><path class="cls-5" d="M504.51,271.35c-1.52,2.46,3.07,6,5.65,4S507.78,266.05,504.51,271.35Z"/><path class="cls-5" d="M505.55,258.14c-3.1-.15-2.42,4.32,0,4.18S511,258.41,505.55,258.14Z"/><path class="cls-5" d="M484.24,248.15c1.32,1.12,3.33-.08,3.66,2.41s-3,4.63-5.17,2.74S481.1,245.49,484.24,248.15Z"/><path class="cls-5" d="M484.68,261.28a1.92,1.92,0,0,1,3.25,2C487.25,264.94,481.91,264.16,484.68,261.28Z"/><path class="cls-5" d="M486.85,273.7c1.21.32,1.19,2.62,2.42,3.07s4.78-5.5,2.15-8.24C489.67,266.7,482.49,272.54,486.85,273.7Z"/><path class="cls-5" d="M507,300.46c2.35.08,3.82-.07,3.89,1.31s-1.92,3.73-4.81,2.81-3-4.94-1.27-5.07S505.84,300.43,507,300.46Z"/><path class="cls-5" d="M478.3,289.33c3-1.66,6.4-2.15,6.75,1.38s-7.05,7.55-8.17,6.56S477.35,289.84,478.3,289.33Z"/><path class="cls-5" d="M450.18,215.28c2.55-2.62-5.76-3.47-5.74-.67S448.12,217.41,450.18,215.28Z"/><path class="cls-5" d="M436.46,202.56c-5.36,1-7.8-3.69-2.9-7.11S440.72,201.76,436.46,202.56Z"/><path class="cls-5" d="M434.76,188.61c-2.93-1.15-5.93-2.39-7.12-.85s4.15,4.5,6.43,3.36S436.88,189.45,434.76,188.61Z"/><path class="cls-5" d="M427.18,209.56c2.36-2.2,6.83.2,5.63,3.31S423,213.49,427.18,209.56Z"/><path class="cls-5" d="M431.73,224.19c2-2.89,7.67,3,7,5.48S427.58,230.22,431.73,224.19Z"/><path class="cls-5" d="M405.67,201.13c2.77-1.22,5.94,2.43,3,3.57S402.1,202.7,405.67,201.13Z"/><path class="cls-5" d="M415.88,196.32c-2-.86-3.92-.65-3.27,3.19s1.27,4.59,3.32,3.18,5.89-5.18,3.84-7.29S417,196.82,415.88,196.32Z"/><path class="cls-5" d="M383.59,196.19c-3.11.65.78,8.95,5.53,5.94S390.11,194.83,383.59,196.19Z"/><path class="cls-5" d="M393.67,210.54c.19,1.78,2.47.61,3.15,1.42s3.27,2.5,3.89-.71C401.69,206.17,393.33,207.29,393.67,210.54Z"/><path class="cls-5" d="M416.94,219.81c-.31-1.71,3.56-5.61,5.28-1.39S417.42,222.45,416.94,219.81Z"/><path class="cls-5" d="M420.09,230.7c2.35-.3,5.13,1,5.24,4s-4.87,0-4.87,0Z"/><path class="cls-5" d="M435.23,240.3c.09-3.67-5.77-3.79-6.73-1.44s1.27,6.94,5,5.18S435.19,241.87,435.23,240.3Z"/><path class="cls-5" d="M487.16,385.58c-.18,2,3.45,1.41,4.51,3.54s3.06,2.23,4.33-.88C497.77,383.9,487.6,380.71,487.16,385.58Z"/><path class="cls-5" d="M481.95,371.79c1.56,3.52,6.69-.51,5.21-3.27S479.91,367.19,481.95,371.79Z"/><path class="cls-5" d="M481.06,403.69c-2-3.18-.3-7.34,3.16-7.42s3.2,6.81,2.49,7.42S481.06,403.69,481.06,403.69Z"/><path class="cls-5" d="M471.16,395.56c-1.78-.84-3.47,2.39-1.38,3.27S474.17,397,471.16,395.56Z"/><path class="cls-5" d="M465.95,387.34c1.29,2.62,6.36-3.88,5.72-7.07C469.78,371,463.47,382.31,465.95,387.34Z"/><path class="cls-5" d="M416.26,292.17c3.86-1.12,5.45,5,1.54,5.25S411.69,293.49,416.26,292.17Z"/><path class="cls-5" d="M416.88,275.16c4.65.39,6.26-1,6.37-5.07s-3.74-6.32-3.74-6.32Z"/><path class="cls-5" d="M409.28,218c-3.12.79-3-4.43-.62-5.1S414.51,216.65,409.28,218Z"/><path class="cls-5" d="M399.92,221.7c0,3.84,8.49,5.68,11,1.71C413.79,218.75,399.92,219.48,399.92,221.7Z"/><path class="cls-5" d="M391.25,228.41c2.35-1.61,3.74,2.21,2.12,3S388.74,230.13,391.25,228.41Z"/><path class="cls-5" d="M386.14,220.64c3.49,0,.49-8-2-7.5-1.79.38-.74,2.72,0,4.55C384.69,219.11,385.18,220.63,386.14,220.64Z"/><path class="cls-5" d="M391.5,239.14c3.41-1,9.27.36,7,6.84S391.5,239.14,391.5,239.14Z"/><path class="cls-5" d="M457.77,319.14c1.33,3.81,7.41,1.16,5.56-2.65S456.19,314.59,457.77,319.14Z"/><path class="cls-5" d="M446,315.8c5.82-.16,11.06-6.83,4.23-9.74S446,315.8,446,315.8Z"/><path class="cls-5" d="M448.94,296.65c3.65,3.28,7.35,6,8.54,1.38s-4-6.93-4-6.93Z"/><path class="cls-5" d="M451.59,401.91c-.16-3.66,4.41-5.95,7.72-4.7s0,5.47,0,5.47Z"/><path class="cls-5" d="M451.93,389.4c.92,2.29,2.67-.63,3.16-1.9s4.5-4.55,0-5.16S451.08,387.29,451.93,389.4Z"/><path class="cls-5" d="M448.36,372.65c1.87-2.23,6.73-1.4,4.9,1.7S445.78,375.74,448.36,372.65Z"/><path class="cls-5" d="M468.82,364.92c2.1-.88,4.05,4.31,1,5.22S465.33,366.39,468.82,364.92Z"/><path class="cls-5" d="M462.33,357.2c1.17,2.49,7.37.63,6.74-3.52S460.65,353.61,462.33,357.2Z"/><path class="cls-5" d="M464.88,335.19c.49,2.28,5.18,3.09,4.56-.46S464.2,332,464.88,335.19Z"/><path class="cls-5" d="M450.24,333c2.95.33,2.46-2.32,3.94-2.74s3.81-2.38,1.17-3.42c-2.39-.94-5.88,1.6-5.88,1.6Z"/><path class="cls-5" d="M453.37,342.78c.76,1.33,3.6-.27,5.05.23a1.48,1.48,0,0,0,1.41-2.59C457.83,338.5,452.26,340.82,453.37,342.78Z"/><path class="cls-5" d="M441.17,351.45c5.15-1.08,8.24-4.36,6.43-9.65s-6.47,2.17-6.43,2.25S441.17,351.45,441.17,351.45Z"/><path class="cls-5" d="M447.14,362.72c-.18,1.22-2.67,2.94.27,4.39s6.2,1.15,5.54-1.8-2.76-7-4.83-5.85S447.29,361.68,447.14,362.72Z"/><path class="cls-5" d="M436,386.89c4.1-1.54,7,.44,7.48,4.18s-4,3.66-7.48,3S436,386.89,436,386.89Z"/><path class="cls-5" d="M398.82,391.21c-1.3-4.76,2.66-7.62,5.88-5.35s3.88,8.14,3.88,8.14Z"/><path class="cls-5" d="M400.3,368c1.54,2.29,1.41,4.77,3.27,5.73s3.08-3.34,3.69-4.69C408.73,365.78,396.35,362.08,400.3,368Z"/><path class="cls-5" d="M404.63,351c-.17,2.78,4,4.9,6.08,1.21S404.92,346.14,404.63,351Z"/><path class="cls-5" d="M396.05,339c3.24-.65,2.57,5.13,0,4.69S392.75,339.61,396.05,339Z"/><path class="cls-5" d="M396.86,329.36c1.68,3.68,7.26,2.79,7.11,0S393.78,322.63,396.86,329.36Z"/><path class="cls-5" d="M401.77,310.72c-5-.12-2.59,6,0,6.14S407.12,310.85,401.77,310.72Z"/><path class="cls-5" d="M412,310.69c-2.61-1.41-4.1,1.91-1.54,3.76S417.38,313.58,412,310.69Z"/><path class="cls-5" d="M382.31,355.89c-1.06,4.06,9.32-1.95,9.34-5.25C391.67,346.32,384.16,348.79,382.31,355.89Z"/><path class="cls-5" d="M383.23,363.62c.94,2.71,5.33-2.17,4.79-3.33S381.92,359.85,383.23,363.62Z"/><path class="cls-5" d="M389.1,372.8c4-.89,7.18,7.64.77,7.64S385.63,373.57,389.1,372.8Z"/><path class="cls-5" d="M366.48,366.85c8.65-3.23,15.29,5.4,4.63,13.13C360.78,387.46,366.48,366.85,366.48,366.85Z"/><path class="cls-5" d="M379.68,345.58c.87,3.11,5.41,4,6.6.66,1.26-3.58-2.32-5-5.09-3.13Z"/></g><path class="cls-9" d="M447.48,325.21c-.16,1.07-.33,2.15-.5,3.24-5.55,37-11.46,87.43-15.22,121.15l-.72,6.53H399c.34-2,.67-4.18,1-6.53.53-3.94,1-8.37,1.5-13.42,2.62-27.19,7.74-80.8,12-112.75.42-3.19.84-6.16,1.24-8.87l.06-.36C423.1,319.54,435.38,324.51,447.48,325.21Z"/><path class="cls-6" d="M447.48,325.21c-.16,1.07-.33,2.15-.5,3.24a144.28,144.28,0,0,1-33.56-5c.42-3.19.84-6.16,1.24-8.87l.06-.36C423.1,319.54,435.38,324.51,447.48,325.21Z"/><path class="cls-9" d="M537.13,459.27h-32.9c-.36-3.13-.74-6.38-1.12-9.67-1.53-13.21-3.16-27.09-4.37-36.82-3.05-24.46-6.67-45.18-9.6-50.56-.89-1.65-3-5.71-5.91-11.41-1.67-3.24-3.65-7-5.85-11.15a275.53,275.53,0,0,0,29-25.43c.57,1.12,1.15,2.27,1.73,3.45,8,16.1,16.84,37,17.47,47.73.9,15.29,6.59,71.2,7.36,79.68a30.74,30.74,0,0,0,.8,4.51A58.35,58.35,0,0,0,537.13,459.27Z"/><path class="cls-6" d="M508.06,317.68c-5.35,8.85-14.17,22.1-24.83,33.13-1.67-3.24-3.65-7-5.85-11.15a275.53,275.53,0,0,0,29-25.43C506.9,315.35,507.48,316.5,508.06,317.68Z"/><path class="cls-9" d="M498.37,320.75a86.15,86.15,0,0,1-2.64,12c-.69,3.26-.08,10.06-1.39,21.3-1.56,13.5-2.57,14.17-7,12.54-5.49-2-11.35-13.63-12.14-16.59s-.1-12.74-.1-12.74l-2.55,3.75c-2.15,3.16-3.49,4-4.41,2.08-.81-1.72,1.75-9.71,4.39-20,1.3-5.06,2.64-8.55,3.65-12.54a48.91,48.91,0,0,0,1.19-6.34l20.74,6A37,37,0,0,1,498.37,320.75Z"/><path class="cls-6" d="M490.91,367.55a.5.5,0,0,1-.23-.95c1.52-.78,2.29-5,3.16-12.56.74-6.33.87-11.29,1-14.91a40.78,40.78,0,0,1,.44-6.43c.13-.59.34-1.36.59-2.26a60.89,60.89,0,0,0,2-9.74,36.53,36.53,0,0,0-.26-10.45.5.5,0,0,1,1-.18,37.54,37.54,0,0,1,.27,10.73,62.56,62.56,0,0,1-2.07,9.89c-.25.88-.46,1.65-.57,2.2a40.48,40.48,0,0,0-.42,6.25c-.09,3.64-.22,8.63-1,15-1.09,9.44-1.92,12.43-3.7,13.34A.5.5,0,0,1,490.91,367.55Z"/><path class="cls-9" d="M515.27,228.27l-23.75,9.1s1.54-6.94,2.86-12.93c1.22-5.6,2-8.11,1.83-8.52a174.41,174.41,0,0,1-5.78-17.81c-3.88,5.13-9.31,9.22-12.07,8.76-2.36-.39-3.81-7-3.3-13.21-6.58,3.39-15.94,8.35-19.86,11.15-1.2.86-5.65,7.63-12.57,19.35l-2.19,3.75c-.18-.71-.38-1.57-.61-2.54l.35-.73V186.23c1.88-.47,3.68-.83,5.42-1.11a56.8,56.8,0,0,1,26.38,2c4.84,1.42,6.38.46,6.6-.84l13.5,1.08c.15,3.11.67,4.16,7.35,4.23s16.51-.2,18.82,6.47S519.63,208.91,515.27,228.27Z"/><path class="cls-10" d="M431.76,449.6c-2.4,21.56-3.93,36.28-3.93,36.28-15.12,7.92-17.39,11.36-21.51,15.53-9.36,9.43-12,12-12,12h-41c-3.52-2.13-4.68-7.77,6.7-11.6,14.23-4.78,20.26-9.37,25.11-15.14,8.78-10.47,12.24-17.78,14.81-37.1Z"/><path class="cls-10" d="M578.1,513.44H536.42s-8.08-15.93-16.5-20.85S507.51,488,507.51,488s-2.08-18.43-4.4-38.43h30.58c2,8.21,7.5,19,15.13,29.67,9.13,12.72,20.22,20.1,23.65,22.62C578.53,506.33,580,509.83,578.1,513.44Z"/><path class="cls-11" d="M516.61,233.53c-7,2.07-15.94,3.83-36.59,9.52l3.88-5c2.91-1.8,5.82-3.57,8.65-5.28C503,226.46,512.39,221,517.4,218.68a18,18,0,0,1,3.06-1.23C523.79,216.68,523.18,231.59,516.61,233.53Z"/><path class="cls-9" d="M494.92,164.27l-.14,1.27c-.13,1.1-.33,2.86-.57,4.93-.71,6-1.77,14.78-2.38,18.4-1,5.76-6.09,8.28-9.41,7.63s-4.79-3.49-4.23-7.79c.27-2,.89-5.38,1.47-8.4.68-3.44,1.3-6.43,1.3-6.43-4.12-.87-6.52-6.21-6.52-12.67,0-6.09,5.72-11.65,11.39-11,4.66.48,6.64,8,6.64,8,1.23-1.79,5-1.69,5.33,2A3.57,3.57,0,0,1,494.92,164.27Z"/><circle class="cls-11" cx="305.23" cy="271.26" r="63.99"/><path class="cls-6" d="M330.71,513.44,296.84,433.6a3.77,3.77,0,0,0,2.18-3.41v-7.06a3.77,3.77,0,0,0-2.52-3.55V274.93H294V419.57a3.77,3.77,0,0,0-2.52,3.55v7.06a3.77,3.77,0,0,0,2.18,3.41l-33.87,79.84h2.64L294,439v74.42h2.52V439l31.57,74.42Z"/><path class="cls-6" d="M695.43,513.44l-41.2-88.83h-.11v-4a3.78,3.78,0,0,0,2.26-3.46v-7.06a3.78,3.78,0,0,0-2.26-3.46V215.91h-3V406.6a3.78,3.78,0,0,0-2.26,3.46v7.06a3.78,3.78,0,0,0,2.26,3.46v4H651l-41.2,88.83h3.19l38.12-82.2v82.2h3v-82.2l38.12,82.2Z"/><path class="cls-6" d="M667.31,196.8h-18v-2.45h2.45V179.83h-8.4v14.52h2.45v2.45h-6.2v5.59h-2.11v-2H631.4a2.34,2.34,0,0,0-2.27-1.8H622.7a2.34,2.34,0,0,0-2.34,2.34v9.55a2.34,2.34,0,0,0,2.34,2.34h6.43a2.34,2.34,0,0,0,2.27-1.8h6.15v-2h2.11v7.77h6.15v2.07h15.69v-2.07h5.81Z"/><path class="cls-6" d="M208.34,513.44l-41.2-83H167v-3a3.78,3.78,0,0,0,2.26-3.46v-7.06a3.78,3.78,0,0,0-2.26-3.46V235.34h-3V413.42a3.78,3.78,0,0,0-2.26,3.46v7.06a3.78,3.78,0,0,0,2.26,3.46v3h-.11l-41.2,83h3.19L164,436.61v76.83h3V436.61l38.12,76.83Z"/><path class="cls-6" d="M123.82,511.62a.5.5,0,0,1-.1-1c19.25-3.79,30.21-15.13,29.3-30.35-.51-8.55-3.77-11.62-7.22-14.87-3-2.81-6.07-5.72-7-12.32-2.25-15.35,8.19-24.68,19.82-32.48,10.36-7,15.3-12.93,13.55-26.32-1.46-11.16-4.88-20.06-18.11-32.48-1.32-1.24-2.72-2.53-4.17-3.86-12.37-11.4-29.31-27-38.87-51.32-7.33-18.65-10-45.26.73-62.68,6-9.76,15.24-15.31,27.49-16.48a.51.51,0,0,1,.55.45.5.5,0,0,1-.45.55c-11.93,1.14-20.92,6.53-26.74,16-10.5,17.12-7.9,43.37-.66,61.79,9.48,24.1,26.32,39.62,38.62,51,1.45,1.34,2.85,2.63,4.17,3.87,13.44,12.63,16.93,21.69,18.41,33.08,1.81,13.91-3.29,20.1-14,27.28C146,430.24,137.7,439,139.75,452.94c.92,6.26,3.74,8.92,6.74,11.74,3.44,3.24,7,6.59,7.54,15.54.93,15.53-10.61,27.55-30.1,31.39Z"/><rect class="cls-6" x="137.59" y="218.58" width="22.9" height="17.38"/><polygon class="cls-6" points="155.92 203.1 155.92 211.17 155.92 240.63 155.92 248.7 181.03 296.33 181.03 240.63 181.03 211.17 181.03 155.47 155.92 203.1"/><rect class="cls-5" x="181.02" y="155.47" width="28.42" height="140.85"/><path class="cls-6" d="M293.13,432.18a.5.5,0,0,1-.23-.06c-3-1.58-4.82-3.84-5.25-6.54-.62-3.88,1.55-8.42,6.45-13.5a98.05,98.05,0,0,1,10.81-9.3c6.75-5.23,12.57-9.75,12.9-16.93.43-9.6-6.41-16.21-15.07-24.58A148.31,148.31,0,0,1,288.44,346c-13.87-17.71-13.1-40.82,2.14-65.08a.5.5,0,1,1,.85.53c-15,23.88-15.79,46.58-2.2,63.93a147.41,147.41,0,0,0,14.2,15.18c8.84,8.55,15.83,15.3,15.37,25.35-.35,7.64-6.34,12.29-13.28,17.68a95.84,95.84,0,0,0-10.7,9.2c-4.61,4.78-6.74,9.15-6.18,12.65.38,2.37,2,4.38,4.73,5.81a.5.5,0,0,1-.23.94Z"/><circle class="cls-6" cx="295.23" cy="276.86" r="13.94"/><path class="cls-11" d="M257.51,86.06c-1.56,0-2.82,2.42-2.82,5.41s1.26,5.41,2.82,5.41H606.94V86.06Z"/><path class="cls-3" d="M478.8,159.19l8-2s.19,4.45-3.46,5.15C480,163,478.8,159.19,478.8,159.19Z"/><path class="cls-3" d="M469.42,161.49l7.48-1.83s.18,4.14-3.22,4.8C470.57,165.06,469.42,161.49,469.42,161.49Z"/><path class="cls-6" d="M483.24,192.64c-.18,1-.88,1.76-1.55,1.76s-1.07-.79-.89-1.76.88-1.76,1.55-1.76S483.43,191.67,483.24,192.64Z"/><ellipse class="cls-6" cx="606.94" cy="91.47" rx="2.82" ry="5.41"/><path class="cls-10" d="M497.06,147.62c-3.15-3.75-5.21-1.93-7.95-2.15.55-1.12,1.3-3,.36-3.42-1.22-.55-1.8.79-2.73,2.65l-.23-.12c-5.1-3.2-9.38-3.07-13.68.69-4.73,4.13-1.43,7-1.43,7,7.83-1.44,16.71-1.63,26.23,2.19A5.67,5.67,0,0,0,497.06,147.62Z"/><path class="cls-6" d="M494.78,165.54c-.13,1.1-.33,2.86-.57,4.93-2.39,3.24-7.38,8.68-14.55,9.84.68-3.44,1.3-6.43,1.3-6.43,3.24,1,10-1.18,13.81-8.34Z"/><path class="cls-3" d="M476.34,161.05l-.13,0a.5.5,0,0,1-.35-.62,2.71,2.71,0,0,1,1.42-1.66,3,3,0,0,1,2.7.37.5.5,0,1,1-.48.88,2.14,2.14,0,0,0-1.83-.32,1.7,1.7,0,0,0-.84,1A.5.5,0,0,1,476.34,161.05Z"/><path class="cls-3" d="M484.3,158.91a.5.5,0,0,1-.14-1l4.82-1.44a.52.52,0,0,1,.31,0l3.35,1.17a.5.5,0,0,1-.33.94l-3.2-1.12-4.66,1.39Z"/><path class="cls-11" d="M442.63,224.16l-2.19,3.75c-.18-.71-.38-1.57-.61-2.54-2.35-10.14-7-32.63-6.7-36.4.46-6.42,5.91-7.72,9.06-6.88a4.69,4.69,0,0,1,3.41,3C442.7,189.29,442.07,209.26,442.63,224.16Z"/><path class="cls-11" d="M477.64,296c3.25-1.2,4.23,1.69,11.07,3s15.44-.94,16.48,3.5-.26,9.26-2.87,9.72-5.57,1.43-15.93-1.11c-5.62-1.38-11.41-3.05-12.54-6.45A7.08,7.08,0,0,1,477.64,296Z"/><path class="cls-6" d="M475.09,337.81h0a.5.5,0,0,1-.47-.53,41,41,0,0,1,1.21-8.06.5.5,0,0,1,1,.28,41,41,0,0,0-1.17,7.84A.5.5,0,0,1,475.09,337.81Z"/><path class="cls-6" d="M478.87,358.18a.5.5,0,0,1-.5-.46,145.07,145.07,0,0,1,0-20,.53.53,0,0,1,.54-.46.5.5,0,0,1,.46.54,143.64,143.64,0,0,0,0,19.8.5.5,0,0,1-.46.54Z"/><path class="cls-6" d="M483.3,364.18a.5.5,0,0,1-.49-.39c-.83-3.71.31-22.21.36-23a.47.47,0,0,1,.53-.47.5.5,0,0,1,.47.53c0,.19-1.18,19.15-.38,22.72a.5.5,0,0,1-.38.6Z"/><path class="cls-6" d="M489.14,367.68a.5.5,0,0,1-.45-.29c-1.77-3.82-1.2-18.18-1-23.58l0-.82a.49.49,0,0,1,.52-.48.5.5,0,0,1,.48.52l0,.82c-.19,4.83-.77,19.52.9,23.12a.5.5,0,0,1-.24.66A.49.49,0,0,1,489.14,367.68Z"/><path class="cls-9" d="M431.41,251S421,247.48,423,269.46l-5.8-6.49-6.28-7,6.92-23.35,4.18,5.67Z"/><path class="cls-6" d="M422,238.26c-.92,5.44-2.9,16.78-4.82,24.71l-6.28-7,6.92-23.35Z"/><path class="cls-11" d="M413,226.1c4-1.06,7.21,5.46,7.1,9.14s-7,23.42-8.79,27.45-8,3.44-9.12-4.65S406.68,227.79,413,226.1Z"/><path class="cls-6" d="M680,513.94H111.91a.5.5,0,0,1,0-1H680a.5.5,0,0,1,0,1Z"/><path class="cls-9" d="M428.28,246.55c4.2,2.69,11,7.29,11.05,8.44s-.63,2.83-2,2.47-9.66-4.15-9.66-4.15,5.16,8.18,8,10.06c1.19.77,2,5.87-2,12.16s-5.55,3.93-8.43,0-5.17-6.12-4.45-15S423.9,243.74,428.28,246.55Z"/><path class="cls-6" d="M436.58,268.71a.51.51,0,0,1-.18,0c-6-2.26-14-9.59-15.51-11a.5.5,0,0,1,.68-.73c1.52,1.42,9.38,8.63,15.18,10.83a.5.5,0,0,1-.18,1Z"/><path class="cls-6" d="M433.69,276.15a.5.5,0,0,1-.32-.12c-.86-.73-8.56-7.3-13-12.59a.48.48,0,0,1,0-.69.52.52,0,0,1,.72,0A128.74,128.74,0,0,0,434,275.27a.5.5,0,0,1-.32.88Z"/><path class="cls-6" d="M540.61,459.77h-8a.5.5,0,0,1,0-1h8a.5.5,0,0,1,0,1Z"/><path class="cls-6" d="M543,464.78h-8a.5.5,0,0,1,0-1h8a.5.5,0,0,1,0,1Z"/><path class="cls-6" d="M545.32,469.79h-8a.5.5,0,0,1,0-1h8a.5.5,0,0,1,0,1Z"/><path class="cls-6" d="M548.67,474.8h-8a.5.5,0,0,1,0-1h8a.5.5,0,0,1,0,1Z"/><path class="cls-6" d="M552,479.81h-8a.5.5,0,0,1,0-1h8a.5.5,0,1,1,0,1Z"/><path class="cls-6" d="M555.37,484.81h-8a.5.5,0,0,1,0-1h8a.5.5,0,0,1,0,1Z"/><path class="cls-6" d="M403,463.69H396a.5.5,0,0,1,0-1H403a.5.5,0,0,1,0,1Z"/><path class="cls-6" d="M401.11,469.06H394a.5.5,0,0,1,0-1h7.07a.5.5,0,0,1,0,1Z"/><path class="cls-6" d="M398.65,474.42h-7.07a.5.5,0,0,1,0-1h7.07a.5.5,0,0,1,0,1Z"/><path class="cls-6" d="M394.55,479.61h-7.07a.5.5,0,0,1,0-1h7.07a.5.5,0,0,1,0,1Z"/><path class="cls-6" d="M391,484.86H384a.5.5,0,0,1,0-1H391a.5.5,0,0,1,0,1Z"/><path class="cls-6" d="M386.93,490h-7.07a.5.5,0,0,1,0-1h7.07a.5.5,0,0,1,0,1Z"/><path class="cls-7" d="M483.5,197.1a6.1,6.1,0,0,1-1.17-.11c-3.54-.69-5.23-3.73-4.63-8.34,0-.26.08-.54.12-.83l.1-.68a.47.47,0,0,1,.5-.47.52.52,0,0,1,.5.53l-.11.77c0,.29-.08.57-.12.82-.53,4.08.83,6.65,3.83,7.23a7.14,7.14,0,0,0,5.17-1.31,8.87,8.87,0,0,0,3.65-5.91l.07-.41a.49.49,0,0,1,.56-.43.5.5,0,0,1,.43.56c0,.1,0,.2,0,.29l0,.15a9.87,9.87,0,0,1-4.06,6.57A8.56,8.56,0,0,1,483.5,197.1Z"/><path class="cls-7" d="M494.38,224.44l-14.63,19-7.64,9.91c-37.29-2-42.62-6.13-42.62-6.13l1.33-2.38q2.63-4.71,5-8.91l2.32-4.06,2.27-3.91c8.16-14,13.43-22.15,14.76-23.1,4.61-3.29,16.71-9.57,23-12.76a5,5,0,0,0,4.21,4.45,8,8,0,0,0,6.95-2.59,174.39,174.39,0,0,0,6.84,22C496.38,216.33,495.6,218.84,494.38,224.44Z"/><path class="cls-9" d="M479.75,243.39l-7.64,9.91c-37.29-2-42.62-6.13-42.62-6.13q3.36-6,6.36-11.29l2.32-4.06,1.12-1.93C448,233.08,464.4,238.94,479.75,243.39Z"/><path class="cls-6" d="M425.34,276a.5.5,0,0,1-.4-.21l-.7-.94c-2.53-3.38-4.52-6.06-3.85-14.37.39-4.78,1.54-13.06,4.92-14.74a3.13,3.13,0,0,1,3.23.35c5.1,3.27,11.2,7.45,11.28,8.83a3.34,3.34,0,0,1-1,2.64,1.73,1.73,0,0,1-1.6.34c-1.38-.37-9.4-4-9.74-4.18a.5.5,0,0,1,.42-.91c2.86,1.31,8.54,3.85,9.58,4.13a.74.74,0,0,0,.71-.15,2.38,2.38,0,0,0,.65-1.81c-.19-.66-4-3.65-10.82-8a2.18,2.18,0,0,0-2.25-.3c-2.12,1-3.75,6.25-4.37,13.92-.64,7.93,1.16,10.35,3.65,13.69l.7.95a.5.5,0,0,1-.4.79Z"/><path class="cls-6" d="M478.76,208.93c-.24,1.25-1.13,2.27-2,2.27s-1.39-1-1.15-2.27,1.13-2.27,2-2.27S479,207.67,478.76,208.93Z"/><path class="cls-6" d="M495.54,162.25a.5.5,0,0,1-.41-.79,1.1,1.1,0,0,0,.19-1.17.74.74,0,0,0-.61-.43h0a.77.77,0,0,0-.62.46.5.5,0,1,1-.87-.49,1.67,1.67,0,0,1,1.53-1,1.75,1.75,0,0,1,1.48,1,2.1,2.1,0,0,1-.27,2.2A.5.5,0,0,1,495.54,162.25Z"/><path class="cls-6" d="M479.34,165.39a2,2,0,0,1-1.55-.55c-.49-.55-.6-1.43-.4-3.14a.51.51,0,0,1,.55-.44.5.5,0,0,1,.44.55c-.1.83-.19,2,.15,2.36.08.09.26.22.8.22a.5.5,0,0,1,0,1Z"/><path class="cls-6" d="M482,168.42a.5.5,0,0,1-.1-1,1.94,1.94,0,0,0,1.57-1.89.5.5,0,0,1,1,0,2.92,2.92,0,0,1-2.37,2.87Z"/><path class="cls-6" d="M478.81,207.4a3.21,3.21,0,0,1-.53,0c-2.82-.47-4.22-7.62-3.72-13.74a21.5,21.5,0,0,1,1.29-6,.5.5,0,1,1,.93.37,20.84,20.84,0,0,0-1.23,5.76c-.54,6.48,1.14,12.39,2.88,12.67,2.48.41,7.77-3.51,11.59-8.57a23.87,23.87,0,0,0,3.79-6.94.5.5,0,1,1,1,.3,24.85,24.85,0,0,1-3.95,7.24C487.37,203,482.09,207.4,478.81,207.4Z"/><path class="cls-6" d="M485.27,191.33a9.81,9.81,0,0,1-2.16-.24,7.59,7.59,0,0,1-5.65-4.76.5.5,0,0,1,.94-.34,6.6,6.6,0,0,0,4.93,4.13,10.26,10.26,0,0,0,9.37-3,.5.5,0,1,1,.7.71A11.71,11.71,0,0,1,485.27,191.33Z"/></svg>