<?xml version="1.0" encoding="UTF-8"?><svg version="1.1" viewBox="0 0 800 800" xmlns="http://www.w3.org/2000/svg" xmlns:xlink="http://www.w3.org/1999/xlink"><defs><linearGradient id="a" x1="186.15" x2="343.812" gradientUnits="userSpaceOnUse" y1="131.894" y2="476.655"><stop offset="0%" stop-color="#475B80"></stop><stop offset="65.59%" stop-color="#2C3D51"></stop><stop offset="100%" stop-color="#21313E"></stop></linearGradient><linearGradient id="b" x1="117.997" x2="675.72" gradientUnits="userSpaceOnUse" y1="543.64" y2="543.64" xlink:href="#a"></linearGradient><linearGradient id="c" x1="450.108" x2="400.688" gradientUnits="userSpaceOnUse" y1="127.249" y2="851.751"><stop offset="0.045606%" stop-color="#FFF"></stop><stop offset="25.94%" stop-color="#F7F8FF"></stop><stop offset="65.51%" stop-color="#E2E6FF"></stop><stop offset="100%" stop-color="#CAD2FF"></stop></linearGradient></defs><rect width="800" height="800" fill="#FFF"></rect><path fill="url(#a)" d="M339.586 444.742l-86.318-48.849 -79.443-195.131c-.985-2.513-9.051-23.901-.77-41.936 4.137-8.948 15.653-14.888 21.617-18.941 8.281-5.66 24.562-19.082 36.773-28.161 -2.879 2.867-5.262 6.22-7.016 10.06 -8.347 17.961-.281 39.415.703 41.936l114.454 281.022Z"></path><path d="M675.717 591.048l-51.266 37.01 -213.942 71.942 -284.07-207.843 -1.142-1.426c-6.577-8.066-13.534-28.754 2.573-54.187 6.577-10.439 42.977-37.677 62.898-49.252 -4.476 3.04-8.389 7.118-11.533 12.053 -16.107 25.623-9.149 46.22-2.572 54.377l1.141 1.326 284.07 207.844 213.843-71.844Z" fill="url(#b)"></path><path fill="#8D99AF" d="M659.139 400.853c-34.688-85.792-61.764-162.9-103.302-162.859 -10.391.008-24.487 3.987-36.781 21.166 -9.431-11.955-22.584-22.015-40.123-22.015 -3.623 0-7.238.379-10.961 1.327 -12.004 2.85-21.153 9.779-26.398 20.119 -.762 1.516-1.432 2.941-1.903 4.457 -12.293-14.805-26.779-26.76-41.356-26.76 -3.334 0-6.577.569-9.72 1.706 -7.719 2.85-16.769 7.019-23.156 14.517l-64.42-130.109c-4.765-8.355-18.109-22.402-38.691-22.402 -5.336 0-10.772.857-16.389 2.752 -1.05.379-2.093.758-3.052 1.236h-.091c-4.385 1.895-8.199 4.556-11.342 7.687 -2.863 2.941-5.245 6.261-7.049 10.059 -8.289 18.035-.289 39.481.761 41.945l114.454 281.013 -86.335-48.783 -11.341-6.36c-2.764-1.706-15.156-8.824-29.443-8.824 -4.286 0-8.579.667-12.393 1.994 -.48.099-.86.189-1.241.379 -.571.189-1.141.478-1.712.758 -1.241.568-2.573 1.236-4.095 2.084 -.861.379-1.522.857-2.284 1.327 -4.475 3.04-8.388 7.118-11.532 12.053 -16.107 25.623-9.149 46.221-2.573 54.377l1.142 1.327 284.062 207.868 213.843-71.844v-.189l1.621-7.786c.67-3.798 17.82-93.199-18.2-182.22Z"></path><path d="M655.044 573.203l-189.066 63.489 -271.405-198.443c-1.241-2.471-4.765-11.575 4.575-26.381 3.334-5.223 7.628-7.687 13.344-7.687 8.579 0 16.959 5.314 17.058 5.314l133.506 75.453 13.535-11.865 -129.602-318.228c-1.522-3.798-4.674-15.753-1.141-23.349 1.431-3.131 3.905-5.224 7.818-6.55 3.052-1.047 6.006-1.516 8.669-1.516 11.814 0 17.919 10.158 18.201 10.537l99.968 201.961 17.248-8.165c-9.811-21.066-20.392-46.69-16.007-57.326 1.613-3.971 9.282-11.551 18.671-11.04 13.22.708 34.489 33.409 49.753 64.568l17.339-7.876c-3.623-8.634-11.623-33.689-4.856-46.88 2.093-4.177 5.526-6.739 10.862-7.975 1.812-.478 3.624-.667 5.435-.667 24.207 0 37.071 43.749 37.17 44.226l18.68-2.562v-14.031c0-7.876 2.639-15.827 8.422-21.199 3.937-3.658 8.132-5.487 12.541-5.487 2.002 0 4.012.363 5.948.956 7.76 2.365 13.824 8.362 17.381 15.629 9.307 18.983 31.991 66.604 58.241 131.568 28.474 70.616 20.665 143.497 17.712 163.526Z" fill="url(#c)"></path></svg>