<?xml version="1.0" encoding="UTF-8"?><svg version="1.1" viewBox="0 0 800 800" xmlns="http://www.w3.org/2000/svg" xmlns:xlink="http://www.w3.org/1999/xlink"><defs><linearGradient id="a" x1="400" x2="400" gradientUnits="userSpaceOnUse" y1="582.967" y2="140.066"><stop offset="0%" stop-color="#FFF"></stop><stop offset="100%" stop-color="#EDEEFF"></stop></linearGradient><linearGradient id="b" x1="299.185" x2="306.538" gradientUnits="userSpaceOnUse" y1="556.412" y2="472.255"><stop offset="0%" stop-color="#C2CCED"></stop><stop offset="5.12%" stop-color="#C4CEED"></stop><stop offset="100%" stop-color="#E4EBF0"></stop></linearGradient></defs><rect width="800" height="800" fill="#FFF"></rect><path fill="url(#a)" d="M795 326.62c0 0-169.464 254.792-187.162 262.859 -.46.209-1.379.368-2.629.497 0 0 0 0-.06-.019 -3 .129-8.089-.02-14.948-.588 -16.987-1.275-45.033-4.78-79.848-9.7 -157.326-22.169-453.901-74.235-505.353-95.647 0 0 209.668-12.996 311.923-124.159 102.304-111.083 110.983-149.863 110.983-149.863 0 0 71.799 93.714 367.094 116.62Z"></path><path d="M596.93 588.433c-.88.03-3.199.348-6.729.946 -16.987-1.275-45.033-4.78-79.848-9.7 -157.326-22.179-453.901-74.245-505.353-95.657 134.1 23.534 387.071-39.089 387.071-39.089 54.532 74.563 148.468 120.893 204.859 143.5Z" fill="url(#b)"></path></svg>