<?xml version="1.0" encoding="UTF-8"?><svg version="1.1" viewBox="0 0 800 800" xmlns="http://www.w3.org/2000/svg" xmlns:xlink="http://www.w3.org/1999/xlink"><defs><linearGradient id="a" x1="28.935" x2="563.137" gradientUnits="userSpaceOnUse" y1="268.104" y2="519.72"><stop offset="0%" stop-color="#FFF"></stop><stop offset="100%" stop-color="#EDEEFF"></stop></linearGradient><linearGradient id="b" x1="611.878" x2="744.704" gradientUnits="userSpaceOnUse" y1="249.193" y2="612.911"><stop offset="0%" stop-color="#E0E0E0"></stop><stop offset="100%" stop-color="#BBBBBD"></stop></linearGradient><linearGradient id="c" x1="622.458" x2="464.696" gradientUnits="userSpaceOnUse" y1="449.928" y2="400.846" xlink:href="#a"></linearGradient><linearGradient id="d" x1="715.709" x2="266.178" gradientUnits="userSpaceOnUse" y1="590.833" y2="664.963"><stop offset="0.121702%" stop-color="#C2D5E4"></stop><stop offset="100%" stop-color="#C0C0D3"></stop></linearGradient><linearGradient id="e" x1="22.8913" x2="293.648" gradientUnits="userSpaceOnUse" y1="592.933" y2="592.933" xlink:href="#d"></linearGradient><linearGradient id="f" x1="583.593" x2="765.427" gradientUnits="userSpaceOnUse" y1="191.298" y2="604.882"><stop offset="0.121702%" stop-color="#C2D5E4"></stop><stop offset="31.23%" stop-color="#A8BACF"></stop><stop offset="100%" stop-color="#7283A3"></stop></linearGradient><linearGradient id="g" x1="586.919" x2="768.843" gradientUnits="userSpaceOnUse" y1="195.69" y2="609.476" xlink:href="#f"></linearGradient><linearGradient id="h" x1="574.707" x2="756.542" gradientUnits="userSpaceOnUse" y1="182.198" y2="595.782" xlink:href="#f"></linearGradient><linearGradient id="i" x1="568.113" x2="749.948" gradientUnits="userSpaceOnUse" y1="176.619" y2="590.203" xlink:href="#f"></linearGradient><linearGradient id="j" x1="555.913" x2="737.747" gradientUnits="userSpaceOnUse" y1="167.417" y2="581.001" xlink:href="#f"></linearGradient><linearGradient id="k" x1="518.883" x2="410.484" gradientUnits="userSpaceOnUse" y1="528.411" y2="709.526" xlink:href="#f"></linearGradient><linearGradient id="l" x1="511.902" x2="406.493" gradientUnits="userSpaceOnUse" y1="523.163" y2="699.28" xlink:href="#f"></linearGradient><linearGradient id="m" x1="503.72" x2="400.52" gradientUnits="userSpaceOnUse" y1="517.498" y2="689.923" xlink:href="#f"></linearGradient><linearGradient id="n" x1="524.683" x2="412.968" gradientUnits="userSpaceOnUse" y1="532.993" y2="719.647" xlink:href="#f"></linearGradient><linearGradient id="o" x1="285.153" x2="501.2" gradientUnits="userSpaceOnUse" y1="439.602" y2="439.602"><stop offset="0%" stop-color="#475B80"></stop><stop offset="65.59%" stop-color="#2C3D51"></stop><stop offset="100%" stop-color="#21313E"></stop></linearGradient></defs><rect width="800" height="800" fill="#FFF"></rect><path fill="#D6E7FA" d="M479.18 207.79l-192.8 446.75 -281.22-96.98 204.62-453.68 4.24-1.58c.02.01.05.02.08.02 28.96 8.82 246.2 75.7 264.36 104.19 .28.44.52.86.72 1.28Z"></path><path d="M214.13 102.27l-.03.05 -102.31 230.32 -35.3901 79.66 -6.65 14.95 -11.81 26.6 -44.09 99.24 -8.7 4.47 46.56-103.23 13.94-30.95 1.47-3.27 42.1101-93.38 100.46-222.82 .1-.03 4.24-1.58 .1-.03Z" fill="#FFD6B8"></path><path fill="url(#a)" d="M291.22 644.24l-1.32-10.96c-7.5-13.12-252.97-94.63-252.97-94.63l-14.04 10.31 82.6299-188.64 2.96-6.75 .72-1.66 .01-.01 3.17-7.23 .65-1.48 18.37-41.95 8.9-20.31 81.63-186.36c0 0 168.08 47.25 257.97 107.9 12.79 8.64-188.68 441.77-188.68 441.77Z"></path><path d="M793.7 247.33l-161.81 430.88 -345.51-23.67 193.52-452.07 313.8 44.86Z" fill="#2A497C"></path><path fill="#D6E7FA" d="M790.38 240.66l-161.8 430.88 -339.84-24.36 191.16-444.71 310.48 38.19Z"></path><path d="M631.89 678.21l-3.31-6.67 -341.04-24.44 -1.16 7.44 345.51 23.67Z" fill="#EC5E0F"></path><path fill="#FFD6B8" d="M793.71 247.33l-31.12 82.87 -4.68 12.45 -6.27 16.68 -4.68 12.48 -12.85 34.23 -5.12 13.65 -5.11 13.59 -5.15 13.71 -.76 1.99 -4.76 12.72 -10.55 28.08 -4.77 12.71 -66 175.72 -3.32-6.67 65.56-174.53 4.77-12.71 10.44-27.82 1.95-5.19 2.83-7.55 2.26-6.03 5.28-14.05 5.09-13.56 17.38-46.24 4.7-12.53 6.12-16.3 4.72-12.57 30.72-81.8 3.32 6.67Z"></path><path d="M625.2 656.55l-337.66-9.44c0-.01 252.59 15.07 337.66 9.44Z" fill="#EC5E0F"></path><path fill="url(#b)" d="M777.31 248.73l-152.1 407.82 -7.03-10.33c0 0 0 0-.05 0l-6.36-5.53 -4.12-3.54 -22.75-19.75 -6.06-5.24 151.9-406.37 34.54 27.22 12.03 15.72Z"></path><path d="M730.71 205.78v.01l-13.32 35.6 -2.5 6.73h-.01l-12.76 34.16 -3.05 8.14 -120.24 321.73h-.01c0 0-.04-.01-.1-.01 -4.56-.35-140.57-11-229.51-6.98 -5.24.24-10.34.98-15.27 2.08 -9.12 2.03-17.62 5.22-25.16 8.52 -.28.11-.54.23-.82.35 -1.62.72-3.2 1.43-4.72 2.14 0 .01 0 .01 0 .01 -.16.07-.31.14-.47.21 -.35.16-.7.33-1.04.48 -.24.13-.47.23-.69.34 -.89.43-1.77.84-2.63 1.25 -1.62.79-3.18 1.55-4.66 2.25 -1.61.78-3.15 1.49-4.57 2.14 -.19.09-.39.18-.58.26l15.77-34.67c.04-.1.09-.21.15-.33l122.02-268.39 52.2-114.83 1.65-3.62 1.43-3.16c0 0 4.38-1.31 12.19-3.18 .23-.08.35-.09.35-.09 .06-.01.11-.03.18-.04 11.26-2.71 29.36-6.54 51.66-9.44 24.45-3.18 53.96-5.25 85-3.45 32.84 1.9 67.38 8.09 99.51 21.79Z" fill="url(#c)"></path><path fill="url(#d)" d="M625.21 656.55l-323.31-8.93 -13.15-.39h-.87c.29-.05.58-.05.87-.1 4.51-.39 8.98-.78 13.39-1.12 6.84-.58-17.52-1.12-10.93-1.6l11.17-.15 -11.11-.05h-.05l-.39-2.77 9.56-26.39c3.06-1.89 6.5-3.54 10.24-5.09 8.39-3.4 18.29-6.02 29.35-7.96 37.21-6.6 86.94-5.58 131.38-2.33 55.16 4.08 102.22 11.6 107.07 12.42 .24 0 .39.05.39.05l6.06 5.24 22.75 19.75 4.12 3.54 6.36 5.53c.05 0 .05 0 .05 0l7.05 10.35Z"></path><path d="M293.65 643.68l-5.78 3.54 -264.98-98.26 14.05-10.31c0 0 147.51 27.48 251.67 86.54l5.04 18.49Z" fill="url(#e)"></path><path fill="#EC5E0F" d="M5.15967 557.56l8.69003-4.46 274.89 94.08 -2.36 7.36 -281.22-96.98Z"></path><path d="M769.73 238.86l-151.57 407.37 .57.93 151.45-407.8 -.45-.5Z" fill="url(#f)"></path><path fill="url(#g)" d="M773.29 243.21l-151.81 407.98 .49.64 151.77-408.11 -.45-.51Z"></path><path d="M760.84 229.76l-151.57 407.37 .58.93 151.44-407.8 -.45-.5Z" fill="url(#h)"></path><path fill="url(#i)" d="M754.25 224.18l-151.57 407.37 .58.94 151.44-407.8 -.45-.51Z"></path><path d="M742.05 214.98l-151.57 407.37 .58.93 151.44-407.8 -.45-.5Z" fill="url(#j)"></path><path opacity=".50" fill="#58585F" d="M310.64 609.99c0 0-3.42 9.64-6.22 22.85 -.76 3.6-1.47 7.45-2.05 11.45 -.09.57-.16 1.13-.24 1.71 -.04.29-.08.57-.13.86 -.03.25-.05.49-.09.74l-13.15-.37c-.01-.03-.01-.04-.03-.05 0-.01 0-.01 0-.01l.01-.04 .38-1.02v-.01l1.7-4.67 9.56-26.37v-.01c3.09-1.85 6.52-3.54 10.26-5.06Z"></path><path opacity=".30" d="M494.37 196.92c0 0-5.1.68-10.18 13.42 -4.67 11.68-146.98 339.1-173.55 399.65 -3.74 1.52-7.17 3.21-10.24 5.07v.01c-1.6.96-3.11 1.96-4.51 3.02 5.35-11.64 78.29-177.32 130.65-296.29 28.9-65.61 51.51-117 53.1-120.51 1.4-3.12 5.89-4.56 9.78-4.42 1.29.04 3.2.05 4.95.05Z" fill="#757480"></path><path fill="url(#k)" d="M611.75 640.68l-4.09-3.55 -316.07 3.6 320.16-.05Z"></path><path d="M603.26 632.49l-.58-.94 -312.63.34 313.21.6Z" fill="url(#l)"></path><path fill="url(#m)" d="M590.48 622.35l-301.87 2.85 302.45-1.92 -.58-.93Z"></path><path d="M621.4 650.94l-329.93-3.73 327.26-.05 -.57-.93 -327.4.97 -2.02-.02 1.69.02 -2.56.01h3.07l331.04 4.67 -.58-.94Z" fill="url(#n)"></path><path fill="url(#o)" d="M501.06 195.34c0 0-9.39.74-14.47 13.47 -5.09 12.73-173.84 400.87-177.7 409.1 -11.8 25.09-4.8 66.06-4.8 66.06l-9.31-6.87 -6.84 4.78c0 0-8.33-39.86 3.91-63.16 2.24-4.27 179.5-407.35 184.02-417.42 1.4-3.12 5.94-3.82 9.78-4.42 7.13-1.12 16.83-1.96 15.41-1.54Z"></path><g fill="#CECCD8"><path d="M288.26 163.39c4.42 1.6 8.84 3.21 13.23 4.88 4.41 1.63 8.85 3.16 13.34 4.53 4.5 1.37 9.01 2.69 13.55 3.92 4.55 1.21 9.12 2.41 13.79 3.32l.17-.47c-4.18-2.27-8.45-4.31-12.78-6.19 -4.32-1.92-8.71-3.64-13.1-5.34 -8.8-3.39-17.94-5.76-26.95-8.47 -9.03-2.68-18.06-5.32-27.11-7.92 -9.08-2.51-18.14-5.05-27.26-7.41l-.15.48 26.64 9.32c8.9 3.08 17.78 6.2 26.63 9.35Z"></path><path d="M322.52 204.25c-16.69-6.46-33.53-12.61-50.69-17.77l-12.91-3.73c-4.33-1.16-8.66-2.28-13.01-3.34 -8.66-2.28-17.47-3.97-26.24-5.72l-.09.37c17.09 5.34 34.2 10.36 51.12 16.03 16.93 5.6 33.97 10.93 50.76 17 16.8 6.03 33.49 12.41 50.03 19.17 16.55 6.71 33 13.73 49.21 21.25l.17-.34c-16-7.99-32.26-15.47-48.64-22.65 -16.42-7.13-33-13.87-49.71-20.27Z"></path><path d="M309.37 231.25c-16.69-6.46-33.53-12.61-50.69-17.77l-12.91-3.73c-4.33-1.16-8.66-2.28-13.01-3.34 -8.66-2.28-17.47-3.97-26.24-5.72l-.09.37c17.09 5.34 34.2 10.36 51.12 16.03 16.93 5.6 33.97 10.93 50.76 17 16.8 6.03 33.49 12.41 50.03 19.17 16.55 6.71 33 13.73 49.21 21.25l.17-.34c-16-7.99-32.26-15.47-48.64-22.65 -16.42-7.12-32.99-13.87-49.71-20.27Z"></path><path d="M300 258.25c-16.69-6.46-33.53-12.61-50.69-17.77l-12.91-3.73c-4.33-1.16-8.66-2.28-13.01-3.34 -8.66-2.28-17.47-3.97-26.24-5.72l-.09.37c17.09 5.34 34.2 10.36 51.12 16.03 16.93 5.6 33.97 10.93 50.76 17 16.8 6.03 33.49 12.41 50.03 19.17 16.55 6.71 33 13.73 49.21 21.25l.17-.34c-16-7.99-32.26-15.47-48.64-22.65 -16.42-7.12-33-13.86-49.71-20.27Z"></path><path d="M289.37 287.78c-16.69-6.46-33.53-12.61-50.69-17.77l-12.91-3.73c-4.33-1.16-8.66-2.28-13.01-3.34 -8.66-2.28-17.47-3.97-26.24-5.72l-.09.37c17.09 5.34 34.2 10.36 51.12 16.03 16.93 5.6 33.97 10.93 50.76 17 16.8 6.03 33.49 12.41 50.03 19.17 16.55 6.71 33 13.73 49.21 21.25l.17-.34c-16-7.99-32.26-15.47-48.64-22.65 -16.42-7.13-33-13.87-49.71-20.27Z"></path><path d="M277.48 316.04c-16.69-6.46-33.53-12.61-50.69-17.77l-12.91-3.73c-4.33-1.16-8.66-2.28-13.01-3.34 -8.66-2.28-17.47-3.97-26.24-5.72l-.09.37c17.09 5.34 34.2 10.36 51.12 16.03 16.93 5.6 33.97 10.93 50.76 17 16.8 6.03 33.49 12.41 50.03 19.17 16.55 6.71 33 13.73 49.21 21.25l.17-.34c-16-7.99-32.26-15.47-48.64-22.65 -16.42-7.12-33-13.87-49.71-20.27Z"></path><path d="M259.91 342.54c-16.69-6.46-33.53-12.61-50.69-17.77l-12.91-3.73c-4.33-1.16-8.66-2.28-13.01-3.34 -8.66-2.28-17.47-3.97-26.24-5.72l-.09.37c17.09 5.34 34.2 10.36 51.12 16.03 16.93 5.6 33.97 10.93 50.76 17 16.8 6.03 33.49 12.41 50.03 19.17 16.55 6.71 33 13.73 49.21 21.25l.17-.34c-16-7.99-32.26-15.47-48.64-22.65 -16.42-7.12-33-13.87-49.71-20.27Z"></path><path d="M246.76 369.54c-16.69-6.46-33.53-12.61-50.69-17.77l-12.91-3.73c-4.33-1.16-8.66-2.28-13.01-3.34 -8.66-2.28-17.47-3.97-26.24-5.72l-.09.37c17.09 5.34 34.2 10.36 51.12 16.03 16.93 5.6 33.97 10.93 50.76 17 16.8 6.03 33.49 12.41 50.03 19.17 16.55 6.71 33 13.73 49.21 21.25l.17-.34c-16-7.99-32.26-15.47-48.64-22.65 -16.42-7.12-32.99-13.86-49.71-20.27Z"></path><path d="M237.39 396.55c-16.69-6.46-33.53-12.61-50.69-17.77l-12.91-3.73c-4.33-1.16-8.66-2.28-13.01-3.34 -8.66-2.28-17.47-3.97-26.24-5.72l-.09.37c17.09 5.34 34.2 10.36 51.12 16.03 16.93 5.6 33.97 10.93 50.76 17 16.8 6.03 33.49 12.41 50.03 19.17 16.55 6.71 33 13.73 49.21 21.25l.17-.34c-16-7.99-32.26-15.47-48.64-22.65 -16.42-7.12-33-13.87-49.71-20.27Z"></path><path d="M226.76 426.07c-16.69-6.46-33.53-12.61-50.69-17.77l-12.91-3.73c-4.33-1.16-8.66-2.28-13.01-3.34 -8.66-2.28-17.47-3.97-26.24-5.72l-.09.37c17.09 5.34 34.2 10.36 51.12 16.03 16.93 5.6 33.97 10.93 50.76 17 16.8 6.03 33.49 12.41 50.03 19.17 16.55 6.71 33 13.73 49.21 21.25l.17-.34c-16-7.99-32.26-15.47-48.64-22.65 -16.42-7.12-33-13.87-49.71-20.27Z"></path><path d="M214.87 454.33c-16.69-6.46-33.53-12.61-50.69-17.77l-12.91-3.73c-4.33-1.16-8.66-2.28-13.01-3.34 -8.66-2.28-17.47-3.97-26.24-5.72l-.09.37c17.09 5.34 34.2 10.36 51.12 16.03 16.93 5.6 33.97 10.93 50.76 17 16.8 6.03 33.49 12.41 50.03 19.17 16.55 6.71 33 13.73 49.21 21.25l.17-.34c-16-7.99-32.26-15.47-48.64-22.65 -16.42-7.12-33-13.87-49.71-20.27Z"></path><path d="M200.05 479.33c-16.69-6.46-33.53-12.61-50.69-17.77l-12.91-3.73c-4.33-1.16-8.66-2.28-13.01-3.34 -8.66-2.28-17.47-3.97-26.2401-5.72l-.09.37c17.0901 5.34 34.2001 10.36 51.1201 16.03 16.93 5.6 33.97 10.93 50.76 17 16.8 6.03 33.49 12.41 50.03 19.17 16.55 6.71 33 13.73 49.21 21.25l.17-.34c-16-7.99-32.26-15.47-48.64-22.65 -16.42-7.12-33-13.87-49.71-20.27Z"></path><path d="M189.42 508.85c-16.69-6.46-33.53-12.61-50.69-17.77l-12.91-3.73c-4.33-1.16-8.66-2.28-13.01-3.34 -8.66-2.28-17.47-3.97-26.24-5.72l-.09.37c17.09 5.34 34.2 10.36 51.12 16.03 16.93 5.6 33.97 10.93 50.76 17 16.8 6.03 33.49 12.41 50.03 19.17 16.55 6.71 33 13.73 49.21 21.25l.17-.34c-16-7.99-32.26-15.47-48.64-22.65 -16.42-7.12-33-13.86-49.71-20.27Z"></path><path d="M177.53 537.11c-16.69-6.46-33.53-12.61-50.69-17.77l-12.91-3.73c-4.33-1.16-8.66-2.28-13.01-3.34 -8.6602-2.28-17.4702-3.97-26.2402-5.72l-.09.37c17.09 5.34 34.2002 10.36 51.1202 16.03 16.93 5.6 33.97 10.93 50.76 17 16.8 6.03 33.49 12.41 50.03 19.17 16.55 6.71 33 13.73 49.21 21.25l.17-.34c-16-7.99-32.26-15.47-48.64-22.65 -16.42-7.12-33-13.86-49.71-20.27Z"></path><path d="M678.5 226.55l-11.85-2.27c-7.91-1.46-15.88-2.52-23.84-3.71 -7.97-1.07-15.99-1.78-24-2.53 -4.01-.33-8.03-.51-12.05-.77l-6.02-.36c-2.01-.13-4.01-.24-6.03-.28l-12.06-.41 -3.01-.1 -3.02-.01 -6.04-.02 -6.03-.02c-2.01.03-4.02.11-6.03.17 -4.02.14-8.05.18-12.06.5 -4.02.29-8.03.5-12.03 1l-6 .65 -5.97.89c-1.99.26-3.97.66-5.95 1.05l-2.96.57c-.98.21-1.96.47-2.94.7 -.98.24-1.96.46-2.93.72l-2.9.85c-1.93.59-3.83 1.25-5.68 2.1l.17.34c1.82-.77 3.74-1.37 5.67-1.89l2.9-.75c.97-.23 1.96-.41 2.94-.62 .98-.2 1.96-.42 2.94-.6l2.96-.48c1.98-.32 3.95-.66 5.94-.85l5.96-.7 5.99-.46c3.98-.37 7.99-.45 11.99-.62 3.99-.23 8-.17 12-.22 2-.01 4-.04 6-.02l6 .16 6 .16 3 .08 3 .17 11.99.69c2 .1 3.99.27 5.99.46l5.98.54c3.99.38 7.98.67 11.96 1.12l11.94 1.32c3.98.41 7.98.71 11.95 1.24l11.95 1.31c3.99.43 7.98.77 11.96 1.25l11.96 1.36c4 .38 7.99.83 12 1.15l.06-.37c-3.92-.9-7.87-1.66-11.8-2.49Z"></path><path d="M654.55 248.56c-7.91-1.46-15.88-2.52-23.84-3.7 -7.97-1.07-15.99-1.78-24-2.53 -4.01-.33-8.03-.51-12.05-.77l-6.02-.36c-2.01-.13-4.01-.24-6.03-.28l-12.06-.41 -3.01-.1 -3.02-.01 -6.04-.02 -6.03-.02c-2.01.03-4.02.11-6.03.17 -4.02.14-8.05.18-12.06.5 -4.02.29-8.03.5-12.03 1l-6 .65 -5.97.89c-1.99.26-3.97.66-5.95 1.05l-2.96.57c-.98.21-1.96.47-2.94.7 -.98.24-1.96.46-2.93.72l-2.9.85c-1.93.59-3.83 1.25-5.68 2.09l.17.34c1.82-.77 3.74-1.37 5.67-1.89l2.9-.75c.97-.23 1.96-.41 2.94-.62 .98-.2 1.96-.42 2.94-.6l2.96-.48c1.98-.32 3.95-.66 5.94-.85l5.96-.7 5.99-.46c3.98-.37 7.99-.45 11.99-.62 3.99-.23 8-.17 12-.22 2-.01 4-.04 6-.02l6 .16 6 .16 3 .08 3 .17 11.99.69c2 .1 3.99.27 5.99.46l5.98.54c3.99.38 7.98.67 11.96 1.12l11.94 1.32c3.98.41 7.98.71 11.95 1.24l11.95 1.31c3.99.43 7.98.77 11.96 1.25l11.96 1.36c4 .38 7.99.83 12 1.15l.06-.37c-3.92-.89-7.87-1.65-11.8-2.48l-11.85-2.28Z"></path><path d="M642.44 272.83c-7.91-1.46-15.88-2.52-23.84-3.7 -7.97-1.07-15.99-1.78-24-2.53 -4.01-.33-8.03-.51-12.05-.77l-6.02-.36c-2.01-.13-4.01-.24-6.03-.28l-12.06-.41 -3.01-.1 -3.02-.01 -6.04-.02 -6.03-.02c-2.01.03-4.02.11-6.03.17 -4.02.14-8.05.18-12.06.5 -4.02.29-8.03.5-12.03 1l-6 .65 -5.97.89c-1.99.26-3.97.66-5.95 1.05l-2.96.57c-.98.21-1.96.47-2.94.7 -.98.24-1.96.46-2.93.72l-2.9.85c-1.93.59-3.83 1.25-5.68 2.09l.17.34c1.82-.77 3.74-1.37 5.67-1.89l2.9-.75c.97-.23 1.96-.41 2.94-.62 .98-.2 1.96-.42 2.94-.6l2.96-.48c1.97-.32 3.95-.66 5.94-.85l5.96-.7 5.99-.46c3.98-.37 7.99-.45 11.99-.62 3.99-.23 8-.17 12-.22 2-.01 4-.04 6-.02l6 .16 6 .16 3 .08 3 .17 11.99.69c2 .1 3.99.27 5.99.46l5.98.54c3.99.38 7.98.67 11.96 1.12l11.94 1.32c3.98.41 7.98.71 11.95 1.24l11.95 1.31c3.98.43 7.98.77 11.96 1.25l11.96 1.36c4 .38 7.99.83 12 1.15l.06-.37c-3.92-.89-7.87-1.65-11.8-2.48l-11.85-2.28Z"></path><path d="M630.34 297.11c-7.91-1.46-15.88-2.52-23.84-3.71 -7.97-1.07-15.99-1.78-24-2.53 -4.01-.33-8.03-.51-12.05-.77l-6.02-.36c-2.01-.13-4.01-.24-6.03-.28l-12.06-.41 -3.01-.1 -3.02-.01 -6.04-.02 -6.03-.02c-2.01.03-4.02.11-6.03.17 -4.02.14-8.05.18-12.06.5 -4.02.29-8.03.5-12.03 1l-6 .65 -5.97.89c-1.99.26-3.97.66-5.95 1.05l-2.96.57c-.98.21-1.96.47-2.94.7 -.98.24-1.96.46-2.93.72l-2.9.85c-1.93.59-3.83 1.25-5.68 2.09l.17.34c1.82-.77 3.74-1.37 5.67-1.89l2.9-.75c.97-.23 1.96-.41 2.94-.62 .98-.2 1.96-.42 2.94-.6l2.96-.48c1.97-.32 3.95-.66 5.94-.85l5.96-.7 5.99-.46c3.98-.37 7.99-.45 11.99-.62 3.99-.23 8-.17 12-.22 2-.01 4-.04 6-.02l6 .16 6 .16 3 .08 3 .17 11.99.69c2 .1 3.99.27 5.99.46l5.98.54c3.99.38 7.98.67 11.96 1.12l11.94 1.32c3.98.41 7.98.71 11.95 1.24l11.95 1.31c3.99.43 7.98.77 11.96 1.25l11.96 1.36c4 .38 7.99.83 12 1.15l.06-.37c-3.92-.89-7.87-1.65-11.8-2.48l-11.85-2.27Z"></path><path d="M618.24 321.38c-7.91-1.46-15.88-2.52-23.84-3.71 -7.97-1.07-15.99-1.78-24-2.53 -4.01-.33-8.03-.51-12.05-.77l-6.02-.36c-2.01-.13-4.01-.24-6.03-.28l-12.06-.41 -3.01-.1 -3.02-.01 -6.04-.02 -6.03-.02c-2.01.03-4.02.11-6.03.17 -4.02.14-8.05.18-12.06.5 -4.02.29-8.03.5-12.03 1l-6 .65 -5.97.89c-1.99.26-3.97.66-5.95 1.05l-2.96.57c-.98.21-1.96.47-2.94.7 -.98.24-1.96.46-2.93.72l-2.9.85c-1.93.59-3.83 1.25-5.68 2.1l.17.34c1.82-.77 3.74-1.37 5.67-1.89l2.9-.75c.97-.23 1.96-.41 2.94-.62 .98-.2 1.96-.42 2.94-.6l2.96-.48c1.98-.32 3.95-.66 5.94-.85l5.96-.7 5.99-.46c3.98-.37 7.99-.45 11.99-.62 3.99-.23 8-.17 12-.22 2-.01 4-.04 6-.02l6 .16 6 .16 3 .08 3 .17 11.99.69c2 .1 3.99.27 5.99.46l5.98.54c3.99.38 7.98.67 11.96 1.12l11.94 1.31c3.98.41 7.98.71 11.95 1.24l11.95 1.31c3.99.43 7.98.77 11.96 1.25l11.96 1.36c4 .38 7.99.83 12 1.15l.06-.37c-3.92-.89-7.87-1.65-11.8-2.48l-11.85-2.27Z"></path><path d="M520.2 345.93h-3.02l-6.04-.03 -6.03-.01c-2.01.03-4.03.11-6.04.16 -4.01.14-8.04.18-12.06.5 -4.01.29-8.03.5-12.03.99l-6 .65 -5.98.91c-1.99.25-3.96.65-5.94 1.04l-2.97.57c-.98.21-1.95.47-2.93.7 -.98.24-1.96.45-2.93.72l-2.91.84c-1.93.59-3.83 1.26-5.68 2.1l.18.34c1.81-.77 3.74-1.37 5.66-1.89l2.91-.76c.97-.23 1.95-.42 2.93-.63 .98-.2 1.95-.42 2.94-.59l2.96-.48c1.98-.33 3.95-.65 5.94-.86l5.97-.7 5.98-.45c3.99-.38 7.99-.45 11.99-.62 4-.24 8-.18 12.01-.21 2-.01 4-.05 6-.02l6 .15 6 .16 2.99.07 3.01.18 9.69.55 .91-2.93 -10.51-.36 -3-.09Z"></path><path d="M508.57 378.75l-3.01-.1 -3.02-.01 -6.04-.01 -6.03-.01c-2.01.03-4.03.11-6.04.16 -4.01.14-8.04.18-12.06.5 -4.01.29-8.04.5-12.03.99l-6 .65 -5.98.88c-1.99.26-3.96.67-5.94 1.06l-2.97.57c-.98.21-1.95.47-2.93.69 -.98.25-1.96.47-2.93.73l-2.91.84c-1.93.59-3.83 1.25-5.68 2.1l.18.33c1.81-.76 3.74-1.36 5.66-1.89l2.91-.76c.97-.23 1.95-.4 2.93-.62 .98-.2 1.95-.42 2.93-.6l2.97-.48c1.98-.31 3.95-.65 5.94-.84l5.97-.7 5.98-.45c3.99-.38 7.99-.45 11.99-.62 3.99-.24 8-.18 12.01-.23 2 0 4-.04 6-.03l12.01.33 3 .08 3.01.18 11.98.68c.73.04 1.46.09 2.19.14l.94-3.05c-.99-.05-1.98-.09-2.96-.1l-12.07-.41Z"></path></g></svg>