<?xml version="1.0" encoding="UTF-8"?><svg version="1.1" viewBox="0 0 800 800" xmlns="http://www.w3.org/2000/svg" xmlns:xlink="http://www.w3.org/1999/xlink"><defs><linearGradient id="a" x1="384.777" x2="344.034" gradientUnits="userSpaceOnUse" y1="354.808" y2="395.571"><stop offset="0%" stop-color="#475B80"></stop><stop offset="65.59%" stop-color="#2C3D51"></stop><stop offset="100%" stop-color="#21313E"></stop></linearGradient><linearGradient id="b" x1="730.409" x2="688.949" gradientUnits="userSpaceOnUse" y1="717.769" y2="774.183"><stop offset="0%" stop-color="#7C879C"></stop><stop offset="32.23%" stop-color="#9FAABA"></stop><stop offset="77.26%" stop-color="#D5E0E8"></stop><stop offset="100%" stop-color="#8391A5"></stop></linearGradient></defs><rect width="800" height="800" fill="#FFF"></rect><path fill="url(#a)" d="M708.913 680.576c-37.315 17.249-44.064 58.132-44.064 58.132l-411.698-434.342 -9.078-9.554 -199.19-210.12c-8.7787-9.2539-11.9382-22.4351-8.3588-34.677 .9599-3.2778 2.1497-6.6256 3.6395-9.9034 1.6697-3.6376 3.6394-7.0454 6.149-10.2033 4.2394-5.3664 9.3786-10.0233 14.5679-13.8408 .0599-.0599.1799-.1199.2999-.2398 10.9284-8.23456 26.446-6.50571 35.7046 3.5176l202.709 219.015 9.439 10.143 399.88 432.073Z"></path><g fill="#97A5B7"><path d="M55.5913 10.1513l5.2692 5.9361c-5.1792 3.7975-10.2985 8.4244-14.5278 13.8108 -2.5097 3.1879-4.4794 6.6056-6.1391 10.2032l-5.8591-7.5649c-1.8398-2.3485-1.7498-5.5663.1-7.8448l11.4982-14.3205c2.4797-3.07799 7.1389-3.16793 9.6586-.2199Z"></path><path d="M309.043 248.503c-34.035 4.957-50.092 39.384-55.892 55.863l-9.078-9.554c7.579-18.557 24.246-48.098 55.531-56.452l9.439 10.143Z"></path><path d="M99.0347 21.6239l2.3493-1.7889c7.249-5.5463 17.548-4.5469 23.607 2.2785l173.004 194.88c0 2.84217e-14-1.45 3.728-4.92 3.018 -3.469-.709-30.555-21.815-30.555-21.815l-163.485-176.573Z"></path></g><path fill="url(#b)" d="M757.686 762.452l-1.61 1.429 -17.317 15.28 -2.57 2.268 -71.349-42.731c0 0 6.749-40.883 44.063-58.132l48.783 81.886Z"></path><path d="M765.295 790.224c-3.52 3.728-23.897-7.015-27.626-10.113l18.907-16.689c2.42 4.937 12.088 23.234 8.719 26.802Z" fill="#2B3A51"></path><path opacity=".10" fill="#FFF" d="M697.32 721.54l-612.11-667.22c-4.26-4.65-3.95-11.87.7-16.13 4.65-4.26 11.87-3.95 16.13.7l612.11 667.21c4.26 4.65 3.95 11.87-.7 16.13 -4.65 4.27-11.87 3.96-16.13-.69Z"></path></svg>