<svg width="24" height="24" viewBox="0 0 24 24" fill="none" xmlns="http://www.w3.org/2000/svg">
<path opacity="0.2" d="M12 24C18.6274 24 24 18.6274 24 12C24 5.37258 18.6274 0 12 0C5.37258 0 0 5.37258 0 12C0 18.6274 5.37258 24 12 24Z" fill="white"/>
<path fill-rule="evenodd" clip-rule="evenodd" d="M9.73283 8.67021C9.28802 9.43216 8.8432 10.1941 8.39808 10.9559C8.25891 11.1968 8.11799 11.4367 7.97707 11.6766C7.74672 12.0688 7.51637 12.4609 7.29363 12.8573L7.28684 12.8601C7.02929 13.3026 6.77091 13.7447 6.51253 14.1868C6.19454 14.7309 5.87653 15.275 5.56006 15.8199C6.09265 15.3461 6.71912 14.9802 7.39696 14.7785C8.23216 14.524 9.13408 14.5073 9.97725 14.7312C10.7933 14.9444 11.552 15.3834 12.1531 15.9889C12.9924 16.9008 14.1842 17.4541 15.4038 17.5115C16.5337 17.5761 17.6632 17.1829 18.5701 16.4985C18.4661 16.4173 18.3543 16.348 18.2426 16.2787C18.1496 16.221 18.0565 16.1634 17.9679 16.0987C18.0612 16.1011 18.1539 16.0887 18.2439 16.0635C18.2008 16.0628 18.1577 16.0627 18.1145 16.0626C17.9558 16.0622 17.7968 16.0617 17.6402 16.0317C17.1823 15.9504 16.7672 15.7062 16.4126 15.4052C15.909 14.983 15.5092 14.4503 15.1284 13.9133C15.0847 13.9157 15.0383 13.9167 15.0014 13.8884C14.216 13.3826 13.4298 12.8779 12.6436 12.3732C12.0969 12.0222 11.5502 11.6713 11.0038 11.3199C10.9787 11.3034 10.9528 11.2878 10.9269 11.2722C10.8651 11.2349 10.8032 11.1976 10.7513 11.1467C10.7277 11.1074 10.7485 11.0654 10.7673 11.0274C10.7717 11.0184 10.7761 11.0096 10.7797 11.0011C11.0803 10.4681 11.3869 9.93838 11.6933 9.40882C11.8134 9.20144 11.9334 8.99408 12.053 8.78656C12.0751 8.72195 12.1271 8.78808 12.1419 8.81872C12.6024 9.6208 13.0659 10.4217 13.5336 11.2198C13.5649 11.112 13.6385 11.031 13.7115 10.9506C13.7353 10.9244 13.759 10.8982 13.7812 10.8712C13.9621 10.6535 14.1451 10.4377 14.328 10.2218C14.5295 9.98407 14.731 9.74635 14.9297 9.50613C14.5294 8.8194 14.1286 8.1329 13.7278 7.44634C13.481 7.0235 13.2342 6.60063 12.9874 6.17768C12.6883 5.6647 12.3893 5.15172 12.0881 4.63965C11.3019 5.98242 10.5174 7.32631 9.73283 8.67021Z" fill="white"/>
<path fill-rule="evenodd" clip-rule="evenodd" d="M12.0529 8.78614C12.0751 8.72153 12.127 8.78766 12.1418 8.8183C12.6024 9.62038 13.0659 10.4212 13.5335 11.2194C13.9834 11.9769 14.4151 12.7462 14.8611 13.5064C14.9462 13.6447 15.0339 13.7812 15.1283 13.9129C15.0846 13.9153 15.0383 13.9162 15.0014 13.888C13.6699 13.0304 12.3361 12.1762 11.0037 11.3195C10.9187 11.2634 10.8248 11.2185 10.7513 11.1463C10.7221 11.0977 10.7607 11.0449 10.7796 11.0007C11.198 10.2589 11.6278 9.52361 12.0529 8.78614Z" fill="white" fill-opacity="0.2"/>
<path fill-rule="evenodd" clip-rule="evenodd" d="M18.2438 16.0635C18.635 16.0144 19.0052 15.8739 19.3754 15.7432C19.1357 16.025 18.8638 16.2777 18.57 16.4985C18.3793 16.3496 18.1629 16.241 17.9678 16.0987C18.0611 16.1011 18.1538 16.0887 18.2438 16.0635Z" fill="white"/>
<path fill-rule="evenodd" clip-rule="evenodd" d="M13.7811 10.871C14.1611 10.4135 14.5505 9.96423 14.9296 9.50586C15.4111 10.3322 15.8956 11.1567 16.3753 11.9843C16.6463 12.4418 16.9026 12.9086 17.1966 13.3512C17.5518 13.8894 17.9341 14.4106 18.3669 14.8862C18.668 15.2111 18.9928 15.5215 19.3754 15.7429C19.0052 15.8737 18.635 16.0141 18.2438 16.0633C18.0425 16.0599 17.8393 16.0696 17.6401 16.0314C17.1822 15.9501 16.7671 15.7059 16.4125 15.405C15.9088 14.9827 15.5091 14.45 15.1283 13.9131C15.0338 13.7814 14.9461 13.6449 14.8611 13.5066C14.415 12.7463 13.9834 11.977 13.5334 11.2195C13.5751 11.0767 13.6908 10.9808 13.7811 10.871Z" fill="white"/>
</svg>
