<svg width="24" height="24" viewBox="0 0 24 24" fill="none" xmlns="http://www.w3.org/2000/svg">
<path opacity="0.2" fill-rule="evenodd" clip-rule="evenodd" d="M24 12C24 18.6274 18.6274 24 12 24C5.37258 24 0 18.6274 0 12C0 5.37258 5.37258 0 12 0C18.6274 0 24 5.37258 24 12ZM18.044 11.7816C18.044 15.0212 15.4179 17.6473 12.1783 17.6473C8.93882 17.6473 6.31266 15.0212 6.31266 11.7816C6.31266 8.54211 8.93882 5.91596 12.1783 5.91596C15.4179 5.91596 18.044 8.54211 18.044 11.7816Z" fill="white"/>
<path opacity="0.42" fill-rule="evenodd" clip-rule="evenodd" d="M12.0001 3.69141C7.4119 3.69141 3.69238 7.41093 3.69238 11.9991C3.69238 16.5873 7.4119 20.3068 12.0001 20.3068C16.5882 20.3068 20.3078 16.5874 20.3078 11.9991C20.3078 7.41084 16.5883 3.69141 12.0001 3.69141ZM15.3746 9.67078C15.3974 11.0573 14.1885 11.447 14.1885 11.447C14.1885 11.447 14.6812 10.9708 14.6583 9.75112C14.6354 8.53147 13.7187 7.92908 13.7187 7.92908C13.7187 7.92908 15.3517 8.28423 15.3746 9.67078ZM8.2661 16.2654L9.93919 16.1852V7.7856L8.2661 7.70552V7.84293C8.2661 7.84293 9.28986 8.10645 9.28986 9.62675V14.2143C9.28986 16.0095 8.2661 16.1127 8.2661 16.1127V16.2654ZM12.6129 16.2711C11.8853 16.2769 10.5349 16.1775 10.5349 16.1775V7.79723C10.8688 7.7929 11.1212 7.77328 11.345 7.75587C11.7179 7.72688 12.0113 7.70406 12.4696 7.76849C13.2029 7.87159 13.8333 8.58788 14.0052 9.30408C14.1771 10.0203 13.9938 10.7021 13.7587 11.0745C13.5236 11.4468 13.0082 11.7048 13.0082 11.7048C13.0082 11.7048 13.7875 11.9684 14.0626 12.1975C14.3378 12.4266 14.8705 13.0512 14.6642 14.4092C14.4579 15.7671 13.3405 16.2654 12.6129 16.2711H12.6129ZM15.3052 13.9148C15.3401 15.2857 14.5467 15.9619 14.5467 15.9619C14.5467 15.9619 16.0733 15.5319 16.0562 13.8991C16.0391 12.2662 14.5467 11.8994 14.5467 11.8994C14.5467 11.8994 15.2703 12.5438 15.3052 13.9148Z" fill="white"/>
<path fill-rule="evenodd" clip-rule="evenodd" d="M14.5466 15.9609C14.5466 15.9609 15.34 15.2847 15.3051 13.9138C15.2702 12.5429 14.5466 11.8984 14.5466 11.8984C14.5466 11.8984 16.039 12.2652 16.0561 13.8981C16.0733 15.531 14.5466 15.9609 14.5466 15.9609Z" fill="white"/>
<path fill-rule="evenodd" clip-rule="evenodd" d="M12.6129 16.2706C11.8852 16.2764 10.5349 16.1771 10.5349 16.1771V7.79675C11.425 7.78521 11.7363 7.66491 12.4696 7.76801C13.2029 7.87111 13.8333 8.5874 14.0052 9.3036C14.1771 10.0198 13.9938 10.7016 13.7587 11.074C13.5236 11.4463 13.0082 11.7044 13.0082 11.7044C13.0082 11.7044 13.7875 11.9679 14.0626 12.197C14.3378 12.4261 14.8704 13.0507 14.6642 14.4087C14.4579 15.7667 13.3405 16.265 12.6128 16.2706" fill="white"/>
<path fill-rule="evenodd" clip-rule="evenodd" d="M9.9392 16.1847L8.26611 16.265V16.1122C8.26611 16.1122 9.28987 16.009 9.28987 14.2138V9.62631C9.28987 8.10601 8.26611 7.84249 8.26611 7.84249V7.70508L9.9392 7.78516V16.1847Z" fill="white"/>
<path fill-rule="evenodd" clip-rule="evenodd" d="M15.3746 9.6714C15.3975 11.0579 14.1885 11.4476 14.1885 11.4476C14.1885 11.4476 14.6813 10.9714 14.6583 9.75173C14.6354 8.53208 13.7188 7.92969 13.7188 7.92969C13.7188 7.92969 15.3518 8.28484 15.3746 9.6714Z" fill="white"/>
<path d="M13.0368 11.0432C13.5715 10.348 13.4035 9.03976 12.7561 8.59239C12.1087 8.14502 11.4269 8.369 11.295 8.49494C11.1632 8.62089 11.1692 11.5552 11.1692 11.5552C11.1692 11.5552 12.502 11.7386 13.0368 11.0432Z" fill="white"/>
<path d="M13.1362 12.2922C12.6358 12.0745 11.1691 12.1318 11.1691 12.1318C11.1691 12.1318 11.1464 12.8728 11.1996 14.2594C11.2529 15.6461 11.7268 15.6385 12.2196 15.6574C12.7123 15.6764 13.6521 15.6422 13.9614 14.4465C14.2708 13.2509 13.6368 12.5102 13.1362 12.2925" fill="white"/>
</svg>
