<svg width="24" height="24" viewBox="0 0 24 24" fill="none" xmlns="http://www.w3.org/2000/svg">
<path opacity="0.2" d="M12 24C18.6274 24 24 18.6274 24 12C24 5.37258 18.6274 0 12 0C5.37258 0 0 5.37258 0 12C0 18.6274 5.37258 24 12 24Z" fill="white"/>
<path fill-rule="evenodd" clip-rule="evenodd" d="M9.33988 7.6041C9.34653 7.36188 9.57397 7.15954 9.81693 7.18391C10.853 7.17726 11.8898 7.178 12.9258 7.18391C13.7234 7.17874 14.4921 7.58342 14.9906 8.1956C15.478 8.75905 15.65 9.53148 15.6161 10.2618C15.6552 11.0224 15.4226 11.8163 14.8872 12.3716C14.3754 12.9402 13.6163 13.2755 12.852 13.2681C12.1416 13.2688 11.4319 13.2674 10.7215 13.2688C10.7164 12.9638 10.7171 12.6589 10.7201 12.3546C11.4556 12.345 12.1918 12.3546 12.9273 12.3472C13.569 12.3317 14.1702 11.9352 14.4803 11.3806C14.741 10.8777 14.7151 10.2906 14.6812 9.74268C14.6007 8.88754 13.8607 8.13874 12.9938 8.10477C12.0803 8.08779 11.1654 8.10108 10.2511 8.09517C10.2585 8.81443 10.2556 9.53296 10.2548 10.2522C9.94763 10.2744 9.63674 10.2707 9.33545 10.3416C9.35391 9.42883 9.3288 8.5161 9.33988 7.6041Z" fill="white"/>
<path fill-rule="evenodd" clip-rule="evenodd" d="M9.44699 10.8445C9.58582 10.7728 9.73425 10.7167 9.89302 10.7271C10.9534 10.7212 12.0131 10.7234 13.0736 10.73C13.4517 10.7293 13.8194 10.8304 14.1643 10.9796C14.0269 11.2831 13.8142 11.5445 13.5262 11.7151C13.3269 11.6767 13.126 11.6398 12.9222 11.6442C12.0309 11.6487 11.1395 11.6428 10.2482 11.6464C10.2682 13.1404 10.26 14.635 10.2534 16.1289C11.1691 16.137 12.0855 16.1333 13.0012 16.1311C13.7485 16.1437 14.4678 15.6644 14.7669 14.9836C14.9751 14.5479 14.9278 14.0553 14.9301 13.5871C14.9315 13.404 14.9027 13.2231 14.8606 13.0458C15.1154 12.8221 15.3281 12.5584 15.5614 12.314C15.7217 12.6928 15.8568 13.0931 15.8509 13.5096C15.8428 13.9992 15.8952 14.5013 15.7453 14.9762C15.4263 16.1725 14.2389 17.0874 12.9946 17.0461C11.8669 17.0461 10.7393 17.0601 9.61166 17.038C9.48613 16.9287 9.33474 16.8053 9.33991 16.6215C9.33696 14.8211 9.34286 13.02 9.33843 11.2189C9.33622 11.086 9.40268 10.9663 9.44699 10.8445Z" fill="white"/>
</svg>
