<svg width="24" height="24" viewBox="0 0 24 24" fill="none" xmlns="http://www.w3.org/2000/svg">
<path opacity="0.3" d="M23.9349 12.0002C23.9349 18.5927 18.5908 23.937 11.9983 23.937C5.40576 23.937 0.0615234 18.5927 0.0615234 12.0002C0.0615234 5.40772 5.40576 0.0634766 11.9983 0.0634766C18.5907 0.0634766 23.9349 5.40772 23.9349 12.0002Z" fill="white"/>
<path fill-rule="evenodd" clip-rule="evenodd" d="M10.1625 8.84375H6.88086V9.90287H10.1625V8.84375ZM7.41031 13.7158H15.1064C16.1968 13.705 17.0753 14.5734 17.0964 15.6646C17.0964 16.7449 16.1648 17.6346 15.0957 17.6346H7.41031V13.7158Z" fill="white"/>
<path fill-rule="evenodd" clip-rule="evenodd" d="M11.994 0C5.36708 0 0 5.36976 0 12C0 18.6302 5.36708 24 11.994 24C18.6209 24 23.988 18.6302 23.988 12C23.9986 5.36976 18.6208 0 11.994 0ZM12.3858 5.34865H18.1023V6.51373H13.6561V9.90289H16.9378V8.84401H14.6088V7.67869H18.2081V11.068H12.3858V5.34865ZM9.42158 5.4546H5.82242V6.83136H9.42158V5.4546ZM5.7165 7.67881H10.2685V5.34865H11.5383V11.068H5.7165V7.67881ZM5.82242 19.1175H15.371V19.1173C17.2234 19.1173 18.7374 17.5606 18.7374 15.6753C18.7374 13.7899 17.2237 12.2331 15.3711 12.2331H5.82242V19.1175Z" fill="white"/>
<path d="M5.82251 5.45508H9.42167V6.83184H5.82251V5.45508Z" fill="white"/>
</svg>
