<svg width="24" height="24" viewBox="0 0 24 24" fill="none" xmlns="http://www.w3.org/2000/svg">
<path opacity="0.2" d="M12 24C18.6274 24 24 18.6274 24 12C24 5.37258 18.6274 0 12 0C5.37258 0 0 5.37258 0 12C0 18.6274 5.37258 24 12 24Z" fill="white"/>
<path fill-rule="evenodd" clip-rule="evenodd" d="M6.91391 9.23071V9.92095V10.6112H5.62523V9.23071H6.91391ZM4.98107 9.92095V9.23072H3.69238V10.6112H4.98107V9.92095ZM18.998 9.99273L17.2325 12.374C15.815 14.2791 15.4348 14.7554 15.3124 14.7554H15.1642V9.30249H15.5508V14.0168L17.2969 11.6769C18.7532 9.72353 19.0689 9.337 19.2042 9.337H19.3653L19.3717 12.0427L19.3846 14.7554H19.0302L19.0173 12.374L18.998 9.99273ZM12.9863 14.5552C13.9657 14.1411 14.5262 13.0574 14.436 11.7666C14.3651 10.8003 13.9463 10.0618 13.2504 9.66142C12.7414 9.37842 12.2968 9.30249 11.0597 9.30249H10.0094V14.7692L11.3174 14.7416C12.4837 14.714 12.6576 14.7001 12.9863 14.5552ZM11.1282 12.1656V13.7945L11.7403 13.7669C12.288 13.7462 12.3782 13.7186 12.6231 13.5392C13.0097 13.2424 13.1965 12.8006 13.203 12.1725C13.2094 11.0543 12.7262 10.5435 11.663 10.5366H11.1282V12.1656ZM8.78262 9.92095V9.23071H7.55837V10.6112H8.78262V9.92095ZM6.91391 12.6129H6.31467H5.62523V11.2324H6.91391V12.6129ZM8.78906 12.6129V11.2324H7.55837V12.6198L8.78906 12.6129ZM8.76651 13.3169V14.7319H7.55837V13.31H8.15439L8.76651 13.3169Z" fill="white"/>
</svg>
