<svg width="24" height="24" viewBox="0 0 24 24" fill="none" xmlns="http://www.w3.org/2000/svg">
<path opacity="0.2" d="M12 24C18.6274 24 24 18.6274 24 12C24 5.37258 18.6274 0 12 0C5.37258 0 0 5.37258 0 12C0 18.6274 5.37258 24 12 24Z" fill="white"/>
<path fill-rule="evenodd" clip-rule="evenodd" d="M10.1158 6.4661C10.0385 6.46624 9.96128 6.46637 9.88401 6.46637L9.89135 6.51707C9.78238 6.51292 9.6736 6.51778 9.56482 6.52265C9.48278 6.52632 9.40074 6.52998 9.31862 6.52978L9.32627 6.57986C9.26687 6.57734 9.20765 6.58129 9.14844 6.58523C9.09841 6.58857 9.04839 6.5919 8.99827 6.59134C8.99996 6.60405 9.00332 6.62947 9.00516 6.64219C8.96339 6.63998 8.92187 6.64371 8.88037 6.64745C8.83734 6.65132 8.79433 6.65518 8.75109 6.65242L8.75143 6.65687C8.753 6.67757 8.75458 6.6984 8.75629 6.71909C8.72042 6.71876 8.68475 6.72172 8.6491 6.72467C8.61722 6.72731 8.58535 6.72996 8.55334 6.73025L8.55408 6.73566C8.55613 6.75063 8.5582 6.76569 8.56038 6.78064C8.52463 6.77934 8.48914 6.78272 8.45363 6.7861C8.42133 6.78917 8.38903 6.79224 8.35651 6.7918L8.36233 6.84405C8.32822 6.8422 8.29445 6.84576 8.2607 6.84932C8.23508 6.85202 8.20947 6.85472 8.18371 6.85506L8.19014 6.90606C8.16085 6.90713 8.13168 6.90955 8.10249 6.91196C8.08514 6.9134 8.06779 6.91483 8.0504 6.91599L8.05606 6.96715C8.02845 6.96761 8.001 6.97056 7.97355 6.9735C7.93696 6.97742 7.90036 6.98135 7.86336 6.9794C7.8652 6.99227 7.86857 7.018 7.87025 7.03087C7.85112 7.0318 7.83199 7.03304 7.81301 7.03444C7.78959 7.04048 7.76541 7.04157 7.74138 7.0425L7.7472 7.09242C7.73982 7.09334 7.73245 7.09431 7.72508 7.09528C7.69035 7.09983 7.65556 7.10439 7.62047 7.10451C7.6213 7.11888 7.62197 7.13325 7.62263 7.14765C7.62307 7.15702 7.6235 7.16641 7.62399 7.17583C7.59735 7.17676 7.57072 7.17738 7.54409 7.17785L7.54991 7.23056C7.54631 7.23048 7.5427 7.23038 7.53908 7.23027C7.51332 7.22951 7.48728 7.22874 7.46312 7.23893C7.4492 7.2394 7.42149 7.24064 7.40772 7.24126C7.40955 7.25831 7.41154 7.27537 7.41353 7.29242C7.38931 7.29366 7.36526 7.29647 7.3412 7.29928C7.32604 7.30105 7.31089 7.30282 7.29568 7.3042L7.30043 7.35676C7.27471 7.35707 7.24915 7.35785 7.22359 7.35862C7.22496 7.37748 7.22649 7.39633 7.22802 7.41519L7.22803 7.41537C7.2271 7.4154 7.22616 7.41543 7.22523 7.41546C7.20212 7.41619 7.17893 7.41693 7.15686 7.42482L7.11201 7.42575L7.11553 7.4811C7.08569 7.48095 7.05569 7.48126 7.026 7.48157C7.02691 7.5011 7.02814 7.52064 7.02952 7.54017C7.00411 7.5413 6.97884 7.54423 6.95358 7.54717C6.94048 7.5487 6.92738 7.55022 6.91427 7.55149C6.91518 7.57304 6.91549 7.59475 6.91534 7.61645C6.90345 7.62316 6.89011 7.62452 6.87674 7.62589C6.866 7.62699 6.85526 7.62809 6.84524 7.63196L6.84646 7.68343L6.84579 7.68341C6.82382 7.68295 6.802 7.6825 6.78004 7.68234L6.78028 7.68594C6.78158 7.70491 6.78288 7.72401 6.78432 7.74296C6.76259 7.74219 6.74085 7.74172 6.71927 7.74141C6.71986 7.76103 6.72073 7.7805 6.72161 7.80024L6.72172 7.80281C6.71936 7.80287 6.71698 7.80292 6.7146 7.80297C6.6936 7.8034 6.67228 7.80384 6.65331 7.81428C6.6331 7.81444 6.6129 7.81444 6.59285 7.81428C6.59377 7.83552 6.59469 7.85676 6.59545 7.87816L6.53055 7.87583L6.53576 7.92932C6.51632 7.92963 6.49688 7.93071 6.4776 7.93211C6.45885 7.93812 6.46077 7.95527 6.46267 7.97215C6.46351 7.97966 6.46435 7.98711 6.46336 7.99351C6.44255 7.99258 6.42173 7.9918 6.40107 7.99118C6.40138 8.01785 6.40183 8.04467 6.4026 8.07134C6.38282 8.07016 6.36305 8.06912 6.3434 8.06809L6.34031 8.06792C6.34046 8.08963 6.34077 8.11134 6.34122 8.13304C6.3198 8.13211 6.29852 8.13134 6.27709 8.13071C6.27786 8.15196 6.27878 8.17335 6.27985 8.19459C6.25919 8.1932 6.23868 8.19211 6.21801 8.19103C6.21801 8.2129 6.21832 8.23477 6.21862 8.25679L6.21863 8.25723C6.19291 8.25583 6.1672 8.2549 6.14149 8.25413C6.14164 8.27583 6.14179 8.29754 6.14225 8.31924C6.12242 8.31818 6.10245 8.31741 6.08262 8.31665L6.08149 8.31661C6.08118 8.34126 6.08103 8.36591 6.08088 8.39072L6.02914 8.38606C6.0267 8.40885 6.02394 8.4318 6.02088 8.45475C6.0071 8.45289 5.97955 8.44947 5.96563 8.44777C5.96648 8.4695 5.96695 8.49132 5.96741 8.51317C5.96753 8.51861 5.96765 8.52404 5.96777 8.52947L5.90792 8.52854C5.90621 8.54565 5.90359 8.56263 5.90096 8.57963C5.89771 8.60068 5.89445 8.62176 5.89292 8.64312C5.87395 8.64126 5.85497 8.63955 5.83614 8.638C5.83538 8.66048 5.83492 8.68281 5.83461 8.70529L5.83394 8.70527C5.81411 8.70481 5.79444 8.70436 5.77461 8.7042L5.77553 8.77707L5.70421 8.77413C5.70528 8.79599 5.70635 8.818 5.70727 8.84002C5.68645 8.83986 5.66579 8.83971 5.64497 8.8394L5.64742 8.88219C5.63485 8.90629 5.63493 8.93342 5.63502 8.96016C5.63503 8.96369 5.63504 8.96721 5.63503 8.97072L5.58467 8.96451C5.58268 8.99118 5.58038 9.018 5.57748 9.04467L5.52498 9.03816C5.52381 9.0636 5.52076 9.08891 5.51772 9.11422C5.51599 9.12855 5.51427 9.14288 5.51289 9.15723C5.49704 9.15565 5.48107 9.15421 5.4652 9.15277L5.46131 9.15242C5.46054 9.17847 5.45962 9.20467 5.45855 9.23087H5.45855C5.44003 9.22916 5.42151 9.22746 5.40299 9.22591C5.40287 9.26107 5.39823 9.29603 5.3936 9.33094C5.39263 9.33821 5.39167 9.34547 5.39075 9.35273L5.38653 9.35231C5.37097 9.35074 5.35552 9.34919 5.33993 9.34777C5.33993 9.37761 5.33679 9.40725 5.33364 9.43692C5.33202 9.4521 5.33041 9.46728 5.32922 9.4825C5.30764 9.48079 5.28606 9.4794 5.26448 9.478C5.26308 9.49429 5.26127 9.51054 5.25946 9.5268C5.25649 9.55339 5.25353 9.57999 5.25239 9.60684L5.20172 9.60079C5.20096 9.61955 5.20004 9.63831 5.19882 9.65723C5.19346 9.68126 5.19193 9.70575 5.19055 9.7304L5.14111 9.72467C5.14006 9.74701 5.1383 9.7693 5.13654 9.79161C5.1342 9.82115 5.13186 9.85071 5.13117 9.88048C5.11418 9.87847 5.09703 9.87661 5.08004 9.8749C5.07945 9.90319 5.07646 9.93129 5.07347 9.95944C5.0718 9.97511 5.07013 9.99079 5.06887 10.0065C5.05663 10.0048 5.03183 10.0014 5.01959 9.99986C5.02021 10.0305 5.01697 10.061 5.01372 10.0915C5.01058 10.121 5.00743 10.1506 5.0078 10.1805L4.95852 10.1738C4.95752 10.2002 4.95489 10.2264 4.95226 10.2526C4.94802 10.2949 4.94378 10.3371 4.94643 10.3797C4.92408 10.378 4.90173 10.3765 4.87954 10.3751C4.87877 10.4019 4.87669 10.4286 4.87461 10.4553C4.87171 10.4925 4.86882 10.5297 4.86944 10.5671L4.8197 10.5599C4.82106 10.5966 4.81775 10.6332 4.81444 10.6697C4.81105 10.707 4.80766 10.7443 4.80929 10.7819L4.75909 10.7751C4.75938 10.8233 4.7562 10.8715 4.75302 10.9196C4.74952 10.9726 4.74603 11.0255 4.74715 11.0786C4.73475 11.0769 4.70965 11.0732 4.69725 11.0713C4.69834 11.1263 4.69506 11.1811 4.69178 11.2359C4.68815 11.2968 4.68451 11.3576 4.68684 11.4186C4.67429 11.4168 4.64919 11.413 4.63664 11.411C4.63658 11.5309 4.63407 11.6507 4.63155 11.7705C4.62814 11.9334 4.62472 12.0964 4.62746 12.2594C4.62545 12.3812 4.62837 12.5028 4.63129 12.6245C4.63394 12.7348 4.63659 12.845 4.63557 12.9554L4.68562 12.9482C4.68355 13.0142 4.68728 13.0799 4.69101 13.1457C4.69445 13.2063 4.69789 13.2669 4.69679 13.3276C4.70809 13.3259 4.72968 13.323 4.74304 13.3212L4.74715 13.3206C4.74535 13.3763 4.74884 13.4319 4.75234 13.4875C4.75478 13.5264 4.75723 13.5653 4.75786 13.6044L4.80806 13.5974C4.80576 13.6407 4.80968 13.6837 4.81361 13.7268C4.81749 13.7693 4.82137 13.8119 4.81924 13.8547L4.8699 13.8484C4.86915 13.8858 4.87218 13.923 4.87522 13.9603C4.87774 13.9912 4.88027 14.0222 4.88061 14.0534C4.89149 14.0523 4.90236 14.0514 4.91324 14.0505C4.9241 14.0496 4.93496 14.0486 4.94581 14.0476C4.94389 14.0807 4.9477 14.1133 4.95152 14.146C4.95467 14.1729 4.95782 14.1998 4.95775 14.227L5.0078 14.2208C5.00576 14.2577 5.00968 14.2943 5.0136 14.3308C5.01703 14.3628 5.02047 14.3949 5.01989 14.4271L5.06887 14.4202C5.07021 14.4355 5.0719 14.4509 5.0736 14.4662C5.07675 14.4948 5.07991 14.5234 5.08081 14.5523L5.13025 14.5453C5.13136 14.574 5.13392 14.6027 5.13648 14.6315C5.13816 14.6503 5.13984 14.6691 5.14111 14.6879C5.15764 14.6858 5.17433 14.6837 5.19101 14.6817C5.18929 14.7225 5.19569 14.7627 5.20208 14.8028C5.20363 14.8126 5.20519 14.8224 5.20662 14.8321L5.24902 14.8045C5.2504 14.8161 5.25192 14.8278 5.25344 14.8394C5.2578 14.8727 5.26216 14.9061 5.26341 14.9399C5.28499 14.9382 5.30657 14.9368 5.3283 14.9354C5.32979 14.9513 5.33173 14.9672 5.33367 14.9832C5.33691 15.0098 5.34016 15.0365 5.34131 15.0634L5.39228 15.0572C5.39197 15.0833 5.39182 15.1095 5.39167 15.1357L5.4509 15.1338C5.45085 15.1367 5.4508 15.1395 5.45074 15.1424C5.45022 15.1686 5.44969 15.1952 5.45825 15.2206L5.46177 15.2751C5.47307 15.2738 5.48437 15.2727 5.49568 15.2716C5.50136 15.2711 5.50705 15.2705 5.51273 15.2699C5.51418 15.2828 5.51591 15.2957 5.51763 15.3086C5.52119 15.3352 5.52476 15.3618 5.5259 15.3887L5.57824 15.3811C5.58102 15.4052 5.58266 15.4295 5.58432 15.4539L5.58482 15.4614L5.63487 15.4561C5.63642 15.4703 5.63837 15.4844 5.64032 15.4985C5.64377 15.5234 5.64722 15.5484 5.64849 15.5737C5.66732 15.5716 5.6863 15.5699 5.70528 15.5685C5.70635 15.5963 5.70681 15.6244 5.70666 15.6526C5.72931 15.6509 5.75196 15.6495 5.77461 15.6482C5.77461 15.6729 5.77461 15.6977 5.77477 15.7227L5.83461 15.7202C5.83594 15.7318 5.83747 15.7435 5.839 15.7552C5.84256 15.7824 5.84614 15.8096 5.84731 15.8371C5.8669 15.8354 5.8865 15.8337 5.90609 15.8324C5.90655 15.8547 5.9067 15.8772 5.90655 15.9C5.92598 15.898 5.94542 15.8963 5.96501 15.8949C5.96578 15.9178 5.96624 15.9411 5.9667 15.9644L6.02103 15.9572C6.02394 15.98 6.02669 16.0028 6.02899 16.0259C6.04598 16.0242 6.06312 16.0225 6.08011 16.0211C6.08011 16.0456 6.08088 16.0703 6.08256 16.0949C6.0887 16.1131 6.10522 16.1112 6.12156 16.1094C6.12928 16.1085 6.13695 16.1076 6.14348 16.1089C6.14241 16.1298 6.14133 16.151 6.14057 16.1723C6.14708 16.1721 6.1536 16.172 6.16011 16.1719C6.17962 16.1716 6.19912 16.1713 6.21863 16.1707C6.21832 16.1924 6.21801 16.2141 6.21801 16.236L6.28016 16.2323C6.27924 16.2534 6.27832 16.2746 6.27771 16.296L6.34214 16.2941C6.34122 16.3157 6.34046 16.3374 6.33985 16.3591C6.3602 16.3583 6.38056 16.3575 6.40092 16.3569C6.39985 16.3774 6.40107 16.3977 6.40428 16.418C6.42387 16.4192 6.44362 16.4199 6.46336 16.42L6.46275 16.4684C6.47261 16.4835 6.48899 16.4825 6.50526 16.4814C6.51248 16.4809 6.51968 16.4805 6.52627 16.4814C6.52489 16.5044 6.52382 16.5275 6.52275 16.5507C6.54739 16.5509 6.57203 16.5515 6.59667 16.5523C6.5956 16.5721 6.59438 16.5921 6.593 16.6121C6.62009 16.6115 6.64703 16.6115 6.67412 16.6121L6.67029 16.6718C6.69141 16.6731 6.71229 16.6759 6.7332 16.6788C6.75048 16.6811 6.76778 16.6835 6.78524 16.685C6.78417 16.705 6.78325 16.7251 6.78248 16.7453L6.84815 16.7439C6.84661 16.7622 6.84524 16.7806 6.84386 16.7994C6.86896 16.7994 6.89406 16.7997 6.91916 16.8002C6.91809 16.8191 6.91687 16.8382 6.91549 16.8574C6.93761 16.8587 6.95947 16.8618 6.98135 16.865C6.99762 16.8673 7.01389 16.8696 7.03028 16.8712C7.02921 16.8904 7.02814 16.9099 7.02722 16.9295C7.05783 16.9295 7.0886 16.9295 7.11936 16.9298L7.11477 16.9969L7.11753 16.997C7.14038 16.9976 7.16381 16.9982 7.18441 17.0098L7.22941 17.0085C7.22757 17.0264 7.22589 17.0444 7.2242 17.0627C7.25007 17.0628 7.27624 17.0634 7.30226 17.064L7.29813 17.1211C7.32658 17.1222 7.35475 17.1259 7.38292 17.1297C7.39628 17.1315 7.40963 17.1333 7.42302 17.1347L7.41782 17.1851C7.42814 17.1862 7.43846 17.1874 7.44878 17.1886C7.48286 17.1926 7.51698 17.1965 7.55128 17.1963L7.54577 17.2467C7.55542 17.2479 7.56506 17.2491 7.57471 17.2504C7.60703 17.2547 7.63943 17.259 7.6722 17.2594C7.67067 17.2777 7.66929 17.2961 7.66791 17.3147C7.68104 17.3154 7.69417 17.3163 7.7073 17.3171C7.73627 17.3189 7.76527 17.3207 7.79434 17.3209C7.79265 17.3433 7.79112 17.3658 7.78974 17.3884C7.79314 17.3888 7.79653 17.3892 7.79992 17.3896C7.83895 17.3942 7.87811 17.3988 7.91739 17.3991L7.91081 17.4498C7.93484 17.4501 7.95902 17.451 7.98305 17.4524C8.00703 17.458 8.03162 17.4594 8.05606 17.4608L8.05622 17.4608C8.05407 17.4771 8.05193 17.4935 8.04994 17.5101C8.0744 17.5114 8.09882 17.5137 8.12327 17.516C8.14578 17.5181 8.1683 17.5202 8.1909 17.5216C8.18876 17.538 8.18662 17.5546 8.18463 17.5713C8.20896 17.5723 8.2333 17.5737 8.25733 17.5777C8.29238 17.582 8.32758 17.5831 8.36294 17.5823C8.36126 17.6 8.35957 17.6178 8.35804 17.6358C8.39238 17.635 8.42657 17.638 8.46076 17.6409C8.49422 17.6438 8.52768 17.6467 8.5613 17.6461L8.55395 17.6963C8.58615 17.6961 8.61818 17.6992 8.65022 17.7022C8.68579 17.7055 8.72137 17.7089 8.75721 17.7079L8.75048 17.7589C8.79949 17.7565 8.84828 17.7601 8.89709 17.7637C8.93729 17.7666 8.9775 17.7696 9.01786 17.7692C9.01587 17.7913 9.01404 17.8135 9.0122 17.836C9.07074 17.8338 9.12904 17.8382 9.18733 17.8426C9.25371 17.8476 9.32007 17.8526 9.38673 17.8479L9.37908 17.8986C9.44425 17.8995 9.50943 17.9018 9.57461 17.9042C9.68057 17.9079 9.78654 17.9117 9.89258 17.9093L9.88508 17.9599C9.98772 17.9597 10.0904 17.9598 10.1931 17.9599C10.3528 17.9601 10.5126 17.9602 10.6722 17.9596L10.6644 17.9096C10.7705 17.9117 10.8764 17.908 10.9823 17.9042C11.0631 17.9013 11.1438 17.8984 11.2246 17.8982C11.2228 17.8856 11.2191 17.8603 11.2174 17.8478C11.2728 17.8504 11.3279 17.8462 11.383 17.842C11.4368 17.838 11.4906 17.8339 11.5447 17.8361C11.5427 17.8135 11.5408 17.791 11.5392 17.7687C11.5635 17.7692 11.5878 17.7695 11.6123 17.7701C11.6125 17.7442 11.6128 17.7185 11.6131 17.6929C11.6301 17.6946 11.6472 17.6965 11.6644 17.6986C11.6654 17.67 11.6689 17.6417 11.6723 17.6134C11.6737 17.6022 11.6751 17.591 11.6763 17.5797C11.693 17.5811 11.7098 17.5825 11.7266 17.5842C11.7279 17.5731 11.7293 17.5621 11.7306 17.551C11.7345 17.5199 11.7384 17.4887 11.7392 17.4574C11.7556 17.4592 11.772 17.4613 11.7885 17.4634C11.7912 17.4363 11.7946 17.4096 11.798 17.383L11.8495 17.3903C11.8491 17.3526 11.8531 17.3152 11.8572 17.2778C11.8584 17.2672 11.8595 17.2567 11.8606 17.2461C11.8666 17.2464 11.8726 17.2466 11.8787 17.2469C11.8953 17.2477 11.912 17.2485 11.9287 17.2495C11.9284 17.2385 11.9281 17.2165 11.9279 17.2054C11.9376 17.1855 11.9382 17.1638 11.9388 17.1424C11.9389 17.1391 11.939 17.1358 11.9391 17.1326L11.9899 17.1386C11.9902 17.1116 11.9907 17.0847 11.9913 17.0578C12.0096 17.0591 12.028 17.0605 12.0465 17.062C12.0476 17.0409 12.0502 17.0199 12.0528 16.9989C12.0557 16.9756 12.0586 16.9522 12.0594 16.9287L12.0619 16.929C12.0775 16.9306 12.0932 16.9322 12.109 16.9341C12.1103 16.9217 12.1119 16.9093 12.1134 16.8969C12.1172 16.867 12.1209 16.837 12.1217 16.8068L12.178 16.8106L12.1789 16.7323C12.1954 16.7337 12.2118 16.7355 12.2283 16.7373L12.231 16.7375C12.2321 16.7113 12.2351 16.6853 12.2382 16.6594C12.2398 16.6458 12.2414 16.6321 12.2428 16.6185C12.2597 16.62 12.2767 16.6217 12.2939 16.6236C12.2942 16.598 12.2945 16.5724 12.2949 16.5471C12.3199 16.5478 12.345 16.5487 12.3699 16.5501C12.3669 16.5016 12.3696 16.4529 12.3803 16.4056L12.4302 16.4134C12.4316 16.39 12.4342 16.3669 12.4369 16.3438C12.4388 16.3269 12.4408 16.31 12.4422 16.293C12.4483 16.2937 12.4545 16.2944 12.4607 16.2951C12.4713 16.2962 12.482 16.2973 12.4927 16.2986L12.4959 16.2433C12.5031 16.2215 12.5041 16.1987 12.505 16.1762C12.5051 16.1747 12.5052 16.1732 12.5052 16.1716L12.561 16.1761L12.5628 16.0958C12.5796 16.0977 12.5968 16.0997 12.6139 16.1019C12.6133 16.0656 12.6178 16.0299 12.6223 15.9942C12.6234 15.9853 12.6245 15.9764 12.6255 15.9675C12.6421 15.9689 12.6588 15.9704 12.6754 15.9721C12.6768 15.9598 12.6783 15.9475 12.6798 15.9353C12.6836 15.9054 12.6873 15.8756 12.6881 15.8454L12.7448 15.8498C12.7451 15.8236 12.7455 15.7975 12.746 15.7716C12.768 15.7729 12.7904 15.7743 12.8127 15.776C12.814 15.7531 12.8167 15.7304 12.8195 15.7077C12.8215 15.6911 12.8235 15.6744 12.825 15.6577L12.8758 15.6631C12.8762 15.6396 12.8773 15.616 12.8787 15.5927C12.8855 15.5703 12.8866 15.5469 12.8876 15.5238L12.8877 15.5203L12.9431 15.5248C12.9436 15.4983 12.9441 15.4721 12.9447 15.4459C12.9618 15.4475 12.9791 15.4492 12.9966 15.451C12.9979 15.4297 13.0005 15.4086 13.0031 15.3874C13.0054 15.3692 13.0077 15.3509 13.0091 15.3326L13.0587 15.338C13.0598 15.3272 13.0611 15.3164 13.0624 15.3057C13.0662 15.2737 13.0699 15.2419 13.0706 15.2099L13.1277 15.2138C13.1279 15.1823 13.128 15.1512 13.128 15.12C13.1453 15.1216 13.1625 15.1233 13.1799 15.1253C13.1908 15.0411 13.196 14.9566 13.1805 14.8726C13.164 14.8743 13.1476 14.8761 13.1314 14.8782C13.1298 14.8633 13.1278 14.8485 13.1258 14.8338C13.1225 14.8094 13.1192 14.7852 13.1179 14.7606C13.0996 14.7619 13.0812 14.7633 13.063 14.7647C13.0625 14.7327 13.0621 14.7009 13.0619 14.6693L13.0617 14.6693C13.0445 14.671 13.0273 14.6727 13.0103 14.6747C13.009 14.6491 13.0056 14.6236 13.0022 14.5982C13.0004 14.5843 12.9985 14.5705 12.997 14.5566C12.9806 14.5585 12.9644 14.5603 12.9483 14.5623C12.9468 14.5453 12.9447 14.5283 12.9426 14.5114C12.9394 14.4856 12.9362 14.4598 12.9349 14.4338C12.9177 14.4357 12.9007 14.4375 12.8839 14.4396C12.8836 14.4135 12.8834 14.3876 12.8834 14.3617C12.8639 14.3625 12.8446 14.3636 12.8253 14.365C12.8244 14.3432 12.8222 14.3215 12.8201 14.2998C12.8178 14.2769 12.8155 14.254 12.8147 14.231L12.7478 14.2346C12.7468 14.2264 12.7458 14.2182 12.7448 14.21C12.7405 14.1766 12.7363 14.1431 12.7353 14.1095L12.6793 14.1143C12.6783 14.0875 12.6777 14.0606 12.6773 14.034C12.6604 14.0358 12.6436 14.0378 12.6268 14.04C12.6256 14.0142 12.6225 13.9886 12.6195 13.963C12.6178 13.9489 12.6162 13.9349 12.6148 13.9208C12.5983 13.9225 12.5818 13.9242 12.5654 13.9261C12.5644 13.9182 12.5634 13.9104 12.5623 13.9026C12.5571 13.863 12.5519 13.8234 12.5531 13.7834L12.4951 13.7871L12.4951 13.7858C12.4947 13.7599 12.4942 13.7343 12.4941 13.7087C12.4769 13.7106 12.4599 13.7124 12.4431 13.7146C12.4419 13.6883 12.4386 13.6623 12.4353 13.6362C12.4333 13.6196 12.4312 13.6031 12.4296 13.5865L12.3782 13.5912L12.3788 13.547C12.3704 13.5259 12.3698 13.5034 12.3692 13.4811C12.3692 13.4786 12.3691 13.4761 12.369 13.4737L12.2965 13.4766C12.2963 13.4509 12.2962 13.4251 12.2962 13.3996C12.2784 13.4011 12.2608 13.4028 12.2434 13.4045C12.2435 13.3726 12.2398 13.3411 12.2361 13.3096C12.2345 13.2964 12.233 13.2832 12.2317 13.2699C12.2149 13.2716 12.1981 13.2735 12.1812 13.2754L12.1775 13.2199C12.171 13.1965 12.1699 13.1721 12.169 13.1482L12.1127 13.1526C12.1117 13.1256 12.1111 13.0988 12.111 13.0721L12.0609 13.0789L12.0607 13.0754C12.0596 13.0519 12.0584 13.0282 12.0487 13.0065L12.0497 12.9613C12.032 12.9628 12.0145 12.9645 11.9969 12.9662C11.9958 12.9459 11.9939 12.9257 11.992 12.9055C11.9895 12.8782 11.987 12.8509 11.9862 12.8236L11.9271 12.8245C11.9273 12.7996 11.9276 12.7747 11.9281 12.7499C11.9053 12.751 11.8825 12.7524 11.8598 12.754C11.8587 12.7328 11.8567 12.7117 11.8546 12.6907C11.8528 12.6718 11.851 12.653 11.8499 12.6341C11.8324 12.6357 11.8151 12.6372 11.7978 12.6389C11.7972 12.613 11.7967 12.5873 11.7963 12.5616C11.7772 12.5628 11.7582 12.5642 11.7393 12.5658C11.7384 12.5388 11.736 12.512 11.7336 12.4852C11.7318 12.4649 11.73 12.4447 11.7288 12.4244C11.7113 12.4256 11.6939 12.427 11.6766 12.4285C11.6752 12.4119 11.6733 12.3954 11.6714 12.3789C11.6687 12.3557 11.6661 12.3326 11.6648 12.3093L11.6138 12.3155L11.6125 12.2357C11.5938 12.2369 11.5751 12.2383 11.5564 12.2399C11.5555 12.2157 11.5545 12.1915 11.5483 12.1681C11.5473 12.1552 11.5456 12.1305 11.5447 12.1163L11.5445 12.1138C11.5272 12.1152 11.5101 12.1168 11.4931 12.1185C11.4919 12.1063 11.4904 12.0942 11.489 12.082C11.4852 12.0496 11.4814 12.0173 11.4818 11.9847C11.4593 11.9861 11.4369 11.9875 11.4147 11.989L11.4135 11.9104C11.3947 11.9115 11.3758 11.9129 11.3572 11.9144C11.3561 11.8903 11.3549 11.8661 11.3492 11.8427L11.3452 11.7865C11.3284 11.7884 11.3117 11.7902 11.2952 11.7923C11.2937 11.773 11.2912 11.754 11.2886 11.7349C11.286 11.7147 11.2833 11.6945 11.2819 11.6741C11.2647 11.6758 11.2477 11.6775 11.2307 11.6796L11.2304 11.6011C11.211 11.6022 11.1916 11.6034 11.1723 11.6048C11.1733 11.5648 11.1683 11.5251 11.1633 11.4855C11.1624 11.4779 11.1614 11.4703 11.1605 11.4627C11.143 11.464 11.1256 11.4656 11.1085 11.4673L11.1086 11.412C11.1426 11.4064 11.1769 11.4009 11.2115 11.4011C11.6951 11.4017 12.1786 11.4016 12.6621 11.4015C12.9699 11.4015 13.2777 11.4014 13.5855 11.4016C13.8616 11.4021 14.1376 11.4018 14.4137 11.4014C14.8906 11.4008 15.3675 11.4002 15.8443 11.4044C15.8572 11.3291 15.8526 11.2537 15.8481 11.1782C15.8449 11.1265 15.8418 11.0747 15.8443 11.023L15.7943 11.0301C15.7943 10.9811 15.7907 10.9323 15.7871 10.8835C15.784 10.8411 15.7809 10.7987 15.7802 10.7563C15.7689 10.7642 15.7464 10.78 15.7352 10.7881C15.7347 10.7443 15.7315 10.7006 15.7282 10.6569C15.7246 10.6085 15.721 10.5601 15.7212 10.5116C15.7044 10.5138 15.6877 10.516 15.6712 10.5183C15.6711 10.4879 15.6683 10.4577 15.6654 10.4275C15.6622 10.3937 15.659 10.3599 15.6597 10.3259L15.6086 10.332C15.6084 10.2949 15.6059 10.2579 15.6035 10.2209C15.6024 10.2049 15.6014 10.1889 15.6005 10.1729C15.5833 10.1749 15.5665 10.1769 15.5497 10.1791C15.5509 10.1478 15.5474 10.1168 15.5439 10.0859C15.5406 10.0571 15.5373 10.0283 15.5379 9.99924C15.5262 10.0005 15.5145 10.002 15.5029 10.0034C15.4977 10.004 15.4926 10.0047 15.4875 10.0053C15.4869 9.96946 15.484 9.93372 15.4811 9.898C15.4802 9.88704 15.4793 9.87609 15.4785 9.86513C15.4559 9.86637 15.4334 9.86761 15.411 9.86916C15.4113 9.8394 15.4113 9.80932 15.4046 9.78033L15.4012 9.72436C15.3841 9.72622 15.3671 9.72823 15.3502 9.73025C15.3501 9.69519 15.3466 9.66032 15.3431 9.62549C15.3422 9.61658 15.3413 9.60768 15.3404 9.59878L15.2909 9.60482L15.2908 9.60284C15.2897 9.579 15.2887 9.55504 15.2823 9.53196L15.2792 9.47676L15.228 9.48219C15.227 9.45661 15.2248 9.43113 15.2226 9.40564C15.2207 9.38353 15.2188 9.36142 15.2177 9.33924L15.1661 9.34343C15.1649 9.33312 15.1636 9.32281 15.1623 9.31251C15.1586 9.28347 15.1548 9.25443 15.1537 9.22513L15.1026 9.23102C15.1023 9.21341 15.1021 9.19579 15.102 9.17822C15.1019 9.16935 15.1018 9.16049 15.1017 9.15165C15.0827 9.15273 15.0639 9.15397 15.0452 9.15537C15.044 9.13151 15.041 9.10776 15.0381 9.08402C15.0362 9.06874 15.0342 9.05346 15.0328 9.03816L14.9659 9.04219L14.9641 8.96467C14.9451 8.96591 14.9261 8.96746 14.9075 8.96901C14.9081 8.93668 14.9037 8.90476 14.8993 8.87283C14.8977 8.86066 14.896 8.84849 14.8946 8.8363L14.8422 8.84095C14.8421 8.81614 14.8421 8.79149 14.8422 8.76699C14.8217 8.76761 14.8014 8.76854 14.7812 8.76963C14.7813 8.74668 14.7816 8.72389 14.7819 8.7011C14.7625 8.70234 14.7434 8.70374 14.7244 8.70513C14.7243 8.70269 14.7242 8.70024 14.7241 8.69779C14.7235 8.67592 14.7228 8.6537 14.7109 8.63475L14.7128 8.58994L14.6531 8.59413C14.6525 8.5718 14.6523 8.54947 14.6525 8.5273L14.6521 8.52731C14.6395 8.52747 14.6153 8.52777 14.6032 8.52777C14.5878 8.51212 14.5886 8.49001 14.5893 8.46824C14.5896 8.45767 14.59 8.44717 14.5885 8.43754L14.5225 8.45459C14.5221 8.42947 14.5218 8.40436 14.5216 8.3794C14.5009 8.38002 14.4804 8.38079 14.4599 8.38172C14.4601 8.35971 14.4604 8.33754 14.4607 8.31568C14.4403 8.31676 14.42 8.318 14.3999 8.3194L14.3996 8.25227C14.3791 8.25351 14.3587 8.25506 14.3384 8.25661L14.3415 8.19289C14.3196 8.19351 14.298 8.19413 14.2764 8.19506L14.2782 8.12978C14.2571 8.13071 14.2361 8.13165 14.2153 8.13273L14.2181 8.06901C14.1967 8.06947 14.1752 8.07025 14.154 8.07118C14.1545 8.05128 14.1548 8.03146 14.1552 8.01173C14.1553 8.00503 14.1554 7.99833 14.1555 7.99165C14.129 7.99196 14.103 7.99258 14.0768 7.99335L14.0769 7.99048C14.0778 7.97096 14.0787 7.95131 14.0797 7.9318C14.0577 7.93227 14.036 7.93273 14.0142 7.93335C14.0147 7.91165 14.0151 7.89009 14.0157 7.86854C13.9948 7.86901 13.974 7.86963 13.9535 7.8704C13.9544 7.85134 13.9554 7.83227 13.9565 7.8132H13.8843C13.8852 7.7932 13.8863 7.7732 13.8876 7.7532C13.8651 7.75304 13.8426 7.75258 13.8203 7.75196C13.8217 7.73258 13.8232 7.71335 13.825 7.69413C13.8011 7.69288 13.7772 7.68961 13.7535 7.68634C13.7389 7.68433 13.7243 7.68233 13.7096 7.68079L13.7127 7.62141C13.683 7.62126 13.6535 7.62126 13.6241 7.62126C13.625 7.59738 13.6261 7.57366 13.6273 7.55009L13.5837 7.55071C13.5638 7.54149 13.5425 7.54069 13.5215 7.53991C13.5185 7.5398 13.5155 7.53969 13.5125 7.53955L13.5163 7.48017C13.4938 7.48033 13.4713 7.48079 13.449 7.48126C13.4504 7.46281 13.4519 7.44436 13.4534 7.42591L13.3767 7.42529C13.3778 7.40637 13.3792 7.38746 13.3807 7.36854C13.3521 7.36752 13.3239 7.36359 13.2957 7.35967C13.2854 7.35824 13.2751 7.35681 13.2649 7.35552C13.2662 7.33867 13.2679 7.32183 13.2696 7.30498L13.2696 7.30482C13.2451 7.30386 13.2207 7.3011 13.1964 7.29835C13.1738 7.29579 13.1512 7.29323 13.1285 7.29211C13.1302 7.27475 13.132 7.25738 13.134 7.24002L13.0561 7.23862C13.0573 7.2194 13.0587 7.20033 13.0602 7.18126C13.0267 7.18113 12.9936 7.17704 12.9605 7.17296C12.9518 7.17187 12.943 7.17079 12.9343 7.16978C12.9355 7.14761 12.9369 7.12544 12.9385 7.10327C12.9146 7.10215 12.8908 7.09942 12.867 7.09669C12.8483 7.09454 12.8296 7.09239 12.8107 7.09103L12.8169 7.04079C12.7872 7.04095 12.7573 7.0411 12.7285 7.03366C12.7099 7.03258 12.6912 7.03165 12.6728 7.03087L12.6787 6.97909C12.65 6.97991 12.6217 6.97629 12.5933 6.97268C12.563 6.9688 12.5326 6.96492 12.5019 6.96653L12.5081 6.91568C12.501 6.91499 12.4939 6.91428 12.4868 6.91357C12.4503 6.90995 12.4139 6.90632 12.3773 6.90606L12.3833 6.85475C12.3489 6.85639 12.3148 6.8526 12.2808 6.84881C12.2473 6.84508 12.2138 6.84135 12.18 6.84281C12.1821 6.82606 12.1844 6.80932 12.1869 6.79258C12.1615 6.79143 12.1362 6.78939 12.1109 6.78735C12.0881 6.78551 12.0653 6.78367 12.0424 6.7825L12.0505 6.73196C12.0066 6.73257 11.9628 6.72915 11.9191 6.72573C11.8746 6.72225 11.83 6.71877 11.7854 6.71955C11.787 6.69723 11.7888 6.6749 11.7906 6.65273C11.7516 6.65425 11.7128 6.65056 11.674 6.64688C11.6336 6.64304 11.5932 6.6392 11.5525 6.64126L11.56 6.59025C11.514 6.59108 11.4681 6.58822 11.4222 6.58537C11.374 6.58237 11.3259 6.57937 11.2776 6.58064C11.2791 6.56953 11.2821 6.54849 11.2841 6.53497L11.2848 6.53009C11.2024 6.53051 11.1201 6.52689 11.0378 6.52328C10.9339 6.51871 10.83 6.51414 10.7258 6.51769L10.7338 6.46761C10.5277 6.46536 10.3218 6.46573 10.1158 6.4661ZM8.68382 9.78806L8.67755 9.73783C8.68561 9.73767 8.69367 9.73752 8.70173 9.73736C8.76622 9.73609 8.83072 9.73481 8.89535 9.7355L8.88968 9.7893C8.91632 9.78868 8.94279 9.78853 8.96958 9.78868L8.96973 9.80139C8.98104 9.80081 9.00291 9.79939 9.01534 9.79858L9.01733 9.79845L8.99927 9.8662C9.02376 9.86729 9.04825 9.86806 9.07289 9.86868L9.0732 9.9417L9.12462 9.93674C9.12611 9.95195 9.12807 9.96712 9.13004 9.98231C9.13315 10.0063 9.13626 10.0304 9.13748 10.0546C9.15631 10.053 9.17529 10.0518 9.19426 10.0507L9.19518 10.1264L9.24814 10.1223C9.24923 10.132 9.25041 10.1416 9.25159 10.1512C9.25522 10.1807 9.25885 10.2102 9.25977 10.24C9.28411 10.2386 9.3086 10.2375 9.33309 10.2367C9.33339 10.2645 9.33339 10.2926 9.33293 10.3206C9.35038 10.3188 9.36798 10.3169 9.38543 10.3153C9.38589 10.3409 9.38666 10.3667 9.38757 10.3926L9.44512 10.3882C9.44604 10.4118 9.44742 10.4355 9.44987 10.4592C9.45492 10.4817 9.46012 10.5042 9.46548 10.5267L9.47298 10.5031L9.50941 10.5039C9.50956 10.5283 9.51001 10.5529 9.51046 10.5776L9.51048 10.5783L9.56772 10.5741C9.56862 10.605 9.57237 10.6358 9.57611 10.6665C9.57744 10.6774 9.57876 10.6883 9.57996 10.6992C9.59757 10.6978 9.61532 10.6966 9.63308 10.6955C9.63246 10.7233 9.63231 10.7512 9.63246 10.7792L9.69017 10.7755C9.69143 10.7971 9.69418 10.8186 9.69694 10.8401C9.69918 10.8576 9.70143 10.8751 9.70287 10.8927C9.72001 10.8914 9.73716 10.8904 9.75444 10.8893C9.75953 10.889 9.76464 10.8887 9.76975 10.8884C9.76975 10.914 9.77006 10.9395 9.77037 10.9651L9.82776 10.9619C9.82909 10.9832 9.83183 11.0044 9.83456 11.0256C9.83685 11.0435 9.83915 11.0613 9.84062 11.0792C9.85776 11.0774 9.8749 11.0757 9.8922 11.0741C9.89235 11.0994 9.89266 11.1248 9.89296 11.1502C9.9124 11.1493 9.93184 11.1482 9.95143 11.147C9.95143 11.1751 9.95471 11.2031 9.95799 11.2311C9.95982 11.2467 9.96165 11.2623 9.96291 11.278C9.98204 11.2774 10.0012 11.2784 10.0202 11.2812C10.0217 11.3054 10.0228 11.3298 10.0231 11.3541C10.0396 11.3521 10.0561 11.3501 10.0728 11.3482C10.0739 11.3727 10.0751 11.3977 10.0849 11.4208C10.0844 11.4319 10.0838 11.4541 10.0835 11.4653C10.1033 11.464 10.1232 11.4629 10.1431 11.462C10.1437 11.4873 10.1443 11.5127 10.1447 11.5381C10.1523 11.5377 10.1599 11.5372 10.1675 11.5368C10.1823 11.5359 10.1971 11.535 10.2119 11.534C10.2124 11.5587 10.2152 11.5832 10.2181 11.6077C10.2204 11.627 10.2226 11.6463 10.2237 11.6657C10.2435 11.6656 10.2631 11.6656 10.2828 11.6659L10.2814 11.7395C10.2989 11.738 10.3165 11.7366 10.3341 11.7352C10.3354 11.7463 10.3369 11.7573 10.3385 11.7684C10.3423 11.7962 10.3461 11.8241 10.3472 11.8522C10.3658 11.8507 10.3843 11.8493 10.4029 11.8482C10.4032 11.8729 10.4037 11.8975 10.4041 11.9224L10.4042 11.9237C10.4227 11.9225 10.4412 11.9214 10.4599 11.9205C10.4593 11.9433 10.4588 11.9662 10.4585 11.9893L10.517 11.9856C10.517 11.9904 10.5169 11.9952 10.5168 12C10.5164 12.0248 10.516 12.0499 10.5265 12.073L10.5263 12.1181C10.5442 12.1167 10.5624 12.1153 10.5805 12.1141C10.5808 12.1391 10.5812 12.1641 10.5817 12.1892L10.5817 12.1905C10.6057 12.1896 10.6298 12.1887 10.654 12.1874C10.655 12.214 10.6584 12.2404 10.6619 12.2668C10.6635 12.2794 10.6651 12.292 10.6665 12.3047C10.6835 12.3028 10.7005 12.3011 10.7176 12.2995C10.7179 12.3254 10.7184 12.3513 10.7192 12.3772C10.7359 12.376 10.7525 12.3747 10.7693 12.3733L10.7766 12.3727C10.7776 12.3971 10.7798 12.4212 10.7821 12.4454C10.7843 12.4696 10.7865 12.4938 10.7876 12.5181C10.8046 12.5161 10.8216 12.5141 10.8385 12.5122C10.8389 12.5429 10.8395 12.5736 10.84 12.6043C10.8418 12.6994 10.8435 12.7946 10.8396 12.8896C10.8228 12.8873 10.8059 12.8851 10.7891 12.8831C10.7898 12.9208 10.7865 12.9583 10.7832 12.9958C10.7823 13.0063 10.7814 13.0168 10.7805 13.0273L10.7288 13.0229C10.7271 13.0379 10.7249 13.0527 10.7227 13.0676C10.7192 13.0912 10.7157 13.1147 10.7144 13.1386C10.6941 13.1374 10.6739 13.1364 10.6537 13.1358C10.6541 13.1571 10.6549 13.1783 10.6558 13.1997C10.6527 13.1996 10.6496 13.1995 10.6466 13.1994C10.6207 13.1985 10.5944 13.1977 10.5701 13.2081L10.57 13.2081C10.5561 13.2087 10.5287 13.2099 10.515 13.2104C10.5168 13.2276 10.5187 13.2448 10.5208 13.2623C10.3544 13.2763 10.1874 13.2724 10.0211 13.2622L10.0269 13.2102C10.0088 13.2091 9.99092 13.2081 9.97301 13.2067C9.95021 13.1988 9.92618 13.198 9.90245 13.198C9.90261 13.1769 9.90261 13.156 9.90261 13.135C9.8824 13.1361 9.8622 13.1375 9.84215 13.1391C9.84086 13.1155 9.83758 13.0921 9.83431 13.0688C9.83214 13.0533 9.82996 13.0379 9.82837 13.0223C9.81154 13.0239 9.79501 13.0257 9.77848 13.0276C9.77815 13.0248 9.77783 13.0221 9.7775 13.0193C9.77214 12.974 9.76679 12.9289 9.76838 12.8834C9.76098 12.8839 9.75358 12.8843 9.74619 12.8848C9.73139 12.8857 9.71659 12.8866 9.7018 12.8876C9.7005 12.8679 9.69877 12.8483 9.69704 12.8287C9.69468 12.802 9.69232 12.7753 9.69108 12.7485C9.67425 12.7504 9.65756 12.7522 9.64103 12.7543C9.63986 12.7304 9.63735 12.7068 9.63484 12.6831C9.63277 12.6637 9.63071 12.6443 9.6294 12.6248L9.5792 12.6305C9.57861 12.5966 9.57555 12.5629 9.5725 12.5293C9.5716 12.5194 9.5707 12.5094 9.56986 12.4995C9.55272 12.5012 9.53573 12.5031 9.51874 12.505C9.5192 12.4749 9.51905 12.4447 9.51262 12.4153C9.51124 12.3963 9.51002 12.3774 9.50925 12.3584L9.45874 12.3651C9.45918 12.3367 9.45552 12.3085 9.45186 12.2804C9.4478 12.2492 9.44375 12.2181 9.44528 12.1865C9.42859 12.1885 9.41191 12.1907 9.39538 12.1929L9.39532 12.1924C9.38983 12.149 9.38436 12.1057 9.38421 12.062L9.37926 12.0626C9.36405 12.0644 9.34873 12.0663 9.33355 12.0682C9.33278 12.0443 9.33186 12.0205 9.33094 11.9967C9.32727 11.9718 9.32559 11.9467 9.32436 11.9215L9.25732 11.9251C9.25648 11.9161 9.25559 11.9071 9.25469 11.8981C9.25135 11.8645 9.24801 11.831 9.24753 11.7972C9.23084 11.7991 9.21431 11.8011 9.19778 11.8033C9.19626 11.7819 9.19413 11.7607 9.192 11.7395C9.18944 11.714 9.18689 11.6885 9.18539 11.6629C9.16901 11.6648 9.15263 11.6668 9.13626 11.669C9.135 11.6489 9.13291 11.6289 9.13083 11.609C9.12784 11.5804 9.12486 11.5519 9.12432 11.5231C9.10763 11.5251 9.0911 11.5271 9.07457 11.5293C9.07444 11.4925 9.07068 11.4557 9.06692 11.4191C9.06625 11.4126 9.06558 11.4061 9.06493 11.3995L9.01396 11.4047C9.01289 11.3794 9.01121 11.3543 9.00723 11.3295C9.00646 11.3157 9.00463 11.2879 9.00371 11.2741C8.98672 11.276 8.96988 11.278 8.95305 11.28C8.95348 11.2492 8.95003 11.2188 8.94659 11.1883C8.94273 11.1542 8.93888 11.1201 8.9405 11.0857C8.92381 11.0876 8.90713 11.0896 8.89045 11.0918C8.88954 11.0835 8.88859 11.0753 8.88764 11.0671C8.88358 11.032 8.87952 10.997 8.87928 10.9617L8.81331 10.9668C8.81239 10.9481 8.81132 10.9295 8.81025 10.9109C8.8052 10.8862 8.80367 10.8614 8.80244 10.8366L8.75331 10.8426C8.75216 10.8279 8.7507 10.8132 8.74924 10.7985C8.74585 10.7645 8.74248 10.7304 8.7429 10.6961L8.74277 10.6961C8.72613 10.698 8.70949 10.6999 8.69301 10.7019C8.69158 10.685 8.68971 10.6683 8.68784 10.6515C8.68491 10.6252 8.68198 10.5988 8.68076 10.5724L8.63132 10.5784C8.6299 10.5552 8.62771 10.5321 8.62551 10.509C8.62323 10.4849 8.62095 10.4609 8.61954 10.4367C8.60316 10.4388 8.58679 10.4409 8.57056 10.4433C8.56998 10.4099 8.56615 10.3768 8.56233 10.3438C8.56117 10.3338 8.56 10.3237 8.55893 10.3136L8.50827 10.3192C8.51014 10.2835 8.50635 10.2481 8.50256 10.2126C8.49892 10.1787 8.49529 10.1448 8.49664 10.1105L8.44674 10.1178C8.44719 10.095 8.44749 10.0721 8.44779 10.0494L8.44781 10.0476C8.4599 10.0495 8.48439 10.0535 8.49648 10.0555C8.49534 10.0234 8.49849 9.9916 8.50165 9.95981C8.50442 9.93188 8.50719 9.90395 8.50704 9.87581L8.57117 9.87628C8.57026 9.85132 8.56918 9.82651 8.56796 9.8017C8.58695 9.80018 8.60584 9.79758 8.62474 9.79498C8.64437 9.79227 8.66402 9.78956 8.68382 9.78806Z" fill="white"/>
<path fill-rule="evenodd" clip-rule="evenodd" d="M12.291 12.0562C12.8668 12.0664 13.4428 12.0557 14.0186 12.062C14.0178 12.0839 14.0173 12.1059 14.0169 12.1279C14.0299 12.1267 14.0556 12.1241 14.0685 12.1228C14.0721 12.1622 14.0787 12.2013 14.0809 12.241C14.1024 12.2393 14.124 12.2377 14.1459 12.2363C14.1508 12.2786 14.1574 12.321 14.158 12.3639C14.1768 12.3624 14.1958 12.361 14.2148 12.3599C14.2157 12.3869 14.2169 12.414 14.2186 12.4411C14.231 12.4363 14.2558 12.4269 14.2682 12.422C14.269 12.4707 14.2771 12.5189 14.2794 12.5678C14.2924 12.5662 14.3182 12.5631 14.3311 12.5617C14.3306 12.587 14.3303 12.6124 14.33 12.638C14.3498 12.6377 14.3697 12.6372 14.3897 12.6369C14.3905 12.6796 14.3968 12.7219 14.4013 12.7644C14.4136 12.763 14.4384 12.76 14.4508 12.7586C14.454 12.7983 14.4613 12.8377 14.4638 12.8777C14.4767 12.8758 14.5021 12.8723 14.5149 12.8704C14.518 12.9027 14.5204 12.9348 14.5221 12.9673C14.5437 12.9656 14.5654 12.9641 14.5873 12.9624C14.5881 12.9864 14.5882 13.011 14.5968 13.034C14.5976 13.0478 14.5991 13.0752 14.5999 13.089C14.6165 13.0872 14.6334 13.0855 14.6504 13.0837C14.654 13.1231 14.6605 13.1624 14.6625 13.2022C14.681 13.2006 14.6997 13.1994 14.7185 13.1985C14.7188 13.2242 14.7191 13.2501 14.7196 13.2762C14.7368 13.2744 14.7543 13.2727 14.7719 13.2712C14.774 13.3162 14.7818 13.3608 14.7832 13.4059C14.7998 13.4042 14.8163 13.4025 14.8331 13.401C14.8373 13.4436 14.844 13.4859 14.8458 13.5289C14.8584 13.5273 14.8833 13.5244 14.8959 13.5228C14.8972 13.5498 14.8986 13.5769 14.9014 13.6039C14.9147 13.6022 14.9413 13.5988 14.9546 13.5969C14.956 13.6397 14.9634 13.682 14.9684 13.7245C14.9897 13.723 15.0111 13.7216 15.0327 13.7202C15.0379 13.7645 15.0456 13.8087 15.0449 13.8537C15.0619 13.8515 15.0789 13.8495 15.0961 13.8476C15.0965 13.8744 15.0971 13.9013 15.0982 13.9282C15.1164 13.9267 15.1349 13.9253 15.1535 13.9237C15.1548 13.9658 15.1622 14.0072 15.1674 14.0489C15.1839 14.0473 15.2008 14.0459 15.2176 14.0445C15.2222 14.0841 15.2282 14.1234 15.2288 14.1634C15.2461 14.1616 15.2634 14.1597 15.281 14.1582C15.2808 14.1841 15.281 14.2101 15.2813 14.2363C15.3004 14.2351 15.3197 14.234 15.339 14.2327C15.3379 14.2808 15.3457 14.3282 15.3509 14.3758C15.3673 14.374 15.3837 14.3723 15.4003 14.3707C15.4042 14.41 15.4106 14.449 15.4124 14.4886C15.4362 14.4872 15.46 14.4861 15.4841 14.4853C15.4841 14.5113 15.4844 14.5375 15.4847 14.5637C15.5018 14.5619 15.5193 14.5602 15.5367 14.5585C15.5381 14.5982 15.5441 14.6375 15.5485 14.6772C15.5652 14.6755 15.5822 14.674 15.5992 14.6727C15.6008 14.7205 15.6088 14.7679 15.6111 14.8158C15.6244 14.8143 15.6509 14.811 15.6642 14.8093C15.6668 14.836 15.6688 14.8628 15.6708 14.8898C15.6833 14.8881 15.7083 14.8848 15.7208 14.8833C15.7242 14.9472 15.7334 15.0107 15.7296 15.0751C15.7107 15.0737 15.6921 15.0723 15.6735 15.071C15.6723 15.0951 15.6716 15.1194 15.6648 15.1428C15.6631 15.1662 15.6621 15.1898 15.6615 15.2134C15.6445 15.2115 15.6275 15.2098 15.6106 15.2081C15.6076 15.2479 15.601 15.2875 15.5987 15.3276C15.586 15.3261 15.5606 15.3231 15.5477 15.3216C15.5474 15.3478 15.547 15.3738 15.5468 15.4003C15.5274 15.3989 15.5081 15.3977 15.4891 15.3963C15.4884 15.4388 15.4827 15.4808 15.4782 15.5231C15.4561 15.5217 15.434 15.5205 15.4121 15.5193C15.4071 15.5633 15.3982 15.6072 15.399 15.6518C15.3818 15.6496 15.3647 15.6476 15.3477 15.6459C15.3471 15.6726 15.3465 15.6993 15.346 15.7262C15.3275 15.7247 15.309 15.7233 15.2906 15.7217C15.2895 15.7458 15.2883 15.77 15.2828 15.7935C15.2817 15.8073 15.2797 15.8348 15.2787 15.8484C15.2615 15.8467 15.2444 15.8451 15.2275 15.8436C15.2245 15.8834 15.2184 15.923 15.2164 15.963C15.1988 15.9613 15.1812 15.9596 15.1639 15.958C15.1639 15.9834 15.1639 16.009 15.164 16.0346C15.1444 16.0337 15.1248 16.0329 15.1054 16.0321C15.1057 16.0613 15.1075 16.0913 15.0974 16.1196C15.0968 16.1334 15.0955 16.1613 15.0948 16.1752C15.078 16.1732 15.0613 16.1713 15.0446 16.1695C15.0414 16.2089 15.0342 16.2479 15.0321 16.2876C15.0094 16.2858 14.9871 16.2844 14.9649 16.2831C14.9647 16.309 14.9646 16.3348 14.9647 16.361C14.9459 16.36 14.9271 16.3593 14.9084 16.3585C14.9064 16.3974 14.8986 16.4358 14.8942 16.4748C14.8778 16.4726 14.8616 16.4706 14.8455 16.4689C14.8444 16.5174 14.8356 16.5655 14.833 16.6141C14.8204 16.6124 14.7952 16.609 14.7825 16.6073C14.7822 16.634 14.7814 16.6606 14.7808 16.6875C14.7616 16.6859 14.7428 16.6845 14.7241 16.683C14.7234 16.7253 14.7166 16.7672 14.7116 16.8092C14.6946 16.8075 14.6778 16.8061 14.6609 16.8047C14.6571 16.8445 14.651 16.8842 14.6493 16.9244C14.6364 16.9227 14.6109 16.9189 14.598 16.9171C14.5944 16.9487 14.5914 16.9803 14.5902 17.0124C14.5683 17.0109 14.5464 17.0095 14.5247 17.0081C14.5233 17.032 14.5218 17.0562 14.5166 17.0799C14.5158 17.094 14.514 17.1222 14.5132 17.1362C14.4962 17.1343 14.4796 17.1324 14.463 17.1307C14.4594 17.1701 14.452 17.2092 14.45 17.2489C14.4329 17.247 14.4159 17.2453 14.3991 17.2439C14.398 17.2579 14.3958 17.2858 14.3946 17.2997C14.3888 17.3284 14.3883 17.3579 14.3893 17.3872C14.3697 17.3856 14.3502 17.3844 14.3308 17.3834C14.33 17.409 14.3297 17.4351 14.3296 17.4611C14.3169 17.4597 14.2913 17.4569 14.2786 17.4555C14.2749 17.4954 14.2688 17.5351 14.267 17.5752C14.2497 17.5731 14.2325 17.5712 14.2155 17.5695C14.2152 17.5952 14.2151 17.6213 14.2151 17.6473C14.1955 17.6461 14.1762 17.6448 14.1569 17.6436C14.1558 17.6861 14.1496 17.7281 14.1453 17.7706C14.1231 17.769 14.1011 17.7678 14.0793 17.7665C14.0784 17.8113 14.0706 17.8557 14.068 17.9005C14.0481 17.8986 14.0284 17.8971 14.0086 17.8957C14.008 17.9172 14.0075 17.9391 14.0075 17.961C13.4397 17.9608 12.8716 17.9597 12.3037 17.9616C12.3046 17.9189 12.2997 17.8765 12.2948 17.8344C12.3195 17.8349 12.3443 17.8358 12.3692 17.8372C12.3685 17.7893 12.3767 17.742 12.3818 17.6948C12.398 17.6963 12.4144 17.698 12.4309 17.6999C12.4346 17.6602 12.4413 17.621 12.4433 17.5813C12.4604 17.583 12.4777 17.5848 12.495 17.5867C12.495 17.5605 12.4952 17.5344 12.4953 17.5086C12.5143 17.5095 12.5335 17.5107 12.5526 17.5123C12.5541 17.4724 12.5601 17.4331 12.5642 17.3937C12.5809 17.3952 12.5976 17.3968 12.6146 17.3986C12.6163 17.351 12.6253 17.3042 12.6277 17.2568C12.646 17.2583 12.6643 17.2599 12.6827 17.2614C12.6835 17.2348 12.6841 17.2082 12.6847 17.1819C12.7017 17.1834 12.7188 17.1853 12.7361 17.1873C12.7381 17.1476 12.7447 17.1084 12.7483 17.0692C12.7701 17.0704 12.7918 17.0717 12.8139 17.0732C12.8197 17.0256 12.8267 16.9782 12.825 16.9301C12.8423 16.932 12.8596 16.9338 12.8771 16.9357C12.8774 16.9093 12.8778 16.8831 12.8784 16.8571C12.8973 16.8582 12.9161 16.8596 12.9352 16.8613C12.9368 16.8214 12.943 16.782 12.9469 16.7425C12.9638 16.7441 12.9808 16.7459 12.998 16.7478C12.9983 16.7216 12.9989 16.6957 12.9998 16.6698C13.0189 16.671 13.0382 16.6726 13.0577 16.6743C13.0578 16.632 13.0612 16.5896 13.0633 16.5476C13.082 16.5486 13.1007 16.5498 13.1195 16.5512C13.1186 16.5033 13.1272 16.4562 13.1322 16.4089C13.1486 16.4103 13.165 16.412 13.1816 16.4138C13.1856 16.3743 13.1916 16.3352 13.1933 16.2957C13.217 16.2968 13.2407 16.2977 13.2648 16.2989C13.2651 16.2727 13.2655 16.2469 13.2661 16.221C13.2833 16.2225 13.3006 16.2242 13.318 16.2262C13.3202 16.1862 13.3266 16.1469 13.33 16.1073C13.3465 16.1089 13.363 16.1106 13.3799 16.1124C13.3806 16.0648 13.3903 16.0182 13.3924 15.9707C13.4117 15.971 13.4311 15.9715 13.4506 15.9721C13.4498 15.9462 13.4493 15.9206 13.4489 15.8952C13.4663 15.8968 13.4838 15.8985 13.5015 15.9005C13.5032 15.8605 13.5095 15.8211 13.5133 15.7816C13.53 15.783 13.5468 15.7845 13.5637 15.7862C13.5684 15.7439 13.575 15.7019 13.5759 15.6594C13.5944 15.661 13.6131 15.6625 13.6319 15.6639C13.6324 15.6329 13.6332 15.6019 13.6333 15.571C13.6558 15.5721 13.6786 15.5734 13.7013 15.5751C13.7034 15.5351 13.7094 15.4957 13.7123 15.456C13.7288 15.4575 13.7454 15.4593 13.7622 15.4611C13.7672 15.4188 13.7743 15.3766 13.7749 15.334C13.7936 15.3354 13.8122 15.3369 13.8311 15.3383C13.8317 15.3118 13.8323 15.2853 13.8329 15.2591C13.8497 15.2608 13.8667 15.2627 13.8839 15.2648C13.8866 15.2197 13.8949 15.1752 13.8958 15.1301C13.9126 15.1318 13.9296 15.1337 13.9468 15.1355C13.9475 15.1219 13.9489 15.0944 13.9497 15.0806C13.959 15.0524 13.9583 15.0224 13.9587 14.9932C13.971 14.9952 13.9953 14.9991 14.0074 15.001C14.0072 14.9827 14.0072 14.9644 14.0075 14.9462C13.9945 14.9479 13.9685 14.951 13.9553 14.9527C13.955 14.9259 13.9546 14.8991 13.9543 14.8724C13.935 14.8735 13.916 14.8749 13.897 14.8763C13.8964 14.834 13.8892 14.7921 13.8842 14.7503C13.8673 14.7517 13.8507 14.7532 13.8341 14.7549C13.8323 14.71 13.8243 14.6656 13.8223 14.6208C13.8035 14.6224 13.7847 14.6237 13.7662 14.6253C13.7652 14.5982 13.7646 14.5713 13.7645 14.5445C13.7476 14.5467 13.731 14.5489 13.7143 14.551C13.7126 14.5115 13.7056 14.4724 13.7014 14.4332C13.6798 14.4346 13.6583 14.4358 13.637 14.4374C13.6321 14.3951 13.6249 14.3532 13.6238 14.3106C13.6047 14.312 13.5859 14.3132 13.567 14.3146C13.5666 14.283 13.5661 14.2515 13.5661 14.22C13.549 14.2219 13.5318 14.2237 13.5148 14.2259C13.5124 14.1819 13.5047 14.1385 13.5009 14.0949C13.4894 14.1005 13.4663 14.1115 13.4547 14.1171C13.4523 14.0966 13.45 14.0762 13.4478 14.0558C13.4426 14.0324 13.4412 14.0084 13.4403 13.9848C13.4209 13.9859 13.4014 13.9872 13.3822 13.9884C13.382 13.9622 13.3818 13.9362 13.3818 13.9101C13.3649 13.912 13.3479 13.914 13.331 13.9162C13.3283 13.871 13.32 13.8265 13.3192 13.7816C13.3023 13.783 13.2854 13.7845 13.2687 13.7862C13.2638 13.7442 13.2573 13.7025 13.2562 13.6602C13.2323 13.6614 13.2084 13.6624 13.1847 13.6636C13.1841 13.6371 13.1836 13.6107 13.1833 13.5844C13.1662 13.5861 13.1492 13.5881 13.1322 13.5901C13.1304 13.5503 13.1238 13.511 13.12 13.4715C13.103 13.4729 13.086 13.4744 13.0692 13.4762C13.0632 13.4286 13.0566 13.3811 13.0581 13.3332C13.0456 13.3348 13.0203 13.3379 13.0078 13.3394C13.0047 13.3123 13.0013 13.2851 12.9984 13.2582C12.9859 13.26 12.9608 13.2637 12.9482 13.2656C12.9459 13.2255 12.9394 13.1858 12.936 13.1458C12.9192 13.1475 12.9022 13.1493 12.8855 13.1512C12.8847 13.1374 12.883 13.1096 12.8823 13.0958C12.8739 13.0727 12.8735 13.0481 12.8728 13.0241C12.8561 13.0261 12.8397 13.0281 12.8233 13.0303C12.8207 13.0031 12.818 12.9763 12.8155 12.9493C12.793 12.9509 12.7707 12.9527 12.7485 12.9548C12.7488 12.9096 12.7407 12.8655 12.7366 12.8208C12.7197 12.8225 12.7032 12.8242 12.6867 12.8261C12.6816 12.7834 12.6753 12.7411 12.675 12.6983C12.6562 12.6997 12.6374 12.701 12.6186 12.7024C12.6181 12.6758 12.6178 12.6495 12.6176 12.6231C12.6003 12.6248 12.5832 12.6267 12.5661 12.6286C12.5641 12.5889 12.5573 12.5496 12.5534 12.5103C12.5364 12.512 12.5194 12.5137 12.5025 12.5154C12.5018 12.4915 12.5009 12.4678 12.4996 12.4442C12.4912 12.4214 12.4911 12.3972 12.4901 12.3735C12.4715 12.3749 12.4529 12.3763 12.4344 12.3777C12.434 12.3512 12.4337 12.3248 12.4335 12.2985C12.4161 12.3002 12.3988 12.3019 12.3816 12.3037C12.3795 12.2641 12.3731 12.2247 12.37 12.1851C12.3476 12.1865 12.3255 12.1879 12.3034 12.1895C12.3028 12.1758 12.3016 12.1486 12.301 12.1351C12.2953 12.109 12.293 12.0825 12.291 12.0562Z" fill="white"/>
<path fill-rule="evenodd" clip-rule="evenodd" d="M14.8413 12.0619C15.415 12.0586 15.9889 12.0606 16.5627 12.0611C16.5609 12.0794 16.5592 12.0977 16.5577 12.1161C16.5773 12.1147 16.5972 12.1137 16.6172 12.1126C16.6175 12.1385 16.6178 12.1644 16.6183 12.1904C16.6356 12.1885 16.6529 12.1868 16.6705 12.1851C16.6722 12.225 16.6777 12.2647 16.6809 12.3045C16.7032 12.3031 16.7256 12.3019 16.7482 12.3009C16.7493 12.3141 16.7514 12.3405 16.7524 12.3537C16.7576 12.3774 16.7589 12.4017 16.7602 12.4262C16.7785 12.4245 16.7971 12.4231 16.8157 12.422C16.816 12.4535 16.8165 12.4851 16.8168 12.5168C16.8339 12.5149 16.8512 12.5132 16.8685 12.5113C16.8704 12.5512 16.8768 12.5906 16.8805 12.6304C16.897 12.6285 16.9137 12.627 16.9305 12.6254C16.9354 12.6675 16.9422 12.7095 16.9432 12.7521C16.9619 12.7506 16.9809 12.7492 17 12.7479C17.0003 12.7741 17.0006 12.8003 17.0011 12.8267C17.0181 12.8247 17.0352 12.823 17.0525 12.8211C17.0551 12.8661 17.0629 12.9107 17.0638 12.9558C17.0813 12.9543 17.0989 12.9527 17.1168 12.9513C17.1168 12.9769 17.1171 13.0027 17.1176 13.0285C17.1411 13.0275 17.165 13.0265 17.1889 13.0251C17.1896 13.049 17.1909 13.073 17.1968 13.0963C17.1979 13.1102 17.2001 13.1382 17.2011 13.152C17.2177 13.1501 17.2345 13.1482 17.2516 13.1465C17.2539 13.1862 17.2607 13.2258 17.2637 13.2656C17.2804 13.2636 17.2974 13.2619 17.3145 13.2602C17.3153 13.2741 17.317 13.302 17.3178 13.316C17.3279 13.3437 17.326 13.3733 17.3256 13.4025C17.3445 13.4009 17.3635 13.3997 17.3828 13.3986C17.3828 13.424 17.383 13.4496 17.3834 13.4754C17.4009 13.474 17.4186 13.4726 17.4365 13.4713C17.4402 13.511 17.4462 13.5506 17.448 13.5906C17.4642 13.5884 17.4806 13.5865 17.4973 13.5847C17.5025 13.6271 17.5092 13.6699 17.51 13.713C17.5285 13.7112 17.5472 13.7095 17.566 13.7081C17.5669 13.7338 17.5677 13.7597 17.5685 13.7858C17.5908 13.7844 17.6131 13.7831 17.6358 13.7817C17.636 13.827 17.643 13.8718 17.6458 13.9169C17.6629 13.9151 17.6802 13.9135 17.6978 13.912C17.6979 13.9377 17.6984 13.9637 17.6992 13.9898C17.7178 13.9882 17.7368 13.9868 17.756 13.9854C17.7563 14.0282 17.763 14.0704 17.7683 14.1129C17.7847 14.111 17.8013 14.1092 17.8181 14.1076C17.821 14.1471 17.8277 14.1865 17.8303 14.2264C17.843 14.225 17.8686 14.2222 17.8813 14.2208C17.8825 14.2527 17.8845 14.2848 17.8879 14.3168C17.9047 14.3146 17.9219 14.3126 17.9392 14.3106C17.9399 14.3349 17.9405 14.3597 17.9482 14.3833C17.9488 14.3971 17.9502 14.4245 17.9509 14.4383C17.9676 14.4365 17.9846 14.4347 18.0018 14.433C18.0047 14.4726 18.0112 14.512 18.0138 14.5516C18.0356 14.5498 18.0575 14.5482 18.0797 14.5468C18.0804 14.5653 18.0817 14.584 18.0833 14.6028C18.0901 14.6259 18.0908 14.6499 18.0919 14.674C18.1103 14.6724 18.1289 14.671 18.1478 14.6698C18.1479 14.7014 18.1479 14.733 18.1482 14.7648C18.1654 14.763 18.1825 14.7611 18.2 14.7594C18.2024 14.7989 18.2098 14.8378 18.2131 14.8774C18.2298 14.8757 18.2468 14.874 18.2639 14.8724C18.2649 14.8862 18.2669 14.9137 18.2678 14.9275C18.2857 14.996 18.2678 15.0664 18.2616 15.1354C18.245 15.1335 18.2283 15.1318 18.2119 15.1301C18.2105 15.1749 18.2021 15.2191 18.1997 15.2639C18.1811 15.2623 18.1628 15.2609 18.1446 15.2599C18.1439 15.2861 18.1435 15.3126 18.1432 15.3391C18.1257 15.3372 18.1086 15.3355 18.0916 15.334C18.0896 15.3732 18.0823 15.412 18.0783 15.4512C18.0567 15.4495 18.0353 15.4481 18.014 15.4468C18.0097 15.4895 18.003 15.532 18.0013 15.5751C17.9886 15.5737 17.9632 15.5707 17.9503 15.5693C17.9493 15.6014 17.9465 15.6337 17.9431 15.6658C17.9304 15.6639 17.9052 15.6602 17.8925 15.6583C17.8902 15.6982 17.8831 15.7374 17.8793 15.7772C17.8622 15.7754 17.8452 15.7735 17.8283 15.772C17.828 15.798 17.8277 15.824 17.8276 15.8502C17.8081 15.8489 17.7889 15.8476 17.7699 15.8462C17.7696 15.8889 17.7633 15.931 17.7584 15.9735C17.7413 15.9716 17.7244 15.9699 17.7077 15.9684C17.7048 16.0133 17.6969 16.0578 17.6964 16.1031C17.6796 16.1013 17.6629 16.0996 17.6464 16.098C17.6418 16.1403 17.6353 16.1827 17.6344 16.2254C17.6101 16.2239 17.5859 16.2227 17.562 16.2219C17.561 16.2478 17.5603 16.2737 17.56 16.2999C17.5429 16.2977 17.5258 16.2958 17.5089 16.294C17.5071 16.3372 17.5 16.3799 17.4962 16.4231C17.484 16.4216 17.4595 16.4185 17.4471 16.4169C17.443 16.4617 17.4358 16.5064 17.4361 16.5516C17.4165 16.5502 17.397 16.5492 17.3776 16.5484C17.3774 16.5738 17.3773 16.5994 17.3773 16.6251C17.3598 16.6233 17.3425 16.6214 17.3254 16.6199C17.3233 16.6596 17.3168 16.6989 17.3135 16.7388C17.2968 16.7369 17.2801 16.7352 17.2639 16.7337C17.2588 16.7757 17.2516 16.8177 17.2501 16.8602C17.2316 16.8585 17.2132 16.8569 17.195 16.8555C17.1941 16.8817 17.1935 16.9081 17.1932 16.9346C17.1705 16.933 17.148 16.9316 17.1258 16.9302C17.126 16.9752 17.1188 17.0197 17.1145 17.0644C17.0977 17.0625 17.0811 17.0608 17.0646 17.0594C17.0595 17.1014 17.0527 17.1434 17.0516 17.1861C17.0328 17.1844 17.0141 17.1828 16.9957 17.1816C16.9948 17.2076 16.9942 17.234 16.9939 17.2603C16.9764 17.2585 16.9593 17.2566 16.9423 17.2549C16.9394 17.3 16.9317 17.3447 16.9313 17.3901C16.9138 17.3882 16.8965 17.3865 16.8792 17.3851C16.8786 17.411 16.878 17.4369 16.8776 17.4631C16.8586 17.4616 16.8398 17.4602 16.8211 17.4588C16.8206 17.5017 16.8144 17.5444 16.8095 17.5871C16.7928 17.5853 16.7762 17.5834 16.76 17.5817C16.7577 17.6209 16.7502 17.6597 16.7465 17.6991C16.7248 17.6974 16.7032 17.696 16.682 17.6949C16.6758 17.7419 16.668 17.7892 16.6697 17.8371C16.6504 17.8355 16.6314 17.8341 16.6126 17.833C16.6122 17.858 16.6119 17.883 16.6119 17.9081C16.5878 17.9085 16.5638 17.9095 16.5401 17.9109C16.5467 17.9227 16.5601 17.9464 16.5669 17.9582C15.9927 17.9642 15.4183 17.9586 14.8442 17.9609C14.8456 17.922 14.8454 17.8833 14.8442 17.8447C14.8617 17.8464 14.8793 17.8481 14.897 17.8501C14.8969 17.8182 14.8975 17.7864 14.8981 17.7549C14.9166 17.7561 14.9354 17.7575 14.9543 17.7594C14.9552 17.7351 14.9558 17.7107 14.9633 17.6876C14.9641 17.6738 14.9657 17.6461 14.9665 17.6323C14.9884 17.6337 15.0103 17.6351 15.0323 17.6369C15.0345 17.5969 15.0407 17.5575 15.044 17.518C15.0608 17.5196 15.0778 17.5213 15.0949 17.5231C15.0958 17.5095 15.0977 17.4822 15.0986 17.4684C15.1053 17.445 15.1062 17.4206 15.1073 17.3968C15.1257 17.3982 15.1442 17.3997 15.1629 17.4014C15.1636 17.3701 15.1646 17.3389 15.165 17.3081C15.1823 17.3093 15.1996 17.3109 15.2171 17.3127C15.2204 17.2727 15.2264 17.233 15.2284 17.1932C15.2454 17.1949 15.2627 17.1968 15.28 17.1988C15.28 17.1724 15.2803 17.1462 15.2806 17.1202C15.2996 17.1211 15.3185 17.1225 15.3378 17.124C15.3384 17.0813 15.3446 17.0388 15.3491 16.9966C15.366 16.9982 15.383 16.9999 15.4001 17.0017C15.4 16.9568 15.4084 16.9126 15.4121 16.8681C15.4336 16.8695 15.4555 16.8707 15.4776 16.8723C15.4829 16.8301 15.4892 16.7881 15.4895 16.7456C15.5083 16.747 15.5273 16.7484 15.5463 16.7498C15.5467 16.7233 15.5475 16.6971 15.5478 16.6709C15.5607 16.6723 15.5862 16.6752 15.5991 16.6768C15.6014 16.6366 15.6075 16.5969 15.6101 16.5569C15.6273 16.5585 15.6444 16.56 15.6617 16.5617C15.6615 16.5368 15.6618 16.5118 15.6631 16.487C15.662 16.4572 15.7026 16.4751 15.7202 16.4709C15.7209 16.447 15.7223 16.4233 15.728 16.4003C15.7289 16.3865 15.7307 16.3591 15.7316 16.3453C15.7483 16.347 15.7653 16.3487 15.7823 16.3506C15.7852 16.3109 15.7921 16.2716 15.7947 16.2321C15.8114 16.2337 15.8281 16.2354 15.845 16.2372C15.8503 16.1949 15.8565 16.1529 15.8568 16.1104C15.8809 16.1118 15.9049 16.1127 15.9294 16.1138C15.9295 16.0828 15.93 16.0518 15.9303 16.0211C15.9474 16.0225 15.9647 16.024 15.982 16.0258C15.9862 15.9861 15.9926 15.9468 15.9944 15.907C16.0113 15.9089 16.0284 15.9109 16.0456 15.9129C16.0457 15.8864 16.0459 15.8599 16.0463 15.8335C16.0651 15.8346 16.084 15.8358 16.1029 15.8375C16.1046 15.7978 16.1112 15.7586 16.1153 15.7194C16.1317 15.7209 16.1481 15.7228 16.1646 15.7247C16.1694 15.6766 16.1772 15.629 16.1766 15.5808C16.1939 15.5823 16.2113 15.5842 16.2289 15.5859C16.2291 15.5597 16.2297 15.5337 16.2304 15.5076C16.249 15.5089 16.2678 15.5102 16.2866 15.512C16.2878 15.4693 16.2949 15.4273 16.2996 15.3851C16.3211 15.3864 16.3426 15.3878 16.3645 15.3893C16.3688 15.3501 16.3758 15.3113 16.3777 15.2721C16.3945 15.2738 16.4115 15.2758 16.4287 15.2778C16.4288 15.2509 16.429 15.2242 16.4294 15.1975C16.4481 15.1988 16.4669 15.2 16.4859 15.2016C16.4848 15.1568 16.4928 15.1126 16.4984 15.0685C16.5151 15.0702 16.532 15.072 16.549 15.074C16.5494 15.027 16.5508 14.98 16.5516 14.9332C16.5341 14.9349 16.5168 14.9366 16.4997 14.9386C16.4972 14.8991 16.4897 14.8602 16.4862 14.8209C16.4695 14.8225 16.453 14.8242 16.4366 14.8261C16.4305 14.7786 16.4234 14.7312 16.4254 14.6833C16.4055 14.684 16.3858 14.685 16.3662 14.6858C16.3659 14.66 16.3659 14.6346 16.3661 14.6092C16.3436 14.6106 16.3214 14.6121 16.2992 14.614C16.297 14.5741 16.2912 14.5346 16.2883 14.4949C16.2702 14.4963 16.2525 14.4977 16.2347 14.4991C16.2346 14.4734 16.2344 14.4476 16.2344 14.422C16.2154 14.4231 16.1966 14.4245 16.1779 14.4261C16.1776 14.3831 16.1706 14.3408 16.1655 14.2985C16.1487 14.3002 16.132 14.302 16.1157 14.304C16.1157 14.2588 16.1077 14.2143 16.1039 14.1696C16.0866 14.1712 16.0694 14.1729 16.0526 14.1746C16.0523 14.1485 16.052 14.1225 16.0517 14.0965C16.0324 14.0975 16.0133 14.0988 15.9943 14.1003C15.9943 14.058 15.988 14.0161 15.9826 13.9744C15.9655 13.9758 15.9484 13.9774 15.9314 13.9789C15.9285 13.9391 15.9226 13.8996 15.9205 13.8599C15.8982 13.8614 15.8758 13.8628 15.8538 13.8644C15.8536 13.8332 15.8529 13.802 15.8522 13.7709C15.8333 13.7721 15.8143 13.7735 15.7956 13.7752C15.7945 13.7507 15.7935 13.7264 15.7872 13.703C15.7863 13.6895 15.7844 13.6625 15.7837 13.649C15.7664 13.6504 15.7492 13.652 15.7322 13.6538C15.7287 13.6138 15.7229 13.5741 15.7214 13.534C15.7041 13.5358 15.6869 13.5377 15.6701 13.5396C15.6692 13.513 15.6684 13.4867 15.6675 13.4603C15.6488 13.4617 15.6305 13.4633 15.6121 13.4651C15.611 13.4406 15.6107 13.416 15.6028 13.3929C15.6014 13.3692 15.6005 13.3458 15.6 13.3223C15.583 13.324 15.566 13.3258 15.5493 13.3278C15.5457 13.2881 15.5386 13.2489 15.5366 13.2092C15.5195 13.211 15.5025 13.213 15.4857 13.2151C15.4851 13.1884 15.4844 13.1619 15.484 13.1354C15.4601 13.1363 15.4367 13.1374 15.4131 13.1389C15.4121 13.1149 15.4111 13.0909 15.4046 13.0679C15.4036 13.0541 15.4018 13.0265 15.4009 13.0126C15.3837 13.0143 15.3666 13.0161 15.3498 13.018C15.3475 12.9662 15.3387 12.9149 15.3357 12.8633C15.3239 12.8702 15.3003 12.8842 15.2885 12.8912C15.2875 12.8637 15.2864 12.8365 15.2853 12.8092C15.2665 12.8106 15.2478 12.8121 15.2293 12.814C15.2282 12.7713 15.2218 12.7293 15.2172 12.6873C15.2002 12.6887 15.1834 12.6902 15.1666 12.692C15.1629 12.6523 15.1563 12.613 15.1543 12.5732C15.1372 12.5752 15.1202 12.5771 15.1033 12.5791C15.1027 12.5524 15.1023 12.5258 15.102 12.4992C15.0828 12.5003 15.0639 12.5017 15.045 12.5033C15.0452 12.474 15.0478 12.4437 15.0366 12.4161C15.0352 12.3978 15.0343 12.3796 15.0337 12.3613C15.0117 12.3627 14.9896 12.3644 14.9677 12.3661C14.9642 12.3264 14.9573 12.2873 14.9552 12.2476C14.9382 12.2496 14.9215 12.2516 14.9048 12.2538C14.9041 12.227 14.9034 12.2003 14.9025 12.1738C14.8834 12.1751 14.8644 12.1766 14.8456 12.1783C14.8459 12.1394 14.8439 12.1005 14.8413 12.0619Z" fill="white"/>
<path fill-rule="evenodd" clip-rule="evenodd" d="M17.3845 12.0644C17.6586 12.0551 17.9331 12.0625 18.2073 12.0602C18.5216 12.0618 18.8358 12.0571 19.1499 12.0628C19.1532 12.1016 19.1598 12.1401 19.1621 12.179C19.1808 12.1774 19.1996 12.1762 19.2187 12.1749C19.219 12.2016 19.2197 12.2283 19.2201 12.2549C19.2366 12.2528 19.2535 12.2506 19.2703 12.2486C19.2719 12.2883 19.2784 12.3275 19.2829 12.367C19.2994 12.3653 19.3159 12.3638 19.3328 12.3624C19.3383 12.409 19.3462 12.4557 19.345 12.503C19.3698 12.5022 19.3948 12.5022 19.42 12.5024C19.4192 12.5281 19.4189 12.554 19.4188 12.5799C19.4315 12.5782 19.4572 12.5749 19.4699 12.5734C19.4714 12.6132 19.4779 12.6526 19.4822 12.6923C19.499 12.6906 19.516 12.6889 19.5331 12.6873C19.534 12.7013 19.5357 12.7289 19.5366 12.7427C19.5434 12.7661 19.5441 12.7906 19.5455 12.8149C19.559 12.8131 19.5858 12.8097 19.5992 12.808C19.6014 12.8349 19.6028 12.8621 19.6044 12.8892C19.6171 12.8877 19.6422 12.8844 19.6548 12.8828C19.6537 12.9311 19.6614 12.9787 19.6672 13.0264C19.6834 13.0247 19.6999 13.023 19.7166 13.0214C19.7205 13.061 19.7267 13.1004 19.7286 13.1404C19.7456 13.1385 19.7629 13.1366 19.7803 13.1349C19.7805 13.161 19.7808 13.1872 19.7814 13.2134C19.8048 13.2123 19.8288 13.2114 19.8527 13.2101C19.8547 13.2495 19.8617 13.2883 19.8656 13.3275C19.8819 13.3256 19.8986 13.3241 19.9155 13.3225C19.9173 13.3706 19.9257 13.418 19.9275 13.4663C19.9399 13.4646 19.9649 13.4613 19.9773 13.4597C19.9791 13.4864 19.9816 13.5134 19.9846 13.5404C19.9978 13.5387 20.0241 13.5352 20.0373 13.5335C20.0387 13.5763 20.0446 13.619 20.0489 13.6618C20.0656 13.6601 20.0824 13.6587 20.0994 13.6571C20.1036 13.6965 20.1097 13.7357 20.1111 13.7756C20.1297 13.774 20.1487 13.7728 20.1678 13.7717C20.1678 13.8033 20.168 13.8349 20.1683 13.8667C20.1851 13.8647 20.2021 13.8628 20.2194 13.861C20.2211 13.9002 20.2281 13.9391 20.2326 13.9782C20.2542 13.9766 20.2761 13.9754 20.2981 13.9743C20.3027 14.0162 20.3094 14.058 20.3099 14.1005C20.3289 14.0994 20.348 14.0985 20.3674 14.0977C20.3673 14.1235 20.3674 14.1494 20.3677 14.1754C20.3847 14.1734 20.4022 14.1715 20.4196 14.1698C20.4222 14.2148 20.4299 14.2594 20.4309 14.3049C20.4475 14.303 20.4642 14.3014 20.4811 14.2999C20.4859 14.3421 20.4928 14.3842 20.494 14.4269C20.5111 14.4249 20.5284 14.423 20.546 14.4214C20.5462 14.4473 20.5465 14.4734 20.547 14.4996C20.5656 14.4983 20.5845 14.4971 20.6036 14.4959C20.6053 14.5387 20.6122 14.581 20.6158 14.6236C20.6282 14.6224 20.653 14.6196 20.6653 14.6182C20.6706 14.6625 20.6777 14.7069 20.6769 14.7518C20.7008 14.7504 20.7248 14.7495 20.7491 14.7487C20.7493 14.7745 20.7496 14.8005 20.7502 14.8266C20.7672 14.8247 20.7847 14.8228 20.8021 14.8213C20.8041 14.861 20.8104 14.9005 20.8139 14.9404C20.831 14.9385 20.8483 14.9368 20.8658 14.9352C20.8652 14.978 20.8647 15.021 20.8658 15.0639C20.848 15.0619 20.8304 15.0602 20.8131 15.0587C20.8124 15.0728 20.8107 15.101 20.8099 15.1151C20.8009 15.143 20.8021 15.1725 20.8024 15.2016C20.7828 15.2001 20.7635 15.1988 20.7444 15.1979C20.7439 15.2235 20.7438 15.2492 20.7438 15.2751C20.7211 15.2735 20.6988 15.2723 20.6768 15.2709C20.6738 15.3104 20.667 15.3495 20.6644 15.3894C20.6474 15.387 20.6305 15.385 20.614 15.3832C20.6134 15.4097 20.6129 15.4362 20.6125 15.4628C20.5933 15.4614 20.5744 15.4601 20.5555 15.4588C20.5552 15.5014 20.548 15.5436 20.5427 15.5861C20.526 15.5841 20.5093 15.5822 20.4929 15.5805C20.4929 15.6255 20.4847 15.6698 20.4808 15.7146C20.4634 15.7128 20.4462 15.7111 20.4293 15.7095C20.4286 15.7357 20.428 15.7621 20.4274 15.7884C20.4088 15.7869 20.3904 15.7853 20.3722 15.7839C20.3709 15.8078 20.3699 15.832 20.3642 15.8556C20.3631 15.8692 20.361 15.8966 20.3599 15.9103C20.3426 15.9086 20.3255 15.907 20.3087 15.9055C20.3057 15.9452 20.2999 15.9847 20.2979 16.0247C20.2753 16.023 20.2529 16.0216 20.2307 16.0204C20.2304 16.0512 20.2304 16.0824 20.2306 16.1135C20.211 16.1121 20.1917 16.1108 20.1726 16.1095C20.1721 16.1523 20.166 16.1945 20.1611 16.237C20.1441 16.2351 20.1274 16.2334 20.1108 16.2318C20.1078 16.2714 20.1005 16.3104 20.098 16.35C20.0811 16.3481 20.0642 16.3464 20.0477 16.3449C20.0423 16.387 20.0364 16.4295 20.0365 16.4723C20.0171 16.4708 19.9978 16.4695 19.9788 16.4683C19.9784 16.499 19.9782 16.5297 19.9784 16.5607C19.9605 16.559 19.9428 16.5576 19.9256 16.5562C19.922 16.5962 19.9165 16.6359 19.9148 16.6762C19.8975 16.674 19.8804 16.672 19.8636 16.6703C19.8628 16.6963 19.8623 16.7227 19.862 16.749C19.8379 16.7478 19.8141 16.7469 19.7904 16.7455C19.7892 16.769 19.7883 16.7929 19.782 16.816C19.7811 16.83 19.7791 16.858 19.7782 16.8721C19.7612 16.8703 19.7445 16.8686 19.728 16.8669C19.7226 16.9112 19.7143 16.9554 19.7151 17.0005C19.6977 16.9985 19.6804 16.9966 19.6634 16.9949C19.6629 17.0211 19.6626 17.0475 19.6626 17.0742C19.6435 17.0728 19.6245 17.0715 19.6057 17.0703C19.6055 17.0952 19.6058 17.1207 19.5957 17.1442C19.596 17.1551 19.5968 17.177 19.5971 17.188C19.5839 17.1869 19.5576 17.1849 19.5444 17.1838C19.5406 17.2263 19.5336 17.2686 19.5319 17.3115C19.5146 17.3095 19.4975 17.3075 19.4805 17.3059C19.4803 17.3373 19.4797 17.3687 19.4794 17.4004C19.4603 17.399 19.4414 17.3974 19.4229 17.396C19.4217 17.4202 19.4209 17.4449 19.4142 17.4686C19.4134 17.4821 19.4119 17.509 19.4111 17.5225C19.3888 17.521 19.3666 17.5197 19.3446 17.5183C19.3407 17.5576 19.334 17.5966 19.3322 17.6363C19.3149 17.6343 19.2977 17.6325 19.2807 17.6308C19.2804 17.657 19.2804 17.6833 19.2806 17.7097C19.2613 17.7084 19.2423 17.7072 19.2235 17.7059C19.2213 17.7537 19.2131 17.801 19.2112 17.849C19.1938 17.847 19.1767 17.8453 19.1597 17.8436C19.1597 17.8661 19.1598 17.8887 19.1601 17.9115C19.1392 17.9103 19.1183 17.9092 19.0977 17.9081C19.0994 17.9213 19.1027 17.9477 19.1043 17.9608C18.5468 17.9605 17.9896 17.9597 17.4321 17.9611C17.4343 17.9166 17.4295 17.8708 17.4456 17.8286C17.4457 17.8077 17.4459 17.787 17.4459 17.7664C17.4624 17.7683 17.4793 17.7701 17.4963 17.7723C17.5005 17.73 17.5074 17.6881 17.5088 17.6456C17.5282 17.6475 17.5472 17.6461 17.5657 17.6413C17.5668 17.6176 17.5674 17.5942 17.5674 17.5708C17.5896 17.5718 17.6121 17.5731 17.6346 17.5748C17.6363 17.5348 17.6421 17.4952 17.6453 17.4556C17.6619 17.4571 17.6784 17.4587 17.6952 17.4605C17.7015 17.4132 17.7093 17.3663 17.7081 17.3187C17.7263 17.3199 17.7448 17.3213 17.7635 17.3227C17.7638 17.2963 17.7643 17.27 17.7649 17.2438C17.782 17.2452 17.7995 17.2467 17.8171 17.2486C17.819 17.209 17.8261 17.17 17.8299 17.1308C17.8471 17.1321 17.8645 17.1339 17.882 17.1356C17.882 17.1097 17.8823 17.0839 17.8827 17.0583C17.9017 17.0593 17.9208 17.0605 17.9401 17.0619C17.9397 17.0139 17.9465 16.9661 17.9522 16.9187C17.9686 16.9205 17.9853 16.9224 18.0019 16.9246C18.0027 16.8804 18.0098 16.8368 18.0153 16.7932C18.0362 16.7991 18.0575 16.8053 18.0788 16.8117C18.0795 16.7976 18.0811 16.7692 18.082 16.7551C18.0898 16.7321 18.0901 16.708 18.0913 16.6842C18.1039 16.6849 18.1287 16.6859 18.1411 16.6866C18.1447 16.6604 18.1472 16.6343 18.1506 16.6084C18.1628 16.609 18.1871 16.6104 18.1992 16.6111C18.2015 16.5667 18.21 16.5232 18.2116 16.4788C18.2283 16.4804 18.2452 16.4819 18.2621 16.4836C18.2669 16.4414 18.2738 16.3996 18.2748 16.3573C18.2934 16.3587 18.312 16.3602 18.3309 16.3618C18.3315 16.3351 18.3319 16.3087 18.3327 16.2824C18.3495 16.2841 18.3665 16.2861 18.3838 16.2881C18.3857 16.2481 18.3919 16.2086 18.3958 16.1689C18.4124 16.1706 18.4294 16.1723 18.4466 16.1742C18.4472 16.1604 18.4486 16.1331 18.4492 16.1193C18.4613 16.092 18.4582 16.0618 18.4582 16.0328C18.4819 16.0342 18.5057 16.0351 18.5297 16.0365C18.5303 16.0098 18.5309 15.9833 18.5315 15.957C18.5484 15.9587 18.5655 15.9605 18.5828 15.9625C18.5849 15.9227 18.5915 15.8833 18.5949 15.8436C18.6119 15.8453 18.629 15.8469 18.6465 15.8487C18.6466 15.8227 18.6472 15.7966 18.648 15.7709C18.6667 15.772 18.6856 15.7734 18.7048 15.7751C18.7054 15.7321 18.7115 15.6897 18.7164 15.6473C18.7331 15.6489 18.7499 15.6508 18.7671 15.6526C18.7668 15.6075 18.7752 15.5633 18.7792 15.5187C18.7957 15.5202 18.8125 15.5219 18.8294 15.5238C18.834 15.4813 18.8402 15.439 18.8413 15.3963C18.8597 15.3977 18.8783 15.3993 18.8972 15.401C18.8978 15.3749 18.8985 15.349 18.8992 15.3235C18.9215 15.3246 18.944 15.3258 18.9668 15.3273C18.969 15.2847 18.9749 15.2424 18.9783 15.1999C18.9954 15.2013 19.0126 15.2028 19.03 15.2046C19.0294 15.176 19.0296 15.1475 19.03 15.1193C19.0489 15.1205 19.068 15.1219 19.0871 15.1236C19.0968 15.0433 19.0989 14.9635 19.0882 14.883C19.0707 14.8849 19.0536 14.8867 19.0366 14.8887C19.0361 14.8625 19.0358 14.8365 19.0357 14.8106C19.0162 14.8117 18.9971 14.8129 18.9783 14.8143C18.9763 14.7669 18.9688 14.7197 18.9668 14.6723C18.9446 14.6734 18.9226 14.6746 18.9007 14.6762C18.8969 14.6366 18.8903 14.5976 18.8886 14.558C18.8712 14.5597 18.854 14.5614 18.8369 14.5633C18.8361 14.5368 18.8356 14.5106 18.8352 14.4844C18.8165 14.4855 18.7981 14.4869 18.7799 14.4886C18.7781 14.4487 18.7717 14.4095 18.7677 14.3701C18.7553 14.3715 18.7303 14.3742 18.7178 14.3756C18.7129 14.328 18.7051 14.2805 18.7062 14.2325C18.6867 14.2337 18.6674 14.2348 18.6483 14.236C18.648 14.2101 18.6477 14.1842 18.6477 14.1585C18.6301 14.1602 18.6128 14.1619 18.5958 14.1639C18.5937 14.1207 18.5862 14.0782 18.5828 14.0354C18.5706 14.0368 18.5461 14.0396 18.5338 14.0411C18.5301 14.0014 18.5233 13.9624 18.5213 13.9227C18.4989 13.9244 18.4767 13.9258 18.4548 13.9273C18.4542 13.9008 18.4535 13.8745 18.4527 13.8483C18.4339 13.8495 18.415 13.8511 18.3965 13.8528C18.3962 13.8232 18.3994 13.7923 18.387 13.7647C18.387 13.7534 18.3872 13.7309 18.3872 13.7196C18.3697 13.721 18.3526 13.7225 18.3356 13.7242C18.3312 13.6818 18.3243 13.6396 18.3228 13.5971C18.3035 13.5982 18.2843 13.5994 18.2654 13.6007C18.2651 13.5746 18.2649 13.5487 18.2649 13.5228C18.2475 13.5246 18.2302 13.5263 18.213 13.5283C18.2116 13.4856 18.2047 13.4435 18.2003 13.4013C18.1833 13.4027 18.1666 13.4042 18.15 13.4059C18.1483 13.3608 18.1411 13.3162 18.1395 13.2711C18.12 13.2723 18.1007 13.2735 18.0815 13.2748C18.0811 13.2489 18.0809 13.223 18.0808 13.1973C18.0584 13.1987 18.0362 13.2002 18.0142 13.2021C18.0124 13.1591 18.0052 13.1166 18.0013 13.074C17.9891 13.0754 17.9644 13.0783 17.9522 13.0797C17.9485 13.0401 17.9421 13.0008 17.9401 12.9611C17.9208 12.9624 17.9017 12.9635 17.8829 12.9647C17.8826 12.9332 17.8826 12.9019 17.8827 12.8708C17.8653 12.8725 17.8481 12.8743 17.8313 12.8763C17.8295 12.8365 17.8226 12.7974 17.8184 12.7582C17.8018 12.7597 17.7852 12.7613 17.7688 12.7632C17.7643 12.7205 17.7578 12.6783 17.7568 12.6356C17.7373 12.6368 17.7182 12.638 17.6991 12.6394C17.6986 12.6131 17.6983 12.587 17.6981 12.5608C17.681 12.5628 17.6638 12.5647 17.647 12.5669C17.6447 12.5185 17.6374 12.4704 17.6348 12.4221C17.6136 12.4275 17.5927 12.4332 17.5719 12.4393C17.5648 12.3968 17.5563 12.3543 17.5566 12.3112C17.5377 12.3126 17.5191 12.3142 17.5005 12.3156C17.4999 12.2884 17.4995 12.2614 17.4993 12.2345C17.4825 12.2363 17.4658 12.2383 17.4493 12.2404C17.4464 12.197 17.437 12.1543 17.4343 12.1111C17.422 12.1126 17.3974 12.1159 17.3851 12.1174C17.3848 12.0997 17.3847 12.0819 17.3845 12.0644Z" fill="white"/>
</svg>
