<svg width="24" height="24" viewBox="0 0 24 24" fill="none" xmlns="http://www.w3.org/2000/svg">
<path opacity="0.2" d="M12 24C18.6274 24 24 18.6274 24 12C24 5.37258 18.6274 0 12 0C5.37258 0 0 5.37258 0 12C0 18.6274 5.37258 24 12 24Z" fill="white"/>
<mask id="mask0_2492_10430" style="mask-type:luminance" maskUnits="userSpaceOnUse" x="0" y="0" width="24" height="24">
<path d="M12 24C18.6274 24 24 18.6274 24 12C24 5.37258 18.6274 0 12 0C5.37258 0 0 5.37258 0 12C0 18.6274 5.37258 24 12 24Z" fill="white"/>
</mask>
<g mask="url(#mask0_2492_10430)">
<path fill-rule="evenodd" clip-rule="evenodd" d="M12.3787 6.36914C13.7029 6.36914 14.7968 6.78022 15.6798 7.65609C16.5432 8.49615 16.9846 9.55074 16.9844 10.7841C16.9844 12.0353 16.5432 13.0899 15.6796 13.9299C14.9887 14.5912 14.1635 14.9845 13.204 15.1275V15.8604H15.1612V16.6647H13.1845V17.0937H15.1612V17.8444H13.204V19.2922H11.5343V17.8444H9.59604V17.0937H11.5533V16.6647H9.59604V15.8604H11.5343V15.1097C10.594 14.9667 9.76872 14.5734 9.07786 13.9121C8.19508 13.072 7.75366 12.0174 7.75366 10.7662C7.75366 9.49711 8.17586 8.44258 9.05849 7.62035C9.94147 6.78022 11.0354 6.36914 12.3787 6.36914ZM12.3789 13.072C12.9931 13.072 13.5112 12.8575 13.8759 12.4285C14.2404 11.9995 14.4324 11.4454 14.4324 10.7663C14.4324 10.1049 14.2405 9.55086 13.8375 9.12187C13.4536 8.67506 12.955 8.46054 12.3789 8.46054C11.784 8.46054 11.2853 8.67506 10.9012 9.10404C10.517 9.53302 10.3251 10.0693 10.3251 10.7485C10.3251 11.4454 10.5174 11.9995 10.9012 12.4285C11.285 12.8575 11.784 13.072 12.3789 13.072Z" fill="white"/>
</g>
</svg>
