<svg width="24" height="24" viewBox="0 0 24 24" fill="none" xmlns="http://www.w3.org/2000/svg">
<path opacity="0.2" d="M12 24C18.6274 24 24 18.6274 24 12C24 5.37258 18.6274 0 12 0C5.37258 0 0 5.37258 0 12C0 18.6274 5.37258 24 12 24Z" fill="white"/>
<mask id="mask0_2492_10365" style="mask-type:luminance" maskUnits="userSpaceOnUse" x="0" y="0" width="24" height="24">
<path d="M12 24C18.6274 24 24 18.6274 24 12C24 5.37258 18.6274 0 12 0C5.37258 0 0 5.37258 0 12C0 18.6274 5.37258 24 12 24Z" fill="white"/>
</mask>
<g mask="url(#mask0_2492_10365)">
<path fill-rule="evenodd" clip-rule="evenodd" d="M6.15068 8.59278C6.93936 8.13641 7.76496 7.77899 8.63339 7.52053C9.81641 7.16903 11.0171 7.00361 12.2504 7.02724C12.8234 7.03906 13.7775 7.1321 13.9385 7.19413C13.9444 7.20595 13.9326 7.21333 13.9193 7.21333C13.8647 7.23844 13.8026 7.25616 13.7465 7.28127C12.7304 7.70663 12.0096 8.60016 11.7999 9.68422C11.7689 9.86293 11.7512 10.0416 11.7453 10.2203C11.7394 10.4921 11.7143 10.7624 11.6345 11.0267C11.3627 11.9823 10.5815 12.7267 9.61407 12.9497C8.34391 13.2377 7.06194 12.61 6.5081 11.4329C6.47708 11.365 6.45345 11.297 6.44016 11.2291C6.34711 10.8288 6.28065 10.4286 6.23044 10.021C6.17579 9.57198 6.14478 9.12152 6.14478 8.67253C6.15068 8.64152 6.15068 8.62379 6.15068 8.59278Z" fill="white"/>
<path fill-rule="evenodd" clip-rule="evenodd" d="M15.2192 15.9785C15.2311 15.8619 15.2444 15.757 15.2503 15.6462C15.2813 15.0363 15.1513 14.4573 14.8618 13.9212C14.5842 13.4102 14.1957 13.0025 13.698 12.6953C13.6552 12.6643 13.605 12.6407 13.5621 12.6097C12.8783 12.1784 12.4589 11.5685 12.3112 10.7739C12.0468 9.34421 12.9463 7.96477 14.3567 7.62507C14.8559 7.5084 15.3418 7.52021 15.8292 7.67381C16.2295 7.79787 16.612 7.96329 16.993 8.142C17.2574 8.26606 17.51 8.40046 17.764 8.54224C17.795 8.56144 17.8186 8.57326 17.857 8.59689C17.857 8.622 17.8629 8.63972 17.8629 8.66483C17.8629 8.99123 17.8437 9.32353 17.8201 9.64993C17.7773 10.1299 17.7034 10.6114 17.6045 11.0796C17.3017 12.4723 16.7671 13.7602 15.9902 14.955C15.7746 15.2873 15.5412 15.6078 15.2946 15.9165C15.2695 15.9357 15.2562 15.9593 15.2192 15.9785Z" fill="white"/>
<path fill-rule="evenodd" clip-rule="evenodd" d="M12.0047 18.7355C11.9116 18.6985 11.6295 18.5257 11.3268 18.3234C10.6548 17.8744 10.033 17.356 9.46583 16.7771C8.90017 16.1966 8.39506 15.563 7.96233 14.8792C7.55617 14.2441 7.21796 13.5795 6.9462 12.8765C6.94029 12.8573 6.93439 12.8455 6.927 12.8145C6.95802 12.8337 6.96983 12.8396 6.98903 12.8514C7.20466 13.0183 7.43211 13.1601 7.67876 13.2635C7.99334 13.3993 8.31974 13.4924 8.66386 13.5219C9.35949 13.5899 10.0123 13.4481 10.6296 13.1025C10.9501 12.9238 11.2957 12.8071 11.6591 12.7569C12.9469 12.5974 14.2289 13.3609 14.6292 14.6916C14.833 15.3755 14.7709 16.0401 14.4564 16.6884C14.4135 16.7741 14.3766 16.8553 14.3323 16.9351C14.3072 16.9838 14.2776 17.034 14.2333 17.071C13.582 17.6883 12.8672 18.2303 12.0918 18.6867C12.0608 18.7044 12.0298 18.7236 12.0047 18.7355Z" fill="white"/>
</g>
</svg>
