<svg width="24" height="24" viewBox="0 0 24 24" fill="none" xmlns="http://www.w3.org/2000/svg">
<path opacity="0.2" d="M12 24C18.6274 24 24 18.6274 24 12C24 5.37258 18.6274 0 12 0C5.37258 0 0 5.37258 0 12C0 18.6274 5.37258 24 12 24Z" fill="white"/>
<path fill-rule="evenodd" clip-rule="evenodd" d="M11.8859 4.61523H12.1268C13.3589 4.65134 14.5857 4.97035 15.6543 5.58935C17.4063 6.58118 18.7125 8.32264 19.1707 10.2833C19.2954 10.753 19.3304 11.2363 19.3654 11.7189C19.3716 11.8056 19.3779 11.8923 19.3847 11.9788V12.1817C19.3374 13.2976 19.0742 14.4095 18.5471 15.3981C17.6472 17.1487 16.0147 18.5036 14.1282 19.0648C13.477 19.2709 12.7957 19.3523 12.1163 19.3845H11.9279C10.2967 19.3621 8.67472 18.8016 7.40194 17.7756C6.00904 16.6702 5.03492 15.0482 4.73363 13.2943C4.68464 13.0452 4.66439 12.7926 4.64415 12.54C4.63537 12.4305 4.6266 12.3211 4.61548 12.2119V11.6145L4.62986 11.4738C4.66881 11.0898 4.7078 10.7055 4.80256 10.3306C5.26139 8.31804 6.6149 6.53392 8.42331 5.54209C9.47817 4.95066 10.6794 4.64871 11.8859 4.61523ZM10.2191 7.86316C9.09469 8.32986 8.17506 9.26656 7.72935 10.3995C7.37555 11.2758 7.31647 12.2618 7.54162 13.1781C7.79171 14.2422 8.44878 15.2005 9.33887 15.8326C10.1824 16.4378 11.2366 16.7372 12.2724 16.6755C12.619 16.5251 12.9649 16.3315 13.1986 16.0263C13.6055 15.5103 13.8241 14.825 13.7047 14.1706C13.6154 13.6908 13.3095 13.268 12.9025 13.0042C12.5127 12.7473 12.0789 12.5816 11.6448 12.4158L11.6448 12.4158C11.3801 12.3147 11.1153 12.2136 10.8604 12.0918C10.395 11.8922 9.96837 11.5778 9.6953 11.1459C9.35988 10.6115 9.25879 9.95579 9.33559 9.33548C9.42289 8.75194 9.76488 8.23075 10.2191 7.86316ZM10.2998 9.9046C10.1186 9.45233 10.1869 8.92917 10.4094 8.50447C10.649 8.0673 11.1564 7.83625 11.6415 7.83428C12.1679 7.80802 12.7239 7.96097 13.1092 8.33381C13.5201 8.74078 13.7637 9.28101 13.9442 9.82255C14.0152 9.80082 14.0857 9.77868 14.1566 9.75644C14.1735 9.75113 14.1904 9.74581 14.2074 9.74049C14.1726 9.44741 14.1465 9.15334 14.1204 8.85927C14.0943 8.5652 14.0682 8.27112 14.0335 7.97803C15.0601 8.48741 15.8826 9.39325 16.283 10.4671C16.7155 11.6172 16.6788 12.9444 16.1438 14.0544C15.5576 15.3088 14.3722 16.2626 13.0213 16.5652C13.5339 16.3282 14.0203 15.9836 14.2868 15.471C14.684 14.7338 14.7096 13.8398 14.5192 13.039C14.3341 12.3005 13.7138 11.7649 13.0265 11.4951C12.7528 11.367 12.4615 11.2849 12.1705 11.203C11.7846 11.0944 11.3994 10.9859 11.0566 10.7704C10.7278 10.5643 10.4409 10.2715 10.2998 9.9046Z" fill="white"/>
</svg>
