<svg width="25" height="25" viewBox="0 0 25 25" fill="none" xmlns="http://www.w3.org/2000/svg">
<rect x="0.0649414" y="0.0650024" width="24" height="24" fill="white" fill-opacity="0.01"/>
<path d="M0.0649414 0.0650024H24.0649M0.0649414 0.0650024V24.065M0.0649414 0.0650024L24.0649 24.065M24.0649 0.0650024V24.065M24.0649 0.0650024L0.0649414 24.065M24.0649 24.065H0.0649414" stroke="#DADEE4" stroke-width="0.13"/>
<circle cx="12.0649" cy="12.065" r="10" stroke="#DADEE4" stroke-width="0.13"/>
<rect x="2.06494" y="4.065" width="20" height="16" rx="1" stroke="#DADEE4" stroke-width="0.13"/>
<rect x="4.06494" y="2.065" width="16" height="20" rx="1" stroke="#DADEE4" stroke-width="0.13"/>
<rect x="3.06494" y="3.065" width="18" height="18" rx="1" stroke="#DADEE4" stroke-width="0.13"/>
<circle cx="12.0649" cy="12.065" r="4" stroke="#DADEE4" stroke-width="0.13"/>
<path fill-rule="evenodd" clip-rule="evenodd" d="M2.06494 6.065C2.06494 4.96043 2.96037 4.065 4.06494 4.065H15.0649C16.1695 4.065 17.0649 4.96043 17.0649 6.065V7.065H18.5843C19.1919 7.065 19.7665 7.34118 20.1461 7.81561L21.6267 9.66639C21.9104 10.021 22.0649 10.4616 22.0649 10.9158V15.065C22.0649 16.1696 21.1695 17.065 20.0649 17.065C20.0649 18.7219 18.7218 20.065 17.0649 20.065C15.4081 20.065 14.0649 18.7219 14.0649 17.065H10.0649C10.0649 18.7219 8.7218 20.065 7.06494 20.065C5.40809 20.065 4.06494 18.7219 4.06494 17.065C2.96037 17.065 2.06494 16.1696 2.06494 15.065V6.065ZM15.0649 14.8289C14.9819 14.9032 14.9031 14.982 14.8288 15.065H9.30105C8.75173 14.4513 7.95344 14.065 7.06494 14.065C6.17644 14.065 5.37816 14.4513 4.82883 15.065H4.06494V6.065L15.0649 6.065V14.8289ZM19.301 15.065C18.7517 14.4513 17.9534 14.065 17.0649 14.065V9.065H18.5843L20.0649 10.9158V15.065H19.301ZM8.06494 17.065C8.06494 17.6173 7.61723 18.065 7.06494 18.065C6.51266 18.065 6.06494 17.6173 6.06494 17.065C6.06494 16.5127 6.51266 16.065 7.06494 16.065C7.61723 16.065 8.06494 16.5127 8.06494 17.065ZM17.0649 18.065C17.6172 18.065 18.0649 17.6173 18.0649 17.065C18.0649 16.5127 17.6172 16.065 17.0649 16.065C16.5127 16.065 16.0649 16.5127 16.0649 17.065C16.0649 17.6173 16.5127 18.065 17.0649 18.065Z" fill="#09244B"/>
</svg>
