<svg width="15" height="15" viewBox="0 0 15 15" fill="none" xmlns="http://www.w3.org/2000/svg">
<path fill-rule="evenodd" clip-rule="evenodd" d="M7.27639 1.55279C7.41716 1.4824 7.58284 1.4824 7.72361 1.55279L12.7236 4.05279C12.893 4.13748 13 4.31061 13 4.5V10.5C13 10.6894 12.893 10.8625 12.7236 10.9472L7.72361 13.4472C7.58284 13.5176 7.41716 13.5176 7.27639 13.4472L2.27639 10.9472C2.107 10.8625 2 10.6894 2 10.5V4.5C2 4.31061 2.107 4.13748 2.27639 4.05279L7.27639 1.55279ZM3 5.30902V10.191L7 12.191V7.30902L3 5.30902ZM8 7.30902V12.191L12 10.191V5.30902L8 7.30902ZM11.382 4.5L7.5 6.44098L3.61803 4.5L7.5 2.55902L11.382 4.5Z" fill="#151515"/>
</svg>
