<svg width="15" height="15" viewBox="0 0 15 15" fill="none" xmlns="http://www.w3.org/2000/svg">
<path fill-rule="evenodd" clip-rule="evenodd" d="M6.5 1C6.77614 1 7 1.22386 7 1.5V2.5C7 2.77614 6.77614 3 6.5 3C6.22386 3 6 2.77614 6 2.5V1.5C6 1.22386 6.22386 1 6.5 1ZM2.14645 2.14645C2.34171 1.95118 2.65829 1.95118 2.85355 2.14645L3.85355 3.14645C4.04882 3.34171 4.04882 3.65829 3.85355 3.85355C3.65829 4.04882 3.34171 4.04882 3.14645 3.85355L2.14645 2.85355C1.95118 2.65829 1.95118 2.34171 2.14645 2.14645ZM10.1464 2.14645C10.3417 1.95118 10.6583 1.95118 10.8536 2.14645C11.0488 2.34171 11.0488 2.65829 10.8536 2.85355L9.85355 3.85355C9.65829 4.04882 9.34171 4.04882 9.14645 3.85355C8.95118 3.65829 8.95118 3.34171 9.14645 3.14645L10.1464 2.14645ZM4.14645 6.14645L6.14645 4.14645C6.34171 3.95118 6.65829 3.95118 6.85355 4.14645L8.85355 6.14645C9.04882 6.34171 9.04882 6.65829 8.85355 6.85355L8.20711 7.5L12.8536 12.1464C13.0488 12.3417 13.0488 12.6583 12.8536 12.8536C12.6583 13.0488 12.3417 13.0488 12.1464 12.8536L7.5 8.20711L6.85355 8.85355C6.65829 9.04882 6.34171 9.04882 6.14645 8.85355L4.14645 6.85355C3.95118 6.65829 3.95118 6.34171 4.14645 6.14645ZM5.20711 6.5L6.5 7.79289L7.79289 6.5L6.5 5.20711L5.20711 6.5ZM1 6.5C1 6.22386 1.22386 6 1.5 6H2.5C2.77614 6 3 6.22386 3 6.5C3 6.77614 2.77614 7 2.5 7H1.5C1.22386 7 1 6.77614 1 6.5ZM11 7H10.5C10.2239 7 10 6.77614 10 6.5C10 6.22386 10.2239 6 10.5 6H11C11.2761 6 11.5 6.22386 11.5 6.5C11.5 6.77614 11.2761 7 11 7ZM3.85355 9.14645C4.04882 9.34171 4.04882 9.65829 3.85355 9.85355L2.85355 10.8536C2.65829 11.0488 2.34171 11.0488 2.14645 10.8536C1.95118 10.6583 1.95118 10.3417 2.14645 10.1464L3.14645 9.14645C3.34171 8.95118 3.65829 8.95118 3.85355 9.14645ZM6 11V10.5C6 10.2239 6.22386 10 6.5 10C6.77614 10 7 10.2239 7 10.5V11C7 11.2761 6.77614 11.5 6.5 11.5C6.22386 11.5 6 11.2761 6 11Z" fill="#151515"/>
</svg>
