<svg width="15" height="15" viewBox="0 0 15 15" fill="none" xmlns="http://www.w3.org/2000/svg">
<path fill-rule="evenodd" clip-rule="evenodd" d="M3.14645 3.14645C3.34171 2.95118 3.65829 2.95118 3.85355 3.14645L7.5 6.79289L11.1464 3.14645C11.3417 2.95118 11.6583 2.95118 11.8536 3.14645C12.0488 3.34171 12.0488 3.65829 11.8536 3.85355L7.85355 7.85355C7.65829 8.04882 7.34171 8.04882 7.14645 7.85355L3.14645 3.85355C2.95118 3.65829 2.95118 3.34171 3.14645 3.14645ZM3.14645 7.14645C3.34171 6.95118 3.65829 6.95118 3.85355 7.14645L7.5 10.7929L11.1464 7.14645C11.3417 6.95118 11.6583 6.95118 11.8536 7.14645C12.0488 7.34171 12.0488 7.65829 11.8536 7.85355L7.85355 11.8536C7.65829 12.0488 7.34171 12.0488 7.14645 11.8536L3.14645 7.85355C2.95118 7.65829 2.95118 7.34171 3.14645 7.14645Z" fill="#151515"/>
</svg>
