<svg width="15" height="15" viewBox="0 0 15 15" fill="none" xmlns="http://www.w3.org/2000/svg">
<path fill-rule="evenodd" clip-rule="evenodd" d="M8.14645 3.14645C7.95118 3.34171 7.95118 3.65829 8.14645 3.85355L10.2929 6H6.5C4.567 6 3 7.567 3 9.5V11.5C3 11.7761 3.22386 12 3.5 12C3.77614 12 4 11.7761 4 11.5V9.5C4 8.11929 5.11929 7 6.5 7H10.2929L8.14645 9.14645C7.95118 9.34171 7.95118 9.65829 8.14645 9.85355C8.34171 10.0488 8.65829 10.0488 8.85355 9.85355L11.8536 6.85355C12.0488 6.65829 12.0488 6.34171 11.8536 6.14645L8.85355 3.14645C8.65829 2.95118 8.34171 2.95118 8.14645 3.14645Z" fill="#151515"/>
</svg>
