<svg width="15" height="15" viewBox="0 0 15 15" fill="none" xmlns="http://www.w3.org/2000/svg">
<path fill-rule="evenodd" clip-rule="evenodd" d="M5.5 2C5.77614 2 6 2.22386 6 2.5V8.29289L9 5.29289V2.5C9 2.22386 9.22386 2 9.5 2C9.77614 2 10 2.22386 10 2.5V4.29289L12.1464 2.14645C12.3417 1.95118 12.6583 1.95118 12.8536 2.14645C13.0488 2.34171 13.0488 2.65829 12.8536 2.85355L2.85355 12.8536C2.65829 13.0488 2.34171 13.0488 2.14645 12.8536C1.95118 12.6583 1.95118 12.3417 2.14645 12.1464L5 9.29289V2.5C5 2.22386 5.22386 2 5.5 2ZM10 8.5V13C10 13.2761 9.77614 13.5 9.5 13.5C9.22386 13.5 9 13.2761 9 13V8.5C9 8.22386 9.22386 8 9.5 8C9.77614 8 10 8.22386 10 8.5ZM6 12.5V13C6 13.2761 5.77614 13.5 5.5 13.5C5.22386 13.5 5 13.2761 5 13V12.5C5 12.2239 5.22386 12 5.5 12C5.77614 12 6 12.2239 6 12.5Z" fill="#151515"/>
</svg>
