<svg width="15" height="15" viewBox="0 0 15 15" fill="none" xmlns="http://www.w3.org/2000/svg">
<path fill-rule="evenodd" clip-rule="evenodd" d="M7.16554 2.62835C7.35569 2.45722 7.64435 2.45722 7.8345 2.62835L12.8345 7.12835C12.9884 7.26685 13.041 7.48585 12.9668 7.67913C12.8927 7.87242 12.707 8 12.5 8H11V11.5C11 11.7761 10.7762 12 10.5 12H4.50002C4.22388 12 4.00002 11.7761 4.00002 11.5V8H2.50002C2.29299 8 2.10738 7.87242 2.03321 7.67913C1.95904 7.48585 2.01166 7.26685 2.16554 7.12835L7.16554 2.62835ZM3.803 7H4.50002C4.77616 7 5.00002 7.22386 5.00002 7.5V11H10V7.5C10 7.22386 10.2239 7 10.5 7H11.197L7.50002 3.67268L3.803 7Z" fill="#151515"/>
</svg>
