<svg width="15" height="15" viewBox="0 0 15 15" fill="none" xmlns="http://www.w3.org/2000/svg">
<path fill-rule="evenodd" clip-rule="evenodd" d="M2 5.5C2 5.22386 2.22386 5 2.5 5H4.5C4.77614 5 5 5.22386 5 5.5C5 5.77614 4.77614 6 4.5 6H3V7H3.5C3.77614 7 4 7.22386 4 7.5C4 7.77614 3.77614 8 3.5 8H3V9H4.5C4.77614 9 5 9.22386 5 9.5C5 9.77614 4.77614 10 4.5 10H2.5C2.22386 10 2 9.77614 2 9.5V5.5ZM6 5.5C6 5.22386 6.22386 5 6.5 5H8.5C8.77614 5 9 5.22386 9 5.5C9 5.77614 8.77614 6 8.5 6H7V7H8.5C8.77614 7 9 7.22386 9 7.5V9.5C9 9.77614 8.77614 10 8.5 10H6.5C6.22386 10 6 9.77614 6 9.5C6 9.22386 6.22386 9 6.5 9H8V8H6.5C6.22386 8 6 7.77614 6 7.5V5.5ZM10 5.5C10 5.22386 10.2239 5 10.5 5H12.5C12.7761 5 13 5.22386 13 5.5C13 5.77614 12.7761 6 12.5 6H11V9H12.5C12.7761 9 13 9.22386 13 9.5C13 9.77614 12.7761 10 12.5 10H10.5C10.2239 10 10 9.77614 10 9.5V5.5Z" fill="#151515"/>
</svg>
