<svg width="15" height="15" viewBox="0 0 15 15" fill="none" xmlns="http://www.w3.org/2000/svg">
<path fill-rule="evenodd" clip-rule="evenodd" d="M3 8L3 12.5C3 12.7761 2.77614 13 2.5 13C2.22386 13 2 12.7761 2 12.5L2 2.5C2 2.22386 2.22386 2 2.5 2C2.77614 2 3 2.22386 3 2.5L3 7L5 7L5 2.5C5 2.22386 5.22386 2 5.5 2C5.77614 2 6 2.22386 6 2.5L6 7L10.2929 7L7.64645 4.35355C7.45118 4.15829 7.45118 3.84171 7.64645 3.64645C7.84171 3.45118 8.15829 3.45118 8.35355 3.64645L11.8536 7.14645C12.0488 7.34171 12.0488 7.65829 11.8536 7.85355L8.35355 11.3536C8.15829 11.5488 7.84171 11.5488 7.64645 11.3536C7.45118 11.1583 7.45118 10.8417 7.64645 10.6464L10.2929 8L6 8L6 12.5C6 12.7761 5.77614 13 5.5 13C5.22386 13 5 12.7761 5 12.5L5 8L3 8Z" fill="#151515"/>
</svg>
