<svg width="15" height="15" viewBox="0 0 15 15" fill="none" xmlns="http://www.w3.org/2000/svg">
<path fill-rule="evenodd" clip-rule="evenodd" d="M11.7678 2.43934C12.0491 2.15803 12.4306 2 12.8284 2H13.5C13.7761 2 14 1.77614 14 1.5C14 1.22386 13.7761 1 13.5 1H12.8284C12.1654 1 11.5295 1.26339 11.0607 1.73223L10 2.79289L8.93934 1.73224C8.4705 1.2634 7.83462 1.00001 7.17158 1.00001L5.5 1C3.01472 1 1 3.01472 1 5.5V9.50108L1 9.50234L1.00002 9.50542L1.00013 9.51381L1.00077 9.53913C1.00145 9.55967 1.00274 9.58749 1.00518 9.62157C1.01003 9.68955 1.0195 9.7834 1.03805 9.89471C1.07476 10.115 1.14911 10.4163 1.30279 10.7236C1.45744 11.0329 1.69728 11.3575 2.0664 11.6035C2.43865 11.8517 2.91251 12 3.5 12C3.77614 12 4 11.7761 4 11.5C4 11.2239 3.77614 11 3.5 11C3.08749 11 2.81135 10.8983 2.6211 10.7715C2.42772 10.6426 2.29256 10.4671 2.19721 10.2764C2.10089 10.0838 2.05024 9.88506 2.02445 9.73031C2.01175 9.65411 2.00559 9.59172 2.00264 9.55032C2.00116 9.52971 2.0005 9.51456 2.00021 9.50581L2 9.49783V5.5C2 3.56701 3.56701 2 5.5 2L7.17158 2.00001C7.5694 2.00001 7.95093 2.15804 8.23223 2.43934L8.79289 3H6.5C5.11929 3 4 4.11929 4 5.5V6.44766C4 7.24241 4.27048 8.01349 4.76696 8.63409L5.50908 9.56174C5.98351 10.1548 6.70179 10.5 7.46125 10.5H8C8 10.7761 7.77614 11 7.5 11H5.5C5.22386 11 5 11.2239 5 11.5V12.5C5 13.3284 5.67157 14 6.5 14H8.5C9.97372 14 11.2347 13.0892 11.7507 11.7997C11.9712 11.9271 12.2271 12 12.5 12C12.7761 12 13 11.7761 13 11.5C13 11.2239 12.7761 11 12.5 11C12.2239 11 12 10.7761 12 10.5V9.70711L13.2678 8.43934C13.7366 7.9705 14 7.33461 14 6.67157V5.5C14 4.11929 12.8807 3 11.5 3H11.2071L11.7678 2.43934ZM6.5 4C5.67157 4 5 4.67157 5 5.5V6.44766C5 7.01534 5.1932 7.56611 5.54783 8.00939L6.28995 8.93704C6.5746 9.29287 7.00557 9.5 7.46125 9.5H8V7H7.5C7.22386 7 7 6.77614 7 6.5C7 6.22386 7.22386 6 7.5 6H8.5C8.77614 6 9 6.22386 9 6.5V10H9.5C9.77614 10 10 10.2239 10 10.5C10 10.7761 9.77614 11 9.5 11H9V12C9 12.2761 8.77614 12.5 8.5 12.5C8.22386 12.5 8 12.2761 8 12V11.9146C7.84361 11.9699 7.67532 12 7.5 12H6V12.5C6 12.7761 6.22386 13 6.5 13H8.5C9.88071 13 11 11.8807 11 10.5V6.5C11 6.22386 11.2239 6 11.5 6C11.7761 6 12 6.22386 12 6.5V8.29289L12.5607 7.73223C12.842 7.45093 13 7.0694 13 6.67157V5.5C13 4.67157 12.3284 4 11.5 4H6.5Z" fill="#151515"/>
</svg>
