<svg width="15" height="15" viewBox="0 0 15 15" fill="none" xmlns="http://www.w3.org/2000/svg">
<path fill-rule="evenodd" clip-rule="evenodd" d="M11 4.9963C11 4.15235 10.1222 3.15141 8 3.01554L7 3.01288C4.87775 3.12603 4 3.97088 4 4.9963V10.0037C4 11.0291 4.87775 11.874 7 11.9871H8C10.1222 11.874 11 11.0291 11 10.0037V4.9963ZM5.35716 4.42692C5.69638 4.20977 6.35443 4 7.5 4C9.81406 4 10 4.95725 10 4.9963V10.0037C10 10.1982 9.93358 10.387 9.64284 10.5731C9.30362 10.7902 8.64557 11 7.5 11C6.35443 11 5.69638 10.7902 5.35716 10.5731C5.06642 10.387 5 10.1982 5 10.0037V4.9963C5 4.80176 5.06642 4.61303 5.35716 4.42692Z" fill="#151515"/>
<path fill-rule="evenodd" clip-rule="evenodd" d="M7.5 1C7.77614 1 8 1.22386 8 1.5V3.5C8 3.77614 7.77614 4 7.5 4C7.22386 4 7 3.77614 7 3.5V1.5C7 1.22386 7.22386 1 7.5 1ZM2 7.5C2 7.22386 2.22386 7 2.5 7H4.5C4.77614 7 5 7.22386 5 7.5C5 7.77614 4.77614 8 4.5 8H2.5C2.22386 8 2 7.77614 2 7.5ZM10 7.5C10 7.22386 10.2239 7 10.5 7H12.5C12.7761 7 13 7.22386 13 7.5C13 7.77614 12.7761 8 12.5 8H10.5C10.2239 8 10 7.77614 10 7.5ZM7.5 11C7.77614 11 8 11.2239 8 11.5V13.5C8 13.7761 7.77614 14 7.5 14C7.22386 14 7 13.7761 7 13.5V11.5C7 11.2239 7.22386 11 7.5 11Z" fill="#151515"/>
</svg>
