<svg width="15" height="15" viewBox="0 0 15 15" fill="none" xmlns="http://www.w3.org/2000/svg">
<path fill-rule="evenodd" clip-rule="evenodd" d="M11 4.5C11 4.22386 11.2239 4 11.5 4H12.5C12.7761 4 13 4.22386 13 4.5C13 4.77614 12.7761 5 12.5 5H11.5C11.2239 5 11 4.77614 11 4.5ZM9 7.5C9 7.22386 9.22386 7 9.5 7H12.5C12.7761 7 13 7.22386 13 7.5C13 7.77614 12.7761 8 12.5 8H9.5C9.22386 8 9 7.77614 9 7.5ZM7 10.5C7 10.2239 7.22386 10 7.5 10H12.5C12.7761 10 13 10.2239 13 10.5C13 10.7761 12.7761 11 12.5 11H7.5C7.22386 11 7 10.7761 7 10.5Z" fill="#151515"/>
<path fill-rule="evenodd" clip-rule="evenodd" d="M4.5 12C4.77614 12 5 11.7761 5 11.5V4.70711L7.14645 6.85355C7.34171 7.04882 7.65829 7.04882 7.85355 6.85355C8.04882 6.65829 8.04882 6.34171 7.85355 6.14645L4.85355 3.14645C4.65829 2.95118 4.34171 2.95118 4.14645 3.14645L1.14645 6.14645C0.951184 6.34171 0.951184 6.65829 1.14645 6.85355C1.34171 7.04882 1.65829 7.04882 1.85355 6.85355L4 4.70711V11.5C4 11.7761 4.22386 12 4.5 12Z" fill="#151515"/>
</svg>
