<svg width="15" height="15" viewBox="0 0 15 15" fill="none" xmlns="http://www.w3.org/2000/svg">
<path fill-rule="evenodd" clip-rule="evenodd" d="M4.54912 2.01947C5.80329 1.50828 7.66823 1 9.5 1C9.77614 1 10 1.22386 10 1.5V2.5C10 2.77614 9.77614 3 9.5 3C9.22386 3 9 2.77614 9 2.5V2.01349C7.49171 2.09342 5.98053 2.51591 4.92656 2.94551C4.852 2.9759 4.78045 3.00603 4.71198 3.03578C5.55873 3.0648 6.66023 3.12241 7.85332 3.27759C9.74343 3.52344 11.9164 4.01924 13.7481 5.06588C13.9255 5.16729 14.0234 5.36652 13.9952 5.56897C13.967 5.77142 13.8184 5.93632 13.62 5.98538C11.4568 6.52026 6.49233 8.01608 3.76577 9.72711L3.75917 9.73126C3.6508 9.79693 3.54314 9.86114 3.43727 9.92434C3.07425 10.1411 2.73204 10.3454 2.45252 10.5515C2.27429 10.683 2.14839 10.7964 2.0709 10.8915C2.01366 10.9617 2.00201 10.9981 2.00003 11.0052C2.0026 11.2197 2.16368 11.4945 2.71059 11.7968C3.24068 12.0897 3.99716 12.3273 4.85476 12.5111C6.30654 12.8222 7.94349 12.9577 9 12.9913V9.5C9 9.22386 9.22386 9 9.5 9C9.77614 9 10 9.22386 10 9.5V13.5C10 13.7761 9.77614 14 9.5 14C8.4742 14 6.43779 13.873 4.64524 13.4889C3.75284 13.2977 2.88432 13.0353 2.22691 12.672C1.59078 12.3204 1 11.7848 1 11C1 10.6964 1.14455 10.4451 1.2959 10.2595C1.44998 10.0706 1.65194 9.89943 1.85896 9.74675C2.18184 9.50862 2.58239 9.26967 2.95214 9.0491C3.03731 8.9983 3.12085 8.94846 3.20142 8.89984C4.18197 8.01449 4.78153 6.72856 4.84003 5.688C4.86941 5.16535 4.76066 4.75387 4.55492 4.47927C4.3611 4.22059 4.03533 4.02123 3.48054 3.99962C3.38064 3.99573 3.25104 3.98138 3.12808 3.92667C2.99422 3.86712 2.80443 3.72411 2.77338 3.45878C2.74785 3.24068 2.85132 3.07612 2.90515 3.00263C2.969 2.91547 3.0489 2.84104 3.12365 2.78015C3.41558 2.54234 3.93098 2.27142 4.54912 2.01947ZM5.48257 4.06986C5.77416 4.55883 5.87184 5.15027 5.83845 5.74413C5.80113 6.40804 5.59849 7.12263 5.25949 7.80222C7.50013 6.7632 10.1966 5.89105 12.0783 5.36096C10.6822 4.77987 9.14586 4.45413 7.72434 4.26924C6.91442 4.1639 6.15213 4.10526 5.48257 4.06986Z" fill="#151515"/>
</svg>
