<svg width="15" height="15" viewBox="0 0 15 15" fill="none" xmlns="http://www.w3.org/2000/svg">
<path fill-rule="evenodd" clip-rule="evenodd" d="M7.6857 2.03576C7.94209 2.13831 8.06679 2.4293 7.96424 2.68569L7.03852 5H9.96148L11.0358 2.3143C11.1383 2.05791 11.4293 1.9332 11.6857 2.03576C11.9421 2.13831 12.0668 2.4293 11.9642 2.68569L11.0385 5H12.5C12.7761 5 13 5.22385 13 5.5C13 5.77614 12.7761 6 12.5 6H10.6385L9.43852 9H12.5C12.7761 9 13 9.22385 13 9.5C13 9.77614 12.7761 10 12.5 10H9.03852L7.96424 12.6857C7.86168 12.9421 7.5707 13.0668 7.3143 12.9642C7.05791 12.8617 6.93321 12.5707 7.03576 12.3143L7.96148 10H5.03852L3.96424 12.6857C3.86168 12.9421 3.5707 13.0668 3.3143 12.9642C3.05791 12.8617 2.9332 12.5707 3.03576 12.3143L3.96148 10H2.5C2.22386 10 2 9.77614 2 9.5C2 9.22385 2.22386 9 2.5 9H4.36148L5.56148 6H2.5C2.22386 6 2 5.77614 2 5.5C2 5.22385 2.22386 5 2.5 5H5.96148L7.03576 2.3143C7.13832 2.05791 7.4293 1.9332 7.6857 2.03576ZM6.63852 6L5.43852 9H8.36148L9.56148 6H6.63852Z" fill="#151515"/>
</svg>
