<svg id="Layer_1" data-name="Layer 1" xmlns="http://www.w3.org/2000/svg" viewBox="0 0 400 400"><defs><style>.cls-1{fill:#ed5d3a;}.cls-2{fill:#24cc44;}.cls-3{fill:#f9dfb9;}.cls-4,.cls-8{fill:#fff;}.cls-5{fill:#0098d9;}.cls-6,.cls-7{fill:none;stroke-linecap:round;stroke-width:1.88px;}.cls-6,.cls-7,.cls-8{stroke:#000;}.cls-6,.cls-8{stroke-miterlimit:10;}.cls-7{stroke-linejoin:round;}.cls-8{stroke-width:2.08px;}</style></defs><title>Desk_Dudes 37</title><path class="cls-1" d="M139.08,295.41c-4,4-22.31-9.37-22.31-9.37a19.83,19.83,0,0,0-2.65,7.7l50.41,18.75,1.27-5.3S143.13,291.36,139.08,295.41Z"/><path class="cls-1" d="M267.86,291.47s-17.94,11.37-21.77,7.19-28,10.17-28,10.17l-.36.07,1.2,6.69,51.4-15.88A19.74,19.74,0,0,0,267.86,291.47Z"/><path class="cls-2" d="M116.29,286.19s18.27,13.42,22.32,9.36,26.71,11.78,26.71,11.78l3.46-14.46.14-.59a121.36,121.36,0,0,0-23.12-10.4C134.39,278.31,121.9,277.18,116.29,286.19Z"/><path class="cls-2" d="M238,286.15a121.66,121.66,0,0,0-23.28,9l.1.6,2.4,13.31.37-.06s24.18-14.36,28-10.18,21.77-7.18,21.77-7.18h0C262.09,282.62,249.53,283.19,238,286.15Z"/><path class="cls-3" d="M167.44,119.29c1.82.06,3.64.13,5.44.21h0s5.62-40,7.4-55.17c1-8.61,2.76-26.72,30.08-25.17,24.39,1.39,19.14,31.36,19.14,31.36l-8.91,53.16v.07c2,.26,3.9.51,5.54.74v0s10-34.1,13.44-47c2-7.34,8-24.13,32.2-19.11,22.11,4.59,13.79,33.74,13.79,33.74L259.4,187.76c11.3-1.73,26.12-3.39,36.18-2.21,13.85,1.63,28.37,22.55,4.91,33.87-13.26,6.39-28.27,9.55-51.51,11.9,7.12,11.43-.06,18.68-18.12,21.1a112.51,112.51,0,0,1-14.2.89h-.81c-2.39,0-5.14,0-8.17-.09-8.1-.17-18.21-.59-28.63-1.42-3-.23-5.92-.49-8.88-.79-4.81-.49-9.57-1.07-14.14-1.75-16.64-2.49-30.6-6.37-33.92-12.29-4.77-8.49,6-12.8,6-12.8C109.35,203,113.55,102.7,117.22,76.24c4.06-29.29,44.21-28.8,46.56-3.92.33,3.51,3.66,46.77,3.66,46.77Zm11.11,42.78c11.09,2.57,40,.92,34.16-19.82-1-3.43-5.29-5.3-8.9-4.24-3.8,1.12-6.77,4.45-10.45,5.78-4.53,1.64-10.09.06-14-2.48-2.41-1.55-6.15-3.9-9.23-4.09-2.71-.16-8.05,2.48-6.87,11.32C164.7,154.23,167.61,159.53,178.55,162.07Z"/><path class="cls-4" d="M212.71,142.25c5.86,20.74-23.07,22.39-34.16,19.82s-13.85-7.84-15.3-13.53c-1.18-8.84,4.16-11.48,6.87-11.32,3.08.19,6.82,2.54,9.23,4.09,3.92,2.54,9.48,4.12,14,2.48,3.68-1.33,6.65-4.66,10.45-5.78C207.42,137,211.74,138.82,212.71,142.25Z"/><path class="cls-5" d="M238.41,285.73l-1.28-5.61-.53.12-13.86,4.26-9,2.76,1.4,7.72a122.35,122.35,0,0,1,23.29-9Z"/><path class="cls-5" d="M148.86,276.2l-.53-.15-1.59,5.53-.46.15a121.71,121.71,0,0,1,23.12,10.4l1.83-7.63-8.78-3.26Z"/><path class="cls-5" d="M230.88,252.59l0-.17a112.51,112.51,0,0,1-14.2.89h-.81c-2.39,0-5.14,0-8.17-.09v.29l6.12,33.74,9-2.76,13.86-4.26.53-.12Z"/><path class="cls-5" d="M156,249.27l-7.7,26.78.53.15,13.59,5,8.78,3.26L179,252v-.21c-3-.23-5.92-.49-8.88-.79C165.36,250.53,160.6,250,156,249.27Z"/><path class="cls-6" d="M167.44,119.09s-3.33-43.26-3.66-46.77c-2.35-24.88-42.5-25.37-46.56,3.92-3.67,26.46-7.87,126.75,10.92,147.94a13.93,13.93,0,0,0,2.53,2.26s12.76,9.34,52.09,10.89"/><path class="cls-6" d="M172.88,119.5s5.62-40,7.4-55.17c1-8.61,2.76-26.72,30.08-25.17,24.39,1.39,19.14,31.36,19.14,31.36l-8.91,53.16"/><path class="cls-6" d="M226.13,124.47s10-34.1,13.44-47c2-7.34,8-24.13,32.2-19.11,22.11,4.59,13.79,33.74,13.79,33.74L259.4,187.76"/><path class="cls-6" d="M211.56,122.65c3.29.37,6.33.75,9,1.1,2,.26,3.9.51,5.54.74,5.19.72,8.23,1.22,8.23,1.22"/><path class="cls-6" d="M145,119.29c7.37-.27,15-.24,22.48,0,1.82.06,3.64.13,5.44.21q4.85.21,9.56.52"/><path class="cls-6" d="M243.24,190.64s6.9-1.46,16.16-2.88h0c11.3-1.73,26.12-3.39,36.18-2.21,13.85,1.63,28.37,22.55,4.91,33.87-13.26,6.39-28.27,9.55-51.51,11.9-5.22.53-10.87,1-17,1.49"/><path class="cls-6" d="M128.14,224.18s-10.8,4.31-6,12.8c3.32,5.92,17.28,9.8,33.92,12.29,4.57.68,9.33,1.26,14.14,1.75,3,.3,5.93.56,8.88.79,10.42.83,20.53,1.25,28.63,1.42,3,.06,5.78.09,8.17.09h.81a112.51,112.51,0,0,0,14.2-.89c18.06-2.42,25.24-9.67,18.12-21.1"/><polyline class="cls-6" points="156.03 249.27 148.33 276.05 146.74 281.58"/><polyline class="cls-6" points="179.04 252.01 171.23 284.5 169.4 292.13"/><path class="cls-6" d="M169.4,292.13l-.15.59-3.45,14.47-1.27,5.3-50.41-18.75a19.83,19.83,0,0,1,2.65-7.7c5.61-9,18.1-7.88,29.51-4.31A121.71,121.71,0,0,1,169.4,292.13Z"/><polyline class="cls-6" points="148.85 276.2 162.45 281.24 171.23 284.5 171.24 284.5"/><line class="cls-6" x1="280.01" y1="169.34" x2="294.92" y2="124.59"/><line class="cls-6" x1="103.21" y1="163.59" x2="101.44" y2="116.74"/><line class="cls-6" x1="296.88" y1="159.01" x2="302.34" y2="144.69"/><line class="cls-6" x1="92.29" y1="146.04" x2="89.71" y2="131.03"/><path class="cls-6" d="M165.8,307.19s-22.67-15.83-26.72-11.78S116.77,286,116.77,286"/><line class="cls-6" x1="162.61" y1="280.83" x2="170.16" y2="251.08"/><polyline class="cls-6" points="230.88 252.59 237.13 280.12 238.41 285.73"/><polyline class="cls-6" points="236.6 280.24 222.74 284.5 213.79 287.26 213.78 287.26"/><polyline class="cls-6" points="207.67 253.52 213.79 287.26 215.19 294.98"/><path class="cls-6" d="M267.86,291.47c-5.3-9-17.86-8.43-29.38-5.47a122.35,122.35,0,0,0-23.29,9l.11.61,2.4,13.31,1.2,6.69,51.4-15.88a19.74,19.74,0,0,0-2.44-8.24"/><path class="cls-6" d="M218.06,308.83s24.19-14.36,28-10.17,21.77-7.19,21.77-7.19h0"/><line class="cls-6" x1="222.61" y1="284.08" x2="216.66" y2="253.52"/><path class="cls-7" d="M163.25,148.54c1.45,5.69,4.36,11,15.3,13.53s40,.92,34.16-19.82c-1-3.43-5.29-5.3-8.9-4.24-3.8,1.12-6.77,4.45-10.45,5.78-4.53,1.64-10.09.06-14-2.48-2.41-1.55-6.15-3.9-9.23-4.09C167.41,137.06,162.07,139.7,163.25,148.54Z"/><path class="cls-7" d="M166.82,142.46a24.25,24.25,0,0,0,2.33,2.54,25.75,25.75,0,0,0,7.23,4.85,28.76,28.76,0,0,0,9.26,2.38,39.47,39.47,0,0,0,10.62-.54A58.28,58.28,0,0,0,206,149c1.19-.44,2.42-.92,3.68-1.46"/><polyline class="cls-7" points="205.38 143.8 206 148.99 206.58 153.81"/><polyline class="cls-7" points="195.8 146.59 196.26 151.69 196.79 157.63"/><polyline class="cls-7" points="185.82 147.47 185.64 152.23 185.4 158.61"/><polyline class="cls-7" points="177.92 144.82 176.38 149.85 174.66 155.49"/><polyline class="cls-7" points="170.57 141.51 169.15 145 167.43 149.23"/><path class="cls-7" d="M208.52,133c5.83-1.9,10.21,3.52,10.52,8.15"/><path class="cls-7" d="M160.61,138.39a8.54,8.54,0,0,1,7.53-5.38"/><polygon points="155.24 252.02 176.56 262.32 179.04 251.26 156.69 248.41 155.24 252.02"/><polygon points="231.59 255.73 209.72 264.82 207.88 253.63 230.35 252.05 231.59 255.73"/><path d="M231,233.24s1.68,5,19.58,3.16a43.74,43.74,0,0,0-2.25-4.56Z"/><ellipse cx="188.55" cy="340.04" rx="39.72" ry="4.12"/><ellipse class="cls-8" cx="176.7" cy="113.18" rx="13.48" ry="12.04" transform="translate(41.84 273.95) rotate(-82.65)"/><ellipse cx="178.55" cy="112.1" rx="5.02" ry="4.03" transform="translate(49.07 278.48) rotate(-84.23)"/><ellipse class="cls-4" cx="181.99" cy="111.12" rx="1.54" ry="2.19" transform="translate(61.82 287.26) rotate(-87.11)"/><ellipse class="cls-8" cx="198.58" cy="113.18" rx="13.48" ry="12.04" transform="translate(60.91 295.64) rotate(-82.65)"/><ellipse cx="200.42" cy="112.1" rx="5.02" ry="4.03" transform="translate(68.75 300.24) rotate(-84.23)"/><ellipse class="cls-4" cx="203.86" cy="111.12" rx="1.54" ry="2.19" transform="translate(82.59 309.1) rotate(-87.11)"/></svg>