<svg width="24" height="24" viewBox="0 0 24 24" fill="none" xmlns="http://www.w3.org/2000/svg">
<path fill-rule="evenodd" clip-rule="evenodd" d="M12.7499 4C12.7499 3.58579 12.4142 3.25 11.9999 3.25C11.5857 3.25 11.2499 3.58579 11.2499 4V7.57536L6.61408 10.3569C6.38817 10.4924 6.24995 10.7366 6.24995 11V15.8555L2.57505 18.382C2.23372 18.6166 2.14725 19.0836 2.38192 19.4249C2.61658 19.7662 3.08352 19.8527 3.42484 19.618L7.04374 17.13L11.6385 19.6572C11.8724 19.7858 12.157 19.7804 12.3858 19.6431L16.9534 16.9026L20.5499 19.6C20.8813 19.8485 21.3514 19.7814 21.5999 19.45C21.8485 19.1186 21.7813 18.6485 21.4499 18.4L17.7499 15.625V11C17.7499 10.7366 17.6117 10.4924 17.3858 10.3569L12.7499 7.57536V4ZM11.2499 14.4246V17.7315L7.74995 15.8065V12.3246L11.2499 14.4246Z" fill="black"/>
</svg>
