<svg width="24" height="24" viewBox="0 0 24 24" fill="none" xmlns="http://www.w3.org/2000/svg">
<path fill-rule="evenodd" clip-rule="evenodd" d="M20.1027 3.16709C19.1213 2.51283 17.8246 2.59114 16.929 3.35873L15.8025 4.32429C15.3718 4.69348 14.7295 4.66881 14.3283 4.26767L14.2803 4.21966C13.2971 3.23641 11.7029 3.23641 10.7197 4.21966C9.73641 5.20291 9.73641 6.79707 10.7197 7.78032L10.9393 7.99999L5.05545 13.8839C4.53973 14.3996 4.24999 15.0991 4.24999 15.8284V16.7627C4.24999 16.8392 4.23765 16.9153 4.21343 16.988C3.63689 18.7176 5.2824 20.3631 7.01202 19.7866C7.08467 19.7623 7.16074 19.75 7.23732 19.75H8.17157C8.90091 19.75 9.60039 19.4603 10.1161 18.9445L16 13.0607L16.2197 13.2803C17.2029 14.2636 18.7971 14.2636 19.7803 13.2803C20.7636 12.2971 20.7636 10.7029 19.7803 9.71966L19.7323 9.67166C19.3312 9.27052 19.3065 8.62817 19.6757 8.19744L20.6413 7.07097C21.4089 6.17544 21.4872 4.87866 20.8329 3.89727C20.6401 3.60806 20.3919 3.35989 20.1027 3.16709ZM6.11611 14.9445L12 9.06065L14.9393 12L9.05545 17.8839C8.82103 18.1183 8.50309 18.25 8.17157 18.25H7.23732C6.99952 18.25 6.76327 18.2883 6.53767 18.3635C5.98069 18.5492 5.4508 18.0193 5.63646 17.4623C5.71166 17.2367 5.74999 17.0005 5.74999 16.7627V15.8284C5.74999 15.4969 5.88169 15.179 6.11611 14.9445Z" fill="black"/>
</svg>
