<svg width="24" height="24" viewBox="0 0 24 24" fill="none" xmlns="http://www.w3.org/2000/svg">
<path fill-rule="evenodd" clip-rule="evenodd" d="M12 2.25C6.61522 2.25 2.25 6.61522 2.25 12C2.25 17.3848 6.61522 21.75 12 21.75C17.3848 21.75 21.75 17.3848 21.75 12C21.75 11.6528 21.7318 11.3096 21.6963 10.9713C21.2823 7.02679 18.5189 3.78533 14.8319 2.66785C13.9348 2.39594 12.9838 2.25 12 2.25ZM3.75 12C3.75 7.44365 7.44365 3.75 12 3.75C12.3783 3.75 12.7504 3.77542 13.1148 3.82458L9.96967 6.96967C9.82902 7.11032 9.75 7.30109 9.75 7.5C9.75 7.69891 9.82902 7.88968 9.96967 8.03033C10.3236 8.38422 10.4029 8.93664 10.071 9.82634C9.74453 10.7013 9.09424 11.668 8.41074 12.536C8.18459 12.8232 8.19946 13.2295 8.4402 13.4991L7.46967 14.4697C7.2414 14.6979 7.18481 15.0467 7.32918 15.3354L8.32918 17.3354C8.437 17.551 8.64189 17.7017 8.87986 17.7403C9.11783 17.7789 9.35986 17.7008 9.53033 17.5303L11.0009 16.0598C11.2954 16.3229 11.7476 16.313 12.0303 16.0303C12.737 15.3237 13.6314 14.6696 14.5241 14.407C15.3642 14.1599 16.1921 14.2528 16.9697 15.0303C17.2626 15.3232 17.7374 15.3232 18.0303 15.0303L20.2063 12.8544C19.7788 17.0093 16.2679 20.25 12 20.25C7.44365 20.25 3.75 16.5563 3.75 12ZM9.5 14.5607L9.93934 15L9.20546 15.7339L8.91257 15.1481L9.5 14.5607Z" fill="black"/>
</svg>
