<svg width="24" height="24" viewBox="0 0 24 24" fill="none" xmlns="http://www.w3.org/2000/svg">
<path d="M12.75 3C12.75 2.58579 12.4142 2.25 12 2.25C11.5858 2.25 11.25 2.58579 11.25 3V21C11.25 21.4142 11.5858 21.75 12 21.75C12.4142 21.75 12.75 21.4142 12.75 21V3Z" fill="black"/>
<path d="M3.6103 4.56407C3.4208 4.29877 3.0816 4.18628 2.77112 4.28578C2.46064 4.38528 2.25 4.67396 2.25 5V19C2.25 19.326 2.46064 19.6147 2.77112 19.7142C3.0816 19.8137 3.4208 19.7012 3.6103 19.4359L8.6103 12.4359C8.79657 12.1752 8.79657 11.8248 8.6103 11.5641L3.6103 4.56407Z" fill="black"/>
<path d="M21.75 5C21.75 4.67396 21.5394 4.38528 21.2289 4.28578C20.9184 4.18628 20.5792 4.29877 20.3897 4.56407L15.3897 11.5641C15.2034 11.8248 15.2034 12.1752 15.3897 12.4359L20.3897 19.4359C20.5792 19.7012 20.9184 19.8137 21.2289 19.7142C21.5394 19.6147 21.75 19.326 21.75 19V5Z" fill="black"/>
</svg>
