<svg width="24" height="24" viewBox="0 0 24 24" fill="none" xmlns="http://www.w3.org/2000/svg">
<path d="M21 12.75C21.4142 12.75 21.75 12.4142 21.75 12C21.75 11.5858 21.4142 11.25 21 11.25H3C2.58579 11.25 2.25 11.5858 2.25 12C2.25 12.4142 2.58579 12.75 3 12.75H21Z" fill="black"/>
<path d="M19.4359 3.6103C19.7012 3.4208 19.8137 3.0816 19.7142 2.77112C19.6147 2.46064 19.326 2.25 19 2.25H5C4.67397 2.25 4.38528 2.46064 4.28578 2.77112C4.18628 3.0816 4.29877 3.4208 4.56407 3.6103L11.5641 8.6103C11.8248 8.79657 12.1752 8.79657 12.4359 8.6103L19.4359 3.6103Z" fill="black"/>
<path d="M19 21.75C19.326 21.75 19.6147 21.5394 19.7142 21.2289C19.8137 20.9184 19.7012 20.5792 19.4359 20.3897L12.4359 15.3897C12.1752 15.2034 11.8248 15.2034 11.5641 15.3897L4.56407 20.3897C4.29877 20.5792 4.18628 20.9184 4.28578 21.2289C4.38528 21.5394 4.67397 21.75 5 21.75H19Z" fill="black"/>
</svg>
