<svg width="24" height="24" viewBox="0 0 24 24" fill="none" xmlns="http://www.w3.org/2000/svg">
<path fill-rule="evenodd" clip-rule="evenodd" d="M12 2.25C6.61522 2.25 2.25 6.61522 2.25 12C2.25 15.8293 4.45765 19.1416 7.66622 20.7361C8.97257 21.3853 10.4448 21.75 12 21.75C13.5552 21.75 15.0274 21.3853 16.3338 20.7361C19.5423 19.1416 21.75 15.8293 21.75 12C21.75 6.61522 17.3848 2.25 12 2.25ZM3.75 12C3.75 7.44365 7.44365 3.75 12 3.75C16.5563 3.75 20.25 7.44365 20.25 12C20.25 14.787 18.8681 17.2523 16.75 18.7464V12C16.75 11.8297 16.692 11.6645 16.5857 11.5315L12.5857 6.53148C12.4433 6.35357 12.2278 6.25 12 6.25C11.7722 6.25 11.5567 6.35357 11.4143 6.53148L7.41435 11.5315C7.30796 11.6645 7.25 11.8297 7.25 12L7.25 18.7464C5.13187 17.2523 3.75 14.787 3.75 12ZM9.34352 12.4143C9.17481 12.2794 9.04084 12.1454 8.93791 12.0282L10.7605 9.75H13.2395L15.0621 12.0282C14.9592 12.1454 14.8252 12.2794 14.6565 12.4143C14.1549 12.8156 13.3178 13.25 12 13.25C10.6822 13.25 9.84512 12.8156 9.34352 12.4143Z" fill="black"/>
</svg>
