<svg width="24" height="24" viewBox="0 0 24 24" fill="none" xmlns="http://www.w3.org/2000/svg">
<path fill-rule="evenodd" clip-rule="evenodd" d="M12 2.25C6.61522 2.25 2.25 6.61522 2.25 12C2.25 17.3848 6.61522 21.75 12 21.75C17.3848 21.75 21.75 17.3848 21.75 12C21.75 11.3268 21.6817 10.6688 21.5513 10.0328C20.771 6.22573 17.7743 3.22899 13.9672 2.44869C13.3312 2.31833 12.6732 2.25 12 2.25ZM3.75 12C3.75 7.44365 7.44365 3.75 12 3.75C12.0626 3.75 12.125 3.7507 12.1873 3.75208L10.4697 5.46967C10.3873 5.552 10.3253 5.65237 10.2885 5.76283L8.78849 10.2628C8.69865 10.5323 8.7688 10.8295 8.96967 11.0303L9.11997 11.1806L8.30364 13.2215C8.26821 13.31 8.25 13.4046 8.25 13.5V15C8.25 15.4142 8.58579 15.75 9 15.75H10.5C10.5954 15.75 10.69 15.7318 10.7785 15.6964L12.8194 14.88L12.9697 15.0303C13.1705 15.2312 13.4677 15.3013 13.7372 15.2115L18.2372 13.7115C18.3476 13.6747 18.448 13.6127 18.5303 13.5303L20.2479 11.8127C20.2493 11.875 20.25 11.9374 20.25 12C20.25 16.5563 16.5563 20.25 12 20.25C7.44365 20.25 3.75 16.5563 3.75 12ZM9.75 13.6444L10.2739 12.3346L11.6654 13.7261L10.3556 14.25H9.75V13.6444Z" fill="black"/>
</svg>
