<svg width="24" height="24" viewBox="0 0 24 24" fill="none" xmlns="http://www.w3.org/2000/svg">
<path fill-rule="evenodd" clip-rule="evenodd" d="M17.2346 10.3829C17.5656 9.65687 17.75 8.84997 17.75 8C17.75 4.82436 15.1756 2.25 12 2.25C8.82436 2.25 6.25 4.82436 6.25 8C6.25 8.85014 6.43444 9.657 6.76542 10.3829C4.1831 10.9478 2.25 13.2482 2.25 16C2.25 19.1756 4.82436 21.75 8 21.75C9.55491 21.75 10.9657 21.1323 12 20.1306C13.0343 21.1323 14.4451 21.75 16 21.75C19.1756 21.75 21.75 19.1756 21.75 16C21.75 13.2482 19.8169 10.9478 17.2346 10.3829ZM8.59968 10.5496C8.35091 10.2184 7.88076 10.1516 7.54957 10.4003C7.21838 10.6491 7.15156 11.1192 7.40032 11.4504C8.21559 12.5358 9.40775 13.3244 10.7832 13.6209C10.4217 14.4038 10.25 15.1922 10.25 16C10.25 17.1583 10.6724 18.482 11.4004 19.451C11.6492 19.7822 12.1193 19.8489 12.4505 19.6001C12.7817 19.3513 12.8484 18.8811 12.5996 18.55C12.0718 17.8475 11.75 16.8417 11.75 16C11.75 15.2638 11.9439 14.5243 12.4187 13.735C14.1282 13.6119 15.6303 12.7409 16.5997 11.4504C16.8484 11.1192 16.7816 10.6491 16.4504 10.4003C16.1192 10.1516 15.6491 10.2184 15.4003 10.5496C14.6236 11.5836 13.3899 12.25 12 12.25C10.6101 12.25 9.37636 11.5836 8.59968 10.5496Z" fill="black"/>
</svg>
