<svg width="24" height="24" viewBox="0 0 24 24" fill="none" xmlns="http://www.w3.org/2000/svg">
<path fill-rule="evenodd" clip-rule="evenodd" d="M12 2.25C6.61522 2.25 2.25 6.61522 2.25 12C2.25 15.3812 3.97173 18.3599 6.58281 20.1077C8.1325 21.145 9.99674 21.75 12 21.75C14.0033 21.75 15.8675 21.145 17.4172 20.1077C20.0283 18.3599 21.75 15.3812 21.75 12C21.75 6.61522 17.3848 2.25 12 2.25ZM3.75 12C3.75 7.44365 7.44365 3.75 12 3.75C16.5563 3.75 20.25 7.44365 20.25 12C20.25 14.3199 19.2928 16.4165 17.75 17.9162V15C17.75 14.5858 17.4142 14.25 17 14.25H16.75V12C16.75 11.8297 16.692 11.6645 16.5857 11.5315L12.5857 6.53148C12.4433 6.35357 12.2278 6.25 12 6.25C11.7722 6.25 11.5567 6.35357 11.4143 6.53148L7.41435 11.5315C7.30796 11.6645 7.25 11.8297 7.25 12V14.25H7C6.58579 14.25 6.25 14.5858 6.25 15V17.9162C4.70717 16.4165 3.75 14.3199 3.75 12ZM15.25 12.2631V14.25H8.75V12.2631L11.25 9.13809V12C11.25 12.4142 11.5858 12.75 12 12.75C12.4142 12.75 12.75 12.4142 12.75 12V9.13809L15.25 12.2631Z" fill="black"/>
</svg>
