<svg width="24" height="24" viewBox="0 0 24 24" fill="none" xmlns="http://www.w3.org/2000/svg">
<path fill-rule="evenodd" clip-rule="evenodd" d="M2.25 10C2.25 5.71979 5.71979 2.25 10 2.25C14.2802 2.25 17.75 5.71979 17.75 10C17.75 11.87 17.0877 13.5853 15.9848 14.9242L20.5303 19.4697C20.8232 19.7626 20.8232 20.2374 20.5303 20.5303C20.2374 20.8232 19.7626 20.8232 19.4697 20.5303L14.9242 15.9848C13.5853 17.0877 11.87 17.75 10 17.75C5.71979 17.75 2.25 14.2802 2.25 10ZM7 9.25C6.58579 9.25 6.25 9.58579 6.25 10C6.25 10.4142 6.58579 10.75 7 10.75H13C13.4142 10.75 13.75 10.4142 13.75 10C13.75 9.58579 13.4142 9.25 13 9.25H7Z" fill="black"/>
</svg>
