<svg width="24" height="24" viewBox="0 0 24 24" fill="none" xmlns="http://www.w3.org/2000/svg">
<rect x="6" y="13" width="4" height="2" fill="black"/>
<rect x="14" y="17" width="4" height="2" fill="black"/>
<rect x="6" y="17" width="4" height="2" fill="black"/>
<rect x="15" y="14" width="4" height="2" transform="rotate(90 15 14)" fill="black"/>
<rect x="7" y="10" width="8" height="2" transform="rotate(90 7 10)" fill="black"/>
<rect x="19" y="10" width="3" height="2" transform="rotate(90 19 10)" fill="black"/>
<rect width="3" height="1" transform="matrix(-4.37114e-08 1 1 4.37114e-08 18 11)" fill="black"/>
<rect x="11" y="14" width="4" height="2" transform="rotate(90 11 14)" fill="black"/>
<rect x="8" y="8" width="2" height="2" transform="rotate(90 8 8)" fill="black"/>
<rect x="18" y="8" width="2" height="2" transform="rotate(90 18 8)" fill="black"/>
<rect x="13" y="4" width="2" height="2" transform="rotate(90 13 4)" fill="black"/>
<rect x="11" y="5" width="1" height="1" transform="rotate(90 11 5)" fill="black"/>
<rect x="17" y="6" width="2" height="2" transform="rotate(90 17 6)" fill="black"/>
<rect x="15" y="5" width="2" height="2" transform="rotate(90 15 5)" fill="black"/>
<path d="M4 4H6V6H4V4Z" fill="black"/>
<path d="M3 3H5V5H3V3Z" fill="black"/>
<path d="M19 19H21V21H19V19Z" fill="black"/>
<path d="M6 6H8V8H6V6Z" fill="black"/>
<path d="M8 8H10V10H8V8Z" fill="black"/>
<path d="M10 10H12V12H10V10Z" fill="black"/>
<path d="M12 12H14V14H12V12Z" fill="black"/>
<path d="M14 14H16V16H14V14Z" fill="black"/>
<path d="M16 16H18V18H16V16Z" fill="black"/>
<path d="M18 18H20V20H18V18Z" fill="black"/>
<path d="M5 5H7V7H5V5Z" fill="black"/>
<path d="M7 7H9V9H7V7Z" fill="black"/>
<path d="M9 9H11V11H9V9Z" fill="black"/>
<path d="M11 11H13V13H11V11Z" fill="black"/>
<path d="M13 13H15V15H13V13Z" fill="black"/>
<path d="M15 15H17V17H15V15Z" fill="black"/>
<path d="M17 17H19V19H17V17Z" fill="black"/>
</svg>
