<svg width="24" height="24" viewBox="0 0 24 24" fill="none" xmlns="http://www.w3.org/2000/svg">
<rect x="4" y="17" width="8" height="2" fill="black"/>
<rect x="4" y="5" width="16" height="2" fill="black"/>
<rect x="5" y="8" width="2" height="2" fill="black"/>
<rect x="17" y="8" width="2" height="2" fill="black"/>
<rect x="16" y="9" width="2" height="2" fill="black"/>
<rect x="15" y="10" width="2" height="2" fill="black"/>
<rect x="14" y="11" width="2" height="2" fill="black"/>
<rect x="6" y="9" width="2" height="2" fill="black"/>
<rect x="7" y="10" width="2" height="2" fill="black"/>
<rect x="8" y="11" width="2" height="2" fill="black"/>
<rect x="9" y="12" width="2" height="2" fill="black"/>
<rect x="13" y="12" width="2" height="2" fill="black"/>
<rect x="10" y="13" width="2" height="2" fill="black"/>
<rect x="12" y="13" width="2" height="2" fill="black"/>
<rect x="4" y="7" width="10" height="2" transform="rotate(90 4 7)" fill="black"/>
<rect x="22" y="7" width="4" height="2" transform="rotate(90 22 7)" fill="black"/>
<rect x="16" y="16" width="6" height="2" fill="black"/>
</svg>
