<svg width="24" height="24" viewBox="0 0 24 24" fill="none" xmlns="http://www.w3.org/2000/svg">
<rect x="15" y="3" width="2" height="6" transform="rotate(90 15 3)" fill="black"/>
<rect x="16" y="4" width="2" height="2" transform="rotate(90 16 4)" fill="black"/>
<rect x="10" y="4" width="2" height="2" transform="rotate(90 10 4)" fill="black"/>
<rect x="17" y="5" width="2" height="2" transform="rotate(90 17 5)" fill="black"/>
<rect x="9" y="5" width="2" height="2" transform="rotate(90 9 5)" fill="black"/>
<rect x="9" y="10" width="2" height="2" transform="rotate(90 9 10)" fill="black"/>
<rect x="10" y="12" width="2" height="2" transform="rotate(90 10 12)" fill="black"/>
<rect x="7" y="13" width="2" height="2" transform="rotate(90 7 13)" fill="black"/>
<rect width="2" height="2" transform="matrix(4.37114e-08 1 1 -4.37114e-08 17 13)" fill="black"/>
<rect x="6" y="15" width="2" height="2" transform="rotate(90 6 15)" fill="black"/>
<rect width="2" height="2" transform="matrix(4.37114e-08 1 1 -4.37114e-08 18 15)" fill="black"/>
<rect x="5" y="17" width="2" height="2" transform="rotate(90 5 17)" fill="black"/>
<rect width="2" height="2" transform="matrix(4.37114e-08 1 1 -4.37114e-08 19 17)" fill="black"/>
<rect x="21" y="19" width="2" height="18" transform="rotate(90 21 19)" fill="black"/>
<rect x="16" y="12" width="2" height="2" transform="rotate(90 16 12)" fill="black"/>
<rect x="15" y="14" width="2" height="2" transform="rotate(90 15 14)" fill="black"/>
<rect x="11" y="14" width="2" height="2" transform="rotate(90 11 14)" fill="black"/>
<rect x="13" y="15" width="2" height="2" transform="rotate(90 13 15)" fill="black"/>
<rect x="17" y="10" width="2" height="2" transform="rotate(90 17 10)" fill="black"/>
<rect x="18" y="7" width="4" height="2" transform="rotate(90 18 7)" fill="black"/>
<rect x="8" y="7" width="4" height="2" transform="rotate(90 8 7)" fill="black"/>
<rect x="14" y="8" width="2" height="4" transform="rotate(90 14 8)" fill="black"/>
<rect x="13" y="11" width="2" height="4" transform="rotate(180 13 11)" fill="black"/>
</svg>
