<svg width="24" height="24" viewBox="0 0 24 24" fill="none" xmlns="http://www.w3.org/2000/svg">
<rect x="7" y="4" width="16" height="2" transform="rotate(90 7 4)" fill="black"/>
<rect x="19" y="7" width="6" height="2" transform="rotate(90 19 7)" fill="black"/>
<rect x="6" y="3" width="7" height="2" fill="black"/>
<rect x="15" y="5" width="2" height="2" fill="black"/>
<rect x="16" y="6" width="2" height="2" fill="black"/>
<rect x="14" y="4" width="2" height="2" fill="black"/>
<rect x="12" y="3" width="3" height="2" fill="black"/>
<rect x="6" y="19" width="6" height="2" fill="black"/>
<path d="M19 19H17L17 21L19 21V19Z" fill="black"/>
<path d="M18 20H15L15 22L18 22V20Z" fill="black"/>
<path d="M16 19H14L14 21L16 21L16 19Z" fill="black"/>
<path d="M20 17L18 17V19L20 19V17Z" fill="black"/>
<path d="M21 15L19 15V17L21 17V15Z" fill="black"/>
</svg>
