<svg width="24" height="24" viewBox="0 0 24 24" fill="none" xmlns="http://www.w3.org/2000/svg">
<rect x="15" y="7" width="2" height="2" fill="black"/>
<rect x="17" y="15" width="2" height="2" transform="rotate(90 17 15)" fill="black"/>
<rect x="13" y="9" width="2" height="2" fill="black"/>
<rect x="11" y="11" width="2" height="2" fill="black"/>
<rect x="13" y="11" width="2" height="2" transform="rotate(90 13 11)" fill="black"/>
<rect x="7" y="15" width="2" height="2" fill="black"/>
<rect x="9" y="7" width="2" height="2" transform="rotate(90 9 7)" fill="black"/>
<rect x="9" y="13" width="2" height="2" fill="black"/>
<rect x="5" y="17" width="2" height="2" fill="black"/>
<rect x="7" y="5" width="2" height="2" transform="rotate(90 7 5)" fill="black"/>
<rect x="4" y="18" width="2" height="2" fill="black"/>
<rect x="6" y="4" width="2" height="2" transform="rotate(90 6 4)" fill="black"/>
<rect x="10" y="12" width="2" height="2" fill="black"/>
<rect x="6" y="16" width="2" height="2" fill="black"/>
<rect x="8" y="6" width="2" height="2" transform="rotate(90 8 6)" fill="black"/>
<rect x="12" y="10" width="2" height="2" fill="black"/>
<rect x="8" y="14" width="2" height="2" fill="black"/>
<rect x="10" y="8" width="2" height="2" transform="rotate(90 10 8)" fill="black"/>
<rect x="14" y="8" width="2" height="2" fill="black"/>
<rect x="16" y="14" width="2" height="2" transform="rotate(90 16 14)" fill="black"/>
<rect x="16" y="6" width="2" height="2" fill="black"/>
<rect x="18" y="16" width="2" height="2" transform="rotate(90 18 16)" fill="black"/>
<rect x="17" y="5" width="2" height="2" fill="black"/>
<rect x="19" y="17" width="2" height="2" transform="rotate(90 19 17)" fill="black"/>
<rect x="14" y="4" width="6" height="2" fill="black"/>
<rect x="20" y="14" width="6" height="2" transform="rotate(90 20 14)" fill="black"/>
<rect x="18" y="10" width="6" height="2" transform="rotate(-90 18 10)" fill="black"/>
<rect x="14" y="18" width="6" height="2" fill="black"/>
</svg>
