<svg width="24" height="24" viewBox="0 0 24 24" fill="none" xmlns="http://www.w3.org/2000/svg">
<rect width="2" height="2" transform="matrix(-1 0 0 1 13 4)" fill="black"/>
<rect width="2" height="2" transform="matrix(-1 0 0 1 12 5)" fill="black"/>
<rect width="2" height="2" transform="matrix(-1 0 0 1 14 5)" fill="black"/>
<rect width="2" height="2" transform="matrix(-1 0 0 1 15 7)" fill="black"/>
<rect width="2" height="2" transform="matrix(-1 0 0 1 11 7)" fill="black"/>
<rect width="2" height="2" transform="matrix(-1 0 0 1 7 11)" fill="black"/>
<rect width="2" height="2" transform="matrix(-1 0 0 1 19 11)" fill="black"/>
<rect width="2" height="2" transform="matrix(-1 0 0 1 18 12)" fill="black"/>
<rect width="2" height="2" transform="matrix(-1 0 0 1 8 12)" fill="black"/>
<rect width="2" height="3" transform="matrix(-1 0 0 1 9 13)" fill="black"/>
<rect width="2" height="3" transform="matrix(-1 0 0 1 17 13)" fill="black"/>
<rect width="2" height="3" transform="matrix(-1 0 0 1 8 16)" fill="black"/>
<rect width="2" height="2" transform="matrix(-1 0 0 1 11 17)" fill="black"/>
<rect width="4" height="2" transform="matrix(-1 0 0 1 10 18)" fill="black"/>
<rect width="4" height="2" transform="matrix(-1 0 0 1 18 18)" fill="black"/>
<rect width="4" height="2" transform="matrix(-1 0 0 1 14 16)" fill="black"/>
<rect width="2" height="2" transform="matrix(-1 0 0 1 15 17)" fill="black"/>
<rect width="2" height="3" transform="matrix(-1 0 0 1 18 16)" fill="black"/>
<rect width="6" height="2" transform="matrix(-1 0 0 1 10 9)" fill="black"/>
<rect width="6" height="2" transform="matrix(-1 0 0 1 20 9)" fill="black"/>
</svg>
