<svg width="24" height="24" viewBox="0 0 24 24" fill="none" xmlns="http://www.w3.org/2000/svg">
<rect width="2" height="2" transform="matrix(-1 -8.74228e-08 -8.74228e-08 1 13 4)" fill="black"/>
<rect width="2" height="2" transform="matrix(-1 -8.74228e-08 -8.74228e-08 1 15 5)" fill="black"/>
<rect width="2" height="2" transform="matrix(-1 -8.74228e-08 -8.74228e-08 1 16 7)" fill="black"/>
<rect width="2" height="2" transform="matrix(-1 -8.74228e-08 -8.74228e-08 1 15 9)" fill="black"/>
<rect width="2" height="2" transform="matrix(-1 -8.74228e-08 -8.74228e-08 1 13 10)" fill="black"/>
<rect width="2" height="2" transform="matrix(-1 -8.74228e-08 -8.74228e-08 1 8 15)" fill="black"/>
<rect width="2" height="3" transform="matrix(-1 -8.74228e-08 -8.74228e-08 1 7 17)" fill="black"/>
<rect width="2" height="3" transform="matrix(-1 -8.74228e-08 -8.74228e-08 1 19 17)" fill="black"/>
<rect width="10" height="2" transform="matrix(-1 -8.74228e-08 -8.74228e-08 1 17 14)" fill="black"/>
<rect width="2" height="2" transform="matrix(-1 -8.74228e-08 -8.74228e-08 1 18 15)" fill="black"/>
<rect width="2" height="2" transform="matrix(-1 -8.74228e-08 -8.74228e-08 1 11 9)" fill="black"/>
<rect width="2" height="2" transform="matrix(-1 -8.74228e-08 -8.74228e-08 1 11 5)" fill="black"/>
<rect width="2" height="2" transform="matrix(-1 -8.74228e-08 -8.74228e-08 1 10 7)" fill="black"/>
</svg>
