<svg width="24" height="24" viewBox="0 0 24 24" fill="none" xmlns="http://www.w3.org/2000/svg">
<rect x="14" y="8" width="10" height="2" transform="rotate(-180 14 8)" fill="black"/>
<rect x="14" y="18" width="10" height="2" transform="rotate(-180 14 18)" fill="black"/>
<rect x="15" y="7" width="10" height="2" transform="rotate(90 15 7)" fill="black"/>
<rect x="17" y="9" width="2" height="2" transform="rotate(90 17 9)" fill="black"/>
<rect width="2" height="3" transform="matrix(4.37114e-08 1 1 -4.37114e-08 17 14)" fill="black"/>
<rect x="20" y="8" width="2" height="3" transform="rotate(90 20 8)" fill="black"/>
<rect width="2" height="2" transform="matrix(4.37114e-08 1 1 -4.37114e-08 15 13)" fill="black"/>
<rect x="21" y="9" width="6" height="2" transform="rotate(90 21 9)" fill="black"/>
<rect x="5" y="7" width="10" height="2" transform="rotate(90 5 7)" fill="black"/>
</svg>
