<svg width="24" height="24" viewBox="0 0 24 24" fill="none" xmlns="http://www.w3.org/2000/svg">
<rect width="2" height="2" transform="matrix(1 1.74846e-07 1.74846e-07 -1 6 7)" fill="black"/>
<rect x="14" y="7" width="2" height="2" transform="rotate(180 14 7)" fill="black"/>
<rect x="6" y="13" width="2" height="2" fill="black"/>
<rect width="2" height="2" transform="matrix(-1 -1.74846e-07 -1.74846e-07 1 14 13)" fill="black"/>
<rect width="2" height="2" transform="matrix(1 1.74846e-07 1.74846e-07 -1 5 8)" fill="black"/>
<rect x="15" y="8" width="2" height="2" transform="rotate(180 15 8)" fill="black"/>
<rect x="5" y="12" width="2" height="2" fill="black"/>
<rect width="2" height="2" transform="matrix(-1 -1.74846e-07 -1.74846e-07 1 15 12)" fill="black"/>
<rect width="4" height="2" transform="matrix(1 1.74846e-07 1.74846e-07 -1 8 6)" fill="black"/>
<rect width="4" height="2" transform="matrix(-1 -1.74846e-07 -1.74846e-07 1 12 14)" fill="black"/>
<rect width="4" height="2" transform="matrix(-4.37114e-08 -1 -1 4.37114e-08 6 12)" fill="black"/>
<rect width="4" height="2" transform="matrix(4.37114e-08 1 1 -4.37114e-08 14 8)" fill="black"/>
<rect width="2" height="2" transform="matrix(-1 -1.74846e-07 -1.74846e-07 1 16 14)" fill="black"/>
<rect width="2" height="2" transform="matrix(-1 -1.74846e-07 -1.74846e-07 1 17 15)" fill="black"/>
<rect width="2" height="2" transform="matrix(-1 -1.74846e-07 -1.74846e-07 1 18 16)" fill="black"/>
<rect width="2" height="2" transform="matrix(-1 -1.74846e-07 -1.74846e-07 1 19 17)" fill="black"/>
<rect width="2" height="2" transform="matrix(-1 -1.74846e-07 -1.74846e-07 1 20 18)" fill="black"/>
<rect x="7" y="9" width="6" height="2" fill="black"/>
<rect x="11" y="7" width="6" height="2" transform="rotate(90 11 7)" fill="black"/>
</svg>
