<svg width="24" height="24" viewBox="0 0 24 24" fill="none" xmlns="http://www.w3.org/2000/svg">
<g clip-path="url(#clip0_16_1624)">
<path d="M7.53697 9.95L4.65997 7.076L2.18597 9.55L0.771973 8.136L7.13597 1.772L8.54997 3.186L6.07497 5.661L8.95097 8.537C10.4639 7.38359 12.3585 6.84822 14.2513 7.03928C16.1442 7.23034 17.8936 8.13357 19.1455 9.56606C20.3974 10.9986 21.0581 12.8532 20.9938 14.7546C20.9296 16.6559 20.1452 18.4618 18.7995 19.8065C17.4538 21.1513 15.6474 21.9344 13.746 21.9973C11.8447 22.0601 9.99042 21.3981 8.55882 20.1452C7.12721 18.8924 6.22522 17.1423 6.0355 15.2493C5.84578 13.3564 6.38249 11.4621 7.53697 9.95Z" fill="#09121F"/>
</g>
<defs>
<clipPath id="clip0_16_1624">
<rect width="24" height="24" fill="white"/>
</clipPath>
</defs>
</svg>
