<?xml version="1.0" encoding="iso-8859-1"?>
<!-- Generator: Adobe Illustrator 19.0.0, SVG Export Plug-In . SVG Version: 6.00 Build 0)  -->
<svg version="1.1" id="Layer_1" xmlns="http://www.w3.org/2000/svg" xmlns:xlink="http://www.w3.org/1999/xlink" x="0px" y="0px"
	 viewBox="0 0 512 512" style="enable-background:new 0 0 512 512;" xml:space="preserve">
<g>
	<g>
		<rect x="411.837" y="345.043" width="35.247" height="33.391"/>
	</g>
</g>
<g>
	<g>
		<g>
			<polygon points="478.619,411.827 478.619,378.435 447.084,378.435 447.084,411.827 66.783,411.827 66.783,378.435 
				33.391,378.435 33.391,411.827 0,411.827 0,445.219 33.391,445.219 33.391,478.609 66.783,478.609 66.783,445.219 
				447.084,445.219 447.084,478.609 478.619,478.609 478.619,445.219 512,445.219 512,411.827 			"/>
			<rect x="412.79" y="478.609" width="34.294" height="33.391"/>
		</g>
	</g>
</g>
<g>
	<g>
		<rect x="66.783" y="478.609" width="34.294" height="33.391"/>
	</g>
</g>
<g>
	<g>
		<rect x="66.783" y="345.043" width="33.391" height="33.391"/>
	</g>
</g>
<g>
	<g>
		<polygon points="411.826,122.437 411.826,0 100.174,0 100.174,0.003 100.174,122.437 166.957,122.437 166.957,89.044 
			211.478,89.044 211.478,278.261 144.696,278.261 144.696,345.043 233.739,345.043 278.261,345.043 367.304,345.043 
			367.304,278.261 300.522,278.261 300.522,89.044 345.043,89.044 345.043,122.437 		"/>
	</g>
</g>
<g>
</g>
<g>
</g>
<g>
</g>
<g>
</g>
<g>
</g>
<g>
</g>
<g>
</g>
<g>
</g>
<g>
</g>
<g>
</g>
<g>
</g>
<g>
</g>
<g>
</g>
<g>
</g>
<g>
</g>
</svg>
