<?xml version="1.0" encoding="iso-8859-1"?>
<!-- Generator: Adobe Illustrator 19.0.0, SVG Export Plug-In . SVG Version: 6.00 Build 0)  -->
<svg version="1.1" id="Layer_1" xmlns="http://www.w3.org/2000/svg" xmlns:xlink="http://www.w3.org/1999/xlink" x="0px" y="0px"
	 viewBox="0 0 512 512" style="enable-background:new 0 0 512 512;" xml:space="preserve">
<g>
	<g>
		<polygon points="111.304,0 111.304,66.783 144.693,66.783 144.693,33.391 222.609,33.391 222.609,0 		"/>
	</g>
</g>
<g>
	<g>
		<polygon points="77.913,100.174 77.913,0 0.001,0 0.001,0.001 0,0.001 0,445.217 144.693,445.217 144.693,100.174 		"/>
	</g>
</g>
<g>
	<g>
		<rect x="256" width="77.913" height="33.391"/>
	</g>
</g>
<g>
	<g>
		<polygon points="478.609,133.565 478.609,100.174 445.217,100.174 445.217,66.783 411.826,66.783 411.826,166.957 512,166.957 
			512,133.565 		"/>
	</g>
</g>
<g>
	<g>
		<polygon points="378.435,200.348 378.435,66.783 178.087,66.783 178.087,512 512,512 512,200.348 		"/>
	</g>
</g>
<g>
</g>
<g>
</g>
<g>
</g>
<g>
</g>
<g>
</g>
<g>
</g>
<g>
</g>
<g>
</g>
<g>
</g>
<g>
</g>
<g>
</g>
<g>
</g>
<g>
</g>
<g>
</g>
<g>
</g>
</svg>
