<?xml version="1.0" encoding="utf-8"?><!-- Uploaded to: SVG Repo, www.svgrepo.com, Generator: SVG Repo Mixer Tools -->
<svg width="800px" height="800px" viewBox="0 0 32 32" id="cocktailglass_Light" data-name="cocktailglass/Light" xmlns="http://www.w3.org/2000/svg">
  <path id="Path" d="M0,0H14V14H12V10H10V8h2V2H2V14H0Z" fill="#1a1a1a"/>
  <path id="Path-2" data-name="Path" d="M6,0H24V32H20V30H16V20h2V18h2V16h2V12H8v4h2v2h2v2h2V30H10v2H4V30H0V18H2V16H4V14H6Z" transform="translate(8)" fill="#ffffff"/>
  <path id="Path-3" data-name="Path" d="M0,0H10V6H8V2H6V6H2V8H6v4H8v2H2V12H0Z" transform="translate(2 2)" fill="#ffffff"/>
  <path id="Path-4" data-name="Path" d="M0,0H2V4H0Z" transform="translate(8 4)" fill="#1a1a1a"/>
  <path id="Path-5" data-name="Path" d="M0,0H4V2H0Z" transform="translate(4 8)" fill="#1a1a1a"/>
  <path id="Path-6" data-name="Path" d="M0,0H2V2H0Z" transform="translate(8 8)" fill="#ffffff"/>
  <path id="Path-7" data-name="Path" d="M0,0H2V4H0Z" transform="translate(8 10)" fill="#1a1a1a"/>
  <path id="Path-8" data-name="Path" d="M0,0H2V4H0Z" transform="translate(10 10)" fill="#ffffff"/>
  <path id="Path-9" data-name="Path" d="M0,0H14V4H12V2H2V4H0Z" transform="translate(16 12)" fill="#1a1a1a"/>
  <path id="Path-10" data-name="Path" d="M0,0H2V2H4V4H6V16H2v2H0Z" transform="translate(0 14)" fill="#ffffff"/>
  <path id="Path-11" data-name="Path" d="M0,0H2V2H0Z" transform="translate(2 14)" fill="#1a1a1a"/>
  <path id="Path-12" data-name="Path" d="M0,0H2V2H0Z" transform="translate(10 14)" fill="#1a1a1a"/>
  <path id="Path-13" data-name="Path" d="M0,0H10V2H8V4H6V6H4V4H2V2H0Z" transform="translate(18 14)" fill="#ffffff"/>
  <path id="Path-14" data-name="Path" d="M2,0H8V2H6V14h4v2H0V14H4V2H2Z" transform="translate(2 16)" fill="#1a1a1a"/>
  <path id="Path-15" data-name="Path" d="M0,0H2V2H0Z" transform="translate(18 16)" fill="#1a1a1a"/>
  <path id="Path-16" data-name="Path" d="M0,0H2V2H0Z" transform="translate(26 16)" fill="#1a1a1a"/>
  <path id="Path-17" data-name="Path" d="M0,0H2V2H0Z" transform="translate(20 18)" fill="#1a1a1a"/>
  <path id="Path-18" data-name="Path" d="M0,0H2V2H0Z" transform="translate(24 18)" fill="#1a1a1a"/>
  <path id="Path-19" data-name="Path" d="M4,0H6V10h4v2H0V10H4Z" transform="translate(18 20)" fill="#1a1a1a"/>
</svg>