<?xml version="1.0" encoding="utf-8"?><!-- Uploaded to: SVG Repo, www.svgrepo.com, Generator: SVG Repo Mixer Tools -->
<svg width="800px" height="800px" viewBox="0 0 32 32" id="forkandknife_Dark" data-name="forkandknife/Dark" xmlns="http://www.w3.org/2000/svg">
  <path id="Path" d="M0,0H2V10H4V0H6V10H8V0h2V12H8v4H6v6H8V32H4V16H2V12H0Z" fill="#ffffff"/>
  <path id="Path-2" data-name="Path" d="M0,0H2V10H0Z" transform="translate(2)" fill="#1a1a1a"/>
  <path id="Path-3" data-name="Path" d="M0,0H2V10H0Z" transform="translate(6)" fill="#1a1a1a"/>
  <path id="Path-4" data-name="Path" d="M4,0H6V32H2V22H0V16H2V12H4Z" transform="translate(6)" fill="#1a1a1a"/>
  <path id="Path-5" data-name="Path" d="M0,0H4V2H2V18H4v2H2v2H4V32H0Z" transform="translate(12)" fill="#ffffff"/>
  <path id="Path-6" data-name="Path" d="M2,0h8V2H8V4H6v6H8v2h2V22H8V32H2V22H0V20H2V18H4V2H2Z" transform="translate(14)" fill="#1a1a1a"/>
  <path id="Path-7" data-name="Path" d="M0,0H4V2H0Z" transform="translate(24)" fill="#ffffff"/>
  <path id="Path-8" data-name="Path" d="M0,0H4V4H2V2H0Z" transform="translate(28)" fill="#1a1a1a"/>
  <path id="Path-9" data-name="Path" d="M0,0H2V16H0Z" transform="translate(14 2)" fill="#1a1a1a"/>
  <path id="Path-10" data-name="Path" d="M0,0H2V16H0Z" transform="translate(16 2)" fill="#ffffff"/>
  <path id="Path-11" data-name="Path" d="M2,0H4V10H2V8H0V2H2Z" transform="translate(20 2)" fill="#ffffff"/>
  <path id="Path-12" data-name="Path" d="M0,0H4V2H6V8H4v2H0Z" transform="translate(24 2)" fill="#1a1a1a"/>
  <path id="Path-13" data-name="Path" d="M0,0H2V2H0Z" transform="translate(28 2)" fill="#ffffff"/>
  <path id="Path-14" data-name="Path" d="M0,0H2V6H0Z" transform="translate(30 4)" fill="#ffffff"/>
  <path id="Path-15" data-name="Path" d="M0,0H2V2H0Z" transform="translate(28 10)" fill="#ffffff"/>
  <path id="Path-16" data-name="Path" d="M4,0H6V22H2V12H0V4H2V2H4Z" transform="translate(26 10)" fill="#1a1a1a"/>
  <path id="Path-17" data-name="Path" d="M0,0H2V4H4V20H0Z" transform="translate(0 12)" fill="#1a1a1a"/>
  <path id="Path-18" data-name="Path" d="M2,0H6V2H4v8H6V20H0V10H2Z" transform="translate(22 12)" fill="#ffffff"/>
  <path id="Path-19" data-name="Path" d="M0,0H2V6H0Z" transform="translate(24 24)" fill="#1a1a1a"/>
</svg>