<?xml version="1.0" encoding="utf-8"?><!-- Uploaded to: SVG Repo, www.svgrepo.com, Generator: SVG Repo Mixer Tools -->
<svg width="800px" height="800px" viewBox="0 0 32 32" id="heavyblackheart_Dark" data-name="heavyblackheart/Dark" xmlns="http://www.w3.org/2000/svg">
  <path id="Path" d="M0,0H6V2H4V4H2V6H0Z" fill="#1a1a1a"/>
  <path id="Path-2" data-name="Path" d="M6,0h6V2h2V4h4V2h2V0h6V2h2V4h2V6h2v6H30v4H28v4H26v2H24v2H22v2H20v2H18v2H16V28H14V26H12V24H10V22H8V20H6V18H4V16H2V12H0V6H2V4H4V2H6Z" fill="#ffffff"/>
  <path id="Path-3" data-name="Path" d="M0,0H8V2H6V4H2V2H0Z" transform="translate(12)" fill="#1a1a1a"/>
  <path id="Path-4" data-name="Path" d="M0,0H6V6H4V4H2V2H0Z" transform="translate(26)" fill="#1a1a1a"/>
  <path id="Path-5" data-name="Path" d="M0,0H2V4H4V6H6V8H8v2h2v2h2v2h2v2h2v2h2V16h2V14h2V12h2V10h2V8h2V4h2V0h2V8H30v4H28v2H24v2h4V14h2V12h2v4H30v2H26v2H8V18H4V16H2V14H0Z" transform="translate(0 12)" fill="#1a1a1a"/>
  <path id="Path-6" data-name="Path" d="M0,0H2V4H0Z" transform="translate(2 20)" fill="#ffffff"/>
  <path id="Path-7" data-name="Path" d="M0,0H2V4H0Z" transform="translate(30 20)" fill="#ffffff"/>
  <path id="Path-8" data-name="Path" d="M0,0H2V2H0Z" transform="translate(4 24)" fill="#ffffff"/>
  <path id="Path-9" data-name="Path" d="M0,0H2V2H0Z" transform="translate(28 24)" fill="#ffffff"/>
  <path id="Path-10" data-name="Path" d="M0,0H2V2H0Z" transform="translate(0 26)" fill="#ffffff"/>
  <path id="Path-11" data-name="Path" d="M0,0H4V2H0Z" transform="translate(6 26)" fill="#ffffff"/>
  <path id="Path-12" data-name="Path" d="M0,0H4V2H0Z" transform="translate(24 26)" fill="#ffffff"/>
  <path id="Path-13" data-name="Path" d="M0,0H2V2H4V4H0Z" transform="translate(0 28)" fill="#1a1a1a"/>
  <path id="Path-14" data-name="Path" d="M0,0H2V2H0Z" transform="translate(2 28)" fill="#ffffff"/>
  <path id="Path-15" data-name="Path" d="M0,0H2V2H0Z" transform="translate(30 28)" fill="#ffffff"/>
  <path id="Path-16" data-name="Path" d="M0,0H4V2H0Z" transform="translate(4 30)" fill="#ffffff"/>
  <path id="Path-17" data-name="Path" d="M0,0H4V2H0Z" transform="translate(26 30)" fill="#ffffff"/>
  <path id="Path-18" data-name="Path" d="M0,0H2V2H0Z" transform="translate(30 30)" fill="#1a1a1a"/>
</svg>