<?xml version="1.0" encoding="utf-8"?><!-- Uploaded to: SVG Repo, www.svgrepo.com, Generator: SVG Repo Mixer Tools -->
<svg width="800px" height="800px" viewBox="0 0 32 32" id="musicalnote_Light" data-name="musicalnote/Light" xmlns="http://www.w3.org/2000/svg">
  <path id="Path" d="M0,0H12V10H10v2H6v4h6V14h2V2h8V4H18V6h4v6H20v2H16v4h6V16h2V0h8V24H30V22H26V20H6v2H2v2H0Z" fill="#ffffff"/>
  <path id="Path-2" data-name="Path" d="M6,0H18V16H16v2H10V14h4V12h2V6H12V4h4V2H8V14H6v2H0V12H4V10H6Z" transform="translate(6)" fill="#1a1a1a"/>
  <path id="Path-3" data-name="Path" d="M4,0H24V2h4V4H20V6h4V8h4v2H24v2H2V10H0V8H2V6H6V4H0V2H4Z" transform="translate(2 20)" fill="#1a1a1a"/>
  <path id="Path-4" data-name="Path" d="M0,0H2V4H0Z" transform="translate(0 24)" fill="#1a1a1a"/>
  <path id="Path-5" data-name="Path" d="M0,0H6V2H2V4H0Z" transform="translate(2 24)" fill="#ffffff"/>
  <path id="Path-6" data-name="Path" d="M0,0H8V4H4V2H0Z" transform="translate(22 24)" fill="#ffffff"/>
  <path id="Path-7" data-name="Path" d="M0,0H2V4H0Z" transform="translate(30 24)" fill="#1a1a1a"/>
  <path id="Path-8" data-name="Path" d="M2,0H8V2h2V4H0V2H2Z" transform="translate(10 26)" fill="#ffffff"/>
  <path id="Path-9" data-name="Path" d="M0,0H2V2H4V4H0Z" transform="translate(0 28)" fill="#ffffff"/>
  <path id="Path-10" data-name="Path" d="M4,0H6V4H0V2H4Z" transform="translate(26 28)" fill="#ffffff"/>
</svg>