<?xml version="1.0" encoding="utf-8"?><!-- Uploaded to: SVG Repo, www.svgrepo.com, Generator: SVG Repo Mixer Tools -->
<svg width="800px" height="800px" viewBox="0 0 32 32" id="rose_Dark" data-name="rose/Dark" xmlns="http://www.w3.org/2000/svg">
  <path id="Path" d="M0,0H12V2H6V4H4V6H2V8H0Z" fill="#1a1a1a"/>
  <path id="Path-2" data-name="Path" d="M0,0H6V2H0Z" transform="translate(12)" fill="#ffffff"/>
  <path id="Path-3" data-name="Path" d="M2,0H16V32H0V30H10V28h2V26h2V18H12V14h2V10H12V6H10V4H8V2H2Z" transform="translate(16)" fill="#1a1a1a"/>
  <path id="Path-4" data-name="Path" d="M0,0H6V2H0Z" transform="translate(6 2)" fill="#ffffff"/>
  <path id="Path-5" data-name="Path" d="M10,0h6V2h6V4h2V8h2v4H24v2H22V8H20V6H18V4H10V6H6V8H4v2H0V6H2V4H4V2h6Z" transform="translate(2 2)" fill="#1a1a1a"/>
  <path id="Path-6" data-name="Path" d="M0,0H6V2H0Z" transform="translate(18 2)" fill="#ffffff"/>
  <path id="Path-7" data-name="Path" d="M0,0H2V2H0Z" transform="translate(4 4)" fill="#ffffff"/>
  <path id="Path-8" data-name="Path" d="M0,0H2V2H0Z" transform="translate(24 4)" fill="#ffffff"/>
  <path id="Path-9" data-name="Path" d="M0,0H2V2H0Z" transform="translate(2 6)" fill="#ffffff"/>
  <path id="Path-10" data-name="Path" d="M0,0H8V2h2V4h2v6H10V8H8V4H6V2H0Z" transform="translate(12 6)" fill="#ffffff"/>
  <path id="Path-11" data-name="Path" d="M0,0H2V4H0Z" transform="translate(26 6)" fill="#ffffff"/>
  <path id="Path-12" data-name="Path" d="M0,0H2V4H0Z" transform="translate(0 8)" fill="#ffffff"/>
  <path id="Path-13" data-name="Path" d="M0,0H4V4H2V2H0Z" transform="translate(8 8)" fill="#ffffff"/>
  <path id="Path-14" data-name="Path" d="M0,0H6V2H8V6H6V4H0Z" transform="translate(12 8)" fill="#1a1a1a"/>
  <path id="Path-15" data-name="Path" d="M4,0H6V6H8v4h2v2h2v2H10v2H8V12H6V10H4V8H2V4H0V2H4Z" transform="translate(2 10)" fill="#ffffff"/>
  <path id="Path-16" data-name="Path" d="M0,0H2V2H4V6H6V8H8v2h8v2H12v2H6V12H4V10H2V6H0Z" transform="translate(8 10)" fill="#1a1a1a"/>
  <path id="Path-17" data-name="Path" d="M0,0H2V4H0Z" transform="translate(28 10)" fill="#ffffff"/>
  <path id="Path-18" data-name="Path" d="M0,0H2V2H0Z" transform="translate(0 12)" fill="#1a1a1a"/>
  <path id="Path-19" data-name="Path" d="M0,0H6V2H8V6h4V4h2V2h2V6H14v6H12v2H6v2h8v2H4V14H2V12H8V10h4V8H4V6H2V4H0Z" transform="translate(12 12)" fill="#ffffff"/>
  <path id="Path-20" data-name="Path" d="M0,0H2V6H4v4H8v2h2v2H8v2h8v2H6V16H4V14H2V12H0Z" transform="translate(0 14)" fill="#ffffff"/>
  <path id="Path-21" data-name="Path" d="M0,0H2V4H4V6H6V8H8v4H6V10H2V6H0Z" transform="translate(2 14)" fill="#1a1a1a"/>
  <path id="Path-22" data-name="Path" d="M0,0H2V2H4V4H0Z" transform="translate(20 14)" fill="#1a1a1a"/>
  <path id="Path-23" data-name="Path" d="M8,0h2V8H8v2H0V8H6V6H8Z" transform="translate(18 18)" fill="#1a1a1a"/>
  <path id="Path-24" data-name="Path" d="M0,0H2V8H0Z" transform="translate(28 18)" fill="#ffffff"/>
  <path id="Path-25" data-name="Path" d="M4,0H6V2H8V6H0V4H2V2H4Z" transform="translate(8 24)" fill="#1a1a1a"/>
  <path id="Path-26" data-name="Path" d="M0,0H2V2H4V4H6V6H0Z" transform="translate(0 26)" fill="#1a1a1a"/>
  <path id="Path-27" data-name="Path" d="M0,0H2V2H0Z" transform="translate(26 26)" fill="#ffffff"/>
</svg>