<?xml version="1.0" encoding="utf-8"?><!-- Uploaded to: SVG Repo, www.svgrepo.com, Generator: SVG Repo Mixer Tools -->
<svg width="800px" height="800px" viewBox="0 0 32 32" id="smilingfacewithopenmouth_Light" data-name="smilingfacewithopenmouth/Light" xmlns="http://www.w3.org/2000/svg">
  <path id="Path" d="M0,0H16V4H14V6H10V4H8V2H6V4H8v6H6v2H4v2H2v4H0Z" fill="#ffffff"/>
  <path id="Path-2" data-name="Path" d="M12,0h2V4h2V6h4V4h2v6h2v4H22V12H20v2H18V12H14V10H12v2H10V10H8v4H6V12H4v2H0V12H2V10H4V4H6V6h4V4h2Z" transform="translate(4)" fill="#1a1a1a"/>
  <path id="Path-3" data-name="Path" d="M0,0H14V18H12V14H10V10H8V4H6V6H2V4H0Z" transform="translate(18)" fill="#ffffff"/>
  <path id="Path-4" data-name="Path" d="M0,0H2V2H0Z" transform="translate(6 2)" fill="#1a1a1a"/>
  <path id="Path-5" data-name="Path" d="M0,0H2V2H0Z" transform="translate(26 2)" fill="#1a1a1a"/>
  <path id="Path-6" data-name="Path" d="M10,0h2V2h2V0h2V2h4V4h2V2h2V4h2V8h2v8H26v2H22v2H6V18H2V16H0V8H2V4H6V2H8V4h2Z" transform="translate(2 10)" fill="#ffffff"/>
  <path id="Path-7" data-name="Path" d="M0,0H2V4H0Z" transform="translate(2 14)" fill="#1a1a1a"/>
  <path id="Path-8" data-name="Path" d="M0,0H2V4H0Z" transform="translate(28 14)" fill="#1a1a1a"/>
  <path id="Path-9" data-name="Path" d="M0,0H4V4H0Z" transform="translate(8 16)" fill="#1a1a1a"/>
  <path id="Path-10" data-name="Path" d="M0,0H4V4H0Z" transform="translate(18 16)" fill="#1a1a1a"/>
  <path id="Path-11" data-name="Path" d="M0,0H2V8H0Z" transform="translate(0 18)" fill="#1a1a1a"/>
  <path id="Path-12" data-name="Path" d="M0,0H2V8H0Z" transform="translate(30 18)" fill="#1a1a1a"/>
  <path id="Path-13" data-name="Path" d="M0,0H2V2H0Z" transform="translate(4 20)" fill="#1a1a1a"/>
  <path id="Path-14" data-name="Path" d="M0,0H2V2H0Z" transform="translate(24 20)" fill="#1a1a1a"/>
  <path id="Path-15" data-name="Path" d="M0,0H2V2H0Z" transform="translate(8 22)" fill="#1a1a1a"/>
  <path id="Path-16" data-name="Path" d="M0,0H2V2H0Z" transform="translate(20 22)" fill="#1a1a1a"/>
  <path id="Path-17" data-name="Path" d="M0,0H10V2H0Z" transform="translate(10 24)" fill="#1a1a1a"/>
  <path id="Path-18" data-name="Path" d="M0,0H2V2H4V4H8V6H0Z" transform="translate(0 26)" fill="#ffffff"/>
  <path id="Path-19" data-name="Path" d="M0,0H2V2H0Z" transform="translate(2 26)" fill="#1a1a1a"/>
  <path id="Path-20" data-name="Path" d="M0,0H2V2H0Z" transform="translate(28 26)" fill="#1a1a1a"/>
  <path id="Path-21" data-name="Path" d="M6,0H8V6H0V4H4V2H6Z" transform="translate(24 26)" fill="#ffffff"/>
  <path id="Path-22" data-name="Path" d="M0,0H4V2H0Z" transform="translate(4 28)" fill="#1a1a1a"/>
  <path id="Path-23" data-name="Path" d="M0,0H4V2H0Z" transform="translate(24 28)" fill="#1a1a1a"/>
  <path id="Path-24" data-name="Path" d="M0,0H16V2H0Z" transform="translate(8 30)" fill="#1a1a1a"/>
</svg>