<svg xmlns="http://www.w3.org/2000/svg" width="48" height="48" viewBox="0 0 48 48"><rect width="48" height="48" fill="none"/><path d="M29.715,9.15H32V27.435h-2.28v2.28h-2.3v2.3H22.845v2.28h-2.28V45.72h-2.28V48H13.71V45.72H11.43V34.29h-2.3V32.01H4.56v-2.3H2.28v-2.28H0V9.15H2.28v-2.3H4.56V4.575H6.848V2.3H9.142V0h13.71V2.3h2.3v2.28H27.42v2.28h2.3ZM18.292,38.865H16V43.44h2.288ZM27.427,9.15h-2.28v-2.3h-2.31V4.575H9.127v2.28H6.847v2.3H4.56V27.435H6.847v2.28h4.59v2.3h9.135v-2.3h4.575v-2.28H27.42Z" transform="translate(8.003)"/><path d="M0,0H2.28V2.28H0Z" transform="translate(26.287 20.58)"/><path d="M0,0H2.28V2.28H0Z" transform="translate(26.287 16.005)"/><path d="M0,0H4.575V2.3H0Z" transform="translate(21.713 22.86)"/><path d="M0,0H2.28V2.28H0Z" transform="translate(19.432 20.58)"/><path d="M0,0H2.28V2.28H0Z" transform="translate(19.432 16.005)"/><path d="M0,0H2.28V2.3H0Z" transform="translate(19.432 6.855)"/><path d="M0,0H2.3V2.28H0Z" transform="translate(17.138 9.15)"/><path d="M0,0H2.28V2.3H0Z" transform="translate(14.858 11.43)"/></svg>