<svg xmlns="http://www.w3.org/2000/svg" width="48" height="48" viewBox="0 0 48 48"><rect width="48" height="48" fill="none"/><path d="M0,0H2.28V6.855H0Z" transform="translate(45.72 38.85)"/><path d="M0,0H2.3V2.28H0Z" transform="translate(43.425 36.57)"/><path d="M2.28,2.28H0V0H6.855V2.28H4.575v9.15H2.28Z" transform="translate(41.145 6.855)"/><path d="M0,0H43.44V2.3H0Z" transform="translate(2.28 45.705)"/><path d="M0,0H2.28V2.28H0Z" transform="translate(41.145 18.285)"/><path d="M0,0H2.3V2.28H0Z" transform="translate(38.85 41.145)"/><path d="M0,0H6.855V2.3H0Z" transform="translate(36.57 34.275)"/><path d="M0,0H2.3V2.3H0Z" transform="translate(38.85 20.565)"/><path d="M0,0H4.575V2.3H0Z" transform="translate(36.57 9.135)"/><path d="M0,0H4.56V2.3H0Z" transform="translate(34.29 15.99)"/><path d="M0,0H2.28V2.28H0Z" transform="translate(34.29 36.57)"/><path d="M0,0H4.575V2.28H0Z" transform="translate(31.995 11.43)"/><path d="M0,0H2.3V4.575H0Z" transform="translate(31.995 31.995)"/><path d="M0,0H6.855V2.28H0Z" transform="translate(31.995 22.86)"/><path d="M0,0H2.3V2.28H0Z" transform="translate(31.995 18.285)"/><path d="M0,0H2.28V2.3H0Z" transform="translate(29.715 20.565)"/><path d="M0,0H2.28V2.28H0Z" transform="translate(29.715 13.71)"/><path d="M0,0H4.575V4.575H0Z" transform="translate(27.42 38.85)"/><path d="M0,0H4.575V2.28H0Z" transform="translate(27.42 29.715)"/><path d="M0,0H2.3V4.575H0Z" transform="translate(27.42 15.99)"/><path d="M0,0H2.28V2.3H0Z" transform="translate(25.14 34.275)"/><path d="M6.855,16H0v-2.3H2.3V6.855H0V4.575H2.3V0h2.28V9.15H9.15v2.28H4.575v2.28h2.28Z" transform="translate(20.565 13.71)"/><path d="M0,0H2.3V4.575H0Z" transform="translate(20.565 9.135)"/><path d="M0,0H4.575V4.575H0Z" transform="translate(18.285 34.275)"/><path d="M0,0H4.56V2.28H0Z" transform="translate(16.005 29.715)"/><path d="M0,0H2.28V2.3H0Z" transform="translate(18.285 15.99)"/><path d="M0,0H2.28V2.28H0Z" transform="translate(18.285 6.855)"/><path d="M0,0H6.855V2.3H0Z" transform="translate(13.71 20.565)"/><path d="M0,0H2.28V2.28H0Z" transform="translate(16.005 13.71)"/><path d="M0,0H2.28V2.28H0Z" transform="translate(16.005 4.575)"/><path d="M0,0H2.3V2.28H0Z" transform="translate(13.71 41.145)"/><path d="M0,0H2.3V4.575H0Z" transform="translate(13.71 31.995)"/><path d="M0,0H2.3V2.28H0Z" transform="translate(13.71 11.43)"/><path d="M0,0H2.28V2.28H0Z" transform="translate(11.43 36.57)"/><path d="M0,0H2.28V2.28H0Z" transform="translate(11.43 18.285)"/><path d="M0,0H2.28V2.3H0Z" transform="translate(11.43 9.135)"/><path d="M0,0H4.575V2.3H0Z" transform="translate(11.43 2.28)"/><path d="M0,0H2.3V2.3H0Z" transform="translate(9.135 15.99)"/><path d="M0,0H2.3V2.28H0Z" transform="translate(9.135 6.855)"/><path d="M0,0H2.28V2.28H0Z" transform="translate(6.855 41.145)"/><path d="M0,0H6.855V2.3H0Z" transform="translate(4.575 34.275)"/><path d="M0,0H2.28V4.56H0Z" transform="translate(6.855 11.43)"/><path d="M0,0H2.28V4.575H0Z" transform="translate(4.575 6.855)"/><path d="M0,0H9.15V2.28H0Z" transform="translate(2.28)"/><path d="M0,0H2.3V2.28H0Z" transform="translate(2.28 36.57)"/><path d="M0,0H2.3V2.28H0Z" transform="translate(2.28 4.575)"/><path d="M0,0H2.28V6.855H0Z" transform="translate(0 38.85)"/><path d="M0,0H2.28V2.3H0Z" transform="translate(0 2.28)"/></svg>