<svg xmlns="http://www.w3.org/2000/svg" width="300" height="300" viewBox="0 0 300 300"><path d="M300,0H0V300H300Z" fill="#fff"/><path d="M782.459,22.862H691.906v90.554h90.553Z" transform="translate(-489.145 -16.302)" fill="#3a3a3a"/><path d="M209.325,97.113V71.4a7.2,7.2,0,0,1,14.39,0V97.113Z" fill="#fae094"/><path d="M268.62,87.429a23.386,23.386,0,0,1-31.41-21.962.566.566,0,0,1,.566-.566h45.617a.565.565,0,0,1,.566.566A23.218,23.218,0,0,1,277.114,82l-.3.286-.641-.955.135-.132a22.085,22.085,0,0,0,6.507-15.162H238.349a22.265,22.265,0,0,0,31.4,19.711Z" fill="#f4c4c6"/><path d="M211.92,57.04a1.026,1.026,0,1,1,1.026,1.026A1.026,1.026,0,0,1,211.92,57.04Zm6.609,0a1.026,1.026,0,1,1,1.026,1.026A1.026,1.026,0,0,1,218.529,57.04Zm-13.219,0a1.027,1.027,0,1,1,1.026,1.027,1.027,1.027,0,0,1-1.026-1.027Zm19.828,0a1.027,1.027,0,1,1,1.027,1.027A1.027,1.027,0,0,1,225.138,57.04Zm6.609,0a1.027,1.027,0,1,1,1.027,1.027A1.027,1.027,0,0,1,231.747,57.04Zm6.61,0a1.026,1.026,0,1,1,1.026,1.026A1.026,1.026,0,0,1,238.357,57.04Zm6.609,0a1.026,1.026,0,1,1,1.026,1.026A1.026,1.026,0,0,1,244.966,57.04Zm-33.047-6.465a1.026,1.026,0,1,1,1.026,1.026A1.026,1.026,0,0,1,211.919,50.575Zm6.609,0a1.026,1.026,0,1,1,1.026,1.026A1.026,1.026,0,0,1,218.528,50.575Zm-13.219,0a2.978,2.978,0,1,0,.005,0Zm19.828,0a1.027,1.027,0,1,1,1.026,1.027,1.027,1.027,0,0,1-1.026-1.027Zm6.609,0a1.027,1.027,0,1,1,1.026,1.027,1.027,1.027,0,0,1-1.026-1.027Zm6.61,0a1.026,1.026,0,1,1,1.026,1.026,1.026,1.026,0,0,1-1.026-1.026Zm6.609,0a1.027,1.027,0,1,1,1.026,1.027,1.027,1.027,0,0,1-1.026-1.027Zm-39.651-6.462a1.026,1.026,0,1,1,1.026,1.026A1.026,1.026,0,0,1,205.314,44.113Zm6.61,0a1.02,1.02,0,1,1,.3.727,1.026,1.026,0,0,1-.3-.727Zm6.609,0a1.026,1.026,0,1,1,.506.909,1.026,1.026,0,0,1-.506-.909Zm6.609,0a1.02,1.02,0,1,1,.3.727,1.027,1.027,0,0,1-.3-.727Zm6.609,0a1.022,1.022,0,1,1,.3.727,1.027,1.027,0,0,1-.3-.727Zm6.61,0a1.021,1.021,0,1,1,.3.727,1.026,1.026,0,0,1-.3-.727Zm6.609,0a1.022,1.022,0,1,1,.3.727,1.027,1.027,0,0,1-.3-.727Z" fill="#fff" fill-rule="evenodd"/><path d="M279.6,57.788l-.806-.795,6.788-6.882L278.4,42.832l7.179-7.279L278.4,28.274,285.584,21,278.8,14.11l.806-.8,7.57,7.677L280,28.271l7.177,7.279L280,42.829l7.177,7.279ZM223.041,6.56a7.176,7.176,0,1,1-13.033,0Z" fill="#fae094"/><path d="M254.029,45.886a.567.567,0,0,1-.557-.465c-1.026-5.7-1.787-6.876-5.429-8.418a.566.566,0,0,1,0-1.043c3.643-1.542,4.4-2.722,5.429-8.417a.565.565,0,0,1,1.113,0c1.027,5.7,1.788,6.876,5.43,8.417a.565.565,0,0,1,0,1.043c-3.642,1.542-4.4,2.722-5.43,8.418a.563.563,0,0,1-.556.465Z" fill="#a0daea"/><path d="M274.449,78.753l-8.355,12.436H282.8Z" fill="#fff" fill-rule="evenodd"/><path d="M195.215,104.659H104.661v90.554h90.554Z" fill="#f4c4c6"/><path d="M123.737,123.49a10.593,10.593,0,1,1,16.422,13.222Zm39.934,71.724a10.359,10.359,0,0,0-10.347-10.274V169.847a25.424,25.424,0,0,1,25.441,25.367Z" fill="#fae094"/><path d="M113.53,166.3V115.273l31.686,25.511Z" fill="#fff" fill-rule="evenodd"/><path d="M195.215,171.123V104.659H176.828a36.5,36.5,0,0,0,18.387,66.464Z" fill="#fae094"/><path d="M130.009,186H104.661v1.132h25.348Z" fill="#343161"/><path d="M195.215,6.56H104.661V97.114h90.554Z" fill="#fae094"/><path d="M186.2,87.76H156.172v9.353H186.2Z" fill="#a0daea"/><path d="M175.855,39.505a.566.566,0,0,1-.557-.466c-1.046-5.807-1.823-7.01-5.537-8.583a.566.566,0,0,1,0-1.043c3.715-1.572,4.491-2.776,5.537-8.583a.566.566,0,0,1,1.114,0c1.046,5.807,1.822,7.01,5.538,8.583a.567.567,0,0,1,0,1.043c-3.715,1.572-4.491,2.775-5.538,8.583A.566.566,0,0,1,175.855,39.505ZM140.564,6.56H119.616v41a25.853,25.853,0,0,0,20.948-41Z" fill="#fff" fill-rule="evenodd"/><path d="M119.615,6.56v41A25.733,25.733,0,0,1,104.661,42.8V41.4a24.6,24.6,0,0,0,13.822,5.009V6.56Z" fill="#a0daea"/><path d="M115.129,79.148l-.44-1.043,70.059-29.55.44,1.043Z" fill="#343161" fill-rule="evenodd"/><path d="M165.513,21.916a3.255,3.255,0,1,1,3.255-3.255A3.255,3.255,0,0,1,165.513,21.916ZM97.116,6.56H6.562V97.114H97.116Z" fill="#fae094"/><path d="M33.911,22.595l-8.626-5.8v5.8l-8.631-5.8V30.742l8.631-5.8v5.8l8.631-5.8v5.8L44.3,23.769,33.911,16.8v5.8Zm63.2-.363L89.025,16.8V30.742l8.092-5.436V22.232Z" fill="#f4c4c6"/><path d="M80.406,47.446a4.7,4.7,0,1,1-4.7,4.7,4.7,4.7,0,0,1,4.7-4.7Z" fill="#343161" fill-rule="evenodd"/><path d="M6.562,91.52A10.6,10.6,0,0,0,17.145,81.293v-.362h15.1v.362a10.589,10.589,0,1,0,21.175-.362H68.506a25.6,25.6,0,0,1-5.739,16.182H6.562Z" fill="#fff"/><path d="M80.972,88.286H79.84v8.827h1.132Z" fill="#fae094"/><path d="M80.972,6.56H79.84V43.079h1.132Z" fill="#fff"/><path d="M36.493,59.053a1.541,1.541,0,1,1,1.541,1.541A1.541,1.541,0,0,1,36.493,59.053Zm-9.922,0a1.541,1.541,0,1,1,1.541,1.541A1.541,1.541,0,0,1,26.571,59.053Zm-9.922,0a1.541,1.541,0,1,1,1.541,1.541A1.541,1.541,0,0,1,16.649,59.053Zm19.844-9.7a1.55,1.55,0,1,0,0-.005Zm-9.922,0a1.541,1.541,0,1,1,1.541,1.54,1.541,1.541,0,0,1-1.541-1.54Zm-9.922,0a1.548,1.548,0,1,0,0-.005Zm19.844-9.7a1.541,1.541,0,1,1,1.541,1.541,1.541,1.541,0,0,1-1.541-1.541Zm-9.922,0a1.547,1.547,0,1,0,0-.005Zm-9.922,0a1.541,1.541,0,1,1,1.541,1.541A1.541,1.541,0,0,1,16.649,39.648Z" fill="#fff" fill-rule="evenodd"/><path d="M97.116,104.659H6.562v90.554H97.116Z" fill="#a0daea"/><path d="M97.115,160.14H57.8a27.832,27.832,0,0,0,39.312,25.342Z" fill="#f4c4c6"/><path d="M62.369,173.795a.943.943,0,0,1-.382-1.806l.31-.14a.943.943,0,0,1,.787,1.714l-.333.15a.938.938,0,0,1-.382.082Zm6.275-3.933a.943.943,0,0,1-.609-1.663c.087-.074.173-.147.258-.222a.943.943,0,1,1,1.238,1.423l-.279.239a.938.938,0,0,1-.609.223Zm4.92-5.536a.944.944,0,0,1-.786-1.464l.187-.286a.943.943,0,1,1,1.587,1.019l-.2.308a.943.943,0,0,1-.788.423Z" fill="#f4c4c6"/><path d="M19.586,189.421a.566.566,0,0,1-.557-.465c-1.046-5.807-1.822-7.01-5.537-8.583a.566.566,0,0,1,0-1.042c3.715-1.573,4.491-2.776,5.537-8.583a.566.566,0,0,1,1.114,0c1.046,5.807,1.822,7.01,5.537,8.583a.566.566,0,0,1,0,1.042c-3.715,1.573-4.491,2.776-5.537,8.583a.566.566,0,0,1-.557.465Z" fill="#fff" fill-rule="evenodd"/><path d="M55.234,175.793a.944.944,0,0,1-.121-1.879l.339-.046a.943.943,0,1,1,.269,1.867l-.363.05a.88.88,0,0,1-.124.008Zm-7.055-.036a.927.927,0,0,1-.132-.009q-.182-.025-.363-.054a.943.943,0,1,1,.289-1.864c.112.018.224.035.337.05a.943.943,0,0,1-.13,1.877Zm14.662-3.982a.943.943,0,0,1,.24,1.788l-.333.15a.954.954,0,0,1-.285.076h-.1a.943.943,0,0,1-.383-1.806l.31-.14a.933.933,0,0,1,.365-.086l.181.012Zm-21.778,1.91a.942.942,0,0,1-.391-.085l-.333-.154a.943.943,0,1,1,.8-1.706l.31.144a.943.943,0,0,1-.392,1.8Zm28.091-5.907a.932.932,0,0,1,.467.292.942.942,0,0,1-.093,1.33q-.138.121-.279.239a.934.934,0,0,1-.447.209l-.161.014a.943.943,0,0,1-.609-1.663c.087-.074.173-.147.258-.222a.942.942,0,0,1,.684-.229Zm-34.329,1.908a.942.942,0,0,1-.616-.23q-.139-.12-.276-.242a.943.943,0,0,1,1.253-1.41l.256.225a.943.943,0,0,1-.617,1.657Zm39.092-7.532a.943.943,0,0,1,.633,1.44l-.2.308a.942.942,0,0,1-.673.416l-.114.007a.942.942,0,0,1-.786-1.464l.186-.286a.941.941,0,0,1,.773-.434ZM29.963,164.1a.942.942,0,0,1-.793-.432l-.2-.309a.943.943,0,1,1,1.6-1q.091.145.183.287a.943.943,0,0,1-.791,1.456Zm46.765-6.473a.943.943,0,0,1-.9-1.22l.1-.327a.943.943,0,1,1,1.811.529c-.034.117-.069.234-.1.351a.944.944,0,0,1-.9.667Zm-49.86-.257a.943.943,0,0,1-.9-.676q-.052-.176-.1-.353a.943.943,0,0,1,1.816-.509c.03.11.062.218.094.327a.944.944,0,0,1-.9,1.211Zm51-7.062h-.011a.943.943,0,0,1-.932-.955v-.337a.944.944,0,1,1,1.887,0v.365a.943.943,0,0,1-.943.931Zm-52.061-.269a.943.943,0,0,1-.943-.942v-.425a.944.944,0,0,1,1.887.026v.4a.943.943,0,0,1-.941.945Zm51.1-7.076a.943.943,0,0,1-.908-.69q-.046-.164-.095-.328a.944.944,0,0,1,1.81-.533c.035.117.068.235.1.353a.944.944,0,0,1-.909,1.2Zm-50.058-.313a.946.946,0,0,1-.906-1.209c.034-.118.07-.235.106-.352a.943.943,0,0,1,1.8.556l-.1.326a.944.944,0,0,1-.9.679Zm47.065-6.464a.942.942,0,0,1-.8-.442c-.061-.1-.121-.192-.183-.287a.944.944,0,0,1,1.585-1.023c.066.1.131.205.2.309a.943.943,0,0,1-.8,1.443Zm-43.981-.27a.943.943,0,0,1-.793-1.454l.2-.308a.943.943,0,0,1,1.572,1.043l-.187.286a.943.943,0,0,1-.792.433Zm39.2-5.382a.939.939,0,0,1-.627-.239c-.085-.075-.17-.151-.257-.225a.943.943,0,1,1,1.235-1.426q.139.12.276.242a.943.943,0,0,1-.628,1.648Zm-34.347-.218a.943.943,0,0,1-.619-1.655q.139-.121.278-.238a.943.943,0,1,1,1.217,1.441l-.259.222a.941.941,0,0,1-.618.23Zm28.172-3.873a.937.937,0,0,1-.4-.091l-.31-.144a.943.943,0,0,1,.783-1.716q.168.076.334.155a.943.943,0,0,1-.4,1.8ZM41.013,126.3a.943.943,0,0,1-.393-1.8l.333-.15a.943.943,0,1,1,.762,1.726l-.31.14a.942.942,0,0,1-.392.086Zm14.864-2.039a1,1,0,0,1-.147-.011q-.168-.027-.337-.051a.943.943,0,1,1,.265-1.867c.121.017.243.035.363.054a.944.944,0,0,1-.144,1.876Zm-7.76-.048a.943.943,0,0,1-.133-1.877l.363-.05a.943.943,0,1,1,.242,1.871c-.113.014-.226.029-.338.046a.92.92,0,0,1-.133.008Z" fill="#343161" fill-rule="evenodd"/><path d="M56.438,145.239a5.965,5.965,0,0,1-8.4,8.4l8.4-8.4Zm-9.2,7.6a5.965,5.965,0,0,1,8.4-8.4ZM26.774,195.214a2.983,2.983,0,1,1,5.965,0Z" fill="#fae094"/><path d="M46.011,104.659a13.587,13.587,0,0,1-26.8,0h1.15a12.454,12.454,0,0,0,24.5,0Z" fill="#fff"/><path d="M65.92,135.755,38.552,163.122l-.8-.8L65.12,134.954Zm31.2,67H6.562v90.554H97.116Z" fill="#fae094"/><path d="M66.916,247.383H55.6v-19.4H69.336V214.251h19.4V225.57H80.659v13.736H66.916Zm-42.935-14.3a9.855,9.855,0,0,0-9.843,9.843v24.264H33.825V242.922a9.854,9.854,0,0,0-9.844-9.843Z" fill="#fff"/><path d="M15.27,284.6H38.4a8.711,8.711,0,0,0,0-17.422H15.27ZM38.4,285.737H14.137V266.05H38.4a9.844,9.844,0,1,1,0,19.688Z" fill="#f4c4c6"/><path d="M79.626,293.313H59.956L69.791,281.1Z" fill="#a0daea"/><path d="M37.268,216.521l-5.641-5.538-5.641,5.538-5.641-5.538-5.3,5.2-.684-.7,5.983-5.873,5.641,5.537,5.641-5.537,5.641,5.537,5.64-5.537,5.983,5.873-.684.7-5.3-5.2Z" fill="#fff"/><path d="M195.215,202.758H104.661v90.554h90.554Z" fill="#fae094"/><path d="M158.969,289.113a4.1,4.1,0,1,1,4.1-4.1A4.1,4.1,0,0,1,158.969,289.113Zm0-7.075a2.972,2.972,0,1,0,2.971,2.972,2.972,2.972,0,0,0-2.971-2.972Zm0-6.989a4.1,4.1,0,1,1,4.1-4.1A4.1,4.1,0,0,1,158.969,275.049Zm0-7.075a2.972,2.972,0,1,0,2.971,2.972A2.972,2.972,0,0,0,158.969,267.974Zm-2.077-10.023a4.1,4.1,0,1,1-2.026,3.537,4.1,4.1,0,0,1,2.026-3.537Zm2.077.565a2.972,2.972,0,1,0,2.971,2.972,2.972,2.972,0,0,0-2.971-2.972Zm0-7.073a2.971,2.971,0,1,0,2.971,2.971,2.971,2.971,0,0,0-2.971-2.971Z" fill="#fff"/><path d="M118.148,216.388V232.87a20.411,20.411,0,1,0,40.821,0V216.388Z" fill="#f4c4c6"/><path d="M118.148,293.313V272.807a10.2,10.2,0,0,1,20.41,0v20.506h-1.132V272.807a9.074,9.074,0,1,0-18.147,0v20.506h-1.132Zm69.424-90.555v24.98H186.44v-24.98Zm-12.859,0v24.98h-1.132v-24.98Zm6.429,0v24.98H180.01v-24.98Z" fill="#343161"/><path d="M104.662,206.08a9,9,0,0,1,0,17.86v-4.6a4.474,4.474,0,0,0,0-8.657Z" fill="#fae094"/><path d="M183.885,246.313l-9.611-9.611,3.2-3.2,9.611,9.611Z" fill="#fff"/><path d="M177.476,246.313l-3.2-3.2,9.611-9.611,3.2,3.2Z" fill="#fff"/><path d="M293.314,202.758H202.761v90.554h90.553Z"/><path d="M241.3,224.641l19.09,15.369V209.272Z" fill="#a0daea"/><path d="M268.493,260.383a1.258,1.258,0,1,1-1.227,1.256,1.258,1.258,0,0,1,1.227-1.256Zm15.855,0a1.258,1.258,0,1,1-1.259,1.256,1.258,1.258,0,0,1,1.259-1.256Zm-7.928,0a1.258,1.258,0,1,1-1.258,1.258,1.258,1.258,0,0,1,1.258-1.258Zm-7.927-8.107a1.258,1.258,0,1,1-.891.368,1.258,1.258,0,0,1,.891-.368Zm15.855,0a1.259,1.259,0,1,1-1.259,1.259,1.259,1.259,0,0,1,1.259-1.259Zm-7.928,0a1.259,1.259,0,1,1-1.259,1.259,1.259,1.259,0,0,1,1.259-1.259Zm-7.927-8.106a1.258,1.258,0,1,1-.891.368A1.259,1.259,0,0,1,268.493,244.17Zm15.855,0a1.259,1.259,0,1,1-1.259,1.259,1.259,1.259,0,0,1,1.259-1.259Zm-7.928,0a1.258,1.258,0,1,1-.891.368,1.259,1.259,0,0,1,.891-.368Zm7.928-8.1a1.259,1.259,0,1,1-1.259,1.259,1.259,1.259,0,0,1,1.259-1.259Zm-15.855,0a1.258,1.258,0,1,1-.891.368,1.258,1.258,0,0,1,.891-.368Zm7.927,0a1.259,1.259,0,1,1-1.259,1.259,1.259,1.259,0,0,1,1.259-1.259Z" fill="#f4c4c6"/><path d="M248.038,263.266a30.046,30.046,0,0,0-30.047,30.048h60.1a30.047,30.047,0,0,0-30.048-30.047Z" fill="#fae094"/><path d="M210.873,285.2H255.75l-44.877-44.876Zm47.609,1.131H209.741v-48.74Z" fill="#fff"/><path d="M235.621,209.735H210.307v1.132h25.314Z" fill="#fae094"/><path d="M293.314,104.659H202.761v90.554h90.553Z" fill="#a0daea"/><path d="M293.314,104.659H202.761v90.554h90.553Z" fill="#a0daea"/><path d="M202.761,158.442a29.23,29.23,0,0,0,18.034-8.461l.044-.045a29.318,29.318,0,0,1-4.833,45.277H202.761V182.391a12.08,12.08,0,0,0,0-23.555v-.394Z" fill="#fae094"/><path d="M220.854,149.918a29.168,29.168,0,0,1-18.1,8.523v-17.4a12.081,12.081,0,0,0,0-23.557V104.66H216a29.295,29.295,0,0,1,4.855,45.258Z" fill="#fff" fill-rule="evenodd"/><path d="M239.707,153.71v-7.547h4.555v-4.554h7.545v4.554h4.554v7.547h-4.554v4.554h-7.546V153.71Z" fill="#fff"/><path d="M293.309,150.205V179.24L278.8,164.723Z" fill="#f4c4c6"/><path d="M230.621,195.212v-1.887c.982,0,1.278-.241,2.263-1.041a10.392,10.392,0,0,1,14.044,0c.984.8,1.282,1.041,2.263,1.041s1.279-.241,2.263-1.041a10.391,10.391,0,0,1,14.043,0c.986.8,1.283,1.041,2.263,1.041s1.28-.241,2.263-1.041a10.394,10.394,0,0,1,14.046,0c.983.8,1.28,1.041,2.263,1.041v1.887Z" fill="#fae094"/><path d="M875.1,426.333a11.893,11.893,0,1,1,11.9-11.9A11.893,11.893,0,0,1,875.1,426.333Z" transform="translate(-610.214 -284.643)" fill="#47475c" fill-rule="evenodd"/></svg>