<svg xmlns="http://www.w3.org/2000/svg" width="300" height="300">
  <defs>
    <clipPath id="a">
      <path d="M0 0h300v300H0Z" class="a"/>
    </clipPath>
    <style>
      .a{fill:#fff}.c{fill:#e74457}.d{fill:#fcb7c6}.e{fill:#46384d}.f{fill:#ffde44}.g{fill:#ffe135}.h{fill:#653249}
    </style>
  </defs>
  <g style="clip-path:url(#a)">
    <path d="M0 0h300v300H0Z" class="a"/>
    <path d="M299.121.044h-300v300h300Z" class="a"/>
    <path d="M149.519-.092H74.607v37.278h74.912Z" class="c"/>
    <path d="M149.432 149.982H-.876v75.261h150.308Z" class="d"/>
    <path d="M299.674 74.742h-75.16v75.072h75.16Z" class="e"/>
    <path d="M149.43 74.761H74.423v75.217h75.007Z" class="f"/>
    <path d="M224.678 74.761h-37.163v37.458h37.163ZM261.94 37.235h-37.426v37.426h37.426Z" class="c"/>
    <path d="M149.367 225.185v.06H-.688l75.057-75.058Z" class="a"/>
    <path d="M224.446-.184h75.22a37.609 37.609 0 0 1-37.609 37.611A37.607 37.607 0 0 1 224.446-.184Z" class="g"/>
    <path d="M299.889 149.768h-75.1v75.454h75.1ZM37.84 225.244l36.5-36.5 36.5 36.5-36.5 36.5ZM149.651 37.318l-37.611 37.61-37.611-37.61.1-.1h74.988v-.03ZM74.607 112.372a37.614 37.614 0 0 1-37.611 37.61V74.761a37.611 37.611 0 0 1 37.611 37.611Z" class="h"/>
    <path d="M241.55-.184h41.01a20.506 20.506 0 0 1-20.5 20.506A20.5 20.5 0 0 1 241.55-.184Z" class="e"/>
    <path d="M224.446 187.487v-37.611h37.819a37.821 37.821 0 0 1-37.819 37.611Z" class="g"/>
    <path d="M224.455 168.574v-18.7h18.9a18.894 18.894 0 0 1-18.9 18.7Z" class="h"/>
    <path d="M186.504 224.683h.673l-.336.336ZM224.789 187.593h-75.23l37.617-37.611 37.613 37.611Z" class="d"/>
    <path d="m111.949 149.982 37.613-37.612 37.612 37.612-37.612 37.612Z" class="c"/>
    <path d="m149.561 187.593-.13-37.611h37.744l-37.614 37.611ZM149.567 112.372l-.137 37.61h-37.48Z" class="h"/>
    <path d="M224.336-.092h-36.871v37.426h36.871Z" class="c"/>
    <path d="m149.561 112.288-37.611 37.611-37.611-37.611.1-.1h74.988v-.031Z" class="d"/>
    <path d="M149.429 112.155v.031H74.441l37.508-37.505Z" class="a"/>
    <path d="M187.178 262.834a37.615 37.615 0 0 0 37.611-37.611h-75.222a37.611 37.611 0 0 0 37.611 37.611Z" class="g"/>
    <path d="M224.788 187.595h-75.222v37.628h75.222Z" class="c"/>
    <path d="M187.093 246.137a21.015 21.015 0 1 1 21.015-21.014 21.015 21.015 0 0 1-21.015 21.014Z" class="e"/>
    <path d="M299.892 225.223a37.551 37.551 0 0 1-37.551-37.55v-37.8h37.551Z" class="d"/>
    <path d="M147.318 768.833H-2.99v36.594h150.308Z" style="fill:#3e3143" transform="translate(2.114 -543.589)"/>
    <path d="M299.956 262.311h-75.228l37.617 37.61Z" class="d"/>
    <path d="M299.913 225.172h-75.144v37.139h75.144Z" class="e"/>
    <path d="M255.281 244.028a11.881 11.881 0 1 1-11.88-11.881 11.881 11.881 0 0 1 11.88 11.881Zm37.57 0a11.881 11.881 0 1 1-11.885-11.877 11.881 11.881 0 0 1 11.885 11.877Z" class="a"/>
    <path d="M187.513-.294h-38.084v112.48h38.084Z" class="e"/>
    <path d="M180.308 18.621A11.881 11.881 0 1 1 168.427 6.74a11.881 11.881 0 0 1 11.881 11.881ZM180.308 55.948a11.881 11.881 0 1 1-11.881-11.881 11.881 11.881 0 0 1 11.881 11.881ZM180.308 93.271a11.881 11.881 0 1 1-11.881-11.881 11.881 11.881 0 0 1 11.881 11.881Z" class="g"/>
    <path d="M111.604 261.839H-.876v38.082h112.48v-38.082Z" class="c"/>
    <path d="M18.035 269.198a11.88 11.88 0 1 1-11.881 11.88 11.88 11.88 0 0 1 11.881-11.88ZM55.364 269.198a11.88 11.88 0 1 1-11.88 11.88 11.88 11.88 0 0 1 11.88-11.88ZM92.69 269.198a11.88 11.88 0 1 1-11.881 11.88 11.881 11.881 0 0 1 11.881-11.88Z" class="d"/>
    <path d="M35.204 261.869-.877 225.244l.036 36.527Z" class="h"/>
    <path d="M149.418 261.742h-37.814v38.179h37.814Z" class="e"/>
    <path d="m111.765 261.742 37.666 38.179-.038-38.076Z" class="g"/>
    <path d="m224.446 112.167 37.613-37.612 37.613 37.612-37.613 37.613Z" class="d"/>
    <path d="M224.745 74.746s.883 17.988-9.371 28.138-27.787 9.254-27.787 9.254-.906-17.355 9.348-27.505 27.81-9.887 27.81-9.887Z" class="g"/>
    <path d="M187.588 37.335s-.883 17.988 9.371 28.138 27.786 9.254 27.786 9.254.906-17.354-9.347-27.505-27.81-9.887-27.81-9.887Z" class="e"/>
    <path d="M224.783 74.746s-.883 17.988 9.371 28.138 27.786 9.253 27.786 9.253.907-17.354-9.348-27.5-27.809-9.891-27.809-9.891Z" class="h"/>
    <path d="M261.943 37.334s.883 17.988-9.371 28.138-27.786 9.253-27.786 9.253-.907-17.354 9.347-27.5 27.809-9.887 27.809-9.887Z" class="e"/>
    <path d="m149.332 112.218 75.344 75.345v-75.345Z" class="a"/>
    <path d="M74.425-.293H-.876v75.054h75.3Z" class="f"/>
    <path d="M74.423 37.425v37.323h-37.53a37.532 37.532 0 0 1 37.53-37.323Z" class="d"/>
    <path d="M74.414 56.203v18.555H55.659a18.75 18.75 0 0 1 18.755-18.555Z" class="c"/>
    <path d="M67.539 18.621A11.881 11.881 0 1 1 55.653 6.74a11.881 11.881 0 0 1 11.886 11.881Z" class="e"/>
    <path d="M149.52 37.186v.03H74.53L112.041-.293Z" class="d"/>
    <path d="m95.531 37.318 16.512-16.512 16.508 16.512-16.512 16.512Z" class="g"/>
    <path d="M179.936 281.216a11.88 11.88 0 1 1-11.88-11.881 11.882 11.882 0 0 1 11.88 11.881ZM217.506 281.216a11.881 11.881 0 1 1-11.881-11.881 11.882 11.882 0 0 1 11.881 11.881Z" class="c"/>
    <path d="m224.728 262.311.061 37.61h37.556Z" class="h"/>
    <path d="M299.669 58.149v33.023l-16.51-16.514Z" class="c"/>
    <path d="M262.09 74.742v-37.4h37.4Z" class="d"/>
    <path d="M36.999 74.761H-.876v75.217h37.875Z" class="e"/>
    <path d="M57.911 112.288a21.015 21.015 0 1 0-21.015 21.015 21.015 21.015 0 0 0 21.015-21.015Z" class="d"/>
    <path d="M-.876-.293a37.875 37.875 0 0 1 37.875 37.875v37.179H-.876ZM203.687 187.594h-33.024l16.513-16.51ZM241.837 262.311h41.012a20.506 20.506 0 0 1-41.012 0ZM217.975 131.177a11.881 11.881 0 1 1-11.881-11.88 11.881 11.881 0 0 1 11.881 11.88ZM299.669 112.168l-37.632-.2.021 37.816ZM95.437 112.288l16.512-16.512 16.512 16.512-16.512 16.512Z" class="h"/>
    <path d="m187.465-.092 36.871 37.426-.037-37.326Z" class="e"/>
  </g>
</svg>