<svg xmlns="http://www.w3.org" xmlns:xlink="http://www.w3.org/1999/xlink" width="36px" height="36px" preserveAspectRatio="xMidYMid meet" viewBox="0 0 960 959" aria-hidden="true" role="img"><path d="M832 959H128q-53 0-90.5-37.5T0 831V127q0-52 37.5-89.5T128 0h704q53 0 90.5 37t37.5 90v704q0 53-37.5 90.5T832 959zM224 127q-40 0-68 28.5t-28 68t28 67.5t68 28t68-28t28-67.5t-28-68t-68-28.5zm0 512q-40 0-68 28t-28 68t28 68t68 28t68-28t28-68t-28-68t-68-28zm256-256q-40 0-68 28.5t-28 68t28 67.5t68 28t68-28t28-67.5t-28-68t-68-28.5zm256-256q-40 0-68 28.5t-28 68t28 67.5t68 28t68-28t28-67.5t-28-68t-68-28.5zm0 512q-40 0-68 28t-28 68t28 68t68 28t68-28t28-68t-28-68t-68-28z" fill="currentColor"></path></svg>