<svg width="24" height="24" viewBox="0 0 24 24" fill="none" xmlns="http://www.w3.org/2000/svg">
<path fill-rule="evenodd" clip-rule="evenodd" d="M15 8H15.009H15Z" fill="#D9D9D9"/>
<path fill-rule="evenodd" clip-rule="evenodd" d="M18 10H18.009H18Z" fill="#D9D9D9"/>
<path fill-rule="evenodd" clip-rule="evenodd" d="M18 6H18.009H18Z" fill="#D9D9D9"/>
<path fill-rule="evenodd" clip-rule="evenodd" d="M21 8H21.009H21Z" fill="#D9D9D9"/>
<path fill-rule="evenodd" clip-rule="evenodd" d="M21 12H21.009H21Z" fill="#D9D9D9"/>
<path fill-rule="evenodd" clip-rule="evenodd" d="M21 4H21.009H21Z" fill="#D9D9D9"/>
<path d="M6.4 13.4667C6.14036 13.8129 6 14.2339 6 14.6667V19C6 20.1046 6.89543 21 8 21H13C14.1046 21 15 20.1046 15 19V14.6667C15 14.2339 14.8596 13.8129 14.6 13.4667L12 10H9L6.4 13.4667Z" fill="#D9D9D9"/>
<path d="M10.5 7C9.67157 7 9 7.67157 9 8.5V10H12V8.5C12 7.67157 11.3284 7 10.5 7Z" fill="#D9D9D9"/>
<path d="M9 10L6.4 13.4667C6.14036 13.8129 6 14.2339 6 14.6667V19C6 20.1046 6.89543 21 8 21H13C14.1046 21 15 20.1046 15 19V14.6667C15 14.2339 14.8596 13.8129 14.6 13.4667L12 10M9 10V8.5C9 7.67157 9.67157 7 10.5 7C11.3284 7 12 7.67157 12 8.5V10M9 10H12M15 8H15.009M18 10H18.009M18 6H18.009M21 8H21.009M21 12H21.009M21 4H21.009" stroke="black" stroke-width="2" stroke-linecap="round" stroke-linejoin="round"/>
</svg>
