<svg width="24" height="24" viewBox="0 0 24 24" fill="none" xmlns="http://www.w3.org/2000/svg">
<path d="M4 18C4 16.8954 4.89543 16 6 16H12H18C19.1046 16 20 16.8954 20 18C20 19.1046 19.1046 20 18 20H6C4.89543 20 4 19.1046 4 18Z" fill="#D9D9D9"/>
<path d="M12 3V16M12 3L9 5M12 3L15 5M12 16H6C4.89543 16 4 16.8954 4 18C4 19.1046 4.89543 20 6 20H18C19.1046 20 20 19.1046 20 18C20 16.8954 19.1046 16 18 16H12ZM20 11C20 9.89543 19.1046 9 18 9H6C4.89543 9 4 9.89543 4 11C4 12.1046 4.89543 13 6 13H18C19.1046 13 20 12.1046 20 11Z" stroke="black" stroke-width="2" stroke-linecap="round" stroke-linejoin="round"/>
</svg>
