<svg width="54" height="28" viewBox="0 0 54 28" fill="none" xmlns="http://www.w3.org/2000/svg">
<rect x="0.5" y="0.5" width="53" height="27" rx="4.5" stroke="#7B61FF" stroke-dasharray="10 5"/>
<path d="M10.5 18L11 20L11.089 20.534C11.2819 21.6913 11.3783 22.2699 11.7752 22.622C11.7923 22.6372 11.8098 22.652 11.8276 22.6664C12.2401 23 12.8268 23 14 23C15.1732 23 15.7599 23 16.1724 22.6664C16.1902 22.652 16.2077 22.6372 16.2248 22.622C16.6217 22.2699 16.7181 21.6913 16.911 20.534L17 20L17.5 18" stroke="white" stroke-width="2" stroke-linecap="round" stroke-linejoin="round"/>
<path d="M10.5 10L11 8L11.089 7.46598C11.2819 6.30871 11.3783 5.73007 11.7752 5.37796C11.7923 5.36277 11.8098 5.34797 11.8276 5.33358C12.2401 5 12.8268 5 14 5C15.1732 5 15.7599 5 16.1724 5.33358C16.1902 5.34797 16.2077 5.36277 16.2248 5.37796C16.6217 5.73007 16.7181 6.30871 16.911 7.46598L17 8L17.5 10" stroke="white" stroke-width="2" stroke-linecap="round" stroke-linejoin="round"/>
<circle cx="14" cy="14" r="5" stroke="white" stroke-width="2"/>
<path d="M14 12V14H15.5" stroke="white" stroke-width="2" stroke-linecap="round" stroke-linejoin="round"/>
<path d="M40.5 16.5L40.9286 18.1L41.0683 18.8827C41.2036 19.6402 41.2712 20.0189 41.5325 20.2496C41.5456 20.2612 41.5591 20.2725 41.5729 20.2834C41.8459 20.5 42.2306 20.5 43 20.5C43.7694 20.5 44.1541 20.5 44.4271 20.2834C44.4409 20.2725 44.4544 20.2612 44.4675 20.2496C44.7288 20.0189 44.7964 19.6402 44.9317 18.8827L45.0714 18.1L45.5 16.5" stroke="white" stroke-linecap="round" stroke-linejoin="round"/>
<path d="M40.5 11.5L40.9286 9.9L41.0683 9.11727C41.2036 8.35984 41.2712 7.98112 41.5325 7.75043C41.5456 7.73881 41.5591 7.72753 41.5729 7.71662C41.8459 7.5 42.2306 7.5 43 7.5C43.7694 7.5 44.1541 7.5 44.4271 7.71662C44.4409 7.72753 44.4544 7.73881 44.4675 7.75043C44.7288 7.98112 44.7964 8.35984 44.9317 9.11727L45.0714 9.9L45.5 11.5" stroke="white" stroke-linecap="round" stroke-linejoin="round"/>
<path d="M46.5 14C46.5 15.933 44.933 17.5 43 17.5C41.067 17.5 39.5 15.933 39.5 14C39.5 12.067 41.067 10.5 43 10.5C44.933 10.5 46.5 12.067 46.5 14Z" stroke="white"/>
<path d="M43 12.5V14H44" stroke="white" stroke-linecap="round" stroke-linejoin="round"/>
</svg>
