<svg width="18" height="18" viewBox="0 0 18 18" fill="none" xmlns="http://www.w3.org/2000/svg">
<path d="M6.5 11.5L6.92857 13.1L7.06834 13.8827C7.2036 14.6402 7.27123 15.0189 7.53247 15.2496C7.54563 15.2612 7.5591 15.2725 7.57285 15.2834C7.84587 15.5 8.23058 15.5 9 15.5C9.76942 15.5 10.1541 15.5 10.4271 15.2834C10.4409 15.2725 10.4544 15.2612 10.4675 15.2496C10.7288 15.0189 10.7964 14.6402 10.9317 13.8827L11.0714 13.1L11.5 11.5" stroke="white" stroke-linecap="round" stroke-linejoin="round"/>
<path d="M6.5 6.5L6.92857 4.9L7.06834 4.11727C7.2036 3.35984 7.27123 2.98112 7.53247 2.75043C7.54563 2.73881 7.5591 2.72753 7.57285 2.71662C7.84587 2.5 8.23058 2.5 9 2.5C9.76942 2.5 10.1541 2.5 10.4271 2.71662C10.4409 2.72753 10.4544 2.73881 10.4675 2.75043C10.7288 2.98112 10.7964 3.35984 10.9317 4.11727L11.0714 4.9L11.5 6.5" stroke="white" stroke-linecap="round" stroke-linejoin="round"/>
<path d="M12.5 9C12.5 10.933 10.933 12.5 9 12.5C7.067 12.5 5.5 10.933 5.5 9C5.5 7.067 7.067 5.5 9 5.5C10.933 5.5 12.5 7.067 12.5 9Z" stroke="white"/>
<path d="M9 7.5V9H10" stroke="white" stroke-linecap="round" stroke-linejoin="round"/>
</svg>
