<svg width="54" height="28" viewBox="0 0 54 28" fill="none" xmlns="http://www.w3.org/2000/svg">
<rect x="0.5" y="0.5" width="53" height="27" rx="4.5" stroke="#7B61FF" stroke-dasharray="10 5"/>
<path fill-rule="evenodd" clip-rule="evenodd" d="M15.4519 23.196L20.5402 20.3777L20.5402 20.3777C21.2019 20.0112 21.5328 19.8279 21.7348 19.5262C21.9368 19.2244 21.9802 18.8486 22.0669 18.0972L23.0366 9.69095V9.69093C23.1678 8.55367 23.2333 7.98504 22.9563 7.54039C22.6793 7.09574 22.14 6.90399 21.0613 6.5205L15.0065 4.36782C14.5083 4.19068 14.2591 4.10211 14 4.10223C13.741 4.10236 13.4919 4.19116 12.9939 4.36878L6.93575 6.52914C5.85843 6.91331 5.31978 7.1054 5.04318 7.54984C4.76657 7.99428 4.83211 8.56239 4.96317 9.69863L5.93292 18.1053C6.0197 18.8577 6.0631 19.2339 6.26548 19.5359C6.46786 19.8379 6.79929 20.021 7.46215 20.3873L7.46216 20.3873L12.5473 23.1974L12.5474 23.1974C13.2575 23.5898 13.6126 23.786 13.9999 23.7859C14.3872 23.7857 14.7421 23.5891 15.4519 23.196ZM8.17997 19.2601L14 6.20999L19.8 19.2601H17.63L16.46 16.3401H11.52L10.35 19.2601H8.17997ZM12.3 14.54H15.7L14 10.45L12.3 14.54Z" fill="white"/>
<path fill-rule="evenodd" clip-rule="evenodd" d="M44.6775 20.0975L47.3863 18.5972C48.0481 18.2307 48.3789 18.0474 48.581 17.7456C48.783 17.4439 48.8263 17.0681 48.913 16.3166V16.3166L49.4544 11.6229C49.5856 10.4856 49.6512 9.91698 49.3742 9.47234C49.0972 9.02769 48.5578 8.83594 47.4792 8.45244L44.2321 7.298C43.7339 7.12086 43.4847 7.03229 43.2256 7.03241C42.9666 7.03253 42.7175 7.12134 42.2195 7.29896L38.9691 8.45806C37.8918 8.84224 37.3531 9.03433 37.0765 9.47877C36.7999 9.92321 36.8654 10.4913 36.9965 11.6275L37.538 16.3218C37.6248 17.0741 37.6682 17.4503 37.8706 17.7523C38.0729 18.0543 38.4044 18.2375 39.0672 18.6038L41.7729 20.0989C42.4831 20.4914 42.8382 20.6876 43.2255 20.6874C43.6128 20.6872 43.9677 20.4907 44.6775 20.0975ZM39.1608 17.5912L43.2256 8.4767L47.2765 17.5912H45.7609L44.9437 15.5517H41.4935L40.6764 17.5912H39.1608ZM43.2256 11.438L42.0383 14.2946H44.4129L43.2256 11.438Z" fill="white"/>
</svg>
