<svg width="18" height="18" viewBox="0 0 18 18" fill="none" xmlns="http://www.w3.org/2000/svg">
<path d="M6.03174 5.88192L6.86617 4.26003C6.88902 4.21561 6.90045 4.1934 6.91063 4.17094C6.96264 4.0563 6.99252 3.93287 6.99873 3.80714C6.99994 3.78251 6.99994 3.75753 6.99994 3.70758C6.99994 3.51473 6.99994 3.4183 7.01321 3.33769C7.08281 2.91453 7.41448 2.58287 7.83763 2.51326C7.91825 2.5 8.01467 2.5 8.20752 2.5H9.80693C9.98623 2.5 10.0759 2.5 10.151 2.51147C10.5832 2.5775 10.9224 2.91673 10.9885 3.34899C10.9999 3.42406 10.9999 3.51371 10.9999 3.69301C10.9999 3.74233 10.9999 3.76699 11.0011 3.79127C11.0077 3.92708 11.042 4.06011 11.1017 4.18223C11.1124 4.20407 11.1243 4.22566 11.1481 4.26886L11.9955 5.80643M6.03174 12.1181L6.86617 13.74C6.88902 13.7844 6.90045 13.8066 6.91063 13.8291C6.96264 13.9437 6.99252 14.0671 6.99873 14.1929C6.99994 14.2175 6.99994 14.2425 6.99994 14.2924C6.99994 14.4853 6.99994 14.5817 7.01321 14.6623C7.08281 15.0855 7.41448 15.4171 7.83763 15.4867C7.91825 15.5 8.01467 15.5 8.20752 15.5H9.80693C9.98623 15.5 10.0759 15.5 10.151 15.4885C10.5832 15.4225 10.9224 15.0833 10.9885 14.651C10.9999 14.5759 10.9999 14.4863 10.9999 14.307C10.9999 14.2577 10.9999 14.233 11.0011 14.2087C11.0077 14.0729 11.042 13.9399 11.1017 13.8178C11.1124 13.7959 11.1243 13.7743 11.1481 13.7311L11.9955 12.1936" stroke="white" stroke-linecap="round" stroke-linejoin="round"/>
<path d="M9 5.5C9.95692 5.5 10.6244 5.50066 11.1279 5.56836C11.6171 5.63413 11.876 5.75494 12.0605 5.93945C12.2451 6.12396 12.3659 6.38289 12.4316 6.87207C12.4993 7.37563 12.5 8.04308 12.5 9C12.5 9.95692 12.4993 10.6244 12.4316 11.1279C12.3659 11.6171 12.2451 11.876 12.0605 12.0605C11.876 12.2451 11.6171 12.3659 11.1279 12.4316C10.6244 12.4993 9.95692 12.5 9 12.5C8.04308 12.5 7.37563 12.4993 6.87207 12.4316C6.38289 12.3659 6.12396 12.2451 5.93945 12.0605C5.75494 11.876 5.63413 11.6171 5.56836 11.1279C5.50066 10.6244 5.5 9.95692 5.5 9C5.5 8.04308 5.50066 7.37563 5.56836 6.87207C5.63413 6.38289 5.75494 6.12396 5.93945 5.93945C6.12396 5.75494 6.38289 5.63413 6.87207 5.56836C7.37563 5.50066 8.04308 5.5 9 5.5Z" stroke="white"/>
</svg>
