<svg width="54" height="28" viewBox="0 0 54 28" fill="none" xmlns="http://www.w3.org/2000/svg">
<rect x="0.5" y="0.5" width="53" height="27" rx="4.5" stroke="#7B61FF" stroke-dasharray="10 5"/>
<g clip-path="url(#clip0_1_2592)">
<g clip-path="url(#clip1_1_2592)">
<path d="M21.8778 15.2857C21.8778 19.5462 18.9183 23 14.5 23C10.0817 23 6.5 19.9415 6.5 15.2857C6.5 10.6299 10.0817 7.57136 14.5 7.57136L21.5 7.57137M21.5 7.57137L18.8334 5M21.5 7.57137L18.8334 10.1429" stroke="white" stroke-width="2" stroke-linecap="round" stroke-linejoin="round"/>
</g>
<path d="M17 12.5001C16 12.5001 15.5 13.1894 15.5 15.5001C15.5 17.8108 16 18.5001 17 18.5001C18 18.5001 18.5 17.6894 18.5 15.5001C18.5 13.3108 18 12.5001 17 12.5001Z" stroke="white" stroke-linecap="round" stroke-linejoin="round"/>
<path d="M13.5 18.4997L10.5 18.4999L12.75 15.4008C15 12.3018 10.5 11.5271 10.5 13.8514" stroke="white" stroke-linecap="round" stroke-linejoin="round"/>
</g>
<g clip-path="url(#clip2_1_2592)">
<g clip-path="url(#clip3_1_2592)">
<path d="M48.5 14.9999C48.5 17.9744 46.0376 20.5 43 20.5C39.9624 20.5 37.5 17.9744 37.5 15C37.5 12.0255 39.9624 9.49998 43 9.49998L48 9.49999M48 9.49999L45.9278 7.49994M48 9.49999L45.9278 11.4999" stroke="white" stroke-linecap="round" stroke-linejoin="round"/>
</g>
<path d="M42.5 16.9999L40.5 17.0001L42 14.9999C43.5 12.9999 40.5 12.4999 40.5 14M43.875 15C43.875 13.4596 44.1875 13.0001 44.8125 13.0001C45.4375 13.0001 45.75 13.5405 45.75 15C45.75 16.4596 45.4375 17 44.8125 17C44.1875 17 43.875 16.5405 43.875 15Z" stroke="white" stroke-width="0.5" stroke-linecap="round" stroke-linejoin="round"/>
</g>
<defs>
<clipPath id="clip0_1_2592">
<rect width="24" height="24" fill="white" transform="matrix(-1 0 0 1 26 2)"/>
</clipPath>
<clipPath id="clip1_1_2592">
<rect width="24" height="24" fill="white" transform="translate(2 2)"/>
</clipPath>
<clipPath id="clip2_1_2592">
<rect width="18" height="18" fill="white" transform="matrix(-1 0 0 1 52 5)"/>
</clipPath>
<clipPath id="clip3_1_2592">
<rect width="18" height="18" fill="white" transform="translate(34 5)"/>
</clipPath>
</defs>
</svg>
