<svg width="24" height="24" viewBox="0 0 24 24" fill="none" xmlns="http://www.w3.org/2000/svg">
<path d="M7.29289 5.70711C7.68342 6.09763 8.31658 6.09763 8.70711 5.70711C9.09763 5.31658 9.09763 4.68342 8.70711 4.29289L7.29289 5.70711ZM21.8321 17.0547C22.1384 16.5952 22.0142 15.9743 21.5547 15.6679C21.0952 15.3616 20.4743 15.4858 20.1679 15.9453L21.8321 17.0547ZM8.83625 3.5718L9.18783 4.50796L8.83625 3.5718ZM4.83103 8.44503C5.07682 7.95045 4.87513 7.35027 4.38055 7.10449C3.88597 6.8587 3.28579 7.06039 3.04001 7.55497L4.83103 8.44503ZM20.0846 7.80927L19.1847 8.24521L20.0846 7.80927ZM12 20C8.01855 20 4 16.3851 4 12H2C2 17.556 6.98145 22 12 22V20ZM12 4C15.2083 4 17.9044 5.6021 19.1847 8.24521L20.9846 7.37333C19.3353 3.96836 15.8916 2 12 2V4ZM20.1679 15.9453C19.2343 17.3458 18.2255 18.336 16.9749 18.9884C15.7195 19.6434 14.1399 20 12 20V22C14.3601 22 16.2805 21.6066 17.9001 20.7616C19.5245 19.914 20.7657 18.6542 21.8321 17.0547L20.1679 15.9453ZM2.16795 12.5547C3.40091 14.4041 5.35972 15.1009 7.31623 14.4487L6.68377 12.5513C5.64028 12.8991 4.59909 12.5959 3.83205 11.4453L2.16795 12.5547ZM7.31623 14.4487C7.90147 14.2536 8.40581 13.8492 8.80922 13.4787C9.21067 13.11 9.65413 12.6351 10.0196 12.2696C10.4163 11.8729 10.7773 11.5446 11.1304 11.3153C11.4785 11.0894 11.7583 11 12 11V9C11.2417 9 10.584 9.28559 10.0415 9.63778C9.50396 9.98669 9.02119 10.4396 8.60539 10.8554C8.15837 11.3024 7.82058 11.6712 7.45641 12.0057C7.09419 12.3383 6.84853 12.4964 6.68377 12.5513L7.31623 14.4487ZM12 11C12.2417 11 12.5215 11.0894 12.8696 11.3153C13.2227 11.5446 13.5837 11.8729 13.9804 12.2696C14.3459 12.6351 14.7893 13.11 15.1908 13.4787C15.5942 13.8492 16.0985 14.2536 16.6838 14.4487L17.3162 12.5513C17.1515 12.4964 16.9058 12.3383 16.5436 12.0057C16.1794 11.6712 15.8416 11.3024 15.3946 10.8554C14.9788 10.4396 14.496 9.98669 13.9585 9.63778C13.416 9.28559 12.7583 9 12 9V11ZM16.6838 14.4487C16.7284 14.4636 16.7731 14.477 16.8178 14.4891L17.3399 12.5584C17.3315 12.5562 17.3236 12.5538 17.3162 12.5513L16.6838 14.4487ZM8.70711 4.29289C8.72624 4.31203 8.76109 4.35396 8.78911 4.42137C8.81769 4.49016 8.82968 4.56285 8.8277 4.62979C8.82402 4.75446 8.77598 4.80489 8.79779 4.7746C8.81599 4.74934 8.86244 4.69853 8.94388 4.64003C9.02309 4.58314 9.11043 4.53702 9.18783 4.50796L8.48468 2.63564C8.01551 2.81183 7.50361 3.14942 7.17498 3.60564C7.00664 3.83934 6.8404 4.1697 6.82857 4.57082C6.8157 5.007 6.98973 5.40394 7.29289 5.70711L8.70711 4.29289ZM9.18783 4.50796C10.0614 4.1799 11.0085 4 12 4V2C10.7647 2 9.5796 2.22444 8.48468 2.63564L9.18783 4.50796ZM4 12C4 10.721 4.2994 9.5148 4.83103 8.44503L3.04001 7.55497C2.37401 8.89511 2 10.4053 2 12H4ZM19.1847 8.24521C19.6282 9.1609 19.5772 10.4477 19.1139 11.4305C18.8878 11.91 18.5961 12.2456 18.3015 12.4288C18.0305 12.5973 17.7231 12.6621 17.3399 12.5584L16.8178 14.4891C17.7542 14.7423 18.6313 14.5788 19.3576 14.1272C20.0602 13.6903 20.5785 13.014 20.9229 12.2833C21.6007 10.8456 21.7329 8.91821 20.9846 7.37333L19.1847 8.24521Z" fill="white"/>
</svg>
