<svg width="24" height="24" viewBox="0 0 24 24" fill="none" xmlns="http://www.w3.org/2000/svg">
<g clip-path="url(#clip0_489_191315)">
<path d="M4 7C4 5.11438 4 4.17157 4.58579 3.58579C5.17157 3 6.11438 3 8 3H16C17.8856 3 18.8284 3 19.4142 3.58579C20 4.17157 20 5.11438 20 7V17C20 18.8856 20 19.8284 19.4142 20.4142C18.8284 21 17.8856 21 16 21H8C6.11438 21 5.17157 21 4.58579 20.4142C4 19.8284 4 18.8856 4 17V7Z" stroke="white" stroke-width="2"/>
<path d="M4 9L20 9" stroke="white" stroke-width="2" stroke-linecap="round"/>
<path d="M4 15L20 15" stroke="white" stroke-width="2" stroke-linecap="round"/>
<path d="M9 12C9 12.5523 8.55228 13 8 13C7.44772 13 7 12.5523 7 12C7 11.4477 7.44772 11 8 11C8.55228 11 9 11.4477 9 12Z" fill="white"/>
<path d="M9 6C9 6.55228 8.55228 7 8 7C7.44772 7 7 6.55228 7 6C7 5.44772 7.44772 5 8 5C8.55228 5 9 5.44772 9 6Z" fill="white"/>
<path d="M9 18C9 18.5523 8.55228 19 8 19C7.44772 19 7 18.5523 7 18C7 17.4477 7.44772 17 8 17C8.55228 17 9 17.4477 9 18Z" fill="white"/>
</g>
<defs>
<clipPath id="clip0_489_191315">
<rect width="24" height="24" fill="white"/>
</clipPath>
</defs>
</svg>
