<svg width="18" height="18" viewBox="0 0 18 18" fill="none" xmlns="http://www.w3.org/2000/svg">
<path d="M4.5 3.5C4.5 4.05228 4.05228 4.5 3.5 4.5C2.94772 4.5 2.5 4.05228 2.5 3.5C2.5 2.94772 2.94772 2.5 3.5 2.5C4.05228 2.5 4.5 2.94772 4.5 3.5Z" fill="white" stroke="white"/>
<path d="M15.5 3.5C15.5 4.05228 15.0523 4.5 14.5 4.5C13.9477 4.5 13.5 4.05228 13.5 3.5C13.5 2.94772 13.9477 2.5 14.5 2.5C15.0523 2.5 15.5 2.94772 15.5 3.5Z" fill="white" stroke="white"/>
<path d="M10 3.5C10 4.05228 9.55228 4.5 9 4.5C8.44772 4.5 8 4.05228 8 3.5C8 2.94772 8.44772 2.5 9 2.5C9.55228 2.5 10 2.94772 10 3.5Z" fill="white" stroke="white"/>
<path d="M10 14.5C10 15.0523 9.55228 15.5 9 15.5C8.44772 15.5 8 15.0523 8 14.5C8 13.9477 8.44772 13.5 9 13.5C9.55228 13.5 10 13.9477 10 14.5Z" fill="white" stroke="white"/>
<path d="M15.5 14.5C15.5 15.0523 15.0523 15.5 14.5 15.5C13.9477 15.5 13.5 15.0523 13.5 14.5C13.5 13.9477 13.9477 13.5 14.5 13.5C15.0523 13.5 15.5 13.9477 15.5 14.5Z" fill="white" stroke="white"/>
<path d="M4.5 14.5C4.5 15.0523 4.05228 15.5 3.5 15.5C2.94772 15.5 2.5 15.0523 2.5 14.5C2.5 13.9477 2.94772 13.5 3.5 13.5C4.05228 13.5 4.5 13.9477 4.5 14.5Z" fill="white" stroke="white"/>
<path d="M4.5 9C4.5 9.55228 4.05228 10 3.5 10C2.94772 10 2.5 9.55228 2.5 9C2.5 8.44772 2.94772 8 3.5 8C4.05228 8 4.5 8.44772 4.5 9Z" fill="white" stroke="white"/>
<path d="M10 9C10 9.55228 9.55228 10 9 10C8.44772 10 8 9.55228 8 9C8 8.44772 8.44772 8 9 8C9.55228 8 10 8.44772 10 9Z" fill="white" stroke="white"/>
<path d="M15.5 9C15.5 9.55228 15.0523 10 14.5 10C13.9477 10 13.5 9.55228 13.5 9C13.5 8.44772 13.9477 8 14.5 8C15.0523 8 15.5 8.44772 15.5 9Z" fill="white" stroke="white"/>
</svg>
