<svg width="18" height="18" viewBox="0 0 18 18" fill="none" xmlns="http://www.w3.org/2000/svg">
<g clip-path="url(#clip0_489_198850)">
<circle cx="9" cy="9.00012" r="6.5" stroke="white"/>
<path d="M8.01284 13.4842L8.26865 13.6013C8.60688 13.7562 8.82053 14.0727 8.82053 14.419C8.82053 14.9239 9.44862 15.5 10 15.5C11.4871 15.5 11.5142 15.1008 12.2167 14.659C12.3986 14.5446 12.5775 14.4225 12.7294 14.2706L14 13C14.4 12.6 13.183 12.4165 12.5244 12.3748C11.8873 12.3748 11.2436 11.9621 11.2436 11.2654V10.8956C11.2436 10.0787 10.5204 9.41642 9.62823 9.41642H7.20515C6.75907 9.41642 6.39746 9.08529 6.39746 8.67682C6.39746 8.26835 6.75907 7.93723 7.20515 7.93723H7.8056C8.36613 7.93723 8.82053 7.52114 8.82053 7.00786V6.88784C8.82053 6.31255 9.43604 5.90631 10.0321 6.08824C10.6281 6.27016 11.2436 5.86393 11.2436 5.28864V5.06335C11.2436 4.65763 10.7199 3.52696 10.2479 3.13281C10.1031 3.01192 9.91437 2.95703 9.74566 2.87269L9.25434 2.62706C9.08563 2.54272 8.90628 2.47843 8.71775 2.47275C7.90002 2.44814 6.51259 2.77271 5.82091 3.08957C5.71639 3.13746 5.62151 3.20264 5.53173 3.27446L4.13491 4.39191C4.04514 4.46373 3.94636 4.52401 3.85643 4.59563C3.24384 5.08357 3.16669 6.25916 3.16669 6.99981C3.16669 7.60003 3.42708 8.17566 3.89057 8.60008L6.74679 11.2155C7.04027 11.4842 7.20515 11.8487 7.20515 12.2288V12.2875C7.20515 12.7943 7.51783 13.2575 8.01284 13.4842Z" fill="white"/>
</g>
<defs>
<clipPath id="clip0_489_198850">
<rect width="18" height="18" fill="white"/>
</clipPath>
</defs>
</svg>
