<svg width="54" height="28" viewBox="0 0 54 28" fill="none" xmlns="http://www.w3.org/2000/svg">
<rect x="0.5" y="0.5" width="53" height="27" rx="4.5" stroke="#7B61FF" stroke-dasharray="10 5"/>
<path d="M7.4227 7.15966C7.4227 5.41605 8.83618 4.00256 10.5798 4.00256H13.7369V10.3168H10.5798C8.83618 10.3168 7.4227 8.90328 7.4227 7.15966Z" fill="white"/>
<path d="M20.5773 7.15966C20.5773 8.90328 19.1638 10.3168 17.4202 10.3168H14.2631V4.00256H17.4202C19.1638 4.00256 20.5773 5.41605 20.5773 7.15966Z" fill="white"/>
<path d="M7.4227 14.0001C7.4227 12.2565 8.83618 10.843 10.5798 10.843H13.7369V17.1572H10.5798C8.83618 17.1572 7.4227 15.7437 7.4227 14.0001Z" fill="white"/>
<path d="M14.2631 14.0001C14.2631 12.2565 15.6766 10.843 17.4202 10.843C19.1638 10.843 20.5773 12.2565 20.5773 14.0001C20.5773 15.7437 19.1638 17.1572 17.4202 17.1572C15.6766 17.1572 14.2631 15.7437 14.2631 14.0001Z" fill="white"/>
<path d="M7.4227 20.8404C7.4227 19.0968 8.83618 17.6833 10.5798 17.6833H13.7369V20.8404C13.7369 22.584 12.3234 23.9975 10.5798 23.9975C8.83618 23.9975 7.4227 22.584 7.4227 20.8404Z" fill="white"/>
<path d="M38.4205 18.7895C38.4205 17.5686 39.4102 16.5789 40.6311 16.5789H42.8416V18.7895C42.8416 20.0103 41.8519 21 40.6311 21C39.4102 21 38.4205 20.0103 38.4205 18.7895Z" fill="white"/>
<path d="M43.21 14.0001C43.21 12.7792 44.1997 11.7895 45.4205 11.7895C46.6414 11.7895 47.6311 12.7792 47.6311 14.0001C47.6311 15.2209 46.6414 16.2106 45.4205 16.2106C44.1997 16.2106 43.21 15.2209 43.21 14.0001Z" fill="white"/>
<path d="M38.4205 14.0001C38.4205 12.7792 39.4102 11.7895 40.6311 11.7895H42.8416V16.2106H40.6311C39.4102 16.2106 38.4205 15.2209 38.4205 14.0001Z" fill="white"/>
<path d="M47.6311 9.21053C47.6311 10.4314 46.6414 11.4211 45.4205 11.4211H43.21V7H45.4205C46.6414 7 47.6311 7.98969 47.6311 9.21053Z" fill="white"/>
<path d="M38.4205 9.21053C38.4205 7.98969 39.4102 7 40.6311 7H42.8416V11.4211H40.6311C39.4102 11.4211 38.4205 10.4314 38.4205 9.21053Z" fill="white"/>
</svg>
