<svg width="54" height="28" viewBox="0 0 54 28" fill="none" xmlns="http://www.w3.org/2000/svg">
<rect x="0.5" y="0.5" width="53" height="27" rx="4.5" stroke="#7B61FF" stroke-dasharray="10 5"/>
<path d="M5 10H14M23 10H20" stroke="white" stroke-width="2" stroke-linecap="round"/>
<path d="M5 18H8M23 18H14" stroke="white" stroke-width="2" stroke-linecap="round"/>
<circle cx="17" cy="10" r="3" stroke="white" stroke-width="2"/>
<circle cx="11" cy="18" r="3" stroke="white" stroke-width="2"/>
<path d="M36.5 11.5H43M49.5 11.5H47.5" stroke="white" stroke-linecap="round"/>
<path d="M36.5 17H39M49.5 17H43" stroke="white" stroke-linecap="round"/>
<path d="M47 11.5C47 12.6046 46.1046 13.5 45 13.5C43.8954 13.5 43 12.6046 43 11.5C43 10.3954 43.8954 9.5 45 9.5C46.1046 9.5 47 10.3954 47 11.5Z" stroke="white"/>
<path d="M43 17C43 18.1046 42.1046 19 41 19C39.8954 19 39 18.1046 39 17C39 15.8954 39.8954 15 41 15C42.1046 15 43 15.8954 43 17Z" stroke="white"/>
</svg>
