<svg width="54" height="28" viewBox="0 0 54 28" fill="none" xmlns="http://www.w3.org/2000/svg">
<rect x="0.5" y="0.5" width="53" height="27" rx="4.5" stroke="#7B61FF" stroke-dasharray="10 5"/>
<path fill-rule="evenodd" clip-rule="evenodd" d="M12.4939 5.1104C12.5549 4.56149 12.1593 4.06707 11.6104 4.00608C11.0615 3.94509 10.5671 4.34063 10.5061 4.88953L10.0494 8.99997H7C6.44772 8.99997 6 9.44768 6 9.99997C6 10.5523 6.44772 11 7 11H9.82718L9.16051 17H7C6.44772 17 6 17.4477 6 18C6 18.5523 6.44772 19 7 19H8.93829L8.50612 22.8895C8.44513 23.4384 8.84066 23.9329 9.38957 23.9938C9.93848 24.0548 10.4329 23.6593 10.4939 23.1104L10.9506 19H15.9383L15.5061 22.8895C15.4451 23.4384 15.8407 23.9329 16.3896 23.9938C16.9385 24.0548 17.4329 23.6593 17.4939 23.1104L17.9506 19H21C21.5523 19 22 18.5523 22 18C22 17.4477 21.5523 17 21 17H18.1728L18.8395 11H21C21.5523 11 22 10.5523 22 9.99997C22 9.44768 21.5523 8.99997 21 8.99997H19.0617L19.4939 5.1104C19.5549 4.56149 19.1593 4.06707 18.6104 4.00608C18.0615 3.94509 17.5671 4.34063 17.5061 4.88953L17.0494 8.99997H12.0617L12.4939 5.1104ZM11.8395 11L11.1728 17H16.1605L16.8272 11H11.8395Z" fill="white"/>
<path fill-rule="evenodd" clip-rule="evenodd" d="M42.4919 8.58941C42.5413 8.31772 42.3611 8.05743 42.0894 8.00803C41.8178 7.95863 41.5575 8.13883 41.5081 8.41052L41.0372 11H38.5C38.2239 11 38 11.2239 38 11.5C38 11.7762 38.2239 12 38.5 12H40.8554L40.1282 16H38.5C38.2239 16 38 16.2239 38 16.5C38 16.7762 38.2239 17 38.5 17H39.9463L39.5081 19.4105C39.4587 19.6822 39.6389 19.9425 39.9106 19.9919C40.1822 20.0413 40.4425 19.8611 40.4919 19.5894L40.9627 17H43.9463L43.5081 19.4105C43.4587 19.6822 43.6389 19.9425 43.9106 19.9919C44.1822 20.0413 44.4425 19.8611 44.4919 19.5894L44.9627 17H47.5C47.7761 17 48 16.7762 48 16.5C48 16.2239 47.7761 16 47.5 16H45.1446L45.8718 12H47.5C47.7761 12 48 11.7762 48 11.5C48 11.2239 47.7761 11 47.5 11H46.0536L46.4919 8.58941C46.5413 8.31772 46.3611 8.05743 46.0894 8.00803C45.8178 7.95863 45.5575 8.13883 45.5081 8.41052L45.0372 11H42.0536L42.4919 8.58941ZM41.8718 12L41.1446 16H44.1282L44.8554 12H41.8718Z" fill="white"/>
</svg>
