<svg width="24" height="24" viewBox="0 0 24 24" fill="none" xmlns="http://www.w3.org/2000/svg">
<path d="M6.5 4H17.5L16.7648 17.9682C16.7087 19.0347 16.6806 19.568 16.4551 19.9729C16.2567 20.3294 15.9539 20.6166 15.5875 20.7961C15.1713 21 14.6373 21 13.5693 21H10.5173C9.45525 21 8.92424 21 8.50936 20.7977C8.14414 20.6197 7.84181 20.3346 7.64262 19.9805C7.41635 19.5782 7.38517 19.0481 7.3228 17.9879L6.5 4Z" stroke="white" stroke-width="2"/>
<path d="M17 10.5H7L7.45456 15H16.5455L17 10.5Z" fill="white" stroke="white" stroke-width="2"/>
<path d="M5 4.5H19" stroke="white" stroke-width="2" stroke-linecap="round" stroke-linejoin="round"/>
<path d="M17.7929 3C17.9255 3 18.0527 3.05268 18.1464 3.14645C18.4614 3.46143 18.2383 4 17.7929 4H6.20337C5.75845 4 5.53513 3.46252 5.84904 3.14722C5.94287 3.05298 6.07038 3 6.20337 3H17.7929Z" stroke="white" stroke-width="2"/>
</svg>
