<svg width="24" height="24" viewBox="0 0 24 24" fill="none" xmlns="http://www.w3.org/2000/svg">
<path d="M21 11C21 9.11438 21 8.17157 20.4142 7.58579C19.8284 7 18.8856 7 17 7H7C5.11438 7 4.17157 7 3.58579 7.58579C3 8.17157 3 9.11438 3 11V12.5C3 14.3856 3 15.3284 3.58579 15.9142C4.17157 16.5 5.11438 16.5 7 16.5H17C18.8856 16.5 19.8284 16.5 20.4142 15.9142C21 15.3284 21 14.3856 21 12.5V11Z" stroke="white" stroke-width="2" stroke-linecap="round"/>
<path d="M18.5 13C18.5 13.5523 18.0523 14 17.5 14C16.9477 14 16.5 13.5523 16.5 13C16.5 12.4477 16.9477 12 17.5 12C18.0523 12 18.5 12.4477 18.5 13Z" fill="white"/>
</svg>
