<svg width="24" height="24" viewBox="0 0 24 24" fill="none" xmlns="http://www.w3.org/2000/svg">
<g clip-path="url(#clip0_489_191401)">
<path d="M22 9C22 7.41696 21.551 5.86761 20.5145 4.74824C19.478 3.62886 18.0722 3 16.6063 3C15.6726 3.05946 14.766 3.36192 13.9639 3.88159C13.1714 4.39507 12.5041 5.12079 12.0175 5.96931C12.0097 5.98291 12.0058 5.98971 12 5.98971C11.9942 5.98971 11.9903 5.98291 11.9825 5.96931C11.4959 5.12079 10.8286 4.39507 10.0361 3.88159C9.23398 3.36192 8.32741 3.05946 7.39368 3C5.92782 3 4.52201 3.62886 3.48549 4.74824C2.44898 5.86761 2 7.41696 2 9C2 14.7 12 22 12 22C12 22 14.9895 19.8598 17.7209 16.9787" stroke="white" stroke-width="2" stroke-linecap="round" stroke-linejoin="round"/>
<path d="M8 14L10 10L13 14L15 12L17 14L18.4667 12.9C18.731 12.7018 18.8632 12.6026 19.0171 12.5513C19.1711 12.5 19.3363 12.5 19.6667 12.5H22" stroke="white" stroke-width="2" stroke-linecap="round" stroke-linejoin="round"/>
</g>
<defs>
<clipPath id="clip0_489_191401">
<rect width="24" height="24" fill="white"/>
</clipPath>
</defs>
</svg>
