<svg width="54" height="28" viewBox="0 0 54 28" fill="none" xmlns="http://www.w3.org/2000/svg">
<rect x="0.5" y="0.5" width="53" height="27" rx="4.5" stroke="#7B61FF" stroke-dasharray="10 5"/>
<path d="M7 5V13.5C7 15.3856 7 16.3284 7.58579 16.9142C8.17157 17.5 9.11438 17.5 11 17.5H14M21 5V13.5C21 15.3856 21 16.3284 20.4142 16.9142C19.8284 17.5 18.8856 17.5 17 17.5H14M5 5H23M14 17.5V20.5M14 20.5L11 23M14 20.5L17 23" stroke="white" stroke-width="2" stroke-linecap="round"/>
<path d="M37.9444 7.5V12.5278C37.9444 14.4134 37.9444 15.3562 38.5302 15.942C39.116 16.5278 40.0588 16.5278 41.9444 16.5278H43M48.0556 7.5V12.5278C48.0556 14.4134 48.0556 15.3562 47.4698 15.942C46.884 16.5278 45.9412 16.5278 44.0556 16.5278H43M36.5 7.5H49.5M43 16.5278V18.6944M43 18.6944L40.8333 20.5M43 18.6944L45.1667 20.5" stroke="white" stroke-linecap="round"/>
</svg>
