<svg width="24" height="24" viewBox="0 0 24 24" fill="none" xmlns="http://www.w3.org/2000/svg">
<g clip-path="url(#clip0_489_191445)">
<path d="M6 3C2.48634 6.94916 2.6582 12.1037 3.53099 15" stroke="white" stroke-width="2" stroke-linecap="round"/>
<path d="M11.1608 12.0636L7.28517 16.7381C7.19701 16.8444 7.12671 16.9627 7.07669 17.0889L6.14629 19.436C5.79894 20.3123 6.82021 21.115 7.684 20.6447L10.0937 19.3327C10.2508 19.2472 10.3887 19.1343 10.5 19L20.5411 7.03808C21.0211 6.45919 20.9069 5.62508 20.2861 5.17505L19.3549 4.5C18.7341 4.04996 17.8418 4.15443 17.3618 4.73332L16.6046 5.64663C16.4846 5.79135 16.2615 5.81747 16.1063 5.70496L15.3597 5.16372C15.0493 4.9387 14.6031 4.99094 14.3631 5.28038L13 6.92444" stroke="white" stroke-width="2" stroke-linecap="round"/>
</g>
<defs>
<clipPath id="clip0_489_191445">
<rect width="24" height="24" fill="white"/>
</clipPath>
</defs>
</svg>
