<svg width="54" height="28" viewBox="0 0 54 28" fill="none" xmlns="http://www.w3.org/2000/svg">
<rect x="0.5" y="0.5" width="53" height="27" rx="4.5" stroke="#7B61FF" stroke-dasharray="10 5"/>
<g clip-path="url(#clip0_1_2764)">
<rect x="5" y="7" width="18" height="14" rx="2" stroke="white" stroke-width="2"/>
<path d="M12 14H8M8 14L9.5 12.5M8 14L9.5 15.5M16 14H20M20 14L18.5 12.5M20 14L18.5 15.5" stroke="white" stroke-linecap="round" stroke-linejoin="round"/>
</g>
<g clip-path="url(#clip1_1_2764)">
<path d="M36.5 13.5001C36.5 11.6145 36.5 10.6717 37.0858 10.0859C37.6716 9.50009 38.6144 9.50009 40.5 9.50009H45.5C47.3856 9.50009 48.3284 9.50009 48.9142 10.0859C49.5 10.6717 49.5 11.6145 49.5 13.5001V14.5001C49.5 16.3857 49.5 17.3285 48.9142 17.9143C48.3284 18.5001 47.3856 18.5001 45.5 18.5001H40.5C38.6144 18.5001 37.6716 18.5001 37.0858 17.9143C36.5 17.3285 36.5 16.3857 36.5 14.5001V13.5001Z" stroke="white"/>
<path d="M41.5 14.0001H38.5M38.5 14.0001L39.5 13.0001M38.5 14.0001L39.5 15.0001M44.5 14.0001H47.5M47.5 14.0001L46.5 13.0001M47.5 14.0001L46.5 15.0001" stroke="white" stroke-linecap="round" stroke-linejoin="round"/>
</g>
<defs>
<clipPath id="clip0_1_2764">
<rect width="24" height="24" fill="white" transform="translate(2 2)"/>
</clipPath>
<clipPath id="clip1_1_2764">
<rect width="18" height="18" fill="white" transform="translate(34 5)"/>
</clipPath>
</defs>
</svg>
