<svg width="54" height="28" viewBox="0 0 54 28" fill="none" xmlns="http://www.w3.org/2000/svg">
<rect x="0.5" y="0.5" width="53" height="27" rx="4.5" stroke="#7B61FF" stroke-dasharray="10 5"/>
<g clip-path="url(#clip0_1_2368)">
<path d="M20 20.5L20 11.5C20 9.61438 20 8.67157 19.4142 8.08579C18.8284 7.5 17.8856 7.5 16 7.5L14.5 7.5M20 20.5L23 18M20 20.5L17 18" stroke="white" stroke-width="2" stroke-linecap="round" stroke-linejoin="round"/>
<path d="M7.99999 7.49999L7.99999 16.5C7.99999 18.3856 7.99999 19.3284 8.58578 19.9142C9.17157 20.5 10.1142 20.5 11.9995 20.5C12.4805 20.5 12.9847 20.5 13.5 20.5M7.99999 7.49999L5 10M7.99999 7.49999L11 10" stroke="white" stroke-width="2" stroke-linecap="round" stroke-linejoin="round"/>
</g>
<g clip-path="url(#clip1_1_2368)">
<path d="M38.5 9.49994L38.5 16.4999C38.5 17.4427 38.5 17.9142 38.7929 18.207C39.0858 18.4999 39.5572 18.4999 40.5 18.4999C41.105 18.4999 41.7966 18.4999 42.5 18.4999M38.5 9.49994L36.5 11.4999M38.5 9.49994L40.5 11.4999" stroke="white" stroke-linecap="round" stroke-linejoin="round"/>
<path d="M47.5 18.4999L47.5 11.4999C47.5 10.5571 47.5 10.0857 47.2071 9.79283C46.9142 9.49994 46.4428 9.49994 45.5 9.49994C44.895 9.49994 44.2034 9.49994 43.5 9.49994M47.5 18.4999L49.5 16.4999M47.5 18.4999L45.5 16.4999" stroke="white" stroke-linecap="round" stroke-linejoin="round"/>
</g>
<defs>
<clipPath id="clip0_1_2368">
<rect width="24" height="24" fill="white" transform="translate(2 2)"/>
</clipPath>
<clipPath id="clip1_1_2368">
<rect width="18" height="18" fill="white" transform="translate(34 5)"/>
</clipPath>
</defs>
</svg>
