<svg width="24" height="24" viewBox="0 0 24 24" fill="none" xmlns="http://www.w3.org/2000/svg">
<path d="M3 21V20.5C3 18.6144 3 17.6716 3.58579 17.0858C4.17157 16.5 5.11438 16.5 7 16.5H17C18.8856 16.5 19.8284 16.5 20.4142 17.0858C21 17.6716 21 18.6144 21 20.5V21M3 3V3.5C3 5.38562 3 6.32843 3.58579 6.91421C4.17157 7.5 5.11438 7.5 7 7.5L17 7.5C18.8856 7.5 19.8284 7.5 20.4142 6.91421C21 6.32843 21 5.38562 21 3.5V3" stroke="white" stroke-width="2" stroke-linecap="round"/>
<path d="M16 12H8" stroke="white" stroke-width="2" stroke-linecap="round"/>
</svg>
