<svg width="24" height="24" viewBox="0 0 24 24" fill="none" xmlns="http://www.w3.org/2000/svg">
<g clip-path="url(#clip0_489_191492)">
<path d="M11.9785 18.6219V12.9143" stroke="white" stroke-width="2" stroke-linecap="round"/>
<path d="M4.84412 20.9999C4.84412 20.9999 6.27102 19.0974 11.9786 19.0974C17.6862 19.0974 20.0643 20.9999 20.0643 20.9999" stroke="white" stroke-width="2" stroke-linecap="round"/>
<path d="M4.08518 3.18991C5.0289 2.24619 7.70651 3.39374 10.0658 5.75303C12.4251 8.11231 13.5726 10.7899 12.6289 11.7336C11.6852 12.6774 9.00759 11.5298 6.6483 9.17052C4.28901 6.81123 3.14147 4.13362 4.08518 3.18991Z" stroke="white" stroke-width="2"/>
<path d="M12.0234 12.1214C13.2632 11.8563 14.9357 10.8335 16.473 9.29623C18.8322 6.93694 19.9798 4.25933 19.0361 3.31562C18.0924 2.3719 15.4148 3.51945 13.0555 5.87874C12.5946 6.33959 12.18 6.8126 11.8182 7.28245" stroke="white" stroke-width="2" stroke-linecap="round"/>
</g>
<defs>
<clipPath id="clip0_489_191492">
<rect width="24" height="24" fill="white"/>
</clipPath>
</defs>
</svg>
