<svg width="24" height="24" viewBox="0 0 24 24" fill="none" xmlns="http://www.w3.org/2000/svg">
<g clip-path="url(#clip0_489_191500)">
<path d="M4.5 11.9091V21M19.5 11L19.5 17C19.5 18.8856 19.5 19.8284 18.9142 20.4142C18.3284 21 17.3856 21 15.5 21H13C11.1144 21 10.1716 21 9.58579 20.4142C9 19.8284 9 18.8856 9 17L9 11H19.5Z" stroke="white" stroke-width="2" stroke-linecap="round"/>
<path d="M16.3839 3H7.61606C6.34674 3 5.71208 3 5.21333 3.32619C4.71458 3.65238 4.4602 4.23383 3.95143 5.39672L3.23773 7.02804C3.168 7.18742 3.13314 7.26711 3.10551 7.34876C3.05414 7.50058 3.0212 7.65803 3.00742 7.81772C3 7.90359 3 7.99058 3 8.16455C3 8.94222 3 9.33106 3.10668 9.64446C3.30665 10.232 3.76804 10.6933 4.35554 10.8933C4.66894 11 5.05778 11 5.83546 11H18.1645C18.9422 11 19.3311 11 19.6445 10.8933C20.232 10.6933 20.6933 10.232 20.8933 9.64446C21 9.33106 21 8.94222 21 8.16455C21 7.99058 21 7.90359 20.9926 7.81772C20.9788 7.65803 20.9459 7.50058 20.8945 7.34876C20.8669 7.26711 20.832 7.18742 20.7623 7.02804L20.0486 5.39673C19.5398 4.23383 19.2854 3.65238 18.7867 3.32619C18.2879 3 17.6533 3 16.3839 3Z" stroke="white" stroke-width="2" stroke-linecap="round" stroke-linejoin="round"/>
<path d="M12 11V8M7 11V8M17 11V8" stroke="white" stroke-width="2" stroke-linecap="round" stroke-linejoin="round"/>
</g>
<defs>
<clipPath id="clip0_489_191500">
<rect width="24" height="24" fill="white"/>
</clipPath>
</defs>
</svg>
