<svg width="24" height="24" viewBox="0 0 24 24" fill="none" xmlns="http://www.w3.org/2000/svg">
<path d="M8.5 16.5L8.90075 17.7023C8.95035 17.8511 8.97515 17.9255 8.99403 18.0015C9.01292 18.0775 9.02581 18.1549 9.0516 18.3096L9.089 18.534C9.28188 19.6913 9.37832 20.2699 9.77519 20.622C9.79231 20.6372 9.80978 20.652 9.82758 20.6664C10.2401 21 10.8268 21 12 21C13.1732 21 13.7599 21 14.1724 20.6664C14.1902 20.652 14.2077 20.6372 14.2248 20.622C14.6217 20.2699 14.7181 19.6913 14.911 18.534L14.9484 18.3096C14.9742 18.1549 14.9871 18.0775 15.006 18.0015C15.0248 17.9255 15.0496 17.8511 15.0992 17.7023L15.5 16.5" stroke="white" stroke-width="2" stroke-linecap="round" stroke-linejoin="round"/>
<path d="M8.5 7.5L8.90075 6.29774C8.95035 6.14895 8.97515 6.07455 8.99403 5.99852C9.01292 5.92249 9.02581 5.84513 9.0516 5.69042L9.089 5.46598C9.28188 4.30871 9.37832 3.73007 9.77519 3.37796C9.79231 3.36277 9.80978 3.34797 9.82758 3.33358C10.2401 3 10.8268 3 12 3C13.1732 3 13.7599 3 14.1724 3.33358C14.1902 3.34797 14.2077 3.36277 14.2248 3.37796C14.6217 3.73007 14.7181 4.30871 14.911 5.46598L14.9484 5.69042C14.9742 5.84513 14.9871 5.92249 15.006 5.99852C15.0248 6.07455 15.0496 6.14895 15.0992 6.29774L15.5 7.5" stroke="white" stroke-width="2" stroke-linecap="round" stroke-linejoin="round"/>
<path d="M12 7.5C13.196 7.5 14.0096 7.50158 14.6279 7.57129C15.226 7.63873 15.5169 7.75897 15.7178 7.91309C15.8564 8.01946 15.9805 8.14361 16.0869 8.28223C16.241 8.48307 16.3613 8.774 16.4287 9.37207C16.4984 9.99043 16.5 10.804 16.5 12C16.5 13.196 16.4984 14.0096 16.4287 14.6279C16.3613 15.226 16.241 15.5169 16.0869 15.7178C15.9805 15.8564 15.8564 15.9805 15.7178 16.0869C15.5169 16.241 15.226 16.3613 14.6279 16.4287C14.0096 16.4984 13.196 16.5 12 16.5C10.804 16.5 9.99043 16.4984 9.37207 16.4287C8.774 16.3613 8.48307 16.241 8.28223 16.0869C8.14361 15.9805 8.01946 15.8564 7.91309 15.7178C7.75897 15.5169 7.63873 15.226 7.57129 14.6279C7.50158 14.0096 7.5 13.196 7.5 12C7.5 10.804 7.50158 9.99043 7.57129 9.37207C7.63873 8.774 7.75897 8.48307 7.91309 8.28223C8.01946 8.1436 8.1436 8.01946 8.28223 7.91309C8.48307 7.75897 8.774 7.63873 9.37207 7.57129C9.99043 7.50158 10.804 7.5 12 7.5Z" stroke="white" stroke-width="2"/>
</svg>
