<svg width="54" height="28" viewBox="0 0 54 28" fill="none" xmlns="http://www.w3.org/2000/svg">
<rect x="0.5" y="0.5" width="53" height="27" rx="4.5" stroke="#7B61FF" stroke-dasharray="10 5"/>
<path d="M21.489 10.8963C21.375 10.9841 19.3625 12.11 19.3625 14.6137C19.3625 17.5096 21.9234 18.5341 22 18.5595C21.9882 18.6219 21.5932 19.9625 20.6498 21.3285C19.8086 22.5306 18.9301 23.7307 17.5937 23.7307C16.2572 23.7307 15.9133 22.9599 14.3705 22.9599C12.867 22.9599 12.3324 23.7561 11.1099 23.7561C9.88748 23.7561 9.03452 22.6438 8.0538 21.2778C6.91782 19.6737 6 17.1818 6 14.8167C6 11.0231 8.48422 9.0112 10.9291 9.0112C12.2282 9.0112 13.3111 9.85812 14.1268 9.85812C14.9031 9.85812 16.1137 8.96047 17.5917 8.96047C18.1518 8.96047 20.1644 9.0112 21.489 10.8963ZM16.8901 7.35445C17.5013 6.63438 17.9337 5.63526 17.9337 4.63613C17.9337 4.49758 17.9219 4.35708 17.8963 4.2439C16.9019 4.28097 15.7187 4.90152 15.0053 5.72307C14.4452 6.35533 13.9224 7.35445 13.9224 8.36724C13.9224 8.51945 13.9479 8.67166 13.9597 8.72044C14.0226 8.73215 14.1248 8.74581 14.227 8.74581C15.1193 8.74581 16.2415 8.15258 16.8901 7.35445Z" fill="white"/>
<path d="M48.2422 11.8274C48.1624 11.8889 46.7537 12.677 46.7537 14.4296C46.7537 16.4567 48.5462 17.1738 48.5999 17.1916C48.5916 17.2353 48.3151 18.1737 47.6548 19.1299C47.066 19.9713 46.451 20.8114 45.5155 20.8114C44.58 20.8114 44.3393 20.2718 43.2593 20.2718C42.2069 20.2718 41.8327 20.8291 40.977 20.8291C40.1213 20.8291 39.5242 20.0505 38.8377 19.0944C38.0426 17.9715 37.4001 16.2272 37.4001 14.5716C37.4001 11.9162 39.139 10.5079 40.8504 10.5079C41.7598 10.5079 42.5178 11.1007 43.0887 11.1007C43.6321 11.1007 44.4796 10.4724 45.5141 10.4724C45.9062 10.4724 47.315 10.5079 48.2422 11.8274ZM45.023 9.34819C45.4509 8.84415 45.7535 8.14477 45.7535 7.4454C45.7535 7.34841 45.7453 7.25006 45.7274 7.17084C45.0313 7.19679 44.2031 7.63117 43.7037 8.20624C43.3116 8.64881 42.9457 9.34819 42.9457 10.0571C42.9457 10.1637 42.9635 10.2702 42.9718 10.3044C43.0158 10.3126 43.0874 10.3221 43.1589 10.3221C43.7835 10.3221 44.569 9.90687 45.023 9.34819Z" fill="white"/>
</svg>
