<svg width="18" height="18" viewBox="0 0 18 18" fill="none" xmlns="http://www.w3.org/2000/svg">
<path d="M14.2422 6.82748C14.1624 6.88894 12.7537 7.67711 12.7537 9.42964C12.7537 11.4567 14.5462 12.1739 14.5999 12.1916C14.5916 12.2353 14.3151 13.1738 13.6548 14.1299C13.0659 14.9714 12.451 15.8114 11.5155 15.8114C10.58 15.8114 10.3393 15.2719 9.25931 15.2719C8.20688 15.2719 7.83268 15.8292 6.97698 15.8292C6.12127 15.8292 5.52421 15.0506 4.83772 14.0944C4.04255 12.9716 3.40009 11.2273 3.40009 9.5717C3.40009 6.91626 5.13901 5.50795 6.85041 5.50795C7.75977 5.50795 8.51779 6.10078 9.08872 6.10078C9.63213 6.10078 10.4796 5.47244 11.5141 5.47244C11.9062 5.47244 13.315 5.50795 14.2422 6.82748ZM11.023 4.34825C11.4508 3.84421 11.7535 3.14483 11.7535 2.44546C11.7535 2.34847 11.7452 2.25012 11.7274 2.1709C11.0312 2.19685 10.2031 2.63123 9.70367 3.2063C9.31159 3.64887 8.94564 4.34825 8.94564 5.05718C8.94564 5.16373 8.96353 5.27027 8.97178 5.30442C9.01581 5.31262 9.08734 5.32218 9.15888 5.32218C9.78346 5.32218 10.569 4.90693 11.023 4.34825Z" fill="white"/>
</svg>
