<svg width="54" height="28" viewBox="0 0 54 28" fill="none" xmlns="http://www.w3.org/2000/svg">
<rect x="0.5" y="0.5" width="53" height="27" rx="4.5" stroke="#7B61FF" stroke-dasharray="10 5"/>
<g clip-path="url(#clip0_1_1852)">
<path d="M5 17.375V18.5V19C5 20.8856 5 21.8284 5.58579 22.4142C6.17157 23 7.11438 23 9 23H9.5H10.625M5 10.625V9.5V9C5 7.11438 5 6.17157 5.58579 5.58579C6.17157 5 7.11438 5 9 5H9.5H10.625M23 10.625V9.5V9C23 7.11438 23 6.17157 22.4142 5.58579C21.8284 5 20.8856 5 19 5H18.5H17.375M23 17.375V18.5V19C23 20.8856 23 21.8284 22.4142 22.4142C21.8284 23 20.8856 23 19 23H18.5H17.375" stroke="white" stroke-width="2" stroke-linecap="round" stroke-linejoin="round"/>
</g>
<g clip-path="url(#clip1_1_1852)">
<path d="M36.5 16.625V18.5C36.5 19.4428 36.5 19.9142 36.7929 20.2071C37.0858 20.5 37.5572 20.5 38.5 20.5H40.375M36.5 11.375V9.5C36.5 8.55719 36.5 8.08579 36.7929 7.79289C37.0858 7.5 37.5572 7.5 38.5 7.5H40.375M49.5 11.375V9.5C49.5 8.55719 49.5 8.08579 49.2071 7.79289C48.9142 7.5 48.4428 7.5 47.5 7.5H45.625M49.5 16.625V18.5C49.5 19.4428 49.5 19.9142 49.2071 20.2071C48.9142 20.5 48.4428 20.5 47.5 20.5H45.625" stroke="white" stroke-linecap="round" stroke-linejoin="round"/>
</g>
<defs>
<clipPath id="clip0_1_1852">
<rect width="24" height="24" fill="white" transform="translate(2 2)"/>
</clipPath>
<clipPath id="clip1_1_1852">
<rect width="18" height="18" fill="white" transform="translate(34 5)"/>
</clipPath>
</defs>
</svg>
