<svg width="54" height="28" viewBox="0 0 54 28" fill="none" xmlns="http://www.w3.org/2000/svg">
<rect x="0.5" y="0.5" width="53" height="27" rx="4.5" stroke="#7B61FF" stroke-dasharray="10 5"/>
<g clip-path="url(#clip0_1_458)">
<path d="M5 9C5 7.11438 5 6.17157 5.58579 5.58579C6.17157 5 7.11438 5 9 5H19C20.8856 5 21.8284 5 22.4142 5.58579C23 6.17157 23 7.11438 23 9V19C23 20.8856 23 21.8284 22.4142 22.4142C21.8284 23 20.8856 23 19 23H9C7.11438 23 6.17157 23 5.58579 22.4142C5 21.8284 5 20.8856 5 19V9Z" stroke="white" stroke-width="2"/>
<path d="M5 17.5H23M11 10.5V17.5M17 5V10.5M17 17.5V23M5 10.5L23 10.5" stroke="white" stroke-width="2" stroke-linecap="round"/>
</g>
<path d="M36.5 9.50116C36.5 8.55758 36.5 8.08579 36.7929 7.79289C37.0858 7.5 37.5572 7.5 38.5 7.5H47.5C48.4428 7.5 48.9142 7.5 49.2071 7.79289C49.5 8.08579 49.5 8.55719 49.5 9.5V18.5C49.5 19.4428 49.5 19.9142 49.2071 20.2071C48.9142 20.5 48.4428 20.5 47.5 20.5H38.5C37.5572 20.5 37.0858 20.5 36.7929 20.2071C36.5 19.9142 36.5 19.4424 36.5 18.4988C36.5 15.22 36.5 12.78 36.5 9.50116Z" stroke="white"/>
<path d="M36.5 16.5278H49.5M40.8333 11.4722V16.5278M45.1667 7.5V11.4722M45.1667 16.5278V20.5M36.5 11.4722H49.5" stroke="white" stroke-linecap="round"/>
<defs>
<clipPath id="clip0_1_458">
<rect width="24" height="24" fill="white" transform="translate(2 2)"/>
</clipPath>
</defs>
</svg>
