<svg width="18" height="18" viewBox="0 0 18 18" fill="none" xmlns="http://www.w3.org/2000/svg">
<g clip-path="url(#clip0_489_200319)">
<path d="M4.1551 12.1557L3.82365 12.5301V12.5301L4.1551 12.1557ZM6.83333 13.5796L6.69848 14.0611L6.83333 13.5796ZM3.3125 15.2405L3.07559 15.6808C3.09919 15.6935 3.12377 15.7043 3.1491 15.7131L3.3125 15.2405ZM15 8.6247C15 10.1169 14.3495 11.3195 13.286 12.1607C12.2133 13.0091 10.7035 13.5 9 13.5V14.5C10.8863 14.5 12.6265 13.9573 13.9064 12.945C15.1954 11.9255 16 10.4404 16 8.6247H15ZM3 8.6247C3 6.17879 5.54503 4.16284 9 4.16284V3.16284C5.27527 3.16284 2 5.38111 2 8.6247H3ZM9 4.16284C10.7269 4.16284 12.2412 4.56189 13.3086 5.31233C14.357 6.04942 15 7.13994 15 8.6247H16C16 6.80155 15.1879 5.41114 13.8838 4.49427C12.5986 3.59076 10.8629 3.16284 9 3.16284V4.16284ZM4.48655 11.7814C3.55442 10.9561 3 9.78786 3 8.6247H2C2 10.1 2.69727 11.5328 3.82365 12.5301L4.48655 11.7814ZM9 13.5C8.32522 13.5 7.6736 13.2957 6.96819 13.0981L6.69848 14.0611C7.34844 14.2431 8.15536 14.5 9 14.5V13.5ZM6.96819 13.0981C6.70775 13.0252 6.47996 13.1263 6.35682 13.1942C6.21968 13.2698 6.08583 13.3763 5.96763 13.4777C5.8467 13.5815 5.71444 13.7045 5.5857 13.8226C5.45336 13.944 5.31779 14.0667 5.1758 14.1848C4.57659 14.6834 4.02666 14.9584 3.4759 14.768L3.1491 15.7131C4.25344 16.0949 5.19993 15.4656 5.81535 14.9536C5.97703 14.8191 6.1275 14.6826 6.26168 14.5595C6.39946 14.4331 6.51418 14.3264 6.61878 14.2367C6.72609 14.1446 6.79631 14.0938 6.83985 14.0698C6.8974 14.038 6.82692 14.097 6.69848 14.0611L6.96819 13.0981ZM3.54941 14.8002C3.75345 14.91 3.73559 15.1061 3.73647 15.0628C3.73689 15.0422 3.7461 14.9768 3.78521 14.8514C3.86104 14.6082 4.00031 14.2875 4.1587 13.9288C4.30975 13.5867 4.47875 13.209 4.58446 12.8975C4.63663 12.7437 4.68437 12.5754 4.7001 12.4186C4.71191 12.3007 4.72826 11.9954 4.48655 11.7814L3.82365 12.5301C3.67058 12.3946 3.71328 12.2371 3.70509 12.3188C3.7008 12.3615 3.68217 12.4445 3.6375 12.5761C3.54952 12.8353 3.40298 13.1646 3.24392 13.5248C3.09219 13.8684 2.92676 14.2452 2.83056 14.5537C2.78366 14.704 2.74003 14.8779 2.73668 15.0425C2.73379 15.1845 2.76125 15.5117 3.07559 15.6808L3.54941 14.8002Z" fill="white"/>
</g>
<defs>
<clipPath id="clip0_489_200319">
<rect width="18" height="18" fill="white"/>
</clipPath>
</defs>
</svg>
