<svg width="54" height="28" viewBox="0 0 54 28" fill="none" xmlns="http://www.w3.org/2000/svg">
<rect x="0.5" y="0.5" width="53" height="27" rx="4.5" stroke="#7B61FF" stroke-dasharray="10 5"/>
<path d="M11 6H17C19.8284 6 21.2426 6 22.1213 6.87868C23 7.75736 23 9.17157 23 12V15.2167C23 15.9447 23 16.3087 22.9371 16.6109C22.6939 17.7802 21.7802 18.6939 20.6109 18.9371C20.3087 19 19.9447 19 19.2167 19C18.8684 19 18.6943 19 18.5283 19.0185C17.8975 19.089 17.3052 19.3577 16.8368 19.7861C16.7135 19.8988 16.5989 20.0299 16.3695 20.292L16.1936 20.4931L16.1936 20.4931C15.5614 21.2156 15.2453 21.5768 14.892 21.7529C14.3303 22.0328 13.6697 22.0328 13.108 21.7529C12.7547 21.5768 12.4386 21.2156 11.8064 20.4931L11.6305 20.292L11.6305 20.292C11.4011 20.0299 11.2865 19.8988 11.1632 19.7861C10.6948 19.3577 10.1025 19.089 9.47167 19.0185C9.3057 19 9.13156 19 8.78327 19C8.05531 19 7.69133 19 7.38912 18.9371C6.21976 18.6939 5.30606 17.7802 5.06285 16.6109C5 16.3087 5 15.9447 5 15.2167V12C5 9.17157 5 7.75736 5.87868 6.87868C6.75736 6 8.17157 6 11 6Z" stroke="white" stroke-width="2" stroke-linecap="round"/>
<path d="M41 9.41177H45C46.8856 9.41177 47.8284 9.41177 48.4142 9.99755C49 10.5833 49 11.5261 49 13.4118V14.874C49 15.3738 49 15.6237 48.9556 15.831C48.7905 16.6009 48.1891 17.2023 47.4192 17.3673C47.212 17.4118 46.9621 17.4118 46.4623 17.4118C46.2277 17.4118 46.1104 17.4118 45.9985 17.4244C45.5898 17.4706 45.2053 17.6416 44.8974 17.9142C44.813 17.9889 44.7345 18.076 44.5774 18.2502L44.5774 18.2503L44.2948 18.5638C43.7832 19.1312 43.5274 19.415 43.2133 19.4835C43.0727 19.5142 42.9273 19.5142 42.7867 19.4835C42.4726 19.415 42.2168 19.1312 41.7052 18.5638L41.7052 18.5638L41.4226 18.2503L41.4226 18.2502C41.2655 18.076 41.187 17.9889 41.1026 17.9142C40.7947 17.6416 40.4102 17.4706 40.0015 17.4244C39.8896 17.4118 39.7723 17.4118 39.5377 17.4118C39.0379 17.4118 38.788 17.4118 38.5808 17.3673C37.8109 17.2023 37.2095 16.6009 37.0444 15.831C37 15.6237 37 15.3738 37 14.874V13.4118C37 11.5261 37 10.5833 37.5858 9.99755C38.1716 9.41177 39.1144 9.41177 41 9.41177Z" stroke="white" stroke-linecap="round"/>
</svg>
