<svg width="24" height="24" viewBox="0 0 24 24" fill="none" xmlns="http://www.w3.org/2000/svg">
<path d="M9 4H15C17.8284 4 19.2426 4 20.1213 4.87868C21 5.75736 21 7.17157 21 10V13.2167C21 13.9447 21 14.3087 20.9371 14.6109C20.6939 15.7802 19.7802 16.6939 18.6109 16.9371C18.3087 17 17.9447 17 17.2167 17C16.8684 17 16.6943 17 16.5283 17.0185C15.8975 17.089 15.3052 17.3577 14.8368 17.7861C14.7135 17.8988 14.5989 18.0299 14.3695 18.292L14.1936 18.4931L14.1936 18.4931C13.5614 19.2156 13.2453 19.5768 12.892 19.7529C12.3303 20.0328 11.6697 20.0328 11.108 19.7529C10.7547 19.5768 10.4386 19.2156 9.80643 18.4931L9.63047 18.292L9.63046 18.292C9.40112 18.0299 9.28645 17.8988 9.16321 17.7861C8.69477 17.3577 8.10252 17.089 7.47167 17.0185C7.3057 17 7.13156 17 6.78327 17C6.05531 17 5.69133 17 5.38912 16.9371C4.21976 16.6939 3.30606 15.7802 3.06285 14.6109C3 14.3087 3 13.9447 3 13.2167V10C3 7.17157 3 5.75736 3.87868 4.87868C4.75736 4 6.17157 4 9 4Z" stroke="white" stroke-width="2" stroke-linecap="round"/>
<path d="M12.1667 7.66679V13.6668M12.1667 7.66679H13.5467C14.1299 7.66679 14.4216 7.66679 14.6115 7.83686C14.6297 7.85317 14.647 7.87046 14.6633 7.88867C14.8333 8.07855 14.8333 8.37018 14.8333 8.95346V9.00012M12.1667 7.66679H10.7867C10.2034 7.66679 9.91176 7.66679 9.72188 7.83686C9.70367 7.85317 9.68638 7.87046 9.67007 7.88867C9.5 8.07855 9.5 8.37018 9.5 8.95346V9.00012M12.1667 13.6668H10.8333M12.1667 13.6668H13.5" stroke="white" stroke-linecap="round"/>
</svg>
