<svg width="18" height="18" viewBox="0 0 18 18" fill="none" xmlns="http://www.w3.org/2000/svg">
<g clip-path="url(#clip0_489_201075)">
<path d="M13.8641 14.5001C10.5277 17.8365 0.340241 7.64909 3.67669 4.31265L5.08378 2.90551C5.54708 2.4422 6.32332 2.54217 6.65411 3.10775L7.56152 4.65929C7.75594 4.99171 7.7422 5.40623 7.52619 5.72504L7.00515 6.49408C6.7362 6.89104 6.78687 7.42304 7.12592 7.76209L8.7703 9.40649L10.4148 11.0508C10.7539 11.3898 11.2858 11.4405 11.6828 11.1715L12.4516 10.6506C12.7704 10.4346 13.1849 10.4209 13.5173 10.6153L15.0689 11.5227C15.6345 11.8534 15.7345 12.6297 15.2712 13.093L13.8641 14.5001Z" stroke="white" stroke-linecap="round" stroke-linejoin="round"/>
<path d="M15 3L11 7.00005M11 7.00005L14 7M11 7.00005L11 4" stroke="white" stroke-linecap="round" stroke-linejoin="round"/>
</g>
<defs>
<clipPath id="clip0_489_201075">
<rect width="18" height="18" fill="white"/>
</clipPath>
</defs>
</svg>
