<svg width="24" height="24" viewBox="0 0 24 24" fill="none" xmlns="http://www.w3.org/2000/svg">
<path d="M21 21H20.5C18.6144 21 17.6716 21 17.0858 20.4142C16.5 19.8284 16.5 18.8856 16.5 17V7C16.5 5.11438 16.5 4.17157 17.0858 3.58579C17.6716 3 18.6144 3 20.5 3H21M3 21H3.5C5.38562 21 6.32843 21 6.91421 20.4142C7.5 19.8284 7.5 18.8856 7.5 17L7.5 7C7.5 5.11438 7.5 4.17157 6.91421 3.58579C6.32843 3 5.38562 3 3.5 3H3" stroke="white" stroke-width="2" stroke-linecap="round"/>
<path d="M12 8V16" stroke="white" stroke-width="2" stroke-linecap="round"/>
</svg>
