<svg width="18" height="18" viewBox="0 0 18 18" fill="none" xmlns="http://www.w3.org/2000/svg">
<g clip-path="url(#clip0_489_202904)">
<g clip-path="url(#clip1_489_202904)">
<path d="M4 5.5L4 7C4 7.94281 4 8.41421 4.29289 8.70711C4.58579 9 5.05719 9 6 9L9 9M14 5.5L14 7C14 7.94281 14 8.41421 13.7071 8.70711C13.4142 9 12.9428 9 12 9L9 9M9 9L9 12.5" stroke="white"/>
<path d="M7.5 14C7.5 13.1716 8.17157 12.5 9 12.5C9.82843 12.5 10.5 13.1716 10.5 14C10.5 14.8284 9.82843 15.5 9 15.5C8.17157 15.5 7.5 14.8284 7.5 14Z" stroke="white"/>
<path d="M12.5 4C12.5 3.17157 13.1716 2.5 14 2.5C14.8284 2.5 15.5 3.17157 15.5 4C15.5 4.82843 14.8284 5.5 14 5.5C13.1716 5.5 12.5 4.82843 12.5 4Z" stroke="white"/>
<path d="M2.5 4C2.5 3.17157 3.17157 2.5 4 2.5C4.82843 2.5 5.5 3.17157 5.5 4C5.5 4.82843 4.82843 5.5 4 5.5C3.17157 5.5 2.5 4.82843 2.5 4Z" stroke="white"/>
</g>
</g>
<defs>
<clipPath id="clip0_489_202904">
<rect width="18" height="18" fill="white"/>
</clipPath>
<clipPath id="clip1_489_202904">
<rect width="18" height="18" fill="white" transform="translate(18 18) rotate(-180)"/>
</clipPath>
</defs>
</svg>
