<svg width="54" height="28" viewBox="0 0 54 28" fill="none" xmlns="http://www.w3.org/2000/svg">
<rect x="0.5" y="0.5" width="53" height="27" rx="4.5" stroke="#7B61FF" stroke-dasharray="10 5"/>
<path d="M17.4863 16.8021L19.6469 12.961C21.1396 10.3074 21.8859 8.98062 21.3067 7.99031C20.7275 7 19.2052 7 16.1606 7L11.8394 7C8.79476 7 7.27245 7 6.69327 7.99031C6.11409 8.98062 6.86042 10.3074 8.35309 12.961L10.5137 16.8021C12.0581 19.5477 12.8303 20.9205 14 20.9205C15.1697 20.9205 15.9419 19.5477 17.4863 16.8021Z" stroke="white" stroke-width="2"/>
<path d="M44.7558 17.2811L47.3867 12.4577C48.1062 11.1386 48.466 10.4791 48.1754 9.98954C47.8848 9.5 47.1335 9.5 45.6309 9.5L40.3691 9.5C38.8665 9.5 38.1152 9.5 37.8246 9.98954C37.534 10.4791 37.8938 11.1386 38.6133 12.4577L41.2442 17.2811L41.2442 17.2811C42.019 18.7015 42.4064 19.4117 43 19.4117C43.5936 19.4117 43.981 18.7015 44.7558 17.2811Z" stroke="white"/>
</svg>
