<svg width="54" height="28" viewBox="0 0 54 28" fill="none" xmlns="http://www.w3.org/2000/svg">
<rect x="0.5" y="0.5" width="53" height="27" rx="4.5" stroke="#7B61FF" stroke-dasharray="10 5"/>
<g clip-path="url(#clip0_1_1827)">
<rect x="5" y="5" width="18" height="7" rx="2" stroke="white" stroke-width="2" stroke-linecap="round" stroke-linejoin="round"/>
<path d="M16 19.5C16 18.0955 16 17.3933 16.3371 16.8889C16.483 16.6705 16.6705 16.483 16.8889 16.3371C17.3933 16 18.0955 16 19.5 16C20.9045 16 21.6067 16 22.1111 16.3371C22.3295 16.483 22.517 16.6705 22.6629 16.8889C23 17.3933 23 18.0955 23 19.5C23 20.9045 23 21.6067 22.6629 22.1111C22.517 22.3295 22.3295 22.517 22.1111 22.6629C21.6067 23 20.9045 23 19.5 23C18.0955 23 17.3933 23 16.8889 22.6629C16.6705 22.517 16.483 22.3295 16.3371 22.1111C16 21.6067 16 20.9045 16 19.5Z" stroke="white" stroke-width="2" stroke-linecap="round" stroke-linejoin="round"/>
<path d="M5 19.5C5 18.0955 5 17.3933 5.33706 16.8889C5.48298 16.6705 5.67048 16.483 5.88886 16.3371C6.39331 16 7.09554 16 8.5 16C9.90446 16 10.6067 16 11.1111 16.3371C11.3295 16.483 11.517 16.6705 11.6629 16.8889C12 17.3933 12 18.0955 12 19.5C12 20.9045 12 21.6067 11.6629 22.1111C11.517 22.3295 11.3295 22.517 11.1111 22.6629C10.6067 23 9.90446 23 8.5 23C7.09554 23 6.39331 23 5.88886 22.6629C5.67048 22.517 5.48298 22.3295 5.33706 22.1111C5 21.6067 5 20.9045 5 19.5Z" stroke="white" stroke-width="2" stroke-linecap="round" stroke-linejoin="round"/>
</g>
<g clip-path="url(#clip1_1_1827)">
<path d="M36.5 17C36.5 16.0572 36.5 15.5858 36.7929 15.2929C37.0858 15 37.5572 15 38.5 15H40C40.9428 15 41.4142 15 41.7071 15.2929C42 15.5858 42 16.0572 42 17V18.5C42 19.4428 42 19.9142 41.7071 20.2071C41.4142 20.5 40.9428 20.5 40 20.5H38.5C37.5572 20.5 37.0858 20.5 36.7929 20.2071C36.5 19.9142 36.5 19.4428 36.5 18.5V17Z" stroke="white" stroke-linecap="round" stroke-linejoin="round"/>
<path d="M36.5 9.5C36.5 8.55719 36.5 8.08579 36.7929 7.79289C37.0858 7.5 37.5572 7.5 38.5 7.5H47.5C48.4428 7.5 48.9142 7.5 49.2071 7.79289C49.5 8.08579 49.5 8.55719 49.5 9.5V10.5C49.5 11.4428 49.5 11.9142 49.2071 12.2071C48.9142 12.5 48.4428 12.5 47.5 12.5H38.5C37.5572 12.5 37.0858 12.5 36.7929 12.2071C36.5 11.9142 36.5 11.4428 36.5 10.5V9.5Z" stroke="white" stroke-linecap="round" stroke-linejoin="round"/>
<path d="M44 17C44 16.0572 44 15.5858 44.2929 15.2929C44.5858 15 45.0572 15 46 15H47.5C48.4428 15 48.9142 15 49.2071 15.2929C49.5 15.5858 49.5 16.0572 49.5 17V18.5C49.5 19.4428 49.5 19.9142 49.2071 20.2071C48.9142 20.5 48.4428 20.5 47.5 20.5H46C45.0572 20.5 44.5858 20.5 44.2929 20.2071C44 19.9142 44 19.4428 44 18.5V17Z" stroke="white" stroke-linecap="round" stroke-linejoin="round"/>
</g>
<defs>
<clipPath id="clip0_1_1827">
<rect width="24" height="24" fill="white" transform="translate(2 2)"/>
</clipPath>
<clipPath id="clip1_1_1827">
<rect width="18" height="18" fill="white" transform="translate(34 5)"/>
</clipPath>
</defs>
</svg>
