<svg width="24" height="24" viewBox="0 0 24 24" fill="none" xmlns="http://www.w3.org/2000/svg">
<path fill-rule="evenodd" clip-rule="evenodd" d="M20 6V4L4 4L4 6L20 6ZM22 4C22 2.89543 21.1046 2 20 2H4C2.89543 2 2 2.89543 2 4V6C2 7.10457 2.89543 8 4 8L20 8C21.1046 8 22 7.10457 22 6V4ZM20 20V18H4L4 20L20 20ZM22 18C22 16.8954 21.1046 16 20 16L4 16C2.89543 16 2 16.8954 2 18V20C2 21.1046 2.89543 22 4 22L20 22C21.1046 22 22 21.1046 22 20V18ZM14 11V13H10V11H14ZM14 9C15.1046 9 16 9.89543 16 11V13C16 14.1046 15.1046 15 14 15H10C8.89543 15 8 14.1046 8 13V11C8 9.89543 8.89543 9 10 9L14 9Z" fill="#333333"/>
</svg>
