<svg width="24" height="24" viewBox="0 0 24 24" fill="none" xmlns="http://www.w3.org/2000/svg">
<path fill-rule="evenodd" clip-rule="evenodd" d="M5 19L5 5H19V19L5 19ZM5 21C3.89543 21 3 20.1046 3 19L3 5C3 3.89543 3.89543 3 5 3H19C20.1046 3 21 3.89543 21 5V19C21 20.1046 20.1046 21 19 21L5 21ZM11 9.5C11 8.94772 11.4477 8.5 12 8.5C12.5523 8.5 13 8.94772 13 9.5L13 12.0858L13.2929 11.7929C13.6834 11.4024 14.3166 11.4024 14.7071 11.7929C15.0976 12.1834 15.0976 12.8166 14.7071 13.2071L12.7071 15.2071C12.5196 15.3946 12.2652 15.5 12 15.5C11.7348 15.5 11.4804 15.3946 11.2929 15.2071L9.29289 13.2071C8.90237 12.8166 8.90237 12.1834 9.29289 11.7929C9.68342 11.4024 10.3166 11.4024 10.7071 11.7929L11 12.0858L11 9.5Z" fill="#333333"/>
</svg>
