<svg width="24" height="24" viewBox="0 0 24 24" fill="none" xmlns="http://www.w3.org/2000/svg">
<path fill-rule="evenodd" clip-rule="evenodd" d="M5 5H19V19H5L5 5ZM3 5C3 3.89543 3.89543 3 5 3H19C20.1046 3 21 3.89543 21 5V19C21 20.1046 20.1046 21 19 21H5C3.89543 21 3 20.1046 3 19V5ZM17.2071 12.2071C16.8166 12.5976 16.1834 12.5976 15.7929 12.2071L12 8.41423L8.20712 12.2071C7.81659 12.5976 7.18343 12.5976 6.79291 12.2071C6.40238 11.8166 6.40238 11.1834 6.79291 10.7929L11.2929 6.29291C11.4805 6.10537 11.7348 6.00002 12.0001 6.00002C12.2653 6.00002 12.5196 6.10537 12.7072 6.29291L17.2071 10.7929C17.5976 11.1834 17.5976 11.8166 17.2071 12.2071ZM16.9498 16.1871C16.5592 16.5776 15.9261 16.5776 15.5356 16.1871L13 13.6516V17.3513C13 17.9036 12.5523 18.3513 12 18.3513C11.4477 18.3513 11 17.9036 11 17.3513V13.6516L8.46449 16.1871C8.07396 16.5776 7.4408 16.5776 7.05027 16.1871C6.65975 15.7966 6.65975 15.1634 7.05027 14.7729L11.2929 10.5303C11.6834 10.1397 12.3166 10.1397 12.7071 10.5303L16.9498 14.7729C17.3403 15.1634 17.3403 15.7966 16.9498 16.1871Z" fill="#333333"/>
</svg>
