<svg width="24" height="24" viewBox="0 0 24 24" fill="none" xmlns="http://www.w3.org/2000/svg">
<path fill-rule="evenodd" clip-rule="evenodd" d="M20 12C20 16.4183 16.4183 20 12 20C7.58172 20 4 16.4183 4 12C4 7.58172 7.58172 4 12 4C16.4183 4 20 7.58172 20 12ZM22 12C22 17.5228 17.5228 22 12 22C6.47715 22 2 17.5228 2 12C2 6.47715 6.47715 2 12 2C17.5228 2 22 6.47715 22 12ZM8.09875 8.31547C8.65103 8.31547 9.09875 8.76319 9.09874 9.31547L9.09873 13.2652L10.1091 12.2548L10.1091 6.66904C10.1091 6.11676 10.5569 5.66904 11.1091 5.66904C11.6614 5.66904 12.1091 6.11676 12.1091 6.66904L12.1091 10.2548L14.7252 7.63872C15.1158 7.2482 15.7489 7.2482 16.1395 7.63872C16.53 8.02925 16.53 8.66241 16.1395 9.05294L13.5234 11.669L17.1091 11.669C17.6614 11.669 18.1091 12.1168 18.1091 12.669C18.1091 13.2213 17.6614 13.669 17.1091 13.669L11.5234 13.669L10.513 14.6794L14.4627 14.6794C15.015 14.6794 15.4627 15.1272 15.4627 15.6794C15.4627 16.2317 15.015 16.6794 14.4627 16.6794L8.16814 16.6794C7.8888 16.6994 7.60266 16.6027 7.38909 16.3891C7.17571 16.1757 7.07892 15.8899 7.09872 15.6108L7.09874 9.31547C7.09874 8.76318 7.54646 8.31547 8.09875 8.31547Z" fill="#333333"/>
</svg>
