<svg width="24" height="24" viewBox="0 0 24 24" fill="none" xmlns="http://www.w3.org/2000/svg">
<path fill-rule="evenodd" clip-rule="evenodd" d="M9 12C9 12.5523 9.44771 13 10 13L12.5858 13L12.2929 13.2929C11.9024 13.6834 11.9024 14.3166 12.2929 14.7071C12.6834 15.0976 13.3166 15.0976 13.7071 14.7071L15.7071 12.7071C15.8946 12.5196 16 12.2652 16 12C16 11.7348 15.8946 11.4804 15.7071 11.2929L13.7071 9.2929C13.3166 8.90238 12.6834 8.90238 12.2929 9.2929C11.9024 9.68343 11.9024 10.3166 12.2929 10.7071L12.5858 11L10 11C9.44772 11 9 11.4477 9 12Z" fill="#333333"/>
</svg>
