<svg width="24" height="24" viewBox="0 0 24 24" fill="none" xmlns="http://www.w3.org/2000/svg">
<path fill-rule="evenodd" clip-rule="evenodd" d="M20 12C20 16.4183 16.4183 20 12 20C7.58172 20 4 16.4183 4 12C4 7.58172 7.58172 4 12 4C16.4183 4 20 7.58172 20 12ZM22 12C22 17.5228 17.5228 22 12 22C6.47715 22 2 17.5228 2 12C2 6.47715 6.47715 2 12 2C17.5228 2 22 6.47715 22 12ZM8.09617 8.81802C8.64845 8.81802 9.09617 9.26574 9.09616 9.81802L9.09614 15.182L14.4601 15.182C15.0124 15.182 15.4601 15.6297 15.4601 16.182C15.4601 16.7343 15.0124 17.182 14.4601 17.182L8.09614 17.182C7.83092 17.182 7.57657 17.0766 7.38903 16.8891C7.20149 16.7015 7.09614 16.4472 7.09614 16.182L7.09616 9.81802C7.09617 9.26573 7.54388 8.81802 8.09617 8.81802ZM11.0924 6.18571C11.6447 6.18571 12.0924 6.63343 12.0924 7.18571V10.7715L14.7085 8.15539C15.0991 7.76487 15.7322 7.76487 16.1227 8.15539C16.5133 8.54591 16.5133 9.17908 16.1227 9.5696L13.5066 12.1857L17.0924 12.1857C17.6447 12.1857 18.0924 12.6334 18.0924 13.1857C18.0924 13.738 17.6447 14.1857 17.0924 14.1857L11.0924 14.1857C10.5401 14.1857 10.0924 13.738 10.0924 13.1857L10.0924 7.18571C10.0924 6.63343 10.5401 6.18571 11.0924 6.18571Z" fill="#333333"/>
</svg>
