<svg width="24" height="24" viewBox="0 0 24 24" fill="none" xmlns="http://www.w3.org/2000/svg">
<path fill-rule="evenodd" clip-rule="evenodd" d="M6.34311 17.6569C9.46731 20.781 14.5326 20.781 17.6568 17.6569C20.781 14.5327 20.781 9.46734 17.6568 6.34315C14.5326 3.21895 9.46731 3.21895 6.34311 6.34315C3.21892 9.46734 3.21892 14.5327 6.34311 17.6569ZM4.9289 19.0711C8.83414 22.9763 15.1658 22.9763 19.071 19.0711C22.9763 15.1658 22.9763 8.83417 19.071 4.92893C15.1658 1.02369 8.83414 1.02369 4.9289 4.92893C1.02366 8.83417 1.02366 15.1658 4.9289 19.0711ZM8.63599 8C8.63599 8.55229 9.08371 9 9.63599 9L14.9999 8.99998L14.9999 14.364C14.9999 14.9162 15.4477 15.364 16 15.364C16.5522 15.364 16.9999 14.9162 16.9999 14.364L16.9999 7.99997C16.9999 7.73475 16.8946 7.4804 16.707 7.29287C16.5195 7.10533 16.2651 6.99997 15.9999 6.99998L9.63598 7C9.0837 7 8.63598 7.44772 8.63599 8ZM5.45401 11.182C5.45401 11.7343 5.90173 12.182 6.45401 12.182L11.818 12.182L11.818 17.5459C11.818 18.0982 12.2657 18.5459 12.818 18.5459C13.3703 18.5459 13.818 18.0982 13.818 17.5459L13.8179 11.1819C13.8179 10.9167 13.7126 10.6624 13.5251 10.4748C13.3375 10.2873 13.0832 10.182 12.8179 10.182L6.45401 10.182C5.90172 10.182 5.45401 10.6297 5.45401 11.182Z" fill="#333333"/>
</svg>
