<svg width="24" height="24" viewBox="0 0 24 24" fill="none" xmlns="http://www.w3.org/2000/svg">
<path fill-rule="evenodd" clip-rule="evenodd" d="M11.7071 8.20711C12.0976 7.81659 12.0976 7.18342 11.7071 6.7929C11.3166 6.40237 10.6834 6.40237 10.2929 6.79289L5.7929 11.2929C5.60536 11.4804 5.5 11.7347 5.5 12C5.5 12.2652 5.60536 12.5195 5.79289 12.7071L10.2929 17.2071C10.6834 17.5976 11.3166 17.5976 11.7071 17.2071C12.0976 16.8166 12.0976 16.1834 11.7071 15.7929L7.91421 12L11.7071 8.20711ZM16.7071 8.20711C17.0976 7.81659 17.0976 7.18342 16.7071 6.7929C16.3166 6.40237 15.6834 6.40237 15.2929 6.79289L10.7929 11.2929C10.6054 11.4804 10.5 11.7347 10.5 12C10.5 12.2652 10.6054 12.5195 10.7929 12.7071L15.2929 17.2071C15.6834 17.5976 16.3166 17.5976 16.7071 17.2071C17.0976 16.8166 17.0976 16.1834 16.7071 15.7929L12.9142 12L16.7071 8.20711Z" fill="#333333"/>
</svg>
