<svg width="24" height="24" viewBox="0 0 24 24" fill="none" xmlns="http://www.w3.org/2000/svg">
<path fill-rule="evenodd" clip-rule="evenodd" d="M4 12C4 7.58172 7.58172 4 12 4C16.4183 4 20 7.58172 20 12C20 12.5523 20.4477 13 21 13C21.5523 13 22 12.5523 22 12C22 6.47715 17.5228 2 12 2C6.47715 2 2 6.47715 2 12C2 17.5228 6.47715 22 12 22C14.7257 22 17.1972 20.9086 19 19.1414V19.5C19 20.0523 19.4477 20.5 20 20.5C20.5523 20.5 21 20.0523 21 19.5V16.5C21 15.9477 20.5523 15.5 20 15.5H17C16.4477 15.5 16 15.9477 16 16.5C16 17.0523 16.4477 17.5 17 17.5H17.8095C16.3503 19.0409 14.2875 20 12 20C7.58172 20 4 16.4183 4 12Z" fill="#333333"/>
</svg>
