<svg width="24" height="24" viewBox="0 0 24 24" fill="none" xmlns="http://www.w3.org/2000/svg">
<path fill-rule="evenodd" clip-rule="evenodd" d="M5 5H19V19H5L5 5ZM3 5C3 3.89543 3.89543 3 5 3H19C20.1046 3 21 3.89543 21 5V19C21 20.1046 20.1046 21 19 21H5C3.89543 21 3 20.1046 3 19V5ZM12.5858 13.9999H9C8.44772 13.9999 8 14.4477 8 14.9999C8 15.5522 8.44772 15.9999 9 15.9999H15C15.5523 15.9999 16 15.5522 16 14.9999V8.99994C16 8.44765 15.5523 7.99994 15 7.99994C14.4477 7.99994 14 8.44765 14 8.99994V12.5857L9.70711 8.29283C9.31658 7.90231 8.68342 7.90231 8.29289 8.29283C7.90237 8.68336 7.90237 9.31652 8.29289 9.70705L12.5858 13.9999Z" fill="#333333"/>
</svg>
