<svg width="24" height="24" viewBox="0 0 24 24" fill="none" xmlns="http://www.w3.org/2000/svg">
<path fill-rule="evenodd" clip-rule="evenodd" d="M20.5 12C20.5 7.58172 16.9183 4 12.5 4C8.08172 4 4.5 7.58172 4.5 12C4.5 16.4183 8.08172 20 12.5 20C16.9183 20 20.5 16.4183 20.5 12ZM22.5 12C22.5 6.47715 18.0228 2 12.5 2C6.97715 2 2.5 6.47715 2.5 12C2.5 17.5228 6.97715 22 12.5 22C18.0228 22 22.5 17.5228 22.5 12ZM10 13C9.44772 13 9 12.5523 9 12C9 11.4477 9.44772 11 10 11L12.5858 11L12.2929 10.7071C11.9024 10.3166 11.9024 9.68343 12.2929 9.2929C12.6834 8.90238 13.3166 8.90238 13.7071 9.2929L15.7071 11.2929C15.8946 11.4804 16 11.7348 16 12C16 12.2652 15.8946 12.5196 15.7071 12.7071L13.7071 14.7071C13.3166 15.0976 12.6834 15.0976 12.2929 14.7071C11.9024 14.3166 11.9024 13.6834 12.2929 13.2929L12.5858 13L10 13Z" fill="#333333"/>
</svg>
