<svg width="24" height="24" viewBox="0 0 24 24" fill="none" xmlns="http://www.w3.org/2000/svg">
<path fill-rule="evenodd" clip-rule="evenodd" d="M20 12C20 16.4183 16.4183 20 12 20C7.58172 20 4 16.4183 4 12C4 7.58172 7.58172 4 12 4C16.4183 4 20 7.58172 20 12ZM22 12C22 17.5228 17.5228 22 12 22C6.47715 22 2 17.5228 2 12C2 6.47715 6.47715 2 12 2C17.5228 2 22 6.47715 22 12ZM10.5 11.75C9.94772 11.75 9.5 11.3023 9.5 10.75V10.1642L8.20711 11.4571C7.81658 11.8476 7.18342 11.8476 6.79289 11.4571C6.40237 11.0666 6.40237 10.4334 6.79289 10.0429L8.08579 8.75H7.5C6.94772 8.75 6.5 8.30228 6.5 7.75C6.5 7.19772 6.94772 6.75 7.5 6.75H10.5C11.0523 6.75 11.5 7.19772 11.5 7.75V10.75C11.5 11.3023 11.0523 11.75 10.5 11.75ZM16.5 17.25C15.9477 17.25 15.5 16.8023 15.5 16.25V15.6642L14.2071 16.9571C13.8166 17.3476 13.1834 17.3476 12.7929 16.9571C12.4024 16.5666 12.4024 15.9334 12.7929 15.5429L14.0858 14.25H13.5C12.9477 14.25 12.5 13.8023 12.5 13.25C12.5 12.6977 12.9477 12.25 13.5 12.25H16.5C17.0523 12.25 17.5 12.6977 17.5 13.25V16.25C17.5 16.8023 17.0523 17.25 16.5 17.25ZM15.5 10.75C15.5 11.3023 15.9477 11.75 16.5 11.75C17.0523 11.75 17.5 11.3023 17.5 10.75V7.75C17.5 7.19772 17.0523 6.75 16.5 6.75H13.5C12.9477 6.75 12.5 7.19772 12.5 7.75C12.5 8.30228 12.9477 8.75 13.5 8.75H14.0858L12.7929 10.0429C12.4024 10.4334 12.4024 11.0666 12.7929 11.4571C13.1834 11.8476 13.8166 11.8476 14.2071 11.4571L15.5 10.1642V10.75ZM10.5 17.25C9.94772 17.25 9.5 16.8023 9.5 16.25V15.6642L8.20711 16.9571C7.81658 17.3476 7.18342 17.3476 6.79289 16.9571C6.40237 16.5666 6.40237 15.9334 6.79289 15.5429L8.08579 14.25H7.5C6.94772 14.25 6.5 13.8023 6.5 13.25C6.5 12.6977 6.94772 12.25 7.5 12.25H10.5C11.0523 12.25 11.5 12.6977 11.5 13.25V16.25C11.5 16.8023 11.0523 17.25 10.5 17.25Z" fill="#333333"/>
</svg>
