<svg width="24" height="24" viewBox="0 0 24 24" fill="none" xmlns="http://www.w3.org/2000/svg">
<path fill-rule="evenodd" clip-rule="evenodd" d="M20 12C20 16.4183 16.4183 20 12 20C7.58172 20 4 16.4183 4 12C4 7.58172 7.58172 4 12 4C16.4183 4 20 7.58172 20 12ZM22 12C22 17.5228 17.5228 22 12 22C6.47715 22 2 17.5228 2 12C2 6.47715 6.47715 2 12 2C17.5228 2 22 6.47715 22 12ZM9.85749 7.4855C9.57334 7.01192 8.95908 6.85836 8.4855 7.14251C8.01192 7.42666 7.85836 8.04092 8.14251 8.5145L11.1425 13.5145C11.3738 13.8999 11.8338 14.0837 12.2669 13.9637C12.7001 13.8437 13 13.4495 13 13V6C13 5.44772 12.5523 5 12 5C11.4477 5 11 5.44772 11 6V9.38968L9.85749 7.4855Z" fill="#333333"/>
</svg>
