<svg width="24" height="24" viewBox="0 0 24 24" fill="none" xmlns="http://www.w3.org/2000/svg">
<path fill-rule="evenodd" clip-rule="evenodd" d="M5 5H19V19H5L5 5ZM3 5C3 3.89543 3.89543 3 5 3H19C20.1046 3 21 3.89543 21 5V19C21 20.1046 20.1046 21 19 21H5C3.89543 21 3 20.1046 3 19V5ZM14.5097 10.1284C14.9911 9.85766 15.6008 10.0284 15.8716 10.5097C16.1423 10.9911 15.9716 11.6008 15.4903 11.8716L11.4903 14.1216C11.1806 14.2957 10.8018 14.2926 10.4951 14.1132C10.1885 13.9339 9.99999 13.6053 9.99999 13.25V8.37501C9.99999 7.82272 10.4477 7.37501 11 7.37501C11.5523 7.37501 12 7.82272 12 8.37501V11.5402L14.5097 10.1284Z" fill="#333333"/>
</svg>
