<svg width="24" height="24" viewBox="0 0 24 24" fill="none" xmlns="http://www.w3.org/2000/svg">
<path fill-rule="evenodd" clip-rule="evenodd" d="M22.2104 6.20688C22.6008 5.81624 22.6006 5.18307 22.21 4.79267L19.2069 1.79145C18.8162 1.40105 18.1831 1.40125 17.7927 1.7919C17.4023 2.18254 17.4025 2.81571 17.7931 3.20611L20.7962 6.20733C21.1869 6.59773 21.82 6.59753 22.2104 6.20688ZM6.21 3.20611C6.60065 2.81571 6.60085 2.18254 6.21044 1.7919C5.82004 1.40125 5.18688 1.40105 4.79623 1.79145L1.79312 4.79267C1.40247 5.18307 1.40227 5.81624 1.79267 6.20688C2.18307 6.59753 2.81624 6.59773 3.20688 6.20733L6.21 3.20611ZM20 12C20 16.4183 16.4183 20 12 20C7.58172 20 4 16.4183 4 12C4 7.58171 7.58172 3.99999 12 3.99999C16.4183 3.99999 20 7.58171 20 12ZM22 12C22 17.5228 17.5228 22 12 22C6.47715 22 2 17.5228 2 12C2 6.47714 6.47715 1.99999 12 1.99999C17.5228 1.99999 22 6.47714 22 12ZM15.487 11.8377C16.0392 11.8377 16.487 12.2854 16.487 12.8377C16.487 13.39 16.0392 13.8377 15.487 13.8377H11.487C10.9347 13.8377 10.487 13.39 10.487 12.8377V7.83768C10.487 7.2854 10.9347 6.83768 11.487 6.83768C12.0392 6.83768 12.487 7.2854 12.487 7.83768V11.8377H15.487Z" fill="#333333"/>
</svg>
