<svg width="24" height="24" viewBox="0 0 24 24" fill="none" xmlns="http://www.w3.org/2000/svg">
<path fill-rule="evenodd" clip-rule="evenodd" d="M6 20V4L12 4L15.0387 4L18 7.70156L18 12V20H6ZM16.6005 2.75061C16.2209 2.27618 15.6463 2 15.0388 2L12 2L6 2C4.89543 2 4 2.89543 4 4V20C4 21.1046 4.89543 22 6 22H18C19.1046 22 20 21.1046 20 20V12V7.70156C20 7.24742 19.8454 6.80679 19.5617 6.45217L16.6005 2.75061ZM12.5 10.5C13.0523 10.5 13.5 10.9477 13.5 11.5V14.5H14C14.5523 14.5 15 14.9477 15 15.5C15 16.0523 14.5523 16.5 14 16.5H12.5H11C10.4477 16.5 10 16.0523 10 15.5C10 14.9477 10.4477 14.5 11 14.5H11.5V12.5H11C10.4477 12.5 10 12.0523 10 11.5C10 10.9477 10.4477 10.5 11 10.5H12.5ZM12.5 10C13.0523 10 13.5 9.55228 13.5 9C13.5 8.44772 13.0523 8 12.5 8C11.9477 8 11.5 8.44772 11.5 9C11.5 9.55228 11.9477 10 12.5 10Z" fill="#333333"/>
</svg>
