<svg width="24" height="24" viewBox="0 0 24 24" fill="none" xmlns="http://www.w3.org/2000/svg">
<path fill-rule="evenodd" clip-rule="evenodd" d="M21 2C21 1.44772 20.5523 1 20 1C19.4477 1 19 1.44772 19 2V3H18C17.4477 3 17 3.44772 17 4C17 4.55228 17.4477 5 18 5H19V6C19 6.55228 19.4477 7 20 7C20.5523 7 21 6.55228 21 6V5H22C22.5523 5 23 4.55228 23 4C23 3.44772 22.5523 3 22 3H21V2ZM10.5812 6.64403C10.2335 6.39567 9.76646 6.39567 9.41876 6.64403L4.41876 10.2155C4.15597 10.4032 4 10.7062 4 11.0292V19C4 19.5522 4.44772 20 5 20H7V15C7 14.4477 7.44772 14 8 14H12C12.5523 14 13 14.4477 13 15V20H15C15.5523 20 16 19.5522 16 19V11.0292C16 10.7062 15.844 10.4032 15.5812 10.2155L10.5812 6.64403ZM11 20H9V16H11V20ZM8.25628 5.01656C9.29938 4.2715 10.7006 4.2715 11.7437 5.01656L16.7437 8.58799C17.5321 9.15113 18 10.0603 18 11.0292V19C18 20.6568 16.6569 22 15 22H5C3.34315 22 2 20.6568 2 19V11.0292C2 10.0603 2.4679 9.15113 3.25629 8.58799L8.25628 5.01656Z" fill="#333333"/>
</svg>
