<svg width="24" height="24" viewBox="0 0 24 24" fill="none" xmlns="http://www.w3.org/2000/svg">
<path fill-rule="evenodd" clip-rule="evenodd" d="M11.4188 5.64409C11.7665 5.39574 12.2335 5.39574 12.5812 5.64409L17.5812 9.21552C17.844 9.40323 18 9.7063 18 10.0293V18C18 18.5523 17.5523 19 17 19H7C6.44772 19 6 18.5523 6 18V10.0293C6 9.7063 6.15597 9.40323 6.41876 9.21552L11.4188 5.64409ZM13.7437 4.01662C12.7006 3.27156 11.2994 3.27156 10.2563 4.01662L5.25629 7.58805C4.4679 8.15119 4 9.0604 4 10.0293V18C4 19.6569 5.34315 21 7 21H17C18.6569 21 20 19.6569 20 18V10.0293C20 9.0604 19.5321 8.15119 18.7437 7.58805L13.7437 4.01662ZM10.7071 11.2929C10.3166 10.9024 9.68342 10.9024 9.29289 11.2929C8.90237 11.6834 8.90237 12.3166 9.29289 12.7071L10.5858 14L9.29289 15.2929C8.90237 15.6834 8.90237 16.3166 9.29289 16.7071C9.68342 17.0976 10.3166 17.0976 10.7071 16.7071L12 15.4142L13.2929 16.7071C13.6834 17.0976 14.3166 17.0976 14.7071 16.7071C15.0976 16.3166 15.0976 15.6834 14.7071 15.2929L13.4142 14L14.7071 12.7071C15.0976 12.3166 15.0976 11.6834 14.7071 11.2929C14.3166 10.9024 13.6834 10.9024 13.2929 11.2929L12 12.5858L10.7071 11.2929Z" fill="#333333"/>
</svg>
