<svg width="24" height="24" viewBox="0 0 24 24" fill="none" xmlns="http://www.w3.org/2000/svg">
<path fill-rule="evenodd" clip-rule="evenodd" d="M4.48625 12.0425L4.43975 12L4.48625 11.9575C4.9803 11.5067 5.68006 10.9069 6.50339 10.3093C8.19853 9.07874 10.2257 8 12 8C13.7743 8 15.8015 9.07874 17.4966 10.3093C18.3199 10.9069 19.0197 11.5067 19.5138 11.9575L19.5602 12L19.5138 12.0425C19.0197 12.4933 18.3199 13.0931 17.4966 13.6907C15.8015 14.9213 13.7743 16 12 16C10.2257 16 8.19853 14.9213 6.50339 13.6907C5.68006 13.0931 4.9803 12.4933 4.48625 12.0425ZM21.7228 11.3089C21.723 11.3091 21.7231 11.3093 21 12C21.7231 12.6907 21.723 12.6909 21.7228 12.6911L21.7223 12.6916L21.7211 12.6929L21.7172 12.6969L21.7044 12.7102L21.6584 12.7573C21.6188 12.7975 21.5616 12.855 21.4882 12.9274C21.3414 13.0719 21.1291 13.2761 20.8618 13.52C20.3284 14.0067 19.5702 14.6569 18.6715 15.3093C16.9227 16.5787 14.4499 18 12 18C9.55012 18 7.0773 16.5787 5.32849 15.3093C4.42983 14.6569 3.67162 14.0067 3.1382 13.52C2.87093 13.2761 2.65864 13.0719 2.51182 12.9274C2.43837 12.855 2.38121 12.7975 2.34164 12.7573L2.2956 12.7102L2.28276 12.6969L2.27894 12.6929L2.27769 12.6916L2.27722 12.6911C2.27704 12.6909 2.27687 12.6907 3 12C2.27687 11.3093 2.27704 11.3091 2.27722 11.3089L2.27769 11.3084L2.27894 11.3071L2.28276 11.3031L2.2956 11.2898L2.34164 11.2427C2.38121 11.2025 2.43837 11.145 2.51182 11.0726C2.65864 10.9281 2.87093 10.7239 3.1382 10.48C3.67162 9.99333 4.42983 9.34308 5.32849 8.69074C7.0773 7.42126 9.55012 6 12 6C14.4499 6 16.9227 7.42126 18.6715 8.69074C19.5702 9.34308 20.3284 9.99333 20.8618 10.48C21.1291 10.7239 21.3414 10.9281 21.4882 11.0726C21.5616 11.145 21.6188 11.2025 21.6584 11.2427L21.7044 11.2898L21.7172 11.3031L21.7211 11.3071L21.7223 11.3084L21.7228 11.3089ZM3 12L2.27687 12.6907C1.90771 12.3042 1.90771 11.6958 2.27687 11.3093L3 12ZM21 12L21.7231 11.3093C22.0923 11.6958 22.0923 12.3042 21.7231 12.6907L21 12ZM8.5 12C8.5 13.933 10.067 15.5 12 15.5C13.933 15.5 15.5 13.933 15.5 12C15.5 10.067 13.933 8.5 12 8.5C10.067 8.5 8.5 10.067 8.5 12ZM10.5 12C10.5 11.1716 11.1716 10.5 12 10.5C12.8284 10.5 13.5 11.1716 13.5 12C13.5 12.8284 12.8284 13.5 12 13.5C11.1716 13.5 10.5 12.8284 10.5 12Z" fill="#333333"/>
</svg>
