<svg width="24" height="24" viewBox="0 0 24 24" fill="none" xmlns="http://www.w3.org/2000/svg">
<path fill-rule="evenodd" clip-rule="evenodd" d="M18.3639 7.46445C18.7545 7.07392 18.7545 6.44076 18.3639 6.05023C17.9734 5.65971 17.3402 5.65971 16.9497 6.05023L15.7095 7.29048L14.6562 6.23725C14.2657 5.84673 13.6326 5.84673 13.242 6.23725C12.8515 6.62778 12.8515 7.26094 13.242 7.65147L14.2953 8.70469L13.5857 9.41422L12.8786 10.1213L10.4651 12.5349C9.34995 12.0022 7.97392 12.1977 7.05031 13.1213C5.87875 14.2929 5.87872 16.1924 7.0503 17.364C8.22188 18.5355 10.1214 18.5355 11.2929 17.364C12.2166 16.4403 12.4121 15.0642 11.8793 13.9491L14.2928 11.5355L14.9999 12.2426C15.3905 12.6332 16.0236 12.6332 16.4142 12.2426C16.8047 11.8521 16.8047 11.219 16.4142 10.8284L15.7071 10.1213L16.4142 9.41422L17.1213 10.1213C17.5118 10.5119 18.145 10.5119 18.5355 10.1213C18.926 9.7308 18.926 9.09764 18.5355 8.70711L17.8284 8.00001L18.3639 7.46445ZM9.87339 14.5302C9.87514 14.532 9.87689 14.5338 9.87865 14.5355C9.88043 14.5373 9.88221 14.5391 9.884 14.5408C10.2692 14.9317 10.2675 15.561 9.87873 15.9497C9.4882 16.3403 8.85503 16.3403 8.46451 15.9498C8.074 15.5592 8.074 14.9261 8.46453 14.5355C8.85328 14.1468 9.48247 14.145 9.87339 14.5302Z" fill="#333333"/>
</svg>
