<svg width="24" height="24" viewBox="0 0 24 24" fill="none" xmlns="http://www.w3.org/2000/svg">
<path fill-rule="evenodd" clip-rule="evenodd" d="M19.141 3.61277C17.9269 2.49416 16.0371 2.56671 14.9123 3.77511L3.76805 15.7478C3.66945 15.8537 3.59501 15.9798 3.54988 16.1173L2.04988 20.6881C1.93177 21.048 2.02715 21.4438 2.29624 21.7103C2.56534 21.9769 2.96196 22.0686 3.32073 21.9471L7.82073 20.4235C7.98107 20.3692 8.12501 20.2751 8.23905 20.15L19.3988 7.90785C20.5108 6.68798 20.4285 4.79893 19.2145 3.68047L19.141 3.61277ZM16.3763 5.13777C16.7512 4.73497 17.3811 4.71079 17.7858 5.08366L17.8593 5.15136C18.264 5.52418 18.2914 6.15386 17.9208 6.56048L6.93487 18.6119L4.57384 19.4113L5.38168 16.9496L16.3763 5.13777ZM9.00004 20C8.44776 20 8.00004 20.4477 8.00004 21C8.00004 21.5523 8.44776 22 9.00004 22H21C21.5523 22 22 21.5523 22 21C22 20.4477 21.5523 20 21 20H9.00004Z" fill="#333333"/>
</svg>
