<svg width="24" height="24" viewBox="0 0 24 24" fill="none" xmlns="http://www.w3.org/2000/svg">
<path fill-rule="evenodd" clip-rule="evenodd" d="M6.00003 6C5.59557 6 5.23093 6.24364 5.07615 6.61732C4.92137 6.99099 5.00692 7.42111 5.29292 7.70711L11 13.4142V18H10C9.44774 18 9.00003 18.4477 9.00003 19C9.00003 19.5523 9.44774 20 10 20H12H14C14.5523 20 15 19.5523 15 19C15 18.4477 14.5523 18 14 18H13V13.4142L18.7071 7.70711C18.9931 7.42111 19.0787 6.99099 18.9239 6.61732C18.7691 6.24364 18.4045 6 18 6H6.00003ZM12 11.5858L8.41424 8H15.5858L12 11.5858Z" fill="#333333"/>
</svg>
