<svg width="24" height="24" viewBox="0 0 24 24" fill="none" xmlns="http://www.w3.org/2000/svg">
<path fill-rule="evenodd" clip-rule="evenodd" d="M12.5 17.5C15.8137 17.5 18.5 14.8137 18.5 11.5C18.5 8.1863 15.8137 5.5 12.5 5.5C9.18631 5.5 6.50002 8.18629 6.50002 11.5C6.50002 12.5584 6.57162 13.1243 6.75484 13.6146C7.0902 14.5119 7.30626 15.719 6.99502 16.9211C8.20419 16.4897 9.36016 16.7781 10.1587 17.15C10.7111 17.4073 11.2961 17.5 12.5 17.5ZM12.5 19.5C16.9183 19.5 20.5 15.9183 20.5 11.5C20.5 7.08172 16.9183 3.5 12.5 3.5C8.08173 3.5 4.50002 7.08172 4.50002 11.5C4.50002 12.6193 4.56906 13.479 4.8814 14.3147C5.16522 15.0741 5.26298 15.9721 4.95872 16.7236C4.76029 17.2137 4.53467 17.7897 4.32119 18.3422C4.00559 19.1589 4.82351 19.9504 5.63405 19.6193C6.32426 19.3373 7.05621 19.0417 7.62017 18.8223C8.17386 18.6069 8.77579 18.7122 9.31437 18.9631C10.2718 19.409 11.2148 19.5 12.5 19.5ZM12.5 10C13.0523 10 13.5 10.4477 13.5 11V14C14.0523 14 14.5 14.4477 14.5 15C14.5 15.5523 14.0523 16 13.5 16H12.5C11.9477 16 11.5 15.5523 11.5 15V12C10.9477 12 10.5 11.5523 10.5 11C10.5 10.4477 10.9477 10 11.5 10H12.5ZM12.5 9C13.0523 9 13.5 8.55228 13.5 8C13.5 7.44772 13.0523 7 12.5 7C11.9477 7 11.5 7.44772 11.5 8C11.5 8.55228 11.9477 9 12.5 9Z" fill="#333333"/>
</svg>
