<svg width="24" height="24" viewBox="0 0 24 24" fill="none" xmlns="http://www.w3.org/2000/svg">
<path fill-rule="evenodd" clip-rule="evenodd" d="M18 22.0013H6C3.79086 22.0013 2 20.2105 2 18.0013V5.99982C2 3.79068 3.79086 1.99982 6 1.99982H18C20.2091 1.99982 22 3.79068 22 5.99982V18.0013C22 20.2105 20.2091 22.0013 18 22.0013ZM4 18.0013C4 19.1059 4.89543 20.0013 6 20.0013H18C19.1046 20.0013 20 19.1059 20 18.0013V5.99982C20 4.89525 19.1046 3.99982 18 3.99982H6C4.89543 3.99982 4 4.89525 4 5.99982V18.0013ZM8.26111 5.30799C8.54022 5.42462 8.72194 5.6975 8.72194 6V10C8.72194 10.4142 8.38615 10.75 7.97194 10.75C7.55773 10.75 7.22194 10.4142 7.22194 10V7.80911L7.1677 7.86375L7.06839 7.96389L7.04206 7.99047L7.03532 7.99728L7.03363 7.99898L7.03321 7.9994L7.03311 7.9995L7.03309 7.99953L6.5 7.47197L5.96693 6.9444L5.96696 6.94436L5.96708 6.94424L5.96754 6.94378L5.96931 6.94199L5.97621 6.93502L6.0029 6.90808L6.103 6.80714C6.18869 6.72079 6.30994 6.59875 6.45228 6.45589C6.73673 6.17039 7.10633 5.80077 7.44492 5.46638C7.66015 5.25382 7.982 5.19136 8.26111 5.30799ZM6.5 7.47197L7.03308 7.99953C6.74172 8.29395 6.26685 8.29642 5.97244 8.00505C5.67802 7.71369 5.67555 7.23882 5.96692 6.94441L6.5 7.47197ZM10.75 15C10.75 14.5858 11.0858 14.25 11.5 14.25H17.5C17.9142 14.25 18.25 14.5858 18.25 15C18.25 15.4142 17.9142 15.75 17.5 15.75H11.5C11.0858 15.75 10.75 15.4142 10.75 15ZM11.5 6.25C11.0858 6.25 10.75 6.58579 10.75 7C10.75 7.41421 11.0858 7.75 11.5 7.75H17.5C17.9142 7.75 18.25 7.41421 18.25 7C18.25 6.58579 17.9142 6.25 17.5 6.25H11.5ZM10.75 17C10.75 16.5858 11.0858 16.25 11.5 16.25H14.5C14.9142 16.25 15.25 16.5858 15.25 17C15.25 17.4142 14.9142 17.75 14.5 17.75H11.5C11.0858 17.75 10.75 17.4142 10.75 17ZM11.5 8.25C11.0858 8.25 10.75 8.58579 10.75 9C10.75 9.41421 11.0858 9.75 11.5 9.75H14.5C14.9142 9.75 15.25 9.41421 15.25 9C15.25 8.58579 14.9142 8.25 14.5 8.25H11.5ZM5.75 14C5.75 13.5858 6.08579 13.25 6.5 13.25H7.5C8.4665 13.25 9.25 14.0335 9.25 15C9.25 15.9665 8.4665 16.75 7.5 16.75C7.36193 16.75 7.25 16.8619 7.25 17V17.25H8.5C8.91421 17.25 9.25 17.5858 9.25 18C9.25 18.4142 8.91421 18.75 8.5 18.75H6.5C6.08579 18.75 5.75 18.4142 5.75 18V17C5.75 16.0335 6.5335 15.25 7.5 15.25C7.63807 15.25 7.75 15.1381 7.75 15C7.75 14.8619 7.63807 14.75 7.5 14.75H6.5C6.08579 14.75 5.75 14.4142 5.75 14Z" fill="#333333"/>
</svg>
