<svg width="24" height="24" viewBox="0 0 24 24" fill="none" xmlns="http://www.w3.org/2000/svg">
<path fill-rule="evenodd" clip-rule="evenodd" d="M3.99996 18L6.52897 16.7375L6.99996 16.5024C6.99996 16.5024 10.1081 17.7087 12 17.7087C16.4182 17.7087 20 15.2463 20 12.2087C20 9.17117 16.4182 6.70874 12 6.70874C7.58169 6.70874 3.99996 9.17117 3.99996 12.2087C3.99996 13.2276 4.99996 15 4.99996 15L4.89381 15.3185L3.99996 18ZM8.22011 19.0225C7.80878 18.9001 7.43489 18.7781 7.12848 18.6736L4.89323 19.7894C4.16968 20.1506 3.29982 20.0405 2.68907 19.5105C2.07831 18.9804 1.84687 18.1347 2.1026 17.3675L2.8379 15.1616C2.78303 15.0456 2.72573 14.9206 2.66815 14.7892C2.42301 14.2299 1.99996 13.1831 1.99996 12.2087C1.99996 9.84175 3.39724 7.91788 5.21005 6.67157C7.03172 5.41917 9.43842 4.70874 12 4.70874C14.5615 4.70874 16.9682 5.41917 18.7899 6.67157C20.6027 7.91788 22 9.84175 22 12.2087C22 14.5757 20.6027 16.4996 18.7899 17.7459C16.9682 18.9983 14.5615 19.7087 12 19.7087C10.7398 19.7087 9.24796 19.3284 8.22011 19.0225ZM7.99996 11.25C7.58575 11.25 7.24996 11.5858 7.24996 12C7.24996 12.4142 7.58575 12.75 7.99996 12.75H8.00996C8.42418 12.75 8.75996 12.4142 8.75996 12C8.75996 11.5858 8.42418 11.25 8.00996 11.25H7.99996ZM11.25 12C11.25 11.5858 11.5857 11.25 12 11.25H12.01C12.4242 11.25 12.76 11.5858 12.76 12C12.76 12.4142 12.4242 12.75 12.01 12.75H12C11.5857 12.75 11.25 12.4142 11.25 12ZM16 11.25C15.5857 11.25 15.25 11.5858 15.25 12C15.25 12.4142 15.5857 12.75 16 12.75H16.01C16.4242 12.75 16.76 12.4142 16.76 12C16.76 11.5858 16.4242 11.25 16.01 11.25H16Z" fill="#333333"/>
</svg>
