<svg width="24" height="24" viewBox="0 0 24 24" fill="none" xmlns="http://www.w3.org/2000/svg">
<path fill-rule="evenodd" clip-rule="evenodd" d="M16.5001 6.75C17.7427 6.75 18.7501 5.74264 18.7501 4.5C18.7501 3.25736 17.7427 2.25 16.5001 2.25H5.00006C3.75742 2.25 2.75006 3.25736 2.75006 4.5C2.75006 5.74264 3.75742 6.75 5.00006 6.75L16.5001 6.75ZM17.2501 4.5C17.2501 4.91421 16.9143 5.25 16.5001 5.25L5.00006 5.25C4.58585 5.25 4.25006 4.91421 4.25006 4.5C4.25006 4.08579 4.58585 3.75 5.00006 3.75L16.5001 3.75C16.9143 3.75 17.2501 4.08579 17.2501 4.5ZM15.85 9.5C15.85 10.7426 14.8427 11.75 13.6 11.75H5.00004C3.7574 11.75 2.75004 10.7426 2.75004 9.5C2.75004 8.25736 3.75739 7.25 5.00004 7.25L13.6 7.25C14.8427 7.25 15.85 8.25736 15.85 9.5ZM13.6 10.25C14.0142 10.25 14.35 9.91421 14.35 9.5C14.35 9.08579 14.0142 8.75 13.6 8.75L5.00004 8.75C4.58582 8.75 4.25004 9.08579 4.25004 9.5C4.25004 9.91421 4.58582 10.25 5.00004 10.25H13.6ZM10.7 16.75C11.9427 16.75 12.95 15.7426 12.95 14.5C12.95 13.2574 11.9427 12.25 10.7 12.25H5C3.75736 12.25 2.75 13.2574 2.75 14.5C2.75 15.7426 3.75736 16.75 5 16.75H10.7ZM11.45 14.5C11.45 14.9142 11.1142 15.25 10.7 15.25H5C4.58579 15.25 4.25 14.9142 4.25 14.5C4.25 14.0858 4.58579 13.75 5 13.75H10.7C11.1142 13.75 11.45 14.0858 11.45 14.5ZM7.80011 21.75C9.04275 21.75 10.0501 20.7426 10.0501 19.5C10.0501 18.2574 9.04275 17.25 7.80011 17.25H5.00013C3.75749 17.25 2.75013 18.2574 2.75013 19.5C2.75013 20.7426 3.75749 21.75 5.00013 21.75H7.80011ZM8.55011 19.5C8.55011 19.9142 8.21432 20.25 7.80011 20.25H5.00013C4.58592 20.25 4.25013 19.9142 4.25013 19.5C4.25013 19.0858 4.58592 18.75 5.00013 18.75H7.80011C8.21432 18.75 8.55011 19.0858 8.55011 19.5ZM18.7501 21C18.7501 21.4142 18.4143 21.75 18.0001 21.75C17.5859 21.75 17.2501 21.4142 17.2501 21L17.2501 14.8797L16.5304 15.5994C16.2375 15.8923 15.7626 15.8923 15.4698 15.5994C15.1769 15.3065 15.1769 14.8316 15.4698 14.5387L17.4698 12.5388C17.7627 12.2459 18.2375 12.2459 18.5304 12.5388L20.5304 14.5388C20.8233 14.8317 20.8233 15.3065 20.5304 15.5994C20.2375 15.8923 19.7626 15.8923 19.4698 15.5994L18.7501 14.8798V21Z" fill="#333333"/>
</svg>
