<svg width="24" height="24" viewBox="0 0 24 24" fill="none" xmlns="http://www.w3.org/2000/svg">
<path fill-rule="evenodd" clip-rule="evenodd" d="M19 5V7.21805C19 12.0966 16.2826 16.5424 12 18.7823C7.71743 16.5424 5 12.0966 5 7.21802V5H12H19ZM12.0611 20.9728C12.0222 20.9901 11.9778 20.9901 11.9389 20.9728C6.50314 18.5569 3 13.1665 3 7.21802V3.21216C3 3.09499 3.09499 3 3.21216 3H12H20.7878C20.905 3 21 3.09499 21 3.21216V7.21805C21 13.1665 17.4969 18.5569 12.0611 20.9728ZM12 10C12.5523 10 13 10.4477 13 11V14C13.5523 14 14 14.4477 14 15C14 15.5523 13.5523 16 13 16H12C11.4477 16 11 15.5523 11 15V12C10.4477 12 10 11.5523 10 11C10 10.4477 10.4477 10 11 10H12ZM12 9C12.5523 9 13 8.55228 13 8C13 7.44772 12.5523 7 12 7C11.4477 7 11 7.44772 11 8C11 8.55228 11.4477 9 12 9Z" fill="#333333"/>
</svg>
