<svg width="24" height="24" viewBox="0 0 24 24" fill="none" xmlns="http://www.w3.org/2000/svg">
<path fill-rule="evenodd" clip-rule="evenodd" d="M11 6H6C3.79086 6 2 7.79086 2 10V14C2 16.2091 3.79086 18 6 18H11C12.9504 18 14.5747 16.6041 14.9285 14.7569L16.8787 16.7071C18.7686 18.597 22 17.2585 22 14.5858V9.41421C22 6.74149 18.7686 5.40301 16.8787 7.29289L14.9285 9.24309C14.5747 7.39587 12.9504 6 11 6ZM4 10C4 8.89543 4.89543 8 6 8H11C12.1046 8 13 8.89543 13 10V14C13 15.1046 12.1046 16 11 16H6C4.89543 16 4 15.1046 4 14V10ZM15.7071 12.7071C15.3166 12.3166 15.3166 11.6834 15.7071 11.2929L18.2929 8.70711C18.9229 8.07714 20 8.52331 20 9.41421V14.5858C20 15.4767 18.9229 15.9229 18.2929 15.2929L15.7071 12.7071Z" fill="#333333"/>
</svg>
