<svg width="24" height="24" viewBox="0 0 24 24" fill="none" xmlns="http://www.w3.org/2000/svg">
<path fill-rule="evenodd" clip-rule="evenodd" d="M11 6C11 5.44772 10.5523 5 10 5H9.43238C10.3437 4.61322 11.3461 4.39939 12.3994 4.39939C16.5971 4.39939 20 7.80229 20 12C20 16.1977 16.5971 19.6006 12.3994 19.6006C10.7509 19.6006 9.22758 19.0769 7.98301 18.1866C7.53381 17.8653 6.90919 17.969 6.58788 18.4182C6.26657 18.8674 6.37024 19.492 6.81944 19.8133C8.39218 20.9383 10.3199 21.6006 12.3994 21.6006C17.7017 21.6006 22 17.3023 22 12C22 6.69772 17.7017 2.39939 12.3994 2.39939C10.8146 2.39939 9.31826 2.784 8 3.46472V3C8 2.44772 7.55228 2 7 2C6.44772 2 6 2.44772 6 3L6 6C6 6.55228 6.44772 7 7 7H10C10.5523 7 11 6.55228 11 6ZM3.78684 11.0267C3.51128 11.0399 3.22483 11.0536 3 11.0536V9.05357C3.18569 9.05357 3.37865 9.04403 3.60841 9.03267H3.60842H3.60843H3.60844L3.60846 9.03266C3.76788 9.02478 3.94502 9.01602 4.14974 9.00896C4.60109 8.99341 5.13197 8.99044 5.64004 9.06385C6.13592 9.13549 6.72426 9.29475 7.20124 9.69188C7.72544 10.1283 8 10.7544 8 11.5C8 12.0848 7.83109 12.5961 7.5053 13C7.83109 13.4039 8 13.9152 8 14.5C8 15.2456 7.72544 15.8717 7.20124 16.3081C6.72426 16.7053 6.13592 16.8645 5.64004 16.9362C5.13197 17.0096 4.60109 17.0066 4.14974 16.991C3.94518 16.984 3.76815 16.9752 3.60883 16.9674L3.60858 16.9673L3.60841 16.9673C3.37865 16.956 3.18569 16.9464 3 16.9464V14.9464C3.22483 14.9464 3.51128 14.9601 3.78684 14.9733L3.78696 14.9733C3.93812 14.9806 4.086 14.9877 4.21864 14.9922C4.64155 15.0068 5.02782 15.0038 5.35407 14.9567C5.69251 14.9078 5.85563 14.826 5.92155 14.7711L5.92454 14.7687C5.94588 14.7516 6 14.7081 6 14.5C6 14.2919 5.94588 14.2484 5.92454 14.2313L5.92155 14.2289C5.85563 14.174 5.69251 14.0922 5.35407 14.0433C5.02782 13.9962 4.64155 13.9932 4.21864 14.0078C4.086 14.0123 3.93812 14.0194 3.78695 14.0267L3.78684 14.0267C3.51128 14.0399 3.22483 14.0536 3 14.0536V13.9464V12.0536V11.9464C3.22483 11.9464 3.51128 11.9601 3.78684 11.9733L3.78696 11.9733C3.93812 11.9806 4.086 11.9877 4.21864 11.9922C4.64155 12.0068 5.02782 12.0038 5.35407 11.9567C5.69251 11.9078 5.85563 11.826 5.92155 11.7711L5.92454 11.7687C5.94588 11.7516 6 11.7081 6 11.5C6 11.2919 5.94588 11.2484 5.92454 11.2313L5.92155 11.2289C5.85563 11.174 5.69251 11.0922 5.35407 11.0433C5.02782 10.9962 4.64155 10.9932 4.21864 11.0078C4.086 11.0123 3.93812 11.0194 3.78695 11.0267L3.78684 11.0267ZM11.5213 14.6284C11.7805 14.2828 12 13.7137 12 13C12 12.2863 11.7805 11.7172 11.5213 11.3716C11.2626 11.0266 11.0578 11 11 11C10.9422 11 10.7374 11.0266 10.4787 11.3716C10.2195 11.7172 10 12.2863 10 13C10 13.7137 10.2195 14.2828 10.4787 14.6284C10.7374 14.9734 10.9422 15 11 15C11.0578 15 11.2626 14.9734 11.5213 14.6284ZM11 17C12.6569 17 14 15.2091 14 13C14 10.7909 12.6569 9 11 9C9.34315 9 8 10.7909 8 13C8 15.2091 9.34315 17 11 17Z" fill="#333333"/>
</svg>
