<svg width="24" height="24" viewBox="0 0 24 24" fill="none" xmlns="http://www.w3.org/2000/svg">
<path fill-rule="evenodd" clip-rule="evenodd" d="M22 19C22 20.6568 20.6569 22 19 22H5.00001C3.34315 22 2.00001 20.6568 2.00001 19V4.99997C2.00001 3.34311 3.34315 1.99997 5.00001 1.99997H19C20.6569 1.99997 22 3.34311 22 4.99997V19ZM19 20C19.5523 20 20 19.5523 20 19V4.99997C20 4.44769 19.5523 3.99997 19 3.99997H5.00001C4.44772 3.99997 4.00001 4.44769 4.00001 4.99997V19C4.00001 19.5523 4.44772 20 5.00001 20H19ZM11.0019 9.67815C11.0649 8.17583 12.7221 7.26715 14.0296 8.05228L18.0136 10.4446C19.3407 11.2415 19.2982 13.1792 17.9375 13.9173L13.9535 16.0781C12.6222 16.8001 11.0031 15.8379 11 14.3244L9.17729 15.6516C7.85548 16.6141 6.00001 15.6699 6.00001 14.0348V9.96571C6.00001 8.33039 7.85591 7.38628 9.17766 8.34919L11.0019 9.67815ZM13 9.7669V14.32L16.984 12.1592L13 9.7669ZM8.00001 14.0348L8.00001 9.96571L10.7934 12.0007L8.00001 14.0348Z" fill="#333333"/>
</svg>
