<svg width="24" height="24" viewBox="0 0 24 24" fill="none" xmlns="http://www.w3.org/2000/svg">
<path fill-rule="evenodd" clip-rule="evenodd" d="M17.9749 2.52516C17.5843 2.13464 16.9512 2.13464 16.5607 2.52516C16.1701 2.91569 16.1701 3.54885 16.5607 3.93938L17.6213 5.00004L16.5607 6.0607C16.1701 6.45122 16.1701 7.08439 16.5607 7.47491C16.9512 7.86543 17.5843 7.86543 17.9749 7.47491L19.0355 6.41425L20.0962 7.47491C20.4867 7.86543 21.1199 7.86543 21.5104 7.47491C21.9009 7.08439 21.9009 6.45122 21.5104 6.0607L20.4497 5.00004L21.5104 3.93938C21.9009 3.54885 21.9009 2.91569 21.5104 2.52516C21.1199 2.13464 20.4867 2.13464 20.0962 2.52516L19.0355 3.58582L17.9749 2.52516ZM6 10H11C12.9504 10 14.5747 11.3959 14.9285 13.2431L16.8787 11.2929C18.7686 9.40301 22 10.7415 22 13.4142V18.5858C22 21.2585 18.7686 22.597 16.8787 20.7071L14.9285 18.7569C14.5747 20.6041 12.9504 22 11 22H6C3.79086 22 2 20.2091 2 18V14C2 11.7909 3.79086 10 6 10ZM6 12C4.89543 12 4 12.8954 4 14V18C4 19.1046 4.89543 20 6 20H11C12.1046 20 13 19.1046 13 18V14C13 12.8954 12.1046 12 11 12H6ZM15.7071 15.2929C15.3166 15.6834 15.3166 16.3166 15.7071 16.7071L18.2929 19.2929C18.9229 19.9229 20 19.4767 20 18.5858V13.4142C20 12.5233 18.9229 12.0771 18.2929 12.7071L15.7071 15.2929Z" fill="#333333"/>
</svg>
