<svg width="24" height="24" viewBox="0 0 24 24" fill="none" xmlns="http://www.w3.org/2000/svg">
<path fill-rule="evenodd" clip-rule="evenodd" d="M13 6C13 5.44772 13.4477 5 14 5H14.5676C13.6563 4.61322 12.6539 4.39939 11.6006 4.39939C7.4029 4.39939 4 7.80229 4 12C4 16.1977 7.4029 19.6006 11.6006 19.6006C13.2491 19.6006 14.7724 19.0769 16.017 18.1866C16.4662 17.8653 17.0908 17.969 17.4121 18.4182C17.7334 18.8674 17.6298 19.492 17.1806 19.8133C15.6078 20.9383 13.6801 21.6006 11.6006 21.6006C6.29833 21.6006 2 17.3023 2 12C2 6.69772 6.29833 2.39939 11.6006 2.39939C13.1854 2.39939 14.6817 2.784 16 3.46472V3C16 2.44772 16.4477 2 17 2C17.5523 2 18 2.44772 18 3V6C18 6.55228 17.5523 7 17 7H14C13.4477 7 13 6.55228 13 6ZM10.7868 11.0267C10.5113 11.0399 10.2248 11.0536 10 11.0536V9.05357C10.1857 9.05357 10.3786 9.04403 10.6084 9.03267L10.6084 9.03266C10.7679 9.02478 10.945 9.01602 11.1497 9.00896C11.6011 8.99341 12.132 8.99044 12.64 9.06385C13.1359 9.13549 13.7243 9.29475 14.2012 9.69188C14.7254 10.1283 15 10.7544 15 11.5C15 12.0848 14.8311 12.5961 14.5053 13C14.8311 13.4039 15 13.9152 15 14.5C15 15.2456 14.7254 15.8717 14.2012 16.3081C13.7243 16.7053 13.1359 16.8645 12.64 16.9362C12.132 17.0096 11.6011 17.0066 11.1497 16.991C10.9452 16.984 10.7681 16.9752 10.6088 16.9674L10.6086 16.9673L10.6084 16.9673C10.3786 16.956 10.1857 16.9464 10 16.9464V14.9464C10.2248 14.9464 10.5113 14.9601 10.7868 14.9733L10.787 14.9733C10.9381 14.9806 11.086 14.9877 11.2186 14.9922C11.6416 15.0068 12.0278 15.0038 12.3541 14.9567C12.6925 14.9078 12.8556 14.826 12.9215 14.7711L12.9245 14.7687C12.9459 14.7516 13 14.7081 13 14.5C13 14.2919 12.9459 14.2484 12.9245 14.2313L12.9215 14.2289C12.8556 14.174 12.6925 14.0922 12.3541 14.0433C12.0278 13.9962 11.6416 13.9932 11.2186 14.0078C11.086 14.0123 10.9381 14.0194 10.787 14.0267L10.7868 14.0267C10.5113 14.0399 10.2248 14.0536 10 14.0536V13.9464V12.0536V11.9464C10.2248 11.9464 10.5113 11.9601 10.7868 11.9733L10.787 11.9733C10.9381 11.9806 11.086 11.9877 11.2186 11.9922C11.6416 12.0068 12.0278 12.0038 12.3541 11.9567C12.6925 11.9078 12.8556 11.826 12.9215 11.7711L12.9245 11.7687C12.9459 11.7516 13 11.7081 13 11.5C13 11.2919 12.9459 11.2484 12.9245 11.2313L12.9215 11.2289C12.8556 11.174 12.6925 11.0922 12.3541 11.0433C12.0278 10.9962 11.6416 10.9932 11.2186 11.0078C11.086 11.0123 10.9381 11.0194 10.787 11.0267L10.7868 11.0267ZM18.5213 14.6284C18.7805 14.2828 19 13.7137 19 13C19 12.2863 18.7805 11.7172 18.5213 11.3716C18.2626 11.0266 18.0578 11 18 11C17.9422 11 17.7374 11.0266 17.4787 11.3716C17.2195 11.7172 17 12.2863 17 13C17 13.7137 17.2195 14.2828 17.4787 14.6284C17.7374 14.9734 17.9422 15 18 15C18.0578 15 18.2626 14.9734 18.5213 14.6284ZM18 17C19.6569 17 21 15.2091 21 13C21 10.7909 19.6569 9 18 9C16.3431 9 15 10.7909 15 13C15 15.2091 16.3431 17 18 17Z" fill="#333333"/>
</svg>
