<svg width="24" height="24" viewBox="0 0 24 24" fill="none" xmlns="http://www.w3.org/2000/svg">
<path fill-rule="evenodd" clip-rule="evenodd" d="M20.5 1.99994C20.5 1.44765 20.0523 0.999939 19.5 0.999939C18.9477 0.999939 18.5 1.44765 18.5 1.99994V3.49994H17C16.4477 3.49994 16 3.94765 16 4.49994C16 5.05222 16.4477 5.49994 17 5.49994H18.5V6.99994C18.5 7.55222 18.9477 7.99994 19.5 7.99994C20.0523 7.99994 20.5 7.55222 20.5 6.99994V5.49994H22C22.5523 5.49994 23 5.05222 23 4.49994C23 3.94765 22.5523 3.49994 22 3.49994H20.5V1.99994ZM6 9.99994H11C12.9504 9.99994 14.5747 11.3958 14.9285 13.243L16.8787 11.2928C18.7686 9.40295 22 10.7414 22 13.4142V18.5857C22 21.2584 18.7686 22.5969 16.8787 20.707L14.9285 18.7568C14.5747 20.6041 12.9504 21.9999 11 21.9999H6C3.79086 21.9999 2 20.2091 2 17.9999V13.9999C2 11.7908 3.79086 9.99994 6 9.99994ZM6 11.9999C4.89543 11.9999 4 12.8954 4 13.9999V17.9999C4 19.1045 4.89543 19.9999 6 19.9999H11C12.1046 19.9999 13 19.1045 13 17.9999V13.9999C13 12.8954 12.1046 11.9999 11 11.9999H6ZM15.7071 15.2928C15.3166 15.6834 15.3166 16.3165 15.7071 16.707L18.2929 19.2928C18.9229 19.9228 20 19.4766 20 18.5857V13.4142C20 12.5232 18.9229 12.0771 18.2929 12.707L15.7071 15.2928Z" fill="#333333"/>
</svg>
