<svg width="24" height="24" viewBox="0 0 24 24" fill="none" xmlns="http://www.w3.org/2000/svg">
<path fill-rule="evenodd" clip-rule="evenodd" d="M14 5C13.4477 5 13 5.44772 13 6C13 6.55228 13.4477 7 14 7H17C17.5523 7 18 6.55228 18 6V3C18 2.44772 17.5523 2 17 2C16.4477 2 16 2.44772 16 3V3.46472C14.6817 2.784 13.1854 2.39939 11.6006 2.39939C6.29833 2.39939 2 6.69772 2 12C2 17.3023 6.29833 21.6006 11.6006 21.6006C13.6801 21.6006 15.6078 20.9383 17.1806 19.8133C17.6298 19.492 17.7334 18.8674 17.4121 18.4182C17.0908 17.969 16.4662 17.8653 16.017 18.1866C14.7724 19.0769 13.2491 19.6006 11.6006 19.6006C7.4029 19.6006 4 16.1977 4 12C4 7.80229 7.4029 4.39939 11.6006 4.39939C12.6539 4.39939 13.6563 4.61322 14.5676 5H14ZM13.3827 9.07612C13.7564 9.2309 14 9.59554 14 10V16H12V12.4142L11.7071 12.7071C11.3166 13.0976 10.6834 13.0976 10.2929 12.7071C9.90237 12.3166 9.90237 11.6834 10.2929 11.2929L12.2929 9.29289C12.5789 9.0069 13.009 8.92134 13.3827 9.07612ZM19 12.5C19 13.0077 18.8231 13.4163 18.6028 13.6733C18.3862 13.926 18.1668 14 18 14C17.8332 14 17.6138 13.926 17.3972 13.6733C17.1769 13.4163 17 13.0077 17 12.5C17 11.9923 17.1769 11.5837 17.3972 11.3267C17.6138 11.074 17.8332 11 18 11C18.1668 11 18.3862 11.074 18.6028 11.3267C18.8231 11.5837 19 11.9923 19 12.5ZM21 12.5C21 14.433 19.6569 16 18 16C16.3431 16 15 14.433 15 12.5C15 10.567 16.3431 9 18 9C19.6569 9 21 10.567 21 12.5Z" fill="#333333"/>
</svg>
