<svg width="24" height="24" viewBox="0 0 24 24" fill="none" xmlns="http://www.w3.org/2000/svg">
<path fill-rule="evenodd" clip-rule="evenodd" d="M17.3483 3.34833C17.0554 3.64123 17.0554 4.1161 17.3483 4.40899L17.9393 5H6C4.34315 5 3 6.34315 3 8V18C3 19.6569 4.34315 21 6 21H9C9.55228 21 10 20.5523 10 20C10 19.4477 9.55228 19 9 19H6C5.44772 19 5 18.5523 5 18V8C5 7.44771 5.44772 7 6 7H17.9393L17.3483 7.59097C17.0554 7.88387 17.0554 8.35874 17.3483 8.65163C17.6412 8.94453 18.1161 8.94453 18.409 8.65163L20.5303 6.53031C20.8232 6.23742 20.8232 5.76255 20.5303 5.46965L18.409 3.34833C18.1161 3.05544 17.6412 3.05544 17.3483 3.34833ZM20 17C20 17.7137 19.7805 18.2828 19.5213 18.6284C19.2626 18.9734 19.0578 19 19 19C18.9422 19 18.7374 18.9734 18.4787 18.6284C18.2195 18.2828 18 17.7137 18 17C18 16.2863 18.2195 15.7172 18.4787 15.3716C18.7374 15.0266 18.9422 15 19 15C19.0578 15 19.2626 15.0266 19.5213 15.3716C19.7805 15.7172 20 16.2863 20 17ZM22 17C22 19.2091 20.6569 21 19 21C17.3431 21 16 19.2091 16 17C16 14.7909 17.3431 13 19 13C20.6569 13 22 14.7909 22 17ZM11.7868 15.0267C11.5113 15.0399 11.2248 15.0536 11 15.0536V13.0536C11.1857 13.0536 11.3786 13.044 11.6084 13.0327H11.6084H11.6084L11.6086 13.0327L11.6088 13.0326C11.7682 13.0248 11.9452 13.016 12.1497 13.009C12.6011 12.9934 13.132 12.9904 13.64 13.0638C14.1359 13.1355 14.7243 13.2947 15.2012 13.6919C15.7254 14.1283 16 14.7544 16 15.5C16 16.0848 15.8311 16.5961 15.5053 17C15.8311 17.4039 16 17.9152 16 18.5C16 19.2456 15.7254 19.8717 15.2012 20.3081C14.7243 20.7053 14.1359 20.8645 13.64 20.9362C13.132 21.0096 12.6011 21.0066 12.1497 20.991C11.9451 20.984 11.768 20.9752 11.6086 20.9673L11.6084 20.9673C11.3786 20.956 11.1857 20.9464 11 20.9464V18.9464C11.2248 18.9464 11.5113 18.9601 11.7868 18.9733L11.787 18.9733C11.9381 18.9806 12.086 18.9877 12.2186 18.9922C12.6416 19.0068 13.0278 19.0038 13.3541 18.9567C13.6925 18.9078 13.8556 18.826 13.9215 18.7711L13.9245 18.7687C13.9459 18.7516 14 18.7081 14 18.5C14 18.2919 13.9459 18.2484 13.9245 18.2313L13.9215 18.2289C13.8556 18.174 13.6925 18.0922 13.3541 18.0433C13.0278 17.9962 12.6416 17.9932 12.2186 18.0078C12.086 18.0123 11.9381 18.0194 11.787 18.0267L11.7868 18.0267C11.5113 18.0399 11.2248 18.0536 11 18.0536V17.9464V16.0536V15.9464C11.2248 15.9464 11.5113 15.9601 11.7868 15.9733L11.787 15.9733C11.9381 15.9806 12.086 15.9877 12.2186 15.9922C12.6416 16.0068 13.0278 16.0038 13.3541 15.9567C13.6925 15.9078 13.8556 15.826 13.9215 15.7711L13.9245 15.7687C13.9459 15.7516 14 15.7081 14 15.5C14 15.2919 13.9459 15.2484 13.9245 15.2313L13.9215 15.2289C13.8556 15.174 13.6925 15.0922 13.3541 15.0433C13.0278 14.9962 12.6416 14.9932 12.2186 15.0078C12.086 15.0123 11.9381 15.0194 11.787 15.0267L11.7868 15.0267Z" fill="#333333"/>
</svg>
