<svg width="24" height="24" viewBox="0 0 24 24" fill="none" xmlns="http://www.w3.org/2000/svg">
<path fill-rule="evenodd" clip-rule="evenodd" d="M9 10C10.6569 10 12 8.65685 12 7C12 5.34315 10.6569 4 9 4C7.34315 4 6 5.34315 6 7C6 8.65685 7.34315 10 9 10ZM9 12C11.7614 12 14 9.76142 14 7C14 4.23858 11.7614 2 9 2C6.23858 2 4 4.23858 4 7C4 9.76142 6.23858 12 9 12ZM2 16C2 14.3431 3.34315 13 5 13H13C14.6569 13 16 14.3431 16 16V21C16 21.5523 15.5523 22 15 22C14.4477 22 14 21.5523 14 21V16C14 15.4477 13.5523 15 13 15H5C4.44772 15 4 15.4477 4 16V21C4 21.5523 3.55228 22 3 22C2.44772 22 2 21.5523 2 21V16ZM22.6635 8.49501C23.0147 8.06876 22.9538 7.43852 22.5276 7.08734C22.1013 6.73615 21.4711 6.79701 21.1199 7.22326L18.103 10.8851L16.6477 9.20452C16.2862 8.78701 15.6546 8.74163 15.2371 9.10316C14.8196 9.46469 14.7742 10.0962 15.1358 10.5137L16.591 12.1943C17.4015 13.1304 18.8592 13.1125 19.6465 12.1569L22.6635 8.49501Z" fill="#333333"/>
</svg>
