<svg width="24" height="24" viewBox="0 0 24 24" fill="none" xmlns="http://www.w3.org/2000/svg">
<path fill-rule="evenodd" clip-rule="evenodd" d="M9 12C10.6569 12 12 10.6569 12 9C12 7.34315 10.6569 6 9 6C7.34315 6 6 7.34315 6 9C6 10.6569 7.34315 12 9 12ZM14 9C14 10.6356 13.2147 12.0878 12.0005 13H13C14.6569 13 16 14.3431 16 16V21C16 21.5523 15.5523 22 15 22C14.4477 22 14 21.5523 14 21V16C14 15.4477 13.5523 15 13 15H5C4.44772 15 4 15.4477 4 16V21C4 21.5523 3.55228 22 3 22C2.44772 22 2 21.5523 2 21V16C2 14.3431 3.34315 13 5 13H5.99951C4.78534 12.0878 4 10.6356 4 9C4 6.23858 6.23858 4 9 4C11.7614 4 14 6.23858 14 9ZM20.5 9C20.5 8.44772 20.0523 8 19.5 8C18.9477 8 18.5 8.44772 18.5 9V10.5H17C16.4477 10.5 16 10.9477 16 11.5C16 12.0523 16.4477 12.5 17 12.5H18.5V14C18.5 14.5523 18.9477 15 19.5 15C20.0523 15 20.5 14.5523 20.5 14V12.5H22C22.5523 12.5 23 12.0523 23 11.5C23 10.9477 22.5523 10.5 22 10.5H20.5V9Z" fill="#333333"/>
</svg>
