<svg width="24" height="24" viewBox="0 0 24 24" fill="none" xmlns="http://www.w3.org/2000/svg">
<path fill-rule="evenodd" clip-rule="evenodd" d="M19.5 2C19.5 1.44772 19.0523 1 18.5 1C17.9477 1 17.5 1.44772 17.5 2V3.5H16C15.4477 3.5 15 3.94772 15 4.5C15 5.05228 15.4477 5.5 16 5.5H17.5V7C17.5 7.55228 17.9477 8 18.5 8C19.0523 8 19.5 7.55228 19.5 7V5.5H21C21.5523 5.5 22 5.05228 22 4.5C22 3.94772 21.5523 3.5 21 3.5H19.5V2ZM11 14C12.6569 14 14 12.6569 14 11C14 9.34315 12.6569 8 11 8C9.34315 8 8 9.34315 8 11C8 12.6569 9.34315 14 11 14ZM16 11C16 12.4811 15.356 13.8117 14.3328 14.7273C15.1893 15.1198 15.9778 15.6641 16.6569 16.3431C19.1105 18.7968 16.187 22 12.717 22H11H5L3 22C3 21.3195 3.08671 20.6479 3.25401 20C3.60831 18.6279 4.32406 17.3622 5.34315 16.3431C6.02216 15.6641 6.81067 15.1198 7.66717 14.7273C6.64396 13.8117 6 12.4811 6 11C6 8.23858 8.23858 6 11 6C13.7614 6 16 8.23858 16 11ZM15.2426 17.7574C14.1174 16.6321 12.5913 16 11 16C9.4087 16 7.88258 16.6321 6.75736 17.7574C6.11855 18.3962 5.63866 19.1642 5.34314 20H11H12.717C13.8885 20 14.8806 19.4435 15.3272 18.8669C15.5357 18.5977 15.5674 18.4064 15.565 18.3141C15.5634 18.2504 15.5459 18.0606 15.2426 17.7574Z" fill="#333333"/>
</svg>
