<svg width="24" height="24" viewBox="0 0 24 24" fill="none" xmlns="http://www.w3.org/2000/svg">
<g clip-path="url(#clip0_16_426)">
<path d="M15.6249 14.62C14.5179 16.239 12.8969 17.004 10.9999 17.004C8.69593 17.004 6.72393 15.231 7.00693 12.88C7.32193 10.272 9.34693 9.15 12.7149 8.737C13.3159 8.664 13.5649 8.643 14.8619 8.547L14.9999 8.537V8.322C14.9999 6.526 13.9319 5.3 12.4999 5.3C11.0629 5.3 10.0599 6.047 9.44493 7.826L7.55493 7.174C8.44193 4.604 10.1929 3.3 12.4999 3.3C15.1029 3.3 16.9999 5.478 16.9999 8.322C16.9999 10.971 17.1629 13.078 17.4829 13.879C17.8389 14.771 17.9689 14.996 18.3669 15.492L16.8069 16.743C16.2839 16.091 16.0539 15.694 15.6259 14.621V14.62H15.6249ZM21.2569 20.545C20.9859 20.745 20.5149 20.626 20.7279 20.105C20.9929 19.457 21.2749 18.697 20.9899 18.353C20.7799 18.098 20.5229 17.971 19.9629 17.971C19.5029 17.971 19.2729 18.031 18.9679 18.051C18.7639 18.064 18.6749 17.754 18.8769 17.611C19.1414 17.4215 19.4354 17.2769 19.7469 17.183C20.8969 16.839 22.2519 17.028 22.4169 17.266C22.7819 17.796 22.2179 19.835 21.2569 20.546V20.545ZM20.0749 19.461C19.8152 19.7122 19.5379 19.9445 19.2449 20.156C17.1229 21.772 14.3749 22.616 11.9869 22.616C8.14393 22.616 4.70693 20.823 2.09893 17.821C1.87593 17.591 2.06093 17.255 2.32193 17.437C5.13193 19.514 8.60993 20.77 12.2109 20.77C14.4759 20.77 16.9189 20.233 19.2459 19.077C19.4079 19.001 19.5899 18.897 19.7489 18.823C20.1159 18.613 20.4389 19.129 20.0749 19.461ZM15.0099 10.541C13.7519 10.635 13.5139 10.654 12.9579 10.722C10.4059 11.035 9.16093 11.725 8.99293 13.12C8.86693 14.163 9.80293 15.004 10.9999 15.004C13.0389 15.004 14.5169 13.776 15.0219 10.541H15.0099Z" fill="#09121F"/>
</g>
<defs>
<clipPath id="clip0_16_426">
<rect width="24" height="24" fill="white"/>
</clipPath>
</defs>
</svg>
