<svg width="24" height="24" viewBox="0 0 24 24" fill="none" xmlns="http://www.w3.org/2000/svg">
<path d="M6.82052 9.8698C6.74859 9.46188 6.35959 9.1895 5.95167 9.26143C5.54375 9.33336 5.27138 9.72235 5.3433 10.1303L6.38519 16.0391C6.45712 16.447 6.84611 16.7194 7.25404 16.6475C7.66196 16.5756 7.93433 16.1866 7.86241 15.7786L6.82052 9.8698Z" fill="#FAFAFA"/>
<path fill-rule="evenodd" clip-rule="evenodd" d="M9.91158 2.25002C8.15758 2.24975 7.09165 2.24958 6.23845 2.52146C4.13994 3.19015 2.60778 4.99881 2.29318 7.1787C2.16526 8.06499 2.34066 9.11639 2.62929 10.8465L3.53024 16.2521C3.63913 16.9057 3.70565 17.305 3.81091 17.6552C4.46465 19.8302 6.33735 21.4166 8.59022 21.7038C8.95294 21.7501 9.35769 21.7501 10.0202 21.75H10.1435C10.806 21.7501 11.2109 21.7501 11.5736 21.7038C13.8265 21.4166 15.6992 19.8302 16.3529 17.6552C16.4582 17.305 16.5247 16.9057 16.6336 16.2521L16.7201 15.7328C16.8393 15.7442 16.96 15.75 17.0819 15.75C19.153 15.75 20.8319 14.0711 20.8319 12C20.8319 10.2071 19.5736 8.70805 17.892 8.33776C17.9244 7.90455 17.9212 7.52875 17.8706 7.1787C17.556 4.99881 16.0239 3.19015 13.9254 2.52146C13.0722 2.24958 12.0062 2.24975 10.2522 2.25002H9.91158ZM17.0819 14.25C17.0436 14.25 17.0055 14.2491 16.9677 14.2472L17.5345 10.8465C17.5955 10.4812 17.6514 10.1457 17.7005 9.83613C18.6423 10.1049 19.3319 10.9719 19.3319 12C19.3319 13.2427 18.3246 14.25 17.0819 14.25ZM6.69387 3.95065C7.29475 3.75918 8.10444 3.75003 10.0819 3.75003C12.0594 3.75003 12.8691 3.75918 13.47 3.95065C15.021 4.4449 16.1535 5.78173 16.386 7.39296C16.4761 8.01714 16.352 8.81732 16.0269 10.7679L15.1641 15.9448C15.0419 16.6778 14.9907 16.9762 14.9164 17.2234C14.4332 18.831 13.049 20.0036 11.3839 20.2159C11.1278 20.2485 10.8251 20.25 10.0819 20.25C9.33876 20.25 9.03601 20.2485 8.77995 20.2159C7.11479 20.0036 5.73062 18.831 5.24742 17.2234C5.17312 16.9762 5.12188 16.6778 4.99971 15.9448L4.1369 10.7679C3.8118 8.81732 3.68771 8.01714 3.77779 7.39296C4.01033 5.78173 5.14279 4.4449 6.69387 3.95065Z" fill="#FAFAFA"/>
</svg>
