<svg width="24" height="24" viewBox="0 0 24 24" fill="none" xmlns="http://www.w3.org/2000/svg">
<path fill-rule="evenodd" clip-rule="evenodd" d="M13.4143 2.53151C13.6731 2.20806 14.145 2.15562 14.4685 2.41438L15.7185 3.41438C16.6866 4.18884 16.1389 5.75003 14.8992 5.75003H11C9.08032 5.75003 8.29836 5.75928 7.68665 5.95804C6.39279 6.37844 5.37838 7.39284 4.95798 8.68671C4.75923 9.29842 4.74997 10.0804 4.74997 12C4.74997 13.9197 4.75923 14.7016 4.95798 15.3133C5.08598 15.7073 4.87039 16.1304 4.47645 16.2584C4.08251 16.3864 3.6594 16.1708 3.5314 15.7769C3.24952 14.9094 3.24969 13.8681 3.24996 12.1619C3.24996 12.1086 3.24997 12.0546 3.24997 12C3.24997 11.9454 3.24996 11.8915 3.24996 11.8382C3.24969 10.1319 3.24952 9.0907 3.5314 8.22318C4.10017 6.47266 5.47261 5.10023 7.22312 4.53145C8.09064 4.24958 9.13186 4.24974 10.8381 4.25001C10.8914 4.25002 10.9454 4.25003 11 4.25003H14.3619L13.5315 3.58568C13.208 3.32692 13.1556 2.85495 13.4143 2.53151Z" fill="#FAFAFA"/>
<path d="M19.5235 7.74165C19.9174 7.61365 20.3405 7.82924 20.4685 8.22318C20.7504 9.0907 20.7503 10.1319 20.75 11.8382C20.75 11.8915 20.75 11.9454 20.75 12C20.75 12.0546 20.75 12.1086 20.75 12.1619C20.7503 13.8681 20.7504 14.9094 20.4685 15.7769C19.8998 17.5274 18.5273 18.8998 16.7768 19.4686C15.9093 19.7505 14.8681 19.7503 13.1618 19.75C13.1085 19.75 13.0546 19.75 13 19.75H10.9878C10.5107 19.75 10.0881 19.75 9.71157 19.7456L10.4961 20.4375C10.8067 20.7115 10.8364 21.1855 10.5625 21.4961C10.2885 21.8068 9.81452 21.8365 9.50387 21.5625L8.23133 20.4402C7.71243 19.9825 7.85739 19.3224 7.99699 19.0182C8.14072 18.705 8.52261 18.2125 9.15559 18.2337C9.64192 18.2499 10.2336 18.25 11 18.25H13C14.9196 18.25 15.7016 18.2408 16.3133 18.042C17.6072 17.6216 18.6216 16.6072 19.042 15.3133C19.2407 14.7016 19.25 13.9197 19.25 12C19.25 10.0804 19.2407 9.29842 19.042 8.68671C18.914 8.29277 19.1295 7.86965 19.5235 7.74165Z" fill="#FAFAFA"/>
<path d="M10.4696 8.4697C11.3111 7.6282 12.75 8.22418 12.75 9.41424V15C12.75 15.4142 12.4142 15.75 12 15.75C11.5858 15.75 11.25 15.4142 11.25 15V9.81069L10.5303 10.5304C10.2374 10.8232 9.76254 10.8232 9.46964 10.5304C9.17675 10.2375 9.17675 9.76259 9.46964 9.4697L10.4696 8.4697Z" fill="#FAFAFA"/>
</svg>
