<?xml version="1.0" ?><!DOCTYPE svg  PUBLIC '-//W3C//DTD SVG 1.1//EN'  'http://www.w3.org/Graphics/SVG/1.1/DTD/svg11.dtd'><svg enable-background="new 0 0 1000 1000" height="1000px" version="1.1" viewBox="0 0 1000 1000" width="1000px" xml:space="preserve" xmlns="http://www.w3.org/2000/svg" xmlns:xlink="http://www.w3.org/1999/xlink"><g id="Christmas_x2C__tree_x2C__gifts_x2C__holiday_x2C__christmas_tree"><g id="Christmas_tree_1_"><g id="XMLID_4719_"><g id="XMLID_4747_"><polygon fill="#754B4B" id="XMLID_4748_" points="362.961,871.864 340.463,872.375 334.087,693.668 372.153,693.668     "/></g><g id="XMLID_4745_" opacity="0.2"><polygon fill="#212121" id="XMLID_4746_" points="362.961,871.864 357.962,871.495 356.712,694.267 372.153,693.668     "/></g><g id="XMLID_4743_"><path d="M576.452,674.573c-88.979-53.486-185.339-218.815-223.332-359.829      c-43.876,141.013-142.955,303.916-223.333,364.698c9.559,9.65,23.175,21.392,46.807,34.386      c13.296-3.316,45.369-30.792,52.211-36.593c-0.893,5.802-24.247,38.229-37.933,47.75c3.461,1.727,6.606,3.67,10.265,5.355      c6.868-0.375,37.932-21.865,37.932-21.865s-11.316,24.015-16.065,28.113c37.244,15.676,75.467,23.514,124.459,23.515      c54.939,0,112.824-13.991,154.896-33.333c-16.233-15.46-26.776-37.931-26.776-37.931s24.992,21.865,42.806,25.718      C545.088,700.39,565.518,685.61,576.452,674.573z" fill="#26A69A" id="XMLID_4744_"/></g><g id="XMLID_4741_"><path d="M525.331,501.782c-68.611-41.24-142.914-168.72-172.211-277.459      C319.29,333.062,242.89,458.67,180.907,505.539c16.04,16.189,61.883,45.609,119.609,57.258      c11.292-3.818,27.803-41.749,27.803-41.749s-3.124,34.809-8.888,45.056c3.804,0.447,9.431,0.807,13.309,1.075      c7.629-4.182,14.768-22.926,14.768-22.926s0.447,13.834,1.25,23.483c32.265,0,63.724-7.126,91.22-17.11      c1.245-10.836-10.805-34.932-10.805-34.932s24.098,25.436,36.862,24.152C493.727,526.942,515.012,512.2,525.331,501.782z" fill="#26A69A" id="XMLID_4742_"/></g><path d="M348.508,567.756c-0.784-7.811-1.288-15.641-1.697-23.481l1.348,0.226     c-0.814,2.192-1.708,4.322-2.666,6.442c-0.959,2.115-1.986,4.205-3.116,6.249c-1.13,2.043-2.358,4.047-3.785,5.948     c-0.718,0.948-1.485,1.871-2.342,2.738c-0.43,0.433-0.889,0.846-1.369,1.245l-0.759,0.568l-0.818,0.517l-0.256,0.162l-0.39-0.02     c-4.446-0.228-8.891-0.442-13.388-0.885l-2.005-0.198l0.97-1.837c0.819-1.552,1.445-3.316,1.993-5.097     c0.545-1.789,1.009-3.621,1.421-5.47c0.829-3.698,1.485-7.457,2.064-11.228c0.576-3.773,1.065-7.565,1.501-11.364     c0.431-3.795,0.813-7.617,1.118-11.402l3.815,0.974c-0.846,1.996-1.708,3.935-2.597,5.884c-0.889,1.944-1.8,3.878-2.735,5.802     c-1.875,3.846-3.814,7.667-5.917,11.424c-2.107,3.755-4.358,7.453-6.995,10.982c-1.316,1.768-2.735,3.489-4.381,5.106     c-0.823,0.809-1.703,1.594-2.696,2.323c-0.996,0.722-2.128,1.386-3.491,1.855l-0.658,0.227l-0.647-0.138     c-2.54-0.542-5.007-1.099-7.481-1.74c-2.472-0.624-4.934-1.282-7.389-1.962c-2.456-0.677-4.896-1.406-7.326-2.175     c-1.216-0.379-2.432-0.756-3.64-1.162c-1.209-0.402-2.423-0.784-3.623-1.214l-3.598-1.29c-1.2-0.426-2.385-0.9-3.578-1.347     c-1.192-0.448-2.374-0.925-3.547-1.423l-3.524-1.478l-3.479-1.586c-1.163-0.516-2.297-1.104-3.437-1.67     c-1.134-0.58-2.278-1.132-3.385-1.767l-3.321-1.877c-0.121-0.068-0.163-0.221-0.095-0.341c0.062-0.109,0.193-0.154,0.307-0.111     l0.01,0.004l3.545,1.356c1.166,0.48,2.367,0.878,3.555,1.302c1.192,0.415,2.361,0.876,3.567,1.251l3.586,1.185l3.605,1.123     c1.197,0.384,2.409,0.726,3.618,1.075c1.209,0.349,2.407,0.724,3.623,1.052l3.639,0.995c2.437,0.628,4.856,1.306,7.302,1.893     c1.22,0.304,2.438,0.61,3.665,0.89l3.667,0.872c2.447,0.572,4.899,1.121,7.357,1.636c2.451,0.51,4.928,1.034,7.349,1.49     l-1.306,0.088c1.296-0.478,2.823-1.679,4.177-3.028c1.371-1.366,2.662-2.925,3.908-4.534c2.475-3.245,4.753-6.738,6.931-10.302     c2.172-3.571,4.236-7.233,6.19-10.957c0.978-1.862,1.934-3.737,2.868-5.623c0.931-1.882,1.854-3.792,2.72-5.677l5.121-11.161     l-1.306,12.136c-0.416,3.867-0.903,7.682-1.443,11.512c-0.543,3.824-1.142,7.642-1.829,11.451     c-0.69,3.808-1.458,7.608-2.414,11.386c-0.475,1.889-1.005,3.772-1.631,5.644c-0.634,1.871-1.337,3.733-2.363,5.558l-1.035-2.035     c4.351,0.553,8.797,0.87,13.229,1.266l-0.646,0.142l0.656-0.384l0.641-0.446c0.418-0.324,0.828-0.667,1.224-1.039     c0.79-0.745,1.529-1.573,2.233-2.438c1.403-1.739,2.659-3.633,3.826-5.583c1.169-1.951,2.247-3.967,3.263-6.015     c1.011-2.047,1.974-4.139,2.838-6.239l1.282-3.115l0.066,3.341c0.156,7.828,0.336,15.667,0.802,23.486     c0.008,0.138-0.097,0.256-0.235,0.264C348.637,567.989,348.521,567.889,348.508,567.756z" fill="#FFFFFF" id="XMLID_482_"/><g id="XMLID_4736_"><path d="M480.138,350.363C429.537,319.945,374.726,225.92,353.12,145.721      c-24.953,80.199-81.301,172.851-127.019,207.413c5.313,5.365,15.063,12.699,28.051,19.93      c8.568-0.618,31.922-22.334,31.922-22.334s-12.198,22.016-20.558,28.206c7.366,3.523,15.467,6.879,24.151,9.803      c6.521-3.201,20.355-18.746,20.355-18.746s-3.719,16.735-9.801,21.99c15.324,4.272,32.125,7.032,49.68,7.031      c41.777,0,81.722-16.197,107.237-31.571c-3.422-3.476-14.579-18.201-14.579-18.201s19.635,11.156,25.072,11.375      C472.913,356.892,477.15,353.381,480.138,350.363z" fill="#26A69A" id="XMLID_4737_"/></g><g id="XMLID_4729_"><g id="XMLID_750_"><path d="M265.517,378.935c7.366,3.523,15.467,6.879,24.151,9.803       c6.521-3.201,20.355-18.746,20.355-18.746s-3.719,16.735-9.801,21.99c15.324,4.272,32.125,7.032,49.68,7.031       c41.777,0,81.722-16.197,107.237-31.571L265.517,378.935z" fill="#26A69A" id="XMLID_759_"/></g><g id="XMLID_729_"><path d="M265.624,378.709c7.907,3.598,16.017,6.715,24.269,9.361l-0.536,0.035       c0.471-0.29,0.952-0.539,1.414-0.855c0.457-0.331,0.922-0.638,1.371-0.985l1.333-1.06l1.298-1.119       c1.712-1.519,3.375-3.104,4.997-4.736c3.239-3.263,6.38-6.659,9.396-10.12l2.912-3.341l-0.937,4.351       c-0.439,2.039-0.954,4.01-1.524,5.993c-0.57,1.977-1.225,3.933-1.959,5.871c-0.357,0.972-0.77,1.928-1.178,2.887       c-0.448,0.947-0.868,1.904-1.396,2.828c-0.255,0.465-0.494,0.935-0.796,1.385c-0.297,0.451-0.557,0.916-0.888,1.355       c-0.337,0.437-0.665,0.877-1.015,1.308l-1.201,1.227l-0.567-2.53c13.069,3.453,26.469,5.632,39.923,6.206       c3.345,0.142,6.769,0.177,10.048,0.104c3.389-0.16,6.846-0.17,10.137-0.538c1.664-0.156,3.322-0.271,4.986-0.457l4.998-0.656       c1.668-0.195,3.326-0.468,4.981-0.758l4.968-0.839l4.942-0.996c1.654-0.294,3.291-0.68,4.928-1.064       c1.634-0.394,3.281-0.734,4.914-1.138l4.886-1.268c1.635-0.398,3.248-0.884,4.868-1.344c1.614-0.48,3.25-0.89,4.848-1.427       c3.209-1.03,6.43-2.033,9.61-3.167c1.6-0.541,3.192-1.101,4.765-1.716l4.748-1.779c3.14-1.253,6.282-2.512,9.389-3.859       l2.339-0.996l2.312-1.056c1.543-0.701,3.11-1.363,4.629-2.118c1.522-0.748,3.078-1.441,4.599-2.199l4.575-2.272l0.006-0.003       c0.124-0.062,0.274-0.011,0.335,0.113c0.057,0.114,0.019,0.25-0.084,0.319l-4.247,2.875c-1.432,0.935-2.887,1.833-4.344,2.732       c-1.447,0.917-2.945,1.743-4.423,2.61c-1.482,0.86-2.981,1.691-4.5,2.482c-3.004,1.657-6.098,3.135-9.187,4.634       c-3.118,1.428-6.237,2.875-9.434,4.133c-1.595,0.637-3.173,1.321-4.784,1.921l-4.847,1.763       c-1.609,0.608-3.262,1.091-4.892,1.642c-1.639,0.525-3.263,1.102-4.927,1.545l-4.973,1.402       c-1.661,0.457-3.345,0.829-5.02,1.229c-3.34,0.856-6.748,1.417-10.132,2.072c-1.699,0.292-3.412,0.511-5.118,0.76       c-1.707,0.249-3.412,0.501-5.134,0.636l-5.15,0.495c-1.725,0.133-3.468,0.195-5.199,0.295c-3.494,0.25-6.854,0.177-10.27,0.235       c-3.528-0.018-6.915-0.165-10.368-0.395c-13.747-0.929-27.327-3.492-40.494-7.323l-2.436-0.709l1.869-1.822l0.952-0.927       l0.877-1.077c0.291-0.363,0.537-0.783,0.809-1.172c0.277-0.385,0.508-0.817,0.752-1.236c0.502-0.827,0.921-1.723,1.363-2.599       c0.409-0.9,0.824-1.797,1.19-2.723c0.752-1.84,1.43-3.723,2.039-5.631c0.613-1.901,1.186-3.845,1.663-5.761l1.975,1.01       c-3.176,3.419-6.432,6.722-9.818,9.923c-1.693,1.598-3.432,3.154-5.231,4.65l-1.367,1.105l-1.418,1.056       c-0.478,0.346-0.988,0.662-1.48,0.994c-0.503,0.322-1.059,0.593-1.585,0.889l-0.246,0.138l-0.29-0.103       c-8.225-2.908-16.252-6.346-24.033-10.245c-0.124-0.061-0.175-0.211-0.113-0.335       C265.355,378.705,265.501,378.654,265.624,378.709z" fill="#FFFFFF" id="XMLID_741_"/></g></g><g id="XMLID_4727_"><path d="M441.452,226.581C406.259,205.425,368.145,123.77,353.12,68      c-17.353,55.77-56.538,136.472-88.332,160.509c10.417,10.514,45.331,31.902,86.096,31.902c-0.55-7.859,1.532-27.79,1.532-27.79      s9.818,24.097,18.144,26.157c4.865-0.789,9.63-1.836,14.251-3.079c-3.835-7.014-5.619-20.401-5.619-20.401      s11.007,14.28,16.853,16.916C417.454,244.696,434.418,233.679,441.452,226.581z" fill="#26A69A" id="XMLID_4728_"/></g><g id="XMLID_4720_"><g id="XMLID_700_"><path d="M264.788,228.509c10.417,10.514,45.331,31.902,86.096,31.902       c-0.55-7.859,1.532-27.79,1.532-27.79s9.818,24.097,18.144,26.157c4.865-0.789,9.63-1.836,14.251-3.079       c-3.835-7.014-5.619-20.401-5.619-20.401s11.007,14.28,16.853,16.916c21.408-7.518,38.373-18.535,45.407-25.633       L264.788,228.509z" fill="#26A69A" id="XMLID_717_"/></g><g id="XMLID_583_"><path d="M264.959,228.327l2.168,1.968l2.265,1.823c0.739,0.622,1.558,1.159,2.338,1.737       c0.792,0.563,1.563,1.155,2.388,1.672c1.626,1.067,3.238,2.152,4.925,3.123l2.504,1.494l2.56,1.397       c1.691,0.958,3.438,1.813,5.181,2.671c1.727,0.892,3.51,1.667,5.284,2.457c1.76,0.821,3.566,1.536,5.374,2.245l2.705,1.075       l2.749,0.958c1.831,0.64,3.655,1.3,5.523,1.82l2.786,0.832c0.926,0.285,1.855,0.556,2.8,0.772l5.641,1.384l5.695,1.115       c1.894,0.389,3.822,0.573,5.73,0.87c0.958,0.126,1.91,0.292,2.871,0.385l2.886,0.238c1.925,0.133,3.842,0.389,5.772,0.372       l5.78,0.12l-1.551,1.664c-0.084-1.215-0.121-2.41-0.135-3.594c0.001-1.18,0.005-2.36,0.039-3.531       c0.059-2.345,0.157-4.681,0.292-7.011c0.263-4.664,0.611-9.299,1.029-13.956l0.661-7.353l2.929,6.842       c0.512,1.195,1.074,2.427,1.641,3.63c0.569,1.208,1.157,2.408,1.763,3.596c1.208,2.379,2.494,4.713,3.873,6.967       c1.381,2.248,2.859,4.426,4.494,6.373c0.414,0.477,0.829,0.949,1.262,1.386c0.431,0.435,0.869,0.859,1.32,1.22       c0.444,0.376,0.904,0.702,1.351,0.95c0.449,0.272,0.876,0.412,1.259,0.527l-0.912-0.037c2.353-0.42,4.695-0.905,7.023-1.448       c2.329-0.54,4.64-1.156,6.945-1.789l-1.54,3.603l-0.671-1.309c-0.222-0.437-0.394-0.875-0.593-1.313       c-0.201-0.438-0.367-0.876-0.535-1.315c-0.166-0.439-0.346-0.878-0.489-1.317c-0.311-0.879-0.597-1.759-0.859-2.64       c-0.267-0.881-0.511-1.763-0.743-2.647c-0.475-1.765-0.861-3.539-1.204-5.32c-0.175-0.89-0.335-1.781-0.486-2.675       c-0.152-0.901-0.292-1.774-0.421-2.718l-1.296-9.466l5.915,7.543l1.809,2.307l1.865,2.291c1.258,1.514,2.55,2.994,3.848,4.457       c0.655,0.724,1.312,1.444,1.986,2.138c0.333,0.356,0.671,0.698,1.015,1.031c0.343,0.332,0.678,0.689,1.028,1l1.044,0.958       l1.062,0.879c0.354,0.281,0.708,0.512,1.061,0.774c0.351,0.238,0.677,0.389,1.012,0.6l-1.678-0.072l3.064-1.044       c1.027-0.333,2.032-0.727,3.049-1.092c1.016-0.366,2.029-0.742,3.03-1.148c1.001-0.404,2.017-0.778,3.009-1.206l2.993-1.251       l2.969-1.312c0.99-0.439,1.961-0.915,2.944-1.371c0.986-0.449,1.944-0.954,2.917-1.429c1.944-0.958,3.871-1.954,5.765-3.009       c0.957-0.512,1.891-1.061,2.833-1.6c0.95-0.528,1.877-1.088,2.805-1.652c0.938-0.55,1.841-1.15,2.758-1.733       c0.916-0.584,1.797-1.215,2.698-1.825c0.869-0.647,1.764-1.269,2.615-1.942c0.874-0.65,1.697-1.355,2.529-2.061l0.009-0.008       c0.105-0.089,0.263-0.076,0.353,0.029c0.082,0.097,0.077,0.239-0.007,0.331c-0.743,0.812-1.488,1.632-2.284,2.396       c-0.768,0.8-1.616,1.502-2.43,2.251c-0.845,0.706-1.677,1.438-2.543,2.121c-0.866,0.683-1.723,1.384-2.613,2.035       c-1.76,1.334-3.558,2.623-5.411,3.824c-1.838,1.226-3.715,2.394-5.613,3.525c-0.955,0.555-1.902,1.128-2.875,1.652       c-0.97,0.529-1.931,1.08-2.91,1.592l-2.942,1.535l-2.983,1.456c-0.994,0.489-2.012,0.922-3.018,1.386       c-1.005,0.466-2.022,0.903-3.044,1.33c-1.022,0.426-2.035,0.88-3.071,1.274l-3.098,1.21l-0.882,0.345l-0.796-0.417       c-0.535-0.28-1.119-0.556-1.606-0.864c-0.465-0.313-0.957-0.62-1.397-0.946l-1.286-0.993l-1.205-1.03       c-0.409-0.341-0.772-0.703-1.161-1.053c-0.386-0.352-0.764-0.708-1.128-1.071c-0.746-0.718-1.462-1.452-2.176-2.188       c-1.421-1.476-2.78-2.996-4.111-4.534l-1.971-2.328c-0.65-0.789-1.29-1.558-1.935-2.386l4.619-1.923       c0.114,0.81,0.255,1.686,0.402,2.53c0.146,0.851,0.302,1.703,0.472,2.55c0.344,1.693,0.702,3.384,1.108,5.05       c0.203,0.833,0.418,1.662,0.651,2.479c0.229,0.821,0.477,1.629,0.743,2.425c0.123,0.406,0.275,0.788,0.416,1.18       c0.141,0.391,0.281,0.783,0.446,1.153c0.161,0.37,0.305,0.762,0.48,1.116l0.521,1.065l1.391,2.844l-2.931,0.76       c-4.785,1.24-9.643,2.198-14.534,2.922l-0.522,0.077l-0.391-0.115c-0.915-0.269-1.753-0.638-2.455-1.085       c-0.722-0.438-1.354-0.926-1.932-1.435c-0.592-0.505-1.115-1.039-1.623-1.579c-0.507-0.541-0.972-1.097-1.431-1.657       c-1.792-2.254-3.297-4.617-4.691-7.02c-1.385-2.407-2.652-4.856-3.845-7.334c-0.597-1.239-1.173-2.486-1.731-3.741       c-0.559-1.261-1.094-2.506-1.62-3.814l3.589-0.511c-0.516,4.581-0.967,9.197-1.33,13.796c-0.185,2.302-0.333,4.602-0.443,6.896       c-0.058,1.148-0.087,2.289-0.114,3.43c-0.013,1.137-0.002,2.262,0.048,3.365l0.08,1.734l-1.631-0.07l-5.927-0.256       c-1.979-0.029-3.936-0.333-5.902-0.513l-2.945-0.311c-0.979-0.117-1.949-0.308-2.923-0.458       c-1.942-0.346-3.904-0.581-5.826-1.02l-5.77-1.283l-5.691-1.579c-0.953-0.248-1.888-0.551-2.82-0.869l-2.8-0.928       c-1.878-0.584-3.707-1.308-5.541-2.012l-2.751-1.053l-2.704-1.17c-1.806-0.772-3.607-1.55-5.362-2.433       c-1.768-0.852-3.542-1.688-5.259-2.641c-1.733-0.918-3.468-1.833-5.146-2.851l-2.538-1.486l-2.479-1.582       c-1.669-1.029-3.264-2.173-4.869-3.297c-0.814-0.546-1.575-1.167-2.357-1.758c-0.771-0.608-1.572-1.167-2.309-1.826       l-2.24-1.919l-2.108-2.032c-0.099-0.096-0.102-0.254-0.006-0.354C264.704,228.24,264.859,228.237,264.959,228.327z" fill="#FFFFFF" id="XMLID_696_"/></g></g></g><g id="XMLID_4706_"><path d="M501.682,483.502c0,0-0.979,0.558-2.858,1.538c-1.88,0.969-4.639,2.391-8.228,4.036     c-3.572,1.685-7.98,3.572-13.079,5.643c-5.128,1.99-10.944,4.183-17.417,6.2c-1.617,0.507-3.269,1.025-4.952,1.552     c-1.7,0.472-3.432,0.952-5.193,1.441c-3.508,1.041-7.214,1.811-10.993,2.737c-1.89,0.464-3.839,0.776-5.796,1.174     c-1.966,0.35-3.939,0.809-5.966,1.081c-4.052,0.549-8.172,1.293-12.418,1.597c-2.118,0.193-4.253,0.415-6.407,0.587     c-2.161,0.085-4.337,0.171-6.527,0.257c-4.379,0.251-8.826,0.147-13.301-0.046c-1.119-0.066-2.239-0.132-3.362-0.198     c-0.578-0.043-1.087-0.07-1.721-0.136l-1.665-0.168l-3.336-0.337c-1.11-0.101-2.228-0.225-3.362-0.41     c-2.25-0.355-4.54-0.614-6.773-1.054c-2.231-0.452-4.485-0.823-6.705-1.346c-8.91-1.969-17.64-4.752-25.974-8.138     c-8.345-3.371-16.227-7.488-23.522-11.996c-7.26-4.568-13.903-9.575-19.774-14.798c-1.49-1.28-2.897-2.613-4.279-3.929     c-1.405-1.292-2.713-2.643-4.011-3.957c-2.573-2.652-4.946-5.323-7.143-7.954c-4.392-5.262-7.981-10.446-10.806-15.246     c-2.821-4.806-4.851-9.249-6.143-13.042c-0.166-0.472-0.326-0.931-0.482-1.378c-0.13-0.457-0.255-0.9-0.377-1.33     c-0.235-0.862-0.496-1.653-0.628-2.426c-0.156-0.762-0.301-1.467-0.434-2.113c-0.072-0.658-0.137-1.255-0.194-1.79     c-0.155-1.06-0.069-1.898-0.095-2.447c-0.001-0.552-0.001-0.837-0.001-0.837h0.5c0,0,0.033,0.277,0.097,0.813     c0.089,0.534,0.095,1.332,0.367,2.345c0.365,2.043,1.295,4.976,2.882,8.514c1.615,3.529,3.921,7.662,6.978,12.129     c3.046,4.473,6.857,9.265,11.351,14.181c2.249,2.456,4.671,4.942,7.285,7.402c1.301,1.236,2.609,2.507,4.014,3.718     c1.381,1.235,2.786,2.485,4.271,3.681c5.873,4.862,12.353,9.638,19.393,14.056c7.001,4.479,14.596,8.542,22.579,12.094     c7.988,3.542,16.43,6.419,25.061,8.556c2.153,0.556,4.341,0.96,6.509,1.448c2.172,0.476,4.351,0.764,6.522,1.157l1.632,0.27     l1.667,0.203l3.329,0.406l1.66,0.203c0.474,0.062,1.075,0.11,1.606,0.16c1.097,0.088,2.192,0.175,3.285,0.262     c4.375,0.28,8.733,0.475,13.039,0.315c2.154-0.04,4.295-0.079,6.42-0.118c2.122-0.126,4.228-0.302,6.318-0.448     c4.189-0.211,8.268-0.862,12.28-1.32c2.007-0.227,3.965-0.641,5.916-0.946c1.943-0.349,3.882-0.596,5.763-1.006     c3.763-0.813,7.458-1.473,10.963-2.408c1.761-0.436,3.491-0.865,5.19-1.285c1.685-0.477,3.337-0.946,4.957-1.404     c6.483-1.825,12.323-3.844,17.482-5.682c5.128-1.919,9.572-3.677,13.175-5.256c3.621-1.539,6.408-2.88,8.307-3.792     c1.892-0.921,2.885-1.451,2.885-1.451L501.682,483.502z" fill="#FFE082" id="XMLID_481_"/><path d="M518.348,624.36c0,0-0.196,0.27-0.576,0.792c-0.402,0.509-0.896,1.327-1.729,2.279     c-1.585,1.976-4.139,4.654-7.747,7.664c-3.611,3.001-8.309,6.268-14.005,9.474c-5.695,3.207-12.374,6.375-19.886,9.251     c-3.767,1.405-7.715,2.817-11.869,4.067c-1.04,0.316-2.089,0.634-3.146,0.955c-1.056,0.297-2.12,0.597-3.191,0.899     c-2.168,0.578-4.376,1.154-6.617,1.684c-8.969,2.145-18.58,3.771-28.592,4.814c-10.01,1.035-20.438,1.464-31.012,1.159     c-5.29-0.151-10.618-0.483-15.951-1.014c-5.34-0.546-10.659-1.197-15.991-2.228c-2.628-0.512-5.236-0.889-7.886-1.575     l-3.96-0.934l-1.978-0.47l-1.94-0.555c-5.188-1.424-10.295-3.067-15.287-4.904c-9.993-3.659-19.458-8.227-28.253-13.252     c-8.754-5.099-16.854-10.652-24.044-16.522c-3.634-2.898-7.001-5.871-10.238-8.855c-1.559-1.499-3.101-2.925-4.584-4.461     c-0.745-0.753-1.482-1.498-2.212-2.236c-0.706-0.754-1.405-1.5-2.097-2.239c-5.517-5.922-10.139-11.749-13.87-17.166     c-3.715-5.432-6.515-10.473-8.392-14.823c-1.911-4.333-2.89-7.974-3.202-10.501c-0.226-1.252-0.209-2.236-0.222-2.893     c-0.013-0.655-0.021-0.993-0.021-0.993h0.5c0,0,0.04,0.327,0.116,0.962c0.076,0.633,0.149,1.571,0.489,2.763     c0.242,1.205,0.758,2.643,1.34,4.325c0.349,0.823,0.725,1.707,1.125,2.65c0.44,0.927,0.947,1.895,1.459,2.923     c2.179,4.061,5.235,8.778,9.17,13.865c3.937,5.088,8.77,10.525,14.382,16.107c0.703,0.695,1.414,1.398,2.132,2.107     c0.733,0.686,1.474,1.379,2.221,2.078c1.462,1.407,3.091,2.8,4.698,4.232c3.181,2.779,6.582,5.629,10.194,8.353     c7.187,5.519,15.131,10.857,23.668,15.818c8.508,5.011,17.685,9.534,27.314,13.383c4.82,1.912,9.761,3.635,14.796,5.118     l1.883,0.581l1.896,0.49l3.798,0.979c2.499,0.71,5.171,1.156,7.769,1.717c5.127,1.088,10.402,1.83,15.624,2.456     c5.235,0.614,10.474,1.033,15.682,1.273c10.421,0.484,20.702,0.242,30.61-0.606c9.909-0.841,19.425-2.332,28.346-4.226     c2.233-0.473,4.416-0.988,6.565-1.508c1.079-0.277,2.15-0.552,3.211-0.824c1.048-0.292,2.088-0.581,3.119-0.868     c4.14-1.14,8.078-2.446,11.84-3.75c7.502-2.673,14.187-5.655,19.897-8.695c5.711-3.04,10.433-6.162,14.07-9.044     c3.631-2.886,6.224-5.484,7.813-7.372c0.838-0.911,1.363-1.732,1.773-2.227c0.392-0.513,0.595-0.778,0.595-0.778L518.348,624.36z     " fill="#FFE082" id="XMLID_480_"/><path d="M451.583,326.379c0,0-2.698,1.26-7.583,3.005c-2.445,0.87-5.438,1.864-8.915,2.859     c-3.478,0.991-7.43,2.031-11.792,2.942c-4.352,0.969-9.125,1.743-14.192,2.445c-2.542,0.273-5.15,0.64-7.834,0.791     c-1.341,0.096-2.697,0.194-4.066,0.292c-1.373,0.049-2.757,0.098-4.154,0.147c-5.599,0.203-11.36,0.077-17.272-0.439     c-1.455-0.155-2.888-0.24-4.376-0.454c-1.484-0.217-2.985-0.407-4.47-0.652c-1.472-0.279-2.948-0.557-4.425-0.837l-4.396-1.031     c-5.841-1.479-11.552-3.472-17.013-5.822c-5.462-2.348-10.642-5.133-15.388-8.236c-4.732-3.125-9.053-6.53-12.841-10.086     c-0.935-0.902-1.856-1.792-2.764-2.668c-0.876-0.907-1.739-1.801-2.588-2.679c-0.808-0.917-1.603-1.817-2.382-2.701     c-0.749-0.912-1.496-1.794-2.201-2.68c-2.815-3.551-5.089-7.048-6.872-10.273c-1.776-3.231-3.026-6.215-3.808-8.753     c-0.775-2.54-1.143-4.607-1.192-6.036c-0.083-0.703,0.003-1.261-0.008-1.623c0.01-0.365,0.016-0.553,0.016-0.553h0.5     c0,0,0.027,0.181,0.08,0.531c0.075,0.348,0.081,0.866,0.281,1.524c0.283,1.325,0.936,3.219,1.996,5.511     c1.078,2.287,2.6,4.971,4.623,7.864c2.008,2.903,4.51,6.012,7.435,9.221c0.745,0.789,1.506,1.594,2.282,2.415     c0.803,0.793,1.622,1.601,2.455,2.422c0.852,0.801,1.718,1.616,2.597,2.443c0.908,0.796,1.829,1.604,2.763,2.423     c3.801,3.2,7.971,6.377,12.496,9.353c4.507,2.998,9.35,5.828,14.471,8.326c5.12,2.5,10.549,4.581,16.114,6.221l4.203,1.128     c1.416,0.314,2.83,0.628,4.242,0.942c1.412,0.279,2.822,0.502,4.229,0.757c1.405,0.25,2.889,0.388,4.321,0.587     c5.663,0.676,11.374,0.988,16.854,0.96c1.374-0.005,2.736-0.01,4.085-0.015c1.349-0.054,2.685-0.108,4.007-0.161     c2.647-0.068,5.224-0.347,7.744-0.504c5.021-0.49,9.769-1.063,14.111-1.846c4.353-0.727,8.308-1.598,11.797-2.44     c3.486-0.853,6.499-1.71,8.969-2.452c4.939-1.506,7.664-2.625,7.664-2.625L451.583,326.379z" fill="#FFE082" id="XMLID_478_"/><path d="M422.401,212.224c0,0-1.758,1.257-5.098,2.941c-1.661,0.868-3.743,1.783-6.165,2.761     c-2.442,0.915-5.215,1.935-8.327,2.761c-1.542,0.472-3.186,0.804-4.873,1.226c-1.704,0.331-3.462,0.724-5.291,0.992     c-1.827,0.28-3.708,0.563-5.646,0.708c-1.933,0.22-3.916,0.302-5.936,0.388c-4.039,0.18-8.226,0.072-12.459-0.312     c-2.057-0.15-4.259-0.438-6.386-0.744c-1.063-0.177-2.135-0.326-3.198-0.528l-3.188-0.635c-4.245-0.905-8.425-2.129-12.471-3.559     c-4.046-1.431-7.928-3.159-11.518-5.152c-3.577-2.014-6.878-4.253-9.784-6.659c-0.728-0.599-1.426-1.216-2.123-1.808     c-0.675-0.62-1.339-1.23-1.993-1.831c-0.622-0.634-1.233-1.258-1.833-1.87c-0.575-0.636-1.14-1.26-1.692-1.872     c-2.165-2.488-3.898-4.991-5.233-7.323c-1.327-2.34-2.244-4.52-2.764-6.39c-0.527-1.869-0.706-3.392-0.712-4.427     c-0.022-0.515,0.041-0.916,0.046-1.178c0.017-0.263,0.026-0.399,0.026-0.399h0.5c0,0,0.024,0.129,0.07,0.379     c0.058,0.249,0.087,0.618,0.228,1.086c0.242,0.94,0.708,2.283,1.513,3.887c0.809,1.601,1.982,3.453,3.527,5.422     c1.534,1.978,3.457,4.058,5.692,6.18c0.57,0.519,1.152,1.049,1.745,1.589c0.614,0.516,1.24,1.042,1.876,1.576     c0.648,0.52,1.308,1.049,1.977,1.586c0.689,0.512,1.389,1.031,2.098,1.558c2.884,2.043,6.018,4.067,9.388,5.952     c3.354,1.909,6.926,3.717,10.67,5.329c3.745,1.613,7.687,2.949,11.703,4.033l3.031,0.744c1.012,0.239,2.035,0.427,3.051,0.643     c1.019,0.229,2.028,0.358,3.04,0.541c0.998,0.184,2.04,0.318,3.081,0.448c4.077,0.553,8.132,0.837,12.055,0.835     c1.963,0.003,3.896,0.01,5.783-0.122c1.892-0.061,3.732-0.253,5.529-0.416c1.797-0.16,3.529-0.447,5.214-0.676     c1.667-0.319,3.298-0.552,4.829-0.929c3.094-0.637,5.866-1.483,8.319-2.247c2.429-0.832,4.535-1.609,6.228-2.349     c3.409-1.447,5.2-2.559,5.2-2.559L422.401,212.224z" fill="#FFE082" id="XMLID_475_"/></g><g id="XMLID_4689_"><polygon fill="#FFFFFF" id="XMLID_4705_" points="409.314,445.16 408.632,458.222 421.555,465.447 407.941,466.658      406.808,481.581 398.576,469.037 385.508,471.335 394.083,460.622 389.744,451.119 399.548,454.451    "/><polygon fill="#FFFFFF" id="XMLID_4704_" points="228.34,613.712 227.507,629.674 243.299,638.503 226.664,639.982      225.278,658.218 215.219,642.891 199.251,645.699 209.729,632.607 204.427,620.996 216.406,625.066    "/><polygon fill="#FFD54F" id="XMLID_4703_" points="452.642,591.775 449.918,606.632 461.391,611.147 449.496,611.786      450.454,628.022 443.775,613.238 433.893,617.086 441.029,608.097 432.331,599.275 444.368,604.327    "/><polygon fill="#FFD54F" id="XMLID_4702_" points="391.553,355.079 392.423,368.528 403.896,373.045 392.001,373.682      392.022,382.264 386.28,375.136 376.398,378.983 383.535,369.994 374.836,361.172 386.874,366.224    "/><polygon fill="#FFD54F" id="XMLID_4701_" points="380.14,285.637 370.085,283.359 366.68,291.056 366.581,282.924      355.479,283.119 365.751,278.981 363.406,272.132 369.336,277.254 375.6,271.57 371.813,279.637    "/><polygon fill="#FFD54F" id="XMLID_4700_" points="256.401,456.87 246.346,454.593 242.941,462.291 242.841,454.16      231.74,454.354 242.013,450.216 239.667,443.366 245.598,448.489 251.86,442.805 248.074,450.873    "/><polygon fill="#FFD54F" id="XMLID_4699_" points="311.397,687.691 301.342,685.413 297.937,693.11 297.837,684.979      286.735,685.174 297.008,681.036 294.663,674.186 300.593,679.308 306.856,673.625 303.07,681.691    "/><polygon fill="#FFFFFF" id="XMLID_4698_" points="305.277,324.639 311.224,336.289 326.028,336.08 314.845,343.938      317.862,354.614 307.928,350.685 297.762,359.215 299.827,345.646 291.316,339.59 301.47,337.57    "/><polygon fill="#FFFFFF" id="XMLID_4697_" points="332.466,584.976 338.412,596.626 353.216,596.418 342.034,604.276      345.05,614.952 335.116,611.022 324.952,619.552 327.015,605.984 318.505,599.927 328.658,597.908    "/><polygon fill="#FFFFFF" id="XMLID_4696_" points="467.455,662.836 473.399,674.486 488.204,674.277 477.021,682.136      480.038,692.812 470.104,688.882 459.939,697.411 462.002,683.843 453.492,677.787 463.646,675.768    "/><polygon fill="#FFFFFF" id="XMLID_4695_" points="331.706,414.591 329.895,422.309 336.824,428.011 328.572,427.27      325.788,433.388 322.729,427.68 314.687,427.645 320.955,422.176 319.389,416.04 324.88,419.082    "/><polygon fill="#FFFFFF" id="XMLID_4694_" points="371.702,687.066 369.89,694.784 376.82,700.486 368.569,699.744      365.784,705.863 362.725,700.156 354.683,700.12 360.95,694.651 359.386,688.516 364.875,691.559    "/><polygon fill="#FFFFFF" id="XMLID_4693_" points="362.953,175.862 361.141,183.58 368.072,189.282 359.82,188.541      357.035,194.66 353.976,188.952 345.934,188.916 352.202,183.447 350.637,177.311 356.126,180.354    "/><polygon fill="#FFFFFF" id="XMLID_4692_" points="284.41,213.375 292.088,221.689 304.372,218.052 296.896,227.216      301.905,235.402 292.71,234.456 286.237,243.936 284.783,232.152 276.276,229.097 284.263,225.038    "/><polygon fill="#FFFFFF" id="XMLID_4691_" points="413.616,285.368 417.043,296.153 429.709,298.071 419.053,303.198      420.116,312.737 412.189,307.979 402.307,313.818 405.989,302.53 399.583,296.155 408.537,295.867    "/><path d="M272.152,527.978c-11.361-5.873-15.81-19.845-9.937-31.206     c2.458-4.756,6.34-8.296,10.852-10.378c-9.187-0.21-19.484,4.86-23.988,13.572c-6.297,12.181-3.396,26.354,7.878,34.159     c9.311,6.447,26.501,4.041,32.126-4.437C283.624,531.231,277.591,530.791,272.152,527.978z" fill="#FFFFFF" id="XMLID_4690_"/></g></g><g id="XMLID_4673_"><g id="XMLID_4678_"><path d="M728.188,700.593c0,0-0.11-0.107-0.314-0.352c-0.204-0.301-0.463-0.746-0.648-1.34     c-0.415-1.195-0.665-2.996-0.717-5.261c-0.063-2.27,0.093-5.009,0.457-8.123c0.385-3.109,0.96-6.6,1.841-10.352     c0.441-1.876,0.939-3.822,1.508-5.824c0.592-1.995,1.253-4.045,1.995-6.137c1.475-4.186,3.349-8.516,5.821-12.792     c1.255-2.125,2.675-4.237,4.361-6.238c1.691-1.994,3.664-3.902,6.149-5.383c1.243-0.731,2.648-1.322,4.167-1.634     c1.514-0.316,3.143-0.32,4.664,0.027c1.526,0.34,2.919,0.994,4.148,1.783l0.893,0.622c0.285,0.218,0.553,0.449,0.829,0.674     c0.281,0.221,0.535,0.462,0.784,0.705c0.267,0.262,0.469,0.436,0.788,0.772c0.851,0.943,1.705,1.849,2.551,2.822     c0.815,1.075,1.717,2.088,2.439,3.214l1.085,1.683c0.377,0.545,0.633,1.192,0.952,1.783c0.659,1.17,1.063,2.506,1.495,3.794     c0.736,2.657,0.742,5.581-0.048,8.193c-0.777,2.625-2.229,4.871-3.841,6.783c-3.317,3.771-7.174,6.474-10.854,8.852     c-3.696,2.372-7.274,4.404-10.535,6.329c-3.263,1.92-6.225,3.71-8.75,5.436c-2.528,1.721-4.621,3.366-6.265,4.813     c-1.604,1.485-2.759,2.762-3.477,3.685l-1.245,1.69L728.188,700.593z M728.4,699.966c0.169-0.259,0.431-0.659,0.783-1.196     c0.683-0.986,1.792-2.358,3.35-3.968c1.589-1.574,3.64-3.36,6.125-5.222c2.478-1.872,5.382-3.82,8.561-5.899     c3.176-2.083,6.646-4.28,10.152-6.772c3.481-2.498,7.12-5.25,9.943-8.742c1.37-1.754,2.494-3.698,3.023-5.781     c0.535-2.079,0.46-4.271-0.206-6.396c-0.412-1.044-0.753-2.114-1.372-3.109c-0.298-0.499-0.514-1.029-0.875-1.504l-1.016-1.451     c-0.671-0.973-1.498-1.816-2.23-2.734c-0.843-0.901-1.759-1.804-2.635-2.706c-0.758-0.682-1.682-1.478-2.586-1.986     c-0.919-0.533-1.866-0.912-2.809-1.077c-1.881-0.349-3.771,0.206-5.52,1.363c-1.747,1.16-3.299,2.807-4.697,4.574     c-1.376,1.797-2.646,3.7-3.763,5.678c-2.284,3.928-4.146,7.998-5.808,11.91c-0.823,1.961-1.568,3.898-2.247,5.789     c-0.703,1.883-1.339,3.721-1.913,5.499c-1.143,3.557-2.096,6.854-2.82,9.806c-0.728,2.949-1.246,5.55-1.542,7.698     c-0.297,2.147-0.363,3.852-0.22,4.963c0.055,0.571,0.196,0.953,0.278,1.191C728.372,699.918,728.386,699.94,728.4,699.966z" fill="#37474F" id="XMLID_472_"/><path d="M726.57,697.45c0.005-0.028,0.013-0.053,0.019-0.084c0.008-0.251,0.03-0.659-0.086-1.221     c-0.193-1.106-0.761-2.718-1.68-4.685c-0.919-1.968-2.183-4.305-3.75-6.913c-1.563-2.612-3.449-5.488-5.591-8.557     c-1.073-1.533-2.224-3.106-3.451-4.702c-1.207-1.61-2.491-3.245-3.855-4.882c-2.742-3.258-5.722-6.609-9.063-9.704     c-1.651-1.567-3.423-3.022-5.269-4.343c-1.856-1.289-3.825-2.416-5.839-3.032c-2.015-0.603-3.994-0.604-5.694,0.267     c-0.855,0.427-1.652,1.062-2.377,1.837c-0.716,0.75-1.37,1.779-1.894,2.654c-0.573,1.121-1.188,2.255-1.727,3.365l-0.688,1.625     c-0.229,0.542-0.48,1.076-0.638,1.648l-0.545,1.688c-0.196,0.562-0.252,1.132-0.389,1.697c-0.121,0.566-0.257,1.133-0.268,1.694     c-0.032,0.561-0.118,1.129-0.113,1.684c-0.017,2.232,0.586,4.347,1.719,6.177c1.134,1.834,2.788,3.362,4.619,4.638     c3.73,2.518,8.022,4.091,12.085,5.475c4.086,1.37,8.051,2.467,11.7,3.542c3.652,1.071,7.001,2.094,9.92,3.168     c2.924,1.063,5.408,2.18,7.39,3.224c1.962,1.089,3.424,2.08,4.367,2.825C725.964,696.945,726.333,697.251,726.57,697.45z      M726.557,698.09c0,0-0.502-0.373-1.444-1.073c-0.958-0.675-2.438-1.561-4.407-2.517c-1.998-0.907-4.481-1.877-7.405-2.792     c-2.922-0.921-6.282-1.777-9.968-2.67c-3.685-0.898-7.705-1.807-11.937-3.006c-4.219-1.211-8.702-2.674-12.982-5.31     c-2.104-1.354-4.156-3.069-5.684-5.342c-1.533-2.255-2.425-5.053-2.5-7.815c-0.03-0.688,0.036-1.367,0.055-2.055     c-0.001-0.695,0.125-1.356,0.24-2.023c0.129-0.66,0.189-1.353,0.381-1.99l0.543-1.931c0.16-0.652,0.417-1.276,0.658-1.906     l0.73-1.892c0.523-1.184,1.077-2.3,1.614-3.453c0.208-0.417,0.35-0.642,0.529-0.972c0.167-0.307,0.341-0.611,0.545-0.906     c0.374-0.602,0.81-1.18,1.274-1.746c0.95-1.116,2.102-2.147,3.471-2.911c1.364-0.77,2.93-1.229,4.473-1.355     c1.546-0.134,3.058,0.037,4.462,0.374c2.803,0.708,5.246,1.96,7.444,3.379c2.198,1.424,4.173,3.033,5.998,4.699     c3.62,3.37,6.685,6.965,9.328,10.539c1.326,1.784,2.562,3.553,3.716,5.288c1.133,1.75,2.184,3.465,3.159,5.131     c1.949,3.332,3.53,6.503,4.816,9.365c1.268,2.873,2.226,5.448,2.837,7.638c0.62,2.184,0.914,3.98,0.873,5.246     c-0.001,0.623-0.117,1.126-0.223,1.474l-0.354,0.712L726.557,698.09z" fill="#37474F" id="XMLID_471_"/></g><path d="M816.207,895.014c-60.106,3.851-120.391,4.001-180.513,0.446    c4.023-68.091,8.045-136.183,12.07-204.273c51.745,3.056,103.63,2.928,155.358-0.387    C807.484,758.871,811.845,826.944,816.207,895.014z" fill="#26A69A" id="XMLID_4677_"/><path d="M728.046,689.49c0,0,0.196,3.322,0.381,9.132c0.098,2.905,0.184,6.431,0.261,10.476    c0.063,4.044,0.136,8.607,0.144,13.582c0.005,2.488,0.01,5.079,0.016,7.761c-0.021,2.681-0.042,5.453-0.064,8.303    c-0.028,5.7-0.159,11.708-0.335,17.921c-0.202,6.213-0.49,12.631-0.819,19.151c-0.302,6.521-0.609,13.146-0.917,19.77    c-0.573,13.25-1.146,26.5-1.683,38.923c-0.273,6.211-0.538,12.215-0.789,17.908c-0.269,5.693-0.522,11.075-0.757,16.043    c-0.962,19.873-1.604,33.121-1.604,33.121l-0.5-0.015c0,0,0.129-13.263,0.323-33.158c0.055-4.974,0.114-10.362,0.177-16.061    c0.08-5.698,0.165-11.707,0.252-17.924c0.186-12.432,0.384-25.694,0.582-38.955c0.078-6.631,0.156-13.262,0.233-19.79    c0.051-6.528,0.136-12.952,0.295-19.166c0.186-6.213,0.404-12.219,0.707-17.91c0.144-2.846,0.283-5.615,0.418-8.293    c0.161-2.677,0.317-5.264,0.466-7.747c0.297-4.966,0.635-9.517,0.933-13.551c0.311-4.033,0.602-7.549,0.869-10.443    c0.523-5.789,0.911-9.094,0.911-9.094L728.046,689.49z" fill="#37474F" id="XMLID_468_"/></g><g id="XMLID_4654_"><g id="XMLID_4662_"><path d="M227.594,714.6c0.028,0.034-0.526-0.419-0.866-1.444     c-0.367-1.016-0.607-2.546-0.676-4.47c-0.075-1.927,0.026-4.254,0.316-6.897c0.303-2.64,0.771-5.603,1.506-8.786     c0.367-1.592,0.784-3.243,1.26-4.943c0.5-1.692,1.061-3.431,1.69-5.207c1.25-3.553,2.852-7.227,4.986-10.854     c1.094-1.797,2.306-3.596,3.782-5.287c1.471-1.689,3.187-3.312,5.377-4.549c1.092-0.611,2.321-1.112,3.655-1.356     c1.329-0.252,2.753-0.23,4.075,0.089c2.685,0.646,4.734,2.245,6.381,3.951l1.105,1.175c0.375,0.428,0.766,0.85,1.124,1.284     c0.716,0.865,1.417,1.747,2.052,2.692c1.284,1.868,2.385,3.943,3.002,6.24c0.632,2.285,0.62,4.828-0.096,7.075     c-0.697,2.263-1.985,4.164-3.392,5.762c-2.864,3.182-6.16,5.432-9.294,7.415c-3.15,1.971-6.189,3.663-8.959,5.263     c-2.772,1.596-5.284,3.088-7.431,4.521c-2.151,1.428-3.936,2.793-5.323,4.01c-1.382,1.223-2.354,2.302-2.97,3.072     c-0.312,0.382-0.533,0.689-0.678,0.899c-0.148,0.208-0.225,0.315-0.225,0.315L227.594,714.6z M227.799,713.942     c0.135-0.225,0.335-0.545,0.62-0.945c0.582-0.833,1.509-2.009,2.844-3.355c1.334-1.346,3.079-2.851,5.186-4.419     c2.1-1.579,4.555-3.23,7.244-4.985c2.685-1.759,5.617-3.615,8.581-5.71c2.936-2.105,6.02-4.408,8.39-7.32     c1.17-1.45,2.127-3.061,2.566-4.776c0.451-1.709,0.388-3.502-0.172-5.25c-0.553-1.749-1.524-3.443-2.721-5.024     c-0.586-0.797-1.249-1.559-1.926-2.309c-0.337-0.374-0.69-0.72-1.032-1.082l-1.14-1.11c-1.359-1.285-2.935-2.283-4.447-2.536     c-1.507-0.281-3.004,0.135-4.437,1.071c-1.433,0.919-2.724,2.283-3.894,3.743c-1.157,1.482-2.219,3.076-3.168,4.722     c-1.94,3.274-3.528,6.685-4.961,9.961c-0.708,1.643-1.353,3.267-1.939,4.854c-0.609,1.579-1.164,3.121-1.663,4.614     c-0.996,2.986-1.843,5.754-2.483,8.234c-0.654,2.477-1.117,4.662-1.402,6.467c-0.281,1.805-0.358,3.235-0.262,4.17     C227.625,713.407,227.714,713.732,227.799,713.942z" fill="#37474F" id="XMLID_465_"/><path d="M226.207,711.829c0.018-0.226,0.007-0.563-0.087-1.007     c-0.188-0.925-0.691-2.271-1.5-3.916c-0.813-1.644-1.909-3.599-3.273-5.778c-1.353-2.186-2.988-4.586-4.829-7.153     c-0.922-1.282-1.911-2.596-2.964-3.929c-1.033-1.347-2.132-2.713-3.298-4.079c-2.345-2.717-4.876-5.521-7.701-8.094     c-1.396-1.301-2.883-2.522-4.429-3.612c-1.552-1.065-3.19-2.007-4.839-2.49c-1.653-0.495-3.223-0.485-4.585,0.204     c-1.377,0.66-2.596,2.073-3.518,3.7l-0.765,1.4c-0.221,0.448-0.457,0.882-0.669,1.341c-0.427,0.918-0.836,1.844-1.157,2.781     c-0.672,1.868-1.092,3.779-1.082,5.615c-0.012,1.841,0.497,3.568,1.453,5.069c0.953,1.505,2.35,2.769,3.908,3.811     c3.14,2.093,6.77,3.41,10.202,4.579c3.455,1.154,6.809,2.089,9.896,3.004c3.09,0.91,5.925,1.786,8.398,2.697     c2.478,0.898,4.588,1.838,6.261,2.742c1.672,0.905,2.905,1.762,3.707,2.391C225.726,711.405,226.011,711.654,226.207,711.829z      M226.204,712.49c0,0-0.105-0.08-0.308-0.236c-0.201-0.158-0.502-0.388-0.915-0.664c-0.817-0.558-2.065-1.311-3.747-2.084     c-1.686-0.766-3.796-1.56-6.275-2.311c-2.477-0.757-5.321-1.465-8.445-2.199c-3.124-0.739-6.531-1.486-10.127-2.466     c-3.585-0.995-7.399-2.201-11.079-4.399c-1.82-1.109-3.61-2.545-4.969-4.483c-1.366-1.919-2.181-4.342-2.265-6.723     c-0.117-2.388,0.315-4.712,0.987-6.887c0.326-1.098,0.736-2.151,1.167-3.193c0.214-0.522,0.466-1.043,0.699-1.565l0.713-1.454     c0.551-1.089,1.178-2.119,2-3.1c0.81-0.974,1.812-1.879,3.007-2.552c1.188-0.68,2.558-1.095,3.906-1.22     c1.35-0.132,2.67,0,3.888,0.281c2.447,0.571,4.556,1.631,6.455,2.823c1.904,1.192,3.591,2.562,5.166,3.963     c3.11,2.85,5.728,5.896,7.979,8.931c1.128,1.515,2.18,3.015,3.162,4.488c0.961,1.487,1.851,2.945,2.676,4.361     c1.65,2.831,2.981,5.529,4.059,7.967c1.066,2.444,1.858,4.642,2.363,6.509c0.511,1.863,0.74,3.398,0.695,4.481     c-0.016,1.082-0.414,1.684-0.396,1.642L226.204,712.49z" fill="#37474F" id="XMLID_464_"/></g><path d="M296.163,866.107c-46.917,3.006-93.973,3.124-140.902,0.349    c3.141-53.149,6.28-106.299,9.422-159.448c40.39,2.385,80.889,2.285,121.267-0.302    C289.354,759.84,292.758,812.975,296.163,866.107z" fill="#FFB74D" id="XMLID_4661_"/><path d="M292.227,761.801c0,0-2.091,0.204-5.744,0.402c-1.827,0.105-4.044,0.199-6.586,0.285    c-2.542,0.072-5.409,0.156-8.533,0.175c-1.563,0.011-3.19,0.022-4.875,0.033c-1.683-0.014-3.423-0.029-5.213-0.045    c-3.579-0.015-7.349-0.132-11.247-0.293c-3.897-0.188-7.921-0.461-12.008-0.774c-4.088-0.287-8.241-0.579-12.394-0.871    c-8.308-0.542-16.615-1.083-24.403-1.591c-3.894-0.259-7.658-0.51-11.228-0.747c-3.569-0.255-6.943-0.497-10.058-0.719    c-12.457-0.916-20.762-1.526-20.762-1.526l0.021-0.5c0,0,8.326,0.099,20.816,0.246c3.122,0.043,6.504,0.09,10.082,0.139    c3.577,0.067,7.349,0.138,11.251,0.21c7.803,0.157,16.127,0.324,24.451,0.491c4.162,0.063,8.325,0.125,12.423,0.187    c4.099,0.036,8.131,0.105,12.03,0.25c3.897,0.171,7.664,0.375,11.231,0.665c1.784,0.137,3.52,0.27,5.198,0.399    c1.678,0.155,3.298,0.304,4.854,0.448c3.112,0.285,5.962,0.612,8.488,0.901c2.525,0.302,4.726,0.584,6.538,0.844    c3.623,0.509,5.689,0.889,5.689,0.889L292.227,761.801z" fill="#37474F" id="XMLID_457_"/><path d="M227.532,705.221c0,0,0.267,2.603,0.576,7.156c0.16,2.277,0.322,5.041,0.484,8.212    c0.149,3.17,0.319,6.748,0.433,10.649c0.058,1.951,0.118,3.983,0.181,6.086c0.037,2.103,0.074,4.277,0.113,6.512    c0.093,4.47,0.09,9.183,0.047,14.058c-0.069,4.875-0.221,9.911-0.411,15.029c-0.164,5.117-0.33,10.316-0.496,15.515    c-0.29,10.398-0.581,20.796-0.853,30.544c-0.142,4.874-0.278,9.586-0.408,14.054c-0.147,4.468-0.286,8.691-0.415,12.591    c-0.539,15.596-0.897,25.993-0.897,25.993l-0.5-0.005c0,0-0.153-10.402-0.383-26.006c-0.051-3.901-0.107-8.127-0.166-12.596    c-0.041-4.47-0.084-9.183-0.129-14.059c-0.079-9.752-0.164-20.153-0.249-30.555c-0.063-5.201-0.126-10.402-0.189-15.522    c-0.088-5.12-0.14-10.158-0.113-15.034c0.054-4.875,0.144-9.587,0.325-14.054c0.083-2.234,0.164-4.407,0.242-6.509    c0.104-2.102,0.205-4.132,0.301-6.081c0.191-3.898,0.432-7.471,0.643-10.638c0.226-3.167,0.441-5.927,0.646-8.2    c0.399-4.546,0.717-7.144,0.717-7.144L227.532,705.221z" fill="#37474F" id="XMLID_452_"/></g><g id="XMLID_4635_"><g id="XMLID_4643_"><path d="M307.687,761.274c0.026,0.033-0.464-0.371-0.771-1.26     c-0.332-0.884-0.561-2.211-0.648-3.882c-0.093-1.673-0.037-3.693,0.177-5.99c0.228-2.293,0.591-4.869,1.189-7.638     c0.298-1.385,0.638-2.822,1.028-4.302c0.415-1.472,0.879-2.987,1.403-4.535c1.037-3.099,2.384-6.304,4.193-9.485     c0.929-1.575,1.957-3.159,3.222-4.655c1.255-1.499,2.728-2.945,4.626-4.094c0.953-0.564,2.028-1.043,3.217-1.301     c1.183-0.263,2.474-0.282,3.676-0.015c1.207,0.259,2.293,0.778,3.234,1.392c0.951,0.629,1.723,1.32,2.484,2.117l0.938,1.022     l0.971,1.133c0.615,0.761,1.215,1.536,1.764,2.364c1.106,1.638,2.054,3.455,2.605,5.463c0.542,2.005,0.583,4.226-0.005,6.221     c-0.574,2.005-1.673,3.695-2.871,5.122c-2.457,2.829-5.301,4.809-8.004,6.551c-2.718,1.728-5.339,3.206-7.726,4.602     c-2.39,1.392-4.552,2.692-6.4,3.939c-1.851,1.243-3.384,2.43-4.575,3.486c-1.187,1.061-2.02,1.998-2.548,2.664     c-0.268,0.332-0.457,0.597-0.582,0.779c-0.127,0.18-0.193,0.273-0.193,0.273L307.687,761.274z M307.908,760.584     c0.113-0.19,0.264-0.442,0.474-0.745c0.493-0.729,1.279-1.761,2.418-2.946c1.138-1.185,2.629-2.512,4.434-3.895     c1.799-1.393,3.904-2.852,6.208-4.402c2.301-1.554,4.812-3.195,7.339-5.043c2.499-1.858,5.125-3.887,7.083-6.424     c0.958-1.266,1.732-2.652,2.063-4.109c0.34-1.455,0.237-2.963-0.238-4.447c-0.49-1.483-1.317-2.926-2.341-4.282     c-0.502-0.683-1.067-1.338-1.645-1.984l-0.878-0.927l-0.986-0.97c-1.128-1.063-2.467-1.884-3.665-2.043     c-1.196-0.188-2.379,0.203-3.554,1.025c-1.169,0.819-2.235,2.008-3.204,3.281c-0.958,1.29-1.845,2.674-2.638,4.1     c-1.627,2.836-2.967,5.786-4.194,8.614c-0.605,1.419-1.155,2.821-1.657,4.191c-0.527,1.362-1.003,2.693-1.436,3.98     c-0.862,2.575-1.603,4.962-2.17,7.099c-0.578,2.135-0.997,4.017-1.263,5.571c-0.263,1.554-0.35,2.785-0.288,3.59     C307.794,760.161,307.853,760.407,307.908,760.584z" fill="#FFE082" id="XMLID_448_"/><path d="M306.487,758.753c0.001-0.186-0.015-0.438-0.091-0.774     c-0.175-0.789-0.618-1.939-1.324-3.349c-0.709-1.409-1.659-3.087-2.835-4.959c-1.167-1.878-2.573-3.944-4.149-6.156     c-0.79-1.105-1.634-2.239-2.536-3.387c-0.88-1.163-1.815-2.344-2.809-3.524c-1.999-2.346-4.143-4.776-6.527-7.013     c-1.175-1.132-2.427-2.198-3.721-3.151c-1.298-0.935-2.666-1.76-4.023-2.202c-1.364-0.443-2.609-0.471-3.699,0.058     c-1.1,0.503-2.14,1.679-2.908,3.025l-0.661,1.216l-0.569,1.143c-0.363,0.787-0.712,1.579-0.994,2.378     c-0.583,1.596-0.953,3.218-0.988,4.779c-0.021,1.557,0.321,3.03,1.071,4.322c0.742,1.297,1.888,2.396,3.174,3.327     c2.613,1.855,5.717,3.029,8.65,4.075c2.958,1.03,5.837,1.866,8.492,2.679c2.657,0.81,5.096,1.59,7.223,2.397     c2.131,0.796,3.945,1.629,5.379,2.43c1.435,0.801,2.489,1.558,3.173,2.111C306.105,758.408,306.324,758.605,306.487,758.753z      M306.505,759.439c0,0-0.09-0.07-0.264-0.205c-0.172-0.137-0.43-0.336-0.783-0.575c-0.7-0.483-1.77-1.135-3.215-1.804     c-1.448-0.662-3.262-1.349-5.395-1.998c-2.131-0.654-4.58-1.265-7.271-1.898c-2.691-0.638-5.629-1.286-8.734-2.145     c-3.094-0.877-6.393-1.939-9.568-3.927c-1.563-1.015-3.107-2.31-4.242-4.06c-1.146-1.737-1.755-3.873-1.821-5.949     c-0.061-2.082,0.315-4.095,0.895-5.986c0.282-0.952,0.631-1.869,0.996-2.776l0.598-1.367l0.599-1.251     c0.495-0.985,1.032-1.872,1.758-2.751c0.72-0.862,1.608-1.675,2.686-2.275c1.071-0.606,2.313-0.965,3.521-1.059     c1.212-0.101,2.38,0.043,3.456,0.305c2.152,0.544,3.982,1.498,5.621,2.564c1.647,1.062,3.092,2.276,4.441,3.512     c2.659,2.513,4.883,5.185,6.781,7.846c0.953,1.327,1.839,2.641,2.666,3.928c0.806,1.302,1.55,2.577,2.24,3.814     c1.38,2.473,2.48,4.831,3.368,6.957c0.875,2.134,1.519,4.05,1.919,5.677c0.405,1.624,0.574,2.96,0.514,3.902     c-0.033,0.94-0.384,1.47-0.368,1.431L306.505,759.439z" fill="#FFE082" id="XMLID_447_"/></g><polygon fill="#5C6CAD" id="XMLID_4642_" points="360.726,888.257 252.597,889.094 249.215,754.447 361.693,753.09   "/><path d="M362.845,802.439c0,0-1.786,0.215-4.905,0.434c-1.56,0.115-3.452,0.221-5.621,0.321    c-2.169,0.086-4.617,0.185-7.283,0.221c-1.333,0.019-2.722,0.04-4.16,0.06c-1.436-0.005-2.921-0.01-4.448-0.016    c-3.054,0.004-6.27-0.092-9.595-0.232c-3.324-0.166-6.755-0.418-10.24-0.708c-3.486-0.265-7.028-0.534-10.57-0.803    c-7.085-0.496-14.17-0.992-20.812-1.458c-3.321-0.238-6.531-0.468-9.575-0.686c-3.043-0.236-5.921-0.458-8.577-0.664    c-10.625-0.805-17.705-1.412-17.705-1.412l0.021-0.5c0,0,7.106,0.01,17.761,0.133c2.664,0.026,5.55,0.054,8.602,0.084    c3.052,0.047,6.27,0.098,9.599,0.149c6.658,0.114,13.759,0.235,20.86,0.357c3.551,0.04,7.103,0.08,10.599,0.119    c3.498,0.013,6.938,0.061,10.264,0.185c3.324,0.15,6.537,0.333,9.579,0.603c1.521,0.127,3.001,0.251,4.432,0.371    c1.431,0.146,2.813,0.286,4.139,0.421c2.653,0.268,5.083,0.58,7.236,0.854c2.152,0.288,4.028,0.558,5.572,0.809    c3.088,0.489,4.848,0.858,4.848,0.858L362.845,802.439z" fill="#FFE082" id="XMLID_446_"/><path d="M307.7,753.079c0,0,0.271,2.27,0.586,6.24c0.164,1.985,0.329,4.396,0.496,7.16    c0.154,2.765,0.329,5.883,0.448,9.285c0.061,1.701,0.125,3.473,0.19,5.306c0.04,1.833,0.081,3.729,0.122,5.677    c0.1,3.897,0.104,8.007,0.068,12.257c-0.063,4.25-0.207,8.641-0.389,13.102c-0.156,4.462-0.314,8.994-0.473,13.527    c-0.275,9.065-0.55,18.131-0.809,26.63c-0.134,4.25-0.264,8.357-0.387,12.252c-0.141,3.895-0.274,7.578-0.397,10.977    c-0.516,13.597-0.859,22.662-0.859,22.662l-0.5-0.005c0,0-0.168-9.07-0.421-22.674c-0.057-3.401-0.119-7.086-0.184-10.983    c-0.048-3.897-0.098-8.006-0.15-12.258c-0.093-8.502-0.193-17.571-0.293-26.64c-0.071-4.535-0.141-9.07-0.211-13.533    c-0.096-4.464-0.155-8.857-0.135-13.107c0.046-4.25,0.129-8.358,0.304-12.253c0.08-1.948,0.157-3.842,0.232-5.674    c0.102-1.832,0.199-3.602,0.292-5.302c0.185-3.399,0.421-6.514,0.628-9.274c0.221-2.761,0.433-5.167,0.634-7.149    c0.393-3.963,0.707-6.228,0.707-6.228L307.7,753.079z" fill="#FFE082" id="XMLID_443_"/></g><g id="XMLID_4619_"><g id="XMLID_4624_"><path d="M798.384,758.862c0.027,0.034-0.524-0.43-0.863-1.467     c-0.366-1.029-0.607-2.577-0.679-4.526c-0.078-1.951,0.02-4.308,0.301-6.986c0.296-2.675,0.756-5.678,1.479-8.908     c0.361-1.615,0.771-3.291,1.241-5.016c0.494-1.717,1.045-3.484,1.666-5.287c1.233-3.61,2.812-7.345,4.916-11.044     c1.078-1.834,2.27-3.673,3.727-5.41c1.447-1.737,3.138-3.411,5.301-4.73c1.085-0.648,2.304-1.195,3.646-1.49     c1.336-0.301,2.79-0.325,4.147-0.028c1.362,0.289,2.597,0.873,3.672,1.57c1.086,0.713,1.981,1.508,2.854,2.417l1.104,1.193     l1.13,1.311c0.717,0.882,1.419,1.781,2.058,2.739c1.29,1.897,2.391,3.994,3.031,6.303c0.63,2.305,0.684,4.847,0.016,7.14     c-0.652,2.303-1.913,4.258-3.296,5.918c-2.837,3.292-6.152,5.617-9.304,7.669c-3.17,2.036-6.233,3.783-9.025,5.433     c-2.793,1.645-5.324,3.183-7.486,4.658c-2.166,1.469-3.96,2.873-5.352,4.122c-1.387,1.255-2.359,2.361-2.976,3.147     c-0.313,0.391-0.533,0.705-0.678,0.919c-0.148,0.212-0.225,0.322-0.225,0.322L798.384,758.862z M798.591,758.197     c0.135-0.229,0.333-0.554,0.616-0.96c0.581-0.85,1.507-2.051,2.847-3.43c1.338-1.378,3.09-2.922,5.21-4.531     c2.113-1.621,4.585-3.317,7.294-5.121c2.705-1.808,5.657-3.718,8.637-5.874c2.948-2.168,6.045-4.543,8.383-7.542     c1.144-1.498,2.08-3.149,2.489-4.905c0.42-1.752,0.305-3.582-0.258-5.366c-0.58-1.784-1.56-3.508-2.768-5.122     c-0.593-0.813-1.258-1.591-1.938-2.359l-1.038-1.105l-1.152-1.142c-1.351-1.286-2.961-2.301-4.473-2.522     c-1.511-0.252-3.019,0.235-4.455,1.227c-1.433,0.989-2.718,2.404-3.879,3.917c-1.15,1.53-2.201,3.17-3.144,4.855     c-1.922,3.354-3.494,6.835-4.917,10.173c-0.702,1.675-1.339,3.328-1.92,4.943c-0.606,1.606-1.152,3.176-1.647,4.694     c-0.988,3.036-1.825,5.85-2.46,8.369c-0.646,2.516-1.106,4.735-1.388,6.567c-0.278,1.832-0.353,3.283-0.256,4.234     C798.418,757.652,798.507,757.982,798.591,758.197z" fill="#37474F" id="XMLID_439_"/><path d="M796.998,756.039c0.018-0.229,0.006-0.571-0.085-1.018     c-0.185-0.938-0.681-2.303-1.482-3.974c-0.804-1.67-1.892-3.658-3.245-5.876c-1.344-2.223-2.965-4.67-4.797-7.285     c-0.917-1.307-1.898-2.648-2.947-4.008c-1.027-1.374-2.12-2.77-3.281-4.166c-2.335-2.777-4.855-5.647-7.673-8.293     c-1.393-1.336-2.877-2.598-4.424-3.725c-1.552-1.108-3.195-2.086-4.854-2.614c-1.664-0.529-3.248-0.555-4.619,0.128     c-1.381,0.653-2.625,2.094-3.542,3.718l-0.769,1.429l-0.669,1.359c-0.426,0.933-0.835,1.872-1.165,2.822     c-0.684,1.896-1.117,3.832-1.151,5.707c-0.017,1.87,0.407,3.654,1.321,5.207c0.904,1.56,2.282,2.865,3.813,3.964     c3.112,2.186,6.768,3.552,10.22,4.765c3.479,1.192,6.861,2.156,9.977,3.095c3.117,0.934,5.978,1.834,8.472,2.767     c2.499,0.92,4.625,1.885,6.307,2.812c1.683,0.927,2.92,1.806,3.724,2.449C796.517,755.606,796.802,755.859,796.998,756.039z      M796.994,756.705c0,0-0.105-0.083-0.309-0.242c-0.201-0.162-0.503-0.398-0.917-0.681c-0.819-0.573-2.072-1.346-3.765-2.141     c-1.696-0.789-3.823-1.606-6.323-2.379c-2.498-0.78-5.367-1.511-8.52-2.268c-3.152-0.763-6.592-1.539-10.218-2.56     c-3.614-1.043-7.464-2.298-11.139-4.617c-1.808-1.183-3.585-2.684-4.881-4.697c-1.309-1.998-2-4.445-2.071-6.833     c-0.063-2.396,0.378-4.723,1.058-6.914c0.331-1.103,0.74-2.167,1.168-3.22l0.698-1.583l0.707-1.464     c0.57-1.125,1.194-2.146,2.024-3.146c0.825-0.981,1.835-1.9,3.054-2.574c1.211-0.681,2.608-1.082,3.974-1.185     c1.37-0.11,2.696,0.057,3.922,0.36c2.454,0.629,4.561,1.736,6.452,2.975c1.9,1.235,3.578,2.646,5.145,4.086     c3.093,2.923,5.694,6.034,7.927,9.127c1.121,1.543,2.164,3.072,3.138,4.57c0.953,1.513,1.834,2.996,2.651,4.435     c1.635,2.877,2.952,5.615,4.016,8.087c1.052,2.479,1.833,4.704,2.328,6.593c0.5,1.885,0.722,3.435,0.672,4.527     c-0.02,1.091-0.413,1.696-0.396,1.655L796.994,756.705z" fill="#37474F" id="XMLID_438_"/></g><path d="M727.906,914.953c47.391,2.929,94.916,2.94,142.307,0.033    c-3.292-53.674-6.586-107.346-9.878-161.018c-40.788,2.502-81.692,2.493-122.479-0.027    C734.541,807.611,731.224,861.283,727.906,914.953z" fill="#FFD54F" id="XMLID_4623_"/><path d="M863.017,807.106c0,0-2.091,0.201-5.745,0.397c-1.827,0.104-4.044,0.196-6.586,0.279    c-2.542,0.07-5.409,0.151-8.534,0.167c-1.563,0.009-3.19,0.019-4.875,0.029c-1.683-0.016-3.424-0.032-5.213-0.05    c-3.579-0.018-7.35-0.139-11.247-0.303c-3.897-0.191-7.921-0.469-12.007-0.785c-4.088-0.291-8.241-0.587-12.394-0.882    c-8.308-0.55-16.615-1.099-24.403-1.614c-3.894-0.263-7.658-0.517-11.227-0.758c-3.569-0.259-6.943-0.503-10.058-0.729    c-12.457-0.927-20.761-1.545-20.761-1.545l0.021-0.5c0,0,8.327,0.106,20.817,0.266c3.122,0.046,6.504,0.096,10.082,0.148    c3.578,0.07,7.349,0.145,11.251,0.221c7.803,0.164,16.127,0.339,24.451,0.513c4.163,0.067,8.326,0.133,12.423,0.199    c4.099,0.04,8.131,0.113,12.03,0.261c3.897,0.175,7.664,0.383,11.231,0.676c1.784,0.138,3.519,0.273,5.197,0.404    c1.678,0.156,3.298,0.307,4.854,0.452c3.112,0.288,5.961,0.618,8.487,0.909c2.525,0.304,4.726,0.588,6.537,0.85    c3.622,0.512,5.688,0.895,5.688,0.895L863.017,807.106z" fill="#37474F" id="XMLID_437_"/></g><path d="M798.323,749.28c0,0,0.267,2.66,0.576,7.314c0.16,2.327,0.321,5.153,0.484,8.393   c0.149,3.24,0.319,6.896,0.433,10.884c0.058,1.994,0.119,4.071,0.181,6.22c0.037,2.149,0.074,4.372,0.113,6.656   c0.093,4.569,0.09,9.386,0.047,14.369c-0.07,4.982-0.221,10.13-0.411,15.361c-0.163,5.231-0.329,10.545-0.495,15.859   c-0.291,10.628-0.581,21.256-0.853,31.22c-0.142,4.982-0.278,9.798-0.407,14.365c-0.147,4.566-0.287,8.884-0.415,12.869   c-0.539,15.941-0.897,26.569-0.897,26.569l-0.5-0.005c0,0-0.153-10.632-0.383-26.581c-0.051-3.987-0.107-8.306-0.166-12.875   c-0.042-4.568-0.085-9.386-0.13-14.37c-0.079-9.967-0.164-20.599-0.249-31.231c-0.063-5.316-0.126-10.632-0.188-15.865   c-0.088-5.233-0.14-10.383-0.114-15.366c0.054-4.983,0.144-9.799,0.325-14.365c0.083-2.283,0.164-4.504,0.242-6.653   c0.104-2.148,0.205-4.223,0.301-6.216c0.191-3.985,0.432-7.637,0.644-10.874c0.225-3.237,0.44-6.059,0.646-8.382   c0.399-4.647,0.717-7.302,0.717-7.302L798.323,749.28z" fill="#37474F" id="XMLID_435_"/><g id="sack"><g id="XMLID_4607_"><path d="M447.289,557.236c34.58,11.353,69.825,20.567,105.535,27.592     c7.957-40.443,15.911-80.888,23.866-121.332c-30.734-6.045-61.068-13.977-90.828-23.747     C473.003,478.912,460.146,518.074,447.289,557.236z" fill="#80CBC4" id="XMLID_102_"/><path d="M572.158,491.519c0,0-1.603-0.155-4.365-0.578c-1.383-0.206-3.052-0.488-4.961-0.833     c-1.906-0.358-4.056-0.76-6.382-1.268c-1.164-0.253-2.375-0.516-3.629-0.789c-1.247-0.298-2.536-0.605-3.861-0.921     c-2.655-0.618-5.427-1.366-8.284-2.178c-2.849-0.839-5.771-1.781-8.731-2.773c-2.967-0.967-5.98-1.949-8.994-2.932     c-6.04-1.925-12.079-3.849-17.74-5.653c-2.83-0.907-5.564-1.784-8.158-2.616c-2.589-0.848-5.036-1.651-7.295-2.391     c-9.042-2.945-15.051-4.977-15.051-4.977l0.138-0.48c0,0,6.173,1.457,15.403,3.745c2.309,0.568,4.81,1.183,7.456,1.833     c2.641,0.667,5.425,1.371,8.306,2.099c5.758,1.466,11.9,3.03,18.043,4.594c3.077,0.762,6.154,1.524,9.183,2.274     c3.036,0.725,6.015,1.472,8.876,2.269c2.853,0.823,5.601,1.655,8.181,2.536c1.292,0.433,2.548,0.855,3.764,1.262     c1.208,0.433,2.375,0.851,3.497,1.252c2.242,0.801,4.279,1.598,6.085,2.303c1.802,0.718,3.368,1.362,4.65,1.92     c2.567,1.104,4.009,1.821,4.009,1.821L572.158,491.519z" fill="#E8EAF6" id="XMLID_434_"/><path d="M531.437,451.17c0,0-0.176,1.81-0.637,4.938c-0.225,1.565-0.53,3.458-0.901,5.622     c-0.385,2.162-0.817,4.601-1.358,7.243c-0.27,1.322-0.55,2.698-0.84,4.123c-0.316,1.418-0.642,2.884-0.978,4.391     c-0.656,3.018-1.446,6.175-2.3,9.431c-0.881,3.249-1.869,6.586-2.906,9.967c-1.012,3.388-2.041,6.83-3.069,10.272     c-2.017,6.895-4.033,13.789-5.923,20.253c-0.95,3.23-1.869,6.353-2.74,9.315c-0.888,2.957-1.728,5.752-2.502,8.333     c-3.083,10.327-5.207,17.193-5.207,17.193l-0.483-0.128c0,0,1.546-7.019,3.969-17.52c0.601-2.626,1.252-5.472,1.941-8.481     c0.706-3.005,1.451-6.174,2.221-9.452c1.55-6.554,3.204-13.544,4.858-20.535c0.807-3.501,1.613-7.001,2.408-10.447     c0.769-3.453,1.56-6.842,2.399-10.101c0.865-3.253,1.739-6.388,2.66-9.336c0.453-1.476,0.894-2.912,1.32-4.301     c0.452-1.382,0.888-2.718,1.307-4c0.835-2.565,1.665-4.899,2.398-6.968c0.747-2.066,1.416-3.862,1.995-5.334     c1.145-2.947,1.886-4.608,1.886-4.608L531.437,451.17z" fill="#E8EAF6" id="XMLID_431_"/></g><g id="XMLID_4605_"><rect fill="#9FA8DA" height="93.582" id="XMLID_101_" transform="matrix(0.9448 -0.3276 0.3276 0.9448 -170.1108 167.1418)" width="96.077" x="363.1" y="541.788"/></g><g id="XMLID_4585_"><g id="XMLID_4594_"><path d="M478.638,530.744c0,0-0.068-0.047-0.205-0.169c-0.153-0.17-0.34-0.417-0.497-0.739      c-0.34-0.655-0.627-1.651-0.834-2.918c-0.215-1.269-0.333-2.809-0.354-4.571c-0.003-1.759,0.071-3.744,0.327-5.889      c0.127-1.073,0.283-2.188,0.472-3.341c0.215-1.147,0.465-2.33,0.758-3.544c0.575-2.43,1.405-4.958,2.601-7.508      c0.62-1.263,1.325-2.543,2.225-3.774c0.891-1.234,1.969-2.446,3.415-3.472c0.731-0.504,1.573-0.952,2.526-1.23      c0.948-0.282,2.005-0.375,2.999-0.227c0.998,0.141,1.907,0.493,2.696,0.929c0.799,0.45,1.427,0.952,2.089,1.537l0.765,0.72      l0.815,0.82c0.516,0.551,1.021,1.113,1.493,1.722c0.948,1.203,1.792,2.561,2.343,4.11c0.544,1.545,0.717,3.314,0.354,4.928      c-0.346,1.62-1.119,3-1.972,4.168c-1.754,2.318-3.822,3.961-5.783,5.424c-1.974,1.45-3.88,2.7-5.612,3.875      c-3.48,2.32-6.219,4.42-7.895,6.143c-0.841,0.856-1.42,1.6-1.785,2.126l-0.662,1.072L478.638,530.744z M478.847,529.975      c0.062-0.122,0.129-0.266,0.221-0.427c0.324-0.586,0.851-1.422,1.634-2.398c0.781-0.976,1.822-2.081,3.097-3.247      c1.269-1.174,2.762-2.416,4.398-3.74c1.634-1.325,3.417-2.729,5.191-4.285c1.754-1.558,3.579-3.26,4.842-5.25      c0.616-0.991,1.077-2.041,1.212-3.086c0.136-1.044-0.017-2.081-0.445-3.108c-0.438-1.025-1.124-2.023-1.958-2.954      c-0.41-0.469-0.867-0.918-1.333-1.36l-0.701-0.626l-0.805-0.67c-0.416-0.304-0.912-0.643-1.354-0.837      c-0.453-0.199-0.881-0.309-1.268-0.325c-0.76-0.04-1.462,0.269-2.221,0.908c-1.504,1.33-2.739,3.558-3.745,5.728      c-1.042,2.192-1.885,4.464-2.669,6.639c-0.384,1.091-0.729,2.169-1.039,3.22c-0.335,1.045-0.635,2.066-0.903,3.052      c-0.535,1.973-0.999,3.798-1.347,5.427c-0.354,1.628-0.609,3.06-0.761,4.237c-0.151,1.177-0.186,2.104-0.122,2.697      C478.784,529.74,478.822,529.869,478.847,529.975z" fill="#FFFFFF" id="XMLID_428_"/><path d="M477.29,530.096c0.008-0.109,0.026-0.242,0.013-0.411      c-0.029-0.596-0.206-1.507-0.537-2.646c-0.332-1.139-0.805-2.515-1.406-4.068c-0.595-1.557-1.335-3.288-2.167-5.155      c-0.417-0.933-0.871-1.895-1.363-2.876c-0.468-0.991-0.975-2.002-1.523-3.021c-1.111-2.028-2.294-4.142-3.661-6.147      c-1.33-1.989-2.894-4-4.584-5.082c-0.849-0.514-1.59-0.712-2.335-0.555c-0.38,0.076-0.786,0.251-1.203,0.517      c-0.407,0.26-0.845,0.672-1.209,1.036l-0.691,0.786l-0.596,0.727c-0.393,0.508-0.775,1.022-1.107,1.549      c-0.681,1.049-1.205,2.141-1.479,3.221c-0.265,1.081-0.256,2.129,0.04,3.14c0.294,1.012,0.912,1.978,1.674,2.862      c1.555,1.771,3.621,3.171,5.594,4.439c1.994,1.263,3.972,2.375,5.791,3.433c1.82,1.055,3.488,2.052,4.923,3.016      c1.439,0.956,2.639,1.887,3.561,2.73c0.924,0.843,1.573,1.588,1.984,2.117C477.121,529.853,477.21,529.985,477.29,530.096z       M477.202,530.835c0,0-0.207-0.273-0.651-0.736c-0.442-0.464-1.129-1.11-2.092-1.826c-1.921-1.444-4.952-3.095-8.749-4.851      c-1.892-0.894-3.968-1.835-6.142-2.963c-2.164-1.143-4.46-2.447-6.551-4.467c-1.022-1.022-2-2.267-2.592-3.814      c-0.606-1.538-0.709-3.313-0.41-4.923c0.305-1.616,0.93-3.088,1.681-4.422c0.372-0.675,0.785-1.308,1.21-1.932l0.678-0.936      l0.645-0.83c0.563-0.68,1.106-1.273,1.827-1.841c0.713-0.552,1.557-1.04,2.521-1.334c0.96-0.299,2.019-0.37,2.999-0.238      c0.984,0.128,1.885,0.44,2.685,0.825c1.587,0.791,2.839,1.821,3.91,2.904c1.079,1.078,1.972,2.233,2.78,3.386      c1.575,2.334,2.786,4.704,3.729,7.017c0.477,1.153,0.906,2.284,1.296,3.384c0.365,1.11,0.691,2.188,0.982,3.229      c0.584,2.08,0.963,4.03,1.231,5.768c0.25,1.744,0.373,3.284,0.355,4.571c-0.009,1.283-0.139,2.313-0.374,3.012      c-0.104,0.343-0.252,0.615-0.376,0.806l-0.422,0.432L477.202,530.835z" fill="#FFFFFF" id="XMLID_427_"/></g><polygon fill="#E5B735" id="XMLID_100_" points="521.064,648.994 437.932,648.994 429.087,524.037 529.908,524.037    "/><g id="XMLID_4586_"><path d="M529.114,547.947c0,0-1.566,0.378-4.314,0.881c-1.374,0.258-3.044,0.537-4.961,0.834      c-1.918,0.284-4.082,0.607-6.446,0.888c-1.182,0.141-2.413,0.289-3.688,0.441c-1.276,0.126-2.595,0.257-3.951,0.391      c-2.711,0.284-5.575,0.483-8.541,0.648c-2.967,0.139-6.036,0.203-9.157,0.233c-3.12,0.056-6.29,0.113-9.459,0.169      c-6.336,0.155-12.673,0.31-18.613,0.455c-2.971,0.067-5.842,0.133-8.565,0.195c-2.724,0.044-5.299,0.086-7.677,0.125      c-9.508,0.172-15.85,0.216-15.85,0.216l-0.027-0.499c0,0,6.311-0.641,15.781-1.495c2.368-0.218,4.933-0.455,7.646-0.705      c2.714-0.232,5.575-0.477,8.536-0.73c5.921-0.497,12.238-1.026,18.554-1.555c3.157-0.286,6.313-0.571,9.421-0.852      c3.106-0.307,6.165-0.574,9.129-0.756c2.966-0.155,5.835-0.267,8.561-0.277c1.362-0.013,2.688-0.025,3.97-0.037      c1.283,0.014,2.523,0.027,3.714,0.04c2.38,0.024,4.566,0.112,6.503,0.188c1.938,0.089,3.629,0.187,5.022,0.294      c2.787,0.204,4.384,0.41,4.384,0.41L529.114,547.947z" fill="#FFFFFF" id="XMLID_426_"/><path d="M477.442,523.124c0,0,0.425,1.769,1.012,4.875c0.3,1.553,0.63,3.441,0.986,5.609      c0.343,2.168,0.731,4.615,1.084,7.289c0.177,1.337,0.362,2.729,0.553,4.171c0.165,1.443,0.336,2.936,0.511,4.47      c0.367,3.067,0.653,6.308,0.909,9.665c0.229,3.358,0.387,6.835,0.512,10.37c0.151,3.533,0.304,7.122,0.457,10.711      c0.348,7.175,0.696,14.35,1.022,21.077c0.158,3.364,0.31,6.615,0.455,9.698c0.127,3.085,0.247,6.001,0.358,8.693      c0.461,10.767,0.699,17.951,0.699,17.951l-0.499,0.037c0,0-0.833-7.139-1.976-17.855c-0.29-2.679-0.604-5.581-0.937-8.65      c-0.315-3.071-0.647-6.309-0.991-9.659c-0.677-6.7-1.398-13.848-2.121-20.995c-0.381-3.572-0.763-7.144-1.139-10.66      c-0.402-3.514-0.762-6.976-1.034-10.331c-0.246-3.357-0.445-6.605-0.538-9.693c-0.054-1.543-0.107-3.044-0.158-4.496      c-0.025-1.454-0.05-2.859-0.073-4.207c-0.048-2.697-0.027-5.174-0.01-7.369c0.03-2.196,0.076-4.112,0.142-5.693      c0.119-3.159,0.277-4.971,0.277-4.971L477.442,523.124z" fill="#FFFFFF" id="XMLID_423_"/></g></g><g id="XMLID_4569_"><path d="M432.158,592.561c0.014,0.061-0.316-0.522-0.164-1.386     c0.117-0.871,0.537-2.034,1.234-3.394c0.691-1.367,1.672-2.925,2.903-4.628c1.25-1.686,2.728-3.54,4.504-5.41     c1.756-1.892,3.786-3.824,6.084-5.72c2.292-1.903,4.883-3.74,7.846-5.295c1.488-0.765,3.067-1.465,4.78-1.992     c1.709-0.529,3.557-0.901,5.556-0.885c1.974,0.016,4.211,0.543,5.987,1.882c0.886,0.652,1.618,1.467,2.198,2.325     c0.579,0.833,1.015,1.85,1.316,2.554c0.723,1.698,1.278,3.428,1.532,5.345c0.241,1.889,0.055,4.05-0.952,5.893     c-0.992,1.851-2.606,3.121-4.183,3.971c-1.6,0.849-3.229,1.381-4.82,1.786c-3.188,0.791-6.253,1.149-9.146,1.403     c-2.892,0.252-5.61,0.417-8.11,0.608c-5,0.349-9.119,0.898-11.93,1.596c-1.405,0.345-2.48,0.717-3.196,1.006     c-0.361,0.141-0.629,0.265-0.81,0.35c-0.182,0.083-0.275,0.126-0.275,0.126L432.158,592.561z M432.63,592.057     c0.175-0.099,0.413-0.233,0.721-0.384c0.713-0.359,1.787-0.832,3.198-1.304c2.816-0.972,6.99-1.786,11.98-2.503     c2.495-0.367,5.196-0.724,8.019-1.172c2.814-0.468,5.786-0.951,8.653-1.848c1.428-0.445,2.826-1.006,4.046-1.745     c1.213-0.744,2.2-1.686,2.708-2.799c1.071-2.201,0.212-5.301-1.129-8.012c-1.287-2.906-3.174-4.005-5.84-3.814     c-2.636,0.202-5.428,1.48-7.994,2.845c-2.59,1.387-5.029,2.993-7.317,4.573c-2.278,1.599-4.369,3.236-6.274,4.785     c-1.883,1.574-3.603,3.043-5.049,4.423c-1.463,1.364-2.678,2.615-3.619,3.685c-0.934,1.073-1.581,1.979-1.889,2.625     C432.71,591.696,432.655,591.904,432.63,592.057z" fill="#37474F" id="XMLID_419_"/><path d="M431.307,589.545c0.004-0.155-0.01-0.37-0.088-0.673     c-0.18-0.692-0.644-1.704-1.359-2.934c-0.722-1.228-1.679-2.686-2.858-4.302c-1.16-1.629-2.571-3.396-4.123-5.298     c-1.578-1.881-3.322-3.884-5.257-5.884c-1.948-1.984-4.04-4.022-6.321-5.873c-2.261-1.825-4.762-3.607-7.312-4.304     c-2.581-0.691-4.642,0.032-6.455,2.642c-1.829,2.409-3.258,5.291-2.622,7.654c0.289,1.188,1.08,2.3,2.13,3.26     c1.059,0.956,2.325,1.771,3.644,2.478c2.646,1.422,5.474,2.458,8.148,3.449c2.688,0.974,5.272,1.833,7.653,2.666     c4.765,1.646,8.709,3.234,11.292,4.721c1.296,0.73,2.261,1.398,2.894,1.885C430.946,589.238,431.153,589.415,431.307,589.545z      M431.303,590.194c0,0-0.084-0.06-0.247-0.176c-0.161-0.117-0.401-0.29-0.729-0.496c-0.649-0.42-1.634-0.988-2.948-1.592     c-2.629-1.216-6.57-2.533-11.414-3.821c-2.418-0.659-5.057-1.334-7.85-2.129c-2.793-0.796-5.735-1.727-8.717-3.106     c-1.485-0.698-2.984-1.528-4.395-2.664c-1.388-1.132-2.733-2.684-3.358-4.689c-0.641-2-0.415-4.156,0.179-5.966     c0.612-1.835,1.483-3.429,2.515-4.96c0.428-0.634,1.05-1.551,1.775-2.259c0.732-0.733,1.604-1.395,2.597-1.868     c1.998-0.979,4.294-1.075,6.235-0.717c1.967,0.361,3.71,1.076,5.288,1.918c1.583,0.841,3.002,1.827,4.318,2.859     c2.616,2.087,4.812,4.38,6.704,6.682c1.899,2.296,3.528,4.576,4.895,6.766c1.392,2.172,2.492,4.272,3.401,6.163     c0.887,1.905,1.556,3.621,1.977,5.094c0.428,1.467,0.621,2.689,0.57,3.566c-0.013,0.878-0.448,1.388-0.422,1.331L431.303,590.194     z" fill="#37474F" id="XMLID_418_"/><g id="XMLID_4570_"><path d="M475.076,699.422c-36.396-7.492-73.375-13.289-110.832-17.318      c2.439-20.475,11.15-78.309,13.865-98.774c39.068,4.232,77.652,10.303,115.64,18.144      C489.433,621.651,479.119,679.209,475.076,699.422z" fill="#FFE082" id="XMLID_99_"/><path d="M432.484,589.005c0,0,0.059,1.123,0.038,3.069c-0.006,0.973-0.04,2.151-0.097,3.5      c-0.067,1.347-0.142,2.866-0.279,4.515c-0.068,0.825-0.139,1.684-0.213,2.573c-0.094,0.886-0.191,1.802-0.291,2.743      c-0.188,1.885-0.465,3.86-0.784,5.898c-0.34,2.035-0.754,4.128-1.203,6.25c-0.428,2.126-0.863,4.285-1.298,6.444      c-0.837,4.324-1.674,8.648-2.459,12.701c-0.77,4.056-1.547,7.833-2.207,11.07c-1.303,6.479-2.228,10.789-2.228,10.789      l-0.395-0.062c0,0,0.453-4.384,1.215-10.947c0.374-3.283,0.802-7.114,1.324-11.208c0.507-4.097,1.047-8.467,1.588-12.838      c0.254-2.188,0.508-4.375,0.758-6.529c0.229-2.157,0.482-4.275,0.788-6.315c0.327-2.037,0.674-4.001,1.078-5.852      c0.196-0.927,0.387-1.828,0.571-2.699c0.205-0.869,0.403-1.708,0.593-2.513c0.379-1.611,0.778-3.08,1.131-4.382      c0.363-1.301,0.695-2.432,0.99-3.36c0.581-1.858,0.984-2.909,0.984-2.909L432.484,589.005z" fill="#37474F" id="XMLID_414_"/></g></g><g id="XMLID_4550_"><g id="XMLID_4558_"><path d="M567.727,554.094c0,0-0.077-0.056-0.228-0.197c-0.166-0.19-0.37-0.467-0.539-0.834      c-0.367-0.742-0.67-1.873-0.88-3.31c-0.218-1.439-0.323-3.186-0.32-5.184c0.024-1.995,0.137-4.245,0.451-6.676      c0.156-1.216,0.345-2.48,0.573-3.786c0.253-1.3,0.546-2.64,0.888-4.013c0.673-2.75,1.623-5.611,2.979-8.489      c0.699-1.427,1.495-2.869,2.501-4.255c0.999-1.388,2.201-2.746,3.801-3.887c0.809-0.56,1.735-1.054,2.781-1.361      c1.039-0.311,2.195-0.413,3.285-0.253c1.093,0.154,2.096,0.539,2.971,1.02c0.885,0.496,1.591,1.057,2.327,1.705l0.871,0.821      l0.917,0.924c0.582,0.622,1.152,1.257,1.681,1.942c1.066,1.355,2.01,2.879,2.622,4.606c0.605,1.723,0.786,3.679,0.396,5.472      c-0.376,1.8-1.231,3.348-2.183,4.666c-1.959,2.616-4.29,4.502-6.513,6.17c-2.237,1.657-4.401,3.089-6.369,4.436      c-1.97,1.342-3.748,2.592-5.259,3.776c-1.513,1.181-2.757,2.292-3.716,3.27c-0.955,0.982-1.612,1.835-2.026,2.439      c-0.21,0.301-0.356,0.54-0.452,0.703l-0.296,0.489L567.727,554.094z M567.92,553.362c0.079-0.158,0.175-0.355,0.307-0.584      c0.373-0.663,0.978-1.609,1.875-2.71c0.896-1.102,2.087-2.35,3.544-3.667c1.451-1.325,3.16-2.728,5.032-4.223      c1.869-1.497,3.911-3.083,5.949-4.846c2.013-1.768,4.122-3.687,5.605-5.974c0.725-1.139,1.279-2.358,1.454-3.594      c0.183-1.234-0.004-2.475-0.503-3.684c-0.512-1.207-1.307-2.369-2.269-3.448c-0.473-0.544-0.999-1.062-1.534-1.572l-0.809-0.726      l-0.915-0.765c-0.491-0.366-1.064-0.765-1.593-1.005c-0.539-0.244-1.06-0.386-1.543-0.415c-0.954-0.066-1.85,0.317-2.762,1.07      c-1.809,1.566-3.239,4.132-4.406,6.626c-1.2,2.521-2.162,5.125-3.045,7.62c-0.433,1.251-0.82,2.485-1.167,3.689      c-0.374,1.198-0.707,2.367-1.003,3.496c-0.592,2.259-1.096,4.348-1.47,6.213c-0.379,1.863-0.646,3.502-0.795,4.849      c-0.149,1.346-0.167,2.408-0.077,3.088C567.821,553.048,567.88,553.227,567.92,553.362z" fill="#37474F" id="XMLID_409_"/><path d="M566.203,553.493c0.02-0.14,0.051-0.325,0.039-0.574      c-0.014-0.687-0.193-1.733-0.544-3.041c-0.353-1.308-0.865-2.887-1.523-4.671c-0.653-1.787-1.468-3.775-2.397-5.918      c-0.465-1.071-0.972-2.176-1.522-3.303c-0.527-1.137-1.097-2.298-1.715-3.469c-1.251-2.331-2.598-4.759-4.167-7.069      c-1.533-2.288-3.335-4.607-5.361-5.88c-1.016-0.606-1.959-0.848-2.893-0.638c-0.473,0.102-0.967,0.322-1.462,0.645      c-0.487,0.317-0.993,0.798-1.422,1.235l-0.788,0.895l-0.689,0.84c-0.452,0.585-0.893,1.177-1.277,1.787      c-0.787,1.213-1.396,2.482-1.719,3.753c-0.309,1.27-0.306,2.525,0.063,3.718c0.361,1.195,1.095,2.316,1.983,3.332      c1.814,2.035,4.189,3.612,6.447,5.053c2.282,1.432,4.541,2.69,6.616,3.886c2.078,1.193,3.979,2.32,5.615,3.409      c1.641,1.081,3.008,2.133,4.061,3.086c1.054,0.953,1.795,1.795,2.265,2.394C565.976,553.168,566.101,553.348,566.203,553.493z       M566.093,554.199c0,0-0.063-0.075-0.185-0.22c-0.12-0.146-0.3-0.361-0.554-0.626c-0.5-0.534-1.28-1.277-2.372-2.103      c-1.097-0.821-2.495-1.73-4.17-2.667c-1.673-0.941-3.621-1.906-5.771-2.933c-2.149-1.032-4.506-2.119-6.969-3.416      c-2.451-1.312-5.041-2.822-7.375-5.11c-1.141-1.158-2.222-2.558-2.866-4.28c-0.657-1.712-0.776-3.673-0.439-5.468      c0.343-1.799,1.044-3.449,1.892-4.95c0.419-0.758,0.887-1.472,1.367-2.175l0.766-1.052l0.735-0.943      c0.629-0.752,1.241-1.414,2.041-2.039c0.792-0.608,1.724-1.141,2.781-1.459c1.054-0.324,2.211-0.398,3.286-0.249      c1.08,0.144,2.071,0.493,2.955,0.923c1.754,0.885,3.15,2.044,4.347,3.264c1.205,1.217,2.211,2.521,3.119,3.826      c1.777,2.639,3.15,5.322,4.233,7.938c0.547,1.305,1.04,2.585,1.487,3.832c0.424,1.256,0.802,2.477,1.141,3.655      c0.68,2.355,1.133,4.562,1.46,6.53c0.307,1.975,0.468,3.717,0.471,5.173c0.011,1.452-0.116,2.616-0.366,3.405      c-0.111,0.388-0.271,0.693-0.406,0.906l-0.426,0.459L566.093,554.199z" fill="#37474F" id="XMLID_408_"/></g><path d="M646.983,655.84c-37.181,10.741-74.987,19.183-113.205,25.28     c-6.905-43.283-13.811-86.566-20.716-129.849c32.892-5.248,65.43-12.514,97.431-21.758     C622.657,571.622,634.819,613.731,646.983,655.84z" fill="#FF8A80" id="XMLID_98_"/><path d="M625.176,573.75c0,0-1.786,0.387-4.921,0.908c-1.567,0.266-3.472,0.555-5.657,0.865     c-2.187,0.297-4.653,0.633-7.348,0.928c-1.347,0.148-2.751,0.303-4.204,0.463c-1.454,0.134-2.957,0.273-4.502,0.416     c-3.09,0.301-6.353,0.517-9.731,0.701c-3.379,0.157-6.876,0.24-10.431,0.289c-3.553,0.075-7.163,0.151-10.773,0.227     c-7.217,0.194-14.434,0.388-21.2,0.569c-3.383,0.086-6.654,0.168-9.755,0.247c-3.102,0.061-6.036,0.119-8.743,0.172     c-10.829,0.23-18.052,0.313-18.052,0.313l-0.026-0.499c0,0,7.191-0.679,17.984-1.592c2.698-0.233,5.621-0.485,8.712-0.752     c3.092-0.249,6.354-0.511,9.727-0.783c6.748-0.533,13.945-1.101,21.143-1.67c3.598-0.305,7.195-0.61,10.737-0.91     c3.54-0.326,7.025-0.613,10.403-0.813c3.379-0.173,6.646-0.303,9.751-0.329c1.552-0.021,3.061-0.042,4.521-0.062     c1.461,0.006,2.873,0.012,4.229,0.018c2.711,0.009,5.199,0.083,7.405,0.148c2.206,0.077,4.131,0.164,5.717,0.264     c3.172,0.187,4.989,0.384,4.989,0.384L625.176,573.75z" fill="#37474F" id="XMLID_407_"/><path d="M566.313,545.438c0,0,0.441,2.018,1.057,5.562c0.313,1.771,0.661,3.925,1.037,6.396     c0.363,2.473,0.773,5.262,1.15,8.31c0.189,1.524,0.387,3.112,0.591,4.755c0.178,1.645,0.363,3.346,0.552,5.094     c0.395,3.496,0.71,7.189,0.996,11.013c0.259,3.826,0.448,7.785,0.604,11.811c0.183,4.024,0.368,8.112,0.553,12.199     c0.413,8.172,0.825,16.344,1.211,24.006c0.188,3.831,0.37,7.534,0.542,11.046c0.155,3.513,0.301,6.835,0.437,9.901     c0.516,12.266,0.86,20.443,0.86,20.443l-0.499,0.037c0,0-0.854-8.14-2.137-20.349c-0.314-3.053-0.655-6.36-1.016-9.858     c-0.343-3.5-0.704-7.19-1.078-11.007c-0.737-7.636-1.523-15.781-2.31-23.925c-0.414-4.071-0.828-8.142-1.236-12.149     c-0.434-4.005-0.826-7.95-1.128-11.772c-0.275-3.825-0.503-7.525-0.625-11.04c-0.068-1.757-0.134-3.467-0.198-5.12     c-0.038-1.655-0.075-3.255-0.11-4.79c-0.073-3.071-0.074-5.89-0.077-8.389c0.011-2.5,0.04-4.681,0.091-6.479     c0.091-3.595,0.233-5.656,0.233-5.656L566.313,545.438z" fill="#37474F" id="XMLID_404_"/></g><path d="M634.464,565.607c-21.273,7.917-30.921,38.594-142.249,52.941    c-72.687,9.368-130.127-3.463-132.601-0.99c-2.474,2.474-0.495,6.927,3.463,9.896c3.958,2.968,11.877,7.175,4.453,10.638    c-8.625,4.022-8.906,9.648-4.948,16.574c3.958,6.927-32.37,34.38-35.041,65.206c-1.068,12.334-8.011,66.075,22.92,129.929    c12.497,25.8-17.565,40.078-12.617,47.994c8.006,12.809,32.16-3.958,41.1,1.917c30.928,20.323,191.189,32.984,247.779,9.681    c8.412-3.464,40.886,2.746,52.265-6.161c4.235-3.313-7.835-18.333-4.011-22.99c13.945-16.982,20.92-66.571,16.616-89.173    c-1.98-10.391-22.246-45.858-22.246-45.858s13.854-32.903,14.349-44.777c1.597-38.325-42.632-109.979-48.57-113.937    c-3.546-2.364,2.914-7.024,2.673-12.474C637.637,570.349,637.053,568.199,634.464,565.607z" fill="#FF5252" id="XMLID_4549_"/><path d="M479.521,633.917c0,0,0.651,0.043,1.871,0.125c0.61,0.039,1.363,0.087,2.248,0.144    c0.882,0.028,1.896,0.06,3.033,0.095c1.132,0.054,2.396,0.026,3.767,0.037c1.371,0.022,2.854-0.012,4.438-0.052    c3.167-0.061,6.739-0.249,10.627-0.538c15.541-1.18,36.187-4.305,56.147-9.913c4.98-1.422,9.933-2.929,14.714-4.663    c4.802-1.678,9.429-3.552,13.896-5.365c2.21-0.953,4.413-1.837,6.512-2.808c1.056-0.475,2.1-0.945,3.131-1.41    c1.018-0.49,2.022-0.975,3.014-1.453c3.964-1.922,7.59-3.955,10.876-5.933c3.234-2.046,6.171-3.996,8.585-5.96    c0.612-0.484,1.205-0.953,1.776-1.406c0.581-0.446,1.063-0.952,1.57-1.398c0.99-0.914,1.971-1.704,2.706-2.548    c0.782-0.813,1.48-1.539,2.088-2.171c0.556-0.679,1.028-1.257,1.411-1.725c0.78-0.941,1.196-1.444,1.196-1.444l0.016-0.019    c0.088-0.106,0.246-0.121,0.352-0.033c0.093,0.077,0.116,0.208,0.061,0.31c0,0-0.311,0.581-0.894,1.67    c-0.292,0.548-0.658,1.223-1.105,2.01c-0.511,0.745-1.097,1.6-1.754,2.559c-0.635,0.988-1.495,1.942-2.386,3.034    c-0.464,0.527-0.907,1.122-1.443,1.656c-0.531,0.543-1.08,1.106-1.648,1.687c-1.104,1.208-2.437,2.304-3.804,3.516    c-1.343,1.25-2.91,2.343-4.489,3.577c-1.617,1.174-3.341,2.339-5.136,3.531c-1.849,1.089-3.718,2.314-5.737,3.373    c-1.001,0.548-2.017,1.103-3.045,1.665c-1.051,0.512-2.115,1.031-3.19,1.555c-2.133,1.096-4.411,1.974-6.681,2.981    c-4.611,1.826-9.435,3.554-14.42,5c-4.968,1.501-10.053,2.862-15.166,4.083c-5.109,1.235-10.252,2.306-15.331,3.249    c-5.083,0.922-10.1,1.733-14.976,2.363c-4.87,0.666-9.598,1.149-14.085,1.521c-4.491,0.34-8.742,0.58-12.669,0.688    c-3.927,0.111-7.529,0.135-10.719,0.05c-3.191-0.05-5.967-0.217-8.254-0.392c-1.143-0.097-2.163-0.185-3.05-0.26    c-0.881-0.104-1.63-0.193-2.237-0.265c-1.215-0.146-1.862-0.224-1.862-0.224c-0.137-0.016-0.235-0.141-0.219-0.278    C479.272,634.004,479.39,633.909,479.521,633.917z" fill="#FFFFFF" id="XMLID_403_"/><path d="M409.113,665.332c0,0-0.766,0.262-2.101,0.572c-0.67,0.155-1.472,0.33-2.411,0.469    c-0.939,0.13-2.002,0.264-3.165,0.364c-1.16,0.092-2.408,0.125-3.732,0.131c-1.324,0.01-2.713-0.094-4.146-0.234    c-1.428-0.191-2.894-0.476-4.372-0.817c-1.476-0.347-2.975-0.7-4.474-1.053c-1.5-0.336-2.992-0.713-4.454-1.111    c-1.466-0.372-2.889-0.847-4.263-1.283c-1.367-0.48-2.692-0.913-3.917-1.442c-1.236-0.475-2.371-1.048-3.421-1.528    c-1.025-0.569-1.982-1.019-2.77-1.571c-0.397-0.262-0.774-0.492-1.109-0.73c-0.32-0.264-0.613-0.506-0.878-0.725    c-0.546-0.405-0.875-0.865-1.13-1.122c-0.244-0.271-0.375-0.416-0.375-0.416c-0.091-0.102-0.083-0.258,0.018-0.35    c0.09-0.081,0.223-0.084,0.315-0.013l0.039,0.029c0,0,0.147,0.112,0.423,0.322c0.288,0.197,0.638,0.547,1.229,0.834    c0.28,0.156,0.59,0.329,0.928,0.517c0.348,0.172,0.742,0.333,1.15,0.517c0.8,0.394,1.797,0.68,2.831,1.058    c1.08,0.298,2.22,0.666,3.477,0.931c1.238,0.307,2.564,0.574,3.931,0.846c1.378,0.24,2.796,0.491,4.25,0.707    c1.45,0.225,2.926,0.427,4.411,0.589c1.477,0.193,2.977,0.26,4.441,0.355c1.472,0.059,2.915,0.136,4.302,0.279    c1.389,0.138,2.723,0.351,3.989,0.574c1.268,0.206,2.468,0.459,3.571,0.699c1.102,0.231,2.115,0.485,3.016,0.722    c0.901,0.247,1.707,0.449,2.358,0.66c1.31,0.404,2.055,0.72,2.055,0.72c0.136,0.058,0.2,0.215,0.142,0.351    C409.242,665.256,409.182,665.308,409.113,665.332z" fill="#FFFFFF" id="XMLID_401_"/><path d="M370.813,634.896c0,0,0.012,0.014,0.034,0.042c0.007-0.012,0.007-0.04-0.005-0.059    c-0.021-0.025-0.033-0.024,0.013-0.012c0.108,0.034,0.309,0.074,0.567,0.118c0.522,0.087,1.307,0.18,2.308,0.279    c2.004,0.185,4.874,0.436,8.325,0.642c3.451,0.212,7.48,0.4,11.794,0.587c4.315,0.16,8.914,0.344,13.511,0.429    c2.298,0.044,4.598,0.031,6.858-0.014c2.262-0.051,4.483-0.086,6.628-0.065c2.146,0.044,4.217,0.12,6.181,0.235    c1.965,0.095,3.823,0.234,5.541,0.351c1.717,0.106,3.295,0.25,4.696,0.355c1.401,0.117,2.627,0.227,3.641,0.328    c2.027,0.198,3.204,0.355,3.204,0.355c0.141,0.019,0.239,0.148,0.221,0.289c-0.013,0.097-0.082,0.176-0.168,0.208    c0,0-1.116,0.418-3.116,0.935c-1,0.265-2.22,0.533-3.627,0.804c-1.408,0.257-3.001,0.525-4.744,0.724    c-1.743,0.209-3.635,0.402-5.637,0.505c-2.002,0.123-4.114,0.16-6.295,0.118c-4.363-0.121-8.988-0.728-13.607-1.135    c-4.62-0.433-9.23-0.915-13.537-1.495c-4.31-0.55-8.317-1.173-11.745-1.745c-3.427-0.578-6.278-1.089-8.263-1.538    c-0.993-0.221-1.77-0.41-2.303-0.567c-0.268-0.08-0.47-0.145-0.622-0.213c-0.021-0.008-0.087-0.034-0.155-0.085    c-0.059-0.044-0.099-0.091-0.123-0.121c-0.019-0.03-0.028-0.045-0.028-0.045c-0.07-0.115-0.035-0.265,0.08-0.336    c0.106-0.065,0.244-0.039,0.319,0.056L370.813,634.896z" fill="#FFFFFF" id="XMLID_398_"/></g><g id="XMLID_4537_"><g id="XMLID_97_"><polygon fill="#FF8A80" id="XMLID_4539_" points="327.29,903.766 237.59,904.003 239.316,820.447 325.101,820.209    "/></g></g><g id="XMLID_4518_"><path d="M575,835.431c0.027,0.056-0.423-0.44-0.464-1.317c-0.078-0.875,0.076-2.102,0.457-3.582    c0.374-1.485,0.988-3.222,1.815-5.154c0.849-1.919,1.882-4.053,3.204-6.268c1.297-2.232,2.852-4.563,4.677-6.918    c1.817-2.361,3.94-4.722,6.489-6.891c1.283-1.073,2.669-2.104,4.225-2.995c1.55-0.891,3.271-1.661,5.225-2.084    c1.929-0.419,4.227-0.396,6.255,0.519c1.008,0.441,1.9,1.076,2.655,1.785c0.747,0.685,1.397,1.582,1.845,2.202    c1.079,1.497,2,3.063,2.671,4.877c0.651,1.79,0.944,3.938,0.368,5.958c-0.561,2.024-1.855,3.618-3.208,4.793    c-1.374,1.18-2.846,2.057-4.309,2.802c-2.937,1.472-5.848,2.497-8.614,3.38c-2.766,0.882-5.382,1.641-7.778,2.376    c-4.801,1.441-8.698,2.882-11.287,4.181c-1.295,0.646-2.261,1.245-2.896,1.685c-0.321,0.217-0.556,0.397-0.713,0.519    c-0.159,0.121-0.241,0.184-0.241,0.184L575,835.431z M575.35,834.835c0.149-0.135,0.351-0.319,0.618-0.533    c0.617-0.507,1.561-1.205,2.833-1.976c2.533-1.568,6.426-3.28,11.136-5.076c2.353-0.907,4.909-1.849,7.565-2.907    c2.642-1.075,5.434-2.2,8.035-3.706c1.295-0.749,2.536-1.603,3.563-2.592c1.019-0.993,1.774-2.129,2.025-3.326    c0.561-2.382-0.959-5.217-2.863-7.567c-1.895-2.552-3.978-3.208-6.536-2.437c-2.526,0.777-4.97,2.638-7.172,4.533    c-2.222,1.923-4.248,4.026-6.132,6.071c-1.871,2.061-3.55,4.118-5.068,6.048c-1.49,1.95-2.845,3.761-3.952,5.426    c-1.127,1.652-2.038,3.14-2.72,4.39c-0.675,1.252-1.107,2.278-1.265,2.976C575.348,834.466,575.341,834.681,575.35,834.835z" fill="#E8EAF6" id="XMLID_395_"/><path d="M573.506,832.677c-0.03-0.152-0.09-0.359-0.234-0.637    c-0.328-0.636-1.003-1.521-1.971-2.563c-0.974-1.039-2.229-2.251-3.734-3.568c-1.49-1.334-3.255-2.747-5.187-4.261    c-1.954-1.488-4.095-3.058-6.423-4.584c-2.336-1.508-4.825-3.035-7.458-4.339c-2.607-1.283-5.439-2.472-8.08-2.59    c-2.67-0.106-4.521,1.052-5.716,3.997c-1.254,2.752-2.015,5.878-0.875,8.044c0.542,1.096,1.559,2.006,2.795,2.711    c1.242,0.7,2.658,1.216,4.099,1.616c2.895,0.805,5.88,1.194,8.707,1.573c2.836,0.359,5.547,0.629,8.052,0.917    c5.01,0.558,9.208,1.239,12.053,2.122c1.425,0.427,2.514,0.866,3.238,1.202C573.087,832.456,573.328,832.583,573.506,832.677z     M573.645,833.311c0,0-0.095-0.04-0.279-0.118c-0.183-0.079-0.456-0.195-0.821-0.324c-0.726-0.267-1.811-0.604-3.227-0.905    c-2.832-0.608-6.966-1.026-11.975-1.217c-2.504-0.111-5.227-0.189-8.125-0.35c-2.899-0.162-5.974-0.423-9.186-1.112    c-1.604-0.354-3.248-0.834-4.874-1.632c-1.604-0.799-3.257-2.017-4.307-3.836c-1.065-1.811-1.319-3.963-1.138-5.86    c0.194-1.924,0.693-3.671,1.362-5.391c0.279-0.713,0.683-1.744,1.235-2.594c0.553-0.876,1.258-1.714,2.123-2.394    c1.733-1.395,3.952-1.993,5.925-2.071c1.998-0.081,3.855,0.234,5.581,0.708c1.729,0.472,3.329,1.122,4.841,1.839    c3.011,1.461,5.657,3.214,8.009,5.044c2.357,1.823,4.448,3.688,6.263,5.524c1.835,1.813,3.371,3.619,4.673,5.264    c1.285,1.663,2.314,3.19,3.048,4.534c0.74,1.337,1.197,2.486,1.341,3.353c0.18,0.859-0.131,1.452-0.12,1.391L573.645,833.311z" fill="#E8EAF6" id="XMLID_393_"/><path d="M635.257,930.035c-36.264-1.091-72.803-0.452-109.506,1.965    c-1.094-20.102-2.434-77.189-3.262-97.329c38.287-2.494,76.416-3.138,114.27-1.979    C635.998,852.824,635.748,909.916,635.257,930.035z" fill="#FFAF99" id="XMLID_4526_"/><path d="M637.465,877.457c0,0-1.852,0.363-5.102,0.871c-1.625,0.259-3.599,0.547-5.865,0.858    c-2.267,0.302-4.824,0.643-7.618,0.958c-1.397,0.158-2.852,0.323-4.357,0.494c-1.507,0.15-3.065,0.305-4.668,0.465    c-3.203,0.331-6.586,0.6-10.088,0.846c-3.504,0.225-7.128,0.394-10.813,0.537c-3.684,0.164-7.426,0.331-11.168,0.497    c-7.482,0.367-14.964,0.733-21.979,1.077c-7.013,0.359-13.563,0.634-19.177,0.877c-11.229,0.468-18.714,0.78-18.714,0.78    l-0.027-0.399c0,0,7.458-0.721,18.645-1.802c5.594-0.532,12.12-1.16,19.116-1.769c6.995-0.624,14.457-1.29,21.918-1.956    c3.73-0.35,7.459-0.699,11.13-1.043c3.67-0.365,7.284-0.696,10.785-0.956c3.503-0.238,6.891-0.437,10.108-0.549    c1.609-0.063,3.173-0.123,4.687-0.182c1.515-0.038,2.979-0.075,4.384-0.11c2.81-0.072,5.39-0.085,7.676-0.099    c2.287-0.002,4.282,0.01,5.927,0.044c3.288,0.057,5.172,0.161,5.172,0.161L637.465,877.457z" fill="#E8EAF6" id="XMLID_390_"/><path d="M574.536,831.891c0,0,0.338,1.531,0.804,4.218c0.237,1.343,0.499,2.976,0.78,4.85    c0.271,1.875,0.579,3.99,0.857,6.302c0.14,1.156,0.286,2.359,0.437,3.605c0.13,1.247,0.265,2.537,0.403,3.862    c0.289,2.65,0.513,5.451,0.712,8.35c0.179,2.9,0.3,5.902,0.395,8.954c0.115,3.05,0.232,6.149,0.35,9.248    c0.268,6.195,0.536,12.39,0.787,18.198c0.267,5.807,0.456,11.231,0.624,15.88c0.32,9.298,0.533,15.497,0.533,15.497l-0.399,0.027    c0,0-0.622-6.172-1.555-15.429c-0.458-4.629-0.999-10.03-1.516-15.82c-0.531-5.79-1.099-11.965-1.666-18.14    c-0.3-3.086-0.601-6.173-0.896-9.211c-0.316-3.037-0.6-6.027-0.813-8.926c-0.191-2.9-0.346-5.705-0.416-8.37    c-0.041-1.332-0.081-2.628-0.12-3.881c-0.018-1.255-0.036-2.467-0.052-3.631c-0.035-2.328-0.014-4.465,0.002-6.359    c0.028-1.895,0.067-3.548,0.122-4.911c0.1-2.725,0.229-4.287,0.229-4.287L574.536,831.891z" fill="#E8EAF6" id="XMLID_389_"/></g><path d="M672.504,738.006c0,0-0.208,0.201-0.598,0.577c-0.195,0.188-0.436,0.42-0.718,0.693   c-0.307,0.258-0.66,0.554-1.054,0.885c-0.8,0.656-1.795,1.406-3.011,2.164c-1.199,0.786-2.612,1.569-4.184,2.37   c-1.576,0.788-3.32,1.572-5.202,2.302c-1.875,0.756-3.903,1.4-6.007,2.048c-2.112,0.61-4.307,1.219-6.566,1.692   c-2.254,0.501-4.56,0.934-6.875,1.306c-2.313,0.389-4.636,0.715-6.928,1.035c-2.294,0.293-4.563,0.531-6.765,0.601   c-4.406,0.127-8.527-0.23-12.019-0.789c-0.875-0.115-1.709-0.282-2.5-0.443c-0.791-0.156-1.542-0.305-2.24-0.488   c-1.399-0.342-2.608-0.684-3.591-1.021c-0.985-0.319-1.746-0.615-2.261-0.832c-0.512-0.217-0.786-0.333-0.786-0.333   c-0.13-0.055-0.191-0.205-0.135-0.335c0.039-0.093,0.127-0.151,0.222-0.156l0.008,0c0,0,0.295-0.015,0.847-0.042   c0.546-0.018,1.347-0.043,2.366-0.076c2.007-0.064,4.874-0.156,8.314-0.267c1.705-0.065,3.551-0.137,5.504-0.212   c1.95-0.09,4.001-0.147,6.125-0.213c4.245-0.078,8.807,0.023,13.341-0.399c4.535-0.379,9.037-1.061,13.222-1.879   c2.085-0.436,4.093-0.908,5.972-1.438c1.885-0.514,3.639-1.093,5.235-1.693c1.589-0.611,3.031-1.225,4.26-1.86   c0.622-0.307,1.199-0.605,1.71-0.916c0.519-0.299,1.011-0.559,1.415-0.839c0.416-0.27,0.788-0.511,1.111-0.721   c0.313-0.237,0.581-0.438,0.797-0.602c0.432-0.326,0.663-0.5,0.663-0.5c0.11-0.083,0.267-0.062,0.351,0.048   C672.607,737.776,672.594,737.919,672.504,738.006z" fill="#FFFFFF" id="XMLID_386_"/><path d="M669.553,745.356c0,0-0.082,0.232-0.236,0.668c-0.155,0.435-0.381,1.054-0.822,1.841   c-0.407,0.816-0.985,1.693-1.707,2.689c-0.736,0.975-1.628,2.032-2.689,3.088c-1.062,1.053-2.276,2.131-3.639,3.145   c-1.345,1.048-2.854,2.002-4.454,2.912c-1.621,0.869-3.348,1.657-5.139,2.349c-1.782,0.715-3.611,1.367-5.43,2.03   c-1.823,0.649-3.656,1.263-5.477,1.806c-1.813,0.567-3.63,1.017-5.385,1.445c-1.763,0.403-3.466,0.786-5.103,1.052   c-1.63,0.29-3.188,0.488-4.624,0.654c-1.441,0.145-2.764,0.246-3.944,0.271c-1.178,0.033-2.209,0.011-3.058-0.083   c-0.423-0.029-0.801-0.083-1.129-0.141c-0.328-0.051-0.604-0.093-0.828-0.159c-0.445-0.113-0.682-0.174-0.682-0.174   c-0.133-0.034-0.214-0.169-0.18-0.303c0.031-0.121,0.146-0.199,0.267-0.187l0.029,0.003c0,0,0.23,0.023,0.662,0.067   c0.212,0.031,0.482,0.031,0.797,0.033c0.314,0.009,0.676,0.008,1.084-0.025c0.406-0.016,0.855-0.052,1.345-0.114   c0.489-0.041,1.017-0.118,1.58-0.204c1.126-0.166,2.39-0.426,3.759-0.741c2.735-0.656,5.882-1.609,9.197-2.77   c3.303-1.199,6.792-2.559,10.173-4.134c1.687-0.794,3.347-1.642,4.929-2.556c1.573-0.909,3.12-1.804,4.618-2.67   c1.497-0.837,2.943-1.646,4.314-2.413c1.375-0.763,2.642-1.524,3.813-2.235c1.168-0.715,2.226-1.396,3.146-2.037   c0.485-0.299,0.878-0.632,1.28-0.916c0.413-0.281,0.756-0.548,1.068-0.799c0.309-0.258,0.619-0.456,0.867-0.677   c0.247-0.221,0.458-0.408,0.637-0.554c0.357-0.293,0.547-0.45,0.547-0.45c0.11-0.091,0.274-0.076,0.365,0.035   C669.568,745.177,669.582,745.273,669.553,745.356z" fill="#FFFFFF" id="XMLID_385_"/></g></svg>