<?xml version="1.0" ?><!DOCTYPE svg  PUBLIC '-//W3C//DTD SVG 1.1//EN'  'http://www.w3.org/Graphics/SVG/1.1/DTD/svg11.dtd'><svg enable-background="new 0 0 1000 1000" height="1000px" version="1.1" viewBox="0 0 1000 1000" width="1000px" xml:space="preserve" xmlns="http://www.w3.org/2000/svg" xmlns:xlink="http://www.w3.org/1999/xlink"><g id="Santa_Claus_x2C__congratulation_x2C__Christmas_x2C__mobile_x2C__smartphone_x2C__message"><g id="XMLID_2175_"><g id="XMLID_2191_"><path d="M417.235,519.724c9.495,10.058,25.489,10.522,35.544,1.031l223.417-211.581     c10.058-9.489,40.644-39.536,24.292-57.704c-17.199-19.107-49.971,5.093-60.037,14.585L411.357,476.85     c-10.045,9.494-10.518,25.485-1.031,35.547L417.235,519.724z" fill="#D69176" id="XMLID_2192_"/></g><g id="XMLID_2184_"><g id="XMLID_814_"><path d="M649.686,334.28l26.511-25.106c10.058-9.489,40.644-39.536,24.292-57.704      L649.686,334.28z" fill="#D69176" id="XMLID_820_"/></g><g id="XMLID_807_"><path d="M649.582,334.171c0,0,4.668-4.627,11.669-11.567c3.5-3.471,7.579-7.525,11.987-11.827      c2.203-2.161,4.483-4.368,6.716-6.679c2.237-2.311,4.448-4.715,6.575-7.184c2.117-2.477,4.16-5.013,6.021-7.605      c1.854-2.597,3.607-5.192,5.115-7.799c1.545-2.583,2.875-5.158,3.945-7.666c1.053-2.513,1.806-4.973,2.213-7.288      c0.396-2.318,0.395-4.479,0.135-6.367c-0.213-1.907-0.832-3.483-1.335-4.787c-0.606-1.257-1.153-2.232-1.602-2.848      c-0.421-0.641-0.646-0.984-0.646-0.984l-0.01-0.014c-0.046-0.069-0.026-0.162,0.043-0.207c0.061-0.04,0.141-0.03,0.189,0.021      c0,0,0.29,0.298,0.834,0.856c0.584,0.534,1.272,1.454,2.119,2.675c0.754,1.267,1.65,2.888,2.125,4.943      c0.512,2.03,0.773,4.438,0.527,7.012c-0.231,2.574-0.884,5.302-1.892,8.042c-0.987,2.751-2.354,5.506-3.964,8.211      c-1.646,2.684-3.506,5.342-5.561,7.897c-2.047,2.56-4.213,5.076-6.469,7.503c-2.246,2.435-4.568,4.791-6.908,7.049      c-2.341,2.262-4.711,4.404-6.979,6.48c-4.535,4.169-8.805,8.021-12.461,11.327c-7.311,6.614-12.184,11.022-12.184,11.022      c-0.063,0.055-0.156,0.051-0.213-0.011C649.522,334.318,649.525,334.227,649.582,334.171z" fill="#263238" id="XMLID_813_"/></g></g><path d="M376.688,281.952c0,0-20.189-27.71-38.4-16.626c-1.583,21.377-2.375,39.191-7.125,74.819    c-10.293,19.795-14.039,37.737-21.378,50.642c-11.958,67.196-16.308,95.819-26.46,145.315    c-9.5,46.316-20.958,342.982-35.209,367.922c-14.252,24.941,256.078,39.271,269.539,25.812    c13.46-13.46-8.152-91.331,45.664-136.021c18.337-15.227,125.078-148.366,138.441-162.308    c5.506-5.744-43.545-15.834-43.545-15.834l-7.125-22.17c0,0,58.588-62.548,60.172-76.007c1.584-13.46-29.295-19.794-29.295-19.794    l-34.838-2.375c0,0,60.967-45.92,64.925-64.922s-60.964-34.837-60.964-34.837L389.022,506.411L376.688,281.952z" fill="#D69176" id="XMLID_2183_"/><path d="M517.431,929.635c0,0,0.164-0.192,0.482-0.563c0.302-0.375,0.68-0.933,1.116-1.754    c0.836-1.644,1.666-4.273,2.176-7.74c1.08-6.932,1.199-17.031,1.683-29.158c0.255-6.066,0.624-12.649,1.358-19.6    c0.729-6.949,1.887-14.26,3.666-21.719c1.785-7.452,4.236-15.05,7.587-22.435c3.341-7.383,7.599-14.539,12.745-21.035    c2.561-3.256,5.335-6.35,8.284-9.244c1.481-1.44,2.992-2.844,4.543-4.196l0.507-0.457l0.549-0.511l1.097-1.021    c0.712-0.68,1.331-1.356,2.001-2.03c2.659-2.773,5.275-5.736,7.854-8.611c2.578-2.89,5.089-5.79,7.557-8.645    c4.994-5.662,9.788-11.182,14.42-16.343c2.3-2.596,4.537-5.121,6.701-7.563c2.182-2.43,4.289-4.778,6.313-7.032    c4.039-4.514,7.791-8.615,11.111-12.253c3.334-3.627,6.252-6.781,8.682-9.358c4.846-5.163,7.694-8.049,7.694-8.049    c0.116-0.118,0.308-0.12,0.426-0.003c0.105,0.104,0.118,0.268,0.036,0.386c0,0-9.25,13.317-24.277,32.367    c-1.884,2.377-3.847,4.853-5.879,7.416c-2.064,2.537-4.197,5.159-6.393,7.855c-4.394,5.391-9.122,10.996-14.139,16.703    c-5.111,5.652-10.295,11.476-16.172,17.144c-0.76,0.709-1.525,1.467-2.283,2.135l-1.136,0.978l-0.567,0.49l-0.63,0.524    c-1.516,1.224-2.983,2.513-4.433,3.831c-2.883,2.652-5.607,5.5-8.141,8.515c-5.062,6.037-9.321,12.751-12.734,19.765    c-3.421,7.013-6.007,14.311-7.951,21.534c-1.954,7.226-3.244,14.383-4.225,21.21c-0.969,6.832-1.57,13.349-2.038,19.379    c-0.44,6.045-0.845,11.586-1.202,16.497c-0.395,4.919-0.871,9.215-1.568,12.718c-0.664,3.506-1.631,6.199-2.586,7.896    c-0.483,0.834-0.952,1.462-1.281,1.834c-0.334,0.358-0.506,0.543-0.506,0.543c-0.112,0.121-0.303,0.128-0.424,0.015    C517.335,929.94,517.326,929.756,517.431,929.635z" fill="#263238" id="XMLID_537_"/><path d="M241.457,920.696c0,0,0.087-0.096,0.26-0.284c0.186-0.185,0.408-0.475,0.692-0.857    c0.564-0.793,1.308-2.068,2.062-3.84c1.522-3.541,3.125-9.015,4.633-16.095c3.031-14.167,5.798-34.727,8.293-59.466    c1.252-12.371,2.438-25.792,3.575-39.997c1.121-14.207,2.274-29.191,3.343-44.704c2.163-31.023,4.162-64.138,6.158-97.26    c1.003-16.565,2.005-33.13,2.992-49.437c0.996-16.313,2.116-32.358,3.538-47.903c0.345-3.888,0.776-7.74,1.22-11.563    c0.468-3.825,0.935-7.613,1.621-11.403c1.413-7.361,2.797-14.562,4.144-21.573c2.72-13.997,5.308-27.227,7.774-39.425    c2.419-12.207,4.754-23.375,6.789-33.28c2.066-9.899,3.886-18.526,5.442-25.62c1.544-7.096,2.758-12.672,3.585-16.473    c0.854-3.797,1.309-5.822,1.309-5.822c0.035-0.162,0.196-0.263,0.358-0.227c0.153,0.035,0.253,0.183,0.231,0.336    c0,0-0.297,2.054-0.853,5.906c-0.582,3.847-1.435,9.489-2.521,16.669c-1.074,7.183-2.448,15.892-4.045,25.878    c-1.628,9.98-3.427,21.247-5.516,33.515c-2.043,12.276-4.339,25.56-6.786,39.607c-1.204,7.014-2.509,14.262-3.823,21.573    c-1.188,7.198-1.952,14.808-2.738,22.503c-0.786,7.708-1.486,15.57-2.159,23.534c-0.666,7.969-1.341,16.035-2.021,24.165    c-1.326,16.269-2.544,32.813-3.786,49.358c-2.441,33.092-4.886,66.192-7.468,97.204c-1.3,15.505-2.586,30.493-3.995,44.689    c-1.393,14.198-2.821,27.611-4.297,39.977c-2.942,24.728-6.082,45.277-9.383,59.458c-1.643,7.088-3.353,12.576-4.97,16.159    c-0.801,1.794-1.588,3.097-2.203,3.928c-0.324,0.419-0.574,0.725-0.754,0.898c-0.176,0.186-0.264,0.28-0.264,0.28    c-0.114,0.12-0.305,0.126-0.425,0.012C241.353,921.004,241.348,920.816,241.457,920.696z" fill="#263238" id="XMLID_536_"/><path d="M337.063,274.821c-1.033,15.496-2.058,27.252-4.799,50.281    c13.571-6.515,15.622-43.443,15.438-41.963C347.702,283.139,341.765,276.014,337.063,274.821z" fill="#FFAF99" id="XMLID_2176_" opacity="0.8"/></g><path d="M372.716,104.709v529.294c0,21.931,17.778,39.709,39.71,39.709h213.668   c21.932,0,39.709-17.778,39.709-39.709V104.709c0-21.931-17.777-39.709-39.709-39.709H412.426   C390.494,65,372.716,82.778,372.716,104.709z" fill="#263238" id="XMLID_2173_"/><path d="M372.966,353.063c0,0,0.25,34.81,0.624,87.026c0.168,26.108,0.364,56.567,0.575,89.202   c0.176,32.635,0.362,67.445,0.551,102.256l0.011,1.632l0.006,0.816l0.043,0.713l0.188,3.257l0.486,2.97   c0.057,0.494,0.182,0.991,0.325,1.489l0.396,1.493c1.12,3.958,2.872,7.724,5.169,11.12c2.346,3.364,5.231,6.323,8.48,8.763   c3.25,2.43,6.862,4.395,10.713,5.591c3.834,1.229,7.829,1.851,11.821,1.877c4.242-0.02,8.465-0.041,12.662-0.061   c8.396-0.033,16.691-0.065,24.85-0.097c16.317,0.069,32.091,0.036,47.049,0.185c7.479,0.061,14.754,0.12,21.791,0.177   c7.036,0.083,13.836,0.164,20.361,0.241c13.055,0.142,25.021,0.406,35.627,0.569c5.303,0.091,10.267,0.176,14.855,0.254   c4.59,0.108,8.805,0.208,12.612,0.297c7.614,0.19,13.599,0.34,17.677,0.441c4.08,0.123,6.256,0.188,6.256,0.188   c0.137,0.004,0.246,0.119,0.242,0.257c-0.004,0.133-0.111,0.238-0.242,0.243c0,0-2.176,0.065-6.256,0.188   c-4.078,0.102-10.063,0.251-17.677,0.441c-3.808,0.09-8.022,0.189-12.612,0.297c-4.589,0.079-9.553,0.164-14.855,0.254   c-10.606,0.164-22.572,0.427-35.627,0.569c-6.525,0.077-13.325,0.158-20.361,0.241c-7.037,0.057-14.313,0.116-21.791,0.177   c-14.958,0.149-30.731,0.116-47.049,0.185c-8.158-0.032-16.453-0.064-24.85-0.097c-4.2-0.023-8.426-0.046-12.672-0.068   c-4.505-0.084-9.011-0.849-13.312-2.297c-4.317-1.415-8.351-3.672-11.956-6.446c-3.604-2.784-6.779-6.138-9.342-9.928   c-2.516-3.822-4.411-8.046-5.596-12.465l-0.416-1.665c-0.146-0.551-0.278-1.109-0.345-1.698l-0.499-3.48l-0.143-3.26l-0.037-0.917   l0.005-0.816l0.012-1.632c0.188-34.811,0.374-69.621,0.551-102.256c0.21-32.635,0.405-63.094,0.574-89.202   c0.375-52.216,0.625-87.026,0.625-87.026c0.001-0.138,0.113-0.249,0.251-0.248S372.965,352.926,372.966,353.063z" fill="#FFFFFF" id="XMLID_538_"/><g id="XMLID_2140_"><defs><path d="M657.861,104.709c0-17.517-14.25-31.768-31.768-31.768H412.426c-17.518,0-31.768,14.251-31.768,31.768     v529.294c0,17.517,14.25,31.768,31.768,31.768h213.668c17.518,0,31.768-14.251,31.768-31.768V104.709z" id="XMLID_18_"/></defs><use fill="#9FA8DA" overflow="visible" xlink:href="#XMLID_18_"/><clipPath id="XMLID_2_"><use overflow="visible" xlink:href="#XMLID_18_"/></clipPath><g clip-path="url(#XMLID_2_)" id="XMLID_2142_"><g id="XMLID_2159_"><g id="XMLID_2164_"><g id="XMLID_2165_"><polygon fill="#FF5252" id="XMLID_2167_" points="553.057,562.821 530.104,568.851 521.697,429.125 577.402,426.152       "/><path d="M526.754,552.814h28.601c0,0-0.976,11.27-0.976,16.013        c1.867-1.491,6.863-5.036,15.213-3.532c15.197,2.738,15.84,20.807,8.725,27.682c-5.471,5.287-27.021,3.105-40.436,1.13        c-6.332-0.932-11.031-6.344-11.049-12.743L526.754,552.814z" fill="#263238" id="XMLID_2166_"/></g></g><g id="XMLID_2160_"><g id="XMLID_2161_"><polygon fill="#FF5252" id="XMLID_2163_" points="487.436,562.821 510.391,568.851 518.797,429.125 463.092,426.152       "/><path d="M513.739,552.814h-28.601c0,0,0.976,11.27,0.976,16.013        c-1.866-1.491-6.861-5.036-15.211-3.532c-15.198,2.738-15.841,20.807-8.726,27.682c5.471,5.287,27.021,3.105,40.436,1.13        c6.331-0.932,11.029-6.344,11.047-12.743L513.739,552.814z" fill="#263238" id="XMLID_2162_"/></g></g></g><path d="M663.865,342.722c0,74.572-33.488,102.401-143.619,102.401     c-110.13,0-143.619-27.829-143.619-102.401c0-74.572,67.101-196.193,143.619-196.193     C596.766,146.529,663.865,268.15,663.865,342.722z" fill="#FF5252" id="XMLID_2158_"/><g id="XMLID_2155_"><path d="M674.393,406.673c0,0-12.438-15.436-11.826-34.806      c-23.652-10.398-47.712,29.361-47.712,29.361L674.393,406.673z" fill="#FF5252" id="XMLID_2157_"/><path d="M366.102,406.673c0,0,12.438-15.436,11.825-34.806      c23.653-10.398,47.712,29.361,47.712,29.361L366.102,406.673z" fill="#FF5252" id="XMLID_2156_"/></g><path d="M532.879,395.315c-3.92-29.136-3.658-202.789,4.555-235.641     c0,0-14.057-1.174-18.584-0.858c-8.414,20.097-13.961,189.504-11.492,240.373C507.357,399.189,533.043,396.541,532.879,395.315z" fill="#E8EAF6" id="XMLID_2154_"/><path d="M678.529,411.817c0.871-4.021-1.729-7.974-5.768-8.759     c-23.063-4.486-90.18-17.438-152.516-17.438c-62.334,0-129.451,12.953-152.514,17.438c-4.041,0.785-6.641,4.737-5.768,8.759     l2.193,10.12c0.852,3.93,4.703,6.446,8.643,5.636c20.884-4.291,77.141-17.243,147.445-17.243     c70.307,0,126.563,12.952,147.447,17.243c3.939,0.81,7.789-1.706,8.643-5.636L678.529,411.817z" fill="#E8EAF6" id="XMLID_2153_"/><path d="M671.197,345.105c0,0-92.826-15.439-151.264-15.439     c-58.435,0-150.637,15.439-150.637,15.439l5.938,31.165c0,0,80.344-15.288,145.012-15.436     c64.668,0.148,145.014,15.436,145.014,15.436L671.197,345.105z" fill="#263238" id="XMLID_2152_"/><g id="XMLID_2143_"><path d="M539.48,373.062h-39.283c-3.537,0-6.453-2.777-6.624-6.311l-2.038-42.139      c-0.088-1.812,0.57-3.582,1.822-4.895c1.252-1.313,2.986-2.057,4.801-2.057h44.178c1.837,0,3.59,0.762,4.844,2.104      s1.896,3.144,1.771,4.976l-2.854,42.139C545.861,370.358,542.969,373.062,539.48,373.062z M506.516,359.799h26.768l1.957-28.876      h-30.123L506.516,359.799z" fill="#FFD54F" id="XMLID_798_"/></g></g></g><g id="XMLID_2123_"><g id="XMLID_2129_"><path d="M601.518,641.799c9.502,22.169,29.434,18.836,48.297,15.043     c0,0,66.477-4.271,52.256-45.129c-15.734-45.209-82.34-0.792-82.34-0.792C604.739,619.623,594.584,625.615,601.518,641.799z" fill="#D69176" id="XMLID_2139_"/><path d="M642.365,450.544c10.906,11.861,31.76,15.169,42.604,5.652     c0,0,51.641-23.822,20.58-61.314c-29.605-35.735-52.123-1.731-60.484,9.395C636.704,415.402,631.459,438.683,642.365,450.544z" fill="#D69176" id="XMLID_2138_"/><path d="M614.188,553.915c12.633,14.368,35.258,9.578,53.838,0c0,0,65.715-26.127,41.171-60.171     c-30.415-42.187-92.634,21.377-92.634,21.377C603.446,526.126,601.555,539.548,614.188,553.915z" fill="#D69176" id="XMLID_2137_"/><path d="M614.297,553.812l1.293,1.27l1.359,1.16c0.947,0.731,1.915,1.426,2.941,2.026     c1.027,0.598,2.084,1.141,3.183,1.583c0.546,0.229,1.095,0.446,1.661,0.621c0.557,0.2,1.124,0.364,1.697,0.51     c1.137,0.316,2.301,0.526,3.466,0.706c1.166,0.177,2.343,0.278,3.521,0.336c1.18,0.049,2.361,0.04,3.541-0.008     c1.182-0.061,2.358-0.165,3.533-0.306c1.173-0.154,2.342-0.341,3.504-0.563c1.162-0.232,2.318-0.49,3.465-0.79     c2.295-0.594,4.553-1.333,6.773-2.172c1.112-0.41,2.221-0.833,3.323-1.272l3.312-1.314c2.209-0.882,4.396-1.823,6.588-2.784     l0.109-0.05l2.686-0.946l2.702-0.981c1.802-0.665,3.612-1.327,5.45-1.961c0.08-0.028,0.166,0.014,0.193,0.094     c0.022,0.064-0.002,0.134-0.055,0.172c-1.575,1.145-3.213,2.195-4.891,3.175c-0.835,0.499-1.688,0.966-2.545,1.426     c-0.859,0.467-1.717,0.901-2.625,1.325l0.11-0.05c-1.055,0.622-2.123,1.22-3.213,1.779c-1.088,0.563-2.183,1.119-3.305,1.616     c-1.114,0.513-2.252,0.978-3.402,1.41c-1.147,0.437-2.316,0.823-3.494,1.179c-2.36,0.697-4.749,1.295-7.163,1.78     c-1.209,0.236-2.423,0.443-3.642,0.622c-1.222,0.169-2.447,0.3-3.677,0.397c-1.23,0.084-2.465,0.129-3.699,0.128     c-1.234-0.014-2.469-0.068-3.7-0.184c-2.46-0.235-4.905-0.711-7.246-1.51c-0.587-0.192-1.167-0.402-1.733-0.649     c-0.576-0.222-1.135-0.485-1.687-0.761c-1.11-0.535-2.169-1.17-3.187-1.857c-1.015-0.692-1.971-1.462-2.874-2.286     c-0.444-0.423-0.87-0.867-1.302-1.297l-1.191-1.367c-0.055-0.063-0.049-0.157,0.014-0.212     C614.152,553.754,614.241,553.758,614.297,553.812z" fill="#263238" id="XMLID_535_"/><path d="M601.654,641.736c0.526,1.043,1.037,2.102,1.636,3.089     c0.276,0.508,0.589,0.995,0.909,1.478c0.313,0.487,0.621,0.976,0.976,1.432c1.349,1.872,2.909,3.582,4.675,5.025     c0.885,0.719,1.811,1.384,2.787,1.958c0.488,0.29,0.975,0.578,1.487,0.821c0.499,0.266,1.011,0.507,1.536,0.717     c1.035,0.454,2.114,0.806,3.203,1.108c1.09,0.303,2.203,0.521,3.322,0.7l1.689,0.213l1.701,0.127     c1.137,0.052,2.277,0.068,3.419,0.039c2.284-0.055,4.571-0.285,6.849-0.602c2.278-0.326,4.545-0.77,6.818-1.206     c2.273-0.444,4.56-0.857,6.858-1.261l0.077-0.014c0.04-0.007,0.084-0.011,0.121-0.012c0.727-0.023,1.5-0.069,2.253-0.119     l2.279-0.171c1.522-0.106,3.044-0.26,4.57-0.395l9.198-0.953c0.084-0.009,0.158,0.052,0.166,0.135     c0.008,0.069-0.033,0.132-0.094,0.157c-2.9,1.143-5.896,2.024-8.929,2.734c-1.515,0.374-3.048,0.655-4.583,0.938     c-0.768,0.143-1.541,0.247-2.314,0.362c-0.781,0.108-1.542,0.21-2.354,0.296l0.198-0.026c-2.283,0.517-4.584,1.006-6.916,1.366     c-2.331,0.367-4.688,0.63-7.055,0.82c-2.367,0.198-4.752,0.293-7.143,0.244c-1.195-0.028-2.391-0.103-3.585-0.215l-1.787-0.221     l-1.777-0.311c-1.179-0.247-2.35-0.537-3.495-0.915c-1.146-0.378-2.277-0.809-3.357-1.346c-0.549-0.251-1.082-0.534-1.602-0.844     c-0.532-0.283-1.031-0.623-1.529-0.962c-0.997-0.674-1.932-1.436-2.813-2.247c-1.758-1.628-3.262-3.501-4.523-5.501     c-0.333-0.49-0.618-1.008-0.906-1.524c-0.297-0.51-0.574-1.031-0.82-1.569c-0.539-1.057-0.969-2.14-1.42-3.22     c-0.031-0.076,0.006-0.164,0.082-0.196C601.535,641.635,601.619,641.667,601.654,641.736z" fill="#263238" id="XMLID_534_"/><path d="M613.791,639.82c-5.91-11.295-1.584-16.627-1.584-16.627     s32.215-19.693,40.381-0.001c6.729,16.231-26.92,28.504-26.92,28.504S619.704,651.118,613.791,639.82z" fill="#FFAF99" id="XMLID_2130_" opacity="0.8"/></g><path d="M642.471,450.437c0,0,0.552,0.485,1.518,1.333c0.242,0.211,0.512,0.444,0.804,0.698    c0.308,0.225,0.642,0.469,0.999,0.73c0.707,0.523,1.492,1.119,2.446,1.651c0.464,0.279,0.946,0.57,1.446,0.871    c0.523,0.258,1.064,0.525,1.62,0.8c1.092,0.583,2.32,1.032,3.563,1.542c0.618,0.26,1.289,0.42,1.943,0.639    c0.659,0.204,1.318,0.433,2.012,0.565c0.686,0.155,1.375,0.311,2.067,0.468c0.702,0.102,1.405,0.204,2.11,0.307    c0.699,0.12,1.41,0.152,2.114,0.184c0.704,0.021,1.401,0.113,2.097,0.059c0.689-0.027,1.375-0.053,2.053-0.079    c0.674-0.034,1.332-0.131,1.982-0.183c0.326-0.023,0.648-0.046,0.969-0.068c0.316-0.047,0.629-0.094,0.938-0.14    c0.619-0.094,1.228-0.172,1.824-0.24c0.582-0.13,1.148-0.257,1.695-0.38c0.278-0.054,0.552-0.106,0.82-0.158    c0.259-0.081,0.513-0.16,0.762-0.238c0.496-0.163,0.982-0.3,1.448-0.432c0.479-0.108,0.862-0.353,1.275-0.49    c0.795-0.331,1.54-0.568,2.074-0.894c1.116-0.584,1.817-0.897,1.817-0.897l0.019-0.008c0.077-0.034,0.166,0,0.2,0.077    c0.023,0.054,0.014,0.114-0.021,0.157c0,0-0.465,0.577-1.391,1.549c-0.438,0.526-1.101,0.98-1.848,1.551    c-0.736,0.601-1.666,1.099-2.704,1.625c-1.015,0.596-2.235,0.9-3.491,1.366c-0.641,0.166-1.31,0.304-1.994,0.445    c-0.342,0.07-0.688,0.151-1.041,0.197c-0.353,0.03-0.71,0.061-1.069,0.092c-0.722,0.031-1.454,0.123-2.195,0.091    c-0.738-0.044-1.485-0.088-2.239-0.133c-0.752-0.028-1.496-0.2-2.248-0.286c-0.752-0.101-1.504-0.205-2.239-0.397    c-0.739-0.166-1.477-0.333-2.212-0.498c-0.719-0.222-1.435-0.442-2.145-0.661c-0.717-0.196-1.394-0.488-2.069-0.755    c-0.669-0.282-1.351-0.505-1.979-0.825c-1.258-0.638-2.504-1.18-3.575-1.904c-0.546-0.339-1.075-0.67-1.589-0.989    c-0.484-0.36-0.953-0.709-1.402-1.043c-0.916-0.635-1.679-1.339-2.354-1.95c-0.337-0.303-0.652-0.586-0.945-0.848    c-0.262-0.286-0.502-0.548-0.721-0.785c-0.862-0.953-1.355-1.497-1.355-1.497c-0.056-0.062-0.051-0.156,0.01-0.212    C642.327,450.387,642.414,450.387,642.471,450.437z" fill="#263238" id="XMLID_533_"/><path d="M664.859,430.403c-7.006-10.1-14.311-17.797-14.311-17.797    s22.475-19.972,36.35,1.111c13.877,21.082-12.354,33.26-12.354,33.26S671.865,440.504,664.859,430.403z" fill="#FFAF99" id="XMLID_2125_" opacity="0.8"/><path d="M620.662,539.672c-6.408-7.962-5.902-16.193-5.902-16.193    s30.148-27.223,42.908-10.559c12.756,16.667-20.972,37.644-20.972,37.644S627.072,547.635,620.662,539.672z" fill="#FFAF99" id="XMLID_2124_" opacity="0.8"/></g><g id="XMLID_2078_"><g id="XMLID_2114_"><g id="XMLID_2119_"><path d="M829.096,205.131l-30.617-4.642c0,0-0.248-1.814,1.039-9.526      c1.396-8.372-2.131-12.749-5.862-13.732c-3.155-0.832-3.792,1.175-3.792,1.175l-3.11,11.804l-15.825,15.605l-3.203,30.979      l2.512,0.26c0.926,0.097,2.293,0.602,3.061,1.127l5.918,4.069c0.766,0.525,2.135,1.031,3.061,1.127l28.916,6.262      c11.199,1.158,24.171-23.285,24.457-26.061C835.936,220.805,836.525,205.9,829.096,205.131z" fill="#FF5252" id="XMLID_2122_"/><path d="M754.902,240.943c0,0-168.854-13.35-179.561-21.182      c-22.088-16.159-10.832-50.414,5.98-53.022c7.627-1.183,179.178,30.121,179.178,30.121S753.4,241.903,754.902,240.943z" fill="#FF5252" id="XMLID_2121_"/><path d="M743.545,218.131c-1.154,13.585,0.623,25.454,2.619,27.013l24.514,2.745      c0.027-0.051,3.832-4.32,5.438-25.814c1.59-21.299-1.242-27.821-1.318-27.994l-24.412-1.676      C748.732,192.293,744.4,208.041,743.545,218.131z" fill="#E8EAF6" id="XMLID_2120_"/></g><g id="XMLID_2115_"><path d="M210.904,205.131l30.617-4.642c0,0,0.248-1.814-1.039-9.526      c-1.396-8.372,2.132-12.749,5.863-13.732c3.154-0.832,3.792,1.175,3.792,1.175l3.11,11.804l15.824,15.605l3.203,30.979      l-2.512,0.26c-0.926,0.097-2.294,0.602-3.061,1.127l-5.918,4.069c-0.766,0.525-2.135,1.031-3.061,1.127l-28.916,6.262      c-11.199,1.158-24.171-23.285-24.457-26.061C204.063,220.805,203.475,205.9,210.904,205.131z" fill="#FF5252" id="XMLID_2118_"/><path d="M285.099,240.943c0,0,168.854-13.35,179.56-21.182      c22.088-16.159,10.834-50.414-5.98-53.022C451.052,165.556,279.5,196.86,279.5,196.86S286.601,241.903,285.099,240.943z" fill="#FF5252" id="XMLID_2117_"/><path d="M296.456,218.131c1.153,13.585-0.623,25.454-2.62,27.013l-24.513,2.745      c-0.029-0.051-3.833-4.32-5.438-25.814c-1.592-21.299,1.241-27.821,1.317-27.994l24.412-1.676      C291.269,192.293,295.6,208.041,296.456,218.131z" fill="#E8EAF6" id="XMLID_2116_"/></g></g><path d="M613.23,206.731c0,0,0.477,0.612,1.313,1.683c0.834,1.072,2.021,2.615,3.404,4.491    c0.688,0.942,1.433,1.963,2.221,3.043c0.787,1.081,1.574,2.251,2.404,3.45c1.644,2.411,3.352,5.013,5.023,7.641    c0.828,1.319,1.657,2.638,2.473,3.937c0.826,1.293,1.573,2.605,2.314,3.863c0.699,1.282,1.375,2.522,1.952,3.732    c0.597,1.199,1.141,2.342,1.614,3.412c0.958,2.133,1.696,3.938,2.152,5.229c0.48,1.28,0.72,2.027,0.72,2.027    c0.017,0.053-0.013,0.11-0.065,0.127c-0.043,0.014-0.09-0.004-0.115-0.04c0,0-0.446-0.646-1.169-1.802    c-0.745-1.144-1.745-2.809-2.942-4.803c-1.184-2.001-2.563-4.333-3.967-6.869c-1.389-2.545-2.811-5.296-4.338-7.99    c-3.052-5.389-6.338-10.645-8.853-14.559c-1.257-1.958-2.337-3.565-3.101-4.691c-0.766-1.123-1.203-1.764-1.203-1.764    c-0.031-0.046-0.02-0.108,0.026-0.139C613.139,206.68,613.197,206.69,613.23,206.731z" fill="#FFFFFF" id="XMLID_532_"/><path d="M539.033,164.229c13.398-0.567,16.732,5.946,21.905-3.399    c5.173-9.348-17.69-45.888-17.69-45.888s-18.332-0.108-23.248-6.032c-5.238,6.311-23.248,6.032-23.248,6.032    s-22.863,36.54-17.691,45.888c5.174,9.346,8.506,2.833,21.906,3.399h18.809H539.033z" fill="#E8EAF6" id="XMLID_2110_"/><path d="M536.57,160.833c11.664-0.494,10.916,5.177,15.418-2.96    c4.504-8.137-11.748-39.949-11.748-39.949s-15.959-0.094-20.24-5.251c-4.561,5.493-20.24,5.251-20.24,5.251    s-16.252,31.812-11.749,39.949c4.504,8.137,3.753,2.467,15.419,2.96h16.375H536.57z" fill="#FFAF99" id="XMLID_2107_"/><path d="M554.594,147.726c-6.039-7.024-22.199-6.511-25.277,0.481    c-3.361,0.642-5.112,0.027-9.057,1.075c-3.943-1.048-6.354-0.128-9.715-0.77c-3.523-7.811-22.916-9.202-25.619-1.349    c-33.287-28.7-95.536,20.145-46.493,64.321c-14.854,30.475,13.864,56.896,31.234,48.813c-10.757,17.67,16.118,24.027,22.399,7.427    c3.309,25.1,32.613,37.901,52.979,30.861c19.973-6.906,27.031-25.189,23.383-36.517c18.213,3.653,38.105-24.078,23.742-41.348    c15.365,5.932,16.646-10.03,6.146-11.159C641.26,165.913,579.807,123.322,554.594,147.726z" fill="#FFFFFF" id="XMLID_2106_"/><path d="M612.187,170.99l-0.64-2.206l-0.782-2.144c-0.284-0.705-0.617-1.392-0.923-2.088    c-0.32-0.689-0.705-1.348-1.055-2.023c-1.489-2.652-3.307-5.111-5.365-7.337c-1.027-1.114-2.113-2.177-3.261-3.164    c-0.558-0.514-1.154-0.98-1.751-1.447c-0.583-0.482-1.195-0.927-1.816-1.36c-0.607-0.451-1.237-0.869-1.882-1.265    c-0.632-0.416-1.278-0.808-1.943-1.167c-0.654-0.378-1.315-0.743-1.999-1.065c-0.674-0.34-1.352-0.675-2.051-0.96    c-0.691-0.302-1.381-0.605-2.095-0.85c-0.706-0.262-1.411-0.531-2.136-0.736c-0.719-0.222-1.436-0.453-2.17-0.616    c-0.73-0.181-1.457-0.371-2.199-0.489c-0.738-0.139-1.475-0.283-2.221-0.356c-0.744-0.097-1.486-0.189-2.235-0.215    c-0.746-0.055-1.493-0.086-2.239-0.061l-1.118,0.01l-1.113,0.087c-0.745,0.038-1.48,0.139-2.212,0.262    c-0.738,0.088-1.459,0.264-2.18,0.433c-1.44,0.333-2.836,0.824-4.189,1.397c-0.688,0.263-1.32,0.644-1.984,0.958    c-0.648,0.342-1.254,0.761-1.883,1.136l-1.781,1.289l-1.662,1.444l-0.785,0.683l-0.694-0.75l-0.548-0.591l-0.598-0.549    c-0.418-0.349-0.862-0.667-1.317-0.979c-0.465-0.299-0.946-0.576-1.445-0.83c-0.503-0.244-1.017-0.473-1.546-0.674    c-2.117-0.798-4.402-1.211-6.697-1.305c-2.294-0.118-4.631,0.107-6.825,0.803c-0.546,0.179-1.085,0.379-1.61,0.614    c-0.521,0.241-1.025,0.518-1.5,0.843c-0.466,0.333-0.925,0.69-1.305,1.122c-0.41,0.411-0.73,0.896-1.021,1.405l-0.005,0.007    c-0.027,0.048-0.089,0.064-0.136,0.037c-0.045-0.025-0.063-0.079-0.043-0.125c0.229-0.556,0.495-1.115,0.873-1.599    c0.355-0.501,0.801-0.93,1.26-1.337c0.469-0.398,0.975-0.75,1.503-1.065c0.532-0.306,1.079-0.589,1.649-0.816    c2.279-0.915,4.729-1.336,7.179-1.395c2.452-0.022,4.917,0.321,7.286,1.094c0.592,0.195,1.174,0.424,1.75,0.675    c0.573,0.26,1.134,0.552,1.683,0.873c0.546,0.329,1.063,0.706,1.564,1.111l0.722,0.647l0.672,0.708l-1.48-0.068l1.785-1.59    c0.644-0.471,1.269-0.971,1.936-1.408c0.69-0.399,1.357-0.84,2.068-1.199c0.725-0.331,1.42-0.727,2.168-1    c1.477-0.59,2.999-1.062,4.549-1.376c0.775-0.158,1.55-0.32,2.337-0.393l1.174-0.142c0.393-0.034,0.786-0.043,1.179-0.065    l1.179-0.056l1.178,0.023c0.786-0.003,1.566,0.056,2.347,0.131c0.783,0.046,1.556,0.16,2.328,0.28    c0.777,0.095,1.541,0.262,2.303,0.425c0.768,0.142,1.519,0.356,2.271,0.561c0.757,0.187,1.493,0.443,2.23,0.69    c0.744,0.23,1.464,0.523,2.187,0.811c0.729,0.271,1.434,0.599,2.138,0.927c0.712,0.31,1.399,0.67,2.085,1.036    c0.693,0.348,1.363,0.738,2.025,1.142c0.674,0.385,1.326,0.802,1.965,1.243c0.65,0.421,1.285,0.865,1.896,1.341    c0.624,0.458,1.24,0.926,1.824,1.436c0.595,0.496,1.189,0.991,1.742,1.534c1.14,1.045,2.212,2.163,3.223,3.331    c2.025,2.333,3.793,4.889,5.217,7.623c0.332,0.695,0.7,1.374,1.003,2.081c0.288,0.715,0.601,1.418,0.866,2.14l0.724,2.194    l0.569,2.225c0.014,0.053-0.018,0.108-0.072,0.122C612.255,171.073,612.201,171.042,612.187,170.99z" fill="#E8EAF6" id="XMLID_531_"/><path d="M510.456,148.56c-0.313-0.546-0.661-1.042-1.072-1.475    c-0.408-0.445-0.856-0.851-1.35-1.199c-0.239-0.182-0.487-0.352-0.751-0.502c-0.252-0.163-0.514-0.312-0.785-0.445    c-0.264-0.144-0.535-0.276-0.814-0.391c-0.271-0.128-0.546-0.251-0.83-0.355c-1.121-0.443-2.287-0.77-3.471-1.006    c-0.593-0.112-1.188-0.207-1.786-0.276c-0.599-0.066-1.198-0.115-1.799-0.143c-0.599-0.039-1.2-0.046-1.798-0.032    c-0.599,0.008-1.195,0.052-1.787,0.108c-0.593,0.061-1.178,0.155-1.758,0.262c-0.577,0.123-1.145,0.267-1.699,0.441    c-0.551,0.183-1.083,0.398-1.595,0.642c-0.501,0.26-0.977,0.549-1.41,0.874c-0.424,0.332-0.831,0.685-1.128,1.105    c-0.331,0.4-0.54,0.863-0.729,1.33l-0.53,1.323l-1.108-0.881l-1.724-1.37l-1.786-1.283c-1.22-0.814-2.481-1.564-3.792-2.225    c-2.613-1.334-5.407-2.322-8.289-2.94c-2.882-0.624-5.853-0.861-8.813-0.756c-2.962,0.105-5.917,0.554-8.795,1.309    c-1.438,0.381-2.858,0.836-4.255,1.357c-1.394,0.53-2.761,1.128-4.1,1.789c-1.332,0.672-2.639,1.399-3.908,2.188    c-1.265,0.797-2.49,1.656-3.677,2.57c-1.179,0.924-2.311,1.906-3.396,2.939c-0.541,0.519-1.051,1.069-1.579,1.602    c-0.51,0.549-0.991,1.125-1.489,1.687c-0.478,0.579-0.929,1.179-1.395,1.769l-1.291,1.848l-1.182,1.922l-1.063,1.992l-0.003,0.006    c-0.026,0.049-0.087,0.067-0.135,0.041c-0.048-0.025-0.066-0.084-0.043-0.132l1.007-2.037l1.13-1.974l1.245-1.906    c0.451-0.61,0.889-1.231,1.353-1.832c0.485-0.584,0.955-1.182,1.455-1.755c0.517-0.557,1.017-1.131,1.549-1.674    c1.069-1.083,2.188-2.117,3.357-3.094c1.177-0.968,2.397-1.881,3.663-2.735c1.27-0.845,2.578-1.633,3.929-2.348    c1.354-0.709,2.74-1.355,4.157-1.932c1.42-0.569,2.867-1.071,4.339-1.498c2.944-0.847,5.985-1.384,9.058-1.565    c3.07-0.182,6.17-0.001,9.212,0.554c3.041,0.558,6.019,1.511,8.826,2.84c1.404,0.665,2.752,1.443,4.06,2.281    c0.635,0.446,1.293,0.863,1.909,1.336l1.806,1.472l-1.64,0.443c0.269-0.683,0.602-1.35,1.065-1.907    c0.435-0.584,0.98-1.05,1.535-1.471c0.56-0.419,1.172-0.731,1.783-1.02c0.619-0.264,1.248-0.486,1.883-0.666    c0.638-0.171,1.278-0.305,1.92-0.412c0.644-0.092,1.287-0.166,1.931-0.204c0.644-0.034,1.287-0.053,1.929-0.034    c0.641,0.013,1.281,0.048,1.916,0.117c1.271,0.137,2.529,0.378,3.758,0.716c1.229,0.341,2.432,0.777,3.579,1.334    c0.576,0.272,1.138,0.583,1.665,0.945c0.27,0.17,0.529,0.356,0.779,0.556c0.259,0.187,0.502,0.395,0.736,0.614    c0.479,0.421,0.909,0.9,1.288,1.412c0.388,0.517,0.675,1.093,0.909,1.659l0.002,0.005c0.021,0.051-0.002,0.109-0.054,0.131    C510.534,148.622,510.48,148.603,510.456,148.56z" fill="#E8EAF6" id="XMLID_528_"/><path d="M492.264,267.693c0.517,2.408,1.207,4.692,2.121,6.913    c0.899,2.223,2.129,4.284,3.451,6.244c2.678,3.917,6.149,7.22,10.028,9.865c1.927,1.347,3.993,2.485,6.116,3.476    c2.132,0.974,4.316,1.835,6.566,2.48c2.248,0.647,4.541,1.116,6.851,1.41c2.307,0.316,4.636,0.422,6.945,0.322    c2.311-0.076,4.602-0.384,6.841-0.873c0.554-0.14,1.12-0.245,1.666-0.412l1.561-0.473l3.412-1.317l3.047-1.497l2.979-1.781    c0.922-0.695,1.877-1.354,2.781-2.074c0.843-0.787,1.77-1.496,2.555-2.344c0.771-0.859,1.623-1.655,2.29-2.602l1.063-1.372    c0.329-0.475,0.624-0.972,0.938-1.456c1.271-1.937,2.219-4.06,3-6.228c0.719-2.192,1.188-4.459,1.337-6.745    c0.09-2.281-0.109-4.565-0.735-6.723l-0.625-2.153l2.255,0.326c0.562,0.081,1.12,0.19,1.684,0.257    c0.569,0.018,1.136,0.09,1.708,0.072c1.142-0.025,2.289-0.135,3.419-0.387c0.563-0.13,1.133-0.241,1.683-0.439    c0.556-0.171,1.111-0.348,1.647-0.587c0.546-0.21,1.083-0.445,1.603-0.722l0.79-0.394l0.763-0.451    c0.516-0.288,1.011-0.612,1.494-0.956c0.497-0.323,0.969-0.683,1.432-1.057c0.477-0.356,0.927-0.746,1.367-1.149    c0.453-0.387,0.881-0.802,1.296-1.233c0.431-0.415,0.836-0.854,1.224-1.309c0.404-0.441,0.787-0.9,1.146-1.38    c0.377-0.466,0.738-0.944,1.068-1.444c0.346-0.489,0.684-0.984,0.982-1.504c0.314-0.51,0.629-1.021,0.896-1.558    c0.28-0.53,0.569-1.056,0.802-1.608c0.507-1.085,0.939-2.206,1.303-3.345c0.73-2.279,1.16-4.656,1.205-7.043    c0.047-2.386-0.3-4.78-1.069-7.043c-0.38-1.134-0.878-2.226-1.451-3.279c-0.315-0.51-0.599-1.042-0.938-1.537l-1.066-1.458    l-1.266-1.729l1.969,0.75c1.018,0.388,2.048,0.759,3.105,0.991c0.525,0.134,1.058,0.219,1.592,0.288    c0.531,0.057,1.07,0.108,1.6,0.085c0.534,0,1.06-0.067,1.578-0.159c0.514-0.108,1.016-0.262,1.488-0.477    c0.465-0.226,0.918-0.489,1.297-0.836c0.404-0.323,0.714-0.743,0.996-1.173c0.252-0.448,0.469-0.926,0.576-1.437    c0.138-0.504,0.148-1.034,0.142-1.559c-0.05-0.523-0.128-1.05-0.313-1.549c-0.156-0.508-0.416-0.978-0.699-1.428    c-0.145-0.225-0.322-0.426-0.48-0.641c-0.189-0.189-0.366-0.393-0.565-0.572c-0.403-0.354-0.841-0.674-1.315-0.932    c-0.474-0.263-0.979-0.47-1.498-0.633c-0.521-0.166-1.06-0.26-1.602-0.347l-0.014-0.002c-0.109-0.017-0.184-0.12-0.166-0.229    c0.018-0.107,0.115-0.18,0.223-0.167c0.566,0.071,1.132,0.153,1.686,0.31c0.553,0.154,1.094,0.356,1.608,0.621    c0.517,0.26,0.997,0.589,1.446,0.959c0.223,0.188,0.422,0.401,0.633,0.602c0.182,0.228,0.383,0.443,0.549,0.684    c0.327,0.483,0.628,0.994,0.821,1.551c0.22,0.547,0.331,1.133,0.401,1.72c0.031,0.59,0.033,1.192-0.104,1.776    c-0.106,0.59-0.336,1.153-0.615,1.684c-0.311,0.514-0.664,1.016-1.122,1.412c-0.436,0.421-0.95,0.745-1.481,1.022    c-0.538,0.266-1.104,0.459-1.682,0.599c-0.578,0.124-1.164,0.215-1.75,0.234c-0.586,0.042-1.17,0.007-1.75-0.037    c-0.578-0.056-1.154-0.131-1.718-0.255c-1.138-0.214-2.231-0.568-3.315-0.943l0.703-0.979l1.178,1.508    c0.376,0.515,0.698,1.069,1.05,1.604c0.646,1.103,1.218,2.256,1.664,3.461c0.903,2.405,1.36,4.977,1.39,7.546    c0.033,2.572-0.349,5.138-1.053,7.603c-0.348,1.234-0.781,2.444-1.298,3.616c-0.235,0.597-0.53,1.166-0.815,1.739    c-0.273,0.581-0.594,1.134-0.917,1.688c-0.309,0.563-0.655,1.1-1.013,1.632c-0.342,0.543-0.715,1.063-1.105,1.572    c-0.373,0.522-0.773,1.024-1.195,1.508c-0.404,0.498-0.829,0.98-1.281,1.438c-0.436,0.473-0.886,0.931-1.365,1.362    c-0.465,0.446-0.941,0.879-1.449,1.279c-0.492,0.417-0.997,0.82-1.531,1.187c-0.519,0.387-1.051,0.755-1.611,1.086l-0.827,0.515    l-0.862,0.458c-0.568,0.319-1.16,0.595-1.767,0.846c-0.593,0.279-1.212,0.496-1.837,0.704c-0.615,0.235-1.26,0.382-1.9,0.545    c-1.285,0.317-2.611,0.481-3.946,0.539c-0.667,0.035-1.339-0.026-2.008-0.038c-0.667-0.061-1.333-0.17-1.999-0.258l1.63-1.826    c0.802,2.518,1.086,5.134,1.042,7.723c-0.105,2.588-0.572,5.135-1.316,7.595c-0.803,2.434-1.797,4.82-3.141,7.005    c-0.333,0.547-0.649,1.106-1,1.643l-1.133,1.553c-0.717,1.069-1.625,1.977-2.458,2.953c-0.843,0.967-1.831,1.789-2.745,2.689    c-0.973,0.831-2.001,1.597-3.005,2.397c-1.073,0.695-2.139,1.402-3.231,2.081c-1.154,0.605-2.326,1.211-3.488,1.787l-3.387,1.377    l-0.106,0.043l-0.2,0.07l-0.23,0.074l-0.463,0.148l-0.926,0.296c-0.616,0.199-1.248,0.332-1.873,0.499    c-2.514,0.601-5.082,0.891-7.643,0.978c-5.132,0.157-10.224-0.72-15.043-2.292c-2.412-0.789-4.752-1.788-6.988-2.975    c-2.234-1.188-4.389-2.528-6.385-4.082c-1.992-1.556-3.846-3.285-5.527-5.163c-1.697-1.865-3.133-3.957-4.384-6.127    c-1.239-2.18-2.244-4.489-2.946-6.875c-0.713-2.376-1.164-4.852-1.332-7.272l-0.001-0.01c-0.008-0.11,0.075-0.206,0.187-0.214    C492.154,267.528,492.242,267.597,492.264,267.693z" fill="#E8EAF6" id="XMLID_525_"/><path d="M556.737,153.693c0,0-0.038-0.128-0.109-0.367c-0.079-0.235-0.157-0.601-0.327-1.028    c-0.182-0.422-0.361-0.94-0.683-1.493c-0.14-0.285-0.31-0.576-0.518-0.865c-0.192-0.298-0.401-0.604-0.661-0.894    c-0.236-0.307-0.508-0.604-0.813-0.887c-0.283-0.305-0.625-0.569-0.965-0.848c-0.336-0.283-0.729-0.517-1.101-0.787    c-0.408-0.221-0.794-0.493-1.236-0.686c-0.849-0.448-1.798-0.766-2.759-1.065c-0.977-0.256-1.979-0.476-3-0.585    c-1.021-0.106-2.047-0.165-3.053-0.11c-1.006,0.035-1.987,0.146-2.93,0.268c-1.885,0.237-3.619,0.606-5.033,1.126    c-0.715,0.248-1.33,0.547-1.871,0.836c-0.262,0.152-0.5,0.309-0.727,0.452c-0.211,0.162-0.405,0.31-0.58,0.445    c-0.316,0.304-0.582,0.549-0.723,0.748c-0.158,0.192-0.242,0.294-0.242,0.294l-0.012,0.013c-0.035,0.042-0.098,0.049-0.141,0.013    c-0.031-0.027-0.043-0.069-0.031-0.107c0,0,0.041-0.132,0.118-0.38c0.063-0.263,0.237-0.603,0.481-1.044    c0.146-0.202,0.309-0.427,0.485-0.671c0.203-0.218,0.425-0.46,0.675-0.704c0.521-0.454,1.143-0.949,1.892-1.347    c0.736-0.432,1.585-0.78,2.501-1.088c0.916-0.3,1.909-0.527,2.947-0.655c2.08-0.242,4.318-0.076,6.486,0.328    c1.087,0.195,2.152,0.506,3.18,0.856c1.015,0.394,2.005,0.809,2.891,1.356c0.895,0.522,1.709,1.12,2.398,1.775    c0.339,0.334,0.675,0.648,0.951,1.002c0.298,0.332,0.557,0.675,0.78,1.023c0.245,0.332,0.438,0.676,0.612,1.008    c0.19,0.322,0.341,0.642,0.46,0.954c0.281,0.6,0.424,1.171,0.56,1.625c0.126,0.456,0.164,0.818,0.219,1.063    c0.046,0.246,0.07,0.377,0.07,0.377c0.01,0.054-0.025,0.107-0.08,0.117C556.801,153.773,556.752,153.742,556.737,153.693z" fill="#E8EAF6" id="XMLID_524_"/><path d="M510.456,148.56c0,0-0.072-0.122-0.209-0.35c-0.122-0.242-0.355-0.548-0.657-0.916    c-0.321-0.361-0.744-0.776-1.277-1.19c-0.266-0.208-0.573-0.399-0.881-0.616c-0.334-0.184-0.668-0.4-1.043-0.582    c-0.742-0.374-1.574-0.725-2.482-1.013c-0.907-0.286-1.876-0.552-2.898-0.721c-2.038-0.372-4.266-0.434-6.419-0.138    c-1.07,0.178-2.124,0.424-3.104,0.796c-0.963,0.402-1.895,0.818-2.69,1.373c-0.805,0.531-1.544,1.103-2.146,1.749    c-0.629,0.625-1.104,1.327-1.526,1.995c-0.389,0.687-0.72,1.35-0.946,1.974c-0.141,0.303-0.232,0.602-0.311,0.882    c-0.093,0.279-0.178,0.536-0.254,0.768c-0.219,0.95-0.371,1.513-0.371,1.513l-0.002,0.007c-0.015,0.054-0.07,0.086-0.124,0.071    c-0.041-0.011-0.068-0.045-0.074-0.084c0,0-0.079-0.569-0.126-1.596c0.026-0.508-0.009-1.146,0.131-1.858    c0.103-0.72,0.306-1.527,0.64-2.379c0.354-0.841,0.818-1.745,1.506-2.564c0.642-0.858,1.519-1.595,2.482-2.233    c1.981-1.238,4.392-1.813,6.741-2.004c4.733-0.349,9.381,0.979,12.32,2.854c0.373,0.223,0.706,0.482,1.033,0.703    c0.306,0.257,0.605,0.483,0.864,0.725c0.521,0.483,0.921,0.952,1.225,1.362c0.292,0.428,0.499,0.765,0.599,1.01    c0.115,0.24,0.178,0.367,0.178,0.367c0.023,0.05,0.002,0.11-0.047,0.134C510.539,148.622,510.482,148.604,510.456,148.56z" fill="#E8EAF6" id="XMLID_523_"/><ellipse cx="520" cy="147.727" fill="#FF8A80" id="XMLID_2090_" rx="10.123" ry="5.585"/><path d="M494.165,105.952c0,0-5.458-20.541,47.347-27.874c6.529,0.097,1.752,7.677,7.365,10.085    c5.615,2.41,11.973-1.803,12.146,10.5s0.793,27.627,8.852,29.405c8.057,1.777,0.387,3.964,0.387,3.964s-14.664-1.255-16.89-14.005    c-2.226-12.749-3.339-5.414-3.339-5.414L494.165,105.952z" fill="#FF5252" id="XMLID_2089_"/><path d="M489.24,120.963c0.039,2.085,1.887,3.664,3.954,3.385    c5.673-0.765,16.716-1.946,26.501-1.177c13.891,1.094,32.734,6.423,32.734,6.423s1.887,0.817,1.613-19.978    c-0.064-4.721-63.979-11.104-64.427-4.002C489.199,112.244,489.18,117.592,489.24,120.963z" fill="#E8EAF6" id="XMLID_2088_"/><ellipse cx="574.028" cy="125.779" fill="#E8EAF6" id="XMLID_2087_" rx="8.042" ry="7.313" transform="matrix(0.998 0.064 -0.064 0.998 9.2254 -36.4755)"/><path d="M525.326,132.42c5.144-0.763,10.266-0.252,14.865,1.333    c0.548-1.311,1.123-2.615,1.725-3.909c-5.336-1.856-11.248-2.459-17.168-1.609C524.914,129.634,525.105,131.03,525.326,132.42z" fill="#FFFFFF" id="XMLID_2086_"/><path d="M513.607,132.42c-5.143-0.763-10.264-0.252-14.865,1.333    c-0.547-1.311-1.121-2.615-1.725-3.909c5.336-1.856,11.25-2.459,17.168-1.609C514.02,129.634,513.828,131.03,513.607,132.42z" fill="#FFFFFF" id="XMLID_2085_"/><path d="M527.837,140.312c-0.111,0-0.225-0.019-0.335-0.058c-0.521-0.185-0.792-0.757-0.607-1.277    c0.919-2.582,3.359-4.316,6.072-4.316c2.298,0,4.44,1.252,5.59,3.267c0.274,0.48,0.107,1.09-0.372,1.364    c-0.485,0.274-1.091,0.106-1.364-0.373c-0.795-1.393-2.271-2.258-3.854-2.258c-1.869,0-3.552,1.2-4.188,2.986    C528.633,140.056,528.248,140.312,527.837,140.312z" fill="#263238" id="XMLID_522_"/><path d="M512.369,140.312c-0.411,0-0.796-0.255-0.942-0.665c-0.636-1.786-2.318-2.986-4.187-2.986    c-1.582,0-3.059,0.865-3.855,2.259c-0.273,0.479-0.885,0.646-1.363,0.372c-0.479-0.274-0.646-0.885-0.372-1.365    c1.151-2.015,3.293-3.267,5.591-3.267c2.713,0,5.152,1.734,6.071,4.316c0.185,0.52-0.087,1.092-0.607,1.277    C512.594,140.293,512.48,140.312,512.369,140.312z" fill="#263238" id="XMLID_518_"/><path d="M520,167.757c-4.358,0-8.01-3.122-8.682-7.423c-0.085-0.546,0.288-1.057,0.834-1.142    c0.544-0.084,1.058,0.289,1.143,0.834c0.519,3.321,3.338,5.731,6.705,5.731c3.349,0,6.166-2.395,6.699-5.695    c0.088-0.545,0.604-0.916,1.146-0.828c0.546,0.088,0.916,0.602,0.828,1.147C527.982,164.655,524.336,167.757,520,167.757z" fill="#263238" id="XMLID_517_"/><path d="M470.759,169.625l-1.657,1.676c-0.521,0.581-0.964,1.212-1.448,1.812    c-0.468,0.612-0.822,1.312-1.238,1.961c-0.405,0.659-0.665,1.396-1.004,2.087c-0.323,0.701-0.495,1.461-0.751,2.186    c-0.228,0.735-0.319,1.506-0.486,2.255c-0.127,0.757-0.143,1.531-0.221,2.293c-0.021,0.766,0.033,1.535,0.044,2.3    c0.081,0.762,0.204,1.52,0.303,2.278l0.556,2.227c0.267,0.717,0.514,1.441,0.794,2.15c0.341,0.684,0.656,1.379,1.016,2.051    c0.41,0.643,0.793,1.303,1.222,1.931c0.473,0.597,0.923,1.211,1.411,1.793c0.53,0.545,1.047,1.104,1.585,1.638l1.738,1.47    l1.104,0.933l-1.424,0.519l-0.854,0.312c-0.274,0.119-0.503,0.306-0.761,0.446c-0.237,0.165-0.414,0.394-0.631,0.578    c-0.162,0.229-0.32,0.461-0.459,0.699c-0.069,0.267-0.242,0.504-0.252,0.781c-0.044,0.269-0.096,0.536-0.046,0.802    c-0.014,0.273,0.089,0.516,0.16,0.764c0.072,0.249,0.248,0.444,0.365,0.665l0.271,0.261c0.08,0.097,0.174,0.181,0.296,0.23    c0.224,0.124,0.425,0.279,0.703,0.32l0.383,0.117c0.132,0.03,0.282,0.017,0.423,0.03c0.283,0.015,0.563,0.057,0.868-0.017    c0.299-0.056,0.596-0.058,0.896-0.149l0.902-0.289c0.304-0.071,0.592-0.252,0.888-0.383l0.881-0.422l3.1-1.483l-1.676,3.014    l-0.525,0.947c-0.166,0.32-0.294,0.656-0.444,0.982c-0.262,0.667-0.478,1.351-0.618,2.051c-0.289,1.398-0.318,2.846-0.113,4.268    c0.205,1.422,0.639,2.818,1.25,4.138c0.304,0.66,0.651,1.304,1.043,1.92c0.385,0.62,0.809,1.219,1.273,1.785    c0.454,0.572,0.945,1.119,1.472,1.627c0.255,0.263,0.522,0.511,0.803,0.747c0.27,0.246,0.55,0.48,0.842,0.698    c0.284,0.228,0.575,0.447,0.88,0.645c0.297,0.21,0.6,0.41,0.914,0.588c0.309,0.19,0.621,0.371,0.946,0.527    c0.317,0.17,0.64,0.327,0.972,0.46c0.326,0.15,0.658,0.28,0.996,0.387c0.333,0.127,0.672,0.226,1.014,0.309    c0.679,0.188,1.37,0.3,2.057,0.356c0.688,0.063,1.371,0.04,2.042-0.031c0.337-0.032,0.663-0.119,0.995-0.171    c0.324-0.082,0.641-0.188,0.963-0.277l2.387-0.653l-0.371,2.405c-0.203,1.312-0.149,2.683,0.08,4.038    c0.268,1.354,0.728,2.68,1.332,3.943c0.641,1.245,1.375,2.455,2.294,3.527c0.229,0.268,0.446,0.546,0.681,0.808l0.75,0.747    c0.476,0.523,1.057,0.936,1.592,1.395c0.541,0.453,1.159,0.809,1.73,1.221c0.604,0.367,1.236,0.691,1.85,1.041l1.949,0.851    l2.023,0.672l2.08,0.505l2.16,0.298c0.403,0.076,0.7,0.036,1.043,0.049l0.998,0.013c0.646,0.054,1.387-0.088,2.079-0.129    c0.351-0.04,0.704-0.044,1.054-0.111l1.044-0.206c0.698-0.124,1.398-0.244,2.077-0.471c1.387-0.339,2.707-0.891,4.031-1.424    l1.923-0.952c0.635-0.329,1.221-0.742,1.835-1.107c0.631-0.348,1.165-0.823,1.744-1.241l0.859-0.642l0.787-0.723    c1.09-0.928,2.002-2.023,2.91-3.116l1.211-1.75c0.367-0.604,0.668-1.246,1.018-1.864c0.383-0.607,0.557-1.298,0.834-1.951    l0.386-0.994l0.245-1.035c0.139-0.695,0.404-1.373,0.424-2.09l0.226-2.135l0.521-4.932l2.307,4.234    c0.229,0.419,0.445,0.85,0.729,1.231c0.125,0.206,0.279,0.383,0.432,0.564c0.146,0.188,0.304,0.365,0.479,0.523    c0.329,0.341,0.702,0.637,1.093,0.905c0.391,0.27,0.813,0.498,1.252,0.691c0.881,0.379,1.84,0.621,2.822,0.678    c0.491,0.029,0.988,0.02,1.479-0.042c0.489-0.057,0.98-0.152,1.447-0.309c0.475-0.139,0.923-0.347,1.355-0.576    c0.433-0.233,0.824-0.525,1.186-0.85c0.338-0.342,0.666-0.708,0.893-1.135c0.256-0.413,0.404-0.882,0.514-1.363    c0.063-0.24,0.059-0.492,0.095-0.741c0.007-0.251-0.014-0.505-0.017-0.761l-0.121-0.767l-0.213-0.76    c-0.182-0.497-0.365-1.006-0.631-1.481c-0.229-0.496-0.553-0.94-0.838-1.412l0.313-0.249c0.356,0.438,0.754,0.85,1.065,1.333    c0.344,0.46,0.626,0.969,0.889,1.492l0.331,0.82l0.236,0.866c0.042,0.299,0.098,0.599,0.123,0.904    c-0.005,0.306,0.026,0.617-0.014,0.925c-0.065,0.616-0.194,1.244-0.461,1.817c-0.236,0.59-0.602,1.114-0.996,1.608    c-0.416,0.473-0.88,0.905-1.393,1.262c-0.512,0.36-1.061,0.668-1.639,0.897c-0.57,0.249-1.17,0.422-1.776,0.549    c-0.607,0.132-1.228,0.2-1.851,0.219c-1.244,0.034-2.512-0.142-3.709-0.567c-0.598-0.212-1.182-0.475-1.734-0.798    c-0.552-0.321-1.086-0.687-1.564-1.113c-0.253-0.201-0.482-0.424-0.7-0.66c-0.225-0.229-0.45-0.46-0.639-0.717    c-0.416-0.491-0.749-1.031-1.088-1.572l2.827-0.698c-0.063,1.641-0.076,3.302-0.462,4.92l-0.228,1.224l-0.379,1.184    c-0.275,0.78-0.458,1.605-0.852,2.338c-0.357,0.747-0.686,1.517-1.094,2.238l-1.338,2.098c-0.998,1.315-2.025,2.626-3.238,3.748    l-0.883,0.87l-0.959,0.78c-0.645,0.514-1.268,1.061-1.976,1.484c-0.696,0.438-1.368,0.922-2.089,1.319l-2.191,1.142    c-1.516,0.648-3.047,1.268-4.651,1.678c-0.786,0.257-1.601,0.414-2.419,0.553l-1.225,0.214c-0.408,0.068-0.828,0.073-1.242,0.112    c-0.842,0.039-1.632,0.173-2.526,0.104c-0.853-0.045-1.795-0.036-2.565-0.148l-1.141-0.177l-0.57-0.089l-0.285-0.044l-0.143-0.022    l-0.191-0.034l-0.074-0.02l-2.393-0.64l-2.328-0.864l-2.246-1.075c-0.711-0.432-1.435-0.841-2.129-1.298    c-0.662-0.504-1.365-0.954-1.988-1.508c-0.615-0.561-1.271-1.076-1.823-1.705l-0.857-0.909c-0.27-0.317-0.521-0.652-0.78-0.978    c-1.045-1.301-1.885-2.76-2.602-4.271c-0.682-1.533-1.192-3.147-1.471-4.824c-0.242-1.683-0.276-3.419,0.043-5.149l2.015,1.752    c-0.434,0.115-0.865,0.243-1.302,0.339c-0.441,0.066-0.881,0.161-1.324,0.194c-0.886,0.074-1.773,0.076-2.643-0.024    c-0.871-0.092-1.729-0.258-2.552-0.506c-0.417-0.114-0.825-0.245-1.222-0.405c-0.404-0.142-0.797-0.308-1.18-0.493    c-0.391-0.169-0.767-0.364-1.135-0.572c-0.377-0.194-0.736-0.414-1.09-0.643c-0.36-0.218-0.704-0.458-1.041-0.708    c-0.346-0.239-0.674-0.498-0.995-0.768c-0.329-0.259-0.642-0.535-0.944-0.823c-0.313-0.278-0.61-0.569-0.895-0.875    c-0.584-0.594-1.127-1.23-1.629-1.894c-0.512-0.658-0.979-1.352-1.4-2.071c-0.43-0.715-0.81-1.462-1.141-2.231    c-0.665-1.536-1.133-3.172-1.331-4.854c-0.2-1.68-0.123-3.407,0.264-5.065c0.189-0.831,0.465-1.638,0.795-2.418    c0.185-0.381,0.35-0.773,0.552-1.143l0.644-1.089l1.424,1.531l-1.038,0.469c-0.352,0.147-0.676,0.334-1.063,0.425l-1.123,0.326    c-0.378,0.1-0.797,0.114-1.192,0.169c-0.393,0.073-0.818,0.027-1.238-0.011c-0.21-0.024-0.418-0.024-0.628-0.073l-0.628-0.196    c-0.426-0.101-0.807-0.355-1.185-0.602c-0.198-0.109-0.365-0.26-0.517-0.434l-0.463-0.501c-0.228-0.384-0.492-0.771-0.614-1.198    c-0.125-0.43-0.25-0.859-0.233-1.302c-0.047-0.443,0.031-0.871,0.121-1.296c0.057-0.433,0.294-0.809,0.445-1.208    c0.216-0.365,0.47-0.715,0.734-1.042c0.313-0.277,0.606-0.593,0.951-0.819c0.359-0.199,0.708-0.438,1.082-0.587l1.147-0.373    l-0.319,1.452l-1.81-1.635c-0.558-0.59-1.091-1.205-1.634-1.806c-0.502-0.637-0.961-1.308-1.441-1.96    c-0.434-0.683-0.819-1.398-1.229-2.094c-0.357-0.725-0.669-1.474-1.003-2.208c-0.272-0.76-0.509-1.534-0.764-2.299l-0.508-2.366    c-0.078-0.803-0.181-1.603-0.238-2.405c0.013-0.805-0.016-1.611,0.033-2.413c0.107-0.797,0.152-1.603,0.311-2.389    c0.199-0.778,0.323-1.575,0.586-2.333c0.289-0.747,0.496-1.527,0.854-2.243c0.375-0.707,0.669-1.456,1.109-2.123    c0.452-0.658,0.837-1.358,1.344-1.979c0.521-0.606,1.011-1.249,1.558-1.818l1.713-1.621L470.759,169.625z" fill="#E8EAF6" id="XMLID_514_"/></g></g></svg>