<?xml version="1.0" ?><!DOCTYPE svg  PUBLIC '-//W3C//DTD SVG 1.1//EN'  'http://www.w3.org/Graphics/SVG/1.1/DTD/svg11.dtd'><svg enable-background="new 0 0 1000 1000" height="1000px" version="1.1" viewBox="0 0 1000 1000" width="1000px" xml:space="preserve" xmlns="http://www.w3.org/2000/svg" xmlns:xlink="http://www.w3.org/1999/xlink"><g id="Christmas_x2C__celebration_x2C__fireworks_x2C__Santa_Claus_x2C__snowman_x2C__fun"><g id="XMLID_2504_"><g id="snowman_1_"><g id="XMLID_2656_"><g id="XMLID_2742_"><g id="XMLID_2748_"><g id="XMLID_2749_"><path d="M842.685,574.978c0.704-0.991,0.637-2.372-0.226-3.293         c-0.986-1.052-2.637-1.104-3.69-0.12l-40.144,37.625l-74.829,0.389c-3.419,0.698-4.688,5.73-2.71,6.86l71.474-0.187         l6.457,3.509l43.322-44.385C842.47,575.252,842.585,575.119,842.685,574.978z" fill="#263238" id="XMLID_2750_"/></g></g><g id="XMLID_2743_"><path d="M863.73,512.848l-23.244,24.482c0,0,0.509,0.496-3.799-6.859        c-4.677-7.983-10.688-9.183-14.498-7.401c-3.221,1.507-2.353,3.633-2.353,3.633l5.639,12.051l3.609,28.529        c0.402,2.04,1.464,3.89,3.021,5.268l9.485,8.391c2.377,2.102,5.585,3.001,8.709,2.44l15.515-2.784        c0.949-0.357,2.254-1.267,2.918-2.034l23.631-21.952c8.02-9.291-5.747-36.132-8.05-38.12        C882.011,516.506,869.051,506.684,863.73,512.848z" fill="#26A69A" id="XMLID_436_"/></g></g><g id="XMLID_2736_"><g id="XMLID_2739_"><g id="XMLID_2740_"><path d="M627.571,927.109c0.742-0.042,1.458-0.399,1.937-1.04         c0.549-0.735,13.317-18.325,3.579-48.584c-0.442-1.374-1.914-2.125-3.286-1.685c-1.371,0.441-3.168,1.973-2.728,3.344         c8.868,27.552-1.272,43.154-1.752,43.808c-0.852,1.159-0.61,2.792,0.546,3.648         C626.379,926.978,626.983,927.144,627.571,927.109z" fill="#263238" id="XMLID_2741_"/></g></g><g id="XMLID_2737_"><path d="M624.154,926.901c0.222,7.827,59.021,6.151,58.797-1.675        c-0.222-7.827-13.565-13.797-29.802-13.334C636.913,912.354,623.931,919.074,624.154,926.901z" fill="#263238" id="XMLID_2738_"/></g></g><g id="XMLID_2734_"><ellipse cx="628.627" cy="763.493" fill="#E8EAF6" id="XMLID_2735_" rx="125.551" ry="124.605" transform="matrix(-0.9465 -0.3226 0.3226 -0.9465 977.3828 1688.9464)"/></g><g id="XMLID_2732_"><path d="M643.433,567.827c-31.375,16.077-71.21,55.895-56.527,84.55       c14.683,28.657,103.234,70.936,134.61,54.859c31.374-16.076,20.608-86.994,5.926-115.649       C712.757,562.931,674.808,551.75,643.433,567.827z" fill="#E8EAF6" id="XMLID_2733_"/></g><g id="XMLID_2728_"><path d="M660.556,701.36c0,0,0.711,0.181,2.044,0.521c0.665,0.175,1.485,0.39,2.449,0.644       c0.963,0.237,2.069,0.51,3.308,0.816c1.228,0.327,2.611,0.622,4.106,0.967c1.488,0.371,3.113,0.699,4.844,1.06       c1.727,0.378,3.579,0.692,5.518,1.071c1.953,0.294,3.994,0.672,6.134,0.932c2.135,0.314,4.367,0.514,6.668,0.703       c1.149,0.072,2.318,0.145,3.504,0.219c1.182,0.019,2.382,0.037,3.599,0.056c4.837-0.071,9.926-0.571,14.665-2.204       c0.614-0.16,1.159-0.447,1.735-0.685l0.858-0.369l0.216-0.092l0.107-0.046c0.139-0.073-0.128,0.075-0.08,0.047l0.057-0.033       l0.451-0.262c0.603-0.348,1.208-0.697,1.814-1.047l0.457-0.26c0.133-0.09,0.244-0.183,0.368-0.274l0.729-0.546       c0.481-0.385,0.998-0.671,1.468-1.131l1.44-1.323c0.508-0.416,0.912-0.946,1.358-1.436c0.429-0.507,0.903-0.976,1.303-1.515       c3.285-4.259,5.614-9.451,7.23-14.875c1.561-5.457,2.45-11.15,2.909-16.795c0.457-5.65,0.482-11.263,0.237-16.687       c-0.5-10.856-2.067-20.946-3.885-29.476c-0.924-4.265-1.954-8.134-2.938-11.543c-1.039-3.391-1.993-6.337-2.907-8.715       c-0.43-1.2-0.86-2.253-1.242-3.166c-0.37-0.919-0.698-1.695-0.991-2.311c-0.567-1.243-0.87-1.905-0.87-1.905l-0.004-0.01       c-0.057-0.125-0.002-0.274,0.124-0.331c0.122-0.055,0.265-0.005,0.326,0.113c0,0,0.336,0.652,0.966,1.875       c0.326,0.607,0.693,1.371,1.109,2.278c0.429,0.901,0.913,1.942,1.403,3.128c1.043,2.35,2.133,5.274,3.315,8.653       c1.133,3.394,2.332,7.254,3.442,11.521c1.098,4.269,2.144,8.934,3.034,13.914c0.905,4.978,1.576,10.281,2.011,15.796       c0.426,5.516,0.586,11.252,0.303,17.09c-0.288,5.834-1.013,11.78-2.483,17.624c-1.497,5.828-3.814,11.569-7.333,16.621       c-1.872,2.472-3.799,4.786-6.41,6.713l-0.95,0.736l-0.475,0.359l-0.448,0.275c-0.6,0.362-1.198,0.724-1.793,1.084l-0.447,0.269       l-0.056,0.033c0.012-0.005-0.294,0.163-0.196,0.106l-0.13,0.059l-0.26,0.119l-1.04,0.471c-0.695,0.301-1.376,0.657-2.089,0.857       c-5.655,1.931-11.296,2.329-16.479,2.131c-1.293-0.083-2.569-0.165-3.826-0.246c-1.245-0.138-2.471-0.274-3.676-0.408       c-2.393-0.365-4.695-0.74-6.874-1.218c-4.372-0.895-8.29-2.025-11.718-3.119c-3.43-1.099-6.363-2.186-8.76-3.148       c-2.404-0.951-4.249-1.756-5.495-2.338c-1.252-0.571-1.919-0.875-1.919-0.875c-0.126-0.058-0.182-0.206-0.124-0.333       C660.316,701.387,660.44,701.331,660.556,701.36z" fill="#FFFFFF" id="XMLID_382_"/></g><g id="XMLID_2685_"><path d="M798.623,669.96c-6.407,10.892-14.024,21.501-22.824,31.616       c0.321,0.406-24.108-15.508-39.73-36.987c-16.914-20.958-25.022-47.482-21.885-56.264c3.594-0.805,7.097-1.747,10.501-2.815       c-0.93,10.043,12.641,30.458,31.908,43.759C774.971,663.294,799.045,670.205,798.623,669.96z" fill="#26A69A" id="XMLID_739_"/><g id="XMLID_392_"><g id="XMLID_728_"><path d="M774.987,701.015c6.997,5.109,14.72,9.714,21.945,14.509         c2.136,1.423,6.621-1.029,4.46-2.401c-7.279-4.663-15.047-9.123-22.096-14.103         C777.25,697.579,772.949,699.51,774.987,701.015L774.987,701.015z" fill="#26A69A" id="XMLID_735_"/></g><g id="XMLID_712_"><path d="M781.638,695.232c4.23,1.291,7.292,3.417,10.908,5.168         c3.613,1.743,7.492,3.26,11.568,4.575c2.763,0.885,5.942-2.138,3.181-2.976c-8.361-2.611-15.07-7.256-23.551-9.774         C780.983,691.388,778.864,694.364,781.638,695.232L781.638,695.232z" fill="#26A69A" id="XMLID_726_"/></g><g id="XMLID_698_"><path d="M786.166,689.131c8.558,2.436,15.897,6.346,24.388,8.788         c2.759,0.783,5.766-2.323,3.005-3.06c-8.884-2.445-16.507-6.302-25.415-8.775         C785.419,685.313,783.422,688.329,786.166,689.131L786.166,689.131z" fill="#26A69A" id="XMLID_704_"/></g><g id="XMLID_695_"><path d="M789.592,683.447c8.198,2.864,16.291,5.808,24.568,8.425         c2.64,0.828,5.503-2.323,2.869-3.105c-8.254-2.504-16.324-5.338-24.489-8.087         C789.997,679.815,787.007,682.526,789.592,683.447L789.592,683.447z" fill="#26A69A" id="XMLID_697_"/></g><g id="XMLID_512_"><path d="M795.494,677.875c-1.837,0.529-0.767,0.133,0.277,0.564         c0.648,0.267,1.438,0.433,2.141,0.65c2.295,0.7,4.57,1.421,6.872,2.101c3.906,1.154,7.838,2.287,11.981,3.118         c2.778,0.552,5.504-2.623,2.714-3.132c-5.321-1.003-10.316-2.468-15.306-3.936c-2.615-0.754-7.17-3.045-10.485-2.105         C790.784,675.945,792.569,678.713,795.494,677.875L795.494,677.875z" fill="#26A69A" id="XMLID_584_"/></g><g id="XMLID_421_"><path d="M798.54,672.861c1.8-0.821,7.55,1.029,9.314,1.259         c3.169,0.469,6.403,0.798,9.727,0.943c2.946,0.121,4.35-3.205,1.434-3.296c-4.519-0.168-8.862-0.704-13.121-1.411         c-2.952-0.488-6.023-1.677-9.183-0.206C794.097,671.343,795.87,674.093,798.54,672.861L798.54,672.861z" fill="#26A69A" id="XMLID_461_"/></g></g></g><path d="M687.319,553.24c-11.175-14.292-21.888-7.958-30.447,1.875      c-5.352,6.148-7.2,9.732-6.718,12.032c2.11,10.052,13.23,38.819,36.408,48.082c23.465,9.377,36.458,3.221,45.003-2.079      c11.045-6.85,7.609-29.318,6.427-29.802c-2.136-3.095-13.581,11.256-35.141-5.498      C681.292,561.094,687.319,553.24,687.319,553.24z" fill="#80CBC4" id="XMLID_2684_"/><g id="XMLID_2681_"><g id="XMLID_2682_"><circle cx="705.464" cy="789.817" fill="#212121" id="XMLID_2683_" r="4.611"/></g></g><g id="XMLID_2678_"><g id="XMLID_2679_"><circle cx="704.455" cy="745.586" fill="#212121" id="XMLID_2680_" r="4.61"/></g></g><g id="XMLID_2675_"><g id="XMLID_2676_"><circle cx="709.61" cy="647.766" fill="#212121" id="XMLID_2677_" r="4.611"/></g></g><g id="XMLID_2672_"><g id="XMLID_2673_"><circle cx="705.303" cy="685.006" fill="#212121" id="XMLID_2674_" r="4.611"/></g></g><g id="XMLID_2666_"><g id="XMLID_2669_"><g id="XMLID_2670_"><path d="M477.708,821.439c0.335,0.616,0.929,1.083,1.67,1.231         c0.931,0.187,23.056,4.292,47.193-18.355c0.998-0.937,1.048-2.502,0.123-3.491c-0.93-0.993-3.199-2.338-4.195-1.403         c-22.167,20.799-41.932,18.443-42.136,18.402c-1.335-0.256-2.634,0.614-2.904,1.95         C477.34,820.365,477.441,820.948,477.708,821.439z" fill="#263238" id="XMLID_2671_"/></g></g><g id="XMLID_2667_"><path d="M476.171,818.249c-7.285,3.721,20.344,58.316,27.628,54.595        c7.285-3.719,7.004-18.956-0.624-34.032C495.545,823.736,483.456,814.53,476.171,818.249z" fill="#263238" id="XMLID_2668_"/></g></g><g id="XMLID_2657_"><g id="XMLID_2663_"><g id="XMLID_2664_"><path d="M650.696,448.048l-26.362,63.648l17.422,65.787         c-1.978,2.875-7.106,2.076-7.373-0.187l-18.188-62.143l0.026-6.681l28.346-62.748         C644.731,445.651,650.696,448.048,650.696,448.048z" fill="#263238" id="XMLID_2665_"/></g></g><g id="XMLID_2658_"><path d="M693.212,404.053l-13.364,31c0,0-0.655-0.273,7.801,0.795        c9.18,1.16,12.647,6.214,12.507,10.418c-0.119,3.554-2.415,3.592-2.415,3.592l-13.298-0.443l-27.648,7.905        c-2.033,0.432-4.152,0.185-6.03-0.705l-11.445-5.42c-2.868-1.358-4.957-3.954-5.67-7.046l-3.544-15.359        c-0.044-1.014,0.278-2.571,0.723-3.483l10.886-30.361c5.387-11.028,35.48-8.929,38.213-7.594        C682.659,388.684,696.787,396.735,693.212,404.053z" fill="#26A69A" id="XMLID_388_"/></g></g></g><g id="XMLID_2636_"><g id="XMLID_2654_"><path d="M771.746,519.729c0,0,14.203-35.577,22.079-44.499       c-3.599-7.46-15.582-17.389-28.085-22.526c-14.265-5.861-28.799-7.018-31.776-4.854c-8.728,9.693-18.929,46.188-18.929,46.188       L771.746,519.729z" fill="#37474F" id="XMLID_2655_"/></g><g id="XMLID_2652_"><ellipse cx="740.685" cy="510.163" fill="#263238" id="XMLID_2653_" rx="55.636" ry="22.95" transform="matrix(-0.9046 -0.4263 0.4263 -0.9046 1193.213 1287.4016)"/></g><path d="M702.193,584.477L702.193,584.477c19.986,11.238,45.298,4.146,56.536-15.84      l7.415-13.188c6.979-12.411,6.168-27.086-0.852-38.383c-3.238-5.211-27.784-21.038-39.023-21.094      c-13.484-0.067-26.481,7.431-33.567,20.033l-6.469,11.506C674.909,547.649,682.055,573.154,702.193,584.477z" fill="#E8EAF6" id="XMLID_2651_"/><g id="XMLID_2649_"><path d="M760.195,584.523c-2.096,1.224-32.696-29.606-32.319-34.228       c0.182-2.229,1.452-6.296,5.302-8.082c3.85-1.786,8.147-0.065,11.172,2.749C747.374,547.775,762.29,583.299,760.195,584.523z" fill="#FF5252" id="XMLID_2650_"/></g><g id="XMLID_2646_"><g id="XMLID_2647_"><path d="M735.872,570.541c-2.444-0.573-6.466-0.646-14.474-6.026        c-6.253-4.201-9.567-9.864-10.767-13.462c-0.38-1.139-1.896-1.34-2.56-0.339c-5.119,7.719-4.514,17.232,4.74,24.048        C719.4,579.613,731.117,579.678,735.872,570.541z" fill="#263238" id="XMLID_2648_"/></g></g><g id="XMLID_2637_"><ellipse cx="731.616" cy="528.732" fill="#212121" id="XMLID_2643_" rx="2.048" ry="3.347" transform="matrix(0.8907 0.4546 -0.4546 0.8907 320.3198 -274.7946)"/><ellipse cx="751.458" cy="538.857" fill="#212121" id="XMLID_2640_" rx="2.048" ry="3.348" transform="matrix(0.8907 0.4546 -0.4546 0.8907 327.091 -282.7078)"/><path d="M761.983,534.369c-0.005,0-0.01,0-0.015,0c-0.289-0.005-0.802-0.126-0.999-0.889       c-0.691-2.684-3.541-4.946-8.025-6.37c-0.526-0.167-0.817-0.729-0.65-1.256c0.167-0.527,0.728-0.818,1.256-0.651       c5.119,1.625,8.429,4.353,9.333,7.687c0.114,0.22,0.147,0.483,0.072,0.74C762.83,534.059,762.428,534.369,761.983,534.369z" fill="#263238" id="XMLID_381_"/><path d="M740.353,520.578c-0.206,0-0.415-0.064-0.593-0.196       c-5.157-3.809-9.687-2.293-11.929-1.05c-0.731,0.405-1.176,0.151-1.421-0.135c-0.309-0.36-0.317-0.9-0.027-1.275       c0.126-0.163,0.292-0.276,0.473-0.336l0.004-0.002c4.53-2.512,9.664-2.078,14.088,1.19c0.444,0.328,0.538,0.954,0.21,1.398       C740.962,520.438,740.66,520.578,740.353,520.578z" fill="#263238" id="XMLID_353_"/></g></g></g><g id="XMLID_2505_"><g id="XMLID_2627_"><g id="XMLID_2632_"><g id="XMLID_2633_"><polygon fill="#FF5252" id="XMLID_2635_" points="638.68,795.476 627.751,819.633 500.624,728.565 537.258,678.148       "/><path d="M611.482,811.249l20.133-24.81c0,0,9.09,8.779,13.205,12.119        c0.021-2.668,0.461-9.498,7.644-15.682c13.074-11.257,29.201,0.906,30.157,11.918c0.735,8.468-16.329,25.625-27.485,35.874        c-5.265,4.836-13.269,5.102-18.832,0.613L611.482,811.249z" fill="#263238" id="XMLID_2634_"/></g></g><g id="XMLID_2628_"><g id="XMLID_2629_"><polygon fill="#FF5252" id="XMLID_2631_" points="414.1,892.813 439.744,899.549 449.136,743.452 386.903,740.129       "/><path d="M443.485,881.633h-31.951c0,0,1.089,12.59,1.089,17.89        c-2.085-1.666-7.666-5.626-16.994-3.946c-16.979,3.059-17.696,23.245-9.749,30.926c6.112,5.907,30.187,3.468,45.175,1.263        c7.072-1.041,12.322-7.088,12.342-14.237L443.485,881.633z" fill="#263238" id="XMLID_2630_"/></g></g></g><g id="XMLID_2589_"><path d="M143.342,389.646l13.429,7.068c3.23,2.07,5.46,6.437,5.968,10.239      c0.869,6.505,1.5,11.394,3.668,19.625l1.435,2.963l-26.957,21.998l-1.784-2.186c-0.658-0.805-1.969-1.772-2.93-2.167      l-7.429-3.027c-0.961-0.393-2.274-1.361-2.931-2.167l-18.107-20.919c-7.953-9.745,15.512-32.733,18.27-34.172      C128.737,385.459,131.048,389.014,143.342,389.646z" fill="#FF5252" id="XMLID_2626_"/><path d="M147.416,464.279c56.665,109.864,198.679,66.753,208.148,55.354      c19.536-23.519-1.978-57.573-20.906-55.824c-8.585,0.793-98.257,41.579-149.52-31.803      C185.139,432.006,141.755,453.303,147.416,464.279z" fill="#FF5252" id="XMLID_2625_"/><g id="XMLID_2623_"><polygon fill="#754B4B" id="XMLID_2624_" points="108.171,449.259 99.312,442.534 151.835,371.45 166.559,383.164      "/></g><path d="M159.093,392.234l6.083,4.478c2.446,1.801,3.927,4.621,4.035,7.657      c0.183,5.189,0.69,13.458,2.09,18.775l-0.911,4.562l-15.154,5.506c-12.421-6.614-8.55-25.59-4.729-29.226      c-3.666-0.133-6.931-0.336-10.815-1.745c-5.685-2.061-5.99-8.625-1.646-10.85c5.509-0.02,10.565-0.554,13.854-1.002      C154.446,390.043,157.024,390.71,159.093,392.234z" fill="#FF5252" id="XMLID_2622_"/><path d="M138.239,381.467c-20.05-14.253-56.11,35.735-29.139,44.3      c15.06,4.782,20.538-9.811,24.429-18.17C136.046,402.189,148.534,388.785,138.239,381.467z" fill="#FF5252" id="XMLID_2621_"/><path d="M175.683,460.887c-11.976,9.411-24.146,15.035-26.827,14.126l-17.603-21.201      c0.03-0.058,1.682-6.229,20.764-20.915c18.91-14.553,26.735-15.911,26.944-15.945l16.542,21.764      C196.623,440.19,184.578,453.896,175.683,460.887z" fill="#E8EAF6" id="XMLID_2620_"/><g id="XMLID_2590_"><path d="M251.456,438.643c-17.958-48.068-4.355-141.667,24.34-207.9       c-60.362,41.041-148.812,73.563-198.604,72.34c0.728,6.674,2.381,15.406,7.523,27.703c6.163,2.809,27.023,2.051,31.455,1.912       c-2.131,1.97-21.142,7.326-29.365,6.797c0.807,1.733,1.426,3.452,2.322,5.23c2.772,1.968,21.4,3.214,21.4,3.214       s-11.767,5.807-14.865,5.931c9.582,17.523,21.955,32.317,40.904,47.393c21.25,16.905,47.945,29.305,70.169,34.77       c-1.521-10.975,1.315-22.911,1.315-22.911s2.938,16.147,8.643,23.119C231.38,438.977,243.83,439.546,251.456,438.643z" fill="#26A69A" id="XMLID_2619_"/><path d="M284.852,356.078c-13.848-37.064-3.361-109.236,18.767-160.31       c-46.545,31.649-114.747,56.725-153.143,55.78c1.223,11.198,9.901,36.684,28.645,58.952c5.543,1.998,23.601-7.593,23.601-7.593       s-11.919,12.502-17.302,14.692c1.334,1.343,3.399,3.214,4.817,4.511c4.237,0.73,12.767-4.323,12.767-4.323       s-4.084,5.488-6.743,9.468c12.479,9.928,26.84,16.852,40.548,21.451c3.816-3.808,6.57-16.836,6.57-16.836       s1.494,17.253,6.826,20.685C264.886,356.085,277.655,356.933,284.852,356.078z" fill="#26A69A" id="XMLID_2618_"/><path d="M284.872,356.277c-1.43,0.25-2.906,0.46-4.37,0.563       c-1.466,0.109-2.937,0.175-4.407,0.2c-1.471,0.023-2.943,0.021-4.414-0.026c-1.471-0.052-2.939-0.139-4.407-0.248       c-2.937-0.209-5.86-0.562-8.773-0.989c-2.915-0.418-5.809-0.975-8.693-1.576l-0.264-0.055l-0.257-0.168       c-0.53-0.346-1.004-0.736-1.401-1.153c-0.4-0.416-0.744-0.849-1.055-1.289c-0.623-0.879-1.098-1.79-1.513-2.702       c-0.831-1.827-1.427-3.676-1.94-5.53c-0.501-1.856-0.926-3.716-1.253-5.588c-0.167-0.936-0.316-1.873-0.452-2.812       c-0.134-0.947-0.255-1.866-0.357-2.855l4.087,0.249c-0.167,0.795-0.347,1.532-0.533,2.293l-0.588,2.256       c-0.404,1.501-0.875,2.99-1.398,4.472c-0.259,0.741-0.539,1.48-0.837,2.218c-0.303,0.738-0.611,1.473-0.974,2.207       c-0.341,0.733-0.756,1.466-1.184,2.194l-0.749,1.091c-0.29,0.364-0.618,0.725-0.934,1.079l-0.81,0.909l-1.219-0.434       c-7.331-2.608-14.479-5.726-21.329-9.41c-3.422-1.846-6.772-3.827-10.019-5.969c-1.622-1.073-3.218-2.185-4.792-3.328       l-2.332-1.752l-2.287-1.812l-1.014-0.804l0.732-1.003l6.893-9.441l1.589,1.765c-1.042,0.589-2.062,1.108-3.117,1.614       c-1.05,0.503-2.124,0.965-3.221,1.387c-0.547,0.214-1.107,0.406-1.672,0.589c-0.278,0.098-0.574,0.168-0.859,0.253       c-0.286,0.085-0.577,0.161-0.877,0.222c-0.301,0.059-0.585,0.145-0.899,0.181c-0.31,0.042-0.614,0.094-0.928,0.125       l-0.968,0.039l-1.019-0.097l-0.288-0.027l-0.242-0.232l-4.79-4.608l-0.96-0.924l1.279-0.64c0.387-0.194,0.78-0.342,1.169-0.567       c0.387-0.235,0.783-0.442,1.166-0.698c0.771-0.501,1.527-1.04,2.273-1.603c1.486-1.135,2.938-2.336,4.359-3.577       c2.837-2.488,5.598-5.094,8.264-7.77l0.731,0.928c-0.944,0.512-1.879,0.962-2.833,1.405c-0.954,0.436-1.915,0.851-2.884,1.245       c-1.938,0.79-3.911,1.49-5.909,2.102c-0.994,0.323-2.008,0.58-3.013,0.863c-1.018,0.237-2.026,0.512-3.053,0.703       c-1.021,0.223-2.049,0.399-3.081,0.559c-1.028,0.181-2.071,0.263-3.104,0.399c-0.109,0.014-0.21-0.063-0.224-0.172       c-0.014-0.107,0.059-0.206,0.165-0.223l0.014-0.002c1.022-0.168,2.052-0.281,3.065-0.494c1.017-0.19,2.03-0.397,3.034-0.65       c1.01-0.221,2-0.526,2.999-0.792c0.986-0.312,1.979-0.597,2.952-0.948c1.956-0.667,3.882-1.421,5.767-2.26       c0.943-0.419,1.877-0.858,2.8-1.316c0.917-0.461,1.84-0.944,2.708-1.451l3.519-2.056l-2.788,2.984       c-2.608,2.791-5.292,5.49-8.085,8.103c-1.4,1.302-2.837,2.571-4.332,3.79c-0.751,0.606-1.523,1.194-2.329,1.755       c-0.397,0.285-0.836,0.536-1.253,0.806c-0.424,0.263-0.915,0.478-1.372,0.716l0.319-1.564l4.844,4.413l-0.53-0.26l0.683,0.046       l0.738-0.049c0.251-0.031,0.508-0.083,0.762-0.123c0.253-0.032,0.514-0.119,0.771-0.175c0.257-0.057,0.515-0.131,0.773-0.216       c0.258-0.084,0.517-0.15,0.773-0.248c0.515-0.181,1.028-0.37,1.537-0.583c1.019-0.421,2.028-0.883,3.021-1.388       c0.987-0.501,1.986-1.042,2.914-1.596l4.809-2.873l-3.22,4.638l-6.592,9.494l-0.282-1.806l2.272,1.714l2.315,1.655       c1.562,1.078,3.143,2.125,4.75,3.134c3.218,2.011,6.528,3.876,9.918,5.584c3.389,1.709,6.851,3.273,10.368,4.7       c3.521,1.417,7.097,2.697,10.713,3.844l-2.028,0.476l0.541-0.657l0.526-0.798c0.327-0.591,0.655-1.184,0.943-1.835       c0.3-0.633,0.568-1.306,0.831-1.978c0.259-0.676,0.505-1.362,0.735-2.06c0.458-1.394,0.884-2.81,1.287-4.239l0.57-2.152       c0.179-0.714,0.357-1.454,0.51-2.144l2.967-13.388l1.12,13.637c0.07,0.857,0.171,1.78,0.28,2.671       c0.111,0.898,0.236,1.795,0.377,2.688c0.288,1.785,0.597,3.563,1.01,5.302c0.412,1.735,0.903,3.445,1.554,5.02       c0.16,0.396,0.338,0.772,0.518,1.147c0.191,0.361,0.378,0.721,0.586,1.051c0.207,0.329,0.426,0.635,0.655,0.901       c0.229,0.27,0.468,0.477,0.699,0.659l-0.52-0.222c2.786,0.747,5.598,1.399,8.417,2.026c2.82,0.625,5.666,1.129,8.519,1.598       c1.428,0.229,2.859,0.435,4.295,0.608c1.434,0.19,2.873,0.353,4.314,0.482c1.442,0.13,2.887,0.219,4.335,0.265       c1.45,0.032,2.885,0.062,4.353-0.009c0.111-0.005,0.205,0.08,0.21,0.19C285.047,356.171,284.97,356.26,284.872,356.277z" fill="#FFFFFF" id="XMLID_352_"/><path d="M313.965,283.604c-10.212-27.335-2.48-80.57,13.841-118.238       c-34.329,23.342-84.634,41.84-112.952,41.141c0.404,3.71,1.918,9.547,4.717,16.34c3.504,2.398,19.22,1.184,19.22,1.184       s-11.493,4.763-16.631,4.584c1.765,3.629,3.866,7.42,6.325,11.223c3.507,0.769,13.642-0.987,13.642-0.987       s-6.588,5.329-10.558,5.49c4.612,6.368,10.262,12.605,17.052,18.006c16.159,12.855,36.593,18.882,51.193,20.787       c-0.254-2.397-0.039-11.525-0.039-11.525s4.162,10.356,6.198,12.114C309.162,283.906,311.88,283.852,313.965,283.604z" fill="#26A69A" id="XMLID_2614_"/><path d="M228.517,239.64c0.574,0.087,1.128,0.118,1.682,0.12       c0.564-0.002,1.129-0.023,1.695-0.063c1.132-0.081,2.262-0.203,3.39-0.355c2.254-0.295,4.51-0.671,6.735-1.111l2.405-0.475       l-1.903,1.583c-1.579,1.313-3.207,2.515-4.962,3.598c-0.874,0.542-1.783,1.045-2.753,1.473c-0.243,0.106-0.481,0.22-0.74,0.306       c-0.257,0.088-0.503,0.193-0.771,0.267l-0.813,0.21l-0.873,0.12l0.75-1.546c4.046,5.297,8.588,10.203,13.636,14.489       c1.251,1.063,2.575,2.124,3.853,3.075c1.363,0.971,2.728,2.019,4.103,2.865c0.689,0.441,1.362,0.896,2.062,1.326l2.135,1.253       c1.418,0.841,2.905,1.569,4.359,2.342c1.491,0.711,2.951,1.472,4.459,2.143l2.246,1.038l2.269,0.991       c1.503,0.682,3.043,1.283,4.566,1.928c1.536,0.616,3.078,1.221,4.641,1.776c1.545,0.608,3.126,1.117,4.698,1.66       c1.578,0.529,3.162,1.049,4.761,1.526c1.591,0.517,3.205,0.95,4.817,1.421l4.877,1.335c0.108,0.027,0.173,0.137,0.146,0.245       c-0.023,0.091-0.108,0.151-0.198,0.152c-1.698-0.019-3.402-0.076-5.095-0.233c-1.696-0.142-3.39-0.339-5.073-0.598       c-1.689-0.242-3.359-0.582-5.037-0.905c-1.659-0.392-3.332-0.755-4.977-1.22c-1.652-0.441-3.279-0.97-4.91-1.495       c-1.626-0.536-3.23-1.143-4.822-1.778c-1.58-0.666-3.162-1.332-4.691-2.114c-1.559-0.719-3.042-1.596-4.549-2.413       c-1.465-0.899-2.955-1.751-4.375-2.718l-2.145-1.424c-0.71-0.489-1.407-1.013-2.109-1.517       c-1.439-1.004-2.692-2.077-4.028-3.116c-1.373-1.122-2.627-2.227-3.891-3.4c-5.011-4.665-9.446-9.896-13.306-15.489       l-0.971-1.408l1.721-0.138l0.623-0.05l0.652-0.13c0.219-0.045,0.441-0.127,0.663-0.188c0.223-0.058,0.443-0.149,0.665-0.231       c0.887-0.331,1.767-0.751,2.626-1.218c1.719-0.927,3.396-2.022,4.973-3.186l0.502,1.107c-2.288,0.316-4.567,0.563-6.864,0.73       c-1.148,0.077-2.3,0.123-3.455,0.128c-0.577,0.002-1.156-0.015-1.735-0.052c-0.59-0.042-1.175-0.118-1.727-0.24l-0.009-0.002       c-0.107-0.024-0.176-0.131-0.152-0.239C228.314,239.691,228.414,239.625,228.517,239.64z" fill="#FFFFFF" id="XMLID_345_"/><path d="M337.091,223.822c-7.103-19.012,3.281-62.323,14.63-88.518       c-23.873,16.231-63.862,35.389-83.556,34.903c0.794,7.272,7.717,26.288,23.484,38.832c2.206-3.208,9.144-10.277,9.144-10.277       s-3.617,12.342-1.031,15.701c2.125,1.192,4.29,2.253,6.46,3.194c0.675-3.893,4.104-9.62,4.104-9.62s-0.137,8.911,1.313,11.729       C322.234,223.444,332.186,224.403,337.091,223.822z" fill="#26A69A" id="XMLID_2610_"/><path d="M337.109,224.021c-0.532,0.118-1.059,0.238-1.613,0.323       c-0.553,0.099-1.095,0.141-1.646,0.212c-1.097,0.104-2.201,0.152-3.303,0.168c-1.103,0.016-2.205-0.019-3.306-0.077       c-1.103-0.044-2.199-0.156-3.295-0.275c-2.195-0.232-4.374-0.599-6.535-1.059c-2.165-0.45-4.295-1.051-6.417-1.692       l-0.764-0.231l-0.339-0.726c-0.143-0.306-0.308-0.641-0.415-0.936c-0.096-0.284-0.201-0.583-0.275-0.862       c-0.146-0.554-0.266-1.096-0.359-1.624c-0.185-1.056-0.322-2.09-0.397-3.116c-0.077-1.025-0.145-2.043-0.163-3.059       c-0.017-1.021-0.027-2.016,0.003-3.062l3.791,1.08l-0.637,1.063l-0.622,1.101c-0.41,0.737-0.81,1.48-1.175,2.23       c-0.729,1.491-1.39,3.041-1.701,4.476l-0.477,2.2l-1.938-0.897c-2.232-1.033-4.411-2.182-6.531-3.43l-0.317-0.187l-0.158-0.224       c-0.302-0.429-0.53-0.872-0.672-1.289c-0.154-0.422-0.25-0.828-0.318-1.221c-0.137-0.788-0.175-1.536-0.174-2.266       c0.012-1.455,0.172-2.846,0.386-4.215c0.219-1.367,0.497-2.71,0.814-4.04c0.319-1.334,0.668-2.633,1.077-3.964l2.022,1.186       c-1.624,1.592-3.236,3.221-4.809,4.868c-0.789,0.823-1.558,1.661-2.322,2.497c-0.758,0.838-1.51,1.693-2.155,2.561       l-0.621,0.835l-0.693-0.687c-2.714-2.692-5.274-5.48-7.734-8.377c-1.219-1.456-2.412-2.933-3.543-4.458       c-0.551-0.774-1.118-1.534-1.637-2.331c-0.542-0.78-1.03-1.596-1.531-2.401c-0.059-0.094-0.03-0.217,0.064-0.275       c0.09-0.056,0.207-0.032,0.268,0.052l0.006,0.008c0.549,0.764,1.083,1.536,1.669,2.272c0.564,0.751,1.176,1.467,1.77,2.194       c1.222,1.429,2.47,2.833,3.761,4.201c2.588,2.72,5.298,5.353,8.093,7.827l-1.314,0.148c0.669-1.014,1.387-1.925,2.117-2.833       c0.729-0.906,1.483-1.785,2.242-2.656c1.521-1.742,3.063-3.446,4.644-5.14l3.225-3.457l-1.203,4.643       c-0.323,1.246-0.612,2.549-0.859,3.832c-0.248,1.289-0.455,2.581-0.602,3.867c-0.144,1.284-0.228,2.567-0.183,3.791       c0.026,0.608,0.089,1.201,0.207,1.727c0.056,0.264,0.131,0.509,0.218,0.711c0.082,0.215,0.187,0.358,0.269,0.477l-0.475-0.41       c2.072,1.104,4.212,2.079,6.389,2.959l-2.415,1.303c0.162-1.013,0.423-1.936,0.706-2.837c0.285-0.901,0.623-1.756,0.971-2.606       c0.35-0.848,0.729-1.674,1.122-2.492l0.615-1.215l0.66-1.22l3.701-6.851l0.089,7.93c0.011,0.932,0.028,1.916,0.069,2.873       c0.044,0.961,0.078,1.919,0.149,2.867c0.074,0.947,0.154,1.881,0.277,2.778c0.062,0.45,0.141,0.877,0.231,1.284l0.146,0.561       c0.049,0.174,0.105,0.284,0.147,0.437l-1.103-0.957c0.99,0.366,1.976,0.744,2.98,1.076c0.499,0.174,1,0.343,1.506,0.498       l1.511,0.489c1.011,0.318,2.028,0.615,3.053,0.894c1.026,0.264,2.049,0.561,3.084,0.802c1.033,0.255,2.074,0.476,3.116,0.698       c1.042,0.227,2.093,0.41,3.146,0.586c1.053,0.19,2.112,0.315,3.176,0.45c1.069,0.105,2.114,0.206,3.216,0.222       c0.111,0.002,0.2,0.093,0.198,0.204C337.269,223.922,337.198,224.002,337.109,224.021z" fill="#FFFFFF" id="XMLID_339_"/><polygon fill="#FFFFFF" id="XMLID_2606_" points="272.579,293.708 268.295,298.551 271.071,305.322 265.432,301.601        260.402,307.024 261.078,299.64 255.316,296.508 261.929,295.002 263.175,289.992 265.942,294.297      "/><polygon fill="#FFFFFF" id="XMLID_2605_" points="135.537,307.984 130.303,313.902 133.694,322.176 126.805,317.63        120.658,324.256 121.483,315.233 114.443,311.406 122.524,309.566 124.046,303.443 127.427,308.704      "/><polygon fill="#FFD54F" id="XMLID_2604_" points="229.045,368.52 223.42,373.428 226.468,378.705 221.671,375.291        217.045,381.866 219.011,374.093 214.005,372.54 219.531,371.259 218.881,365.17 221.982,370.828      "/><polygon fill="#FFD54F" id="XMLID_2603_" points="278.25,258.169 274.448,263.64 277.496,268.917 272.699,265.503        270.066,268.829 270.039,264.305 265.033,262.752 270.559,261.471 269.909,255.383 273.011,261.041      "/><polygon fill="#FFD54F" id="XMLID_2602_" points="283.868,223.979 280.679,220.005 276.994,221.934 279.458,218.758        275.104,215.417 280.35,216.978 281.55,213.607 282.268,217.413 286.439,217.142 282.493,219.097      "/><polygon fill="#FFD54F" id="XMLID_2601_" points="194.652,255.954 191.464,251.979 187.778,253.909 190.242,250.733        185.888,247.393 191.135,248.953 192.335,245.582 193.053,249.388 197.224,249.117 193.277,251.072      "/><polygon fill="#FFD54F" id="XMLID_2600_" points="134.646,381.014 129.172,374.189 122.845,377.501 127.074,372.05        119.6,366.315 128.606,368.994 130.667,363.207 131.899,369.74 139.061,369.275 132.285,372.631      "/><polygon fill="#FFFFFF" id="XMLID_2599_" points="258.092,223.009 256.807,229.345 262.597,233.82 255.854,233.418        253.735,238.476 251.102,233.899 244.545,234.07 249.52,229.458 248.091,224.496 252.64,226.839      "/><polygon fill="#FFFFFF" id="XMLID_2598_" points="162.337,332.289 161.052,338.625 166.842,343.1 160.099,342.698        157.98,347.756 155.347,343.179 148.791,343.351 153.764,338.737 152.336,333.776 156.885,336.119      "/><polygon fill="#FFFFFF" id="XMLID_2597_" points="209.39,388.25 208.104,394.585 213.895,399.06 207.151,398.659        205.033,403.716 202.399,399.14 195.844,399.311 200.817,394.697 199.388,389.736 203.938,392.08      "/><polygon fill="#FFFFFF" id="XMLID_2596_" points="235.55,298.307 230.616,302.202 232.101,309.161 227.347,304.627        222.598,307.049 223.518,301.998 218.545,298.006 225.134,297.706 227.192,293.125 229.097,297.724      "/><polygon fill="#FFFFFF" id="XMLID_2595_" points="171.913,387.693 166.504,391.962 168.133,399.591 162.921,394.622        157.715,397.277 158.723,391.739 153.271,387.362 160.495,387.034 162.75,382.014 164.838,387.054      "/><polygon fill="#FFFFFF" id="XMLID_2594_" points="322.334,180.05 319.259,182.478 320.185,186.816 317.222,183.99        314.261,185.5 314.834,182.351 311.735,179.862 315.842,179.675 317.125,176.82 318.312,179.687      "/><polygon fill="#FFFFFF" id="XMLID_2593_" points="286.458,171.531 286.87,177.109 292.74,179.482 287.029,180.727        286.448,185.435 283.182,182.239 277.762,183.914 280.825,178.909 278.475,175.109 282.813,175.997      "/><polygon fill="#FFFFFF" id="XMLID_2592_" points="298.923,231.744 296.93,236.97 301.238,241.609 295.539,240.313        293.015,244.33 291.413,240.051 285.794,239.268 290.691,236.035 290.175,231.598 293.728,234.242      "/><path d="M189.766,291.238c-2.587-5.768-0.009-12.541,5.759-15.128       c2.415-1.083,5.005-1.258,7.391-0.675c-3.489-2.908-9.031-4.116-13.455-2.132c-6.184,2.774-9.422,9.148-7.464,15.637       c1.618,5.358,9.007,9.717,13.792,8.169C193.202,296.026,191.004,294,189.766,291.238z" fill="#FFFFFF" id="XMLID_2591_"/></g></g><g id="XMLID_2564_"><path d="M538.641,260.689l-3.018,14.873c-0.439,3.811,1.533,8.3,4.157,11.098      c4.49,4.787,7.877,8.368,12.881,15.253l1.388,2.985l34.089-6.969l-0.566-2.764c-0.207-1.019-0.127-2.646,0.175-3.64l2.354-7.669      c0.304-0.993,0.384-2.622,0.176-3.641l-4.753-27.256c-2.52-12.323-35.166-8.686-38.025-7.459      C544.635,246.729,545.927,250.767,538.641,260.689z" fill="#FF5252" id="XMLID_2588_"/><path d="M594.681,310.507c50.465,139.364-87.36,187.69-118.897,178.938      c-29.461-8.177-25.456-51.678-7.947-59.078c7.941-3.356,107.966-18.11,77.184-110.512      C545.021,319.855,590.476,298.895,594.681,310.507z" fill="#FF5252" id="XMLID_2587_"/><g id="XMLID_2572_"><g id="XMLID_2573_"><g id="XMLID_2584_"><g id="XMLID_2585_"><path clip-rule="evenodd" d="M527.753,270.167          c33.74,2.013,46.935,16.344,66.676,17.523c4.792,0.284,34.096,2.031,48.585,2.895c4.474,0.267,8.339-3.564,8.741-10.313          l1.128-18.895c0.402-6.748-2.98-11.013-7.454-11.28c-14.459-0.861-43.67-2.604-48.587-2.897          c-20.242-1.208-34.543,11.484-68.286,9.47L527.753,270.167z" fill="#26A69A" fill-rule="evenodd" id="XMLID_2586_"/></g></g><g id="XMLID_2580_"><g id="XMLID_2581_"><g id="XMLID_2582_"><path clip-rule="evenodd" d="M526.018,253.811           c1.484,0.089,2.626,1.376,2.538,2.86l-0.803,13.496c-0.09,1.486-1.376,2.626-2.862,2.54l-5.398-0.322           c-1.485-0.091-2.626-1.376-2.54-2.862l0.807-13.496c0.088-1.484,1.376-2.626,2.86-2.538L526.018,253.811z" fill="#D69176" fill-rule="evenodd" id="XMLID_2583_"/></g></g></g><g id="XMLID_2577_"><g id="XMLID_2578_"><path clip-rule="evenodd" d="M642.73,249.937          c0,0,2.446,4.38,1.49,20.406c-0.955,16.027-3.907,20.084-3.907,20.084l-35.09-2.093c0,0,2.931-3.718,3.907-20.083          c0.978-16.363-1.491-20.407-1.491-20.407L642.73,249.937z" fill="#E5B735" fill-rule="evenodd" id="XMLID_2579_"/></g></g><g id="XMLID_2574_"><g id="XMLID_2575_"><path clip-rule="evenodd" d="M570.453,280.904l1.783-29.886          c-2.646,0.727-5.376,1.48-8.259,2.203l-1.463,24.533C565.295,278.804,567.916,279.872,570.453,280.904z" fill="#E5B735" fill-rule="evenodd" id="XMLID_2576_"/></g></g></g></g><path d="M530.685,274.527l-0.378,7.544c-0.152,3.034,1.095,5.964,3.379,7.967      c3.903,3.424,9.988,9.046,13.221,13.493l4.109,2.18l13.85-8.256c2.732-13.804-14.415-22.807-19.648-22.146      c2.215-2.924,4.123-5.581,5.488-9.48c1.999-5.707-2.892-10.095-7.363-8.138c-3.5,4.255-7.111,7.833-9.538,10.098      C531.926,269.542,530.813,271.961,530.685,274.527z" fill="#FF5252" id="XMLID_2571_"/><path d="M535.533,251.564c1.639-24.545,63.167-20.864,52.744,5.445      c-5.82,14.69-20.588,9.705-29.525,7.432C552.973,262.97,534.691,264.167,535.533,251.564z" fill="#FF5252" id="XMLID_2570_"/><g id="XMLID_2566_"><path d="M561.672,284.939l-0.875-0.877c-0.282-0.303-0.598-0.555-0.892-0.832       c-0.291-0.276-0.608-0.529-0.926-0.781c-0.312-0.257-0.616-0.52-0.947-0.752c-0.64-0.489-1.305-0.941-1.97-1.388       c-0.685-0.418-1.361-0.843-2.064-1.222c-0.343-0.204-0.708-0.366-1.062-0.549c-0.352-0.185-0.714-0.348-1.074-0.513       c-0.719-0.332-1.455-0.623-2.196-0.873c-0.366-0.145-0.738-0.249-1.109-0.363c-0.37-0.126-0.743-0.185-1.113-0.282       c-0.365-0.056-0.743-0.143-1.092-0.155c-0.364-0.044-0.688-0.038-1.007-0.026l-0.101,0.004       c-0.563,0.021-1.035-0.418-1.056-0.98c-0.009-0.247,0.071-0.478,0.211-0.66c1.27-1.647,2.542-3.249,3.582-4.987       c0.52-0.868,0.99-1.763,1.404-2.688c0.207-0.462,0.396-0.932,0.577-1.407c0.105-0.386,0.351-1.011,0.372-1.402       c0.099-0.431,0.094-0.905,0.108-1.375c-0.048-0.464-0.094-0.929-0.238-1.374c-0.134-0.442-0.307-0.883-0.561-1.271       c-0.109-0.208-0.244-0.396-0.399-0.571c-0.141-0.187-0.292-0.364-0.473-0.512c-0.168-0.162-0.338-0.323-0.539-0.443       c-0.192-0.133-0.379-0.275-0.596-0.364c-0.41-0.221-0.86-0.371-1.318-0.455c-0.459-0.093-0.934-0.099-1.402-0.053       c-0.231,0.045-0.471,0.058-0.699,0.126l-0.684,0.216l0.178-0.135c-3.062,3.513-6.367,6.791-9.839,9.866       c-0.042,0.037-0.104,0.033-0.141-0.009c-0.036-0.04-0.033-0.1,0.004-0.137c3.294-3.254,6.4-6.693,9.236-10.329l0.006-0.008       c0.046-0.059,0.107-0.102,0.172-0.126l0.795-0.301c0.269-0.091,0.556-0.124,0.834-0.187c0.564-0.081,1.146-0.096,1.715-0.006       c0.569,0.08,1.132,0.243,1.651,0.494c0.272,0.104,0.512,0.264,0.756,0.419c0.254,0.143,0.473,0.33,0.69,0.521       c0.23,0.179,0.428,0.388,0.613,0.611c0.2,0.211,0.377,0.439,0.526,0.688c0.333,0.473,0.574,1.009,0.763,1.553       c0.199,0.548,0.286,1.119,0.363,1.693c0.013,0.574,0.04,1.147-0.067,1.746c-0.064,0.656-0.216,1.013-0.37,1.637       c-0.17,0.51-0.352,1.015-0.549,1.517c-0.394,1.002-0.851,1.983-1.36,2.932c-1.012,1.906-2.229,3.674-3.478,5.357l-0.946-1.636       c0.501-0.044,0.997-0.067,1.451-0.012c0.47,0.033,0.896,0.139,1.338,0.219c0.421,0.117,0.86,0.203,1.266,0.348       c0.411,0.135,0.826,0.263,1.221,0.428c0.799,0.316,1.569,0.685,2.318,1.086c0.373,0.203,0.752,0.393,1.108,0.624       c0.357,0.228,0.727,0.434,1.07,0.682c0.706,0.465,1.38,0.973,2.036,1.501l0.954,0.827c0.321,0.271,0.605,0.586,0.907,0.876       c0.595,0.593,1.15,1.218,1.66,1.891c0.249,0.338,0.524,0.659,0.745,1.006l0.665,1.044c0.03,0.047,0.016,0.109-0.031,0.139       C561.757,284.979,561.705,284.972,561.672,284.939z" fill="#E8EAF6" id="XMLID_323_"/></g><path d="M573.372,330.796c14.864-3.324,26.917-9.195,27.909-11.847l-5.29-27.043      c-0.064-0.014-5.889-2.637-29.333,2.857c-23.232,5.444-29.233,10.647-29.392,10.787l6.396,26.578      C544.098,333.927,562.333,333.265,573.372,330.796z" fill="#E8EAF6" id="XMLID_2565_"/></g><path d="M605.063,599.348c20.29,80.801-8.424,120.067-127.755,150.032     s-163.189,8.922-183.479-71.879c-20.29-80.801,19.325-230.839,102.237-251.659C478.978,405.022,584.774,518.546,605.063,599.348z     " fill="#FF5252" id="XMLID_2563_"/><path d="M532.932,732.419c0,0-0.399,0.209-1.148,0.601c-0.749,0.393-1.85,0.953-3.276,1.629     c-1.422,0.689-3.164,1.477-5.176,2.354c-2.017,0.863-4.299,1.825-6.821,2.786c-2.514,0.985-5.264,1.978-8.19,2.976     c-2.92,1.016-6.032,1.989-9.27,2.924c-3.241,0.923-6.619,1.771-10.061,2.588c-3.443,0.804-6.94,1.621-10.438,2.437     c-6.988,1.61-14.021,3.119-20.621,4.409c-6.601,1.309-12.798,2.348-18.122,3.143c-5.323,0.798-9.77,1.375-12.89,1.713     c-3.12,0.326-4.903,0.512-4.903,0.512c-0.11,0.011-0.208-0.068-0.22-0.178c-0.011-0.105,0.066-0.201,0.169-0.219     c0,0,1.765-0.297,4.854-0.816c3.084-0.546,7.487-1.327,12.741-2.415c10.507-2.17,24.43-5.438,38.209-9.252     c3.442-0.962,6.88-1.933,10.246-2.953c3.365-1.013,6.676-2.009,9.88-2.974c3.215-0.919,6.319-1.818,9.28-2.616     c2.955-0.822,5.749-1.6,8.328-2.317c5.173-1.426,9.484-2.615,12.502-3.447c1.52-0.405,2.714-0.723,3.528-0.94     c0.819-0.208,1.256-0.32,1.256-0.32c0.107-0.028,0.217,0.038,0.245,0.146C533.057,732.283,533.012,732.377,532.932,732.419z" fill="#FFFFFF" id="XMLID_322_"/><path d="M513.284,465.027c0,0,0.74,0.466,1.993,1.332c1.265,0.846,3.029,2.139,5.076,3.758     c1.031,0.802,2.12,1.705,3.26,2.674c1.154,0.953,2.3,2.037,3.518,3.123c1.17,1.137,2.39,2.3,3.575,3.538     c1.191,1.23,2.401,2.479,3.612,3.729c2.406,2.512,4.768,5.063,6.95,7.483c1.078,1.222,2.142,2.382,3.105,3.523     c0.965,1.138,1.878,2.215,2.721,3.208c1.675,1.995,3.042,3.68,3.992,4.865c0.949,1.185,1.492,1.862,1.492,1.862l-0.153,0.129     c0,0-0.58-0.644-1.595-1.772c-1.016-1.127-2.476-2.728-4.259-4.619c-3.567-3.781-8.373-8.771-13.382-13.546     c-1.265-1.181-2.512-2.378-3.783-3.513c-1.258-1.146-2.497-2.273-3.695-3.364c-2.36-2.219-4.551-4.304-6.412-6.117     c-1.857-1.818-3.408-3.321-4.471-4.421c-1.079-1.076-1.671-1.719-1.671-1.719L513.284,465.027z" fill="#FFFFFF" id="XMLID_320_"/><g id="XMLID_2554_"><path d="M633.869,665.777c0,0-17.676-13.341-22.284-34.496      c-28.457-4.833-43.709,44.795-43.709,44.795L633.869,665.777z" fill="#FF5252" id="XMLID_2556_"/><path d="M299.824,749.658c0,0,9.277-20.109,3.344-40.931      c22.799-17.703,59.687,18.833,59.687,18.833L299.824,749.658z" fill="#FF5252" id="XMLID_2555_"/></g><path d="M477.443,691.974c-12.174-30.504-59.139-218.734-59.179-256.565     c0,0-15.551,2.553-20.37,4.127c-3.648,24.064,36.434,209.133,52.949,263.58C450.843,703.116,477.955,693.258,477.443,691.974z" fill="#E8EAF6" id="XMLID_2553_"/><path d="M639.751,670.227c-0.15-4.595-4.042-8.17-8.632-7.922     c-26.211,1.416-102.459,5.642-170.001,22.602s-136.741,49.256-160.512,60.392c-4.164,1.95-5.904,6.939-3.865,11.06l5.13,10.368     c1.993,4.027,6.85,5.706,10.898,3.757c21.461-10.333,78.893-39.673,155.072-58.802c76.179-19.129,140.659-20.401,164.456-21.433     c4.488-0.194,7.977-3.969,7.83-8.459L639.751,670.227z" fill="#E8EAF6" id="XMLID_2552_"/><path d="M578.6,693.146c0,0,1.677-0.198,4.612-0.545c2.938-0.339,7.138-0.78,12.184-1.262     c5.046-0.484,10.939-1.003,17.262-1.429c6.292-0.408,13.004-0.843,19.717-1.277c2.8-0.247,5.093-2.364,5.656-4.888     c0.135-0.627,0.179-1.263,0.148-1.893c-0.048-0.822-0.096-1.64-0.143-2.453c-0.098-1.626-0.157-3.233-0.226-4.814     c-0.043-1.546-0.086-3.066-0.128-4.553c-0.015-0.175-0.019-0.412-0.042-0.535l-0.063-0.35c-0.04-0.234-0.129-0.537-0.209-0.795     c-0.18-0.531-0.419-1.038-0.719-1.506c-1.231-1.871-3.365-2.92-5.407-2.943c-2.502,0.019-4.852-0.006-6.906-0.033     c-2.062-0.036-3.861-0.082-5.344-0.143c-2.965-0.111-4.664-0.247-4.664-0.247c-0.111-0.009-0.194-0.106-0.186-0.217     c0.007-0.092,0.076-0.165,0.162-0.182c0,0,1.671-0.331,4.603-0.785c1.466-0.232,3.247-0.486,5.291-0.76     c2.052-0.262,4.335-0.563,6.888-0.829c1.502-0.133,3.128,0.087,4.67,0.721c1.53,0.654,2.945,1.741,4.036,3.163     c0.536,0.718,0.999,1.513,1.338,2.378c0.16,0.444,0.302,0.858,0.414,1.36l0.147,0.764c0.043,0.249,0.045,0.394,0.07,0.597     l0.029,0.284l0.018,0.248l0.007,0.143l0.029,0.575c0.015,0.384,0.029,0.771,0.044,1.159c0.028,0.776,0.057,1.56,0.085,2.351     c0.034,1.582,0.08,3.19,0.087,4.819c0.005,0.814,0.011,1.634,0.017,2.457c-0.007,1.017-0.148,2.035-0.435,3.017     c-0.608,1.952-1.794,3.719-3.4,4.973c-0.793,0.635-1.69,1.147-2.645,1.494c-0.476,0.195-0.952,0.308-1.474,0.428l-0.811,0.135     l-0.639,0.046c-6.776,0.139-13.552,0.277-19.905,0.407c-3.16,0.091-6.215,0.178-9.112,0.261     c-2.897,0.097-5.637,0.189-8.165,0.273c-5.058,0.185-9.269,0.418-12.219,0.546c-2.951,0.151-4.637,0.238-4.637,0.238     c-0.11,0.006-0.205-0.079-0.21-0.189C578.418,693.25,578.496,693.159,578.6,693.146z" fill="#FFFFFF" id="XMLID_319_"/><path d="M613.656,599.937c0,0-104.782,8.527-168.101,24.427     c-63.316,15.899-159.021,57.715-159.021,57.715l14.913,32.153c0,0,82.897-38.426,152.927-56.182     c70.111-17.435,161.328-22.729,161.328-22.729L613.656,599.937z" fill="#263238" id="XMLID_2548_"/><path d="M421.332,439.153c14.364-4.26,19.75,1.891,22.811-9.644     c3.062-11.536-31.653-44.908-31.653-44.908s-19.893,4.871-26.832-0.21c-3.958,8.262-23.549,12.861-23.549,12.861     s-14.832,45.813-6.684,54.534c8.148,8.72,9.986,0.755,24.661-2.277l20.379-5.117L421.332,439.153z" fill="#E8EAF6" id="XMLID_2547_"/><path d="M417.739,436.143c12.505-3.708,13.236,2.64,15.901-7.402     c2.666-10.043-23.6-40.09-23.6-40.09s-17.318,4.241-23.359-0.183c-3.446,7.193-20.501,11.196-20.501,11.196     s-8.955,38.892-1.861,46.484c7.094,7.591,4.736,1.651,17.513-0.989l17.742-4.455L417.739,436.143z" fill="#FFAF99" id="XMLID_2544_"/><path d="M433.702,417.038c-8.454-5.967-25.825-1.015-27.258,7.399     c-3.467,1.61-5.531,1.42-9.519,3.629c-4.559-0.063-6.92,1.59-10.737,1.81c-5.943-7.504-27.333-3.736-28.126,5.509     c-43.875-22.042-98.036,47.82-32.877,82.344c-7.802,37.063,30.504,57.877,47.125,44.393     c-6.847,22.073,24.002,21.649,26.292,1.953c10.415,26.296,45.651,32.194,65.8,19.025c19.763-12.917,22.437-34.648,15.401-45.929     c20.728-0.998,34.739-36.458,14.476-51.263c18.263,2.247,15.308-15.397,3.624-13.763     C532.556,413.164,454.382,383.735,433.702,417.038z" fill="#FFFFFF" id="XMLID_2543_"/><path d="M398.785,563.994c1.195,2.475,2.555,4.775,4.14,6.945c1.57,2.176,3.454,4.092,5.419,5.87     c3.96,3.546,8.629,6.208,13.563,8.043c2.46,0.946,5.017,1.627,7.597,2.133c2.584,0.486,5.196,0.83,7.821,0.923     c2.623,0.095,5.248-0.015,7.843-0.322c2.598-0.284,5.165-0.802,7.655-1.541c2.498-0.716,4.912-1.675,7.218-2.825     c0.566-0.306,1.155-0.575,1.705-0.908l1.581-0.952l3.336-2.358l2.915-2.473l2.752-2.761c0.813-1.011,1.671-1.992,2.458-3.025     l1.094-1.612c0.361-0.54,0.753-1.063,1.043-1.645c0.604-1.148,1.313-2.249,1.778-3.464l0.779-1.787     c0.227-0.608,0.413-1.23,0.622-1.845c0.85-2.459,1.298-5.033,1.552-7.611c0.044-1.293,0.161-2.591,0.038-3.879     c-0.012-1.3-0.249-2.565-0.438-3.841c-0.53-2.513-1.377-4.951-2.658-7.137l-1.133-1.934l2.269-0.235     c0.636-0.066,1.277-0.101,1.912-0.184c0.626-0.137,1.267-0.215,1.886-0.393c1.241-0.343,2.465-0.78,3.628-1.366     c0.579-0.298,1.169-0.575,1.714-0.943c0.56-0.339,1.117-0.686,1.635-1.094l0.795-0.585l0.753-0.643l0.751-0.647l0.706-0.7     c0.483-0.455,0.932-0.945,1.364-1.452c0.452-0.489,0.867-1.01,1.268-1.544c0.421-0.519,0.803-1.066,1.17-1.625     c0.388-0.545,0.739-1.115,1.072-1.697c0.354-0.569,0.674-1.158,0.971-1.76c0.319-0.591,0.609-1.195,0.869-1.815     c0.281-0.61,0.542-1.229,0.764-1.863c0.242-0.627,0.473-1.258,0.656-1.905c0.202-0.641,0.403-1.283,0.545-1.94     c0.159-0.653,0.329-1.304,0.429-1.968c0.254-1.319,0.417-2.656,0.499-3.994c0.089-1.339,0.081-2.685-0.023-4.021     c-0.098-1.337-0.298-2.666-0.604-3.969c-0.605-2.607-1.641-5.116-3.101-7.365c-0.724-1.129-1.567-2.178-2.479-3.166     c-0.482-0.468-0.938-0.967-1.442-1.412l-1.56-1.291l-1.591-1.317l2.035,0.197c0.607,0.059,1.214,0.144,1.823,0.182     c0.607,0.017,1.218,0.077,1.823,0.041c0.609,0.001,1.21-0.053,1.81-0.124c0.595-0.084,1.194-0.178,1.765-0.349     c0.581-0.146,1.135-0.364,1.675-0.608c0.531-0.26,1.035-0.566,1.492-0.932c0.445-0.375,0.867-0.787,1.187-1.272     c0.352-0.465,0.574-1.009,0.763-1.557c0.152-0.56,0.256-1.141,0.231-1.729c0.011-0.589-0.123-1.17-0.276-1.739     c-0.198-0.556-0.429-1.109-0.768-1.601c-0.311-0.51-0.723-0.951-1.156-1.363c-0.219-0.205-0.468-0.375-0.7-0.565     c-0.257-0.154-0.505-0.326-0.771-0.467c-0.537-0.274-1.1-0.501-1.688-0.651c-0.586-0.156-1.191-0.242-1.8-0.276     c-0.611-0.037-1.222,0.008-1.834,0.063l-0.014,0.001c-0.11,0.01-0.207-0.071-0.217-0.181c-0.009-0.108,0.069-0.203,0.175-0.217     c0.632-0.076,1.266-0.14,1.907-0.12c0.639,0.017,1.279,0.09,1.906,0.238c0.627,0.142,1.236,0.367,1.821,0.645     c0.29,0.143,0.563,0.32,0.845,0.48c0.257,0.197,0.532,0.375,0.775,0.591c0.484,0.433,0.946,0.903,1.304,1.452     c0.385,0.531,0.661,1.132,0.896,1.745c0.191,0.628,0.356,1.275,0.365,1.941c0.045,0.663-0.051,1.331-0.21,1.978     c-0.196,0.636-0.441,1.271-0.828,1.819c-0.354,0.57-0.822,1.056-1.319,1.497c-0.507,0.431-1.065,0.791-1.649,1.097     c-0.59,0.289-1.197,0.545-1.824,0.723c-0.621,0.203-1.261,0.323-1.898,0.431c-0.64,0.095-1.282,0.17-1.925,0.188     c-0.644,0.056-1.283,0.013-1.925,0.011c-0.64-0.022-1.274-0.093-1.913-0.137l0.443-1.121l1.679,1.312     c0.546,0.455,1.043,0.967,1.567,1.45c0.996,1.018,1.924,2.109,2.73,3.291c1.624,2.354,2.809,5.008,3.534,7.774     c0.367,1.382,0.62,2.795,0.765,4.216c0.151,1.42,0.2,2.852,0.146,4.279c-0.043,1.426-0.185,2.851-0.426,4.256     c-0.093,0.708-0.257,1.402-0.412,2.099c-0.138,0.701-0.335,1.386-0.535,2.071c-0.181,0.691-0.412,1.365-0.654,2.036     c-0.222,0.679-0.485,1.342-0.77,1.997c-0.263,0.665-0.558,1.314-0.883,1.951c-0.303,0.647-0.632,1.282-0.996,1.898     c-0.343,0.628-0.706,1.245-1.107,1.839c-0.381,0.607-0.78,1.203-1.219,1.771c-0.419,0.583-0.855,1.154-1.332,1.694     c-0.456,0.558-0.932,1.098-1.446,1.606l-0.754,0.778l-0.807,0.727l-0.813,0.722l-0.863,0.666c-0.563,0.46-1.173,0.861-1.79,1.253     c-0.599,0.419-1.255,0.751-1.901,1.098c-1.297,0.687-2.681,1.22-4.101,1.642c-0.708,0.217-1.446,0.332-2.17,0.499     c-0.734,0.114-1.478,0.174-2.218,0.26l1.136-2.168c1.539,2.493,2.549,5.231,3.198,8.032c0.247,1.413,0.532,2.825,0.58,4.257     c0.161,1.428,0.071,2.854,0.047,4.283c-0.21,2.84-0.638,5.681-1.499,8.398c-0.213,0.679-0.403,1.368-0.636,2.041l-0.804,1.979     c-0.485,1.345-1.221,2.57-1.855,3.846c-0.304,0.648-0.71,1.233-1.088,1.836l-1.149,1.802c-0.826,1.158-1.729,2.261-2.595,3.393     c-0.972,1.038-1.93,2.088-2.925,3.114c-1.081,0.961-2.177,1.928-3.272,2.862l-3.299,2.41l-0.103,0.075l-0.188,0.123l-0.229,0.142     l-0.458,0.285l-0.917,0.568c-0.61,0.381-1.256,0.694-1.883,1.043c-2.546,1.325-5.234,2.335-7.971,3.122     c-5.488,1.562-11.217,2.002-16.845,1.624c-2.816-0.193-5.613-0.633-8.35-1.3c-2.735-0.67-5.427-1.525-8.005-2.655     c-2.576-1.132-5.05-2.487-7.38-4.051c-2.344-1.546-4.469-3.406-6.417-5.403c-1.937-2.011-3.664-4.222-5.082-6.605     c-1.429-2.368-2.603-4.914-3.462-7.486l-0.003-0.009c-0.035-0.105,0.021-0.218,0.126-0.253     C398.638,563.859,398.741,563.905,398.785,563.994z" fill="#E8EAF6" id="XMLID_316_"/><path d="M500.604,423.395l-1.429-1.991l-1.542-1.887c-0.535-0.611-1.104-1.194-1.654-1.791     c-0.563-0.585-1.173-1.125-1.756-1.69c-1.208-1.085-2.465-2.115-3.781-3.065c-1.316-0.948-2.676-1.835-4.084-2.636     c-1.403-0.808-2.846-1.551-4.328-2.202c-0.73-0.35-1.484-0.644-2.239-0.936c-0.748-0.309-1.509-0.58-2.278-0.831     c-0.761-0.273-1.533-0.512-2.314-0.721c-0.774-0.231-1.554-0.439-2.345-0.606c-0.785-0.189-1.573-0.365-2.371-0.49     c-0.793-0.146-1.587-0.288-2.39-0.371c-0.799-0.103-1.599-0.208-2.404-0.249c-0.803-0.059-1.605-0.126-2.411-0.123     c-0.805-0.016-1.609-0.041-2.412,0.008c-0.803,0.028-1.606,0.049-2.404,0.143c-0.799,0.071-1.599,0.142-2.388,0.283     c-0.793,0.115-1.584,0.24-2.362,0.429l-1.172,0.255l-1.151,0.329l-1.149,0.334l-1.123,0.409     c-0.756,0.252-1.485,0.571-2.207,0.904c-0.737,0.301-1.428,0.691-2.126,1.066c-1.393,0.755-2.702,1.649-3.941,2.622     c-0.634,0.469-1.19,1.031-1.79,1.54c-0.576,0.535-1.094,1.13-1.645,1.69c-0.514,0.594-0.982,1.226-1.493,1.824l-1.345,1.938     l-0.008,0.012c-0.328,0.473-0.973,0.596-1.453,0.285l-0.762-0.496l-0.805-0.436l-0.841-0.378l-0.871-0.321l-0.893-0.276     l-0.912-0.227c-0.616-0.127-1.238-0.235-1.868-0.307c-2.522-0.283-5.121-0.11-7.638,0.427c-2.521,0.512-4.997,1.396-7.187,2.759     c-0.544,0.344-1.069,0.717-1.576,1.115c-0.499,0.406-0.97,0.847-1.395,1.331c-0.413,0.491-0.812,1.005-1.105,1.58     c-0.328,0.56-0.542,1.175-0.716,1.807l-0.002,0.008c-0.015,0.053-0.07,0.084-0.123,0.07c-0.049-0.014-0.08-0.062-0.072-0.111     c0.101-0.663,0.239-1.339,0.519-1.962c0.251-0.637,0.617-1.219,1.005-1.783c0.4-0.556,0.854-1.071,1.34-1.553     c0.492-0.476,1.013-0.922,1.568-1.321c2.219-1.6,4.753-2.718,7.388-3.433c2.646-0.676,5.401-0.976,8.167-0.778     c0.691,0.051,1.381,0.142,2.07,0.256c0.688,0.129,1.372,0.286,2.047,0.492l1,0.356l0.979,0.426l0.95,0.501l0.912,0.58     l-1.46,0.296l1.425-2.104c0.532-0.659,1.067-1.319,1.627-1.953c0.602-0.596,1.172-1.226,1.801-1.792     c0.653-0.538,1.261-1.133,1.952-1.621c1.357-1.008,2.782-1.922,4.283-2.682c0.751-0.379,1.497-0.769,2.283-1.067     c0.772-0.33,1.55-0.643,2.352-0.888l1.191-0.396l1.213-0.317c0.805-0.228,1.62-0.402,2.441-0.55     c0.815-0.179,1.641-0.292,2.467-0.393c0.824-0.128,1.653-0.184,2.483-0.24c0.828-0.079,1.659-0.083,2.489-0.094     c0.83-0.031,1.659,0.012,2.487,0.046c0.83,0.015,1.654,0.101,2.479,0.18c0.827,0.06,1.645,0.186,2.463,0.309     c0.821,0.104,1.632,0.267,2.442,0.434c0.814,0.147,1.617,0.344,2.416,0.555c0.805,0.189,1.598,0.419,2.384,0.672     c0.793,0.231,1.576,0.492,2.347,0.788c0.778,0.275,1.551,0.563,2.304,0.903c0.76,0.32,1.519,0.642,2.253,1.02     c1.489,0.707,2.935,1.505,4.336,2.367c1.407,0.855,2.761,1.796,4.066,2.795c1.306,1.001,2.548,2.081,3.737,3.213     c0.574,0.588,1.173,1.151,1.725,1.759c0.539,0.62,1.095,1.223,1.617,1.856l1.502,1.952l1.37,2.032     c0.031,0.046,0.019,0.108-0.027,0.139C500.696,423.449,500.635,423.438,500.604,423.395z" fill="#E8EAF6" id="XMLID_315_"/><path d="M386.113,429.942c-0.486-0.507-1-0.95-1.562-1.312c-0.563-0.373-1.162-0.692-1.79-0.937     c-0.31-0.133-0.625-0.25-0.951-0.342c-0.319-0.108-0.643-0.199-0.974-0.27c-0.653-0.161-1.316-0.29-1.986-0.372     c-1.337-0.177-2.692-0.216-4.04-0.15c-1.348,0.068-2.688,0.256-4.009,0.499c-0.662,0.12-1.316,0.276-1.962,0.454     c-0.648,0.171-1.284,0.381-1.912,0.604c-0.627,0.228-1.238,0.488-1.84,0.764c-0.594,0.29-1.171,0.602-1.728,0.943     c-0.55,0.349-1.068,0.731-1.569,1.125c-0.479,0.414-0.938,0.847-1.32,1.326c-0.374,0.481-0.725,0.982-0.937,1.528     c-0.254,0.533-0.358,1.104-0.436,1.672l-0.199,1.463l-1.307-0.622l-1.975-0.94c-0.667-0.295-1.349-0.553-2.023-0.832     c-1.367-0.505-2.751-0.968-4.165-1.333c-2.824-0.736-5.738-1.143-8.667-1.209c-2.929-0.067-5.869,0.218-8.75,0.805     c-2.882,0.589-5.706,1.486-8.418,2.65c-1.355,0.584-2.684,1.235-3.983,1.941c-1.295,0.713-2.558,1.485-3.789,2.309     c-1.226,0.831-2.42,1.708-3.577,2.637c-1.15,0.937-2.261,1.922-3.332,2.95c-1.063,1.037-2.082,2.119-3.059,3.241     c-0.483,0.564-0.944,1.148-1.418,1.722l-1.339,1.786l-1.256,1.848l-1.168,1.906l-1.076,1.961l-0.979,2.013l-0.002,0.005     c-0.024,0.05-0.084,0.07-0.133,0.046c-0.049-0.024-0.07-0.082-0.047-0.131l0.922-2.052l1.022-2.006l1.119-1.956l1.209-1.902     l1.297-1.846c0.46-0.594,0.909-1.199,1.381-1.785c0.954-1.165,1.953-2.293,3-3.378c1.055-1.077,2.153-2.112,3.294-3.1     c1.149-0.979,2.334-1.916,3.565-2.794c1.237-0.869,2.509-1.688,3.818-2.448c1.313-0.753,2.659-1.45,4.037-2.082     c2.758-1.259,5.645-2.25,8.611-2.927c2.966-0.679,6.011-1.034,9.066-1.05c3.054-0.019,6.117,0.317,9.104,1.004     c1.495,0.341,2.967,0.779,4.412,1.293c0.713,0.281,1.436,0.54,2.142,0.839l2.093,0.955l-1.505,0.842     c0.104-0.802,0.281-1.603,0.627-2.324c0.308-0.741,0.767-1.387,1.248-1.988c0.491-0.597,1.048-1.112,1.625-1.594     c0.299-0.222,0.594-0.451,0.901-0.661l0.943-0.578c0.641-0.358,1.296-0.676,1.96-0.966c0.67-0.274,1.345-0.529,2.031-0.746     c0.686-0.212,1.376-0.407,2.074-0.561c0.697-0.161,1.398-0.296,2.104-0.395c0.704-0.108,1.413-0.185,2.124-0.23     c0.711-0.041,1.422-0.051,2.133-0.041c1.421,0.034,2.841,0.178,4.235,0.467c0.35,0.063,0.695,0.151,1.039,0.246     c0.346,0.082,0.686,0.188,1.021,0.313c0.338,0.11,0.67,0.24,0.995,0.389c0.331,0.132,0.651,0.29,0.963,0.462     c0.633,0.324,1.229,0.725,1.778,1.175c0.563,0.45,1.028,0.996,1.439,1.544l0.003,0.004c0.033,0.044,0.024,0.107-0.02,0.14     C386.204,429.984,386.147,429.978,386.113,429.942z" fill="#E8EAF6" id="XMLID_313_"/><path d="M356.859,388.216c0,0-11.503-20.772,43.718-43.085     c7.102-1.671,3.987,7.841,10.725,8.924c6.74,1.083,12.483-5.211,16.018,8.072c3.535,13.283,8.375,29.72,17.591,29.454     c9.214-0.267,1.498,4.189,1.498,4.189s-16.229,2.63-22.11-10.579c-5.881-13.208-5.091-4.958-5.091-4.958L356.859,388.216z" fill="#FF5252" id="XMLID_2533_"/><path d="M355.608,405.821c0.608,2.25,3.041,3.457,5.205,2.592     c5.939-2.373,17.583-6.657,28.395-8.486c15.349-2.595,37.217-1.947,37.217-1.947s2.266,0.371-3.688-22.085     c-1.353-5.098-72.345,5.375-70.898,13.194C353.19,396.384,354.625,402.185,355.608,405.821z" fill="#E8EAF6" id="XMLID_2532_"/><ellipse cx="448.789" cy="387.97" fill="#E8EAF6" id="XMLID_2531_" rx="8.985" ry="8.169" transform="matrix(0.9835 -0.181 0.181 0.9835 -62.8089 87.637)"/><path d="M397.826,408.416c5.365-2.226,11.054-3.066,16.469-2.6     c0.236-1.57,0.504-3.139,0.805-4.706c-6.286-0.559-12.857,0.396-19.039,2.927C396.621,405.51,397.208,406.97,397.826,408.416z" fill="#FFFFFF" id="XMLID_2530_"/><path d="M385.127,411.604c-5.78,0.573-11.19,2.52-15.744,5.489     c-0.95-1.272-1.928-2.528-2.932-3.767c5.276-3.462,11.519-5.725,18.163-6.414C384.817,408.474,384.989,410.038,385.127,411.604z" fill="#FFFFFF" id="XMLID_2529_"/><g id="XMLID_2520_"><path d="M478.542,666.065l-42.565,10.688c-3.833,0.962-7.747-1.253-8.894-5.036l-13.674-45.104      c-0.588-1.939-0.355-4.036,0.643-5.799c0.999-1.764,2.676-3.042,4.642-3.535l47.868-12.02c1.99-0.5,4.099-0.152,5.822,0.96      c1.724,1.113,2.909,2.891,3.272,4.91l8.372,46.436C484.72,661.4,482.322,665.116,478.542,666.065z M439.213,660.664      l29.005-7.283l-5.737-31.821l-32.638,8.196L439.213,660.664z" fill="#FFD54F" id="XMLID_355_"/></g><path d="M402.421,416.2c-0.032,0-0.064-0.001-0.097-0.005c-0.55-0.053-0.953-0.541-0.9-1.091     c0.289-2.998,2.425-5.5,5.317-6.226c2.448-0.615,5.067,0.146,6.833,1.987c0.382,0.398,0.369,1.031-0.029,1.414     s-1.032,0.369-1.414-0.03c-1.27-1.323-3.147-1.871-4.903-1.431c-2.073,0.52-3.605,2.32-3.813,4.478     C403.366,415.813,402.931,416.2,402.421,416.2z" fill="#263238" id="XMLID_312_"/><path d="M374.745,422.127c-0.089,0-0.18-0.012-0.27-0.037c-0.532-0.149-0.842-0.701-0.693-1.232     c0.687-2.456,2.635-4.364,5.084-4.979c2.891-0.724,5.958,0.47,7.628,2.976c0.306,0.459,0.182,1.08-0.277,1.387     c-0.459,0.307-1.08,0.182-1.387-0.277c-1.202-1.803-3.404-2.665-5.477-2.145c-1.754,0.441-3.151,1.812-3.646,3.578     C375.583,421.838,375.182,422.127,374.745,422.127z" fill="#263238" id="XMLID_310_"/><path d="M399.239,448.339c-3.815,0-7.337-2.248-8.889-5.912     c-0.215-0.509,0.022-1.095,0.531-1.311c0.51-0.216,1.096,0.022,1.311,0.531c1.487,3.51,5.255,5.384,8.961,4.453     c3.685-0.925,6.123-4.339,5.798-8.117c-0.047-0.55,0.36-1.035,0.911-1.082c0.545-0.05,1.035,0.361,1.082,0.911     c0.41,4.761-2.662,9.063-7.303,10.229C400.837,448.242,400.032,448.339,399.239,448.339z" fill="#263238" id="XMLID_309_"/><g id="XMLID_2510_"><path d="M437.449,423.046c0,0-0.09-0.121-0.26-0.348c-0.179-0.219-0.388-0.584-0.716-0.986      c-0.352-0.381-0.697-0.867-1.213-1.351c-0.473-0.511-1.071-1.019-1.743-1.52c-0.339-0.248-0.688-0.508-1.088-0.719      c-0.374-0.248-0.785-0.463-1.219-0.662c-0.857-0.412-1.803-0.756-2.807-1.039c-0.998-0.313-2.075-0.492-3.181-0.653      c-1.111-0.114-2.259-0.171-3.408-0.088c-4.61,0.273-9.123,2.054-11.893,4.176c-0.708,0.517-1.274,1.084-1.757,1.604      c-0.228,0.27-0.427,0.535-0.616,0.779c-0.161,0.261-0.31,0.5-0.443,0.717c-0.214,0.459-0.387,0.825-0.443,1.093      c-0.078,0.263-0.12,0.403-0.12,0.403l-0.004,0.015c-0.016,0.052-0.071,0.083-0.124,0.067c-0.05-0.015-0.08-0.065-0.069-0.115      c0,0,0.031-0.149,0.088-0.427c0.037-0.287,0.181-0.679,0.368-1.182c0.121-0.239,0.255-0.502,0.401-0.79      c0.174-0.27,0.361-0.565,0.576-0.869c0.457-0.585,1.004-1.231,1.695-1.832c1.352-1.239,3.17-2.406,5.27-3.321      c2.097-0.914,4.47-1.611,6.92-1.91c1.223-0.182,2.467-0.198,3.697-0.188c1.23,0.047,2.446,0.213,3.599,0.513      c1.144,0.325,2.227,0.762,3.163,1.341c0.955,0.542,1.771,1.202,2.441,1.877c0.359,0.313,0.632,0.683,0.907,1.014      c0.282,0.325,0.509,0.664,0.707,0.991c0.433,0.622,0.69,1.259,0.917,1.745c0.204,0.494,0.32,0.885,0.407,1.157      c0.083,0.271,0.126,0.416,0.126,0.416c0.016,0.053-0.014,0.11-0.068,0.127C437.518,423.095,437.474,423.079,437.449,423.046z" fill="#E8EAF6" id="XMLID_303_"/><path d="M386.131,429.958c0,0-0.132-0.083-0.38-0.238c-0.246-0.16-0.612-0.385-1.092-0.626      c-0.47-0.255-1.073-0.528-1.773-0.795c-0.699-0.272-1.505-0.537-2.402-0.75c-1.786-0.454-3.933-0.7-6.212-0.656      c-2.277,0.07-4.691,0.513-6.878,1.448c-1.082,0.488-2.102,1.086-2.996,1.799c-0.897,0.71-1.655,1.534-2.298,2.387      c-0.672,0.838-1.152,1.763-1.608,2.648c-0.403,0.911-0.717,1.814-0.949,2.676c-0.103,0.437-0.2,0.856-0.293,1.254      c-0.067,0.408-0.131,0.795-0.191,1.159c-0.108,0.733-0.155,1.386-0.231,1.926c-0.048,1.079-0.112,1.715-0.112,1.715l0,0.007      c-0.005,0.055-0.055,0.096-0.11,0.09c-0.043-0.004-0.077-0.035-0.087-0.074c0,0-0.166-0.608-0.393-1.704      c-0.083-0.551-0.191-1.226-0.233-2.01c-0.007-0.395-0.015-0.814-0.023-1.257c0.016-0.443,0.057-0.912,0.103-1.401      c0.049-0.489,0.167-0.992,0.256-1.52c0.13-0.519,0.298-1.051,0.476-1.596c0.413-1.07,0.955-2.184,1.744-3.181      c0.803-0.976,1.734-1.918,2.845-2.631c1.098-0.724,2.282-1.326,3.514-1.775c2.472-0.883,5.071-1.189,7.469-1.119      c1.199,0.05,2.353,0.161,3.428,0.368c1.074,0.211,2.077,0.466,2.977,0.774c0.905,0.294,1.71,0.632,2.403,0.968      c0.696,0.332,1.282,0.656,1.749,0.959c0.476,0.29,0.821,0.543,1.053,0.722c0.235,0.174,0.361,0.267,0.361,0.267      c0.044,0.033,0.053,0.095,0.021,0.14C386.233,429.975,386.175,429.985,386.131,429.958z" fill="#E8EAF6" id="XMLID_299_"/></g><path d="M348.802,463.564l-1.344,2.265c-0.407,0.771-0.718,1.576-1.082,2.359     c-0.342,0.791-0.538,1.646-0.814,2.464c-0.261,0.825-0.344,1.695-0.525,2.538c-0.161,0.849-0.142,1.721-0.223,2.577     c-0.049,0.86,0.06,1.723,0.081,2.582c0.068,0.857,0.26,1.702,0.381,2.551c0.184,0.839,0.451,1.659,0.671,2.488     c0.294,0.806,0.633,1.596,0.945,2.394l1.207,2.27c0.485,0.708,0.95,1.427,1.446,2.123c0.556,0.651,1.088,1.322,1.66,1.955     c0.621,0.588,1.216,1.202,1.852,1.77c0.677,0.521,1.333,1.067,2.021,1.568c0.725,0.45,1.438,0.917,2.167,1.353l2.29,1.128     l1.394,0.687l-1.351,0.799c-0.3,0.178-0.597,0.358-0.862,0.573c-0.265,0.213-0.509,0.447-0.72,0.703     c-0.214,0.254-0.389,0.532-0.539,0.819c-0.142,0.292-0.251,0.595-0.318,0.907c-0.058,0.312-0.102,0.629-0.077,0.943     c0.004,0.315,0.079,0.621,0.162,0.917c0.201,0.582,0.549,1.099,1.014,1.455c0.24,0.166,0.487,0.326,0.772,0.412     c0.274,0.107,0.575,0.15,0.88,0.176c0.614,0.041,1.269-0.085,1.907-0.323c0.32-0.107,0.636-0.265,0.947-0.425     c0.31-0.169,0.618-0.347,0.914-0.558c0.601-0.397,1.162-0.883,1.712-1.377l2.718-2.442l-0.964,3.581l-0.317,1.179     c-0.094,0.395-0.142,0.798-0.218,1.196c-0.104,0.802-0.153,1.609-0.116,2.414c0.065,1.61,0.428,3.203,1.041,4.702     c0.612,1.501,1.468,2.908,2.495,4.184c0.512,0.639,1.067,1.247,1.663,1.813c0.589,0.572,1.215,1.111,1.876,1.602     c0.321,0.258,0.662,0.49,1.005,0.717c0.336,0.238,0.687,0.454,1.044,0.658c0.35,0.217,0.71,0.416,1.08,0.597     c0.362,0.195,0.731,0.375,1.11,0.532c0.373,0.172,0.75,0.332,1.137,0.465c0.382,0.148,0.767,0.285,1.16,0.394     c0.389,0.124,0.78,0.236,1.177,0.318c0.395,0.099,0.791,0.183,1.19,0.238c0.398,0.074,0.796,0.126,1.196,0.152     c0.399,0.048,0.798,0.063,1.196,0.061c0.795,0.021,1.585-0.045,2.355-0.173c0.773-0.119,1.52-0.332,2.24-0.595     c0.362-0.128,0.698-0.313,1.049-0.461c0.335-0.179,0.656-0.384,0.987-0.57l2.16-1.216l0.221,2.424     c0.137,1.502,0.572,2.995,1.195,4.419c0.664,1.414,1.53,2.74,2.538,3.959c1.042,1.189,2.176,2.312,3.475,3.235     c0.323,0.231,0.636,0.477,0.965,0.698l1.025,0.614c0.663,0.442,1.412,0.735,2.122,1.092c0.715,0.348,1.489,0.57,2.227,0.865     c0.761,0.236,1.541,0.419,2.307,0.635l2.365,0.399l2.396,0.183l2.412-0.016l1.218-0.091c0.432-0.033,0.76-0.105,1.146-0.152     c1.526-0.241,3.091-0.652,4.582-1.195c2.998-1.09,5.823-2.707,8.354-4.694c1.271-0.989,2.451-2.094,3.547-3.273     c1.085-1.187,2.114-2.434,2.993-3.78c0.885-1.341,1.657-2.753,2.293-4.223c0.65-1.466,1.101-3.006,1.448-4.564     c0.329-1.561,0.535-3.157,0.514-4.759c-0.008-1.603-0.194-3.204-0.511-4.788l-1.053-5.264l3.625,3.899     c0.37,0.397,0.73,0.81,1.149,1.15c0.195,0.191,0.416,0.343,0.636,0.5c0.214,0.165,0.438,0.316,0.676,0.441     c0.458,0.283,0.953,0.503,1.459,0.688c0.507,0.187,1.036,0.318,1.574,0.407c1.077,0.17,2.198,0.163,3.292-0.052     c0.546-0.107,1.089-0.257,1.608-0.463c0.521-0.201,1.033-0.443,1.5-0.747c0.482-0.286,0.915-0.64,1.324-1.016     c0.408-0.378,0.755-0.81,1.06-1.27c0.274-0.472,0.531-0.967,0.657-1.501c0.165-0.527,0.193-1.084,0.177-1.642     c-0.001-0.281-0.075-0.556-0.107-0.838c-0.063-0.277-0.157-0.549-0.233-0.827l-0.348-0.802l-0.446-0.767     c-0.337-0.489-0.68-0.989-1.101-1.43c-0.386-0.473-0.863-0.864-1.304-1.294l-0.017-0.017c-0.079-0.077-0.081-0.203-0.003-0.282     c0.071-0.073,0.184-0.08,0.263-0.02c0.502,0.38,1.042,0.721,1.506,1.162c0.494,0.407,0.932,0.883,1.354,1.378l0.575,0.796     l0.484,0.87c0.123,0.311,0.263,0.619,0.369,0.94c0.076,0.33,0.192,0.655,0.23,0.997c0.092,0.678,0.121,1.385-0.015,2.07     c-0.097,0.694-0.349,1.352-0.641,1.984c-0.321,0.616-0.705,1.201-1.161,1.72c-0.454,0.521-0.96,0.997-1.519,1.395     c-0.546,0.418-1.144,0.763-1.761,1.06c-0.616,0.303-1.264,0.54-1.927,0.726c-1.326,0.366-2.729,0.513-4.125,0.376     c-0.696-0.068-1.391-0.195-2.067-0.393c-0.675-0.197-1.343-0.447-1.969-0.775c-0.323-0.148-0.628-0.325-0.923-0.52     c-0.301-0.186-0.603-0.373-0.873-0.598c-0.576-0.414-1.076-0.904-1.582-1.393l2.572-1.365c0.473,1.763,0.758,3.582,0.861,5.417     c0.111,1.837-0.029,3.685-0.321,5.501c-0.588,3.645-2.016,7.109-3.925,10.229c-0.953,1.566-2.062,3.031-3.279,4.395     c-1.219,1.362-2.534,2.64-3.956,3.79c-1.424,1.147-2.946,2.173-4.539,3.081c-1.589,0.916-3.271,1.678-5.018,2.271     c-1.751,0.601-3.532,1.045-5.408,1.308c-0.468,0.053-0.988,0.134-1.414,0.158l-1.354,0.077l-2.747-0.039l-2.739-0.296     c-0.905-0.167-1.806-0.361-2.706-0.544c-0.882-0.271-1.771-0.515-2.642-0.816c-0.85-0.362-1.727-0.655-2.547-1.081     c-0.814-0.436-1.66-0.81-2.423-1.337l-1.168-0.744c-0.376-0.267-0.736-0.56-1.104-0.839c-1.476-1.114-2.774-2.454-3.955-3.882     c-1.147-1.461-2.134-3.056-2.887-4.78c-0.715-1.74-1.22-3.591-1.346-5.527l2.381,1.208c-0.433,0.24-0.859,0.493-1.299,0.713     c-0.454,0.189-0.898,0.409-1.363,0.564c-0.928,0.318-1.878,0.561-2.836,0.688c-0.957,0.136-1.921,0.191-2.872,0.147     c-0.478-0.009-0.952-0.04-1.42-0.104c-0.473-0.043-0.939-0.114-1.4-0.21c-0.466-0.076-0.923-0.183-1.375-0.307     c-0.457-0.107-0.903-0.245-1.345-0.396c-0.447-0.136-0.883-0.301-1.313-0.479c-0.437-0.163-0.86-0.353-1.278-0.556     c-0.424-0.189-0.836-0.401-1.24-0.629c-0.411-0.214-0.812-0.447-1.2-0.699c-0.396-0.239-0.784-0.491-1.157-0.766     c-0.38-0.264-0.755-0.534-1.111-0.831c-0.729-0.569-1.419-1.189-2.069-1.849c-0.656-0.653-1.269-1.354-1.833-2.092     c-1.133-1.472-2.079-3.104-2.749-4.858c-0.67-1.752-1.055-3.627-1.089-5.513c-0.021-0.943,0.056-1.885,0.199-2.813     c0.095-0.459,0.166-0.926,0.283-1.378l0.396-1.345l1.754,1.138c-1.251,1.098-2.652,2.117-4.353,2.706     c-0.844,0.291-1.775,0.464-2.738,0.38c-0.479-0.049-0.964-0.143-1.422-0.331c-0.466-0.166-0.892-0.44-1.283-0.743     c-0.771-0.63-1.309-1.499-1.588-2.417c-0.123-0.464-0.211-0.938-0.208-1.413c-0.019-0.476,0.054-0.947,0.158-1.405     c0.113-0.457,0.286-0.895,0.503-1.306c0.225-0.407,0.487-0.791,0.792-1.132c0.302-0.344,0.64-0.648,0.998-0.918     c0.358-0.272,0.742-0.492,1.129-0.702l0.043,1.486l-2.398-1.271c-0.763-0.485-1.506-1.003-2.257-1.503     c-0.715-0.551-1.394-1.15-2.09-1.722c-0.655-0.619-1.267-1.285-1.899-1.926c-0.584-0.685-1.125-1.409-1.687-2.111     c-0.501-0.747-0.969-1.518-1.452-2.275l-1.194-2.417c-0.305-0.846-0.634-1.682-0.915-2.533c-0.207-0.874-0.458-1.736-0.623-2.616     c-0.103-0.89-0.273-1.773-0.318-2.666c0.002-0.895-0.081-1.791-0.005-2.681c0.108-0.887,0.119-1.786,0.31-2.658     c0.211-0.866,0.325-1.757,0.618-2.598c0.309-0.836,0.534-1.698,0.913-2.507c0.398-0.798,0.751-1.626,1.186-2.392l1.411-2.224     c0.059-0.093,0.183-0.121,0.276-0.062C348.828,463.351,348.856,463.472,348.802,463.564z" fill="#E8EAF6" id="XMLID_298_"/><ellipse cx="396.219" cy="426.45" fill="#FF8A80" id="XMLID_2506_" rx="11.31" ry="6.24" transform="matrix(0.9699 -0.2436 0.2436 0.9699 -91.9332 109.3434)"/></g></g><g id="XMLID_2479_"><path d="M670.924,226.475c0,0,0.252-1.63,0.413-4.531c0.158-2.893,0.293-7.034,0-11.97    c-0.293-4.933-1.009-10.652-2.293-16.63c-0.353-1.489-0.671-3.007-1.108-4.516c-0.206-0.756-0.413-1.517-0.621-2.281    c-0.23-0.757-0.461-1.518-0.693-2.282c-0.435-1.535-1.032-3.032-1.54-4.558c-0.589-1.499-1.162-3.009-1.803-4.487    c-1.306-2.948-2.75-5.828-4.406-8.517c-0.405-0.675-0.809-1.348-1.211-2.017c-0.427-0.652-0.852-1.302-1.274-1.947    c-0.413-0.648-0.824-1.292-1.232-1.932c-0.427-0.626-0.852-1.248-1.272-1.865c-0.406-0.626-0.808-1.247-1.206-1.862    c-0.426-0.597-0.835-1.197-1.238-1.792c-0.397-0.601-0.791-1.195-1.179-1.782c-0.407-0.575-0.81-1.143-1.207-1.704    c-1.547-2.281-3.171-4.325-4.591-6.31c-0.757-0.957-1.482-1.874-2.171-2.746c-0.34-0.446-0.671-0.881-0.994-1.303    c-0.338-0.41-0.667-0.807-0.985-1.193c-0.635-0.784-1.229-1.517-1.778-2.196c-0.27-0.35-0.528-0.685-0.775-1.005    c-0.262-0.306-0.511-0.598-0.748-0.875c-0.945-1.116-1.674-2.027-2.165-2.662c-0.487-0.643-0.747-0.986-0.747-0.986l-0.006-0.008    c-0.138-0.182-0.102-0.44,0.08-0.578c0.121-0.092,0.277-0.106,0.409-0.052c0,0,0.397,0.167,1.126,0.51    c0.731,0.34,1.794,0.859,3.129,1.564c1.362,0.672,2.872,1.684,4.64,2.829c0.899,0.557,1.789,1.229,2.72,1.954    c0.929,0.726,1.917,1.487,2.917,2.317c1.924,1.736,4.031,3.628,5.999,5.881c0.499,0.556,1.025,1.105,1.521,1.691    c0.476,0.603,0.958,1.212,1.445,1.829c0.482,0.621,0.967,1.252,1.443,1.897c0.466,0.654,0.892,1.344,1.341,2.027    c0.431,0.694,0.865,1.394,1.303,2.099c0.426,0.712,0.796,1.465,1.189,2.207c0.389,0.745,0.785,1.492,1.157,2.255    c0.343,0.777,0.688,1.558,1.034,2.342c0.718,1.553,1.33,3.165,1.952,4.774c0.649,1.597,1.178,3.247,1.76,4.87    c0.556,1.633,1.037,3.29,1.53,4.93c0.412,1.665,0.909,3.297,1.239,4.957c0.179,0.825,0.357,1.647,0.535,2.464    c0.169,0.819,0.291,1.643,0.432,2.457c0.298,1.625,0.477,3.248,0.688,4.834c0.346,3.183,0.61,6.261,0.643,9.185    c0.079,2.921-0.009,5.679-0.139,8.213c-0.541,10.162-2.479,16.67-2.479,16.67l-0.002,0.008c-0.063,0.212-0.286,0.333-0.498,0.27    C671.012,226.862,670.894,226.67,670.924,226.475z" fill="#FFB74D" id="XMLID_267_"/><path d="M163.887,199.433c0,0-0.173-1.64-0.759-4.486c-0.587-2.837-1.516-6.875-3.062-11.572    c-1.545-4.694-3.7-10.04-6.47-15.491c-0.721-1.349-1.418-2.736-2.226-4.083c-0.392-0.678-0.787-1.361-1.184-2.047    c-0.416-0.673-0.834-1.35-1.254-2.029c-0.813-1.373-1.772-2.667-2.654-4.012c-0.953-1.299-1.893-2.612-2.891-3.877    c-2.017-2.516-4.149-4.931-6.438-7.107c-0.565-0.549-1.127-1.096-1.687-1.64c-0.58-0.521-1.157-1.04-1.73-1.556    c-0.565-0.521-1.127-1.039-1.685-1.552c-0.574-0.496-1.143-0.989-1.708-1.477c-0.552-0.501-1.1-0.999-1.643-1.492    c-0.564-0.468-1.113-0.943-1.655-1.416c-0.538-0.479-1.07-0.953-1.595-1.421c-0.541-0.452-1.076-0.898-1.603-1.338    c-2.079-1.81-4.172-3.37-6.052-4.926c-0.976-0.731-1.912-1.432-2.801-2.099c-0.443-0.344-0.875-0.68-1.294-1.006    c-0.432-0.309-0.851-0.61-1.257-0.901c-0.814-0.595-1.576-1.153-2.28-1.668c-0.35-0.269-0.686-0.527-1.006-0.774    c-0.332-0.229-0.647-0.448-0.947-0.655c-1.199-0.837-2.137-1.531-2.774-2.02c-0.635-0.497-0.974-0.762-0.974-0.762l-0.008-0.007    c-0.18-0.14-0.211-0.4-0.071-0.579c0.094-0.12,0.241-0.174,0.382-0.155c0,0,0.427,0.059,1.219,0.205    c0.794,0.142,1.954,0.372,3.425,0.712c1.488,0.302,3.207,0.893,5.209,1.549c1.011,0.309,2.044,0.731,3.129,1.193    c1.083,0.465,2.233,0.947,3.413,1.494c2.304,1.186,4.825,2.476,7.303,4.151c0.625,0.41,1.274,0.806,1.903,1.246    c0.614,0.461,1.236,0.927,1.865,1.398c0.625,0.477,1.254,0.963,1.88,1.465c0.618,0.513,1.206,1.071,1.814,1.616    c0.594,0.561,1.193,1.126,1.797,1.696c0.594,0.579,1.144,1.212,1.714,1.83c0.567,0.621,1.141,1.241,1.695,1.884    c0.53,0.663,1.063,1.33,1.599,2c1.092,1.317,2.095,2.719,3.108,4.116c1.036,1.378,1.97,2.837,2.947,4.258    c0.955,1.437,1.844,2.915,2.74,4.375c0.825,1.504,1.722,2.955,2.466,4.475c0.384,0.752,0.767,1.5,1.147,2.246    c0.373,0.748,0.702,1.514,1.045,2.265c0.705,1.494,1.292,3.018,1.902,4.497c1.148,2.99,2.19,5.897,2.971,8.715    c0.823,2.803,1.443,5.492,1.967,7.976c2.076,9.962,1.866,16.75,1.866,16.75v0.008c-0.007,0.221-0.192,0.395-0.413,0.388    C164.07,199.785,163.908,199.629,163.887,199.433z" fill="#FFB74D" id="XMLID_253_"/><path d="M448.554,231.136c0,0,0.306-2.124,0.555-5.888c0.124-1.88,0.245-4.163,0.324-6.783    c0.093-2.618,0.086-5.576,0.041-8.795c-0.086-3.22-0.211-6.704-0.504-10.376c-0.121-1.837-0.324-3.719-0.478-5.642    c-0.226-1.919-0.393-3.882-0.678-5.867c-0.257-1.987-0.535-4.003-0.879-6.035c-0.308-2.036-0.689-4.084-1.059-6.149    c-0.371-2.064-0.841-4.127-1.259-6.205c-0.503-2.061-0.953-4.14-1.5-6.195c-1.084-4.111-2.316-8.18-3.739-12.105    c-0.35-0.982-0.699-1.96-1.046-2.934c-0.368-0.965-0.733-1.925-1.097-2.879c-0.361-0.954-0.727-1.9-1.058-2.849    c-0.369-0.936-0.734-1.864-1.098-2.785c-0.346-0.927-0.688-1.847-1.028-2.758c-0.355-0.905-0.706-1.802-1.054-2.688    c-0.695-1.774-1.31-3.54-2.016-5.215c-0.705-1.674-1.29-3.353-1.978-4.923c-0.662-1.582-1.318-3.105-1.912-4.591    c-0.613-1.475-1.262-2.861-1.835-4.206c-0.581-1.341-1.105-2.633-1.665-3.812c-0.538-1.195-1.042-2.314-1.508-3.349    c-0.45-1.048-0.854-2.021-1.274-2.866c-0.804-1.714-1.411-3.087-1.814-4.034c-0.397-0.953-0.609-1.461-0.609-1.461l-0.006-0.015    c-0.086-0.207,0.012-0.445,0.218-0.531c0.157-0.065,0.332-0.025,0.444,0.089c0,0,0.388,0.391,1.116,1.124    c0.721,0.739,1.764,1.838,3.059,3.271c1.308,1.424,2.745,3.263,4.406,5.381c0.854,1.045,1.639,2.235,2.51,3.467    c0.842,1.249,1.778,2.539,2.643,3.949c0.875,1.405,1.746,2.893,2.667,4.428c0.894,1.548,1.737,3.19,2.615,4.877    c0.906,1.675,1.706,3.455,2.523,5.276c0.402,0.913,0.827,1.83,1.204,2.776c0.362,0.952,0.729,1.912,1.097,2.881    c0.348,0.977,0.699,1.961,1.052,2.953c0.329,1,0.627,2.018,0.935,3.039c0.303,1.023,0.629,2.044,0.898,3.088    c0.263,1.045,0.526,2.096,0.791,3.151c1.065,4.214,1.952,8.534,2.802,12.847c0.432,2.156,0.763,4.331,1.147,6.483    c0.299,2.168,0.648,4.317,0.896,6.463c0.531,4.286,0.89,8.52,1.091,12.619c0.214,4.098,0.314,8.061,0.25,11.816    c-0.034,3.754-0.222,7.297-0.424,10.56c-0.243,3.262-0.502,6.244-0.831,8.878c-0.306,2.635-0.644,4.923-0.977,6.798    c-0.641,3.75-1.175,5.871-1.175,5.871c-0.052,0.215-0.268,0.347-0.483,0.296C448.655,231.534,448.527,231.337,448.554,231.136z" fill="#FFD54F" id="XMLID_247_"/><path d="M448.554,232.104c0,0,0.306-2.124,0.555-5.888c0.124-1.879,0.245-4.163,0.324-6.782    c0.093-2.618,0.086-5.576,0.041-8.795c-0.086-3.22-0.211-6.704-0.504-10.376c-0.121-1.837-0.324-3.719-0.478-5.641    c-0.226-1.919-0.393-3.882-0.678-5.867c-0.257-1.987-0.535-4.003-0.879-6.035c-0.308-2.036-0.689-4.084-1.059-6.149    c-0.371-2.064-0.841-4.127-1.259-6.205c-0.503-2.061-0.953-4.14-1.5-6.194c-1.084-4.111-2.316-8.18-3.738-12.105    c-0.351-0.982-0.699-1.96-1.046-2.934c-0.368-0.965-0.733-1.925-1.097-2.879c-0.361-0.954-0.727-1.899-1.058-2.849    c-0.369-0.936-0.734-1.864-1.098-2.785c-0.346-0.927-0.688-1.847-1.028-2.758c-0.354-0.905-0.706-1.802-1.054-2.688    c-0.695-1.774-1.31-3.54-2.016-5.214c-0.705-1.674-1.29-3.354-1.978-4.923c-0.662-1.582-1.318-3.105-1.912-4.591    c-0.613-1.475-1.262-2.861-1.835-4.206c-0.581-1.342-1.105-2.633-1.665-3.812c-0.538-1.196-1.042-2.314-1.508-3.349    c-0.45-1.048-0.854-2.021-1.274-2.866c-0.804-1.714-1.411-3.087-1.814-4.034c-0.397-0.953-0.609-1.461-0.609-1.461l-0.006-0.015    c-0.086-0.207,0.012-0.445,0.218-0.531c0.157-0.065,0.332-0.025,0.444,0.089c0,0,0.388,0.391,1.116,1.124    c0.721,0.739,1.764,1.838,3.059,3.271c1.308,1.424,2.745,3.263,4.406,5.381c0.854,1.045,1.639,2.235,2.51,3.467    c0.842,1.249,1.778,2.539,2.643,3.949c0.875,1.405,1.746,2.893,2.667,4.428c0.894,1.548,1.737,3.19,2.615,4.877    c0.906,1.675,1.706,3.455,2.523,5.276c0.402,0.913,0.827,1.83,1.204,2.776c0.362,0.952,0.729,1.912,1.097,2.881    c0.348,0.976,0.699,1.961,1.052,2.953c0.329,1,0.627,2.018,0.935,3.039c0.303,1.023,0.629,2.044,0.898,3.089    c0.263,1.045,0.526,2.096,0.791,3.151c1.065,4.214,1.953,8.534,2.802,12.847c0.432,2.156,0.763,4.331,1.147,6.483    c0.299,2.168,0.648,4.318,0.896,6.463c0.531,4.286,0.89,8.52,1.091,12.619c0.214,4.098,0.314,8.061,0.25,11.816    c-0.034,3.754-0.222,7.298-0.424,10.56c-0.243,3.262-0.502,6.244-0.831,8.878c-0.306,2.635-0.644,4.923-0.977,6.798    c-0.641,3.75-1.175,5.871-1.175,5.871c-0.052,0.215-0.268,0.347-0.483,0.296C448.655,232.502,448.527,232.304,448.554,232.104z" fill="#FFD54F" id="XMLID_217_"/><path d="M447.586,232.104c0,0,0.307-2.124,0.555-5.888c0.124-1.879,0.245-4.163,0.324-6.782    c0.093-2.618,0.086-5.576,0.041-8.795c-0.086-3.22-0.211-6.704-0.504-10.376c-0.121-1.837-0.324-3.719-0.478-5.641    c-0.226-1.919-0.393-3.882-0.678-5.867c-0.257-1.987-0.535-4.003-0.879-6.035c-0.308-2.036-0.689-4.084-1.059-6.149    c-0.371-2.064-0.841-4.127-1.259-6.205c-0.503-2.061-0.953-4.14-1.5-6.194c-1.084-4.111-2.316-8.18-3.738-12.105    c-0.351-0.982-0.699-1.96-1.046-2.934c-0.368-0.965-0.733-1.925-1.097-2.879c-0.361-0.954-0.727-1.899-1.058-2.849    c-0.369-0.936-0.734-1.864-1.098-2.785c-0.346-0.927-0.688-1.847-1.028-2.758c-0.354-0.905-0.706-1.802-1.054-2.688    c-0.695-1.774-1.31-3.54-2.016-5.214c-0.705-1.674-1.291-3.354-1.978-4.923c-0.662-1.582-1.318-3.105-1.912-4.591    c-0.613-1.475-1.262-2.861-1.835-4.206c-0.581-1.342-1.105-2.633-1.665-3.812c-0.539-1.196-1.042-2.314-1.508-3.349    c-0.45-1.048-0.854-2.021-1.274-2.866c-0.804-1.714-1.411-3.087-1.814-4.034c-0.397-0.953-0.609-1.461-0.609-1.461l-0.006-0.015    c-0.086-0.207,0.012-0.445,0.218-0.531c0.157-0.065,0.332-0.025,0.444,0.089c0,0,0.388,0.391,1.116,1.124    c0.721,0.739,1.764,1.838,3.059,3.271c1.308,1.424,2.745,3.263,4.406,5.381c0.854,1.045,1.639,2.235,2.509,3.467    c0.842,1.249,1.779,2.539,2.644,3.949c0.874,1.405,1.746,2.893,2.667,4.428c0.894,1.548,1.737,3.19,2.615,4.877    c0.906,1.675,1.706,3.455,2.523,5.276c0.402,0.913,0.827,1.83,1.204,2.776c0.362,0.952,0.729,1.912,1.097,2.881    c0.348,0.976,0.699,1.961,1.052,2.953c0.329,1,0.627,2.018,0.935,3.039c0.303,1.023,0.629,2.044,0.898,3.089    c0.263,1.045,0.526,2.096,0.791,3.151c1.065,4.214,1.953,8.534,2.802,12.847c0.432,2.156,0.763,4.331,1.146,6.483    c0.299,2.168,0.648,4.318,0.897,6.463c0.531,4.286,0.89,8.52,1.091,12.619c0.214,4.098,0.314,8.061,0.25,11.816    c-0.034,3.754-0.222,7.298-0.424,10.56c-0.244,3.262-0.502,6.244-0.831,8.878c-0.306,2.635-0.645,4.923-0.977,6.798    c-0.641,3.75-1.175,5.871-1.175,5.871c-0.052,0.215-0.268,0.347-0.483,0.296C447.688,232.502,447.56,232.304,447.586,232.104z" fill="#FFD54F" id="XMLID_162_"/><path d="M417.595,290.152c0,0,0.306-2.124,0.555-5.888c0.124-1.879,0.245-4.163,0.324-6.783    c0.093-2.618,0.086-5.576,0.041-8.795c-0.086-3.22-0.211-6.704-0.504-10.376c-0.121-1.837-0.323-3.719-0.478-5.642    c-0.226-1.919-0.393-3.882-0.678-5.867c-0.257-1.987-0.535-4.003-0.879-6.035c-0.308-2.036-0.689-4.084-1.059-6.149    c-0.37-2.065-0.84-4.127-1.259-6.205c-0.503-2.061-0.953-4.14-1.5-6.195c-1.085-4.111-2.317-8.18-3.739-12.105    c-0.351-0.982-0.699-1.96-1.046-2.934c-0.368-0.965-0.733-1.925-1.097-2.879c-0.361-0.954-0.727-1.899-1.058-2.849    c-0.368-0.935-0.734-1.864-1.098-2.785c-0.346-0.927-0.688-1.847-1.028-2.758c-0.354-0.905-0.706-1.802-1.054-2.688    c-0.695-1.774-1.31-3.54-2.016-5.214c-0.705-1.674-1.29-3.354-1.978-4.923c-0.662-1.582-1.318-3.106-1.912-4.591    c-0.613-1.475-1.262-2.861-1.835-4.205c-0.581-1.342-1.105-2.633-1.665-3.812c-0.539-1.196-1.042-2.314-1.508-3.349    c-0.45-1.048-0.854-2.021-1.274-2.866c-0.804-1.714-1.411-3.087-1.814-4.034c-0.397-0.953-0.609-1.461-0.609-1.461l-0.006-0.015    c-0.086-0.207,0.012-0.445,0.218-0.531c0.157-0.065,0.332-0.025,0.444,0.089c0,0,0.388,0.391,1.115,1.124    c0.722,0.739,1.764,1.838,3.059,3.271c1.308,1.424,2.745,3.263,4.406,5.381c0.854,1.045,1.639,2.235,2.509,3.468    c0.842,1.248,1.779,2.538,2.644,3.949c0.875,1.405,1.746,2.893,2.667,4.428c0.894,1.548,1.737,3.191,2.615,4.877    c0.906,1.675,1.706,3.455,2.523,5.276c0.402,0.913,0.827,1.83,1.204,2.776c0.362,0.952,0.729,1.912,1.097,2.881    c0.348,0.976,0.699,1.961,1.052,2.952c0.329,1,0.628,2.018,0.935,3.039c0.302,1.023,0.628,2.044,0.898,3.089    c0.263,1.045,0.526,2.096,0.791,3.151c1.065,4.214,1.953,8.533,2.802,12.848c0.432,2.156,0.763,4.331,1.147,6.483    c0.299,2.168,0.648,4.317,0.896,6.463c0.532,4.286,0.89,8.52,1.092,12.619c0.214,4.098,0.314,8.061,0.25,11.816    c-0.034,3.754-0.222,7.297-0.424,10.56c-0.243,3.262-0.502,6.245-0.831,8.878c-0.306,2.635-0.645,4.923-0.977,6.798    c-0.641,3.75-1.175,5.871-1.175,5.871c-0.052,0.215-0.268,0.347-0.483,0.296C417.697,290.55,417.569,290.352,417.595,290.152z" fill="#FFD54F" id="XMLID_159_"/><polygon fill="#FFD54F" id="XMLID_2485_" points="600.002,97.656 595.705,110.085 580.933,111.938 593.163,118.208     591.645,129.258 600.991,123.962 612.3,131.04 608.357,117.815 615.988,110.601 605.595,110.003   "/><polygon fill="#FFB74D" id="XMLID_2484_" points="316.446,77.675 312.148,90.104 297.376,91.957 309.606,98.226 308.088,109.276     317.434,103.981 328.743,111.059 324.8,97.834 332.432,90.62 322.039,90.022   "/><polygon fill="#FFB74D" id="XMLID_2483_" points="159.358,68 155.061,80.429 140.289,82.282 152.518,88.551 151,99.602     160.347,94.306 171.656,101.384 167.712,88.159 175.344,80.945 164.951,80.347   "/><polygon fill="#FFB74D" id="XMLID_2482_" points="542.245,120.483 540.132,126.593 532.871,127.504 538.883,130.585     538.137,136.017 542.73,133.414 548.29,136.893 546.352,130.393 550.103,126.846 544.994,126.552   "/><polygon fill="#FFD54F" id="XMLID_2481_" points="510.352,165.028 508.24,171.138 500.979,172.049 506.99,175.13 506.244,180.563     510.838,177.959 516.397,181.438 514.459,174.938 518.21,171.392 513.101,171.098   "/><polygon fill="#FFD54F" id="XMLID_2480_" points="476.959,93.697 474.847,99.806 467.585,100.717 473.597,103.799     472.851,109.231 477.445,106.628 483.004,110.107 481.065,103.606 484.817,100.06 479.708,99.766   "/></g><g id="XMLID_2461_"><path d="M748.703,301.017c0,0,0.529-2.006,1.784-5.383c1.228-3.392,3.282-8.128,6.171-13.62    c1.466-2.732,3.115-5.671,5.041-8.673c1.882-3.033,4.091-6.088,6.456-9.197c1.219-1.525,2.426-3.108,3.76-4.617    c0.659-0.762,1.304-1.546,1.994-2.296c0.698-0.743,1.399-1.491,2.104-2.241c1.385-1.527,2.928-2.921,4.401-4.403    c1.543-1.405,3.083-2.834,4.687-4.191c1.626-1.328,3.209-2.722,4.892-3.975c1.659-1.286,3.31-2.579,5.035-3.742    c0.853-0.598,1.703-1.193,2.548-1.786c0.867-0.559,1.747-1.09,2.619-1.623c0.875-0.528,1.731-1.079,2.618-1.559    c0.896-0.464,1.784-0.926,2.666-1.383c0.892-0.437,1.765-0.896,2.655-1.295c0.901-0.372,1.795-0.74,2.679-1.105    c0.888-0.351,1.767-0.698,2.635-1.041c0.879-0.314,1.766-0.573,2.629-0.856c1.735-0.542,3.407-1.111,5.075-1.485    c1.665-0.387,3.264-0.777,4.806-1.107c1.556-0.278,3.056-0.496,4.474-0.713c1.418-0.216,2.763-0.4,4.046-0.463    c2.555-0.17,4.758-0.371,6.6-0.294c1.833,0.026,3.269,0.083,4.246,0.136c0.976,0.063,1.497,0.096,1.497,0.096    c0.224,0.014,0.394,0.208,0.379,0.431c-0.011,0.167-0.12,0.303-0.268,0.356l-0.021,0.007c0,0-0.491,0.176-1.412,0.507    c-0.919,0.322-2.267,0.773-3.973,1.299c-0.426,0.13-0.875,0.267-1.346,0.41c-0.465,0.168-0.951,0.344-1.458,0.527    c-1.012,0.343-2.107,0.715-3.276,1.111c-0.583,0.193-1.184,0.392-1.802,0.597c-0.61,0.23-1.238,0.467-1.882,0.71    c-1.286,0.464-2.638,0.952-4.049,1.461c-2.768,1.157-5.793,2.261-8.886,3.678c-0.778,0.338-1.566,0.68-2.365,1.027    c-0.785,0.374-1.579,0.753-2.382,1.136c-0.808,0.369-1.625,0.742-2.449,1.119c-0.811,0.404-1.629,0.811-2.455,1.222    c-0.833,0.396-1.674,0.794-2.521,1.196c-0.833,0.43-1.671,0.864-2.515,1.3c-0.85,0.43-1.705,0.863-2.563,1.297    c-0.841,0.47-1.687,0.942-2.535,1.416c-3.422,1.864-6.736,4.056-9.951,6.394c-1.598,1.181-3.143,2.437-4.696,3.671    c-1.485,1.313-3.045,2.54-4.457,3.907c-0.719,0.671-1.436,1.339-2.148,2.003c-0.693,0.687-1.382,1.37-2.068,2.049    c-1.394,1.34-2.668,2.761-3.959,4.131c-2.521,2.792-4.858,5.593-6.963,8.343c-2.137,2.729-4.004,5.429-5.684,7.957    c-3.333,5.074-5.731,9.556-7.325,12.732c-1.598,3.184-2.325,5.073-2.325,5.073c-0.079,0.207-0.311,0.31-0.518,0.23    c-0.192-0.074-0.294-0.28-0.244-0.474L748.703,301.017z" fill="#FFB74D" id="XMLID_155_"/><path d="M725.119,376.367c0,0,1.435-1.651,4.145-4.321c1.349-1.345,3.031-2.931,5.019-4.688    c1.973-1.775,4.272-3.693,6.809-5.758c2.561-2.031,5.361-4.211,8.421-6.386c3.044-2.199,6.352-4.383,9.837-6.551    c3.479-2.178,7.156-4.305,10.977-6.32c1.902-1.023,3.865-1.965,5.815-2.96c1.985-0.916,3.959-1.887,5.975-2.766    c4.025-1.77,8.076-3.511,12.143-5.047c1.017-0.386,2.029-0.771,3.037-1.153c1.011-0.376,2.035-0.692,3.047-1.029    c1.013-0.332,2.02-0.669,3.028-0.971c1.016-0.277,2.024-0.552,3.024-0.825c1.006-0.251,2.003-0.5,2.991-0.747    c0.992-0.232,1.986-0.407,2.966-0.599c1.961-0.371,3.879-0.732,5.771-0.947c1.885-0.245,3.715-0.491,5.496-0.643    c1.786-0.122,3.505-0.257,5.158-0.343c1.651-0.097,3.245-0.066,4.751-0.089c1.509,0.01,2.933-0.027,4.279,0.076    c2.688,0.151,5.018,0.278,6.934,0.537c1.916,0.243,3.414,0.47,4.432,0.64c1.017,0.178,1.56,0.273,1.56,0.273    c0.221,0.039,0.369,0.249,0.33,0.47c-0.029,0.167-0.157,0.292-0.313,0.327l-0.017,0.003c0,0-0.538,0.117-1.547,0.336    c-1.007,0.21-2.481,0.498-4.347,0.818c-0.934,0.138-1.962,0.364-3.079,0.593c-1.115,0.209-2.321,0.436-3.61,0.678    c-1.287,0.214-2.646,0.522-4.079,0.813c-1.431,0.298-2.938,0.558-4.5,0.898c-1.558,0.363-3.184,0.695-4.86,1.057    c-1.681,0.333-3.394,0.813-5.17,1.192c-1.777,0.378-3.578,0.883-5.431,1.327c-0.926,0.222-1.862,0.446-2.808,0.673    c-0.942,0.242-1.892,0.487-2.851,0.733c-0.963,0.229-1.935,0.46-2.913,0.692c-0.968,0.271-1.953,0.512-2.942,0.761    c-0.991,0.247-1.987,0.496-2.989,0.746c-0.997,0.272-1.999,0.545-3.005,0.819c-4.034,1.077-8.076,2.394-12.069,3.854    c-1.999,0.726-3.961,1.546-5.939,2.311c-1.944,0.844-3.905,1.638-5.811,2.514c-1.905,0.877-3.804,1.736-5.65,2.647    c-1.863,0.879-3.676,1.804-5.454,2.729c-1.792,0.9-3.498,1.886-5.201,2.798c-1.666,0.973-3.326,1.883-4.901,2.833    c-3.181,1.859-6.11,3.749-8.801,5.519c-2.667,1.803-5.097,3.489-7.192,5.062c-2.104,1.563-3.909,2.968-5.379,4.144    c-2.946,2.356-4.514,3.822-4.514,3.822c-0.162,0.151-0.415,0.143-0.566-0.019C724.985,376.755,724.987,376.52,725.119,376.367z" fill="#FFD54F" id="XMLID_115_"/><path d="M694.383,309.024c0,0,1.065-3.291,3.193-8.948c2.114-5.663,5.373-13.664,9.666-23.107    c2.154-4.718,4.565-9.798,7.251-15.108c2.68-5.314,5.669-10.837,8.888-16.487c6.445-11.294,14.02-22.979,22.498-34.057    c4.2-5.569,8.642-10.97,13.232-16.126c4.583-5.161,9.395-10.007,14.385-14.349c5.012-4.313,10.17-8.152,15.334-11.376    c1.301-0.793,2.575-1.586,3.854-2.328c1.293-0.719,2.566-1.426,3.818-2.122c1.281-0.642,2.541-1.273,3.777-1.893    c1.256-0.576,2.489-1.142,3.697-1.696c1.222-0.523,2.422-1.025,3.602-1.495c1.176-0.477,2.364-0.858,3.498-1.274    c1.131-0.422,2.261-0.764,3.354-1.104c1.092-0.342,2.146-0.686,3.198-0.927c4.15-1.14,7.849-1.769,10.888-2.192    c1.513-0.243,2.893-0.305,4.072-0.43c1.179-0.129,2.195-0.147,3.013-0.175c1.634-0.045,2.505-0.069,2.505-0.069    c0.222-0.006,0.407,0.169,0.413,0.39c0.005,0.188-0.12,0.35-0.293,0.398l-0.018,0.005c0,0-0.832,0.232-2.392,0.668    c-1.56,0.399-3.822,1.094-6.658,2.009c-1.409,0.499-2.979,0.982-4.641,1.66c-0.834,0.316-1.704,0.645-2.604,0.986    c-0.887,0.377-1.805,0.767-2.753,1.17c-0.951,0.389-1.907,0.858-2.902,1.302c-0.993,0.451-2.015,0.906-3.036,1.441    c-2.067,1.008-4.183,2.179-6.396,3.37c-1.088,0.631-2.198,1.276-3.33,1.933c-1.108,0.695-2.237,1.403-3.386,2.124    c-1.132,0.743-2.284,1.5-3.454,2.267c-1.148,0.799-2.313,1.611-3.495,2.434c-4.68,3.358-9.452,7.13-14.229,11.245    c-4.799,4.087-9.63,8.496-14.375,13.181c-4.753,4.679-9.287,9.749-13.668,14.961c-4.341,5.244-8.502,10.655-12.407,16.129    c-3.9,5.477-7.622,10.962-11.075,16.375c-3.453,5.412-6.631,10.751-9.587,15.852c-2.95,5.104-5.62,10.004-8.016,14.564    c-4.797,9.12-8.424,16.918-10.917,22.396c-2.481,5.485-3.75,8.679-3.75,8.679c-0.082,0.205-0.314,0.306-0.52,0.224    C694.418,309.443,694.319,309.223,694.383,309.024z" fill="#FFD54F" id="XMLID_105_"/><polygon fill="#FFD54F" id="XMLID_2469_" points="885.001,219.331 882.386,232.219 894.166,241.323 880.448,240.507     876.139,250.795 870.781,241.484 857.444,241.833 867.561,232.447 864.655,222.355 873.91,227.123   "/><polygon fill="#FFB74D" id="XMLID_2468_" points="895.16,362.603 892.544,375.49 904.325,384.594 890.606,383.778     886.297,394.066 880.939,384.755 867.603,385.104 877.72,375.718 874.813,365.626 884.068,370.394   "/><polygon fill="#FFB74D" id="XMLID_2467_" points="792.173,91.459 789.558,104.347 801.338,113.451 787.62,112.635     783.311,122.923 777.953,113.612 764.616,113.961 774.733,104.575 771.827,94.483 781.082,99.25   "/><polygon fill="#FFB74D" id="XMLID_2466_" points="923.143,268.344 921.857,274.679 927.648,279.154 920.905,278.753     918.787,283.81 916.153,279.233 909.597,279.405 914.57,274.791 913.142,269.831 917.691,272.174   "/><polygon fill="#FFD54F" id="XMLID_2465_" points="910.482,200.261 909.197,206.596 914.987,211.071 908.244,210.669     906.126,215.727 903.493,211.15 896.937,211.321 901.91,206.708 900.481,201.747 905.03,204.091   "/><polygon fill="#FFD54F" id="XMLID_2464_" points="885.49,327.357 884.204,333.692 889.995,338.167 883.251,337.766     881.133,342.824 878.5,338.247 871.944,338.418 876.917,333.805 875.488,328.844 880.038,331.188   "/><polygon fill="#FFD54F" id="XMLID_2463_" points="855.559,164.169 854.273,170.504 860.064,174.979 853.321,174.578     851.203,179.635 848.569,175.059 842.013,175.23 846.986,170.616 845.558,165.655 850.107,167.999   "/><polygon fill="#FFD54F" id="XMLID_2462_" points="876.068,105.878 874.783,112.213 880.573,116.688 873.83,116.287     871.712,121.344 869.078,116.768 862.522,116.939 867.496,112.325 866.067,107.364 870.616,109.708   "/></g><polygon fill="#FFD54F" id="XMLID_2460_" points="91.288,181.605 90.002,187.94 95.793,192.415 89.05,192.014 86.932,197.071    84.298,192.495 77.742,192.666 82.715,188.052 81.287,183.091 85.836,185.435  "/><polygon fill="#FFD54F" id="XMLID_2459_" points="85.898,135.596 84.612,141.931 90.403,146.406 83.659,146.004 81.542,151.062    78.908,146.485 72.352,146.656 77.325,142.043 75.896,137.082 80.446,139.425  "/></g></svg>