<?xml version="1.0" standalone="no"?>
<!DOCTYPE svg PUBLIC "-//W3C//DTD SVG 1.1//EN" "http://www.w3.org/Graphics/SVG/1.1/DTD/svg11.dtd">
<svg xmlns="http://www.w3.org/2000/svg">
<metadata>Generated by Fontastic.me</metadata>
<defs>
<font id="pixel" horiz-adv-x="512">
<font-face font-family="pixel" units-per-em="512" ascent="480" descent="-32"/>
<missing-glyph horiz-adv-x="512" />

<glyph glyph-name="add" unicode="&#98;" d="M277 277l0 64-42 0 0-64-64 0 0-42 64 0 0-64 42 0 0 64 64 0 0 42z m171 150l0 21-21 0 0 21-342 0 0-21-21 0 0-21-21 0 0-342 21 0 0-21 21 0 0-21 342 0 0 21 21 0 0 21 21 0 0 342z m-21-299l-22 0 0-21-21 0 0-22-256 0 0 22-21 0 0 21-22 0 0 256 22 0 0 21 21 0 0 22 256 0 0-22 21 0 0-21 22 0z"/>
<glyph glyph-name="add-bookmark" unicode="&#99;" d="M384 299l0-171-21 0 0 21-22 0 0 22-21 0 0 21-21 0 0 21-86 0 0-21-21 0 0-21-21 0 0-22-22 0 0-21-21 0 0 256 21 0 0 21 128 0 0 43-170 0 0-21-22 0 0-363 86 0 0 21 21 0 0 22 21 0 0 21 22 0 0 21 42 0 0-21 22 0 0-21 21 0 0-22 21 0 0-21 86 0 0 235z m43 128l0 42-43 0 0-42-43 0 0-43 43 0 0-43 43 0 0 43 42 0 0 43z"/>
<glyph glyph-name="align-left" unicode="&#97;" d="M320 320l-256 0 0-43 256 0z m0-171l-256 0 0-42 256 0z m128 256l-384 0 0-42 384 0z m0-170l-384 0 0-43 384 0z"/>
<glyph glyph-name="align-right" unicode="&#100;" d="M448 405l-384 0 0-42 384 0z m0-85l-256 0 0-43 256 0z m0-85l-384 0 0-43 384 0z m0-86l-256 0 0-42 256 0z"/>
<glyph glyph-name="attention" unicode="&#101;" d="M277 171l-42 0 0-43 42 0z m0 213l-42 0 0-171 42 0z m171 21l0 22-21 0 0 21-22 0 0 21-298 0 0-21-22 0 0-21-21 0 0-22-21 0 0-298 21 0 0-22 21 0 0-21 22 0 0-21 298 0 0 21 22 0 0 21 21 0 0 22 21 0 0 298z m-21-256l-22 0 0-21-21 0 0-21-21 0 0-22-214 0 0 22-21 0 0 21-21 0 0 21-22 0 0 214 22 0 0 21 21 0 0 21 21 0 0 22 214 0 0-22 21 0 0-21 21 0 0-21 22 0z"/>
<glyph glyph-name="block" unicode="&#102;" d="M448 405l0 22-21 0 0 21-22 0 0 21-298 0 0-21-22 0 0-21-21 0 0-22-21 0 0-298 21 0 0-22 21 0 0-21 22 0 0-21 298 0 0 21 22 0 0 21 21 0 0 22 21 0 0 298z m-21-256l-64 0 0 43-43 0 0 43-43 0 0 42-42 0 0 43-43 0 0 43-43 0 0 64 214 0 0-22 21 0 0-21 21 0 0-21 22 0z m-299-42l0 21-21 0 0 21-22 0 0 214 22 0 0-43 42 0 0-43 43 0 0-42 43 0 0-43 42 0 0-43 43 0 0-42 43 0 0-22-214 0 0 22z"/>
<glyph glyph-name="block-person" unicode="&#103;" d="M128 256l21 0 0-21 128 0 0 21 22 0 0 21 21 0 0 128-21 0 0 22-22 0 0 21-128 0 0-21-21 0 0-22-21 0 0-128 21 0z m21 107l22 0 0 21 21 0 0 21 43 0 0-21 21 0 0-21 21 0 0-43-21 0 0-21-21 0 0-22-43 0 0 22-21 0 0 21-22 0z m214-171l-22 0 0 21-256 0 0-21-21 0 0-21-21 0 0-107 42 0 0 64 22 0 0 21 21 0 0 22 171 0 0-22 21 0 0-21 21 0 0-64 43 0 0 107-21 0z m64 213l0-21-22 0 0 21-42 0 0-42 21 0 0-22-21 0 0-42 42 0 0 21 22 0 0-21 42 0 0 42-21 0 0 22 21 0 0 42z"/>
<glyph glyph-name="bluetooth" unicode="&#104;" d="M384 363l0 21-21 0 0 21-43 0 0 22-21 0 0 21-43 0 0 21-64 0 0-149-21 0 0 43-64 0 0-43 21 0 0-43 43 0 0-42-43 0 0-43-21 0 0-43 64 0 0 43 21 0 0-149 64 0 0 21 43 0 0 21 21 0 0 22 43 0 0 21 21 0 0 21 21 0 0 64-21 0 0 22-43 0 0 42 43 0 0 22 21 0 0 64z m-64-64l-43 0 0-22-42 0 0 128 21 0 0-21 21 0 0-21 43 0 0-22 21 0 0-21-21 0z m21-107l0-21-21 0 0-22-43 0 0-21-21 0 0-21-21 0 0 128 42 0 0-22 43 0 0-21z"/>
<glyph glyph-name="bold" unicode="&#105;" d="M384 277l0 22-43 0 0 128-21 0 0 21-213 0 0-384 277 0 0 21 21 0 0 192z m-21-149l-22 0 0-21-192 0 0 149 192 0 0-21 22 0z m-214 277l128 0 0-21 22 0 0-64-22 0 0-21-128 0z"/>
<glyph glyph-name="bookmark" unicode="&#106;" d="M405 427l0 21-298 0 0-21-22 0 0-363 86 0 0 21 21 0 0 22 21 0 0 21 22 0 0 21 42 0 0-21 22 0 0-21 21 0 0-22 21 0 0-21 86 0 0 363z m-21-299l-21 0 0 21-22 0 0 22-21 0 0 21-21 0 0 21-86 0 0-21-21 0 0-21-21 0 0-22-22 0 0-21-21 0 0 256 21 0 0 21 214 0 0-21 21 0z"/>
<glyph glyph-name="calls-delete" unicode="&#107;" d="M448 427l-107 0 0-43 128 0 0 43z m0-214l0 22-128 0 0 21-21 0 0 21-22 0 0 22-21 0 0 21-21 0 0 128-22 0 0 21-128 0 0-21-21 0 0-21-21 0 0-150 21 0 0-21 21 0 0-21 22 0 0-22 21 0 0-21 21 0 0-21 22 0 0-22 21 0 0-21 21 0 0-21 22 0 0-22 21 0 0-21 21 0 0-21 150 0 0 21 21 0 0 21 21 0 0 128z m-21-85l-22 0 0-21-21 0 0-22-64 0 0 22-21 0 0 21-22 0 0 21-21 0 0 22-21 0 0 21-22 0 0 21-21 0 0 22-21 0 0 21-22 0 0 21-21 0 0 22-21 0 0 21-22 0 0 64 22 0 0 21 21 0 0 22 43 0 0-22 21 0 0-42-21 0 0-64 21 0 0-22 21 0 0-21 22 0 0-21 21 0 0-22 21 0 0-21 22 0 0-21 64 0 0 21 42 0 0-21 22 0z"/>
<glyph glyph-name="cart" unicode="&#108;" d="M235 107l-64 0 0-64 64 0z m192 0l-64 0 0-64 64 0z m-278 277l0 43-21 0 0 42-85 0 0-42 42 0 0-43 22 0 0-64 21 0 0-64 21 0 0-64 22 0 0-43 256 0 0 43 21 0 0 64 21 0 0 128z m278-85l-22 0 0-64-21 0 0-43-171 0 0 43-21 0 0 64-21 0 0 42 256 0z"/>
<glyph glyph-name="chat" unicode="&#109;" d="M448 448l0 21-384 0 0-21-21 0 0-299 21 0 0-21 43 0 0-85 85 0 0 21 21 0 0 21 22 0 0 22 21 0 0 21 192 0 0 21 21 0 0 299z m-21-256l-22 0 0-21-170 0 0-22-22 0 0-21-21 0 0-21-21 0 0-22-22 0 0 86-42 0 0 21-22 0 0 213 22 0 0 22 298 0 0-22 22 0z"/>
<glyph glyph-name="clock" unicode="&#110;" d="M277 277l0 107-42 0 0-149 106 0 0 42z m171 128l0 22-21 0 0 21-22 0 0 21-298 0 0-21-22 0 0-21-21 0 0-22-21 0 0-298 21 0 0-22 21 0 0-21 22 0 0-21 298 0 0 21 22 0 0 21 21 0 0 22 21 0 0 298z m-21-256l-22 0 0-21-21 0 0-21-21 0 0-22-214 0 0 22-21 0 0 21-21 0 0 21-22 0 0 214 22 0 0 21 21 0 0 21 21 0 0 22 214 0 0-22 21 0 0-21 21 0 0-21 22 0z"/>
<glyph glyph-name="complete" unicode="&#111;" d="M427 427l0-43-43 0 0-43-43 0 0-42-42 0 0-43-43 0 0-43-43 0 0-42-21 0 0-22-43 0 0 22-21 0 0 42-43 0 0 22-42 0 0-64 42 0 0-43 43 0 0-43 21 0 0-21 43 0 0 21 21 0 0 43 43 0 0 43 43 0 0 42 42 0 0 43 43 0 0 43 43 0 0 42 42 0 0 86z"/>
<glyph glyph-name="copy-document" unicode="&#112;" d="M320 192l-128 0 0-43 128 0z m0 64l-128 0 0-43 128 0z m85 107l0 21-21 0 0 21-21 0 0 22-22 0 0 21-21 0 0 21-213 0 0-21-22 0 0-384 22 0 0-21 298 0 0 21 22 0 0 299z m-21-256l-21 0 0-22-214 0 0 22-21 0 0 298 21 0 0 22 107 0 0-128 128 0z m-43 256l0-22-42 0 0 43 21 0 0-21z"/>
<glyph glyph-name="copy-folder" unicode="&#113;" d="M320 277l-128 0 0-42 128 0z m0-64l-128 0 0-42 128 0z m128 171l0 21-213 0 0 22-22 0 0 21-149 0 0-21-21 0 0-342 21 0 0-21 384 0 0 21 21 0 0 299z m-21-256l-22 0 0-21-298 0 0 21-22 0 0 256 22 0 0 21 64 0 0-21 21 0 0-21 213 0 0-22 22 0z"/>
<glyph glyph-name="create-document" unicode="&#114;" d="M277 235l0 42-42 0 0-42-43 0 0-43 43 0 0-43 42 0 0 43 43 0 0 43z m128 128l0 21-21 0 0 21-21 0 0 22-22 0 0 21-21 0 0 21-213 0 0-21-22 0 0-384 22 0 0-21 298 0 0 21 22 0 0 299z m-21-256l-21 0 0-22-214 0 0 22-21 0 0 298 21 0 0 22 107 0 0-128 128 0z m-43 256l0-22-42 0 0 43 21 0 0-21z"/>
<glyph glyph-name="delete-message" unicode="&#115;" d="M469 405l-128 0 0-42 128 0z m-42-128l0-170-22 0 0-22-298 0 0 22-22 0 0 170 22 0 0-21 42 0 0-21 43 0 0-22 21 0 0-21 86 0 0 21 21 0 0 22 43 0 0 42-86 0 0-21-42 0 0 21-43 0 0 22-43 0 0 21-42 0 0 21-22 0 0 22 22 0 0 21 170 0 0 43-213 0 0-22-21 0 0-341 21 0 0-21 384 0 0 21 21 0 0 213z"/>
<glyph glyph-name="delete-person" unicode="&#116;" d="M128 256l21 0 0-21 128 0 0 21 22 0 0 21 21 0 0 128-21 0 0 22-22 0 0 21-128 0 0-21-21 0 0-22-21 0 0-128 21 0z m21 107l22 0 0 21 21 0 0 21 43 0 0-21 21 0 0-21 21 0 0-43-21 0 0-21-21 0 0-22-43 0 0 22-21 0 0 21-22 0z m214-171l-22 0 0 21-256 0 0-21-21 0 0-21-21 0 0-107 42 0 0 64 22 0 0 21 21 0 0 22 171 0 0-22 21 0 0-21 21 0 0-64 43 0 0 107-21 0z m106 171l-128 0 0-43 128 0z"/>
<glyph glyph-name="diary" unicode="&#117;" d="M448 405l0 22-85 0 0 21-43 0 0-21-128 0 0 21-43 0 0-21-85 0 0-22-21 0 0-341 21 0 0-21 384 0 0 21 21 0 0 341z m-21-85l-342 0 0 43 22 0 0 21 42 0 0-43 43 0 0 43 128 0 0-43 43 0 0 43 42 0 0-21 22 0z m0-213l-22 0 0-22-298 0 0 22-22 0 0 170 342 0z"/>
<glyph glyph-name="document" unicode="&#118;" d="M405 363l0 21-21 0 0 21-21 0 0 22-22 0 0 21-21 0 0 21-213 0 0-21-22 0 0-384 22 0 0-21 298 0 0 21 22 0 0 299z m-21-256l-21 0 0-22-214 0 0 22-21 0 0 298 21 0 0 22 107 0 0-128 128 0z m-43 256l0-22-42 0 0 43 21 0 0-21z"/>
<glyph glyph-name="down-arrow" unicode="&#119;" d="M363 256l0-21-43 0 0-43-43 0 0 256-42 0 0-256-43 0 0 43-43 0 0 21-42 0 0-64 42 0 0-43 43 0 0-42 21 0 0-22 22 0 0-21 42 0 0 21 22 0 0 22 21 0 0 42 43 0 0 43 42 0 0 64z"/>
<glyph glyph-name="down-left-arrow" unicode="&#120;" d="M363 405l0-21-22 0 0-21-21 0 0-22-21 0 0-21-22 0 0-21-21 0 0-22-21 0 0-21-22 0 0-21-21 0 0-22-21 0 0-21-22 0 0 128-42 0 0-213 213 0 0 42-128 0 0 22 21 0 0 21 22 0 0 21 21 0 0 22 21 0 0 21 22 0 0 21 21 0 0 22 21 0 0 21 22 0 0 21 21 0 0 22 21 0 0 42z"/>
<glyph glyph-name="down-right-arrow" unicode="&#121;" d="M107 363l21 0 0-22 21 0 0-21 22 0 0-21 21 0 0-22 21 0 0-21 22 0 0-21 21 0 0-22 21 0 0-21 22 0 0-21 21 0 0-22-128 0 0-42 213 0 0 213-42 0 0-128-22 0 0 21-21 0 0 22-21 0 0 21-22 0 0 21-21 0 0 22-21 0 0 21-22 0 0 21-21 0 0 22-21 0 0 21-22 0 0 21-42 0z"/>
<glyph glyph-name="download" unicode="&#122;" d="M149 256l0-43 43 0 0-42 21 0 0-22 22 0 0-21 42 0 0 21 22 0 0 22 21 0 0 42 43 0 0 43 42 0 0 64-42 0 0-21-43 0 0-43-43 0 0 192-42 0 0-192-43 0 0 43-43 0 0 21-42 0 0-64z m256-107l0-42-298 0 0 42-43 0 0-85 384 0 0 85z"/>
<glyph glyph-name="gift" unicode="&#65;" d="M384 384l0 64-21 0 0 21-86 0 0-21-42 0 0 21-86 0 0-21-21 0 0-64-85 0 0-128 21 0 0-213 384 0 0 213 21 0 0 128z m43-85l-150 0 0 42 150 0z m-22-214l-128 0 0 171 128 0z m-298 171l128 0 0-171-128 0z m-22 85l150 0 0-42-150 0z m86 86l42 0 0-22 22 0 0-21-64 0z m128 0l42 0 0-43-64 0 0 21 22 0z"/>
<glyph glyph-name="hash" unicode="&#66;" d="M384 341l0 43 21 0 0 85-42 0 0-42-22 0 0-86-106 0 0 43 21 0 0 85-43 0 0-42-21 0 0-86-149 0 0-42 128 0 0-22-22 0 0-64-106 0 0-42 85 0 0-43-21 0 0-85 42 0 0 42 22 0 0 86 106 0 0-43-21 0 0-85 43 0 0 42 21 0 0 86 149 0 0 42-128 0 0 22 22 0 0 64 106 0 0 42z m-64-64l-21 0 0-64-107 0 0 22 21 0 0 64 107 0z"/>
<glyph glyph-name="hide" unicode="&#67;" d="M192 107l0 42-43 0 0 22-21 0 0 21-21 0 0 43-43 0 0 42 43 0 0 43-86 0 0-128 43 0 0-43 21 0 0-21 22 0 0-21 42 0 0-43 171 0 0 43z m256 213l0 43-21 0 0 21-22 0 0 21-42 0 0 43-171 0 0-43 128 0 0-42 43 0 0-22 21 0 0-21 21 0 0-43 43 0 0-42-43 0 0-43 86 0 0 128z m0-235l0 43-43 0 0 43-42 0 0 42-43 0 0 43-43 0 0 43-42 0 0 42-43 0 0 43-43 0 0 43-42 0 0 42-43 0 0 22-43 0 0-64 43 0 0-43 43 0 0-43 42 0 0-42 43 0 0-43 43 0 0-43 42 0 0-42 43 0 0-43 43 0 0-43 42 0 0-42 43 0 0-22 43 0 0 64z"/>
<glyph glyph-name="home" unicode="&#68;" d="M448 363l0 21-43 0 0 21-42 0 0 22-43 0 0 21-128 0 0-21-43 0 0-22-42 0 0-21-43 0 0-21-21 0 0-43 21 0 0-213-21 0 0-43 192 0 0 149 42 0 0-149 192 0 0 43-21 0 0 213 21 0 0 43z m-43-256l-85 0 0 149-128 0 0-149-85 0 0 234 42 0 0 22 43 0 0 21 43 0 0 21 42 0 0-21 43 0 0-21 43 0 0-22 42 0z"/>
<glyph glyph-name="image" unicode="&#69;" d="M235 384l-86 0 0-21-21 0 0-86 21 0 0-21 86 0 0 21 21 0 0 86-21 0z m-22-85l-42 0 0 42 42 0z m235 149l0 21-384 0 0-21-21 0 0-384 21 0 0-21 384 0 0 21 21 0 0 384z m-21-235l-22 0 0 22-21 0 0 21-21 0 0 21-64 0 0-21-22 0 0-21-21 0 0-22-21 0 0-21-22 0 0-21-21 0 0-22-21 0 0-21-22 0 0-21-21 0 0-22-21 0 0 22-22 0 0 298 22 0 0 22 298 0 0-22 22 0z m0-106l-22 0 0-22-213 0 0 22 21 0 0 21 22 0 0 21 21 0 0 22 21 0 0 21 22 0 0 21 21 0 0 22 21 0 0-22 22 0 0-21 21 0 0-21 21 0 0-22 22 0z"/>
<glyph glyph-name="incoming-call" unicode="&#70;" d="M427 469l0-21-22 0 0-21-21 0 0 42-43 0 0-128 128 0 0 43-42 0 0 21 21 0 0 22 21 0 0 42z m21-256l0 22-128 0 0 21-21 0 0 21-22 0 0 22-21 0 0 21-21 0 0 128-22 0 0 21-128 0 0-21-21 0 0-21-21 0 0-150 21 0 0-21 21 0 0-21 22 0 0-22 21 0 0-21 21 0 0-21 22 0 0-22 21 0 0-21 21 0 0-21 22 0 0-22 21 0 0-21 21 0 0-21 150 0 0 21 21 0 0 21 21 0 0 128z m-21-85l-22 0 0-21-21 0 0-22-64 0 0 22-21 0 0 21-22 0 0 21-21 0 0 22-21 0 0 21-22 0 0 21-21 0 0 22-21 0 0 21-22 0 0 21-21 0 0 22-21 0 0 21-22 0 0 64 22 0 0 21 21 0 0 22 43 0 0-22 21 0 0-42-21 0 0-64 21 0 0-22 21 0 0-21 22 0 0-21 21 0 0-22 21 0 0-21 22 0 0-21 64 0 0 21 42 0 0-21 22 0z"/>
<glyph glyph-name="info" unicode="&#71;" d="M277 384l-42 0 0-43 42 0z m0-85l-42 0 0-171 42 0z m171 106l0 22-21 0 0 21-22 0 0 21-298 0 0-21-22 0 0-21-21 0 0-22-21 0 0-298 21 0 0-22 21 0 0-21 22 0 0-21 298 0 0 21 22 0 0 21 21 0 0 22 21 0 0 298z m-21-256l-22 0 0-21-21 0 0-21-21 0 0-22-214 0 0 22-21 0 0 21-21 0 0 21-22 0 0 214 22 0 0 21 21 0 0 21 21 0 0 22 214 0 0-22 21 0 0-21 21 0 0-21 22 0z"/>
<glyph glyph-name="italic" unicode="&#72;" d="M171 448l0-43 85 0 0-64-21 0 0-64-22 0 0-64-21 0 0-64-21 0 0-42-86 0 0-43 235 0 0 43-85 0 0 64 21 0 0 64 21 0 0 64 22 0 0 64 21 0 0 42 85 0 0 43z"/>
<glyph glyph-name="levels-2" unicode="&#73;" d="M384 427l-43 0 0-342 43 0z m-107-128l-42 0 0-214 42 0z m-106-86l-43 0 0-128 43 0z"/>
<glyph glyph-name="losed" unicode="&#74;" d="M277 235l-42 0 0-86 42 0z m171 85l0 21-85 0 0 107-22 0 0 21-170 0 0-21-22 0 0-107-85 0 0-21-21 0 0-256 21 0 0-21 384 0 0 21 21 0 0 256z m-21-213l-22 0 0-22-298 0 0 22-22 0 0 170 22 0 0 22 298 0 0-22 22 0z m-235 298l21 0 0 22 86 0 0-22 21 0 0-64-128 0z"/>
<glyph glyph-name="messages" unicode="&#75;" d="M448 427l0 21-384 0 0-21-21 0 0-342 21 0 0-21 384 0 0 21 21 0 0 342z m-21-64l-22 0 0-22-42 0 0-21-43 0 0-21-43 0 0-22-42 0 0 22-43 0 0 21-43 0 0 21-42 0 0 22-22 0 0 21 22 0 0 21 298 0 0-21 22 0z m0-235l-22 0 0-21-298 0 0 21-22 0 0 171 22 0 0-22 42 0 0-21 43 0 0-21 21 0 0-22 86 0 0 22 21 0 0 21 43 0 0 21 42 0 0 22 22 0z"/>
<glyph glyph-name="microphone-off" unicode="&#76;" d="M277 427l0-22 22 0 0-85 21 0 0-21 21 0 0 149-21 0 0 21-128 0 0-42z m0-342l0 43-21 0 0 21-85 0 0 22-22 0 0 42-42 0 0-85 21 0 0-21 107 0 0-22-43 0 0-42 128 0 0 42z m171 0l0 43-43 0 0 43-42 0 0 42-43 0 0 43-43 0 0 43-42 0 0 42-43 0 0 43-43 0 0 43-42 0 0 42-43 0 0 22-43 0 0-64 43 0 0-43 43 0 0-43 42 0 0-42 43 0 0-43 43 0 0-43 42 0 0-42 43 0 0-43 43 0 0-43 42 0 0-42 43 0 0-22 43 0 0 64z"/>
<glyph glyph-name="microphone-on" unicode="&#77;" d="M363 213l0-42-22 0 0-22-170 0 0 22-22 0 0 42-42 0 0-85 21 0 0-21 107 0 0-22-43 0 0-42 128 0 0 42-43 0 0 22 107 0 0 21 21 0 0 85z m-171-42l128 0 0 21 21 0 0 256-21 0 0 21-128 0 0-21-21 0 0-256 21 0z m21 234l22 0 0 22 42 0 0-22 22 0 0-170-22 0 0-22-42 0 0 22-22 0z"/>
<glyph glyph-name="minus" unicode="&#78;" d="M427 277l-342 0 0-42 342 0z"/>
<glyph glyph-name="missed-call" unicode="&#79;" d="M405 448l0-21-21 0 0 21-43 0 0-43 22 0 0-21-22 0 0-43 43 0 0 22 21 0 0-22 43 0 0 43-21 0 0 21 21 0 0 43z m43-235l0 22-128 0 0 21-21 0 0 21-22 0 0 22-21 0 0 21-21 0 0 128-22 0 0 21-128 0 0-21-21 0 0-21-21 0 0-150 21 0 0-21 21 0 0-21 22 0 0-22 21 0 0-21 21 0 0-21 22 0 0-22 21 0 0-21 21 0 0-21 22 0 0-22 21 0 0-21 21 0 0-21 150 0 0 21 21 0 0 21 21 0 0 128z m-21-85l-22 0 0-21-21 0 0-22-64 0 0 22-21 0 0 21-22 0 0 21-21 0 0 22-21 0 0 21-22 0 0 21-21 0 0 22-21 0 0 21-22 0 0 21-21 0 0 22-21 0 0 21-22 0 0 64 22 0 0 21 21 0 0 22 43 0 0-22 21 0 0-42-21 0 0-64 21 0 0-22 21 0 0-21 22 0 0-21 21 0 0-22 21 0 0-21 22 0 0-21 64 0 0 21 42 0 0-21 22 0z"/>
<glyph glyph-name="mute" unicode="&#80;" d="M299 384l0-21 21 0 0-22 21 0 0-21 22 0 0-85 42 0 0 128-21 0 0 21-21 0 0 21-22 0 0 22-64 0 0 42-42 0 0-85z m-22-277l0 42-149 0 0 22 21 0 0 85-42 0 0-64-22 0 0-43-21 0 0-42z m22-22l-86 0 0-42 86 0z m149 0l0 43-43 0 0 43-42 0 0 42-43 0 0 43-43 0 0 43-42 0 0 42-43 0 0 43-43 0 0 43-42 0 0 42-43 0 0 22-43 0 0-64 43 0 0-43 43 0 0-43 42 0 0-42 43 0 0-43 43 0 0-43 42 0 0-42 43 0 0-43 43 0 0-43 42 0 0-42 43 0 0-22 43 0 0 64z"/>
<glyph glyph-name="person" unicode="&#81;" d="M171 256l21 0 0-21 128 0 0 21 21 0 0 21 22 0 0 128-22 0 0 22-21 0 0 21-128 0 0-21-21 0 0-22-22 0 0-128 22 0z m21 107l21 0 0 21 22 0 0 21 42 0 0-21 22 0 0-21 21 0 0-43-21 0 0-21-22 0 0-22-42 0 0 22-22 0 0 21-21 0z m213-192l0 21-21 0 0 21-256 0 0-21-21 0 0-21-22 0 0-107 43 0 0 64 21 0 0 21 22 0 0 22 170 0 0-22 22 0 0-21 21 0 0-64 43 0 0 107z"/>
<glyph glyph-name="person-added" unicode="&#82;" d="M128 256l21 0 0-21 128 0 0 21 22 0 0 21 21 0 0 128-21 0 0 22-22 0 0 21-128 0 0-21-21 0 0-22-21 0 0-128 21 0z m21 107l22 0 0 21 21 0 0 21 43 0 0-21 21 0 0-21 21 0 0-43-21 0 0-21-21 0 0-22-43 0 0 22-21 0 0 21-22 0z m214-171l-22 0 0 21-256 0 0-21-21 0 0-21-21 0 0-107 42 0 0 64 22 0 0 21 21 0 0 22 171 0 0-22 21 0 0-21 21 0 0-64 43 0 0 107-21 0z m85 213l0-21-21 0 0-21-22 0 0-22-21 0 0 22-43 0 0-43 22 0 0-21 64 0 0 21 21 0 0 21 21 0 0 22 22 0 0 42z"/>
<glyph glyph-name="person-group" unicode="&#83;" d="M128 256l21 0 0-21 128 0 0 21 22 0 0 21 21 0 0 128-21 0 0 22-22 0 0 21-128 0 0-21-21 0 0-22-21 0 0-128 21 0z m21 107l22 0 0 21 21 0 0 21 43 0 0-21 21 0 0-21 21 0 0-43-21 0 0-21-21 0 0-22-43 0 0 22-21 0 0 21-22 0z m192-171l-21 0 0 21-235 0 0-21-21 0 0-21-21 0 0-107 42 0 0 64 22 0 0 21 21 0 0 22 149 0 0-22 22 0 0-21 21 0 0-64 43 0 0 107-22 0z m43 64l21 0 0 21 22 0 0 128-22 0 0 22-21 0 0 21-43 0 0-64 22 0 0-21 21 0 0-43-21 0 0-21-22 0 0-64 43 0z m64-85l0 21-21 0 0 21-43 0 0-64 21 0 0-21 22 0 0-64 42 0 0 107z"/>
<glyph glyph-name="photo" unicode="&#84;" d="M320 320l-128 0 0-21-21 0 0-128 21 0 0-22 128 0 0 22 21 0 0 128-21 0z m-21-107l-22 0 0-21-42 0 0 21-22 0 0 43 22 0 0 21 42 0 0-21 22 0z m149 150l0 21-85 0 0 43-214 0 0-43-85 0 0-21-21 0 0-278 21 0 0-21 384 0 0 21 21 0 0 278z m-21-235l-22 0 0-21-298 0 0 21-22 0 0 192 22 0 0 21 85 0 0 43 128 0 0-43 85 0 0-21 22 0z"/>
<glyph glyph-name="play" unicode="&#85;" d="M384 277l0 22-21 0 0 21-43 0 0 43-43 0 0 42-42 0 0 43-128 0 0-384 128 0 0 43 42 0 0 42 43 0 0 43 43 0 0 21 21 0 0 22 21 0 0 42z m-107-42l0-43-42 0 0-43-43 0 0-42-43 0 0 298 43 0 0-42 43 0 0-43 42 0 0-43 43 0 0-42z"/>
<glyph glyph-name="plus" unicode="&#86;" d="M277 277l0 150-42 0 0-150-150 0 0-42 150 0 0-150 42 0 0 150 150 0 0 42z"/>
<glyph glyph-name="pointer-arrow" unicode="&#87;" d="M448 149l0 43-43 0 0 43-42 0 0 42-43 0 0 43-21 0 0 21-22 0 0 22-42 0 0-22-22 0 0-21-21 0 0-43-43 0 0-42-42 0 0-43-43 0 0-43-21 0 0-42 64 0 0 42 42 0 0 43 43 0 0 43 43 0 0 42 42 0 0-42 43 0 0-43 43 0 0-43 42 0 0-42 64 0 0 42z"/>
<glyph glyph-name="pointer-down" unicode="&#88;" d="M405 363l0-43-42 0 0-43-43 0 0-42-43 0 0-43-42 0 0 43-43 0 0 42-43 0 0 43-42 0 0 43-64 0 0-43 21 0 0-43 43 0 0-42 42 0 0-43 43 0 0-43 21 0 0-21 22 0 0-21 42 0 0 21 22 0 0 21 21 0 0 43 43 0 0 43 42 0 0 42 43 0 0 43 21 0 0 43z"/>
<glyph glyph-name="repeat" unicode="&#89;" d="M85 384l0 21 22 0 0 22 21 0 0 21 213 0 0-21 22 0 0-22 21 0 0-21 21 0 0 43 43 0 0-128-128 0 0 42 43 0 0 22-22 0 0 21-21 0 0 21-149 0 0-21-22 0 0-21-21 0 0-22-21 0 0-170 21 0 0-22 21 0 0-21 22 0 0-21 149 0 0 21 21 0 0 21 22 0 0 22 21 0 0 21 43 0 0-64-22 0 0-21-21 0 0-22-21 0 0-21-235 0 0 21-21 0 0 22-22 0 0 21-21 0 0 256z"/>
<glyph glyph-name="replay" unicode="&#90;" d="M299 405l-43 0 0-42-43 0 0-43-42 0 0-21-22 0 0-86 22 0 0-21 42 0 0-43 43 0 0-42 43 0 0-43 128 0 0 384-128 0z m-86-170l0 42 43 0 0 43 43 0 0 43 42 0 0 42 43 0 0-298-43 0 0 42-42 0 0 43-43 0 0 43z m-85 213l-43 0 0-384 43 0z"/>
<glyph glyph-name="right-arrow" unicode="&#48;" d="M256 363l21 0 0-43 43 0 0-43-256 0 0-42 256 0 0-43-43 0 0-43-21 0 0-42 64 0 0 42 43 0 0 43 42 0 0 21 22 0 0 22 21 0 0 42-21 0 0 22-22 0 0 21-42 0 0 43-43 0 0 42-64 0z"/>
<glyph glyph-name="share" unicode="&#49;" d="M448 448l0 21-128 0 0-21-21 0 0-64-22 0 0-43-42 0 0-21-43 0 0 21-128 0 0-21-21 0 0-128 21 0 0-21 128 0 0 21 43 0 0-21 42 0 0-43 22 0 0-64 21 0 0-21 128 0 0 21 21 0 0 128-21 0 0 21-107 0 0-21-21 0 0 21-43 0 0 22-21 0 0 42 21 0 0 22 43 0 0 21 21 0 0-21 107 0 0 21 21 0 0 128z m-21-85l-22 0 0-22-42 0 0 22-22 0 0 42 22 0 0 22 42 0 0-22 22 0z m-278-128l0-22-42 0 0 22-22 0 0 42 22 0 0 22 42 0 0-22 22 0 0-42z m214-64l42 0 0-22 22 0 0-42-22 0 0-22-42 0 0 22-22 0 0 42 22 0z"/>
<glyph glyph-name="show" unicode="&#50;" d="M299 320l-86 0 0-21-21 0 0-86 21 0 0-21 86 0 0 21 21 0 0 86-21 0z m-22-85l-42 0 0 42 42 0z m171 85l0 43-21 0 0 21-22 0 0 21-42 0 0 43-214 0 0-43-42 0 0-21-22 0 0-21-21 0 0-43-43 0 0-128 43 0 0-43 21 0 0-21 22 0 0-21 42 0 0-43 214 0 0 43 42 0 0 21 22 0 0 21 21 0 0 43 43 0 0 128z m0-85l-43 0 0-43-21 0 0-21-21 0 0-22-43 0 0-42-128 0 0 42-43 0 0 22-21 0 0 21-21 0 0 43-43 0 0 42 43 0 0 43 21 0 0 21 21 0 0 22 43 0 0 42 128 0 0-42 43 0 0-22 21 0 0-21 21 0 0-43 43 0z"/>
<glyph glyph-name="sound-off" unicode="&#51;" d="M235 448l0-21-22 0 0-22-21 0 0-21-21 0 0-21-22 0 0-22-21 0 0-21-21 0 0-21-22 0 0-22-21 0 0-42 21 0 0-22 22 0 0-21 21 0 0-21 21 0 0-22 22 0 0-21 21 0 0-21 21 0 0-22 22 0 0-21 42 0 0 384z m0-277l-22 0 0 21-21 0 0 21-21 0 0 22-22 0 0 42 22 0 0 22 21 0 0 21 21 0 0 21 22 0z m170 128l0-22-21 0 0 22-43 0 0-43 22 0 0-21-22 0 0-43 43 0 0 21 21 0 0-21 43 0 0 43-21 0 0 21 21 0 0 43z"/>
<glyph glyph-name="sound-on" unicode="&#52;" d="M341 213l22 0 0 86-22 0 0 21-21 0 0-128 21 0z m-106 235l0-21-22 0 0-22-21 0 0-21-21 0 0-21-22 0 0-22-21 0 0-21-21 0 0-21-22 0 0-22-21 0 0-42 21 0 0-22 22 0 0-21 21 0 0-21 21 0 0-22 22 0 0-21 21 0 0-21 21 0 0-22 22 0 0-21 42 0 0 384z m0-277l-22 0 0 21-21 0 0 21-21 0 0 22-22 0 0 42 22 0 0 22 21 0 0 21 21 0 0 21 22 0z m170 192l0 21-85 0 0-43 43 0 0-21 21 0 0-128-21 0 0-21-43 0 0-43 85 0 0 21 22 0 0 214z"/>
<glyph glyph-name="stop" unicode="&#53;" d="M85 427l0-342 342 0 0 342z m299-299l-256 0 0 256 256 0z"/>
<glyph glyph-name="work" unicode="&#54;" d="M448 363l0 21-85 0 0 64-214 0 0-64-85 0 0-21-21 0 0-278 21 0 0-21 384 0 0 21 21 0 0 278z m-21-235l-22 0 0-21-42 0 0 234 42 0 0-21 22 0z m-342 0l0 192 22 0 0 21 42 0 0-234-42 0 0 21z m107 277l128 0 0-21-128 0z m0-64l128 0 0-234-128 0z"/>
<glyph glyph-name="zoom" unicode="&#55;" d="M405 384l0 21-21 0 0 22-21 0 0 21-214 0 0-21-21 0 0-22-21 0 0-21-22 0 0-213 22 0 0-22 21 0 0-21 21 0 0-21 171 0 0-43 21 0 0-21 64 0 0 42-21 0 0 22-21 0 0 21 21 0 0 21 21 0 0 22 22 0 0 213z m-21-171l-21 0 0-21-22 0 0-21-21 0 0-22-128 0 0 22-21 0 0 21-22 0 0 21-21 0 0 128 21 0 0 22 22 0 0 21 21 0 0 21 128 0 0-21 21 0 0-21 22 0 0-22 21 0z"/>
<glyph glyph-name="zoom-up" unicode="&#56;" d="M277 299l0 42-42 0 0-42-43 0 0-43 43 0 0-43 42 0 0 43 43 0 0 43z m128 85l0 21-21 0 0 22-21 0 0 21-214 0 0-21-21 0 0-22-21 0 0-21-22 0 0-213 22 0 0-22 21 0 0-21 21 0 0-21 171 0 0-43 21 0 0-21 64 0 0 42-21 0 0 22-21 0 0 21 21 0 0 21 21 0 0 22 22 0 0 213z m-21-171l-21 0 0-21-22 0 0-21-21 0 0-22-128 0 0 22-21 0 0 21-22 0 0 21-21 0 0 128 21 0 0 22 22 0 0 21 21 0 0 21 128 0 0-21 21 0 0-21 22 0 0-22 21 0z"/>
<glyph glyph-name="zoom-down" unicode="&#57;" d="M320 299l-128 0 0-43 128 0z m85 85l0 21-21 0 0 22-21 0 0 21-214 0 0-21-21 0 0-22-21 0 0-21-22 0 0-213 22 0 0-22 21 0 0-21 21 0 0-21 171 0 0-43 21 0 0-21 64 0 0 42-21 0 0 22-21 0 0 21 21 0 0 21 21 0 0 22 22 0 0 213z m-21-171l-21 0 0-21-22 0 0-21-21 0 0-22-128 0 0 22-21 0 0 21-22 0 0 21-21 0 0 128 21 0 0 22 22 0 0 21 21 0 0 21 128 0 0-21 21 0 0-21 22 0 0-22 21 0z"/>
<glyph glyph-name="add-messages" unicode="&#33;" d="M427 405l0 43-43 0 0-43-43 0 0-42 43 0 0-43 43 0 0 43 42 0 0 42z m0-128l0-170-22 0 0-22-298 0 0 22-22 0 0 170 22 0 0-21 42 0 0-21 43 0 0-22 21 0 0-21 86 0 0 21 21 0 0 22 43 0 0 42-86 0 0-21-42 0 0 21-43 0 0 22-43 0 0 21-42 0 0 21-22 0 0 22 22 0 0 21 170 0 0 43-213 0 0-22-21 0 0-341 21 0 0-21 384 0 0 21 21 0 0 213z"/>
<glyph glyph-name="add-person" unicode="&#34;" d="M128 256l21 0 0-21 128 0 0 21 22 0 0 21 21 0 0 128-21 0 0 22-22 0 0 21-128 0 0-21-21 0 0-22-21 0 0-128 21 0z m21 107l22 0 0 21 21 0 0 21 43 0 0-21 21 0 0-21 21 0 0-43-21 0 0-21-21 0 0-22-43 0 0 22-21 0 0 21-22 0z m214-171l-22 0 0 21-256 0 0-21-21 0 0-21-21 0 0-107 42 0 0 64 22 0 0 21 21 0 0 22 171 0 0-22 21 0 0-21 21 0 0-64 43 0 0 107-21 0z m64 171l0 42-43 0 0-42-43 0 0-43 43 0 0-43 43 0 0 43 42 0 0 43z"/>
<glyph glyph-name="align-center" unicode="&#35;" d="M384 320l-256 0 0-43 256 0z m0-171l-256 0 0-42 256 0z m64 256l-384 0 0-42 384 0z m0-170l-384 0 0-43 384 0z"/>
<glyph glyph-name="call-on" unicode="&#36;" d="M299 85l-86 0 0-42 86 0z m128 64l0 43-22 0 0 171-21 0 0 21-21 0 0 21-22 0 0 22-64 0 0 42-42 0 0-42-64 0 0-22-22 0 0-21-21 0 0-21-21 0 0-171-22 0 0-43-21 0 0-42 384 0 0 42z m-299 22l21 0 0 149 22 0 0 21 21 0 0 22 21 0 0 21 86 0 0-21 21 0 0-22 21 0 0-21 22 0 0-149 21 0 0-22-256 0z"/>
<glyph glyph-name="calls" unicode="&#37;" d="M448 213l0 22-128 0 0 21-21 0 0 21-22 0 0 22-21 0 0 21-21 0 0 128-22 0 0 21-128 0 0-21-21 0 0-21-21 0 0-150 21 0 0-21 21 0 0-21 22 0 0-22 21 0 0-21 21 0 0-21 22 0 0-22 21 0 0-21 21 0 0-21 22 0 0-22 21 0 0-21 21 0 0-21 150 0 0 21 21 0 0 21 21 0 0 128z m-21-85l-22 0 0-21-21 0 0-22-64 0 0 22-21 0 0 21-22 0 0 21-21 0 0 22-21 0 0 21-22 0 0 21-21 0 0 22-21 0 0 21-22 0 0 21-21 0 0 22-21 0 0 21-22 0 0 64 22 0 0 21 21 0 0 22 43 0 0-22 21 0 0-42-21 0 0-64 21 0 0-22 21 0 0-21 22 0 0-21 21 0 0-22 21 0 0-21 22 0 0-21 64 0 0 21 42 0 0-21 22 0z"/>
<glyph glyph-name="calls-add" unicode="&#38;" d="M448 427l-21 0 0 42-43 0 0-42-43 0 0-43 43 0 0-43 43 0 0 43 42 0 0 43z m0-214l0 22-128 0 0 21-21 0 0 21-22 0 0 22-21 0 0 21-21 0 0 128-22 0 0 21-128 0 0-21-21 0 0-21-21 0 0-150 21 0 0-21 21 0 0-21 22 0 0-22 21 0 0-21 21 0 0-21 22 0 0-22 21 0 0-21 21 0 0-21 22 0 0-22 21 0 0-21 21 0 0-21 150 0 0 21 21 0 0 21 21 0 0 128z m-21-85l-22 0 0-21-21 0 0-22-64 0 0 22-21 0 0 21-22 0 0 21-21 0 0 22-21 0 0 21-22 0 0 21-21 0 0 22-21 0 0 21-22 0 0 21-21 0 0 22-21 0 0 21-22 0 0 64 22 0 0 21 21 0 0 22 43 0 0-22 21 0 0-42-21 0 0-64 21 0 0-22 21 0 0-21 22 0 0-21 21 0 0-22 21 0 0-21 22 0 0-21 64 0 0 21 42 0 0-21 22 0z"/>
<glyph glyph-name="delete-bookmark" unicode="&#39;" d="M384 299l0-171-21 0 0 21-22 0 0 22-21 0 0 21-21 0 0 21-86 0 0-21-21 0 0-21-21 0 0-22-22 0 0-21-21 0 0 256 21 0 0 21 128 0 0 43-170 0 0-21-22 0 0-363 86 0 0 21 21 0 0 22 21 0 0 21 22 0 0 21 42 0 0-21 22 0 0-21 21 0 0-22 21 0 0-21 86 0 0 235z m85 128l-128 0 0-43 128 0z"/>
<glyph glyph-name="delete-document" unicode="&#40;" d="M320 235l-128 0 0-43 128 0z m85 128l0 21-21 0 0 21-21 0 0 22-22 0 0 21-21 0 0 21-213 0 0-21-22 0 0-384 22 0 0-21 298 0 0 21 22 0 0 299z m-21-256l-21 0 0-22-214 0 0 22-21 0 0 298 21 0 0 22 107 0 0-128 128 0z m-43 256l0-22-42 0 0 43 21 0 0-21z"/>
<glyph glyph-name="delete-folder" unicode="&#41;" d="M320 256l-128 0 0-43 128 0z m128 128l0 21-213 0 0 22-22 0 0 21-149 0 0-21-21 0 0-342 21 0 0-21 384 0 0 21 21 0 0 299z m-21-256l-22 0 0-21-298 0 0 21-22 0 0 256 22 0 0 21 64 0 0-21 21 0 0-21 213 0 0-22 22 0z"/>
<glyph glyph-name="flag" unicode="&#42;" d="M363 448l0-21-43 0 0 21-64 0 0 21-128 0 0-21-64 0 0-405 43 0 0 106 64 0 0 22 42 0 0-22 64 0 0-21 128 0 0 21 43 0 0 299z m42-256l-42 0 0-21-43 0 0 21-64 0 0 21-128 0 0-21-21 0 0 213 64 0 0 22 42 0 0-22 64 0 0-21 128 0z"/>
<glyph glyph-name="folder" unicode="&#43;" d="M448 384l0 21-213 0 0 22-22 0 0 21-149 0 0-21-21 0 0-342 21 0 0-21 384 0 0 21 21 0 0 299z m-21-256l-22 0 0-21-298 0 0 21-22 0 0 256 22 0 0 21 64 0 0-21 21 0 0-21 213 0 0-22 22 0z"/>
<glyph glyph-name="geotag" unicode="&#44;" d="M299 363l-86 0 0-22-21 0 0-85 21 0 0-21 86 0 0 21 21 0 0 85-21 0z m-22-86l-42 0 0 43 42 0z m128 150l0 21-21 0 0 21-256 0 0-21-21 0 0-21-22 0 0-235 22 0 0-21 21 0 0-22 21 0 0-21 22 0 0-21 21 0 0-22 21 0 0-21 22 0 0-21 42 0 0 21 22 0 0 21 21 0 0 22 21 0 0 21 22 0 0 21 21 0 0 22 21 0 0 21 22 0 0 235z m-21-214l-21 0 0-21-22 0 0-21-21 0 0-22-21 0 0-21-22 0 0-21-42 0 0 21-22 0 0 21-21 0 0 22-21 0 0 21-22 0 0 21-21 0 0 171 21 0 0 21 22 0 0 22 170 0 0-22 22 0 0-21 21 0z"/>
<glyph glyph-name="kebab-menu-vertical" unicode="&#45;" d="M277 171l-42 0 0-22-22 0 0-42 22 0 0-22 42 0 0 22 22 0 0 42-22 0z m0 128l-42 0 0-22-22 0 0-42 22 0 0-22 42 0 0 22 22 0 0 42-22 0z m0 106l0 22-42 0 0-22-22 0 0-42 22 0 0-22 42 0 0 22 22 0 0 42z"/>
<glyph glyph-name="left-arrow" unicode="&#46;" d="M256 149l-21 0 0 43-43 0 0 43 256 0 0 42-256 0 0 43 43 0 0 43 21 0 0 42-64 0 0-42-43 0 0-43-42 0 0-21-22 0 0-22-21 0 0-42 21 0 0-22 22 0 0-21 42 0 0-43 43 0 0-42 64 0z"/>
<glyph glyph-name="levels-1" unicode="&#47;" d="M277 427l-42 0 0-342 42 0z m107-128l-43 0 0-214 43 0z m-213-86l-43 0 0-128 43 0z"/>
<glyph glyph-name="outgoing-call" unicode="&#58;" d="M448 213l0 22-128 0 0 21-21 0 0 21-22 0 0 22-21 0 0 21-21 0 0 128-22 0 0 21-128 0 0-21-21 0 0-21-21 0 0-150 21 0 0-21 21 0 0-21 22 0 0-22 21 0 0-21 21 0 0-21 22 0 0-22 21 0 0-21 21 0 0-21 22 0 0-22 21 0 0-21 21 0 0-21 150 0 0 21 21 0 0 21 21 0 0 128z m-21-85l-22 0 0-21-21 0 0-22-64 0 0 22-21 0 0 21-22 0 0 21-21 0 0 22-21 0 0 21-22 0 0 21-21 0 0 22-21 0 0 21-22 0 0 21-21 0 0 22-21 0 0 21-22 0 0 64 22 0 0 21 21 0 0 22 43 0 0-22 21 0 0-42-21 0 0-64 21 0 0-22 21 0 0-21 22 0 0-21 21 0 0-22 21 0 0-21 22 0 0-21 64 0 0 21 42 0 0-21 22 0z m21 277l0 22-21 0 0 21-22 0 0 21-42 0 0-42 21 0 0-22-64 0 0-42 64 0 0-22-21 0 0-42 42 0 0 21 22 0 0 21 21 0 0 22 21 0 0 42z"/>
<glyph glyph-name="paste-document" unicode="&#59;" d="M64 469l0-21-21 0 0-341 21 0 0-22 64 0 0 43-21 0 0 21-22 0 0 256 22 0 0 22 42 0 0 42z m384-149l0 21-21 0 0 22-22 0 0 21-21 0 0 21-21 0 0 22-171 0 0-22-21 0 0-341 21 0 0-21 256 0 0 21 21 0 0 256z m-21-213l-22 0 0-22-170 0 0 22-22 0 0 256 22 0 0 21 64 0 0-128 128 0z m-43 213l0-21-43 0 0 42 22 0 0-21z"/>
<glyph glyph-name="paste-folder" unicode="&#60;" d="M171 427l0-22 21 0 0-21 149 0 0-21 22 0 0-22 42 0 0 64-21 0 0 22-149 0 0 21-22 0 0 21-149 0 0-21-21 0 0-256 42 0 0 213 22 0 0 22z m277-150l0 22-128 0 0 21-21 0 0 21-150 0 0-21-21 0 0-256 21 0 0-21 299 0 0 21 21 0 0 213z m-21-170l-22 0 0-22-213 0 0 22-21 0 0 170 21 0 0 22 64 0 0-22 21 0 0-21 128 0 0-21 22 0z"/>
<glyph glyph-name="print" unicode="&#61;" d="M448 341l0 22-43 0 0 106-298 0 0-106-43 0 0-22-21 0 0-213 21 0 0-21 64 0 0-64 256 0 0 64 64 0 0 21 21 0 0 213z m-21-170l-22 0 0-22-21 0 0 107-256 0 0-107-21 0 0 22-22 0 0 128 22 0 0 21 298 0 0-21 22 0z m-86-86l-170 0 0 128 170 0z m-192 342l214 0 0-64-214 0z"/>
<glyph glyph-name="protection" unicode="&#62;" d="M405 384l0 21-42 0 0 22-43 0 0 21-21 0 0 21-86 0 0-21-21 0 0-21-43 0 0-22-42 0 0-21-43 0 0-192 21 0 0-21 22 0 0-22 21 0 0-21 21 0 0-21 22 0 0-22 21 0 0-21 21 0 0-21 86 0 0 21 21 0 0 21 21 0 0 22 22 0 0 21 21 0 0 21 21 0 0 22 22 0 0 21 21 0 0 192z m0-149l-21 0 0-43-21 0 0-21-22 0 0-22-21 0 0-21-21 0 0-21-86 0 0 21-21 0 0 21-21 0 0 22-22 0 0 21-21 0 0 43-21 0 0 106 42 0 0 22 43 0 0 21 43 0 0 21 42 0 0-21 43 0 0-21 43 0 0-22 42 0z"/>
<glyph glyph-name="redo" unicode="&#63;" d="M427 384l0 21-22 0 0 22-21 0 0 21-213 0 0-21-22 0 0-22-21 0 0-21-21 0 0 43-43 0 0-128 128 0 0 42-43 0 0 22 22 0 0 21 21 0 0 21 149 0 0-21 22 0 0-21 21 0 0-22 21 0 0-170-21 0 0-22-21 0 0-21-22 0 0-21-149 0 0 21-21 0 0 21-22 0 0 22-21 0 0 21-43 0 0-64 22 0 0-21 21 0 0-22 21 0 0-21 235 0 0 21 21 0 0 22 22 0 0 21 21 0 0 256z"/>
<glyph glyph-name="up-arrow" unicode="&#64;" d="M149 256l0 21 43 0 0 43 43 0 0-256 42 0 0 256 43 0 0-43 43 0 0-21 42 0 0 64-42 0 0 43-43 0 0 42-21 0 0 22-22 0 0 21-42 0 0-21-22 0 0-22-21 0 0-42-43 0 0-43-42 0 0-64z"/>
<glyph glyph-name="up-left-arrow" unicode="&#91;" d="M405 149l-21 0 0 22-21 0 0 21-22 0 0 21-21 0 0 22-21 0 0 21-22 0 0 21-21 0 0 22-21 0 0 21-22 0 0 21-21 0 0 22 128 0 0 42-213 0 0-213 42 0 0 128 22 0 0-21 21 0 0-22 21 0 0-21 22 0 0-21 21 0 0-22 21 0 0-21 22 0 0-21 21 0 0-22 21 0 0-21 22 0 0-21 42 0z"/>
<glyph glyph-name="up-right-arrow" unicode="&#93;" d="M149 107l0 21 22 0 0 21 21 0 0 22 21 0 0 21 22 0 0 21 21 0 0 22 21 0 0 21 22 0 0 21 21 0 0 22 21 0 0 21 22 0 0-128 42 0 0 213-213 0 0-42 128 0 0-22-21 0 0-21-22 0 0-21-21 0 0-22-21 0 0-21-22 0 0-21-21 0 0-22-21 0 0-21-22 0 0-21-21 0 0-22-21 0 0-42z"/>
<glyph glyph-name="bubble" unicode="&#94;" d="M448 405l0 22-21 0 0 21-22 0 0 21-298 0 0-21-22 0 0-21-21 0 0-22-21 0 0-213 21 0 0-21 21 0 0-22 22 0 0-21 21 0 0-85 85 0 0 21 22 0 0 21 21 0 0 22 21 0 0 21 128 0 0 21 22 0 0 22 21 0 0 21 21 0 0 213z m-21-170l-22 0 0-22-21 0 0-21-21 0 0-21-107 0 0-22-21 0 0-21-22 0 0-21-21 0 0-22-21 0 0 86-22 0 0 21-21 0 0 21-21 0 0 22-22 0 0 128 22 0 0 21 21 0 0 21 21 0 0 22 214 0 0-22 21 0 0-21 21 0 0-21 22 0z"/>
<glyph glyph-name="calendar" unicode="&#95;" d="M192 277l-43 0 0-42 43 0z m85 0l-42 0 0-42 42 0z m86 0l-43 0 0-42 43 0z m-171-85l-43 0 0-43 43 0z m85 0l-42 0 0-43 42 0z m86 0l-43 0 0-43 43 0z m85 213l0 22-85 0 0 21-43 0 0-21-128 0 0 21-43 0 0-21-85 0 0-22-21 0 0-341 21 0 0-21 384 0 0 21 21 0 0 341z m-21-298l-22 0 0-22-298 0 0 22-22 0 0 256 22 0 0 21 42 0 0-43 43 0 0 43 128 0 0-43 43 0 0 43 42 0 0-21 22 0z"/>
<glyph glyph-name="create-folder" unicode="&#96;" d="M277 256l0 43-42 0 0-43-43 0 0-43 43 0 0-42 42 0 0 42 43 0 0 43z m171 128l0 21-213 0 0 22-22 0 0 21-149 0 0-21-21 0 0-342 21 0 0-21 384 0 0 21 21 0 0 299z m-21-256l-22 0 0-21-298 0 0 21-22 0 0 256 22 0 0 21 64 0 0-21 21 0 0-21 213 0 0-22 22 0z"/>
<glyph glyph-name="delete" unicode="&#123;" d="M341 277l-170 0 0-42 170 0z m107 150l0 21-21 0 0 21-342 0 0-21-21 0 0-21-21 0 0-342 21 0 0-21 21 0 0-21 342 0 0 21 21 0 0 21 21 0 0 342z m-21-299l-22 0 0-21-21 0 0-22-256 0 0 22-21 0 0 21-22 0 0 256 22 0 0 21 21 0 0 22 256 0 0-22 21 0 0-21 22 0z"/>
<glyph glyph-name="equalizer" unicode="&#124;" d="M277 469l-42 0 0-64 42 0z m-149 0l-43 0 0-149 43 0z m149-128l0 22-42 0 0-22-43 0 0-42 43 0 0-22 42 0 0 22 43 0 0 42z m-149-85l0 21-43 0 0-21-42 0 0-43 42 0 0-21 43 0 0 21 43 0 0 43z m149-21l-42 0 0-192 42 0z m-149-86l-43 0 0-106 43 0z m299-42l-43 0 0-64 43 0z m0 362l-43 0 0-192 43 0z m0-256l0 22-43 0 0-22-43 0 0-42 43 0 0-22 43 0 0 22 42 0 0 42z"/>
<glyph glyph-name="favorites" unicode="&#125;" d="M341 320l0 21-21 0 0 43-21 0 0 43-22 0 0 42-42 0 0-42-22 0 0-43-21 0 0-43-21 0 0-21-128 0 0-43 21 0 0-21 21 0 0-21 22 0 0-22 21 0 0-85-21 0 0-43-22 0 0-42 64 0 0 21 43 0 0 21 21 0 0 22 86 0 0-22 21 0 0-21 43 0 0-21 64 0 0 42-22 0 0 43-21 0 0 85 21 0 0 22 22 0 0 21 21 0 0 21 21 0 0 43z m0-64l0-21-21 0 0-43 21 0 0-43-42 0 0 22-86 0 0-22-42 0 0 43 21 0 0 43-21 0 0 21-22 0 0 21 64 0 0 22 22 0 0 42 42 0 0-42 22 0 0-22 64 0 0-21z"/>
<glyph glyph-name="justify" unicode="&#126;" d="M448 405l-384 0 0-42 384 0z m0-85l-384 0 0-43 384 0z m0-85l-384 0 0-43 384 0z m0-86l-384 0 0-42 384 0z"/>
<glyph glyph-name="kebab-menu-horizontal" unicode="&#92;" d="M149 299l-42 0 0-22-22 0 0-42 22 0 0-22 42 0 0 22 22 0 0 42-22 0z m128 0l-42 0 0-22-22 0 0-42 22 0 0-22 42 0 0 22 22 0 0 42-22 0z m128-22l0 22-42 0 0-22-22 0 0-42 22 0 0-22 42 0 0 22 22 0 0 42z"/>
<glyph glyph-name="next" unicode="&#57344;" d="M213 448l-128 0 0-384 128 0 0 43 43 0 0 42 43 0 0 43 42 0 0 21 22 0 0 86-22 0 0 21-42 0 0 43-43 0 0 42-43 0z m43-213l0-43-43 0 0-43-42 0 0-42-43 0 0 298 43 0 0-42 42 0 0-43 43 0 0-43 43 0 0-42z m171 213l-43 0 0-384 43 0z"/>
<glyph glyph-name="opened" unicode="&#57345;" d="M277 235l-42 0 0-86 42 0z m171 85l0 21-256 0 0 64 21 0 0 22 64 0 0 42-106 0 0-21-22 0 0-107-85 0 0-21-21 0 0-256 21 0 0-21 384 0 0 21 21 0 0 256z m-21-213l-22 0 0-22-298 0 0 22-22 0 0 170 22 0 0 22 298 0 0-22 22 0z"/>
<glyph glyph-name="pointer-left" unicode="&#57346;" d="M341 469l0-21-42 0 0-43-43 0 0-42-43 0 0-43-42 0 0-21-22 0 0-22-21 0 0-42 21 0 0-22 22 0 0-21 42 0 0-43 43 0 0-42 43 0 0-43 42 0 0-21 43 0 0 64-43 0 0 42-42 0 0 43-43 0 0 43-43 0 0 42 43 0 0 43 43 0 0 43 42 0 0 42 43 0 0 64z"/>
<glyph glyph-name="pointer-right" unicode="&#57347;" d="M363 277l0 22-22 0 0 21-42 0 0 43-43 0 0 42-43 0 0 43-42 0 0 21-43 0 0-64 43 0 0-42 42 0 0-43 43 0 0-43 43 0 0-42-43 0 0-43-43 0 0-43-42 0 0-42-43 0 0-64 43 0 0 21 42 0 0 43 43 0 0 42 43 0 0 43 42 0 0 21 22 0 0 22 21 0 0 42z"/>
<glyph glyph-name="text" unicode="&#57348;" d="M64 448l0-85 43 0 0 42 128 0 0-298-43 0 0-43 128 0 0 43-43 0 0 298 128 0 0-42 43 0 0 85z"/>
<glyph glyph-name="underlined" unicode="&#57349;" d="M405 107l-298 0 0-43 298 0z m-42 341l0-213-22 0 0-22-21 0 0-21-128 0 0 21-21 0 0 22-22 0 0 213-42 0 0-256 21 0 0-21 21 0 0-22 214 0 0 22 21 0 0 21 21 0 0 256z"/>
</font>
</defs>
</svg>
