<svg width="24" height="24" viewBox="0 0 24 24" fill="none" xmlns="http://www.w3.org/2000/svg">
<path d="M5 8C6.38324 5.60879 9.03887 4 12 4C15.7277 4 18.8599 6.54955 19.748 10M5 8V4M5 8H9M6 17.2916C4.75527 15.8814 4 14.0289 4 12M9 14H11.5C12.3284 14 13 14.6716 13 15.5C13 16.3284 12.3284 17 11.5 17H10.5C9.67157 17 9 17.6716 9 18.5C9 19.3284 9.67157 20 10.5 20H13M16 14V15C16 16.1046 16.8954 17 18 17H20M20 17V14M20 17V20" stroke="#1F2937" stroke-width="2" stroke-linecap="round" stroke-linejoin="round"/>
<circle opacity="0.25" cx="12" cy="12" r="8" fill="#1F2937"/>
</svg>
