<svg width="24" height="24" viewBox="0 0 24 24" fill="none" xmlns="http://www.w3.org/2000/svg">
<path d="M8 16L9 14M9 14L12 8L15 14M9 14H15M15 14L15.5 15M20 12V6C20 4.89543 19.1046 4 18 4H6C4.89543 4 4 4.89543 4 6V18C4 19.1046 4.89543 20 6 20H12M19 16V19M19 19V22M19 19H22M19 19H16" stroke="#1F2937" stroke-width="2" stroke-linecap="round" stroke-linejoin="round"/>
<path opacity="0.25" d="M6 4H18C19.1046 4 20 4.89543 20 6V13.1707C19.6872 13.0602 19.3506 13 19 13C17.3431 13 16 14.3431 16 16C14.3431 16 13 17.3431 13 19C13 19.3506 13.0602 19.6872 13.1707 20H6C4.89543 20 4 19.1046 4 18V6C4 4.89543 4.89543 4 6 4Z" fill="#1F2937"/>
</svg>
