<svg width="24" height="24" viewBox="0 0 24 24" fill="none" xmlns="http://www.w3.org/2000/svg">
<path opacity="0.25" fill-rule="evenodd" clip-rule="evenodd" d="M14.3721 9.4346C14.1772 9.29427 13.9304 9.1806 13.6598 9.10319C13.3865 9.02505 13.1451 9 13 9C11.3431 9 10 7.65685 10 6C10 5.01987 10.47 4.14952 11.197 3.60206V3H5C3.89543 3 3 3.89543 3 5V19C3 20.1046 3.89543 21 5 21H19C20.1046 21 21 20.1046 21 19V12.8609H20.3533C19.8038 13.5548 18.9539 14 18 14C16.3431 14 15 12.6569 15 11C15 10.4389 14.889 10.1044 14.7869 9.90651C14.685 9.70898 14.5472 9.56071 14.3721 9.4346ZM18 8C19.1046 8 20 7.10457 20 6C20 4.89543 19.1046 4 18 4C16.8954 4 16 4.89543 16 6C16 7.10457 16.8954 8 18 8Z" fill="#1F2937"/>
<path d="M7 7H10M14 11H7M7 15H11M11 3H5C3.89543 3 3 3.89543 3 5V19C3 20.1046 3.89543 21 5 21H19C20.1046 21 21 20.1046 21 19V13M18 1C18 2.66667 17 6 13 6C14.6667 6 18 7 18 11C18 7 21.3333 6 23 6C19 6 18 2.66667 18 1Z" stroke="#1F2937" stroke-width="2" stroke-linecap="round" stroke-linejoin="round"/>
</svg>
