<svg width="24" height="24" viewBox="0 0 24 24" fill="none" xmlns="http://www.w3.org/2000/svg">
<path d="M8 15H5.60555C5.2107 15 4.82469 14.8831 4.49615 14.6641L2 13V17C2 18.1046 2.89543 19 4 19H6L5.42705 20.1459C5.00113 20.9977 5.62056 22 6.57295 22C6.85015 22 7.11988 21.9101 7.34164 21.7438L10.4667 19.4C10.8129 19.1404 11.2339 19 11.6667 19H13C13.6667 19 15 18.6 15 17C15 15.4 13.6667 15 13 15H10.5M8 15L6.22631 13.2263C5.77377 12.7738 6.09428 12 6.73426 12C6.90574 12 7.07157 12.0613 7.20176 12.1729L10.5 15M8 15H10.5M17 21C18 21 20 19.4 20 17M20 17H18L20 15L22 17H20ZM7 3C6 3 4 4.6 4 7M4 7H6L4 9L2 7H4ZM15.5858 3.41422L13.5858 5.41422C13.2107 5.78929 13 6.298 13 6.82843V9C13 10.1046 13.8954 11 15 11H19C20.1046 11 21 10.1046 21 9V6.82843C21 6.298 20.7893 5.78929 20.4142 5.41422L18.4142 3.41422C17.6332 2.63317 16.3668 2.63317 15.5858 3.41422Z" stroke="#1F2937" stroke-width="2" stroke-linecap="round" stroke-linejoin="round"/>
<g opacity="0.25">
<path d="M10.4667 19.3999L7.34164 21.7437C7.11988 21.91 6.85015 21.9999 6.57295 21.9999C5.62056 21.9999 5.00113 20.9977 5.42705 20.1458L6 18.9999H4C2.89543 18.9999 2 18.1045 2 16.9999V12.9999L4.49615 14.664C4.82469 14.8831 5.2107 14.9999 5.60555 14.9999H8L6.22631 13.2263C5.77377 12.7737 6.09428 11.9999 6.73426 11.9999C6.90574 11.9999 7.07157 12.0613 7.20176 12.1729L10.5 14.9999H13C13.6667 14.9999 15 15.3999 15 16.9999C15 18.5999 13.6667 18.9999 13 18.9999H11.6667C11.2339 18.9999 10.8129 19.1403 10.4667 19.3999Z" fill="#1F2937"/>
<path d="M13.5858 5.41416L15.5858 3.41416C16.3668 2.63311 17.6332 2.63311 18.4142 3.41416L20.4142 5.41416C20.7893 5.78923 21 6.29794 21 6.82837V8.99994C21 10.1045 20.1046 10.9999 19 10.9999H15C13.8954 10.9999 13 10.1045 13 8.99994V6.82837C13 6.29794 13.2107 5.78923 13.5858 5.41416Z" fill="#1F2937"/>
<path d="M18 16.9999H20H22L20 14.9999L18 16.9999Z" fill="#1F2937"/>
<path d="M6 6.99994H4H2L4 8.99994L6 6.99994Z" fill="#1F2937"/>
</g>
</svg>
