<svg width="24" height="24" viewBox="0 0 24 24" fill="none" xmlns="http://www.w3.org/2000/svg">
<path d="M14.1244 6.46409L18.3023 3.86645C19.5043 3.1191 21.0863 3.51543 21.794 4.74119C22.4673 5.90738 22.098 7.39723 20.958 8.11399L17.8778 10.0506C17.6318 10.2053 17.4653 10.4593 17.4215 10.7466L16.5987 16.1492C16.5529 16.4495 16.3732 16.7128 16.1101 16.8647L14.3413 17.8858C13.7287 18.2396 12.9525 17.8626 12.8516 17.1624L12.5049 14.7561C12.404 14.0559 11.6278 13.679 11.0151 14.0327L7.66915 15.9645C7.32272 16.1645 6.89042 16.1388 6.57011 15.8992L2.21434 12.6405C1.63949 12.2104 1.69165 11.3327 2.31338 10.9738L3.92889 10.0411C4.25692 9.85167 4.66379 9.86387 4.97988 10.0726L5.81439 10.6236C6.13048 10.8323 6.53736 10.8445 6.86538 10.6551L9.79425 8.96409M14.1244 6.46409L9.98611 4.69639C9.69665 4.57275 9.36588 4.59261 9.09329 4.74998L7.46346 5.69097C6.81967 6.06266 6.79211 6.98191 7.41247 7.3915L9.79425 8.96409M14.1244 6.46409L9.79425 8.96409M5.00002 21L19 21" stroke="#1F2937" stroke-width="2" stroke-linecap="round" stroke-linejoin="round"/>
<path opacity="0.25" d="M20.9572 8.11399L17.877 10.0506C17.631 10.2053 17.4644 10.4593 17.4206 10.7466L16.5978 16.1492C16.5521 16.4495 16.3723 16.7128 16.1092 16.8647L14.3405 17.8858C13.7278 18.2396 12.9516 17.8626 12.8507 17.1624L12.504 14.7561C12.4031 14.0559 11.6269 13.679 11.0142 14.0327L7.6683 15.9645C7.32186 16.1645 6.88956 16.1388 6.56925 15.8992L2.21349 12.6405C1.63864 12.2104 1.6908 11.3327 2.31253 10.9738L3.92804 10.0411C4.25606 9.85167 4.66294 9.86387 4.97903 10.0726L5.81354 10.6236C6.12963 10.8323 6.5365 10.8445 6.86453 10.6551L9.7934 8.96409L7.41161 7.3915C6.79125 6.98191 6.81882 6.06266 7.4626 5.69097L9.09243 4.74998C9.36502 4.59261 9.6958 4.57275 9.98525 4.69639L14.1235 6.46409L18.3014 3.86645C19.5034 3.1191 21.0854 3.51543 21.7931 4.74119C22.4664 5.90738 22.0972 7.39723 20.9572 8.11399Z" fill="#1F2937"/>
</svg>
