<svg width="24" height="24" viewBox="0 0 24 24" fill="none" xmlns="http://www.w3.org/2000/svg">
<path d="M3 20L21 20M10 15L10 6C10 4.89543 9.10457 4 8 4C6.89543 4 6 4.89543 6 6L6 15C6 16.1046 6.89543 17 8 17C9.10457 17 10 16.1046 10 15ZM18 15V10C18 8.89543 17.1046 8 16 8C14.8954 8 14 8.89543 14 10V15C14 16.1046 14.8954 17 16 17C17.1046 17 18 16.1046 18 15Z" stroke="#1F2937" stroke-width="2" stroke-linecap="round" stroke-linejoin="round"/>
<g opacity="0.25">
<path d="M8 17C6.89543 17 6 16.1046 6 15L6 6C6 4.89543 6.89543 4 8 4C9.10457 4 10 4.89543 10 6L10 15C10 16.1046 9.10457 17 8 17Z" fill="#1F2937"/>
<path d="M16 17C14.8954 17 14 16.1046 14 15V10C14 8.89543 14.8954 8 16 8C17.1046 8 18 8.89543 18 10V15C18 16.1046 17.1046 17 16 17Z" fill="#1F2937"/>
</g>
</svg>
