<svg width="24" height="24" viewBox="0 0 24 24" fill="none" xmlns="http://www.w3.org/2000/svg">
<path d="M15 8H17M15 12H16M13 16H7M21 9V6C21 4.89543 20.1046 4 19 4H5C3.89543 4 3 4.89543 3 6V18C3 19.1046 3.89543 20 5 20H13M19 13L17 17H21L19 21M7 8V12H11V8H7Z" stroke="#1F2937" stroke-width="2" stroke-linecap="round" stroke-linejoin="round"/>
<path fill-rule="evenodd" clip-rule="evenodd" d="M19 4H5C3.89543 4 3 4.89543 3 6V18C3 19.1046 3.89543 20 5 20H16.1715C16.1839 19.9649 16.1971 19.9299 16.211 19.8951C15.487 19.6977 14.8527 19.2326 14.4481 18.5779C13.9014 17.6934 13.8517 16.589 14.3167 15.659L16.3167 11.659C17.0577 10.1771 18.8597 9.57641 20.3416 10.3174C20.5857 10.4394 20.8058 10.5902 21 10.7636V6C21 4.89543 20.1046 4 19 4ZM7 8H11V12H7V8Z" fill="#1F2937" fill-opacity="0.25"/>
</svg>
