<svg width="24" height="24" viewBox="0 0 24 24" fill="none" xmlns="http://www.w3.org/2000/svg">
<path d="M9.3788 11.5L9.37172 11.4929M11.4999 9.37867L11.4928 9.3716M13.621 11.5L13.6139 11.4929M11.4999 13.6213L11.4928 13.6143M18.2174 18.2175C16.46 19.9749 13.6108 19.9749 11.8534 18.2175L4.78237 11.1465C3.02502 9.3891 3.02502 6.53986 4.78237 4.7825C6.53973 3.02514 9.38898 3.02514 11.1463 4.7825L18.2174 11.8536C19.9748 13.6109 19.9748 16.4602 18.2174 18.2175Z" stroke="#1F2937" stroke-width="2" stroke-linecap="round" stroke-linejoin="round"/>
<path opacity="0.25" d="M4.78286 11.1465C3.0255 9.3891 3.0255 6.53986 4.78286 4.7825C6.54022 3.02514 9.38947 3.02514 11.1468 4.7825L18.2179 11.8536C19.9753 13.6109 19.9753 16.4602 18.2179 18.2175C16.4605 19.9749 13.6113 19.9749 11.8539 18.2175L4.78286 11.1465Z" fill="#1F2937"/>
</svg>
