<svg width="24" height="24" viewBox="0 0 24 24" fill="none" xmlns="http://www.w3.org/2000/svg">
<path d="M18 4H20M18 4H6M18 4V11M4 4H6M6 4V8M6 14V18C6 19.1046 6.89543 20 8 20H11M6 14V11M6 14H10M6 11V8M6 11H8M6 8H10M18 18L21 15M18 18L15 15M18 18L21 21M18 18L15 21" stroke="#1F2937" stroke-width="2" stroke-linecap="round" stroke-linejoin="round"/>
<path opacity="0.25" d="M12.1706 20C12.315 19.5905 12.551 19.2062 12.8785 18.8787L13.7571 18L12.8785 17.1213C11.7069 15.9497 11.7069 14.0503 12.8785 12.8787C14.05 11.7071 15.9495 11.7071 17.1211 12.8787L17.9998 13.7574L18 4H6V18C6 19.1046 6.89543 20 8 20H12.1706Z" fill="#1F2937"/>
</svg>
