<svg width="24" height="24" viewBox="0 0 24 24" fill="none" xmlns="http://www.w3.org/2000/svg">
<path d="M12 4C10 4 6 5.2 6 10V13C6 16.2 4.66667 17 4 17H9M12 4C16.8 4 18 8 18 10V13C18 16.2 19.3333 17 20 17H15M12 4V2M9 17V18C9 19 9.6 21 12 21C14.4 21 15 19 15 18V17M9 17H15" stroke="#1F2937" stroke-width="2" stroke-linecap="round" stroke-linejoin="round"/>
<path opacity="0.25" d="M6 10C6 5.2 10 4 12 4C16.8 4 18 8 18 10V13C18 16.2 19.3333 17 20 17H15V18C15 19 14.4 21 12 21C9.6 21 9 19 9 18V17H4C4.66667 17 6 16.2 6 13V10Z" fill="#1F2937"/>
</svg>
