<svg width="24" height="24" viewBox="0 0 24 24" fill="none" xmlns="http://www.w3.org/2000/svg">
<path d="M12 22C6.47715 22 2 17.5228 2 12C2 6.47715 6.47715 2 12 2C17.5228 2 22 6.47715 22 12M14 12C14.6667 12 16 11.6 16 10C16 8.4 14.6667 8 14 8H13M14 12C14.6667 12 16 12.4 16 14C16 15.6 14.6667 16 14 16H13M14 12H10M8 8H10M10 8H13M10 8V6M10 8V12M13 8V6M13 16H10M13 16V18M10 16H8M10 16V12M10 16V18M19 16V19M19 19V22M19 19H22M19 19H16" stroke="#1F2937" stroke-width="2" stroke-linecap="round" stroke-linejoin="round"/>
<path opacity="0.25" d="M21.6571 14.6059C21.8807 13.7751 22 12.9015 22 12C22 6.47715 17.5228 2 12 2C6.47715 2 2 6.47715 2 12C2 17.5228 6.47715 22 12 22C12.9015 22 13.7751 21.8807 14.6059 21.6571C13.6511 21.1551 13 20.1536 13 19C13 17.3431 14.3431 16 16 16C16 14.3431 17.3431 13 19 13C20.1536 13 21.1551 13.6511 21.6571 14.6059Z" fill="#1F2937"/>
</svg>
