<svg width="24" height="24" viewBox="0 0 24 24" fill="none" xmlns="http://www.w3.org/2000/svg">
<path d="M14 12C14.6667 12 16 11.6 16 10C16 8.4 14.6667 8 14 8H13M14 12C14.6667 12 16 12.4 16 14C16 15.6 14.6667 16 14 16H13M14 12H10M8 8H10M10 8H13M10 8V6M10 8V12M13 8V6M13 16H10M13 16V18M10 16H8M10 16V12M10 16V18M3 12C3 16.9706 7.02944 21 12 21C15.5337 21 18.5918 18.9634 20.0645 16M3 12L5 14M3 12L1 14M21 12C21 7.02944 16.9706 3 12 3C8.46628 3 5.40822 5.03656 3.93552 8M21 12L23 10M21 12L19 10" stroke="#1F2937" stroke-width="2" stroke-linecap="round" stroke-linejoin="round"/>
<circle opacity="0.25" cx="12" cy="12" r="9" fill="#1F2937"/>
</svg>
