<svg width="24" height="24" viewBox="0 0 24 24" fill="none" xmlns="http://www.w3.org/2000/svg">
<path d="M11 3H5C3.89543 3 3 3.89543 3 5V19C3 20.1046 3.89543 21 5 21H19C20.1046 21 21 20.1046 21 19V13M15 5C15 3.89543 15.8954 3 17 3C18.1046 3 19 3.89543 19 5C20.1046 5 21 5.89543 21 7C21 8.10457 20.1046 9 19 9C18.4477 9 17.9477 8.77614 17.5858 8.41421L12.4142 13.5858C12.7761 13.9477 13 14.4477 13 15C13 16.1046 12.1046 17 11 17C9.89543 17 9 16.1046 9 15C7.89543 15 7 14.1046 7 13C7 11.8954 7.89543 11 9 11C9.55228 11 10.0523 11.2239 10.4142 11.5858L15.5858 6.41421C15.2239 6.05228 15 5.55228 15 5Z" stroke="#1F2937" stroke-width="2" stroke-linecap="round" stroke-linejoin="round"/>
<g opacity="0.25">
<path d="M5 3C3.89543 3 3 3.89543 3 5V19C3 20.1046 3.89543 21 5 21H19C20.1046 21 21 20.1046 21 19V7V5C21 3.89543 20.1046 3 19 3H17H5Z" fill="#1F2937"/>
<path d="M17 3C18.1046 3 19 3.89543 19 5C20.1046 5 21 5.89543 21 7C21 8.10457 20.1046 9 19 9C18.4477 9 17.9477 8.77614 17.5858 8.41421L12.4142 13.5858C12.7761 13.9477 13 14.4477 13 15C13 16.1046 12.1046 17 11 17C9.89543 17 9 16.1046 9 15C7.89543 15 7 14.1046 7 13C7 11.8954 7.89543 11 9 11C9.55228 11 10.0523 11.2239 10.4142 11.5858L15.5858 6.41421C15.2239 6.05228 15 5.55228 15 5C15 3.89543 15.8954 3 17 3Z" fill="#1F2937"/>
</g>
</svg>
