<svg width="24" height="24" viewBox="0 0 24 24" fill="none" xmlns="http://www.w3.org/2000/svg">
<path d="M4 18.5C4 17.837 4.26339 17.2011 4.73223 16.7322C5.20107 16.2634 5.83696 16 6.5 16H12.25M4 18.5C4 19.163 4.26339 19.7989 4.73223 20.2678C5.20107 20.7366 5.83696 21 6.5 21H12.25M4 18.5V5.5C4 4.83696 4.26339 4.20107 4.73223 3.73223C5.20107 3.26339 5.83696 3 6.5 3H20V9.5M15 7H9M19 19V14.5C19 13.6716 19.6716 13 20.5 13C21.3284 13 22 13.6716 22 14.5V19C22 20.6569 20.6569 22 19 22C17.3431 22 16 20.6569 16 19V13" stroke="#1F2937" stroke-width="2" stroke-linecap="round" stroke-linejoin="round"/>
<path opacity="0.25" d="M4 18.5C4 17.837 4.26339 17.2011 4.73223 16.7322C5.20107 16.2634 5.83696 16 6.5 16H13V13C13 11.3431 14.3431 10 16 10C16.7665 10 17.4658 10.2874 17.9961 10.7604C18.5814 10.3677 19.2639 10.1088 20 10.0275V3H6.5C5.83696 3 5.20107 3.26339 4.73223 3.73223C4.26339 4.20107 4 4.83696 4 5.5V18.5Z" fill="#1F2937"/>
</svg>
