<svg width="24" height="24" viewBox="0 0 24 24" fill="none" xmlns="http://www.w3.org/2000/svg">
<path opacity="0.25" d="M3 10C3 8.89543 3.89543 8 5 8H19C20.1046 8 21 8.89543 21 10V14.6713C20.175 13.6518 18.9136 13 17.5 13C16.0864 13 14.825 13.6518 14 14.6713V11H10V15H13.7578C13.2791 15.715 13 16.5749 13 17.5C13 18.4251 13.2791 19.285 13.7578 20H5C3.89543 20 3 19.1046 3 18V10Z" fill="#1F2937"/>
<path d="M15 8V6C15 4.89543 14.1046 4 13 4H11C9.89543 4 9 4.89543 9 6V8M15 8H19C20.1046 8 21 8.89543 21 10V10.5M15 8H9M9 8H5C3.89543 8 3 8.89543 3 10V13M3 13V18C3 19.1046 3.89543 20 5 20H10M3 13H10M10 13V11H13M10 13V14M17 16V18H19M22 17.5C22 19.9853 19.9853 22 17.5 22C15.0147 22 13 19.9853 13 17.5C13 15.0147 15.0147 13 17.5 13C19.9853 13 22 15.0147 22 17.5Z" stroke="#1F2937" stroke-width="2" stroke-linecap="round" stroke-linejoin="round"/>
</svg>
