<svg width="24" height="24" viewBox="0 0 24 24" fill="none" xmlns="http://www.w3.org/2000/svg">
<path d="M2 21H4M4 21V8.29973C4 7.50935 4.46547 6.79311 5.18772 6.47211L10.1877 4.24989C11.5103 3.66208 13 4.63019 13 6.07751V7.99998M4 21H13M13 21V7.99998M13 21H20M13 7.99998L18.7878 10.4805C19.5232 10.7956 20 11.5187 20 12.3188V21M20 21H22" stroke="#1F2937" stroke-width="2" stroke-linecap="round" stroke-linejoin="round"/>
<path opacity="0.25" d="M4 21V8.29979C4 7.50941 4.46547 6.79317 5.18772 6.47217L10.1877 4.24995C11.5103 3.66214 13 4.63025 13 6.07757V8.00005L18.7878 10.4805C19.5232 10.7957 20 11.5188 20 12.3188V21H13H4Z" fill="#1F2937"/>
</svg>
