<svg width="24" height="24" viewBox="0 0 24 24" fill="none" xmlns="http://www.w3.org/2000/svg">
<path d="M4 9V19C4 20.1046 4.89543 21 6 21H12M4 9V7C4 5.89543 4.89543 5 6 5H8M4 9H20M20 9V7C20 5.89543 19.1046 5 18 5H16M20 9V10M16 5V3M16 5H8M8 5V3M17 14H21C21.5523 14 22 14.4477 22 15V21.3964C22 21.6192 21.7307 21.7307 21.5732 21.5732L19.7071 19.7071C19.3166 19.3166 18.6834 19.3166 18.2929 19.7071L16.4268 21.5732C16.2693 21.7307 16 21.6192 16 21.3964V15C16 14.4477 16.4477 14 17 14Z" stroke="#1F2937" stroke-width="2" stroke-linecap="round" stroke-linejoin="round"/>
<path opacity="0.25" d="M4.00024 8.99994L4 19C4 20.1046 4.89543 21 6 21H13V13C13 11.8954 13.8954 11 15 11H20C20 9.89542 20 8.99994 20 8.99994H4.00024Z" fill="#1F2937"/>
</svg>
