<svg width="24" height="24" viewBox="0 0 24 24" fill="none" xmlns="http://www.w3.org/2000/svg">
<path d="M18 14H21M21 14L20 9M21 14C21.5523 14 22 14.4477 22 15V20C22 20.5523 21.5523 21 21 21H15M20 9H15M20 9L18.1782 5.3564C18.0638 5.12755 17.866 4.95127 17.6255 4.86382L13.2848 3.28537C12.8304 3.12014 12.3229 3.30366 12.0792 3.72129L9.15011 8.74267C9.05216 8.91058 8.90741 9.0463 8.73354 9.13323L4.55279 11.2236C4.214 11.393 4 11.7393 4 12.118V15M4 15H6M4 15L2.43874 19.6838C2.2229 20.3313 2.70487 21 3.38743 21H9M9 21V19C9 18 9.6 16 12 16C14.4 16 15 18 15 19V21M9 21H15" stroke="#1F2937" stroke-width="2" stroke-linecap="round" stroke-linejoin="round"/>
<path opacity="0.25" d="M22 14V21H15V19C15 18 14.4 16 12 16C9.6 16 9 18 9 19V21H2L4 15V11.5L9 9L12.5 3L18 5L20 9L21 14H22Z" fill="#1F2937"/>
</svg>
