<svg width="24" height="24" viewBox="0 0 24 24" fill="none" xmlns="http://www.w3.org/2000/svg">
<path d="M12 22C6.47715 22 2 17.5228 2 12C2 6.47715 6.47715 2 12 2C17.5228 2 22 6.47715 22 12M12 16C9.79086 16 8 14.2091 8 12C8 9.79086 9.79086 8 12 8M12 16V18M12 16C13.1046 16 14.1046 15.5523 14.8284 14.8284M12 8V6M12 8C13.1046 8 14.1046 8.44772 14.8284 9.17157M19 16V19M19 19V22M19 19H22M19 19H16" stroke="#1F2937" stroke-width="2" stroke-linecap="round" stroke-linejoin="round"/>
<path opacity="0.25" d="M21.6571 14.6059C21.8807 13.7751 22 12.9015 22 12C22 6.47715 17.5228 2 12 2C6.47715 2 2 6.47715 2 12C2 17.5228 6.47715 22 12 22C12.9015 22 13.7751 21.8807 14.6059 21.6571C13.6511 21.1551 13 20.1536 13 19C13 17.3431 14.3431 16 16 16C16 14.3431 17.3431 13 19 13C20.1536 13 21.1551 13.6511 21.6571 14.6059Z" fill="#1F2937"/>
</svg>
