<svg width="24" height="24" viewBox="0 0 24 24" fill="none" xmlns="http://www.w3.org/2000/svg">
<path d="M8 10H16M8 13H16M8 16H11M22 13C22 8.58172 17.5228 5 12 5C10.7008 5 9.4594 5.19822 8.32058 5.55891C6.52743 3.97873 5 3 2 3C3 4 4.27088 5.35003 4.80115 7.44724C3.06674 8.886 2 10.8433 2 13C2 17.4183 6.47715 21 12 21C17.5228 21 22 17.4183 22 13Z" stroke="#1F2937" stroke-width="2" stroke-linecap="round" stroke-linejoin="round"/>
<path opacity="0.25" d="M12 5C17.5228 5 22 8.58172 22 13C22 17.4183 17.5228 21 12 21C6.47715 21 2 17.4183 2 13C2 10.8433 3.06674 8.886 4.80115 7.44724C4.27088 5.35003 3 4 2 3C5 3 6.52743 3.97873 8.32058 5.55891C9.4594 5.19822 10.7008 5 12 5Z" fill="#1F2937"/>
</svg>
