<svg width="24" height="24" viewBox="0 0 24 24" fill="none" xmlns="http://www.w3.org/2000/svg">
<path d="M8 5H6C4.89543 5 4 5.89543 4 7V19C4 20.1046 4.89543 21 6 21H11M8 5C8 6.10457 8.89543 7 10 7H14C15.1046 7 16 6.10457 16 5M8 5C8 3.89543 8.89543 3 10 3H14C15.1046 3 16 3.89543 16 5M16 5H18C19.1046 5 20 5.89543 20 7V13M17 19H21M21 19L19 21M21 19L19 17M16 16H12M12 16L14 14M12 16L14 18" stroke="#1F2937" stroke-width="2" stroke-linecap="round" stroke-linejoin="round"/>
<path opacity="0.25" d="M14.7639 21C14.7401 20.9734 14.7168 20.9465 14.694 20.9191C14.4661 20.973 14.233 21 14 21C13.2322 21 12.4645 20.7071 11.8787 20.1213L9.87868 18.1213C8.70711 16.9497 8.70711 15.0503 9.87868 13.8787L11.8787 11.8787C13.0503 10.7071 14.9497 10.7071 16.1213 11.8787C16.4829 12.2402 16.7328 12.6711 16.8712 13.1285C17.439 13.3005 17.9356 13.6363 18.306 14.0809C18.8651 13.9486 19.4548 13.9785 20 14.1708V7C20 5.89543 19.1046 5 18 5H16C16 6.10457 15.1046 7 14 7H10C8.89543 7 8 6.10457 8 5H6C4.89543 5 4 5.89543 4 7V19C4 20.1046 4.89543 21 6 21H14H14.7639Z" fill="#1F2937"/>
</svg>
