<svg width="24" height="24" viewBox="0 0 24 24" fill="none" xmlns="http://www.w3.org/2000/svg">
<path d="M8 5H6C4.89543 5 4 5.89543 4 7V19C4 20.1046 4.89543 21 6 21H12M8 5C8 6.10457 8.89543 7 10 7H14C15.1046 7 16 6.10457 16 5M8 5C8 3.89543 8.89543 3 10 3H14C15.1046 3 16 3.89543 16 5M16 5H18C19.1046 5 20 5.89543 20 7V10M18 19V14.5C18 13.6716 18.6716 13 19.5 13C20.3284 13 21 13.6716 21 14.5V19C21 20.6569 19.6569 22 18 22C16.3431 22 15 20.6569 15 19V13" stroke="#1F2937" stroke-width="2" stroke-linecap="round" stroke-linejoin="round"/>
<path opacity="0.25" d="M12.3414 21C12.1203 20.3744 12 19.7013 12 19V13C12 11.3431 13.3431 10 15 10C15.7665 10 16.4658 10.2874 16.9961 10.7604C17.7119 10.2802 18.5732 10 19.5 10C19.669 10 19.8358 10.0093 20 10.0275V7C20 5.89543 19.1046 5 18 5H16C16 6.10457 15.1046 7 14 7H10C8.89543 7 8 6.10457 8 5H6C4.89543 5 4 5.89543 4 7V19C4 20.1046 4.89543 21 6 21H12.3414Z" fill="#1F2937"/>
</svg>
