<svg width="24" height="24" viewBox="0 0 24 24" fill="none" xmlns="http://www.w3.org/2000/svg">
<path d="M9 8C9 9.10457 9.89543 10 11 10H13C14.1046 10 15 9.10457 15 8M9 8C9 6.89543 9.89543 6 11 6H13C14.1046 6 15 6.89543 15 8M9 8C7.89543 8 7 8.89543 7 10V16C7 17.1046 7.89543 18 9 18H15C16.1046 18 17 17.1046 17 16V10C17 8.89543 16.1046 8 15 8M5 21H19C20.1046 21 21 20.1046 21 19V5C21 3.89543 20.1046 3 19 3H5C3.89543 3 3 3.89543 3 5V19C3 20.1046 3.89543 21 5 21Z" stroke="#1F2937" stroke-width="2" stroke-linecap="round" stroke-linejoin="round"/>
<path opacity="0.25" fill-rule="evenodd" clip-rule="evenodd" d="M5 3C3.89543 3 3 3.89543 3 5V19C3 20.1046 3.89543 21 5 21H19C20.1046 21 21 20.1046 21 19V5C21 3.89543 20.1046 3 19 3H5ZM17 16V10C17 8.89543 16.1046 8 15 8C15 6.89543 14.1046 6 13 6H11C9.89543 6 9 6.89543 9 8C7.89543 8 7 8.89543 7 10V16C7 17.1046 7.89543 18 9 18H15C16.1046 18 17 17.1046 17 16Z" fill="#1F2937"/>
</svg>
