<svg width="24" height="24" viewBox="0 0 24 24" fill="none" xmlns="http://www.w3.org/2000/svg">
<path d="M21 11V15C21 16.3869 19.412 17.6089 17 18.3265C16.6805 18.4215 16.3466 18.5077 16 18.5842C14.795 18.8504 13.4368 19 12 19C10.5632 19 9.20496 18.8504 8 18.5842C7.6534 18.5077 7.31947 18.4215 7 18.3265C4.58803 17.6089 3 16.3869 3 15V11M21 11C21 12.3869 19.412 13.6089 17 14.3265C16.6805 14.4215 16.3466 14.5077 16 14.5842C14.795 14.8504 13.4368 15 12 15C10.5632 15 9.20496 14.8504 8 14.5842C7.6534 14.5077 7.31947 14.4215 7 14.3265C4.58803 13.6089 3 12.3869 3 11M21 11C21 9.81536 19.8412 8.75098 18 8.01855M3 11C3 9.81536 4.15875 8.75098 6 8.01855M12 4V7M12 7V10M12 7H9M12 7H15" stroke="#1F2937" stroke-width="2" stroke-linecap="round" stroke-linejoin="round"/>
<path opacity="0.25" d="M5.63604 8.17157C7.2647 7.44772 9.5147 7 12 7C14.4853 7 16.7353 7.44772 18.364 8.17157C19.1783 8.5335 19.8373 8.96447 20.2927 9.44302C20.749 9.92244 21 10.4486 21 11V15C21 15.6917 20.6049 16.3441 19.9045 16.9142C19.206 17.4827 18.206 17.9676 17 18.3264C16.6805 18.4215 16.3466 18.5077 16 18.5842C14.795 18.8504 13.4368 19 12 19C10.5632 19 9.20496 18.8504 8 18.5842C7.6534 18.5077 7.31947 18.4215 7 18.3264C5.79402 17.9676 4.79402 17.4827 4.09551 16.9142C3.39514 16.3441 3 15.6917 3 15V11C3 10.4486 3.25102 9.92244 3.70726 9.44302C4.16269 8.96447 4.82169 8.5335 5.63604 8.17157Z" fill="#1F2937"/>
</svg>
