<svg width="24" height="24" viewBox="0 0 24 24" fill="none" xmlns="http://www.w3.org/2000/svg">
<path d="M3 9V17C3 18.1046 3.89543 19 5 19H11M3 9V7C3 5.89543 3.89543 5 5 5H19C20.1046 5 21 5.89543 21 7V9M3 9H21M21 9V11M7 13H12M20.8284 20.8284C21.5523 20.1046 22 19.1046 22 18C22 15.7909 20.2091 14 18 14C16.8954 14 15.8954 14.4477 15.1716 15.1716M20.8284 20.8284C20.1046 21.5523 19.1046 22 18 22C15.7909 22 14 20.2091 14 18C14 16.8954 14.4477 15.8954 15.1716 15.1716M20.8284 20.8284L15.1716 15.1716" stroke="#1F2937" stroke-width="2" stroke-linecap="round" stroke-linejoin="round"/>
<path opacity="0.25" d="M5 5C3.89543 5 3 5.89543 3 7V17C3 18.1046 3.89543 19 5 19H11.0709C11.0242 18.6734 11 18.3395 11 18C11 14.134 14.134 11 18 11C19.0736 11 20.0907 11.2417 21 11.6736V7C21 5.89543 20.1046 5 19 5H5Z" fill="#1F2937"/>
</svg>
