<svg width="24" height="24" viewBox="0 0 24 24" fill="none" xmlns="http://www.w3.org/2000/svg">
<path d="M6 21H9M9 21V17C9 16.4477 8.55228 16 8 16H6C4 16 3 14.5 3 13V10C3 9.5 3.3 8.5 4.5 8.5C5.7 8.5 6 9.5 6 10V12C6 12.5523 6.44772 13 7 13H8C8.55228 13 9 12.5523 9 12V6C9 5 9.6 3 12 3C14.4 3 15 5 15 6V9C15 9.55228 15.4477 10 16 10H17C17.5523 10 18 9.55228 18 9V7C18 6.5 18.3 5.5 19.5 5.5C20.7 5.5 21 6.5 21 7V10C21 11.5 20 13 18 13H16C15.4477 13 15 13.4477 15 14V21M9 21H15M15 21H18" stroke="#1F2937" stroke-width="2" stroke-linecap="round" stroke-linejoin="round"/>
<path opacity="0.25" d="M9 17V21H15V14C15 13.4477 15.4477 13 16 13H18C20 13 21 11.5 21 10V7C21 6.5 20.7 5.5 19.5 5.5C18.3 5.5 18 6.5 18 7V9C18 9.55228 17.5523 10 17 10H16C15.4477 10 15 9.55228 15 9V6C15 5 14.4 3 12 3C9.6 3 9 5 9 6V12C9 12.5523 8.55228 13 8 13H7C6.44772 13 6 12.5523 6 12V10C6 9.5 5.7 8.5 4.5 8.5C3.3 8.5 3 9.5 3 10V13C3 14.5 4 16 6 16H8C8.55228 16 9 16.4477 9 17Z" fill="#1F2937"/>
</svg>
