<svg width="24" height="24" viewBox="0 0 24 24" fill="none" xmlns="http://www.w3.org/2000/svg">
<path d="M8.99994 14V13C8.99994 11.8954 9.89537 11 10.9999 11H15.9999M15.9999 11L12.9999 8M15.9999 11L12.9999 14M10.5857 3.41422L3.41415 10.5858C2.63311 11.3668 2.63311 12.6332 3.41416 13.4142L10.5857 20.5858C11.3668 21.3668 12.6331 21.3668 13.4142 20.5858L20.5857 13.4142C21.3668 12.6332 21.3668 11.3668 20.5857 10.5858L13.4142 3.41422C12.6331 2.63317 11.3668 2.63317 10.5857 3.41422Z" stroke="#1F2937" stroke-width="2" stroke-linecap="round" stroke-linejoin="round"/>
<path opacity="0.25" d="M3.41391 10.5857L10.5855 3.41416C11.3665 2.63311 12.6329 2.63311 13.4139 3.41415L20.5855 10.5857C21.3665 11.3668 21.3665 12.6331 20.5855 13.4142L13.4139 20.5857C12.6329 21.3668 11.3665 21.3668 10.5855 20.5857L3.41391 13.4142C2.63286 12.6331 2.63286 11.3668 3.41391 10.5857Z" fill="#1F2937"/>
</svg>
