<svg width="24" height="24" viewBox="0 0 24 24" fill="none" xmlns="http://www.w3.org/2000/svg">
<path d="M20 9V8.82843C20 8.29799 19.7893 7.78929 19.4142 7.41421L15.5858 3.58579C15.2107 3.21071 14.702 3 14.1716 3H14M20 9H16C14.8954 9 14 8.10457 14 7V3M20 9V11M14 3H6C4.89543 3 4 3.89543 4 5V19C4 20.1046 4.89543 21 6 21H11M16 14H20C21.1046 14 22 14.8954 22 16V18C22 19.1046 21.1046 20 20 20H17L14 22V16C14 14.8954 14.8954 14 16 14Z" stroke="#1F2937" stroke-width="2" stroke-linecap="round" stroke-linejoin="round"/>
<path opacity="0.25" d="M6 3C5.66615 3 5.16633 3.10024 4.75 3.4C4.33322 3.70008 4 4.20014 4 5V19C4 19.3338 4.10024 19.8337 4.4 20.25C4.70008 20.6668 5.20014 21 6 21H11V16C11 13.2386 13.2386 11 16 11H20V9H16C14.8954 9 14 8.10457 14 7V3H6Z" fill="#1F2937"/>
</svg>
