<svg width="24" height="24" viewBox="0 0 24 24" fill="none" xmlns="http://www.w3.org/2000/svg">
<path d="M20 9V8.82843C20 8.29799 19.7893 7.78929 19.4142 7.41421L15.5858 3.58579C15.2107 3.21071 14.702 3 14.1716 3H14M20 9H16C14.8954 9 14 8.10457 14 7V3M20 9V11M14 3H6C4.89543 3 4 3.89543 4 5V19C4 20.1046 4.89543 21 6 21H9M17 16H21M21 16L19 14M21 16L19 18M16 19H12M12 19L14 21M12 19L14 17" stroke="#1F2937" stroke-width="2" stroke-linecap="round" stroke-linejoin="round"/>
<g opacity="0.25">
<path d="M6 3C5.66615 3 5.16633 3.10024 4.75 3.4C4.33322 3.70008 4 4.20014 4 5V19C4 19.3338 4.10024 19.8337 4.4 20.25C4.70008 20.6668 5.20014 21 6 21H9.76382C8.70845 19.8221 8.74673 18.0106 9.87868 16.8787L11.8787 14.8787C12.6423 14.1151 13.715 13.8492 14.694 14.0809C15.0644 13.6363 15.561 13.3005 16.1288 13.1285C16.2672 12.6711 16.5171 12.2402 16.8787 11.8787C17.7228 11.0346 18.9447 10.7987 20 11.1708V9H16C14.8954 9 14 8.10457 14 7V3H6Z" fill="#1F2937"/>
<path d="M18.4482 20.9491C18.4006 20.9402 18.3532 20.9302 18.306 20.9191C18.288 20.9407 18.2696 20.9621 18.251 20.9832C18.3143 20.9751 18.3804 20.9639 18.4482 20.9491Z" fill="#1F2937"/>
</g>
</svg>
