<svg width="24" height="24" viewBox="0 0 24 24" fill="none" xmlns="http://www.w3.org/2000/svg">
<path d="M7 12H3V21H7V19M7 12H9L14.1818 14.2208C15.2848 14.6935 16 15.7781 16 16.9782V17M7 12V19M16 17H13L10.5 16M16 17H19C19.6667 17 21 17.4 21 19L14 21L7 19M7 7L10.971 9.3826C11.6044 9.76262 12.3956 9.76262 13.029 9.38261L17 7M21 14V5C21 3.89543 20.1046 3 19 3L5 3C3.89543 3 3 3.89543 3 5L3 8" stroke="#1F2937" stroke-width="2" stroke-linecap="round" stroke-linejoin="round"/>
<path opacity="0.25" d="M3 9.02469V5C3 3.89543 3.89543 3 5 3H19C20.1046 3 21 3.89543 21 5V14.1C20.6769 14.0344 20.3425 14 20 14H18.0276C17.5102 12.8305 16.5629 11.9012 15.3782 11.4076L10.5231 9.38462C9.91373 9.13072 9.26013 9 8.6 9H3.5C3.33125 9 3.16445 9.00836 3 9.02469Z" fill="#1F2937"/>
</svg>
