<svg width="24" height="24" viewBox="0 0 24 24" fill="none" xmlns="http://www.w3.org/2000/svg">
<path d="M16 21H16.01M12 21H12.01M8 21H8.01M21 8V15C21 16.1046 20.1046 17 19 17H5C3.89543 17 3 16.1046 3 15V5C3 3.89543 3.89543 3 5 3H8.92963C9.59834 3 10.2228 3.3342 10.5937 3.8906L11.4063 5.1094C11.7772 5.6658 12.4017 6 13.0704 6H19C20.1046 6 21 6.89543 21 8Z" stroke="#1F2937" stroke-width="2" stroke-linecap="round" stroke-linejoin="round"/>
<path opacity="0.25" fill-rule="evenodd" clip-rule="evenodd" d="M5 3C3.89543 3 3 3.89543 3 5V15C3 16.1046 3.89543 17 5 17H19C20.1046 17 21 16.1046 21 15V8C21 6.89543 20.1046 6 19 6H13.0704C12.4017 6 11.7772 5.6658 11.4063 5.1094L10.5937 3.8906C10.2228 3.3342 9.59834 3 8.92963 3H5Z" fill="#1F2937"/>
</svg>
