<svg width="24" height="24" viewBox="0 0 24 24" fill="none" xmlns="http://www.w3.org/2000/svg">
<path d="M12 21C11.662 21 11.3283 20.9814 11 20.9451M11 20.9451C6.50005 20.4476 3 16.6326 3 12M11 20.9451V18C11 16.8954 10.1046 16 9 16C7.89543 16 7 15.1046 7 14C7 12.8954 6.10457 12 5 12H3M3 12C3 8.46628 5.03656 5.40822 8 3.93552M8 3.93552C9.20496 3.33671 10.5632 3 12 3C16.9706 3 21 7.02944 21 12M8 3.93552V6C8 7.10457 8.89543 8 10 8H11C12.1046 8 13 8.89543 13 10C13 11.1046 13.8954 12 15 12C16.1046 12 17 11.1046 17 10C17 8.89543 17.8954 8 19 8H20.0645M15 18H18M18 18H21M18 18V15M18 18V21" stroke="#1F2937" stroke-width="2" stroke-linecap="round" stroke-linejoin="round"/>
<path opacity="0.25" d="M13.9118 20.7966C12.7929 20.3609 12 19.273 12 18C12 16.3431 13.3431 15 15 15C15 13.3431 16.3431 12 18 12C19.273 12 20.3608 12.7929 20.7965 13.9118C20.9298 13.2957 21 12.656 21 12C21 10.5632 20.6633 9.20499 20.0645 8.00003H19C17.8954 8.00003 17 8.89546 17 10C17 11.1046 16.1046 12 15 12C13.8954 12 13 11.1046 13 10C13 8.89546 12.1046 8.00003 11 8.00003H10C8.89543 8.00003 8 7.1046 8 6.00003V3.93555C5.03656 5.40825 3 8.46631 3 12H5C6.10457 12 7 12.8955 7 14C7 15.1046 7.89543 16 9 16C10.1046 16 11 16.8955 11 18V20.9451C11.3283 20.9814 11.662 21 12 21C12.656 21 13.2957 20.9298 13.9118 20.7966Z" fill="#1F2937"/>
</svg>
