<svg width="24" height="24" viewBox="0 0 24 24" fill="none" xmlns="http://www.w3.org/2000/svg">
<path d="M10.7988 21H18.7988C19.9034 21 20.7988 20.1046 20.7988 19V5C20.7988 3.89543 19.9034 3 18.7988 3H4.79883C3.69426 3 2.79883 3.89543 2.79883 5V13M10.8997 13.3639L14.4352 16.8995L17.2637 14.071L10.1926 6.99998L7.36418 9.82841L10.8997 13.3639ZM10.8997 13.3639L3.53575 20.7279" stroke="#1F2937" stroke-width="2" stroke-linecap="round" stroke-linejoin="round"/>
<path opacity="0.25" fill-rule="evenodd" clip-rule="evenodd" d="M5.25 3C4.00736 3 3 4.00736 3 5.25V18.75C3 19.9926 4.00736 21 5.25 21H18.75C19.9926 21 21 19.9926 21 18.75V5.25C21 4.00736 19.9926 3 18.75 3H5.25ZM17.2628 14.0711L10.1917 7L7.36328 9.82843L14.4343 16.8995L17.2628 14.0711Z" fill="#1F2937"/>
</svg>
