<svg width="24" height="24" viewBox="0 0 24 24" fill="none" xmlns="http://www.w3.org/2000/svg">
<path d="M15.0022 22.0047V18.0037M15.0022 18.0037H17.0778C18.141 18.0037 19.0029 17.1418 19.0029 16.0786V15.5483C19.0029 15.0572 19.3102 14.6185 19.7717 14.4507C20.4278 14.2121 20.7294 13.4551 20.4173 12.8307L19.2141 10.4241C19.0752 10.1464 19.0049 9.83983 18.9971 9.52945C18.8895 5.25822 17.2541 2 11.0015 2C4.52028 2 3 7.27396 3 10.0019C3 11.7181 3.95616 14.6571 6.11683 16.5272C6.63567 16.9763 7.00073 17.6006 7.00073 18.2868V22.0047M15.0022 18.0037H14.002M18.0033 10.0019C18.0033 11.1064 17.1077 12.0019 16.0029 12.0019C14.8982 12.0019 14.0026 11.1064 14.0026 10.0019M18.0033 10.0019C18.0033 8.8973 17.1077 8.00187 16.0029 8.00187C14.8982 8.00187 14.0026 8.8973 14.0026 10.0019M18.0033 10.0019H19.0035M14.0026 10.0019L8.14268 9.1649C7.54025 9.07885 7.00128 9.54631 7.00128 10.1549V11.0019" stroke="#1F2937" stroke-width="2" stroke-linecap="round" stroke-linejoin="round"/>
<path opacity="0.25" fill-rule="evenodd" clip-rule="evenodd" d="M15.0023 22.0047V18.0037H17.078C18.1412 18.0037 19.0031 17.1418 19.0031 16.0786V15.5483C19.0031 15.0572 19.3103 14.6185 19.7719 14.4507C20.428 14.2121 20.7296 13.4551 20.4174 12.8307L19.2142 10.4242C19.0754 10.1464 19.0051 9.83983 18.9973 9.52945C18.8897 5.25822 17.2542 2 11.0015 2C4.52029 2 3 7.27396 3 10.0019C3 11.7181 3.95617 14.6571 6.11686 16.5272C6.63571 16.9763 7.00077 17.6006 7.00077 18.2868V22.0047H15.0023ZM16 12C17.1046 12 18 11.1046 18 10C18 8.89543 17.1046 8 16 8C14.8954 8 14 8.89543 14 10C14 11.1046 14.8954 12 16 12Z" fill="#1F2937"/>
</svg>
