<svg width="24" height="24" viewBox="0 0 24 24" fill="none" xmlns="http://www.w3.org/2000/svg">
<path d="M3 16V10M3 16V19C3 20.1046 3.89543 21 5 21H19C20.1046 21 21 20.1046 21 19V16M3 16H8M3 10L5.4805 4.21216C5.79566 3.47679 6.51874 3 7.31879 3H16.6812C17.4813 3 18.2043 3.47679 18.5195 4.21216L21 10M3 10H6.92963C7.59834 10 8.2228 10.3342 8.59373 10.8906L9.40627 12.1094C9.7772 12.6658 10.4017 13 11.0704 13H12.9296C13.5983 13 14.2228 12.6658 14.5937 12.1094L15.4063 10.8906C15.7772 10.3342 16.4017 10 17.0704 10H21M21 10V16M21 16H16M8 16L9.41421 17.4142C9.78929 17.7893 10.298 18 10.8284 18H13.1716C13.702 18 14.2107 17.7893 14.5858 17.4142L16 16M8 16H16" stroke="#1F2937" stroke-width="2" stroke-linecap="round" stroke-linejoin="round"/>
<path opacity="0.25" d="M3 19V12L5.54415 4.36754C5.81638 3.55086 6.58066 3 7.44152 3H16.5585C17.4193 3 18.1836 3.55086 18.4558 4.36754L21 12V19C21 20.1046 20.1046 21 19 21H5C3.89543 21 3 20.1046 3 19Z" fill="#1F2937"/>
</svg>
