<svg width="24" height="24" viewBox="0 0 24 24" fill="none" xmlns="http://www.w3.org/2000/svg">
<path d="M11.166 16.0208C10.3849 16.8019 9.11857 16.8019 8.33753 16.0208C7.55648 15.2398 7.55648 13.9734 8.33753 13.1924C9.11857 12.4114 10.3849 12.4114 11.166 13.1924C11.947 13.9734 11.947 15.2398 11.166 16.0208Z" stroke="#1F2937" stroke-width="2" stroke-linecap="round" stroke-linejoin="round"/>
<path d="M5.50849 18.8492C3.87469 17.2154 3.8138 15.1884 4.1901 13.5253C4.69363 11.2999 6.40621 9.62947 8.17213 8.18462L13.2867 4L12.226 8.59619L19.6506 4.70711L15.408 11.7782L20.3577 11.0711L16.1731 16.1856C14.7283 17.9515 13.0579 19.6641 10.8324 20.1676C9.16932 20.5439 7.1423 20.483 5.50849 18.8492Z" stroke="#1F2937" stroke-width="2" stroke-linecap="round" stroke-linejoin="round"/>
<path opacity="0.25" fill-rule="evenodd" clip-rule="evenodd" d="M4.1901 13.5253C3.8138 15.1884 3.87469 17.2154 5.50849 18.8492C7.1423 20.483 9.16932 20.5439 10.8324 20.1676C13.0579 19.6641 14.7283 17.9515 16.1731 16.1856L20.3577 11.0711L15.408 11.7782L19.6506 4.70711L12.226 8.59619L13.2867 4L8.17213 8.18462C6.40621 9.62947 4.69363 11.2999 4.1901 13.5253ZM8.3375 16.0208C9.11854 16.8018 10.3849 16.8018 11.1659 16.0208C11.947 15.2397 11.947 13.9734 11.1659 13.1924C10.3849 12.4113 9.11854 12.4113 8.3375 13.1924C7.55645 13.9734 7.55645 15.2397 8.3375 16.0208Z" fill="#1F2937"/>
</svg>
