<svg width="24" height="24" viewBox="0 0 24 24" fill="none" xmlns="http://www.w3.org/2000/svg">
<path d="M21 15V5C21 3.89543 20.1046 3 19 3H14M21 15V15.1716C21 15.702 20.7893 16.2107 20.4142 16.5858L16.5858 20.4142C16.2107 20.7893 15.702 21 15.1716 21H15M21 15H17C15.8954 15 15 15.8954 15 17V21M15 21H5C3.89543 21 3 20.1046 3 19V13M5.75 10C4.83333 10 3 9.45 3 7.25C3 5.05 4.83333 4.5 5.75 4.5C6 4 6.85 3 8.25 3C10 3 10.75 4.75 10.75 5.5C11.5 5.5 13 5.95 13 7.75C13 9.55 11.5 10 10.75 10H5.75Z" stroke="#1F2937" stroke-width="2" stroke-linecap="round" stroke-linejoin="round"/>
<path opacity="0.25" d="M3 12.3266C3.9865 12.835 4.99803 13 5.75 13H10.75C11.6041 13 12.8203 12.7686 13.9092 11.9846C15.1502 11.0911 16 9.62801 16 7.75C16 5.87199 15.1502 4.40894 13.9092 3.5154C13.6451 3.32525 13.3745 3.16852 13.1055 3.04003C13.0985 3.02668 13.0916 3.01333 13.0845 3H19C20.1046 3 21 3.89543 21 5V15H17C15.8954 15 15 15.8954 15 17V21H5C3.89543 21 3 20.1046 3 19V12.3266Z" fill="#1F2937"/>
</svg>
