<svg width="24" height="24" viewBox="0 0 24 24" fill="none" xmlns="http://www.w3.org/2000/svg">
<path d="M21 15V5C21 3.89543 20.1046 3 19 3H14M21 15V15.1716C21 15.702 20.7893 16.2107 20.4142 16.5858L16.5858 20.4142C16.2107 20.7893 15.702 21 15.1716 21H15M21 15H17C15.8954 15 15 15.8954 15 17V21M15 21H5C3.89543 21 3 20.1046 3 19V11M5 3L3 5L5 7M9 3L11 5L9 7" stroke="#1F2937" stroke-width="2" stroke-linecap="round" stroke-linejoin="round"/>
<path opacity="0.25" d="M3 9.23618C4.13668 10.2546 5.86332 10.2546 7 9.23618C8.17791 10.2916 9.98938 10.2533 11.1213 9.12132L13.1213 7.12132C14.2533 5.98937 14.2916 4.17791 13.2362 3H19C20.1046 3 21 3.89543 21 5V15H17C15.8954 15 15 15.8954 15 17V21H5C3.89543 21 3 20.1046 3 19V9.23618Z" fill="#1F2937"/>
</svg>
