<svg width="24" height="24" viewBox="0 0 24 24" fill="none" xmlns="http://www.w3.org/2000/svg">
<path d="M12.625 16.1718C13.8315 16.6906 15.2765 17 17 17V14.5L14.5 13.875L12.625 16.1718ZM12.625 16.1718C10.2243 15.1394 8.76495 13.2779 7.9375 11.375M7.9375 11.375C7.25047 9.79499 7 8.18637 7 7H9.5L10.125 9.5L7.9375 11.375ZM12 3H5C3.89543 3 3 3.89543 3 5V19C3 20.1046 3.89543 21 5 21H19C20.1046 21 21 20.1046 21 19V12M16 3L18.5 5.5M18.5 5.5L21 8M18.5 5.5L21 3M18.5 5.5L16 8" stroke="#1F2937" stroke-width="2" stroke-linecap="round" stroke-linejoin="round"/>
<path opacity="0.25" fill-rule="evenodd" clip-rule="evenodd" d="M13.3851 3C13.2776 3.88404 13.5632 4.80675 14.2417 5.48528C13.0702 6.65685 13.0702 8.55635 14.2417 9.72792C15.4133 10.8995 17.3128 10.8995 18.4844 9.72792C19.1707 10.4142 20.1068 10.6985 21 10.5807V19C21 20.1046 20.1046 21 19 21H5C3.89543 21 3 20.1046 3 19V5C3 3.89543 3.89543 3 5 3H13.3851ZM17 14.5V17C15.2765 17 13.8315 16.6906 12.625 16.1717L14.5 13.875L17 14.5ZM7.9375 11.375C7.25047 9.79499 7 8.18637 7 7H9.5L10.125 9.5L7.9375 11.375Z" fill="#1F2937"/>
</svg>
