<svg width="24" height="24" viewBox="0 0 24 24" fill="none" xmlns="http://www.w3.org/2000/svg">
<path d="M12.625 16.1718C13.8315 16.6906 15.2765 17 17 17V14.5L14.5 13.875L12.625 16.1718ZM12.625 16.1718C10.2243 15.1394 8.76495 13.2779 7.9375 11.375M7.9375 11.375C7.25047 9.79499 7 8.18637 7 7H9.5L10.125 9.5L7.9375 11.375ZM12 3H5C3.89543 3 3 3.89543 3 5V19C3 20.1046 3.89543 21 5 21H19C20.1046 21 21 20.1046 21 19V12M15 6H21M21 6L18 3M21 6L18 9" stroke="#1F2937" stroke-width="2" stroke-linecap="round" stroke-linejoin="round"/>
<path opacity="0.25" fill-rule="evenodd" clip-rule="evenodd" d="M15 9C13.3431 9 12 7.65685 12 6C12 4.34355 13.3425 3.00065 14.9988 3H5C3.89543 3 3 3.89543 3 5V19C3 20.1046 3.89543 21 5 21H19C20.1046 21 21 20.1046 21 19V10.2426L20.1213 11.1213C18.9497 12.2929 17.0503 12.2929 15.8787 11.1213C15.2929 10.5355 15 9.76777 15 9ZM17 14.5V17C15.2765 17 13.8315 16.6906 12.625 16.1717L14.5 13.875L17 14.5ZM7.9375 11.375C7.25047 9.79499 7 8.18637 7 7H9.5L10.125 9.5L7.9375 11.375Z" fill="#1F2937"/>
</svg>
