<svg width="24" height="24" viewBox="0 0 24 24" fill="none" xmlns="http://www.w3.org/2000/svg">
<path d="M8 3H5C3.89543 3 3 3.89543 3 5V8M3 16V19C3 20.1046 3.89543 21 5 21H8M21 16V19C21 20.1046 20.1046 21 19 21H16M21 8V5C21 3.89543 20.1046 3 19 3H16M8 7V12M8 12H5M8 12H12M12 7V12M12 12H16M16 7V12M16 12H19M8 15V17M12 15V17M16 15V17" stroke="#1F2937" stroke-width="2" stroke-linecap="round" stroke-linejoin="round"/>
<path opacity="0.25" d="M3 5C3 3.89543 3.89543 3 5 3H19C20.1046 3 21 3.89543 21 5V19C21 20.1046 20.1046 21 19 21H5C3.89543 21 3 20.1046 3 19V5Z" fill="#1F2937"/>
</svg>
