<svg width="24" height="24" viewBox="0 0 24 24" fill="none" xmlns="http://www.w3.org/2000/svg">
<path d="M6 3H4C2.89543 3 2 3.89543 2 5V7M2 17V19C2 20.1046 2.89543 21 4 21H6M18 21H20C21.1046 21 22 20.1046 22 19V17M22 7V5C22 3.89543 21.1046 3 20 3H18M6 7V17M10 7V17M14 7V17M18 7V17" stroke="#1F2937" stroke-width="2" stroke-linecap="round" stroke-linejoin="round"/>
<path opacity="0.25" d="M3 5C3 3.89543 3.89543 3 5 3H19C20.1046 3 21 3.89543 21 5V19C21 20.1046 20.1046 21 19 21H5C3.89543 21 3 20.1046 3 19V5Z" fill="#1F2937"/>
</svg>
