<svg width="24" height="24" viewBox="0 0 24 24" fill="none" xmlns="http://www.w3.org/2000/svg">
<path d="M7 3H5C3.89543 3 3 3.89543 3 5V7M3 17V19C3 20.1046 3.89543 21 5 21H7M17 21H19C20.1046 21 21 20.1046 21 19V17M21 7V5C21 3.89543 20.1046 3 19 3H17M17 12C17 14.7614 14.7614 17 12 17M17 12C17 9.23858 14.7614 7 12 7M17 12H14C13.4477 12 13 12.4477 13 13V13.1623C13 13.6249 12.6249 14 12.1623 14C11.5905 14 11.1867 14.5602 11.3675 15.1026L12 17M12 17C9.23858 17 7 14.7614 7 12C7 11.2889 7.14845 10.6125 7.41604 10M12 7V8.76393C12 9.52148 11.572 10.214 10.8944 10.5528L10 11L7.41604 10M12 7C9.94968 7 8.1876 8.2341 7.41604 10" stroke="#1F2937" stroke-width="2" stroke-linecap="round" stroke-linejoin="round"/>
<path opacity="0.25" fill-rule="evenodd" clip-rule="evenodd" d="M21 5C21 3.89543 20.1046 3 19 3H5C3.89543 3 3 3.89543 3 5V19C3 20.1046 3.89543 21 5 21H19C20.1046 21 21 20.1046 21 19V5ZM12 17C14.7614 17 17 14.7614 17 12C17 9.23858 14.7614 7 12 7C9.23858 7 7 9.23858 7 12C7 14.7614 9.23858 17 12 17Z" fill="#1F2937"/>
</svg>
