<svg width="24" height="24" viewBox="0 0 24 24" fill="none" xmlns="http://www.w3.org/2000/svg">
<path d="M7 3H5C3.89543 3 3 3.89543 3 5V7M3 17V19C3 20.1046 3.89543 21 5 21H7M17 21H19C20.1046 21 21 20.1046 21 19V17M21 7V5C21 3.89543 20.1046 3 19 3H17M12 10V12C12 13.1046 11.1046 14 10 14H9M16 8V10M8 8V10M16 15C15.8333 15.6667 14.8 17 12 17" stroke="#1F2937" stroke-width="2" stroke-linecap="round" stroke-linejoin="round"/>
<path opacity="0.25" d="M3 5C3 3.89543 3.89543 3 5 3H19C20.1046 3 21 3.89543 21 5V19C21 20.1046 20.1046 21 19 21H5C3.89543 21 3 20.1046 3 19V5Z" fill="#1F2937"/>
</svg>
