<svg width="24" height="24" viewBox="0 0 24 24" fill="none" xmlns="http://www.w3.org/2000/svg">
<path d="M7 3H5C3.89543 3 3 3.89543 3 5V7M3 17V19C3 20.1046 3.89543 21 5 21H7M17 21H19C20.1046 21 21 20.1046 21 19V17M21 7V5C21 3.89543 20.1046 3 19 3H17M5.13206 11.7761C5.66105 10.9334 7.80383 8 12 8C16.1962 8 18.3389 10.9334 18.8679 11.7761C18.9553 11.9153 18.9553 12.0847 18.8679 12.2239C18.3389 13.0666 16.1962 16 12 16C7.80383 16 5.66105 13.0666 5.13206 12.2239C5.04467 12.0847 5.04467 11.9153 5.13206 11.7761ZM13 12C13 12.5523 12.5523 13 12 13C11.4477 13 11 12.5523 11 12C11 11.4477 11.4477 11 12 11C12.5523 11 13 11.4477 13 12Z" stroke="#1F2937" stroke-width="2" stroke-linecap="round" stroke-linejoin="round"/>
<path opacity="0.25" fill-rule="evenodd" clip-rule="evenodd" d="M21 5C21 3.89543 20.1046 3 19 3H5C3.89543 3 3 3.89543 3 5V19C3 20.1046 3.89543 21 5 21H19C20.1046 21 21 20.1046 21 19V5ZM5.13206 11.7761C5.66105 10.9334 7.80383 8 12 8C16.1962 8 18.3389 10.9334 18.8679 11.7761C18.9553 11.9153 18.9553 12.0847 18.8679 12.2239C18.3389 13.0666 16.1962 16 12 16C7.80383 16 5.66105 13.0666 5.13206 12.2239C5.04467 12.0847 5.04467 11.9153 5.13206 11.7761Z" fill="#1F2937"/>
</svg>
