<svg width="24" height="24" viewBox="0 0 24 24" fill="none" xmlns="http://www.w3.org/2000/svg">
<path d="M15 10V8C15 6.89543 14.1046 6 13 6H11C9.89543 6 9 6.89543 9 8V10M15 10H16C17.1046 10 18 10.8954 18 12V16C18 17.1046 17.1046 18 16 18H8C6.89543 18 6 17.1046 6 16V12C6 10.8954 6.89543 10 8 10H9M15 10H9M9 13V15M15 13V15M5 21H19C20.1046 21 21 20.1046 21 19V5C21 3.89543 20.1046 3 19 3H5C3.89543 3 3 3.89543 3 5V19C3 20.1046 3.89543 21 5 21Z" stroke="#1F2937" stroke-width="2" stroke-linecap="round" stroke-linejoin="round"/>
<path opacity="0.25" fill-rule="evenodd" clip-rule="evenodd" d="M5 3C3.89543 3 3 3.89543 3 5V18C3 19.1046 3.89543 20 5 20H19C20.1046 20 21 19.1046 21 18V5C21 3.89543 20.1046 3 19 3H5ZM8 10C6.89543 10 6 10.8954 6 12V16C6 17.1046 6.89543 18 8 18H16C17.1046 18 18 17.1046 18 16V12C18 10.8954 17.1046 10 16 10H8Z" fill="#1F2937"/>
</svg>
