<svg width="24" height="24" viewBox="0 0 24 24" fill="none" xmlns="http://www.w3.org/2000/svg">
<path d="M10 12V12.5C10 13.6667 9.3 16 6.5 16C3.7 16 3 13.6667 3 12.5V11C3 10.4477 3.44772 10 4 10H9C9.55228 10 10 10.4477 10 11V12ZM10 12H14M14 12V12.5C14 13.6667 14.7 16 17.5 16C20.3 16 21 13.6667 21 12.5V11C21 10.4477 20.5523 10 20 10H15C14.4477 10 14 10.4477 14 11V12Z" stroke="#1F2937" stroke-width="2" stroke-linecap="round" stroke-linejoin="round"/>
<path opacity="0.25" d="M3 12.5V11C3 10.4477 3.44772 10 4 10H9C9.55228 10 10 10.4477 10 11V12H14V11C14 10.4477 14.4477 10 15 10H20C20.5523 10 21 10.4477 21 11V12.5C21 13.6667 20.3 16 17.5 16C14.7 16 14 13.6667 14 12.5V12H10V12.5C10 13.6667 9.3 16 6.5 16C3.7 16 3 13.6667 3 12.5Z" fill="#1F2937"/>
</svg>
