<svg width="24" height="24" viewBox="0 0 24 24" fill="none" xmlns="http://www.w3.org/2000/svg">
<path d="M8 8H16M14 12H8M8 16H9M20 12V6C20 4.89543 19.1046 4 18 4H6C4.89543 4 4 4.89543 4 6V18C4 19.1046 4.89543 20 6 20H8M14.75 22C13.8333 22 12 21.45 12 19.25C12 17.05 13.8333 16.5 14.75 16.5C15 16 15.85 15 17.25 15C19 15 19.75 16.75 19.75 17.5C20.5 17.5 22 17.95 22 19.75C22 21.55 20.5 22 19.75 22H14.75Z" stroke="#1F2937" stroke-width="2" stroke-linecap="round" stroke-linejoin="round"/>
<path opacity="0.25" d="M6 4C4.89543 4 4 4.89543 4 6V18C4 19.1046 4.89543 20 6 20H9.04203C9.01434 19.7577 9 19.5076 9 19.25C9 17.172 9.93311 15.584 11.2783 14.6154C11.8806 14.1817 12.5175 13.9046 13.1116 13.7352C13.9827 12.8629 15.3632 12 17.25 12C18.3357 12 19.2536 12.3057 20 12.7582V6C20 4.89543 19.1046 4 18 4H6Z" fill="#1F2937"/>
</svg>
