<svg width="24" height="24" viewBox="0 0 24 24" fill="none" xmlns="http://www.w3.org/2000/svg">
<path d="M8 8H16M16 12H8M8 16H9M20 11V6C20 4.89543 19.1046 4 18 4H6C4.89543 4 4 4.89543 4 6V18C4 19.1046 4.89543 20 6 20H9M17 16H21M21 16L19 14M21 16L19 18M16 19H12M12 19L14 21M12 19L14 17" stroke="#1F2937" stroke-width="2" stroke-linecap="round" stroke-linejoin="round"/>
<path opacity="0.25" d="M6 4C4.89543 4 4 4.89543 4 6V18C4 19.1046 4.89543 20 6 20H9.17083C8.79865 18.9447 9.0346 17.7228 9.87868 16.8787L11.8787 14.8787C12.6423 14.1151 13.715 13.8492 14.694 14.0809C15.0644 13.6363 15.561 13.3005 16.1288 13.1285C16.2672 12.6711 16.5171 12.2402 16.8787 11.8787C17.7228 11.0346 18.9447 10.7987 20 11.1708V6C20 4.89543 19.1046 4 18 4H6Z" fill="#1F2937"/>
</svg>
