<svg width="24" height="24" viewBox="0 0 24 24" fill="none" xmlns="http://www.w3.org/2000/svg">
<path d="M17 12V16C17 17.1046 16.1046 18 15 18H14.5M17 12V8C17 6.89543 16.1046 6 15 6H5C3.89543 6 3 6.89543 3 8V9.5M17 12L21 16V8L17 12ZM6 15V17H8M11 16.5C11 18.9853 8.98528 21 6.5 21C4.01472 21 2 18.9853 2 16.5C2 14.0147 4.01472 12 6.5 12C8.98528 12 11 14.0147 11 16.5Z" stroke="#1F2937" stroke-width="2" stroke-linecap="round" stroke-linejoin="round"/>
<path opacity="0.25" d="M15 6H5C3.89543 6 3 6.89543 3 8V9.86505C4.04486 9.31273 5.23591 9 6.5 9C10.6421 9 14 12.3579 14 16.5C14 17.0137 13.9484 17.5153 13.85 18H15C16.1046 18 17 17.1046 17 16V12L21 16V8L17 12V8C17 6.89543 16.1046 6 15 6Z" fill="#1F2937"/>
</svg>
