<svg width="24" height="24" viewBox="0 0 24 24" fill="none" xmlns="http://www.w3.org/2000/svg">
<path fill-rule="evenodd" clip-rule="evenodd" d="M12.8119 6.91154C12.2759 7.44654 12.0909 9.25854 12.0409 11.0035L12.0349 13.0035C12.0879 15.2405 12.3479 16.6105 12.8119 17.0745C13.3759 17.6375 14.3159 17.3485 15.0719 17.0345C16.6409 16.3835 21.1769 13.6375 21.1769 11.9925C21.1769 10.2975 16.4389 7.56054 14.9999 6.96354C14.2179 6.63854 13.3469 6.37854 12.8119 6.91154Z" fill="black"/>
<path opacity="0.4" fill-rule="evenodd" clip-rule="evenodd" d="M12.04 11.0038L3.823 11.0038C3.27 11.0038 2.823 11.4508 2.823 12.0038C2.823 12.5568 3.27 13.0038 3.823 13.0038L12.034 13.0038L12.04 11.0038Z" fill="black"/>
</svg>
