<svg width="24" height="24" viewBox="0 0 24 24" fill="none" xmlns="http://www.w3.org/2000/svg">
<path fill-rule="evenodd" clip-rule="evenodd" d="M12 2.50119H11.729C8.682 2.49019 6.47 2.50019 4.976 2.90519C3.287 3.36319 2.5 4.37919 2.5 6.10119C2.5 8.23877 4.42625 9.87655 6.28891 11.4603L6.29 11.4612C7.932 12.8552 9.483 14.1742 9.483 15.5992C9.483 19.0238 9.483 21.4992 12 21.5012V2.50119Z" fill="black"/>
<path opacity="0.4" d="M12.0029 21.5012L12 2.50122H12.2681C15.324 2.5022 17.5281 2.50024 19.0229 2.90503C20.7119 3.36304 21.5 4.37915 21.5 6.10132C21.5 8.23901 19.573 9.8772 17.71 11.4612C16.0669 12.8552 14.5171 14.1741 14.5171 15.5994C14.5171 19.0251 14.5171 21.5012 12.0029 21.5012Z" fill="black"/>
</svg>
