<svg width="24" height="24" viewBox="0 0 24 24" fill="none" xmlns="http://www.w3.org/2000/svg">
<path fill-rule="evenodd" clip-rule="evenodd" d="M2.25 9C2.25 7.48122 3.48122 6.25 5 6.25H17C18.5188 6.25 19.75 7.48122 19.75 9V9.35352C20.9043 9.67998 21.75 10.7412 21.75 12C21.75 13.2588 20.9043 14.32 19.75 14.6465V15C19.75 16.5188 18.5188 17.75 17 17.75H5C3.48122 17.75 2.25 16.5188 2.25 15V9ZM19.75 13.0001C20.0536 12.772 20.25 12.409 20.25 12C20.25 11.591 20.0536 11.228 19.75 10.9999V13.0001ZM5.25 12C5.25 10.4812 6.48122 9.25 8 9.25H14C15.5188 9.25 16.75 10.4812 16.75 12C16.75 13.5188 15.5188 14.75 14 14.75H8C6.48122 14.75 5.25 13.5188 5.25 12Z" fill="black"/>
</svg>
