<svg width="24" height="24" viewBox="0 0 24 24" fill="none" xmlns="http://www.w3.org/2000/svg">
<path fill-rule="evenodd" clip-rule="evenodd" d="M2.25 9C2.25 7.48122 3.48122 6.25 5 6.25H17C18.5188 6.25 19.75 7.48122 19.75 9V9.35352C20.9043 9.67998 21.75 10.7412 21.75 12C21.75 13.2588 20.9043 14.32 19.75 14.6465V15C19.75 16.5188 18.5188 17.75 17 17.75H5C3.48122 17.75 2.25 16.5188 2.25 15V9ZM19.75 13.0001C20.0536 12.772 20.25 12.409 20.25 12C20.25 11.591 20.0536 11.228 19.75 10.9999V13.0001ZM11.45 9.4C11.2227 9.22955 10.9187 9.20214 10.6646 9.32918C10.4105 9.45622 10.25 9.71592 10.25 10V12.5L7.45 10.4C7.11863 10.1515 6.64853 10.2186 6.4 10.55C6.15147 10.8814 6.21863 11.3515 6.55 11.6L10.55 14.6C10.7773 14.7704 11.0813 14.7979 11.3354 14.6708C11.5895 14.5438 11.75 14.2841 11.75 14V11.5L14.55 13.6C14.8814 13.8485 15.3515 13.7814 15.6 13.45C15.8485 13.1186 15.7814 12.6485 15.45 12.4L11.45 9.4Z" fill="black"/>
</svg>
