<svg width="24" height="24" viewBox="0 0 24 24" fill="none" xmlns="http://www.w3.org/2000/svg">
<path fill-rule="evenodd" clip-rule="evenodd" d="M4.25 5C4.25 3.48122 5.48122 2.25 7 2.25H13.1716C13.9009 2.25 14.6004 2.53973 15.1161 3.05546L18.9445 6.88388C19.4603 7.39961 19.75 8.09908 19.75 8.82843V19C19.75 20.5188 18.5188 21.75 17 21.75H7C5.48122 21.75 4.25 20.5188 4.25 19V5ZM13.75 4C13.75 3.58579 13.4142 3.25 13 3.25C12.5858 3.25 12.25 3.58579 12.25 4V7C12.25 8.51878 13.4812 9.75 15 9.75H18C18.4142 9.75 18.75 9.41421 18.75 9C18.75 8.58579 18.4142 8.25 18 8.25H15C14.3096 8.25 13.75 7.69036 13.75 7V4ZM15.5303 13.5303C15.8232 13.2374 15.8232 12.7626 15.5303 12.4697C15.2374 12.1768 14.7626 12.1768 14.4697 12.4697L11 15.9393L9.53033 14.4697C9.23744 14.1768 8.76256 14.1768 8.46967 14.4697C8.17678 14.7626 8.17678 15.2374 8.46967 15.5303L10.4697 17.5303C10.7626 17.8232 11.2374 17.8232 11.5303 17.5303L15.5303 13.5303Z" fill="black"/>
</svg>
