<svg width="24" height="24" viewBox="0 0 24 24" fill="none" xmlns="http://www.w3.org/2000/svg">
<path fill-rule="evenodd" clip-rule="evenodd" d="M2.25 8C2.25 6.48122 3.48122 5.25 5 5.25H19C20.5188 5.25 21.75 6.48122 21.75 8V16C21.75 17.5188 20.5188 18.75 19 18.75H5C3.48122 18.75 2.25 17.5188 2.25 16V8ZM6 8.25C5.58579 8.25 5.25 8.58579 5.25 9C5.25 9.41421 5.58579 9.75 6 9.75H6.00898C6.4232 9.75 6.75898 9.41421 6.75898 9C6.75898 8.58579 6.4232 8.25 6.00898 8.25H6ZM9 8.25C8.58579 8.25 8.25 8.58579 8.25 9C8.25 9.41421 8.58579 9.75 9 9.75H9.00898C9.4232 9.75 9.75898 9.41421 9.75898 9C9.75898 8.58579 9.4232 8.25 9.00898 8.25H9ZM12 8.25C11.5858 8.25 11.25 8.58579 11.25 9C11.25 9.41421 11.5858 9.75 12 9.75H12.009C12.4232 9.75 12.759 9.41421 12.759 9C12.759 8.58579 12.4232 8.25 12.009 8.25H12ZM15 8.25C14.5858 8.25 14.25 8.58579 14.25 9C14.25 9.41421 14.5858 9.75 15 9.75H15.009C15.4232 9.75 15.759 9.41421 15.759 9C15.759 8.58579 15.4232 8.25 15.009 8.25H15ZM18 8.25C17.5858 8.25 17.25 8.58579 17.25 9C17.25 9.41421 17.5858 9.75 18 9.75H18.009C18.4232 9.75 18.759 9.41421 18.759 9C18.759 8.58579 18.4232 8.25 18.009 8.25H18ZM6 11.25C5.58579 11.25 5.25 11.5858 5.25 12C5.25 12.4142 5.58579 12.75 6 12.75H6.00898C6.4232 12.75 6.75898 12.4142 6.75898 12C6.75898 11.5858 6.4232 11.25 6.00898 11.25H6ZM9 11.25C8.58579 11.25 8.25 11.5858 8.25 12C8.25 12.4142 8.58579 12.75 9 12.75H9.00898C9.4232 12.75 9.75898 12.4142 9.75898 12C9.75898 11.5858 9.4232 11.25 9.00898 11.25H9ZM12 11.25C11.5858 11.25 11.25 11.5858 11.25 12C11.25 12.4142 11.5858 12.75 12 12.75H12.009C12.4232 12.75 12.759 12.4142 12.759 12C12.759 11.5858 12.4232 11.25 12.009 11.25H12ZM15 11.25C14.5858 11.25 14.25 11.5858 14.25 12C14.25 12.4142 14.5858 12.75 15 12.75H15.009C15.4232 12.75 15.759 12.4142 15.759 12C15.759 11.5858 15.4232 11.25 15.009 11.25H15ZM18 11.25C17.5858 11.25 17.25 11.5858 17.25 12C17.25 12.4142 17.5858 12.75 18 12.75H18.009C18.4232 12.75 18.759 12.4142 18.759 12C18.759 11.5858 18.4232 11.25 18.009 11.25H18ZM10 14.25C9.58579 14.25 9.25 14.5858 9.25 15C9.25 15.4142 9.58579 15.75 10 15.75H14C14.4142 15.75 14.75 15.4142 14.75 15C14.75 14.5858 14.4142 14.25 14 14.25H10Z" fill="black"/>
</svg>
