<svg id="_1" height="512" viewBox="0 0 512 512" width="512" xmlns="http://www.w3.org/2000/svg" data-name="1"><path d="m213.58 100.46h28.28v28.28h-28.28z"/><path d="m185.3 128.74h28.28v28.28h-28.28z"/><path d="m157.02 157.02h28.28v28.28h-28.28z"/><path d="m157.02 185.3h28.28v28.28h-28.28z"/><path d="m157.02 213.58h28.28v28.28h-28.28z"/><path d="m157.02 270.14h28.28v28.28h-28.28z"/><path d="m157.02 298.42h28.28v28.28h-28.28z"/><path d="m157.02 354.98h28.28v28.28h-28.28z"/><path d="m157.02 411.54h28.28v28.28h-28.28z"/><path d="m157.02 326.7h28.28v28.28h-28.28z"/><path d="m157.02 383.26h28.28v28.28h-28.28z"/><path d="m157.02 241.86h28.28v28.28h-28.28z"/><path d="m270.14 100.46h28.28v28.28h-28.28z"/><path d="m241.86 100.46h28.28v28.28h-28.28z"/><path d="m241.86 72.18h28.28v28.28h-28.28z"/><path d="m298.42 128.74h28.28v28.28h-28.28z"/><path d="m241.86 128.74h28.28v28.28h-28.28z"/><path d="m326.7 157.02h28.28v28.28h-28.28z"/><path d="m326.7 185.3h28.28v28.28h-28.28z"/><path d="m326.7 213.58h28.28v28.28h-28.28z"/><path d="m326.7 270.14h28.28v28.28h-28.28z"/><path d="m326.7 298.42h28.28v28.28h-28.28z"/><path d="m326.7 354.98h28.28v28.28h-28.28z"/><path d="m326.7 326.7h28.28v28.28h-28.28z"/><path d="m213.58 241.86h28.28v28.28h-28.28z"/><path d="m270.14 213.58h28.28v28.28h-28.28z"/><path d="m241.86 213.58h28.28v28.28h-28.28z"/><path d="m270.14 326.7h28.28v28.28h-28.28z"/><path d="m241.86 326.7h28.28v28.28h-28.28z"/><path d="m241.86 354.98h28.28v28.28h-28.28z"/><path d="m270.14 298.42h28.28v28.28h-28.28z"/><path d="m241.86 270.14h28.28v28.28h-28.28z"/><path d="m213.58 270.14h28.28v28.28h-28.28z"/><path d="m241.86 185.3h28.28v28.28h-28.28z"/><path d="m213.58 326.7h28.28v28.28h-28.28z"/><path d="m326.7 383.26h28.28v28.28h-28.28z"/><path d="m326.7 241.86h28.28v28.28h-28.28z"/><path d="m326.7 411.54h28.28v28.28h-28.28z"/><path d="m298.42 411.54h28.28v28.28h-28.28z"/><path d="m241.86 411.54h28.28v28.28h-28.28z"/><path d="m185.3 411.54h28.28v28.28h-28.28z"/><path d="m270.14 411.54h28.28v28.28h-28.28z"/><path d="m213.58 411.54h28.28v28.28h-28.28z"/></svg>