<svg id="_1" height="512" viewBox="0 0 512 512" width="512" xmlns="http://www.w3.org/2000/svg" data-name="1"><path d="m58.04 114.6h28.28v28.28h-28.28z"/><path d="m58.04 142.88h28.28v28.28h-28.28z"/><path d="m58.04 199.44h28.28v28.28h-28.28z"/><path d="m58.04 227.72h28.28v28.28h-28.28z"/><path d="m58.04 284.28h28.28v28.28h-28.28z"/><path d="m58.04 256h28.28v28.28h-28.28z"/><path d="m58.04 312.56h28.28v28.28h-28.28z"/><path d="m58.04 171.16h28.28v28.28h-28.28z"/><path d="m256 58.04h28.28v28.28h-28.28z"/><path d="m284.28 58.04h28.28v28.28h-28.28z"/><path d="m58.04 86.32h28.28v28.28h-28.28z"/><path d="m58.04 58.04h28.28v28.28h-28.28z"/><path d="m114.6 142.88h28.28v28.28h-28.28z"/><path d="m114.6 199.44h28.28v28.28h-28.28z"/><path d="m114.6 256h28.28v28.28h-28.28z"/><path d="m114.6 312.56h28.28v28.28h-28.28z"/><path d="m114.6 86.32h28.28v28.28h-28.28z"/><path d="m86.32 58.04h28.28v28.28h-28.28z"/><path d="m199.44 340.84h28.28v28.28h-28.28z"/><path d="m171.16 340.84h28.28v28.28h-28.28z"/><path d="m114.6 340.84h28.28v28.28h-28.28z"/><path d="m340.84 114.6h28.28v28.28h-28.28z"/><path d="m227.72 312.56h28.28v28.28h-28.28z"/><path d="m227.72 284.28h28.28v28.28h-28.28z"/><path d="m340.84 256h28.28v28.28h-28.28z"/><path d="m340.84 227.72h28.28v28.28h-28.28z"/><path d="m227.72 340.84h28.28v28.28h-28.28z"/><path d="m340.84 86.32h28.28v28.28h-28.28z"/><path d="m142.88 340.84h28.28v28.28h-28.28z"/><path d="m86.32 340.84h28.28v28.28h-28.28z"/><path d="m284.28 425.68h28.28v28.28h-28.28z"/><path d="m256 425.68h28.28v28.28h-28.28z"/><path d="m227.72 397.4h28.28v28.28h-28.28z"/><path d="m256 284.28h28.28v28.28h-28.28z"/><path d="m312.56 425.68h28.28v28.28h-28.28z"/><path d="m284.28 397.4h28.28v28.28h-28.28z"/><path d="m284.28 340.84h28.28v28.28h-28.28z"/><path d="m340.84 425.68h28.28v28.28h-28.28z"/><path d="m369.12 425.68h28.28v28.28h-28.28z"/><path d="m425.68 397.4h28.28v28.28h-28.28z"/><path d="m227.72 425.68h28.28v28.28h-28.28z"/><path d="m397.4 425.68h28.28v28.28h-28.28z"/><path d="m397.4 284.28h28.28v28.28h-28.28z"/><path d="m425.68 425.68h28.28v28.28h-28.28z"/><path d="m284.28 284.28h28.28v28.28h-28.28z"/><path d="m312.56 284.28h28.28v28.28h-28.28z"/><path d="m340.84 284.28h28.28v28.28h-28.28z"/><path d="m369.12 284.28h28.28v28.28h-28.28z"/><path d="m227.72 369.12h28.28v28.28h-28.28z"/><path d="m58.04 340.84h28.28v28.28h-28.28z"/><path d="m425.68 312.56h28.28v28.28h-28.28z"/><path d="m425.68 284.28h28.28v28.28h-28.28z"/><path d="m425.68 340.84h28.28v28.28h-28.28z"/><path d="m425.68 369.12h28.28v28.28h-28.28z"/><path d="m227.72 58.04h28.28v28.28h-28.28z"/><path d="m171.16 58.04h28.28v28.28h-28.28z"/><path d="m199.44 58.04h28.28v28.28h-28.28z"/><path d="m142.88 58.04h28.28v28.28h-28.28z"/><path d="m114.6 58.04h28.28v28.28h-28.28z"/><path d="m312.56 58.04h28.28v28.28h-28.28z"/><path d="m340.84 199.44h28.28v28.28h-28.28z"/><path d="m397.4 199.44h28.28v28.28h-28.28z"/><path d="m425.68 171.16h28.28v28.28h-28.28z"/><path d="m369.12 142.88h28.28v28.28h-28.28z"/><path d="m397.4 142.88h28.28v28.28h-28.28z"/><path d="m425.68 199.44h28.28v28.28h-28.28z"/><path d="m425.68 142.88h28.28v28.28h-28.28z"/><path d="m284.28 114.6h28.28v28.28h-28.28z"/><path d="m284.28 227.72h28.28v28.28h-28.28z"/><path d="m369.12 199.44h28.28v28.28h-28.28z"/><path d="m312.56 199.44h28.28v28.28h-28.28z"/><path d="m340.84 142.88h28.28v28.28h-28.28z"/><path d="m312.56 142.88h28.28v28.28h-28.28z"/><path d="m256 142.88h28.28v28.28h-28.28z"/><path d="m227.72 171.16h28.28v28.28h-28.28z"/><path d="m256 199.44h28.28v28.28h-28.28z"/></svg>