<svg id="Layer_1" height="512" viewBox="0 0 256 256" width="512" xmlns="http://www.w3.org/2000/svg" data-name="Layer 1"><path d="m222 70.44v149.56a23 23 0 0 1 -23 23h-142a23 23 0 0 1 -23-23v-184a23 23 0 0 1 23-23h107.51a23 23 0 0 1 16.27 6.74l34.48 34.44a23 23 0 0 1 6.74 16.26z" fill="#49021f"/><path d="m166.06 18a13.94 13.94 0 0 1 9.9 4.1l35.94 35.9a13.94 13.94 0 0 1 4.1 9.9v156.1a14 14 0 0 1 -14 14h-148a14 14 0 0 1 -14-14v-192a14 14 0 0 1 14-14zm0-10h-112.06a24 24 0 0 0 -24 24v192a24 24 0 0 0 24 24h148a24 24 0 0 0 24-24v-156.06a24 24 0 0 0 -7-17l-36-35.94a24 24 0 0 0 -17-7z" fill="#f36"/><g fill="#fff"><path d="m82 178.43v35.08c0 .33-.14.49-.43.49h-5.14c-.29 0-.43-.16-.43-.49v-35.08a.38.38 0 0 1 .43-.43h5.19c.25 0 .38.14.38.43z"/><path d="m93.59 214h-5.18c-.27 0-.41-.16-.41-.49v-35.13c0-.25.12-.38.36-.38h6.91a.66.66 0 0 1 .61.38l12.12 27.62v-27.56c0-.29.15-.44.46-.44h5.13c.27 0 .41.15.41.44v35.07c0 .33-.17.49-.51.49h-6.4a.59.59 0 0 1 -.61-.38c-.55-1.27-12.48-27.62-12.48-27.62v27.56c0 .29-.14.44-.41.44z"/><path d="m120 213.4v-34.86a.38.38 0 0 1 .32-.43c3.89-.07 7.11-.11 10.13-.11q8.58 0 13.07 4.82t4.48 12.69a22.38 22.38 0 0 1 -1.16 7.46 16 16 0 0 1 -3 5.31 15.4 15.4 0 0 1 -4.32 3.36 18.6 18.6 0 0 1 -5 1.84 24.37 24.37 0 0 1 -5.1.52c-3.39 0-6.28 0-9.16-.11-.15 0-.26-.16-.26-.49zm6-30.4v26c1.74.07 2.65.11 3.8.11 3.57 0 7.16-1.08 9.18-3.23s3-5.54 3-10.17q0-6.49-2.83-9.62c-1.89-2.08-5.34-3.12-8.72-3.12-2.14-.04-3.27.03-4.43.03z"/><path d="m152 213.4v-34.86a.38.38 0 0 1 .32-.43c3.89-.07 7.11-.11 10.13-.11q8.58 0 13.07 4.82t4.48 12.69a22.38 22.38 0 0 1 -1.16 7.46 16 16 0 0 1 -3 5.31 15.4 15.4 0 0 1 -4.32 3.36 18.6 18.6 0 0 1 -5 1.84 24.37 24.37 0 0 1 -5.1.52c-3.39 0-6.28 0-9.16-.11-.15 0-.26-.16-.26-.49zm6-30.4v26c1.74.07 2.65.11 3.8.11 3.57 0 7.16-1.08 9.18-3.23s3-5.54 3-10.17q0-6.49-2.83-9.62c-1.89-2.08-5.34-3.12-8.72-3.12-2.14-.04-3.27.03-4.43.03z"/></g><path d="m104 59v77.87c0 .75-.33 1.13-1 1.13h-12c-.67 0-1-.38-1-1.13v-77.87a.88.88 0 0 1 1-1h12.12c.59 0 .88.33.88 1z" fill="#f36"/><path d="m142.42 140c-8.7 0-15.4-2.47-20.61-7.4s-7.81-12.2-7.81-21.83q0-13.14 8.39-21.6a30.05 30.05 0 0 1 22.13-9.17 22.25 22.25 0 0 1 5.48.59v-25.89a.62.62 0 0 1 .7-.7h12.72c.38 0 .58.23.58.7v71.57c0 3 1.75 5.55 2 7.74a.93.93 0 0 1 -.58 1.06 53.82 53.82 0 0 1 -23 4.93zm7.58-11.62v-36.27c-.49-.86-3.07-2.11-5.71-2.11a14.72 14.72 0 0 0 -11.55 5.14c-3 3.36-4.74 8.86-4.74 15 0 6.57 1.77 11.57 4.69 14.69a14.87 14.87 0 0 0 11.13 5.17c2.8 0 5.54-.92 6.18-1.62z" fill="#f36"/></svg>