<svg id="Layer_1" height="512" viewBox="0 0 256 256" width="512" xmlns="http://www.w3.org/2000/svg" data-name="Layer 1"><path d="m228 232h-200a20 20 0 0 1 -20-20v-168a20 20 0 0 1 20-20h77.72a20 20 0 0 1 14.14 5.86l18.28 18.28a20 20 0 0 0 14.14 5.86h75.72a20 20 0 0 1 20 20v138a20 20 0 0 1 -20 20z" fill="#ff61f6"/><path d="m16 62h210a14 14 0 0 1 14 14v134a14 14 0 0 1 -14 14h-196a14 14 0 0 1 -14-14v-148a0 0 0 0 1 0 0z" fill="#470137"/><g fill="#ff61f6"><path d="m132.07 103.21-21.64 37.58 23.32 40c.48.81.28 1.21-.6 1.21h-14.58a1.81 1.81 0 0 1 -1.79-1l-16.39-30.42h-.12l-15.99 30.42a1.78 1.78 0 0 1 -1.55 1h-14c-.8 0-1-.4-.48-1.21l22.94-38.91-21.85-38.88c-.47-.65-.31-1 .48-1h14.58a1.63 1.63 0 0 1 1.55.85l15.39 30.06h.12l15.32-30.06a1.64 1.64 0 0 1 1.55-.85h13.27c.87 0 1.03.41.47 1.21z"/><path d="m164.13 184c-8.62 0-15.25-2.42-20.4-7.27s-7.73-12-7.73-21.45q0-12.9 8.31-21.21a29.81 29.81 0 0 1 21.9-9 22.38 22.38 0 0 1 5.42.58v-24.96a.61.61 0 0 1 .69-.69h13.57c.39 0 .58.23.58.69v69.82c0 2.92 1.28 5.46 1.51 7.61a.91.91 0 0 1 -.57 1c-6.7 3.27-15.41 4.88-23.28 4.88zm7.5-11.42v-35.58c-.48-.85-3-1.58-5.66-1.58a14.61 14.61 0 0 0 -11.42 5 21.5 21.5 0 0 0 -5.19 14.3c0 6.46 2.25 10.87 5.13 13.95a14.83 14.83 0 0 0 11 5c2.79.01 5.51-.4 6.14-1.09z"/></g></svg>