<svg width="24" height="24" viewBox="0 0 24 24" fill="none" xmlns="http://www.w3.org/2000/svg">
<path opacity="0.2" d="M12 24C18.6274 24 24 18.6274 24 12C24 5.37258 18.6274 0 12 0C5.37258 0 0 5.37258 0 12C0 18.6274 5.37258 24 12 24Z" fill="black"/>
<path fill-rule="evenodd" clip-rule="evenodd" d="M9.51651 4.68577C9.75937 4.6512 9.99651 4.65792 10.2279 4.70594C10.4265 4.84278 10.6351 5.00699 10.6727 5.26195C10.7136 6.34324 10.6846 7.42742 10.6889 8.50967C10.1379 8.51063 9.58699 8.51831 9.03604 8.50487C9.02319 8.49142 8.997 8.46502 8.98366 8.45205C8.97033 7.49512 8.97842 6.53866 8.97938 5.58173C8.97033 5.21249 9.14699 4.80581 9.51651 4.68577Z" fill="black"/>
<path fill-rule="evenodd" clip-rule="evenodd" d="M11.4572 5.54788C13.2582 5.2966 15.1541 5.77366 16.5998 6.89482C18.4995 8.33225 19.5932 10.8114 19.2855 13.2001C19.1133 14.807 18.3678 16.3455 17.2064 17.4594C15.86 18.7515 13.9793 19.5111 12.1159 19.3686C9.69671 19.3176 7.4011 17.8137 6.30076 15.6504C5.90249 14.8946 5.6788 14.0637 5.53857 13.2237V12.1516C5.73317 11.7212 6.24734 11.4127 6.70093 11.6332C7.0658 11.741 7.28616 12.1502 7.25563 12.5204C7.25754 13.99 7.93434 15.4491 9.05425 16.3869C9.93328 17.1807 11.099 17.588 12.2632 17.6698C12.7607 17.6616 13.2567 17.5846 13.7428 17.4782C15.4899 17.031 16.9551 15.583 17.4125 13.8206C17.9662 11.9668 17.3166 9.84575 15.8986 8.56332C14.6633 7.42772 12.8747 6.94873 11.2464 7.35021C11.1147 7.42531 11.0508 7.14129 11.1195 7.0816C11.1176 6.60357 11.1123 6.12507 11.1233 5.64753C11.2082 5.55559 11.3441 5.57484 11.4572 5.54788Z" fill="black"/>
<path fill-rule="evenodd" clip-rule="evenodd" d="M8.46152 6.75159C8.48151 6.7468 8.52149 6.73721 8.54149 6.73242C8.54434 7.306 8.55244 7.88006 8.53816 8.45364C8.5253 8.4661 8.49912 8.49149 8.48579 8.50395C7.91744 8.51785 7.34814 8.51114 6.77979 8.50826C6.90878 8.14457 7.22866 7.8676 7.48523 7.58824C7.77607 7.27198 8.10261 6.98543 8.46152 6.75159Z" fill="black"/>
<path fill-rule="evenodd" clip-rule="evenodd" d="M7.30996 8.9072C8.99472 8.89323 10.68 8.89901 12.3642 8.90382C12.8019 8.97126 13.262 8.97608 13.6706 9.16683C14.8785 9.61433 15.7753 10.8056 15.8747 12.0955C16.0228 13.2593 15.4891 14.4626 14.5765 15.177C13.8994 15.7275 13.0155 15.9718 12.1559 15.9139C11.0053 15.8142 9.91498 15.111 9.38079 14.0724C9.25226 13.9226 9.24843 13.7126 9.13615 13.5551C8.91492 12.7627 8.97656 11.9313 8.97369 11.1177C9.54563 11.1138 10.118 11.1134 10.6905 11.1177C10.7282 11.8682 10.5476 12.7059 10.9891 13.3696C11.4569 14.1408 12.5616 14.3793 13.3189 13.9086C13.876 13.6138 14.1269 12.9698 14.1713 12.3725C14.1044 12.1476 14.0886 11.9077 13.9878 11.6938C13.6978 11.1008 13.068 10.6957 12.4125 10.6842C10.9662 10.6745 9.51983 10.6924 8.07398 10.6765C7.88859 10.1928 7.61815 9.74679 7.40361 9.27569C7.37542 9.16442 7.15993 9.00354 7.30996 8.9072Z" fill="black"/>
</svg>
