<svg width="24" height="24" viewBox="0 0 24 24" fill="none" xmlns="http://www.w3.org/2000/svg">
<path opacity="0.2" d="M12 24C18.6274 24 24 18.6274 24 12C24 5.37258 18.6274 0 12 0C5.37258 0 0 5.37258 0 12C0 18.6274 5.37258 24 12 24Z" fill="black"/>
<path opacity="0.2" d="M12 24C18.6274 24 24 18.6274 24 12C24 5.37258 18.6274 0 12 0C5.37258 0 0 5.37258 0 12C0 18.6274 5.37258 24 12 24Z" fill="black"/>
<mask id="mask0_2493_14480" style="mask-type:luminance" maskUnits="userSpaceOnUse" x="0" y="0" width="24" height="24">
<path d="M12 24C18.6274 24 24 18.6274 24 12C24 5.37258 18.6274 0 12 0C5.37258 0 0 5.37258 0 12C0 18.6274 5.37258 24 12 24Z" fill="white"/>
</mask>
<g mask="url(#mask0_2493_14480)">
<path fill-rule="evenodd" clip-rule="evenodd" d="M12.1983 7.18677H8.9218V11.5384H6.92285V12.989H8.9218V17.3406H12.1983C13.9277 17.3406 14.3004 17.1595 15.0457 16.7973C15.1035 16.7691 15.1636 16.7399 15.2268 16.7096C16.1035 16.289 16.7849 15.6967 17.2708 14.9327C17.7568 14.1687 17.9998 13.2791 17.9998 12.2637C17.9998 11.2483 17.7568 10.3586 17.2708 9.59468C16.7849 8.83072 16.1035 8.23842 15.2268 7.81776C14.35 7.3971 13.3406 7.18677 12.1983 7.18677ZM11.3565 12.989V15.4114H12.0779C13.13 15.4114 13.9692 15.1285 14.5954 14.5628C15.2217 13.9971 15.5348 13.2307 15.5348 12.2637C15.5348 11.2967 15.2217 10.5303 14.5954 9.96457C13.9692 9.39885 13.13 9.116 12.0779 9.116H11.3565V11.5384H13.6862V12.989H11.3565Z" fill="black"/>
</g>
</svg>
