<svg width="24" height="24" viewBox="0 0 24 24" fill="none" xmlns="http://www.w3.org/2000/svg">
<path opacity="0.1" d="M12 24C18.6274 24 24 18.6274 24 12C24 5.37258 18.6274 0 12 0C5.37258 0 0 5.37258 0 12C0 18.6274 5.37258 24 12 24Z" fill="black"/>
<mask id="mask0_2493_14545" style="mask-type:luminance" maskUnits="userSpaceOnUse" x="0" y="0" width="24" height="24">
<path d="M12 24C18.6274 24 24 18.6274 24 12C24 5.37258 18.6274 0 12 0C5.37258 0 0 5.37258 0 12C0 18.6274 5.37258 24 12 24Z" fill="white"/>
</mask>
<g mask="url(#mask0_2493_14545)">
<path fill-rule="evenodd" clip-rule="evenodd" d="M9.23096 11.3775L12.475 9.26875L15.6925 11.3906L12.4608 5.53809L9.23096 11.3775ZM9.35474 11.9865L12.4785 9.92801L15.5617 11.9713L12.4803 14.032L9.35474 11.9865ZM9.23101 12.5759C10.3695 13.3225 11.5575 14.104 12.475 14.7087L15.6926 12.5759C14.5275 14.713 13.557 16.4922 12.475 18.4612L11.8116 17.2586L11.8114 17.2583C10.9202 15.6428 10.0011 13.9769 9.23101 12.5759Z" fill="black"/>
<path fill-rule="evenodd" clip-rule="evenodd" d="M12.4619 5.53809L12.474 9.26875L15.6927 11.3906L12.4619 5.53809ZM12.4771 9.92801L15.5806 11.9713L12.4786 14.032L12.4771 9.92801ZM12.4742 14.7087L15.6928 12.5759C14.6945 14.713 12.4742 18.4612 12.4742 18.4612V14.7087Z" fill="black"/>
</g>
</svg>
