<svg width="24" height="24" viewBox="0 0 24 24" fill="none" xmlns="http://www.w3.org/2000/svg">
<path opacity="0.2" d="M12 24C18.6274 24 24 18.6274 24 12C24 5.37258 18.6274 0 12 0C5.37258 0 0 5.37258 0 12C0 18.6274 5.37258 24 12 24Z" fill="black"/>
<path fill-rule="evenodd" clip-rule="evenodd" d="M18.7266 16.0223V7.8062L11.6642 3.69141L4.61523 7.8062V16.0223L11.6642 20.1371L18.7266 16.0223Z" fill="black" fill-opacity="0.24"/>
<path fill-rule="evenodd" clip-rule="evenodd" d="M18.2564 15.7521V8.07562L11.664 4.24414L5.08496 8.07562V15.7521L11.664 19.5835L18.2564 15.7521Z" fill="black" fill-opacity="0.42"/>
<path opacity="0.11" fill-rule="evenodd" clip-rule="evenodd" d="M17.7597 15.4685V8.35871L11.664 4.81055L5.56836 8.35871V15.4685L11.664 19.0167L17.7597 15.4685Z" fill="black"/>
<path fill-rule="evenodd" clip-rule="evenodd" d="M9.51612 7.73848L13.4501 5.56641L15.1419 6.38936L11.6644 8.38605C5.40759 11.6239 11.2481 15.253 11.2481 15.253L9.54297 16.1974C7.89535 15.3927 6.8184 13.7462 6.73682 11.9072C6.92488 10.1431 7.96398 8.58447 9.51612 7.73848ZM9.51612 7.23931L8.5494 6.41635L9.90549 5.56641L11.0065 6.41635L9.51612 7.23931Z" fill="black"/>
<path fill-rule="evenodd" clip-rule="evenodd" d="M14.5379 11.206C14.6184 9.70853 12.1211 8.62924 12.1211 8.62924L13.7457 7.7793C16.431 9.39823 16.431 11.206 16.431 11.206H14.5379ZM12.1211 17.7088L13.7189 16.8183L14.9004 17.5604L13.2892 18.5182L12.1211 17.7088Z" fill="black"/>
<path fill-rule="evenodd" clip-rule="evenodd" d="M11.4765 12.2715L10.6172 13.8365H13.8261C13.8261 13.8365 14.8868 14.0118 7.91846 17.2497L10.0533 18.275C10.0533 18.275 17.4245 15.4689 16.4846 12.2715" fill="black"/>
</svg>
