<svg width="24" height="24" viewBox="0 0 24 24" fill="none" xmlns="http://www.w3.org/2000/svg">
<path opacity="0.2" d="M12 24C18.6274 24 24 18.6274 24 12C24 5.37258 18.6274 0 12 0C5.37258 0 0 5.37258 0 12C0 18.6274 5.37258 24 12 24Z" fill="black"/>
<mask id="mask0_2493_14541" style="mask-type:luminance" maskUnits="userSpaceOnUse" x="0" y="0" width="24" height="24">
<path d="M12 24C18.6274 24 24 18.6274 24 12C24 5.37258 18.6274 0 12 0C5.37258 0 0 5.37258 0 12C0 18.6274 5.37258 24 12 24Z" fill="white"/>
</mask>
<g mask="url(#mask0_2493_14541)">
<path fill-rule="evenodd" clip-rule="evenodd" d="M12.379 6.36914C13.7032 6.36914 14.7971 6.78022 15.6801 7.65609C16.5435 8.49615 16.9849 9.55074 16.9847 10.7841C16.9847 12.0353 16.5435 13.0899 15.6798 13.9299C14.989 14.5912 14.1637 14.9845 13.2042 15.1275V15.8604H15.1615V16.6647H13.1848V17.0937H15.1615V17.8444H13.2042V19.2922H11.5346V17.8444H9.59628V17.0937H11.5535V16.6647H9.59628V15.8604H11.5346V15.1097C10.5942 14.9667 9.76897 14.5734 9.0781 13.9121C8.19533 13.072 7.75391 12.0174 7.75391 10.7662C7.75391 9.49711 8.1761 8.44258 9.05874 7.62035C9.94172 6.78022 11.0356 6.36914 12.379 6.36914ZM12.3792 13.072C12.9933 13.072 13.5114 12.8575 13.8761 12.4285C14.2407 11.9995 14.4327 11.4454 14.4327 10.7663C14.4327 10.1049 14.2408 9.55086 13.8377 9.12187C13.4538 8.67506 12.9552 8.46054 12.3792 8.46054C11.7842 8.46054 11.2856 8.67506 10.9014 9.10404C10.5173 9.53302 10.3254 10.0693 10.3254 10.7485C10.3254 11.4454 10.5176 11.9995 10.9014 12.4285C11.2852 12.8575 11.7842 13.072 12.3792 13.072Z" fill="black"/>
</g>
</svg>
