<svg width="24" height="24" viewBox="0 0 24 24" fill="none" xmlns="http://www.w3.org/2000/svg">
<path opacity="0.2" d="M12 24C18.6274 24 24 18.6274 24 12C24 5.37258 18.6274 0 12 0C5.37258 0 0 5.37258 0 12C0 18.6274 5.37258 24 12 24Z" fill="black"/>
<path fill-rule="evenodd" clip-rule="evenodd" d="M5.67811 15.6905C6.26511 15.6905 6.74098 15.2051 6.74098 14.6063C6.74098 14.0075 6.26511 13.5221 5.67811 13.5221C5.0911 13.5221 4.61523 14.0075 4.61523 14.6063C4.61523 15.2051 5.0911 15.6905 5.67811 15.6905Z" fill="black"/>
<path fill-rule="evenodd" clip-rule="evenodd" d="M17.2808 10.3149C17.2808 9.70531 17.7683 9.23071 18.3437 9.23071C18.9191 9.23071 19.3844 9.70531 19.3844 10.2696C19.3844 10.8792 18.8969 11.3538 18.3215 11.3538C17.5019 11.3538 17.2586 11.6473 17.2586 12.438V12.5059C17.2364 13.0702 16.7711 13.5221 16.2179 13.5221H16.1957C15.3984 13.5448 15.1551 13.8383 15.1551 14.6063V14.6969C15.1329 15.2386 14.6676 15.6905 14.1144 15.6905C13.5168 15.6905 13.0515 15.1933 13.0515 14.6063C13.0515 14.0647 13.4724 13.6127 14.0034 13.5448C14.0256 13.5222 14.07 13.5221 14.1144 13.5221C15.0219 13.5221 15.1773 13.3192 15.1773 12.4833V12.4606C15.1773 11.8963 15.5981 11.4444 16.1291 11.3991H16.2179C17.1476 11.3991 17.2808 11.1735 17.2808 10.3149ZM12.0109 11.3991H12.0997C12.6307 11.4444 13.0516 11.8963 13.0738 12.438C13.0738 13.0476 12.6085 13.5222 12.0109 13.5222C11.4133 13.5222 10.948 13.0249 10.948 12.438C10.948 11.6699 10.7047 11.3764 9.88517 11.3764C9.06561 11.3764 8.8223 11.6699 8.8223 12.4606V12.5285C8.8001 13.0702 8.33483 13.5222 7.78162 13.5222C7.18402 13.5222 6.71875 13.0249 6.71875 12.438C6.71875 11.8737 7.13963 11.4217 7.67064 11.3764H7.75943C8.68912 11.3764 8.8223 11.1735 8.8223 10.3149C8.8223 9.70532 9.30977 9.23072 9.88517 9.23072C10.4828 9.23072 10.948 9.72796 10.948 10.3149C10.948 11.1735 11.0812 11.3991 12.0109 11.3991Z" fill="black"/>
</svg>
