<svg width="24" height="24" viewBox="0 0 24 24" fill="none" xmlns="http://www.w3.org/2000/svg">
<path opacity="0.2" fill-rule="evenodd" clip-rule="evenodd" d="M12 24C18.6274 24 24 18.6274 24 12C24 5.37258 18.6274 0 12 0C5.37258 0 0 5.37258 0 12C0 18.6274 5.37258 24 12 24Z" fill="black"/>
<path fill-rule="evenodd" clip-rule="evenodd" d="M5.6546 8.28199C5.92218 7.47545 6.58033 6.81421 7.21798 6.27767C7.36145 6.17357 7.46393 6.21589 7.4423 6.3383C7.43205 6.45213 7.41156 6.56053 7.39106 6.66892C7.37056 6.77732 7.35007 6.88572 7.33982 6.99954C7.29883 7.30957 7.29883 7.59901 7.31932 7.90904C7.33982 8.30143 7.42294 8.67324 7.56641 9.02445C7.70989 9.35507 7.87499 9.68569 8.03896 9.99572C8.45116 10.864 8.86221 11.7312 9.25277 12.5995C9.29643 12.7018 9.34009 12.8028 9.38347 12.9032C9.5245 13.2297 9.66255 13.5492 9.78795 13.8808C9.95191 14.335 10.0339 14.7697 9.89043 15.2445C9.60234 16.1951 8.82122 16.8976 8.10159 17.5176C8.08307 17.5331 8.05943 17.5547 8.03289 17.5789C7.88315 17.7157 7.64138 17.9364 7.71102 17.6206C7.75695 17.3704 7.81958 17.1245 7.8821 16.8791C7.95906 16.577 8.03585 16.2755 8.08109 15.9675C8.17174 15.2723 7.84453 14.5457 7.5542 13.9011C7.51631 13.8169 7.47906 13.7342 7.44344 13.6531C7.20272 13.106 6.93864 12.574 6.67519 12.0433C6.51121 11.713 6.34747 11.3832 6.18977 11.0505C5.77757 10.2039 5.34602 9.23266 5.6546 8.28199ZM15.0725 8.28199C15.3401 7.4766 15.9982 6.81536 16.6359 6.27767C16.7805 6.17357 16.883 6.21589 16.8613 6.33945C16.8511 6.45328 16.8306 6.56167 16.8101 6.67007C16.7896 6.77846 16.7691 6.88686 16.7588 7.00069C16.7179 7.31072 16.7179 7.60015 16.7384 7.91018C16.7588 8.30258 16.842 8.67438 16.9854 9.02559C17.1289 9.35622 17.294 9.68684 17.458 9.99686C17.8702 10.8652 18.2812 11.7323 18.6718 12.6006C18.7155 12.7029 18.7591 12.804 18.8025 12.9044C18.9435 13.2308 19.0816 13.5503 19.207 13.8819C19.3709 14.3361 19.4529 14.7708 19.3095 15.2456C19.0214 16.1963 18.2402 16.8987 17.5206 17.5188C17.5021 17.5343 17.4785 17.5559 17.4519 17.5801C17.3022 17.7168 17.0604 17.9376 17.1301 17.6217C17.176 17.3715 17.2386 17.1256 17.3011 16.8802C17.3781 16.5781 17.4549 16.2767 17.5001 15.9686C17.5908 15.2734 17.2636 14.5468 16.9732 13.9022C16.9353 13.8181 16.8981 13.7354 16.8625 13.6543C16.6233 13.1098 16.3605 12.5813 16.0984 12.0539C15.9326 11.7202 15.7669 11.387 15.6077 11.0505C15.1955 10.2039 14.7639 9.23266 15.0725 8.28199Z" fill="black"/>
<path fill-rule="evenodd" clip-rule="evenodd" d="M11.7831 4.70655C11.0635 5.30602 10.2823 6.02904 9.84964 6.87561C9.54106 7.47507 9.50007 8.09513 9.66404 8.71404C9.87013 9.45765 10.1571 10.2013 10.4657 10.9243C11.0623 12.3085 11.8434 13.6104 12.4196 15.0153C12.6257 15.5106 12.8512 16.0689 12.8921 16.6272C12.9331 17.309 12.7065 18.032 12.5221 18.6727C12.4811 18.8592 12.3581 19.1063 12.3786 19.2927C12.3991 19.4369 12.4811 19.3751 12.5642 19.3133C12.9138 19.0445 13.2634 18.7345 13.5719 18.4244C14.4145 17.6191 15.3813 16.5437 15.2993 15.2841C15.2583 14.767 15.0112 14.2717 14.8062 13.7969C14.5796 13.2398 14.3337 12.7032 14.0866 12.1655C13.6346 11.1531 13.1609 10.1612 12.6678 9.16936C12.5039 8.81814 12.2978 8.48752 12.1748 8.13631C11.9892 7.66154 11.9072 7.16504 11.8867 6.66968C11.8662 6.29788 11.8867 5.90548 11.9277 5.53368C11.9482 5.28543 12.0302 5.05891 12.0302 4.81066C12.0917 4.583 11.9687 4.56241 11.7831 4.70655Z" fill="black"/>
</svg>
