<svg xmlns="http://www.w3.org/2000/svg" width="32" height="32" fill="none" viewBox="0 0 32 32">
  <g clip-path="url(#a)">
    <path fill="#000001" d="M32 1.53h-1.53v15.24H32V1.53Zm-3.05 18.28h-1.52v1.53h3.04v-4.57h-1.52v3.04Zm-1.52-1.52H25.9v1.52h1.53v-1.52Zm1.52-6.1h-4.57v1.53h4.57v-1.53Zm0-3.04h-4.57v1.52h4.57V9.15Zm0-3.05H25.9v1.52h3.05V6.1Zm0-3.05h-7.62v1.53h7.62V3.05ZM25.9 16.77h-1.52v1.52h1.52v-1.52Zm-3.04-1.53v-4.57h-1.53v15.24h1.53v-9.14h1.52v-1.53h-1.52Zm1.52-9.14H12.19v1.52h12.19V6.1Zm-3.05 19.81h-6.09v1.52h6.09v-1.52ZM19.81 3.05h-4.57v1.53h4.57V3.05ZM4.57 13.72v9.14h13.71v-9.14H4.57Zm12.19 3.05h-1.52v1.52h-1.53v1.52H9.14v-1.52H7.62v-1.52H6.09v-1.53h1.53v1.53h1.52v1.52h4.57v-1.52h1.53v-1.53h1.52v1.53Zm-3.05 13.71h-1.52V32h3.05v-4.57h-1.53v3.05Zm0-27.43h-1.52v1.53h1.52V3.05ZM30.47 0H10.66v1.53h19.81V0ZM12.19 28.96h-1.53v1.52h1.53v-1.52Zm-1.53-1.53H9.14v1.53h1.52v-1.53Zm-1.52-1.52H1.52v1.52h7.62v-1.52Z"/>
    <path fill="#000001" d="M21.33 10.67V9.15H10.66V1.53H9.14v7.62H1.52v1.52h19.81Zm-19.81 0H0v15.24h1.52V10.67Z"/>
  </g>
  <defs>
    <clipPath id="a">
      <path fill="#fff" d="M0 0h32v32H0z"/>
    </clipPath>
  </defs>
</svg>
