<svg xmlns="http://www.w3.org/2000/svg" width="32" height="32" fill="none" viewBox="0 0 32 32">
  <path fill="#000001" d="M3.045 25.91h7.62v4.57h1.52v-4.57h9.15v4.57h1.52v-4.57h6.1v4.57h1.52V7.62h-1.52v16.76h-16.77V7.62h-1.52V4.57h-1.52V3.05h16.76V1.52H6.095v1.53h-1.53v1.52h-1.52v3.05h1.52V6.1h1.53V4.57h1.52V6.1h-1.52v1.52h-1.53v15.24h-1.52V7.62h-1.52v22.86h1.52v-4.57Z"/>
  <path fill="#000001" d="M28.955 4.57h-1.53v3.05h1.53V4.57Zm-1.53-1.52h-1.52v1.52h1.52V3.05Zm-3.05 9.14h-7.61v1.53h-1.53v6.09h1.53v-4.57h1.52v-1.52h4.57v1.52h1.52v4.57h1.53v-6.09h-1.53v-1.53Zm-9.14-3.05h9.14V7.62h1.53V6.1h-12.19v1.52h1.52v1.52Zm9.14 10.67h-7.61v1.52h7.61v-1.52Z"/>
  <path fill="#000001" d="M22.855 15.24h-1.52v1.52h1.52v-1.52Zm-1.52 1.52h-1.53v1.53h1.53v-1.53Zm-1.53-1.52h-1.52v1.52h1.52v-1.52Z"/>
</svg>
