<svg xmlns="http://www.w3.org/2000/svg" width="32" height="32" fill="none" viewBox="0 0 32 32">
  <g clip-path="url(#a)">
    <path fill="#000001" d="M32 9.14h-1.53v12.19H32V9.14Zm-1.53-1.52h-1.52v1.52h1.52V7.62Z"/>
    <path fill="#000001" d="M16.76 21.33V9.14h-1.52V7.62h6.09v4.57h1.52V7.62h6.1V6.1h-6.1V4.57h4.58V0h-6.1v6.1H7.62v1.52H6.09v1.52H4.57v12.19H3.05v1.53h10.66v1.52h1.53V32h1.52v-9.14h4.57V32h1.52v-9.14h7.62v-1.53H16.76Zm6.09-19.81h3.05v1.53h-3.05V1.52Zm-7.61 16.77h-1.53v1.52h1.53v1.52H7.62v-9.14h7.62v6.1Z"/>
    <path fill="#000001" d="M13.71 16.76h-1.52v1.53h1.52v-1.53Zm0 7.62h-3.04v1.52h3.04v-1.52Zm-3.04-9.14v-1.53H9.14v1.53h1.52v1.52h1.53v-1.52h-1.52Zm0 10.66H9.14v1.53h1.53V25.9Zm-1.53 1.53H1.52v1.52h7.62v-1.52Zm-6.09-4.57H1.52v1.52h1.53v-1.52Zm-1.53 1.52H0v3.05h1.52v-3.05Z"/>
  </g>
  <defs>
    <clipPath id="a">
      <path fill="#fff" d="M0 0h32v32H0z"/>
    </clipPath>
  </defs>
</svg>
