<svg xmlns="http://www.w3.org/2000/svg" width="32" height="32" fill="none" viewBox="0 0 32 32">
  <g clip-path="url(#a)">
    <path fill="#000001" d="M30.47 1.53h-1.52V0h-4.57v1.53h-1.52v1.52h-1.53v4.57h1.53v1.53h1.52v1.52h4.57V9.15h1.52V7.62H32V3.05h-1.53V1.53Zm-3.04 7.62H25.9V7.62h1.53v1.53Zm0-3.05H25.9V1.53h1.53V6.1Zm1.52 9.14h-1.52v15.24h1.52V15.24Zm-1.52 15.24H1.52V32h25.91v-1.52Zm-7.62-13.71v6.09h6.09v-6.09h-6.09Zm4.57 4.57h-3.05v-3.05h3.05v3.05Zm-10.67 6.09H3.05v1.53h10.66v-1.53Zm6.1-22.85H7.62V6.1h12.19V4.58Zm1.52 6.09V9.15H7.62V6.1H6.09v3.05H4.57v1.52h16.76ZM9.14 22.86H3.05v1.52h6.09v-1.52Zm18.29-7.62v-1.52H25.9v-1.53h-1.52v1.53H4.57v-3.05H3.05v3.05H1.52v1.52h25.91Zm-25.91 0H0v15.24h1.52V15.24Z"/>
  </g>
  <defs>
    <clipPath id="a">
      <path fill="#fff" d="M0 0h32v32H0z"/>
    </clipPath>
  </defs>
</svg>
