<svg xmlns="http://www.w3.org/2000/svg" viewBox="0 0 14 14" fill="none" shape-rendering="crispEdges"><metadata xmlns:rdf="http://www.w3.org/1999/02/22-rdf-syntax-ns#" xmlns:xsi="http://www.w3.org/2001/XMLSchema-instance" xmlns:dc="http://purl.org/dc/elements/1.1/" xmlns:dcterms="http://purl.org/dc/terms/"><rdf:RDF><rdf:Description><dc:title>Pixel Art Neutral</dc:title><dc:creator>DiceBear</dc:creator><dc:source xsi:type="dcterms:URI">https://www.figma.com/community/file/1198754108850888330</dc:source><dcterms:license xsi:type="dcterms:URI">https://creativecommons.org/publicdomain/zero/1.0/</dcterms:license><dc:rights>„Pixel Art Neutral” (https://www.figma.com/community/file/1198754108850888330) by „DiceBear”, licensed under „CC0 1.0” (https://creativecommons.org/publicdomain/zero/1.0/)</dc:rights></rdf:Description></rdf:RDF></metadata><mask id="viewboxMask"><rect width="14" height="14" rx="0" ry="0" x="0" y="0" fill="#fff" /></mask><g mask="url(#viewboxMask)"><rect fill="#cb9e6e" width="14" height="14" x="0" y="0" /><g transform="translate(-1 -2)"><path fill="#fff" d="M4 5h3v3H4zM9 5h3v3H9z"/><path fill="#5b7c8b" d="M10 6h1v1h-1zM5 6h1v1H5z"/></g><g transform="translate(-1 -2)"><path d="M2 5h5v1H4v1H3V6H2V5ZM7 7v1H4V7h3ZM9 7H7V6h2v1ZM12 7H9v1h3V7ZM12 6H9V5h5v1h-1v1h-1V6Z" fill="#4b4b4b"/><path fill="#000" fill-opacity=".3" d="M4 6h3v1H4zM9 6h3v1H9z"/><path fill="#fff" fill-opacity=".2" d="M12 5h2v1h-2zM2 5h2v1H2zM7 6h2v1H7z"/></g><g transform="translate(-1)"><path d="M10 9v1H9v1H7v-1h2V9h1Z" fill="#c98276"/></g></g></svg>