<svg height="512pt" viewBox="0 0 512 512" width="512pt" xmlns="http://www.w3.org/2000/svg"><path d="m416 512h-320c-53.023438 0-96-42.976562-96-96v-320c0-53.023438 42.976562-96 96-96h320c53.023438 0 96 42.976562 96 96v320c0 53.023438-42.976562 96-96 96zm0 0" fill="#f5e6fe"/><path d="m373.328125 330.65625h-160c-17.648437 0-32-14.351562-32-32v-160c0-5.886719 4.785156-10.65625 10.671875-10.65625s10.671875 4.769531 10.671875 10.671875v160c0 5.886719 4.785156 10.671875 10.671875 10.671875h160c5.886719-.015625 10.65625 4.753906 10.65625 10.65625 0 5.886719-4.769531 10.65625-10.671875 10.65625zm0 0" fill="#d9a4fc"/><path d="m320 384c-5.886719 0-10.671875-4.769531-10.671875-10.671875v-160c0-5.886719-4.785156-10.671875-10.671875-10.671875h-160c-5.886719 0-10.65625-4.769531-10.65625-10.65625s4.769531-10.671875 10.671875-10.671875h160c17.648437 0 32 14.351563 32 32v160c0 5.902344-4.769531 10.671875-10.671875 10.671875zm0 0" fill="#be63f9"/></svg>