<svg width="25" height="25" viewBox="0 0 25 25" fill="none" xmlns="http://www.w3.org/2000/svg">
<rect x="0.0649414" y="0.0650024" width="24" height="24" fill="white" fill-opacity="0.01"/>
<path d="M0.0649414 0.0650024H24.0649M0.0649414 0.0650024V24.065M0.0649414 0.0650024L24.0649 24.065M24.0649 0.0650024V24.065M24.0649 0.0650024L0.0649414 24.065M24.0649 24.065H0.0649414" stroke="#DADEE4" stroke-width="0.13"/>
<circle cx="12.0649" cy="12.065" r="10" stroke="#DADEE4" stroke-width="0.13"/>
<rect x="2.06494" y="4.065" width="20" height="16" rx="1" stroke="#DADEE4" stroke-width="0.13"/>
<rect x="4.06494" y="2.065" width="16" height="20" rx="1" stroke="#DADEE4" stroke-width="0.13"/>
<rect x="3.06494" y="3.065" width="18" height="18" rx="1" stroke="#DADEE4" stroke-width="0.13"/>
<circle cx="12.0649" cy="12.065" r="4" stroke="#DADEE4" stroke-width="0.13"/>
<path fill-rule="evenodd" clip-rule="evenodd" d="M22.0649 12.065C22.0649 17.5878 17.5878 22.065 12.0649 22.065C6.54209 22.065 2.06494 17.5878 2.06494 12.065C2.06494 6.54215 6.54209 2.065 12.0649 2.065C17.5878 2.065 22.0649 6.54215 22.0649 12.065ZM11.5052 6.57175C11.6892 7.09247 11.4163 7.66379 10.8956 7.84784C9.76733 8.24662 8.82282 9.04061 8.23064 10.0643C7.9541 10.5424 7.34237 10.7057 6.86431 10.4292C6.38625 10.1526 6.22289 9.54092 6.49943 9.06286C7.32693 7.63235 8.64632 6.52159 10.2291 5.96216C10.7498 5.77811 11.3211 6.05103 11.5052 6.57175ZM12.0649 14.065C13.1695 14.065 14.0649 13.1696 14.0649 12.065C14.0649 10.9604 13.1695 10.065 12.0649 10.065C10.9604 10.065 10.0649 10.9604 10.0649 12.065C10.0649 13.1696 10.9604 14.065 12.0649 14.065Z" fill="#09244B"/>
</svg>
