<svg width="24" height="24" viewBox="0 0 24 24" fill="none" xmlns="http://www.w3.org/2000/svg">
<g clip-path="url(#clip0_16_1575)">
<path d="M17.0002 12C17.2654 12 17.5198 12.1054 17.7073 12.2929C17.8949 12.4804 18.0002 12.7348 18.0002 13V22H6.00022V13C6.00022 12.7348 6.10558 12.4804 6.29312 12.2929C6.48065 12.1054 6.73501 12 7.00022 12H17.0002ZM10.0002 14H8.00022V16H10.0002V14ZM12.0002 6C13.1147 5.99967 14.2072 6.30972 15.1553 6.89541C16.1034 7.4811 16.8697 8.31928 17.3682 9.316L15.5782 10.211C15.2462 9.54616 14.7355 8.98697 14.1034 8.59613C13.4713 8.2053 12.7429 7.99827 11.9997 7.99827C11.2566 7.99827 10.5281 8.2053 9.89605 8.59613C9.26397 8.98697 8.75327 9.54616 8.42122 10.211L6.63222 9.316C7.13075 8.31928 7.89702 7.4811 8.84515 6.89541C9.79327 6.30972 10.8858 5.99967 12.0002 6ZM12.0002 2C13.8575 1.9996 15.6783 2.51647 17.2584 3.49267C18.8385 4.46888 20.1154 5.86584 20.9462 7.527L19.1572 8.422C18.4926 7.09297 17.471 5.97529 16.2069 5.19425C14.9428 4.41321 13.4862 3.99968 12.0002 4C10.5143 3.99968 9.05763 4.41321 7.79352 5.19425C6.52941 5.97529 5.50781 7.09297 4.84322 8.422L3.05322 7.527C3.88408 5.86569 5.16123 4.46862 6.74151 3.49241C8.32178 2.51619 10.1427 1.99941 12.0002 2Z" fill="#09121F"/>
</g>
<defs>
<clipPath id="clip0_16_1575">
<rect width="24" height="24" fill="white"/>
</clipPath>
</defs>
</svg>
