<svg width="24" height="24" viewBox="0 0 24 24" fill="none" xmlns="http://www.w3.org/2000/svg">
<path d="M8 3.25C5.37665 3.25 3.25 5.37665 3.25 8V18C3.25 19.5188 4.48122 20.75 6 20.75C7.51878 20.75 8.75 19.5188 8.75 18V15C8.75 13.4812 7.51878 12.25 6 12.25H4.75V8C4.75 6.20507 6.20507 4.75 8 4.75H16C17.7949 4.75 19.25 6.20507 19.25 8V12.25H18C16.4812 12.25 15.25 13.4812 15.25 15V18C15.25 19.5188 16.4812 20.75 18 20.75C19.5188 20.75 20.75 19.5188 20.75 18V8C20.75 5.37665 18.6234 3.25 16 3.25H8Z" fill="black"/>
</svg>
