<svg width="24" height="24" viewBox="0 0 24 24" fill="none" xmlns="http://www.w3.org/2000/svg">
<path d="M4.22315 3.28381C3.96565 3.20382 3.67357 3.26577 3.46967 3.46967C3.26577 3.67357 3.20382 3.96565 3.28381 4.22315C3.31872 4.33554 3.38067 4.44133 3.46967 4.53033L19.4697 20.5303C19.5587 20.6193 19.6645 20.6813 19.7769 20.7162C20.0343 20.7962 20.3264 20.7342 20.5303 20.5303C20.7342 20.3264 20.7962 20.0343 20.7162 19.7769C20.6813 19.6645 20.6193 19.5587 20.5303 19.4697L4.53033 3.46967C4.44133 3.38067 4.33554 3.31872 4.22315 3.28381Z" fill="black"/>
<path d="M2.25 7C2.25 6.51313 2.37652 6.05582 2.59848 5.65914L8.75512 11.8158C8.75172 11.8767 8.75 11.9382 8.75 12C8.75 13.7949 10.2051 15.25 12 15.25C12.0618 15.25 12.1233 15.2483 12.1842 15.2449L16.6893 19.75H5C3.48122 19.75 2.25 18.5188 2.25 17V7Z" fill="black"/>
<path d="M21.4015 18.3409C21.6235 17.9442 21.75 17.4869 21.75 17V7C21.75 5.48122 20.5188 4.25 19 4.25H17.8284C17.4969 4.25 17.179 4.1183 16.9445 3.88388L16.1161 3.05546C15.6004 2.53973 14.9009 2.25 14.1716 2.25H9.82843C9.09908 2.25 8.39961 2.53973 7.88388 3.05546L7.05546 3.88388C7.0369 3.90244 7.01783 3.92035 6.99826 3.9376L11.8158 8.75512C11.8767 8.75172 11.9382 8.75 12 8.75C13.7949 8.75 15.25 10.2051 15.25 12C15.25 12.0618 15.2483 12.1233 15.2449 12.1842L21.4015 18.3409Z" fill="black"/>
</svg>
