<svg width="24" height="24" viewBox="0 0 24 24" fill="none" xmlns="http://www.w3.org/2000/svg">
<path d="M10.4116 2.46615C8.72273 2.31262 7.29875 3.70931 7.41957 5.40079L8.02249 13.8416C7.43903 13.4671 6.74497 13.25 6 13.25C3.92893 13.25 2.25 14.9289 2.25 17C2.25 19.0711 3.92893 20.75 6 20.75C8.07107 20.75 9.75 19.0711 9.75 17C9.75 16.8272 9.73826 16.6567 9.71544 16.4894L8.91576 5.29392C8.86084 4.52506 9.50811 3.8902 10.2758 3.95999L17.2394 4.59304C17.8494 4.6485 18.3294 5.13786 18.373 5.74885L19.0225 14.8416C18.439 14.4671 17.745 14.25 17 14.25C14.9289 14.25 13.25 15.9289 13.25 18C13.25 20.0711 14.9289 21.75 17 21.75C19.0711 21.75 20.75 20.0711 20.75 18C20.75 17.8272 20.7383 17.6567 20.7154 17.4894L19.8692 5.64198C19.7732 4.29779 18.7172 3.22121 17.3752 3.09921L10.4116 2.46615Z" fill="black"/>
</svg>
