<svg width="24" height="24" viewBox="0 0 24 24" fill="none" xmlns="http://www.w3.org/2000/svg">
<path d="M5.34733 8.63051C5.37392 8.58358 5.40514 8.54023 5.44023 8.50089L5.86006 8.92072C5.34743 8.63033 5.34733 8.63051 5.34733 8.63051Z" fill="black"/>
<path fill-rule="evenodd" clip-rule="evenodd" d="M5.34745 15.3697C5.48061 15.6047 5.72987 15.75 6 15.75H9.46669L15.5987 19.6336C15.8297 19.7799 16.1221 19.7889 16.3616 19.6571C16.4116 19.6296 16.4576 19.5968 16.4991 19.5598L5.86006 8.92072L5.34733 8.63051L5.34683 8.63139L5.34585 8.63313L5.34282 8.63853L5.33262 8.65685C5.32405 8.67233 5.31201 8.69427 5.29699 8.7221C5.26697 8.77774 5.22495 8.85713 5.17492 8.95573C5.07516 9.15235 4.94205 9.42831 4.80844 9.74663C4.55282 10.3557 4.25 11.2232 4.25 12C4.25 12.7768 4.55282 13.6443 4.80844 14.2534C4.94205 14.5717 5.07516 14.8477 5.17492 15.0443C5.22495 15.1429 5.26697 15.2223 5.29699 15.2779C5.31201 15.3057 5.32405 15.3277 5.33262 15.3431L5.34282 15.3615L5.34585 15.3669L5.34745 15.3697Z" fill="black"/>
<path d="M20.5303 20.5303C20.3264 20.7342 20.0343 20.7962 19.7769 20.7162C19.6645 20.6813 19.5587 20.6193 19.4697 20.5303L3.46967 4.53033C3.38067 4.44133 3.31872 4.33554 3.28381 4.22315C3.20382 3.96565 3.26577 3.67357 3.46967 3.46967C3.67357 3.26577 3.96565 3.20382 4.22315 3.28381C4.33554 3.31872 4.44133 3.38067 4.53033 3.46967L20.5303 19.4697C20.6193 19.5587 20.6813 19.6645 20.7162 19.7769C20.7962 20.0343 20.7342 20.3264 20.5303 20.5303Z" fill="black"/>
<path d="M16.75 13.6893V5C16.75 4.72655 16.6012 4.47478 16.3616 4.34294C16.1221 4.21109 15.8297 4.22008 15.5987 4.36639L10.5957 7.53499L16.75 13.6893Z" fill="black"/>
</svg>
