<svg width="24" height="24" viewBox="0 0 24 24" fill="none" xmlns="http://www.w3.org/2000/svg">
<path d="M20.75 5C20.75 4.74007 20.6154 4.49867 20.3943 4.36201C20.1732 4.22536 19.8971 4.21293 19.6646 4.32918L15.7472 6.28789L6.91773 8.25H6.5C4.70508 8.25 3.25 9.70507 3.25 11.5C3.25 12.8393 4.0602 13.9893 5.21711 14.4869C5.17006 14.613 5.13584 14.7458 5.11612 14.8839L4.51631 19.0825C4.31519 20.4904 5.40765 21.75 6.82983 21.75C7.85441 21.75 8.75952 21.0826 9.06239 20.1038L10.5205 15.3916L15.8097 16.3377L19.7538 17.7084C19.9831 17.7881 20.2368 17.7519 20.4347 17.6112C20.6325 17.4705 20.75 17.2428 20.75 17V5Z" fill="black"/>
</svg>
