<?xml version="1.0" ?><svg id="Layer_1" style="enable-background:new 0 0 1080 1080;" version="1.1" viewBox="0 0 1080 1080" xml:space="preserve" xmlns="http://www.w3.org/2000/svg" xmlns:xlink="http://www.w3.org/1999/xlink"><style type="text/css">
	.st0{fill:none;stroke:#131B24;stroke-width:1.5;stroke-linecap:round;stroke-linejoin:round;stroke-miterlimit:10;}
	.st1{fill:#126C0F;}
	.st2{fill:#0D590B;}
	.st3{fill:#FFFFFF;}
	.st4{fill:#FD4926;}
	.st5{fill:#FFFFFF;stroke:#131B24;stroke-width:1.5;stroke-linecap:round;stroke-linejoin:round;stroke-miterlimit:10;}
	.st6{fill:#FFBE8F;}
	.st7{fill:#B0CFF8;}
	.st8{fill:#131B24;}
	.st9{fill:#3B1308;}
	.st10{fill:#8F1A09;}
	.st11{fill:none;}
	.st12{fill:#543613;}
	.st13{fill:#A5B48D;}
	.st14{fill:#FBE099;}
	.st15{fill:#FBC143;}
	.st16{fill:#F9A525;}
	.st17{fill:#F9A525;stroke:#131B24;stroke-width:1.5;stroke-linecap:round;stroke-linejoin:round;stroke-miterlimit:10;}
	.st18{fill:none;stroke:#8F1A09;stroke-width:1.5;stroke-linecap:round;stroke-linejoin:round;stroke-miterlimit:10;}
	.st19{fill:#E8F1FD;}
	.st20{fill:#8FB8F4;}
	.st21{fill:none;stroke:#131B24;stroke-width:1.5;stroke-linecap:round;stroke-miterlimit:10;}
	.st22{fill:#1D2E59;}
	.st23{fill:#A66946;}
	.st24{fill:#5C301B;}
	.st25{fill:#BD3C2A;}
	.st26{fill:none;stroke:#8F1A09;stroke-width:1.5;stroke-linecap:round;stroke-miterlimit:10;}
	.st27{fill:none;stroke:#FFFFFF;stroke-width:1.5;stroke-linecap:round;stroke-linejoin:round;stroke-miterlimit:10;}
	.st28{fill:none;stroke:#FFFFFF;stroke-width:1.5;stroke-linecap:round;stroke-miterlimit:10;}
	.st29{fill:none;stroke:#B0CFF8;stroke-width:1.5;stroke-linecap:round;stroke-miterlimit:10;}
	.st30{fill:#EB9B7F;}
	.st31{fill:none;stroke:#B0CFF8;stroke-width:1.5;stroke-linecap:round;stroke-linejoin:round;stroke-miterlimit:10;}
	.st32{fill:#CB582C;}
	.st33{fill:#690C04;}
	.st34{fill:#829467;}
	.st35{fill:#22391F;}
	.st36{fill:#FBB07B;}
	.st37{fill:none;stroke:#693D30;stroke-width:1.5;stroke-linecap:round;stroke-linejoin:round;stroke-miterlimit:10;}
	.st38{fill:none;stroke:#3B1308;stroke-width:1.5;stroke-linecap:round;stroke-linejoin:round;stroke-miterlimit:10;}
	.st39{fill:#693D30;}
	.st40{fill:#E68B7A;}
	.st41{fill:#FD4926;stroke:#131B24;stroke-width:1.5;stroke-linecap:round;stroke-linejoin:round;stroke-miterlimit:10;}
	.st42{fill:#231F20;}
	.st43{fill:#3E4560;}
	.st44{fill:#3E4560;stroke:#131B24;stroke-width:1.5;stroke-linecap:round;stroke-linejoin:round;stroke-miterlimit:10;}
	.st45{fill:#1A1A1A;}
	.st46{fill:none;stroke:#22391F;stroke-width:3;stroke-linecap:round;stroke-linejoin:round;stroke-miterlimit:10;}
	.st47{fill:none;stroke:#126C0F;stroke-width:1.5;stroke-linecap:round;stroke-linejoin:round;stroke-miterlimit:10;}
	.st48{fill:#6E4D41;}
	.st49{fill:#C79E8F;}
	.st50{fill:none;stroke:#6E4D41;stroke-width:1.5;stroke-linecap:round;stroke-linejoin:round;stroke-miterlimit:10;}
	.st51{fill:none;stroke:#231F20;stroke-linecap:round;stroke-linejoin:round;stroke-miterlimit:10;}
	.st52{fill:#4C4CFF;}
	.st53{fill:#EB9B7F;stroke:#131B24;stroke-width:1.5;stroke-linecap:round;stroke-linejoin:round;stroke-miterlimit:10;}
	.st54{fill:none;stroke:#126C0F;stroke-width:5;stroke-miterlimit:10;}
	.st55{fill:none;stroke:#FBC143;stroke-width:1.5;stroke-linecap:round;stroke-linejoin:round;stroke-miterlimit:10;}
	.st56{fill:#C8D8E3;}
	.st57{opacity:0.6;fill:none;stroke:#EB9B7F;stroke-width:1.5;stroke-linecap:round;stroke-linejoin:round;stroke-miterlimit:10;}
	.st58{fill:#79848A;}
	.st59{fill:#734830;}
	.st60{fill:#E0866E;}
	.st61{fill:none;stroke:#734830;stroke-width:1.5;stroke-linecap:round;stroke-linejoin:round;stroke-miterlimit:10;}
	.st62{fill:none;stroke:#131B24;stroke-width:4;stroke-linecap:round;stroke-linejoin:round;stroke-miterlimit:10;}
	.st63{fill:#47322A;}
	.st64{fill:#ED1C24;}
	.st65{clip-path:url(#SVGID_00000154425199188539689550000013706761446619657656_);}
	.st66{fill:#FBC143;stroke:#131B24;stroke-width:1.5;stroke-linecap:round;stroke-linejoin:round;stroke-miterlimit:10;}
	.st67{fill:none;stroke:#A66946;stroke-width:1.5;stroke-linecap:round;stroke-linejoin:round;stroke-miterlimit:10;}
	.st68{fill:none;stroke:#22391F;stroke-width:10;stroke-linecap:round;stroke-linejoin:round;stroke-miterlimit:10;}
	.st69{fill:none;stroke:#FD4926;stroke-width:1.5;stroke-linecap:round;stroke-linejoin:round;stroke-miterlimit:10;}
	.st70{fill:#B0CFF8;stroke:#131B24;stroke-width:1.5;stroke-linecap:round;stroke-linejoin:round;stroke-miterlimit:10;}
	.st71{fill:none;stroke:#CF7332;stroke-width:1.5;stroke-linecap:round;stroke-linejoin:round;stroke-miterlimit:10;}
	.st72{fill:#666666;}
	.st73{fill:#D49A6F;}
	.st74{fill:#543B32;}
	.st75{fill:#A66946;stroke:#131B24;stroke-width:1.5;stroke-linecap:round;stroke-linejoin:round;stroke-miterlimit:10;}
	.st76{fill:#E73C1F;}
	.st77{fill:#201D1E;}
	.st78{fill:#CC6C4E;}
</style><g><line class="st0" x1="535.1" x2="671.1" y1="604.6" y2="636.4"/><g><g><path class="st41" d="M321.2,554.8c15.2,26.6,30,55.3,43.8,86.2c2.8,6.4,5.6,12.7,8.2,19c-8.9,4.2-17.8,8.4-26.7,12.6     l-42.7-102.7C309.6,564.8,315.4,559.8,321.2,554.8z"/><path class="st42" d="M323.4,577.3c6.9,15.5,13.7,31.7,20.4,48.5c5.9,14.9,11.4,29.5,16.5,43.8c-6.5,0.1-13,0.3-19.5,0.4     c-1.9-4.5-4-10.1-6.1-16.8c0,0-2.5-8.1-4.6-17.2C325.2,613.7,323.5,580,323.4,577.3z"/></g><g><rect class="st30" height="54.4" width="24.3" x="264.2" y="503.5"/><path class="st8" d="M288.5,523.6V543c-0.2-0.1-0.4-0.1-0.6-0.2c-4.9-1.7-8.7-5.5-12-9.5c-4.9-6-8.9-12.8-11.7-20.1     c-0.1-0.2-0.2-0.5-0.3-0.7l0.3-0.9l1.1-3.6C274.6,510.4,282.8,516,288.5,523.6z"/></g><path class="st4" d="M363.1,747.2c-8.3,15.7-24.8,42.2-54.8,65.3c-37.1,28.5-74.8,36.5-93.1,39.2c-1.8-21.5-8.6-104.9-10.4-175.9    c-0.3-13.3-0.7-33.7,3.3-60c3.9-25.8,10.3-46.6,15.4-60.7c6.5-2.3,13.1-4.6,19.6-6.9c7.1-2.5,14.1-5,21.1-7.5    c2.1,4.8,6.7,8.1,11.9,8.4c7.8,0.5,12.3-5.8,12.5-6.1c6.4,1.3,12.8,2.6,19.2,3.8c1.1,0.2,2.3,0.5,3.4,0.7c0,0,6.6,2.1,11.5,10.6    C327.2,566.2,343.6,642.5,363.1,747.2z"/><g><path class="st3" d="M311.1,587.1l-33-37.8l-13.8,49.6L243,548.3c7.1-2.5,14.1-5,21.1-7.5c2.1,4.8,6.7,8.1,11.9,8.4     c7.8,0.5,12.3-5.8,12.5-6.1c6.4,1.3,12.8,2.6,19.2,3.8L311.1,587.1z"/><line class="st0" x1="295.2" x2="311.2" y1="544.1" y2="547.7"/><line class="st0" x1="264.1" x2="241.7" y1="540.8" y2="548.7"/><polyline class="st0" points="249.2,563 264.2,598.9 272.7,568.4    "/><polyline class="st0" points="292.2,566 311.1,587.1 308.2,552.3    "/></g></g><path class="st0" d="M718.2,941.5c2.2,17.9,4.4,35.8,6.6,53.6"/><path class="st42" d="M247.3,703.6c11.8,15.4,45.7,40.9,49.2,6c-14-16.3-32.3-29-46.7-45.2c-14.1-14.2-23.2-32.3-33-49.3   C213.5,646.3,228.5,679.4,247.3,703.6z"/><g><path class="st1" d="M813.2,344.4l-5.8,200.5c0,0-198.1,37.9-202.2-26.2c-0.5-7-0.7-15-0.7-23.8c0-6.9,0.1-14.2,0.3-21.9    c1-40.6,4.8-89.7,7.8-124.5c0.5-5.9,1-11.4,1.5-16.3c1.6-17.3,2.8-28.2,2.8-28.2L813.2,344.4z"/><path class="st8" d="M730.3,549.2c-6.7-13.2,20.2-43.3,80.7-90.6c12.8,39.9-15.9,92.1-58,98.2    C740.4,556.8,732.8,554.3,730.3,549.2z"/></g><g><g><path class="st15" d="M164,901.8c106.1-137.1,212.2-274.2,318.3-411.3l394.8,73.7l19.1-19.5v23l-301.4,451.3     C451.6,979.4,307.2,941.6,164,901.8z"/><polygon class="st14" points="581.8,1015.6 896.2,544.8 482.3,467.5 146.5,897.1    "/></g><polyline class="st0" points="429,974 581.8,1015.6 701.6,836.1   "/><line class="st0" x1="603.1" x2="779.5" y1="1006.6" y2="742.5"/><line class="st0" x1="146.5" x2="350" y1="910.9" y2="966.3"/></g><g><g><path class="st15" d="M273.5,783.6c4.5,11.8,21.6,18.1,55.9,30.7c34.5,12.7,51.7,19,68.8,15.8c24.4-4.6,39.2-23.2,68.9-60.3     c28.3-35.4,43.6-54.6,37.5-73.4c-4.7-14.4-19.3-20.7-48.1-33c-31.4-13.5-57.7-24.8-84.4-15.5c-5.8,2-14.7,6.1-46.5,45.6     C286.6,742.1,267.1,766.8,273.5,783.6z"/><path class="st13" d="M273.5,775.2c4.5,11.8,21.6,18.1,55.9,30.7c34.5,12.7,51.7,19,68.8,15.8c24.4-4.6,39.2-23.2,68.9-60.3     c28.3-35.4,43.6-54.6,37.5-73.4c-4.7-14.4-19.3-20.7-48.1-33c-31.4-13.5-57.7-24.8-84.4-15.5c-5.8,2-14.7,6.1-46.5,45.6     C286.5,733.8,267.1,758.4,273.5,775.2z"/></g><polygon class="st0" points="359.9,757.7 345.8,722.8 340,730.2 329.4,704 300.5,741.1 328.4,745 322.6,752.4   "/><polygon class="st0" points="482.8,719.1 468.7,684.2 462.9,691.6 452.3,665.4 423.3,702.4 451.3,706.4 445.5,713.8   "/><polygon class="st0" points="448.5,764.5 434.4,729.6 428.6,737 418.1,710.8 389.1,747.9 417.1,751.8 411.3,759.2   "/><polygon class="st0" points="411,811.3 396.9,776.4 391.1,783.8 380.5,757.6 351.6,794.7 379.6,798.6 373.7,806.1   "/></g><g><path class="st15" d="M473.2,549.2c-6.6,6.2-39.6,38.4-31.5,67.5c10,35.6,75.5,44,147.9,53.2c60.4,7.7,97.6,11.9,137.2-8.8    c24.6-12.9,64.9-43.2,60.2-72.4c-4.9-29.9-54.6-43-98.6-54.5C633.5,519.9,533,493.5,473.2,549.2z"/><path class="st13" d="M468.9,540.6c-6.6,6.2-39.6,38.4-31.5,67.5c10,35.6,75.5,44,147.9,53.2c60.4,7.7,97.6,11.9,137.2-8.8    c24.6-12.9,64.9-43.2,60.2-72.4c-4.9-29.9-54.6-43-98.6-54.5C629.1,511.2,528.6,484.8,468.9,540.6z"/></g><path class="st34" d="M456.6,559.3c-2.6,3.2-4,8.7-1.9,12.7c1.5,2.8,4.2,3.8,9.2,5.7c3.4,1.3,8.1,2.6,13.8,3.1   c-0.5,1.9-0.9,4.6-0.4,7.7c3.5,18.7,39.6,21.4,107.4,36.4c65.7,14.6,98.8,26.9,135.7,8.7c1.7-0.8,3.1-1.6,4-2.1   c0.2-2-0.7-3.8-2-5.3c-2-2.2-4.2-3.4-5-3.8c-105.1-44.9-148.6-52.2-235.5-66.8C476.4,554.6,462.4,552.1,456.6,559.3z"/><g><path class="st7" d="M521.6,578.8l-65.6-11c-4-0.7-6.8-4.5-6.1-8.5s4.5-6.8,8.5-6.1c0.3,0.1,0.7,0.1,1,0.2l63.6,19.5    C526.5,574.1,525.2,579.4,521.6,578.8L521.6,578.8z"/><g><path class="st7" d="M689.7,586.3c-39.8-9.4-79.6-18.8-119.5-28.1c-21.6-4.7-42.9-11.1-64.7-14.7c-29.3-0.1-32.1,48.5-3.9,53.2     c31.7,7.5,63.5,14.9,95.2,22.3c30,6.6,59.7,14.8,89.8,20.6C713.8,639.6,715.9,590.3,689.7,586.3z"/><path class="st22" d="M708.6,612.8c0,5.4,0,16.8-8.4,23.1c-5.5,4-11.6,3.8-13.7,3.7c-1,0-11.2-0.7-17.6-9.3     c-4.8-6.4-4.6-13.3-4.5-17.5c0.1-3.8,0.4-14.4,8.7-21.4c1.4-1.2,6.2-5.2,13.5-5.4c1.1,0,8.6-0.2,14.8,5.2     C708.6,597.6,708.6,607.2,708.6,612.8z"/></g><path class="st7" d="M687.2,609.9l65.7,10.3c4,0.6,6.8,4.4,6.2,8.5c-0.6,4-4.4,6.8-8.5,6.2c-0.3,0-0.7-0.1-1-0.2l-63.8-18.9    C682.3,614.6,683.5,609.3,687.2,609.9L687.2,609.9z"/></g><g><path class="st15" d="M434.3,890.5c-3.8,1.8-4.5,7.4-2.1,10.7c2.4,3.4,7,4.6,11.2,4c4.1-0.6,7.9-2.6,11.5-4.7    c28.6-16.6,53.5-38.7,79.5-59.1c7-5.5,14.1-10.9,21.8-15.4c15.3-9,32.6-14.3,48.6-22c16.1-7.7,31.6-18.6,39.2-34.7    c1.4-3,2.5-6.2,2-9.4c-0.6-4-3.8-7.3-7.6-8.9c-3.7-1.6-8-1.7-12-1.1c-7.8,1.1-15,4.4-21.9,8.1c-14.8,8.1-28.3,18.6-39.8,30.8    c-9.6,10.2-17.9,21.6-28.6,30.7L434.3,890.5z"/><g><path class="st0" d="M540.7,814.6c13.5-19.8,34.9-41.5,56.7-60.2c10.2-8.8,33.1-20.7,38.5-15.4c6.1,5.9-3.9,19-12.5,28.4     c-18.9,20.7-59.6,41.9-80,50.9"/><path class="st0" d="M542.6,817.1c15.1-14.5,60.8-58,82.9-69.2c3.2-1.6,10-4.8,14-2.3c4.1,2.5,5,11.6-1.6,22.9     c-13.9,23.8-70.6,44.1-93.3,51.2"/><path class="st0" d="M540,816.8c18.5-11,54.1-33.4,72.3-51c10.8-10.5,23.1-23.8,18.4-29.6c-3.9-4.9-14.5-6.4-30.5,2.7     c-25.2,14.4-51.4,55.8-62.5,75.3"/><path class="st7" d="M545.5,821l-101.4,80.6c-4.1,1.4-8.6,0.2-11.2-3.1c-2.8-3.5-2.9-8.5-0.2-12.2c35.2-25,70.4-50,105.6-74.9     L545.5,821z"/></g></g><g><path class="st34" d="M295.9,721.7c0.2,5.8,0.5,11.6,0.7,17.4c0.7,15.7,3.5,18.3,4.7,19.6c6.1,6.1,16.5,4,17.9,3.8    c2.1-0.4,9.5-1.9,12.8-8c1.3-2.4,1.5-5.3,1.3-11.3c-0.2-6-1.1-12-1.9-18c-0.3-2.4-0.7-4.8-1.6-7c-2.2-5.5-7.5-9.4-13.3-10.4    c-5.8-1-11.9,0.9-16.6,4.4L295.9,721.7z"/><path class="st34" d="M327.5,720.3c2.8,1,5.6,2.1,8.4,3.1c1.3,0.5,2.7,1,4.1,1.3c0.7,0.1,1.5,0.2,2.1,0c1.2-0.5,1.6-2.1,1.1-3.3    c-0.4-1.2-1.5-2.1-2.5-2.8c-5.5-4-12.3-6.2-19.1-6L327.5,720.3z"/><g><path class="st30" d="M315,702.8c8.8,2.2,15,5.3,18.9,7.6c5.5,3.3,7.9,5.9,7.9,8.4c0,0.4,0,1.2-0.6,1.7c-1.3,1.1-4.1-1-8.4-2.3     c-1.9-0.5-4-0.9-6.6-0.9c0.3,4.6,1,8.3,1.6,10.7c1.5,6.1,2.6,12.2,4.4,18.2c0.2,0.7,0.8,2.5-0.1,4.2c-0.5,0.9-1.3,1.7-1.9,1.8     c-1.5,0.2-4.2-3.4-9.8-20.8c0.4,5.2,1.2,9.3,1.9,11.9c1.3,5.3,3.9,14,2,15.8c-0.5,0.5-1.1,0.6-1.1,0.6c-1.3,0.2-2.5-1-2.9-1.5     c-3.1-3.3-4.8-12.2-4.8-12.4c-0.6-3.2-1.6-7.7-3.3-13.2c0.4,5.1,1,9.2,1.5,12.1c1.4,7.9,3.1,13,0.5,15.4     c-0.4,0.3-0.9,0.8-1.6,0.8c-3.3,0-5.8-10.7-7.4-20.6c0,3.1,0.1,5.5,0.1,7.1c0.2,5.2,0.4,7.9-0.9,8.5c0,0-0.6,0.3-1.7-0.1     c-3.8-1.5-5.2-24.3-5.7-36.5l-5.6-3.4l15.3-15.1L315,702.8z"/><path class="st0" d="M312.5,732c0.7,3.2,1.4,6.4,2.2,9.6c0.8,3.4,1.6,6.8,2.4,10.2"/><path class="st0" d="M304.5,735.4c0.5,4.4,1.3,8.8,2.3,13.1"/><path class="st0" d="M320.2,729.8c0.5,3.5,1.5,6.9,3,10.1"/><path class="st0" d="M327.3,714.5c-0.8,0.9-1.1,2.1-1.2,3.3c0,1.2,0.2,2.4,0.4,3.6"/></g><path class="st41" d="M257.5,628.6c10.2,28.5,27.8,59.9,56.9,69.6c0.1,1.4,0.2,9.9-6.4,16.5c-5.3,5.3-11.6,6.1-13.5,6.3    c0,0-34.7-9.2-58.2-42.9c-21.6-30.9-21.6-62.4-21.2-72.1"/></g><g><g><path class="st9" d="M379.4,596.4c-0.8,1.4-1.9,2.9-3.4,4.4c-5.1,5.2-11.5,6.3-14.3,6.7c-1-3.5-1.8-8-1.6-13.2     c0.1-1.7,0.2-3.3,0.5-4.8c-1-0.2-6.3-1.5-9.5-6.8c-3.2-5.2-2-10.5-1.7-11.4c-10.3-2.9-16.8-13.5-13.3-23.7     c-9.3-6.4-12.2-19.1-9.7-29.9c-2.3-12.7-4.7-25.4-7-38l6.6-11.8c13.8,10.2,14.9,28.2,11.7,43.7c10.9,6.6,16.2,20.2,10.9,32     c8.3,4.7,12.3,14,9.9,23c8,2.4,11.4,11.6,8.6,19.2c2.4,1.3,5.3,3.2,8.2,6C376.9,593.3,378.3,594.9,379.4,596.4z"/><path class="st37" d="M337,511.6c-1.9-1-3.6-2.4-5-4.1"/><path class="st37" d="M347.8,543.3c-5.4-3.5-10.4-7.6-15-12.1"/><path class="st37" d="M341.6,540.2c-1.2,4.3-1.7,8.8-1.5,13.3"/><path class="st37" d="M357.8,565.8c-1.1-0.1-2.1-0.7-3.1-1.2c-2.9-1.7-5.5-3.8-7.8-6.3"/><path class="st37" d="M353.7,565.8c-0.1,2.8,0,5.5,0.2,8.3"/><path class="st37" d="M367,585.9c-0.9,0-1.7-0.4-2.5-0.9c-2.8-1.6-5.4-3.4-8-5.3"/><g><path class="st4" d="M360.4,591.3c-0.6,0-1.2-0.4-1.4-1c-0.3-0.8,0.1-1.6,0.9-1.9c2.5-1,4.9-2.3,7-4.1c0.6-0.5,1.6-0.5,2.1,0.2      c0.5,0.6,0.5,1.6-0.2,2.1c-2.3,2-5,3.6-7.9,4.6C360.7,591.3,360.5,591.3,360.4,591.3z"/></g></g><g><path class="st9" d="M246.7,518.4c0.8,2.4,2.6,8.5,0.8,16.1c-1.8,7.1-5.8,11.5-7.6,13.3c1,2.5,3.1,9,1.4,17.1     c-1.7,8.3-6.4,13.5-8.3,15.4c0.8,1.9,2.7,6.8,1.6,13c-0.8,4.5-2.9,7.7-4.1,9.4c2.5,5,2.7,17.6,2.7,17.6s-9.8-0.9-16.6-3.3     c0.4-5.4,5-15.7,5-15.7c-1.1-1.3-3.2-4.3-3.7-8.5c-0.9-7.7,4.2-13.2,5-13.9c-1.1-1.8-5.8-10.3-3.1-20.7     c1.7-6.3,5.3-10.4,7.2-12.2c-0.6-1-6.9-13.3-0.6-24.4c2.7-4.7,6.5-7.4,8.8-8.7c-0.9-3.1-3.5-14.6,2.4-26.5     c3.6-7.3,8.9-11.5,11.9-13.6l5.9,12.5c0.9,2.5,3,9.5,0.7,18C253.8,511.6,248.7,516.6,246.7,518.4z"/><path class="st37" d="M239.6,504.8c2,5.3,4.2,10.4,6.6,15.5"/><path class="st37" d="M242.1,514.6c-2.1,1.9-4.2,3.9-6.1,6"/><path class="st37" d="M231.4,533.3c2.2,5.4,4.9,10.6,7.9,15.6"/><path class="st37" d="M234.9,542.6c0-0.1,0.2-0.1,0.2,0c0,0.1-0.1,0.1-0.1,0.2c-2.8,2.1-5.3,4.7-7.3,7.6"/><path class="st37" d="M226.7,566.9c2,5.3,4.4,10.4,7.1,15.4"/><path class="st37" d="M230,575.5c-2.8,2.9-5.3,6.1-7.3,9.6"/><g><path class="st4" d="M220.4,603.7c-0.5-0.4-0.7-1-0.5-1.6c0.3-0.8,1.1-1.2,1.9-0.9c2.6,0.9,5.3,1.3,8,1.2c0.8,0,1.5,0.6,1.5,1.5      c0,0.8-0.6,1.5-1.5,1.5c-3.1,0.1-6.1-0.4-9-1.4C220.7,603.9,220.5,603.8,220.4,603.7z"/></g></g><g><path class="st30" d="M257.8,491.6c-5-5.9-15.7-2.7-14.8,6c0.6,6.8,10.2,12.8,16.7,8.8"/><path class="st0" d="M247.3,492c3.4,0.3,6.6,1.8,9.1,4.1"/></g><g><path class="st30" d="M329.8,488.7c3.6-5.7,13.3-4.3,13.6,3.4c0.4,5.9-5.8,12.8-11.9,10.1"/><path class="st0" d="M331.5,493c1.5-3,4.7-5.1,8-5.3"/></g><path class="st30" d="M261.7,454.6c-16.2,19.2-6.1,50.6,7.2,66.8c2.7,3.2,17,20.9,33.2,18c1.7-0.3,7.6-1.6,14.8-9.2    c19.1-20.2,25.9-62.3,5.6-80.3c-8-7.1-17.9-8.3-21.7-8.8C299.6,440.9,275.4,438.3,261.7,454.6z"/><path class="st9" d="M303.9,439.2c0.2,2.6,0.5,5.2,0.7,7.8c3.7,6.2,8.6,13.4,15.2,20.8c5.2,5.8,10.3,10.6,15,14.4    c6.2-17.4,0.9-34.6-10.6-41.2C316.2,436.5,307.3,438.3,303.9,439.2z"/><g><path class="st9" d="M255,493.1c-7.9-12.3-9-27.6-2.5-40c6.8-12.9,21.8-22.6,36.5-20.3c6.5,1,12.1,4.1,15,6.4     c0.2,2.5,0.5,5,0.7,7.4c-4.1,7.2-10.7,17.3-21.2,27.1C272.9,483.5,262.5,489.5,255,493.1z"/><path class="st37" d="M307.8,445.2c3.9,2.2,8.7,5.3,13.5,9.7c6.2,5.7,10.3,11.5,12.9,15.9"/><path class="st37" d="M301.8,444.5c-3.7,5.1-8.6,11-14.9,16.9c-9.1,8.5-18.2,14.3-25.5,18.1"/><path class="st38" d="M304.9,447.5c1,4.7,3.3,9,5.7,13.2c2.9,5.1,6.4,10.3,11.7,13"/></g><g><path class="st0" d="M311.8,490.2c0,2.4,0,4.8,0,7.3c1.7,0.3,3.4,0.5,5.1,0.8c-0.2,0.6-0.6,1.9-1.7,3.1c-1.3,1.4-2.7,1.9-3.4,2.1     "/><path class="st42" d="M283.7,480.5c5-2.6,10.7-3.7,16.3-3.3c0.8,0.1,1.4,0.8,1.4,1.6c-0.1,0.8-0.8,1.4-1.6,1.4     c-5.1-0.4-10.2,0.6-14.7,2.9C283.4,483.9,282.1,481.4,283.7,480.5L283.7,480.5z"/><path class="st42" d="M318.9,477.1c4.3-0.1,8.6,0.7,12.6,2.3c0.6,0.2,0.9,0.9,0.7,1.5c-0.2,0.6-0.9,0.9-1.5,0.7     c-3.7-1.3-7.7-1.8-11.6-1.5C317.1,480.2,316.9,477.2,318.9,477.1L318.9,477.1z"/><path class="st0" d="M293.8,513.3c1.1,1,4,3.2,8.4,3.8c4.2,0.6,7.5-0.5,8.9-1.1"/><g><path class="st8" d="M294.6,493.9L294.6,493.9c-1.4,0-2.6-1.1-2.6-2.6v-2.9c0-1.4,1.1-2.6,2.6-2.6l0,0c1.4,0,2.6,1.1,2.6,2.6      v2.9C297.1,492.7,296,493.9,294.6,493.9z"/><path class="st0" d="M293.6,486.8c1.1,0.1,2.4,0.1,3.8-0.1c0.7-0.1,1.3-0.2,1.8-0.3"/></g><g><path class="st8" d="M322.9,492.6L322.9,492.6c-1.4,0-2.6-1.1-2.6-2.6v-2.9c0-1.4,1.1-2.6,2.6-2.6l0,0c1.4,0,2.6,1.1,2.6,2.6      l0,2.9C325.5,491.4,324.3,492.6,322.9,492.6z"/><path class="st0" d="M322.3,485.8c1.8-0.1,3.4-0.3,4.7-0.6"/></g></g></g><g><path class="st0" d="M738.8,945.2c0.2,16.5,1,33.1,2.3,49.6"/><path class="st0" d="M800.7,962.6c1.8,18,3.6,36,5.4,54.1"/><path class="st0" d="M819.4,951.8c0.7,20.3,1.3,40.6,2,60.8"/><path class="st0" d="M868,919.9c1.8,18,3.6,36,5.4,54.1"/><path class="st0" d="M886.8,909.1c0.7,20.3,1.3,40.6,2,60.8"/><path class="st15" d="M888.7,895.1l-3.6-2c-13.3-25.2-61.2-32.3-95.7-25.5c-28,5.5-61,22.8-74.1,45.3l-5.3,1l-0.4,16.2    c-0.1,0.9-0.1,1.8-0.1,2.7c0,0.4,0,0.8,0,1.2l0,1.6l0.1-0.1c0.9,12.2,7.9,20.8,9.2,22.3c32.3,38.5,145.1,19.2,166.2-32.4    c0.9-2.2,3.6-8.9,3.7-17l0,0V895.1z"/><path class="st14" d="M789.5,854.3c-35.7,7-79.8,33.3-80,65.1c-0.1,13.6,7.9,23.5,9.3,25.1C751.1,983,864,963.6,885,912.1    c1.3-3.2,6.5-16,1.7-28.8C876.2,855.3,825.5,847.2,789.5,854.3z"/></g><g><path class="st43" d="M880.9,867.7c21.7,48.2,19.6,84.3,16.8,102.4c-0.4,2.5-7.9,49.8-20.4,50.2c-2.8,0.1-4.9-2.2-6-3.3    c-7.8-8.5-2.9-24.8,3.3-61.5c3.1-18.4,4.6-27.6,5-35.3c0.9-22.7-4.1-41.5-8.6-53.7"/><path class="st43" d="M764.4,926.2c-2.3-1.6-21.9-15.6-24.2-41.4c-2.1-23.5,11.6-40.7,15.3-45.3c23-28.7,70.5-37.9,101.7-12.2    c21.1,17.4,37.4,52.9,26.9,75.4c-6.9,14.8-23.6,18.3-56.9,25.2C797.8,934.1,780.9,937.6,764.4,926.2z"/><path class="st8" d="M750.9,872.8c0,0,28.8-10.7,48.9,5C794.9,892.2,776.3,871.1,750.9,872.8z"/><path class="st44" d="M855.3,864c-2.1,1.1-12.1,7-16.2,20.4c-5.1,16.4,2.9,30.3,3.8,31.9c-2.2,0.5-25.4,6.7-26.1,17.2    c0,0.7-0.1,2,0.6,3.2c3.5,5.6,19.9-1.4,25.6-3.8c8.1-3.4,19.5-9.5,31.9-20.8"/><g><path class="st43" d="M751.6,959.2c-0.1,0.2-0.6,1.8-2.1,2.7c-5.9,3.8-19.1-6.6-22.8-10.4c-18.6-18.9,6.3-71.4,8.4-75.6l-3.3,31     c-0.9,8-0.4,14.5,0.9,19.6c0,0,0,0,0,0c1.2,4.9,3.1,8.7,5.1,11.6c3.8,5.6,9.6,10.4,12.4,14.8     C751.6,955.2,752.3,957.3,751.6,959.2z"/><path class="st42" d="M750.2,953c-5.4-2.2-12.4-6.3-17.9-13.6c-4.9-6.5-11.9-19.9-6.9-26.4c1.1-1.4,2.6-2.2,3.8-2.6     c0.2,7.1,1.7,12.3,3.5,16.2c0,0,0,0,0,0c1.2,4.9,3.1,8.7,5.1,11.6C741.6,943.8,747.4,948.6,750.2,953z"/></g><g><path class="st4" d="M806.6,919.2c-0.7,0-1.5-0.2-2.2-0.6c-1.9-1.2-2.4-3.7-1.2-5.5c2.8-4.4,4.1-8.7,3.8-12.9     c-0.9-13.7-18.9-23-30.8-25.8c-13.7-3.3-25.8,0.4-33.6,4.1c-2,0.9-4.4,0.1-5.3-1.9c-0.9-2-0.1-4.4,1.9-5.3     c8.9-4.3,22.9-8.5,38.9-4.7c12.2,2.9,35.6,13.6,36.9,33.1c0.4,5.9-1.3,11.9-5.1,17.7C809.2,918.6,807.9,919.2,806.6,919.2z"/></g><path class="st43" d="M811.8,917.9c-0.9,6.4-4.7,30-23.3,40.8c-8.1,4.7-24.4,10-29.4,4.2c-0.3-0.3-1.3-1.6-1.4-3.3    c0-1.4,0.6-2.6,1.7-3.8c0.5-0.5,1.1-1,1.8-1.5c5.1-3.7,15-6.7,22.2-13.2c5-4.5,11-12.6,13.2-28.5"/><path class="st42" d="M808.2,918.1c-0.8,4-2.9,11.3-8.6,18.6c-5.7,7.3-12.1,11-14.7,12.3c-9.1,4.8-18.2,5.3-23.8,5.3    c5.1-3.7,15-6.7,22.2-13.2c5-4.5,11-12.6,13.2-28.5l5,1.8C804,916.1,806.3,917.3,808.2,918.1z"/><g><path class="st43" d="M786.4,944.7c-20.5,10.1-40.9-1.1-44.9-3.3c-4.6-2.5-12.9-7.2-17.8-17c-6.5-13.1-4.1-30,3.7-39.5     c18.2-22.2,73.9-14.3,82.9,12.3C815.6,912.9,804.9,935.5,786.4,944.7z"/><g><path class="st0" d="M760.5,924.8c-0.1,0.6-0.4,5.7,3.5,9.1c2,1.8,4.3,2.2,5.4,2.3"/><path class="st0" d="M760.6,924.9c-0.2,2.5-1.1,4.9-2.6,6.8s-3.6,3.4-6,4.2"/></g><path class="st45" d="M766.1,921.9c0.1-1.1-1.8-2.3-3.4-2.7c-3.1-0.8-6.7,0.6-6.8,2.1c0,0.5,0.4,0.7,2.2,2.8c1,1,1.8,1.9,2.3,2.5     c0.6-0.6,1.4-1.3,2.6-2.1C765,922.9,766.1,922.7,766.1,921.9z"/><path class="st0" d="M752,907.6c-0.3-0.5-0.7-0.9-1.1-1.2c-2.5-2.1-5.8-3.2-9.1-3.5c-3.3-0.3-6.6,0.1-9.8,0.8"/><path class="st0" d="M770.8,909.3c3.1-0.7,7.8-1.3,13.4-0.4c3.4,0.5,6.2,1.5,8.4,2.4"/><path class="st43" d="M747.8,877.7l-16.4-18.8c-2,3.7-4.3,8.9-5.8,15.5c-1.4,6.1-1.6,11.4-1.5,15.4"/><path class="st7" d="M724.1,889.9c2.1-1.6,4.6-3.4,7.5-5.1c3.2-1.8,6.2-3.2,8.8-4.2c-0.9-2.4-2-5.1-3.4-7.9     c-2.1-4.2-4.5-7.7-6.6-10.6c-1.6,3.1-3.5,7.3-4.7,12.4C724,880.6,723.9,886,724.1,889.9z"/><path class="st43" d="M787.2,882.2l18.6-16.7c1.5,3.9,3.2,9.4,3.9,16.1c0.6,6.2,0.2,11.5-0.4,15.5"/><path class="st7" d="M807,868.8c-2.2,2.3-4.7,5.3-7.1,9c-2.1,3.3-3.7,6.4-4.9,9.1c2,0.5,4.5,1.4,7.1,2.8c3.4,1.8,5.9,4,7.5,5.7     c0.4-3.3,0.7-7.3,0.3-11.9C809.5,877.5,808.2,872.5,807,868.8z"/><path class="st0" d="M787.2,882.2l18.6-16.7c1.5,3.9,3.2,9.4,3.9,16.1c0.6,6.2,0.2,11.5-0.4,15.5"/><path class="st0" d="M776.7,874.2c-0.8,3.4-1.9,6.7-3.3,9.9"/><path class="st0" d="M767.2,873.4c-0.4,2.7-0.7,5.4-1.1,8.1"/><path class="st0" d="M757.8,873c-0.1,2.7-0.2,5.4-0.2,8.1"/><path class="st0" d="M747.8,877.7l-16.4-18.8c-2,3.7-4.3,8.9-5.8,15.5c-1.4,6.1-1.6,11.4-1.5,15.4"/></g></g><g><polygon class="st15" points="400.2,920.2 382.7,916 369.3,928 367.9,910 352.4,901 369,894.1 372.8,876.5 384.5,890.2     402.4,888.4 393,903.7   "/><polygon class="st15" points="714.9,760.5 697.4,756.3 684,768.3 682.6,750.3 667.1,741.3 683.7,734.4 687.5,716.8 699.2,730.5     717.1,728.7 707.7,744   "/><polygon class="st15" points="329.6,868.1 316.7,865 306.8,873.8 305.8,860.6 294.4,854 306.6,848.9 309.4,836 318,846.1     331.2,844.7 324.2,856   "/><polygon class="st15" points="617.2,867 604.3,863.9 594.4,872.7 593.4,859.5 582,852.8 594.2,847.8 597,834.9 605.6,844.9     618.8,843.6 611.8,854.9   "/></g><g><g><path class="st30" d="M740.8,587.3c-13,15.1-23.7,26.7-31.1,34.4c-8.9,9.3-19.9,20.4-17.2,24.9c0.6,1,1.6,1.3,2,1.5     c3.9,1.4,8.5-3.4,17.9-12.6c2.8-2.8,7.2-7.1,12.9-12.6c0.7,0.3,1.4,0.6,2.1,1c-4.1,5.8-7.5,10.4-9.8,13.4     c-9.2,12.3-21.4,25.9-19.4,29.9c0.1,0.3,0.8,1.4,1.9,1.9c3.2,1.2,17.5-11.4,35.2-41.1c0.9,0.5,1.9,1,2.8,1.5     c-1.1,1.9-3.3,5.5-6.2,9.9c-10.3,15.9-24.1,31.3-21.8,34.5c0.7,0.9,1.8,1.1,2.3,1.2c6.3,1.2,28.9-30.7,34.6-40.1     c0.8,0.3,1.6,0.5,2.4,0.8c-3.9,8-7.2,14.3-9.6,18.8c-3,5.6-6.2,11.1-4.4,13c0.7,0.7,1.8,0.6,2.2,0.6c7.1-0.5,15.9-19.8,21.8-31.6     c3.6-7.3,9.1-17.9,16.5-30.6C764.3,599.8,752.5,593.5,740.8,587.3z"/><path class="st0" d="M738,629.9c-4.3,7.8-9.1,15.4-14.2,22.6"/><path class="st0" d="M749.4,635.8c-1.4,4.3-3.2,8.5-5.5,12.5"/><path class="st0" d="M727.3,624c-3.5,6.2-7.6,12-12.1,17.5"/></g><g><path class="st30" d="M500.3,525.7c-1.9,3.3-3.8,6.4-5.5,9.4c-7.4,12.8-13.1,23.3-17.2,31c-6,11.4-13,25.4-18.1,24.2     c-1.1-0.2-1.8-1.1-2-1.4c-2.6-3.3,0.4-9.2,6.2-21c1.7-3.5,4.4-9.1,7.8-16.2c-0.5-0.6-1-1.1-1.6-1.7c-4.2,5.7-7.5,10.4-9.6,13.6     c-8.8,12.6-17.7,28.6-22.2,27.9c-0.3,0-1.6-0.3-2.3-1.2c-2.1-2.6,5.2-20.2,27.7-46.5c-0.8-0.7-1.6-1.4-2.3-2.2     c-1.4,1.7-4.1,4.9-7.4,9c-11.8,14.8-21.9,32.8-25.8,31.6c-1.1-0.3-1.7-1.3-1.9-1.8c-3.2-5.6,19.9-37.2,26.9-45.6     c-0.5-0.7-1-1.4-1.5-2c-6.3,6.2-11.3,11.4-14.7,15.1c-4.3,4.7-8.6,9.4-10.9,8.3c-0.9-0.4-1.2-1.5-1.3-1.9     c-1.8-6.8,13.6-21.4,23-30.8c3.4-3.4,7.7-7.8,12.6-13.1c1.2-1.3,2.4-2.6,3.7-4c2.4-2.6,4.9-5.4,7.4-8.4c3.1,2.9,6.2,5.9,9.3,8.8     C487.2,513.2,493.7,519.4,500.3,525.7z"/><path class="st8" d="M500.3,525.7c-1.9,3.3-3.8,6.4-5.5,9.4c-13.7-1.6-30.7-10.4-34.5-24.5c1.8-1.8,3.4-4.5,6.2-4.9     C481.8,502.3,490,517.1,500.3,525.7z"/><path class="st0" d="M451.1,533.1c-4.5,3.8-8.6,8.1-12.3,12.7"/><path class="st0" d="M461.1,541.8c-3.8,3.9-7.2,8.3-10,13"/><path class="st0" d="M469.7,550.3c-7.3,8.8-13.9,18.1-19.8,27.9"/></g><path class="st1" d="M883.4,482.9c-0.7,45-70.5,115-93.4,121.3s-60.2-4-60-34.3c0.2-30.2,77.6-104.9,77.6-104.9l-2.6-102.3    L635,316.3c-5.5,45.6-13.8,69.6-23.3,90.5c-0.7,1.6-2,4.4-3.7,8c-6.8,14.4-20.8,42.1-37.7,61c-4.3,4.8-7.9,9.2-11.4,13.5    c-10.8,13.2-20.2,24.5-42.3,36.9C496.4,537.7,450,514,455,494.1c12.7-50.3,88.5-113.8,88.5-113.8s29.2-187.6,138.5-159.1    c38.9,8.5,87.5,17.3,87.5,17.3s62.7,26.2,83.4,57.1C873.5,326.7,884.1,437.9,883.4,482.9z"/><path class="st0" d="M798.7,382.4c1.6,34.4,8.8,82.6,8.8,82.6s-34.4,34.7-52.1,57.3"/><path class="st0" d="M615.6,323.2c-3.4,28.8-6.2,59-8.2,90.5c-1.4,22-2.3,43.4-2.8,64.1"/><path class="st8" d="M612.8,343.7l-4.8,71.2c-9,18.8-21.2,39.7-37.7,61c-5.8,7.4-11.6,14.3-17.3,20.6c8.5-13.1,17-27.9,25-44.4    C597.4,411.9,607.4,374.2,612.8,343.7z"/><g><g><line class="st46" x1="662.2" x2="731.7" y1="336.4" y2="389.7"/><line class="st46" x1="723.6" x2="670.3" y1="328.3" y2="397.8"/><line class="st46" x1="653.5" x2="740.4" y1="368.8" y2="357.3"/><line class="st46" x1="691.2" x2="702.7" y1="319.6" y2="406.5"/><g><polyline class="st46" points="696.5,309.2 691.2,319.6 683.4,310.9      "/><line class="st46" x1="691.2" x2="692.4" y1="319.6" y2="328.3"/></g><g><polyline class="st46" points="657.5,324.6 661.3,335.7 649.6,335.3      "/><line class="st46" x1="661.3" x2="668.3" y1="335.7" y2="340.9"/></g><g><polyline class="st46" points="734.9,324.2 723.9,327.9 724.4,316.3      "/><line class="st46" x1="723.9" x2="718.6" y1="327.9" y2="334.9"/></g><g><polyline class="st46" points="752,362.5 741.6,357.2 750.3,349.4      "/><line class="st46" x1="741.6" x2="732.9" y1="357.2" y2="358.3"/></g><g><polyline class="st46" points="658.4,403.2 669.5,399.4 669.1,411      "/><line class="st46" x1="669.5" x2="674.7" y1="399.4" y2="392.3"/></g><g><polyline class="st46" points="641.9,363.6 652.2,369 643.5,376.7      "/><line class="st46" x1="652.2" x2="661" y1="369" y2="367.9"/></g><g><polyline class="st46" points="736.7,401.7 733,390.6 744.6,391.2      "/><line class="st46" x1="733" x2="726" y1="390.6" y2="385.3"/></g><g><polyline class="st46" points="697.6,417.5 702.9,407.1 710.7,415.7      "/><line class="st46" x1="702.9" x2="701.7" y1="407.1" y2="398.4"/></g></g></g></g><g><path class="st37" d="M689.3,132.2c4.7,7.7,11.3,14.3,19,19"/><path class="st37" d="M712.4,125.2c2.8,5.3,5.8,10.5,9,15.6c2.8,4.4,5.8,8.8,10.2,11.4"/><path class="st9" d="M642.2,149.8c0,0-17.4-67.7,70.6-64.1c32.2,1.3,67.6,30.6,49.9,69.8c24.2,4.7,38.1,50.5,0,69.8    c-28,14.2-78.1-15.9-78.1-15.9L642.2,149.8z"/><path class="st30" d="M650.4,162.4c-22.7-31.3-19.2,23.2,3.3,19"/><path class="st30" d="M742.9,171.4c2.6-7.6,18.1-11.7,19.7-1.2c2,11.6-13.4,27.7-25,20.9"/><path class="st30" d="M769.4,238.6c-2.6,3.5-6.7,8.3-12.9,12.6c-1.8,1.2-24.8,16.4-40.7,6.2c-1.8-1.1-4.2-3.1-6.4-6.4    c-0.8-1.1-1.6-2.5-2.3-4v-34.7c0-9.4,0-16.1,0-16.1l20.6-9.9l7.2-3.5l2.6-1.3c5.3,17.4,10.5,34.9,15.8,52.3    C758.7,235.5,764.1,237,769.4,238.6z"/><path class="st46" d="M714.9,256.7c0,0,7.9,8.5,26.7,1.8c18.9-6.7,25.9-17.4,25.9-17.4"/><path class="st8" d="M731.6,208.5c-0.9,6-2.2,10.8-3.3,14.1c-2.9,8.7-7,20.9-16.4,23.8c-1.9,0.6-3.7,0.6-4.8,0.6    c0-11.6,0-23.1,0-34.7c5.8-9.4,12.7-18.1,20.6-25.9c2.1-2.1,4.3-4.2,6.6-6.2l0.7,2.8C733.8,191.4,732.7,200,731.6,208.5z"/><path class="st30" d="M646.2,135.3c0,0,5.7,103.2,45.5,111.3s56-98.3,56-98.3S681.1,89.8,646.2,135.3z"/><path class="st9" d="M651.9,156c-1.2,2.1-2.4,4-3.7,5.8c-2.3-4-6.7-12.8-5.9-24.1c0.3-3.9,0.8-10.7,5.7-17.2    c3.9-5.2,8.8-7.7,11.4-8.8C660.9,122.6,661.2,139.7,651.9,156z"/><path class="st9" d="M649.3,124.4c0,0,20.3,37.5,54.1,41.2c-13.2-12.8-23.7-31.8-23.7-31.8s11.8,22.9,47,33.3    c-3-6.6-4.4-9.6-4.4-9.6s5.4,5.3,13.5,7.8c-3-8.4-10.5-19.5-10.5-19.5c2.3,2.9,4.6,5.9,6.9,9c4,5.3,7.7,10.5,11.1,15.6    c1.4-2.9,15.8-33.2,2.6-52.4c-14.1-20.5-58-25.7-96.7,4.8V124.4z"/><path class="st37" d="M674.2,122c4.5,13.7,13.8,25.8,25.9,33.7"/><path class="st0" d="M743.9,175c2.8-3.6,7-6.1,11.6-6.8"/><path class="st0" d="M638.4,157.1c3.2,1.8,5.9,4.6,7.7,7.9"/><path class="st0" d="M672.2,170.4c-0.5,5.8-0.5,11.7-0.1,17.5c-7.9-6.5-4.2,7.1-0.9,9.9"/><path class="st8" d="M664,182.3L664,182.3c-1.8,0.3-3.6-0.9-3.9-2.7l-0.9-5.2c-0.3-1.8,0.9-3.6,2.7-3.9h0c1.8-0.3,3.6,0.9,3.9,2.7    l0.9,5.2C667.1,180.2,665.9,181.9,664,182.3z"/><path class="st8" d="M695.8,187.4L695.8,187.4c-1.8,0.3-3.6-0.9-3.9-2.7l-0.9-5.2c-0.3-1.8,0.9-3.6,2.7-3.9l0,0    c1.8-0.3,3.6,0.9,3.9,2.7l0.9,5.2C698.8,185.3,697.6,187.1,695.8,187.4z"/><path class="st0" d="M688,218.4c10.6,1.4,21.8-4.4,26.9-13.9"/><path class="st8" d="M650.2,162.5c0,0.1,0,0.6,0.2,1c0.9,1.7,4.8,1.1,11.2,0c5-0.9,6.8-1.5,7.3-2.9c0.1-0.2,0.4-1,0-1.7    C667.1,155.4,650.7,158.5,650.2,162.5z"/><path class="st8" d="M707.9,166.7c0,0.2,0.1,0.7-0.2,1.2c-1.1,2.1-5.7,1.3-13.5,0c-6-1.1-8.2-1.9-8.8-3.7c-0.1-0.2-0.4-1.2,0-2.1    C687.6,157.8,707.3,161.7,707.9,166.7z"/></g></g></svg>