<?xml version="1.0" ?><svg id="Layer_1" style="enable-background:new 0 0 1080 1080;" version="1.1" viewBox="0 0 1080 1080" xml:space="preserve" xmlns="http://www.w3.org/2000/svg" xmlns:xlink="http://www.w3.org/1999/xlink"><style type="text/css">
	.st0{fill:#6E4D41;}
	.st1{fill:#47322A;}
	.st2{fill:#FBE099;}
	.st3{fill:#131B24;}
	.st4{fill:#126C0F;}
	.st5{fill:none;stroke:#131B24;stroke-width:1.5;stroke-linecap:round;stroke-linejoin:round;stroke-miterlimit:10;}
	.st6{fill:#A5B48D;}
	.st7{fill:#ED1C24;}
	.st8{fill:#B0CFF8;}
	.st9{fill:#8FB8F4;}
	.st10{fill:#FD4926;}
	.st11{fill:#8F1A09;}
	.st12{fill:#FBB07B;}
	.st13{fill:#829467;}
	.st14{fill:#FBC143;}
	.st15{fill:#231F20;}
	.st16{fill:#C8D8E3;}
	.st17{fill:#1D2E59;}
	.st18{fill:#FFFFFF;}
	.st19{fill:#A66946;}
	.st20{fill:#EB9B7F;}
	.st21{fill:#FBC143;stroke:#131B24;stroke-width:1.5;stroke-linecap:round;stroke-linejoin:round;stroke-miterlimit:10;}
	.st22{fill:#734830;}
	.st23{fill:none;stroke:#A66946;stroke-width:1.5;stroke-linecap:round;stroke-linejoin:round;stroke-miterlimit:10;}
	.st24{fill:#3E4560;}
	.st25{fill:#1A1A1A;}
	.st26{fill:#3E4560;stroke:#131B24;stroke-width:1.5;stroke-linecap:round;stroke-linejoin:round;stroke-miterlimit:10;}
</style><g><g><path class="st0" d="M318,765.5c-0.10001,1.29999-2.20001,2.40002-4.89999,2.40002h-0.70001l0,0    c-2.60001,0-4.79999-1.09998-4.89999-2.40002L296,529.70001h32.70001L318,765.5z"/><path class="st0" d="M163.8,752.5c-0.3,1.29999-2.60001,2.09998-5.2,1.70001l-0.7-0.09998l0,0    c-2.60001-0.40002-4.60001-1.70001-4.5-3l23.2-235L209,520.50006L163.8,752.5z"/><path class="st1" d="M420.5,519.40002c-22.39999-13.5-73.39999-22.89999-132.60001-22.89999    s-110.10001,9.39999-132.60001,22.89999h-12.2v15.40002c0,21.20001,64.8,38.29999,144.8,38.29999    s144.80002-17.20001,144.80002-38.29999v-15.40002H420.5z"/><ellipse class="st0" cx="287.89999" cy="519.40002" rx="144.80002" ry="38.29999"/><path class="st1" d="M305.5,537.09998c-10.79999,10.5,9,14.29999,16.89999,13.29999c22.5-2.79999,40-7.40002,58.10001-17    c12.5-6.59998,15.10001-9.70001,14.70001-12c-0.70001-4-10.79999-5.29999-14.60001-5.79999    c-12.5-1.59998-23.5,0.59998-36.29999,4.70001C334.29999,523.5,320.79999,528.59998,305.5,537.09998z"/></g><ellipse class="st2" cx="602.20001" cy="822.29999" rx="363.20001" ry="159.5"/><path class="st3" d="M421,782c80.10001,14.29999,136.29999,24.70001,173,31.59998   c50.90002,9.59998,83.20001,15.90002,125.70001,6.5c25.20001-5.59998,44.20001-14.5,74.5-28.79999   c12.70001-6,32.70001-19.59998,71.29999-48.79999c6.20001-4.70001,12.90002-10.5,13.20001-18   c0.40002-10.90002-12.40002-17.59998-23.5-20.40002c-19-4.79999-38.79999-6-58.40002-6.90002   c-87.90002-3.79999-176.20001-0.40002-263.5,10.20001c-32.5,3.90002-66.60001,9.59998-92,29.40002   C434.5,751.79999,427.79999,766.90002,421,782z"/><g><path class="st4" d="M222.10001,381.39999c-3.5-3.39999-8.3-8.89999-11.8-16.70001c-6.10001-13.60001-7.39999-31.60001-2-34    c3.3-1.5,9.39999,2.79999,12.3,7.5c1.60001,2.60001,2.10001,5.10001,2.2,6.70001c-3.3-6.5-8.2-18.5-4.10001-30.29999    c0.60001-1.60001,2.60001-7.5,5.2-7.5c3.10001,0.10001,5.5,8.79999,7.2,16.79999c-5.5-16.89999-3.8-28.89999-2-35.60001    c0.5-1.70001,2.5-9.29999,4.8-9.20001c3.60001,0.20001,5.3,18.79999,6.39999,18.70001    c1.60001-0.20001-3.8-36.10001,5.60001-39.89999c0.10001-0.10001,2.10001-0.79999,4,0C255,260.10001,254,271.10001,254,271.79999    c3.79999-31.10001,7-39.5,9.5-39.5c1.79999,0,4.70001,4.3,5.20001,8.60001c0.20001,1.8-0.10001,3.39999-0.39999,4.5    c0.89999-6.7,2.60001-14.60001,6.10001-23.10001c2.10001-5.10001,6.29999-15.3,10-14.8    c1.10001,0.10001,3.20001,1.39999,4.79999,10c0.29999-5.2,1.39999-12.8,5.60001-20.8c4.70001-8.89999,13.39999-18.5,16.79999-16.8    c1.29999,0.60001,2.29999,3.10001,1,11c10.79999-20.8,36.39999-29.10001,13.5,2.2c1.10001-1.10001,4.70001-4.2,10.10001-4.7    c0.70001-0.10001,8.39999-0.7,9.79999,2.60001c1.70001,3.8-5.79999,10.60001-14,17.89999    c-7.70001,6.89999-14.60001,11.8-19.29999,15c33.10001-10.39999-3.20001,19.5-12.79999,24.2    c-0.10001,0.10001-0.20001,0.10001-0.20001,0.10001c0.10001,0.3,16.20001-6.5,18.70001-3.10001c0.20001,0.3,1,1.5-1.5,5.60001    c-6.39999,10.39999-20.29999,16.29999-28.29999,19.10001c19-3.79999,24.20001-2.89999,25-1    c1.39999,3.39999-9,11.70001-31.29999,24.89999c4-2.39999,16.60001-9.60001,20.10001-6c1.20001,1.20001,0.89999,3.20001,0.79999,4    c-1.5,11.5-28.89999,24.20001-34.10001,26.5c1.20001-0.79999,7.89999-5.29999,15-2.70001c1.5,0.5,3.5,1.29999,3.89999,2.70001    c0.70001,2.60001-4,7.79999-28,19.20001c11.5-1.89999,17.79999-1.60001,18.79999,0.79999    c1.39999,3.5-7.79999,11.39999-27.60001,23.60001c8.70001-1.29999,13.5-0.89999,14.39999,1.20001    c1.79999,4.10001-10.89999,14.5-38.10001,31.20001"/><path class="st4" d="M231.39999,378.39999c3.5-3.39999,8.3-8.89999,11.8-16.70001c6.10001-13.60001,7.39999-31.60001,2-34    c-3.3-1.5-9.39999,2.79999-12.3,7.5c-1.60001,2.60001-2.10001,5.10001-2.2,6.70001c3.3-6.5,8.2-18.5,4.10001-30.29999    c-0.60001-1.60001-2.60001-7.5-5.2-7.5c-3.10001,0.10001-5.5,8.79999-7.2,16.79999c5.5-16.89999,3.8-28.89999,2-35.60001    c-0.5-1.70001-2.5-9.29999-4.8-9.20001c-3.60001,0.20001-5.3,18.79999-6.39999,18.70001    c-1.60001-0.20001,3.8-36.10001-5.60001-39.89999c-0.10001-0.10001-2.10001-0.8-4,0    C198.5,257.10001,199.5,268.10001,199.5,268.79999c-3.8-31.10001-7-39.5-9.5-39.5c-1.8,0-4.7,4.3-5.2,8.60001    c-0.2,1.8,0.10001,3.39999,0.39999,4.5c-0.89999-6.7-2.60001-14.60001-6.10001-23.10001c-2.10001-5.10001-6.3-15.3-10-14.8    c-1.10001,0.10001-3.2,1.39999-4.8,10c-0.3-5.2-1.39999-12.8-5.60001-20.8c-4.7-8.89999-13.39999-18.5-16.8-16.8    c-1.3,0.60001-2.3,3.10001-1,11c-10.8-20.8-36.4-29.10001-13.5,2.2c-1.1-1.10001-4.7-4.2-10.1-4.7    c-0.7-0.10001-8.4-0.7-9.8,2.60001c-1.7,3.8,5.8,10.60001,14,17.89999c7.7,6.89999,14.6,11.8,19.3,15    c-33.1-10.39999,3.2,19.5,12.8,24.2c0.10001,0.10001,0.2,0.10001,0.2,0.10001c-0.10001,0.3-16.2-6.5-18.7-3.10001    c-0.2,0.3-1,1.5,1.5,5.60001c6.39999,10.39999,20.3,16.29999,28.3,19.10001c-19-3.79999-24.2-2.89999-25-1    c-1.39999,3.39999,9,11.70001,31.3,24.89999c-4-2.39999-16.60001-9.60001-20.10001-6c-1.2,1.20001-0.89999,3.20001-0.8,4    c1.5,11.5,28.89999,24.20001,34.09999,26.5c-1.2-0.79999-7.89999-5.29999-15-2.70001c-1.5,0.5-3.5,1.29999-3.89999,2.70001    c-0.7,2.60001,4,7.79999,28,19.20001c-11.5-1.89999-17.8-1.60001-18.8,0.79999c-1.39999,3.5,7.8,11.39999,27.60001,23.60001    c-8.7-1.29999-13.5-0.89999-14.39999,1.20001c-1.8,4.10001,10.89999,14.5,38.09999,31.20001"/><g><path class="st4" d="M275.60001,259.60001c4.29999-19.2,6.29999-39,5.79999-58.7c-0.10001-4.5-0.5-9.3-3.20001-12.89999     c-0.29999-0.39999-0.79999-0.89999-1.29999-0.89999c-0.60001,0-1.20001,0.5-1.60001,0.89999     c-5.29999,6.10001-7.5,14.2-9.60001,22c0.10001-7.60001-0.79999-15.2-2.5-22.7c-0.5-2.3-1.89999-5-4.20001-4.60001     c-0.79999,0.10001-1.39999,0.60001-1.89999,1.2c-2.2,2.39999-3.10001,6-2,9.10001c-2.3-7.39999-5.39999-14.5-9.2-21.2     c-2.8-4.89999-6.5-9.89999-11.89999-11.2c-0.8-0.2-1.7-0.3-2.3,0.2c-0.5,0.3-0.7,0.89999-0.89999,1.39999     c-2.60001,7.5-1.5,15.89999,1.60001,23.3c3.10001,7.3,8,13.7,12.89999,19.89999c-3-3.60001-6.7-5-11.3-5.7     c-1.7-0.2-3.5-0.2-5,0.60001c-2.2,1.2-3.2,3.89999-2.89999,6.3c0.3,2.5,1.7,4.60001,3.39999,6.39999     c6.39999,6.7,16.60001,8,24.10001,13.39999c-5-1.7-10.2-2.60001-15.39999-2.8c-2.89999-0.10001-6.5,0.5-7.3,3.3     c-0.8,2.60001,1.39999,5,3.5,6.7c10.3,8.7,21.3,16.39999,32.89999,23.10001c-0.5-0.39999-1-0.89999-1.5-1.3"/><path class="st5" d="M329.89999,185c-37.20001,38.5-66.19998,84.89999-84.39999,135.20001     c-7.10001,19.60001-12.5,40-12.7,60.70001"/><path class="st5" d="M245,188.7c5.8,8,13,19.8,18.39999,35c5.60001,15.7,7.5,29.60001,8.10001,39.59999"/><path class="st4" d="M388.79999,273.70001c5.70001-1.39999,9.70001-9.29999,2.60001-11.89999     c-9.5-4.29999-20.5-1-30.10001,2.89999c1.5,0.29999,11.10001-5.60001,9.10001-10.8c-6.60001-3-20.39999,5.8-26.39999,11.2     C346.5,262.5,359.70001,250.70001,349.70001,251c-12.10001,2.2-21.60001,11.5-31.29999,18.39999     c2.39999-2.60001,14.79999-15.60001,6.60001-16.3C312.40002,256.69998,302.40002,267.5,293.30002,276.5     c11.10001-27.10001-36.79999,15.89999-33.29999,31.89999c1.5,11.89999,26,8.20001,34.10001,5.10001     c9.60001-4.70001-3.89999-9.60001-9.29999-7.70001c12.79999,1.5,25.89999,2.89999,38.39999-0.20001     c13.79999-4.89999-1.89999-10.70001-8.79999-9.70001c6.5,0.20001,22.60001,0.39999,31-3.20001     c2-0.89999,2.89999-1.70001,2.89999-2.5c0-2.89999-11.60001-5.70001-10.79999-5.70001     c2.60001,0.20001,49.10001,8.89999,21.39999-8.5C367.39999,276.60001,380.29999,275.60001,388.79999,273.70001z"/><path class="st5" d="M251.2,309.20001c33.59999-21.70001,72.50002-35.20001,112.3-39"/><path class="st5" d="M123.6,182.10001c37.2,38.5,66.19999,84.89999,84.4,135.19998c7.10001,19.60001,12.5,40,12.7,60.70001"/><path class="st4" d="M56.2,243.89999c-5.7-1.39999-9.7-9.3-2.6-11.89999c9.5-4.3,20.5-1,30.1,2.89999     c-1.5,0.3-11.1-5.60001-9.1-10.8c6.6-3,20.4,5.8,26.4,11.2c-2.5-2.60001-15.7-14.39999-5.7-14.10001     c12.1,2.2,21.6,11.5,31.3,18.39999c-2.4-2.60001-14.8-15.60001-6.6-16.3c12.6,3.60001,22.6,14.39999,31.7,23.39999     c-11.10001-27.10001,36.8,15.90001,33.3,31.90001c-1.5,11.89999-26,8.20001-34.09999,5.10001     c-9.60001-4.70001,3.89999-9.60001,9.3-7.70001c-12.8,1.5-25.89999,2.89999-38.4-0.20001c-13.8-4.89999,1.9-10.70001,8.8-9.70001     c-6.5,0.20001-22.6,0.39999-31-3.20001c-2-0.89999-2.9-1.70001-2.9-2.5c0-2.89999,11.6-5.7,10.8-5.7     c-2.6,0.2-49.1,8.90001-21.4-8.5C77.5,246.8,64.7,245.8,56.2,243.89999z"/><path class="st5" d="M193.8,279.39999c-33.59999-21.70001-72.5-35.2-112.3-39"/><circle class="st6" cx="105.4" cy="293.5" r="12.7"/><circle class="st7" cx="314.70001" cy="233.8" r="12.7"/><path class="st5" d="M110,259.89999c-1.4-1.10001-3.5-0.39999-4.6,1s-1.3,3.20001-1.5,5c-0.6,7.10001-0.5,14.20001,0.3,21.29999"/><circle class="st6" cx="356.29999" cy="302.5" r="12.20001"/><path class="st5" d="M357.79999,278c0-1.60001-0.89999-2.70001-1.70001-2.79999c-0.70001-0.10001-1.29999,0.5-1.39999,0.70001     c-0.70001,0.79999-0.70001,1.79999-0.79999,2.20001c-0.29999,5.20001-0.20001,10.39999,0.29999,15.5"/><circle class="st6" cx="239.7" cy="240.60001" r="11.5"/><circle class="st7" cx="216.39999" cy="322" r="11.5"/><circle class="st7" cx="140.60001" cy="222.8" r="11.5"/><g><g><path class="st8" d="M277.39999,476.39999c0,9-3.60001,17.20001-9.60001,23.10001       c-5.89999,5.89999-14,9.60001-23.10001,9.60001h-42.10001c-7.39999,0-14.10001-2.39999-19.60001-6.5       c-7.89999-6-13-15.39999-13-26.10001c0-9,3.60001-17.20001,9.60001-23.10001       c5.89999-5.89999,14.10001-9.60001,23.10001-9.60001h42.10001c5.2,0,10.10001,1.20001,14.5,3.39999       C270,452.5,277.39999,463.60001,277.39999,476.39999z"/><g><path class="st9" d="M277.39999,476.39999c0,9-3.60001,17.20001-9.60001,23.10001        c-5.89999,5.89999-14,9.60001-23.10001,9.60001h-42.10001c-7.39999,0-14.10001-2.39999-19.60001-6.5        c4.39999,0.5,8.8,0.79999,13.2,0.89999c13,0.20001,26.10001-1.5,38-6.60001c10.5-4.5,20.3-12,25.2-22.29999        c4-8.5,4.20001-19.20001-0.29999-27.29999C270,452.5,277.39999,463.60001,277.39999,476.39999z"/></g><rect class="st8" height="61.20001" width="57.39999" x="195" y="404.10001"/><rect class="st8" height="22.79999" width="44.90001" x="201.3" y="377.60001"/><path class="st8" d="M262.60001,407.20001c0,3.89999-1.60001,7.39999-4.10001,10c-2.5,2.5-6.10001,4.10001-10,4.10001       h-49.60001c-7.8,0-14.10001-6.29999-14.10001-14.10001c0-3.89999,1.60001-7.39999,4.10001-9.89999s6.10001-4.10001,10-4.10001       H248.5c3.39999,0,6.5,1.20001,8.89999,3.20001C260.60001,398.89999,262.60001,402.79999,262.60001,407.20001z"/><g><path class="st9" d="M262.60001,407.20001c0,3.89999-1.60001,7.39999-4.10001,10c-2.5,2.5-6.10001,4.10001-10,4.10001        c-11.7,0-23.39999,0-35.10001,0c5.7-1.10001,13.39999-3.20001,21.8-7.60001c10.7-5.60001,17.89999-12.5,22.2-17.39999        C260.60001,398.89999,262.60001,402.79999,262.60001,407.20001z"/></g></g></g><path class="st5" d="M212.39999,421.70001c12.7,0,25.5,0.10001,38.2,0.10001"/><line class="st5" x1="195.10001" x2="220.7" y1="444.70001" y2="444.70001"/></g></g><g><g><path class="st10" d="M886.79999,535.29999c0,0,68.5-155.10001,19.5-228.89999s-268.60004-100.5-311-11.29999     c-42.40002,89.19998,1.5,218.69998,1.5,218.69998L886.79999,535.29999z"/><path class="st11" d="M699.29999,330.70001c44.5,1.39999,88.29999,20.60001,119.5,52.39999S868.39996,459,869.09998,503.5     c0.09998,9.09998-1,19.29999-7.90002,25.09998c-3.29999,2.79999-7.5,4.20001-11.79999,5     c-13.09998,2.5-26.90002-0.59998-38.90002-6.59998c-13.90002-7-25.40002-17.70001-36.70001-28.39999     c-16.5-15.70001-33-31.79999-45.20001-51c-12.29999-19.20001-20.20001-42-17.90002-64.69998"/><polygon class="st0" points="710.09998,821.40002 686.5,821.40002 682.5,781 714.09998,781    "/><polygon class="st0" points="443.29999,785.59998 419.79999,785.59998 415.79999,745.09998 447.29999,745.09998    "/><polygon class="st0" points="875.59998,731.79999 852,731.79999 848,691.29999 879.59998,691.29999    "/><g><path class="st10" d="M585.79999,464.70001c-3.29999,42.60001-6.59998,85.20001-9.90002,127.70001      c-48.29999,24.79999-96.70001,49.70001-145,74.5c-11.29999-45.59998-22.60001-91.20001-33.89999-136.70001      c18.10001-6.29999,36.29999-12.59998,54.39999-18.89999c0.60001-0.20001,1.20001-0.39999,1.79999-0.60001      c35.5-12.29999,71.09998-24.70001,106.59998-37c1.20001-0.39999,2.5-0.79999,3.70001-1.29999      C570.90002,469.89999,578.40002,467.29999,585.79999,464.70001z"/><path class="st11" d="M455.89999,581v167.5c0,6.40002-5.20001,11.59998-11.60001,11.59998H412      c-6.39999,0-11.60001-5.20001-11.60001-11.59998V628.20001c-5.79999,0.5-17.89999,0.79999-29.10001-6.5      c-18.89999-12.29999-25-39.20001-17-59.40002c10.79999-27.29999,46-39.40002,71.79999-28.20001      c5.29999,2.29999,9.70001,5.40002,13.39999,8.70001C450.10001,552.5,455.89999,566.5,455.89999,581z"/><circle class="st10" cx="398.89999" cy="583.90002" r="17.09999"/></g><path class="st10" d="M693.90002,794.20001c-80.20001-14.09998-160.29999-28.20001-240.5-42.29999     c-0.20001-18.79999-0.39999-37.59998-0.60001-56.5c80.39999,12,160.69998,24,241.10001,36.09998V794.20001z"/></g><g><path class="st12" d="M614.70001,716.70001c0,0-3.79999,43.29999-9.59998,86.5     c-5.40002,39.59998-12.5,79.09998-20.20001,84.90002c-16.09998,12.20001-123.39999,67.70001-123.10001,50.59998     c0.29999-18.90002,62.60001-59,68.69998-68.20001c3.09998-4.70001,9.5-43.29999,15-79.59998     c5.20001-34.29999,9.5-66.59998,9.5-66.59998L614.70001,716.70001z"/><path class="st4" d="M605.09998,803.09998c-5.40002,39.59998-12.5,79.09998-20.20001,84.90002     c-16.09998,12.20001-123.39999,67.70001-123.10001,50.59998c0.29999-18.90002,62.60001-59,68.69998-68.20001     c3.09998-4.70001,9.5-43.29999,15-79.59998C563.70001,800.40002,584.59998,804.70001,605.09998,803.09998z"/><path class="st5" d="M542.59998,807.59998c6,5.79999,13.90002,9.40002,22,11.40002s16.5,2.5,24.90002,2.79999"/></g><g><path class="st12" d="M512.5,676.59998c0,0-3.79999,43.70001-9.70001,87C497.39999,803,490.29999,842.19995,482.59998,848     c-16.10001,12.20001-138.60001,51.29999-131.79999,33.70001c6.79999-17.59998,71.29999-42.09998,77.39999-51.29999     c3.20001-4.70001,9.5-43.29999,15-79.59998c5.20001-34.29999,9.5-66.59998,9.5-66.59998L512.5,676.59998z"/><path class="st4" d="M501,776.70001c-5.10001,34.59998-11.5,66-18.29999,71.20001     c-16.10001,12.20001-138.60001,51.29999-131.79999,33.70001c6.79999-17.59998,71.29999-42.09998,77.39999-51.29999     c2.89999-4.29999,8.39999-36.20001,13.39999-69.09998C459.60001,771.59998,480.29999,777,501,776.70001z"/><path class="st5" d="M438.70001,780.79999c2.5,3.40002,6.29999,5.59998,10.20001,7.29999c13,5.79999,27.5,8.20001,41.70001,7"/></g><g><path class="st6" d="M821.09998,583.09998l-94,121.09998L705.5,732c0,0-10,10.09998-39,13.20001     c-19.59998,2.09998-47.70001,1.09998-87.29999-8.09998c-31.40002-7.29999-109.5-51.09998-163.20001-35.90002     c7-53.09998,17.29999-81,35-102.90002c17.60001-21.90002,133.59998-71.70001,133.59998-71.70001     C647.29999,504.89999,821.09998,583.09998,821.09998,583.09998z"/><path class="st5" d="M432.70001,681.70001c25.20001-5.29999,51.39999-0.79999,76,6.59998     c24.59998,7.40002,48.29999,17.79999,73,24.90002c6.70001,1.90002,13.59998,3.59998,20.40002,5"/></g><path class="st13" d="M563.09998,573.59998c-1.59998,6.5-1,13.40002-0.29999,20c1.29999,12.40002,2.79999,25,7,36.70001    c4.20001,11.79999,11.40002,22.90002,21.90002,29.59998c11.5,7.40002,25.70001,8.90002,39.29999,9.5    c17.09998,0.79999,34.79999,0.40002,50.5-6.29999c3.20001-1.40002,6.70001-4.09998,5.70001-7.40002    c-0.59998-2-2.59998-3-4.5-3.79999c-12-4.90002-25.40002-5.40002-38-8.70001    c-14.79999-3.90002-28.40002-11.79999-39.09998-22.79999c-5.59998-5.79999-10.29999-12.40002-15-18.90002    c-5.5-7.59998-11-15.29999-16.5-22.90002L563.09998,573.59998z"/><path class="st13" d="M618.59998,558.90002c-2,13.70001,2.40002,28.20001,11.70001,38.40002    c9.29999,10.29999,23.20001,16.20001,37,15.79999c9.20001-0.20001,18.20001-3,26.70001-6.59998    c9.40002-3.90002,18.70001-9.09998,24.5-17.40002c5.90002-8.29999,7.40002-20.29999,1.29999-28.5    c-2.70001-3.59998-6.5-6.09998-10.29999-8.5c-8.59998-5.5-17.5-11.09998-27.40002-14    c-9.09998-2.59998-19.20001-2.5-28.59998-3.40002C637.90002,533.40002,621.09998,542.29999,618.59998,558.90002z"/><g><path class="st12" d="M387.79999,369.70001c12.29999,14.5,18.39999,28.10001,21.60001,37.29999     c3.89999,11,9.79999,27.39999,2.20001,34.5c-4.89999,4.60001-12.5,3.60001-14.39999,3.39999     c-20.5-2.60001-43.60001-32.10001-34.29999-54.79999C368.5,376.39999,383.39999,371.10001,387.79999,369.70001z"/><path class="st8" d="M636,412.10001c0,0-7.09998,9-18.20001,22c-2.70001,3.20001-5.59998,6.60001-8.70001,10.20001     c-24.5,28.20001-60.59998,66.80002-86.29999,81.10001c-0.5,0.29999-1,0.59998-1.5,0.79999     c-7.40002,3.90002-13.89999,5.70001-18.89999,4.40002c-33-8.59998-127.69998-48.89999-125.89999-74.10001     c0.10001-1.10001-0.20001,3.5,1.20001,4.39999c3.5,2.29999,12.79999-6.20001,14.10001-7.39999     c2.79999-2.5,19-17.20001,17.89999-39.5c-0.29999-5.39999-1.5-9.79999-2.5-12.70001     c30.60001,16.70001,61.29999,33.29999,91.89999,50c0,0,35.80002-28.89999,53.39999-45.5     c56-53,75.79999-58.39999,75.79999-58.39999L636,412.10001z"/><path class="st9" d="M617.90002,434.10001c-2.70001,3.20001-5.59998,6.60001-8.70001,10.20001     c-24.5,28.20001-60.59998,66.80002-86.29999,81.10001c12.79999-14.5,26.40002-31.70001,39.59998-51.70001     c21-31.89999,35.20001-62.20001,44.79999-87.39999c3.40002,5.10001,8.90002,15,10.70001,28.70001     C619,422.10001,618.70001,428.60001,617.90002,434.10001z"/><path class="st5" d="M459.89999,514.70001c9.39999,4.09998,24,10,38.79999,14.20001c2.89999,0.79999,7,1.90002,12.20001,1.20001     c8.80002-1.09998,15.00003-6.40002,18.19998-9.59998"/><path class="st5" d="M490.5,446.89999c10.39999,4.5,19.29999,12.5,24.70001,22.5"/></g><g><path class="st8" d="M656.5,339.5c0,0,66.29999-5,89.20001,10s33.5,201.90002,28.59998,227.79999     c-56.40002-17-132.20001-58.40002-201.5-46.59998c-12.79999-11.09998-6.40002-37,1.40002-52.5     c7.90002-15.5,26.29999-100.60001,26.29999-100.60001S609.59998,338.5,656.5,339.5z"/><path class="st9" d="M681.29999,529.09998c54.29999-32.20001,88.79999-52.79999,89.70001-53.60001     c0.09998-0.10001,0.5-0.5,1.09998-0.5c0.5,0,0.79999,0.5,1.09998,0.79999c3.40002,4.70001,6.20001,9.70001,8.5,15     c2.20001,5,3.79999,10.70001,1.79999,15.70001c-2.29999,5.69998-7.90002,8.60001-10.59998,9.80002     C753.5,525.59998,686.79999,528.79999,681.29999,529.09998z"/></g><g><path class="st5" d="M575.29999,583.90002C512.70001,589.30005,452.79999,622,414.5,671.80005     c-16.20001,21.09998-28.70001,44.90002-44.29999,66.5c-15.60001,21.59998-35.39999,41.5-60.60001,50.09998"/><g><g><circle class="st14" cx="314.70001" cy="781.40002" r="41.79999"/><path class="st5" d="M279.79999,769.90002c1.20001,21,16.39999,40.59998,36.60001,46.79999"/><path class="st5" d="M294.5,781.70001c1.29999,3.59998,4.29999,10.59998,11.20001,16.90002       c6.10001,5.59998,12.5,8.09998,16.10001,9.20001"/><path class="st5" d="M305.29999,789.5c5.79999-13,16.60001-23.59998,29.60001-29.29999"/><path class="st5" d="M313.10001,794.20001c8.60001-13.09998,21.60001-23.29999,36.39999-28.59998"/><path class="st5" d="M303.10001,750.70001c0.20001,6.29999,2.29999,12.59998,6,17.70001"/><path class="st5" d="M312.70001,746.20001c0.10001,5,1.5,10,3.89999,14.5"/></g><path class="st5" d="M314.70001,823.20001c-23.10001,0-41.79999-18.70001-41.79999-41.79999c0-7.5,2-14.59998,5.5-20.70001"/><path class="st5" d="M351.29999,801.70001c-4.5,8-11.5,14.40002-19.89999,18"/></g></g><g><path class="st5" d="M563.70001,572.29999c0-3.40002,0.40002-7.09998,2.5-9.79999s6.29999-4.20001,9.20001-2.40002     c1.79999,1.20001,2.70001,3.29999,3.29999,5.40002c1,3.09998,1.5,6.40002,1.59998,9.70001c-0.70001-4.40002,0.40002-9,3-12.59998     c1.29999-1.79999,3.09998-3.5,5.40002-3.79999c3.40002-0.5,6.5,2.29999,7.59998,5.5s0.59998,6.70001,0.09998,10     c0.5-3.29999,1-6.79999,2.79999-9.70001c1.90002-2.79999,5.59998-4.79999,8.79999-3.59998     c2.59998,1,3.90002,3.70001,4.90002,6.20001c1.40002,3.29999,1.5,6.20001,1.5,7.90002     c-0.20001-1-0.90002-4.70001,1.29999-8.09998c0.40002-0.59998,3-4.79999,6.29999-4.20001     c2.40002,0.40002,4.09998,2.59998,4.59998,4.90002c0.59998,2.29999,0.20001,4.70001-0.20001,7"/><path class="st14" d="M563.70001,571.20001c-0.29999,8.90002,0.09998,22.59998,4.59998,38.5     c3.40002,11.90002,6.40002,22.59998,15,31.70001C594.70001,653.5,609.39996,656.10004,627.5,658.80005     c28.90002,4.20001,63.29999,1.90002,64.20001-5.20001c0.40002-3.5-7.29999-7.09998-21.20001-13.59998     c-25.59998-12-38-10.70001-43.09998-21c-1.20001-2.40002-1.29999-7.79999-1.40002-18.5c-0.20001-11,0.29999-20,0.70001-26.29999     C605.70001,573.09998,584.70001,572.20001,563.70001,571.20001z"/></g><g><g><g><g><path class="st10" d="M929.70001,545.20001c-17.40002-36.70001-53.90002-23.40002-83.09998-12        c-22,7.40002-44,14.90002-66,22.40002c-19,6.5-38,12.59998-56.90002,19.40002c-21.09998,9.20001-28.5,30.79999-29.79999,35        V789.6001c0,6.40002,5.20001,11.59998,11.59998,11.59998c7-1,35.90002,3,40.59998-3.59998        C779.59998,774.00012,813,750.20007,846,726.20007c14.5-10,28.79999-20.09998,42.79999-30.59998        c3.29999-1.29999,5.59998-4.5,5.59998-8.20001v-85C920.40002,591,939.90002,576.40002,929.70001,545.20001z"/></g><path class="st5" d="M929.70001,545.20001C914.90002,514,886.29999,519,860,528.20001"/><path class="st11" d="M760.40002,573.59998c31.29999-4.5,62-13.5,90.70001-26.70001       c3.40002-1.59998,6.90002-3.29999,9.40002-6.09998s3.40002-8,0.09998-9.90002c-1-0.59998-2.20001-0.70001-3.40002-0.79999       c-34.79999-2.5-70.20001,4.29999-101.5,19.70001L760.40002,573.59998z"/><path class="st5" d="M916.70001,590.59998c-46.09998,24-92.20001,48.09998-138.29999,72.09998"/></g><path class="st11" d="M693.90002,610v179.59998c0,6.40002,5.20001,11.59998,11.59998,11.59998h32.20001      c6.40002,0,11.59998-5.20001,11.59998-11.59998V669.29999c5.79999,0.5,17.90002,0.79999,29.09998-6.5      c18.90002-12.29999,25-39.20001,17-59.40002c-10.79999-27.29999-46-39.40002-71.79999-28.20001      C702.59998,584.20001,695.20001,605.79999,693.90002,610z"/></g><circle class="st10" cx="746.40002" cy="623.5" r="17.09998"/></g><g><path class="st12" d="M672.59998,533.20001C659.5,536,647.79999,532.5,632.69995,541.90002c-5.70001,3.5-6.79999,12.5-7.5,19     c5.5,4.79999,50.79999-13.90002,53.79999-21.5L672.59998,533.20001z"/><g><line class="st5" x1="587.20001" x2="776.20001" y1="529.20001" y2="625.40002"/><path class="st15" d="M779.79999,630.79999l-2.5-1.20001c-1.59998-0.79999-2.29999-2.59998-1.5-4.20001l0,0      c0.79999-1.59998,2.59998-2.29999,4.20001-1.5l2.5,1.20001c1.59998,0.79999,2.29999,2.59998,1.5,4.20001l0,0      C783.29999,630.90002,781.40002,631.59998,779.79999,630.79999z"/></g><g><line class="st5" x1="585.09998" x2="764.90002" y1="534.20001" y2="646.79999"/><path class="st15" d="M768,652.5l-2.40002-1.40002c-1.5-0.90002-2-2.79999-1.09998-4.40002l0,0      c0.90002-1.5,2.79999-2,4.40002-1.09998L771.30005,647c1.5,0.90002,2,2.79999,1.09998,4.40002l0,0      C771.5,652.79999,769.5,653.40002,768,652.5z"/></g><path class="st3" d="M705.5,588.90002c0,0-54.5-0.79999-42.29999-49.20001     c34.79999,13.09998,53.90002,32.70001,53.90002,32.70001L705.5,588.90002z"/><path class="st12" d="M672,532.79999c0,0-31.40002,8.40002-47.20001,28.29999c-3.40002,4.20001-5.59998,7.90002-1.40002,13.40002     c1.59998,2.09998,3.20001,2.79999,6.40002,2.59998c-0.79999,2-0.40002,5.29999,3.20001,8.70001     c3.79999,3.59998,6.09998,2.70001,8.59998,2C640.5,590.5,640.5,592.79999,644,596c4,3.70001,8.20001,2.09998,9.40002,1     c-0.09998,1.79999,0.70001,4,1.90002,5c4.79999,4.09998,7.70001,2,9.59998,0.90002     c11.79999-6.70001,46.70001-22.79999,55-33.29999C716.29999,553.20001,704.09998,523.5,672,532.79999z"/><path class="st8" d="M745.79999,349.5c0,0,111.5,60.79999,110.90002,171.09998C856.5,552.5,705.5,588.89996,705.5,588.89996     s14.29999-25.79999-7.70001-45c-11.59998-12.70001-31.20001-9.70001-31.20001-9.70001l104.70001-36.29999L759.5,456.69995"/><path class="st5" d="M728.79999,512.59998c14.20001-4.89999,28.29999-9.79999,42.5-14.70001L759.5,456.69995"/><path class="st5" d="M629.90002,577.09998c2.70001-2.29999,5.40002-4.5,8.09998-6.70001"/><path class="st5" d="M641.29999,588.20001c2.70001-2.40002,5.59998-4.79999,8.5-6.90002"/><path class="st5" d="M653.5,597.40002c1.5-1.59998,3.20001-3.09998,5-4.40002"/><path class="st5" d="M632.09998,553.5c7.20001-6.29999,15.5-11.29999,24.40002-14.59998"/></g><g><path class="st16" d="M639.5,235.10001c0,0-14.70001-4.3-23.5,3.10001s-9.20001,16.10001-9.20001,16.10001     S592.89996,260.50003,598,275.90002c5.09998,15.29999,30.20001,16.79999,30.20001,16.79999l70.90002,30.5     c0,0,19.79999,1.79999,24.40002-18.39999c3.40002-15.60001-4.59998-19.39999-4.59998-19.39999s17.29999-1.29999,14.90002-22     c-1.59998-13.89999-18.09998-17.39999-18.09998-17.39999s3-21.10001-21.70001-29.8     C669.09998,207.7,639.5,222.39999,639.5,235.10001z"/><path class="st12" d="M708.20001,340.5c-0.29999,2-2,13.39999-10.79999,19.70001c-10.70001,7.60001-22.5,1-24.40002,0     c-3.79999-2.10001-6.59998-4.89999-8.40002-7.20001c-0.59998-0.70001-1.09998-1.39999-1.5-2v-39.60001l29.59998-49.79999     c4.09998,20.79999,8.20001,41.70001,12.29999,62.5C706,329.60001,707.09998,335,708.20001,340.5z"/><path class="st3" d="M694.5,327.29999c-2.29999,4.20001-4.70001,8.39999-7.90002,12     c-5.79999,6.60001-13.59998,11.10001-22,13.70001c-0.59998-0.70001-1.09998-1.39999-1.5-2v-17     c9-10.20001,19.90002-18.79999,31-26.70001l5,4.29999C699.70001,317.10001,697.20001,322.39999,694.5,327.29999z"/><g><g><circle class="st17" cx="655.79999" cy="343" r="7.79999"/><circle class="st17" cx="667" cy="358.5" r="7.79999"/><circle class="st17" cx="685.09998" cy="363.79999" r="7.79999"/><circle class="st17" cx="703.29999" cy="358.5" r="7.79999"/><circle class="st17" cx="714.90002" cy="344.39999" r="7.79999"/></g></g><path class="st12" d="M630.5,255c-17.5,26.60001,3.29999,75.10001,28,86c2.20001,1,6.90002,3,12.90002,2.29999     c12.09998-1.29999,19.40002-12.60001,22.40002-17c9.20001-13.5,9.09998-28.10001,9-41.29999     c-0.09998-12.29999-0.09998-18.5-3.40002-24.5c-10.29999-18.8-41.59998-26.5-59.70001-14.89999     C638,246.89999,634,249.7,630.5,255z"/><path class="st16" d="M689.29999,262.60001c-1.5,16.29999,9.5,22,21.59998,11.20001c7.79999-12.10001-3.09998-29.3-17-20.7     L689.29999,262.60001z"/><path class="st12" d="M699.79999,285.20001C701,277.40002,710.09998,271,716.09998,276.30002     c9.20001,11.70001-7,31.10001-15.20001,23.60001"/><path class="st5" d="M703.70001,286.79999C705,282.19998,708.5,278.5,712.5,277.39999"/><path class="st16" d="M633.29999,278.5c12.20001,2.10001,25.79999-6.20001,32-21c3,8.60001,10.40002,14.20001,18.09998,14.20001     c7.20001,0,14.5-5,16.09998-11c3-11.60001-14.5-35.89999-33.09998-32.8c-21,3.5-49.90002,23.89999-51.29999,35.59999     C614.20001,271.39999,625.5,277.10001,633.29999,278.5z"/><path class="st5" d="M617.40002,270.20001C621,274.5,628,277.5,633.30005,278.40002c12.20001,2.10001,25.79999-6.20001,32-21     c3,8.60001,10.40002,14.20001,18.09998,14.20001c2.29999,0,4.59998-0.5,6.70001-1.39999"/><g><path class="st5" d="M659.09998,298.29999c1.29999-8.5,10.70001-9,14.90002-1"/><path class="st5" d="M631.59998,300.29999c1-6.70001,8.09998-7,11.40002-0.79999"/><path class="st5" d="M649.29999,294.5c0.70001,5.10001,1.29999,10.10001,2,15.20001      C648.70001,309.90002,646.70001,313,647.5,315.5s4.29999,3.60001,6.5,2.20001"/><path class="st5" d="M658.70001,324.5C664.90002,324.39999,671,320.70001,674,315.29999"/><path class="st5" d="M664.40002,307.60001c5.5,0.39999,10.79999,2.70001,14.70001,6.60001"/><path class="st5" d="M645.59998,317.20001c-0.79999,1.60001-1.09998,3.5-1,5.29999"/><g><path class="st15" d="M674.90002,287c-0.09998,0-0.20001,0-0.40002,0c-5.40002-1-10.79999-1-16.29999-0.10001       c-1.09998,0.20001-2.09998-0.60001-2.29999-1.60001S656.5,283.19998,657.5,283c5.90002-1,11.79999-1,17.70001,0.10001       c1.09998,0.20001,1.79999,1.20001,1.59998,2.29999C676.70001,286.29999,675.79999,287,674.90002,287z"/></g><g><path class="st15" d="M628.20001,291.70001c-0.79999,0-1.59998-0.5-1.90002-1.29999       c-0.40002-1,0.09998-2.20001,1.20001-2.60001c4.09998-1.5,8.40002-2.60001,12.79999-3.10001       c1.09998-0.10001,2.09998,0.70001,2.20001,1.79999c0.09998,1.10001-0.70001,2.10001-1.79999,2.20001       c-4,0.5-8,1.39999-11.79999,2.79999C628.70001,291.60001,628.40002,291.70001,628.20001,291.70001z"/></g><path class="st5" d="M677.09998,291.60001c2-1.39999,4.29999-2.5,6.59998-3.29999"/><path class="st5" d="M677.90002,293.10001c1.79999-0.20001,3.70001,0.10001,5.40002,0.79999"/><path class="st5" d="M625.70001,297.79999c1.09998-0.29999,2.40002-0.20001,3.5,0.20001"/></g><path class="st5" d="M707.09998,224.60001c1.5,1.3,7.40002,6.7,8.59998,16.10001c1.09998,9.2-3.09998,15.79999-4.20001,17.39999"/></g><g><g><g><g><path class="st3" d="M401.5,476.89999l-85.70001,68.80002C312,548.79999,306.19998,547.5,304.09998,543l-66.8-143.60001        c-1.5-3.20001-0.60001-6.89999,2.10001-9.10001l85.7-68.79999c3.79999-3.10001,9.60001-1.79999,11.70001,2.70001        l66.79999,143.60001C405.10001,470.89999,404.20001,474.70001,401.5,476.89999z"/><polygon class="st3" points="310.79999,547.40002 318.70001,548.20001 318.29999,542.70001       "/><polygon class="st3" points="330.79999,319.79999 339.5,320.70001 330.29999,329.70001       "/></g></g><path class="st8" d="M410,477.79999l-85.70001,68.79999c-3.79999,3.09998-9.60001,1.79999-11.70001-2.70001l-66.8-143.60001      c-1.5-3.20001-0.60001-6.89999,2.10001-9.10001l85.7-68.79999c3.79999-3.10001,9.60001-1.79999,11.70001,2.70001      l66.79999,143.60001C413.60001,471.79999,412.70001,475.60001,410,477.79999z"/><path class="st18" d="M321.10001,544c-1.79999,0.79999-3.89999,0-4.79999-1.79999l-66.8-143.60001      c-0.7-1.5-0.3-3.29999,1-4.29999l85.7-68.80002c0.20001-0.20001,0.5-0.29999,0.79999-0.5      c1.79999-0.79999,3.89999,0,4.79999,1.79999l66.79999,143.60001c0.70001,1.5,0.29999,3.29999-1,4.29999L321.89996,543.5      C321.60001,543.70001,321.39999,543.79999,321.10001,544z"/></g><g><g><path class="st6" d="M282.27515,468.50748c18.79999-16.29999,41.82486-9.8075,47.72485-8.70749       c33.29999,6.39999,44.27472,32.30005,46.4747,36.70004c-9,10.39999-43.37469,37.55002-57.77469,48.94998"/><path class="st12" d="M318.5,464.89999c-2,5.29999-6.89999,9-12.60001,9.39999c-5.79999,0.39999-11.39999-2.79999-14-8.10001       c-0.10001-3.5-0.29999-7.29999-0.70001-11.29999c-0.29999-2.70001-0.60001-5.29999-1-7.79999       c-0.10001-0.39999-0.10001-0.70001-0.20001-1c-0.29999-2-0.70001-3.89999-1-5.70001l26.5,4.89999       c0.10001,0.89999,0.29999,1.79999,0.39999,2.70001c0.70001,4.70001,1.39999,9.39999,2.10001,14       C318.20001,463,318.39999,463.89999,318.5,464.89999z"/><path class="st3" d="M318.10001,462c-3.5,2.70001-8.60001,3.5-12.89999,2.20001       c-5.5-1.60001-9.79999-6.10001-12.29999-11.29999c-0.89999-1.89999-1.60001-4-2.70001-5.79999       c-0.20001-0.29999-0.29999-0.60001-0.5-0.89999l0.39999-0.20001l4.79999-2.39999c7.20001,0.60001,14.5,1.20001,21,4.29999l0,0       C316.70001,452.70001,317.39999,457.39999,318.10001,462z"/><path class="st12" d="M274.39999,420.79999c31.20001,72,65.60001,36.79999,38.79999-23.60001       c-7.79999-4.79999-17.70001-5.20001-25.60001-0.79999C278.89999,401.20001,273.70001,410.79999,274.39999,420.79999z"/><path class="st5" d="M309.39999,425.5c-0.39999-2.29999,0.89999-4.70001,2.79999-5.5c2-0.79999,4.39999,0,5.70001,1.89999"/><path class="st5" d="M289.29999,433.79999C289,431.5,290.5,429.19998,292.69998,428.5       c2.20001-0.70001,4.79999,0.29999,5.89999,2.29999"/><polyline class="st5" points="302.79999,425.60001 305.29999,432.70001 309.79999,432.39999 307.10001,437.79999      "/><path class="st18" d="M297.39999,443.10001l15.29999-2.5c0,0,0.20001,9.70001-6.60001,10.20001       S297.39999,443.10001,297.39999,443.10001z"/><g><path class="st15" d="M284.20001,428.20001c-0.39999,0-0.79999-0.20001-1.10001-0.5        c-0.60001-0.60001-0.5-1.60001,0.10001-2.10001c3-2.70001,6.39999-4.79999,10.10001-6.29999        c0.79999-0.29999,1.60001,0.10001,1.89999,0.79999c0.29999,0.79999-0.10001,1.60001-0.79999,1.89999        c-3.39999,1.29999-6.5,3.29999-9.20001,5.70001C284.89999,428.10001,284.5,428.20001,284.20001,428.20001z"/></g><g><path class="st15" d="M306.89999,417c-0.70001,0-1.39999-0.5-1.5-1.29999s0.39999-1.60001,1.20001-1.70001        c3-0.5,6-1.10001,9-1.70001c0.79999-0.20001,1.60001,0.29999,1.79999,1.10001        c0.20001,0.79999-0.29999,1.60001-1.10001,1.79999c-3,0.70001-6.10001,1.29999-9.20001,1.79999        C307.10001,417,307,417,306.89999,417z"/></g><path class="st3" d="M303.10001,379.70001C292.70001,379.90002,286.89999,390,286.70001,390.5       c-7.5-0.60001-14.29999,6.20001-13.70001,13.70001c-3.70001,1.39999-5.29999,3.29999-6,4.60001       c-3.5,6.29999,1.5,17.89999,13.79999,27.70001c0.20001-0.20001,0.39999-0.39999,0.60001-0.60001       c-2-5.5-4.10001-11-6.10001-16.5c2-0.20001,6.20001-1,10.29999-3.89999c3.10001-2.20001,4.89999-4.79999,5.89999-6.39999       c1.29999,0.29999,9.5,2.39999,16.5-2.70001c3.20001-2.29999,4.89999-5.29999,5.70001-7.10001       c1.10001,2.29999,2.29999,4.89999,3.39999,7.89999c1,2.79999,1.79999,5.5,2.29999,7.89999       c-0.10001-4.70001-0.20001-9.5-0.29999-14.20001c1-1.60001,2-3.60001,2-6.10001       C321.39999,387.20001,312.29999,379.5,303.10001,379.70001z"/><path class="st5" d="M320.29999,417.60001c0.79999-2.60001,2.60001-4.29999,4.20001-4.20001       c1.39999,0.10001,2.39999,1.39999,2.70001,1.79999c2,2.70001,1.29999,7.10001-0.89999,9.89999       c-1.29999,1.60001-2.89999,2.39999-4,2.89999"/><path class="st12" d="M280.5,434.20001c-2.29999-1.5-4.70001-1.70001-5.89999-0.60001c-1.10001,1-1,2.60001-1,3.10001       c0.20001,3.29999,3.60001,6.20001,7,7.10001c3,0.79999,5.5-0.10001,6.70001-0.60001"/><path class="st5" d="M275.60001,435.79999c1.5-0.20001,3.10001,0,4.5,0.60001"/><path class="st5" d="M324,415.60001c-1.39999,1.29999-2.39999,3-2.70001,4.89999"/></g><path class="st19" d="M360.79999,479.89999c-4,3.10001-8.39999,5.60001-13.10001,7.39999      c-26.29999-35.5-34.10001-70.70001-20.29999-87.20001c6.29999-7.5,19.29999-13.70001,29.5-10.29999      c3.60001,1.20001,9.70001,4.5,20.89999,31.79999C381.89999,431.49997,387,445.49997,391.5,462.99997      c-3.10001,1.39999-6,3.10001-8.79999,4.89999C375.39999,471.79999,368.10001,475.89999,360.79999,479.89999z"/><path class="st20" d="M333.79999,428.70001c-2.10001-0.79999-4-0.5-4.70001,0.70001c-0.60001,1-0.29999,2.29999-0.10001,2.70001      c0.79999,2.70001,4,4.5,6.89999,4.5c1.70001,0,3-0.70001,3.79999-1.20001"/><path class="st20" d="M368.20001,414.20001c0.60001-2.10001,2-3.29999,3.29999-3.29999      c1.10001,0.10001,1.89999,1.10001,2.10001,1.39999c1.5,2.10001,1,5.60001-0.70001,7.79999      c-1,1.29999-2.29999,1.89999-3.10001,2.20001"/><path class="st5" d="M371,412.70001c-1.10001,1-1.89999,2.39999-2.10001,3.89999"/><path class="st14" d="M352.5,463.60001c0,0-20,21.89999-12.70001,54.19998c0.83383,3.68939,2.47397,5.92017,4.72534,6.97736      l61.76273-50.07376c1.67191-1.35547,2.06305-2.98654,1.18768-4.95285l-7.65048-18.22845      c-5.26639-3.19193-11.76166-4.92999-19.42526-3.02231"/><path class="st21" d="M351,446.70001c-4.10001,1.70001-5.60001,5.79999-4.39999,8.5c0.89999,1.79999,3,2.89999,5.29999,3      c-1,1.79999-1.10001,3.79999-0.20001,4.89999c0.79999,1,2.20001,1.20001,3.70001,1.20001      c1.89999,0,3.89999-0.39999,5.79999-0.89999c2.5-0.60001,4.89999-1.39999,7.29999-2.39999      c2.89999-1.20001,5.79999-2.60001,8.10001-4.79999c1.20001-1.20001,4.79999-5,3.5-8.39999      c-0.79999-2.20001-3.20001-3.10001-4.10001-3.39999c1-2.20001,0.39999-4.79999-1.39999-6.10001      c-1.39999-1-3.29999-1.10001-4.89999-0.39999c-0.79999,1.5-2.70001,4.39999-6.29999,6.60001      C358,447.70001,352.5,447,351,446.70001z"/><path class="st5" d="M351.29999,458.10001c5.20001-0.79999,10.20001-2.89999,14.5-5.89999"/><path class="st20" d="M327.29999,417.60001C329.5,422.39999,333,429,338.89999,435.39999      c3.5,3.79999,16.89999,18.5,24.79999,15.10001c9.39999-4,5.5-31,5.20001-33.39999      c-1.39999-9.20001-4.29999-16.39999-6.5-20.79999c-1.79999-1.10001-5.89999-3.29999-11.5-3.5      c-4-0.10001-8,0.79999-11.60001,2.70001C331.29999,399.79999,326.60001,408.5,327.29999,417.60001z"/><path class="st5" d="M352.89999,421.89999l2.29999,6.5l4-0.29999c-0.10001,0.60001-0.20001,1.39999-0.70001,2.39999      c-0.5,1.20001-1.20001,2-1.70001,2.5"/><path class="st22" d="M356.60001,413.39999c3.10001-1.39999,6.5-2,9.70001-1.60001c0.5,0.10001,0.79999,0.5,0.70001,0.89999      c0,0.39999-0.39999,0.70001-0.79999,0.79999c-3,0.10001-5.79999,1-8.20001,2.60001      C356.20001,417.20001,354.70001,414.29999,356.60001,413.39999L356.60001,413.39999z"/><path class="st15" d="M362.70001,422.70001L362.70001,422.70001c-0.79999,0.20001-1.5-0.29999-1.70001-1.10001l-0.39999-1.89999      c-0.20001-0.79999,0.29999-1.5,1.10001-1.70001l0,0c0.79999-0.20001,1.5,0.29999,1.70001,1.10001L363.80002,421      C364,421.70001,363.5,422.5,362.70001,422.70001z"/><path class="st15" d="M346.5,428.29999L346.5,428.29999c-0.70001,0.29999-1.5,0-1.89999-0.70001l-0.79999-1.70001      c-0.29999-0.70001,0-1.5,0.70001-1.89999l0,0c0.70001-0.29999,1.5,0,1.89999,0.70001l0.79999,1.70001      C347.5,427.10001,347.20001,428,346.5,428.29999z"/><path class="st5" d="M352.89999,438.79999c4.10001,1.29999,8.89999-0.10001,11.70001-3.39999"/><path class="st19" d="M332.89999,427.79999c-5.29999-1.79999-7.29999-4.70001-8-5.89999      c-4.60001-8,1.70001-20.60001,10.39999-26.60001c2.39999-1.60001,13.29999-8.5,23.39999-2.70001      c9.70001,5.60001,9.89999,17.79999,9.89999,18.29999c-2.39999-0.79999-5.29999-1.89999-8.29999-3.5      c-5.10001-2.79999-8.79999-6.10001-11.20001-8.60001c-0.60001,2.29999-1.5,4.70001-2.39999,7.20001      C342.79999,415.39999,337.5,422.60001,332.89999,427.79999z"/><path class="st22" d="M336.39999,423.39999c2.70001-2.89999,6.20001-5.20001,10.10001-6.5      c0.79999-0.29999,1.70001,0.10001,1.89999,0.89999c0.29999,0.79999-0.10001,1.60001-0.89999,1.89999      c-3.60001,0.79999-7.10001,2.39999-10,4.89999C336.70001,425.20001,335.70001,424.10001,336.39999,423.39999      L336.39999,423.39999z"/><path class="st23" d="M348.70001,397.89999c1,4.60001,0.10001,9.39999-1.89999,13.60001      c-2.10001,4.20001-5.29999,7.70001-9.10001,10.39999"/><path class="st23" d="M348.20001,398.79999c1.79999,3.79999,5.70001,6.10001,9.5,8c2.39999,1.20001,4.89999,2.29999,7.5,2.60001      "/><path class="st5" d="M330.29999,431c1.20001-0.5,2.39999-0.60001,3.60001-0.39999"/></g><path class="st5" d="M383.60001,407.20001l28.60001,61.5c1.5,3.20001,0.60001,6.89999-2.10001,9.10001L371.20001,509"/></g><path class="st12" d="M396.39999,391.79999c-2-6.29999-4-12.70001-6-19c-2.60001-3.5-7.89999-9.5-16.29999-11.79999    c-3.29999-0.89999-3.10001-0.10001-18.70001,0.5c0,0-15.60001,2.10001-21.89999,4.5c-1.70001,0.70001-3,2.20001-2.89999,3.89999    c0,0.39999,0.10001,0.79999,0.20001,1.20001c1.5,3.79999,9.39999,4.39999,19,5c3.89999,0.29999,9.39999,0.5,16,0.10001    l0.10001,0.20001c0.20001,2,0.60001,4.60001,1.29999,7.60001c0.89999,4.10001,2.29999,10.60001,5.70001,16.60001    c1.89999,3.29999,6.29999,10,15.70001,15.39999c1.79999-1,4.89999-3,7.20001-6.89999    C400.20001,401.39999,396.89999,393,396.39999,391.79999z"/></g><g><path class="st24" d="M908.29999,893.5c-9.5,15.5-24.29999,22.90002-30.5,25.59998    c-24,11.09998-48.70001,13.59998-69.90002,9.90002c-13.70001-2.40002-25.90002-7.40002-35.5-14.29999    c-6.59998-4.70001-11.90002-10.40002-15.59998-16.79999c-13.29999-22.90002-4.59998-52.79999,13.29999-70    c37.59998-36.40002,114.59998-20.79999,134.40002,15.5C912.09998,857.5,918.70001,876.5,908.29999,893.5z"/><path class="st15" d="M807.90002,929c-45.20001-7.5-44.5-28.70001-44.90002-68.09998    C764.90002,890.5,795.70001,904.70001,807.90002,929z"/><path class="st24" d="M911.59998,887.29999c-2.79999,7.29999-25.29999,66.90002-50.90002,62.40002    c-4.5-1.20001-2.59998-6.40002-0.79999-9.20001c9.29999-12.20001,20.5-23.09998,30.5-34.79999"/><path class="st25" d="M890.29999,905.70001c-1.09998,5.09998-3.40002,11.70001-8.29999,18.09998    c-6.90002,9.09998-15.70001,13.40002-21.40002,15.29999c0.70001-1,1.5-2,2.29999-2.90002    C872.09998,926.09998,881.20001,915.90002,890.29999,905.70001z"/><path class="st24" d="M817.90002,903.70001c1.90002,14.29999,7.40002,21.59998,11.90002,25.70001    c7.40002,6.59998,17.70001,9.29999,21.59998,13.20001c1,1,1.5,2.09998,1.5,3.40002c0,1.59998-1,2.70001-1.20001,3    c-4.5,5.20001-19.09998,0.5-26.40002-3.79999c-16.70001-9.59998-20.20001-30.90002-21-36.70001"/><path class="st25" d="M851.40002,942.59998c-0.09998,0-0.20001,0-0.29999,0c-3.90002,0.09998-14.70001,0-24-7.5    c-4.29999-3.40002-6.70001-7.09998-8.40002-9.90002c-4.5-7.09998-6-13.90002-6.59998-18.09998    c0.79999-0.90002,1.70001-1.79999,2.5-2.59998s1.5-1.59998,2.29999-2.40002c0.29999,0.40002,0.59998,0.79999,1,1.20001    c0.09998,0.09998,0.20001,0.20001,0.29999,0.29999c1.90002,14.29999,7.40002,21.59998,11.90002,25.70001    C837.20001,936,847.5,938.59998,851.40002,942.59998z"/><path class="st24" d="M831.40002,929.29999c18.5,9.09998,36.79999-1,40.40002-3c4.09998-2.29999,11.59998-6.40002,16-15.29999    c5.90002-11.79999,3.70001-27-3.29999-35.5c-16.40002-20-66.5-12.90002-74.59998,11.09998    C805.20001,900.59998,814.79999,921,831.40002,929.29999z"/><path class="st5" d="M891.09998,899.29999c0.79999-8.90002-1.70001-17.90002-6.5-23.79999    c-16.40002-20-66.5-12.90002-74.59998,11.09998c-2,5.90002-1.5,12.79999,1,19.5"/><g><path class="st5" d="M854.79999,911.29999c0,0.5,0.40002,5.09998-3.09998,8.09998c-1.79999,1.59998-3.90002,2-4.79999,2.09998"/><path class="st5" d="M854.70001,911.40002c0.09998,2.20001,1,4.40002,2.29999,6.09998     c1.40002,1.70001,3.29999,3.09998,5.40002,3.79999"/></g><path class="st25" d="M849.70001,908.70001c-0.09998-1,1.59998-2.09998,3.09998-2.5c2.79999-0.70001,6,0.59998,6.09998,1.90002    c0,0.40002-0.29999,0.70001-2,2.5c-0.90002,0.90002-1.59998,1.70001-2.09998,2.29999c-0.5-0.5-1.29999-1.20001-2.29999-1.90002    C850.70001,909.59998,849.79999,909.40002,849.70001,908.70001z"/><path class="st5" d="M862.40002,895.90002c0.29999-0.40002,0.59998-0.79999,1-1.09998    c2.29999-1.90002,5.20001-2.90002,8.20001-3.09998c2.90002-0.29999,5.90002,0.09998,8.79999,0.70001"/><path class="st5" d="M845.5,897.5c-2.79999-0.59998-7.09998-1.09998-12.09998-0.29999c-3,0.5-5.59998,1.29999-7.5,2.20001"/><path class="st5" d="M864.79999,869.59998l14.79999-16.90002c1.79999,3.29999,3.90002,8,5.20001,13.90002    c1.20001,5.5,1.5,10.29999,1.29999,13.90002"/><path class="st5" d="M832.5,873l-16.70001-15c-1.40002,3.5-2.90002,8.40002-3.5,14.5    c-0.59998,5.59998-0.20001,10.40002,0.29999,13.90002"/><path class="st5" d="M840.20001,865.79999c0.70001,3.09998,1.70001,6.09998,3,8.90002"/><path class="st5" d="M848.70001,865.20001c0.29999,2.40002,0.70001,4.90002,1,7.29999"/><path class="st5" d="M857.20001,864.70001c0.09998,2.40002,0.20001,4.90002,0.09998,7.29999"/><path class="st26" d="M756.09998,847.59998c-10.40002,30.70001-8.20001,70,19,91.20001    c3.29999,2.59998,19.70001,15.79999,27.79999,10.70001c3.40002-2.09998,4.09998-6.59998,4.20001-7.29999    c1.40002-8.5-6.79999-15.59998-15.90002-25.29999c-7.90002-8.5-19.09998-20.40002-24.20001-31.09998    c-4.09998-8.70001-7.09998-22.70001-0.09998-45"/><path class="st5" d="M778.70001,863.70001c7.29999,4.09998,13.09998,10.70001,16.40002,18.40002    c3.29999,7.70001,3.90002,16.40002,1.90002,24.5"/></g></g></svg>