<svg xmlns="http://www.w3.org/2000/svg" width="16" height="16" fill="none" viewBox="0 0 16 16">
  <path fill="#000" d="M12 3h-2V2h4v4h-1V4h-1V3Z"/>
  <path fill="#000" d="M11 5V4h1v1h-1Zm-1 1h1V5h-1v1Zm0 0H9v1h1V6ZM4 4H3v2H2V2h4v1H4v1Z"/>
  <path fill="#000" d="M5 5H4V4h1v1Zm1 1H5V5h1v1Zm0 0h1v1H6V6Zm5 5h-1v-1h1v1Zm1 1h-1v-1h1v1Z"/>
  <path fill="#000" d="M12 12h1v-2h1v4h-4v-1h2v-1Zm-2-2H9V9h1v1Zm-8 0h1v2h1v1h2v1H2v-4Z"/>
  <path fill="#000" d="M5 11v1H4v-1h1Zm1-1v1H5v-1h1Zm0 0V9h1v1H6Z"/>
</svg>
