<svg xmlns="http://www.w3.org/2000/svg" width="16" height="16" fill="none" viewBox="0 0 16 16">
  <path fill="#000" d="M3 2h3v1H3V2Zm0 4H2V3h1v3Zm3 0v1H3V6h3Zm0 0h1V3H6v3Zm4-4h3v1h-3V2Zm0 4H9V3h1v3Zm3 0v1h-3V6h3Zm0 0h1V3h-1v3Zm-9 5h1v1H4v-1Z"/>
  <path fill="#000" fill-rule="evenodd" d="M6 9H3v1H2v3h1v1h3v-1h1v-3H6V9Zm0 1v3H3v-3h3Zm4 0H9v2h1v1H9v1h1v-1h1v1h1v-2h2v-1h-1v-1h1V9h-1v1h-1V9h-2v1Zm0 0h2v2h-2v-2Z" clip-rule="evenodd"/>
  <path fill="#000" d="M4 4h1v1H4V4Zm8 0h-1v1h1V4Zm1 9h1v1h-1v-1Z"/>
</svg>
