<svg width="778" height="215" viewBox="0 0 778 215" fill="none" xmlns="http://www.w3.org/2000/svg">
<path d="M63.9998 200.5C35.3998 200.1 -3.70021 188.2 0.899794 160C4.79979 136 38.0998 131.4 61.1998 138.9C84.2998 146.4 108.5 160.1 131.2 151.5C140.3 148.1 148.1 141.3 157.7 139.7C167.7 138.1 178 142.5 187.9 140.2C202.3 137 210.7 121 224.8 116.7C248.3 109.5 274.5 137.8 295.8 125.5C309.1 117.8 310.5 99.7001 313.5 84.6002C325.3 27.0002 392 -12.6998 448.3 4.30015C521.8 26.6002 559.9 123 636.3 130.4C668 133.5 798.8 108.5 774.9 185.4C760.1 232.9 607.1 207.4 568 206.9C400.1 204.9 232.1 202.7 63.9998 200.5Z" fill="#E3E5FC"/>
</svg>
