<svg width="479" height="460" viewBox="0 0 479 460" fill="none" xmlns="http://www.w3.org/2000/svg">
<path d="M59 330.2C55.5 325.1 52.1 319.6 51.9 313.5C51.1 290.7 91.9 283.1 92.2 260.2C92.4 247.7 80.1 239 71 230.1C61.9 221.2 56.1 204.5 67 197.6C69.8 195.8 73.3 195.1 76.2 193.6C86 188.5 88 175.3 84.3 165.2C80.6 155.1 73 146.9 67.2 137.8C44.7 102.1 53.4 56.6001 62.8 15.8001C64.6 8.20013 69.6 -1.49987 77.5 0.500128C82.3 1.70013 84.6 6.90013 86.2 11.4001C93 30.7001 99.8 50.0001 106.6 69.3001C109.5 77.5001 114.1 87.2001 123.1 88.1001C141 90.1001 143.7 57.8001 161.6 55.5001C173.3 65.3001 174.2 82.3001 172.7 97.1001C171.2 111.9 168.4 127.7 175.4 141C182.4 154.3 204.5 160.6 213.2 148.3C224.9 165.2 205.3 189.6 215.5 207.4C222.3 219.2 239.2 222.4 247.2 233.4C254 242.8 252.7 255.2 251.5 266.5C245.8 320.8 243.2 391.1 176.1 408.1C127.4 420.7 82.6 364.5 59 330.2Z" fill="#5A54FF"/>
<path d="M20.6001 371.3C18.5001 369.1 16.4001 366.7 16.1001 363.7C15.4001 356.6 24.3001 353.2 31.3001 351.8C38.3001 350.4 46.9001 345.5 44.7001 338.7C44.1001 336.9 42.9001 335.5 41.6001 334.2C34.9001 327.5 26.6001 322.5 20.7001 315.1C14.8001 307.7 11.8001 296.6 17.4001 288.9C19.0001 286.7 21.3001 284.9 22.1001 282.3C23.7001 277.5 19.9001 272.7 16.8001 268.7C8.50011 258.1 -13.6999 211.1 12.7001 207.2C21.2001 205.9 29.5001 211.5 34.8001 218.3C40.1001 225.1 43.3001 233.3 48.0001 240.6C65.4001 267.5 96.4001 263.1 108.2 296.6C109.4 300 111.1 303.8 114.5 304.8C122.5 307 127.8 288.8 134.1 301.1C146.7 325.9 159.4 360.2 148.3 387.6C141.7 404.1 126.2 424.5 105.8 420.2C74.2001 413.7 42.6001 394.1 20.6001 371.3Z" fill="#F44E4E"/>
<path d="M108.4 397.1C107.7 397.1 107.1 396.7 106.7 396.1L50.3001 284.5C49.8001 283.6 50.2001 282.4 51.1001 282C52.0001 281.5 53.1001 281.9 53.6001 282.8L110 394.4C110.5 395.3 110.1 396.5 109.2 396.9C109 397 108.7 397.1 108.4 397.1Z" fill="white"/>
<path d="M181.8 414.9C180.9 414.9 180.1 414.3 180 413.4L124 137.3C123.8 136.3 124.5 135.3 125.5 135.1C126.5 134.9 127.5 135.6 127.7 136.6L183.7 412.7C183.9 413.7 183.2 414.7 182.2 414.9C182.1 414.9 182 414.9 181.8 414.9Z" fill="white"/>
<path d="M144.5 223.1C144.2 223.1 144 223 143.7 222.9C142.8 222.5 142.3 221.4 142.8 220.4L166.6 167.5C167 166.6 168.1 166.1 169.1 166.6C170 167 170.5 168.1 170 169.1L146.2 222C145.9 222.7 145.3 223.1 144.5 223.1Z" fill="white"/>
<path d="M165.9 323C165.6 323 165.4 322.9 165.1 322.8C164.2 322.4 163.7 321.3 164.2 320.3L188 267.4C188.4 266.5 189.5 266 190.5 266.5C191.4 266.9 191.9 268 191.4 269L167.6 321.9C167.3 322.6 166.6 323 165.9 323Z" fill="white"/>
<path d="M150.6 277C150.3 277 150.1 276.9 149.8 276.8L98.2999 252.5C97.3999 252.1 96.9999 250.9 97.3999 250C97.7999 249.1 98.9999 248.7 99.8999 249.1L151.4 273.4C152.3 273.8 152.7 275 152.3 275.9C152 276.6 151.3 277 150.6 277Z" fill="white"/>
<path d="M64.4001 371.7C89.5001 361.9 117.1 374.9 141.3 386.8C165.5 398.7 194.6 409.8 218.3 397C247.6 381.1 252.1 374.7 284 393.6C304.6 405.8 364.7 424.5 387.7 428.9C404.9 432.2 555 461.5 427.1 457.6C390.8 456.5 351.2 453.1 316 452C239.8 449.5 163.3 441 86.9001 444.5C69.8001 445.3 29.8001 462.5 15.3001 448.9C-4.89992 429.9 46.7001 378.6 64.4001 371.7Z" fill="#FDC510"/>
<path d="M91.4 363.4C91.3 363.4 91.2 363.4 91 363.4C90 363.2 89.3 362.2 89.5 361.2L97.3 322.3C97.5 321.3 98.5 320.6 99.5 320.8C100.5 321 101.2 322 101 323L93.2 361.9C93 362.8 92.3 363.4 91.4 363.4Z" fill="white"/>
<path d="M282 459.8C281.4 459.8 280.8 459.5 280.4 459L251 414.2C250.4 413.3 250.7 412.2 251.5 411.6C252.4 411 253.5 411.3 254.1 412.1L283.5 456.9C284.1 457.8 283.8 458.9 283 459.5C282.7 459.7 282.3 459.8 282 459.8Z" fill="white"/>
<path d="M114.6 452.8C114.1 452.8 113.6 452.6 113.2 452.2L78.7001 414.4C78.0001 413.6 78.1001 412.4 78.8001 411.8C79.5001 411.2 80.8001 411.2 81.4001 411.9L115.9 449.7C116.6 450.5 116.5 451.7 115.8 452.3C115.5 452.6 115.1 452.8 114.6 452.8Z" fill="white"/>
<path d="M99.1001 435.8C98.7001 435.8 98.3001 435.7 98.0001 435.4C97.2001 434.8 97.0001 433.6 97.6001 432.8L113.1 412C113.7 411.2 114.9 411 115.7 411.6C116.5 412.2 116.7 413.4 116.1 414.2L100.6 435C100.3 435.6 99.7001 435.8 99.1001 435.8Z" fill="white"/>
<path d="M267.3 437.4C267 437.4 266.7 437.3 266.5 437.2L232.5 420.6C231.6 420.1 231.2 419 231.6 418.1C232.1 417.2 233.2 416.8 234.1 417.2L268.1 433.8C269 434.3 269.4 435.4 269 436.3C268.6 437 268 437.4 267.3 437.4Z" fill="white"/>
<path d="M259.4 425.4C259.2 425.4 259 425.4 258.7 425.3C257.7 424.9 257.2 423.9 257.6 422.9L265.5 402.2C265.9 401.2 267 400.7 267.9 401.1C268.9 401.5 269.4 402.5 269 403.5L261.1 424.2C260.9 424.9 260.2 425.4 259.4 425.4Z" fill="white"/>
</svg>
