<svg width="140" height="216" viewBox="0 0 140 216" fill="none" xmlns="http://www.w3.org/2000/svg">
<path d="M16.4 164.6C14.9 163.2 13.3 161.7 13.1 159.6C12.9 157.1 14.8 155 16.9 153.6C22.4 150.1 29.2 149.8 35.5 148.1C41.8 146.4 48.4 142.2 48.9 135.7C49.8 122.5 27.2 111.4 18.8 104.4C12.7 99.3998 6.39998 94.0998 2.89998 86.9998C-0.600015 79.8998 -0.500016 70.3998 5.29998 64.9998C12.5 58.2998 42.8 64.0998 50.7 58.2998C61 50.7998 -6.80002 31.3998 49.6 23.4998C37.2 -9.80024 73.9 1.39976 82.1 9.79976C87.4 15.1998 101.6 32.2998 108.2 28.7998C111.3 27.1998 126.8 31.1998 128.9 28.3998C137.7 17.1998 119.1 27.9998 131.4 20.8998C145.5 47.9998 124.8 85.0998 123 113.2C122.1 127.3 139 129 139.6 144.3C139.9 153.4 136.2 162 132.5 170.3C127.7 181.2 122.1 192.9 111.4 198C102.4 202.4 91.7 201.1 82 198.7C57.8 193.1 35 181.2 16.4 164.6Z" fill="#5A54FF"/>
<path d="M119.3 215.2C118.5 215.2 117.8 214.7 117.5 213.9L65 61.5997C64.7 60.5997 65.2 59.5997 66.2 59.1997C67.2 58.8997 68.2 59.3997 68.6 60.3997L121.1 212.7C121.4 213.7 120.9 214.7 119.9 215.1C119.7 215.2 119.5 215.2 119.3 215.2Z" fill="white"/>
<path d="M83.6 111.8C83.4 111.8 83.1 111.8 82.9 111.7C38.5 92.9998 38.6 91.9998 38.6 90.3998C38.6 89.5998 39.2 88.8998 39.9 88.5998C40.7 88.2998 41.7 88.6998 42.1 89.3998C45.6 91.5998 69.5 102 84.3 108.2C85.3 108.6 85.7 109.7 85.3 110.7C85.1 111.4 84.4 111.8 83.6 111.8Z" fill="white"/>
<path d="M109.2 185.9C109 185.9 108.8 185.9 108.6 185.8C108.2 185.7 50.6 165.4 50.6 165.4L51.8 161.9C110.2 182.5 110.2 182.5 110.5 182.8C111.1 183.4 111.2 184.4 110.8 185.1C110.4 185.6 109.8 185.9 109.2 185.9Z" fill="white"/>
</svg>
