<svg width="444" height="414" viewBox="0 0 444 414" fill="none" xmlns="http://www.w3.org/2000/svg">
<path d="M43.6998 350.8C40.5998 344.8 38.0998 338.3 38.4998 331.6C39.2998 319.4 49.3998 310.3 58.0998 301.7C66.7998 293.1 75.2998 281.5 72.0998 269.8C68.8998 258.5 56.5998 253 46.1998 247.6C35.7998 242.2 24.5998 232.7 26.8998 221.2C30.1998 204.7 57.3998 202.1 60.2998 185.6C61.3998 179.6 58.6998 173.6 56.0998 168.1C47.1998 149.3 38.2998 130.5 29.3998 111.7C25.2998 103.1 21.6998 91.7 28.4998 85.1C33.0998 80.6 40.2998 80.7 46.2998 78.5C61.8998 72.8 66.5998 53.5 70.1998 37.3C73.7998 21.1 82.0998 1.90005 98.6998 0.700047C105.1 0.200047 111.3 2.80005 116.8 6.00005C138.7 18.9 152.1 44.8 150.2 70.1C149.4 80.9 146.3 93 152.7 101.8C156 106.4 161.3 109 166 112.2C183.8 124.4 193.7 147.3 190.3 168.6C188 183.2 180.2 198.7 187.1 211.7C194.8 226.3 216.7 228.8 224 243.6C230 255.8 223.2 270.3 215.3 281.3C207.4 292.4 197.9 303.9 198.3 317.4C198.5 324.4 201.3 331.1 202.1 338.1C204.1 355.9 192.1 372.4 178.2 383.7C160.3 398.3 133.1 413.9 109.5 406C82.2998 397.2 56.6998 376.1 43.6998 350.8Z" fill="#A7ADFF"/>
<path d="M131.7 409.7C131 409.7 130.4 409.1 130.3 408.4L108.7 140.6C108.6 139.8 109.2 139.1 110 139.1C110.9 139.1 111.5 139.6 111.5 140.4L133.1 408.2C133.2 409 132.6 409.7 131.8 409.7H131.7Z" fill="white"/>
<path d="M116.4 220C116.1 220 115.8 219.9 115.5 219.7C114.9 219.2 114.8 218.3 115.3 217.7L153.3 170.3C153.8 169.7 154.7 169.6 155.3 170.1C155.9 170.6 156 171.5 155.5 172.1L117.5 219.5C117.2 219.8 116.8 220 116.4 220Z" fill="white"/>
<path d="M125.4 312.4C125.1 312.4 124.8 312.3 124.5 312.1C123.9 311.6 123.8 310.7 124.3 310.1L162.3 262.7C162.8 262.1 163.7 262 164.3 262.5C164.9 263 165 263.9 164.5 264.5L126.5 311.9C126.3 312.2 125.8 312.4 125.4 312.4Z" fill="white"/>
<path d="M120.9 275.8C120.6 275.8 120.2 275.7 120 275.5L84.4997 244.9C83.8997 244.4 83.7997 243.5 84.3997 242.9C84.8997 242.3 85.7997 242.2 86.3997 242.8L121.9 273.4C122.5 273.9 122.6 274.8 122 275.4C121.7 275.7 121.3 275.8 120.9 275.8Z" fill="white"/>
<path d="M136.2 337.1C134.3 333.2 132.3 329 132.7 324.6C133.2 318.5 137.9 313.7 142.7 309.9C153.6 301.2 166.1 294.6 175.8 284.6C185.5 274.6 192.1 259.9 187.4 246.8C183.7 236.5 173.6 228.6 172.9 217.7C172 203.2 187.5 193.9 194.8 181.3C200.9 170.9 201.1 158.1 204.8 146.7C208.5 135.2 218.6 123.6 230.4 125.8C243.5 128.2 248.1 144.5 248.3 157.8C248.5 171.1 247.7 186.5 257.9 195.1C261.4 198.1 266 199.9 268.7 203.6C271.2 207 271.7 211.4 272.1 215.5C274.5 238.7 276.3 264 263.3 283.3C260.3 287.7 256.5 291.9 255.5 297.1C252.9 310 268.2 321.3 266.1 334.3C264.3 345.3 251.5 350.5 244.8 359.4C237.2 369.6 237.8 384.2 230.1 394.3C218.6 409.3 185.9 412.4 170.8 401C153.6 388.1 145.1 355.5 136.2 337.1Z" fill="#F44E4E"/>
<path d="M189.9 409.8C189.8 409.8 189.7 409.8 189.7 409.8C188.9 409.7 188.4 408.9 188.5 408.2L222.4 203.1C222.5 202.3 223.2 201.8 224 201.9C224.8 202 225.3 202.8 225.2 203.5L191.3 408.6C191.2 409.3 190.6 409.8 189.9 409.8Z" fill="white"/>
<path d="M213.5 275.3C213.2 275.3 212.9 275.2 212.6 275C212 274.5 211.9 273.6 212.4 273L245.9 233.7C246.4 233.1 247.3 233 247.9 233.5C248.5 234 248.6 234.9 248.1 235.5L214.6 274.8C214.3 275.1 213.9 275.3 213.5 275.3Z" fill="white"/>
<path d="M199.5 351.9C199 351.9 198.5 351.6 198.2 351.1L178.5 312.8C178.1 312.1 178.4 311.3 179.1 310.9C179.8 310.5 180.6 310.8 181 311.5L200.7 349.8C201.1 350.5 200.8 351.3 200.1 351.7C199.9 351.8 199.7 351.9 199.5 351.9Z" fill="white"/>
<path d="M301 366C306.1 359.5 316.2 355.4 315.7 347.2C315.2 340.2 306.6 334.9 308.3 328.1C309.9 321.7 318.6 321.1 325.2 321.8C326.5 317.4 325.5 312.7 325.1 308.1C324.7 303.5 324.9 298.4 328 295C331.1 291.6 337.9 291.8 339.4 296.2C341.7 289.7 344 283.1 346.4 276.6C347.4 273.9 348.7 270.8 351.5 270.2C355.6 269.4 358.3 274.7 357.7 278.8C357.1 282.9 354.6 286.7 354.8 290.9C355 296.2 360 300.8 365.3 300.5C359.9 304.7 353.9 311.8 357.7 317.5C359.6 320.4 363.9 322.8 362.6 326C361.3 329.2 355.6 328.9 354.9 332.3C353.9 336.8 363.5 338.9 361.7 343.1C355.8 342.2 350.7 350 353.9 355C357.5 360.5 366.2 359.7 370.9 364.2C374.3 367.5 374.8 372.9 373.4 377.4C367.9 395.1 347.2 416.4 327.8 409.4C312.4 404.1 286.3 384.9 301 366Z" fill="#FDC510"/>
<path d="M333.2 412.2H333.1C332.3 412.1 331.7 411.5 331.8 410.7L339.1 313.4C339.2 312.6 339.7 312.1 340.6 312.1C341.4 312.2 342 312.8 341.9 313.6L334.6 410.9C334.5 411.6 333.9 412.2 333.2 412.2Z" fill="white"/>
<path d="M336.3 371.4C336 371.4 335.7 371.3 335.4 371.1L317.5 356.5C316.9 356 316.8 355.1 317.3 354.5C317.8 353.9 318.7 353.8 319.3 354.3L337.2 368.9C337.8 369.4 337.9 370.3 337.4 370.9C337.1 371.2 336.7 371.4 336.3 371.4Z" fill="white"/>
<path d="M335.6 398.3C335.2 398.3 334.8 398.1 334.5 397.8C334 397.2 334.1 396.3 334.7 395.8L363 373C363.6 372.5 364.5 372.6 365 373.2C365.5 373.8 365.4 374.7 364.8 375.2L336.5 398C336.2 398.2 335.9 398.3 335.6 398.3Z" fill="white"/>
<path d="M33.1999 404.8C33.9999 396.5 33.9999 388.9 36.6999 380.8C37.5999 378.1 38.8999 375.2 41.4999 373.9C41.9999 373.7 42.5999 373.5 43.0999 373.7C43.4999 373.9 43.7999 374.3 43.9999 374.7C57.9999 401.6 20.3999 416.7 3.19994 396.5C2.09994 395.2 1.09994 393.8 0.99994 392.2C0.69994 389.2 3.59994 386.6 6.59994 386.3C9.59994 385.9 12.4999 387.3 14.9999 389C21.4999 393.5 25.8999 400.5 29.9999 407.3C24.1999 398.6 21.1999 388 21.5999 377.6C21.6999 376 22.1999 374 23.6999 373.9C24.3999 373.8 25.0999 374.3 25.6999 374.7C29.9999 378 32.3999 383.3 33.2999 388.6C34.1999 393.9 33.6999 399.4 33.1999 404.8Z" fill="#F44E4E"/>
<path d="M419.7 378.3C420 378.3 420.2 378.4 420.5 378.5C421.4 379 421.7 380 421.9 381C423.7 389.7 423.7 387.5 422.8 398.9C424.7 391.8 424 393 427.6 386.6C428.3 385.4 429.1 384.1 430.3 383.3C438.2 378.4 430.6 399.9 429.2 402.4C424.2 411.5 414.6 413.8 405.2 410.4C397 407.4 389.1 401 386.2 392.7C385.9 391.9 385.7 391 386.3 390.4C386.7 390 387.3 390 387.8 389.9C392.8 389.9 397.4 392.4 401.2 395.6C405 398.8 408.1 402.7 411.7 406.1C414.2 408.5 419.8 408.4 423.3 408.8C429.2 409.5 431.6 407.2 436.7 404.2C437.8 403.5 439.1 402.9 440.4 402.9C441.7 402.9 443.1 403.7 443.3 405C443.4 405.8 443.2 406.5 442.8 407.2C438.6 416.1 427.1 414.9 422 407.8C417.2 401 414 389.7 416.4 381.6C417 380.2 418.3 378.3 419.7 378.3Z" fill="#A7ADFF"/>
</svg>
