<svg width="200" height="363" viewBox="0 0 200 363" fill="none" xmlns="http://www.w3.org/2000/svg">
<path d="M173.268 362.579C160.268 352.979 147.368 343.279 134.368 333.679C96.0676 305.179 57.1676 276.079 28.8676 237.679C17.6676 222.479 8.16765 205.579 4.46765 187.079C3.76765 183.279 3.26765 179.079 5.36765 175.779C8.86765 170.179 17.0676 170.579 23.4676 171.879C42.8676 175.879 61.7676 182.179 79.6676 190.679C68.8676 150.879 21.7676 131.679 3.86765 94.5791C0.967648 88.5791 -1.13235 81.6791 0.667648 75.1791C1.86765 71.0791 4.56765 67.4791 7.86765 64.6791C18.9676 55.1791 35.4677 54.2791 49.3676 58.7791C63.2676 63.2791 75.2676 72.2791 86.8676 81.0791C70.8676 69.3792 58.1676 53.0791 50.9676 34.6791C47.9676 27.0791 45.8676 18.1791 49.4676 10.7791C55.4676 -1.82085 73.9677 -2.52085 86.1676 4.27915C109.568 17.4791 117.068 46.9791 123.768 72.9791C130.468 98.9791 141.968 128.379 167.568 136.379C170.668 137.379 173.968 138.079 176.268 140.279C180.668 144.779 178.468 152.579 174.068 157.179C169.668 161.679 163.768 164.479 159.568 169.179C150.168 179.679 152.368 196.079 157.368 209.279C162.368 222.479 169.968 235.379 169.468 249.379C168.968 266.879 173.668 287.779 174.568 305.279C174.968 313.179 160.668 315.579 162.568 323.279C164.468 330.979 164.768 339.879 159.868 346.179C154.968 352.479 143.668 353.679 139.668 346.779" fill="#5A54FF"/>
<path d="M197.268 340.879C196.668 340.879 195.968 340.579 195.668 339.979C155.268 269.979 78.3677 136.879 74.6677 131.879C74.0677 131.279 73.9677 130.379 74.3677 129.679C74.8677 128.779 75.9677 128.479 76.8677 128.979C77.4677 129.279 78.8677 130.079 198.868 338.179C199.368 339.079 199.068 340.179 198.168 340.779C197.968 340.779 197.568 340.879 197.268 340.879Z" fill="white"/>
<path d="M145.768 251.679C145.668 251.679 145.568 251.679 145.468 251.679L66.2676 238.979C65.2676 238.779 64.5676 237.879 64.6676 236.879C64.8676 235.879 65.7676 235.179 66.7676 235.279L145.968 247.979C146.968 248.179 147.668 249.079 147.568 250.079C147.468 251.079 146.668 251.679 145.768 251.679Z" fill="white"/>
</svg>
