<svg width="305" height="333" viewBox="0 0 305 333" fill="none" xmlns="http://www.w3.org/2000/svg">
<path d="M218.46 201.702C202.56 204.802 259.96 182.502 244.06 185.602C253.46 163.702 215.86 167.402 224.36 145.102C200.06 144.702 171.56 116.402 169.36 136.102C221.86 54.702 156.26 68.802 140.36 14.602C138.36 7.90198 133.76 0.101982 125.36 0.0019822C119.76 -0.0980178 115.06 3.60198 111.96 7.40198C85.7605 39.302 121.66 82.902 109.96 120.002C101.06 121.402 94.3605 113.902 89.2605 107.802C84.0605 101.702 73.7605 95.802 66.8605 100.702C62.1605 104.002 63.0605 110.102 64.6605 115.102C72.1605 138.802 85.4605 161.202 103.46 180.702C95.8605 185.002 85.8605 179.702 78.3605 175.102C70.9605 170.502 58.7605 167.102 53.6605 173.402C50.7605 177.002 52.1605 181.802 54.0605 185.902C59.8605 197.902 69.4605 208.602 81.5605 216.802C101.56 230.302 74.8605 231.102 75.5605 243.202C76.3605 256.702 87.5605 258.902 84.7605 274.702C81.3605 294.702 63.1605 308.102 98.2605 310.602C121.36 312.202 149.26 296.902 164.66 284.502C178.36 273.502 189.46 259.002 198.36 245.202C201.36 240.802 216.26 202.202 218.46 201.702Z" fill="#FDC510"/>
<path d="M88.1604 332.802C158.46 320.102 226.16 295.602 286.86 260.802C292.76 257.402 298.76 253.802 302.16 248.202C305.56 242.602 305.36 234.802 299.86 230.902C295.46 227.802 289.46 228.202 283.96 228.602C267.76 230.002 251.56 231.302 235.36 232.702C253.16 216.602 270.06 199.602 285.96 181.902C289.96 177.402 293.86 170.702 289.56 166.502C287.16 164.202 283.36 164.002 279.86 163.902C271.16 163.702 262.46 163.402 253.76 163.202C262.86 151.202 270.36 138.202 275.76 124.502C278.16 118.502 280.16 112.102 278.76 105.802C277.36 99.6021 271.26 93.8021 264.36 94.3021C260.66 94.6021 257.36 96.5021 254.36 98.5021C229.76 114.902 213.86 141.702 212.26 169.502C211.66 180.902 211.06 195.602 199.16 199.202C194.86 200.502 190.26 199.802 185.86 200.202C168.76 201.902 159.06 219.202 156.56 234.802C154.06 250.402 155.56 267.002 147.16 280.802C143.66 286.602 138.46 291.502 134.76 297.302C131.06 303.102 128.96 310.302 132.06 316.402C135.16 322.502 145.16 325.302 150.16 320.402" fill="#5A54FF"/>
<path d="M124.061 287.202C123.961 287.202 123.961 287.202 123.861 287.202C122.861 287.102 122.061 286.202 122.161 285.102L141.861 110.602C141.961 109.602 142.861 108.802 143.961 108.902C144.961 109.002 145.761 109.902 145.661 111.002L125.961 285.502C125.761 286.502 124.961 287.202 124.061 287.202Z" fill="white"/>
<path d="M131.361 222.202C130.961 222.202 130.461 222.102 130.161 221.802C129.361 221.102 129.261 220.002 129.961 219.202L174.861 165.602C175.561 164.802 176.661 164.702 177.461 165.402C178.261 166.102 178.361 167.202 177.661 168.002L132.761 221.602C132.461 222.002 131.961 222.202 131.361 222.202Z" fill="white"/>
<path d="M136.26 179.002C135.66 179.002 135.16 178.702 134.76 178.302L107.16 141.902C106.56 141.102 106.66 139.902 107.56 139.302C108.36 138.702 109.56 138.802 110.16 139.702L137.76 176.102C138.36 176.902 138.26 178.102 137.36 178.702C137.06 178.902 136.66 179.002 136.26 179.002Z" fill="white"/>
<path d="M171.961 311.002C171.661 311.002 171.361 310.902 171.061 310.802C170.161 310.302 169.761 309.202 170.261 308.302L229.961 192.702C230.461 191.802 231.561 191.402 232.461 191.902C233.361 192.402 233.761 193.502 233.261 194.402L173.561 310.002C173.261 310.702 172.561 311.002 171.961 311.002Z" fill="white"/>
<path d="M205.16 246.602C204.36 246.602 203.66 246.102 203.36 245.402L194.46 221.002C194.06 220.002 194.56 219.002 195.56 218.602C196.56 218.202 197.56 218.702 197.96 219.702L206.86 244.102C207.26 245.102 206.76 246.102 205.76 246.502C205.56 246.502 205.36 246.602 205.16 246.602Z" fill="white"/>
<path d="M2.70005 266.6C1.70005 266.6 0.800049 265.8 0.800049 264.7C0.800049 263.7 1.60005 262.8 2.70005 262.8L51.3 262.4C52.3 262.4 53.2001 263.2 53.2001 264.3C53.2001 265.3 52.4 266.2 51.3 266.2L2.70005 266.6Z" fill="white"/>
</svg>
