<svg width="201" height="250" viewBox="0 0 201 250" fill="none" xmlns="http://www.w3.org/2000/svg">
<path d="M23.7 164.704C22 165.404 20.3 166.104 18.6 166.904C21.3 145.804 21.3 124.504 22.2 103.204C22.5 96.5042 20.4 82.3042 26.4 79.3042C34.2 75.4042 43.5 83.4042 51.4 79.8042C60.4 75.8042 58.7 65.3042 60.4 57.3042C61.8 50.6042 70.9 18.2042 80.9 34.3042C96 24.6042 108.9 2.90417 127.8 0.104167C131.2 -0.395833 135.2 0.904167 136.8 4.00417C137.7 5.80417 137.7 8.00417 137.5 10.0042C137 14.9042 135.4 19.6042 132.9 23.8042C131.3 26.6042 129.2 29.3042 128.2 32.4042C127.2 35.5042 127.6 39.4042 130.1 41.4042C132.3 43.2042 135.4 43.0042 138.2 43.5042C141 44.0042 144.1 45.9042 143.8 48.8042C143.7 49.9042 143 50.9042 142.4 51.8042C114.1 93.7042 100.7 144.904 60.6 177.904C54.5 182.904 47.7 187.604 39.9 188.504C30.7 189.504 21.7 185.004 15.1 178.504C8.6 172.004 4.2 163.704 0 155.504" fill="#5A54FF"/>
<path d="M126.8 235.204C144.6 231.504 163.4 226.804 175.8 213.504C165.5 211.804 155.2 210.204 144.9 208.504C143.5 208.304 142 208.004 141.2 206.804C139.9 204.904 141.5 202.404 143.1 200.804C153.7 190.504 169.4 188.104 182.7 181.704C186.6 179.804 190.8 177.004 191.5 172.704C192.2 168.204 188.5 163.904 184.2 162.304C179.9 160.804 175.1 161.304 170.5 161.804C179.4 150.804 188.2 139.904 197.1 128.904C198.7 126.904 200.4 124.704 200.7 122.104C201.2 116.704 194.6 112.904 189.3 114.004C184 115.104 180 119.304 176.3 123.204C184.4 106.404 190.5 88.6043 194.4 70.3043C195.6 64.7043 196.2 57.9043 192 54.1043C187.8 50.4043 180.9 51.8043 176.7 55.6043C172.5 59.4043 170.5 64.9043 168.3 70.0043C162.1 84.3043 153.8 97.7043 143.6 109.504C142.4 110.804 141.2 112.204 139.5 112.804C134.4 114.604 130.1 108.204 129.7 102.804C129.3 97.4043 130.2 91.2043 126.6 87.2043C122.5 82.6043 114.4 83.8043 110 88.2043C105.6 92.5043 103.8 98.8043 102.2 104.804C99.5 114.904 96.8 124.904 94.2 135.004C89.9 131.304 85.3 127.504 79.8 125.904C74.3 124.304 67.5 125.604 64.5 130.504C62.9 132.904 62.5 135.904 62 138.804C57 163.704 38.5 184.104 32.2 208.704C27.5 227.104 33.9 251.404 56.8 249.304C79.4 247.404 104.2 239.904 126.8 235.204Z" fill="#FDC510"/>
<path d="M43.2 242.804C42.7 242.804 42.2 242.604 41.8 242.204C41.1 241.504 41.1 240.304 41.9 239.604L149.1 136.804C149.8 136.104 151 136.104 151.7 136.904C152.4 137.604 152.4 138.804 151.6 139.504L44.4 242.304C44.2 242.604 43.7 242.804 43.2 242.804Z" fill="white"/>
<path d="M80.4 207.204C80.3 207.204 80.2 207.204 80.1 207.204C79.1 207.104 78.4 206.104 78.5 205.104L85.3 156.404C85.4 155.404 86.4 154.704 87.4 154.804C88.4 154.904 89.1 155.904 89 156.904L82.2 205.604C82.1 206.504 81.3 207.204 80.4 207.204Z" fill="white"/>
<path d="M109.5 179.304C108.6 179.304 107.8 178.704 107.7 177.704C107.5 176.704 108.2 175.704 109.2 175.504L150.2 168.504C151.2 168.304 152.2 169.004 152.4 170.004C152.6 171.004 151.9 172.004 150.9 172.204L109.9 179.204C109.7 179.304 109.6 179.304 109.5 179.304Z" fill="white"/>
<path d="M30.5 158.504C30.1 158.504 29.7 158.404 29.4 158.104C28.6 157.504 28.4 156.304 29 155.504L100.3 58.7039C100.9 57.9039 102.1 57.7039 102.9 58.3039C103.7 58.9039 103.9 60.1039 103.3 60.9039L32 157.704C31.7 158.204 31.1 158.504 30.5 158.504Z" fill="white"/>
<path d="M76.1 96.6041C75.9 96.6041 75.8 96.6041 75.6 96.5041C74.6 96.2041 74 95.2041 74.3 94.2041L85.4 51.6041C85.7 50.6041 86.7 50.0041 87.7 50.3041C88.7 50.6041 89.3 51.6041 89 52.6041L77.9 95.2041C77.6 96.1041 76.9 96.6041 76.1 96.6041Z" fill="white"/>
</svg>
