<svg width="346" height="399" viewBox="0 0 346 399" fill="none" xmlns="http://www.w3.org/2000/svg">
<path d="M11.3999 335.6C9.8999 333.6 8.2999 331.3 8.8999 328.8C9.4999 326.4 11.7999 325.1 13.9999 323.9C23.9999 318.7 34.0999 313.5 44.0999 308.2C26.4999 290 12.1999 268.6 2.0999 245.4C0.399901 241.5 -1.0001 236.6 1.8999 233.5C5.5999 229.6 11.8999 232.5 16.4999 235.3C21.0999 238 28.3999 239.6 30.5999 234.8C31.9999 231.8 30.1999 228.4 28.6999 225.6C17.0999 204.1 12.7999 178.7 16.7999 154.6C17.2999 151.8 17.8999 148.9 19.5999 146.7C24.8999 139.9 36.4999 143.9 41.0999 151.1C45.6999 158.3 46.2999 167.4 49.4999 175.4C52.7999 183.3 61.1999 190.8 69.1999 187.6C75.0999 185.3 79.3999 177.7 85.5999 178.9C88.0999 179.4 90.0999 181.3 91.7999 183.3C99.9999 193.3 102.7 207.6 98.7999 220C96.2999 227.9 91.5999 237.5 97.4999 243.3C101.4 247.1 108 246.7 112.3 250C119.5 255.5 116.4 267 111.3 274.6C106.2 282.1 99.4999 290.3 101.6 299.1C102.7 303.5 105.8 307 107.5 311.2C109.7 316.6 109.5 322.7 109.2 328.5C108.7 338.2 108.2 347.9 107.8 357.6C106.5 384.8 94.8999 402.4 70.5999 387.5C49.5999 374.4 26.8999 355.3 11.3999 335.6Z" fill="#A7ADFF"/>
<path d="M90.9 389C90.3 389 89.8 388.6 89.6 388C78.8 339.6 54.2 226.7 57.4 223C57.9 222.5 58.7 222.4 59.3 222.9C59.8 223.3 59.9 224 59.6 224.5C58.3 230.7 78.3 325.2 92.2 387.4C92.4 388.1 91.9 388.8 91.2 389C91.1 389 91 389 90.9 389Z" fill="white"/>
<path d="M59 307.7C57.3 297.8 59.4 286.3 67.4 280.2C78.4 272 97.1 276.1 104.6 264.6C89.6 240.8 79.9 213.8 76.3 185.9C74.4 171.5 77.7 152.2 92 149.8C99.8 148.5 109.1 152.9 115 147.7C118.4 144.7 119.1 139.6 118.9 135C118 112.2 103.2 91.9001 100.7 69.2001C97.1 37.4001 121.7 5.1001 153.3 0.100098C183.8 0.100098 157.2 59.2001 173.5 83.5001C181.6 83.9001 186 74.6001 189.5 67.3001C193 60.0001 201.7 52.3001 208.1 57.3001C210 58.8001 211.1 61.2001 211.7 63.5001C216 79.1001 205.9 94.6001 200.7 110C195.6 125.4 200.5 148.1 216.7 148.5C232.5 148.9 245.6 126.4 259.7 133.6C269.1 138.4 268.4 152.1 264.7 161.9C260.4 173.5 253.8 184.4 245.5 193.6C239.5 200.3 232.6 206.2 228.4 214.2C224.2 222.1 223.7 232.9 230 239.2C235.6 244.8 245 245.4 250 251.6C258.8 262.6 246.4 277.6 235.1 286C226.1 292.7 217.1 299.4 208.1 306C200.6 311.6 225.2 299 222.4 307.9C219.6 316.8 192.6 347.5 202 347.4C247 334.8 171 377.7 158.8 382.8C144.6 388.7 134.5 387.1 122.3 378.8C100.1 363.6 63.7 335.8 59 307.7Z" fill="#E3E5FC"/>
<path d="M139.7 387.6H139.6C138.9 387.5 138.3 386.9 138.4 386.2L161.6 132.6C161.7 131.9 162.3 131.3 163 131.4C163.7 131.5 164.3 132.1 164.2 132.8L141 386.4C140.9 387.1 140.4 387.6 139.7 387.6Z" fill="white"/>
<path d="M154.7 224C154.4 224 154.1 223.9 153.9 223.7L106.2 187.1C105.6 186.7 105.5 185.8 106 185.3C106.4 184.7 107.3 184.6 107.8 185.1L155.5 221.7C156.1 222.1 156.2 223 155.7 223.5C155.4 223.8 155 224 154.7 224Z" fill="white"/>
<path d="M157.1 196.9C156.7 196.9 156.2 196.7 156 196.3C155.6 195.7 155.8 194.9 156.4 194.5L202 166.3C202.6 165.9 203.4 166.1 203.8 166.7C204.2 167.3 204 168.1 203.4 168.5L157.8 196.7C157.6 196.9 157.4 196.9 157.1 196.9Z" fill="white"/>
<path d="M316.7 355.2C317 355.2 317.3 355.3 317.7 355.5C318.7 356.1 319.1 357.3 319.4 358.5C321.6 369.1 321.6 366.5 320.5 380.3C322.9 371.7 321.9 373.2 326.3 365.4C327.2 363.9 328.1 362.3 329.6 361.4C339.2 355.5 329.9 381.6 328.3 384.6C322.3 395.7 310.5 398.5 299.1 394.4C289.1 390.8 279.5 383 275.9 372.8C275.6 371.9 275.3 370.7 276 370C276.5 369.5 277.2 369.5 277.9 369.5C283.9 369.5 289.6 372.6 294.2 376.5C298.8 380.4 302.6 385.1 307 389.3C310.1 392.3 316.9 392.1 321.1 392.6C328.3 393.5 331.2 390.7 337.5 387C338.9 386.2 340.4 385.5 342 385.5C343.6 385.5 345.3 386.5 345.6 388.1C345.8 389 345.5 390 345.1 390.8C340 401.7 326 400.2 319.8 391.5C313.9 383.2 310.1 369.5 312.9 359.6C313.3 357.6 314.9 355.2 316.7 355.2Z" fill="#F44E4E"/>
</svg>
