<svg width="314" height="375" viewBox="0 0 314 375" fill="none" xmlns="http://www.w3.org/2000/svg">
<path d="M201.3 362.553C237.4 360.653 277.3 351.253 299.4 328.453C310.3 317.253 315.3 302.853 312.3 286.853C309 268.853 294.5 252.453 291.3 234.353C288 215.753 302.6 208.853 309.3 194.153C316.8 177.553 313 156.353 298.8 139.753C291.6 131.353 282 124.253 271 119.853C259.3 115.153 246.3 115.953 239.8 104.053C235.9 96.9527 236.2 89.1527 237.6 82.0527C241 63.8527 250 47.5527 257.3 30.7527C260.2 24.0527 262.4 15.6527 256.5 9.25266C244.5 -3.84734 215.4 -0.647338 202.7 4.35266C189.1 9.75266 179.3 20.4527 176.3 33.2527C173.6 44.5527 175.3 58.3527 165.6 65.7527C158.9 70.8527 148.5 71.2527 139.6 73.6527C123.7 77.9527 122.3 90.8527 126.5 104.453C131.7 120.853 137 137.253 127.2 151.253C118.6 163.553 101.9 169.853 91.2001 180.753C87.6001 184.453 84.6001 188.853 84.6001 193.953C84.6001 212.153 110.7 225.253 112.8 244.353C113.8 253.553 112 262.353 110.8 271.153C106.7 301.353 118.3 332.253 150.9 353.953C181.1 374.153 222.8 379.053 252 365.853" fill="#E3E5FC"/>
<path d="M182.8 355.853C182.7 355.853 182.7 355.853 182.6 355.853C181.6 355.753 180.8 354.853 180.9 353.853L202 131.053C202.1 130.053 203.1 129.253 204 129.353C205 129.453 205.8 130.353 205.7 131.353L184.6 354.153C184.5 355.153 183.7 355.853 182.8 355.853Z" fill="white"/>
<path d="M193.3 244.452C192.6 244.452 191.9 244.053 191.6 243.353C191.2 242.453 191.6 241.253 192.6 240.853L255.6 213.353C256.5 212.953 257.7 213.353 258.1 214.353C258.5 215.253 258.1 216.453 257.1 216.853L194.1 244.353C193.8 244.453 193.6 244.452 193.3 244.452Z" fill="white"/>
<path d="M197.1 198.353C196.4 198.353 195.7 197.953 195.4 197.253C195 196.353 195.4 195.153 196.4 194.753L259.4 167.253C260.4 166.853 261.5 167.253 261.9 168.253C262.3 169.153 261.9 170.353 260.9 170.753L197.9 198.253C197.6 198.253 197.3 198.353 197.1 198.353Z" fill="white"/>
<path d="M195.3 223.153C195 223.153 194.8 223.053 194.5 222.953L138.1 198.153C137.2 197.753 136.7 196.653 137.1 195.653C137.5 194.753 138.6 194.253 139.6 194.653L196 219.453C196.9 219.853 197.4 220.953 197 221.953C196.8 222.753 196.1 223.153 195.3 223.153Z" fill="white"/>
<path d="M148.3 306.052C148.5 305.352 148.7 304.652 148.8 303.952C150.9 294.052 147.8 284.652 139.7 278.852C133.3 274.252 122.9 272.852 120.4 264.152C119.2 260.052 120.6 255.752 122.3 251.852C124 247.952 126.1 244.152 126.5 239.952C126.9 235.752 125 230.952 120.9 229.652C118 228.752 114.8 229.852 111.8 229.452C100.4 228.352 104.3 215.452 101.2 208.152C99.8999 205.052 97.0999 202.352 93.6999 202.052C90.0999 201.752 86.8999 204.052 83.7999 205.852C80.6999 207.652 76.4999 208.752 73.6999 206.452C70.7999 204.052 71.4999 199.452 72.8999 195.952C76.2999 187.352 82.4999 180.152 88.9999 173.552C91.6999 170.852 94.5999 167.952 95.0999 164.152C95.7999 159.352 92.3999 154.852 88.3999 152.152C78.5999 145.452 66.7999 140.952 55.2999 138.052C42.9999 134.952 15.9999 134.252 17.3999 154.352C18.1999 166.352 36.0999 185.352 22.3999 195.252C15.6999 200.152 -8.98838e-05 198.552 4.29991 211.052C5.19991 213.652 6.49991 216.152 7.19991 218.852C9.59991 229.152 1.19991 237.252 0.79991 247.152C0.39991 255.452 8.49991 262.052 13.9999 266.952C16.4999 269.252 18.7999 272.252 18.2999 275.652C17.9999 277.652 16.8999 279.352 16.2999 281.252C15.2999 284.752 16.4999 288.452 16.6999 292.152C17.1999 299.952 9.99991 301.052 7.49991 307.252C1.79991 320.952 28.9999 320.452 34.7999 327.752C39.5999 333.852 38.4999 342.252 41.9999 348.952C49.4999 363.352 73.2999 367.052 87.6999 368.252C97.1999 369.052 107.5 367.352 114.7 360.952C122.6 354.052 125.1 343.652 129.7 334.652C135.1 324.352 144.9 317.852 148.3 306.052Z" fill="#A7ADFF"/>
<path d="M159.9 348.652C155.9 339.052 157 328.052 158.3 317.752C158.7 314.252 159.2 310.652 161 307.752C162.7 304.952 165.8 302.852 169.2 303.352C169.6 303.452 170 303.452 170.3 303.352C170.9 303.152 171.1 302.352 171.2 301.652C171.7 297.152 170.7 292.852 170.7 288.452C170.7 282.552 176.4 287.052 178.1 289.252C179.4 290.952 180.5 292.752 181.9 294.452C182.1 294.652 182.3 294.852 182.5 294.752C182.7 294.652 182.8 294.352 182.8 294.052C182.8 292.852 183.2 291.652 183.8 290.652C184.5 289.552 185.6 288.752 186.4 287.752C188.9 284.752 187.9 279.452 189.8 275.852C191.7 272.452 195.1 269.352 199.3 270.252C206.2 271.652 207.2 281.152 205.8 288.052C205.2 291.252 204.8 295.252 207.5 296.952C210.4 298.752 226.6 285.352 232.2 281.852C234.8 280.252 238.3 278.752 240.6 280.752C242.8 282.652 242.1 286.252 240.9 288.952C239.6 292.052 245.8 294.052 247.4 296.052C253.2 303.352 250 315.752 246.1 323.052C242 330.752 236 337.452 229.5 343.252C224.2 347.952 236 359.252 231.4 364.652C223.9 373.452 193.5 372.752 181.7 371.552C171.7 370.552 166 361.952 162 353.652C161.3 351.852 160.6 350.252 159.9 348.652Z" fill="#F44E4E"/>
<path d="M172.5 368.453C172.2 368.453 171.8 368.353 171.5 368.153C170.6 367.653 170.4 366.453 170.9 365.553L205.1 310.753C205.7 309.853 206.8 309.653 207.7 310.153C208.6 310.653 208.8 311.853 208.3 312.753L174.1 367.553C173.8 368.053 173.2 368.453 172.5 368.453Z" fill="white"/>
<path d="M197.7 327.952C196.8 327.952 196 327.252 195.9 326.352C195.7 325.352 196.4 324.352 197.5 324.252L216.2 321.252C217.2 321.052 218.2 321.752 218.3 322.852C218.5 323.852 217.8 324.852 216.7 324.952L198 327.952C197.9 327.952 197.8 327.952 197.7 327.952Z" fill="white"/>
<path d="M106.5 374.153C105.7 374.153 105 373.653 104.7 372.853L50.4998 215.753C50.1998 214.753 50.6998 213.753 51.6998 213.353C52.6998 213.053 53.6998 213.553 54.0998 214.553L108.3 371.653C108.6 372.653 108.1 373.653 107.1 374.053C106.9 374.053 106.7 374.153 106.5 374.153Z" fill="white"/>
<path d="M84.3 313.553C84.2 313.553 84.2 313.553 84.1 313.553L48.8 310.053C47.8 309.953 47 309.053 47.1 307.953C47.2 306.953 48.1 306.153 49.1 306.253L84.4 309.753C85.4 309.853 86.2 310.753 86.1 311.853C86.1 312.853 85.2 313.553 84.3 313.553Z" fill="white"/>
<path d="M69.7 267.252C69.6 267.252 69.5 267.252 69.4 267.252L39.5 261.752C38.5 261.552 37.8 260.552 38 259.552C38.2 258.552 39.2 257.852 40.2 258.052L70.1 263.552C71.1 263.752 71.8 264.752 71.6 265.752C71.4 266.652 70.6 267.252 69.7 267.252Z" fill="white"/>
<path d="M76.9998 288.252C76.4998 288.252 76.0998 288.052 75.6998 287.752C74.8998 287.052 74.8998 285.852 75.5998 285.152L100.4 258.652C101.1 257.852 102.3 257.852 103 258.552C103.8 259.252 103.8 260.452 103.1 261.152L78.2998 287.652C77.9998 288.052 77.4998 288.252 76.9998 288.252Z" fill="white"/>
</svg>
