<svg width="233" height="424" viewBox="0 0 233 424" fill="none" xmlns="http://www.w3.org/2000/svg">
<path d="M167.936 388.239C172.136 385.139 176.836 381.239 177.136 376.039C177.436 370.439 172.136 365.639 166.536 365.039C160.936 364.539 155.436 367.439 151.436 371.239C146.936 353.039 180.536 343.339 177.736 324.839C168.936 321.739 158.236 325.139 152.736 332.639C146.736 318.539 156.036 302.939 165.636 290.939C175.236 278.939 186.036 265.139 183.136 250.039C174.636 248.639 165.536 251.339 159.136 257.039C155.036 250.239 154.336 241.539 157.236 234.139C159.036 229.739 162.036 225.339 161.336 220.639C159.936 210.939 146.136 210.439 136.536 212.739C137.936 190.339 118.936 168.639 96.5359 167.039C86.6359 166.339 74.3359 171.939 74.7359 181.939C74.8359 185.439 76.6359 188.639 78.1359 191.839C84.8359 206.139 86.8359 222.639 83.5359 238.139C80.6359 251.939 74.1359 267.239 81.8359 279.039C84.3359 282.839 88.1359 285.739 90.5359 289.539C93.3359 294.039 94.1359 299.539 94.7359 304.839C98.2359 332.339 94.7359 383.239 112.936 405.839C130.836 428.039 169.836 399.139 186.536 386.739C212.936 367.139 233.436 336.539 232.336 303.739C232.236 301.739 232.036 299.639 230.536 298.239C228.936 296.739 226.436 296.939 224.336 297.139C214.636 298.139 204.936 299.239 195.236 300.239C200.036 275.239 229.036 257.939 227.936 232.539C221.036 231.739 214.136 231.039 207.236 230.239C212.936 221.039 218.736 211.439 220.336 200.739C221.936 190.039 218.336 177.739 208.936 172.439C195.136 164.639 178.536 174.739 166.036 184.439C193.036 163.239 215.436 22.0386 152.936 53.1386C146.036 56.5386 138.036 59.2386 130.836 56.7386C113.436 50.6386 129.336 22.6386 120.236 10.0386C117.036 5.5386 111.836 2.8386 106.536 1.3386C94.1359 -2.0614 80.2359 1.1386 70.5359 9.5386C60.8359 17.9386 55.7359 31.2386 57.3359 43.9386C58.5359 53.3386 63.0359 61.9386 67.1359 70.4386C80.5359 97.9386 -33.3641 24.1386 9.83592 125.839C-7.36409 114.239 59.9359 136.839 39.5359 140.239C19.1359 143.639 0.135915 161.439 1.23592 182.139C2.23592 201.239 18.3359 215.639 32.6359 228.439C46.9359 241.239 61.7359 257.939 58.7359 276.839C57.0359 287.739 49.7359 296.839 45.5359 306.939C41.3359 317.139 41.6359 331.139 51.2359 336.539C56.8359 339.739 64.3359 339.039 69.1359 343.239C73.6359 347.139 74.1359 353.839 75.0359 359.739C77.9359 380.139 90.9359 408.039 110.036 418.439C127.836 428.239 152.136 399.939 167.936 388.239Z" fill="#FAE026"/>
<path d="M161.836 422.839C160.936 422.839 160.136 422.239 160.036 421.339L114.136 179.239C113.936 178.239 114.636 177.239 115.636 177.039C116.636 176.839 117.636 177.539 117.836 178.539L163.736 420.639C163.936 421.639 163.236 422.639 162.236 422.839C162.036 422.839 161.936 422.839 161.836 422.839Z" fill="white"/>
<path d="M139.336 304.138C139.036 304.138 138.636 304.038 138.336 303.838C137.436 303.338 137.236 302.138 137.736 301.238L180.236 232.738C180.736 231.838 181.936 231.638 182.836 232.138C183.736 232.638 183.936 233.838 183.436 234.738L140.936 303.238C140.636 303.838 140.036 304.138 139.336 304.138Z" fill="white"/>
<path d="M102.836 169.739C102.536 169.739 102.136 169.639 101.836 169.439C100.936 168.939 100.736 167.739 101.236 166.839L143.736 98.3386C144.236 97.4386 145.436 97.2386 146.336 97.7386C147.236 98.2386 147.436 99.4386 146.936 100.339L104.436 168.839C104.036 169.439 103.436 169.739 102.836 169.739Z" fill="white"/>
</svg>
