<svg width="60" height="37" viewBox="0 0 60 37" fill="none" xmlns="http://www.w3.org/2000/svg">
<path d="M41.7185 13.3566C41.7185 13.3566 43.6024 12.9373 43.4977 11.3336C43.3931 9.72983 42.8384 8.36716 43.3931 7.06738C43.9478 5.77809 46.2503 5.88291 48.5947 6.8263C50.9287 7.76968 54.6651 7.63342 55.9524 7.21413C57.2397 6.79485 58.4643 5.67327 59.0922 6.89967C59.7202 8.12607 58.4643 10.1491 56.371 10.8095C54.2778 11.4699 53.8278 11.1554 53.8278 11.1554C53.8278 11.1554 55.2616 11.0506 56.0571 10.8409C56.863 10.6313 57.1769 10.4216 57.1769 10.4216C57.1769 10.4216 58.0456 12.235 56.685 13.2832C55.3244 14.3315 54.9372 13.9436 54.9372 13.9436L55.7745 13.9751C55.7745 13.9751 55.7012 16.2497 53.8173 16.4908C51.9334 16.7318 50.8868 15.8933 50.8868 15.8933L51.9648 16.344C51.9648 16.344 51.9962 17.7801 50.6356 18.1574C49.275 18.5452 48.3645 17.9478 48.3645 17.9478C48.3645 17.9478 48.1866 18.8912 47.2865 18.9645C46.3759 19.0379 45.3293 18.6186 45.3293 18.6186C45.3293 18.6186 44.8374 19.0065 43.8327 18.9645C42.8175 18.9331 42.5767 18.7863 42.5767 18.7863C42.5767 18.7863 42.336 15.9876 42.1267 14.9813C41.9174 13.9646 41.9174 13.9646 41.9174 13.9646L41.7185 13.3566Z" fill="white"/>
<path d="M58.4956 6.50135C58.4956 6.50135 58.7364 7.7592 57.1665 9.15332C55.5965 10.5474 53.1579 10.6208 52.0381 10.5894C50.9182 10.5579 50.7089 10.4112 50.7089 10.4112C50.7089 10.4112 52.5928 11.6376 54.9267 11.7738C57.2606 11.9101 57.4386 11.4594 57.4386 11.4594L57.2606 10.516C57.2606 10.516 58.4433 9.78224 58.9352 8.17848C59.4271 6.57473 58.7992 6.42798 58.7992 6.42798L58.4956 6.50135Z" fill="#C9DBF1"/>
<path d="M56.999 12.8325C56.999 12.8325 55.607 13.3881 53.1998 13.1784C50.7926 12.9688 49.746 12.7277 49.746 12.7277C49.746 12.7277 51.2112 14.017 53.273 14.5411C55.3349 15.0652 55.607 14.7507 55.607 14.7507L55.7116 13.9122C55.7116 13.9122 56.2349 13.9855 56.5803 13.5663C56.9257 13.147 56.9257 13.147 56.9257 13.147L56.999 12.8325Z" fill="#C9DBF1"/>
<path d="M55.1465 15.3797C55.1465 15.3797 54.4453 16.04 51.766 15.4845C49.0762 14.9289 48.1342 14.4048 48.1342 14.4048C48.1342 14.4048 48.8355 15.6312 49.8821 16.2182C50.9287 16.8157 51.6927 17.0568 51.6927 17.0568L52.0067 16.2497C52.0067 16.2497 53.472 16.7423 54.0267 16.4279C54.5814 16.1134 54.5814 16.0086 54.5814 16.0086L55.1465 15.3797Z" fill="#C9DBF1"/>
<path d="M51.0961 17.7172C51.0961 17.7172 49.5262 17.8954 47.9249 17.0568C46.3236 16.2182 46.177 16.0086 46.177 16.0086C46.177 16.0086 46.5224 17.1302 47.119 17.6857C47.7155 18.2413 48.1656 18.5243 48.1656 18.5243L48.6156 18.1364C48.6156 18.1364 49.1703 18.5557 50.1855 18.2727C51.2008 17.9897 51.0961 17.7172 51.0961 17.7172Z" fill="#C9DBF1"/>
<path d="M47.8516 18.5977C47.8516 18.5977 47.255 18.8807 45.7584 18.1469C44.2617 17.4132 43.9791 16.9939 43.9791 16.9939C43.9791 16.9939 44.5338 17.6228 43.8431 18.1155C43.1418 18.6081 42.6185 17.5914 42.6185 17.5914L42.6918 18.713C42.6918 18.713 43.5605 19.2371 44.2931 19.0274C45.0257 18.8178 45.4444 18.6815 45.4444 18.6815C45.4444 18.6815 46.8782 19.2056 47.4329 19.0693C47.9876 18.9331 47.8516 18.5977 47.8516 18.5977Z" fill="#C9DBF1"/>
<path d="M47.5377 9.40488C47.5377 9.40488 47.611 10.5893 46.6271 10.799C45.6538 11.0086 45.1933 10.7256 45.1933 10.7256C45.1933 10.7256 46.1666 11.952 45.5805 12.822C44.984 13.692 43.9792 13.2099 43.9792 13.2099C43.9792 13.2099 44.6072 13.9436 43.6338 14.4677C42.6605 14.9918 41.9279 13.9122 41.9279 13.9122C41.9279 13.9122 42.4512 15.4111 42.4512 16.2497C42.4512 17.0882 42.4512 18.1679 42.4512 18.1679L43.7071 18.4823C43.7071 18.4823 43.9164 17.1197 43.7385 16.1763C43.5606 15.2329 43.7071 15.5159 43.7071 15.5159C43.7071 15.5159 45.0363 14.8556 44.9944 14.4363C44.963 14.017 44.963 14.017 44.963 14.017C44.963 14.017 46.3236 14.1533 46.5643 13.0736C46.8051 11.9939 46.4911 11.5747 46.4911 11.5747C46.4911 11.5747 47.2237 12.0673 47.6424 11.0191C48.061 9.97091 47.8517 9.65645 47.8517 9.65645L47.5377 9.40488Z" fill="#C9DBF1"/>
<path d="M42.7651 13.0422C42.7651 13.0422 43.257 14.1218 43.3198 14.583C43.3931 15.0338 43.3512 15.1386 43.3512 15.1386L42.336 15.0652L41.8127 13.4929L42.7651 13.0422Z" fill="#C9DBF1"/>
<path d="M41.9592 13.7025C41.9592 13.7025 43.9163 13.1051 43.7384 11.4279C43.5605 9.75079 42.7965 8.62921 43.8431 7.37136C44.8897 6.11352 45.6223 6.21834 48.8982 7.19317C52.1741 8.168 55.4604 8.24137 56.9571 7.19317C58.4538 6.14496 59.0503 6.66907 58.7677 7.79065C58.4851 8.91223 57.4804 10.1701 55.6593 10.7256C53.8487 11.2812 50.8449 10.6208 50.8449 10.6208C50.8449 10.6208 53.6393 12.1617 56.4966 11.1135C59.3538 10.0653 59.8771 7.44474 59.3957 6.46991C58.9038 5.49507 58.0665 5.59989 57.1978 6.18689C56.3291 6.78437 54.7592 7.51811 51.5147 7.13028C48.2702 6.74244 47.2236 5.27495 44.785 5.63134C42.3464 5.97725 42.1999 8.22041 42.6918 9.64597C43.1837 11.082 43.2465 12.0568 42.7651 12.5076C42.2731 12.9583 41.7498 12.8535 41.7498 12.8535L41.9592 13.7025Z" fill="#5F062D"/>
<path d="M49.9134 12.864C49.9134 12.864 55.2511 14.3629 56.4756 13.147C57.7001 11.9206 56.9257 10.6313 56.9257 10.6313L57.585 10.212C57.585 10.212 58.4223 12.0254 56.9885 13.5977C55.5546 15.17 51.4414 13.9122 50.5727 13.5243C49.7041 13.1365 49.5575 12.864 49.5575 12.864H49.9134Z" fill="#5F062D"/>
<path d="M48.6576 14.8241C48.6576 14.8241 53.0847 16.8891 54.4872 15.7675C55.8792 14.6459 55.3978 14.0589 55.3978 14.0589L56.1304 13.7759C56.1304 13.7759 56.6537 15.453 54.5605 16.5746C52.4672 17.6962 48.3436 14.7507 48.3436 14.7507L48.6576 14.8241Z" fill="#5F062D"/>
<path d="M46.2817 16.2182C46.2817 16.2182 48.2388 18.3461 50.1227 17.8639C52.0066 17.3713 51.5566 16.082 51.5566 16.082L52.3939 16.3964C52.3939 16.3964 52.8125 18.5662 50.4053 18.7339C47.9981 18.9121 46.2817 16.2182 46.2817 16.2182Z" fill="#5F062D"/>
<path d="M44.157 17.3713C44.157 17.3713 45.8002 19.0169 46.9829 18.7654C48.1655 18.5243 48.1655 17.7172 48.1655 17.7172L49.0761 18.2727C49.0761 18.2727 49.0447 19.3943 47.0875 19.3524C45.1304 19.3314 44.157 17.3713 44.157 17.3713Z" fill="#5F062D"/>
<path d="M42.6186 18.4928C42.6186 18.4928 43.3512 18.9436 44.1571 18.671C44.963 18.388 44.963 18.2203 44.963 18.2203L45.8317 18.8807C45.8317 18.8807 44.9944 19.3314 43.9163 19.3733C42.8383 19.4048 42.4825 19.0903 42.4825 19.0903L42.3778 18.8073L42.6186 18.4928Z" fill="#5F062D"/>
<path d="M46.8468 8.9856C46.8468 8.9856 47.8934 9.58308 47.4434 10.5894C46.9934 11.6061 45.9049 11.3231 45.9049 11.3231C45.9049 11.3231 46.5328 12.1302 46.0828 13.0002C45.6328 13.8702 44.5861 13.6606 44.5861 13.6606C44.5861 13.6606 44.9001 14.7088 43.9268 15.1595C42.9534 15.6103 42.3255 15.0233 42.3255 15.0233C42.3255 15.0233 43.4035 16.1449 44.4501 15.5474C45.4967 14.9499 45.2141 14.1847 45.2141 14.1847C45.2141 14.1847 46.6794 14.3944 46.9933 13.2413C47.3073 12.0883 46.784 11.7424 46.784 11.7424C46.784 11.7424 48.1446 11.952 48.3853 10.799C48.6261 9.64597 46.8468 8.9856 46.8468 8.9856Z" fill="#5F062D"/>
<path d="M18.6512 13.3566C18.6512 13.3566 16.7673 12.9373 16.872 11.3336C16.9766 9.72983 17.5313 8.36716 16.9766 7.06738C16.4219 5.77809 14.1194 5.88291 11.775 6.8263C9.44103 7.76968 5.70463 7.63342 4.4173 7.21413C3.12997 6.79485 1.90544 5.67327 1.27747 6.89967C0.649507 8.12607 1.90544 10.1491 3.99866 10.8095C6.09188 11.4699 6.54192 11.1554 6.54192 11.1554C6.54192 11.1554 5.10807 11.0506 4.31264 10.8409C3.50675 10.6313 3.19277 10.4216 3.19277 10.4216C3.19277 10.4216 2.32408 12.235 3.68468 13.2832C5.04527 14.3315 5.43252 13.9436 5.43252 13.9436L4.59523 13.9751C4.59523 13.9751 4.66849 16.2497 6.55239 16.4908C8.43629 16.7318 9.4829 15.8933 9.4829 15.8933L8.40489 16.344C8.40489 16.344 8.37349 17.7801 9.73408 18.1574C11.0947 18.5452 12.0052 17.9478 12.0052 17.9478C12.0052 17.9478 12.1831 18.8912 13.0832 18.9645C13.9938 19.0379 15.0404 18.6186 15.0404 18.6186C15.0404 18.6186 15.5323 19.0065 16.537 18.9645C17.5523 18.9331 17.793 18.7863 17.793 18.7863C17.793 18.7863 18.0337 15.9876 18.243 14.9813C18.4523 13.9646 18.4523 13.9646 18.4523 13.9646L18.6512 13.3566Z" fill="white"/>
<path d="M1.87403 6.50135C1.87403 6.50135 1.63332 7.7592 3.20323 9.15332C4.77315 10.5474 7.21175 10.6208 8.33162 10.5894C9.45149 10.5579 9.66082 10.4112 9.66082 10.4112C9.66082 10.4112 7.77691 11.6376 5.44297 11.7738C3.10903 11.9101 2.93111 11.4594 2.93111 11.4594L3.10903 10.516C3.10903 10.516 1.92636 9.78224 1.43446 8.17848C0.94255 6.57473 1.57052 6.42798 1.57052 6.42798L1.87403 6.50135Z" fill="#C9DBF1"/>
<path d="M3.3707 12.8325C3.3707 12.8325 4.76269 13.3881 7.16989 13.1784C9.57709 12.9688 10.6237 12.7277 10.6237 12.7277C10.6237 12.7277 9.16892 14.017 7.1071 14.5411C5.04527 15.0652 4.77316 14.7507 4.77316 14.7507L4.6685 13.9122C4.6685 13.9122 4.14519 13.9855 3.79981 13.5663C3.45443 13.147 3.45442 13.147 3.45442 13.147L3.3707 12.8325Z" fill="#C9DBF1"/>
<path d="M5.22318 15.3797C5.22318 15.3797 5.9244 16.04 8.60372 15.4845C11.2935 14.9289 12.2355 14.4048 12.2355 14.4048C12.2355 14.4048 11.5342 15.6312 10.4876 16.2182C9.44101 16.8157 8.67699 17.0568 8.67699 17.0568L8.36301 16.2497C8.36301 16.2497 6.89775 16.7423 6.34305 16.4279C5.78835 16.1134 5.78835 16.0086 5.78835 16.0086L5.22318 15.3797Z" fill="#C9DBF1"/>
<path d="M9.2736 17.7172C9.2736 17.7172 10.8435 17.8954 12.4448 17.0568C14.0461 16.2182 14.1927 16.0086 14.1927 16.0086C14.1927 16.0086 13.8473 17.1302 13.2507 17.6857C12.6541 18.2413 12.2041 18.5243 12.2041 18.5243L11.7541 18.1364C11.7541 18.1364 11.1994 18.5557 10.1841 18.2727C9.16894 17.9897 9.2736 17.7172 9.2736 17.7172Z" fill="#C9DBF1"/>
<path d="M12.518 18.5977C12.518 18.5977 13.1146 18.8807 14.6112 18.1469C16.1079 17.4132 16.3905 16.9939 16.3905 16.9939C16.3905 16.9939 15.8358 17.6228 16.5265 18.1155C17.2278 18.6081 17.7511 17.5914 17.7511 17.5914L17.6778 18.713C17.6778 18.713 16.8091 19.2371 16.0765 19.0274C15.3439 18.8178 14.9252 18.6815 14.9252 18.6815C14.9252 18.6815 13.4914 19.2056 12.9367 19.0693C12.382 18.9331 12.518 18.5977 12.518 18.5977Z" fill="#C9DBF1"/>
<path d="M12.8321 9.40488C12.8321 9.40488 12.7588 10.5893 13.7427 10.799C14.716 11.0086 15.1765 10.7256 15.1765 10.7256C15.1765 10.7256 14.2032 11.952 14.7893 12.822C15.3858 13.692 16.3906 13.2099 16.3906 13.2099C16.3906 13.2099 15.7626 13.9436 16.736 14.4677C17.7093 14.9918 18.4419 13.9122 18.4419 13.9122C18.4419 13.9122 17.9186 15.4111 17.9186 16.2497C17.9186 17.0882 17.9186 18.1679 17.9186 18.1679L16.6627 18.4823C16.6627 18.4823 16.4534 17.1197 16.6313 16.1763C16.8092 15.2329 16.6627 15.5159 16.6627 15.5159C16.6627 15.5159 15.3335 14.8556 15.3754 14.4363C15.4068 14.017 15.4068 14.017 15.4068 14.017C15.4068 14.017 14.0462 14.1533 13.8054 13.0736C13.5647 11.9939 13.8787 11.5747 13.8787 11.5747C13.8787 11.5747 13.1461 12.0673 12.7274 11.0191C12.3088 9.97091 12.5181 9.65645 12.5181 9.65645L12.8321 9.40488Z" fill="#C9DBF1"/>
<path d="M17.6046 13.0422C17.6046 13.0422 17.1127 14.1218 17.0499 14.583C16.9766 15.0338 17.0185 15.1386 17.0185 15.1386L18.0337 15.0652L18.557 13.4929L17.6046 13.0422Z" fill="#C9DBF1"/>
<path d="M18.4105 13.7025C18.4105 13.7025 16.4534 13.1051 16.6313 11.4279C16.8092 9.75079 17.5732 8.62921 16.5266 7.37136C15.48 6.11352 14.7474 6.21834 11.4715 7.19317C8.1956 8.168 4.90924 8.24137 3.41259 7.19317C1.91594 6.14496 1.31937 6.66907 1.60196 7.79065C1.88454 8.91223 2.88928 10.1701 4.71038 10.7256C6.52102 11.2812 9.52479 10.6208 9.52479 10.6208C9.52479 10.6208 6.73034 12.1617 3.87309 11.1135C1.01585 10.0653 0.492548 7.44474 0.973989 6.46991C1.4659 5.49507 2.30318 5.59989 3.17187 6.18689C4.04056 6.78437 5.61047 7.51811 8.85496 7.13028C12.0995 6.74244 13.1461 5.27495 15.5847 5.63134C18.0233 5.97725 18.1698 8.22041 17.6779 9.64597C17.186 11.082 17.1232 12.0568 17.6046 12.5076C18.0965 12.9583 18.6198 12.8535 18.6198 12.8535L18.4105 13.7025Z" fill="#5F062D"/>
<path d="M10.4562 12.864C10.4562 12.864 5.1185 14.3629 3.89397 13.147C2.66943 11.9206 3.44392 10.6313 3.44392 10.6313L2.78456 10.212C2.78456 10.212 1.94728 12.0254 3.38113 13.5977C4.81499 15.17 8.92816 13.9122 9.79685 13.5243C10.6655 13.1365 10.8121 12.864 10.8121 12.864H10.4562Z" fill="#5F062D"/>
<path d="M11.7122 14.8241C11.7122 14.8241 7.285 16.8891 5.88254 15.7675C4.49055 14.6459 4.97199 14.0589 4.97199 14.0589L4.23936 13.7759C4.23936 13.7759 3.71605 15.453 5.80927 16.5746C7.90249 17.6962 12.0261 14.7507 12.0261 14.7507L11.7122 14.8241Z" fill="#5F062D"/>
<path d="M14.088 16.2182C14.088 16.2182 12.1308 18.3461 10.2469 17.8639C8.363 17.3713 8.81304 16.082 8.81304 16.082L7.97576 16.3964C7.97576 16.3964 7.55711 18.5662 9.96432 18.7339C12.3715 18.9121 14.088 16.2182 14.088 16.2182Z" fill="#5F062D"/>
<path d="M16.2125 17.3713C16.2125 17.3713 14.5693 19.0169 13.3867 18.7654C12.204 18.5243 12.204 17.7172 12.204 17.7172L11.2935 18.2727C11.2935 18.2727 11.3249 19.3943 13.282 19.3524C15.2392 19.3314 16.2125 17.3713 16.2125 17.3713Z" fill="#5F062D"/>
<path d="M17.7512 18.4928C17.7512 18.4928 17.0186 18.9436 16.2127 18.671C15.4068 18.388 15.4068 18.2203 15.4068 18.2203L14.5381 18.8807C14.5381 18.8807 15.3754 19.3314 16.4534 19.3733C17.5314 19.4048 17.8872 19.0903 17.8872 19.0903L17.9919 18.8073L17.7512 18.4928Z" fill="#5F062D"/>
<path d="M13.5229 8.9856C13.5229 8.9856 12.4762 9.58308 12.9263 10.5894C13.3763 11.6061 14.4648 11.3231 14.4648 11.3231C14.4648 11.3231 13.8368 12.1302 14.2869 13.0002C14.7369 13.8702 15.7835 13.6606 15.7835 13.6606C15.7835 13.6606 15.4695 14.7088 16.4429 15.1595C17.4162 15.6103 18.0442 15.0233 18.0442 15.0233C18.0442 15.0233 16.9662 16.1449 15.9196 15.5474C14.873 14.9499 15.1556 14.1847 15.1556 14.1847C15.1556 14.1847 13.6903 14.3944 13.3763 13.2413C13.0624 12.0883 13.5857 11.7424 13.5857 11.7424C13.5857 11.7424 12.2251 11.952 11.9843 10.799C11.7436 9.64597 13.5229 8.9856 13.5229 8.9856Z" fill="#5F062D"/>
<path d="M21.1631 28.5137C21.1631 28.5137 17.008 29.1741 16.8406 30.2642C16.6626 31.3438 22.2829 32.1195 22.2829 32.1195C22.2829 32.1195 22.9109 32.9581 24.6169 33.0315C26.3229 33.1048 26.7834 32.5807 26.7834 32.5807C26.7834 32.5807 28.7405 32.6856 30.7605 32.6856C32.7804 32.6856 33.6596 32.5493 33.6596 32.5493C33.6596 32.5493 33.9003 33.283 35.7214 33.2516C37.532 33.2201 38.5473 32.2768 38.5473 32.2768C38.5473 32.2768 42.493 31.826 43.4663 31.3019C44.4397 30.7778 44.4397 30.7044 44.4397 30.7044C44.4397 30.7044 46.1875 30.9455 46.6375 31.5745C47.0876 32.2034 46.1142 32.9371 46.1142 32.9371C46.1142 32.9371 42.1162 34.3208 41.9592 35.0021C41.6976 36.0503 42.7442 37.0985 46.4073 36.4172C50.0181 35.7358 50.9077 32.9057 50.5937 31.8575C50.3844 31.1761 47.2969 27.8009 43.6338 27.3816C39.9706 26.9623 24.3448 27.9372 24.3448 27.9372L21.1631 28.5137Z" fill="#260212" fill-opacity="0.27"/>
<path d="M25.7367 30.5787C25.7367 30.5787 25.7367 32.5703 23.8214 31.8365C21.9061 31.1028 21.0688 28.2726 21.0688 28.2726C21.0688 28.2726 18.0336 26.564 17.5836 21.04C17.1336 15.5159 18.2848 12.581 18.2848 12.581L19.1535 10.2435C19.1535 10.2435 18.1802 5.80954 18.3895 3.01083C18.5988 0.212119 19.5408 0.358867 21.3933 0.77815C23.2458 1.19743 25.8204 2.87456 25.8204 2.87456C25.8204 2.87456 28.3637 2.7383 29.2742 2.14082C30.1848 1.54334 30.4988 1.16599 30.4988 1.16599V2.27709C30.4988 2.27709 31.2 2.036 31.6186 1.8578C32.0373 1.67961 32.0373 1.67961 32.0373 1.67961L31.964 2.38191C31.964 2.38191 32.9792 2.35046 33.5025 2.59155C34.0258 2.83264 34.3398 2.83264 34.3398 2.83264C34.3398 2.83264 39.4996 -0.343431 40.8602 0.599955C42.2208 1.54334 41.9382 6.50136 41.6661 8.07367C41.3835 9.64598 41.1114 10.2015 41.1114 10.2015C41.1114 10.2015 43.236 14.7088 42.786 19.7088C42.3359 24.7087 41.0067 26.4173 41.0067 26.4173C41.0067 26.4173 47.0457 26.3439 49.6936 29.2474C52.3415 32.151 49.3796 34.9811 46.3445 35.327C43.3093 35.6729 42.4406 35.5052 42.1266 34.2474C41.8126 32.9895 43.9791 32.9162 45.0257 32.7799C46.0723 32.6436 46.7736 32.2243 46.8782 31.6583C46.9829 31.1028 45.9363 30.6416 45.9363 30.6416C45.9363 30.6416 43.5605 29.6248 41.4673 29.4571C39.374 29.2789 38.7775 29.3837 38.7775 29.3837C38.7775 29.3837 37.8041 31.4067 35.9202 31.8994C34.0363 32.3921 34.4864 30.6101 34.4864 30.6101C34.4864 30.6101 31.3779 31.5535 28.9079 31.2076C26.4065 30.8617 25.7367 30.5787 25.7367 30.5787Z" fill="white"/>
<path d="M23.1201 4.55168C23.1201 4.55168 20.7129 1.93117 19.771 1.58526C18.829 1.23935 18.693 1.93117 18.693 1.93117C18.693 1.93117 18.0964 4.16385 18.5569 6.57472C19.007 8.9856 19.4675 9.47825 19.4675 9.47825C19.4675 9.47825 20.6187 7.38184 21.634 6.19737C22.6492 5.01289 23.1201 4.55168 23.1201 4.55168Z" fill="#C9DBF1"/>
<path d="M37.0401 4.55168C37.0401 4.55168 39.4473 1.93117 40.3893 1.58526C41.3312 1.23935 41.4673 1.93117 41.4673 1.93117C41.4673 1.93117 42.0639 4.16385 41.6033 6.57472C41.1533 8.9856 40.6928 9.47825 40.6928 9.47825C40.6928 9.47825 39.5415 7.38184 38.5263 6.19737C37.5111 5.01289 37.0401 4.55168 37.0401 4.55168Z" fill="#C9DBF1"/>
<path d="M24.2191 17.5809C22.8062 17.5809 21.6549 16.9205 21.6549 16.1134C21.6549 15.3063 22.8062 14.6459 24.2191 14.6459C25.6321 14.6459 26.7833 15.3063 26.7833 16.1134C26.7833 16.9205 25.6321 17.5809 24.2191 17.5809Z" fill="#C9DBF1" fill-opacity="0.61"/>
<path d="M35.9412 17.5809C34.5283 17.5809 33.377 16.9205 33.377 16.1134C33.377 15.3063 34.5283 14.6459 35.9412 14.6459C37.3541 14.6459 38.5054 15.3063 38.5054 16.1134C38.5054 16.9205 37.3541 17.5809 35.9412 17.5809Z" fill="#C9DBF1" fill-opacity="0.61"/>
<path d="M46.9097 31.4487C46.9097 31.4487 46.9411 30.6101 45.8107 29.7715C44.6804 28.933 41.7813 28.6185 41.7813 28.6185C41.7813 28.6185 41.6766 27.9057 42.0953 27.3607C42.5139 26.8156 42.8802 26.6793 42.8802 26.6793L41.2266 26.5431C41.2266 26.5431 39.8346 28.0944 39.552 28.4089C39.2694 28.7233 39.0287 29.3313 39.0287 29.3313C39.0287 29.3313 43.4245 29.3837 45.0781 30.2747C46.7317 31.1657 46.9097 31.4487 46.9097 31.4487Z" fill="#C9DBF1"/>
<path d="M17.6779 18.6605C17.6779 18.6605 18.0965 22.5704 19.0385 24.0798C19.9804 25.5787 19.7397 24.7821 19.7397 24.7821C19.7397 24.7821 19.6351 23.8387 19.9804 24.4362C20.3258 25.0336 22.3876 29.8135 23.6122 30.4424C24.8367 31.0713 25.2135 30.7569 25.3914 30.6206C25.5693 30.4843 25.5693 30.4843 25.5693 30.4843C25.5693 30.4843 25.7473 31.9518 24.4495 31.8784C23.1621 31.8051 21.6969 29.6038 21.1736 28.7338C20.6503 27.8638 20.6503 27.8638 20.6503 27.8638C20.6503 27.8638 19.185 26.9204 18.0337 23.4299C16.8825 19.9394 17.479 17.7381 17.479 17.7381L17.6779 18.6605Z" fill="#C9DBF1"/>
<path d="M42.6185 18.6605C42.6185 18.6605 42.1999 22.5704 41.2579 24.0798C40.316 25.5787 40.5567 24.7821 40.5567 24.7821C40.5567 24.7821 40.6614 23.8387 40.316 24.4362C39.9706 25.0336 37.9088 29.8135 36.6842 30.4424C35.4597 31.0713 35.0829 30.7569 34.905 30.6206C34.7271 30.4843 34.7271 30.4843 34.7271 30.4843C34.7271 30.4843 34.5492 31.9518 35.8469 31.8784C37.1343 31.8051 38.5995 29.6038 39.1228 28.7338C39.6461 27.8638 39.6461 27.8638 39.6461 27.8638C39.6461 27.8638 41.1114 26.9204 42.2627 23.4299C43.4139 19.9394 42.8174 17.7381 42.8174 17.7381L42.6185 18.6605Z" fill="#C9DBF1"/>
<path d="M25.0042 27.0147C25.0042 27.0147 26.4694 27.8533 29.9965 27.8848C33.5236 27.9162 35.261 26.6269 35.261 26.6269C35.261 26.6269 34.633 30.5053 34.2458 30.6835C33.8585 30.8617 31.3885 31.239 28.8766 31.0713C26.3648 30.8931 25.7054 30.5472 25.7054 30.5472L25.0774 27.7485L25.0042 27.0147Z" fill="#C9DBF1" fill-opacity="0.55"/>
<path d="M42.6709 33.4927C42.6709 33.4927 42.0115 34.5933 43.9268 34.6981C45.8421 34.8029 48.4272 34.2474 49.5052 32.5702C50.5832 30.8931 50.0076 30.0231 50.0076 30.0231C50.0076 30.0231 51.2949 32.1195 49.6099 33.8491C47.9248 35.5786 44.4292 36.1027 42.8069 35.2117C41.1847 34.3207 42.3359 33.4507 42.3359 33.4507L42.6709 33.4927Z" fill="#C9DBF1"/>
<path d="M23.0155 4.65651C23.0155 4.65651 20.3676 1.12406 19.6978 2.00455C19.0384 2.87456 20.7444 7.45522 20.7444 7.45522L22.1783 5.67327L22.8795 5.0129L23.0155 4.65651Z" fill="#73A2DB" fill-opacity="0.54"/>
<path d="M37.2495 4.65651C37.2495 4.65651 39.8974 1.12406 40.5673 2.00455C41.2266 2.87456 39.5207 7.45522 39.5207 7.45522L38.0868 5.67327L37.3856 5.0129L37.2495 4.65651Z" fill="#73A2DB" fill-opacity="0.54"/>
<path d="M27.652 2.45528C27.652 2.45528 23.1516 2.00455 19.3838 9.05898C15.616 16.1134 17.0498 23.9435 18.9337 26.7003C20.8176 29.4571 21.4456 29.6038 21.4456 29.6038L20.2629 26.9519C20.2629 26.9519 17.2592 24.2265 17.929 16.648C18.5883 9.06946 23.162 4.59362 24.9413 3.75506C26.7205 2.91649 27.7357 2.70685 28.3218 2.70685C28.9184 2.70685 28.9184 2.70685 28.9184 2.70685L27.652 2.45528Z" fill="#5F062D"/>
<path d="M19.5618 25.128C19.5618 25.128 20.7445 29.3942 22.0004 31.0294C23.2564 32.6751 25.067 32.6331 25.7682 32.0461C26.4695 31.4487 25.9462 30.5053 25.4228 27.9581C24.8995 25.411 25.1821 24.9183 25.1821 24.9183C25.1821 24.9183 24.5228 25.8932 25.0461 28.6185C25.5694 31.3438 25.4333 31.5849 24.2402 31.4801C23.0575 31.3753 21.7597 29.2055 20.7864 27.0043C19.813 24.803 19.5304 24.4571 19.5304 24.4571L19.5618 25.128Z" fill="#5F062D"/>
<path d="M23.8528 30.5262C23.8528 30.5262 24.1458 31.2914 23.9888 31.6583C23.8318 32.0252 23.8318 32.0252 23.8318 32.0252L24.4075 32.0566C24.4075 32.0566 24.6168 31.4277 24.3552 30.977C24.0935 30.5262 23.8528 30.5262 23.8528 30.5262Z" fill="#5F062D"/>
<path d="M24.8995 30.5262C24.8995 30.5262 25.1925 31.2914 25.0355 31.6583C24.8785 32.0252 24.8785 32.0252 24.8785 32.0252L25.4542 32.0566C25.4542 32.0566 25.6635 31.4277 25.4018 30.977C25.1402 30.5262 24.8995 30.5262 24.8995 30.5262Z" fill="#5F062D"/>
<path d="M18.8291 10.4531C18.4419 10.1072 17.7092 5.70471 18.0651 2.93744C18.3791 0.138732 19.321 0.138732 19.949 0.138732C20.577 0.107286 23.0888 0.736209 24.8681 1.63767C26.6473 2.58105 26.4485 2.79069 26.4485 2.79069L25.4751 3.1366C25.4751 3.1366 22.5969 1.6167 21.027 1.11356C19.4571 0.610424 19.3001 0.903922 18.9024 2.03598C18.5047 3.16805 18.9024 6.64809 19.1954 7.78016C19.4885 8.91222 19.6455 9.12186 19.6455 9.12186L19.2478 10.1177L18.8291 10.4531Z" fill="#5F062D"/>
<path d="M20.0851 1.8578C20.0851 1.8578 21.5189 3.18902 22.105 4.09048C22.7016 5.00242 22.4923 5.17013 22.4923 5.17013L23.4656 4.22675C23.4656 4.22675 22.5237 2.75926 21.1317 1.99407C19.7397 1.22888 19.4885 1.50141 19.4885 1.50141L20.0851 1.8578Z" fill="#5F062D"/>
<path d="M32.613 2.45528C32.613 2.45528 37.1134 2.00455 40.8812 9.05898C44.649 16.1134 43.2151 23.9435 41.3312 26.7003C39.4473 29.4571 38.8194 29.6038 38.8194 29.6038L40.002 26.9519C40.002 26.9519 43.0058 24.2265 42.336 16.648C41.6766 9.06946 37.1029 4.59362 35.3237 3.75506C33.5444 2.91649 32.5292 2.70685 31.9431 2.70685C31.3466 2.70685 31.3466 2.70685 31.3466 2.70685L32.613 2.45528Z" fill="#5F062D"/>
<path d="M40.7033 25.128C40.7033 25.128 39.5206 29.3942 38.2647 31.0294C37.0088 32.6751 35.1981 32.6331 34.4969 32.0461C33.7957 31.4487 34.319 30.5053 34.8423 27.9581C35.3656 25.411 35.083 24.9183 35.083 24.9183C35.083 24.9183 35.7424 25.8932 35.2191 28.6185C34.6958 31.3438 34.8318 31.5849 36.025 31.4801C37.2076 31.3753 38.5054 29.2055 39.4788 27.0043C40.4521 24.803 40.7347 24.4571 40.7347 24.4571L40.7033 25.128Z" fill="#5F062D"/>
<path d="M36.4121 30.5262C36.4121 30.5262 36.1191 31.2914 36.2761 31.6583C36.4331 32.0252 36.4331 32.0252 36.4331 32.0252L35.8574 32.0566C35.8574 32.0566 35.6481 31.4277 35.9098 30.977C36.1714 30.5262 36.4121 30.5262 36.4121 30.5262Z" fill="#5F062D"/>
<path d="M35.3655 30.5262C35.3655 30.5262 35.0725 31.2914 35.2295 31.6583C35.3865 32.0252 35.3865 32.0252 35.3865 32.0252L34.8108 32.0566C34.8108 32.0566 34.6015 31.4277 34.8632 30.977C35.1248 30.5262 35.3655 30.5262 35.3655 30.5262Z" fill="#5F062D"/>
<path d="M41.4359 10.4531C41.8232 10.1072 42.5558 5.70471 42.2 2.93744C41.886 0.138732 40.944 0.138732 40.3161 0.138732C39.6881 0.107286 37.1762 0.736209 35.397 1.63767C33.6178 2.58105 33.8166 2.79069 33.8166 2.79069L34.79 3.1366C34.79 3.1366 37.6681 1.6167 39.238 1.11356C40.808 0.610424 40.965 0.903922 41.3627 2.03598C41.7604 3.16805 41.3627 6.64809 41.0696 7.78016C40.7766 8.91222 40.6196 9.12186 40.6196 9.12186L41.0173 10.1177L41.4359 10.4531Z" fill="#5F062D"/>
<path d="M40.18 1.8578C40.18 1.8578 38.7461 3.18902 38.16 4.09048C37.5635 5.00242 37.7728 5.17013 37.7728 5.17013L36.7994 4.22675C36.7994 4.22675 37.7414 2.75926 39.1334 1.99407C40.5254 1.22888 40.7766 1.50141 40.7766 1.50141L40.18 1.8578Z" fill="#5F062D"/>
<path d="M25.7681 31.1342C25.7681 31.1342 27.4113 31.6269 30.0906 31.6269C32.7804 31.6269 34.4864 31.0713 34.4864 31.0713L34.6957 30.0231C34.6957 30.0231 32.9897 30.8302 30.0906 30.8617C27.1915 30.8931 25.6216 30.0965 25.6216 30.0965L25.7681 31.1342Z" fill="#5F062D"/>
<path d="M25.946 2.69636C27.338 2.30852 28.6986 2.41334 29.6406 1.57478C30.5825 0.736213 30.6872 0.495125 30.6872 0.495125C30.6872 0.495125 31.0326 1.46996 30.6558 2.45527C30.2685 3.4301 29.7452 3.6083 29.7452 3.6083C29.7452 3.6083 30.1325 2.73829 30.1953 2.27708C30.2685 1.82635 30.2686 1.82635 30.2686 1.82635C30.2686 1.82635 29.6092 2.66491 28.1439 2.87455C26.6787 3.08419 25.7053 3.29384 25.7053 3.29384L25.946 2.69636Z" fill="#5F062D"/>
<path d="M30.7605 1.80539C30.7605 1.80539 30.8757 2.01503 31.5141 1.6272C32.1525 1.23936 32.299 1.07165 32.299 1.07165C32.299 1.07165 32.3828 2.22467 31.9118 2.74878C31.4408 3.27288 30.9908 3.27288 30.9908 3.27288C30.9908 3.27288 31.692 2.50769 31.7757 2.22467C31.8595 1.94166 31.4094 2.3295 30.8547 2.46576C30.3 2.60203 30.321 2.57058 30.321 2.57058L30.4884 1.52238L30.7605 1.80539Z" fill="#5F062D"/>
<path d="M32.2257 2.09888C32.2257 2.09888 33.3456 2.13033 34.0364 2.44479C34.7376 2.75925 34.769 2.7907 34.769 2.7907L34.8737 3.3148C34.8737 3.3148 32.2571 2.65443 31.9432 2.68588C31.6292 2.71733 31.6292 2.71733 31.6292 2.71733L32.2257 2.09888Z" fill="#5F062D"/>
<path d="M38.9973 29.8135C38.9973 29.8135 41.6452 29.499 44.199 30.369C46.7422 31.239 46.7841 31.9413 46.7841 31.9413C46.7841 31.9413 47.3807 30.6835 45.0049 29.8764C42.6291 29.0692 41.415 29.1112 40.3684 29.0378C39.3218 28.9644 38.8299 29.2474 38.8299 29.2474L38.3798 30.0546L38.9973 29.8135Z" fill="#5F062D"/>
<path d="M46.4282 30.4424C46.4282 30.4424 47.1609 31.522 46.1457 32.2243C45.1305 32.9266 43.1419 32.2243 42.0325 33.4088C40.9126 34.5933 42.0325 36.522 45.6642 35.9245C49.296 35.327 51.2426 33.6185 50.824 30.8197C50.3321 28.063 44.9944 26.4487 43.2152 26.2391C41.4359 26.0294 41.2266 26.1028 41.2266 26.1028L40.8394 26.8051C40.8394 26.8051 44.5548 26.6164 47.7993 28.3355C51.0229 30.0336 50.2693 32.0671 50.06 32.738C49.2855 34.8763 44.2932 36.0608 42.7233 34.9077C41.4673 33.9644 43.3826 33.2306 44.5339 33.1572C45.6852 33.0839 47.119 32.8113 47.1504 31.6583C47.1818 30.5053 46.4282 30.4424 46.4282 30.4424Z" fill="#5F062D"/>
<path d="M34.9573 14.5411C34.1305 14.6879 33.3246 14.038 33.1676 13.1051C33.0107 12.1722 33.534 11.2812 34.3608 11.1344C35.1876 10.9877 35.9935 11.6376 36.1505 12.5705C36.3075 13.5034 35.7842 14.3944 34.9573 14.5411Z" fill="#5F062D"/>
<path d="M25.36 14.5411C26.1868 14.6879 26.9927 14.038 27.1497 13.1051C27.3066 12.1722 26.7833 11.2812 25.9565 11.1344C25.1297 10.9877 24.3238 11.6376 24.1668 12.5705C24.0098 13.5034 24.5331 14.3944 25.36 14.5411Z" fill="#5F062D"/>
<path d="M30.0069 16.5012C29.6405 16.5012 28.9916 15.7989 28.9916 15.6103C28.9916 15.4216 29.4522 15.2644 30.0173 15.2644C30.5825 15.2644 31.043 15.4216 31.043 15.6103C31.0535 15.7989 30.4255 16.4488 30.0069 16.5012Z" fill="#5F062D"/>
<path d="M30.0488 17.0568C30.0488 17.0568 29.986 17.6123 30.6035 17.8325C31.221 18.0421 31.6292 17.6438 31.6815 17.4027C31.7338 17.1721 31.7129 17.1197 31.7129 17.1197C31.7129 17.1197 31.4198 17.6228 30.886 17.5809C30.3523 17.539 30.122 17.0358 30.0906 16.9625C30.0592 16.8891 30.0592 16.8891 30.0592 16.8891L30.0488 17.0568Z" fill="#5F062D"/>
<path d="M30.0906 17.0568C30.0906 17.0568 30.1534 17.6123 29.5359 17.8325C28.9184 18.0421 28.5103 17.6438 28.4579 17.4027C28.4056 17.1721 28.4265 17.1197 28.4265 17.1197C28.4265 17.1197 28.7196 17.6228 29.2534 17.5809C29.7871 17.539 30.0174 17.0358 30.0488 16.9625C30.0802 16.8891 30.0802 16.8891 30.0802 16.8891L30.0906 17.0568Z" fill="#5F062D"/>
<path d="M23.6749 16.4279C23.6749 16.4279 22.733 16.4279 21.7596 16.1134C20.7863 15.7989 20.5037 15.6941 20.3258 16.082C20.1479 16.4698 21.0898 16.8157 22.2097 16.8157C23.3295 16.8157 23.6749 16.4279 23.6749 16.4279Z" fill="#5F062D"/>
<path d="M23.7691 17.4341C23.7691 17.4341 22.8586 17.6752 21.8329 17.6333C20.8072 17.5809 20.5142 17.5494 20.4409 17.9687C20.3676 18.388 21.3724 18.4823 22.4504 18.1888C23.5284 17.8954 23.7691 17.4341 23.7691 17.4341Z" fill="#5F062D"/>
<path d="M36.4854 16.4279C36.4854 16.4279 37.4274 16.4279 38.4007 16.1134C39.3741 15.7989 39.6567 15.6941 39.8346 16.082C40.0125 16.4698 39.0706 16.8157 37.9507 16.8157C36.8308 16.8157 36.4854 16.4279 36.4854 16.4279Z" fill="#5F062D"/>
<path d="M36.3913 17.4341C36.3913 17.4341 37.3018 17.6752 38.3275 17.6333C39.3532 17.5809 39.6462 17.5494 39.7195 17.9687C39.7927 18.388 38.788 18.4823 37.71 18.1888C36.632 17.8954 36.3913 17.4341 36.3913 17.4341Z" fill="#5F062D"/>
<path d="M26.574 8.49294C26.574 8.49294 26.1239 8.20992 25.1087 8.8074C24.0935 9.40488 23.9889 10.2749 24.24 10.2434C24.4808 10.212 24.9727 9.61452 25.9146 9.47825C26.8566 9.34198 26.9926 9.23716 26.9612 8.88077C26.9194 8.53487 26.574 8.49294 26.574 8.49294Z" fill="#5F062D"/>
<path d="M33.827 8.49294C33.827 8.49294 34.277 8.20992 35.2922 8.8074C36.3074 9.40488 36.4121 10.2749 36.1609 10.2434C35.9202 10.212 35.4283 9.61452 34.4863 9.47825C33.5444 9.34198 33.4083 9.23716 33.4397 8.88077C33.4816 8.53487 33.827 8.49294 33.827 8.49294Z" fill="#5F062D"/>
<path d="M25.8832 11.6271C25.8832 11.6271 25.4436 11.4384 24.8994 12.0044C24.3552 12.5705 24.8366 13.0107 25.4018 12.8011C25.9669 12.5914 26.1972 12.0883 26.1135 11.8787C26.0297 11.669 25.8832 11.6271 25.8832 11.6271Z" fill="white"/>
<path d="M25.5692 13.5977C25.5692 13.5977 25.9042 13.3042 26.1972 13.5348C26.4903 13.7654 25.8414 14.1008 25.5274 14.017C25.2134 13.9331 25.5692 13.5977 25.5692 13.5977Z" fill="white"/>
<path d="M24.5226 13.409C24.5226 13.409 24.6692 14.2476 25.632 14.2266C26.5949 14.2057 26.6996 13.3671 26.7205 13.2204C26.7205 12.843 25.7367 12.7382 25.0041 13.0526C24.3133 13.3252 24.5854 13.5977 24.5226 13.409Z" fill="white" fill-opacity="0.29"/>
<path d="M34.9887 11.7319C34.9887 11.7319 34.5492 11.5432 34.0049 12.1092C33.4607 12.6753 33.9421 13.1155 34.5073 12.9059C35.0725 12.6962 35.3027 12.1931 35.219 11.9835C35.1353 11.7738 34.9887 11.7319 34.9887 11.7319Z" fill="white"/>
<path d="M34.6748 13.7025C34.6748 13.7025 35.0097 13.409 35.3027 13.6396C35.5958 13.8702 34.9469 14.2057 34.6329 14.1218C34.3189 14.038 34.6748 13.7025 34.6748 13.7025Z" fill="white"/>
<path d="M28.4789 17.2979C28.4789 17.2979 28.6149 18.0107 29.2324 18.0107C29.8604 18.0107 30.0906 17.6962 30.0906 17.6962C30.0906 17.6962 30.436 18.0945 30.9489 17.9897C31.4512 17.8849 31.5768 17.4866 31.5768 17.4866C31.5768 17.4866 30.9175 17.8325 30.4779 17.5599C30.0383 17.2769 30.0906 17.1197 30.0906 17.1197C30.0906 17.1197 29.829 17.6123 29.2324 17.6228C28.6359 17.6543 28.4789 17.2979 28.4789 17.2979Z" fill="#5F062D"/>
<path d="M33.6282 13.409C33.6282 13.409 33.7747 14.2476 34.7376 14.2266C35.7005 14.2057 35.8051 13.3671 35.8261 13.2204C35.8261 12.843 34.8423 12.7382 34.1096 13.0526C33.4189 13.3252 33.691 13.5977 33.6282 13.409Z" fill="white" fill-opacity="0.29"/>
</svg>
