<svg width="57" height="38" viewBox="0 0 57 38" fill="none" xmlns="http://www.w3.org/2000/svg">
<path d="M16.1164 14.1268L16.2943 13.152C16.2943 13.152 16.2943 10.5629 13.1231 9.61955C9.95188 8.67617 7.92146 8.07869 7.08417 7.62796C6.24688 7.17723 5.61891 6.44349 5.61891 6.44349L5.72358 7.25061C5.72358 7.25061 3.73502 6.69506 2.23836 5.08082C0.741712 3.47707 0.427729 2.17728 0.427729 2.17728C0.427729 2.17728 0.218406 3.53995 0.39633 4.58816C0.574254 5.63637 0.637051 5.84601 0.637051 5.84601C0.637051 5.84601 0.187009 7.55459 0.77311 8.85437C1.36968 10.1437 1.36968 10.1437 1.36968 10.1437C1.36968 10.1437 1.44294 12.1353 2.31163 13.2568C3.18031 14.3784 3.53616 14.5147 3.53616 14.5147C3.53616 14.5147 4.02807 16.2652 5.38866 17.2715C6.74925 18.2882 6.88531 18.2463 6.88531 18.2463C6.88531 18.2463 7.27256 19.609 8.21451 20.2379C9.15646 20.8668 9.50184 20.8983 9.50184 20.8983C9.50184 20.8983 9.6379 22.8165 12.3277 22.9947C15.0175 23.1729 15.4989 22.502 15.4989 22.502C15.4989 22.502 15.1849 19.0744 15.5722 16.6635C15.9594 14.2526 16.1164 14.1268 16.1164 14.1268Z" fill="#FA8005"/>
<path d="M15.2791 21.045C15.2791 21.045 14.0232 22.2714 12.244 22.3343C10.4647 22.4077 10.224 22.198 10.224 22.198C10.224 22.198 11.5113 23.2777 13.1859 23.0366C14.8605 22.7955 15.5617 22.4077 15.5617 22.4077L15.2791 21.045Z" fill="#B8290C" fill-opacity="0.38"/>
<path d="M6.83295 18.1415C6.83295 18.1415 7.95282 18.6656 10.0774 18.6341C12.2021 18.6027 12.7254 18.4559 12.7254 18.4559C12.7254 18.4559 11.124 19.2631 9.40761 19.3993C7.70163 19.5356 7.38765 19.3993 7.38765 19.3993L6.969 18.5608L6.83295 18.1415Z" fill="#E15F07"/>
<path d="M9.52277 20.8668C9.52277 20.8668 10.674 21.2127 12.244 21.0031C13.8139 20.7934 14.0232 20.479 14.0232 20.479C14.0232 20.479 12.7359 21.6005 11.4067 21.7683C10.0775 21.9465 9.86815 21.5901 9.86815 21.5901L9.65882 21.1708L9.52277 20.8668Z" fill="#E15F07"/>
<path d="M3.34772 14.2946C3.34772 14.2946 4.60365 15.2694 6.87479 15.6258C9.14594 15.9717 9.2506 15.9088 9.2506 15.9088C9.2506 15.9088 7.3667 16.4643 6.00611 16.4015C4.64551 16.3281 4.09081 15.8773 4.09081 15.8773L3.67217 14.9654L3.34772 14.2946Z" fill="#E15F07"/>
<path d="M1.5267 10.2485C1.5267 10.2485 2.8559 11.9256 4.48861 12.4497C6.13179 12.9738 6.86441 13.0472 6.86441 13.0472C6.86441 13.0472 4.7398 13.2149 3.16988 12.4812C1.59997 11.7474 1.59997 11.6111 1.59997 11.6111C1.59997 11.6111 1.25459 10.8774 1.28598 10.6363C1.31738 10.3952 1.5267 10.2485 1.5267 10.2485Z" fill="#E15F07"/>
<path d="M0.657965 5.80409C0.657965 5.80409 2.01856 8.00532 3.72453 9.18979C5.43051 10.3743 6.62364 10.6992 6.62364 10.6992C6.62364 10.6992 4.3525 10.6258 2.54186 9.33654C0.731228 8.04725 0.480042 7.24013 0.480042 7.24013L0.616101 6.19192L0.657965 5.80409Z" fill="#E15F07"/>
<path d="M7.70166 10.521C7.70166 10.521 9.58556 11.5378 11.2915 11.9885C12.9975 12.4392 12.9975 12.4392 12.9975 12.4392C12.9975 12.4392 11.5009 12.5126 9.85768 12.1562C8.2145 11.8103 8.1517 11.7055 8.1517 11.7055L7.97378 11.108L7.70166 10.521Z" fill="#E15F07"/>
<path d="M9.31343 13.0367C9.31343 13.0367 10.36 13.7705 12.38 14.0849C14.4 14.3994 13.9499 14.326 13.9499 14.326C13.9499 14.326 12.4533 14.5671 11.0194 14.3994C9.58555 14.2212 9.41809 13.9486 9.41809 13.9486L9.20877 13.3931L9.31343 13.0367Z" fill="#E15F07"/>
<path d="M10.0774 14.7872C10.0774 14.7872 11.8253 15.762 13.0393 16.045C14.2639 16.3281 14.2639 16.3281 14.2639 16.3281C14.2639 16.3281 12.6939 16.4014 11.4694 16.2232C10.2449 16.045 10.1088 15.6258 10.1088 15.6258L10.0356 15.3428L10.0774 14.7872Z" fill="#E15F07"/>
<path d="M16.2839 13.6342C16.2839 13.6342 17.2991 10.6677 13.4266 9.44134C9.83674 8.25687 8.22496 8.15205 6.83296 7.10384C5.44097 6.05563 5.33631 5.6678 5.33631 5.6678C5.33631 5.6678 5.12699 8.42458 6.56085 9.96545C7.9947 11.5063 11.2392 12.1352 11.2392 12.1352C11.2392 12.1352 7.68072 10.5315 6.87483 9.51471C6.06894 8.49795 6.00614 7.17722 6.00614 7.17722C6.00614 7.17722 6.52945 8.01578 8.75873 8.67615C10.988 9.33652 14.3058 10.2799 15.2791 11.4329C16.2525 12.586 16.0117 14.5461 16.0117 14.5461L16.2839 13.6342Z" fill="#5F062D"/>
<path d="M12.9347 14.3365C12.9347 14.3365 9.72162 14.0535 8.46568 12.6279C7.20975 11.1919 7.49233 10.3952 7.49233 10.3952L8.1517 10.8145C8.1517 10.8145 8.1831 11.9361 9.75301 12.9843C11.3229 14.0325 13.7301 14.2421 13.7301 14.2421L12.9347 14.3365Z" fill="#5F062D"/>
<path d="M13.458 16.2547C13.458 16.2547 10.7369 15.8354 9.58559 14.6824C8.43432 13.5294 8.64364 12.5545 8.64364 12.5545L9.34487 12.9738C9.34487 12.9738 9.41813 13.8438 10.6741 14.8291C11.93 15.804 14.1279 16.2966 14.1279 16.2966L13.458 16.2547Z" fill="#5F062D"/>
<path d="M14.3372 18.0367C14.3372 18.0367 12.4533 17.7956 11.3753 17.0199C10.2868 16.2547 10.3915 14.9969 10.3915 14.9969L9.69024 14.4728C9.69024 14.4728 9.34486 16.2233 11.0822 17.3763C12.7987 18.5608 14.3372 18.0367 14.3372 18.0367Z" fill="#5F062D"/>
<path d="M5.26308 6.71602C5.26308 6.71602 3.37918 6.11854 2.01859 4.2737C0.657996 2.41837 0.480072 1.16053 0.480072 1.16053C0.480072 1.16053 -0.985182 4.09551 1.31736 7.34495C3.6199 10.5944 6.65507 10.8355 6.65507 10.8355C6.65507 10.8355 2.78261 8.98015 1.52668 6.6112C0.27075 4.23178 0.689395 3.46658 0.689395 3.46658C0.689395 3.46658 1.49528 5.21708 3.30592 6.37011C5.11655 7.52314 5.71312 7.65941 5.71312 7.65941L5.68172 6.74748L5.26308 6.71602Z" fill="#5F062D"/>
<path d="M7.04229 13.1415C7.04229 13.1415 3.16983 13.1101 1.14987 10.1332C-0.870087 7.16675 0.385845 5.13323 0.385845 5.13323L0.90915 6.18144C0.90915 6.18144 0.249786 7.68037 1.74644 9.81871C3.24309 11.9466 6.35152 12.8585 6.35152 12.8585L7.04229 13.1415Z" fill="#5F062D"/>
<path d="M8.53886 16.0136C8.53886 16.0136 4.1745 15.1436 2.70925 13.152C1.24399 11.1604 1.58937 10.1436 1.58937 10.1436L0.961406 9.4099C0.961406 9.4099 0.438101 12.4183 3.19069 14.4727C5.95374 16.5377 8.53886 16.0136 8.53886 16.0136Z" fill="#5F062D"/>
<path d="M11.9613 18.5608C11.9613 18.5608 8.26681 18.98 5.99567 17.2715C3.72452 15.5629 3.79778 14.4413 3.79778 14.4413L2.85583 13.9906C2.85583 13.9906 3.58846 16.957 6.23638 18.1834C8.89477 19.3993 11.9613 18.5608 11.9613 18.5608Z" fill="#5F062D"/>
<path d="M13.4999 20.6257C13.4999 20.6257 11.48 21.328 9.34488 20.4161C7.22026 19.5041 7.25166 18.2882 7.25166 18.2882L6.23645 17.7956C6.23645 17.7956 6.47717 20.3427 9.44954 21.1184C12.4115 21.8836 13.8453 20.5943 13.8453 20.5943L13.4999 20.6257Z" fill="#5F062D"/>
<path d="M15.4884 22.1247C15.4884 22.1247 13.2591 23.068 11.7939 22.7221C10.3286 22.3762 9.94137 21.0765 9.94137 21.0765L8.7587 20.5209C8.7587 20.5209 9.3134 22.9632 11.7939 23.4559C14.2743 23.9485 15.8024 22.6488 15.8024 22.6488L15.4884 22.1247Z" fill="#5F062D"/>
<path d="M15.5198 12.7956C15.5198 12.7956 15.9384 11.6426 13.4265 10.6258C10.9147 9.60907 9.2401 9.2946 8.01557 8.77049C6.79104 8.24639 6.55032 7.96338 6.55032 7.96338C6.55032 7.96338 6.47706 8.87532 10.0355 10.1646C13.594 11.4539 14.536 11.8732 15.0593 12.3344C15.593 12.7956 15.5198 12.7956 15.5198 12.7956Z" fill="#FFDF00" fill-opacity="0.51"/>
<path d="M1.00339 4.3366C1.00339 4.3366 1.80928 5.77263 3.41059 6.77891C5.0119 7.79567 5.32589 7.79568 5.32589 7.79568L5.56661 8.87532C5.56661 8.87532 3.96529 8.14159 2.53144 6.74747C1.09758 5.35336 1.00339 4.3366 1.00339 4.3366Z" fill="#FCB002"/>
<path d="M6.80158 12.4497C6.80158 12.4497 4.18506 11.7474 2.96052 10.6363C1.73599 9.51473 1.49527 9.03255 1.49527 9.03255C1.49527 9.03255 2.04997 10.846 4.49904 11.8942C6.93764 12.9424 7.11557 12.7013 7.11557 12.7013L6.80158 12.4497Z" fill="#FCB002"/>
<path d="M2.67795 12.6908C2.67795 12.6908 3.79782 14.0535 6.10036 14.8187C8.4029 15.5839 8.71689 15.5838 8.71689 15.5838C8.71689 15.5838 7.07371 15.5839 4.94909 14.6719C2.82447 13.76 2.67795 12.6908 2.67795 12.6908Z" fill="#FCB002"/>
<path d="M5.92245 16.8522C5.92245 16.8522 7.56563 17.6907 9.51233 18.0052C11.4695 18.3197 11.8463 18.2148 11.8463 18.2148C11.8463 18.2148 10.6217 18.6656 8.63318 18.2463C6.64462 17.827 5.92245 16.8522 5.92245 16.8522Z" fill="#FCB002"/>
<path d="M8.85287 19.9968C8.85287 19.9968 9.97275 20.5943 11.6787 20.6572C13.3847 20.7306 13.9499 20.3427 13.9499 20.3427C13.9499 20.3427 11.4066 20.5524 10.1821 20.2379C8.95754 19.9234 8.85287 19.9968 8.85287 19.9968Z" fill="#FCB002"/>
<path d="M9.31339 12.2715C9.31339 12.2715 10.3914 13.3197 12.0346 13.739C13.6777 14.1583 14.0545 13.9801 14.0545 13.9801C14.0545 13.9801 11.4694 13.3826 10.5693 12.9004C9.65877 12.4078 9.65877 12.4078 9.65877 12.4078L9.31339 12.2715Z" fill="#FCB002"/>
<path d="M6.44571 8.11014C6.44571 8.11014 6.58177 9.47281 8.22495 10.4162C9.86812 11.3596 10.9775 11.7789 10.9775 11.7789C10.9775 11.7789 7.97376 10.1332 7.41906 9.2946C6.86436 8.45604 6.86435 8.31978 6.86435 8.31978L6.44571 8.11014Z" fill="#FCB002"/>
<path d="M10.5693 14.5042C10.5693 14.5042 11.4066 15.2694 12.7672 15.6887C14.1278 16.1079 14.3371 15.8669 14.3371 15.8669C14.3371 15.8669 12.4846 15.4476 11.7206 15.0597C10.9566 14.6719 10.5693 14.5042 10.5693 14.5042Z" fill="#FCB002"/>
<path d="M0.971924 4.37851C0.971924 4.37851 1.18125 6.44349 3.09654 8.22544C5.01184 10.0074 6.26777 10.3533 6.26777 10.3533C6.26777 10.3533 3.264 8.12061 2.49998 6.99903C1.73595 5.87745 1.76735 5.53154 1.76735 5.53154L0.971924 4.37851Z" fill="#FCB002"/>
<path d="M11.0508 16.391C11.0508 16.391 11.7101 17.261 12.8614 17.4706C14.0127 17.6803 14.1906 17.544 14.1906 17.544C14.1906 17.544 12.3067 17.1562 11.7834 16.7788C11.2601 16.391 11.0508 16.391 11.0508 16.391Z" fill="#FCB002"/>
<path d="M15.8339 12.1352C15.8339 12.1352 14.5047 14.5147 14.4419 18.2882C14.3686 22.0618 14.7559 22.7641 14.7559 22.7641L15.6664 22.523C15.6664 22.523 15.1117 18.9905 15.6664 16.4119C16.2211 13.8229 16.4305 13.131 16.4305 13.131L15.8339 12.1352Z" fill="#5F062D" fill-opacity="0.25"/>
<path d="M14.1279 18.11C14.1279 18.11 13.2906 18.6027 11.4067 17.9004C9.5228 17.1981 9.20881 15.4161 9.20881 15.4161C9.20881 15.4161 8.65411 15.1331 8.37153 14.2631C8.08894 13.3931 8.23546 13.0367 8.23546 13.0367C8.23546 13.0367 7.32492 12.5126 7.15746 11.8103C6.97953 11.108 6.97953 11.108 6.97953 11.108C6.97953 11.108 6.03758 10.4057 5.6922 9.53569C5.34682 8.66568 5.27356 7.303 5.27356 7.303L5.48288 7.22963C5.48288 7.22963 6.14224 9.25267 6.97953 9.92352C7.81682 10.5839 7.81682 10.5839 7.81682 10.5839C7.81682 10.5839 7.84822 11.2443 8.44479 11.9466C9.04135 12.6489 9.14602 12.7537 9.14602 12.7537C9.14602 12.7537 9.25068 13.6656 9.70072 14.1478C10.1508 14.6405 10.1508 14.6404 10.1508 14.6404C10.1508 14.6404 9.91004 16.2861 11.4381 17.2295C12.9766 18.1729 14.1279 18.11 14.1279 18.11Z" fill="#5F062D" fill-opacity="0.19"/>
<path d="M40.2513 14.1268L40.0733 13.152C40.0733 13.152 40.0733 10.5629 43.2446 9.61955C46.4158 8.67617 48.4462 8.07869 49.2835 7.62796C50.1208 7.17723 50.7488 6.44349 50.7488 6.44349L50.6441 7.25061C50.6441 7.25061 52.6327 6.69506 54.1293 5.08082C55.626 3.47707 55.9399 2.17728 55.9399 2.17728C55.9399 2.17728 56.1493 3.53995 55.9713 4.58816C55.7934 5.63637 55.7306 5.84601 55.7306 5.84601C55.7306 5.84601 56.1807 7.55459 55.5946 8.85437C54.998 10.1437 54.998 10.1437 54.998 10.1437C54.998 10.1437 54.9247 12.1353 54.056 13.2568C53.1874 14.3784 52.8315 14.5147 52.8315 14.5147C52.8315 14.5147 52.3396 16.2652 50.979 17.2715C49.6184 18.2882 49.4824 18.2463 49.4824 18.2463C49.4824 18.2463 49.0951 19.609 48.1532 20.2379C47.2112 20.8668 46.8658 20.8983 46.8658 20.8983C46.8658 20.8983 46.7298 22.8165 44.04 22.9947C41.3502 23.1729 40.8688 22.502 40.8688 22.502C40.8688 22.502 41.1827 19.0744 40.7955 16.6635C40.4083 14.2526 40.2513 14.1268 40.2513 14.1268Z" fill="#FA8005"/>
<path d="M41.0885 21.045C41.0885 21.045 42.3444 22.2714 44.1237 22.3343C45.9029 22.4077 46.1436 22.198 46.1436 22.198C46.1436 22.198 44.8563 23.2777 43.1817 23.0366C41.5071 22.7955 40.8059 22.4077 40.8059 22.4077L41.0885 21.045Z" fill="#B8290C" fill-opacity="0.38"/>
<path d="M49.5347 18.1415C49.5347 18.1415 48.4148 18.6656 46.2902 18.6341C44.1656 18.6027 43.6423 18.4559 43.6423 18.4559C43.6423 18.4559 45.2436 19.2631 46.96 19.3993C48.666 19.5356 48.98 19.3993 48.98 19.3993L49.3986 18.5608L49.5347 18.1415Z" fill="#E15F07"/>
<path d="M46.8448 20.8668C46.8448 20.8668 45.6935 21.2127 44.1236 21.0031C42.5537 20.7934 42.3444 20.479 42.3444 20.479C42.3444 20.479 43.6317 21.6005 44.9609 21.7683C46.2901 21.9465 46.4994 21.5901 46.4994 21.5901L46.7088 21.1708L46.8448 20.8668Z" fill="#E15F07"/>
<path d="M53.0198 14.2946C53.0198 14.2946 51.7639 15.2694 49.4927 15.6258C47.2216 15.9717 47.1169 15.9088 47.1169 15.9088C47.1169 15.9088 49.0008 16.4643 50.3614 16.4015C51.722 16.3281 52.2767 15.8773 52.2767 15.8773L52.6954 14.9654L53.0198 14.2946Z" fill="#E15F07"/>
<path d="M54.841 10.2485C54.841 10.2485 53.5118 11.9256 51.8791 12.4497C50.2359 12.9738 49.5033 13.0472 49.5033 13.0472C49.5033 13.0472 51.6279 13.2254 53.1978 12.4916C54.7677 11.7579 54.7677 11.6216 54.7677 11.6216C54.7677 11.6216 55.1131 10.8879 55.0817 10.6468C55.0503 10.4057 54.841 10.2485 54.841 10.2485Z" fill="#E15F07"/>
<path d="M55.7096 5.80409C55.7096 5.80409 54.349 8.00532 52.643 9.18979C50.937 10.3743 49.7439 10.6992 49.7439 10.6992C49.7439 10.6992 52.015 10.6258 53.8257 9.33654C55.6363 8.04725 55.8875 7.24013 55.8875 7.24013L55.7514 6.19192L55.7096 5.80409Z" fill="#E15F07"/>
<path d="M48.666 10.521C48.666 10.521 46.7821 11.5378 45.0762 11.9885C43.3702 12.4392 43.3702 12.4392 43.3702 12.4392C43.3702 12.4392 44.8668 12.5126 46.51 12.1562C48.1532 11.8103 48.216 11.7055 48.216 11.7055L48.3939 11.108L48.666 10.521Z" fill="#E15F07"/>
<path d="M47.0542 13.0367C47.0542 13.0367 46.0076 13.7705 43.9877 14.0849C41.9677 14.3994 42.4178 14.326 42.4178 14.326C42.4178 14.326 43.9144 14.5671 45.3483 14.3994C46.7821 14.2212 46.9496 13.9486 46.9496 13.9486L47.1589 13.3931L47.0542 13.0367Z" fill="#E15F07"/>
<path d="M46.2901 14.7872C46.2901 14.7872 44.5423 15.762 43.3282 16.045C42.1037 16.3281 42.1037 16.3281 42.1037 16.3281C42.1037 16.3281 43.6736 16.4014 44.8981 16.2232C46.1227 16.045 46.2587 15.6258 46.2587 15.6258L46.332 15.3428L46.2901 14.7872Z" fill="#E15F07"/>
<path d="M40.0837 13.6342C40.0837 13.6342 39.0685 10.6677 42.941 9.44134C46.5309 8.25687 48.1426 8.15205 49.5346 7.10384C50.9266 6.05563 51.0313 5.6678 51.0313 5.6678C51.0313 5.6678 51.2406 8.42458 49.8067 9.96545C48.3729 11.5063 45.1284 12.1352 45.1284 12.1352C45.1284 12.1352 48.6869 10.5315 49.4928 9.51471C50.2987 8.49795 50.3615 7.17722 50.3615 7.17722C50.3615 7.17722 49.8381 8.01578 47.6089 8.67615C45.3796 9.33652 42.0618 10.2799 41.0885 11.4329C40.1151 12.586 40.3559 14.5461 40.3559 14.5461L40.0837 13.6342Z" fill="#5F062D"/>
<path d="M43.4329 14.3365C43.4329 14.3365 46.646 14.0535 47.9019 12.6279C49.1579 11.1919 48.8753 10.3952 48.8753 10.3952L48.2159 10.8145C48.2159 10.8145 48.1845 11.9361 46.6146 12.9843C45.0447 14.0325 42.6375 14.2421 42.6375 14.2421L43.4329 14.3365Z" fill="#5F062D"/>
<path d="M42.9096 16.2547C42.9096 16.2547 45.6308 15.8354 46.7821 14.6824C47.9333 13.5294 47.724 12.5545 47.724 12.5545L47.0228 12.9738C47.0228 12.9738 46.9495 13.8438 45.6936 14.8291C44.4377 15.804 42.2398 16.2966 42.2398 16.2966L42.9096 16.2547Z" fill="#5F062D"/>
<path d="M42.0304 18.0367C42.0304 18.0367 43.9143 17.7956 44.9923 17.0199C46.0703 16.2547 45.9657 14.9969 45.9657 14.9969L46.6669 14.4728C46.6669 14.4728 47.0123 16.2233 45.2749 17.3763C43.5689 18.5608 42.0304 18.0367 42.0304 18.0367Z" fill="#5F062D"/>
<path d="M51.1045 6.71602C51.1045 6.71602 52.9884 6.11854 54.349 4.2737C55.7096 2.41837 55.8876 1.16053 55.8876 1.16053C55.8876 1.16053 57.3528 4.09551 55.0503 7.34495C52.7477 10.5944 49.7126 10.8355 49.7126 10.8355C49.7126 10.8355 53.585 8.98015 54.8409 6.6112C56.0969 4.23178 55.6782 3.46658 55.6782 3.46658C55.6782 3.46658 54.8723 5.21708 53.0617 6.37011C51.2511 7.52314 50.6545 7.65941 50.6545 7.65941L50.6859 6.74748L51.1045 6.71602Z" fill="#5F062D"/>
<path d="M49.3254 13.1415C49.3254 13.1415 53.1979 13.1101 55.2178 10.1332C57.2378 7.16675 55.9818 5.13323 55.9818 5.13323L55.4585 6.18144C55.4585 6.18144 56.1179 7.68037 54.6213 9.81871C53.1246 11.9466 50.0162 12.8585 50.0162 12.8585L49.3254 13.1415Z" fill="#5F062D"/>
<path d="M47.8287 16.0136C47.8287 16.0136 52.1931 15.1436 53.6584 13.152C55.1236 11.1604 54.7782 10.1436 54.7782 10.1436L55.4062 9.4099C55.4062 9.4099 55.9295 12.4183 53.1769 14.4727C50.4034 16.5377 47.8287 16.0136 47.8287 16.0136Z" fill="#5F062D"/>
<path d="M44.4063 18.5608C44.4063 18.5608 48.1009 18.98 50.372 17.2715C52.6432 15.5629 52.5699 14.4413 52.5699 14.4413L53.5118 13.9906C53.5118 13.9906 52.7792 16.957 50.1313 18.1834C47.4834 19.4098 44.4063 18.5608 44.4063 18.5608Z" fill="#5F062D"/>
<path d="M42.8678 20.6257C42.8678 20.6257 44.8877 21.328 47.0228 20.4161C49.1474 19.5041 49.116 18.2882 49.116 18.2882L50.1313 17.7956C50.1313 17.7956 49.8905 20.3427 46.9182 21.1184C43.9563 21.8836 42.5224 20.5943 42.5224 20.5943L42.8678 20.6257Z" fill="#5F062D"/>
<path d="M40.8792 22.1247C40.8792 22.1247 43.1085 23.068 44.5737 22.7221C46.039 22.3762 46.4262 21.0765 46.4262 21.0765L47.6089 20.5209C47.6089 20.5209 47.0542 22.9632 44.5737 23.4559C42.0933 23.9485 40.5652 22.6488 40.5652 22.6488L40.8792 22.1247Z" fill="#5F062D"/>
<path d="M40.8478 12.7956C40.8478 12.7956 40.4292 11.6426 42.941 10.6258C45.4529 9.60907 47.1275 9.2946 48.352 8.77049C49.5766 8.24639 49.8173 7.96338 49.8173 7.96338C49.8173 7.96338 49.8905 8.87532 46.3321 10.1646C42.7736 11.4539 41.8316 11.8732 41.3083 12.3344C40.7746 12.7956 40.8478 12.7956 40.8478 12.7956Z" fill="#FFDF00" fill-opacity="0.51"/>
<path d="M55.3643 4.3366C55.3643 4.3366 54.5584 5.77263 52.9571 6.77891C51.3558 7.79567 51.0418 7.79568 51.0418 7.79568L50.8011 8.87532C50.8011 8.87532 52.4024 8.14159 53.8362 6.74747C55.2701 5.35336 55.3643 4.3366 55.3643 4.3366Z" fill="#FCB002"/>
<path d="M49.5661 12.4497C49.5661 12.4497 52.1826 11.7474 53.4072 10.6363C54.6317 9.51473 54.8724 9.03255 54.8724 9.03255C54.8724 9.03255 54.3177 10.846 51.8687 11.8942C49.4301 12.9424 49.2521 12.7013 49.2521 12.7013L49.5661 12.4497Z" fill="#FCB002"/>
<path d="M53.6897 12.6908C53.6897 12.6908 52.5698 14.0535 50.2673 14.8187C47.9647 15.5839 47.6507 15.5838 47.6507 15.5838C47.6507 15.5838 49.2939 15.5839 51.4185 14.6719C53.5431 13.76 53.6897 12.6908 53.6897 12.6908Z" fill="#FCB002"/>
<path d="M50.4452 16.8522C50.4452 16.8522 48.8021 17.6907 46.8554 18.0052C44.8982 18.3197 44.5214 18.2148 44.5214 18.2148C44.5214 18.2148 45.746 18.6656 47.7345 18.2463C49.7231 17.827 50.4452 16.8522 50.4452 16.8522Z" fill="#FCB002"/>
<path d="M47.5147 19.9968C47.5147 19.9968 46.3948 20.5943 44.6888 20.6572C42.9828 20.7306 42.4177 20.3427 42.4177 20.3427C42.4177 20.3427 44.9609 20.5524 46.1855 20.2379C47.41 19.9234 47.5147 19.9968 47.5147 19.9968Z" fill="#FCB002"/>
<path d="M47.0542 12.2715C47.0542 12.2715 45.9762 13.3197 44.333 13.739C42.6898 14.1583 42.313 13.9801 42.313 13.9801C42.313 13.9801 44.8982 13.3826 45.7983 12.9004C46.7088 12.4078 46.7088 12.4078 46.7088 12.4078L47.0542 12.2715Z" fill="#FCB002"/>
<path d="M49.9219 8.11014C49.9219 8.11014 49.7859 9.47281 48.1427 10.4162C46.4995 11.3596 45.3901 11.7789 45.3901 11.7789C45.3901 11.7789 48.3939 10.1332 48.9486 9.2946C49.5033 8.45604 49.5033 8.31978 49.5033 8.31978L49.9219 8.11014Z" fill="#FCB002"/>
<path d="M45.7982 14.5042C45.7982 14.5042 44.9609 15.2694 43.6003 15.6887C42.2397 16.1079 42.0304 15.8669 42.0304 15.8669C42.0304 15.8669 43.8829 15.4476 44.6469 15.0597C45.4109 14.6719 45.7982 14.5042 45.7982 14.5042Z" fill="#FCB002"/>
<path d="M55.3957 4.37851C55.3957 4.37851 55.1863 6.44349 53.2711 8.22544C51.3558 10.0074 50.0998 10.3533 50.0998 10.3533C50.0998 10.3533 53.1036 8.12061 53.8676 6.99903C54.6316 5.87745 54.6002 5.53154 54.6002 5.53154L55.3957 4.37851Z" fill="#FCB002"/>
<path d="M45.3168 16.391C45.3168 16.391 44.6574 17.261 43.5061 17.4706C42.3549 17.6803 42.1769 17.544 42.1769 17.544C42.1769 17.544 44.0608 17.1562 44.5841 16.7788C45.1074 16.391 45.3168 16.391 45.3168 16.391Z" fill="#FCB002"/>
<path d="M40.5338 12.1352C40.5338 12.1352 41.863 14.5147 41.9258 18.2882C41.999 22.0618 41.6118 22.7641 41.6118 22.7641L40.7012 22.523C40.7012 22.523 41.256 18.9905 40.7012 16.4119C40.1465 13.8229 39.9372 13.131 39.9372 13.131L40.5338 12.1352Z" fill="#5F062D" fill-opacity="0.25"/>
<path d="M19.005 29.1791C19.005 29.1791 14.8499 29.8395 14.6825 30.9296C14.5046 32.0093 20.1249 32.7849 20.1249 32.7849C20.1249 32.7849 20.7528 33.6235 22.4588 33.6969C24.1648 33.7702 24.6253 33.2461 24.6253 33.2461C24.6253 33.2461 26.5824 33.351 28.6024 33.351C30.6224 33.351 31.5015 33.2147 31.5015 33.2147C31.5015 33.2147 31.7422 33.9484 33.5633 33.917C35.374 33.8855 36.3892 32.9421 36.3892 32.9421C36.3892 32.9421 40.3349 32.4914 41.3082 31.9673C42.2816 31.4432 42.2816 31.3698 42.2816 31.3698C42.2816 31.3698 44.0294 31.6109 44.4795 32.2399C44.9295 32.8688 43.9562 33.6025 43.9562 33.6025C43.9562 33.6025 39.9581 34.9862 39.8011 35.6675C39.5395 36.7157 40.5861 37.7639 44.2492 37.0826C47.86 36.4012 48.7496 33.5711 48.4357 32.5229C48.2263 31.8415 45.1388 28.4663 41.4757 28.047C37.8126 27.6277 22.1867 28.6026 22.1867 28.6026L19.005 29.1791Z" fill="#260212" fill-opacity="0.27"/>
<path d="M23.7881 31.2441C23.7881 31.2441 23.7881 33.2356 21.8728 32.5019C19.9575 31.7682 19.1202 28.938 19.1202 28.938C19.1202 28.938 16.085 27.2294 15.635 21.7054C15.185 16.1813 16.3362 13.2464 16.3362 13.2464L17.2049 10.9088C17.2049 10.9088 16.2316 6.47493 16.4409 3.67622C16.6502 0.877508 17.5922 1.02425 19.4447 1.44353C21.2972 1.86282 23.8718 3.53995 23.8718 3.53995C23.8718 3.53995 26.4151 3.40368 27.3256 2.8062C28.2362 2.20873 28.5502 1.83138 28.5502 1.83138V2.95295C28.5502 2.95295 29.2514 2.71187 29.67 2.53367C30.0887 2.35548 30.0887 2.35548 30.0887 2.35548L30.0154 3.05778C30.0154 3.05778 31.0306 3.02633 31.5539 3.26742C32.0772 3.5085 32.3912 3.50851 32.3912 3.50851C32.3912 3.50851 37.551 0.332438 38.9116 1.27582C40.2722 2.21921 39.9896 7.17723 39.7175 8.74954C39.4349 10.3219 39.1628 10.8774 39.1628 10.8774C39.1628 10.8774 41.2874 15.3847 40.8374 20.3846C40.3873 25.3846 39.0581 27.0932 39.0581 27.0932C39.0581 27.0932 45.0971 27.0198 47.745 29.9233C50.3929 32.8268 47.431 35.657 44.3958 36.0029C41.3607 36.3488 40.492 36.1811 40.178 34.9233C39.864 33.6654 42.0305 33.592 43.0771 33.4558C44.1237 33.3195 44.825 32.9002 44.9296 32.3342C45.0343 31.7786 43.9877 31.3174 43.9877 31.3174C43.9877 31.3174 41.6119 30.3007 39.5186 30.133C37.4254 29.9548 36.8288 30.0596 36.8288 30.0596C36.8288 30.0596 35.8555 32.0826 33.9716 32.5753C32.0877 33.0679 32.5377 31.286 32.5377 31.286C32.5377 31.286 29.4293 32.2294 26.9593 31.8835C24.4579 31.5271 23.7881 31.2441 23.7881 31.2441Z" fill="#FA8005"/>
<path d="M22.2704 18.2463C20.8575 18.2463 19.7062 17.5859 19.7062 16.7788C19.7062 15.9717 20.8575 15.3113 22.2704 15.3113C23.6834 15.3113 24.8346 15.9717 24.8346 16.7788C24.8346 17.5859 23.6834 18.2463 22.2704 18.2463Z" fill="#E15F07"/>
<path d="M33.9925 18.2463C32.5796 18.2463 31.4283 17.5859 31.4283 16.7788C31.4283 15.9717 32.5796 15.3113 33.9925 15.3113C35.4054 15.3113 36.5567 15.9717 36.5567 16.7788C36.5567 17.5859 35.4054 18.2463 33.9925 18.2463Z" fill="#E15F07"/>
<path d="M44.961 32.1141C44.961 32.1141 44.9924 31.2755 43.862 30.4369C42.7317 29.5984 39.8326 29.2839 39.8326 29.2839C39.8326 29.2839 39.7279 28.5711 40.1466 28.0261C40.5652 27.481 40.9315 27.3447 40.9315 27.3447L39.2779 27.2085C39.2779 27.2085 37.8859 28.7598 37.6033 29.0743C37.3207 29.3887 37.08 29.9967 37.08 29.9967C37.08 29.9967 41.4757 30.0491 43.1294 30.9401C44.783 31.831 44.961 32.1141 44.961 32.1141Z" fill="#5F062D" fill-opacity="0.33"/>
<path d="M15.7292 19.3259C15.7292 19.3259 16.1478 23.2358 17.0898 24.7452C18.0317 26.2441 17.791 25.4475 17.791 25.4475C17.791 25.4475 17.6864 24.5041 18.0317 25.1016C18.3771 25.699 20.4389 30.4789 21.6635 31.1078C22.888 31.7367 23.2648 31.4222 23.4427 31.286C23.6206 31.1497 23.6206 31.1497 23.6206 31.1497C23.6206 31.1497 23.7986 32.6172 22.5008 32.5438C21.2134 32.4705 19.7482 30.2692 19.2249 29.3992C18.7016 28.5292 18.7016 28.5292 18.7016 28.5292C18.7016 28.5292 17.2363 27.5858 16.085 24.0953C14.9338 20.6048 15.5303 18.4035 15.5303 18.4035L15.7292 19.3259Z" fill="#5F062D" fill-opacity="0.31"/>
<path d="M40.6699 19.3259C40.6699 19.3259 40.2513 23.2358 39.3093 24.7452C38.3674 26.2441 38.6081 25.4475 38.6081 25.4475C38.6081 25.4475 38.7128 24.5041 38.3674 25.1016C38.022 25.699 35.9602 30.4789 34.7357 31.1078C33.5111 31.7367 33.1343 31.4222 32.9564 31.286C32.7785 31.1497 32.7785 31.1497 32.7785 31.1497C32.7785 31.1497 32.6006 32.6172 33.8984 32.5438C35.1857 32.4705 36.651 30.2692 37.1743 29.3992C37.6976 28.5292 37.6976 28.5292 37.6976 28.5292C37.6976 28.5292 39.1628 27.5858 40.3141 24.0953C41.4654 20.6048 40.8688 18.4035 40.8688 18.4035L40.6699 19.3259Z" fill="#5F062D" fill-opacity="0.31"/>
<path d="M23.0554 27.6801C23.0554 27.6801 24.5206 28.5187 28.0477 28.5502C31.5748 28.5816 33.3121 27.2923 33.3121 27.2923C33.3121 27.2923 32.6842 31.1707 32.2969 31.3489C31.9097 31.5271 29.4397 31.9044 26.9278 31.7367C24.416 31.5585 23.7566 31.2126 23.7566 31.2126L23.1286 28.4139L23.0554 27.6801Z" fill="#5F062D" fill-opacity="0.25"/>
<path d="M40.7223 34.1581C40.7223 34.1581 40.0629 35.2587 41.9782 35.3635C43.8935 35.4683 46.4786 34.9128 47.5566 33.2356C48.6346 31.5585 48.059 30.6885 48.059 30.6885C48.059 30.6885 49.3463 32.7849 47.6613 34.5144C45.9763 36.244 42.4806 36.7681 40.8583 35.8771C39.2361 34.9861 40.3874 34.1161 40.3874 34.1161L40.7223 34.1581Z" fill="#5F062D" fill-opacity="0.31"/>
<path d="M21.1716 5.21708C21.1716 5.21708 18.7644 2.59657 17.8224 2.25066C16.8805 1.90476 16.7444 2.59656 16.7444 2.59656C16.7444 2.59656 16.1478 4.82925 16.6083 7.24012C17.0584 9.651 17.5189 10.1437 17.5189 10.1437C17.5189 10.1437 18.6702 8.04725 19.6854 6.86277C20.7006 5.6783 21.1716 5.21708 21.1716 5.21708Z" fill="#E15F07"/>
<path d="M35.0914 5.21708C35.0914 5.21708 37.4986 2.59657 38.4406 2.25066C39.3825 1.90476 39.5186 2.59656 39.5186 2.59656C39.5186 2.59656 40.1152 4.82925 39.6546 7.24012C39.2046 9.651 38.7441 10.1437 38.7441 10.1437C38.7441 10.1437 37.5928 8.04725 36.5776 6.86277C35.5624 5.6783 35.0914 5.21708 35.0914 5.21708Z" fill="#E15F07"/>
<path d="M25.7034 3.12067C25.7034 3.12067 21.203 2.66994 17.4352 9.72437C13.6674 16.7788 15.1012 24.6089 16.9851 27.3657C18.869 30.1225 19.497 30.2692 19.497 30.2692L18.3143 27.6173C18.3143 27.6173 15.3105 24.8919 15.9804 17.3134C16.6397 9.73486 21.2134 5.25901 22.9927 4.42045C24.7719 3.58188 25.7871 3.37224 26.3732 3.37224C26.9698 3.37224 26.9698 3.37224 26.9698 3.37224L25.7034 3.12067Z" fill="#5F062D"/>
<path d="M17.613 25.7934C17.613 25.7934 18.7957 30.0596 20.0516 31.6948C21.3075 33.3405 23.1182 33.2985 23.8194 32.7115C24.5206 32.1141 23.9973 31.1707 23.474 28.6235C22.9507 26.0764 23.2333 25.5837 23.2333 25.5837C23.2333 25.5837 22.5739 26.5586 23.0972 29.2839C23.6205 32.0092 23.4845 32.2503 22.2913 32.1455C21.1087 32.0407 19.8109 29.8709 18.8375 27.6697C17.8642 25.4684 17.5816 25.1225 17.5816 25.1225L17.613 25.7934Z" fill="#5F062D"/>
<path d="M21.9042 31.1916C21.9042 31.1916 22.1972 31.9568 22.0402 32.3237C21.8832 32.6906 21.8832 32.6906 21.8832 32.6906L22.4589 32.722C22.4589 32.722 22.6682 32.0931 22.4065 31.6424C22.1449 31.1916 21.9042 31.1916 21.9042 31.1916Z" fill="#5F062D"/>
<path d="M22.9508 31.1916C22.9508 31.1916 23.2438 31.9568 23.0868 32.3237C22.9298 32.6906 22.9298 32.6906 22.9298 32.6906L23.5055 32.722C23.5055 32.722 23.7148 32.0931 23.4531 31.6424C23.1915 31.1916 22.9508 31.1916 22.9508 31.1916Z" fill="#5F062D"/>
<path d="M16.8804 11.1185C16.4932 10.7726 15.7605 6.37012 16.1164 3.60286C16.4304 0.804145 17.3723 0.804137 18.0003 0.804137C18.6283 0.772691 21.1401 1.40162 22.9194 2.30308C24.6986 3.24646 24.4997 3.45611 24.4997 3.45611L23.5264 3.80201C23.5264 3.80201 20.6482 2.28211 19.0783 1.77897C17.5084 1.27584 17.3514 1.56933 16.9537 2.70139C16.556 3.83345 16.9537 7.3135 17.2467 8.44557C17.5398 9.57763 17.6968 9.78728 17.6968 9.78728L17.2991 10.7831L16.8804 11.1185Z" fill="#5F062D"/>
<path d="M18.1364 2.52319C18.1364 2.52319 19.5702 3.85442 20.1563 4.75588C20.7529 5.66781 20.5436 5.83552 20.5436 5.83552L21.5169 4.89213C21.5169 4.89213 20.575 3.42465 19.183 2.65946C17.791 1.89427 17.5398 2.1668 17.5398 2.1668L18.1364 2.52319Z" fill="#5F062D"/>
<path d="M30.6642 3.12067C30.6642 3.12067 35.1646 2.66994 38.9324 9.72437C42.7002 16.7788 41.2664 24.6089 39.3825 27.3657C37.4986 30.1225 36.8706 30.2692 36.8706 30.2692L38.0533 27.6173C38.0533 27.6173 41.0571 24.8919 40.3872 17.3134C39.7279 9.73486 35.1542 5.25901 33.3749 4.42045C31.5957 3.58188 30.5805 3.37224 29.9944 3.37224C29.3978 3.37224 29.3978 3.37224 29.3978 3.37224L30.6642 3.12067Z" fill="#5F062D"/>
<path d="M38.7546 25.7934C38.7546 25.7934 37.5719 30.0596 36.316 31.6948C35.0601 33.3405 33.2494 33.2985 32.5482 32.7115C31.847 32.1141 32.3703 31.1707 32.8936 28.6235C33.4169 26.0764 33.1343 25.5837 33.1343 25.5837C33.1343 25.5837 33.7937 26.5586 33.2704 29.2839C32.7471 32.0092 32.8831 32.2503 34.0763 32.1455C35.2589 32.0407 36.5567 29.8709 37.5301 27.6697C38.5034 25.4684 38.786 25.1225 38.786 25.1225L38.7546 25.7934Z" fill="#5F062D"/>
<path d="M34.4634 31.1916C34.4634 31.1916 34.1704 31.9568 34.3274 32.3237C34.4843 32.6906 34.4843 32.6906 34.4843 32.6906L33.9087 32.722C33.9087 32.722 33.6994 32.0931 33.961 31.6424C34.2227 31.1916 34.4634 31.1916 34.4634 31.1916Z" fill="#5F062D"/>
<path d="M33.4168 31.1916C33.4168 31.1916 33.1238 31.9568 33.2808 32.3237C33.4378 32.6906 33.4378 32.6906 33.4378 32.6906L32.8621 32.722C32.8621 32.722 32.6528 32.0931 32.9145 31.6424C33.1761 31.1916 33.4168 31.1916 33.4168 31.1916Z" fill="#5F062D"/>
<path d="M39.4872 11.1185C39.8745 10.7726 40.6071 6.37012 40.2512 3.60286C39.9373 0.804145 38.9953 0.804137 38.3674 0.804137C37.7394 0.772691 35.2275 1.40162 33.4483 2.30308C31.669 3.24646 31.8679 3.45611 31.8679 3.45611L32.8413 3.80201C32.8413 3.80201 35.7194 2.28211 37.2893 1.77897C38.8593 1.27584 39.0162 1.56933 39.414 2.70139C39.8117 3.83345 39.414 7.3135 39.1209 8.44557C38.8279 9.57763 38.6709 9.78728 38.6709 9.78728L39.0686 10.7831L39.4872 11.1185Z" fill="#5F062D"/>
<path d="M38.2313 2.52319C38.2313 2.52319 36.7974 3.85442 36.2113 4.75588C35.6147 5.66781 35.8241 5.83552 35.8241 5.83552L34.8507 4.89213C34.8507 4.89213 35.7927 3.42465 37.1846 2.65946C38.5766 1.89427 38.8278 2.1668 38.8278 2.1668L38.2313 2.52319Z" fill="#5F062D"/>
<path d="M23.8194 31.7996C23.8194 31.7996 25.4626 32.2923 28.1419 32.2923C30.8317 32.2923 32.5377 31.7367 32.5377 31.7367L32.747 30.6885C32.747 30.6885 31.041 31.4956 28.1419 31.5271C25.2428 31.5585 23.6729 30.7619 23.6729 30.7619L23.8194 31.7996Z" fill="#5F062D"/>
<path d="M23.9973 3.36176C25.3893 2.97393 26.7499 3.07875 27.6919 2.24019C28.6338 1.40162 28.7385 1.16053 28.7385 1.16053C28.7385 1.16053 29.0839 2.13536 28.7071 3.12067C28.3198 4.0955 27.7965 4.2737 27.7965 4.2737C27.7965 4.2737 28.1838 3.40369 28.2466 2.94248C28.3198 2.49175 28.3198 2.49175 28.3198 2.49175C28.3198 2.49175 27.6605 3.33031 26.1952 3.53995C24.73 3.7496 23.7566 3.95924 23.7566 3.95924L23.9973 3.36176Z" fill="#5F062D"/>
<path d="M28.8117 2.47078C28.8117 2.47078 28.9268 2.68043 29.5653 2.29259C30.2037 1.90476 30.3502 1.73704 30.3502 1.73704C30.3502 1.73704 30.434 2.89006 29.963 3.41417C29.492 3.93827 29.042 3.93827 29.042 3.93827C29.042 3.93827 29.7432 3.17308 29.8269 2.89006C29.9107 2.60705 29.4606 2.99489 28.9059 3.13116C28.3512 3.26742 28.3721 3.23598 28.3721 3.23598L28.5396 2.18777L28.8117 2.47078Z" fill="#5F062D"/>
<path d="M30.2771 2.76429C30.2771 2.76429 31.3969 2.79573 32.0877 3.11019C32.7889 3.42465 32.8203 3.4561 32.8203 3.4561L32.925 3.98021C32.925 3.98021 30.3084 3.31984 29.9945 3.35128C29.6805 3.38273 29.6805 3.38272 29.6805 3.38272L30.2771 2.76429Z" fill="#5F062D"/>
<path d="M37.0486 30.4788C37.0486 30.4788 39.6965 30.1644 42.2502 31.0344C44.7935 31.9044 44.8354 32.6067 44.8354 32.6067C44.8354 32.6067 45.4319 31.3489 43.0561 30.5418C40.6803 29.7346 39.4663 29.7766 38.4197 29.7032C37.373 29.6298 36.8811 29.9128 36.8811 29.9128L36.4311 30.7199L37.0486 30.4788Z" fill="#5F062D"/>
<path d="M44.4795 31.1078C44.4795 31.1078 45.2122 32.1874 44.1969 32.8897C43.1817 33.592 41.1932 32.8897 40.0838 34.0742C38.9639 35.2587 40.0838 37.1874 43.7155 36.5899C47.3472 35.9924 49.2939 34.2839 48.8753 31.4852C48.3834 28.7284 43.0457 27.1141 41.2664 26.9045C39.4872 26.6948 39.2779 26.7682 39.2779 26.7682L38.8906 27.4705C38.8906 27.4705 42.6061 27.2818 45.8506 29.0009C49.0741 30.699 48.3206 32.7325 48.1113 33.4034C47.3368 35.5417 42.3444 36.7262 40.7745 35.5732C39.5186 34.6298 41.4339 33.896 42.5852 33.8226C43.7364 33.7493 45.1703 33.4767 45.2017 32.3237C45.2331 31.1707 44.4795 31.1078 44.4795 31.1078Z" fill="#5F062D"/>
<path d="M33.0087 15.2065C32.1818 15.3532 31.3864 14.7034 31.219 13.7705C31.0515 12.8271 31.5853 11.9466 32.4121 11.7998C33.2389 11.6531 34.0343 12.303 34.2018 13.2359C34.3693 14.1688 33.8355 15.0597 33.0087 15.2065Z" fill="#5F062D"/>
<path d="M23.4113 15.2065C24.2381 15.3532 25.0335 14.7034 25.201 13.7705C25.3685 12.8271 24.8347 11.9466 24.0079 11.7998C23.181 11.6531 22.3856 12.303 22.2182 13.2359C22.0507 14.1792 22.5845 15.0597 23.4113 15.2065Z" fill="#5F062D"/>
<path d="M28.0582 17.1666C27.6919 17.1666 27.043 16.4643 27.043 16.2757C27.043 16.087 27.5035 15.9298 28.0687 15.9298C28.6339 15.9298 29.0944 16.087 29.0944 16.2757C29.1049 16.4643 28.4769 17.1142 28.0582 17.1666Z" fill="#5F062D"/>
<path d="M28.1002 17.7222C28.1002 17.7222 28.0374 18.2777 28.6549 18.4979C29.2724 18.7075 29.6805 18.3092 29.7329 18.0681C29.7852 17.8375 29.7643 17.7851 29.7643 17.7851C29.7643 17.7851 29.4712 18.2882 28.927 18.2463C28.3827 18.2044 28.1629 17.7012 28.1315 17.6278C28.1002 17.5545 28.1002 17.5545 28.1002 17.5545V17.7222Z" fill="#5F062D"/>
<path d="M28.1419 17.7222C28.1419 17.7222 28.2047 18.2777 27.5872 18.4979C26.9697 18.7075 26.5616 18.3092 26.5092 18.0681C26.4569 17.8375 26.4778 17.7851 26.4778 17.7851C26.4778 17.7851 26.7709 18.2882 27.3151 18.2463C27.8594 18.2044 28.0791 17.7012 28.1105 17.6278C28.1419 17.5545 28.1419 17.5545 28.1419 17.5545V17.7222Z" fill="#5F062D"/>
<path d="M21.7262 17.0933C21.7262 17.0933 20.7843 17.0933 19.8109 16.7788C18.8376 16.4643 18.555 16.3595 18.377 16.7474C18.1991 17.1352 19.1411 17.4811 20.2609 17.4811C21.3808 17.4811 21.7262 17.0933 21.7262 17.0933Z" fill="#5F062D"/>
<path d="M21.8204 18.0995C21.8204 18.0995 20.9099 18.3406 19.8842 18.2882C18.8585 18.2358 18.5655 18.2044 18.4922 18.6236C18.4189 19.0429 19.4237 19.1373 20.5017 18.8438C21.5797 18.5607 21.8204 18.0995 21.8204 18.0995Z" fill="#5F062D"/>
<path d="M34.5367 17.0933C34.5367 17.0933 35.4787 17.0933 36.452 16.7788C37.4254 16.4643 37.708 16.3595 37.8859 16.7474C38.0638 17.1352 37.1219 17.4811 36.002 17.4811C34.8821 17.4811 34.5367 17.0933 34.5367 17.0933Z" fill="#5F062D"/>
<path d="M34.4426 18.0995C34.4426 18.0995 35.3531 18.3406 36.3788 18.2882C37.4045 18.2358 37.6975 18.2044 37.7708 18.6236C37.844 19.0429 36.8393 19.1373 35.7613 18.8438C34.6833 18.5503 34.4426 18.0995 34.4426 18.0995Z" fill="#5F062D"/>
<path d="M24.6253 9.15834C24.6253 9.15834 24.1752 8.87533 23.16 9.47281C22.1448 10.0703 22.0402 10.9403 22.2913 10.9088C22.5321 10.8774 23.024 10.2799 23.9659 10.1436C24.9079 10.0074 25.0439 9.90256 25.0125 9.54617C24.9707 9.20027 24.6253 9.15834 24.6253 9.15834Z" fill="#5F062D"/>
<path d="M31.8784 9.15834C31.8784 9.15834 32.3284 8.87533 33.3436 9.47281C34.3589 10.0703 34.4635 10.9403 34.2123 10.9088C33.9716 10.8774 33.4797 10.2799 32.5378 10.1436C31.5958 10.0074 31.4597 9.90256 31.4911 9.54617C31.533 9.20027 31.8784 9.15834 31.8784 9.15834Z" fill="#5F062D"/>
<path d="M23.9346 12.2925C23.9346 12.2925 23.495 12.1038 22.9508 12.6698C22.4065 13.2359 22.888 13.6761 23.4532 13.4665C24.0183 13.2568 24.2486 12.7537 24.1648 12.544C24.0811 12.3344 23.9346 12.2925 23.9346 12.2925Z" fill="white"/>
<path d="M23.6206 14.2631C23.6206 14.2631 23.9556 13.9696 24.2486 14.2002C24.5417 14.4308 23.8928 14.7662 23.5788 14.6824C23.2648 14.5985 23.6206 14.2631 23.6206 14.2631Z" fill="white"/>
<path d="M22.5739 14.0744C22.5739 14.0744 22.7205 14.913 23.6833 14.892C24.6462 14.8711 24.7509 14.0325 24.7718 13.8858C24.7718 13.5084 23.788 13.4036 23.0554 13.718C22.3646 13.9906 22.6367 14.2631 22.5739 14.0744Z" fill="white" fill-opacity="0.29"/>
<path d="M33.04 12.3973C33.04 12.3973 32.6005 12.2086 32.0562 12.7747C31.512 13.3407 31.9934 13.7809 32.5586 13.5713C33.1238 13.3616 33.354 12.8585 33.2703 12.6489C33.1866 12.4392 33.04 12.3973 33.04 12.3973Z" fill="white"/>
<path d="M32.7261 14.3679C32.7261 14.3679 33.061 14.0744 33.354 14.305C33.6471 14.5356 32.9982 14.8711 32.6842 14.7872C32.3702 14.7034 32.7261 14.3679 32.7261 14.3679Z" fill="white"/>
<path d="M26.5302 17.9633C26.5302 17.9633 26.6662 18.6761 27.2837 18.6761C27.9117 18.6761 28.1419 18.3616 28.1419 18.3616C28.1419 18.3616 28.4873 18.7599 29.0001 18.6551C29.5025 18.5503 29.6281 18.1519 29.6281 18.1519C29.6281 18.1519 28.9688 18.4979 28.5292 18.2253C28.0896 17.9423 28.1419 17.7851 28.1419 17.7851C28.1419 17.7851 27.8803 18.2777 27.2837 18.2882C26.6871 18.3197 26.5302 17.9633 26.5302 17.9633Z" fill="#5F062D"/>
<path d="M31.6795 14.0744C31.6795 14.0744 31.826 14.913 32.7889 14.892C33.7518 14.8711 33.8564 14.0325 33.8774 13.8858C33.8774 13.5084 32.8936 13.4036 32.1609 13.718C31.4702 13.9906 31.7423 14.2631 31.6795 14.0744Z" fill="white" fill-opacity="0.29"/>
<path d="M21.4541 4.12695C21.4541 4.12695 20.5435 3.0473 19.3923 2.345C18.241 1.6427 17.7177 1.53787 17.7177 1.53787C17.7177 1.53787 19.4655 1.92571 20.9622 2.6909C22.4588 3.45609 22.6367 3.49803 22.6367 3.49803L21.4541 4.12695Z" fill="#FCB002"/>
<path d="M34.8089 4.12695C34.8089 4.12695 35.7194 3.0473 36.8707 2.345C38.022 1.6427 38.5453 1.53787 38.5453 1.53787C38.5453 1.53787 36.7974 1.92571 35.3008 2.6909C33.8041 3.45609 33.6262 3.49803 33.6262 3.49803L34.8089 4.12695Z" fill="#FCB002"/>
<path d="M26.2999 3.85442C26.2999 3.85442 23.6101 3.71816 21.3076 6.08711C19.005 8.46654 18.9736 9.44137 18.9736 9.44137C18.9736 9.44137 21.1401 6.53784 23.2961 5.38481C25.4626 4.23179 26.9593 4.05358 26.9593 4.05358L26.2999 3.85442Z" fill="#FCB002"/>
<path d="M29.9944 3.85441C29.9944 3.85441 32.8203 4.03261 34.4216 5.5001C36.0229 6.96759 36.3369 7.73278 36.3369 7.73278C36.3369 7.73278 33.9611 5.24853 31.7318 4.72443C29.5025 4.20033 29.1467 4.16887 29.1467 4.16887L29.9944 3.85441Z" fill="#FCB002"/>
<path d="M22.6682 26.7682C22.6682 26.7682 22.4588 28.0575 22.7728 29.1791C23.0868 30.3007 23.1915 30.6466 22.8775 30.8248C22.5635 31.003 22.0088 29.5355 22.1762 28.1309C22.3542 26.7368 22.6682 26.2127 22.6682 26.2127V26.7682Z" fill="#FCB002"/>
<path d="M33.8355 26.7682C33.8355 26.7682 34.0448 28.0575 33.7308 29.1791C33.4168 30.3007 33.3122 30.6466 33.6262 30.8248C33.9401 31.003 34.4949 29.5355 34.3274 28.1309C34.1495 26.7368 33.8355 26.2127 33.8355 26.2127V26.7682Z" fill="#FCB002"/>
<path d="M21.0668 5.21708C21.0668 5.21708 18.4189 1.68463 17.7491 2.56513C17.0897 3.43514 18.7957 8.0158 18.7957 8.0158L20.2295 6.23385L20.9308 5.57347L21.0668 5.21708Z" fill="#5F062D" fill-opacity="0.33"/>
<path d="M35.3008 5.21708C35.3008 5.21708 37.9487 1.68463 38.6185 2.56513C39.2779 3.43514 37.5719 8.0158 37.5719 8.0158L36.1381 6.23385L35.4368 5.57347L35.3008 5.21708Z" fill="#5F062D" fill-opacity="0.33"/>
<path d="M42.2398 18.11C42.2398 18.11 43.0771 18.6027 44.961 17.9004C46.8449 17.1981 47.1588 15.4161 47.1588 15.4161C47.1588 15.4161 47.7135 15.1331 47.9961 14.2631C48.2787 13.3931 48.1322 13.0367 48.1322 13.0367C48.1322 13.0367 49.0427 12.5126 49.2102 11.8103C49.3881 11.108 49.3881 11.108 49.3881 11.108C49.3881 11.108 50.3301 10.4057 50.6755 9.53569C51.0208 8.66568 51.0941 7.303 51.0941 7.303L50.8848 7.22963C50.8848 7.22963 50.2254 9.25267 49.3881 9.92352C48.5508 10.5839 48.5508 10.5839 48.5508 10.5839C48.5508 10.5839 48.5194 11.2443 47.9229 11.9466C47.3263 12.6489 47.2216 12.7537 47.2216 12.7537C47.2216 12.7537 47.117 13.6656 46.6669 14.1478C46.2169 14.6405 46.2169 14.6404 46.2169 14.6404C46.2169 14.6404 46.4576 16.2861 44.9296 17.2295C43.391 18.1729 42.2398 18.11 42.2398 18.11Z" fill="#5F062D" fill-opacity="0.19"/>
</svg>
