<svg width="1366" height="647" xmlns="http://www.w3.org/2000/svg" xmlns:xlink="http://www.w3.org/1999/xlink"><defs><path d="M1304 617H69C-31.29 392.421-22.29 242.716 96 168c177.594-112.753 341.81 60.826 470 61 128.023-.174 282.065-318.673 597-204 210.14 75.843 257.135 273.228 141 592z" id="a"/><path d="M1 0h514a1 1 0 011 1v731a1 1 0 01-1 1H1a1 1 0 01-1-1V1a1 1 0 011-1z" id="c"/><path d="M21 0h474a1 1 0 011 1v731a1 1 0 01-1 1H21a1 1 0 01-1-1V1a1 1 0 011-1z" id="d"/></defs><g fill="none" fill-rule="evenodd"><path d="M57 617h1248c8.284 0 15 6.716 15 15 0 8.284-6.716 15-15 15H57c-8.284 0-15-6.716-15-15 0-8.284 6.716-15 15-15z" fill="#D3E0F1"/><mask id="b" fill="#fff"><use xlink:href="#a"/></mask><use fill="#F2F5F9" xlink:href="#a"/><g mask="url(#b)"><g transform="translate(710 -206)"><use fill="#FFF" xlink:href="#c"/><mask id="e" fill="#fff"><use xlink:href="#d"/></mask><use fill="#E2EAF5" xlink:href="#d"/><path fill="#D3E0F1" mask="url(#e)" d="M221 326h275v407H221z"/><path d="M-159.99 422.586h464.37s12.583-50.193-75.589-33.462c-88.172 16.73-74.371-30.474-127.142-41.372-52.77-10.898-78.062 33.512-158.507 10.898-80.445-22.614-139.59 63.936-103.133 63.936z" fill="#F2F5F9" mask="url(#e)"/><path fill="#FFF" mask="url(#e)" d="M-113 473h733v20h-733z"/></g></g><g mask="url(#b)" fill="#B6C5D9"><path d="M1047 435h106a3 3 0 013 3v89h-112v-89a3 3 0 013-3z"/><path d="M1093.966 394.949c-.874-73.393 14.246-178.411 37.034-161.949 39.924 28.103 46.914 106.711-5 210-7.705 15.428-13.878 20.8-18.67 18.895-2.624 1.348-7.234-.868-14.33-7.895-52.596-52.396-65.113-102.8-48-130 8.793-12.84 32.705 29.738 48.966 70.949z"/></g><g mask="url(#b)"><path d="M161 109h316a3 3 0 013 3v330a3 3 0 01-3 3H161a3 3 0 01-3-3V112a3 3 0 013-3z" fill="#D3E0F1"/><path d="M191 253h113a3 3 0 013 3v113a3 3 0 01-3 3H191a3 3 0 01-3-3V256a3 3 0 013-3z" fill="#F2F5F9"/><path d="M208 293h79a5 5 0 110 10h-79a5 5 0 010-10zM208 313h49a5 5 0 010 10h-49a5 5 0 010-10z" fill="#B6C5D9"/><path d="M244 237h7a3 3 0 013 3v27a3 3 0 01-3 3h-7a3 3 0 01-3-3v-27a3 3 0 013-3z" fill="#FFF"/><g><path d="M334 303h113a3 3 0 013 3v106a3 3 0 01-3 3H334a3 3 0 01-3-3V306a3 3 0 013-3z" fill="#F2F5F9"/><g fill="#B6C5D9"><path d="M371 330h59a5 5 0 010 10h-59a5 5 0 010-10zM351 330a5 5 0 110 10 5 5 0 010-10zM371 350h59a5 5 0 010 10h-59a5 5 0 010-10zM351 350a5 5 0 110 10 5 5 0 010-10zM371 370h59a5 5 0 010 10h-59a5 5 0 010-10zM351 370a5 5 0 110 10 5 5 0 010-10z"/></g><path d="M387 287h7a3 3 0 013 3v27a3 3 0 01-3 3h-7a3 3 0 01-3-3v-27a3 3 0 013-3z" fill="#FFF"/></g></g><path d="M683 527h570a3 3 0 013 3v38a3 3 0 01-3 3H683a3 3 0 01-3-3v-38a3 3 0 013-3z" fill="#FFF" mask="url(#b)"/></g></svg>