<svg width="1317" height="668" xmlns="http://www.w3.org/2000/svg" xmlns:xlink="http://www.w3.org/1999/xlink"><defs><path d="M365 638H24V57.995C24 39.22 39.191 24 57.93 24h35.627c3.393 0 5.09 1.7 5.09 5.1 0 15.502 10.13 22.096 25.448 22.096h140.81c16.386 0 25.448-6.594 25.448-22.097 0-3.4 1.697-5.099 5.09-5.099h35.627C349.809 24 365 39.22 365 57.995V638z" id="a"/></defs><g fill="none" fill-rule="evenodd"><path d="M37 668C-45.614 339.127 10.234 141.973 204.543 76.539 496.007-21.613 632.208 330.21 757 301c124.792-29.21 277.202-196.747 453-64 117.447 88.01 138.113 231.676 62 431H37z" fill="#F2F5F9"/><path d="M32 638h1248c8.284 0 15 6.716 15 15 0 8.284-6.716 15-15 15H32c-8.284 0-15-6.716-15-15 0-8.284 6.716-15 15-15z" fill="#D3E0F1"/><g transform="translate(786)"><path d="M389 638H0V59.523C0 26.649 26.619 0 59.454 0h270.092C362.38 0 389 26.65 389 59.523V638z" fill="#B6C5D9"/><mask id="b" fill="#fff"><use xlink:href="#a"/></mask><use fill="#F2F5F9" xlink:href="#a"/><path d="M54 74h281c5.523 0 10 4.477 10 10v163c0 5.523-4.477 10-10 10H54c-5.523 0-10-4.477-10-10V84c0-5.523 4.477-10 10-10zM59 287h271c8.284 0 15 6.716 15 15 0 8.284-6.716 15-15 15H59c-8.284 0-15-6.716-15-15 0-8.284 6.716-15 15-15zM59 337h271c8.284 0 15 6.716 15 15 0 8.284-6.716 15-15 15H59c-8.284 0-15-6.716-15-15 0-8.284 6.716-15 15-15zM59 387h271c8.284 0 15 6.716 15 15 0 8.284-6.716 15-15 15H59c-8.284 0-15-6.716-15-15 0-8.284 6.716-15 15-15zM59 437h271c8.284 0 15 6.716 15 15 0 8.284-6.716 15-15 15H59c-8.284 0-15-6.716-15-15 0-8.284 6.716-15 15-15zM59 487h271c8.284 0 15 6.716 15 15 0 8.284-6.716 15-15 15H59c-8.284 0-15-6.716-15-15 0-8.284 6.716-15 15-15zM59 537h271c8.284 0 15 6.716 15 15 0 8.284-6.716 15-15 15H59c-8.284 0-15-6.716-15-15 0-8.284 6.716-15 15-15zM59 587h271c8.284 0 15 6.716 15 15 0 8.284-6.716 15-15 15H59c-8.284 0-15-6.716-15-15 0-8.284 6.716-15 15-15z" fill="#E2EAF5" mask="url(#b)"/></g><path fill="#B6C5D9" d="M211 510h182v38H211z"/><path fill="#E2EAF5" d="M226 548h152v90H226z"/><path d="M266 575h72c5.523 0 10 4.477 10 10s-4.477 10-10 10h-72c-5.523 0-10-4.477-10-10s4.477-10 10-10z" fill="#D3E0F1"/><g><path fill="#B6C5D9" d="M236 422h132v26H236z"/><path fill="#E2EAF5" d="M247 448h110v62H247z"/><path d="M276 467h53a7 7 0 010 14h-53a7 7 0 010-14z" fill="#D3E0F1"/></g><path d="M163.896 576H178a3 3 0 013 3v59h-75v-59a3 3 0 013-3h18.148c-25.269-30.478-30.516-58.594-20.481-74.657 5.987-8.806 22.494 21.214 33.336 49.42-.848-49.306 9.29-121.599 24.664-110.421 25.94 18.378 31.025 68.944-.771 135.658z" fill="#B6C5D9"/></g></svg>