<svg width="779" height="509" xmlns="http://www.w3.org/2000/svg" xmlns:xlink="http://www.w3.org/1999/xlink"><defs><path d="M152 259c59.094 0 107-47.906 107-107S211.094 45 152 45 45 92.906 45 152s47.906 107 107 107zm0 10c-64.617 0-117-52.383-117-117C35 87.383 87.383 35 152 35c64.617 0 117 52.383 117 117 0 64.617-52.383 117-117 117z" id="a"/><path d="M152 269c64.617 0 117-52.383 117-117 0-64.617-52.383-117-117-117C87.383 35 35 87.383 35 152c0 64.617 52.383 117 117 117zm0 35C68.053 304 0 235.947 0 152S68.053 0 152 0s152 68.053 152 152-68.053 152-152 152z" id="c"/><path d="M152 269c64.617 0 117-52.383 117-117 0-64.617-52.383-117-117-117C87.383 35 35 87.383 35 152c0 64.617 52.383 117 117 117zm0 35C68.053 304 0 235.947 0 152S68.053 0 152 0s152 68.053 152 152-68.053 152-152 152z" id="f"/><path d="M152 259c59.094 0 107-47.906 107-107S211.094 45 152 45 45 92.906 45 152s47.906 107 107 107zm0 10c-64.617 0-117-52.383-117-117C35 87.383 87.383 35 152 35c64.617 0 117 52.383 117 117 0 64.617-52.383 117-117 117z" id="g"/><path d="M545 202L359 386c-2.255 2.087-5.496 3.233-9 3l-198-20c-6.094-.56-10.504-5.943-10-12 .397-2.914 1.863-5.607 4-7l144-115-19-55-21-62 19-6 54 157c7.263-.82 16.362-2.936 26-6 18.347-5.518 37.685-13.647 56-24 47.15-25.979 84.835-62.608 108-110-2.404-4.962-4.326-9.275-6-13-2.207-5.007.042-10.924 5-13 5.074-2.433 10.958-.171 13 5 14.698 32.493 51.356 114.175 110 245 2.425 4.93.203 10.857-5 13-4.81 2.412-10.703.177-13-5-29.424-65.408-53.33-118.551-72-159zm-8-20c-5.067-10.88-9.612-21.018-14-30-24.721 44.732-62.366 79.49-108 104-29.627 17.24-62.446 28.87-85 33l26 73 181-180zM336 368l-40-114-120 97 160 17z" id="i"/><path d="M234 131c-17.444 0-21-15.868-21-23 0-18.39 4.158-18.122 49.779-12.724C307.7 99.805 329 87.865 329 106c0 18.914-48.595 10.077-59 16-11.349 6.122-19.419 9-36 9z" id="j"/><path d="M457.039 24.766c-5.38 1.143-10.672-2.276-11.82-7.637-1.147-5.361 2.284-10.634 7.664-11.778 24.543-5.216 43.478-6.668 57.178-4.138 16.187 2.99 26.313 12.048 27.713 26.343 1.082 11.037-1.755 19.104-8.645 30.192-.349.56-.707 1.132-1.172 1.867l-1.143 1.808c-4.907 7.78-6.9 12.037-7.753 17.622-1.143 7.487.424 16.472 5.721 28.282 2.245 5.005-15.943 13.106-18.188 8.1-6.766-15.084-8.99-27.835-7.228-39.368 1.369-8.965 4.327-15.286 10.581-25.2l1.151-1.82c.44-.698.775-1.23 1.093-1.742 4.802-7.728 6.32-12.045 5.756-17.812-.453-4.615-3.403-7.255-11.516-8.753-10.6-1.957-27.188-.685-49.392 4.034z" id="k"/><path d="M330.579 436l13.765-57.197c.644-2.677 3.296-4.315 5.923-3.658 2.627.656 4.234 3.358 3.59 6.035L340.664 436h9.836a8.5 8.5 0 010 17h-32a8.5 8.5 0 010-17h12.079z" id="l"/><path d="M38 66c15.464 0 28-12.536 28-28S53.464 10 38 10 10 22.536 10 38s12.536 28 28 28zm0 10C17.013 76 0 58.987 0 38S17.013 0 38 0s38 17.013 38 38-17.013 38-38 38z" id="m"/><path d="M358.334 321H348.5a8.5 8.5 0 010-17h32a8.5 8.5 0 010 17h-12.081l-13.765 57.197c-.644 2.677-3.296 4.315-5.923 3.658-2.627-.656-4.234-3.358-3.59-6.035L358.334 321z" id="o"/><path d="M675.636 172.05a10 10 0 01-9.143 5.95h-81.986a10 10 0 01-9.143-5.95L543 99h-22a5 5 0 110-10h181a6 6 0 016 6l-32.364 77.05z" id="p"/><circle id="e" cx="152" cy="152" r="36"/><circle id="h" cx="152" cy="152" r="36"/><circle id="n" cx="38" cy="38" r="28"/><linearGradient x1="50%" y1="0%" x2="50%" y2="100%" id="b"><stop stop-color="#00A07D" stop-opacity="0" offset="0%"/><stop stop-opacity=".1" offset="100%"/></linearGradient><linearGradient x1="50%" y1="0%" x2="50%" y2="100%" id="d"><stop stop-color="#393E41" stop-opacity="0" offset="0%"/><stop stop-opacity=".2" offset="100%"/></linearGradient></defs><g fill="none" fill-rule="evenodd"><g fill-rule="nonzero" transform="translate(475 205)"><use fill="#00A07D" xlink:href="#a"/><use fill="url(#b)" xlink:href="#a"/></g><g fill-rule="nonzero" transform="translate(475 205)"><use fill="#393E41" xlink:href="#c"/><use fill="url(#d)" xlink:href="#c"/></g><g transform="translate(475 205)"><use fill="#393E41" xlink:href="#e"/><use fill="url(#d)" xlink:href="#e"/></g><g fill-rule="nonzero" transform="translate(0 205)"><use fill="#393E41" xlink:href="#f"/><use fill="url(#d)" xlink:href="#f"/></g><g fill-rule="nonzero" transform="translate(0 205)"><use fill="#00A07D" xlink:href="#g"/><use fill="url(#b)" xlink:href="#g"/></g><g transform="translate(0 205)"><use fill="#393E41" xlink:href="#h"/><use fill="url(#d)" xlink:href="#h"/></g><g fill-rule="nonzero"><use fill="#00A07D" xlink:href="#i"/><use fill="url(#b)" xlink:href="#i"/></g><g><use fill="#393E41" xlink:href="#j"/><use fill="url(#d)" xlink:href="#j"/></g><g fill-rule="nonzero"><use fill="#393E41" xlink:href="#k"/><use fill="url(#d)" xlink:href="#k"/></g><g fill-rule="nonzero"><use fill="#393E41" xlink:href="#l"/><use fill="url(#d)" xlink:href="#l"/></g><g><g fill-rule="nonzero" transform="translate(312 340)"><use fill="#393E41" xlink:href="#m"/><use fill="url(#d)" xlink:href="#m"/></g><g transform="translate(312 340)"><use fill="#00A07D" xlink:href="#n"/><use fill="url(#b)" xlink:href="#n"/></g></g><g fill-rule="nonzero"><use fill="#393E41" xlink:href="#o"/><use fill="url(#d)" xlink:href="#o"/></g><g><use fill="#393E41" xlink:href="#p"/><use fill="url(#d)" xlink:href="#p"/></g></g></svg>