<svg width="418" height="754" xmlns="http://www.w3.org/2000/svg" xmlns:xlink="http://www.w3.org/1999/xlink"><defs><path d="M190.18 670.97c.062 1.876.025 3.626-.132 5.07-.984 9.022-5.481 15.039-12.588 24.552-7.107 9.513-24.058 29.368-41.294 18.077-16.15-10.58 9.732-42.107 20.79-48.669 7.606 5.373 24.89 6.818 33.225.97z" id="a"/><path d="M274.276 668c11.939 4.88 45.73 25.4 37.872 40.802-8.676 17.007-42.973-2.335-50.928-7.897-7.956-5.562-14.722-12.282-18.14-18.685-1.212-2.272-1.869-7.483-2.08-12.781 7.95 4.083 24.9 5.937 33.276-1.439z" id="c"/><path d="M253.738 360.967c39.32 42.909 27.27 272.062 26 296-.157 23.413-37.373 17.493-42 10-4.755-8.562-19.261-217.965-24-218-5.088.035-15.192 204.818-20 218-5.719 12.112-35.2 9.194-40 0-5.742-10.263-32.854-240.82 10-306 4.354-6.623 83.932-6.623 90 0z" id="d"/><path d="M50 44c16.363-45.933 84.273-59.21 120-24 36.044 35.805 52.886 13.082 72 29 19.244 16.403.065 46.383-19 63-18.886 16.864 24.725 47.782 13 88-11.58 40.134-65.562 24.791-83 49-17.755 24.496-49.84-21.55-105-27-54.531-5.894-63.381-70.614-23-101 41.079-30.563 9.266-30.563 25-77z" id="f"/><path d="M199.078 229.871c-14.014 3.635-28.835 5.549-38.966 12.357-2.775 1.843-5.186 4.054-7.112 6.772-4.354 5.959-10.05 7.64-16.904 6.755-16.521-2.99-39.853-23.066-72.294-31.029C30.594 187.438 57.156 105.28 76 139c14.633 25.89 50.954 15.886 109-30 26.59 43.048 34.296 77.482 23 103-3.204 7.34-6.02 13.085-8.922 17.871z" id="g"/><path d="M206.285 43.057a64.727 64.727 0 015.438 0c.403-.04.828-.059 1.277-.057 31.994-.132 62.228 12.38 92 71 3.502 6.31 45.499-66.428 45-73 .499-6.652 2.256-38.554 6-41 4.759-.777 8.167 1.869 5 17-1.82 16.67 52.755-22.766 56-8 4.622 15.486-8.826 30.704-33 36-24.03 6.739-20.464 4.05-24 20-3.493 16.642-25.254 90.436-55 92-8.19.42-21.853-8.603-36.453-21.734L254 188c-14.969 6.667-29.969 10-45 10-15.008 0-30.008-3.333-45-10l-14.547-52.734C134.853 148.397 121.19 157.419 113 157c-29.746-1.564-51.507-75.358-55-92-3.536-15.95.03-13.261-24-20C9.826 39.704-3.622 24.486 1 9c3.245-14.766 57.82 24.67 56 8-3.167-15.131.241-17.777 5-17 3.744 2.446 5.501 34.348 6 41-.499 6.572 41.498 79.31 45 73 29.772-58.62 60.006-71.132 92-71 .452-.002.88.017 1.285.057z" id="i"/><path d="M278.27 143.492c-3.157-2.492-6.415-5.258-9.72-8.234L254 188c-15.036 6.667-30.036 10-45 10-14.952 0-29.952-3.333-45-10l-14.55-52.742a209.36 209.36 0 01-7.002 6.042c-9.325-2.61-15.338-8.156-18.066-10.963-2.727-2.806-7.858-6.684-11.382-16.337 29.802-58.725 60.01-71.252 92-71 .464-.003.903.015 1.318.056a64.727 64.727 0 015.372-.001c.412-.04.849-.058 1.31-.055 31.99-.252 62.198 12.275 92 71-.328 4.332-3.24 9.778-8.738 16.337-5.497 6.56-11.494 10.944-17.992 13.155z" id="l"/><path d="M17 0c9.389 0 17 8.649 17 19.318v11.364C34 41.35 26.389 50 17 50S0 41.351 0 30.682V19.318C0 8.65 7.611 0 17 0z" id="m"/><path d="M3 50c-9.23-15.574 4.738-25.016 9-18 2.127 3.022 2.817 5.896 3 9 8.18 13.89 39.153-15.731 49-27 10.747-11.884 12.289-24.4 20 0 5.435 16.149 24.978 9.76 40-3 .161 4.726 0 9.777 0 15 0 4.716 6 10.954 6 33 0 21.842-23.052 52-49 52-19.77 0-50.044-13.294-64-36-11.628-.013-4.363-9.471-14-25z" id="o"/><linearGradient x1="50%" y1="0%" x2="50%" y2="100%" id="b"><stop stop-color="#A7A7EE" stop-opacity="0" offset="0%"/><stop stop-color="#4C55A0" stop-opacity=".2" offset="100%"/></linearGradient><linearGradient x1="50%" y1="0%" x2="50%" y2="100%" id="e"><stop stop-color="#403F9F" stop-opacity="0" offset="0%"/><stop stop-opacity=".2" offset="100%"/></linearGradient><linearGradient x1="0%" y1="0%" x2="100%" y2="100%" id="h"><stop stop-opacity=".3" offset="0%"/><stop stop-color="#1F1845" stop-opacity="0" offset="100%"/></linearGradient><linearGradient x1="50%" y1="0%" x2="50%" y2="100%" id="j"><stop stop-color="#FFC62C" stop-opacity="0" offset="0%"/><stop stop-color="#FF6663" stop-opacity=".1" offset="100%"/></linearGradient><linearGradient x1="100%" y1="0%" x2="0%" y2="104.574%" id="n"><stop stop-opacity=".35" offset="0%"/><stop stop-color="#FFC62C" stop-opacity="0" offset="100%"/></linearGradient><linearGradient x1="100%" y1="0%" x2="0%" y2="100%" id="p"><stop stop-opacity=".2" offset="0%"/><stop stop-color="#FFC62C" stop-opacity="0" offset="100%"/></linearGradient></defs><g fill="none" fill-rule="evenodd"><path d="M74.444 719c11.991-49.931 119.829-79 194-79 74.315 0 125.828 51.79 59 86-66.441 34.223-264.027 42.791-253-7z" fill="#F0F0F6"/><g><use fill="#A7A7EE" xlink:href="#a"/><use fill="url(#b)" xlink:href="#a"/></g><g><use fill="#A7A7EE" xlink:href="#c"/><use fill="url(#b)" xlink:href="#c"/></g><g><use fill="#464D89" xlink:href="#d"/><use fill="url(#e)" xlink:href="#d"/></g><g transform="translate(74)"><use fill="#464D89" xlink:href="#f"/><use fill="url(#e)" xlink:href="#f"/><use fill="url(#h)" xlink:href="#g"/></g><g transform="translate(0 173)"><mask id="k" fill="#fff"><use xlink:href="#i"/></mask><use fill="#FFC62C" xlink:href="#i"/><use fill="url(#j)" xlink:href="#i"/><g mask="url(#k)"><use fill="#A7A7EE" xlink:href="#l"/><use fill="url(#b)" xlink:href="#l"/></g><ellipse fill="#FFF" mask="url(#k)" cx="224" cy="51" rx="18" ry="22"/><ellipse fill="#FFF" mask="url(#k)" cx="194" cy="51" rx="18" ry="22"/><path d="M152.267 145.5a1 1 0 11-1.93.523l-.049-.178c-.333-1.227-1.981-7.014-2.38-8.53-.8-3.04-1.273-5.417-1.492-7.73-.842-8.919 2.397-17.18 12.226-29.49a1 1 0 111.563 1.249c-9.534 11.938-12.585 19.72-11.798 28.053.207 2.188.661 4.465 1.435 7.409.392 1.493 2.038 7.269 2.376 8.515l.05.18zM267.554 146.74a1 1 0 01-1.93-.522c.206-.763 1.92-6.874 2.344-8.524.76-2.957 1.215-5.284 1.427-7.517.828-8.71-2.262-16.775-11.89-28.833a1 1 0 111.562-1.248c9.926 12.43 13.202 20.98 12.319 30.27-.224 2.353-.697 4.776-1.48 7.826-.431 1.675-2.15 7.804-2.352 8.548z" fill="#FFF" fill-rule="nonzero" mask="url(#k)"/></g><g transform="translate(192 188)"><use fill="#FFC62C" xlink:href="#m"/><use fill="url(#j)" xlink:href="#m"/></g><path d="M34 30.28c-2.3.47-4.638.72-7 .72-7.894 0-17.464-2.12-27-6.112V18C0 8.611 7.611 1 17 1s17 7.611 17 17v12.28z" fill="url(#n)" transform="translate(192 188)"/><g transform="translate(135 98)"><use fill="#FFC62C" xlink:href="#o"/><use fill="url(#j)" xlink:href="#o"/></g><path d="M84 34c-7.715-24.396-9.255-11.835-20 0-9.82 11.4-35.39 29.877-49 7 8.249 14.056 39.18-15.67 49-27 10.745-11.906 12.285-24.468 20 0 5.412 16.227 24.929 9.815 40-3 .091 4.753-.07 9.821 0 15-.07 4.796-34.588 24.298-40 8z" fill="url(#p)" transform="translate(135 98)"/><path d="M147.5 167a1 1 0 110 2c-.347 0-.99.856-1.522 2.525-.619 1.944-.978 4.615-.978 7.475 0 2.86.36 5.53.978 7.475.531 1.669 1.175 2.525 1.522 2.525s.99-.856 1.522-2.525c.619-1.944.978-4.615.978-7.475 0-.866-.033-1.719-.097-2.544a1 1 0 111.994-.155c.068.877.103 1.781.103 2.699 0 6.64-1.706 12-4.5 12s-4.5-5.36-4.5-12 1.706-12 4.5-12z" fill="#FFF" fill-rule="nonzero"/></g></svg>