<svg width="757" height="563" xmlns="http://www.w3.org/2000/svg" xmlns:xlink="http://www.w3.org/1999/xlink"><defs><path d="M0 455h757v9c0 17.12-13.88 31-31 31H31c-17.12 0-31-13.88-31-31v-9z" id="a"/><path id="c" d="M0 39h64v416H0z"/><path id="e" d="M728 39h29v416h-29z"/><path d="M30 0h697c16.569 0 30 13.431 30 30v9H0v-9C0 13.431 13.431 0 30 0z" id="g"/><path d="M21 156h22a3 3 0 013 3v16a3 3 0 01-3 3H21a3 3 0 01-3-3v-16a3 3 0 013-3z" id="i"/><path d="M21 287h22a3 3 0 013 3v16a3 3 0 01-3 3H21a3 3 0 01-3-3v-16a3 3 0 013-3z" id="k"/><path d="M21 185h22a3 3 0 013 3v16a3 3 0 01-3 3H21a3 3 0 01-3-3v-16a3 3 0 013-3z" id="n"/><path d="M21 316h22a3 3 0 013 3v16a3 3 0 01-3 3H21a3 3 0 01-3-3v-16a3 3 0 013-3z" id="o"/><path id="p" d="M0 0h460v312H0z"/><path d="M329.44 15.92C323.728 19.994 306.856 28 304 28c-3.449 0-10.284-2.074-20-2.074H11.926C5.339 25.926 0 20.586 0 14 0 7.416 5.337 2.078 11.922 2.078c171.888.062 262.58.06 272.078-.004C293.716 2.008 300.551 0 304 0c2.856 0 19.728 8.006 25.44 12.08A2 2 0 01330 12h4a2 2 0 010 4h-4a2 2 0 01-.56-.08z" id="s"/><linearGradient x1="50%" y1="0%" x2="50%" y2="100%" id="b"><stop stop-color="#393E41" stop-opacity="0" offset="0%"/><stop stop-opacity=".3" offset="100%"/></linearGradient><linearGradient x1="100%" y1="50%" x2="0%" y2="50%" id="d"><stop stop-color="#393E41" stop-opacity="0" offset="0%"/><stop stop-opacity=".3" offset="100%"/></linearGradient><linearGradient x1="0%" y1="39.62%" x2="100%" y2="39.62%" id="f"><stop stop-color="#393E41" stop-opacity="0" offset="0%"/><stop stop-opacity=".3" offset="100%"/></linearGradient><linearGradient x1="54.976%" y1="100%" x2="54.976%" y2="0%" id="h"><stop stop-color="#393E41" stop-opacity="0" offset="0%"/><stop stop-opacity=".3" offset="100%"/></linearGradient><linearGradient x1="0%" y1="0%" x2="100%" y2="100%" id="j"><stop stop-opacity=".441" offset="0%"/><stop stop-opacity="0" offset="100%"/></linearGradient><linearGradient x1="50%" y1="0%" x2="50%" y2="100%" id="q"><stop stop-color="#464D89" offset="0%"/><stop stop-color="#FDC8C8" offset="100%"/></linearGradient><circle id="l" cx="32" cy="247" r="27"/><circle id="m" cx="32" cy="247" r="11"/><rect id="u" x="197" y="9" width="59" height="10" rx="5"/></defs><g fill="none" fill-rule="evenodd"><g><use fill="#393E41" xlink:href="#a"/><use fill="url(#b)" xlink:href="#a"/><use fill="#393E41" xlink:href="#c"/><use fill="url(#d)" xlink:href="#c"/><use fill="#393E41" xlink:href="#e"/><use fill="url(#f)" xlink:href="#e"/><path fill="#000" d="M64 39h664v416H64z"/><use fill="#393E41" xlink:href="#g"/><use fill="url(#h)" xlink:href="#g"/><path d="M101 78h33v338h-33a3 3 0 01-3-3V81a3 3 0 013-3zM594 78h97a3 3 0 013 3v332a3 3 0 01-3 3h-97V78z" fill="#393E41"/><rect fill="#4E565C" x="604" y="88" width="80" height="10" rx="5"/><rect fill="#4E565C" x="604" y="148" width="80" height="10" rx="5"/><rect fill="#4E565C" x="604" y="108" width="80" height="10" rx="5"/><rect fill="#4E565C" x="604" y="168" width="80" height="10" rx="5"/><rect fill="#4E565C" x="604" y="128" width="80" height="10" rx="5"/><rect fill="#4E565C" x="604" y="188" width="80" height="10" rx="5"/><rect fill="#4E565C" x="604" y="208" width="80" height="80" rx="40"/><path fill="#393E41" d="M134 78h460v26H134z"/><use fill="#393E41" xlink:href="#i"/><use fill="url(#j)" xlink:href="#i"/><use fill="#393E41" xlink:href="#k"/><use fill="url(#j)" xlink:href="#k"/><use fill="#393E41" xlink:href="#l"/><use fill="url(#j)" xlink:href="#l"/><use fill="#393E41" xlink:href="#m"/><use fill="url(#j)" xlink:href="#m"/><use fill="#393E41" xlink:href="#n"/><use fill="url(#j)" xlink:href="#n"/><use fill="#393E41" xlink:href="#o"/><use fill="url(#j)" xlink:href="#o"/><path d="M21 157a2 2 0 00-2 2v16a2 2 0 002 2h22a2 2 0 002-2v-16a2 2 0 00-2-2H21zm0-1h22a3 3 0 013 3v16a3 3 0 01-3 3H21a3 3 0 01-3-3v-16a3 3 0 013-3zM21 288a2 2 0 00-2 2v16a2 2 0 002 2h22a2 2 0 002-2v-16a2 2 0 00-2-2H21zm0-1h22a3 3 0 013 3v16a3 3 0 01-3 3H21a3 3 0 01-3-3v-16a3 3 0 013-3zM32 273c14.36 0 26-11.64 26-26s-11.64-26-26-26-26 11.64-26 26 11.64 26 26 26zm0 1c-14.912 0-27-12.088-27-27s12.088-27 27-27 27 12.088 27 27-12.088 27-27 27z" fill-opacity=".1" fill="#000" fill-rule="nonzero"/><path d="M32 257c5.523 0 10-4.477 10-10s-4.477-10-10-10-10 4.477-10 10 4.477 10 10 10zm0 1c-6.075 0-11-4.925-11-11s4.925-11 11-11 11 4.925 11 11-4.925 11-11 11zM21 186a2 2 0 00-2 2v16a2 2 0 002 2h22a2 2 0 002-2v-16a2 2 0 00-2-2H21zm0-1h22a3 3 0 013 3v16a3 3 0 01-3 3H21a3 3 0 01-3-3v-16a3 3 0 013-3zM21 317a2 2 0 00-2 2v16a2 2 0 002 2h22a2 2 0 002-2v-16a2 2 0 00-2-2H21zm0-1h22a3 3 0 013 3v16a3 3 0 01-3 3H21a3 3 0 01-3-3v-16a3 3 0 013-3z" fill-opacity=".1" fill="#000" fill-rule="nonzero"/><circle fill="#4E565C" cx="116" cy="96" r="8"/><circle fill="#4E565C" cx="116" cy="122" r="8"/><circle fill="#4E565C" cx="116" cy="148" r="8"/><rect fill="#4E565C" x="144" y="86" width="80" height="10" rx="5"/><circle fill="#4E565C" cx="116" cy="174" r="8"/><circle fill="#4E565C" cx="116" cy="200" r="8"/><circle fill="#4E565C" cx="116" cy="226" r="8"/><circle fill="#4E565C" cx="116" cy="252" r="8"/><g transform="translate(134 104)"><mask id="r" fill="#fff"><use xlink:href="#p"/></mask><use fill="url(#q)" xlink:href="#p"/><g mask="url(#r)" fill="#F7F7F8" opacity=".4"><g transform="translate(-51 -8)"><circle cx="162.5" cy="27.5" r="1.5"/><circle cx="101.5" cy="1.5" r="1.5"/><circle cx="212.5" cy="47.5" r="1.5"/><circle cx="151.5" cy="21.5" r="1.5"/><circle cx="232.5" cy="17.5" r="1.5"/><circle cx="272.5" cy="27.5" r="1.5"/><circle cx="211.5" cy="1.5" r="1.5"/><circle cx="81.5" cy="51.5" r="1.5"/><circle cx="161.5" cy="61.5" r="1.5"/><circle cx="371.5" cy="11.5" r="1.5"/><circle cx="371.5" cy="71.5" r="1.5"/><circle cx="341.5" cy="51.5" r="1.5"/><circle cx="461.5" cy="41.5" r="1.5"/><circle cx="332.5" cy="67.5" r="1.5"/><circle cx="271.5" cy="41.5" r="1.5"/><circle cx="373.5" cy="27.5" r="1.5"/><circle cx="382.5" cy="67.5" r="1.5"/><circle cx="321.5" cy="41.5" r="1.5"/><circle cx="392.5" cy="17.5" r="1.5"/><circle cx="31.5" cy="151.5" r="1.5"/><circle cx="192.5" cy="127.5" r="1.5"/><circle cx="131.5" cy="101.5" r="1.5"/><circle cx="331.5" cy="131.5" r="1.5"/><circle cx="202.5" cy="157.5" r="1.5"/><circle cx="141.5" cy="131.5" r="1.5"/><circle cx="243.5" cy="117.5" r="1.5"/><circle cx="252.5" cy="157.5" r="1.5"/><circle cx="191.5" cy="131.5" r="1.5"/><circle cx="262.5" cy="107.5" r="1.5"/><circle cx="252.5" cy="187.5" r="1.5"/><circle cx="191.5" cy="161.5" r="1.5"/><circle cx="302.5" cy="207.5" r="1.5"/><circle cx="241.5" cy="181.5" r="1.5"/><circle cx="321.5" cy="201.5" r="1.5"/><circle cx="422.5" cy="227.5" r="1.5"/><circle cx="361.5" cy="201.5" r="1.5"/><circle cx="463.5" cy="187.5" r="1.5"/><circle cx="472.5" cy="227.5" r="1.5"/><circle cx="411.5" cy="201.5" r="1.5"/><circle cx="482.5" cy="177.5" r="1.5"/><circle cx="452.5" cy="117.5" r="1.5"/><circle cx="391.5" cy="91.5" r="1.5"/><circle cx="502.5" cy="137.5" r="1.5"/><circle cx="441.5" cy="111.5" r="1.5"/><circle cx="522.5" cy="107.5" r="1.5"/><circle cx="562.5" cy="117.5" r="1.5"/><circle cx="501.5" cy="91.5" r="1.5"/><circle cx="371.5" cy="141.5" r="1.5"/><circle cx="451.5" cy="151.5" r="1.5"/><circle cx="121.5" cy="201.5" r="1.5"/><circle cx="112.5" cy="217.5" r="1.5"/><circle cx="51.5" cy="191.5" r="1.5"/><circle cx="51.5" cy="251.5" r="1.5"/><circle cx="21.5" cy="231.5" r="1.5"/><circle cx="141.5" cy="221.5" r="1.5"/><circle cx="62.5" cy="247.5" r="1.5"/><circle cx="1.5" cy="221.5" r="1.5"/><circle cx="72.5" cy="197.5" r="1.5"/></g></g><circle fill="#FCFCFC" opacity=".2" mask="url(#r)" cx="230" cy="268" r="150"/><path d="M0 277.208c121.187 16.773 212.52 22.938 274 18.496 61.48-4.443 123.48-11.88 186-22.313V312H0v-34.792z" fill="#252A4D" mask="url(#r)"/><path d="M246.173 255.174L255 312h-45l9.255-59.577c-1.691.378-3.45.577-5.255.577-13.255 0-24-10.745-24-24 0-.338.007-.674.02-1.008-7.786-.253-14.02-6.644-14.02-14.492 0-7.678 5.968-13.962 13.518-14.467A29.658 29.658 0 01189 193.5c0-16.292 13.208-29.5 29.5-29.5 15.179 0 27.68 11.463 29.318 26.205A25.878 25.878 0 01262 186c14.36 0 26 11.64 26 26 0 11.955-8.07 22.026-19.058 25.063.038.474.058.953.058 1.437 0 9.665-7.835 17.5-17.5 17.5a17.49 17.49 0 01-5.327-.826z" fill="#252A4D" mask="url(#r)"/><path d="M341.054 281.14a7.5 7.5 0 11-3.537 12.967 10.452 10.452 0 01-6.017 1.893c-2.164 0-4.176-.655-5.847-1.777C324.178 300.958 318.178 306 311 306c-6.606 0-12.214-4.27-14.215-10.2a8.026 8.026 0 01-5.747-.849A14.978 14.978 0 01279 301c-4.11 0-7.833-1.652-10.542-4.33A9.504 9.504 0 01259.5 303a9.5 9.5 0 111.501-18.882L261 284a5 5 0 014.726-4.993C268.24 274.246 273.241 271 279 271c6.261 0 11.626 3.836 13.873 9.286A8.008 8.008 0 01295 280c1.665 0 3.211.509 4.492 1.379A14.968 14.968 0 01311 276a14.96 14.96 0 0111.07 4.877A10.5 10.5 0 01331.5 275c4.243 0 7.898 2.517 9.554 6.14zM144.8 301.385a9.456 9.456 0 01-5.3 1.615 9.482 9.482 0 01-7.386-3.525A12.943 12.943 0 01126 301c-7.18 0-13-5.82-13-13s5.82-13 13-13c5.808 0 10.726 3.808 12.393 9.064A9.6 9.6 0 01139.5 284c1.963 0 3.786.595 5.3 1.615a12.476 12.476 0 019.7-4.615c3.808 0 7.219 1.703 9.511 4.389C166.284 279.32 172.138 275 179 275c2.373 0 4.625.517 6.65 1.444A10.004 10.004 0 01195 270c5.523 0 10 4.477 10 10v.033c.33-.022.664-.033 1-.033 8.284 0 15 6.716 15 15 0 8.284-6.716 15-15 15-6.399 0-11.861-4.006-14.017-9.647C189.078 304.379 184.345 307 179 307c-5.704 0-10.71-2.985-13.544-7.478A12.497 12.497 0 01154.5 306a12.476 12.476 0 01-9.7-4.615z" fill="#252A4D" mask="url(#r)"/></g></g><g transform="translate(210 535)"><mask id="t" fill="#fff"><use xlink:href="#s"/></mask><use fill="#393E41" xlink:href="#s"/><use fill="url(#b)" xlink:href="#s"/><path d="M301.489 35.104l-.978-.208C302.126 27.315 302.5 22.08 302.5 14c0-8.08-.374-13.315-1.989-20.896l.978-.208C303.122.559 303.5 5.856 303.5 14c0 8.145-.378 13.44-2.011 21.104z" fill="#272B2C" fill-rule="nonzero" mask="url(#t)"/><rect fill="#4E5458" x="24" y="10" width="46" height="8" rx="4"/><g><use fill="#393E41" xlink:href="#u"/><rect stroke-opacity=".1" stroke="#000" stroke-linejoin="square" fill="url(#j)" x="197.5" y="9.5" width="58" height="9" rx="4.5"/></g><path fill="#272B2C" d="M226 9h1v10h-1z"/></g></g></svg>