<svg width="430" height="615" xmlns="http://www.w3.org/2000/svg" xmlns:xlink="http://www.w3.org/1999/xlink"><defs><linearGradient x1="50%" y1="0%" x2="50%" y2="100%" id="b"><stop stop-color="#F2F5F9" stop-opacity="0" offset="0%"/><stop stop-color="#B6C5D9" stop-opacity=".5" offset="100%"/></linearGradient><linearGradient x1="50%" y1="0%" x2="50%" y2="100%" id="d"><stop stop-color="#52C883" stop-opacity="0" offset="0%"/><stop stop-color="#00A07D" stop-opacity=".5" offset="100%"/></linearGradient><linearGradient x1="50%" y1="0%" x2="50%" y2="100%" id="f"><stop stop-color="#00A07D" stop-opacity="0" offset="0%"/><stop stop-opacity=".05" offset="100%"/></linearGradient><path d="M120 55V30c0-16.569 13.431-30 30-30h130c16.569 0 30 13.431 30 30v25h90c16.569 0 30 13.431 30 30v500c0 16.569-13.431 30-30 30H30c-16.569 0-30-13.431-30-30V85c0-16.569 13.431-30 30-30h90z" id="a"/><path d="M32 553V279c0-.333 36.399-35 91-35 28.714 0 59.768 21.68 91 42 29.916 18.89 60.75 36.532 92 37 64.19-.468 91-44.485 91-44v274c0 16.569-13.431 30-30 30H62c-16.569 0-30-13.431-30-30z" id="c"/><path d="M307 244c54.502 0 91 34.873 91 35 0-.28-26.883 44-92 44-30.585 0-61.503-17.794-91-37 31.819-20.186 62.958-42 92-42z" id="e"/></defs><g fill="none" fill-rule="evenodd"><use fill="#F2F5F9" xlink:href="#a"/><use fill="url(#b)" xlink:href="#a"/><use fill="#52C883" xlink:href="#c"/><use fill="url(#d)" xlink:href="#c"/><rect fill="#FFF" opacity=".4" x="52" y="107" width="64" height="200" rx="32"/><rect fill="#FFF" opacity=".4" x="52" y="327" width="64" height="64" rx="32"/><g><use fill="#00A07D" xlink:href="#e"/><use fill="url(#f)" xlink:href="#e"/></g></g></svg>