<svg width="730" height="661" xmlns="http://www.w3.org/2000/svg" xmlns:xlink="http://www.w3.org/1999/xlink"><defs><rect id="e" x="40" y="74" width="30" height="71" rx="15"/><rect id="f" x="40" y="185" width="30" height="71" rx="15"/><rect id="j" x="40" y="74" width="30" height="71" rx="15"/><rect id="k" x="40" y="185" width="30" height="71" rx="15"/><rect id="l" x="0" y="0" width="730" height="80" rx="40"/><rect id="n" x="0" y="300" width="730" height="361" rx="100"/><path d="M55 90c19.33 0 35-15.67 35-35S74.33 20 55 20 20 35.67 20 55s15.67 35 35 35zm0 20C24.624 110 0 85.376 0 55S24.624 0 55 0s55 24.624 55 55-24.624 55-55 55z" id="a"/><path d="M55 200c19.33 0 35-15.67 35-35s-15.67-35-35-35-35 15.67-35 35 15.67 35 35 35zm0 20c-30.376 0-55-24.624-55-55s24.624-55 55-55 55 24.624 55 55-24.624 55-55 55z" id="c"/><path d="M55 310c19.33 0 35-15.67 35-35s-15.67-35-35-35-35 15.67-35 35 15.67 35 35 35zm0 20c-30.376 0-55-24.624-55-55s24.624-55 55-55 55 24.624 55 55-24.624 55-55 55z" id="d"/><path d="M55 90c19.33 0 35-15.67 35-35S74.33 20 55 20 20 35.67 20 55s15.67 35 35 35zm0 20C24.624 110 0 85.376 0 55S24.624 0 55 0s55 24.624 55 55-24.624 55-55 55z" id="g"/><path d="M55 200c19.33 0 35-15.67 35-35s-15.67-35-35-35-35 15.67-35 35 15.67 35 35 35zm0 20c-30.376 0-55-24.624-55-55s24.624-55 55-55 55 24.624 55 55-24.624 55-55 55z" id="h"/><path d="M55 310c19.33 0 35-15.67 35-35s-15.67-35-35-35-35 15.67-35 35 15.67 35 35 35zm0 20c-30.376 0-55-24.624-55-55s24.624-55 55-55 55 24.624 55 55-24.624 55-55 55z" id="i"/><linearGradient x1="50%" y1="0%" x2="50%" y2="100%" id="b"><stop stop-color="#E2EAF5" stop-opacity="0" offset="0%"/><stop stop-color="#B6C5D9" offset="100%"/></linearGradient><linearGradient x1="50%" y1="0%" x2="50%" y2="100%" id="m"><stop stop-color="#403F9F" stop-opacity="0" offset="0%"/><stop stop-opacity=".2" offset="100%"/></linearGradient><linearGradient x1="50%" y1="0%" x2="50%" y2="100%" id="o"><stop stop-color="#FFC62C" stop-opacity="0" offset="0%"/><stop stop-color="#FF6663" stop-opacity=".3" offset="100%"/></linearGradient></defs><g fill="none" fill-rule="evenodd"><g fill-rule="nonzero" transform="translate(110 25)"><use fill="#E2EAF5" xlink:href="#a"/><use fill="url(#b)" xlink:href="#a"/></g><g fill-rule="nonzero" transform="translate(110 25)"><use fill="#E2EAF5" xlink:href="#c"/><use fill="url(#b)" xlink:href="#c"/></g><g fill-rule="nonzero" transform="translate(110 25)"><use fill="#E2EAF5" xlink:href="#d"/><use fill="url(#b)" xlink:href="#d"/></g><g transform="translate(110 25)"><use fill="#E2EAF5" xlink:href="#e"/><use fill="url(#b)" xlink:href="#e"/></g><g transform="translate(110 25)"><use fill="#E2EAF5" xlink:href="#f"/><use fill="url(#b)" xlink:href="#f"/></g><g><g fill-rule="nonzero" transform="translate(510 25)"><use fill="#E2EAF5" xlink:href="#g"/><use fill="url(#b)" xlink:href="#g"/></g><g fill-rule="nonzero" transform="translate(510 25)"><use fill="#E2EAF5" xlink:href="#h"/><use fill="url(#b)" xlink:href="#h"/></g><g fill-rule="nonzero" transform="translate(510 25)"><use fill="#E2EAF5" xlink:href="#i"/><use fill="url(#b)" xlink:href="#i"/></g><g transform="translate(510 25)"><use fill="#E2EAF5" xlink:href="#j"/><use fill="url(#b)" xlink:href="#j"/></g><g transform="translate(510 25)"><use fill="#E2EAF5" xlink:href="#k"/><use fill="url(#b)" xlink:href="#k"/></g></g><g><use fill="#464D89" xlink:href="#l"/><use fill="url(#m)" xlink:href="#l"/></g><g><use fill="#FFC62C" xlink:href="#n"/><use fill="url(#o)" xlink:href="#n"/></g><path d="M130 548c-10.483-2.51-18.755-6.416-25-11l11-25c5.942 4.75 13.05 8.288 21 11 8.527 2.629 16.765 3.964 25 4 9.172-.036 15.948-1.404 20-4 4.718-2.879 6.91-6.517 7-11-.09-3.395-1.385-6.165-4-8-2.567-2.571-5.889-4.34-10-6-3.994-1.01-9.475-2.48-16-4-11.015-2.618-19.718-5.155-26-8-7.272-2.229-13.085-6.301-18-12-4.785-5.517-7.21-12.994-7-22-.21-8.484 1.983-15.861 6-22 4.753-7.08 11.363-12.32 20-16 9.036-4.064 19.832-6 33-6 8.49 0 17.194 1.068 26 3 8.202 2.34 15.643 5.412 22 9l-10 25c-12.834-7.292-25.723-10.964-39-11-8.647.036-15.324 1.505-20 4-3.961 3.38-6.12 7.251-6 12-.12 4.865 2.371 8.436 7 11 5.337 2.11 12.944 4.413 23 7 10.805 2.22 19.509 4.756 26 7 7.062 2.83 12.875 6.835 18 12 4.575 5.784 7 13.194 7 23 0 7.551-2.226 14.861-7 21-4.128 7.08-10.805 12.32-20 16-8.61 4.064-19.44 6-32 6-11.225 0-21.888-1.502-32-5zm206-28h-65l-13 30h-33l62-140h32l63 140h-34l-12-30zm-11-24l-22-54-22 54h44zm72-86h33v114h70v26H397V410zm229 114v26H518V410h105v26h-73v30h65v26h-65v32h76z" fill="#FFF"/></g></svg>