<svg width="310" height="753" xmlns="http://www.w3.org/2000/svg" xmlns:xlink="http://www.w3.org/1999/xlink"><defs><linearGradient x1="50%" y1="0%" x2="50%" y2="100%" id="b"><stop stop-color="#B6C5D9" stop-opacity="0" offset="0%"/><stop stop-opacity=".05" offset="100%"/></linearGradient><linearGradient x1="0%" y1="0%" x2="100%" y2="38.882%" id="c"><stop stop-opacity=".093" offset="0%"/><stop stop-opacity="0" offset="100%"/></linearGradient><linearGradient x1="50%" y1="0%" x2="50%" y2="100%" id="e"><stop stop-color="#D6DFEA" stop-opacity="0" offset="0%"/><stop stop-color="#B6C5D9" offset="100%"/></linearGradient><linearGradient x1="50%" y1="0%" x2="50%" y2="100%" id="g"><stop stop-color="#6F7981" stop-opacity="0" offset="0%"/><stop stop-opacity=".1" offset="100%"/></linearGradient><path d="M253.107 0c15.588 0-25.505 426.612-32.388 439.184-6.882 12.571-106.36 61.731-106.36 114.202s27.81 68.821 12.728 89.185c-15.083 20.364-53.646 65.302-104.465 33.96-50.819-31.34-6.06-101.263 36.748-136.582 42.809-35.319 113.75-107.676 121.236-135.391C188.092 376.842 237.519 0 253.106 0zM75.683 568.193c-27.844 0-55.055 26.866-55.055 66.84 0 39.976 50.926 49.336 70.013 21.17 19.087-28.166 12.886-88.01-14.958-88.01z" id="a"/><path d="M154.833 3c21.775 0 98.323 364.785 82.901 409.995-15.422 45.21 3.395 59.715 45.505 135.348 42.11 75.633 25.248 168.469 10.309 183.63-14.94 15.162-68.976 30.524-85.783 13.718C190.96 728.884 133.057 3 154.833 3zm77.111 510.558c-23.566 0-31.357 19.077-21.742 119.455 9.616 100.378 19.688 101.863 50.22 95.341 30.53-6.522 25.808-85.637 21.157-112.399-4.65-26.761-26.068-102.397-49.635-102.397z" id="d"/><circle id="f" cx="204" cy="398" r="17"/></defs><g fill="none" fill-rule="evenodd"><g><use fill="#B6C5D9" xlink:href="#a"/><use fill="url(#b)" xlink:href="#a"/></g><path d="M240.845 265.62c-8.25 89.44-17.225 168.266-20.126 173.564-2.171 3.967-13.564 11.577-28.14 21.785a11008.316 11008.316 0 01-6.707-85.734c7.364-46.054 20.257-135.847 33.114-216.048 7.775 34.015 15.37 70.936 21.859 106.432z" fill="url(#c)"/><g><use fill="#D6DFEA" xlink:href="#d"/><use fill="url(#e)" xlink:href="#d"/></g><g><use fill="#6F7981" xlink:href="#f"/><use fill="url(#g)" xlink:href="#f"/></g></g></svg>