<svg width="24" height="24" viewBox="0 0 24 24" fill="none" xmlns="http://www.w3.org/2000/svg">
<path fill-rule="evenodd" clip-rule="evenodd" d="M2.07255 7.72859C4.12758 12.0546 7.83903 14.7596 11.998 14.7614C11.9993 14.7614 12.0007 14.7614 12.002 14.7614V13.2614C12.0013 13.2614 12.0007 13.2614 12 13.2614C11.9993 13.2614 11.9987 13.2614 11.998 13.2614M12 13.2614C15.4547 13.2605 18.7066 11.013 20.5726 7.08496L20.8944 6.40752L22.2493 7.05114L21.9275 7.72859C19.8724 12.0546 16.161 14.7596 12.002 14.7614M12 13.2614C8.54534 13.2605 5.29341 11.013 3.42745 7.08496L3.10564 6.40752L1.75074 7.05114L2.07255 7.72859" fill="black"/>
<path fill-rule="evenodd" clip-rule="evenodd" d="M18.5897 10.2148L21.7615 13.3866L20.7008 14.4473L17.5291 11.2755L18.5897 10.2148Z" fill="black"/>
<path fill-rule="evenodd" clip-rule="evenodd" d="M5.33124 10.2148L2.15947 13.3866L3.22013 14.4473L6.3919 11.2755L5.33124 10.2148Z" fill="black"/>
<path fill-rule="evenodd" clip-rule="evenodd" d="M14.8435 12.754L16.1061 17.1041L14.6656 17.5222L13.4029 13.1722L14.8435 12.754Z" fill="black"/>
<path fill-rule="evenodd" clip-rule="evenodd" d="M9.07668 12.7543L7.81404 17.1044L9.25459 17.5225L10.5172 13.1724L9.07668 12.7543Z" fill="black"/>
</svg>
