<svg width="24" height="24" viewBox="0 0 24 24" fill="none" xmlns="http://www.w3.org/2000/svg">
<g clip-path="url(#clip0_16_1012)">
<path d="M14.2569 15C13.4615 14.0359 13.0182 12.8296 13.0001 11.5798C12.982 10.3301 13.39 9.11142 14.1571 8.12461C14.9242 7.13779 16.0045 6.44166 17.22 6.1509C18.4356 5.86014 19.714 5.99208 20.8446 6.52499C21.9752 7.0579 22.8905 7.96 23.4398 9.08269C23.9892 10.2054 24.1397 11.4817 23.8667 12.7014C23.5937 13.9211 22.9134 15.0114 21.9379 15.7928C20.9623 16.5741 19.7498 16.9999 18.4999 17H5.49989C4.25001 16.9999 3.03744 16.5741 2.06191 15.7928C1.08638 15.0114 0.406074 13.9211 0.133062 12.7014C-0.13995 11.4817 0.0106132 10.2054 0.55995 9.08269C1.10929 7.96 2.02463 7.0579 3.1552 6.52499C4.28578 5.99208 5.56415 5.86014 6.77973 6.1509C7.99532 6.44166 9.07562 7.13779 9.84268 8.12461C10.6097 9.11142 11.0178 10.3301 10.9997 11.5798C10.9815 12.8296 10.5383 14.0359 9.74289 15H14.2569ZM5.49989 15C6.42815 15 7.31839 14.6313 7.97476 13.9749C8.63114 13.3185 8.99989 12.4283 8.99989 11.5C8.99989 10.5717 8.63114 9.68151 7.97476 9.02513C7.31839 8.36875 6.42815 8 5.49989 8C4.57163 8 3.68139 8.36875 3.02502 9.02513C2.36864 9.68151 1.99989 10.5717 1.99989 11.5C1.99989 12.4283 2.36864 13.3185 3.02502 13.9749C3.68139 14.6313 4.57163 15 5.49989 15ZM18.4999 15C19.4281 15 20.3184 14.6313 20.9748 13.9749C21.6311 13.3185 21.9999 12.4283 21.9999 11.5C21.9999 10.5717 21.6311 9.68151 20.9748 9.02513C20.3184 8.36875 19.4281 8 18.4999 8C17.5716 8 16.6814 8.36875 16.025 9.02513C15.3686 9.68151 14.9999 10.5717 14.9999 11.5C14.9999 12.4283 15.3686 13.3185 16.025 13.9749C16.6814 14.6313 17.5716 15 18.4999 15Z" fill="#09121F"/>
</g>
<defs>
<clipPath id="clip0_16_1012">
<rect width="24" height="24" fill="white"/>
</clipPath>
</defs>
</svg>
