<svg xmlns="http://www.w3.org" xmlns:xlink="http://www.w3.org/1999/xlink" width="36px" height="36px" preserveAspectRatio="xMidYMid meet" viewBox="0 0 15 15" aria-hidden="true" role="img"><g fill="none"><path fill-rule="evenodd" clip-rule="evenodd" d="M2 2.5a.5.5 0 0 1 .5-.5h3a.5.5 0 0 1 0 1H3v2.5a.5.5 0 0 1-1 0v-3zm7 0a.5.5 0 0 1 .5-.5h3a.5.5 0 0 1 .5.5v3a.5.5 0 0 1-1 0V3H9.5a.5.5 0 0 1-.5-.5zM2.5 9a.5.5 0 0 1 .5.5V12h2.5a.5.5 0 0 1 0 1h-3a.5.5 0 0 1-.5-.5v-3a.5.5 0 0 1 .5-.5zm10 0a.5.5 0 0 1 .5.5v3a.5.5 0 0 1-.5.5h-3a.5.5 0 0 1 0-1H12V9.5a.5.5 0 0 1 .5-.5z" fill="currentColor"></path></g></svg>