<svg width="32" height="32" viewBox="0 0 32 32" fill="none" xmlns="http://www.w3.org/2000/svg">
<path d="M0 0H8V2H12V4H14V6H16V8H18V14H16V16H14V20H16V24H14V26H12V28H8V30H20V28H24V26H26V24H28V20H30V10H28V6H26V4H24V2H20V0H32V32H0V14H2V16H4V18H6V20H8V18H10V16H12V14H14V12H12V10H10V8H8V6H6V8H4V10H2V12H0V0Z" fill="white"/>
<path d="M8 0H20V2H14V4H12V2H8V0Z" fill="#1A1A1A"/>
<path d="M14 2H20V4H24V6H26V10H28V20H26V24H24V26H20V28H14V26H16V24H20V22H18V18H16V16H22V14H20V8H18V6H16V4H14V2Z" fill="white"/>
<path d="M20 2H24V4H20V2Z" fill="#1A1A1A"/>
<path d="M14 4H16V6H14V4Z" fill="#1A1A1A"/>
<path d="M24 4H26V6H24V4Z" fill="#1A1A1A"/>
<path d="M6 6H8V8H6V6Z" fill="#1A1A1A"/>
<path d="M16 6H18V8H16V6Z" fill="#1A1A1A"/>
<path d="M26 6H28V10H26V6Z" fill="#1A1A1A"/>
<path d="M4 8H6V12H2V10H4V8Z" fill="#1A1A1A"/>
<path d="M6 8H8V12H12V14H8V18H6V14H2V12H6V8Z" fill="white"/>
<path d="M8 8H10V10H12V12H8V8Z" fill="#1A1A1A"/>
<path d="M18 8H20V14H22V16H16V14H18V8Z" fill="#1A1A1A"/>
<path d="M28 10H30V20H28V10Z" fill="#1A1A1A"/>
<path d="M0 12H2V14H0V12Z" fill="#1A1A1A"/>
<path d="M12 12H14V14H12V12Z" fill="#1A1A1A"/>
<path d="M22 12H26V16H24V14H22V12Z" fill="#1A1A1A"/>
<path d="M2 14H6V18H4V16H2V14Z" fill="#1A1A1A"/>
<path d="M8 14H12V16H10V18H8V14Z" fill="#1A1A1A"/>
<path d="M14 16H16V18H18V22H20V24H16V20H14V16Z" fill="#1A1A1A"/>
<path d="M6 18H8V20H6V18Z" fill="#1A1A1A"/>
<path d="M26 20H28V24H26V20Z" fill="#1A1A1A"/>
<path d="M14 24H16V26H14V24Z" fill="#1A1A1A"/>
<path d="M24 24H26V26H24V24Z" fill="#1A1A1A"/>
<path d="M12 26H14V28H20V30H8V28H12V26Z" fill="#1A1A1A"/>
<path d="M20 26H24V28H20V26Z" fill="#1A1A1A"/>
<path d="M2 28H6V30H2V28Z" fill="#1A1A1A"/>
</svg>
