<svg width="32" height="32" viewBox="0 0 32 32" fill="none" xmlns="http://www.w3.org/2000/svg">
<path d="M0 0H16V2H6V4H4V6H2V10H0V0Z" fill="white"/>
<path d="M16 0H18V2H26V4H18V8H28V6H30V10H2V6H4V4H6V2H16V0Z" fill="#1A1A1A"/>
<path d="M18 0H32V10H30V6H28V4H26V2H18V0Z" fill="white"/>
<path d="M8 4H16V8H6V6H8V4Z" fill="white"/>
<path d="M18 4H26V6H28V8H18V4Z" fill="white"/>
<path d="M26 4H28V6H26V4Z" fill="#1A1A1A"/>
<path d="M0 10H2V16H6V18H4V20H2V24H0V10Z" fill="#1A1A1A"/>
<path d="M2 10H30V16H26V18H22V16H20V14H12V16H10V18H6V16H2V10Z" fill="white"/>
<path d="M30 10H32V24H30V20H28V18H26V16H30V10Z" fill="#1A1A1A"/>
<path d="M12 14H20V16H12V14Z" fill="#1A1A1A"/>
<path d="M10 16H12V18H10V16Z" fill="#1A1A1A"/>
<path d="M12 16H20V18H22V22H20V24H12V22H10V18H12V16Z" fill="white"/>
<path d="M20 16H22V18H20V16Z" fill="#1A1A1A"/>
<path d="M4 18H6V20H4V18Z" fill="white"/>
<path d="M6 18H10V22H12V24H6V22H8V20H6V18Z" fill="#1A1A1A"/>
<path d="M22 18H26V20H24V22H26V24H20V22H22V18Z" fill="#1A1A1A"/>
<path d="M26 18H28V20H26V18Z" fill="white"/>
<path d="M2 20H4V22H6V24H12V26H20V24H26V22H28V20H30V24H28V28H4V24H2V20Z" fill="white"/>
<path d="M4 20H6V22H4V20Z" fill="#1A1A1A"/>
<path d="M6 20H8V22H6V20Z" fill="white"/>
<path d="M24 20H26V22H24V20Z" fill="white"/>
<path d="M26 20H28V22H26V20Z" fill="#1A1A1A"/>
<path d="M0 24H2V28H4V32H0V24Z" fill="white"/>
<path d="M2 24H4V28H2V24Z" fill="#1A1A1A"/>
<path d="M12 24H20V26H12V24Z" fill="#1A1A1A"/>
<path d="M28 24H30V28H28V24Z" fill="#1A1A1A"/>
<path d="M30 24H32V32H28V28H30V24Z" fill="white"/>
<path d="M4 28H28V32H4V28Z" fill="#1A1A1A"/>
</svg>
