<svg width="32" height="32" viewBox="0 0 32 32" fill="none" xmlns="http://www.w3.org/2000/svg">
<path d="M0 0H32V32H0V24H8V26H18V24H20V26H28V22H30V8H28V6H24V4H20V2H12V4H8V6H6V8H4V12H0V0Z" fill="#1A1A1A"/>
<path d="M12 2H20V4H12V2Z" fill="white"/>
<path d="M8 4H12V6H8V4Z" fill="white"/>
<path d="M12 4H20V6H24V16H20V10H18V8H14V10H18V14H16V16H10V18H16V16H18V24H8V22H6V20H4V22H0V14H2V18H4V12H6V8H8V6H12V4Z" fill="#1A1A1A"/>
<path d="M20 4H24V6H20V4Z" fill="white"/>
<path d="M6 6H8V8H6V6Z" fill="white"/>
<path d="M24 6H28V8H26V12H28V8H30V22H28V26H20V24H18V16H16V14H18V10H20V16H24V6Z" fill="white"/>
<path d="M4 8H6V12H4V8Z" fill="white"/>
<path d="M14 8H18V10H14V8Z" fill="white"/>
<path d="M26 8H28V12H26V8Z" fill="#1A1A1A"/>
<path d="M0 12H4V18H2V14H0V12Z" fill="white"/>
<path d="M26 14H28V16H26V14Z" fill="#1A1A1A"/>
<path d="M10 16H16V18H10V16Z" fill="white"/>
<path d="M20 18H28V20H20V18Z" fill="#1A1A1A"/>
<path d="M4 20H6V22H8V24H0V22H4V20Z" fill="white"/>
<path d="M20 22H26V24H20V22Z" fill="#1A1A1A"/>
<path d="M8 24H18V26H8V24Z" fill="white"/>
</svg>
