<svg width="32" height="32" viewBox="0 0 32 32" fill="none" xmlns="http://www.w3.org/2000/svg">
<path d="M0 0H12V6H14V0H32V6H30V4H20V6H16V8H12V10H10V8H8V6H6V4H4V2H2V4H4V6H6V8H8V10H10V12H4V14H8V16H6V18H4V20H2V22H0V14H2V12H0V0Z" fill="#1A1A1A"/>
<path d="M12 0H14V6H12V0Z" fill="white"/>
<path d="M2 2H4V4H2V2Z" fill="white"/>
<path d="M4 4H6V6H4V4Z" fill="white"/>
<path d="M20 4H30V6H32V16H30V8H22V6H20V4Z" fill="white"/>
<path d="M6 6H8V8H6V6Z" fill="white"/>
<path d="M16 6H20V8H22V10H18V12H20V14H16V12H14V10H12V8H16V6Z" fill="white"/>
<path d="M20 6H22V8H20V6Z" fill="#1A1A1A"/>
<path d="M8 8H10V10H8V8Z" fill="white"/>
<path d="M22 8H30V16H28V18H26V20H24V24H20V26H18V28H12V20H14V16H16V14H20V12H18V10H22V8Z" fill="#1A1A1A"/>
<path d="M10 10H12V12H10V10Z" fill="white"/>
<path d="M12 10H14V12H16V14H14V16H12V14H10V12H12V10Z" fill="#1A1A1A"/>
<path d="M0 12H2V14H0V12Z" fill="white"/>
<path d="M4 12H10V14H12V16H14V20H12V18H10V16H8V14H4V12Z" fill="white"/>
<path d="M22 12H24V14H22V12Z" fill="white"/>
<path d="M26 12H28V14H26V12Z" fill="white"/>
<path d="M14 14H16V16H14V14Z" fill="white"/>
<path d="M6 16H8V18H6V16Z" fill="white"/>
<path d="M8 16H10V18H8V16Z" fill="#1A1A1A"/>
<path d="M16 16H18V18H16V16Z" fill="white"/>
<path d="M28 16H30V20H28V24H24V20H26V18H28V16Z" fill="white"/>
<path d="M30 16H32V30H30V28H28V26H26V28H28V30H30V32H18V30H22V28H24V24H28V20H30V16Z" fill="#1A1A1A"/>
<path d="M4 18H6V20H4V18Z" fill="white"/>
<path d="M6 18H8V20H6V18Z" fill="#1A1A1A"/>
<path d="M8 18H10V20H8V18Z" fill="white"/>
<path d="M10 18H12V20H10V18Z" fill="#1A1A1A"/>
<path d="M18 18H20V20H18V18Z" fill="white"/>
<path d="M2 20H4V22H2V20Z" fill="white"/>
<path d="M4 20H6V28H8V30H10V32H0V24H2V22H4V20Z" fill="#1A1A1A"/>
<path d="M6 20H8V26H10V20H12V28H18V26H20V24H24V28H22V30H18V32H10V30H8V28H6V20Z" fill="white"/>
<path d="M8 20H10V26H8V20Z" fill="#1A1A1A"/>
<path d="M20 20H22V22H20V20Z" fill="white"/>
<path d="M0 22H2V24H0V22Z" fill="white"/>
<path d="M26 26H28V28H26V26Z" fill="white"/>
<path d="M28 28H30V30H28V28Z" fill="white"/>
<path d="M30 30H32V32H30V30Z" fill="white"/>
</svg>
