<svg width="32" height="32" viewBox="0 0 32 32" fill="none" xmlns="http://www.w3.org/2000/svg">
<path d="M0 0H12V2H10V12H12V14H4V16H2V20H4V28H6V30H8V32H0V0Z" fill="#1A1A1A"/>
<path d="M12 0H16V2H12V0Z" fill="white"/>
<path d="M16 0H20V2H16V0Z" fill="#1A1A1A"/>
<path d="M20 0H30V2H28V4H24V2H20V0Z" fill="white"/>
<path d="M30 0H32V32H16V30H18V28H20V20H18V8H16V4H20V2H24V4H28V2H30V0Z" fill="#1A1A1A"/>
<path d="M10 2H12V12H10V2Z" fill="white"/>
<path d="M12 2H16V4H14V8H16V20H18V28H16V30H8V28H6V22H10V20H12V26H14V12H12V2Z" fill="#1A1A1A"/>
<path d="M16 2H20V4H16V2Z" fill="white"/>
<path d="M14 4H16V8H14V4Z" fill="white"/>
<path d="M16 8H18V20H16V8Z" fill="white"/>
<path d="M12 12H14V26H12V20H10V18H12V16H4V14H12V12Z" fill="white"/>
<path d="M2 16H4V18H6V20H10V22H6V28H4V20H2V16Z" fill="white"/>
<path d="M4 16H12V18H10V20H6V18H4V16Z" fill="#1A1A1A"/>
<path d="M18 20H20V28H18V20Z" fill="white"/>
<path d="M6 28H8V30H6V28Z" fill="white"/>
<path d="M16 28H18V30H16V28Z" fill="white"/>
<path d="M8 30H16V32H8V30Z" fill="white"/>
</svg>
