<svg width="32" height="32" viewBox="0 0 32 32" fill="none" xmlns="http://www.w3.org/2000/svg">
<path d="M0 0H16V2H14V4H12V6H10V12H8V14H6V16H4V32H0V0Z" fill="#1A1A1A"/>
<path d="M16 0H18V2H20V6H22V8H28V20H26V22H24V18H26V12H24V10H22V12H24V14H18V16H14V14H12V12H10V6H12V10H14V6H16V4H14V2H16V0Z" fill="white"/>
<path d="M18 0H32V32H8V30H12V28H16V26H20V24H24V22H26V20H28V8H22V6H20V2H18V0Z" fill="#1A1A1A"/>
<path d="M12 4H14V6H12V4Z" fill="white"/>
<path d="M14 4H16V6H14V4Z" fill="#1A1A1A"/>
<path d="M12 6H14V10H12V6Z" fill="#1A1A1A"/>
<path d="M22 10H24V12H22V10Z" fill="#1A1A1A"/>
<path d="M8 12H10V14H8V12Z" fill="white"/>
<path d="M10 12H12V14H14V16H10V18H6V16H8V14H10V12Z" fill="#1A1A1A"/>
<path d="M24 12H26V18H24V16H22V18H20V20H18V18H16V20H14V22H12V24H10V22H8V24H6V20H10V18H14V16H18V14H24V12Z" fill="#1A1A1A"/>
<path d="M6 14H8V16H6V14Z" fill="white"/>
<path d="M4 16H6V18H10V20H6V24H8V26H6V30H8V32H4V16Z" fill="white"/>
<path d="M10 16H14V18H10V16Z" fill="white"/>
<path d="M22 16H24V18H22V16Z" fill="white"/>
<path d="M16 18H18V20H16V18Z" fill="white"/>
<path d="M20 18H22V20H20V18Z" fill="white"/>
<path d="M22 18H24V22H20V20H22V18Z" fill="#1A1A1A"/>
<path d="M14 20H16V22H14V20Z" fill="white"/>
<path d="M16 20H18V22H16V20Z" fill="#1A1A1A"/>
<path d="M18 20H20V22H18V20Z" fill="white"/>
<path d="M8 22H10V24H8V22Z" fill="white"/>
<path d="M12 22H14V24H12V22Z" fill="white"/>
<path d="M14 22H16V26H12V24H14V22Z" fill="#1A1A1A"/>
<path d="M16 22H18V24H20V26H16V22Z" fill="white"/>
<path d="M18 22H20V24H18V22Z" fill="#1A1A1A"/>
<path d="M20 22H24V24H20V22Z" fill="white"/>
<path d="M8 24H10V26H8V24Z" fill="#1A1A1A"/>
<path d="M10 24H12V26H10V24Z" fill="white"/>
<path d="M6 26H8V30H6V26Z" fill="#1A1A1A"/>
<path d="M8 26H10V28H12V30H8V26Z" fill="white"/>
<path d="M10 26H12V28H10V26Z" fill="#1A1A1A"/>
<path d="M12 26H16V28H12V26Z" fill="white"/>
</svg>
