<?xml version="1.0" encoding="utf-8"?><!-- Uploaded to: SVG Repo, www.svgrepo.com, Generator: SVG Repo Mixer Tools -->
<svg fill="#000000" width="800px" height="800px" viewBox="0 0 24 24" xmlns="http://www.w3.org/2000/svg"><path d="M22,6.5v2a1,1,0,0,1-2,0v-1H17v9h2a1,1,0,0,1,0,2H13a1,1,0,0,1,0-2h2v-9H12v1a1,1,0,0,1-2,0v-2a1,1,0,0,1,1-1H21A1,1,0,0,1,22,6.5ZM7.293,5.707A1,1,0,0,0,8.707,4.293l-3-3a1,1,0,0,0-1.414,0l-3,3A1,1,0,0,0,2.707,5.707L4,4.414V19.586L2.707,18.293a1,1,0,0,0-1.414,1.414l3,3a1,1,0,0,0,1.414,0l3-3a1,1,0,0,0-1.414-1.414L6,19.586V4.414Z"/></svg>