<svg width="25" height="25" viewBox="0 0 25 25" fill="none" xmlns="http://www.w3.org/2000/svg">
<rect x="0.0649414" y="0.0649414" width="24" height="24" fill="white" fill-opacity="0.01"/>
<path d="M0.0649414 0.0649414H24.0649M0.0649414 0.0649414V24.0649M0.0649414 0.0649414L24.0649 24.0649M24.0649 0.0649414V24.0649M24.0649 0.0649414L0.0649414 24.0649M24.0649 24.0649H0.0649414" stroke="#DADEE4" stroke-width="0.13"/>
<circle cx="12.0649" cy="12.0649" r="10" stroke="#DADEE4" stroke-width="0.13"/>
<rect x="2.06494" y="4.06494" width="20" height="16" rx="1" stroke="#DADEE4" stroke-width="0.13"/>
<rect x="4.06494" y="2.06494" width="16" height="20" rx="1" stroke="#DADEE4" stroke-width="0.13"/>
<rect x="3.06494" y="3.06494" width="18" height="18" rx="1" stroke="#DADEE4" stroke-width="0.13"/>
<circle cx="12.0649" cy="12.0649" r="4" stroke="#DADEE4" stroke-width="0.13"/>
<path fill-rule="evenodd" clip-rule="evenodd" d="M10.0649 2.06494C9.51266 2.06494 9.06494 2.51266 9.06494 3.06494C9.06494 3.61723 9.51266 4.06494 10.0649 4.06494H14.0649C14.6172 4.06494 15.0649 3.61723 15.0649 3.06494C15.0649 2.51266 14.6172 2.06494 14.0649 2.06494H10.0649ZM6.06494 3.06494H7.06494V4.06494C7.06494 5.16951 7.96037 6.06494 9.06494 6.06494H15.0649C16.1695 6.06494 17.0649 5.16951 17.0649 4.06494V3.06494H18.0649C19.1695 3.06494 20.0649 3.96037 20.0649 5.06494V16.0649C20.0649 19.3787 17.3786 22.0649 14.0649 22.0649H6.06494C4.96037 22.0649 4.06494 21.1695 4.06494 20.0649V5.06494C4.06494 3.96037 4.96037 3.06494 6.06494 3.06494ZM8.06494 11.0649C8.06494 10.5127 8.51266 10.0649 9.06494 10.0649H15.0649C15.6172 10.0649 16.0649 10.5127 16.0649 11.0649C16.0649 11.6172 15.6172 12.0649 15.0649 12.0649H9.06494C8.51266 12.0649 8.06494 11.6172 8.06494 11.0649ZM9.06494 14.0649C8.51266 14.0649 8.06494 14.5127 8.06494 15.0649C8.06494 15.6172 8.51266 16.0649 9.06494 16.0649H12.0649C12.6172 16.0649 13.0649 15.6172 13.0649 15.0649C13.0649 14.5127 12.6172 14.0649 12.0649 14.0649H9.06494Z" fill="#09244B"/>
</svg>
