<svg width="25" height="25" viewBox="0 0 25 25" fill="none" xmlns="http://www.w3.org/2000/svg">
<rect x="0.0649414" y="0.0649414" width="24" height="24" fill="white" fill-opacity="0.01"/>
<path d="M0.0649414 0.0649414H24.0649M0.0649414 0.0649414V24.0649M0.0649414 0.0649414L24.0649 24.0649M24.0649 0.0649414V24.0649M24.0649 0.0649414L0.0649414 24.0649M24.0649 24.0649H0.0649414" stroke="#DADEE4" stroke-width="0.13"/>
<circle cx="12.0649" cy="12.0649" r="10" stroke="#DADEE4" stroke-width="0.13"/>
<rect x="2.06494" y="4.06494" width="20" height="16" rx="1" stroke="#DADEE4" stroke-width="0.13"/>
<rect x="4.06494" y="2.06494" width="16" height="20" rx="1" stroke="#DADEE4" stroke-width="0.13"/>
<rect x="3.06494" y="3.06494" width="18" height="18" rx="1" stroke="#DADEE4" stroke-width="0.13"/>
<circle cx="12.0649" cy="12.0649" r="4" stroke="#DADEE4" stroke-width="0.13"/>
<path d="M4.06494 4.06494C4.06494 2.96037 4.96037 2.06494 6.06494 2.06494H12.0649V8.56494C12.0649 9.39337 12.7365 10.0649 13.5649 10.0649H20.0649V15.8224L18.772 14.5294C18.3815 14.1389 17.7483 14.1389 17.3578 14.5294C16.9673 14.9199 16.9673 15.5531 17.3578 15.9436L18.4791 17.0649H14.0649C13.5127 17.0649 13.0649 17.5127 13.0649 18.0649C13.0649 18.6172 13.5127 19.0649 14.0649 19.0649H18.4791L17.3578 20.1863C16.9673 20.5768 16.9673 21.21 17.3578 21.6005C17.7483 21.991 18.3815 21.991 18.772 21.6005L20.0483 20.3242C19.9212 21.3063 19.0817 22.0649 18.0649 22.0649H6.06494C4.96037 22.0649 4.06494 21.1695 4.06494 20.0649V4.06494Z" fill="#09244B"/>
<path d="M14.0649 8.06494V2.1083C14.4409 2.18789 14.7891 2.37485 15.0649 2.65073L19.4792 7.06494C19.755 7.34082 19.942 7.689 20.0216 8.06494H14.0649Z" fill="#09244B"/>
<path d="M21.6005 18.772L20.065 20.3075L20.0649 15.8224L21.6005 17.3578C21.991 17.7484 21.991 18.3815 21.6005 18.772Z" fill="#09244B"/>
</svg>
