<svg width="24" height="24" viewBox="0 0 24 24" fill="none" xmlns="http://www.w3.org/2000/svg">
<path opacity="0.4" d="M7.49943 11.9999C7.49943 8.73375 13.7392 4.87877 14.9902 4.14C15.2299 3.99791 15.5043 3.96764 15.7533 4.03307C15.9989 4.09752 16.2201 4.25523 16.3593 4.49107C16.6425 4.96373 16.4823 5.57896 16.0082 5.85973C13.3832 7.41295 9.49943 10.4379 9.49943 11.9999L7.49943 11.9999Z" fill="black"/>
<path d="M9.50037 12C9.50037 12 9.50037 11.9999 9.50037 12C9.50037 13.56 13.3844 16.585 16.0094 18.14C16.4834 18.42 16.6434 19.033 16.3604 19.509C16.0794 19.984 15.4664 20.142 14.9914 19.86C13.7404 19.121 7.50037 15.266 7.50037 12C7.50037 12 7.50037 11.9999 7.50037 12L9.50037 12Z" fill="black"/>
</svg>
