<svg width="24" height="24" viewBox="0 0 24 24" fill="none" xmlns="http://www.w3.org/2000/svg">
<path opacity="0.4" fill-rule="evenodd" clip-rule="evenodd" d="M17.6196 6.00301C17.4506 5.95001 17.2046 5.83901 16.9976 5.61201C16.9116 5.51801 16.7956 5.28301 16.6836 5.05701C16.3816 4.44601 15.9686 3.61001 15.1376 3.26001C14.0696 2.81201 9.96958 2.81001 8.86658 3.25801C8.04658 3.59501 7.62858 4.43501 7.32358 5.04801C7.20858 5.27801 7.09058 5.51601 7.00258 5.61201C6.79658 5.84001 6.55058 5.95001 6.39758 5.99901C3.10058 6.91101 2.49658 9.05401 2.49658 12.944C2.49658 18.568 3.86858 21.077 12.0006 21.077C20.1316 21.077 21.5036 18.568 21.5036 12.944C21.5036 9.05401 20.9006 6.91101 17.6196 6.00301Z" fill="black"/>
<path d="M16.1675 9.37711C16.1675 9.79111 16.5075 10.1271 16.9215 10.1271C17.3355 10.1271 17.6715 9.79111 17.6715 9.37711C17.6715 8.96311 17.3355 8.62711 16.9215 8.62711H16.9125C16.4985 8.62711 16.1675 8.96311 16.1675 9.37711Z" fill="black"/>
<path fill-rule="evenodd" clip-rule="evenodd" d="M12.0005 16.7711C9.85247 16.7711 8.10547 15.0231 8.10547 12.8751C8.10547 10.7281 9.85247 8.98111 12.0005 8.98111C14.1485 8.98111 15.8955 10.7281 15.8955 12.8751C15.8955 15.0231 14.1485 16.7711 12.0005 16.7711ZM9.6056 12.8756C9.6056 11.5546 10.6796 10.4806 12.0006 10.4806C13.3216 10.4806 14.3956 11.5546 14.3956 12.8756C14.3956 14.1966 13.3216 15.2706 12.0006 15.2706C10.6796 15.2706 9.6056 14.1966 9.6056 12.8756Z" fill="black"/>
</svg>
