<svg width="24" height="24" viewBox="0 0 24 24" fill="none" xmlns="http://www.w3.org/2000/svg">
<g opacity="0.4">
<path fill-rule="evenodd" clip-rule="evenodd" d="M10.4847 16.2444H4.01172C3.45972 16.2444 3.01172 16.6914 3.01172 17.2444C3.01172 17.7974 3.45972 18.2444 4.01172 18.2444H10.4847C11.0367 18.2444 11.4847 17.7974 11.4847 17.2444C11.4847 16.6914 11.0367 16.2444 10.4847 16.2444Z" fill="black"/>
<path fill-rule="evenodd" clip-rule="evenodd" d="M19.9886 5.75522H13.5176C12.9656 5.75522 12.5176 6.20222 12.5176 6.75522C12.5176 7.30822 12.9656 7.75522 13.5176 7.75522H19.9886C20.5406 7.75522 20.9886 7.30822 20.9886 6.75522C20.9886 6.20222 20.5406 5.75522 19.9886 5.75522Z" fill="black"/>
</g>
<path fill-rule="evenodd" clip-rule="evenodd" d="M17.2674 14.0235C14.9494 14.0235 14.0454 14.9265 14.0454 17.2455C14.0454 19.5645 14.9494 20.4675 17.2674 20.4675C19.5864 20.4675 20.4894 19.5645 20.4894 17.2455C20.4894 14.9265 19.5864 14.0235 17.2674 14.0235Z" fill="black"/>
<path fill-rule="evenodd" clip-rule="evenodd" d="M6.73372 9.97656C9.05272 9.97656 9.95572 9.07356 9.95572 6.75356C9.95572 4.43556 9.05272 3.53256 6.73372 3.53256C4.41472 3.53256 3.51172 4.43556 3.51172 6.75356C3.51172 9.07356 4.41472 9.97656 6.73372 9.97656Z" fill="black"/>
</svg>
