<svg width="25" height="25" viewBox="0 0 25 25" fill="none" xmlns="http://www.w3.org/2000/svg">
<rect x="0.0650024" y="0.0649414" width="24" height="24" fill="white" fill-opacity="0.01"/>
<path d="M0.0650024 0.0649414H24.065M0.0650024 0.0649414V24.0649M0.0650024 0.0649414L24.065 24.0649M24.065 0.0649414V24.0649M24.065 0.0649414L0.0650024 24.0649M24.065 24.0649H0.0650024" stroke="#DADEE4" stroke-width="0.13"/>
<circle cx="12.065" cy="12.0649" r="10" stroke="#DADEE4" stroke-width="0.13"/>
<rect x="2.065" y="4.06494" width="20" height="16" rx="1" stroke="#DADEE4" stroke-width="0.13"/>
<rect x="4.065" y="2.06494" width="16" height="20" rx="1" stroke="#DADEE4" stroke-width="0.13"/>
<rect x="3.065" y="3.06494" width="18" height="18" rx="1" stroke="#DADEE4" stroke-width="0.13"/>
<circle cx="12.065" cy="12.0649" r="4" stroke="#DADEE4" stroke-width="0.13"/>
<path d="M10.065 11.5649C10.065 12.3934 9.39343 13.0649 8.565 13.0649C7.73658 13.0649 7.065 12.3934 7.065 11.5649C7.065 10.7365 7.73658 10.0649 8.565 10.0649C9.39343 10.0649 10.065 10.7365 10.065 11.5649Z" fill="#09244B"/>
<path d="M17.065 11.5649C17.065 12.3934 16.3934 13.0649 15.565 13.0649C14.7366 13.0649 14.065 12.3934 14.065 11.5649C14.065 10.7365 14.7366 10.0649 15.565 10.0649C16.3934 10.0649 17.065 10.7365 17.065 11.5649Z" fill="#09244B"/>
<path fill-rule="evenodd" clip-rule="evenodd" d="M5.065 3.06494C3.40815 3.06494 2.065 4.40809 2.065 6.06494V16.0649C2.065 17.7218 3.40815 19.0649 5.065 19.0649H8.76223L11.3716 20.8045C11.7915 21.0845 12.3385 21.0845 12.7584 20.8045L15.3678 19.0649H19.065C20.7219 19.0649 22.065 17.7218 22.065 16.0649V6.06494C22.065 4.40809 20.7219 3.06494 19.065 3.06494H5.065ZM4.065 6.06494C4.065 5.51266 4.51272 5.06494 5.065 5.06494H19.065C19.6173 5.06494 20.065 5.51266 20.065 6.06494V16.0649C20.065 16.6172 19.6173 17.0649 19.065 17.0649H15.3678C14.9729 17.0649 14.5869 17.1818 14.2584 17.4008L12.065 18.8631L9.87163 17.4008C9.54309 17.1818 9.15708 17.0649 8.76223 17.0649H5.065C4.51272 17.0649 4.065 16.6172 4.065 16.0649V6.06494Z" fill="#09244B"/>
</svg>
