<svg id="_1" height="512" viewBox="0 0 512 512" width="512" xmlns="http://www.w3.org/2000/svg" xmlns:xlink="http://www.w3.org/1999/xlink" data-name="1"><linearGradient id="linear-gradient" gradientTransform="matrix(-1 0 0 -1 772.942 740.414)" gradientUnits="userSpaceOnUse" x1="386.471" x2="386.471" y1="51.298" y2="471.054"><stop offset=".023" stop-color="#ff7bac"/><stop offset="1" stop-color="#574bbd"/></linearGradient><linearGradient id="linear-gradient-2" gradientTransform="matrix(-1 0 0 -1 838.203 805.675)" x1="419.102" x2="419.102" xlink:href="#linear-gradient" y1="51.298" y2="471.054"/><linearGradient id="linear-gradient-3" gradientTransform="matrix(-1 0 0 -1 903.464 609.892)" x1="451.732" x2="451.732" xlink:href="#linear-gradient" y1="51.298" y2="471.054"/><linearGradient id="linear-gradient-4" gradientTransform="matrix(-1 0 0 -1 838.203 675.153)" x1="419.102" x2="419.102" xlink:href="#linear-gradient" y1="51.298" y2="471.054"/><linearGradient id="linear-gradient-5" gradientTransform="matrix(-1 0 0 -1 903.464 544.631)" x1="451.732" x2="451.732" xlink:href="#linear-gradient" y1="51.298" y2="471.054"/><linearGradient id="linear-gradient-6" gradientTransform="matrix(-1 0 0 -1 120.536 544.631)" x1="60.268" x2="60.268" xlink:href="#linear-gradient" y1="51.298" y2="471.054"/><linearGradient id="linear-gradient-7" gradientTransform="matrix(-1 0 0 -1 838.203 479.369)" x1="419.102" x2="419.102" xlink:href="#linear-gradient" y1="51.298" y2="471.054"/><linearGradient id="linear-gradient-8" gradientTransform="matrix(-1 0 0 -1 707.681 414.108)" x1="353.84" x2="353.84" xlink:href="#linear-gradient" y1="51.298" y2="471.054"/><linearGradient id="linear-gradient-9" gradientTransform="matrix(-1 0 0 -1 773.057 414.108)" x1="386.529" x2="386.529" xlink:href="#linear-gradient" y1="51.298" y2="471.054"/><linearGradient id="linear-gradient-10" gradientTransform="matrix(-1 0 0 -1 446.431 218.325)" x1="223.216" x2="223.216" xlink:href="#linear-gradient" y1="51.298" y2="471.054"/><linearGradient id="linear-gradient-11" x1="255.846" x2="255.846" xlink:href="#linear-gradient" y1="51.298" y2="471.054"/><linearGradient id="linear-gradient-12" x1="288.579" x2="288.579" xlink:href="#linear-gradient" y1="51.298" y2="471.054"/><linearGradient id="linear-gradient-13" x1="223.216" x2="223.216" xlink:href="#linear-gradient" y1="51.298" y2="471.054"/><linearGradient id="linear-gradient-14" x1="190.585" x2="190.585" xlink:href="#linear-gradient" y1="51.298" y2="471.054"/><linearGradient id="linear-gradient-15" x1="157.955" x2="157.955" xlink:href="#linear-gradient" y1="51.298" y2="471.054"/><linearGradient id="linear-gradient-16" x1="353.84" x2="353.84" xlink:href="#linear-gradient" y1="51.298" y2="471.054"/><linearGradient id="linear-gradient-17" gradientTransform="matrix(-1 0 0 -1 707.681 348.847)" x1="353.84" x2="353.84" xlink:href="#linear-gradient" y1="51.298" y2="471.054"/><linearGradient id="linear-gradient-18" x1="321.21" x2="321.21" xlink:href="#linear-gradient" y1="51.298" y2="471.054"/><linearGradient id="linear-gradient-20" gradientTransform="matrix(-1 0 0 -1 250.705 740.414)" x1="125.353" x2="125.353" xlink:href="#linear-gradient" y1="51.298" y2="471.054"/><linearGradient id="linear-gradient-21" gradientTransform="matrix(-1 0 0 -1 185.387 675.153)" x1="92.693" x2="92.693" xlink:href="#linear-gradient" y1="51.298" y2="471.054"/><linearGradient id="linear-gradient-22" gradientTransform="matrix(-1 0 0 -1 120.536 609.892)" x1="60.268" x2="60.268" xlink:href="#linear-gradient" y1="51.298" y2="471.054"/><linearGradient id="linear-gradient-23" gradientTransform="matrix(-1 0 0 -1 185.387 479.369)" x1="92.693" x2="92.693" xlink:href="#linear-gradient" y1="51.298" y2="471.054"/><linearGradient id="linear-gradient-24" gradientTransform="matrix(-1 0 0 -1 446.431 479.369)" x1="223.216" x2="223.216" xlink:href="#linear-gradient" y1="51.298" y2="471.054"/><linearGradient id="linear-gradient-25" gradientTransform="matrix(-1 0 0 -1 250.648 414.108)" x1="125.324" x2="125.324" xlink:href="#linear-gradient" y1="51.298" y2="471.054"/><linearGradient id="linear-gradient-26" gradientTransform="matrix(-1 0 0 -1 315.966 348.847)" x1="157.983" x2="157.983" xlink:href="#linear-gradient" y1="51.298" y2="471.054"/><linearGradient id="linear-gradient-27" gradientTransform="matrix(-1 0 0 -1 381.17 414.108)" x1="190.585" x2="190.585" xlink:href="#linear-gradient" y1="51.298" y2="471.054"/><linearGradient id="linear-gradient-28" gradientTransform="matrix(-1 0 0 -1 250.705 283.586)" x1="125.353" x2="125.353" xlink:href="#linear-gradient" y1="51.298" y2="471.054"/><linearGradient id="linear-gradient-29" gradientTransform="matrix(-1 0 0 -1 511.664 479.369)" x1="255.832" x2="255.832" xlink:href="#linear-gradient" y1="51.298" y2="471.054"/><linearGradient id="linear-gradient-30" gradientTransform="matrix(-1 0 0 -1 511.664 544.631)" x1="255.832" x2="255.832" xlink:href="#linear-gradient" y1="51.298" y2="471.054"/><linearGradient id="linear-gradient-31" gradientTransform="matrix(-1 0 0 -1 577.159 544.631)" x1="288.579" x2="288.579" xlink:href="#linear-gradient" y1="51.298" y2="471.054"/><linearGradient id="linear-gradient-32" gradientTransform="matrix(-1 0 0 -1 577.159 609.892)" x1="288.579" x2="288.579" xlink:href="#linear-gradient" y1="51.298" y2="471.054"/><linearGradient id="linear-gradient-33" gradientTransform="matrix(-1 0 0 -1 642.42 609.892)" x1="321.21" x2="321.21" xlink:href="#linear-gradient" y1="51.298" y2="471.054"/><linearGradient id="linear-gradient-34" gradientTransform="matrix(-1 0 0 -1 707.681 675.153)" x1="353.84" x2="353.84" xlink:href="#linear-gradient" y1="51.298" y2="471.054"/><linearGradient id="linear-gradient-35" gradientTransform="matrix(-1 0 0 -1 642.42 675.153)" x1="321.21" x2="321.21" xlink:href="#linear-gradient" y1="51.298" y2="471.054"/><linearGradient id="linear-gradient-36" gradientTransform="matrix(-1 0 0 -1 381.199 348.847)" x1="190.599" x2="190.599" xlink:href="#linear-gradient" y1="51.298" y2="471.054"/><linearGradient id="linear-gradient-37" gradientTransform="matrix(-1 0 0 -1 446.403 414.108)" x1="223.201" x2="223.201" xlink:href="#linear-gradient" y1="51.298" y2="471.054"/><linearGradient id="linear-gradient-38" gradientTransform="matrix(-1 0 0 -1 315.938 283.586)" x1="157.969" x2="157.969" xlink:href="#linear-gradient" y1="51.298" y2="471.054"/><linearGradient id="linear-gradient-39" gradientTransform="matrix(-1 0 0 -1 185.416 218.325)" x1="92.708" x2="92.708" xlink:href="#linear-gradient" y1="51.298" y2="471.054"/><linearGradient id="linear-gradient-40" gradientTransform="matrix(-1 0 0 -1 511.692 218.325)" x1="255.846" x2="255.846" xlink:href="#linear-gradient" y1="51.298" y2="471.054"/><path d="m370.156 353.892h32.631v32.631h-32.631z" fill="url(#linear-gradient)" transform="matrix(-1 0 0 -1 772.942 740.414)"/><path d="m402.786 386.522h32.631v32.631h-32.631z" fill="url(#linear-gradient-2)" transform="matrix(-1 0 0 -1 838.203 805.675)"/><path d="m435.417 288.631h32.631v32.631h-32.631z" fill="url(#linear-gradient-3)" transform="matrix(-1 0 0 -1 903.464 609.892)"/><path d="m402.786 321.261h32.631v32.631h-32.631z" fill="url(#linear-gradient-4)" transform="matrix(-1 0 0 -1 838.203 675.153)"/><path d="m435.417 256h32.631v32.631h-32.631z" fill="url(#linear-gradient-5)" transform="matrix(-1 0 0 -1 903.464 544.631)"/><path d="m43.953 256h32.631v32.631h-32.631z" fill="url(#linear-gradient-6)" transform="matrix(-1 0 0 -1 120.536 544.631)"/><path d="m402.786 223.369h32.631v32.631h-32.631z" fill="url(#linear-gradient-7)" transform="matrix(-1 0 0 -1 838.203 479.369)"/><path d="m337.525 190.739h32.631v32.631h-32.631z" fill="url(#linear-gradient-8)" transform="matrix(-1 0 0 -1 707.681 414.108)"/><path d="m370.213 190.739h32.631v32.631h-32.631z" fill="url(#linear-gradient-9)" transform="matrix(-1 0 0 -1 773.057 414.108)"/><path d="m206.9 92.847h32.631v32.631h-32.631z" fill="url(#linear-gradient-10)" transform="matrix(-1 0 0 -1 446.431 218.325)"/><path d="m239.531 353.892h32.631v32.631h-32.631z" fill="url(#linear-gradient-11)"/><path d="m272.264 353.892h32.631v32.631h-32.631z" fill="url(#linear-gradient-12)"/><path d="m206.9 353.892h32.631v32.631h-32.631z" fill="url(#linear-gradient-13)"/><path d="m174.27 353.892h32.631v32.631h-32.631z" fill="url(#linear-gradient-14)"/><path d="m141.639 353.892h32.631v32.631h-32.631z" fill="url(#linear-gradient-15)"/><path d="m337.525 353.892h32.631v32.631h-32.631z" fill="url(#linear-gradient-16)"/><path d="m337.525 158.108h32.631v32.631h-32.631z" fill="url(#linear-gradient-17)" transform="matrix(-1 0 0 -1 707.681 348.847)"/><path d="m304.895 125.478h32.631v32.631h-32.631z" fill="url(#linear-gradient-18)"/><path d="m272.264 92.847h32.631v32.631h-32.631z" fill="url(#linear-gradient-12)"/><path d="m109.037 353.892h32.631v32.631h-32.631z" fill="url(#linear-gradient-20)" transform="matrix(-1 0 0 -1 250.705 740.414)"/><path d="m76.378 321.261h32.631v32.631h-32.631z" fill="url(#linear-gradient-21)" transform="matrix(-1 0 0 -1 185.387 675.153)"/><path d="m43.953 288.631h32.631v32.631h-32.631z" fill="url(#linear-gradient-22)" transform="matrix(-1 0 0 -1 120.536 609.892)"/><path d="m76.378 223.369h32.631v32.631h-32.631z" fill="url(#linear-gradient-23)" transform="matrix(-1 0 0 -1 185.387 479.369)"/><path d="m206.9 223.369h32.631v32.631h-32.631z" fill="url(#linear-gradient-24)" transform="matrix(-1 0 0 -1 446.431 479.369)"/><path d="m109.009 190.739h32.631v32.631h-32.631z" fill="url(#linear-gradient-25)" transform="matrix(-1 0 0 -1 250.648 414.108)"/><path d="m141.668 158.108h32.631v32.631h-32.631z" fill="url(#linear-gradient-26)" transform="matrix(-1 0 0 -1 315.966 348.847)"/><path d="m174.27 190.739h32.631v32.631h-32.631z" fill="url(#linear-gradient-27)" transform="matrix(-1 0 0 -1 381.17 414.108)"/><path d="m109.037 125.478h32.631v32.631h-32.631z" fill="url(#linear-gradient-28)" transform="matrix(-1 0 0 -1 250.705 283.586)"/><path d="m239.517 223.369h32.631v32.631h-32.631z" fill="url(#linear-gradient-29)" transform="matrix(-1 0 0 -1 511.664 479.369)"/><path d="m239.517 256h32.631v32.631h-32.631z" fill="url(#linear-gradient-30)" transform="matrix(-1 0 0 -1 511.664 544.631)"/><path d="m272.264 256h32.631v32.631h-32.631z" fill="url(#linear-gradient-31)" transform="matrix(-1 0 0 -1 577.159 544.631)"/><path d="m272.264 288.631h32.631v32.631h-32.631z" fill="url(#linear-gradient-32)" transform="matrix(-1 0 0 -1 577.159 609.892)"/><path d="m304.895 288.631h32.631v32.631h-32.631z" fill="url(#linear-gradient-33)" transform="matrix(-1 0 0 -1 642.42 609.892)"/><path d="m337.525 321.261h32.631v32.631h-32.631z" fill="url(#linear-gradient-34)" transform="matrix(-1 0 0 -1 707.681 675.153)"/><path d="m304.895 321.261h32.631v32.631h-32.631z" fill="url(#linear-gradient-35)" transform="matrix(-1 0 0 -1 642.42 675.153)"/><path d="m174.284 158.108h32.631v32.631h-32.631z" fill="url(#linear-gradient-36)" transform="matrix(-1 0 0 -1 381.199 348.847)"/><path d="m206.886 190.739h32.631v32.631h-32.631z" fill="url(#linear-gradient-37)" transform="matrix(-1 0 0 -1 446.403 414.108)"/><path d="m141.654 125.478h32.631v32.631h-32.631z" fill="url(#linear-gradient-38)" transform="matrix(-1 0 0 -1 315.938 283.586)"/><path d="m76.392 92.847h32.631v32.631h-32.631z" fill="url(#linear-gradient-39)" transform="matrix(-1 0 0 -1 185.416 218.325)"/><path d="m239.531 92.847h32.631v32.631h-32.631z" fill="url(#linear-gradient-40)" transform="matrix(-1 0 0 -1 511.692 218.325)"/></svg>