<svg id="_1" height="512" viewBox="0 0 512 512" width="512" xmlns="http://www.w3.org/2000/svg" xmlns:xlink="http://www.w3.org/1999/xlink" data-name="1"><linearGradient id="linear-gradient" gradientUnits="userSpaceOnUse" x1="125.478" x2="125.478" y1="51.298" y2="471.054"><stop offset=".023" stop-color="#ff7bac"/><stop offset="1" stop-color="#574bbd"/></linearGradient><linearGradient id="linear-gradient-2" x1="256" x2="256" xlink:href="#linear-gradient" y1="51.298" y2="471.054"/><linearGradient id="linear-gradient-3" x1="223.369" x2="223.369" xlink:href="#linear-gradient" y1="51.298" y2="471.054"/><linearGradient id="linear-gradient-4" x1="190.739" x2="190.739" xlink:href="#linear-gradient" y1="51.298" y2="471.054"/><linearGradient id="linear-gradient-5" x1="158.108" x2="158.108" xlink:href="#linear-gradient" y1="51.298" y2="471.054"/><linearGradient id="linear-gradient-6" x1="321.261" x2="321.261" xlink:href="#linear-gradient" y1="51.298" y2="471.054"/><linearGradient id="linear-gradient-7" x1="353.892" x2="353.892" xlink:href="#linear-gradient" y1="51.298" y2="471.054"/><linearGradient id="linear-gradient-8" x1="288.631" x2="288.631" xlink:href="#linear-gradient" y1="51.298" y2="471.054"/><linearGradient id="linear-gradient-17" x1="60.217" x2="60.217" xlink:href="#linear-gradient" y1="51.298" y2="471.054"/><linearGradient id="linear-gradient-18" x1="451.783" x2="451.783" xlink:href="#linear-gradient" y1="51.298" y2="471.054"/><linearGradient id="linear-gradient-19" x1="419.153" x2="419.153" xlink:href="#linear-gradient" y1="51.298" y2="471.054"/><linearGradient id="linear-gradient-20" x1="92.847" x2="92.847" xlink:href="#linear-gradient" y1="51.298" y2="471.054"/><linearGradient id="linear-gradient-21" x1="386.522" x2="386.522" xlink:href="#linear-gradient" y1="51.298" y2="471.054"/><linearGradient id="linear-gradient-22" gradientTransform="matrix(-1 0 0 -1 773.044 642.522)" x1="386.522" x2="386.522" xlink:href="#linear-gradient" y1="51.298" y2="471.054"/><linearGradient id="linear-gradient-23" gradientTransform="matrix(-1 0 0 -1 512 773.044)" x1="256" x2="256" xlink:href="#linear-gradient" y1="51.298" y2="471.054"/><linearGradient id="linear-gradient-24" gradientTransform="matrix(-1 0 0 -1 577.261 773.044)" x1="288.631" x2="288.631" xlink:href="#linear-gradient" y1="51.298" y2="471.054"/><linearGradient id="linear-gradient-25" gradientTransform="matrix(-1 0 0 -1 642.522 707.783)" x1="321.261" x2="321.261" xlink:href="#linear-gradient" y1="51.298" y2="471.054"/><linearGradient id="linear-gradient-26" gradientTransform="matrix(-1 0 0 -1 707.783 707.783)" x1="353.892" x2="353.892" xlink:href="#linear-gradient" y1="51.298" y2="471.054"/><linearGradient id="linear-gradient-27" gradientTransform="matrix(-1 0 0 -1 381.478 707.783)" x1="190.739" x2="190.739" xlink:href="#linear-gradient" y1="51.298" y2="471.054"/><linearGradient id="linear-gradient-28" gradientTransform="matrix(-1 0 0 -1 316.217 707.783)" x1="158.108" x2="158.108" xlink:href="#linear-gradient" y1="51.298" y2="471.054"/><linearGradient id="linear-gradient-29" gradientTransform="matrix(-1 0 0 -1 446.739 773.044)" x1="223.369" x2="223.369" xlink:href="#linear-gradient" y1="51.298" y2="471.054"/><linearGradient id="linear-gradient-30" gradientTransform="matrix(-1 0 0 -1 185.694 577.261)" x1="92.847" x2="92.847" xlink:href="#linear-gradient" y1="51.298" y2="471.054"/><linearGradient id="linear-gradient-31" gradientTransform="matrix(-1 0 0 -1 838.306 577.261)" x1="419.153" x2="419.153" xlink:href="#linear-gradient" y1="51.298" y2="471.054"/><linearGradient id="linear-gradient-32" gradientTransform="matrix(-1 0 0 -1 250.956 642.522)" x1="125.478" x2="125.478" xlink:href="#linear-gradient" y1="51.298" y2="471.054"/><path d="m109.162 174.424h32.631v32.631h-32.631z" fill="url(#linear-gradient)"/><path d="m239.685 109.162h32.631v32.631h-32.631z" fill="url(#linear-gradient-2)"/><path d="m207.054 109.162h32.631v32.631h-32.631z" fill="url(#linear-gradient-3)"/><path d="m174.424 141.793h32.631v32.631h-32.631z" fill="url(#linear-gradient-4)"/><path d="m141.793 141.793h32.631v32.631h-32.631z" fill="url(#linear-gradient-5)"/><path d="m304.946 141.793h32.631v32.631h-32.631z" fill="url(#linear-gradient-6)"/><path d="m337.576 141.793h32.631v32.631h-32.631z" fill="url(#linear-gradient-7)"/><path d="m272.315 109.162h32.631v32.631h-32.631z" fill="url(#linear-gradient-8)"/><path d="m239.685 174.424h32.631v32.631h-32.631z" fill="url(#linear-gradient-2)"/><path d="m207.054 207.054h32.631v32.631h-32.631z" fill="url(#linear-gradient-3)"/><path d="m272.315 207.054h32.631v32.631h-32.631z" fill="url(#linear-gradient-8)"/><path d="m174.424 239.685h32.631v32.631h-32.631z" fill="url(#linear-gradient-4)"/><path d="m304.946 239.685h32.631v32.631h-32.631z" fill="url(#linear-gradient-6)"/><path d="m239.685 304.946h32.631v32.631h-32.631z" fill="url(#linear-gradient-2)"/><path d="m207.054 272.315h32.631v32.631h-32.631z" fill="url(#linear-gradient-3)"/><path d="m272.315 272.315h32.631v32.631h-32.631z" fill="url(#linear-gradient-8)"/><path d="m43.901 239.685h32.631v32.631h-32.631z" fill="url(#linear-gradient-17)"/><path d="m435.468 239.685h32.631v32.631h-32.631z" fill="url(#linear-gradient-18)"/><path d="m402.838 207.054h32.631v32.631h-32.631z" fill="url(#linear-gradient-19)"/><path d="m76.532 207.054h32.631v32.631h-32.631z" fill="url(#linear-gradient-20)"/><path d="m370.207 174.424h32.631v32.631h-32.631z" fill="url(#linear-gradient-21)"/><path d="m370.207 304.946h32.631v32.631h-32.631z" fill="url(#linear-gradient-22)" transform="matrix(-1 0 0 -1 773.044 642.522)"/><path d="m239.685 370.207h32.631v32.631h-32.631z" fill="url(#linear-gradient-23)" transform="matrix(-1 0 0 -1 512 773.044)"/><path d="m272.315 370.207h32.631v32.631h-32.631z" fill="url(#linear-gradient-24)" transform="matrix(-1 0 0 -1 577.261 773.044)"/><path d="m304.946 337.576h32.631v32.631h-32.631z" fill="url(#linear-gradient-25)" transform="matrix(-1 0 0 -1 642.522 707.783)"/><path d="m337.576 337.576h32.631v32.631h-32.631z" fill="url(#linear-gradient-26)" transform="matrix(-1 0 0 -1 707.783 707.783)"/><path d="m174.424 337.576h32.631v32.631h-32.631z" fill="url(#linear-gradient-27)" transform="matrix(-1 0 0 -1 381.478 707.783)"/><path d="m141.793 337.576h32.631v32.631h-32.631z" fill="url(#linear-gradient-28)" transform="matrix(-1 0 0 -1 316.217 707.783)"/><path d="m207.054 370.207h32.631v32.631h-32.631z" fill="url(#linear-gradient-29)" transform="matrix(-1 0 0 -1 446.739 773.044)"/><path d="m76.532 272.315h32.631v32.631h-32.631z" fill="url(#linear-gradient-30)" transform="matrix(-1 0 0 -1 185.694 577.261)"/><path d="m402.838 272.315h32.631v32.631h-32.631z" fill="url(#linear-gradient-31)" transform="matrix(-1 0 0 -1 838.306 577.261)"/><path d="m109.162 304.946h32.631v32.631h-32.631z" fill="url(#linear-gradient-32)" transform="matrix(-1 0 0 -1 250.956 642.522)"/></svg>