<svg id="_1" height="512" viewBox="0 0 512 512" width="512" xmlns="http://www.w3.org/2000/svg" xmlns:xlink="http://www.w3.org/1999/xlink" data-name="1"><linearGradient id="linear-gradient" gradientUnits="userSpaceOnUse" x1="109.162" x2="109.162" y1="51.298" y2="471.054"><stop offset=".023" stop-color="#ff7bac"/><stop offset="1" stop-color="#574bbd"/></linearGradient><linearGradient id="linear-gradient-2" x1="239.685" x2="239.685" xlink:href="#linear-gradient" y1="51.298" y2="471.054"/><linearGradient id="linear-gradient-3" x1="207.054" x2="207.054" xlink:href="#linear-gradient" y1="51.298" y2="471.054"/><linearGradient id="linear-gradient-5" x1="402.838" x2="402.838" xlink:href="#linear-gradient" y1="51.298" y2="471.054"/><linearGradient id="linear-gradient-6" x1="370.207" x2="370.207" xlink:href="#linear-gradient" y1="51.298" y2="471.054"/><linearGradient id="linear-gradient-7" x1="337.576" x2="337.576" xlink:href="#linear-gradient" y1="51.298" y2="471.054"/><linearGradient id="linear-gradient-9" x1="435.468" x2="435.468" xlink:href="#linear-gradient" y1="51.298" y2="471.054"/><linearGradient id="linear-gradient-12" x1="304.946" x2="304.946" xlink:href="#linear-gradient" y1="51.298" y2="471.054"/><linearGradient id="linear-gradient-14" x1="174.424" x2="174.424" xlink:href="#linear-gradient" y1="51.298" y2="471.054"/><linearGradient id="linear-gradient-15" x1="141.793" x2="141.793" xlink:href="#linear-gradient" y1="51.298" y2="471.054"/><linearGradient id="linear-gradient-19" x1="76.532" x2="76.532" xlink:href="#linear-gradient" y1="51.298" y2="471.054"/><linearGradient id="linear-gradient-22" gradientTransform="matrix(-1 0 0 -1 544.631 577.261)" x1="272.315" x2="272.315" xlink:href="#linear-gradient" y1="51.298" y2="471.054"/><linearGradient id="linear-gradient-23" gradientTransform="matrix(-1 0 0 -1 544.631 250.956)" x1="272.315" x2="272.315" xlink:href="#linear-gradient" y1="51.298" y2="471.054"/><linearGradient id="linear-gradient-24" gradientTransform="matrix(-1 0 0 -1 609.892 381.478)" x1="304.946" x2="304.946" xlink:href="#linear-gradient" y1="51.298" y2="471.054"/><linearGradient id="linear-gradient-26" gradientTransform="matrix(-1 0 0 -1 609.892 316.217)" x1="304.946" x2="304.946" xlink:href="#linear-gradient" y1="51.298" y2="471.054"/><linearGradient id="linear-gradient-27" gradientTransform="matrix(-1 0 0 -1 609.892 446.739)" x1="304.946" x2="304.946" xlink:href="#linear-gradient" y1="51.298" y2="471.054"/><linearGradient id="linear-gradient-28" gradientTransform="matrix(-1 0 0 -1 609.892 512)" x1="304.946" x2="304.946" xlink:href="#linear-gradient" y1="51.298" y2="471.054"/><path d="m92.847 109.162h32.631v32.631h-32.631z" fill="url(#linear-gradient)"/><path d="m223.369 76.532h32.631v32.631h-32.631z" fill="url(#linear-gradient-2)"/><path d="m190.739 76.532h32.631v32.631h-32.631z" fill="url(#linear-gradient-3)"/><path d="m223.369 304.946h32.631v32.631h-32.631z" fill="url(#linear-gradient-2)"/><path d="m386.522 402.838h32.631v32.631h-32.631z" fill="url(#linear-gradient-5)"/><path d="m353.892 370.207h32.631v32.631h-32.631z" fill="url(#linear-gradient-6)"/><path d="m321.261 337.576h32.631v32.631h-32.631z" fill="url(#linear-gradient-7)"/><path d="m386.522 370.207h32.631v32.631h-32.631z" fill="url(#linear-gradient-5)"/><path d="m419.153 402.838h32.631v32.631h-32.631z" fill="url(#linear-gradient-9)"/><path d="m353.892 337.576h32.631v32.631h-32.631z" fill="url(#linear-gradient-6)"/><path d="m321.261 304.946h32.631v32.631h-32.631z" fill="url(#linear-gradient-7)"/><path d="m288.631 304.946h32.631v32.631h-32.631z" fill="url(#linear-gradient-12)"/><path d="m190.739 304.946h32.631v32.631h-32.631z" fill="url(#linear-gradient-3)"/><path d="m158.108 76.532h32.631v32.631h-32.631z" fill="url(#linear-gradient-14)"/><path d="m125.478 76.532h32.631v32.631h-32.631z" fill="url(#linear-gradient-15)"/><path d="m92.847 272.315h32.631v32.631h-32.631z" fill="url(#linear-gradient)"/><path d="m158.108 304.946h32.631v32.631h-32.631z" fill="url(#linear-gradient-14)"/><path d="m125.478 304.946h32.631v32.631h-32.631z" fill="url(#linear-gradient-15)"/><g fill="url(#linear-gradient-19)"><path d="m60.217 239.685h32.631v32.631h-32.631z"/><path d="m60.217 207.054h32.631v32.631h-32.631z"/><path d="m60.217 174.424h32.631v32.631h-32.631z"/></g><path d="m256 272.315h32.631v32.631h-32.631z" fill="url(#linear-gradient-22)" transform="matrix(-1 0 0 -1 544.631 577.261)"/><path d="m256 109.162h32.631v32.631h-32.631z" fill="url(#linear-gradient-23)" transform="matrix(-1 0 0 -1 544.631 250.956)"/><path d="m288.631 174.424h32.631v32.631h-32.631z" fill="url(#linear-gradient-24)" transform="matrix(-1 0 0 -1 609.892 381.478)"/><path d="m60.217 141.793h32.631v32.631h-32.631z" fill="url(#linear-gradient-19)"/><path d="m288.631 141.793h32.631v32.631h-32.631z" fill="url(#linear-gradient-26)" transform="matrix(-1 0 0 -1 609.892 316.217)"/><path d="m288.631 207.054h32.631v32.631h-32.631z" fill="url(#linear-gradient-27)" transform="matrix(-1 0 0 -1 609.892 446.739)"/><path d="m288.631 239.685h32.631v32.631h-32.631z" fill="url(#linear-gradient-28)" transform="matrix(-1 0 0 -1 609.892 512)"/></svg>