<svg id="_1" height="512" viewBox="0 0 512 512" width="512" xmlns="http://www.w3.org/2000/svg" xmlns:xlink="http://www.w3.org/1999/xlink" data-name="1"><linearGradient id="linear-gradient" gradientUnits="userSpaceOnUse" x1="158.108" x2="158.108" y1="67.723" y2="399.247"><stop offset=".023" stop-color="#ff7bac"/><stop offset="1" stop-color="#574bbd"/></linearGradient><linearGradient id="linear-gradient-2" x1="256" x2="256" xlink:href="#linear-gradient" y1="67.723" y2="399.247"/><linearGradient id="linear-gradient-3" x1="223.369" x2="223.369" xlink:href="#linear-gradient" y1="67.723" y2="399.247"/><linearGradient id="linear-gradient-4" x1="190.739" x2="190.739" xlink:href="#linear-gradient" y1="67.723" y2="399.247"/><linearGradient id="linear-gradient-7" x1="353.892" x2="353.892" xlink:href="#linear-gradient" y1="67.723" y2="399.247"/><linearGradient id="linear-gradient-8" x1="321.261" x2="321.261" xlink:href="#linear-gradient" y1="67.723" y2="399.247"/><linearGradient id="linear-gradient-10" x1="288.631" x2="288.631" xlink:href="#linear-gradient" y1="67.723" y2="399.247"/><path d="m141.793 207.054h32.631v32.631h-32.631z" fill="url(#linear-gradient)"/><path d="m239.685 304.946h32.631v32.631h-32.631z" fill="url(#linear-gradient-2)"/><path d="m207.054 337.576h32.631v32.631h-32.631z" fill="url(#linear-gradient-3)"/><path d="m174.424 370.207h32.631v32.631h-32.631z" fill="url(#linear-gradient-4)"/><path d="m141.793 402.838h32.631v32.631h-32.631z" fill="url(#linear-gradient)"/><path d="m141.793 370.207h32.631v32.631h-32.631z" fill="url(#linear-gradient)"/><path d="m337.576 370.207h32.631v32.631h-32.631z" fill="url(#linear-gradient-7)"/><path d="m304.946 370.207h32.631v32.631h-32.631z" fill="url(#linear-gradient-8)"/><path d="m337.576 402.838h32.631v32.631h-32.631z" fill="url(#linear-gradient-7)"/><path d="m272.315 337.576h32.631v32.631h-32.631z" fill="url(#linear-gradient-10)"/><path d="m141.793 174.424h32.631v32.631h-32.631z" fill="url(#linear-gradient)"/><path d="m337.576 174.424h32.631v32.631h-32.631z" fill="url(#linear-gradient-7)"/><path d="m337.576 141.793h32.631v32.631h-32.631z" fill="url(#linear-gradient-7)"/><path d="m337.576 109.162h32.631v32.631h-32.631z" fill="url(#linear-gradient-7)"/><g fill="url(#linear-gradient)"><path d="m141.793 141.793h32.631v32.631h-32.631z"/><path d="m141.793 109.162h32.631v32.631h-32.631z"/><path d="m141.793 337.576h32.631v32.631h-32.631z"/><path d="m141.793 304.946h32.631v32.631h-32.631z"/><path d="m141.793 272.315h32.631v32.631h-32.631z"/><path d="m141.793 239.685h32.631v32.631h-32.631z"/></g><path d="m337.576 337.576h32.631v32.631h-32.631z" fill="url(#linear-gradient-7)"/><path d="m337.576 304.946h32.631v32.631h-32.631z" fill="url(#linear-gradient-7)"/><path d="m337.576 272.315h32.631v32.631h-32.631z" fill="url(#linear-gradient-7)"/><path d="m337.576 239.685h32.631v32.631h-32.631z" fill="url(#linear-gradient-7)"/><path d="m207.054 76.532h32.631v32.631h-32.631z" fill="url(#linear-gradient-3)"/><path d="m174.424 76.532h32.631v32.631h-32.631z" fill="url(#linear-gradient-4)"/><path d="m141.793 76.532h32.631v32.631h-32.631z" fill="url(#linear-gradient)"/><path d="m337.576 76.532h32.631v32.631h-32.631z" fill="url(#linear-gradient-7)"/><path d="m239.685 76.532h32.631v32.631h-32.631z" fill="url(#linear-gradient-2)"/><path d="m272.315 76.532h32.631v32.631h-32.631z" fill="url(#linear-gradient-10)"/><path d="m304.946 76.532h32.631v32.631h-32.631z" fill="url(#linear-gradient-8)"/><path d="m337.576 207.054h32.631v32.631h-32.631z" fill="url(#linear-gradient-7)"/></svg>