<svg id="_1" height="512" viewBox="0 0 512 512" width="512" xmlns="http://www.w3.org/2000/svg" xmlns:xlink="http://www.w3.org/1999/xlink" data-name="1"><linearGradient id="linear-gradient" gradientTransform="matrix(-1 0 0 -1 577.26 512)" gradientUnits="userSpaceOnUse" x1="288.63" x2="288.63" y1="84.064" y2="403.643"><stop offset=".023" stop-color="#ff7bac"/><stop offset="1" stop-color="#574bbd"/></linearGradient><linearGradient id="linear-gradient-2" gradientTransform="matrix(-1 0 0 -1 773.046 512)" x1="386.523" x2="386.523" xlink:href="#linear-gradient" y1="84.064" y2="403.643"/><linearGradient id="linear-gradient-3" gradientTransform="matrix(-1 0 0 -1 707.785 577.261)" x1="353.892" x2="353.892" xlink:href="#linear-gradient" y1="84.064" y2="403.643"/><linearGradient id="linear-gradient-4" gradientTransform="matrix(-1 0 0 -1 707.785 642.522)" x1="353.892" x2="353.892" xlink:href="#linear-gradient" y1="84.064" y2="403.643"/><linearGradient id="linear-gradient-5" gradientTransform="matrix(-1 0 0 -1 707.785 446.739)" x1="353.892" x2="353.892" xlink:href="#linear-gradient" y1="84.064" y2="403.643"/><linearGradient id="linear-gradient-6" gradientTransform="matrix(-1 0 0 -1 707.785 381.478)" x1="353.892" x2="353.892" xlink:href="#linear-gradient" y1="84.064" y2="403.643"/><linearGradient id="linear-gradient-7" gradientTransform="matrix(-1 0 0 -1 577.26 577.261)" x1="288.63" x2="288.63" xlink:href="#linear-gradient" y1="84.064" y2="403.643"/><linearGradient id="linear-gradient-8" gradientTransform="matrix(-1 0 0 -1 577.26 642.522)" x1="288.63" x2="288.63" xlink:href="#linear-gradient" y1="84.064" y2="403.643"/><linearGradient id="linear-gradient-9" gradientTransform="matrix(-1 0 0 -1 577.26 707.783)" x1="288.63" x2="288.63" xlink:href="#linear-gradient" y1="84.064" y2="403.643"/><linearGradient id="linear-gradient-10" gradientTransform="matrix(-1 0 0 -1 577.26 446.739)" x1="288.63" x2="288.63" xlink:href="#linear-gradient" y1="84.064" y2="403.643"/><linearGradient id="linear-gradient-11" gradientTransform="matrix(-1 0 0 -1 577.26 381.478)" x1="288.63" x2="288.63" xlink:href="#linear-gradient" y1="84.064" y2="403.643"/><linearGradient id="linear-gradient-12" gradientTransform="matrix(-1 0 0 -1 577.26 316.217)" x1="288.63" x2="288.63" xlink:href="#linear-gradient" y1="84.064" y2="403.643"/><linearGradient id="linear-gradient-13" gradientTransform="matrix(-1 0 0 -1 316.215 446.739)" x1="158.108" x2="158.108" xlink:href="#linear-gradient" y1="84.064" y2="403.643"/><linearGradient id="linear-gradient-14" gradientTransform="matrix(-1 0 0 -1 381.476 446.739)" x1="190.738" x2="190.738" xlink:href="#linear-gradient" y1="84.064" y2="403.643"/><linearGradient id="linear-gradient-15" gradientTransform="matrix(-1 0 0 -1 446.737 381.478)" x1="223.369" x2="223.369" xlink:href="#linear-gradient" y1="84.064" y2="403.643"/><linearGradient id="linear-gradient-16" x1="255.999" x2="255.999" xlink:href="#linear-gradient" y1="84.064" y2="403.643"/><linearGradient id="linear-gradient-17" x1="223.369" x2="223.369" xlink:href="#linear-gradient" y1="84.064" y2="403.643"/><linearGradient id="linear-gradient-18" x1="190.738" x2="190.738" xlink:href="#linear-gradient" y1="84.064" y2="403.643"/><linearGradient id="linear-gradient-19" x1="158.108" x2="158.108" xlink:href="#linear-gradient" y1="84.064" y2="403.643"/><linearGradient id="linear-gradient-20" gradientTransform="matrix(-1 0 0 -1 250.954 446.739)" x1="125.477" x2="125.477" xlink:href="#linear-gradient" y1="84.064" y2="403.643"/><linearGradient id="linear-gradient-21" x1="125.477" x2="125.477" xlink:href="#linear-gradient" y1="84.064" y2="403.643"/><linearGradient id="linear-gradient-23" gradientTransform="matrix(-1 0 0 -1 511.999 316.217)" x1="255.999" x2="255.999" xlink:href="#linear-gradient" y1="84.064" y2="403.643"/><linearGradient id="linear-gradient-24" x1="288.631" x2="288.631" xlink:href="#linear-gradient" y1="84.064" y2="403.643"/><linearGradient id="linear-gradient-25" gradientTransform="matrix(-1 0 0 -1 577.263 250.956)" x1="288.631" x2="288.631" xlink:href="#linear-gradient" y1="84.064" y2="403.643"/><path d="m272.315 239.685h32.631v32.631h-32.631z" fill="url(#linear-gradient)" transform="matrix(-1 0 0 -1 577.26 512)"/><path d="m370.208 239.685h32.631v32.631h-32.631z" fill="url(#linear-gradient-2)" transform="matrix(-1 0 0 -1 773.046 512)"/><path d="m337.577 272.315h32.631v32.631h-32.631z" fill="url(#linear-gradient-3)" transform="matrix(-1 0 0 -1 707.785 577.261)"/><path d="m337.577 304.946h32.631v32.631h-32.631z" fill="url(#linear-gradient-4)" transform="matrix(-1 0 0 -1 707.785 642.522)"/><path d="m337.577 207.054h32.631v32.631h-32.631z" fill="url(#linear-gradient-5)" transform="matrix(-1 0 0 -1 707.785 446.739)"/><path d="m337.577 174.424h32.631v32.631h-32.631z" fill="url(#linear-gradient-6)" transform="matrix(-1 0 0 -1 707.785 381.478)"/><path d="m272.315 272.315h32.631v32.631h-32.631z" fill="url(#linear-gradient-7)" transform="matrix(-1 0 0 -1 577.26 577.261)"/><path d="m272.315 304.946h32.631v32.631h-32.631z" fill="url(#linear-gradient-8)" transform="matrix(-1 0 0 -1 577.26 642.522)"/><path d="m272.315 337.576h32.631v32.631h-32.631z" fill="url(#linear-gradient-9)" transform="matrix(-1 0 0 -1 577.26 707.783)"/><path d="m272.315 207.054h32.631v32.631h-32.631z" fill="url(#linear-gradient-10)" transform="matrix(-1 0 0 -1 577.26 446.739)"/><path d="m272.315 174.424h32.631v32.631h-32.631z" fill="url(#linear-gradient-11)" transform="matrix(-1 0 0 -1 577.26 381.478)"/><path d="m272.315 141.793h32.631v32.631h-32.631z" fill="url(#linear-gradient-12)" transform="matrix(-1 0 0 -1 577.26 316.217)"/><path d="m141.792 207.054h32.631v32.631h-32.631z" fill="url(#linear-gradient-13)" transform="matrix(-1 0 0 -1 316.215 446.739)"/><path d="m174.423 207.054h32.631v32.631h-32.631z" fill="url(#linear-gradient-14)" transform="matrix(-1 0 0 -1 381.476 446.739)"/><path d="m207.053 174.424h32.631v32.631h-32.631z" fill="url(#linear-gradient-15)" transform="matrix(-1 0 0 -1 446.737 381.478)"/><path d="m239.684 337.576h32.631v32.631h-32.631z" fill="url(#linear-gradient-16)"/><path d="m207.053 304.946h32.631v32.631h-32.631z" fill="url(#linear-gradient-17)"/><path d="m174.423 272.315h32.631v32.631h-32.631z" fill="url(#linear-gradient-18)"/><path d="m141.792 272.315h32.631v32.631h-32.631z" fill="url(#linear-gradient-19)"/><path d="m109.162 207.054h32.631v32.631h-32.631z" fill="url(#linear-gradient-20)" transform="matrix(-1 0 0 -1 250.954 446.739)"/><path d="m109.162 272.315h32.631v32.631h-32.631z" fill="url(#linear-gradient-21)"/><path d="m109.162 239.685h32.631v32.631h-32.631z" fill="url(#linear-gradient-21)"/><path d="m239.684 141.793h32.631v32.631h-32.631z" fill="url(#linear-gradient-23)" transform="matrix(-1 0 0 -1 511.999 316.217)"/><path d="m272.316 370.207h32.631v32.631h-32.631z" fill="url(#linear-gradient-24)"/><path d="m272.316 109.162h32.631v32.631h-32.631z" fill="url(#linear-gradient-25)" transform="matrix(-1 0 0 -1 577.263 250.956)"/></svg>