<svg id="_1" height="512" viewBox="0 0 512 512" width="512" xmlns="http://www.w3.org/2000/svg" xmlns:xlink="http://www.w3.org/1999/xlink" data-name="1"><linearGradient id="linear-gradient" gradientTransform="matrix(-1 0 0 -1 185.694 642.522)" gradientUnits="userSpaceOnUse" x1="92.847" x2="92.847" y1="62.702" y2="418.951"><stop offset=".023" stop-color="#ff7bac"/><stop offset="1" stop-color="#574bbd"/></linearGradient><linearGradient id="linear-gradient-2" gradientTransform="matrix(-1 0 0 -1 250.956 642.522)" x1="125.478" x2="125.478" xlink:href="#linear-gradient" y1="62.702" y2="418.951"/><linearGradient id="linear-gradient-3" gradientTransform="matrix(-1 0 0 -1 185.694 381.478)" x1="92.847" x2="92.847" xlink:href="#linear-gradient" y1="62.702" y2="418.951"/><linearGradient id="linear-gradient-4" gradientTransform="matrix(-1 0 0 -1 316.217 381.478)" x1="158.108" x2="158.108" xlink:href="#linear-gradient" y1="62.702" y2="418.951"/><linearGradient id="linear-gradient-5" gradientTransform="matrix(-1 0 0 -1 250.956 381.478)" x1="125.478" x2="125.478" xlink:href="#linear-gradient" y1="62.702" y2="418.951"/><linearGradient id="linear-gradient-6" gradientTransform="matrix(-1 0 0 -1 316.217 642.522)" x1="158.108" x2="158.108" xlink:href="#linear-gradient" y1="62.702" y2="418.951"/><linearGradient id="linear-gradient-7" gradientTransform="matrix(-1 0 0 -1 316.217 577.261)" x1="158.108" x2="158.108" xlink:href="#linear-gradient" y1="62.702" y2="418.951"/><linearGradient id="linear-gradient-8" gradientTransform="matrix(-1 0 0 -1 316.217 512)" x1="158.108" x2="158.108" xlink:href="#linear-gradient" y1="62.702" y2="418.951"/><linearGradient id="linear-gradient-9" gradientTransform="matrix(-1 0 0 -1 316.217 446.739)" x1="158.108" x2="158.108" xlink:href="#linear-gradient" y1="62.702" y2="418.951"/><linearGradient id="linear-gradient-10" gradientTransform="matrix(-1 0 0 -1 185.694 577.261)" x1="92.847" x2="92.847" xlink:href="#linear-gradient" y1="62.702" y2="418.951"/><linearGradient id="linear-gradient-11" gradientTransform="matrix(-1 0 0 -1 185.694 512)" x1="92.847" x2="92.847" xlink:href="#linear-gradient" y1="62.702" y2="418.951"/><linearGradient id="linear-gradient-12" gradientTransform="matrix(-1 0 0 -1 185.694 446.739)" x1="92.847" x2="92.847" xlink:href="#linear-gradient" y1="62.702" y2="418.951"/><linearGradient id="linear-gradient-13" gradientTransform="matrix(-1 0 0 -1 446.739 642.522)" x1="223.369" x2="223.369" xlink:href="#linear-gradient" y1="62.702" y2="418.951"/><linearGradient id="linear-gradient-14" gradientTransform="matrix(-1 0 0 -1 446.739 577.261)" x1="223.369" x2="223.369" xlink:href="#linear-gradient" y1="62.702" y2="418.951"/><linearGradient id="linear-gradient-15" gradientTransform="matrix(-1 0 0 -1 446.739 512)" x1="223.369" x2="223.369" xlink:href="#linear-gradient" y1="62.702" y2="418.951"/><linearGradient id="linear-gradient-16" gradientTransform="matrix(-1 0 0 -1 446.739 446.739)" x1="223.369" x2="223.369" xlink:href="#linear-gradient" y1="62.702" y2="418.951"/><linearGradient id="linear-gradient-17" gradientTransform="matrix(-1 0 0 -1 446.739 381.478)" x1="223.369" x2="223.369" xlink:href="#linear-gradient" y1="62.702" y2="418.951"/><linearGradient id="linear-gradient-18" gradientTransform="matrix(-1 0 0 -1 446.739 316.217)" x1="223.369" x2="223.369" xlink:href="#linear-gradient" y1="62.702" y2="418.951"/><linearGradient id="linear-gradient-19" gradientTransform="matrix(-1 0 0 -1 446.739 250.956)" x1="223.369" x2="223.369" xlink:href="#linear-gradient" y1="62.702" y2="418.951"/><linearGradient id="linear-gradient-20" gradientTransform="matrix(-1 0 0 -1 577.261 642.522)" x1="288.631" x2="288.631" xlink:href="#linear-gradient" y1="62.702" y2="418.951"/><linearGradient id="linear-gradient-21" gradientTransform="matrix(-1 0 0 -1 577.261 577.261)" x1="288.631" x2="288.631" xlink:href="#linear-gradient" y1="62.702" y2="418.951"/><linearGradient id="linear-gradient-22" gradientTransform="matrix(-1 0 0 -1 577.261 512)" x1="288.631" x2="288.631" xlink:href="#linear-gradient" y1="62.702" y2="418.951"/><linearGradient id="linear-gradient-23" gradientTransform="matrix(-1 0 0 -1 577.261 446.739)" x1="288.631" x2="288.631" xlink:href="#linear-gradient" y1="62.702" y2="418.951"/><linearGradient id="linear-gradient-24" gradientTransform="matrix(-1 0 0 -1 577.261 381.478)" x1="288.631" x2="288.631" xlink:href="#linear-gradient" y1="62.702" y2="418.951"/><linearGradient id="linear-gradient-25" gradientTransform="matrix(-1 0 0 -1 577.261 316.217)" x1="288.631" x2="288.631" xlink:href="#linear-gradient" y1="62.702" y2="418.951"/><linearGradient id="linear-gradient-26" gradientTransform="matrix(-1 0 0 -1 577.261 250.956)" x1="288.631" x2="288.631" xlink:href="#linear-gradient" y1="62.702" y2="418.951"/><linearGradient id="linear-gradient-27" gradientTransform="matrix(-1 0 0 -1 512 642.522)" x1="256" x2="256" xlink:href="#linear-gradient" y1="62.702" y2="418.951"/><linearGradient id="linear-gradient-28" gradientTransform="matrix(-1 0 0 -1 512 250.956)" x1="256" x2="256" xlink:href="#linear-gradient" y1="62.702" y2="418.951"/><linearGradient id="linear-gradient-29" x1="321.261" x2="321.261" xlink:href="#linear-gradient" y1="62.702" y2="418.951"/><linearGradient id="linear-gradient-30" x1="288.631" x2="288.631" xlink:href="#linear-gradient" y1="62.702" y2="418.951"/><linearGradient id="linear-gradient-31" x1="256" x2="256" xlink:href="#linear-gradient" y1="62.702" y2="418.951"/><linearGradient id="linear-gradient-32" x1="223.369" x2="223.369" xlink:href="#linear-gradient" y1="62.702" y2="418.951"/><linearGradient id="linear-gradient-33" x1="419.153" x2="419.153" xlink:href="#linear-gradient" y1="62.702" y2="418.951"/><linearGradient id="linear-gradient-34" x1="386.522" x2="386.522" xlink:href="#linear-gradient" y1="62.702" y2="418.951"/><linearGradient id="linear-gradient-35" x1="353.892" x2="353.892" xlink:href="#linear-gradient" y1="62.702" y2="418.951"/><linearGradient id="linear-gradient-36" x1="158.108" x2="158.108" xlink:href="#linear-gradient" y1="62.702" y2="418.951"/><linearGradient id="linear-gradient-37" x1="125.478" x2="125.478" xlink:href="#linear-gradient" y1="62.702" y2="418.951"/><linearGradient id="linear-gradient-38" x1="92.847" x2="92.847" xlink:href="#linear-gradient" y1="62.702" y2="418.951"/><linearGradient id="linear-gradient-39" x1="190.739" x2="190.739" xlink:href="#linear-gradient" y1="62.702" y2="418.951"/><path d="m76.532 304.946h32.631v32.631h-32.631z" fill="url(#linear-gradient)" transform="matrix(-1 0 0 -1 185.694 642.522)"/><path d="m109.162 304.946h32.631v32.631h-32.631z" fill="url(#linear-gradient-2)" transform="matrix(-1 0 0 -1 250.956 642.522)"/><path d="m76.532 174.424h32.631v32.631h-32.631z" fill="url(#linear-gradient-3)" transform="matrix(-1 0 0 -1 185.694 381.478)"/><path d="m141.793 174.424h32.631v32.631h-32.631z" fill="url(#linear-gradient-4)" transform="matrix(-1 0 0 -1 316.217 381.478)"/><path d="m109.162 174.424h32.631v32.631h-32.631z" fill="url(#linear-gradient-5)" transform="matrix(-1 0 0 -1 250.956 381.478)"/><path d="m141.793 304.946h32.631v32.631h-32.631z" fill="url(#linear-gradient-6)" transform="matrix(-1 0 0 -1 316.217 642.522)"/><path d="m141.793 272.315h32.631v32.631h-32.631z" fill="url(#linear-gradient-7)" transform="matrix(-1 0 0 -1 316.217 577.261)"/><path d="m141.793 239.685h32.631v32.631h-32.631z" fill="url(#linear-gradient-8)" transform="matrix(-1 0 0 -1 316.217 512)"/><path d="m141.793 207.054h32.631v32.631h-32.631z" fill="url(#linear-gradient-9)" transform="matrix(-1 0 0 -1 316.217 446.739)"/><path d="m76.532 272.315h32.631v32.631h-32.631z" fill="url(#linear-gradient-10)" transform="matrix(-1 0 0 -1 185.694 577.261)"/><path d="m76.532 239.685h32.631v32.631h-32.631z" fill="url(#linear-gradient-11)" transform="matrix(-1 0 0 -1 185.694 512)"/><path d="m76.532 207.054h32.631v32.631h-32.631z" fill="url(#linear-gradient-12)" transform="matrix(-1 0 0 -1 185.694 446.739)"/><path d="m207.054 304.946h32.631v32.631h-32.631z" fill="url(#linear-gradient-13)" transform="matrix(-1 0 0 -1 446.739 642.522)"/><path d="m207.054 272.315h32.631v32.631h-32.631z" fill="url(#linear-gradient-14)" transform="matrix(-1 0 0 -1 446.739 577.261)"/><path d="m207.054 239.685h32.631v32.631h-32.631z" fill="url(#linear-gradient-15)" transform="matrix(-1 0 0 -1 446.739 512)"/><path d="m207.054 207.054h32.631v32.631h-32.631z" fill="url(#linear-gradient-16)" transform="matrix(-1 0 0 -1 446.739 446.739)"/><path d="m207.054 174.424h32.631v32.631h-32.631z" fill="url(#linear-gradient-17)" transform="matrix(-1 0 0 -1 446.739 381.478)"/><path d="m207.054 141.793h32.631v32.631h-32.631z" fill="url(#linear-gradient-18)" transform="matrix(-1 0 0 -1 446.739 316.217)"/><path d="m207.054 109.162h32.631v32.631h-32.631z" fill="url(#linear-gradient-19)" transform="matrix(-1 0 0 -1 446.739 250.956)"/><path d="m272.315 304.946h32.631v32.631h-32.631z" fill="url(#linear-gradient-20)" transform="matrix(-1 0 0 -1 577.261 642.522)"/><path d="m272.315 272.315h32.631v32.631h-32.631z" fill="url(#linear-gradient-21)" transform="matrix(-1 0 0 -1 577.261 577.261)"/><path d="m272.315 239.685h32.631v32.631h-32.631z" fill="url(#linear-gradient-22)" transform="matrix(-1 0 0 -1 577.261 512)"/><path d="m272.315 207.054h32.631v32.631h-32.631z" fill="url(#linear-gradient-23)" transform="matrix(-1 0 0 -1 577.261 446.739)"/><path d="m272.315 174.424h32.631v32.631h-32.631z" fill="url(#linear-gradient-24)" transform="matrix(-1 0 0 -1 577.261 381.478)"/><path d="m272.315 141.793h32.631v32.631h-32.631z" fill="url(#linear-gradient-25)" transform="matrix(-1 0 0 -1 577.261 316.217)"/><path d="m272.315 109.162h32.631v32.631h-32.631z" fill="url(#linear-gradient-26)" transform="matrix(-1 0 0 -1 577.261 250.956)"/><path d="m239.685 304.946h32.631v32.631h-32.631z" fill="url(#linear-gradient-27)" transform="matrix(-1 0 0 -1 512 642.522)"/><path d="m239.685 109.162h32.631v32.631h-32.631z" fill="url(#linear-gradient-28)" transform="matrix(-1 0 0 -1 512 250.956)"/><path d="m304.946 370.207h32.631v32.631h-32.631z" fill="url(#linear-gradient-29)"/><path d="m272.315 370.207h32.631v32.631h-32.631z" fill="url(#linear-gradient-30)"/><path d="m239.685 370.207h32.631v32.631h-32.631z" fill="url(#linear-gradient-31)"/><path d="m207.054 370.207h32.631v32.631h-32.631z" fill="url(#linear-gradient-32)"/><path d="m402.838 370.207h32.631v32.631h-32.631z" fill="url(#linear-gradient-33)"/><path d="m370.207 370.207h32.631v32.631h-32.631z" fill="url(#linear-gradient-34)"/><path d="m337.576 370.207h32.631v32.631h-32.631z" fill="url(#linear-gradient-35)"/><path d="m141.793 370.207h32.631v32.631h-32.631z" fill="url(#linear-gradient-36)"/><path d="m109.162 370.207h32.631v32.631h-32.631z" fill="url(#linear-gradient-37)"/><path d="m76.532 370.207h32.631v32.631h-32.631z" fill="url(#linear-gradient-38)"/><path d="m174.424 370.207h32.631v32.631h-32.631z" fill="url(#linear-gradient-39)"/></svg>