<svg xmlns="http://www.w3.org/2000/svg" width="25" height="27" fill="none" viewBox="0 0 25 27">
  <g filter="url(#a)">
    <path fill="#fff" d="M13.5 14.5h-1v4h2v1h1v1h1v1h-10v-1h1v-1h1v-1h2v-4h-1v-1h4v1Zm-4-1h-1v-1h1v1Zm5 0h-1v-1h1v1Zm-6-1h-1v-1h1v1Zm7 0h-1v-1h1v1Zm1-9v1h2v1h-2v4h1v1h-1v1h-1v-7h-8v7h-1v-1h-1v-1h1v-4h-2v-1h2v-1h10Z"/>
    <path fill="#fff" d="M13.5 11.5h-1v-1h1v1Zm1-1h-1v-2h1v2Zm-9-1h-1v-1h1v1Zm13 0h-1v-1h1v1Zm-14-1h-1v-3h1v3Zm6-2h-1v2h-1v-3h2v1Zm9 2h-1v-3h1v3Z"/>
    <path stroke="#000" stroke-linecap="round" stroke-width="2" d="M17.5 2.5v1h2v1h1v5h-1v1h-1v1h-1v1h-1v1h-1v1h-1v1h-1v2h2v1h1v1h1v3h-12v-3h1v-1h1v-1h2v-2h-1v-1h-1v-1h-1v-1h-1v-1h-1v-1h-1v-1h-1v-5h1v-1h2v-1h12Zm-6 5h-1v2h-2v1h1v1h1v1h1v-3h1v-2h2v-2h-3v2Z"/>
  </g>
  <defs>
    <filter id="a" width="25" height="27" x="0" y="0" color-interpolation-filters="sRGB" filterUnits="userSpaceOnUse">
      <feFlood flood-opacity="0" result="BackgroundImageFix"/>
      <feColorMatrix in="SourceAlpha" result="hardAlpha" values="0 0 0 0 0 0 0 0 0 0 0 0 0 0 0 0 0 0 127 0"/>
      <feOffset dx="1" dy="1"/>
      <feGaussianBlur stdDeviation="1.25"/>
      <feComposite in2="hardAlpha" operator="out"/>
      <feColorMatrix values="0 0 0 0 0 0 0 0 0 0 0 0 0 0 0 0 0 0 0.24 0"/>
      <feBlend in2="BackgroundImageFix" result="effect1_dropShadow_1_4336"/>
      <feBlend in="SourceGraphic" in2="effect1_dropShadow_1_4336" result="shape"/>
    </filter>
  </defs>
</svg>
