<svg xmlns="http://www.w3.org/2000/svg" width="25" height="27" fill="none" viewBox="0 0 25 27">
  <g filter="url(#a)">
    <mask id="b" width="20" height="22" x="1.5" y="1.5" fill="#000" maskUnits="userSpaceOnUse">
      <path fill="#fff" d="M1.5 1.5h20v22h-20z"/>
      <path d="M12.5 13.5h-2v-2h2v2Z"/>
      <path fill-rule="evenodd" d="M15.5 4.5h-1v3h1v1h1v1h1v1h1v3h-1v2h-1v2h-1v1h-1v1h-1v1h1v1h-6v-1h1v-1h-1v-1h-1v-1h-1v-2h-1v-2h-1v-3h1v-1h1v-1h1v-1h1v-3h-1v-1h8v1Zm-5 12h2v-1h-2v1Zm-2-1h1v-1h-1v1Zm5 0h1v-1h-1v1Zm-3-4h-1v2h1v1h2v-1h1v-2h-1v-1h-2v1Zm-3 2h1v-2h-1v2Zm7 0h1v-2h-1v2Zm-6-3h1v-1h-1v1Zm5 0h1v-1h-1v1Zm-3-1h2v-1h-2v1Z" clip-rule="evenodd"/>
      <path d="M4.5 10.5h-1v-3h1v3Zm15 0h-1v-3h1v3Zm-13-2h-1v-1h1v1Zm11 0h-1v-1h1v1Zm-12-1h-1v-1h1v1Zm13 0h-1v-1h1v1Z"/>
    </mask>
    <path fill="#fff" d="M12.5 13.5h-2v-2h2v2Z"/>
    <path fill="#fff" fill-rule="evenodd" d="M15.5 4.5h-1v3h1v1h1v1h1v1h1v3h-1v2h-1v2h-1v1h-1v1h-1v1h1v1h-6v-1h1v-1h-1v-1h-1v-1h-1v-2h-1v-2h-1v-3h1v-1h1v-1h1v-1h1v-3h-1v-1h8v1Zm-5 12h2v-1h-2v1Zm-2-1h1v-1h-1v1Zm5 0h1v-1h-1v1Zm-3-4h-1v2h1v1h2v-1h1v-2h-1v-1h-2v1Zm-3 2h1v-2h-1v2Zm7 0h1v-2h-1v2Zm-6-3h1v-1h-1v1Zm5 0h1v-1h-1v1Zm-3-1h2v-1h-2v1Z" clip-rule="evenodd"/>
    <path fill="#fff" d="M4.5 10.5h-1v-3h1v3Zm15 0h-1v-3h1v3Zm-13-2h-1v-1h1v1Zm11 0h-1v-1h1v1Zm-12-1h-1v-1h1v1Zm13 0h-1v-1h1v1Z"/>
    <path fill="#000" d="M15.5 4.5v2h2v-2h-2Zm-1 0v-2h-2v2h2Zm0 3h-2v2h2v-2Zm1 0h2v-2h-2v2Zm0 1h-2v2h2v-2Zm1 1h-2v2h2v-2Zm1 0h2v-2h-2v2Zm0 1h-2v2h2v-2Zm1 3v2h2v-2h-2Zm-1 0v-2h-2v2h2Zm0 2v2h2v-2h-2Zm-1 0v-2h-2v2h2Zm0 2v2h2v-2h-2Zm-1 0v-2h-2v2h2Zm0 1v2h2v-2h-2Zm-1 0v-2h-2v2h2Zm0 1v2h2v-2h-2Zm-1 0v-2h-2v2h2Zm0 1h-2v2h2v-2Zm1 0h2v-2h-2v2Zm0 1v2h2v-2h-2Zm-6 0h-2v2h2v-2Zm0-1v-2h-2v2h2Zm1 0v2h2v-2h-2Zm0-1h2v-2h-2v2Zm-1 0h-2v2h2v-2Zm0-1h2v-2h-2v2Zm-1 0h-2v2h2v-2Zm0-1h2v-2h-2v2Zm-1 0h-2v2h2v-2Zm0-2h2v-2h-2v2Zm-1 0h-2v2h2v-2Zm0-2h2v-2h-2v2Zm-1 0h-2v2h2v-2Zm1-3v2h2v-2h-2Zm0-1v-2h-2v2h2Zm1 0v2h2v-2h-2Zm1-1v2h2v-2h-2Zm0-1v-2h-2v2h2Zm1 0v2h2v-2h-2Zm0-3h2v-2h-2v2Zm-1 0h-2v2h2v-2Zm0-1v-2h-2v2h2Zm8 0h2v-2h-2v2Zm-5 13h-2v2h2v-2Zm2 0v2h2v-2h-2Zm0-1h2v-2h-2v2Zm-2 0v-2h-2v2h2Zm-2 0h-2v2h2v-2Zm1 0v2h2v-2h-2Zm0-1h2v-2h-2v2Zm-1 0v-2h-2v2h2Zm5 1h-2v2h2v-2Zm1 0v2h2v-2h-2Zm0-1h2v-2h-2v2Zm-1 0v-2h-2v2h2Zm-4-3v-2h-2v2h2Zm0 2h-2v2h2v-2Zm1 1h-2v2h2v-2Zm2 0v2h2v-2h-2Zm1-1v2h2v-2h-2Zm0-2h2v-2h-2v2Zm-1-1h2v-2h-2v2Zm-2 0v-2h-2v2h2Zm-3 3h-2v2h2v-2Zm1 0v2h2v-2h-2Zm0-2h2v-2h-2v2Zm-1 0v-2h-2v2h2Zm7 2h-2v2h2v-2Zm1 0v2h2v-2h-2Zm0-2h2v-2h-2v2Zm-1 0v-2h-2v2h2Zm-11-1h-2v2h2v-2Zm0-3v-2h-2v2h2Zm5 3h-2v2h2v-2Zm1 0v2h2v-2h-2Zm0-1h2v-2h-2v2Zm-1 0v-2h-2v2h2Zm5 1h-2v2h2v-2Zm1 0v2h2v-2h-2Zm0-1h2v-2h-2v2Zm-1 0v-2h-2v2h2Zm6 1v2h2v-2h-2Zm0-3h2v-2h-2v2Zm-9 2h-2v2h2v-2Zm2 0v2h2v-2h-2Zm0-1h2v-2h-2v2Zm-2 0v-2h-2v2h2Zm-5 0h-2v2h2v-2Zm1-1h2v-2h-2v2Zm11 1v2h2v-2h-2Zm-1-1v-2h-2v2h2Zm-12-1v-2h-2v2h2Zm1 0h2v-2h-2v2Zm12 0v-2h-2v2h2Zm1 0h2v-2h-2v2Zm-3-2v-2h-1v4h1v-2Zm-1 0h-2v3h4v-3h-2Zm0 3v2h1v-4h-1v2Zm1 0h-2v1h4v-1h-2Zm0 1v2h1v-4h-1v2Zm1 0h-2v1h4v-1h-2Zm0 1v2h1v-4h-1v2Zm1 0h-2v1h4v-1h-2Zm0 1v2h1v-4h-1v2Zm1 0h-2v3h4v-3h-2Zm0 3v-2h-1v4h1v-2Zm-1 0h-2v2h4v-2h-2Zm0 2v-2h-1v4h1v-2Zm-1 0h-2v2h4v-2h-2Zm0 2v-2h-1v4h1v-2Zm-1 0h-2v1h4v-1h-2Zm0 1v-2h-1v4h1v-2Zm-1 0h-2v1h4v-1h-2Zm0 1v-2h-1v4h1v-2Zm-1 0h-2v1h4v-1h-2Zm0 1v2h1v-4h-1v2Zm1 0h-2v1h4v-1h-2Zm0 1v-2h-6v4h6v-2Zm-6 0h2v-1h-4v1h2Zm0-1v2h1v-4h-1v2Zm1 0h2v-1h-4v1h2Zm0-1v-2h-1v4h1v-2Zm-1 0h2v-1h-4v1h2Zm0-1v-2h-1v4h1v-2Zm-1 0h2v-1h-4v1h2Zm0-1v-2h-1v4h1v-2Zm-1 0h2v-2h-4v2h2Zm0-2v-2h-1v4h1v-2Zm-1 0h2v-2h-4v2h2Zm0-2v-2h-1v4h1v-2Zm-1 0h2v-3h-4v3h2Zm0-3v2h1v-4h-1v2Zm1 0h2v-1h-4v1h2Zm0-1v2h1v-4h-1v2Zm1 0h2v-1h-4v1h2Zm0-1v2h1v-4h-1v2Zm1 0h2v-1h-4v1h2Zm0-1v2h1v-4h-1v2Zm1 0h2v-3h-4v3h2Zm0-3v-2h-1v4h1v-2Zm-1 0h2v-1h-4v1h2Zm0-1v2h8v-4h-8v2Zm8 0h-2v1h4v-1h-2Zm-5 13v2h2v-4h-2v2Zm2 0h2v-1h-4v1h2Zm0-1v-2h-2v4h2v-2Zm-2 0h-2v1h4v-1h-2Zm-2 0v2h1v-4h-1v2Zm1 0h2v-1h-4v1h2Zm0-1v-2h-1v4h1v-2Zm-1 0h-2v1h4v-1h-2Zm5 1v2h1v-4h-1v2Zm1 0h2v-1h-4v1h2Zm0-1v-2h-1v4h1v-2Zm-1 0h-2v1h4v-1h-2Zm-3-3v-2h-1v4h1v-2Zm-1 0h-2v2h4v-2h-2Zm0 2v2h1v-4h-1v2Zm1 0h-2v1h4v-1h-2Zm0 1v2h2v-4h-2v2Zm2 0h2v-1h-4v1h2Zm0-1v2h1v-4h-1v2Zm1 0h2v-2h-4v2h2Zm0-2v-2h-1v4h1v-2Zm-1 0h2v-1h-4v1h2Zm0-1v-2h-2v4h2v-2Zm-2 0h-2v1h4v-1h-2Zm-3 3v2h1v-4h-1v2Zm1 0h2v-2h-4v2h2Zm0-2v-2h-1v4h1v-2Zm-1 0h-2v2h4v-2h-2Zm5 2v-2h-2v4h2v-2Zm-2 0h2v-2h-4v2h2Zm0-2v2h2v-4h-2v2Zm2 0h-2v2h4v-2h-2Zm2 2v2h1v-4h-1v2Zm1 0h2v-2h-4v2h2Zm0-2v-2h-1v4h1v-2Zm-1 0h-2v2h4v-2h-2Zm-10-1v-2h-1v4h1v-2Zm-1 0h2v-3h-4v3h2Zm0-3v2h1v-4h-1v2Zm1 0h-2v3h4v-3h-2Zm4 3v2h1v-4h-1v2Zm1 0h2v-1h-4v1h2Zm0-1v-2h-1v4h1v-2Zm-1 0h-2v1h4v-1h-2Zm5 1v2h1v-4h-1v2Zm1 0h2v-1h-4v1h2Zm0-1v-2h-1v4h1v-2Zm-1 0h-2v1h4v-1h-2Zm6 1v-2h-1v4h1v-2Zm-1 0h2v-3h-4v3h2Zm0-3v2h1v-4h-1v2Zm1 0h-2v3h4v-3h-2Zm-9 2v2h2v-4h-2v2Zm2 0h2v-1h-4v1h2Zm0-1v-2h-2v4h2v-2Zm-2 0h-2v1h4v-1h-2Zm-4 0v-2h-1v4h1v-2Zm-1 0h2v-1h-4v1h2Zm0-1v2h1v-4h-1v2Zm1 0h-2v1h4v-1h-2Zm11 1v-2h-1v4h1v-2Zm-1 0h2v-1h-4v1h2Zm0-1v2h1v-4h-1v2Zm1 0h-2v1h4v-1h-2Zm-12 0v-2h-1v4h1v-2Zm-1 0h2v-1h-4v1h2Zm0-1v2h1v-4h-1v2Zm1 0h-2v1h4v-1h-2Zm13 1v-2h-1v4h1v-2Zm-1 0h2v-1h-4v1h2Zm0-1v2h1v-4h-1v2Zm1 0h-2v1h4v-1h-2Z" mask="url(#b)"/>
  </g>
  <defs>
    <filter id="a" width="25" height="27" x="0" y="0" color-interpolation-filters="sRGB" filterUnits="userSpaceOnUse">
      <feFlood flood-opacity="0" result="BackgroundImageFix"/>
      <feColorMatrix in="SourceAlpha" result="hardAlpha" values="0 0 0 0 0 0 0 0 0 0 0 0 0 0 0 0 0 0 127 0"/>
      <feOffset dx="1" dy="1"/>
      <feGaussianBlur stdDeviation="1.25"/>
      <feComposite in2="hardAlpha" operator="out"/>
      <feColorMatrix values="0 0 0 0 0 0 0 0 0 0 0 0 0 0 0 0 0 0 0.24 0"/>
      <feBlend in2="BackgroundImageFix" result="effect1_dropShadow_1_4332"/>
      <feBlend in="SourceGraphic" in2="effect1_dropShadow_1_4332" result="shape"/>
    </filter>
  </defs>
</svg>
