<svg xmlns="http://www.w3.org/2000/svg" width="26" height="27" fill="none" viewBox="0 0 26 27">
  <g filter="url(#a)">
    <mask id="b" width="21" height="22" x="1.5" y="1.5" fill="#000" maskUnits="userSpaceOnUse">
      <path fill="#fff" d="M1.5 1.5h21v22h-21z"/>
      <path d="M5.5 21.5h-1v-1h-1v-1h2v2Zm15-1h-1v1h-1v-2h2v1Zm-12-3h1v1h1v-1h1v1h1v-1h1v1h1v-1h1v-1h1v3h-1v1h-7v-1h-1v-3h1v1Zm-2 2h-1v-1h1v1Zm12 0h-1v-1h1v1Zm-12-2h-1v-1h1v1Zm12 0h-1v-1h1v1Zm-13-1h-2v-1h1v-1h1v2Z"/>
      <path fill-rule="evenodd" d="M14.5 4.5h2v1h1v1h1v6h-1v1h-1v1h-1v1h-1v1h-1v-1h-1v1h-1v-1h-1v1h-1v-1h-1v-1h-1v-1h-1v-1h-1v-6h1v-1h1v-1h2v-1h5v1Zm-4 9h1v1h1v-1h1v-1h-3v1Zm-2-5h-1v3h1v1h1v-2h1v-1h1v-1h-1v-1h-2v1Zm5 0h-1v1h1v1h1v2h1v-1h1v-3h-1v-1h-2v1Z" clip-rule="evenodd"/>
      <path d="M19.5 15.5h1v1h-2v-2h1v1Z"/>
    </mask>
    <path fill="#fff" d="M5.5 21.5h-1v-1h-1v-1h2v2Zm15-1h-1v1h-1v-2h2v1Zm-12-3h1v1h1v-1h1v1h1v-1h1v1h1v-1h1v-1h1v3h-1v1h-7v-1h-1v-3h1v1Zm-2 2h-1v-1h1v1Zm12 0h-1v-1h1v1Zm-12-2h-1v-1h1v1Zm12 0h-1v-1h1v1Zm-13-1h-2v-1h1v-1h1v2Z"/>
    <path fill="#fff" fill-rule="evenodd" d="M14.5 4.5h2v1h1v1h1v6h-1v1h-1v1h-1v1h-1v1h-1v-1h-1v1h-1v-1h-1v1h-1v-1h-1v-1h-1v-1h-1v-1h-1v-6h1v-1h1v-1h2v-1h5v1Zm-4 9h1v1h1v-1h1v-1h-3v1Zm-2-5h-1v3h1v1h1v-2h1v-1h1v-1h-1v-1h-2v1Zm5 0h-1v1h1v1h1v2h1v-1h1v-3h-1v-1h-2v1Z" clip-rule="evenodd"/>
    <path fill="#fff" d="M19.5 15.5h1v1h-2v-2h1v1Z"/>
    <path fill="#000" d="M5.5 21.5v2h2v-2h-2Zm-1 0h-2v2h2v-2Zm0-1h2v-2h-2v2Zm-1 0h-2v2h2v-2Zm0-1v-2h-2v2h2Zm17 1v2h2v-2h-2Zm-1 0v-2h-2v2h2Zm0 1v2h2v-2h-2Zm-1 0h-2v2h2v-2Zm2-2h2v-2h-2v2Zm-12-2h-2v2h2v-2Zm1 0h2v-2h-2v2Zm0 1h-2v2h2v-2Zm1 0v2h2v-2h-2Zm0-1v-2h-2v2h2Zm1 0h2v-2h-2v2Zm0 1h-2v2h2v-2Zm1 0v2h2v-2h-2Zm0-1v-2h-2v2h2Zm1 0h2v-2h-2v2Zm0 1h-2v2h2v-2Zm1 0v2h2v-2h-2Zm0-1v-2h-2v2h2Zm1 0v2h2v-2h-2Zm0-1v-2h-2v2h2Zm1 0h2v-2h-2v2Zm0 3v2h2v-2h-2Zm-1 0v-2h-2v2h2Zm0 1v2h2v-2h-2Zm-7 0h-2v2h2v-2Zm0-1h2v-2h-2v2Zm-1 0h-2v2h2v-2Zm0-3v-2h-2v2h2Zm1 0h2v-2h-2v2Zm-2 3v2h2v-2h-2Zm-1-1v-2h-2v2h2Zm1 0h2v-2h-2v2Zm11 1h-2v2h2v-2Zm0-1v-2h-2v2h2Zm1 0h2v-2h-2v2Zm-12-1v2h2v-2h-2Zm-1 0h-2v2h2v-2Zm1-1h2v-2h-2v2Zm12 1v2h2v-2h-2Zm-1 0h-2v2h2v-2Zm0-1v-2h-2v2h2Zm-14 0h-2v2h2v-2Zm0-1v-2h-2v2h2Zm1 0v2h2v-2h-2Zm0-1v-2h-2v2h2Zm1 0h2v-2h-2v2Zm9-10h-2v2h2v-2Zm2 0h2v-2h-2v2Zm0 1h-2v2h2v-2Zm1 0h2v-2h-2v2Zm0 1h-2v2h2v-2Zm1 0h2v-2h-2v2Zm0 6v2h2v-2h-2Zm-1 0v-2h-2v2h2Zm0 1v2h2v-2h-2Zm-1 0v-2h-2v2h2Zm0 1v2h2v-2h-2Zm-1 0v-2h-2v2h2Zm0 1v2h2v-2h-2Zm-1 0v-2h-2v2h2Zm0 1v2h2v-2h-2Zm-1 0h-2v2h2v-2Zm0-1h2v-2h-2v2Zm-1 0v-2h-2v2h2Zm0 1v2h2v-2h-2Zm-1 0h-2v2h2v-2Zm0-1h2v-2h-2v2Zm-1 0v-2h-2v2h2Zm0 1v2h2v-2h-2Zm-1 0h-2v2h2v-2Zm0-1h2v-2h-2v2Zm-1 0h-2v2h2v-2Zm0-1h2v-2h-2v2Zm-1 0h-2v2h2v-2Zm0-1h2v-2h-2v2Zm-1 0h-2v2h2v-2Zm0-1h2v-2h-2v2Zm-1 0h-2v2h2v-2Zm0-6v-2h-2v2h2Zm1 0v2h2v-2h-2Zm0-1v-2h-2v2h2Zm1 0v2h2v-2h-2Zm0-1v-2h-2v2h2Zm2 0v2h2v-2h-2Zm0-1v-2h-2v2h2Zm5 0h2v-2h-2v2Zm5 12h-2v2h2v-2Zm1 0h2v-2h-2v2Zm0 1v2h2v-2h-2Zm-2-2v-2h-2v2h2Zm1 0h2v-2h-2v2Zm-9-1h-2v2h2v-2Zm1 0h2v-2h-2v2Zm0 1h-2v2h2v-2Zm1 0v2h2v-2h-2Zm0-1v-2h-2v2h2Zm1 0v2h2v-2h-2Zm0-1h2v-2h-2v2Zm-3 0v-2h-2v2h2Zm-2-4v2h2v-2h-2Zm-1 0v-2h-2v2h2Zm0 3h-2v2h2v-2Zm1 0h2v-2h-2v2Zm0 1h-2v2h2v-2Zm1 0v2h2v-2h-2Zm0-2v-2h-2v2h2Zm1 0v2h2v-2h-2Zm0-1v-2h-2v2h2Zm1 0v2h2v-2h-2Zm0-1h2v-2h-2v2Zm-1 0h-2v2h2v-2Zm0-1h2v-2h-2v2Zm-2 0v-2h-2v2h2Zm5 1v2h2v-2h-2Zm-1 0v-2h-2v2h2Zm0 1h-2v2h2v-2Zm1 0h2v-2h-2v2Zm0 1h-2v2h2v-2Zm1 0h2v-2h-2v2Zm0 2h-2v2h2v-2Zm1 0v2h2v-2h-2Zm0-1v-2h-2v2h2Zm1 0v2h2v-2h-2Zm0-3h2v-2h-2v2Zm-1 0h-2v2h2v-2Zm0-1h2v-2h-2v2Zm-2 0v-2h-2v2h2Zm-8 14v-2h-1v4h1v-2Zm-1 0h2v-1h-4v1h2Zm0-1v-2h-1v4h1v-2Zm-1 0h2v-1h-4v1h2Zm0-1v2h2v-4h-2v2Zm2 0h-2v2h4v-2h-2Zm15 1v-2h-1v4h1v-2Zm-1 0h-2v1h4v-1h-2Zm0 1v-2h-1v4h1v-2Zm-1 0h2v-2h-4v2h2Zm0-2v2h2v-4h-2v2Zm2 0h-2v1h4v-1h-2Zm-12-2v2h1v-4h-1v2Zm1 0h-2v1h4v-1h-2Zm0 1v2h1v-4h-1v2Zm1 0h2v-1h-4v1h2Zm0-1v2h1v-4h-1v2Zm1 0h-2v1h4v-1h-2Zm0 1v2h1v-4h-1v2Zm1 0h2v-1h-4v1h2Zm0-1v2h1v-4h-1v2Zm1 0h-2v1h4v-1h-2Zm0 1v2h1v-4h-1v2Zm1 0h2v-1h-4v1h2Zm0-1v2h1v-4h-1v2Zm1 0h2v-1h-4v1h2Zm0-1v2h1v-4h-1v2Zm1 0h-2v3h4v-3h-2Zm0 3v-2h-1v4h1v-2Zm-1 0h-2v1h4v-1h-2Zm0 1v-2h-7v4h7v-2Zm-7 0h2v-1h-4v1h2Zm0-1v-2h-1v4h1v-2Zm-1 0h2v-3h-4v3h2Zm0-3v2h1v-4h-1v2Zm1 0h-2v1h4v-1h-2Zm-2 3v-2h-1v4h1v-2Zm-1 0h2v-1h-4v1h2Zm0-1v2h1v-4h-1v2Zm1 0h-2v1h4v-1h-2Zm12 1v-2h-1v4h1v-2Zm-1 0h2v-1h-4v1h2Zm0-1v2h1v-4h-1v2Zm1 0h-2v1h4v-1h-2Zm-12-1v-2h-1v4h1v-2Zm-1 0h2v-1h-4v1h2Zm0-1v2h1v-4h-1v2Zm1 0h-2v1h4v-1h-2Zm12 1v-2h-1v4h1v-2Zm-1 0h2v-1h-4v1h2Zm0-1v2h1v-4h-1v2Zm1 0h-2v1h4v-1h-2Zm-13 0v-2h-2v4h2v-2Zm-2 0h2v-1h-4v1h2Zm0-1v2h1v-4h-1v2Zm1 0h2v-1h-4v1h2Zm0-1v2h1v-4h-1v2Zm1 0h-2v2h4v-2h-2Zm9-10v2h2v-4h-2v2Zm2 0h-2v1h4v-1h-2Zm0 1v2h1v-4h-1v2Zm1 0h-2v1h4v-1h-2Zm0 1v2h1v-4h-1v2Zm1 0h-2v6h4v-6h-2Zm0 6v-2h-1v4h1v-2Zm-1 0h-2v1h4v-1h-2Zm0 1v-2h-1v4h1v-2Zm-1 0h-2v1h4v-1h-2Zm0 1v-2h-1v4h1v-2Zm-1 0h-2v1h4v-1h-2Zm0 1v-2h-1v4h1v-2Zm-1 0h-2v1h4v-1h-2Zm0 1v-2h-1v4h1v-2Zm-1 0h2v-1h-4v1h2Zm0-1v-2h-1v4h1v-2Zm-1 0h-2v1h4v-1h-2Zm0 1v-2h-1v4h1v-2Zm-1 0h2v-1h-4v1h2Zm0-1v-2h-1v4h1v-2Zm-1 0h-2v1h4v-1h-2Zm0 1v-2h-1v4h1v-2Zm-1 0h2v-1h-4v1h2Zm0-1v-2h-1v4h1v-2Zm-1 0h2v-1h-4v1h2Zm0-1v-2h-1v4h1v-2Zm-1 0h2v-1h-4v1h2Zm0-1v-2h-1v4h1v-2Zm-1 0h2v-1h-4v1h2Zm0-1v-2h-1v4h1v-2Zm-1 0h2v-6h-4v6h2Zm0-6v2h1v-4h-1v2Zm1 0h2v-1h-4v1h2Zm0-1v2h1v-4h-1v2Zm1 0h2v-1h-4v1h2Zm0-1v2h2v-4h-2v2Zm2 0h2v-1h-4v1h2Zm0-1v2h5v-4h-5v2Zm5 0h-2v1h4v-1h-2Zm5 12v2h1v-4h-1v2Zm1 0h-2v1h4v-1h-2Zm0 1v-2h-2v4h2v-2Zm-2 0h2v-2h-4v2h2Zm0-2v2h1v-4h-1v2Zm1 0h-2v1h4v-1h-2Zm-9-1v2h1v-4h-1v2Zm1 0h-2v1h4v-1h-2Zm0 1v2h1v-4h-1v2Zm1 0h2v-1h-4v1h2Zm0-1v2h1v-4h-1v2Zm1 0h2v-1h-4v1h2Zm0-1v-2h-3v4h3v-2Zm-3 0h-2v1h4v-1h-2Zm-2-4v-2h-1v4h1v-2Zm-1 0h-2v3h4v-3h-2Zm0 3v2h1v-4h-1v2Zm1 0h-2v1h4v-1h-2Zm0 1v2h1v-4h-1v2Zm1 0h2v-2h-4v2h2Zm0-2v2h1v-4h-1v2Zm1 0h2v-1h-4v1h2Zm0-1v2h1v-4h-1v2Zm1 0h2v-1h-4v1h2Zm0-1v-2h-1v4h1v-2Zm-1 0h2v-1h-4v1h2Zm0-1v-2h-2v4h2v-2Zm-2 0h-2v1h4v-1h-2Zm5 1v-2h-1v4h1v-2Zm-1 0h-2v1h4v-1h-2Zm0 1v2h1v-4h-1v2Zm1 0h-2v1h4v-1h-2Zm0 1v2h1v-4h-1v2Zm1 0h-2v2h4v-2h-2Zm0 2v2h1v-4h-1v2Zm1 0h2v-1h-4v1h2Zm0-1v2h1v-4h-1v2Zm1 0h2v-3h-4v3h2Zm0-3v-2h-1v4h1v-2Zm-1 0h2v-1h-4v1h2Zm0-1v-2h-2v4h2v-2Zm-2 0h-2v1h4v-1h-2Z" mask="url(#b)"/>
  </g>
  <defs>
    <filter id="a" width="26" height="27" x="0" y="0" color-interpolation-filters="sRGB" filterUnits="userSpaceOnUse">
      <feFlood flood-opacity="0" result="BackgroundImageFix"/>
      <feColorMatrix in="SourceAlpha" result="hardAlpha" values="0 0 0 0 0 0 0 0 0 0 0 0 0 0 0 0 0 0 127 0"/>
      <feOffset dx="1" dy="1"/>
      <feGaussianBlur stdDeviation="1.25"/>
      <feComposite in2="hardAlpha" operator="out"/>
      <feColorMatrix values="0 0 0 0 0 0 0 0 0 0 0 0 0 0 0 0 0 0 0.24 0"/>
      <feBlend in2="BackgroundImageFix" result="effect1_dropShadow_1_4358"/>
      <feBlend in="SourceGraphic" in2="effect1_dropShadow_1_4358" result="shape"/>
    </filter>
  </defs>
</svg>
