<svg xmlns="http://www.w3.org/2000/svg" width="26" height="29" fill="none" viewBox="0 0 26 29">
  <g filter="url(#a)">
    <mask id="b" width="21" height="24" x="1.5" y="1.5" fill="#000" maskUnits="userSpaceOnUse">
      <path fill="#fff" d="M1.5 1.5h21v24h-21z"/>
      <path d="M4.5 22.5h2v1h-3v-7h1v6Zm5 1h-1v-2h1v2Zm4-1h-1v1h-1v-1h-1v-1h3v1Zm2 1h-1v-2h1v2Zm5 0h-3v-1h2v-6h1v7Zm-13-1h-1v-1h1v1Zm10 0h-1v-1h1v1Zm-9-1h-1v-1h1v1Z"/>
      <path fill-rule="evenodd" d="M10.5 15.5h3v-1h1v1h1v5h-1v1h-1v-1h-3v1h-1v-1h-1v-5h1v-1h1v1Zm-1 4h5v-1h-5v1Zm0-2h5v-1h-5v1Z" clip-rule="evenodd"/>
      <path d="M16.5 21.5h-1v-1h1v1Zm-10-1h-1v-3h1v3Zm12 0h-1v-3h1v3Zm-11-3h-1v-1h1v1Zm10 0h-1v-1h1v1Zm-12-1h-1v-1h1v1Zm14 0h-1v-1h1v1Zm-13-1h-1v-1h1v1Zm12 0h-1v-1h1v1Zm-11-1h-1v-1h1v1Zm6-8h1v2h-1v1h-1v1h2v1h-1v1h-1v1h1v1h-3v-1h1v-1h-1v-1h-1v-1h2v-1h-1v-1h-1v-2h1v-1h3v1Zm4 8h-1v-1h1v1Zm-9-1h-1v-1h1v1Zm8 0h-1v-1h1v1Zm-7-1h-1v-1h1v1Zm6 0h-1v-1h1v1Zm-6-2h-1v-1h1v1Zm6 0h-1v-1h1v1Zm-7-1h-1v-1h1v1Zm8 0h-1v-1h1v1Zm-9-1h-1v-3h1v3Zm10 0h-1v-3h1v3Zm-7-3h-1v-2h1v2Zm4 0h-1v-2h1v2Z"/>
    </mask>
    <path fill="#fff" d="M4.5 22.5h2v1h-3v-7h1v6Zm5 1h-1v-2h1v2Zm4-1h-1v1h-1v-1h-1v-1h3v1Zm2 1h-1v-2h1v2Zm5 0h-3v-1h2v-6h1v7Zm-13-1h-1v-1h1v1Zm10 0h-1v-1h1v1Zm-9-1h-1v-1h1v1Z"/>
    <path fill="#fff" fill-rule="evenodd" d="M10.5 15.5h3v-1h1v1h1v5h-1v1h-1v-1h-3v1h-1v-1h-1v-5h1v-1h1v1Zm-1 4h5v-1h-5v1Zm0-2h5v-1h-5v1Z" clip-rule="evenodd"/>
    <path fill="#fff" d="M16.5 21.5h-1v-1h1v1Zm-10-1h-1v-3h1v3Zm12 0h-1v-3h1v3Zm-11-3h-1v-1h1v1Zm10 0h-1v-1h1v1Zm-12-1h-1v-1h1v1Zm14 0h-1v-1h1v1Zm-13-1h-1v-1h1v1Zm12 0h-1v-1h1v1Zm-11-1h-1v-1h1v1Zm6-8h1v2h-1v1h-1v1h2v1h-1v1h-1v1h1v1h-3v-1h1v-1h-1v-1h-1v-1h2v-1h-1v-1h-1v-2h1v-1h3v1Zm4 8h-1v-1h1v1Zm-9-1h-1v-1h1v1Zm8 0h-1v-1h1v1Zm-7-1h-1v-1h1v1Zm6 0h-1v-1h1v1Zm-6-2h-1v-1h1v1Zm6 0h-1v-1h1v1Zm-7-1h-1v-1h1v1Zm8 0h-1v-1h1v1Zm-9-1h-1v-3h1v3Zm10 0h-1v-3h1v3Zm-7-3h-1v-2h1v2Zm4 0h-1v-2h1v2Z"/>
    <path fill="#000" d="M4.5 22.5h-2v2h2v-2Zm2 1v2h2v-2h-2Zm-3 0h-2v2h2v-2Zm0-7v-2h-2v2h2Zm6 7v2h2v-2h-2Zm-1 0h-2v2h2v-2Zm5-1v2h2v-2h-2Zm-1 0v-2h-2v2h2Zm0 1v2h2v-2h-2Zm-1 0h-2v2h2v-2Zm0-1h2v-2h-2v2Zm-1 0h-2v2h2v-2Zm5 1v2h2v-2h-2Zm-1 0h-2v2h2v-2Zm6 0v2h2v-2h-2Zm-3 0h-2v2h2v-2Zm2-1v2h2v-2h-2Zm1-6h2v-2h-2v2Zm-13 6v2h2v-2h-2Zm-1-1v-2h-2v2h2Zm10 1h-2v2h2v-2Zm1-1h2v-2h-2v2Zm-10-1v-2h-2v2h2Zm3-5h-2v2h2v-2Zm3 0v2h2v-2h-2Zm1-1h2v-2h-2v2Zm0 1h-2v2h2v-2Zm1 0h2v-2h-2v2Zm-1 5v-2h-2v2h2Zm-1 0h2v-2h-2v2Zm-3 0v-2h-2v2h2Zm-1 0h2v-2h-2v2Zm-1-5v-2h-2v2h2Zm1 0v2h2v-2h-2Zm0-1v-2h-2v2h2Zm7 6h2v-2h-2v2Zm-10 0v2h2v-2h-2Zm-1 0h-2v2h2v-2Zm0-3v-2h-2v2h2Zm13 3v2h2v-2h-2Zm-1 0h-2v2h2v-2Zm1-3h2v-2h-2v2Zm-9 2h-2v2h2v-2Zm5 0v2h2v-2h-2Zm0-1h2v-2h-2v2Zm-5 0v-2h-2v2h2Zm-2-1v2h2v-2h-2Zm-1-1v-2h-2v2h2Zm1 0h2v-2h-2v2Zm2 1h-2v2h2v-2Zm5 0v2h2v-2h-2Zm0-1h2v-2h-2v2Zm-5 0v-2h-2v2h2Zm7 1h-2v2h2v-2Zm0-1v-2h-2v2h2Zm1 0h2v-2h-2v2Zm-12 0v2h2v-2h-2Zm-1-1v-2h-2v2h2Zm14 1h-2v2h2v-2Zm1-1h2v-2h-2v2Zm-13 0v2h2v-2h-2Zm-1-1v-2h-2v2h2Zm12 1h-2v2h2v-2Zm1-1h2v-2h-2v2Zm-11 0v2h2v-2h-2Zm-1-1v-2h-2v2h2Zm7-7h-2v2h2v-2Zm1 0h2v-2h-2v2Zm0 2v2h2v-2h-2Zm-1 0v-2h-2v2h2Zm0 1v2h2v-2h-2Zm-1 0v-2h-2v2h2Zm0 1h-2v2h2v-2Zm1 1v-2h-2v2h2Zm0 1v2h2v-2h-2Zm-1 0v-2h-2v2h2Zm0 1h-2v2h2v-2Zm1 0h2v-2h-2v2Zm-3 0v-2h-2v2h2Zm1 0v2h2v-2h-2Zm0-1h2v-2h-2v2Zm-1 0h-2v2h2v-2Zm0-1h2v-2h-2v2Zm1-1v2h2v-2h-2Zm0-1h2v-2h-2v2Zm-1 0h-2v2h2v-2Zm0-1h2v-2h-2v2Zm-1 0h-2v2h2v-2Zm0-2v-2h-2v2h2Zm1 0v2h2v-2h-2Zm6 8h-2v2h2v-2Zm1-1h2v-2h-2v2Zm-9 0v2h2v-2h-2Zm-1-1v-2h-2v2h2Zm8 1h-2v2h2v-2Zm1-1h2v-2h-2v2Zm-7 0v2h2v-2h-2Zm-1-1v-2h-2v2h2Zm6 1h-2v2h2v-2Zm1-1h2v-2h-2v2Zm-7-1h-2v2h2v-2Zm1-1h2v-2h-2v2Zm6 1v2h2v-2h-2Zm-1-1v-2h-2v2h2Zm-7 0h-2v2h2v-2Zm1-1h2v-2h-2v2Zm8 1v2h2v-2h-2Zm-1-1v-2h-2v2h2Zm-9 0h-2v2h2v-2Zm0-3v-2h-2v2h2Zm1 0h2v-2h-2v2Zm10 3v2h2v-2h-2Zm-1-3v-2h-2v2h2Zm1 0h2v-2h-2v2Zm-8 0h-2v2h2v-2Zm0-2v-2h-2v2h2Zm1 0h2v-2h-2v2Zm4 2v2h2v-2h-2Zm-1-2v-2h-2v2h2Zm1 0h2v-2h-2v2Zm-10 19v2h2v-4h-2v2Zm2 0h-2v1h4v-1h-2Zm0 1v-2h-3v4h3v-2Zm-3 0h2v-7h-4v7h2Zm0-7v2h1v-4h-1v2Zm1 0h-2v6h4v-6h-2Zm5 7v-2h-1v4h1v-2Zm-1 0h2v-2h-4v2h2Zm0-2v2h1v-4h-1v2Zm1 0h-2v2h4v-2h-2Zm4 1v-2h-1v4h1v-2Zm-1 0h-2v1h4v-1h-2Zm0 1v-2h-1v4h1v-2Zm-1 0h2v-1h-4v1h2Zm0-1v-2h-1v4h1v-2Zm-1 0h2v-1h-4v1h2Zm0-1v2h3v-4h-3v2Zm3 0h-2v1h4v-1h-2Zm2 2v-2h-1v4h1v-2Zm-1 0h2v-2h-4v2h2Zm0-2v2h1v-4h-1v2Zm1 0h-2v2h4v-2h-2Zm5 2v-2h-3v4h3v-2Zm-3 0h2v-1h-4v1h2Zm0-1v2h2v-4h-2v2Zm2 0h2v-6h-4v6h2Zm0-6v2h1v-4h-1v2Zm1 0h-2v7h4v-7h-2Zm-13 6v-2h-1v4h1v-2Zm-1 0h2v-1h-4v1h2Zm0-1v2h1v-4h-1v2Zm1 0h-2v1h4v-1h-2Zm10 1v-2h-1v4h1v-2Zm-1 0h2v-1h-4v1h2Zm0-1v2h1v-4h-1v2Zm1 0h-2v1h4v-1h-2Zm-9 0v-2h-1v4h1v-2Zm-1 0h2v-1h-4v1h2Zm0-1v2h1v-4h-1v2Zm1 0h-2v1h4v-1h-2Zm2-5v2h3v-4h-3v2Zm3 0h2v-1h-4v1h2Zm0-1v2h1v-4h-1v2Zm1 0h-2v1h4v-1h-2Zm0 1v2h1v-4h-1v2Zm1 0h-2v5h4v-5h-2Zm0 5v-2h-1v4h1v-2Zm-1 0h-2v1h4v-1h-2Zm0 1v-2h-1v4h1v-2Zm-1 0h2v-1h-4v1h2Zm0-1v-2h-3v4h3v-2Zm-3 0h-2v1h4v-1h-2Zm0 1v-2h-1v4h1v-2Zm-1 0h2v-1h-4v1h2Zm0-1v-2h-1v4h1v-2Zm-1 0h2v-5h-4v5h2Zm0-5v2h1v-4h-1v2Zm1 0h2v-1h-4v1h2Zm0-1v2h1v-4h-1v2Zm1 0h-2v1h4v-1h-2Zm6 7v-2h-1v4h1v-2Zm-1 0h2v-1h-4v1h2Zm0-1v2h1v-4h-1v2Zm1 0h-2v1h4v-1h-2Zm-10 0v-2h-1v4h1v-2Zm-1 0h2v-3h-4v3h2Zm0-3v2h1v-4h-1v2Zm1 0h-2v3h4v-3h-2Zm12 3v-2h-1v4h1v-2Zm-1 0h2v-3h-4v3h2Zm0-3v2h1v-4h-1v2Zm1 0h-2v3h4v-3h-2Zm-9 2v2h5v-4h-5v2Zm5 0h2v-1h-4v1h2Zm0-1v-2h-5v4h5v-2Zm-5 0h-2v1h4v-1h-2Zm-2-1v-2h-1v4h1v-2Zm-1 0h2v-1h-4v1h2Zm0-1v2h1v-4h-1v2Zm1 0h-2v1h4v-1h-2Zm2 1v2h5v-4h-5v2Zm5 0h2v-1h-4v1h2Zm0-1v-2h-5v4h5v-2Zm-5 0h-2v1h4v-1h-2Zm8 1v-2h-1v4h1v-2Zm-1 0h2v-1h-4v1h2Zm0-1v2h1v-4h-1v2Zm1 0h-2v1h4v-1h-2Zm-12 0v-2h-1v4h1v-2Zm-1 0h2v-1h-4v1h2Zm0-1v2h1v-4h-1v2Zm1 0h-2v1h4v-1h-2Zm14 1v-2h-1v4h1v-2Zm-1 0h2v-1h-4v1h2Zm0-1v2h1v-4h-1v2Zm1 0h-2v1h4v-1h-2Zm-13 0v-2h-1v4h1v-2Zm-1 0h2v-1h-4v1h2Zm0-1v2h1v-4h-1v2Zm1 0h-2v1h4v-1h-2Zm12 1v-2h-1v4h1v-2Zm-1 0h2v-1h-4v1h2Zm0-1v2h1v-4h-1v2Zm1 0h-2v1h4v-1h-2Zm-11 0v-2h-1v4h1v-2Zm-1 0h2v-1h-4v1h2Zm0-1v2h1v-4h-1v2Zm1 0h-2v1h4v-1h-2Zm6-7v2h1v-4h-1v2Zm1 0h-2v2h4v-2h-2Zm0 2v-2h-1v4h1v-2Zm-1 0h-2v1h4v-1h-2Zm0 1v-2h-1v4h1v-2Zm-1 0h-2v1h4v-1h-2Zm0 1v2h2v-4h-2v2Zm2 0h-2v1h4v-1h-2Zm0 1v-2h-1v4h1v-2Zm-1 0h-2v1h4v-1h-2Zm0 1v-2h-1v4h1v-2Zm-1 0h-2v1h4v-1h-2Zm0 1v2h1v-4h-1v2Zm1 0h-2v1h4v-1h-2Zm0 1v-2h-3v4h3v-2Zm-3 0h2v-1h-4v1h2Zm0-1v2h1v-4h-1v2Zm1 0h2v-1h-4v1h2Zm0-1v-2h-1v4h1v-2Zm-1 0h2v-1h-4v1h2Zm0-1v-2h-1v4h1v-2Zm-1 0h2v-1h-4v1h2Zm0-1v2h2v-4h-2v2Zm2 0h2v-1h-4v1h2Zm0-1v-2h-1v4h1v-2Zm-1 0h2v-1h-4v1h2Zm0-1v-2h-1v4h1v-2Zm-1 0h2v-2h-4v2h2Zm0-2v2h1v-4h-1v2Zm1 0h2v-1h-4v1h2Zm0-1v2h3v-4h-3v2Zm3 0h-2v1h4v-1h-2Zm4 9v-2h-1v4h1v-2Zm-1 0h2v-1h-4v1h2Zm0-1v2h1v-4h-1v2Zm1 0h-2v1h4v-1h-2Zm-9 0v-2h-1v4h1v-2Zm-1 0h2v-1h-4v1h2Zm0-1v2h1v-4h-1v2Zm1 0h-2v1h4v-1h-2Zm8 1v-2h-1v4h1v-2Zm-1 0h2v-1h-4v1h2Zm0-1v2h1v-4h-1v2Zm1 0h-2v1h4v-1h-2Zm-7 0v-2h-1v4h1v-2Zm-1 0h2v-1h-4v1h2Zm0-1v2h1v-4h-1v2Zm1 0h-2v1h4v-1h-2Zm6 1v-2h-1v4h1v-2Zm-1 0h2v-1h-4v1h2Zm0-1v2h1v-4h-1v2Zm1 0h-2v1h4v-1h-2Zm-6-1v-2h-1v4h1v-2Zm-1 0h2v-1h-4v1h2Zm0-1v2h1v-4h-1v2Zm1 0h-2v1h4v-1h-2Zm6 1v-2h-1v4h1v-2Zm-1 0h2v-1h-4v1h2Zm0-1v2h1v-4h-1v2Zm1 0h-2v1h4v-1h-2Zm-7 0v-2h-1v4h1v-2Zm-1 0h2v-1h-4v1h2Zm0-1v2h1v-4h-1v2Zm1 0h-2v1h4v-1h-2Zm8 1v-2h-1v4h1v-2Zm-1 0h2v-1h-4v1h2Zm0-1v2h1v-4h-1v2Zm1 0h-2v1h4v-1h-2Zm-9 0v-2h-1v4h1v-2Zm-1 0h2v-3h-4v3h2Zm0-3v2h1v-4h-1v2Zm1 0h-2v3h4v-3h-2Zm10 3v-2h-1v4h1v-2Zm-1 0h2v-3h-4v3h2Zm0-3v2h1v-4h-1v2Zm1 0h-2v3h4v-3h-2Zm-7 0v-2h-1v4h1v-2Zm-1 0h2v-2h-4v2h2Zm0-2v2h1v-4h-1v2Zm1 0h-2v2h4v-2h-2Zm4 2v-2h-1v4h1v-2Zm-1 0h2v-2h-4v2h2Zm0-2v2h1v-4h-1v2Zm1 0h-2v2h4v-2h-2Z" mask="url(#b)"/>
  </g>
  <defs>
    <filter id="a" width="26" height="29" x="0" y="0" color-interpolation-filters="sRGB" filterUnits="userSpaceOnUse">
      <feFlood flood-opacity="0" result="BackgroundImageFix"/>
      <feColorMatrix in="SourceAlpha" result="hardAlpha" values="0 0 0 0 0 0 0 0 0 0 0 0 0 0 0 0 0 0 127 0"/>
      <feOffset dx="1" dy="1"/>
      <feGaussianBlur stdDeviation="1.25"/>
      <feComposite in2="hardAlpha" operator="out"/>
      <feColorMatrix values="0 0 0 0 0 0 0 0 0 0 0 0 0 0 0 0 0 0 0.24 0"/>
      <feBlend in2="BackgroundImageFix" result="effect1_dropShadow_1_4337"/>
      <feBlend in="SourceGraphic" in2="effect1_dropShadow_1_4337" result="shape"/>
    </filter>
  </defs>
</svg>
