<svg id="_1" height="512" viewBox="0 0 512 512" width="512" xmlns="http://www.w3.org/2000/svg" xmlns:xlink="http://www.w3.org/1999/xlink" data-name="1"><linearGradient id="linear-gradient" gradientTransform="matrix(-1 0 0 -1 707.783 381.478)" gradientUnits="userSpaceOnUse" x1="353.892" x2="353.892" y1="51.298" y2="471.054"><stop offset=".023" stop-color="#ff7bac"/><stop offset="1" stop-color="#574bbd"/></linearGradient><linearGradient id="linear-gradient-2" gradientTransform="matrix(-1 0 0 -1 707.783 446.739)" x1="353.892" x2="353.892" xlink:href="#linear-gradient" y1="51.298" y2="471.054"/><linearGradient id="linear-gradient-3" gradientTransform="matrix(-1 0 0 -1 773.044 446.739)" x1="386.522" x2="386.522" xlink:href="#linear-gradient" y1="51.298" y2="471.054"/><linearGradient id="linear-gradient-4" gradientTransform="matrix(-1 0 0 -1 642.522 446.739)" x1="321.261" x2="321.261" xlink:href="#linear-gradient" y1="51.298" y2="471.054"/><linearGradient id="linear-gradient-5" gradientTransform="matrix(-1 0 0 -1 512 185.694)" x1="256" x2="256" xlink:href="#linear-gradient" y1="51.298" y2="471.054"/><linearGradient id="linear-gradient-6" x1="256" x2="256" xlink:href="#linear-gradient" y1="51.298" y2="471.054"/><linearGradient id="linear-gradient-7" x1="223.369" x2="223.369" xlink:href="#linear-gradient" y1="51.298" y2="471.054"/><linearGradient id="linear-gradient-8" x1="190.739" x2="190.739" xlink:href="#linear-gradient" y1="51.298" y2="471.054"/><linearGradient id="linear-gradient-9" x1="158.108" x2="158.108" xlink:href="#linear-gradient" y1="51.298" y2="471.054"/><linearGradient id="linear-gradient-10" x1="353.892" x2="353.892" xlink:href="#linear-gradient" y1="51.298" y2="471.054"/><linearGradient id="linear-gradient-11" x1="321.261" x2="321.261" xlink:href="#linear-gradient" y1="51.298" y2="471.054"/><linearGradient id="linear-gradient-12" x1="288.631" x2="288.631" xlink:href="#linear-gradient" y1="51.298" y2="471.054"/><linearGradient id="linear-gradient-13" gradientTransform="matrix(-1 0 0 -1 381.478 446.739)" x1="190.739" x2="190.739" xlink:href="#linear-gradient" y1="51.298" y2="471.054"/><linearGradient id="linear-gradient-14" gradientTransform="matrix(-1 0 0 -1 642.522 512)" x1="321.261" x2="321.261" xlink:href="#linear-gradient" y1="51.298" y2="471.054"/><linearGradient id="linear-gradient-15" gradientTransform="matrix(-1 0 0 -1 381.478 512)" x1="190.739" x2="190.739" xlink:href="#linear-gradient" y1="51.298" y2="471.054"/><linearGradient id="linear-gradient-16" gradientTransform="matrix(-1 0 0 -1 642.522 577.261)" x1="321.261" x2="321.261" xlink:href="#linear-gradient" y1="51.298" y2="471.054"/><linearGradient id="linear-gradient-17" gradientTransform="matrix(-1 0 0 -1 381.478 577.261)" x1="190.739" x2="190.739" xlink:href="#linear-gradient" y1="51.298" y2="471.054"/><linearGradient id="linear-gradient-18" gradientTransform="matrix(-1 0 0 -1 642.522 642.522)" x1="321.261" x2="321.261" xlink:href="#linear-gradient" y1="51.298" y2="471.054"/><linearGradient id="linear-gradient-19" gradientTransform="matrix(-1 0 0 -1 381.478 642.522)" x1="190.739" x2="190.739" xlink:href="#linear-gradient" y1="51.298" y2="471.054"/><linearGradient id="linear-gradient-20" gradientTransform="matrix(-1 0 0 -1 577.261 707.783)" x1="288.631" x2="288.631" xlink:href="#linear-gradient" y1="51.298" y2="471.054"/><linearGradient id="linear-gradient-21" gradientTransform="matrix(-1 0 0 -1 512 707.783)" x1="256" x2="256" xlink:href="#linear-gradient" y1="51.298" y2="471.054"/><linearGradient id="linear-gradient-22" gradientTransform="matrix(-1 0 0 -1 446.739 707.783)" x1="223.369" x2="223.369" xlink:href="#linear-gradient" y1="51.298" y2="471.054"/><linearGradient id="linear-gradient-23" gradientTransform="matrix(-1 0 0 -1 577.261 250.956)" x1="288.631" x2="288.631" xlink:href="#linear-gradient" y1="51.298" y2="471.054"/><linearGradient id="linear-gradient-24" gradientTransform="matrix(-1 0 0 -1 446.739 250.956)" x1="223.369" x2="223.369" xlink:href="#linear-gradient" y1="51.298" y2="471.054"/><linearGradient id="linear-gradient-25" gradientTransform="matrix(-1 0 0 -1 316.217 446.739)" x1="158.108" x2="158.108" xlink:href="#linear-gradient" y1="51.298" y2="471.054"/><linearGradient id="linear-gradient-26" gradientTransform="matrix(-1 0 0 -1 250.956 446.739)" x1="125.478" x2="125.478" xlink:href="#linear-gradient" y1="51.298" y2="471.054"/><linearGradient id="linear-gradient-27" gradientTransform="matrix(-1 0 0 -1 642.522 316.217)" x1="321.261" x2="321.261" xlink:href="#linear-gradient" y1="51.298" y2="471.054"/><linearGradient id="linear-gradient-28" gradientTransform="matrix(-1 0 0 -1 381.478 316.217)" x1="190.739" x2="190.739" xlink:href="#linear-gradient" y1="51.298" y2="471.054"/><linearGradient id="linear-gradient-29" gradientTransform="matrix(-1 0 0 -1 316.217 381.478)" x1="158.108" x2="158.108" xlink:href="#linear-gradient" y1="51.298" y2="471.054"/><path d="m337.576 174.424h32.631v32.631h-32.631z" fill="url(#linear-gradient)" transform="matrix(-1 0 0 -1 707.783 381.478)"/><path d="m337.576 207.054h32.631v32.631h-32.631z" fill="url(#linear-gradient-2)" transform="matrix(-1 0 0 -1 707.783 446.739)"/><path d="m370.207 207.054h32.631v32.631h-32.631z" fill="url(#linear-gradient-3)" transform="matrix(-1 0 0 -1 773.044 446.739)"/><path d="m304.946 207.054h32.631v32.631h-32.631z" fill="url(#linear-gradient-4)" transform="matrix(-1 0 0 -1 642.522 446.739)"/><path d="m239.685 76.532h32.631v32.631h-32.631z" fill="url(#linear-gradient-5)" transform="matrix(-1 0 0 -1 512 185.694)"/><path d="m239.685 402.838h32.631v32.631h-32.631z" fill="url(#linear-gradient-6)"/><path d="m207.054 402.838h32.631v32.631h-32.631z" fill="url(#linear-gradient-7)"/><path d="m174.424 402.838h32.631v32.631h-32.631z" fill="url(#linear-gradient-8)"/><path d="m141.793 402.838h32.631v32.631h-32.631z" fill="url(#linear-gradient-9)"/><path d="m337.576 402.838h32.631v32.631h-32.631z" fill="url(#linear-gradient-10)"/><path d="m304.946 402.838h32.631v32.631h-32.631z" fill="url(#linear-gradient-11)"/><path d="m272.315 402.838h32.631v32.631h-32.631z" fill="url(#linear-gradient-12)"/><path d="m174.424 207.054h32.631v32.631h-32.631z" fill="url(#linear-gradient-13)" transform="matrix(-1 0 0 -1 381.478 446.739)"/><path d="m304.946 239.685h32.631v32.631h-32.631z" fill="url(#linear-gradient-14)" transform="matrix(-1 0 0 -1 642.522 512)"/><path d="m174.424 239.685h32.631v32.631h-32.631z" fill="url(#linear-gradient-15)" transform="matrix(-1 0 0 -1 381.478 512)"/><path d="m304.946 272.315h32.631v32.631h-32.631z" fill="url(#linear-gradient-16)" transform="matrix(-1 0 0 -1 642.522 577.261)"/><path d="m174.424 272.315h32.631v32.631h-32.631z" fill="url(#linear-gradient-17)" transform="matrix(-1 0 0 -1 381.478 577.261)"/><path d="m304.946 304.946h32.631v32.631h-32.631z" fill="url(#linear-gradient-18)" transform="matrix(-1 0 0 -1 642.522 642.522)"/><path d="m174.424 304.946h32.631v32.631h-32.631z" fill="url(#linear-gradient-19)" transform="matrix(-1 0 0 -1 381.478 642.522)"/><path d="m272.315 337.576h32.631v32.631h-32.631z" fill="url(#linear-gradient-20)" transform="matrix(-1 0 0 -1 577.261 707.783)"/><path d="m239.685 337.576h32.631v32.631h-32.631z" fill="url(#linear-gradient-21)" transform="matrix(-1 0 0 -1 512 707.783)"/><path d="m207.054 337.576h32.631v32.631h-32.631z" fill="url(#linear-gradient-22)" transform="matrix(-1 0 0 -1 446.739 707.783)"/><path d="m272.315 109.162h32.631v32.631h-32.631z" fill="url(#linear-gradient-23)" transform="matrix(-1 0 0 -1 577.261 250.956)"/><path d="m207.054 109.162h32.631v32.631h-32.631z" fill="url(#linear-gradient-24)" transform="matrix(-1 0 0 -1 446.739 250.956)"/><path d="m141.793 207.054h32.631v32.631h-32.631z" fill="url(#linear-gradient-25)" transform="matrix(-1 0 0 -1 316.217 446.739)"/><path d="m109.162 207.054h32.631v32.631h-32.631z" fill="url(#linear-gradient-26)" transform="matrix(-1 0 0 -1 250.956 446.739)"/><path d="m304.946 141.793h32.631v32.631h-32.631z" fill="url(#linear-gradient-27)" transform="matrix(-1 0 0 -1 642.522 316.217)"/><path d="m174.424 141.793h32.631v32.631h-32.631z" fill="url(#linear-gradient-28)" transform="matrix(-1 0 0 -1 381.478 316.217)"/><path d="m141.793 174.424h32.631v32.631h-32.631z" fill="url(#linear-gradient-29)" transform="matrix(-1 0 0 -1 316.217 381.478)"/></svg>