<svg id="_1" height="512" viewBox="0 0 512 512" width="512" xmlns="http://www.w3.org/2000/svg" xmlns:xlink="http://www.w3.org/1999/xlink" data-name="1"><linearGradient id="linear-gradient" gradientUnits="userSpaceOnUse" x1="256" x2="256" y1="88.149" y2="452.09"><stop offset=".023" stop-color="#ff7bac"/><stop offset="1" stop-color="#574bbd"/></linearGradient><linearGradient id="linear-gradient-2" x1="223.369" x2="223.369" xlink:href="#linear-gradient" y1="88.149" y2="452.09"/><linearGradient id="linear-gradient-3" x1="190.739" x2="190.739" xlink:href="#linear-gradient" y1="88.149" y2="452.09"/><linearGradient id="linear-gradient-4" x1="125.478" x2="125.478" xlink:href="#linear-gradient" y1="88.149" y2="452.09"/><linearGradient id="linear-gradient-5" x1="321.261" x2="321.261" xlink:href="#linear-gradient" y1="88.149" y2="452.09"/><linearGradient id="linear-gradient-6" x1="288.631" x2="288.631" xlink:href="#linear-gradient" y1="88.149" y2="452.09"/><linearGradient id="linear-gradient-11" x1="353.892" x2="353.892" xlink:href="#linear-gradient" y1="88.149" y2="452.09"/><linearGradient id="linear-gradient-12" x1="386.522" x2="386.522" xlink:href="#linear-gradient" y1="88.149" y2="452.09"/><linearGradient id="linear-gradient-19" x1="92.847" x2="92.847" xlink:href="#linear-gradient" y1="88.149" y2="452.09"/><linearGradient id="linear-gradient-24" x1="419.153" x2="419.153" xlink:href="#linear-gradient" y1="88.149" y2="452.09"/><linearGradient id="linear-gradient-29" x1="158.108" x2="158.108" xlink:href="#linear-gradient" y1="88.149" y2="452.09"/><path d="m239.685 402.838h32.631v32.631h-32.631z" fill="url(#linear-gradient)"/><path d="m207.054 402.838h32.631v32.631h-32.631z" fill="url(#linear-gradient-2)"/><path d="m174.424 402.838h32.631v32.631h-32.631z" fill="url(#linear-gradient-3)"/><path d="m109.162 402.838h32.631v32.631h-32.631z" fill="url(#linear-gradient-4)"/><path d="m304.946 402.838h32.631v32.631h-32.631z" fill="url(#linear-gradient-5)"/><path d="m272.315 402.838h32.631v32.631h-32.631z" fill="url(#linear-gradient-6)"/><path d="m207.054 141.793h32.631v32.631h-32.631z" fill="url(#linear-gradient-2)"/><path d="m174.424 174.424h32.631v32.631h-32.631z" fill="url(#linear-gradient-3)"/><path d="m109.162 174.424h32.631v32.631h-32.631z" fill="url(#linear-gradient-4)"/><path d="m304.946 207.054h32.631v32.631h-32.631z" fill="url(#linear-gradient-5)"/><path d="m337.576 207.054h32.631v32.631h-32.631z" fill="url(#linear-gradient-11)"/><path d="m370.207 207.054h32.631v32.631h-32.631z" fill="url(#linear-gradient-12)"/><path d="m272.315 207.054h32.631v32.631h-32.631z" fill="url(#linear-gradient-6)"/><path d="m272.315 174.424h32.631v32.631h-32.631z" fill="url(#linear-gradient-6)"/><path d="m272.315 76.532h32.631v32.631h-32.631z" fill="url(#linear-gradient-6)"/><path d="m304.946 141.793h32.631v32.631h-32.631z" fill="url(#linear-gradient-5)"/><path d="m304.946 109.162h32.631v32.631h-32.631z" fill="url(#linear-gradient-5)"/><path d="m239.685 109.162h32.631v32.631h-32.631z" fill="url(#linear-gradient)"/><path d="m76.532 337.576h32.631v32.631h-32.631z" fill="url(#linear-gradient-19)"/><path d="m76.532 370.207h32.631v32.631h-32.631z" fill="url(#linear-gradient-19)"/><path d="m76.532 304.946h32.631v32.631h-32.631z" fill="url(#linear-gradient-19)"/><path d="m370.207 337.576h32.631v32.631h-32.631z" fill="url(#linear-gradient-12)"/><path d="m337.576 370.207h32.631v32.631h-32.631z" fill="url(#linear-gradient-11)"/><path d="m402.838 304.946h32.631v32.631h-32.631z" fill="url(#linear-gradient-24)"/><path d="m76.532 272.315h32.631v32.631h-32.631z" fill="url(#linear-gradient-19)"/><path d="m402.838 272.315h32.631v32.631h-32.631z" fill="url(#linear-gradient-24)"/><path d="m76.532 239.685h32.631v32.631h-32.631z" fill="url(#linear-gradient-19)"/><path d="m402.838 239.685h32.631v32.631h-32.631z" fill="url(#linear-gradient-24)"/><g fill="url(#linear-gradient-29)"><path d="m141.793 337.576h32.631v32.631h-32.631z"/><path d="m141.793 370.207h32.631v32.631h-32.631z"/><path d="m141.793 304.946h32.631v32.631h-32.631z"/><path d="m141.793 272.315h32.631v32.631h-32.631z"/><path d="m141.793 239.685h32.631v32.631h-32.631z"/></g><path d="m76.532 207.054h32.631v32.631h-32.631z" fill="url(#linear-gradient-19)"/><path d="m141.793 207.054h32.631v32.631h-32.631z" fill="url(#linear-gradient-29)"/></svg>