<svg id="_1" height="512" viewBox="0 0 512 512" width="512" xmlns="http://www.w3.org/2000/svg" xmlns:xlink="http://www.w3.org/1999/xlink" data-name="1"><linearGradient id="linear-gradient" gradientUnits="userSpaceOnUse" x1="141.943" x2="141.943" y1="67.723" y2="399.247"><stop offset=".023" stop-color="#ff7bac"/><stop offset="1" stop-color="#574bbd"/></linearGradient><linearGradient id="linear-gradient-2" x1="239.835" x2="239.835" xlink:href="#linear-gradient" y1="67.723" y2="399.247"/><linearGradient id="linear-gradient-3" x1="207.204" x2="207.204" xlink:href="#linear-gradient" y1="67.723" y2="399.247"/><linearGradient id="linear-gradient-4" x1="174.574" x2="174.574" xlink:href="#linear-gradient" y1="67.723" y2="399.247"/><linearGradient id="linear-gradient-7" x1="337.726" x2="337.726" xlink:href="#linear-gradient" y1="67.723" y2="399.247"/><linearGradient id="linear-gradient-8" x1="305.096" x2="305.096" xlink:href="#linear-gradient" y1="67.723" y2="399.247"/><linearGradient id="linear-gradient-10" x1="272.465" x2="272.465" xlink:href="#linear-gradient" y1="67.723" y2="399.247"/><linearGradient id="linear-gradient-30" x1="370.057" x2="370.057" xlink:href="#linear-gradient" y1="67.723" y2="399.247"/><path d="m125.628 207.054h32.631v32.631h-32.631z" fill="url(#linear-gradient)"/><path d="m223.519 304.946h32.631v32.631h-32.631z" fill="url(#linear-gradient-2)"/><path d="m190.889 337.576h32.631v32.631h-32.631z" fill="url(#linear-gradient-3)"/><path d="m158.258 370.207h32.631v32.631h-32.631z" fill="url(#linear-gradient-4)"/><path d="m125.628 402.838h32.631v32.631h-32.631z" fill="url(#linear-gradient)"/><path d="m125.628 370.207h32.631v32.631h-32.631z" fill="url(#linear-gradient)"/><path d="m321.411 370.207h32.631v32.631h-32.631z" fill="url(#linear-gradient-7)"/><path d="m288.781 370.207h32.631v32.631h-32.631z" fill="url(#linear-gradient-8)"/><path d="m321.411 402.838h32.631v32.631h-32.631z" fill="url(#linear-gradient-7)"/><path d="m256.15 337.576h32.631v32.631h-32.631z" fill="url(#linear-gradient-10)"/><path d="m125.628 174.424h32.631v32.631h-32.631z" fill="url(#linear-gradient)"/><path d="m321.411 141.793h32.631v32.631h-32.631z" fill="url(#linear-gradient-7)"/><path d="m321.411 109.162h32.631v32.631h-32.631z" fill="url(#linear-gradient-7)"/><g fill="url(#linear-gradient)"><path d="m125.628 141.793h32.631v32.631h-32.631z"/><path d="m125.628 109.162h32.631v32.631h-32.631z"/><path d="m125.628 337.576h32.631v32.631h-32.631z"/><path d="m125.628 304.946h32.631v32.631h-32.631z"/><path d="m125.628 272.315h32.631v32.631h-32.631z"/><path d="m125.628 239.685h32.631v32.631h-32.631z"/></g><path d="m321.411 337.576h32.631v32.631h-32.631z" fill="url(#linear-gradient-7)"/><path d="m321.411 304.946h32.631v32.631h-32.631z" fill="url(#linear-gradient-7)"/><path d="m321.411 272.315h32.631v32.631h-32.631z" fill="url(#linear-gradient-7)"/><path d="m321.411 239.685h32.631v32.631h-32.631z" fill="url(#linear-gradient-7)"/><path d="m190.889 76.532h32.631v32.631h-32.631z" fill="url(#linear-gradient-3)"/><path d="m158.258 76.532h32.631v32.631h-32.631z" fill="url(#linear-gradient-4)"/><path d="m125.628 76.532h32.631v32.631h-32.631z" fill="url(#linear-gradient)"/><path d="m321.411 76.532h32.631v32.631h-32.631z" fill="url(#linear-gradient-7)"/><path d="m223.519 76.532h32.631v32.631h-32.631z" fill="url(#linear-gradient-2)"/><path d="m288.781 109.162h32.631v32.631h-32.631z" fill="url(#linear-gradient-8)"/><path d="m353.742 109.162h32.631v32.631h-32.631z" fill="url(#linear-gradient-30)"/><path d="m321.411 207.054h32.631v32.631h-32.631z" fill="url(#linear-gradient-7)"/></svg>