<svg width="24" height="24" viewBox="0 0 24 24" fill="none" xmlns="http://www.w3.org/2000/svg">
<path fill-rule="evenodd" clip-rule="evenodd" d="M7.1819 4.27239C7.58375 4.37285 7.82807 4.78005 7.72761 5.1819L6.96058 8.24999H17.0394L16.2724 5.1819C16.1719 4.78005 16.4163 4.37285 16.8181 4.27239C17.2199 4.17193 17.6271 4.41625 17.7276 4.81809L18.5856 8.24999H21C21.4142 8.24999 21.75 8.58578 21.75 8.99999C21.75 9.41421 21.4142 9.74999 21 9.74999H19.6787L18.9264 17.2736C18.7858 18.6794 17.6028 19.75 16.19 19.75H7.80998C6.39716 19.75 5.2142 18.6794 5.07362 17.2736L4.32126 9.74999H3C2.58579 9.74999 2.25 9.41421 2.25 8.99999C2.25 8.58578 2.58579 8.24999 3 8.24999H5.41442L6.27239 4.81809C6.37285 4.41625 6.78006 4.17193 7.1819 4.27239ZM9.75 13C9.75 12.5858 9.41421 12.25 9 12.25C8.58579 12.25 8.25 12.5858 8.25 13V15C8.25 15.4142 8.58579 15.75 9 15.75C9.41421 15.75 9.75 15.4142 9.75 15V13ZM12.75 13C12.75 12.5858 12.4142 12.25 12 12.25C11.5858 12.25 11.25 12.5858 11.25 13V15C11.25 15.4142 11.5858 15.75 12 15.75C12.4142 15.75 12.75 15.4142 12.75 15V13ZM15.75 13C15.75 12.5858 15.4142 12.25 15 12.25C14.5858 12.25 14.25 12.5858 14.25 13V15C14.25 15.4142 14.5858 15.75 15 15.75C15.4142 15.75 15.75 15.4142 15.75 15V13Z" fill="black"/>
</svg>
