<svg width="24" height="24" viewBox="0 0 24 24" fill="none" xmlns="http://www.w3.org/2000/svg">
<path fill-rule="evenodd" clip-rule="evenodd" d="M11.5039 3.13176C11.8113 2.95608 12.1887 2.95608 12.4961 3.13176L19.4961 7.13176C19.8077 7.3098 20 7.64114 20 8V17C20 17.3589 19.8077 17.6902 19.4961 17.8682L12.4961 21.8682C12.1887 22.0439 11.8113 22.0439 11.5039 21.8682L4.50386 17.8682C4.19229 17.6902 4 17.3589 4 17V8C4 7.64114 4.19229 7.3098 4.50386 7.13176L11.5039 3.13176ZM8.87211 5.34882C8.51247 5.14332 8.05433 5.26826 7.84882 5.6279C7.64332 5.98754 7.76826 6.44568 8.1279 6.65119L14.75 10.4352V12.5C14.75 12.9142 15.0858 13.25 15.5 13.25C15.9142 13.25 16.25 12.9142 16.25 12.5V10C16.25 9.73086 16.1058 9.48236 15.8721 9.34882L8.87211 5.34882Z" fill="black"/>
</svg>
