<svg width="24" height="24" viewBox="0 0 24 24" fill="none" xmlns="http://www.w3.org/2000/svg">
<path fill-rule="evenodd" clip-rule="evenodd" d="M8.25 17.1122V18C8.25 20.0711 9.92893 21.75 12 21.75C14.0711 21.75 15.75 20.0711 15.75 18V17.1122L15.779 17.0187C15.8202 16.8867 15.8822 16.6904 15.9649 16.4356C16.1302 15.9259 16.3782 15.182 16.7072 14.2496C16.8186 13.9341 16.9701 13.6908 17.1583 13.4392C17.2119 13.3675 17.2819 13.2792 17.3595 13.1814C17.5121 12.9887 17.6942 12.759 17.8386 12.5461C18.3609 11.7762 18.75 10.7868 18.75 9C18.75 5.27208 15.7279 2.25 12 2.25C8.27208 2.25 5.25 5.27208 5.25 9C5.25 10.7868 5.63908 11.7762 6.16137 12.5461C6.30577 12.759 6.4878 12.9886 6.64047 13.1813C6.71805 13.2791 6.7881 13.3675 6.84173 13.4392C7.02994 13.6908 7.18141 13.9341 7.29276 14.2496C7.62182 15.182 7.86977 15.9259 8.03513 16.4356C8.1178 16.6904 8.17981 16.8867 8.22098 17.0187L8.25 17.1122ZM6.75 9C6.75 6.1005 9.1005 3.75 12 3.75C14.8995 3.75 17.25 6.1005 17.25 9C17.25 10.5269 16.9297 11.214 16.5973 11.704C16.4748 11.8845 16.3692 12.0164 16.2486 12.167C16.1628 12.274 16.0695 12.3905 15.9572 12.5407C15.7159 12.8632 15.472 13.2424 15.2928 13.7504C14.9591 14.6958 14.707 15.4519 14.5381 15.9727C14.5052 16.0742 14.4754 16.1667 14.4488 16.25H12.75V13C12.75 12.5858 12.4142 12.25 12 12.25C11.5858 12.25 11.25 12.5858 11.25 13V16.25H9.5512C9.5246 16.1667 9.49484 16.0742 9.46193 15.9727C9.29297 15.4519 9.04092 14.6958 8.70724 13.7504C8.52795 13.2424 8.28412 12.8632 8.04283 12.5407C7.93051 12.3905 7.83718 12.274 7.75143 12.167C7.6308 12.0164 7.52516 11.8845 7.40268 11.704C7.07029 11.214 6.75 10.5269 6.75 9Z" fill="black"/>
</svg>
