<svg width="24" height="24" viewBox="0 0 24 24" fill="none" xmlns="http://www.w3.org/2000/svg">
<path fill-rule="evenodd" clip-rule="evenodd" d="M12 2.25C8.82436 2.25 6.25 4.82436 6.25 8C6.25 9.74333 7.02651 11.3055 8.25 12.359V21C8.25 21.3033 8.43273 21.5768 8.71299 21.6929C8.99324 21.809 9.31583 21.7448 9.53033 21.5303L12 19.0607L14.4697 21.5303C14.6842 21.7448 15.0068 21.809 15.287 21.6929C15.5673 21.5768 15.75 21.3033 15.75 21V12.359C16.9735 11.3055 17.75 9.74333 17.75 8C17.75 4.82436 15.1756 2.25 12 2.25ZM7.75 8C7.75 5.65279 9.65279 3.75 12 3.75C14.3472 3.75 16.25 5.65279 16.25 8C16.25 9.38996 15.5835 10.624 14.5496 11.4007C13.8393 11.9342 12.9576 12.25 12 12.25C11.0424 12.25 10.1607 11.9342 9.45043 11.4007C8.41646 10.624 7.75 9.38996 7.75 8Z" fill="black"/>
</svg>
