<svg width="24" height="24" viewBox="0 0 24 24" fill="none" xmlns="http://www.w3.org/2000/svg">
<path d="M11.75 12C11.75 11.8619 11.8619 11.75 12 11.75C12.1381 11.75 12.25 11.8619 12.25 12C12.25 12.1381 12.1381 12.25 12 12.25C11.8619 12.25 11.75 12.1381 11.75 12Z" fill="black"/>
<path fill-rule="evenodd" clip-rule="evenodd" d="M7.75 12C7.75 9.65279 9.65279 7.75 12 7.75C14.3472 7.75 16.25 9.65279 16.25 12C16.25 14.3472 14.3472 16.25 12 16.25C9.65279 16.25 7.75 14.3472 7.75 12ZM12 10.25C11.0335 10.25 10.25 11.0335 10.25 12C10.25 12.9665 11.0335 13.75 12 13.75C12.9665 13.75 13.75 12.9665 13.75 12C13.75 11.0335 12.9665 10.25 12 10.25Z" fill="black"/>
<path fill-rule="evenodd" clip-rule="evenodd" d="M2.25 12C2.25 6.61522 6.61522 2.25 12 2.25C17.3848 2.25 21.75 6.61522 21.75 12C21.75 17.3848 17.3848 21.75 12 21.75C6.61522 21.75 2.25 17.3848 2.25 12ZM12 6.25C8.82436 6.25 6.25 8.82436 6.25 12C6.25 15.1756 8.82436 17.75 12 17.75C15.1756 17.75 17.75 15.1756 17.75 12C17.75 8.82436 15.1756 6.25 12 6.25Z" fill="black"/>
</svg>
