<svg width="24" height="24" viewBox="0 0 24 24" fill="none" xmlns="http://www.w3.org/2000/svg">
<path d="M12 24C18.6274 24 24 18.6274 24 12C24 5.37258 18.6274 0 12 0C5.37258 0 0 5.37258 0 12C0 18.6274 5.37258 24 12 24Z" fill="white" fill-opacity="0.36"/>
<mask id="mask0_2492_10436" style="mask-type:luminance" maskUnits="userSpaceOnUse" x="0" y="0" width="24" height="24">
<path d="M12 24C18.6274 24 24 18.6274 24 12C24 5.37258 18.6274 0 12 0C5.37258 0 0 5.37258 0 12C0 18.6274 5.37258 24 12 24Z" fill="white"/>
</mask>
<g mask="url(#mask0_2492_10436)">
<path fill-rule="evenodd" clip-rule="evenodd" d="M6.86226 7.64191C8.33955 6.85413 10.2049 6.4608 12.4582 6.46192C14.7107 6.46192 16.576 6.85525 18.0541 7.64191C18.3139 7.78029 18.4667 8.04382 18.4483 8.32175L18.151 12.7993C18.0243 14.6999 16.9354 16.4316 15.2167 17.466L12.887 18.869C12.626 19.0262 12.2902 19.0262 12.0293 18.869L9.69964 17.466C7.98096 16.4317 6.89206 14.6999 6.76537 12.7993L6.46804 8.32175C6.44968 8.04382 6.60249 7.78029 6.86226 7.64191Z" stroke="white" stroke-width="0.461538"/>
<path d="M6.92627 7.64436L12.2228 16.5421C12.2744 16.6287 12.3726 16.6823 12.479 16.6821C12.5855 16.6818 12.6834 16.6277 12.7345 16.5409L17.9901 7.60059" stroke="white" stroke-width="0.461538"/>
<path d="M7.33496 14.9651L12.358 6.62627C12.3892 6.57449 12.4482 6.54258 12.512 6.54297C12.5758 6.54336 12.6344 6.57599 12.6649 6.62814L17.5522 15.0018" stroke="white" stroke-width="0.461538"/>
<path d="M15.4616 12.3325C15.8079 12.3325 16.0887 12.0515 16.0887 11.7048C16.0887 11.3582 15.8079 11.0771 15.4616 11.0771C15.1152 11.0771 14.8345 11.3582 14.8345 11.7048C14.8345 12.0515 15.1152 12.3325 15.4616 12.3325Z" fill="white"/>
<path d="M12.4616 17.4097C12.8079 17.4097 13.0887 17.1287 13.0887 16.782C13.0887 16.4353 12.8079 16.1543 12.4616 16.1543C12.1152 16.1543 11.8345 16.4353 11.8345 16.782C11.8345 17.1287 12.1152 17.4097 12.4616 17.4097Z" fill="white"/>
<path d="M9.23087 12.3325C9.57721 12.3325 9.85797 12.0515 9.85797 11.7048C9.85797 11.3582 9.57721 11.0771 9.23087 11.0771C8.88452 11.0771 8.60376 11.3582 8.60376 11.7048C8.60376 12.0515 8.88452 12.3325 9.23087 12.3325Z" fill="white"/>
<path d="M12.4616 16.9619V18.5773" stroke="white" stroke-width="0.461538" stroke-linecap="square"/>
<path d="M7.31885 14.9424C7.75052 15.0379 10.0699 16.4416 12.6787 17.0368L17.6046 14.9424" stroke="white" stroke-width="0.461538"/>
</g>
</svg>
