<svg width="24" height="24" viewBox="0 0 24 24" fill="none" xmlns="http://www.w3.org/2000/svg">
<path opacity="0.3" d="M12 24C18.6274 24 24 18.6274 24 12C24 5.37258 18.6274 0 12 0C5.37258 0 0 5.37258 0 12C0 18.6274 5.37258 24 12 24Z" fill="white"/>
<path fill-rule="evenodd" clip-rule="evenodd" d="M11.1673 9.67034C11.4756 9.23118 11.7423 8.76055 11.9928 8.28223C12.0799 8.45915 12.1912 8.62488 12.251 8.81649C12.1899 9.06195 12.0221 9.25705 11.9024 9.47244C11.3085 10.4291 10.5279 11.3501 9.46953 11.685C8.73317 11.9333 7.95974 11.7571 7.22924 11.5822C7.97015 12.8466 8.69805 14.12 9.4331 15.3878C9.28804 15.4585 9.14363 15.5305 8.99857 15.6004C8.8275 15.3612 8.69089 15.0976 8.54323 14.8424C7.72101 13.3906 6.88578 11.9466 6.06812 10.492C7.02369 10.955 8.04951 11.4689 9.12607 11.2871C10.0042 11.134 10.658 10.4025 11.1673 9.67034Z" fill="white"/>
<path fill-rule="evenodd" clip-rule="evenodd" d="M12.88 10.5313C12.7128 10.3446 12.9698 10.139 13.0381 9.96484C13.5084 10.5537 14.0633 11.1565 14.8068 11.2921C15.9009 11.4411 16.969 10.997 17.9278 10.476C17.1323 11.9096 16.3048 13.3236 15.4963 14.7502C15.3298 15.032 15.1847 15.3292 14.9909 15.5921C14.7092 15.4844 14.447 15.3257 14.1628 15.2257C13.241 14.8879 12.249 14.804 11.2831 14.9019C11.0469 14.9159 10.8141 15.0089 10.5773 14.9844C10.4778 14.8481 10.4186 14.6844 10.3496 14.5292C11.2239 14.3348 12.1274 14.2963 13.0127 14.4229C13.6268 14.5159 14.248 14.6418 14.8029 14.9523C15.4677 13.8215 16.1084 12.6739 16.7836 11.5502C16.0973 11.7383 15.3759 11.9446 14.6669 11.7697C13.9514 11.6096 13.3731 11.083 12.88 10.5313Z" fill="white"/>
</svg>
