<svg width="24" height="24" viewBox="0 0 24 24" fill="none" xmlns="http://www.w3.org/2000/svg">
<path opacity="0.2" d="M12 24C18.6274 24 24 18.6274 24 12C24 5.37258 18.6274 0 12 0C5.37258 0 0 5.37258 0 12C0 18.6274 5.37258 24 12 24Z" fill="white"/>
<path fill-rule="evenodd" clip-rule="evenodd" d="M15.9662 11.027C15.6732 10.4438 15.3803 9.86067 15.0729 9.28394C14.5498 10.3363 14.0175 11.385 13.4851 12.4337C13.2536 12.8898 13.022 13.346 12.7913 13.8024C13.0056 13.7984 13.22 13.7969 13.4344 13.8019C13.4723 13.7272 13.5103 13.6525 13.5483 13.5778C13.6625 13.3537 13.7766 13.1297 13.8871 12.9039C14.0862 12.9039 14.2853 12.904 14.4843 12.904C15.0814 12.9041 15.6782 12.9042 16.2751 12.9034C16.3246 13.0013 16.3737 13.0993 16.4229 13.1974C16.5242 13.3995 16.6255 13.6018 16.7305 13.8024C16.9394 13.7979 17.1489 13.7994 17.3584 13.8009C17.2156 13.4869 17.0576 13.1789 16.8996 12.8708C16.7932 12.6634 16.6867 12.4559 16.5849 12.2464C16.3754 11.8414 16.1708 11.4342 15.9662 11.027ZM14.1587 12.3599C14.4729 11.7594 14.7816 11.1554 15.0735 10.5454C15.2444 10.8641 15.4063 11.1866 15.5681 11.5091C15.711 11.7938 15.8538 12.0784 16.0029 12.3604C15.3882 12.3619 14.7735 12.3624 14.1587 12.3599Z" fill="white"/>
<path fill-rule="evenodd" clip-rule="evenodd" d="M3.25928 9.60034C4.00873 10.2843 4.75273 10.9743 5.50382 11.6568C5.548 11.7263 5.60964 11.6363 5.64946 11.6128C6.37928 10.9443 7.108 10.2748 7.83673 9.60534C7.834 11.0043 7.84164 12.4033 7.83291 13.8023C7.63764 13.7973 7.44182 13.7973 7.24655 13.8013C7.24164 12.8363 7.25037 11.8713 7.24164 10.9063C6.68255 11.4318 6.12128 11.9573 5.53928 12.4618C4.97964 11.9448 4.42 11.4283 3.85328 10.9188C3.84291 11.8793 3.8571 12.8403 3.84619 13.8008C3.65146 13.7973 3.45619 13.7973 3.26146 13.8003C3.25764 12.4003 3.26255 11.0003 3.25928 9.60034Z" fill="white"/>
<path fill-rule="evenodd" clip-rule="evenodd" d="M12.0777 10.0265C11.5688 9.67499 10.8935 9.52699 10.2679 9.64649C9.71042 9.74499 9.19442 10.04 8.86223 10.463C8.48042 10.939 8.32933 11.5675 8.47223 12.145C8.62387 12.829 9.1846 13.4195 9.89696 13.662C10.7915 13.99 11.8917 13.712 12.4841 13.0175C12.8626 12.5945 13.0421 12.03 12.9739 11.487C12.9275 10.91 12.5741 10.375 12.0777 10.0265ZM9.00908 11.6895C8.99763 10.9785 9.59217 10.321 10.3487 10.1795C10.8958 10.0715 11.4925 10.2285 11.8918 10.5885C12.4024 11.0345 12.5507 11.786 12.2398 12.366C12.0298 12.782 11.6065 13.0985 11.1238 13.212C10.7169 13.3035 10.2718 13.261 9.90363 13.0735C9.35599 12.811 8.99708 12.256 9.00908 11.6895Z" fill="white"/>
<path fill-rule="evenodd" clip-rule="evenodd" d="M17.7221 10.3299C18.2005 9.81838 18.9565 9.54188 19.6874 9.61688C20.3196 9.67638 20.8999 9.99338 21.2888 10.4494C21.1307 10.5604 20.9681 10.6659 20.8023 10.7674C20.4805 10.3799 19.9568 10.1319 19.4223 10.1484C18.8365 10.1454 18.2719 10.4559 17.9801 10.9179C17.6125 11.4764 17.6927 12.2454 18.1699 12.7299C18.4923 13.0704 18.9832 13.2679 19.4741 13.2579C19.9928 13.2554 20.499 13.0114 20.8072 12.6304C20.9714 12.7299 21.129 12.8374 21.291 12.9404C20.9381 13.3829 20.391 13.6934 19.7981 13.7714C19.1976 13.8649 18.5599 13.7154 18.0761 13.3774C17.5661 13.0284 17.2214 12.4764 17.1761 11.8919C17.1161 11.3314 17.313 10.7514 17.7221 10.3299Z" fill="white"/>
<path fill-rule="evenodd" clip-rule="evenodd" d="M10.7616 10.3769C10.7392 10.3754 10.6945 10.3714 10.6727 10.3694C10.6498 10.4059 10.6269 10.4424 10.605 10.4794C10.4881 10.5129 10.3762 10.5581 10.2644 10.6033C10.1541 10.648 10.0438 10.6926 9.92867 10.7259C9.89732 10.7227 9.86414 10.7105 9.83073 10.6982C9.75893 10.6718 9.68602 10.645 9.62758 10.7064C9.51576 10.7894 9.60685 10.9119 9.68595 10.9799C9.70401 11.2533 9.70184 11.5276 9.69967 11.8017C9.69836 11.9662 9.69706 12.1306 9.70013 12.2949C9.71229 12.3608 9.6753 12.414 9.6386 12.4669C9.60124 12.5207 9.56417 12.5741 9.57958 12.6399C9.63795 12.7629 9.8114 12.7409 9.89704 12.6554L10.0002 12.6948L10.0002 12.6948C10.2568 12.7923 10.5141 12.8902 10.743 13.0339L10.8085 12.9244L10.9245 12.8817C11.119 12.8104 11.3137 12.739 11.5034 12.6569C11.5847 12.7044 11.6998 12.7669 11.7865 12.6919C11.871 12.6079 11.8045 12.5019 11.7423 12.4279C11.795 12.3393 11.8374 12.2456 11.8798 12.152L11.8798 12.152L11.8798 12.152C11.9572 11.9809 12.0345 11.8102 12.1738 11.6719C12.1482 11.6568 12.1029 11.6305 12.0675 11.6099L12.0674 11.6098L12.0673 11.6098L12.0673 11.6098L12.0672 11.6097L12.0672 11.6097L12.0374 11.5924C11.979 11.4519 11.9092 11.3164 11.8389 11.1809C11.8274 11.0939 11.8154 11.0069 11.7794 10.9254C11.9283 10.7784 11.6976 10.5584 11.5416 10.7234C11.4008 10.7137 11.2759 10.6599 11.1506 10.606C11.0363 10.5567 10.9216 10.5074 10.7943 10.4914C10.7861 10.4629 10.7698 10.4059 10.7616 10.3769ZM10.0716 10.795C10.0152 10.7897 9.9593 10.7845 9.9046 10.7814C10.119 10.6674 10.3519 10.5819 10.5848 10.5074L10.713 10.5114L10.7091 10.6277L10.7053 10.7439C10.51 10.8358 10.2869 10.815 10.0716 10.795ZM10.7315 10.4949C10.7272 10.5834 10.7234 10.6724 10.7206 10.7609C10.9461 10.8306 11.1865 10.8107 11.4196 10.7915L11.463 10.7879C11.2448 10.6444 10.9934 10.5459 10.7315 10.4949ZM9.8754 10.8684L9.9084 10.7964C10.1484 10.8298 10.3914 10.8229 10.6335 10.8161L10.6584 10.8154C10.5869 11.0462 10.4586 11.2568 10.331 11.4662L10.331 11.4662C10.2942 11.5267 10.2574 11.5871 10.222 11.6479C10.1471 11.498 10.0662 11.3506 9.98526 11.2033L9.98526 11.2033L9.98526 11.2033C9.9372 11.1158 9.88915 11.0284 9.8424 10.9404L9.8754 10.8684ZM10.7632 10.8049C10.7848 10.9756 10.8756 11.1258 10.9669 11.2767C11.0319 11.3843 11.0972 11.4922 11.1379 11.6084C11.059 11.4924 10.9934 11.3698 10.9277 11.2472C10.8553 11.112 10.7829 10.9768 10.6928 10.8504C10.5851 11.062 10.4675 11.2693 10.35 11.4764L10.35 11.4764L10.35 11.4764L10.35 11.4764L10.35 11.4764L10.35 11.4764L10.35 11.4764L10.35 11.4764C10.3134 11.5409 10.2769 11.6053 10.2406 11.6699C10.288 11.7545 10.3335 11.84 10.3791 11.9255L10.3791 11.9255L10.3791 11.9255L10.3791 11.9256L10.3791 11.9256L10.3791 11.9256L10.3791 11.9256L10.3791 11.9256C10.4784 12.1119 10.5778 12.2982 10.6955 12.4754C10.8541 12.2784 10.9656 12.054 11.0764 11.8309C11.1096 11.764 11.1428 11.6973 11.1772 11.6314C11.2691 11.491 11.3477 11.3442 11.4263 11.1975L11.4263 11.1975C11.4716 11.1127 11.517 11.0279 11.565 10.9444C11.5459 10.9079 11.5072 10.8344 11.4875 10.7974C11.2475 10.8294 11.0042 10.8299 10.7632 10.8049ZM11.7087 12.0809V12.0809C11.7034 11.6998 11.6981 11.3181 11.7237 10.9379C11.7643 11.0859 11.8348 11.2225 11.9055 11.3592C11.9496 11.4448 11.9938 11.5304 12.0308 11.6189C11.9904 11.6749 12.0073 11.7354 12.0324 11.7929C11.9772 11.8975 11.9277 12.0042 11.8781 12.111L11.8781 12.111L11.8781 12.111L11.8781 12.111L11.8781 12.111L11.8781 12.111L11.8781 12.111L11.8781 12.1111L11.8781 12.1111L11.8781 12.1111L11.8781 12.1111L11.8781 12.1111L11.8781 12.1111C11.8253 12.2249 11.7724 12.3387 11.7128 12.4499C11.7121 12.327 11.7104 12.204 11.7087 12.081V12.0809V12.0809V12.0809V12.0809V12.0809V12.0809ZM9.76383 10.9654C9.75511 11.4679 9.74965 11.9709 9.76711 12.4729C9.85544 12.3463 9.92777 12.2119 10.0001 12.0775L10.0001 12.0775L10.0001 12.0775C10.0626 11.9612 10.1252 11.845 10.198 11.7339C10.167 11.6759 10.1366 11.6176 10.1062 11.5593C10.0007 11.357 9.89508 11.1544 9.76383 10.9654ZM11.3828 12.0408L11.3828 12.0408C11.3286 11.9382 11.2744 11.8354 11.2088 11.7384C11.2867 11.5847 11.3699 11.4333 11.4531 11.2819C11.5161 11.1673 11.5791 11.0528 11.6397 10.9374C11.6395 11.1054 11.6398 11.2735 11.6401 11.4417V11.4418V11.4418V11.4419V11.442C11.6407 11.7785 11.6413 12.1152 11.638 12.4519C11.5328 12.3253 11.4578 12.1831 11.3828 12.0408ZM9.83744 12.4259L9.84376 12.4507L9.84376 12.4507C9.85236 12.4845 9.86388 12.5298 9.87071 12.5549C9.96393 12.5541 10.0572 12.5557 10.1506 12.5573H10.1506H10.1506H10.1506C10.2806 12.5595 10.4107 12.5618 10.5405 12.5574L10.612 12.4499C10.4989 12.288 10.4074 12.1149 10.3159 11.9421C10.2803 11.8748 10.2447 11.8075 10.2078 11.7409C10.1587 11.8355 10.1059 11.9286 10.0532 12.0218C9.97776 12.1551 9.90231 12.2884 9.83744 12.4259ZM11.014 12.0851C11.0758 11.975 11.1376 11.8649 11.1903 11.7509C11.2625 11.8504 11.3187 11.9581 11.3748 12.0657L11.3748 12.0657L11.3748 12.0657C11.4425 12.1954 11.5102 12.3251 11.6059 12.4404C11.5792 12.4689 11.5268 12.5269 11.5006 12.5559C11.3883 12.5538 11.2761 12.5562 11.164 12.5587C11.0622 12.5609 10.9604 12.5631 10.8586 12.5619C10.854 12.5489 10.8468 12.5294 10.8396 12.5099L10.8396 12.5099L10.8396 12.5099L10.8395 12.5099C10.8323 12.4904 10.8251 12.4709 10.8205 12.4579C10.8765 12.3301 10.9452 12.2077 11.014 12.0851L11.014 12.0851L11.014 12.0851ZM9.85705 12.5809C10.0391 12.7191 10.2672 12.7866 10.4914 12.853L10.4914 12.853C10.552 12.8709 10.6124 12.8888 10.6714 12.9079L10.687 12.8458L10.7134 12.7404C10.697 12.7344 10.6722 12.7255 10.6474 12.7167C10.6226 12.7078 10.5978 12.6989 10.5814 12.6929L10.5696 12.6616L10.5696 12.6616C10.5585 12.6322 10.545 12.5963 10.5372 12.5754C10.4706 12.5754 10.404 12.5742 10.3374 12.5731C10.1772 12.5703 10.017 12.5675 9.85705 12.5809ZM10.7212 12.7469C10.7943 12.7014 10.8554 12.6429 10.9077 12.5784C10.9296 12.5778 10.9516 12.5772 10.9735 12.5766C11.1611 12.5715 11.3491 12.5664 11.5366 12.5749L11.4379 12.6674C11.4045 12.6804 11.3711 12.6936 11.3378 12.7068C11.1355 12.7865 10.9327 12.8665 10.7206 12.9214C10.7212 12.8779 10.7212 12.7904 10.7212 12.7469Z" fill="white"/>
<path fill-rule="evenodd" clip-rule="evenodd" d="M9.25985 11.7465C9.21022 11.657 9.34004 11.625 9.40004 11.5935C9.4044 11.656 9.40822 11.719 9.41149 11.782C9.36022 11.7715 9.31004 11.76 9.25985 11.7465Z" fill="white"/>
</svg>
