<svg width="24" height="24" viewBox="0 0 24 24" fill="none" xmlns="http://www.w3.org/2000/svg">
<path opacity="0.2" d="M12 24C18.6274 24 24 18.6274 24 12C24 5.37258 18.6274 0 12 0C5.37258 0 0 5.37258 0 12C0 18.6274 5.37258 24 12 24Z" fill="white"/>
<path fill-rule="evenodd" clip-rule="evenodd" d="M11.615 3.97476C11.8618 3.97147 12.1085 3.97147 12.3553 3.97887C12.3528 4.16641 12.3503 4.35395 12.3479 4.54232C12.1052 4.54314 11.8634 4.54478 11.6216 4.54725C11.6175 4.35642 11.6158 4.16559 11.615 3.97476Z" fill="white"/>
<path fill-rule="evenodd" clip-rule="evenodd" d="M9.90423 4.21896L10.0054 4.18359C10.0235 4.20169 10.0613 4.23624 10.0794 4.25433C10.1362 4.41884 10.1814 4.58746 10.2291 4.75526C9.9906 4.82024 9.7537 4.88851 9.51681 4.95843C9.4691 4.77583 9.4214 4.59322 9.37451 4.41062C9.553 4.35386 9.72985 4.29052 9.90423 4.21896Z" fill="white"/>
<path fill-rule="evenodd" clip-rule="evenodd" d="M13.8729 4.19922C14.118 4.24364 14.3574 4.31273 14.5926 4.39334C14.5416 4.56936 14.4939 4.74621 14.4438 4.92223C14.2102 4.87535 13.9799 4.81201 13.7471 4.75855C13.7833 4.57101 13.8285 4.38511 13.8729 4.19922Z" fill="white"/>
<path fill-rule="evenodd" clip-rule="evenodd" d="M15.7073 5.51089C15.8101 5.35214 15.9137 5.19422 16.019 5.03711C16.2181 5.16214 16.4171 5.28799 16.6154 5.41466C16.5315 5.57423 16.464 5.75108 16.3267 5.87446C16.0955 5.82346 15.9121 5.6277 15.7073 5.51089Z" fill="white"/>
<path fill-rule="evenodd" clip-rule="evenodd" d="M7.32642 5.47809C7.52547 5.32098 7.74098 5.18691 7.968 5.07422C8.06095 5.23544 8.15307 5.39748 8.23944 5.56363C8.04285 5.68126 7.85613 5.81944 7.64392 5.90828C7.51889 5.77996 7.42759 5.6245 7.32642 5.47809Z" fill="white"/>
<path fill-rule="evenodd" clip-rule="evenodd" d="M17.3828 6.81525C17.5251 6.69845 17.6674 6.58164 17.8105 6.46484C17.9364 6.58658 18.0655 6.7042 18.2004 6.81607C18.2103 6.82594 18.2309 6.84404 18.2415 6.85391C18.2679 7.11465 18.0195 7.23392 17.855 7.38116C17.7003 7.1895 17.5424 7.00196 17.3828 6.81525Z" fill="white"/>
<path fill-rule="evenodd" clip-rule="evenodd" d="M5.78974 6.83961C5.92299 6.73268 6.04555 6.61259 6.16893 6.49414C6.30136 6.6093 6.44119 6.7187 6.55224 6.85606C6.4815 7.00494 6.37457 7.13408 6.26023 7.2517C6.04637 7.54206 5.75273 7.1349 5.68774 6.91857C5.71324 6.89883 5.76424 6.85935 5.78974 6.83961Z" fill="white"/>
<path fill-rule="evenodd" clip-rule="evenodd" d="M4.83396 8.36523C4.9886 8.45407 5.2296 8.45818 5.31432 8.63009C5.28142 8.85958 5.14159 9.05617 5.04288 9.26098C4.87591 9.18284 4.70729 9.10635 4.53784 9.03314C4.62503 8.8053 4.7262 8.58321 4.83396 8.36523Z" fill="white"/>
<path fill-rule="evenodd" clip-rule="evenodd" d="M18.6445 8.53819C18.8156 8.46416 18.9859 8.38848 19.1578 8.31445C19.2491 8.52338 19.3626 8.72737 19.4046 8.95357C19.2845 9.086 19.0854 9.19293 18.9045 9.16332C18.8 8.96262 18.7227 8.74958 18.6445 8.53819Z" fill="white"/>
<path fill-rule="evenodd" clip-rule="evenodd" d="M14.0703 9.6353C14.6946 9.44611 15.323 9.26844 15.9432 9.06445C13.863 10.4628 11.7433 11.8027 9.64829 13.1796C8.74184 13.748 7.87242 14.3773 6.94294 14.907C6.83354 13.0579 6.7225 11.2096 6.61475 9.36057C7.18888 10.0128 7.7515 10.675 8.31165 11.3388C10.2397 10.8017 12.1488 10.1963 14.0703 9.6353Z" fill="white"/>
<path fill-rule="evenodd" clip-rule="evenodd" d="M15.3634 10.1751C15.9301 9.81728 16.4787 9.43068 17.057 9.0918C17.173 10.922 17.2865 12.7521 17.3794 14.5831C17.0899 14.3536 16.8777 14.0476 16.6342 13.7729C16.3208 13.4052 15.9992 13.0449 15.6965 12.6682C13.1433 13.3986 10.6049 14.1809 8.05835 14.9368C10.4857 13.3378 12.9311 11.7659 15.3634 10.1751Z" fill="white"/>
<path fill-rule="evenodd" clip-rule="evenodd" d="M4.07729 10.5469C4.26894 10.5576 4.46059 10.5699 4.65307 10.5822C4.63826 10.8298 4.60618 11.0766 4.55765 11.3201C4.38327 11.3044 4.20807 11.2888 4.03369 11.2748C4.03945 11.0314 4.05755 10.7887 4.07729 10.5469Z" fill="white"/>
<path fill-rule="evenodd" clip-rule="evenodd" d="M19.3379 10.5631C19.5295 10.5327 19.7204 10.4998 19.9128 10.4727C19.9367 10.7186 19.9589 10.9645 19.9729 11.2113C19.7952 11.2278 19.6176 11.2434 19.4399 11.2598C19.3988 11.0287 19.3642 10.7967 19.3379 10.5631Z" fill="white"/>
<path fill-rule="evenodd" clip-rule="evenodd" d="M4.03619 12.8108C4.20975 12.7729 4.38742 12.7622 4.56427 12.7441C4.60704 12.9769 4.64076 13.2113 4.66791 13.4474C4.47625 13.482 4.2846 13.5124 4.0913 13.5338C4.06745 13.2936 4.03455 13.0534 4.03619 12.8108Z" fill="white"/>
<path fill-rule="evenodd" clip-rule="evenodd" d="M19.4506 12.6797C19.6397 12.706 19.8289 12.7373 20.0165 12.7751C19.9745 13.0029 19.9408 13.2316 19.9161 13.4619C19.7261 13.4496 19.5361 13.434 19.3469 13.4183C19.3716 13.1707 19.4086 12.9248 19.4506 12.6797Z" fill="white"/>
<path fill-rule="evenodd" clip-rule="evenodd" d="M18.9588 14.75C19.1257 14.8273 19.2943 14.9013 19.4654 14.9713C19.3824 15.2057 19.282 15.4335 19.1669 15.654C18.9999 15.5758 18.8329 15.4985 18.6667 15.4196C18.7457 15.1892 18.8477 14.9672 18.9588 14.75Z" fill="white"/>
<path fill-rule="evenodd" clip-rule="evenodd" d="M4.59619 15.0447C4.7278 14.9081 4.92356 14.8711 5.09465 14.8086C5.1802 15.0307 5.27644 15.2478 5.37925 15.4633C5.20158 15.5431 5.02309 15.6213 4.84131 15.6904C4.75165 15.479 4.63567 15.2742 4.59619 15.0447Z" fill="white"/>
<path fill-rule="evenodd" clip-rule="evenodd" d="M17.4304 17.1773C17.5612 16.9635 17.7306 16.7759 17.91 16.6016C18.0465 16.7217 18.1855 16.8393 18.3253 16.9561C18.1814 17.1518 18.0218 17.3361 17.8516 17.5097C17.7117 17.3978 17.5719 17.2867 17.4304 17.1773Z" fill="white"/>
<path fill-rule="evenodd" clip-rule="evenodd" d="M5.72803 16.9764C5.86868 16.8646 6.00851 16.7502 6.14752 16.6367C6.30299 16.8226 6.4642 17.0036 6.62707 17.1837C6.48559 17.303 6.34576 17.4231 6.20839 17.5473C6.01674 17.3861 5.84647 17.1985 5.72803 16.9764Z" fill="white"/>
<path fill-rule="evenodd" clip-rule="evenodd" d="M15.7698 18.4495C15.9688 18.3195 16.1712 18.1937 16.3834 18.0859C16.4788 18.2332 16.5742 18.3812 16.6705 18.5285C16.4805 18.6938 16.2666 18.8279 16.0387 18.9332C15.945 18.7736 15.852 18.6148 15.7698 18.4495Z" fill="white"/>
<path fill-rule="evenodd" clip-rule="evenodd" d="M7.38062 18.5882C7.47603 18.4188 7.57967 18.2542 7.69647 18.0996C7.89388 18.2337 8.09376 18.3645 8.29528 18.492C8.19658 18.654 8.09376 18.8144 7.98848 18.9723C7.78531 18.8457 7.58214 18.7182 7.38062 18.5882Z" fill="white"/>
<path fill-rule="evenodd" clip-rule="evenodd" d="M13.822 19.232C14.0458 19.1794 14.267 19.1194 14.4907 19.0684C14.5376 19.2444 14.5853 19.4204 14.6306 19.5981C14.4027 19.677 14.1716 19.7478 13.9388 19.8086C13.8738 19.6219 13.8352 19.4286 13.822 19.232Z" fill="white"/>
<path fill-rule="evenodd" clip-rule="evenodd" d="M9.40649 19.6031C9.46572 19.4263 9.52247 19.2502 9.58252 19.0742C9.81119 19.1392 10.0399 19.2058 10.2677 19.2741C10.2225 19.4534 10.1723 19.6327 10.1238 19.812C9.87781 19.7668 9.63845 19.6952 9.40649 19.6031Z" fill="white"/>
<path fill-rule="evenodd" clip-rule="evenodd" d="M11.6843 19.4884C11.9138 19.4424 12.149 19.4621 12.3818 19.4572C12.3851 19.648 12.3876 19.838 12.39 20.0288C12.1408 20.0313 11.8916 20.0305 11.6423 20.0231C11.6497 19.8438 11.6448 19.6636 11.6843 19.4884Z" fill="white"/>
</svg>
