<svg width="24" height="24" viewBox="0 0 24 24" fill="none" xmlns="http://www.w3.org/2000/svg">
<path opacity="0.2" d="M12 24C18.6274 24 24 18.6274 24 12C24 5.37258 18.6274 0 12 0C5.37258 0 0 5.37258 0 12C0 18.6274 5.37258 24 12 24Z" fill="white"/>
<path fill-rule="evenodd" clip-rule="evenodd" d="M18.5476 10.0938H14.95C14.6142 10.0938 14.3504 10.3617 14.3504 10.7027C14.3504 11.0437 14.6142 11.3117 14.95 11.3117H18.5476C18.8834 11.3117 19.1472 11.0437 19.1472 10.7027C19.1472 10.3617 18.8834 10.0938 18.5476 10.0938ZM7.03524 12.347H5.59619C5.26041 12.347 4.99658 12.6149 4.99658 12.9559C4.99658 13.297 5.26041 13.5649 5.59619 13.5649H7.03524C7.37102 13.5649 7.63485 13.297 7.63485 12.9559C7.63485 12.6149 7.37102 12.347 7.03524 12.347Z" fill="white"/>
<path fill-rule="evenodd" clip-rule="evenodd" d="M12.3162 10.226C12.2064 10.1398 12.071 10.0936 11.9281 10.0936H10.4171C10.0813 10.0815 9.80549 10.3616 9.79349 10.7026C9.79349 11.0436 10.0813 11.3238 10.4171 11.3116H11.6643L14.8062 13.3821L14.7857 13.3475C14.898 13.5259 15.1039 13.6257 15.3099 13.6257H16.8209C17.1567 13.6379 17.4325 13.3577 17.4445 13.0167C17.4445 12.6757 17.1567 12.3956 16.8209 12.4077H15.6936L12.3162 10.226ZM17.9482 12.0546V10.6905C17.9482 10.3616 18.212 10.0937 18.5358 10.0937H18.5598C18.8836 10.0937 19.1474 10.3616 19.1474 10.6905V12.0546C19.1474 12.3834 18.8836 12.6513 18.5598 12.6513H18.5358C18.2 12.6513 17.9482 12.3834 17.9482 12.0546ZM7.395 10.2155L10.6329 12.4078H11.7122C12.0479 12.4078 12.3118 12.6757 12.3118 13.0168C12.3118 13.3578 12.0479 13.6257 11.7122 13.6257H10.2731C10.0689 13.6257 9.88614 13.5276 9.77563 13.352L9.79343 13.3821L6.7954 11.3116H5.59619C5.26041 11.3116 4.99658 11.0437 4.99658 10.7027C4.99658 10.3616 5.26041 10.0937 5.59619 10.0937H7.03524C7.16861 10.0937 7.30197 10.1398 7.40528 10.2259L7.395 10.2155Z" fill="white"/>
</svg>
