<svg width="24" height="24" viewBox="0 0 24 24" fill="none" xmlns="http://www.w3.org/2000/svg">
<path opacity="0.2" d="M12 24C18.6274 24 24 18.6274 24 12C24 5.37258 18.6274 0 12 0C5.37258 0 0 5.37258 0 12C0 18.6274 5.37258 24 12 24Z" fill="white"/>
<path fill-rule="evenodd" clip-rule="evenodd" d="M15.6675 5.84711C15.9067 5.74803 16.0627 5.51453 16.0627 5.25553H16.063C16.063 5.08571 15.9956 4.92283 15.8756 4.80275C15.7555 4.68267 15.5927 4.61521 15.423 4.61523C15.1641 4.61512 14.9307 4.77104 14.8315 5.01029C14.7324 5.24955 14.7871 5.525 14.9701 5.70818C15.1531 5.89137 15.4284 5.9462 15.6675 5.84711ZM9.03438 5.30632C9.03441 5.56534 8.87848 5.79887 8.63931 5.89801C8.40013 5.99714 8.12481 5.94236 7.94175 5.7592C7.75869 5.57605 7.70393 5.3006 7.80302 5.0613C7.90211 4.82201 8.13552 4.666 8.39441 4.66603C8.74786 4.66603 9.03438 4.9527 9.03438 5.30632ZM12.5837 5.16669C12.3128 4.88573 11.9977 4.55889 11.5745 4.74309V4.74287C11.1246 4.91617 11.0496 5.5682 11.4167 5.86831C11.8043 6.20986 12.1717 6.57361 12.539 6.9373L12.5391 6.93732L12.5391 6.93733C12.733 7.12936 12.927 7.32139 13.1239 7.51013C13.341 7.72535 13.6869 7.84182 13.9701 7.68727C14.3385 7.52267 14.4482 6.98173 14.1773 6.68612C13.7051 6.18686 13.2062 5.71357 12.6828 5.26832C12.6504 5.23587 12.6174 5.20163 12.5837 5.16669ZM17.6924 6.60876C17.6027 6.22465 17.0868 6.08353 16.7643 6.25713H16.7644C16.311 6.63962 15.9138 7.08005 15.5166 7.52037L15.5166 7.52038C15.2939 7.7672 15.0713 8.01398 14.8389 8.2505C14.5512 8.54057 14.6542 9.11392 15.0359 9.27187C15.3001 9.39395 15.6292 9.3335 15.8161 9.1072C16.3286 8.57186 16.8415 8.0366 17.3688 7.51587C17.6095 7.28847 17.8289 6.95035 17.6924 6.60876ZM6.45958 6.36358C6.79546 6.1609 7.21073 6.29523 7.45927 6.57076C7.81119 6.92612 8.17008 7.27398 8.52869 7.62158C8.7396 7.826 8.9504 8.03034 9.15965 8.23605C9.53352 8.58207 9.27274 9.31448 8.75109 9.31676C8.43087 9.36608 8.22085 9.14661 8.01635 8.93289C7.94204 8.85523 7.86846 8.77833 7.79058 8.71537C7.27845 8.29096 6.80918 7.81858 6.34456 7.34237C6.08149 7.07134 6.16013 6.57416 6.45987 6.36358H6.45958ZM7.65475 10.6818C8.0059 10.1925 7.45623 9.48243 6.8932 9.69973L6.89386 9.69965C6.39779 10.0361 5.9981 10.4909 5.59847 10.9456C5.36498 11.2112 5.13151 11.4768 4.87884 11.7189C4.49936 12.0708 4.76132 12.7962 5.28297 12.8163C5.64234 12.8597 5.87422 12.5927 6.09087 12.3433C6.14284 12.2834 6.19393 12.2246 6.2457 12.1713C6.43336 11.9593 6.63606 11.7603 6.83867 11.5615C7.12516 11.2803 7.41146 10.9993 7.65475 10.6818ZM18.3104 11.2697C18.6977 11.0166 19.2821 11.3044 19.2945 11.7716C19.3361 12.0924 19.1149 12.3025 18.8992 12.5074C18.8197 12.5829 18.741 12.6577 18.6765 12.737C18.2545 13.2454 17.7912 13.7192 17.313 14.1749C16.9638 14.5052 16.3111 14.2734 16.2484 13.7953C16.1827 13.3983 16.4692 13.1222 16.7359 12.8652L16.736 12.8651C16.8011 12.8024 16.865 12.7408 16.9223 12.6788C17.1421 12.4747 17.3464 12.2539 17.5504 12.0334C17.7953 11.7688 18.0398 11.5046 18.3104 11.27L18.3104 11.2697ZM9.318 15.2419C9.30907 14.7851 8.73822 14.5174 8.36198 14.7426V14.7429C8.05287 15.0129 7.77048 15.3115 7.48784 15.6104L7.48781 15.6104L7.4878 15.6104L7.48779 15.6104L7.48778 15.6104L7.48777 15.6104L7.48777 15.6104L7.48776 15.6104L7.48775 15.6104L7.48774 15.6105L7.48773 15.6105L7.48773 15.6105L7.48772 15.6105L7.48771 15.6105L7.4877 15.6105C7.2615 15.8497 7.03513 16.089 6.79476 16.314L6.78436 16.3241C6.50705 16.5934 6.15176 16.9384 6.29886 17.3642C6.38621 17.811 7.04219 17.9611 7.35004 17.6498C7.82352 17.1883 8.29256 16.7211 8.71351 16.2118C8.77667 16.1338 8.85366 16.06 8.93143 15.9855L8.93143 15.9855L8.93145 15.9855L8.93146 15.9855L8.93146 15.9855L8.93149 15.9854L8.93149 15.9854L8.9315 15.9854L8.93152 15.9854L8.93153 15.9854L8.93153 15.9854L8.93155 15.9854L8.93156 15.9854L8.93156 15.9854L8.93157 15.9854C9.14732 15.7786 9.36902 15.5662 9.318 15.2419ZM15.0473 14.7257C15.2556 14.6541 15.5195 14.6485 15.6954 14.7986C15.9165 15.0087 16.1424 15.2138 16.3682 15.4189C16.8079 15.8183 17.2477 16.2177 17.6522 16.6542C17.8414 16.8457 17.8582 17.1671 17.7329 17.3977C17.5558 17.8121 16.9492 17.8221 16.6548 17.5288C16.372 17.2619 16.0944 16.9886 15.8167 16.7152C15.5108 16.414 15.2048 16.1127 14.8916 15.8198C14.5301 15.5387 14.6151 14.888 15.0473 14.7256L15.0473 14.7257ZM10.9276 16.5366C10.7049 16.3003 10.3408 16.1412 10.0309 16.3092L10.0309 16.3089C9.65921 16.4714 9.54729 17.0189 9.82269 17.3135C10.2795 17.7919 10.7522 18.2567 11.2612 18.679C11.3414 18.7438 11.4166 18.8234 11.4925 18.9037C11.6944 19.1171 11.9012 19.3358 12.2184 19.2982C12.759 19.2927 13.0184 18.5524 12.6348 18.1873C12.0516 17.652 11.4897 17.0944 10.9279 16.5368L10.9279 16.5368L10.9279 16.5368L10.9278 16.5367L10.9278 16.5367L10.9278 16.5367L10.9278 16.5367L10.9278 16.5367L10.9277 16.5367L10.9277 16.5366L10.9277 16.5366L10.9277 16.5366L10.9277 16.5366L10.9276 16.5366ZM10.2601 7.64963C10.6135 7.64961 10.9 7.36295 10.9 7.00933C10.9 6.8395 10.8326 6.67663 10.7126 6.55655C10.5925 6.43647 10.4297 6.36901 10.26 6.36903C9.90656 6.36908 9.62007 6.65576 9.6201 7.00938C9.62012 7.36299 9.90666 7.64964 10.2601 7.64963ZM5.90268 8.5738C5.90274 8.83282 5.74683 9.06637 5.50766 9.16553C5.2685 9.2647 4.99318 9.20995 4.8101 9.02681C4.62701 8.84368 4.57223 8.56824 4.67128 8.32893C4.77034 8.08962 5.00374 7.93358 5.26263 7.93358C5.43236 7.93356 5.59515 8.001 5.71518 8.12107C5.83521 8.24113 5.90266 8.40399 5.90268 8.5738ZM19.377 8.41319C19.377 8.76682 19.0905 9.05349 18.7371 9.05349C18.3836 9.05349 18.0971 8.76682 18.0971 8.41319C18.0971 8.05957 18.3836 7.7729 18.7371 7.7729C19.0905 7.7729 19.377 8.05957 19.377 8.41319ZM16.9882 10.8933C17.3417 10.8933 17.6282 10.6066 17.6281 10.253C17.6281 10.0831 17.5607 9.92029 17.4406 9.80023C17.3206 9.68016 17.1578 9.61272 16.9881 9.61274C16.6346 9.61278 16.3481 9.89948 16.3482 10.2531C16.3482 10.6067 16.6348 10.8934 16.9882 10.8933ZM19.3742 15.4241C19.3742 15.7777 19.0877 16.0644 18.7343 16.0644C18.3808 16.0644 18.0943 15.7778 18.0943 15.4241C18.0943 15.0705 18.3807 14.7838 18.7342 14.7838C18.9039 14.7838 19.0667 14.8512 19.1868 14.9713C19.3068 15.0914 19.3742 15.2543 19.3742 15.4241ZM13.9877 17.5774C14.2268 17.4782 14.3827 17.2447 14.3827 16.9857C14.3827 16.8159 14.3153 16.653 14.1952 16.5329C14.0752 16.4128 13.9124 16.3454 13.7427 16.3454C13.4838 16.3454 13.2504 16.5014 13.1513 16.7407C13.0523 16.98 13.107 17.2555 13.2901 17.4386C13.4732 17.6217 13.7485 17.6765 13.9877 17.5774ZM16.2243 18.7368C16.2244 18.9958 16.0685 19.2294 15.8293 19.3285C15.5902 19.4277 15.3148 19.3729 15.1318 19.1898C14.9487 19.0067 14.8939 18.7312 14.993 18.4919C15.092 18.2526 15.3254 18.0966 15.5843 18.0966C15.754 18.0966 15.9168 18.164 16.0368 18.2841C16.1569 18.4041 16.2243 18.567 16.2243 18.7368ZM8.81993 19.3285C9.0591 19.2294 9.21504 18.9958 9.21501 18.7368C9.21501 18.3832 8.92848 18.0965 8.57503 18.0965C8.31614 18.0965 8.08273 18.2525 7.98364 18.4918C7.88456 18.7311 7.93931 19.0065 8.12237 19.1897C8.30544 19.3728 8.58075 19.4276 8.81993 19.3285ZM7.65412 13.7219C7.65415 13.9809 7.49822 14.2145 7.25904 14.3136C7.01986 14.4127 6.74455 14.3579 6.56149 14.1748C6.37842 13.9916 6.32367 13.7162 6.42276 13.4769C6.52184 13.2376 6.75525 13.0816 7.01414 13.0816C7.36759 13.0816 7.65412 13.3683 7.65412 13.7219ZM5.50761 16.1744C5.74678 16.0753 5.90271 15.8418 5.90268 15.5828C5.90268 15.4129 5.83524 15.2501 5.71521 15.13C5.59517 15.0099 5.43237 14.9425 5.26263 14.9425C5.00374 14.9425 4.77035 15.0985 4.67129 15.3378C4.57223 15.5771 4.627 15.8525 4.81007 16.0357C4.99314 16.2188 5.26845 16.2736 5.50761 16.1744Z" fill="white"/>
</svg>
