<svg width="24" height="24" viewBox="0 0 24 24" fill="none" xmlns="http://www.w3.org/2000/svg">
<path opacity="0.2" d="M12 24C18.6274 24 24 18.6274 24 12C24 5.37258 18.6274 0 12 0C5.37258 0 0 5.37258 0 12C0 18.6274 5.37258 24 12 24Z" fill="white"/>
<path fill-rule="evenodd" clip-rule="evenodd" d="M16.8883 9.30556C17.4668 10.193 17.7743 11.2297 17.7733 12.2891C17.7741 13.3485 17.4663 14.3852 16.8876 15.2726L19.0386 17.4236L17.4231 19.0391L15.2721 16.8881C14.4126 17.4468 13.3896 17.7738 12.2886 17.7738C11.1876 17.7738 10.1646 17.4468 9.30507 16.8881L7.15407 19.0391L5.53857 17.4236L7.68957 15.2726C7.13157 14.4131 6.80382 13.3901 6.80382 12.2891C6.80382 11.1881 7.13082 10.1651 7.68957 9.30556L5.53857 7.15456L7.15407 5.53906L9.30507 7.68931C10.1646 7.13131 11.1876 6.80431 12.2886 6.80431C13.3896 6.80431 14.4126 7.13131 15.2721 7.69006L17.4231 5.53906L19.0386 7.15456L16.8883 9.30556ZM12.2886 8.91406C10.4278 8.91406 8.91357 10.4283 8.91357 12.2891C8.91564 14.1522 10.4255 15.662 12.2886 15.6641C12.7628 15.664 13.2316 15.5633 13.6641 15.3686L11.4366 13.1411L13.1406 11.4363L15.3681 13.6638C15.5563 13.2431 15.6636 12.7788 15.6636 12.2891C15.6636 10.4283 14.1493 8.91406 12.2886 8.91406Z" fill="white"/>
</svg>
