<svg width="24" height="24" viewBox="0 0 24 24" fill="none" xmlns="http://www.w3.org/2000/svg">
<path opacity="0.2" d="M12 24C18.6274 24 24 18.6274 24 12C24 5.37258 18.6274 0 12 0C5.37258 0 0 5.37258 0 12C0 18.6274 5.37258 24 12 24Z" fill="white"/>
<path fill-rule="evenodd" clip-rule="evenodd" d="M9.10606 7.48358C9.60305 7.38659 10.1022 7.50783 10.5955 7.5692C10.8437 7.61012 11.1516 7.64043 11.2734 7.90489C11.2616 7.87003 11.2373 7.80107 11.2254 7.76622C11.4307 7.84502 11.6331 7.93292 11.8332 8.02537C11.7726 8.08523 11.7091 8.14282 11.6434 8.19662C11.6818 8.18904 11.7594 8.17465 11.7978 8.16707C11.5541 8.42243 11.2535 8.60884 11.0069 8.86041C10.6398 9.22261 10.3349 9.64695 10.1 10.1099C10.1126 10.0667 10.137 9.9796 10.1495 9.93641C9.68132 9.93944 9.19468 9.86064 8.74643 10.0417C7.69339 10.3971 6.93203 11.5368 7.06348 12.6787C7.11739 12.9636 7.15948 13.2569 7.27025 13.5259C7.542 14.0768 7.99911 14.5284 8.54483 14.789C9.13339 15.052 9.81572 15.0467 10.4213 14.8481C11.0224 14.6155 11.5408 14.1472 11.8177 13.5509C11.961 13.2175 12.037 12.8568 12.057 12.4946C12.8597 12.4893 13.6631 12.4961 14.4658 12.4923C14.4126 12.953 14.4045 13.4251 14.2561 13.8684C14.163 14.2268 13.9902 14.5549 13.8544 14.8966C13.3862 15.6627 12.791 16.3887 11.9853 16.7918C11.5998 16.9858 11.221 17.2131 10.7912 17.2904C10.36 17.3699 9.92723 17.4722 9.48711 17.4722C8.75677 17.3965 8.0124 17.2836 7.35369 16.9304C6.83751 16.6448 6.3324 16.3068 5.95431 15.8393C5.67148 15.5051 5.39751 15.1588 5.19369 14.7663C5.25277 14.6617 5.23209 14.5504 5.16415 14.4571C5.14126 14.4776 5.09474 14.5193 5.07185 14.5397C4.93375 14.1874 4.84957 13.8176 4.75579 13.4516C4.53794 12.534 4.65979 11.5701 4.96699 10.6896L4.99579 10.6775C5.58951 8.90057 7.29535 7.62528 9.10606 7.48358Z" fill="white"/>
<path fill-rule="evenodd" clip-rule="evenodd" d="M12.8243 7.70729C13.8293 7.35721 14.9311 7.35948 15.9502 7.64667C17.3533 8.1195 18.5444 9.23491 19.0636 10.6618C19.2312 11.0876 19.2866 11.5453 19.3848 11.9901V12.8729C19.2437 14.1247 18.6921 15.3401 17.7624 16.1789C16.8548 17.0549 15.6009 17.4944 14.364 17.4807C13.5303 17.4595 12.7098 17.2155 11.9854 16.7919C12.7911 16.3888 13.3863 15.6629 13.8544 14.8968C14.7561 15.1605 15.7774 14.8089 16.3637 14.0625C16.8844 13.451 17.0719 12.5523 16.8445 11.7756C16.6451 10.9762 16.0159 10.323 15.259 10.0624C14.5678 9.82292 13.774 9.90476 13.1566 10.3102C12.4211 10.7368 12.0179 11.59 11.9566 12.4334C11.148 12.425 10.3394 12.4311 9.53149 12.4303C9.54257 11.6249 9.73826 10.8254 10.1001 10.1101C10.3349 9.64713 10.6399 9.22279 11.0069 8.86058C11.2536 8.60901 11.5541 8.4226 11.7978 8.16724C11.8074 8.15815 11.8274 8.1392 11.837 8.13011C12.184 8.03615 12.4861 7.82701 12.8243 7.70729Z" fill="white"/>
</svg>
