<svg width="24" height="24" viewBox="0 0 24 24" fill="none" xmlns="http://www.w3.org/2000/svg">
<g clip-path="url(#clip0_16_2235)">
<path d="M5.07 16C5.023 15.6688 4.99961 15.3346 5 15V14H3V12H5V11C5 10.66 5.024 10.327 5.07 10H3V8.00003H5.674C6.28697 6.71154 7.27751 5.64008 8.514 4.92803L7.464 3.87803L8.88 2.46503L10.563 4.14903C11.5114 3.95083 12.4906 3.95083 13.439 4.14903L15.122 2.46503L16.537 3.88003L15.487 4.93003C16.7228 5.64172 17.713 6.71242 18.326 8.00003H21V10H18.93C18.976 10.327 19 10.66 19 11V12H21V14H19V15C19 15.34 18.976 15.673 18.93 16H21V18H18.326C17.7586 19.1977 16.8629 20.2096 15.7431 20.9183C14.6232 21.6269 13.3252 22.0031 12 22.0031C10.6748 22.0031 9.37677 21.6269 8.25692 20.9183C7.13707 20.2096 6.24138 19.1977 5.674 18H3V16H5.07ZM9 10V12H15V10H9ZM9 14V16H15V14H9Z" fill="#09121F"/>
</g>
<defs>
<clipPath id="clip0_16_2235">
<rect width="24" height="24" fill="white"/>
</clipPath>
</defs>
</svg>
