<svg xmlns="http://www.w3.org/2000/svg" width="300.001" height="300.001" viewBox="0 0 300.001 300.001"><g transform="translate(0.001 0.004)"><path d="M300,0H0V300H300Z" fill="#fff"/><path d="M190.62,2.82c1.38,1.86,3,3.6,4.5,5.34s2.88,2.28,3.24,3.72c.72,2.94,2.7,3.72,5.04,4.5s2.4-.06,2.52-1.74c.3-4.86.66-9.78,1.02-14.64H189a26.359,26.359,0,0,0,1.62,2.82Z" fill="#00cccd"/><path d="M15.9,3.9a23.645,23.645,0,0,0,13.8,8.34c3.96.78,4.68.18,4.08-3.72C33.3,5.64,32.646,2.82,32.046,0h-15.9C15.9,1.44,15.3,3.12,15.9,3.9Z" fill="#f1f1f1"/><path d="M39.12,1.44c1.62,2.52,3.48,4.8,5.16,7.26s3.78,3.42,6.66,2.1a18.95,18.95,0,0,1,3.12-.84C52.98,6.54,52.02,3.24,51,0H38.7a2.7,2.7,0,0,0,.42,1.44Z" fill="#ff0028"/><path d="M137.341,2.04c.18,4.26.42,8.58.96,12.84.12,1.08,1.32,2.04,2.04,3.06.48-1.08,1.44-2.16,1.44-3.24-.06-4.2-.3-8.34-.6-12.54a13.175,13.175,0,0,0-.24-2.16h-3.3a7.967,7.967,0,0,0-.3,2.04Z" fill="#00cccd"/><path d="M85.081.06H73.621c1.5.9,3.12,1.68,4.56,2.7,5.64,4.02,5.76,3.96,6.9-2.7ZM237.3,3.42c1.5-.36,2.82-.3,3.54-.96A22.953,22.953,0,0,0,243.178,0H237.3ZM226.919,3,228,2.88,229.8,0h-4.2c.48,1.02.9,2.04,1.32,3Zm-80.64-.84a11.6,11.6,0,0,0,4.74-.3,11.055,11.055,0,0,0-.06-1.86H144.6c.54.9.96,1.98,1.68,2.16Zm34.2.06A23.841,23.841,0,0,0,183.72,0h-4.14Zm-64.922.06L117.778,0h-3.9l1.68,2.28Z" fill="#f1f1f1"/><path d="M180.121,162.358c.78-.42,1.98-.6,2.22-1.2a26.571,26.571,0,0,0,1.5-5.7c.06-.48-1.02-1.2-1.68-1.56a3.361,3.361,0,0,0-2.1-.54,4.092,4.092,0,0,0-2.64,1.08,2.568,2.568,0,0,0,.3,2.52c.42.66,2.16,2.28,3.36,3.54l-1.32.84Z" fill="#fff"/><path d="M141.539,115.739a22.921,22.921,0,0,1-2.64,1.5,4.734,4.734,0,0,0-1.56,7.2c1.92,2.4,4.14,6.12,7.02,7.74a66.29,66.29,0,0,0,6.24,2.94,11.647,11.647,0,0,1-1.02-3.3c-.06-1.38.24-3.36,1.08-3.96s3.3-.96,4.32-.3c2.04,1.32,3.6,3.36,5.28,5.16s1.92,2.22,3.24,3.84c-1.14.78-2.1,1.68-3.12,2.4l1.14.48c1.8-.78,4.2-1.14,5.34-2.52s3.06-5.34,4.56-8.04a7.213,7.213,0,0,0-1.56-8.7c-3.42-3.06-7.8-3-11.7-4.38a3.121,3.121,0,0,0-2.22.6c-1.68,1.02-2.94.6-4.38-.54-3.72-2.94-6.18-2.88-10.02-.12Z" fill="#f1f1f1"/><path d="M141.961,24.059c-1.62-1.56-3.3-1.14-4.26.72a35.7,35.7,0,0,0-2.46,6.36c-1.2,4.32-1.98,8.76-3.3,13.08-.84,2.7-.9,4.86,1.08,7.2s3.96,5.7,6.12,8.4c.72.96,2.22,1.98,3.24,1.86,3.78-.48,10.44-8.28,10.98-12.06a57.114,57.114,0,0,1,1.74-7.02c.36-1.2.66-2.46,1.08-3.96a6.106,6.106,0,0,0-.78-1.68Z" fill="#731fe0"/><path d="M240,31.679c3.06,1.14,5.88,2.88,8.88,4.2,1.68.78,3.48,1.32,4.92,1.86,4.5-.78,8.52-1.26,11.46-4.86,1.56-1.92,2.04-3.48.36-5.52s-1.86-3-2.88-4.5-1.62-3.3-2.88-3.78c-4.08-1.56-7.2-4.32-10.08-7.38-1.38-1.44-2.88-1.74-4.56-.6a27.615,27.615,0,0,0-3.84,2.4,3.342,3.342,0,0,0-1.2,2.46,23.727,23.727,0,0,1-1.92,12.06c-.66,1.74-.36,2.82,1.74,3.66Z" fill="#d9bc23"/><path d="M297.776,33.175c-.419,4.02-.779,7.98-1.26,12-.24,2.1.721,3.78,2.581,4.2a2.28,2.28,0,0,0,.9-.06v-30c-.662.72-.9,1.86-1.081,3.66-.361,3.425-.78,6.785-1.14,10.2ZM243.357,51.239c-5.34-.6-9.96,2.28-15,3.36a6.816,6.816,0,0,0-2.64,1.98c-.78.78-1.68,5.34-.06,6.9A31.112,31.112,0,0,0,243,71.339c5.7.78,6.96-.78,6.96-5.04s-.96-8.1-1.86-12.06c-.48-2.28-2.64-2.759-4.74-3Z" fill="#c000ff"/><path d="M128.88,92.038a4.381,4.381,0,0,1-1.32,2.28c-1.98,1.44-3.18,3.12-2.64,5.4.12,4.32.48,4.68,4.56,5.4l3.18.84c4.38,1.14,8.7,2.4,13.08,3.36,1.86.42,3.54-.18,3.3-2.64-.48-5.94-1.2-11.76-6.54-15.72-1.32-1.02-2.16-2.7-3.48-3.6-3.42-2.28-9.06.48-10.14,4.68Z" fill="#d9bc23"/><path d="M103.619,55.319a29.6,29.6,0,0,0-2.64,4.62c-.84,1.56-1.5,3.18-2.28,4.8l-2.7,5.4c.24,1.92.42,2.88.48,3.9.36,3.96,2.34,5.04,6.12,3.48s8.16-3.54,12.42-4.44,4.56-3.18,5.88-5.7a2.282,2.282,0,0,0-.3-2.16c-4.02-3.54-8.04-7.08-12.18-10.44a3.145,3.145,0,0,0-4.8.54Z" fill="#00cccd"/><path d="M103.62,42.42c.54,2.94,2.28,3.12,4.62,2.22,5.46-1.92,10.38-4.56,14.16-9.06,1.98-2.34,1.5-6.96-1.2-8.52l-4.86-2.94c-2.52-1.56-6.66-1.8-8.1.18-2.7,3.78-6.18,7.32-6.06,12.66.48,1.8,1.08,3.6,1.44,5.46Z" fill="#c000ff"/><path d="M262.5,91.439c2.28,2.28,5.22,2.76,7.74.9a9.5,9.5,0,0,0,3.42-10.8,12.3,12.3,0,0,1-.48-2.52c.12-3.6-.84-4.92-2.82-5.1a19.441,19.441,0,0,1-5.22-1.2c-3.24-1.44-6.12-.48-7.38,2.64a4.5,4.5,0,0,1-1.08,1.68,6.2,6.2,0,0,0-.3,9.36c2.82,2.64,4.26,3.18,6.12,5.04Z" fill="#d9bc23"/><path d="M260.7,137.638c1.62.42,3.24.84,4.92,1.14,3.24.66,7.02-.72,8.16-3.6a35.572,35.572,0,0,0,2.4-9.24c.36-3.24-1.98-7.2-4.68-7.14s-6.24-1.86-9.48-2.28-3.3.72-3,3,1.02,3.42.66,4.92A21.539,21.539,0,0,0,260.7,137.638ZM32.162,82.019a3.652,3.652,0,0,0-.48,5.64,114.8,114.8,0,0,0,9.24,9.48,4.9,4.9,0,0,0,7.5-.66,36.628,36.628,0,0,0,4.14-7.86,3.482,3.482,0,0,0-.24-2.88c-2.64-3.96-6.84-5.64-11.46-7.86-2.88,1.32-6.06,2.34-8.7,4.14Z" fill="#f1f1f1"/><path d="M193.5,19.319c-2.64-.18-5.16-1.32-7.56-1.56s-6.18,1.68-9.24,2.7c-.24.12-.36.66-.66,1.2l2.64.6c.06,7.38,2.4,7.56,7.38,8.58,1.74.36,3.9-.24,5.28.54,4.56,2.58,7.44,1.02,10.08-2.88,1.56-2.28,3.84-4.08,5.7-6.12.24-.18.12-.72.18-1.38l-1.8.84V20.1l-12-.78Z" fill="#d9bc23"/><path d="M155.341,5.34c-3.96,2.22-4.98,5.64-5.7,10.2a23.049,23.049,0,0,1-.9-2.64c-1.2,4.68.18,7.92,3.24,8.1s7.62-.18,10.2-4.08,5.4-6.96,8.04-10.44c.42-.54.96-1.62.84-1.74-1.92-1.62-3.84-3.24-5.82-4.74h-4.38C159,1.8,157.5,4.14,155.341,5.34Z" fill="#f1f1f1"/><path d="M39.417,32.82c1.74,2.46,5.82,3.18,5.34,7.2-.06.18.42.42.66.6,4.02,3.24,8.64,2.46,10.8-2.22,1.32-2.88,1.8-6.12,2.64-8.94a40.78,40.78,0,0,0-1.68-5.88,3.155,3.155,0,0,0-5.22-1.08A18.722,18.722,0,0,1,41.4,27.78c-3.72.54-4.14,2.04-1.98,5.04Z" fill="#d9bc23"/><path d="M294.238,133.5c2.1,2.16,2.7,2.1,4.14-.48l1.62-2.94V109.5l-.779-.24c-2.76,3.48-6.24,5.7-7.74,10.2s-.781,10.38,2.759,14.04ZM86.162,79.2a24.247,24.247,0,0,1-3.36-1.08,30.2,30.2,0,0,0-6.42-1.2c-1.02,0-2.34,1.14-3,2.1-1.44,2.16-2.28,4.68-3.84,6.72s-1.38,3.84.84,5.16l8.94,4.98c3.24-3.06,6.24-5.76,9.12-8.7.9-.9,2.04-2.46,1.86-3.54-.42-2.04-1.261-4.26-4.14-4.44Z" fill="#c000ff"/><path d="M295.737,89.159c1.562,1.14,2.7,2.88,4.26,4.14v-9.12l-.659.42a17.137,17.137,0,0,0-3,2.52,3.085,3.085,0,0,0-.6,2.04Z" fill="#f1f1f1"/><path d="M58.023,60.66c-1.62-.9-3.66-2.04-5.64-.24-.3.24-.96.06-1.5.12-3.12.12-4.2,1.5-3.6,4.62a37.547,37.547,0,0,0,1.74,5.76,2.644,2.644,0,0,0,1.5,1.68c4.08,1.02,8.22,1.86,12.6,2.82.66-.12,1.62-.36,2.64-.48,5.16-.9,6.36-3.3,2.7-6.96s-6.78-5.16-10.44-7.32Z" fill="#00cccd"/><path d="M276.478,31.259c1.02,1.44,1.56,3.24,2.46,4.8a41.082,41.082,0,0,0,3.36,5.64c1.92,2.4,3.6,2.46,5.28-.06,2.58-4.02,4.86-8.22,7.2-12.36a9.008,9.008,0,0,0,.48-2.28c-1.14-1.2-2.579-2.76-4.079-4.2s-3.36-2.04-4.68.6c-.36.6-1.44.9-2.22,1.2a77.824,77.824,0,0,0-7.26,3.12c-1.321.721-1.681,1.981-.541,3.54Z" fill="#ff0028"/><path d="M282.593,53.339c-1.2.48-1.92,2.76-2.1,4.38a72.172,72.172,0,0,0-.12,9.54c.06.96.18,2.34.84,2.76a89.21,89.21,0,0,0,8.76,4.98c.3.12,1.32-.48,1.56-1.02,1.14-2.28,2.041-4.68,3-7.02-.36-5.58-2.519-9.9-6.779-12.9a6.334,6.334,0,0,0-5.161-.72Z" fill="#f1f1f1"/><path d="M184.14,119.1c1.26,2.82,3,5.46,4.44,8.16s2.28,1.92,3.96,1.14,4.32-2.1,6.54-3c4.08-1.74,4.68-3,2.94-7.14a28.229,28.229,0,0,0-1.86-4.38,7.523,7.523,0,0,0-2.28-2.1c-3.96.84-7.2,1.38-10.38,2.22a4.8,4.8,0,0,0-2.7,1.86,4.086,4.086,0,0,0-.66,3.24Z" fill="#ff0028"/><path d="M153.3,64.26c-3,.54-5.88,1.2-8.82,1.92s-5.46,3.6-6.18,7.5c.54,1.14.84,2.58,1.74,3.36a49.678,49.678,0,0,0,4.86,2.88c1.62.96,6.12,1.02,6.9-.42a114.958,114.958,0,0,0,5.22-11.16c1.38-3.6-.18-4.8-3.72-4.08ZM81.9,30.06c-1.68-.3-3.42-.36-5.58-.6a5.812,5.812,0,0,0-4.68,1.02c-2.58,1.92-.3,10.08,2.7,11.28a17.644,17.644,0,0,1,5.16,3.18c1.26,1.08,2.1,1.32,3.66.6,3.96-1.68,4.2-5.1,4.32-8.52.24-5.94.18-6-5.58-6.96Z" fill="#00cccd"/><path d="M209.52,31.5a81.182,81.182,0,0,0,11.22,4.86,78.8,78.8,0,0,0,7.62,2.22,5.14,5.14,0,0,0,1.8-1.32,2.642,2.642,0,0,0-.12-2.22,14.577,14.577,0,0,0-2.46-2.64c-3.12-2.76-6.42-5.4-9.42-8.34-4.62-4.44-4.5-4.5-9.24-.6C205.68,26.219,205.74,29.4,209.52,31.5Z" fill="#f1f1f1"/><path d="M210.78,159.838a2.461,2.461,0,0,0-.06-2.16,12.839,12.839,0,0,0-2.46-2.64c-3.12-2.82-6.42-5.46-9.42-8.34-4.62-4.44-4.5-4.56-9.24-.6-3.24,2.7-3.18,5.94.54,7.98A96.509,96.509,0,0,0,201.36,159c2.34.9,4.86,1.38,7.68,2.16.479-.3,1.38-.66,1.74-1.32Z" fill="#c002f9"/><path d="M163.5,54.9a7.95,7.95,0,0,0,5.82-.6c3.3-1.74,4.02-5.1,3.9-8.58l.78-.42c-1.02-1.74-1.68-4.08-3.18-5.1s-4.32-1.38-6.6-1.86-4.26.06-5.46,2.52c-2.22,4.32.18,12.3,4.74,14.04ZM134.039,7.32c0-8.34-1.5-6.48-7.38-6.6-4.92-.12-10.86,6.24-10.92,11.94a15.472,15.472,0,0,0,1.5-1.26c1.74-2.22,3.72-2.4,5.52-.24s3.78,5.22,5.7,7.86c5.94-2.88,6.6-4.02,5.88-9.6C134.279,8.7,134.039,8.04,134.039,7.32Z" fill="#f1f1f1"/><path d="M185.16,83.4c.54,3.24,1.38,6.48,2.04,9.72s1.26,7.32,2.22,10.92a3.778,3.778,0,0,0,2.4,2.46c3.36.48,7.32-3.42,7.38-7.44a9.351,9.351,0,0,0-.84-2.34c-2.22-4.14-4.56-8.22-6.96-12.3a11.406,11.406,0,0,0-2.64-3.24,12.753,12.753,0,0,0-3.06-1.32A10.82,10.82,0,0,0,185.16,83.4Z" fill="#c000ff"/><path d="M166.86,87.419c2.22,2.22,5.34,1.98,8.1-.36a27.719,27.719,0,0,0,8.22-12.12c-1.14-1.68-1.98-4.08-3.72-5.16s-4.02.24-4.92,1.38a128.26,128.26,0,0,0-8.76,13.14c-.36.66.36,2.34,1.08,3.12ZM60.422,12.119a1.862,1.862,0,0,0,.12,1.62c1.56,1.74,3.18,3.059,5.88,3.059s7.2-.06,9.42,1.68a7.071,7.071,0,0,0,7.8.36c1.14-.66,1.98-1.98,2.94-3-1.26-1.2-2.34-2.7-3.78-3.54a32.586,32.586,0,0,0-5.82-2.28l-8.94-2.64a8.173,8.173,0,0,0-7.62,4.74Zm70.078,60c-2.7-2.16-5.52-2.1-8.58-.36a27.235,27.235,0,0,1-6.78,3c-2.4.6-3.3,1.8-3.54,4.14s-.72,3.9-.96,5.88a21.251,21.251,0,0,0-.12,3.36,9.852,9.852,0,0,0,3.36-.72c4.8-3.12,9.48-6.42,14.22-9.6l2.82-1.74a11.817,11.817,0,0,0,1.56-1.5A12.207,12.207,0,0,0,130.5,72.119Zm122.338,39.36a4.621,4.621,0,0,1-1.92-.54l-5.16-2.82c-5.1.66-5.4,1.08-4.08,5.76.9,3.18,1.56,6.42,2.58,9.54a4.424,4.424,0,0,0,2.22,2.52c3.54,1.14,8.04-2.34,8.34-6.06a31.269,31.269,0,0,1,.78-4.74C256.258,112.2,255.838,111.6,252.838,111.479Z" fill="#f1f1f1"/><path d="M87.6,114.479c.54,3.72,1.5,4.5,5.34,3.96a20.256,20.256,0,0,1,1.32-2.82c.9-1.44,2.28-2.7,2.82-4.2a12.553,12.553,0,0,1,6.24-6.66c1.14-.6,2.76-1.2,3.12-2.22s.06-3.3,0-4.92a20.381,20.381,0,0,0-3.9.72c-1.2.48-3.72,2.7-5.7,3.06a11.867,11.867,0,0,0-9.24,13.08Z" fill="#ff0028"/><path d="M190.559,74.759c.06.18-.12.48,0,.6.78,1.44,1.38,3.18,2.64,4.14s2.7-.12,3.54-.84a102.01,102.01,0,0,0,7.44-7.86,16.339,16.339,0,0,0,1.8-3.24c-.48-5.46-5.22-2.7-7.38-4.62-.6-.54-2.46.24-3.72.48-.12,0-.18.12-.24.18-3.3,3-7.68,5.64-4.08,11.16ZM55.143,50.279c-.3,4.32,1.74,6.54,6.84,6.54,3.54-.36,7.62-.66,11.16-4.2s3.54-3.54-.24-5.94a9.959,9.959,0,0,0-2.22-.84c-5.46-1.62-9.84,1.92-14.76,3-.36.061-.72.9-.78,1.44Zm216.776,59.639a13.9,13.9,0,0,0,5.76,6c2.64,1.62,3.84.48,5.1-1.62a16.743,16.743,0,0,1,2.82-3.84c1.86-1.62,1.98-2.88-.12-4.2a13.16,13.16,0,0,1-1.38-1.2l-6.3-4.14c-6.3,1.381-9.24,2.581-5.88,9ZM292.858,5.58a26.666,26.666,0,0,1-3.12-.9c-2.7-.12-3.78,1.02-3.48,3.66s.06,4.2.18,6.24.66,3.18,3,2.52l10.56-3V6.18h-.48a35.691,35.691,0,0,1-6.659-.6Z" fill="#f1f1f1"/><path d="M225.419,94.019c.42-.06.96.66,1.74,1.26.78-1.5,1.38-2.7,2.1-3.84a23.2,23.2,0,0,1,1.8-2.34c.6-.78,2.46-2.52,2.28-3.6s-1.92-2.28-3.42-3.9c.66-3.72-4.14-4.26-6.48-7.68-.12,1.74-.24,2.82-.3,3.96s.18,1.5-.18,1.86c-2.94,2.94-1.92,6.54-2.04,10.08s1.14,4.74,4.5,4.2Z" fill="#731fe0"/><path d="M228.539,12.24c-1.44,0-3.06-.48-4.2.12a11.582,11.582,0,0,0-4.08,3.9c-.3.54,1.02,2.34,1.86,3.24,1.74,1.86,3.6,3.54,5.46,5.22a4.145,4.145,0,0,0,1.92,1.2c2.46.3,7.26-5.58,6.66-7.92-1.26-5.04-2.22-5.76-7.62-5.76Z" fill="#ff0028"/><path d="M261.659,51.359c1.62,0,3.36.12,4.98,0,2.7-.3,5.04-1.26,6.12-4.08.54-1.44,1.02-3.12,2.04-4.14a3.168,3.168,0,0,0,0-4.74c-.6-.54-.84-1.5-1.5-1.86s-3-2.04-4.02-1.62-1.56,2.4-2.16,3.78,0,1.14,0,1.68c-3.24,1.26-6.3,7.44-5.46,10.98Z" fill="#f1f1f1"/><path d="M219.6,42.36c-3.66-.06-5.46,1.08-6.9,5.04-.48,1.32-.48,3.66.36,4.56,1.86,2.16,4.14,4.5,7.62,2.04.84-.6,2.34-.18,3.48-.54s2.28-1.08,2.34-1.74C227.1,46.978,225,42.239,219.6,42.36Zm61.318,56.882c2.28.9,4.74,1.38,5.88-1.5a42.419,42.419,0,0,0,1.74-6.24v-9.36c-.06-1.8-2.16-3.3-3.6-2.34a6.723,6.723,0,0,0-2.28,3c-1.38,3.54-2.4,7.26-3.72,10.8-.78,2.217-.06,4.74,1.98,5.64Z" fill="#00cccd"/><path d="M267.179,1.62a4.174,4.174,0,0,0-3.78.66,3.5,3.5,0,0,0-.12,3.66,58.691,58.691,0,0,0,8.22,8.16c1.2.96,4.08,1.56,4.86.84s2.4-4.02,3.72-6.48a10.8,10.8,0,0,0-1.8-1.56c-3.66-1.86-7.32-3.78-11.1-5.28ZM255.66,67.679c.72,1.08,4.74,1.5,5.22.78,1.74-2.52,4.44-1.74,6.48-2.88,1.08-.54,2.7-1.32,2.76-2.1a6.028,6.028,0,0,0-1.74-3.42,56,56,0,0,0-5.4-3.78,7.238,7.238,0,0,0-2.34-.78,25.96,25.96,0,0,0-3.06,2.52c-.96,1.08-1.32,2.34-2.22,3.36-1.92,2.22-.72,4.74.3,6.3Z" fill="#f1f1f1"/><path d="M221.458,116.939c-1.68-5.1-3.84-9.36-7.86-12.3-1.26-.9-2.94-.36-3.36,1.62a64.92,64.92,0,0,0-1.02,6.72,3.84,3.84,0,0,0,.72,2.52c.78,1.38,1.56,3.06,2.82,3.66a12.54,12.54,0,0,0,6.24,1.26c.9-.12,1.68-2.28,2.46-3.48Z" fill="#c000ff"/><path d="M164.039,96.6c.54.66.9,1.38,1.26,1.44,3.54.54,7.08.78,10.56,1.38s5.76-1.38,6.12-5.04c.06-.96.3-2.52-.24-2.88s-3.36-2.34-4.56-1.92c-3.78,1.2-7.32,3.18-10.92,4.92a14.1,14.1,0,0,0-2.22,2.1Z" fill="#f1f1f1"/><path d="M64.441,118.2a64.816,64.816,0,0,0-10.92-1.8c-2.16-.24-2.82,1.02-1.68,2.76a46.706,46.706,0,0,0,5.58,7.26,4.887,4.887,0,0,0,4.44.96c1.08-.54,5.4-1.2,4.44-5.04l.84-.36C66.241,120.663,65.641,118.5,64.441,118.2Z" fill="#d9bc23"/><path d="M113.76,51.9c1.32,1.56,2.22,2.76,3.24,3.84s3.24,3.84,5.28,5.16a4.8,4.8,0,0,0,4.32-.3c1.02-.72,1.14-2.64,1.08-3.96s-.9-2.82-1.32-4.26c-1.32-4.02-4.44-5.58-8.22-3.72a38.926,38.926,0,0,0-4.38,3.24Zm2.581,50.279c.3-.06,1.68,0,2.1-.6a72.986,72.986,0,0,0,4.74-7.8c.18-.36-1.08-2.1-1.62-2.1q-6.26.272-12.48,1.08a2.822,2.822,0,0,0-1.8,1.8c.24,3,5.46,7.56,9.06,7.62Z" fill="#f1f1f1"/><path d="M42,129.538a17.711,17.711,0,0,0,.12-2.52c-.48-5.64-6.12-6.78-8.58-10.74l-1.02.48c.54,2.28,1.08,4.56,1.74,7.14-2.16-.48-3.78-.9-5.46-1.14s-3.12-.12-3.42,1.98.06,3.9,2.28,4.2a70.674,70.674,0,0,0,8.1.12c-.42-1.38-.66-2.34-1.08-3.84a59.2,59.2,0,0,0,4.86,3.72,6.458,6.458,0,0,0,2.46.6Z" fill="#731fe0"/><path d="M161.938,29.28c4.32,1.32,8.76,2.28,13.98,3.66-1.26-4.26-2.16-7.38-3.18-10.5-.18-.54-1.02-1.32-1.38-1.26-3,.72-6.12,1.14-8.76,2.64s-2.4,4.86-.66,5.46Z" fill="#f1f1f1"/><path d="M18.958,95.518c.84.3,3.12-1.2,3.48-2.28.96-2.82,1.2-5.82,1.92-9.6-.18-.24-.6-1.32-1.44-1.74s-2.64-.72-2.94-.3c-1.98,3.06-4.26,6.12-5.34,9.54s2.4,3.66,4.32,4.38Z" fill="#ff0028"/><path d="M235.919,43.139c1.14,1.68,3.06,2.76,4.92,4.32,3.24-1.38,6.06-2.34,8.52-3.9.78-.48.72-2.64.6-4.02-.06-.24-2.04-.42-3.12-.48s-1.92.06-2.94.06c-2.04.12-4.14,0-6.18.24a2.378,2.378,0,0,0-1.8,3.78Z" fill="#f1f1f1"/><path d="M208.078,54.659c.42,2.76.72,5.46,1.26,8.16s2.64,3.84,5.1,2.64a73.1,73.1,0,0,0,7.26-4.5c-3.72-3.78-8.4-4.86-12.6-6.78Z" fill="#ff0028"/><path d="M201.179,34.5c-3.12.18-7.68,3.6-7.68,5.82s5.16,5.76,7.8,4.8,3.36-3.66,5.04-5.64C205.679,37.2,202.859,34.443,201.179,34.5Z" fill="#f1f1f1"/><path d="M98.461,19.74A99.656,99.656,0,0,0,94.5,30.72c-.24.78.3,1.8.48,2.7a5.963,5.963,0,0,0,2.4-.78c2.34-2.16,4.56-4.44,6.72-6.78a10.369,10.369,0,0,0,1.26-2.4,45.6,45.6,0,0,0-4.2-4.92c-.3-.3-2.4.48-2.7,1.2Z" fill="#ff0028"/><path d="M157.98,88.979c11.46-7.2,6.42-2.88,10.56-12.3a4.976,4.976,0,0,0,.18-1.68l-.72-.66-15.54,12.18c1.8,1.676,3.18,3.96,5.52,2.46Z" fill="#00cccd"/><path d="M70.26,104.219c-1.02-1.08-3-2.1-4.14-1.8s-1.68,2.46-2.46,3.84a12.723,12.723,0,0,0,1.5,2.88,56.228,56.228,0,0,0,5.34,4.68,12.782,12.782,0,0,0,2.94,1.26c.48-1.5,1.74-3.36,1.26-4.5a21,21,0,0,0-4.44-6.36ZM176.338,35.7c1.44,6.72,2.88,13.32,4.32,19.86h1.38c.3-2.76.66-5.58.78-8.34.06-1.68-.54-3.42-.36-5.04.72-6.54.84-6.54-6.12-6.48ZM30.786,77.4c1.08,1.5,2.58,1.56,3.96.36,3.18-2.76,3.78-6.9,5.4-10.44l-1.08-1.2c-3.06,1.8-6.3,3.3-9.06,5.46s-.42,4.02.78,5.82ZM229.8,122.218a30.477,30.477,0,0,0,5.94-2.52,2.763,2.763,0,0,0,.9-2.52,3.069,3.069,0,0,0-2.22-1.5,25.791,25.791,0,0,0-5.7.24c-5.16.78-5.88,2.28-3.78,7.14a33.913,33.913,0,0,0,4.856-.84ZM32.341,26.58a74.6,74.6,0,0,0-4.2,6.48,3.24,3.24,0,0,0,4.92-.96c.78-1.38,1.5-2.76,2.22-4.14s-.18-2.1-.3-3.18a10.761,10.761,0,0,0-2.64,1.8Z" fill="#f1f1f1"/><path d="M27.3,14.7a97.739,97.739,0,0,0-3.96,9.48c2.82.72,3.9,0,4.38-1.92A9,9,0,0,1,28.8,19.8l2.16-3.84a16.491,16.491,0,0,1-3.18-2.16,6.542,6.542,0,0,0-.48.9Z" fill="#ff0028"/><path d="M237.3,93.6c-5.7,1.62-6.84,7.02-9.84,11.64a23.046,23.046,0,0,1,2.64-.9c4.56-.72,7.32-4.14,10.32-7.08.6-.54.06-2.52-.36-3.66s-1.92-.3-2.76,0Z" fill="#d9bc23"/><path d="M29.341,63.239c3.12-2.88,5.76-6.12,5.88-10.8a11.909,11.909,0,0,0-.24-1.98,18.986,18.986,0,0,0-1.02-2.28,8.583,8.583,0,0,0-1.98,1.5,18.346,18.346,0,0,0-2.28,3.9c-.96,2.64-1.8,5.4-2.52,8.1a2.519,2.519,0,0,0,.66,1.86c.18.24,1.14.06,1.5-.3Z" fill="#c000ff"/><path d="M218.818,136.2a3.36,3.36,0,0,0-.18-2.28c-.48-.9-1.38-1.68-1.92-2.58-2.04-3.54-4.56-4.32-8.28-2.76-1.92.78-2.46,2.1-.78,3.3,2.88,2.04,6,3.72,8.88,5.46,1.26-.6,2.16-.72,2.28-1.14ZM208.14,7.92a18.3,18.3,0,0,0-.06,4.44c.24,2.28,2.1,2.7,3.78,2.46s1.68-1.68,1.32-3.24a8.7,8.7,0,0,1-.12-3.72c1.56-5.22.96-6.36-4.56-7.44a13.888,13.888,0,0,1,.66,3.72c-.12,1.2-.84,2.46-1.02,3.78Z" fill="#f1f1f1"/><path d="M68.042,93.956c-2.46-.42-4.86-.84-7.32-1.14-1.08-.12-2.94-.42-3.06-.06a9.237,9.237,0,0,0-.9,4.86c.06.66,1.98,1.14,3.12,1.56s1.2,0,1.8,0l.36.72c2.28-1.2,4.62-2.34,6.84-3.6a2.281,2.281,0,0,0,.6-1.8c0-.178-.9-.478-1.44-.54Z" fill="#731fe0"/><path d="M156.36,92.454c-2.52-.72-2.1,2.88-2.58,4.74-.12.48-.3.96-.42,1.44l-.6.6c1.14,1.14,2.16,2.76,3.6,3.24s6.12-2.1,6.12-3.6a.423.423,0,0,0-.06-.3c-1.98-2.16-3.66-5.4-6.06-6.12ZM87.3,61.195c0-1.98-2.28-4.38-3.84-3.66s-4.32,3-6.48,4.56c1.2,1.44,2.22,3.78,3.66,4.02,3,.6,6.6-2.636,6.661-4.916Z" fill="#f1f1f1"/><path d="M129,33.18c-.48-.24-1.86.6-2.4,1.26-2.04,2.7-3.9,5.58-5.58,7.98l4.02.6a3.181,3.181,0,0,0,1.68,0,5.827,5.827,0,0,0,4.08-7.38,3.96,3.96,0,0,0-1.8-2.46Z" fill="#ff0028"/><path d="M56.522,6.18c1.44.6,2.52,1.56,3.18,1.32a37.21,37.21,0,0,0,6.9-3.48c.66-.36.6-1.86.84-2.82-1.5-.3-3.06-.9-4.56-1.2h-2.76c-1.44.48-2.16,3.54-3.6,6.18ZM97.681,9.84c6.72-.24,9.66-3.96,8.1-9a4.783,4.783,0,0,0-.54-.84h-3.66c-1.38,3-2.46,6.18-3.9,9.84Z" fill="#f1f1f1"/><path d="M174.779,8.16c-1.8-.18-3.96,3.6-3.9,6.9.06,1.98,1.2,2.82,2.94,2.52,3.06,0,4.74-2.04,4.8-5.34s-1.44-3.78-3.84-4.08Z" fill="#c000ff"/><path d="M258.659,104.939c.66.48,1.74,1.32,2.04,1.14a5.657,5.657,0,0,1,6.84-.18l.36-.96a30.6,30.6,0,0,0-3.24-4.02c-1.26-1.14-4.26-4.56-5.1-4.14-3,1.5-.96,4.74-1.08,7.32C258.479,104.4,258.479,104.819,258.659,104.939Z" fill="#f1f1f1"/><path d="M219.838,151.2c.12-.36.18-.66.3-.96a30.237,30.237,0,0,0-3.18-4.02c-1.62-1.62-4.26-4.56-5.1-4.14-3.06,1.5-.96,4.74-1.08,7.32,0,.3,0,.72.18.84s1.74,1.32,2.04,1.14a5.657,5.657,0,0,1,6.84-.18Zm-7.5-74.1a32.85,32.85,0,0,0,5.76-3.78c-1.62-1.8-2.94-4.08-4.92-5.28s-3.36,2.16-3.54,7.26c.66.48,2.1,2.04,2.7,1.8Z" fill="#00cccd"/><path d="M211.74,94.618c2.1-.9,3.84-2.52,5.76-3.84-1.62-1.74-2.94-4.02-4.92-5.22s-3.36,2.16-3.54,7.26c.66.48,2.04,2.04,2.7,1.8Zm-39.6-32.88a25.091,25.091,0,0,0-1.38,6.36c-.12.6.78,1.38,1.02,1.74a6.259,6.259,0,0,0,5.4-7.92c-.42-1.26-1.62-2.22-2.46-3.36-.9,1.08-2.16,1.98-2.58,3.18Zm32.338,11.939c-.84-.72-4.44,4.5-4.44,6.84s1.92,2.76,3.78,2.88,3.66-1.8,3.72-5.22C206.878,77.1,206.038,75,204.478,73.677ZM31.5,105.777c1.8,2.88,3.78-.96,6.12.72-1.08-4.68-2.64-8.16-6.18-10.86-2.22,3.781-2.16,6.6.06,10.14Z" fill="#f1f1f1"/><path d="M87,45.419a2.014,2.014,0,0,0-2.1.12,50.107,50.107,0,0,0-4.62,6.6,2.962,2.962,0,0,0,.66,2.7c.6.66,3.48.24,4.26,0,2.28-.72,2.7-4.32,2.82-7.74-.18-.3-.42-1.26-1.02-1.68Zm-11.64,80.4a8.584,8.584,0,0,0,.36,2.22c1.5,3,5.88,5.1,9.66,4.68.48-4.08.42-3.96-3.12-5.04-1.5-.48-2.88-1.38-4.38-1.86s-1.68,0-2.52,0Z" fill="#00cccd"/><path d="M23.221,101.639a9.96,9.96,0,0,0-4.8.12,3.24,3.24,0,0,0-1.14,2.94,36.757,36.757,0,0,0,3.12,5.88l.96.24a66.238,66.238,0,0,0,2.58-6.48C24.181,103.559,23.641,101.7,23.221,101.639Zm269.757-3.9c-.24-.96-1.98-1.98-3.12-2.04a3.069,3.069,0,0,0-2.58,2.04c-1.32,3.54.42,5.46,5.82,6.72,0-2.46.357-4.68-.12-6.72Zm2.1,68.279c-1.14,3.3.3,5.22,4.919,6.42v-7.5a4.792,4.792,0,0,0-2.279-1.02C296.877,163.858,295.439,165.058,295.078,166.018Z" fill="#f1f1f1"/><path d="M205.2,113.518c.18-2.04.72-4.08.54-6.12-.18-3-2.88-2.28-4.62-2.22-.72.06-1.8,1.62-1.86,2.58C199.079,109.918,202.319,113.038,205.2,113.518Z" fill="#731fe0"/><path d="M202.74,138.238c-.24-3.06-2.88-2.28-4.68-2.22-.66,0-1.74,1.62-1.86,2.52-.18,2.16,3.12,5.34,5.94,5.82a36.412,36.412,0,0,0,.6-6.12Zm25.559-7.68c-.72.06-1.8,1.62-1.86,2.58-.18,2.1,3.06,5.28,5.94,5.76.18-2.04.72-4.08.54-6.12C232.739,129.778,230.038,130.5,228.3,130.558Z" fill="#f1f1f1"/><path d="M5.522,8.64c-.78-.36-2.34.36-3.3.96s-.84,1.5-.9,2.28,1.02.84,1.56.9A17.9,17.9,0,0,0,12.6,9.9c.06-.42.18-.84.24-1.26-1.14-.36-2.7-1.38-3.24-.96s-2.16,1.86-4.08.96Z" fill="#731fe0"/><path d="M91.682,6.779c-1.32,3-3.6,5.94-1.02,9.6,2.22-1.08,4.8-7.2,3.66-8.94-.36-.6-2.52-.84-2.64-.66Z" fill="#00cccd"/><path d="M81.782,110.518c1.02-.06,2.04-1.08,2.64-1.44,0-3.3-1.86-5.7-3.6-5.64s-2.46,1.38-2.4,3.06.84,4.08,3.36,4.02Z" fill="#731fe0"/><path d="M19.022,170.277c.96,0,1.98-1.02,2.58-1.38,0-3.3-1.86-5.7-3.6-5.64s-2.46,1.38-2.4,3.06S16.442,170.4,19.022,170.277Z" fill="#f1f1f1"/><path d="M260.939,42.539c.24-.54-1.32-2.7-2.4-3.12s-3.6,1.62-4.08,3.78l2.46,3.72C258.3,45.479,259.979,44.219,260.939,42.539Z" fill="#ff0028"/><path d="M258.478,8.1c.3-.48-1.26-2.7-2.34-3.12s-3.6,1.68-4.08,3.84l2.46,3.66C255.9,11.04,257.578,9.78,258.478,8.1Z" fill="#00cccd"/><path d="M222.659,4.2a5.094,5.094,0,0,0-3.54-.18,3.375,3.375,0,0,0-2.34,1.92c-.66,2.22.48,2.94,4.14,3.3,1.14-.72,2.58-1.2,3.18-2.16S223.5,4.68,222.659,4.2Z" fill="#f1f1f1"/><path d="M265.978,55.919l6.12,4.14,1.26-.54-.36-6.06-6.9,1.14a9.867,9.867,0,0,1-.12,1.32Z" fill="#731fe0"/><path d="M247.436,78.479c.3-.12.3-1.98.24-1.98a53.916,53.916,0,0,0-6.96-.96c-.54,0-1.62,1.02-1.56,1.32a3.3,3.3,0,0,0,1.5,1.98,9.179,9.179,0,0,0,2.82.48,26.065,26.065,0,0,0,3.96-.84Z" fill="#ff0028"/><path d="M159.24,32.64a2.687,2.687,0,0,0,1.2,2.22,19.5,19.5,0,0,0,4.92,1.08,2.1,2.1,0,0,0,1.92-.9,1.982,1.982,0,0,0-.66-1.92c-1.8-.96-3.78-1.68-6.12-2.7-.54.84-1.32,1.56-1.26,2.22Z" fill="#731fe0"/><path d="M252.9,89.159c-3.42,2.64-4.26,6.42-4.92,10.8C251.7,98.519,254.343,92.279,252.9,89.159Z" fill="#00cccd"/><path d="M188.159,34.08l-1.26.18c-.66,1.14-2.04,2.64-1.74,3.42a8.084,8.084,0,0,0,3.42,2.94c1.32.54,2.64-2.04,2.46-2.58C190.559,36.54,189.179,35.4,188.159,34.08Z" fill="#ff0028"/><path d="M157.8,106.139a8.09,8.09,0,0,0,1.86,1.92,25.307,25.307,0,0,0,4.32,1.86c.78.3,1.62.42,3.18.84-1.74-3.84-3.72-5.94-7.08-6.06C159.3,104.7,158.519,105.659,157.8,106.139Zm84.838-20.82c1.8-.9,4.92.06,5.22-2.94.06-.84-1.74-1.86-2.7-2.76-3.36.24-3.36,2.7-3.9,4.5-.12.24,1.14,1.32,1.38,1.2Z" fill="#f1f1f1"/><path d="M175.981,114.721a4.2,4.2,0,0,0-1.74-2.76c-2.58-1.2-3,1.56-4.26,2.76a1.922,1.922,0,0,0-.42,1.8c.06.36.96.48,1.32.66a17.564,17.564,0,0,0,3.12-.66C174.841,116.1,176.1,115.2,175.981,114.721ZM51.6,21.72c-4.02-2.04-5.7-1.74-8.94,1.74C44.761,25.86,48.061,25.26,51.6,21.72Z" fill="#00cccd"/><path d="M44.941,48l-1.08.3-.9,9.42.96.48c1.02-1.5,2.76-2.94,2.88-4.5s-1.14-3.78-1.86-5.7Z" fill="#f1f1f1"/><path d="M294.3,49.2c-1.38-1.56-2.28-3.36-2.88-3.24a3.554,3.554,0,0,0-2.88,4.2c.06.78.9,1.44,1.38,2.16ZM300,73.379v-.6A1,1,0,0,0,300,73.379Zm0,7.14v-1.56l-1.26,2.34ZM188.818,61.2c-.36.6.3,1.68.48,2.58.96-.24,2.64-.3,2.82-.78a55.144,55.144,0,0,0,1.14-7.02l-.72.18a49.532,49.532,0,0,0-3.72,5.04Z" fill="#731fe0"/><path d="M200.4,50.339c0,2.16-.06,3.84.06,5.52.06.6.9,1.68,1.2,1.62s1.8-.66,1.98-1.26c.66-2.46.18-4.505-3.24-5.88Zm28.26,25.08c.6-.78,1.86-1.62,1.74-2.22a25.431,25.431,0,0,0-2.28-3.96c-1.08,1.62-2.22,2.76-2.04,3.24a22.174,22.174,0,0,0,2.58,2.935Z" fill="#f1f1f1"/><path d="M210.059,36.48a31.684,31.684,0,0,0-3.78,2.7l2.76,2.4a20.63,20.63,0,0,0,2.34-3.3c.18-.3-1.2-1.86-1.32-1.8Z" fill="#ff0028"/><path d="M178.62,119.818c-.72.84-2.22,2.04-2.04,2.4a16.805,16.805,0,0,0,2.82,3c1.08.84,1.08-.6,2.1-1.32Z" fill="#f1f1f1"/><path d="M23.282,68.279c-2.4-2.28-4.56-2.4-6.96-.3,3.18,1.976,4.86,2.04,6.96.3Z" fill="#ff0028"/><path d="M53.22,110.338a19.887,19.887,0,0,0-4.62.6,5.475,5.475,0,0,0-.06,1.02,27.214,27.214,0,0,0,4.08,1.38c1.38.24,1.44-.6,2.22-.96-.54-.716-1.02-2.04-1.62-2.04Z" fill="#731fe0"/><path d="M70.74,80.818c.24-1.86.36-3.48.54-5.34-.96.84-1.68,1.56-2.52,2.22l-2.04,1.56a24.353,24.353,0,0,0,2.1,1.26A18.468,18.468,0,0,0,70.74,80.818Zm67.26-15c.12-.48-.9-1.32-1.74-2.34-1.02.96-2.28,1.86-2.16,2.16a26.708,26.708,0,0,0,2.04,2.52c.66-.779,1.62-1.44,1.86-2.34Zm-46.2-17.1a11.4,11.4,0,0,0,2.04,2.52c.66-.78,1.62-1.44,1.86-2.34s-.9-1.26-1.68-2.34C93,47.578,91.68,48.418,91.8,48.718Z" fill="#f1f1f1"/><path d="M282.118,13.5c-.12,2.4-.24,4.2-.36,6.54,2.82-2.04,2.82-4.02.36-6.54Z" fill="#00cccd"/><path d="M202.62,101.038l5.1.78-2.76-4.5Z" fill="#731fe0"/><path d="M96,127.738a5.64,5.64,0,0,0,.84,2.04c.06.18,1.26-.12,1.44-.48s.72-2.22.42-2.4a13.826,13.826,0,0,0-2.76-.54A5.213,5.213,0,0,0,96,127.738Z" fill="#00cccd"/><path d="M93.721,74.879l-1.14.3,1.44,4.62c2.342-2.34.96-3.6-.3-4.92Zm.721,13.86,4.62,1.32c-.66-3.18-2.46-2.76-4.26-2.4ZM113.463,16.62h-7.14C110.163,18.48,111.241,18.54,113.463,16.62ZM236.7,88.139c-.96.9-1.98,1.74-2.82,2.7s.54.84.84,1.26l3-2.7Zm-215.218,30.6c2.1-2.4,1.8-2.88-2.28-3.42Zm142.082-50.88.9.6,3.78-1.14c-1.44-.9-2.34-1.8-3.18-1.8s-1.024,1.5-1.5,2.34Zm-67.2-65.1,1.26.72c.72-1.08,1.38-2.22,2.1-3.36L99.543,0h-1.5C97.5.9,96.9,1.8,96.363,2.76ZM111.9,296.153a54.606,54.606,0,0,0-4.5-5.338c-1.08-1.26-2.88-2.34-3.18-3.78-.72-2.88-2.76-3.66-5.1-4.44s-2.34,0-2.46,1.74l-1.08,15.659h18.54a40.368,40.368,0,0,0-2.22-3.841Z" fill="#f1f1f1"/><path d="M163.379,296.933c-.12-4.319-.42-8.578-.96-12.838-.12-1.08-1.32-2.04-2.04-3.06-.48,1.08-1.44,2.1-1.38,3.18,0,4.2.3,8.4.54,12.6.06,1.081.24,2.1.36,3.182h2.94A9.108,9.108,0,0,0,163.379,296.933Z" fill="#ff0028"/><path d="M63.481,295.553c-1.56.36-2.88.3-3.54.9a30.345,30.345,0,0,0-3.24,3.539h6.78v-4.441Zm10.321.36-1.08.182-2.4,3.9H75.6Zm80.637,2.7c-1.44-.422-3.12,0-4.68.237a3.184,3.184,0,0,0,0,1.143h5.94c-.36-.66-.72-1.26-1.26-1.376Z" fill="#f1f1f1"/><path d="M121.441,299.818a27.811,27.811,0,0,0-1.2-3.12,25.934,25.934,0,0,0-3.24,2.279,1.739,1.739,0,0,0-.36,1.02h4.864a.24.24,0,0,1-.06-.179Z" fill="#00cccd"/><path d="M185.159,298.494l-1.44,1.5h2.58C185.879,299.516,185.519,298.974,185.159,298.494Z" fill="#f1f1f1"/><path d="M6.721,141.658a6.879,6.879,0,0,0,1.56,8.76c2.52,2.28,7.8,2.94,11.7,4.32a3.154,3.154,0,0,0,2.22-.54c1.68-1.02,2.94-.66,4.38.48,3.66,2.94,6.18,2.88,10.02.12l2.58-1.5c2.7-1.56,3.54-4.8,1.62-7.14s-4.14-6.12-7.02-7.74c-5.28-2.94-11.16-4.8-17.159-7.26-1.8.78-4.2,1.08-5.34,2.46-1.981,2.34-3.121,5.34-4.561,8.04Z" fill="#c000ff"/><path d="M160.02,274.916c1.62,1.5,3.24,1.08,4.2-.72a41.253,41.253,0,0,0,2.52-6.36c1.14-4.38,1.92-8.82,3.24-13.08.9-2.76.9-4.86-1.08-7.2s-3.9-5.7-6.06-8.46c-.78-.9-2.28-1.92-3.3-1.8-3.72.48-10.44,8.28-10.98,12.06a58.991,58.991,0,0,1-1.74,6.96c-.3,1.26-.66,2.52-1.08,3.96a5.717,5.717,0,0,0,.78,1.74c4.5,4.32,8.94,8.64,13.5,12.9Z" fill="#f1f1f1"/><path d="M60.782,267.3c-3.06-1.14-5.94-2.88-8.88-4.26-1.74-.78-3.54-1.32-4.98-1.86-4.5.84-8.52,1.32-11.46,4.86-1.56,1.98-1.98,3.48-.36,5.58s1.86,3,2.88,4.44,1.62,3.36,2.88,3.84c4.14,1.56,7.2,4.26,10.08,7.38a3.32,3.32,0,0,0,4.62.6,40.849,40.849,0,0,0,3.78-2.46,3.542,3.542,0,0,0,1.26-2.46,22.859,22.859,0,0,1,1.86-12c.72-1.74.42-2.88-1.68-3.66ZM285.6,171.237c2.04-1.14,2.34-2.64,1.2-4.5-.42-.72-1.14-1.2-1.44-1.92-2.52-5.76-4.8-5.7-9.72-3.96-1.86.66-3,.18-3.9-1.98s-3.3-5.34-5.46-8.7a9.171,9.171,0,0,0,1.02-1.98,2.4,2.4,0,0,0,0-1.92c-1.44-1.86-5.88-1.2-6.72,1.08a26.4,26.4,0,0,0-1.8,6.3c-.24,2.16.3,4.02.54,6s.78,2.4.54,3.48c-.9,4.74-.84,4.8,3.24,7.38a12.367,12.367,0,0,1,2.34,2.34c3.96,4.74,13.02,4.98,17.04.54a14.454,14.454,0,0,1,3.12-2.16Z" fill="#ff0028"/><path d="M4.8,275.936c.36-3.36.78-6.78,1.2-10.14s.78-8.04,1.2-12c.24-2.16-.72-3.84-2.58-4.2s-2.58.78-3.6,1.62l-1.02.96v28.859C3.722,280.556,4.442,279.776,4.8,275.936Zm53.76-28.26c5.4.66,10.02-2.22,15-3.3a6.817,6.817,0,0,0,2.64-1.98c.78-.78,1.68-5.4.06-6.9-5.16-4.98-11.58-7.08-17.34-7.86s-6.96.72-6.96,5.04,1.02,8.04,1.86,12c.478,2.338,2.64,2.76,4.74,3Z" fill="#731fe0"/><path d="M173.7,206.937a4.142,4.142,0,0,1,1.32-2.34c1.98-1.38,3.12-3.06,2.64-5.34-.12-4.32-.48-4.68-4.62-5.46a30.709,30.709,0,0,1-3.18-.78c-4.38-1.14-8.7-2.4-13.08-3.42-1.86-.42-3.54.24-3.3,2.64.48,5.94,1.2,11.82,6.54,15.78,1.32,1.02,2.16,2.7,3.54,3.6,3.36,2.28,9.06-.48,10.14-4.68Z" fill="#00cccd"/><path d="M197.1,243.6a26.508,26.508,0,0,0,2.64-4.56c.84-1.62,1.5-3.24,2.28-4.8l2.7-5.4c-.24-1.92-.42-2.88-.48-3.9-.36-4.02-2.34-5.04-6.12-3.54s-8.16,3.6-12.42,4.44-4.56,3.24-5.88,5.7a2.282,2.282,0,0,0,.3,2.16c4.02,3.6,8.04,7.14,12.18,10.5a3.12,3.12,0,0,0,4.8-.6Z" fill="#731fe0"/><path d="M198.958,256.555c-.54-2.94-2.28-3.12-4.68-2.28-5.4,1.92-10.32,4.56-14.16,9.12-1.98,2.34-1.44,6.9,1.2,8.52l4.86,2.88c2.52,1.62,6.72,1.86,8.16-.18,2.64-3.72,6.12-7.26,6-12.6C199.858,260.155,199.258,258.416,198.958,256.555Z" fill="#00cccd"/><path d="M42.961,223.617a4.741,4.741,0,0,1,1.08-1.74,6.242,6.242,0,0,0,.36-9.36c-2.76-2.64-4.32-3.18-6.18-5.04s-5.22-2.76-7.74-.84a9.5,9.5,0,0,0-3.42,10.8,11.637,11.637,0,0,1,.48,2.52c-.12,3.6.84,4.86,2.82,5.1a16.979,16.979,0,0,1,5.22,1.2c3.24,1.442,6.12.48,7.38-2.64Z" fill="#c000ff"/><path d="M28.743,169.2a35.574,35.574,0,0,0-2.4,9.24c-.36,3.24,2.04,7.2,4.68,7.14s6.24,1.86,9.54,2.28,3.24-.72,2.94-3-.96-3.42-.6-4.92c1.14-4.56.48-8.88-1.02-13.2-1.68-.42-3.3-.84-4.92-1.14-3.24-.657-7.02.78-8.22,3.6Z" fill="#f1f1f1"/><path d="M267.237,211.917a106.154,106.154,0,0,0-9.24-9.48,4.893,4.893,0,0,0-7.5.6,36.621,36.621,0,0,0-4.14,7.86,3.421,3.421,0,0,0,.24,2.88c2.64,4.02,6.84,5.64,11.46,7.92,2.88-1.32,6.06-2.4,8.7-4.14s2.16-3.78.48-5.64Z" fill="#731fe0"/><path d="M107.221,279.6c2.64.24,5.16,1.32,7.56,1.62s6.18-1.68,9.24-2.76c.3-.06.36-.6.66-1.14l-2.64-.6c-.06-7.38-2.4-7.56-7.32-8.58-1.8-.36-3.9.24-5.34-.6-4.56-2.58-7.38-.96-10.08,2.88-1.56,2.28-3.84,4.08-5.7,6.12-.18.24-.12.72-.18,1.38l1.86-.78v1.68Z" fill="#d9bc23"/><path d="M139.62,299.217c1.98-1.86,3.54-4.38,5.76-5.643,3.96-2.159,4.98-5.639,5.76-10.139l.9,2.58c1.14-4.62-.18-7.86-3.24-8.1s-7.68.18-10.26,4.08-5.34,7.02-8.04,10.5c-.42.481-.96,1.559-.78,1.679q3.426,3.083,7.14,5.821h1.8l.96-.779Z" fill="#c000ff"/><path d="M248.757,276.475a18.723,18.723,0,0,1,10.56-5.28c3.72-.6,4.14-2.04,1.98-5.1s-5.76-3.12-5.34-7.2c.06-.12-.42-.36-.66-.54-4.02-3.24-8.64-2.46-10.8,2.22-1.32,2.82-1.8,6.06-2.64,8.94a37.854,37.854,0,0,0,1.68,5.82c1.081,2.64,3.181,3.06,5.22,1.14Z" fill="#f1f1f1"/><path d="M6.481,165.477c-2.1-2.22-2.7-2.1-4.14.42L0,170.157v19.08l1.5.48c2.76-3.54,6.24-5.7,7.74-10.26s.84-10.32-2.76-13.98Z" fill="#d9bc23"/><path d="M214.559,219.777c1.14.06,2.22.78,3.36,1.02a26.869,26.869,0,0,0,6.42,1.2c1.02.06,2.34-1.08,3-2.1,1.44-2.1,2.34-4.62,3.84-6.66s1.44-3.84-.84-5.16-6.12-3.42-8.94-4.98c-3.18,3-6.24,5.76-9.06,8.64-.96.96-2.1,2.52-1.92,3.54.42,2.1,1.26,4.32,4.14,4.5ZM4.383,211.8c.42-.48.78-1.86.6-1.98-1.8-1.32-3.06-3.42-4.98-4.68v10.08l1.38-.9a17.142,17.142,0,0,0,3-2.52Z" fill="#f1f1f1"/><path d="M252.6,137.337c-2.76-2.1-4.32-6.06-9.06-5.76-3.18-.72-3.78,2.34-5.28,4.38-3.36,4.44-6.84,8.88-10.02,13.44-.84,1.26-.72,3.12-1.02,4.68,1.5-.3,3.24-.3,4.44-1.02,7.2-4.44,12.78-8.22,17.34-11.22a17.145,17.145,0,0,0,3-2.52C252.418,138.837,252.838,137.458,252.6,137.337Zm-9.841,100.98c1.56.9,3.6,1.98,5.58.24.3-.24,1.02-.12,1.5-.12,3.12-.18,4.26-1.5,3.6-4.68a52.082,52.082,0,0,0-1.68-5.76,3.061,3.061,0,0,0-1.56-1.68c-4.08-.96-8.16-1.8-12.6-2.76l-2.64.48c-5.16.9-6.3,3.3-2.7,6.96s6.84,5.16,10.5,7.32Z" fill="#c000ff"/><path d="M24.24,267.656c-1.02-1.38-1.56-3.18-2.46-4.74a40.908,40.908,0,0,0-3.36-5.64c-1.38-1.68-3.6-2.46-5.28.06-2.58,4.02-4.8,8.22-7.2,12.36a13.1,13.1,0,0,0-.48,2.28c1.14,1.2,2.58,2.7,4.08,4.14s3.36,2.1,4.74-.6c.3-.6,1.38-.84,2.16-1.2,2.4-1.02,4.98-1.86,7.26-3.06s1.68-2.04.54-3.6Z" fill="#f1f1f1"/><path d="M14.821,244.916a6.333,6.333,0,0,0,5.16.72c1.38-.6,1.92-2.82,2.1-4.38a72.287,72.287,0,0,0,.06-9.54c0-.96-.18-2.4-.78-2.76a91,91,0,0,0-8.76-4.98c-.3-.18-1.38.48-1.62.96-1.08,2.34-2.04,4.74-3,7.08.42,5.58,2.58,9.84,6.84,12.9Z" fill="#00cccd"/><path d="M117.721,184.917a3.956,3.956,0,0,0,.66-3.3c-1.26-2.82-3-5.4-4.38-8.16s-2.34-1.86-3.96-1.08-4.38,2.1-6.6,3c-4.08,1.68-4.62,3-2.94,7.08a33,33,0,0,0,1.92,4.44,8.286,8.286,0,0,0,2.22,2.1c3.96-.84,7.26-1.44,10.44-2.22a4.982,4.982,0,0,0,2.64-1.86Zm29.76,49.8q4.419-.809,8.76-1.98c2.88-.78,5.46-3.6,6.18-7.44-.54-1.14-.84-2.64-1.74-3.36a43.4,43.4,0,0,0-4.86-2.88c-1.68-.9-6.12-1.08-6.9.42a110.44,110.44,0,0,0-5.16,11.16c-1.26,3.3.18,4.739,3.719,4.079Zm74.4,37.8,5.58.6c1.26-.24,3.42-.06,4.68-1.02,2.52-1.92.3-10.08-2.76-11.28a21,21,0,0,1-5.16-3.18,2.83,2.83,0,0,0-3.66-.6c-3.96,1.68-4.14,5.1-4.26,8.52-.241,5.941-.181,5.941,5.579,6.958Zm-130.62-5.04a97.865,97.865,0,0,0-11.22-4.92c-2.34-.9-4.86-1.38-7.68-2.16-.48.3-1.38.66-1.74,1.32a2.282,2.282,0,0,0,.12,2.16,11.165,11.165,0,0,0,2.4,2.64c3.12,2.82,6.42,5.46,9.42,8.34,4.62,4.44,4.56,4.56,9.24.6,3.239-2.7,3.179-5.942-.541-7.982Zm45.961-23.459a8.29,8.29,0,0,0-5.82.66c-3.3,1.68-3.96,5.04-3.9,8.52l-.78.42c1.02,1.74,1.68,4.08,3.18,5.1s4.38,1.38,6.6,1.92a4.565,4.565,0,0,0,5.52-2.52c2.159-4.382-.241-12.3-4.8-14.1Z" fill="#f1f1f1"/><path d="M166.678,291.6c.06,8.4,1.5,6.541,7.38,6.658,4.92.062,10.86-6.3,10.92-11.938a8.892,8.892,0,0,0-1.44,1.26c-1.8,2.22-3.78,2.34-5.52.24s-3.84-5.28-5.76-7.92c-5.88,2.88-6.6,4.02-5.88,9.66C166.438,290.219,166.678,290.936,166.678,291.6Zm-51.119-76.08c-.54-3.24-1.38-6.42-2.04-9.66s-1.26-7.32-2.16-10.92a3.956,3.956,0,0,0-2.46-2.52c-3.36-.42-7.32,3.42-7.38,7.5a14.082,14.082,0,0,0,.84,2.28c2.28,4.14,4.56,8.28,6.96,12.3a11.577,11.577,0,0,0,2.64,3.24,10.41,10.41,0,0,0,3.12,1.32,11.986,11.986,0,0,0,.48-3.54Z" fill="#ff0028"/><path d="M133.86,211.557c-2.16-2.28-5.34-1.98-8.1.36a26.818,26.818,0,0,0-8.16,12.12c1.08,1.68,1.92,4.02,3.66,5.1s4.08-.18,4.98-1.38a131.06,131.06,0,0,0,8.7-13.14c.361-.6-.359-2.34-1.08-3.06Z" fill="#731fe0"/><path d="M170.221,226.8c2.7,2.16,5.52,2.1,8.64.36a27.9,27.9,0,0,1,6.72-2.94c2.4-.6,3.36-1.8,3.54-4.14s.72-3.96,1.02-5.94a31.211,31.211,0,0,0,.06-3.36c-1.14.24-2.46.18-3.36.78-4.8,3.12-9.48,6.36-14.22,9.6-.9.6-1.92,1.08-2.82,1.74a17.288,17.288,0,0,0-1.56,1.5,13.629,13.629,0,0,0,1.98,2.4ZM0,235.977v8.34c.36-1.2.66-2.46,1.02-3.66s-.12-3-1.02-4.68Zm50.4-43.139,5.16,2.82c5.16-.66,5.4-1.08,4.14-5.7-.9-3.18-1.62-6.42-2.64-9.6a4.21,4.21,0,0,0-2.22-2.52c-3.54-1.08-7.98,2.34-8.34,6.06a31.249,31.249,0,0,1-.78,4.74c-.66,2.94-.24,3.54,2.76,3.66a4.378,4.378,0,0,1,1.919.539Z" fill="#f1f1f1"/><path d="M213.117,184.5c-.54-3.78-1.5-4.5-5.34-3.96a19.892,19.892,0,0,1-1.32,2.82c-.9,1.44-2.28,2.64-2.82,4.2a12.232,12.232,0,0,1-6.24,6.6c-1.14.66-2.76,1.26-3.12,2.22s-.06,3.3,0,4.98a16.65,16.65,0,0,0,3.9-.78c1.2-.54,3.72-2.64,5.76-3.06a11.712,11.712,0,0,0,9.18-13.02Z" fill="#d9bc23"/><path d="M110.221,224.156c-.12-.12.06-.42,0-.54-.84-1.44-1.44-3.18-2.7-4.14s-2.7.06-3.54.84a92.15,92.15,0,0,0-7.44,7.86,13.323,13.323,0,0,0-1.74,3.24c.42,5.46,5.16,2.64,7.32,4.62.66.54,2.46-.3,3.78-.48.06,0,.12-.12.18-.18,3.3-3.06,7.68-5.64,4.14-11.22Z" fill="#f1f1f1"/><path d="M245.578,248.636c.3-4.32-1.74-6.54-6.84-6.48-3.54.3-7.62.66-11.16,4.2s-3.48,3.54.3,5.94a8.1,8.1,0,0,0,2.22.84c5.4,1.56,9.78-1.92,14.7-3C245.158,250.016,245.518,249.176,245.578,248.636Z" fill="#ff0028"/><path d="M246.237,151.8c-2.94-1.56-3.36-1.8-4.32,1.5a8.778,8.778,0,0,0-.12,1.8c0,4.32,3.6,6.78,5.46,10.14.12.24.84.36,1.2.24,3.24-.66,4.44-2.7,3.3-6.42-1.02-2.52-2.16-5.46-5.52-7.26ZM28.8,189a13.742,13.742,0,0,0-5.76-5.94c-2.94-1.74-3.84-.48-5.1,1.62s-1.62,2.82-2.82,3.84-1.98,2.82.18,4.2c.48.3.84.84,1.32,1.14l6.3,4.2c6.3-1.38,9.24-2.58,5.88-9.06Z" fill="#f1f1f1"/><path d="M7.864,293.394a20.9,20.9,0,0,1,3.18.841c2.7.182,3.72-1.02,3.42-3.659s-.06-4.14-.18-6.24-.66-3.18-3-2.52c-3.72,1.14-7.5,2.16-11.28,3.24v7.56a3.058,3.058,0,0,0,1.26.18,35.616,35.616,0,0,1,6.6.6Z" fill="#d9bc23"/><path d="M71.461,207.537c-.54.78-1.2,1.5-1.74,2.34s-2.52,2.52-2.34,3.6,1.92,2.28,3.42,3.84c-.66,3.78,4.14,4.32,6.54,7.74.12-1.74.18-2.88.24-3.96s-.18-1.56.18-1.86c2.94-2.94,1.98-6.6,2.04-10.14s-1.08-4.68-4.5-4.2c-.42.06-.96-.66-1.74-1.2-.78,1.44-1.38,2.64-2.1,3.84Z" fill="#c000ff"/><path d="M291.357,185.1c-.84,1.2-2.46,2.52-2.34,3.6s1.92,2.28,3.48,3.9c-.72,3.72,4.139,4.26,6.48,7.68.12-1.74.179-2.82.24-3.96s-.182-1.5.179-1.86l.6-.66V180.413a4.661,4.661,0,0,0-3-.3c-.419.12-1.02-.66-1.74-1.2-.838,1.44-1.438,2.7-2.159,3.84s-1.2,1.56-1.74,2.344ZM72.181,286.735c1.44,0,3.12.42,4.2-.12a11.7,11.7,0,0,0,4.08-3.96c.3-.48-1.02-2.28-1.86-3.24s-3.6-3.48-5.46-5.16a3.6,3.6,0,0,0-1.92-1.26c-2.4-.24-7.2,5.58-6.66,7.98,1.26,5.04,2.22,5.76,7.62,5.76Zm-33.12-39.179a46.071,46.071,0,0,0-4.98.06c-2.7.24-5.04,1.2-6.06,4.08a13.46,13.46,0,0,1-2.1,4.14,3.172,3.172,0,0,0,0,4.74c.6.54.84,1.5,1.5,1.86s3,1.98,4.02,1.62,1.56-2.46,2.22-3.84c.18-.48-.06-1.14-.06-1.62C36.841,257.336,39.9,251.1,39.061,247.556Z" fill="#f1f1f1"/><path d="M82.922,256.616c3.66,0,5.46-1.08,6.9-5.04.48-1.38.48-3.66-.36-4.62-1.86-2.1-4.14-4.5-7.56-2.04-.84.66-2.4.18-3.48.6s-2.28,1.02-2.4,1.74c-.6,4.74,1.5,9.48,6.9,9.36Z" fill="#00cccd"/><path d="M21.6,199.737c-2.22-.9-4.74-1.38-5.88,1.5a36.764,36.764,0,0,0-1.68,6.24c0,3.96-.06,6.6,0,9.3s2.1,3.3,3.54,2.34a6.839,6.839,0,0,0,2.34-3c1.32-3.54,2.4-7.2,3.66-10.8C24.361,203.1,23.641,200.577,21.6,199.737Z" fill="#ff0028"/><path d="M33.542,297.357a4.362,4.362,0,0,0,3.78-.662,3.749,3.749,0,0,0,.18-3.718,62.5,62.5,0,0,0-8.28-8.161c-1.14-.96-4.08-1.56-4.86-.84s-2.4,4.02-3.72,6.54a33.528,33.528,0,0,0,3.66,1.56c3.66,1.8,5.46,3.719,9.24,5.281Z" fill="#00cccd"/><path d="M45.062,231.237c-.72-1.02-4.74-1.5-5.22-.78-1.74,2.52-4.44,1.8-6.48,2.88-1.08.54-2.7,1.38-2.7,2.16a6.028,6.028,0,0,0,1.74,3.42,38.684,38.684,0,0,0,5.34,3.78,14.449,14.449,0,0,0,2.34.78,27.356,27.356,0,0,0,3.12-2.52c.84-1.02,1.26-2.4,2.16-3.36C47.282,235.317,46.082,232.8,45.062,231.237Zm42.059-36.959c1.26.96,3,.42,3.36-1.62A63.862,63.862,0,0,0,91.5,186a4.019,4.019,0,0,0-.72-2.58c-.78-1.32-1.56-3.06-2.82-3.66a12.481,12.481,0,0,0-6.24-1.2c-.9.06-1.62,2.22-2.46,3.48C81,187.138,83.1,191.338,87.121,194.278Zm49.559,8.1c-.54-.66-.84-1.44-1.26-1.5-3.54-.48-7.08-.78-10.56-1.38s-5.76,1.38-6.12,5.04c-.06,1.02-.3,2.52.24,2.88s3.36,2.34,4.56,1.98a93.561,93.561,0,0,0,10.92-4.92c.843-.421,1.379-1.321,2.219-2.1Z" fill="#f1f1f1"/><path d="M255.117,179.337a39.059,39.059,0,0,0-6.06-6.9c-.96-.9-3.42-1.32-4.44-.66s-5.34,1.5-4.14,5.28l-.78.42c.96,1.26,1.68,3.36,2.88,3.6a74.864,74.864,0,0,0,10.98,1.14C255.777,182.337,256.377,181.017,255.117,179.337Z" fill="#c002f9"/><path d="M186.958,247.076c-1.32-1.62-2.22-2.76-3.24-3.84s-3.24-3.84-5.28-5.16a4.5,4.5,0,0,0-4.26.3c-1.02.78-1.2,2.58-1.14,3.96s.9,2.82,1.38,4.26c1.26,4.02,4.38,5.52,8.16,3.66a33.551,33.551,0,0,0,4.38-3.18Z" fill="#00cccd"/><path d="M179.159,207.237c4.2-.18,8.34-.54,12.54-1.08a2.617,2.617,0,0,0,1.74-1.8c-.24-2.94-5.46-7.56-9.06-7.62-.24.12-1.62.06-2.1.66a72.988,72.988,0,0,0-4.74,7.8c-.18.36,1.08,2.1,1.62,2.04Z" fill="#f1f1f1"/><path d="M233.7,174.237c.3-2.04-.12-3.96-2.34-4.26a70.6,70.6,0,0,0-8.04-.06c.36,1.38.66,2.34,1.08,3.78-1.92-1.5-3.3-2.7-4.86-3.72a8.171,8.171,0,0,0-2.52-.54,17.706,17.706,0,0,0-.06,2.52c.42,5.58,6.12,6.78,8.58,10.68l1.02-.42c-.54-2.28-1.14-4.56-1.74-7.2,2.16.48,3.78.96,5.46,1.2s3.12.12,3.42-1.98Z" fill="#731fe0"/><path d="M286.136,140.038a2.34,2.34,0,0,1,.18-1.26c.9-3.36-1.2-5.04-3.84-2.76a16.309,16.309,0,0,0-3.12,4.14l-2.7,4.26a.781.781,0,0,0-.12.72c.12.36.66.24,1.02.12,2.46-1.02,3.54-1.08,4.02-.48s.42,3.18,2.22,5.4,4.62-.12,5.34-2.58c1.5-4.8-2.4-4.26-3-7.56ZM138.779,269.7c-4.32-1.38-8.76-2.34-13.98-3.66,1.26,4.2,2.16,7.38,3.18,10.44.18.54,1.08,1.38,1.44,1.26,2.94-.72,6.12-1.14,8.7-2.58s2.4-4.92.66-5.46Z" fill="#f1f1f1"/><path d="M276.9,200.4c-.78-.3-3.06,1.2-3.42,2.28-.96,2.82-1.26,5.82-1.92,9.66a4.8,4.8,0,0,0,1.38,1.74c.84.42,2.7.66,3,.24,1.98-3.06,4.2-6.12,5.34-9.54s-2.46-3.6-4.38-4.38Z" fill="#c000ff"/><path d="M64.8,255.836c-1.14-1.68-3.06-2.82-4.92-4.38-3.24,1.44-6.06,2.4-8.52,3.9-.78.54-.66,2.7-.54,4.02,0,.3,1.98.48,3.06.54a24.559,24.559,0,0,0,2.94-.12c2.04-.06,4.14.06,6.18-.18a2.368,2.368,0,0,0,1.8-3.78ZM91.62,244.8l1.02-.54c-.42-2.7-.72-5.46-1.26-8.16s-2.64-3.84-5.1-2.58-4.56,2.76-7.26,4.44c3.72,3.781,8.4,4.921,12.6,6.84Z" fill="#f1f1f1"/><path d="M99.542,264.416c3.12-.12,7.68-3.54,7.68-5.76s-5.16-5.76-7.8-4.86-3.36,3.66-4.98,5.64c.6,2.34,3.42,5.041,5.1,4.98Z" fill="#c000ff"/><path d="M205.74,265.556c-.78.24-1.8.24-2.34.72-2.34,2.22-4.56,4.5-6.78,6.84a11.042,11.042,0,0,0-1.26,2.34,46.135,46.135,0,0,0,4.2,4.98c.3.3,2.46-.48,2.76-1.2,1.5-3.6,2.76-7.26,3.9-10.98.24-.78-.3-1.8-.48-2.7Z" fill="#f1f1f1"/><path d="M142.74,209.936a27.365,27.365,0,0,0-10.56,12.3,3.9,3.9,0,0,0-.12,1.68l.66.72,15.6-12.18c-1.86-1.68-3.24-4.02-5.58-2.52Z" fill="#d9bc23"/><path d="M297.656,247.016a5.144,5.144,0,0,0-.12,1.68l.721.72,1.74-1.38v-5.28a29.475,29.475,0,0,0-2.341,4.26Z" fill="#f1f1f1"/><path d="M248.52,198.957c1.08-.36,1.62-2.46,2.46-3.84a12.729,12.729,0,0,0-1.5-2.88,50.356,50.356,0,0,0-5.4-4.68,9.272,9.272,0,0,0-2.94-1.26c-.42,1.5-1.68,3.36-1.2,4.5a21,21,0,0,0,4.44,6.36c.96,1.02,3,2.1,4.14,1.8Z" fill="#00cccd"/><path d="M124.441,263.276l-4.38-19.86h-1.38c-.24,2.82-.66,5.58-.78,8.4-.06,1.68.54,3.36.36,5.04-.719,6.479-.779,6.479,6.18,6.42Z" fill="#ff0028"/><path d="M272.637,221.757c-3.18,2.82-3.78,6.9-5.4,10.5l1.08,1.2c3.06-1.8,6.3-3.3,9.06-5.46s.42-4.02-.78-5.82-2.58-1.56-3.96-.42Z" fill="#731fe0"/><path d="M63.6,187.617a22.681,22.681,0,0,0,5.7-.18c5.16-.78,5.88-2.28,3.78-7.14a33.9,33.9,0,0,0-4.86.84,30.493,30.493,0,0,0-5.94,2.52,2.646,2.646,0,0,0-.9,2.52,2.813,2.813,0,0,0,2.22,1.44Zm9.721,6.06a17.215,17.215,0,0,1-2.7.9c-4.56.72-7.32,4.2-10.32,7.08-.6.54-.06,2.58.42,3.72s1.86.24,2.76,0C69.121,203.7,70.261,198.357,73.321,193.677ZM265.559,252.6c.66-.54,1.56-.9,1.98-1.56a16.627,16.627,0,0,0,2.28-3.84,84.564,84.564,0,0,0,2.52-8.16,2.4,2.4,0,0,0-.66-1.8c-.18-.24-1.14-.06-1.5.24-3.12,2.94-5.76,6.18-5.88,10.8a11.8,11.8,0,0,0,.24,2.04,19.084,19.084,0,0,0,1.02,2.28ZM89.279,175.8c1.92-.78,2.46-2.1.78-3.3-2.88-2.04-6-3.72-8.88-5.46-1.26.6-2.16.72-2.28,1.2a2.88,2.88,0,0,0,.18,2.22c.48.96,1.38,1.68,1.92,2.64,2.04,3.48,4.56,4.26,8.28,2.7Z" fill="#00cccd"/><path d="M92.581,291.055a22.545,22.545,0,0,0,.12-4.5c-.24-2.22-2.1-2.64-3.84-2.46s-1.68,1.74-1.32,3.24a8.1,8.1,0,0,1,.12,3.78c-1.56,5.219-.96,6.359,4.56,7.44a17.247,17.247,0,0,1-.66-3.779C91.621,293.516,92.4,292.315,92.581,291.055Z" fill="#f1f1f1"/><path d="M232.737,205.017c2.4.42,4.86.78,7.26,1.08,1.08.18,2.94.42,3.12.06a10.375,10.375,0,0,0,.9-4.8c-.12-.72-2.04-1.2-3.18-1.62s-1.14.06-1.74.06a4.5,4.5,0,0,1-.42-.72c-2.28,1.2-4.62,2.28-6.84,3.6a2.073,2.073,0,0,0-.6,1.74c.06.6.96.544,1.5.6Z" fill="#731fe0"/><path d="M144.419,206.457c2.46.78,2.04-2.82,2.52-4.74a13.51,13.51,0,0,1,.48-1.44l.54-.6c-1.14-1.08-2.16-2.7-3.54-3.18s-6.18,2.1-6.18,3.6c0,.06,0,.24.06.3C140.279,202.5,141.959,205.737,144.419,206.457Z" fill="#c000ff"/><path d="M213.419,237.716c0,1.98,2.28,4.44,3.84,3.66a61.993,61.993,0,0,0,6.48-4.5c-1.2-1.44-2.22-3.84-3.66-4.08-2.94-.539-6.6,2.64-6.66,4.92Z" fill="#f1f1f1"/><path d="M194.939,176.157c2.34-1.08,4.32-3,6.48-4.56-1.2-1.38-2.28-3.78-3.66-4.02-3-.54-6.66,2.64-6.66,4.92s2.217,4.44,3.84,3.66Z" fill="#c002f9"/><path d="M174,255.9a5.922,5.922,0,0,0-4.08,7.38,3.842,3.842,0,0,0,1.8,2.46c.54.24,1.86-.54,2.4-1.2,2.04-2.76,3.9-5.58,5.58-7.98l-4.02-.66a5.279,5.279,0,0,0-1.68,0Zm20.938,42.179a3.118,3.118,0,0,0,1.74,1.74,2.645,2.645,0,0,0,2.4-.6c1.38-3.12,2.52-6.3,3.96-10.081-6.72.24-9.66,3.961-8.1,8.938Zm-69-7.32c1.8.18,3.96-3.6,3.9-6.84-.06-2.04-1.2-2.88-2.94-2.52-3,0-4.74,2.04-4.8,5.34s1.5,3.777,3.843,4.017Z" fill="#f1f1f1"/><path d="M42.062,194.037c-.66-.48-1.74-1.38-2.04-1.14a5.747,5.747,0,0,1-6.84.18l-.36.96a43.029,43.029,0,0,0,3.24,4.02c1.62,1.56,4.26,4.5,5.1,4.08,3.06-1.5.96-4.74,1.08-7.26,0-.3,0-.72-.18-.84Z" fill="#731fe0"/><path d="M87.6,230.877c1.56.96,3.3-2.16,3.48-7.26-.6-.42-2.04-2.04-2.7-1.74a38,38,0,0,0-5.76,3.78c1.62,1.8,2.94,4.08,4.98,5.22Z" fill="#ff0028"/><path d="M128.581,237.236a29.259,29.259,0,0,0,1.44-6.42c.06-.6-.84-1.32-1.08-1.68-3.84.12-6.6,4.56-5.4,7.92.42,1.2,1.62,2.22,2.46,3.3.9-1.02,2.161-1.92,2.58-3.12Z" fill="#731fe0"/><path d="M96.24,225.236c.84.78,4.44-4.44,4.44-6.84s-1.92-2.76-3.72-2.82-3.72,1.8-3.78,5.22C93.84,221.817,94.74,223.917,96.24,225.236Z" fill="#00cccd"/><path d="M261.3,182.157c1.08,4.74,2.64,8.16,6.18,10.86,2.22-3.78,2.16-6.6-.06-10.14S263.639,183.833,261.3,182.157Z" fill="#f1f1f1"/><path d="M213.718,253.556a2.324,2.324,0,0,0,2.1-.12,54.374,54.374,0,0,0,4.62-6.6,2.892,2.892,0,0,0-.66-2.7c-.6-.6-1.62-.3-2.4-.06-2.34.72-4.56,4.32-4.68,7.74.18.3.42,1.32,1.02,1.74Z" fill="#731fe0"/><path d="M228.718,166.438c1.56.48,2.94,1.38,4.44,1.86s1.62,0,2.46,0a6.626,6.626,0,0,0-.36-2.22c-1.44-3-5.88-5.1-9.6-4.68C225.178,165.478,225.178,165.418,228.718,166.438Z" fill="#f1f1f1"/><path d="M279.9,197.157a3.132,3.132,0,0,0,1.14-2.88,40.178,40.178,0,0,0-3.12-5.94l-.96-.18a66.175,66.175,0,0,0-2.58,6.48c-.24.78.3,2.58.72,2.64a9.961,9.961,0,0,0,4.8-.12Z" fill="#ff0028"/><path d="M7.744,201.237c.24.9,1.98,1.98,3.12,2.04a3.2,3.2,0,0,0,2.64-2.1c1.26-3.54-.48-5.46-5.88-6.66,0,2.4-.3,4.68.12,6.72Z" fill="#731fe0"/><path d="M95.519,185.4a43.729,43.729,0,0,0-.54,6.12c.18,3.06,2.88,2.28,4.68,2.22.66,0,1.74-1.62,1.86-2.52.18-2.16-3.12-5.342-6-5.82ZM273,280.435c1.32-.96,2.16-1.86,4.08-1.02.78.42,2.34-.3,3.3-.96s.84-1.44.9-2.28-1.02-.84-1.56-.84c-3.6-.18-6.72,1.08-9.72,2.82a9.243,9.243,0,0,1-.24,1.26c1.14.42,2.7,1.38,3.24,1.02Z" fill="#f1f1f1"/><path d="M209.039,292.136c1.32-2.94,3.6-5.88,1.02-9.54-2.22,1.08-4.8,7.2-3.66,8.88C206.763,292.076,208.979,292.316,209.039,292.136Zm10.919-96.6c1.98-.06,2.4-1.44,2.34-3.06s-.84-4.08-3.36-4.02c-1.02,0-2.04,1.08-2.64,1.38C216.3,193.137,218.158,195.593,219.958,195.537Z" fill="#d9bc23"/><path d="M39.782,256.436c-.24.48,1.32,2.64,2.4,3.12s3.6-1.68,4.08-3.84l-2.46-3.66C42.422,253.5,40.742,254.756,39.782,256.436Zm38.279,38.337a5.109,5.109,0,0,0,3.54.182,3.532,3.532,0,0,0,2.34-1.919c.66-2.221-.48-2.941-4.14-3.3-1.08.66-2.58,1.14-3.18,2.16s.6,2.4,1.44,2.877Z" fill="#c000ff"/><path d="M27.721,245.457l6.9-1.14L34.8,243c-2.1-1.32-4.14-2.7-6.18-4.08l-1.26.54ZM60,223.437c.54,0,1.68-1.02,1.56-1.32a3.239,3.239,0,0,0-1.44-1.98,8.262,8.262,0,0,0-2.88-.48,23.932,23.932,0,0,0-3.9.84c-.36.12-.36,1.98-.3,1.98a67,67,0,0,0,6.96.96Z" fill="#f1f1f1"/><path d="M141.48,266.336a2.687,2.687,0,0,0-1.2-2.22,17.271,17.271,0,0,0-4.92-1.14,2.34,2.34,0,0,0-1.92.9,2.1,2.1,0,0,0,.66,1.98c1.86.96,3.78,1.68,6.12,2.64C140.762,267.654,141.54,267,141.48,266.336Z" fill="#00cccd"/><path d="M52.745,199.017c-3.66,1.44-6.36,7.68-4.92,10.8,3.475-2.7,4.255-6.48,4.92-10.8Zm59.821,65.819,1.26-.12c.66-1.14,2.04-2.64,1.74-3.42a8.082,8.082,0,0,0-3.42-2.94c-1.32-.54-2.64,1.98-2.4,2.58a30.749,30.749,0,0,0,2.816,3.9Z" fill="#f1f1f1"/><path d="M142.919,192.777a9.22,9.22,0,0,0-1.8-1.92c-.72-.42-2.88-1.26-4.38-1.86l-3.18-.84c1.74,3.84,3.72,6,7.14,6.12C141.419,194.277,142.2,193.314,142.919,192.777Z" fill="#ff0028"/><path d="M58.081,213.6c-1.8.9-4.92,0-5.16,3-.12.84,1.68,1.8,2.64,2.76,6.6-.54,2.58-.06,3.96-4.5C59.581,214.557,58.321,213.477,58.081,213.6Zm68.4-26.64c2.58,1.2,3-1.56,4.26-2.7a1.922,1.922,0,0,0,.42-1.8c-.06-.36-.96-.54-1.26-.66a14.077,14.077,0,0,0-3.18.66c-.9.42-2.04,1.32-1.98,1.74A5.455,5.455,0,0,0,126.48,186.957ZM250.02,278.1c4.08,2.1,5.7,1.74,8.94-1.68-2.04-2.46-5.34-1.8-8.94,1.68Z" fill="#00cccd"/><path d="M256.857,250.616l.9-9.36-.96-.54c-1.02,1.5-2.76,3-2.88,4.56s1.2,3.78,1.86,5.7Z" fill="#f1f1f1"/><path d="M9.3,252.956a3.578,3.578,0,0,0,2.94-4.14c-.12-.78-.96-1.44-1.44-2.16l-4.38,3.06C7.8,251.336,8.7,253.076,9.3,252.956ZM0,219.057v2.34c.66-1.26,1.32-2.52,2.04-3.78A10.329,10.329,0,0,0,0,219.057Zm0,5.46v2.7C.783,226.5,1.263,225.657,0,224.517Z" fill="#731fe0"/><path d="M111.9,237.776c.36-.6-.3-1.74-.48-2.64-.96.3-2.64.36-2.76.84a55.34,55.34,0,0,0-1.2,7.02l.78-.18a48.907,48.907,0,0,0,3.66-5.04Zm-11.578,10.8c0-2.1.06-3.84-.06-5.52-.06-.6-.9-1.68-1.14-1.62s-1.8.72-1.98,1.32c-.72,2.4-.24,4.5,3.18,5.82Z" fill="#f1f1f1"/><path d="M72.721,223.557c-.66.72-1.92,1.56-1.8,2.16a25.035,25.035,0,0,0,2.28,4.02c1.08-1.68,2.22-2.76,2.04-3.24a25.9,25.9,0,0,0-2.52-2.94Z" fill="#00cccd"/><path d="M90.66,262.436a29.533,29.533,0,0,0,3.84-2.7l-2.76-2.4a17.77,17.77,0,0,0-2.4,3.3c-.54,1.2,1.26,1.86,1.32,1.8Z" fill="#f1f1f1"/><path d="M169.019,143.758c-5.46,1.92-10.38,4.56-14.16,9.06-1.98,2.4-1.5,6.96,1.2,8.52l4.86,2.94c2.52,1.62,6.66,1.8,8.1-.18,2.7-3.72,6.18-7.26,6.06-12.66-.48-1.8-1.08-3.6-1.44-5.4-.54-3-2.28-3.12-4.62-2.28Z" fill="#00c5c5"/><path d="M48.479,161.218c3.12,2.82,6.42,5.46,9.42,8.34,4.62,4.44,4.5,4.56,9.18.6,3.3-2.7,3.24-5.94-.54-7.98a96.565,96.565,0,0,0-11.22-4.92c-2.28-.9-4.8-1.38-7.62-2.16a5.145,5.145,0,0,0-1.8,1.32,2.522,2.522,0,0,0,.12,2.16,12.84,12.84,0,0,0,2.46,2.64Z" fill="#d9bc23"/><path d="M121.561,125.218c2.16-4.32-.24-12.3-4.8-14.04a7.952,7.952,0,0,0-5.82.6c-3.3,1.74-3.96,5.04-3.9,8.58l-.78.42c1.02,1.74,1.68,4.08,3.18,5.1s4.38,1.38,6.6,1.86a4.565,4.565,0,0,0,5.52-2.52ZM51,144.9c3.66,0,5.46-1.08,6.9-5.04.48-1.38.48-3.66-.36-4.62-1.86-2.1-4.14-4.5-7.56-2.04-.9.6-2.4.18-3.48.54s-2.28,1.08-2.4,1.74c-.6,4.8,1.5,9.54,6.9,9.42Zm99.9-8.88c1.32,4.08,4.44,5.58,8.22,3.72l1.26-.78c-3.36-1.32-6.66-2.52-9.78-3.84a5.281,5.281,0,0,1,.3.9Z" fill="#f1f1f1"/><path d="M160.26,132.718c-1.68-1.8-3.24-3.84-5.28-5.16a4.62,4.62,0,0,0-4.32.3c-1.02.78-1.14,2.58-1.08,3.96a11.644,11.644,0,0,0,1.02,3.3c3.12,1.32,6.42,2.52,9.78,3.84,1.02-.72,1.98-1.62,3.12-2.4-1.32-1.621-2.22-2.76-3.24-3.84Z" fill="#f1f1f1"/><path d="M125.88,144.3c2.94-.72,6.12-1.2,8.7-2.64s2.4-4.92.66-5.46c-4.32-1.32-8.76-2.34-13.98-3.66,1.26,4.2,2.16,7.38,3.18,10.44.18.6,1.08,1.38,1.44,1.32Z" fill="#d9bc23"/><path d="M80.282,157.5c3.12-.12,7.68-3.54,7.68-5.76s-5.16-5.76-7.74-4.8-3.42,3.66-5.04,5.58C75.842,154.858,78.6,157.618,80.282,157.5ZM3.542,84.479c-1.2,1.14-2.4,2.28-3.54,3.48V98.7a3.644,3.644,0,0,0,2.46-1.26c1.5-3.6,2.76-7.26,3.96-10.98.24-.78-.36-1.8-.54-2.7-.78.24-1.8.24-2.34.72Zm154.137,100.5c1.5-3.54,2.76-7.26,3.96-10.98.24-.72-.36-1.74-.54-2.64-.78.18-1.8.18-2.34.72-2.34,2.16-4.56,4.5-6.78,6.78a19.23,19.23,0,0,0-1.26,2.4,41.018,41.018,0,0,0,4.26,4.92c.3.3,2.4-.48,2.7-1.2Z" fill="#f1f1f1"/><path d="M110.52,137.7l-20.34-.3a10.408,10.408,0,0,1-.3,1.32c2.7.9,5.28,1.92,7.98,2.64,1.62.48,3.42.3,4.98.84C108.96,144.413,108.96,144.478,110.52,137.7Z" fill="#ff0028"/><path d="M152.221,145.377a3.961,3.961,0,0,0-1.68,0,5.876,5.876,0,0,0-4.08,7.38,3.662,3.662,0,0,0,1.8,2.46c.48.24,1.86-.54,2.4-1.26,2.04-2.7,3.9-5.58,5.58-7.92l-4.02-.66Zm29.159-4.68c.18.3.42,1.32,1.02,1.74a1.87,1.87,0,0,0,2.1-.18,50.1,50.1,0,0,0,4.62-6.6,2.816,2.816,0,0,0-.66-2.64c-.6-.6-1.62-.3-2.4-.06-2.34.721-4.56,4.32-4.68,7.74Z" fill="#f1f1f1"/><path d="M110.64,155.278a54.482,54.482,0,0,0,6.12,2.7c.54-.84,1.32-1.5,1.26-2.16a3.3,3.3,0,0,0-1.2-2.28,19.515,19.515,0,0,0-4.92-1.08,2.343,2.343,0,0,0-1.92.9,1.983,1.983,0,0,0,.66,1.92Z" fill="#00cccd"/><path d="M95.1,157.378a6.067,6.067,0,0,0-3.42-2.88c-1.38-.48-2.58,1.98-2.4,2.52.48,1.5,1.86,2.64,2.82,3.96l1.32-.12c.6-1.2,1.98-2.7,1.68-3.48Z" fill="#731fe0"/><path d="M69,144.058a29.5,29.5,0,0,0,3.84-2.7l-2.76-2.4a17.768,17.768,0,0,0-2.4,3.3c-.54,1.2,1.26,1.86,1.32,1.8Z" fill="#f1f1f1"/><path d="M124.14,176.7a9.54,9.54,0,0,0-2.82-3c-.12-.12-1.08.66-2.1,1.32,1.14,1.62,1.98,2.88,2.88,4.08.72-.78,2.22-2.04,2.04-2.4Z" fill="#00cccd"/><path d="M293.458,232.2c-3.18-2.04-4.86-2.04-6.96-.36C288.9,234.116,291.058,234.3,293.458,232.2Zm-41.279-45.179a24.732,24.732,0,0,0-4.02-1.44c-1.38-.24-1.5.66-2.28.96.54.78,1.08,2.04,1.62,2.1a20.829,20.829,0,0,0,4.68-.6Z" fill="#f1f1f1"/><path d="M229.978,218.1c-.18,1.92-.36,3.54-.54,5.4l2.52-2.28c.66-.54,1.38-1.02,2.1-1.5a15.611,15.611,0,0,0-2.16-1.26,9.9,9.9,0,0,0-1.92-.36Z" fill="#731fe0"/><path d="M162.724,233.1c-.12.48.9,1.32,1.74,2.4,1.02-1.02,2.28-1.92,2.16-2.22a21.25,21.25,0,0,0-2.04-2.46c-.66.78-1.623,1.44-1.86,2.28ZM18.6,285.416c.18-2.34.24-4.2.36-6.48C16.2,280.916,18.54,285.356,18.6,285.416ZM287.338,272.1c-1.56,1.98-2.04,3.48-.36,5.52s1.86,3.06,2.88,4.5,1.62,3.3,2.88,3.78a22.735,22.735,0,0,1,7.26,4.62v-22.86l-1.2-.42c-4.5.835-8.525,1.26-11.46,4.86Z" fill="#00cccd"/><path d="M286.617,261.656c.36-.6,1.44-.9,2.22-1.2a77.735,77.735,0,0,0,7.26-3.12c1.318-.72,1.679-1.98.539-3.54s-1.559-3.24-2.461-4.8a32.782,32.782,0,0,0-3.359-5.58c-1.92-2.46-3.6-2.52-5.28.06-2.58,3.96-4.8,8.16-7.2,12.36a11.989,11.989,0,0,0-.48,2.22c1.14,1.2,2.58,2.76,4.08,4.2s3.361,2.04,4.681-.6Z" fill="#d9bc23"/><path d="M229.2,296.815a6.154,6.154,0,0,0,5.16.779c1.38-.6,1.92-2.821,2.1-4.441a72.194,72.194,0,0,0,.12-9.539c-.06-.96-.18-2.34-.84-2.76-2.82-1.8-5.76-3.42-8.76-4.98-.3-.12-1.32.54-1.56,1.02-1.14,2.28-2.04,4.68-3,7.08.36,5.52,2.52,9.841,6.78,12.841Z" fill="#731fe0"/><path d="M281.458,298.433c-.24-2.039-.06-4.14-.18-6.238s-.72-3.18-3-2.52l-13.5,3.84a2.944,2.944,0,0,0-1.74,1.38c-.66,1.62,1.08,3.961,3,5.1H281.4A4.393,4.393,0,0,0,281.458,298.433Zm18.539-2.4c-1.2-1.143-2.461-2.282-3.779-3.362s-4.141-1.56-4.861-.84c-1.68,1.559-2.4,4.02-3.72,6.539a7.229,7.229,0,0,0,1.8,1.5l.18.12H300Z" fill="#f1f1f1"/><path d="M256.318,295.374a21.045,21.045,0,0,0,3.06-2.519c.9-.96,1.32-2.34,2.22-3.36,1.92-2.22.72-4.74-.3-6.3s-4.74-1.5-5.22-.78c-1.74,2.52-4.44,1.8-6.48,2.88-1.08.54-2.7,1.38-2.76,2.1a5.52,5.52,0,0,0,1.74,3.48,43.461,43.461,0,0,0,5.4,3.781,9.865,9.865,0,0,0,2.34.718Z" fill="#d9bc23"/><path d="M250.8,296.276l.18-1.321-6.12-4.08-1.26.54.36,6Zm-23.76,2.276L225.059,300h3.12Zm58.919-11.817c-2.82,2.04-2.88,4.02-.36,6.541.121-2.4.241-4.2.361-6.541ZM98.1,197.876,93,197.1l2.76,4.56C96.661,200.216,97.261,199.316,98.1,197.876Zm109.679-18.84a6.116,6.116,0,0,0-.84-2.04,1.921,1.921,0,0,0-1.5.48c-.3.78-.66,2.22-.42,2.4a16.806,16.806,0,0,0,2.76.6,5.746,5.746,0,0,0,0-1.439Zm0,1.5.06-.06ZM207,224.1l1.14-.36-1.44-4.56C204.42,221.456,205.74,222.776,207,224.1Zm-19.682,58.2h7.08c-3.837-1.861-4.917-1.861-7.077,0ZM64.023,210.776c.96-.84,1.98-1.74,2.88-2.7s-.6-.78-.84-1.26L63,209.576Zm215.215-30.6c-2.1,2.4-1.8,2.88,2.28,3.48-.72-1.139-1.5-2.219-2.28-3.479ZM0,159.117v.24h.06a.36.36,0,0,1-.06-.24Z" fill="#f1f1f1"/><path d="M7.023,102.838c-1.02-.24-2.58.78-3.6,1.62A40.528,40.528,0,0,0,0,108.178V133.8l2.1.48c4.02-.48,4.74-1.2,5.16-5.1s.78-6.78,1.14-10.14.78-8.04,1.26-12c.24-2.16-.72-3.84-2.64-4.2Z" fill="#d9bc23"/><path d="M7.383,71.759a11.945,11.945,0,0,0,3-2.46c.48-.54.84-1.86.66-2.04-2.82-2.1-4.32-6.06-9.12-5.76a2.88,2.88,0,0,0-1.92.12v15q3.722-2.381,7.38-4.86Zm289.854,79.259c-.419.48-.779,1.86-.6,1.98a35.522,35.522,0,0,1,3.36,3.36v-7.68a14.635,14.635,0,0,0-2.76,2.34Z" fill="#c000ff"/><path d="M171.483,176.578c2.34,3.96,4.62,7.98,7.02,11.88a1.8,1.8,0,0,0,1.56.6c2.34-1.32,4.86-2.46,6.84-4.2s.12-3.48-.6-5.16a8.726,8.726,0,0,1-.3-1.2c-.96-2.94-1.86-5.94-2.94-8.82s-3.36-3.96-5.46-2.4-4.56,5.04-6.72,7.68l.48.42c.06.42-.06.9.12,1.2ZM300,206.037v-.18l-.12.12Zm0,13.74c-.3-.66-.6-1.38-.961-2.04-1.02-1.98-3.059-3.42-3.9-5.46s-3.12-2.4-4.919-2.04-3.6,1.44-3.84,2.46a6.362,6.362,0,0,0,1.68,4.86c3.78,3.54,7.92,6.72,11.94,10.02Zm-162.838,11.34-.9-.6-3.78,1.14c1.44.84,2.34,1.8,3.18,1.74s1.021-1.5,1.5-2.28Z" fill="#f1f1f1"/><path d="M142.02,176.757l-.96-.6-3.78,1.14c1.5.84,2.34,1.8,3.24,1.74S141.48,177.537,142.02,176.757Z" fill="#731fe0"/><path d="M204.36,296.216l-1.26-.782-2.1,3.422,1.26.718q1.1-1.644,2.1-3.358Z" fill="#f1f1f1"/><path d="M0,44.339a2.336,2.336,0,0,0,.48.84l13.44,12.9c1.62,1.5,3.24,1.14,4.2-.72A31.908,31.908,0,0,0,20.643,51c1.2-4.32,1.98-8.82,3.3-13.08.84-2.7.84-4.86-1.08-7.2s-3.96-5.7-6.12-8.46c-.72-.9-2.22-1.92-3.24-1.8-3.78.48-10.44,8.28-10.98,12.06a56.439,56.439,0,0,1-1.8,6.96c-.24.9-.48,1.8-.72,2.82v2.04Z" transform="translate(28.199)" fill="#00c5c5"/><path d="M150.72,163.137l-2.64-.6c0-7.38-2.34-7.56-7.32-8.58-1.74-.36-3.9.24-5.34-.54-4.56-2.58-7.38-1.02-10.08,2.88-1.56,2.28-3.78,4.08-5.7,6.12-.18.18-.06.72-.12,1.38l1.8-.84v1.74l11.94.78c2.64.18,5.22,1.32,7.56,1.56s6.18-1.68,9.3-2.7c.241-.12.3-.66.6-1.2Z" fill="#c002f9"/></g></svg>