<?xml version="1.0" encoding="iso-8859-1"?>
<!-- Generator: Adobe Illustrator 19.0.0, SVG Export Plug-In . SVG Version: 6.00 Build 0)  -->
<svg version="1.1" id="Layer_1" xmlns="http://www.w3.org/2000/svg" xmlns:xlink="http://www.w3.org/1999/xlink" x="0px" y="0px"
	 viewBox="0 0 512 512" style="enable-background:new 0 0 512 512;" xml:space="preserve">
<g>
	<g>
		<polygon points="400.696,300.522 400.696,233.739 267.13,233.739 267.13,200.348 233.744,200.348 233.744,133.565 267.13,133.565 
			267.13,100.174 400.696,100.174 400.696,66.783 400.696,33.391 367.304,33.391 367.304,0 178.087,0 178.087,33.391 
			144.696,33.391 144.696,66.783 111.304,66.783 111.304,100.174 77.917,100.177 77.917,267.134 111.304,267.134 111.304,300.522 
			0,300.522 0,333.913 512,333.913 512,300.522 		"/>
	</g>
</g>
<g>
	<g>
		<rect x="77.913" y="478.609" width="356.174" height="33.391"/>
	</g>
</g>
<g>
	<g>
		<rect x="33.391" y="389.565" width="278.261" height="33.391"/>
	</g>
</g>
<g>
	<g>
		<rect x="378.435" y="389.565" width="100.174" height="33.391"/>
	</g>
</g>
<g>
</g>
<g>
</g>
<g>
</g>
<g>
</g>
<g>
</g>
<g>
</g>
<g>
</g>
<g>
</g>
<g>
</g>
<g>
</g>
<g>
</g>
<g>
</g>
<g>
</g>
<g>
</g>
<g>
</g>
</svg>
