<?xml version="1.0" encoding="iso-8859-1"?>
<!-- Generator: Adobe Illustrator 19.0.0, SVG Export Plug-In . SVG Version: 6.00 Build 0)  -->
<svg version="1.1" id="Layer_1" xmlns="http://www.w3.org/2000/svg" xmlns:xlink="http://www.w3.org/1999/xlink" x="0px" y="0px"
	 viewBox="0 0 512 512" style="enable-background:new 0 0 512 512;" xml:space="preserve">
<g>
	<g>
		<polygon points="289.392,200.348 289.392,166.953 478.609,166.953 478.609,133.562 512,133.562 512,66.779 478.609,66.779 
			478.609,33.388 211.478,33.388 211.478,66.779 178.088,66.779 178.087,66.779 178.087,100.171 144.697,100.171 144.697,133.564 
			111.309,133.564 111.309,411.828 144.697,411.828 144.697,445.217 178.088,445.217 178.088,478.609 211.478,478.609 211.478,512 
			478.609,512 478.609,478.609 478.609,478.606 511.997,478.606 511.997,411.824 478.609,411.824 478.609,378.435 289.391,378.435 
			289.391,345.043 256.004,345.043 256.004,200.348 		"/>
	</g>
</g>
<g>
	<g>
		<rect y="33.391" width="33.391" height="55.652"/>
	</g>
</g>
<g>
	<g>
		<rect x="33.391" width="55.652" height="33.391"/>
	</g>
</g>
<g>
	<g>
		<rect x="33.391" y="89.044" width="55.652" height="33.391"/>
	</g>
</g>
<g>
	<g>
		<rect x="89.044" y="33.391" width="33.391" height="55.652"/>
	</g>
</g>
<g>
</g>
<g>
</g>
<g>
</g>
<g>
</g>
<g>
</g>
<g>
</g>
<g>
</g>
<g>
</g>
<g>
</g>
<g>
</g>
<g>
</g>
<g>
</g>
<g>
</g>
<g>
</g>
<g>
</g>
</svg>
