<?xml version="1.0" encoding="iso-8859-1"?>
<!-- Generator: Adobe Illustrator 19.0.0, SVG Export Plug-In . SVG Version: 6.00 Build 0)  -->
<svg version="1.1" id="Layer_1" xmlns="http://www.w3.org/2000/svg" xmlns:xlink="http://www.w3.org/1999/xlink" x="0px" y="0px"
	 viewBox="0 0 512 512" style="enable-background:new 0 0 512 512;" xml:space="preserve">
<g>
	<g>
		<polygon points="0,0 0,256 411.826,256 411.826,222.609 445.217,222.609 445.217,100.174 411.826,100.174 411.826,66.783 
			311.652,66.783 311.652,100.174 278.261,100.174 278.261,189.217 345.043,189.217 345.043,222.609 278.261,222.609 
			278.261,189.217 244.87,189.217 244.87,100.174 278.261,100.174 278.261,66.783 311.652,66.783 311.652,33.391 411.826,33.391 
			411.826,66.783 445.217,66.783 445.217,100.174 478.609,100.174 478.609,222.609 445.217,222.609 445.217,256 411.826,256 
			411.826,289.391 0,289.391 0,322.783 445.217,322.783 445.217,356.174 478.609,356.174 478.609,445.217 445.217,445.217 
			445.217,478.609 378.435,478.609 378.435,445.217 345.043,445.217 345.043,389.565 378.435,389.565 378.435,445.217 
			445.217,445.217 445.217,356.174 0,356.174 0,422.957 289.391,422.957 289.391,456.348 0,456.348 0,512 512,512 512,0 		"/>
	</g>
</g>
<g>
</g>
<g>
</g>
<g>
</g>
<g>
</g>
<g>
</g>
<g>
</g>
<g>
</g>
<g>
</g>
<g>
</g>
<g>
</g>
<g>
</g>
<g>
</g>
<g>
</g>
<g>
</g>
<g>
</g>
</svg>
