<svg width="16" height="16" viewBox="0 0 16 16" fill="none" xmlns="http://www.w3.org/2000/svg">
<rect x="1.5" y="2" width="0.5" height="0.5" fill="#D4D4D4"/>
<rect x="1.5" y="2.5" width="0.5" height="0.5" fill="#D4D4D4"/>
<rect x="1.5" y="3" width="0.5" height="0.5" fill="#D4D4D4"/>
<rect x="1.5" y="3.5" width="0.5" height="0.5" fill="#D4D4D4"/>
<rect x="2" y="2.5" width="0.5" height="0.5" fill="#D4D4D4"/>
<rect x="2.5" y="3" width="0.5" height="0.5" fill="#D4D4D4"/>
<rect x="3" y="3.5" width="0.5" height="0.5" fill="#D4D4D4"/>
<rect x="3" y="2.5" width="0.5" height="0.5" fill="#D4D4D4"/>
<rect x="3" y="2" width="0.5" height="0.5" fill="#D4D4D4"/>
<rect x="3" y="3" width="0.5" height="0.5" fill="#D4D4D4"/>
<rect x="1.5" y="1.5" width="0.5" height="0.5" fill="#EF6C35"/>
<rect x="1.5" y="2" width="0.5" height="0.5" fill="#EF6C35"/>
<rect x="1.5" y="2.5" width="0.5" height="0.5" fill="#EF6C35"/>
<rect x="1.5" y="3" width="0.5" height="0.5" fill="#EF6C35"/>
<rect x="2" y="2" width="0.5" height="0.5" fill="#EF6C35"/>
<rect x="2.5" y="2.5" width="0.5" height="0.5" fill="#EF6C35"/>
<rect x="3" y="3" width="0.5" height="0.5" fill="#EF6C35"/>
<rect x="3" y="2" width="0.5" height="0.5" fill="#EF6C35"/>
<rect x="3" y="1.5" width="0.5" height="0.5" fill="#EF6C35"/>
<rect x="3" y="2.5" width="0.5" height="0.5" fill="#EF6C35"/>
<rect x="13.5" y="11.5" width="0.5" height="0.5" fill="#EF6C35"/>
<rect x="13" y="11.5" width="0.5" height="0.5" fill="#EF6C35"/>
<rect x="12.5" y="12" width="0.5" height="0.5" fill="#EF6C35"/>
<rect x="13" y="12.5" width="0.5" height="0.5" fill="#EF6C35"/>
<rect x="13.5" y="12.5" width="0.5" height="0.5" fill="#EF6C35"/>
<rect x="14" y="13" width="0.5" height="0.5" fill="#EF6C35"/>
<rect x="13.5" y="13.5" width="0.5" height="0.5" fill="#EF6C35"/>
<rect x="13" y="13.5" width="0.5" height="0.5" fill="#EF6C35"/>
<rect x="14" y="11.5" width="0.5" height="0.5" fill="#EF6C35"/>
<rect x="12.5" y="13.5" width="0.5" height="0.5" fill="#EF6C35"/>
<rect x="13.5" y="12" width="0.5" height="0.5" fill="#D4D4D4"/>
<rect x="13" y="12" width="0.5" height="0.5" fill="#D4D4D4"/>
<rect x="12.5" y="12.5" width="0.5" height="0.5" fill="#D4D4D4"/>
<rect x="13" y="13" width="0.5" height="0.5" fill="#D4D4D4"/>
<rect x="13.5" y="13" width="0.5" height="0.5" fill="#D4D4D4"/>
<rect x="14" y="13.5" width="0.5" height="0.5" fill="#D4D4D4"/>
<rect x="13.5" y="14" width="0.5" height="0.5" fill="#D4D4D4"/>
<rect x="13" y="14" width="0.5" height="0.5" fill="#D4D4D4"/>
<rect x="14" y="12" width="0.5" height="0.5" fill="#D4D4D4"/>
<rect x="12.5" y="14" width="0.5" height="0.5" fill="#D4D4D4"/>
<rect x="13.1429" y="2" width="0.857143" height="0.857143" fill="black"/>
<rect x="13.1429" y="2.85714" width="0.857143" height="0.857143" fill="black"/>
<rect x="13.1429" y="3.71429" width="0.857143" height="0.857143" fill="black"/>
<rect x="12.2857" y="2" width="0.857143" height="0.857143" fill="black"/>
<rect x="11.4286" y="2" width="0.857143" height="0.857143" fill="black"/>
<rect x="10.5714" y="2.85714" width="0.857143" height="0.857143" fill="black"/>
<rect x="9.71428" y="2.85714" width="0.857143" height="0.857143" fill="black"/>
<rect x="8.85715" y="3.71429" width="0.857143" height="0.857143" fill="black"/>
<rect x="8" y="3.71429" width="0.857143" height="0.857143" fill="black"/>
<rect x="7.14285" y="4.57143" width="0.857143" height="0.857143" fill="black"/>
<rect x="6.28572" y="4.57143" width="0.857143" height="0.857143" fill="black"/>
<rect x="5.42857" y="5.42857" width="0.857143" height="0.857143" fill="black"/>
<rect x="4.57143" y="5.42857" width="0.857143" height="0.857143" fill="black"/>
<rect x="3.71428" y="6.28571" width="0.857143" height="0.857143" fill="black"/>
<rect x="2.85715" y="6.28571" width="0.857143" height="0.857143" fill="black"/>
<rect x="12.2857" y="4.57143" width="0.857143" height="0.857143" fill="black"/>
<rect x="12.2857" y="5.42857" width="0.857143" height="0.857143" fill="black"/>
<rect x="11.4286" y="6.28571" width="0.857143" height="0.857143" fill="black"/>
<rect x="11.4286" y="7.14286" width="0.857143" height="0.857143" fill="black"/>
<rect x="10.5714" y="8" width="0.857143" height="0.857143" fill="black"/>
<rect x="10.5714" y="8.85714" width="0.857143" height="0.857143" fill="black"/>
<rect x="9.71428" y="9.71429" width="0.857143" height="0.857143" fill="black"/>
<rect x="9.71428" y="10.5714" width="0.857143" height="0.857143" fill="black"/>
<rect x="8.85715" y="11.4286" width="0.857143" height="0.857143" fill="black"/>
<rect x="2" y="7.14285" width="0.857143" height="0.857143" fill="black"/>
<rect x="2" y="8" width="0.857143" height="0.857143" fill="#D4D4D4"/>
<rect x="8.85715" y="12.2857" width="0.857143" height="0.857143" fill="black"/>
<rect x="2.85715" y="8" width="0.857143" height="0.857143" fill="black"/>
<rect x="7.14285" y="11.4286" width="0.857143" height="0.857143" fill="black"/>
<rect x="3.71428" y="8" width="0.857143" height="0.857143" fill="black"/>
<rect x="4.57143" y="8.85714" width="0.857143" height="0.857143" fill="black"/>
<rect x="6.28572" y="8.85714" width="0.857143" height="0.857143" fill="black"/>
<rect x="5.42857" y="8.85714" width="0.857143" height="0.857143" fill="black"/>
<rect x="6.28572" y="9.71429" width="0.857143" height="0.857143" fill="black"/>
<rect x="7.14285" y="12.2857" width="0.857143" height="0.857143" fill="black"/>
<rect x="6.28572" y="10.5714" width="0.857143" height="0.857143" fill="black"/>
<rect x="8" y="13.1429" width="0.857143" height="0.857143" fill="black"/>
<rect x="13.1429" y="4.55" width="0.857143" height="0.857143" fill="#D4D4D4"/>
<rect x="12.2857" y="6.26429" width="0.857143" height="0.857143" fill="#D4D4D4"/>
<rect x="11.4286" y="7.97857" width="0.857143" height="0.857143" fill="#D4D4D4"/>
<rect x="10.5714" y="9.69287" width="0.857143" height="0.857143" fill="#D4D4D4"/>
<rect x="9.71429" y="11.4072" width="0.857143" height="0.857143" fill="#D4D4D4"/>
<rect x="2" y="7.97857" width="0.857143" height="0.857143" fill="#D4D4D4"/>
<rect x="8.85715" y="13.1214" width="0.857143" height="0.857143" fill="#D4D4D4"/>
<rect x="2.85715" y="8.83572" width="0.857143" height="0.857143" fill="#D4D4D4"/>
<rect x="3.71428" y="8.83572" width="0.857143" height="0.857143" fill="#D4D4D4"/>
<rect x="4.57143" y="9.69287" width="0.857143" height="0.857143" fill="#D4D4D4"/>
<rect x="5.42857" y="9.69287" width="0.857143" height="0.857143" fill="#D4D4D4"/>
<rect x="6.28571" y="10.55" width="0.857143" height="0.857143" fill="black"/>
<rect x="7.14285" y="13.1214" width="0.857143" height="0.857143" fill="#D4D4D4"/>
<rect x="6.28571" y="11.4072" width="0.857143" height="0.857143" fill="#D4D4D4"/>
<rect x="8" y="13.9786" width="0.857143" height="0.857143" fill="#D4D4D4"/>
<rect x="8" y="7.14286" width="0.857143" height="0.857143" fill="#EF6C35"/>
<rect x="8" y="8" width="0.857143" height="0.857143" fill="#EF6C35"/>
<rect x="8" y="8.85714" width="0.857143" height="0.857143" fill="#EF6C35"/>
<rect x="8" y="9.71429" width="0.857143" height="0.857143" fill="#EF6C35"/>
<rect x="8" y="10.5714" width="0.857143" height="0.857143" fill="#EF6C35"/>
<rect x="8" y="11.4286" width="0.857143" height="0.857143" fill="#EF6C35"/>
<rect x="8" y="12.2857" width="0.857143" height="0.857143" fill="#EF6C35"/>
<rect x="8.85715" y="10.5714" width="0.857143" height="0.857143" fill="#EF6C35"/>
<rect x="8.85715" y="9.71429" width="0.857143" height="0.857143" fill="#EF6C35"/>
<rect x="8.85715" y="8.85714" width="0.857143" height="0.857143" fill="#EF6C35"/>
<rect x="8.85715" y="8" width="0.857143" height="0.857143" fill="#EF6C35"/>
<rect x="8.85715" y="7.14286" width="0.857143" height="0.857143" fill="#EF6C35"/>
<rect x="8.85715" y="6.28571" width="0.857143" height="0.857143" fill="#EF6C35"/>
<rect x="8.85715" y="5.42857" width="0.857143" height="0.857143" fill="#EF6C35"/>
<rect x="8.85715" y="4.57143" width="0.857143" height="0.857143" fill="#D94617"/>
<rect x="9.71428" y="4.57143" width="0.857143" height="0.857143" fill="#D94617"/>
<rect x="9.71428" y="5.42857" width="0.857143" height="0.857143" fill="#EF6C35"/>
<rect x="9.71428" y="6.28571" width="0.857143" height="0.857143" fill="#EF6C35"/>
<rect x="9.71428" y="7.14286" width="0.857143" height="0.857143" fill="#EF6C35"/>
<rect x="9.71428" y="8" width="0.857143" height="0.857143" fill="#EF6C35"/>
<rect x="9.71428" y="8.85714" width="0.857143" height="0.857143" fill="#EF6C35"/>
<rect x="10.5714" y="7.14286" width="0.857143" height="0.857143" fill="#EF6C35"/>
<rect x="10.5714" y="6.28571" width="0.857143" height="0.857143" fill="#EF6C35"/>
<rect x="10.5714" y="5.42857" width="0.857143" height="0.857143" fill="#EF6C35"/>
<rect x="10.5714" y="4.57143" width="0.857143" height="0.857143" fill="#EF6C35"/>
<rect x="10.5714" y="3.71429" width="0.857143" height="0.857143" fill="#D94617"/>
<rect x="11.4286" y="3.71429" width="0.857143" height="0.857143" fill="#D94617"/>
<rect x="11.4286" y="4.57143" width="0.857143" height="0.857143" fill="#EF6C35"/>
<rect x="11.4286" y="5.42857" width="0.857143" height="0.857143" fill="#EF6C35"/>
<rect x="11.4286" y="2.85714" width="0.857143" height="0.857143" fill="#D94617"/>
<rect x="12.2857" y="2.85714" width="0.857143" height="0.857143" fill="#D94617"/>
<rect x="12.2857" y="3.71429" width="0.857143" height="0.857143" fill="#EF6C35"/>
<rect x="9.71428" y="3.71429" width="0.857143" height="0.857143" fill="#D94617"/>
<rect x="8" y="4.57143" width="0.857143" height="0.857143" fill="#D94617"/>
<rect x="8" y="5.42857" width="0.857143" height="0.857143" fill="#D94617"/>
<rect x="8" y="6.28571" width="0.857143" height="0.857143" fill="#EF6C35"/>
<rect x="7.14285" y="6.28571" width="0.857143" height="0.857143" fill="#EF6C35"/>
<rect x="7.14285" y="7.14286" width="0.857143" height="0.857143" fill="#EF6C35"/>
<rect x="7.14285" y="8" width="0.857143" height="0.857143" fill="#EF6C35"/>
<rect x="7.14285" y="8.85714" width="0.857143" height="0.857143" fill="#EF6C35"/>
<rect x="7.14285" y="9.71429" width="0.857143" height="0.857143" fill="#EF6C35"/>
<rect x="7.14285" y="10.5714" width="0.857143" height="0.857143" fill="#EF6C35"/>
<rect x="6.28572" y="8" width="0.857143" height="0.857143" fill="#EF6C35"/>
<rect x="6.28572" y="7.14286" width="0.857143" height="0.857143" fill="#EF6C35"/>
<rect x="6.28572" y="6.28571" width="0.857143" height="0.857143" fill="#D94617"/>
<rect x="6.28572" y="5.42857" width="0.857143" height="0.857143" fill="#D94617"/>
<rect x="7.14285" y="5.42857" width="0.857143" height="0.857143" fill="#D94617"/>
<rect x="5.42857" y="6.28571" width="0.857143" height="0.857143" fill="#D94617"/>
<rect x="5.42857" y="7.14286" width="0.857143" height="0.857143" fill="#EF6C35"/>
<rect x="5.42857" y="8" width="0.857143" height="0.857143" fill="#EF6C35"/>
<rect x="4.57143" y="8" width="0.857143" height="0.857143" fill="#EF6C35"/>
<rect x="4.57143" y="7.14286" width="0.857143" height="0.857143" fill="#D94617"/>
<rect x="4.57143" y="6.28571" width="0.857143" height="0.857143" fill="#D94617"/>
<rect x="3.71428" y="7.14286" width="0.857143" height="0.857143" fill="#D94617"/>
<rect x="2.85715" y="7.14286" width="0.857143" height="0.857143" fill="#D94617"/>
</svg>
