<svg width="24" height="24" viewBox="0 0 24 24" fill="none" xmlns="http://www.w3.org/2000/svg">
<path d="M14.8945 10.6516C15.1874 10.3588 15.1874 9.88388 14.8945 9.59099C14.6016 9.2981 14.1268 9.2981 13.8339 9.59099L12.2429 11.182L10.6519 9.59099C10.359 9.2981 9.88412 9.2981 9.59122 9.59099C9.29833 9.88388 9.29833 10.3588 9.59122 10.6517L11.1822 12.2426L9.59122 13.8336C9.29833 14.1265 9.29833 14.6014 9.59122 14.8943C9.88412 15.1872 10.359 15.1872 10.6519 14.8943L12.2429 13.3033L13.8339 14.8943C14.1268 15.1872 14.6016 15.1872 14.8945 14.8943C15.1874 14.6014 15.1874 14.1265 14.8945 13.8336L13.3035 12.2426L14.8945 10.6516Z" fill="#2D264B"/>
<path fill-rule="evenodd" clip-rule="evenodd" d="M9.56308 1.25C8.02129 1.25 6.77141 2.49987 6.77141 4.04167C6.77141 4.75503 6.19312 5.33333 5.47975 5.33333H5.17088C3.59483 5.33333 2.19091 6.55273 2.27642 8.24648C2.37794 10.2575 2.82459 13.3918 4.45375 16.3608C4.91004 17.1923 5.51943 18.0092 6.1782 18.7703L6.22779 18.8276C7.17546 19.9226 7.96562 20.8356 8.81509 21.4579C9.72878 22.1273 10.704 22.4607 12.0003 22.4607C13.2965 22.4607 14.2717 22.1273 15.1854 21.4579C16.0349 20.8356 16.825 19.9226 17.7727 18.8276L17.8223 18.7703C18.4811 18.0092 19.0905 17.1923 19.5468 16.3608C21.2301 13.2931 21.6498 9.82667 21.7326 7.66561C21.7972 5.97999 20.4033 4.75 18.8184 4.75H18.2291C17.6768 4.75 17.2291 4.30228 17.2291 3.75C17.2291 2.36929 16.1098 1.25 14.7291 1.25H9.56308ZM8.27141 4.04167C8.27141 3.3283 8.84971 2.75 9.56308 2.75H14.7291C15.2814 2.75 15.7291 3.19772 15.7291 3.75C15.7291 5.13071 16.8484 6.25 18.2291 6.25H18.8184C19.6561 6.25 20.2619 6.8731 20.2337 7.60819C20.1546 9.67293 19.752 12.8686 18.2317 15.6392C17.8428 16.348 17.3042 17.0768 16.6881 17.7886C15.678 18.9557 14.9959 19.7373 14.2989 20.2479C13.6514 20.7223 12.9891 20.9607 12.0003 20.9607C11.0114 20.9607 10.3491 20.7223 9.70155 20.2479C9.00457 19.7373 8.32248 18.9557 7.31237 17.7886C6.69628 17.0768 6.15772 16.348 5.76878 15.6392C4.29029 12.9448 3.86996 10.0616 3.77451 8.17085C3.73819 7.45149 4.33075 6.83333 5.17088 6.83333H5.47975C7.02154 6.83333 8.27141 5.58346 8.27141 4.04167Z" fill="#2D264B"/>
</svg>
