<svg width="24" height="24" viewBox="0 0 24 24" fill="none" xmlns="http://www.w3.org/2000/svg">
<path fill-rule="evenodd" clip-rule="evenodd" d="M14.179 3.60132C13.0781 2.1713 10.9216 2.1713 9.82072 3.60132L6.95608 7.3226C5.56403 9.13092 6.85313 11.7501 9.13519 11.7501L11.2498 11.7501L11.2498 22.0001C11.2498 22.4144 11.5856 22.7501 11.9998 22.7501C12.4141 22.7501 12.7498 22.4144 12.7498 22.0001L12.7498 11.7501H14.8645C17.1465 11.7501 18.4356 9.13092 17.0436 7.32261L14.179 3.60132ZM11.0093 4.51632C11.5097 3.86631 12.49 3.86631 12.9903 4.51632L15.855 8.2376C16.4877 9.05956 15.9018 10.2501 14.8645 10.2501L9.13519 10.2501C8.09789 10.2501 7.51194 9.05956 8.14468 8.2376L11.0093 4.51632Z" fill="#2D264B"/>
</svg>
