<svg width="24" height="24" viewBox="0 0 24 24" fill="none" xmlns="http://www.w3.org/2000/svg">
<g clip-path="url(#clip0_16_212)">
<path d="M16 20.334V18.135C17.7144 17.2284 19.0124 15.6947 19.623 13.854C18.3138 14.094 16.9677 14.0407 15.6817 13.6978C14.3956 13.355 13.2016 12.7312 12.1857 11.8713C11.1697 11.0115 10.3571 9.937 9.80643 8.72529C9.25574 7.51358 8.98066 6.19481 9.001 4.86399C8.01997 5.38284 7.16597 6.11245 6.50032 7.00045C5.83467 7.88845 5.37387 8.91281 5.151 9.99999H3.117C3.45163 7.91207 4.47293 5.99536 6.01932 4.55312C7.5657 3.11088 9.54886 2.22547 11.655 2.03699C11.0034 3.4297 10.8284 4.99822 11.1572 6.50028C11.4859 8.00235 12.3001 9.35437 13.474 10.3475C14.6478 11.3407 16.116 11.9197 17.6518 11.9952C19.1876 12.0706 20.7055 11.6383 21.971 10.765C22.1283 12.7887 21.6335 14.8096 20.559 16.5317C19.4845 18.2538 17.8868 19.5867 16 20.335V20.334ZM7 20H14V22H7V20ZM4 12H10V14H4V12ZM2 16H12V18H2V16Z" fill="#09121F"/>
</g>
<defs>
<clipPath id="clip0_16_212">
<rect width="24" height="24" fill="white"/>
</clipPath>
</defs>
</svg>
