<?xml version="1.0" ?><svg viewBox="0 0 1000 1000" xmlns="http://www.w3.org/2000/svg"><defs><style>.cls-1{fill:none;}.cls-1,.cls-2{stroke:#000;stroke-miterlimit:10;}</style></defs><g data-name="Layer 10" id="Layer_10"><path d="M927,451.54a5.06,5.06,0,0,0,0-.68,8.79,8.79,0,0,1-.12-1.15,1.36,1.36,0,0,0-1.34-.21c-24.34,7.84-44.8,27-55.59,50A90,90,0,0,0,863.37,519c-30.88.49-60.32,17.58-77.12,43.36A88.23,88.23,0,0,0,775.71,585a63.56,63.56,0,0,0-44.17,15.89,7.29,7.29,0,0,1-1.65,1.43c-.8.34-1.24-.34-2-.54l-2.75-.72-5.51-1.43A49,49,0,0,0,703,564a47.15,47.15,0,0,0-39.24-10.57,47.75,47.75,0,0,0-18.31,7.36c6.18-17.91-.12-39-14-51.72a42.53,42.53,0,0,0-27.5-11.26,50.06,50.06,0,0,0-28.86,8.61c-9.48,6.34-16.77,15.8-19.57,26.93-20,1.15-37.16,17.7-41.21,37a40.31,40.31,0,0,0-.09,16.48c.18.89,1.53.51,1.36-.37-3.88-19.16,7.86-39.23,25-47.62a38.66,38.66,0,0,1,15.53-4,.8.8,0,0,0,.76-.59c4.63-19.48,23.82-33.62,43.46-34.63a40.46,40.46,0,0,1,27.07,8.46,48.24,48.24,0,0,1,16.05,23.62c3.21,10.32,3.07,21.73-1.48,31.63a1.13,1.13,0,0,0,1.77,1.37,46.41,46.41,0,0,1,38.09-8.82,45.49,45.49,0,0,1,35.3,44.72,1.31,1.31,0,0,0,.93,1.22c1.72.46,3.47.82,5.2,1.25.9.22,1.78.45,2.66.73.41.12.82.26,1.22.41a1.5,1.5,0,0,1,.59.3,20.21,20.21,0,0,0-1.86,2.15c-.71.83-1.4,1.68-2.06,2.55a59.58,59.58,0,0,0-3.68,5.39,61.3,61.3,0,0,0-5.53,11.8,63.59,63.59,0,0,0-3.45,18.78,61.58,61.58,0,0,0,5.07,26.48,72.73,72.73,0,0,0-6.76,5.08c-1.07.91-2.12,1.85-3.14,2.82a2.29,2.29,0,0,1-1.66.83c-5.77.75-11.95,2-17.2,4.6a59.18,59.18,0,0,0-26,22.11,60.35,60.35,0,0,0-9.94,35.2,37.84,37.84,0,0,0-27,17.51c-6.27,10.12-6.66,22.71-2,33.53a36.83,36.83,0,0,0,6,9.45,35.73,35.73,0,0,0,4.12,4c1.68,1.4,3,2.56,5.32,2.62.51,0,1,0,1.51,0a17.48,17.48,0,0,1,2.29,0,.69.69,0,0,0-.33-.42,35.12,35.12,0,0,1-12.84-10.83,35.09,35.09,0,0,1-6.41-19.8,33.27,33.27,0,0,1,14.32-27.23,33.64,33.64,0,0,1,16.49-6.17,1.49,1.49,0,0,0,1.45-1.46c-.85-21.69,10.58-43.3,29.81-53.75a56.72,56.72,0,0,1,11.51-4.68,59.94,59.94,0,0,1,27.67-1.25,52.33,52.33,0,0,1,23.69,11l.1.08c10,8.41,16.34,21.74,12.81,34.86a1.63,1.63,0,0,0,2,2,28.61,28.61,0,0,1,21.35,3.89,27.51,27.51,0,0,1,12,18,27.79,27.79,0,0,1-.5,12.63,1.72,1.72,0,0,0,.79,1.93,26.09,26.09,0,0,1,9,40.13.53.53,0,0,0-.29.14L803.05,810a.6.6,0,0,0-.18.42.53.53,0,0,0,0,.12h1.73l.57-.12a9.84,9.84,0,0,1,1.42-.12,1.14,1.14,0,0,1,.49.11l.28,0h0A29.76,29.76,0,0,0,814,791.08a29.71,29.71,0,0,0-15.47-25.15,31.87,31.87,0,0,0-3.62-23,30.78,30.78,0,0,0-19.65-14.23,31.84,31.84,0,0,0-11.55-.46c2-11.56-2.45-23.42-10.54-31.82S733.64,682.55,722,680.72c-1.86-.29-3.84-.51-5.76-.63s-4,.19-6-.15a22.19,22.19,0,0,0,1.76-1.68c.73-.56,1.5-1.06,2.24-1.62q2.19-1.64,4.52-3.08a1.54,1.54,0,0,0,.53-2,60.91,60.91,0,0,1-.79-47,58.52,58.52,0,0,1,32.68-32.16,59.62,59.62,0,0,1,25.6-4.19,1.57,1.57,0,0,0,1.51-1.15c8.27-29,32.55-52.3,61.25-61a83.63,83.63,0,0,1,25.14-3.68,1.71,1.71,0,0,0,1.63-1.24,94,94,0,0,1,41.19-59.39,95.28,95.28,0,0,1,18.76-9.16,1.62,1.62,0,0,0,.67-.45Z"/><path d="M52,459.73a5.19,5.19,0,0,1,0-.68,7.34,7.34,0,0,0,.11-1.15,1.33,1.33,0,0,1,1.32-.21c23.89,7.84,44,27,54.56,50a90.8,90.8,0,0,1,6.41,19.44c30.32.48,59.21,17.57,75.71,43.35a88.65,88.65,0,0,1,10.34,22.71,61.77,61.77,0,0,1,43.36,15.89,7.43,7.43,0,0,0,1.62,1.44c.78.33,1.21-.35,2-.55l2.7-.71,5.4-1.44a49.45,49.45,0,0,1,16.37-35.68,45.63,45.63,0,0,1,38.52-10.56,46.27,46.27,0,0,1,18,7.35c-6.07-17.91.12-39,13.75-51.72a41.3,41.3,0,0,1,27-11.26,48.48,48.48,0,0,1,28.32,8.61,46.39,46.39,0,0,1,19.21,26.93c19.65,1.15,36.48,17.7,40.46,37a41.2,41.2,0,0,1,.08,16.48c-.18.89-1.51.51-1.33-.37,3.8-19.16-7.72-39.23-24.58-47.62a37.37,37.37,0,0,0-15.24-3.95.8.8,0,0,1-.76-.59c-4.54-19.48-23.38-33.62-42.65-34.63a39.24,39.24,0,0,0-26.58,8.46,48.28,48.28,0,0,0-15.74,23.62c-3.16,10.32-3,21.73,1.45,31.63a1.12,1.12,0,0,1-1.74,1.37,44.92,44.92,0,0,0-37.39-8.82c-12.89,2.78-23.65,11.65-29.69,23.5a45.4,45.4,0,0,0-5,21.22,1.29,1.29,0,0,1-.91,1.22c-1.69.46-3.41.82-5.11,1.25-.87.22-1.75.46-2.61.73-.4.13-.8.26-1.2.41a1.61,1.61,0,0,0-.58.3,20,20,0,0,1,1.83,2.15c.7.83,1.37,1.68,2,2.55a61,61,0,0,1,3.61,5.39,62.36,62.36,0,0,1,5.42,11.8,64.17,64.17,0,0,1,3.39,18.78,62.7,62.7,0,0,1-5,26.48,72.29,72.29,0,0,1,6.63,5.08c1.05.91,2.08,1.85,3.08,2.82a2.25,2.25,0,0,0,1.63.83c5.67.75,11.73,2,16.89,4.6a58.43,58.43,0,0,1,25.47,22.11,61.26,61.26,0,0,1,9.77,35.2A37.11,37.11,0,0,1,348.84,768c6.16,10.12,6.54,22.71,1.92,33.54A37.11,37.11,0,0,1,344.9,811a35.84,35.84,0,0,1-4,4c-1.65,1.41-3,2.56-5.23,2.62-.49,0-1,0-1.48,0a16.9,16.9,0,0,0-2.25,0,.71.71,0,0,1,.32-.42,34.55,34.55,0,0,0,12.61-10.83,35.93,35.93,0,0,0,6-15.33,35.24,35.24,0,0,0,.33-4.47,33.46,33.46,0,0,0-14.05-27.23,32.67,32.67,0,0,0-16.19-6.17,1.47,1.47,0,0,1-1.42-1.45c.83-21.7-10.38-43.31-29.26-53.76a55.2,55.2,0,0,0-11.3-4.68,57.79,57.79,0,0,0-27.16-1.25,51,51,0,0,0-23.26,11l-.1.08c-9.85,8.41-16,21.74-12.57,34.86a1.61,1.61,0,0,1-1.94,2,27.23,27.23,0,0,0-32.73,21.93,28.36,28.36,0,0,0,.5,12.63,1.76,1.76,0,0,1-.78,1.94A26.53,26.53,0,0,0,167,793.73a27.1,27.1,0,0,0,5.05,22.9.53.53,0,0,1,.28.14l1.36,1.43a.63.63,0,0,1,.17.42.53.53,0,0,1,0,.12h-1.69a5.78,5.78,0,0,0-.57-.12,9.2,9.2,0,0,0-1.39-.12,1.13,1.13,0,0,0-.48.11l-.27,0h0a30.09,30.09,0,0,1-6.49-19.31,29.74,29.74,0,0,1,7.3-18.75,28.79,28.79,0,0,1,7.88-6.4,32.5,32.5,0,0,1,3.55-23A30.28,30.28,0,0,1,200.9,736.9a30.71,30.71,0,0,1,11.34-.46c-2-11.56,2.41-23.41,10.34-31.82s19.21-13.88,30.6-15.71c1.83-.29,3.77-.51,5.65-.63s3.92.19,5.87-.15a20.52,20.52,0,0,1-1.73-1.68c-.72-.56-1.48-1.06-2.2-1.61-1.44-1.1-2.91-2.13-4.43-3.09a1.56,1.56,0,0,1-.53-2,62,62,0,0,0,.78-47,58.26,58.26,0,0,0-57.21-36.35,1.56,1.56,0,0,1-1.48-1.14c-8.12-29-32-52.31-60.12-61a80.37,80.37,0,0,0-24.67-3.69,1.7,1.7,0,0,1-1.61-1.24A93.9,93.9,0,0,0,71.08,469.9a92.56,92.56,0,0,0-18.42-9.17,1.58,1.58,0,0,1-.66-.45Z"/><path d="M52,818.5c72.88-4.12,145.79-6.55,218.69-8.38L298,809.4l27.34-.53,54.69-1c18.22-.33,36.45-.46,54.68-.7l54.69-.62,54.69-.24,27.34-.12c9.12,0,18.23-.1,27.35,0l54.69.16,27.35.11,27.34.27c72.93.67,145.86,1.93,218.81,4.86v1l-437.49,4L52,819.5Z"/></g><g data-name="Layer 15" id="Layer_15"><path d="M573.06,186.18a3.92,3.92,0,0,0-.67.68,3.14,3.14,0,0,1-2.32.88,3.17,3.17,0,0,1-2.61-1.81.56.56,0,0,0-1,.57,4.33,4.33,0,0,0,3.54,2.41,4.21,4.21,0,0,0,2.2-.47,4.1,4.1,0,0,0,.91-.63,2,2,0,0,0,.73-1A.56.56,0,0,0,573.06,186.18Z"/><path d="M567.94,181h0l0,0h0Z"/><path d="M568.82,181a.64.64,0,0,0-.3.08h0l-.12,0h-.19l-.07,0-.06,0L568,181l0,0,0,0,0,0,0,0-.07-.11h0v0a.64.64,0,0,1,0-.07v-.19l0-.11v0l0-.05,0-.07a.58.58,0,0,1,.14-.13.54.54,0,0,0,.14-.34s0-.05,0-.07a.3.3,0,0,0-.21-.51.26.26,0,0,0-.23.11.32.32,0,0,0-.25.06,1.67,1.67,0,0,0-.38.37,2,2,0,0,0-.19.39,1.61,1.61,0,0,0,0,.87,1.43,1.43,0,0,0,.45.73,1.6,1.6,0,0,0,.89.36,1.3,1.3,0,0,0,.48,0,.83.83,0,0,0,.58-.34A.49.49,0,0,0,568.82,181Z"/><path d="M557.45,329.51a.7.7,0,0,0,0,1.4A.7.7,0,0,0,557.45,329.51Z"/><path d="M765.8,831.85a28.41,28.41,0,0,1-11.5,7.45c-1,.35-.59,2,.44,1.62a30.7,30.7,0,0,0,12.35-7.78C767.91,832.29,766.61,831,765.8,831.85Z"/><path d="M763.38,827.52a1,1,0,0,0-1.55.2,7.85,7.85,0,0,1-2.57,2.62,14.26,14.26,0,0,1-3.39,1.78.76.76,0,0,0-.52.91.74.74,0,0,0,.91.51,15.82,15.82,0,0,0,3.78-1.86,16.25,16.25,0,0,0,1.69-1.31l.77-.67c.14-.11.27-.23.4-.35l.16-.15s.21-.2.12-.13A1,1,0,0,0,763.38,827.52Z"/><path d="M574.53,845.72a10.55,10.55,0,0,0-1.86.06l-1.79.09-3.66.17a1.17,1.17,0,1,0,0,2.33l3.73-.18,1.86-.09a11.42,11.42,0,0,0,2-.15,1.12,1.12,0,0,0,.81-1.24A1.15,1.15,0,0,0,574.53,845.72Z"/><path d="M579.35,852.4a30.18,30.18,0,0,0-4.25.07l-4.3.21-8.61.42c-1.51.08-1.52,1.62,0,1.54l8.61-.4,4.3-.21a31.26,31.26,0,0,0,4.25-.31C580.26,853.55,580.44,852.49,579.35,852.4Z"/><path d="M542.26,171.15a2.89,2.89,0,0,0-2.55.9c-.66.62-1.16,1.4-1.79,2.06a.84.84,0,0,1,.06.14c0,.06,0,.12,0,.18h0v0a7.8,7.8,0,0,1-.71.46,5.67,5.67,0,0,1-1.54.55c-.31.06-.25.61.08.56a6.15,6.15,0,0,0,1.78-.51,6.55,6.55,0,0,0,.58-.32.11.11,0,0,1,0,.06c0,.16,0,.32-.05.48l0,0,.05,0s.21-.17.06,0l.29-.23.54-.49.41-.4a6.71,6.71,0,0,0,.48-.58,4.29,4.29,0,0,1,.8-1,1.14,1.14,0,0,1,1.2-.24,1.13,1.13,0,0,1,.45,1.36,3.13,3.13,0,0,1-.93,1.24c-3.36,3.15-7.65,5.34-10.68,8.83-.85,1-1.17,2.59-1.67,3.81a26.16,26.16,0,0,1-2.13,4.27l-3.6,7.09q-3.6,7.08-7.19,14.18-6.92,13.7-13.81,27.4c-.46,1.25-.91,2.51-1.38,3.76a2.57,2.57,0,0,1-.19.41,2.21,2.21,0,0,1-.06.61,17.8,17.8,0,0,0-.5,3.77c4.74-9.82,9.77-19.51,14.64-29.26q7-14.11,14-28.28l2.1-4.27c.61-1.24,1.13-3,2.14-4,2.31-2.13,5.14-3.88,7.65-5.78A11.58,11.58,0,0,0,543,176a4,4,0,0,0,.94-2.67A2.38,2.38,0,0,0,542.26,171.15Z"/><path d="M790.52,857.33A82.07,82.07,0,0,0,786,849c-3.28-5.29-7.22-11.55-12.12-15.48-.92-.69-1.65-3.12-2.19-4.15-.71-1.33-1.42-2.67-2.14-4-1.56-2.87-3-5.82-4.3-8.81-2.65-6-4.92-12.12-7.24-18.23q-5.53-14.56-10.84-29.21-10.61-29.3-20.38-58.88T708,650.81q-1.49-4.92-3-9.84Q678.57,552.26,659,461.69q-4.5-20.51-8.58-41.1t-7.88-41.45c-1.07-5.92-2-11.89-3.2-17.78a1.66,1.66,0,0,1,.14-1.26c.39-.59,2.34-.78,3-1.19,1.07-.63,2.06-1.4,3.07-2.13a41.39,41.39,0,0,0,5.82-5.17,46.2,46.2,0,0,0,8.52-13c4.62-10.5,5.34-22.17,3.6-33.41a78.92,78.92,0,0,0-1.73-8.19c-.49-1.86-1.17-3.66-1.77-5.49-.15-.45-1-2.28-.77-2.69s1.51-.46,2-.53a7.72,7.72,0,0,0,2.32-.81,14.92,14.92,0,0,0,4.32-3.38,25.42,25.42,0,0,0,5.15-9.89c.16-.55.31-1.11.45-1.67a35.44,35.44,0,0,0-1.58-21.18,33.5,33.5,0,0,0-5.26-8.94,11.51,11.51,0,0,0,6.95-9.3c1.16-9.16-6.71-16.59-13.36-21.53-1.08-.8-2.19-1.58-3.3-2.35-3.91-2.71-7.92-5.27-12.06-7.62a122.47,122.47,0,0,0-16.55-7.91c-1.22-.47-2.43-.92-3.66-1.35a56.93,56.93,0,0,1-6-2.18,20.34,20.34,0,0,1-8.49-7.82,18.23,18.23,0,0,1-1.73-3.85c-1.33-4.15-1.14-8.54-1-12.83a47.34,47.34,0,0,0-1-12.05,30.15,30.15,0,0,0-11.91-18.08c-5.79-4-13.45-5.66-20.21-3.36a20.55,20.55,0,0,0-8.43,5.49,18.69,18.69,0,0,0-2.89,4.11,30.68,30.68,0,0,0-1.68,4.83,8.22,8.22,0,0,0-6.47,2,8,8,0,0,0-1.33,1.52c.45.21.87.47,1.32.7.73.38,1.5.68,2.26,1a32.69,32.69,0,0,1,4.06,2.24c1.42.86,2.87,1.66,4.3,2.49a13.42,13.42,0,0,1,2.28,1.58,12.54,12.54,0,0,1,2.94-2.1A12.11,12.11,0,0,0,576,160.7a12.87,12.87,0,0,0,6.93,1,15,15,0,0,0,3.12-.79,13.1,13.1,0,0,0,3.56,18.6,14.26,14.26,0,0,0,2.83,1.45,5.28,5.28,0,0,0-2.88,3.7,5,5,0,0,0,.09,2.08.74.74,0,0,0-.31.3,14.39,14.39,0,0,1-20.4,5c-4.26-2.81-6.19-7.41-6.8-12.34l-1,0h-1a23.88,23.88,0,0,1-3.38-.12c-2.32-.18-4.65-.18-7-.29,0,0-.06,0-.1,0-.37,0-.75,0-1.12,0-1.32-.05-2.64-.15-4-.2l-.2.24,0,.06-.1.13c-.15.2-.29.41-.43.61a15.42,15.42,0,0,1-1,1.32.51.51,0,0,1-.23.15,12.43,12.43,0,0,0,14.67,15.4,6.26,6.26,0,0,0,10.81,4.79,11.75,11.75,0,0,0,16.07-7.29,36.31,36.31,0,0,1-.37,9.82,37.54,37.54,0,0,1-1.24,5,8.59,8.59,0,0,1-.9,2.67c-.72.89-2,.43-2.84.13a11.56,11.56,0,0,0-3.89-.49,20.08,20.08,0,0,0-6.38,1.1c-20.71,2.11-36.47,17.71-50.5,31.69-2.79,2.78-5.61,5.52-8.42,8.27.83-.81,2.6-1.28,3.63-1.91a31.56,31.56,0,0,0,3.48-2.5c2.22-1.84,4.17-4,6.21-6.05a187.72,187.72,0,0,1,14.29-13.06c8.42-6.77,18.2-12.37,28.88-14.46-9.48,9.34-11.83,23.1-12.18,35.9a2.81,2.81,0,0,0,0,.29,1.1,1.1,0,0,0-.44.35,105.48,105.48,0,0,1-27.79,26A80.87,80.87,0,0,1,508.07,286c-6.2,2.08-13,2.62-18.83-.84a23.84,23.84,0,0,1-10.13-13.35c-2.17-6.88-1.61-14.31.07-21.23,3-12.45,9.37-24,16.78-34.34a237.28,237.28,0,0,1,19.12-23c1.79-1.94,3.69-3.8,5.42-5.79.13-.15.27-.29.41-.43h-.08a.65.65,0,0,1-.56-1,7.81,7.81,0,0,1,.71-.9l0-.06c-17.6,18.26-35.52,37.9-42.66,62.78-2.05,7.13-3.09,14.73-1.49,22.06a26.66,26.66,0,0,0,8.72,14.73,21.4,21.4,0,0,0,17.31,4.48c6.81-1,13.29-4.31,19.24-7.66A105.14,105.14,0,0,0,553.91,254c-.15,13.73.91,27.62-1.81,41.16a56.14,56.14,0,0,1-8.36,20.8c-.59.91.83,1.71,1.43.84a9.83,9.83,0,0,1,6.35-4.34.44.44,0,0,0-.19.3c-1.33,6.8-2.67,13.61-3.87,20.43s-1.8,13.54-2.76,20.29c-2,13.77-4.22,27.5-6.59,41.21s-4.88,27.4-7.37,41.09-5,27.39-7.27,41.12c-2,11.86-3.86,23.76-5.52,35.68a874,874,0,0,0-7.83,90.82c-1,30.49-.27,61,1.48,91.46,1.61,28,4.22,55.92,6.67,83.85.83,9.43.91,19.15,1.43,28.7.55,10.32,1.63,20.6,2.4,30.9a.92.92,0,0,0,.89.89c2.56.22,5.13.41,7.69.59a.83.83,0,0,0-.34.91q1.77,7.58,3.56,15.17a17.23,17.23,0,0,0-4.55-3.73,10.54,10.54,0,0,0-9.1-.54A7.52,7.52,0,0,0,516,859.7a10.67,10.67,0,0,0,1,3.19,24.16,24.16,0,0,0-13.77-1.8,22.49,22.49,0,0,0-16.83,13.84c-1.73,4.16-3.25,11.16-.72,15.35,2.27,3.76,8.12,4.13,12,4.08,7.45-.1,14.9-.29,22.35-.46q22.15-.49,44.32-1.09l25.4-.65a1.23,1.23,0,0,0,1.2-1.2c.16-6,.53-12.07.05-18.1a49,49,0,0,0-1.44-8.83,40,40,0,0,0-3.44-7.77c-1-2-1.05-4.14-1.53-6.33-.6-2.83-1.21-5.66-1.81-8.48,2.19,0,4.37,0,6.56-.07,3.35,0,6.7-.13,10-.27,2.75-.1,5.49-.19,8.24-.34,3.21-.18,2.52-1.39,2.27-4.17-.47-5.29-.91-10.58-1.35-15.87q-1.85-22.12-3.65-44.27c-.52-6.33-1-12.67-1.56-19l-2.79-32.6q-2.47-28.87-5-57.74c-1.65-19.08-3.43-38.16-4.5-57.29-1.18-20.94-1.41-42,.67-62.84,2.21,12.28,4.67,24.51,7.26,36.71q7.93,37.45,18,74.43t22.34,73.63q5,14.87,10.3,29.61c3.45,9.54,7.37,18.94,10.76,28.49,3.49,9.8,7,19.59,10.63,29.34,2.77,7.48,5.48,15.21,8.53,22.67.63,1.55,1.38,3.28,2.09,4.88.55,1.23,1.17,3.8,2.32,4.53,2.23,1.41,5.62-1.74,7.52-2.55l8.75-3.74L718,837.4l5.92,11.3-1.59-.69c-2.31-1-4.72-2.37-7.29-2.51-2.31-.13-4.47,1.36-4.43,3.84,0,2.71,2.29,4.31,4.33,5.66l4.45,3c.51.34,1,.71,1.55,1.09-9.76-2.17-20.59,0-26.67,8.53-5.3,7.45-4.25,19.29,4.3,23.92a14.61,14.61,0,0,0,8,1.83c4.59-.49,9.11-1,13.72-1.42q7.24-.61,14.4-1.91a153.59,153.59,0,0,0,27.94-7.86q6.8-2.64,13.3-5.9c5.51-2.76,10.64-6.08,15.95-9.17l0,0a3.22,3.22,0,0,0,1.47-2.34C793.66,862.57,791.4,859.21,790.52,857.33Zm-200-646.62a16.74,16.74,0,0,0,1,2.45,15.21,15.21,0,0,0,2.5,3.48c.3.31.62.64,1,1a18.88,18.88,0,0,1-4.69-1.39C590.53,214.4,590.53,212.53,590.56,210.71Zm-6.41-.83a33.1,33.1,0,0,0,1.29-5.57,36.14,36.14,0,0,0-.11-10.74,16.36,16.36,0,0,0,4.75-4.7q-.44,6.76-.8,13.53c-.13,2.44-.35,4.9-.39,7.33s.1,6.11-2.13,7.86a2.63,2.63,0,0,1-2.38.53C580.86,217.12,583.52,211.86,584.15,209.88ZM548,312.11c5.52-10.25,7.42-22.1,7.9-33.67.31-7.55,0-15.09-.06-22.64-.08-7.35.1-14.78,1.81-22a43.11,43.11,0,0,1,4.17-11,33.93,33.93,0,0,1,3.38-5c1-1.29,2.1-2.76,3.69-3.41a16.88,16.88,0,0,1,6.05-1.06,18.32,18.32,0,0,1,3.39.27,21.52,21.52,0,0,1,2.24.55,2.65,2.65,0,0,1,.77,2.22,3,3,0,0,0,1.65,2.85,4.16,4.16,0,0,0,3.7.16c.86-.38,1.45-1.77,2.39-1.89s2.69,1,3.71,1.26a19.77,19.77,0,0,0,4.59.64c1,0,2-.29,3.06-.32.25,0,1.11-.13,1.29.12s-.48,1.47-.67,1.89a42.08,42.08,0,0,0-2.67,8.42,48.92,48.92,0,0,0-.31,17.77,49.49,49.49,0,0,0,2.67,9.87,48.32,48.32,0,0,0,7.49,12.93,19,19,0,0,1,1.32,1.58l.11.16a9.89,9.89,0,0,1,1.26,1.32c.26.27.51.55.77.81,2.49,2.51,5.12,4.88,7.45,7.54a24.27,24.27,0,0,1,5.4,9.92c1.95,7.33,1.72,15.73,6.86,21.71-6.58,1.23-12.68-3.6-18.85-5.18-5.9-1.51-11,.62-15.94,3.73s-9.93,6.81-16.16,6.37c-7.24-.52-13.37-5.11-20.28-6.87C556.27,310.19,551.66,310.25,548,312.11ZM627.91,315a12.93,12.93,0,0,0,5.37-.51.87.87,0,0,0,.38-1.43c-5.32-5.22-5.26-13.31-6.59-20.14a4.88,4.88,0,0,0,4.53-.31.63.63,0,0,0,.25-.31c1.11,1.53,2.17,3.1,3.16,4.71a68.69,68.69,0,0,1,7.61,17.22c3.19,11.21,5.3,28.31-6.22,35.21a58.6,58.6,0,0,0-1.49-7c-.6-2.67-1.19-5.35-1.79-8a59,59,0,0,0-1.61-6.74,6,6,0,0,0-2.88-3.67A19.76,19.76,0,0,0,627.91,315Zm-44.08,540.9c0,.23-20.81,3.47-22.75,3.66A102.62,102.62,0,0,1,536.5,859q-2.22-9.37-4.47-18.77a.88.88,0,0,0-.19-.36q24.58,1.7,49.25,1.6Q582.47,848.65,583.83,855.86Zm38.26-525.58a36.37,36.37,0,0,1-7.77,3.21q-4.43,1.42-9,2.41a98.47,98.47,0,0,1-37,.9A96.2,96.2,0,0,1,549,331.43l.1-.72a.37.37,0,0,0-.05-.23q1.68-8.73,3.37-17.44a.58.58,0,0,0-.51-.68,19.29,19.29,0,0,1,9.18.67c6.54,2,12.44,6.09,19.41,6.61,5.86.43,10.73-2.54,15.47-5.58s9.79-6,15.76-4.6c4.88,1.14,9.55,4.18,14.47,5.23.62,3,1.47,6.06.84,9.15A9.82,9.82,0,0,1,622.09,330.28Zm12,30.13a13.11,13.11,0,0,0-2.08,1.72,4.7,4.7,0,0,0-1.36,1.92,13.75,13.75,0,0,1-4.61-5.38,13.36,13.36,0,0,1-.92-8.49,5.21,5.21,0,0,0,.41.52,9.92,9.92,0,0,0,1.64,1.47,6.14,6.14,0,0,0,4.85,1.49c6.51-1.31,11.92-7.83,13.75-13.93,2.1-7,1.32-14.85-.21-21.93a69.57,69.57,0,0,0-13.51-28c-6.58-8.47-16.2-13.66-22.61-22.08a45.2,45.2,0,0,1-5-8.28A48.65,48.65,0,0,1,600,240.62a50.4,50.4,0,0,1,3.84-20.5,55.22,55.22,0,0,1,5.33,2.67c1,.64,1.92,1.24,2.9,1.79,15.41,10.09,25.72,27.28,34.55,43,11.11,19.77,20.43,43.66,12.91,66.36a45.7,45.7,0,0,1-8,14.62c-3.37,4.11-8,8.65-13.23,10.23A14.24,14.24,0,0,0,634.12,360.41Zm135,474.28c-2.06,1.54-4,3.23-6.1,4.72a92,92,0,0,1-13.27,7.81A97.24,97.24,0,0,1,737.92,852a24.35,24.35,0,0,1-6.39,1.44c-3.42.17-4.75-3.63-6.06-6l-5.86-10.7q21.95-9.39,43.87-18.84l4.26,8.38q1.13,2.22,2.26,4.44C771.05,832.77,771,833.34,769.15,834.69Z"/><path d="M520.57,525.24c-31.05,6-54.74,35.87-53.64,67.38-14.75-1.21-29.07,8.87-32.37,23.45-19.39-3.16-39.83,2.95-53.77,17s-19.77,34.62-16.28,54c-23.54,3.6-43.22,22.57-47,46.27-.29,1.88,2.57,2.69,2.88.8,3.75-22.83,23-41.47,46.1-44a1.72,1.72,0,0,0,1.63-2.13c-3.78-18.57,1.87-38.83,15.25-52.37s33.5-19.37,52.15-15.72a1.86,1.86,0,0,0,2.25-1.28c2.35-14.11,16.49-24.49,30.71-21.93a2,2,0,0,0,2.49-1.9c-2-30.67,20.47-59.89,50.69-65.64C524.26,528.71,523.16,524.75,520.57,525.24Z"/><path d="M517.9,245c-3.11,2.38-9.84,8.15-14,6.72-4.36-1.51-1.54-6.06-.29-8.89,1.09-2.46,2.16-4.91,3.25-7.36.35-.8-.8-1.51-1.2-.7-1.88,3.81-4.42,7.73-5.68,11.79-.75,2.41-.58,5.05,1.71,6.54,5.46,3.54,13.48-3.33,17-7C519.21,245.5,518.53,244.48,517.9,245Z"/><path d="M539.82,172.34a4.75,4.75,0,0,0-.93.81c-.34.3-.7.58-1.07.85s-.86.57-1.31.83c-.27.14-1.19.4-1.09.78a.29.29,0,0,0,.26.33.27.27,0,0,0,.13.17l-.14.07a.34.34,0,0,0-.15.19l-.21.1c-.28.12-.28.59.07.59a.77.77,0,0,0,.26-.07c.43-.19,4-1.61,3-2.43a.64.64,0,0,0,.25-.24s0,0,0-.06a.82.82,0,0,0,.24-.35v-.08l.13-.1c.17-.16.35-.32.51-.49a1.49,1.49,0,0,0,.39-.6A.27.27,0,0,0,539.82,172.34Z"/><path d="M523.48,180.66a6.71,6.71,0,0,0-.71-3.09.52.52,0,0,0-1,.19s0,0-.06,0a.43.43,0,0,0-.47.19c-.19.4,0,.67.13,1.06a6.92,6.92,0,0,1,.31,1.27,7.22,7.22,0,0,1-.09,2.54,8.72,8.72,0,0,1-2.21,4,1.07,1.07,0,0,0-.16.27.24.24,0,0,0,.12.27c-.07,0-.34.79.21.69a.27.27,0,0,0,.34,0,8.67,8.67,0,0,0,3.1-4.18,8.93,8.93,0,0,0,.23-.89A8.26,8.26,0,0,0,523.48,180.66Z"/><path d="M448.07,176a12,12,0,0,1-1.21-.35c-.69-.26-1.37-.55-2-.87a4.52,4.52,0,0,0-2-.2l-4.81-.06c-3.54,0-7.08,0-10.61-.06a16.66,16.66,0,0,0,2.82-2.93l.41-.58a18.8,18.8,0,0,0,2.69-4.66,4.92,4.92,0,0,1-1.59-1.92,16.9,16.9,0,0,1-5.93,8.59c-.71.55-1.58,1-2.31,1.48l-3.14,0c.26-.17.52-.33.76-.5a19.17,19.17,0,0,0,4.3-3.32,18.59,18.59,0,0,0,4.7-8.24l-.1-.08,0,0a4.12,4.12,0,0,1-.28-.31c-.18-.21-.34-.43-.51-.67l0,0a.86.86,0,0,0-.07-.1,1.74,1.74,0,0,1-.11-.18,5.4,5.4,0,0,1-.23-.49c0-.14-.07-.28-.11-.42a21.24,21.24,0,0,1-4.47,8.52,19,19,0,0,1-3.59,3.23,40.32,40.32,0,0,1-4.16,2.34,5.94,5.94,0,0,1-2.78.26h-3.18q-3.14,0-6.27,0a.39.39,0,0,1-.1.08c-.66.32-1.31.67-2,.94a4.6,4.6,0,0,1-.89.21l-.15,0a.4.4,0,0,0,.39.29c.34,0,.68,0,1,0a.5.5,0,0,0,.13,0c4.7.15,9.41.21,14.12.25,1.72,0,3.44.2,5.17.08,2.45-.18,4.87.06,7.32.08l7.43.08q3.64,0,7.29,0h.82a18.16,18.16,0,0,0,4.6-.14C449,176.22,448.51,176.11,448.07,176Z"/></g><g data-name="Layer 14" id="Layer_14"><ellipse class="cls-1" cx="458.12" cy="141.72" rx="35.44" ry="33.95" transform="translate(287.07 589.72) rotate(-86.29)"/><ellipse class="cls-1" cx="393.45" cy="141.08" rx="35.44" ry="33.95" transform="translate(227.22 524.59) rotate(-86.29)"/><ellipse cx="455.44" cy="143.13" rx="15.56" ry="6.05" transform="translate(302.61 595.41) rotate(-88.78)"/><ellipse cx="392.82" cy="142.12" rx="15.56" ry="6.05" transform="translate(242.34 531.81) rotate(-88.78)"/><path d="M404.14,124.83c-.95-1.66-3.39-2.89-5.11-3.55a14,14,0,0,0-17,5.5c-.68,1,.82,2.34,1.51,1.27a12.48,12.48,0,0,1,9.28-5.71,12.21,12.21,0,0,1,5.48.81,13,13,0,0,1,2.47,1.31c.77.53,1.4,1.25,2.2,1.74S404.55,125.54,404.14,124.83Z"/><path d="M467.36,126.36a16.54,16.54,0,0,0-11.79-6.1,16.34,16.34,0,0,0-12.84,5.36c-.74.82.58,1.93,1.32,1.11a14.43,14.43,0,0,1,21.9.62C466.64,128.21,468.06,127.21,467.36,126.36Z"/><path d="M435.7,111.7c.71.12,2.34.64,3.67.81a2,2,0,0,1,.21-.28c.47-.46,1-.91,1.45-1.36-.07,0-.12-.09-.22-.1-8.18-1.25-16.39-2.68-24.62-3.6-7.94-.88-15.66-2.2-23.71-2.15,1.19,0,3,1.27,4.34,1.48a34.47,34.47,0,0,0,4.66-.06c3.6.06,7.57,1.23,11,2.21a71.4,71.4,0,0,1,20.12,9.41l.21.09,0,0L434,116.8a1.21,1.21,0,0,0-.16-.16,66.4,66.4,0,0,0-16.29-8c3.73,1.25,8.24,1.42,12.12,2.07Z"/><path d="M568.25,181.14a.74.74,0,0,1-.69-1.25c.13-.12-.06-.31-.19-.19a1,1,0,0,0,1,1.69A.13.13,0,1,0,568.25,181.14Z"/><path d="M573,186.3a3.47,3.47,0,0,1-5.36.52c-.19-.19-.48.11-.29.3a4,4,0,0,0,3.24,1.2,4.12,4.12,0,0,0,2.9-1.73C573.68,186.3,573.17,186,573,186.3Z"/><path d="M571.37,161.23a31.12,31.12,0,0,0-7.19-5.53c-3.77-2.23-7.51-4.53-11.29-6.75Q541.54,142.28,530,136c-13.41-7.26-27.13-13.93-40.86-20.55-4.77-2.3-9.61-4.63-14.82-5.55,0,.51,4.56,2.27,5.18,2.57l5.67,2.82,11.34,5.63,11.1,5.51c2.33,1.15,5,2,6.87,3.91,2.08,2.17,3.73,5.86,4.61,8.7a26.65,26.65,0,0,1,1.08,9.27,36.82,36.82,0,0,1-6.3,18.13A37.45,37.45,0,0,1,503.44,177c-2.55,0-5.1,0-7.64-.06-6.36-.08-12.7.66-19.06.64a126.29,126.29,0,0,1-15.91-1.08c-.62-.08-.77,1-.15,1.1a103,103,0,0,0,16.06,1.51q4,0,8-.2c1-.07,2-.11,3.08-.18l7.3,0c2.55,0,5.11.06,7.67.1a.69.69,0,0,0,.32,0l10.62.17q5.31.09,10.62.11c1.15,0,2.29,0,3.44,0a14.32,14.32,0,0,0,3.34-.18,14.47,14.47,0,0,0,2.39-.94,13.76,13.76,0,0,0,3.14-1.63c.59-.5,0-1.45-.73-1.26a16.44,16.44,0,0,0-2.12.9,14.46,14.46,0,0,1-3.3.93,7.83,7.83,0,0,1-1.61.1c-.51,0-1,0-1.52,0-1,0-2,0-3,0H524l-7.52,0a1.34,1.34,0,0,1-.72-.59,1.32,1.32,0,0,1-.12-.52l.12-.27a38.05,38.05,0,0,0,10.1-16.2,36.9,36.9,0,0,0-.64-22.67c.07-.26.14-.53.22-.81h0a1.59,1.59,0,0,1,.38,0q10.23,5.52,20.3,11.35h0a16.67,16.67,0,0,1,1.48.85l1.7,1,2.28,1.36c.25.3.51.59.76.88l.46.54a21.55,21.55,0,0,1,1.84,13.57c-.54,2.78-1.33,5.78-3.22,8-2.42,2.87-5.78,3-9.28,3.11l-2,.07c-.44.37-.89.73-1.35,1.07-.25.21-.5.42-.76.62a9,9,0,0,1-.91.61c2.05,0,4.13,0,6.22.08-.44,3.1-5.26,2.42-7.54,2.42h-1c-.16.14-.31.3-.46.44a.62.62,0,0,1-.46.19l-.12,0-.21.25-.62.75-.14.18,0,0-.07.09-.14.2c1.42,0,2.84,0,4.28,0a2.09,2.09,0,0,1,.34,0,.61.61,0,0,1,.18,0l.42,0c.22,0,.44,0,.67,0a26.2,26.2,0,0,0,3.49-.5,4.4,4.4,0,0,0,3.41-3.86s0-.06,0-.09c1.16.09,2.31.19,3.45.33,1.94,0,3.9.13,5.92.26,4.15.28,8.32.34,12.48.5,1.62.06,3.52-1.81,4.51-2.9a11.67,11.67,0,0,0,3-6.9A12.19,12.19,0,0,0,571.37,161.23Zm-58.1,14.66a9.1,9.1,0,0,1-1.42.74,6.59,6.59,0,0,1-2,.41h-1.14a2.91,2.91,0,0,1-1-.27,1.22,1.22,0,0,1-.55-.65,37.23,37.23,0,0,0,13.26-19.34c2.31-8.24,1.69-17.62-3.28-24.65v0h0s0,0,0,0,0,0,0-.08,0,0,0,0l0-.09,0-.06,0,0,0-.06,0,0c.32.09.64.2,1,.31l2.74,1.46a16.7,16.7,0,0,1,1.83,1.4C528.36,149,524.62,165.71,513.27,175.89Zm41,.69a4.46,4.46,0,0,1-1.6,1.39,2.45,2.45,0,0,1-1.13.18c-.28,0-1.1.08-1.18-.3s.29-.6.43-.79c.78-1,1.54-2.1,2.33-3.13a19,19,0,0,0,3.53-8.86V165A21.94,21.94,0,0,0,555,153.16a.41.41,0,0,0,0-.09,1.53,1.53,0,0,1,.53-.22c.71.43,1.42.87,2.13,1.29,0,.1.11.2.17.3a22.16,22.16,0,0,1,1,13.13,20.61,20.61,0,0,1-2.75,6.26A30,30,0,0,1,554.22,176.58Zm18.69-6.32a13.79,13.79,0,0,1-2.73,6.15c-1.57,2-3.67,2.21-6,2.13l-7.65-.26a1.42,1.42,0,0,1-.36-.33,1.28,1.28,0,0,1-.19-.87,22.89,22.89,0,0,0,4.49-9,22.46,22.46,0,0,0,0-10.9,1.7,1.7,0,0,1,.16-.48,1.34,1.34,0,0,1,.53-.27c1,.56,2.39,1.13,2.84,1.39C568.43,160.41,573.67,164.39,572.91,170.26Z"/><path d="M232.9,151.22h-.06a2.56,2.56,0,0,0-.55-1,2.67,2.67,0,0,0-4.11.18l-.16,0-.38.08-.2,0-.16,0-.13,0-.19,0-.46.06-.92.12a.42.42,0,0,0-.16.78c.55.25,1.11.48,1.65.76l.75.41h0a2.84,2.84,0,0,0,.29.61,2.63,2.63,0,0,0,1.67,1.12,2.66,2.66,0,0,0,2-.39,2.57,2.57,0,0,0,1.15-2s0,0,0-.06A.41.41,0,0,0,232.9,151.22Z"/><path d="M163.48,133.66a.75.75,0,0,0-.81-.7.77.77,0,0,0-.7.81v.07s0,0,0,0a1.55,1.55,0,0,1,0,.21c0-.06,0,.08,0,.09a.86.86,0,0,1-.11.19,1.4,1.4,0,0,1-.54.44,1.83,1.83,0,0,1-1.52,0,5.44,5.44,0,0,1-2.44-3.06.62.62,0,0,0-.78-.38.61.61,0,0,0-.38.77c.72,1.71,1.65,3.47,3.54,4.06A2.92,2.92,0,0,0,163.48,133.66Z"/><path d="M157.32,140.68c-7.34,1.41-14.57-1.93-21.95-1.07A24.87,24.87,0,0,0,119.49,148a.65.65,0,0,0-.35.38h0a.58.58,0,0,0,.72.89c3.82,1.67,7.62,3.41,11.49,5,3.51,1.41,7.24,2.4,11,1.64a18.51,18.51,0,0,0,9-5,31.46,31.46,0,0,0,3.71-4.35c1-1.4,2.47-3.13,2.87-4.82C158.17,141.25,158,140.56,157.32,140.68ZM154.05,145a35.54,35.54,0,0,1-3.41,4,18.06,18.06,0,0,1-8.65,5.11c-3.77.87-7.54-.33-11-1.71s-6.78-2.76-10.17-4.15a24.3,24.3,0,0,1,15.82-7.49c6.51-.44,12.87,2.09,19.37,1.41C155.27,143.15,154.68,144.19,154.05,145Z"/><path d="M142.93,143.48a65.76,65.76,0,0,0-11.13.76c-2.7.45-5.45,1.34-7,3.76-.4.62.63,1.13,1,.51,1.48-2.29,4.46-2.9,7-3.23a72.46,72.46,0,0,1,10.2-.61C143.78,144.68,143.7,143.48,142.93,143.48Z"/><path d="M136.91,147.6a1.7,1.7,0,0,0-1-.36,6.59,6.59,0,0,0-1-.07,6.29,6.29,0,0,0-1.82.29,6,6,0,0,0-3,2.11.62.62,0,0,0,0,.84.61.61,0,0,0,.85,0,4.93,4.93,0,0,1,3.94-2,3.59,3.59,0,0,1,.73.05,2.52,2.52,0,0,0,.89.12A.57.57,0,0,0,136.91,147.6Z"/><path d="M110,133.07a14,14,0,0,0-2.27-2.89l-3.24-11.36c-.75-2.63-1.66-7.13-5.31-6.88-3.35.23-4.35,4.09-3.75,6.83.64,3,2.79,5.39,5,7.32,2.9,2.47,6.33,4.42,8.28,7.81C109.24,134.74,110.49,133.91,110,133.07Zm-11.92-11.6c-1.45-2.13-2.69-6.15,0-7.92,1.63-1.07,3.3,0,4.1,1.56a21.44,21.44,0,0,1,1.4,4.42l2.47,9.11C103.27,126.36,100.13,124.46,98.08,121.47Z"/><path d="M90.75,126.34c-1.32-1.43-1.38-3.56-1.79-5.36s-1.17-3.51-2.82-4.24a3,3,0,0,0-4,1.2c-.86,1.75.12,3.58,1.3,4.88A11.23,11.23,0,0,0,88.62,126l1.4,1.14A.55.55,0,0,0,90.75,126.34Zm-7.68-7.71c.46-1.33,2.17-1.35,3.15-.62,1.32,1,1.66,2.72,1.92,4.24a18.31,18.31,0,0,0,.62,2.68,10.38,10.38,0,0,1-3.86-2.26C83.87,121.7,82.55,120.17,83.07,118.63Z"/><path d="M97.94,149.43a1,1,0,0,0,0-.16,17.84,17.84,0,0,0-8.76-17.65,8.14,8.14,0,0,0-5.56-1.28,4,4,0,0,0-3.2,3.29c-.18,1.76,1.18,3.21,2.65,3.94,1.84.91,3.9,1.18,5.72,2.15a16.2,16.2,0,0,1,7.83,9.76c0,.14,0,.28-.06.42a.64.64,0,0,0,1.25.25s0-.06,0-.09A.66.66,0,0,0,97.94,149.43ZM93,141.18a17.52,17.52,0,0,0-3.92-2.75c-1.62-.82-3.37-1.13-5-1.81s-3.33-2.37-1.84-4.07,3.9-1,5.61-.15a16.06,16.06,0,0,1,6.84,6.69,16.79,16.79,0,0,1,2,7.07A17.37,17.37,0,0,0,93,141.18Z"/><path d="M108.3,152.43c-.45-.53-1-.94-1.46-1.49a8.31,8.31,0,0,1-1.07-1.69c-.59-1.26-.75-2.8-2.06-3.56a2,2,0,0,0-3,1.62c-.17,1.46.86,2.78,1.85,3.73a8.83,8.83,0,0,0,4.29,2.28.64.64,0,0,0,.57-.13l.15.09C108,153.53,108.7,152.9,108.3,152.43Zm-5.47-3.22a3.43,3.43,0,0,1-.73-1.37,1,1,0,0,1,.32-1c.35-.23.8.06,1,.32a4,4,0,0,1,.7,1.47,11,11,0,0,0,.72,1.65,10.14,10.14,0,0,0,.77,1.16,6.9,6.9,0,0,1-1.62-1A6.65,6.65,0,0,1,102.83,149.21Z"/><rect height="689" rx="7.5" width="15" x="52" y="213"/><path d="M72,893.05l-20.38.16.09-.11a10,10,0,0,1,0,3.54v-.06a2.12,2.12,0,0,1-.11,1.9v-.08a5.39,5.39,0,0,1,.09,2.49l-.11-.12H75.7q12.06-.07,24.14-.28t24.13-.67c8-.31,16.08-.68,24.08-1.39,2-.19,4-.39,6-.69a22.06,22.06,0,0,0,2.89-.59,3.28,3.28,0,0,0,.59-.24c.05,0,.09-.12,0,.05s.11.23,0,.18a4.81,4.81,0,0,0-1.24-.43,56.8,56.8,0,0,0-5.91-.85q-3-.3-6-.51c-8-.58-16.06-.86-24.09-1.19C104.19,893.56,88.1,893.09,72,893.05Zm0-.1c16.1,0,32.2-.13,48.3.28q12.09.28,24.15,1.12,3,.21,6,.51a52.53,52.53,0,0,1,6,.89,5.33,5.33,0,0,1,1.58.59.81.81,0,0,1,.38.78.93.93,0,0,1-.47.6,3.54,3.54,0,0,1-.81.33,22,22,0,0,1-3,.61c-2,.29-4,.48-6,.65-8,.66-16.08,1-24.13,1.25s-16.1.43-24.15.53-16.1.16-24.15.14L51.55,901h-.12v-.12a5,5,0,0,0-.06-2.4v-.05l0,0a1.87,1.87,0,0,0,.11-1.72v0a9.93,9.93,0,0,0,0-3.48l0-.1h.11Z"/><path class="cls-2" d="M156.13,897a6.3,6.3,0,0,1-2,.77,4.87,4.87,0,0,1-1.28.35l-.05,0a10.69,10.69,0,0,1-2.24.37h-.31a5.86,5.86,0,0,1-.94-.08,5.15,5.15,0,0,1-1,.08h-.77a6.55,6.55,0,0,1-1.34-.16,5,5,0,0,1-1.1.08h-.32a4.73,4.73,0,0,1-.54,0,4.87,4.87,0,0,1-2.8.71h-.25a6.43,6.43,0,0,1-2.89-.68,4.81,4.81,0,0,1-2.31.46h-.19a6.53,6.53,0,0,1-3.73-1.17l-.45-.41a5.86,5.86,0,0,1-.67.32,5,5,0,0,1-2.85.74h-.25a6.23,6.23,0,0,1-1.5-.2,4.81,4.81,0,0,1-2,.35h-.06a6.61,6.61,0,0,1-3-.75,6.86,6.86,0,0,1-1,.08,6.57,6.57,0,0,1-3.3-.85H115.7a6.41,6.41,0,0,1-5.07,2.34h-.19a7.12,7.12,0,0,1-4.36.2l-.24.11a4.89,4.89,0,0,1-1.82.67,6.92,6.92,0,0,1-2.24.37,6.45,6.45,0,0,1-3.63-1,6.56,6.56,0,0,1-3.11.75,6.46,6.46,0,0,1-3.78-1.14l-.38,0a6.58,6.58,0,0,1-3.31-.84l-.19.08h0l-1.42.22a7.22,7.22,0,0,1-1.8.9l-2,.3a4.87,4.87,0,0,1-2.84-.74,4.93,4.93,0,0,1-.83-.41,4.6,4.6,0,0,1-.65.25,9.37,9.37,0,0,1-2.23.37h-.28a7.39,7.39,0,0,1-1.44.15c-.28,0-.54,0-.8,0a7,7,0,0,1-2.15.34,6.49,6.49,0,0,1-3.84-1.18,6.59,6.59,0,0,1-3.09.73,7.21,7.21,0,0,1-1.06-.09,7.53,7.53,0,0,1-.76.31l-.94.14a6.7,6.7,0,0,1-.91.21l-.1,0a7.07,7.07,0,0,1-1,.08l-.27,0-.3,0A6.47,6.47,0,0,1,53,897H52v10.5H157.5V897Z"/><path d="M247.65,181.52a22.62,22.62,0,0,0-19.93-1.58.41.41,0,0,0-.1.7,39.44,39.44,0,0,0-5.54.74,5.48,5.48,0,0,0-1.4.1.51.51,0,0,0-.4.3,40.45,40.45,0,0,0-8.46,3.14c-4.54-.78-9.07-1.41-13.5-2.49,1.57-.46,3.14-1,4.7-1.45a25.34,25.34,0,0,0,24.79-8.88.59.59,0,0,0-.32-1,21.58,21.58,0,0,0-23.28,8.08.56.56,0,0,0-.1.38l-.82.28-.33-.07a.51.51,0,0,0-.63.38c-1.92.62-3.84,1.22-5.78,1.79a41.86,41.86,0,0,1-10-4.09c-3-1.76-6.1-3.56-9.29-5,1.35.63,5.11.24,6.76.36,1.92.12,8.91-2,4.54-4.32-1.94-1-3.85,1.22-5.56,1.8-1.55.52-6.57,1.76-8,1.2a30.59,30.59,0,0,0-6.59-1.89c13.12-2.66,26.3-5,39.44-7.58,0,0,0,0,.06.05a42.59,42.59,0,0,0,15.61,3.79c4,2,8.36,4,13,3.74a11.61,11.61,0,0,0,9.43-5c.18-.29-.07-.59-.34-.68a33.07,33.07,0,0,0-22.06.3.47.47,0,0,0-.29.31l-.16-.08a.51.51,0,0,0-.73.4,42,42,0,0,1-13-3.14c2.93-.58,5.86-1.15,8.77-1.75,1.21-.26.8-2.35-.43-2.14q-11.76,2.1-23.49,4.37c5.78-3,11.12-7.14,16.66-10.68l5.55-1a.6.6,0,0,0,.08.08,3.66,3.66,0,0,0,.56,1.59l.6.69a3.62,3.62,0,0,0,1.68.84l1.26.25a2.8,2.8,0,0,0,1.41,0,2.73,2.73,0,0,0,1.28-.5,2.65,2.65,0,0,0,.95-1,2.62,2.62,0,0,0,.58-1.29l.06-1a3.62,3.62,0,0,0-.59-1.74l-.6-.69a3.62,3.62,0,0,0-1.68-.84l-1.25-.25a3.37,3.37,0,0,0-.62-.07,28.18,28.18,0,0,1,12.22-2.07c1.36.09,1.2-2.05-.16-2.13-13.07-.81-22.66,8-33.09,14.66.7-3.62.9-7.48,2.59-10.75a13.62,13.62,0,0,1,2.83-3.78,8.65,8.65,0,0,1,2-1.39,8.26,8.26,0,0,1,1.44-.52l0,0c1.63,1,3.61-.78,3.24-2.49s-2.78-2.62-3.91-1.06l-.19.27c-3.17,1-5.45,4.58-6.49,7.51-1.47,4.18-1.74,8.66-2.75,13a48.62,48.62,0,0,1-10.22,5,.88.88,0,0,0-.62.73l-20,4c-5.77,1.16-11.58,2.34-17.35,3.71.06-.28.13-.55.2-.83.13-.55-.69-1-1-.52s-.72.88-1,1.35q-2.55-2-5-4.17l1-4.88a35.77,35.77,0,0,0,13-5,30.46,30.46,0,0,0,11.71-13.31,7,7,0,0,0,6-2.43.67.67,0,0,0-.2-1,9.67,9.67,0,0,1-4.11-5.39,18,18,0,0,0-3.89-10.54,17.65,17.65,0,0,0-24.31-3c-2.69,2-4.85,4.62-7.16,7a27.38,27.38,0,0,1-20,8.78A26.66,26.66,0,0,1,99,132.12c-1.65-2.6-3.24-5.23-4.81-7.8-.13-.21-.24-.38-.49-.42-1-.17,0,3.55.23,3.94a26.2,26.2,0,0,0,2.29,3.67c2,2.92,3.83,5.92,5.83,8.83,4.9,7.14,10.86,13.68,18.42,18l0,0a34.77,34.77,0,0,0,16.18,4.72.57.57,0,0,0,.12.21c1.47,1.57,3,3.06,4.55,4.52,0,0,0,.07,0,.1-.42,1.89-.92,3.77-1.26,5.67a.73.73,0,0,0,.1.52A121.88,121.88,0,0,0,121.74,181a87.62,87.62,0,0,0-11.63,6.67,16.58,16.58,0,0,0-2.41-19.62c-1-1.09-2.52.64-1.53,1.73a14.12,14.12,0,0,1,3.83,9.76c-.08,4.1-2.13,7.17-4.25,10.51-1.53,2.4-4,3.89-6,5.77a99.59,99.59,0,0,0-8,7.68c-.49.54-1,1.09-1.46,1.65A154.49,154.49,0,0,0,67.4,241.6c-6.65,14.48-11.53,29.7-16.13,45a1.65,1.65,0,0,1,0,.32v.33a35.09,35.09,0,0,1,.16,9.1,1.53,1.53,0,0,0,.22-.42C61.32,264,71.86,229.56,95,204.75a45.53,45.53,0,0,1,7.51-.76.41.41,0,0,0,.24.24,9.91,9.91,0,0,1,3,1.68l.34.3a5.31,5.31,0,0,0-1.69,4.81,6,6,0,0,0,4.09,4.8,5.85,5.85,0,0,0,6-1.27,4.7,4.7,0,0,0,.11-5.94c-1.74-2.38-4.69-3.08-7.46-3.35a.55.55,0,0,0-.41.1,3.88,3.88,0,0,0-.31-.26,10.48,10.48,0,0,0-1.76-1.12c1.46,0,2.93.08,4.4.19a.66.66,0,0,0,.73.11l.09-.05c2.21.19,4.43.43,6.64.72a24.38,24.38,0,0,1,4.87,4.37c1.09,1.24,3.53,3.65,3.82,5.3.24,1.37-2,5.1-2.87,6.33a3.92,3.92,0,0,1-3.16,1.85c-2.82.17-5.37-1.4-8.19-.32a6.68,6.68,0,0,0-3.51,4.22,13.92,13.92,0,0,0-5.17,12.63.61.61,0,0,0,.93.46,28.17,28.17,0,0,0,7.57-5.47,1.64,1.64,0,0,1,.33-.88l.26-.35.16-.25c.12-.19.22-.38.33-.57a20.68,20.68,0,0,1-8.28,5.8,43.17,43.17,0,0,1,.54-4.49,13.19,13.19,0,0,1,2.41-4.37c.26-.31.54-.61.83-.9.18,1.08,1,1.92,2.68,2.09a2.77,2.77,0,0,0,2.1-.56c.48-.42,1-.81,1.47-1.21.19-.4.39-.78.61-1.16a17.64,17.64,0,0,0,.29-1.77,17.11,17.11,0,0,1,6.86-2.7l0,0-.76,1.61-.69,1.45a.54.54,0,0,0-.68.13,21,21,0,0,0-4,21.19.67.67,0,0,0,1.3-.27c-.2-2.65,2.63-3.93,4.36-5.35a10.16,10.16,0,0,0,.18-15.63l0,0c.18-.41.37-.81.56-1.22q2.09-4.55,4.19-9.1c2.13,3.68,4.17,7.43,6.3,11.07,2.22,3.81,3.45,8,6.17,11.56s6.63,6.51,11.1,7.09c6.64.85,12.72-3.47,18-7.55-1.62-3.48-6.11-4.6-9.91-4.11s-7.39,2.14-11.2,2.53-8.29-1-9.62-4.6a10.88,10.88,0,0,0,4.55,2.28c1.7.25,3.69-.57,4.17-2.21,1.41-4.81-4.85-1.42-6.24-1.35a7.58,7.58,0,0,1-1.72-.12,16.08,16.08,0,0,1-3.44-2.78.71.71,0,0,0-.47-.22c-.78-1.32-1.52-2.66-2.24-4-3.43-6.48-6.66-13.37-12.39-18.08,3.65.49,7.31,1,11,1.31,3.58,1.52,7.15,3.07,10.76,4.53a.29.29,0,0,0,0,.1.78.78,0,0,0-.13.24l-.81,2.63-.18.6a1.31,1.31,0,0,0-.12.11,2.14,2.14,0,0,0-.36,1.09,16.16,16.16,0,0,0,.65,6.94c.58,1.77,1.68,3.62,3.49,4.07,2.13.53,4.24-1.17,5.18-3.14a8.71,8.71,0,0,0-.15-7.71,9.1,9.1,0,0,0-1.92-2.44c2.67,1.09,5.48,2,8.06,3.05,3.06,1.25,6.23,2.52,9.54,2.49a25.08,25.08,0,0,0,8-1.87l7-2.47c.4-.14.85-.33,1-.74.15-.56-.44-1-1-1.27a29.82,29.82,0,0,0-22.6-1.76,26.25,26.25,0,0,1-5.77,1.62c-3.35.3-6.14-1.27-9.06-2.62-1.24-.57-2.54-1-3.81-1.48s-3-1.71-4.32-1.76c.34,0,.68,0,1,0a48.41,48.41,0,0,0,11.79-1.06.44.44,0,0,0,.29.13,25.45,25.45,0,0,0,25.55-15.08.58.58,0,0,0-.55-.84c-5.79,0-12,0-17.36,2.47-4.46,2.07-8.3,5.85-9.3,10.8-6.36,1.47-13.17,1.25-20.46.33-3.46-.44-6.92-.93-10.37-1.31.92.1,3.07-1.53,3.9-1.91a38.82,38.82,0,0,1,3.74-1.49c1.19-.39,2.09.25,3.13-.09a2.45,2.45,0,0,0,.89-3.93c-.34-.41-1.34-1.1-1.87-1a2.54,2.54,0,0,0-1.12.77,24,24,0,0,1-6.56,4.51c-1.79.95-3.58,1.87-5.37,2.8a65.32,65.32,0,0,0-13,.06A105.36,105.36,0,0,1,106,194.5c3.08-2.47,6.37-5.2,10.14-6.52a28.65,28.65,0,0,1,11.42-1.19c5.07.34,10.08,1.4,15.17,1.49s10.43-.92,14.33-4.18c.46-.39.94-.95.78-1.53a1.16,1.16,0,0,0-1.26-.7,3.53,3.53,0,0,0-1.43.6,29,29,0,0,1-19.8,3.5l9.35-3.69a4.54,4.54,0,0,0,2.38-1.61,2.24,2.24,0,1,0-3.88-.06c.38.68-10.31,3.87-11.29,4-4.05.71-8.21-.06-12.19.82,11.73-6.33,24.64-10.27,37.79-13.18a29.44,29.44,0,0,1,18.34,2.32l2.23,5.9c.24.62,1.21.28,1-.33q-1-2.49-1.93-5c.15.38,2,1,2.38,1.24,2.55,1.39,4.36,3.64,6.44,5.59,3,2.83,2.61,5.42,2.78,9.16a1.76,1.76,0,0,0,3.48.48,4.8,4.8,0,0,0-.16-3.08c-.81-2.67-2.51-6.46-5-8,1,.51,2,1,3,1.46a55.1,55.1,0,0,0,12.14,3.62,20.38,20.38,0,0,1,4.75,4.42.69.69,0,0,0,.23.79l-.07.08c-3.06,5.34-2,13.26,3.34,16.81a5.45,5.45,0,0,0,4.73.85,6,6,0,0,0,3.41-3.15c1.52-3.24.63-7-1.15-10a12.44,12.44,0,0,0-9.65-5.82,22.07,22.07,0,0,0-3.59-3.64c1.07.19,2.14.37,3.22.54,3,.46,5.94.84,8.91,1.32a3.21,3.21,0,0,1,2.49,1.3,3.88,3.88,0,0,1,1.41,2.85,32.16,32.16,0,0,0,.18,5.55,29.71,29.71,0,0,0,3.74,10.61c.52.89,1.24,1.85,2.27,1.9s2-1,2.62-2c1.62-2.57,3.27-5.21,3.9-8.19s.05-6.39-2.22-8.4c-1.92-1.69-4.61-2.1-7.14-2.44-.88-.12-3.33,0-3.15-1.52s2.33,0,3.16.14,1.91-.35,1.78-1.18-1.36-1-2.24-.84a19.8,19.8,0,0,1-4.82.54c-.4,0-4.74-1.12-4.76-1a39.87,39.87,0,0,1,8.3-2.7c2.46.09,4.58,1.27,6.9,2.15a20.8,20.8,0,0,0,19-2.28A.51.51,0,0,0,247.65,181.52Zm-33.4-5.69c-2.87,1-5.68,2.16-8.53,3.2a20.8,20.8,0,0,1,20.58-7,24.24,24.24,0,0,1-20.88,8.15,79.08,79.08,0,0,0,9.15-3.42C215.14,176.51,214.87,175.62,214.25,175.83Zm30.45-10.78c-2,2.75-5.56,4-8.92,3.94a23.77,23.77,0,0,1-9.72-2.68,42.26,42.26,0,0,0,6.14-.51c.58-.09.52-1-.07-.93a40.32,40.32,0,0,1-7.75.49A32.25,32.25,0,0,1,244.7,165.05Zm-27.36-16.84a3.48,3.48,0,0,0-.28.39,2.61,2.61,0,0,0-.51,1.06,1,1,0,0,0-.32.45l-3.45.59C214.28,149.8,215.8,149,217.34,148.21ZM106.82,207l.09.09c.39.45.67,1,1.07,1.42s1.07-.1.87-.58a4.66,4.66,0,0,0-.87-1.26,11.49,11.49,0,0,1,4.46,1.91c1.25,1,2.14,2.82,1.33,4.39s-2.68,1.94-4.19,1.69a4.92,4.92,0,0,1-3.84-3.14A4.09,4.09,0,0,1,106.82,207Zm11.38,22.66a42.55,42.55,0,0,0-1.94,4.24A20.06,20.06,0,0,1,118.2,229.66Zm4,8.49c-1.1,1.95-2.88,3-4.56,4.33a7.81,7.81,0,0,0-1.86,2.12,20.19,20.19,0,0,1,.35-10.38c0,.49.72.63,1,.21a45.15,45.15,0,0,0,2.27-4.76c.39-.85.77-1.69,1.16-2.53A9,9,0,0,1,122.24,238.15Zm27.12,2.26c-1-.42-2.08-.57-3.09-1a18.69,18.69,0,0,1-2.56-1.21l-.63-.4c7.45-1.35,16.82-5.37,23.26,0-4.84,1.13-8.42,5-13.1,6.61a9.25,9.25,0,0,1-9.18-1.91,18.21,18.21,0,0,1-4-5.22,23.34,23.34,0,0,0,3.38,2.29c1.63.89,3.78,1.93,5.68,1.84A.56.56,0,0,0,149.36,240.41Zm-7.81-8.94a1.55,1.55,0,0,0-.08.56h0l-.93-.27A9.56,9.56,0,0,0,141.55,231.47Zm15.83-19.64a28.24,28.24,0,0,1,7.7-1.08,27.24,27.24,0,0,1,12.34,3c-3.75.38-6.95,3.08-10.56,4.23a12,12,0,0,1-11.49-2.64c2.56.1,5.57-.19,7.76-1.58a.56.56,0,0,0-.49-1,25.8,25.8,0,0,1-4,1.19,17.55,17.55,0,0,1-4.16.13,18.6,18.6,0,0,1-2-.26A29.71,29.71,0,0,1,157.38,211.83Zm-16.57,2.54.22-.78.29,1.44.36,1.77c0,.21.33,2.63,1.12,1.79a1.12,1.12,0,0,0,.12-1l-.76-4.1A6.38,6.38,0,0,1,145.27,225a2.89,2.89,0,0,1-1.39.6c-1.27.11-2.27-1.07-2.8-2.23a10.54,10.54,0,0,1-.55-7.37,2.3,2.3,0,0,0,.11-1.06Zm14.6-21.14c4.79-1.93,10-2,15.11-2.09a24.06,24.06,0,0,1-21.3,13.79c5.14-1.63,9.8-4.41,12.8-8.89.72-1.07-.93-2-1.75-1.19A33,33,0,0,1,146,202.93C147.23,198.34,151.1,195,155.41,193.23Zm13.76-50.61a20.38,20.38,0,0,0,1-4.4,10.87,10.87,0,0,0,2.89,3.3,5.91,5.91,0,0,1-4,1.42Zm-43.46,15.8c-11.09-4.69-18.66-14-25.13-23.87a27.47,27.47,0,0,0,26.24,2,27.82,27.82,0,0,0,7.1-4.65c2.45-2.2,4.49-4.81,6.88-7.08,4.82-4.57,11.65-6.45,18-3.91a16.35,16.35,0,0,1,10,13.77c.47,6.9-3.83,13.61-8.8,18A32.66,32.66,0,0,1,125.71,158.42Zm12.36,4.7c.43,0,.86,0,1.29,0,1.06,0,2.12-.16,3.17-.31-.28,1.23-.55,2.47-.83,3.7C140.47,165.39,139.26,164.26,138.07,163.12Zm5.57,10.06a.36.36,0,0,0,.07-.1c.39-.6-.62-1.29-1-.71a1.73,1.73,0,0,1-1,.68c.31-1.38.57-2.77.83-4.15q2,1.82,4.15,3.51C145.66,172.67,144.65,172.91,143.64,173.18Zm64.2,18.26a20.24,20.24,0,0,1,2.35,4.81.49.49,0,0,0,.92-.32,20.77,20.77,0,0,0-2.3-4.71,11,11,0,0,1,6.47,3.94,11.21,11.21,0,0,1,2.2,8.07,5.08,5.08,0,0,1-2.12,3.79,3.88,3.88,0,0,1-4.14-.27,10.94,10.94,0,0,1-4.41-6.64A12,12,0,0,1,207.84,191.44Zm24,4.43c.72,2.67-.68,5.38-2,7.6a28.23,28.23,0,0,0-3,5.82,23.25,23.25,0,0,1-5.46-17.39c1.09,1.18,2.14,2.4,3.3,3.49.43.4,1.18-.22.79-.68-1.13-1.35-2.44-2.59-3.66-3.86l-.69-.73C225.43,190.32,230.62,191.23,231.88,195.87Zm2.05-11.06a22.38,22.38,0,0,1-6.55-1.89c-.75-.32-1.53-.66-2.33-.94a39.47,39.47,0,0,1,9-.11c.73.08,1-1.05.23-1.13a41,41,0,0,0-6-.15A21.79,21.79,0,0,1,246.42,182,20,20,0,0,1,233.93,184.81Z"/></g></svg>