<svg id="_1" height="512" viewBox="0 0 512 512" width="512" xmlns="http://www.w3.org/2000/svg" data-name="1"><path d="m58.04 128.74h28.28v28.28h-28.28z"/><path d="m58.04 157.02h28.28v28.28h-28.28z"/><path d="m58.04 213.58h28.28v28.28h-28.28z"/><path d="m58.04 241.86h28.28v28.28h-28.28z"/><path d="m58.04 298.42h28.28v28.28h-28.28z"/><path d="m58.04 270.14h28.28v28.28h-28.28z"/><path d="m58.04 326.7h28.28v28.28h-28.28z"/><path d="m58.04 185.3h28.28v28.28h-28.28z"/><path d="m256 72.18h28.28v28.28h-28.28z"/><path d="m284.28 72.18h28.28v28.28h-28.28z"/><path d="m58.04 100.46h28.28v28.28h-28.28z"/><path d="m58.04 72.18h28.28v28.28h-28.28z"/><path d="m142.88 157.02h28.28v28.28h-28.28z"/><path d="m142.88 213.58h28.28v28.28h-28.28z"/><path d="m142.88 270.14h28.28v28.28h-28.28z"/><path d="m142.88 326.7h28.28v28.28h-28.28z"/><path d="m142.88 100.46h28.28v28.28h-28.28z"/><path d="m86.32 72.18h28.28v28.28h-28.28z"/><path d="m199.44 354.98h28.28v28.28h-28.28z"/><path d="m171.16 354.98h28.28v28.28h-28.28z"/><path d="m114.6 354.98h28.28v28.28h-28.28z"/><path d="m340.84 128.74h28.28v28.28h-28.28z"/><path d="m340.84 157.02h28.28v28.28h-28.28z"/><path d="m227.72 298.42h28.28v28.28h-28.28z"/><path d="m227.72 270.14h28.28v28.28h-28.28z"/><path d="m227.72 241.86h28.28v28.28h-28.28z"/><path d="m227.72 326.7h28.28v28.28h-28.28z"/><path d="m340.84 185.3h28.28v28.28h-28.28z"/><path d="m340.84 100.46h28.28v28.28h-28.28z"/><path d="m142.88 354.98h28.28v28.28h-28.28z"/><path d="m86.32 354.98h28.28v28.28h-28.28z"/><path d="m284.28 411.54h28.28v28.28h-28.28z"/><path d="m256 411.54h28.28v28.28h-28.28z"/><path d="m227.72 383.26h28.28v28.28h-28.28z"/><path d="m256 241.86h28.28v28.28h-28.28z"/><path d="m312.56 411.54h28.28v28.28h-28.28z"/><path d="m284.28 354.98h28.28v28.28h-28.28z"/><path d="m340.84 411.54h28.28v28.28h-28.28z"/><path d="m340.84 354.98h28.28v28.28h-28.28z"/><path d="m369.12 411.54h28.28v28.28h-28.28z"/><path d="m425.68 383.26h28.28v28.28h-28.28z"/><path d="m227.72 411.54h28.28v28.28h-28.28z"/><path d="m397.4 411.54h28.28v28.28h-28.28z"/><path d="m397.4 241.86h28.28v28.28h-28.28z"/><path d="m425.68 411.54h28.28v28.28h-28.28z"/><path d="m284.28 241.86h28.28v28.28h-28.28z"/><path d="m312.56 241.86h28.28v28.28h-28.28z"/><path d="m340.84 241.86h28.28v28.28h-28.28z"/><path d="m369.12 241.86h28.28v28.28h-28.28z"/><path d="m227.72 354.98h28.28v28.28h-28.28z"/><path d="m58.04 354.98h28.28v28.28h-28.28z"/><path d="m425.68 298.42h28.28v28.28h-28.28z"/><path d="m425.68 270.14h28.28v28.28h-28.28z"/><path d="m425.68 326.7h28.28v28.28h-28.28z"/><path d="m425.68 354.98h28.28v28.28h-28.28z"/><path d="m369.12 354.98h28.28v28.28h-28.28z"/><path d="m227.72 72.18h28.28v28.28h-28.28z"/><path d="m171.16 72.18h28.28v28.28h-28.28z"/><path d="m199.44 72.18h28.28v28.28h-28.28z"/><path d="m142.88 72.18h28.28v28.28h-28.28z"/><path d="m114.6 72.18h28.28v28.28h-28.28z"/><path d="m312.56 72.18h28.28v28.28h-28.28z"/></svg>