<svg id="_1" height="512" viewBox="0 0 512 512" width="512" xmlns="http://www.w3.org/2000/svg" data-name="1"><path d="m171.16 270.14h28.28v28.28h-28.28z"/><path d="m256 298.42h28.28v28.28h-28.28z"/><path d="m284.28 270.14h28.28v28.28h-28.28z"/><path d="m284.28 213.58h28.28v28.28h-28.28z"/><path d="m312.56 241.86h28.28v28.28h-28.28z"/><path d="m58.04 298.42h28.28v28.28h-28.28z"/><path d="m199.44 270.14h28.28v28.28h-28.28z"/><path d="m227.72 270.14h28.28v28.28h-28.28z"/><path d="m171.16 213.58h28.28v28.28h-28.28z"/><path d="m171.16 241.86h28.28v28.28h-28.28z"/><path d="m256 185.3h28.28v28.28h-28.28z"/><path d="m199.44 213.58h28.28v28.28h-28.28z"/><path d="m227.72 213.58h28.28v28.28h-28.28z"/><path d="m86.32 185.3h28.28v28.28h-28.28z"/><path d="m86.32 157.02h28.28v28.28h-28.28z"/><path d="m114.6 270.14h28.28v28.28h-28.28z"/><path d="m86.32 241.86h28.28v28.28h-28.28z"/><path d="m58.04 241.86h28.28v28.28h-28.28z"/><path d="m58.04 213.58h28.28v28.28h-28.28z"/><path d="m114.6 185.3h28.28v28.28h-28.28z"/><path d="m86.32 298.42h28.28v28.28h-28.28z"/><path d="m86.32 326.7h28.28v28.28h-28.28z"/><path d="m256 354.98h28.28v28.28h-28.28z"/><path d="m256 383.26h28.28v28.28h-28.28z"/><path d="m425.68 354.98h28.28v28.28h-28.28z"/><path d="m340.84 354.98h28.28v28.28h-28.28z"/><path d="m284.28 411.54h28.28v28.28h-28.28z"/><path d="m425.68 383.26h28.28v28.28h-28.28z"/><path d="m312.56 411.54h28.28v28.28h-28.28z"/><path d="m340.84 411.54h28.28v28.28h-28.28z"/><path d="m369.12 411.54h28.28v28.28h-28.28z"/><path d="m340.84 72.18h28.28v28.28h-28.28z"/><path d="m369.12 72.18h28.28v28.28h-28.28z"/><path d="m397.4 411.54h28.28v28.28h-28.28z"/><path d="m425.68 326.7h28.28v28.28h-28.28z"/><path d="m425.68 298.42h28.28v28.28h-28.28z"/><path d="m425.68 270.14h28.28v28.28h-28.28z"/><path d="m425.68 241.86h28.28v28.28h-28.28z"/><path d="m425.68 213.58h28.28v28.28h-28.28z"/><path d="m425.68 185.3h28.28v28.28h-28.28z"/><path d="m256 128.74h28.28v28.28h-28.28z"/><path d="m425.68 157.02h28.28v28.28h-28.28z"/><path d="m256 100.46h28.28v28.28h-28.28z"/><path d="m425.68 100.46h28.28v28.28h-28.28z"/><path d="m284.28 72.18h28.28v28.28h-28.28z"/><path d="m425.68 128.74h28.28v28.28h-28.28z"/><path d="m312.56 72.18h28.28v28.28h-28.28z"/><path d="m397.4 72.18h28.28v28.28h-28.28z"/><path d="m114.6 298.42h28.28v28.28h-28.28z"/></svg>