<svg width="24" height="24" viewBox="0 0 24 24" fill="none" xmlns="http://www.w3.org/2000/svg">
<path d="M1 13L1 7L3 7L3 13H1Z" fill="black"/>
<path d="M7 3L7 5L5 5V7L3 7V3L7 3Z" fill="black"/>
<path d="M13 3L7 3L7 1L13 1L13 3Z" fill="black"/>
<path d="M17 7L15 7L15 5L13 5V3L17 3L17 7Z" fill="black"/>
<path d="M17 7H19V13L17 13V7Z" fill="black"/>
<path d="M3 13L3 17H7L7 19H13V17H17L17 13H15L15 15L13 15L13 17H7V15H5L5 13L3 13Z" fill="black"/>
<path d="M19 17V19H17L17 17H19Z" fill="black"/>
<path d="M21 21H19L19 19H21L21 21Z" fill="black"/>
<path d="M21 21H23V23H21V21Z" fill="black"/>
</svg>
