<?xml version="1.0" encoding="iso-8859-1"?>
<!-- Generator: Adobe Illustrator 19.0.0, SVG Export Plug-In . SVG Version: 6.00 Build 0)  -->
<svg xmlns="http://www.w3.org/2000/svg" xmlns:xlink="http://www.w3.org/1999/xlink" version="1.1" id="Layer_1" x="0px" y="0px" viewBox="0 0 512 512" style="enable-background:new 0 0 512 512;" xml:space="preserve">
<g>
	<g>
		<rect x="33.391" width="445.217" height="33.391"/>
	</g>
</g>
<g>
	<g>
		<rect x="478.609" y="33.391" width="33.391" height="66.783"/>
	</g>
</g>
<g>
	<g>
		<rect y="33.391" width="33.391" height="66.783"/>
	</g>
</g>
<g>
	<g>
		<polygon points="33.391,100.174 33.391,445.217 66.783,445.217 66.783,244.87 122.435,244.87 122.435,356.174 155.826,356.174     155.826,244.87 189.217,244.87 189.217,211.478 66.783,211.478 66.783,133.565 445.217,133.565 445.217,211.478 322.783,211.478     322.783,244.87 356.174,244.87 356.174,356.174 389.565,356.174 389.565,244.87 445.217,244.87 445.217,445.217 478.609,445.217     478.609,100.174   "/>
	</g>
</g>
<g>
	<g>
		<rect x="189.217" y="178.087" width="133.565" height="33.391"/>
	</g>
</g>
<g>
	<g>
		<rect x="155.826" y="356.174" width="33.391" height="33.391"/>
	</g>
</g>
<g>
	<g>
		<rect x="189.217" y="389.565" width="133.565" height="33.391"/>
	</g>
</g>
<g>
	<g>
		<rect x="322.783" y="356.174" width="33.391" height="33.391"/>
	</g>
</g>
<g>
	<g>
		<rect x="411.826" y="445.217" width="33.391" height="33.391"/>
	</g>
</g>
<g>
	<g>
		<rect x="100.174" y="478.609" width="311.652" height="33.391"/>
	</g>
</g>
<g>
	<g>
		<rect x="66.783" y="445.217" width="33.391" height="33.391"/>
	</g>
</g>
<g>
</g>
<g>
</g>
<g>
</g>
<g>
</g>
<g>
</g>
<g>
</g>
<g>
</g>
<g>
</g>
<g>
</g>
<g>
</g>
<g>
</g>
<g>
</g>
<g>
</g>
<g>
</g>
<g>
</g>
</svg>
