<svg width="25" height="25" viewBox="0 0 25 25" fill="none" xmlns="http://www.w3.org/2000/svg">
<rect width="24" height="24" transform="matrix(-1 0 0 1 24.0649 0.0650024)" fill="white" fill-opacity="0.01"/>
<path d="M24.0649 0.0650024H0.0649414M24.0649 0.0650024V24.065M24.0649 0.0650024L0.0649414 24.065M0.0649414 0.0650024V24.065M0.0649414 0.0650024L24.0649 24.065M0.0649414 24.065H24.0649" stroke="#DADEE4" stroke-width="0.13"/>
<circle cx="10" cy="10" r="10" transform="matrix(-1 0 0 1 22.0649 2.065)" stroke="#DADEE4" stroke-width="0.13"/>
<rect width="20" height="16" rx="1" transform="matrix(-1 0 0 1 22.0649 4.065)" stroke="#DADEE4" stroke-width="0.13"/>
<rect width="16" height="20" rx="1" transform="matrix(-1 0 0 1 20.0649 2.065)" stroke="#DADEE4" stroke-width="0.13"/>
<rect width="18" height="18" rx="1" transform="matrix(-1 0 0 1 21.0649 3.065)" stroke="#DADEE4" stroke-width="0.13"/>
<circle cx="4" cy="4" r="4" transform="matrix(-1 0 0 1 16.0649 8.065)" stroke="#DADEE4" stroke-width="0.13"/>
<path d="M17.6433 2.72044C17.3637 2.57422 17.0389 2.78549 17.0118 3.13103C16.992 3.38298 16.972 3.69787 16.9581 4.065H6.06494C3.8558 4.065 2.06494 5.85586 2.06494 8.065V17.065C2.06494 19.2741 3.8558 21.065 6.06494 21.065H18.0649C20.2741 21.065 22.0649 19.2741 22.0649 17.065V11.065C22.0649 10.5127 21.6172 10.065 21.0649 10.065C20.5127 10.065 20.0649 10.5127 20.0649 11.065V17.065C20.0649 18.1696 19.1695 19.065 18.0649 19.065H6.06494C4.96037 19.065 4.06494 18.1696 4.06494 17.065V8.065C4.06494 6.96043 4.96037 6.065 6.06494 6.065H16.9584C16.9735 6.4615 16.9957 6.79676 17.017 7.05723C17.0435 7.3812 17.34 7.5604 17.6154 7.41684C17.9834 7.225 18.5211 6.92487 19.165 6.50663C19.8095 6.08804 20.3097 5.71394 20.6413 5.45129C20.8893 5.25496 20.8997 4.87709 20.664 4.68938C20.3308 4.42413 19.8206 4.04023 19.1657 3.61487C18.5419 3.20969 18.0126 2.91354 17.6433 2.72044Z" fill="#09244B"/>
<path d="M11.0649 15.0651V11.9312C10.612 12.1933 10.0272 12.0613 9.73287 11.6198C9.42652 11.1603 9.5507 10.5394 10.0102 10.233L11.4947 9.24341C12.1659 8.79595 13.0649 9.27708 13.0649 10.0838V15.0651C13.0649 15.6174 12.6172 16.0651 12.0649 16.0651C11.5126 16.0651 11.0649 15.6174 11.0649 15.0651Z" fill="#09244B"/>
</svg>
