<svg width="25" height="25" viewBox="0 0 25 25" fill="none" xmlns="http://www.w3.org/2000/svg">
<rect x="0.0649414" y="0.0650024" width="24" height="24" fill="white" fill-opacity="0.01"/>
<path d="M0.0649414 0.0650024H24.0649M0.0649414 0.0650024V24.065M0.0649414 0.0650024L24.0649 24.065M24.0649 0.0650024V24.065M24.0649 0.0650024L0.0649414 24.065M24.0649 24.065H0.0649414" stroke="#DADEE4" stroke-width="0.13"/>
<circle cx="12.0649" cy="12.065" r="10" stroke="#DADEE4" stroke-width="0.13"/>
<rect x="2.06494" y="4.065" width="20" height="16" rx="1" stroke="#DADEE4" stroke-width="0.13"/>
<rect x="4.06494" y="2.065" width="16" height="20" rx="1" stroke="#DADEE4" stroke-width="0.13"/>
<rect x="3.06494" y="3.065" width="18" height="18" rx="1" stroke="#DADEE4" stroke-width="0.13"/>
<circle cx="12.0649" cy="12.065" r="4" stroke="#DADEE4" stroke-width="0.13"/>
<path fill-rule="evenodd" clip-rule="evenodd" d="M12.0649 2.065C6.54209 2.065 2.06494 6.54216 2.06494 12.065C2.06494 17.5878 6.54209 22.065 12.0649 22.065C17.5878 22.065 22.0649 17.5878 22.0649 12.065C22.0649 6.54216 17.5878 2.065 12.0649 2.065ZM10.0649 8.065C8.96037 8.065 8.06494 8.96043 8.06494 10.065V14.065C8.06494 15.1696 8.96037 16.065 10.0649 16.065H14.0649C15.1695 16.065 16.0649 15.1696 16.0649 14.065V10.065C16.0649 8.96043 15.1695 8.065 14.0649 8.065H10.0649Z" fill="#09244B"/>
</svg>
