<svg width="25" height="25" viewBox="0 0 25 25" fill="none" xmlns="http://www.w3.org/2000/svg">
<rect x="0.0650024" y="0.0649414" width="24" height="24" fill="white" fill-opacity="0.01"/>
<path d="M0.0650024 0.0649414H24.065M0.0650024 0.0649414V24.0649M0.0650024 0.0649414L24.065 24.0649M24.065 0.0649414V24.0649M24.065 0.0649414L0.0650024 24.0649M24.065 24.0649H0.0650024" stroke="#DADEE4" stroke-width="0.13"/>
<circle cx="12.065" cy="12.0649" r="10" stroke="#DADEE4" stroke-width="0.13"/>
<rect x="2.065" y="4.06494" width="20" height="16" rx="1" stroke="#DADEE4" stroke-width="0.13"/>
<rect x="4.065" y="2.06494" width="16" height="20" rx="1" stroke="#DADEE4" stroke-width="0.13"/>
<rect x="3.065" y="3.06494" width="18" height="18" rx="1" stroke="#DADEE4" stroke-width="0.13"/>
<circle cx="12.065" cy="12.0649" r="4" stroke="#DADEE4" stroke-width="0.13"/>
<path d="M2.75134 10.5273C1.77503 11.5036 1.77503 13.0865 2.75134 14.0628L5.57976 16.8912C6.55607 17.8675 8.13899 17.8675 9.1153 16.8912C9.84019 16.1663 10.0269 15.107 9.67531 14.2099L10.4664 13.4188L16.8733 20.8113C17.935 22.0363 19.8131 22.1033 20.9594 20.957C22.1057 19.8108 22.0387 17.9326 20.8136 16.8709L13.4211 10.4641L14.2121 9.67305C15.1093 10.0246 16.1686 9.83794 16.8935 9.11304C17.8698 8.13673 17.8698 6.55382 16.8935 5.57751L14.065 2.74908C13.0887 1.77277 11.5058 1.77277 10.5295 2.74908C9.80461 3.47398 9.61794 4.53328 9.9695 5.43041L5.43267 9.96724C4.53554 9.61568 3.47623 9.80236 2.75134 10.5273Z" fill="#09244B"/>
</svg>
