<svg width="25" height="25" viewBox="0 0 25 25" fill="none" xmlns="http://www.w3.org/2000/svg">
<rect x="0.0650024" y="0.0649414" width="24" height="24" fill="white" fill-opacity="0.01"/>
<path d="M0.0650024 0.0649414H24.065M0.0650024 0.0649414V24.0649M0.0650024 0.0649414L24.065 24.0649M24.065 0.0649414V24.0649M24.065 0.0649414L0.0650024 24.0649M24.065 24.0649H0.0650024" stroke="#DADEE4" stroke-width="0.13"/>
<circle cx="12.065" cy="12.0649" r="10" stroke="#DADEE4" stroke-width="0.13"/>
<rect x="2.065" y="4.06494" width="20" height="16" rx="1" stroke="#DADEE4" stroke-width="0.13"/>
<rect x="4.065" y="2.06494" width="16" height="20" rx="1" stroke="#DADEE4" stroke-width="0.13"/>
<rect x="3.065" y="3.06494" width="18" height="18" rx="1" stroke="#DADEE4" stroke-width="0.13"/>
<circle cx="12.065" cy="12.0649" r="4" stroke="#DADEE4" stroke-width="0.13"/>
<path fill-rule="evenodd" clip-rule="evenodd" d="M12.065 2.06494C6.54216 2.06494 2.065 6.54209 2.065 12.0649C2.065 17.5878 6.54216 22.0649 12.065 22.0649C17.5878 22.0649 22.065 17.5878 22.065 12.0649C22.065 6.54209 17.5878 2.06494 12.065 2.06494ZM11.3579 8.52941L8.52943 11.3578C8.13891 11.7484 8.13891 12.3815 8.52943 12.772L11.3579 15.6005C11.7484 15.991 12.3815 15.991 12.7721 15.6005L15.6005 12.772C15.991 12.3815 15.991 11.7484 15.6005 11.3578L12.7721 8.52941C12.3815 8.13888 11.7484 8.13888 11.3579 8.52941Z" fill="#09244B"/>
</svg>
