<svg width="24" height="24" viewBox="0 0 24 24" fill="none" xmlns="http://www.w3.org">
<rect x="6" y="2" width="12" height="2" fill="black"></rect>
<rect x="6" y="20" width="8" height="2" fill="black"></rect>
<rect x="2" y="6" width="2" height="12" fill="black"></rect>
<rect x="20" y="6" width="2" height="8" fill="black"></rect>
<rect x="6" y="18" width="2" height="2" fill="black"></rect>
<rect x="18" y="4" width="2" height="2" fill="black"></rect>
<rect x="4" y="4" width="2" height="2" fill="black"></rect>
<rect x="4" y="18" width="2" height="2" fill="black"></rect>
<rect x="8" y="16" width="6" height="2" fill="black"></rect>
<rect x="10" y="12" width="4" height="2" fill="black"></rect>
<rect x="8" y="8" width="2" height="4" fill="black"></rect>
<rect x="10" y="6" width="4" height="2" fill="black"></rect>
<rect x="14" y="8" width="2" height="4" fill="black"></rect>
<rect x="18" y="18" width="2" height="2" fill="black"></rect>
<rect x="16" y="16" width="2" height="2" fill="black"></rect>
<rect x="20" y="16" width="2" height="2" fill="black"></rect>
<rect x="20" y="20" width="2" height="2" fill="black"></rect>
<rect x="16" y="20" width="2" height="2" fill="black"></rect>
</svg>