<svg width="24" height="24" viewBox="0 0 24 24" fill="none" xmlns="http://www.w3.org">
<rect x="5" y="7" width="2" height="2" fill="black"></rect>
<rect width="2" height="2" transform="matrix(-1 0 0 1 19 7)" fill="black"></rect>
<rect width="2" height="4" transform="matrix(-1 0 0 1 15 6)" fill="black"></rect>
<rect width="2" height="4" transform="matrix(-1 0 0 1 13 10)" fill="black"></rect>
<rect width="2" height="4" transform="matrix(-1 0 0 1 11 14)" fill="black"></rect>
<rect x="3" y="9" width="2" height="2" fill="black"></rect>
<rect width="2" height="2" transform="matrix(-1 0 0 1 21 9)" fill="black"></rect>
<rect x="1" y="11" width="2" height="2" fill="black"></rect>
<rect width="2" height="2" transform="matrix(-1 0 0 1 23 11)" fill="black"></rect>
<rect x="3" y="13" width="2" height="2" fill="black"></rect>
<rect width="2" height="2" transform="matrix(-1 0 0 1 21 13)" fill="black"></rect>
<rect x="5" y="15" width="2" height="2" fill="black"></rect>
<rect width="2" height="2" transform="matrix(-1 0 0 1 19 15)" fill="black"></rect>
</svg>