<svg width="24" height="24" viewBox="0 0 24 24" fill="none" xmlns="http://www.w3.org">
<rect x="3" y="6" width="2" height="12" fill="black"></rect>
<rect x="3" y="11" width="10" height="2" fill="black"></rect>
<rect x="11" y="6" width="2" height="12" fill="black"></rect>
<rect width="6" height="2" transform="matrix(-1 0 0 1 21 16)" fill="black"></rect>
<rect width="2" height="2" transform="matrix(-1 0 0 1 21 14)" fill="black"></rect>
<rect width="2" height="2" transform="matrix(-1 0 0 1 19 12)" fill="black"></rect>
<rect width="2" height="6" transform="matrix(-1 0 0 1 17 8)" fill="black"></rect>
<rect width="2" height="2" transform="matrix(-1 0 0 1 19 8)" fill="black"></rect>
<rect width="2" height="2" transform="matrix(-1 0 0 1 21 8)" fill="black"></rect>
</svg>