<svg width="24" height="24" viewBox="0 0 24 24" fill="none" xmlns="http://www.w3.org">
<g clip-path="url(#clip0_496_1101)">
<rect x="14" y="18" width="4" height="2" fill="black"></rect>
<rect width="4" height="2" transform="matrix(1 0 0 -1 6 10)" fill="black"></rect>
<rect x="12" y="16" width="2" height="2" fill="black"></rect>
<rect width="2" height="2" transform="matrix(1 0 0 -1 4 12)" fill="black"></rect>
<rect x="18" y="16" width="2" height="2" fill="black"></rect>
<rect x="12" y="12" width="2" height="2" fill="black"></rect>
<rect x="4" y="4" width="2" height="2" fill="black"></rect>
<rect x="18" y="12" width="2" height="2" fill="black"></rect>
<rect x="10" y="4" width="2" height="2" fill="black"></rect>
<rect x="12" y="8" width="12" height="2" fill="black"></rect>
<rect width="16" height="2" fill="black"></rect>
<rect x="8" y="12" width="2" height="10" fill="black"></rect>
<rect y="2" width="2" height="12" fill="black"></rect>
<rect x="22" y="10" width="2" height="12" fill="black"></rect>
<rect x="14" y="2" width="2" height="4" fill="black"></rect>
<rect x="8" y="22" width="16" height="2" fill="black"></rect>
<rect y="14" width="6" height="2" fill="black"></rect>
</g>
<defs>
<clipPath id="clip0_496_1101">
<rect width="24" height="24" fill="white"></rect>
</clipPath>
</defs>
</svg>