<svg xmlns="http://www.w3.org/2000/svg" width="32" height="32" fill="none" viewBox="0 0 32 32">
  <g clip-path="url(#a)">
    <path fill="#000001" d="M32 6.1h-1.53v4.57H32V6.1Zm-1.53 4.57h-1.52v1.52h1.52v-1.52Zm0-6.1h-1.52V6.1h1.52V4.57Zm-1.52 7.62h-1.52v1.52h1.52v-1.52Zm0-9.14h-1.52v1.52h1.52V3.05Zm-1.52 10.66H25.9v1.53h1.53v-1.53Zm0-3.04H25.9v1.52h1.53v-1.52Zm0-9.15H25.9v1.53h1.53V1.52ZM25.9 15.24h-1.52v1.52h1.52v-1.52Zm0-6.1h-1.52v1.53h1.52V9.14Zm-1.52 7.62h-1.53v1.53h1.53v-1.53Zm0-6.09h-1.53v1.52h1.53v-1.52Zm0-3.05h-1.53v1.52h1.53V7.62ZM25.9 0h-4.57v1.52h4.57V0Z"/>
    <path fill="#000001" d="M22.85 18.29h-1.52v1.52h1.52v-1.52Zm0-6.1h-1.52v1.52h1.52v-1.52Zm0-6.09h-1.52v1.52h1.52V6.1Zm-1.52 13.71h-1.52v1.52h1.52v-1.52Zm0-6.1h-1.52v1.53h1.52v-1.53Zm0-6.09h-1.52v1.52h1.52V7.62Zm0-3.05h-1.52V6.1h1.52V4.57Zm0-3.05h-1.52v1.53h1.52V1.52Zm-1.52 19.81h-1.53v1.53h1.53v-1.53Zm0-6.09h-1.53v1.52h1.53v-1.52Zm0-6.1h-1.53v1.53h1.53V9.14Zm0-6.09h-1.53v1.52h1.53V3.05Zm-1.53 19.81h-1.52v1.52h1.52v-1.52Zm0-6.1h-1.52v1.53h1.52v-1.53Zm0-6.09h-1.52v1.52h1.52v-1.52Zm0-6.1h-1.52V6.1h1.52V4.57Zm-1.52 19.81h-1.52v1.52h1.52v-1.52Zm0-6.09h-1.52v1.52h1.52v-1.52Zm0-6.1h-1.52v1.52h1.52v-1.52Zm0-6.09h-1.52v1.52h1.52V6.1Zm-1.52 19.8h-1.53v1.53h1.53V25.9Zm0-6.09h-1.53v1.52h1.53v-1.52Zm0-6.1h-1.53v1.53h1.53v-1.53Zm0-6.09h-1.53v1.52h1.53V7.62Zm-1.53 19.81h-1.52v1.52h1.52v-1.52Zm0-6.1h-1.52v1.53h1.52v-1.53Zm0-6.09h-1.52v1.52h1.52v-1.52Zm0-6.1h-1.52v1.53h1.52V9.14Zm-1.52 13.72h-1.53v1.52h1.53v-1.52Zm0-6.1h-1.53v1.53h1.53v-1.53Zm0-6.09h-1.53v1.52h1.53v-1.52Zm-1.53 19.81h1.53v-1.53h-1.53v-4.57H7.62v-3.05H3.05v-1.52H1.52v1.52H0V32h10.66v-1.52Zm-1.52 0H4.57v-1.53H3.05v-1.52H1.52v-4.57h4.57v3.04h3.05v4.58Zm1.52-12.19H9.14v1.52h1.52v-1.52Zm0-6.1H9.14v1.52h1.52v-1.52Zm-1.52 7.62H7.62v1.52h1.52v-1.52Zm0-6.1H7.62v1.53h1.52v-1.53Zm-1.52 1.53H6.09v1.52h1.53v-1.52Zm-1.53 1.52H4.57v1.53h1.52v-1.53Zm-1.52 1.53H3.05v1.52h1.52v-1.52Z"/>
  </g>
  <defs>
    <clipPath id="a">
      <path fill="#fff" d="M0 0h32v32H0z"/>
    </clipPath>
  </defs>
</svg>
