<svg xmlns="http://www.w3.org/2000/svg" width="32" height="32" fill="none" viewBox="0 0 32 32">
  <path fill="#000001" d="M30.475 3.05h-1.53V1.52h-4.57v1.53h-1.52v4.57h1.52v1.52h4.57V7.62h1.53V3.05Zm-1.53 22.85h-1.52v1.53h1.52V25.9Zm0-7.62h1.53v-4.57h-1.53v-1.52h-4.57v1.52h-1.52v4.57h1.52v1.53h4.57v-1.53Zm-1.52 9.15h-1.52v1.52h1.52v-1.52Zm0-3.05h-1.52v1.52h1.52v-1.52Zm-1.52 4.57h-1.53v1.53h1.53v-1.53Zm0-6.09h-1.53v1.52h1.53v-1.52Zm-7.62 7.62v-1.53h1.52v-4.57h-1.52v-1.52h-4.57v1.52h-1.53v4.57h1.53v1.53h4.57Zm1.52-16.77h-1.52v-1.52h-4.57v1.52h-1.53v4.57h1.53v1.53h4.57v-1.53h1.52v-4.57Zm0-10.66h-1.52V1.52h-4.57v1.53h-1.53v4.57h1.53v1.52h4.57V7.62h1.52V3.05Zm-12.19 25.9h-1.52v1.53h1.52v-1.53Zm0-6.09h-1.52v1.52h1.52v-1.52Zm0-4.58h1.53v-4.57h-1.53v-1.52h-4.57v1.52h-1.52v4.57h1.52v1.53h4.57v-1.53Zm1.53-15.23h-1.53V1.52h-4.57v1.53h-1.52v4.57h1.52v1.52h4.57V7.62h1.53V3.05Zm-3.05 24.38h-1.53v1.52h1.53v-1.52Zm0-3.05h-1.53v1.52h1.53v-1.52Zm-1.53 1.52h-1.52v1.53h1.52V25.9Z"/>
</svg>
