<svg xmlns="http://www.w3.org/2000/svg" width="32" height="32" fill="none" viewBox="0 0 32 32">
  <g clip-path="url(#a)">
    <path fill="#000001" d="M32 16.005h-1.52v7.62H32v-7.62Zm-1.52 7.62h-1.53v1.52h1.53v-1.52Zm0-9.15h-1.53v1.53h1.53v-1.53Zm-1.53 3.05h-1.52v4.57h1.52v-4.57Zm0 7.62h-9.14v1.52h9.14v-1.52Zm-1.52-9.14h-6.09v1.52h6.09v-1.52Zm-3.05-9.15h-1.52v1.53h1.52v-1.53Zm3.05 15.24h-6.09v1.53h6.09v-1.53Zm1.52-9.14h-9.14v1.52h9.14v-1.52Zm-6.09-4.57h-1.52v1.52h1.52v-1.52Zm-1.52 1.52h-1.53v1.53h1.53v-1.53Zm-1.53 13.72h-1.52v1.52h1.52v-1.52Zm1.53-1.53v-1.52h-4.58v3.05h1.53v-1.53h3.05Zm-3.05-6.09h-1.53v3.04h4.58v-1.52h-3.05v-1.52Zm1.52-1.53h-1.52v1.53h1.52v-1.53Zm-3.05-9.14h-1.52v6.1h1.52v-6.1Zm-6.09 12.19v1.52h4.57v-3.04h-1.52v1.52h-3.05Zm3.05 6.1h-1.53v1.52h1.53v-1.52Zm0 0h1.52v-3.05h-4.57v1.52h3.05v1.53Zm0-9.15h-1.53v1.53h1.53v-1.53Zm-1.53-4.57h-1.52v1.53h1.52v-1.53Zm0 15.24H3.05v1.52h9.14v-1.52Zm-1.52-9.14h-6.1v1.52h6.1v-1.52Zm0-7.62H9.15v1.52h1.52v-1.52Zm-1.52-1.53H7.62v1.53h1.53v-1.53Zm1.52 15.24h-6.1v1.53h6.1v-1.53Zm1.52-9.14H3.05v1.52h9.14v-1.52Zm-7.62 4.57H3.05v4.57h1.52v-4.57Zm-1.52 6.1H1.53v1.52h1.52v-1.52Zm0-9.15H1.53v1.53h1.52v-1.53Zm-1.52 1.53H0v7.62h1.53v-7.62Z"/>
  </g>
  <defs>
    <clipPath id="a">
      <path fill="#fff" d="M0 0h32v32H0z"/>
    </clipPath>
  </defs>
</svg>
