<svg xmlns="http://www.w3.org/2000/svg" width="32" height="32" fill="none" viewBox="0 0 32 32">
  <g clip-path="url(#a)">
    <path fill="#000001" d="M22.855 9.583v1.52h-1.53v1.53h-1.52v1.52h-1.52v3.05h1.52v1.52h1.52v1.53h1.53v1.52h1.52v-4.57h6.1v-3.05h-6.1v-4.57h-1.52Zm0 15.24h-1.53v3.05h1.53v-3.05Zm0-22.86h-1.53v4.57h1.53v-4.57Zm-7.62 28.95v-1.52h6.09v-1.52h-6.09V8.063h-1.52v22.85h1.52Zm-1.52 0h-4.58v1.53h4.58v-1.53Zm-1.53-13.71h-1.52v3.05h1.52v-3.05Zm1.53-10.67h-3.05v1.53h3.05v-1.53Zm-4.58 22.86h-3.04v1.52h3.04v-1.52Zm1.53-24.38h-3.05v1.52h3.05v-1.52Zm-4.57 22.86h-3.05v1.52h3.05v-1.52Zm1.52-24.38h-3.05v1.52h3.05v-1.52Z"/>
    <path fill="#000001" d="M3.045.443v1.52h-1.52v25.91h1.52V3.493h1.52v-1.53h16.76V.443H3.045Z"/>
  </g>
  <defs>
    <clipPath id="a">
      <path fill="#fff" d="M0 0h32v32H0z"/>
    </clipPath>
  </defs>
</svg>
