<svg xmlns="http://www.w3.org/2000/svg" width="32" height="32" fill="none" viewBox="0 0 32 32">
  <g clip-path="url(#a)">
    <path fill="#000001" d="M28.95 6.1h-1.52v12.19h1.52V6.1Zm-1.52 12.19H25.9v1.52h1.53v-1.52Zm0-13.72H25.9V6.1h1.53V4.57ZM25.9 19.81h-1.52v1.52h1.52v-1.52Zm0-16.76h-1.52v1.52h1.52V3.05Zm-1.52 18.28h-1.53v1.53h1.53v-1.53Zm0-19.81h-1.53v1.53h1.53V1.52Zm-6.1 21.34v-6.1h-1.52v6.1h-1.52v-6.1h-1.53v6.1H9.14v1.52h1.52v6.1h1.53v-1.53h7.62v1.53h1.52v-6.1h1.52v-1.52h-4.57Zm1.53 3.04h-7.62v-1.52h7.62v1.52Zm1.52-15.23h-1.52v3.04h1.52v-3.04Z"/>
    <path fill="#000001" d="M19.81 13.71h-1.53v3.05h1.53v-3.05Zm0 16.77h-7.62V32h7.62v-1.52Zm-6.1-16.77h-1.52v3.05h1.52v-3.05Zm-1.52-3.04h-1.53v3.04h1.53v-3.04ZM22.85 0H9.14v1.52h13.71V0ZM9.14 21.33H7.62v1.53h1.52v-1.53Zm0-19.81H7.62v1.53h1.52V1.52ZM7.62 19.81H6.09v1.52h1.53v-1.52Zm0-16.76H6.09v1.52h1.53V3.05ZM6.09 18.29H4.57v1.52h1.52v-1.52Zm0-13.72H4.57V6.1h1.52V4.57ZM4.57 6.1H3.05v12.19h1.52V6.1Z"/>
  </g>
  <defs>
    <clipPath id="a">
      <path fill="#fff" d="M0 0h32v32H0z"/>
    </clipPath>
  </defs>
</svg>
