<svg xmlns="http://www.w3.org/2000/svg" width="32" height="32" fill="none" viewBox="0 0 32 32">
  <g clip-path="url(#a)">
    <path fill="#000001" d="M32 23.62h-1.53v4.57H32v-4.57Zm0-10.67h-1.53v6.1H32v-6.1Zm0-9.14h-1.53v4.57H32V3.81Zm-1.53 24.38h-1.52v1.52h1.52v-1.52Zm0-25.91h-1.52v1.53h1.52V2.28ZM28.95.76h-4.57v1.52h4.57V.76Zm0 28.95h-4.57v1.53h4.57v-1.53Zm-6.1-9.14h-1.52v1.52h1.52v-1.52Zm0-12.19h-1.52v3.05h1.52V8.38Zm-1.52 13.71h-1.52v1.53h1.52v-1.53ZM19.81 16h-1.53v1.52h1.53V16Zm0 13.71h-7.62v1.53h7.62v-1.53Zm0-6.09h-7.62v1.52h7.62v-1.52Zm-1.53-9.15h-1.52V16h1.52v-1.53Zm0 3.05h-3.04v1.53h3.04v-1.53ZM16.76 9.9h-1.52v4.57h1.52V9.9ZM19.81.76h-7.62v1.52h7.62V.76Zm-7.62 21.33h-1.53v1.53h1.53v-1.53Zm-1.53-1.52H9.14v1.52h1.52v-1.52Zm0-12.19H9.14v3.05h1.52V8.38ZM7.62 29.71H3.05v1.53h4.57v-1.53Zm0-28.95H3.05v1.52h4.57V.76ZM3.05 28.19H1.52v1.52h1.53v-1.52Zm0-25.91H1.52v1.53h1.53V2.28ZM1.52 23.62H0v4.57h1.52v-4.57Zm0-10.67H0v6.1h1.52v-6.1Zm0-9.14H0v4.57h1.52V3.81Z"/>
  </g>
  <defs>
    <clipPath id="a">
      <path fill="#fff" d="M0 0h32v32H0z"/>
    </clipPath>
  </defs>
</svg>
