<svg xmlns="http://www.w3.org/2000/svg" width="32" height="32" fill="none" viewBox="0 0 32 32">
  <g clip-path="url(#a)">
    <path fill="#000001" d="M27.425 13.71h-1.52v15.24h1.52V13.71Zm-1.52 15.24h-1.53v1.53h1.53v-1.53Zm-1.53 1.53H7.615V32h16.76v-1.52Zm-1.52-28.96h-1.52v1.53h1.52V1.52Zm-4.57 18.29h-1.52v-1.52h1.52v-1.53h-4.57v1.53h-1.53v3.04h1.53v1.53h1.52v4.57h1.53v-4.57h1.52v-1.53h1.52v-3.04h-1.52v1.52ZM21.335 0h-10.67v1.52h10.67V0Zm-10.67 1.52h-1.52v1.53h1.52V1.52Zm15.24 12.19v-1.52h-1.53V3.05h-1.52v9.14H9.145V3.05h-1.53v9.14h-1.52v1.52h19.81ZM7.615 28.95h-1.52v1.53h1.52v-1.53Zm-1.52-15.24h-1.52v15.24h1.52V13.71Z"/>
  </g>
  <defs>
    <clipPath id="a">
      <path fill="#fff" d="M0 0h32v32H0z"/>
    </clipPath>
  </defs>
</svg>
