<svg xmlns="http://www.w3.org/2000/svg" width="32" height="32" fill="none" viewBox="0 0 32 32">
  <g clip-path="url(#a)">
    <path fill="#000001" d="M30.475 9.14h-1.52v3.05h1.52V9.14Zm-1.52-3.05h-1.53v3.05h1.53V6.09Zm-1.53-1.52h-1.52v1.52h1.52V4.57Zm-9.14 25.91v-1.53h-1.52v1.53h-1.53v-1.53h-1.52v1.53h-6.1v-1.53h-1.52V32h19.81v-3.05h-1.52v1.53h-6.1Zm7.62-27.43h-3.05v1.52h3.05V3.05Zm-1.52 6.09h-1.53v3.05h1.53V9.14Zm-3.05 18.29v1.52h3.05V25.9h-1.53v1.53h-1.52Zm1.52-4.57h-1.52v3.04h1.52v-3.04Zm0-15.24h-1.52v1.52h1.52V7.62Zm0-6.1h-3.05v1.53h3.05V1.52Zm-1.52 24.38h-1.53v1.53h1.53V25.9Zm0-6.09h-1.53v3.05h1.53v-3.05Zm-1.53 7.62h-1.52v1.52h1.52v-1.52Zm0-3.05h-1.52v1.52h1.52v-1.52Zm0-7.62h-1.52v3.05h1.52v-3.05Zm1.53-10.67h-3.05v1.53h3.05V6.09ZM19.805 0h-7.61v1.52h7.61V0Zm-1.52 22.86h-1.52v1.52h1.52v-1.52Zm0-3.05h-1.52v1.52h1.52v-1.52Zm0-6.1h-1.52v3.05h1.52v-3.05Zm0-9.14h-4.57v1.52h4.57V4.57Zm-1.52 16.76h-1.53v1.53h1.53v-1.53Zm0-12.19h-1.53v4.57h1.53V9.14Zm-1.53 13.72h-1.52v1.52h1.52v-1.52Zm0-3.05h-1.52v1.52h1.52v-1.52Zm0-6.1h-1.52v3.05h1.52v-3.05Zm-1.52 13.72h-1.52v1.52h1.52v-1.52Zm0-3.05h-1.52v1.52h1.52v-1.52Zm0-7.62h-1.52v3.05h1.52v-3.05Zm-1.52 9.14h-1.53v1.53h1.53V25.9Zm0-6.09h-1.53v3.05h1.53v-3.05Zm1.52-13.72h-3.05v1.53h3.05V6.09Zm-6.1 22.86h3.05v-1.52h-1.52V25.9h-1.53v3.05Zm3.05-6.09h-1.52v3.04h1.52v-3.04Zm0-15.24h-1.52v1.52h1.52V7.62Zm1.53-6.1h-3.05v1.53h3.05V1.52Zm-3.05 7.62h-1.53v3.05h1.53V9.14Zm0-6.09h-3.05v1.52h3.05V3.05Zm-3.05 1.52h-1.52v1.52h1.52V4.57Zm-1.52 1.52h-1.53v3.05h1.53V6.09Zm-1.53 3.05h-1.52v3.05h1.52V9.14Z"/>
  </g>
  <defs>
    <clipPath id="a">
      <path fill="#fff" d="M0 0h32v32H0z"/>
    </clipPath>
  </defs>
</svg>
