<svg xmlns="http://www.w3.org/2000/svg" width="32" height="32" fill="none" viewBox="0 0 32 32">
  <g clip-path="url(#a)">
    <path fill="#000001" d="M32 18.29h-1.53v3.04H32v-3.04Zm-15.24 3.04v1.53h6.09v4.57h1.53v-4.57h6.09v-1.53H16.76Zm6.09-9.14H10.66v1.52h12.19v-1.52Zm-7.62 15.24v3.05h1.53v-1.53h6.09v-1.52h-7.62Zm15.24-9.14v-1.53h-6.09v-3.05h-1.53v3.05h-6.09v1.53h13.71Zm-13.71 0h-1.53v3.04h1.53v-3.04Zm0-16.77h-1.53v3.05h1.53V1.52Zm-1.53 28.96H1.52V32h13.71v-1.52Zm-4.57-19.81H9.14v1.52h1.52v-1.52ZM9.14 6.09h6.09V4.57H1.52v1.52h6.09v4.58h1.53V6.09Zm6.09 19.81H1.52v1.53h13.71V25.9Zm0-25.9H1.52v1.52h13.71V0ZM1.52 27.43H0v3.05h1.52v-3.05Zm0-25.91H0v3.05h1.52V1.52Z"/>
  </g>
  <defs>
    <clipPath id="a">
      <path fill="#fff" d="M0 0h32v32H0z"/>
    </clipPath>
  </defs>
</svg>
