<svg xmlns="http://www.w3.org/2000/svg" width="32" height="32" fill="none" viewBox="0 0 32 32">
  <path fill="#000001" d="M29.715 20.575h-1.52v6.09h1.52v-6.09Zm-1.52 6.09h-1.53v1.53h1.53v-1.53Zm0-7.61h-1.53v1.52h1.53v-1.52Zm-1.53-1.53h-1.52v1.53h1.52v-1.53Zm0 10.67h-6.09v1.52h6.09v-1.52Zm-1.52-12.19h-1.53v1.52h1.53v-1.52Zm-1.53-1.53h-4.57v1.53h4.57v-1.53Zm-3.04 12.19h-1.53v1.53h1.53v-1.53Zm-1.53-1.52h-1.52v1.52h1.52v-1.52Z"/>
  <path fill="#000001" d="M14.475 11.435h-3.05v3.04h1.53v1.53h1.52v1.52h1.53v1.53h1.52v1.52h3.05v-3.05h-1.53v-1.52h-1.52v-1.53h-1.52v-1.52h-1.53v-1.52Zm3.05 12.19h-1.52v1.52h1.52v-1.52Zm0-15.24h-1.52v4.57h1.52v-4.57Z"/>
  <path fill="#000001" d="M16.005 19.055h-1.53v4.57h1.53v-4.57Zm0-12.19h-1.53v1.52h1.53v-1.52Zm-1.53-1.53h-1.52v1.53h1.52v-1.53Zm-1.52-1.52h-1.53v1.52h1.53v-1.52Zm0 12.19h-4.57v1.52h4.57v-1.52Zm-4.57-1.53h-1.53v1.53h1.53v-1.53Zm3.04-12.19h-6.09v1.53h6.09v-1.53Zm-4.57 10.67h-1.52v1.52h1.52v-1.52Zm-1.52-1.52h-1.52v1.52h1.52v-1.52Zm0-7.62h-1.52v1.52h1.52v-1.52Zm-1.52 1.52h-1.53v6.1h1.53v-6.1Z"/>
</svg>
