<svg xmlns="http://www.w3.org/2000/svg" width="32" height="32" fill="none" viewBox="0 0 32 32">
  <g clip-path="url(#a)">
    <path fill="#000001" d="M30.48 1.52h-1.53V0H3.05v1.52H1.52v1.53H0v25.9h1.52v1.53h1.53V32h25.9v-1.52h1.53v-1.53H32V3.05h-1.52V1.52Zm0 15.24h-1.53v10.67h-1.52v1.52H4.57v-1.52H3.05V16.76H1.52v-1.52h1.53V4.57h1.52V3.05h22.86v1.52h1.52v10.67h1.53v1.52Z"/>
    <path fill="#000001" d="M28.95 15.24h-4.57v1.52h4.57v-1.52Zm-4.57-1.53h-1.52v1.53h1.52v-1.53Zm-1.52 1.53h-1.53v3.05h1.53v-3.05Zm-1.53 3.05h-1.52v3.04h1.52v-3.04Zm-1.52 3.04h-1.52v1.53h1.52v-1.53Zm-1.52-3.04h-1.53v3.04h1.53v-3.04Zm-1.53-3.05h-1.52v3.05h1.52v-3.05Zm-1.52-3.05h-1.53v3.05h1.53v-3.05Zm-1.53-3.05h-1.52v3.05h1.52V9.14Zm-1.52-1.52h-1.52v1.52h1.52V7.62Zm-1.52 1.52H9.14v3.05h1.53V9.14Zm-1.53 3.05H7.62v3.05h1.52v-3.05Zm-1.52 3.05H3.05v1.52h4.57v-1.52Z"/>
  </g>
  <defs>
    <clipPath id="a">
      <path fill="#fff" d="M0 0h32v32H0z"/>
    </clipPath>
  </defs>
</svg>
