<svg xmlns="http://www.w3.org/2000/svg" width="32" height="32" fill="none" viewBox="0 0 32 32">
  <g clip-path="url(#a)">
    <path fill="#000001" d="M32 12.19h-1.53v7.62H32v-7.62Zm-1.53 7.62h-1.52v3.05h1.52v-3.05Zm0-10.67h-1.52v3.05h1.52V9.14Zm-1.52 13.72h-1.52v3.04h1.52v-3.04Zm0-16.76h-1.52v3.04h1.52V6.1Zm-1.52 19.8H25.9v1.53h1.53V25.9Zm0-13.71H25.9v7.62h1.53v-7.62Zm0-7.62H25.9V6.1h1.53V4.57ZM25.9 19.81h-1.52v3.05h1.52v-3.05Zm0-10.67h-1.52v3.05h1.52V9.14Zm0-6.09h-3.05v1.52h3.05V3.05Zm-1.52 19.81h-1.53v1.52h1.53v-1.52Zm0-15.24h-1.53v1.52h1.53V7.62Zm-1.53 4.57h-1.52v7.62h1.52v-7.62Zm0-6.09h-3.04v1.52h3.04V6.1Zm0-4.58h-3.04v1.53h3.04V1.52Zm-1.52 18.29h-1.52v1.52h1.52v-1.52Zm0-9.14h-1.52v1.52h1.52v-1.52Zm-1.52 12.19h-1.53v-1.53h-4.57v1.53h-1.52v1.52h-1.53v6.1h1.53V32h7.62v-1.52h1.52v-6.1h-1.52v-1.52Zm-3.05 4.57h-1.52v-3.05h1.52v3.05Zm3.05-18.29h-7.62v1.53h7.62V9.14Zm0-4.57h-7.62V6.1h7.62V4.57Zm0-4.57h-7.62v1.52h7.62V0Zm-6.1 12.19v1.52h-1.52v4.58h1.52v1.52h4.57v-1.52h1.53v-4.58h-1.53v-1.52h-4.57Zm-1.52 7.62h-1.53v1.52h1.53v-1.52Zm0-9.14h-1.53v1.52h1.53v-1.52Zm-1.53 1.52H9.14v7.62h1.52v-7.62Zm1.53-6.09H9.14v1.52h3.05V6.1Zm0-4.58H9.14v1.53h3.05V1.52ZM9.14 22.86H7.62v1.52h1.52v-1.52Zm0-15.24H7.62v1.52h1.52V7.62ZM7.62 19.81H6.09v3.05h1.53v-3.05Zm0-10.67H6.09v3.05h1.53V9.14Zm1.52-6.09H6.09v1.52h3.05V3.05ZM6.09 25.9H4.57v1.53h1.52V25.9Zm0-13.71H4.57v7.62h1.52v-7.62Zm0-7.62H4.57V6.1h1.52V4.57ZM4.57 22.86H3.05v3.04h1.52v-3.04Zm0-16.76H3.05v3.04h1.52V6.1ZM3.05 19.81H1.52v3.05h1.53v-3.05Zm0-10.67H1.52v3.05h1.53V9.14Zm-1.53 3.05H0v7.62h1.52v-7.62Z"/>
  </g>
  <defs>
    <clipPath id="a">
      <path fill="#fff" d="M0 0h32v32H0z"/>
    </clipPath>
  </defs>
</svg>
