<svg xmlns="http://www.w3.org/2000/svg" width="32" height="32" fill="none" viewBox="0 0 32 32">
  <g clip-path="url(#a)">
    <path fill="#000001" d="M31.235 9.145h-1.52v3.04h1.52v-3.04Zm-1.52-1.53h-3.05v1.53h3.05v-1.53Zm-3.05 10.67h1.53v-4.57h1.52v-1.53h-3.05v-3.04h-1.52v4.57h1.52v4.57Zm-1.52 1.52h-1.53v1.53h1.53v1.52H6.855v-1.52h1.53v-1.53h-1.53v-1.52h-1.52v7.62h1.52v1.52h18.29v-1.52h1.52v-7.62h-1.52v1.52Zm0-6.09h-1.53v1.52h1.53v-1.52Zm-1.53 1.52h-1.52v1.53h1.52v-1.53Zm-1.52 1.53h-1.52v1.52h1.52v-1.52Z"/>
    <path fill="#000001" d="M22.095 19.805h-3.05v1.53h3.05v-1.53Zm-1.52-6.09h-1.53v3.05h1.53v-3.05Zm-1.53-3.05h-1.52v3.05h1.52v-3.05Zm0-4.57h-1.52v3.05h1.52v-3.05Zm-1.52 3.05h-3.05v1.52h3.05v-1.52Zm0-4.57h-3.05v1.52h3.05v-1.52Zm0 13.71h-3.05v3.05h3.05v-3.05Zm-3.05-7.62h-1.52v3.05h1.52v-3.05Zm0-4.57h-1.52v3.05h1.52v-3.05Zm-1.52 7.62h-1.53v3.05h1.53v-3.05Zm0 6.09h-3.05v1.53h3.05v-1.53Zm-1.53-3.04h-1.52v1.52h1.52v-1.52Zm-1.52-1.53h-1.52v1.53h1.52v-1.53Zm-1.52-1.52h-1.53v1.52h1.53v-1.52Zm-6.1-1.53v1.53h1.53v4.57h1.52v-4.57h1.52v-4.57h-1.52v3.04h-3.05Zm3.05-4.57h-3.05v1.53h3.05v-1.53Zm-3.05 1.53H.765v3.04h1.52v-3.04Z"/>
  </g>
  <defs>
    <clipPath id="a">
      <path fill="#fff" d="M0 0h32v32H0z"/>
    </clipPath>
  </defs>
</svg>
