<svg xmlns="http://www.w3.org/2000/svg" width="32" height="32" fill="none" viewBox="0 0 32 32">
  <g clip-path="url(#a)">
    <path fill="#000001" d="M6.855 1.52h-1.52v28.96h1.52V32h18.29v-1.52h1.52V1.52h-1.52V0H6.855v1.52Zm9.15 0h3.04v1.53h-3.04V1.52Zm-3.05 0h1.52v1.53h-1.52V1.52Zm7.62 3.05V3.05h4.57v25.9H6.855V3.05h4.57v1.52h9.15Z"/>
    <path fill="#000001" d="M23.615 22.86h-1.52v3.05h1.52v-3.05Zm0-15.24h-1.52v3.05h1.52V7.62Zm-1.52 7.62h-1.52v4.57h1.52v-4.57Zm0-3.05h-1.52v1.52h1.52v-1.52Zm0-6.09h-3.05v1.52h3.05V6.1Zm0 19.81h-3.05v1.52h3.05v-1.52Zm-1.52-15.24h-1.53v1.52h1.53v-1.52Zm-1.53 7.62h-1.52v4.57h1.52v-4.57Zm0-4.58h-1.52v3.05h1.52v-3.05Zm0-4.57h-3.04v1.53h3.04V9.14Zm-1.52 13.72h-4.57v1.52h4.57v-1.52Zm-1.52-4.57h-1.53v1.52h1.53v-1.52Zm1.52-6.1h-3.05v1.52h3.05v-1.52Zm-3.05 1.52h-1.52v4.58h1.52v-4.58Zm0-4.57h-1.52v1.53h1.52V9.14Zm-1.52 12.19h-1.53v1.53h1.53v-1.53Zm0-10.66h-1.53v1.52h1.53v-1.52Zm0-4.57h-3.05v1.52h3.05V6.1Zm0 19.81h-3.05v1.52h3.05v-1.52Zm-1.53-6.1h-1.52v1.52h1.52v-1.52Zm0-7.62h-1.52v6.1h1.52v-6.1Zm-1.52 10.67h-1.52v3.05h1.52v-3.05Zm0-15.24h-1.52v3.05h1.52V7.62Z"/>
  </g>
  <defs>
    <clipPath id="a">
      <path fill="#fff" d="M0 0h32v32H0z"/>
    </clipPath>
  </defs>
</svg>
