<svg xmlns="http://www.w3.org/2000/svg" width="32" height="32" fill="none" viewBox="0 0 32 32">
  <g clip-path="url(#a)">
    <path fill="#000001" d="M32 25.91h-1.52v4.57H32v-4.57Zm0-12.19h-1.52v4.57H32v-4.57Zm0-12.19h-1.52V6.1H32V1.53Zm-1.52 16.76h-1.53v1.52h1.53v-1.52Zm0-6.1h-1.53v1.53h1.53v-1.53Zm0-12.19h-4.57v1.53h4.57V0Zm0 30.48h-4.57V32h4.57v-1.52Zm-1.53-10.67h-1.52v1.53h1.52v-1.53Zm0-9.14h-1.52v1.52h1.52v-1.52Zm-1.52 10.67h-3.05v1.52h3.05v-1.52Zm0-12.19h-3.05v1.52h3.05V9.15Zm-3.05 13.71h-3.04v1.52h3.04v-1.52Zm0-15.24h-3.04v1.53h3.04V7.62Zm-3.04 4.57h-1.53v-1.52h-1.52V9.15h-4.57v1.52h-1.53v1.52h-1.52v1.53H9.15v4.57h1.52v1.52h1.52v1.53h1.53v1.52h4.57v-1.52h1.52v-1.53h1.53v-1.52h1.52v-4.57h-1.52v-1.53Zm-3.05 4.58h-1.53v1.52h-1.52v-1.52h-1.52v-1.53h1.52v-1.52h1.52v1.52h1.53v1.53Zm3.05 7.61H10.67v1.53h10.67v-1.53Zm0-18.28H10.67v1.52h10.67V6.1ZM10.67 22.86H7.62v1.52h3.05v-1.52Zm0-15.24H7.62v1.53h3.05V7.62ZM7.62 21.34H4.57v1.52h3.05v-1.52Zm0-12.19H4.57v1.52h3.05V9.15ZM6.1 30.48H1.53V32H6.1v-1.52ZM4.57 19.81H3.05v1.53h1.52v-1.53Zm0-9.14H3.05v1.52h1.52v-1.52ZM6.1 0H1.53v1.53H6.1V0ZM3.05 18.29H1.53v1.52h1.52v-1.52Zm0-6.1H1.53v1.53h1.52v-1.53ZM1.53 25.91H0v4.57h1.53v-4.57Zm0-12.19H0v4.57h1.53v-4.57Zm0-12.19H0V6.1h1.53V1.53Z"/>
  </g>
  <defs>
    <clipPath id="a">
      <path fill="#fff" d="M0 0h32v32H0z"/>
    </clipPath>
  </defs>
</svg>
