<svg width="24" height="24" viewBox="0 0 24 24" fill="none" xmlns="http://www.w3.org/2000/svg">
<path d="M17 12C17 13.1046 17.8954 14 19 14C20.1046 14 21 13.1046 21 12C21 10.8954 20.1046 10 19 10C17.8954 10 17 10.8954 17 12ZM17 12H12M12 16H14.1716C14.702 16 15.2107 16.2107 15.5858 16.5858L17.5 18.5M17.5 5.5L15.5858 7.41421C15.2107 7.78929 14.702 8 14.1716 8H12M8.26756 6C8.09739 5.70583 8 5.36429 8 5C8 3.89543 8.89543 3 10 3C11.1046 3 12 3.89543 12 5V19C12 20.1046 11.1046 21 10 21C8.89543 21 8 20.1046 8 19M5.99999 8.73244C5.40218 8.38663 4.99999 7.74028 4.99999 7C4.99999 5.89543 5.89542 5 6.99999 5C7.36428 5 7.70582 5.0974 8 5.26757M5 8.17065C3.83481 8.58249 3 9.69373 3 10.9999C3 12.3062 3.83481 13.4174 5 13.8292C5.31278 13.9398 5.64936 13.9999 6 13.9999M4.76389 14C4.28885 14.5308 4 15.2316 4 16C4 17.6569 5.34315 19 7 19C7.76835 19 8.46924 18.7111 9 18.2361M19 18C20.1046 18 21 18.8954 21 20C21 21.1046 20.1046 22 19 22C17.8954 22 17 21.1046 17 20C17 18.8954 17.8954 18 19 18ZM19 2C20.1046 2 21 2.89543 21 4C21 5.10457 20.1046 6 19 6C17.8954 6 17 5.10457 17 4C17 2.89543 17.8954 2 19 2Z" stroke="#1F2937" stroke-width="2" stroke-linecap="round" stroke-linejoin="round"/>
</svg>
