<svg width="24" height="24" viewBox="0 0 24 24" fill="none" xmlns="http://www.w3.org/2000/svg">
<path d="M8 14H6.82843C6.29799 14 5.78929 13.7893 5.41421 13.4142L4.41421 12.4142C4.149 12.149 3.78929 12 3.41421 12C2.63317 12 2 12.6332 2 13.4142V16C2 17.1046 2.89543 18 4 18H6L5.18203 20.1812C4.85203 21.0613 5.50257 22 6.44243 22C6.79943 22 7.14182 21.8582 7.39426 21.6057L10.4142 18.5858C10.7893 18.2107 11.298 18 11.8284 18H15C15.6667 18 17 17.6 17 16C17 14.4 15.6667 14 15 14H12.5M8 14L7.04779 12.0956C6.5664 11.1328 7.26651 10 8.34294 10C8.76049 10 9.15772 10.1802 9.43268 10.4945L12.5 14M8 14H12.5M18.8504 12C19.9004 12 22.0004 11.3571 22.0004 8.78571C22.0004 6.21429 19.9004 5.57143 18.8504 5.57143C18.8504 4.5 17.8004 2 15.3504 2C13.3904 2 12.2004 3.42857 11.8504 4.14286C10.7276 4.14286 8.62221 4.74437 8.11328 7" stroke="#1F2937" stroke-width="2" stroke-linecap="round" stroke-linejoin="round"/>
</svg>
