<svg width="24" height="24" viewBox="0 0 24 24" fill="none" xmlns="http://www.w3.org/2000/svg">
<path d="M6 3H5C3.89543 3 3 3.89543 3 5V19C3 20.1046 3.89543 21 5 21H19C20.1046 21 21 20.1046 21 19V18M13.0711 8.58579L12.2426 9.41421C11.8676 9.78929 11.3589 10 10.8284 10H9.41421C9.03914 10 8.67943 10.149 8.41421 10.4142C7.86193 10.9665 7.86193 11.8619 8.41421 12.4142L10.2426 14.2426C11.0237 15.0237 12.29 15.0237 13.0711 14.2426L14.4853 12.8284L15.4493 14.9492C15.8382 15.8048 16.962 16.0086 17.6266 15.344C17.879 15.0916 18.0208 14.7492 18.0208 14.3922L18.0208 10.1213C18.0208 9.59089 18.2315 9.08218 18.6066 8.70711L20.8492 6.46447C21.3206 5.99306 21.9806 4.76741 20.8492 3.63604C19.7179 2.50467 18.4922 3.16463 18.0208 3.63604L16.253 5.40381M13.0711 8.58579L11.0511 7.91247C10.0299 7.57208 9.72398 6.27602 10.4851 5.51487C10.7804 5.21961 11.1887 5.06618 11.6054 5.09396L16.253 5.40381M13.0711 8.58579L16.253 5.40381" stroke="#1F2937" stroke-width="2" stroke-linecap="round" stroke-linejoin="round"/>
</svg>
