<svg width="24" height="24" viewBox="0 0 24 24" fill="none" xmlns="http://www.w3.org/2000/svg">
<path d="M8 13L9.5 14.5M9.5 14.5L10.1787 15.1787C11.2879 16.2879 12.964 16.6832 14.3483 15.9454C15.2196 15.4809 16 14.9417 16 14.5C16 14.0583 15.2196 13.5191 14.3483 13.0546C12.964 12.3168 11.2879 12.7121 10.1787 13.8213L9.5 14.5ZM9.5 14.5L8 16M2 10L2.9873 8.93371C3.93649 7.90859 5.5705 7.95126 6.46488 9.02453C7.34481 10.0804 8.94552 10.1418 9.90364 9.15625L10.1302 8.92327C11.1542 7.86996 12.8458 7.86996 13.8699 8.92327L14.0964 9.15625C15.0545 10.1418 16.6552 10.0804 17.5351 9.02453C18.4295 7.95126 20.0635 7.90859 21.0127 8.93371L22 10M22 6V18C22 19.1046 21.1046 20 20 20H4C2.89543 20 2 19.1046 2 18V6C2 4.89543 2.89543 4 4 4H20C21.1046 4 22 4.89543 22 6Z" stroke="#1F2937" stroke-width="2" stroke-linecap="round" stroke-linejoin="round"/>
</svg>
