<svg width="24" height="24" viewBox="0 0 24 24" fill="none" xmlns="http://www.w3.org/2000/svg">
<path d="M9 9V15M12 9V15M19 9V15M5 9.5V14.5C5 14.7761 5.22386 15 5.5 15C5.77614 15 6 14.7761 6 14.5V9.5C6 9.22386 5.77614 9 5.5 9C5.22386 9 5 9.22386 5 9.5ZM15 9.5V14.5C15 14.7761 15.2239 15 15.5 15C15.7761 15 16 14.7761 16 14.5V9.5C16 9.22386 15.7761 9 15.5 9C15.2239 9 15 9.22386 15 9.5ZM3 5H21C22.1046 5 23 5.89543 23 7V17C23 18.1046 22.1046 19 21 19H3C1.89543 19 1 18.1046 1 17V7C1 5.89543 1.89543 5 3 5Z" stroke="#1F2937" stroke-width="2" stroke-linecap="round" stroke-linejoin="round"/>
</svg>
