<svg width="24" height="24" viewBox="0 0 24 24" fill="none" xmlns="http://www.w3.org/2000/svg">
<path d="M18 15H3V17C3 19.2091 4.79086 21 7 21H17C19.2091 21 21 19.2091 21 17V15H18ZM18 15V6C18 5 17.4 3 15 3C13.8812 3 13.1535 3.43464 12.6955 4M12.6955 4L13.6955 5M12.6955 4L11.6955 3M9 11C6.79086 11 5 12.7909 5 15H13C13 12.7909 11.2091 11 9 11ZM9 11C10.1046 11 11 10.1046 11 9C11 7.89543 10.1046 7 9 7C7.89543 7 7 7.89543 7 9C7 10.1046 7.89543 11 9 11Z" stroke="#1F2937" stroke-width="2" stroke-linecap="round" stroke-linejoin="round"/>
</svg>
