<svg width="24" height="24" viewBox="0 0 24 24" fill="none" xmlns="http://www.w3.org/2000/svg">
<path d="M18 4H20M18 4H6M18 4V9M4 4H6M6 4V8M6 14V18C6 19.1046 6.89543 20 8 20H9M6 14V11M6 14H10M6 11V8M6 11H8M6 8H10M19 13H20M19 13V15.723C19 15.9043 19.0493 16.0821 19.1425 16.2375L20.2 18M19 13H15M14 13H15M15 13V15.723C15 15.9043 14.9507 16.0821 14.8575 16.2375L13.8 18M20.2 18L21.0913 19.4855C21.4912 20.152 21.0111 21 20.2338 21H13.7662C12.9889 21 12.5088 20.152 12.9087 19.4855L13.8 18M20.2 18H13.8" stroke="#1F2937" stroke-width="2" stroke-linecap="round" stroke-linejoin="round"/>
</svg>
