<svg width="24" height="24" viewBox="0 0 24 24" fill="none" xmlns="http://www.w3.org/2000/svg">
<path d="M18 4H20M18 4H6M18 4V9M4 4H6M6 4V8M6 14V18C6 19.1046 6.89543 20 8 20H12M6 14V11M6 14H10M6 11V8M6 11H8M6 8H10M18 13L15.8052 16.3837C15.2797 17.1939 14.9299 18.1683 15.2708 19.0719C15.6388 20.0474 16.4383 21 18 21C19.5617 21 20.3612 20.0474 20.7292 19.0719C21.0701 18.1683 20.7203 17.1939 20.1948 16.3837L18 13Z" stroke="#1F2937" stroke-width="2" stroke-linecap="round" stroke-linejoin="round"/>
</svg>
