<svg width="24" height="24" viewBox="0 0 24 24" fill="none" xmlns="http://www.w3.org/2000/svg">
<path d="M11 3H7C5.89543 3 5 3.89543 5 5V20.1384C5 20.5223 5.41474 20.763 5.74807 20.5725L11.0077 17.567C11.6226 17.2157 12.3774 17.2157 12.9923 17.567L18.2519 20.5725C18.5853 20.763 19 20.5223 19 20.1384V15M16 3H20C20.5523 3 21 3.44772 21 4V10.3964C21 10.6192 20.7307 10.7307 20.5732 10.5732L18.7071 8.70711C18.3166 8.31658 17.6834 8.31658 17.2929 8.70711L15.4268 10.5732C15.2693 10.7307 15 10.6192 15 10.3964V4C15 3.44772 15.4477 3 16 3Z" stroke="#1F2937" stroke-width="2" stroke-linecap="round" stroke-linejoin="round"/>
</svg>
