<svg width="24" height="24" viewBox="0 0 24 24" fill="none" xmlns="http://www.w3.org/2000/svg">
<path d="M8 3H7C5.89543 3 5 3.89543 5 5V20.1384C5 20.5223 5.41474 20.763 5.74807 20.5725L11.0077 17.567C11.6226 17.2157 12.3774 17.2157 12.9923 17.567L18.2519 20.5725C18.5853 20.763 19 20.5223 19 20.1384V14M13.75 10C12.8333 10 11 9.45 11 7.25C11 5.05 12.8333 4.5 13.75 4.5C14 4 14.85 3 16.25 3C18 3 18.75 4.75 18.75 5.5C19.5 5.5 21 5.95 21 7.75C21 9.55 19.5 10 18.75 10H13.75Z" stroke="#1F2937" stroke-width="2" stroke-linecap="round" stroke-linejoin="round"/>
</svg>
