<svg width="24" height="24" viewBox="0 0 24 24" fill="none" xmlns="http://www.w3.org/2000/svg">
<path d="M15 8V6C15 4.89543 14.1046 4 13 4H11C9.89543 4 9 4.89543 9 6V8M15 8H19C20.1046 8 21 8.89543 21 10V11M15 8H9M9 8H5C3.89543 8 3 8.89543 3 10V13M3 13V18C3 19.1046 3.89543 20 5 20H11M3 13H10M10 13V11H14V12M10 13V15H11M19.9749 19.9749C19.3415 20.6082 18.4665 21 17.5 21C15.567 21 14 19.433 14 17.5C14 15.567 15.567 14 17.5 14C19.433 14 21 15.567 21 17.5C21 18.4665 20.6082 19.3415 19.9749 19.9749ZM19.9749 19.9749L22 22" stroke="#1F2937" stroke-width="2" stroke-linecap="round" stroke-linejoin="round"/>
</svg>
