<svg width="24" height="24" viewBox="0 0 24 24" fill="none" xmlns="http://www.w3.org/2000/svg">
<path d="M20 19V8C20 4.8 17.3333 4 16 4H3C1.4 4 1 5.33333 1 6V18C1 18.5523 1.44772 19 2 19H3M20 19H22C22.5523 19 23 18.5523 23 18V17M20 19H16M16 19V10C16 9.33333 15.6 8 14 8H13C12.3333 8 11 8.4 11 10V19M16 19H11M11 19H9M8 19C8 20.1046 7.10457 21 6 21C4.89543 21 4 20.1046 4 19C4 17.8954 4.89543 17 6 17C7.10457 17 8 17.8954 8 19ZM5 12H7C7.55228 12 8 11.5523 8 11V9C8 8.44772 7.55228 8 7 8H5C4.44772 8 4 8.44772 4 9V11C4 11.5523 4.44772 12 5 12Z" stroke="#1F2937" stroke-width="2" stroke-linecap="round" stroke-linejoin="round"/>
</svg>
