<svg width="24" height="24" viewBox="0 0 24 24" fill="none" xmlns="http://www.w3.org/2000/svg">
<path d="M12 7V10.7639C12 11.5215 12.428 12.214 13.1056 12.5528L16 14M3.50012 9.03417C4.72592 5.52076 8.06858 3 12 3C16.9706 3 21 7.02944 21 12C21 16.6325 17.5 20.4476 13.0001 20.9451M4 13H8C8.55228 13 9 13.4477 9 14V20.3964C9 20.6192 8.73071 20.7307 8.57322 20.5732L6.70711 18.7071C6.31658 18.3166 5.68342 18.3166 5.29289 18.7071L3.42678 20.5732C3.26929 20.7307 3 20.6192 3 20.3964V14C3 13.4477 3.44772 13 4 13Z" stroke="#1F2937" stroke-width="2" stroke-linecap="round" stroke-linejoin="round"/>
</svg>
