<svg width="24" height="24" viewBox="0 0 24 24" fill="none" xmlns="http://www.w3.org/2000/svg">
<path d="M21 10C21 7.79086 16.9706 6 12 6C7.02944 6 3 7.79086 3 10M21 10V14C21 15.3869 19.412 16.6089 17 17.3264M21 10C21 11.3869 19.412 12.6089 17 13.3264M12 14V18M12 14C13.4368 14 14.795 13.8504 16 13.5842C16.3466 13.5077 16.6805 13.4215 17 13.3264M12 14C10.5632 14 9.20496 13.8504 8 13.5842C7.6534 13.5077 7.31947 13.4215 7 13.3264M3 10V14C3 15.3869 4.58803 16.6089 7 17.3264M3 10C3 11.3869 4.58803 12.6089 7 13.3264M12 18C13.4368 18 14.795 17.8504 16 17.5842C16.3466 17.5077 16.6805 17.4215 17 17.3264M12 18C10.5632 18 9.20496 17.8504 8 17.5842C7.6534 17.5077 7.31947 17.4215 7 17.3264M17 13.3264V17.3264M7 13.3264V17.3264" stroke="#1F2937" stroke-width="2" stroke-linecap="round" stroke-linejoin="round"/>
</svg>
