<svg width="24" height="24" viewBox="0 0 24 24" fill="none" xmlns="http://www.w3.org/2000/svg">
<path d="M14.1219 18.364L13.4148 19.0711C11.0717 21.4142 7.27269 21.4142 4.92954 19.0711C2.58639 16.7279 2.58639 12.929 4.92954 10.5858L7.05086 8.46449M16.2432 16.2427L18.3646 14.1213M9.17218 6.34317L10.5864 4.92896M11.2935 9.8787L12.0006 9.1716M14.1219 7.05028L16.2432 4.92896M14.1219 12.7071L20.4859 6.34317M7.75797 13.4142C8.53902 12.6332 9.80534 12.6332 10.5864 13.4142C11.3674 14.1953 11.3674 15.4616 10.5864 16.2427C9.80534 17.0237 8.53902 17.0237 7.75797 16.2427C6.97692 15.4616 6.97692 14.1953 7.75797 13.4142Z" stroke="#1F2937" stroke-width="2" stroke-linecap="round" stroke-linejoin="round"/>
</svg>
