<svg width="24" height="24" viewBox="0 0 24 24" fill="none" xmlns="http://www.w3.org/2000/svg">
<path d="M3 9V17C3 18.1046 3.89543 19 5 19H12M3 9V7C3 5.89543 3.89543 5 5 5H19C20.1046 5 21 5.89543 21 7V9H3ZM7 13H12M20 13C20.6667 13 22 13.4 22 15C22 16.6 20.6667 17 20 17M20 13H16M20 13V12M20 17C20.6667 17 22 17.4 22 19C22 20.6 20.6667 21 20 21M20 17H16M20 21H16M20 21V22M16 17V13M16 17V21M15 13H16M16 13V12M16 21H15M16 21V22" stroke="#1F2937" stroke-width="2" stroke-linecap="round" stroke-linejoin="round"/>
</svg>
