<svg width="24" height="24" viewBox="0 0 24 24" fill="none" xmlns="http://www.w3.org/2000/svg">
<path d="M17 12C17 14.7614 14.7614 17 12 17M17 12C17 9.23857 14.7614 6.99999 12 6.99999M17 12H14C13.4477 12 13 12.4477 13 13V13.1623C13 13.6249 12.6249 14 12.1623 14C11.5905 14 11.1867 14.5602 11.3675 15.1026L12 17M12 17C9.23857 17 6.99999 14.7614 6.99999 12C6.99999 11.2889 7.14844 10.6125 7.41603 9.99999M12 6.99999V8.76392C12 9.52147 11.572 10.214 10.8944 10.5528L9.99999 11L7.41603 9.99999M12 6.99999C9.94967 6.99999 8.18759 8.23409 7.41603 9.99999M12.0007 3.00072L11.9937 2.99365M12.0007 21.0007L11.9937 20.9937M21.0007 12.0007L20.9937 11.9937M3.00072 12.0007L2.99365 11.9937M6.00072 6.00072L5.99365 5.99365M18.0007 6.00072L17.9937 5.99365M6.00072 18.0007L5.99365 17.9937M18.0007 18.0007L17.9937 17.9937" stroke="#1F2937" stroke-width="2" stroke-linecap="round" stroke-linejoin="round"/>
</svg>
