<svg width="24" height="24" viewBox="0 0 24 24" fill="none" xmlns="http://www.w3.org/2000/svg">
<path d="M17 12C17 14.7614 14.7614 17 12 17M17 12C17 9.23858 14.7614 7 12 7M17 12H14C13.4477 12 13 12.4477 13 13V13.1623C13 13.6249 12.6249 14 12.1623 14C11.5905 14 11.1867 14.5602 11.3675 15.1026L12 17M12 17C9.23858 17 7 14.7614 7 12C7 11.2889 7.14845 10.6125 7.41604 10M12 7V8.76393C12 9.52148 11.572 10.214 10.8944 10.5528L10 11L7.41604 10M12 7C9.94968 7 8.1876 8.2341 7.41604 10M3 12C3 16.9706 7.02944 21 12 21C15.5337 21 18.5918 18.9634 20.0645 16M3 12L5 14M3 12L1 14M21 12C21 7.02944 16.9706 3 12 3C8.46628 3 5.40822 5.03656 3.93552 8M21 12L23 10M21 12L19 10" stroke="#1F2937" stroke-width="2" stroke-linecap="round" stroke-linejoin="round"/>
</svg>
