<svg width="24" height="24" viewBox="0 0 24 24" fill="none" xmlns="http://www.w3.org/2000/svg">
<path d="M6 3.80269C4.2066 4.84012 3 6.77915 3 9C3 11.2208 4.2066 13.1599 6 14.1973M6 3.80269C6.88252 3.29218 7.90714 3 9 3C11.6124 3 13.8349 4.66962 14.6586 7M6 3.80269L7.60304 5.51117C8.3484 6.30555 8.23818 7.57137 7.36672 8.22496L6.77749 8.66689C5.96085 9.27937 6.07426 10.5371 6.98729 10.9936C7.90641 11.4532 8.01361 12.7225 7.18459 13.3297L6 14.1973M6 14.1973C6.88252 14.7078 7.90714 15 9 15C10.792 15 12.4006 14.2144 13.5 12.9687M14.6586 7C14.8797 7.62556 15 8.29873 15 9C15 10.5217 14.4335 11.911 13.5 12.9687M14.6586 7L13.5576 7.34858C12.4474 7.70005 11.8711 8.92188 12.3059 10.0021L13.5 12.9687M12 20.1973C12.8825 20.7078 13.9071 21 15 21C16.792 21 18.4006 20.2144 19.5 18.9687M12 20.1973L14.0591 18.6891C14.5537 18.3269 14.6089 17.6088 14.1753 17.1753L13.5 16.5M12 20.1973C11.4354 19.8707 10.9289 19.4547 10.5 18.9687M20.6586 13C20.8797 13.6256 21 14.2987 21 15C21 16.5217 20.4335 17.911 19.5 18.9687M20.6586 13L19.5576 13.3486C18.4474 13.7001 17.8711 14.9219 18.3059 16.0021L19.5 18.9687M20.6586 13C20.3194 12.0404 19.7431 11.1929 19 10.5278" stroke="#1F2937" stroke-width="2" stroke-linecap="round" stroke-linejoin="round"/>
</svg>
