<svg width="24" height="24" viewBox="0 0 24 24" fill="none" xmlns="http://www.w3.org/2000/svg">
<path d="M20 9V8.82843C20 8.29799 19.7893 7.78929 19.4142 7.41421L15.5858 3.58579C15.2107 3.21071 14.702 3 14.1716 3H14M20 9H16C14.8954 9 14 8.10457 14 7V3M20 9V12M14 3H6C4.89543 3 4 3.89543 4 5V19C4 20.1046 4.89543 21 6 21H8M18 18H13.5C12.6716 18 12 17.3284 12 16.5C12 15.6716 12.6716 15 13.5 15H18C19.6569 15 21 16.3431 21 18C21 19.6569 19.6569 21 18 21H12" stroke="#1F2937" stroke-width="2" stroke-linecap="round" stroke-linejoin="round"/>
</svg>
