<svg width="24" height="24" viewBox="0 0 24 24" fill="none" xmlns="http://www.w3.org/2000/svg">
<path d="M20 9V8.82843C20 8.29799 19.7893 7.78929 19.4142 7.41421L15.5858 3.58579C15.2107 3.21071 14.702 3 14.1716 3H14M20 9H16C14.8954 9 14 8.10457 14 7V3M20 9V10M14 3H6C4.89543 3 4 3.89543 4 5V19C4 20.1046 4.89543 21 6 21H10M15 14H19C19.5523 14 20 14.4477 20 15V21.3964C20 21.6192 19.7307 21.7307 19.5732 21.5732L17.7071 19.7071C17.3166 19.3166 16.6834 19.3166 16.2929 19.7071L14.4268 21.5732C14.2693 21.7307 14 21.6192 14 21.3964V15C14 14.4477 14.4477 14 15 14Z" stroke="#1F2937" stroke-width="2" stroke-linecap="round" stroke-linejoin="round"/>
</svg>
