<svg width="24" height="24" viewBox="0 0 24 24" fill="none" xmlns="http://www.w3.org/2000/svg">
<path d="M15 18V16M15 16H15.5C16.3284 16 17 15.3284 17 14.5V13.6492C17 13.2907 17.2907 13 17.6492 13C18.1936 13 18.4962 12.3703 18.1562 11.9452L17.2885 10.8607C17.1018 10.6272 17.007 10.3363 16.9769 10.0388C16.7469 7.7585 14.8131 6 12 6C9 6 7 8 7 10.5C7 11.4429 7.19756 12.9785 7.96525 13.9891C8.71284 14.9732 9.81504 16.1097 9.61187 17.3288L9.5 18M15 16H13.5M22 12C22 17.5228 17.5228 22 12 22C6.47715 22 2 17.5228 2 12C2 6.47715 6.47715 2 12 2C17.5228 2 22 6.47715 22 12Z" stroke="#1F2937" stroke-width="2" stroke-linecap="round" stroke-linejoin="round"/>
</svg>
