<svg width="24" height="24" viewBox="0 0 24 24" fill="none" xmlns="http://www.w3.org/2000/svg">
<path d="M15.0022 22.0047V18.0037M15.0022 18.0037H18.1745C18.7049 18.0037 19.2291 17.8027 19.5467 17.3779C21.5677 14.6751 20.0847 11.3928 19.0029 10.0019M15.0022 18.0037C12.6018 18.0037 13.0018 15.3365 13.0018 14.0028M19.0029 10.0019C19.0029 5.50082 17.4827 2 11.0015 2C4.52028 2 3 7.27396 3 10.0019M19.0029 10.0019C19.0029 12.4024 15.0022 13.6694 13.0018 14.0028M3 10.0019C3 11.7181 3.95616 14.6571 6.11683 16.5272C6.63567 16.9763 7.00073 17.6006 7.00073 18.2868V22.0047M3 10.0019C5.80051 14.0028 11.1682 14.3362 13.0018 14.0028" stroke="#1F2937" stroke-width="2" stroke-linecap="round" stroke-linejoin="round"/>
</svg>
