<svg width="24" height="24" viewBox="0 0 24 24" fill="none" xmlns="http://www.w3.org/2000/svg">
<path d="M3 16C4.40293 15.7662 6.63687 15.7073 8.94504 16.2427M8.94504 16.2427C11.5726 16.8522 14.2965 18.2317 16 21M8.94504 16.2427C10.8946 13.9852 14.5577 12 21 12M21.8 10C21.9311 10.6462 22 11.3151 22 12C22 17.5228 17.5228 22 12 22C6.47715 22 2 17.5228 2 12C2 7.52236 4.94289 3.73207 9 2.4578M17 5H17.0101M8.5 7C8 7 7 7.3 7 8.5C7 9.7 8 10 8.5 10C9 10 10 9.7 10 8.5C10 7.3 9 7 8.5 7ZM12.0626 4.78421C12.4906 4.0963 14.0378 2 17 2C19.9622 2 21.5094 4.0963 21.9374 4.78421C22.0209 4.9183 22.0209 5.0817 21.9374 5.21579C21.5094 5.9037 19.9622 8 17 8C14.0378 8 12.4906 5.9037 12.0626 5.21579C11.9791 5.0817 11.9791 4.9183 12.0626 4.78421Z" stroke="#1F2937" stroke-width="2" stroke-linecap="round" stroke-linejoin="round"/>
</svg>
