<svg width="24" height="24" viewBox="0 0 24 24" fill="none" xmlns="http://www.w3.org/2000/svg">
<path d="M3 16C4.40293 15.7662 6.63687 15.7073 8.94504 16.2427M8.94504 16.2427C11.5726 16.8522 14.2965 18.2317 16 21M8.94504 16.2427C10.8946 13.9852 14.5577 12 21 12H22C22 17.5228 17.5228 22 12 22C6.47715 22 2 17.5228 2 12C2 7.16208 5.43552 3.12658 10 2.20004M8.5 7C8 7 7 7.3 7 8.5C7 9.7 8 10 8.5 10C9 10 10 9.7 10 8.5C10 7.3 9 7 8.5 7ZM15.75 8C14.8333 8 13 7.45 13 5.25C13 3.05 14.8333 2.5 15.75 2.5C16 2 16.85 1 18.25 1C20 1 20.75 2.75 20.75 3.5C21.5 3.5 23 3.95 23 5.75C23 7.55 21.5 8 20.75 8H15.75Z" stroke="#1F2937" stroke-width="2" stroke-linecap="round" stroke-linejoin="round"/>
</svg>
