<svg width="24" height="24" viewBox="0 0 24 24" fill="none" xmlns="http://www.w3.org/2000/svg">
<path d="M3 16C4.40293 15.7662 6.63687 15.7073 8.94504 16.2427M8.94504 16.2427C11.5726 16.8521 14.2965 18.2317 16 21M8.94504 16.2427C10.8946 13.9851 14.5577 12 21 12H22M22 12C22 17.5228 17.5228 22 12 22C6.47715 22 2 17.5228 2 12C2 6.47712 6.47715 1.99997 12 1.99997C12.3375 1.99997 12.6711 2.01669 13 2.04935M22 12C22 11.315 21.9311 10.6462 21.8 9.99997M21 5.99997L22.2929 4.70708C22.6834 4.31655 22.6834 3.68339 22.2929 3.29286L20.7071 1.70708C20.3166 1.31655 19.6834 1.31655 19.2929 1.70708L18 2.99997M21 5.99997L18.2929 8.70708C18.1054 8.89461 17.851 8.99997 17.5858 8.99997H16C15.4477 8.99997 15 8.55226 15 7.99997V6.41419C15 6.14897 15.1054 5.89461 15.2929 5.70708L18 2.99997M21 5.99997L18 2.99997M8.5 6.99997C8 6.99997 7 7.29997 7 8.49997C7 9.69997 8 9.99997 8.5 9.99997C9 9.99997 10 9.69997 10 8.49997C10 7.29997 9 6.99997 8.5 6.99997Z" stroke="#1F2937" stroke-width="2" stroke-linecap="round" stroke-linejoin="round"/>
</svg>
