<svg width="24" height="24" viewBox="0 0 24 24" fill="none" xmlns="http://www.w3.org/2000/svg">
<path d="M3 16C4.40293 15.7662 6.63687 15.7073 8.94504 16.2427M8.94504 16.2427C11.5726 16.8522 14.2965 18.2317 16 21M8.94504 16.2427C10.8946 13.9852 14.5577 12 21 12H22M22 12C22 17.5228 17.5228 22 12 22C6.47715 22 2 17.5228 2 12C2 6.81465 5.94668 2.5511 11 2.04938M22 12C22 11.3151 21.9311 10.6462 21.8 10M8.5 7C8 7 7 7.3 7 8.5C7 9.7 8 10 8.5 10C9 10 10 9.7 10 8.5C10 7.3 9 7 8.5 7ZM18 9C19.3333 7.83333 22 5.2 22 4C22 3.33333 21.6 2 20 2C18.4 2 18 3.33333 18 4C18 3.33333 17.6 2 16 2C14.4 2 14 3.33333 14 4C14 5.2 16.6667 7.83333 18 9Z" stroke="#1F2937" stroke-width="2" stroke-linecap="round" stroke-linejoin="round"/>
</svg>
