<svg width="24" height="24" viewBox="0 0 24 24" fill="none" xmlns="http://www.w3.org/2000/svg">
<path d="M7 3H5C3.89543 3 3 3.89543 3 5V7M3 17V19C3 20.1046 3.89543 21 5 21H7M17 21H19C20.1046 21 21 20.1046 21 19V17M17 3H19C20.1046 3 21 3.89543 21 5V7M6.5 8C6.76359 9.18615 7.7984 11.3103 10 12.1472M10 12.1472C10.5825 12.3687 11.2468 12.5 12 12.5C12.7532 12.5 13.4175 12.3687 14 12.1472M10 12.1472V18H14V12.1472M14 12.1472C16.2016 11.3103 17.2364 9.18615 17.5 8M13.5 7.5C13.5 8.32843 12.8284 9 12 9C11.1716 9 10.5 8.32843 10.5 7.5C10.5 6.67157 11.1716 6 12 6C12.8284 6 13.5 6.67157 13.5 7.5Z" stroke="#1F2937" stroke-width="2" stroke-linecap="round" stroke-linejoin="round"/>
</svg>
