<svg width="24" height="24" viewBox="0 0 24 24" fill="none" xmlns="http://www.w3.org/2000/svg">
<path d="M5 21V19C5 16.7909 6.79086 15 9 15H11M20.8284 20.8284C21.5523 20.1046 22 19.1046 22 18C22 15.7909 20.2091 14 18 14C16.8954 14 15.8954 14.4477 15.1716 15.1716M20.8284 20.8284C20.1046 21.5523 19.1046 22 18 22C15.7909 22 14 20.2091 14 18C14 16.8954 14.4477 15.8954 15.1716 15.1716M20.8284 20.8284L15.1716 15.1716M16 7C16 9.20914 14.2091 11 12 11C9.79086 11 8 9.20914 8 7C8 4.79086 9.79086 3 12 3C14.2091 3 16 4.79086 16 7Z" stroke="#1F2937" stroke-width="2" stroke-linecap="round" stroke-linejoin="round"/>
</svg>
