<svg xmlns="http://www.w3.org/2000/svg" width="48" height="48" viewBox="0 0 48 48"><rect width="48" height="48" fill="none"/><path d="M0,0H2.28V2.28H0Z" transform="translate(45.72 16.005)"/><path d="M43.425,13.725v4.56h2.3v6.87H43.425v4.56h-2.28v-4.56h-2.28v-6.87H34.29V11.43H32v2.3H22.86V9.15H20.58v4.575h-2.3v2.28H13.71v-2.28H11.43v-2.3H9.15v9.15h-2.3v4.575H4.575v2.28H2.28V22.86H0V16.005H2.28v2.28H6.855v-2.28H4.575V11.43h2.28V4.575H4.575V2.3H9.15v2.28h2.28v2.28h2.28V11.43h2.3V9.15h2.28V4.575h2.3V2.3h2.28V0h4.575V4.575h-2.3V9.15h2.3v2.28h2.28V6.855H32V2.3h2.3v4.56h2.28v6.87h2.295v-2.3h2.28V9.15h2.28v-2.3H48v2.3H45.72v4.575Z"/><path d="M0,0H2.28V2.28H0Z" transform="translate(41.145 2.295)"/><path d="M0,0H2.28V2.28H0Z" transform="translate(38.865 4.575)"/><path d="M0,0H2.3V2.3H0Z" transform="translate(36.57)"/><path d="M0,0H2.28V4.575H0Z" transform="translate(34.29 36.57)"/><path d="M0,0H2.28V4.575H4.575V13.71H2.28V6.855H0Z" transform="translate(34.29 22.86)"/><path d="M0,0H2.3V2.3H0Z" transform="translate(31.995 41.145)"/><path d="M0,0H2.3V2.3H0Z" transform="translate(31.995 29.715)"/><path d="M0,0H2.3V2.28H0Z" transform="translate(31.995 20.58)"/><path d="M0,0H2.28V4.575H0Z" transform="translate(29.715 36.57)"/><path d="M0,0H2.28V2.28H0Z" transform="translate(29.715 27.435)"/><path d="M0,0H4.56V2.28H0Z" transform="translate(27.435 43.44)"/><path d="M0,0H2.28V2.28H0Z" transform="translate(27.435 34.29)"/><path d="M0,0H2.28V2.28H0Z" transform="translate(27.435 25.155)"/><path d="M0,0H4.56V2.3H0Z" transform="translate(27.435 18.285)"/><path d="M0,0H4.575V2.28H0Z" transform="translate(22.86 32.01)"/><path d="M0,0H2.3V4.575H0Z" transform="translate(25.14 20.58)"/><path d="M4.575,4.575H9.15v2.28H0V4.575H2.3V0h2.28Z" transform="translate(18.285 41.145)"/><path d="M0,0H2.28V4.575H0Z" transform="translate(22.86 36.57)"/><path d="M0,0H2.28V2.28H0Z" transform="translate(20.58 34.29)"/><path d="M0,0H2.3V4.56H0Z" transform="translate(18.285 25.155)"/><path d="M0,0H4.575V2.28H0Z" transform="translate(13.71 43.44)"/><path d="M0,0H2.28V2.3H0Z" transform="translate(16.005 29.715)"/><path d="M0,0H2.28V2.3H0Z" transform="translate(16.005 22.86)"/><path d="M4.575,2.28V0h9.15V2.28H6.87V6.855h-2.3V4.575H0V2.28Z" transform="translate(13.71 16.005)"/><path d="M0,0H2.3V2.28H0Z" transform="translate(13.71 32.01)"/><path d="M0,0H2.3V2.28H0Z" transform="translate(13.71 2.295)"/><path d="M0,0H2.28V2.3H0Z" transform="translate(11.43 41.145)"/><path d="M0,0H2.28V2.3H0Z" transform="translate(11.43 29.715)"/><path d="M0,0H2.28V2.28H0Z" transform="translate(11.43 20.58)"/><path d="M0,0H2.28V2.3H0Z" transform="translate(11.43)"/><path d="M0,0H2.28V4.575H0Z" transform="translate(9.15 36.57)"/><path d="M2.3,13.71H0V4.575H2.3V0h2.28V6.855H2.295Z" transform="translate(6.855 22.86)"/><path d="M0,0H2.3V2.3H0Z" transform="translate(2.28 6.855)"/><path d="M0,0H2.28V2.28H0Z" transform="translate(0 4.575)"/></svg>