<svg xmlns="http://www.w3.org/2000/svg" width="48" height="48" viewBox="0 0 48 48"><rect width="48" height="48" fill="none"/><path d="M0,0H2.28V11.43H0Z" transform="translate(38.858 11.415)"/><path d="M0,0H2.28V6.855H0Z" transform="translate(36.577 22.845)"/><path d="M0,0H2.28V4.56H0Z" transform="translate(36.577 6.855)"/><path d="M0,0H2.3V4.575H0Z" transform="translate(34.283 29.7)"/><path d="M0,0H2.3V2.3H0Z" transform="translate(34.283 4.56)"/><path d="M0,0H2.28V4.575H0Z" transform="translate(32.002 34.275)"/><path d="M18.285,6.855h2.28V13.71h-2.28v2.28H16v2.3h-2.3v2.28H6.855v-2.28H4.575v-2.3H2.28V13.71H0V6.855H2.28V4.56h2.3V2.28h2.28V0H13.71V2.28H11.43V4.56h2.28v2.3H16V11.43h2.28Z" transform="translate(13.718 6.855)"/><path d="M0,0H2.28V2.28H0Z" transform="translate(29.722 38.85)"/><path d="M0,0H2.28V2.3H0Z" transform="translate(29.722 11.415)"/><path d="M0,0H4.56V2.28H0Z" transform="translate(29.722 2.28)"/><path d="M0,0H2.3V2.3H0Z" transform="translate(27.427 41.13)"/><path d="M0,0H2.3V2.28H0Z" transform="translate(27.427 9.135)"/><path d="M0,0H2.28V2.28H0Z" transform="translate(25.147 43.425)"/><path d="M0,0H2.3V2.3H0Z" transform="translate(22.852 45.705)"/><path d="M0,0H2.28V2.28H0Z" transform="translate(20.573 43.425)"/><path d="M0,0H11.43V2.28H0Z" transform="translate(18.292)"/><path d="M0,0H2.28V2.3H0Z" transform="translate(18.292 41.13)"/><path d="M0,0H2.3V2.28H0Z" transform="translate(15.997 38.85)"/><path d="M0,0H4.575V2.28H0Z" transform="translate(13.718 2.28)"/><path d="M0,0H2.28V4.575H0Z" transform="translate(13.718 34.275)"/><path d="M0,0H2.3V4.575H0Z" transform="translate(11.422 29.7)"/><path d="M0,0H2.3V2.3H0Z" transform="translate(11.422 4.56)"/><path d="M0,0H2.28V6.855H0Z" transform="translate(9.142 22.845)"/><path d="M0,0H2.28V4.56H0Z" transform="translate(9.142 6.855)"/><path d="M0,0H2.28V11.43H0Z" transform="translate(6.862 11.415)"/></svg>