<svg xmlns="http://www.w3.org/2000/svg" width="48" height="48" viewBox="0 0 48 48"><rect width="48" height="48" fill="none"/><path d="M0,0H2.3V4.56H0Z" transform="translate(42.278 11.438)"/><path d="M0,0H2.28V2.3H0Z" transform="translate(39.998 9.142)"/><path d="M0,0H2.3V2.28H0Z" transform="translate(37.702 6.862)"/><path d="M2.28,29.715H0V25.14H2.28V22.86H6.855V0h2.28V2.28h2.28V4.575H9.135v25.14H6.855v2.28H2.28Z" transform="translate(26.287 2.287)"/><path d="M0,0H2.3V4.575H0Z" transform="translate(19.417 22.852)"/><path d="M0,0H2.28V2.28H0Z" transform="translate(17.138 20.573)"/><path d="M0,0H2.28V2.28H0Z" transform="translate(14.858 18.292)"/><path d="M2.28,29.715H0V25.14H2.28V22.86H6.855V0h2.28V2.28h2.3V4.575h-2.3v25.14H6.855v2.28H2.28Z" transform="translate(3.428 13.718)"/></svg>