<svg xmlns="http://www.w3.org/2000/svg" width="48" height="48" viewBox="0 0 48 48"><rect width="48" height="48" fill="none"/><path d="M45.72,0H48V11.43H0V9.15H2.3v-2.3h2.28v2.3H9.15v-2.3h2.28v2.3H45.72Z" transform="translate(0 36.57)"/><path d="M0,0H4.56V4.575H0Z" transform="translate(38.865 38.85)"/><path d="M0,0H9.15V2.28H0Z" transform="translate(36.57 34.29)"/><path d="M0,0H2.28V4.575H0Z" transform="translate(38.865 6.855)"/><path d="M0,0H2.28V2.28H0Z" transform="translate(34.29 41.145)"/><path d="M0,0H2.28V2.28H0Z" transform="translate(34.29 36.57)"/><path d="M0,0H4.575V2.28H0Z" transform="translate(34.29 11.43)"/><path d="M0,0H4.575V2.28H0Z" transform="translate(34.29 4.575)"/><path d="M0,0H2.28V2.28H0Z" transform="translate(32.01 34.29)"/><path d="M0,0H2.3V2.28H0Z" transform="translate(29.715 41.145)"/><path d="M4.575,2.28H9.15V4.575H4.575v2.28H0V4.575H2.3V0h2.28Z" transform="translate(25.14 11.43)"/><path d="M0,0H4.575V2.3H0Z" transform="translate(29.715 2.28)"/><path d="M0,0H2.28V2.28H0Z" transform="translate(27.435 36.57)"/><path d="M0,0H2.3V4.575H0Z" transform="translate(25.14 6.855)"/><path d="M0,0H4.56V4.575H0Z" transform="translate(20.58 38.85)"/><path d="M0,4.575V2.28H4.56V0h2.3V2.28H11.43v2.3Z" transform="translate(20.58 29.715)"/><path d="M0,0H2.28V4.575H0Z" transform="translate(22.86 25.14)"/><path d="M0,0H4.56V2.28H0Z" transform="translate(20.58 4.575)"/><path d="M6.855,2.28V6.855H4.575V4.575H0V2.28H4.575V0h4.56V2.28Z" transform="translate(16.005 18.285)"/><path d="M0,0H4.575V2.28H0Z" transform="translate(16.005 34.29)"/><path d="M0,0H2.28V2.28H0Z" transform="translate(16.005 41.145)"/><path d="M0,0H2.3V2.28H0Z" transform="translate(13.71 36.57)"/><path d="M2.28,4.575H4.575v2.28H0V0H2.28Z" transform="translate(11.43 18.285)"/><path d="M0,0H6.855V2.3H0Z" transform="translate(6.855 38.85)"/><path d="M0,0H2.28V6.855H0Z" transform="translate(9.15 11.43)"/><path d="M4.575,6.855H0V4.575H4.575V2.28H9.15V0H22.86V2.28H13.725v2.3H6.855V11.43H4.575Z" transform="translate(6.855)"/><path d="M0,0H4.575V2.28H0Z" transform="translate(6.855 25.14)"/><path d="M0,0H2.28V2.28H0Z" transform="translate(4.575 41.145)"/><path d="M0,0H2.28V4.575H0Z" transform="translate(4.575 6.855)"/><path d="M0,0H4.56V2.3H0Z" transform="translate(2.295 27.42)"/><path d="M0,0H2.28V6.855H0Z" transform="translate(2.295 11.43)"/><path d="M0,0H2.3V9.135H0Z" transform="translate(0 18.285)"/></svg>