<svg width="24" height="24" viewBox="0 0 24 24" fill="none" xmlns="http://www.w3.org/2000/svg">
<path d="M16 4H8C5.79086 4 4 5.79086 4 8V13H6C7.10457 13 8 13.8954 8 15V18C8 19.1046 7.10457 20 6 20C4.89543 20 4 19.1046 4 18V13V8C4 5.79086 5.79086 4 8 4H16C18.2091 4 20 5.79086 20 8V13V18C20 19.1046 19.1046 20 18 20C16.8954 20 16 19.1046 16 18V15C16 13.8954 16.8954 13 18 13H20V8C20 5.79086 18.2091 4 16 4Z" fill="#D9D9D9"/>
<path d="M4 13V18C4 19.1046 4.89543 20 6 20C7.10457 20 8 19.1046 8 18V15C8 13.8954 7.10457 13 6 13H4ZM4 13V8C4 5.79086 5.79086 4 8 4H16C18.2091 4 20 5.79086 20 8V13M20 13V18C20 19.1046 19.1046 20 18 20C16.8954 20 16 19.1046 16 18V15C16 13.8954 16.8954 13 18 13H20Z" stroke="black" stroke-linecap="round" stroke-linejoin="round"/>
</svg>
