<svg width="24" height="24" viewBox="0 0 24 24" fill="none" xmlns="http://www.w3.org/2000/svg">
<path d="M5 5C3.89543 5 3 5.89543 3 7V17C3 18.1046 3.89543 19 5 19H19L14.8284 14.8284C14.1046 15.5523 13.1046 16 12 16C9.79086 16 8 14.2091 8 12C8 10.8954 8.44771 9.89543 9.17157 9.17157L5 5Z" fill="#D9D9D9"/>
<path d="M9.82843 3C9.29799 3 8.78929 3.21071 8.41421 3.58579L7.58579 4.41421C7.21071 4.78929 6.70201 5 6.17157 5H5L9.17157 9.17157C9.89543 8.44771 10.8954 8 12 8C14.2091 8 16 9.79086 16 12C16 13.1046 15.5523 14.1046 14.8284 14.8284L19 19C20.1046 19 21 18.1046 21 17V7C21 5.89543 20.1046 5 19 5H17.8284C17.298 5 16.7893 4.78929 16.4142 4.41421L15.5858 3.58579C15.2107 3.21071 14.702 3 14.1716 3H9.82843Z" fill="#D9D9D9"/>
<path d="M4 4L5 5M20 20L19 19M19 19H5C3.89543 19 3 18.1046 3 17V7C3 5.89543 3.89543 5 5 5M19 19L14.8284 14.8284M19 19C20.1046 19 21 18.1046 21 17V7C21 5.89543 20.1046 5 19 5H17.8284C17.298 5 16.7893 4.78929 16.4142 4.41421L15.5858 3.58579C15.2107 3.21071 14.702 3 14.1716 3H9.82843C9.29799 3 8.78929 3.21071 8.41421 3.58579L7.58579 4.41421C7.21071 4.78929 6.70201 5 6.17157 5H5M14.8284 14.8284C14.1046 15.5523 13.1046 16 12 16C9.79086 16 8 14.2091 8 12C8 10.8954 8.44771 9.89543 9.17157 9.17157M14.8284 14.8284C15.5523 14.1046 16 13.1046 16 12C16 9.79086 14.2091 8 12 8C10.8954 8 9.89543 8.44772 9.17157 9.17157M14.8284 14.8284L9.17157 9.17157M9.17157 9.17157L5 5" stroke="black" stroke-linecap="round" stroke-linejoin="round"/>
</svg>
