<svg width="1560" height="494" viewBox="0 0 1560 494" fill="none" xmlns="http://www.w3.org/2000/svg">
<g filter="url(#filter0_dd_1217_5177)">
<rect x="40.75" y="20.75" width="1478" height="412" rx="40" fill="white"/>
<rect x="40.75" y="20.75" width="1478" height="412" rx="40" stroke="#EBEFF6" stroke-width="1.5"/>
<path d="M123.405 137.75V107.205H135.635C137.882 107.205 139.756 107.538 141.258 108.204C142.759 108.87 143.888 109.795 144.643 110.978C145.399 112.151 145.777 113.504 145.777 115.035C145.777 116.228 145.538 117.277 145.061 118.182C144.584 119.077 143.928 119.812 143.092 120.389C142.267 120.956 141.322 121.359 140.259 121.597V121.896C141.422 121.945 142.511 122.273 143.525 122.88C144.549 123.487 145.379 124.337 146.016 125.43C146.652 126.514 146.97 127.807 146.97 129.308C146.97 130.929 146.567 132.376 145.762 133.648C144.967 134.911 143.788 135.911 142.227 136.646C140.666 137.382 138.742 137.75 136.455 137.75H123.405ZM129.863 132.47H135.128C136.928 132.47 138.24 132.127 139.065 131.441C139.891 130.745 140.303 129.82 140.303 128.667C140.303 127.822 140.099 127.076 139.692 126.43C139.284 125.783 138.702 125.276 137.947 124.908C137.201 124.54 136.311 124.357 135.277 124.357H129.863V132.47ZM129.863 119.987H134.651C135.536 119.987 136.321 119.832 137.007 119.524C137.703 119.206 138.25 118.759 138.648 118.182C139.055 117.605 139.259 116.914 139.259 116.109C139.259 115.005 138.866 114.115 138.081 113.439C137.305 112.763 136.202 112.425 134.77 112.425H129.863V119.987ZM151.053 137.75V114.841H157.407V137.75H151.053ZM154.245 111.888C153.3 111.888 152.49 111.575 151.814 110.948C151.148 110.312 150.814 109.551 150.814 108.666C150.814 107.791 151.148 107.04 151.814 106.414C152.49 105.778 153.3 105.46 154.245 105.46C155.189 105.46 155.995 105.778 156.661 106.414C157.337 107.04 157.675 107.791 157.675 108.666C157.675 109.551 157.337 110.312 156.661 110.948C155.995 111.575 155.189 111.888 154.245 111.888ZM168.85 124.506V137.75H162.496V114.841H168.552V118.883H168.82C169.327 117.55 170.178 116.496 171.371 115.721C172.564 114.935 174.011 114.543 175.711 114.543C177.302 114.543 178.689 114.891 179.872 115.587C181.055 116.283 181.975 117.277 182.631 118.57C183.288 119.852 183.616 121.384 183.616 123.163V137.75H177.262V124.297C177.272 122.895 176.914 121.801 176.188 121.016C175.462 120.22 174.463 119.822 173.19 119.822C172.335 119.822 171.58 120.006 170.923 120.374C170.277 120.742 169.77 121.279 169.402 121.985C169.044 122.681 168.86 123.521 168.85 124.506ZM195.156 138.183C193.694 138.183 192.392 137.929 191.248 137.422C190.105 136.905 189.2 136.144 188.534 135.14C187.878 134.126 187.55 132.863 187.55 131.352C187.55 130.079 187.783 129.01 188.251 128.145C188.718 127.28 189.354 126.584 190.16 126.057C190.965 125.53 191.88 125.132 192.904 124.864C193.938 124.595 195.022 124.406 196.155 124.297C197.488 124.158 198.562 124.028 199.377 123.909C200.192 123.78 200.784 123.591 201.152 123.342C201.52 123.094 201.704 122.726 201.704 122.239V122.149C201.704 121.205 201.405 120.474 200.809 119.957C200.222 119.44 199.387 119.181 198.303 119.181C197.16 119.181 196.25 119.435 195.574 119.942C194.898 120.439 194.45 121.065 194.231 121.821L188.355 121.344C188.653 119.952 189.24 118.749 190.115 117.734C190.99 116.71 192.118 115.925 193.501 115.378C194.893 114.821 196.503 114.543 198.333 114.543C199.606 114.543 200.824 114.692 201.987 114.99C203.16 115.288 204.199 115.751 205.104 116.377C206.019 117.004 206.74 117.809 207.267 118.793C207.794 119.768 208.057 120.936 208.057 122.298V137.75H202.032V134.573H201.853C201.485 135.289 200.993 135.92 200.376 136.467C199.76 137.004 199.019 137.427 198.154 137.735C197.289 138.033 196.29 138.183 195.156 138.183ZM196.976 133.798C197.91 133.798 198.736 133.614 199.452 133.246C200.167 132.868 200.729 132.361 201.137 131.724C201.545 131.088 201.748 130.367 201.748 129.562V127.131C201.55 127.26 201.276 127.379 200.928 127.489C200.59 127.588 200.207 127.683 199.78 127.772C199.352 127.852 198.925 127.926 198.497 127.996C198.069 128.055 197.682 128.11 197.334 128.16C196.588 128.269 195.937 128.443 195.38 128.682C194.823 128.92 194.39 129.244 194.082 129.651C193.774 130.049 193.62 130.546 193.62 131.143C193.62 132.008 193.933 132.669 194.559 133.126C195.196 133.574 196.001 133.798 196.976 133.798ZM219.34 124.506V137.75H212.987V114.841H219.042V118.883H219.311C219.818 117.55 220.668 116.496 221.861 115.721C223.054 114.935 224.501 114.543 226.201 114.543C227.792 114.543 229.179 114.891 230.362 115.587C231.546 116.283 232.465 117.277 233.122 118.57C233.778 119.852 234.106 121.384 234.106 123.163V137.75H227.752V124.297C227.762 122.895 227.404 121.801 226.678 121.016C225.953 120.22 224.953 119.822 223.681 119.822C222.825 119.822 222.07 120.006 221.414 120.374C220.767 120.742 220.26 121.279 219.892 121.985C219.534 122.681 219.35 123.521 219.34 124.506ZM249.464 138.197C247.118 138.197 245.099 137.7 243.409 136.706C241.729 135.702 240.436 134.31 239.531 132.53C238.636 130.75 238.189 128.702 238.189 126.385C238.189 124.038 238.641 121.98 239.546 120.21C240.461 118.43 241.759 117.043 243.439 116.049C245.119 115.045 247.118 114.543 249.435 114.543C251.433 114.543 253.183 114.906 254.685 115.631C256.186 116.357 257.374 117.376 258.249 118.689C259.124 120.001 259.607 121.543 259.696 123.312H253.7C253.531 122.169 253.084 121.249 252.358 120.553C251.642 119.847 250.702 119.494 249.539 119.494C248.555 119.494 247.695 119.763 246.959 120.3C246.233 120.827 245.666 121.597 245.259 122.612C244.851 123.626 244.647 124.854 244.647 126.295C244.647 127.757 244.846 129 245.244 130.024C245.651 131.048 246.223 131.829 246.959 132.366C247.695 132.903 248.555 133.171 249.539 133.171C250.265 133.171 250.916 133.022 251.493 132.724C252.08 132.425 252.562 131.993 252.94 131.426C253.327 130.849 253.581 130.158 253.7 129.353H259.696C259.597 131.103 259.119 132.644 258.264 133.977C257.419 135.299 256.251 136.333 254.759 137.079C253.268 137.825 251.503 138.197 249.464 138.197ZM274.204 138.197C271.848 138.197 269.819 137.72 268.119 136.766C266.429 135.801 265.126 134.439 264.211 132.679C263.297 130.909 262.839 128.816 262.839 126.4C262.839 124.043 263.297 121.975 264.211 120.195C265.126 118.415 266.414 117.028 268.074 116.034C269.745 115.04 271.704 114.543 273.951 114.543C275.462 114.543 276.869 114.786 278.172 115.273C279.484 115.751 280.628 116.472 281.602 117.436C282.586 118.401 283.352 119.614 283.899 121.075C284.446 122.527 284.719 124.227 284.719 126.176V127.921H265.375V123.984H278.738C278.738 123.069 278.54 122.259 278.142 121.553C277.744 120.847 277.192 120.295 276.486 119.897C275.79 119.489 274.98 119.286 274.055 119.286C273.091 119.286 272.236 119.509 271.49 119.957C270.754 120.394 270.177 120.986 269.76 121.732C269.342 122.467 269.128 123.288 269.118 124.192V127.936C269.118 129.07 269.327 130.049 269.745 130.874C270.172 131.7 270.774 132.336 271.55 132.783C272.325 133.231 273.245 133.455 274.309 133.455C275.015 133.455 275.661 133.355 276.248 133.156C276.834 132.957 277.336 132.659 277.754 132.261C278.172 131.864 278.49 131.376 278.709 130.8L284.585 131.188C284.287 132.599 283.675 133.832 282.751 134.886C281.836 135.93 280.653 136.746 279.201 137.332C277.759 137.909 276.094 138.197 274.204 138.197ZM317.573 107.205H324.031V127.041C324.031 129.268 323.499 131.217 322.435 132.888C321.381 134.558 319.904 135.861 318.005 136.795C316.106 137.72 313.894 138.183 311.368 138.183C308.833 138.183 306.615 137.72 304.716 136.795C302.817 135.861 301.341 134.558 300.287 132.888C299.233 131.217 298.706 129.268 298.706 127.041V107.205H305.164V126.489C305.164 127.653 305.417 128.687 305.924 129.592C306.441 130.496 307.167 131.207 308.102 131.724C309.037 132.241 310.125 132.5 311.368 132.5C312.621 132.5 313.71 132.241 314.635 131.724C315.569 131.207 316.29 130.496 316.797 129.592C317.314 128.687 317.573 127.653 317.573 126.489V107.205ZM345.915 115.989C345.795 114.786 345.283 113.852 344.378 113.185C343.474 112.519 342.246 112.186 340.694 112.186C339.64 112.186 338.751 112.335 338.025 112.634C337.299 112.922 336.742 113.325 336.354 113.842C335.976 114.359 335.787 114.945 335.787 115.602C335.768 116.148 335.882 116.626 336.131 117.033C336.389 117.441 336.742 117.794 337.189 118.092C337.637 118.381 338.154 118.634 338.741 118.853C339.327 119.062 339.954 119.241 340.62 119.39L343.364 120.046C344.697 120.344 345.92 120.742 347.033 121.239C348.147 121.737 349.111 122.348 349.927 123.074C350.742 123.8 351.373 124.655 351.821 125.639C352.278 126.624 352.512 127.752 352.522 129.025C352.512 130.894 352.035 132.515 351.09 133.887C350.155 135.249 348.803 136.308 347.033 137.064C345.273 137.81 343.15 138.183 340.665 138.183C338.199 138.183 336.051 137.805 334.221 137.049C332.402 136.293 330.98 135.175 329.956 133.693C328.942 132.202 328.41 130.357 328.36 128.16H334.609C334.679 129.184 334.972 130.039 335.489 130.725C336.016 131.401 336.717 131.913 337.592 132.261C338.477 132.599 339.476 132.768 340.59 132.768C341.684 132.768 342.633 132.609 343.439 132.291C344.254 131.973 344.885 131.531 345.333 130.964C345.78 130.397 346.004 129.746 346.004 129.01C346.004 128.324 345.8 127.747 345.393 127.28C344.995 126.812 344.408 126.415 343.633 126.087C342.867 125.759 341.927 125.46 340.814 125.192L337.488 124.357C334.912 123.73 332.879 122.751 331.388 121.418C329.896 120.086 329.155 118.291 329.165 116.034C329.155 114.185 329.648 112.569 330.642 111.187C331.646 109.805 333.023 108.726 334.773 107.95C336.523 107.175 338.512 106.787 340.739 106.787C343.006 106.787 344.985 107.175 346.675 107.95C348.376 108.726 349.698 109.805 350.643 111.187C351.587 112.569 352.074 114.17 352.104 115.989H345.915ZM367.694 137.75H356.866V107.205H367.783C370.856 107.205 373.501 107.816 375.718 109.039C377.935 110.252 379.641 111.997 380.834 114.274C382.037 116.551 382.638 119.276 382.638 122.447C382.638 125.629 382.037 128.364 380.834 130.651C379.641 132.937 377.925 134.692 375.688 135.915C373.461 137.138 370.796 137.75 367.694 137.75ZM363.324 132.217H367.425C369.335 132.217 370.94 131.879 372.243 131.202C373.555 130.516 374.54 129.457 375.196 128.026C375.862 126.584 376.195 124.724 376.195 122.447C376.195 120.19 375.862 118.346 375.196 116.914C374.54 115.482 373.56 114.428 372.258 113.752C370.955 113.076 369.349 112.738 367.44 112.738H363.324V132.217Z" fill="#19213D"/>
<g filter="url(#filter1_dd_1217_5177)">
<rect x="486.75" y="213.75" width="208" height="134" rx="24" fill="white"/>
<rect x="486.25" y="213.25" width="209" height="135" rx="24.5" stroke="#D6DCE5"/>
<path d="M629.561 290.404C624.223 311.819 602.533 324.897 581.078 319.556C559.663 314.202 546.607 292.512 551.944 271.096C557.282 249.681 578.959 236.603 600.362 241.944C621.829 247.22 634.885 268.975 629.561 290.404Z" fill="#F0B90B"/>
<path d="M597.09 261.788L590.915 255.463L575.364 271.163L581.54 277.338L597.09 261.788Z" fill="white"/>
<path d="M606.465 271.163L600.29 264.838L575.364 289.913L581.54 296.088L606.465 271.163Z" fill="white"/>
<path d="M572.165 274.213L578.34 280.538L572.165 286.713L565.989 280.538L572.165 274.213Z" fill="white"/>
<path d="M615.84 280.538L609.665 274.213L584.739 299.288L590.915 305.463L615.84 280.538Z" fill="white"/>
</g>
<g filter="url(#filter2_dd_1217_5177)">
<rect x="120.25" y="213.25" width="327" height="135" rx="24.5" stroke="#D6DCE5"/>
<path d="M254.191 297.85V264.641H268.376C270.689 264.641 272.597 265.041 274.1 265.841C275.603 266.63 276.722 267.694 277.457 269.035C278.192 270.365 278.559 271.84 278.559 273.462C278.559 274.889 278.305 276.067 277.797 276.997C277.3 277.926 276.64 278.662 275.819 279.202C275.008 279.743 274.127 280.143 273.176 280.402V280.726C274.192 280.791 275.213 281.148 276.24 281.797C277.267 282.445 278.127 283.375 278.819 284.586C279.511 285.796 279.857 287.277 279.857 289.029C279.857 290.694 279.478 292.191 278.721 293.52C277.965 294.85 276.77 295.904 275.138 296.682C273.505 297.461 271.381 297.85 268.765 297.85H254.191ZM258.213 294.283H268.765C271.392 294.283 273.257 293.774 274.359 292.758C275.473 291.731 276.03 290.488 276.03 289.029C276.03 287.904 275.743 286.867 275.17 285.915C274.597 284.953 273.781 284.186 272.722 283.613C271.662 283.029 270.408 282.737 268.96 282.737H258.213V294.283ZM258.213 279.235H268.246C269.457 279.235 270.549 278.997 271.522 278.521C272.505 278.045 273.284 277.375 273.857 276.51C274.441 275.646 274.732 274.629 274.732 273.462C274.732 272.002 274.224 270.765 273.208 269.748C272.192 268.721 270.581 268.208 268.376 268.208H258.213V279.235Z" fill="#000008"/>
<path d="M306.684 264.641H313.705V286.207C313.705 288.629 313.127 290.748 311.97 292.564C310.824 294.38 309.219 295.796 307.154 296.812C305.089 297.818 302.684 298.32 299.938 298.32C297.181 298.32 294.771 297.818 292.706 296.812C290.641 295.796 289.036 294.38 287.89 292.564C286.744 290.748 286.171 288.629 286.171 286.207V264.641H293.192V285.607C293.192 286.872 293.468 287.996 294.019 288.98C294.581 289.964 295.371 290.737 296.387 291.299C297.403 291.861 298.587 292.142 299.938 292.142C301.3 292.142 302.484 291.861 303.489 291.299C304.505 290.737 305.289 289.964 305.84 288.98C306.403 287.996 306.684 286.872 306.684 285.607V264.641Z" fill="#000008"/>
<path d="M337.546 274.192C337.416 272.883 336.859 271.867 335.876 271.143C334.892 270.419 333.557 270.057 331.87 270.057C330.724 270.057 329.757 270.219 328.968 270.543C328.179 270.857 327.573 271.294 327.152 271.856C326.741 272.419 326.535 273.056 326.535 273.77C326.514 274.364 326.638 274.883 326.908 275.327C327.19 275.77 327.573 276.154 328.06 276.478C328.546 276.791 329.108 277.067 329.746 277.305C330.384 277.532 331.065 277.727 331.789 277.889L334.773 278.602C336.222 278.926 337.551 279.359 338.762 279.899C339.973 280.44 341.021 281.105 341.908 281.894C342.794 282.683 343.481 283.613 343.967 284.683C344.464 285.753 344.718 286.98 344.729 288.364C344.718 290.396 344.2 292.158 343.173 293.65C342.156 295.131 340.686 296.282 338.762 297.104C336.849 297.915 334.541 298.32 331.838 298.32C329.157 298.32 326.822 297.909 324.833 297.088C322.855 296.266 321.309 295.05 320.195 293.439C319.093 291.818 318.514 289.812 318.46 287.423H325.254C325.33 288.537 325.649 289.467 326.211 290.212C326.784 290.948 327.546 291.504 328.498 291.883C329.46 292.25 330.546 292.434 331.757 292.434C332.946 292.434 333.978 292.261 334.854 291.915C335.74 291.569 336.427 291.088 336.913 290.472C337.4 289.856 337.643 289.148 337.643 288.348C337.643 287.602 337.421 286.975 336.978 286.467C336.546 285.959 335.908 285.526 335.065 285.169C334.232 284.813 333.211 284.488 332 284.197L328.384 283.288C325.584 282.607 323.373 281.543 321.752 280.094C320.13 278.645 319.325 276.694 319.336 274.24C319.325 272.229 319.86 270.473 320.941 268.97C322.033 267.467 323.53 266.295 325.433 265.451C327.335 264.608 329.498 264.187 331.919 264.187C334.384 264.187 336.535 264.608 338.373 265.451C340.221 266.295 341.659 267.467 342.686 268.97C343.713 270.473 344.243 272.213 344.275 274.192H337.546Z" fill="#000008"/>
<path d="M361.703 297.85H349.931V264.641H361.801C365.141 264.641 368.931 265.305 371.342 266.635C373.752 267.954 375.606 269.851 376.903 272.327C378.212 274.802 378.866 277.764 378.866 281.213C378.866 284.672 378.212 287.645 376.903 290.131C375.606 292.618 373.741 294.526 371.309 295.855C368.888 297.185 365.076 297.85 361.703 297.85ZM356.952 291.834H361.412C363.487 291.834 366.147 291.466 367.563 290.731C368.99 289.985 370.061 288.834 370.774 287.277C371.498 285.71 371.86 283.688 371.86 281.213C371.86 278.759 371.498 276.754 370.774 275.197C370.061 273.64 368.996 272.494 367.58 271.759C366.163 271.024 363.503 270.657 361.428 270.657H356.952V291.834Z" fill="#000008"/>
<path d="M220.666 261.443L214.13 254.75L197.672 271.365L204.208 277.901L220.666 261.443Z" fill="#F0B90B"/>
<path d="M230.588 271.365L224.052 264.672L197.672 291.21L204.208 297.746L230.588 271.365Z" fill="#F0B90B"/>
<path d="M194.286 274.594L200.822 281.288L194.286 287.823L187.75 281.288L194.286 274.594Z" fill="#F0B90B"/>
<path d="M240.51 281.288L233.974 274.594L207.594 301.132L214.13 307.668L240.51 281.288Z" fill="#F0B90B"/>
</g>
<g filter="url(#filter3_dd_1217_5177)">
<rect x="734.75" y="213.75" width="208" height="134" rx="24" fill="#F0B90B"/>
<rect x="734.25" y="213.25" width="209" height="135" rx="24.5" stroke="#D6DCE5"/>
<path d="M876.561 291.404C871.223 312.819 849.533 325.897 828.078 320.556C806.663 315.202 793.607 293.512 798.944 272.096C804.282 250.681 825.959 237.603 847.362 242.944C868.829 248.22 881.885 269.975 876.561 291.404Z" fill="white"/>
<path d="M844.09 262.788L837.915 256.463L822.364 272.163L828.54 278.338L844.09 262.788Z" fill="#F0B90B"/>
<path d="M853.465 272.163L847.29 265.838L822.364 290.913L828.54 297.088L853.465 272.163Z" fill="#F0B90B"/>
<path d="M819.165 275.213L825.34 281.538L819.165 287.713L812.989 281.538L819.165 275.213Z" fill="#F0B90B"/>
<path d="M862.84 281.538L856.665 275.213L831.739 300.288L837.915 306.463L862.84 281.538Z" fill="#F0B90B"/>
</g>
<g filter="url(#filter4_dd_1217_5177)">
<rect x="982.75" y="213.75" width="208" height="134" rx="24" fill="#FDF8E7"/>
<rect x="982.25" y="213.25" width="209" height="135" rx="24.5" stroke="#D6DCE5"/>
<path d="M1124.56 291.404C1119.22 312.819 1097.53 325.897 1076.08 320.556C1054.66 315.202 1041.61 293.512 1046.94 272.096C1052.28 250.681 1073.96 237.603 1095.36 242.944C1116.83 248.22 1129.89 269.975 1124.56 291.404Z" fill="#F0B90B"/>
<path d="M1092.09 262.788L1085.91 256.463L1070.36 272.163L1076.54 278.338L1092.09 262.788Z" fill="white"/>
<path d="M1101.47 272.163L1095.29 265.838L1070.36 290.913L1076.54 297.088L1101.47 272.163Z" fill="white"/>
<path d="M1067.16 275.213L1073.34 281.538L1067.16 287.713L1060.99 281.538L1067.16 275.213Z" fill="white"/>
<path d="M1110.84 281.538L1104.66 275.213L1079.74 300.288L1085.91 306.463L1110.84 281.538Z" fill="white"/>
</g>
<g filter="url(#filter5_dd_1217_5177)">
<rect x="1230.75" y="213.75" width="208" height="134" rx="24" fill="#393652"/>
<rect x="1230.25" y="213.25" width="209" height="135" rx="24.5" stroke="#D6DCE5"/>
<path d="M1372.56 291.404C1367.22 312.819 1345.53 325.897 1324.08 320.556C1302.66 315.202 1289.61 293.512 1294.94 272.096C1300.28 250.681 1321.96 237.603 1343.36 242.944C1364.83 248.22 1377.89 269.975 1372.56 291.404Z" fill="white"/>
<path d="M1340.09 262.788L1333.91 256.463L1318.36 272.163L1324.54 278.338L1340.09 262.788Z" fill="#393652"/>
<path d="M1349.47 272.163L1343.29 265.838L1318.36 290.913L1324.54 297.088L1349.47 272.163Z" fill="#393652"/>
<path d="M1315.16 275.213L1321.34 281.538L1315.16 287.713L1308.99 281.538L1315.16 275.213Z" fill="#393652"/>
<path d="M1358.84 281.538L1352.66 275.213L1327.74 300.288L1333.91 306.463L1358.84 281.538Z" fill="#393652"/>
</g>
</g>
<defs>
<filter id="filter0_dd_1217_5177" x="0" y="0" width="1559.5" height="493.5" filterUnits="userSpaceOnUse" color-interpolation-filters="sRGB">
<feFlood flood-opacity="0" result="BackgroundImageFix"/>
<feColorMatrix in="SourceAlpha" type="matrix" values="0 0 0 0 0 0 0 0 0 0 0 0 0 0 0 0 0 0 127 0" result="hardAlpha"/>
<feOffset dy="20"/>
<feGaussianBlur stdDeviation="20"/>
<feColorMatrix type="matrix" values="0 0 0 0 0.717647 0 0 0 0 0.717647 0 0 0 0 0.717647 0 0 0 0.06 0"/>
<feBlend mode="normal" in2="BackgroundImageFix" result="effect1_dropShadow_1217_5177"/>
<feColorMatrix in="SourceAlpha" type="matrix" values="0 0 0 0 0 0 0 0 0 0 0 0 0 0 0 0 0 0 127 0" result="hardAlpha"/>
<feOffset dy="4"/>
<feGaussianBlur stdDeviation="7"/>
<feColorMatrix type="matrix" values="0 0 0 0 0.716667 0 0 0 0 0.716667 0 0 0 0 0.716667 0 0 0 0.02 0"/>
<feBlend mode="normal" in2="effect1_dropShadow_1217_5177" result="effect2_dropShadow_1217_5177"/>
<feBlend mode="normal" in="SourceGraphic" in2="effect2_dropShadow_1217_5177" result="shape"/>
</filter>
<filter id="filter1_dd_1217_5177" x="445.75" y="192.75" width="290" height="216" filterUnits="userSpaceOnUse" color-interpolation-filters="sRGB">
<feFlood flood-opacity="0" result="BackgroundImageFix"/>
<feColorMatrix in="SourceAlpha" type="matrix" values="0 0 0 0 0 0 0 0 0 0 0 0 0 0 0 0 0 0 127 0" result="hardAlpha"/>
<feOffset dy="2"/>
<feGaussianBlur stdDeviation="10"/>
<feColorMatrix type="matrix" values="0 0 0 0 0.717647 0 0 0 0 0.717647 0 0 0 0 0.717647 0 0 0 0.08 0"/>
<feBlend mode="normal" in2="BackgroundImageFix" result="effect1_dropShadow_1217_5177"/>
<feColorMatrix in="SourceAlpha" type="matrix" values="0 0 0 0 0 0 0 0 0 0 0 0 0 0 0 0 0 0 127 0" result="hardAlpha"/>
<feOffset dy="20"/>
<feGaussianBlur stdDeviation="20"/>
<feColorMatrix type="matrix" values="0 0 0 0 0.717647 0 0 0 0 0.717647 0 0 0 0 0.717647 0 0 0 0.08 0"/>
<feBlend mode="normal" in2="effect1_dropShadow_1217_5177" result="effect2_dropShadow_1217_5177"/>
<feBlend mode="normal" in="SourceGraphic" in2="effect2_dropShadow_1217_5177" result="shape"/>
</filter>
<filter id="filter2_dd_1217_5177" x="79.75" y="192.75" width="408" height="216" filterUnits="userSpaceOnUse" color-interpolation-filters="sRGB">
<feFlood flood-opacity="0" result="BackgroundImageFix"/>
<feColorMatrix in="SourceAlpha" type="matrix" values="0 0 0 0 0 0 0 0 0 0 0 0 0 0 0 0 0 0 127 0" result="hardAlpha"/>
<feOffset dy="2"/>
<feGaussianBlur stdDeviation="10"/>
<feColorMatrix type="matrix" values="0 0 0 0 0.717647 0 0 0 0 0.717647 0 0 0 0 0.717647 0 0 0 0.08 0"/>
<feBlend mode="normal" in2="BackgroundImageFix" result="effect1_dropShadow_1217_5177"/>
<feColorMatrix in="SourceAlpha" type="matrix" values="0 0 0 0 0 0 0 0 0 0 0 0 0 0 0 0 0 0 127 0" result="hardAlpha"/>
<feOffset dy="20"/>
<feGaussianBlur stdDeviation="20"/>
<feColorMatrix type="matrix" values="0 0 0 0 0.717647 0 0 0 0 0.717647 0 0 0 0 0.717647 0 0 0 0.08 0"/>
<feBlend mode="normal" in2="effect1_dropShadow_1217_5177" result="effect2_dropShadow_1217_5177"/>
<feBlend mode="normal" in="SourceGraphic" in2="effect2_dropShadow_1217_5177" result="shape"/>
</filter>
<filter id="filter3_dd_1217_5177" x="693.75" y="192.75" width="290" height="216" filterUnits="userSpaceOnUse" color-interpolation-filters="sRGB">
<feFlood flood-opacity="0" result="BackgroundImageFix"/>
<feColorMatrix in="SourceAlpha" type="matrix" values="0 0 0 0 0 0 0 0 0 0 0 0 0 0 0 0 0 0 127 0" result="hardAlpha"/>
<feOffset dy="2"/>
<feGaussianBlur stdDeviation="10"/>
<feColorMatrix type="matrix" values="0 0 0 0 0.717647 0 0 0 0 0.717647 0 0 0 0 0.717647 0 0 0 0.08 0"/>
<feBlend mode="normal" in2="BackgroundImageFix" result="effect1_dropShadow_1217_5177"/>
<feColorMatrix in="SourceAlpha" type="matrix" values="0 0 0 0 0 0 0 0 0 0 0 0 0 0 0 0 0 0 127 0" result="hardAlpha"/>
<feOffset dy="20"/>
<feGaussianBlur stdDeviation="20"/>
<feColorMatrix type="matrix" values="0 0 0 0 0.717647 0 0 0 0 0.717647 0 0 0 0 0.717647 0 0 0 0.08 0"/>
<feBlend mode="normal" in2="effect1_dropShadow_1217_5177" result="effect2_dropShadow_1217_5177"/>
<feBlend mode="normal" in="SourceGraphic" in2="effect2_dropShadow_1217_5177" result="shape"/>
</filter>
<filter id="filter4_dd_1217_5177" x="941.75" y="192.75" width="290" height="216" filterUnits="userSpaceOnUse" color-interpolation-filters="sRGB">
<feFlood flood-opacity="0" result="BackgroundImageFix"/>
<feColorMatrix in="SourceAlpha" type="matrix" values="0 0 0 0 0 0 0 0 0 0 0 0 0 0 0 0 0 0 127 0" result="hardAlpha"/>
<feOffset dy="2"/>
<feGaussianBlur stdDeviation="10"/>
<feColorMatrix type="matrix" values="0 0 0 0 0.717647 0 0 0 0 0.717647 0 0 0 0 0.717647 0 0 0 0.08 0"/>
<feBlend mode="normal" in2="BackgroundImageFix" result="effect1_dropShadow_1217_5177"/>
<feColorMatrix in="SourceAlpha" type="matrix" values="0 0 0 0 0 0 0 0 0 0 0 0 0 0 0 0 0 0 127 0" result="hardAlpha"/>
<feOffset dy="20"/>
<feGaussianBlur stdDeviation="20"/>
<feColorMatrix type="matrix" values="0 0 0 0 0.717647 0 0 0 0 0.717647 0 0 0 0 0.717647 0 0 0 0.08 0"/>
<feBlend mode="normal" in2="effect1_dropShadow_1217_5177" result="effect2_dropShadow_1217_5177"/>
<feBlend mode="normal" in="SourceGraphic" in2="effect2_dropShadow_1217_5177" result="shape"/>
</filter>
<filter id="filter5_dd_1217_5177" x="1189.75" y="192.75" width="290" height="216" filterUnits="userSpaceOnUse" color-interpolation-filters="sRGB">
<feFlood flood-opacity="0" result="BackgroundImageFix"/>
<feColorMatrix in="SourceAlpha" type="matrix" values="0 0 0 0 0 0 0 0 0 0 0 0 0 0 0 0 0 0 127 0" result="hardAlpha"/>
<feOffset dy="2"/>
<feGaussianBlur stdDeviation="10"/>
<feColorMatrix type="matrix" values="0 0 0 0 0.717647 0 0 0 0 0.717647 0 0 0 0 0.717647 0 0 0 0.08 0"/>
<feBlend mode="normal" in2="BackgroundImageFix" result="effect1_dropShadow_1217_5177"/>
<feColorMatrix in="SourceAlpha" type="matrix" values="0 0 0 0 0 0 0 0 0 0 0 0 0 0 0 0 0 0 127 0" result="hardAlpha"/>
<feOffset dy="20"/>
<feGaussianBlur stdDeviation="20"/>
<feColorMatrix type="matrix" values="0 0 0 0 0.717647 0 0 0 0 0.717647 0 0 0 0 0.717647 0 0 0 0.08 0"/>
<feBlend mode="normal" in2="effect1_dropShadow_1217_5177" result="effect2_dropShadow_1217_5177"/>
<feBlend mode="normal" in="SourceGraphic" in2="effect2_dropShadow_1217_5177" result="shape"/>
</filter>
</defs>
</svg>
