<svg width="816" height="494" viewBox="0 0 816 494" fill="none" xmlns="http://www.w3.org/2000/svg">
<g filter="url(#filter0_dd_1333_2956)">
<rect x="40.75" y="20.75" width="734" height="412" rx="40" fill="white"/>
<rect x="40.75" y="20.75" width="734" height="412" rx="40" stroke="#EBEFF6" stroke-width="1.5"/>
<path d="M123.405 137.75V107.205H135.635C137.882 107.205 139.756 107.538 141.258 108.204C142.759 108.87 143.888 109.795 144.643 110.978C145.399 112.151 145.777 113.504 145.777 115.035C145.777 116.228 145.538 117.277 145.061 118.182C144.584 119.077 143.928 119.812 143.092 120.389C142.267 120.956 141.322 121.359 140.259 121.597V121.896C141.422 121.945 142.511 122.273 143.525 122.88C144.549 123.487 145.379 124.337 146.016 125.43C146.652 126.514 146.97 127.807 146.97 129.308C146.97 130.929 146.567 132.376 145.762 133.648C144.967 134.911 143.788 135.911 142.227 136.646C140.666 137.382 138.742 137.75 136.455 137.75H123.405ZM129.863 132.47H135.128C136.928 132.47 138.24 132.127 139.065 131.441C139.891 130.745 140.303 129.82 140.303 128.667C140.303 127.822 140.099 127.076 139.692 126.43C139.284 125.783 138.702 125.276 137.947 124.908C137.201 124.54 136.311 124.357 135.277 124.357H129.863V132.47ZM129.863 119.987H134.651C135.536 119.987 136.321 119.832 137.007 119.524C137.703 119.206 138.25 118.759 138.648 118.182C139.055 117.605 139.259 116.914 139.259 116.109C139.259 115.005 138.866 114.115 138.081 113.439C137.305 112.763 136.202 112.425 134.77 112.425H129.863V119.987ZM151.053 137.75V114.841H157.407V137.75H151.053ZM154.245 111.888C153.3 111.888 152.49 111.575 151.814 110.948C151.148 110.312 150.814 109.551 150.814 108.666C150.814 107.791 151.148 107.04 151.814 106.414C152.49 105.778 153.3 105.46 154.245 105.46C155.189 105.46 155.995 105.778 156.661 106.414C157.337 107.04 157.675 107.791 157.675 108.666C157.675 109.551 157.337 110.312 156.661 110.948C155.995 111.575 155.189 111.888 154.245 111.888ZM174.682 114.841V119.614H160.886V114.841H174.682ZM164.018 109.352H170.371V130.71C170.371 131.297 170.461 131.754 170.64 132.082C170.819 132.401 171.067 132.624 171.386 132.754C171.714 132.883 172.092 132.947 172.519 132.947C172.817 132.947 173.116 132.923 173.414 132.873C173.712 132.813 173.941 132.768 174.1 132.739L175.099 137.467C174.781 137.566 174.334 137.68 173.757 137.81C173.18 137.949 172.479 138.033 171.654 138.063C170.123 138.123 168.781 137.919 167.627 137.452C166.484 136.984 165.594 136.259 164.957 135.274C164.321 134.29 164.008 133.047 164.018 131.545V109.352ZM178.821 146.341V114.841H185.085V118.689H185.368C185.647 118.072 186.049 117.446 186.576 116.81C187.113 116.163 187.809 115.626 188.664 115.199C189.529 114.761 190.603 114.543 191.886 114.543C193.556 114.543 195.098 114.98 196.51 115.855C197.922 116.72 199.05 118.028 199.895 119.778C200.74 121.518 201.163 123.7 201.163 126.325C201.163 128.881 200.75 131.038 199.925 132.798C199.11 134.548 197.996 135.876 196.584 136.781C195.182 137.675 193.611 138.123 191.871 138.123C190.638 138.123 189.589 137.919 188.724 137.511C187.869 137.104 187.168 136.592 186.621 135.975C186.074 135.349 185.657 134.717 185.368 134.081H185.174V146.341H178.821ZM185.04 126.295C185.04 127.658 185.229 128.846 185.607 129.86C185.985 130.874 186.532 131.665 187.248 132.232C187.963 132.788 188.833 133.067 189.858 133.067C190.892 133.067 191.767 132.783 192.483 132.217C193.199 131.64 193.74 130.844 194.108 129.83C194.486 128.806 194.675 127.628 194.675 126.295C194.675 124.973 194.491 123.81 194.123 122.805C193.755 121.801 193.213 121.016 192.498 120.449C191.782 119.882 190.902 119.599 189.858 119.599C188.824 119.599 187.949 119.872 187.233 120.419C186.527 120.966 185.985 121.741 185.607 122.746C185.229 123.75 185.04 124.933 185.04 126.295ZM211.931 138.183C210.47 138.183 209.167 137.929 208.024 137.422C206.88 136.905 205.975 136.144 205.309 135.14C204.653 134.126 204.325 132.863 204.325 131.352C204.325 130.079 204.559 129.01 205.026 128.145C205.493 127.28 206.13 126.584 206.935 126.057C207.74 125.53 208.655 125.132 209.679 124.864C210.713 124.595 211.797 124.406 212.931 124.297C214.263 124.158 215.337 124.028 216.152 123.909C216.968 123.78 217.559 123.591 217.927 123.342C218.295 123.094 218.479 122.726 218.479 122.239V122.149C218.479 121.205 218.181 120.474 217.584 119.957C216.998 119.44 216.162 119.181 215.078 119.181C213.935 119.181 213.025 119.435 212.349 119.942C211.673 120.439 211.225 121.065 211.007 121.821L205.13 121.344C205.429 119.952 206.015 118.749 206.89 117.734C207.765 116.71 208.894 115.925 210.276 115.378C211.668 114.821 213.279 114.543 215.108 114.543C216.381 114.543 217.599 114.692 218.762 114.99C219.936 115.288 220.975 115.751 221.88 116.377C222.794 117.004 223.515 117.809 224.042 118.793C224.569 119.768 224.833 120.936 224.833 122.298V137.75H218.807V134.573H218.628C218.26 135.289 217.768 135.92 217.152 136.467C216.535 137.004 215.794 137.427 214.929 137.735C214.064 138.033 213.065 138.183 211.931 138.183ZM213.751 133.798C214.686 133.798 215.511 133.614 216.227 133.246C216.943 132.868 217.505 132.361 217.912 131.724C218.32 131.088 218.524 130.367 218.524 129.562V127.131C218.325 127.26 218.051 127.379 217.703 127.489C217.365 127.588 216.983 127.683 216.555 127.772C216.127 127.852 215.7 127.926 215.272 127.996C214.845 128.055 214.457 128.11 214.109 128.16C213.363 128.269 212.712 128.443 212.155 128.682C211.598 128.92 211.166 129.244 210.858 129.651C210.549 130.049 210.395 130.546 210.395 131.143C210.395 132.008 210.708 132.669 211.335 133.126C211.971 133.574 212.777 133.798 213.751 133.798ZM232.864 146.341C232.059 146.341 231.303 146.276 230.597 146.147C229.901 146.028 229.325 145.874 228.867 145.685L230.299 140.942C231.045 141.17 231.716 141.295 232.312 141.315C232.919 141.335 233.441 141.195 233.879 140.897C234.326 140.599 234.689 140.092 234.967 139.376L235.34 138.406L227.122 114.841H233.804L238.547 131.665H238.786L243.573 114.841H250.3L241.396 140.226C240.968 141.459 240.386 142.533 239.651 143.447C238.925 144.372 238.005 145.083 236.891 145.58C235.778 146.087 234.435 146.341 232.864 146.341Z" fill="#19213D"/>
<a href="https://bitpay.com/">
<rect fill="black" fill-opacity="0" y="1.58523" width="130.266" height="50.8295"/>
</a>
<g filter="url(#filter1_dd_1333_2956)">
<rect x="486.75" y="213.75" width="208" height="134" rx="24" fill="white"/>
<rect x="486.25" y="213.25" width="209" height="135" rx="24.5" stroke="#D6DCE5"/>
<path d="M659.642 267.918H652.521L648.4 285.305L647.822 287.691C647.424 287.799 647.026 287.907 646.629 287.98C645.906 288.124 645.147 288.197 644.351 288.197C643.448 288.197 642.725 288.052 642.183 287.799C641.677 287.546 641.279 287.184 641.062 286.678C640.845 286.208 640.773 285.63 640.809 284.979C640.845 284.329 640.99 283.606 641.17 282.883L643.339 273.846L644.749 267.845H637.483L634.194 281.726C633.796 283.389 633.579 284.979 633.507 286.498C633.435 288.016 633.688 289.317 634.194 290.51C634.7 291.667 635.604 292.571 636.833 293.257C638.062 293.944 639.833 294.269 642.074 294.269C643.629 294.269 645.002 294.125 646.159 293.872C646.195 293.872 646.267 293.836 646.303 293.836C645.978 295.282 645.327 296.438 644.315 297.342C643.267 298.246 641.749 298.716 639.725 298.716C638.857 298.716 638.062 298.679 637.339 298.571L635.929 304.463C636.869 304.572 637.917 304.644 639.074 304.644C641.243 304.644 643.122 304.391 644.749 303.921C646.376 303.415 647.749 302.692 648.942 301.68C650.099 300.668 651.075 299.402 651.87 297.92C652.665 296.402 653.28 294.631 653.75 292.534L658.666 271.858L659.642 267.918Z" fill="#2A3F90"/>
<path d="M629.82 282.774C629.386 284.582 629.241 286.425 629.422 288.232C629.603 290.076 630.326 292.859 631.013 294.269H624.145C623.313 292.859 623.349 292.173 623.169 291.739C622.265 292.462 621.289 293.076 620.204 293.546C619.12 294.016 617.927 294.269 616.553 294.269C614.963 294.269 613.589 293.98 612.469 293.438C611.348 292.896 610.408 292.136 609.685 291.197C608.962 290.257 608.456 289.172 608.131 287.907C607.806 286.642 607.661 285.305 607.661 283.859C607.661 281.654 608.059 279.593 608.818 277.641C609.613 275.689 610.698 273.99 612.071 272.544C613.445 271.098 616.807 267.881 622.301 267.881C624.687 267.881 627.868 267.881 633.326 267.881L629.82 282.774ZM624.795 273.918C621.47 273.918 620.855 273.918 619.481 274.605C618.505 275.111 617.71 275.87 617.023 276.737C616.337 277.605 615.758 278.617 615.361 279.774C614.963 280.931 614.746 282.124 614.746 283.353C614.746 284.871 614.999 286.1 615.505 287.003C616.011 287.907 616.951 288.341 618.325 288.341C619.048 288.341 619.735 288.196 620.313 287.907C620.891 287.618 621.542 287.148 622.193 286.461C622.265 285.666 622.373 284.835 622.518 283.967C622.662 283.1 622.843 282.268 622.988 281.545L624.795 273.918Z" fill="#2A3F90"/>
<path d="M605.709 278.364C605.709 280.714 605.312 282.847 604.553 284.798C603.794 286.75 602.709 288.413 601.335 289.823C599.962 291.233 598.335 292.317 596.419 293.112C594.504 293.908 592.443 294.305 590.202 294.305C589.118 294.305 588.033 294.197 586.912 294.016L584.744 302.728H577.622L585.9 267.954C587.093 267.954 593.455 267.954 595.407 267.954C597.215 267.954 598.769 268.243 600.034 268.785C601.335 269.327 602.384 270.086 603.251 271.026C604.083 271.966 604.697 273.087 605.095 274.352C605.529 275.581 605.709 276.918 605.709 278.364ZM588.25 288.233C588.792 288.377 589.479 288.413 590.274 288.413C591.539 288.413 592.66 288.196 593.708 287.726C594.72 287.257 595.624 286.606 596.347 285.774C597.07 284.943 597.612 283.931 598.046 282.774C598.444 281.617 598.661 280.316 598.661 278.906C598.661 277.533 598.371 276.34 597.757 275.4C597.142 274.424 596.094 273.918 594.576 273.918C593.528 273.918 591.756 273.918 591.756 273.918L588.25 288.233Z" fill="#2A3F90"/>
<path d="M573.285 288.233C572.381 288.233 571.658 288.088 571.116 287.835C570.61 287.582 570.212 287.22 569.995 286.714C569.778 286.244 569.706 285.666 569.742 285.015C569.778 284.365 569.923 283.642 570.104 282.919L572.273 273.882H580.37L581.852 267.881H573.719L575.598 260.29L568.007 261.483L563.2 281.798C562.802 283.461 562.585 285.052 562.513 286.57C562.44 288.088 562.693 289.389 563.2 290.582C563.706 291.739 564.609 292.643 565.838 293.329C567.067 294.016 568.839 294.342 571.08 294.342C572.634 294.342 574.008 294.197 575.164 293.944C575.273 293.908 575.454 293.872 575.562 293.836L577.044 287.654C576.538 287.835 576.032 287.943 575.562 288.016C574.839 288.16 574.08 288.233 573.285 288.233Z" fill="#2A3F90"/>
<path d="M555.175 267.918L548.885 294.305H556.006L562.26 267.918H555.175Z" fill="#2A3F90"/>
<path d="M563.019 264.881L564.103 260.29H556.982L555.898 264.881H563.019Z" fill="#2A3F90"/>
<path d="M539.414 267.954C540.932 267.954 542.27 268.243 543.39 268.785C544.511 269.327 545.415 270.05 546.174 270.99C546.897 271.93 547.439 273.014 547.8 274.243C548.162 275.472 548.343 276.81 548.343 278.256C548.343 280.461 547.945 282.521 547.114 284.509C546.282 286.461 545.198 288.196 543.788 289.642C542.378 291.088 540.715 292.245 538.8 293.076C536.884 293.908 534.823 294.342 532.582 294.342C532.293 294.342 531.787 294.342 531.064 294.305C530.341 294.305 529.51 294.233 528.606 294.089C527.666 293.944 526.69 293.763 525.678 293.51C524.63 293.257 523.654 292.896 522.75 292.462L531.028 257.688L538.438 256.531L535.51 268.857C536.161 268.568 536.739 268.351 537.39 268.207C538.004 268.026 538.691 267.954 539.414 267.954ZM533.197 288.413C534.317 288.413 535.366 288.16 536.342 287.582C537.318 287.04 538.185 286.317 538.908 285.413C539.631 284.509 540.209 283.461 540.607 282.341C541.005 281.184 541.222 279.991 541.222 278.762C541.222 277.244 540.968 276.051 540.462 275.183C539.956 274.316 538.908 273.918 537.534 273.918C537.101 273.918 536.631 273.954 535.908 274.135C535.185 274.28 534.57 274.641 533.992 275.147L530.883 288.269C531.823 288.413 532.835 288.413 533.197 288.413Z" fill="#2A3F90"/>
</g>
<g filter="url(#filter2_dd_1333_2956)">
<rect x="120.25" y="213.558" width="327" height="131.825" rx="24.5" stroke="#D6DCE5"/>
<path d="M368.967 262.855H360.146L355.041 284.392L354.325 287.347C353.832 287.481 353.34 287.616 352.847 287.705C351.952 287.884 351.012 287.974 350.026 287.974C348.907 287.974 348.012 287.795 347.34 287.481C346.713 287.168 346.22 286.72 345.952 286.093C345.683 285.511 345.594 284.795 345.638 283.989C345.683 283.183 345.862 282.287 346.086 281.392L348.773 270.198L350.519 262.765H341.519L337.444 279.959C336.952 282.019 336.683 283.989 336.594 285.87C336.504 287.75 336.818 289.362 337.444 290.84C338.071 292.273 339.191 293.392 340.713 294.243C342.235 295.093 344.429 295.496 347.206 295.496C349.131 295.496 350.832 295.317 352.265 295.004C352.31 295.004 352.4 294.959 352.444 294.959C352.041 296.75 351.235 298.183 349.982 299.302C348.683 300.422 346.803 301.004 344.295 301.004C343.22 301.004 342.235 300.959 341.34 300.825L339.594 308.123C340.758 308.258 342.056 308.347 343.489 308.347C346.176 308.347 348.504 308.034 350.519 307.452C352.534 306.825 354.235 305.929 355.713 304.675C357.146 303.422 358.355 301.855 359.34 300.019C360.325 298.138 361.086 295.944 361.668 293.347L367.758 267.735L368.967 262.855Z" fill="#2A3F90"/>
<path d="M332.026 281.257C331.489 283.496 331.31 285.78 331.534 288.019C331.758 290.302 332.653 293.75 333.504 295.496H324.996C323.967 293.75 324.011 292.899 323.787 292.362C322.668 293.257 321.459 294.019 320.116 294.601C318.773 295.183 317.295 295.496 315.593 295.496C313.623 295.496 311.922 295.138 310.534 294.466C309.146 293.795 307.981 292.854 307.086 291.69C306.19 290.526 305.564 289.183 305.161 287.616C304.758 286.048 304.578 284.392 304.578 282.601C304.578 279.869 305.071 277.317 306.011 274.899C306.996 272.481 308.34 270.377 310.041 268.586C311.743 266.795 315.907 262.81 322.713 262.81C325.668 262.81 329.608 262.81 336.37 262.81L332.026 281.257ZM325.802 270.287C321.683 270.287 320.922 270.287 319.22 271.138C318.011 271.765 317.026 272.705 316.175 273.78C315.325 274.854 314.608 276.108 314.116 277.541C313.623 278.974 313.355 280.451 313.355 281.974C313.355 283.854 313.668 285.377 314.295 286.496C314.922 287.616 316.086 288.153 317.787 288.153C318.683 288.153 319.534 287.974 320.25 287.616C320.967 287.257 321.773 286.675 322.578 285.824C322.668 284.839 322.802 283.81 322.981 282.735C323.161 281.66 323.384 280.63 323.564 279.735L325.802 270.287Z" fill="#2A3F90"/>
<path d="M302.161 275.795C302.161 278.705 301.668 281.347 300.728 283.765C299.788 286.183 298.444 288.243 296.743 289.989C295.041 291.735 293.026 293.078 290.653 294.063C288.28 295.048 285.728 295.541 282.952 295.541C281.608 295.541 280.265 295.407 278.877 295.183L276.191 305.974H267.37L277.623 262.899C279.101 262.899 286.982 262.899 289.4 262.899C291.638 262.899 293.564 263.257 295.131 263.929C296.743 264.601 298.041 265.541 299.116 266.705C300.146 267.869 300.907 269.257 301.4 270.825C301.937 272.347 302.161 274.004 302.161 275.795ZM280.534 288.019C281.206 288.198 282.056 288.243 283.041 288.243C284.608 288.243 285.997 287.974 287.295 287.392C288.549 286.81 289.668 286.004 290.564 284.974C291.459 283.944 292.131 282.69 292.668 281.257C293.161 279.825 293.429 278.213 293.429 276.466C293.429 274.765 293.071 273.287 292.31 272.123C291.549 270.914 290.25 270.287 288.37 270.287C287.071 270.287 284.877 270.287 284.877 270.287L280.534 288.019Z" fill="#2A3F90"/>
<path d="M261.996 288.019C260.877 288.019 259.982 287.84 259.31 287.526C258.683 287.213 258.191 286.765 257.922 286.138C257.653 285.556 257.564 284.84 257.608 284.034C257.653 283.228 257.832 282.332 258.056 281.437L260.743 270.243H270.773L272.608 262.81H262.534L264.862 253.407L255.459 254.884L249.504 280.049C249.011 282.108 248.743 284.078 248.653 285.959C248.564 287.84 248.877 289.452 249.504 290.929C250.131 292.362 251.25 293.481 252.773 294.332C254.295 295.183 256.489 295.586 259.265 295.586C261.191 295.586 262.892 295.407 264.325 295.093C264.459 295.049 264.683 295.004 264.817 294.959L266.653 287.302C266.026 287.526 265.399 287.66 264.817 287.75C263.922 287.929 262.982 288.019 261.996 288.019Z" fill="#2A3F90"/>
<path d="M239.564 262.854L231.773 295.541H240.593L248.34 262.854H239.564Z" fill="#2A3F90"/>
<path d="M249.28 259.093L250.623 253.407H241.802L240.459 259.093H249.28Z" fill="#2A3F90"/>
<path d="M220.041 262.899C221.922 262.899 223.579 263.257 224.967 263.929C226.355 264.601 227.474 265.496 228.414 266.66C229.31 267.825 229.982 269.168 230.429 270.69C230.877 272.213 231.101 273.869 231.101 275.66C231.101 278.392 230.608 280.944 229.579 283.407C228.549 285.825 227.205 287.974 225.459 289.765C223.713 291.556 221.653 292.989 219.28 294.019C216.907 295.049 214.355 295.586 211.579 295.586C211.22 295.586 210.593 295.586 209.698 295.541C208.802 295.541 207.773 295.451 206.653 295.272C205.489 295.093 204.28 294.869 203.026 294.556C201.728 294.243 200.519 293.795 199.399 293.257L209.653 250.183L218.832 248.75L215.205 264.019C216.011 263.66 216.728 263.392 217.534 263.213C218.295 262.989 219.146 262.899 220.041 262.899ZM212.34 288.243C213.728 288.243 215.026 287.929 216.235 287.213C217.444 286.541 218.519 285.646 219.414 284.526C220.31 283.407 221.026 282.108 221.519 280.72C222.011 279.287 222.28 277.81 222.28 276.287C222.28 274.407 221.967 272.929 221.34 271.854C220.713 270.78 219.414 270.287 217.713 270.287C217.176 270.287 216.593 270.332 215.698 270.556C214.802 270.735 214.041 271.183 213.325 271.81L209.474 288.063C210.638 288.243 211.892 288.243 212.34 288.243Z" fill="#2A3F90"/>
</g>
</g>
<defs>
<filter id="filter0_dd_1333_2956" x="0" y="0" width="815.5" height="493.5" filterUnits="userSpaceOnUse" color-interpolation-filters="sRGB">
<feFlood flood-opacity="0" result="BackgroundImageFix"/>
<feColorMatrix in="SourceAlpha" type="matrix" values="0 0 0 0 0 0 0 0 0 0 0 0 0 0 0 0 0 0 127 0" result="hardAlpha"/>
<feOffset dy="20"/>
<feGaussianBlur stdDeviation="20"/>
<feColorMatrix type="matrix" values="0 0 0 0 0.717647 0 0 0 0 0.717647 0 0 0 0 0.717647 0 0 0 0.06 0"/>
<feBlend mode="normal" in2="BackgroundImageFix" result="effect1_dropShadow_1333_2956"/>
<feColorMatrix in="SourceAlpha" type="matrix" values="0 0 0 0 0 0 0 0 0 0 0 0 0 0 0 0 0 0 127 0" result="hardAlpha"/>
<feOffset dy="4"/>
<feGaussianBlur stdDeviation="7"/>
<feColorMatrix type="matrix" values="0 0 0 0 0.716667 0 0 0 0 0.716667 0 0 0 0 0.716667 0 0 0 0.02 0"/>
<feBlend mode="normal" in2="effect1_dropShadow_1333_2956" result="effect2_dropShadow_1333_2956"/>
<feBlend mode="normal" in="SourceGraphic" in2="effect2_dropShadow_1333_2956" result="shape"/>
</filter>
<filter id="filter1_dd_1333_2956" x="445.75" y="192.75" width="290" height="216" filterUnits="userSpaceOnUse" color-interpolation-filters="sRGB">
<feFlood flood-opacity="0" result="BackgroundImageFix"/>
<feColorMatrix in="SourceAlpha" type="matrix" values="0 0 0 0 0 0 0 0 0 0 0 0 0 0 0 0 0 0 127 0" result="hardAlpha"/>
<feOffset dy="2"/>
<feGaussianBlur stdDeviation="10"/>
<feColorMatrix type="matrix" values="0 0 0 0 0.717647 0 0 0 0 0.717647 0 0 0 0 0.717647 0 0 0 0.08 0"/>
<feBlend mode="normal" in2="BackgroundImageFix" result="effect1_dropShadow_1333_2956"/>
<feColorMatrix in="SourceAlpha" type="matrix" values="0 0 0 0 0 0 0 0 0 0 0 0 0 0 0 0 0 0 127 0" result="hardAlpha"/>
<feOffset dy="20"/>
<feGaussianBlur stdDeviation="20"/>
<feColorMatrix type="matrix" values="0 0 0 0 0.717647 0 0 0 0 0.717647 0 0 0 0 0.717647 0 0 0 0.08 0"/>
<feBlend mode="normal" in2="effect1_dropShadow_1333_2956" result="effect2_dropShadow_1333_2956"/>
<feBlend mode="normal" in="SourceGraphic" in2="effect2_dropShadow_1333_2956" result="shape"/>
</filter>
<filter id="filter2_dd_1333_2956" x="79.75" y="193.058" width="408" height="212.825" filterUnits="userSpaceOnUse" color-interpolation-filters="sRGB">
<feFlood flood-opacity="0" result="BackgroundImageFix"/>
<feColorMatrix in="SourceAlpha" type="matrix" values="0 0 0 0 0 0 0 0 0 0 0 0 0 0 0 0 0 0 127 0" result="hardAlpha"/>
<feOffset dy="2"/>
<feGaussianBlur stdDeviation="10"/>
<feColorMatrix type="matrix" values="0 0 0 0 0.717647 0 0 0 0 0.717647 0 0 0 0 0.717647 0 0 0 0.08 0"/>
<feBlend mode="normal" in2="BackgroundImageFix" result="effect1_dropShadow_1333_2956"/>
<feColorMatrix in="SourceAlpha" type="matrix" values="0 0 0 0 0 0 0 0 0 0 0 0 0 0 0 0 0 0 127 0" result="hardAlpha"/>
<feOffset dy="20"/>
<feGaussianBlur stdDeviation="20"/>
<feColorMatrix type="matrix" values="0 0 0 0 0.717647 0 0 0 0 0.717647 0 0 0 0 0.717647 0 0 0 0.08 0"/>
<feBlend mode="normal" in2="effect1_dropShadow_1333_2956" result="effect2_dropShadow_1333_2956"/>
<feBlend mode="normal" in="SourceGraphic" in2="effect2_dropShadow_1333_2956" result="shape"/>
</filter>
</defs>
</svg>
