<svg width="816" height="494" viewBox="0 0 816 494" fill="none" xmlns="http://www.w3.org/2000/svg">
<g filter="url(#filter0_dd_1226_2872)">
<rect x="40.75" y="20.75" width="734" height="412" rx="40" fill="white"/>
<rect x="40.75" y="20.75" width="734" height="412" rx="40" stroke="#EBEFF6" stroke-width="1.5"/>
<path d="M123.405 137.75V107.205H135.635C137.882 107.205 139.756 107.538 141.258 108.204C142.759 108.87 143.888 109.795 144.643 110.978C145.399 112.151 145.777 113.504 145.777 115.035C145.777 116.228 145.538 117.277 145.061 118.182C144.584 119.077 143.928 119.812 143.092 120.389C142.267 120.956 141.322 121.359 140.259 121.597V121.896C141.422 121.945 142.511 122.273 143.525 122.88C144.549 123.487 145.379 124.337 146.016 125.43C146.652 126.514 146.97 127.807 146.97 129.308C146.97 130.929 146.567 132.376 145.762 133.648C144.967 134.911 143.788 135.911 142.227 136.646C140.666 137.382 138.742 137.75 136.455 137.75H123.405ZM129.863 132.47H135.128C136.928 132.47 138.24 132.127 139.065 131.441C139.891 130.745 140.303 129.82 140.303 128.667C140.303 127.822 140.099 127.076 139.692 126.43C139.284 125.783 138.702 125.276 137.947 124.908C137.201 124.54 136.311 124.357 135.277 124.357H129.863V132.47ZM129.863 119.987H134.651C135.536 119.987 136.321 119.832 137.007 119.524C137.703 119.206 138.25 118.759 138.648 118.182C139.055 117.605 139.259 116.914 139.259 116.109C139.259 115.005 138.866 114.115 138.081 113.439C137.305 112.763 136.202 112.425 134.77 112.425H129.863V119.987ZM151.053 137.75V114.841H157.213V118.838H157.452C157.869 117.416 158.57 116.342 159.555 115.616C160.539 114.881 161.672 114.513 162.955 114.513C163.273 114.513 163.616 114.533 163.984 114.572C164.352 114.612 164.675 114.667 164.954 114.737V120.374C164.655 120.285 164.243 120.205 163.716 120.136C163.189 120.066 162.706 120.031 162.269 120.031C161.334 120.031 160.499 120.235 159.763 120.643C159.037 121.04 158.461 121.597 158.033 122.313C157.616 123.029 157.407 123.854 157.407 124.789V137.75H151.053ZM177.613 138.197C175.256 138.197 173.228 137.72 171.527 136.766C169.837 135.801 168.534 134.439 167.62 132.679C166.705 130.909 166.248 128.816 166.248 126.4C166.248 124.043 166.705 121.975 167.62 120.195C168.534 118.415 169.822 117.028 171.483 116.034C173.153 115.04 175.112 114.543 177.359 114.543C178.87 114.543 180.277 114.786 181.58 115.273C182.892 115.751 184.036 116.472 185.01 117.436C185.995 118.401 186.76 119.614 187.307 121.075C187.854 122.527 188.127 124.227 188.127 126.176V127.921H168.783V123.984H182.147C182.147 123.069 181.948 122.259 181.55 121.553C181.152 120.847 180.6 120.295 179.895 119.897C179.199 119.489 178.388 119.286 177.463 119.286C176.499 119.286 175.644 119.509 174.898 119.957C174.162 120.394 173.586 120.986 173.168 121.732C172.75 122.467 172.537 123.288 172.527 124.192V127.936C172.527 129.07 172.735 130.049 173.153 130.874C173.581 131.7 174.182 132.336 174.958 132.783C175.733 133.231 176.653 133.455 177.717 133.455C178.423 133.455 179.069 133.355 179.656 133.156C180.243 132.957 180.745 132.659 181.162 132.261C181.58 131.864 181.898 131.376 182.117 130.8L187.993 131.188C187.695 132.599 187.083 133.832 186.159 134.886C185.244 135.93 184.061 136.746 182.609 137.332C181.167 137.909 179.502 138.197 177.613 138.197ZM197.173 114.841L201.379 122.85L205.69 114.841H212.207L205.57 126.295L212.386 137.75H205.898L201.379 129.83L196.935 137.75H190.372L197.173 126.295L190.611 114.841H197.173Z" fill="#19213D"/>
<a href="https://www.brex.com/">
<rect fill="black" fill-opacity="0" y="1.58523" width="92.6804" height="50.8295"/>
</a>
<g filter="url(#filter1_dd_1226_2872)">
<rect x="486.75" y="213.75" width="208" height="134" rx="24" fill="white"/>
<rect x="486.25" y="213.25" width="209" height="135" rx="24.5" stroke="#D6DCE5"/>
<path d="M603.321 251.35C599.916 255.899 599.096 257.414 595.808 257.414H546.75V315.75H565.997C570.34 315.75 574.565 313.649 577.263 310.15C580.786 305.484 581.254 304.086 584.655 304.086H633.83V245.75H614.466C610.123 245.75 605.902 247.851 603.321 251.35ZM618.574 289.036H598.034C593.574 289.036 589.466 290.903 586.768 294.519C583.246 299.185 582.543 300.587 579.255 300.587H561.889V272.585H582.429C586.889 272.585 590.997 270.484 593.695 266.985C597.218 262.436 598.155 261.034 601.322 261.034H618.574V289.036Z" fill="#000008"/>
</g>
<g filter="url(#filter2_dd_1226_2872)">
<rect x="120.25" y="213.25" width="327" height="135" rx="24.5" stroke="#D6DCE5"/>
<path d="M314.501 267.325C311.414 267.325 309.034 268.425 306.826 270.721V267.861H300.764V296.011H307.288V279.685C307.288 275.947 309.514 273.583 312.89 273.583C313.503 273.583 314.041 273.66 314.424 273.734L318.951 267.784C317.187 267.476 315.652 267.325 314.501 267.325ZM370.75 267.859H363.228L356.283 277.04L349.338 267.859H341.816L352.427 282.045L341.816 296.011H349.489L356.242 287.105L362.995 296.011H370.747L360.069 282.065L370.75 267.859ZM233.774 261.526C231.547 264.501 231.011 265.492 228.861 265.492H196.784V303.635H209.369C212.209 303.635 214.971 302.261 216.736 299.974C219.039 296.923 219.345 296.008 221.569 296.008H253.722V257.865H241.061C238.221 257.865 235.461 259.239 233.774 261.526ZM243.747 286.168H230.316C227.401 286.168 224.715 287.389 222.95 289.753C220.647 292.804 220.188 293.721 218.038 293.721H206.683V275.411H220.114C223.029 275.411 225.715 274.037 227.48 271.75C229.783 268.775 230.396 267.859 232.466 267.859H243.747V286.168ZM291.94 276.785C294.782 275.184 296.773 272.36 296.773 268.622C296.773 263.13 292.553 257.865 286.415 257.865H267.998V296.008H286.415C293.089 296.008 297.695 291.277 297.695 285.328C297.695 281.82 296.084 278.766 291.94 276.785ZM274.522 263.814H285.879C288.718 263.814 290.406 266.485 290.406 268.849C290.406 271.75 287.873 273.731 285.496 273.731H274.522V263.814ZM285.493 290.057H274.519V279.68H285.876C288.792 279.68 291.172 282.198 291.172 284.792C291.172 287.692 288.182 290.057 285.493 290.057Z" fill="#000008"/>
<path d="M335.297 287.92C334.223 289.6 332.152 290.59 329.849 290.59C326.243 290.59 323.251 288.149 323.251 284.411H342.743C343.049 283.267 343.126 282.734 343.126 281.741C343.126 273.197 337.83 267.322 329.851 267.322C322.023 267.322 316.5 272.891 316.5 281.968C316.5 290.817 321.793 296.539 330.004 296.539C335.76 296.539 340.825 293.718 342.283 287.92C342.281 287.92 335.297 287.92 335.297 287.92ZM329.849 273.274C333.457 273.274 336.219 275.562 336.143 278.996H323.328C323.325 275.641 326.243 273.274 329.849 273.274Z" fill="#000008"/>
</g>
</g>
<defs>
<filter id="filter0_dd_1226_2872" x="0" y="0" width="815.5" height="493.5" filterUnits="userSpaceOnUse" color-interpolation-filters="sRGB">
<feFlood flood-opacity="0" result="BackgroundImageFix"/>
<feColorMatrix in="SourceAlpha" type="matrix" values="0 0 0 0 0 0 0 0 0 0 0 0 0 0 0 0 0 0 127 0" result="hardAlpha"/>
<feOffset dy="20"/>
<feGaussianBlur stdDeviation="20"/>
<feColorMatrix type="matrix" values="0 0 0 0 0.717647 0 0 0 0 0.717647 0 0 0 0 0.717647 0 0 0 0.06 0"/>
<feBlend mode="normal" in2="BackgroundImageFix" result="effect1_dropShadow_1226_2872"/>
<feColorMatrix in="SourceAlpha" type="matrix" values="0 0 0 0 0 0 0 0 0 0 0 0 0 0 0 0 0 0 127 0" result="hardAlpha"/>
<feOffset dy="4"/>
<feGaussianBlur stdDeviation="7"/>
<feColorMatrix type="matrix" values="0 0 0 0 0.716667 0 0 0 0 0.716667 0 0 0 0 0.716667 0 0 0 0.02 0"/>
<feBlend mode="normal" in2="effect1_dropShadow_1226_2872" result="effect2_dropShadow_1226_2872"/>
<feBlend mode="normal" in="SourceGraphic" in2="effect2_dropShadow_1226_2872" result="shape"/>
</filter>
<filter id="filter1_dd_1226_2872" x="445.75" y="192.75" width="290" height="216" filterUnits="userSpaceOnUse" color-interpolation-filters="sRGB">
<feFlood flood-opacity="0" result="BackgroundImageFix"/>
<feColorMatrix in="SourceAlpha" type="matrix" values="0 0 0 0 0 0 0 0 0 0 0 0 0 0 0 0 0 0 127 0" result="hardAlpha"/>
<feOffset dy="2"/>
<feGaussianBlur stdDeviation="10"/>
<feColorMatrix type="matrix" values="0 0 0 0 0.717647 0 0 0 0 0.717647 0 0 0 0 0.717647 0 0 0 0.08 0"/>
<feBlend mode="normal" in2="BackgroundImageFix" result="effect1_dropShadow_1226_2872"/>
<feColorMatrix in="SourceAlpha" type="matrix" values="0 0 0 0 0 0 0 0 0 0 0 0 0 0 0 0 0 0 127 0" result="hardAlpha"/>
<feOffset dy="20"/>
<feGaussianBlur stdDeviation="20"/>
<feColorMatrix type="matrix" values="0 0 0 0 0.717647 0 0 0 0 0.717647 0 0 0 0 0.717647 0 0 0 0.08 0"/>
<feBlend mode="normal" in2="effect1_dropShadow_1226_2872" result="effect2_dropShadow_1226_2872"/>
<feBlend mode="normal" in="SourceGraphic" in2="effect2_dropShadow_1226_2872" result="shape"/>
</filter>
<filter id="filter2_dd_1226_2872" x="79.75" y="192.75" width="408" height="216" filterUnits="userSpaceOnUse" color-interpolation-filters="sRGB">
<feFlood flood-opacity="0" result="BackgroundImageFix"/>
<feColorMatrix in="SourceAlpha" type="matrix" values="0 0 0 0 0 0 0 0 0 0 0 0 0 0 0 0 0 0 127 0" result="hardAlpha"/>
<feOffset dy="2"/>
<feGaussianBlur stdDeviation="10"/>
<feColorMatrix type="matrix" values="0 0 0 0 0.717647 0 0 0 0 0.717647 0 0 0 0 0.717647 0 0 0 0.08 0"/>
<feBlend mode="normal" in2="BackgroundImageFix" result="effect1_dropShadow_1226_2872"/>
<feColorMatrix in="SourceAlpha" type="matrix" values="0 0 0 0 0 0 0 0 0 0 0 0 0 0 0 0 0 0 127 0" result="hardAlpha"/>
<feOffset dy="20"/>
<feGaussianBlur stdDeviation="20"/>
<feColorMatrix type="matrix" values="0 0 0 0 0.717647 0 0 0 0 0.717647 0 0 0 0 0.717647 0 0 0 0.08 0"/>
<feBlend mode="normal" in2="effect1_dropShadow_1226_2872" result="effect2_dropShadow_1226_2872"/>
<feBlend mode="normal" in="SourceGraphic" in2="effect2_dropShadow_1226_2872" result="shape"/>
</filter>
</defs>
</svg>
