<svg width="816" height="494" viewBox="0 0 816 494" fill="none" xmlns="http://www.w3.org/2000/svg">
<g filter="url(#filter0_dd_1222_3037)">
<rect x="40.75" y="20.75" width="734" height="412" rx="40" fill="white"/>
<rect x="40.75" y="20.75" width="734" height="412" rx="40" stroke="#EBEFF6" stroke-width="1.5"/>
<path d="M150.356 117.898H143.823C143.704 117.053 143.46 116.303 143.092 115.646C142.724 114.98 142.252 114.413 141.675 113.946C141.099 113.479 140.433 113.121 139.677 112.872C138.931 112.624 138.121 112.499 137.246 112.499C135.665 112.499 134.288 112.892 133.114 113.678C131.941 114.453 131.031 115.587 130.385 117.078C129.739 118.56 129.415 120.359 129.415 122.477C129.415 124.655 129.739 126.484 130.385 127.966C131.041 129.447 131.956 130.566 133.129 131.322C134.303 132.077 135.66 132.455 137.201 132.455C138.066 132.455 138.866 132.341 139.602 132.112C140.348 131.884 141.009 131.55 141.586 131.113C142.163 130.665 142.64 130.124 143.018 129.487C143.406 128.851 143.674 128.125 143.823 127.31L150.356 127.339C150.187 128.741 149.764 130.094 149.088 131.396C148.422 132.689 147.522 133.847 146.388 134.871C145.265 135.886 143.923 136.691 142.362 137.288C140.81 137.874 139.055 138.168 137.097 138.168C134.372 138.168 131.936 137.551 129.788 136.318C127.651 135.085 125.96 133.3 124.717 130.964C123.484 128.627 122.868 125.798 122.868 122.477C122.868 119.146 123.494 116.312 124.747 113.976C126 111.639 127.7 109.859 129.848 108.636C131.996 107.403 134.412 106.787 137.097 106.787C138.866 106.787 140.507 107.036 142.018 107.533C143.54 108.03 144.887 108.756 146.06 109.71C147.234 110.655 148.188 111.813 148.924 113.185C149.67 114.558 150.147 116.129 150.356 117.898ZM154.868 137.75V114.841H161.221V137.75H154.868ZM158.059 111.888C157.115 111.888 156.304 111.575 155.628 110.948C154.962 110.312 154.629 109.551 154.629 108.666C154.629 107.791 154.962 107.04 155.628 106.414C156.304 105.778 157.115 105.46 158.059 105.46C159.004 105.46 159.809 105.778 160.475 106.414C161.152 107.04 161.49 107.791 161.49 108.666C161.49 109.551 161.152 110.312 160.475 110.948C159.809 111.575 159.004 111.888 158.059 111.888ZM178.496 114.841V119.614H164.7V114.841H178.496ZM167.832 109.352H174.186V130.71C174.186 131.297 174.275 131.754 174.454 132.082C174.633 132.401 174.882 132.624 175.2 132.754C175.528 132.883 175.906 132.947 176.334 132.947C176.632 132.947 176.93 132.923 177.229 132.873C177.527 132.813 177.756 132.768 177.915 132.739L178.914 137.467C178.596 137.566 178.148 137.68 177.572 137.81C176.995 137.949 176.294 138.033 175.469 138.063C173.937 138.123 172.595 137.919 171.442 137.452C170.298 136.984 169.408 136.259 168.772 135.274C168.135 134.29 167.822 133.047 167.832 131.545V109.352ZM182.635 137.75V114.841H188.989V137.75H182.635ZM185.827 111.888C184.882 111.888 184.072 111.575 183.396 110.948C182.73 110.312 182.396 109.551 182.396 108.666C182.396 107.791 182.73 107.04 183.396 106.414C184.072 105.778 184.882 105.46 185.827 105.46C186.771 105.46 187.577 105.778 188.243 106.414C188.919 107.04 189.257 107.791 189.257 108.666C189.257 109.551 188.919 110.312 188.243 110.948C187.577 111.575 186.771 111.888 185.827 111.888Z" fill="#19213D"/>
<a href="https://www.citi.com/">
<rect fill="black" fill-opacity="0" y="1.58523" width="70.7743" height="50.8295"/>
</a>
<g filter="url(#filter1_dd_1222_3037)">
<rect x="179.75" y="213.75" width="456" height="134" rx="24" fill="white"/>
<rect x="179.25" y="213.25" width="457" height="135" rx="24.5" stroke="#D6DCE5"/>
<path d="M384.042 305.182L383.818 305.399C380.31 308.974 376.25 310.862 372.068 310.862C363.333 310.862 356.997 304.31 356.997 295.271C356.997 286.247 363.333 279.684 372.068 279.684C376.25 279.684 380.31 281.583 383.818 285.172L384.042 285.385L389.659 278.592L389.509 278.41C384.838 272.891 379.231 270.206 372.34 270.206C365.431 270.206 359.106 272.535 354.553 276.727C349.596 281.273 346.988 287.682 346.988 295.271C346.988 302.861 349.596 309.284 354.553 313.83C359.106 318.047 365.431 320.358 372.34 320.358C379.231 320.358 384.838 317.67 389.509 312.147L389.659 311.979L384.042 305.182Z" fill="#004685"/>
<path d="M395.332 319.431H405.253V270.99H395.332V319.431Z" fill="#004685"/>
<path d="M444.124 308.901C441.474 310.513 439.013 311.327 436.8 311.327C433.591 311.327 432.139 309.63 432.139 305.86V280.156H442.252V271.037H432.139V255.963L422.417 261.172V271.037H414.024V280.156H422.417V307.497C422.417 314.944 426.829 320.04 433.42 320.173C437.892 320.26 440.587 318.927 442.221 317.949L442.326 317.883L444.71 308.541L444.124 308.901Z" fill="#004685"/>
<path d="M452.336 319.431H462.272V270.99H452.336V319.431Z" fill="#004685"/>
<path d="M468.059 262.499C458.992 249.659 443.939 242 428.624 242C413.313 242 398.256 249.659 389.208 262.499L388.74 263.159H400.155L400.281 263.023C408.048 255 418.193 250.762 428.624 250.762C439.055 250.762 449.193 255 456.978 263.023L457.104 263.159H468.512L468.059 262.499Z" fill="#EE1C25"/>
</g>
</g>
<defs>
<filter id="filter0_dd_1222_3037" x="0" y="0" width="815.5" height="493.5" filterUnits="userSpaceOnUse" color-interpolation-filters="sRGB">
<feFlood flood-opacity="0" result="BackgroundImageFix"/>
<feColorMatrix in="SourceAlpha" type="matrix" values="0 0 0 0 0 0 0 0 0 0 0 0 0 0 0 0 0 0 127 0" result="hardAlpha"/>
<feOffset dy="20"/>
<feGaussianBlur stdDeviation="20"/>
<feColorMatrix type="matrix" values="0 0 0 0 0.717647 0 0 0 0 0.717647 0 0 0 0 0.717647 0 0 0 0.06 0"/>
<feBlend mode="normal" in2="BackgroundImageFix" result="effect1_dropShadow_1222_3037"/>
<feColorMatrix in="SourceAlpha" type="matrix" values="0 0 0 0 0 0 0 0 0 0 0 0 0 0 0 0 0 0 127 0" result="hardAlpha"/>
<feOffset dy="4"/>
<feGaussianBlur stdDeviation="7"/>
<feColorMatrix type="matrix" values="0 0 0 0 0.716667 0 0 0 0 0.716667 0 0 0 0 0.716667 0 0 0 0.02 0"/>
<feBlend mode="normal" in2="effect1_dropShadow_1222_3037" result="effect2_dropShadow_1222_3037"/>
<feBlend mode="normal" in="SourceGraphic" in2="effect2_dropShadow_1222_3037" result="shape"/>
</filter>
<filter id="filter1_dd_1222_3037" x="138.75" y="192.75" width="538" height="216" filterUnits="userSpaceOnUse" color-interpolation-filters="sRGB">
<feFlood flood-opacity="0" result="BackgroundImageFix"/>
<feColorMatrix in="SourceAlpha" type="matrix" values="0 0 0 0 0 0 0 0 0 0 0 0 0 0 0 0 0 0 127 0" result="hardAlpha"/>
<feOffset dy="2"/>
<feGaussianBlur stdDeviation="10"/>
<feColorMatrix type="matrix" values="0 0 0 0 0.717647 0 0 0 0 0.717647 0 0 0 0 0.717647 0 0 0 0.08 0"/>
<feBlend mode="normal" in2="BackgroundImageFix" result="effect1_dropShadow_1222_3037"/>
<feColorMatrix in="SourceAlpha" type="matrix" values="0 0 0 0 0 0 0 0 0 0 0 0 0 0 0 0 0 0 127 0" result="hardAlpha"/>
<feOffset dy="20"/>
<feGaussianBlur stdDeviation="20"/>
<feColorMatrix type="matrix" values="0 0 0 0 0.717647 0 0 0 0 0.717647 0 0 0 0 0.717647 0 0 0 0.08 0"/>
<feBlend mode="normal" in2="effect1_dropShadow_1222_3037" result="effect2_dropShadow_1222_3037"/>
<feBlend mode="normal" in="SourceGraphic" in2="effect2_dropShadow_1222_3037" result="shape"/>
</filter>
</defs>
</svg>
