<svg width="816" height="494" viewBox="0 0 816 494" fill="none" xmlns="http://www.w3.org/2000/svg">
<g filter="url(#filter0_dd_1222_3183)">
<rect x="40.75" y="20.75" width="734" height="412" rx="40" fill="white"/>
<rect x="40.75" y="20.75" width="734" height="412" rx="40" stroke="#EBEFF6" stroke-width="1.5"/>
<path d="M123.405 137.75V107.205H143.629V112.529H129.863V119.808H142.287V125.132H129.863V137.75H123.405ZM147.854 137.75V114.841H154.208V137.75H147.854ZM151.046 111.888C150.101 111.888 149.291 111.575 148.615 110.948C147.948 110.312 147.615 109.551 147.615 108.666C147.615 107.791 147.948 107.04 148.615 106.414C149.291 105.778 150.101 105.46 151.046 105.46C151.99 105.46 152.796 105.778 153.462 106.414C154.138 107.04 154.476 107.791 154.476 108.666C154.476 109.551 154.138 110.312 153.462 110.948C152.796 111.575 151.99 111.888 151.046 111.888ZM171.617 114.841V119.614H157.478V114.841H171.617ZM160.714 137.75V113.185C160.714 111.525 161.037 110.148 161.684 109.054C162.34 107.96 163.235 107.14 164.368 106.593C165.502 106.046 166.789 105.773 168.231 105.773C169.206 105.773 170.096 105.847 170.901 105.996C171.716 106.146 172.323 106.28 172.721 106.399L171.587 111.172C171.338 111.092 171.03 111.018 170.662 110.948C170.304 110.879 169.936 110.844 169.559 110.844C168.624 110.844 167.973 111.062 167.605 111.5C167.237 111.928 167.053 112.529 167.053 113.305V137.75H160.714ZM187.684 114.841V119.614H173.888V114.841H187.684ZM177.02 109.352H183.373V130.71C183.373 131.297 183.463 131.754 183.642 132.082C183.821 132.401 184.069 132.624 184.388 132.754C184.716 132.883 185.094 132.947 185.521 132.947C185.819 132.947 186.118 132.923 186.416 132.873C186.714 132.813 186.943 132.768 187.102 132.739L188.101 137.467C187.783 137.566 187.336 137.68 186.759 137.81C186.182 137.949 185.481 138.033 184.656 138.063C183.125 138.123 181.782 137.919 180.629 137.452C179.486 136.984 178.596 136.259 177.959 135.274C177.323 134.29 177.01 133.047 177.02 131.545V109.352ZM198.669 124.506V137.75H192.315V107.205H198.49V118.883H198.758C199.275 117.531 200.11 116.472 201.264 115.706C202.417 114.93 203.864 114.543 205.604 114.543C207.195 114.543 208.582 114.891 209.765 115.587C210.958 116.273 211.883 117.262 212.539 118.555C213.205 119.837 213.534 121.374 213.524 123.163V137.75H207.17V124.297C207.18 122.885 206.822 121.786 206.096 121.001C205.38 120.215 204.376 119.822 203.083 119.822C202.218 119.822 201.453 120.006 200.786 120.374C200.13 120.742 199.613 121.279 199.235 121.985C198.867 122.681 198.678 123.521 198.669 124.506ZM227.2 112.529V107.205H252.287V112.529H242.936V137.75H236.552V112.529H227.2ZM262.653 124.506V137.75H256.299V107.205H262.474V118.883H262.742C263.259 117.531 264.095 116.472 265.248 115.706C266.401 114.93 267.848 114.543 269.588 114.543C271.179 114.543 272.566 114.891 273.749 115.587C274.943 116.273 275.867 117.262 276.524 118.555C277.19 119.837 277.518 121.374 277.508 123.163V137.75H271.154V124.297C271.164 122.885 270.806 121.786 270.08 121.001C269.365 120.215 268.36 119.822 267.068 119.822C266.203 119.822 265.437 120.006 264.771 120.374C264.115 120.742 263.597 121.279 263.22 121.985C262.852 122.681 262.663 123.521 262.653 124.506ZM282.508 137.75V114.841H288.862V137.75H282.508ZM285.7 111.888C284.755 111.888 283.945 111.575 283.269 110.948C282.603 110.312 282.27 109.551 282.27 108.666C282.27 107.791 282.603 107.04 283.269 106.414C283.945 105.778 284.755 105.46 285.7 105.46C286.645 105.46 287.45 105.778 288.116 106.414C288.792 107.04 289.13 107.791 289.13 108.666C289.13 109.551 288.792 110.312 288.116 110.948C287.45 111.575 286.645 111.888 285.7 111.888ZM293.952 137.75V114.841H300.111V118.838H300.35C300.768 117.416 301.469 116.342 302.453 115.616C303.437 114.881 304.571 114.513 305.854 114.513C306.172 114.513 306.515 114.533 306.883 114.572C307.251 114.612 307.574 114.667 307.852 114.737V120.374C307.554 120.285 307.141 120.205 306.614 120.136C306.087 120.066 305.605 120.031 305.167 120.031C304.233 120.031 303.398 120.235 302.662 120.643C301.936 121.04 301.359 121.597 300.932 122.313C300.514 123.029 300.305 123.854 300.305 124.789V137.75H293.952ZM318.512 138.123C316.772 138.123 315.196 137.675 313.784 136.781C312.382 135.876 311.269 134.548 310.444 132.798C309.628 131.038 309.221 128.881 309.221 126.325C309.221 123.7 309.643 121.518 310.488 119.778C311.333 118.028 312.457 116.72 313.859 115.855C315.271 114.98 316.817 114.543 318.498 114.543C319.78 114.543 320.849 114.761 321.704 115.199C322.569 115.626 323.265 116.163 323.792 116.81C324.329 117.446 324.737 118.072 325.015 118.689H325.209V107.205H331.548V137.75H325.284V134.081H325.015C324.717 134.717 324.294 135.349 323.748 135.975C323.211 136.592 322.51 137.104 321.645 137.511C320.789 137.919 319.745 138.123 318.512 138.123ZM320.526 133.067C321.55 133.067 322.415 132.788 323.121 132.232C323.837 131.665 324.384 130.874 324.762 129.86C325.15 128.846 325.343 127.658 325.343 126.295C325.343 124.933 325.154 123.75 324.777 122.746C324.399 121.741 323.852 120.966 323.136 120.419C322.42 119.872 321.55 119.599 320.526 119.599C319.482 119.599 318.602 119.882 317.886 120.449C317.17 121.016 316.628 121.801 316.26 122.805C315.892 123.81 315.708 124.973 315.708 126.295C315.708 127.628 315.892 128.806 316.26 129.83C316.638 130.844 317.18 131.64 317.886 132.217C318.602 132.783 319.482 133.067 320.526 133.067ZM346.612 137.75V107.205H358.842C361.089 107.205 362.963 107.538 364.465 108.204C365.966 108.87 367.095 109.795 367.85 110.978C368.606 112.151 368.984 113.504 368.984 115.035C368.984 116.228 368.745 117.277 368.268 118.182C367.791 119.077 367.135 119.812 366.299 120.389C365.474 120.956 364.529 121.359 363.466 121.597V121.896C364.629 121.945 365.718 122.273 366.732 122.88C367.756 123.487 368.586 124.337 369.223 125.43C369.859 126.514 370.177 127.807 370.177 129.308C370.177 130.929 369.775 132.376 368.969 133.648C368.174 134.911 366.995 135.911 365.434 136.646C363.873 137.382 361.949 137.75 359.662 137.75H346.612ZM353.07 132.47H358.335C360.135 132.47 361.447 132.127 362.272 131.441C363.098 130.745 363.51 129.82 363.51 128.667C363.51 127.822 363.306 127.076 362.899 126.43C362.491 125.783 361.909 125.276 361.154 124.908C360.408 124.54 359.518 124.357 358.484 124.357H353.07V132.47ZM353.07 119.987H357.858C358.743 119.987 359.528 119.832 360.214 119.524C360.91 119.206 361.457 118.759 361.855 118.182C362.262 117.605 362.466 116.914 362.466 116.109C362.466 115.005 362.074 114.115 361.288 113.439C360.512 112.763 359.409 112.425 357.977 112.425H353.07V119.987ZM380.793 138.183C379.331 138.183 378.029 137.929 376.885 137.422C375.742 136.905 374.837 136.144 374.171 135.14C373.514 134.126 373.186 132.863 373.186 131.352C373.186 130.079 373.42 129.01 373.887 128.145C374.355 127.28 374.991 126.584 375.796 126.057C376.602 125.53 377.517 125.132 378.541 124.864C379.575 124.595 380.659 124.406 381.792 124.297C383.124 124.158 384.198 124.028 385.014 123.909C385.829 123.78 386.421 123.591 386.789 123.342C387.156 123.094 387.34 122.726 387.34 122.239V122.149C387.34 121.205 387.042 120.474 386.445 119.957C385.859 119.44 385.024 119.181 383.94 119.181C382.796 119.181 381.887 119.435 381.21 119.942C380.534 120.439 380.087 121.065 379.868 121.821L373.992 121.344C374.29 119.952 374.877 118.749 375.752 117.734C376.627 116.71 377.755 115.925 379.137 115.378C380.529 114.821 382.14 114.543 383.97 114.543C385.242 114.543 386.46 114.692 387.624 114.99C388.797 115.288 389.836 115.751 390.741 116.377C391.656 117.004 392.377 117.809 392.904 118.793C393.431 119.768 393.694 120.936 393.694 122.298V137.75H387.669V134.573H387.49C387.122 135.289 386.629 135.92 386.013 136.467C385.396 137.004 384.656 137.427 383.791 137.735C382.926 138.033 381.926 138.183 380.793 138.183ZM382.612 133.798C383.547 133.798 384.372 133.614 385.088 133.246C385.804 132.868 386.366 132.361 386.774 131.724C387.181 131.088 387.385 130.367 387.385 129.562V127.131C387.186 127.26 386.913 127.379 386.565 127.489C386.227 127.588 385.844 127.683 385.416 127.772C384.989 127.852 384.561 127.926 384.134 127.996C383.706 128.055 383.318 128.11 382.97 128.16C382.225 128.269 381.573 128.443 381.017 128.682C380.46 128.92 380.027 129.244 379.719 129.651C379.411 130.049 379.257 130.546 379.257 131.143C379.257 132.008 379.57 132.669 380.196 133.126C380.833 133.574 381.638 133.798 382.612 133.798ZM404.977 124.506V137.75H398.623V114.841H404.679V118.883H404.947C405.454 117.55 406.305 116.496 407.498 115.721C408.691 114.935 410.138 114.543 411.838 114.543C413.429 114.543 414.816 114.891 415.999 115.587C417.182 116.283 418.102 117.277 418.758 118.57C419.415 119.852 419.743 121.384 419.743 123.163V137.75H413.389V124.297C413.399 122.895 413.041 121.801 412.315 121.016C411.589 120.22 410.59 119.822 409.317 119.822C408.462 119.822 407.706 120.006 407.05 120.374C406.404 120.742 405.897 121.279 405.529 121.985C405.171 122.681 404.987 123.521 404.977 124.506ZM430.507 131.158L430.522 123.536H431.447L438.785 114.841H446.078L436.22 126.355H434.713L430.507 131.158ZM424.75 137.75V107.205H431.104V137.75H424.75ZM439.069 137.75L432.327 127.772L436.563 123.283L446.511 137.75H439.069Z" fill="#19213D"/>
<g filter="url(#filter1_dd_1222_3183)">
<rect x="179.75" y="213.75" width="456" height="134" rx="24" fill="white"/>
<rect x="179.25" y="213.25" width="457" height="135" rx="24.5" stroke="#D6DCE5"/>
<path d="M310.501 280.968C310.501 283.058 308.55 283.615 306.182 283.615H300.191V289.188C302.281 289.606 303.256 290.442 303.256 290.999V291.139H296.15V272.887C294.896 272.469 293.921 271.633 293.921 271.076V270.936H312.451V275.952H312.312C311.755 275.952 310.919 274.977 310.501 273.723H300.191V280.55H310.501V280.968Z" fill="#1B459C"/>
<path d="M321.229 291.139H313.845V291C313.845 290.442 314.681 289.606 315.656 289.188V276.092C314.681 275.813 313.845 274.838 313.845 274.281V274.141H321.229V274.281C321.229 274.838 320.393 275.674 319.418 276.092V289.188C320.393 289.467 321.229 290.442 321.229 291V291.139Z" fill="#1B459C"/>
<path d="M338.784 281.944C338.784 284.033 336.833 284.591 334.465 284.591H329.031V289.188C330.424 289.467 331.539 290.442 331.539 291V291.139H325.409V276.092C324.433 275.813 323.597 274.838 323.597 274.281V274.141H341.431V278.739H341.292C340.735 278.739 339.899 277.903 339.481 276.928H329.031V281.944H338.784Z" fill="#1B459C"/>
<path d="M360.101 274.141V278.739H359.961C359.404 278.739 358.568 277.903 358.15 276.928H353.274V289.188C354.667 289.467 355.782 290.442 355.782 291V291.139H347.143V291C347.143 290.442 348.258 289.606 349.651 289.188V276.928H344.914C344.635 277.903 343.66 278.739 343.103 278.739H342.964V274.141H360.101Z" fill="#1B459C"/>
<path d="M367.485 281.108C369.157 280.69 370.968 280.55 372.64 280.69C374.451 280.69 376.123 280.829 377.934 281.108V276.092C376.959 275.813 376.123 274.838 376.123 274.281V274.141H383.507V274.281C383.507 274.838 382.671 275.674 381.696 276.092V289.188C382.671 289.467 383.507 290.442 383.507 291V291.139H378.074V284.173C376.402 283.894 374.59 283.615 372.779 283.755C371.107 283.755 369.296 283.894 367.624 284.173V289.188C368.599 289.467 369.435 290.442 369.435 291V291.139H363.862V276.092C362.887 275.813 362.051 274.838 362.051 274.281V274.141H369.435V274.281C369.435 274.838 368.599 275.674 367.624 276.092L367.485 281.108Z" fill="#1B459C"/>
<path d="M415.413 270.936V275.952C414.856 275.952 413.881 274.977 413.463 273.723H407.332V289.049C408.586 289.467 409.561 290.303 409.561 290.86H401.202C401.202 290.303 402.177 289.327 403.431 289.049V273.862H397.301C396.883 275.116 396.047 276.091 395.49 276.091H395.35V271.076H415.413V270.936Z" fill="#1B459C"/>
<path d="M422.797 281.108C424.469 280.69 426.281 280.55 427.952 280.69C429.764 280.69 431.436 280.829 433.247 281.108V276.092C432.272 275.813 431.436 274.838 431.436 274.281V274.141H438.82V274.281C438.82 274.838 437.984 275.674 437.009 276.092V289.188C437.984 289.467 438.82 290.442 438.82 291V291.139H433.247V284.173C431.575 283.894 429.764 283.615 427.952 283.755C426.281 283.755 424.469 283.894 422.797 284.173V289.188C423.773 289.467 424.609 290.442 424.609 291V291.139H419.036V276.092C418.06 275.813 417.224 274.838 417.224 274.281V274.141H424.609V274.281C424.609 274.838 423.773 275.674 422.797 276.092V281.108Z" fill="#1B459C"/>
<path d="M448.294 291.139H440.91V291C440.91 290.442 441.746 289.606 442.721 289.188V276.092C441.746 275.813 440.91 274.838 440.91 274.281V274.141H448.294V274.281C448.294 274.838 447.458 275.674 446.483 276.092V289.188C447.458 289.467 448.294 290.442 448.294 291V291.139Z" fill="#1B459C"/>
<path d="M457.907 291.139H452.474V276.092C451.498 275.813 450.663 274.838 450.663 274.281V274.141H462.645C466.824 274.141 469.472 275.535 469.472 279.157C469.472 281.944 467.66 283.476 464.874 283.894L468.496 289.188C469.472 289.328 470.586 290.303 470.586 291V291.139H465.431L460.833 284.173H456.236V289.188C457.211 289.467 458.047 290.442 458.047 291L457.907 291.139ZM462.087 281.665C465.152 281.665 465.849 280.69 465.849 279.296C465.849 277.903 465.292 276.928 462.087 276.928H456.236V281.665H462.087Z" fill="#1B459C"/>
<path d="M473.512 276.092C472.536 275.813 471.701 274.838 471.701 274.281V274.141H483.543C488.28 274.141 491.903 276.928 491.903 282.64C491.903 288.353 488.28 291.139 483.543 291.139H473.512V276.092ZM482.15 288.353C486.19 288.353 488.141 287.099 488.141 282.64C488.141 278.182 486.19 276.928 482.15 276.928H477.134V288.353H482.15Z" fill="#1B459C"/>
<path d="M277.62 270.658C277.48 262.438 270.932 255.75 262.712 255.75H221.75V290.581C221.75 298.802 228.438 305.35 236.658 305.489H277.62V270.658Z" fill="#00AE64"/>
<path d="M262.712 258.397H224.397V290.581C224.397 297.269 229.831 302.703 236.518 302.703H274.833V270.518C274.833 263.831 269.399 258.397 262.712 258.397Z" fill="white"/>
<path d="M262.572 260.209H226.208V290.582C226.208 296.433 230.946 301.031 236.658 301.031H273.161V270.658C273.161 264.946 268.424 260.209 262.572 260.209Z" fill="#1B459C"/>
<path d="M246.829 296.155L255.188 264.388H253.238L244.878 296.294L246.829 296.155ZM263.826 285.287C265.22 285.009 266.474 284.451 267.449 283.337C268.285 282.222 268.703 280.829 268.285 279.436C268.006 278.182 267.17 277.067 266.056 276.231C265.08 275.535 263.966 275.117 262.851 275.117H253.934C256.164 275.813 257.835 277.485 258.532 279.714C258.532 279.714 259.925 284.033 254.074 285.287C255.188 285.705 256.164 286.402 257.139 287.377C257.835 288.074 258.253 289.049 258.532 289.885C259.507 294.483 253.934 295.597 253.934 295.597H262.573C265.638 295.597 266.892 293.926 267.17 293.647C268.146 292.672 268.564 291.278 268.285 289.885C268.006 288.77 267.449 287.656 266.474 286.959C265.777 286.263 264.802 285.705 263.826 285.287ZM245.435 283.337C246.271 282.501 246.55 280.69 246.132 279.157C245.714 277.764 244.878 276.51 243.764 275.674C242.788 274.977 241.674 274.42 240.42 274.281H230.946C233.314 274.977 235.125 276.788 235.961 279.157C236.937 284.033 231.364 285.009 231.364 285.009H241.813C243.067 285.009 244.46 284.451 245.435 283.337ZM244.46 265.224L244.321 272.33H230.806V265.224H244.46Z" fill="white"/>
<path d="M517.957 287.934C521.44 287.934 522.694 286.959 522.694 285.148C522.694 283.337 521.44 282.222 517.957 282.222H510.155V287.934H517.957ZM517.818 279.017C520.325 279.017 522.137 278.46 522.137 276.37C522.137 274.42 520.325 274.141 517.818 274.141H510.155V279.017H517.818ZM518.235 271.076C522.973 271.076 526.038 272.33 526.038 276.092C526.038 278.46 524.366 279.993 521.579 280.689C524.784 281.247 526.595 282.919 526.595 285.566C526.595 288.77 523.809 291.278 519.071 291.278H505.975V273.166C504.721 272.748 503.885 271.912 503.885 271.354V271.076H518.235Z" fill="#1B459C"/>
<path d="M550.42 276.092C549.445 275.813 548.609 274.838 548.609 274.281V274.141H553.903L565.049 285.705V276.092C564.074 275.813 563.238 274.838 563.238 274.281V274.141H570.204V274.281C570.204 274.838 569.368 275.674 568.393 276.092V289.188C569.368 289.467 570.204 290.442 570.204 291V291.139H565.328L553.764 279.296V289.188C554.739 289.467 555.575 290.442 555.575 291V291.139H550.42V276.092Z" fill="#1B459C"/>
<path d="M585.39 275.813C584.972 275.395 584.554 274.977 584.554 274.281V274.141H591.521V274.281C591.521 275.117 590.406 275.953 589.57 276.092L583.44 281.247L590.267 289.188C591.103 289.467 592.357 290.164 592.357 291V291.139H587.202L580.793 283.337L578.145 285.427V289.188C579.121 289.467 579.957 290.442 579.957 291V291.139H574.523V276.092C573.548 275.813 572.712 274.838 572.712 274.281V274.141H579.957V274.281C579.957 274.838 579.121 275.674 578.145 276.092V281.944L585.39 275.813Z" fill="#1B459C"/>
<path d="M536.905 278.321L534.258 284.172C536.209 284.033 538.159 284.033 539.97 284.172L537.184 278.181H536.905V278.321ZM533.701 290.999V291.138H526.595V290.999C526.595 290.163 527.71 289.327 528.546 289.188L534.676 275.952C533.979 275.673 533.283 274.977 533.283 274.419V274.28H541.364V274.419C541.364 274.977 540.528 275.673 539.97 275.952L546.519 289.188C547.355 289.327 548.469 290.163 548.469 290.999V291.138H540.806V290.999C540.806 290.163 541.782 289.467 542.478 289.327L541.503 287.237C538.716 286.819 535.791 286.819 533.004 287.237L532.029 289.327C533.004 289.327 533.701 290.024 533.701 290.999Z" fill="#1B459C"/>
</g>
</g>
<defs>
<filter id="filter0_dd_1222_3183" x="0" y="0" width="815.5" height="493.5" filterUnits="userSpaceOnUse" color-interpolation-filters="sRGB">
<feFlood flood-opacity="0" result="BackgroundImageFix"/>
<feColorMatrix in="SourceAlpha" type="matrix" values="0 0 0 0 0 0 0 0 0 0 0 0 0 0 0 0 0 0 127 0" result="hardAlpha"/>
<feOffset dy="20"/>
<feGaussianBlur stdDeviation="20"/>
<feColorMatrix type="matrix" values="0 0 0 0 0.717647 0 0 0 0 0.717647 0 0 0 0 0.717647 0 0 0 0.06 0"/>
<feBlend mode="normal" in2="BackgroundImageFix" result="effect1_dropShadow_1222_3183"/>
<feColorMatrix in="SourceAlpha" type="matrix" values="0 0 0 0 0 0 0 0 0 0 0 0 0 0 0 0 0 0 127 0" result="hardAlpha"/>
<feOffset dy="4"/>
<feGaussianBlur stdDeviation="7"/>
<feColorMatrix type="matrix" values="0 0 0 0 0.716667 0 0 0 0 0.716667 0 0 0 0 0.716667 0 0 0 0.02 0"/>
<feBlend mode="normal" in2="effect1_dropShadow_1222_3183" result="effect2_dropShadow_1222_3183"/>
<feBlend mode="normal" in="SourceGraphic" in2="effect2_dropShadow_1222_3183" result="shape"/>
</filter>
<filter id="filter1_dd_1222_3183" x="138.75" y="192.75" width="538" height="216" filterUnits="userSpaceOnUse" color-interpolation-filters="sRGB">
<feFlood flood-opacity="0" result="BackgroundImageFix"/>
<feColorMatrix in="SourceAlpha" type="matrix" values="0 0 0 0 0 0 0 0 0 0 0 0 0 0 0 0 0 0 127 0" result="hardAlpha"/>
<feOffset dy="2"/>
<feGaussianBlur stdDeviation="10"/>
<feColorMatrix type="matrix" values="0 0 0 0 0.717647 0 0 0 0 0.717647 0 0 0 0 0.717647 0 0 0 0.08 0"/>
<feBlend mode="normal" in2="BackgroundImageFix" result="effect1_dropShadow_1222_3183"/>
<feColorMatrix in="SourceAlpha" type="matrix" values="0 0 0 0 0 0 0 0 0 0 0 0 0 0 0 0 0 0 127 0" result="hardAlpha"/>
<feOffset dy="20"/>
<feGaussianBlur stdDeviation="20"/>
<feColorMatrix type="matrix" values="0 0 0 0 0.717647 0 0 0 0 0.717647 0 0 0 0 0.717647 0 0 0 0.08 0"/>
<feBlend mode="normal" in2="effect1_dropShadow_1222_3183" result="effect2_dropShadow_1222_3183"/>
<feBlend mode="normal" in="SourceGraphic" in2="effect2_dropShadow_1222_3183" result="shape"/>
</filter>
</defs>
</svg>
