<svg width="1560" height="494" viewBox="0 0 1560 494" fill="none" xmlns="http://www.w3.org/2000/svg">
<g filter="url(#filter0_dd_1217_6132)">
<rect x="40.75" y="20.75" width="1478" height="412" rx="40" fill="white"/>
<rect x="40.75" y="20.75" width="1478" height="412" rx="40" stroke="#EBEFF6" stroke-width="1.5"/>
<path d="M143.659 117.078C143.45 116.352 143.157 115.711 142.779 115.154C142.401 114.587 141.939 114.11 141.392 113.722C140.855 113.325 140.239 113.021 139.543 112.812C138.857 112.604 138.096 112.499 137.261 112.499C135.7 112.499 134.327 112.887 133.144 113.663C131.971 114.438 131.056 115.567 130.4 117.048C129.744 118.52 129.415 120.32 129.415 122.447C129.415 124.575 129.739 126.385 130.385 127.876C131.031 129.368 131.946 130.506 133.129 131.292C134.312 132.067 135.71 132.455 137.32 132.455C138.782 132.455 140.03 132.197 141.064 131.68C142.108 131.153 142.903 130.412 143.45 129.457C144.007 128.503 144.286 127.374 144.286 126.072L145.598 126.266H137.723V121.403H150.505V125.251C150.505 127.936 149.938 130.243 148.805 132.172C147.671 134.091 146.11 135.572 144.121 136.616C142.133 137.651 139.856 138.168 137.29 138.168C134.427 138.168 131.911 137.536 129.744 136.273C127.576 135.001 125.886 133.196 124.673 130.859C123.469 128.513 122.868 125.729 122.868 122.507C122.868 120.031 123.226 117.824 123.942 115.885C124.668 113.936 125.682 112.286 126.984 110.933C128.287 109.581 129.803 108.552 131.533 107.846C133.263 107.14 135.138 106.787 137.156 106.787C138.886 106.787 140.497 107.04 141.989 107.548C143.48 108.045 144.803 108.751 145.956 109.665C147.119 110.58 148.069 111.669 148.805 112.932C149.54 114.185 150.013 115.567 150.222 117.078H143.659ZM165.588 138.197C163.271 138.197 161.267 137.705 159.577 136.721C157.896 135.727 156.599 134.344 155.684 132.575C154.769 130.795 154.312 128.732 154.312 126.385C154.312 124.018 154.769 121.95 155.684 120.18C156.599 118.401 157.896 117.018 159.577 116.034C161.267 115.04 163.271 114.543 165.588 114.543C167.904 114.543 169.903 115.04 171.583 116.034C173.274 117.018 174.576 118.401 175.491 120.18C176.406 121.95 176.863 124.018 176.863 126.385C176.863 128.732 176.406 130.795 175.491 132.575C174.576 134.344 173.274 135.727 171.583 136.721C169.903 137.705 167.904 138.197 165.588 138.197ZM165.617 133.276C166.671 133.276 167.551 132.977 168.257 132.381C168.963 131.774 169.495 130.949 169.853 129.905C170.221 128.861 170.405 127.673 170.405 126.34C170.405 125.008 170.221 123.82 169.853 122.776C169.495 121.732 168.963 120.906 168.257 120.3C167.551 119.693 166.671 119.39 165.617 119.39C164.553 119.39 163.659 119.693 162.933 120.3C162.217 120.906 161.675 121.732 161.307 122.776C160.949 123.82 160.77 125.008 160.77 126.34C160.77 127.673 160.949 128.861 161.307 129.905C161.675 130.949 162.217 131.774 162.933 132.381C163.659 132.977 164.553 133.276 165.617 133.276ZM191.345 138.197C189.029 138.197 187.025 137.705 185.335 136.721C183.654 135.727 182.357 134.344 181.442 132.575C180.527 130.795 180.07 128.732 180.07 126.385C180.07 124.018 180.527 121.95 181.442 120.18C182.357 118.401 183.654 117.018 185.335 116.034C187.025 115.04 189.029 114.543 191.345 114.543C193.662 114.543 195.661 115.04 197.341 116.034C199.031 117.018 200.334 118.401 201.249 120.18C202.164 121.95 202.621 124.018 202.621 126.385C202.621 128.732 202.164 130.795 201.249 132.575C200.334 134.344 199.031 135.727 197.341 136.721C195.661 137.705 193.662 138.197 191.345 138.197ZM191.375 133.276C192.429 133.276 193.309 132.977 194.015 132.381C194.721 131.774 195.253 130.949 195.611 129.905C195.979 128.861 196.163 127.673 196.163 126.34C196.163 125.008 195.979 123.82 195.611 122.776C195.253 121.732 194.721 120.906 194.015 120.3C193.309 119.693 192.429 119.39 191.375 119.39C190.311 119.39 189.416 119.693 188.691 120.3C187.975 120.906 187.433 121.732 187.065 122.776C186.707 123.82 186.528 125.008 186.528 126.34C186.528 127.673 186.707 128.861 187.065 129.905C187.433 130.949 187.975 131.774 188.691 132.381C189.416 132.977 190.311 133.276 191.375 133.276ZM217.073 146.818C215.015 146.818 213.25 146.535 211.779 145.968C210.317 145.411 209.154 144.651 208.289 143.686C207.423 142.722 206.862 141.638 206.603 140.435L212.48 139.644C212.659 140.102 212.942 140.529 213.33 140.927C213.718 141.325 214.23 141.643 214.866 141.881C215.512 142.13 216.298 142.254 217.222 142.254C218.605 142.254 219.743 141.916 220.638 141.24C221.543 140.574 221.995 139.455 221.995 137.884V133.693H221.727C221.448 134.33 221.031 134.931 220.474 135.498C219.917 136.065 219.201 136.527 218.326 136.885C217.451 137.243 216.407 137.422 215.194 137.422C213.474 137.422 211.908 137.024 210.496 136.229C209.094 135.423 207.975 134.195 207.14 132.545C206.315 130.884 205.902 128.786 205.902 126.251C205.902 123.656 206.325 121.488 207.17 119.748C208.015 118.008 209.139 116.705 210.541 115.84C211.953 114.975 213.499 114.543 215.179 114.543C216.462 114.543 217.536 114.761 218.401 115.199C219.266 115.626 219.962 116.163 220.489 116.81C221.026 117.446 221.438 118.072 221.727 118.689H221.965V114.841H228.274V137.974C228.274 139.923 227.797 141.553 226.843 142.866C225.888 144.178 224.566 145.163 222.875 145.819C221.195 146.485 219.261 146.818 217.073 146.818ZM217.208 132.649C218.232 132.649 219.097 132.396 219.803 131.888C220.519 131.371 221.066 130.636 221.443 129.681C221.831 128.717 222.025 127.563 222.025 126.221C222.025 124.879 221.836 123.715 221.458 122.731C221.08 121.737 220.534 120.966 219.818 120.419C219.102 119.872 218.232 119.599 217.208 119.599C216.164 119.599 215.284 119.882 214.568 120.449C213.852 121.006 213.31 121.781 212.942 122.776C212.574 123.77 212.39 124.918 212.39 126.221C212.39 127.543 212.574 128.687 212.942 129.651C213.32 130.606 213.862 131.347 214.568 131.874C215.284 132.391 216.164 132.649 217.208 132.649ZM239.684 107.205V137.75H233.33V107.205H239.684ZM255.214 138.197C252.858 138.197 250.829 137.72 249.129 136.766C247.439 135.801 246.136 134.439 245.221 132.679C244.306 130.909 243.849 128.816 243.849 126.4C243.849 124.043 244.306 121.975 245.221 120.195C246.136 118.415 247.424 117.028 249.084 116.034C250.755 115.04 252.713 114.543 254.961 114.543C256.472 114.543 257.879 114.786 259.181 115.273C260.494 115.751 261.637 116.472 262.612 117.436C263.596 118.401 264.362 119.614 264.909 121.075C265.456 122.527 265.729 124.227 265.729 126.176V127.921H246.385V123.984H259.748C259.748 123.069 259.549 122.259 259.152 121.553C258.754 120.847 258.202 120.295 257.496 119.897C256.8 119.489 255.99 119.286 255.065 119.286C254.1 119.286 253.245 119.509 252.5 119.957C251.764 120.394 251.187 120.986 250.77 121.732C250.352 122.467 250.138 123.288 250.128 124.192V127.936C250.128 129.07 250.337 130.049 250.755 130.874C251.182 131.7 251.784 132.336 252.559 132.783C253.335 133.231 254.255 133.455 255.319 133.455C256.025 133.455 256.671 133.355 257.257 133.156C257.844 132.957 258.346 132.659 258.764 132.261C259.181 131.864 259.5 131.376 259.718 130.8L265.595 131.188C265.297 132.599 264.685 133.832 263.76 134.886C262.846 135.93 261.662 136.746 260.211 137.332C258.769 137.909 257.103 138.197 255.214 138.197ZM279.715 137.75V107.205H291.767C294.083 107.205 296.057 107.647 297.688 108.532C299.318 109.407 300.561 110.625 301.416 112.186C302.281 113.737 302.714 115.527 302.714 117.555C302.714 119.584 302.276 121.374 301.401 122.925C300.526 124.476 299.259 125.684 297.598 126.549C295.948 127.414 293.949 127.847 291.602 127.847H283.921V122.671H290.558C291.801 122.671 292.825 122.457 293.631 122.03C294.446 121.592 295.053 120.991 295.45 120.225C295.858 119.45 296.062 118.56 296.062 117.555C296.062 116.541 295.858 115.656 295.45 114.901C295.053 114.135 294.446 113.543 293.631 113.126C292.816 112.698 291.781 112.484 290.529 112.484H286.173V137.75H279.715ZM312.707 138.183C311.245 138.183 309.943 137.929 308.799 137.422C307.656 136.905 306.751 136.144 306.085 135.14C305.428 134.126 305.1 132.863 305.1 131.352C305.1 130.079 305.334 129.01 305.801 128.145C306.269 127.28 306.905 126.584 307.71 126.057C308.516 125.53 309.431 125.132 310.455 124.864C311.489 124.595 312.573 124.406 313.706 124.297C315.039 124.158 316.112 124.028 316.928 123.909C317.743 123.78 318.335 123.591 318.703 123.342C319.07 123.094 319.254 122.726 319.254 122.239V122.149C319.254 121.205 318.956 120.474 318.36 119.957C317.773 119.44 316.938 119.181 315.854 119.181C314.71 119.181 313.801 119.435 313.124 119.942C312.448 120.439 312.001 121.065 311.782 121.821L305.906 121.344C306.204 119.952 306.791 118.749 307.666 117.734C308.541 116.71 309.669 115.925 311.051 115.378C312.443 114.821 314.054 114.543 315.884 114.543C317.156 114.543 318.374 114.692 319.538 114.99C320.711 115.288 321.75 115.751 322.655 116.377C323.57 117.004 324.291 117.809 324.818 118.793C325.345 119.768 325.608 120.936 325.608 122.298V137.75H319.583V134.573H319.404C319.036 135.289 318.544 135.92 317.927 136.467C317.311 137.004 316.57 137.427 315.705 137.735C314.84 138.033 313.84 138.183 312.707 138.183ZM314.526 133.798C315.461 133.798 316.286 133.614 317.002 133.246C317.718 132.868 318.28 132.361 318.688 131.724C319.095 131.088 319.299 130.367 319.299 129.562V127.131C319.1 127.26 318.827 127.379 318.479 127.489C318.141 127.588 317.758 127.683 317.33 127.772C316.903 127.852 316.475 127.926 316.048 127.996C315.62 128.055 315.232 128.11 314.884 128.16C314.139 128.269 313.487 128.443 312.931 128.682C312.374 128.92 311.941 129.244 311.633 129.651C311.325 130.049 311.171 130.546 311.171 131.143C311.171 132.008 311.484 132.669 312.11 133.126C312.747 133.574 313.552 133.798 314.526 133.798ZM333.64 146.341C332.834 146.341 332.079 146.276 331.373 146.147C330.677 146.028 330.1 145.874 329.643 145.685L331.074 140.942C331.82 141.17 332.491 141.295 333.088 141.315C333.694 141.335 334.216 141.195 334.654 140.897C335.101 140.599 335.464 140.092 335.743 139.376L336.116 138.406L327.898 114.841H334.579L339.322 131.665H339.561L344.349 114.841H351.075L342.171 140.226C341.743 141.459 341.162 142.533 340.426 143.447C339.7 144.372 338.78 145.083 337.667 145.58C336.553 146.087 335.211 146.341 333.64 146.341Z" fill="#19213D"/>
<a href="https://developers.google.com/pay/api/web/guides/brand-guidelines">
<rect fill="black" fill-opacity="0" y="1.58523" width="231.041" height="50.8295"/>
</a>
<g filter="url(#filter1_dd_1217_6132)">
<rect x="486.75" y="213.75" width="208" height="134" rx="24" fill="white"/>
<rect x="486.25" y="213.25" width="209" height="135" rx="24.5" stroke="#D6DCE5"/>
<path d="M586.229 296.809H581.55V260.406H593.953C597.096 260.406 599.776 261.453 601.969 263.549C604.211 265.644 605.332 268.203 605.332 271.224C605.332 274.319 604.211 276.877 601.969 278.948C599.801 281.02 597.12 282.043 593.953 282.043H586.229V296.809ZM586.229 264.889V277.584H594.05C595.902 277.584 597.461 276.95 598.68 275.708C599.922 274.465 600.556 272.954 600.556 271.249C600.556 269.567 599.922 268.081 598.68 266.838C597.461 265.547 595.926 264.913 594.05 264.913H586.229V264.889Z" fill="#3C4043"/>
<path d="M617.563 271.078C621.023 271.078 623.752 272.004 625.75 273.856C627.748 275.708 628.747 278.242 628.747 281.458V296.809H624.288V293.349H624.093C622.168 296.2 619.585 297.613 616.369 297.613C613.616 297.613 611.325 296.809 609.473 295.176C607.622 293.544 606.696 291.522 606.696 289.085C606.696 286.502 607.67 284.455 609.62 282.945C611.569 281.409 614.176 280.654 617.417 280.654C620.195 280.654 622.485 281.166 624.264 282.189V281.117C624.264 279.485 623.63 278.12 622.339 276.975C621.047 275.83 619.537 275.269 617.807 275.269C615.2 275.269 613.128 276.366 611.618 278.583L607.5 276C609.766 272.711 613.128 271.078 617.563 271.078ZM611.52 289.158C611.52 290.376 612.032 291.4 613.08 292.204C614.103 293.008 615.321 293.422 616.71 293.422C618.684 293.422 620.438 292.691 621.973 291.229C623.508 289.767 624.288 288.062 624.288 286.088C622.826 284.943 620.804 284.358 618.197 284.358C616.296 284.358 614.712 284.821 613.445 285.722C612.154 286.673 611.52 287.818 611.52 289.158Z" fill="#3C4043"/>
<path d="M654.186 271.882L638.591 307.75H633.767L639.566 295.201L629.283 271.882H634.376L641.783 289.767H641.881L649.093 271.882H654.186Z" fill="#3C4043"/>
<path d="M567.62 279.095C567.62 277.569 567.483 276.11 567.23 274.706H547.62V282.747L558.914 282.75C558.456 285.425 556.981 287.706 554.723 289.226V294.443H561.445C565.371 290.81 567.62 285.44 567.62 279.095Z" fill="#4285F4"/>
<path d="M554.725 289.226C552.854 290.489 550.444 291.227 547.625 291.227C542.179 291.227 537.559 287.557 535.905 282.611H528.97V287.991C532.406 294.809 539.467 299.487 547.625 299.487C553.263 299.487 558 297.633 561.448 294.441L554.725 289.226Z" fill="#34A853"/>
<path d="M535.251 278.62C535.251 277.231 535.483 275.888 535.904 274.626V269.246H528.97C527.549 272.065 526.75 275.247 526.75 278.62C526.75 281.992 527.552 285.174 528.97 287.993L535.904 282.613C535.483 281.351 535.251 280.008 535.251 278.62Z" fill="#FABB05"/>
<path d="M547.625 266.01C550.702 266.01 553.458 267.07 555.634 269.141L561.591 263.188C557.973 259.818 553.256 257.75 547.625 257.75C539.469 257.75 532.405 262.428 528.97 269.246L535.904 274.626C537.559 269.679 542.179 266.01 547.625 266.01Z" fill="#E94235"/>
</g>
<g filter="url(#filter2_dd_1217_6132)">
<rect x="120.25" y="213.25" width="327" height="135" rx="24.5" stroke="#D6DCE5"/>
<path d="M321.05 237.75H246.25C222.875 237.75 203.75 256.875 203.75 280.25C203.75 303.625 222.875 322.75 246.25 322.75H321.05C344.425 322.75 363.55 303.625 363.55 280.25C363.55 256.875 344.425 237.75 321.05 237.75Z" fill="white"/>
<path d="M321.05 241.192C326.299 241.192 331.399 242.234 336.201 244.274C340.855 246.25 345.02 249.076 348.632 252.667C352.224 256.259 355.05 260.445 357.026 265.099C359.066 269.901 360.107 275.001 360.107 280.25C360.107 285.499 359.066 290.599 357.026 295.401C355.05 300.055 352.224 304.22 348.632 307.832C345.041 311.424 340.855 314.25 336.201 316.226C331.399 318.266 326.299 319.308 321.05 319.308H246.25C241.001 319.308 235.901 318.266 231.099 316.226C226.445 314.25 222.28 311.424 218.667 307.832C215.076 304.241 212.25 300.055 210.274 295.401C208.234 290.599 207.192 285.499 207.192 280.25C207.192 275.001 208.234 269.901 210.274 265.099C212.25 260.445 215.076 256.28 218.667 252.667C222.259 249.076 226.445 246.25 231.099 244.274C235.901 242.234 241.001 241.192 246.25 241.192H321.05ZM321.05 237.75H246.25C222.875 237.75 203.75 256.875 203.75 280.25C203.75 303.625 222.875 322.75 246.25 322.75H321.05C344.425 322.75 363.55 303.625 363.55 280.25C363.55 256.875 344.425 237.75 321.05 237.75Z" fill="#3C4043"/>
<path d="M279.952 296.124H275.872V264.376H286.689C289.43 264.376 291.767 265.29 293.68 267.117C295.635 268.945 296.612 271.176 296.612 273.811C296.612 276.51 295.635 278.741 293.68 280.547C291.789 282.354 289.451 283.246 286.689 283.246H279.952V296.124ZM279.952 268.286V279.357H286.774C288.389 279.357 289.749 278.805 290.811 277.721C291.895 276.637 292.447 275.32 292.447 273.832C292.447 272.366 291.895 271.07 290.811 269.986C289.749 268.86 288.41 268.307 286.774 268.307H279.952V268.286Z" fill="#3C4043"/>
<path d="M307.28 273.684C310.297 273.684 312.677 274.491 314.42 276.106C316.162 277.721 317.033 279.931 317.033 282.736V296.124H313.145V293.106H312.975C311.296 295.592 309.043 296.825 306.238 296.825C303.837 296.825 301.84 296.124 300.225 294.7C298.61 293.276 297.802 291.512 297.802 289.387C297.802 287.135 298.652 285.35 300.352 284.032C302.052 282.694 304.326 282.035 307.152 282.035C309.575 282.035 311.572 282.481 313.123 283.374V282.439C313.123 281.015 312.571 279.825 311.445 278.826C310.318 277.827 309.001 277.339 307.492 277.339C305.218 277.339 303.412 278.295 302.095 280.229L298.503 277.976C300.48 275.107 303.412 273.684 307.28 273.684ZM302.01 289.451C302.01 290.514 302.456 291.406 303.37 292.107C304.262 292.809 305.325 293.17 306.536 293.17C308.257 293.17 309.787 292.532 311.126 291.257C312.465 289.982 313.145 288.495 313.145 286.774C311.87 285.775 310.106 285.265 307.832 285.265C306.175 285.265 304.793 285.669 303.688 286.455C302.562 287.284 302.01 288.282 302.01 289.451Z" fill="#3C4043"/>
<path d="M339.218 274.385L325.618 305.665H321.411L326.468 294.721L317.501 274.385H321.942L328.402 289.983H328.487L334.777 274.385H339.218Z" fill="#3C4043"/>
<path d="M263.724 280.675C263.724 279.345 263.605 278.072 263.384 276.848H246.282V283.86L256.131 283.862C255.731 286.196 254.446 288.185 252.476 289.511V294.06H258.339C261.762 290.892 263.724 286.208 263.724 280.675Z" fill="#4285F4"/>
<path d="M252.478 289.511C250.846 290.612 248.745 291.255 246.286 291.255C241.537 291.255 237.508 288.055 236.065 283.741H230.017V288.433C233.013 294.379 239.172 298.459 246.286 298.459C251.203 298.459 255.334 296.842 258.341 294.058L252.478 289.511Z" fill="#34A853"/>
<path d="M235.495 280.26C235.495 279.049 235.697 277.878 236.065 276.778V272.086H230.017C228.778 274.544 228.081 277.319 228.081 280.26C228.081 283.201 228.78 285.977 230.017 288.435L236.065 283.743C235.697 282.643 235.495 281.472 235.495 280.26Z" fill="#FABB05"/>
<path d="M246.286 269.264C248.97 269.264 251.373 270.188 253.271 271.994L258.467 266.803C255.311 263.864 251.197 262.06 246.286 262.06C239.174 262.06 233.013 266.14 230.017 272.086L236.065 276.778C237.508 272.464 241.537 269.264 246.286 269.264Z" fill="#E94235"/>
</g>
<g filter="url(#filter3_dd_1217_6132)">
<rect x="734.75" y="213.75" width="208" height="134" rx="24" fill="#000008"/>
<rect x="734.25" y="213.25" width="209" height="135" rx="24.5" stroke="#D6DCE5"/>
<path d="M834.229 296.809H829.55V260.406H841.953C845.096 260.406 847.776 261.453 849.969 263.549C852.211 265.644 853.332 268.203 853.332 271.224C853.332 274.319 852.211 276.877 849.969 278.948C847.801 281.02 845.12 282.043 841.953 282.043H834.229V296.809ZM834.229 264.889V277.584H842.05C843.902 277.584 845.461 276.95 846.68 275.708C847.922 274.465 848.556 272.954 848.556 271.249C848.556 269.567 847.922 268.081 846.68 266.838C845.461 265.547 843.926 264.913 842.05 264.913H834.229V264.889Z" fill="white"/>
<path d="M865.563 271.078C869.023 271.078 871.752 272.004 873.75 273.856C875.748 275.708 876.747 278.242 876.747 281.458V296.809H872.288V293.349H872.093C870.168 296.2 867.585 297.613 864.369 297.613C861.616 297.613 859.325 296.809 857.473 295.176C855.622 293.544 854.696 291.522 854.696 289.085C854.696 286.502 855.67 284.455 857.62 282.945C859.569 281.409 862.176 280.654 865.417 280.654C868.195 280.654 870.485 281.166 872.264 282.189V281.117C872.264 279.485 871.63 278.12 870.339 276.975C869.047 275.83 867.537 275.269 865.807 275.269C863.2 275.269 861.128 276.366 859.618 278.583L855.5 276C857.766 272.711 861.128 271.078 865.563 271.078ZM859.52 289.158C859.52 290.376 860.032 291.4 861.08 292.204C862.103 293.008 863.321 293.422 864.71 293.422C866.684 293.422 868.438 292.691 869.973 291.229C871.508 289.767 872.288 288.062 872.288 286.088C870.826 284.943 868.804 284.358 866.197 284.358C864.296 284.358 862.712 284.821 861.445 285.722C860.154 286.673 859.52 287.818 859.52 289.158Z" fill="white"/>
<path d="M902.186 271.882L886.591 307.75H881.767L887.566 295.201L877.283 271.882H882.376L889.783 289.767H889.881L897.093 271.882H902.186Z" fill="white"/>
<path d="M815.62 279.095C815.62 277.569 815.483 276.11 815.23 274.706H795.62V282.747L806.914 282.75C806.456 285.425 804.981 287.706 802.723 289.226V294.443H809.445C813.371 290.81 815.62 285.44 815.62 279.095Z" fill="#4285F4"/>
<path d="M802.725 289.226C800.854 290.489 798.444 291.227 795.625 291.227C790.179 291.227 785.559 287.557 783.905 282.611H776.97V287.991C780.406 294.809 787.467 299.487 795.625 299.487C801.263 299.487 806 297.633 809.448 294.441L802.725 289.226Z" fill="#34A853"/>
<path d="M783.251 278.62C783.251 277.231 783.483 275.888 783.904 274.626V269.246H776.97C775.549 272.065 774.75 275.247 774.75 278.62C774.75 281.992 775.552 285.174 776.97 287.993L783.904 282.613C783.483 281.351 783.251 280.008 783.251 278.62Z" fill="#FABB05"/>
<path d="M795.625 266.01C798.702 266.01 801.458 267.07 803.634 269.141L809.591 263.188C805.973 259.818 801.256 257.75 795.625 257.75C787.469 257.75 780.405 262.428 776.97 269.246L783.904 274.626C785.559 269.679 790.179 266.01 795.625 266.01Z" fill="#E94235"/>
</g>
<g filter="url(#filter4_dd_1217_6132)">
<rect x="982.75" y="213.75" width="208" height="134" rx="24" fill="#EBF2FD"/>
<rect x="982.25" y="213.25" width="209" height="135" rx="24.5" stroke="#D6DCE5"/>
<path d="M1082.23 296.809H1077.55V260.406H1089.95C1093.1 260.406 1095.78 261.453 1097.97 263.549C1100.21 265.644 1101.33 268.203 1101.33 271.224C1101.33 274.319 1100.21 276.877 1097.97 278.948C1095.8 281.02 1093.12 282.043 1089.95 282.043H1082.23V296.809ZM1082.23 264.889V277.584H1090.05C1091.9 277.584 1093.46 276.95 1094.68 275.708C1095.92 274.465 1096.56 272.954 1096.56 271.249C1096.56 269.567 1095.92 268.081 1094.68 266.838C1093.46 265.547 1091.93 264.913 1090.05 264.913H1082.23V264.889Z" fill="#3C4043"/>
<path d="M1113.56 271.078C1117.02 271.078 1119.75 272.004 1121.75 273.856C1123.75 275.708 1124.75 278.242 1124.75 281.458V296.809H1120.29V293.349H1120.09C1118.17 296.2 1115.59 297.613 1112.37 297.613C1109.62 297.613 1107.33 296.809 1105.47 295.176C1103.62 293.544 1102.7 291.522 1102.7 289.085C1102.7 286.502 1103.67 284.455 1105.62 282.945C1107.57 281.409 1110.18 280.654 1113.42 280.654C1116.19 280.654 1118.49 281.166 1120.26 282.189V281.117C1120.26 279.485 1119.63 278.12 1118.34 276.975C1117.05 275.83 1115.54 275.269 1113.81 275.269C1111.2 275.269 1109.13 276.366 1107.62 278.583L1103.5 276C1105.77 272.711 1109.13 271.078 1113.56 271.078ZM1107.52 289.158C1107.52 290.376 1108.03 291.4 1109.08 292.204C1110.1 293.008 1111.32 293.422 1112.71 293.422C1114.68 293.422 1116.44 292.691 1117.97 291.229C1119.51 289.767 1120.29 288.062 1120.29 286.088C1118.83 284.943 1116.8 284.358 1114.2 284.358C1112.3 284.358 1110.71 284.821 1109.45 285.722C1108.15 286.673 1107.52 287.818 1107.52 289.158Z" fill="#3C4043"/>
<path d="M1150.19 271.882L1134.59 307.75H1129.77L1135.57 295.201L1125.28 271.882H1130.38L1137.78 289.767H1137.88L1145.09 271.882H1150.19Z" fill="#3C4043"/>
<path d="M1063.62 279.095C1063.62 277.569 1063.48 276.11 1063.23 274.706H1043.62V282.747L1054.91 282.75C1054.46 285.425 1052.98 287.706 1050.72 289.226V294.443H1057.45C1061.37 290.81 1063.62 285.44 1063.62 279.095Z" fill="#4285F4"/>
<path d="M1050.73 289.226C1048.85 290.489 1046.44 291.227 1043.62 291.227C1038.18 291.227 1033.56 287.557 1031.9 282.611H1024.97V287.991C1028.41 294.809 1035.47 299.487 1043.62 299.487C1049.26 299.487 1054 297.633 1057.45 294.441L1050.73 289.226Z" fill="#34A853"/>
<path d="M1031.25 278.62C1031.25 277.231 1031.48 275.888 1031.9 274.626V269.246H1024.97C1023.55 272.065 1022.75 275.247 1022.75 278.62C1022.75 281.992 1023.55 285.174 1024.97 287.993L1031.9 282.613C1031.48 281.351 1031.25 280.008 1031.25 278.62Z" fill="#FABB05"/>
<path d="M1043.62 266.01C1046.7 266.01 1049.46 267.07 1051.63 269.141L1057.59 263.188C1053.97 259.818 1049.26 257.75 1043.62 257.75C1035.47 257.75 1028.41 262.428 1024.97 269.246L1031.9 274.626C1033.56 269.679 1038.18 266.01 1043.62 266.01Z" fill="#E94235"/>
</g>
<g filter="url(#filter5_dd_1217_6132)">
<rect x="1230.75" y="213.75" width="208" height="134" rx="24" fill="#393652"/>
<rect x="1230.25" y="213.25" width="209" height="135" rx="24.5" stroke="#D6DCE5"/>
<path d="M1330.23 295.809H1325.55V259.406H1337.95C1341.1 259.406 1343.78 260.453 1345.97 262.549C1348.21 264.644 1349.33 267.203 1349.33 270.224C1349.33 273.319 1348.21 275.877 1345.97 277.948C1343.8 280.02 1341.12 281.043 1337.95 281.043H1330.23V295.809ZM1330.23 263.889V276.584H1338.05C1339.9 276.584 1341.46 275.95 1342.68 274.708C1343.92 273.465 1344.56 271.954 1344.56 270.249C1344.56 268.567 1343.92 267.081 1342.68 265.838C1341.46 264.547 1339.93 263.913 1338.05 263.913H1330.23V263.889Z" fill="white"/>
<path d="M1361.56 270.078C1365.02 270.078 1367.75 271.004 1369.75 272.856C1371.75 274.708 1372.75 277.242 1372.75 280.458V295.809H1368.29V292.349H1368.09C1366.17 295.2 1363.59 296.613 1360.37 296.613C1357.62 296.613 1355.33 295.809 1353.47 294.176C1351.62 292.544 1350.7 290.522 1350.7 288.085C1350.7 285.502 1351.67 283.455 1353.62 281.945C1355.57 280.409 1358.18 279.654 1361.42 279.654C1364.19 279.654 1366.49 280.166 1368.26 281.189V280.117C1368.26 278.485 1367.63 277.12 1366.34 275.975C1365.05 274.83 1363.54 274.269 1361.81 274.269C1359.2 274.269 1357.13 275.366 1355.62 277.583L1351.5 275C1353.77 271.711 1357.13 270.078 1361.56 270.078ZM1355.52 288.158C1355.52 289.376 1356.03 290.4 1357.08 291.204C1358.1 292.008 1359.32 292.422 1360.71 292.422C1362.68 292.422 1364.44 291.691 1365.97 290.229C1367.51 288.767 1368.29 287.062 1368.29 285.088C1366.83 283.943 1364.8 283.358 1362.2 283.358C1360.3 283.358 1358.71 283.821 1357.45 284.722C1356.15 285.673 1355.52 286.818 1355.52 288.158Z" fill="white"/>
<path d="M1398.19 270.882L1382.59 306.75H1377.77L1383.57 294.201L1373.28 270.882H1378.38L1385.78 288.767H1385.88L1393.09 270.882H1398.19Z" fill="white"/>
<path d="M1311.62 278.095C1311.62 276.569 1311.48 275.11 1311.23 273.706H1291.62V281.747L1302.91 281.75C1302.46 284.425 1300.98 286.706 1298.72 288.226V293.443H1305.45C1309.37 289.81 1311.62 284.44 1311.62 278.095Z" fill="white"/>
<path d="M1298.73 288.226C1296.85 289.489 1294.44 290.227 1291.62 290.227C1286.18 290.227 1281.56 286.557 1279.9 281.611H1272.97V286.991C1276.41 293.809 1283.47 298.487 1291.62 298.487C1297.26 298.487 1302 296.633 1305.45 293.441L1298.73 288.226Z" fill="white"/>
<path d="M1279.25 277.62C1279.25 276.231 1279.48 274.888 1279.9 273.626V268.246H1272.97C1271.55 271.065 1270.75 274.247 1270.75 277.62C1270.75 280.992 1271.55 284.174 1272.97 286.993L1279.9 281.613C1279.48 280.351 1279.25 279.008 1279.25 277.62Z" fill="white"/>
<path d="M1291.62 265.01C1294.7 265.01 1297.46 266.07 1299.63 268.141L1305.59 262.188C1301.97 258.818 1297.26 256.75 1291.62 256.75C1283.47 256.75 1276.41 261.428 1272.97 268.246L1279.9 273.626C1281.56 268.679 1286.18 265.01 1291.62 265.01Z" fill="white"/>
</g>
</g>
<defs>
<filter id="filter0_dd_1217_6132" x="0" y="0" width="1559.5" height="493.5" filterUnits="userSpaceOnUse" color-interpolation-filters="sRGB">
<feFlood flood-opacity="0" result="BackgroundImageFix"/>
<feColorMatrix in="SourceAlpha" type="matrix" values="0 0 0 0 0 0 0 0 0 0 0 0 0 0 0 0 0 0 127 0" result="hardAlpha"/>
<feOffset dy="20"/>
<feGaussianBlur stdDeviation="20"/>
<feColorMatrix type="matrix" values="0 0 0 0 0.717647 0 0 0 0 0.717647 0 0 0 0 0.717647 0 0 0 0.06 0"/>
<feBlend mode="normal" in2="BackgroundImageFix" result="effect1_dropShadow_1217_6132"/>
<feColorMatrix in="SourceAlpha" type="matrix" values="0 0 0 0 0 0 0 0 0 0 0 0 0 0 0 0 0 0 127 0" result="hardAlpha"/>
<feOffset dy="4"/>
<feGaussianBlur stdDeviation="7"/>
<feColorMatrix type="matrix" values="0 0 0 0 0.716667 0 0 0 0 0.716667 0 0 0 0 0.716667 0 0 0 0.02 0"/>
<feBlend mode="normal" in2="effect1_dropShadow_1217_6132" result="effect2_dropShadow_1217_6132"/>
<feBlend mode="normal" in="SourceGraphic" in2="effect2_dropShadow_1217_6132" result="shape"/>
</filter>
<filter id="filter1_dd_1217_6132" x="445.75" y="192.75" width="290" height="216" filterUnits="userSpaceOnUse" color-interpolation-filters="sRGB">
<feFlood flood-opacity="0" result="BackgroundImageFix"/>
<feColorMatrix in="SourceAlpha" type="matrix" values="0 0 0 0 0 0 0 0 0 0 0 0 0 0 0 0 0 0 127 0" result="hardAlpha"/>
<feOffset dy="2"/>
<feGaussianBlur stdDeviation="10"/>
<feColorMatrix type="matrix" values="0 0 0 0 0.717647 0 0 0 0 0.717647 0 0 0 0 0.717647 0 0 0 0.08 0"/>
<feBlend mode="normal" in2="BackgroundImageFix" result="effect1_dropShadow_1217_6132"/>
<feColorMatrix in="SourceAlpha" type="matrix" values="0 0 0 0 0 0 0 0 0 0 0 0 0 0 0 0 0 0 127 0" result="hardAlpha"/>
<feOffset dy="20"/>
<feGaussianBlur stdDeviation="20"/>
<feColorMatrix type="matrix" values="0 0 0 0 0.717647 0 0 0 0 0.717647 0 0 0 0 0.717647 0 0 0 0.08 0"/>
<feBlend mode="normal" in2="effect1_dropShadow_1217_6132" result="effect2_dropShadow_1217_6132"/>
<feBlend mode="normal" in="SourceGraphic" in2="effect2_dropShadow_1217_6132" result="shape"/>
</filter>
<filter id="filter2_dd_1217_6132" x="79.75" y="192.75" width="408" height="216" filterUnits="userSpaceOnUse" color-interpolation-filters="sRGB">
<feFlood flood-opacity="0" result="BackgroundImageFix"/>
<feColorMatrix in="SourceAlpha" type="matrix" values="0 0 0 0 0 0 0 0 0 0 0 0 0 0 0 0 0 0 127 0" result="hardAlpha"/>
<feOffset dy="2"/>
<feGaussianBlur stdDeviation="10"/>
<feColorMatrix type="matrix" values="0 0 0 0 0.717647 0 0 0 0 0.717647 0 0 0 0 0.717647 0 0 0 0.08 0"/>
<feBlend mode="normal" in2="BackgroundImageFix" result="effect1_dropShadow_1217_6132"/>
<feColorMatrix in="SourceAlpha" type="matrix" values="0 0 0 0 0 0 0 0 0 0 0 0 0 0 0 0 0 0 127 0" result="hardAlpha"/>
<feOffset dy="20"/>
<feGaussianBlur stdDeviation="20"/>
<feColorMatrix type="matrix" values="0 0 0 0 0.717647 0 0 0 0 0.717647 0 0 0 0 0.717647 0 0 0 0.08 0"/>
<feBlend mode="normal" in2="effect1_dropShadow_1217_6132" result="effect2_dropShadow_1217_6132"/>
<feBlend mode="normal" in="SourceGraphic" in2="effect2_dropShadow_1217_6132" result="shape"/>
</filter>
<filter id="filter3_dd_1217_6132" x="693.75" y="192.75" width="290" height="216" filterUnits="userSpaceOnUse" color-interpolation-filters="sRGB">
<feFlood flood-opacity="0" result="BackgroundImageFix"/>
<feColorMatrix in="SourceAlpha" type="matrix" values="0 0 0 0 0 0 0 0 0 0 0 0 0 0 0 0 0 0 127 0" result="hardAlpha"/>
<feOffset dy="2"/>
<feGaussianBlur stdDeviation="10"/>
<feColorMatrix type="matrix" values="0 0 0 0 0.717647 0 0 0 0 0.717647 0 0 0 0 0.717647 0 0 0 0.08 0"/>
<feBlend mode="normal" in2="BackgroundImageFix" result="effect1_dropShadow_1217_6132"/>
<feColorMatrix in="SourceAlpha" type="matrix" values="0 0 0 0 0 0 0 0 0 0 0 0 0 0 0 0 0 0 127 0" result="hardAlpha"/>
<feOffset dy="20"/>
<feGaussianBlur stdDeviation="20"/>
<feColorMatrix type="matrix" values="0 0 0 0 0.717647 0 0 0 0 0.717647 0 0 0 0 0.717647 0 0 0 0.08 0"/>
<feBlend mode="normal" in2="effect1_dropShadow_1217_6132" result="effect2_dropShadow_1217_6132"/>
<feBlend mode="normal" in="SourceGraphic" in2="effect2_dropShadow_1217_6132" result="shape"/>
</filter>
<filter id="filter4_dd_1217_6132" x="941.75" y="192.75" width="290" height="216" filterUnits="userSpaceOnUse" color-interpolation-filters="sRGB">
<feFlood flood-opacity="0" result="BackgroundImageFix"/>
<feColorMatrix in="SourceAlpha" type="matrix" values="0 0 0 0 0 0 0 0 0 0 0 0 0 0 0 0 0 0 127 0" result="hardAlpha"/>
<feOffset dy="2"/>
<feGaussianBlur stdDeviation="10"/>
<feColorMatrix type="matrix" values="0 0 0 0 0.717647 0 0 0 0 0.717647 0 0 0 0 0.717647 0 0 0 0.08 0"/>
<feBlend mode="normal" in2="BackgroundImageFix" result="effect1_dropShadow_1217_6132"/>
<feColorMatrix in="SourceAlpha" type="matrix" values="0 0 0 0 0 0 0 0 0 0 0 0 0 0 0 0 0 0 127 0" result="hardAlpha"/>
<feOffset dy="20"/>
<feGaussianBlur stdDeviation="20"/>
<feColorMatrix type="matrix" values="0 0 0 0 0.717647 0 0 0 0 0.717647 0 0 0 0 0.717647 0 0 0 0.08 0"/>
<feBlend mode="normal" in2="effect1_dropShadow_1217_6132" result="effect2_dropShadow_1217_6132"/>
<feBlend mode="normal" in="SourceGraphic" in2="effect2_dropShadow_1217_6132" result="shape"/>
</filter>
<filter id="filter5_dd_1217_6132" x="1189.75" y="192.75" width="290" height="216" filterUnits="userSpaceOnUse" color-interpolation-filters="sRGB">
<feFlood flood-opacity="0" result="BackgroundImageFix"/>
<feColorMatrix in="SourceAlpha" type="matrix" values="0 0 0 0 0 0 0 0 0 0 0 0 0 0 0 0 0 0 127 0" result="hardAlpha"/>
<feOffset dy="2"/>
<feGaussianBlur stdDeviation="10"/>
<feColorMatrix type="matrix" values="0 0 0 0 0.717647 0 0 0 0 0.717647 0 0 0 0 0.717647 0 0 0 0.08 0"/>
<feBlend mode="normal" in2="BackgroundImageFix" result="effect1_dropShadow_1217_6132"/>
<feColorMatrix in="SourceAlpha" type="matrix" values="0 0 0 0 0 0 0 0 0 0 0 0 0 0 0 0 0 0 127 0" result="hardAlpha"/>
<feOffset dy="20"/>
<feGaussianBlur stdDeviation="20"/>
<feColorMatrix type="matrix" values="0 0 0 0 0.717647 0 0 0 0 0.717647 0 0 0 0 0.717647 0 0 0 0.08 0"/>
<feBlend mode="normal" in2="effect1_dropShadow_1217_6132" result="effect2_dropShadow_1217_6132"/>
<feBlend mode="normal" in="SourceGraphic" in2="effect2_dropShadow_1217_6132" result="shape"/>
</filter>
</defs>
</svg>
