<svg width="816" height="494" viewBox="0 0 816 494" fill="none" xmlns="http://www.w3.org/2000/svg">
<g filter="url(#filter0_dd_1299_3851)">
<rect x="40.75" y="20.75" width="734" height="412" rx="40" fill="white"/>
<rect x="40.75" y="20.75" width="734" height="412" rx="40" stroke="#EBEFF6" stroke-width="1.5"/>
<path d="M129.863 107.205V137.75H123.405V107.205H129.863ZM162.127 117.898H155.595C155.475 117.053 155.232 116.303 154.864 115.646C154.496 114.98 154.024 114.413 153.447 113.946C152.87 113.479 152.204 113.121 151.448 112.872C150.703 112.624 149.892 112.499 149.017 112.499C147.436 112.499 146.059 112.892 144.886 113.678C143.713 114.453 142.803 115.587 142.156 117.078C141.51 118.56 141.187 120.359 141.187 122.477C141.187 124.655 141.51 126.484 142.156 127.966C142.813 129.447 143.727 130.566 144.901 131.322C146.074 132.077 147.431 132.455 148.972 132.455C149.838 132.455 150.638 132.341 151.374 132.112C152.119 131.884 152.781 131.55 153.357 131.113C153.934 130.665 154.411 130.124 154.789 129.487C155.177 128.851 155.445 128.125 155.595 127.31L162.127 127.339C161.958 128.741 161.536 130.094 160.86 131.396C160.193 132.689 159.294 133.847 158.16 134.871C157.036 135.886 155.694 136.691 154.133 137.288C152.582 137.874 150.827 138.168 148.868 138.168C146.144 138.168 143.708 137.551 141.56 136.318C139.422 135.085 137.732 133.3 136.489 130.964C135.256 128.627 134.639 125.798 134.639 122.477C134.639 119.146 135.266 116.312 136.519 113.976C137.771 111.639 139.472 109.859 141.619 108.636C143.767 107.403 146.183 106.787 148.868 106.787C150.638 106.787 152.279 107.036 153.79 107.533C155.311 108.03 156.659 108.756 157.832 109.71C159.005 110.655 159.96 111.813 160.695 113.185C161.441 114.558 161.919 116.129 162.127 117.898ZM166.758 137.75V107.205H178.988C181.236 107.205 183.11 107.538 184.611 108.204C186.113 108.87 187.241 109.795 187.997 110.978C188.753 112.151 189.131 113.504 189.131 115.035C189.131 116.228 188.892 117.277 188.415 118.182C187.937 119.077 187.281 119.812 186.446 120.389C185.621 120.956 184.676 121.359 183.612 121.597V121.896C184.775 121.945 185.864 122.273 186.878 122.88C187.903 123.487 188.733 124.337 189.369 125.43C190.006 126.514 190.324 127.807 190.324 129.308C190.324 130.929 189.921 132.376 189.116 133.648C188.32 134.911 187.142 135.911 185.581 136.646C184.02 137.382 182.096 137.75 179.809 137.75H166.758ZM173.216 132.47H178.481C180.281 132.47 181.594 132.127 182.419 131.441C183.244 130.745 183.657 129.82 183.657 128.667C183.657 127.822 183.453 127.076 183.045 126.43C182.638 125.783 182.056 125.276 181.3 124.908C180.555 124.54 179.665 124.357 178.631 124.357H173.216V132.47ZM173.216 119.987H178.004C178.889 119.987 179.675 119.832 180.361 119.524C181.057 119.206 181.604 118.759 182.001 118.182C182.409 117.605 182.613 116.914 182.613 116.109C182.613 115.005 182.22 114.115 181.434 113.439C180.659 112.763 179.555 112.425 178.123 112.425H173.216V119.987ZM221.477 117.898H214.944C214.825 117.053 214.581 116.303 214.213 115.646C213.846 114.98 213.373 114.413 212.797 113.946C212.22 113.479 211.554 113.121 210.798 112.872C210.052 112.624 209.242 112.499 208.367 112.499C206.786 112.499 205.409 112.892 204.235 113.678C203.062 114.453 202.152 115.587 201.506 117.078C200.86 118.56 200.537 120.359 200.537 122.477C200.537 124.655 200.86 126.484 201.506 127.966C202.162 129.447 203.077 130.566 204.25 131.322C205.424 132.077 206.781 132.455 208.322 132.455C209.187 132.455 209.988 132.341 210.723 132.112C211.469 131.884 212.13 131.55 212.707 131.113C213.284 130.665 213.761 130.124 214.139 129.487C214.527 128.851 214.795 128.125 214.944 127.31L221.477 127.339C221.308 128.741 220.885 130.094 220.209 131.396C219.543 132.689 218.643 133.847 217.51 134.871C216.386 135.886 215.044 136.691 213.483 137.288C211.931 137.874 210.176 138.168 208.218 138.168C205.493 138.168 203.057 137.551 200.909 136.318C198.772 135.085 197.081 133.3 195.838 130.964C194.605 128.627 193.989 125.798 193.989 122.477C193.989 119.146 194.615 116.312 195.868 113.976C197.121 111.639 198.821 109.859 200.969 108.636C203.117 107.403 205.533 106.787 208.218 106.787C209.988 106.787 211.628 107.036 213.14 107.533C214.661 108.03 216.008 108.756 217.181 109.71C218.355 110.655 219.309 111.813 220.045 113.185C220.791 114.558 221.268 116.129 221.477 117.898Z" fill="#19213D"/>
<a href="https://www.icbc-ltd.com/icbcltd/en/">
<rect fill="black" fill-opacity="0" y="1.58523" width="102.711" height="50.8295"/>
</a>
<g filter="url(#filter1_dd_1299_3851)">
<rect x="179.75" y="213.75" width="456" height="134" rx="24" fill="white"/>
<rect x="179.25" y="213.25" width="457" height="135" rx="24.5" stroke="#D6DCE5"/>
<path fill-rule="evenodd" clip-rule="evenodd" d="M398.411 277.397H403.438V284.891H407.557V277.397H412.418V278.648H416.538V263.869H407.557V260.358L407.64 260.276L407.721 260.196L407.74 260.158L407.787 260.107L407.803 260.043L407.836 259.961L407.803 259.911L407.769 259.829L407.74 259.784L407.704 259.763L407.656 259.732L407.572 259.698L403.438 259.565V263.869H394.442V278.648H398.411L398.411 277.397ZM407.557 273.575V267.937H412.418V273.575H407.557ZM398.411 273.575V267.937H403.438V273.575H398.411ZM440.824 275.479L441.829 274.872L441.452 274.378L441.071 273.886L440.824 273.62L440.611 273.358L440.379 273.114L440.117 272.864H438.007L436.886 273.54L437.299 273.901L437.776 274.348L438.023 274.592L438.288 274.857L438.552 275.17L438.8 275.479H436.638V272.864H440.875V270.013H436.638V268.17H441.416V265.298H428.811V268.17H433.508V270.013H429.487V272.864H433.508V275.479H428.483V278.944H441.88V275.479H440.824ZM427.609 283.377H442.49V284.402H446.114V260.916H424.215V284.402H427.609V283.377ZM427.609 279.705V264.246V264.297H442.49V279.704L427.609 279.705ZM462.936 279.434H453.825V283.489H476.366V279.434H467.37V265.613H475.228V261.578H454.451V265.613H462.936V279.434ZM497.884 281.067H495.924L495.974 282.174L496.057 282.288L496.138 282.419L496.188 282.538L496.237 282.65L496.318 282.9L496.387 283.126L496.451 283.624L496.486 284.119H499.83L500.108 284.1L500.356 284.069L500.588 284.016L500.8 283.939L501 283.873L501.196 283.752L501.345 283.642L501.477 283.489L501.609 283.34L501.723 283.164L501.806 282.964L501.871 282.753L501.954 282.52L501.986 282.288V282.025L502.005 281.743V267.409L500.966 267.489H497.127L497.243 267.128L497.376 266.8L497.504 266.468L497.639 266.143L497.737 265.843L497.852 265.549L497.917 265.239L498.017 264.923H503.272V261.871H493.65L493.618 260.408L493.682 260.225L493.715 260.043V259.982L493.699 259.945L493.682 259.911L493.634 259.863L493.567 259.813L493.486 259.783L493.387 259.749L493.271 259.715L489.516 259.665L489.465 261.871H480.087V264.923H484.934L485.181 265.387L485.544 266.107L485.691 266.386L485.824 266.652L485.939 266.915L486.071 267.195L486.203 267.489H480.98L481.012 268.318V284.165H484.325V270.443H498.809L498.841 280.13L498.825 280.246V280.361L498.809 280.458L498.774 280.547L498.742 280.621L498.693 280.709L498.658 280.773L498.594 280.843L498.529 280.872L498.445 280.922L498.38 280.973L498.297 281.001L498.181 281.02L498.098 281.056L497.982 281.067L497.884 281.067ZM490.121 267.49L490.057 267.311L489.993 267.129L489.876 266.967L489.794 266.801L489.597 266.469L489.4 266.144L489.202 265.843L489.02 265.55L488.937 265.387L488.872 265.239L488.804 265.07L488.757 264.923L494.046 264.873L493.947 265.168L493.815 265.468L493.682 265.778L493.552 266.094L493.387 266.409L493.239 266.771L493.074 267.115L492.942 267.49L490.121 267.49ZM492.992 282.04L495.941 282.058L495.924 275.107L493.751 273.557H486.104L486.121 276.127L486.104 282.04H488.823L488.856 281.548H492.974L492.992 282.04ZM492.974 278.783H488.856V276.192H492.974V278.783ZM491.988 272.438L492.233 272.569L492.497 272.716L492.774 272.894L493.074 273.078L493.699 273.489L494.344 274.004L495.051 274.497L495.745 275.021L496.451 275.534L497.127 276.026L498.841 274.628V273.656L498.28 273.158L497.72 272.698L497.176 272.255L496.648 271.856L496.37 271.644L496.088 271.467L495.81 271.268L495.529 271.115L495.248 270.936L494.936 270.754L494.622 270.608L494.327 270.444H493.37L491.988 272.438ZM488.427 270.444L488.016 270.725L487.618 271.035L487.174 271.333L486.697 271.644L486.171 271.94L485.611 272.269L484.983 272.599L484.308 272.966L484.341 274.68L485.198 276.127L485.444 276.012L485.759 275.864L485.905 275.794L486.004 275.748L486.071 275.702L486.121 275.664V273.557H489.399L489.497 273.541L489.596 273.506L489.713 273.489L489.81 273.422L490.026 273.26L490.254 273.078L490.683 272.681L491.046 272.37L489.581 270.444H488.427ZM515.353 265.579L520.179 265.614V262.717H515.681L515.845 262.336L516.01 262.021L516.158 261.761L516.274 261.564L516.39 261.41L516.488 261.298L516.587 261.232L516.668 261.167L516.8 261.086L516.95 260.984L517.015 260.954L517.081 260.851L517.164 260.738L517.263 260.605L514.015 259.337L513.638 260.107L513.322 260.738L513.061 261.232L512.845 261.674L512.633 262.056L512.402 262.453L512.153 262.878L511.841 263.371L511.512 263.851L511.182 264.329L510.803 264.822L510.39 265.32L509.946 265.843L509.486 266.409L508.973 266.983L508.447 267.576L510.686 269.717L510.952 269.371L511.215 268.976L511.512 268.593L511.759 268.216L511.742 270.064H513.486V272.042H510.558V275.6H513.486V280.38L511.315 281.335L512.005 284.383L520.012 281.214L518.582 278.547L517.099 279.255L517.147 275.6H519.734V272.042H517.147V270.064H519.387V267.38L512.648 267.425L512.881 267.165L513.061 266.916L513.208 266.719L513.341 266.503L513.472 266.305L513.654 266.108L513.851 265.843L514.099 265.579H514.279L514.724 265.601H515.301L515.353 265.579ZM530.674 277.777L531.235 277.38L531.663 277.046L532.042 276.786L532.637 276.29L532.917 276.045L533.23 275.749L533.608 275.387L531.911 273.226L531.613 273.541L531.169 274.017L530.972 274.264L530.723 274.497L530.41 274.761L530.015 275.056L529.472 275.452L529.273 275.071L529.14 274.842L529.026 274.66L528.944 274.497L528.844 274.282L528.748 274.017L528.664 273.621L528.549 273.033H532.173V260.806H520.804V281.285L519.122 282.142L520.459 284.977L527.955 281.947L527.034 278.648L524.149 280.658L524.117 273.033L525.188 272.966L525.319 273.621L525.452 274.216L525.6 274.761L525.729 275.238L525.896 275.702L526.028 276.091L526.176 276.47L526.309 276.804L526.474 277.114L526.621 277.415L526.77 277.712L526.917 277.971L527.247 278.5L527.61 279.074L527.824 279.389L528.07 279.718L528.319 280.066L528.566 280.38L529.109 281.035L529.67 281.696L530.296 282.386L530.922 283.082L531.564 283.772L532.24 284.531L534.941 281.519L534.234 281.021L533.608 280.576L533.295 280.348L532.998 280.113L532.734 279.899L532.469 279.686L532.225 279.455L531.977 279.241L531.744 279.027L531.515 278.783L531.3 278.547L531.087 278.296L530.872 278.036L530.674 277.777ZM529.506 268.335V270.064H524.117V268.335H529.506ZM524.117 265.431V263.601H529.506V265.431H524.117ZM547.86 260.52L547.547 260.984L547.183 261.498L546.79 261.989L546.361 262.468L545.932 262.928L545.488 263.358L545.075 263.754L544.663 264.115L544.335 264.38L544.038 264.629L543.708 264.843L543.38 265.07L543.032 265.298L542.652 265.499L542.242 265.732L541.796 265.975L542.833 269.32L543.248 269.124L543.658 268.878L544.102 268.613L544.565 268.335L545.027 268.004L545.488 267.673L545.735 267.49L545.965 267.293L546.18 267.115L546.409 266.902L546.806 266.536L547.269 266.158L547.763 265.746L548.272 265.32L548.8 264.843L549.31 264.345L549.573 264.099L549.822 263.821L550.07 263.556L550.283 263.278L550.315 263.239L550.364 263.226L550.414 263.209H550.743L550.778 263.189L550.811 263.159L550.843 263.108V263.063L550.811 262.977L550.778 262.878L550.709 262.779L547.86 260.52ZM545.092 274.893V284.559H548.7V271.38L549.078 270.936L549.507 270.444L549.986 269.901L550.495 269.306L550.992 268.732L551.469 268.136L551.685 267.822L551.929 267.542L552.129 267.261L552.309 266.983L550.035 264.822L549.838 265.102L549.657 265.417L549.442 265.71L549.213 266.01L548.784 266.584L548.321 267.129L547.86 267.673L547.367 268.187L546.921 268.681L546.477 269.158L546.064 269.617L545.571 270.115L545.011 270.673L544.418 271.231L543.79 271.776L543.18 272.305L542.868 272.569L542.587 272.784L542.292 272.997L542.012 273.208L542.852 276.656L543.18 276.461L543.46 276.257L543.708 276.077L543.922 275.896L544.17 275.702L544.434 275.471L544.731 275.204L545.092 274.893ZM551.997 261.151V264.673H564.321V261.151H551.997ZM555.028 280.937L555.374 281.663L555.638 282.289L555.737 282.554L555.806 282.781L555.886 282.993L555.936 283.206L555.966 283.411L555.999 283.606L556.018 283.79V283.967L555.999 284.166L555.986 284.383L555.951 284.596L555.9 284.829H558.622L558.917 284.81L559.212 284.763L559.51 284.708L559.808 284.661L560.088 284.559L560.366 284.466L560.617 284.365L560.862 284.218L561.077 284.069L561.173 284.003L561.273 283.906L561.355 283.817L561.44 283.726L561.502 283.624L561.572 283.512L561.635 283.392L561.667 283.28L561.702 283.165L561.735 283.031L561.752 282.901L561.766 282.753L561.834 271.958H565.263V268.63H551.091V271.958H558.354V280.196L558.342 280.362L558.322 280.474V280.608L558.29 280.696L558.273 280.761L558.222 280.82L558.174 280.872L558.108 280.886L558.061 280.909L557.978 280.923L557.877 280.937L555.028 280.937Z" fill="#201E1D"/>
<path fill-rule="evenodd" clip-rule="evenodd" d="M572.806 291.186H392.011V290.172H572.806V291.186Z" fill="#CB0202"/>
<path d="M395.185 302.172V297.028H396.222V302.172H395.185Z" fill="#201E1D"/>
<path d="M397.222 302.172V297.028H398.226L400.348 300.488V297.028H401.305V302.172H400.27L398.179 298.779V302.172H397.222Z" fill="#201E1D"/>
<path d="M402.405 297.028H404.303C404.731 297.028 405.057 297.061 405.282 297.126C405.584 297.215 405.842 297.374 406.057 297.601C406.273 297.828 406.436 298.105 406.549 298.435C406.66 298.762 406.717 299.169 406.717 299.65C406.717 300.073 406.664 300.438 406.559 300.744C406.43 301.118 406.247 301.421 406.008 301.653C405.828 301.829 405.585 301.965 405.278 302.063C405.049 302.135 404.742 302.172 404.359 302.172H402.405V297.028ZM403.441 297.899V301.302H404.219C404.51 301.302 404.72 301.284 404.849 301.252C405.019 301.21 405.159 301.139 405.27 301.038C405.382 300.938 405.472 300.774 405.543 300.543C405.614 300.312 405.649 299.998 405.649 299.602C405.649 299.204 405.612 298.9 405.543 298.688C405.473 298.474 405.374 298.31 405.247 298.19C405.121 298.072 404.96 297.99 404.765 297.948C404.619 297.916 404.335 297.899 403.909 297.899H403.441Z" fill="#201E1D"/>
<path d="M407.587 297.028H408.624V299.82C408.624 300.263 408.637 300.55 408.663 300.681C408.708 300.892 408.814 301.061 408.982 301.189C409.15 301.316 409.38 301.381 409.671 301.381C409.967 301.381 410.19 301.32 410.341 301.199C410.491 301.079 410.582 300.931 410.612 300.754C410.642 300.579 410.658 300.288 410.658 299.879V297.028H411.695V299.734C411.695 300.352 411.666 300.788 411.611 301.044C411.555 301.3 411.452 301.515 411.3 301.691C411.149 301.867 410.947 302.007 410.694 302.111C410.441 302.214 410.111 302.267 409.704 302.267C409.212 302.267 408.838 302.211 408.584 302.097C408.33 301.983 408.13 301.836 407.982 301.653C407.834 301.473 407.737 301.282 407.69 301.083C407.622 300.788 407.588 300.352 407.588 299.776L407.587 297.028Z" fill="#201E1D"/>
<path d="M412.517 300.487L413.53 300.391C413.591 300.732 413.714 300.981 413.901 301.141C414.087 301.3 414.338 301.38 414.655 301.38C414.989 301.38 415.242 301.309 415.412 301.168C415.581 301.027 415.666 300.861 415.666 300.67C415.666 300.549 415.63 300.444 415.56 300.359C415.488 300.274 415.363 300.199 415.186 300.136C415.064 300.093 414.787 300.019 414.354 299.911C413.797 299.774 413.406 299.605 413.181 299.403C412.865 299.121 412.707 298.774 412.707 298.368C412.707 298.107 412.781 297.861 412.93 297.634C413.078 297.405 413.292 297.231 413.571 297.112C413.851 296.993 414.188 296.933 414.582 296.933C415.228 296.933 415.713 297.076 416.039 297.36C416.365 297.644 416.536 298.026 416.553 298.501L415.516 298.54C415.471 298.276 415.376 298.086 415.23 297.97C415.084 297.853 414.864 297.795 414.571 297.795C414.269 297.795 414.033 297.858 413.862 297.982C413.751 298.061 413.696 298.168 413.696 298.301C413.696 298.422 413.748 298.526 413.851 298.613C413.982 298.722 414.301 298.837 414.806 298.956C415.312 299.075 415.686 299.198 415.929 299.326C416.171 299.455 416.361 299.629 416.498 299.851C416.635 300.073 416.703 300.346 416.703 300.672C416.703 300.969 416.622 301.244 416.457 301.504C416.294 301.761 416.062 301.954 415.762 302.078C415.462 302.205 415.089 302.267 414.642 302.267C413.991 302.267 413.491 302.115 413.142 301.812C412.793 301.509 412.585 301.066 412.517 300.487Z" fill="#201E1D"/>
<path d="M418.744 302.172V297.899H417.224V297.028H421.3V297.899H419.78V302.172H418.744Z" fill="#201E1D"/>
<path d="M421.979 302.172V297.028H424.158C424.706 297.028 425.104 297.075 425.352 297.167C425.601 297.261 425.8 297.424 425.949 297.661C426.098 297.897 426.173 298.167 426.173 298.472C426.173 298.857 426.059 299.177 425.834 299.429C425.608 299.681 425.271 299.838 424.822 299.904C425.046 300.036 425.231 300.179 425.376 300.335C425.522 300.492 425.718 300.77 425.966 301.17L426.592 302.172H425.351L424.605 301.052C424.339 300.654 424.157 300.403 424.059 300.299C423.961 300.195 423.857 300.123 423.747 300.085C423.637 300.046 423.464 300.027 423.225 300.027H423.016V302.172H421.979ZM423.016 299.204H423.781C424.277 299.204 424.587 299.183 424.709 299.142C424.833 299.1 424.93 299.026 425 298.924C425.07 298.82 425.104 298.691 425.104 298.538C425.104 298.365 425.058 298.225 424.966 298.118C424.875 298.011 424.744 297.945 424.577 297.916C424.493 297.904 424.241 297.899 423.822 297.899H423.015L423.016 299.204Z" fill="#201E1D"/>
<path d="M427.13 302.172V297.028H428.167V302.172H427.13Z" fill="#201E1D"/>
<path d="M433.796 302.172H432.666L432.222 301.001H430.172L429.748 302.172H428.637L430.622 297.028H431.737L433.796 302.172ZM431.884 300.131L431.172 298.231L430.486 300.131H431.884Z" fill="#201E1D"/>
<path d="M434.381 302.172V297.068H435.418V301.302H438.006V302.172H434.381Z" fill="#201E1D"/>
<path d="M444.978 302.172H443.848L443.404 301.001H441.353L440.93 302.172H439.818L441.803 297.028H442.918L444.978 302.172ZM443.065 300.131L442.355 298.231L441.668 300.131H443.065Z" fill="#201E1D"/>
<path d="M445.539 302.172V297.028H446.543L448.665 300.488V297.028H449.622V302.172H448.587L446.496 298.779V302.172H445.539Z" fill="#201E1D"/>
<path d="M450.722 297.028H452.621C453.048 297.028 453.375 297.061 453.599 297.126C453.901 297.215 454.159 297.374 454.375 297.601C454.59 297.828 454.754 298.105 454.866 298.435C454.978 298.762 455.034 299.169 455.034 299.65C455.034 300.073 454.982 300.438 454.877 300.744C454.748 301.118 454.563 301.421 454.326 301.653C454.147 301.829 453.902 301.965 453.596 302.063C453.367 302.135 453.06 302.172 452.677 302.172H450.722V297.028ZM451.758 297.899V301.302H452.537C452.828 301.302 453.038 301.284 453.167 301.252C453.336 301.21 453.477 301.139 453.589 301.038C453.699 300.938 453.79 300.774 453.86 300.543C453.931 300.312 453.966 299.998 453.966 299.602C453.966 299.204 453.931 298.9 453.86 298.688C453.79 298.474 453.692 298.31 453.565 298.19C453.438 298.072 453.278 297.99 453.083 297.948C452.937 297.916 452.652 297.899 452.227 297.899H451.758Z" fill="#201E1D"/>
<path d="M461.202 300.28L462.206 300.589C462.053 301.153 461.796 301.573 461.437 301.847C461.078 302.122 460.622 302.259 460.071 302.259C459.388 302.259 458.828 302.025 458.388 301.558C457.948 301.091 457.728 300.452 457.728 299.641C457.728 298.785 457.948 298.119 458.39 297.644C458.832 297.171 459.413 296.933 460.133 296.933C460.762 296.933 461.273 297.119 461.665 297.491C461.899 297.71 462.073 298.026 462.192 298.436L461.163 298.682C461.101 298.416 460.974 298.205 460.781 298.05C460.589 297.897 460.354 297.819 460.079 297.819C459.698 297.819 459.389 297.957 459.151 298.231C458.915 298.506 458.797 298.951 458.797 299.565C458.797 300.216 458.913 300.68 459.147 300.957C459.381 301.234 459.686 301.373 460.061 301.373C460.337 301.373 460.574 301.284 460.773 301.11C460.972 300.933 461.115 300.658 461.202 300.28Z" fill="#201E1D"/>
<path d="M462.886 299.631C462.886 299.106 462.965 298.664 463.123 298.31C463.239 298.046 463.398 297.81 463.602 297.603C463.804 297.393 464.026 297.238 464.268 297.137C464.587 297.001 464.958 296.933 465.377 296.933C466.135 296.933 466.742 297.169 467.197 297.64C467.652 298.111 467.88 298.767 467.88 299.607C467.88 300.44 467.654 301.091 467.202 301.562C466.75 302.03 466.146 302.267 465.391 302.267C464.625 302.267 464.017 302.033 463.564 301.566C463.112 301.097 462.886 300.452 462.886 299.631ZM463.954 299.596C463.954 300.182 464.09 300.625 464.36 300.927C464.63 301.229 464.973 301.38 465.388 301.38C465.804 301.38 466.145 301.231 466.412 300.931C466.678 300.632 466.812 300.182 466.812 299.582C466.812 298.99 466.682 298.548 466.422 298.257C466.163 297.966 465.819 297.819 465.388 297.819C464.959 297.819 464.613 297.968 464.349 298.262C464.087 298.558 463.954 299.001 463.954 299.596Z" fill="#201E1D"/>
<path d="M468.683 302.172V297.028H470.234L471.163 300.537L472.081 297.028H473.638V302.172H472.68L472.675 298.123L471.659 302.172H470.657L469.645 298.123L469.641 302.172H468.683Z" fill="#201E1D"/>
<path d="M474.671 302.172V297.028H476.222L477.152 300.537L478.069 297.028H479.625V302.172H478.667L478.663 298.123L477.646 302.172H476.645L475.633 298.123L475.628 302.172H474.671Z" fill="#201E1D"/>
<path d="M480.675 302.172V297.028H484.489V297.899H481.711V299.038H484.298V299.909H481.711V301.302H484.583V302.172H480.675Z" fill="#201E1D"/>
<path d="M485.469 302.172V297.028H487.647C488.195 297.028 488.593 297.075 488.842 297.167C489.091 297.261 489.29 297.424 489.438 297.661C489.588 297.897 489.662 298.167 489.662 298.472C489.662 298.857 489.549 299.177 489.324 299.429C489.098 299.681 488.761 299.838 488.311 299.904C488.536 300.036 488.72 300.179 488.867 300.335C489.012 300.492 489.209 300.77 489.456 301.17L490.082 302.172H488.841L488.095 301.052C487.829 300.654 487.647 300.403 487.549 300.299C487.45 300.195 487.347 300.123 487.237 300.085C487.127 300.046 486.952 300.027 486.715 300.027H486.505V302.172H485.469ZM486.505 299.204H487.27C487.766 299.204 488.076 299.183 488.199 299.142C488.322 299.1 488.419 299.026 488.489 298.924C488.559 298.82 488.594 298.691 488.594 298.538C488.594 298.365 488.547 298.225 488.456 298.118C488.365 298.011 488.234 297.945 488.066 297.916C487.983 297.904 487.731 297.899 487.312 297.899H486.505V299.204Z" fill="#201E1D"/>
<path d="M493.944 300.28L494.948 300.589C494.794 301.153 494.537 301.573 494.178 301.847C493.82 302.122 493.364 302.259 492.812 302.259C492.129 302.259 491.569 302.025 491.13 301.558C490.69 301.091 490.47 300.452 490.47 299.641C490.47 298.785 490.69 298.119 491.132 297.644C491.574 297.171 492.154 296.933 492.875 296.933C493.503 296.933 494.015 297.119 494.407 297.491C494.641 297.71 494.815 298.026 494.933 298.436L493.905 298.682C493.843 298.416 493.716 298.205 493.523 298.05C493.33 297.897 493.096 297.819 492.821 297.819C492.441 297.819 492.131 297.957 491.893 298.231C491.656 298.506 491.538 298.951 491.538 299.565C491.538 300.216 491.654 300.68 491.889 300.957C492.123 301.234 492.428 301.373 492.801 301.373C493.079 301.373 493.316 301.284 493.515 301.11C493.714 300.933 493.857 300.658 493.944 300.28Z" fill="#201E1D"/>
<path d="M495.81 302.172V297.028H496.847V302.172H495.81Z" fill="#201E1D"/>
<path d="M502.476 302.172H501.347L500.903 301.001H498.852L498.429 302.172H497.317L499.303 297.028H500.417L502.476 302.172ZM500.564 300.131L499.853 298.231L499.167 300.131H500.564Z" fill="#201E1D"/>
<path d="M503.061 302.172V297.068H504.098V301.302H506.686V302.172H503.061Z" fill="#201E1D"/>
<path d="M509.295 297.028H511.35C511.756 297.028 512.06 297.045 512.259 297.079C512.458 297.113 512.637 297.184 512.795 297.291C512.953 297.398 513.084 297.542 513.189 297.72C513.294 297.899 513.347 298.098 513.347 298.32C513.347 298.561 513.283 298.783 513.153 298.983C513.024 299.183 512.85 299.335 512.63 299.434C512.941 299.525 513.182 299.681 513.349 299.902C513.516 300.122 513.601 300.38 513.601 300.678C513.601 300.913 513.546 301.14 513.437 301.362C513.329 301.583 513.18 301.761 512.992 301.892C512.804 302.024 512.572 302.106 512.296 302.137C512.124 302.155 511.705 302.167 511.045 302.172H509.295V297.028ZM510.332 297.883V299.07H511.01C511.415 299.07 511.666 299.063 511.763 299.052C511.942 299.032 512.081 298.969 512.182 298.869C512.284 298.767 512.334 298.633 512.334 298.468C512.334 298.31 512.29 298.179 512.203 298.081C512.116 297.982 511.985 297.922 511.813 297.901C511.709 297.889 511.415 297.883 510.928 297.883L510.332 297.883ZM510.332 299.924V301.302H511.295C511.67 301.302 511.909 301.29 512.008 301.269C512.164 301.242 512.289 301.172 512.385 301.064C512.483 300.955 512.532 300.809 512.532 300.626C512.532 300.473 512.494 300.34 512.42 300.234C512.344 300.127 512.236 300.047 512.095 299.998C511.952 299.949 511.645 299.924 511.172 299.924L510.332 299.924Z" fill="#201E1D"/>
<path d="M519.116 302.172H517.986L517.543 301.001H515.492L515.068 302.172H513.956L515.942 297.028H517.056L519.116 302.172ZM517.204 300.131L516.492 298.231L515.806 300.131H517.204Z" fill="#201E1D"/>
<path d="M519.678 302.172V297.028H520.682L522.803 300.488V297.028H523.761V302.172H522.724L520.635 298.779V302.172H519.678Z" fill="#201E1D"/>
<path d="M524.868 302.172V297.028H525.905V299.314L528.021 297.028H529.421L527.469 299.032L529.516 302.172H528.173L526.75 299.758L525.905 300.618V302.172H524.868Z" fill="#201E1D"/>
<path d="M531.834 299.631C531.834 299.106 531.913 298.664 532.07 298.31C532.186 298.046 532.345 297.81 532.549 297.603C532.752 297.393 532.974 297.238 533.214 297.137C533.536 297.001 533.905 296.933 534.324 296.933C535.082 296.933 535.69 297.169 536.145 297.64C536.6 298.111 536.827 298.767 536.827 299.607C536.827 300.44 536.601 301.091 536.15 301.562C535.698 302.03 535.093 302.267 534.339 302.267C533.572 302.267 532.963 302.033 532.511 301.566C532.06 301.097 531.834 300.452 531.834 299.631ZM532.903 299.596C532.903 300.182 533.038 300.625 533.308 300.927C533.577 301.229 533.921 301.38 534.336 301.38C534.751 301.38 535.093 301.231 535.359 300.931C535.626 300.632 535.759 300.182 535.759 299.582C535.759 298.99 535.63 298.548 535.369 298.257C535.11 297.966 534.766 297.819 534.336 297.819C533.907 297.819 533.56 297.968 533.297 298.262C533.034 298.558 532.903 299.001 532.903 299.596Z" fill="#201E1D"/>
<path d="M537.647 302.172V297.028H541.176V297.899H538.684V299.117H540.836V299.988H538.684V302.172H537.647Z" fill="#201E1D"/>
<path d="M547.317 300.28L548.323 300.589C548.169 301.153 547.913 301.573 547.554 301.847C547.195 302.122 546.739 302.259 546.187 302.259C545.505 302.259 544.943 302.025 544.504 301.558C544.064 301.091 543.845 300.452 543.845 299.641C543.845 298.785 544.065 298.119 544.507 297.644C544.949 297.171 545.53 296.933 546.249 296.933C546.878 296.933 547.389 297.119 547.782 297.491C548.015 297.71 548.191 298.026 548.307 298.436L547.278 298.682C547.218 298.416 547.091 298.205 546.899 298.05C546.706 297.897 546.471 297.819 546.195 297.819C545.815 297.819 545.506 297.957 545.268 298.231C545.032 298.506 544.913 298.951 544.913 299.565C544.913 300.216 545.03 300.68 545.264 300.957C545.499 301.234 545.802 301.373 546.177 301.373C546.453 301.373 546.691 301.284 546.89 301.11C547.089 300.933 547.232 300.658 547.317 300.28Z" fill="#201E1D"/>
<path d="M549.226 302.172V297.028H550.263V299.055H552.295V297.028H553.332V302.172H552.295V299.925H550.263V302.172H549.226Z" fill="#201E1D"/>
<path d="M554.377 302.172V297.028H555.413V302.172H554.377Z" fill="#201E1D"/>
<path d="M556.414 302.172V297.028H557.416L559.539 300.488V297.028H560.496V302.172H559.46L557.37 298.779V302.172H556.414Z" fill="#201E1D"/>
<path d="M566.232 302.172H565.104L564.66 301.001H562.609L562.186 302.172H561.074L563.059 297.028H564.174L566.232 302.172ZM564.322 300.131L563.61 298.231L562.923 300.131H564.322Z" fill="#201E1D"/>
<path fill-rule="evenodd" clip-rule="evenodd" d="M354.2 289.092V292.46H365.128V282.354H358.406V278.985H365.128V268.868H354.2V272.239H361.755V275.615H355.02V285.724H361.755V289.092H354.2ZM334.772 280.674C334.772 270.444 343.069 262.139 353.302 262.139C363.532 262.139 371.83 270.444 371.83 280.674C371.83 290.907 363.532 299.206 353.302 299.206C343.069 299.206 334.772 290.907 334.772 280.674ZM331.378 280.674C331.378 268.561 341.187 258.75 353.302 258.75C365.413 258.75 375.229 268.561 375.229 280.674C375.229 292.787 365.413 302.601 353.302 302.601C341.187 302.601 331.378 292.787 331.378 280.674ZM352.5 272.23V268.86H341.558V278.971H348.262V282.344H341.558V292.454H352.5V289.084H344.925V285.716H351.66V275.599H344.925V272.23" fill="#CB0202"/>
<path fill-rule="evenodd" clip-rule="evenodd" d="M279.526 282.547V282.492H287.659C288.402 282.492 289.472 282.611 290.328 283.174C291.127 283.703 291.535 284.483 291.535 285.493C291.535 286.298 291.316 286.928 290.887 287.363C290.09 288.165 288.713 288.163 287.705 288.163H279.497V288.113L279.526 282.547ZM279.526 273.2H286.971C288.281 273.2 290.476 273.2 290.476 275.806C290.476 276.761 290.065 277.437 289.254 277.818C288.523 278.161 287.611 278.197 286.99 278.197H279.526V273.2ZM287.961 292.532C290.783 292.532 292.912 291.844 294.288 290.486C295.7 289.09 295.998 287.296 295.998 286.033C295.998 283.272 294.848 281.352 292.579 280.331L292.479 280.289L292.574 280.238C293.597 279.698 294.952 278.6 294.952 275.328C294.952 273.531 294.275 271.911 293.043 270.766C291.692 269.509 289.722 268.846 287.35 268.846L275.059 268.839V292.525" fill="#201E1D"/>
<path fill-rule="evenodd" clip-rule="evenodd" d="M242.694 292.532H247.377V268.846H242.694V292.532Z" fill="#201E1D"/>
<path fill-rule="evenodd" clip-rule="evenodd" d="M251.178 280.487C251.178 282.777 251.563 284.668 252.354 286.266C253.015 287.598 253.947 288.72 255.292 289.799C257.385 291.477 260.332 292.329 264.052 292.329H270.461V287.859H264.408C261.04 287.859 258.598 287.018 257.152 285.358C256.123 284.181 255.595 282.591 255.581 280.636C255.563 278.539 256.149 276.871 257.318 275.684C258.781 274.197 261.167 273.444 264.408 273.444H270.461V269.011H264.276C262.193 269.011 260.447 269.221 258.934 269.648C257.423 270.077 256.182 270.716 255.142 271.599C253.663 272.858 251.178 275.684 251.178 280.487Z" fill="#201E1D"/>
<path fill-rule="evenodd" clip-rule="evenodd" d="M298.823 280.487C298.823 282.772 299.217 284.79 300 286.476C300.677 287.937 301.664 289.197 302.936 290.216C304.903 291.798 307.687 292.532 311.696 292.532H318.452V288.063H312.053C308.692 288.063 306.25 287.185 304.794 285.456C303.767 284.238 303.239 282.617 303.226 280.636C303.206 278.481 303.813 276.762 305.023 275.533C306.495 274.036 308.859 273.277 312.053 273.277H318.452V268.847H311.918C309.837 268.847 308.092 269.055 306.578 269.483C305.067 269.911 303.826 270.546 302.789 271.431C301.594 272.444 298.823 275.356 298.823 280.487Z" fill="#201E1D"/>
</g>
</g>
<defs>
<filter id="filter0_dd_1299_3851" x="0" y="0" width="815.5" height="493.5" filterUnits="userSpaceOnUse" color-interpolation-filters="sRGB">
<feFlood flood-opacity="0" result="BackgroundImageFix"/>
<feColorMatrix in="SourceAlpha" type="matrix" values="0 0 0 0 0 0 0 0 0 0 0 0 0 0 0 0 0 0 127 0" result="hardAlpha"/>
<feOffset dy="20"/>
<feGaussianBlur stdDeviation="20"/>
<feColorMatrix type="matrix" values="0 0 0 0 0.717647 0 0 0 0 0.717647 0 0 0 0 0.717647 0 0 0 0.06 0"/>
<feBlend mode="normal" in2="BackgroundImageFix" result="effect1_dropShadow_1299_3851"/>
<feColorMatrix in="SourceAlpha" type="matrix" values="0 0 0 0 0 0 0 0 0 0 0 0 0 0 0 0 0 0 127 0" result="hardAlpha"/>
<feOffset dy="4"/>
<feGaussianBlur stdDeviation="7"/>
<feColorMatrix type="matrix" values="0 0 0 0 0.716667 0 0 0 0 0.716667 0 0 0 0 0.716667 0 0 0 0.02 0"/>
<feBlend mode="normal" in2="effect1_dropShadow_1299_3851" result="effect2_dropShadow_1299_3851"/>
<feBlend mode="normal" in="SourceGraphic" in2="effect2_dropShadow_1299_3851" result="shape"/>
</filter>
<filter id="filter1_dd_1299_3851" x="138.75" y="192.75" width="538" height="216" filterUnits="userSpaceOnUse" color-interpolation-filters="sRGB">
<feFlood flood-opacity="0" result="BackgroundImageFix"/>
<feColorMatrix in="SourceAlpha" type="matrix" values="0 0 0 0 0 0 0 0 0 0 0 0 0 0 0 0 0 0 127 0" result="hardAlpha"/>
<feOffset dy="2"/>
<feGaussianBlur stdDeviation="10"/>
<feColorMatrix type="matrix" values="0 0 0 0 0.717647 0 0 0 0 0.717647 0 0 0 0 0.717647 0 0 0 0.08 0"/>
<feBlend mode="normal" in2="BackgroundImageFix" result="effect1_dropShadow_1299_3851"/>
<feColorMatrix in="SourceAlpha" type="matrix" values="0 0 0 0 0 0 0 0 0 0 0 0 0 0 0 0 0 0 127 0" result="hardAlpha"/>
<feOffset dy="20"/>
<feGaussianBlur stdDeviation="20"/>
<feColorMatrix type="matrix" values="0 0 0 0 0.717647 0 0 0 0 0.717647 0 0 0 0 0.717647 0 0 0 0.08 0"/>
<feBlend mode="normal" in2="effect1_dropShadow_1299_3851" result="effect2_dropShadow_1299_3851"/>
<feBlend mode="normal" in="SourceGraphic" in2="effect2_dropShadow_1299_3851" result="shape"/>
</filter>
</defs>
</svg>
