<svg width="1560" height="494" viewBox="0 0 1560 494" fill="none" xmlns="http://www.w3.org/2000/svg">
<g filter="url(#filter0_dd_1295_3906)">
<rect x="40.75" y="20.75" width="1478" height="412" rx="40" fill="white"/>
<rect x="40.75" y="20.75" width="1478" height="412" rx="40" stroke="#EBEFF6" stroke-width="1.5"/>
<path d="M123.405 107.205H131.369L139.781 127.727H140.139L148.551 107.205H156.516V137.75H150.251V117.869H149.998L142.093 137.601H137.827L129.923 117.794H129.669V137.75H123.405V107.205ZM172.157 138.197C169.801 138.197 167.773 137.72 166.072 136.766C164.382 135.801 163.079 134.439 162.165 132.679C161.25 130.909 160.792 128.816 160.792 126.4C160.792 124.043 161.25 121.975 162.165 120.195C163.079 118.415 164.367 117.028 166.028 116.034C167.698 115.04 169.657 114.543 171.904 114.543C173.415 114.543 174.822 114.786 176.125 115.273C177.437 115.751 178.581 116.472 179.555 117.436C180.54 118.401 181.305 119.614 181.852 121.075C182.399 122.527 182.672 124.227 182.672 126.176V127.921H163.328V123.984H176.692C176.692 123.069 176.493 122.259 176.095 121.553C175.697 120.847 175.145 120.295 174.439 119.897C173.743 119.489 172.933 119.286 172.008 119.286C171.044 119.286 170.189 119.509 169.443 119.957C168.707 120.394 168.131 120.986 167.713 121.732C167.295 122.467 167.081 123.288 167.072 124.192V127.936C167.072 129.07 167.28 130.049 167.698 130.874C168.126 131.7 168.727 132.336 169.503 132.783C170.278 133.231 171.198 133.455 172.262 133.455C172.968 133.455 173.614 133.355 174.201 133.156C174.787 132.957 175.29 132.659 175.707 132.261C176.125 131.864 176.443 131.376 176.662 130.8L182.538 131.188C182.24 132.599 181.628 133.832 180.704 134.886C179.789 135.93 178.606 136.746 177.154 137.332C175.712 137.909 174.047 138.197 172.157 138.197ZM199.004 114.841V119.614H185.208V114.841H199.004ZM188.34 109.352H194.694V130.71C194.694 131.297 194.783 131.754 194.962 132.082C195.141 132.401 195.39 132.624 195.708 132.754C196.036 132.883 196.414 132.947 196.841 132.947C197.14 132.947 197.438 132.923 197.736 132.873C198.035 132.813 198.263 132.768 198.422 132.739L199.422 137.467C199.104 137.566 198.656 137.68 198.079 137.81C197.503 137.949 196.802 138.033 195.976 138.063C194.445 138.123 193.103 137.919 191.949 137.452C190.806 136.984 189.916 136.259 189.28 135.274C188.643 134.29 188.33 133.047 188.34 131.545V109.352ZM209.676 138.183C208.214 138.183 206.911 137.929 205.768 137.422C204.624 136.905 203.72 136.144 203.053 135.14C202.397 134.126 202.069 132.863 202.069 131.352C202.069 130.079 202.303 129.01 202.77 128.145C203.237 127.28 203.874 126.584 204.679 126.057C205.485 125.53 206.399 125.132 207.423 124.864C208.458 124.595 209.541 124.406 210.675 124.297C212.007 124.158 213.081 124.028 213.896 123.909C214.712 123.78 215.303 123.591 215.671 123.342C216.039 123.094 216.223 122.726 216.223 122.239V122.149C216.223 121.205 215.925 120.474 215.328 119.957C214.742 119.44 213.906 119.181 212.823 119.181C211.679 119.181 210.769 119.435 210.093 119.942C209.417 120.439 208.97 121.065 208.751 121.821L202.874 121.344C203.173 119.952 203.759 118.749 204.634 117.734C205.509 116.71 206.638 115.925 208.02 115.378C209.412 114.821 211.023 114.543 212.852 114.543C214.125 114.543 215.343 114.692 216.507 114.99C217.68 115.288 218.719 115.751 219.624 116.377C220.539 117.004 221.259 117.809 221.786 118.793C222.313 119.768 222.577 120.936 222.577 122.298V137.75H216.551V134.573H216.372C216.004 135.289 215.512 135.92 214.896 136.467C214.279 137.004 213.539 137.427 212.673 137.735C211.808 138.033 210.809 138.183 209.676 138.183ZM211.495 133.798C212.43 133.798 213.255 133.614 213.971 133.246C214.687 132.868 215.249 132.361 215.656 131.724C216.064 131.088 216.268 130.367 216.268 129.562V127.131C216.069 127.26 215.796 127.379 215.448 127.489C215.11 127.588 214.727 127.683 214.299 127.772C213.872 127.852 213.444 127.926 213.017 127.996C212.589 128.055 212.201 128.11 211.853 128.16C211.107 128.269 210.456 128.443 209.899 128.682C209.343 128.92 208.91 129.244 208.602 129.651C208.294 130.049 208.139 130.546 208.139 131.143C208.139 132.008 208.453 132.669 209.079 133.126C209.715 133.574 210.521 133.798 211.495 133.798ZM237.346 137.75V107.205H249.397C251.714 107.205 253.688 107.647 255.319 108.532C256.949 109.407 258.192 110.625 259.047 112.186C259.912 113.737 260.345 115.527 260.345 117.555C260.345 119.584 259.907 121.374 259.032 122.925C258.157 124.476 256.89 125.684 255.229 126.549C253.578 127.414 251.58 127.847 249.233 127.847H241.552V122.671H248.189C249.432 122.671 250.456 122.457 251.262 122.03C252.077 121.592 252.684 120.991 253.081 120.225C253.489 119.45 253.693 118.56 253.693 117.555C253.693 116.541 253.489 115.656 253.081 114.901C252.684 114.135 252.077 113.543 251.262 113.126C250.446 112.698 249.412 112.484 248.159 112.484H243.804V137.75H237.346ZM270.338 138.183C268.876 138.183 267.574 137.929 266.43 137.422C265.287 136.905 264.382 136.144 263.716 135.14C263.059 134.126 262.731 132.863 262.731 131.352C262.731 130.079 262.965 129.01 263.432 128.145C263.9 127.28 264.536 126.584 265.341 126.057C266.147 125.53 267.061 125.132 268.086 124.864C269.12 124.595 270.203 124.406 271.337 124.297C272.669 124.158 273.743 124.028 274.559 123.909C275.374 123.78 275.966 123.591 276.333 123.342C276.701 123.094 276.885 122.726 276.885 122.239V122.149C276.885 121.205 276.587 120.474 275.99 119.957C275.404 119.44 274.569 119.181 273.485 119.181C272.341 119.181 271.431 119.435 270.755 119.942C270.079 120.439 269.632 121.065 269.413 121.821L263.537 121.344C263.835 119.952 264.422 118.749 265.297 117.734C266.172 116.71 267.3 115.925 268.682 115.378C270.074 114.821 271.685 114.543 273.515 114.543C274.787 114.543 276.005 114.692 277.169 114.99C278.342 115.288 279.381 115.751 280.286 116.377C281.201 117.004 281.922 117.809 282.449 118.793C282.975 119.768 283.239 120.936 283.239 122.298V137.75H277.213V134.573H277.034C276.667 135.289 276.174 135.92 275.558 136.467C274.941 137.004 274.201 137.427 273.336 137.735C272.471 138.033 271.471 138.183 270.338 138.183ZM272.157 133.798C273.092 133.798 273.917 133.614 274.633 133.246C275.349 132.868 275.911 132.361 276.319 131.724C276.726 131.088 276.93 130.367 276.93 129.562V127.131C276.731 127.26 276.458 127.379 276.11 127.489C275.772 127.588 275.389 127.683 274.961 127.772C274.534 127.852 274.106 127.926 273.679 127.996C273.251 128.055 272.863 128.11 272.515 128.16C271.77 128.269 271.118 128.443 270.561 128.682C270.005 128.92 269.572 129.244 269.264 129.651C268.956 130.049 268.801 130.546 268.801 131.143C268.801 132.008 269.115 132.669 269.741 133.126C270.377 133.574 271.183 133.798 272.157 133.798ZM291.271 146.341C290.465 146.341 289.71 146.276 289.004 146.147C288.308 146.028 287.731 145.874 287.273 145.685L288.705 140.942C289.451 141.17 290.122 141.295 290.719 141.315C291.325 141.335 291.847 141.195 292.285 140.897C292.732 140.599 293.095 140.092 293.374 139.376L293.746 138.406L285.528 114.841H292.21L296.953 131.665H297.192L301.979 114.841H308.706L299.802 140.226C299.374 141.459 298.793 142.533 298.057 143.447C297.331 144.372 296.411 145.083 295.298 145.58C294.184 146.087 292.842 146.341 291.271 146.341Z" fill="#19213D"/>
<a href="https://pay.facebook.com/">
<rect fill="black" fill-opacity="0" y="1.58523" width="188.672" height="50.8295"/>
</a>
<g filter="url(#filter1_dd_1295_3906)">
<rect x="486.75" y="213.75" width="208" height="134" rx="24" fill="white"/>
<rect x="486.25" y="213.25" width="209" height="135" rx="24.5" stroke="#D6DCE5"/>
<path d="M638.128 289.928L633.581 293.376L629.047 290.219C629.047 289.887 629.047 289.534 629.026 289.182C629.026 288.85 629.026 288.498 629.005 288.145C628.715 279.976 626.641 271.226 622.495 264.819C619.301 259.905 615.217 257.562 610.655 257.562C605.866 257.562 601.968 260.423 597.655 266.644C597.53 266.83 597.385 267.017 597.261 267.224C597.178 267.328 597.116 267.431 597.033 267.556C596.825 267.867 596.618 268.178 596.411 268.51C594.545 271.412 592.596 274.792 590.481 278.524C590.294 278.877 590.087 279.229 589.9 279.582C589.838 279.665 589.776 279.768 589.734 279.851L589.299 280.619L586.728 285.159C580.694 295.838 579.16 298.284 576.153 302.286C570.866 309.315 566.346 311.99 560.395 311.99C553.345 311.99 548.867 308.942 546.109 304.339C543.849 300.607 542.75 295.693 542.75 290.094L553.055 290.447C553.055 294.096 553.843 296.874 554.9 298.575C556.269 300.772 558.28 301.623 560.374 301.623C563.049 301.623 565.537 301.063 570.265 294.511C574.059 289.265 578.538 281.925 581.544 277.301L584.385 272.968L584.986 272.014L585.608 271.081L586.645 269.484C588.221 267.079 589.921 264.529 591.745 262.082C591.953 261.792 592.16 261.501 592.388 261.211C592.596 260.921 592.824 260.631 593.031 260.361C594.897 257.977 596.867 255.758 598.982 253.933C602.818 250.595 606.944 248.75 611.111 248.75C618.099 248.75 624.755 252.793 629.855 260.382C635.06 268.136 637.776 277.799 638.087 287.855C638.108 288.187 638.108 288.539 638.108 288.892C638.128 289.244 638.128 289.576 638.128 289.928Z" fill="#0081FB"/>
<path d="M550.874 261.099C555.595 253.832 562.413 248.75 570.23 248.75C574.758 248.75 579.257 250.087 583.958 253.919C589.098 258.107 594.578 265.003 601.414 276.37L603.865 280.449C609.783 290.289 613.148 295.35 615.12 297.739C617.653 300.806 619.235 301.623 621.541 301.623C627.388 301.623 629.041 296.356 629.041 290.217L638.129 289.932C638.129 296.35 636.862 301.065 634.705 304.789C632.624 308.39 628.564 311.99 621.734 311.99C617.488 311.99 613.726 311.069 609.567 307.152C606.37 304.146 602.631 298.805 599.755 294.005L591.2 279.742C586.908 272.584 582.971 267.245 580.692 264.829C578.241 262.229 575.214 259.119 570.186 259.119C566.116 259.119 562.537 261.943 559.645 266.304L550.874 261.099Z" fill="url(#paint0_linear_1295_3906)"/>
<path d="M570.223 259.117C566.161 259.117 562.587 261.941 559.7 266.301C555.618 272.464 553.117 281.641 553.117 290.455C553.117 294.09 553.111 296.825 554.154 298.512L546.192 304.345C543.94 300.6 542.75 295.817 542.75 290.219C542.75 280.038 545.56 269.295 550.874 261.099C555.589 253.832 562.462 248.75 570.265 248.75L570.223 259.117Z" fill="url(#paint1_linear_1295_3906)"/>
<path opacity="0.05" d="M585.608 271.081L584.986 272.014L584.385 272.968C585.857 275.103 587.536 277.674 589.299 280.619L589.734 279.851C589.776 279.768 589.838 279.665 589.9 279.582C590.087 279.229 590.294 278.877 590.481 278.524C588.76 275.705 587.101 273.196 585.608 271.081ZM592.388 261.211C592.16 261.501 591.953 261.792 591.745 262.082C593.259 263.969 594.793 266.104 596.411 268.51C596.618 268.178 596.825 267.867 597.033 267.556C597.116 267.431 597.178 267.328 597.261 267.224C597.385 267.017 597.53 266.83 597.655 266.644C596.079 264.321 594.545 262.227 593.031 260.361C592.824 260.631 592.596 260.921 592.388 261.211Z" fill="#000008"/>
<path opacity="0.07" d="M585.608 271.081L584.986 272.014C586.458 274.129 588.117 276.658 589.9 279.582C590.087 279.229 590.294 278.877 590.48 278.524C588.76 275.705 587.101 273.196 585.608 271.081ZM591.745 262.082C593.259 263.969 594.793 266.104 596.411 268.51C596.618 268.178 596.825 267.867 597.033 267.556C595.436 265.192 593.881 263.077 592.388 261.211C592.16 261.501 591.953 261.792 591.745 262.082Z" fill="#000008"/>
</g>
<g filter="url(#filter2_dd_1295_3906)">
<rect x="120.25" y="213.558" width="327" height="131.825" rx="24.5" stroke="#D6DCE5"/>
<path fill-rule="evenodd" clip-rule="evenodd" d="M340.865 261.529H330.089V289.94H334.736V280.605H340.865C344.504 280.605 347.304 279.78 349.266 278.129C351.227 276.479 352.208 274.125 352.208 271.067C352.208 267.996 351.224 265.638 349.256 263.995C347.288 262.351 344.491 261.529 340.865 261.529ZM345.755 275.105C344.619 275.985 342.86 276.424 340.479 276.424H334.736V265.71H340.479C342.847 265.71 344.602 266.143 345.745 267.008C346.888 267.874 347.46 269.234 347.46 271.087C347.46 272.887 346.892 274.226 345.755 275.105ZM225.457 261.535H231.077L240.633 278.821L250.19 261.535H255.688V289.94H251.103V268.169L242.723 283.244H238.422L230.042 268.169V289.94H225.457V261.535ZM270.479 290.447C268.355 290.447 266.488 289.977 264.878 289.037C263.269 288.097 262.015 286.795 261.115 285.131C260.216 283.468 259.766 281.56 259.766 279.41C259.766 277.232 260.205 275.305 261.084 273.627C261.964 271.95 263.185 270.638 264.747 269.691C266.309 268.744 268.105 268.271 270.134 268.271C272.149 268.271 273.884 268.747 275.338 269.701C276.791 270.655 277.911 271.991 278.696 273.708C279.48 275.426 279.873 277.442 279.873 279.755V281.012H264.311C264.595 282.744 265.295 284.106 266.411 285.101C267.526 286.095 268.937 286.592 270.641 286.592C272.007 286.592 273.184 286.389 274.171 285.983C275.158 285.577 276.085 284.962 276.951 284.137L279.386 287.12C276.964 289.338 273.995 290.447 270.479 290.447ZM273.826 273.597C272.866 272.616 271.608 272.126 270.052 272.126C268.538 272.126 267.269 272.626 266.248 273.627C265.227 274.628 264.581 275.974 264.311 277.665H275.47C275.335 275.934 274.786 274.578 273.826 273.597ZM281.212 272.531H285.432V282.575C285.432 287.796 287.819 290.406 292.594 290.406C293.284 290.406 293.943 290.359 294.573 290.264C295.202 290.169 295.766 290.048 296.267 289.899V286.186C295.78 286.267 295.333 286.332 294.927 286.379C294.522 286.426 294.028 286.45 293.447 286.45C292.135 286.45 291.207 286.112 290.667 285.435C290.126 284.759 289.855 283.63 289.855 282.047V272.531H296.267V268.778H289.855V262.569H285.432V268.778H281.212V272.531ZM319.316 289.94H314.974V286.977C314.203 288.087 313.222 288.942 312.032 289.544C310.841 290.146 309.489 290.447 307.974 290.447C306.108 290.447 304.454 289.97 303.014 289.017C301.573 288.063 300.44 286.751 299.615 285.08C298.789 283.41 298.378 281.499 298.378 279.349C298.378 277.185 298.797 275.27 299.635 273.607C300.473 271.943 301.634 270.638 303.114 269.691C304.596 268.744 306.297 268.271 308.217 268.271C309.665 268.271 310.963 268.552 312.113 269.113C313.263 269.674 314.216 270.469 314.974 271.497V268.778H319.316V289.94ZM314.893 276.184C314.419 274.98 313.672 274.03 312.651 273.333C311.63 272.636 310.449 272.288 309.11 272.288C307.216 272.288 305.709 272.924 304.586 274.195C303.463 275.467 302.902 277.185 302.902 279.349C302.902 281.527 303.442 283.251 304.525 284.522C305.607 285.794 307.074 286.43 308.928 286.43C310.294 286.43 311.511 286.078 312.58 285.375C313.648 284.671 314.419 283.725 314.893 282.534V276.184ZM374.754 289.94H370.412V286.977C369.64 288.086 368.66 288.942 367.469 289.544C366.278 290.146 364.925 290.447 363.41 290.447C361.543 290.447 359.89 289.97 358.448 289.016C357.008 288.063 355.875 286.751 355.05 285.079C354.224 283.409 353.812 281.498 353.812 279.347C353.812 277.182 354.231 275.268 355.07 273.604C355.908 271.94 357.069 270.634 358.55 269.687C360.032 268.74 361.733 268.267 363.654 268.267C365.101 268.267 366.4 268.547 367.55 269.109C368.7 269.67 369.654 270.465 370.412 271.493V268.774H374.754V289.94ZM370.33 276.181C369.856 274.977 369.11 274.027 368.088 273.33C367.066 272.633 365.886 272.285 364.547 272.285C362.653 272.285 361.144 272.921 360.021 274.192C358.898 275.464 358.337 277.182 358.337 279.347C358.337 281.525 358.878 283.25 359.961 284.521C361.043 285.793 362.511 286.429 364.364 286.429C365.73 286.429 366.948 286.077 368.017 285.374C369.086 284.67 369.856 283.723 370.33 282.533V276.181ZM377.738 268.774C379.09 272.508 380.518 276.211 382.02 279.884C383.522 283.557 385.11 287.146 386.788 290.65C386.084 292.206 385.294 293.319 384.414 293.988C383.534 294.658 382.458 294.993 381.186 294.993C381.024 294.993 380.848 294.986 380.66 294.972C380.47 294.959 380.234 294.932 379.948 294.891V298.808C380.53 298.916 381.112 298.97 381.694 298.97C383.872 298.97 385.696 298.324 387.164 297.032C388.632 295.74 389.98 293.613 391.212 290.65C392.51 287.512 393.658 284.657 394.652 282.086C395.646 279.516 396.532 277.145 397.31 274.973C398.088 272.802 398.788 270.736 399.41 268.774H394.642C393.032 274.51 391.144 280.219 388.98 285.901C387.79 283.101 386.662 280.263 385.602 277.388C384.538 274.514 383.568 271.642 382.688 268.774H377.738Z" fill="#1C2B33"/>
<path d="M215.914 280.075L213.676 281.772L211.444 280.218C211.444 280.055 211.444 279.881 211.433 279.708C211.433 279.544 211.433 279.371 211.423 279.197C211.28 275.176 210.26 270.869 208.218 267.715C206.646 265.296 204.636 264.143 202.39 264.143C200.033 264.143 198.114 265.551 195.991 268.613C195.93 268.705 195.858 268.797 195.797 268.899C195.756 268.95 195.725 269.001 195.685 269.062C195.583 269.215 195.48 269.368 195.378 269.532C194.46 270.961 193.5 272.624 192.459 274.461C192.367 274.635 192.265 274.808 192.174 274.982C192.143 275.023 192.112 275.074 192.092 275.115L191.878 275.492L190.612 277.727C187.642 282.984 186.887 284.188 185.407 286.158C182.804 289.618 180.579 290.935 177.65 290.935C174.179 290.935 171.975 289.434 170.617 287.169C169.505 285.331 168.964 282.912 168.964 280.157L174.037 280.33C174.037 282.127 174.424 283.494 174.945 284.331C175.619 285.413 176.609 285.831 177.639 285.831C178.956 285.831 180.181 285.556 182.508 282.331C184.376 279.748 186.58 276.135 188.06 273.859L189.459 271.726L189.755 271.257L190.061 270.797L190.571 270.011C191.347 268.827 192.184 267.572 193.082 266.368C193.184 266.225 193.286 266.082 193.398 265.939C193.5 265.796 193.613 265.653 193.715 265.52C194.633 264.347 195.603 263.255 196.644 262.356C198.532 260.713 200.563 259.805 202.615 259.805C206.054 259.805 209.331 261.795 211.842 265.531C214.403 269.348 215.74 274.104 215.894 279.054C215.904 279.218 215.904 279.391 215.904 279.565C215.914 279.738 215.914 279.901 215.914 280.075Z" fill="#0081FB"/>
<path d="M172.963 265.884C175.287 262.306 178.643 259.805 182.491 259.805C184.72 259.805 186.935 260.463 189.248 262.349C191.779 264.411 194.476 267.806 197.841 273.401L199.048 275.409C201.961 280.253 203.617 282.744 204.588 283.92C205.835 285.429 206.614 285.831 207.749 285.831C210.627 285.831 211.441 283.239 211.441 280.217L215.914 280.077C215.914 283.236 215.29 285.557 214.229 287.39C213.204 289.163 211.206 290.935 207.844 290.935C205.753 290.935 203.902 290.482 201.855 288.554C200.281 287.074 198.44 284.444 197.025 282.082L192.814 275.061C190.701 271.537 188.763 268.909 187.641 267.72C186.435 266.44 184.944 264.909 182.469 264.909C180.466 264.909 178.704 266.299 177.28 268.446L172.963 265.884Z" fill="url(#paint2_linear_1295_3906)"/>
<path d="M182.488 264.908C180.488 264.908 178.728 266.298 177.308 268.445C175.298 271.478 174.067 275.995 174.067 280.334C174.067 282.123 174.064 283.47 174.577 284.3L170.658 287.172C169.55 285.328 168.964 282.974 168.964 280.218C168.964 275.206 170.347 269.918 172.963 265.884C175.284 262.306 178.667 259.805 182.508 259.805L182.488 264.908Z" fill="url(#paint3_linear_1295_3906)"/>
<path opacity="0.05" d="M190.061 270.797L189.754 271.257L189.458 271.726C190.183 272.777 191.01 274.043 191.877 275.492L192.092 275.115C192.112 275.074 192.143 275.023 192.173 274.982C192.265 274.808 192.367 274.635 192.459 274.461C191.612 273.073 190.796 271.838 190.061 270.797ZM193.398 265.939C193.286 266.082 193.184 266.225 193.082 266.368C193.827 267.296 194.582 268.348 195.378 269.532C195.48 269.368 195.582 269.215 195.684 269.062C195.725 269.001 195.756 268.95 195.797 268.899C195.858 268.797 195.929 268.705 195.991 268.613C195.215 267.47 194.46 266.439 193.715 265.52C193.613 265.653 193.5 265.796 193.398 265.939Z" fill="#000008"/>
<path opacity="0.07" d="M190.061 270.797L189.754 271.257C190.479 272.298 191.296 273.543 192.173 274.982C192.265 274.808 192.367 274.635 192.459 274.461C191.612 273.073 190.795 271.838 190.061 270.797ZM193.082 266.368C193.827 267.296 194.582 268.348 195.378 269.532C195.48 269.368 195.582 269.215 195.684 269.062C194.898 267.899 194.133 266.857 193.398 265.939C193.286 266.082 193.184 266.225 193.082 266.368Z" fill="#000008"/>
</g>
<g filter="url(#filter3_dd_1295_3906)">
<rect x="734.75" y="213.75" width="208" height="134" rx="24" fill="#0081FB"/>
<rect x="734.25" y="213.25" width="209" height="135" rx="24.5" stroke="#D6DCE5"/>
<path d="M886.128 290.928L881.581 294.376L877.047 291.219C877.047 290.887 877.047 290.534 877.026 290.182C877.026 289.85 877.026 289.498 877.005 289.145C876.715 280.976 874.641 272.226 870.495 265.819C867.301 260.905 863.217 258.562 858.655 258.562C853.866 258.562 849.968 261.423 845.655 267.644C845.53 267.83 845.385 268.017 845.261 268.224C845.178 268.328 845.116 268.431 845.033 268.556C844.825 268.867 844.618 269.178 844.411 269.51C842.545 272.412 840.596 275.792 838.481 279.524C838.294 279.877 838.087 280.229 837.9 280.582C837.838 280.665 837.776 280.768 837.734 280.851L837.299 281.619L834.728 286.159C828.694 296.838 827.16 299.284 824.153 303.286C818.866 310.315 814.346 312.99 808.395 312.99C801.345 312.99 796.867 309.942 794.109 305.339C791.849 301.607 790.75 296.693 790.75 291.094L801.055 291.447C801.055 295.096 801.843 297.874 802.9 299.575C804.269 301.772 806.28 302.623 808.374 302.623C811.049 302.623 813.537 302.063 818.265 295.511C822.059 290.265 826.538 282.925 829.544 278.301L832.385 273.968L832.986 273.014L833.608 272.081L834.645 270.484C836.221 268.079 837.921 265.529 839.745 263.082C839.953 262.792 840.16 262.501 840.388 262.211C840.596 261.921 840.824 261.631 841.031 261.361C842.897 258.977 844.867 256.758 846.982 254.933C850.818 251.595 854.944 249.75 859.111 249.75C866.099 249.75 872.755 253.793 877.855 261.382C883.06 269.136 885.776 278.799 886.087 288.855C886.108 289.187 886.108 289.539 886.108 289.892C886.128 290.244 886.128 290.576 886.128 290.928Z" fill="white"/>
<path d="M798.874 262.099C803.595 254.832 810.413 249.75 818.23 249.75C822.758 249.75 827.257 251.087 831.958 254.919C837.098 259.107 842.578 266.003 849.414 277.37L851.865 281.449C857.783 291.289 861.148 296.35 863.12 298.739C865.653 301.806 867.235 302.623 869.541 302.623C875.388 302.623 877.041 297.356 877.041 291.217L886.129 290.932C886.129 297.35 884.862 302.065 882.705 305.789C880.624 309.39 876.564 312.99 869.734 312.99C865.488 312.99 861.726 312.069 857.567 308.152C854.37 305.146 850.631 299.805 847.755 295.005L839.2 280.742C834.908 273.584 830.971 268.245 828.692 265.829C826.241 263.229 823.214 260.119 818.186 260.119C814.116 260.119 810.537 262.943 807.645 267.304L798.874 262.099Z" fill="white"/>
<path d="M818.223 260.117C814.161 260.117 810.587 262.941 807.7 267.301C803.618 273.464 801.117 282.641 801.117 291.455C801.117 295.09 801.111 297.825 802.154 299.512L794.192 305.345C791.94 301.6 790.75 296.817 790.75 291.219C790.75 281.038 793.56 270.295 798.874 262.099C803.589 254.832 810.462 249.75 818.265 249.75L818.223 260.117Z" fill="white"/>
<path opacity="0.05" d="M833.608 272.081L832.986 273.014L832.385 273.968C833.857 276.103 835.536 278.674 837.299 281.619L837.734 280.851C837.776 280.768 837.838 280.665 837.9 280.582C838.087 280.229 838.294 279.877 838.481 279.524C836.76 276.705 835.101 274.196 833.608 272.081ZM840.388 262.211C840.16 262.501 839.953 262.792 839.745 263.082C841.259 264.969 842.793 267.104 844.411 269.51C844.618 269.178 844.825 268.867 845.033 268.556C845.116 268.431 845.178 268.328 845.261 268.224C845.385 268.017 845.53 267.83 845.655 267.644C844.079 265.321 842.545 263.227 841.031 261.361C840.824 261.631 840.596 261.921 840.388 262.211Z" fill="white"/>
<path opacity="0.07" d="M833.608 272.081L832.986 273.014C834.458 275.129 836.117 277.658 837.9 280.582C838.087 280.229 838.294 279.877 838.48 279.524C836.76 276.705 835.101 274.196 833.608 272.081ZM839.745 263.082C841.259 264.969 842.793 267.104 844.411 269.51C844.618 269.178 844.825 268.867 845.033 268.556C843.436 266.192 841.881 264.077 840.388 262.211C840.16 262.501 839.953 262.792 839.745 263.082Z" fill="white"/>
</g>
<g filter="url(#filter4_dd_1295_3906)">
<rect x="982.75" y="213.75" width="208" height="134" rx="24" fill="#E5F2FF"/>
<rect x="982.25" y="213.25" width="209" height="135" rx="24.5" stroke="#D6DCE5"/>
<path d="M1134.13 290.928L1129.58 294.376L1125.05 291.219C1125.05 290.887 1125.05 290.534 1125.03 290.182C1125.03 289.85 1125.03 289.498 1125.01 289.145C1124.71 280.976 1122.64 272.226 1118.49 265.819C1115.3 260.905 1111.22 258.562 1106.66 258.562C1101.87 258.562 1097.97 261.423 1093.65 267.644C1093.53 267.83 1093.39 268.017 1093.26 268.224C1093.18 268.328 1093.12 268.431 1093.03 268.556C1092.83 268.867 1092.62 269.178 1092.41 269.51C1090.54 272.412 1088.6 275.792 1086.48 279.524C1086.29 279.877 1086.09 280.229 1085.9 280.582C1085.84 280.665 1085.78 280.768 1085.73 280.851L1085.3 281.619L1082.73 286.159C1076.69 296.838 1075.16 299.284 1072.15 303.286C1066.87 310.315 1062.35 312.99 1056.39 312.99C1049.35 312.99 1044.87 309.942 1042.11 305.339C1039.85 301.607 1038.75 296.693 1038.75 291.094L1049.06 291.447C1049.06 295.096 1049.84 297.874 1050.9 299.575C1052.27 301.772 1054.28 302.623 1056.37 302.623C1059.05 302.623 1061.54 302.063 1066.26 295.511C1070.06 290.265 1074.54 282.925 1077.54 278.301L1080.38 273.968L1080.99 273.014L1081.61 272.081L1082.64 270.484C1084.22 268.079 1085.92 265.529 1087.75 263.082C1087.95 262.792 1088.16 262.501 1088.39 262.211C1088.6 261.921 1088.82 261.631 1089.03 261.361C1090.9 258.977 1092.87 256.758 1094.98 254.933C1098.82 251.595 1102.94 249.75 1107.11 249.75C1114.1 249.75 1120.75 253.793 1125.86 261.382C1131.06 269.136 1133.78 278.799 1134.09 288.855C1134.11 289.187 1134.11 289.539 1134.11 289.892C1134.13 290.244 1134.13 290.576 1134.13 290.928Z" fill="#0081FB"/>
<path d="M1046.87 262.099C1051.6 254.832 1058.41 249.75 1066.23 249.75C1070.76 249.75 1075.26 251.087 1079.96 254.919C1085.1 259.107 1090.58 266.003 1097.41 277.37L1099.86 281.449C1105.78 291.289 1109.15 296.35 1111.12 298.739C1113.65 301.806 1115.24 302.623 1117.54 302.623C1123.39 302.623 1125.04 297.356 1125.04 291.217L1134.13 290.932C1134.13 297.35 1132.86 302.065 1130.71 305.789C1128.62 309.39 1124.56 312.99 1117.73 312.99C1113.49 312.99 1109.73 312.069 1105.57 308.152C1102.37 305.146 1098.63 299.805 1095.76 295.005L1087.2 280.742C1082.91 273.584 1078.97 268.245 1076.69 265.829C1074.24 263.229 1071.21 260.119 1066.19 260.119C1062.12 260.119 1058.54 262.943 1055.64 267.304L1046.87 262.099Z" fill="url(#paint4_linear_1295_3906)"/>
<path d="M1066.22 260.117C1062.16 260.117 1058.59 262.941 1055.7 267.301C1051.62 273.464 1049.12 282.641 1049.12 291.455C1049.12 295.09 1049.11 297.825 1050.15 299.512L1042.19 305.345C1039.94 301.6 1038.75 296.817 1038.75 291.219C1038.75 281.038 1041.56 270.295 1046.87 262.099C1051.59 254.832 1058.46 249.75 1066.26 249.75L1066.22 260.117Z" fill="url(#paint5_linear_1295_3906)"/>
<path opacity="0.05" d="M1081.61 272.081L1080.99 273.014L1080.38 273.968C1081.86 276.103 1083.54 278.674 1085.3 281.619L1085.73 280.851C1085.78 280.768 1085.84 280.665 1085.9 280.582C1086.09 280.229 1086.29 279.877 1086.48 279.524C1084.76 276.705 1083.1 274.196 1081.61 272.081ZM1088.39 262.211C1088.16 262.501 1087.95 262.792 1087.75 263.082C1089.26 264.969 1090.79 267.104 1092.41 269.51C1092.62 269.178 1092.83 268.867 1093.03 268.556C1093.12 268.431 1093.18 268.328 1093.26 268.224C1093.39 268.017 1093.53 267.83 1093.65 267.644C1092.08 265.321 1090.54 263.227 1089.03 261.361C1088.82 261.631 1088.6 261.921 1088.39 262.211Z" fill="#000008"/>
<path opacity="0.07" d="M1081.61 272.081L1080.99 273.014C1082.46 275.129 1084.12 277.658 1085.9 280.582C1086.09 280.229 1086.29 279.877 1086.48 279.524C1084.76 276.705 1083.1 274.196 1081.61 272.081ZM1087.75 263.082C1089.26 264.969 1090.79 267.104 1092.41 269.51C1092.62 269.178 1092.83 268.867 1093.03 268.556C1091.44 266.192 1089.88 264.077 1088.39 262.211C1088.16 262.501 1087.95 262.792 1087.75 263.082Z" fill="#000008"/>
</g>
<g filter="url(#filter5_dd_1295_3906)">
<rect x="1230.75" y="213.75" width="208" height="134" rx="24" fill="#393652"/>
<rect x="1230.25" y="213.25" width="209" height="135" rx="24.5" stroke="#D6DCE5"/>
<path d="M1382.13 290.928L1377.58 294.376L1373.05 291.219C1373.05 290.887 1373.05 290.534 1373.03 290.182C1373.03 289.85 1373.03 289.498 1373.01 289.145C1372.71 280.976 1370.64 272.226 1366.49 265.819C1363.3 260.905 1359.22 258.562 1354.66 258.562C1349.87 258.562 1345.97 261.423 1341.65 267.644C1341.53 267.83 1341.39 268.017 1341.26 268.224C1341.18 268.328 1341.12 268.431 1341.03 268.556C1340.83 268.867 1340.62 269.178 1340.41 269.51C1338.54 272.412 1336.6 275.792 1334.48 279.524C1334.29 279.877 1334.09 280.229 1333.9 280.582C1333.84 280.665 1333.78 280.768 1333.73 280.851L1333.3 281.619L1330.73 286.159C1324.69 296.838 1323.16 299.284 1320.15 303.286C1314.87 310.315 1310.35 312.99 1304.39 312.99C1297.35 312.99 1292.87 309.942 1290.11 305.339C1287.85 301.607 1286.75 296.693 1286.75 291.094L1297.06 291.447C1297.06 295.096 1297.84 297.874 1298.9 299.575C1300.27 301.772 1302.28 302.623 1304.37 302.623C1307.05 302.623 1309.54 302.063 1314.26 295.511C1318.06 290.265 1322.54 282.925 1325.54 278.301L1328.38 273.968L1328.99 273.014L1329.61 272.081L1330.64 270.484C1332.22 268.079 1333.92 265.529 1335.75 263.082C1335.95 262.792 1336.16 262.501 1336.39 262.211C1336.6 261.921 1336.82 261.631 1337.03 261.361C1338.9 258.977 1340.87 256.758 1342.98 254.933C1346.82 251.595 1350.94 249.75 1355.11 249.75C1362.1 249.75 1368.75 253.793 1373.86 261.382C1379.06 269.136 1381.78 278.799 1382.09 288.855C1382.11 289.187 1382.11 289.539 1382.11 289.892C1382.13 290.244 1382.13 290.576 1382.13 290.928Z" fill="white"/>
<path d="M1294.87 262.099C1299.6 254.832 1306.41 249.75 1314.23 249.75C1318.76 249.75 1323.26 251.087 1327.96 254.919C1333.1 259.107 1338.58 266.003 1345.41 277.37L1347.86 281.449C1353.78 291.289 1357.15 296.35 1359.12 298.739C1361.65 301.806 1363.24 302.623 1365.54 302.623C1371.39 302.623 1373.04 297.356 1373.04 291.217L1382.13 290.932C1382.13 297.35 1380.86 302.065 1378.71 305.789C1376.62 309.39 1372.56 312.99 1365.73 312.99C1361.49 312.99 1357.73 312.069 1353.57 308.152C1350.37 305.146 1346.63 299.805 1343.76 295.005L1335.2 280.742C1330.91 273.584 1326.97 268.245 1324.69 265.829C1322.24 263.229 1319.21 260.119 1314.19 260.119C1310.12 260.119 1306.54 262.943 1303.64 267.304L1294.87 262.099Z" fill="white"/>
<path d="M1314.22 260.117C1310.16 260.117 1306.59 262.941 1303.7 267.301C1299.62 273.464 1297.12 282.641 1297.12 291.455C1297.12 295.09 1297.11 297.825 1298.15 299.512L1290.19 305.345C1287.94 301.6 1286.75 296.817 1286.75 291.219C1286.75 281.038 1289.56 270.295 1294.87 262.099C1299.59 254.832 1306.46 249.75 1314.26 249.75L1314.22 260.117Z" fill="white"/>
<path opacity="0.05" d="M1329.61 272.081L1328.99 273.014L1328.38 273.968C1329.86 276.103 1331.54 278.674 1333.3 281.619L1333.73 280.851C1333.78 280.768 1333.84 280.665 1333.9 280.582C1334.09 280.229 1334.29 279.877 1334.48 279.524C1332.76 276.705 1331.1 274.196 1329.61 272.081ZM1336.39 262.211C1336.16 262.501 1335.95 262.792 1335.75 263.082C1337.26 264.969 1338.79 267.104 1340.41 269.51C1340.62 269.178 1340.83 268.867 1341.03 268.556C1341.12 268.431 1341.18 268.328 1341.26 268.224C1341.39 268.017 1341.53 267.83 1341.65 267.644C1340.08 265.321 1338.54 263.227 1337.03 261.361C1336.82 261.631 1336.6 261.921 1336.39 262.211Z" fill="white"/>
<path opacity="0.07" d="M1329.61 272.081L1328.99 273.014C1330.46 275.129 1332.12 277.658 1333.9 280.582C1334.09 280.229 1334.29 279.877 1334.48 279.524C1332.76 276.705 1331.1 274.196 1329.61 272.081ZM1335.75 263.082C1337.26 264.969 1338.79 267.104 1340.41 269.51C1340.62 269.178 1340.83 268.867 1341.03 268.556C1339.44 266.192 1337.88 264.077 1336.39 262.211C1336.16 262.501 1335.95 262.792 1335.75 263.082Z" fill="white"/>
</g>
</g>
<defs>
<filter id="filter0_dd_1295_3906" x="0" y="0" width="1559.5" height="493.5" filterUnits="userSpaceOnUse" color-interpolation-filters="sRGB">
<feFlood flood-opacity="0" result="BackgroundImageFix"/>
<feColorMatrix in="SourceAlpha" type="matrix" values="0 0 0 0 0 0 0 0 0 0 0 0 0 0 0 0 0 0 127 0" result="hardAlpha"/>
<feOffset dy="20"/>
<feGaussianBlur stdDeviation="20"/>
<feColorMatrix type="matrix" values="0 0 0 0 0.717647 0 0 0 0 0.717647 0 0 0 0 0.717647 0 0 0 0.06 0"/>
<feBlend mode="normal" in2="BackgroundImageFix" result="effect1_dropShadow_1295_3906"/>
<feColorMatrix in="SourceAlpha" type="matrix" values="0 0 0 0 0 0 0 0 0 0 0 0 0 0 0 0 0 0 127 0" result="hardAlpha"/>
<feOffset dy="4"/>
<feGaussianBlur stdDeviation="7"/>
<feColorMatrix type="matrix" values="0 0 0 0 0.716667 0 0 0 0 0.716667 0 0 0 0 0.716667 0 0 0 0.02 0"/>
<feBlend mode="normal" in2="effect1_dropShadow_1295_3906" result="effect2_dropShadow_1295_3906"/>
<feBlend mode="normal" in="SourceGraphic" in2="effect2_dropShadow_1295_3906" result="shape"/>
</filter>
<filter id="filter1_dd_1295_3906" x="445.75" y="192.75" width="290" height="216" filterUnits="userSpaceOnUse" color-interpolation-filters="sRGB">
<feFlood flood-opacity="0" result="BackgroundImageFix"/>
<feColorMatrix in="SourceAlpha" type="matrix" values="0 0 0 0 0 0 0 0 0 0 0 0 0 0 0 0 0 0 127 0" result="hardAlpha"/>
<feOffset dy="2"/>
<feGaussianBlur stdDeviation="10"/>
<feColorMatrix type="matrix" values="0 0 0 0 0.717647 0 0 0 0 0.717647 0 0 0 0 0.717647 0 0 0 0.08 0"/>
<feBlend mode="normal" in2="BackgroundImageFix" result="effect1_dropShadow_1295_3906"/>
<feColorMatrix in="SourceAlpha" type="matrix" values="0 0 0 0 0 0 0 0 0 0 0 0 0 0 0 0 0 0 127 0" result="hardAlpha"/>
<feOffset dy="20"/>
<feGaussianBlur stdDeviation="20"/>
<feColorMatrix type="matrix" values="0 0 0 0 0.717647 0 0 0 0 0.717647 0 0 0 0 0.717647 0 0 0 0.08 0"/>
<feBlend mode="normal" in2="effect1_dropShadow_1295_3906" result="effect2_dropShadow_1295_3906"/>
<feBlend mode="normal" in="SourceGraphic" in2="effect2_dropShadow_1295_3906" result="shape"/>
</filter>
<filter id="filter2_dd_1295_3906" x="79.75" y="193.058" width="408" height="212.825" filterUnits="userSpaceOnUse" color-interpolation-filters="sRGB">
<feFlood flood-opacity="0" result="BackgroundImageFix"/>
<feColorMatrix in="SourceAlpha" type="matrix" values="0 0 0 0 0 0 0 0 0 0 0 0 0 0 0 0 0 0 127 0" result="hardAlpha"/>
<feOffset dy="2"/>
<feGaussianBlur stdDeviation="10"/>
<feColorMatrix type="matrix" values="0 0 0 0 0.717647 0 0 0 0 0.717647 0 0 0 0 0.717647 0 0 0 0.08 0"/>
<feBlend mode="normal" in2="BackgroundImageFix" result="effect1_dropShadow_1295_3906"/>
<feColorMatrix in="SourceAlpha" type="matrix" values="0 0 0 0 0 0 0 0 0 0 0 0 0 0 0 0 0 0 127 0" result="hardAlpha"/>
<feOffset dy="20"/>
<feGaussianBlur stdDeviation="20"/>
<feColorMatrix type="matrix" values="0 0 0 0 0.717647 0 0 0 0 0.717647 0 0 0 0 0.717647 0 0 0 0.08 0"/>
<feBlend mode="normal" in2="effect1_dropShadow_1295_3906" result="effect2_dropShadow_1295_3906"/>
<feBlend mode="normal" in="SourceGraphic" in2="effect2_dropShadow_1295_3906" result="shape"/>
</filter>
<filter id="filter3_dd_1295_3906" x="693.75" y="192.75" width="290" height="216" filterUnits="userSpaceOnUse" color-interpolation-filters="sRGB">
<feFlood flood-opacity="0" result="BackgroundImageFix"/>
<feColorMatrix in="SourceAlpha" type="matrix" values="0 0 0 0 0 0 0 0 0 0 0 0 0 0 0 0 0 0 127 0" result="hardAlpha"/>
<feOffset dy="2"/>
<feGaussianBlur stdDeviation="10"/>
<feColorMatrix type="matrix" values="0 0 0 0 0.717647 0 0 0 0 0.717647 0 0 0 0 0.717647 0 0 0 0.08 0"/>
<feBlend mode="normal" in2="BackgroundImageFix" result="effect1_dropShadow_1295_3906"/>
<feColorMatrix in="SourceAlpha" type="matrix" values="0 0 0 0 0 0 0 0 0 0 0 0 0 0 0 0 0 0 127 0" result="hardAlpha"/>
<feOffset dy="20"/>
<feGaussianBlur stdDeviation="20"/>
<feColorMatrix type="matrix" values="0 0 0 0 0.717647 0 0 0 0 0.717647 0 0 0 0 0.717647 0 0 0 0.08 0"/>
<feBlend mode="normal" in2="effect1_dropShadow_1295_3906" result="effect2_dropShadow_1295_3906"/>
<feBlend mode="normal" in="SourceGraphic" in2="effect2_dropShadow_1295_3906" result="shape"/>
</filter>
<filter id="filter4_dd_1295_3906" x="941.75" y="192.75" width="290" height="216" filterUnits="userSpaceOnUse" color-interpolation-filters="sRGB">
<feFlood flood-opacity="0" result="BackgroundImageFix"/>
<feColorMatrix in="SourceAlpha" type="matrix" values="0 0 0 0 0 0 0 0 0 0 0 0 0 0 0 0 0 0 127 0" result="hardAlpha"/>
<feOffset dy="2"/>
<feGaussianBlur stdDeviation="10"/>
<feColorMatrix type="matrix" values="0 0 0 0 0.717647 0 0 0 0 0.717647 0 0 0 0 0.717647 0 0 0 0.08 0"/>
<feBlend mode="normal" in2="BackgroundImageFix" result="effect1_dropShadow_1295_3906"/>
<feColorMatrix in="SourceAlpha" type="matrix" values="0 0 0 0 0 0 0 0 0 0 0 0 0 0 0 0 0 0 127 0" result="hardAlpha"/>
<feOffset dy="20"/>
<feGaussianBlur stdDeviation="20"/>
<feColorMatrix type="matrix" values="0 0 0 0 0.717647 0 0 0 0 0.717647 0 0 0 0 0.717647 0 0 0 0.08 0"/>
<feBlend mode="normal" in2="effect1_dropShadow_1295_3906" result="effect2_dropShadow_1295_3906"/>
<feBlend mode="normal" in="SourceGraphic" in2="effect2_dropShadow_1295_3906" result="shape"/>
</filter>
<filter id="filter5_dd_1295_3906" x="1189.75" y="192.75" width="290" height="216" filterUnits="userSpaceOnUse" color-interpolation-filters="sRGB">
<feFlood flood-opacity="0" result="BackgroundImageFix"/>
<feColorMatrix in="SourceAlpha" type="matrix" values="0 0 0 0 0 0 0 0 0 0 0 0 0 0 0 0 0 0 127 0" result="hardAlpha"/>
<feOffset dy="2"/>
<feGaussianBlur stdDeviation="10"/>
<feColorMatrix type="matrix" values="0 0 0 0 0.717647 0 0 0 0 0.717647 0 0 0 0 0.717647 0 0 0 0.08 0"/>
<feBlend mode="normal" in2="BackgroundImageFix" result="effect1_dropShadow_1295_3906"/>
<feColorMatrix in="SourceAlpha" type="matrix" values="0 0 0 0 0 0 0 0 0 0 0 0 0 0 0 0 0 0 127 0" result="hardAlpha"/>
<feOffset dy="20"/>
<feGaussianBlur stdDeviation="20"/>
<feColorMatrix type="matrix" values="0 0 0 0 0.717647 0 0 0 0 0.717647 0 0 0 0 0.717647 0 0 0 0.08 0"/>
<feBlend mode="normal" in2="effect1_dropShadow_1295_3906" result="effect2_dropShadow_1295_3906"/>
<feBlend mode="normal" in="SourceGraphic" in2="effect2_dropShadow_1295_3906" result="shape"/>
</filter>
<linearGradient id="paint0_linear_1295_3906" x1="628.392" y1="280.37" x2="568.737" y2="280.37" gradientUnits="userSpaceOnUse">
<stop stop-color="#0081FB"/>
<stop offset="0.995" stop-color="#0064E1"/>
</linearGradient>
<linearGradient id="paint1_linear_1295_3906" x1="556.507" y1="297.206" x2="556.507" y2="256.032" gradientUnits="userSpaceOnUse">
<stop stop-color="#0081FB"/>
<stop offset="0.995" stop-color="#0064E1"/>
</linearGradient>
<linearGradient id="paint2_linear_1295_3906" x1="211.121" y1="275.37" x2="181.756" y2="275.37" gradientUnits="userSpaceOnUse">
<stop stop-color="#0081FB"/>
<stop offset="0.995" stop-color="#0064E1"/>
</linearGradient>
<linearGradient id="paint3_linear_1295_3906" x1="175.736" y1="283.657" x2="175.736" y2="263.389" gradientUnits="userSpaceOnUse">
<stop stop-color="#0081FB"/>
<stop offset="0.995" stop-color="#0064E1"/>
</linearGradient>
<linearGradient id="paint4_linear_1295_3906" x1="1124.39" y1="281.37" x2="1064.74" y2="281.37" gradientUnits="userSpaceOnUse">
<stop stop-color="#0081FB"/>
<stop offset="0.995" stop-color="#0064E1"/>
</linearGradient>
<linearGradient id="paint5_linear_1295_3906" x1="1052.51" y1="298.206" x2="1052.51" y2="257.032" gradientUnits="userSpaceOnUse">
<stop stop-color="#0081FB"/>
<stop offset="0.995" stop-color="#0064E1"/>
</linearGradient>
</defs>
</svg>
