<svg width="816" height="494" viewBox="0 0 816 494" fill="none" xmlns="http://www.w3.org/2000/svg">
<g filter="url(#filter0_dd_1307_3997)">
<rect x="40.75" y="20.75" width="734" height="412" rx="40" fill="white"/>
<rect x="40.75" y="20.75" width="734" height="412" rx="40" stroke="#EBEFF6" stroke-width="1.5"/>
<path d="M148.954 107.205V137.75H143.376L130.087 118.525H129.863V137.75H123.405V107.205H129.072L142.257 126.415H142.526V107.205H148.954ZM181.241 117.898H174.708C174.589 117.053 174.345 116.303 173.977 115.646C173.609 114.98 173.137 114.413 172.56 113.946C171.983 113.479 171.317 113.121 170.562 112.872C169.816 112.624 169.006 112.499 168.131 112.499C166.55 112.499 165.172 112.892 163.999 113.678C162.826 114.453 161.916 115.587 161.27 117.078C160.623 118.56 160.3 120.359 160.3 122.477C160.3 124.655 160.623 126.484 161.27 127.966C161.926 129.447 162.841 130.566 164.014 131.322C165.187 132.077 166.545 132.455 168.086 132.455C168.951 132.455 169.751 132.341 170.487 132.112C171.233 131.884 171.894 131.55 172.471 131.113C173.047 130.665 173.525 130.124 173.903 129.487C174.29 128.851 174.559 128.125 174.708 127.31L181.241 127.339C181.072 128.741 180.649 130.094 179.973 131.396C179.307 132.689 178.407 133.847 177.273 134.871C176.15 135.886 174.807 136.691 173.246 137.288C171.695 137.874 169.94 138.168 167.981 138.168C165.257 138.168 162.821 137.551 160.673 136.318C158.535 135.085 156.845 133.3 155.602 130.964C154.369 128.627 153.753 125.798 153.753 122.477C153.753 119.146 154.379 116.312 155.632 113.976C156.885 111.639 158.585 109.859 160.733 108.636C162.881 107.403 165.297 106.787 167.981 106.787C169.751 106.787 171.392 107.036 172.903 107.533C174.425 108.03 175.772 108.756 176.945 109.71C178.118 110.655 179.073 111.813 179.809 113.185C180.555 114.558 181.032 116.129 181.241 117.898ZM185.872 137.75V107.205H197.923C200.23 107.205 202.198 107.617 203.829 108.442C205.47 109.258 206.718 110.416 207.573 111.918C208.438 113.409 208.87 115.164 208.87 117.183C208.87 119.211 208.433 120.956 207.558 122.418C206.683 123.869 205.415 124.983 203.754 125.759C202.104 126.534 200.105 126.922 197.759 126.922H189.69V121.732H196.715C197.948 121.732 198.972 121.562 199.787 121.224C200.602 120.886 201.209 120.379 201.607 119.703C202.014 119.027 202.218 118.187 202.218 117.183C202.218 116.168 202.014 115.313 201.607 114.617C201.209 113.921 200.597 113.394 199.772 113.036C198.957 112.668 197.928 112.484 196.685 112.484H192.33V137.75H185.872ZM202.367 123.849L209.959 137.75H202.83L195.402 123.849H202.367Z" fill="#19213D"/>
<a href="https://www.ncr.com/">
<rect fill="black" fill-opacity="0" y="1.58523" width="90.0293" height="50.8295"/>
</a>
<g filter="url(#filter1_dd_1307_3997)">
<rect x="486.75" y="213.75" width="208" height="134" rx="24" fill="white"/>
<rect x="486.25" y="213.25" width="209" height="135" rx="24.5" stroke="#D6DCE5"/>
<path d="M608.081 283.869C608.081 283.869 607.769 282.727 607.769 281.882V268.654H613.069V294.133L596.107 280.089C595.199 279.315 594.666 278.454 594.666 278.454C594.666 278.454 594.931 279.402 594.931 280.225L594.927 293.557H589.629V268.177L606.433 281.942C607.332 282.707 608.081 283.869 608.081 283.869Z" fill="#54B948"/>
<path d="M656.055 268.656C664.446 268.656 666.597 271.967 666.597 276.726C666.597 280.178 664.058 283.551 658.938 283.953L658.378 283.979C658.378 283.979 658.871 284.069 659.388 284.568L668.685 293.559H661.5L648.524 280.383H654.989C660.775 280.383 660.94 277.334 660.983 276.561C661.092 274.587 660.459 273.002 656.044 273.002H648.656V293.559H643.148V268.656H656.055Z" fill="#54B948"/>
<path d="M615.457 281.464C615.457 271.03 624.191 268.292 631.53 268.292C634.469 268.292 637.073 268.553 639.809 269.133L639.818 274.422C638.242 273.94 635.077 272.879 631.53 272.879C624.573 272.879 621.194 275.581 621.194 281.464C621.194 286.28 624.833 289.351 631.53 289.351C635.077 289.351 638.634 288.508 640.353 287.87L640.344 293.003C637.608 293.583 634.469 293.94 631.53 293.94C623.692 293.94 615.457 290.129 615.457 281.464Z" fill="#54B948"/>
<path d="M555.835 269.296L561.002 274.164C560.864 274.224 560.701 274.302 560.509 274.4C560.212 274.554 559.853 274.764 559.427 275.058C558.576 275.647 557.463 276.579 556.043 278.113L545.948 288.798C544.215 290.627 542.456 292.076 540.819 292.841L535.653 287.976C535.793 287.911 535.958 287.835 536.143 287.735C536.442 287.585 536.801 287.374 537.227 287.077C538.077 286.491 539.192 285.561 540.61 284.027L550.704 273.357C552.437 271.528 554.198 270.063 555.835 269.296Z" fill="#54B948"/>
<path d="M535.834 295.13C538.119 295.13 540.218 294.675 541.642 293.937C542.291 293.598 543.221 293.011 544.022 292.392C544.818 291.77 545.944 290.802 546.9 289.787L557.011 279.134C559.557 276.448 561.091 275.621 562.019 275.295L567.205 280.202C566.122 281.362 553.22 295.103 553.22 295.103C552.337 296.053 551.411 296.967 550.783 297.546C550.178 298.106 549.141 298.935 548.606 299.328C545.571 301.551 541.518 303.355 536.057 303.355C523.69 303.355 513.685 293.286 513.685 281.696C513.685 267.315 524.921 258.972 535.158 258.972C538.293 258.879 540.811 259.405 542.798 260.083C544.639 260.707 546.029 261.463 547.034 261.978C545.846 262.742 544.693 263.779 542.791 265.81L540.719 268.038C540.242 267.855 538.124 267.119 535.403 267.199C528.839 267.393 521.656 272.718 521.915 281.447C522.156 289.611 528.888 295.13 535.834 295.13Z" fill="#54B948"/>
<path d="M554.95 268.278C554.296 268.617 553.366 269.201 552.566 269.823C551.77 270.443 550.644 271.411 549.687 272.425L539.581 283.08C537.03 285.765 535.499 286.592 534.571 286.92L529.384 282.012C530.468 280.853 543.37 267.112 543.37 267.112C544.253 266.165 545.178 265.25 545.807 264.666C546.411 264.109 547.448 263.279 547.986 262.887C551.016 260.664 555.077 258.86 560.535 258.86C572.904 258.86 582.905 268.925 582.905 280.516C582.905 294.9 571.669 303.24 561.432 303.24C558.297 303.334 555.779 302.806 553.79 302.13C551.946 301.504 550.555 300.746 549.547 300.23C550.804 299.383 551.883 298.449 553.799 296.405L555.87 294.177C556.348 294.358 558.466 295.096 561.184 295.018C567.751 294.821 574.933 289.495 574.675 280.766C574.432 272.604 567.698 267.085 560.754 267.085C558.466 267.085 556.374 267.538 554.95 268.278Z" fill="#54B948"/>
</g>
<g filter="url(#filter2_dd_1307_3997)">
<rect x="120.25" y="213.558" width="327" height="131.825" rx="24.5" stroke="#D6DCE5"/>
<path d="M302.702 282.315C302.702 282.315 302.346 281.011 302.346 280.046V264.937H308.4V294.039L289.025 277.998C287.988 277.114 287.38 276.131 287.38 276.131C287.38 276.131 287.683 277.213 287.683 278.153L287.678 293.382H281.626V264.392L300.82 280.114C301.847 280.988 302.702 282.315 302.702 282.315Z" fill="#54B948"/>
<path d="M357.5 264.939C367.084 264.939 369.542 268.721 369.542 274.157C369.542 278.099 366.641 281.953 360.793 282.411L360.154 282.442C360.154 282.442 360.717 282.544 361.307 283.114L371.926 293.384H363.719L348.899 278.334H356.282C362.892 278.334 363.08 274.852 363.129 273.968C363.253 271.714 362.53 269.903 357.487 269.903H349.049V293.384H342.758V264.939H357.5Z" fill="#54B948"/>
<path d="M311.127 279.568C311.127 267.651 321.103 264.523 329.485 264.523C332.842 264.523 335.817 264.821 338.942 265.483L338.953 271.525C337.152 270.975 333.538 269.762 329.485 269.762C321.539 269.762 317.68 272.849 317.68 279.568C317.68 285.07 321.837 288.577 329.485 288.577C333.538 288.577 337.6 287.614 339.564 286.886L339.554 292.749C336.429 293.411 332.842 293.819 329.485 293.819C320.533 293.819 311.127 289.466 311.127 279.568Z" fill="#54B948"/>
<path d="M243.027 265.67L248.928 271.23C248.77 271.299 248.584 271.388 248.365 271.5C248.026 271.676 247.616 271.915 247.13 272.252C246.157 272.924 244.886 273.989 243.264 275.741L231.733 287.946C229.754 290.035 227.745 291.69 225.875 292.564L219.974 287.006C220.134 286.932 220.323 286.846 220.534 286.731C220.876 286.561 221.286 286.319 221.772 285.98C222.742 285.31 224.016 284.248 225.636 282.496L237.166 270.308C239.145 268.22 241.157 266.546 243.027 265.67Z" fill="#54B948"/>
<path d="M220.18 295.178C222.791 295.178 225.188 294.658 226.815 293.816C227.556 293.428 228.618 292.759 229.533 292.051C230.442 291.34 231.728 290.235 232.821 289.076L244.369 276.908C247.278 273.839 249.03 272.894 250.09 272.523L256.014 278.128C254.776 279.452 240.039 295.147 240.039 295.147C239.03 296.232 237.973 297.276 237.255 297.939C236.565 298.578 235.381 299.525 234.769 299.973C231.303 302.513 226.672 304.573 220.435 304.573C206.309 304.573 194.881 293.072 194.881 279.834C194.881 263.408 207.715 253.878 219.408 253.878C222.989 253.771 225.865 254.372 228.134 255.146C230.238 255.86 231.825 256.723 232.974 257.311C231.616 258.185 230.299 259.369 228.127 261.689L225.761 264.233C225.216 264.024 222.796 263.184 219.689 263.275C212.19 263.497 203.986 269.579 204.282 279.549C204.557 288.875 212.246 295.178 220.18 295.178Z" fill="#54B948"/>
<path d="M242.015 264.507C241.269 264.894 240.207 265.562 239.292 266.272C238.383 266.98 237.097 268.085 236.004 269.244L224.461 281.415C221.547 284.481 219.798 285.426 218.738 285.8L212.814 280.195C214.052 278.871 228.789 263.175 228.789 263.175C229.797 262.093 230.854 261.049 231.572 260.382C232.263 259.745 233.447 258.798 234.061 258.349C237.522 255.81 242.16 253.75 248.395 253.75C262.523 253.75 273.947 265.246 273.947 278.486C273.947 294.915 261.112 304.442 249.419 304.442C245.838 304.549 242.963 303.945 240.691 303.174C238.584 302.458 236.995 301.592 235.844 301.004C237.28 300.036 238.513 298.969 240.701 296.634L243.067 294.09C243.612 294.296 246.032 295.139 249.136 295.05C256.637 294.826 264.841 288.742 264.546 278.771C264.268 269.448 256.576 263.145 248.645 263.145C246.032 263.145 243.643 263.662 242.015 264.507Z" fill="#54B948"/>
</g>
</g>
<defs>
<filter id="filter0_dd_1307_3997" x="0" y="0" width="815.5" height="493.5" filterUnits="userSpaceOnUse" color-interpolation-filters="sRGB">
<feFlood flood-opacity="0" result="BackgroundImageFix"/>
<feColorMatrix in="SourceAlpha" type="matrix" values="0 0 0 0 0 0 0 0 0 0 0 0 0 0 0 0 0 0 127 0" result="hardAlpha"/>
<feOffset dy="20"/>
<feGaussianBlur stdDeviation="20"/>
<feColorMatrix type="matrix" values="0 0 0 0 0.717647 0 0 0 0 0.717647 0 0 0 0 0.717647 0 0 0 0.06 0"/>
<feBlend mode="normal" in2="BackgroundImageFix" result="effect1_dropShadow_1307_3997"/>
<feColorMatrix in="SourceAlpha" type="matrix" values="0 0 0 0 0 0 0 0 0 0 0 0 0 0 0 0 0 0 127 0" result="hardAlpha"/>
<feOffset dy="4"/>
<feGaussianBlur stdDeviation="7"/>
<feColorMatrix type="matrix" values="0 0 0 0 0.716667 0 0 0 0 0.716667 0 0 0 0 0.716667 0 0 0 0.02 0"/>
<feBlend mode="normal" in2="effect1_dropShadow_1307_3997" result="effect2_dropShadow_1307_3997"/>
<feBlend mode="normal" in="SourceGraphic" in2="effect2_dropShadow_1307_3997" result="shape"/>
</filter>
<filter id="filter1_dd_1307_3997" x="445.75" y="192.75" width="290" height="216" filterUnits="userSpaceOnUse" color-interpolation-filters="sRGB">
<feFlood flood-opacity="0" result="BackgroundImageFix"/>
<feColorMatrix in="SourceAlpha" type="matrix" values="0 0 0 0 0 0 0 0 0 0 0 0 0 0 0 0 0 0 127 0" result="hardAlpha"/>
<feOffset dy="2"/>
<feGaussianBlur stdDeviation="10"/>
<feColorMatrix type="matrix" values="0 0 0 0 0.717647 0 0 0 0 0.717647 0 0 0 0 0.717647 0 0 0 0.08 0"/>
<feBlend mode="normal" in2="BackgroundImageFix" result="effect1_dropShadow_1307_3997"/>
<feColorMatrix in="SourceAlpha" type="matrix" values="0 0 0 0 0 0 0 0 0 0 0 0 0 0 0 0 0 0 127 0" result="hardAlpha"/>
<feOffset dy="20"/>
<feGaussianBlur stdDeviation="20"/>
<feColorMatrix type="matrix" values="0 0 0 0 0.717647 0 0 0 0 0.717647 0 0 0 0 0.717647 0 0 0 0.08 0"/>
<feBlend mode="normal" in2="effect1_dropShadow_1307_3997" result="effect2_dropShadow_1307_3997"/>
<feBlend mode="normal" in="SourceGraphic" in2="effect2_dropShadow_1307_3997" result="shape"/>
</filter>
<filter id="filter2_dd_1307_3997" x="79.75" y="193.058" width="408" height="212.825" filterUnits="userSpaceOnUse" color-interpolation-filters="sRGB">
<feFlood flood-opacity="0" result="BackgroundImageFix"/>
<feColorMatrix in="SourceAlpha" type="matrix" values="0 0 0 0 0 0 0 0 0 0 0 0 0 0 0 0 0 0 127 0" result="hardAlpha"/>
<feOffset dy="2"/>
<feGaussianBlur stdDeviation="10"/>
<feColorMatrix type="matrix" values="0 0 0 0 0.717647 0 0 0 0 0.717647 0 0 0 0 0.717647 0 0 0 0.08 0"/>
<feBlend mode="normal" in2="BackgroundImageFix" result="effect1_dropShadow_1307_3997"/>
<feColorMatrix in="SourceAlpha" type="matrix" values="0 0 0 0 0 0 0 0 0 0 0 0 0 0 0 0 0 0 127 0" result="hardAlpha"/>
<feOffset dy="20"/>
<feGaussianBlur stdDeviation="20"/>
<feColorMatrix type="matrix" values="0 0 0 0 0.717647 0 0 0 0 0.717647 0 0 0 0 0.717647 0 0 0 0.08 0"/>
<feBlend mode="normal" in2="effect1_dropShadow_1307_3997" result="effect2_dropShadow_1307_3997"/>
<feBlend mode="normal" in="SourceGraphic" in2="effect2_dropShadow_1307_3997" result="shape"/>
</filter>
</defs>
</svg>
