<svg width="816" height="494" viewBox="0 0 816 494" fill="none" xmlns="http://www.w3.org/2000/svg">
<g filter="url(#filter0_dd_1307_3035)">
<rect x="40.75" y="20.75" width="734" height="412" rx="40" fill="white"/>
<rect x="40.75" y="20.75" width="734" height="412" rx="40" stroke="#EBEFF6" stroke-width="1.5"/>
<path d="M129.639 124.506V137.75H123.286V114.841H129.341V118.883H129.609C130.116 117.55 130.967 116.496 132.16 115.721C133.353 114.935 134.8 114.543 136.5 114.543C138.091 114.543 139.478 114.891 140.661 115.587C141.844 116.283 142.764 117.277 143.42 118.57C144.077 119.852 144.405 121.384 144.405 123.163V137.75H138.051V124.297C138.061 122.895 137.703 121.801 136.977 121.016C136.251 120.22 135.252 119.822 133.979 119.822C133.124 119.822 132.369 120.006 131.712 120.374C131.066 120.742 130.559 121.279 130.191 121.985C129.833 122.681 129.649 123.521 129.639 124.506ZM164.104 127.996V114.841H170.457V137.75H164.357V133.589H164.118C163.601 134.931 162.741 136.01 161.538 136.825C160.345 137.641 158.888 138.048 157.168 138.048C155.637 138.048 154.29 137.7 153.126 137.004C151.963 136.308 151.053 135.319 150.397 134.036C149.751 132.754 149.422 131.217 149.412 129.428V114.841H155.766V128.294C155.776 129.646 156.139 130.715 156.855 131.501C157.571 132.286 158.53 132.679 159.733 132.679C160.499 132.679 161.215 132.505 161.881 132.157C162.547 131.799 163.084 131.272 163.492 130.576C163.91 129.88 164.113 129.02 164.104 127.996ZM186.662 122.477C186.662 118.778 187.154 115.373 188.139 112.261C189.133 109.148 190.649 106.265 192.688 103.61H198.758C197.982 104.594 197.262 105.798 196.595 107.219C195.929 108.631 195.347 110.183 194.85 111.873C194.353 113.563 193.965 115.313 193.687 117.123C193.409 118.923 193.269 120.707 193.269 122.477C193.269 124.834 193.508 127.215 193.985 129.621C194.472 132.018 195.129 134.245 195.954 136.303C196.789 138.362 197.724 140.047 198.758 141.359H192.688C190.649 138.705 189.133 135.821 188.139 132.709C187.154 129.597 186.662 126.186 186.662 122.477ZM228.114 107.205V137.75H222.536L209.247 118.525H209.023V137.75H202.565V107.205H208.233L221.417 126.415H221.686V107.205H228.114ZM248.021 127.996V114.841H254.375V137.75H248.275V133.589H248.036C247.519 134.931 246.659 136.01 245.456 136.825C244.263 137.641 242.806 138.048 241.086 138.048C239.555 138.048 238.208 137.7 237.044 137.004C235.881 136.308 234.971 135.319 234.315 134.036C233.669 132.754 233.34 131.217 233.33 129.428V114.841H239.684V128.294C239.694 129.646 240.057 130.715 240.773 131.501C241.489 132.286 242.448 132.679 243.651 132.679C244.417 132.679 245.133 132.505 245.799 132.157C246.465 131.799 247.002 131.272 247.41 130.576C247.828 129.88 248.031 129.02 248.021 127.996ZM259.577 137.75V107.205H265.93V118.689H266.124C266.403 118.072 266.805 117.446 267.332 116.81C267.869 116.163 268.565 115.626 269.42 115.199C270.286 114.761 271.359 114.543 272.642 114.543C274.313 114.543 275.854 114.98 277.266 115.855C278.678 116.72 279.806 118.028 280.651 119.778C281.496 121.518 281.919 123.7 281.919 126.325C281.919 128.881 281.506 131.038 280.681 132.798C279.866 134.548 278.752 135.876 277.34 136.781C275.938 137.675 274.367 138.123 272.627 138.123C271.394 138.123 270.345 137.919 269.48 137.511C268.625 137.104 267.924 136.592 267.377 135.975C266.83 135.349 266.413 134.717 266.124 134.081H265.841V137.75H259.577ZM265.796 126.295C265.796 127.658 265.985 128.846 266.363 129.86C266.741 130.874 267.288 131.665 268.004 132.232C268.719 132.788 269.589 133.067 270.614 133.067C271.648 133.067 272.523 132.783 273.239 132.217C273.955 131.64 274.496 130.844 274.864 129.83C275.242 128.806 275.431 127.628 275.431 126.295C275.431 124.973 275.247 123.81 274.879 122.805C274.511 121.801 273.969 121.016 273.254 120.449C272.538 119.882 271.658 119.599 270.614 119.599C269.58 119.599 268.705 119.872 267.989 120.419C267.283 120.966 266.741 121.741 266.363 122.746C265.985 123.75 265.796 124.933 265.796 126.295ZM292.691 138.183C291.23 138.183 289.927 137.929 288.784 137.422C287.64 136.905 286.735 136.144 286.069 135.14C285.413 134.126 285.085 132.863 285.085 131.352C285.085 130.079 285.318 129.01 285.786 128.145C286.253 127.28 286.889 126.584 287.695 126.057C288.5 125.53 289.415 125.132 290.439 124.864C291.473 124.595 292.557 124.406 293.691 124.297C295.023 124.158 296.097 124.028 296.912 123.909C297.727 123.78 298.319 123.591 298.687 123.342C299.055 123.094 299.239 122.726 299.239 122.239V122.149C299.239 121.205 298.941 120.474 298.344 119.957C297.757 119.44 296.922 119.181 295.838 119.181C294.695 119.181 293.785 119.435 293.109 119.942C292.433 120.439 291.985 121.065 291.767 121.821L285.89 121.344C286.188 119.952 286.775 118.749 287.65 117.734C288.525 116.71 289.654 115.925 291.036 115.378C292.428 114.821 294.039 114.543 295.868 114.543C297.141 114.543 298.359 114.692 299.522 114.99C300.695 115.288 301.735 115.751 302.639 116.377C303.554 117.004 304.275 117.809 304.802 118.793C305.329 119.768 305.593 120.936 305.593 122.298V137.75H299.567V134.573H299.388C299.02 135.289 298.528 135.92 297.911 136.467C297.295 137.004 296.554 137.427 295.689 137.735C294.824 138.033 293.825 138.183 292.691 138.183ZM294.511 133.798C295.445 133.798 296.271 133.614 296.987 133.246C297.703 132.868 298.264 132.361 298.672 131.724C299.08 131.088 299.284 130.367 299.284 129.562V127.131C299.085 127.26 298.811 127.379 298.463 127.489C298.125 127.588 297.742 127.683 297.315 127.772C296.887 127.852 296.46 127.926 296.032 127.996C295.605 128.055 295.217 128.11 294.869 128.16C294.123 128.269 293.472 128.443 292.915 128.682C292.358 128.92 291.926 129.244 291.617 129.651C291.309 130.049 291.155 130.546 291.155 131.143C291.155 132.008 291.468 132.669 292.095 133.126C292.731 133.574 293.536 133.798 294.511 133.798ZM316.876 124.506V137.75H310.522V114.841H316.577V118.883H316.846C317.353 117.55 318.203 116.496 319.396 115.721C320.589 114.935 322.036 114.543 323.736 114.543C325.327 114.543 326.714 114.891 327.898 115.587C329.081 116.283 330.001 117.277 330.657 118.57C331.313 119.852 331.641 121.384 331.641 123.163V137.75H325.287V124.297C325.297 122.895 324.939 121.801 324.214 121.016C323.488 120.22 322.488 119.822 321.216 119.822C320.361 119.822 319.605 120.006 318.949 120.374C318.302 120.742 317.795 121.279 317.427 121.985C317.069 122.681 316.885 123.521 316.876 124.506ZM342.406 131.158L342.421 123.536H343.346L350.684 114.841H357.977L348.118 126.355H346.612L342.406 131.158ZM336.649 137.75V107.205H343.002V137.75H336.649ZM350.967 137.75L344.225 127.772L348.461 123.283L358.409 137.75H350.967ZM371.803 125.505C371.803 129.214 371.306 132.624 370.311 135.737C369.327 138.849 367.816 141.732 365.777 144.387H359.707C360.483 143.403 361.203 142.2 361.87 140.778C362.536 139.356 363.118 137.805 363.615 136.124C364.112 134.434 364.5 132.684 364.778 130.874C365.056 129.065 365.196 127.275 365.196 125.505C365.196 123.148 364.952 120.772 364.465 118.376C363.988 115.969 363.331 113.742 362.496 111.694C361.671 109.636 360.741 107.95 359.707 106.638H365.777C367.816 109.293 369.327 112.176 370.311 115.288C371.306 118.401 371.803 121.806 371.803 125.505Z" fill="#19213D"/>
<a href="https://brand.nu.com.br/es/">
<rect fill="black" fill-opacity="0" y="1.58523" width="254.99" height="50.8295"/>
</a>
<g filter="url(#filter1_dd_1307_3035)">
<rect x="486.75" y="213.75" width="208" height="134" rx="24" fill="white"/>
<rect x="486.25" y="213.25" width="209" height="135" rx="24.5" stroke="#D6DCE5"/>
<path d="M552.531 254.1C556.346 250.091 561.407 247.75 567.353 247.75C578.937 247.75 586.616 256.207 588.086 268.877C588.562 272.991 588.558 278.792 588.553 285.511C588.552 286.2 588.552 286.899 588.552 287.606V312.776H572.623V294.16C572.623 294.16 572.59 278.227 572.493 275.249C572.065 262.28 564.388 254.131 552.529 254.122C548.951 257.902 547.034 262.524 546.751 269.59C546.713 270.576 546.722 274.07 546.735 278.674C546.742 281.06 546.749 283.744 546.751 286.532C546.763 298.666 546.751 312.779 546.751 312.779H530.822V284.128C530.822 283.147 530.804 282.157 530.786 281.163C530.75 279.163 530.714 277.148 530.822 275.153C531.002 271.828 531.577 268.558 533.129 265.521C536.682 258.563 543.96 254.083 551.72 254.083C551.991 254.083 552.262 254.09 552.531 254.1Z" fill="#820AD1"/>
<path d="M651.335 286.917C651.444 284.922 651.407 282.907 651.371 280.907C651.353 279.914 651.335 278.923 651.335 277.942V249.291H635.406C635.406 249.291 635.394 263.404 635.406 275.538C635.408 278.326 635.416 281.01 635.422 283.395C635.435 288 635.445 291.494 635.406 292.479C635.124 299.546 633.206 304.168 629.629 307.948C617.77 307.94 610.093 299.79 609.665 286.821C609.568 283.843 609.526 276.454 609.526 267.896V249.279L593.609 249.294V274.464C593.609 275.171 593.608 275.87 593.608 276.559C593.603 283.278 593.599 289.078 594.075 293.193C595.542 305.863 603.221 314.32 614.805 314.32C620.751 314.32 625.812 311.978 629.628 307.97C629.896 307.98 630.167 307.986 630.438 307.986C638.197 307.986 645.476 303.506 649.028 296.548C650.58 293.511 651.155 290.242 651.335 286.917Z" fill="#820AD1"/>
</g>
<g filter="url(#filter2_dd_1307_3035)">
<rect x="120.25" y="213.25" width="327" height="135" rx="24.5" stroke="#D6DCE5"/>
<path d="M235.07 246.715C239.856 241.687 246.205 238.75 253.663 238.75C268.193 238.75 277.826 249.359 279.669 265.251C280.266 270.412 280.261 277.688 280.255 286.115C280.254 286.98 280.254 287.856 280.254 288.743V320.315H260.273V296.964C260.273 296.964 260.232 276.978 260.11 273.243C259.574 256.976 249.943 246.754 235.068 246.743C230.581 251.484 228.176 257.281 227.821 266.146C227.773 267.382 227.785 271.764 227.801 277.54C227.809 280.532 227.819 283.899 227.821 287.396C227.836 302.616 227.821 320.318 227.821 320.318H207.84V284.381C207.84 283.15 207.818 281.908 207.795 280.661C207.75 278.153 207.705 275.626 207.84 273.123C208.066 268.952 208.788 264.851 210.734 261.041C215.19 252.313 224.32 246.694 234.053 246.694C234.393 246.694 234.734 246.702 235.07 246.715Z" fill="#820AD1"/>
<path d="M359.006 287.879C359.142 285.376 359.096 282.849 359.051 280.341C359.028 279.094 359.006 277.852 359.006 276.621V240.684H339.025C339.025 240.684 339.01 258.386 339.025 273.606C339.027 277.103 339.037 280.469 339.045 283.462C339.061 289.238 339.074 293.62 339.025 294.856C338.67 303.721 336.266 309.518 331.778 314.259C316.903 314.249 307.273 304.026 306.737 287.759C306.614 284.024 306.563 274.755 306.563 264.02V240.669L286.597 240.687V272.258C286.597 273.146 286.596 274.022 286.596 274.886C286.589 283.314 286.584 290.59 287.182 295.751C289.021 311.643 298.654 322.252 313.184 322.252C320.642 322.252 326.991 319.314 331.776 314.286C332.113 314.299 332.453 314.307 332.793 314.307C342.526 314.307 351.656 308.688 356.112 299.96C358.059 296.15 358.78 292.05 359.006 287.879Z" fill="#820AD1"/>
</g>
</g>
<defs>
<filter id="filter0_dd_1307_3035" x="0" y="0" width="815.5" height="493.5" filterUnits="userSpaceOnUse" color-interpolation-filters="sRGB">
<feFlood flood-opacity="0" result="BackgroundImageFix"/>
<feColorMatrix in="SourceAlpha" type="matrix" values="0 0 0 0 0 0 0 0 0 0 0 0 0 0 0 0 0 0 127 0" result="hardAlpha"/>
<feOffset dy="20"/>
<feGaussianBlur stdDeviation="20"/>
<feColorMatrix type="matrix" values="0 0 0 0 0.717647 0 0 0 0 0.717647 0 0 0 0 0.717647 0 0 0 0.06 0"/>
<feBlend mode="normal" in2="BackgroundImageFix" result="effect1_dropShadow_1307_3035"/>
<feColorMatrix in="SourceAlpha" type="matrix" values="0 0 0 0 0 0 0 0 0 0 0 0 0 0 0 0 0 0 127 0" result="hardAlpha"/>
<feOffset dy="4"/>
<feGaussianBlur stdDeviation="7"/>
<feColorMatrix type="matrix" values="0 0 0 0 0.716667 0 0 0 0 0.716667 0 0 0 0 0.716667 0 0 0 0.02 0"/>
<feBlend mode="normal" in2="effect1_dropShadow_1307_3035" result="effect2_dropShadow_1307_3035"/>
<feBlend mode="normal" in="SourceGraphic" in2="effect2_dropShadow_1307_3035" result="shape"/>
</filter>
<filter id="filter1_dd_1307_3035" x="445.75" y="192.75" width="290" height="216" filterUnits="userSpaceOnUse" color-interpolation-filters="sRGB">
<feFlood flood-opacity="0" result="BackgroundImageFix"/>
<feColorMatrix in="SourceAlpha" type="matrix" values="0 0 0 0 0 0 0 0 0 0 0 0 0 0 0 0 0 0 127 0" result="hardAlpha"/>
<feOffset dy="2"/>
<feGaussianBlur stdDeviation="10"/>
<feColorMatrix type="matrix" values="0 0 0 0 0.717647 0 0 0 0 0.717647 0 0 0 0 0.717647 0 0 0 0.08 0"/>
<feBlend mode="normal" in2="BackgroundImageFix" result="effect1_dropShadow_1307_3035"/>
<feColorMatrix in="SourceAlpha" type="matrix" values="0 0 0 0 0 0 0 0 0 0 0 0 0 0 0 0 0 0 127 0" result="hardAlpha"/>
<feOffset dy="20"/>
<feGaussianBlur stdDeviation="20"/>
<feColorMatrix type="matrix" values="0 0 0 0 0.717647 0 0 0 0 0.717647 0 0 0 0 0.717647 0 0 0 0.08 0"/>
<feBlend mode="normal" in2="effect1_dropShadow_1307_3035" result="effect2_dropShadow_1307_3035"/>
<feBlend mode="normal" in="SourceGraphic" in2="effect2_dropShadow_1307_3035" result="shape"/>
</filter>
<filter id="filter2_dd_1307_3035" x="79.75" y="192.75" width="408" height="216" filterUnits="userSpaceOnUse" color-interpolation-filters="sRGB">
<feFlood flood-opacity="0" result="BackgroundImageFix"/>
<feColorMatrix in="SourceAlpha" type="matrix" values="0 0 0 0 0 0 0 0 0 0 0 0 0 0 0 0 0 0 127 0" result="hardAlpha"/>
<feOffset dy="2"/>
<feGaussianBlur stdDeviation="10"/>
<feColorMatrix type="matrix" values="0 0 0 0 0.717647 0 0 0 0 0.717647 0 0 0 0 0.717647 0 0 0 0.08 0"/>
<feBlend mode="normal" in2="BackgroundImageFix" result="effect1_dropShadow_1307_3035"/>
<feColorMatrix in="SourceAlpha" type="matrix" values="0 0 0 0 0 0 0 0 0 0 0 0 0 0 0 0 0 0 127 0" result="hardAlpha"/>
<feOffset dy="20"/>
<feGaussianBlur stdDeviation="20"/>
<feColorMatrix type="matrix" values="0 0 0 0 0.717647 0 0 0 0 0.717647 0 0 0 0 0.717647 0 0 0 0.08 0"/>
<feBlend mode="normal" in2="effect1_dropShadow_1307_3035" result="effect2_dropShadow_1307_3035"/>
<feBlend mode="normal" in="SourceGraphic" in2="effect2_dropShadow_1307_3035" result="shape"/>
</filter>
</defs>
</svg>
