<svg width="3238" height="76" viewBox="0 0 3238 76" fill="none" xmlns="http://www.w3.org/2000/svg">
<path d="M3.91903 61V15.9091H21.7088C25.1288 15.9091 28.0424 16.5623 30.4496 17.8686C32.8568 19.1603 34.6915 20.9583 35.9538 23.2628C37.2308 25.5526 37.8693 28.1946 37.8693 31.1889C37.8693 34.1832 37.2235 36.8253 35.9318 39.1151C34.6402 41.4048 32.7687 43.1882 30.3175 44.4652C27.8809 45.7422 24.9306 46.3807 21.4666 46.3807H10.1278V38.7408H19.9254C21.7602 38.7408 23.272 38.4252 24.4609 37.794C25.6645 37.1482 26.5599 36.2602 27.147 35.13C27.7488 33.9851 28.0497 32.6714 28.0497 31.1889C28.0497 29.6918 27.7488 28.3854 27.147 27.2699C26.5599 26.1397 25.6645 25.2663 24.4609 24.6499C23.2573 24.0187 21.7308 23.7031 19.8814 23.7031H13.4524V61H3.91903ZM52.6207 61.6385C50.4631 61.6385 48.5402 61.2642 46.8523 60.5156C45.1643 59.7524 43.8286 58.6295 42.8452 57.147C41.8764 55.6499 41.392 53.7857 41.392 51.5547C41.392 49.6759 41.737 48.098 42.4268 46.821C43.1167 45.544 44.0561 44.5166 45.245 43.7386C46.4339 42.9607 47.7843 42.3736 49.2962 41.9773C50.8227 41.581 52.4226 41.3021 54.0959 41.1406C56.0627 40.9351 57.648 40.7443 58.8516 40.5682C60.0552 40.3774 60.9285 40.0985 61.4716 39.7315C62.0147 39.3646 62.2862 38.8215 62.2862 38.1023V37.9702C62.2862 36.5758 61.8459 35.4969 60.9652 34.7337C60.0992 33.9704 58.8662 33.5888 57.2663 33.5888C55.5784 33.5888 54.2353 33.9631 53.2372 34.7116C52.2391 35.4455 51.5786 36.3703 51.2557 37.4858L42.581 36.7812C43.0213 34.7263 43.8873 32.9503 45.179 31.4531C46.4706 29.9413 48.1366 28.7817 50.1768 27.9744C52.2318 27.1525 54.6096 26.7415 57.3104 26.7415C59.1892 26.7415 60.9872 26.9616 62.7045 27.402C64.4366 27.8423 65.9704 28.5249 67.3061 29.4496C68.6565 30.3743 69.7206 31.5632 70.4986 33.0163C71.2765 34.4548 71.6655 36.1794 71.6655 38.1903V61H62.7706V56.3104H62.5064C61.9633 57.3672 61.2367 58.2992 60.3267 59.1065C59.4167 59.8991 58.3232 60.523 57.0462 60.978C55.7692 61.4183 54.294 61.6385 52.6207 61.6385ZM55.3068 55.1655C56.6866 55.1655 57.9048 54.8939 58.9616 54.3509C60.0185 53.7931 60.8478 53.0445 61.4496 52.1051C62.0514 51.1657 62.3523 50.1016 62.3523 48.9126V45.3239C62.0587 45.5147 61.6551 45.6908 61.1413 45.8523C60.6423 45.9991 60.0772 46.1385 59.446 46.2706C58.8149 46.388 58.1837 46.4981 57.5526 46.6009C56.9214 46.6889 56.349 46.7696 55.8352 46.843C54.7344 47.0045 53.773 47.2614 52.951 47.6136C52.129 47.9659 51.4905 48.4429 51.0355 49.0447C50.5805 49.6319 50.353 50.3658 50.353 51.2464C50.353 52.5234 50.8153 53.4995 51.7401 54.1747C52.6795 54.8352 53.8684 55.1655 55.3068 55.1655ZM83.5217 73.6818C82.3327 73.6818 81.2172 73.5864 80.1751 73.3956C79.1476 73.2195 78.2963 72.992 77.6211 72.7131L79.7347 65.7116C80.8356 66.0492 81.8263 66.2327 82.707 66.2621C83.6024 66.2914 84.373 66.0859 85.0188 65.6456C85.6793 65.2053 86.2151 64.4567 86.6261 63.3999L87.1765 61.9688L75.0451 27.1818H84.9087L91.9102 52.017H92.2624L99.3299 27.1818H109.26L96.1154 64.6548C95.4843 66.4749 94.6256 68.0601 93.5394 69.4105C92.4679 70.7756 91.1102 71.825 89.4663 72.5589C87.8223 73.3075 85.8408 73.6818 83.5217 73.6818ZM114.059 61V27.1818H122.998V33.1484H123.395C124.099 31.1669 125.273 29.6037 126.917 28.4588C128.561 27.3139 130.528 26.7415 132.818 26.7415C135.137 26.7415 137.111 27.3213 138.74 28.4808C140.37 29.6257 141.456 31.1816 141.999 33.1484H142.351C143.041 31.2109 144.289 29.6624 146.094 28.5028C147.914 27.3286 150.065 26.7415 152.545 26.7415C155.701 26.7415 158.262 27.7469 160.229 29.7578C162.211 31.754 163.201 34.5869 163.201 38.2564V61H153.844V40.1058C153.844 38.227 153.345 36.8179 152.347 35.8786C151.349 34.9392 150.101 34.4695 148.604 34.4695C146.901 34.4695 145.573 35.0125 144.619 36.0987C143.665 37.1702 143.188 38.5866 143.188 40.348V61H134.095V39.9077C134.095 38.2491 133.618 36.928 132.664 35.9446C131.724 34.9612 130.484 34.4695 128.943 34.4695C127.901 34.4695 126.961 34.7337 126.125 35.2621C125.303 35.7758 124.65 36.5024 124.165 37.4418C123.681 38.3665 123.439 39.4527 123.439 40.7003V61H114.059ZM186.022 61.6605C182.543 61.6605 179.549 60.956 177.039 59.5469C174.544 58.1231 172.621 56.1122 171.271 53.5142C169.92 50.9015 169.245 47.8118 169.245 44.245C169.245 40.7663 169.92 37.7133 171.271 35.0859C172.621 32.4586 174.522 30.411 176.973 28.9432C179.439 27.4754 182.33 26.7415 185.648 26.7415C187.879 26.7415 189.956 27.1011 191.879 27.8203C193.816 28.5249 195.504 29.589 196.942 31.0128C198.396 32.4366 199.526 34.2273 200.333 36.3849C201.14 38.5279 201.544 41.0379 201.544 43.9148V46.4908H172.988V40.6783H192.715C192.715 39.3279 192.422 38.1316 191.835 37.0895C191.247 36.0473 190.433 35.2327 189.391 34.6456C188.363 34.0438 187.167 33.7429 185.802 33.7429C184.378 33.7429 183.116 34.0732 182.015 34.7337C180.929 35.3795 180.077 36.2528 179.461 37.3537C178.844 38.4399 178.529 39.6508 178.514 40.9865V46.5128C178.514 48.1861 178.822 49.6319 179.439 50.8501C180.07 52.0684 180.958 53.0078 182.103 53.6683C183.248 54.3288 184.606 54.6591 186.176 54.6591C187.218 54.6591 188.172 54.5123 189.038 54.2188C189.904 53.9252 190.646 53.4848 191.262 52.8977C191.879 52.3106 192.348 51.5914 192.671 50.7401L201.346 51.3125C200.906 53.3968 200.003 55.2169 198.638 56.7727C197.287 58.3139 195.541 59.5175 193.398 60.3835C191.269 61.2348 188.811 61.6605 186.022 61.6605ZM217.044 41.4489V61H207.665V27.1818H216.604V33.1484H217C217.749 31.1816 219.004 29.6257 220.765 28.4808C222.526 27.3213 224.662 26.7415 227.172 26.7415C229.52 26.7415 231.568 27.2552 233.315 28.2827C235.061 29.3101 236.419 30.7779 237.388 32.6861C238.357 34.5795 238.841 36.84 238.841 39.4673V61H229.462V41.1406C229.476 39.071 228.948 37.4564 227.876 36.2969C226.805 35.1226 225.33 34.5355 223.451 34.5355C222.189 34.5355 221.073 34.8071 220.104 35.3501C219.15 35.8932 218.402 36.6858 217.859 37.728C217.33 38.7554 217.059 39.9957 217.044 41.4489ZM264.221 27.1818V34.2273H243.855V27.1818H264.221ZM248.479 19.0795H257.858V50.608C257.858 51.474 257.99 52.1491 258.254 52.6335C258.519 53.1032 258.886 53.4335 259.355 53.6243C259.84 53.8151 260.397 53.9105 261.029 53.9105C261.469 53.9105 261.909 53.8738 262.35 53.8004C262.79 53.7124 263.128 53.6463 263.362 53.6023L264.838 60.5817C264.368 60.7285 263.707 60.8973 262.856 61.0881C262.005 61.2936 260.97 61.4183 259.752 61.4624C257.491 61.5504 255.51 61.2495 253.807 60.5597C252.119 59.8698 250.805 58.7983 249.866 57.3452C248.927 55.892 248.464 54.0573 248.479 51.8409V19.0795ZM284.857 15.9091H296.614L309.031 46.2045H309.56L321.977 15.9091H333.734V61H324.487V31.6513H324.113L312.444 60.7798H306.147L294.478 31.5412H294.104V61H284.857V15.9091ZM356.825 61.6605C353.346 61.6605 350.352 60.956 347.842 59.5469C345.347 58.1231 343.424 56.1122 342.073 53.5142C340.723 50.9015 340.048 47.8118 340.048 44.245C340.048 40.7663 340.723 37.7133 342.073 35.0859C343.424 32.4586 345.325 30.411 347.776 28.9432C350.242 27.4754 353.133 26.7415 356.45 26.7415C358.682 26.7415 360.758 27.1011 362.681 27.8203C364.619 28.5249 366.307 29.589 367.745 31.0128C369.198 32.4366 370.329 34.2273 371.136 36.3849C371.943 38.5279 372.347 41.0379 372.347 43.9148V46.4908H343.791V40.6783H363.518C363.518 39.3279 363.224 38.1316 362.637 37.0895C362.05 36.0473 361.236 35.2327 360.193 34.6456C359.166 34.0438 357.97 33.7429 356.605 33.7429C355.181 33.7429 353.919 34.0732 352.818 34.7337C351.731 35.3795 350.88 36.2528 350.264 37.3537C349.647 38.4399 349.332 39.6508 349.317 40.9865V46.5128C349.317 48.1861 349.625 49.6319 350.242 50.8501C350.873 52.0684 351.761 53.0078 352.906 53.6683C354.051 54.3288 355.408 54.6591 356.979 54.6591C358.021 54.6591 358.975 54.5123 359.841 54.2188C360.707 53.9252 361.448 53.4848 362.065 52.8977C362.681 52.3106 363.151 51.5914 363.474 50.7401L372.149 51.3125C371.708 53.3968 370.806 55.2169 369.441 56.7727C368.09 58.3139 366.343 59.5175 364.2 60.3835C362.072 61.2348 359.614 61.6605 356.825 61.6605ZM396.455 27.1818V34.2273H376.09V27.1818H396.455ZM380.713 19.0795H390.093V50.608C390.093 51.474 390.225 52.1491 390.489 52.6335C390.753 53.1032 391.12 53.4335 391.59 53.6243C392.074 53.8151 392.632 53.9105 393.263 53.9105C393.703 53.9105 394.144 53.8738 394.584 53.8004C395.024 53.7124 395.362 53.6463 395.597 53.6023L397.072 60.5817C396.602 60.7285 395.942 60.8973 395.09 61.0881C394.239 61.2936 393.204 61.4183 391.986 61.4624C389.726 61.5504 387.744 61.2495 386.041 60.5597C384.353 59.8698 383.04 58.7983 382.1 57.3452C381.161 55.892 380.699 54.0573 380.713 51.8409V19.0795ZM412.671 41.4489V61H403.292V15.9091H412.407V33.1484H412.803C413.566 31.1522 414.799 29.589 416.502 28.4588C418.205 27.3139 420.34 26.7415 422.909 26.7415C425.257 26.7415 427.305 27.2552 429.052 28.2827C430.813 29.2955 432.178 30.7559 433.147 32.6641C434.13 34.5575 434.615 36.8253 434.6 39.4673V61H425.221V41.1406C425.235 39.0563 424.707 37.4344 423.635 36.2749C422.579 35.1153 421.096 34.5355 419.188 34.5355C417.911 34.5355 416.781 34.8071 415.797 35.3501C414.829 35.8932 414.065 36.6858 413.508 37.728C412.965 38.7554 412.686 39.9957 412.671 41.4489ZM457.261 61.6605C453.841 61.6605 450.883 60.9339 448.388 59.4808C445.908 58.013 443.992 55.9728 442.642 53.3601C441.291 50.7327 440.616 47.687 440.616 44.223C440.616 40.7296 441.291 37.6766 442.642 35.0639C443.992 32.4366 445.908 30.3963 448.388 28.9432C450.883 27.4754 453.841 26.7415 457.261 26.7415C460.681 26.7415 463.631 27.4754 466.112 28.9432C468.607 30.3963 470.53 32.4366 471.88 35.0639C473.231 37.6766 473.906 40.7296 473.906 44.223C473.906 47.687 473.231 50.7327 471.88 53.3601C470.53 55.9728 468.607 58.013 466.112 59.4808C463.631 60.9339 460.681 61.6605 457.261 61.6605ZM457.305 54.3949C458.861 54.3949 460.16 53.9545 461.202 53.0739C462.244 52.1785 463.029 50.9602 463.558 49.419C464.101 47.8778 464.373 46.1238 464.373 44.157C464.373 42.1901 464.101 40.4361 463.558 38.8949C463.029 37.3537 462.244 36.1354 461.202 35.2401C460.16 34.3447 458.861 33.897 457.305 33.897C455.734 33.897 454.413 34.3447 453.342 35.2401C452.285 36.1354 451.485 37.3537 450.942 38.8949C450.414 40.4361 450.15 42.1901 450.15 44.157C450.15 46.1238 450.414 47.8778 450.942 49.419C451.485 50.9602 452.285 52.1785 453.342 53.0739C454.413 53.9545 455.734 54.3949 457.305 54.3949ZM492.466 61.5504C489.898 61.5504 487.571 60.8899 485.487 59.5689C483.417 58.2332 481.773 56.2737 480.555 53.6903C479.351 51.0923 478.75 47.9072 478.75 44.1349C478.75 40.2599 479.373 37.0381 480.621 34.4695C481.869 31.8861 483.527 29.956 485.597 28.679C487.681 27.3873 489.964 26.7415 492.444 26.7415C494.338 26.7415 495.916 27.0644 497.178 27.7102C498.455 28.3414 499.482 29.134 500.26 30.0881C501.053 31.0275 501.655 31.9522 502.066 32.8622H502.352V15.9091H511.709V61H502.462V55.5838H502.066C501.625 56.5232 501.002 57.4553 500.194 58.38C499.402 59.29 498.367 60.0459 497.09 60.6477C495.828 61.2495 494.286 61.5504 492.466 61.5504ZM495.439 54.0866C496.95 54.0866 498.227 53.6757 499.27 52.8537C500.326 52.017 501.134 50.8501 501.691 49.353C502.264 47.8558 502.55 46.1018 502.55 44.0909C502.55 42.08 502.271 40.3333 501.713 38.8509C501.156 37.3684 500.348 36.2235 499.292 35.4162C498.235 34.6089 496.95 34.2053 495.439 34.2053C493.897 34.2053 492.598 34.6236 491.542 35.4602C490.485 36.2969 489.685 37.4564 489.142 38.9389C488.599 40.4214 488.327 42.1387 488.327 44.0909C488.327 46.0578 488.599 47.7971 489.142 49.3089C489.699 50.8061 490.499 51.9804 491.542 52.8317C492.598 53.6683 493.897 54.0866 495.439 54.0866ZM547.558 36.8253L538.972 37.3537C538.825 36.6198 538.509 35.9593 538.025 35.3722C537.541 34.7704 536.902 34.2933 536.11 33.941C535.332 33.5741 534.4 33.3906 533.313 33.3906C531.86 33.3906 530.635 33.6989 529.637 34.3153C528.638 34.9171 528.139 35.7244 528.139 36.7372C528.139 37.5445 528.462 38.227 529.108 38.7848C529.754 39.3426 530.862 39.7902 532.433 40.1278L538.553 41.3608C541.841 42.036 544.293 43.1222 545.907 44.6193C547.522 46.1165 548.329 48.0833 548.329 50.5199C548.329 52.7363 547.676 54.6811 546.369 56.3544C545.078 58.0277 543.302 59.334 541.041 60.2734C538.796 61.1982 536.205 61.6605 533.269 61.6605C528.793 61.6605 525.226 60.7285 522.569 58.8643C519.927 56.9856 518.378 54.4316 517.923 51.2024L527.149 50.718C527.427 52.0831 528.103 53.1252 529.174 53.8445C530.246 54.549 531.618 54.9013 533.291 54.9013C534.935 54.9013 536.256 54.5857 537.254 53.9545C538.267 53.3087 538.781 52.4794 538.796 51.4666C538.781 50.6153 538.421 49.9181 537.717 49.375C537.012 48.8172 535.926 48.3916 534.458 48.098L528.602 46.9311C525.299 46.2706 522.841 45.1257 521.226 43.4964C519.626 41.8672 518.826 39.7902 518.826 37.2656C518.826 35.0933 519.413 33.2218 520.588 31.6513C521.776 30.0807 523.442 28.8698 525.585 28.0185C527.743 27.1671 530.268 26.7415 533.159 26.7415C537.431 26.7415 540.792 27.6442 543.243 29.4496C545.709 31.255 547.147 33.7135 547.558 36.8253Z" fill="#19213D"/>
<path d="M591 38L3236 38.0002" stroke="#F6F8FC" stroke-width="4" stroke-linecap="round"/>
</svg>
