<svg width="1560" height="494" viewBox="0 0 1560 494" fill="none" xmlns="http://www.w3.org/2000/svg">
<g filter="url(#filter0_dd_1220_3480)">
<rect x="40.75" y="20.75" width="1478" height="412" rx="40" fill="white"/>
<rect x="40.75" y="20.75" width="1478" height="412" rx="40" stroke="#EBEFF6" stroke-width="1.5"/>
<path d="M139.975 115.989C139.856 114.786 139.344 113.852 138.439 113.185C137.534 112.519 136.306 112.186 134.755 112.186C133.701 112.186 132.811 112.335 132.085 112.634C131.359 112.922 130.803 113.325 130.415 113.842C130.037 114.359 129.848 114.945 129.848 115.602C129.828 116.148 129.942 116.626 130.191 117.033C130.45 117.441 130.803 117.794 131.25 118.092C131.697 118.381 132.214 118.634 132.801 118.853C133.388 119.062 134.014 119.241 134.68 119.39L137.425 120.046C138.757 120.344 139.98 120.742 141.094 121.239C142.207 121.737 143.172 122.348 143.987 123.074C144.803 123.8 145.434 124.655 145.881 125.639C146.339 126.624 146.572 127.752 146.582 129.025C146.572 130.894 146.095 132.515 145.151 133.887C144.216 135.249 142.864 136.308 141.094 137.064C139.334 137.81 137.211 138.183 134.725 138.183C132.259 138.183 130.112 137.805 128.282 137.049C126.462 136.293 125.04 135.175 124.016 133.693C123.002 132.202 122.47 130.357 122.42 128.16H128.67C128.739 129.184 129.033 130.039 129.55 130.725C130.077 131.401 130.778 131.913 131.653 132.261C132.538 132.599 133.537 132.768 134.651 132.768C135.744 132.768 136.694 132.609 137.499 132.291C138.315 131.973 138.946 131.531 139.393 130.964C139.841 130.397 140.065 129.746 140.065 129.01C140.065 128.324 139.861 127.747 139.453 127.28C139.055 126.812 138.469 126.415 137.693 126.087C136.928 125.759 135.988 125.46 134.874 125.192L131.548 124.357C128.973 123.73 126.94 122.751 125.448 121.418C123.957 120.086 123.216 118.291 123.226 116.034C123.216 114.185 123.708 112.569 124.702 111.187C125.707 109.805 127.084 108.726 128.834 107.95C130.584 107.175 132.572 106.787 134.8 106.787C137.067 106.787 139.045 107.175 140.736 107.95C142.436 108.726 143.759 109.805 144.703 111.187C145.648 112.569 146.135 114.17 146.165 115.989H139.975ZM162.992 114.841V119.614H149.196V114.841H162.992ZM152.328 109.352H158.682V130.71C158.682 131.297 158.771 131.754 158.95 132.082C159.129 132.401 159.378 132.624 159.696 132.754C160.024 132.883 160.402 132.947 160.83 132.947C161.128 132.947 161.426 132.923 161.725 132.873C162.023 132.813 162.252 132.768 162.411 132.739L163.41 137.467C163.092 137.566 162.644 137.68 162.068 137.81C161.491 137.949 160.79 138.033 159.965 138.063C158.433 138.123 157.091 137.919 155.938 137.452C154.794 136.984 153.904 136.259 153.268 135.274C152.632 134.29 152.318 133.047 152.328 131.545V109.352ZM167.131 137.75V114.841H173.291V118.838H173.53C173.947 117.416 174.648 116.342 175.633 115.616C176.617 114.881 177.751 114.513 179.033 114.513C179.351 114.513 179.694 114.533 180.062 114.572C180.43 114.612 180.753 114.667 181.032 114.737V120.374C180.733 120.285 180.321 120.205 179.794 120.136C179.267 120.066 178.785 120.031 178.347 120.031C177.412 120.031 176.577 120.235 175.841 120.643C175.116 121.04 174.539 121.597 174.111 122.313C173.694 123.029 173.485 123.854 173.485 124.789V137.75H167.131ZM184.317 137.75V114.841H190.67V137.75H184.317ZM187.509 111.888C186.564 111.888 185.754 111.575 185.077 110.948C184.411 110.312 184.078 109.551 184.078 108.666C184.078 107.791 184.411 107.04 185.077 106.414C185.754 105.778 186.564 105.46 187.509 105.46C188.453 105.46 189.259 105.778 189.925 106.414C190.601 107.04 190.939 107.791 190.939 108.666C190.939 109.551 190.601 110.312 189.925 110.948C189.259 111.575 188.453 111.888 187.509 111.888ZM195.76 146.341V114.841H202.024V118.689H202.308C202.586 118.072 202.989 117.446 203.516 116.81C204.053 116.163 204.749 115.626 205.604 115.199C206.469 114.761 207.543 114.543 208.825 114.543C210.496 114.543 212.037 114.98 213.449 115.855C214.861 116.72 215.99 118.028 216.835 119.778C217.68 121.518 218.102 123.7 218.102 126.325C218.102 128.881 217.69 131.038 216.865 132.798C216.049 134.548 214.936 135.876 213.524 136.781C212.122 137.675 210.551 138.123 208.811 138.123C207.578 138.123 206.529 137.919 205.664 137.511C204.808 137.104 204.107 136.592 203.561 135.975C203.014 135.349 202.596 134.717 202.308 134.081H202.114V146.341H195.76ZM201.98 126.295C201.98 127.658 202.169 128.846 202.546 129.86C202.924 130.874 203.471 131.665 204.187 132.232C204.903 132.788 205.773 133.067 206.797 133.067C207.831 133.067 208.706 132.783 209.422 132.217C210.138 131.64 210.68 130.844 211.048 129.83C211.426 128.806 211.615 127.628 211.615 126.295C211.615 124.973 211.431 123.81 211.063 122.805C210.695 121.801 210.153 121.016 209.437 120.449C208.721 119.882 207.841 119.599 206.797 119.599C205.763 119.599 204.888 119.872 204.172 120.419C203.466 120.966 202.924 121.741 202.546 122.746C202.169 123.75 201.98 124.933 201.98 126.295ZM232.779 138.197C230.422 138.197 228.394 137.72 226.693 136.766C225.003 135.801 223.7 134.439 222.786 132.679C221.871 130.909 221.414 128.816 221.414 126.4C221.414 124.043 221.871 121.975 222.786 120.195C223.7 118.415 224.988 117.028 226.649 116.034C228.319 115.04 230.278 114.543 232.525 114.543C234.036 114.543 235.443 114.786 236.746 115.273C238.058 115.751 239.202 116.472 240.176 117.436C241.161 118.401 241.926 119.614 242.473 121.075C243.02 122.527 243.294 124.227 243.294 126.176V127.921H223.949V123.984H237.313C237.313 123.069 237.114 122.259 236.716 121.553C236.318 120.847 235.767 120.295 235.061 119.897C234.365 119.489 233.554 119.286 232.629 119.286C231.665 119.286 230.81 119.509 230.064 119.957C229.328 120.394 228.752 120.986 228.334 121.732C227.916 122.467 227.703 123.288 227.693 124.192V127.936C227.693 129.07 227.901 130.049 228.319 130.874C228.747 131.7 229.348 132.336 230.124 132.783C230.899 133.231 231.819 133.455 232.883 133.455C233.589 133.455 234.235 133.355 234.822 133.156C235.409 132.957 235.911 132.659 236.328 132.261C236.746 131.864 237.064 131.376 237.283 130.8L243.159 131.188C242.861 132.599 242.249 133.832 241.325 134.886C240.41 135.93 239.227 136.746 237.775 137.332C236.333 137.909 234.668 138.197 232.779 138.197Z" fill="#19213D"/>
<a href="https://stripe.com/newsroom/information">
<rect fill="black" fill-opacity="0" y="1.58523" width="124.154" height="50.8295"/>
</a>
<g filter="url(#filter1_dd_1220_3480)">
<rect x="120.25" y="213.25" width="327" height="135" rx="24.5" stroke="#D6DCE5"/>
<path d="M291.059 255.237L279.299 257.761V248.227L291.059 245.75V255.237Z" fill="#635BFF"/>
<path d="M243.272 251.171L231.841 253.601L231.794 291.031C231.794 297.947 236.994 303.04 243.928 303.04C247.769 303.04 250.58 302.339 252.126 301.498V292.012C250.627 292.619 243.225 294.769 243.225 287.853V271.264H252.126V261.311H243.225L243.272 251.171Z" fill="#635BFF"/>
<path fill-rule="evenodd" clip-rule="evenodd" d="M368.406 281.918C368.406 269.955 362.597 260.516 351.494 260.516C340.344 260.516 333.597 269.955 333.597 281.825C333.597 295.89 341.562 302.993 352.993 302.993C358.568 302.993 362.784 301.731 365.97 299.955V290.61C362.784 292.198 359.13 293.18 354.492 293.18C349.948 293.18 345.919 291.591 345.403 286.077H368.313C368.313 285.819 368.329 285.234 368.349 284.56L368.349 284.559L368.349 284.557L368.349 284.556C368.375 283.641 368.406 282.563 368.406 281.918ZM345.262 277.479C345.262 272.198 348.495 270.002 351.446 270.002C354.304 270.002 357.349 272.198 357.349 277.479H345.262Z" fill="#635BFF"/>
<path d="M215.585 270.657C213.102 270.657 211.603 271.358 211.603 273.18C211.603 275.17 214.183 276.046 217.384 277.131C222.602 278.902 229.47 281.232 229.499 289.863C229.499 298.227 222.8 303.04 213.055 303.04C209.026 303.04 204.622 302.246 200.265 300.377V289.255C204.201 291.405 209.167 292.994 213.055 292.994C215.679 292.994 217.553 292.293 217.553 290.143C217.553 287.939 214.756 286.932 211.379 285.715C206.237 283.863 199.75 281.526 199.75 273.741C199.75 265.47 206.075 260.517 215.585 260.517C219.474 260.517 223.315 261.124 227.204 262.666V273.648C223.643 271.732 219.146 270.657 215.585 270.657Z" fill="#635BFF"/>
<path d="M266.697 264.769L265.948 261.311H255.828V302.199H267.541V274.488C270.305 270.89 274.99 271.544 276.442 272.058V261.311C274.943 260.75 269.461 259.722 266.697 264.769Z" fill="#635BFF"/>
<path d="M279.299 261.311H291.058V302.199H279.299V261.311Z" fill="#635BFF"/>
<path fill-rule="evenodd" clip-rule="evenodd" d="M306.33 264.161C307.97 262.666 310.922 260.516 315.513 260.516C323.711 260.516 331.441 267.899 331.488 281.451C331.488 296.264 323.852 302.993 315.466 302.993C311.343 302.993 308.86 301.264 307.174 300.049L307.127 313.273L295.414 315.75V261.264H305.721L306.33 264.161ZM307.174 290.518C308.298 291.733 309.938 292.715 312.702 292.715C317.012 292.715 319.917 288.041 319.917 281.779C319.917 275.657 316.965 270.89 312.702 270.89C310.032 270.89 308.345 271.825 307.127 273.18L307.174 290.518Z" fill="#635BFF"/>
</g>
<g filter="url(#filter2_dd_1220_3480)">
<rect x="486.75" y="213.75" width="208" height="134" rx="24" fill="white"/>
<rect x="486.25" y="213.25" width="209" height="135" rx="24.5" stroke="#D6DCE5"/>
<path d="M596.794 258.274L586.228 260.542V251.976L596.794 249.75V258.274Z" fill="#635BFF"/>
<path d="M553.856 254.621L543.584 256.804L543.542 290.436C543.542 296.65 548.215 301.227 554.445 301.227C557.897 301.227 560.423 300.597 561.812 299.841V291.318C560.465 291.864 553.814 293.795 553.814 287.581V272.675H561.812V263.732H553.814L553.856 254.621Z" fill="#635BFF"/>
<path fill-rule="evenodd" clip-rule="evenodd" d="M666.293 282.248C666.293 271.499 661.073 263.018 651.096 263.018C641.078 263.018 635.016 271.499 635.016 282.164C635.016 294.802 642.172 301.184 652.443 301.184C657.453 301.184 661.241 300.051 664.104 298.455V290.058C661.241 291.485 657.958 292.367 653.79 292.367C649.707 292.367 646.087 290.939 645.624 285.985H666.209C666.209 285.753 666.224 285.228 666.241 284.622L666.241 284.621L666.241 284.619L666.241 284.618C666.265 283.796 666.293 282.828 666.293 282.248ZM645.497 278.26C645.497 273.515 648.402 271.541 651.054 271.541C653.622 271.541 656.358 273.515 656.358 278.26H645.497Z" fill="#635BFF"/>
<path d="M528.978 272.13C526.747 272.13 525.4 272.76 525.4 274.397C525.4 276.185 527.718 276.971 530.595 277.947C535.283 279.538 541.455 281.631 541.481 289.387C541.481 296.902 535.461 301.227 526.705 301.227C523.085 301.227 519.128 300.513 515.213 298.834V288.841C518.749 290.772 523.211 292.2 526.705 292.2C529.062 292.2 530.746 291.57 530.746 289.639C530.746 287.658 528.233 286.753 525.199 285.66C520.579 283.996 514.75 281.896 514.75 274.901C514.75 267.469 520.433 263.018 528.978 263.018C532.472 263.018 535.924 263.564 539.418 264.95V274.817C536.219 273.095 532.178 272.13 528.978 272.13Z" fill="#635BFF"/>
<path d="M574.904 266.839L574.231 263.732H565.138V300.471H575.662V275.572C578.146 272.339 582.355 272.927 583.66 273.389V263.732C582.313 263.228 577.388 262.304 574.904 266.839Z" fill="#635BFF"/>
<path d="M586.227 263.732H596.793V300.471H586.227V263.732Z" fill="#635BFF"/>
<path fill-rule="evenodd" clip-rule="evenodd" d="M610.516 266.293C611.989 264.949 614.641 263.018 618.766 263.018C626.133 263.018 633.079 269.652 633.121 281.828C633.121 295.138 626.259 301.184 618.724 301.184C615.02 301.184 612.789 299.631 611.273 298.539L611.231 310.422L600.707 312.647V263.689H609.968L610.516 266.293ZM611.274 289.976C612.284 291.067 613.757 291.949 616.241 291.949C620.114 291.949 622.724 287.75 622.724 282.123C622.724 276.622 620.072 272.339 616.241 272.339C613.841 272.339 612.326 273.179 611.232 274.397L611.274 289.976Z" fill="#635BFF"/>
</g>
<g filter="url(#filter3_dd_1220_3480)">
<rect x="734.75" y="213.75" width="208" height="134" rx="24" fill="#635BFF"/>
<rect x="734.25" y="213.25" width="209" height="135" rx="24.5" stroke="#D6DCE5"/>
<path d="M844.794 258.274L834.228 260.542V251.976L844.794 249.75V258.274Z" fill="white"/>
<path d="M801.856 254.621L791.584 256.804L791.542 290.436C791.542 296.65 796.215 301.227 802.445 301.227C805.897 301.227 808.423 300.597 809.812 299.841V291.318C808.465 291.864 801.814 293.795 801.814 287.581V272.675H809.812V263.732H801.814L801.856 254.621Z" fill="white"/>
<path fill-rule="evenodd" clip-rule="evenodd" d="M914.293 282.248C914.293 271.499 909.073 263.018 899.096 263.018C889.078 263.018 883.016 271.499 883.016 282.164C883.016 294.802 890.172 301.184 900.443 301.184C905.453 301.184 909.241 300.051 912.104 298.455V290.058C909.241 291.485 905.958 292.367 901.79 292.367C897.707 292.367 894.087 290.939 893.624 285.985H914.209C914.209 285.753 914.224 285.228 914.241 284.622L914.241 284.621L914.241 284.619L914.241 284.618C914.265 283.796 914.293 282.828 914.293 282.248ZM893.497 278.26C893.497 273.515 896.402 271.541 899.054 271.541C901.622 271.541 904.358 273.515 904.358 278.26H893.497Z" fill="white"/>
<path d="M776.978 272.13C774.747 272.13 773.4 272.76 773.4 274.397C773.4 276.185 775.718 276.971 778.595 277.947C783.283 279.538 789.455 281.631 789.481 289.387C789.481 296.902 783.461 301.227 774.705 301.227C771.085 301.227 767.128 300.513 763.213 298.834V288.841C766.749 290.772 771.211 292.2 774.705 292.2C777.062 292.2 778.746 291.57 778.746 289.639C778.746 287.658 776.233 286.753 773.199 285.66C768.579 283.996 762.75 281.896 762.75 274.901C762.75 267.469 768.433 263.018 776.978 263.018C780.472 263.018 783.924 263.564 787.418 264.95V274.817C784.219 273.095 780.178 272.13 776.978 272.13Z" fill="white"/>
<path d="M822.904 266.839L822.231 263.732H813.138V300.471H823.662V275.572C826.146 272.339 830.355 272.927 831.66 273.389V263.732C830.313 263.228 825.388 262.304 822.904 266.839Z" fill="white"/>
<path d="M834.227 263.732H844.793V300.471H834.227V263.732Z" fill="white"/>
<path fill-rule="evenodd" clip-rule="evenodd" d="M858.516 266.293C859.989 264.949 862.641 263.018 866.766 263.018C874.133 263.018 881.079 269.652 881.121 281.828C881.121 295.138 874.259 301.184 866.724 301.184C863.02 301.184 860.789 299.631 859.273 298.539L859.231 310.422L848.707 312.647V263.689H857.968L858.516 266.293ZM859.274 289.976C860.284 291.067 861.757 291.949 864.241 291.949C868.114 291.949 870.724 287.75 870.724 282.123C870.724 276.622 868.072 272.339 864.241 272.339C861.841 272.339 860.326 273.179 859.232 274.397L859.274 289.976Z" fill="white"/>
</g>
<g filter="url(#filter4_dd_1220_3480)">
<rect x="982.75" y="213.75" width="208" height="134" rx="24" fill="#EFEFFF"/>
<rect x="982.25" y="213.25" width="209" height="135" rx="24.5" stroke="#D6DCE5"/>
<path d="M1092.79 258.274L1082.23 260.542V251.976L1092.79 249.75V258.274Z" fill="#635BFF"/>
<path d="M1049.86 254.621L1039.58 256.804L1039.54 290.436C1039.54 296.65 1044.21 301.227 1050.44 301.227C1053.9 301.227 1056.42 300.597 1057.81 299.841V291.318C1056.46 291.864 1049.81 293.795 1049.81 287.581V272.675H1057.81V263.732H1049.81L1049.86 254.621Z" fill="#635BFF"/>
<path fill-rule="evenodd" clip-rule="evenodd" d="M1162.29 282.248C1162.29 271.499 1157.07 263.018 1147.1 263.018C1137.08 263.018 1131.02 271.499 1131.02 282.164C1131.02 294.802 1138.17 301.184 1148.44 301.184C1153.45 301.184 1157.24 300.051 1160.1 298.455V290.058C1157.24 291.485 1153.96 292.367 1149.79 292.367C1145.71 292.367 1142.09 290.939 1141.62 285.985H1162.21C1162.21 285.753 1162.22 285.228 1162.24 284.622L1162.24 284.621L1162.24 284.619L1162.24 284.618C1162.26 283.796 1162.29 282.828 1162.29 282.248ZM1141.5 278.26C1141.5 273.515 1144.4 271.541 1147.05 271.541C1149.62 271.541 1152.36 273.515 1152.36 278.26H1141.5Z" fill="#635BFF"/>
<path d="M1024.98 272.13C1022.75 272.13 1021.4 272.76 1021.4 274.397C1021.4 276.185 1023.72 276.971 1026.59 277.947C1031.28 279.538 1037.45 281.631 1037.48 289.387C1037.48 296.902 1031.46 301.227 1022.71 301.227C1019.08 301.227 1015.13 300.513 1011.21 298.834V288.841C1014.75 290.772 1019.21 292.2 1022.71 292.2C1025.06 292.2 1026.75 291.57 1026.75 289.639C1026.75 287.658 1024.23 286.753 1021.2 285.66C1016.58 283.996 1010.75 281.896 1010.75 274.901C1010.75 267.469 1016.43 263.018 1024.98 263.018C1028.47 263.018 1031.92 263.564 1035.42 264.95V274.817C1032.22 273.095 1028.18 272.13 1024.98 272.13Z" fill="#635BFF"/>
<path d="M1070.9 266.839L1070.23 263.732H1061.14V300.471H1071.66V275.572C1074.15 272.339 1078.36 272.927 1079.66 273.389V263.732C1078.31 263.228 1073.39 262.304 1070.9 266.839Z" fill="#635BFF"/>
<path d="M1082.23 263.732H1092.79V300.471H1082.23V263.732Z" fill="#635BFF"/>
<path fill-rule="evenodd" clip-rule="evenodd" d="M1106.52 266.293C1107.99 264.949 1110.64 263.018 1114.77 263.018C1122.13 263.018 1129.08 269.652 1129.12 281.828C1129.12 295.138 1122.26 301.184 1114.72 301.184C1111.02 301.184 1108.79 299.631 1107.27 298.539L1107.23 310.422L1096.71 312.647V263.689H1105.97L1106.52 266.293ZM1107.27 289.976C1108.28 291.067 1109.76 291.949 1112.24 291.949C1116.11 291.949 1118.72 287.75 1118.72 282.123C1118.72 276.622 1116.07 272.339 1112.24 272.339C1109.84 272.339 1108.33 273.179 1107.23 274.397L1107.27 289.976Z" fill="#635BFF"/>
</g>
<g filter="url(#filter5_dd_1220_3480)">
<rect x="1230.75" y="213.75" width="208" height="134" rx="24" fill="#393652"/>
<rect x="1230.25" y="213.25" width="209" height="135" rx="24.5" stroke="#D6DCE5"/>
<path d="M1340.79 258.274L1330.23 260.542V251.976L1340.79 249.75V258.274Z" fill="white"/>
<path d="M1297.86 254.621L1287.58 256.804L1287.54 290.436C1287.54 296.65 1292.21 301.227 1298.44 301.227C1301.9 301.227 1304.42 300.597 1305.81 299.841V291.318C1304.46 291.864 1297.81 293.795 1297.81 287.581V272.675H1305.81V263.732H1297.81L1297.86 254.621Z" fill="white"/>
<path fill-rule="evenodd" clip-rule="evenodd" d="M1410.29 282.248C1410.29 271.499 1405.07 263.018 1395.1 263.018C1385.08 263.018 1379.02 271.499 1379.02 282.164C1379.02 294.802 1386.17 301.184 1396.44 301.184C1401.45 301.184 1405.24 300.051 1408.1 298.455V290.058C1405.24 291.485 1401.96 292.367 1397.79 292.367C1393.71 292.367 1390.09 290.939 1389.62 285.985H1410.21C1410.21 285.753 1410.22 285.228 1410.24 284.622L1410.24 284.621L1410.24 284.619L1410.24 284.618C1410.26 283.796 1410.29 282.828 1410.29 282.248ZM1389.5 278.26C1389.5 273.515 1392.4 271.541 1395.05 271.541C1397.62 271.541 1400.36 273.515 1400.36 278.26H1389.5Z" fill="white"/>
<path d="M1272.98 272.13C1270.75 272.13 1269.4 272.76 1269.4 274.397C1269.4 276.185 1271.72 276.971 1274.59 277.947C1279.28 279.538 1285.45 281.631 1285.48 289.387C1285.48 296.902 1279.46 301.227 1270.71 301.227C1267.08 301.227 1263.13 300.513 1259.21 298.834V288.841C1262.75 290.772 1267.21 292.2 1270.71 292.2C1273.06 292.2 1274.75 291.57 1274.75 289.639C1274.75 287.658 1272.23 286.753 1269.2 285.66C1264.58 283.996 1258.75 281.896 1258.75 274.901C1258.75 267.469 1264.43 263.018 1272.98 263.018C1276.47 263.018 1279.92 263.564 1283.42 264.95V274.817C1280.22 273.095 1276.18 272.13 1272.98 272.13Z" fill="white"/>
<path d="M1318.9 266.839L1318.23 263.732H1309.14V300.471H1319.66V275.572C1322.15 272.339 1326.36 272.927 1327.66 273.389V263.732C1326.31 263.228 1321.39 262.304 1318.9 266.839Z" fill="white"/>
<path d="M1330.23 263.732H1340.79V300.471H1330.23V263.732Z" fill="white"/>
<path fill-rule="evenodd" clip-rule="evenodd" d="M1354.52 266.293C1355.99 264.949 1358.64 263.018 1362.77 263.018C1370.13 263.018 1377.08 269.652 1377.12 281.828C1377.12 295.138 1370.26 301.184 1362.72 301.184C1359.02 301.184 1356.79 299.631 1355.27 298.539L1355.23 310.422L1344.71 312.647V263.689H1353.97L1354.52 266.293ZM1355.27 289.976C1356.28 291.067 1357.76 291.949 1360.24 291.949C1364.11 291.949 1366.72 287.75 1366.72 282.123C1366.72 276.622 1364.07 272.339 1360.24 272.339C1357.84 272.339 1356.33 273.179 1355.23 274.397L1355.27 289.976Z" fill="white"/>
</g>
</g>
<defs>
<filter id="filter0_dd_1220_3480" x="0" y="0" width="1559.5" height="493.5" filterUnits="userSpaceOnUse" color-interpolation-filters="sRGB">
<feFlood flood-opacity="0" result="BackgroundImageFix"/>
<feColorMatrix in="SourceAlpha" type="matrix" values="0 0 0 0 0 0 0 0 0 0 0 0 0 0 0 0 0 0 127 0" result="hardAlpha"/>
<feOffset dy="20"/>
<feGaussianBlur stdDeviation="20"/>
<feColorMatrix type="matrix" values="0 0 0 0 0.717647 0 0 0 0 0.717647 0 0 0 0 0.717647 0 0 0 0.06 0"/>
<feBlend mode="normal" in2="BackgroundImageFix" result="effect1_dropShadow_1220_3480"/>
<feColorMatrix in="SourceAlpha" type="matrix" values="0 0 0 0 0 0 0 0 0 0 0 0 0 0 0 0 0 0 127 0" result="hardAlpha"/>
<feOffset dy="4"/>
<feGaussianBlur stdDeviation="7"/>
<feColorMatrix type="matrix" values="0 0 0 0 0.716667 0 0 0 0 0.716667 0 0 0 0 0.716667 0 0 0 0.02 0"/>
<feBlend mode="normal" in2="effect1_dropShadow_1220_3480" result="effect2_dropShadow_1220_3480"/>
<feBlend mode="normal" in="SourceGraphic" in2="effect2_dropShadow_1220_3480" result="shape"/>
</filter>
<filter id="filter1_dd_1220_3480" x="79.75" y="192.75" width="408" height="216" filterUnits="userSpaceOnUse" color-interpolation-filters="sRGB">
<feFlood flood-opacity="0" result="BackgroundImageFix"/>
<feColorMatrix in="SourceAlpha" type="matrix" values="0 0 0 0 0 0 0 0 0 0 0 0 0 0 0 0 0 0 127 0" result="hardAlpha"/>
<feOffset dy="2"/>
<feGaussianBlur stdDeviation="10"/>
<feColorMatrix type="matrix" values="0 0 0 0 0.717647 0 0 0 0 0.717647 0 0 0 0 0.717647 0 0 0 0.08 0"/>
<feBlend mode="normal" in2="BackgroundImageFix" result="effect1_dropShadow_1220_3480"/>
<feColorMatrix in="SourceAlpha" type="matrix" values="0 0 0 0 0 0 0 0 0 0 0 0 0 0 0 0 0 0 127 0" result="hardAlpha"/>
<feOffset dy="20"/>
<feGaussianBlur stdDeviation="20"/>
<feColorMatrix type="matrix" values="0 0 0 0 0.717647 0 0 0 0 0.717647 0 0 0 0 0.717647 0 0 0 0.08 0"/>
<feBlend mode="normal" in2="effect1_dropShadow_1220_3480" result="effect2_dropShadow_1220_3480"/>
<feBlend mode="normal" in="SourceGraphic" in2="effect2_dropShadow_1220_3480" result="shape"/>
</filter>
<filter id="filter2_dd_1220_3480" x="445.75" y="192.75" width="290" height="216" filterUnits="userSpaceOnUse" color-interpolation-filters="sRGB">
<feFlood flood-opacity="0" result="BackgroundImageFix"/>
<feColorMatrix in="SourceAlpha" type="matrix" values="0 0 0 0 0 0 0 0 0 0 0 0 0 0 0 0 0 0 127 0" result="hardAlpha"/>
<feOffset dy="2"/>
<feGaussianBlur stdDeviation="10"/>
<feColorMatrix type="matrix" values="0 0 0 0 0.717647 0 0 0 0 0.717647 0 0 0 0 0.717647 0 0 0 0.08 0"/>
<feBlend mode="normal" in2="BackgroundImageFix" result="effect1_dropShadow_1220_3480"/>
<feColorMatrix in="SourceAlpha" type="matrix" values="0 0 0 0 0 0 0 0 0 0 0 0 0 0 0 0 0 0 127 0" result="hardAlpha"/>
<feOffset dy="20"/>
<feGaussianBlur stdDeviation="20"/>
<feColorMatrix type="matrix" values="0 0 0 0 0.717647 0 0 0 0 0.717647 0 0 0 0 0.717647 0 0 0 0.08 0"/>
<feBlend mode="normal" in2="effect1_dropShadow_1220_3480" result="effect2_dropShadow_1220_3480"/>
<feBlend mode="normal" in="SourceGraphic" in2="effect2_dropShadow_1220_3480" result="shape"/>
</filter>
<filter id="filter3_dd_1220_3480" x="693.75" y="192.75" width="290" height="216" filterUnits="userSpaceOnUse" color-interpolation-filters="sRGB">
<feFlood flood-opacity="0" result="BackgroundImageFix"/>
<feColorMatrix in="SourceAlpha" type="matrix" values="0 0 0 0 0 0 0 0 0 0 0 0 0 0 0 0 0 0 127 0" result="hardAlpha"/>
<feOffset dy="2"/>
<feGaussianBlur stdDeviation="10"/>
<feColorMatrix type="matrix" values="0 0 0 0 0.717647 0 0 0 0 0.717647 0 0 0 0 0.717647 0 0 0 0.08 0"/>
<feBlend mode="normal" in2="BackgroundImageFix" result="effect1_dropShadow_1220_3480"/>
<feColorMatrix in="SourceAlpha" type="matrix" values="0 0 0 0 0 0 0 0 0 0 0 0 0 0 0 0 0 0 127 0" result="hardAlpha"/>
<feOffset dy="20"/>
<feGaussianBlur stdDeviation="20"/>
<feColorMatrix type="matrix" values="0 0 0 0 0.717647 0 0 0 0 0.717647 0 0 0 0 0.717647 0 0 0 0.08 0"/>
<feBlend mode="normal" in2="effect1_dropShadow_1220_3480" result="effect2_dropShadow_1220_3480"/>
<feBlend mode="normal" in="SourceGraphic" in2="effect2_dropShadow_1220_3480" result="shape"/>
</filter>
<filter id="filter4_dd_1220_3480" x="941.75" y="192.75" width="290" height="216" filterUnits="userSpaceOnUse" color-interpolation-filters="sRGB">
<feFlood flood-opacity="0" result="BackgroundImageFix"/>
<feColorMatrix in="SourceAlpha" type="matrix" values="0 0 0 0 0 0 0 0 0 0 0 0 0 0 0 0 0 0 127 0" result="hardAlpha"/>
<feOffset dy="2"/>
<feGaussianBlur stdDeviation="10"/>
<feColorMatrix type="matrix" values="0 0 0 0 0.717647 0 0 0 0 0.717647 0 0 0 0 0.717647 0 0 0 0.08 0"/>
<feBlend mode="normal" in2="BackgroundImageFix" result="effect1_dropShadow_1220_3480"/>
<feColorMatrix in="SourceAlpha" type="matrix" values="0 0 0 0 0 0 0 0 0 0 0 0 0 0 0 0 0 0 127 0" result="hardAlpha"/>
<feOffset dy="20"/>
<feGaussianBlur stdDeviation="20"/>
<feColorMatrix type="matrix" values="0 0 0 0 0.717647 0 0 0 0 0.717647 0 0 0 0 0.717647 0 0 0 0.08 0"/>
<feBlend mode="normal" in2="effect1_dropShadow_1220_3480" result="effect2_dropShadow_1220_3480"/>
<feBlend mode="normal" in="SourceGraphic" in2="effect2_dropShadow_1220_3480" result="shape"/>
</filter>
<filter id="filter5_dd_1220_3480" x="1189.75" y="192.75" width="290" height="216" filterUnits="userSpaceOnUse" color-interpolation-filters="sRGB">
<feFlood flood-opacity="0" result="BackgroundImageFix"/>
<feColorMatrix in="SourceAlpha" type="matrix" values="0 0 0 0 0 0 0 0 0 0 0 0 0 0 0 0 0 0 127 0" result="hardAlpha"/>
<feOffset dy="2"/>
<feGaussianBlur stdDeviation="10"/>
<feColorMatrix type="matrix" values="0 0 0 0 0.717647 0 0 0 0 0.717647 0 0 0 0 0.717647 0 0 0 0.08 0"/>
<feBlend mode="normal" in2="BackgroundImageFix" result="effect1_dropShadow_1220_3480"/>
<feColorMatrix in="SourceAlpha" type="matrix" values="0 0 0 0 0 0 0 0 0 0 0 0 0 0 0 0 0 0 127 0" result="hardAlpha"/>
<feOffset dy="20"/>
<feGaussianBlur stdDeviation="20"/>
<feColorMatrix type="matrix" values="0 0 0 0 0.717647 0 0 0 0 0.717647 0 0 0 0 0.717647 0 0 0 0.08 0"/>
<feBlend mode="normal" in2="effect1_dropShadow_1220_3480" result="effect2_dropShadow_1220_3480"/>
<feBlend mode="normal" in="SourceGraphic" in2="effect2_dropShadow_1220_3480" result="shape"/>
</filter>
</defs>
</svg>
