<svg width="816" height="494" viewBox="0 0 816 494" fill="none" xmlns="http://www.w3.org/2000/svg">
<g filter="url(#filter0_dd_1222_3155)">
<rect x="40.75" y="20.75" width="734" height="412" rx="40" fill="white"/>
<rect x="40.75" y="20.75" width="734" height="412" rx="40" stroke="#EBEFF6" stroke-width="1.5"/>
<path d="M130.281 137.75L121.54 107.205H128.595L133.651 128.428H133.905L139.483 107.205H145.523L151.087 128.473H151.355L156.411 107.205H163.466L154.726 137.75H148.432L142.615 117.779H142.376L136.575 137.75H130.281ZM174.782 138.197C172.426 138.197 170.398 137.72 168.697 136.766C167.007 135.801 165.704 134.439 164.79 132.679C163.875 130.909 163.417 128.816 163.417 126.4C163.417 124.043 163.875 121.975 164.79 120.195C165.704 118.415 166.992 117.028 168.653 116.034C170.323 115.04 172.282 114.543 174.529 114.543C176.04 114.543 177.447 114.786 178.75 115.273C180.062 115.751 181.206 116.472 182.18 117.436C183.165 118.401 183.93 119.614 184.477 121.075C185.024 122.527 185.297 124.227 185.297 126.176V127.921H165.953V123.984H179.317C179.317 123.069 179.118 122.259 178.72 121.553C178.322 120.847 177.77 120.295 177.064 119.897C176.368 119.489 175.558 119.286 174.633 119.286C173.669 119.286 172.814 119.509 172.068 119.957C171.332 120.394 170.756 120.986 170.338 121.732C169.92 122.467 169.706 123.288 169.697 124.192V127.936C169.697 129.07 169.905 130.049 170.323 130.874C170.751 131.7 171.352 132.336 172.128 132.783C172.903 133.231 173.823 133.455 174.887 133.455C175.593 133.455 176.239 133.355 176.826 133.156C177.412 132.957 177.915 132.659 178.332 132.261C178.75 131.864 179.068 131.376 179.287 130.8L185.163 131.188C184.865 132.599 184.253 133.832 183.329 134.886C182.414 135.93 181.231 136.746 179.779 137.332C178.337 137.909 176.672 138.197 174.782 138.197ZM195.797 107.205V137.75H189.444V107.205H195.797ZM207.241 107.205V137.75H200.887V107.205H207.241ZM231.392 121.374L225.575 121.732C225.475 121.234 225.262 120.787 224.933 120.389C224.605 119.982 224.173 119.658 223.636 119.42C223.109 119.171 222.477 119.047 221.742 119.047C220.757 119.047 219.927 119.256 219.251 119.673C218.575 120.081 218.237 120.628 218.237 121.314C218.237 121.861 218.455 122.323 218.893 122.701C219.33 123.079 220.081 123.382 221.145 123.611L225.291 124.446C227.519 124.903 229.179 125.639 230.273 126.653C231.367 127.668 231.914 129 231.914 130.651C231.914 132.152 231.471 133.469 230.586 134.603C229.711 135.737 228.508 136.621 226.977 137.258C225.455 137.884 223.7 138.197 221.712 138.197C218.679 138.197 216.263 137.566 214.463 136.303C212.673 135.031 211.624 133.3 211.316 131.113L217.566 130.785C217.754 131.71 218.212 132.415 218.938 132.903C219.664 133.38 220.593 133.619 221.727 133.619C222.84 133.619 223.735 133.405 224.411 132.977C225.097 132.54 225.445 131.978 225.455 131.292C225.445 130.715 225.202 130.243 224.725 129.875C224.247 129.497 223.512 129.209 222.517 129.01L218.55 128.219C216.313 127.772 214.647 126.996 213.553 125.893C212.47 124.789 211.928 123.382 211.928 121.672C211.928 120.2 212.325 118.933 213.121 117.869C213.926 116.805 215.055 115.984 216.507 115.408C217.968 114.831 219.678 114.543 221.637 114.543C224.531 114.543 226.808 115.154 228.468 116.377C230.139 117.6 231.113 119.266 231.392 121.374ZM245.754 137.75V107.205H265.979V112.529H252.213V119.808H264.637V125.132H252.213V137.75H245.754ZM276.449 138.183C274.987 138.183 273.685 137.929 272.541 137.422C271.398 136.905 270.493 136.144 269.827 135.14C269.171 134.126 268.843 132.863 268.843 131.352C268.843 130.079 269.076 129.01 269.544 128.145C270.011 127.28 270.647 126.584 271.453 126.057C272.258 125.53 273.173 125.132 274.197 124.864C275.231 124.595 276.315 124.406 277.448 124.297C278.781 124.158 279.855 124.028 280.67 123.909C281.485 123.78 282.077 123.591 282.445 123.342C282.813 123.094 282.997 122.726 282.997 122.239V122.149C282.997 121.205 282.698 120.474 282.102 119.957C281.515 119.44 280.68 119.181 279.596 119.181C278.453 119.181 277.543 119.435 276.867 119.942C276.191 120.439 275.743 121.065 275.524 121.821L269.648 121.344C269.946 119.952 270.533 118.749 271.408 117.734C272.283 116.71 273.411 115.925 274.794 115.378C276.186 114.821 277.796 114.543 279.626 114.543C280.899 114.543 282.117 114.692 283.28 114.99C284.453 115.288 285.492 115.751 286.397 116.377C287.312 117.004 288.033 117.809 288.56 118.793C289.087 119.768 289.35 120.936 289.35 122.298V137.75H283.325V134.573H283.146C282.778 135.289 282.286 135.92 281.669 136.467C281.053 137.004 280.312 137.427 279.447 137.735C278.582 138.033 277.583 138.183 276.449 138.183ZM278.269 133.798C279.203 133.798 280.029 133.614 280.744 133.246C281.46 132.868 282.022 132.361 282.43 131.724C282.838 131.088 283.041 130.367 283.041 129.562V127.131C282.843 127.26 282.569 127.379 282.221 127.489C281.883 127.588 281.5 127.683 281.073 127.772C280.645 127.852 280.218 127.926 279.79 127.996C279.362 128.055 278.975 128.11 278.627 128.16C277.881 128.269 277.23 128.443 276.673 128.682C276.116 128.92 275.683 129.244 275.375 129.651C275.067 130.049 274.913 130.546 274.913 131.143C274.913 132.008 275.226 132.669 275.852 133.126C276.489 133.574 277.294 133.798 278.269 133.798ZM294.28 137.75V114.841H300.439V118.838H300.678C301.096 117.416 301.797 116.342 302.781 115.616C303.765 114.881 304.899 114.513 306.182 114.513C306.5 114.513 306.843 114.533 307.211 114.572C307.579 114.612 307.902 114.667 308.18 114.737V120.374C307.882 120.285 307.469 120.205 306.942 120.136C306.415 120.066 305.933 120.031 305.496 120.031C304.561 120.031 303.726 120.235 302.99 120.643C302.264 121.04 301.687 121.597 301.26 122.313C300.842 123.029 300.633 123.854 300.633 124.789V137.75H294.28ZM320.72 146.818C318.662 146.818 316.897 146.535 315.425 145.968C313.963 145.411 312.8 144.651 311.935 143.686C311.07 142.722 310.508 141.638 310.25 140.435L316.126 139.644C316.305 140.102 316.588 140.529 316.976 140.927C317.364 141.325 317.876 141.643 318.512 141.881C319.159 142.13 319.944 142.254 320.869 142.254C322.251 142.254 323.39 141.916 324.284 141.24C325.189 140.574 325.642 139.455 325.642 137.884V133.693H325.373C325.095 134.33 324.677 134.931 324.12 135.498C323.564 136.065 322.848 136.527 321.973 136.885C321.098 137.243 320.054 137.422 318.841 137.422C317.12 137.422 315.554 137.024 314.142 136.229C312.74 135.423 311.622 134.195 310.787 132.545C309.961 130.884 309.549 128.786 309.549 126.251C309.549 123.656 309.971 121.488 310.816 119.748C311.662 118.008 312.785 116.705 314.187 115.84C315.599 114.975 317.145 114.543 318.826 114.543C320.108 114.543 321.182 114.761 322.047 115.199C322.912 115.626 323.608 116.163 324.135 116.81C324.672 117.446 325.085 118.072 325.373 118.689H325.612V114.841H331.921V137.974C331.921 139.923 331.444 141.553 330.489 142.866C329.534 144.178 328.212 145.163 326.522 145.819C324.841 146.485 322.907 146.818 320.72 146.818ZM320.854 132.649C321.878 132.649 322.743 132.396 323.449 131.888C324.165 131.371 324.712 130.636 325.09 129.681C325.478 128.717 325.672 127.563 325.672 126.221C325.672 124.879 325.483 123.715 325.105 122.731C324.727 121.737 324.18 120.966 323.464 120.419C322.748 119.872 321.878 119.599 320.854 119.599C319.81 119.599 318.93 119.882 318.214 120.449C317.498 121.006 316.956 121.781 316.588 122.776C316.221 123.77 316.037 124.918 316.037 126.221C316.037 127.543 316.221 128.687 316.588 129.651C316.966 130.606 317.508 131.347 318.214 131.874C318.93 132.391 319.81 132.649 320.854 132.649ZM347.328 138.197C345.011 138.197 343.007 137.705 341.317 136.721C339.637 135.727 338.339 134.344 337.424 132.575C336.51 130.795 336.052 128.732 336.052 126.385C336.052 124.018 336.51 121.95 337.424 120.18C338.339 118.401 339.637 117.018 341.317 116.034C343.007 115.04 345.011 114.543 347.328 114.543C349.645 114.543 351.643 115.04 353.324 116.034C355.014 117.018 356.316 118.401 357.231 120.18C358.146 121.95 358.603 124.018 358.603 126.385C358.603 128.732 358.146 130.795 357.231 132.575C356.316 134.344 355.014 135.727 353.324 136.721C351.643 137.705 349.645 138.197 347.328 138.197ZM347.358 133.276C348.412 133.276 349.292 132.977 349.998 132.381C350.703 131.774 351.235 130.949 351.593 129.905C351.961 128.861 352.145 127.673 352.145 126.34C352.145 125.008 351.961 123.82 351.593 122.776C351.235 121.732 350.703 120.906 349.998 120.3C349.292 119.693 348.412 119.39 347.358 119.39C346.294 119.39 345.399 119.693 344.673 120.3C343.957 120.906 343.415 121.732 343.047 122.776C342.689 123.82 342.51 125.008 342.51 126.34C342.51 127.673 342.689 128.861 343.047 129.905C343.415 130.949 343.957 131.774 344.673 132.381C345.399 132.977 346.294 133.276 347.358 133.276Z" fill="#19213D"/>
<a href="https://www.wellsfargo.com/">
<rect fill="black" fill-opacity="0" y="1.58523" width="239.464" height="50.8295"/>
</a>
<g filter="url(#filter1_dd_1222_3155)">
<rect x="179.75" y="213.75" width="456" height="134" rx="24" fill="white"/>
<rect x="179.25" y="213.25" width="457" height="135" rx="24.5" stroke="#D6DCE5"/>
<path d="M346.135 288.781C345.282 290.344 343.435 290.77 340.308 290.77H333.77V272.862C333.77 270.73 334.196 270.445 336.755 270.445H338.744V267.461H322.683V270.445H324.105C326.379 270.445 327.658 270.73 327.658 273.004V288.638C327.658 290.912 326.663 291.197 324.389 291.197H322.826V294.182H350.399V283.379H347.272C347.272 285.796 346.988 287.501 346.135 288.781ZM311.029 290.77H302.501V281.532H304.49C307.902 281.532 308.328 282.1 308.47 286.791H311.597V273.288H308.47C308.186 277.268 307.76 278.405 304.348 278.405H302.359V270.445H309.892C315.293 270.445 316.714 271.44 316.998 277.694H319.983V267.319H280.47V270.303H282.318C283.881 270.303 284.592 270.588 284.592 271.44C284.592 271.867 284.592 272.577 284.308 273.43L279.049 287.075H278.765C276.348 280.253 273.221 272.577 273.221 272.577C273.079 272.151 272.937 271.725 272.937 271.44C272.937 270.588 273.506 270.303 274.785 270.303H277.059V267.319H262.846V270.303H264.693C266.968 270.303 267.678 271.44 267.963 273.572L262.704 286.933H262.277C259.861 279.684 256.734 272.435 256.734 272.435C256.592 272.009 256.592 271.725 256.592 271.582C256.592 270.73 257.16 270.303 258.724 270.303H260.003V267.319H246.358V270.303H246.927C248.917 270.303 250.196 271.582 251.191 273.857L259.15 294.039H264.125L269.952 279.116L276.064 293.897H280.897L288.572 273.572C289.424 271.156 290.277 270.303 292.409 270.303H292.836C295.11 270.303 296.389 270.588 296.389 272.72V288.496C296.389 290.77 295.11 290.912 292.836 290.912H291.272V293.897H320.551V283.095H317.425C316.998 288.496 315.861 290.77 311.029 290.77ZM374.846 288.781C373.993 290.344 372.145 290.77 369.019 290.77H362.48V272.862C362.48 270.73 362.907 270.445 365.465 270.445H367.455V267.461H351.394V270.445H353.1C355.374 270.445 356.511 270.73 356.511 273.004V288.638C356.511 290.912 355.516 291.197 353.1 291.197H352.673V294.182H379.11V283.379H375.983C375.983 285.796 375.699 287.501 374.846 288.781ZM396.308 277.694L390.765 276.699C388.206 276.273 386.217 275.989 386.217 273.999C386.217 271.867 388.349 270.019 391.475 269.877C395.882 269.735 400.998 271.298 401.567 276.557H404.552V267.176H402.135L400.856 269.451C398.014 267.176 394.176 266.75 391.333 266.75C385.364 266.75 380.958 270.019 381.1 274.852C381.242 279.258 383.516 281.247 390.338 282.527L394.887 283.379C398.014 283.948 401.709 283.664 401.283 287.075C400.998 290.06 398.014 291.055 393.75 290.912C388.917 290.628 385.364 288.496 384.511 283.379H381.384V294.039H384.085L384.937 291.197C385.79 292.05 389.912 294.466 394.318 294.466C401.425 294.466 406.257 292.334 406.257 286.222C406.399 279.826 401.993 278.689 396.308 277.694ZM432.125 278.405H429.993V270.445H436.673C439.8 270.445 441.648 270.73 442.643 272.293C443.354 273.714 443.78 275.562 443.78 277.694H446.907V267.319H419.475V270.303H421.039C423.313 270.303 424.166 270.588 424.166 272.72V288.496C424.166 290.77 423.313 290.912 421.039 290.912H419.475V293.897H435.963V290.912H432.836C430.562 290.912 430.135 290.628 430.135 288.496V281.532H432.267C435.536 281.532 436.105 282.385 436.105 286.933H438.663V273.572H436.247C435.963 277.836 435.536 278.405 432.125 278.405ZM502.765 286.364C502.907 289.491 502.765 290.77 501.202 290.77C500.349 290.77 499.78 290.06 499.638 288.496V286.791C499.354 283.237 498.785 281.532 493.953 280.395C499.07 279.684 502.054 277.41 502.054 273.572C502.054 269.308 498.927 267.176 492.105 267.176H473.77V270.161H475.902C478.176 270.161 478.602 270.445 478.602 272.577V288.354C478.602 290.344 477.323 290.912 475.76 290.912H473.912C472.349 290.912 471.496 290.344 470.785 288.354L462.257 267.319H455.719L446.765 288.354C445.912 290.202 445.344 290.912 443.212 290.912H441.932V293.897H455.861V290.912H453.019C451.597 290.912 450.887 290.912 450.887 290.06C450.887 289.775 451.029 289.349 451.171 288.781L452.45 285.511H462.826L463.963 288.638C464.211 289.022 464.358 289.462 464.389 289.918C464.389 290.77 463.679 291.055 462.115 291.055H459.273V294.039H489.547V291.055H487.13C484.856 291.055 484.43 290.77 484.43 288.638V281.532H487.13C491.679 281.532 493.242 282.385 493.384 286.933L493.526 290.06C493.669 293.755 496.085 294.75 499.78 294.75C503.049 294.75 505.181 292.76 505.181 287.928V286.506H502.765V286.364ZM454.014 282.385L457.993 272.151L462.115 282.385H454.014ZM490.399 278.405H484.572V270.303H490.257C494.095 270.303 495.801 271.156 495.801 274.283C495.943 277.268 494.095 278.405 490.399 278.405ZM523.232 282.953H524.511C527.07 282.953 527.496 282.953 527.496 284.801V286.222C527.496 289.349 524.227 291.055 520.674 291.055C515.699 291.055 512.999 287.217 512.999 280.395C512.999 273.572 516.41 270.019 520.674 270.019C525.08 270.019 527.78 271.867 529.059 275.846H531.76V266.892H529.628L528.207 269.593C526.217 267.461 522.806 266.75 519.679 266.75C515.983 266.75 512.572 268.029 510.298 270.303C507.598 273.004 506.318 276.273 506.318 280.395C506.318 284.517 507.74 288.07 510.44 290.77C512.856 293.329 515.983 294.608 519.679 294.608C522.806 294.608 526.359 293.755 528.775 291.765L530.197 294.039H532.328V285.085C532.328 282.811 532.613 282.953 534.603 282.953H535.598V279.826H523.232V282.953ZM553.506 266.75C544.694 266.75 537.872 272.151 537.872 280.537C537.872 288.923 544.694 294.466 553.648 294.466C562.461 294.466 569.141 288.923 569.141 280.537C568.999 272.151 562.318 266.75 553.506 266.75ZM562.461 280.679C562.461 287.643 558.623 291.339 553.506 291.339C548.247 291.339 544.41 287.643 544.41 280.679C544.41 273.714 548.389 270.019 553.506 270.019C558.623 270.019 562.461 273.714 562.461 280.679Z" fill="#BD332B"/>
</g>
</g>
<defs>
<filter id="filter0_dd_1222_3155" x="0" y="0" width="815.5" height="493.5" filterUnits="userSpaceOnUse" color-interpolation-filters="sRGB">
<feFlood flood-opacity="0" result="BackgroundImageFix"/>
<feColorMatrix in="SourceAlpha" type="matrix" values="0 0 0 0 0 0 0 0 0 0 0 0 0 0 0 0 0 0 127 0" result="hardAlpha"/>
<feOffset dy="20"/>
<feGaussianBlur stdDeviation="20"/>
<feColorMatrix type="matrix" values="0 0 0 0 0.717647 0 0 0 0 0.717647 0 0 0 0 0.717647 0 0 0 0.06 0"/>
<feBlend mode="normal" in2="BackgroundImageFix" result="effect1_dropShadow_1222_3155"/>
<feColorMatrix in="SourceAlpha" type="matrix" values="0 0 0 0 0 0 0 0 0 0 0 0 0 0 0 0 0 0 127 0" result="hardAlpha"/>
<feOffset dy="4"/>
<feGaussianBlur stdDeviation="7"/>
<feColorMatrix type="matrix" values="0 0 0 0 0.716667 0 0 0 0 0.716667 0 0 0 0 0.716667 0 0 0 0.02 0"/>
<feBlend mode="normal" in2="effect1_dropShadow_1222_3155" result="effect2_dropShadow_1222_3155"/>
<feBlend mode="normal" in="SourceGraphic" in2="effect2_dropShadow_1222_3155" result="shape"/>
</filter>
<filter id="filter1_dd_1222_3155" x="138.75" y="192.75" width="538" height="216" filterUnits="userSpaceOnUse" color-interpolation-filters="sRGB">
<feFlood flood-opacity="0" result="BackgroundImageFix"/>
<feColorMatrix in="SourceAlpha" type="matrix" values="0 0 0 0 0 0 0 0 0 0 0 0 0 0 0 0 0 0 127 0" result="hardAlpha"/>
<feOffset dy="2"/>
<feGaussianBlur stdDeviation="10"/>
<feColorMatrix type="matrix" values="0 0 0 0 0.717647 0 0 0 0 0.717647 0 0 0 0 0.717647 0 0 0 0.08 0"/>
<feBlend mode="normal" in2="BackgroundImageFix" result="effect1_dropShadow_1222_3155"/>
<feColorMatrix in="SourceAlpha" type="matrix" values="0 0 0 0 0 0 0 0 0 0 0 0 0 0 0 0 0 0 127 0" result="hardAlpha"/>
<feOffset dy="20"/>
<feGaussianBlur stdDeviation="20"/>
<feColorMatrix type="matrix" values="0 0 0 0 0.717647 0 0 0 0 0.717647 0 0 0 0 0.717647 0 0 0 0.08 0"/>
<feBlend mode="normal" in2="effect1_dropShadow_1222_3155" result="effect2_dropShadow_1222_3155"/>
<feBlend mode="normal" in="SourceGraphic" in2="effect2_dropShadow_1222_3155" result="shape"/>
</filter>
</defs>
</svg>
