<svg id="Layer_1" enable-background="new 0 0 256 256" height="512" viewBox="0 0 256 256" width="512" xmlns="http://www.w3.org/2000/svg"><path d="m222 70.4v149.6c0 12.7-10.3 23-23 23h-142c-12.7 0-23-10.3-23-23v-184c0-12.7 10.3-23 23-23h107.5c6.1 0 12 2.4 16.3 6.7l34.5 34.4c4.3 4.4 6.7 10.2 6.7 16.3z" fill="#001e36"/><g fill="#31a8ff"><path d="m166.1 18c3.7 0 7.3 1.5 9.9 4.1l35.9 35.9c2.6 2.6 4.1 6.2 4.1 9.9v156.1c0 7.7-6.3 14-14 14h-148c-7.7 0-14-6.3-14-14v-192c0-7.7 6.3-14 14-14zm0-10h-112.1c-13.3 0-24 10.7-24 24v192c0 13.3 10.7 24 24 24h148c13.3 0 24-10.7 24-24v-156.1c0-6.4-2.5-12.5-7-17l-36-35.9c-4.5-4.5-10.6-7-16.9-7z"/><path d="m138.7 82h12c.6 0 1.1.4 1.3.9.9 1.7 1.4 3.6 1.5 5.6 4.5-5.9 10.1-8.5 17.6-8.5.4-.1.8.2.8.6v.2 10.3c0 .6-.3.9-.9.8-6.3-.4-12.4 1.7-17 6-1.4 1.4-2.1 3.3-2 5.2v34c0 .6-.3.8-.9.8h-10c-.7 0-1.1-.3-1.1-.9v-40c0-9.5-1.3-10.3-2-14.2-.1-.5.2-.8.7-.8z"/><path d="m128.8 138h-43.7c-.7 0-1.1-.4-1.1-1.2v-77.8c-.1-.5.2-.9.7-1h.3 12.3c.5 0 .7.3.7.8v67.2h33.1c.7 0 1 .3.9 1l-2 10c-.1.6-.6 1-1.2 1z"/></g><g fill="#fff"><path d="m111 207.5-.5 4.6c-.1 1.1-1 1.9-2.1 1.8-.7 0-1.6 0-2.4 0-10.6.4-17.5-4.5-19.2-13.5-2-10.4 2.4-19.4 11.2-22.2 2.7-.9 5.7-1.2 8.5-1.1 2.1.1 5.1.6 5.1.6s.4 2.3-.1 6.1c-5.3-.8-11.2-2.1-14.9 2.9-1.9 2.6-3.1 6.3-3.1 9.6.1 8.9 5.5 12.2 17.5 11.2z"/><path d="m152.1 184.1c-4.1 0-7.2 0-10.9 0 .4-2.3.7-4.1 1-6h26.8c.2 1.8.4 3.5.6 5.8-3.5 0-6.6 0-10.5 0v30.1c-2.6 0-4.5 0-7 0 0-9.8 0-19.5 0-29.9z"/><path d="m135.3 204h-11.2l-2.9 9.5c0 .3-.2.5-.5.4h-5.2c-.4 0-.5-.2-.4-.6l10.1-32.1c.3-1 .4-2 .4-3 0-.2.1-.3.2-.3h.1 7.4c.2 0 .3.1.4.3l11.3 35.2c.1.3 0 .5-.3.5h-5.9c-.2 0-.4-.1-.5-.3zm-9.9-6h8.7c-.2.1-4.1-13.3-4.4-14.4-.4 1.9-1.9 7-4.3 14.4z"/></g></svg>