<svg width="24" height="24" viewBox="0 0 24 24" fill="none" xmlns="http://www.w3.org/2000/svg">
<path d="M17 7V5H15L15 7H17Z" fill="black"/>
<path d="M19 9V7L17 7V9H19Z" fill="black"/>
<path d="M23 13V11H21V13H23Z" fill="black"/>
<path d="M19 11V9H17V11H19Z" fill="black"/>
<path d="M21 11V9H19V11L21 11Z" fill="black"/>
<path d="M23 15V13H21V15H23Z" fill="black"/>
<path d="M23 17V15H21V17H23Z" fill="black"/>
<path d="M21 19V17L19 17V19H21Z" fill="black"/>
<path d="M13 5V3L11 3V5L13 5Z" fill="black"/>
<path d="M15 5L15 3L13 3V5L15 5Z" fill="black"/>
<path d="M11 5V3L9 3V5H11Z" fill="black"/>
<path d="M1 17L1 15H3L3 17H1Z" fill="black"/>
<path d="M3 19L3 17L5 17L5 19H3Z" fill="black"/>
<path d="M1 13L1 15H3V13H1Z" fill="black"/>
<path d="M3 9L3 11H5L5 9L3 9Z" fill="black"/>
<path d="M1 11L1 13H3L3 11H1Z" fill="black"/>
<path d="M5 9L5 11H7L7 9H5Z" fill="black"/>
<path d="M5 7V9H7V7H5Z" fill="black"/>
<path d="M7 5V7H9L9 5L7 5Z" fill="black"/>
<path d="M13 13V19H11V13H13Z" fill="black"/>
<path d="M15 15V17L9 17V15H15Z" fill="black"/>
</svg>
