<svg width="24" height="24" viewBox="0 0 24 24" fill="none" xmlns="http://www.w3.org">
<rect x="3" y="6" width="10" height="2" fill="black"></rect>
<rect x="1" y="8" width="2" height="10" fill="black"></rect>
<rect x="3" y="18" width="8" height="2" fill="black"></rect>
<rect x="13" y="8" width="2" height="4" fill="black"></rect>
<rect x="3" y="10" width="10" height="2" fill="black"></rect>
<rect x="3" y="4" width="2" height="2" fill="black"></rect>
<rect x="11" y="4" width="2" height="2" fill="black"></rect>
<rect width="8" height="2" transform="matrix(1 0 0 -1 13 18)" fill="black"></rect>
<rect width="2" height="2" transform="matrix(1 0 0 -1 15 16)" fill="black"></rect>
<rect width="2" height="2" transform="matrix(1 0 0 -1 19 16)" fill="black"></rect>
<rect width="2" height="2" transform="matrix(1 0 0 -1 21 18)" fill="black"></rect>
<rect width="2" height="10" transform="matrix(1 0 0 -1 17 22)" fill="black"></rect>
</svg>