<svg width="24" height="24" viewBox="0 0 24 24" fill="none" xmlns="http://www.w3.org">
<rect width="16" height="2" transform="matrix(-4.37114e-08 -1 -1 4.37114e-08 16 20)" fill="black"></rect>
<rect width="2" height="10" transform="matrix(-4.37114e-08 -1 -1 4.37114e-08 14 20)" fill="black"></rect>
<rect width="2" height="8" transform="matrix(4.37114e-08 1 1 -4.37114e-08 10 8)" fill="black"></rect>
<rect width="2" height="2" transform="matrix(4.37114e-08 1 1 -4.37114e-08 12 6)" fill="black"></rect>
<rect width="2" height="2" transform="matrix(4.37114e-08 1 1 -4.37114e-08 16 6)" fill="black"></rect>
<rect width="2" height="2" transform="matrix(4.37114e-08 1 1 -4.37114e-08 18 8)" fill="black"></rect>
</svg>