<svg width="24" height="24" viewBox="0 0 24 24" fill="none" xmlns="http://www.w3.org">
<rect x="21" y="15" width="4" height="2" transform="rotate(90 21 15)" fill="black"></rect>
<rect x="19" y="19" width="2" height="14" transform="rotate(90 19 19)" fill="black"></rect>
<rect x="5" y="15" width="4" height="2" transform="rotate(90 5 15)" fill="black"></rect>
<rect x="13" y="3.00006" width="14" height="2" transform="rotate(90 13 3.00006)" fill="black"></rect>
<rect width="2" height="10" transform="matrix(-4.37114e-08 1 1 4.37114e-08 7 11)" fill="black"></rect>
<rect width="2" height="2" transform="matrix(-4.37114e-08 1 1 4.37114e-08 9 13)" fill="black"></rect>
<rect width="2" height="2" transform="matrix(-4.37114e-08 1 1 4.37114e-08 13 13)" fill="black"></rect>
<rect width="2" height="2" transform="matrix(-4.37114e-08 1 1 4.37114e-08 15 11)" fill="black"></rect>
</svg>