<svg width="24" height="24" viewBox="0 0 24 24" fill="none" xmlns="http://www.w3.org">
<rect x="6" y="2" width="10" height="2" fill="black"></rect>
<rect x="4" y="4" width="2" height="2" fill="black"></rect>
<rect width="2" height="2" transform="matrix(-1 0 0 1 18 4)" fill="black"></rect>
<rect x="6" y="17" width="2" height="2" fill="black"></rect>
<rect x="8" y="19" width="2" height="2" fill="black"></rect>
<rect x="10" y="21" width="2" height="2" fill="black"></rect>
<rect x="4" y="14" width="2" height="3" fill="black"></rect>
<rect x="2" y="6" width="2" height="8" fill="black"></rect>
<rect width="2" height="3" transform="matrix(-1 0 0 1 20 6)" fill="black"></rect>
<rect x="9" y="6" width="4" height="2" fill="black"></rect>
<rect x="7" y="8" width="2" height="4" fill="black"></rect>
<rect x="9" y="12" width="4" height="2" fill="black"></rect>
<rect x="13" y="8" width="2" height="4" fill="black"></rect>
<rect x="16" y="13" width="2" height="2" fill="black"></rect>
<rect x="14" y="15" width="2" height="6" fill="black"></rect>
<rect x="22" y="15" width="2" height="6" fill="black"></rect>
<rect x="18" y="11" width="2" height="2" fill="black"></rect>
<rect x="20" y="13" width="2" height="2" fill="black"></rect>
<rect x="16" y="19" width="6" height="2" fill="black"></rect>
<rect x="18" y="17" width="2" height="2" fill="black"></rect>
</svg>