<svg width="24" height="24" viewBox="0 0 24 24" fill="none" xmlns="http://www.w3.org">
<rect x="3" y="9" width="6" height="2" fill="black"></rect>
<rect x="5" y="7" width="2" height="2" fill="black"></rect>
<rect x="1" y="11" width="2" height="10" fill="black"></rect>
<rect x="3" y="19" width="6" height="2" fill="black"></rect>
<rect x="9" y="11" width="2" height="10" fill="black"></rect>
<g clip-path="url(#clip0_496_874)">
<rect x="17" y="11" width="2" height="8" fill="black"></rect>
<rect x="15" y="13" width="2" height="6" fill="black"></rect>
<rect x="19" y="13" width="2" height="2" fill="black"></rect>
<rect x="15" y="19" width="6" height="2" fill="black"></rect>
<rect x="13" y="15" width="2" height="4" fill="black"></rect>
<rect x="21" y="15" width="2" height="4" fill="black"></rect>
<rect x="19" y="17" width="2" height="2" fill="black"></rect>
</g>
<rect x="15" y="3" width="2" height="2" fill="black"></rect>
<rect x="17" y="5" width="2" height="4" fill="black"></rect>
<rect x="5" y="3" width="2" height="2" fill="black"></rect>
<rect x="9" y="3" width="4" height="2" fill="black"></rect>
<defs>
<clipPath id="clip0_496_874">
<rect width="10" height="10" fill="white" transform="translate(13 11)"></rect>
</clipPath>
</defs>
</svg>