<svg width="24" height="24" viewBox="0 0 24 24" fill="none" xmlns="http://www.w3.org">
<rect width="2" height="16" transform="matrix(-1 0 0 1 4 4)" fill="black"></rect>
<rect width="14" height="2" transform="matrix(-1 0 0 1 18 2)" fill="black"></rect>
<rect width="2" height="14" transform="matrix(-1 0 0 1 22 6)" fill="black"></rect>
<rect width="16" height="2" transform="matrix(-1 0 0 1 20 20)" fill="black"></rect>
<rect x="18" y="4" width="2" height="2" fill="black"></rect>
<rect x="14" y="4" width="2" height="4" fill="black"></rect>
<rect x="14" y="6" width="6" height="2" fill="black"></rect>
<rect x="8" y="14" width="2" height="2" fill="black"></rect>
<rect x="14" y="14" width="2" height="2" fill="black"></rect>
<rect x="10" y="16" width="4" height="2" fill="black"></rect>
<rect x="8" y="10" width="2" height="2" fill="black"></rect>
<rect x="14" y="10" width="2" height="2" fill="black"></rect>
</svg>