<?xml version="1.0" encoding="utf-8"?><!-- Uploaded to: SVG Repo, www.svgrepo.com, Generator: SVG Repo Mixer Tools -->
<svg width="800px" height="800px" viewBox="0 0 32 32" id="church_Dark" data-name="church/Dark" xmlns="http://www.w3.org/2000/svg">
  <path id="Path" d="M0,0H14V4H10V6h4v4H12v4H10v2H8v2H6v2H4v2H8v6H6v2H4v2H0Z" fill="#1a1a1a"/>
  <path id="Path-2" data-name="Path" d="M4,0H6V4h4V6H6v4H8v4h2v2H6v2H4V16H0V14H2V10H4V6H0V4H4Z" transform="translate(10)" fill="#ffffff"/>
  <path id="Path-3" data-name="Path" d="M0,0H16V32H10V30H8V28H6V22h4V20H8V18H6V16H4V14H2V10H0V6H4V4H0Z" transform="translate(16)" fill="#1a1a1a"/>
  <path id="Path-4" data-name="Path" d="M0,0H2V2H0Z" transform="translate(14 12)" fill="#1a1a1a"/>
  <path id="Path-5" data-name="Path" d="M0,0H2V2H0Z" transform="translate(8 16)" fill="#ffffff"/>
  <path id="Path-6" data-name="Path" d="M2,0H6V2H4V4H0V2H2Z" transform="translate(8 16)" fill="#1a1a1a"/>
  <path id="Path-7" data-name="Path" d="M0,0H4V2H6V4H2V2H0Z" transform="translate(16 16)" fill="#1a1a1a"/>
  <path id="Path-8" data-name="Path" d="M0,0H2V2H0Z" transform="translate(20 16)" fill="#ffffff"/>
  <path id="Path-9" data-name="Path" d="M2,0H4V2H8V0h2V2h2V0h2V2h4V0h2V2h2V4H18v6h2v2h2v2H0V12H2V10H4V4H0V2H2Z" transform="translate(4 18)" fill="#ffffff"/>
  <path id="Path-10" data-name="Path" d="M0,0H2V2H0Z" transform="translate(14 18)" fill="#1a1a1a"/>
  <path id="Path-11" data-name="Path" d="M0,0H2V6H0Z" transform="translate(10 22)" fill="#1a1a1a"/>
  <path id="Path-12" data-name="Path" d="M0,0H2V2H0Z" transform="translate(14 22)" fill="#1a1a1a"/>
  <path id="Path-13" data-name="Path" d="M0,0H2V6H0Z" transform="translate(18 22)" fill="#1a1a1a"/>
  <path id="Path-14" data-name="Path" d="M0,0H2V4H0Z" transform="translate(14 26)" fill="#1a1a1a"/>
</svg>