<?xml version="1.0" encoding="utf-8"?><!-- Uploaded to: SVG Repo, www.svgrepo.com, Generator: SVG Repo Mixer Tools -->
<svg width="800px" height="800px" viewBox="0 0 32 32" id="tigerface_Light" data-name="tigerface/Light" xmlns="http://www.w3.org/2000/svg">
  <path id="Path" d="M0,0H2V2H0Z" fill="#ffffff"/>
  <path id="Path-2" data-name="Path" d="M0,0H8V2h2V6h8V2h2V0h8V2H22V4H20V8H18v4H16V8H12v4H10V8H8V4H6V2H0Z" transform="translate(2)" fill="#1a1a1a"/>
  <path id="Path-3" data-name="Path" d="M0,0H12V2H10V6H2V2H0Z" transform="translate(10)" fill="#ffffff"/>
  <path id="Path-4" data-name="Path" d="M0,0H2V2H0Z" transform="translate(30)" fill="#ffffff"/>
  <path id="Path-5" data-name="Path" d="M0,0H2V6H0Z" transform="translate(0 2)" fill="#1a1a1a"/>
  <path id="Path-6" data-name="Path" d="M0,0H6V2H8V6h2v4h2V6h4v4h2V6h2V2h2V6h4V8H24v2h2v4H22v2H20v2h2v2h4V18H22V16h4V14h2v8H24v2H20v2H6V24H2V22H0V14H2V10H4V8H6V4H4V2H2V6H0Z" transform="translate(2 2)" fill="#ffffff"/>
  <path id="Path-7" data-name="Path" d="M0,0H6V6H4V2H0Z" transform="translate(24 2)" fill="#ffffff"/>
  <path id="Path-8" data-name="Path" d="M0,0H2V6H0Z" transform="translate(30 2)" fill="#1a1a1a"/>
  <path id="Path-9" data-name="Path" d="M0,0H2V2H4V6H2V4H0Z" transform="translate(4 4)" fill="#1a1a1a"/>
  <path id="Path-10" data-name="Path" d="M0,0H4V4H0Z" transform="translate(24 4)" fill="#1a1a1a"/>
  <path id="Path-11" data-name="Path" d="M0,0H2V2H4V4H2V8H0Z" transform="translate(0 8)" fill="#ffffff"/>
  <path id="Path-12" data-name="Path" d="M0,0H2V2H0Z" transform="translate(2 8)" fill="#1a1a1a"/>
  <path id="Path-13" data-name="Path" d="M0,0H2V2H0Z" transform="translate(4 8)" fill="#ffffff"/>
  <path id="Path-14" data-name="Path" d="M0,0H2V2H0Z" transform="translate(28 8)" fill="#1a1a1a"/>
  <path id="Path-15" data-name="Path" d="M2,0H4V8H2V4H0V2H2Z" transform="translate(28 8)" fill="#ffffff"/>
  <path id="Path-16" data-name="Path" d="M0,0H2V2H0Z" transform="translate(4 10)" fill="#1a1a1a"/>
  <path id="Path-17" data-name="Path" d="M0,0H2V2H0Z" transform="translate(26 10)" fill="#1a1a1a"/>
  <path id="Path-18" data-name="Path" d="M0,0H2V4H0Z" transform="translate(2 12)" fill="#1a1a1a"/>
  <path id="Path-19" data-name="Path" d="M0,0H2V4H0Z" transform="translate(28 12)" fill="#1a1a1a"/>
  <path id="Path-20" data-name="Path" d="M0,0H2V2H0Z" transform="translate(12 14)" fill="#1a1a1a"/>
  <path id="Path-21" data-name="Path" d="M0,0H2V2H0Z" transform="translate(16 14)" fill="#1a1a1a"/>
  <path id="Path-22" data-name="Path" d="M0,0H2V8H0Z" transform="translate(0 16)" fill="#1a1a1a"/>
  <path id="Path-23" data-name="Path" d="M0,0H4V2H0Z" transform="translate(4 16)" fill="#1a1a1a"/>
  <path id="Path-24" data-name="Path" d="M0,0H4V2H0Z" transform="translate(24 16)" fill="#1a1a1a"/>
  <path id="Path-25" data-name="Path" d="M0,0H2V8H0Z" transform="translate(30 16)" fill="#1a1a1a"/>
  <path id="Path-26" data-name="Path" d="M0,0H2V2H0Z" transform="translate(8 18)" fill="#1a1a1a"/>
  <path id="Path-27" data-name="Path" d="M0,0H6V2H4V4H2V2H0Z" transform="translate(12 18)" fill="#1a1a1a"/>
  <path id="Path-28" data-name="Path" d="M0,0H2V2H0Z" transform="translate(22 18)" fill="#1a1a1a"/>
  <path id="Path-29" data-name="Path" d="M0,0H4V2H0Z" transform="translate(4 20)" fill="#1a1a1a"/>
  <path id="Path-30" data-name="Path" d="M0,0H4V2H0Z" transform="translate(24 20)" fill="#1a1a1a"/>
  <path id="Path-31" data-name="Path" d="M0,0H2V2H0Z" transform="translate(10 22)" fill="#1a1a1a"/>
  <path id="Path-32" data-name="Path" d="M0,0H2V2H0Z" transform="translate(18 22)" fill="#1a1a1a"/>
  <path id="Path-33" data-name="Path" d="M0,0H2V2H4V4H8V6H22V4h4V2h4V0h2V8H0Z" transform="translate(0 24)" fill="#ffffff"/>
  <path id="Path-34" data-name="Path" d="M0,0H2V2H0Z" transform="translate(2 24)" fill="#1a1a1a"/>
  <path id="Path-35" data-name="Path" d="M0,0H6V2H0Z" transform="translate(12 24)" fill="#1a1a1a"/>
  <path id="Path-36" data-name="Path" d="M0,0H4V2H0Z" transform="translate(26 24)" fill="#1a1a1a"/>
  <path id="Path-37" data-name="Path" d="M0,0H4V2H0Z" transform="translate(4 26)" fill="#1a1a1a"/>
  <path id="Path-38" data-name="Path" d="M0,0H4V2H0Z" transform="translate(22 26)" fill="#1a1a1a"/>
  <path id="Path-39" data-name="Path" d="M0,0H14V2H0Z" transform="translate(8 28)" fill="#1a1a1a"/>
</svg>