<svg width="24" height="24" viewBox="0 0 24 24" fill="none" xmlns="http://www.w3.org/2000/svg">
<path d="M20 1.5V7.5H4V1.5C4 1.23478 4.10536 0.98043 4.29289 0.792893C4.48043 0.605357 4.73478 0.5 5 0.5H19C19.2652 0.5 19.5196 0.605357 19.7071 0.792893C19.8946 0.98043 20 1.23478 20 1.5Z" fill="#9FEAFF"/>
<path d="M4 1.5V7.5H7.4L14.4 0.5H5C4.73478 0.5 4.48043 0.605357 4.29289 0.792893C4.10536 0.98043 4 1.23478 4 1.5Z" fill="#DFF9FF"/>
<path d="M20 7.5V22.5C20 22.7652 19.8946 23.0196 19.7071 23.2071C19.5196 23.3946 19.2652 23.5 19 23.5H5C4.73478 23.5 4.48043 23.3946 4.29289 23.2071C4.10536 23.0196 4 22.7652 4 22.5V7.5H20Z" fill="#DFF9FF"/>
<path d="M19 21H5C4.73478 21 4.48043 20.8946 4.29289 20.7071C4.10536 20.5196 4 20.2652 4 20V22.5C4 22.7652 4.10536 23.0196 4.29289 23.2071C4.48043 23.3946 4.73478 23.5 5 23.5H19C19.2652 23.5 19.5196 23.3946 19.7071 23.2071C19.8946 23.0196 20 22.7652 20 22.5V20C20 20.2652 19.8946 20.5196 19.7071 20.7071C19.5196 20.8946 19.2652 21 19 21Z" fill="#9FEAFF"/>
<path d="M20 7.5V22.5C20 22.7652 19.8946 23.0196 19.7071 23.2071C19.5196 23.3946 19.2652 23.5 19 23.5H5C4.73478 23.5 4.48043 23.3946 4.29289 23.2071C4.10536 23.0196 4 22.7652 4 22.5V7.5H20Z" stroke="#00303E" stroke-linecap="round" stroke-linejoin="round"/>
<path d="M20 1.5V7.5H4V1.5C4 1.23478 4.10536 0.98043 4.29289 0.792893C4.48043 0.605357 4.73478 0.5 5 0.5H19C19.2652 0.5 19.5196 0.605357 19.7071 0.792893C19.8946 0.98043 20 1.23478 20 1.5Z" stroke="#00303E" stroke-linecap="round" stroke-linejoin="round"/>
<path d="M16 3.5V4.5" stroke="#00303E" stroke-linecap="round" stroke-linejoin="round"/>
<path d="M11 19.5H16.5" stroke="#00303E" stroke-linecap="round" stroke-linejoin="round"/>
<path d="M8 19.25C8.04945 19.25 8.09778 19.2647 8.13889 19.2921C8.18 19.3196 8.21205 19.3586 8.23097 19.4043C8.24989 19.45 8.25484 19.5003 8.2452 19.5488C8.23555 19.5973 8.21174 19.6418 8.17678 19.6768C8.14181 19.7117 8.09727 19.7355 8.04877 19.7452C8.00028 19.7548 7.95001 19.7499 7.90433 19.731C7.85865 19.712 7.8196 19.68 7.79213 19.6389C7.76466 19.5978 7.75 19.5494 7.75 19.5C7.75 19.4337 7.77634 19.3701 7.82322 19.3232C7.87011 19.2763 7.9337 19.25 8 19.25Z" stroke="#00303E" stroke-linecap="round" stroke-linejoin="round"/>
<path d="M8 15.25C8.04945 15.25 8.09778 15.2647 8.13889 15.2921C8.18 15.3196 8.21205 15.3586 8.23097 15.4043C8.24989 15.45 8.25484 15.5003 8.2452 15.5488C8.23555 15.5973 8.21174 15.6418 8.17678 15.6768C8.14181 15.7117 8.09727 15.7356 8.04877 15.7452C8.00028 15.7548 7.95001 15.7499 7.90433 15.731C7.85865 15.712 7.8196 15.68 7.79213 15.6389C7.76466 15.5978 7.75 15.5494 7.75 15.5C7.75 15.4337 7.77634 15.3701 7.82322 15.3232C7.87011 15.2763 7.9337 15.25 8 15.25Z" stroke="#00303E" stroke-linecap="round" stroke-linejoin="round"/>
<path d="M12 15.25C12.0494 15.25 12.0978 15.2647 12.1389 15.2921C12.18 15.3196 12.212 15.3586 12.231 15.4043C12.2499 15.45 12.2548 15.5003 12.2452 15.5488C12.2356 15.5973 12.2117 15.6418 12.1768 15.6768C12.1418 15.7117 12.0973 15.7356 12.0488 15.7452C12.0003 15.7548 11.95 15.7499 11.9043 15.731C11.8586 15.712 11.8196 15.68 11.7921 15.6389C11.7647 15.5978 11.75 15.5494 11.75 15.5C11.75 15.4337 11.7763 15.3701 11.8232 15.3232C11.8701 15.2763 11.9337 15.25 12 15.25Z" stroke="#00303E" stroke-linecap="round" stroke-linejoin="round"/>
<path d="M16 15.25C16.0494 15.25 16.0978 15.2647 16.1389 15.2921C16.18 15.3196 16.212 15.3586 16.231 15.4043C16.2499 15.45 16.2548 15.5003 16.2452 15.5488C16.2355 15.5973 16.2117 15.6418 16.1768 15.6768C16.1418 15.7117 16.0973 15.7356 16.0488 15.7452C16.0003 15.7548 15.95 15.7499 15.9043 15.731C15.8586 15.712 15.8196 15.68 15.7921 15.6389C15.7647 15.5978 15.75 15.5494 15.75 15.5C15.75 15.4337 15.7763 15.3701 15.8232 15.3232C15.8701 15.2763 15.9337 15.25 16 15.25Z" stroke="#00303E" stroke-linecap="round" stroke-linejoin="round"/>
<path d="M8 11.25C8.04945 11.25 8.09778 11.2647 8.13889 11.2921C8.18 11.3196 8.21205 11.3586 8.23097 11.4043C8.24989 11.45 8.25484 11.5003 8.2452 11.5488C8.23555 11.5973 8.21174 11.6418 8.17678 11.6768C8.14181 11.7117 8.09727 11.7356 8.04877 11.7452C8.00028 11.7548 7.95001 11.7499 7.90433 11.731C7.85865 11.712 7.8196 11.68 7.79213 11.6389C7.76466 11.5978 7.75 11.5494 7.75 11.5C7.75 11.4337 7.77634 11.3701 7.82322 11.3232C7.87011 11.2763 7.9337 11.25 8 11.25Z" stroke="#00303E" stroke-linecap="round" stroke-linejoin="round"/>
<path d="M12 11.25C12.0494 11.25 12.0978 11.2647 12.1389 11.2921C12.18 11.3196 12.212 11.3586 12.231 11.4043C12.2499 11.45 12.2548 11.5003 12.2452 11.5488C12.2356 11.5973 12.2117 11.6418 12.1768 11.6768C12.1418 11.7117 12.0973 11.7356 12.0488 11.7452C12.0003 11.7548 11.95 11.7499 11.9043 11.731C11.8586 11.712 11.8196 11.68 11.7921 11.6389C11.7647 11.5978 11.75 11.5494 11.75 11.5C11.75 11.4337 11.7763 11.3701 11.8232 11.3232C11.8701 11.2763 11.9337 11.25 12 11.25Z" stroke="#00303E" stroke-linecap="round" stroke-linejoin="round"/>
<path d="M16 11.25C16.0494 11.25 16.0978 11.2647 16.1389 11.2921C16.18 11.3196 16.212 11.3586 16.231 11.4043C16.2499 11.45 16.2548 11.5003 16.2452 11.5488C16.2355 11.5973 16.2117 11.6418 16.1768 11.6768C16.1418 11.7117 16.0973 11.7356 16.0488 11.7452C16.0003 11.7548 15.95 11.7499 15.9043 11.731C15.8586 11.712 15.8196 11.68 15.7921 11.6389C15.7647 11.5978 15.75 11.5494 15.75 11.5C15.75 11.4337 15.7763 11.3701 15.8232 11.3232C15.8701 11.2763 15.9337 11.25 16 11.25Z" stroke="#00303E" stroke-linecap="round" stroke-linejoin="round"/>
</svg>
