<svg width="24" height="24" viewBox="0 0 24 24" fill="none" xmlns="http://www.w3.org/2000/svg">
<path d="M3.12799 3.12799C3.12799 2.90388 3.21702 2.68895 3.37549 2.53048C3.53395 2.37202 3.74888 2.28299 3.97299 2.28299H20.027C20.2511 2.28299 20.466 2.37202 20.6245 2.53048C20.783 2.68895 20.872 2.90388 20.872 3.12799V20.872C20.872 21.0961 20.783 21.311 20.6245 21.4695C20.466 21.628 20.2511 21.717 20.027 21.717H3.97299C3.74888 21.717 3.53395 21.628 3.37549 21.4695C3.21702 21.311 3.12799 21.0961 3.12799 20.872V3.12799Z" fill="#DFF9FF"/>
<path d="M1.5 1.5C1.5 1.23478 1.60536 0.98043 1.79289 0.792893C1.98043 0.605357 2.23478 0.5 2.5 0.5H21.5C21.7652 0.5 22.0196 0.605357 22.2071 0.792893C22.3946 0.98043 22.5 1.23478 22.5 1.5V22.5C22.5 22.7652 22.3946 23.0196 22.2071 23.2071C22.0196 23.3946 21.7652 23.5 21.5 23.5H2.5C2.23478 23.5 1.98043 23.3946 1.79289 23.2071C1.60536 23.0196 1.5 22.7652 1.5 22.5V1.5Z" stroke="#00303E" stroke-linecap="round" stroke-linejoin="round"/>
<path d="M15.5 20.5V23.5" stroke="#00303E" stroke-linecap="round" stroke-linejoin="round"/>
<path d="M8.5 17.5V23.5" stroke="#00303E" stroke-linecap="round" stroke-linejoin="round"/>
<path d="M10.5 4.5C10.5 4.76522 10.3946 5.01957 10.2071 5.20711C10.0196 5.39464 9.76522 5.5 9.5 5.5H7.5C7.23478 5.5 6.98043 5.39464 6.79289 5.20711C6.60536 5.01957 6.5 4.76522 6.5 4.5C6.5 4.23478 6.60536 3.98043 6.79289 3.79289C6.98043 3.60536 7.23478 3.5 7.5 3.5H9.5C9.76522 3.5 10.0196 3.60536 10.2071 3.79289C10.3946 3.98043 10.5 4.23478 10.5 4.5Z" fill="#9FEAFF" stroke="#00303E" stroke-linecap="round" stroke-linejoin="round"/>
<path d="M10.5 6.5C10.5 6.76522 10.3946 7.01957 10.2071 7.20711C10.0196 7.39464 9.76522 7.5 9.5 7.5H7.5C7.23478 7.5 6.98043 7.39464 6.79289 7.20711C6.60536 7.01957 6.5 6.76522 6.5 6.5C6.5 6.23478 6.60536 5.98043 6.79289 5.79289C6.98043 5.60536 7.23478 5.5 7.5 5.5H9.5C9.76522 5.5 10.0196 5.60536 10.2071 5.79289C10.3946 5.98043 10.5 6.23478 10.5 6.5Z" fill="#9FEAFF" stroke="#00303E" stroke-linecap="round" stroke-linejoin="round"/>
<path d="M17.5 13.5C17.5 13.7652 17.3946 14.0196 17.2071 14.2071C17.0196 14.3946 16.7652 14.5 16.5 14.5H14.5C14.2348 14.5 13.9804 14.3946 13.7929 14.2071C13.6054 14.0196 13.5 13.7652 13.5 13.5C13.5 13.2348 13.6054 12.9804 13.7929 12.7929C13.9804 12.6054 14.2348 12.5 14.5 12.5H16.5C16.7652 12.5 17.0196 12.6054 17.2071 12.7929C17.3946 12.9804 17.5 13.2348 17.5 13.5Z" fill="#9FEAFF" stroke="#00303E" stroke-linecap="round" stroke-linejoin="round"/>
<path d="M17.5 19.5C17.5 19.7652 17.3946 20.0196 17.2071 20.2071C17.0196 20.3946 16.7652 20.5 16.5 20.5H14.5C14.2348 20.5 13.9804 20.3946 13.7929 20.2071C13.6054 20.0196 13.5 19.7652 13.5 19.5C13.5 19.2348 13.6054 18.9804 13.7929 18.7929C13.9804 18.6054 14.2348 18.5 14.5 18.5H16.5C16.7652 18.5 17.0196 18.6054 17.2071 18.7929C17.3946 18.9804 17.5 19.2348 17.5 19.5Z" fill="#9FEAFF" stroke="#00303E" stroke-linecap="round" stroke-linejoin="round"/>
<path d="M10.5 16.5C10.5 16.7652 10.3946 17.0196 10.2071 17.2071C10.0196 17.3946 9.76522 17.5 9.5 17.5H7.5C7.23478 17.5 6.98043 17.3946 6.79289 17.2071C6.60536 17.0196 6.5 16.7652 6.5 16.5C6.5 16.2348 6.60536 15.9804 6.79289 15.7929C6.98043 15.6054 7.23478 15.5 7.5 15.5H9.5C9.76522 15.5 10.0196 15.6054 10.2071 15.7929C10.3946 15.9804 10.5 16.2348 10.5 16.5Z" fill="#9FEAFF" stroke="#00303E" stroke-linecap="round" stroke-linejoin="round"/>
<path d="M17.5 4.5C17.5 4.76522 17.3946 5.01957 17.2071 5.20711C17.0196 5.39464 16.7652 5.5 16.5 5.5H14.5C14.2348 5.5 13.9804 5.39464 13.7929 5.20711C13.6054 5.01957 13.5 4.76522 13.5 4.5C13.5 4.23478 13.6054 3.98043 13.7929 3.79289C13.9804 3.60536 14.2348 3.5 14.5 3.5H16.5C16.7652 3.5 17.0196 3.60536 17.2071 3.79289C17.3946 3.98043 17.5 4.23478 17.5 4.5Z" fill="#9FEAFF" stroke="#00303E" stroke-linecap="round" stroke-linejoin="round"/>
<path d="M8.5 7.5V15.5" stroke="#00303E" stroke-linecap="round" stroke-linejoin="round"/>
<path d="M8.5 3.5V0.5" stroke="#00303E" stroke-linecap="round" stroke-linejoin="round"/>
<path d="M15.5 14.5V18.5" stroke="#00303E" stroke-linecap="round" stroke-linejoin="round"/>
<path d="M15.5 5.5V12.5" stroke="#00303E" stroke-linecap="round" stroke-linejoin="round"/>
<path d="M15.5 0.5V3.5" stroke="#00303E" stroke-linecap="round" stroke-linejoin="round"/>
</svg>
