<svg width="24" height="24" viewBox="0 0 24 24" fill="none" xmlns="http://www.w3.org/2000/svg">
<g clip-path="url(#clip0_3303_1497)">
<path d="M1.68397 11.377L11.27 1.78999C11.27 1.78999 11.977 1.08299 12.684 1.78999L22.269 11.376C22.269 11.376 22.976 12.083 22.269 12.79L12.684 22.375C12.684 22.375 11.977 23.082 11.27 22.375L1.68397 12.79C1.68397 12.79 0.976973 12.084 1.68397 11.377Z" fill="#9FEAFF"/>
<path d="M2.89302 14L11.269 5.623C11.3619 5.53003 11.4722 5.45627 11.5936 5.40594C11.715 5.35562 11.8451 5.32972 11.9765 5.32972C12.1079 5.32972 12.2381 5.35562 12.3595 5.40594C12.4809 5.45627 12.5911 5.53003 12.684 5.623L21.06 14L22.269 12.791C22.4565 12.6035 22.5618 12.3492 22.5618 12.084C22.5618 11.8188 22.4565 11.5645 22.269 11.377L12.684 1.792C12.5911 1.69903 12.4809 1.62527 12.3595 1.57495C12.2381 1.52462 12.1079 1.49872 11.9765 1.49872C11.8451 1.49872 11.715 1.52462 11.5936 1.57495C11.4722 1.62527 11.3619 1.69903 11.269 1.792L1.68402 11.377C1.49655 11.5645 1.39124 11.8188 1.39124 12.084C1.39124 12.3492 1.49655 12.6035 1.68402 12.791L2.89302 14Z" fill="#DFF9FF"/>
<path d="M1.68397 11.377L11.27 1.78999C11.27 1.78999 11.977 1.08299 12.684 1.78999L22.269 11.376C22.269 11.376 22.976 12.083 22.269 12.79L12.684 22.375C12.684 22.375 11.977 23.082 11.27 22.375L1.68397 12.79C1.68397 12.79 0.976973 12.084 1.68397 11.377Z" stroke="#00303E" stroke-linecap="round" stroke-linejoin="round"/>
<path d="M12 14.109V7.10901" stroke="#00303E" stroke-linecap="round" stroke-linejoin="round"/>
<path d="M11.987 16.109C11.9546 16.11 11.9228 16.1175 11.8933 16.1309C11.8639 16.1443 11.8373 16.1634 11.8153 16.1871C11.7933 16.2108 11.7761 16.2386 11.7649 16.269C11.7537 16.2994 11.7486 16.3317 11.75 16.364C11.7523 16.4296 11.7799 16.4918 11.8271 16.5375C11.8743 16.5832 11.9373 16.6088 12.003 16.609H12.012C12.0443 16.6078 12.076 16.6003 12.1054 16.5869C12.1349 16.5734 12.1613 16.5543 12.1833 16.5306C12.2053 16.507 12.2225 16.4792 12.2337 16.4489C12.245 16.4186 12.2502 16.3863 12.249 16.354C12.2467 16.2891 12.2196 16.2275 12.1733 16.1819C12.127 16.1363 12.0649 16.1102 12 16.109" stroke="#00303E" stroke-linecap="round" stroke-linejoin="round"/>
<path d="M12 16.109H11.991" stroke="#00303E" stroke-linecap="round" stroke-linejoin="round"/>
</g>
<defs>
<clipPath id="clip0_3303_1497">
<rect width="24" height="24" fill="white"/>
</clipPath>
</defs>
</svg>
