<svg width="24" height="24" viewBox="0 0 24 24" fill="none" xmlns="http://www.w3.org/2000/svg">
<g clip-path="url(#clip0_3303_2881)">
<path d="M0.5 16.5H18.5C18.7652 16.5 19.0196 16.6054 19.2071 16.7929C19.3946 16.9804 19.5 17.2348 19.5 17.5V19.5C19.5 19.7652 19.3946 20.0196 19.2071 20.2071C19.0196 20.3946 18.7652 20.5 18.5 20.5H0.5V16.5Z" fill="#9FEAFF"/>
<path d="M0.5 9.5H12.5C12.7652 9.5 13.0196 9.60536 13.2071 9.79289C13.3946 9.98043 13.5 10.2348 13.5 10.5V12.5C13.5 12.7652 13.3946 13.0196 13.2071 13.2071C13.0196 13.3946 12.7652 13.5 12.5 13.5H0.5V9.5Z" fill="#9FEAFF"/>
<path d="M0.5 2.5H12.5C12.7652 2.5 13.0196 2.60536 13.2071 2.79289C13.3946 2.98043 13.5 3.23478 13.5 3.5V5.5C13.5 5.76522 13.3946 6.01957 13.2071 6.20711C13.0196 6.39464 12.7652 6.5 12.5 6.5H0.5V2.5Z" fill="#9FEAFF"/>
<path d="M18.5 16.5H0.5V18.5H18.5C18.7652 18.5 19.0196 18.6054 19.2071 18.7929C19.3946 18.9804 19.5 19.2348 19.5 19.5V17.5C19.5 17.2348 19.3946 16.9804 19.2071 16.7929C19.0196 16.6054 18.7652 16.5 18.5 16.5Z" fill="#DFF9FF"/>
<path d="M12.5 9.5H0.5V11.5H12.5C12.7652 11.5 13.0196 11.6054 13.2071 11.7929C13.3946 11.9804 13.5 12.2348 13.5 12.5V10.5C13.5 10.2348 13.3946 9.98043 13.2071 9.79289C13.0196 9.60536 12.7652 9.5 12.5 9.5Z" fill="#DFF9FF"/>
<path d="M12.5 2.5H0.5V4.5H12.5C12.7652 4.5 13.0196 4.60536 13.2071 4.79289C13.3946 4.98043 13.5 5.23478 13.5 5.5V3.5C13.5 3.23478 13.3946 2.98043 13.2071 2.79289C13.0196 2.60536 12.7652 2.5 12.5 2.5Z" fill="#DFF9FF"/>
<path d="M0.5 0.5V23C0.5 23.1326 0.552678 23.2598 0.646447 23.3536C0.740215 23.4473 0.867392 23.5 1 23.5H23.5" stroke="#00303E" stroke-linecap="round" stroke-linejoin="round"/>
<path d="M0.5 16.5H18.5C18.7652 16.5 19.0196 16.6054 19.2071 16.7929C19.3946 16.9804 19.5 17.2348 19.5 17.5V19.5C19.5 19.7652 19.3946 20.0196 19.2071 20.2071C19.0196 20.3946 18.7652 20.5 18.5 20.5H0.5V16.5Z" stroke="#00303E" stroke-linecap="round" stroke-linejoin="round"/>
<path d="M0.5 9.5H12.5C12.7652 9.5 13.0196 9.60536 13.2071 9.79289C13.3946 9.98043 13.5 10.2348 13.5 10.5V12.5C13.5 12.7652 13.3946 13.0196 13.2071 13.2071C13.0196 13.3946 12.7652 13.5 12.5 13.5H0.5V9.5Z" stroke="#00303E" stroke-linecap="round" stroke-linejoin="round"/>
<path d="M0.5 2.5H12.5C12.7652 2.5 13.0196 2.60536 13.2071 2.79289C13.3946 2.98043 13.5 3.23478 13.5 3.5V5.5C13.5 5.76522 13.3946 6.01957 13.2071 6.20711C13.0196 6.39464 12.7652 6.5 12.5 6.5H0.5V2.5Z" stroke="#00303E" stroke-linecap="round" stroke-linejoin="round"/>
</g>
<defs>
<clipPath id="clip0_3303_2881">
<rect width="24" height="24" fill="white"/>
</clipPath>
</defs>
</svg>
