<svg width="24" height="24" viewBox="0 0 24 24" fill="none" xmlns="http://www.w3.org/2000/svg">
<path d="M22 5.99V20.5C21.9984 21.0299 21.7872 21.5377 21.4125 21.9125C21.0377 22.2872 20.5299 22.4984 20 22.5H4C3.46957 22.5 2.96086 22.2893 2.58579 21.9142C2.21071 21.5391 2 21.0304 2 20.5V14.5L5.65 10.48C6.05259 10.0731 6.56809 9.79645 7.12972 9.68591C7.69135 9.57537 8.27324 9.63601 8.8 9.86L10.19 10.53C10.7388 10.7556 11.3359 10.8381 11.9253 10.7699C12.5148 10.7017 13.0772 10.4849 13.56 10.14L15.43 8.64C16.4868 7.85757 17.6662 7.25605 18.92 6.86L22 5.99Z" fill="#9FEAFF" stroke="#00303E" stroke-linecap="round" stroke-linejoin="round"/>
<path d="M22 3.5V5.99L18.92 6.86C17.6662 7.25605 16.4868 7.85756 15.43 8.64L13.56 10.14C13.0772 10.4849 12.5148 10.7017 11.9253 10.7699C11.3359 10.8381 10.7388 10.7556 10.19 10.53L8.80001 9.86C8.27325 9.63601 7.69136 9.57536 7.12973 9.68591C6.5681 9.79645 6.0526 10.0731 5.65001 10.48L2.00001 14.5V3.5C1.99909 3.23709 2.05019 2.97661 2.15037 2.73354C2.25055 2.49047 2.39783 2.26962 2.58374 2.08372C2.76964 1.89782 2.99048 1.75054 3.23355 1.65035C3.47662 1.55017 3.73711 1.49907 4.00001 1.5H20C20.5304 1.5 21.0392 1.71071 21.4142 2.08578C21.7893 2.46086 22 2.96956 22 3.5Z" fill="#DFF9FF" stroke="#00303E" stroke-linecap="round" stroke-linejoin="round"/>
<path d="M7 9.716V22.5" stroke="#00303E" stroke-linecap="round" stroke-linejoin="round"/>
<path d="M12 10.766V22.5" stroke="#00303E" stroke-linecap="round" stroke-linejoin="round"/>
<path d="M17 7.656V22.493" stroke="#00303E" stroke-linecap="round" stroke-linejoin="round"/>
<path d="M2 14.5H22" stroke="#00303E" stroke-linecap="round" stroke-linejoin="round"/>
<path d="M12.967 10.5H22" stroke="#00303E" stroke-linecap="round" stroke-linejoin="round"/>
<path d="M2 18.5H22" stroke="#00303E" stroke-linecap="round" stroke-linejoin="round"/>
</svg>
