<svg width="24" height="24" viewBox="0 0 24 24" fill="none" xmlns="http://www.w3.org/2000/svg">
<g clip-path="url(#clip0_3303_2953)">
<path d="M13.5 10C13.5 10.1326 13.5527 10.2598 13.6464 10.3536C13.7402 10.4473 13.8674 10.5 14 10.5H23.5C23.5 7.84784 22.4464 5.3043 20.5711 3.42893C18.6957 1.55357 16.1522 0.5 13.5 0.5V10Z" fill="#9FEAFF" stroke="#00303E" stroke-linecap="round" stroke-linejoin="round"/>
<path d="M20.5759 19.571C21.5051 18.6431 22.2418 17.5408 22.7436 16.3273C23.2454 15.1138 23.5024 13.8131 23.4999 12.5H13.9999C13.7249 12.5 13.6589 12.659 13.8529 12.853L20.5759 19.571Z" fill="#DFF9FF"/>
<path d="M21 12.5C20.735 14.4091 19.921 16.2 18.657 17.655L20.574 19.571C21.5035 18.6433 22.2406 17.541 22.7427 16.3275C23.2449 15.114 23.5022 13.8133 23.5 12.5H21Z" fill="#9FEAFF"/>
<path d="M20.5759 19.571C21.5051 18.6431 22.2418 17.5408 22.7436 16.3273C23.2454 15.1138 23.5024 13.8131 23.4999 12.5H13.9999C13.7249 12.5 13.6589 12.659 13.8529 12.853L20.5759 19.571Z" stroke="#00303E" stroke-linecap="round" stroke-linejoin="round"/>
<path d="M10.5 3.5C8.8555 3.49998 7.23635 3.90553 5.78601 4.68074C4.33566 5.45594 3.09888 6.57687 2.18523 7.94423C1.27157 9.31159 0.709237 10.8832 0.548038 12.5198C0.386839 14.1564 0.63175 15.8075 1.26108 17.3268C1.8904 18.8462 2.88472 20.1868 4.15595 21.2301C5.42719 22.2734 6.93609 22.987 8.54902 23.3079C10.1619 23.6287 11.8291 23.5468 13.4028 23.0694C14.9765 22.592 16.4082 21.7339 17.571 20.571L10.853 13.853C10.6418 13.6171 10.5173 13.3162 10.5 13V3.5Z" fill="#DFF9FF"/>
<path d="M5.50003 18.23C4.26918 17.5192 3.20426 16.5538 2.37648 15.3984C1.54871 14.2429 0.97715 12.9241 0.700032 11.53C0.279629 13.6335 0.546797 15.8165 1.46209 17.7566C2.37737 19.6967 3.89227 21.291 5.78307 22.3041C7.67388 23.3173 9.84037 23.6956 11.9626 23.3832C14.0849 23.0707 16.0504 22.0841 17.569 20.569L15.321 18.32C13.8148 19.1519 12.1193 19.5807 10.3987 19.5649C8.67811 19.5492 6.99075 19.0893 5.50003 18.23Z" fill="#9FEAFF"/>
<path d="M10.5 3.5C8.8555 3.49998 7.23635 3.90553 5.78601 4.68074C4.33566 5.45594 3.09888 6.57687 2.18523 7.94423C1.27157 9.31159 0.709237 10.8832 0.548038 12.5198C0.386839 14.1564 0.63175 15.8075 1.26108 17.3268C1.8904 18.8462 2.88472 20.1868 4.15595 21.2301C5.42719 22.2734 6.93609 22.987 8.54902 23.3079C10.1619 23.6287 11.8291 23.5468 13.4028 23.0694C14.9765 22.592 16.4082 21.7339 17.571 20.571L10.853 13.853C10.6418 13.6171 10.5173 13.3162 10.5 13V3.5Z" stroke="#00303E" stroke-linecap="round" stroke-linejoin="round"/>
</g>
<defs>
<clipPath id="clip0_3303_2953">
<rect width="24" height="24" fill="white"/>
</clipPath>
</defs>
</svg>
