<svg width="24" height="24" viewBox="0 0 24 24" fill="none" xmlns="http://www.w3.org/2000/svg">
<path d="M6.5 7H21.5C21.5 7 23.5 7 23.5 9V19C23.5 19 23.5 21 21.5 21H6.5C6.5 21 4.5 21 4.5 19V9C4.5 9 4.5 7 6.5 7Z" fill="#DFF9FF"/>
<path d="M4.5 5H19.5C19.5 5 21.5 5 21.5 7V17C21.5 17 21.5 19 19.5 19H4.5C4.5 19 2.5 19 2.5 17V7C2.5 7 2.5 5 4.5 5Z" fill="#DFF9FF"/>
<path d="M19.5 7V15C19.5 15.5304 19.2893 16.0391 18.9142 16.4142C18.5391 16.7893 18.0304 17 17.5 17H2.5C1.96957 17 1.46086 16.7893 1.08579 16.4142C0.710714 16.0391 0.5 15.5304 0.5 15V7H19.5Z" fill="#9FEAFF"/>
<path d="M2.5 17H5L15 7H0.5V15C0.5 15.5304 0.710714 16.0391 1.08579 16.4142C1.46086 16.7893 1.96957 17 2.5 17Z" fill="#DFF9FF"/>
<path d="M19.5 7H0.5V5C0.5 4.46957 0.710714 3.96086 1.08579 3.58579C1.46086 3.21071 1.96957 3 2.5 3H17.5C18.0304 3 18.5391 3.21071 18.9142 3.58579C19.2893 3.96086 19.5 4.46957 19.5 5V7Z" fill="white"/>
<path d="M0.5 7.00403H19.5" stroke="#00303E" stroke-linecap="round" stroke-linejoin="round"/>
<path d="M3.50003 4.754C3.45041 4.75401 3.40192 4.76877 3.36073 4.79643C3.31954 4.82408 3.2875 4.86336 3.2687 4.90928C3.2499 4.95519 3.24519 5.00566 3.25517 5.05426C3.26514 5.10286 3.28935 5.1474 3.32472 5.1822C3.36008 5.217 3.405 5.24048 3.45375 5.24967C3.50251 5.25886 3.5529 5.25334 3.5985 5.2338C3.64411 5.21427 3.68287 5.1816 3.70985 5.13997C3.73684 5.09833 3.75082 5.04961 3.75003 5C3.75003 4.9337 3.72369 4.87011 3.67681 4.82322C3.62992 4.77634 3.56633 4.75 3.50003 4.75" stroke="#00303E" stroke-linecap="round" stroke-linejoin="round"/>
<path d="M5.50003 4.754C5.45041 4.75401 5.40192 4.76877 5.36073 4.79643C5.31954 4.82408 5.2875 4.86336 5.2687 4.90928C5.2499 4.95519 5.24519 5.00566 5.25517 5.05426C5.26514 5.10286 5.28935 5.1474 5.32472 5.1822C5.36008 5.217 5.405 5.24048 5.45375 5.24967C5.50251 5.25886 5.5529 5.25334 5.5985 5.2338C5.64411 5.21427 5.68287 5.1816 5.70985 5.13997C5.73684 5.09833 5.75082 5.04961 5.75003 5C5.75003 4.9337 5.72369 4.87011 5.67681 4.82322C5.62992 4.77634 5.56633 4.75 5.50003 4.75" stroke="#00303E" stroke-linecap="round" stroke-linejoin="round"/>
<path d="M7.50003 4.754C7.45041 4.75401 7.40192 4.76877 7.36073 4.79643C7.31954 4.82408 7.2875 4.86336 7.2687 4.90928C7.2499 4.95519 7.24519 5.00566 7.25517 5.05426C7.26514 5.10286 7.28935 5.1474 7.32472 5.1822C7.36008 5.217 7.405 5.24048 7.45375 5.24967C7.50251 5.25886 7.5529 5.25334 7.5985 5.2338C7.64411 5.21427 7.68287 5.1816 7.70985 5.13997C7.73684 5.09833 7.75082 5.04961 7.75003 5C7.75003 4.9337 7.72369 4.87011 7.67681 4.82322C7.62992 4.77634 7.56633 4.75 7.50003 4.75" stroke="#00303E" stroke-linecap="round" stroke-linejoin="round"/>
<path d="M2.5 3.00403H17.5C17.5 3.00403 19.5 3.00403 19.5 5.00403V15.004C19.5 15.004 19.5 17.004 17.5 17.004H2.5C2.5 17.004 0.5 17.004 0.5 15.004V5.00403C0.5 5.00403 0.5 3.00403 2.5 3.00403Z" stroke="#00303E" stroke-linecap="round" stroke-linejoin="round"/>
<path d="M19.5 5C20.0304 5 20.5391 5.21071 20.9142 5.58579C21.2893 5.96086 21.5 6.46957 21.5 7V17C21.5 17.5304 21.2893 18.0391 20.9142 18.4142C20.5391 18.7893 20.0304 19 19.5 19H4.5C3.96957 19 3.46086 18.7893 3.08579 18.4142C2.71071 18.0391 2.5 17.5304 2.5 17" stroke="#00303E" stroke-linecap="round" stroke-linejoin="round"/>
<path d="M21.5 7C22.0304 7 22.5391 7.21071 22.9142 7.58579C23.2893 7.96086 23.5 8.46957 23.5 9V19C23.5 19.5304 23.2893 20.0391 22.9142 20.4142C22.5391 20.7893 22.0304 21 21.5 21H6.5C5.96957 21 5.46086 20.7893 5.08579 20.4142C4.71071 20.0391 4.5 19.5304 4.5 19" stroke="#00303E" stroke-linecap="round" stroke-linejoin="round"/>
</svg>
