<svg width="24" height="24" viewBox="0 0 24 24" fill="none" xmlns="http://www.w3.org/2000/svg">
<path d="M23.5 7V20C23.5 20.5304 23.2893 21.0391 22.9142 21.4142C22.5391 21.7893 22.0304 22 21.5 22H2.5C1.96957 22 1.46086 21.7893 1.08579 21.4142C0.710714 21.0391 0.5 20.5304 0.5 20V7H23.5Z" fill="#9FEAFF"/>
<path d="M2.5 22H4.5L19.5 7H0.5V20C0.5 20.5304 0.710714 21.0391 1.08579 21.4142C1.46086 21.7893 1.96957 22 2.5 22Z" fill="#DFF9FF"/>
<path d="M13 14.5C13.0007 13.6866 12.8026 12.8853 12.423 12.1659C12.0434 11.4464 11.4938 10.8306 10.822 10.372L8 14.5L11.205 18.337C11.7674 17.8684 12.2198 17.2817 12.5301 16.6185C12.8403 15.9554 13.0007 15.2321 13 14.5Z" fill="#9FEAFF"/>
<path d="M10.822 10.372C10.0708 9.8584 9.19365 9.55954 8.28512 9.50765C7.3766 9.45576 6.47114 9.65279 5.66633 10.0775C4.86152 10.5023 4.18789 11.1386 3.71803 11.9179C3.24817 12.6972 2.99991 13.59 3 14.5H8L10.822 10.372Z" fill="#DFF9FF"/>
<path d="M3 14.5C3.00013 15.4507 3.27132 16.3817 3.78176 17.1838C4.2922 17.9859 5.02074 18.6258 5.88195 19.0285C6.74316 19.4313 7.70134 19.5801 8.64414 19.4576C9.58694 19.3352 10.4753 18.9464 11.205 18.337L8 14.5H3Z" fill="#9FEAFF"/>
<path d="M23.5 6.5H0.5V3.5C0.5 2.96957 0.710714 2.46086 1.08579 2.08579C1.46086 1.71071 1.96957 1.5 2.5 1.5H21.5C22.0304 1.5 22.5391 1.71071 22.9142 2.08579C23.2893 2.46086 23.5 2.96957 23.5 3.5V6.5Z" fill="white"/>
<path d="M2.5 1.50403H21.5C21.5 1.50403 23.5 1.50403 23.5 3.50403V20.504C23.5 20.504 23.5 22.504 21.5 22.504H2.5C2.5 22.504 0.5 22.504 0.5 20.504V3.50403C0.5 3.50403 0.5 1.50403 2.5 1.50403Z" stroke="#00303E" stroke-linecap="round" stroke-linejoin="round"/>
<path d="M0.5 6.50403H23.5" stroke="#00303E" stroke-linecap="round" stroke-linejoin="round"/>
<path d="M3.99997 3.75403C4.04959 3.75403 4.09808 3.7688 4.13927 3.79645C4.18046 3.82411 4.2125 3.86339 4.2313 3.9093C4.2501 3.95522 4.25481 4.00569 4.24483 4.05429C4.23486 4.10289 4.21065 4.14743 4.17528 4.18222C4.13992 4.21702 4.095 4.24051 4.04625 4.2497C3.99749 4.25889 3.9471 4.25337 3.9015 4.23383C3.85589 4.21429 3.81713 4.18163 3.79015 4.13999C3.76316 4.09836 3.74918 4.04964 3.74997 4.00003C3.75102 3.93442 3.77782 3.87185 3.82459 3.82583C3.87136 3.77981 3.93435 3.75402 3.99997 3.75403Z" stroke="#00303E" stroke-linecap="round" stroke-linejoin="round"/>
<path d="M6.99997 3.75403C7.04959 3.75403 7.09808 3.7688 7.13927 3.79645C7.18046 3.82411 7.2125 3.86339 7.2313 3.9093C7.2501 3.95522 7.25481 4.00569 7.24483 4.05429C7.23486 4.10289 7.21065 4.14743 7.17528 4.18222C7.13992 4.21702 7.095 4.24051 7.04625 4.2497C6.99749 4.25889 6.9471 4.25337 6.9015 4.23383C6.85589 4.21429 6.81713 4.18163 6.79015 4.13999C6.76316 4.09836 6.74918 4.04964 6.74997 4.00003C6.75102 3.93442 6.77782 3.87185 6.82459 3.82583C6.87136 3.77981 6.93435 3.75402 6.99997 3.75403Z" stroke="#00303E" stroke-linecap="round" stroke-linejoin="round"/>
<path d="M9.99997 3.754C10.0496 3.75401 10.0981 3.76877 10.1393 3.79643C10.1805 3.82408 10.2125 3.86336 10.2313 3.90928C10.2501 3.95519 10.2548 4.00566 10.2448 4.05426C10.2349 4.10286 10.2106 4.1474 10.1753 4.1822C10.1399 4.217 10.095 4.24048 10.0462 4.24967C9.99749 4.25886 9.9471 4.25334 9.9015 4.2338C9.85589 4.21427 9.81713 4.1816 9.79015 4.13997C9.76316 4.09833 9.74918 4.04961 9.74997 4C9.74997 3.9337 9.77631 3.87011 9.82319 3.82322C9.87008 3.77634 9.93367 3.75 9.99997 3.75" stroke="#00303E" stroke-linecap="round" stroke-linejoin="round"/>
<path d="M3 14.504C3 15.8301 3.52678 17.1019 4.46447 18.0396C5.40215 18.9772 6.67392 19.504 8 19.504C9.32608 19.504 10.5979 18.9772 11.5355 18.0396C12.4732 17.1019 13 15.8301 13 14.504C13 13.1779 12.4732 11.9062 11.5355 10.9685C10.5979 10.0308 9.32608 9.50403 8 9.50403C6.67392 9.50403 5.40215 10.0308 4.46447 10.9685C3.52678 11.9062 3 13.1779 3 14.504Z" stroke="#00303E" stroke-linecap="round" stroke-linejoin="round"/>
<path d="M10.821 10.376L8 14.504L11.205 18.341" stroke="#00303E" stroke-linecap="round" stroke-linejoin="round"/>
<path d="M8 14.504H3" stroke="#00303E" stroke-linecap="round" stroke-linejoin="round"/>
<path d="M15 10.504H21" stroke="#00303E" stroke-linecap="round" stroke-linejoin="round"/>
<path d="M15 13.504H21" stroke="#00303E" stroke-linecap="round" stroke-linejoin="round"/>
<path d="M15 16.504H21" stroke="#00303E" stroke-linecap="round" stroke-linejoin="round"/>
</svg>
