<svg width="24" height="24" viewBox="0 0 24 24" fill="none" xmlns="http://www.w3.org/2000/svg">
<path d="M6.5 0.741028C6.23478 0.741028 5.98043 0.846385 5.79289 1.03392C5.60536 1.22146 5.5 1.47581 5.5 1.74103V22.741C5.5 23.291 5.818 23.422 6.207 23.034L8.5 20.741V0.741028H6.5Z" fill="#9FEAFF"/>
<path d="M5.5 1.74103V3.74103H8.5V0.741028H6.5C6.23478 0.741028 5.98043 0.846385 5.79289 1.03392C5.60536 1.22146 5.5 1.47581 5.5 1.74103Z" fill="#DFF9FF"/>
<path d="M6.5 0.741028C6.23478 0.741028 5.98043 0.846385 5.79289 1.03392C5.60536 1.22146 5.5 1.47581 5.5 1.74103V22.741C5.5 23.291 5.818 23.422 6.207 23.034L8.5 20.741V0.741028H6.5Z" stroke="#00303E" stroke-linecap="round" stroke-linejoin="round"/>
<path d="M17.5 0.741028H15.5V20.741L17.793 23.034C18.182 23.422 18.5 23.291 18.5 22.741V1.74103C18.5 1.47581 18.3946 1.22146 18.2071 1.03392C18.0196 0.846385 17.7652 0.741028 17.5 0.741028Z" fill="#9FEAFF"/>
<path d="M18.5 1.74103V3.74103H15.5V0.741028H17.5C17.7652 0.741028 18.0196 0.846385 18.2071 1.03392C18.3946 1.22146 18.5 1.47581 18.5 1.74103Z" fill="#DFF9FF"/>
<path d="M17.5 0.741028H15.5V20.741L17.793 23.034C18.182 23.422 18.5 23.291 18.5 22.741V1.74103C18.5 1.47581 18.3946 1.22146 18.2071 1.03392C18.0196 0.846385 17.7652 0.741028 17.5 0.741028Z" stroke="#00303E" stroke-linecap="round" stroke-linejoin="round"/>
<path d="M8.5 0.741028V20.741L12 17.241L15.5 20.741V0.741028H8.5Z" fill="#9FEAFF"/>
<path d="M8.5 0.741028H15.5V3.74103H8.5V0.741028Z" fill="#DFF9FF"/>
<path d="M8.5 0.741028V20.741L12 17.241L15.5 20.741V0.741028H8.5Z" stroke="#00303E" stroke-linecap="round" stroke-linejoin="round"/>
</svg>
