<svg width="24" height="24" viewBox="0 0 24 24" fill="none" xmlns="http://www.w3.org/2000/svg">
<g clip-path="url(#clip0_3303_10578)">
<path d="M23.079 1.5V5.5C23.0799 5.7629 23.0288 6.02339 22.9286 6.26646C22.8285 6.50953 22.6812 6.73037 22.4953 6.91628C22.3094 7.10218 22.0885 7.24946 21.8455 7.34964C21.6024 7.44982 21.3419 7.50093 21.079 7.5H19.079C18.5486 7.5 18.0399 7.28929 17.6648 6.91421C17.2897 6.53914 17.079 6.03043 17.079 5.5V1.5H23.079Z" fill="white"/>
<path d="M23.079 19.5V22C23.079 23.1 22.179 23.5 21.079 23.5H19.079C17.979 23.5 17.079 23.1 17.079 22V19.5H23.079Z" fill="#9FEAFF"/>
<path d="M17.079 17.501H23.079V19.501H17.079V17.501Z" fill="#9FEAFF"/>
<path d="M17.079 13.501H23.079V17.501H17.079V13.501Z" fill="#9FEAFF"/>
<path d="M17.079 11.501H23.079V13.501H17.079V11.501Z" fill="#9FEAFF"/>
<path d="M23.079 5.5V11.5H17.079V5.5C17.079 6.03043 17.2897 6.53914 17.6648 6.91421C18.0399 7.28929 18.5486 7.5 19.079 7.5H21.079C21.3419 7.50093 21.6024 7.44983 21.8455 7.34964C22.0885 7.24946 22.3094 7.10218 22.4953 6.91628C22.6812 6.73037 22.8285 6.50953 22.9286 6.26646C23.0288 6.02339 23.0799 5.7629 23.079 5.5Z" fill="#9FEAFF"/>
<path d="M15.079 1.5V5.5C15.0799 5.7629 15.0288 6.02339 14.9286 6.26646C14.8285 6.50953 14.6812 6.73037 14.4953 6.91628C14.3094 7.10218 14.0885 7.24946 13.8455 7.34964C13.6024 7.44982 13.3419 7.50093 13.079 7.5H11.079C10.5486 7.5 10.0399 7.28929 9.66478 6.91421C9.28971 6.53914 9.07899 6.03043 9.07899 5.5V1.5H15.079Z" fill="white"/>
<path d="M15.079 19.5V22C15.079 23.1 14.179 23.5 13.079 23.5H11.079C9.97899 23.5 9.07899 23.1 9.07899 22V19.5H15.079Z" fill="#9FEAFF"/>
<path d="M9.07899 17.501H15.079V19.501H9.07899V17.501Z" fill="#9FEAFF"/>
<path d="M9.07899 13.501H15.079V17.501H9.07899V13.501Z" fill="#9FEAFF"/>
<path d="M9.07899 11.501H15.079V13.501H9.07899V11.501Z" fill="#9FEAFF"/>
<path d="M15.079 5.5V11.5H9.07899V5.5C9.07899 6.03043 9.28971 6.53914 9.66478 6.91421C10.0399 7.28929 10.5486 7.5 11.079 7.5H13.079C13.3419 7.50093 13.6024 7.44983 13.8455 7.34964C14.0885 7.24946 14.3094 7.10218 14.4953 6.91628C14.6812 6.73037 14.8285 6.50953 14.9286 6.26646C15.0288 6.02339 15.0799 5.7629 15.079 5.5Z" fill="#9FEAFF"/>
<path d="M7.07899 1.5V5.5C7.07992 5.7629 7.02882 6.02339 6.92864 6.26646C6.82846 6.50953 6.68117 6.73037 6.49527 6.91628C6.30937 7.10218 6.08852 7.24946 5.84545 7.34964C5.60239 7.44982 5.3419 7.50093 5.07899 7.5H3.07899C2.54856 7.5 2.03985 7.28929 1.66478 6.91421C1.28971 6.53914 1.07899 6.03043 1.07899 5.5V1.5H7.07899Z" fill="white"/>
<path d="M7.07899 19.5V22C7.07899 23.1 6.17899 23.5 5.07899 23.5H3.07899C1.97899 23.5 1.07899 23.1 1.07899 22V19.5H7.07899Z" fill="#9FEAFF"/>
<path d="M1.07899 17.501H7.07899V19.501H1.07899V17.501Z" fill="#9FEAFF"/>
<path d="M1.07899 13.501H7.07899V17.501H1.07899V13.501Z" fill="#9FEAFF"/>
<path d="M1.07899 11.501H7.07899V13.501H1.07899V11.501Z" fill="#9FEAFF"/>
<path d="M7.07899 5.5V11.5H1.07899V5.5C1.07899 6.03043 1.28971 6.53914 1.66478 6.91421C2.03985 7.28929 2.54856 7.5 3.07899 7.5H5.07899C5.3419 7.50093 5.60239 7.44983 5.84545 7.34964C6.08852 7.24946 6.30937 7.10218 6.49527 6.91628C6.68117 6.73037 6.82846 6.50953 6.92864 6.26646C7.02882 6.02339 7.07992 5.7629 7.07899 5.5Z" fill="#9FEAFF"/>
<path d="M1.07899 0.5V5.5C1.07899 6.03043 1.28971 6.53914 1.66478 6.91421C2.03985 7.28929 2.54856 7.5 3.07899 7.5H5.07899C5.60943 7.5 6.11814 7.28929 6.49321 6.91421C6.86828 6.53914 7.07899 6.03043 7.07899 5.5V0.5" stroke="#00303E" stroke-linecap="round" stroke-linejoin="round"/>
<path d="M1.07899 4V22C1.07899 23.1 1.97899 23.5 3.07899 23.5H5.07899C6.17899 23.5 7.07899 23.1 7.07899 22V4" stroke="#00303E" stroke-linecap="round" stroke-linejoin="round"/>
<path d="M9.07899 0.5V5.5C9.07899 6.03043 9.28971 6.53914 9.66478 6.91421C10.0399 7.28929 10.5486 7.5 11.079 7.5H13.079C13.6094 7.5 14.1181 7.28929 14.4932 6.91421C14.8683 6.53914 15.079 6.03043 15.079 5.5V0.5" stroke="#00303E" stroke-linecap="round" stroke-linejoin="round"/>
<path d="M9.07899 4V22C9.07899 23.1 9.97899 23.5 11.079 23.5H13.079C14.179 23.5 15.079 23.1 15.079 22V4" stroke="#00303E" stroke-linecap="round" stroke-linejoin="round"/>
<path d="M17.079 0.5V5.5C17.079 6.03043 17.2897 6.53914 17.6648 6.91421C18.0399 7.28929 18.5486 7.5 19.079 7.5H21.079C21.6094 7.5 22.1181 7.28929 22.4932 6.91421C22.8683 6.53914 23.079 6.03043 23.079 5.5V0.5" stroke="#00303E" stroke-linecap="round" stroke-linejoin="round"/>
<path d="M17.079 4V22C17.079 23.1 17.979 23.5 19.079 23.5H21.079C22.179 23.5 23.079 23.1 23.079 22V4" stroke="#00303E" stroke-linecap="round" stroke-linejoin="round"/>
<path d="M7.07899 19.5H1.07899" stroke="#00303E" stroke-linecap="round" stroke-linejoin="round"/>
<path d="M7.07899 17.5H1.07899" stroke="#00303E" stroke-linecap="round" stroke-linejoin="round"/>
<path d="M15.079 19.5H9.07899" stroke="#00303E" stroke-linecap="round" stroke-linejoin="round"/>
<path d="M15.079 17.5H9.07899" stroke="#00303E" stroke-linecap="round" stroke-linejoin="round"/>
<path d="M23.079 19.5H17.079" stroke="#00303E" stroke-linecap="round" stroke-linejoin="round"/>
<path d="M23.079 17.5H17.079" stroke="#00303E" stroke-linecap="round" stroke-linejoin="round"/>
<path d="M7.07899 13.5H1.07899" stroke="#00303E" stroke-linecap="round" stroke-linejoin="round"/>
<path d="M7.07899 11.5H1.07899" stroke="#00303E" stroke-linecap="round" stroke-linejoin="round"/>
<path d="M15.079 13.5H9.07899" stroke="#00303E" stroke-linecap="round" stroke-linejoin="round"/>
<path d="M15.079 11.5H9.07899" stroke="#00303E" stroke-linecap="round" stroke-linejoin="round"/>
<path d="M23.079 13.5H17.079" stroke="#00303E" stroke-linecap="round" stroke-linejoin="round"/>
<path d="M23.079 11.5H17.079" stroke="#00303E" stroke-linecap="round" stroke-linejoin="round"/>
<path d="M3.07899 5.5V1.5" stroke="#00303E" stroke-linecap="round" stroke-linejoin="round"/>
<path d="M5.07899 5.5V1.5" stroke="#00303E" stroke-linecap="round" stroke-linejoin="round"/>
<path d="M11.079 5.5V1.5" stroke="#00303E" stroke-linecap="round" stroke-linejoin="round"/>
<path d="M13.079 5.5V1.5" stroke="#00303E" stroke-linecap="round" stroke-linejoin="round"/>
<path d="M19.079 5.5V1.5" stroke="#00303E" stroke-linecap="round" stroke-linejoin="round"/>
<path d="M21.079 5.5V1.5" stroke="#00303E" stroke-linecap="round" stroke-linejoin="round"/>
</g>
<defs>
<clipPath id="clip0_3303_10578">
<rect width="24" height="24" fill="white"/>
</clipPath>
</defs>
</svg>
