<svg width="24" height="24" viewBox="0 0 24 24" fill="none" xmlns="http://www.w3.org/2000/svg">
<path d="M23.5 8V19C23.5 19.5304 23.2893 20.0391 22.9142 20.4142C22.5391 20.7893 22.0304 21 21.5 21H2.5C1.96957 21 1.46086 20.7893 1.08579 20.4142C0.710714 20.0391 0.5 19.5304 0.5 19V8H23.5Z" fill="#9FEAFF"/>
<path d="M2.5 21H5.5L18.5 8H0.5V19C0.5 19.5304 0.710714 20.0391 1.08579 20.4142C1.46086 20.7893 1.96957 21 2.5 21Z" fill="#DFF9FF"/>
<path d="M23.5 8H0.5V5C0.5 4.46957 0.710714 3.96086 1.08579 3.58579C1.46086 3.21071 1.96957 3 2.5 3H21.5C22.0304 3 22.5391 3.21071 22.9142 3.58579C23.2893 3.96086 23.5 4.46957 23.5 5V8Z" fill="white"/>
<path d="M2.5 3H21.5C21.5 3 23.5 3 23.5 5V19C23.5 19 23.5 21 21.5 21H2.5C2.5 21 0.5 21 0.5 19V5C0.5 5 0.5 3 2.5 3Z" stroke="#00303E" stroke-linecap="round" stroke-linejoin="round"/>
<path d="M0.5 8H23.5" stroke="#00303E" stroke-linecap="round" stroke-linejoin="round"/>
<path d="M4 5.25C4.04945 5.25 4.09778 5.26466 4.13889 5.29213C4.18 5.3196 4.21205 5.35865 4.23097 5.40433C4.24989 5.45001 4.25484 5.50028 4.2452 5.54877C4.23555 5.59727 4.21174 5.64181 4.17678 5.67678C4.14181 5.71174 4.09727 5.73555 4.04877 5.7452C4.00028 5.75484 3.95001 5.74989 3.90433 5.73097C3.85865 5.71205 3.8196 5.68 3.79213 5.63889C3.76466 5.59778 3.75 5.54945 3.75 5.5C3.75 5.4337 3.77634 5.37011 3.82322 5.32322C3.87011 5.27634 3.9337 5.25 4 5.25Z" stroke="#00303E" stroke-linecap="round" stroke-linejoin="round"/>
<path d="M7 5.25C7.04945 5.25 7.09778 5.26466 7.13889 5.29213C7.18 5.3196 7.21205 5.35865 7.23097 5.40433C7.24989 5.45001 7.25484 5.50028 7.2452 5.54877C7.23555 5.59727 7.21174 5.64181 7.17678 5.67678C7.14181 5.71174 7.09727 5.73555 7.04877 5.7452C7.00028 5.75484 6.95001 5.74989 6.90433 5.73097C6.85865 5.71205 6.8196 5.68 6.79213 5.63889C6.76466 5.59778 6.75 5.54945 6.75 5.5C6.75 5.4337 6.77634 5.37011 6.82322 5.32322C6.87011 5.27634 6.9337 5.25 7 5.25Z" stroke="#00303E" stroke-linecap="round" stroke-linejoin="round"/>
<path d="M10 5.25C10.0494 5.25 10.0978 5.26466 10.1389 5.29213C10.18 5.3196 10.212 5.35865 10.231 5.40433C10.2499 5.45001 10.2548 5.50028 10.2452 5.54877C10.2356 5.59727 10.2117 5.64181 10.1768 5.67678C10.1418 5.71174 10.0973 5.73555 10.0488 5.7452C10.0003 5.75484 9.95001 5.74989 9.90433 5.73097C9.85865 5.71205 9.8196 5.68 9.79213 5.63889C9.76466 5.59778 9.75 5.54945 9.75 5.5C9.75 5.4337 9.77634 5.37011 9.82322 5.32322C9.87011 5.27634 9.9337 5.25 10 5.25Z" stroke="#00303E" stroke-linecap="round" stroke-linejoin="round"/>
<path d="M5 16.25C5.04945 16.25 5.09778 16.2647 5.13889 16.2921C5.18 16.3196 5.21205 16.3586 5.23097 16.4043C5.24989 16.45 5.25484 16.5003 5.2452 16.5488C5.23555 16.5973 5.21174 16.6418 5.17678 16.6768C5.14181 16.7117 5.09727 16.7355 5.04877 16.7452C5.00028 16.7548 4.95001 16.7499 4.90433 16.731C4.85865 16.712 4.8196 16.68 4.79213 16.6389C4.76466 16.5978 4.75 16.5494 4.75 16.5C4.75 16.4337 4.77634 16.3701 4.82322 16.3232C4.87011 16.2763 4.9337 16.25 5 16.25Z" stroke="#00303E" stroke-linecap="round" stroke-linejoin="round"/>
<path d="M9.5 12C8.96957 12 8.46086 12.2107 8.08579 12.5858C7.71071 12.9609 7.5 13.4696 7.5 14V15C7.5 15.5304 7.71071 16.0391 8.08579 16.4142C8.46086 16.7893 8.96957 17 9.5 17" stroke="#00303E" stroke-linecap="round" stroke-linejoin="round"/>
<path d="M12.5 12C12.2348 12 11.9804 12.1054 11.7929 12.2929C11.6054 12.4804 11.5 12.7348 11.5 13V16C11.5 16.2652 11.6054 16.5196 11.7929 16.7071C11.9804 16.8946 12.2348 17 12.5 17C12.7652 17 13.0196 16.8946 13.2071 16.7071C13.3946 16.5196 13.5 16.2652 13.5 16V13C13.5 12.7348 13.3946 12.4804 13.2071 12.2929C13.0196 12.1054 12.7652 12 12.5 12Z" stroke="#00303E" stroke-linecap="round" stroke-linejoin="round"/>
<path d="M18.5 17V12L17 14.5L15.5 12V17" stroke="#00303E" stroke-linecap="round" stroke-linejoin="round"/>
</svg>
