<svg width="24" height="24" viewBox="0 0 24 24" fill="none" xmlns="http://www.w3.org/2000/svg">
<g clip-path="url(#clip0_3303_5501)">
<path d="M8.5 5.5V23.5H2.5C1.96957 23.5 1.46086 23.2893 1.08579 22.9142C0.710714 22.5391 0.5 22.0304 0.5 21.5V5.5H8.5Z" fill="#9FEAFF"/>
<path d="M8.5 5.5H0.500001V21.5C0.49993 21.5668 0.503267 21.6335 0.510001 21.7C0.559582 22.1933 0.790639 22.6507 1.15834 22.9832C1.52605 23.3158 2.00419 23.5 2.5 23.5H3.5L8.5 18.5V5.5Z" fill="#DFF9FF"/>
<path d="M8.5 5.5V23.5H21.5C22.0304 23.5 22.5391 23.2893 22.9142 22.9142C23.2893 22.5391 23.5 22.0304 23.5 21.5V5.5H8.5Z" fill="#DFF9FF"/>
<path d="M21.5 5.5H8.5V18.5L21.5 5.5Z" fill="white"/>
<path d="M23.5 5.5H0.5V2.5C0.5 1.96957 0.710714 1.46086 1.08579 1.08579C1.46086 0.710714 1.96957 0.5 2.5 0.5H21.5C22.0304 0.5 22.5391 0.710714 22.9142 1.08579C23.2893 1.46086 23.5 1.96957 23.5 2.5V5.5Z" fill="white"/>
<path d="M2.5 0.5H21.5C21.5 0.5 23.5 0.5 23.5 2.5V21.5C23.5 21.5 23.5 23.5 21.5 23.5H2.5C2.5 23.5 0.5 23.5 0.5 21.5V2.5C0.5 2.5 0.5 0.5 2.5 0.5Z" stroke="#00303E" stroke-linecap="round" stroke-linejoin="round"/>
<path d="M0.5 5.5H23.5" stroke="#00303E" stroke-linecap="round" stroke-linejoin="round"/>
<path d="M4 2.75C4.04945 2.75 4.09778 2.76466 4.13889 2.79213C4.18 2.8196 4.21205 2.85865 4.23097 2.90433C4.24989 2.95001 4.25484 3.00028 4.2452 3.04877C4.23555 3.09727 4.21174 3.14181 4.17678 3.17678C4.14181 3.21174 4.09727 3.23555 4.04877 3.2452C4.00028 3.25484 3.95001 3.24989 3.90433 3.23097C3.85865 3.21205 3.8196 3.18 3.79213 3.13889C3.76466 3.09778 3.75 3.04945 3.75 3C3.75 2.9337 3.77634 2.87011 3.82322 2.82322C3.87011 2.77634 3.9337 2.75 4 2.75Z" stroke="#00303E" stroke-linecap="round" stroke-linejoin="round"/>
<path d="M7 2.75C7.04945 2.75 7.09778 2.76466 7.13889 2.79213C7.18 2.8196 7.21205 2.85865 7.23097 2.90433C7.24989 2.95001 7.25484 3.00028 7.2452 3.04877C7.23555 3.09727 7.21174 3.14181 7.17678 3.17678C7.14181 3.21174 7.09727 3.23555 7.04877 3.2452C7.00028 3.25484 6.95001 3.24989 6.90433 3.23097C6.85865 3.21205 6.8196 3.18 6.79213 3.13889C6.76466 3.09778 6.75 3.04945 6.75 3C6.75 2.9337 6.77634 2.87011 6.82322 2.82322C6.87011 2.77634 6.9337 2.75 7 2.75Z" stroke="#00303E" stroke-linecap="round" stroke-linejoin="round"/>
<path d="M10 2.75C10.0494 2.75 10.0978 2.76466 10.1389 2.79213C10.18 2.8196 10.212 2.85865 10.231 2.90433C10.2499 2.95001 10.2548 3.00028 10.2452 3.04877C10.2356 3.09727 10.2117 3.14181 10.1768 3.17678C10.1418 3.21174 10.0973 3.23555 10.0488 3.2452C10.0003 3.25484 9.95001 3.24989 9.90433 3.23097C9.85865 3.21205 9.8196 3.18 9.79213 3.13889C9.76466 3.09778 9.75 3.04945 9.75 3C9.75 2.9337 9.77634 2.87011 9.82322 2.82322C9.87011 2.77634 9.9337 2.75 10 2.75Z" stroke="#00303E" stroke-linecap="round" stroke-linejoin="round"/>
<path d="M8.5 5.5V23.5" stroke="#00303E" stroke-linecap="round" stroke-linejoin="round"/>
<path d="M12 7.5H20C20 7.5 20.5 7.5 20.5 8V12C20.5 12 20.5 12.5 20 12.5H12C12 12.5 11.5 12.5 11.5 12V8C11.5 8 11.5 7.5 12 7.5Z" fill="#9FEAFF" stroke="#00303E" stroke-linecap="round" stroke-linejoin="round"/>
<path d="M12 15.5H20C20 15.5 20.5 15.5 20.5 16V20C20.5 20 20.5 20.5 20 20.5H12C12 20.5 11.5 20.5 11.5 20V16C11.5 16 11.5 15.5 12 15.5Z" fill="#9FEAFF" stroke="#00303E" stroke-linecap="round" stroke-linejoin="round"/>
<path d="M2.521 7.5H4.5" stroke="#00303E" stroke-linecap="round" stroke-linejoin="round"/>
<path d="M4.521 9.5H6.5" stroke="#00303E" stroke-linecap="round" stroke-linejoin="round"/>
<path d="M4.521 11.5H6.5" stroke="#00303E" stroke-linecap="round" stroke-linejoin="round"/>
<path d="M4.521 13.5H6.5" stroke="#00303E" stroke-linecap="round" stroke-linejoin="round"/>
<path d="M2.521 15.5H4.5" stroke="#00303E" stroke-linecap="round" stroke-linejoin="round"/>
<path d="M4.521 17.5H6.5" stroke="#00303E" stroke-linecap="round" stroke-linejoin="round"/>
<path d="M4.521 19.5H6.5" stroke="#00303E" stroke-linecap="round" stroke-linejoin="round"/>
</g>
<defs>
<clipPath id="clip0_3303_5501">
<rect width="24" height="24" fill="white"/>
</clipPath>
</defs>
</svg>
