<svg width="24" height="24" viewBox="0 0 24 24" fill="none" xmlns="http://www.w3.org/2000/svg">
<g clip-path="url(#clip0_3303_3088)">
<path d="M6.49995 10.009C4.31695 10.009 0.567951 8.77699 0.499951 7.47099C0.450951 6.49999 3.61495 4.00899 6.99995 4.00899H17L20 1.50899C20.1939 1.31482 20.4305 1.16854 20.6909 1.08174C20.9512 0.994953 21.2283 0.970043 21.5 1.00899H23.5L19 9.00899C18.8415 9.278 18.6243 9.50769 18.3645 9.68086C18.1048 9.85404 17.8092 9.96621 17.5 10.009H6.49995Z" fill="white"/>
<path d="M0.509033 7.509C0.647033 8.801 4.33903 10.009 6.50003 10.009H17.5C17.8093 9.96622 18.1049 9.85405 18.3646 9.68087C18.6244 9.5077 18.8416 9.27801 19 9.009L19.844 7.509H0.509033Z" fill="#DFF9FF"/>
<path d="M6.49995 10.009C4.31695 10.009 0.567951 8.77699 0.499951 7.47099C0.450951 6.49999 3.61495 4.00899 6.99995 4.00899H17L20 1.50899C20.1939 1.31482 20.4305 1.16854 20.6909 1.08174C20.9512 0.994953 21.2283 0.970043 21.5 1.00899H23.5L19 9.00899C18.8415 9.278 18.6243 9.50769 18.3645 9.68086C18.1048 9.85404 17.8092 9.96621 17.5 10.009H6.49995Z" stroke="#00303E" stroke-linecap="round" stroke-linejoin="round"/>
<path d="M11.5 11.009H7C6.86739 11.009 6.74021 10.9563 6.64645 10.8626C6.55268 10.7688 6.5 10.6416 6.5 10.509V8.509C6.5 8.37639 6.55268 8.24922 6.64645 8.15545C6.74021 8.06168 6.86739 8.009 7 8.009H11.5C12.651 8.009 12.964 8.474 14 9.509C12.539 11.019 12.2 11.009 11.5 11.009Z" fill="white" stroke="#00303E" stroke-linecap="round" stroke-linejoin="round"/>
<path d="M8.5 11.009V8.009V11.009Z" fill="white"/>
<path d="M8.5 11.009V8.009" stroke="#00303E" stroke-linecap="round" stroke-linejoin="round"/>
<path d="M18.5 7.009H21.5" stroke="#00303E" stroke-linecap="round" stroke-linejoin="round"/>
<path d="M9.5 6.009H11" stroke="#00303E" stroke-linecap="round" stroke-linejoin="round"/>
<path d="M13.5 6.009H15" stroke="#00303E" stroke-linecap="round" stroke-linejoin="round"/>
<path d="M11.5 16.009C11.5 15.7438 11.6054 15.4894 11.7929 15.3019C11.9804 15.1144 12.2348 15.009 12.5 15.009H22.5C22.7652 15.009 23.0196 15.1144 23.2071 15.3019C23.3946 15.4894 23.5 15.7438 23.5 16.009V22.009C23.5 22.2742 23.3946 22.5286 23.2071 22.7161C23.0196 22.9036 22.7652 23.009 22.5 23.009H12.5C12.2348 23.009 11.9804 22.9036 11.7929 22.7161C11.6054 22.5286 11.5 22.2742 11.5 22.009V16.009Z" fill="#9FEAFF"/>
<path d="M22.5 15.009H12.5C12.2348 15.009 11.9804 15.1144 11.7929 15.3019C11.6054 15.4894 11.5 15.7438 11.5 16.009V20.009C11.5 19.7438 11.6054 19.4894 11.7929 19.3019C11.9804 19.1144 12.2348 19.009 12.5 19.009H22.5C22.7652 19.009 23.0196 19.1144 23.2071 19.3019C23.3946 19.4894 23.5 19.7438 23.5 20.009V16.009C23.5 15.7438 23.3946 15.4894 23.2071 15.3019C23.0196 15.1144 22.7652 15.009 22.5 15.009Z" fill="#9FEAFF"/>
<path d="M11.5 16.009C11.5 15.7438 11.6054 15.4894 11.7929 15.3019C11.9804 15.1144 12.2348 15.009 12.5 15.009H22.5C22.7652 15.009 23.0196 15.1144 23.2071 15.3019C23.3946 15.4894 23.5 15.7438 23.5 16.009V22.009C23.5 22.2742 23.3946 22.5286 23.2071 22.7161C23.0196 22.9036 22.7652 23.009 22.5 23.009H12.5C12.2348 23.009 11.9804 22.9036 11.7929 22.7161C11.6054 22.5286 11.5 22.2742 11.5 22.009V16.009Z" stroke="#00303E" stroke-linecap="round" stroke-linejoin="round"/>
<path d="M15 15.009L15.5 14.009C15.6091 13.7031 15.814 13.4405 16.0843 13.2604C16.3545 13.0802 16.6757 12.9921 17 13.009H18C18.3243 12.9922 18.6454 13.0804 18.9156 13.2606C19.1858 13.4407 19.3907 13.7032 19.5 14.009L20 15.009" stroke="#00303E" stroke-linecap="round" stroke-linejoin="round"/>
<path d="M11.5 19.009H23.5" stroke="#00303E" stroke-linecap="round" stroke-linejoin="round"/>
<path d="M17.5 19.009V20.509" stroke="#00303E" stroke-linecap="round" stroke-linejoin="round"/>
<path d="M0.499968 7.462C0.821968 7.49334 1.1483 7.509 1.47897 7.509C2.90423 7.53197 4.31586 7.22852 5.60577 6.62186C6.89569 6.01521 8.02969 5.12145 8.92097 4.009H6.99997C3.62497 4.009 0.469968 6.486 0.499968 7.462Z" fill="#9FEAFF" stroke="#00303E" stroke-linecap="round" stroke-linejoin="round"/>
</g>
<defs>
<clipPath id="clip0_3303_3088">
<rect width="24" height="24" fill="white"/>
</clipPath>
</defs>
</svg>
