<svg width="24" height="24" viewBox="0 0 24 24" fill="none" xmlns="http://www.w3.org/2000/svg">
<g clip-path="url(#clip0_3303_8770)">
<path d="M10.649 19.026L6.54902 20.726C6.42649 20.7766 6.28887 20.7765 6.16641 20.7257C6.04395 20.6749 5.9467 20.5775 5.89602 20.455L0.538024 7.519C0.487388 7.39646 0.487492 7.25884 0.538312 7.13638C0.589132 7.01393 0.686507 6.91667 0.809024 6.866L6.50002 4.508" fill="#DFF9FF"/>
<path d="M10.649 19.026L6.54902 20.726C6.42649 20.7766 6.28887 20.7765 6.16641 20.7257C6.04395 20.6749 5.9467 20.5775 5.89602 20.455L0.538024 7.519C0.487388 7.39646 0.487492 7.25884 0.538312 7.13638C0.589132 7.01393 0.686507 6.91667 0.809024 6.866L6.50002 4.508" stroke="#00303E" stroke-linecap="round" stroke-linejoin="round"/>
<path d="M8.042 17.119H7C6.86739 17.119 6.74021 17.0663 6.64645 16.9726C6.55268 16.8788 6.5 16.7516 6.5 16.619V2.61902C6.5 2.48641 6.55268 2.35923 6.64645 2.26547C6.74021 2.1717 6.86739 2.11902 7 2.11902H17C17.1326 2.11902 17.2598 2.1717 17.3536 2.26547C17.4473 2.35923 17.5 2.48641 17.5 2.61902V5.62702" fill="#DFF9FF"/>
<path d="M8.042 17.119H7C6.86739 17.119 6.74021 17.0663 6.64645 16.9726C6.55268 16.8788 6.5 16.7516 6.5 16.619V2.61902C6.5 2.48641 6.55268 2.35923 6.64645 2.26547C6.74021 2.1717 6.86739 2.11902 7 2.11902H17C17.1326 2.11902 17.2598 2.1717 17.3536 2.26547C17.4473 2.35923 17.5 2.48641 17.5 2.61902V5.62702" stroke="#00303E" stroke-linecap="round" stroke-linejoin="round"/>
<path d="M7.94198 17.364L13.298 4.42797C13.298 4.42797 13.49 3.96597 13.951 4.15797L23.191 7.98297C23.191 7.98297 23.653 8.17397 23.461 8.63597L18.105 21.572C18.105 21.572 17.915 22.034 17.452 21.842L8.21198 18.017C8.21198 18.017 7.75098 17.826 7.94198 17.364Z" fill="white" stroke="#00303E" stroke-linecap="round" stroke-linejoin="round"/>
<path d="M14.408 15.037L13.918 12.562C13.8987 12.4651 13.9086 12.3647 13.9463 12.2734C13.984 12.1821 14.048 12.104 14.13 12.049L16.23 10.649C16.2984 10.6034 16.3769 10.5753 16.4587 10.5672C16.5405 10.5592 16.623 10.5714 16.699 10.6029C16.7749 10.6343 16.8419 10.684 16.8941 10.7475C16.9462 10.811 16.9819 10.8864 16.998 10.967L17.489 13.442C17.5082 13.539 17.4982 13.6395 17.4603 13.7308C17.4224 13.8221 17.3583 13.9001 17.276 13.955L15.176 15.355C15.1077 15.4006 15.0291 15.4287 14.9473 15.4368C14.8655 15.4448 14.783 15.4326 14.7071 15.4011C14.6311 15.3697 14.5641 15.32 14.512 15.2565C14.4598 15.193 14.4241 15.1176 14.408 15.037Z" fill="#9FEAFF" stroke="#00303E" stroke-linecap="round" stroke-linejoin="round"/>
<path d="M3.28699 8.02502C3.35329 8.02502 3.41688 8.05136 3.46376 8.09825C3.51065 8.14513 3.53699 8.20872 3.53699 8.27502" stroke="#00303E" stroke-linecap="round" stroke-linejoin="round"/>
<path d="M3.03699 8.27502C3.03699 8.20872 3.06333 8.14513 3.11021 8.09825C3.15709 8.05136 3.22068 8.02502 3.28699 8.02502" stroke="#00303E" stroke-linecap="round" stroke-linejoin="round"/>
<path d="M3.28699 8.52502C3.22068 8.52502 3.15709 8.49869 3.11021 8.4518C3.06333 8.40492 3.03699 8.34133 3.03699 8.27502" stroke="#00303E" stroke-linecap="round" stroke-linejoin="round"/>
<path d="M3.53699 8.27502C3.53699 8.34133 3.51065 8.40492 3.46376 8.4518C3.41688 8.49869 3.35329 8.52502 3.28699 8.52502" stroke="#00303E" stroke-linecap="round" stroke-linejoin="round"/>
<path d="M8.75 4.11902C8.8163 4.11902 8.87989 4.14536 8.92678 4.19224C8.97366 4.23913 9 4.30271 9 4.36902" stroke="#00303E" stroke-linecap="round" stroke-linejoin="round"/>
<path d="M8.5 4.36902C8.5 4.30271 8.52634 4.23913 8.57322 4.19224C8.62011 4.14536 8.6837 4.11902 8.75 4.11902" stroke="#00303E" stroke-linecap="round" stroke-linejoin="round"/>
<path d="M8.75 4.61902C8.6837 4.61902 8.62011 4.59268 8.57322 4.5458C8.52634 4.49891 8.5 4.43532 8.5 4.36902" stroke="#00303E" stroke-linecap="round" stroke-linejoin="round"/>
<path d="M9 4.36902C9 4.43532 8.97366 4.49891 8.92678 4.5458C8.87989 4.59268 8.8163 4.61902 8.75 4.61902" stroke="#00303E" stroke-linecap="round" stroke-linejoin="round"/>
<path d="M14.708 6.65601C14.7743 6.65601 14.8379 6.68234 14.8848 6.72923C14.9317 6.77611 14.958 6.8397 14.958 6.90601" stroke="#00303E" stroke-linecap="round" stroke-linejoin="round"/>
<path d="M14.458 6.90601C14.458 6.8397 14.4843 6.77611 14.5312 6.72923C14.5781 6.68234 14.6417 6.65601 14.708 6.65601" stroke="#00303E" stroke-linecap="round" stroke-linejoin="round"/>
<path d="M14.708 7.15601C14.6417 7.15601 14.5781 7.12967 14.5312 7.08278C14.4843 7.0359 14.458 6.97231 14.458 6.90601" stroke="#00303E" stroke-linecap="round" stroke-linejoin="round"/>
<path d="M14.958 6.90601C14.958 6.97231 14.9317 7.0359 14.8848 7.08278C14.8379 7.12967 14.7743 7.15601 14.708 7.15601" stroke="#00303E" stroke-linecap="round" stroke-linejoin="round"/>
<path d="M16.7 18.844C16.7663 18.844 16.8299 18.8703 16.8768 18.9172C16.9237 18.9641 16.95 19.0277 16.95 19.094" stroke="#00303E" stroke-linecap="round" stroke-linejoin="round"/>
<path d="M16.445 19.094C16.445 19.0277 16.4713 18.9641 16.5182 18.9172C16.5651 18.8703 16.6287 18.844 16.695 18.844" stroke="#00303E" stroke-linecap="round" stroke-linejoin="round"/>
<path d="M16.7 19.344C16.6337 19.344 16.5701 19.3177 16.5232 19.2708C16.4764 19.2239 16.45 19.1603 16.45 19.094" stroke="#00303E" stroke-linecap="round" stroke-linejoin="round"/>
<path d="M16.945 19.094C16.945 19.1603 16.9187 19.2239 16.8718 19.2708C16.8249 19.3177 16.7613 19.344 16.695 19.344" stroke="#00303E" stroke-linecap="round" stroke-linejoin="round"/>
</g>
<defs>
<clipPath id="clip0_3303_8770">
<rect width="24" height="24" fill="white"/>
</clipPath>
</defs>
</svg>
