<svg width="24" height="24" viewBox="0 0 24 24" fill="none" xmlns="http://www.w3.org/2000/svg">
<path d="M19.5 8.21001C19.5 11.757 14 20.591 12.421 23.06C12.3758 23.1306 12.3135 23.1887 12.2399 23.2289C12.1664 23.2692 12.0839 23.2903 12 23.2903C11.9161 23.2903 11.8336 23.2692 11.7601 23.2289C11.6865 23.1887 11.6242 23.1306 11.579 23.06C10 20.592 4.5 11.757 4.5 8.21001C4.5 6.22088 5.29018 4.31323 6.6967 2.90671C8.10322 1.50018 10.0109 0.710007 12 0.710007C13.9891 0.710007 15.8968 1.50018 17.3033 2.90671C18.7098 4.31323 19.5 6.22088 19.5 8.21001Z" fill="#9FEAFF"/>
<path d="M12 5.24401C13.564 5.24529 15.0885 5.73549 16.3601 6.646C17.6318 7.55652 18.5869 8.8418 19.092 10.322C19.3278 9.641 19.4652 8.92983 19.5 8.21001C19.5 6.22088 18.7098 4.31323 17.3033 2.90671C15.8968 1.50018 13.9891 0.710007 12 0.710007C10.0109 0.710007 8.10322 1.50018 6.6967 2.90671C5.29018 4.31323 4.5 6.22088 4.5 8.21001C4.53483 8.92983 4.67221 9.641 4.908 10.322C5.41307 8.8418 6.36825 7.55652 7.63989 6.646C8.91152 5.73549 10.436 5.24529 12 5.24401Z" fill="#DFF9FF"/>
<path d="M19.5 8.21001C19.5 11.757 14 20.591 12.421 23.06C12.3758 23.1306 12.3135 23.1887 12.2399 23.2289C12.1664 23.2692 12.0839 23.2903 12 23.2903C11.9161 23.2903 11.8336 23.2692 11.7601 23.2289C11.6865 23.1887 11.6242 23.1306 11.579 23.06C10 20.592 4.5 11.757 4.5 8.21001C4.5 6.22088 5.29018 4.31323 6.6967 2.90671C8.10322 1.50018 10.0109 0.710007 12 0.710007C13.9891 0.710007 15.8968 1.50018 17.3033 2.90671C18.7098 4.31323 19.5 6.22088 19.5 8.21001Z" stroke="#00303E" stroke-linecap="round" stroke-linejoin="round"/>
<path d="M13.4999 4.71101H11.7999C11.5189 4.70883 11.2448 4.79777 11.0186 4.9645C10.7924 5.13123 10.6263 5.36677 10.5452 5.63584C10.4641 5.9049 10.4724 6.193 10.5688 6.45696C10.6652 6.72093 10.8445 6.94654 11.0799 7.10001L12.9199 8.32601C13.1547 8.47996 13.3332 8.70575 13.429 8.96961C13.5247 9.23348 13.5325 9.52125 13.4511 9.7899C13.3698 10.0585 13.2036 10.2936 12.9776 10.46C12.7515 10.6264 12.4776 10.7152 12.1969 10.713H10.4999" stroke="#00303E" stroke-linecap="round" stroke-linejoin="round"/>
<path d="M12.5 4.711V3.711" stroke="#00303E" stroke-linecap="round" stroke-linejoin="round"/>
<path d="M11.5 11.711V10.711" stroke="#00303E" stroke-linecap="round" stroke-linejoin="round"/>
</svg>
