<svg width="24" height="24" viewBox="0 0 24 24" fill="none" xmlns="http://www.w3.org/2000/svg">
<path d="M2 13C2 15.6522 3.05357 18.1957 4.92893 20.0711C6.8043 21.9464 9.34784 23 12 23C14.6522 23 17.1957 21.9464 19.0711 20.0711C20.9464 18.1957 22 15.6522 22 13C22 10.3478 20.9464 7.8043 19.0711 5.92893C17.1957 4.05357 14.6522 3 12 3C9.34784 3 6.8043 4.05357 4.92893 5.92893C3.05357 7.8043 2 10.3478 2 13Z" fill="#DFF9FF"/>
<path d="M6.85498 10.02C7.46243 9.23527 8.24149 8.60004 9.13245 8.163C10.0234 7.72597 11.0026 7.49875 11.995 7.49875C12.9874 7.49875 13.9666 7.72597 14.8575 8.163C15.7485 8.60004 16.5275 9.23527 17.135 10.02" stroke="#00303E" stroke-linecap="round" stroke-linejoin="round"/>
<path d="M4.98199 7.836C5.82536 6.78908 6.89243 5.94428 8.1049 5.36358C9.31738 4.78288 10.6445 4.48103 11.9888 4.48017C13.3332 4.4793 14.6607 4.77945 15.8739 5.35859C17.0871 5.93773 18.1553 6.78117 19 7.827" stroke="#00303E" stroke-linecap="round" stroke-linejoin="round"/>
<path d="M2.98102 5.856C4.0591 4.49678 5.4306 3.39895 6.99289 2.64464C8.55518 1.89033 10.2678 1.49907 12.0027 1.50012C13.7375 1.50118 15.4497 1.89453 17.0111 2.65075C18.5724 3.40697 19.9426 4.50647 21.019 5.867" stroke="#00303E" stroke-linecap="round" stroke-linejoin="round"/>
<path d="M5.979 14.5H8.979C9.50944 14.5 10.0181 14.7107 10.3932 15.0858C10.7683 15.4609 10.979 15.9696 10.979 16.5C10.979 17.0304 10.7683 17.5391 10.3932 17.9142C10.0181 18.2893 9.50944 18.5 8.979 18.5C9.50944 18.5 10.0181 18.7107 10.3932 19.0858C10.7683 19.4609 10.979 19.9696 10.979 20.5C10.979 21.0304 10.7683 21.5391 10.3932 21.9142C10.0181 22.2893 9.50944 22.5 8.979 22.5H5.979" stroke="#00303E" stroke-linecap="round" stroke-linejoin="round"/>
<path d="M7.479 18.5H8.979" stroke="#00303E" stroke-linecap="round" stroke-linejoin="round"/>
<path d="M17.979 16.5C17.979 15.9696 17.7683 15.4609 17.3932 15.0858C17.0181 14.7107 16.5094 14.5 15.979 14.5C15.4486 14.5 14.9399 14.7107 14.5648 15.0858C14.1897 15.4609 13.979 15.9696 13.979 16.5V20.5C13.979 21.0304 14.1897 21.5391 14.5648 21.9142C14.9399 22.2893 15.4486 22.5 15.979 22.5C16.5094 22.5 17.0181 22.2893 17.3932 21.9142C17.7683 21.5391 17.979 21.0304 17.979 20.5V19.5H16.479" stroke="#00303E" stroke-linecap="round" stroke-linejoin="round"/>
</svg>
