<svg width="24" height="24" viewBox="0 0 24 24" fill="none" xmlns="http://www.w3.org/2000/svg">
<path d="M16.5 17.5V8.5H7.5V17.5C6.70435 17.5 5.94129 17.8161 5.37868 18.3787C4.81607 18.9413 4.5 19.7044 4.5 20.5H19.5C19.5 19.7044 19.1839 18.9413 18.6213 18.3787C18.0587 17.8161 17.2956 17.5 16.5 17.5Z" fill="#9FEAFF"/>
<path d="M18.5 6C18.5 6.13261 18.4473 6.25979 18.3536 6.35355C18.2598 6.44732 18.1326 6.5 18 6.5H6C5.86739 6.5 5.74021 6.44732 5.64645 6.35355C5.55268 6.25979 5.5 6.13261 5.5 6V1C5.5 0.867392 5.55268 0.740215 5.64645 0.646447C5.74021 0.552678 5.86739 0.5 6 0.5H8C8.13261 0.5 8.25979 0.552678 8.35355 0.646447C8.44732 0.740215 8.5 0.867392 8.5 1V2.5H10.5V1C10.5 0.867392 10.5527 0.740215 10.6464 0.646447C10.7402 0.552678 10.8674 0.5 11 0.5H13C13.1326 0.5 13.2598 0.552678 13.3536 0.646447C13.4473 0.740215 13.5 0.867392 13.5 1V2.5H15.5V1C15.5 0.867392 15.5527 0.740215 15.6464 0.646447C15.7402 0.552678 15.8674 0.5 16 0.5H18C18.1326 0.5 18.2598 0.552678 18.3536 0.646447C18.4473 0.740215 18.5 0.867392 18.5 1V6Z" fill="#9FEAFF"/>
<path d="M4 20.5H20C20 20.5 20.5 20.5 20.5 21V23C20.5 23 20.5 23.5 20 23.5H4C4 23.5 3.5 23.5 3.5 23V21C3.5 21 3.5 20.5 4 20.5Z" fill="#9FEAFF" stroke="#00303E" stroke-linecap="round" stroke-linejoin="round"/>
<path d="M12 8.5H7.5V17.5C6.70435 17.5 5.94129 17.8161 5.37868 18.3787C4.81607 18.9413 4.5 19.7044 4.5 20.5H12V8.5Z" fill="#9FEAFF"/>
<path d="M12 0.5H11C10.8674 0.5 10.7402 0.552678 10.6464 0.646447C10.5527 0.740215 10.5 0.867392 10.5 1V2.5H8.5V1C8.5 0.867392 8.44732 0.740215 8.35355 0.646447C8.25979 0.552678 8.13261 0.5 8 0.5H6C5.86739 0.5 5.74021 0.552678 5.64645 0.646447C5.55268 0.740215 5.5 0.867392 5.5 1V6C5.5 6.13261 5.55268 6.25979 5.64645 6.35355C5.74021 6.44732 5.86739 6.5 6 6.5H12V0.5Z" fill="#9FEAFF"/>
<path d="M6.5 6.5H17.5V8C17.5 8.13261 17.4473 8.25979 17.3536 8.35355C17.2598 8.44732 17.1326 8.5 17 8.5H7C6.86739 8.5 6.74021 8.44732 6.64645 8.35355C6.55268 8.25979 6.5 8.13261 6.5 8V6.5Z" fill="#9FEAFF" stroke="#00303E" stroke-linecap="round" stroke-linejoin="round"/>
<path d="M19.5 20.5C19.5 19.7044 19.1839 18.9413 18.6213 18.3787C18.0587 17.8161 17.2956 17.5 16.5 17.5H7.5C6.70435 17.5 5.94129 17.8161 5.37868 18.3787C4.81607 18.9413 4.5 19.7044 4.5 20.5H19.5Z" stroke="#00303E" stroke-linecap="round" stroke-linejoin="round"/>
<path d="M7.5 8.5H16.5V17.5H7.5V8.5Z" stroke="#00303E" stroke-linecap="round" stroke-linejoin="round"/>
<path d="M18.5 6C18.5 6.13261 18.4473 6.25979 18.3536 6.35355C18.2598 6.44732 18.1326 6.5 18 6.5H6C5.86739 6.5 5.74021 6.44732 5.64645 6.35355C5.55268 6.25979 5.5 6.13261 5.5 6V1C5.5 0.867392 5.55268 0.740215 5.64645 0.646447C5.74021 0.552678 5.86739 0.5 6 0.5H8C8.13261 0.5 8.25979 0.552678 8.35355 0.646447C8.44732 0.740215 8.5 0.867392 8.5 1V2.5H10.5V1C10.5 0.867392 10.5527 0.740215 10.6464 0.646447C10.7402 0.552678 10.8674 0.5 11 0.5H13C13.1326 0.5 13.2598 0.552678 13.3536 0.646447C13.4473 0.740215 13.5 0.867392 13.5 1V2.5H15.5V1C15.5 0.867392 15.5527 0.740215 15.6464 0.646447C15.7402 0.552678 15.8674 0.5 16 0.5H18C18.1326 0.5 18.2598 0.552678 18.3536 0.646447C18.4473 0.740215 18.5 0.867392 18.5 1V6Z" stroke="#00303E" stroke-linecap="round" stroke-linejoin="round"/>
</svg>
