<svg width="24" height="24" viewBox="0 0 24 24" fill="none" xmlns="http://www.w3.org/2000/svg">
<g clip-path="url(#clip0_3303_10044)">
<path d="M5 5C5 4.86739 5.05268 4.74021 5.14645 4.64645C5.24021 4.55268 5.36739 4.5 5.5 4.5H6.5C6.63261 4.5 6.75979 4.55268 6.85355 4.64645C6.94732 4.74021 7 4.86739 7 5V6C7 6.13261 6.94732 6.25979 6.85355 6.35355C6.75979 6.44732 6.63261 6.5 6.5 6.5H5.5C5.36739 6.5 5.24021 6.44732 5.14645 6.35355C5.05268 6.25979 5 6.13261 5 6V5Z" fill="#9FEAFF"/>
<path d="M1 12.5C1 12.2348 1.10536 11.9804 1.29289 11.7929C1.48043 11.6054 1.73478 11.5 2 11.5H10C10.2652 11.5 10.5196 11.6054 10.7071 11.7929C10.8946 11.9804 11 12.2348 11 12.5V22.5C11 22.7652 10.8946 23.0196 10.7071 23.2071C10.5196 23.3946 10.2652 23.5 10 23.5H2C1.73478 23.5 1.48043 23.3946 1.29289 23.2071C1.10536 23.0196 1 22.7652 1 22.5V12.5Z" fill="white"/>
<path d="M9.5 11.5H2.5L3.34 8.974C3.39199 8.83936 3.48212 8.72281 3.59935 8.63862C3.71657 8.55443 3.85581 8.50626 4 8.5H8C8.14381 8.50677 8.28256 8.55516 8.39937 8.63931C8.51618 8.72346 8.60604 8.83974 8.658 8.974L9.5 11.5Z" fill="white"/>
<path d="M11 12.5V22.5C11 22.7652 10.8946 23.0196 10.7071 23.2071C10.5196 23.3946 10.2652 23.5 10 23.5H6V11.5H10C10.2652 11.5 10.5196 11.6054 10.7071 11.7929C10.8946 11.9804 11 12.2348 11 12.5Z" fill="#DFF9FF"/>
<path d="M9.5 11.5H6V8.5H8C8.1438 8.50568 8.28282 8.55317 8.40004 8.63664C8.51727 8.72012 8.6076 8.83597 8.66 8.97L9.5 11.5Z" fill="#DFF9FF"/>
<path d="M21 2.99998C21.0777 2.6992 21.0843 2.38446 21.0192 2.0807C20.9541 1.77694 20.8191 1.49252 20.625 1.24998C19.7 0.099984 17.637 0.129984 16.758 2.41398L13.5 3.49998V7.49998L16.081 8.35998C17.806 12.06 22.081 10.312 21.002 7.99998C23.657 7.57798 23.691 3.53998 21 2.99998Z" fill="#9FEAFF"/>
<path d="M5 5C5 4.86739 5.05268 4.74021 5.14645 4.64645C5.24021 4.55268 5.36739 4.5 5.5 4.5H6.5C6.63261 4.5 6.75979 4.55268 6.85355 4.64645C6.94732 4.74021 7 4.86739 7 5V6C7 6.13261 6.94732 6.25979 6.85355 6.35355C6.75979 6.44732 6.63261 6.5 6.5 6.5H5.5C5.36739 6.5 5.24021 6.44732 5.14645 6.35355C5.05268 6.25979 5 6.13261 5 6V5Z" stroke="#00303E" stroke-linecap="round" stroke-linejoin="round"/>
<path d="M6 6.5V8.5" stroke="#00303E" stroke-linecap="round" stroke-linejoin="round"/>
<path d="M14 5.5H17" stroke="#00303E" stroke-linecap="round" stroke-linejoin="round"/>
<path d="M13.5 7.5L16.5 8.5" stroke="#00303E" stroke-linecap="round" stroke-linejoin="round"/>
<path d="M13.5 3.5L16.5 2.5" stroke="#00303E" stroke-linecap="round" stroke-linejoin="round"/>
<path d="M19 10.5C20.441 10.5 21.627 9.34598 21 7.99998C23.655 7.57798 23.689 3.53998 21 2.99998C21.0778 2.69918 21.0845 2.38438 21.0195 2.08054C20.9545 1.77671 20.8196 1.4922 20.6255 1.24957C20.4314 1.00695 20.1835 0.812885 19.9013 0.682771C19.6191 0.552657 19.3106 0.490072 19 0.499979" stroke="#00303E" stroke-linecap="round" stroke-linejoin="round"/>
<path d="M1 12.5C1 12.2348 1.10536 11.9804 1.29289 11.7929C1.48043 11.6054 1.73478 11.5 2 11.5H10C10.2652 11.5 10.5196 11.6054 10.7071 11.7929C10.8946 11.9804 11 12.2348 11 12.5V22.5C11 22.7652 10.8946 23.0196 10.7071 23.2071C10.5196 23.3946 10.2652 23.5 10 23.5H2C1.73478 23.5 1.48043 23.3946 1.29289 23.2071C1.10536 23.0196 1 22.7652 1 22.5V12.5Z" stroke="#00303E" stroke-linecap="round" stroke-linejoin="round"/>
<path d="M9.5 11.5H2.5L3.34 8.974C3.39199 8.83936 3.48212 8.72281 3.59935 8.63862C3.71657 8.55443 3.85581 8.50626 4 8.5H8C8.14381 8.50677 8.28256 8.55516 8.39937 8.63931C8.51618 8.72346 8.60604 8.83974 8.658 8.974L9.5 11.5Z" stroke="#00303E" stroke-linecap="round" stroke-linejoin="round"/>
</g>
<defs>
<clipPath id="clip0_3303_10044">
<rect width="24" height="24" fill="white"/>
</clipPath>
</defs>
</svg>
