<svg width="24" height="24" viewBox="0 0 24 24" fill="none" xmlns="http://www.w3.org/2000/svg">
<path d="M6.5 0.5H17.5C17.5 0.5 18.5 0.5 18.5 1.5V22.5C18.5 22.5 18.5 23.5 17.5 23.5H6.5C6.5 23.5 5.5 23.5 5.5 22.5V1.5C5.5 1.5 5.5 0.5 6.5 0.5Z" fill="#DFF9FF"/>
<path d="M12 0.5H6.5C6.23478 0.5 5.98043 0.605357 5.79289 0.792893C5.60536 0.98043 5.5 1.23478 5.5 1.5V22.5C5.5 22.7652 5.60536 23.0196 5.79289 23.2071C5.98043 23.3946 6.23478 23.5 6.5 23.5H12V0.5Z" fill="white"/>
<path d="M6.5 0.5H17.5C17.5 0.5 18.5 0.5 18.5 1.5V22.5C18.5 22.5 18.5 23.5 17.5 23.5H6.5C6.5 23.5 5.5 23.5 5.5 22.5V1.5C5.5 1.5 5.5 0.5 6.5 0.5Z" stroke="#00303E" stroke-linecap="round" stroke-linejoin="round"/>
<path d="M16.5 21.5H13.5L12 20L10.5 21.5H7.5V2.5H10.5L12 4L13.5 2.5H16.5V21.5Z" fill="#9FEAFF"/>
<path d="M12 20L10.5 21.5H7.5V2.5H10.5L12 4V20Z" fill="#9FEAFF"/>
<path d="M16.5 21.5H13.5L12 20L10.5 21.5H7.5V2.5H10.5L12 4L13.5 2.5H16.5V21.5Z" stroke="#00303E" stroke-linecap="round" stroke-linejoin="round"/>
<path d="M18.5 4.5H21" stroke="#00303E" stroke-linecap="round" stroke-linejoin="round"/>
<path d="M18.5 7.5H21" stroke="#00303E" stroke-linecap="round" stroke-linejoin="round"/>
<path d="M18.5 10.5H21" stroke="#00303E" stroke-linecap="round" stroke-linejoin="round"/>
<path d="M18.5 13.5H21" stroke="#00303E" stroke-linecap="round" stroke-linejoin="round"/>
<path d="M18.5 16.5H21" stroke="#00303E" stroke-linecap="round" stroke-linejoin="round"/>
<path d="M18.5 19.5H21" stroke="#00303E" stroke-linecap="round" stroke-linejoin="round"/>
<path d="M3 4.5H5.5" stroke="#00303E" stroke-linecap="round" stroke-linejoin="round"/>
<path d="M3 7.5H5.5" stroke="#00303E" stroke-linecap="round" stroke-linejoin="round"/>
<path d="M3 10.5H5.5" stroke="#00303E" stroke-linecap="round" stroke-linejoin="round"/>
<path d="M3 13.5H5.5" stroke="#00303E" stroke-linecap="round" stroke-linejoin="round"/>
<path d="M3 16.5H5.5" stroke="#00303E" stroke-linecap="round" stroke-linejoin="round"/>
<path d="M3 19.5H5.5" stroke="#00303E" stroke-linecap="round" stroke-linejoin="round"/>
</svg>
