<svg width="24" height="24" viewBox="0 0 24 24" fill="none" xmlns="http://www.w3.org/2000/svg">
<path d="M19 14.5H23" stroke="#00303E" stroke-linecap="round" stroke-linejoin="round"/>
<path d="M23 16.5H19" stroke="#00303E" stroke-linecap="round" stroke-linejoin="round"/>
<path d="M5 16.5H1" stroke="#00303E" stroke-linecap="round" stroke-linejoin="round"/>
<path d="M1 14.5H5" stroke="#00303E" stroke-linecap="round" stroke-linejoin="round"/>
<path d="M13 8.5V4.5" stroke="#00303E" stroke-linecap="round" stroke-linejoin="round"/>
<path d="M11 4.5V8.5" stroke="#00303E" stroke-linecap="round" stroke-linejoin="round"/>
<path d="M18 18.5C18.2652 18.5 18.5196 18.3946 18.7071 18.2071C18.8946 18.0196 19 17.7652 19 17.5V13.5C19 13.2348 18.8946 12.9804 18.7071 12.7929C18.5196 12.6054 18.2652 12.5 18 12.5H16C15.7348 12.5 15.4804 12.3946 15.2929 12.2071C15.1054 12.0196 15 11.7652 15 11.5V9.5C15 9.23478 14.8946 8.98043 14.7071 8.79289C14.5196 8.60536 14.2652 8.5 14 8.5H10C9.73478 8.5 9.48043 8.60536 9.29289 8.79289C9.10536 8.98043 9 9.23478 9 9.5V11.5C9 11.7652 8.89464 12.0196 8.70711 12.2071C8.51957 12.3946 8.26522 12.5 8 12.5H6C5.73478 12.5 5.48043 12.6054 5.29289 12.7929C5.10536 12.9804 5 13.2348 5 13.5V17.5C5 17.7652 5.10536 18.0196 5.29289 18.2071C5.48043 18.3946 5.73478 18.5 6 18.5H18Z" fill="#9FEAFF"/>
<path d="M19 14.5V13.5C19 13.2348 18.8946 12.9804 18.7071 12.7929C18.5196 12.6054 18.2652 12.5 18 12.5H16C15.7348 12.5 15.4804 12.3946 15.2929 12.2071C15.1054 12.0196 15 11.7652 15 11.5V9.5C15 9.23478 14.8946 8.98043 14.7071 8.79289C14.5196 8.60536 14.2652 8.5 14 8.5H10C9.73478 8.5 9.48043 8.60536 9.29289 8.79289C9.10536 8.98043 9 9.23478 9 9.5V11.5C9 11.7652 8.89464 12.0196 8.70711 12.2071C8.51957 12.3946 8.26522 12.5 8 12.5H6C5.73478 12.5 5.48043 12.6054 5.29289 12.7929C5.10536 12.9804 5 13.2348 5 13.5V14.5H19Z" fill="#DFF9FF"/>
<path d="M18 18.5C18.2652 18.5 18.5196 18.3946 18.7071 18.2071C18.8946 18.0196 19 17.7652 19 17.5V13.5C19 13.2348 18.8946 12.9804 18.7071 12.7929C18.5196 12.6054 18.2652 12.5 18 12.5H16C15.7348 12.5 15.4804 12.3946 15.2929 12.2071C15.1054 12.0196 15 11.7652 15 11.5V9.5C15 9.23478 14.8946 8.98043 14.7071 8.79289C14.5196 8.60536 14.2652 8.5 14 8.5H10C9.73478 8.5 9.48043 8.60536 9.29289 8.79289C9.10536 8.98043 9 9.23478 9 9.5V11.5C9 11.7652 8.89464 12.0196 8.70711 12.2071C8.51957 12.3946 8.26522 12.5 8 12.5H6C5.73478 12.5 5.48043 12.6054 5.29289 12.7929C5.10536 12.9804 5 13.2348 5 13.5V17.5C5 17.7652 5.10536 18.0196 5.29289 18.2071C5.48043 18.3946 5.73478 18.5 6 18.5H18Z" stroke="#00303E" stroke-linecap="round" stroke-linejoin="round"/>
</svg>
