<svg width="24" height="24" viewBox="0 0 24 24" fill="none" xmlns="http://www.w3.org/2000/svg">
<g clip-path="url(#clip0_3303_1680)">
<path d="M16 3.5C16.2652 3.5 16.5196 3.60536 16.7071 3.79289C16.8946 3.98043 17 4.23478 17 4.5V20.5C17 20.7652 16.8946 21.0196 16.7071 21.2071C16.5196 21.3946 16.2652 21.5 16 21.5H2C1.73478 21.5 1.48043 21.3946 1.29289 21.2071C1.10536 21.0196 1 20.7652 1 20.5V4.5C1 4.23478 1.10536 3.98043 1.29289 3.79289C1.48043 3.60536 1.73478 3.5 2 3.5H16Z" fill="#DFF9FF"/>
<path d="M14.5 6C14.5 6.26522 14.3946 6.51957 14.2071 6.70711C14.0196 6.89464 13.7652 7 13.5 7H4.5C4.23478 7 3.98043 6.89464 3.79289 6.70711C3.60536 6.51957 3.5 6.26522 3.5 6V3.5H14.5V6Z" fill="#9FEAFF"/>
<path d="M16 21.5C16.2652 21.5 16.5196 21.3946 16.7071 21.2071C16.8946 21.0196 17 20.7652 17 20.5V8.5H11.5C11.2348 8.5 10.9804 8.60536 10.7929 8.79289C10.6054 8.98043 10.5 9.23478 10.5 9.5V21.5H16Z" fill="#9FEAFF"/>
<path d="M10 21.5H2C1.73478 21.5 1.48043 21.3946 1.29289 21.2071C1.10536 21.0196 1 20.7652 1 20.5V4.5C1 4.23478 1.10536 3.98043 1.29289 3.79289C1.48043 3.60536 1.73478 3.5 2 3.5H4" stroke="#00303E" stroke-linecap="round" stroke-linejoin="round"/>
<path d="M14 3.5H16C16.2652 3.5 16.5196 3.60536 16.7071 3.79289C16.8946 3.98043 17 4.23478 17 4.5V8" stroke="#00303E" stroke-linecap="round" stroke-linejoin="round"/>
<path d="M10.415 2.5H13C13.2652 2.5 13.5196 2.60536 13.7071 2.79289C13.8946 2.98043 14 3.23478 14 3.5V4.5C14 4.76522 13.8946 5.01957 13.7071 5.20711C13.5196 5.39464 13.2652 5.5 13 5.5H5C4.73478 5.5 4.48043 5.39464 4.29289 5.20711C4.10536 5.01957 4 4.76522 4 4.5V3.5C4 3.23478 4.10536 2.98043 4.29289 2.79289C4.48043 2.60536 4.73478 2.5 5 2.5H7.585" fill="#DFF9FF"/>
<path d="M10.415 2.5H13C13.2652 2.5 13.5196 2.60536 13.7071 2.79289C13.8946 2.98043 14 3.23478 14 3.5V4.5C14 4.76522 13.8946 5.01957 13.7071 5.20711C13.5196 5.39464 13.2652 5.5 13 5.5H5C4.73478 5.5 4.48043 5.39464 4.29289 5.20711C4.10536 5.01957 4 4.76522 4 4.5V3.5C4 3.23478 4.10536 2.98043 4.29289 2.79289C4.48043 2.60536 4.73478 2.5 5 2.5H7.585" stroke="#00303E" stroke-linecap="round" stroke-linejoin="round"/>
<path d="M9 3.5C9.29667 3.5 9.58668 3.41203 9.83335 3.24721C10.08 3.08238 10.2723 2.84811 10.3858 2.57403C10.4994 2.29994 10.5291 1.99834 10.4712 1.70737C10.4133 1.41639 10.2704 1.14912 10.0607 0.939341C9.85088 0.729562 9.58361 0.586701 9.29264 0.528823C9.00166 0.470945 8.70006 0.50065 8.42597 0.614181C8.15189 0.727713 7.91762 0.919972 7.7528 1.16665C7.58797 1.41332 7.5 1.70333 7.5 2C7.5 2.39783 7.65804 2.77936 7.93934 3.06066C8.22064 3.34197 8.60218 3.5 9 3.5Z" fill="#9FEAFF" stroke="#00303E" stroke-linecap="round" stroke-linejoin="round"/>
<path d="M23 22.5C23 22.7652 22.8946 23.0196 22.7071 23.2071C22.5196 23.3946 22.2652 23.5 22 23.5H13C12.7348 23.5 12.4804 23.3946 12.2929 23.2071C12.1054 23.0196 12 22.7652 12 22.5V11C12 10.7348 12.1054 10.4804 12.2929 10.2929C12.4804 10.1054 12.7348 10 13 10H20.086C20.3512 10.0001 20.6055 10.1055 20.793 10.293L22.707 12.207C22.8946 12.3945 22.9999 12.6488 23 12.914V22.5Z" fill="white" stroke="#00303E" stroke-linecap="round" stroke-linejoin="round"/>
<path d="M15 14.5H20" stroke="#00303E" stroke-linecap="round" stroke-linejoin="round"/>
<path d="M15 17.5H20" stroke="#00303E" stroke-linecap="round" stroke-linejoin="round"/>
</g>
<defs>
<clipPath id="clip0_3303_1680">
<rect width="24" height="24" fill="white"/>
</clipPath>
</defs>
</svg>
