<svg width="24" height="24" viewBox="0 0 24 24" fill="none" xmlns="http://www.w3.org/2000/svg">
<path d="M0.5 5.461C0.5 4.93057 0.710714 4.42186 1.08579 4.04678C1.46086 3.67171 1.96957 3.461 2.5 3.461H21.5C22.0304 3.461 22.5391 3.67171 22.9142 4.04678C23.2893 4.42186 23.5 4.93057 23.5 5.461V18.461C23.5 18.9914 23.2893 19.5001 22.9142 19.8752C22.5391 20.2503 22.0304 20.461 21.5 20.461H2.5C1.96957 20.461 1.46086 20.2503 1.08579 19.8752C0.710714 19.5001 0.5 18.9914 0.5 18.461V5.461Z" fill="#DFF9FF"/>
<path d="M2.5 3.461C1.96957 3.461 1.46086 3.67171 1.08579 4.04678C0.710714 4.42186 0.5 4.93057 0.5 5.461V18.461C0.501126 18.7478 0.564266 19.031 0.685091 19.2911C0.805916 19.5512 0.981567 19.7821 1.2 19.968L17.7 3.461H2.5Z" fill="white"/>
<path d="M0.5 5.461C0.5 4.93057 0.710714 4.42186 1.08579 4.04678C1.46086 3.67171 1.96957 3.461 2.5 3.461H21.5C22.0304 3.461 22.5391 3.67171 22.9142 4.04678C23.2893 4.42186 23.5 4.93057 23.5 5.461V18.461C23.5 18.9914 23.2893 19.5001 22.9142 19.8752C22.5391 20.2503 22.0304 20.461 21.5 20.461H2.5C1.96957 20.461 1.46086 20.2503 1.08579 19.8752C0.710714 19.5001 0.5 18.9914 0.5 18.461V5.461Z" stroke="#00303E" stroke-linecap="round" stroke-linejoin="round"/>
<path d="M13.5 11.961C13.5002 13.1163 13.1003 14.236 12.3684 15.1298C11.6364 16.0236 10.6176 16.6364 9.48492 16.8639C8.35229 17.0915 7.1758 16.9198 6.15541 16.3781C5.13503 15.8364 4.33372 14.958 3.88769 13.8923C3.44165 12.8266 3.37842 11.6394 3.70873 10.5323C4.03903 9.42528 4.7425 8.46677 5.69957 7.81972C6.65663 7.17267 7.80824 6.877 8.95864 6.98297C10.109 7.08894 11.1872 7.59001 12.01 8.40101C12.4829 8.86531 12.8582 9.41938 13.1141 10.0307C13.37 10.642 13.5012 11.2983 13.5 11.961Z" fill="#9FEAFF"/>
<path d="M12.006 8.4C11.5263 7.92264 10.9545 7.54786 10.3254 7.29846C9.69629 7.04907 9.02302 6.93027 8.34655 6.9493C7.67008 6.96833 7.00455 7.12479 6.39045 7.40915C5.77636 7.69352 5.22653 8.09985 4.77444 8.60343C4.32234 9.107 3.97742 9.69729 3.76067 10.3384C3.54391 10.9795 3.45985 11.658 3.5136 12.3326C3.56734 13.0072 3.75778 13.6638 4.07331 14.2625C4.38884 14.8611 4.82287 15.3894 5.349 15.815L12.349 8.815C12.2424 8.67048 12.1279 8.53194 12.006 8.4Z" fill="#DFF9FF"/>
<path d="M13.5 11.961C13.5002 13.1163 13.1003 14.236 12.3684 15.1298C11.6364 16.0236 10.6176 16.6364 9.48492 16.8639C8.35229 17.0915 7.1758 16.9198 6.15541 16.3781C5.13503 15.8364 4.33372 14.958 3.88769 13.8923C3.44165 12.8266 3.37842 11.6394 3.70873 10.5323C4.03903 9.42528 4.7425 8.46677 5.69957 7.81972C6.65663 7.17267 7.80824 6.877 8.95864 6.98297C10.109 7.08894 11.1872 7.59001 12.01 8.40101C12.4829 8.86531 12.8582 9.41938 13.1141 10.0307C13.37 10.642 13.5012 11.2983 13.5 11.961Z" stroke="#00303E" stroke-linecap="round" stroke-linejoin="round"/>
<path d="M20.5 11.961C20.5 12.6176 20.3707 13.2678 20.1194 13.8744C19.8681 14.4811 19.4998 15.0322 19.0355 15.4965C18.5712 15.9608 18.02 16.3291 17.4134 16.5804C16.8068 16.8317 16.1566 16.961 15.5 16.961C14.8538 16.9613 14.2138 16.8343 13.6167 16.5872C13.0196 16.3402 12.477 15.9779 12.02 15.521C12.4888 15.0542 12.8609 14.4994 13.1149 13.8885C13.3688 13.2776 13.4997 12.6226 13.5 11.961C13.5012 11.2983 13.37 10.642 13.1141 10.0307C12.8582 9.41938 12.4829 8.86531 12.01 8.40101C12.7103 7.70854 13.6 7.23903 14.5669 7.05172C15.5338 6.86441 16.5345 6.96769 17.4427 7.34853C18.3509 7.72936 19.126 8.3707 19.6701 9.19159C20.2143 10.0125 20.503 10.9762 20.5 11.961Z" fill="#9FEAFF" stroke="#00303E" stroke-linecap="round" stroke-linejoin="round"/>
<path d="M12.5 11.861C12.4802 11.861 12.4609 11.8669 12.4444 11.8778C12.428 11.8888 12.4152 11.9045 12.4076 11.9227C12.4 11.941 12.3981 11.9611 12.4019 11.9805C12.4058 11.9999 12.4153 12.0177 12.4293 12.0317C12.4433 12.0457 12.4611 12.0552 12.4805 12.0591C12.4999 12.0629 12.52 12.0609 12.5383 12.0534C12.5565 12.0458 12.5722 12.033 12.5831 12.0165C12.5941 12.0001 12.6 11.9808 12.6 11.961C12.6 11.9345 12.5895 11.909 12.5707 11.8903C12.552 11.8715 12.5265 11.861 12.5 11.861Z" stroke="#00303E" stroke-linecap="round" stroke-linejoin="round"/>
<path d="M12.5 13.861C12.4823 13.8614 12.4649 13.8665 12.4498 13.8758C12.4347 13.8851 12.4223 13.8982 12.414 13.9139C12.4056 13.9296 12.4016 13.9472 12.4023 13.9649C12.403 13.9826 12.4084 13.9999 12.4179 14.0148C12.4275 14.0298 12.4409 14.0419 12.4567 14.05C12.4725 14.0581 12.4901 14.0618 12.5078 14.0608C12.5256 14.0598 12.5427 14.0541 12.5575 14.0443C12.5723 14.0345 12.5842 14.0209 12.592 14.005C12.5971 13.9947 12.5999 13.9835 12.6 13.972V13.961C12.6 13.9345 12.5895 13.909 12.5707 13.8903C12.552 13.8715 12.5265 13.861 12.5 13.861Z" stroke="#00303E" stroke-linecap="round" stroke-linejoin="round"/>
<path d="M12.5 9.861C12.4802 9.861 12.4609 9.86687 12.4444 9.87785C12.428 9.88884 12.4152 9.90446 12.4076 9.92273C12.4 9.94101 12.3981 9.96111 12.4019 9.98051C12.4058 9.99991 12.4153 10.0177 12.4293 10.0317C12.4433 10.0457 12.4611 10.0552 12.4805 10.0591C12.4999 10.0629 12.52 10.061 12.5383 10.0534C12.5565 10.0458 12.5722 10.033 12.5831 10.0166C12.5941 10.0001 12.6 9.98078 12.6 9.961V9.95C12.6 9.93852 12.5972 9.92722 12.592 9.917C12.5836 9.89986 12.5705 9.88548 12.5542 9.87556C12.5379 9.86563 12.5191 9.86058 12.5 9.861Z" stroke="#00303E" stroke-linecap="round" stroke-linejoin="round"/>
<path d="M6.5 8.86099C6.48022 8.86099 6.46089 8.86686 6.44444 8.87785C6.428 8.88883 6.41518 8.90445 6.40761 8.92272C6.40004 8.941 6.39806 8.9611 6.40192 8.9805C6.40578 8.9999 6.41531 9.01772 6.42929 9.0317C6.44328 9.04569 6.46109 9.05521 6.48049 9.05907C6.49989 9.06293 6.52 9.06095 6.53827 9.05338C6.55654 9.04581 6.57216 9.03299 6.58315 9.01655C6.59414 9.0001 6.6 8.98077 6.6 8.96099C6.6 8.93447 6.58947 8.90904 6.57071 8.89028C6.55196 8.87153 6.52652 8.86099 6.5 8.86099Z" stroke="#00303E" stroke-linecap="round" stroke-linejoin="round"/>
<path d="M10.5 8.86099C10.4802 8.86099 10.4609 8.86686 10.4444 8.87785C10.428 8.88883 10.4152 8.90445 10.4076 8.92272C10.4 8.941 10.3981 8.9611 10.4019 8.9805C10.4058 8.9999 10.4153 9.01772 10.4293 9.0317C10.4433 9.04569 10.4611 9.05521 10.4805 9.05907C10.4999 9.06293 10.52 9.06095 10.5383 9.05338C10.5565 9.04581 10.5722 9.03299 10.5831 9.01655C10.5941 9.0001 10.6 8.98077 10.6 8.96099C10.6 8.93447 10.5895 8.90904 10.5707 8.89028C10.552 8.87153 10.5265 8.86099 10.5 8.86099Z" stroke="#00303E" stroke-linecap="round" stroke-linejoin="round"/>
<path d="M10.5 10.861C10.4802 10.861 10.4609 10.8669 10.4444 10.8778C10.428 10.8888 10.4152 10.9045 10.4076 10.9227C10.4 10.941 10.3981 10.9611 10.4019 10.9805C10.4058 10.9999 10.4153 11.0177 10.4293 11.0317C10.4433 11.0457 10.4611 11.0552 10.4805 11.0591C10.4999 11.0629 10.52 11.0609 10.5383 11.0534C10.5565 11.0458 10.5722 11.033 10.5831 11.0165C10.5941 11.0001 10.6 10.9808 10.6 10.961C10.6 10.9345 10.5895 10.909 10.5707 10.8903C10.552 10.8715 10.5265 10.861 10.5 10.861Z" stroke="#00303E" stroke-linecap="round" stroke-linejoin="round"/>
<path d="M10.5 12.861C10.4802 12.861 10.4609 12.8669 10.4444 12.8778C10.428 12.8888 10.4152 12.9045 10.4076 12.9227C10.4 12.941 10.3981 12.9611 10.4019 12.9805C10.4058 12.9999 10.4153 13.0177 10.4293 13.0317C10.4433 13.0457 10.4611 13.0552 10.4805 13.0591C10.4999 13.0629 10.52 13.0609 10.5383 13.0534C10.5565 13.0458 10.5722 13.033 10.5831 13.0165C10.5941 13.0001 10.6 12.9808 10.6 12.961C10.6 12.9345 10.5895 12.909 10.5707 12.8903C10.552 12.8715 10.5265 12.861 10.5 12.861Z" stroke="#00303E" stroke-linecap="round" stroke-linejoin="round"/>
<path d="M10.5 14.861C10.4802 14.861 10.4609 14.8669 10.4444 14.8778C10.428 14.8888 10.4152 14.9045 10.4076 14.9227C10.4 14.941 10.3981 14.9611 10.4019 14.9805C10.4058 14.9999 10.4153 15.0177 10.4293 15.0317C10.4433 15.0457 10.4611 15.0552 10.4805 15.0591C10.4999 15.0629 10.52 15.0609 10.5383 15.0534C10.5565 15.0458 10.5722 15.033 10.5831 15.0165C10.5941 15.0001 10.6 14.9808 10.6 14.961C10.6 14.9345 10.5895 14.909 10.5707 14.8903C10.552 14.8715 10.5265 14.861 10.5 14.861Z" stroke="#00303E" stroke-linecap="round" stroke-linejoin="round"/>
<path d="M6.5 10.861C6.48022 10.861 6.46089 10.8669 6.44444 10.8778C6.428 10.8888 6.41518 10.9045 6.40761 10.9227C6.40004 10.941 6.39806 10.9611 6.40192 10.9805C6.40578 10.9999 6.41531 11.0177 6.42929 11.0317C6.44328 11.0457 6.46109 11.0552 6.48049 11.0591C6.49989 11.0629 6.52 11.0609 6.53827 11.0534C6.55654 11.0458 6.57216 11.033 6.58315 11.0165C6.59414 11.0001 6.6 10.9808 6.6 10.961C6.6 10.9345 6.58947 10.909 6.57071 10.8903C6.55196 10.8715 6.52652 10.861 6.5 10.861Z" stroke="#00303E" stroke-linecap="round" stroke-linejoin="round"/>
<path d="M6.5 12.861C6.48022 12.861 6.46089 12.8669 6.44444 12.8778C6.428 12.8888 6.41518 12.9045 6.40761 12.9227C6.40004 12.941 6.39806 12.9611 6.40192 12.9805C6.40578 12.9999 6.41531 13.0177 6.42929 13.0317C6.44328 13.0457 6.46109 13.0552 6.48049 13.0591C6.49989 13.0629 6.52 13.0609 6.53827 13.0534C6.55654 13.0458 6.57216 13.033 6.58315 13.0165C6.59414 13.0001 6.6 12.9808 6.6 12.961C6.6 12.9345 6.58947 12.909 6.57071 12.8903C6.55196 12.8715 6.52652 12.861 6.5 12.861Z" stroke="#00303E" stroke-linecap="round" stroke-linejoin="round"/>
<path d="M6.5 14.861C6.48022 14.861 6.46089 14.8669 6.44444 14.8778C6.428 14.8888 6.41518 14.9045 6.40761 14.9227C6.40004 14.941 6.39806 14.9611 6.40192 14.9805C6.40578 14.9999 6.41531 15.0177 6.42929 15.0317C6.44328 15.0457 6.46109 15.0552 6.48049 15.0591C6.49989 15.0629 6.52 15.0609 6.53827 15.0534C6.55654 15.0458 6.57216 15.033 6.58315 15.0165C6.59414 15.0001 6.6 14.9808 6.6 14.961C6.6 14.9345 6.58947 14.909 6.57071 14.8903C6.55196 14.8715 6.52652 14.861 6.5 14.861Z" stroke="#00303E" stroke-linecap="round" stroke-linejoin="round"/>
<path d="M8.5 9.86099C8.48022 9.86099 8.46089 9.86686 8.44444 9.87785C8.428 9.88883 8.41518 9.90445 8.40761 9.92272C8.40004 9.941 8.39806 9.9611 8.40192 9.9805C8.40578 9.9999 8.41531 10.0177 8.42929 10.0317C8.44328 10.0457 8.46109 10.0552 8.48049 10.0591C8.49989 10.0629 8.52 10.0609 8.53827 10.0534C8.55654 10.0458 8.57216 10.033 8.58315 10.0165C8.59414 10.0001 8.6 9.98077 8.6 9.96099C8.6 9.93447 8.58947 9.90904 8.57071 9.89028C8.55196 9.87153 8.52652 9.86099 8.5 9.86099Z" stroke="#00303E" stroke-linecap="round" stroke-linejoin="round"/>
<path d="M8.5 7.86099C8.48022 7.86099 8.46089 7.86686 8.44444 7.87785C8.428 7.88883 8.41518 7.90445 8.40761 7.92272C8.40004 7.941 8.39806 7.9611 8.40192 7.9805C8.40578 7.9999 8.41531 8.01772 8.42929 8.0317C8.44328 8.04569 8.46109 8.05521 8.48049 8.05907C8.49989 8.06293 8.52 8.06095 8.53827 8.05338C8.55654 8.04581 8.57216 8.03299 8.58315 8.01655C8.59414 8.0001 8.6 7.98077 8.6 7.96099C8.6 7.93447 8.58947 7.90904 8.57071 7.89028C8.55196 7.87153 8.52652 7.86099 8.5 7.86099Z" stroke="#00303E" stroke-linecap="round" stroke-linejoin="round"/>
<path d="M8.5 11.861C8.48022 11.861 8.46089 11.8669 8.44444 11.8778C8.428 11.8888 8.41518 11.9045 8.40761 11.9227C8.40004 11.941 8.39806 11.9611 8.40192 11.9805C8.40578 11.9999 8.41531 12.0177 8.42929 12.0317C8.44328 12.0457 8.46109 12.0552 8.48049 12.0591C8.49989 12.0629 8.52 12.0609 8.53827 12.0534C8.55654 12.0458 8.57216 12.033 8.58315 12.0165C8.59414 12.0001 8.6 11.9808 8.6 11.961C8.6 11.9345 8.58947 11.909 8.57071 11.8903C8.55196 11.8715 8.52652 11.861 8.5 11.861Z" stroke="#00303E" stroke-linecap="round" stroke-linejoin="round"/>
<path d="M8.5 13.861C8.48022 13.861 8.46089 13.8669 8.44444 13.8778C8.428 13.8888 8.41518 13.9045 8.40761 13.9227C8.40004 13.941 8.39806 13.9611 8.40192 13.9805C8.40578 13.9999 8.41531 14.0177 8.42929 14.0317C8.44328 14.0457 8.46109 14.0552 8.48049 14.0591C8.49989 14.0629 8.52 14.0609 8.53827 14.0534C8.55654 14.0458 8.57216 14.033 8.58315 14.0165C8.59414 14.0001 8.6 13.9808 8.6 13.961C8.6 13.9345 8.58947 13.909 8.57071 13.8903C8.55196 13.8715 8.52652 13.861 8.5 13.861Z" stroke="#00303E" stroke-linecap="round" stroke-linejoin="round"/>
<path d="M8.5 15.861C8.48022 15.861 8.46089 15.8669 8.44444 15.8778C8.428 15.8888 8.41518 15.9045 8.40761 15.9227C8.40004 15.941 8.39806 15.9611 8.40192 15.9805C8.40578 15.9999 8.41531 16.0177 8.42929 16.0317C8.44328 16.0457 8.46109 16.0552 8.48049 16.0591C8.49989 16.0629 8.52 16.0609 8.53827 16.0534C8.55654 16.0458 8.57216 16.033 8.58315 16.0166C8.59414 16.0001 8.6 15.9808 8.6 15.961C8.6 15.9345 8.58947 15.909 8.57071 15.8903C8.55196 15.8715 8.52652 15.861 8.5 15.861Z" stroke="#00303E" stroke-linecap="round" stroke-linejoin="round"/>
<path d="M4.5 11.861C4.48022 11.861 4.46089 11.8669 4.44444 11.8778C4.428 11.8888 4.41518 11.9045 4.40761 11.9227C4.40004 11.941 4.39806 11.9611 4.40192 11.9805C4.40578 11.9999 4.41531 12.0177 4.42929 12.0317C4.44328 12.0457 4.46109 12.0552 4.48049 12.0591C4.49989 12.0629 4.52 12.0609 4.53827 12.0534C4.55654 12.0458 4.57216 12.033 4.58315 12.0165C4.59414 12.0001 4.6 11.9808 4.6 11.961C4.6 11.9345 4.58947 11.909 4.57071 11.8903C4.55196 11.8715 4.52652 11.861 4.5 11.861Z" stroke="#00303E" stroke-linecap="round" stroke-linejoin="round"/>
<path d="M4.5 13.861C4.47348 13.861 4.44804 13.8715 4.42929 13.8903C4.41054 13.909 4.4 13.9345 4.4 13.961C4.40012 13.9802 4.40493 13.9991 4.414 14.016C4.42116 14.0297 4.43195 14.0411 4.44518 14.049C4.45841 14.057 4.47357 14.0611 4.489 14.061H4.5C4.52652 14.061 4.55196 14.0505 4.57071 14.0317C4.58947 14.0129 4.6 13.9875 4.6 13.961C4.6 13.9345 4.58947 13.909 4.57071 13.8903C4.55196 13.8715 4.52652 13.861 4.5 13.861Z" stroke="#00303E" stroke-linecap="round" stroke-linejoin="round"/>
<path d="M4.5 9.861H4.489C4.4735 9.86053 4.4582 9.86453 4.4449 9.87251C4.43161 9.88048 4.42088 9.89211 4.414 9.906C4.40301 9.92231 4.39678 9.94135 4.396 9.961C4.396 9.98078 4.40187 10.0001 4.41285 10.0166C4.42384 10.033 4.43946 10.0458 4.45773 10.0534C4.476 10.061 4.49611 10.0629 4.51551 10.0591C4.53491 10.0552 4.55273 10.0457 4.56671 10.0317C4.5807 10.0177 4.59022 9.9999 4.59408 9.98051C4.59794 9.96111 4.59596 9.941 4.58839 9.92273C4.58082 9.90446 4.568 9.88884 4.55156 9.87785C4.53511 9.86686 4.51578 9.861 4.496 9.861" stroke="#00303E" stroke-linecap="round" stroke-linejoin="round"/>
</svg>
