<svg width="24" height="24" viewBox="0 0 24 24" fill="none" xmlns="http://www.w3.org/2000/svg">
<path d="M21.5 4H2.5C1.97005 4.00158 1.46227 4.2128 1.08753 4.58753C0.712805 4.96227 0.501583 5.47005 0.5 6V18C0.501583 18.5299 0.712805 19.0377 1.08753 19.4125C1.46227 19.7872 1.97005 19.9984 2.5 20H21.5C22.0304 20 22.5391 19.7893 22.9142 19.4142C23.2893 19.0391 23.5 18.5304 23.5 18V6C23.5 5.46957 23.2893 4.96086 22.9142 4.58579C22.5391 4.21071 22.0304 4 21.5 4Z" fill="#9FEAFF"/>
<path d="M2.5 4C1.97005 4.00158 1.46227 4.2128 1.08753 4.58753C0.712805 4.96227 0.501583 5.47005 0.5 6V18C0.501878 18.4676 0.667119 18.9198 0.967142 19.2784C1.26716 19.6371 1.6831 19.8796 2.143 19.964L18.11 4H2.5Z" fill="#DFF9FF"/>
<path d="M23.5 6V8H0.5V6C0.501583 5.47005 0.712805 4.96227 1.08753 4.58753C1.46227 4.2128 1.97005 4.00158 2.5 4H21.5C22.0304 4 22.5391 4.21071 22.9142 4.58579C23.2893 4.96086 23.5 5.46957 23.5 6Z" stroke="#00303E" stroke-linecap="round" stroke-linejoin="round"/>
<path d="M23.5 8V18C23.5 18.5304 23.2893 19.0391 22.9142 19.4142C22.5391 19.7893 22.0304 20 21.5 20H2.5C1.97005 19.9984 1.46227 19.7872 1.08753 19.4125C0.712805 19.0377 0.501583 18.5299 0.5 18V8H23.5Z" stroke="#00303E" stroke-linecap="round" stroke-linejoin="round"/>
<path d="M20.508 12H17.508" stroke="#00303E" stroke-linecap="round" stroke-linejoin="round"/>
<path d="M11.508 12H3.508" stroke="#00303E" stroke-linecap="round" stroke-linejoin="round"/>
<path d="M6.508 15H3.508" stroke="#00303E" stroke-linecap="round" stroke-linejoin="round"/>
</svg>
