<svg width="24" height="24" viewBox="0 0 24 24" fill="none" xmlns="http://www.w3.org/2000/svg">
<g clip-path="url(#clip0_3303_11221)">
<path d="M22.5 0.5H16.5C16.2348 0.5 15.9804 0.605357 15.7929 0.792893C15.6054 0.98043 15.5 1.23478 15.5 1.5V10.5C15.5 10.7652 15.6054 11.0196 15.7929 11.2071C15.9804 11.3946 16.2348 11.5 16.5 11.5H22.5C22.7652 11.5 23.0196 11.3946 23.2071 11.2071C23.3946 11.0196 23.5 10.7652 23.5 10.5V1.5C23.5 1.23478 23.3946 0.98043 23.2071 0.792893C23.0196 0.605357 22.7652 0.5 22.5 0.5Z" fill="#9FEAFF"/>
<path d="M23.2 0.789C23.014 0.60398 22.7623 0.500082 22.5 0.5H16.5C16.2348 0.5 15.9804 0.605357 15.7929 0.792893C15.6054 0.98043 15.5 1.23478 15.5 1.5V8.492L23.2 0.789Z" fill="#DFF9FF"/>
<path d="M0.5 7.5H13.5V11.5H0.5V7.5Z" fill="#9FEAFF"/>
<path d="M0.5 7.5V11.5H3.733L7.733 7.5H0.5Z" fill="#DFF9FF"/>
<path d="M0.5 7.5V5.5C0.5 5.23478 0.605357 4.98043 0.792893 4.79289C0.98043 4.60536 1.23478 4.5 1.5 4.5H12.5C12.7652 4.5 13.0196 4.60536 13.2071 4.79289C13.3946 4.98043 13.5 5.23478 13.5 5.5V7.5H0.5Z" fill="#9FEAFF"/>
<path d="M12.5 4.5C12.7652 4.5 13.0196 4.60536 13.2071 4.79289C13.3946 4.98043 13.5 5.23478 13.5 5.5V7.5" stroke="#00303E" stroke-linecap="round" stroke-linejoin="round"/>
<path d="M0.5 7.5H13.5V11.5H0.5V7.5Z" stroke="#00303E" stroke-linecap="round" stroke-linejoin="round"/>
<path d="M13.5 11.5V21.5C13.4984 22.0299 13.2872 22.5377 12.9125 22.9125C12.5377 23.2872 12.0299 23.4984 11.5 23.5H2.5C1.97005 23.4984 1.46227 23.2872 1.08753 22.9125C0.712805 22.5377 0.501583 22.0299 0.5 21.5V11.5H13.5Z" fill="#DFF9FF"/>
<path d="M11.5 21.315H2.5C1.97005 21.3134 1.46227 21.1022 1.08753 20.7275C0.712805 20.3527 0.501583 19.8449 0.5 19.315V21.5C0.501583 22.0299 0.712805 22.5377 1.08753 22.9125C1.46227 23.2872 1.97005 23.4984 2.5 23.5H11.5C12.0299 23.4984 12.5377 23.2872 12.9125 22.9125C13.2872 22.5377 13.4984 22.0299 13.5 21.5V19.315C13.4984 19.8449 13.2872 20.3527 12.9125 20.7275C12.5377 21.1022 12.0299 21.3134 11.5 21.315Z" fill="#9FEAFF"/>
<path d="M13.5 11.5V21.5C13.4984 22.0299 13.2872 22.5377 12.9125 22.9125C12.5377 23.2872 12.0299 23.4984 11.5 23.5H2.5C1.97005 23.4984 1.46227 23.2872 1.08753 22.9125C0.712805 22.5377 0.501583 22.0299 0.5 21.5V11.5H13.5Z" stroke="#00303E" stroke-linecap="round" stroke-linejoin="round"/>
<path d="M0.5 7.5V5.5C0.5 5.23478 0.605357 4.98043 0.792893 4.79289C0.98043 4.60536 1.23478 4.5 1.5 4.5" stroke="#00303E" stroke-linecap="round" stroke-linejoin="round"/>
<path d="M2.5 18.5H3.5" stroke="#00303E" stroke-linecap="round" stroke-linejoin="round"/>
<path d="M5.5 18.5H6.5" stroke="#00303E" stroke-linecap="round" stroke-linejoin="round"/>
<path d="M8.5 18.5H9.5" stroke="#00303E" stroke-linecap="round" stroke-linejoin="round"/>
<path d="M2.5 20.5H3.5" stroke="#00303E" stroke-linecap="round" stroke-linejoin="round"/>
<path d="M5.5 20.5H6.5" stroke="#00303E" stroke-linecap="round" stroke-linejoin="round"/>
<path d="M8.5 20.5H9.5" stroke="#00303E" stroke-linecap="round" stroke-linejoin="round"/>
<path d="M2.5 16.5H3.5" stroke="#00303E" stroke-linecap="round" stroke-linejoin="round"/>
<path d="M5.5 16.5H6.5" stroke="#00303E" stroke-linecap="round" stroke-linejoin="round"/>
<path d="M8.5 16.5H9.5" stroke="#00303E" stroke-linecap="round" stroke-linejoin="round"/>
<path d="M2.5 14.5H4.5" stroke="#00303E" stroke-linecap="round" stroke-linejoin="round"/>
<path d="M6.5 14.5H7.5" stroke="#00303E" stroke-linecap="round" stroke-linejoin="round"/>
<path d="M9.5 14.5H11.5" stroke="#00303E" stroke-linecap="round" stroke-linejoin="round"/>
<path d="M11.5 20.5V16.5" stroke="#00303E" stroke-linecap="round" stroke-linejoin="round"/>
<path d="M3.5 7.50001V1.30801C3.49965 1.22219 3.5214 1.13773 3.56315 1.06275C3.6049 0.987778 3.66524 0.924808 3.73837 0.879905C3.8115 0.835002 3.89496 0.809677 3.98071 0.806367C4.06646 0.803057 4.15163 0.821874 4.228 0.861007L5.5 1.50001L6.727 0.684007C6.80906 0.6294 6.90543 0.600266 7.004 0.600266C7.10257 0.600266 7.19894 0.6294 7.281 0.684007L8.5 1.50001L9.78 0.861007C9.85623 0.822809 9.94096 0.804739 10.0261 0.808514C10.1113 0.81229 10.1941 0.837786 10.2667 0.882579C10.3392 0.927371 10.3991 0.989973 10.4407 1.06443C10.4822 1.1389 10.504 1.22274 10.504 1.30801V7.50001H3.5Z" fill="white"/>
<path d="M3.5 7.50001V1.30801C3.49965 1.22219 3.5214 1.13773 3.56315 1.06275C3.6049 0.987778 3.66524 0.924808 3.73837 0.879905C3.8115 0.835002 3.89496 0.809677 3.98071 0.806367C4.06646 0.803057 4.15163 0.821874 4.228 0.861007L5.5 1.50001L6.727 0.684007C6.80906 0.6294 6.90543 0.600266 7.004 0.600266C7.10257 0.600266 7.19894 0.6294 7.281 0.684007L8.5 1.50001L9.78 0.861007C9.85623 0.822809 9.94096 0.804739 10.0261 0.808514C10.1113 0.81229 10.1941 0.837786 10.2667 0.882579C10.3392 0.927371 10.3991 0.989973 10.4407 1.06443C10.4822 1.1389 10.504 1.22274 10.504 1.30801V7.50001H3.5Z" stroke="#00303E" stroke-linecap="round" stroke-linejoin="round"/>
<path d="M5.5 3.5H8.5" stroke="#00303E" stroke-linecap="round" stroke-linejoin="round"/>
<path d="M5.5 5.5H6.5" stroke="#00303E" stroke-linecap="round" stroke-linejoin="round"/>
<path d="M18.5 0.5V11.5H16.5C16.2348 11.5 15.9804 11.3946 15.7929 11.2071C15.6054 11.0196 15.5 10.7652 15.5 10.5V1.5C15.5 1.23478 15.6054 0.98043 15.7929 0.792893C15.9804 0.605357 16.2348 0.5 16.5 0.5H18.5Z" stroke="#00303E" stroke-linecap="round" stroke-linejoin="round"/>
<path d="M23.5 1.5V10.5C23.5 10.7652 23.3946 11.0196 23.2071 11.2071C23.0196 11.3946 22.7652 11.5 22.5 11.5H18.5V0.5H22.5C22.7652 0.5 23.0196 0.605357 23.2071 0.792893C23.3946 0.98043 23.5 1.23478 23.5 1.5Z" stroke="#00303E" stroke-linecap="round" stroke-linejoin="round"/>
<path d="M21.5 4V2.5" stroke="#00303E" stroke-linecap="round" stroke-linejoin="round"/>
<path d="M17.5 17.5L19.5 19.5L21.5 17.5" stroke="#00303E" stroke-linecap="round" stroke-linejoin="round"/>
<path d="M19.5 19.5V14.5" stroke="#00303E" stroke-linecap="round" stroke-linejoin="round"/>
</g>
<defs>
<clipPath id="clip0_3303_11221">
<rect width="24" height="24" fill="white"/>
</clipPath>
</defs>
</svg>
