<svg width="24" height="24" viewBox="0 0 24 24" fill="none" xmlns="http://www.w3.org/2000/svg">
<g clip-path="url(#clip0_3303_11400)">
<path d="M10.5 14.44V19.2H0.5V14.44C0.5 14.1748 0.605357 13.9204 0.792893 13.7329C0.98043 13.5454 1.23478 13.44 1.5 13.44H9.5C9.76522 13.44 10.0196 13.5454 10.2071 13.7329C10.3946 13.9204 10.5 14.1748 10.5 14.44Z" fill="#9FEAFF"/>
<path d="M0.5 14.44V19.2H1.834L7.594 13.44H1.5C1.23478 13.44 0.98043 13.5454 0.792893 13.7329C0.605357 13.9204 0.5 14.1748 0.5 14.44Z" fill="#DFF9FF"/>
<path d="M12.5 12.48C14.0593 12.5111 15.5671 11.9219 16.6921 10.8418C17.8172 9.76176 18.4674 8.27923 18.5 6.72C18.4674 5.16077 17.8172 3.67824 16.6921 2.59819C15.5671 1.51814 14.0593 0.928916 12.5 0.960002C10.9407 0.928916 9.43292 1.51814 8.30786 2.59819C7.1828 3.67824 6.53256 5.16077 6.5 6.72C6.53256 8.27923 7.1828 9.76176 8.30786 10.8418C9.43292 11.9219 10.9407 12.5111 12.5 12.48Z" fill="#9FEAFF"/>
<path d="M12.5 0.960002C10.9407 0.928916 9.43292 1.51814 8.30786 2.59819C7.1828 3.67824 6.53256 5.16077 6.5 6.72C6.50189 7.48138 6.65822 8.23446 6.95953 8.93368C7.26084 9.63291 7.70087 10.2637 8.253 10.788L16.553 2.488C15.4339 1.5009 13.9922 0.957399 12.5 0.960002Z" fill="#DFF9FF"/>
<path d="M12.5 12.48C14.0593 12.5111 15.5671 11.9219 16.6921 10.8418C17.8172 9.76176 18.4674 8.27923 18.5 6.72C18.4674 5.16077 17.8172 3.67824 16.6921 2.59819C15.5671 1.51814 14.0593 0.928916 12.5 0.960002C10.9407 0.928916 9.43292 1.51814 8.30786 2.59819C7.1828 3.67824 6.53256 5.16077 6.5 6.72C6.53256 8.27923 7.1828 9.76176 8.30786 10.8418C9.43292 11.9219 10.9407 12.5111 12.5 12.48Z" stroke="#00303E" stroke-linecap="round" stroke-linejoin="round"/>
<path d="M14.75 5.28C14.7419 5.66981 14.5793 6.04044 14.298 6.31045C14.0168 6.58047 13.6398 6.72777 13.25 6.72H10.75V3.84H13.25C13.6398 3.83223 14.0168 3.97953 14.298 4.24955C14.5793 4.51956 14.7419 4.89019 14.75 5.28Z" stroke="#00303E" stroke-linecap="round" stroke-linejoin="round"/>
<path d="M14.75 8.16C14.7419 8.5498 14.5793 8.92044 14.298 9.19045C14.0168 9.46046 13.6398 9.60777 13.25 9.6H10.75V6.72H13.25C13.6398 6.71222 14.0168 6.85953 14.298 7.12954C14.5793 7.39956 14.7419 7.77019 14.75 8.16Z" stroke="#00303E" stroke-linecap="round" stroke-linejoin="round"/>
<path d="M12.254 2.88V3.84" stroke="#00303E" stroke-linecap="round" stroke-linejoin="round"/>
<path d="M12.254 9.6V10.56" stroke="#00303E" stroke-linecap="round" stroke-linejoin="round"/>
<path d="M10.5 14.44V19.2H0.5V14.44C0.5 14.1748 0.605357 13.9204 0.792893 13.7329C0.98043 13.5454 1.23478 13.44 1.5 13.44H9.5C9.76522 13.44 10.0196 13.5454 10.2071 13.7329C10.3946 13.9204 10.5 14.1748 10.5 14.44Z" stroke="#00303E" stroke-linecap="round" stroke-linejoin="round"/>
<path d="M23.5 14.44V19.2H13.5V14.44C13.5 14.1748 13.6054 13.9204 13.7929 13.7329C13.9804 13.5454 14.2348 13.44 14.5 13.44H22.5C22.7652 13.44 23.0196 13.5454 23.2071 13.7329C23.3946 13.9204 23.5 14.1748 23.5 14.44Z" fill="#9FEAFF"/>
<path d="M13.5 14.44V19.2H14.834L20.594 13.44H14.5C14.2348 13.44 13.9804 13.5454 13.7929 13.7329C13.6054 13.9204 13.5 14.1748 13.5 14.44Z" fill="#DFF9FF"/>
<path d="M23.5 14.44V19.2H13.5V14.44C13.5 14.1748 13.6054 13.9204 13.7929 13.7329C13.9804 13.5454 14.2348 13.44 14.5 13.44H22.5C22.7652 13.44 23.0196 13.5454 23.2071 13.7329C23.3946 13.9204 23.5 14.1748 23.5 14.44Z" stroke="#00303E" stroke-linecap="round" stroke-linejoin="round"/>
<path d="M10.5 19.2V20.12C10.5 20.3852 10.3946 20.6396 10.2071 20.8271C10.0196 21.0146 9.76522 21.12 9.5 21.12H1.5C1.23478 21.12 0.98043 21.0146 0.792893 20.8271C0.605357 20.6396 0.5 20.3852 0.5 20.12V19.2H10.5Z" fill="white" stroke="#00303E" stroke-linecap="round" stroke-linejoin="round"/>
<path d="M5.5 21.12V23.04" stroke="#00303E" stroke-linecap="round" stroke-linejoin="round"/>
<path d="M3.5 23.04H7.5" stroke="#00303E" stroke-linecap="round" stroke-linejoin="round"/>
<path d="M23.5 19.2V20.12C23.5 20.3852 23.3946 20.6396 23.2071 20.8271C23.0196 21.0146 22.7652 21.12 22.5 21.12H14.5C14.2348 21.12 13.9804 21.0146 13.7929 20.8271C13.6054 20.6396 13.5 20.3852 13.5 20.12V19.2H23.5Z" fill="white" stroke="#00303E" stroke-linecap="round" stroke-linejoin="round"/>
<path d="M18.5 21.12V23.04" stroke="#00303E" stroke-linecap="round" stroke-linejoin="round"/>
<path d="M16.5 23.04H20.5" stroke="#00303E" stroke-linecap="round" stroke-linejoin="round"/>
</g>
<defs>
<clipPath id="clip0_3303_11400">
<rect width="24" height="24" fill="white"/>
</clipPath>
</defs>
</svg>
