<svg width="24" height="24" viewBox="0 0 24 24" fill="none" xmlns="http://www.w3.org/2000/svg">
<path d="M3.5 3.5H20.5C20.7652 3.5 21.0196 3.60536 21.2071 3.79289C21.3946 3.98043 21.5 4.23478 21.5 4.5V17.5H2.5V4.5C2.5 4.23478 2.60536 3.98043 2.79289 3.79289C2.98043 3.60536 3.23478 3.5 3.5 3.5Z" fill="#9FEAFF"/>
<path d="M18.639 3.5H3.5C3.23478 3.5 2.98043 3.60536 2.79289 3.79289C2.60536 3.98043 2.5 4.23478 2.5 4.5V17.5H4.639L18.639 3.5Z" fill="#DFF9FF"/>
<path d="M3.5 3.5H20.5C20.7652 3.5 21.0196 3.60536 21.2071 3.79289C21.3946 3.98043 21.5 4.23478 21.5 4.5V17.5H2.5V4.5C2.5 4.23478 2.60536 3.98043 2.79289 3.79289C2.98043 3.60536 3.23478 3.5 3.5 3.5Z" stroke="#00303E" stroke-linecap="round" stroke-linejoin="round"/>
<path d="M11 5.52V7.5" stroke="#00303E" stroke-linecap="round" stroke-linejoin="round"/>
<path d="M13 5.52V7.5" stroke="#00303E" stroke-linecap="round" stroke-linejoin="round"/>
<path d="M11 13.52V15.5" stroke="#00303E" stroke-linecap="round" stroke-linejoin="round"/>
<path d="M13 13.52V15.5" stroke="#00303E" stroke-linecap="round" stroke-linejoin="round"/>
<path d="M15 9C15 9.39782 14.842 9.77936 14.5607 10.0607C14.2794 10.342 13.8978 10.5 13.5 10.5H10V7.5H13.5C13.8978 7.5 14.2794 7.65804 14.5607 7.93934C14.842 8.22064 15 8.60218 15 9Z" stroke="#00303E" stroke-linecap="round" stroke-linejoin="round"/>
<path d="M15 12C15 12.3978 14.842 12.7794 14.5607 13.0607C14.2794 13.342 13.8978 13.5 13.5 13.5H10V10.5H13.5C13.8978 10.5 14.2794 10.658 14.5607 10.9393C14.842 11.2206 15 11.6022 15 12Z" stroke="#00303E" stroke-linecap="round" stroke-linejoin="round"/>
<path d="M21.307 20.5H2.7C2.2257 20.5012 1.7664 20.3339 1.40408 20.0278C1.04177 19.7217 0.80002 19.2968 0.721999 18.829L0.599999 18.082C0.588136 18.0107 0.591893 17.9376 0.611011 17.8678C0.63013 17.7981 0.664155 17.7333 0.710738 17.678C0.757321 17.6226 0.815353 17.5781 0.880831 17.5473C0.946309 17.5166 1.01767 17.5005 1.09 17.5H22.91C22.9826 17.5 23.0543 17.5159 23.1201 17.5464C23.186 17.5769 23.2444 17.6214 23.2913 17.6768C23.3382 17.7322 23.3725 17.7971 23.3918 17.8671C23.4111 17.9371 23.4149 18.0104 23.403 18.082L23.278 18.829C23.2002 19.2957 22.9594 19.7196 22.5986 20.0255C22.2377 20.3315 21.7801 20.4996 21.307 20.5Z" fill="#DFF9FF" stroke="#00303E" stroke-linecap="round" stroke-linejoin="round"/>
</svg>
