<svg width="24" height="24" viewBox="0 0 24 24" fill="none" xmlns="http://www.w3.org/2000/svg">
<g clip-path="url(#clip0_3303_11529)">
<path d="M12.249 23.5C9.19901 23.5 6.27394 22.2884 4.11727 20.1317C1.9606 17.9751 0.749001 15.05 0.749001 12C0.749001 8.95001 1.9606 6.02494 4.11727 3.86827C6.27394 1.7116 9.19901 0.5 12.249 0.5H12.749V23.5H12.249Z" fill="#DFF9FF"/>
<path d="M1.15 9C0.690816 10.7046 0.630007 12.4921 0.972281 14.224C1.31456 15.9559 2.05073 17.5858 3.12384 18.9876C4.19695 20.3894 5.57822 21.5255 7.16074 22.308C8.74326 23.0905 10.4846 23.4983 12.25 23.5H12.75V17.5H12.25C9.72316 17.4988 7.267 16.6657 5.26081 15.1294C3.25462 13.5931 1.80999 11.4391 1.15 9Z" fill="#9FEAFF"/>
<path d="M2.147 17.5H12.747" stroke="#00303E" stroke-linecap="round" stroke-linejoin="round"/>
<path d="M2.147 6.5H12.747" stroke="#00303E" stroke-linecap="round" stroke-linejoin="round"/>
<path d="M0.759998 11.5H12.749" stroke="#00303E" stroke-linecap="round" stroke-linejoin="round"/>
<path d="M11.807 23.492C8.86592 20.3903 7.23345 16.2744 7.249 12C7.23289 7.72533 8.86585 3.6091 11.808 0.508003" stroke="#00303E" stroke-linecap="round" stroke-linejoin="round"/>
<path d="M23.249 4.5H19.349C18.441 4.51395 17.5758 4.888 16.9436 5.53987C16.3114 6.19174 15.9641 7.06804 15.978 7.976C15.9741 8.61538 16.1459 9.24355 16.4746 9.79197C16.8033 10.3404 17.2763 10.788 17.842 11.086L21.387 12.914C21.9527 13.212 22.4257 13.6596 22.7544 14.208C23.0831 14.7565 23.2549 15.3846 23.251 16.024C23.258 16.4738 23.1763 16.9205 23.0105 17.3387C22.8448 17.7569 22.5982 18.1383 22.285 18.4611C21.9717 18.7839 21.5979 19.0419 21.1849 19.2201C20.7719 19.3984 20.3278 19.4935 19.878 19.5H15.978" stroke="#00303E" stroke-linecap="round" stroke-linejoin="round"/>
<path d="M18.749 19.5V22.227" stroke="#00303E" stroke-linecap="round" stroke-linejoin="round"/>
<path d="M20.749 1.773V4.5" stroke="#00303E" stroke-linecap="round" stroke-linejoin="round"/>
<path d="M12.249 23.5C9.19901 23.5 6.27394 22.2884 4.11727 20.1317C1.9606 17.9751 0.749001 15.05 0.749001 12C0.749001 8.95001 1.9606 6.02494 4.11727 3.86827C6.27394 1.7116 9.19901 0.5 12.249 0.5H12.749V23.5H12.249Z" stroke="#00303E" stroke-linecap="round" stroke-linejoin="round"/>
</g>
<defs>
<clipPath id="clip0_3303_11529">
<rect width="24" height="24" fill="white"/>
</clipPath>
</defs>
</svg>
