<svg width="24" height="24" viewBox="0 0 24 24" fill="none" xmlns="http://www.w3.org/2000/svg">
<g clip-path="url(#clip0_3303_11513)">
<path d="M12 23.5C14.2745 23.5 16.4979 22.8255 18.3891 21.5619C20.2802 20.2983 21.7542 18.5022 22.6246 16.4009C23.495 14.2995 23.7228 11.9872 23.279 9.75646C22.8353 7.52568 21.74 5.47657 20.1317 3.86827C18.5234 2.25997 16.4743 1.1647 14.2435 0.720967C12.0128 0.277237 9.70049 0.504975 7.59914 1.37538C5.49779 2.24579 3.70174 3.71977 2.4381 5.61094C1.17446 7.50211 0.5 9.72551 0.5 12C0.5 15.05 1.7116 17.9751 3.86827 20.1317C6.02494 22.2884 8.95001 23.5 12 23.5Z" fill="#9FEAFF"/>
<path d="M12 0.500001C9.70843 0.500192 7.46916 1.185 5.56947 2.46659C3.66977 3.74817 2.19628 5.56809 1.338 7.69286C0.479734 9.81764 0.275827 12.1504 0.752443 14.3918C1.22906 16.6333 2.36446 18.6813 4.013 20.273L20.273 4.013C19.2018 2.90039 17.9167 2.01569 16.4951 1.41201C15.0735 0.808332 13.5445 0.498123 12 0.500001Z" fill="#DFF9FF"/>
<path d="M12 23.5C14.2745 23.5 16.4979 22.8255 18.3891 21.5619C20.2802 20.2983 21.7542 18.5022 22.6246 16.4009C23.495 14.2995 23.7228 11.9872 23.279 9.75646C22.8353 7.52568 21.74 5.47657 20.1317 3.86827C18.5234 2.25997 16.4743 1.1647 14.2435 0.720967C12.0128 0.277237 9.70049 0.504975 7.59914 1.37538C5.49779 2.24579 3.70174 3.71977 2.4381 5.61094C1.17446 7.50211 0.5 9.72551 0.5 12C0.5 15.05 1.7116 17.9751 3.86827 20.1317C6.02494 22.2884 8.95001 23.5 12 23.5Z" stroke="#00303E" stroke-linecap="round" stroke-linejoin="round"/>
<path d="M14 8.5H11.854C11.4365 8.50015 11.0312 8.64124 10.7038 8.90042C10.3765 9.1596 10.1462 9.5217 10.0503 9.92807C9.95433 10.3344 9.99839 10.7613 10.1753 11.1395C10.3522 11.5177 10.6516 11.8251 11.025 12.012L12.975 12.988C13.3484 13.1749 13.6478 13.4823 13.8247 13.8605C14.0016 14.2387 14.0457 14.6656 13.9497 15.0719C13.8538 15.4783 13.6235 15.8404 13.2962 16.0996C12.9688 16.3588 12.5635 16.4998 12.146 16.5H10" stroke="#00303E" stroke-linecap="round" stroke-linejoin="round"/>
<path d="M11.5 16.5V18" stroke="#00303E" stroke-linecap="round" stroke-linejoin="round"/>
<path d="M12.5 7V8.5" stroke="#00303E" stroke-linecap="round" stroke-linejoin="round"/>
</g>
<defs>
<clipPath id="clip0_3303_11513">
<rect width="24" height="24" fill="white"/>
</clipPath>
</defs>
</svg>
