<svg width="24" height="24" viewBox="0 0 24 24" fill="none" xmlns="http://www.w3.org/2000/svg">
<g clip-path="url(#clip0_3303_11520)">
<path d="M5.75 9C5.75 10.1162 5.96986 11.2215 6.39702 12.2528C6.82419 13.2841 7.45029 14.2211 8.23959 15.0104C9.02889 15.7997 9.96592 16.4258 10.9972 16.853C12.0285 17.2801 13.1338 17.5 14.25 17.5C15.3662 17.5 16.4715 17.2801 17.5028 16.853C18.5341 16.4258 19.4711 15.7997 20.2604 15.0104C21.0497 14.2211 21.6758 13.2841 22.103 12.2528C22.5301 11.2215 22.75 10.1162 22.75 9C22.75 7.88376 22.5301 6.77846 22.103 5.74719C21.6758 4.71592 21.0497 3.77889 20.2604 2.98959C19.4711 2.20029 18.5341 1.57419 17.5028 1.14702C16.4715 0.719859 15.3662 0.5 14.25 0.5C13.1338 0.5 12.0285 0.719859 10.9972 1.14702C9.96592 1.57419 9.02889 2.20029 8.23959 2.98959C7.45029 3.77889 6.82419 4.71592 6.39702 5.74719C5.96986 6.77846 5.75 7.88376 5.75 9Z" fill="#9FEAFF"/>
<path d="M14.25 0.500001C12.572 0.500141 10.9315 0.99695 9.53538 1.92783C8.13922 2.85871 7.04983 4.182 6.40447 5.73096C5.75912 7.27993 5.58667 8.98525 5.90886 10.6321C6.23106 12.2789 7.03347 13.7935 8.215 14.985L20.235 2.965C18.6451 1.3833 16.4927 0.496808 14.25 0.500001Z" fill="#DFF9FF"/>
<path d="M8.3 15.073C7.09615 13.8941 6.26983 12.384 5.92601 10.7345C5.58219 9.08495 5.73637 7.37046 6.36898 5.80876C7.00159 4.24706 8.08407 2.90861 9.47895 1.96339C10.8738 1.01818 12.5182 0.508866 14.2031 0.50013C15.888 0.491393 17.5376 0.983631 18.9422 1.91433C20.3468 2.84502 21.4431 4.17218 22.0918 5.72723C22.7406 7.28229 22.9126 8.99509 22.5859 10.6481C22.2592 12.3011 21.4486 13.8197 20.257 15.011" stroke="#00303E" stroke-linecap="round" stroke-linejoin="round"/>
<path d="M14.35 12.334V13.466" stroke="#00303E" stroke-linecap="round" stroke-linejoin="round"/>
<path d="M14.35 4.4V5.535" stroke="#00303E" stroke-linecap="round" stroke-linejoin="round"/>
<path d="M12.651 10.634C12.651 10.9702 12.7507 11.2989 12.9375 11.5785C13.1243 11.858 13.3898 12.0759 13.7004 12.2046C14.0111 12.3333 14.3529 12.3669 14.6827 12.3013C15.0124 12.2357 15.3153 12.0738 15.5531 11.8361C15.7908 11.5983 15.9527 11.2954 16.0183 10.9657C16.0839 10.6359 16.0503 10.2941 15.9216 9.98344C15.7929 9.6728 15.575 9.4073 15.2955 9.2205C15.0159 9.0337 14.6872 8.934 14.351 8.934C14.0148 8.934 13.6861 8.83429 13.4065 8.6475C13.127 8.4607 12.9091 8.19519 12.7804 7.88456C12.6517 7.57392 12.6181 7.23211 12.6837 6.90234C12.7493 6.57258 12.9112 6.26966 13.1489 6.03192C13.3867 5.79417 13.6896 5.63226 14.0193 5.56666C14.3491 5.50107 14.6909 5.53473 15.0016 5.6634C15.3122 5.79207 15.5777 6.00996 15.7645 6.28953C15.9513 6.56909 16.051 6.89777 16.051 7.234" stroke="#00303E" stroke-linecap="round" stroke-linejoin="round"/>
<path d="M1.25 12.5L9.619 19.94C9.79543 20.0967 10.0216 20.186 10.2575 20.192C10.4934 20.198 10.7238 20.1205 10.908 19.973L14.575 17.04C14.7626 16.89 14.9978 16.8125 15.2378 16.8217C15.4778 16.8309 15.7065 16.9261 15.882 17.09L22.75 23.5" stroke="#00303E" stroke-linecap="round" stroke-linejoin="round"/>
<path d="M18.75 23.5H22.75V19.523" stroke="#00303E" stroke-linecap="round" stroke-linejoin="round"/>
</g>
<defs>
<clipPath id="clip0_3303_11520">
<rect width="24" height="24" fill="white"/>
</clipPath>
</defs>
</svg>
