<svg width="24" height="24" viewBox="0 0 24 24" fill="none" xmlns="http://www.w3.org/2000/svg">
<g clip-path="url(#clip0_3303_3218)">
<path d="M18.5179 23.5H1.51794C1.25273 23.5 0.998374 23.3946 0.810838 23.2071C0.623301 23.0196 0.517944 22.7652 0.517944 22.5V1.5C0.517944 1.23478 0.623301 0.98043 0.810838 0.792893C0.998374 0.605357 1.25273 0.5 1.51794 0.5H14.8109C15.0761 0.500057 15.3305 0.605451 15.5179 0.793L19.2249 4.5C19.4123 4.68725 19.5176 4.94115 19.5179 5.206V22.5C19.5179 22.7652 19.4126 23.0196 19.2251 23.2071C19.0375 23.3946 18.7832 23.5 18.5179 23.5Z" fill="#DFF9FF"/>
<path d="M17.185 2.457L15.516 0.787996C15.3277 0.602279 15.0735 0.498724 14.809 0.499996H1.51599C1.25077 0.499996 0.996421 0.605353 0.808884 0.79289C0.621348 0.980426 0.515991 1.23478 0.515991 1.5V19.126L17.185 2.457Z" fill="white"/>
<path d="M10.415 23.5H1.51501C1.2498 23.5 0.995444 23.3946 0.807908 23.2071C0.620372 23.0196 0.515015 22.7652 0.515015 22.5V1.5C0.515015 1.23478 0.620372 0.98043 0.807908 0.792893C0.995444 0.605357 1.2498 0.5 1.51501 0.5H14.811C15.0762 0.500057 15.3305 0.605451 15.518 0.793L19.226 4.5C19.413 4.68741 19.518 4.94129 19.518 5.206V8.672" stroke="#00303E" stroke-linecap="round" stroke-linejoin="round"/>
<path d="M3 14.5H13.783" stroke="#00303E" stroke-linecap="round" stroke-linejoin="round"/>
<path d="M4.5 9.5H5.5C5.63261 9.5 5.75979 9.55268 5.85355 9.64645C5.94732 9.74021 6 9.86739 6 10V14.5H4V10C4 9.86739 4.05268 9.74021 4.14645 9.64645C4.24021 9.55268 4.36739 9.5 4.5 9.5Z" fill="#9FEAFF" stroke="#00303E" stroke-linecap="round" stroke-linejoin="round"/>
<path d="M12.5 8.5H13.5C13.6326 8.5 13.7598 8.55268 13.8536 8.64645C13.9473 8.74021 14 8.86739 14 9V14.5H12V9C12 8.86739 12.0527 8.74021 12.1464 8.64645C12.2402 8.55268 12.3674 8.5 12.5 8.5Z" fill="#9FEAFF" stroke="#00303E" stroke-linecap="round" stroke-linejoin="round"/>
<path d="M10 14.5V7C10 6.86739 9.94732 6.74021 9.85355 6.64645C9.75979 6.55268 9.63261 6.5 9.5 6.5H8.5C8.36739 6.5 8.24021 6.55268 8.14645 6.64645C8.05268 6.74021 8 6.86739 8 7V14.5H10Z" fill="#9FEAFF" stroke="#00303E" stroke-linecap="round" stroke-linejoin="round"/>
<path d="M22.8841 15.11L15.2531 22.74L11.5031 23.49L12.2531 19.74L19.8841 12.11C20.0804 11.9135 20.3135 11.7576 20.5701 11.6512C20.8267 11.5449 21.1018 11.4901 21.3796 11.4901C21.6573 11.4901 21.9324 11.5449 22.189 11.6512C22.4456 11.7576 22.6787 11.9135 22.8751 12.11L22.8841 12.118C23.2807 12.5148 23.5036 13.0529 23.5036 13.614C23.5036 14.1751 23.2807 14.7132 22.8841 15.11Z" fill="#9FEAFF" stroke="#00303E" stroke-linecap="round" stroke-linejoin="round"/>
</g>
<defs>
<clipPath id="clip0_3303_3218">
<rect width="24" height="24" fill="white"/>
</clipPath>
</defs>
</svg>
