<svg width="24" height="24" viewBox="0 0 24 24" fill="none" xmlns="http://www.w3.org/2000/svg">
<g clip-path="url(#clip0_3303_10108)">
<path d="M2.5 3.5H21.5C21.7652 3.5 22.0196 3.60536 22.2071 3.79289C22.3946 3.98043 22.5 4.23478 22.5 4.5V15.5H1.5V4.5C1.5 4.23478 1.60536 3.98043 1.79289 3.79289C1.98043 3.60536 2.23478 3.5 2.5 3.5Z" fill="white"/>
<path d="M14.5 3.5H21.5C21.7652 3.5 22.0196 3.60536 22.2071 3.79289C22.3946 3.98043 22.5 4.23478 22.5 4.5V15.5H1.5V4.5C1.5 4.23478 1.60536 3.98043 1.79289 3.79289C1.98043 3.60536 2.23478 3.5 2.5 3.5H9.5" stroke="#00303E" stroke-linecap="round" stroke-linejoin="round"/>
<path d="M14.5 3.5C14.5 3.76522 14.3946 4.01957 14.2071 4.20711C14.0196 4.39464 13.7652 4.5 13.5 4.5H10.5C10.2348 4.5 9.98043 4.39464 9.79289 4.20711C9.60536 4.01957 9.5 3.76522 9.5 3.5C9.5 3.23478 9.60536 2.98043 9.79289 2.79289C9.98043 2.60536 10.2348 2.5 10.5 2.5H13.5C13.7652 2.5 14.0196 2.60536 14.2071 2.79289C14.3946 2.98043 14.5 3.23478 14.5 3.5Z" fill="#9FEAFF"/>
<path d="M22.5 15.5H1.5C1.23478 15.5 0.98043 15.6054 0.792893 15.7929C0.605357 15.9804 0.5 16.2348 0.5 16.5C0.5 16.7652 0.605357 17.0196 0.792893 17.2071C0.98043 17.3946 1.23478 17.5 1.5 17.5H22.5C22.7652 17.5 23.0196 17.3946 23.2071 17.2071C23.3946 17.0196 23.5 16.7652 23.5 16.5C23.5 16.2348 23.3946 15.9804 23.2071 15.7929C23.0196 15.6054 22.7652 15.5 22.5 15.5Z" fill="#9FEAFF"/>
<path d="M12 17.5V23.5" stroke="#00303E" stroke-linecap="round" stroke-linejoin="round"/>
<path d="M4 23.5L7 17.5" stroke="#00303E" stroke-linecap="round" stroke-linejoin="round"/>
<path d="M20 23.5L17 17.5" stroke="#00303E" stroke-linecap="round" stroke-linejoin="round"/>
<path d="M12 0.5V2.5" stroke="#00303E" stroke-linecap="round" stroke-linejoin="round"/>
<path d="M14.5 3.5C14.5 3.76522 14.3946 4.01957 14.2071 4.20711C14.0196 4.39464 13.7652 4.5 13.5 4.5H10.5C10.2348 4.5 9.98043 4.39464 9.79289 4.20711C9.60536 4.01957 9.5 3.76522 9.5 3.5C9.5 3.23478 9.60536 2.98043 9.79289 2.79289C9.98043 2.60536 10.2348 2.5 10.5 2.5H13.5C13.7652 2.5 14.0196 2.60536 14.2071 2.79289C14.3946 2.98043 14.5 3.23478 14.5 3.5Z" stroke="#00303E" stroke-linecap="round" stroke-linejoin="round"/>
<path d="M22.5 15.5H1.5C1.23478 15.5 0.98043 15.6054 0.792893 15.7929C0.605357 15.9804 0.5 16.2348 0.5 16.5C0.5 16.7652 0.605357 17.0196 0.792893 17.2071C0.98043 17.3946 1.23478 17.5 1.5 17.5H22.5C22.7652 17.5 23.0196 17.3946 23.2071 17.2071C23.3946 17.0196 23.5 16.7652 23.5 16.5C23.5 16.2348 23.3946 15.9804 23.2071 15.7929C23.0196 15.6054 22.7652 15.5 22.5 15.5Z" stroke="#00303E" stroke-linecap="round" stroke-linejoin="round"/>
</g>
<defs>
<clipPath id="clip0_3303_10108">
<rect width="24" height="24" fill="white"/>
</clipPath>
</defs>
</svg>
