<svg width="24" height="24" viewBox="0 0 24 24" fill="none" xmlns="http://www.w3.org/2000/svg">
<g clip-path="url(#clip0_3303_10189)">
<path d="M19.5 4.5L21.5 0.5L23.5 4.5" fill="#9FEAFF"/>
<path d="M19.5 4.50403H23.5V14.504H19.5V4.50403Z" fill="#9FEAFF"/>
<path d="M23.5 14.5V15.5C23.5 16.0304 23.2893 16.5391 22.9142 16.9142C22.5391 17.2893 22.0304 17.5 21.5 17.5C20.9696 17.5 20.4609 17.2893 20.0858 16.9142C19.7107 16.5391 19.5 16.0304 19.5 15.5V14.5H23.5Z" fill="#9FEAFF"/>
<path d="M10.5 18.5C10.5 19.8261 9.97322 21.0979 9.03553 22.0355C8.09785 22.9732 6.82608 23.5 5.5 23.5C4.17392 23.5 2.90215 22.9732 1.96447 22.0355C1.02678 21.0979 0.5 19.8261 0.5 18.5V8.5C0.5 7.96957 0.710714 7.46086 1.08579 7.08579C1.46086 6.71071 1.96957 6.5 2.5 6.5H8.5C9.03043 6.5 9.53914 6.71071 9.91421 7.08579C10.2893 7.46086 10.5 7.96957 10.5 8.5V18.5Z" fill="white"/>
<path d="M5.5 20.5C4.17392 20.5 2.90215 19.9732 1.96447 19.0355C1.02678 18.0979 0.5 16.8261 0.5 15.5V18.5C0.5 19.8261 1.02678 21.0979 1.96447 22.0355C2.90215 22.9732 4.17392 23.5 5.5 23.5C6.82608 23.5 8.09785 22.9732 9.03553 22.0355C9.97322 21.0979 10.5 19.8261 10.5 18.5V15.5C10.5 16.1566 10.3707 16.8068 10.1194 17.4134C9.86812 18.02 9.49983 18.5712 9.03553 19.0355C8.57124 19.4998 8.02005 19.8681 7.41342 20.1194C6.80679 20.3707 6.15661 20.5 5.5 20.5Z" fill="#DFF9FF"/>
<path d="M19.5 4.5L21.5 0.5L23.5 4.5" stroke="#00303E" stroke-linecap="round" stroke-linejoin="round"/>
<path d="M10.5 18.5C10.5 19.8261 9.97322 21.0979 9.03553 22.0355C8.09785 22.9732 6.82608 23.5 5.5 23.5C4.17392 23.5 2.90215 22.9732 1.96447 22.0355C1.02678 21.0979 0.5 19.8261 0.5 18.5V8.5C0.5 7.96957 0.710714 7.46086 1.08579 7.08579C1.46086 6.71071 1.96957 6.5 2.5 6.5H8.5C9.03043 6.5 9.53914 6.71071 9.91421 7.08579C10.2893 7.46086 10.5 7.96957 10.5 8.5V18.5Z" stroke="#00303E" stroke-linecap="round" stroke-linejoin="round"/>
<path d="M5.5 11.5V4.5C5.5 3.43913 5.92143 2.42172 6.67157 1.67157C7.42172 0.921427 8.43913 0.5 9.5 0.5H11.5C12.5609 0.5 13.5783 0.921427 14.3284 1.67157C15.0786 2.42172 15.5 3.43913 15.5 4.5V19.5C15.5 20.2956 15.8161 21.0587 16.3787 21.6213C16.9413 22.1839 17.7044 22.5 18.5 22.5C19.2956 22.5 20.0587 22.1839 20.6213 21.6213C21.1839 21.0587 21.5 20.2956 21.5 19.5V17.5" stroke="#00303E" stroke-linecap="round" stroke-linejoin="round"/>
<path d="M0.5 11.5H10.5" stroke="#00303E" stroke-linecap="round" stroke-linejoin="round"/>
<path d="M19.5 4.50403H23.5V14.504H19.5V4.50403Z" stroke="#00303E" stroke-linecap="round" stroke-linejoin="round"/>
<path d="M23.5 14.5V15.5C23.5 16.0304 23.2893 16.5391 22.9142 16.9142C22.5391 17.2893 22.0304 17.5 21.5 17.5C20.9696 17.5 20.4609 17.2893 20.0858 16.9142C19.7107 16.5391 19.5 16.0304 19.5 15.5V14.5H23.5Z" stroke="#00303E" stroke-linecap="round" stroke-linejoin="round"/>
</g>
<defs>
<clipPath id="clip0_3303_10189">
<rect width="24" height="24" fill="white"/>
</clipPath>
</defs>
</svg>
