<svg width="24" height="24" viewBox="0 0 24 24" fill="none" xmlns="http://www.w3.org/2000/svg">
<path d="M4.5 1.5C4.5 1.23478 4.60536 0.98043 4.79289 0.792893C4.98043 0.605357 5.23478 0.5 5.5 0.5H18.5C18.7652 0.5 19.0196 0.605357 19.2071 0.792893C19.3946 0.98043 19.5 1.23478 19.5 1.5V4.5C19.5 4.76522 19.3946 5.01957 19.2071 5.20711C19.0196 5.39464 18.7652 5.5 18.5 5.5H5.5C5.23478 5.5 4.98043 5.39464 4.79289 5.20711C4.60536 5.01957 4.5 4.76522 4.5 4.5V1.5Z" fill="white"/>
<path d="M21.5 12.5H2.5C2.5 9.81 4.86 8.3 5.95 7.75C6.11541 7.66487 6.25422 7.53588 6.35123 7.37714C6.44824 7.2184 6.4997 7.03603 6.5 6.85V5.5H17.5V6.85C17.5003 7.03603 17.5518 7.2184 17.6488 7.37714C17.7458 7.53588 17.8846 7.66487 18.05 7.75C19.14 8.3 21.5 9.81 21.5 12.5Z" fill="white"/>
<path d="M2.5 18.5H21.5V20.5C21.4961 21.2944 21.1787 22.0552 20.617 22.617C20.0552 23.1787 19.2944 23.4961 18.5 23.5H5.5C4.70557 23.4961 3.94479 23.1787 3.38304 22.617C2.82128 22.0552 2.50394 21.2944 2.5 20.5V18.5Z" fill="white"/>
<path d="M7.5 0.5V5.5" stroke="#00303E" stroke-linecap="round" stroke-linejoin="round"/>
<path d="M13.5 0.5V5.5" stroke="#00303E" stroke-linecap="round" stroke-linejoin="round"/>
<path d="M10.5 0.5V5.5" stroke="#00303E" stroke-linecap="round" stroke-linejoin="round"/>
<path d="M16.5 0.5V5.5" stroke="#00303E" stroke-linecap="round" stroke-linejoin="round"/>
<path d="M2.5 12.5H21.5V18.5H2.5V12.5Z" fill="#9FEAFF"/>
<path d="M7 15.5H17" stroke="#00303E" stroke-linecap="round" stroke-linejoin="round"/>
<path d="M5.95001 7.75C5.0873 8.18383 4.31492 8.7777 3.67401 9.5H20.326C19.6851 8.7777 18.9127 8.18383 18.05 7.75C17.8846 7.66487 17.7458 7.53588 17.6488 7.37714C17.5518 7.2184 17.5003 7.03603 17.5 6.85V5.5H6.50001V6.85C6.49972 7.03603 6.44825 7.2184 6.35124 7.37714C6.25423 7.53588 6.11543 7.66487 5.95001 7.75Z" fill="#DFF9FF"/>
<path d="M4.5 1.5C4.5 1.23478 4.60536 0.98043 4.79289 0.792893C4.98043 0.605357 5.23478 0.5 5.5 0.5H18.5C18.7652 0.5 19.0196 0.605357 19.2071 0.792893C19.3946 0.98043 19.5 1.23478 19.5 1.5V4.5C19.5 4.76522 19.3946 5.01957 19.2071 5.20711C19.0196 5.39464 18.7652 5.5 18.5 5.5H5.5C5.23478 5.5 4.98043 5.39464 4.79289 5.20711C4.60536 5.01957 4.5 4.76522 4.5 4.5V1.5Z" stroke="#00303E" stroke-linecap="round" stroke-linejoin="round"/>
<path d="M21.5 12.5H2.5C2.5 9.81 4.86 8.3 5.95 7.75C6.11541 7.66487 6.25422 7.53588 6.35123 7.37714C6.44824 7.2184 6.4997 7.03603 6.5 6.85V5.5H17.5V6.85C17.5003 7.03603 17.5518 7.2184 17.6488 7.37714C17.7458 7.53588 17.8846 7.66487 18.05 7.75C19.14 8.3 21.5 9.81 21.5 12.5Z" stroke="#00303E" stroke-linecap="round" stroke-linejoin="round"/>
<path d="M2.5 18.5H21.5V20.5C21.4961 21.2944 21.1787 22.0552 20.617 22.617C20.0552 23.1787 19.2944 23.4961 18.5 23.5H5.5C4.70557 23.4961 3.94479 23.1787 3.38304 22.617C2.82128 22.0552 2.50394 21.2944 2.5 20.5V18.5Z" stroke="#00303E" stroke-linecap="round" stroke-linejoin="round"/>
<path d="M2.5 12.5H21.5V18.5H2.5V12.5Z" stroke="#00303E" stroke-linecap="round" stroke-linejoin="round"/>
</svg>
