<svg width="24" height="24" viewBox="0 0 24 24" fill="none" xmlns="http://www.w3.org/2000/svg">
<g clip-path="url(#clip0_3303_11616)">
<path d="M14.136 6.772H14.114C13.51 7.24437 12.7653 7.501 11.9985 7.501C11.2317 7.501 10.487 7.24437 9.883 6.772H9.86C7.85879 7.29208 6.11577 8.52379 4.95732 10.2365C3.79888 11.9492 3.30444 14.0254 3.5666 16.0764C3.82875 18.1274 4.82953 20.0125 6.38153 21.3788C7.93352 22.745 9.93031 23.4987 11.998 23.4987C14.0657 23.4987 16.0625 22.745 17.6145 21.3788C19.1665 20.0125 20.1672 18.1274 20.4294 16.0764C20.6916 14.0254 20.1971 11.9492 19.0387 10.2365C17.8802 8.52379 16.1372 7.29208 14.136 6.772ZM12 20.5C10.9122 20.5 9.84883 20.1774 8.94436 19.5731C8.03989 18.9687 7.33494 18.1098 6.91866 17.1048C6.50238 16.0998 6.39346 14.9939 6.60568 13.927C6.8179 12.8601 7.34172 11.8801 8.11091 11.1109C8.8801 10.3417 9.86011 9.8179 10.927 9.60568C11.9939 9.39346 13.0998 9.50238 14.1048 9.91866C15.1098 10.3349 15.9687 11.0399 16.5731 11.9444C17.1774 12.8488 17.5 13.9122 17.5 15C17.5 16.4587 16.9205 17.8576 15.8891 18.8891C14.8576 19.9205 13.4587 20.5 12 20.5Z" fill="#9FEAFF" stroke="#00303E" stroke-linecap="round" stroke-linejoin="round"/>
<path d="M2.733 8.778C2.74344 8.7986 2.75939 8.81591 2.77907 8.828C2.79875 8.8401 2.8214 8.8465 2.8445 8.8465C2.8676 8.8465 2.89025 8.8401 2.90993 8.828C2.92961 8.81591 2.94556 8.7986 2.956 8.778L3.656 7.378C3.66792 7.35363 3.68763 7.33392 3.712 7.322L5.118 6.622C5.13887 6.61166 5.15643 6.59569 5.16871 6.5759C5.18099 6.55612 5.18749 6.53329 5.18749 6.51C5.18749 6.48671 5.18099 6.46389 5.16871 6.4441C5.15643 6.42431 5.13887 6.40834 5.118 6.398L3.712 5.7C3.6878 5.68784 3.66816 5.6682 3.656 5.644L2.956 4.244C2.94556 4.2234 2.92961 4.20609 2.90993 4.194C2.89025 4.18191 2.8676 4.1755 2.8445 4.1755C2.8214 4.1755 2.79875 4.18191 2.77907 4.194C2.75939 4.20609 2.74344 4.2234 2.733 4.244L2.033 5.644C2.02084 5.6682 2.0012 5.68784 1.977 5.7L0.571 6.4C0.550133 6.41034 0.53257 6.42631 0.520292 6.4461C0.508013 6.46589 0.501507 6.48871 0.501507 6.512C0.501507 6.53529 0.508013 6.55812 0.520292 6.5779C0.53257 6.59769 0.550133 6.61366 0.571 6.624L1.977 7.324C2.00137 7.33592 2.02108 7.35563 2.033 7.38L2.733 8.778Z" fill="#DFF9FF" stroke="#00303E" stroke-linecap="round" stroke-linejoin="round"/>
<path d="M20.542 6.124C20.5524 6.1446 20.5684 6.16191 20.5881 6.174C20.6078 6.1861 20.6304 6.1925 20.6535 6.1925C20.6766 6.1925 20.6992 6.1861 20.7189 6.174C20.7386 6.16191 20.7546 6.1446 20.765 6.124L21.635 4.385C21.6469 4.36063 21.6666 4.34092 21.691 4.329L23.43 3.459C23.4505 3.44836 23.4677 3.43229 23.4797 3.41253C23.4917 3.39278 23.498 3.37011 23.498 3.347C23.4981 3.32401 23.4917 3.30146 23.4797 3.28186C23.4677 3.26226 23.4505 3.24638 23.43 3.236L21.7 2.366C21.676 2.35351 21.6565 2.33396 21.644 2.31L20.765 0.571C20.7546 0.550395 20.7386 0.533087 20.7189 0.520996C20.6992 0.508905 20.6766 0.502504 20.6535 0.502504C20.6304 0.502504 20.6078 0.508905 20.5881 0.520996C20.5684 0.533087 20.5524 0.550395 20.542 0.571L19.672 2.31C19.6595 2.33396 19.64 2.35351 19.616 2.366L17.877 3.236C17.8565 3.24638 17.8393 3.26226 17.8273 3.28186C17.8153 3.30146 17.8089 3.32401 17.809 3.347C17.809 3.37011 17.8153 3.39278 17.8273 3.41253C17.8393 3.43229 17.8565 3.44836 17.877 3.459L19.616 4.329C19.6404 4.34092 19.6601 4.36063 19.672 4.385L20.542 6.124Z" fill="#DFF9FF" stroke="#00303E" stroke-linecap="round" stroke-linejoin="round"/>
<path d="M12 7.5C12.6922 7.5 13.3689 7.29473 13.9445 6.91014C14.5201 6.52556 14.9687 5.97893 15.2336 5.33939C15.4985 4.69985 15.5678 3.99612 15.4327 3.31718C15.2977 2.63825 14.9644 2.01461 14.4749 1.52513C13.9854 1.03564 13.3618 0.702299 12.6828 0.567251C12.0039 0.432203 11.3001 0.501515 10.6606 0.766421C10.0211 1.03133 9.47444 1.47993 9.08986 2.0555C8.70527 2.63108 8.5 3.30777 8.5 4C8.5 4.92826 8.86875 5.8185 9.52513 6.47487C10.1815 7.13125 11.0717 7.5 12 7.5Z" fill="#9FEAFF"/>
<path d="M12 3.01C12.7078 3.00985 13.3991 3.22433 13.9825 3.62513C14.566 4.02594 15.0142 4.59422 15.268 5.255C15.471 4.72494 15.542 4.15347 15.475 3.58984C15.408 3.02622 15.2048 2.48735 14.8832 2.0197C14.5615 1.55205 14.1309 1.16965 13.6286 0.905467C13.1262 0.641282 12.5671 0.503239 11.9995 0.503239C11.4319 0.503239 10.8728 0.641282 10.3704 0.905467C9.86808 1.16965 9.4375 1.55205 9.11582 2.0197C8.79415 2.48735 8.59104 3.02622 8.524 3.58984C8.45696 4.15347 8.528 4.72494 8.731 5.255C8.98487 4.59407 9.43323 4.02567 10.0169 3.62485C10.6005 3.22403 11.292 3.00965 12 3.01Z" fill="#DFF9FF"/>
<path d="M12 7.5C12.6922 7.5 13.3689 7.29473 13.9445 6.91014C14.5201 6.52556 14.9687 5.97893 15.2336 5.33939C15.4985 4.69985 15.5678 3.99612 15.4327 3.31718C15.2977 2.63825 14.9644 2.01461 14.4749 1.52513C13.9854 1.03564 13.3618 0.702299 12.6828 0.567251C12.0039 0.432203 11.3001 0.501515 10.6606 0.766421C10.0211 1.03133 9.47444 1.47993 9.08986 2.0555C8.70527 2.63108 8.5 3.30777 8.5 4C8.5 4.92826 8.86875 5.8185 9.52513 6.47487C10.1815 7.13125 11.0717 7.5 12 7.5Z" stroke="#00303E" stroke-linecap="round" stroke-linejoin="round"/>
</g>
<defs>
<clipPath id="clip0_3303_11616">
<rect width="24" height="24" fill="white"/>
</clipPath>
</defs>
</svg>
