<svg width="24" height="24" viewBox="0 0 24 24" fill="none" xmlns="http://www.w3.org/2000/svg">
<path d="M9.546 17.293C9.41178 17.3193 9.27359 17.3178 9.13998 17.2885C9.00636 17.2593 8.88017 17.203 8.76919 17.123C8.65822 17.0431 8.56482 16.9412 8.49479 16.8237C8.42475 16.7062 8.37956 16.5756 8.362 16.44L8.047 14.026C7.227 14.1197 6.45606 14.4648 5.83989 15.0139C5.22372 15.563 4.79249 16.2892 4.60533 17.0931C4.41817 17.8969 4.48424 18.739 4.79449 19.5038C5.10474 20.2686 5.64397 20.9187 6.33825 21.365C7.03253 21.8112 7.84786 22.0318 8.67244 21.9965C9.49702 21.9611 10.2905 21.6716 10.944 21.1675C11.5976 20.6635 12.0792 19.9696 12.3228 19.181C12.5665 18.3925 12.5603 17.5479 12.305 16.763C11.263 16.959 10.26 17.153 9.546 17.293Z" fill="#DFF9FF"/>
<path d="M7 6L8.362 16.44C8.37955 16.5756 8.42475 16.7062 8.49479 16.8237C8.56482 16.9412 8.65822 17.0431 8.76919 17.123C8.88016 17.203 9.00636 17.2593 9.13997 17.2885C9.27359 17.3178 9.41178 17.3193 9.546 17.293C11.644 16.882 16.233 16 17 16C18 16 18.5 21.5 19 21.5C19.6805 21.3944 20.3499 21.227 21 21" stroke="#00303E" stroke-linecap="round" stroke-linejoin="round"/>
<path d="M7.389 12.557C6.15226 12.8392 5.0466 13.5297 4.25033 14.5172C3.45407 15.5047 3.01361 16.7316 3 18C2.9964 19.4425 3.56102 20.8285 4.57166 21.8578C5.58229 22.8872 6.95764 23.4771 8.4 23.5C9.86341 23.4851 11.2641 22.9039 12.3083 21.8784C13.3524 20.8529 13.9587 19.4629 14 18V16.451" stroke="#00303E" stroke-linecap="round" stroke-linejoin="round"/>
<path d="M9.456 3.227C9.4562 3.76659 9.29637 4.29412 8.99674 4.74287C8.6971 5.19162 8.27111 5.54143 7.77265 5.74806C7.2742 5.95469 6.72565 6.00885 6.19641 5.9037C5.66716 5.79856 5.18099 5.53882 4.79937 5.15734C4.41775 4.77586 4.15783 4.28978 4.05249 3.76057C3.94715 3.23137 4.00112 2.68281 4.20756 2.18427C4.41401 1.68574 4.76366 1.25962 5.2123 0.95982C5.66094 0.66002 6.18841 0.5 6.728 0.5C7.45134 0.5 8.14506 0.787276 8.65663 1.29866C9.1682 1.81004 9.45574 2.50366 9.456 3.227Z" fill="#DFF9FF" stroke="#00303E" stroke-linecap="round" stroke-linejoin="round"/>
<path d="M7.389 12.557L13.5 11" stroke="#00303E" stroke-linecap="round" stroke-linejoin="round"/>
</svg>
