<svg width="24" height="24" viewBox="0 0 24 24" fill="none" xmlns="http://www.w3.org/2000/svg">
<g clip-path="url(#clip0_3303_13559)">
<path d="M0.5 23.436V7.042C0.500065 6.85936 0.550149 6.68022 0.644815 6.52403C0.739482 6.36784 0.875116 6.24056 1.037 6.156L11.537 0.676996C11.6799 0.602343 11.8388 0.563354 12 0.563354C12.1612 0.563354 12.3201 0.602343 12.463 0.676996L22.963 6.156C23.1249 6.24056 23.2605 6.36784 23.3552 6.52403C23.4499 6.68022 23.4999 6.85936 23.5 7.042V23.436" fill="#DFF9FF"/>
<path d="M22.963 6.156L12.463 0.676996C12.3201 0.602343 12.1612 0.563354 12 0.563354C11.8388 0.563354 11.6799 0.602343 11.537 0.676996L1.037 6.156C0.875116 6.24056 0.739482 6.36784 0.644815 6.52403C0.550149 6.68022 0.500065 6.85936 0.5 7.042V10.042C0.500065 9.85936 0.550149 9.68022 0.644815 9.52403C0.739482 9.36784 0.875116 9.24056 1.037 9.156L11.537 3.677C11.6799 3.60234 11.8388 3.56335 12 3.56335C12.1612 3.56335 12.3201 3.60234 12.463 3.677L22.963 9.156C23.1249 9.24056 23.2605 9.36784 23.3552 9.52403C23.4499 9.68022 23.4999 9.85936 23.5 10.042V7.042C23.4999 6.85936 23.4499 6.68022 23.3552 6.52403C23.2605 6.36784 23.1249 6.24056 22.963 6.156Z" fill="white"/>
<path d="M14.5 10.436C14.5 9.64039 14.1839 8.87732 13.6213 8.31472C13.0587 7.75211 12.2956 7.43604 11.5 7.43604C10.7044 7.43604 9.94129 7.75211 9.37868 8.31472C8.81607 8.87732 8.5 9.64039 8.5 10.436V16.436C8.5 17.2317 8.81607 17.9947 9.37868 18.5574C9.94129 19.12 10.7044 19.436 11.5 19.436C12.2956 19.436 13.0587 19.12 13.6213 18.5574C14.1839 17.9947 14.5 17.2317 14.5 16.436V10.436Z" fill="#9FEAFF"/>
<path d="M11.5 7.43604C10.7044 7.43604 9.94129 7.75211 9.37868 8.31472C8.81607 8.87732 8.5 9.64039 8.5 10.436V16.436C8.5 17.2317 8.81607 17.9947 9.37868 18.5574C9.94129 19.12 10.7044 19.436 11.5 19.436V7.43604Z" fill="#9FEAFF"/>
<path d="M14.5 10.436C14.5 9.64039 14.1839 8.87732 13.6213 8.31472C13.0587 7.75211 12.2956 7.43604 11.5 7.43604C10.7044 7.43604 9.94129 7.75211 9.37868 8.31472C8.81607 8.87732 8.5 9.64039 8.5 10.436V16.436C8.5 17.2317 8.81607 17.9947 9.37868 18.5574C9.94129 19.12 10.7044 19.436 11.5 19.436C12.2956 19.436 13.0587 19.12 13.6213 18.5574C14.1839 17.9947 14.5 17.2317 14.5 16.436V10.436Z" stroke="#00303E" stroke-linecap="round" stroke-linejoin="round"/>
<path d="M8.5 15.436H10.5" stroke="#00303E" stroke-linecap="round" stroke-linejoin="round"/>
<path d="M8.5 13.436H10.5" stroke="#00303E" stroke-linecap="round" stroke-linejoin="round"/>
<path d="M8.5 11.436H10.5" stroke="#00303E" stroke-linecap="round" stroke-linejoin="round"/>
<path d="M14.5 15.436H12.5" stroke="#00303E" stroke-linecap="round" stroke-linejoin="round"/>
<path d="M14.5 13.436H12.5" stroke="#00303E" stroke-linecap="round" stroke-linejoin="round"/>
<path d="M14.5 11.436H12.5" stroke="#00303E" stroke-linecap="round" stroke-linejoin="round"/>
<path d="M6.5 15.436V16.436C6.5 17.7621 7.02678 19.0339 7.96447 19.9716C8.90215 20.9093 10.1739 21.436 11.5 21.436C12.8261 21.436 14.0979 20.9093 15.0355 19.9716C15.9732 19.0339 16.5 17.7621 16.5 16.436V15.436" stroke="#00303E" stroke-linecap="round" stroke-linejoin="round"/>
<path d="M11.5 21.436V23.436" stroke="#00303E" stroke-linecap="round" stroke-linejoin="round"/>
<path d="M6.5 23.436H16.5" stroke="#00303E" stroke-linecap="round" stroke-linejoin="round"/>
<path d="M0.5 23.436V7.042C0.500065 6.85936 0.550149 6.68022 0.644815 6.52403C0.739482 6.36784 0.875116 6.24056 1.037 6.156L11.537 0.676996C11.6799 0.602343 11.8388 0.563354 12 0.563354C12.1612 0.563354 12.3201 0.602343 12.463 0.676996L22.963 6.156C23.1249 6.24056 23.2605 6.36784 23.3552 6.52403C23.4499 6.68022 23.4999 6.85936 23.5 7.042V23.436" stroke="#00303E" stroke-linecap="round" stroke-linejoin="round"/>
</g>
<defs>
<clipPath id="clip0_3303_13559">
<rect width="24" height="24" fill="white"/>
</clipPath>
</defs>
</svg>
