<svg width="24" height="24" viewBox="0 0 24 24" fill="none" xmlns="http://www.w3.org/2000/svg">
<path d="M19.131 17.75C17.606 17.75 16.1435 17.1442 15.0651 16.0659C13.9868 14.9875 13.381 13.525 13.381 12C13.381 10.475 13.9868 9.01247 15.0651 7.93414C16.1435 6.8558 17.606 6.25 19.131 6.25C20.0257 6.24941 20.9078 6.46085 21.705 6.867C21.8815 6.9563 22.0387 7.07949 22.1676 7.22953C22.2964 7.37958 22.3945 7.55354 22.4562 7.74148C22.5178 7.92943 22.5419 8.12768 22.5269 8.32491C22.512 8.52215 22.4583 8.7145 22.369 8.891C22.2797 9.0675 22.1565 9.22468 22.0065 9.35357C21.8564 9.48245 21.6825 9.58053 21.4945 9.64219C21.3066 9.70384 21.1083 9.72788 20.9111 9.71292C20.7139 9.69796 20.5215 9.6443 20.345 9.555C19.9693 9.36238 19.5532 9.26194 19.131 9.262C18.4048 9.262 17.7084 9.55047 17.1949 10.0639C16.6815 10.5774 16.393 11.2738 16.393 12C16.393 12.7262 16.6815 13.4226 17.1949 13.9361C17.7084 14.4495 18.4048 14.738 19.131 14.738C19.574 14.738 20.01 14.627 20.399 14.415C20.75 14.2358 21.1573 14.2013 21.5334 14.3188C21.9096 14.4363 22.2248 14.6965 22.4114 15.0436C22.5981 15.3907 22.6413 15.7971 22.5319 16.1757C22.4224 16.5543 22.169 16.875 21.826 17.069C20.9975 17.5146 20.0717 17.7485 19.131 17.75Z" fill="#9FEAFF"/>
<path d="M13.381 12C13.3828 10.4756 13.9892 9.01412 15.0672 7.93618C16.1451 6.85825 17.6066 6.25185 19.131 6.25C20.0257 6.24941 20.9078 6.46085 21.705 6.867C21.8815 6.9563 22.0387 7.07949 22.1676 7.22953C22.2964 7.37958 22.3945 7.55354 22.4562 7.74148C22.5178 7.92943 22.5419 8.12768 22.5269 8.32491C22.512 8.52215 22.4583 8.7145 22.369 8.891C22.2797 9.0675 22.1565 9.22468 22.0065 9.35357C21.8564 9.48245 21.6825 9.58053 21.4945 9.64219C21.3066 9.70384 21.1083 9.72788 20.9111 9.71292C20.7139 9.69796 20.5215 9.6443 20.345 9.555C19.9693 9.36238 19.5532 9.26194 19.131 9.262C18.4051 9.2628 17.7091 9.55152 17.1958 10.0648C16.6825 10.5781 16.3938 11.2741 16.393 12H13.381Z" fill="#DFF9FF"/>
<path d="M7.131 17.75C5.606 17.75 4.14347 17.1442 3.06513 16.0659C1.9868 14.9875 1.381 13.525 1.381 12C1.381 10.475 1.9868 9.01247 3.06513 7.93414C4.14347 6.8558 5.606 6.25 7.131 6.25C8.02569 6.24941 8.9078 6.46085 9.705 6.867C9.88149 6.9563 10.0387 7.07949 10.1676 7.22953C10.2964 7.37958 10.3945 7.55354 10.4562 7.74148C10.5178 7.92943 10.5419 8.12768 10.5269 8.32491C10.512 8.52215 10.4583 8.7145 10.369 8.891C10.2797 9.0675 10.1565 9.22468 10.0065 9.35357C9.85642 9.48245 9.68246 9.58053 9.49452 9.64219C9.30657 9.70384 9.10832 9.72788 8.91108 9.71292C8.71385 9.69796 8.52149 9.6443 8.345 9.555C7.96932 9.36238 7.55318 9.26194 7.131 9.262C6.40483 9.262 5.70841 9.55047 5.19494 10.0639C4.68146 10.5774 4.393 11.2738 4.393 12C4.393 12.7262 4.68146 13.4226 5.19494 13.9361C5.70841 14.4495 6.40483 14.738 7.131 14.738C7.57436 14.7382 8.01068 14.6271 8.4 14.415C8.75102 14.2358 9.15826 14.2013 9.53443 14.3188C9.91061 14.4363 10.2258 14.6965 10.4124 15.0436C10.5991 15.3907 10.6423 15.7971 10.5329 16.1757C10.4234 16.5543 10.17 16.875 9.827 17.069C8.99821 17.5148 8.07206 17.7487 7.131 17.75Z" fill="#9FEAFF"/>
<path d="M1.381 12C1.38285 10.4756 1.98925 9.01412 3.06718 7.93618C4.14511 6.85825 5.60657 6.25185 7.131 6.25C8.02569 6.24941 8.9078 6.46085 9.705 6.867C9.88149 6.9563 10.0387 7.07949 10.1676 7.22953C10.2964 7.37958 10.3945 7.55354 10.4562 7.74148C10.5178 7.92943 10.5419 8.12768 10.5269 8.32491C10.512 8.52215 10.4583 8.7145 10.369 8.891C10.2797 9.0675 10.1565 9.22468 10.0065 9.35357C9.85642 9.48245 9.68246 9.58053 9.49452 9.64219C9.30657 9.70384 9.10832 9.72788 8.91108 9.71292C8.71385 9.69796 8.52149 9.6443 8.345 9.555C7.96932 9.36238 7.55318 9.26194 7.131 9.262C6.40508 9.2628 5.70912 9.55152 5.19582 10.0648C4.68251 10.5781 4.39379 11.2741 4.393 12H1.381Z" fill="#DFF9FF"/>
<path d="M7.131 17.75C5.606 17.75 4.14347 17.1442 3.06513 16.0659C1.9868 14.9875 1.381 13.525 1.381 12C1.381 10.475 1.9868 9.01247 3.06513 7.93414C4.14347 6.8558 5.606 6.25 7.131 6.25C8.02569 6.24941 8.9078 6.46085 9.705 6.867C9.88149 6.9563 10.0387 7.07949 10.1676 7.22953C10.2964 7.37958 10.3945 7.55354 10.4562 7.74148C10.5178 7.92943 10.5419 8.12768 10.5269 8.32491C10.512 8.52215 10.4583 8.7145 10.369 8.891C10.2797 9.0675 10.1565 9.22468 10.0065 9.35357C9.85642 9.48245 9.68246 9.58053 9.49452 9.64219C9.30657 9.70384 9.10832 9.72788 8.91108 9.71292C8.71385 9.69796 8.52149 9.6443 8.345 9.555C7.96932 9.36238 7.55318 9.26194 7.131 9.262C6.40483 9.262 5.70841 9.55047 5.19494 10.0639C4.68146 10.5774 4.393 11.2738 4.393 12C4.393 12.7262 4.68146 13.4226 5.19494 13.9361C5.70841 14.4495 6.40483 14.738 7.131 14.738C7.57436 14.7382 8.01068 14.6271 8.4 14.415C8.75102 14.2358 9.15826 14.2013 9.53443 14.3188C9.91061 14.4363 10.2258 14.6965 10.4124 15.0436C10.5991 15.3907 10.6423 15.7971 10.5329 16.1757C10.4234 16.5543 10.17 16.875 9.827 17.069C8.99821 17.5148 8.07206 17.7487 7.131 17.75Z" stroke="#00303E" stroke-linecap="round" stroke-linejoin="round"/>
<path d="M19.131 17.75C17.606 17.75 16.1435 17.1442 15.0651 16.0659C13.9868 14.9875 13.381 13.525 13.381 12C13.381 10.475 13.9868 9.01247 15.0651 7.93414C16.1435 6.8558 17.606 6.25 19.131 6.25C20.0257 6.24941 20.9078 6.46085 21.705 6.867C21.8815 6.9563 22.0387 7.07949 22.1676 7.22953C22.2964 7.37958 22.3945 7.55354 22.4562 7.74148C22.5178 7.92943 22.5419 8.12768 22.5269 8.32491C22.512 8.52215 22.4583 8.7145 22.369 8.891C22.2797 9.0675 22.1565 9.22468 22.0065 9.35357C21.8564 9.48245 21.6825 9.58053 21.4945 9.64219C21.3066 9.70384 21.1083 9.72788 20.9111 9.71292C20.7139 9.69796 20.5215 9.6443 20.345 9.555C19.9693 9.36238 19.5532 9.26194 19.131 9.262C18.4048 9.262 17.7084 9.55047 17.1949 10.0639C16.6815 10.5774 16.393 11.2738 16.393 12C16.393 12.7262 16.6815 13.4226 17.1949 13.9361C17.7084 14.4495 18.4048 14.738 19.131 14.738C19.574 14.738 20.01 14.627 20.399 14.415C20.75 14.2358 21.1573 14.2013 21.5334 14.3188C21.9096 14.4363 22.2248 14.6965 22.4114 15.0436C22.5981 15.3907 22.6413 15.7971 22.5319 16.1757C22.4224 16.5543 22.169 16.875 21.826 17.069C20.9975 17.5146 20.0717 17.7485 19.131 17.75Z" stroke="#00303E" stroke-linecap="round" stroke-linejoin="round"/>
</svg>
