<svg width="24" height="24" viewBox="0 0 24 24" fill="none" xmlns="http://www.w3.org/2000/svg">
<path d="M3.52699 21.836C3.47807 21.5489 3.49242 21.2547 3.56905 20.9737C3.64568 20.6928 3.78273 20.432 3.97063 20.2095C4.15853 19.987 4.39274 19.8083 4.6569 19.6857C4.92106 19.5632 5.20879 19.4998 5.49999 19.5H19.5C19.7652 19.5 20.0196 19.3946 20.2071 19.2071C20.3946 19.0196 20.5 18.7652 20.5 18.5V1.5C20.5 1.23478 20.3946 0.98043 20.2071 0.792893C20.0196 0.605357 19.7652 0.5 19.5 0.5H5.49999C4.96956 0.5 4.46085 0.710714 4.08578 1.08579C3.71071 1.46086 3.49999 1.96957 3.49999 2.5L3.52699 21.836Z" fill="#9FEAFF"/>
<path d="M5.5 23.5C4.96957 23.5 4.46086 23.2893 4.08579 22.9142C3.71071 22.5391 3.5 22.0304 3.5 21.5C3.5 20.9696 3.71071 20.4609 4.08579 20.0858C4.46086 19.7107 4.96957 19.5 5.5 19.5H19.5C19.7652 19.5 20.0196 19.3946 20.2071 19.2071C20.3946 19.0196 20.5 18.7652 20.5 18.5V23.5H5.5Z" fill="#DFF9FF"/>
<path d="M20.5 23.5H5.60699C5.12014 23.5108 4.645 23.35 4.26474 23.0458C3.88448 22.7416 3.62333 22.3133 3.52699 21.836C3.47807 21.5489 3.49242 21.2547 3.56905 20.9737C3.64568 20.6928 3.78273 20.432 3.97063 20.2095C4.15853 19.987 4.39274 19.8083 4.6569 19.6857C4.92106 19.5632 5.20879 19.4998 5.49999 19.5H19.5C19.7652 19.5 20.0196 19.3946 20.2071 19.2071C20.3946 19.0196 20.5 18.7652 20.5 18.5V1.5C20.5 1.23478 20.3946 0.98043 20.2071 0.792893C20.0196 0.605357 19.7652 0.5 19.5 0.5H5.49999C4.96956 0.5 4.46085 0.710714 4.08578 1.08579C3.71071 1.46086 3.49999 1.96957 3.49999 2.5V21.5" stroke="#00303E" stroke-linecap="round" stroke-linejoin="round"/>
<path d="M6.5 21.5H20.5" stroke="#00303E" stroke-linecap="round" stroke-linejoin="round"/>
<path d="M7.25999 9.91402C7.19717 9.82963 7.16324 9.72722 7.16324 9.62202C7.16324 9.51681 7.19717 9.41441 7.25999 9.33002C7.85519 8.47358 8.64104 7.76699 9.5557 7.26585C10.4704 6.7647 11.4888 6.48269 12.531 6.44202C13.5728 6.483 14.5909 6.76515 15.5052 7.26628C16.4195 7.76741 17.205 8.47385 17.8 9.33002C17.8628 9.41441 17.8967 9.51681 17.8967 9.62202C17.8967 9.72722 17.8628 9.82963 17.8 9.91402C17.2046 10.7696 16.4189 11.4756 15.5047 11.9763C14.5905 12.4771 13.5726 12.759 12.531 12.8C11.4891 12.7593 10.4708 12.4775 9.55616 11.9768C8.64156 11.476 7.85557 10.7699 7.25999 9.91402Z" fill="#9FEAFF" stroke="#00303E" stroke-linecap="round" stroke-linejoin="round"/>
<path d="M15.062 7.01794L10 12.2249" stroke="#00303E" stroke-linecap="round" stroke-linejoin="round"/>
</svg>
