<svg width="24" height="24" viewBox="0 0 24 24" fill="none" xmlns="http://www.w3.org/2000/svg">
<g clip-path="url(#clip0_3303_13549)">
<path d="M19.684 10.25C20.1374 11.0051 20.377 11.8692 20.377 12.75C20.377 13.6308 20.1374 14.4949 19.684 15.25" stroke="#00303E" stroke-linecap="round" stroke-linejoin="round"/>
<path d="M22.392 8.75C23.1168 9.95834 23.4997 11.3409 23.4997 12.75C23.4997 14.1591 23.1168 15.5417 22.392 16.75" stroke="#00303E" stroke-linecap="round" stroke-linejoin="round"/>
<path d="M0.5 18.878C0.632399 20.1001 1.2187 21.2281 2.1429 22.0386C3.06711 22.8492 4.26189 23.2834 5.49086 23.2552C6.71984 23.227 7.89348 22.7386 8.77959 21.8866C9.6657 21.0345 10.1997 19.8809 10.276 18.654L10.281 18.571C10.3141 17.7914 10.5474 17.0334 10.9582 16.3699C11.3691 15.7065 11.9438 15.16 12.627 14.783C13.7814 14.1373 14.7439 13.1972 15.4165 12.0583C16.0892 10.9195 16.4478 9.62263 16.456 8.29999C16.4504 6.42721 15.7517 4.62279 14.4946 3.23459C13.2376 1.8464 11.5111 0.972723 9.648 0.781993C8.19977 0.647035 6.74355 0.9361 5.45667 1.61398C4.16979 2.29187 3.10779 3.32932 2.4 4.59999" fill="#DFF9FF"/>
<path d="M0.5 18.878C0.632399 20.1001 1.2187 21.2281 2.1429 22.0386C3.06711 22.8492 4.26189 23.2834 5.49086 23.2552C6.71984 23.227 7.89348 22.7386 8.77959 21.8866C9.6657 21.0345 10.1997 19.8809 10.276 18.654L10.281 18.571C10.3141 17.7914 10.5474 17.0334 10.9582 16.3699C11.3691 15.7065 11.9438 15.16 12.627 14.783C13.7814 14.1373 14.7439 13.1972 15.4165 12.0583C16.0892 10.9195 16.4478 9.62263 16.456 8.29999C16.4504 6.42721 15.7517 4.62279 14.4946 3.23459C13.2376 1.8464 11.5111 0.972723 9.648 0.781993C8.19977 0.647035 6.74355 0.9361 5.45667 1.61398C4.16979 2.29187 3.10779 3.32932 2.4 4.59999" stroke="#00303E" stroke-linecap="round" stroke-linejoin="round"/>
<path d="M4.794 9.38301C4.56918 8.87963 4.45364 8.33431 4.455 7.78301C4.45736 7.26009 4.56269 6.74275 4.76499 6.26053C4.96728 5.77831 5.26258 5.34066 5.63402 4.97257C6.00545 4.60448 6.44575 4.31315 6.92978 4.11522C7.4138 3.91729 7.93207 3.81664 8.455 3.81901C12.446 3.81901 14.04 9.22901 11.611 12.469L10.627 13.78L4.794 9.38301Z" fill="#9FEAFF"/>
<path d="M2.127 12.783C2.127 13.2426 2.21753 13.6977 2.39342 14.1224C2.56931 14.547 2.82712 14.9328 3.15213 15.2578C3.47713 15.5828 3.86297 15.8406 4.28761 16.0165C4.71225 16.1924 5.16737 16.283 5.627 16.283C6.08663 16.283 6.54175 16.1924 6.96639 16.0165C7.39103 15.8406 7.77687 15.5828 8.10187 15.2578C8.42688 14.9328 8.68469 14.547 8.86058 14.1224C9.03647 13.6977 9.127 13.2426 9.127 12.783C9.127 11.8547 8.75825 10.9645 8.10187 10.3081C7.4455 9.65171 6.55526 9.28296 5.627 9.28296C4.69874 9.28296 3.8085 9.65171 3.15213 10.3081C2.49575 10.9645 2.127 11.8547 2.127 12.783Z" fill="#DFF9FF"/>
<path d="M3.15199 15.258C2.49558 14.6016 2.12682 13.7113 2.12682 12.783C2.12682 11.8547 2.49558 10.9644 3.15199 10.308C3.80841 9.6516 4.69869 9.28284 5.62699 9.28284C6.5553 9.28284 7.44558 9.6516 8.10199 10.308L3.15199 15.258Z" fill="white"/>
<path d="M4.7 6.55396C5.29464 6.30491 5.9416 6.20661 6.58339 6.26778C7.22517 6.32896 7.84191 6.54771 8.3788 6.90462C8.91568 7.26152 9.3561 7.74552 9.66091 8.3136C9.96571 8.88169 10.1255 9.51627 10.126 10.161C10.1287 11.1433 9.7732 12.093 9.126 12.832" stroke="#00303E" stroke-linecap="round" stroke-linejoin="round"/>
<path d="M2.127 12.783C2.127 13.2426 2.21753 13.6977 2.39342 14.1224C2.56931 14.547 2.82712 14.9328 3.15213 15.2578C3.47713 15.5828 3.86297 15.8406 4.28761 16.0165C4.71225 16.1924 5.16737 16.283 5.627 16.283C6.08663 16.283 6.54175 16.1924 6.96639 16.0165C7.39103 15.8406 7.77687 15.5828 8.10187 15.2578C8.42688 14.9328 8.68469 14.547 8.86058 14.1224C9.03647 13.6977 9.127 13.2426 9.127 12.783C9.127 11.8547 8.75825 10.9645 8.10187 10.3081C7.4455 9.65171 6.55526 9.28296 5.627 9.28296C4.69874 9.28296 3.8085 9.65171 3.15213 10.3081C2.49575 10.9645 2.127 11.8547 2.127 12.783Z" stroke="#00303E" stroke-linecap="round" stroke-linejoin="round"/>
<path d="M4.794 9.38301C4.56918 8.87963 4.45364 8.33431 4.455 7.78301C4.45736 7.26009 4.56269 6.74275 4.76499 6.26053C4.96728 5.77831 5.26258 5.34066 5.63402 4.97257C6.00545 4.60448 6.44575 4.31315 6.92978 4.11522C7.4138 3.91729 7.93207 3.81664 8.455 3.81901C12.446 3.81901 14.04 9.22901 11.611 12.469L10.627 13.78" stroke="#00303E" stroke-linecap="round" stroke-linejoin="round"/>
</g>
<defs>
<clipPath id="clip0_3303_13549">
<rect width="24" height="24" fill="white"/>
</clipPath>
</defs>
</svg>
