<svg width="24" height="24" viewBox="0 0 24 24" fill="none" xmlns="http://www.w3.org/2000/svg">
<g clip-path="url(#clip0_3303_12009)">
<path d="M0.5 12C0.5 13.5102 0.797456 15.0056 1.37539 16.4009C1.95331 17.7961 2.8004 19.0639 3.86827 20.1317C4.93615 21.1996 6.2039 22.0467 7.59914 22.6246C8.99438 23.2025 10.4898 23.5 12 23.5C13.5102 23.5 15.0056 23.2025 16.4009 22.6246C17.7961 22.0467 19.0639 21.1996 20.1317 20.1317C21.1996 19.0639 22.0467 17.7961 22.6246 16.4009C23.2025 15.0056 23.5 13.5102 23.5 12C23.5 10.4898 23.2025 8.99438 22.6246 7.59914C22.0467 6.2039 21.1996 4.93615 20.1317 3.86827C19.0639 2.8004 17.7961 1.95331 16.4009 1.37539C15.0056 0.797456 13.5102 0.5 12 0.5C10.4898 0.5 8.99438 0.797456 7.59914 1.37539C6.2039 1.95331 4.93615 2.8004 3.86827 3.86827C2.8004 4.93615 1.95331 6.2039 1.37539 7.59914C0.797456 8.99438 0.5 10.4898 0.5 12Z" fill="#DFF9FF"/>
<path d="M3.5 12C3.5 14.2543 4.39553 16.4163 5.98959 18.0104C7.58365 19.6045 9.74566 20.5 12 20.5C14.2543 20.5 16.4163 19.6045 18.0104 18.0104C19.6045 16.4163 20.5 14.2543 20.5 12C20.5 9.74566 19.6045 7.58365 18.0104 5.98959C16.4163 4.39553 14.2543 3.5 12 3.5C9.74566 3.5 7.58365 4.39553 5.98959 5.98959C4.39553 7.58365 3.5 9.74566 3.5 12Z" fill="white"/>
<path d="M12 17.515C9.47323 17.5126 7.01756 16.6782 5.0125 15.1405C3.00745 13.6029 1.56462 11.4477 0.907 9.008C0.440579 10.7142 0.374043 12.5051 0.712567 14.2413C1.05109 15.9774 1.78555 17.6121 2.85882 19.0181C3.93209 20.4242 5.31524 21.5637 6.90068 22.348C8.48613 23.1323 10.2311 23.5404 12 23.5404C13.7689 23.5404 15.5139 23.1323 17.0993 22.348C18.6848 21.5637 20.0679 20.4242 21.1412 19.0181C22.2145 17.6121 22.9489 15.9774 23.2874 14.2413C23.626 12.5051 23.5594 10.7142 23.093 9.008C22.4354 11.4477 20.9926 13.6029 18.9875 15.1405C16.9824 16.6782 14.5268 17.5126 12 17.515Z" fill="#9FEAFF"/>
<path d="M12 17.515C10.4604 17.5157 8.93648 17.2061 7.5192 16.6048C6.10191 16.0034 4.82034 15.1226 3.751 14.015C4.20029 15.8643 5.25786 17.5089 6.75396 18.6851C8.25007 19.8612 10.0979 20.5006 12.001 20.5006C13.9041 20.5006 15.7519 19.8612 17.248 18.6851C18.7441 17.5089 19.8017 15.8643 20.251 14.015C19.1814 15.1229 17.8995 16.0038 16.4819 16.6051C15.0642 17.2065 13.5399 17.5159 12 17.515Z" fill="#DFF9FF"/>
<path d="M0.5 12C0.5 13.5102 0.797456 15.0056 1.37539 16.4009C1.95331 17.7961 2.8004 19.0639 3.86827 20.1317C4.93615 21.1996 6.2039 22.0467 7.59914 22.6246C8.99438 23.2025 10.4898 23.5 12 23.5C13.5102 23.5 15.0056 23.2025 16.4009 22.6246C17.7961 22.0467 19.0639 21.1996 20.1317 20.1317C21.1996 19.0639 22.0467 17.7961 22.6246 16.4009C23.2025 15.0056 23.5 13.5102 23.5 12C23.5 10.4898 23.2025 8.99438 22.6246 7.59914C22.0467 6.2039 21.1996 4.93615 20.1317 3.86827C19.0639 2.8004 17.7961 1.95331 16.4009 1.37539C15.0056 0.797456 13.5102 0.5 12 0.5C10.4898 0.5 8.99438 0.797456 7.59914 1.37539C6.2039 1.95331 4.93615 2.8004 3.86827 3.86827C2.8004 4.93615 1.95331 6.2039 1.37539 7.59914C0.797456 8.99438 0.5 10.4898 0.5 12Z" stroke="#00303E" stroke-linecap="round" stroke-linejoin="round"/>
<path d="M3.5 12C3.5 14.2543 4.39553 16.4163 5.98959 18.0104C7.58365 19.6045 9.74566 20.5 12 20.5C14.2543 20.5 16.4163 19.6045 18.0104 18.0104C19.6045 16.4163 20.5 14.2543 20.5 12C20.5 9.74566 19.6045 7.58365 18.0104 5.98959C16.4163 4.39553 14.2543 3.5 12 3.5C9.74566 3.5 7.58365 4.39553 5.98959 5.98959C4.39553 7.58365 3.5 9.74566 3.5 12Z" stroke="#00303E" stroke-linecap="round" stroke-linejoin="round"/>
<path d="M11.521 7.09999C11.5519 6.99693 11.6151 6.90657 11.7014 6.84232C11.7877 6.77808 11.8924 6.74338 12 6.74338C12.1076 6.74338 12.2123 6.77808 12.2986 6.84232C12.3849 6.90657 12.4481 6.99693 12.479 7.09999L13.5 10.5H16.44C16.5459 10.5001 16.6491 10.5338 16.7346 10.5963C16.8201 10.6588 16.8836 10.7468 16.9158 10.8477C16.9481 10.9486 16.9475 11.0571 16.9141 11.1576C16.8807 11.2582 16.8162 11.3455 16.73 11.407L14.5 13L15.494 15.982C15.5278 16.0832 15.5284 16.1925 15.4957 16.2941C15.4629 16.3956 15.3986 16.484 15.312 16.5464C15.2254 16.6087 15.1211 16.6417 15.0144 16.6406C14.9077 16.6394 14.8042 16.6042 14.719 16.54L12 14.5L9.281 16.54C9.19578 16.6042 9.09225 16.6394 8.98556 16.6406C8.87887 16.6417 8.77461 16.6087 8.68802 16.5464C8.60143 16.484 8.53706 16.3956 8.50431 16.2941C8.47156 16.1925 8.47215 16.0832 8.506 15.982L9.5 13L7.27 11.407C7.18378 11.3455 7.11933 11.2582 7.08594 11.1576C7.05254 11.0571 7.05193 10.9486 7.08418 10.8477C7.11644 10.7468 7.1799 10.6588 7.26542 10.5963C7.35093 10.5338 7.45408 10.5001 7.56 10.5H10.5L11.521 7.09999Z" fill="#9FEAFF"/>
<path d="M13.5 10.5L12.48 7.09999C12.4491 6.99693 12.3859 6.90657 12.2996 6.84232C12.2133 6.77808 12.1086 6.74338 12.001 6.74338C11.8934 6.74338 11.7887 6.77808 11.7024 6.84232C11.6161 6.90657 11.5529 6.99693 11.522 7.09999L10.5 10.5H7.56C7.45408 10.5001 7.35093 10.5338 7.26542 10.5963C7.1799 10.6588 7.11644 10.7468 7.08418 10.8477C7.05193 10.9486 7.05254 11.0571 7.08594 11.1576C7.11933 11.2582 7.18378 11.3455 7.27 11.407L9.5 13L8.752 15.245L13.5 10.5Z" fill="#DFF9FF"/>
<path d="M11.521 7.09999C11.5519 6.99693 11.6151 6.90657 11.7014 6.84232C11.7877 6.77808 11.8924 6.74338 12 6.74338C12.1076 6.74338 12.2123 6.77808 12.2986 6.84232C12.3849 6.90657 12.4481 6.99693 12.479 7.09999L13.5 10.5H16.44C16.5459 10.5001 16.6491 10.5338 16.7346 10.5963C16.8201 10.6588 16.8836 10.7468 16.9158 10.8477C16.9481 10.9486 16.9475 11.0571 16.9141 11.1576C16.8807 11.2582 16.8162 11.3455 16.73 11.407L14.5 13L15.494 15.982C15.5278 16.0832 15.5284 16.1925 15.4957 16.2941C15.4629 16.3956 15.3986 16.484 15.312 16.5464C15.2254 16.6087 15.1211 16.6417 15.0144 16.6406C14.9077 16.6394 14.8042 16.6042 14.719 16.54L12 14.5L9.281 16.54C9.19578 16.6042 9.09225 16.6394 8.98556 16.6406C8.87887 16.6417 8.77461 16.6087 8.68802 16.5464C8.60143 16.484 8.53706 16.3956 8.50431 16.2941C8.47156 16.1925 8.47215 16.0832 8.506 15.982L9.5 13L7.27 11.407C7.18378 11.3455 7.11933 11.2582 7.08594 11.1576C7.05254 11.0571 7.05193 10.9486 7.08418 10.8477C7.11644 10.7468 7.1799 10.6588 7.26542 10.5963C7.35093 10.5338 7.45408 10.5001 7.56 10.5H10.5L11.521 7.09999Z" stroke="#00303E" stroke-linecap="round" stroke-linejoin="round"/>
</g>
<defs>
<clipPath id="clip0_3303_12009">
<rect width="24" height="24" fill="white"/>
</clipPath>
</defs>
</svg>
