<svg width="24" height="24" viewBox="0 0 24 24" fill="none" xmlns="http://www.w3.org/2000/svg">
<g clip-path="url(#clip0_3303_13597)">
<path d="M0.5 12C0.5 13.5102 0.797456 15.0056 1.37539 16.4009C1.95331 17.7961 2.8004 19.0639 3.86827 20.1317C4.93615 21.1996 6.2039 22.0467 7.59914 22.6246C8.99438 23.2025 10.4898 23.5 12 23.5C13.5102 23.5 15.0056 23.2025 16.4009 22.6246C17.7961 22.0467 19.0639 21.1996 20.1317 20.1317C21.1996 19.0639 22.0467 17.7961 22.6246 16.4009C23.2025 15.0056 23.5 13.5102 23.5 12C23.5 10.4898 23.2025 8.99438 22.6246 7.59914C22.0467 6.2039 21.1996 4.93615 20.1317 3.86827C19.0639 2.8004 17.7961 1.95331 16.4009 1.37539C15.0056 0.797456 13.5102 0.5 12 0.5C10.4898 0.5 8.99438 0.797456 7.59914 1.37539C6.2039 1.95331 4.93615 2.8004 3.86827 3.86827C2.8004 4.93615 1.95331 6.2039 1.37539 7.59914C0.797456 8.99438 0.5 10.4898 0.5 12Z" fill="#9FEAFF"/>
<path d="M12 0.500003C9.7077 0.49844 7.46731 1.18245 5.5668 2.4641C3.66628 3.74576 2.19248 5.5665 1.33483 7.69231C0.477172 9.81811 0.274857 12.1518 0.753884 14.3935C1.23291 16.6352 2.37139 18.6824 4.02299 20.272L20.272 4.023C19.2021 2.90819 17.9177 2.02137 16.4961 1.41593C15.0745 0.81048 13.5451 0.498921 12 0.500003Z" fill="#DFF9FF"/>
<path d="M0.5 12C0.5 13.5102 0.797456 15.0056 1.37539 16.4009C1.95331 17.7961 2.8004 19.0639 3.86827 20.1317C4.93615 21.1996 6.2039 22.0467 7.59914 22.6246C8.99438 23.2025 10.4898 23.5 12 23.5C13.5102 23.5 15.0056 23.2025 16.4009 22.6246C17.7961 22.0467 19.0639 21.1996 20.1317 20.1317C21.1996 19.0639 22.0467 17.7961 22.6246 16.4009C23.2025 15.0056 23.5 13.5102 23.5 12C23.5 10.4898 23.2025 8.99438 22.6246 7.59914C22.0467 6.2039 21.1996 4.93615 20.1317 3.86827C19.0639 2.8004 17.7961 1.95331 16.4009 1.37539C15.0056 0.797456 13.5102 0.5 12 0.5C10.4898 0.5 8.99438 0.797456 7.59914 1.37539C6.2039 1.95331 4.93615 2.8004 3.86827 3.86827C2.8004 4.93615 1.95331 6.2039 1.37539 7.59914C0.797456 8.99438 0.5 10.4898 0.5 12Z" stroke="#00303E" stroke-linecap="round" stroke-linejoin="round"/>
<path d="M12 20.04L10.98 23.45C8.02454 23.1956 5.2843 21.8003 3.34 19.56L4.71 16.37L12 20.04Z" fill="#9FEAFF"/>
<path d="M10.98 23.4599V23.45" stroke="#00303E" stroke-linecap="round" stroke-linejoin="round"/>
<path d="M19.5 12.8501C19.5 15.8501 17.25 15.8101 14.41 16.4501L13.02 16.6001L12 20.0401L4.70999 16.3701L6.78999 11.5401C6.95999 9.80006 8.26999 5.75006 10.43 4.43006C10.4916 4.39034 10.5614 4.36519 10.6342 4.35653C10.707 4.34786 10.7808 4.35591 10.85 4.38006C10.9191 4.40399 10.9824 4.44217 11.0358 4.49212C11.0892 4.54208 11.1315 4.6027 11.16 4.67006L12.71 8.64006L16.69 9.51006C17.4774 9.64518 18.1916 10.0547 18.7059 10.6661C19.2203 11.2774 19.5016 12.0511 19.5 12.8501Z" fill="#9FEAFF"/>
<path d="M4.02299 20.272L6.84899 17.447L4.70999 16.37L3.34399 19.551C3.56099 19.8 3.78499 20.043 4.02299 20.272Z" fill="#DFF9FF"/>
<path d="M12.71 8.64006L11.16 4.67006C11.1315 4.6027 11.0892 4.54208 11.0358 4.49212C10.9824 4.44217 10.9191 4.40399 10.85 4.38006C10.7808 4.35591 10.707 4.34786 10.6342 4.35653C10.5614 4.36519 10.4916 4.39034 10.43 4.43006C8.26999 5.75006 6.95999 9.80006 6.78999 11.5401L4.70999 16.3701L6.84899 17.4471L15.127 9.16806L12.71 8.64006Z" fill="#DFF9FF"/>
<path d="M19.5 12.8501C19.5 15.8501 17.25 15.8101 14.41 16.4501L13.02 16.6001L12 20.0401L4.70999 16.3701L6.78999 11.5401C6.95999 9.80006 8.26999 5.75006 10.43 4.43006C10.4916 4.39034 10.5614 4.36519 10.6342 4.35653C10.707 4.34786 10.7808 4.35591 10.85 4.38006C10.9191 4.40399 10.9824 4.44217 11.0358 4.49212C11.0892 4.54208 11.1315 4.6027 11.16 4.67006L12.71 8.64006L16.69 9.51006C17.4774 9.64518 18.1916 10.0547 18.7059 10.6661C19.2203 11.2774 19.5016 12.0511 19.5 12.8501Z" stroke="#00303E" stroke-linecap="round" stroke-linejoin="round"/>
<path d="M12 20.04L10.98 23.45C8.02454 23.1956 5.2843 21.8003 3.34 19.56L4.71 16.37L12 20.04Z" stroke="#00303E" stroke-linecap="round" stroke-linejoin="round"/>
</g>
<defs>
<clipPath id="clip0_3303_13597">
<rect width="24" height="24" fill="white"/>
</clipPath>
</defs>
</svg>
