<svg width="24" height="24" viewBox="0 0 24 24" fill="none" xmlns="http://www.w3.org/2000/svg">
<g clip-path="url(#clip0_3303_3689)">
<path d="M23.5 16.5V22.5C23.5 22.7652 23.3946 23.0196 23.2071 23.2071C23.0196 23.3946 22.7652 23.5 22.5 23.5H1.5C1.23478 23.5 0.98043 23.3946 0.792893 23.2071C0.605357 23.0196 0.5 22.7652 0.5 22.5V16.5H7.5V17.5C7.50158 18.0299 7.7128 18.5377 8.08753 18.9125C8.46227 19.2872 8.97005 19.4984 9.5 19.5H14.5C15.0299 19.4984 15.5377 19.2872 15.9125 18.9125C16.2872 18.5377 16.4984 18.0299 16.5 17.5V16.5H23.5Z" fill="#DFF9FF"/>
<path d="M23.5 16.5H16.5V17.5C16.4984 18.03 16.2872 18.5377 15.9125 18.9125C15.5377 19.2872 15.0299 19.4984 14.5 19.5H9.5C8.97005 19.4984 8.46227 19.2872 8.08753 18.9125C7.7128 18.5377 7.50158 18.03 7.5 17.5V16.5H0.5L3.71 11C3.79726 10.8489 3.92254 10.7232 4.07342 10.6355C4.22429 10.5478 4.39549 10.5011 4.57 10.5H19.42C19.5962 10.4993 19.7695 10.5452 19.9223 10.633C20.075 10.7208 20.2019 10.8474 20.29 11L23.5 16.5Z" fill="#9FEAFF"/>
<path d="M23.5 22.5C23.5 22.7652 23.3946 23.0196 23.2071 23.2071C23.0196 23.3946 22.7652 23.5 22.5 23.5H1.5C1.23478 23.5 0.98043 23.3946 0.792893 23.2071C0.605357 23.0196 0.5 22.7652 0.5 22.5V16.5H7.5V17.5C7.50158 18.0299 7.7128 18.5377 8.08753 18.9125C8.46227 19.2872 8.97005 19.4984 9.5 19.5H14.5C15.0299 19.4984 15.5377 19.2872 15.9125 18.9125C16.2872 18.5377 16.4984 18.0299 16.5 17.5V16.5H23.5V22.5Z" stroke="#00303E" stroke-linecap="round" stroke-linejoin="round"/>
<path d="M0.5 16.5L3.711 11C3.79851 10.8484 3.92427 10.7225 4.07572 10.6347C4.22716 10.547 4.39898 10.5005 4.574 10.5H6.5" stroke="#00303E" stroke-linecap="round" stroke-linejoin="round"/>
<path d="M17.5 10.5H19.426C19.601 10.5005 19.7728 10.547 19.9243 10.6347C20.0757 10.7225 20.2015 10.8484 20.289 11L23.5 16.5" stroke="#00303E" stroke-linecap="round" stroke-linejoin="round"/>
<path d="M12 11.5V0.5" stroke="#00303E" stroke-linecap="round" stroke-linejoin="round"/>
<path d="M16 7.5L12 11.5L8 7.5" stroke="#00303E" stroke-linecap="round" stroke-linejoin="round"/>
</g>
<defs>
<clipPath id="clip0_3303_3689">
<rect width="24" height="24" fill="white"/>
</clipPath>
</defs>
</svg>
