<svg width="24" height="24" viewBox="0 0 24 24" fill="none" xmlns="http://www.w3.org/2000/svg">
<path d="M16 9.5H16.382C17.1613 9.39549 17.8762 9.01204 18.3944 8.4207C18.9125 7.82936 19.1988 7.07023 19.2 6.284C19.2059 5.85816 19.1258 5.43551 18.9645 5.04137C18.8031 4.64723 18.5639 4.28973 18.2611 3.99027C17.9583 3.69081 17.5981 3.45557 17.2022 3.29864C16.8063 3.14171 16.3827 3.06633 15.957 3.077C15.6134 2.31364 15.0579 1.66499 14.3564 1.20816C13.655 0.751332 12.8371 0.505538 12 0.5C10.8696 0.514166 9.78741 0.960049 8.97512 1.7463C8.16284 2.53256 7.68196 3.59966 7.631 4.729C7.28434 4.65946 6.92651 4.6685 6.58381 4.75545C6.2411 4.8424 5.92224 5.00505 5.65067 5.23144C5.37909 5.45783 5.16171 5.74221 5.0145 6.06367C4.86729 6.38513 4.79399 6.73549 4.8 7.089C4.79737 7.41393 4.86092 7.736 4.98678 8.03558C5.11264 8.33517 5.29816 8.60599 5.53206 8.83156C5.76596 9.05713 6.04332 9.23272 6.34727 9.34764C6.65122 9.46256 6.97537 9.5144 7.3 9.5H16Z" fill="#DFF9FF"/>
<path d="M7.631 7.729C7.68196 6.59966 8.16284 5.53256 8.97512 4.7463C9.78741 3.96005 10.8696 3.51417 12 3.5C12.8371 3.50554 13.655 3.75133 14.3564 4.20816C15.0579 4.66499 15.6134 5.31364 15.957 6.077C16.5554 6.05844 17.1463 6.21353 17.6585 6.52354C18.1706 6.83356 18.582 7.28523 18.843 7.824C19.0866 7.34774 19.2092 6.81885 19.2 6.284C19.2059 5.85816 19.1258 5.43551 18.9645 5.04137C18.8031 4.64723 18.5639 4.28973 18.2611 3.99027C17.9583 3.69081 17.5981 3.45557 17.2022 3.29864C16.8063 3.14171 16.3827 3.06633 15.957 3.077C15.6134 2.31364 15.0579 1.66499 14.3564 1.20816C13.655 0.751332 12.8371 0.505538 12 0.5C10.8696 0.514166 9.78741 0.960049 8.97512 1.7463C8.16284 2.53256 7.68196 3.59966 7.631 4.729C7.28437 4.65966 6.9266 4.66883 6.58398 4.75586C6.24136 4.84288 5.92258 5.00554 5.65105 5.23189C5.37952 5.45825 5.16214 5.74255 5.01487 6.06391C4.8676 6.38528 4.79418 6.73555 4.8 7.089C4.77646 7.64131 4.95014 8.18399 5.29 8.62C5.55338 8.26229 5.91423 7.98802 6.32938 7.83001C6.74454 7.672 7.19643 7.63693 7.631 7.729Z" fill="white"/>
<path d="M16 9.5H16.382C17.1613 9.39549 17.8762 9.01204 18.3944 8.4207C18.9125 7.82936 19.1988 7.07023 19.2 6.284C19.2059 5.85816 19.1258 5.43551 18.9645 5.04137C18.8031 4.64723 18.5639 4.28973 18.2611 3.99027C17.9583 3.69081 17.5981 3.45557 17.2022 3.29864C16.8063 3.14171 16.3827 3.06633 15.957 3.077C15.6134 2.31364 15.0579 1.66499 14.3564 1.20816C13.655 0.751332 12.8371 0.505538 12 0.5C10.8696 0.514166 9.78741 0.960049 8.97512 1.7463C8.16284 2.53256 7.68196 3.59966 7.631 4.729C7.28434 4.65946 6.92651 4.6685 6.58381 4.75545C6.2411 4.8424 5.92224 5.00505 5.65067 5.23144C5.37909 5.45783 5.16171 5.74221 5.0145 6.06367C4.86729 6.38513 4.79399 6.73549 4.8 7.089C4.79737 7.41393 4.86092 7.736 4.98678 8.03558C5.11264 8.33517 5.29816 8.60599 5.53206 8.83156C5.76596 9.05713 6.04332 9.23272 6.34727 9.34764C6.65122 9.46256 6.97537 9.5144 7.3 9.5H8" stroke="#00303E" stroke-linecap="round" stroke-linejoin="round"/>
<path d="M12 12V7" stroke="#00303E" stroke-linecap="round" stroke-linejoin="round"/>
<path d="M10 10L12 12L14 10" stroke="#00303E" stroke-linecap="round" stroke-linejoin="round"/>
<path d="M7.221 15.5L8 13" stroke="#00303E" stroke-linecap="round" stroke-linejoin="round"/>
<path d="M17.029 15.5L16 13" stroke="#00303E" stroke-linecap="round" stroke-linejoin="round"/>
<path d="M15.658 23.5C15.9822 23.4975 16.2953 23.3818 16.5433 23.1729C16.7912 22.964 16.9584 22.6751 17.016 22.356L18 17.5H6L7.022 22.552C7.07772 22.8222 7.22576 23.0646 7.44071 23.2376C7.65566 23.4106 7.92411 23.5034 8.2 23.5H15.66H15.658Z" fill="#DFF9FF"/>
<path d="M17.493 20L18 17.5H5.995L6.501 20H17.493Z" fill="#9FEAFF"/>
<path d="M15.658 23.5C15.9822 23.4975 16.2953 23.3818 16.5433 23.1729C16.7912 22.964 16.9584 22.6751 17.016 22.356L18 17.5H6L7.022 22.552C7.07772 22.8222 7.22576 23.0646 7.44071 23.2376C7.65566 23.4106 7.92411 23.5034 8.2 23.5H15.66H15.658Z" stroke="#00303E" stroke-linecap="round" stroke-linejoin="round"/>
<path d="M19 17.5H5V16.5C5 16.2348 5.10536 15.9804 5.29289 15.7929C5.48043 15.6054 5.73478 15.5 6 15.5H18C18.2652 15.5 18.5196 15.6054 18.7071 15.7929C18.8946 15.9804 19 16.2348 19 16.5V17.5Z" fill="white" stroke="#00303E" stroke-linecap="round" stroke-linejoin="round"/>
<path d="M12 19.5V21.5" stroke="#00303E" stroke-linecap="round" stroke-linejoin="round"/>
<path d="M9 19.5L9.5 21.5" stroke="#00303E" stroke-linecap="round" stroke-linejoin="round"/>
<path d="M15 19.5L14.5 21.5" stroke="#00303E" stroke-linecap="round" stroke-linejoin="round"/>
</svg>
