<svg width="24" height="24" viewBox="0 0 24 24" fill="none" xmlns="http://www.w3.org/2000/svg">
<g clip-path="url(#clip0_3303_8944)">
<path d="M10.5 22.5C10.5 22.7652 10.3946 23.0195 10.2071 23.2071C10.0196 23.3946 9.76522 23.5 9.5 23.5H8.5C8.23478 23.5 7.98043 23.3946 7.79289 23.2071C7.60536 23.0195 7.5 22.7652 7.5 22.5V9.99998C6.71307 10.3469 5.85981 10.5175 5 10.5C4.20531 10.5082 3.41765 10.3505 2.68739 10.0369C1.95712 9.72334 1.30033 9.26084 0.759 8.67898C0.592203 8.49492 0.499877 8.25537 0.5 8.00698V2.99298C0.499877 2.74458 0.592203 2.50504 0.759 2.32098C1.30033 1.73911 1.95712 1.27661 2.68739 0.963054C3.41765 0.649494 4.20531 0.491773 5 0.499977C6.39156 0.436899 7.75146 0.927543 8.78219 1.86457C9.81292 2.8016 10.4306 4.10872 10.5 5.49998V22.5Z" fill="#DFF9FF"/>
<path d="M13.5 22.5C13.5 22.7652 13.6054 23.0195 13.7929 23.2071C13.9804 23.3946 14.2348 23.5 14.5 23.5H15.5C15.7652 23.5 16.0196 23.3946 16.2071 23.2071C16.3946 23.0195 16.5 22.7652 16.5 22.5V9.99998C17.2869 10.3469 18.1402 10.5175 19 10.5C19.7947 10.5082 20.5824 10.3505 21.3126 10.0369C22.0429 9.72334 22.6997 9.26084 23.241 8.67898C23.4078 8.49492 23.5001 8.25537 23.5 8.00698V2.99298C23.5001 2.74458 23.4078 2.50504 23.241 2.32098C22.6997 1.73911 22.0429 1.27661 21.3126 0.963054C20.5824 0.649494 19.7947 0.491773 19 0.499977C17.6084 0.436899 16.2485 0.927543 15.2178 1.86457C14.1871 2.8016 13.5694 4.10872 13.5 5.49998V22.5Z" fill="#DFF9FF"/>
<path d="M10.5 5.50002V9.42002C10.4308 8.02867 9.81326 6.72139 8.78247 5.78431C7.75168 4.84723 6.39163 4.35668 5 4.42002C4.20556 4.41189 3.41816 4.56955 2.68809 4.88293C1.95802 5.19631 1.30134 5.65851 0.760002 6.24002C0.592149 6.42669 0.499507 6.66899 0.500002 6.92002V2.99002C0.499586 2.74199 0.592386 2.50285 0.760002 2.32002C1.30134 1.73851 1.95802 1.27631 2.68809 0.962928C3.41816 0.649551 4.20556 0.491891 5 0.500021C6.39163 0.436676 7.75168 0.927229 8.78247 1.86431C9.81326 2.80139 10.4308 4.10867 10.5 5.50002Z" fill="white"/>
<path d="M23.5 2.99002V6.92002C23.5005 6.66899 23.4079 6.42669 23.24 6.24002C22.6987 5.65851 22.042 5.19631 21.3119 4.88293C20.5818 4.56955 19.7944 4.41189 19 4.42002C17.6084 4.35668 16.2483 4.84723 15.2175 5.78431C14.1867 6.72139 13.5692 8.02867 13.5 9.42002V5.50002C13.5692 4.10867 14.1867 2.80139 15.2175 1.86431C16.2483 0.927229 17.6084 0.436676 19 0.500021C19.7944 0.491891 20.5818 0.649551 21.3119 0.962928C22.042 1.27631 22.6987 1.73851 23.24 2.32002C23.4076 2.50285 23.5004 2.74199 23.5 2.99002Z" fill="white"/>
<path d="M10.5 22.5C10.5 22.7652 10.3946 23.0195 10.2071 23.2071C10.0196 23.3946 9.76522 23.5 9.5 23.5H8.5C8.23478 23.5 7.98043 23.3946 7.79289 23.2071C7.60536 23.0195 7.5 22.7652 7.5 22.5V9.99998C6.71307 10.3469 5.85981 10.5175 5 10.5C4.20531 10.5082 3.41765 10.3505 2.68739 10.0369C1.95712 9.72334 1.30033 9.26084 0.759 8.67898C0.592203 8.49492 0.499877 8.25537 0.5 8.00698V2.99298C0.499877 2.74458 0.592203 2.50504 0.759 2.32098C1.30033 1.73911 1.95712 1.27661 2.68739 0.963054C3.41765 0.649494 4.20531 0.491773 5 0.499977C6.39156 0.436899 7.75146 0.927543 8.78219 1.86457C9.81292 2.8016 10.4306 4.10872 10.5 5.49998V22.5Z" stroke="#00303E" stroke-linecap="round" stroke-linejoin="round"/>
<path d="M13.5 22.5C13.5 22.7652 13.6054 23.0195 13.7929 23.2071C13.9804 23.3946 14.2348 23.5 14.5 23.5H15.5C15.7652 23.5 16.0196 23.3946 16.2071 23.2071C16.3946 23.0195 16.5 22.7652 16.5 22.5V9.99998C17.2869 10.3469 18.1402 10.5175 19 10.5C19.7947 10.5082 20.5824 10.3505 21.3126 10.0369C22.0429 9.72334 22.6997 9.26084 23.241 8.67898C23.4078 8.49492 23.5001 8.25537 23.5 8.00698V2.99298C23.5001 2.74458 23.4078 2.50504 23.241 2.32098C22.6997 1.73911 22.0429 1.27661 21.3126 0.963054C20.5824 0.649494 19.7947 0.491773 19 0.499977C17.6084 0.436899 16.2485 0.927543 15.2178 1.86457C14.1871 2.8016 13.5694 4.10872 13.5 5.49998V22.5Z" stroke="#00303E" stroke-linecap="round" stroke-linejoin="round"/>
<path d="M6 8.5C6.39782 8.5 6.77936 8.65804 7.06066 8.93934C7.34196 9.22064 7.5 9.60218 7.5 10" stroke="#00303E" stroke-linecap="round" stroke-linejoin="round"/>
<path d="M3 5.25C3.04945 5.25 3.09778 5.26466 3.13889 5.29213C3.18 5.3196 3.21205 5.35865 3.23097 5.40433C3.24989 5.45001 3.25484 5.50028 3.2452 5.54877C3.23555 5.59727 3.21174 5.64181 3.17678 5.67678C3.14181 5.71174 3.09727 5.73555 3.04877 5.7452C3.00028 5.75484 2.95001 5.74989 2.90433 5.73097C2.85865 5.71205 2.8196 5.68 2.79213 5.63889C2.76466 5.59778 2.75 5.54945 2.75 5.5C2.75 5.4337 2.77634 5.37011 2.82322 5.32322C2.87011 5.27634 2.9337 5.25 3 5.25Z" stroke="#00303E" stroke-linecap="round" stroke-linejoin="round"/>
<path d="M18 8.5C17.6022 8.5 17.2206 8.65804 16.9393 8.93934C16.658 9.22064 16.5 9.60218 16.5 10" stroke="#00303E" stroke-linecap="round" stroke-linejoin="round"/>
<path d="M21 5.25C20.9506 5.25 20.9022 5.26466 20.8611 5.29213C20.82 5.3196 20.788 5.35865 20.769 5.40433C20.7501 5.45001 20.7452 5.50028 20.7548 5.54877C20.7645 5.59727 20.7883 5.64181 20.8232 5.67678C20.8582 5.71174 20.9027 5.73555 20.9512 5.7452C20.9997 5.75484 21.05 5.74989 21.0957 5.73097C21.1414 5.71205 21.1804 5.68 21.2079 5.63889C21.2353 5.59778 21.25 5.54945 21.25 5.5C21.25 5.4337 21.2237 5.37011 21.1768 5.32322C21.1299 5.27634 21.0663 5.25 21 5.25Z" stroke="#00303E" stroke-linecap="round" stroke-linejoin="round"/>
</g>
<defs>
<clipPath id="clip0_3303_8944">
<rect width="24" height="24" fill="white"/>
</clipPath>
</defs>
</svg>
