<svg width="24" height="24" viewBox="0 0 24 24" fill="none" xmlns="http://www.w3.org/2000/svg">
<g clip-path="url(#clip0_3303_6631)">
<path d="M3.5 14.497H20.5C20.5 14.497 21.5 14.497 21.5 15.497V18.497C21.5 18.497 21.5 19.497 20.5 19.497H3.5C3.5 19.497 2.5 19.497 2.5 18.497V15.497C2.5 15.497 2.5 14.497 3.5 14.497Z" fill="#DFF9FF"/>
<path d="M20.5 14.5H3.5C3.23478 14.5 2.98043 14.6054 2.79289 14.7929C2.60536 14.9804 2.5 15.2348 2.5 15.5V17.5C2.5 17.2348 2.60536 16.9804 2.79289 16.7929C2.98043 16.6054 3.23478 16.5 3.5 16.5H20.5C20.7652 16.5 21.0196 16.6054 21.2071 16.7929C21.3946 16.9804 21.5 17.2348 21.5 17.5V15.5C21.5 15.2348 21.3946 14.9804 21.2071 14.7929C21.0196 14.6054 20.7652 14.5 20.5 14.5Z" fill="white"/>
<path d="M3.5 14.497H20.5C20.5 14.497 21.5 14.497 21.5 15.497V18.497C21.5 18.497 21.5 19.497 20.5 19.497H3.5C3.5 19.497 2.5 19.497 2.5 18.497V15.497C2.5 15.497 2.5 14.497 3.5 14.497Z" stroke="#00303E" stroke-linecap="round" stroke-linejoin="round"/>
<path d="M6.5 10.5H17.5C17.7652 10.5 18.0196 10.6054 18.2071 10.7929C18.3946 10.9804 18.5 11.2348 18.5 11.5V14.5H5.5V11.5C5.5 11.2348 5.60536 10.9804 5.79289 10.7929C5.98043 10.6054 6.23478 10.5 6.5 10.5Z" fill="#9FEAFF"/>
<path d="M5.5 12.5H18.5V14.5H5.5V12.5Z" fill="#9FEAFF"/>
<path d="M6.5 10.5H17.5C17.7652 10.5 18.0196 10.6054 18.2071 10.7929C18.3946 10.9804 18.5 11.2348 18.5 11.5V14.5H5.5V11.5C5.5 11.2348 5.60536 10.9804 5.79289 10.7929C5.98043 10.6054 6.23478 10.5 6.5 10.5Z" stroke="#00303E" stroke-linecap="round" stroke-linejoin="round"/>
<path d="M5.5 19.497V23.497" stroke="#00303E" stroke-linecap="round" stroke-linejoin="round"/>
<path d="M12 19.497V23.497" stroke="#00303E" stroke-linecap="round" stroke-linejoin="round"/>
<path d="M18.5 19.497V23.497" stroke="#00303E" stroke-linecap="round" stroke-linejoin="round"/>
<path d="M9.367 10.5L7.145 2.951C7.07072 2.70276 7.04768 2.44201 7.07726 2.18458C7.10685 1.92716 7.18845 1.67844 7.31711 1.45352C7.44577 1.2286 7.6188 1.03218 7.8257 0.876189C8.0326 0.720197 8.26905 0.607887 8.52069 0.54608C8.77233 0.484273 9.0339 0.474259 9.28953 0.516646C9.54516 0.559033 9.7895 0.652937 10.0077 0.792655C10.2259 0.932372 10.4135 1.11499 10.559 1.32941C10.7044 1.54383 10.8048 1.78559 10.854 2.04L12.528 10.5H9.367Z" fill="#DFF9FF"/>
<path d="M8.77802 8.49699L9.36701 10.497H12.528L12.132 8.49699H8.77802Z" fill="#9FEAFF"/>
<path d="M9.367 10.5L7.145 2.951C7.07072 2.70276 7.04768 2.44201 7.07726 2.18458C7.10685 1.92716 7.18845 1.67844 7.31711 1.45352C7.44577 1.2286 7.6188 1.03218 7.8257 0.876189C8.0326 0.720197 8.26905 0.607887 8.52069 0.54608C8.77233 0.484273 9.0339 0.474259 9.28953 0.516646C9.54516 0.559033 9.7895 0.652937 10.0077 0.792655C10.2259 0.932372 10.4135 1.11499 10.559 1.32941C10.7044 1.54383 10.8048 1.78559 10.854 2.04L12.528 10.5H9.367Z" stroke="#00303E" stroke-linecap="round" stroke-linejoin="round"/>
</g>
<defs>
<clipPath id="clip0_3303_6631">
<rect width="24" height="24" fill="white"/>
</clipPath>
</defs>
</svg>
