<svg width="24" height="24" viewBox="0 0 24 24" fill="none" xmlns="http://www.w3.org/2000/svg">
<g clip-path="url(#clip0_3303_2823)">
<path d="M0.5 12C0.5 13.5102 0.797456 15.0056 1.37539 16.4009C1.95331 17.7961 2.8004 19.0639 3.86827 20.1317C4.93615 21.1996 6.2039 22.0467 7.59914 22.6246C8.99438 23.2025 10.4898 23.5 12 23.5C13.5102 23.5 15.0056 23.2025 16.4009 22.6246C17.7961 22.0467 19.0639 21.1996 20.1317 20.1317C21.1996 19.0639 22.0467 17.7961 22.6246 16.4009C23.2025 15.0056 23.5 13.5102 23.5 12C23.5 10.4898 23.2025 8.99438 22.6246 7.59914C22.0467 6.2039 21.1996 4.93615 20.1317 3.86827C19.0639 2.8004 17.7961 1.95331 16.4009 1.37539C15.0056 0.797456 13.5102 0.5 12 0.5C10.4898 0.5 8.99438 0.797456 7.59914 1.37539C6.2039 1.95331 4.93615 2.8004 3.86827 3.86827C2.8004 4.93615 1.95331 6.2039 1.37539 7.59914C0.797456 8.99438 0.5 10.4898 0.5 12Z" fill="#9FEAFF"/>
<path d="M12 23.5C8.95001 23.5 6.02494 22.2884 3.86827 20.1317C1.7116 17.9751 0.5 15.05 0.5 12C0.5 8.95001 1.7116 6.02494 3.86827 3.86827C6.02494 1.7116 8.95001 0.5 12 0.5V23.5Z" fill="#DFF9FF"/>
<path d="M0.5 12C0.5 13.5102 0.797456 15.0056 1.37539 16.4009C1.95331 17.7961 2.8004 19.0639 3.86827 20.1317C4.93615 21.1996 6.2039 22.0467 7.59914 22.6246C8.99438 23.2025 10.4898 23.5 12 23.5C13.5102 23.5 15.0056 23.2025 16.4009 22.6246C17.7961 22.0467 19.0639 21.1996 20.1317 20.1317C21.1996 19.0639 22.0467 17.7961 22.6246 16.4009C23.2025 15.0056 23.5 13.5102 23.5 12C23.5 10.4898 23.2025 8.99438 22.6246 7.59914C22.0467 6.2039 21.1996 4.93615 20.1317 3.86827C19.0639 2.8004 17.7961 1.95331 16.4009 1.37539C15.0056 0.797456 13.5102 0.5 12 0.5C10.4898 0.5 8.99438 0.797456 7.59914 1.37539C6.2039 1.95331 4.93615 2.8004 3.86827 3.86827C2.8004 4.93615 1.95331 6.2039 1.37539 7.59914C0.797456 8.99438 0.5 10.4898 0.5 12Z" stroke="#00303E" stroke-linecap="round" stroke-linejoin="round"/>
<path d="M14.5 9.5V15.5" stroke="#00303E" stroke-linecap="round" stroke-linejoin="round"/>
<path d="M13.5 15.5H15.5" stroke="#00303E" stroke-linecap="round" stroke-linejoin="round"/>
<path d="M13.5 9.5H15.5" stroke="#00303E" stroke-linecap="round" stroke-linejoin="round"/>
<path d="M8.5 15.5L11.5 9.5" stroke="#00303E" stroke-linecap="round" stroke-linejoin="round"/>
<path d="M11.5 15.5L8.5 9.5" stroke="#00303E" stroke-linecap="round" stroke-linejoin="round"/>
<path d="M6.5 15.5H4.5C4.23478 15.5 3.98043 15.3946 3.79289 15.2071C3.60536 15.0196 3.5 14.7652 3.5 14.5V10.5C3.5 10.2348 3.60536 9.98043 3.79289 9.79289C3.98043 9.60536 4.23478 9.5 4.5 9.5H6.5" stroke="#00303E" stroke-linecap="round" stroke-linejoin="round"/>
<path d="M3.5 12.5H5.5" stroke="#00303E" stroke-linecap="round" stroke-linejoin="round"/>
<path d="M17.5 9.5H20.5" stroke="#00303E" stroke-linecap="round" stroke-linejoin="round"/>
<path d="M19 9.5V15.5" stroke="#00303E" stroke-linecap="round" stroke-linejoin="round"/>
</g>
<defs>
<clipPath id="clip0_3303_2823">
<rect width="24" height="24" fill="white"/>
</clipPath>
</defs>
</svg>
