<svg width="24" height="24" viewBox="0 0 24 24" fill="none" xmlns="http://www.w3.org/2000/svg">
<g clip-path="url(#clip0_3303_5703)">
<path d="M19.5 6.47V22.5C19.5 22.7652 19.3946 23.0196 19.2071 23.2071C19.0196 23.3946 18.7652 23.5 18.5 23.5H1.5C1.23478 23.5 0.98043 23.3946 0.792893 23.2071C0.605357 23.0196 0.5 22.7652 0.5 22.5V1.5C0.5 1.23479 0.605357 0.980431 0.792893 0.792895C0.98043 0.605359 1.23478 0.500002 1.5 0.500002H13.53C13.8554 0.499735 14.1802 0.529866 14.5 0.590002V4.5C14.5 4.76522 14.6054 5.01957 14.7929 5.20711C14.9804 5.39464 15.2348 5.5 15.5 5.5H19.41C19.4701 5.81983 19.5003 6.14457 19.5 6.47Z" fill="#9FEAFF"/>
<path d="M14.85 5.26L0.5 19.62V1.5C0.5 1.23479 0.605357 0.980431 0.792893 0.792895C0.98043 0.605359 1.23478 0.500002 1.5 0.500002H13.53C13.8554 0.499735 14.1802 0.529866 14.5 0.590002V4.5C14.5019 4.64412 14.5341 4.78623 14.5944 4.91714C14.6546 5.04806 14.7417 5.16486 14.85 5.26Z" fill="#DFF9FF"/>
<path d="M19.41 5.50003H15.5C15.2348 5.50003 14.9804 5.39467 14.7929 5.20713C14.6054 5.0196 14.5 4.76524 14.5 4.50003V0.590027C15.731 0.78752 16.8684 1.36845 17.75 2.25005C18.6316 3.13166 19.2125 4.26899 19.41 5.50003Z" fill="#DFF9FF"/>
<path d="M17.75 2.25398C16.8677 1.37154 15.7312 0.78755 14.5 0.583984V4.49998C14.5 4.7652 14.6054 5.01955 14.7929 5.20709C14.9804 5.39463 15.2348 5.49998 15.5 5.49998H19.42C19.2153 4.27037 18.6314 3.13548 17.75 2.25398Z" stroke="#00303E" stroke-linecap="round" stroke-linejoin="round"/>
<path d="M19.5 12.5V6.478C19.5004 5.6931 19.3461 4.91581 19.046 4.19055C18.7459 3.46528 18.3059 2.80625 17.751 2.2511C17.1962 1.69595 16.5373 1.25557 15.8122 0.955107C15.0871 0.654647 14.3099 0.5 13.525 0.5H1.5C1.23478 0.5 0.98043 0.605357 0.792893 0.792893C0.605357 0.98043 0.5 1.23478 0.5 1.5V22.5C0.5 22.7652 0.605357 23.0196 0.792893 23.2071C0.98043 23.3946 1.23478 23.5 1.5 23.5H4.5" stroke="#00303E" stroke-linecap="round" stroke-linejoin="round"/>
<path d="M15.5 17.504V21.504" stroke="#00303E" stroke-linecap="round" stroke-linejoin="round"/>
<path d="M17.5 19.504H13.5" stroke="#00303E" stroke-linecap="round" stroke-linejoin="round"/>
<path d="M21.5 17.504V21.504" stroke="#00303E" stroke-linecap="round" stroke-linejoin="round"/>
<path d="M23.5 19.504H19.5" stroke="#00303E" stroke-linecap="round" stroke-linejoin="round"/>
<path d="M11.5 23.5C10.4391 23.5 9.42172 23.0786 8.67157 22.3284C7.92143 21.5783 7.5 20.5609 7.5 19.5C7.5 18.4391 7.92143 17.4217 8.67157 16.6716C9.42172 15.9214 10.4391 15.5 11.5 15.5" stroke="#00303E" stroke-linecap="round" stroke-linejoin="round"/>
</g>
<defs>
<clipPath id="clip0_3303_5703">
<rect width="24" height="24" fill="white"/>
</clipPath>
</defs>
</svg>
