<svg width="24" height="24" viewBox="0 0 24 24" fill="none" xmlns="http://www.w3.org/2000/svg">
<path d="M15.5 5.5H8.5V1.5C8.5 1.23478 8.60536 0.98043 8.79289 0.792893C8.98043 0.605357 9.23478 0.5 9.5 0.5H14.5C14.7652 0.5 15.0196 0.605357 15.2071 0.792893C15.3946 0.98043 15.5 1.23478 15.5 1.5V5.5Z" fill="#DFF9FF"/>
<path d="M8.5 3.5H15.5V5.5H8.5V3.5Z" fill="#9FEAFF"/>
<path d="M15.5 5.5H8.5V1.5C8.5 1.23478 8.60536 0.98043 8.79289 0.792893C8.98043 0.605357 9.23478 0.5 9.5 0.5H14.5C14.7652 0.5 15.0196 0.605357 15.2071 0.792893C15.3946 0.98043 15.5 1.23478 15.5 1.5V5.5Z" stroke="#00303E" stroke-linecap="round" stroke-linejoin="round"/>
<path d="M10.5 2.5V3.5" stroke="#00303E" stroke-linecap="round" stroke-linejoin="round"/>
<path d="M13.5 2.5V3.5" stroke="#00303E" stroke-linecap="round" stroke-linejoin="round"/>
<path d="M16.5 5.5C16.7652 5.5 17.0196 5.60536 17.2071 5.79289C17.3946 5.98043 17.5 6.23478 17.5 6.5V19.5C17.4968 20.5599 17.0744 21.5755 16.3249 22.3249C15.5755 23.0744 14.5599 23.4968 13.5 23.5H10.5C9.44011 23.4968 8.42453 23.0744 7.67507 22.3249C6.92561 21.5755 6.50317 20.5599 6.5 19.5V6.5C6.5 6.23478 6.60536 5.98043 6.79289 5.79289C6.98043 5.60536 7.23478 5.5 7.5 5.5H16.5Z" fill="#9FEAFF"/>
<path d="M16.5 5.5H7.5C7.23478 5.5 6.98043 5.60536 6.79289 5.79289C6.60536 5.98043 6.5 6.23478 6.5 6.5V15.5C6.50317 16.5599 6.92561 17.5755 7.67507 18.3249C8.42453 19.0744 9.44011 19.4968 10.5 19.5H13.5C14.5599 19.4968 15.5755 19.0744 16.3249 18.3249C17.0744 17.5755 17.4968 16.5599 17.5 15.5V6.5C17.5 6.23478 17.3946 5.98043 17.2071 5.79289C17.0196 5.60536 16.7652 5.5 16.5 5.5Z" fill="#DFF9FF"/>
<path d="M16.5 5.5C16.7652 5.5 17.0196 5.60536 17.2071 5.79289C17.3946 5.98043 17.5 6.23478 17.5 6.5V19.5C17.4968 20.5599 17.0744 21.5755 16.3249 22.3249C15.5755 23.0744 14.5599 23.4968 13.5 23.5H10.5C9.44011 23.4968 8.42453 23.0744 7.67507 22.3249C6.92561 21.5755 6.50317 20.5599 6.5 19.5V6.5C6.5 6.23478 6.60536 5.98043 6.79289 5.79289C6.98043 5.60536 7.23478 5.5 7.5 5.5H16.5Z" stroke="#00303E" stroke-linecap="round" stroke-linejoin="round"/>
<path d="M8.5 7.5H15.5" stroke="#00303E" stroke-linecap="round" stroke-linejoin="round"/>
</svg>
