<svg width="24" height="24" viewBox="0 0 24 24" fill="none" xmlns="http://www.w3.org/2000/svg">
<g clip-path="url(#clip0_3303_8077)">
<path d="M17.5 20.5C17.5 21.0304 17.2893 21.5391 16.9142 21.9142C16.5391 22.2893 16.0304 22.5 15.5 22.5H8.5C7.97005 22.4984 7.46227 22.2872 7.08753 21.9125C6.7128 21.5377 6.50158 21.0299 6.5 20.5V18.5H17.49L17.5 20.5Z" fill="white"/>
<path d="M17.49 18.5H6.5V4.5C6.50158 3.97005 6.7128 3.46227 7.08753 3.08753C7.46227 2.7128 7.97005 2.50158 8.5 2.5H15.5C15.9437 2.50042 16.3747 2.64786 16.7257 2.91925C17.0767 3.19065 17.3279 3.5707 17.44 4L17.49 18.5Z" fill="#9FEAFF"/>
<path d="M17.447 6.049L17.44 4C17.3279 3.5707 17.0767 3.19065 16.7257 2.91925C16.3747 2.64786 15.9437 2.50042 15.5 2.5H8.5C7.97005 2.50158 7.46227 2.7128 7.08753 3.08753C6.7128 3.46227 6.50158 3.97005 6.5 4.5V17L17.447 6.049Z" fill="#DFF9FF"/>
<path d="M17.5 18.5H8.5" stroke="#00303E" stroke-linecap="round" stroke-linejoin="round"/>
<path d="M12 20.25C12.0663 20.25 12.1299 20.2763 12.1768 20.3232C12.2237 20.3701 12.25 20.4337 12.25 20.5C12.25 20.5663 12.2237 20.6299 12.1768 20.6768C12.1299 20.7237 12.0663 20.75 12 20.75C11.9337 20.75 11.8701 20.7237 11.8232 20.6768C11.7763 20.6299 11.75 20.5663 11.75 20.5C11.75 20.4337 11.7763 20.3701 11.8232 20.3232C11.8701 20.2763 11.9337 20.25 12 20.25Z" stroke="#00303E" stroke-linecap="round" stroke-linejoin="round"/>
<path d="M6.5 14.5V4.5C6.5 3.96957 6.71071 3.46086 7.08579 3.08579C7.46086 2.71071 7.96957 2.5 8.5 2.5H15.5C15.9435 2.49989 16.3744 2.64718 16.7251 2.91871C17.0757 3.19024 17.3261 3.5706 17.437 4" stroke="#00303E" stroke-linecap="round" stroke-linejoin="round"/>
<path d="M17.5 9.995V20.5C17.5 21.0304 17.2893 21.5391 16.9142 21.9142C16.5391 22.2893 16.0304 22.5 15.5 22.5H8.5C7.96957 22.5 7.46086 22.2893 7.08579 21.9142C6.71071 21.5391 6.5 21.0304 6.5 20.5V20" stroke="#00303E" stroke-linecap="round" stroke-linejoin="round"/>
<path d="M23.5 0.5L0.5 23.5" stroke="#00303E" stroke-linecap="round" stroke-linejoin="round"/>
</g>
<defs>
<clipPath id="clip0_3303_8077">
<rect width="24" height="24" fill="white"/>
</clipPath>
</defs>
</svg>
