<svg width="24" height="24" viewBox="0 0 24 24" fill="none" xmlns="http://www.w3.org/2000/svg">
<g clip-path="url(#clip0_3303_8086)">
<path d="M2.5 0.5H11.5C11.5 0.5 13.5 0.5 13.5 2.5V21.5C13.5 21.5 13.5 23.5 11.5 23.5H2.5C2.5 23.5 0.5 23.5 0.5 21.5V2.5C0.5 2.5 0.5 0.5 2.5 0.5Z" fill="#9FEAFF"/>
<path d="M13.5 3.631V2.5C13.5 1.96957 13.2893 1.46086 12.9142 1.08579C12.5391 0.710714 12.0304 0.5 11.5 0.5H2.5C1.96957 0.5 1.46086 0.710714 1.08579 1.08579C0.710714 1.46086 0.5 1.96957 0.5 2.5V16.631L13.5 3.631Z" fill="#DFF9FF"/>
<path d="M0.5 19.5V21.5C0.5 22.0304 0.710714 22.5391 1.08579 22.9142C1.46086 23.2893 1.96957 23.5 2.5 23.5H11.5C12.0304 23.5 12.5391 23.2893 12.9142 22.9142C13.2893 22.5391 13.5 22.0304 13.5 21.5V19.5H0.5Z" fill="white"/>
<path d="M4.52399 13.435C4.52399 15.2669 5.25169 17.0237 6.547 18.319C7.84231 19.6143 9.59914 20.342 11.431 20.342C13.2628 20.342 15.0197 19.6143 16.315 18.319C17.6103 17.0237 18.338 15.2669 18.338 13.435C18.338 12.528 18.1593 11.6298 17.8122 10.7918C17.4651 9.95382 16.9563 9.1924 16.315 8.55103C15.6736 7.90965 14.9122 7.40089 14.0742 7.05378C13.2362 6.70667 12.338 6.52802 11.431 6.52802C10.5239 6.52802 9.62579 6.70667 8.78779 7.05378C7.9498 7.40089 7.18837 7.90965 6.547 8.55103C5.90563 9.1924 5.39686 9.95382 5.04975 10.7918C4.70264 11.6298 4.52399 12.528 4.52399 13.435Z" fill="#DFF9FF"/>
<path d="M7.495 13.436C7.495 13.9529 7.5968 14.4647 7.79461 14.9422C7.99241 15.4198 8.28233 15.8537 8.64782 16.2192C9.01331 16.5847 9.44722 16.8746 9.92475 17.0724C10.4023 17.2702 10.9141 17.372 11.431 17.372C11.9479 17.372 12.4597 17.2702 12.9372 17.0724C13.4148 16.8746 13.8487 16.5847 14.2142 16.2192C14.5797 15.8537 14.8696 15.4198 15.0674 14.9422C15.2652 14.4647 15.367 13.9529 15.367 13.436C15.367 12.3921 14.9523 11.391 14.2142 10.6528C13.476 9.91468 12.4749 9.5 11.431 9.5C10.3871 9.5 9.38597 9.91468 8.64782 10.6528C7.90968 11.391 7.495 12.3921 7.495 13.436Z" fill="#9FEAFF"/>
<path d="M23.5 16L21.614 14.114C20.9887 13.4893 20.1409 13.1384 19.257 13.1384C18.3731 13.1384 17.5253 13.4893 16.9 14.114L15.722 15.293L12.54 12.111C12.2587 11.8296 11.8772 11.6715 11.4794 11.6714C11.0815 11.6713 10.6999 11.8293 10.4185 12.1105C10.1371 12.3918 9.97898 12.7733 9.97888 13.1712C9.97879 13.569 10.1367 13.9506 10.418 14.232L15.368 19.182L13.694 19.33C13.5305 19.315 13.3657 19.3323 13.2089 19.381C13.052 19.4296 12.9064 19.5087 12.7801 19.6137C12.5252 19.8257 12.3649 20.1303 12.3345 20.4605C12.3041 20.7907 12.4062 21.1194 12.6182 21.3744C12.8302 21.6294 13.1348 21.7896 13.465 21.82L17.327 22.175L18.752 23.6H23.5V16Z" fill="#DFF9FF"/>
<path d="M21.614 14.114C20.9887 13.4893 20.1409 13.1384 19.257 13.1384C18.3731 13.1384 17.5254 13.4893 16.9 14.114L15.722 15.293L12.54 12.111C12.4007 11.9716 12.2353 11.861 12.0533 11.7856C11.8712 11.7102 11.6761 11.6713 11.479 11.6713C11.282 11.6713 11.0868 11.7102 10.9048 11.7856C10.7227 11.861 10.5573 11.9716 10.418 12.111C10.1617 12.3705 10.0099 12.7152 9.99146 13.0794C9.97302 13.4437 10.0893 13.802 10.318 14.086C10.3485 14.0351 10.3819 13.9861 10.418 13.939C10.5573 13.7996 10.7227 13.689 10.9048 13.6136C11.0868 13.5382 11.282 13.4993 11.479 13.4993C11.6761 13.4993 11.8712 13.5382 12.0533 13.6136C12.2353 13.689 12.4007 13.7996 12.54 13.939L14.54 15.939C14.6947 16.0938 14.8785 16.2167 15.0807 16.3005C15.2829 16.3843 15.4996 16.4274 15.7185 16.4274C15.9374 16.4274 16.1542 16.3843 16.3564 16.3005C16.5586 16.2167 16.7423 16.0938 16.897 15.939C17.2065 15.6294 17.574 15.3839 17.9784 15.2163C18.3828 15.0488 18.8163 14.9626 19.254 14.9626C19.6918 14.9626 20.1252 15.0488 20.5296 15.2163C20.9341 15.3839 21.3015 15.6294 21.611 15.939L23.5 17.829V16L21.614 14.114Z" fill="#DFF9FF"/>
<path d="M23.5 16L21.614 14.114C20.9887 13.4893 20.1409 13.1384 19.257 13.1384C18.3731 13.1384 17.5253 13.4893 16.9 14.114L15.722 15.293L12.54 12.111C12.2587 11.8296 11.8772 11.6715 11.4794 11.6714C11.0815 11.6713 10.6999 11.8293 10.4185 12.1105C10.1371 12.3918 9.97898 12.7733 9.97888 13.1712C9.97879 13.569 10.1367 13.9506 10.418 14.232L15.368 19.182L13.694 19.33C13.5305 19.315 13.3657 19.3323 13.2089 19.381C13.052 19.4296 12.9064 19.5087 12.7801 19.6137C12.5252 19.8257 12.3649 20.1303 12.3345 20.4605C12.3041 20.7907 12.4062 21.1194 12.6182 21.3744C12.8302 21.6294 13.1348 21.7896 13.465 21.82L17.327 22.175" stroke="#00303E" stroke-linecap="round" stroke-linejoin="round"/>
<path d="M4.987 19.5H0.5" stroke="#00303E" stroke-linecap="round" stroke-linejoin="round"/>
<path d="M7 21.25C7.0663 21.25 7.12989 21.2763 7.17678 21.3232C7.22366 21.3701 7.25 21.4337 7.25 21.5C7.25 21.5663 7.22366 21.6299 7.17678 21.6768C7.12989 21.7237 7.0663 21.75 7 21.75C6.9337 21.75 6.87011 21.7237 6.82322 21.6768C6.77634 21.6299 6.75 21.5663 6.75 21.5C6.75 21.4337 6.77634 21.3701 6.82322 21.3232C6.87011 21.2763 6.9337 21.25 7 21.25Z" stroke="#00303E" stroke-linecap="round" stroke-linejoin="round"/>
<path d="M11.5 23.5H2.5C1.96957 23.5 1.46086 23.2893 1.08579 22.9142C0.710714 22.5391 0.5 22.0304 0.5 21.5V2.5C0.5 1.96957 0.710714 1.46086 1.08579 1.08579C1.46086 0.710714 1.96957 0.5 2.5 0.5H11.5C12.0304 0.5 12.5391 0.710714 12.9142 1.08579C13.2893 1.46086 13.5 1.96957 13.5 2.5V4.5" stroke="#00303E" stroke-linecap="round" stroke-linejoin="round"/>
<path d="M10.488 17.371C9.80833 17.193 9.1875 16.8391 8.68804 16.3449C8.18857 15.8508 7.82808 15.2337 7.64285 14.556C7.45762 13.8782 7.45418 13.1636 7.63288 12.4841C7.81158 11.8046 8.16612 11.1842 8.66081 10.6852C9.1555 10.1862 9.77289 9.8264 10.4508 9.64187C11.1288 9.45735 11.8434 9.45465 12.5227 9.63406C13.202 9.81347 13.8221 10.1687 14.3206 10.6639C14.819 11.1591 15.1782 11.7768 15.362 12.455" stroke="#00303E" stroke-linecap="round" stroke-linejoin="round"/>
<path d="M10.017 20.343C8.83282 20.0857 7.7357 19.5254 6.83302 18.7168C5.93034 17.9083 5.25302 16.8793 4.86734 15.7305C4.48166 14.5816 4.40083 13.3524 4.63275 12.1629C4.86468 10.9735 5.40141 9.86465 6.19045 8.94489C6.97948 8.02512 7.99378 7.32595 9.13409 6.91578C10.2744 6.50561 11.5017 6.3985 12.6958 6.60494C13.8899 6.81137 15.01 7.32426 15.9464 8.09344C16.8828 8.86262 17.6036 9.86173 18.038 10.993" stroke="#00303E" stroke-linecap="round" stroke-linejoin="round"/>
</g>
<defs>
<clipPath id="clip0_3303_8086">
<rect width="24" height="24" fill="white"/>
</clipPath>
</defs>
</svg>
