<svg width="24" height="24" viewBox="0 0 24 24" fill="none" xmlns="http://www.w3.org/2000/svg">
<path d="M4 12.006C4 13.0574 4.20708 14.0984 4.60942 15.0698C5.01176 16.0411 5.60148 16.9237 6.3449 17.6671C7.08833 18.4105 7.9709 19.0002 8.94224 19.4026C9.91357 19.8049 10.9546 20.012 12.006 20.012C13.0574 20.012 14.0984 19.8049 15.0698 19.4026C16.0411 19.0002 16.9237 18.4105 17.6671 17.6671C18.4105 16.9237 19.0002 16.0411 19.4026 15.0698C19.8049 14.0984 20.012 13.0574 20.012 12.006C20.012 10.9546 19.8049 9.91357 19.4026 8.94224C19.0002 7.9709 18.4105 7.08833 17.6671 6.3449C16.9237 5.60148 16.0411 5.01176 15.0698 4.60942C14.0984 4.20708 13.0574 4 12.006 4C10.9546 4 9.91357 4.20708 8.94224 4.60942C7.9709 5.01176 7.08833 5.60148 6.3449 6.3449C5.60148 7.08833 5.01176 7.9709 4.60942 8.94224C4.20708 9.91357 4 10.9546 4 12.006Z" fill="#9FEAFF"/>
<path d="M6.48298 15.425C5.8678 14.4405 5.52753 13.3092 5.49753 12.1486C5.46753 10.9881 5.74889 9.84071 6.31237 8.82572C6.87585 7.81072 7.70089 6.96515 8.70173 6.3769C9.70258 5.78865 10.8427 5.47918 12.0036 5.48066C13.1645 5.48213 14.3039 5.7945 15.3032 6.38529C16.3026 6.97609 17.1255 7.82374 17.6864 8.84017C18.2473 9.8566 18.5257 11.0047 18.4927 12.1651C18.4598 13.3256 18.1166 14.456 17.499 15.439" stroke="#00303E" stroke-linecap="round" stroke-linejoin="round"/>
<path d="M4.99994 18.408C3.75324 17.0508 2.92821 15.3603 2.62537 13.5424C2.32253 11.7246 2.55496 9.85792 3.29434 8.16986C4.03372 6.48179 5.24813 5.04522 6.78959 4.03519C8.33105 3.02517 10.133 2.48529 11.9759 2.48135C13.8188 2.4774 15.623 3.00956 17.1688 4.01298C18.7146 5.01641 19.9351 6.44776 20.6817 8.13265C21.4283 9.81754 21.6687 11.6832 21.3737 13.5023C21.0786 15.3214 20.2608 17.0155 19.0199 18.378" stroke="#00303E" stroke-linecap="round" stroke-linejoin="round"/>
<path d="M10.492 11.481C10.492 11.2158 10.5974 10.9614 10.7849 10.7739C10.9724 10.5864 11.2268 10.481 11.492 10.481C11.7572 10.481 12.0116 10.5864 12.1991 10.7739C12.3866 10.9614 12.492 11.2158 12.492 11.481V16.235L16.412 17.405C16.7271 17.4957 16.9953 17.7038 17.1615 17.9864C17.3276 18.269 17.379 18.6046 17.305 18.924C17.175 19.488 16.56 22.924 16.456 23.5H10.336L7.275 18.915C6.06 17.057 9.111 16.415 10.492 19.504V11.481Z" fill="#DFF9FF" stroke="#00303E" stroke-linecap="round" stroke-linejoin="round"/>
</svg>
