<svg width="24" height="24" viewBox="0 0 24 24" fill="none" xmlns="http://www.w3.org/2000/svg">
<g clip-path="url(#clip0_3303_3243)">
<path d="M14.549 17.5H16.049L16.549 23.5H20.549L21.049 17.5H23.549V14C23.549 12.9506 23.2188 11.9278 22.6052 11.0764C21.9916 10.2251 21.1256 9.58844 20.1301 9.25658C19.1345 8.92473 18.0598 8.91453 17.0581 9.22743C16.0564 9.54033 15.1786 10.1605 14.549 11" fill="#9FEAFF"/>
<path d="M14.549 17.5H16.049L16.549 23.5H20.549L21.049 17.5H23.549V14C23.549 12.9506 23.2188 11.9278 22.6052 11.0764C21.9916 10.2251 21.1256 9.58844 20.1301 9.25658C19.1345 8.92473 18.0598 8.91453 17.0581 9.22743C16.0564 9.54033 15.1786 10.1605 14.549 11" stroke="#00303E" stroke-linecap="round" stroke-linejoin="round"/>
<path d="M12.55 0.530003C12.385 0.523003 12.222 0.500003 12.055 0.500003C10.5565 0.468205 9.06664 0.735754 7.6728 1.28698C6.27897 1.83821 5.00914 2.66203 3.9377 3.71019C2.86626 4.75834 2.01475 6.00977 1.43304 7.39116C0.851326 8.77255 0.551116 10.2561 0.54999 11.755C0.527687 14.829 1.72 17.7874 3.8676 19.9869C6.01519 22.1864 8.94436 23.4489 12.018 23.5C12.198 23.5 12.372 23.481 12.55 23.474V0.530003Z" fill="#DFF9FF"/>
<path d="M0.824999 9.32899C0.645584 10.1253 0.553043 10.9387 0.548999 11.755C0.527223 14.829 1.71984 17.7873 3.86754 19.9867C6.01524 22.1861 8.94436 23.4487 12.018 23.5C12.198 23.5 12.372 23.48 12.549 23.474V18.474C12.372 18.48 12.198 18.5 12.018 18.5C9.39205 18.4554 6.85807 17.5256 4.82657 15.8611C2.79507 14.1966 1.38507 11.8949 0.824999 9.32899Z" fill="#9FEAFF"/>
<path d="M12.55 0.530003C12.385 0.523003 12.222 0.500003 12.055 0.500003C10.5565 0.468205 9.06664 0.735754 7.6728 1.28698C6.27897 1.83821 5.00914 2.66203 3.9377 3.71019C2.86626 4.75834 2.01475 6.00977 1.43304 7.39116C0.851326 8.77255 0.551116 10.2561 0.54999 11.755C0.527687 14.829 1.72 17.7874 3.8676 19.9869C6.01519 22.1864 8.94436 23.4489 12.018 23.5C12.198 23.5 12.372 23.481 12.55 23.474V0.530003Z" stroke="#00303E" stroke-linecap="round" stroke-linejoin="round"/>
<path d="M11.554 23.5C5.55396 15.5 5.55396 7.021 11.554 0.520996" stroke="#00303E" stroke-linecap="round" stroke-linejoin="round"/>
<path d="M2.04895 17.505H12.549" stroke="#00303E" stroke-linecap="round" stroke-linejoin="round"/>
<path d="M1.83496 6.505H12.548" stroke="#00303E" stroke-linecap="round" stroke-linejoin="round"/>
<path d="M0.613037 11.505H12.548" stroke="#00303E" stroke-linecap="round" stroke-linejoin="round"/>
<path d="M18.549 11.005V14.005" stroke="#00303E" stroke-linecap="round" stroke-linejoin="round"/>
<path d="M22.007 3.53299C21.2829 3.84174 20.5041 4.00158 19.717 4.00299C18.9359 4.00183 18.1629 3.84467 17.4434 3.54072C16.7239 3.23677 16.0723 2.79216 15.527 2.23299C15.8946 1.60505 16.449 1.10749 17.113 0.809734C17.7769 0.511976 18.5172 0.428863 19.2306 0.571988C19.944 0.715113 20.595 1.07734 21.0927 1.60814C21.5904 2.13894 21.91 2.81184 22.007 3.53299Z" fill="#9FEAFF" stroke="#00303E" stroke-linecap="round" stroke-linejoin="round"/>
<path d="M22.0469 4C22.0469 4.92825 21.6782 5.81849 21.0218 6.47487C20.3654 7.13125 19.4752 7.5 18.5469 7.5C17.6187 7.5 16.7284 7.13125 16.0721 6.47487C15.4157 5.81849 15.0469 4.92825 15.0469 4C15.0431 3.37734 15.2091 2.76541 15.5269 2.23C16.0723 2.78917 16.7239 3.23377 17.4434 3.53772C18.1629 3.84167 18.9359 3.99883 19.7169 4C20.5041 3.99859 21.2829 3.83875 22.0069 3.53C22.0356 3.68498 22.049 3.8424 22.0469 4Z" fill="#DFF9FF" stroke="#00303E" stroke-linecap="round" stroke-linejoin="round"/>
</g>
<defs>
<clipPath id="clip0_3303_3243">
<rect width="24" height="24" fill="white"/>
</clipPath>
</defs>
</svg>
