<svg width="24" height="24" viewBox="0 0 24 24" fill="none" xmlns="http://www.w3.org/2000/svg">
<path d="M9.677 12.783C9.6276 12.5608 9.50385 12.362 9.3262 12.2197C9.14856 12.0773 8.92765 11.9998 8.7 12H3.3C3.07252 12 2.85184 12.0776 2.6744 12.22C2.49697 12.3623 2.37336 12.5609 2.324 12.783L0.768 19.783C0.735393 19.9297 0.736255 20.0818 0.770521 20.2281C0.804787 20.3744 0.871576 20.5111 0.965926 20.628C1.06028 20.7449 1.17976 20.8391 1.3155 20.9035C1.45125 20.9679 1.59976 21.0009 1.75 21H10.256C10.4057 21 10.5536 20.9663 10.6886 20.9015C10.8235 20.8367 10.9423 20.7424 11.0359 20.6256C11.1296 20.5088 11.1959 20.3725 11.2298 20.2266C11.2637 20.0808 11.2645 19.9292 11.232 19.783L9.677 12.783Z" fill="#9FEAFF"/>
<path d="M21.677 12.783C21.6276 12.5608 21.5038 12.362 21.3262 12.2197C21.1486 12.0773 20.9277 11.9998 20.7 12H15.3C15.0725 12 14.8518 12.0776 14.6744 12.22C14.497 12.3623 14.3734 12.5609 14.324 12.783L12.768 19.783C12.7354 19.9297 12.7363 20.0818 12.7705 20.2281C12.8048 20.3744 12.8716 20.5111 12.9659 20.628C13.0603 20.7449 13.1798 20.8391 13.3155 20.9035C13.4512 20.9679 13.5998 21.0009 13.75 21H22.256C22.4057 21 22.5536 20.9663 22.6886 20.9015C22.8235 20.8367 22.9423 20.7424 23.0359 20.6256C23.1296 20.5088 23.1959 20.3725 23.2298 20.2266C23.2637 20.0808 23.2645 19.9292 23.232 19.783L21.677 12.783Z" fill="#9FEAFF"/>
<path d="M15.677 3.783C15.6276 3.56077 15.5038 3.36205 15.3262 3.21968C15.1486 3.07731 14.9277 2.99981 14.7 3H9.3C9.07252 3.00004 8.85184 3.07764 8.6744 3.21999C8.49697 3.36234 8.37336 3.56094 8.324 3.783L6.768 10.783C6.73539 10.9297 6.73626 11.0818 6.77052 11.2281C6.80479 11.3744 6.87158 11.5111 6.96593 11.628C7.06028 11.7449 7.17976 11.8391 7.3155 11.9035C7.45124 11.9679 7.59976 12.0009 7.75 12H16.256C16.4057 12 16.5536 11.9663 16.6886 11.9015C16.8235 11.8367 16.9423 11.7424 17.0359 11.6256C17.1296 11.5088 17.1959 11.3725 17.2298 11.2266C17.2637 11.0808 17.2645 10.9292 17.232 10.783L15.677 3.783Z" fill="#9FEAFF"/>
<path d="M10.338 5.783C10.3874 5.56094 10.511 5.36234 10.6884 5.21999C10.8658 5.07764 11.0865 5.00004 11.314 5H15.948L15.677 3.783C15.6276 3.56077 15.5039 3.36205 15.3262 3.21968C15.1486 3.07731 14.9277 2.99981 14.7 3H9.3C9.07252 3.00004 8.85185 3.07764 8.67441 3.21999C8.49697 3.36234 8.37337 3.56094 8.324 3.783L6.769 10.783C6.73641 10.9296 6.73726 11.0816 6.77147 11.2278C6.80568 11.374 6.87238 11.5107 6.96662 11.6276C7.06085 11.7445 7.18021 11.8387 7.31583 11.9032C7.45145 11.9676 7.59984 12.0007 7.75 12H8.956L10.338 5.783Z" fill="#DFF9FF"/>
<path d="M4.337 14.783C4.3864 14.5608 4.51015 14.362 4.68779 14.2197C4.86544 14.0773 5.08634 13.9998 5.314 14H9.948L9.677 12.783C9.6276 12.5608 9.50385 12.362 9.3262 12.2197C9.14856 12.0773 8.92765 11.9998 8.7 12H3.3C3.07252 12 2.85184 12.0776 2.6744 12.22C2.49697 12.3623 2.37336 12.5609 2.324 12.783L0.768 19.783C0.735393 19.9297 0.736255 20.0818 0.770521 20.2281C0.804787 20.3744 0.871576 20.5111 0.965926 20.628C1.06028 20.7449 1.17976 20.8391 1.3155 20.9035C1.45125 20.9679 1.59976 21.0009 1.75 21H2.956L4.337 14.783Z" fill="#DFF9FF"/>
<path d="M16.337 14.783C16.3864 14.5608 16.5102 14.362 16.6878 14.2197C16.8654 14.0773 17.0863 13.9998 17.314 14H21.948L21.677 12.783C21.6276 12.5608 21.5038 12.362 21.3262 12.2197C21.1486 12.0773 20.9277 11.9998 20.7 12H15.3C15.0725 12 14.8518 12.0776 14.6744 12.22C14.497 12.3623 14.3734 12.5609 14.324 12.783L12.768 19.783C12.7354 19.9297 12.7363 20.0818 12.7705 20.2281C12.8048 20.3744 12.8716 20.5111 12.9659 20.628C13.0603 20.7449 13.1798 20.8391 13.3155 20.9035C13.4512 20.9679 13.5998 21.0009 13.75 21H14.956L16.337 14.783Z" fill="#DFF9FF"/>
<path d="M9.677 12.783C9.6276 12.5608 9.50385 12.362 9.3262 12.2197C9.14856 12.0773 8.92765 11.9998 8.7 12H3.3C3.07252 12 2.85184 12.0776 2.6744 12.22C2.49697 12.3623 2.37336 12.5609 2.324 12.783L0.768 19.783C0.735393 19.9297 0.736255 20.0818 0.770521 20.2281C0.804787 20.3744 0.871576 20.5111 0.965926 20.628C1.06028 20.7449 1.17976 20.8391 1.3155 20.9035C1.45125 20.9679 1.59976 21.0009 1.75 21H10.256C10.4057 21 10.5536 20.9663 10.6886 20.9015C10.8235 20.8367 10.9423 20.7424 11.0359 20.6256C11.1296 20.5088 11.1959 20.3725 11.2298 20.2266C11.2637 20.0808 11.2645 19.9292 11.232 19.783L9.677 12.783Z" stroke="#00303E" stroke-linecap="round" stroke-linejoin="round"/>
<path d="M21.677 12.783C21.6276 12.5608 21.5038 12.362 21.3262 12.2197C21.1486 12.0773 20.9277 11.9998 20.7 12H15.3C15.0725 12 14.8518 12.0776 14.6744 12.22C14.497 12.3623 14.3734 12.5609 14.324 12.783L12.768 19.783C12.7354 19.9297 12.7363 20.0818 12.7705 20.2281C12.8048 20.3744 12.8716 20.5111 12.9659 20.628C13.0603 20.7449 13.1798 20.8391 13.3155 20.9035C13.4512 20.9679 13.5998 21.0009 13.75 21H22.256C22.4057 21 22.5536 20.9663 22.6886 20.9015C22.8235 20.8367 22.9423 20.7424 23.0359 20.6256C23.1296 20.5088 23.1959 20.3725 23.2298 20.2266C23.2637 20.0808 23.2645 19.9292 23.232 19.783L21.677 12.783Z" stroke="#00303E" stroke-linecap="round" stroke-linejoin="round"/>
<path d="M15.677 3.783C15.6276 3.56077 15.5038 3.36205 15.3262 3.21968C15.1486 3.07731 14.9277 2.99981 14.7 3H9.3C9.07252 3.00004 8.85184 3.07764 8.6744 3.21999C8.49697 3.36234 8.37336 3.56094 8.324 3.783L6.768 10.783C6.73539 10.9297 6.73626 11.0818 6.77052 11.2281C6.80479 11.3744 6.87158 11.5111 6.96593 11.628C7.06028 11.7449 7.17976 11.8391 7.3155 11.9035C7.45124 11.9679 7.59976 12.0009 7.75 12H16.256C16.4057 12 16.5536 11.9663 16.6886 11.9015C16.8235 11.8367 16.9423 11.7424 17.0359 11.6256C17.1296 11.5088 17.1959 11.3725 17.2298 11.2266C17.2637 11.0808 17.2645 10.9292 17.232 10.783L15.677 3.783Z" stroke="#00303E" stroke-linecap="round" stroke-linejoin="round"/>
<path d="M12 5H10.9C10.7862 5.00004 10.6758 5.03892 10.5871 5.11019C10.4983 5.18146 10.4366 5.28088 10.412 5.392L9.941 7.533" stroke="#00303E" stroke-linecap="round" stroke-linejoin="round"/>
<path d="M6 14H4.9C4.78619 14 4.6758 14.0389 4.58707 14.1102C4.49834 14.1815 4.43658 14.2809 4.412 14.392L3.936 16.533" stroke="#00303E" stroke-linecap="round" stroke-linejoin="round"/>
<path d="M18 14H16.9C16.7862 14 16.6758 14.0389 16.5871 14.1102C16.4983 14.1815 16.4366 14.2809 16.412 14.392L15.936 16.533" stroke="#00303E" stroke-linecap="round" stroke-linejoin="round"/>
</svg>
