<svg width="24" height="24" viewBox="0 0 24 24" fill="none" xmlns="http://www.w3.org/2000/svg">
<g clip-path="url(#clip0_3303_1887)">
<path d="M2.49805 0.500977H21.498C21.498 0.500977 23.498 0.500977 23.498 2.50098V21.501C23.498 21.501 23.498 23.501 21.498 23.501H2.49805C2.49805 23.501 0.498047 23.501 0.498047 21.501V2.50098C0.498047 2.50098 0.498047 0.500977 2.49805 0.500977Z" fill="#9FEAFF"/>
<path d="M12 0.5H2.5C1.96957 0.5 1.46086 0.710714 1.08579 1.08579C0.710714 1.46086 0.5 1.96957 0.5 2.5V21.5C0.5 22.0304 0.710714 22.5391 1.08579 22.9142C1.46086 23.2893 1.96957 23.5 2.5 23.5H12V0.5Z" fill="#DFF9FF"/>
<path d="M2.49805 0.500977H21.498C21.498 0.500977 23.498 0.500977 23.498 2.50098V21.501C23.498 21.501 23.498 23.501 21.498 23.501H2.49805C2.49805 23.501 0.498047 23.501 0.498047 21.501V2.50098C0.498047 2.50098 0.498047 0.500977 2.49805 0.500977Z" stroke="#00303E" stroke-linecap="round" stroke-linejoin="round"/>
<path d="M2.5 13.5H4.874C7.08 13.5 6.889 11.633 8.507 3.86798C8.53043 3.75548 8.59188 3.65449 8.68104 3.58199C8.77019 3.50949 8.88159 3.46991 8.9965 3.46991C9.11141 3.46991 9.22281 3.50949 9.31196 3.58199C9.40112 3.65449 9.46257 3.75548 9.486 3.86798L12.548 18.8C12.5708 18.9114 12.6308 19.0118 12.7183 19.0845C12.8058 19.1572 12.9155 19.1979 13.0292 19.1999C13.1429 19.2018 13.2539 19.165 13.3439 19.0954C13.4338 19.0258 13.4974 18.9276 13.524 18.817L15.633 10.03C15.6576 9.9266 15.7145 9.83374 15.7955 9.76489C15.8764 9.69605 15.9772 9.65478 16.0832 9.64709C16.1892 9.6394 16.2949 9.66568 16.385 9.72213C16.475 9.77857 16.5447 9.86223 16.584 9.96098C17.327 11.819 17.624 13.502 19.354 13.502H21.5" stroke="#00303E" stroke-linecap="round" stroke-linejoin="round"/>
</g>
<defs>
<clipPath id="clip0_3303_1887">
<rect width="24" height="24" fill="white"/>
</clipPath>
</defs>
</svg>
