<svg width="24" height="24" viewBox="0 0 24 24" fill="none" xmlns="http://www.w3.org/2000/svg">
<g clip-path="url(#clip0_3303_12794)">
<path d="M5.69501 13.5C5.69501 15.1722 6.35928 16.7759 7.5417 17.9583C8.72412 19.1407 10.3278 19.805 12 19.805C13.6722 19.805 15.2759 19.1407 16.4583 17.9583C17.6407 16.7759 18.305 15.1722 18.305 13.5C18.305 11.8278 17.6407 10.2241 16.4583 9.0417C15.2759 7.85928 13.6722 7.19501 12 7.19501C10.3278 7.19501 8.72412 7.85928 7.5417 9.0417C6.35928 10.2241 5.69501 11.8278 5.69501 13.5Z" fill="#DFF9FF"/>
<path d="M12 12C12.3461 12 12.6845 11.8974 12.9722 11.7051C13.26 11.5128 13.4843 11.2395 13.6168 10.9197C13.7492 10.5999 13.7839 10.2481 13.7164 9.90859C13.6489 9.56913 13.4822 9.25731 13.2374 9.01256C12.9927 8.76782 12.6809 8.60115 12.3414 8.53363C12.0019 8.4661 11.6501 8.50076 11.3303 8.63321C11.0105 8.76567 10.7372 8.98997 10.5449 9.27775C10.3526 9.56554 10.25 9.90388 10.25 10.25C10.25 10.7141 10.4344 11.1592 10.7626 11.4874C11.0908 11.8156 11.5359 12 12 12Z" fill="#DFF9FF" stroke="#00303E" stroke-linecap="round" stroke-linejoin="round"/>
<path d="M15.5 15.5C15.3017 14.7223 14.85 14.0328 14.2162 13.5403C13.5824 13.0478 12.8026 12.7805 12 12.7805C11.1974 12.7805 10.4176 13.0478 9.78383 13.5403C9.15004 14.0328 8.69832 14.7223 8.5 15.5H15.5Z" fill="#9FEAFF" stroke="#00303E" stroke-linecap="round" stroke-linejoin="round"/>
<path d="M12 2.5C12.1978 2.5 12.3911 2.44135 12.5556 2.33147C12.72 2.22159 12.8482 2.06541 12.9239 1.88268C12.9996 1.69996 13.0194 1.49889 12.9808 1.30491C12.9422 1.11093 12.847 0.932746 12.7071 0.792894C12.5673 0.653041 12.3891 0.5578 12.1951 0.519215C12.0011 0.48063 11.8 0.500433 11.6173 0.576121C11.4346 0.651809 11.2784 0.779981 11.1685 0.94443C11.0586 1.10888 11 1.30222 11 1.5C11 1.76522 11.1054 2.01957 11.2929 2.20711C11.4804 2.39464 11.7348 2.5 12 2.5Z" fill="#DFF9FF" stroke="#00303E" stroke-linecap="round" stroke-linejoin="round"/>
<path d="M10 5.5C10 4.96957 10.2107 4.46086 10.5858 4.08579C10.9609 3.71071 11.4696 3.5 12 3.5C12.5304 3.5 13.0391 3.71071 13.4142 4.08579C13.7893 4.46086 14 4.96957 14 5.5H10Z" fill="#9FEAFF" stroke="#00303E" stroke-linecap="round" stroke-linejoin="round"/>
<path d="M21.5 12.5C21.6978 12.5 21.8911 12.4414 22.0556 12.3315C22.22 12.2216 22.3482 12.0654 22.4239 11.8827C22.4996 11.7 22.5194 11.4989 22.4808 11.3049C22.4422 11.1109 22.347 10.9327 22.2071 10.7929C22.0673 10.653 21.8891 10.5578 21.6951 10.5192C21.5011 10.4806 21.3 10.5004 21.1173 10.5761C20.9346 10.6518 20.7784 10.78 20.6685 10.9444C20.5586 11.1089 20.5 11.3022 20.5 11.5C20.5 11.7652 20.6054 12.0196 20.7929 12.2071C20.9804 12.3946 21.2348 12.5 21.5 12.5Z" fill="#DFF9FF" stroke="#00303E" stroke-linecap="round" stroke-linejoin="round"/>
<path d="M19.5 15.5C19.5 14.9696 19.7107 14.4609 20.0858 14.0858C20.4609 13.7107 20.9696 13.5 21.5 13.5C22.0304 13.5 22.5391 13.7107 22.9142 14.0858C23.2893 14.4609 23.5 14.9696 23.5 15.5H19.5Z" fill="#9FEAFF" stroke="#00303E" stroke-linecap="round" stroke-linejoin="round"/>
<path d="M12 20.5C12.1978 20.5 12.3911 20.4414 12.5556 20.3315C12.72 20.2216 12.8482 20.0654 12.9239 19.8827C12.9996 19.7 13.0194 19.4989 12.9808 19.3049C12.9422 19.1109 12.847 18.9327 12.7071 18.7929C12.5673 18.653 12.3891 18.5578 12.1951 18.5192C12.0011 18.4806 11.8 18.5004 11.6173 18.5761C11.4346 18.6518 11.2784 18.78 11.1685 18.9444C11.0586 19.1089 11 19.3022 11 19.5C11 19.7652 11.1054 20.0196 11.2929 20.2071C11.4804 20.3946 11.7348 20.5 12 20.5Z" fill="#DFF9FF" stroke="#00303E" stroke-linecap="round" stroke-linejoin="round"/>
<path d="M10 23.5C10 22.9696 10.2107 22.4609 10.5858 22.0858C10.9609 21.7107 11.4696 21.5 12 21.5C12.5304 21.5 13.0391 21.7107 13.4142 22.0858C13.7893 22.4609 14 22.9696 14 23.5H10Z" fill="#9FEAFF" stroke="#00303E" stroke-linecap="round" stroke-linejoin="round"/>
<path d="M2.5 12.5C2.69778 12.5 2.89112 12.4414 3.05557 12.3315C3.22002 12.2216 3.34819 12.0654 3.42388 11.8827C3.49957 11.7 3.51937 11.4989 3.48079 11.3049C3.4422 11.1109 3.34696 10.9327 3.20711 10.7929C3.06725 10.653 2.88907 10.5578 2.69509 10.5192C2.50111 10.4806 2.30004 10.5004 2.11732 10.5761C1.93459 10.6518 1.77841 10.78 1.66853 10.9444C1.55865 11.1089 1.5 11.3022 1.5 11.5C1.5 11.7652 1.60536 12.0196 1.79289 12.2071C1.98043 12.3946 2.23478 12.5 2.5 12.5Z" fill="#DFF9FF" stroke="#00303E" stroke-linecap="round" stroke-linejoin="round"/>
<path d="M0.5 15.5C0.5 14.9696 0.710714 14.4609 1.08579 14.0858C1.46086 13.7107 1.96957 13.5 2.5 13.5C3.03043 13.5 3.53914 13.7107 3.91421 14.0858C4.28929 14.4609 4.5 14.9696 4.5 15.5H0.5Z" fill="#9FEAFF" stroke="#00303E" stroke-linecap="round" stroke-linejoin="round"/>
<path d="M15.858 5.37C17.5134 6.15777 18.89 7.43043 19.805 9.019" stroke="#00303E" stroke-linecap="round" stroke-linejoin="round"/>
<path d="M16.807 8.03398L15.857 5.36898L18.521 4.41998" stroke="#00303E" stroke-linecap="round" stroke-linejoin="round"/>
<path d="M6.79999 9.25398L3.97699 9.43298L3.79999 6.60999" stroke="#00303E" stroke-linecap="round" stroke-linejoin="round"/>
<path d="M7.21399 18.79L7.92999 21.526L5.19299 22.241" stroke="#00303E" stroke-linecap="round" stroke-linejoin="round"/>
<path d="M17.231 18L20.031 17.57L20.461 20.37" stroke="#00303E" stroke-linecap="round" stroke-linejoin="round"/>
<path d="M3.97101 9.431C4.8507 7.70261 6.26336 6.30327 8.00001 5.44" stroke="#00303E" stroke-linecap="round" stroke-linejoin="round"/>
<path d="M7.929 21.531C6.20289 20.6523 4.80433 19.2429 3.939 17.51" stroke="#00303E" stroke-linecap="round" stroke-linejoin="round"/>
<path d="M20.029 17.57C19.1503 19.2961 17.7408 20.6947 16.008 21.56" stroke="#00303E" stroke-linecap="round" stroke-linejoin="round"/>
</g>
<defs>
<clipPath id="clip0_3303_12794">
<rect width="24" height="24" fill="white"/>
</clipPath>
</defs>
</svg>
