<svg width="24" height="24" viewBox="0 0 24 24" fill="none" xmlns="http://www.w3.org/2000/svg">
<g clip-path="url(#clip0_3303_12774)">
<path d="M1.25 23V13" stroke="#00303E" stroke-linecap="round" stroke-linejoin="round"/>
<path d="M1.25 15H8.25C9.04565 15 9.80871 15.3161 10.3713 15.8787C10.9339 16.4413 11.25 17.2044 11.25 18H17.25C18.0456 18 18.8087 18.3161 19.3713 18.8787C19.9339 19.4413 20.25 20.2044 20.25 21H1.25V15Z" fill="#DFF9FF" stroke="#00303E" stroke-linecap="round" stroke-linejoin="round"/>
<path d="M11.25 18H8.25" stroke="#00303E" stroke-linecap="round" stroke-linejoin="round"/>
<path d="M22.75 11.717C22.75 11.717 20.73 10.824 19.318 10.302C18.392 9.95699 18.524 8.39499 19.06 7.80699C19.5238 7.35243 19.878 6.79826 20.0958 6.18647C20.3136 5.57469 20.3892 4.92135 20.317 4.27599C20.3443 3.85609 20.2852 3.43506 20.1434 3.03892C20.0015 2.64278 19.7798 2.27996 19.4921 1.97291C19.2044 1.66586 18.8568 1.4211 18.4707 1.25378C18.0846 1.08645 17.6683 1.00012 17.2475 1.00012C16.8267 1.00012 16.4104 1.08645 16.0243 1.25378C15.6382 1.4211 15.2906 1.66586 15.0029 1.97291C14.7152 2.27996 14.4935 2.64278 14.3516 3.03892C14.2098 3.43506 14.1507 3.85609 14.178 4.27599C14.1063 4.92149 14.1824 5.57484 14.4006 6.18658C14.6187 6.79833 14.9731 7.35244 15.437 7.80699C15.974 8.39499 16.106 9.95699 15.179 10.302C13.767 10.824 11.747 11.717 11.747 11.717" fill="#DFF9FF"/>
<path d="M22.75 11.717C22.75 11.717 20.73 10.824 19.318 10.302C18.392 9.95699 18.524 8.39499 19.06 7.80699C19.5238 7.35243 19.878 6.79826 20.0958 6.18647C20.3136 5.57469 20.3892 4.92135 20.317 4.27599C20.3443 3.85609 20.2852 3.43506 20.1434 3.03892C20.0015 2.64278 19.7798 2.27996 19.4921 1.97291C19.2044 1.66586 18.8568 1.4211 18.4707 1.25378C18.0846 1.08645 17.6683 1.00012 17.2475 1.00012C16.8267 1.00012 16.4104 1.08645 16.0243 1.25378C15.6382 1.4211 15.2906 1.66586 15.0029 1.97291C14.7152 2.27996 14.4935 2.64278 14.3516 3.03892C14.2098 3.43506 14.1507 3.85609 14.178 4.27599C14.1063 4.92149 14.1824 5.57484 14.4006 6.18658C14.6187 6.79833 14.9731 7.35244 15.437 7.80699C15.974 8.39499 16.106 9.95699 15.179 10.302C13.767 10.824 11.747 11.717 11.747 11.717" stroke="#00303E" stroke-linecap="round" stroke-linejoin="round"/>
</g>
<defs>
<clipPath id="clip0_3303_12774">
<rect width="24" height="24" fill="white"/>
</clipPath>
</defs>
</svg>
