<svg width="24" height="24" viewBox="0 0 24 24" fill="none" xmlns="http://www.w3.org/2000/svg">
<g clip-path="url(#clip0_3303_13680)">
<path d="M17 17.9999C16.6022 17.9999 16.2206 17.8419 15.9393 17.5606C15.658 17.2793 15.5 16.8978 15.5 16.4999V11.4999C15.5 11.1021 15.658 10.7206 15.9393 10.4393C16.2206 10.158 16.6022 9.99994 17 9.99994C17.5933 9.99994 18.1734 9.824 18.6667 9.49435C19.1601 9.16471 19.5446 8.69617 19.7716 8.14799C19.9987 7.59981 20.0581 6.99661 19.9424 6.41467C19.8266 5.83273 19.5409 5.29818 19.1213 4.87862C18.7018 4.45907 18.1672 4.17334 17.5853 4.05759C17.0033 3.94183 16.4001 4.00124 15.8519 4.2283C15.3038 4.45537 14.8352 4.83988 14.5056 5.33323C14.1759 5.82658 14 6.4066 14 6.99994C14 7.39777 13.842 7.7793 13.5607 8.0606C13.2794 8.34191 12.8978 8.49994 12.5 8.49994C12.1022 8.49994 11.7206 8.34191 11.4393 8.0606C11.158 7.7793 11 7.39777 11 6.99994C11.0003 5.87781 11.3152 4.77824 11.9091 3.82612C12.503 2.87401 13.3519 2.10751 14.3596 1.61369C15.3672 1.11987 16.4931 0.918518 17.6095 1.0325C18.7258 1.14649 19.7878 1.57124 20.6748 2.25852C21.5619 2.9458 22.2384 3.86806 22.6276 4.92054C23.0168 5.97303 23.103 7.11356 22.8765 8.2126C22.65 9.31164 22.1198 10.3251 21.3462 11.138C20.5726 11.9508 19.5865 12.5304 18.5 12.8109V16.4999C18.5 16.8978 18.342 17.2793 18.0607 17.5606C17.7794 17.8419 17.3978 17.9999 17 17.9999Z" fill="#9FEAFF" stroke="#00303E" stroke-linecap="round" stroke-linejoin="round"/>
<path d="M15.5 21.5C15.5 21.8978 15.658 22.2794 15.9393 22.5607C16.2206 22.842 16.6022 23 17 23C17.3978 23 17.7794 22.842 18.0607 22.5607C18.342 22.2794 18.5 21.8978 18.5 21.5C18.5 21.1022 18.342 20.7206 18.0607 20.4393C17.7794 20.158 17.3978 20 17 20C16.6022 20 16.2206 20.158 15.9393 20.4393C15.658 20.7206 15.5 21.1022 15.5 21.5Z" fill="#9FEAFF" stroke="#00303E" stroke-linecap="round" stroke-linejoin="round"/>
<path d="M7 6C7.39783 6 7.77936 6.15804 8.06066 6.43934C8.34197 6.72064 8.5 7.10218 8.5 7.5V12.5C8.5 12.8978 8.34197 13.2794 8.06066 13.5607C7.77936 13.842 7.39783 14 7 14C6.40666 14 5.82664 14.1759 5.33329 14.5056C4.83994 14.8352 4.45543 15.3038 4.22836 15.8519C4.0013 16.4001 3.94189 17.0033 4.05765 17.5853C4.1734 18.1672 4.45912 18.7018 4.87868 19.1213C5.29824 19.5409 5.83279 19.8266 6.41473 19.9424C6.99667 20.0581 7.59987 19.9987 8.14805 19.7716C8.69623 19.5446 9.16477 19.1601 9.49441 18.6667C9.82405 18.1734 10 17.5933 10 17C10 16.6022 10.158 16.2206 10.4393 15.9393C10.7206 15.658 11.1022 15.5 11.5 15.5C11.8978 15.5 12.2794 15.658 12.5607 15.9393C12.842 16.2206 13 16.6022 13 17C12.9997 18.1221 12.6848 19.2217 12.0909 20.1738C11.497 21.1259 10.6481 21.8924 9.64043 22.3863C8.63279 22.8801 7.50687 23.0814 6.39053 22.9674C5.2742 22.8535 4.2122 22.4287 3.32516 21.7414C2.43812 21.0541 1.76159 20.1319 1.37241 19.0794C0.983232 18.0269 0.897 16.8864 1.12351 15.7873C1.35002 14.6883 1.88019 13.6748 2.65381 12.862C3.42744 12.0491 4.4135 11.4695 5.5 11.189V7.5C5.5 7.10218 5.65804 6.72064 5.93934 6.43934C6.22065 6.15804 6.60218 6 7 6Z" fill="#9FEAFF" stroke="#00303E" stroke-linecap="round" stroke-linejoin="round"/>
<path d="M5.5 2.5C5.5 2.69698 5.5388 2.89204 5.61418 3.07403C5.68956 3.25601 5.80005 3.42137 5.93934 3.56066C6.07863 3.69995 6.24399 3.81044 6.42597 3.88582C6.60796 3.9612 6.80302 4 7 4C7.19698 4 7.39204 3.9612 7.57403 3.88582C7.75601 3.81044 7.92137 3.69995 8.06066 3.56066C8.19995 3.42137 8.31044 3.25601 8.38582 3.07403C8.4612 2.89204 8.5 2.69698 8.5 2.5C8.5 2.30302 8.4612 2.10796 8.38582 1.92597C8.31044 1.74399 8.19995 1.57863 8.06066 1.43934C7.92137 1.30005 7.75601 1.18956 7.57403 1.11418C7.39204 1.0388 7.19698 1 7 1C6.80302 1 6.60796 1.0388 6.42597 1.11418C6.24399 1.18956 6.07863 1.30005 5.93934 1.43934C5.80005 1.57863 5.68956 1.74399 5.61418 1.92597C5.5388 2.10796 5.5 2.30302 5.5 2.5Z" fill="#9FEAFF" stroke="#00303E" stroke-linecap="round" stroke-linejoin="round"/>
</g>
<defs>
<clipPath id="clip0_3303_13680">
<rect width="24" height="24" fill="white"/>
</clipPath>
</defs>
</svg>
