<svg width="24" height="24" viewBox="0 0 24 24" fill="none" xmlns="http://www.w3.org/2000/svg">
<g clip-path="url(#clip0_3303_9071)">
<path d="M16.161 7.83998C15.6204 7.29924 14.9717 6.87885 14.2572 6.60638C13.5428 6.33391 12.7789 6.21551 12.0155 6.25894C11.2521 6.30238 10.5065 6.50666 9.82759 6.85841C9.14868 7.21015 8.55178 7.70141 8.07601 8.29998C8.16381 8.87184 8.09634 9.45677 7.88068 9.99363C7.66502 10.5305 7.30907 10.9995 6.85007 11.3517C6.39107 11.7039 5.84588 11.9263 5.2715 11.9957C4.69712 12.065 4.11465 11.9788 3.58501 11.746C3.39145 11.6578 3.17481 11.6336 2.96656 11.6769C2.75831 11.7203 2.56931 11.8289 2.42701 11.987C1.29316 13.2843 0.694533 14.9639 0.752297 16.6858C0.810061 18.4078 1.5199 20.0435 2.73814 21.2619C3.95638 22.4803 5.59202 23.1903 7.31399 23.2482C9.03596 23.3062 10.7156 22.7077 12.013 21.574C12.1711 21.4317 12.2797 21.2427 12.3231 21.0344C12.3664 20.8262 12.3422 20.6095 12.254 20.416C12.0213 19.8863 11.9351 19.3038 12.0045 18.7294C12.0739 18.155 12.2963 17.6098 12.6484 17.1508C13.0006 16.6917 13.4696 16.3357 14.0064 16.1199C14.5432 15.9041 15.1281 15.8364 15.7 15.924C16.2984 15.4482 16.7894 14.8514 17.1411 14.1726C17.4927 13.4938 17.697 12.7484 17.7405 11.9852C17.784 11.222 17.6658 10.4582 17.3936 9.74384C17.1214 9.02949 16.7014 8.38071 16.161 7.83998Z" fill="#9FEAFF"/>
<path d="M16.16 7.83899L2.73499 21.264C3.95533 22.4801 5.59145 23.1881 7.31333 23.2453C9.0352 23.3024 10.7147 22.7045 12.013 21.572C12.1711 21.4297 12.2797 21.2407 12.3231 21.0324C12.3664 20.8242 12.3422 20.6075 12.254 20.414C12.0218 19.8844 11.936 19.3021 12.0056 18.7281C12.0752 18.154 12.2977 17.6091 12.6498 17.1504C13.0019 16.6916 13.4706 16.3358 14.0072 16.1201C14.5437 15.9044 15.1283 15.8366 15.7 15.924C16.2983 15.4481 16.7893 14.8512 17.1408 14.1724C17.4924 13.4936 17.6965 12.7482 17.74 11.985C17.7834 11.2218 17.6651 10.458 17.3928 9.74369C17.1205 9.02937 16.7004 8.37964 16.16 7.83899Z" fill="#9FEAFF"/>
<path d="M16.161 7.83998C15.6204 7.29924 14.9717 6.87885 14.2572 6.60638C13.5428 6.33391 12.7789 6.21551 12.0155 6.25894C11.2521 6.30238 10.5065 6.50666 9.82759 6.85841C9.14868 7.21015 8.55178 7.70141 8.07601 8.29998C8.16381 8.87184 8.09634 9.45677 7.88068 9.99363C7.66502 10.5305 7.30907 10.9995 6.85007 11.3517C6.39107 11.7039 5.84588 11.9263 5.2715 11.9957C4.69712 12.065 4.11465 11.9788 3.58501 11.746C3.39145 11.6578 3.17481 11.6336 2.96656 11.6769C2.75831 11.7203 2.56931 11.8289 2.42701 11.987C1.29316 13.2843 0.694533 14.9639 0.752297 16.6858C0.810061 18.4078 1.5199 20.0435 2.73814 21.2619C3.95638 22.4803 5.59202 23.1903 7.31399 23.2482C9.03596 23.3062 10.7156 22.7077 12.013 21.574C12.1711 21.4317 12.2797 21.2427 12.3231 21.0344C12.3664 20.8262 12.3422 20.6095 12.254 20.416C12.0213 19.8863 11.9351 19.3038 12.0045 18.7294C12.0739 18.155 12.2963 17.6098 12.6484 17.1508C13.0006 16.6917 13.4696 16.3357 14.0064 16.1199C14.5432 15.9041 15.1281 15.8364 15.7 15.924C16.2984 15.4482 16.7894 14.8514 17.1411 14.1726C17.4927 13.4938 17.697 12.7484 17.7405 11.9852C17.784 11.222 17.6658 10.4582 17.3936 9.74384C17.1214 9.02949 16.7014 8.38071 16.161 7.83998Z" stroke="#00303E" stroke-linecap="round" stroke-linejoin="round"/>
<path d="M11.208 12.792L23.25 0.75" stroke="#00303E" stroke-linecap="round" stroke-linejoin="round"/>
<path d="M0.765015 23.234L4.25001 19.75" stroke="#00303E" stroke-linecap="round" stroke-linejoin="round"/>
<path d="M17.77 3.271L20.739 6.24" stroke="#00303E" stroke-linecap="round" stroke-linejoin="round"/>
<path d="M19.77 1.271L22.75 4.25" stroke="#00303E" stroke-linecap="round" stroke-linejoin="round"/>
<path d="M2.83301 16.292C3.74168 16.4699 4.68385 16.3311 5.50264 15.8988C6.32143 15.4665 6.96741 14.7667 7.33301 13.916" stroke="#00303E" stroke-linecap="round" stroke-linejoin="round"/>
<path d="M7.80601 21.223C7.62801 20.3146 7.7665 19.3726 8.19844 18.5538C8.63038 17.7351 9.32971 17.089 10.18 16.723" stroke="#00303E" stroke-linecap="round" stroke-linejoin="round"/>
</g>
<defs>
<clipPath id="clip0_3303_9071">
<rect width="24" height="24" fill="white"/>
</clipPath>
</defs>
</svg>
