<svg width="24" height="24" viewBox="0 0 24 24" fill="none" xmlns="http://www.w3.org/2000/svg">
<g clip-path="url(#clip0_3303_12870)">
<path d="M10.5 20.5C12.4778 20.5 14.4112 19.9135 16.0557 18.8147C17.7002 17.7159 18.9819 16.1541 19.7388 14.3268C20.4957 12.4996 20.6937 10.4889 20.3079 8.5491C19.922 6.60929 18.9696 4.82746 17.5711 3.42894C16.1725 2.03041 14.3907 1.078 12.4509 0.692152C10.5111 0.306299 8.50043 0.504333 6.67317 1.26121C4.8459 2.01809 3.28412 3.29981 2.1853 4.9443C1.08649 6.58879 0.5 8.52219 0.5 10.5C0.5 13.1522 1.55357 15.6957 3.42893 17.5711C5.3043 19.4464 7.84784 20.5 10.5 20.5Z" fill="#9FEAFF"/>
<path d="M10.5 0.500002C8.52843 0.500551 6.60102 1.08388 4.96002 2.17668C3.31902 3.26947 2.03766 4.82296 1.27701 6.64188C0.516353 8.4608 0.310344 10.464 0.684875 12.3997C1.05941 14.3353 1.99776 16.1171 3.382 17.521L17.52 3.384C15.6516 1.5349 13.1287 0.498403 10.5 0.500002Z" fill="#DFF9FF"/>
<path d="M10.5 20.5C12.4778 20.5 14.4112 19.9135 16.0557 18.8147C17.7002 17.7159 18.9819 16.1541 19.7388 14.3268C20.4957 12.4996 20.6937 10.4889 20.3079 8.5491C19.922 6.60929 18.9696 4.82746 17.5711 3.42894C16.1725 2.03041 14.3907 1.078 12.4509 0.692152C10.5111 0.306299 8.50043 0.504333 6.67317 1.26121C4.8459 2.01809 3.28412 3.29981 2.1853 4.9443C1.08649 6.58879 0.5 8.52219 0.5 10.5C0.5 13.1522 1.55357 15.6957 3.42893 17.5711C5.3043 19.4464 7.84784 20.5 10.5 20.5Z" stroke="#00303E" stroke-linecap="round" stroke-linejoin="round"/>
<path d="M17.572 17.572L23.5 23.5" stroke="#00303E" stroke-linecap="round" stroke-linejoin="round"/>
<path d="M13.5 9.5C13.5 9.76522 13.3946 10.0196 13.2071 10.2071C13.0196 10.3946 12.7652 10.5 12.5 10.5H11.5V8.5H12.5C12.7652 8.5 13.0196 8.60536 13.2071 8.79289C13.3946 8.98043 13.5 9.23478 13.5 9.5Z" stroke="#00303E" stroke-linecap="round" stroke-linejoin="round"/>
<path d="M13.5 11.5C13.5 11.7652 13.3946 12.0196 13.2071 12.2071C13.0196 12.3946 12.7652 12.5 12.5 12.5H11.5V10.5H12.5C12.7652 10.5 13.0196 10.6054 13.2071 10.7929C13.3946 10.9804 13.5 11.2348 13.5 11.5Z" stroke="#00303E" stroke-linecap="round" stroke-linejoin="round"/>
<path d="M9.5 11.5C9.5 11.7652 9.39464 12.0196 9.20711 12.2071C9.01957 12.3946 8.76522 12.5 8.5 12.5C8.23478 12.5 7.98043 12.3946 7.79289 12.2071C7.60536 12.0196 7.5 11.7652 7.5 11.5V9.5C7.5 9.23478 7.60536 8.98043 7.79289 8.79289C7.98043 8.60536 8.23478 8.5 8.5 8.5C8.76522 8.5 9.01957 8.60536 9.20711 8.79289C9.39464 8.98043 9.5 9.23478 9.5 9.5V11.5Z" stroke="#00303E" stroke-linecap="round" stroke-linejoin="round"/>
<path d="M5.5 8.5V11.5C5.5 11.7652 5.39464 12.0196 5.20711 12.2071C5.01957 12.3946 4.76522 12.5 4.5 12.5C4.23478 12.5 3.98043 12.3946 3.79289 12.2071C3.60536 12.0196 3.5 11.7652 3.5 11.5" stroke="#00303E" stroke-linecap="round" stroke-linejoin="round"/>
<path d="M17.5 8.5H16.5C16.2348 8.5 15.9804 8.60536 15.7929 8.79289C15.6054 8.98043 15.5 9.23478 15.5 9.5C15.5 9.76522 15.6054 10.0196 15.7929 10.2071C15.9804 10.3946 16.2348 10.5 16.5 10.5C16.7652 10.5 17.0196 10.6054 17.2071 10.7929C17.3946 10.9804 17.5 11.2348 17.5 11.5C17.5 11.7652 17.3946 12.0196 17.2071 12.2071C17.0196 12.3946 16.7652 12.5 16.5 12.5H15.5" stroke="#00303E" stroke-linecap="round" stroke-linejoin="round"/>
</g>
<defs>
<clipPath id="clip0_3303_12870">
<rect width="24" height="24" fill="white"/>
</clipPath>
</defs>
</svg>
