<svg width="14" height="4" viewBox="0 0 14 4" fill="none" xmlns="http://www.w3.org/2000/svg">
<path d="M1.90071 0.861349C1.8856 0.72727 1.82328 0.623406 1.71375 0.549757C1.60422 0.475164 1.46637 0.437868 1.30019 0.437868C1.18122 0.437868 1.0783 0.456752 0.991428 0.494521C0.90456 0.531345 0.837048 0.582333 0.788893 0.647484C0.741682 0.71169 0.718077 0.784867 0.718077 0.867014C0.718077 0.935942 0.734129 0.995428 0.766232 1.04547C0.79928 1.09551 0.842241 1.13753 0.895118 1.17152C0.948938 1.20457 1.00654 1.23243 1.06791 1.25509C1.12928 1.2768 1.1883 1.29474 1.24495 1.30891L1.52821 1.38256C1.62075 1.40522 1.71564 1.4359 1.8129 1.47462C1.91015 1.51333 2.00032 1.56432 2.08341 1.62758C2.16651 1.69084 2.23354 1.76921 2.28453 1.86269C2.33646 1.95617 2.36243 2.06806 2.36243 2.19836C2.36243 2.36265 2.31994 2.50854 2.23496 2.636C2.15093 2.76347 2.02865 2.86403 1.86813 2.93768C1.70856 3.01133 1.51547 3.04816 1.28886 3.04816C1.07169 3.04816 0.883787 3.01369 0.725159 2.94476C0.56653 2.87584 0.442366 2.77811 0.352665 2.65158C0.262964 2.52411 0.213393 2.37304 0.203951 2.19836H0.643012C0.65151 2.30317 0.685501 2.39051 0.744987 2.46038C0.805417 2.52931 0.882371 2.58077 0.975848 2.61476C1.07027 2.64781 1.17366 2.66433 1.28602 2.66433C1.40972 2.66433 1.51972 2.64497 1.61603 2.60626C1.71328 2.5666 1.78976 2.51184 1.84547 2.44197C1.90118 2.37115 1.92903 2.28853 1.92903 2.19411C1.92903 2.10819 1.90449 2.03784 1.85539 1.98308C1.80723 1.92831 1.74161 1.88299 1.65852 1.84711C1.57637 1.81123 1.48336 1.7796 1.3795 1.75222L1.03675 1.65874C0.804473 1.59548 0.62035 1.50247 0.484383 1.37972C0.34936 1.25698 0.281849 1.09457 0.281849 0.892508C0.281849 0.725382 0.327171 0.5795 0.417816 0.454863C0.508461 0.330227 0.631209 0.233445 0.786061 0.164517C0.940912 0.0946448 1.11559 0.0597087 1.3101 0.0597087C1.5065 0.0597087 1.67976 0.0941726 1.82989 0.163101C1.98097 0.232028 2.09994 0.326922 2.18681 0.447782C2.27367 0.567697 2.319 0.705553 2.32277 0.861349H1.90071ZM3.86692 0.824524V1.16444H2.67863V0.824524H3.86692ZM2.9973 0.303317H3.42078V2.36124C3.42078 2.44338 3.43305 2.50523 3.4576 2.54678C3.48215 2.58738 3.51378 2.61523 3.5525 2.63034C3.59216 2.6445 3.63512 2.65158 3.68138 2.65158C3.71538 2.65158 3.74512 2.64922 3.77061 2.6445C3.79611 2.63978 3.81593 2.636 3.8301 2.63317L3.90658 2.983C3.88203 2.99245 3.84709 3.00189 3.80177 3.01133C3.75645 3.02172 3.6998 3.02738 3.63181 3.02833C3.52039 3.03021 3.41653 3.01039 3.32022 2.96884C3.22391 2.9273 3.14601 2.86309 3.08653 2.77622C3.02704 2.68935 2.9973 2.5803 2.9973 2.44905V0.303317ZM4.33537 3V0.824524H4.74469V1.17011H4.76735C4.80701 1.05302 4.87688 0.960964 4.97697 0.893924C5.078 0.825941 5.19225 0.791949 5.31972 0.791949C5.34616 0.791949 5.37731 0.792893 5.4132 0.794782C5.45002 0.79667 5.47882 0.79903 5.49959 0.801863V1.20693C5.4826 1.20221 5.45238 1.19702 5.40895 1.19135C5.36551 1.18474 5.32208 1.18144 5.27864 1.18144C5.17856 1.18144 5.08933 1.20268 5.01096 1.24517C4.93353 1.28672 4.87216 1.34479 4.82684 1.41938C4.78151 1.49303 4.75885 1.57707 4.75885 1.67149V3H4.33537ZM6.70453 3.04391C6.50058 3.04391 6.32259 2.99717 6.17057 2.90369C6.01856 2.81021 5.90053 2.67944 5.81649 2.51137C5.73246 2.3433 5.69044 2.1469 5.69044 1.92218C5.69044 1.69651 5.73246 1.49917 5.81649 1.33015C5.90053 1.16114 6.01856 1.02989 6.17057 0.936414C6.32259 0.842937 6.50058 0.796198 6.70453 0.796198C6.90848 0.796198 7.08647 0.842937 7.23848 0.936414C7.3905 1.02989 7.50853 1.16114 7.59257 1.33015C7.6766 1.49917 7.71862 1.69651 7.71862 1.92218C7.71862 2.1469 7.6766 2.3433 7.59257 2.51137C7.50853 2.67944 7.3905 2.81021 7.23848 2.90369C7.08647 2.99717 6.90848 3.04391 6.70453 3.04391ZM6.70595 2.68841C6.83814 2.68841 6.94767 2.65347 7.03453 2.5836C7.1214 2.51373 7.18561 2.42072 7.22715 2.30458C7.26964 2.18845 7.29089 2.0605 7.29089 1.92076C7.29089 1.78196 7.26964 1.65449 7.22715 1.53835C7.18561 1.42127 7.1214 1.32732 7.03453 1.2565C6.94767 1.18569 6.83814 1.15028 6.70595 1.15028C6.57281 1.15028 6.46234 1.18569 6.37453 1.2565C6.28766 1.32732 6.22298 1.42127 6.18049 1.53835C6.13894 1.65449 6.11817 1.78196 6.11817 1.92076C6.11817 2.0605 6.13894 2.18845 6.18049 2.30458C6.22298 2.42072 6.28766 2.51373 6.37453 2.5836C6.46234 2.65347 6.57281 2.68841 6.70595 2.68841ZM8.58081 2.26209L8.57797 1.74514H8.65162L9.51841 0.824524H10.0255L9.03686 1.87261H8.9703L8.58081 2.26209ZM8.19132 3V0.0993658H8.6148V3H8.19132ZM9.56515 3L8.78617 1.96608L9.07794 1.67007L10.0849 3H9.56515ZM11.2594 3.04391C11.0451 3.04391 10.8605 2.99811 10.7056 2.90652C10.5517 2.81399 10.4328 2.68416 10.3487 2.51703C10.2656 2.34896 10.2241 2.15209 10.2241 1.92643C10.2241 1.70359 10.2656 1.50719 10.3487 1.33723C10.4328 1.16728 10.5499 1.03461 10.7 0.939247C10.8511 0.843881 11.0276 0.796198 11.2297 0.796198C11.3524 0.796198 11.4714 0.816499 11.5866 0.8571C11.7018 0.897701 11.8052 0.961436 11.8968 1.0483C11.9884 1.13517 12.0606 1.24801 12.1135 1.38681C12.1664 1.52466 12.1928 1.69226 12.1928 1.8896V2.03973H10.4635V1.72247H11.7778C11.7778 1.61106 11.7551 1.51239 11.7098 1.42646C11.6645 1.33959 11.6008 1.27114 11.5186 1.2211C11.4374 1.17105 11.3421 1.14603 11.2325 1.14603C11.1135 1.14603 11.0097 1.1753 10.9209 1.23384C10.8331 1.29144 10.7651 1.36698 10.717 1.46045C10.6698 1.55299 10.6462 1.65355 10.6462 1.76213V2.00999C10.6462 2.1554 10.6717 2.27909 10.7226 2.38107C10.7746 2.48304 10.8468 2.56094 10.9393 2.61476C11.0319 2.66764 11.14 2.69407 11.2637 2.69407C11.3439 2.69407 11.4171 2.68274 11.4832 2.66008C11.5493 2.63648 11.6064 2.60154 11.6546 2.55527C11.7027 2.50901 11.7396 2.45188 11.7651 2.3839L12.1659 2.45613C12.1338 2.57416 12.0762 2.67755 11.9931 2.76631C11.9109 2.85412 11.8075 2.92257 11.6829 2.97167C11.5592 3.01983 11.4181 3.04391 11.2594 3.04391Z" fill="#737373"/>
</svg>
