<svg width="24" height="24" viewBox="0 0 24 24" fill="none" xmlns="http://www.w3.org/2000/svg">
<g clip-path="url(#clip0_3303_6759)">
<path d="M20.5 13.5V2.167C20.5 1.72488 20.3244 1.30088 20.0117 0.988253C19.6991 0.67563 19.2751 0.5 18.833 0.5H5.167C4.72488 0.5 4.30088 0.67563 3.98825 0.988253C3.67563 1.30088 3.5 1.72488 3.5 2.167V13.5H20.5Z" fill="#9FEAFF"/>
<path d="M18.5 0.5H5.167C4.72488 0.5 4.30088 0.67563 3.98825 0.988253C3.67563 1.30088 3.5 1.72488 3.5 2.167V13.5H5.5L18.5 0.5Z" fill="#DFF9FF"/>
<path d="M23.5 13.5C23.2143 14.6425 22.555 15.6567 21.6268 16.3815C20.6985 17.1062 19.5547 17.4999 18.377 17.5H5.623C4.44534 17.4999 3.30148 17.1062 2.37325 16.3815C1.44501 15.6567 0.785663 14.6425 0.5 13.5H23.5Z" fill="white"/>
<path d="M20.5 7.5V2.167C20.5 1.72488 20.3244 1.30088 20.0117 0.988253C19.6991 0.67563 19.2751 0.5 18.833 0.5H5.167C4.72488 0.5 4.30088 0.67563 3.98825 0.988253C3.67563 1.30088 3.5 1.72488 3.5 2.167V13.5" stroke="#00303E" stroke-linecap="round" stroke-linejoin="round"/>
<path d="M12.5 17.5H5.623C4.44534 17.4999 3.30148 17.1062 2.37325 16.3815C1.44501 15.6567 0.785663 14.6425 0.5 13.5H13.5" stroke="#00303E" stroke-linecap="round" stroke-linejoin="round"/>
<path d="M20.5 9.5L14.589 16.882C14.543 16.9367 14.5136 17.0034 14.5041 17.0742C14.4946 17.145 14.5056 17.2171 14.5356 17.2819C14.5656 17.3468 14.6134 17.4017 14.6736 17.4403C14.7337 17.479 14.8036 17.4997 14.875 17.5H17.5V23.5L23.411 16.118C23.457 16.0633 23.4865 15.9966 23.4959 15.9258C23.5054 15.855 23.4945 15.7829 23.4645 15.7181C23.4345 15.6532 23.3866 15.5983 23.3265 15.5597C23.2664 15.521 23.1965 15.5003 23.125 15.5H20.5V9.5Z" fill="#9FEAFF" stroke="#00303E" stroke-linecap="round" stroke-linejoin="round"/>
</g>
<defs>
<clipPath id="clip0_3303_6759">
<rect width="24" height="24" fill="white"/>
</clipPath>
</defs>
</svg>
