<svg width="24" height="24" viewBox="0 0 24 24" fill="none" xmlns="http://www.w3.org/2000/svg">
<path d="M8.5 16.5C8.5 17.6 10.067 18.5 12 18.5C13.933 18.5 15.5 17.6 15.5 16.5H20.5V5.167C20.5 4.72488 20.3244 4.30088 20.0117 3.98825C19.6991 3.67563 19.2751 3.5 18.833 3.5H5.167C4.72488 3.5 4.30088 3.67563 3.98825 3.98825C3.67563 4.30088 3.5 4.72488 3.5 5.167V16.5H8.5Z" fill="#9FEAFF"/>
<path d="M18.5 3.5H5.167C4.72488 3.5 4.30088 3.67563 3.98825 3.98825C3.67563 4.30088 3.5 4.72488 3.5 5.167V16.5H5.5L18.5 3.5Z" fill="#DFF9FF"/>
<path d="M8.5 16.5C8.5 17.6 10.067 18.5 12 18.5C13.933 18.5 15.5 17.6 15.5 16.5H20.5V5.167C20.5 4.72488 20.3244 4.30088 20.0117 3.98825C19.6991 3.67563 19.2751 3.5 18.833 3.5H5.167C4.72488 3.5 4.30088 3.67563 3.98825 3.98825C3.67563 4.30088 3.5 4.72488 3.5 5.167V16.5H8.5Z" stroke="#00303E" stroke-linecap="round" stroke-linejoin="round"/>
<path d="M15.5 16.5C15.5 17.6 13.933 18.5 12 18.5C10.067 18.5 8.5 17.6 8.5 16.5H0.5C0.785663 17.6425 1.44501 18.6567 2.37325 19.3815C3.30148 20.1062 4.44534 20.4999 5.623 20.5H18.377C19.5547 20.4999 20.6985 20.1062 21.6268 19.3815C22.555 18.6567 23.2143 17.6425 23.5 16.5H15.5Z" fill="white" stroke="#00303E" stroke-linecap="round" stroke-linejoin="round"/>
</svg>
