<svg width="24" height="24" viewBox="0 0 24 24" fill="none" xmlns="http://www.w3.org/2000/svg">
<g clip-path="url(#clip0_3303_12880)">
<path d="M4.783 3C4.783 2.33696 5.04639 1.70107 5.51523 1.23223C5.98407 0.763392 6.61996 0.5 7.283 0.5H20.283C19.62 0.5 18.9841 0.763392 18.5152 1.23223C18.0464 1.70107 17.783 2.33696 17.783 3V19.5C17.783 20.5609 17.3616 21.5783 16.6114 22.3284C15.8613 23.0786 14.8439 23.5 13.783 23.5H3.621C3.51807 23.5021 3.41702 23.4723 3.33164 23.4148C3.24627 23.3573 3.18072 23.2748 3.14397 23.1786C3.10721 23.0825 3.10103 22.9773 3.12627 22.8775C3.15151 22.7777 3.20694 22.6881 3.285 22.621C3.7532 22.2467 4.13115 21.7718 4.39082 21.2315C4.65048 20.6912 4.7852 20.0994 4.785 19.5L4.783 3Z" fill="white"/>
<path d="M17.783 19.5C17.783 20.5609 17.3616 21.5783 16.6114 22.3284C15.8613 23.0786 14.8439 23.5 13.783 23.5H3.621C3.51807 23.5021 3.41702 23.4723 3.33164 23.4148C3.24627 23.3573 3.18072 23.2748 3.14397 23.1786C3.10721 23.0825 3.10103 22.9773 3.12627 22.8775C3.15151 22.7777 3.20694 22.6881 3.285 22.621C3.7532 22.2467 4.13115 21.7718 4.39082 21.2315C4.65048 20.6912 4.7852 20.0994 4.785 19.5H17.783Z" fill="#DFF9FF"/>
<path d="M9.783 0.5H20.283C19.62 0.5 18.9841 0.763392 18.5152 1.23223C18.0464 1.70107 17.783 2.33696 17.783 3V19.5C17.783 20.5609 17.3616 21.5783 16.6114 22.3284C15.8613 23.0786 14.8439 23.5 13.783 23.5H3.621C3.51807 23.5021 3.41702 23.4723 3.33164 23.4148C3.24627 23.3573 3.18072 23.2748 3.14397 23.1786C3.10721 23.0825 3.10103 22.9773 3.12627 22.8775C3.15151 22.7777 3.20694 22.6881 3.285 22.621C3.7532 22.2467 4.13115 21.7718 4.39082 21.2315C4.65048 20.6912 4.7852 20.0994 4.785 19.5V15.5" stroke="#00303E" stroke-linecap="round" stroke-linejoin="round"/>
<path d="M17.783 3C17.783 3.66304 18.0464 4.29893 18.5152 4.76777C18.9841 5.23661 19.62 5.5 20.283 5.5C20.946 5.5 21.5819 5.23661 22.0508 4.76777C22.5196 4.29893 22.783 3.66304 22.783 3C22.783 2.33696 22.5196 1.70107 22.0508 1.23223C21.5819 0.763392 20.946 0.5 20.283 0.5C19.62 0.5 18.9841 0.763392 18.5152 1.23223C18.0464 1.70107 17.783 2.33696 17.783 3Z" fill="#DFF9FF" stroke="#00303E" stroke-linecap="round" stroke-linejoin="round"/>
<path d="M12.265 5.277C12.3151 5.2017 12.3438 5.11423 12.3482 5.02389C12.3525 4.93355 12.3322 4.84373 12.2895 4.76399C12.2468 4.68426 12.1833 4.6176 12.1058 4.57111C12.0282 4.52462 11.9394 4.50004 11.849 4.49999H9.56C9.47519 4.5 9.39178 4.47843 9.31761 4.43732C9.24344 4.39621 9.18094 4.33691 9.136 4.26499L7.207 1.178C7.16205 1.10608 7.09955 1.04678 7.02538 1.00567C6.95121 0.964562 6.8678 0.942993 6.783 0.942993C6.69819 0.942993 6.61478 0.964562 6.54061 1.00567C6.46644 1.04678 6.40394 1.10608 6.359 1.178L4.43 4.26499C4.38505 4.33691 4.32255 4.39621 4.24838 4.43732C4.17421 4.47843 4.0908 4.5 4.006 4.49999H1.717C1.62655 4.50004 1.53782 4.52462 1.46024 4.57111C1.38266 4.6176 1.31915 4.68426 1.27646 4.76399C1.23377 4.84373 1.2135 4.93355 1.21783 5.02389C1.22215 5.11423 1.25089 5.2017 1.301 5.277L2.6 7.223C2.6546 7.30506 2.68374 7.40143 2.68374 7.5C2.68374 7.59856 2.6546 7.69493 2.6 7.777L1.3 9.72299C1.24989 9.79829 1.22115 9.88577 1.21683 9.9761C1.2125 10.0664 1.23277 10.1563 1.27546 10.236C1.31815 10.3157 1.38166 10.3824 1.45924 10.4289C1.53682 10.4754 1.62555 10.4999 1.716 10.5H4.006C4.0908 10.5 4.17421 10.5216 4.24838 10.5627C4.32255 10.6038 4.38505 10.6631 4.43 10.735L6.359 13.822C6.40394 13.8939 6.46644 13.9532 6.54061 13.9943C6.61478 14.0354 6.69819 14.057 6.783 14.057C6.8678 14.057 6.95121 14.0354 7.02538 13.9943C7.09955 13.9532 7.16205 13.8939 7.207 13.822L9.136 10.735C9.18094 10.6631 9.24344 10.6038 9.31761 10.5627C9.39178 10.5216 9.47519 10.5 9.56 10.5H11.849C11.9394 10.4999 12.0282 10.4754 12.1058 10.4289C12.1833 10.3824 12.2468 10.3157 12.2895 10.236C12.3322 10.1563 12.3525 10.0664 12.3482 9.9761C12.3438 9.88577 12.3151 9.79829 12.265 9.72299L10.965 7.777C10.9104 7.69493 10.8813 7.59856 10.8813 7.5C10.8813 7.40143 10.9104 7.30506 10.965 7.223L12.265 5.277Z" fill="#9FEAFF"/>
<path d="M6.783 0.942993C6.69819 0.942993 6.61478 0.964562 6.54061 1.00567C6.46644 1.04678 6.40394 1.10608 6.359 1.17799L4.43 4.26499C4.38505 4.33691 4.32255 4.39621 4.24838 4.43731C4.17421 4.47842 4.0908 4.49999 4.006 4.49999H1.717C1.62655 4.50004 1.53782 4.52462 1.46024 4.57111C1.38266 4.6176 1.31915 4.68426 1.27646 4.76399C1.23377 4.84373 1.2135 4.93355 1.21783 5.02388C1.22215 5.11422 1.25089 5.2017 1.301 5.27699L2.6 7.22299C2.6546 7.30505 2.68374 7.40142 2.68374 7.49999C2.68374 7.59856 2.6546 7.69493 2.6 7.77699L1.3 9.72299C1.24989 9.79829 1.22115 9.88576 1.21683 9.9761C1.2125 10.0664 1.23277 10.1563 1.27546 10.236C1.31815 10.3157 1.38166 10.3824 1.45924 10.4289C1.53682 10.4754 1.62555 10.4999 1.716 10.5H4.006C4.0908 10.5 4.17421 10.5216 4.24838 10.5627C4.32255 10.6038 4.38505 10.6631 4.43 10.735L6.359 13.822C6.40394 13.8939 6.46644 13.9532 6.54061 13.9943C6.61478 14.0354 6.69819 14.057 6.783 14.057V0.942993Z" fill="#DFF9FF"/>
<path d="M12.265 5.277C12.3151 5.2017 12.3438 5.11423 12.3482 5.02389C12.3525 4.93355 12.3322 4.84373 12.2895 4.76399C12.2468 4.68426 12.1833 4.6176 12.1058 4.57111C12.0282 4.52462 11.9394 4.50004 11.849 4.49999H9.56C9.47519 4.5 9.39178 4.47843 9.31761 4.43732C9.24344 4.39621 9.18094 4.33691 9.136 4.26499L7.207 1.178C7.16205 1.10608 7.09955 1.04678 7.02538 1.00567C6.95121 0.964562 6.8678 0.942993 6.783 0.942993C6.69819 0.942993 6.61478 0.964562 6.54061 1.00567C6.46644 1.04678 6.40394 1.10608 6.359 1.178L4.43 4.26499C4.38505 4.33691 4.32255 4.39621 4.24838 4.43732C4.17421 4.47843 4.0908 4.5 4.006 4.49999H1.717C1.62655 4.50004 1.53782 4.52462 1.46024 4.57111C1.38266 4.6176 1.31915 4.68426 1.27646 4.76399C1.23377 4.84373 1.2135 4.93355 1.21783 5.02389C1.22215 5.11423 1.25089 5.2017 1.301 5.277L2.6 7.223C2.6546 7.30506 2.68374 7.40143 2.68374 7.5C2.68374 7.59856 2.6546 7.69493 2.6 7.777L1.3 9.72299C1.24989 9.79829 1.22115 9.88576 1.21683 9.9761C1.2125 10.0664 1.23277 10.1563 1.27546 10.236C1.31815 10.3157 1.38166 10.3824 1.45924 10.4289C1.53682 10.4754 1.62555 10.4999 1.716 10.5H4.006C4.0908 10.5 4.17421 10.5216 4.24838 10.5627C4.32255 10.6038 4.38505 10.6631 4.43 10.735L6.359 13.822C6.40394 13.8939 6.46644 13.9532 6.54061 13.9943C6.61478 14.0354 6.69819 14.057 6.783 14.057C6.8678 14.057 6.95121 14.0354 7.02538 13.9943C7.09955 13.9532 7.16205 13.8939 7.207 13.822L9.136 10.735C9.18094 10.6631 9.24344 10.6038 9.31761 10.5627C9.39178 10.5216 9.47519 10.5 9.56 10.5H11.849C11.9394 10.4999 12.0282 10.4754 12.1058 10.4289C12.1833 10.3824 12.2468 10.3157 12.2895 10.236C12.3322 10.1563 12.3525 10.0664 12.3482 9.9761C12.3438 9.88576 12.3151 9.79829 12.265 9.72299L10.965 7.777C10.9104 7.69493 10.8813 7.59856 10.8813 7.5C10.8813 7.40143 10.9104 7.30506 10.965 7.223L12.265 5.277Z" stroke="#00303E" stroke-linecap="round" stroke-linejoin="round"/>
<path d="M4.783 7.5C4.783 8.03043 4.99371 8.53914 5.36878 8.91421C5.74386 9.28929 6.25256 9.5 6.783 9.5C7.31343 9.5 7.82214 9.28929 8.19721 8.91421C8.57228 8.53914 8.783 8.03043 8.783 7.5C8.783 6.96957 8.57228 6.46086 8.19721 6.08579C7.82214 5.71071 7.31343 5.5 6.783 5.5C6.25256 5.5 5.74386 5.71071 5.36878 6.08579C4.99371 6.46086 4.783 6.96957 4.783 7.5Z" fill="#9FEAFF"/>
<path d="M6.783 9.5C6.25256 9.5 5.74386 9.28929 5.36878 8.91421C4.99371 8.53914 4.783 8.03043 4.783 7.5C4.783 6.96957 4.99371 6.46086 5.36878 6.08579C5.74386 5.71071 6.25256 5.5 6.783 5.5V9.5Z" fill="#DFF9FF"/>
<path d="M4.783 7.5C4.783 8.03043 4.99371 8.53914 5.36878 8.91421C5.74386 9.28929 6.25256 9.5 6.783 9.5C7.31343 9.5 7.82214 9.28929 8.19721 8.91421C8.57228 8.53914 8.783 8.03043 8.783 7.5C8.783 6.96957 8.57228 6.46086 8.19721 6.08579C7.82214 5.71071 7.31343 5.5 6.783 5.5C6.25256 5.5 5.74386 5.71071 5.36878 6.08579C4.99371 6.46086 4.783 6.96957 4.783 7.5Z" stroke="#00303E" stroke-linecap="round" stroke-linejoin="round"/>
<path d="M9.283 15.5H13.283" stroke="#00303E" stroke-linecap="round" stroke-linejoin="round"/>
<path d="M7.783 18.5H14.783" stroke="#00303E" stroke-linecap="round" stroke-linejoin="round"/>
</g>
<defs>
<clipPath id="clip0_3303_12880">
<rect width="24" height="24" fill="white"/>
</clipPath>
</defs>
</svg>
