<svg width="24" height="24" viewBox="0 0 24 24" fill="none" xmlns="http://www.w3.org/2000/svg">
<path d="M8 19H7C0.66 15.2 0.5 15.36 0.5 12C0.5 8.64 0.7 8.78 7 5H8C5.79 5 4 8.13 4 12C4 15.87 5.79 19 8 19Z" fill="#9FEAFF"/>
<path d="M17 19H11C8.79 19 7 15.87 7 12C7 8.13 8.79 5 11 5H17C14.79 5 13 8.13 13 12C13 15.87 14.79 19 17 19Z" fill="#9FEAFF"/>
<path d="M7 12C7 15.87 8.79 19 11 19H8C5.79 19 4 15.87 4 12C4 8.13 5.79 5 8 5H11C8.79 5 7 8.13 7 12Z" fill="#9FEAFF"/>
<path d="M19.5 5V19H17C14.79 19 13 15.87 13 12C13 8.13 14.79 5 17 5H19.5Z" fill="#9FEAFF"/>
<path d="M8 5C6.26 5 4.78 6.94 4.24 9.65C1.4 11.37 0.72 11.98 0.55 13.51C0.51 13.09 0.5 12.6 0.5 12C0.5 8.64 0.7 8.78 7 5H8Z" fill="#9FEAFF"/>
<path d="M17 5C15.64 5 14.44 6.18 13.72 8H7.99998C7.90254 8.00008 7.80537 8.01013 7.70998 8.03C7.70933 8.02457 7.70989 8.01907 7.71162 8.01388C7.71334 8.00869 7.7162 8.00395 7.71998 8C8.43998 6.18 9.63998 5 11 5H17Z" fill="#9FEAFF"/>
<path d="M11 5C9.63999 5 8.43999 6.18 7.71999 8C7.25071 7.99972 6.79023 8.12729 6.38799 8.369C5.56099 8.869 4.84499 9.287 4.23999 9.65C4.77999 6.94 6.25999 5 7.99999 5H11Z" fill="#DFF9FF"/>
<path d="M19.5 5V8H13.72C14.44 6.18 15.64 5 17 5H19.5Z" fill="#9FEAFF"/>
<path d="M8 19H7C0.66 15.2 0.5 15.36 0.5 12C0.5 8.64 0.7 8.78 7 5H8C5.79 5 4 8.13 4 12C4 15.87 5.79 19 8 19Z" stroke="#00303E" stroke-linecap="round" stroke-linejoin="round"/>
<path d="M17 19H11C8.79 19 7 15.87 7 12C7 8.13 8.79 5 11 5H17C14.79 5 13 8.13 13 12C13 15.87 14.79 19 17 19Z" stroke="#00303E" stroke-linecap="round" stroke-linejoin="round"/>
<path d="M7 12C7 15.87 8.79 19 11 19H8C5.79 19 4 15.87 4 12C4 8.13 5.79 5 8 5H11C8.79 5 7 8.13 7 12Z" stroke="#00303E" stroke-linecap="round" stroke-linejoin="round"/>
<path d="M19.5 5V19H17C14.79 19 13 15.87 13 12C13 8.13 14.79 5 17 5H19.5Z" stroke="#00303E" stroke-linecap="round" stroke-linejoin="round"/>
<path d="M15.5 12C15.5 13.8565 15.9214 15.637 16.6716 16.9497C17.4217 18.2625 18.4391 19 19.5 19C20.5609 19 21.5783 18.2625 22.3284 16.9497C23.0786 15.637 23.5 13.8565 23.5 12C23.5 10.1435 23.0786 8.36301 22.3284 7.05025C21.5783 5.7375 20.5609 5 19.5 5C18.4391 5 17.4217 5.7375 16.6716 7.05025C15.9214 8.36301 15.5 10.1435 15.5 12Z" fill="#9FEAFF"/>
<path d="M7.703 8H13.703" stroke="#00303E" stroke-linecap="round" stroke-linejoin="round"/>
<path d="M7 12H13" stroke="#00303E" stroke-linecap="round" stroke-linejoin="round"/>
<path d="M7.71899 16H13.719" stroke="#00303E" stroke-linecap="round" stroke-linejoin="round"/>
<path d="M19.5 5C17.29 5 15.5 8.133 15.5 12C15.4953 13.0977 15.6492 14.1903 15.957 15.244L22.894 8.307C22.188 6.324 20.934 5 19.5 5Z" fill="#DFF9FF"/>
<path d="M15.5 12C15.5 13.8565 15.9214 15.637 16.6716 16.9497C17.4217 18.2625 18.4391 19 19.5 19C20.5609 19 21.5783 18.2625 22.3284 16.9497C23.0786 15.637 23.5 13.8565 23.5 12C23.5 10.1435 23.0786 8.36301 22.3284 7.05025C21.5783 5.7375 20.5609 5 19.5 5C18.4391 5 17.4217 5.7375 16.6716 7.05025C15.9214 8.36301 15.5 10.1435 15.5 12Z" stroke="#00303E" stroke-linecap="round" stroke-linejoin="round"/>
</svg>
