<svg width="24" height="24" viewBox="0 0 24 24" fill="none" xmlns="http://www.w3.org/2000/svg">
<path d="M19.491 15.106L21.891 12.706C22.0785 12.5184 22.1838 12.2641 22.1838 11.999C22.1838 11.7338 22.0785 11.4795 21.891 11.292L19.491 8.89198V5.49998C19.491 5.23476 19.3856 4.98041 19.1981 4.79287C19.0106 4.60533 18.7562 4.49998 18.491 4.49998H15.1L12.7 2.09998C12.5125 1.91251 12.2582 1.80719 11.993 1.80719C11.7278 1.80719 11.4735 1.91251 11.286 2.09998L8.886 4.49998H5.491C5.22579 4.49998 4.97143 4.60533 4.7839 4.79287C4.59636 4.98041 4.491 5.23476 4.491 5.49998V8.89398L2.091 11.294C1.90353 11.4815 1.79822 11.7358 1.79822 12.001C1.79822 12.2661 1.90353 12.5204 2.091 12.708L4.491 15.108V18.5C4.491 18.7652 4.59636 19.0195 4.7839 19.2071C4.97143 19.3946 5.22579 19.5 5.491 19.5H8.885L11.285 21.9C11.4725 22.0874 11.7268 22.1928 11.992 22.1928C12.2572 22.1928 12.5115 22.0874 12.699 21.9L15.099 19.5H18.493C18.7582 19.5 19.0126 19.3946 19.2001 19.2071C19.3876 19.0195 19.493 18.7652 19.493 18.5L19.491 15.106Z" fill="#9FEAFF"/>
<path d="M11.491 6C15.491 6 17.491 8.686 17.491 12C17.491 15.314 15.491 18 11.491 18V6Z" fill="#9FEAFF"/>
<path d="M19.491 15.106L21.891 12.706C22.0785 12.5184 22.1838 12.2641 22.1838 11.999C22.1838 11.7338 22.0785 11.4795 21.891 11.292L19.491 8.89198V5.49998C19.491 5.23476 19.3856 4.98041 19.1981 4.79287C19.0106 4.60533 18.7562 4.49998 18.491 4.49998H15.1L12.7 2.09998C12.5125 1.91251 12.2582 1.80719 11.993 1.80719C11.7278 1.80719 11.4735 1.91251 11.286 2.09998L8.886 4.49998H5.491C5.22579 4.49998 4.97143 4.60533 4.7839 4.79287C4.59636 4.98041 4.491 5.23476 4.491 5.49998V8.89398L2.091 11.294C1.90353 11.4815 1.79822 11.7358 1.79822 12.001C1.79822 12.2661 1.90353 12.5204 2.091 12.708L4.491 15.108V18.5C4.491 18.7652 4.59636 19.0195 4.7839 19.2071C4.97143 19.3946 5.22579 19.5 5.491 19.5H8.885L11.285 21.9C11.4725 22.0874 11.7268 22.1928 11.992 22.1928C12.2572 22.1928 12.5115 22.0874 12.699 21.9L15.099 19.5H18.493C18.7582 19.5 19.0126 19.3946 19.2001 19.2071C19.3876 19.0195 19.493 18.7652 19.493 18.5L19.491 15.106Z" stroke="#00303E" stroke-linecap="round" stroke-linejoin="round"/>
<path d="M11.491 6C15.491 6 17.491 8.686 17.491 12C17.491 15.314 15.491 18 11.491 18V6Z" stroke="#00303E" stroke-linecap="round" stroke-linejoin="round"/>
</svg>
