<svg width="24" height="24" viewBox="0 0 24 24" fill="none" xmlns="http://www.w3.org/2000/svg">
<g clip-path="url(#clip0_3303_4990)">
<path d="M0.5 12C0.5 13.5102 0.797456 15.0056 1.37539 16.4009C1.95331 17.7961 2.8004 19.0639 3.86827 20.1317C4.93615 21.1996 6.2039 22.0467 7.59914 22.6246C8.99438 23.2025 10.4898 23.5 12 23.5C13.5102 23.5 15.0056 23.2025 16.4009 22.6246C17.7961 22.0467 19.0639 21.1996 20.1317 20.1317C21.1996 19.0639 22.0467 17.7961 22.6246 16.4009C23.2025 15.0056 23.5 13.5102 23.5 12C23.5 10.4898 23.2025 8.99438 22.6246 7.59914C22.0467 6.2039 21.1996 4.93615 20.1317 3.86827C19.0639 2.8004 17.7961 1.95331 16.4009 1.37539C15.0056 0.797456 13.5102 0.5 12 0.5C10.4898 0.5 8.99438 0.797456 7.59914 1.37539C6.2039 1.95331 4.93615 2.8004 3.86827 3.86827C2.8004 4.93615 1.95331 6.2039 1.37539 7.59914C0.797456 8.99438 0.5 10.4898 0.5 12Z" fill="#DFF9FF"/>
<path d="M12 4.85299C14.6715 4.85394 17.2594 5.78497 19.3192 7.48621C21.379 9.18746 22.7823 11.5528 23.288 14.176C23.6123 12.5108 23.564 10.7944 23.1468 9.14998C22.7296 7.50556 21.9538 5.97382 20.8749 4.66457C19.796 3.35532 18.4407 2.301 16.9064 1.57719C15.372 0.853386 13.6965 0.478027 12 0.478027C10.3035 0.478027 8.62798 0.853386 7.09362 1.57719C5.55925 2.301 4.20404 3.35532 3.12513 4.66457C2.04623 5.97382 1.27036 7.50556 0.853156 9.14998C0.435953 10.7944 0.387749 12.5108 0.712 14.176C1.21773 11.5528 2.62098 9.18746 4.6808 7.48621C6.74061 5.78497 9.32847 4.85394 12 4.85299Z" fill="#9FEAFF"/>
<path d="M0.5 12C0.5 13.5102 0.797456 15.0056 1.37539 16.4009C1.95331 17.7961 2.8004 19.0639 3.86827 20.1317C4.93615 21.1996 6.2039 22.0467 7.59914 22.6246C8.99438 23.2025 10.4898 23.5 12 23.5C13.5102 23.5 15.0056 23.2025 16.4009 22.6246C17.7961 22.0467 19.0639 21.1996 20.1317 20.1317C21.1996 19.0639 22.0467 17.7961 22.6246 16.4009C23.2025 15.0056 23.5 13.5102 23.5 12C23.5 10.4898 23.2025 8.99438 22.6246 7.59914C22.0467 6.2039 21.1996 4.93615 20.1317 3.86827C19.0639 2.8004 17.7961 1.95331 16.4009 1.37539C15.0056 0.797456 13.5102 0.5 12 0.5C10.4898 0.5 8.99438 0.797456 7.59914 1.37539C6.2039 1.95331 4.93615 2.8004 3.86827 3.86827C2.8004 4.93615 1.95331 6.2039 1.37539 7.59914C0.797456 8.99438 0.5 10.4898 0.5 12Z" stroke="#00303E" stroke-linecap="round" stroke-linejoin="round"/>
<path d="M7.09604 7.09598L3.86804 3.86798" stroke="#00303E" stroke-linecap="round" stroke-linejoin="round"/>
<path d="M20.132 20.131L15.087 15.087" stroke="#00303E" stroke-linecap="round" stroke-linejoin="round"/>
<path d="M11.372 3.939C11.4505 3.81179 11.5586 3.70544 11.6871 3.629C11.8156 3.55257 11.9607 3.50831 12.11 3.5H15.65C15.925 3.5 16.032 3.691 15.887 3.925L12.426 9.5H16.589C16.864 9.5 16.937 9.666 16.752 9.869L7.64396 19.832C7.45796 20.032 7.39196 19.993 7.49496 19.738L10.447 12.5H7.22196C7.16728 12.5099 7.11087 12.5029 7.06028 12.4799C7.00969 12.4569 6.96732 12.419 6.93884 12.3713C6.91036 12.3236 6.89713 12.2683 6.9009 12.2128C6.90467 12.1574 6.92528 12.1044 6.95996 12.061L11.372 3.939Z" fill="#9FEAFF"/>
<path d="M11.372 3.939C11.4505 3.81179 11.5586 3.70544 11.6871 3.629C11.8156 3.55257 11.9607 3.50831 12.11 3.5H15.65C15.925 3.5 16.032 3.691 15.887 3.925L12.426 9.5H16.589C16.864 9.5 16.937 9.666 16.752 9.869L7.64396 19.832C7.45796 20.032 7.39196 19.993 7.49496 19.738L10.447 12.5H7.22196C7.16728 12.5099 7.11087 12.5029 7.06028 12.4799C7.00969 12.4569 6.96732 12.419 6.93884 12.3713C6.91036 12.3236 6.89713 12.2683 6.9009 12.2128C6.90467 12.1574 6.92528 12.1044 6.95996 12.061L11.372 3.939Z" stroke="#00303E" stroke-linecap="round" stroke-linejoin="round"/>
</g>
<defs>
<clipPath id="clip0_3303_4990">
<rect width="24" height="24" fill="white"/>
</clipPath>
</defs>
</svg>
