<svg width="24" height="24" viewBox="0 0 24 24" fill="none" xmlns="http://www.w3.org/2000/svg">
<g clip-path="url(#clip0_3303_2078)">
<path d="M3.75 6.75098C3.75 7.34193 3.8664 7.92709 4.09254 8.47305C4.31869 9.01902 4.65016 9.51509 5.06802 9.93296C5.48588 10.3508 5.98196 10.6823 6.52792 10.9084C7.07389 11.1346 7.65905 11.251 8.25 11.251C8.84095 11.251 9.42611 11.1346 9.97208 10.9084C10.518 10.6823 11.0141 10.3508 11.432 9.93296C11.8498 9.51509 12.1813 9.01902 12.4075 8.47305C12.6336 7.92709 12.75 7.34193 12.75 6.75098C12.75 6.16003 12.6336 5.57487 12.4075 5.0289C12.1813 4.48294 11.8498 3.98686 11.432 3.569C11.0141 3.15113 10.518 2.81966 9.97208 2.59352C9.42611 2.36737 8.84095 2.25098 8.25 2.25098C7.65905 2.25098 7.07389 2.36737 6.52792 2.59352C5.98196 2.81966 5.48588 3.15113 5.06802 3.569C4.65016 3.98686 4.31869 4.48294 4.09254 5.0289C3.8664 5.57487 3.75 6.16003 3.75 6.75098Z" fill="#9FEAFF"/>
<path d="M16 10H20C20.3978 10 20.7794 10.158 21.0607 10.4393C21.342 10.7206 21.5 11.1022 21.5 11.5V13.5C21.5 13.8978 21.342 14.2794 21.0607 14.5607C20.7794 14.842 20.3978 15 20 15H16C15.8674 15 15.7402 14.9473 15.6464 14.8536C15.5527 14.7598 15.5 14.6326 15.5 14.5V10.5C15.5 10.3674 15.5527 10.2402 15.6464 10.1464C15.7402 10.0527 15.8674 10 16 10Z" fill="#DFF9FF"/>
<path d="M9.30303 17.683L6.47503 20.51C6.33573 20.6494 6.17033 20.76 5.98828 20.8354C5.80623 20.9109 5.6111 20.9497 5.41403 20.9497C5.21697 20.9497 5.02184 20.9109 4.83979 20.8354C4.65774 20.76 4.49233 20.6494 4.35303 20.51L2.94003 19.097C2.65883 18.8157 2.50085 18.4343 2.50085 18.0365C2.50085 17.6388 2.65883 17.2573 2.94003 16.976L5.76903 14.147C5.8628 14.0533 5.98995 14.0006 6.12253 14.0006C6.25512 14.0006 6.38227 14.0533 6.47603 14.147L9.30403 16.976C9.39777 17.0698 9.45043 17.1969 9.45043 17.3295C9.45043 17.4621 9.39677 17.5892 9.30303 17.683Z" fill="#DFF9FF"/>
<path d="M9.5 3.5V1" stroke="#00303E" stroke-linecap="round" stroke-linejoin="round"/>
<path d="M5 8H2.5" stroke="#00303E" stroke-linecap="round" stroke-linejoin="round"/>
<path d="M6.31805 4.81799L4.55005 3.04999" stroke="#00303E" stroke-linecap="round" stroke-linejoin="round"/>
<path d="M10.934 18.577L7.53402 21.977C6.87638 22.6307 5.98678 22.9976 5.05952 22.9976C4.13225 22.9976 3.24265 22.6307 2.58502 21.977L1.52402 20.917C0.870244 20.2592 0.503296 19.3694 0.503296 18.442C0.503296 17.5146 0.870244 16.6248 1.52402 15.967L4.92402 12.567" stroke="#00303E" stroke-linecap="round" stroke-linejoin="round"/>
<path d="M15.5 8H19.877C20.8252 8.01531 21.731 8.39568 22.4058 9.06195C23.0807 9.72822 23.4726 10.6291 23.5 11.577V13.577C23.4602 14.5111 23.0562 15.3924 22.3745 16.0322C21.6928 16.672 20.7877 17.0194 19.853 17H15.5" stroke="#00303E" stroke-linecap="round" stroke-linejoin="round"/>
</g>
<defs>
<clipPath id="clip0_3303_2078">
<rect width="24" height="24" fill="white"/>
</clipPath>
</defs>
</svg>
