<svg width="24" height="24" viewBox="0 0 24 24" fill="none" xmlns="http://www.w3.org/2000/svg">
<path d="M2.89583 5.77087H21.1042C21.1042 5.77087 23.0208 5.77087 23.0208 7.68754V19.1875C23.0208 19.1875 23.0208 21.1042 21.1042 21.1042H2.89583C2.89583 21.1042 0.979168 21.1042 0.979168 19.1875V7.68754C0.979168 7.68754 0.979168 5.77087 2.89583 5.77087Z" fill="#9FEAFF"/>
<path d="M23.0208 8.64587V7.68754C23.0193 7.17968 22.8169 6.69304 22.4578 6.33393C22.0987 5.97481 21.612 5.77239 21.1042 5.77087H2.89583C2.38797 5.77239 1.90134 5.97481 1.54222 6.33393C1.18311 6.69304 0.980685 7.17968 0.979168 7.68754V8.64587H23.0208Z" fill="#9FEAFF"/>
<path d="M2.89583 5.77087H21.1042C21.1042 5.77087 23.0208 5.77087 23.0208 7.68754V19.1875C23.0208 19.1875 23.0208 21.1042 21.1042 21.1042H2.89583C2.89583 21.1042 0.979168 21.1042 0.979168 19.1875V7.68754C0.979168 7.68754 0.979168 5.77087 2.89583 5.77087Z" stroke="#00303E" stroke-linecap="round" stroke-linejoin="round"/>
<path d="M8.64583 5.77087V4.33337C8.64583 3.95213 8.79728 3.58649 9.06687 3.31691C9.33645 3.04732 9.70208 2.89587 10.0833 2.89587H13.9167C14.2979 2.89587 14.6635 3.04732 14.9331 3.31691C15.2027 3.58649 15.3542 3.95213 15.3542 4.33337V5.77087" stroke="#00303E" stroke-linecap="round" stroke-linejoin="round"/>
<path d="M14.875 11.0416C14.37 11.0413 13.8739 11.174 13.4365 11.4263C12.999 11.6787 12.6358 12.0418 12.3833 12.4791H6.72917L5.29167 13.9166L6.72917 15.3541H12.3833C12.6356 15.7911 12.9985 16.154 13.4355 16.4063C13.8724 16.6587 14.3681 16.7915 14.8727 16.7916C15.3773 16.7917 15.873 16.659 16.3101 16.4068C16.7471 16.1546 17.1101 15.7918 17.3625 15.3549C17.615 14.918 17.748 14.4224 17.7482 13.9178C17.7484 13.4132 17.6158 12.9174 17.3637 12.4803C17.1116 12.0432 16.7489 11.6802 16.3121 11.4276C15.8752 11.1751 15.3796 11.042 14.875 11.0416Z" fill="#9FEAFF" stroke="#00303E" stroke-linecap="round" stroke-linejoin="round"/>
<path d="M14.875 13.4375C15.0021 13.4375 15.124 13.488 15.2138 13.5778C15.3037 13.6677 15.3542 13.7896 15.3542 13.9167C15.3542 14.0437 15.3037 14.1656 15.2138 14.2555C15.124 14.3453 15.0021 14.3958 14.875 14.3958C14.7479 14.3958 14.626 14.3453 14.5362 14.2555C14.4463 14.1656 14.3958 14.0437 14.3958 13.9167C14.3958 13.7896 14.4463 13.6677 14.5362 13.5778C14.626 13.488 14.7479 13.4375 14.875 13.4375Z" stroke="#00303E" stroke-linecap="round" stroke-linejoin="round"/>
</svg>
