<svg width="24" height="24" viewBox="0 0 24 24" fill="none" xmlns="http://www.w3.org/2000/svg">
<path d="M20.5 11.5C20.5 10.9696 20.2893 10.4609 19.9142 10.0858C19.5391 9.71071 19.0304 9.5 18.5 9.5H5.5C4.96957 9.5 4.46086 9.71071 4.08579 10.0858C3.71071 10.4609 3.5 10.9696 3.5 11.5V21.5C3.5 22.0304 3.71071 22.5391 4.08579 22.9142C4.46086 23.2893 4.96957 23.5 5.5 23.5H18.5C19.0304 23.5 19.5391 23.2893 19.9142 22.9142C20.2893 22.5391 20.5 22.0304 20.5 21.5V11.5Z" fill="#9FEAFF"/>
<path d="M12 9.5H5.5C4.96957 9.5 4.46086 9.71071 4.08579 10.0858C3.71071 10.4609 3.5 10.9696 3.5 11.5V21.5C3.5 22.0304 3.71071 22.5391 4.08579 22.9142C4.46086 23.2893 4.96957 23.5 5.5 23.5H12V9.5Z" fill="#DFF9FF"/>
<path d="M20.5 11.5C20.5 10.9696 20.2893 10.4609 19.9142 10.0858C19.5391 9.71071 19.0304 9.5 18.5 9.5H5.5C4.96957 9.5 4.46086 9.71071 4.08579 10.0858C3.71071 10.4609 3.5 10.9696 3.5 11.5V21.5C3.5 22.0304 3.71071 22.5391 4.08579 22.9142C4.46086 23.2893 4.96957 23.5 5.5 23.5H18.5C19.0304 23.5 19.5391 23.2893 19.9142 22.9142C20.2893 22.5391 20.5 22.0304 20.5 21.5V11.5Z" stroke="#00303E" stroke-linecap="round" stroke-linejoin="round"/>
<path d="M6.5 6C6.5 4.54131 7.07946 3.14236 8.11091 2.11091C9.14236 1.07946 10.5413 0.5 12 0.5C13.4587 0.5 14.8576 1.07946 15.8891 2.11091C16.9205 3.14236 17.5 4.54131 17.5 6V9.5H6.5V6Z" stroke="#00303E" stroke-linecap="round" stroke-linejoin="round"/>
<path d="M12 17.75C12.2472 17.75 12.4889 17.6767 12.6945 17.5393C12.9 17.402 13.0602 17.2068 13.1548 16.9784C13.2495 16.7499 13.2742 16.4986 13.226 16.2561C13.1778 16.0137 13.0587 15.7909 12.8839 15.6161C12.7091 15.4413 12.4863 15.3223 12.2439 15.274C12.0014 15.2258 11.7501 15.2505 11.5216 15.3452C11.2932 15.4398 11.098 15.6 10.9607 15.8055C10.8233 16.0111 10.75 16.2528 10.75 16.5C10.75 16.8315 10.8817 17.1495 11.1161 17.3839C11.3505 17.6183 11.6685 17.75 12 17.75Z" fill="#9FEAFF" stroke="#00303E" stroke-linecap="round" stroke-linejoin="round"/>
</svg>
