<svg width="24" height="24" viewBox="0 0 24 24" fill="none" xmlns="http://www.w3.org/2000/svg">
<g clip-path="url(#clip0_3303_3865)">
<path d="M17.4 8.5C17.4621 8.17017 17.4956 7.83559 17.5 7.5C17.5 3.634 13.7 0.5 9 0.5C4.3 0.5 0.5 3.634 0.5 7.5C0.520286 8.46408 0.757018 9.41128 1.19269 10.2715C1.62836 11.1318 2.25183 11.8832 3.017 12.47L1 16L5.939 14.024C6.44883 14.1859 6.97084 14.3066 7.5 14.385C13.1 15.115 16.754 11.36 17.4 8.5Z" fill="#9FEAFF"/>
<path d="M9 2.889C10.606 2.84748 12.2005 3.17066 13.6636 3.83421C15.1266 4.49777 16.4202 5.48443 17.447 6.72C16.976 3.221 13.374 0.5 9 0.5C4.626 0.5 1.023 3.221 0.552002 6.72C1.57884 5.48424 2.87257 4.49746 4.33585 3.83389C5.79913 3.17032 7.39384 2.84726 9 2.889Z" fill="#DFF9FF"/>
<path d="M9.5 16.5C9.5 20.788 14.5 24 19 22L23 23.5L21.5 20.5C22.1213 20.0346 22.6256 19.4307 22.9728 18.7364C23.3199 18.042 23.5005 17.2763 23.5 16.5C23.5 13.346 20.366 10.5 16.5 10.5C12.634 10.5 9.5 13.346 9.5 16.5Z" fill="#9FEAFF"/>
<path d="M16.5 12.5C17.8329 12.4854 19.1514 12.7751 20.3555 13.3469C21.5595 13.9188 22.6171 14.7577 23.448 15.8C23.028 12.937 20.077 10.5 16.5 10.5C12.923 10.5 9.97203 12.937 9.55103 15.8C10.382 14.7576 11.4399 13.9186 12.644 13.3467C13.8482 12.7748 15.167 12.4853 16.5 12.5Z" fill="#DFF9FF"/>
<path d="M9.5 16.5C9.5 20.788 14.5 24 19 22L23 23.5L21.5 20.5C22.1213 20.0346 22.6256 19.4307 22.9728 18.7364C23.3199 18.042 23.5005 17.2763 23.5 16.5C23.5 13.346 20.366 10.5 16.5 10.5C12.634 10.5 9.5 13.346 9.5 16.5Z" stroke="#00303E" stroke-linecap="round" stroke-linejoin="round"/>
<path d="M17.4 8.5C17.4621 8.17017 17.4956 7.83559 17.5 7.5C17.5 3.634 13.7 0.5 9 0.5C4.3 0.5 0.5 3.634 0.5 7.5C0.520286 8.46408 0.757018 9.41128 1.19269 10.2715C1.62836 11.1318 2.25183 11.8832 3.017 12.47L1 16L5.939 14.024C6.44883 14.1859 6.97084 14.3066 7.5 14.385" stroke="#00303E" stroke-linecap="round" stroke-linejoin="round"/>
</g>
<defs>
<clipPath id="clip0_3303_3865">
<rect width="24" height="24" fill="white"/>
</clipPath>
</defs>
</svg>
