<svg width="24" height="24" viewBox="0 0 24 24" fill="none" xmlns="http://www.w3.org/2000/svg">
<g clip-path="url(#clip0_3303_3909)">
<path d="M0.5 13.5C0.5 13.7652 0.605357 14.0196 0.792893 14.2071C0.98043 14.3946 1.23478 14.5 1.5 14.5H4.5V18.5L8.5 14.5H20.5C20.7652 14.5 21.0196 14.3946 21.2071 14.2071C21.3946 14.0196 21.5 13.7652 21.5 13.5V1.5C21.5 1.23478 21.3946 0.98043 21.2071 0.792893C21.0196 0.605357 20.7652 0.5 20.5 0.5H1.5C1.23478 0.5 0.98043 0.605357 0.792893 0.792893C0.605357 0.98043 0.5 1.23478 0.5 1.5V13.5Z" fill="#9FEAFF"/>
<path d="M1.5 14.5H4.5L18.5 0.5H1.5C1.23478 0.5 0.98043 0.605357 0.792893 0.792893C0.605357 0.98043 0.5 1.23478 0.5 1.5V13.5C0.5 13.7652 0.605357 14.0196 0.792893 14.2071C0.98043 14.3946 1.23478 14.5 1.5 14.5Z" fill="#DFF9FF"/>
<path d="M9.5 14.5H8.5L4.5 18.5V14.5H1.5C1.23478 14.5 0.98043 14.3946 0.792893 14.2071C0.605357 14.0196 0.5 13.7652 0.5 13.5V1.5C0.5 1.23478 0.605357 0.98043 0.792893 0.792893C0.98043 0.605357 1.23478 0.5 1.5 0.5H20.5C20.7652 0.5 21.0196 0.605357 21.2071 0.792893C21.3946 0.98043 21.5 1.23478 21.5 1.5V9.5" stroke="#00303E" stroke-linecap="round" stroke-linejoin="round"/>
<path d="M17.49 22C18.38 22 19.25 21.7361 19.9901 21.2416C20.7301 20.7471 21.3069 20.0443 21.6474 19.2221C21.988 18.3998 22.0772 17.495 21.9035 16.6221C21.7299 15.7492 21.3013 14.9474 20.672 14.318C20.0426 13.6887 19.2408 13.2601 18.3679 13.0865C17.495 12.9128 16.5902 13.0019 15.7679 13.3425C14.9456 13.6831 14.2428 14.2599 13.7484 14.9999C13.2539 15.74 12.99 16.61 12.99 17.5C12.99 18.6935 13.4641 19.8381 14.308 20.682C15.1519 21.5259 16.2965 22 17.49 22Z" fill="#9FEAFF"/>
<path d="M15 18.5H11.5V22" stroke="#00303E" stroke-linecap="round" stroke-linejoin="round"/>
<path d="M22.917 19.732C22.5076 20.9359 21.6986 21.9636 20.6245 22.6442C19.5503 23.3248 18.2756 23.6175 17.0122 23.4736C15.7487 23.3297 14.5725 22.7579 13.6789 21.8531C12.7853 20.9484 12.2282 19.7652 12.1 18.5" stroke="#00303E" stroke-linecap="round" stroke-linejoin="round"/>
<path d="M20 16.5H23.5V13" stroke="#00303E" stroke-linecap="round" stroke-linejoin="round"/>
<path d="M12.083 15.266C12.4934 14.0629 13.3028 13.0362 14.3769 12.3564C15.451 11.6766 16.7253 11.3845 17.9883 11.5286C19.2512 11.6727 20.427 12.2443 21.3204 13.1485C22.2138 14.0528 22.7712 15.2353 22.9 16.5" stroke="#00303E" stroke-linecap="round" stroke-linejoin="round"/>
</g>
<defs>
<clipPath id="clip0_3303_3909">
<rect width="24" height="24" fill="white"/>
</clipPath>
</defs>
</svg>
