<svg width="24" height="24" viewBox="0 0 24 24" fill="none" xmlns="http://www.w3.org/2000/svg">
<path d="M7.5 0.5H16.5C16.5 0.5 18.5 0.5 18.5 2.5V21.5C18.5 21.5 18.5 23.5 16.5 23.5H7.5C7.5 23.5 5.5 23.5 5.5 21.5V2.5C5.5 2.5 5.5 0.5 7.5 0.5Z" fill="#DFF9FF"/>
<path d="M5.5 4.5H18.5V19.5H5.5V4.5Z" fill="#9FEAFF"/>
<path d="M18.5 5.231V4.5H5.5V18.231L18.5 5.231Z" fill="#DFF9FF"/>
<path d="M7.5 0.5H16.5C16.5 0.5 18.5 0.5 18.5 2.5V21.5C18.5 21.5 18.5 23.5 16.5 23.5H7.5C7.5 23.5 5.5 23.5 5.5 21.5V2.5C5.5 2.5 5.5 0.5 7.5 0.5Z" stroke="#00303E" stroke-linecap="round" stroke-linejoin="round"/>
<path d="M18.5 4.5H5.5" stroke="#00303E" stroke-linecap="round" stroke-linejoin="round"/>
<path d="M18.5 19.5H5.5" stroke="#00303E" stroke-linecap="round" stroke-linejoin="round"/>
<path d="M9.5 2.5H14.5" stroke="#00303E" stroke-linecap="round" stroke-linejoin="round"/>
<path d="M12 21.25C12.0663 21.25 12.1299 21.2763 12.1768 21.3232C12.2237 21.3701 12.25 21.4337 12.25 21.5C12.25 21.5663 12.2237 21.6299 12.1768 21.6768C12.1299 21.7237 12.0663 21.75 12 21.75C11.9337 21.75 11.8701 21.7237 11.8232 21.6768C11.7763 21.6299 11.75 21.5663 11.75 21.5C11.75 21.4337 11.7763 21.3701 11.8232 21.3232C11.8701 21.2763 11.9337 21.25 12 21.25Z" stroke="#00303E" stroke-linecap="round" stroke-linejoin="round"/>
<path d="M7.49597 7.5H9.49597V9.5H7.49597V7.5Z" stroke="#00303E" stroke-linecap="round" stroke-linejoin="round"/>
<path d="M7.49597 14.5H9.49597V16.5H7.49597V14.5Z" stroke="#00303E" stroke-linecap="round" stroke-linejoin="round"/>
<path d="M14.496 7.5H16.496V9.5H14.496V7.5Z" stroke="#00303E" stroke-linecap="round" stroke-linejoin="round"/>
<path d="M7.49597 12.5H11.496V13.5" stroke="#00303E" stroke-linecap="round" stroke-linejoin="round"/>
<path d="M13.496 13.5V16.5H16.496V13.5H15.496" stroke="#00303E" stroke-linecap="round" stroke-linejoin="round"/>
<path d="M11.496 15.5V16.5" stroke="#00303E" stroke-linecap="round" stroke-linejoin="round"/>
<path d="M11.496 7.5V10.5H12.496" stroke="#00303E" stroke-linecap="round" stroke-linejoin="round"/>
<path d="M14.496 11.5H16.496" stroke="#00303E" stroke-linecap="round" stroke-linejoin="round"/>
</svg>
