<svg width="24" height="24" viewBox="0 0 24 24" fill="none" xmlns="http://www.w3.org/2000/svg">
<path d="M1.75 8.159C1.75 10.0155 2.4875 11.796 3.80025 13.1087C5.11301 14.4215 6.89348 15.159 8.75 15.159C10.6065 15.159 12.387 14.4215 13.6997 13.1087C15.0125 11.796 15.75 10.0155 15.75 8.159C15.75 6.30248 15.0125 4.522 13.6997 3.20925C12.387 1.89649 10.6065 1.159 8.75 1.159C6.89348 1.159 5.11301 1.89649 3.80025 3.20925C2.4875 4.522 1.75 6.30248 1.75 8.159Z" fill="#9FEAFF"/>
<path d="M8.75005 1.159C7.36763 1.15909 6.01619 1.5685 4.86614 2.33562C3.71609 3.10273 2.81893 4.19319 2.28778 5.4695C1.75664 6.74581 1.6153 8.15082 1.88158 9.50735C2.14786 10.8639 2.80984 12.1112 3.78405 13.092L13.6841 3.192C12.3736 1.88757 10.5991 1.15641 8.75005 1.159Z" fill="#DFF9FF"/>
<path d="M10.2499 22.841L7.94294 20.3C7.8129 20.1491 7.71423 19.9737 7.65269 19.7842C7.59115 19.5947 7.56798 19.3949 7.58453 19.1963C7.60108 18.9978 7.65701 18.8045 7.74907 18.6278C7.84112 18.4512 7.96746 18.2946 8.12069 18.1672C8.27393 18.0399 8.45099 17.9444 8.64155 17.8862C8.83211 17.8281 9.03235 17.8085 9.23057 17.8286C9.42878 17.8487 9.62102 17.908 9.79604 18.0032C9.97106 18.0984 10.1254 18.2275 10.2499 18.383L12.2499 20.669V12.84C12.2499 12.4422 12.408 12.0606 12.6893 11.7793C12.9706 11.498 13.3521 11.34 13.7499 11.34C14.1478 11.34 14.5293 11.498 14.8106 11.7793C15.0919 12.0606 15.2499 12.4422 15.2499 12.84V17.34H18.2499C19.3108 17.34 20.3282 17.7614 21.0784 18.5116C21.8285 19.2617 22.2499 20.2791 22.2499 21.34V22.84" fill="#DFF9FF"/>
<path d="M10.2499 22.841L7.94294 20.3C7.8129 20.1491 7.71423 19.9737 7.65269 19.7842C7.59115 19.5947 7.56798 19.3949 7.58453 19.1963C7.60108 18.9978 7.65701 18.8045 7.74907 18.6278C7.84112 18.4512 7.96746 18.2946 8.12069 18.1672C8.27393 18.0399 8.45099 17.9444 8.64155 17.8862C8.83211 17.8281 9.03235 17.8085 9.23057 17.8286C9.42878 17.8487 9.62102 17.908 9.79604 18.0032C9.97106 18.0984 10.1254 18.2275 10.2499 18.383L12.2499 20.669V12.84C12.2499 12.4422 12.408 12.0606 12.6893 11.7793C12.9706 11.498 13.3521 11.34 13.7499 11.34C14.1478 11.34 14.5293 11.498 14.8106 11.7793C15.0919 12.0606 15.2499 12.4422 15.2499 12.84V17.34H18.2499C19.3108 17.34 20.3282 17.7614 21.0784 18.5116C21.8285 19.2617 22.2499 20.2791 22.2499 21.34V22.84" stroke="#00303E" stroke-linecap="round" stroke-linejoin="round"/>
<path d="M8.75 15.159C7.36553 15.159 6.01216 14.7485 4.86101 13.9793C3.70987 13.2101 2.81266 12.1169 2.28285 10.8378C1.75303 9.5587 1.61441 8.15123 1.88451 6.79337C2.1546 5.4355 2.82129 4.18822 3.80026 3.20925C4.77922 2.23028 6.0265 1.5636 7.38437 1.2935C8.74224 1.02341 10.1497 1.16203 11.4288 1.69184C12.7079 2.22166 13.8011 3.11886 14.5703 4.27001C15.3395 5.42115 15.75 6.77453 15.75 8.159" stroke="#00303E" stroke-linecap="round" stroke-linejoin="round"/>
<path d="M8.75 10.159V11.159" stroke="#00303E" stroke-linecap="round" stroke-linejoin="round"/>
<path d="M8.75 5.159V6.159" stroke="#00303E" stroke-linecap="round" stroke-linejoin="round"/>
<path d="M6.75 10.159H9.75C10.0152 10.159 10.2696 10.0536 10.4571 9.8661C10.6446 9.67857 10.75 9.42421 10.75 9.159C10.75 8.89378 10.6446 8.63943 10.4571 8.45189C10.2696 8.26435 10.0152 8.159 9.75 8.159H7.75C7.48478 8.159 7.23043 8.05364 7.04289 7.8661C6.85536 7.67857 6.75 7.42421 6.75 7.159C6.75 6.89378 6.85536 6.63943 7.04289 6.45189C7.23043 6.26435 7.48478 6.159 7.75 6.159H10.75" stroke="#00303E" stroke-linecap="round" stroke-linejoin="round"/>
</svg>
