<svg width="24" height="24" viewBox="0 0 24 24" fill="none" xmlns="http://www.w3.org/2000/svg">
<path d="M5 19.641C3.93913 19.641 2.92172 19.2196 2.17157 18.4694C1.42143 17.7193 1 16.7019 1 15.641C1.04325 14.4298 1.38546 13.2481 1.99614 12.2012C2.60681 11.1544 3.46698 10.2748 4.5 9.641L3.262 7.475C3.19626 7.35893 3.16506 7.2265 3.17206 7.09329C3.17906 6.96008 3.22397 6.83165 3.30152 6.72311C3.37906 6.61457 3.486 6.53045 3.60974 6.48065C3.73349 6.43084 3.86889 6.41744 4 6.442C4.65518 6.573 5.32982 6.573 5.985 6.442C6.11663 6.41578 6.25303 6.42795 6.37794 6.47707C6.50285 6.52619 6.61101 6.61018 6.68952 6.71905C6.76803 6.82791 6.81359 6.95705 6.82077 7.09108C6.82795 7.22511 6.79644 7.35838 6.73 7.475L5.5 9.641H5.468C6.50132 10.2745 7.36173 11.154 7.97245 12.2009C8.58316 13.2479 8.92519 14.4297 8.968 15.641C8.968 16.7019 8.54657 17.7193 7.79643 18.4694C7.04628 19.2196 6.02887 19.641 4.968 19.641H5Z" fill="#DFF9FF"/>
<path d="M1 15.641C1.03943 14.5366 1.32761 13.4553 1.84306 12.4777C2.35851 11.5001 3.08795 10.6515 3.977 9.995C3.37702 11.0352 3.04154 12.2068 3 13.407C2.99999 14.4651 3.41922 15.4801 4.16591 16.2298C4.9126 16.9795 5.92591 17.4028 6.984 17.407C7.5904 17.4063 8.18862 17.2671 8.733 17C8.41739 17.8859 7.79839 18.6315 6.98567 19.1048C6.17296 19.578 5.21897 19.7483 4.2927 19.5855C3.36644 19.4228 2.52768 18.9374 1.92501 18.2154C1.32234 17.4934 0.994655 16.5814 1 15.641Z" fill="#9FEAFF"/>
<path d="M5 19.641C3.93913 19.641 2.92172 19.2196 2.17157 18.4694C1.42143 17.7193 1 16.7019 1 15.641C1.04325 14.4298 1.38546 13.2481 1.99614 12.2012C2.60681 11.1544 3.46698 10.2748 4.5 9.641L3.262 7.475C3.19626 7.35893 3.16506 7.2265 3.17206 7.09329C3.17906 6.96008 3.22397 6.83165 3.30152 6.72311C3.37906 6.61457 3.486 6.53045 3.60974 6.48065C3.73349 6.43084 3.86889 6.41744 4 6.442C4.65518 6.573 5.32982 6.573 5.985 6.442C6.11663 6.41578 6.25303 6.42795 6.37794 6.47707C6.50285 6.52619 6.61101 6.61018 6.68952 6.71905C6.76803 6.82791 6.81359 6.95705 6.82077 7.09108C6.82795 7.22511 6.79644 7.35838 6.73 7.475L5.5 9.641" stroke="#00303E" stroke-linecap="round" stroke-linejoin="round"/>
<path d="M3 9.641H5.5" stroke="#00303E" stroke-linecap="round" stroke-linejoin="round"/>
<path d="M19 19.641C20.0609 19.641 21.0783 19.2196 21.8284 18.4694C22.5786 17.7193 23 16.7019 23 15.641C22.9568 14.4298 22.6146 13.2481 22.0039 12.2012C21.3932 11.1544 20.533 10.2748 19.5 9.641L20.738 7.475C20.8038 7.35893 20.835 7.2265 20.828 7.09329C20.821 6.96008 20.776 6.83165 20.6985 6.72311C20.621 6.61457 20.514 6.53045 20.3903 6.48065C20.2665 6.43084 20.1311 6.41744 20 6.442C19.3448 6.573 18.6702 6.573 18.015 6.442C17.8834 6.41578 17.747 6.42795 17.6221 6.47707C17.4972 6.52619 17.389 6.61018 17.3105 6.71905C17.232 6.82791 17.1864 6.95705 17.1792 7.09108C17.1721 7.22511 17.2036 7.35838 17.27 7.475L18.5 9.641H18.532C17.4987 10.2745 16.6383 11.154 16.0276 12.2009C15.4168 13.2479 15.0748 14.4297 15.032 15.641C15.032 16.7019 15.4534 17.7193 16.2036 18.4694C16.9537 19.2196 17.9711 19.641 19.032 19.641H19Z" fill="#DFF9FF"/>
<path d="M23 15.641C22.9606 14.5366 22.6724 13.4553 22.1569 12.4777C21.6415 11.5001 20.9121 10.6515 20.023 9.995C20.623 11.0352 20.9585 12.2068 21 13.407C21 14.4651 20.5808 15.4801 19.8341 16.2298C19.0874 16.9795 18.0741 17.4028 17.016 17.407C16.4096 17.4063 15.8114 17.2671 15.267 17C15.5826 17.8859 16.2016 18.6315 17.0143 19.1048C17.827 19.578 18.781 19.7483 19.7073 19.5855C20.6336 19.4228 21.4723 18.9374 22.075 18.2154C22.6777 17.4934 23.0053 16.5814 23 15.641Z" fill="#9FEAFF"/>
<path d="M19 19.641C20.0609 19.641 21.0783 19.2196 21.8284 18.4694C22.5786 17.7193 23 16.7019 23 15.641C22.9567 14.4298 22.6145 13.2481 22.0039 12.2012C21.3932 11.1544 20.533 10.2748 19.5 9.641L20.738 7.475C20.8037 7.35893 20.8349 7.2265 20.8279 7.09329C20.8209 6.96008 20.776 6.83165 20.6985 6.72311C20.6209 6.61457 20.514 6.53045 20.3902 6.48065C20.2665 6.43084 20.1311 6.41744 20 6.442C19.3448 6.573 18.6702 6.573 18.015 6.442C17.8834 6.41578 17.747 6.42795 17.622 6.47707C17.4971 6.52619 17.389 6.61018 17.3105 6.71905C17.232 6.82791 17.1864 6.95705 17.1792 7.09108C17.172 7.22511 17.2036 7.35838 17.27 7.475L18.5 9.641" stroke="#00303E" stroke-linecap="round" stroke-linejoin="round"/>
<path d="M21 9.641H18.5" stroke="#00303E" stroke-linecap="round" stroke-linejoin="round"/>
<path d="M14 8.641C16 10.026 18 12.141 18 15.141C17.9307 16.6649 17.2604 18.0993 16.1359 19.1301C15.0113 20.1609 13.5242 20.7042 12 20.641C10.4758 20.7042 8.98867 20.1609 7.86414 19.1301C6.73961 18.0993 6.06932 16.6649 6 15.141C6 12.141 8 10.026 10 8.641L8.481 5.6C8.3827 5.40782 8.34923 5.189 8.38558 4.97622C8.42193 4.76345 8.52615 4.56815 8.68267 4.4195C8.83919 4.27086 9.03961 4.17685 9.25398 4.15152C9.46834 4.1262 9.68515 4.17092 9.872 4.279C10.0465 4.37892 10.2515 4.41161 10.4483 4.37091C10.6452 4.3302 10.8205 4.21891 10.941 4.058L11.149 3.781C11.2485 3.64813 11.3775 3.54027 11.5259 3.46597C11.6743 3.39168 11.838 3.353 12.004 3.353C12.17 3.353 12.3337 3.39168 12.4821 3.46597C12.6305 3.54027 12.7595 3.64813 12.859 3.781L13.067 4.058C13.1876 4.21917 13.363 4.33062 13.5601 4.37134C13.7572 4.41205 13.9624 4.37921 14.137 4.279C14.3238 4.17133 14.5405 4.12695 14.7546 4.15246C14.9687 4.17797 15.1689 4.27202 15.3252 4.42057C15.4815 4.56912 15.5856 4.76422 15.622 4.97677C15.6583 5.18931 15.625 5.40793 15.527 5.6L14 8.641Z" fill="#DFF9FF"/>
<path d="M12 16.638C10.7957 16.6879 9.60602 16.3593 8.59803 15.6983C7.59005 15.0374 6.8144 14.0773 6.38001 12.953C6.12713 13.655 5.99854 14.3958 6.00001 15.142C6.06959 16.6658 6.73996 18.1001 7.86443 19.1308C8.9889 20.1616 10.4759 20.7049 12 20.642C13.5241 20.7049 15.0111 20.1616 16.1356 19.1308C17.2601 18.1001 17.9304 16.6658 18 15.142C18.0015 14.3958 17.8729 13.655 17.62 12.953C17.1856 14.0773 16.41 15.0374 15.402 15.6983C14.394 16.3593 13.2043 16.6879 12 16.638Z" fill="#9FEAFF"/>
<path d="M14 8.641C16 10.026 18 12.141 18 15.141C17.9307 16.6649 17.2604 18.0993 16.1359 19.1301C15.0113 20.1609 13.5242 20.7042 12 20.641C10.4758 20.7042 8.98867 20.1609 7.86414 19.1301C6.73961 18.0993 6.06932 16.6649 6 15.141C6 12.141 8 10.026 10 8.641L8.481 5.6C8.3827 5.40782 8.34923 5.189 8.38558 4.97622C8.42193 4.76345 8.52615 4.56815 8.68267 4.4195C8.83919 4.27086 9.03961 4.17685 9.25398 4.15152C9.46834 4.1262 9.68515 4.17092 9.872 4.279C10.0465 4.37892 10.2515 4.41161 10.4483 4.37091C10.6452 4.3302 10.8205 4.21891 10.941 4.058L11.149 3.781C11.2485 3.64813 11.3775 3.54027 11.5259 3.46597C11.6743 3.39168 11.838 3.353 12.004 3.353C12.17 3.353 12.3337 3.39168 12.4821 3.46597C12.6305 3.54027 12.7595 3.64813 12.859 3.781L13.067 4.058C13.1876 4.21917 13.363 4.33062 13.5601 4.37134C13.7572 4.41205 13.9624 4.37921 14.137 4.279C14.3238 4.17133 14.5405 4.12695 14.7546 4.15246C14.9687 4.17797 15.1689 4.27202 15.3252 4.42057C15.4815 4.56912 15.5856 4.76422 15.622 4.97677C15.6583 5.18931 15.625 5.40793 15.527 5.6L14 8.641Z" stroke="#00303E" stroke-linecap="round" stroke-linejoin="round"/>
<path d="M8 8.641H16" stroke="#00303E" stroke-linecap="round" stroke-linejoin="round"/>
<path d="M12 16.642V17.642" stroke="#00303E" stroke-linecap="round" stroke-linejoin="round"/>
<path d="M12 11.642V12.642" stroke="#00303E" stroke-linecap="round" stroke-linejoin="round"/>
<path d="M10 16.642H13C13.2652 16.642 13.5196 16.5366 13.7071 16.3491C13.8946 16.1616 14 15.9072 14 15.642C14 15.3768 13.8946 15.1224 13.7071 14.9349C13.5196 14.7474 13.2652 14.642 13 14.642H11C10.7348 14.642 10.4804 14.5366 10.2929 14.3491C10.1054 14.1616 10 13.9072 10 13.642C10 13.3768 10.1054 13.1224 10.2929 12.9349C10.4804 12.7474 10.7348 12.642 11 12.642H14" stroke="#00303E" stroke-linecap="round" stroke-linejoin="round"/>
</svg>
