<svg width="24" height="24" viewBox="0 0 24 24" fill="none" xmlns="http://www.w3.org/2000/svg">
<g clip-path="url(#clip0_3303_3356)">
<path d="M1 23.25C1 22.4544 1.31607 21.6913 1.87868 21.1287C2.44129 20.5661 3.20435 20.25 4 20.25C4.79565 20.25 5.55871 20.5661 6.12132 21.1287C6.68393 21.6913 7 22.4544 7 23.25H1Z" fill="#9FEAFF" stroke="#00303E" stroke-linecap="round" stroke-linejoin="round"/>
<path d="M9 23.25C9 22.4544 9.31607 21.6913 9.87868 21.1287C10.4413 20.5661 11.2044 20.25 12 20.25C12.7956 20.25 13.5587 20.5661 14.1213 21.1287C14.6839 21.6913 15 22.4544 15 23.25H9Z" fill="#9FEAFF" stroke="#00303E" stroke-linecap="round" stroke-linejoin="round"/>
<path d="M17 23.25C17 22.4544 17.3161 21.6913 17.8787 21.1287C18.4413 20.5661 19.2044 20.25 20 20.25C20.7956 20.25 21.5587 20.5661 22.1213 21.1287C22.6839 21.6913 23 22.4544 23 23.25H17Z" fill="#9FEAFF" stroke="#00303E" stroke-linecap="round" stroke-linejoin="round"/>
<path d="M4 18.75C4.39556 18.75 4.78224 18.6327 5.11114 18.4129C5.44004 18.1932 5.69638 17.8808 5.84776 17.5154C5.99913 17.1499 6.03874 16.7478 5.96157 16.3598C5.8844 15.9719 5.69392 15.6155 5.41421 15.3358C5.13451 15.0561 4.77814 14.8656 4.39018 14.7884C4.00222 14.7113 3.60009 14.7509 3.23463 14.9022C2.86918 15.0536 2.55682 15.31 2.33706 15.6389C2.1173 15.9678 2 16.3544 2 16.75C2 17.2804 2.21071 17.7891 2.58579 18.1642C2.96086 18.5393 3.46957 18.75 4 18.75Z" fill="#DFF9FF" stroke="#00303E" stroke-linecap="round" stroke-linejoin="round"/>
<path d="M12 18.75C12.3956 18.75 12.7822 18.6327 13.1111 18.4129C13.44 18.1932 13.6964 17.8808 13.8478 17.5154C13.9991 17.1499 14.0387 16.7478 13.9616 16.3598C13.8844 15.9719 13.6939 15.6155 13.4142 15.3358C13.1345 15.0561 12.7781 14.8656 12.3902 14.7884C12.0022 14.7113 11.6001 14.7509 11.2346 14.9022C10.8692 15.0536 10.5568 15.31 10.3371 15.6389C10.1173 15.9678 10 16.3544 10 16.75C10 17.2804 10.2107 17.7891 10.5858 18.1642C10.9609 18.5393 11.4696 18.75 12 18.75Z" fill="#DFF9FF" stroke="#00303E" stroke-linecap="round" stroke-linejoin="round"/>
<path d="M20 18.75C20.3956 18.75 20.7822 18.6327 21.1111 18.4129C21.44 18.1932 21.6964 17.8808 21.8478 17.5154C21.9991 17.1499 22.0387 16.7478 21.9616 16.3598C21.8844 15.9719 21.6939 15.6155 21.4142 15.3358C21.1345 15.0561 20.7781 14.8656 20.3902 14.7884C20.0022 14.7113 19.6001 14.7509 19.2346 14.9022C18.8692 15.0536 18.5568 15.31 18.3371 15.6389C18.1173 15.9678 18 16.3544 18 16.75C18 17.2804 18.2107 17.7891 18.5858 18.1642C18.9609 18.5393 19.4696 18.75 20 18.75Z" fill="#DFF9FF" stroke="#00303E" stroke-linecap="round" stroke-linejoin="round"/>
<path d="M14 2.25H11C10.341 2.25 10 2.443 10 3.25C10 4.557 14 5.943 14 7.25C14.0207 7.38607 14.0091 7.52511 13.9662 7.65588C13.9232 7.78665 13.8501 7.90549 13.7528 8.00282C13.6555 8.10014 13.5366 8.17322 13.4059 8.21616C13.2751 8.2591 13.1361 8.27069 13 8.25H10" stroke="#00303E" stroke-linecap="round" stroke-linejoin="round"/>
<path d="M12 2.25V0.75" stroke="#00303E" stroke-linecap="round" stroke-linejoin="round"/>
<path d="M12 9.75V8.25" stroke="#00303E" stroke-linecap="round" stroke-linejoin="round"/>
<path d="M4 13.25V12.25H20V13.25" stroke="#00303E" stroke-linecap="round" stroke-linejoin="round"/>
<path d="M12 12.25V13.25" stroke="#00303E" stroke-linecap="round" stroke-linejoin="round"/>
</g>
<defs>
<clipPath id="clip0_3303_3356">
<rect width="24" height="24" fill="white"/>
</clipPath>
</defs>
</svg>
