<svg width="24" height="24" viewBox="0 0 24 24" fill="none" xmlns="http://www.w3.org/2000/svg">
<g clip-path="url(#clip0_3303_6879)">
<path d="M20.5 11.5V1.5C20.5 1.23478 20.3946 0.98043 20.2071 0.792893C20.0196 0.605357 19.7652 0.5 19.5 0.5H1.5C1.23478 0.5 0.98043 0.605357 0.792893 0.792893C0.605357 0.98043 0.5 1.23478 0.5 1.5V11.5H20.5Z" fill="#9FEAFF"/>
<path d="M16.5 0.5H1.5C1.23478 0.5 0.98043 0.605357 0.792893 0.792893C0.605357 0.98043 0.5 1.23478 0.5 1.5V11.5H5.5L16.5 0.5Z" fill="#DFF9FF"/>
<path d="M0.5 11.5V13.5C0.5 13.7652 0.605357 14.0196 0.792893 14.2071C0.98043 14.3946 1.23478 14.5 1.5 14.5H19.5C19.7652 14.5 20.0196 14.3946 20.2071 14.2071C20.3946 14.0196 20.5 13.7652 20.5 13.5V11.5H0.5Z" fill="white"/>
<path d="M13.5 17.5C13.1022 17.5 12.7206 17.342 12.4393 17.0607C12.158 16.7794 12 16.3978 12 16V14.5H8.5V16C8.5 16.3978 8.34196 16.7794 8.06066 17.0607C7.77936 17.342 7.39782 17.5 7 17.5H13.5Z" fill="#9FEAFF"/>
<path d="M5.5 17.5H11.5" stroke="#00303E" stroke-linecap="round" stroke-linejoin="round"/>
<path d="M0.5 11.5H14.5" stroke="#00303E" stroke-linecap="round" stroke-linejoin="round"/>
<path d="M8.5 14.5V16C8.5 16.3978 8.34196 16.7794 8.06066 17.0607C7.77936 17.342 7.39782 17.5 7 17.5" stroke="#00303E" stroke-linecap="round" stroke-linejoin="round"/>
<path d="M20.5 11.5V1.5C20.5 1.23478 20.3946 0.98043 20.2071 0.792893C20.0196 0.605357 19.7652 0.5 19.5 0.5H1.5C1.23478 0.5 0.98043 0.605357 0.792893 0.792893C0.605357 0.98043 0.5 1.23478 0.5 1.5V13.5C0.5 13.7652 0.605357 14.0196 0.792893 14.2071C0.98043 14.3946 1.23478 14.5 1.5 14.5H12.5" stroke="#00303E" stroke-linecap="round" stroke-linejoin="round"/>
<path d="M18.338 12.5C18.2569 12.3482 18.1362 12.2213 17.9886 12.1328C17.841 12.0442 17.6721 11.9975 17.5 11.9975C17.3279 11.9975 17.159 12.0442 17.0114 12.1328C16.8639 12.2213 16.7431 12.3482 16.662 12.5L11.606 22.135C11.5313 22.2769 11.4949 22.4358 11.5003 22.5961C11.5058 22.7564 11.5529 22.9125 11.637 23.049C11.7222 23.1862 11.8411 23.2994 11.9823 23.3778C12.1235 23.4563 12.2825 23.4973 12.444 23.497H22.556C22.7175 23.4972 22.8764 23.4561 23.0176 23.3777C23.1589 23.2993 23.2777 23.1862 23.363 23.049C23.4471 22.9125 23.4942 22.7564 23.4997 22.5961C23.5051 22.4358 23.4687 22.2769 23.394 22.135L18.338 12.5Z" fill="#9FEAFF"/>
<path d="M17.5 12C17.3281 11.9992 17.1591 12.0454 17.0115 12.1335C16.8638 12.2216 16.743 12.3483 16.662 12.5L11.606 22.135C11.5313 22.2769 11.4949 22.4358 11.5003 22.5961C11.5058 22.7564 11.5529 22.9125 11.637 23.049C11.7222 23.1862 11.8411 23.2994 11.9823 23.3778C12.1235 23.4563 12.2825 23.4973 12.444 23.497H17.5V12Z" fill="#DFF9FF"/>
<path d="M18.338 12.5C18.2569 12.3482 18.1362 12.2213 17.9886 12.1328C17.841 12.0442 17.6721 11.9975 17.5 11.9975C17.3279 11.9975 17.159 12.0442 17.0114 12.1328C16.8639 12.2213 16.7431 12.3482 16.662 12.5L11.606 22.135C11.5313 22.2769 11.4949 22.4358 11.5003 22.5961C11.5058 22.7564 11.5529 22.9125 11.637 23.049C11.7222 23.1862 11.8411 23.2994 11.9823 23.3778C12.1235 23.4563 12.2825 23.4973 12.444 23.497H22.556C22.7175 23.4972 22.8764 23.4561 23.0176 23.3777C23.1589 23.2993 23.2777 23.1862 23.363 23.049C23.4471 22.9125 23.4942 22.7564 23.4997 22.5961C23.5051 22.4358 23.4687 22.2769 23.394 22.135L18.338 12.5Z" stroke="#00303E" stroke-linecap="round" stroke-linejoin="round"/>
<path d="M17.5 20.5C17.5494 20.5 17.5978 20.5147 17.6389 20.5421C17.68 20.5696 17.712 20.6086 17.731 20.6543C17.7499 20.7 17.7548 20.7503 17.7452 20.7988C17.7355 20.8473 17.7117 20.8918 17.6768 20.9268C17.6418 20.9617 17.5973 20.9855 17.5488 20.9952C17.5003 21.0048 17.45 20.9999 17.4043 20.981C17.3586 20.962 17.3196 20.93 17.2921 20.8889C17.2647 20.8478 17.25 20.7994 17.25 20.75C17.25 20.6837 17.2763 20.6201 17.3232 20.5732C17.3701 20.5263 17.4337 20.5 17.5 20.5Z" stroke="#00303E" stroke-linecap="round" stroke-linejoin="round"/>
<path d="M17.5 18.5V15.5" stroke="#00303E" stroke-linecap="round" stroke-linejoin="round"/>
</g>
<defs>
<clipPath id="clip0_3303_6879">
<rect width="24" height="24" fill="white"/>
</clipPath>
</defs>
</svg>
