<svg width="24" height="24" viewBox="0 0 24 24" fill="none" xmlns="http://www.w3.org/2000/svg">
<path d="M0.5 16V3.5C0.5 3.10218 0.658035 2.72064 0.93934 2.43934C1.22064 2.15804 1.60218 2 2 2H22C22.3978 2 22.7794 2.15804 23.0607 2.43934C23.342 2.72064 23.5 3.10218 23.5 3.5V16H0.5Z" fill="#9FEAFF"/>
<path d="M19 2H2C1.60218 2 1.22064 2.15804 0.93934 2.43934C0.658035 2.72064 0.5 3.10218 0.5 3.5V16H5L19 2Z" fill="#DFF9FF"/>
<path d="M8.58298 7.228C8.53733 7.29698 8.50951 7.37621 8.502 7.45858C8.4945 7.54096 8.50755 7.62391 8.53998 7.7L9.61198 10.7C9.65095 10.7893 9.71514 10.8652 9.79669 10.9185C9.87823 10.9718 9.97357 11.0001 10.071 11H13.65C13.7526 11 13.8528 10.9685 13.9369 10.9096C14.0209 10.8508 14.0849 10.7674 14.12 10.671L15.455 7H8.99998C8.91701 7.00042 8.83546 7.02148 8.76266 7.06129C8.68986 7.10109 8.62811 7.15838 8.58298 7.228Z" fill="#9FEAFF"/>
<path d="M0.5 16H23.5V18.5C23.5 18.8978 23.342 19.2794 23.0607 19.5607C22.7794 19.842 22.3978 20 22 20H2C1.60218 20 1.22064 19.842 0.93934 19.5607C0.658035 19.2794 0.5 18.8978 0.5 18.5V16Z" fill="white"/>
<path d="M5 22.004H19" stroke="#00303E" stroke-linecap="round" stroke-linejoin="round"/>
<path d="M11.5 20.004V22.004" stroke="#00303E" stroke-linecap="round" stroke-linejoin="round"/>
<path d="M0.5 16.004H23.5" stroke="#00303E" stroke-linecap="round" stroke-linejoin="round"/>
<path d="M16 5.5L14.12 10.671C14.0849 10.7674 14.0209 10.8508 13.9369 10.9096C13.8528 10.9685 13.7526 11 13.65 11H10.071C9.97356 11.0001 9.87822 10.9718 9.79668 10.9185C9.71514 10.8652 9.65094 10.7893 9.61197 10.7L8.53997 7.7C8.50671 7.62377 8.49298 7.54045 8.50003 7.45758C8.50709 7.37471 8.5347 7.29491 8.58038 7.22541C8.62605 7.1559 8.68834 7.09889 8.76161 7.05953C8.83488 7.02017 8.91681 6.99971 8.99997 7H15.455" stroke="#00303E" stroke-linecap="round" stroke-linejoin="round"/>
<path d="M10.75 12.5C10.7994 12.5 10.8478 12.5147 10.8889 12.5421C10.93 12.5696 10.962 12.6086 10.981 12.6543C10.9999 12.7 11.0048 12.7503 10.9952 12.7988C10.9856 12.8473 10.9617 12.8918 10.9268 12.9268C10.8918 12.9617 10.8473 12.9856 10.7988 12.9952C10.7503 13.0048 10.7 12.9999 10.6543 12.981C10.6086 12.962 10.5696 12.93 10.5421 12.8889C10.5147 12.8478 10.5 12.7994 10.5 12.75C10.5 12.6837 10.5263 12.6201 10.5732 12.5732C10.6201 12.5263 10.6837 12.5 10.75 12.5Z" stroke="#00303E" stroke-linecap="round" stroke-linejoin="round"/>
<path d="M13.25 12.5C13.2994 12.5 13.3478 12.5147 13.3889 12.5421C13.43 12.5696 13.462 12.6086 13.481 12.6543C13.4999 12.7 13.5048 12.7503 13.4952 12.7988C13.4856 12.8473 13.4617 12.8918 13.4268 12.9268C13.3918 12.9617 13.3473 12.9856 13.2988 12.9952C13.2503 13.0048 13.2 12.9999 13.1543 12.981C13.1086 12.962 13.0696 12.93 13.0421 12.8889C13.0147 12.8478 13 12.7994 13 12.75C13 12.6837 13.0263 12.6201 13.0732 12.5732C13.1201 12.5263 13.1837 12.5 13.25 12.5Z" stroke="#00303E" stroke-linecap="round" stroke-linejoin="round"/>
<path d="M2 2.00403H22C22 2.00403 23.5 2.00403 23.5 3.50403V18.504C23.5 18.504 23.5 20.004 22 20.004H2C2 20.004 0.5 20.004 0.5 18.504V3.50403C0.5 3.50403 0.5 2.00403 2 2.00403Z" stroke="#00303E" stroke-linecap="round" stroke-linejoin="round"/>
</svg>
