<svg width="24" height="24" viewBox="0 0 24 24" fill="none" xmlns="http://www.w3.org/2000/svg">
<path d="M23.5 15.5V2.5C23.5 2.23478 23.3946 1.98043 23.2071 1.79289C23.0196 1.60536 22.7652 1.5 22.5 1.5H1.5C1.23478 1.5 0.98043 1.60536 0.792893 1.79289C0.605357 1.98043 0.5 2.23478 0.5 2.5V15.5H23.5Z" fill="#9FEAFF"/>
<path d="M20.5 1.5H1.5C1.23478 1.5 0.98043 1.60536 0.792893 1.79289C0.605357 1.98043 0.5 2.23478 0.5 2.5V15.5H6.5L20.5 1.5Z" fill="#DFF9FF"/>
<path d="M0.5 15.5V17.5C0.5 17.7652 0.605357 18.0196 0.792893 18.2071C0.98043 18.3946 1.23478 18.5 1.5 18.5H22.5C22.7652 18.5 23.0196 18.3946 23.2071 18.2071C23.3946 18.0196 23.5 17.7652 23.5 17.5V15.5H0.5Z" fill="white"/>
<path d="M15 22.5C14.0942 21.3562 13.5696 19.9573 13.5 18.5H10.5C10.4304 19.9573 9.90582 21.3562 9 22.5H15Z" fill="#9FEAFF" stroke="#00303E" stroke-linecap="round" stroke-linejoin="round"/>
<path d="M7.49902 22.5H16.499" stroke="#00303E" stroke-linecap="round" stroke-linejoin="round"/>
<path d="M0.5 15.5H23.5" stroke="#00303E" stroke-linecap="round" stroke-linejoin="round"/>
<path d="M1.5 1.5H22.5C22.5 1.5 23.5 1.5 23.5 2.5V17.5C23.5 17.5 23.5 18.5 22.5 18.5H1.5C1.5 18.5 0.5 18.5 0.5 17.5V2.5C0.5 2.5 0.5 1.5 1.5 1.5Z" stroke="#00303E" stroke-linecap="round" stroke-linejoin="round"/>
</svg>
