<svg width="24" height="24" viewBox="0 0 24 24" fill="none" xmlns="http://www.w3.org/2000/svg">
<g clip-path="url(#clip0_3303_5990)">
<path d="M0.5 17.5V6.5C0.5 6.23478 0.605357 5.98043 0.792893 5.79289C0.98043 5.60536 1.23478 5.5 1.5 5.5H22.5C22.7652 5.5 23.0196 5.60536 23.2071 5.79289C23.3946 5.98043 23.5 6.23478 23.5 6.5V17.5H0.5Z" fill="#9FEAFF"/>
<path d="M18 5.5H1.5C1.23478 5.5 0.98043 5.60536 0.792893 5.79289C0.605357 5.98043 0.5 6.23478 0.5 6.5V17.5H6L18 5.5Z" fill="#DFF9FF"/>
<path d="M0.5 17.5H23.5V19.5C23.5 19.7652 23.3946 20.0196 23.2071 20.2071C23.0196 20.3946 22.7652 20.5 22.5 20.5H1.5C1.23478 20.5 0.98043 20.3946 0.792893 20.2071C0.605357 20.0196 0.5 19.7652 0.5 19.5V17.5Z" fill="white"/>
<path d="M21.5 5.5H22.5C22.7652 5.5 23.0196 5.60536 23.2071 5.79289C23.3946 5.98043 23.5 6.23478 23.5 6.5V19.5C23.5 19.7652 23.3946 20.0196 23.2071 20.2071C23.0196 20.3946 22.7652 20.5 22.5 20.5H1.5C1.23478 20.5 0.98043 20.3946 0.792893 20.2071C0.605357 20.0196 0.5 19.7652 0.5 19.5V6.5C0.5 6.23478 0.605357 5.98043 0.792893 5.79289C0.98043 5.60536 1.23478 5.5 1.5 5.5H2.5" stroke="#00303E" stroke-linecap="round" stroke-linejoin="round"/>
<path d="M7 23.5H17" stroke="#00303E" stroke-linecap="round" stroke-linejoin="round"/>
<path d="M10.5 20.5H13.5V23.5H10.5V20.5Z" fill="#DFF9FF" stroke="#00303E" stroke-linecap="round" stroke-linejoin="round"/>
<path d="M4.5 4.5H19.5V15.5H4.5V4.5Z" fill="white"/>
<path d="M19.5 4.5H4.5V1.5C4.5 1.23478 4.60536 0.98043 4.79289 0.792893C4.98043 0.605357 5.23478 0.5 5.5 0.5H18.5C18.7652 0.5 19.0196 0.605357 19.2071 0.792893C19.3946 0.98043 19.5 1.23478 19.5 1.5V4.5Z" fill="#DFF9FF"/>
<path d="M4.5 15.5V1.5C4.5 1.23478 4.60536 0.98043 4.79289 0.792893C4.98043 0.605357 5.23478 0.5 5.5 0.5H18.5C18.7652 0.5 19.0196 0.605357 19.2071 0.792893C19.3946 0.98043 19.5 1.23478 19.5 1.5V15.5" stroke="#00303E" stroke-linecap="round" stroke-linejoin="round"/>
<path d="M7 7.50098H10C10 7.50098 10.5 7.50098 10.5 8.00098V11.001C10.5 11.001 10.5 11.501 10 11.501H7C7 11.501 6.5 11.501 6.5 11.001V8.00098C6.5 8.00098 6.5 7.50098 7 7.50098Z" fill="#9FEAFF"/>
<path d="M10.354 7.646C10.3075 7.5996 10.2523 7.56282 10.1915 7.53777C10.1308 7.51272 10.0657 7.49988 10 7.5H7C6.86739 7.5 6.74022 7.55268 6.64645 7.64645C6.55268 7.74022 6.5 7.86739 6.5 8V11C6.49988 11.0657 6.51272 11.1308 6.53777 11.1915C6.56282 11.2523 6.5996 11.3075 6.646 11.354L10.354 7.646Z" fill="#DFF9FF"/>
<path d="M7 7.50098H10C10 7.50098 10.5 7.50098 10.5 8.00098V11.001C10.5 11.001 10.5 11.501 10 11.501H7C7 11.501 6.5 11.501 6.5 11.001V8.00098C6.5 8.00098 6.5 7.50098 7 7.50098Z" stroke="#00303E" stroke-linecap="round" stroke-linejoin="round"/>
<path d="M12.601 10.501H17.5" stroke="#00303E" stroke-linecap="round" stroke-linejoin="round"/>
<path d="M12.601 8.00098H17.5" stroke="#00303E" stroke-linecap="round" stroke-linejoin="round"/>
<path d="M6.5 13.5H17.5" stroke="#00303E" stroke-linecap="round" stroke-linejoin="round"/>
<path d="M0.5 17.5H23.5" stroke="#00303E" stroke-linecap="round" stroke-linejoin="round"/>
<path d="M4.5 4.5H19.5" stroke="#00303E" stroke-linecap="round" stroke-linejoin="round"/>
<path d="M6.75 2.5C6.79945 2.5 6.84778 2.51466 6.88889 2.54213C6.93 2.5696 6.96205 2.60865 6.98097 2.65433C6.99989 2.70001 7.00484 2.75028 6.9952 2.79877C6.98555 2.84727 6.96174 2.89181 6.92678 2.92678C6.89181 2.96174 6.84727 2.98555 6.79877 2.9952C6.75028 3.00484 6.70001 2.99989 6.65433 2.98097C6.60865 2.96205 6.5696 2.93 6.54213 2.88889C6.51466 2.84778 6.5 2.79945 6.5 2.75C6.5 2.6837 6.52634 2.62011 6.57322 2.57322C6.62011 2.52634 6.6837 2.5 6.75 2.5Z" stroke="#00303E" stroke-linecap="round" stroke-linejoin="round"/>
<path d="M8.75 2.5C8.79945 2.5 8.84778 2.51466 8.88889 2.54213C8.93 2.5696 8.96205 2.60865 8.98097 2.65433C8.99989 2.70001 9.00484 2.75028 8.9952 2.79877C8.98555 2.84727 8.96174 2.89181 8.92678 2.92678C8.89181 2.96174 8.84727 2.98555 8.79877 2.9952C8.75028 3.00484 8.70001 2.99989 8.65433 2.98097C8.60865 2.96205 8.5696 2.93 8.54213 2.88889C8.51466 2.84778 8.5 2.79945 8.5 2.75C8.5 2.6837 8.52634 2.62011 8.57322 2.57322C8.62011 2.52634 8.6837 2.5 8.75 2.5Z" stroke="#00303E" stroke-linecap="round" stroke-linejoin="round"/>
<path d="M10.75 2.5C10.7994 2.5 10.8478 2.51466 10.8889 2.54213C10.93 2.5696 10.962 2.60865 10.981 2.65433C10.9999 2.70001 11.0048 2.75028 10.9952 2.79877C10.9856 2.84727 10.9617 2.89181 10.9268 2.92678C10.8918 2.96174 10.8473 2.98555 10.7988 2.9952C10.7503 3.00484 10.7 2.99989 10.6543 2.98097C10.6086 2.96205 10.5696 2.93 10.5421 2.88889C10.5147 2.84778 10.5 2.79945 10.5 2.75C10.5 2.6837 10.5263 2.62011 10.5732 2.57322C10.6201 2.52634 10.6837 2.5 10.75 2.5Z" stroke="#00303E" stroke-linecap="round" stroke-linejoin="round"/>
</g>
<defs>
<clipPath id="clip0_3303_5990">
<rect width="24" height="24" fill="white"/>
</clipPath>
</defs>
</svg>
