<svg width="24" height="24" viewBox="0 0 24 24" fill="none" xmlns="http://www.w3.org/2000/svg">
<g clip-path="url(#clip0_3303_7515)">
<path d="M0.5 16.5C0.5 17.4193 0.68106 18.3295 1.03284 19.1788C1.38463 20.0281 1.90024 20.7997 2.55025 21.4497C3.20026 22.0998 3.97194 22.6154 4.82122 22.9672C5.6705 23.3189 6.58075 23.5 7.5 23.5C8.41925 23.5 9.3295 23.3189 10.1788 22.9672C11.0281 22.6154 11.7997 22.0998 12.4497 21.4497C13.0998 20.7997 13.6154 20.0281 13.9672 19.1788C14.3189 18.3295 14.5 17.4193 14.5 16.5C14.5 15.5807 14.3189 14.6705 13.9672 13.8212C13.6154 12.9719 13.0998 12.2003 12.4497 11.5503C11.7997 10.9002 11.0281 10.3846 10.1788 10.0328C9.3295 9.68106 8.41925 9.5 7.5 9.5C6.58075 9.5 5.6705 9.68106 4.82122 10.0328C3.97194 10.3846 3.20026 10.9002 2.55025 11.5503C1.90024 12.2003 1.38463 12.9719 1.03284 13.8212C0.68106 14.6705 0.5 15.5807 0.5 16.5Z" fill="#9FEAFF"/>
<path d="M0.500008 16.5C0.498282 17.6199 0.766524 18.7238 1.28201 19.718C2.60183 20.4021 4.10515 20.6482 5.57421 20.4208C7.04327 20.1933 8.40178 19.5041 9.45293 18.4529C10.5041 17.4018 11.1933 16.0433 11.4208 14.5742C11.6482 13.1051 11.4021 11.6018 10.718 10.282C9.65087 9.72959 8.45949 9.46119 7.25856 9.50264C6.05764 9.54409 4.8876 9.89399 3.86109 10.5187C2.83457 11.1433 1.98615 12.0217 1.39748 13.0693C0.808821 14.1169 0.499745 15.2984 0.500008 16.5Z" fill="#DFF9FF"/>
<path d="M0.5 16.5C0.5 17.4193 0.68106 18.3295 1.03284 19.1788C1.38463 20.0281 1.90024 20.7997 2.55025 21.4497C3.20026 22.0998 3.97194 22.6154 4.82122 22.9672C5.6705 23.3189 6.58075 23.5 7.5 23.5C8.41925 23.5 9.32951 23.3189 10.1788 22.9672C11.0281 22.6154 11.7997 22.0998 12.4497 21.4497C13.0998 20.7997 13.6154 20.0281 13.9672 19.1788C14.3189 18.3295 14.5 17.4193 14.5 16.5C14.5 15.5807 14.3189 14.6705 13.9672 13.8212C13.6154 12.9719 13.0998 12.2003 12.4497 11.5503C11.7997 10.9002 11.0281 10.3846 10.1788 10.0328C9.32951 9.68106 8.41925 9.5 7.5 9.5C6.58075 9.5 5.6705 9.68106 4.82122 10.0328C3.97194 10.3846 3.20026 10.9002 2.55025 11.5503C1.90024 12.2003 1.38463 12.9719 1.03284 13.8212C0.68106 14.6705 0.5 15.5807 0.5 16.5Z" stroke="#00303E" stroke-linecap="round" stroke-linejoin="round"/>
<path d="M7.5 23.5C5.5 22 4.5 19 4.5 16.5C4.5 14 5.5 11 7.5 9.5" stroke="#00303E" stroke-linecap="round" stroke-linejoin="round"/>
<path d="M7.5 23.5C9.5 22 10.5 19 10.5 16.5C10.5 14 9.5 11 7.5 9.5" stroke="#00303E" stroke-linecap="round" stroke-linejoin="round"/>
<path d="M1.17401 13.5H13.826" stroke="#00303E" stroke-linecap="round" stroke-linejoin="round"/>
<path d="M1.17401 19.5H13.826" stroke="#00303E" stroke-linecap="round" stroke-linejoin="round"/>
<path d="M0.5 16.5H14.5" stroke="#00303E" stroke-linecap="round" stroke-linejoin="round"/>
<path d="M12.893 0.5C15.6892 0.554275 18.3557 1.68922 20.3332 3.66677C22.3108 5.64433 23.4457 8.31084 23.5 11.107L17.794 11.027C17.7692 9.75617 17.2533 8.5443 16.3545 7.64551C15.4557 6.74672 14.2438 6.23083 12.973 6.206L12.893 0.5Z" fill="#DFF9FF"/>
<path d="M17.794 11.027C17.7692 9.75616 17.2533 8.54429 16.3545 7.6455C15.4557 6.74672 14.2439 6.23082 12.973 6.20599" stroke="#00303E" stroke-linecap="round" stroke-linejoin="round"/>
<path d="M20.647 11.067C20.6076 9.03346 19.7822 7.0942 18.344 5.656C16.9058 4.2178 14.9665 3.39242 12.933 3.353" stroke="#00303E" stroke-linecap="round" stroke-linejoin="round"/>
<path d="M23.5 11.107C23.4457 8.31084 22.3108 5.64433 20.3332 3.66677C18.3557 1.68922 15.6892 0.554275 12.893 0.5" stroke="#00303E" stroke-linecap="round" stroke-linejoin="round"/>
</g>
<defs>
<clipPath id="clip0_3303_7515">
<rect width="24" height="24" fill="white"/>
</clipPath>
</defs>
</svg>
