<svg width="24" height="24" viewBox="0 0 24 24" fill="none" xmlns="http://www.w3.org/2000/svg">
<g clip-path="url(#clip0_3303_7396)">
<path d="M1.052 23.5H23" stroke="#00303E" stroke-linecap="round" stroke-linejoin="round"/>
<path d="M12.031 23.5V18.5" stroke="#00303E" stroke-linecap="round" stroke-linejoin="round"/>
<path d="M21.031 9.46701C21.0318 11.8616 20.0815 14.1584 18.389 15.8524C16.6965 17.5463 14.4006 18.4987 12.006 18.5C9.59912 18.46 7.3055 17.4707 5.62454 15.7476C3.94359 14.0245 3.01142 11.7071 3.031 9.30001C3.03284 6.9997 3.93531 4.79156 5.54515 3.14844C7.15499 1.50533 9.34422 0.557888 11.644 0.509007C11.773 0.500007 11.9 0.500007 12.035 0.500007C13.2157 0.49367 14.386 0.721071 15.4784 1.1691C16.5708 1.61713 17.5638 2.27694 18.4 3.11048C19.2362 3.94403 19.8992 4.93483 20.3508 6.02579C20.8023 7.11675 21.0335 8.28629 21.031 9.46701Z" fill="#9FEAFF"/>
<path d="M11.644 0.509013C9.34422 0.557894 7.15499 1.50534 5.54515 3.14845C3.93531 4.79156 3.03284 6.99971 3.03101 9.30001C3.03119 11.0423 3.52079 12.7495 4.44401 14.227C5.80889 15.0591 7.37647 15.4996 8.97501 15.5C10.577 15.4988 12.1499 15.0715 13.5323 14.262C14.9147 13.4524 16.0569 12.2897 16.8418 10.8932C17.6267 9.4966 18.026 7.91641 17.9988 6.31462C17.9716 4.71284 17.5189 3.14712 16.687 1.77801C15.2811 0.937676 13.6729 0.495884 12.035 0.500013C11.9 0.500013 11.773 0.500013 11.644 0.509013Z" fill="#DFF9FF"/>
<path d="M21.031 9.46701C21.0318 11.8616 20.0815 14.1584 18.389 15.8524C16.6965 17.5463 14.4006 18.4987 12.006 18.5C9.59912 18.46 7.3055 17.4707 5.62454 15.7476C3.94359 14.0245 3.01142 11.7071 3.031 9.30001C3.03284 6.9997 3.93531 4.79156 5.54515 3.14844C7.15499 1.50533 9.34422 0.557888 11.644 0.509007C11.773 0.500007 11.9 0.500007 12.035 0.500007C13.2157 0.49367 14.386 0.721071 15.4784 1.1691C16.5708 1.61713 17.5638 2.27694 18.4 3.11048C19.2362 3.94403 19.8992 4.93483 20.3508 6.02579C20.8023 7.11675 21.0335 8.28629 21.031 9.46701Z" stroke="#00303E" stroke-linecap="round" stroke-linejoin="round"/>
<path d="M11.644 0.509003C6.94899 5.595 6.94899 12.232 11.644 18.493" stroke="#00303E" stroke-linecap="round" stroke-linejoin="round"/>
<path d="M12.427 0.509003C17.127 5.595 17.127 12.23 12.427 18.49" stroke="#00303E" stroke-linecap="round" stroke-linejoin="round"/>
<path d="M4.03302 13.5H20.083" stroke="#00303E" stroke-linecap="round" stroke-linejoin="round"/>
<path d="M4.53101 4.5H19.531" stroke="#00303E" stroke-linecap="round" stroke-linejoin="round"/>
<path d="M3.03101 9.5H21.031" stroke="#00303E" stroke-linecap="round" stroke-linejoin="round"/>
</g>
<defs>
<clipPath id="clip0_3303_7396">
<rect width="24" height="24" fill="white"/>
</clipPath>
</defs>
</svg>
