<svg width="24" height="24" viewBox="0 0 24 24" fill="none" xmlns="http://www.w3.org/2000/svg">
<g clip-path="url(#clip0_3303_7483)">
<path d="M0.5 11.998C0.5 13.5082 0.797456 15.0036 1.37539 16.3989C1.95331 17.7941 2.8004 19.0619 3.86827 20.1297C4.93615 21.1976 6.2039 22.0447 7.59914 22.6226C8.99438 23.2005 10.4898 23.498 12 23.498C13.5102 23.498 15.0056 23.2005 16.4009 22.6226C17.7961 22.0447 19.0639 21.1976 20.1317 20.1297C21.1996 19.0619 22.0467 17.7941 22.6246 16.3989C23.2025 15.0036 23.5 13.5082 23.5 11.998C23.5 10.4878 23.2025 8.99239 22.6246 7.59714C22.0467 6.2019 21.1996 4.93415 20.1317 3.86627C19.0639 2.7984 17.7961 1.95132 16.4009 1.37339C15.0056 0.795457 13.5102 0.498001 12 0.498001C10.4898 0.498001 8.99438 0.795457 7.59914 1.37339C6.2039 1.95132 4.93615 2.7984 3.86827 3.86627C2.8004 4.93415 1.95331 6.2019 1.37539 7.59714C0.797456 8.99239 0.5 10.4878 0.5 11.998Z" fill="#9FEAFF"/>
<path d="M3.96399 15C3.96368 12.9914 4.48944 11.0178 5.48895 9.27556C6.48846 7.53333 7.92685 6.08326 9.66095 5.06971C11.395 4.05615 13.3644 3.51446 15.3729 3.49854C17.3814 3.48263 19.3591 3.99305 21.109 4.979C20.0684 3.62924 18.7407 2.52766 17.2221 1.75395C15.7035 0.98024 14.0319 0.553749 12.3282 0.505329C10.6246 0.456909 8.93146 0.787771 7.37136 1.47398C5.81126 2.16019 4.42319 3.18459 3.30757 4.47307C2.19194 5.76155 1.37666 7.28189 0.920702 8.92411C0.464741 10.5663 0.379502 12.2894 0.671151 13.9686C0.9628 15.6478 1.62405 17.2412 2.60705 18.6335C3.59005 20.0258 4.87024 21.1822 6.35499 22.019C4.80129 20.0094 3.96014 17.5402 3.96399 15Z" fill="#DFF9FF"/>
<path d="M1.89798 17.5L9.49998 17.501" stroke="#00303E" stroke-linecap="round" stroke-linejoin="round"/>
<path d="M2.51199 5.5H21.496" stroke="#00303E" stroke-linecap="round" stroke-linejoin="round"/>
<path d="M12 11.501L0.510986 11.5" stroke="#00303E" stroke-linecap="round" stroke-linejoin="round"/>
<path d="M11.378 23.484C9.26287 23.3671 7.22112 22.6683 5.47798 21.4645C3.73485 20.2608 2.35806 18.599 1.49949 16.6625C0.640921 14.7259 0.333937 12.5898 0.612401 10.4898C0.890865 8.38984 1.74396 6.40758 3.07757 4.7617C4.41118 3.11582 6.17349 1.87028 8.17011 1.16247C10.1667 0.454661 12.32 0.312091 14.3925 0.750487C16.465 1.18888 18.3762 2.19121 19.9151 3.6469C21.4541 5.10259 22.5611 6.95507 23.114 9" stroke="#00303E" stroke-linecap="round" stroke-linejoin="round"/>
<path d="M11.269 0.526001C5.26899 7.026 5.37799 15.484 11.378 23.484" stroke="#00303E" stroke-linecap="round" stroke-linejoin="round"/>
<path d="M12.73 0.526001C14.9709 2.85853 16.4587 5.81104 17 9" stroke="#00303E" stroke-linecap="round" stroke-linejoin="round"/>
<path d="M11.5 18.251C11.5 18.8477 11.7371 19.42 12.159 19.842C12.581 20.264 13.1533 20.501 13.75 20.501C14.3467 20.501 14.919 20.264 15.341 19.842C15.7629 19.42 16 18.8477 16 18.251C16 17.6543 15.7629 17.082 15.341 16.66C14.919 16.2381 14.3467 16.001 13.75 16.001C13.1533 16.001 12.581 16.2381 12.159 16.66C11.7371 17.082 11.5 17.6543 11.5 18.251Z" fill="#9FEAFF" stroke="#00303E" stroke-linecap="round" stroke-linejoin="round"/>
<path d="M19 21.251C19 21.8477 19.2371 22.42 19.659 22.842C20.081 23.264 20.6533 23.501 21.25 23.501C21.8467 23.501 22.419 23.264 22.841 22.842C23.2629 22.42 23.5 21.8477 23.5 21.251C23.5 20.6543 23.2629 20.082 22.841 19.66C22.419 19.2381 21.8467 19.001 21.25 19.001C20.6533 19.001 20.081 19.2381 19.659 19.66C19.2371 20.082 19 20.6543 19 21.251Z" fill="#9FEAFF" stroke="#00303E" stroke-linecap="round" stroke-linejoin="round"/>
<path d="M19 13.751C19 14.3477 19.2371 14.92 19.659 15.342C20.081 15.764 20.6533 16.001 21.25 16.001C21.8467 16.001 22.419 15.764 22.841 15.342C23.2629 14.92 23.5 14.3477 23.5 13.751C23.5 13.1543 23.2629 12.582 22.841 12.16C22.419 11.7381 21.8467 11.501 21.25 11.501C20.6533 11.501 20.081 11.7381 19.659 12.16C19.2371 12.582 19 13.1543 19 13.751Z" fill="#9FEAFF" stroke="#00303E" stroke-linecap="round" stroke-linejoin="round"/>
<path d="M15.675 17.096L19.325 14.906" stroke="#00303E" stroke-linecap="round" stroke-linejoin="round"/>
<path d="M15.838 19.086L19.162 20.416" stroke="#00303E" stroke-linecap="round" stroke-linejoin="round"/>
</g>
<defs>
<clipPath id="clip0_3303_7483">
<rect width="24" height="24" fill="white"/>
</clipPath>
</defs>
</svg>
