<svg width="24" height="24" viewBox="0 0 24 24" fill="none" xmlns="http://www.w3.org/2000/svg">
<path d="M0.5 6C0.5 5.73478 0.605357 5.48043 0.792893 5.29289C0.98043 5.10536 1.23478 5 1.5 5H22.5C22.7652 5 23.0196 5.10536 23.2071 5.29289C23.3946 5.48043 23.5 5.73478 23.5 6V21C23.5 21.2652 23.3946 21.5196 23.2071 21.7071C23.0196 21.8946 22.7652 22 22.5 22H1.5C1.23478 22 0.98043 21.8946 0.792893 21.7071C0.605357 21.5196 0.5 21.2652 0.5 21V6Z" fill="#DFF9FF"/>
<path d="M23.224 5.318C23.1317 5.21804 23.0197 5.13821 22.8952 5.08349C22.7706 5.02878 22.6361 5.00035 22.5 5H1.5C1.23478 5 0.98043 5.10536 0.792893 5.29289C0.605357 5.48043 0.5 5.73478 0.5 6V21C0.5 21.2652 0.605357 21.5196 0.792893 21.7071C0.98043 21.8946 1.23478 22 1.5 22H6.543L23.224 5.318Z" fill="white"/>
<path d="M0.5 6C0.5 5.73478 0.605357 5.48043 0.792893 5.29289C0.98043 5.10536 1.23478 5 1.5 5H22.5C22.7652 5 23.0196 5.10536 23.2071 5.29289C23.3946 5.48043 23.5 5.73478 23.5 6V21C23.5 21.2652 23.3946 21.5196 23.2071 21.7071C23.0196 21.8946 22.7652 22 22.5 22H1.5C1.23478 22 0.98043 21.8946 0.792893 21.7071C0.605357 21.5196 0.5 21.2652 0.5 21V6Z" stroke="#00303E" stroke-linecap="round" stroke-linejoin="round"/>
<path d="M3.5 7V11.5C3.5 11.8978 3.65804 12.2794 3.93934 12.5607C4.22064 12.842 4.60218 13 5 13C5.39782 13 5.77936 12.842 6.06066 12.5607C6.34196 12.2794 6.5 11.8978 6.5 11.5V4C6.5 3.46957 6.28929 2.96086 5.91421 2.58579C5.53914 2.21071 5.03043 2 4.5 2C3.96957 2 3.46086 2.21071 3.08579 2.58579C2.71071 2.96086 2.5 3.46957 2.5 4V5" stroke="#00303E" stroke-linecap="round" stroke-linejoin="round"/>
<path d="M9.5 10H20.5" stroke="#00303E" stroke-linecap="round" stroke-linejoin="round"/>
<path d="M8.5 14H20.5" stroke="#00303E" stroke-linecap="round" stroke-linejoin="round"/>
<path d="M3.5 18H20.5" stroke="#00303E" stroke-linecap="round" stroke-linejoin="round"/>
</svg>
