<svg width="24" height="24" viewBox="0 0 24 24" fill="none" xmlns="http://www.w3.org/2000/svg">
<g clip-path="url(#clip0_3303_3392)">
<path d="M4 19.5H2.5C1.97005 19.4984 1.46227 19.2872 1.08753 18.9125C0.712805 18.5377 0.501583 18.0299 0.5 17.5V5.5H23.5V17.5C23.5 18.0304 23.2893 18.5391 22.9142 18.9142C22.5391 19.2893 22.0304 19.5 21.5 19.5H4Z" fill="#9FEAFF"/>
<path d="M0.5 5.5V17.5C0.501048 18.0171 0.703328 18.5135 1.064 18.884L14.448 5.5H0.5Z" fill="#DFF9FF"/>
<path d="M4 19.5H2.5C1.97005 19.4984 1.46227 19.2872 1.08753 18.9125C0.712805 18.5377 0.501583 18.0299 0.5 17.5V5.5H23.5V17.5C23.5 18.0304 23.2893 18.5391 22.9142 18.9142C22.5391 19.2893 22.0304 19.5 21.5 19.5H19.968" stroke="#00303E" stroke-linecap="round" stroke-linejoin="round"/>
<path d="M23.5 2.50001V5.50001H0.5V2.50001C0.5 1.96958 0.710714 1.46087 1.08579 1.0858C1.46086 0.710726 1.96957 0.500012 2.5 0.500012H21.5C21.7629 0.499087 22.0234 0.550187 22.2665 0.650369C22.5095 0.750551 22.7304 0.897835 22.9163 1.08374C23.1022 1.26964 23.2495 1.49048 23.3496 1.73355C23.4498 1.97662 23.5009 2.23711 23.5 2.50001Z" fill="white" stroke="#00303E" stroke-linecap="round" stroke-linejoin="round"/>
<path d="M4 2.74899C4.04945 2.74899 4.09778 2.76366 4.13889 2.79113C4.18 2.8186 4.21205 2.85764 4.23097 2.90332C4.24989 2.949 4.25484 2.99927 4.2452 3.04777C4.23555 3.09626 4.21174 3.14081 4.17678 3.17577C4.14181 3.21073 4.09727 3.23454 4.04877 3.24419C4.00028 3.25384 3.95001 3.24888 3.90433 3.22996C3.85865 3.21104 3.8196 3.179 3.79213 3.13789C3.76466 3.09677 3.75 3.04844 3.75 2.99899C3.75 2.93269 3.77634 2.8691 3.82322 2.82222C3.87011 2.77533 3.9337 2.74899 4 2.74899Z" stroke="#00303E" stroke-linecap="round" stroke-linejoin="round"/>
<path d="M7 2.74899C7.04945 2.74899 7.09778 2.76366 7.13889 2.79113C7.18 2.8186 7.21205 2.85764 7.23097 2.90332C7.24989 2.949 7.25484 2.99927 7.2452 3.04777C7.23555 3.09626 7.21174 3.14081 7.17678 3.17577C7.14181 3.21073 7.09727 3.23454 7.04877 3.24419C7.00028 3.25384 6.95001 3.24888 6.90433 3.22996C6.85865 3.21104 6.8196 3.179 6.79213 3.13789C6.76466 3.09677 6.75 3.04844 6.75 2.99899C6.75 2.93269 6.77634 2.8691 6.82322 2.82222C6.87011 2.77533 6.9337 2.74899 7 2.74899Z" stroke="#00303E" stroke-linecap="round" stroke-linejoin="round"/>
<path d="M10 2.74899C10.0494 2.74899 10.0978 2.76366 10.1389 2.79113C10.18 2.8186 10.212 2.85764 10.231 2.90332C10.2499 2.949 10.2548 2.99927 10.2452 3.04777C10.2356 3.09626 10.2117 3.14081 10.1768 3.17577C10.1418 3.21073 10.0973 3.23454 10.0488 3.24419C10.0003 3.25384 9.95001 3.24888 9.90433 3.22996C9.85865 3.21104 9.8196 3.179 9.79213 3.13789C9.76466 3.09677 9.75 3.04844 9.75 2.99899C9.75 2.93269 9.77634 2.8691 9.82322 2.82222C9.87011 2.77533 9.9337 2.74899 10 2.74899Z" stroke="#00303E" stroke-linecap="round" stroke-linejoin="round"/>
<path d="M12 23.5C13.1867 23.5 14.3467 23.1481 15.3334 22.4888C16.3201 21.8295 17.0892 20.8925 17.5433 19.7961C17.9974 18.6997 18.1162 17.4933 17.8847 16.3295C17.6532 15.1656 17.0818 14.0965 16.2426 13.2574C15.4035 12.4182 14.3344 11.8468 13.1705 11.6153C12.0067 11.3838 10.8003 11.5026 9.7039 11.9567C8.60754 12.4109 7.67047 13.1799 7.01118 14.1666C6.35189 15.1533 6 16.3133 6 17.5C6 19.0913 6.63214 20.6174 7.75736 21.7426C8.88258 22.8679 10.4087 23.5 12 23.5Z" fill="#DFF9FF"/>
<path d="M12 11.5V8.5" stroke="#00303E" stroke-linecap="round" stroke-linejoin="round"/>
<path d="M10.5 8.5H13.5" stroke="#00303E" stroke-linecap="round" stroke-linejoin="round"/>
<path d="M7 11.5L8.287 12.787" stroke="#00303E" stroke-linecap="round" stroke-linejoin="round"/>
<path d="M17 11.5L15.713 12.787" stroke="#00303E" stroke-linecap="round" stroke-linejoin="round"/>
<path d="M12.178 17.322L14.123 15.378" stroke="#00303E" stroke-linecap="round" stroke-linejoin="round"/>
<path d="M11.8249 17.322C11.8599 17.2871 11.9045 17.2633 11.953 17.2538C12.0014 17.2442 12.0517 17.2491 12.0973 17.2681C12.143 17.287 12.182 17.3191 12.2094 17.3602C12.2369 17.4013 12.2515 17.4496 12.2515 17.499C12.2515 17.5484 12.2369 17.5967 12.2094 17.6378C12.182 17.6789 12.143 17.711 12.0973 17.7299C12.0517 17.7488 12.0014 17.7538 11.953 17.7442C11.9045 17.7346 11.8599 17.7109 11.8249 17.676C11.7784 17.6288 11.7523 17.5652 11.7523 17.499C11.7523 17.4327 11.7784 17.3692 11.8249 17.322Z" stroke="#00303E" stroke-linecap="round" stroke-linejoin="round"/>
<path d="M12 20.731C10.6504 20.7299 9.34054 20.2738 8.28213 19.4364C7.22371 18.599 6.47854 17.4292 6.167 16.116C5.95438 16.9982 5.94466 17.9172 6.13857 18.8038C6.33248 19.6903 6.72496 20.5213 7.28648 21.2343C7.84801 21.9472 8.56393 22.5234 9.38037 22.9197C10.1968 23.3159 11.0925 23.5217 12 23.5217C12.9075 23.5217 13.8032 23.3159 14.6196 22.9197C15.4361 22.5234 16.152 21.9472 16.7135 21.2343C17.275 20.5213 17.6675 19.6903 17.8614 18.8038C18.0553 17.9172 18.0456 16.9982 17.833 16.116C17.5215 17.4292 16.7763 18.599 15.7179 19.4364C14.6595 20.2738 13.3496 20.7299 12 20.731Z" fill="#9FEAFF"/>
<path d="M12 23.5C13.1867 23.5 14.3467 23.1481 15.3334 22.4888C16.3201 21.8295 17.0892 20.8925 17.5433 19.7961C17.9974 18.6997 18.1162 17.4933 17.8847 16.3295C17.6532 15.1656 17.0818 14.0965 16.2426 13.2574C15.4035 12.4182 14.3344 11.8468 13.1705 11.6153C12.0067 11.3838 10.8003 11.5026 9.7039 11.9567C8.60754 12.4109 7.67047 13.1799 7.01118 14.1666C6.35189 15.1533 6 16.3133 6 17.5C6 19.0913 6.63214 20.6174 7.75736 21.7426C8.88258 22.8679 10.4087 23.5 12 23.5Z" stroke="#00303E" stroke-linecap="round" stroke-linejoin="round"/>
</g>
<defs>
<clipPath id="clip0_3303_3392">
<rect width="24" height="24" fill="white"/>
</clipPath>
</defs>
</svg>
