<svg width="24" height="24" viewBox="0 0 24 24" fill="none" xmlns="http://www.w3.org/2000/svg">
<g clip-path="url(#clip0_3303_2206)">
<path d="M3.5 4.5H1.5C1.23478 4.5 0.98043 4.60536 0.792893 4.79289C0.605357 4.98043 0.5 5.23478 0.5 5.5V22.5C0.5 22.7652 0.605357 23.0196 0.792893 23.2071C0.98043 23.3946 1.23478 23.5 1.5 23.5H18.5C18.7652 23.5 19.0196 23.3946 19.2071 23.2071C19.3946 23.0196 19.5 22.7652 19.5 22.5V20.5" fill="#9FEAFF"/>
<path d="M3.5 4.5H1.5C1.23478 4.5 0.98043 4.60536 0.792893 4.79289C0.605357 4.98043 0.5 5.23478 0.5 5.5V22.5C0.5 22.7652 0.605357 23.0196 0.792893 23.2071C0.98043 23.3946 1.23478 23.5 1.5 23.5H18.5C18.7652 23.5 19.0196 23.3946 19.2071 23.2071C19.3946 23.0196 19.5 22.7652 19.5 22.5V20.5" stroke="#00303E" stroke-linecap="round" stroke-linejoin="round"/>
<path d="M3.5 16.523V19.5C3.5 19.7652 3.60536 20.0196 3.79289 20.2071C3.98043 20.3947 4.23478 20.5 4.5 20.5H22.5C22.7652 20.5 23.0196 20.3947 23.2071 20.2071C23.3946 20.0196 23.5 19.7652 23.5 19.5V16.523H3.5Z" fill="#9FEAFF"/>
<path d="M3.80502 20.219L7.50502 16.519H3.50502V19.5C3.50437 19.6338 3.53059 19.7664 3.58212 19.8899C3.63365 20.0134 3.70945 20.1253 3.80502 20.219Z" fill="#DFF9FF"/>
<path d="M3.5 16.523V19.5C3.5 19.7652 3.60536 20.0196 3.79289 20.2071C3.98043 20.3947 4.23478 20.5 4.5 20.5H22.5C22.7652 20.5 23.0196 20.3947 23.2071 20.2071C23.3946 20.0196 23.5 19.7652 23.5 19.5V16.523H3.5Z" stroke="#00303E" stroke-linecap="round" stroke-linejoin="round"/>
<path d="M23.5 16.523V1.5C23.5 1.23478 23.3946 0.98043 23.2071 0.792893C23.0196 0.605357 22.7652 0.5 22.5 0.5H4.5C4.23478 0.5 3.98043 0.605357 3.79289 0.792893C3.60536 0.98043 3.5 1.23478 3.5 1.5V16.523H23.5Z" fill="#9FEAFF"/>
<path d="M23.219 0.805C23.1257 0.708525 23.014 0.631803 22.8905 0.579404C22.767 0.527006 22.6342 0.500001 22.5 0.5H4.5C4.23478 0.5 3.98043 0.605357 3.79289 0.792893C3.60536 0.98043 3.5 1.23478 3.5 1.5V16.523H7.5L23.219 0.805Z" fill="#DFF9FF"/>
<path d="M23.5 16.523V1.5C23.5 1.23478 23.3946 0.98043 23.2071 0.792893C23.0196 0.605357 22.7652 0.5 22.5 0.5H4.5C4.23478 0.5 3.98043 0.605357 3.79289 0.792893C3.60536 0.98043 3.5 1.23478 3.5 1.5V16.523H23.5Z" stroke="#00303E" stroke-linecap="round" stroke-linejoin="round"/>
<path d="M21 16.5L18.343 9.41299C18.3105 9.32698 18.2548 9.25161 18.1823 9.19516C18.1097 9.13871 18.0229 9.10338 17.9315 9.09304C17.8402 9.08271 17.7477 9.09777 17.6643 9.13657C17.581 9.17538 17.5099 9.23642 17.459 9.31299L14 14.5L11.951 12.041C11.8999 11.9797 11.8348 11.9314 11.7613 11.9004C11.6877 11.8694 11.6078 11.8564 11.5282 11.8625C11.4486 11.8687 11.3717 11.8938 11.3038 11.9359C11.2359 11.9779 11.179 12.0355 11.138 12.104L8.5 16.5H21Z" fill="#9FEAFF" stroke="#00303E" stroke-linecap="round" stroke-linejoin="round"/>
<path d="M10 7.5C10.2967 7.5 10.5867 7.41203 10.8334 7.24721C11.08 7.08238 11.2723 6.84811 11.3858 6.57403C11.4994 6.29994 11.5291 5.99834 11.4712 5.70737C11.4133 5.41639 11.2704 5.14912 11.0607 4.93934C10.8509 4.72956 10.5836 4.5867 10.2926 4.52882C10.0017 4.47094 9.70006 4.50065 9.42597 4.61418C9.15189 4.72771 8.91762 4.91997 8.7528 5.16665C8.58797 5.41332 8.5 5.70333 8.5 6C8.5 6.39783 8.65804 6.77936 8.93934 7.06066C9.22064 7.34197 9.60218 7.5 10 7.5Z" fill="#DFF9FF" stroke="#00303E" stroke-linecap="round" stroke-linejoin="round"/>
<path d="M23.5 16.5H3.5" stroke="#00303E" stroke-linecap="round" stroke-linejoin="round"/>
</g>
<defs>
<clipPath id="clip0_3303_2206">
<rect width="24" height="24" fill="white"/>
</clipPath>
</defs>
</svg>
