<svg width="24" height="24" viewBox="0 0 24 24" fill="none" xmlns="http://www.w3.org/2000/svg">
<g clip-path="url(#clip0_3303_2243)">
<path d="M1.5 0.498001H22.5C22.5 0.498001 23.5 0.498001 23.5 1.498V22.498C23.5 22.498 23.5 23.498 22.5 23.498H1.5C1.5 23.498 0.5 23.498 0.5 22.498V1.498C0.5 1.498 0.5 0.498001 1.5 0.498001Z" fill="#DFF9FF"/>
<path d="M12 0.5H1.5C1.23478 0.5 0.98043 0.605357 0.792893 0.792893C0.605357 0.98043 0.5 1.23478 0.5 1.5V22.5C0.5 22.7652 0.605357 23.0196 0.792893 23.2071C0.98043 23.3946 1.23478 23.5 1.5 23.5H12V0.5Z" fill="white"/>
<path d="M1.5 0.498001H22.5C22.5 0.498001 23.5 0.498001 23.5 1.498V22.498C23.5 22.498 23.5 23.498 22.5 23.498H1.5C1.5 23.498 0.5 23.498 0.5 22.498V1.498C0.5 1.498 0.5 0.498001 1.5 0.498001Z" stroke="#00303E" stroke-linecap="round" stroke-linejoin="round"/>
<path d="M13.5 6.498H20.5" stroke="#00303E" stroke-linecap="round" stroke-linejoin="round"/>
<path d="M10.5 10.498H20.5" stroke="#00303E" stroke-linecap="round" stroke-linejoin="round"/>
<path d="M10.5 14.498H20.5" stroke="#00303E" stroke-linecap="round" stroke-linejoin="round"/>
<path d="M10.5 18.498H17.5" stroke="#00303E" stroke-linecap="round" stroke-linejoin="round"/>
<path d="M4 4.498H7C7 4.498 7.5 4.498 7.5 4.998V7.998C7.5 7.998 7.5 8.498 7 8.498H4C4 8.498 3.5 8.498 3.5 7.998V4.998C3.5 4.998 3.5 4.498 4 4.498Z" fill="#9FEAFF" stroke="#00303E" stroke-linecap="round" stroke-linejoin="round"/>
<path d="M4 10.498H7C7 10.498 7.5 10.498 7.5 10.998V13.998C7.5 13.998 7.5 14.498 7 14.498H4C4 14.498 3.5 14.498 3.5 13.998V10.998C3.5 10.998 3.5 10.498 4 10.498Z" fill="#9FEAFF" stroke="#00303E" stroke-linecap="round" stroke-linejoin="round"/>
<path d="M4 16.498H7C7 16.498 7.5 16.498 7.5 16.998V19.998C7.5 19.998 7.5 20.498 7 20.498H4C4 20.498 3.5 20.498 3.5 19.998V16.998C3.5 16.998 3.5 16.498 4 16.498Z" fill="#9FEAFF" stroke="#00303E" stroke-linecap="round" stroke-linejoin="round"/>
</g>
<defs>
<clipPath id="clip0_3303_2243">
<rect width="24" height="24" fill="white"/>
</clipPath>
</defs>
</svg>
