<svg width="24" height="24" viewBox="0 0 24 24" fill="none" xmlns="http://www.w3.org/2000/svg">
<g clip-path="url(#clip0_3303_2254)">
<path d="M0 12C0 15.1826 1.26428 18.2348 3.51472 20.4853C5.76515 22.7357 8.8174 24 12 24C15.1826 24 18.2348 22.7357 20.4853 20.4853C22.7357 18.2348 24 15.1826 24 12C24 8.8174 22.7357 5.76515 20.4853 3.51472C18.2348 1.26428 15.1826 0 12 0C8.8174 0 5.76515 1.26428 3.51472 3.51472C1.26428 5.76515 0 8.8174 0 12Z" fill="#DFF9FF"/>
<path d="M0.5 22.498H23.5" stroke="#00303E" stroke-linecap="round" stroke-linejoin="round"/>
<path d="M2.5 2.498H21.5" stroke="#00303E" stroke-linecap="round" stroke-linejoin="round"/>
<path d="M3.5 7.498H20.5" stroke="#00303E" stroke-linecap="round" stroke-linejoin="round"/>
<path d="M0.5 12.498H23.5" stroke="#00303E" stroke-linecap="round" stroke-linejoin="round"/>
<path d="M4.5 17.498H19.5" stroke="#00303E" stroke-linecap="round" stroke-linejoin="round"/>
</g>
<defs>
<clipPath id="clip0_3303_2254">
<rect width="24" height="24" fill="white"/>
</clipPath>
</defs>
</svg>
