<svg width="24" height="24" viewBox="0 0 24 24" fill="none" xmlns="http://www.w3.org/2000/svg">
<g clip-path="url(#clip0_3303_3409)">
<path d="M23 11L17.38 4.944C17.1186 4.66214 16.7815 4.46158 16.4091 4.36634C16.0366 4.2711 15.6446 4.28522 15.28 4.407L11.557 5.648C11.2338 5.75575 10.8884 5.77914 10.5536 5.71597C10.2188 5.65279 9.90572 5.50513 9.644 5.287L4.5 1" stroke="#00303E" stroke-linecap="round" stroke-linejoin="round"/>
<path d="M19 11H23V7" stroke="#00303E" stroke-linecap="round" stroke-linejoin="round"/>
<path d="M19.5 23V18.5C19.5 18.3674 19.5527 18.2402 19.6464 18.1464C19.7402 18.0527 19.8674 18 20 18H22C22.1326 18 22.2598 18.0527 22.3536 18.1464C22.4473 18.2402 22.5 18.3674 22.5 18.5V23H19.5Z" fill="#9FEAFF"/>
<path d="M13.5 23V13.5C13.5 13.3674 13.5527 13.2402 13.6464 13.1464C13.7402 13.0527 13.8674 13 14 13H16C16.1326 13 16.2598 13.0527 16.3536 13.1464C16.4473 13.2402 16.5 13.3674 16.5 13.5V23H13.5Z" fill="#9FEAFF"/>
<path d="M7.5 23V15.5C7.5 15.3674 7.55268 15.2402 7.64645 15.1464C7.74021 15.0527 7.86739 15 8 15H10C10.1326 15 10.2598 15.0527 10.3536 15.1464C10.4473 15.2402 10.5 15.3674 10.5 15.5V23H7.5Z" fill="#9FEAFF"/>
<path d="M1.5 23V8.5C1.5 8.36739 1.55268 8.24021 1.64645 8.14645C1.74021 8.05268 1.86739 8 2 8H4C4.13261 8 4.25979 8.05268 4.35355 8.14645C4.44732 8.24021 4.5 8.36739 4.5 8.5V23H1.5Z" fill="#9FEAFF"/>
<path d="M20 18H22C22.1326 18 22.2598 18.0527 22.3536 18.1464C22.4473 18.2402 22.5 18.3674 22.5 18.5V20.581C22.5 20.4484 22.4473 20.3212 22.3536 20.2274C22.2598 20.1337 22.1326 20.081 22 20.081H20C19.8674 20.081 19.7402 20.1337 19.6464 20.2274C19.5527 20.3212 19.5 20.4484 19.5 20.581V18.5C19.5 18.3674 19.5527 18.2402 19.6464 18.1464C19.7402 18.0527 19.8674 18 20 18Z" fill="#DFF9FF"/>
<path d="M14 13H16C16.1326 13 16.2598 13.0527 16.3536 13.1464C16.4473 13.2402 16.5 13.3674 16.5 13.5V15.581C16.5 15.4484 16.4473 15.3212 16.3536 15.2274C16.2598 15.1337 16.1326 15.081 16 15.081H14C13.8674 15.081 13.7402 15.1337 13.6464 15.2274C13.5527 15.3212 13.5 15.4484 13.5 15.581V13.5C13.5 13.3674 13.5527 13.2402 13.6464 13.1464C13.7402 13.0527 13.8674 13 14 13Z" fill="#DFF9FF"/>
<path d="M8 15H10C10.1326 15 10.2598 15.0527 10.3536 15.1464C10.4473 15.2402 10.5 15.3674 10.5 15.5V17.581C10.5 17.4484 10.4473 17.3212 10.3536 17.2274C10.2598 17.1337 10.1326 17.081 10 17.081H8C7.86739 17.081 7.74021 17.1337 7.64645 17.2274C7.55268 17.3212 7.5 17.4484 7.5 17.581V15.5C7.5 15.3674 7.55268 15.2402 7.64645 15.1464C7.74021 15.0527 7.86739 15 8 15Z" fill="#DFF9FF"/>
<path d="M2 8H4C4.13261 8 4.25979 8.05268 4.35355 8.14645C4.44732 8.24021 4.5 8.36739 4.5 8.5V10.581C4.5 10.4484 4.44732 10.3212 4.35355 10.2274C4.25979 10.1337 4.13261 10.081 4 10.081H2C1.86739 10.081 1.74021 10.1337 1.64645 10.2274C1.55268 10.3212 1.5 10.4484 1.5 10.581V8.5C1.5 8.36739 1.55268 8.24021 1.64645 8.14645C1.74021 8.05268 1.86739 8 2 8Z" fill="#DFF9FF"/>
<path d="M23.5 23H0.5" stroke="#00303E" stroke-linecap="round" stroke-linejoin="round"/>
<path d="M19.5 23V18.5C19.5 18.3674 19.5527 18.2402 19.6464 18.1464C19.7402 18.0527 19.8674 18 20 18H22C22.1326 18 22.2598 18.0527 22.3536 18.1464C22.4473 18.2402 22.5 18.3674 22.5 18.5V23H19.5Z" stroke="#00303E" stroke-linecap="round" stroke-linejoin="round"/>
<path d="M13.5 23V13.5C13.5 13.3674 13.5527 13.2402 13.6464 13.1464C13.7402 13.0527 13.8674 13 14 13H16C16.1326 13 16.2598 13.0527 16.3536 13.1464C16.4473 13.2402 16.5 13.3674 16.5 13.5V23H13.5Z" stroke="#00303E" stroke-linecap="round" stroke-linejoin="round"/>
<path d="M7.5 23V15.5C7.5 15.3674 7.55268 15.2402 7.64645 15.1464C7.74021 15.0527 7.86739 15 8 15H10C10.1326 15 10.2598 15.0527 10.3536 15.1464C10.4473 15.2402 10.5 15.3674 10.5 15.5V23H7.5Z" stroke="#00303E" stroke-linecap="round" stroke-linejoin="round"/>
<path d="M1.5 23V8.5C1.5 8.36739 1.55268 8.24021 1.64645 8.14645C1.74021 8.05268 1.86739 8 2 8H4C4.13261 8 4.25979 8.05268 4.35355 8.14645C4.44732 8.24021 4.5 8.36739 4.5 8.5V23H1.5Z" stroke="#00303E" stroke-linecap="round" stroke-linejoin="round"/>
</g>
<defs>
<clipPath id="clip0_3303_3409">
<rect width="24" height="24" fill="white"/>
</clipPath>
</defs>
</svg>
