<svg width="24" height="24" viewBox="0 0 24 24" fill="none" xmlns="http://www.w3.org/2000/svg">
<g clip-path="url(#clip0_3303_8280)">
<path d="M12 5.75C12 6.5051 12.1487 7.25281 12.4377 7.95043C12.7267 8.64805 13.1502 9.28193 13.6841 9.81586C14.2181 10.3498 14.8519 10.7733 15.5496 11.0623C16.2472 11.3513 16.9949 11.5 17.75 11.5C18.5051 11.5 19.2528 11.3513 19.9504 11.0623C20.6481 10.7733 21.2819 10.3498 21.8159 9.81586C22.3498 9.28193 22.7733 8.64805 23.0623 7.95043C23.3513 7.25281 23.5 6.5051 23.5 5.75C23.5 4.9949 23.3513 4.24719 23.0623 3.54957C22.7733 2.85195 22.3498 2.21807 21.8159 1.68414C21.2819 1.1502 20.6481 0.726657 19.9504 0.437693C19.2528 0.148728 18.5051 0 17.75 0C16.9949 0 16.2472 0.148728 15.5496 0.437693C14.8519 0.726657 14.2181 1.1502 13.6841 1.68414C13.1502 2.21807 12.7267 2.85195 12.4377 3.54957C12.1487 4.24719 12 4.9949 12 5.75Z" fill="#DFF9FF"/>
<path d="M7.10697 12.544L6.26697 13.384C4.96697 14.684 3.09697 15.534 0.696971 13.144C0.286893 10.8343 0.540013 8.45568 1.42697 6.28401C1.50427 6.09215 1.6278 5.92237 1.78656 5.78977C1.94533 5.65718 2.1344 5.56588 2.33697 5.52401C2.53878 5.48544 2.74692 5.49621 2.94367 5.55541C3.14042 5.61461 3.31995 5.72048 3.46697 5.86401L7.10697 9.50001C7.30725 9.69965 7.46616 9.93686 7.57459 10.198C7.68302 10.4592 7.73883 10.7392 7.73883 11.022C7.73883 11.3048 7.68302 11.5848 7.57459 11.846C7.46616 12.1072 7.30725 12.3444 7.10697 12.544Z" fill="#DFF9FF"/>
<path d="M18.477 21.664C18.4372 21.8686 18.3467 22.0599 18.214 22.2206C18.0812 22.3813 17.9104 22.5062 17.717 22.584C15.5428 23.4608 13.1671 23.7136 10.857 23.314C8.46701 20.904 9.31701 19.034 10.617 17.734C10.807 17.554 11.237 17.114 11.467 16.894C11.6656 16.6944 11.9017 16.536 12.1617 16.4279C12.4217 16.3198 12.7004 16.2642 12.982 16.2642C13.2636 16.2642 13.5424 16.3198 13.8024 16.4279C14.0624 16.536 14.2984 16.6944 14.497 16.894L18.137 20.534C18.2805 20.681 18.3864 20.8605 18.4456 21.0573C18.5048 21.254 18.5156 21.4622 18.477 21.664Z" fill="#DFF9FF"/>
<path d="M11.516 4.51001V0.51001H15.516" stroke="#00303E" stroke-linecap="round" stroke-linejoin="round"/>
<path d="M11.516 0.51001L17.516 6.01001V12.483" stroke="#00303E" stroke-linecap="round" stroke-linejoin="round"/>
<path d="M23.516 4.51001V0.51001H19.516" stroke="#00303E" stroke-linecap="round" stroke-linejoin="round"/>
<path d="M23.516 0.51001L19.331 4.32701" stroke="#00303E" stroke-linecap="round" stroke-linejoin="round"/>
<path d="M10.882 23.329C8.48197 20.923 9.33297 19.047 10.635 17.744L11.476 16.903C11.8783 16.5011 12.4238 16.2754 12.9925 16.2754C13.5612 16.2754 14.1066 16.5011 14.509 16.903L18.148 20.543C18.2943 20.689 18.4021 20.869 18.462 21.0668C18.5218 21.2647 18.5317 21.4743 18.4908 21.6769C18.4499 21.8795 18.3595 22.0688 18.2276 22.228C18.0957 22.3871 17.9265 22.5111 17.735 22.589C15.4557 23.5205 12.9522 23.7582 10.5384 23.2721C8.12458 22.7861 5.9081 21.598 4.16703 19.8569C2.42596 18.1159 1.23787 15.8994 0.751824 13.4856C0.26578 11.0718 0.503436 8.56821 1.43497 6.28898C1.5128 6.0975 1.63683 5.92826 1.79599 5.79638C1.95515 5.6645 2.14448 5.57407 2.34709 5.53318C2.5497 5.49228 2.75929 5.50218 2.95714 5.562C3.15499 5.62181 3.33496 5.72968 3.48097 5.87598L7.12197 9.51698C7.52403 9.91906 7.7499 10.4644 7.7499 11.033C7.7499 11.6016 7.52403 12.1469 7.12197 12.549L6.27997 13.39C4.97997 14.69 3.10197 15.544 0.695973 13.144" stroke="#00303E" stroke-linecap="round" stroke-linejoin="round"/>
</g>
<defs>
<clipPath id="clip0_3303_8280">
<rect width="24" height="24" fill="white"/>
</clipPath>
</defs>
</svg>
