<svg width="24" height="24" viewBox="0 0 24 24" fill="none" xmlns="http://www.w3.org/2000/svg">
<path d="M17.11 18.506C17.074 18.7769 16.9424 19.026 16.7388 19.2083C16.5352 19.3905 16.2732 19.494 16 19.5H8C7.72681 19.494 7.46476 19.3905 7.2612 19.2083C7.05763 19.026 6.92597 18.7769 6.89 18.506L6 10.5H18L17.11 18.506Z" fill="#9FEAFF"/>
<path d="M17.667 13.5L18 10.5H6L6.333 13.5H17.667Z" fill="#9FEAFF"/>
<path d="M17.11 18.506C17.074 18.7769 16.9424 19.026 16.7388 19.2083C16.5352 19.3905 16.2732 19.494 16 19.5H8C7.72681 19.494 7.46476 19.3905 7.2612 19.2083C7.05763 19.026 6.92597 18.7769 6.89 18.506L6 10.5H18L17.11 18.506Z" stroke="#00303E" stroke-linecap="round" stroke-linejoin="round"/>
<path d="M5 0.5H19C19 0.5 21 0.5 21 2.5V8.5C21 8.5 21 10.5 19 10.5H5C5 10.5 3 10.5 3 8.5V2.5C3 2.5 3 0.5 5 0.5Z" fill="#DFF9FF"/>
<path d="M14 19.5H10V22.5C10 22.7652 10.1054 23.0196 10.2929 23.2071C10.4804 23.3946 10.7348 23.5 11 23.5H13C13.2652 23.5 13.5196 23.3946 13.7071 23.2071C13.8946 23.0196 14 22.7652 14 22.5V19.5Z" fill="#9FEAFF"/>
<path d="M6 3.5H18V7.5H6V3.5Z" fill="#9FEAFF"/>
<path d="M18 3.5L20.414 1.086" stroke="#00303E" stroke-linecap="round" stroke-linejoin="round"/>
<path d="M18 7.5L20.414 9.913" stroke="#00303E" stroke-linecap="round" stroke-linejoin="round"/>
<path d="M6.00006 3.5L3.58606 1.086" stroke="#00303E" stroke-linecap="round" stroke-linejoin="round"/>
<path d="M6.00004 7.5L3.58704 9.913" stroke="#00303E" stroke-linecap="round" stroke-linejoin="round"/>
<path d="M12 16C12 16.3978 12.158 16.7794 12.4393 17.0607C12.7206 17.342 13.1022 17.5 13.5 17.5C13.8978 17.5 14.2794 17.342 14.5607 17.0607C14.842 16.7794 15 16.3978 15 16C15 15.6022 14.842 15.2206 14.5607 14.9393C14.2794 14.658 13.8978 14.5 13.5 14.5C13.1022 14.5 12.7206 14.658 12.4393 14.9393C12.158 15.2206 12 15.6022 12 16Z" fill="#9FEAFF"/>
<path d="M5 0.5H19C19 0.5 21 0.5 21 2.5V8.5C21 8.5 21 10.5 19 10.5H5C5 10.5 3 10.5 3 8.5V2.5C3 2.5 3 0.5 5 0.5Z" stroke="#00303E" stroke-linecap="round" stroke-linejoin="round"/>
<path d="M14 19.5H10V22.5C10 22.7652 10.1054 23.0196 10.2929 23.2071C10.4804 23.3946 10.7348 23.5 11 23.5H13C13.2652 23.5 13.5196 23.3946 13.7071 23.2071C13.8946 23.0196 14 22.7652 14 22.5V19.5Z" stroke="#00303E" stroke-linecap="round" stroke-linejoin="round"/>
<path d="M6 3.5H18V7.5H6V3.5Z" stroke="#00303E" stroke-linecap="round" stroke-linejoin="round"/>
<path d="M12 16C12 16.3978 12.158 16.7794 12.4393 17.0607C12.7206 17.342 13.1022 17.5 13.5 17.5C13.8978 17.5 14.2794 17.342 14.5607 17.0607C14.842 16.7794 15 16.3978 15 16C15 15.6022 14.842 15.2206 14.5607 14.9393C14.2794 14.658 13.8978 14.5 13.5 14.5C13.1022 14.5 12.7206 14.658 12.4393 14.9393C12.158 15.2206 12 15.6022 12 16Z" stroke="#00303E" stroke-linecap="round" stroke-linejoin="round"/>
</svg>
