<svg width="24" height="24" viewBox="0 0 24 24" fill="none" xmlns="http://www.w3.org/2000/svg">
<g clip-path="url(#clip0_3303_5110)">
<path d="M23.5 2.5V19.5H0.5V2.5C0.501583 1.97005 0.712805 1.46227 1.08753 1.08753C1.46227 0.712805 1.97005 0.501583 2.5 0.5H21.5C22.0299 0.501583 22.5377 0.712805 22.9125 1.08753C23.2872 1.46227 23.4984 1.97005 23.5 2.5Z" fill="#9FEAFF"/>
<path d="M2.5 0.5C1.97005 0.501583 1.46227 0.712805 1.08753 1.08753C0.712805 1.46227 0.501583 1.97005 0.5 2.5V19.5H4.445L22.882 1.062C22.5116 0.70254 22.0161 0.501031 21.5 0.5H2.5Z" fill="#DFF9FF"/>
<path d="M23.5 2.5V19.5H0.5V2.5C0.501583 1.97005 0.712805 1.46227 1.08753 1.08753C1.46227 0.712805 1.97005 0.501583 2.5 0.5H21.5C22.0299 0.501583 22.5377 0.712805 22.9125 1.08753C23.2872 1.46227 23.4984 1.97005 23.5 2.5Z" stroke="#00303E" stroke-linecap="round" stroke-linejoin="round"/>
<path d="M15.3051 8.97897C15.1568 8.8941 15.0039 8.81764 14.8471 8.74997C15.0039 8.6823 15.1568 8.60585 15.3051 8.52097C16.6631 7.73697 17.3831 6.43997 16.9131 5.62097C16.4431 4.80197 14.9591 4.78097 13.6001 5.56597C13.4531 5.65183 13.3108 5.74564 13.1741 5.84697C13.1936 5.67766 13.204 5.50741 13.2051 5.33697C13.2051 3.76797 12.4411 2.49597 11.5051 2.49597C10.5691 2.49597 9.80006 3.77197 9.80006 5.34097C9.80114 5.51141 9.81149 5.68166 9.83106 5.85097C9.69265 5.74948 9.54876 5.65567 9.40006 5.56997C8.04106 4.78497 6.55806 4.80997 6.08706 5.62497C5.61606 6.43997 6.33706 7.73697 7.69506 8.52497C7.8433 8.60985 7.99621 8.6863 8.15306 8.75397C7.99621 8.82164 7.8433 8.8981 7.69506 8.98297C6.33706 9.76697 5.61706 11.064 6.08706 11.883C6.55706 12.702 8.04106 12.723 9.40006 11.938C9.54706 11.8521 9.68927 11.7583 9.82606 11.657C9.80649 11.8263 9.79614 11.9965 9.79506 12.167C9.80006 13.728 10.5591 15 11.5001 15C12.4411 15 13.2051 13.728 13.2051 12.159C13.204 11.9885 13.1936 11.8183 13.1741 11.649C13.3108 11.7503 13.4531 11.8441 13.6001 11.93C14.9591 12.715 16.4421 12.69 16.9131 11.875C17.3841 11.06 16.6631 9.76297 15.3051 8.97897Z" fill="#9FEAFF"/>
<path d="M23.5 19.5V21.5C23.4984 22.0299 23.2872 22.5377 22.9125 22.9125C22.5377 23.2872 22.0299 23.4984 21.5 23.5H2.5C1.97005 23.4984 1.46227 23.2872 1.08753 22.9125C0.712805 22.5377 0.501583 22.0299 0.5 21.5V19.5H23.5Z" fill="white"/>
<path d="M11.5 8.5C11.5494 8.5 11.5978 8.51466 11.6389 8.54213C11.68 8.5696 11.712 8.60865 11.731 8.65433C11.7499 8.70001 11.7548 8.75028 11.7452 8.79877C11.7356 8.84727 11.7117 8.89181 11.6768 8.92678C11.6418 8.96174 11.5973 8.98555 11.5488 8.9952C11.5003 9.00484 11.45 8.99989 11.4043 8.98097C11.3586 8.96205 11.3196 8.93 11.2921 8.88889C11.2647 8.84778 11.25 8.79945 11.25 8.75C11.25 8.6837 11.2763 8.62011 11.3232 8.57322C11.3701 8.52634 11.4337 8.5 11.5 8.5Z" stroke="#00303E" stroke-linecap="round" stroke-linejoin="round"/>
<path d="M11.5 15V19.5" stroke="#00303E" stroke-linecap="round" stroke-linejoin="round"/>
<path d="M15.3051 8.97897C15.1568 8.8941 15.0039 8.81764 14.8471 8.74997C15.0039 8.6823 15.1568 8.60585 15.3051 8.52097C16.6631 7.73697 17.3831 6.43997 16.9131 5.62097C16.4431 4.80197 14.9591 4.78097 13.6001 5.56597C13.4531 5.65183 13.3108 5.74563 13.1741 5.84697C13.1936 5.67766 13.204 5.50741 13.2051 5.33697C13.2051 3.76797 12.4411 2.49597 11.5051 2.49597C10.5691 2.49597 9.80006 3.77197 9.80006 5.34097C9.80114 5.51141 9.81149 5.68166 9.83106 5.85097C9.69265 5.74948 9.54876 5.65567 9.40006 5.56997C8.04106 4.78497 6.55806 4.80997 6.08706 5.62497C5.61606 6.43997 6.33706 7.73697 7.69506 8.52497C7.8433 8.60984 7.99621 8.6863 8.15306 8.75397C7.99621 8.82164 7.8433 8.8981 7.69506 8.98297C6.33706 9.76697 5.61706 11.064 6.08706 11.883C6.55706 12.702 8.04106 12.723 9.40006 11.938C9.54706 11.8521 9.68927 11.7583 9.82606 11.657C9.80649 11.8263 9.79614 11.9965 9.79506 12.167C9.80006 13.728 10.5591 15 11.5001 15C12.4411 15 13.2051 13.728 13.2051 12.159C13.204 11.9885 13.1936 11.8183 13.1741 11.649C13.3108 11.7503 13.4531 11.8441 13.6001 11.93C14.9591 12.715 16.4421 12.69 16.9131 11.875C17.3841 11.06 16.6631 9.76297 15.3051 8.97897Z" stroke="#00303E" stroke-linecap="round" stroke-linejoin="round"/>
<path d="M23.5 19.5V21.5C23.4984 22.0299 23.2872 22.5377 22.9125 22.9125C22.5377 23.2872 22.0299 23.4984 21.5 23.5H2.5C1.97005 23.4984 1.46227 23.2872 1.08753 22.9125C0.712805 22.5377 0.501583 22.0299 0.5 21.5V19.5H23.5Z" stroke="#00303E" stroke-linecap="round" stroke-linejoin="round"/>
</g>
<defs>
<clipPath id="clip0_3303_5110">
<rect width="24" height="24" fill="white"/>
</clipPath>
</defs>
</svg>
