<svg width="24" height="24" viewBox="0 0 24 24" fill="none" xmlns="http://www.w3.org/2000/svg">
<path d="M23.5 8V19C23.5 19.5304 23.2893 20.0391 22.9142 20.4142C22.5391 20.7893 22.0304 21 21.5 21H2.5C1.96957 21 1.46086 20.7893 1.08579 20.4142C0.710714 20.0391 0.5 19.5304 0.5 19V8H23.5Z" fill="#9FEAFF"/>
<path d="M2.5 21H5.5L18.5 8H0.5V19C0.5 19.5304 0.710714 20.0391 1.08579 20.4142C1.46086 20.7893 1.96957 21 2.5 21Z" fill="#DFF9FF"/>
<path d="M23.5 8H0.5V5C0.5 4.46957 0.710714 3.96086 1.08579 3.58579C1.46086 3.21071 1.96957 3 2.5 3H21.5C22.0304 3 22.5391 3.21071 22.9142 3.58579C23.2893 3.96086 23.5 4.46957 23.5 5V8Z" fill="white"/>
<path d="M2.5 3H21.5C21.5 3 23.5 3 23.5 5V19C23.5 19 23.5 21 21.5 21H2.5C2.5 21 0.5 21 0.5 19V5C0.5 5 0.5 3 2.5 3Z" stroke="#00303E" stroke-linecap="round" stroke-linejoin="round"/>
<path d="M0.5 8H23.5" stroke="#00303E" stroke-linecap="round" stroke-linejoin="round"/>
<path d="M4 5.25C4.04945 5.25 4.09778 5.26466 4.13889 5.29213C4.18 5.3196 4.21205 5.35865 4.23097 5.40433C4.24989 5.45001 4.25484 5.50028 4.2452 5.54877C4.23555 5.59727 4.21174 5.64181 4.17678 5.67678C4.14181 5.71174 4.09727 5.73555 4.04877 5.7452C4.00028 5.75484 3.95001 5.74989 3.90433 5.73097C3.85865 5.71205 3.8196 5.68 3.79213 5.63889C3.76466 5.59778 3.75 5.54945 3.75 5.5C3.75 5.4337 3.77634 5.37011 3.82322 5.32322C3.87011 5.27634 3.9337 5.25 4 5.25Z" stroke="#00303E" stroke-linecap="round" stroke-linejoin="round"/>
<path d="M7 5.25C7.04945 5.25 7.09778 5.26466 7.13889 5.29213C7.18 5.3196 7.21205 5.35865 7.23097 5.40433C7.24989 5.45001 7.25484 5.50028 7.2452 5.54877C7.23555 5.59727 7.21174 5.64181 7.17678 5.67678C7.14181 5.71174 7.09727 5.73555 7.04877 5.7452C7.00028 5.75484 6.95001 5.74989 6.90433 5.73097C6.85865 5.71205 6.8196 5.68 6.79213 5.63889C6.76466 5.59778 6.75 5.54945 6.75 5.5C6.75 5.4337 6.77634 5.37011 6.82322 5.32322C6.87011 5.27634 6.9337 5.25 7 5.25Z" stroke="#00303E" stroke-linecap="round" stroke-linejoin="round"/>
<path d="M10 5.25C10.0494 5.25 10.0978 5.26466 10.1389 5.29213C10.18 5.3196 10.212 5.35865 10.231 5.40433C10.2499 5.45001 10.2548 5.50028 10.2452 5.54877C10.2356 5.59727 10.2117 5.64181 10.1768 5.67678C10.1418 5.71174 10.0973 5.73555 10.0488 5.7452C10.0003 5.75484 9.95001 5.74989 9.90433 5.73097C9.85865 5.71205 9.8196 5.68 9.79213 5.63889C9.76466 5.59778 9.75 5.54945 9.75 5.5C9.75 5.4337 9.77634 5.37011 9.82322 5.32322C9.87011 5.27634 9.9337 5.25 10 5.25Z" stroke="#00303E" stroke-linecap="round" stroke-linejoin="round"/>
<path d="M15.75 12L18.75 15L15.75 18" stroke="#00303E" stroke-linecap="round" stroke-linejoin="round"/>
<path d="M8.25 12L5.25 15L8.25 18" stroke="#00303E" stroke-linecap="round" stroke-linejoin="round"/>
<path d="M13.5 12L10.5 18" stroke="#00303E" stroke-linecap="round" stroke-linejoin="round"/>
</svg>
