<svg width="24" height="24" viewBox="0 0 24 24" fill="none" xmlns="http://www.w3.org/2000/svg">
<path d="M0.5 16V3.5C0.5 3.10218 0.658035 2.72064 0.93934 2.43934C1.22064 2.15804 1.60218 2 2 2H22C22.3978 2 22.7794 2.15804 23.0607 2.43934C23.342 2.72064 23.5 3.10218 23.5 3.5V16H0.5Z" fill="#9FEAFF"/>
<path d="M19 2H2C1.60218 2 1.22064 2.15804 0.93934 2.43934C0.658035 2.72064 0.5 3.10218 0.5 3.5V16H5L19 2Z" fill="#DFF9FF"/>
<path d="M0.5 16H23.5V18.5C23.5 18.8978 23.342 19.2794 23.0607 19.5607C22.7794 19.842 22.3978 20 22 20H2C1.60218 20 1.22064 19.842 0.93934 19.5607C0.658035 19.2794 0.5 18.8978 0.5 18.5V16Z" fill="white"/>
<path d="M5 22H19" stroke="#00303E" stroke-linecap="round" stroke-linejoin="round"/>
<path d="M11.5 20V22" stroke="#00303E" stroke-linecap="round" stroke-linejoin="round"/>
<path d="M0.5 16H23.5" stroke="#00303E" stroke-linecap="round" stroke-linejoin="round"/>
<path d="M7.5 4H8C8.13261 4 8.25979 4.05268 8.35355 4.14645C8.44732 4.24021 8.5 4.36739 8.5 4.5V8" stroke="#00303E" stroke-linecap="round" stroke-linejoin="round"/>
<path d="M7.49899 8H9.49899" stroke="#00303E" stroke-linecap="round" stroke-linejoin="round"/>
<path d="M11.5 10H12C12.1326 10 12.2598 10.0527 12.3536 10.1464C12.4473 10.2402 12.5 10.3674 12.5 10.5V14" stroke="#00303E" stroke-linecap="round" stroke-linejoin="round"/>
<path d="M11.499 14H13.499" stroke="#00303E" stroke-linecap="round" stroke-linejoin="round"/>
<path d="M19.5 10H20C20.1326 10 20.2598 10.0527 20.3536 10.1464C20.4473 10.2402 20.5 10.3674 20.5 10.5V14" stroke="#00303E" stroke-linecap="round" stroke-linejoin="round"/>
<path d="M19.499 14H21.499" stroke="#00303E" stroke-linecap="round" stroke-linejoin="round"/>
<path d="M3.5 10H4C4.13261 10 4.25979 10.0527 4.35355 10.1464C4.44732 10.2402 4.5 10.3674 4.5 10.5V14" stroke="#00303E" stroke-linecap="round" stroke-linejoin="round"/>
<path d="M3.49899 14H5.49899" stroke="#00303E" stroke-linecap="round" stroke-linejoin="round"/>
<path d="M15.5 4H16C16.1326 4 16.2598 4.05268 16.3536 4.14645C16.4473 4.24021 16.5 4.36739 16.5 4.5V8" stroke="#00303E" stroke-linecap="round" stroke-linejoin="round"/>
<path d="M15.499 8H17.499" stroke="#00303E" stroke-linecap="round" stroke-linejoin="round"/>
<path d="M19.5 4H20C20.1326 4 20.2598 4.05268 20.3536 4.14645C20.4473 4.24021 20.5 4.36739 20.5 4.5V8" stroke="#00303E" stroke-linecap="round" stroke-linejoin="round"/>
<path d="M19.499 8H21.499" stroke="#00303E" stroke-linecap="round" stroke-linejoin="round"/>
<path d="M5.5 7C5.5 7.26522 5.39464 7.51957 5.20711 7.70711C5.01957 7.89464 4.76522 8 4.5 8C4.23478 8 3.98043 7.89464 3.79289 7.70711C3.60536 7.51957 3.5 7.26522 3.5 7V5C3.5 4.73478 3.60536 4.48043 3.79289 4.29289C3.98043 4.10536 4.23478 4 4.5 4C4.76522 4 5.01957 4.10536 5.20711 4.29289C5.39464 4.48043 5.5 4.73478 5.5 5V7Z" stroke="#00303E" stroke-linecap="round" stroke-linejoin="round"/>
<path d="M9.5 13C9.5 13.2652 9.39464 13.5196 9.20711 13.7071C9.01957 13.8946 8.76522 14 8.5 14C8.23478 14 7.98043 13.8946 7.79289 13.7071C7.60536 13.5196 7.5 13.2652 7.5 13V11C7.5 10.7348 7.60536 10.4804 7.79289 10.2929C7.98043 10.1054 8.23478 10 8.5 10C8.76522 10 9.01957 10.1054 9.20711 10.2929C9.39464 10.4804 9.5 10.7348 9.5 11V13Z" stroke="#00303E" stroke-linecap="round" stroke-linejoin="round"/>
<path d="M17.5 13C17.5 13.2652 17.3946 13.5196 17.2071 13.7071C17.0196 13.8946 16.7652 14 16.5 14C16.2348 14 15.9804 13.8946 15.7929 13.7071C15.6054 13.5196 15.5 13.2652 15.5 13V11C15.5 10.7348 15.6054 10.4804 15.7929 10.2929C15.9804 10.1054 16.2348 10 16.5 10C16.7652 10 17.0196 10.1054 17.2071 10.2929C17.3946 10.4804 17.5 10.7348 17.5 11V13Z" stroke="#00303E" stroke-linecap="round" stroke-linejoin="round"/>
<path d="M13.5 7C13.5 7.26522 13.3946 7.51957 13.2071 7.70711C13.0196 7.89464 12.7652 8 12.5 8C12.2348 8 11.9804 7.89464 11.7929 7.70711C11.6054 7.51957 11.5 7.26522 11.5 7V5C11.5 4.73478 11.6054 4.48043 11.7929 4.29289C11.9804 4.10536 12.2348 4 12.5 4C12.7652 4 13.0196 4.10536 13.2071 4.29289C13.3946 4.48043 13.5 4.73478 13.5 5V7Z" stroke="#00303E" stroke-linecap="round" stroke-linejoin="round"/>
<path d="M2 2H22C22 2 23.5 2 23.5 3.5V18.5C23.5 18.5 23.5 20 22 20H2C2 20 0.5 20 0.5 18.5V3.5C0.5 3.5 0.5 2 2 2Z" stroke="#00303E" stroke-linecap="round" stroke-linejoin="round"/>
</svg>
