<svg width="24" height="24" viewBox="0 0 24 24" fill="none" xmlns="http://www.w3.org/2000/svg">
<path d="M6 6.5C6 8.22391 6.68482 9.87721 7.90381 11.0962C9.12279 12.3152 10.7761 13 12.5 13C14.2239 13 15.8772 12.3152 17.0962 11.0962C18.3152 9.87721 19 8.22391 19 6.5C19 4.77609 18.3152 3.12279 17.0962 1.90381C15.8772 0.684819 14.2239 0 12.5 0C10.7761 0 9.12279 0.684819 7.90381 1.90381C6.68482 3.12279 6 4.77609 6 6.5Z" fill="#DFF9FF"/>
<path d="M7.243 16.866L6.1 15.154C5.94823 14.8981 5.71888 14.6972 5.44521 14.5804C5.17155 14.4636 4.8678 14.4371 4.57803 14.5047C4.28826 14.5722 4.02755 14.7303 3.8337 14.956C3.63986 15.1817 3.52298 15.4634 3.5 15.76V15.75V12C3.5 11.6022 3.34196 11.2206 3.06066 10.9393C2.77936 10.658 2.39782 10.5 2 10.5C1.60218 10.5 1.22064 10.658 0.93934 10.9393C0.658035 11.2206 0.5 11.6022 0.5 12V17.172C0.500003 18.1938 0.847733 19.1851 1.486 19.983L3.5 22.5H8V19.364C8.00042 18.4748 7.73697 17.6054 7.243 16.866Z" fill="#DFF9FF"/>
<path d="M22 10.5C21.6022 10.5 21.2207 10.658 20.9393 10.9393C20.658 11.2207 20.5 11.6022 20.5 12V15.75V15.76C20.4828 15.5495 20.4182 15.3456 20.311 15.1636C20.2038 14.9815 20.0568 14.8261 19.881 14.709C19.7233 14.6039 19.546 14.532 19.3597 14.4975C19.1734 14.4629 18.9821 14.4666 18.7972 14.5082C18.6124 14.5498 18.4379 14.6285 18.2844 14.7395C18.1309 14.8505 18.0014 14.9915 17.904 15.154L16.762 16.866C16.2677 17.606 16.0042 18.4761 16.005 19.366V22.5H20.505L22.519 19.983C23.1573 19.1851 23.505 18.1938 23.505 17.172V12C23.505 11.8026 23.466 11.6071 23.3904 11.4248C23.3147 11.2425 23.2037 11.0769 23.0639 10.9376C22.9241 10.7982 22.7581 10.6878 22.5756 10.6128C22.393 10.5377 22.1974 10.4994 22 10.5Z" fill="#DFF9FF"/>
<path d="M3.5 22.5L1.486 19.983C0.847519 19.1848 0.499776 18.1931 0.5 17.171V12C0.5 11.6022 0.658035 11.2206 0.93934 10.9393C1.22064 10.658 1.60218 10.5 2 10.5C2.39782 10.5 2.77936 10.658 3.06066 10.9393C3.34196 11.2206 3.5 11.6022 3.5 12V15.75" stroke="#00303E" stroke-linecap="round" stroke-linejoin="round"/>
<path d="M8 22.5V19.364C8.00082 18.4741 7.73735 17.604 7.243 16.864L6.1 15.154C6.00256 14.9915 5.87315 14.8505 5.71962 14.7395C5.56608 14.6285 5.39162 14.5498 5.20678 14.5082C5.02194 14.4666 4.83059 14.4629 4.6443 14.4974C4.45801 14.5319 4.28066 14.6039 4.123 14.709C3.83918 14.8983 3.63428 15.1849 3.54682 15.5147C3.45935 15.8444 3.49533 16.1948 3.648 16.5L5 18.75" stroke="#00303E" stroke-linecap="round" stroke-linejoin="round"/>
<path d="M20.5 22.5L22.514 19.983C23.1525 19.1848 23.5002 18.1931 23.5 17.171V12C23.5 11.6022 23.342 11.2206 23.0607 10.9393C22.7794 10.658 22.3978 10.5 22 10.5C21.6022 10.5 21.2206 10.658 20.9393 10.9393C20.658 11.2206 20.5 11.6022 20.5 12V15.75" stroke="#00303E" stroke-linecap="round" stroke-linejoin="round"/>
<path d="M16 22.5V19.364C15.9992 18.4741 16.2627 17.604 16.757 16.864L17.9 15.154C17.9974 14.9915 18.1268 14.8505 18.2804 14.7395C18.4339 14.6285 18.6084 14.5498 18.7932 14.5082C18.9781 14.4666 19.1694 14.4629 19.3557 14.4974C19.542 14.5319 19.7193 14.6039 19.877 14.709C20.161 14.8982 20.3661 15.1846 20.4537 15.5144C20.5414 15.8443 20.5056 16.1947 20.353 16.5L19 18.75" stroke="#00303E" stroke-linecap="round" stroke-linejoin="round"/>
<path d="M16.5 2L20.5 6L16.5 10" stroke="#00303E" stroke-linecap="round" stroke-linejoin="round"/>
<path d="M8.5 2L4.5 6L8.5 10" stroke="#00303E" stroke-linecap="round" stroke-linejoin="round"/>
<path d="M13.5 1.5L11.5 10.5" stroke="#00303E" stroke-linecap="round" stroke-linejoin="round"/>
</svg>
