<svg width="24" height="24" viewBox="0 0 24 24" fill="none" xmlns="http://www.w3.org/2000/svg">
<g clip-path="url(#clip0_3303_6208)">
<path d="M23.542 20.5C23.287 19.5 22.7062 18.6135 21.8914 17.9804C21.0765 17.3472 20.0739 17.0035 19.042 17.0035C18.01 17.0035 17.0075 17.3472 16.1926 17.9804C15.3778 18.6135 14.797 19.5 14.542 20.5H23.542Z" fill="#9FEAFF"/>
<path d="M9.54199 20.5C9.28701 19.5 8.70623 18.6135 7.89136 17.9804C7.07649 17.3472 6.07394 17.0035 5.04199 17.0035C4.01005 17.0035 3.0075 17.3472 2.19262 17.9804C1.37775 18.6135 0.796976 19.5 0.541992 20.5H9.54199Z" fill="#9FEAFF"/>
<path d="M6.54199 8.5C6.54199 8.76522 6.64735 9.01957 6.83489 9.20711C7.02242 9.39464 7.27678 9.5 7.54199 9.5H8.54199L11.542 12.5V9.5H18.542C18.8072 9.5 19.0616 9.39464 19.2491 9.20711C19.4366 9.01957 19.542 8.76522 19.542 8.5V1.5C19.542 1.23478 19.4366 0.98043 19.2491 0.792893C19.0616 0.605357 18.8072 0.5 18.542 0.5H7.54199C7.27678 0.5 7.02242 0.605357 6.83489 0.792893C6.64735 0.98043 6.54199 1.23478 6.54199 1.5V8.5Z" fill="#9FEAFF"/>
<path d="M7.54199 9.5H8.49999L17.5 0.5H7.54199C7.27678 0.5 7.02242 0.605357 6.83489 0.792893C6.64735 0.98043 6.54199 1.23478 6.54199 1.5V8.5C6.54199 8.76522 6.64735 9.01957 6.83489 9.20711C7.02242 9.39464 7.27678 9.5 7.54199 9.5Z" fill="#DFF9FF"/>
<path d="M6.54199 8.5C6.54199 8.76522 6.64735 9.01957 6.83489 9.20711C7.02242 9.39464 7.27678 9.5 7.54199 9.5H8.54199L11.542 12.5V9.5H18.542C18.8072 9.5 19.0616 9.39464 19.2491 9.20711C19.4366 9.01957 19.542 8.76522 19.542 8.5V1.5C19.542 1.23478 19.4366 0.98043 19.2491 0.792893C19.0616 0.605357 18.8072 0.5 18.542 0.5H7.54199C7.27678 0.5 7.02242 0.605357 6.83489 0.792893C6.64735 0.98043 6.54199 1.23478 6.54199 1.5V8.5Z" stroke="#00303E" stroke-linecap="round" stroke-linejoin="round"/>
<path d="M2.79199 13.75C2.79199 14.3467 3.02905 14.919 3.451 15.341C3.87296 15.7629 4.44525 16 5.04199 16C5.63873 16 6.21103 15.7629 6.63298 15.341C7.05494 14.919 7.29199 14.3467 7.29199 13.75C7.29199 13.1533 7.05494 12.581 6.63298 12.159C6.21103 11.7371 5.63873 11.5 5.04199 11.5C4.44525 11.5 3.87296 11.7371 3.451 12.159C3.02905 12.581 2.79199 13.1533 2.79199 13.75Z" fill="#9FEAFF" stroke="#00303E" stroke-linecap="round" stroke-linejoin="round"/>
<path d="M8.20999 18.27C7.62308 17.7164 6.90173 17.3257 6.11738 17.1366C5.33303 16.9474 4.51289 16.9665 3.73816 17.1918C2.96343 17.4171 2.26099 17.8408 1.70039 18.4211C1.13979 19.0014 0.740476 19.718 0.541992 20.5H6.54199" stroke="#00303E" stroke-linecap="round" stroke-linejoin="round"/>
<path d="M16.792 13.75C16.792 14.3467 17.029 14.919 17.451 15.341C17.873 15.7629 18.4453 16 19.042 16C19.6387 16 20.211 15.7629 20.633 15.341C21.0549 14.919 21.292 14.3467 21.292 13.75C21.292 13.1533 21.0549 12.581 20.633 12.159C20.211 11.7371 19.6387 11.5 19.042 11.5C18.4453 11.5 17.873 11.7371 17.451 12.159C17.029 12.581 16.792 13.1533 16.792 13.75Z" fill="#9FEAFF" stroke="#00303E" stroke-linecap="round" stroke-linejoin="round"/>
<path d="M15.873 18.27C16.46 17.7164 17.1814 17.3257 17.9658 17.1367C18.7502 16.9476 19.5704 16.9666 20.3452 17.1919C21.12 17.4172 21.8225 17.8409 22.3832 18.4211C22.9439 19.0014 23.3433 19.718 23.542 20.5H17.542" stroke="#00303E" stroke-linecap="round" stroke-linejoin="round"/>
<path d="M9.79199 16.75C9.79199 17.3467 10.029 17.919 10.451 18.341C10.873 18.7629 11.4453 19 12.042 19C12.6387 19 13.211 18.7629 13.633 18.341C14.0549 17.919 14.292 17.3467 14.292 16.75C14.292 16.1533 14.0549 15.581 13.633 15.159C13.211 14.7371 12.6387 14.5 12.042 14.5C11.4453 14.5 10.873 14.7371 10.451 15.159C10.029 15.581 9.79199 16.1533 9.79199 16.75Z" fill="#9FEAFF" stroke="#00303E" stroke-linecap="round" stroke-linejoin="round"/>
<path d="M16.542 23.5C16.287 22.5 15.7062 21.6135 14.8914 20.9804C14.0765 20.3472 13.0739 20.0035 12.042 20.0035C11.01 20.0035 10.0075 20.3472 9.19263 20.9804C8.37775 21.6135 7.79698 22.5 7.54199 23.5H16.542Z" fill="#9FEAFF" stroke="#00303E" stroke-linecap="round" stroke-linejoin="round"/>
<path d="M15.542 3L17.542 5L15.542 7" stroke="#00303E" stroke-linecap="round" stroke-linejoin="round"/>
<path d="M10.542 3L8.54199 5L10.542 7" stroke="#00303E" stroke-linecap="round" stroke-linejoin="round"/>
<path d="M14.042 3L12.042 7" stroke="#00303E" stroke-linecap="round" stroke-linejoin="round"/>
</g>
<defs>
<clipPath id="clip0_3303_6208">
<rect width="24" height="24" fill="white"/>
</clipPath>
</defs>
</svg>
