<svg width="24" height="24" viewBox="0 0 24 24" fill="none" xmlns="http://www.w3.org/2000/svg">
<g clip-path="url(#clip0_3303_9388)">
<path d="M23.5 10.5V13.5H0.5V10.5C0.501583 9.97005 0.712805 9.46227 1.08753 9.08753C1.46227 8.7128 1.97005 8.50158 2.5 8.5H21.5C22.0299 8.50158 22.5377 8.7128 22.9125 9.08753C23.2872 9.46227 23.4984 9.97005 23.5 10.5Z" fill="#9FEAFF"/>
<path d="M21.5 8.5H2.5C1.97005 8.50158 1.46227 8.7128 1.08753 9.08753C0.712805 9.46227 0.501583 9.97005 0.5 10.5V12.827C0.501583 12.2971 0.712805 11.7893 1.08753 11.4145C1.46227 11.0398 1.97005 10.8286 2.5 10.827H21.5C22.0299 10.8286 22.5377 11.0398 22.9125 11.4145C23.2872 11.7893 23.4984 12.2971 23.5 12.827V10.5C23.4984 9.97005 23.2872 9.46227 22.9125 9.08753C22.5377 8.7128 22.0299 8.50158 21.5 8.5Z" fill="#DFF9FF"/>
<path d="M2.5 8.5L19.5 4.5" stroke="#00303E" stroke-linecap="round" stroke-linejoin="round"/>
<path d="M23.5 13.5V21.5C23.4984 22.0299 23.2872 22.5377 22.9125 22.9125C22.5377 23.2872 22.0299 23.4984 21.5 23.5H2.5C1.97005 23.4984 1.46227 23.2872 1.08753 22.9125C0.712805 22.5377 0.501583 22.0299 0.5 21.5V13.5H23.5Z" fill="#DFF9FF"/>
<path d="M4 10.75C4.04945 10.75 4.09778 10.7647 4.13889 10.7921C4.18 10.8196 4.21205 10.8586 4.23097 10.9043C4.24989 10.95 4.25484 11.0003 4.2452 11.0488C4.23555 11.0973 4.21174 11.1418 4.17678 11.1768C4.14181 11.2117 4.09727 11.2356 4.04877 11.2452C4.00028 11.2548 3.95001 11.2499 3.90433 11.231C3.85865 11.212 3.8196 11.18 3.79213 11.1389C3.76466 11.0978 3.75 11.0494 3.75 11C3.75 10.9337 3.77634 10.8701 3.82322 10.8232C3.87011 10.7763 3.9337 10.75 4 10.75Z" stroke="#00303E" stroke-linecap="round" stroke-linejoin="round"/>
<path d="M20 10.75C20.0494 10.75 20.0978 10.7647 20.1389 10.7921C20.18 10.8196 20.212 10.8586 20.231 10.9043C20.2499 10.95 20.2548 11.0003 20.2452 11.0488C20.2355 11.0973 20.2117 11.1418 20.1768 11.1768C20.1418 11.2117 20.0973 11.2356 20.0488 11.2452C20.0003 11.2548 19.95 11.2499 19.9043 11.231C19.8586 11.212 19.8196 11.18 19.7921 11.1389C19.7647 11.0978 19.75 11.0494 19.75 11C19.75 10.9337 19.7763 10.8701 19.8232 10.8232C19.8701 10.7763 19.9337 10.75 20 10.75Z" stroke="#00303E" stroke-linecap="round" stroke-linejoin="round"/>
<path d="M6.5 11.5H7.5" stroke="#00303E" stroke-linecap="round" stroke-linejoin="round"/>
<path d="M16.5 11.5H17.5" stroke="#00303E" stroke-linecap="round" stroke-linejoin="round"/>
<path d="M9.5 11.5H14.5" stroke="#00303E" stroke-linecap="round" stroke-linejoin="round"/>
<path d="M2.5 18.5C2.5 18.894 2.5776 19.2841 2.72836 19.6481C2.87913 20.012 3.1001 20.3427 3.37868 20.6213C3.65726 20.8999 3.98797 21.1209 4.35195 21.2716C4.71593 21.4224 5.10603 21.5 5.5 21.5C5.89397 21.5 6.28407 21.4224 6.64805 21.2716C7.01203 21.1209 7.34274 20.8999 7.62132 20.6213C7.8999 20.3427 8.12087 20.012 8.27164 19.6481C8.4224 19.2841 8.5 18.894 8.5 18.5C8.5 18.106 8.4224 17.7159 8.27164 17.3519C8.12087 16.988 7.8999 16.6573 7.62132 16.3787C7.34274 16.1001 7.01203 15.8791 6.64805 15.7284C6.28407 15.5776 5.89397 15.5 5.5 15.5C5.10603 15.5 4.71593 15.5776 4.35195 15.7284C3.98797 15.8791 3.65726 16.1001 3.37868 16.3787C3.1001 16.6573 2.87913 16.988 2.72836 17.3519C2.5776 17.7159 2.5 18.106 2.5 18.5Z" fill="#9FEAFF"/>
<path d="M9.5 15.5H21.5" stroke="#00303E" stroke-linecap="round" stroke-linejoin="round"/>
<path d="M9.5 21.5H21.5" stroke="#00303E" stroke-linecap="round" stroke-linejoin="round"/>
<path d="M10.5 17.5H21.5" stroke="#00303E" stroke-linecap="round" stroke-linejoin="round"/>
<path d="M10.5 19.5H21.5" stroke="#00303E" stroke-linecap="round" stroke-linejoin="round"/>
<path d="M0.5 10.5V4.5C0.5 3.70435 0.81607 2.94129 1.37868 2.37868C1.94129 1.81607 2.70435 1.5 3.5 1.5" stroke="#00303E" stroke-linecap="round" stroke-linejoin="round"/>
<path d="M20.5 1.5C20.5 1.76522 20.3946 2.01957 20.2071 2.20711C20.0196 2.39464 19.7652 2.5 19.5 2.5H4.5C4.23478 2.5 3.98043 2.39464 3.79289 2.20711C3.60536 2.01957 3.5 1.76522 3.5 1.5C3.5 1.23478 3.60536 0.98043 3.79289 0.792893C3.98043 0.605357 4.23478 0.5 4.5 0.5H19.5C19.7652 0.5 20.0196 0.605357 20.2071 0.792893C20.3946 0.98043 20.5 1.23478 20.5 1.5Z" fill="#9FEAFF"/>
<path d="M20.5 1.5C21.2956 1.5 22.0587 1.81607 22.6213 2.37868C23.1839 2.94129 23.5 3.70435 23.5 4.5V10.5" stroke="#00303E" stroke-linecap="round" stroke-linejoin="round"/>
<path d="M23.5 10.5V13.5H0.5V10.5C0.501583 9.97005 0.712805 9.46227 1.08753 9.08753C1.46227 8.7128 1.97005 8.50158 2.5 8.5H21.5C22.0299 8.50158 22.5377 8.7128 22.9125 9.08753C23.2872 9.46227 23.4984 9.97005 23.5 10.5Z" stroke="#00303E" stroke-linecap="round" stroke-linejoin="round"/>
<path d="M23.5 13.5V21.5C23.4984 22.0299 23.2872 22.5377 22.9125 22.9125C22.5377 23.2872 22.0299 23.4984 21.5 23.5H2.5C1.97005 23.4984 1.46227 23.2872 1.08753 22.9125C0.712805 22.5377 0.501583 22.0299 0.5 21.5V13.5H23.5Z" stroke="#00303E" stroke-linecap="round" stroke-linejoin="round"/>
<path d="M2.5 18.5C2.5 18.894 2.5776 19.2841 2.72836 19.6481C2.87913 20.012 3.1001 20.3427 3.37868 20.6213C3.65726 20.8999 3.98797 21.1209 4.35195 21.2716C4.71593 21.4224 5.10603 21.5 5.5 21.5C5.89397 21.5 6.28407 21.4224 6.64805 21.2716C7.01203 21.1209 7.34274 20.8999 7.62132 20.6213C7.8999 20.3427 8.12087 20.012 8.27164 19.6481C8.4224 19.2841 8.5 18.894 8.5 18.5C8.5 18.106 8.4224 17.7159 8.27164 17.3519C8.12087 16.988 7.8999 16.6573 7.62132 16.3787C7.34274 16.1001 7.01203 15.8791 6.64805 15.7284C6.28407 15.5776 5.89397 15.5 5.5 15.5C5.10603 15.5 4.71593 15.5776 4.35195 15.7284C3.98797 15.8791 3.65726 16.1001 3.37868 16.3787C3.1001 16.6573 2.87913 16.988 2.72836 17.3519C2.5776 17.7159 2.5 18.106 2.5 18.5Z" stroke="#00303E" stroke-linecap="round" stroke-linejoin="round"/>
<path d="M20.5 1.5C20.5 1.76522 20.3946 2.01957 20.2071 2.20711C20.0196 2.39464 19.7652 2.5 19.5 2.5H4.5C4.23478 2.5 3.98043 2.39464 3.79289 2.20711C3.60536 2.01957 3.5 1.76522 3.5 1.5C3.5 1.23478 3.60536 0.98043 3.79289 0.792893C3.98043 0.605357 4.23478 0.5 4.5 0.5H19.5C19.7652 0.5 20.0196 0.605357 20.2071 0.792893C20.3946 0.98043 20.5 1.23478 20.5 1.5Z" stroke="#00303E" stroke-linecap="round" stroke-linejoin="round"/>
</g>
<defs>
<clipPath id="clip0_3303_9388">
<rect width="24" height="24" fill="white"/>
</clipPath>
</defs>
</svg>
