<svg width="24" height="24" viewBox="0 0 24 24" fill="none" xmlns="http://www.w3.org/2000/svg">
<g clip-path="url(#clip0_3303_2376)">
<path d="M0.5 11.999C0.5 13.5092 0.797456 15.0046 1.37539 16.3999C1.95331 17.7951 2.8004 19.0628 3.86827 20.1307C4.93615 21.1986 6.2039 22.0457 7.59914 22.6236C8.99438 23.2015 10.4898 23.499 12 23.499C13.5102 23.499 15.0056 23.2015 16.4009 22.6236C17.7961 22.0457 19.0639 21.1986 20.1317 20.1307C21.1996 19.0628 22.0467 17.7951 22.6246 16.3999C23.2025 15.0046 23.5 13.5092 23.5 11.999C23.5 10.4888 23.2025 8.99338 22.6246 7.59813C22.0467 6.20289 21.1996 4.93514 20.1317 3.86726C19.0639 2.79939 17.7961 1.95231 16.4009 1.37438C15.0056 0.796449 13.5102 0.498993 12 0.498993C10.4898 0.498993 8.99438 0.796449 7.59914 1.37438C6.2039 1.95231 4.93615 2.79939 3.86827 3.86726C2.8004 4.93514 1.95331 6.20289 1.37539 7.59813C0.797456 8.99338 0.5 10.4888 0.5 11.999Z" fill="#9FEAFF"/>
<path d="M12 23.5C8.95001 23.5 6.02494 22.2884 3.86827 20.1317C1.7116 17.9751 0.5 15.05 0.5 12C0.5 8.95001 1.7116 6.02494 3.86827 3.86827C6.02494 1.7116 8.95001 0.5 12 0.5V23.5Z" fill="#DFF9FF"/>
<path d="M0.5 11.999C0.5 13.5092 0.797456 15.0046 1.37539 16.3999C1.95331 17.7951 2.8004 19.0628 3.86827 20.1307C4.93615 21.1986 6.2039 22.0457 7.59914 22.6236C8.99438 23.2015 10.4898 23.499 12 23.499C13.5102 23.499 15.0056 23.2015 16.4009 22.6236C17.7961 22.0457 19.0639 21.1986 20.1317 20.1307C21.1996 19.0628 22.0467 17.7951 22.6246 16.3999C23.2025 15.0046 23.5 13.5092 23.5 11.999C23.5 10.4888 23.2025 8.99338 22.6246 7.59813C22.0467 6.20289 21.1996 4.93514 20.1317 3.86726C19.0639 2.79939 17.7961 1.95231 16.4009 1.37438C15.0056 0.796449 13.5102 0.498993 12 0.498993C10.4898 0.498993 8.99438 0.796449 7.59914 1.37438C6.2039 1.95231 4.93615 2.79939 3.86827 3.86726C2.8004 4.93514 1.95331 6.20289 1.37539 7.59813C0.797456 8.99338 0.5 10.4888 0.5 11.999Z" stroke="#00303E" stroke-linecap="round" stroke-linejoin="round"/>
<path d="M7 16.999L17 6.99899" stroke="#00303E" stroke-linecap="round" stroke-linejoin="round"/>
<path d="M17 16.999L7 6.99899" stroke="#00303E" stroke-linecap="round" stroke-linejoin="round"/>
</g>
<defs>
<clipPath id="clip0_3303_2376">
<rect width="24" height="24" fill="white"/>
</clipPath>
</defs>
</svg>
