<svg width="24" height="24" viewBox="0 0 24 24" fill="none" xmlns="http://www.w3.org/2000/svg">
<g clip-path="url(#clip0_3303_6282)">
<path d="M0.5 10.5V21.5C0.5 22.0304 0.710714 22.5391 1.08579 22.9142C1.46086 23.2893 1.96957 23.5 2.5 23.5H19.5C20.0304 23.5 20.5391 23.2893 20.9142 22.9142C21.2893 22.5391 21.5 22.0304 21.5 21.5V10.5H0.5Z" fill="#9FEAFF"/>
<path d="M4.5 23.5L17.5 10.5H0.5V21.5C0.5 22.0304 0.710714 22.5391 1.08579 22.9142C1.46086 23.2893 1.96957 23.5 2.5 23.5H4.5Z" fill="#DFF9FF"/>
<path d="M0.5 10.5H21.5V7.5C21.5 6.96957 21.2893 6.46086 20.9142 6.08579C20.5391 5.71071 20.0304 5.5 19.5 5.5H2.5C1.96957 5.5 1.46086 5.71071 1.08579 6.08579C0.710714 6.46086 0.5 6.96957 0.5 7.5V10.5Z" fill="white"/>
<path d="M21.5 13.5V21.5C21.5 22.0304 21.2893 22.5391 20.9142 22.9142C20.5391 23.2893 20.0304 23.5 19.5 23.5H2.5C1.96957 23.5 1.46086 23.2893 1.08579 22.9142C0.710714 22.5391 0.5 22.0304 0.5 21.5V7.5C0.5 6.96957 0.710714 6.46086 1.08579 6.08579C1.46086 5.71071 1.96957 5.5 2.5 5.5H14.5" stroke="#00303E" stroke-linecap="round" stroke-linejoin="round"/>
<path d="M0.5 10.5H14.5" stroke="#00303E" stroke-linecap="round" stroke-linejoin="round"/>
<path d="M4.25 7.5C4.29945 7.5 4.34778 7.51466 4.38889 7.54213C4.43 7.5696 4.46205 7.60865 4.48097 7.65433C4.49989 7.70001 4.50484 7.75028 4.4952 7.79877C4.48555 7.84727 4.46174 7.89181 4.42678 7.92678C4.39181 7.96174 4.34727 7.98555 4.29877 7.9952C4.25028 8.00484 4.20001 7.99989 4.15433 7.98097C4.10865 7.96205 4.0696 7.93 4.04213 7.88889C4.01466 7.84778 4 7.79945 4 7.75C4 7.6837 4.02634 7.62011 4.07322 7.57322C4.12011 7.52634 4.1837 7.5 4.25 7.5Z" stroke="#00303E" stroke-linecap="round" stroke-linejoin="round"/>
<path d="M7.25 7.5C7.29945 7.5 7.34778 7.51466 7.38889 7.54213C7.43 7.5696 7.46205 7.60865 7.48097 7.65433C7.49989 7.70001 7.50484 7.75028 7.4952 7.79877C7.48555 7.84727 7.46174 7.89181 7.42678 7.92678C7.39181 7.96174 7.34727 7.98555 7.29877 7.9952C7.25028 8.00484 7.20001 7.99989 7.15433 7.98097C7.10865 7.96205 7.0696 7.93 7.04213 7.88889C7.01466 7.84778 7 7.79945 7 7.75C7 7.6837 7.02634 7.62011 7.07322 7.57322C7.12011 7.52634 7.1837 7.5 7.25 7.5Z" stroke="#00303E" stroke-linecap="round" stroke-linejoin="round"/>
<path d="M10.25 7.5C10.2994 7.5 10.3478 7.51466 10.3889 7.54213C10.43 7.5696 10.462 7.60865 10.481 7.65433C10.4999 7.70001 10.5048 7.75028 10.4952 7.79877C10.4856 7.84727 10.4617 7.89181 10.4268 7.92678C10.3918 7.96174 10.3473 7.98555 10.2988 7.9952C10.2503 8.00484 10.2 7.99989 10.1543 7.98097C10.1086 7.96205 10.0696 7.93 10.0421 7.88889C10.0147 7.84778 10 7.79945 10 7.75C10 7.6837 10.0263 7.62011 10.0732 7.57322C10.1201 7.52634 10.1837 7.5 10.25 7.5Z" stroke="#00303E" stroke-linecap="round" stroke-linejoin="round"/>
<path d="M17.5 0.5H22.5C22.5 0.5 23.5 0.5 23.5 1.5V10.5C23.5 10.5 23.5 11.5 22.5 11.5H17.5C17.5 11.5 16.5 11.5 16.5 10.5V1.5C16.5 1.5 16.5 0.5 17.5 0.5Z" fill="white"/>
<path d="M16.5 2.5H23.5V9.5H16.5V2.5Z" fill="#9FEAFF"/>
<path d="M16.5 9.5V2.5H23.5L16.5 9.5Z" fill="#DFF9FF"/>
<path d="M16 21.5L13.435 15.087C13.3987 14.9959 13.3364 14.9175 13.2558 14.8615C13.1752 14.8055 13.08 14.7745 12.9819 14.7723C12.8839 14.77 12.7873 14.7967 12.7043 14.8489C12.6213 14.9011 12.5554 14.9766 12.515 15.066L10.5 19.5L8.451 17.041C8.3999 16.9797 8.33485 16.9315 8.2613 16.9004C8.18774 16.8694 8.10783 16.8564 8.02823 16.8626C7.94863 16.8687 7.87167 16.8939 7.80378 16.9359C7.73589 16.9779 7.67904 17.0355 7.638 17.104L5 21.5H16Z" fill="#9FEAFF" stroke="#00303E" stroke-linecap="round" stroke-linejoin="round"/>
<path d="M3 14C3 14.3978 3.15804 14.7794 3.43934 15.0607C3.72064 15.342 4.10218 15.5 4.5 15.5C4.89782 15.5 5.27936 15.342 5.56066 15.0607C5.84196 14.7794 6 14.3978 6 14C6 13.6022 5.84196 13.2206 5.56066 12.9393C5.27936 12.658 4.89782 12.5 4.5 12.5C4.10218 12.5 3.72064 12.658 3.43934 12.9393C3.15804 13.2206 3 13.6022 3 14Z" fill="#9FEAFF" stroke="#00303E" stroke-linecap="round" stroke-linejoin="round"/>
<path d="M17.5 0.5H22.5C22.5 0.5 23.5 0.5 23.5 1.5V10.5C23.5 10.5 23.5 11.5 22.5 11.5H17.5C17.5 11.5 16.5 11.5 16.5 10.5V1.5C16.5 1.5 16.5 0.5 17.5 0.5Z" stroke="#00303E" stroke-linecap="round" stroke-linejoin="round"/>
<path d="M16.5 9.5H23.5" stroke="#00303E" stroke-linecap="round" stroke-linejoin="round"/>
<path d="M16.5 2.5H23.5" stroke="#00303E" stroke-linecap="round" stroke-linejoin="round"/>
</g>
<defs>
<clipPath id="clip0_3303_6282">
<rect width="24" height="24" fill="white"/>
</clipPath>
</defs>
</svg>
