<svg width="24" height="24" viewBox="0 0 24 24" fill="none" xmlns="http://www.w3.org/2000/svg">
<g clip-path="url(#clip0_3303_5197)">
<path d="M22.426 15.488C22.1179 16.3981 21.6959 17.2657 21.17 18.07" stroke="#00303E" stroke-linecap="round" stroke-linejoin="round"/>
<path d="M18.382 20.948C17.6033 21.5105 16.751 21.9634 15.849 22.294" stroke="#00303E" stroke-linecap="round" stroke-linejoin="round"/>
<path d="M11.9 23C10.9397 22.9898 9.98474 22.8553 9.05896 22.6" stroke="#00303E" stroke-linecap="round" stroke-linejoin="round"/>
<path d="M5.46402 20.833C4.69107 20.2639 3.99702 19.5947 3.40002 18.843" stroke="#00303E" stroke-linecap="round" stroke-linejoin="round"/>
<path d="M1.50805 15.308C1.22606 14.3897 1.06339 13.4389 1.02405 12.479" stroke="#00303E" stroke-linecap="round" stroke-linejoin="round"/>
<path d="M1.57397 8.51199C1.88215 7.60183 2.30416 6.73428 2.82997 5.92999" stroke="#00303E" stroke-linecap="round" stroke-linejoin="round"/>
<path d="M5.61804 3.05199C6.39679 2.4895 7.24908 2.03661 8.15104 1.70599" stroke="#00303E" stroke-linecap="round" stroke-linejoin="round"/>
<path d="M12.1 1C13.0606 1.01029 14.0158 1.14474 14.942 1.4" stroke="#00303E" stroke-linecap="round" stroke-linejoin="round"/>
<path d="M18.536 3.16699C19.309 3.73616 20.003 4.40533 20.6 5.15699" stroke="#00303E" stroke-linecap="round" stroke-linejoin="round"/>
<path d="M22.4919 8.69202C22.7739 9.61036 22.9366 10.5612 22.9759 11.521" stroke="#00303E" stroke-linecap="round" stroke-linejoin="round"/>
<path d="M5 12C5 12.9193 5.18106 13.8295 5.53284 14.6788C5.88463 15.5281 6.40024 16.2997 7.05025 16.9497C7.70026 17.5998 8.47194 18.1154 9.32122 18.4672C10.1705 18.8189 11.0807 19 12 19C12.9193 19 13.8295 18.8189 14.6788 18.4672C15.5281 18.1154 16.2997 17.5998 16.9497 16.9497C17.5998 16.2997 18.1154 15.5281 18.4672 14.6788C18.8189 13.8295 19 12.9193 19 12C19 11.0807 18.8189 10.1705 18.4672 9.32122C18.1154 8.47194 17.5998 7.70026 16.9497 7.05025C16.2997 6.40024 15.5281 5.88463 14.6788 5.53284C13.8295 5.18106 12.9193 5 12 5C11.0807 5 10.1705 5.18106 9.32122 5.53284C8.47194 5.88463 7.70026 6.40024 7.05025 7.05025C6.40024 7.70026 5.88463 8.47194 5.53284 9.32122C5.18106 10.1705 5 11.0807 5 12Z" fill="#9FEAFF"/>
<path d="M7.04999 16.95C5.73717 15.6372 4.99963 13.8566 4.99963 12C4.99963 10.1434 5.73717 8.36281 7.04999 7.04999C8.36281 5.73717 10.1434 4.99963 12 4.99963C13.8566 4.99963 15.6372 5.73717 16.95 7.04999L7.04999 16.95Z" fill="#DFF9FF"/>
<path d="M5 12C5 12.9193 5.18106 13.8295 5.53284 14.6788C5.88463 15.5281 6.40024 16.2997 7.05025 16.9497C7.70026 17.5998 8.47194 18.1154 9.32122 18.4672C10.1705 18.8189 11.0807 19 12 19C12.9193 19 13.8295 18.8189 14.6788 18.4672C15.5281 18.1154 16.2997 17.5998 16.9497 16.9497C17.5998 16.2997 18.1154 15.5281 18.4672 14.6788C18.8189 13.8295 19 12.9193 19 12C19 11.0807 18.8189 10.1705 18.4672 9.32122C18.1154 8.47194 17.5998 7.70026 16.9497 7.05025C16.2997 6.40024 15.5281 5.88463 14.6788 5.53284C13.8295 5.18106 12.9193 5 12 5C11.0807 5 10.1705 5.18106 9.32122 5.53284C8.47194 5.88463 7.70026 6.40024 7.05025 7.05025C6.40024 7.70026 5.88463 8.47194 5.53284 9.32122C5.18106 10.1705 5 11.0807 5 12Z" stroke="#00303E" stroke-linecap="round" stroke-linejoin="round"/>
<path d="M13.938 14.5C13.3446 14.8277 12.6779 14.9995 12 14.9995C11.3222 14.9995 10.6554 14.8277 10.062 14.5" stroke="#00303E" stroke-linecap="round" stroke-linejoin="round"/>
<path d="M9.75 10.5C9.79945 10.5 9.84778 10.5147 9.88889 10.5421C9.93 10.5696 9.96205 10.6086 9.98097 10.6543C9.99989 10.7 10.0048 10.7503 9.9952 10.7988C9.98555 10.8473 9.96174 10.8918 9.92678 10.9268C9.89181 10.9617 9.84727 10.9856 9.79877 10.9952C9.75028 11.0048 9.70001 10.9999 9.65433 10.981C9.60865 10.962 9.5696 10.93 9.54213 10.8889C9.51466 10.8478 9.5 10.7994 9.5 10.75C9.5 10.6837 9.52634 10.6201 9.57322 10.5732C9.62011 10.5263 9.6837 10.5 9.75 10.5Z" stroke="#00303E" stroke-linecap="round" stroke-linejoin="round"/>
<path d="M14.25 10.5C14.2006 10.5 14.1522 10.5147 14.1111 10.5421C14.07 10.5696 14.038 10.6086 14.019 10.6543C14.0001 10.7 13.9952 10.7503 14.0048 10.7988C14.0144 10.8473 14.0383 10.8918 14.0732 10.9268C14.1082 10.9617 14.1527 10.9856 14.2012 10.9952C14.2497 11.0048 14.3 10.9999 14.3457 10.981C14.3914 10.962 14.4304 10.93 14.4579 10.8889C14.4853 10.8478 14.5 10.7994 14.5 10.75C14.5 10.6837 14.4737 10.6201 14.4268 10.5732C14.3799 10.5263 14.3163 10.5 14.25 10.5Z" stroke="#00303E" stroke-linecap="round" stroke-linejoin="round"/>
</g>
<defs>
<clipPath id="clip0_3303_5197">
<rect width="24" height="24" fill="white"/>
</clipPath>
</defs>
</svg>
