<svg width="24" height="24" viewBox="0 0 24 24" fill="none" xmlns="http://www.w3.org/2000/svg">
<g clip-path="url(#clip0_3303_13837)">
<path d="M5.25 14.25H0.75" stroke="#00303E" stroke-linecap="round" stroke-linejoin="round"/>
<path d="M2.75 16.25L0.75 14.25L2.75 12.25" stroke="#00303E" stroke-linecap="round" stroke-linejoin="round"/>
<path d="M7.25 3.25C7.25 3.91304 7.51339 4.54893 7.98223 5.01777C8.45107 5.48661 9.08696 5.75 9.75 5.75C10.413 5.75 11.0489 5.48661 11.5178 5.01777C11.9866 4.54893 12.25 3.91304 12.25 3.25C12.25 2.58696 11.9866 1.95107 11.5178 1.48223C11.0489 1.01339 10.413 0.75 9.75 0.75C9.08696 0.75 8.45107 1.01339 7.98223 1.48223C7.51339 1.95107 7.25 2.58696 7.25 3.25Z" fill="#9FEAFF" stroke="#00303E" stroke-linecap="round" stroke-linejoin="round"/>
<path d="M21.614 15.756L17.473 16.133C17.373 16.1417 17.2727 16.1202 17.1851 16.0711C17.0976 16.0221 17.0268 15.9478 16.982 15.858L13.846 9.58699C14.3019 9.42475 14.7952 9.39897 15.2655 9.51282C15.7359 9.62668 16.1628 9.87521 16.494 10.228L18.151 11.988C18.4238 12.2777 18.8005 12.4473 19.1982 12.4593C19.596 12.4713 19.9822 12.3248 20.272 12.052C20.5617 11.7792 20.7313 11.4025 20.7433 11.0047C20.7553 10.607 20.6088 10.2207 20.336 9.93099L18.678 8.17099C17.9326 7.37514 16.9668 6.81961 15.9041 6.5754C14.8414 6.33119 13.73 6.40938 12.712 6.79999L9.431 8.05699C9.01576 8.20454 8.56897 8.23998 8.13566 8.15974C7.70236 8.07951 7.29787 7.88643 6.963 7.59999L5.226 6.11099C4.92351 5.85532 4.53218 5.72966 4.13739 5.76143C3.7426 5.7932 3.37639 5.97982 3.11868 6.28057C2.86097 6.58133 2.73266 6.9718 2.76176 7.3668C2.79086 7.76179 2.975 8.12925 3.274 8.38899L5.011 9.87799C5.75289 10.5099 6.6486 10.9346 7.60742 11.109C8.56624 11.2834 9.55412 11.2013 10.471 10.871L11.027 10.658L12.527 13.665L10.149 15.45C9.71546 15.7771 9.36348 16.2 9.1206 16.6858C8.87773 17.1715 8.75054 17.7069 8.749 18.25V21.75C8.749 22.1478 8.90704 22.5293 9.18834 22.8107C9.46964 23.092 9.85118 23.25 10.249 23.25C10.6468 23.25 11.0284 23.092 11.3097 22.8107C11.591 22.5293 11.749 22.1478 11.749 21.75V18.25C11.749 18.1724 11.7671 18.0958 11.8018 18.0264C11.8365 17.957 11.8869 17.8966 11.949 17.85L13.893 16.392L14.293 17.2C14.5808 17.7819 15.0258 18.2715 15.5775 18.6135C16.1293 18.9555 16.7658 19.1362 17.415 19.135C17.523 19.135 17.631 19.13 17.74 19.12L21.881 18.744C22.2772 18.7079 22.6429 18.5159 22.8976 18.2102C23.1523 17.9046 23.2751 17.5102 23.239 17.114C23.2029 16.7178 23.0109 16.3521 22.7053 16.0974C22.3996 15.8427 22.0052 15.7199 21.609 15.756H21.614Z" fill="#9FEAFF" stroke="#00303E" stroke-linecap="round" stroke-linejoin="round"/>
</g>
<defs>
<clipPath id="clip0_3303_13837">
<rect width="24" height="24" fill="white"/>
</clipPath>
</defs>
</svg>
