<svg width="24" height="24" viewBox="0 0 24 24" fill="none" xmlns="http://www.w3.org/2000/svg">
<g clip-path="url(#clip0_3303_2399)">
<path d="M7.95003 15.551C9.87653 17.4691 12.4485 18.6006 15.1642 18.7249C17.8799 18.8491 20.5444 17.9572 22.638 16.223C22.7457 16.134 22.8335 16.0235 22.8959 15.8985C22.9582 15.7735 22.9937 15.6369 23 15.4974C23.0063 15.3579 22.9833 15.2186 22.9325 15.0885C22.8817 14.9584 22.8042 14.8403 22.705 14.742L8.62503 0.789013C8.52583 0.690588 8.4071 0.614049 8.2765 0.564331C8.1459 0.514612 8.00632 0.492819 7.86678 0.500357C7.72724 0.507895 7.59083 0.544596 7.46634 0.608093C7.34185 0.671591 7.23206 0.760475 7.14403 0.869013C5.42842 2.9782 4.56041 5.65105 4.70944 8.36579C4.85847 11.0805 6.01385 13.6423 7.95003 15.551Z" fill="#DFF9FF"/>
<path d="M15.7001 7.80001L8.62505 0.789013C8.52585 0.690588 8.40712 0.614049 8.27652 0.564331C8.14592 0.514612 8.00634 0.492819 7.8668 0.500357C7.72726 0.507895 7.59085 0.544596 7.46636 0.608093C7.34187 0.671591 7.23208 0.760475 7.14405 0.869013C5.42851 2.97804 4.56053 5.65072 4.70956 8.36529C4.85859 11.0799 6.01394 13.6415 7.95005 15.55L15.7001 7.80001Z" fill="white"/>
<path d="M7.95003 15.551C9.87653 17.4691 12.4485 18.6006 15.1642 18.7249C17.8799 18.8491 20.5444 17.9572 22.638 16.223C22.7457 16.134 22.8335 16.0235 22.8959 15.8985C22.9582 15.7735 22.9937 15.6369 23 15.4974C23.0063 15.3578 22.9833 15.2186 22.9325 15.0885C22.8817 14.9584 22.8042 14.8403 22.705 14.742L8.62503 0.789013C8.52583 0.690588 8.4071 0.614049 8.2765 0.564331C8.1459 0.514612 8.00632 0.492819 7.86678 0.500357C7.72724 0.507895 7.59083 0.544596 7.46634 0.608093C7.34185 0.671591 7.23206 0.760475 7.14403 0.869013C5.42842 2.9782 4.56041 5.65105 4.70944 8.36579C4.85847 11.0805 6.01385 13.6423 7.95003 15.551Z" stroke="#00303E" stroke-linecap="round" stroke-linejoin="round"/>
<path d="M17.586 5.91299L15.699 7.79999" stroke="#00303E" stroke-linecap="round" stroke-linejoin="round"/>
<path d="M17 4.49899C17 5.02943 17.2107 5.53813 17.5858 5.91321C17.9609 6.28828 18.4696 6.49899 19 6.49899C19.5304 6.49899 20.0391 6.28828 20.4142 5.91321C20.7893 5.53813 21 5.02943 21 4.49899C21 3.96856 20.7893 3.45985 20.4142 3.08478C20.0391 2.70971 19.5304 2.49899 19 2.49899C18.4696 2.49899 17.9609 2.70971 17.5858 3.08478C17.2107 3.45985 17 3.96856 17 4.49899Z" fill="#9FEAFF"/>
<path d="M20 3.49101C19.9992 3.20978 19.9385 2.93196 19.822 2.67601C19.5167 2.53837 19.1818 2.47959 18.8479 2.50506C18.514 2.53053 18.1919 2.63942 17.911 2.82176C17.6301 3.00409 17.3995 3.25403 17.2404 3.54865C17.0812 3.84328 16.9986 4.17314 17 4.50801C17.0008 4.78923 17.0615 5.06705 17.178 5.32301C17.4833 5.46064 17.8182 5.51942 18.1521 5.49395C18.486 5.46849 18.8082 5.35959 19.0891 5.17726C19.3699 4.99492 19.6005 4.74498 19.7597 4.45036C19.9188 4.15574 20.0015 3.82587 20 3.49101Z" fill="#DFF9FF"/>
<path d="M17 4.49899C17 5.02943 17.2107 5.53813 17.5858 5.91321C17.9609 6.28828 18.4696 6.49899 19 6.49899C19.5304 6.49899 20.0391 6.28828 20.4142 5.91321C20.7893 5.53813 21 5.02943 21 4.49899C21 3.96856 20.7893 3.45985 20.4142 3.08478C20.0391 2.70971 19.5304 2.49899 19 2.49899C18.4696 2.49899 17.9609 2.70971 17.5858 3.08478C17.2107 3.45985 17 3.96856 17 4.49899Z" stroke="#00303E" stroke-linecap="round" stroke-linejoin="round"/>
<path d="M7.87295 15.473L2.34595 21.844C2.22015 21.9887 2.13862 22.1666 2.11108 22.3564C2.08353 22.5461 2.11114 22.7398 2.19061 22.9144C2.27007 23.0889 2.39804 23.2369 2.55927 23.3407C2.7205 23.4446 2.90818 23.4998 3.09995 23.5H12.6999C12.8921 23.5 13.0802 23.4446 13.2417 23.3404C13.4032 23.2363 13.5313 23.0879 13.6106 22.9128C13.6899 22.7378 13.7172 22.5437 13.689 22.3536C13.6609 22.1635 13.5786 21.9855 13.4519 21.841L7.87295 15.473Z" fill="#9FEAFF"/>
<path d="M12.686 20.962L7.87296 15.473L5.78296 17.882C7.64382 19.6979 10.0916 20.79 12.686 20.962Z" fill="#9FEAFF"/>
<path d="M7.87295 15.473L2.34595 21.844C2.22015 21.9887 2.13862 22.1666 2.11108 22.3564C2.08353 22.5461 2.11114 22.7398 2.19061 22.9144C2.27007 23.0889 2.39804 23.2369 2.55927 23.3407C2.7205 23.4446 2.90818 23.4998 3.09995 23.5H12.6999C12.8921 23.5 13.0802 23.4446 13.2417 23.3404C13.4032 23.2363 13.5313 23.0879 13.6106 22.9128C13.6899 22.7378 13.7172 22.5437 13.689 22.3536C13.6609 22.1635 13.5786 21.9855 13.4519 21.841L7.87295 15.473Z" stroke="#00303E" stroke-linecap="round" stroke-linejoin="round"/>
<path d="M19.5 6.436V11.566" stroke="#00303E" stroke-linecap="round" stroke-linejoin="round"/>
<path d="M17.063 3.99899H11.864" stroke="#00303E" stroke-linecap="round" stroke-linejoin="round"/>
</g>
<defs>
<clipPath id="clip0_3303_2399">
<rect width="24" height="24" fill="white"/>
</clipPath>
</defs>
</svg>
