<svg width="24" height="24" viewBox="0 0 24 24" fill="none" xmlns="http://www.w3.org/2000/svg">
<g clip-path="url(#clip0_3303_11832)">
<path d="M2.5 21V23H5.5V21" fill="#9FEAFF"/>
<path d="M2.5 21V23H5.5V21" stroke="#00303E" stroke-linecap="round" stroke-linejoin="round"/>
<path d="M18.5 21V23H21.5V21" fill="#9FEAFF"/>
<path d="M18.5 21V23H21.5V21" stroke="#00303E" stroke-linecap="round" stroke-linejoin="round"/>
<path d="M0.5 2C0.5 1.73478 0.605357 1.48043 0.792893 1.29289C0.98043 1.10536 1.23478 1 1.5 1H22.5C22.7652 1 23.0196 1.10536 23.2071 1.29289C23.3946 1.48043 23.5 1.73478 23.5 2V20C23.5 20.2652 23.3946 20.5196 23.2071 20.7071C23.0196 20.8946 22.7652 21 22.5 21H1.5C1.23478 21 0.98043 20.8946 0.792893 20.7071C0.605357 20.5196 0.5 20.2652 0.5 20V2Z" fill="#9FEAFF" stroke="#00303E" stroke-linecap="round" stroke-linejoin="round"/>
<path d="M3.5 5C3.5 4.73478 3.60536 4.48043 3.79289 4.29289C3.98043 4.10536 4.23478 4 4.5 4H20.5C20.7652 4 21.0196 4.10536 21.2071 4.29289C21.3946 4.48043 21.5 4.73478 21.5 5V17C21.5 17.2652 21.3946 17.5196 21.2071 17.7071C21.0196 17.8946 20.7652 18 20.5 18H4.5C4.23478 18 3.98043 17.8946 3.79289 17.7071C3.60536 17.5196 3.5 17.2652 3.5 17V5Z" fill="#DFF9FF"/>
<path d="M4.5 4C4.23478 4 3.98043 4.10536 3.79289 4.29289C3.60536 4.48043 3.5 4.73478 3.5 5V17C3.5 17.1552 3.53614 17.3084 3.60557 17.4472C3.675 17.5861 3.7758 17.7069 3.9 17.8L17.708 4H4.5Z" fill="white"/>
<path d="M3.5 5C3.5 4.73478 3.60536 4.48043 3.79289 4.29289C3.98043 4.10536 4.23478 4 4.5 4H20.5C20.7652 4 21.0196 4.10536 21.2071 4.29289C21.3946 4.48043 21.5 4.73478 21.5 5V17C21.5 17.2652 21.3946 17.5196 21.2071 17.7071C21.0196 17.8946 20.7652 18 20.5 18H4.5C4.23478 18 3.98043 17.8946 3.79289 17.7071C3.60536 17.5196 3.5 17.2652 3.5 17V5Z" stroke="#00303E" stroke-linecap="round" stroke-linejoin="round"/>
<path d="M19 8.492C19 8.98645 18.8534 9.4698 18.5787 9.88092C18.304 10.292 17.9135 10.6125 17.4567 10.8017C16.9999 10.9909 16.4972 11.0404 16.0123 10.944C15.5273 10.8475 15.0819 10.6094 14.7322 10.2598C14.3826 9.91013 14.1445 9.46467 14.048 8.97972C13.9516 8.49477 14.0011 7.9921 14.1903 7.53529C14.3795 7.07847 14.7 6.68803 15.1111 6.41332C15.5222 6.13862 16.0055 5.992 16.5 5.992C17.163 5.992 17.7989 6.25539 18.2678 6.72423C18.7366 7.19307 19 7.82896 19 8.492Z" fill="#9FEAFF" stroke="#00303E" stroke-linecap="round" stroke-linejoin="round"/>
<path d="M16.5 8.25C16.4506 8.25 16.4022 8.26466 16.3611 8.29213C16.32 8.3196 16.288 8.35865 16.269 8.40433C16.2501 8.45001 16.2452 8.50028 16.2548 8.54877C16.2645 8.59727 16.2883 8.64181 16.3232 8.67678C16.3582 8.71174 16.4027 8.73555 16.4512 8.7452C16.4997 8.75484 16.55 8.74989 16.5957 8.73097C16.6414 8.71205 16.6804 8.68 16.7079 8.63889C16.7353 8.59778 16.75 8.54945 16.75 8.5C16.75 8.4337 16.7237 8.37011 16.6768 8.32322C16.6299 8.27634 16.5663 8.25 16.5 8.25Z" stroke="#00303E" stroke-linecap="round" stroke-linejoin="round"/>
<path d="M15 12.75C15.0494 12.75 15.0978 12.7647 15.1389 12.7921C15.18 12.8196 15.212 12.8586 15.231 12.9043C15.2499 12.95 15.2548 13.0003 15.2452 13.0488C15.2356 13.0973 15.2117 13.1418 15.1768 13.1768C15.1418 13.2117 15.0973 13.2356 15.0488 13.2452C15.0003 13.2548 14.95 13.2499 14.9043 13.231C14.8586 13.212 14.8196 13.18 14.7921 13.1389C14.7647 13.0978 14.75 13.0494 14.75 13C14.75 12.9337 14.7763 12.8701 14.8232 12.8232C14.8701 12.7763 14.9337 12.75 15 12.75Z" stroke="#00303E" stroke-linecap="round" stroke-linejoin="round"/>
<path d="M18 12.75C18.0494 12.75 18.0978 12.7647 18.1389 12.7921C18.18 12.8196 18.212 12.8586 18.231 12.9043C18.2499 12.95 18.2548 13.0003 18.2452 13.0488C18.2355 13.0973 18.2117 13.1418 18.1768 13.1768C18.1418 13.2117 18.0973 13.2356 18.0488 13.2452C18.0003 13.2548 17.95 13.2499 17.9043 13.231C17.8586 13.212 17.8196 13.18 17.7921 13.1389C17.7647 13.0978 17.75 13.0494 17.75 13C17.75 12.9337 17.7763 12.8701 17.8232 12.8232C17.8701 12.7763 17.9337 12.75 18 12.75Z" stroke="#00303E" stroke-linecap="round" stroke-linejoin="round"/>
<path d="M15 15.25C15.0494 15.25 15.0978 15.2647 15.1389 15.2921C15.18 15.3196 15.212 15.3586 15.231 15.4043C15.2499 15.45 15.2548 15.5003 15.2452 15.5488C15.2356 15.5973 15.2117 15.6418 15.1768 15.6768C15.1418 15.7117 15.0973 15.7356 15.0488 15.7452C15.0003 15.7548 14.95 15.7499 14.9043 15.731C14.8586 15.712 14.8196 15.68 14.7921 15.6389C14.7647 15.5978 14.75 15.5494 14.75 15.5C14.75 15.4337 14.7763 15.3701 14.8232 15.3232C14.8701 15.2763 14.9337 15.25 15 15.25Z" stroke="#00303E" stroke-linecap="round" stroke-linejoin="round"/>
<path d="M18 15.25C18.0494 15.25 18.0978 15.2647 18.1389 15.2921C18.18 15.3196 18.212 15.3586 18.231 15.4043C18.2499 15.45 18.2548 15.5003 18.2452 15.5488C18.2355 15.5973 18.2117 15.6418 18.1768 15.6768C18.1418 15.7117 18.0973 15.7356 18.0488 15.7452C18.0003 15.7548 17.95 15.7499 17.9043 15.731C17.8586 15.712 17.8196 15.68 17.7921 15.6389C17.7647 15.5978 17.75 15.5494 17.75 15.5C17.75 15.4337 17.7763 15.3701 17.8232 15.3232C17.8701 15.2763 17.9337 15.25 18 15.25Z" stroke="#00303E" stroke-linecap="round" stroke-linejoin="round"/>
</g>
<defs>
<clipPath id="clip0_3303_11832">
<rect width="24" height="24" fill="white"/>
</clipPath>
</defs>
</svg>
