<svg width="24" height="24" viewBox="0 0 24 24" fill="none" xmlns="http://www.w3.org/2000/svg">
<g clip-path="url(#clip0_3303_2412)">
<path d="M4 8C4.39556 8 4.78224 7.8827 5.11114 7.66294C5.44004 7.44318 5.69638 7.13082 5.84776 6.76537C5.99913 6.39992 6.03874 5.99778 5.96157 5.60982C5.8844 5.22186 5.69392 4.86549 5.41421 4.58579C5.13451 4.30608 4.77814 4.1156 4.39018 4.03843C4.00222 3.96126 3.60009 4.00087 3.23463 4.15224C2.86918 4.30362 2.55682 4.55996 2.33706 4.88886C2.1173 5.21776 2 5.60444 2 6C2 6.53043 2.21071 7.03914 2.58579 7.41421C2.96086 7.78929 3.46957 8 4 8Z" fill="#DFF9FF"/>
<path d="M4 20C4.39556 20 4.78224 19.8827 5.11114 19.6629C5.44004 19.4432 5.69638 19.1308 5.84776 18.7654C5.99913 18.3999 6.03874 17.9978 5.96157 17.6098C5.8844 17.2219 5.69392 16.8655 5.41421 16.5858C5.13451 16.3061 4.77814 16.1156 4.39018 16.0384C4.00222 15.9613 3.60009 16.0009 3.23463 16.1522C2.86918 16.3036 2.55682 16.56 2.33706 16.8889C2.1173 17.2178 2 17.6044 2 18C2 18.5304 2.21071 19.0391 2.58579 19.4142C2.96086 19.7893 3.46957 20 4 20Z" fill="#DFF9FF"/>
<path d="M4 9.5C4.69223 9.5 5.36892 9.29473 5.9445 8.91015C6.52007 8.52556 6.96867 7.97894 7.23358 7.33939C7.49848 6.69985 7.5678 5.99612 7.43275 5.31719C7.2977 4.63825 6.96436 4.01461 6.47487 3.52513C5.98539 3.03564 5.36175 2.7023 4.68282 2.56725C4.00388 2.4322 3.30015 2.50152 2.66061 2.76642C2.02107 3.03133 1.47444 3.47993 1.08986 4.05551C0.705271 4.63108 0.5 5.30777 0.5 6C0.5 6.92826 0.868749 7.8185 1.52513 8.47487C2.1815 9.13125 3.07174 9.5 4 9.5Z" stroke="#00303E" stroke-linecap="round" stroke-linejoin="round"/>
<path d="M4 21.5C4.69223 21.5 5.36892 21.2947 5.9445 20.9101C6.52007 20.5256 6.96867 19.9789 7.23358 19.3394C7.49848 18.6999 7.5678 17.9961 7.43275 17.3172C7.2977 16.6383 6.96436 16.0146 6.47487 15.5251C5.98539 15.0356 5.36175 14.7023 4.68282 14.5673C4.00388 14.4322 3.30015 14.5015 2.66061 14.7664C2.02107 15.0313 1.47444 15.4799 1.08986 16.0555C0.705271 16.6311 0.5 17.3078 0.5 18C0.5 18.9283 0.868749 19.8185 1.52513 20.4749C2.1815 21.1313 3.07174 21.5 4 21.5Z" stroke="#00303E" stroke-linecap="round" stroke-linejoin="round"/>
<path d="M11.1479 10.732L20.5999 5.16301C21.0898 4.90007 21.6607 4.83125 22.199 4.97023C22.7374 5.10921 23.2036 5.4458 23.5049 5.91301L13.2789 12L11.1479 10.732Z" fill="#DFF9FF"/>
<path d="M12.8979 9.70001L11.1479 10.732L13.2789 12L15.0189 10.963L12.8979 9.70001Z" fill="#9FEAFF"/>
<path d="M11.1479 10.732L20.5999 5.16301C21.0898 4.90007 21.6607 4.83125 22.199 4.97023C22.7374 5.10921 23.2036 5.4458 23.5049 5.91301L13.2789 12L11.1479 10.732Z" stroke="#00303E" stroke-linecap="round" stroke-linejoin="round"/>
<path d="M11.148 10.733L23.5 18.088C23.1983 18.5548 22.7321 18.8911 22.1939 19.0301C21.6557 19.169 21.085 19.1005 20.595 18.838L9 12L11.148 10.733Z" fill="#9FEAFF" stroke="#00303E" stroke-linecap="round" stroke-linejoin="round"/>
<path d="M20.6001 18.838L4.65405 9.44" stroke="#00303E" stroke-linecap="round" stroke-linejoin="round"/>
<path d="M20.6001 5.16299L4.65405 14.56" stroke="#00303E" stroke-linecap="round" stroke-linejoin="round"/>
</g>
<defs>
<clipPath id="clip0_3303_2412">
<rect width="24" height="24" fill="white"/>
</clipPath>
</defs>
</svg>
