<svg width="24" height="24" viewBox="0 0 24 24" fill="none" xmlns="http://www.w3.org/2000/svg">
<g clip-path="url(#clip0_3303_13909)">
<path d="M3.5 3.5C3.5 4.16304 3.76339 4.79893 4.23223 5.26777C4.70107 5.73661 5.33696 6 6 6C6.66304 6 7.29893 5.73661 7.76777 5.26777C8.23661 4.79893 8.5 4.16304 8.5 3.5C8.5 2.83696 8.23661 2.20107 7.76777 1.73223C7.29893 1.26339 6.66304 1 6 1C5.33696 1 4.70107 1.26339 4.23223 1.73223C3.76339 2.20107 3.5 2.83696 3.5 3.5Z" fill="#DFF9FF" stroke="#00303E" stroke-linecap="round" stroke-linejoin="round"/>
<path d="M15.624 23H15.498C15.122 22.9995 14.7598 22.8578 14.4833 22.603C14.2068 22.3482 14.0361 21.9988 14.005 21.624L13.734 18.375C13.7006 18.0009 13.529 17.6526 13.2525 17.3983C12.976 17.144 12.6146 17.002 12.239 17H9.352C8.48685 16.9963 7.65344 16.6738 7.01121 16.0941C6.36898 15.5144 5.96302 14.7183 5.871 13.858L5.024 9.77101C4.95173 9.37968 5.03787 8.97567 5.26348 8.64786C5.48908 8.32004 5.83567 8.09528 6.227 8.02301C6.61833 7.95073 7.02234 8.03688 7.35015 8.26248C7.67796 8.48809 7.90273 8.83468 7.975 9.22601L8.833 13.38C8.853 13.502 8.868 13.999 9.352 13.999H12.239C13.366 14.005 14.4503 14.4313 15.2797 15.1943C16.1092 15.9574 16.6242 17.0024 16.724 18.125L17 21.375C17.0171 21.5722 16.995 21.7708 16.935 21.9595C16.875 22.1481 16.7783 22.323 16.6503 22.474C16.5224 22.6251 16.3659 22.7493 16.1897 22.8396C16.0136 22.9299 15.8213 22.9844 15.624 23Z" fill="#DFF9FF" stroke="#00303E" stroke-linecap="round" stroke-linejoin="round"/>
<path d="M0.5 10H1.7C1.92649 9.99996 2.14628 10.0768 2.32341 10.218C2.50053 10.3591 2.62449 10.5562 2.675 10.777L3.829 15.824C4.01816 16.7226 4.51072 17.5287 5.22397 18.107C5.93723 18.6853 6.82775 19.0006 7.746 19H10.618C10.8617 19.0001 11.097 19.0891 11.2796 19.2504C11.4623 19.4117 11.5798 19.6342 11.61 19.876L11.86 21.876C11.8776 22.0167 11.865 22.1595 11.8232 22.2949C11.7814 22.4304 11.7113 22.5554 11.6175 22.6617C11.5237 22.768 11.4083 22.8531 11.2791 22.9115C11.1499 22.9698 11.0098 23 10.868 23H0.5" fill="#9FEAFF"/>
<path d="M0.5 10H1.7C1.92649 9.99996 2.14628 10.0768 2.32341 10.218C2.50053 10.3591 2.62449 10.5562 2.675 10.777L3.829 15.824C4.01816 16.7226 4.51072 17.5287 5.22397 18.107C5.93723 18.6853 6.82775 19.0006 7.746 19H10.618C10.8617 19.0001 11.097 19.0891 11.2796 19.2504C11.4623 19.4117 11.5798 19.6342 11.61 19.876L11.86 21.876C11.8776 22.0167 11.865 22.1595 11.8232 22.2949C11.7814 22.4304 11.7113 22.5554 11.6175 22.6617C11.5237 22.768 11.4083 22.8531 11.2791 22.9115C11.1499 22.9698 11.0098 23 10.868 23H0.5" stroke="#00303E" stroke-linecap="round" stroke-linejoin="round"/>
<path d="M18.5 7V2" stroke="#00303E" stroke-linecap="round" stroke-linejoin="round"/>
<path d="M21.5 7V2" stroke="#00303E" stroke-linecap="round" stroke-linejoin="round"/>
<path d="M21.5 2H22C22.3978 2 22.7794 2.15804 23.0607 2.43934C23.342 2.72064 23.5 3.10218 23.5 3.5C23.5 3.89782 23.342 4.27936 23.0607 4.56066C22.7794 4.84196 22.3978 5 22 5H21.5" stroke="#00303E" stroke-linecap="round" stroke-linejoin="round"/>
<path d="M13.5 2V3.7C13.5007 4.87454 13.8486 6.02266 14.5 7C15.1515 6.02272 15.4995 4.87456 15.5 3.7V2" stroke="#00303E" stroke-linecap="round" stroke-linejoin="round"/>
</g>
<defs>
<clipPath id="clip0_3303_13909">
<rect width="24" height="24" fill="white"/>
</clipPath>
</defs>
</svg>
