<svg width="24" height="24" viewBox="0 0 24 24" fill="none" xmlns="http://www.w3.org/2000/svg">
<g clip-path="url(#clip0_3303_2478)">
<path d="M1.50305 0.5H22.5031C22.5031 0.5 23.5031 0.5 23.5031 1.5V22.5C23.5031 22.5 23.5031 23.5 22.5031 23.5H1.50305C1.50305 23.5 0.503052 23.5 0.503052 22.5V1.5C0.503052 1.5 0.503052 0.5 1.50305 0.5Z" fill="#DFF9FF"/>
<path d="M23.5 3.5V1.5C23.5 1.23478 23.3946 0.98043 23.2071 0.792893C23.0196 0.605357 22.7652 0.5 22.5 0.5H1.5C1.23478 0.5 0.98043 0.605357 0.792893 0.792893C0.605357 0.98043 0.5 1.23478 0.5 1.5V3.5H23.5Z" fill="white"/>
<path d="M1.50305 0.5H22.5031C22.5031 0.5 23.5031 0.5 23.5031 1.5V22.5C23.5031 22.5 23.5031 23.5 22.5031 23.5H1.50305C1.50305 23.5 0.503052 23.5 0.503052 22.5V1.5C0.503052 1.5 0.503052 0.5 1.50305 0.5Z" stroke="#00303E" stroke-linecap="round" stroke-linejoin="round"/>
<path d="M3.5 6.5C3.5 7.29565 3.81607 8.05871 4.37868 8.62132C4.94129 9.18393 5.70435 9.5 6.5 9.5H17.5C18.2956 9.5 19.0587 9.18393 19.6213 8.62132C20.1839 8.05871 20.5 7.29565 20.5 6.5C20.5 5.70435 20.1839 4.94129 19.6213 4.37868C19.0587 3.81607 18.2956 3.5 17.5 3.5H6.5C5.70435 3.5 4.94129 3.81607 4.37868 4.37868C3.81607 4.94129 3.5 5.70435 3.5 6.5Z" fill="white" stroke="#00303E" stroke-linecap="round" stroke-linejoin="round"/>
<path d="M3.5 17.5C3.5 18.2956 3.81607 19.0587 4.37868 19.6213C4.94129 20.1839 5.70435 20.5 6.5 20.5H17.5C18.2956 20.5 19.0587 20.1839 19.6213 19.6213C20.1839 19.0587 20.5 18.2956 20.5 17.5C20.5 16.7044 20.1839 15.9413 19.6213 15.3787C19.0587 14.8161 18.2956 14.5 17.5 14.5H6.5C5.70435 14.5 4.94129 14.8161 4.37868 15.3787C3.81607 15.9413 3.5 16.7044 3.5 17.5Z" fill="white" stroke="#00303E" stroke-linecap="round" stroke-linejoin="round"/>
<path d="M3.50305 6.5C3.50305 6.89397 3.58065 7.28407 3.73141 7.64805C3.88218 8.01203 4.10316 8.34274 4.38173 8.62132C4.66031 8.8999 4.99102 9.12087 5.355 9.27164C5.71898 9.4224 6.10909 9.5 6.50305 9.5C6.89702 9.5 7.28713 9.4224 7.6511 9.27164C8.01508 9.12087 8.3458 8.8999 8.62437 8.62132C8.90295 8.34274 9.12393 8.01203 9.27469 7.64805C9.42545 7.28407 9.50305 6.89397 9.50305 6.5C9.50305 6.10603 9.42545 5.71593 9.27469 5.35195C9.12393 4.98797 8.90295 4.65726 8.62437 4.37868C8.3458 4.1001 8.01508 3.87913 7.6511 3.72836C7.28713 3.5776 6.89702 3.5 6.50305 3.5C6.10909 3.5 5.71898 3.5776 5.355 3.72836C4.99102 3.87913 4.66031 4.1001 4.38173 4.37868C4.10316 4.65726 3.88218 4.98797 3.73141 5.35195C3.58065 5.71593 3.50305 6.10603 3.50305 6.5Z" fill="#9FEAFF"/>
<path d="M14.5031 17.5C14.5031 18.2956 14.8191 19.0587 15.3817 19.6213C15.9443 20.1839 16.7074 20.5 17.5031 20.5C18.2987 20.5 19.0618 20.1839 19.6244 19.6213C20.187 19.0587 20.5031 18.2956 20.5031 17.5C20.5031 16.7044 20.187 15.9413 19.6244 15.3787C19.0618 14.8161 18.2987 14.5 17.5031 14.5C16.7074 14.5 15.9443 14.8161 15.3817 15.3787C14.8191 15.9413 14.5031 16.7044 14.5031 17.5Z" fill="#9FEAFF"/>
<path d="M6.5 9.5C5.70435 9.5 4.94129 9.18393 4.37868 8.62132C3.81607 8.05871 3.5 7.29565 3.5 6.5C3.5 5.70435 3.81607 4.94129 4.37868 4.37868C4.94129 3.81607 5.70435 3.5 6.5 3.5V9.5Z" fill="#DFF9FF"/>
<path d="M3.50305 6.5C3.50305 6.89397 3.58065 7.28407 3.73141 7.64805C3.88218 8.01203 4.10316 8.34274 4.38173 8.62132C4.66031 8.8999 4.99102 9.12087 5.355 9.27164C5.71898 9.4224 6.10909 9.5 6.50305 9.5C6.89702 9.5 7.28713 9.4224 7.6511 9.27164C8.01508 9.12087 8.3458 8.8999 8.62437 8.62132C8.90295 8.34274 9.12393 8.01203 9.27469 7.64805C9.42545 7.28407 9.50305 6.89397 9.50305 6.5C9.50305 6.10603 9.42545 5.71593 9.27469 5.35195C9.12393 4.98797 8.90295 4.65726 8.62437 4.37868C8.3458 4.1001 8.01508 3.87913 7.6511 3.72836C7.28713 3.5776 6.89702 3.5 6.50305 3.5C6.10909 3.5 5.71898 3.5776 5.355 3.72836C4.99102 3.87913 4.66031 4.1001 4.38173 4.37868C4.10316 4.65726 3.88218 4.98797 3.73141 5.35195C3.58065 5.71593 3.50305 6.10603 3.50305 6.5Z" stroke="#00303E" stroke-linecap="round" stroke-linejoin="round"/>
<path d="M17.5 20.5C16.7044 20.5 15.9413 20.1839 15.3787 19.6213C14.8161 19.0587 14.5 18.2956 14.5 17.5C14.5 16.7044 14.8161 15.9413 15.3787 15.3787C15.9413 14.8161 16.7044 14.5 17.5 14.5V20.5Z" fill="#DFF9FF"/>
<path d="M14.5031 17.5C14.5031 18.2956 14.8191 19.0587 15.3817 19.6213C15.9443 20.1839 16.7074 20.5 17.5031 20.5C18.2987 20.5 19.0618 20.1839 19.6244 19.6213C20.187 19.0587 20.5031 18.2956 20.5031 17.5C20.5031 16.7044 20.187 15.9413 19.6244 15.3787C19.0618 14.8161 18.2987 14.5 17.5031 14.5C16.7074 14.5 15.9443 14.8161 15.3817 15.3787C14.8191 15.9413 14.5031 16.7044 14.5031 17.5Z" stroke="#00303E" stroke-linecap="round" stroke-linejoin="round"/>
</g>
<defs>
<clipPath id="clip0_3303_2478">
<rect width="24" height="24" fill="white"/>
</clipPath>
</defs>
</svg>
