<svg width="24" height="24" viewBox="0 0 24 24" fill="none" xmlns="http://www.w3.org/2000/svg">
<g clip-path="url(#clip0_3303_2500)">
<path d="M15.5 4.5C15.5 5.56087 15.9214 6.57828 16.6716 7.32843C17.4217 8.07857 18.4391 8.5 19.5 8.5C20.5609 8.5 21.5783 8.07857 22.3284 7.32843C23.0786 6.57828 23.5 5.56087 23.5 4.5C23.5 3.43913 23.0786 2.42172 22.3284 1.67157C21.5783 0.921427 20.5609 0.5 19.5 0.5C18.4391 0.5 17.4217 0.921427 16.6716 1.67157C15.9214 2.42172 15.5 3.43913 15.5 4.5Z" fill="#9FEAFF"/>
<path d="M0.5 12C0.5 13.0609 0.921427 14.0783 1.67157 14.8284C2.42172 15.5786 3.43913 16 4.5 16C5.56087 16 6.57828 15.5786 7.32843 14.8284C8.07857 14.0783 8.5 13.0609 8.5 12C8.5 10.9391 8.07857 9.92172 7.32843 9.17157C6.57828 8.42143 5.56087 8 4.5 8C3.43913 8 2.42172 8.42143 1.67157 9.17157C0.921427 9.92172 0.5 10.9391 0.5 12Z" fill="#9FEAFF"/>
<path d="M15.5 19.5C15.5 20.5609 15.9214 21.5783 16.6716 22.3284C17.4217 23.0786 18.4391 23.5 19.5 23.5C20.5609 23.5 21.5783 23.0786 22.3284 22.3284C23.0786 21.5783 23.5 20.5609 23.5 19.5C23.5 18.4391 23.0786 17.4217 22.3284 16.6716C21.5783 15.9214 20.5609 15.5 19.5 15.5C18.4391 15.5 17.4217 15.9214 16.6716 16.6716C15.9214 17.4217 15.5 18.4391 15.5 19.5Z" fill="#9FEAFF"/>
<path d="M19.5 2.50001C20.387 2.49978 21.2488 2.79436 21.9501 3.33742C22.6514 3.88048 23.1523 4.64121 23.374 5.50001C23.5259 4.9091 23.5407 4.29127 23.4171 3.69378C23.2935 3.0963 23.0349 2.53501 22.661 2.05285C22.2872 1.57069 21.8079 1.18045 21.2601 0.911989C20.7122 0.643524 20.1101 0.503952 19.5 0.503952C18.8899 0.503952 18.2878 0.643524 17.7399 0.911989C17.1921 1.18045 16.7128 1.57069 16.339 2.05285C15.9651 2.53501 15.7065 3.0963 15.5829 3.69378C15.4593 4.29127 15.4741 4.9091 15.626 5.50001C15.8477 4.64121 16.3486 3.88048 17.0499 3.33742C17.7512 2.79436 18.613 2.49978 19.5 2.50001Z" fill="#9FEAFF"/>
<path d="M4.5 10C5.38696 9.99977 6.24883 10.2944 6.9501 10.8374C7.65137 11.3805 8.15226 12.1412 8.374 13C8.51532 12.4504 8.53806 11.877 8.44072 11.3179C8.34338 10.7588 8.12819 10.2268 7.80944 9.75726C7.49068 9.28773 7.07567 8.8914 6.59196 8.5946C6.10826 8.2978 5.56693 8.10732 5.00395 8.03583C4.44097 7.96433 3.86922 8.01344 3.32667 8.17991C2.78413 8.34638 2.28323 8.62638 1.85722 9.00133C1.43122 9.37627 1.08988 9.83758 0.855878 10.3546C0.621873 10.8716 0.500561 11.4325 0.5 12C0.499923 12.3373 0.542255 12.6733 0.626 13C0.847739 12.1412 1.34863 11.3805 2.0499 10.8374C2.75117 10.2944 3.61304 9.99977 4.5 10Z" fill="#9FEAFF"/>
<path d="M19.5 17.5C20.387 17.4998 21.2488 17.7944 21.9501 18.3374C22.6514 18.8805 23.1523 19.6412 23.374 20.5C23.5259 19.9091 23.5407 19.2913 23.4171 18.6938C23.2935 18.0963 23.0349 17.535 22.661 17.0529C22.2872 16.5707 21.8079 16.1805 21.2601 15.912C20.7122 15.6435 20.1101 15.504 19.5 15.504C18.8899 15.504 18.2878 15.6435 17.7399 15.912C17.1921 16.1805 16.7128 16.5707 16.339 17.0529C15.9651 17.535 15.7065 18.0963 15.5829 18.6938C15.4593 19.2913 15.4741 19.9091 15.626 20.5C15.8477 19.6412 16.3486 18.8805 17.0499 18.3374C17.7512 17.7944 18.613 17.4998 19.5 17.5Z" fill="#9FEAFF"/>
<path d="M8.07397 13.787L15.925 17.713" stroke="#00303E" stroke-linecap="round" stroke-linejoin="round"/>
<path d="M15.925 6.286L8.07397 10.212" stroke="#00303E" stroke-linecap="round" stroke-linejoin="round"/>
<path d="M15.5 4.5C15.5 5.56087 15.9214 6.57828 16.6716 7.32843C17.4217 8.07857 18.4391 8.5 19.5 8.5C20.5609 8.5 21.5783 8.07857 22.3284 7.32843C23.0786 6.57828 23.5 5.56087 23.5 4.5C23.5 3.43913 23.0786 2.42172 22.3284 1.67157C21.5783 0.921427 20.5609 0.5 19.5 0.5C18.4391 0.5 17.4217 0.921427 16.6716 1.67157C15.9214 2.42172 15.5 3.43913 15.5 4.5Z" stroke="#00303E" stroke-linecap="round" stroke-linejoin="round"/>
<path d="M0.5 12C0.5 13.0609 0.921427 14.0783 1.67157 14.8284C2.42172 15.5786 3.43913 16 4.5 16C5.56087 16 6.57828 15.5786 7.32843 14.8284C8.07857 14.0783 8.5 13.0609 8.5 12C8.5 10.9391 8.07857 9.92172 7.32843 9.17157C6.57828 8.42143 5.56087 8 4.5 8C3.43913 8 2.42172 8.42143 1.67157 9.17157C0.921427 9.92172 0.5 10.9391 0.5 12Z" stroke="#00303E" stroke-linecap="round" stroke-linejoin="round"/>
<path d="M15.5 19.5C15.5 20.5609 15.9214 21.5783 16.6716 22.3284C17.4217 23.0786 18.4391 23.5 19.5 23.5C20.5609 23.5 21.5783 23.0786 22.3284 22.3284C23.0786 21.5783 23.5 20.5609 23.5 19.5C23.5 18.4391 23.0786 17.4217 22.3284 16.6716C21.5783 15.9214 20.5609 15.5 19.5 15.5C18.4391 15.5 17.4217 15.9214 16.6716 16.6716C15.9214 17.4217 15.5 18.4391 15.5 19.5Z" stroke="#00303E" stroke-linecap="round" stroke-linejoin="round"/>
</g>
<defs>
<clipPath id="clip0_3303_2500">
<rect width="24" height="24" fill="white"/>
</clipPath>
</defs>
</svg>
