<svg width="24" height="24" viewBox="0 0 24 24" fill="none" xmlns="http://www.w3.org/2000/svg">
<g clip-path="url(#clip0_3303_6349)">
<path d="M1.5 3.775V11.412C1.52938 13.9355 2.33358 16.389 3.80368 18.4402C5.27379 20.4914 7.33878 22.0413 9.719 22.88L10.84 23.294C11.5889 23.569 12.4111 23.569 13.16 23.294L14.281 22.88C16.6612 22.0413 18.7262 20.4914 20.1963 18.4402C21.6664 16.389 22.4706 13.9355 22.5 11.412V3.775C22.499 3.47495 22.41 3.1818 22.2439 2.93187C22.0779 2.68195 21.8422 2.48623 21.566 2.369C18.5368 1.10465 15.2823 0.468795 12 0.499996C8.71767 0.468795 5.46321 1.10465 2.434 2.369C2.15781 2.48623 1.92209 2.68195 1.75606 2.93187C1.59004 3.1818 1.501 3.47495 1.5 3.775Z" fill="#DFF9FF"/>
<path d="M12 0.499996C8.71767 0.468795 5.46321 1.10465 2.434 2.369C2.15781 2.48623 1.92209 2.68195 1.75606 2.93187C1.59004 3.1818 1.501 3.47495 1.5 3.775V11.412C1.52938 13.9355 2.33358 16.389 3.80368 18.4402C5.27379 20.4914 7.33878 22.0413 9.719 22.88L10.84 23.294C11.2116 23.4302 11.6042 23.4999 12 23.5V0.499996Z" fill="white"/>
<path d="M1.5 3.775V11.412C1.52938 13.9355 2.33358 16.389 3.80368 18.4402C5.27379 20.4914 7.33878 22.0413 9.719 22.88L10.84 23.294C11.5889 23.569 12.4111 23.569 13.16 23.294L14.281 22.88C16.6612 22.0413 18.7262 20.4914 20.1963 18.4402C21.6664 16.389 22.4706 13.9355 22.5 11.412V3.775C22.499 3.47495 22.41 3.1818 22.2439 2.93187C22.0779 2.68194 21.8422 2.48623 21.566 2.369C18.5368 1.10465 15.2823 0.468795 12 0.499996C8.71767 0.468795 5.46321 1.10465 2.434 2.369C2.15781 2.48623 1.92209 2.68194 1.75606 2.93187C1.59004 3.1818 1.501 3.47495 1.5 3.775Z" stroke="#00303E" stroke-linecap="round" stroke-linejoin="round"/>
<path d="M13.081 8.14699C13.1446 8.05093 13.173 7.93587 13.1615 7.82127C13.1501 7.70666 13.0994 7.59953 13.018 7.51799L12.1 6.59999C12.0536 6.55342 11.9984 6.51648 11.9377 6.49128C11.8769 6.46607 11.8118 6.45309 11.746 6.45309C11.6803 6.45309 11.6151 6.46607 11.5544 6.49128C11.4936 6.51648 11.4385 6.55342 11.392 6.59999L10.41 7.58199L10.075 7.24799C9.69947 6.87337 9.19049 6.66328 8.66004 6.66394C8.1296 6.66459 7.62114 6.87594 7.24652 7.25149C6.8719 7.62703 6.66181 8.13602 6.66247 8.66646C6.66312 9.19691 6.87447 9.70537 7.25002 10.08L7.58502 10.415L6.60002 11.4C6.55346 11.4464 6.51651 11.5016 6.49131 11.5624C6.4661 11.6231 6.45312 11.6882 6.45312 11.754C6.45312 11.8198 6.4661 11.8849 6.49131 11.9456C6.51651 12.0064 6.55346 12.0615 6.60002 12.108L7.51402 13.022C7.59556 13.1033 7.70269 13.154 7.8173 13.1655C7.93191 13.177 8.04696 13.1485 8.14302 13.085C8.52764 12.8301 8.98857 12.716 9.44769 12.7621C9.90681 12.8081 10.3359 13.0116 10.6622 13.3379C10.9884 13.6641 11.1919 14.0932 11.2379 14.5523C11.284 15.0114 11.1699 15.4724 10.915 15.857C10.8515 15.953 10.823 16.0681 10.8345 16.1827C10.846 16.2973 10.8967 16.4044 10.978 16.486L11.892 17.4C11.9858 17.4937 12.1129 17.5464 12.2455 17.5464C12.3781 17.5464 12.5053 17.4937 12.599 17.4L13.581 16.419L13.916 16.754C14.2912 17.129 14.7999 17.3396 15.3304 17.3395C15.8608 17.3394 16.3695 17.1286 16.7445 16.7535C17.1195 16.3783 17.3302 15.8696 17.3301 15.3391C17.33 14.8087 17.1192 14.3 16.744 13.925C16.6555 13.8362 16.6059 13.7159 16.6059 13.5905C16.6059 13.4651 16.6555 13.3448 16.744 13.256L17.4 12.6C17.4466 12.5535 17.4835 12.4984 17.5087 12.4376C17.5339 12.3769 17.5469 12.3118 17.5469 12.246C17.5469 12.1802 17.5339 12.1151 17.5087 12.0544C17.4835 11.9936 17.4466 11.9384 17.4 11.892L16.486 10.978C16.4045 10.8966 16.2973 10.846 16.1827 10.8345C16.0681 10.823 15.9531 10.8514 15.857 10.915C15.4724 11.1699 15.0115 11.284 14.5523 11.2379C14.0932 11.1918 13.6642 10.9884 13.3379 10.6621C13.0116 10.3358 12.8082 9.90678 12.7621 9.44766C12.716 8.98854 12.8301 8.52761 13.085 8.14299L13.081 8.14699Z" fill="#9FEAFF"/>
<path d="M16.748 16.75C16.9338 16.5643 17.0812 16.3437 17.1817 16.101C17.2823 15.8583 17.334 15.5982 17.334 15.3355C17.334 15.0728 17.2823 14.8126 17.1817 14.5699C17.0812 14.3272 16.9338 14.1067 16.748 13.921C16.6595 13.8322 16.6098 13.7119 16.6098 13.5865C16.6098 13.4611 16.6595 13.3408 16.748 13.252L17.4 12.6C17.4465 12.5535 17.4835 12.4984 17.5087 12.4376C17.5339 12.3769 17.5469 12.3118 17.5469 12.246C17.5469 12.1802 17.5339 12.1151 17.5087 12.0544C17.4835 11.9936 17.4465 11.9384 17.4 11.892L16.486 10.978C16.4044 10.8966 16.2973 10.846 16.1827 10.8345C16.0681 10.823 15.953 10.8514 15.857 10.915C15.4724 11.1699 15.0114 11.284 14.5523 11.2379C14.0932 11.1918 13.6641 10.9884 13.3378 10.6621C13.0116 10.3358 12.8081 9.90678 12.762 9.44766C12.716 8.98854 12.8301 8.52761 13.085 8.14299C13.1485 8.04693 13.177 7.93187 13.1655 7.81727C13.154 7.70266 13.1033 7.59553 13.022 7.51399L12.1 6.59999C12.0535 6.55342 11.9984 6.51648 11.9376 6.49128C11.8769 6.46607 11.8117 6.45309 11.746 6.45309C11.6802 6.45309 11.6151 6.46607 11.5543 6.49128C11.4936 6.51648 11.4384 6.55342 11.392 6.59999L10.41 7.58199L10.075 7.24799C9.88924 7.06219 9.66873 6.91479 9.42603 6.81423C9.18332 6.71367 8.92318 6.66192 8.66047 6.66192C8.39776 6.66192 8.13762 6.71367 7.89492 6.81423C7.65221 6.91479 7.4317 7.06219 7.24597 7.24799L16.748 16.75Z" fill="#DFF9FF"/>
<path d="M13.081 8.14699C13.1446 8.05093 13.173 7.93587 13.1615 7.82127C13.1501 7.70666 13.0994 7.59953 13.018 7.51799L12.1 6.59999C12.0536 6.55342 11.9984 6.51648 11.9377 6.49128C11.8769 6.46607 11.8118 6.45309 11.746 6.45309C11.6803 6.45309 11.6151 6.46607 11.5544 6.49128C11.4936 6.51648 11.4385 6.55342 11.392 6.59999L10.41 7.58199L10.075 7.24799C9.69947 6.87337 9.19049 6.66328 8.66004 6.66394C8.1296 6.66459 7.62114 6.87594 7.24652 7.25149C6.8719 7.62703 6.66181 8.13602 6.66247 8.66646C6.66312 9.19691 6.87447 9.70537 7.25002 10.08L7.58502 10.415L6.60002 11.4C6.55346 11.4464 6.51651 11.5016 6.49131 11.5624C6.4661 11.6231 6.45312 11.6882 6.45312 11.754C6.45312 11.8198 6.4661 11.8849 6.49131 11.9456C6.51651 12.0064 6.55346 12.0615 6.60002 12.108L7.51402 13.022C7.59556 13.1033 7.70269 13.154 7.8173 13.1655C7.93191 13.177 8.04696 13.1485 8.14302 13.085C8.52764 12.8301 8.98857 12.716 9.44769 12.7621C9.90681 12.8081 10.3359 13.0116 10.6622 13.3379C10.9884 13.6641 11.1919 14.0932 11.2379 14.5523C11.284 15.0114 11.1699 15.4724 10.915 15.857C10.8515 15.953 10.823 16.0681 10.8345 16.1827C10.846 16.2973 10.8967 16.4044 10.978 16.486L11.892 17.4C11.9858 17.4937 12.1129 17.5464 12.2455 17.5464C12.3781 17.5464 12.5053 17.4937 12.599 17.4L13.581 16.419L13.916 16.754C14.2912 17.129 14.7999 17.3396 15.3304 17.3395C15.8608 17.3394 16.3695 17.1286 16.7445 16.7535C17.1195 16.3783 17.3302 15.8696 17.3301 15.3391C17.33 14.8087 17.1192 14.3 16.744 13.925C16.6555 13.8362 16.6059 13.7159 16.6059 13.5905C16.6059 13.4651 16.6555 13.3448 16.744 13.256L17.4 12.6C17.4466 12.5535 17.4835 12.4984 17.5087 12.4376C17.5339 12.3769 17.5469 12.3118 17.5469 12.246C17.5469 12.1802 17.5339 12.1151 17.5087 12.0544C17.4835 11.9936 17.4466 11.9384 17.4 11.892L16.486 10.978C16.4045 10.8966 16.2973 10.846 16.1827 10.8345C16.0681 10.823 15.9531 10.8514 15.857 10.915C15.4724 11.1699 15.0115 11.284 14.5523 11.2379C14.0932 11.1918 13.6642 10.9884 13.3379 10.6621C13.0116 10.3358 12.8082 9.90678 12.7621 9.44766C12.716 8.98854 12.8301 8.52761 13.085 8.14299L13.081 8.14699Z" stroke="#00303E" stroke-linecap="round" stroke-linejoin="round"/>
</g>
<defs>
<clipPath id="clip0_3303_6349">
<rect width="24" height="24" fill="white"/>
</clipPath>
</defs>
</svg>
