<svg width="24" height="24" viewBox="0 0 24 24" fill="none" xmlns="http://www.w3.org/2000/svg">
<g clip-path="url(#clip0_3303_12345)">
<path d="M2.5 9.5H21.5C21.5 9.5 23.5 9.5 23.5 11.5V21.5C23.5 21.5 23.5 23.5 21.5 23.5H2.5C2.5 23.5 0.5 23.5 0.5 21.5V11.5C0.5 11.5 0.5 9.5 2.5 9.5Z" fill="#DFF9FF"/>
<path d="M21.5 20.5H2.5C1.96957 20.5 1.46086 20.2893 1.08579 19.9142C0.710714 19.5391 0.5 19.0304 0.5 18.5V21.5C0.5 22.0304 0.710714 22.5391 1.08579 22.9142C1.46086 23.2893 1.96957 23.5 2.5 23.5H21.5C22.0304 23.5 22.5391 23.2893 22.9142 22.9142C23.2893 22.5391 23.5 22.0304 23.5 21.5V18.5C23.5 19.0304 23.2893 19.5391 22.9142 19.9142C22.5391 20.2893 22.0304 20.5 21.5 20.5Z" fill="#9FEAFF"/>
<path d="M4.5 12.5H19.5C19.5 12.5 20.5 12.5 20.5 13.5V19.5C20.5 19.5 20.5 20.5 19.5 20.5H4.5C4.5 20.5 3.5 20.5 3.5 19.5V13.5C3.5 13.5 3.5 12.5 4.5 12.5Z" fill="#DFF9FF"/>
<path d="M4.5 12.5C4.23478 12.5 3.98043 12.6054 3.79289 12.7929C3.60536 12.9804 3.5 13.2348 3.5 13.5V19.5C3.50176 19.654 3.53981 19.8054 3.61104 19.942C3.68228 20.0786 3.7847 20.1964 3.91 20.286L11.7 12.5H4.5Z" fill="white"/>
<path d="M2.5 9.5H21.5C21.5 9.5 23.5 9.5 23.5 11.5V21.5C23.5 21.5 23.5 23.5 21.5 23.5H2.5C2.5 23.5 0.5 23.5 0.5 21.5V11.5C0.5 11.5 0.5 9.5 2.5 9.5Z" stroke="#00303E" stroke-linecap="round" stroke-linejoin="round"/>
<path d="M4.5 12.5H19.5C19.5 12.5 20.5 12.5 20.5 13.5V19.5C20.5 19.5 20.5 20.5 19.5 20.5H4.5C4.5 20.5 3.5 20.5 3.5 19.5V13.5C3.5 13.5 3.5 12.5 4.5 12.5Z" stroke="#00303E" stroke-linecap="round" stroke-linejoin="round"/>
<path d="M21 9.5L12 0.5L3 9.5" stroke="#00303E" stroke-linecap="round" stroke-linejoin="round"/>
</g>
<defs>
<clipPath id="clip0_3303_12345">
<rect width="24" height="24" fill="white"/>
</clipPath>
</defs>
</svg>
