<svg width="24" height="24" viewBox="0 0 24 24" fill="none" xmlns="http://www.w3.org/2000/svg">
<path d="M19.44 3.24001L19.43 3.27001V3.28001L15.5 19H1.64999L6.53999 2.71001C6.60002 2.50471 6.72512 2.32446 6.89646 2.19641C7.0678 2.06836 7.27609 1.99944 7.48999 2.00001H18.47C18.6219 1.9992 18.772 2.03299 18.9089 2.09883C19.0457 2.16468 19.1658 2.26084 19.26 2.38001C19.3521 2.50096 19.416 2.64091 19.4471 2.78968C19.4783 2.93846 19.4758 3.0923 19.44 3.24001Z" fill="#9FEAFF"/>
<path d="M18.47 2H7.48999C7.27609 1.99943 7.0678 2.06835 6.89646 2.1964C6.72512 2.32445 6.60002 2.5047 6.53999 2.71L1.64999 19H2.29399L19.068 2.227C18.8996 2.08672 18.6891 2.00681 18.47 2Z" fill="#DFF9FF"/>
<path d="M19.44 3.24001L19.43 3.27001V3.28001L15.5 19H1.64999L6.53999 2.71001C6.60002 2.50471 6.72512 2.32446 6.89646 2.19641C7.0678 2.06836 7.27609 1.99944 7.48999 2.00001H18.47C18.6219 1.9992 18.772 2.03299 18.9089 2.09883C19.0457 2.16468 19.1658 2.26084 19.26 2.38001C19.3521 2.50096 19.416 2.64091 19.4471 2.78968C19.4783 2.93846 19.4758 3.0923 19.44 3.24001Z" stroke="#00303E" stroke-linecap="round" stroke-linejoin="round"/>
<path d="M15.5 19L14.75 22" stroke="#00303E" stroke-linecap="round" stroke-linejoin="round"/>
<path d="M1.65 19L0.75 22" stroke="#00303E" stroke-linecap="round" stroke-linejoin="round"/>
<path d="M22.66 17H16L19.43 3.28L22.66 17Z" fill="#9FEAFF" stroke="#00303E" stroke-linecap="round" stroke-linejoin="round"/>
<path d="M23.25 19.5L22.66 17" stroke="#00303E" stroke-linecap="round" stroke-linejoin="round"/>
<path d="M12.854 13.637C12.8242 13.7416 12.7611 13.8336 12.6743 13.8991C12.5875 13.9646 12.4817 14 12.373 14H6.41301C6.33564 14 6.25932 13.9821 6.19005 13.9476C6.12079 13.9131 6.06047 13.863 6.01385 13.8013C5.96723 13.7396 5.93557 13.6678 5.92137 13.5918C5.90717 13.5157 5.91081 13.4374 5.93201 13.363L7.64601 7.363C7.6758 7.25842 7.73888 7.1664 7.82568 7.1009C7.91248 7.03539 8.01826 6.99997 8.12701 7H14.087C14.1644 6.99998 14.2407 7.01791 14.31 7.05239C14.3792 7.08687 14.4395 7.13695 14.4862 7.1987C14.5328 7.26044 14.5644 7.33217 14.5786 7.40822C14.5928 7.48428 14.5892 7.56259 14.568 7.637L12.854 13.637Z" fill="#DFF9FF"/>
<path d="M14.087 7H8.12699C8.01837 6.99991 7.91269 7.03519 7.8259 7.1005C7.73912 7.16581 7.67597 7.25761 7.64599 7.362L5.93199 13.362C5.9106 13.4365 5.90682 13.5149 5.92093 13.5911C5.93505 13.6673 5.96667 13.7391 6.01332 13.801C6.05996 13.8629 6.12035 13.9131 6.18971 13.9476C6.25907 13.9821 6.33551 14.0001 6.41299 14H7.29399L14.255 7.039C14.2016 7.01654 14.1448 7.00335 14.087 7Z" fill="white"/>
<path d="M12.854 13.637C12.8242 13.7416 12.7611 13.8336 12.6743 13.8991C12.5875 13.9646 12.4817 14 12.373 14H6.41301C6.33564 14 6.25932 13.9821 6.19005 13.9476C6.12079 13.9131 6.06047 13.863 6.01385 13.8013C5.96723 13.7396 5.93557 13.6678 5.92137 13.5918C5.90717 13.5157 5.91081 13.4374 5.93201 13.363L7.64601 7.363C7.6758 7.25842 7.73888 7.1664 7.82568 7.1009C7.91248 7.03539 8.01826 6.99997 8.12701 7H14.087C14.1644 6.99998 14.2407 7.01791 14.31 7.05239C14.3792 7.08687 14.4395 7.13695 14.4862 7.1987C14.5328 7.26044 14.5644 7.33217 14.5786 7.40822C14.5928 7.48428 14.5892 7.56259 14.568 7.637L12.854 13.637Z" stroke="#00303E" stroke-linecap="round" stroke-linejoin="round"/>
<path d="M8.25 5H15.75" stroke="#00303E" stroke-linecap="round" stroke-linejoin="round"/>
<path d="M4.75 16H12.25" stroke="#00303E" stroke-linecap="round" stroke-linejoin="round"/>
</svg>
