<svg width="24" height="24" viewBox="0 0 24 24" fill="none" xmlns="http://www.w3.org/2000/svg">
<path d="M21.29 9.89999C20.9053 9.89895 20.5252 9.81571 20.1753 9.65583C19.8254 9.49596 19.5136 9.26314 19.261 8.97299C19.1278 9.48998 18.8443 9.95587 18.4463 10.3118C18.0484 10.6677 17.5539 10.8976 17.0253 10.9725C16.4967 11.0475 15.9578 10.964 15.4766 10.7327C14.9954 10.5014 14.5936 10.1326 14.322 9.67299C14.0841 10.0774 13.7447 10.4126 13.3375 10.6455C12.9302 10.8785 12.4692 11.001 12 11.001C11.5308 11.001 11.0698 10.8785 10.6625 10.6455C10.2553 10.4126 9.91589 10.0774 9.678 9.67299C9.40637 10.1326 9.00458 10.5014 8.52341 10.7327C8.04225 10.964 7.50331 11.0475 6.97471 10.9725C6.44611 10.8976 5.95159 10.6677 5.55365 10.3118C5.15571 9.95587 4.87222 9.48998 4.739 8.97299C4.48637 9.26314 4.17464 9.49596 3.82471 9.65583C3.47478 9.81571 3.09472 9.89895 2.71 9.89999C2.638 9.89999 2.571 9.87999 2.5 9.87399V21C2.5 21.2652 2.60536 21.5196 2.79289 21.7071C2.98043 21.8946 3.23478 22 3.5 22H20.5C20.7652 22 21.0196 21.8946 21.2071 21.7071C21.3946 21.5196 21.5 21.2652 21.5 21V9.87699C21.429 9.88299 21.362 9.89999 21.29 9.89999Z" fill="white" stroke="#00303E" stroke-linecap="round" stroke-linejoin="round"/>
<path d="M9.68 6V9.67C9.40925 10.13 9.00822 10.4995 8.52758 10.7317C8.04694 10.9639 7.50825 11.0484 6.9796 10.9745C6.45094 10.9007 5.95603 10.6718 5.55741 10.3168C5.15879 9.96181 4.87433 9.49661 4.74 8.98L4.75 6H9.68Z" fill="#DFF9FF" stroke="#00303E" stroke-linecap="round" stroke-linejoin="round"/>
<path d="M0.500003 6H4.75L4.74 8.98C4.48603 9.2683 4.17375 9.49939 3.8238 9.65799C3.47385 9.81659 3.09421 9.89908 2.71 9.9C2.31316 9.90028 1.92092 9.81501 1.56 9.65C1.23495 9.48426 0.963135 9.23034 0.775672 8.91731C0.588209 8.60428 0.492674 8.2448 0.500003 7.88V6Z" fill="#9FEAFF" stroke="#00303E" stroke-linecap="round" stroke-linejoin="round"/>
<path d="M14.32 6V9.67C14.083 10.075 13.7442 10.4108 13.3372 10.6442C12.9302 10.8776 12.4692 11.0004 12 11.0004C11.5308 11.0004 11.0698 10.8776 10.6628 10.6442C10.2558 10.4108 9.91696 10.075 9.68 9.67V6H14.32Z" fill="#9FEAFF" stroke="#00303E" stroke-linecap="round" stroke-linejoin="round"/>
<path d="M19.26 8.98C19.1257 9.49661 18.8412 9.96181 18.4426 10.3168C18.044 10.6718 17.5491 10.9007 17.0204 10.9745C16.4917 11.0484 15.9531 10.9639 15.4724 10.7317C14.9918 10.4995 14.5907 10.13 14.32 9.67V6H19.25L19.26 8.98Z" fill="#DFF9FF" stroke="#00303E" stroke-linecap="round" stroke-linejoin="round"/>
<path d="M23.5 6V7.88C23.5073 8.2448 23.4118 8.60428 23.2243 8.91731C23.0369 9.23034 22.7651 9.48426 22.44 9.65C22.0791 9.81501 21.6868 9.90028 21.29 9.9C20.9058 9.89908 20.5262 9.81659 20.1762 9.65799C19.8263 9.49939 19.514 9.2683 19.26 8.98L19.25 6H23.5Z" fill="#9FEAFF" stroke="#00303E" stroke-linecap="round" stroke-linejoin="round"/>
<path d="M5 13H12C12 13 12.5 13 12.5 13.5V18.5C12.5 18.5 12.5 19 12 19H5C5 19 4.5 19 4.5 18.5V13.5C4.5 13.5 4.5 13 5 13Z" fill="#9FEAFF"/>
<path d="M5 13C4.86739 13 4.74021 13.0527 4.64645 13.1464C4.55268 13.2402 4.5 13.3674 4.5 13.5V18.5C4.50148 18.5875 4.5259 18.6731 4.57083 18.7482C4.61575 18.8233 4.6796 18.8853 4.756 18.928L10.683 13H5Z" fill="#DFF9FF"/>
<path d="M5 13H12C12 13 12.5 13 12.5 13.5V18.5C12.5 18.5 12.5 19 12 19H5C5 19 4.5 19 4.5 18.5V13.5C4.5 13.5 4.5 13 5 13Z" stroke="#00303E" stroke-linecap="round" stroke-linejoin="round"/>
<path d="M19.5 22H14.5V13.5C14.5 13.3674 14.5527 13.2402 14.6464 13.1464C14.7402 13.0527 14.8674 13 15 13H19C19.1326 13 19.2598 13.0527 19.3536 13.1464C19.4473 13.2402 19.5 13.3674 19.5 13.5V22Z" fill="#9FEAFF" stroke="#00303E" stroke-linecap="round" stroke-linejoin="round"/>
<path d="M6 1.99999L4.75 5.99999H0.5L2.22 2.54999C2.30386 2.38356 2.43257 2.24387 2.59159 2.14669C2.75062 2.04951 2.93364 1.9987 3.12 1.99999H6Z" fill="#DFF9FF" stroke="#00303E" stroke-linecap="round" stroke-linejoin="round"/>
<path d="M9.68 2V6H4.75L6 2H9.68Z" fill="white" stroke="#00303E" stroke-linecap="round" stroke-linejoin="round"/>
<path d="M9.68 2H14.32V6H9.68V2Z" fill="#DFF9FF" stroke="#00303E" stroke-linecap="round" stroke-linejoin="round"/>
<path d="M19.25 6H14.32V2H18L19.25 6Z" fill="white" stroke="#00303E" stroke-linecap="round" stroke-linejoin="round"/>
<path d="M23.5 5.99999H19.25L18 1.99999H20.88C21.0664 1.9987 21.2494 2.04951 21.4084 2.14669C21.5674 2.24387 21.6961 2.38356 21.78 2.54999L23.5 5.99999Z" fill="#DFF9FF" stroke="#00303E" stroke-linecap="round" stroke-linejoin="round"/>
</svg>
