<svg width="24" height="24" viewBox="0 0 24 24" fill="none" xmlns="http://www.w3.org/2000/svg">
<g clip-path="url(#clip0_3303_12284)">
<path d="M23.5 15.248V14.248C23.5 13.5257 23.3577 12.8105 23.0813 12.1432C22.8049 11.4759 22.3998 10.8696 21.8891 10.3589C21.3784 9.84818 20.772 9.44305 20.1048 9.16665C19.4375 8.89025 18.7223 8.74799 18 8.74799C17.2777 8.74799 16.5625 8.89025 15.8952 9.16665C15.228 9.44305 14.6216 9.84818 14.1109 10.3589C13.6002 10.8696 13.1951 11.4759 12.9187 12.1432C12.6423 12.8105 12.5 13.5257 12.5 14.248V15.248H23.5Z" fill="white"/>
<path d="M21.5 9.99999V15.25H14.5V9.99999C15.0896 9.52181 15.7699 9.16802 16.5 8.95999V11.25C16.5 11.5152 16.6054 11.7696 16.7929 11.9571C16.9804 12.1446 17.2348 12.25 17.5 12.25H18.5C18.7652 12.25 19.0196 12.1446 19.2071 11.9571C19.3946 11.7696 19.5 11.5152 19.5 11.25V8.95999C20.2301 9.16802 20.9104 9.52181 21.5 9.99999Z" fill="#9FEAFF"/>
<path d="M1.5 17.25V16.25C1.5 15.9848 1.60536 15.7304 1.79289 15.5429C1.98043 15.3554 2.23478 15.25 2.5 15.25H10.5C10.7652 15.25 11.0196 15.3554 11.2071 15.5429C11.3946 15.7304 11.5 15.9848 11.5 16.25V17.25H1.5Z" fill="#9FEAFF" stroke="#00303E" stroke-linecap="round" stroke-linejoin="round"/>
<path d="M2.5 15.25V11.25C2.5 10.7196 2.71071 10.2109 3.08579 9.83579C3.46086 9.46071 3.96957 9.25 4.5 9.25H8.5C9.03043 9.25 9.53914 9.46071 9.91421 9.83579C10.2893 10.2109 10.5 10.7196 10.5 11.25V15.25H2.5Z" fill="#DFF9FF"/>
<path d="M8.5 9.25H4.5C3.96957 9.25 3.46086 9.46071 3.08579 9.83579C2.71071 10.2109 2.5 10.7196 2.5 11.25V13.763C2.5 13.2326 2.71071 12.7239 3.08579 12.3488C3.46086 11.9737 3.96957 11.763 4.5 11.763H8.5C9.03043 11.763 9.53914 11.9737 9.91421 12.3488C10.2893 12.7239 10.5 13.2326 10.5 13.763V11.25C10.5 10.7196 10.2893 10.2109 9.91421 9.83579C9.53914 9.46071 9.03043 9.25 8.5 9.25Z" fill="white"/>
<path d="M2.5 15.25V11.25C2.5 10.7196 2.71071 10.2109 3.08579 9.83579C3.46086 9.46071 3.96957 9.25 4.5 9.25H8.5C9.03043 9.25 9.53914 9.46071 9.91421 9.83579C10.2893 10.2109 10.5 10.7196 10.5 11.25V15.25H2.5Z" stroke="#00303E" stroke-linecap="round" stroke-linejoin="round"/>
<path d="M23.5 18.25V20.25H0.5V18.25C0.5 17.9848 0.605357 17.7304 0.792893 17.5429C0.98043 17.3554 1.23478 17.25 1.5 17.25H22.5C22.7652 17.25 23.0196 17.3554 23.2071 17.5429C23.3946 17.7304 23.5 17.9848 23.5 18.25Z" fill="#9FEAFF" stroke="#00303E" stroke-linecap="round" stroke-linejoin="round"/>
<path d="M23.5 23.25V20.25H0.5V23.25" fill="#9FEAFF"/>
<path d="M23.5 23.25V20.25H0.5V23.25" stroke="#00303E" stroke-linecap="round" stroke-linejoin="round"/>
<path d="M4.5 9.25V7.25" stroke="#00303E" stroke-linecap="round" stroke-linejoin="round"/>
<path d="M3 5.25H6C6 5.25 6.5 5.25 6.5 5.75V6.75C6.5 6.75 6.5 7.25 6 7.25H3C3 7.25 2.5 7.25 2.5 6.75V5.75C2.5 5.75 2.5 5.25 3 5.25Z" fill="#9FEAFF" stroke="#00303E" stroke-linecap="round" stroke-linejoin="round"/>
<path d="M5.5 11.25H7.5" stroke="#00303E" stroke-linecap="round" stroke-linejoin="round"/>
<path d="M21.16 3.25001H14.84C15.0082 2.53825 15.4117 1.90412 15.9852 1.45031C16.5587 0.996503 17.2687 0.749603 18 0.749603C18.7313 0.749603 19.4413 0.996503 20.0148 1.45031C20.5883 1.90412 20.9918 2.53825 21.16 3.25001Z" fill="#9FEAFF" stroke="#00303E" stroke-linecap="round" stroke-linejoin="round"/>
<path d="M21.25 4C21.25 4.86195 20.9076 5.6886 20.2981 6.2981C19.6886 6.90759 18.862 7.25 18 7.25C17.138 7.25 16.3114 6.90759 15.7019 6.2981C15.0924 5.6886 14.75 4.86195 14.75 4C14.7491 3.74725 14.7794 3.49536 14.84 3.25H21.16C21.2206 3.49536 21.2509 3.74725 21.25 4Z" fill="#DFF9FF" stroke="#00303E" stroke-linecap="round" stroke-linejoin="round"/>
<path d="M14.84 3.25H12.5" stroke="#00303E" stroke-linecap="round" stroke-linejoin="round"/>
<path d="M19.5 8.96001V11.25C19.5 11.5152 19.3946 11.7696 19.2071 11.9571C19.0196 12.1446 18.7652 12.25 18.5 12.25H17.5C17.2348 12.25 16.9804 12.1446 16.7929 11.9571C16.6054 11.7696 16.5 11.5152 16.5 11.25V8.96001C17.4804 8.68 18.5196 8.68 19.5 8.96001Z" fill="white" stroke="#00303E" stroke-linecap="round" stroke-linejoin="round"/>
<path d="M16.5 14.25H19.5" stroke="#00303E" stroke-linecap="round" stroke-linejoin="round"/>
<path d="M14.5 10.007V15.248" stroke="#00303E" stroke-linecap="round" stroke-linejoin="round"/>
<path d="M21.5 10.007V15.248" stroke="#00303E" stroke-linecap="round" stroke-linejoin="round"/>
<path d="M12.5 14.248C12.5 13.5257 12.6423 12.8105 12.9187 12.1432C13.1951 11.4759 13.6002 10.8696 14.1109 10.3589C14.6216 9.84818 15.228 9.44305 15.8952 9.16665C16.5625 8.89025 17.2777 8.74799 18 8.74799C18.7223 8.74799 19.4375 8.89025 20.1048 9.16665C20.772 9.44305 21.3784 9.84818 21.8891 10.3589C22.3998 10.8696 22.8049 11.4759 23.0813 12.1432C23.3577 12.8105 23.5 13.5257 23.5 14.248V15.248" stroke="#00303E" stroke-linecap="round" stroke-linejoin="round"/>
</g>
<defs>
<clipPath id="clip0_3303_12284">
<rect width="24" height="24" fill="white"/>
</clipPath>
</defs>
</svg>
