<svg width="24" height="24" viewBox="0 0 24 24" fill="none" xmlns="http://www.w3.org/2000/svg">
<g clip-path="url(#clip0_3303_12546)">
<path d="M17.666 16.284L19.166 8.5H1.8L3.277 16.156C3.36232 16.5432 3.5793 16.8888 3.89095 17.1339C4.2026 17.379 4.58962 17.5084 4.986 17.5H16.193C16.5416 17.5 16.8793 17.3787 17.1481 17.1568C17.4169 16.9349 17.6 16.6263 17.666 16.284Z" fill="#DFF9FF"/>
<path d="M18.699 11L19.181 8.5H1.813L2.295 11H18.699Z" fill="#9FEAFF"/>
<path d="M3.536 5.5L6.142 0.5" stroke="#00303E" stroke-linecap="round" stroke-linejoin="round"/>
<path d="M17.431 5.5L14.826 0.5" stroke="#00303E" stroke-linecap="round" stroke-linejoin="round"/>
<path d="M18.631 11.282L19.168 8.5H1.8L3.277 16.156C3.36232 16.5432 3.5793 16.8888 3.89095 17.1339C4.2026 17.379 4.58962 17.5084 4.986 17.5H10" stroke="#00303E" stroke-linecap="round" stroke-linejoin="round"/>
<path d="M1.497 5.5H19.497C19.497 5.5 20.497 5.5 20.497 6.5V7.5C20.497 7.5 20.497 8.5 19.497 8.5H1.497C1.497 8.5 0.497002 8.5 0.497002 7.5V6.5C0.497002 6.5 0.497002 5.5 1.497 5.5Z" fill="white" stroke="#00303E" stroke-linecap="round" stroke-linejoin="round"/>
<path d="M10.497 11V14.039" stroke="#00303E" stroke-linecap="round" stroke-linejoin="round"/>
<path d="M6.589 11L7.023 14.039" stroke="#00303E" stroke-linecap="round" stroke-linejoin="round"/>
<path d="M19.085 13.851L20.369 16.828H22.869C22.9955 16.8228 23.1206 16.8569 23.2269 16.9256C23.3333 16.9943 23.4158 17.0943 23.463 17.2118C23.5103 17.3293 23.52 17.4586 23.4908 17.5818C23.4616 17.705 23.3949 17.8162 23.3 17.9L21.129 19.83L22.329 22.593C22.382 22.7193 22.3941 22.8591 22.3634 22.9927C22.3327 23.1262 22.2608 23.2467 22.158 23.3372C22.0551 23.4277 21.9264 23.4836 21.79 23.4971C21.6537 23.5105 21.5165 23.4807 21.398 23.412L18.498 21.777L15.598 23.412C15.4794 23.4804 15.3423 23.5099 15.2061 23.4964C15.0698 23.4829 14.9412 23.427 14.8384 23.3366C14.7355 23.2462 14.6636 23.1259 14.6327 22.9925C14.6017 22.8591 14.6134 22.7194 14.666 22.593L15.866 19.831L13.7 17.9C13.6054 17.8164 13.539 17.7055 13.5099 17.5827C13.4808 17.4598 13.4904 17.331 13.5374 17.2138C13.5844 17.0966 13.6664 16.9968 13.7723 16.9281C13.8783 16.8594 14.0028 16.8251 14.129 16.83H16.629L17.914 13.853C17.9711 13.7468 18.0558 13.6581 18.1593 13.5963C18.2627 13.5345 18.381 13.5018 18.5015 13.5018C18.622 13.5018 18.7403 13.5345 18.8437 13.5963C18.9472 13.6581 19.0319 13.7468 19.089 13.853L19.085 13.851Z" fill="#9FEAFF"/>
<path d="M20.369 16.828L19.085 13.851C19.0279 13.7449 18.9432 13.6561 18.8397 13.5943C18.7363 13.5325 18.618 13.4998 18.4975 13.4998C18.377 13.4998 18.2587 13.5325 18.1553 13.5943C18.0518 13.6561 17.9671 13.7449 17.91 13.851L16.625 16.828H14.125C13.9987 16.8235 13.8742 16.8582 13.7684 16.9273C13.6626 16.9965 13.5809 17.0966 13.5343 17.2141C13.4877 17.3315 13.4787 17.4605 13.5083 17.5833C13.538 17.7061 13.605 17.8168 13.7 17.9L15.869 19.832L14.669 22.594C14.6095 22.7418 14.6066 22.9063 14.661 23.056L20.888 16.829L20.369 16.828Z" fill="#DFF9FF"/>
<path d="M19.085 13.851L20.369 16.828H22.869C22.9955 16.8228 23.1206 16.8569 23.2269 16.9256C23.3333 16.9943 23.4158 17.0943 23.463 17.2118C23.5103 17.3293 23.52 17.4586 23.4908 17.5818C23.4616 17.705 23.3949 17.8162 23.3 17.9L21.129 19.83L22.329 22.593C22.382 22.7193 22.3941 22.8591 22.3634 22.9927C22.3327 23.1262 22.2608 23.2467 22.158 23.3372C22.0551 23.4277 21.9264 23.4836 21.79 23.4971C21.6537 23.5105 21.5165 23.4807 21.398 23.412L18.498 21.777L15.598 23.412C15.4794 23.4804 15.3423 23.5099 15.2061 23.4964C15.0698 23.4829 14.9412 23.427 14.8384 23.3366C14.7355 23.2462 14.6636 23.1259 14.6327 22.9925C14.6017 22.8591 14.6134 22.7194 14.666 22.593L15.866 19.831L13.7 17.9C13.6054 17.8164 13.539 17.7055 13.5099 17.5827C13.4808 17.4598 13.4904 17.331 13.5374 17.2138C13.5844 17.0966 13.6664 16.9968 13.7723 16.9281C13.8783 16.8594 14.0028 16.8251 14.129 16.83H16.629L17.914 13.853C17.9711 13.7468 18.0558 13.6581 18.1593 13.5963C18.2627 13.5345 18.381 13.5018 18.5015 13.5018C18.622 13.5018 18.7403 13.5345 18.8437 13.5963C18.9472 13.6581 19.0319 13.7468 19.089 13.853L19.085 13.851Z" stroke="#00303E" stroke-linecap="round" stroke-linejoin="round"/>
</g>
<defs>
<clipPath id="clip0_3303_12546">
<rect width="24" height="24" fill="white"/>
</clipPath>
</defs>
</svg>
