<svg width="24" height="24" viewBox="0 0 24 24" fill="none" xmlns="http://www.w3.org/2000/svg">
<g clip-path="url(#clip0_3303_12490)">
<path d="M17.669 16.284L19.169 8.5H1.79999L3.27999 16.156C3.36531 16.5432 3.58229 16.8888 3.89394 17.1339C4.20559 17.379 4.5926 17.5084 4.98899 17.5H16.2C16.5479 17.4991 16.8846 17.3773 17.1526 17.1555C17.4206 16.9337 17.6031 16.6256 17.669 16.284Z" fill="#DFF9FF"/>
<path d="M18.689 11L19.171 8.5H1.80301L2.28501 11H18.689Z" fill="#9FEAFF"/>
<path d="M3.539 5.5L6.145 0.5" stroke="#00303E" stroke-linecap="round" stroke-linejoin="round"/>
<path d="M17.434 5.5L14.829 0.5" stroke="#00303E" stroke-linecap="round" stroke-linejoin="round"/>
<path d="M18.634 11.282L19.171 8.5H1.79999L3.27999 16.156C3.36531 16.5432 3.58229 16.8888 3.89394 17.1339C4.20559 17.379 4.5926 17.5084 4.98899 17.5H9.99999" stroke="#00303E" stroke-linecap="round" stroke-linejoin="round"/>
<path d="M1.5 5.5H19.5C19.5 5.5 20.5 5.5 20.5 6.5V7.5C20.5 7.5 20.5 8.5 19.5 8.5H1.5C1.5 8.5 0.5 8.5 0.5 7.5V6.5C0.5 6.5 0.5 5.5 1.5 5.5Z" fill="white" stroke="#00303E" stroke-linecap="round" stroke-linejoin="round"/>
<path d="M10.5 11V14.039" stroke="#00303E" stroke-linecap="round" stroke-linejoin="round"/>
<path d="M6.59201 11L7.02601 14.039" stroke="#00303E" stroke-linecap="round" stroke-linejoin="round"/>
<path d="M13.5 18.5C13.5 19.8261 14.0268 21.0979 14.9645 22.0355C15.9021 22.9732 17.1739 23.5 18.5 23.5C19.8261 23.5 21.0979 22.9732 22.0355 22.0355C22.9732 21.0979 23.5 19.8261 23.5 18.5C23.5 17.1739 22.9732 15.9021 22.0355 14.9645C21.0979 14.0268 19.8261 13.5 18.5 13.5C17.1739 13.5 15.9021 14.0268 14.9645 14.9645C14.0268 15.9021 13.5 17.1739 13.5 18.5Z" fill="#9FEAFF"/>
<path d="M14.964 22.036C14.0262 21.0982 13.4993 19.8262 13.4993 18.5C13.4993 17.8433 13.6287 17.193 13.88 16.5863C14.1313 15.9796 14.4996 15.4283 14.964 14.964C15.4283 14.4996 15.9796 14.1313 16.5863 13.88C17.193 13.6287 17.8433 13.4993 18.5 13.4993C19.8262 13.4993 21.0982 14.0262 22.036 14.964L14.964 22.036Z" fill="#DFF9FF"/>
<path d="M13.5 18.5C13.5 19.8261 14.0268 21.0979 14.9645 22.0355C15.9021 22.9732 17.1739 23.5 18.5 23.5C19.8261 23.5 21.0979 22.9732 22.0355 22.0355C22.9732 21.0979 23.5 19.8261 23.5 18.5C23.5 17.1739 22.9732 15.9021 22.0355 14.9645C21.0979 14.0268 19.8261 13.5 18.5 13.5C17.1739 13.5 15.9021 14.0268 14.9645 14.9645C14.0268 15.9021 13.5 17.1739 13.5 18.5Z" stroke="#00303E" stroke-linecap="round" stroke-linejoin="round"/>
<path d="M18.5 20.5V21.5" stroke="#00303E" stroke-linecap="round" stroke-linejoin="round"/>
<path d="M18.5 15.5V16.5" stroke="#00303E" stroke-linecap="round" stroke-linejoin="round"/>
<path d="M16.5 20.5H19.5C19.7652 20.5 20.0196 20.3946 20.2071 20.2071C20.3946 20.0196 20.5 19.7652 20.5 19.5C20.5 19.2348 20.3946 18.9804 20.2071 18.7929C20.0196 18.6054 19.7652 18.5 19.5 18.5H17.5C17.2348 18.5 16.9804 18.3946 16.7929 18.2071C16.6054 18.0196 16.5 17.7652 16.5 17.5C16.5 17.2348 16.6054 16.9804 16.7929 16.7929C16.9804 16.6054 17.2348 16.5 17.5 16.5H20.5" stroke="#00303E" stroke-linecap="round" stroke-linejoin="round"/>
</g>
<defs>
<clipPath id="clip0_3303_12490">
<rect width="24" height="24" fill="white"/>
</clipPath>
</defs>
</svg>
