<svg width="24" height="24" viewBox="0 0 24 24" fill="none" xmlns="http://www.w3.org/2000/svg">
<g clip-path="url(#clip0_3303_12449)">
<path d="M17 14.5V14C17 12.6739 16.4732 11.4021 15.5355 10.4645C14.5979 9.52678 13.3261 9 12 9C10.6739 9 9.40215 9.52678 8.46447 10.4645C7.52678 11.4021 7 12.6739 7 14V14.5" fill="#9FEAFF"/>
<path d="M17 14.5V14C17 12.6739 16.4732 11.4021 15.5355 10.4645C14.5979 9.52678 13.3261 9 12 9C10.6739 9 9.40215 9.52678 8.46447 10.4645C7.52678 11.4021 7 12.6739 7 14V14.5" stroke="#00303E" stroke-linecap="round" stroke-linejoin="round"/>
<path d="M14.42 9.62L12 13L9.59 9.62C10.3299 9.21322 11.1606 8.99994 12.005 8.99994C12.8494 8.99994 13.6801 9.21322 14.42 9.62Z" fill="#DFF9FF" stroke="#00303E" stroke-linecap="round" stroke-linejoin="round"/>
<path d="M15.5 4V4.5C15.33 4.5 15.16 4.49 15 4.48C14.426 4.44833 13.8643 4.3009 13.3488 4.04656C12.8332 3.79221 12.3744 3.43623 12 3C11.6256 3.43623 11.1668 3.79221 10.6512 4.04656C10.1357 4.3009 9.57401 4.44833 9 4.48C8.84 4.49 8.67 4.5 8.5 4.5V4C8.5 3.07174 8.86875 2.1815 9.52513 1.52513C10.1815 0.868749 11.0717 0.5 12 0.5C12.9283 0.5 13.8185 0.868749 14.4749 1.52513C15.1313 2.1815 15.5 3.07174 15.5 4Z" fill="#9FEAFF" stroke="#00303E" stroke-linecap="round" stroke-linejoin="round"/>
<path d="M7.5 7.5C8.19529 6.65942 8.55188 5.58964 8.5 4.5" stroke="#00303E" stroke-linecap="round" stroke-linejoin="round"/>
<path d="M15.5 4.5C15.4481 5.58964 15.8047 6.65942 16.5 7.5" stroke="#00303E" stroke-linecap="round" stroke-linejoin="round"/>
<path d="M12 3C11.6256 3.43623 11.1668 3.79221 10.6512 4.04656C10.1357 4.3009 9.57401 4.44833 9 4.48C9 5.27565 9.31607 6.03871 9.87868 6.60132C10.4413 7.16393 11.2044 7.48 12 7.48C12.7956 7.48 13.5587 7.16393 14.1213 6.60132C14.6839 6.03871 15 5.27565 15 4.48C14.426 4.44833 13.8643 4.3009 13.3488 4.04656C12.8332 3.79221 12.3744 3.43623 12 3Z" fill="#DFF9FF" stroke="#00303E" stroke-linecap="round" stroke-linejoin="round"/>
<path d="M1.879 18.985C1.91358 18.8465 1.99349 18.7235 2.10601 18.6356C2.21854 18.5477 2.35722 18.5 2.5 18.5H6.5C6.64278 18.5 6.78146 18.5477 6.89399 18.6356C7.00651 18.7235 7.08642 18.8465 7.121 18.985L7.973 22.394C7.99101 22.4646 8.00008 22.5372 8 22.61C7.99974 22.846 7.90588 23.0722 7.73903 23.239C7.57218 23.4059 7.34596 23.4997 7.11 23.5H1.89C1.65404 23.4997 1.42782 23.4059 1.26097 23.239C1.09412 23.0722 1.00026 22.846 1 22.61C0.999922 22.5372 1.00899 22.4646 1.027 22.394L1.879 18.985Z" fill="#9FEAFF"/>
<path d="M2.5 18.5C2.35722 18.5 2.21854 18.5477 2.10601 18.6356C1.99349 18.7235 1.91358 18.8465 1.879 18.985L1.027 22.394C1.00899 22.4646 0.999922 22.5372 1 22.61C1.00211 22.8294 1.08589 23.0401 1.235 23.201L6.455 18.501L2.5 18.5Z" fill="#DFF9FF"/>
<path d="M1.879 18.985C1.91358 18.8465 1.99349 18.7235 2.10601 18.6356C2.21854 18.5477 2.35722 18.5 2.5 18.5H6.5C6.64278 18.5 6.78146 18.5477 6.89399 18.6356C7.00651 18.7235 7.08642 18.8465 7.121 18.985L7.973 22.394C7.99101 22.4646 8.00008 22.5372 8 22.61C7.99974 22.846 7.90588 23.0722 7.73903 23.239C7.57218 23.4059 7.34596 23.4997 7.11 23.5H1.89C1.65404 23.4997 1.42782 23.4059 1.26097 23.239C1.09412 23.0722 1.00026 22.846 1 22.61C0.999922 22.5372 1.00899 22.4646 1.027 22.394L1.879 18.985Z" stroke="#00303E" stroke-linecap="round" stroke-linejoin="round"/>
<path d="M3 18.5L3.336 16.486C3.38185 16.2104 3.524 15.96 3.73715 15.7794C3.9503 15.5988 4.22062 15.4997 4.5 15.4997C4.77938 15.4997 5.0497 15.5988 5.26285 15.7794C5.476 15.96 5.61815 16.2104 5.664 16.486L6 18.5" stroke="#00303E" stroke-linecap="round" stroke-linejoin="round"/>
<path d="M16.879 18.985C16.9136 18.8465 16.9935 18.7235 17.106 18.6356C17.2185 18.5477 17.3572 18.5 17.5 18.5H21.5C21.6428 18.5 21.7815 18.5477 21.894 18.6356C22.0065 18.7235 22.0864 18.8465 22.121 18.985L22.973 22.394C22.991 22.4646 23.0001 22.5372 23 22.61C22.9997 22.846 22.9059 23.0722 22.739 23.239C22.5722 23.4059 22.346 23.4997 22.11 23.5H16.89C16.654 23.4997 16.4278 23.4059 16.261 23.239C16.0941 23.0722 16.0003 22.846 16 22.61C15.9999 22.5372 16.009 22.4646 16.027 22.394L16.879 18.985Z" fill="#9FEAFF"/>
<path d="M17.5 18.5C17.3572 18.5 17.2185 18.5477 17.106 18.6356C16.9935 18.7235 16.9136 18.8465 16.879 18.985L16.027 22.394C16.009 22.4646 15.9999 22.5372 16 22.61C16.0021 22.8294 16.0859 23.0401 16.235 23.201L21.455 18.501L17.5 18.5Z" fill="#DFF9FF"/>
<path d="M16.879 18.985C16.9136 18.8465 16.9935 18.7235 17.106 18.6356C17.2185 18.5477 17.3572 18.5 17.5 18.5H21.5C21.6428 18.5 21.7815 18.5477 21.894 18.6356C22.0065 18.7235 22.0864 18.8465 22.121 18.985L22.973 22.394C22.991 22.4646 23.0001 22.5372 23 22.61C22.9997 22.846 22.9059 23.0722 22.739 23.239C22.5722 23.4059 22.346 23.4997 22.11 23.5H16.89C16.654 23.4997 16.4278 23.4059 16.261 23.239C16.0941 23.0722 16.0003 22.846 16 22.61C15.9999 22.5372 16.009 22.4646 16.027 22.394L16.879 18.985Z" stroke="#00303E" stroke-linecap="round" stroke-linejoin="round"/>
<path d="M18 18.5L18.336 16.486C18.3819 16.2104 18.524 15.96 18.7372 15.7794C18.9503 15.5988 19.2206 15.4997 19.5 15.4997C19.7794 15.4997 20.0497 15.5988 20.2628 15.7794C20.476 15.96 20.6181 16.2104 20.664 16.486L21 18.5" stroke="#00303E" stroke-linecap="round" stroke-linejoin="round"/>
</g>
<defs>
<clipPath id="clip0_3303_12449">
<rect width="24" height="24" fill="white"/>
</clipPath>
</defs>
</svg>
