<svg width="24" height="24" viewBox="0 0 24 24" fill="none" xmlns="http://www.w3.org/2000/svg">
<path d="M7.328 4.897L8.5 0.5H15.5L16.672 4.898" fill="#DFF9FF"/>
<path d="M7.328 4.897L8.5 0.5H15.5L16.672 4.898" stroke="#00303E" stroke-linecap="round" stroke-linejoin="round"/>
<path d="M7.31 19.037L8.5 23.5H15.5L16.706 19.08" fill="#DFF9FF"/>
<path d="M7.31 19.037L8.5 23.5H15.5L16.706 19.08" stroke="#00303E" stroke-linecap="round" stroke-linejoin="round"/>
<path d="M3.5 12C3.5 14.2543 4.39553 16.4163 5.98959 18.0104C7.58365 19.6045 9.74566 20.5 12 20.5C14.2543 20.5 16.4163 19.6045 18.0104 18.0104C19.6045 16.4163 20.5 14.2543 20.5 12C20.5 9.74566 19.6045 7.58365 18.0104 5.98959C16.4163 4.39553 14.2543 3.5 12 3.5C9.74566 3.5 7.58365 4.39553 5.98959 5.98959C4.39553 7.58365 3.5 9.74566 3.5 12Z" fill="#9FEAFF"/>
<path d="M5.99001 18.01C4.4266 16.4097 3.55712 14.2577 3.57015 12.0205C3.58318 9.78335 4.47767 7.64153 6.0596 6.05959C7.64153 4.47766 9.78335 3.58317 12.0205 3.57014C14.2577 3.55712 16.4098 4.4266 18.01 5.99L5.99001 18.01Z" fill="#DFF9FF"/>
<path d="M3.5 12C3.5 14.2543 4.39553 16.4163 5.98959 18.0104C7.58365 19.6045 9.74566 20.5 12 20.5C14.2543 20.5 16.4163 19.6045 18.0104 18.0104C19.6045 16.4163 20.5 14.2543 20.5 12C20.5 9.74566 19.6045 7.58365 18.0104 5.98959C16.4163 4.39553 14.2543 3.5 12 3.5C9.74566 3.5 7.58365 4.39553 5.98959 5.98959C4.39553 7.58365 3.5 9.74566 3.5 12Z" stroke="#00303E" stroke-linecap="round" stroke-linejoin="round"/>
<path d="M8.99997 13.5H10.5V17.5L15.38 11.325C15.4421 11.2524 15.4821 11.1634 15.4953 11.0688C15.5084 10.9741 15.4941 10.8776 15.4541 10.7908C15.4142 10.704 15.3501 10.6305 15.2696 10.5789C15.1891 10.5274 15.0956 10.5 15 10.5H13.5V6.5L8.61997 12.675C8.55784 12.7476 8.51784 12.8366 8.50469 12.9312C8.49154 13.0259 8.50581 13.1224 8.5458 13.2092C8.58579 13.296 8.64982 13.3695 8.73031 13.4211C8.81081 13.4726 8.90439 13.5 8.99997 13.5Z" fill="#9FEAFF" stroke="#00303E" stroke-linecap="round" stroke-linejoin="round"/>
</svg>
