<svg width="24" height="24" viewBox="0 0 24 24" fill="none" xmlns="http://www.w3.org/2000/svg">
<g clip-path="url(#clip0_3303_4093)">
<path d="M0.5 12C0.5 13.5102 0.797456 15.0056 1.37539 16.4009C1.95331 17.7961 2.8004 19.0639 3.86827 20.1317C4.93615 21.1996 6.2039 22.0467 7.59914 22.6246C8.99438 23.2025 10.4898 23.5 12 23.5C13.5102 23.5 15.0056 23.2025 16.4009 22.6246C17.7961 22.0467 19.0639 21.1996 20.1317 20.1317C21.1996 19.0639 22.0467 17.7961 22.6246 16.4009C23.2025 15.0056 23.5 13.5102 23.5 12C23.5 10.4898 23.2025 8.99438 22.6246 7.59914C22.0467 6.2039 21.1996 4.93615 20.1317 3.86827C19.0639 2.8004 17.7961 1.95331 16.4009 1.37539C15.0056 0.797456 13.5102 0.5 12 0.5C10.4898 0.5 8.99438 0.797456 7.59914 1.37539C6.2039 1.95331 4.93615 2.8004 3.86827 3.86827C2.8004 4.93615 1.95331 6.2039 1.37539 7.59914C0.797456 8.99438 0.5 10.4898 0.5 12Z" fill="#9FEAFF"/>
<path d="M12 4.5C14.4844 4.50019 16.9109 5.25054 18.9618 6.65282C21.0127 8.05509 22.5923 10.0439 23.494 12.359C23.494 12.239 23.5 12.12 23.5 12C23.5 8.95001 22.2884 6.02494 20.1317 3.86827C17.9751 1.7116 15.05 0.5 12 0.5C8.95001 0.5 6.02494 1.7116 3.86827 3.86827C1.7116 6.02494 0.5 8.95001 0.5 12C0.5 12.12 0.5 12.239 0.506 12.359C1.40766 10.0439 2.98733 8.05509 5.0382 6.65282C7.08906 5.25054 9.51556 4.50019 12 4.5Z" fill="#DFF9FF"/>
<path d="M0.5 12C0.5 13.5102 0.797456 15.0056 1.37539 16.4009C1.95331 17.7961 2.8004 19.0639 3.86827 20.1317C4.93615 21.1996 6.2039 22.0467 7.59914 22.6246C8.99438 23.2025 10.4898 23.5 12 23.5C13.5102 23.5 15.0056 23.2025 16.4009 22.6246C17.7961 22.0467 19.0639 21.1996 20.1317 20.1317C21.1996 19.0639 22.0467 17.7961 22.6246 16.4009C23.2025 15.0056 23.5 13.5102 23.5 12C23.5 10.4898 23.2025 8.99438 22.6246 7.59914C22.0467 6.2039 21.1996 4.93615 20.1317 3.86827C19.0639 2.8004 17.7961 1.95331 16.4009 1.37539C15.0056 0.797456 13.5102 0.5 12 0.5C10.4898 0.5 8.99438 0.797456 7.59914 1.37539C6.2039 1.95331 4.93615 2.8004 3.86827 3.86827C2.8004 4.93615 1.95331 6.2039 1.37539 7.59914C0.797456 8.99438 0.5 10.4898 0.5 12Z" stroke="#00303E" stroke-linecap="round" stroke-linejoin="round"/>
<path d="M6.5 9.75C6.54945 9.75 6.59778 9.76466 6.63889 9.79213C6.68 9.8196 6.71205 9.85865 6.73097 9.90433C6.74989 9.95001 6.75484 10.0003 6.7452 10.0488C6.73555 10.0973 6.71174 10.1418 6.67678 10.1768C6.64181 10.2117 6.59727 10.2356 6.54877 10.2452C6.50028 10.2548 6.45001 10.2499 6.40433 10.231C6.35865 10.212 6.3196 10.18 6.29213 10.1389C6.26466 10.0978 6.25 10.0494 6.25 10C6.25 9.9337 6.27634 9.87011 6.32322 9.82322C6.37011 9.77634 6.4337 9.75 6.5 9.75Z" stroke="#00303E" stroke-linecap="round" stroke-linejoin="round"/>
<path d="M17.5 9.75C17.4506 9.75 17.4022 9.76466 17.3611 9.79213C17.32 9.8196 17.288 9.85865 17.269 9.90433C17.2501 9.95001 17.2452 10.0003 17.2548 10.0488C17.2645 10.0973 17.2883 10.1418 17.3232 10.1768C17.3582 10.2117 17.4027 10.2356 17.4512 10.2452C17.4997 10.2548 17.55 10.2499 17.5957 10.231C17.6414 10.212 17.6804 10.18 17.7079 10.1389C17.7353 10.0978 17.75 10.0494 17.75 10C17.75 9.9337 17.7237 9.87011 17.6768 9.82322C17.6299 9.77634 17.5663 9.75 17.5 9.75Z" stroke="#00303E" stroke-linecap="round" stroke-linejoin="round"/>
<path d="M7.5 19C7.5 17.8065 7.97411 16.6619 8.81802 15.818C9.66193 14.9741 10.8065 14.5 12 14.5C13.1935 14.5 14.3381 14.9741 15.182 15.818C16.0259 16.6619 16.5 17.8065 16.5 19" stroke="#00303E" stroke-linecap="round" stroke-linejoin="round"/>
</g>
<defs>
<clipPath id="clip0_3303_4093">
<rect width="24" height="24" fill="white"/>
</clipPath>
</defs>
</svg>
