<svg width="24" height="24" viewBox="0 0 24 24" fill="none" xmlns="http://www.w3.org/2000/svg">
<g clip-path="url(#clip0_3303_4067)">
<path d="M0.5 12C0.5 13.5102 0.797456 15.0056 1.37539 16.4009C1.95331 17.7961 2.8004 19.0639 3.86827 20.1317C4.93615 21.1996 6.2039 22.0467 7.59914 22.6246C8.99438 23.2025 10.4898 23.5 12 23.5C13.5102 23.5 15.0056 23.2025 16.4009 22.6246C17.7961 22.0467 19.0639 21.1996 20.1317 20.1317C21.1996 19.0639 22.0467 17.7961 22.6246 16.4009C23.2025 15.0056 23.5 13.5102 23.5 12C23.5 10.4898 23.2025 8.99438 22.6246 7.59914C22.0467 6.2039 21.1996 4.93615 20.1317 3.86827C19.0639 2.8004 17.7961 1.95331 16.4009 1.37539C15.0056 0.797456 13.5102 0.5 12 0.5C10.4898 0.5 8.99438 0.797456 7.59914 1.37539C6.2039 1.95331 4.93615 2.8004 3.86827 3.86827C2.8004 4.93615 1.95331 6.2039 1.37539 7.59914C0.797456 8.99438 0.5 10.4898 0.5 12Z" fill="#9FEAFF"/>
<path d="M12 4.5C14.4844 4.50019 16.9109 5.25054 18.9618 6.65282C21.0127 8.05509 22.5923 10.0439 23.494 12.359C23.494 12.239 23.5 12.12 23.5 12C23.5 8.95001 22.2884 6.02494 20.1317 3.86827C17.9751 1.7116 15.05 0.5 12 0.5C8.95001 0.5 6.02494 1.7116 3.86827 3.86827C1.7116 6.02494 0.5 8.95001 0.5 12C0.5 12.12 0.5 12.239 0.506 12.359C1.40766 10.0439 2.98733 8.05509 5.0382 6.65282C7.08906 5.25054 9.51556 4.50019 12 4.5Z" fill="#DFF9FF"/>
<path d="M6.5 9.5H8.293C8.39194 9.49998 8.48864 9.47061 8.57088 9.4156C8.65311 9.3606 8.71718 9.28243 8.75497 9.191C8.79277 9.09957 8.80259 8.99898 8.78319 8.90196C8.76379 8.80495 8.71605 8.71587 8.646 8.646L7 7" stroke="#00303E" stroke-linecap="round" stroke-linejoin="round"/>
<path d="M17.5 9.5H15.707C15.6081 9.49998 15.5114 9.47061 15.4292 9.4156C15.3469 9.3606 15.2829 9.28243 15.2451 9.191C15.2073 9.09957 15.1975 8.99898 15.2169 8.90196C15.2363 8.80495 15.284 8.71587 15.354 8.646L17 7" stroke="#00303E" stroke-linecap="round" stroke-linejoin="round"/>
<path d="M14.5 19.806C15.0714 19.4761 15.5721 19.0367 15.9735 18.513C16.3748 17.9893 16.6689 17.3915 16.839 16.754C16.8778 16.606 16.8822 16.451 16.8518 16.301C16.8213 16.1511 16.7569 16.0101 16.6634 15.8889C16.5698 15.7678 16.4498 15.6697 16.3124 15.6023C16.175 15.5349 16.024 15.4999 15.871 15.5H8.12897C7.97594 15.4999 7.82492 15.5349 7.68754 15.6023C7.55016 15.6697 7.4301 15.7678 7.33658 15.8889C7.24307 16.0101 7.17861 16.1511 7.14816 16.301C7.11772 16.451 7.1221 16.606 7.16097 16.754C7.331 17.3915 7.62511 17.9893 8.02647 18.513C8.42783 19.0367 8.92856 19.4761 9.49997 19.806" fill="#9FEAFF"/>
<path d="M14.5 19.806C15.0714 19.4761 15.5721 19.0367 15.9735 18.513C16.3748 17.9893 16.6689 17.3915 16.839 16.754C16.8778 16.606 16.8822 16.451 16.8518 16.301C16.8213 16.1511 16.7569 16.0101 16.6634 15.8889C16.5698 15.7678 16.4498 15.6697 16.3124 15.6023C16.175 15.5349 16.024 15.4999 15.871 15.5H8.12897C7.97594 15.4999 7.82492 15.5349 7.68754 15.6023C7.55016 15.6697 7.4301 15.7678 7.33658 15.8889C7.24307 16.0101 7.17861 16.1511 7.14816 16.301C7.11772 16.451 7.1221 16.606 7.16097 16.754C7.331 17.3915 7.62511 17.9893 8.02647 18.513C8.42783 19.0367 8.92856 19.4761 9.49997 19.806" stroke="#00303E" stroke-linecap="round" stroke-linejoin="round"/>
<path d="M14.5 21C14.5 21.663 14.2366 22.2989 13.7678 22.7678C13.2989 23.2366 12.663 23.5 12 23.5C11.337 23.5 10.7011 23.2366 10.2322 22.7678C9.76339 22.2989 9.5 21.663 9.5 21V18.5C9.5 18.2348 9.60536 17.9804 9.79289 17.7929C9.98043 17.6054 10.2348 17.5 10.5 17.5H13.5C13.7652 17.5 14.0196 17.6054 14.2071 17.7929C14.3946 17.9804 14.5 18.2348 14.5 18.5V21Z" fill="#9FEAFF" stroke="#00303E" stroke-linecap="round" stroke-linejoin="round"/>
<path d="M16.5 22.585C18.94 21.5475 20.9465 19.6988 22.1799 17.3518C23.4133 15.0048 23.7978 12.3037 23.2684 9.70577C22.739 7.10781 21.3282 4.77257 19.2747 3.09537C17.2213 1.41816 14.6514 0.502014 12 0.502014C9.34866 0.502014 6.77875 1.41816 4.72529 3.09537C2.67184 4.77257 1.261 7.10781 0.731597 9.70577C0.202193 12.3037 0.586745 15.0048 1.82016 17.3518C3.05357 19.6988 5.06008 21.5475 7.50002 22.585" stroke="#00303E" stroke-linecap="round" stroke-linejoin="round"/>
</g>
<defs>
<clipPath id="clip0_3303_4067">
<rect width="24" height="24" fill="white"/>
</clipPath>
</defs>
</svg>
