<svg width="24" height="24" viewBox="0 0 24 24" fill="none" xmlns="http://www.w3.org/2000/svg">
<g clip-path="url(#clip0_3303_13917)">
<path d="M23.5 7.5H17C16.8674 7.5 16.7402 7.55268 16.6464 7.64645C16.5527 7.74021 16.5 7.86739 16.5 8V11.5H13C12.8674 11.5 12.7402 11.5527 12.6464 11.6464C12.5527 11.7402 12.5 11.8674 12.5 12V15.5H9C8.86739 15.5 8.74021 15.5527 8.64645 15.6464C8.55268 15.7402 8.5 15.8674 8.5 16V19.5H5C4.86739 19.5 4.74021 19.5527 4.64645 19.6464C4.55268 19.7402 4.5 19.8674 4.5 20V23.5H23.5V7.5Z" fill="#9FEAFF"/>
<path d="M19.749 9.412C19.7954 9.36542 19.8506 9.32846 19.9114 9.30323C19.9721 9.27801 20.0372 9.26501 20.103 9.265H23.503V7.5H17C16.8674 7.5 16.7402 7.55268 16.6464 7.64645C16.5527 7.74021 16.5 7.86739 16.5 8V11.5H13C12.8674 11.5 12.7402 11.5527 12.6464 11.6464C12.5527 11.7402 12.5 11.8674 12.5 12V15.5H9C8.86739 15.5 8.74021 15.5527 8.64645 15.6464C8.55268 15.7402 8.5 15.8674 8.5 16V19.5H5C4.86739 19.5 4.74021 19.5527 4.64645 19.6464C4.55268 19.7402 4.5 19.8674 4.5 20V23.5H5.661L19.749 9.412Z" fill="#9FEAFF"/>
<path d="M0.5 23.5H23.5" stroke="#00303E" stroke-linecap="round" stroke-linejoin="round"/>
<path d="M23.5 7.5H17C16.8674 7.5 16.7402 7.55268 16.6464 7.64645C16.5527 7.74021 16.5 7.86739 16.5 8V11.5H13C12.8674 11.5 12.7402 11.5527 12.6464 11.6464C12.5527 11.7402 12.5 11.8674 12.5 12V15.5H9C8.86739 15.5 8.74021 15.5527 8.64645 15.6464C8.55268 15.7402 8.5 15.8674 8.5 16V19.5H5C4.86739 19.5 4.74021 19.5527 4.64645 19.6464C4.55268 19.7402 4.5 19.8674 4.5 20V23.5" stroke="#00303E" stroke-linecap="round" stroke-linejoin="round"/>
<path d="M0.5 11.5L11.5 0.5" stroke="#00303E" stroke-linecap="round" stroke-linejoin="round"/>
<path d="M6.5 0.5H11.5V5.5" stroke="#00303E" stroke-linecap="round" stroke-linejoin="round"/>
</g>
<defs>
<clipPath id="clip0_3303_13917">
<rect width="24" height="24" fill="white"/>
</clipPath>
</defs>
</svg>
