<svg width="24" height="24" viewBox="0 0 24 24" fill="none" xmlns="http://www.w3.org/2000/svg">
<g clip-path="url(#clip0_3303_3577)">
<path d="M2.00403 12.085C2.00403 14.7372 3.0576 17.2807 4.93296 19.1561C6.80832 21.0314 9.35186 22.085 12.004 22.085C14.6562 22.085 17.1997 21.0314 19.0751 19.1561C20.9505 17.2807 22.004 14.7372 22.004 12.085C22.004 9.43283 20.9505 6.88929 19.0751 5.01392C17.1997 3.13856 14.6562 2.08499 12.004 2.08499C9.35186 2.08499 6.80832 3.13856 4.93296 5.01392C3.0576 6.88929 2.00403 9.43283 2.00403 12.085Z" fill="#DFF9FF"/>
<path d="M9.69401 5.50001C9.59845 5.49979 9.50464 5.47437 9.42206 5.42629C9.33947 5.37822 9.27104 5.30921 9.22366 5.22622C9.17628 5.14324 9.15164 5.04922 9.15223 4.95367C9.15282 4.85811 9.17861 4.7644 9.22701 4.68201L11.533 0.767006C11.5812 0.685755 11.6496 0.618439 11.7317 0.571682C11.8137 0.524924 11.9066 0.500336 12.001 0.500336C12.0955 0.500336 12.1883 0.524924 12.2703 0.571682C12.3524 0.618439 12.4209 0.685755 12.469 0.767006L14.775 4.68201C14.8237 4.76435 14.8498 4.85812 14.8505 4.9538C14.8513 5.04947 14.8267 5.14364 14.7792 5.22673C14.7318 5.30982 14.6632 5.37887 14.5805 5.42687C14.4977 5.47487 14.4037 5.5001 14.308 5.50001H9.69401Z" fill="#9FEAFF" stroke="#00303E" stroke-linecap="round" stroke-linejoin="round"/>
<path d="M5.60899 9.691C5.64264 9.60955 5.65416 9.52066 5.64239 9.43332C5.63062 9.34599 5.59598 9.26332 5.54198 9.19368C5.48797 9.12404 5.41652 9.06992 5.33487 9.03678C5.25321 9.00365 5.16425 8.99268 5.07699 9.005L0.931988 9.588C0.845195 9.59983 0.763032 9.63425 0.693726 9.68782C0.624421 9.7414 0.570406 9.81223 0.537089 9.89325C0.503772 9.97426 0.492324 10.0626 0.503889 10.1494C0.515455 10.2363 0.549628 10.3185 0.602988 10.388L3.12099 13.731C3.17395 13.8016 3.24466 13.8569 3.32592 13.8913C3.40718 13.9258 3.49611 13.9381 3.58366 13.927C3.67122 13.9159 3.75428 13.8819 3.82442 13.8283C3.89455 13.7747 3.94926 13.7036 3.98299 13.622L4.79999 11.659L5.60899 9.691Z" fill="#9FEAFF" stroke="#00303E" stroke-linecap="round" stroke-linejoin="round"/>
<path d="M4.84094 11.612C6.96021 12.4903 8.77149 13.9772 10.0458 15.8848C11.32 17.7924 12.0001 20.0349 11.9999 22.329V23.5" stroke="#00303E" stroke-linecap="round" stroke-linejoin="round"/>
<path d="M18.3999 9.691C18.3663 9.60955 18.3548 9.52066 18.3665 9.43332C18.3783 9.34599 18.4129 9.26332 18.4669 9.19368C18.521 9.12404 18.5924 9.06992 18.6741 9.03678C18.7557 9.00365 18.8447 8.99268 18.9319 9.005L23.0769 9.588C23.1637 9.59983 23.2459 9.63425 23.3152 9.68782C23.3845 9.7414 23.4385 9.81223 23.4718 9.89325C23.5052 9.97426 23.5166 10.0626 23.505 10.1494C23.4935 10.2363 23.4593 10.3185 23.4059 10.388L20.8879 13.731C20.835 13.8016 20.7643 13.8569 20.683 13.8913C20.6017 13.9258 20.5128 13.9381 20.4253 13.927C20.3377 13.9159 20.2546 13.8819 20.1845 13.8283C20.1144 13.7747 20.0597 13.7036 20.0259 13.622L19.2129 11.659L18.3999 9.691Z" fill="#9FEAFF" stroke="#00303E" stroke-linecap="round" stroke-linejoin="round"/>
<path d="M19.163 11.612C17.043 12.4896 15.2309 13.9763 13.9558 15.8839C12.6808 17.7916 12.0002 20.0345 12 22.329V23.5" stroke="#00303E" stroke-linecap="round" stroke-linejoin="round"/>
<path d="M12 5.5V23" stroke="#00303E" stroke-linecap="round" stroke-linejoin="round"/>
</g>
<defs>
<clipPath id="clip0_3303_3577">
<rect width="24" height="24" fill="white"/>
</clipPath>
</defs>
</svg>
