<svg width="24" height="24" viewBox="0 0 24 24" fill="none" xmlns="http://www.w3.org/2000/svg">
<path d="M5.5 12C5.5 13.7239 6.18482 15.3772 7.40381 16.5962C8.62279 17.8152 10.2761 18.5 12 18.5C13.7239 18.5 15.3772 17.8152 16.5962 16.5962C17.8152 15.3772 18.5 13.7239 18.5 12C18.5 10.2761 17.8152 8.62279 16.5962 7.40381C15.3772 6.18482 13.7239 5.5 12 5.5C10.2761 5.5 8.62279 6.18482 7.40381 7.40381C6.18482 8.62279 5.5 10.2761 5.5 12Z" fill="#DFF9FF"/>
<path d="M0.713989 10.353L3.50099 14.503L6.70599 10.665" stroke="#00303E" stroke-linecap="round" stroke-linejoin="round"/>
<path d="M23.2859 14.655L20.5009 10.503L17.2939 14.342" stroke="#00303E" stroke-linecap="round" stroke-linejoin="round"/>
<path d="M20.464 10.54C20.8021 12.6833 20.3197 14.8753 19.1131 16.6786C17.9064 18.482 16.0642 19.764 13.9539 20.269C12.5519 20.6016 11.0882 20.5719 9.70079 20.1828C8.31334 19.7938 7.04769 19.0581 6.02295 18.045" stroke="#00303E" stroke-linecap="round" stroke-linejoin="round"/>
<path d="M3.50501 14.479C3.22197 13.3435 3.16688 12.1631 3.34294 11.0061C3.51899 9.84909 3.92269 8.7385 4.53069 7.73853C5.13868 6.73856 5.93891 5.86907 6.88508 5.18033C7.83125 4.4916 8.90459 3.99729 10.043 3.72601C11.5397 3.37136 13.1046 3.42981 14.5706 3.89513C16.0367 4.36044 17.3488 5.21515 18.367 6.36801" stroke="#00303E" stroke-linecap="round" stroke-linejoin="round"/>
</svg>
