<svg width="24" height="24" viewBox="0 0 24 24" fill="none" xmlns="http://www.w3.org/2000/svg">
<path d="M5.5 12C5.5 13.7239 6.18482 15.3772 7.40381 16.5962C8.62279 17.8152 10.2761 18.5 12 18.5C13.7239 18.5 15.3772 17.8152 16.5962 16.5962C17.8152 15.3772 18.5 13.7239 18.5 12C18.5 10.2761 17.8152 8.62279 16.5962 7.40381C15.3772 6.18482 13.7239 5.5 12 5.5C10.2761 5.5 8.62279 6.18482 7.40381 7.40381C6.18482 8.62279 5.5 10.2761 5.5 12Z" fill="#DFF9FF"/>
<path d="M0.713013 10.36L3.50101 14.51L6.70501 10.672" stroke="#00303E" stroke-linecap="round" stroke-linejoin="round"/>
<path d="M23.2859 14.66L20.5009 10.51L17.2939 14.35" stroke="#00303E" stroke-linecap="round" stroke-linejoin="round"/>
<path d="M20.463 10.549C20.8012 12.6918 20.3191 14.8833 19.1128 16.6862C17.9065 18.4892 16.0647 19.771 13.955 20.276C12.5529 20.6083 11.0892 20.5785 9.70179 20.1892C8.31435 19.8 7.04874 19.0642 6.02405 18.051" stroke="#00303E" stroke-linecap="round" stroke-linejoin="round"/>
<path d="M3.505 14.485C3.22157 13.3496 3.16619 12.1692 3.34209 11.0122C3.51799 9.8552 3.92166 8.7446 4.52973 7.7447C5.1378 6.74479 5.93819 5.87545 6.88456 5.18701C7.83092 4.49856 8.90446 4.0047 10.043 3.73401C11.5396 3.37837 13.1048 3.43614 14.5711 3.90114C16.0374 4.36614 17.3498 5.22089 18.368 6.37401" stroke="#00303E" stroke-linecap="round" stroke-linejoin="round"/>
<path d="M10.5 15.506H14.5C14.7652 15.506 15.0196 15.4007 15.2071 15.2131C15.3946 15.0256 15.5 14.7712 15.5 14.506V11.506C15.5 11.2408 15.3946 10.9864 15.2071 10.7989C15.0196 10.6114 14.7652 10.506 14.5 10.506H10.5C10.2348 10.506 9.98043 10.6114 9.79289 10.7989C9.60536 10.9864 9.5 11.2408 9.5 11.506V14.506C9.5 14.7712 9.60536 15.0256 9.79289 15.2131C9.98043 15.4007 10.2348 15.506 10.5 15.506Z" fill="#9FEAFF" stroke="#00303E" stroke-linecap="round" stroke-linejoin="round"/>
<path d="M12.5 7.50601C11.9696 7.50601 11.4609 7.71673 11.0858 8.0918C10.7107 8.46687 10.5 8.97558 10.5 9.50601V10.506H14.5V9.50601C14.5 8.97558 14.2893 8.46687 13.9142 8.0918C13.5391 7.71673 13.0304 7.50601 12.5 7.50601Z" stroke="#00303E" stroke-linecap="round" stroke-linejoin="round"/>
<path d="M12.5 12.776C12.4506 12.776 12.4022 12.7907 12.3611 12.8181C12.32 12.8456 12.288 12.8846 12.269 12.9303C12.2501 12.976 12.2452 13.0263 12.2548 13.0748C12.2644 13.1233 12.2883 13.1678 12.3232 13.2028C12.3582 13.2377 12.4027 13.2616 12.4512 13.2712C12.4997 13.2808 12.55 13.2759 12.5957 13.257C12.6414 13.238 12.6804 13.206 12.7079 13.1649C12.7353 13.1238 12.75 13.0754 12.75 13.026C12.75 12.9597 12.7237 12.8961 12.6768 12.8492C12.6299 12.8023 12.5663 12.776 12.5 12.776Z" stroke="#00303E" stroke-linecap="round" stroke-linejoin="round"/>
</svg>
