<svg width="24" height="24" viewBox="0 0 24 24" fill="none" xmlns="http://www.w3.org/2000/svg">
<g clip-path="url(#clip0_3303_3593)">
<path d="M22.25 8.62V18.22C22.2445 18.4798 22.1361 18.7269 21.9486 18.9069C21.7611 19.0869 21.5099 19.1851 21.25 19.18H2.25C1.99015 19.1851 1.7389 19.0869 1.55141 18.9069C1.36392 18.7269 1.25551 18.4798 1.25 18.22V4.78C1.25551 4.52015 1.36392 4.27312 1.55141 4.09313C1.7389 3.91314 1.99015 3.81491 2.25 3.82H21.25C21.5152 3.82 21.7696 3.92535 21.9571 4.11289C22.1446 4.30043 22.25 4.55478 22.25 4.82V8.62Z" fill="#9FEAFF"/>
<path d="M11.75 14.38C12.6596 14.3982 13.5392 14.0545 14.1955 13.4245C14.8518 12.7944 15.2311 11.9296 15.25 11.02C15.2311 10.1104 14.8518 9.24556 14.1955 8.61551C13.5392 7.98546 12.6596 7.64178 11.75 7.66C10.8404 7.64178 9.96079 7.98546 9.30449 8.61551C8.64819 9.24556 8.2689 10.1104 8.25 11.02C8.2689 11.9296 8.64819 12.7944 9.30449 13.4245C9.96079 14.0545 10.8404 14.3982 11.75 14.38Z" fill="white"/>
<path d="M11.75 11.02L16.25 6.7" stroke="#00303E" stroke-linecap="round" stroke-linejoin="round"/>
<path d="M16.836 3.258C16.6517 3.43309 16.5048 3.64367 16.4041 3.87706C16.3034 4.11045 16.251 4.36181 16.25 4.616V6.7H18.921C19.4474 6.70188 19.9543 6.50057 20.336 6.138L22.75 3.82H19.25V0.940002L16.836 3.258Z" fill="#9FEAFF" stroke="#00303E" stroke-linecap="round" stroke-linejoin="round"/>
<path d="M14.75 23.02H8.75C9.60447 21.9084 10.1248 20.5765 10.25 19.18H13.25C13.3772 20.576 13.8973 21.9074 14.75 23.02Z" fill="white" stroke="#00303E" stroke-linecap="round" stroke-linejoin="round"/>
<path d="M7.27502 23.06L16.75 23.02" stroke="#00303E" stroke-linecap="round" stroke-linejoin="round"/>
<path d="M2.25 19.18H21.25C21.5099 19.1851 21.7611 19.0869 21.9486 18.9069C22.1361 18.7269 22.2445 18.4798 22.25 18.22V16.3H1.25V18.22C1.25551 18.4798 1.36392 18.7269 1.55141 18.9069C1.7389 19.0869 1.99015 19.1851 2.25 19.18Z" fill="white" stroke="#00303E" stroke-linecap="round" stroke-linejoin="round"/>
<path d="M22.25 8.62V18.22C22.2445 18.4798 22.1361 18.7269 21.9486 18.9069C21.7611 19.0869 21.5099 19.1851 21.25 19.18H2.25C1.99015 19.1851 1.7389 19.0869 1.55141 18.9069C1.36392 18.7269 1.25551 18.4798 1.25 18.22V4.78C1.25551 4.52015 1.36392 4.27312 1.55141 4.09313C1.7389 3.91314 1.99015 3.81491 2.25 3.82H12.166" stroke="#00303E" stroke-linecap="round" stroke-linejoin="round"/>
</g>
<defs>
<clipPath id="clip0_3303_3593">
<rect width="24" height="24" fill="white"/>
</clipPath>
</defs>
</svg>
