<svg width="24" height="24" viewBox="0 0 24 24" fill="none" xmlns="http://www.w3.org/2000/svg">
<g clip-path="url(#clip0_3303_3614)">
<path d="M12.5 12.5C12.2348 12.5 11.9804 12.6054 11.7929 12.7929C11.6054 12.9804 11.5 13.2348 11.5 13.5V19.5C11.5 19.7652 11.6054 20.0196 11.7929 20.2071C11.9804 20.3946 12.2348 20.5 12.5 20.5H14.5V23L17 20.5H22.5C22.7652 20.5 23.0196 20.3946 23.2071 20.2071C23.3946 20.0196 23.5 19.7652 23.5 19.5V13.5C23.5 13.2348 23.3946 12.9804 23.2071 12.7929C23.0196 12.6054 22.7652 12.5 22.5 12.5H12.5Z" fill="#9FEAFF"/>
<path d="M12.5 12.5C12.2348 12.5 11.9804 12.6054 11.7929 12.7929C11.6054 12.9804 11.5 13.2348 11.5 13.5V19.5C11.5 19.7652 11.6054 20.0196 11.7929 20.2071C11.9804 20.3946 12.2348 20.5 12.5 20.5H13.2L21.2 12.5H12.5Z" fill="#DFF9FF"/>
<path d="M11.5 0.5C11.7652 0.5 12.0196 0.605357 12.2071 0.792893C12.3946 0.98043 12.5 1.23478 12.5 1.5V7.5C12.5 7.76522 12.3946 8.01957 12.2071 8.20711C12.0196 8.39464 11.7652 8.5 11.5 8.5H9.5V11L7 8.5H1.5C1.23478 8.5 0.98043 8.39464 0.792893 8.20711C0.605357 8.01957 0.5 7.76522 0.5 7.5V1.5C0.5 1.23478 0.605357 0.98043 0.792893 0.792893C0.98043 0.605357 1.23478 0.5 1.5 0.5H11.5Z" fill="#9FEAFF"/>
<path d="M1.5 0.5C1.23478 0.5 0.98043 0.605357 0.792893 0.792893C0.605357 0.98043 0.5 1.23478 0.5 1.5V7.5C0.5 7.76522 0.605357 8.01957 0.792893 8.20711C0.98043 8.39464 1.23478 8.5 1.5 8.5H2.2L10.2 0.5H1.5Z" fill="#DFF9FF"/>
<path d="M11.5 0.5C11.7652 0.5 12.0196 0.605357 12.2071 0.792893C12.3946 0.98043 12.5 1.23478 12.5 1.5V7.5C12.5 7.76522 12.3946 8.01957 12.2071 8.20711C12.0196 8.39464 11.7652 8.5 11.5 8.5H9.5V11L7 8.5H1.5C1.23478 8.5 0.98043 8.39464 0.792893 8.20711C0.605357 8.01957 0.5 7.76522 0.5 7.5V1.5C0.5 1.23478 0.605357 0.98043 0.792893 0.792893C0.98043 0.605357 1.23478 0.5 1.5 0.5H11.5Z" stroke="#00303E" stroke-linecap="round" stroke-linejoin="round"/>
<path d="M23.332 10.5C22.8934 9.73904 22.2621 9.10702 21.5017 8.66758C20.7412 8.22813 19.8783 7.99677 19 7.99677C18.1217 7.99677 17.2589 8.22813 16.4984 8.66758C15.7379 9.10702 15.1066 9.73904 14.668 10.5" fill="#9FEAFF"/>
<path d="M23.332 10.5C22.8934 9.73904 22.2621 9.10702 21.5017 8.66758C20.7412 8.22813 19.8783 7.99677 19 7.99677C18.1217 7.99677 17.2589 8.22813 16.4984 8.66758C15.7379 9.10702 15.1066 9.73904 14.668 10.5" stroke="#00303E" stroke-linecap="round" stroke-linejoin="round"/>
<path d="M9.33197 23.5C8.89338 22.739 8.26207 22.107 7.50159 21.6676C6.74111 21.2281 5.87829 20.9968 4.99997 20.9968C4.12165 20.9968 3.25883 21.2281 2.49835 21.6676C1.73786 22.107 1.10656 22.739 0.667969 23.5" fill="#9FEAFF"/>
<path d="M9.33197 23.5C8.89338 22.739 8.26207 22.107 7.50159 21.6676C6.74111 21.2281 5.87829 20.9968 4.99997 20.9968C4.12165 20.9968 3.25883 21.2281 2.49835 21.6676C1.73786 22.107 1.10656 22.739 0.667969 23.5" stroke="#00303E" stroke-linecap="round" stroke-linejoin="round"/>
<path d="M10 4.5H3.5" stroke="#00303E" stroke-linecap="round" stroke-linejoin="round"/>
<path d="M5.5 3L3.5 4.5L5.5 6" stroke="#00303E" stroke-linecap="round" stroke-linejoin="round"/>
<path d="M14 16.5H20.5" stroke="#00303E" stroke-linecap="round" stroke-linejoin="round"/>
<path d="M18.5 15L20.5 16.5L18.5 18" stroke="#00303E" stroke-linecap="round" stroke-linejoin="round"/>
<path d="M21.97 3.08001C21.4412 3.36266 20.8496 3.50713 20.25 3.50001C19.5455 3.50026 18.8551 3.3026 18.2575 2.92954C17.6599 2.55648 17.1791 2.02304 16.87 1.39001C17.2632 0.993621 17.7592 0.714817 18.3022 0.584961C18.8451 0.455104 19.4136 0.479348 19.9436 0.654965C20.4735 0.830582 20.944 1.1506 21.302 1.57902C21.66 2.00745 21.8913 2.52727 21.97 3.08001Z" fill="#9FEAFF" stroke="#00303E" stroke-linecap="round" stroke-linejoin="round"/>
<path d="M22 3.50001C22 4.29566 21.684 5.05873 21.1214 5.62134C20.5587 6.18394 19.7957 6.50001 19 6.50001C18.2044 6.50001 17.4413 6.18394 16.8787 5.62134C16.3161 5.05873 16 4.29566 16 3.50001C15.9982 3.10825 16.0742 2.72002 16.2236 2.35782C16.3729 1.99563 16.5926 1.66667 16.87 1.39001C17.1792 2.02304 17.66 2.55649 18.2576 2.92955C18.8552 3.30261 19.5455 3.50027 20.25 3.50001C20.8496 3.50714 21.4412 3.36267 21.97 3.08001C21.99 3.21913 22 3.35948 22 3.50001Z" fill="#DFF9FF" stroke="#00303E" stroke-linecap="round" stroke-linejoin="round"/>
<path d="M7.96902 16.077C7.44022 16.3597 6.84858 16.5041 6.24902 16.497C5.54453 16.4973 4.85415 16.2996 4.25654 15.9265C3.65894 15.5535 3.17817 15.02 2.86902 14.387C3.26219 13.9906 3.75818 13.7118 4.30118 13.582C4.84417 13.4521 5.41263 13.4764 5.9426 13.652C6.47257 13.8276 6.94302 14.1476 7.30101 14.576C7.65901 15.0045 7.89036 15.5243 7.96902 16.077Z" fill="#9FEAFF" stroke="#00303E" stroke-linecap="round" stroke-linejoin="round"/>
<path d="M8.00003 16.5C8.00003 17.2957 7.68396 18.0587 7.12135 18.6213C6.55874 19.1839 5.79568 19.5 5.00003 19.5C4.20438 19.5 3.44132 19.1839 2.87871 18.6213C2.3161 18.0587 2.00003 17.2957 2.00003 16.5C1.99825 16.1082 2.07423 15.72 2.22357 15.3578C2.37291 14.9956 2.59264 14.6667 2.87003 14.39C3.17918 15.023 3.65995 15.5565 4.25756 15.9295C4.85516 16.3026 5.54554 16.5003 6.25003 16.5C6.84959 16.5071 7.44123 16.3627 7.97003 16.08C7.98997 16.2191 7.99999 16.3595 8.00003 16.5Z" fill="#DFF9FF" stroke="#00303E" stroke-linecap="round" stroke-linejoin="round"/>
<path d="M12.5 12.5C12.2348 12.5 11.9804 12.6054 11.7929 12.7929C11.6054 12.9804 11.5 13.2348 11.5 13.5V19.5C11.5 19.7652 11.6054 20.0196 11.7929 20.2071C11.9804 20.3946 12.2348 20.5 12.5 20.5H14.5V23L17 20.5H22.5C22.7652 20.5 23.0196 20.3946 23.2071 20.2071C23.3946 20.0196 23.5 19.7652 23.5 19.5V13.5C23.5 13.2348 23.3946 12.9804 23.2071 12.7929C23.0196 12.6054 22.7652 12.5 22.5 12.5H12.5Z" stroke="#00303E" stroke-linecap="round" stroke-linejoin="round"/>
</g>
<defs>
<clipPath id="clip0_3303_3614">
<rect width="24" height="24" fill="white"/>
</clipPath>
</defs>
</svg>
