<svg width="24" height="24" viewBox="0 0 24 24" fill="none" xmlns="http://www.w3.org/2000/svg">
<g clip-path="url(#clip0_3303_13952)">
<path d="M12.5 23.5V0.5" stroke="#00303E" stroke-linecap="round" stroke-linejoin="round"/>
<path d="M2.189 4.75C2.189 5.61195 2.53141 6.4386 3.1409 7.0481C3.75039 7.65759 4.57704 8 5.439 8C6.30095 8 7.1276 7.65759 7.73709 7.0481C8.34659 6.4386 8.689 5.61195 8.689 4.75C8.689 3.88805 8.34659 3.0614 7.73709 2.4519C7.1276 1.84241 6.30095 1.5 5.439 1.5C4.57704 1.5 3.75039 1.84241 3.1409 2.4519C2.53141 3.0614 2.189 3.88805 2.189 4.75Z" fill="#DFF9FF" stroke="#00303E" stroke-linecap="round" stroke-linejoin="round"/>
<path d="M8.635 5.286C8.66767 5.10912 8.68573 4.92985 8.689 4.75C8.689 3.88805 8.34659 3.0614 7.73709 2.4519C7.1276 1.84241 6.30095 1.5 5.439 1.5C4.57704 1.5 3.75039 1.84241 3.1409 2.4519C2.53141 3.0614 2.189 3.88805 2.189 4.75C2.19176 4.92987 2.20983 5.10919 2.243 5.286C2.85038 5.27769 3.44914 5.141 3.99996 4.88489C4.55078 4.62878 5.04119 4.25906 5.439 3.8C5.83651 4.25941 6.32687 4.62936 6.87775 4.8855C7.42863 5.14164 8.02753 5.27813 8.635 5.286Z" fill="#9FEAFF" stroke="#00303E" stroke-linecap="round" stroke-linejoin="round"/>
<path d="M7.48601 9.95494C6.90088 9.52619 6.19485 9.29404 5.46946 9.29189C4.74406 9.28973 4.03667 9.51767 3.44901 9.94294L5.50001 13.4999L7.48601 9.95494Z" fill="#DFF9FF" stroke="#00303E" stroke-linecap="round" stroke-linejoin="round"/>
<path d="M8.817 11.967C8.62767 11.159 8.15557 10.4453 7.486 9.95499L5.5 13.5L3.449 9.94299C2.77025 10.4332 2.29124 11.1519 2.1 11.967L0.5 17.5H3L4 22.5H7L8 17.5H10.5L8.817 11.967Z" fill="#9FEAFF"/>
<path d="M5.5 13.5L3.449 9.94299C2.77025 10.4332 2.29124 11.1519 2.1 11.967L0.5 17.5H3L4 22.5H5.5V13.5Z" fill="#DFF9FF"/>
<path d="M8.817 11.967C8.62767 11.159 8.15557 10.4453 7.486 9.95499L5.5 13.5L3.449 9.94299C2.77025 10.4332 2.29124 11.1519 2.1 11.967L0.5 17.5H3L4 22.5H7L8 17.5H10.5L8.817 11.967Z" stroke="#00303E" stroke-linecap="round" stroke-linejoin="round"/>
<path d="M15.75 4.75C15.75 5.61195 16.0924 6.4386 16.7019 7.0481C17.3114 7.65759 18.138 8 19 8C19.862 8 20.6886 7.65759 21.2981 7.0481C21.9076 6.4386 22.25 5.61195 22.25 4.75C22.25 3.88805 21.9076 3.0614 21.2981 2.4519C20.6886 1.84241 19.862 1.5 19 1.5C18.138 1.5 17.3114 1.84241 16.7019 2.4519C16.0924 3.0614 15.75 3.88805 15.75 4.75Z" fill="#DFF9FF" stroke="#00303E" stroke-linecap="round" stroke-linejoin="round"/>
<path d="M20.083 4.75003C20.8128 4.75079 21.5351 4.60314 22.206 4.31603C22.1206 3.6455 21.827 3.01866 21.3665 2.52387C20.906 2.02907 20.3018 1.69127 19.6391 1.55807C18.9765 1.42487 18.2887 1.50299 17.6728 1.78142C17.0568 2.05985 16.5438 2.52456 16.206 3.11003C16.7095 3.62905 17.3121 4.04166 17.9781 4.32338C18.6441 4.60509 19.3599 4.75018 20.083 4.75003Z" fill="#9FEAFF" stroke="#00303E" stroke-linecap="round" stroke-linejoin="round"/>
<path d="M20.5 22.5L21.5 17H23.5V14C23.5 12.8065 23.0259 11.6619 22.182 10.818C21.3381 9.97411 20.1935 9.5 19 9.5C17.8065 9.5 16.6619 9.97411 15.818 10.818C14.9741 11.6619 14.5 12.8065 14.5 14V17H16.5L17.5 22.5H20.5Z" fill="#9FEAFF"/>
<path d="M19 9.5C17.8065 9.5 16.6619 9.97411 15.818 10.818C14.9741 11.6619 14.5 12.8065 14.5 14V17H16.5L17.5 22.5H19V9.5Z" fill="#DFF9FF"/>
<path d="M20.5 22.5L21.5 17H23.5V14C23.5 12.8065 23.0259 11.6619 22.182 10.818C21.3381 9.97411 20.1935 9.5 19 9.5C17.8065 9.5 16.6619 9.97411 15.818 10.818C14.9741 11.6619 14.5 12.8065 14.5 14V17H16.5L17.5 22.5H20.5Z" stroke="#00303E" stroke-linecap="round" stroke-linejoin="round"/>
</g>
<defs>
<clipPath id="clip0_3303_13952">
<rect width="24" height="24" fill="white"/>
</clipPath>
</defs>
</svg>
