<svg width="24" height="24" viewBox="0 0 24 24" fill="none" xmlns="http://www.w3.org/2000/svg">
<g clip-path="url(#clip0_3303_2634)">
<path d="M3.326 2.5H20.674C20.674 2.5 21.5 2.5 21.5 3.326V20.674C21.5 20.674 21.5 21.5 20.674 21.5H3.326C3.326 21.5 2.5 21.5 2.5 20.674V3.326C2.5 3.326 2.5 2.5 3.326 2.5Z" fill="#9FEAFF"/>
<path d="M6 14.5C6 16.0913 6.63214 17.6174 7.75736 18.7426C8.88258 19.8679 10.4087 20.5 12 20.5C13.5913 20.5 15.1174 19.8679 16.2426 18.7426C17.3679 17.6174 18 16.0913 18 14.5V9.5C18 7.9087 17.3679 6.38258 16.2426 5.25736C15.1174 4.13214 13.5913 3.5 12 3.5C10.4087 3.5 8.88258 4.13214 7.75736 5.25736C6.63214 6.38258 6 7.9087 6 9.5V14.5Z" fill="#DFF9FF"/>
<path d="M12 3.5C10.4087 3.5 8.88258 4.13214 7.75736 5.25736C6.63214 6.38258 6 7.9087 6 9.5V14.5C6 16.0913 6.63214 17.6174 7.75736 18.7426C8.88258 19.8679 10.4087 20.5 12 20.5V3.5Z" fill="white"/>
<path d="M8.5 23.5H1.5C1.23478 23.5 0.98043 23.3946 0.792893 23.2071C0.605357 23.0196 0.5 22.7652 0.5 22.5V15.5" stroke="#00303E" stroke-linecap="round" stroke-linejoin="round"/>
<path d="M8.5 0.5H1.5C1.23478 0.5 0.98043 0.605357 0.792893 0.792893C0.605357 0.98043 0.5 1.23478 0.5 1.5V8.5" stroke="#00303E" stroke-linecap="round" stroke-linejoin="round"/>
<path d="M15.5 23.5H22.5C22.7652 23.5 23.0196 23.3946 23.2071 23.2071C23.3946 23.0196 23.5 22.7652 23.5 22.5V15.5" stroke="#00303E" stroke-linecap="round" stroke-linejoin="round"/>
<path d="M15.5 0.5H22.5C22.7652 0.5 23.0196 0.605357 23.2071 0.792893C23.3946 0.98043 23.5 1.23478 23.5 1.5V8.5" stroke="#00303E" stroke-linecap="round" stroke-linejoin="round"/>
<path d="M6.34399 7.49399C6.6377 6.66575 7.10976 5.91213 7.7268 5.28641C8.34384 4.6607 9.0908 4.17816 9.91486 3.87292C10.7389 3.56767 11.62 3.44717 12.4957 3.51993C13.3715 3.59269 14.2206 3.85694 14.983 4.29399" stroke="#00303E" stroke-linecap="round" stroke-linejoin="round"/>
<path d="M8 18.971C7.37004 18.4091 6.86614 17.7202 6.52144 16.9496C6.17673 16.179 5.99903 15.3442 6 14.5V9.5" stroke="#00303E" stroke-linecap="round" stroke-linejoin="round"/>
<path d="M16.472 18.5C15.6796 19.3848 14.6428 20.0148 13.4925 20.3106C12.3421 20.6064 11.13 20.5547 10.009 20.162" stroke="#00303E" stroke-linecap="round" stroke-linejoin="round"/>
<path d="M16.474 5.5C17.4588 6.59937 18.0023 8.02405 18 9.5V14.5C18.0008 15.1777 17.8865 15.8506 17.662 16.49" stroke="#00303E" stroke-linecap="round" stroke-linejoin="round"/>
<path d="M10.026 6.02001C10.6346 5.67471 11.323 5.49508 12.0227 5.49906C12.7224 5.50303 13.4088 5.69047 14.0134 6.04266C14.618 6.39485 15.1196 6.89947 15.4682 7.50614C15.8168 8.11282 16.0002 8.80032 16 9.50001V11" stroke="#00303E" stroke-linecap="round" stroke-linejoin="round"/>
<path d="M10 12.493V9.5C10 8.96957 10.2107 8.46086 10.5858 8.08579C10.9609 7.71071 11.4696 7.5 12 7.5C12.5304 7.5 13.0391 7.71071 13.4142 8.08579C13.7893 8.46086 14 8.96957 14 9.5V14.5C14 15.0304 13.7893 15.5391 13.4142 15.9142C13.0391 16.2893 12.5304 16.5 12 16.5C11.4696 16.5 10.9609 16.2893 10.5858 15.9142C10.2107 15.5391 10 15.0304 10 14.5" stroke="#00303E" stroke-linecap="round" stroke-linejoin="round"/>
<path d="M12 9.5V11.5" stroke="#00303E" stroke-linecap="round" stroke-linejoin="round"/>
<path d="M16 13V14.5C16 15.5609 15.5786 16.5783 14.8284 17.3284C14.0783 18.0786 13.0609 18.5 12 18.5C10.9391 18.5 9.92173 18.0786 9.17158 17.3284C8.42144 16.5783 8.00001 15.5609 8.00001 14.5V9.50001C7.99864 8.8168 8.17362 8.1448 8.50801 7.54901" stroke="#00303E" stroke-linecap="round" stroke-linejoin="round"/>
<path d="M12 13.5V14.5" stroke="#00303E" stroke-linecap="round" stroke-linejoin="round"/>
</g>
<defs>
<clipPath id="clip0_3303_2634">
<rect width="24" height="24" fill="white"/>
</clipPath>
</defs>
</svg>
