<svg width="24" height="24" viewBox="0 0 24 24" fill="none" xmlns="http://www.w3.org/2000/svg">
<g clip-path="url(#clip0_3303_2680)">
<path d="M12.5 11.5H22.5C22.5 11.5 23.5 11.5 23.5 12.5V22.5C23.5 22.5 23.5 23.5 22.5 23.5H12.5C12.5 23.5 11.5 23.5 11.5 22.5V12.5C11.5 12.5 11.5 11.5 12.5 11.5Z" fill="#9FEAFF"/>
<path d="M23.5 14.5V12.5C23.5 12.2348 23.3946 11.9804 23.2071 11.7929C23.0196 11.6054 22.7652 11.5 22.5 11.5H12.5C12.2348 11.5 11.9804 11.6054 11.7929 11.7929C11.6054 11.9804 11.5 12.2348 11.5 12.5V14.5H23.5Z" fill="#DFF9FF"/>
<path d="M1.5 0.497986H11.5C11.5 0.497986 12.5 0.497986 12.5 1.49799V11.498C12.5 11.498 12.5 12.498 11.5 12.498H1.5C1.5 12.498 0.5 12.498 0.5 11.498V1.49799C0.5 1.49799 0.5 0.497986 1.5 0.497986Z" fill="#9FEAFF"/>
<path d="M12.5 3.5V1.5C12.5 1.23478 12.3946 0.98043 12.2071 0.792893C12.0196 0.605357 11.7652 0.5 11.5 0.5H1.5C1.23478 0.5 0.98043 0.605357 0.792893 0.792893C0.605357 0.98043 0.5 1.23478 0.5 1.5V3.5H12.5Z" fill="#DFF9FF"/>
<path d="M1.5 0.497986H11.5C11.5 0.497986 12.5 0.497986 12.5 1.49799V11.498C12.5 11.498 12.5 12.498 11.5 12.498H1.5C1.5 12.498 0.5 12.498 0.5 11.498V1.49799C0.5 1.49799 0.5 0.497986 1.5 0.497986Z" stroke="#00303E" stroke-linecap="round" stroke-linejoin="round"/>
<path d="M2.53101 4.49799H10.5" stroke="#00303E" stroke-linecap="round" stroke-linejoin="round"/>
<path d="M6.5 2.49799V4.49799" stroke="#00303E" stroke-linecap="round" stroke-linejoin="round"/>
<path d="M9 4.5C8.60289 5.93295 7.84157 7.23869 6.79013 8.29013C5.73869 9.34157 4.43295 10.1029 3 10.5" stroke="#00303E" stroke-linecap="round" stroke-linejoin="round"/>
<path d="M4 4.5C4.39711 5.93295 5.15843 7.23869 6.20987 8.29013C7.26131 9.34157 8.56705 10.1029 10 10.5" stroke="#00303E" stroke-linecap="round" stroke-linejoin="round"/>
<path d="M14.5 21.5L17.032 14.749C17.0678 14.6538 17.1318 14.5718 17.2154 14.5139C17.299 14.456 17.3983 14.425 17.5 14.425C17.6017 14.425 17.701 14.456 17.7846 14.5139C17.8682 14.5718 17.9322 14.6538 17.968 14.749L20.5 21.5" stroke="#00303E" stroke-linecap="round" stroke-linejoin="round"/>
<path d="M15.25 19.498H19.762" stroke="#00303E" stroke-linecap="round" stroke-linejoin="round"/>
<path d="M15 11.5H22.5C22.7652 11.5 23.0196 11.6054 23.2071 11.7929C23.3946 11.9804 23.5 12.2348 23.5 12.5V22.5C23.5 22.7652 23.3946 23.0196 23.2071 23.2071C23.0196 23.3946 22.7652 23.5 22.5 23.5H12.5C12.2348 23.5 11.9804 23.3946 11.7929 23.2071C11.6054 23.0196 11.5 22.7652 11.5 22.5V15" stroke="#00303E" stroke-linecap="round" stroke-linejoin="round"/>
<path d="M6 22.998L8 20.998L6 18.998" stroke="#00303E" stroke-linecap="round" stroke-linejoin="round"/>
<path d="M2 16C2 17.3261 2.52678 18.5979 3.46447 19.5355C4.40215 20.4732 5.67392 21 7 21H8" stroke="#00303E" stroke-linecap="round" stroke-linejoin="round"/>
<path d="M18 0.997986L16 2.99799L18 4.99799" stroke="#00303E" stroke-linecap="round" stroke-linejoin="round"/>
<path d="M22 8C22 6.67392 21.4732 5.40215 20.5355 4.46447C19.5979 3.52678 18.3261 3 17 3H16" stroke="#00303E" stroke-linecap="round" stroke-linejoin="round"/>
</g>
<defs>
<clipPath id="clip0_3303_2680">
<rect width="24" height="24" fill="white"/>
</clipPath>
</defs>
</svg>
