<svg width="24" height="24" viewBox="0 0 24 24" fill="none" xmlns="http://www.w3.org/2000/svg">
<path d="M2.50002 20.5C2.36699 20.4983 2.2356 20.4704 2.11334 20.4179C1.99109 20.3655 1.88037 20.2894 1.78751 20.1941C1.69465 20.0989 1.62146 19.9862 1.57214 19.8627C1.52281 19.7391 1.49831 19.607 1.50002 19.474V1.5C1.50002 1.23478 1.60538 0.98043 1.79292 0.792893C1.98045 0.605357 2.23481 0.5 2.50002 0.5H21.5C21.7652 0.5 22.0196 0.605357 22.2071 0.792893C22.3947 0.98043 22.5 1.23478 22.5 1.5V19.474C22.5017 19.607 22.4772 19.7391 22.4279 19.8627C22.3786 19.9862 22.3054 20.0989 22.2125 20.1941C22.1197 20.2894 22.009 20.3655 21.8867 20.4179C21.7645 20.4704 21.6331 20.4983 21.5 20.5H2.50002Z" fill="#DFF9FF"/>
<path d="M2.09002 20.41L21.911 0.589001C21.782 0.530184 21.6418 0.49983 21.5 0.500001H2.50002C2.2348 0.500001 1.98045 0.605358 1.79291 0.792894C1.60538 0.98043 1.50002 1.23478 1.50002 1.5V19.474C1.49876 19.6701 1.55365 19.8624 1.6582 20.0282C1.76275 20.1941 1.91259 20.3266 2.09002 20.41Z" fill="white"/>
<path d="M5.58802 20.5H2.50002C2.36699 20.4983 2.2356 20.4704 2.11334 20.4179C1.99109 20.3655 1.88037 20.2894 1.78751 20.1941C1.69465 20.0989 1.62146 19.9862 1.57214 19.8627C1.52281 19.7391 1.49831 19.607 1.50002 19.474V1.5C1.50002 1.23478 1.60538 0.98043 1.79292 0.792893C1.98045 0.605357 2.23481 0.5 2.50002 0.5H21.5C21.7652 0.5 22.0196 0.605357 22.2071 0.792893C22.3947 0.98043 22.5 1.23478 22.5 1.5V19.474C22.5017 19.607 22.4772 19.7391 22.4279 19.8627C22.3786 19.9862 22.3054 20.0989 22.2125 20.1941C22.1197 20.2894 22.009 20.3655 21.8867 20.4179C21.7645 20.4704 21.6331 20.4983 21.5 20.5H17.5" stroke="#00303E" stroke-linecap="round" stroke-linejoin="round"/>
<path d="M5.5 5.5H18.5" stroke="#00303E" stroke-linecap="round" stroke-linejoin="round"/>
<path d="M5.5 8.5H18.5" stroke="#00303E" stroke-linecap="round" stroke-linejoin="round"/>
<path d="M5.5 11.5H14" stroke="#00303E" stroke-linecap="round" stroke-linejoin="round"/>
<path d="M7.5 19.5C7.5 20.5609 7.92143 21.5783 8.67157 22.3284C9.42172 23.0786 10.4391 23.5 11.5 23.5C12.5609 23.5 13.5783 23.0786 14.3284 22.3284C15.0786 21.5783 15.5 20.5609 15.5 19.5C15.5 18.4391 15.0786 17.4217 14.3284 16.6716C13.5783 15.9214 12.5609 15.5 11.5 15.5C10.4391 15.5 9.42172 15.9214 8.67157 16.6716C7.92143 17.4217 7.5 18.4391 7.5 19.5Z" fill="#9FEAFF"/>
<path d="M8.67198 22.328C7.94335 21.5736 7.54017 20.5632 7.54928 19.5144C7.5584 18.4656 7.97907 17.4624 8.72071 16.7207C9.46234 15.9791 10.4656 15.5584 11.5144 15.5493C12.5632 15.5402 13.5736 15.9434 14.328 16.672L8.67198 22.328Z" fill="#9FEAFF"/>
<path d="M7.5 19.5C7.5 20.5609 7.92143 21.5783 8.67157 22.3284C9.42172 23.0786 10.4391 23.5 11.5 23.5C12.5609 23.5 13.5783 23.0786 14.3284 22.3284C15.0786 21.5783 15.5 20.5609 15.5 19.5C15.5 18.4391 15.0786 17.4217 14.3284 16.6716C13.5783 15.9214 12.5609 15.5 11.5 15.5C10.4391 15.5 9.42172 15.9214 8.67157 16.6716C7.92143 17.4217 7.5 18.4391 7.5 19.5Z" stroke="#00303E" stroke-linecap="round" stroke-linejoin="round"/>
<path d="M10 19.5L11 20.5L13 18.5" stroke="#00303E" stroke-linecap="round" stroke-linejoin="round"/>
</svg>
