<svg width="24" height="24" viewBox="0 0 24 24" fill="none" xmlns="http://www.w3.org/2000/svg">
<path d="M19.475 13.1L14.75 8.36902L8.65 10.931C8.2859 11.0349 7.95432 11.2299 7.68659 11.4976C7.41887 11.7653 7.22386 12.0969 7.12 12.461L4.366 22.79C4.33892 22.8856 4.33784 22.9866 4.36285 23.0827C4.38786 23.1788 4.43807 23.2665 4.50829 23.3367C4.57851 23.4069 4.6662 23.4572 4.76231 23.4822C4.85842 23.5072 4.95945 23.5061 5.055 23.479L15.384 20.73C15.748 20.626 16.0795 20.4309 16.3472 20.1632C16.6149 19.8955 16.81 19.564 16.914 19.2L19.475 13.1Z" fill="white"/>
<path d="M4.552 23.361C4.61953 23.4197 4.70033 23.4612 4.78744 23.4817C4.87454 23.5023 4.96534 23.5014 5.052 23.479L15.384 20.73C15.748 20.626 16.0795 20.4309 16.3472 20.1632C16.6149 19.8955 16.81 19.564 16.914 19.2L19.475 13.1L17.147 10.77L4.552 23.361Z" fill="#DFF9FF"/>
<path d="M1.5 4.5H8.5" stroke="#00303E" stroke-linecap="round" stroke-linejoin="round"/>
<path d="M5 1V8" stroke="#00303E" stroke-linecap="round" stroke-linejoin="round"/>
<path d="M19.394 5.138L22.706 8.45C22.8935 8.63753 22.9988 8.89184 22.9988 9.157C22.9988 9.42217 22.8935 9.67647 22.706 9.864L19.473 13.1L14.747 8.371L17.98 5.138C18.1675 4.95053 18.4218 4.84521 18.687 4.84521C18.9522 4.84521 19.2065 4.95053 19.394 5.138Z" fill="#9FEAFF"/>
<path d="M19.475 13.1L14.75 8.36902L8.65 10.931C8.2859 11.0349 7.95432 11.2299 7.68659 11.4976C7.41887 11.7653 7.22386 12.0969 7.12 12.461L4.366 22.79C4.33892 22.8856 4.33784 22.9866 4.36285 23.0827C4.38786 23.1788 4.43807 23.2665 4.50829 23.3367C4.57851 23.4069 4.6662 23.4572 4.76231 23.4822C4.85842 23.5072 4.95945 23.5061 5.055 23.479L15.384 20.73C15.748 20.626 16.0795 20.4309 16.3472 20.1632C16.6149 19.8955 16.81 19.564 16.914 19.2L19.475 13.1Z" stroke="#00303E" stroke-linecap="round" stroke-linejoin="round"/>
<path d="M4.508 23.337L12.014 15.831" stroke="#00303E" stroke-linecap="round" stroke-linejoin="round"/>
<path d="M19.394 5.138L22.706 8.45C22.8935 8.63753 22.9988 8.89184 22.9988 9.157C22.9988 9.42217 22.8935 9.67647 22.706 9.864L19.473 13.1L14.747 8.371L17.98 5.138C18.1675 4.95053 18.4218 4.84521 18.687 4.84521C18.9522 4.84521 19.2065 4.95053 19.394 5.138Z" stroke="#00303E" stroke-linecap="round" stroke-linejoin="round"/>
</svg>
