<svg width="24" height="24" viewBox="0 0 24 24" fill="none" xmlns="http://www.w3.org/2000/svg">
<path d="M2 12.56C1.90626 12.4663 1.85361 12.3391 1.85361 12.2065C1.85361 12.0739 1.90626 11.9468 2 11.853L3.792 10.06C3.88576 9.96629 4.01292 9.91364 4.1455 9.91364C4.27808 9.91364 4.40524 9.96629 4.499 10.06L6.292 11.853C6.38574 11.9468 6.43839 12.0739 6.43839 12.2065C6.43839 12.3391 6.38574 12.4663 6.292 12.56L4.5 14.354C4.40624 14.4478 4.27908 14.5004 4.1465 14.5004C4.01392 14.5004 3.88676 14.4478 3.793 14.354L2 12.56Z" fill="#9FEAFF"/>
<path d="M14.792 3.35302C14.8857 3.44678 14.9384 3.57394 14.9384 3.70652C14.9384 3.8391 14.8857 3.96625 14.792 4.06002L13 5.85302C12.9536 5.89958 12.8984 5.93652 12.8376 5.96173C12.7769 5.98694 12.7118 5.99991 12.646 5.99991C12.5802 5.99991 12.5151 5.98694 12.4544 5.96173C12.3936 5.93652 12.3384 5.89958 12.292 5.85302L10.5 4.06102C10.4534 4.01457 10.4165 3.9594 10.3913 3.89865C10.3661 3.83791 10.3531 3.77278 10.3531 3.70702C10.3531 3.64125 10.3661 3.57613 10.3913 3.51538C10.4165 3.45464 10.4534 3.39946 10.5 3.35302L12.292 1.56102C12.3384 1.51445 12.3936 1.47751 12.4544 1.4523C12.5151 1.4271 12.5802 1.41412 12.646 1.41412C12.7118 1.41412 12.7769 1.4271 12.8376 1.4523C12.8984 1.47751 12.9536 1.51445 13 1.56102L14.792 3.35302Z" fill="#9FEAFF"/>
<path d="M18 12.56C17.9063 12.4663 17.8536 12.3391 17.8536 12.2065C17.8536 12.0739 17.9063 11.9468 18 11.853L19.793 10.06C19.8868 9.96629 20.0139 9.91364 20.1465 9.91364C20.2791 9.91364 20.4062 9.96629 20.5 10.06L22.293 11.853C22.3867 11.9468 22.4394 12.0739 22.4394 12.2065C22.4394 12.3391 22.3867 12.4663 22.293 12.56L20.5 14.354C20.4062 14.4478 20.2791 14.5004 20.1465 14.5004C20.0139 14.5004 19.8868 14.4478 19.793 14.354L18 12.56Z" fill="#9FEAFF"/>
<path d="M10.5 21.06C10.4063 20.9663 10.3536 20.8391 10.3536 20.7065C10.3536 20.5739 10.4063 20.4468 10.5 20.353L12.293 18.56C12.3868 18.4663 12.5139 18.4136 12.6465 18.4136C12.7791 18.4136 12.9062 18.4663 13 18.56L14.793 20.353C14.8867 20.4468 14.9394 20.5739 14.9394 20.7065C14.9394 20.8391 14.8867 20.9663 14.793 21.06L13 22.854C12.9062 22.9478 12.7791 23.0004 12.6465 23.0004C12.5139 23.0004 12.3868 22.9478 12.293 22.854L10.5 21.06Z" fill="#9FEAFF"/>
<path d="M2 12.56C1.90626 12.4663 1.85361 12.3391 1.85361 12.2065C1.85361 12.0739 1.90626 11.9468 2 11.853L3.792 10.06C3.88576 9.96629 4.01292 9.91364 4.1455 9.91364C4.27808 9.91364 4.40524 9.96629 4.499 10.06L6.292 11.853C6.38574 11.9468 6.43839 12.0739 6.43839 12.2065C6.43839 12.3391 6.38574 12.4663 6.292 12.56L4.5 14.354C4.40624 14.4478 4.27908 14.5004 4.1465 14.5004C4.01392 14.5004 3.88676 14.4478 3.793 14.354L2 12.56Z" stroke="#00303E" stroke-linecap="round" stroke-linejoin="round"/>
<path d="M14.792 3.35302C14.8857 3.44678 14.9384 3.57394 14.9384 3.70652C14.9384 3.8391 14.8857 3.96625 14.792 4.06002L13 5.85302C12.9536 5.89958 12.8984 5.93652 12.8376 5.96173C12.7769 5.98694 12.7118 5.99991 12.646 5.99991C12.5802 5.99991 12.5151 5.98694 12.4544 5.96173C12.3936 5.93652 12.3384 5.89958 12.292 5.85302L10.5 4.06102C10.4534 4.01457 10.4165 3.9594 10.3913 3.89865C10.3661 3.83791 10.3531 3.77278 10.3531 3.70702C10.3531 3.64125 10.3661 3.57613 10.3913 3.51538C10.4165 3.45464 10.4534 3.39946 10.5 3.35302L12.292 1.56102C12.3384 1.51445 12.3936 1.47751 12.4544 1.4523C12.5151 1.4271 12.5802 1.41412 12.646 1.41412C12.7118 1.41412 12.7769 1.4271 12.8376 1.4523C12.8984 1.47751 12.9536 1.51445 13 1.56102L14.792 3.35302Z" stroke="#00303E" stroke-linecap="round" stroke-linejoin="round"/>
<path d="M18 12.56C17.9063 12.4663 17.8536 12.3391 17.8536 12.2065C17.8536 12.0739 17.9063 11.9468 18 11.853L19.793 10.06C19.8868 9.96629 20.0139 9.91364 20.1465 9.91364C20.2791 9.91364 20.4062 9.96629 20.5 10.06L22.293 11.853C22.3867 11.9468 22.4394 12.0739 22.4394 12.2065C22.4394 12.3391 22.3867 12.4663 22.293 12.56L20.5 14.354C20.4062 14.4478 20.2791 14.5004 20.1465 14.5004C20.0139 14.5004 19.8868 14.4478 19.793 14.354L18 12.56Z" stroke="#00303E" stroke-linecap="round" stroke-linejoin="round"/>
<path d="M10.5 21.06C10.4063 20.9663 10.3536 20.8391 10.3536 20.7065C10.3536 20.5739 10.4063 20.4468 10.5 20.353L12.293 18.56C12.3868 18.4663 12.5139 18.4136 12.6465 18.4136C12.7791 18.4136 12.9062 18.4663 13 18.56L14.793 20.353C14.8867 20.4468 14.9394 20.5739 14.9394 20.7065C14.9394 20.8391 14.8867 20.9663 14.793 21.06L13 22.854C12.9062 22.9478 12.7791 23.0004 12.6465 23.0004C12.5139 23.0004 12.3868 22.9478 12.293 22.854L10.5 21.06Z" stroke="#00303E" stroke-linecap="round" stroke-linejoin="round"/>
<path d="M11.4 19.457L5.39999 13.457" stroke="#00303E" stroke-linecap="round" stroke-linejoin="round"/>
<path d="M5.39999 10.957L11.4 4.95697" stroke="#00303E" stroke-linecap="round" stroke-linejoin="round"/>
<path d="M6.439 12.207H17.853" stroke="#00303E" stroke-linecap="round" stroke-linejoin="round"/>
</svg>
