<svg width="24" height="24" viewBox="0 0 24 24" fill="none" xmlns="http://www.w3.org/2000/svg">
<g clip-path="url(#clip0_3303_9615)">
<path d="M23.5 13.5C23.5 12.4391 23.0786 11.4217 22.3284 10.6716C21.5783 9.92143 20.5609 9.5 19.5 9.5H4.5C3.43913 9.5 2.42172 9.92143 1.67157 10.6716C0.921427 11.4217 0.5 12.4391 0.5 13.5V21.5C0.5 22.0304 0.710714 22.5391 1.08579 22.9142C1.46086 23.2893 1.96957 23.5 2.5 23.5C3.964 23.5 5.354 21.7 7.2 18.943C7.29139 18.8067 7.4149 18.6951 7.55965 18.6178C7.70439 18.5405 7.86593 18.5001 8.03 18.5H15.962C16.1261 18.5001 16.2876 18.5405 16.4324 18.6178C16.5771 18.6951 16.7006 18.8067 16.792 18.943C18.642 21.695 20.032 23.5 21.492 23.5C22.0224 23.5 22.5311 23.2893 22.9062 22.9142C23.2813 22.5391 23.492 22.0304 23.492 21.5L23.5 13.5Z" fill="#DFF9FF"/>
<path d="M19.5 9.5H4.5C3.43913 9.5 2.42172 9.92143 1.67157 10.6716C0.921427 11.4217 0.5 12.4391 0.5 13.5V16.5C0.5 15.4391 0.921427 14.4217 1.67157 13.6716C2.42172 12.9214 3.43913 12.5 4.5 12.5H19.5C20.5609 12.5 21.5783 12.9214 22.3284 13.6716C23.0786 14.4217 23.5 15.4391 23.5 16.5V13.5C23.5 12.4391 23.0786 11.4217 22.3284 10.6716C21.5783 9.92143 20.5609 9.5 19.5 9.5Z" fill="white"/>
<path d="M23.5 13.5C23.5 12.4391 23.0786 11.4217 22.3284 10.6716C21.5783 9.92143 20.5609 9.5 19.5 9.5H4.5C3.43913 9.5 2.42172 9.92143 1.67157 10.6716C0.921427 11.4217 0.5 12.4391 0.5 13.5V21.5C0.5 22.0304 0.710714 22.5391 1.08579 22.9142C1.46086 23.2893 1.96957 23.5 2.5 23.5C3.964 23.5 5.354 21.7 7.2 18.943C7.29139 18.8067 7.4149 18.6951 7.55965 18.6178C7.70439 18.5405 7.86593 18.5001 8.03 18.5H15.962C16.1261 18.5001 16.2876 18.5405 16.4324 18.6178C16.5771 18.6951 16.7006 18.8067 16.792 18.943C18.642 21.695 20.032 23.5 21.492 23.5C22.0224 23.5 22.5311 23.2893 22.9062 22.9142C23.2813 22.5391 23.492 22.0304 23.492 21.5L23.5 13.5Z" stroke="#00303E" stroke-linecap="round" stroke-linejoin="round"/>
<path d="M5.5 12.5V16.5" stroke="#00303E" stroke-linecap="round" stroke-linejoin="round"/>
<path d="M7.5 14.5H3.5" stroke="#00303E" stroke-linecap="round" stroke-linejoin="round"/>
<path d="M18.5 12.25C18.5663 12.25 18.6299 12.2763 18.6768 12.3232C18.7237 12.3701 18.75 12.4337 18.75 12.5" stroke="#00303E" stroke-linecap="round" stroke-linejoin="round"/>
<path d="M18.25 12.5C18.25 12.4337 18.2763 12.3701 18.3232 12.3232C18.3701 12.2763 18.4337 12.25 18.5 12.25" stroke="#00303E" stroke-linecap="round" stroke-linejoin="round"/>
<path d="M18.5 12.75C18.4337 12.75 18.3701 12.7237 18.3232 12.6768C18.2763 12.6299 18.25 12.5663 18.25 12.5" stroke="#00303E" stroke-linecap="round" stroke-linejoin="round"/>
<path d="M18.75 12.5C18.75 12.5663 18.7237 12.6299 18.6768 12.6768C18.6299 12.7237 18.5663 12.75 18.5 12.75" stroke="#00303E" stroke-linecap="round" stroke-linejoin="round"/>
<path d="M16.5 14.25C16.5663 14.25 16.6299 14.2763 16.6768 14.3232C16.7237 14.3701 16.75 14.4337 16.75 14.5" stroke="#00303E" stroke-linecap="round" stroke-linejoin="round"/>
<path d="M16.25 14.5C16.25 14.4337 16.2763 14.3701 16.3232 14.3232C16.3701 14.2763 16.4337 14.25 16.5 14.25" stroke="#00303E" stroke-linecap="round" stroke-linejoin="round"/>
<path d="M16.5 14.75C16.4337 14.75 16.3701 14.7237 16.3232 14.6768C16.2763 14.6299 16.25 14.5663 16.25 14.5" stroke="#00303E" stroke-linecap="round" stroke-linejoin="round"/>
<path d="M16.75 14.5C16.75 14.5663 16.7237 14.6299 16.6768 14.6768C16.6299 14.7237 16.5663 14.75 16.5 14.75" stroke="#00303E" stroke-linecap="round" stroke-linejoin="round"/>
<path d="M18.5 16.25C18.5663 16.25 18.6299 16.2763 18.6768 16.3232C18.7237 16.3701 18.75 16.4337 18.75 16.5" stroke="#00303E" stroke-linecap="round" stroke-linejoin="round"/>
<path d="M18.25 16.5C18.25 16.4337 18.2763 16.3701 18.3232 16.3232C18.3701 16.2763 18.4337 16.25 18.5 16.25" stroke="#00303E" stroke-linecap="round" stroke-linejoin="round"/>
<path d="M18.5 16.75C18.4337 16.75 18.3701 16.7237 18.3232 16.6768C18.2763 16.6299 18.25 16.5663 18.25 16.5" stroke="#00303E" stroke-linecap="round" stroke-linejoin="round"/>
<path d="M18.75 16.5C18.75 16.5663 18.7237 16.6299 18.6768 16.6768C18.6299 16.7237 18.5663 16.75 18.5 16.75" stroke="#00303E" stroke-linecap="round" stroke-linejoin="round"/>
<path d="M20.5 14.25C20.5663 14.25 20.6299 14.2763 20.6768 14.3232C20.7237 14.3701 20.75 14.4337 20.75 14.5" stroke="#00303E" stroke-linecap="round" stroke-linejoin="round"/>
<path d="M20.25 14.5C20.25 14.4337 20.2763 14.3701 20.3232 14.3232C20.3701 14.2763 20.4337 14.25 20.5 14.25" stroke="#00303E" stroke-linecap="round" stroke-linejoin="round"/>
<path d="M20.5 14.75C20.4337 14.75 20.3701 14.7237 20.3232 14.6768C20.2763 14.6299 20.25 14.5663 20.25 14.5" stroke="#00303E" stroke-linecap="round" stroke-linejoin="round"/>
<path d="M20.75 14.5C20.75 14.5663 20.7237 14.6299 20.6768 14.6768C20.6299 14.7237 20.5663 14.75 20.5 14.75" stroke="#00303E" stroke-linecap="round" stroke-linejoin="round"/>
<path d="M10 2.5C10 3.03043 10.2107 3.53914 10.5858 3.91421C10.9609 4.28929 11.4696 4.5 12 4.5C12.5304 4.5 13.0391 4.28929 13.4142 3.91421C13.7893 3.53914 14 3.03043 14 2.5C14 1.96957 13.7893 1.46086 13.4142 1.08579C13.0391 0.710714 12.5304 0.5 12 0.5C11.4696 0.5 10.9609 0.710714 10.5858 1.08579C10.2107 1.46086 10 1.96957 10 2.5Z" fill="#DFF9FF" stroke="#00303E" stroke-linecap="round" stroke-linejoin="round"/>
<path d="M17 2.5C17 3.03043 17.2107 3.53914 17.5858 3.91421C17.9609 4.28929 18.4696 4.5 19 4.5C19.5304 4.5 20.0391 4.28929 20.4142 3.91421C20.7893 3.53914 21 3.03043 21 2.5C21 1.96957 20.7893 1.46086 20.4142 1.08579C20.0391 0.710714 19.5304 0.5 19 0.5C18.4696 0.5 17.9609 0.710714 17.5858 1.08579C17.2107 1.46086 17 1.96957 17 2.5Z" fill="#DFF9FF" stroke="#00303E" stroke-linecap="round" stroke-linejoin="round"/>
<path d="M3 2.5C3 3.03043 3.21071 3.53914 3.58579 3.91421C3.96086 4.28929 4.46957 4.5 5 4.5C5.53043 4.5 6.03914 4.28929 6.41421 3.91421C6.78929 3.53914 7 3.03043 7 2.5C7 1.96957 6.78929 1.46086 6.41421 1.08579C6.03914 0.710714 5.53043 0.5 5 0.5C4.46957 0.5 3.96086 0.710714 3.58579 1.08579C3.21071 1.46086 3 1.96957 3 2.5Z" fill="#DFF9FF" stroke="#00303E" stroke-linecap="round" stroke-linejoin="round"/>
<path d="M22.5 7.5C22.141 6.89103 21.6293 6.38628 21.0154 6.03561C20.4016 5.68494 19.7069 5.50049 19 5.50049C18.2931 5.50049 17.5984 5.68494 16.9846 6.03561C16.3707 6.38628 15.859 6.89103 15.5 7.5C15.141 6.89103 14.6293 6.38628 14.0154 6.03561C13.4016 5.68494 12.7069 5.50049 12 5.50049C11.2931 5.50049 10.5984 5.68494 9.98456 6.03561C9.37073 6.38628 8.85903 6.89103 8.5 7.5C8.14097 6.89103 7.62927 6.38628 7.01544 6.03561C6.40162 5.68494 5.70693 5.50049 5 5.50049C4.29307 5.50049 3.59838 5.68494 2.98456 6.03561C2.37073 6.38628 1.85903 6.89103 1.5 7.5" fill="#9FEAFF"/>
<path d="M22.5 7.5C22.141 6.89103 21.6293 6.38628 21.0154 6.03561C20.4016 5.68494 19.7069 5.50049 19 5.50049C18.2931 5.50049 17.5984 5.68494 16.9846 6.03561C16.3707 6.38628 15.859 6.89103 15.5 7.5C15.141 6.89103 14.6293 6.38628 14.0154 6.03561C13.4016 5.68494 12.7069 5.50049 12 5.50049C11.2931 5.50049 10.5984 5.68494 9.98456 6.03561C9.37073 6.38628 8.85903 6.89103 8.5 7.5C8.14097 6.89103 7.62927 6.38628 7.01544 6.03561C6.40162 5.68494 5.70693 5.50049 5 5.50049C4.29307 5.50049 3.59838 5.68494 2.98456 6.03561C2.37073 6.38628 1.85903 6.89103 1.5 7.5" stroke="#00303E" stroke-linecap="round" stroke-linejoin="round"/>
</g>
<defs>
<clipPath id="clip0_3303_9615">
<rect width="24" height="24" fill="white"/>
</clipPath>
</defs>
</svg>
