<svg width="24" height="24" viewBox="0 0 24 24" fill="none" xmlns="http://www.w3.org/2000/svg">
<path d="M15.5 23.5C16.1566 23.5 16.8068 23.3707 17.4134 23.1194C18.02 22.8681 18.5712 22.4998 19.0355 22.0355C19.4998 21.5712 19.8681 21.02 20.1194 20.4134C20.3707 19.8068 20.5 19.1566 20.5 18.5V2.5C20.4987 1.96997 20.2875 1.46203 19.9128 1.08724C19.538 0.712458 19.03 0.50132 18.5 0.5H5.5C4.96997 0.50132 4.46203 0.712458 4.08724 1.08724C3.71246 1.46203 3.50132 1.96997 3.5 2.5V21.5C3.50132 22.03 3.71246 22.538 4.08724 22.9128C4.46203 23.2875 4.96997 23.4987 5.5 23.5H15.5Z" fill="white"/>
<path d="M15.5 20.5H5.5C4.96997 20.4987 4.46203 20.2875 4.08724 19.9128C3.71246 19.538 3.50132 19.03 3.5 18.5V21.5C3.50132 22.03 3.71246 22.538 4.08724 22.9128C4.46203 23.2875 4.96997 23.4987 5.5 23.5H15.5C16.1566 23.5 16.8068 23.3707 17.4134 23.1194C18.02 22.8681 18.5712 22.4998 19.0355 22.0355C19.4998 21.5712 19.8681 21.02 20.1194 20.4134C20.3707 19.8068 20.5 19.1566 20.5 18.5V15.5C20.5 16.1566 20.3707 16.8068 20.1194 17.4134C19.8681 18.02 19.4998 18.5712 19.0355 19.0355C18.5712 19.4998 18.02 19.8681 17.4134 20.1194C16.8068 20.3707 16.1566 20.5 15.5 20.5Z" fill="#DFF9FF"/>
<path d="M15.5 23.5C16.1566 23.5 16.8068 23.3707 17.4134 23.1194C18.02 22.8681 18.5712 22.4998 19.0355 22.0355C19.4998 21.5712 19.8681 21.02 20.1194 20.4134C20.3707 19.8068 20.5 19.1566 20.5 18.5V2.5C20.4987 1.96997 20.2875 1.46203 19.9128 1.08724C19.538 0.712458 19.03 0.50132 18.5 0.5H5.5C4.96997 0.50132 4.46203 0.712458 4.08724 1.08724C3.71246 1.46203 3.50132 1.96997 3.5 2.5V21.5C3.50132 22.03 3.71246 22.538 4.08724 22.9128C4.46203 23.2875 4.96997 23.4987 5.5 23.5H15.5Z" stroke="#00303E" stroke-linecap="round" stroke-linejoin="round"/>
<path d="M7.5 3.5H16.5C16.5 3.5 17.5 3.5 17.5 4.5V10.5C17.5 10.5 17.5 11.5 16.5 11.5H7.5C7.5 11.5 6.5 11.5 6.5 10.5V4.5C6.5 4.5 6.5 3.5 7.5 3.5Z" fill="#9FEAFF"/>
<path d="M7.5 11.5L15.5 3.5H7.5C7.23478 3.5 6.98043 3.60536 6.79289 3.79289C6.60536 3.98043 6.5 4.23478 6.5 4.5V10.5C6.5 10.7652 6.60536 11.0196 6.79289 11.2071C6.98043 11.3946 7.23478 11.5 7.5 11.5Z" fill="#DFF9FF"/>
<path d="M7.5 3.5H16.5C16.5 3.5 17.5 3.5 17.5 4.5V10.5C17.5 10.5 17.5 11.5 16.5 11.5H7.5C7.5 11.5 6.5 11.5 6.5 10.5V4.5C6.5 4.5 6.5 3.5 7.5 3.5Z" stroke="#00303E" stroke-linecap="round" stroke-linejoin="round"/>
<path d="M9.5 16.5H5.5" stroke="#00303E" stroke-linecap="round" stroke-linejoin="round"/>
<path d="M7.5 14.5V18.5" stroke="#00303E" stroke-linecap="round" stroke-linejoin="round"/>
<path d="M12.5 21L13.5 20.5" stroke="#00303E" stroke-linecap="round" stroke-linejoin="round"/>
<path d="M9.5 21L10.5 20.5" stroke="#00303E" stroke-linecap="round" stroke-linejoin="round"/>
<path d="M18 14.75C18.0663 14.75 18.1299 14.7763 18.1768 14.8232C18.2237 14.8701 18.25 14.9337 18.25 15" stroke="#00303E" stroke-linecap="round" stroke-linejoin="round"/>
<path d="M17.75 15C17.75 14.9337 17.7763 14.8701 17.8232 14.8232C17.8701 14.7763 17.9337 14.75 18 14.75" stroke="#00303E" stroke-linecap="round" stroke-linejoin="round"/>
<path d="M18 15.25C17.9337 15.25 17.8701 15.2237 17.8232 15.1768C17.7763 15.1299 17.75 15.0663 17.75 15" stroke="#00303E" stroke-linecap="round" stroke-linejoin="round"/>
<path d="M18.25 15C18.25 15.0663 18.2237 15.1299 18.1768 15.1768C18.1299 15.2237 18.0663 15.25 18 15.25" stroke="#00303E" stroke-linecap="round" stroke-linejoin="round"/>
<path d="M15 16.25C15.0663 16.25 15.1299 16.2763 15.1768 16.3232C15.2237 16.3701 15.25 16.4337 15.25 16.5" stroke="#00303E" stroke-linecap="round" stroke-linejoin="round"/>
<path d="M14.75 16.5C14.75 16.4337 14.7763 16.3701 14.8232 16.3232C14.8701 16.2763 14.9337 16.25 15 16.25" stroke="#00303E" stroke-linecap="round" stroke-linejoin="round"/>
<path d="M15 16.75C14.9337 16.75 14.8701 16.7237 14.8232 16.6768C14.7763 16.6299 14.75 16.5663 14.75 16.5" stroke="#00303E" stroke-linecap="round" stroke-linejoin="round"/>
<path d="M15.25 16.5C15.25 16.5663 15.2237 16.6299 15.1768 16.6768C15.1299 16.7237 15.0663 16.75 15 16.75" stroke="#00303E" stroke-linecap="round" stroke-linejoin="round"/>
</svg>
