<svg width="24" height="24" viewBox="0 0 24 24" fill="none" xmlns="http://www.w3.org/2000/svg">
<path d="M21.5 14C21.5 19.247 18 23.5 12 23.5C6 23.5 2.5 19.247 2.5 14C2.5 8.753 5.5 0.5 12 0.5C18.5 0.5 21.5 8.753 21.5 14Z" fill="#9FEAFF"/>
<path d="M12 4.5C17.662 4.5 20.668 10.762 21.349 15.845C21.4503 15.2352 21.5008 14.6181 21.5 14C21.5 8.753 18.5 0.5 12 0.5C5.50001 0.5 2.50001 8.753 2.50001 14C2.4992 14.6181 2.54971 15.2352 2.65101 15.845C3.33201 10.762 6.33801 4.5 12 4.5Z" fill="#DFF9FF"/>
<path d="M21.5 14C21.5 19.247 18 23.5 12 23.5C6 23.5 2.5 19.247 2.5 14C2.5 8.753 5.5 0.5 12 0.5C18.5 0.5 21.5 8.753 21.5 14Z" stroke="#00303E" stroke-linecap="round" stroke-linejoin="round"/>
<path d="M7.5 7.5H16.5C16.5 7.5 17.5 7.5 17.5 8.5V15.5C17.5 15.5 17.5 16.5 16.5 16.5H7.5C7.5 16.5 6.5 16.5 6.5 15.5V8.5C6.5 8.5 6.5 7.5 7.5 7.5Z" fill="#9FEAFF"/>
<path d="M7.5 16.5L16.5 7.5H7.5C7.23478 7.5 6.98043 7.60536 6.79289 7.79289C6.60536 7.98043 6.5 8.23478 6.5 8.5V15.5C6.5 15.7652 6.60536 16.0196 6.79289 16.2071C6.98043 16.3946 7.23478 16.5 7.5 16.5Z" fill="#DFF9FF"/>
<path d="M12 19.75C12.0663 19.75 12.1299 19.7763 12.1768 19.8232C12.2237 19.8701 12.25 19.9337 12.25 20" stroke="#00303E" stroke-linecap="round" stroke-linejoin="round"/>
<path d="M11.75 20C11.75 19.9337 11.7763 19.8701 11.8232 19.8232C11.8701 19.7763 11.9337 19.75 12 19.75" stroke="#00303E" stroke-linecap="round" stroke-linejoin="round"/>
<path d="M12 20.25C11.9337 20.25 11.8701 20.2237 11.8232 20.1768C11.7763 20.1299 11.75 20.0663 11.75 20" stroke="#00303E" stroke-linecap="round" stroke-linejoin="round"/>
<path d="M12.25 20C12.25 20.0663 12.2237 20.1299 12.1768 20.1768C12.1299 20.2237 12.0663 20.25 12 20.25" stroke="#00303E" stroke-linecap="round" stroke-linejoin="round"/>
<path d="M8 18.75C8.0663 18.75 8.12989 18.7763 8.17678 18.8232C8.22366 18.8701 8.25 18.9337 8.25 19" stroke="#00303E" stroke-linecap="round" stroke-linejoin="round"/>
<path d="M7.75 19C7.75 18.9337 7.77634 18.8701 7.82322 18.8232C7.87011 18.7763 7.9337 18.75 8 18.75" stroke="#00303E" stroke-linecap="round" stroke-linejoin="round"/>
<path d="M8 19.25C7.9337 19.25 7.87011 19.2237 7.82322 19.1768C7.77634 19.1299 7.75 19.0663 7.75 19" stroke="#00303E" stroke-linecap="round" stroke-linejoin="round"/>
<path d="M8.25 19C8.25 19.0663 8.22366 19.1299 8.17678 19.1768C8.12989 19.2237 8.0663 19.25 8 19.25" stroke="#00303E" stroke-linecap="round" stroke-linejoin="round"/>
<path d="M16 18.75C16.0663 18.75 16.1299 18.7763 16.1768 18.8232C16.2237 18.8701 16.25 18.9337 16.25 19" stroke="#00303E" stroke-linecap="round" stroke-linejoin="round"/>
<path d="M15.75 19C15.75 18.9337 15.7763 18.8701 15.8232 18.8232C15.8701 18.7763 15.9337 18.75 16 18.75" stroke="#00303E" stroke-linecap="round" stroke-linejoin="round"/>
<path d="M16 19.25C15.9337 19.25 15.8701 19.2237 15.8232 19.1768C15.7763 19.1299 15.75 19.0663 15.75 19" stroke="#00303E" stroke-linecap="round" stroke-linejoin="round"/>
<path d="M16.25 19C16.25 19.0663 16.2237 19.1299 16.1768 19.1768C16.1299 19.2237 16.0663 19.25 16 19.25" stroke="#00303E" stroke-linecap="round" stroke-linejoin="round"/>
<path d="M7.5 7.5H16.5C16.5 7.5 17.5 7.5 17.5 8.5V15.5C17.5 15.5 17.5 16.5 16.5 16.5H7.5C7.5 16.5 6.5 16.5 6.5 15.5V8.5C6.5 8.5 6.5 7.5 7.5 7.5Z" stroke="#00303E" stroke-linecap="round" stroke-linejoin="round"/>
</svg>
