<svg width="24" height="24" viewBox="0 0 24 24" fill="none" xmlns="http://www.w3.org/2000/svg">
<path d="M23.5 15.25C23.5 14.2878 23.2223 13.346 22.7003 12.5377C22.1783 11.7294 21.4342 11.0889 20.5572 10.693C19.6803 10.2971 18.7077 10.1627 17.7562 10.3058C16.8047 10.449 15.9147 10.8636 15.193 11.5C15.0104 11.661 14.7754 11.7499 14.532 11.75H9.46801C9.22459 11.7499 8.98957 11.661 8.80701 11.5C8.08533 10.8635 7.19533 10.4488 6.2438 10.3057C5.29228 10.1625 4.31965 10.2969 3.44263 10.6928C2.56561 11.0887 1.82145 11.7293 1.29946 12.5376C0.777471 13.346 0.499817 14.2878 0.499817 15.25C0.499817 16.2122 0.777471 17.154 1.29946 17.9624C1.82145 18.7707 2.56561 19.4113 3.44263 19.8072C4.31965 20.2031 5.29228 20.3375 6.2438 20.1943C7.19533 20.0512 8.08533 19.6365 8.80701 19C8.98957 18.839 9.22459 18.7501 9.46801 18.75H14.532C14.7754 18.7501 15.0104 18.839 15.193 19C15.9147 19.6364 16.8047 20.0511 17.7562 20.1942C18.7077 20.3373 19.6803 20.2029 20.5572 19.807C21.4342 19.4111 22.1783 18.7706 22.7003 17.9623C23.2223 17.154 23.5 16.2122 23.5 15.25Z" fill="#DFF9FF"/>
<path d="M5.5 12.5C6.7181 12.4983 7.8946 12.943 8.807 13.75C8.98957 13.911 9.22459 13.9999 9.468 14H14.532C14.7754 13.9999 15.0104 13.911 15.193 13.75C15.8424 13.177 16.6295 12.7826 17.4772 12.6052C18.3249 12.4279 19.2042 12.4738 20.0288 12.7384C20.8535 13.003 21.5952 13.4773 22.1815 14.1148C22.7677 14.7523 23.1783 15.5312 23.373 16.375C23.6116 15.343 23.5162 14.2619 23.1007 13.2876C22.6853 12.3133 21.9711 11.4961 21.0612 10.9538C20.1513 10.4116 19.0927 10.1723 18.0381 10.2704C16.9834 10.3686 15.9872 10.7992 15.193 11.5C15.0104 11.661 14.7754 11.7499 14.532 11.75H9.468C9.22459 11.7499 8.98957 11.661 8.807 11.5C8.01283 10.7992 7.0166 10.3686 5.96194 10.2704C4.90728 10.1723 3.8487 10.4116 2.93881 10.9538C2.02893 11.4961 1.31475 12.3133 0.899265 13.2876C0.483778 14.2619 0.388442 15.343 0.627004 16.375C0.88142 15.2733 1.50177 14.2903 2.3868 13.5865C3.27182 12.8828 4.36927 12.4998 5.5 12.5Z" fill="white"/>
<path d="M23.5 15.25C23.5 14.2878 23.2223 13.346 22.7003 12.5377C22.1783 11.7294 21.4342 11.0889 20.5572 10.693C19.6803 10.2971 18.7077 10.1627 17.7562 10.3058C16.8047 10.449 15.9147 10.8636 15.193 11.5C15.0104 11.661 14.7754 11.7499 14.532 11.75H9.46801C9.22459 11.7499 8.98957 11.661 8.80701 11.5C8.08533 10.8635 7.19533 10.4488 6.2438 10.3057C5.29228 10.1625 4.31965 10.2969 3.44263 10.6928C2.56561 11.0887 1.82145 11.7293 1.29946 12.5376C0.777471 13.346 0.499817 14.2878 0.499817 15.25C0.499817 16.2122 0.777471 17.154 1.29946 17.9624C1.82145 18.7707 2.56561 19.4113 3.44263 19.8072C4.31965 20.2031 5.29228 20.3375 6.2438 20.1943C7.19533 20.0512 8.08533 19.6365 8.80701 19C8.98957 18.839 9.22459 18.7501 9.46801 18.75H14.532C14.7754 18.7501 15.0104 18.839 15.193 19C15.9147 19.6364 16.8047 20.0511 17.7562 20.1942C18.7077 20.3373 19.6803 20.2029 20.5572 19.807C21.4342 19.4111 22.1783 18.7706 22.7003 17.9623C23.2223 17.154 23.5 16.2122 23.5 15.25Z" stroke="#00303E" stroke-linecap="round" stroke-linejoin="round"/>
<path d="M5.5 13.25V17.25" stroke="#00303E" stroke-linecap="round" stroke-linejoin="round"/>
<path d="M7.5 15.25H3.5" stroke="#00303E" stroke-linecap="round" stroke-linejoin="round"/>
<path d="M18.5 13C18.5663 13 18.6299 13.0263 18.6768 13.0732C18.7237 13.1201 18.75 13.1837 18.75 13.25" stroke="#00303E" stroke-linecap="round" stroke-linejoin="round"/>
<path d="M18.25 13.25C18.25 13.1837 18.2763 13.1201 18.3232 13.0732C18.3701 13.0263 18.4337 13 18.5 13" stroke="#00303E" stroke-linecap="round" stroke-linejoin="round"/>
<path d="M18.5 13.5C18.4337 13.5 18.3701 13.4737 18.3232 13.4268C18.2763 13.3799 18.25 13.3163 18.25 13.25" stroke="#00303E" stroke-linecap="round" stroke-linejoin="round"/>
<path d="M18.75 13.25C18.75 13.3163 18.7237 13.3799 18.6768 13.4268C18.6299 13.4737 18.5663 13.5 18.5 13.5" stroke="#00303E" stroke-linecap="round" stroke-linejoin="round"/>
<path d="M16.5 15C16.5663 15 16.6299 15.0263 16.6768 15.0732C16.7237 15.1201 16.75 15.1837 16.75 15.25" stroke="#00303E" stroke-linecap="round" stroke-linejoin="round"/>
<path d="M16.25 15.25C16.25 15.1837 16.2763 15.1201 16.3232 15.0732C16.3701 15.0263 16.4337 15 16.5 15" stroke="#00303E" stroke-linecap="round" stroke-linejoin="round"/>
<path d="M16.5 15.5C16.4337 15.5 16.3701 15.4737 16.3232 15.4268C16.2763 15.3799 16.25 15.3163 16.25 15.25" stroke="#00303E" stroke-linecap="round" stroke-linejoin="round"/>
<path d="M16.75 15.25C16.75 15.3163 16.7237 15.3799 16.6768 15.4268C16.6299 15.4737 16.5663 15.5 16.5 15.5" stroke="#00303E" stroke-linecap="round" stroke-linejoin="round"/>
<path d="M18.5 17C18.5663 17 18.6299 17.0263 18.6768 17.0732C18.7237 17.1201 18.75 17.1837 18.75 17.25" stroke="#00303E" stroke-linecap="round" stroke-linejoin="round"/>
<path d="M18.25 17.25C18.25 17.1837 18.2763 17.1201 18.3232 17.0732C18.3701 17.0263 18.4337 17 18.5 17" stroke="#00303E" stroke-linecap="round" stroke-linejoin="round"/>
<path d="M18.5 17.5C18.4337 17.5 18.3701 17.4737 18.3232 17.4268C18.2763 17.3799 18.25 17.3163 18.25 17.25" stroke="#00303E" stroke-linecap="round" stroke-linejoin="round"/>
<path d="M18.75 17.25C18.75 17.3163 18.7237 17.3799 18.6768 17.4268C18.6299 17.4737 18.5663 17.5 18.5 17.5" stroke="#00303E" stroke-linecap="round" stroke-linejoin="round"/>
<path d="M20.5 15C20.5663 15 20.6299 15.0263 20.6768 15.0732C20.7237 15.1201 20.75 15.1837 20.75 15.25" stroke="#00303E" stroke-linecap="round" stroke-linejoin="round"/>
<path d="M20.25 15.25C20.25 15.1837 20.2763 15.1201 20.3232 15.0732C20.3701 15.0263 20.4337 15 20.5 15" stroke="#00303E" stroke-linecap="round" stroke-linejoin="round"/>
<path d="M20.5 15.5C20.4337 15.5 20.3701 15.4737 20.3232 15.4268C20.2763 15.3799 20.25 15.3163 20.25 15.25" stroke="#00303E" stroke-linecap="round" stroke-linejoin="round"/>
<path d="M20.75 15.25C20.75 15.3163 20.7237 15.3799 20.6768 15.4268C20.6299 15.4737 20.5663 15.5 20.5 15.5" stroke="#00303E" stroke-linecap="round" stroke-linejoin="round"/>
<path d="M10 16.75H11" stroke="#00303E" stroke-linecap="round" stroke-linejoin="round"/>
<path d="M13 16.75H14" stroke="#00303E" stroke-linecap="round" stroke-linejoin="round"/>
<path d="M12.5 9.75H11.5C11.2348 9.75 10.9804 9.85536 10.7929 10.0429C10.6054 10.2304 10.5 10.4848 10.5 10.75V11.75H13.5V10.75C13.5 10.4848 13.3946 10.2304 13.2071 10.0429C13.0196 9.85536 12.7652 9.75 12.5 9.75Z" fill="#9FEAFF" stroke="#00303E" stroke-linecap="round" stroke-linejoin="round"/>
<path d="M12 9.75V6.75C11.9976 5.95508 11.6808 5.1934 11.1187 4.6313C10.5566 4.06921 9.79492 3.75237 9 3.75H6" stroke="#00303E" stroke-linecap="round" stroke-linejoin="round"/>
</svg>
