<svg width="24" height="24" viewBox="0 0 24 24" fill="none" xmlns="http://www.w3.org/2000/svg">
<g clip-path="url(#clip0_3303_9797)">
<path d="M21.5 4H22.5C22.7652 4 23.0196 4.10536 23.2071 4.29289C23.3946 4.48043 23.5 4.73478 23.5 5V22C23.5 22.2652 23.3946 22.5196 23.2071 22.7071C23.0196 22.8946 22.7652 23 22.5 23H1.5C1.23478 23 0.98043 22.8946 0.792893 22.7071C0.605357 22.5196 0.5 22.2652 0.5 22V5C0.5 4.73478 0.605357 4.48043 0.792893 4.29289C0.98043 4.10536 1.23478 4 1.5 4H17.5" fill="#DFF9FF"/>
<path d="M22.5 4H1.5C1.23478 4 0.98043 4.10536 0.792893 4.29289C0.605357 4.48043 0.5 4.73478 0.5 5V7.932C0.5 7.66678 0.605357 7.41243 0.792893 7.22489C0.98043 7.03736 1.23478 6.932 1.5 6.932H22.5C22.7652 6.932 23.0196 7.03736 23.2071 7.22489C23.3946 7.41243 23.5 7.66678 23.5 7.932V5C23.5 4.73478 23.3946 4.48043 23.2071 4.29289C23.0196 4.10536 22.7652 4 22.5 4Z" fill="white"/>
<path d="M2.5 13.5C2.5 15.4891 3.29018 17.3968 4.6967 18.8033C6.10322 20.2098 8.01088 21 10 21C11.9891 21 13.8968 20.2098 15.3033 18.8033C16.7098 17.3968 17.5 15.4891 17.5 13.5C17.5 11.5109 16.7098 9.60322 15.3033 8.1967C13.8968 6.79018 11.9891 6 10 6C8.01088 6 6.10322 6.79018 4.6967 8.1967C3.29018 9.60322 2.5 11.5109 2.5 13.5Z" fill="#9FEAFF"/>
<path d="M21.5 4H22.5C22.7652 4 23.0196 4.10536 23.2071 4.29289C23.3946 4.48043 23.5 4.73478 23.5 5V22C23.5 22.2652 23.3946 22.5196 23.2071 22.7071C23.0196 22.8946 22.7652 23 22.5 23H1.5C1.23478 23 0.98043 22.8946 0.792893 22.7071C0.605357 22.5196 0.5 22.2652 0.5 22V5C0.5 4.73478 0.605357 4.48043 0.792893 4.29289C0.98043 4.10536 1.23478 4 1.5 4H17.5" stroke="#00303E" stroke-linecap="round" stroke-linejoin="round"/>
<path d="M12.5 20.574C11.0988 21.0676 9.58248 21.1339 8.1435 20.7645C6.70451 20.395 5.40765 19.6066 4.4174 18.4991C3.42715 17.3916 2.78812 16.015 2.58136 14.5438C2.3746 13.0726 2.60942 11.5732 3.25605 10.2356C3.90268 8.89808 4.93198 7.78271 6.2134 7.03098C7.49482 6.27925 8.97064 5.92503 10.4537 6.01323C11.9367 6.10144 13.3601 6.6281 14.5434 7.52643C15.7267 8.42475 16.6165 9.65426 17.1 11.059" stroke="#00303E" stroke-linecap="round" stroke-linejoin="round"/>
<path d="M7.5 13.5C7.5 14.163 7.76339 14.7989 8.23223 15.2678C8.70107 15.7366 9.33696 16 10 16C10.663 16 11.2989 15.7366 11.7678 15.2678C12.2366 14.7989 12.5 14.163 12.5 13.5C12.5 12.837 12.2366 12.2011 11.7678 11.7322C11.2989 11.2634 10.663 11 10 11C9.33696 11 8.70107 11.2634 8.23223 11.7322C7.76339 12.2011 7.5 12.837 7.5 13.5Z" fill="#9FEAFF"/>
<path d="M19.5 6V12.5L16.734 15.813" stroke="#00303E" stroke-linecap="round" stroke-linejoin="round"/>
<path d="M19.5 1C18.9696 1 18.4609 1.21071 18.0858 1.58579C17.7107 1.96086 17.5 2.46957 17.5 3V5C17.5 5.26522 17.6054 5.51957 17.7929 5.70711C17.9804 5.89464 18.2348 6 18.5 6H20.5C20.7652 6 21.0196 5.89464 21.2071 5.70711C21.3946 5.51957 21.5 5.26522 21.5 5V3C21.5 2.46957 21.2893 1.96086 20.9142 1.58579C20.5391 1.21071 20.0304 1 19.5 1Z" fill="#9FEAFF"/>
<path d="M15 15.5099C15.1875 15.3225 15.4419 15.2172 15.707 15.2172C15.9722 15.2172 16.2265 15.3225 16.414 15.5099L17.006 16.1019C17.1935 16.2895 17.2988 16.5438 17.2988 16.8089C17.2988 17.0741 17.1935 17.3284 17.006 17.516L16.346 18.176C16.2344 18.3628 16.082 18.522 15.9003 18.6417C15.7185 18.7614 15.5121 18.8386 15.2964 18.8674C15.0807 18.8962 14.8613 18.876 14.6545 18.8082C14.4477 18.7405 14.2588 18.6269 14.102 18.4759C13.954 18.3218 13.8406 18.1379 13.7691 17.9365C13.6976 17.735 13.6698 17.5207 13.6875 17.3078C13.7052 17.0948 13.7679 16.888 13.8717 16.7011C13.9754 16.5143 14.1176 16.3516 14.289 16.224L15 15.5099Z" fill="#DFF9FF"/>
<path d="M10 13.25C10.0494 13.25 10.0978 13.2647 10.1389 13.2921C10.18 13.3196 10.212 13.3586 10.231 13.4043C10.2499 13.45 10.2548 13.5003 10.2452 13.5488C10.2356 13.5973 10.2117 13.6418 10.1768 13.6768C10.1418 13.7117 10.0973 13.7356 10.0488 13.7452C10.0003 13.7548 9.95001 13.7499 9.90433 13.731C9.85865 13.712 9.8196 13.68 9.79213 13.6389C9.76466 13.5978 9.75 13.5494 9.75 13.5C9.75 13.4337 9.77634 13.3701 9.82322 13.3232C9.87011 13.2763 9.9337 13.25 10 13.25Z" stroke="#00303E" stroke-linecap="round" stroke-linejoin="round"/>
<path d="M19.5 1C18.9696 1 18.4609 1.21071 18.0858 1.58579C17.7107 1.96086 17.5 2.46957 17.5 3V5C17.5 4.46957 17.7107 3.96086 18.0858 3.58579C18.4609 3.21071 18.9696 3 19.5 3C20.0304 3 20.5391 3.21071 20.9142 3.58579C21.2893 3.96086 21.5 4.46957 21.5 5V3C21.5 2.46957 21.2893 1.96086 20.9142 1.58579C20.5391 1.21071 20.0304 1 19.5 1Z" fill="#DFF9FF"/>
<path d="M19.5 1C18.9696 1 18.4609 1.21071 18.0858 1.58579C17.7107 1.96086 17.5 2.46957 17.5 3V5C17.5 5.26522 17.6054 5.51957 17.7929 5.70711C17.9804 5.89464 18.2348 6 18.5 6H20.5C20.7652 6 21.0196 5.89464 21.2071 5.70711C21.3946 5.51957 21.5 5.26522 21.5 5V3C21.5 2.46957 21.2893 1.96086 20.9142 1.58579C20.5391 1.21071 20.0304 1 19.5 1Z" stroke="#00303E" stroke-linecap="round" stroke-linejoin="round"/>
<path d="M7.5 13.5C7.5 14.163 7.76339 14.7989 8.23223 15.2678C8.70107 15.7366 9.33696 16 10 16C10.663 16 11.2989 15.7366 11.7678 15.2678C12.2366 14.7989 12.5 14.163 12.5 13.5C12.5 12.837 12.2366 12.2011 11.7678 11.7322C11.2989 11.2634 10.663 11 10 11C9.33696 11 8.70107 11.2634 8.23223 11.7322C7.76339 12.2011 7.5 12.837 7.5 13.5Z" stroke="#00303E" stroke-linecap="round" stroke-linejoin="round"/>
<path d="M15 15.5099C15.1875 15.3225 15.4419 15.2172 15.707 15.2172C15.9722 15.2172 16.2265 15.3225 16.414 15.5099L17.006 16.1019C17.1935 16.2895 17.2988 16.5438 17.2988 16.8089C17.2988 17.0741 17.1935 17.3284 17.006 17.516L16.346 18.176C16.2344 18.3628 16.082 18.522 15.9003 18.6417C15.7185 18.7614 15.5121 18.8386 15.2964 18.8674C15.0807 18.8962 14.8613 18.876 14.6545 18.8082C14.4477 18.7405 14.2588 18.6269 14.102 18.4759C13.954 18.3218 13.8406 18.1379 13.7691 17.9365C13.6976 17.735 13.6698 17.5207 13.6875 17.3078C13.7052 17.0948 13.7679 16.888 13.8717 16.7011C13.9754 16.5143 14.1176 16.3516 14.289 16.224L15 15.5099Z" stroke="#00303E" stroke-linecap="round" stroke-linejoin="round"/>
</g>
<defs>
<clipPath id="clip0_3303_9797">
<rect width="24" height="24" fill="white"/>
</clipPath>
</defs>
</svg>
