<svg width="24" height="24" viewBox="0 0 24 24" fill="none" xmlns="http://www.w3.org/2000/svg">
<path d="M7.01099 9.00003H3.51099C3.11316 9.00003 2.73163 9.15806 2.45033 9.43936C2.16902 9.72067 2.01099 10.1022 2.01099 10.5V13.5C2.01099 13.8979 2.16902 14.2794 2.45033 14.5607C2.73163 14.842 3.11316 15 3.51099 15H7.01099L13.158 21.146C13.2279 21.2157 13.3169 21.2632 13.4137 21.2824C13.5106 21.3016 13.611 21.2917 13.7022 21.2539C13.7934 21.2162 13.8714 21.1523 13.9264 21.0702C13.9813 20.9882 14.0108 20.8918 14.011 20.793V3.20703C14.0108 3.1083 13.9813 3.01184 13.9264 2.92982C13.8714 2.8478 13.7934 2.78388 13.7022 2.74613C13.611 2.70838 13.5106 2.69848 13.4137 2.71768C13.3169 2.73688 13.2279 2.78432 13.158 2.85403L7.01099 9.00003Z" fill="#DFF9FF"/>
<path d="M13.7 2.74494C13.6086 2.70715 13.508 2.69734 13.4109 2.71674C13.3139 2.73614 13.2249 2.78389 13.155 2.85394L7.01099 8.99994H3.51099C3.11316 8.99994 2.73163 9.15798 2.45033 9.43928C2.16902 9.72059 2.01099 10.1021 2.01099 10.4999V11.9999H14.011V3.20694C14.0108 3.10777 13.9811 3.0109 13.9258 2.92863C13.8704 2.84637 13.7918 2.78243 13.7 2.74494Z" fill="white"/>
<path d="M7.01099 9.00003H3.51099C3.11316 9.00003 2.73163 9.15806 2.45033 9.43936C2.16902 9.72067 2.01099 10.1022 2.01099 10.5V13.5C2.01099 13.8979 2.16902 14.2794 2.45033 14.5607C2.73163 14.842 3.11316 15 3.51099 15H7.01099L13.158 21.146C13.2279 21.2157 13.3169 21.2632 13.4137 21.2824C13.5106 21.3016 13.611 21.2917 13.7022 21.2539C13.7934 21.2162 13.8714 21.1523 13.9264 21.0702C13.9813 20.9882 14.0108 20.8918 14.011 20.793V3.20703C14.0108 3.1083 13.9813 3.01184 13.9264 2.92982C13.8714 2.8478 13.7934 2.78388 13.7022 2.74613C13.611 2.70838 13.5106 2.69848 13.4137 2.71768C13.3169 2.73688 13.2279 2.78432 13.158 2.85403L7.01099 9.00003Z" stroke="#00303E" stroke-linecap="round" stroke-linejoin="round"/>
<path d="M19.011 6C19.9362 6.70287 20.6863 7.61019 21.2028 8.65105C21.7192 9.6919 21.9879 10.8381 21.9879 12C21.9879 13.1619 21.7192 14.3081 21.2028 15.349C20.6863 16.3898 19.9362 17.2971 19.011 18" stroke="#00303E" stroke-linecap="round" stroke-linejoin="round"/>
<path d="M17.011 8.5C19.689 10.447 19.68 13.56 17.011 15.5" stroke="#00303E" stroke-linecap="round" stroke-linejoin="round"/>
</svg>
