<svg width="24" height="24" viewBox="0 0 24 24" fill="none" xmlns="http://www.w3.org/2000/svg">
<path d="M13.994 14.506C14.6586 14.506 15.296 14.242 15.766 13.772C16.236 13.3021 16.5 12.6647 16.5 12C16.5 11.3354 16.236 10.698 15.766 10.228C15.296 9.75804 14.6586 9.49402 13.994 9.49402H13.5V14.506H13.994Z" fill="#9FEAFF"/>
<path d="M6.5 9.00005H3C2.60218 9.00005 2.22064 9.15808 1.93934 9.43939C1.65804 9.72069 1.5 10.1022 1.5 10.5V13.5C1.5 13.8979 1.65804 14.2794 1.93934 14.5607C2.22064 14.842 2.60218 15 3 15H6.5L12.646 21.146C12.7159 21.2161 12.8049 21.2638 12.902 21.2832C12.999 21.3026 13.0996 21.2928 13.191 21.255C13.2824 21.2172 13.3606 21.1532 13.4156 21.0709C13.4706 20.9887 13.5 20.892 13.5 20.793V3.20705C13.5 3.10811 13.4706 3.01141 13.4156 2.92917C13.3606 2.84694 13.2824 2.78287 13.191 2.74507C13.0996 2.70728 12.999 2.69746 12.902 2.71686C12.8049 2.73626 12.7159 2.784 12.646 2.85405L6.5 9.00005Z" fill="#DFF9FF"/>
<path d="M13.191 2.74494C13.0996 2.70715 12.999 2.69734 12.902 2.71674C12.8049 2.73614 12.7159 2.78389 12.646 2.85394L6.5 8.99994H3C2.60218 8.99994 2.22064 9.15798 1.93934 9.43928C1.65804 9.72059 1.5 10.1021 1.5 10.4999V11.9999H13.5V3.20694C13.5 3.108 13.4706 3.01129 13.4156 2.92905C13.3606 2.84681 13.2824 2.78274 13.191 2.74494Z" fill="white"/>
<path d="M10 18.5L12.646 21.146C12.7159 21.216 12.8049 21.2638 12.902 21.2832C12.999 21.3026 13.0996 21.2928 13.191 21.255C13.2824 21.2172 13.3606 21.1531 13.4156 21.0709C13.4706 20.9886 13.5 20.8919 13.5 20.793V13.5" stroke="#00303E" stroke-linecap="round" stroke-linejoin="round"/>
<path d="M13.5 7.50005V3.20705C13.5 3.10811 13.4706 3.01141 13.4156 2.92917C13.3606 2.84694 13.2824 2.78287 13.191 2.74507C13.0996 2.70728 12.999 2.69746 12.902 2.71686C12.8049 2.73626 12.7159 2.784 12.646 2.85405L6.5 9.00005H3C2.60218 9.00005 2.22064 9.15808 1.93934 9.43939C1.65804 9.72069 1.5 10.1022 1.5 10.5V13.5C1.5 13.8979 1.65804 14.2794 1.93934 14.5607C2.22064 14.842 2.60218 15 3 15H5.5" stroke="#00303E" stroke-linecap="round" stroke-linejoin="round"/>
<path d="M16.5 12C16.5 12.663 16.2366 13.2989 15.7678 13.7678C15.2989 14.2366 14.663 14.5 14 14.5H13.5" stroke="#00303E" stroke-linecap="round" stroke-linejoin="round"/>
<path d="M2.5 22L22.5 2" stroke="#00303E" stroke-linecap="round" stroke-linejoin="round"/>
</svg>
