<svg width="24" height="24" viewBox="0 0 24 24" fill="none" xmlns="http://www.w3.org/2000/svg">
<path d="M2 4.5H22C22 4.5 23.5 4.5 23.5 6V18C23.5 18 23.5 19.5 22 19.5H2C2 19.5 0.5 19.5 0.5 18V6C0.5 6 0.5 4.5 2 4.5Z" fill="#9FEAFF"/>
<path d="M22 4.5H2C1.60218 4.5 1.22064 4.65804 0.93934 4.93934C0.658035 5.22064 0.5 5.60218 0.5 6V8.335C0.5 7.93718 0.658035 7.55564 0.93934 7.27434C1.22064 6.99304 1.60218 6.835 2 6.835H22C22.3978 6.835 22.7794 6.99304 23.0607 7.27434C23.342 7.55564 23.5 7.93718 23.5 8.335V6C23.5 5.60218 23.342 5.22064 23.0607 4.93934C22.7794 4.65804 22.3978 4.5 22 4.5Z" fill="#DFF9FF"/>
<path d="M2 4.5H22C22 4.5 23.5 4.5 23.5 6V18C23.5 18 23.5 19.5 22 19.5H2C2 19.5 0.5 19.5 0.5 18V6C0.5 6 0.5 4.5 2 4.5Z" stroke="#00303E" stroke-linecap="round" stroke-linejoin="round"/>
<path d="M4 19.5L6.414 17.086C6.78899 16.7109 7.29761 16.5001 7.828 16.5H16.172C16.7024 16.5001 17.211 16.7109 17.586 17.086L20 19.5" stroke="#00303E" stroke-linecap="round" stroke-linejoin="round"/>
<path d="M20.5 11.51C20.4984 12.04 20.2872 12.5477 19.9125 12.9225C19.5377 13.2972 19.03 13.5084 18.5 13.51H14.04C13.687 12.8989 13.5008 12.2058 13.5 11.5C13.4959 10.7999 13.6826 10.112 14.04 9.51001H18.5C19.03 9.51159 19.5377 9.72281 19.9125 10.0975C20.2872 10.4723 20.4984 10.9801 20.5 11.51Z" fill="#9FEAFF"/>
<path d="M10.5 11.5C10.4992 12.2058 10.313 12.8989 9.96 13.51H5.5C4.96957 13.51 4.46086 13.2993 4.08579 12.9242C3.71071 12.5492 3.5 12.0404 3.5 11.51C3.5 10.9796 3.71071 10.4709 4.08579 10.0958C4.46086 9.72072 4.96957 9.51001 5.5 9.51001H9.96C10.3174 10.112 10.5041 10.7999 10.5 11.5Z" fill="#9FEAFF"/>
<path d="M13.5 11.5C13.5008 12.2058 13.687 12.8989 14.04 13.51H9.96002C10.313 12.8989 10.4993 12.2058 10.5 11.5C10.5041 10.7999 10.3174 10.112 9.96002 9.51001H14.04C13.6826 10.112 13.4959 10.7999 13.5 11.5Z" fill="#9FEAFF"/>
<path d="M3.5 6.5H20.5" stroke="#00303E" stroke-linecap="round" stroke-linejoin="round"/>
<path d="M6.5 11.25C6.54945 11.25 6.59778 11.2647 6.63889 11.2921C6.68 11.3196 6.71205 11.3586 6.73097 11.4043C6.74989 11.45 6.75484 11.5003 6.7452 11.5488C6.73555 11.5973 6.71174 11.6418 6.67678 11.6768C6.64181 11.7117 6.59727 11.7356 6.54877 11.7452C6.50028 11.7548 6.45001 11.7499 6.40433 11.731C6.35865 11.712 6.3196 11.68 6.29213 11.6389C6.26466 11.5978 6.25 11.5494 6.25 11.5C6.25 11.4337 6.27634 11.3701 6.32322 11.3232C6.37011 11.2763 6.4337 11.25 6.5 11.25Z" stroke="#00303E" stroke-linecap="round" stroke-linejoin="round"/>
<path d="M17.5 11.25C17.5494 11.25 17.5978 11.2647 17.6389 11.2921C17.68 11.3196 17.712 11.3586 17.731 11.4043C17.7499 11.45 17.7548 11.5003 17.7452 11.5488C17.7355 11.5973 17.7117 11.6418 17.6768 11.6768C17.6418 11.7117 17.5973 11.7356 17.5488 11.7452C17.5003 11.7548 17.45 11.7499 17.4043 11.731C17.3586 11.712 17.3196 11.68 17.2921 11.6389C17.2647 11.5978 17.25 11.5494 17.25 11.5C17.25 11.4337 17.2763 11.3701 17.3232 11.3232C17.3701 11.2763 17.4337 11.25 17.5 11.25Z" stroke="#00303E" stroke-linecap="round" stroke-linejoin="round"/>
<path d="M20.5 11.51C20.4984 12.04 20.2872 12.5477 19.9125 12.9225C19.5377 13.2972 19.03 13.5084 18.5 13.51H14.04C13.687 12.8989 13.5008 12.2058 13.5 11.5C13.4959 10.7999 13.6826 10.112 14.04 9.51001H18.5C19.03 9.51159 19.5377 9.72281 19.9125 10.0975C20.2872 10.4723 20.4984 10.9801 20.5 11.51Z" stroke="#00303E" stroke-linecap="round" stroke-linejoin="round"/>
<path d="M10.5 11.5C10.4992 12.2058 10.313 12.8989 9.96 13.51H5.5C4.96957 13.51 4.46086 13.2993 4.08579 12.9242C3.71071 12.5492 3.5 12.0404 3.5 11.51C3.5 10.9796 3.71071 10.4709 4.08579 10.0958C4.46086 9.72072 4.96957 9.51001 5.5 9.51001H9.96C10.3174 10.112 10.5041 10.7999 10.5 11.5Z" stroke="#00303E" stroke-linecap="round" stroke-linejoin="round"/>
<path d="M13.5 11.5C13.5008 12.2058 13.687 12.8989 14.04 13.51H9.96002C10.313 12.8989 10.4993 12.2058 10.5 11.5C10.5041 10.7999 10.3174 10.112 9.96002 9.51001H14.04C13.6826 10.112 13.4959 10.7999 13.5 11.5Z" stroke="#00303E" stroke-linecap="round" stroke-linejoin="round"/>
</svg>
