<svg width="24" height="24" viewBox="0 0 24 24" fill="none" xmlns="http://www.w3.org/2000/svg">
<path d="M6 8C6 9.5913 6.63214 11.1174 7.75736 12.2426C8.88258 13.3679 10.4087 14 12 14C13.5913 14 15.1174 13.3679 16.2426 12.2426C17.3679 11.1174 18 9.5913 18 8C18 6.4087 17.3679 4.88258 16.2426 3.75736C15.1174 2.63214 13.5913 2 12 2C10.4087 2 8.88258 2.63214 7.75736 3.75736C6.63214 4.88258 6 6.4087 6 8Z" fill="#DFF9FF"/>
<path d="M17 23.5L12.6 9.37097C12.411 9.45446 12.2066 9.49758 12 9.49758C11.7934 9.49758 11.589 9.45446 11.4 9.37097L7 23.5" stroke="#00303E" stroke-linecap="round" stroke-linejoin="round"/>
<path d="M10.496 7.99799C10.496 8.39581 10.654 8.77734 10.9353 9.05865C11.2166 9.33995 11.5981 9.49799 11.996 9.49799C12.3938 9.49799 12.7753 9.33995 13.0566 9.05865C13.3379 8.77734 13.496 8.39581 13.496 7.99799C13.496 7.60016 13.3379 7.21863 13.0566 6.93733C12.7753 6.65602 12.3938 6.49799 11.996 6.49799C11.5981 6.49799 11.2166 6.65602 10.9353 6.93733C10.654 7.21863 10.496 7.60016 10.496 7.99799Z" fill="#9FEAFF" stroke="#00303E" stroke-linecap="round" stroke-linejoin="round"/>
<path d="M17.592 3.40002C18.8108 4.619 19.4956 6.27221 19.4956 7.99602C19.4956 9.71984 18.8108 11.3731 17.592 12.592" stroke="#00303E" stroke-linecap="round" stroke-linejoin="round"/>
<path d="M19.714 1.28003C21.4956 3.06162 22.4965 5.47798 22.4965 7.99753C22.4965 10.5171 21.4956 12.9334 19.714 14.715" stroke="#00303E" stroke-linecap="round" stroke-linejoin="round"/>
<path d="M6.39995 3.40002C5.18108 4.619 4.49634 6.27221 4.49634 7.99602C4.49634 9.71984 5.18108 11.3731 6.39995 12.592" stroke="#00303E" stroke-linecap="round" stroke-linejoin="round"/>
<path d="M4.27795 1.28003C2.49637 3.06162 1.49548 5.47798 1.49548 7.99753C1.49548 10.5171 2.49637 12.9334 4.27795 14.715" stroke="#00303E" stroke-linecap="round" stroke-linejoin="round"/>
<path d="M9.18201 16.498H14.818" stroke="#00303E" stroke-linecap="round" stroke-linejoin="round"/>
<path d="M7.93506 20.498H16.0651" stroke="#00303E" stroke-linecap="round" stroke-linejoin="round"/>
</svg>
