<svg width="24" height="24" viewBox="0 0 24 24" fill="none" xmlns="http://www.w3.org/2000/svg">
<g clip-path="url(#clip0_3303_2759)">
<path d="M2.5 12C2.5 14.5196 3.50089 16.9359 5.28249 18.7175C7.06408 20.4991 9.48044 21.5 12 21.5C14.5196 21.5 16.9359 20.4991 18.7175 18.7175C20.4991 16.9359 21.5 14.5196 21.5 12C21.5 9.48044 20.4991 7.06408 18.7175 5.28249C16.9359 3.50089 14.5196 2.5 12 2.5C9.48044 2.5 7.06408 3.50089 5.28249 5.28249C3.50089 7.06408 2.5 9.48044 2.5 12Z" fill="#DFF9FF"/>
<path d="M3.86795 3.86499C2.79984 4.93289 1.95256 6.20074 1.3745 7.59613C0.79643 8.99151 0.498901 10.4871 0.498901 11.9975C0.498901 13.5079 0.79643 15.0035 1.3745 16.3989C1.95256 17.7942 2.79984 19.0621 3.86795 20.13" stroke="#00303E" stroke-linecap="round" stroke-linejoin="round"/>
<path d="M6.70006 6.69397C5.29372 8.10047 4.50366 10.008 4.50366 11.997C4.50366 13.9859 5.29372 15.8935 6.70006 17.3" stroke="#00303E" stroke-linecap="round" stroke-linejoin="round"/>
<path d="M9.52501 9.52301C9.19997 9.84802 8.94213 10.2339 8.76621 10.6585C8.5903 11.0832 8.49976 11.5384 8.49976 11.998C8.49976 12.4577 8.5903 12.9128 8.76621 13.3375C8.94213 13.7621 9.19997 14.148 9.52501 14.473" stroke="#00303E" stroke-linecap="round" stroke-linejoin="round"/>
<path d="M20.132 3.86499C21.2001 4.93289 22.0474 6.20074 22.6255 7.59613C23.2035 8.99151 23.5011 10.4871 23.5011 11.9975C23.5011 13.5079 23.2035 15.0035 22.6255 16.3989C22.0474 17.7942 21.2001 19.0621 20.132 20.13" stroke="#00303E" stroke-linecap="round" stroke-linejoin="round"/>
<path d="M17.3 6.69397C17.9965 7.39042 18.549 8.21724 18.9259 9.12721C19.3029 10.0372 19.4969 11.0125 19.4969 11.9975C19.4969 12.9824 19.3029 13.9577 18.9259 14.8677C18.549 15.7777 17.9965 16.6045 17.3 17.301" stroke="#00303E" stroke-linecap="round" stroke-linejoin="round"/>
<path d="M14.475 9.52301C14.8 9.84802 15.0579 10.2339 15.2338 10.6585C15.4097 11.0832 15.5002 11.5384 15.5002 11.998C15.5002 12.4577 15.4097 12.9128 15.2338 13.3375C15.0579 13.7621 14.8 14.148 14.475 14.473" stroke="#00303E" stroke-linecap="round" stroke-linejoin="round"/>
<path d="M12.009 11.748C11.9596 11.748 11.9113 11.7626 11.8701 11.7901C11.829 11.8176 11.797 11.8566 11.7781 11.9023C11.7591 11.948 11.7542 11.9983 11.7638 12.0468C11.7735 12.0953 11.7973 12.1398 11.8323 12.1748C11.8672 12.2097 11.9118 12.2335 11.9603 12.2432C12.0088 12.2528 12.059 12.2479 12.1047 12.229C12.1504 12.21 12.1894 12.178 12.2169 12.1369C12.2444 12.0958 12.259 12.0474 12.259 11.998C12.259 11.9317 12.2327 11.8681 12.1858 11.8212C12.1389 11.7743 12.0753 11.748 12.009 11.748Z" stroke="#00303E" stroke-linecap="round" stroke-linejoin="round"/>
</g>
<defs>
<clipPath id="clip0_3303_2759">
<rect width="24" height="24" fill="white"/>
</clipPath>
</defs>
</svg>
