<svg width="24" height="24" viewBox="0 0 24 24" fill="none" xmlns="http://www.w3.org/2000/svg">
<g clip-path="url(#clip0_3303_7851)">
<path d="M13.154 11.02C12.147 10.0133 10.7814 9.44783 9.3575 9.44783C7.93361 9.44783 6.56802 10.0133 5.561 11.02L0.5 4.169C1.66316 3.00577 3.04405 2.08304 4.56382 1.4535C6.0836 0.82396 7.7125 0.499939 9.3575 0.499939C11.0025 0.499939 12.6314 0.82396 14.1512 1.4535C15.671 2.08304 17.0518 3.00577 18.215 4.169L13.154 11.02Z" fill="#DFF9FF"/>
<path d="M3.03201 7.59999C3.86262 6.76882 4.84887 6.10947 5.9344 5.65961C7.01993 5.20975 8.18346 4.97821 9.35851 4.97821C10.5336 4.97821 11.6971 5.20975 12.7826 5.65961C13.8682 6.10947 14.8544 6.76882 15.685 7.59999" stroke="#00303E" stroke-linecap="round" stroke-linejoin="round"/>
<path d="M18.216 4.16899C17.0528 3.00573 15.6718 2.08298 14.1519 1.45343C12.6321 0.823875 11.0031 0.499847 9.358 0.499847C7.71291 0.499847 6.08394 0.823875 4.56408 1.45343C3.04422 2.08298 1.66324 3.00573 0.5 4.16899" stroke="#00303E" stroke-linecap="round" stroke-linejoin="round"/>
<path d="M5.56201 11.02C6.56903 10.0133 7.93462 9.44781 9.35851 9.44781C10.7824 9.44781 12.148 10.0133 13.155 11.02" stroke="#00303E" stroke-linecap="round" stroke-linejoin="round"/>
<path d="M15.685 7.59999C14.8544 6.76882 13.8682 6.10947 12.7826 5.65961C11.6971 5.20975 10.5336 4.97821 9.35851 4.97821C8.18346 4.97821 7.01993 5.20975 5.9344 5.65961C4.84887 6.10947 3.86262 6.76882 3.03201 7.59999" stroke="#00303E" stroke-linecap="round" stroke-linejoin="round"/>
<path d="M13.155 11.02C12.148 10.0133 10.7824 9.44781 9.35851 9.44781C7.93462 9.44781 6.56903 10.0133 5.56201 11.02" stroke="#00303E" stroke-linecap="round" stroke-linejoin="round"/>
<path d="M11.147 15.71C11.1472 16.0641 11.0423 16.4103 10.8457 16.7048C10.6491 16.9994 10.3696 17.2289 10.0425 17.3645C9.71533 17.5001 9.35534 17.5357 9.00802 17.4666C8.6607 17.3976 8.34166 17.2271 8.09127 16.9767C7.84087 16.7263 7.67037 16.4073 7.60133 16.06C7.5323 15.7126 7.56783 15.3526 7.70343 15.0255C7.83904 14.6984 8.06862 14.4189 8.36314 14.2222C8.65766 14.0256 9.00387 13.9208 9.35799 13.921C9.83246 13.921 10.2875 14.1095 10.623 14.445C10.9585 14.7805 11.147 15.2355 11.147 15.71Z" fill="#9FEAFF" stroke="#00303E" stroke-linecap="round" stroke-linejoin="round"/>
<path d="M18.2 12.5C18.1189 12.3482 17.9982 12.2213 17.8506 12.1328C17.703 12.0442 17.5341 11.9975 17.362 11.9975C17.1899 11.9975 17.021 12.0442 16.8734 12.1328C16.7259 12.2213 16.6051 12.3482 16.524 12.5L11.468 22.135C11.3933 22.2769 11.3569 22.4358 11.3623 22.5961C11.3678 22.7564 11.4149 22.9125 11.499 23.049C11.5842 23.1862 11.7031 23.2994 11.8443 23.3778C11.9855 23.4563 12.1445 23.4973 12.306 23.497H22.414C22.5755 23.4973 22.7345 23.4563 22.8757 23.3778C23.0169 23.2994 23.1358 23.1862 23.221 23.049C23.3051 22.9125 23.3522 22.7564 23.3577 22.5961C23.3631 22.4358 23.3267 22.2769 23.252 22.135L18.2 12.5Z" fill="#9FEAFF"/>
<path d="M17.358 12C17.1861 11.9992 17.0171 12.0454 16.8695 12.1335C16.7218 12.2216 16.601 12.3483 16.52 12.5L11.464 22.135C11.3893 22.2769 11.3529 22.4358 11.3583 22.5961C11.3638 22.7564 11.4109 22.9125 11.495 23.049C11.5802 23.1863 11.6991 23.2995 11.8403 23.3779C11.9815 23.4563 12.1405 23.4973 12.302 23.497H17.358V12Z" fill="#DFF9FF"/>
<path d="M17.358 20.5C17.4074 20.5 17.4558 20.5147 17.4969 20.5421C17.538 20.5696 17.5701 20.6086 17.589 20.6543C17.6079 20.7 17.6128 20.7503 17.6032 20.7988C17.5936 20.8473 17.5697 20.8918 17.5348 20.9268C17.4998 20.9617 17.4553 20.9855 17.4068 20.9952C17.3583 21.0048 17.308 20.9999 17.2623 20.981C17.2166 20.962 17.1776 20.93 17.1501 20.8889C17.1227 20.8478 17.108 20.7994 17.108 20.75C17.108 20.6837 17.1343 20.6201 17.1812 20.5732C17.2281 20.5263 17.2917 20.5 17.358 20.5Z" stroke="#00303E" stroke-linecap="round" stroke-linejoin="round"/>
<path d="M17.358 18.5V15.5" stroke="#00303E" stroke-linecap="round" stroke-linejoin="round"/>
<path d="M18.2 12.5C18.1189 12.3482 17.9982 12.2213 17.8506 12.1328C17.703 12.0442 17.5341 11.9975 17.362 11.9975C17.1899 11.9975 17.021 12.0442 16.8734 12.1328C16.7259 12.2213 16.6051 12.3482 16.524 12.5L11.468 22.135C11.3933 22.2769 11.3569 22.4358 11.3623 22.5961C11.3678 22.7564 11.4149 22.9125 11.499 23.049C11.5842 23.1862 11.7031 23.2994 11.8443 23.3778C11.9855 23.4563 12.1445 23.4973 12.306 23.497H22.414C22.5755 23.4973 22.7345 23.4563 22.8757 23.3778C23.0169 23.2994 23.1358 23.1862 23.221 23.049C23.3051 22.9125 23.3522 22.7564 23.3577 22.5961C23.3631 22.4358 23.3267 22.2769 23.252 22.135L18.2 12.5Z" stroke="#00303E" stroke-linecap="round" stroke-linejoin="round"/>
</g>
<defs>
<clipPath id="clip0_3303_7851">
<rect width="24" height="24" fill="white"/>
</clipPath>
</defs>
</svg>
