<svg width="24" height="24" viewBox="0 0 24 24" fill="none" xmlns="http://www.w3.org/2000/svg">
<path d="M16.343 14.257C15.7858 13.6997 15.1244 13.2577 14.3963 12.9561C13.6683 12.6545 12.888 12.4993 12.1 12.4993C11.312 12.4993 10.5317 12.6545 9.80368 12.9561C9.07566 13.2577 8.41418 13.6997 7.85701 14.257L2.20001 6.6C3.50005 5.29983 5.04346 4.26847 6.74211 3.56482C8.44077 2.86116 10.2614 2.49899 12.1 2.49899C13.9386 2.49899 15.7593 2.86116 17.4579 3.56482C19.1566 4.26847 20.7 5.29983 22 6.6L16.343 14.257Z" fill="#DFF9FF"/>
<path d="M5.03003 10.43C6.90539 8.55467 9.4489 7.50113 12.101 7.50113C14.7532 7.50113 17.2967 8.55467 19.172 10.43" stroke="#00303E" stroke-linecap="round" stroke-linejoin="round"/>
<path d="M22 6.6C20.7 5.29983 19.1566 4.26847 17.4579 3.56482C15.7593 2.86116 13.9386 2.49899 12.1 2.49899C10.2614 2.49899 8.44077 2.86116 6.74211 3.56482C5.04346 4.26847 3.50005 5.29983 2.20001 6.6" stroke="#00303E" stroke-linecap="round" stroke-linejoin="round"/>
<path d="M7.85699 14.257C8.41416 13.6998 9.07564 13.2577 9.80366 12.9561C10.5317 12.6545 11.312 12.4993 12.1 12.4993C12.888 12.4993 13.6683 12.6545 14.3963 12.9561C15.1244 13.2577 15.7858 13.6998 16.343 14.257" stroke="#00303E" stroke-linecap="round" stroke-linejoin="round"/>
<path d="M19.172 10.43C17.2967 8.55467 14.7532 7.50113 12.101 7.50113C9.4489 7.50113 6.90539 8.55467 5.03003 10.43" stroke="#00303E" stroke-linecap="round" stroke-linejoin="round"/>
<path d="M16.344 14.257C15.7869 13.6998 15.1254 13.2577 14.3974 12.9561C13.6693 12.6545 12.889 12.4993 12.101 12.4993C11.313 12.4993 10.5327 12.6545 9.8047 12.9561C9.07668 13.2577 8.4152 13.6998 7.85803 14.257" stroke="#00303E" stroke-linecap="round" stroke-linejoin="round"/>
<path d="M10.1 19.5C10.1 20.0304 10.3107 20.5391 10.6858 20.9142C11.0609 21.2893 11.5696 21.5 12.1 21.5C12.6305 21.5 13.1392 21.2893 13.5142 20.9142C13.8893 20.5391 14.1 20.0304 14.1 19.5C14.1 18.9696 13.8893 18.4609 13.5142 18.0858C13.1392 17.7107 12.6305 17.5 12.1 17.5C11.5696 17.5 11.0609 17.7107 10.6858 18.0858C10.3107 18.4609 10.1 18.9696 10.1 19.5Z" fill="#9FEAFF" stroke="#00303E" stroke-linecap="round" stroke-linejoin="round"/>
</svg>
