<svg width="24" height="24" viewBox="0 0 24 24" fill="none" xmlns="http://www.w3.org/2000/svg">
<g clip-path="url(#clip0_3303_11904)">
<path d="M0.5 4.5H13.5V19.5H0.5V4.5Z" fill="#9FEAFF"/>
<path d="M0.5 17.473L13.473 4.5H0.5V17.473Z" fill="#DFF9FF"/>
<path d="M0.5 21.5V19.5H13.5V21.5C13.4984 22.0299 13.2872 22.5377 12.9125 22.9125C12.5377 23.2872 12.0299 23.4984 11.5 23.5H2.5C1.97005 23.4984 1.46227 23.2872 1.08753 22.9125C0.712805 22.5377 0.501583 22.0299 0.5 21.5Z" fill="white"/>
<path d="M13.5 2.5V4.5H0.5V2.5C0.501583 1.97005 0.712805 1.46227 1.08753 1.08753C1.46227 0.712805 1.97005 0.501583 2.5 0.5H11.5C12.0299 0.501583 12.5377 0.712805 12.9125 1.08753C13.2872 1.46227 13.4984 1.97005 13.5 2.5Z" fill="white" stroke="#00303E" stroke-linecap="round" stroke-linejoin="round"/>
<path d="M21.5 13.5H11.5C10.9701 13.5016 10.4623 13.7128 10.0875 14.0875C9.7128 14.4623 9.50158 14.9701 9.5 15.5V21.5C9.50158 22.0299 9.7128 22.5377 10.0875 22.9125C10.4623 23.2872 10.9701 23.4984 11.5 23.5H21.5C22.0304 23.5 22.5391 23.2893 22.9142 22.9142C23.2893 22.5391 23.5 22.0304 23.5 21.5V15.5C23.5 14.9696 23.2893 14.4609 22.9142 14.0858C22.5391 13.7107 22.0304 13.5 21.5 13.5Z" fill="#9FEAFF"/>
<path d="M11.5 13.5C10.9701 13.5016 10.4623 13.7128 10.0875 14.0875C9.7128 14.4623 9.50158 14.9701 9.5 15.5V21.5C9.50086 21.7762 9.55928 22.0493 9.67154 22.3017C9.7838 22.5541 9.94743 22.7804 10.152 22.966L19.618 13.5H11.5Z" fill="#DFF9FF"/>
<path d="M13.5 11.5V4.5" stroke="#00303E" stroke-linecap="round" stroke-linejoin="round"/>
<path d="M23.5 15.5V16.5H9.5V15.5C9.50158 14.9701 9.7128 14.4623 10.0875 14.0875C10.4623 13.7128 10.9701 13.5016 11.5 13.5H21.5C22.0304 13.5 22.5391 13.7107 22.9142 14.0858C23.2893 14.4609 23.5 14.9696 23.5 15.5Z" stroke="#00303E" stroke-linecap="round" stroke-linejoin="round"/>
<path d="M23.5 16.5V21.5C23.5 22.0304 23.2893 22.5391 22.9142 22.9142C22.5391 23.2893 22.0304 23.5 21.5 23.5H11.5C10.9701 23.4984 10.4623 23.2872 10.0875 22.9125C9.7128 22.5377 9.50158 22.0299 9.5 21.5V16.5H23.5Z" stroke="#00303E" stroke-linecap="round" stroke-linejoin="round"/>
<path d="M0.5 4.5V21.5C0.501583 22.0299 0.712805 22.5377 1.08753 22.9125C1.46227 23.2872 1.97005 23.4984 2.5 23.5H7.5" stroke="#00303E" stroke-linecap="round" stroke-linejoin="round"/>
<path d="M7.5 19.5H0.5" stroke="#00303E" stroke-linecap="round" stroke-linejoin="round"/>
<path d="M16.5 18.5H11.5" stroke="#00303E" stroke-linecap="round" stroke-linejoin="round"/>
<path d="M13.5 20.5H11.5" stroke="#00303E" stroke-linecap="round" stroke-linejoin="round"/>
</g>
<defs>
<clipPath id="clip0_3303_11904">
<rect width="24" height="24" fill="white"/>
</clipPath>
</defs>
</svg>
