<svg width="24" height="24" viewBox="0 0 24 24" fill="none" xmlns="http://www.w3.org/2000/svg">
<g clip-path="url(#clip0_3303_2788)">
<path d="M23.021 2.978L20.5 5.5H18.5V3.5L21.021 0.977998C20.2343 0.582224 19.3487 0.425999 18.4741 0.528681C17.5994 0.631364 16.7741 0.988442 16.1004 1.55566C15.4267 2.12288 14.9343 2.87531 14.6841 3.71971C14.4339 4.56411 14.4371 5.46335 14.693 6.306L6.30704 14.693C5.46439 14.437 4.56514 14.4339 3.72075 14.6841C2.87635 14.9342 2.12392 15.4267 1.5567 16.1004C0.989479 16.774 0.632402 17.5994 0.529719 18.474C0.427036 19.3487 0.583262 20.2343 0.979035 21.021L3.50004 18.5H5.50004V20.5L2.97904 23.021C3.76577 23.4168 4.65134 23.573 5.52601 23.4703C6.40068 23.3676 7.22599 23.0106 7.89967 22.4433C8.57335 21.8761 9.06579 21.1237 9.31596 20.2793C9.56612 19.4349 9.56302 18.5356 9.30704 17.693L17.693 9.306C18.5357 9.56198 19.4349 9.56508 20.2793 9.31492C21.1237 9.06475 21.8761 8.57232 22.4434 7.89863C23.0106 7.22495 23.3677 6.39964 23.4704 5.52497C23.573 4.6503 23.4168 3.76473 23.021 2.978Z" fill="#DFF9FF"/>
<path d="M18.5 5.5V3.5L21.021 0.977998C20.2343 0.582224 19.3487 0.425999 18.4741 0.528681C17.5994 0.631364 16.7741 0.988442 16.1004 1.55566C15.4267 2.12288 14.9343 2.87531 14.6841 3.71971C14.4339 4.56411 14.4371 5.46335 14.693 6.306L6.30704 14.693C5.46439 14.437 4.56514 14.4339 3.72075 14.6841C2.87635 14.9342 2.12392 15.4267 1.5567 16.1004C0.989479 16.774 0.632402 17.5994 0.529719 18.474C0.427036 19.3487 0.583262 20.2343 0.979035 21.021L3.50004 18.5H5.50004L18.5 5.5Z" fill="white"/>
<path d="M23.021 2.978L20.5 5.5H18.5V3.5L21.021 0.977998C20.2343 0.582224 19.3487 0.425999 18.4741 0.528681C17.5994 0.631364 16.7741 0.988442 16.1004 1.55566C15.4267 2.12288 14.9343 2.87531 14.6841 3.71971C14.4339 4.56411 14.4371 5.46335 14.693 6.306L6.30704 14.693C5.46439 14.437 4.56514 14.4339 3.72075 14.6841C2.87635 14.9342 2.12392 15.4267 1.5567 16.1004C0.989479 16.774 0.632402 17.5994 0.529719 18.474C0.427036 19.3487 0.583262 20.2343 0.979035 21.021L3.50004 18.5H5.50004V20.5L2.97904 23.021C3.76577 23.4168 4.65134 23.573 5.52601 23.4703C6.40068 23.3676 7.22599 23.0106 7.89967 22.4433C8.57335 21.8761 9.06579 21.1237 9.31596 20.2793C9.56612 19.4349 9.56302 18.5356 9.30704 17.693L17.693 9.306C18.5357 9.56198 19.4349 9.56508 20.2793 9.31492C21.1237 9.06475 21.8761 8.57232 22.4434 7.89863C23.0106 7.22495 23.3677 6.39964 23.4704 5.52497C23.573 4.6503 23.4168 3.76473 23.021 2.978Z" stroke="#00303E" stroke-linecap="round" stroke-linejoin="round"/>
</g>
<defs>
<clipPath id="clip0_3303_2788">
<rect width="24" height="24" fill="white"/>
</clipPath>
</defs>
</svg>
