<svg width="24" height="24" viewBox="0 0 24 24" fill="none" xmlns="http://www.w3.org/2000/svg">
<path fill-rule="evenodd" clip-rule="evenodd" d="M11.8381 2.25002C10.1318 2.24975 9.09058 2.24958 8.22306 2.53146C6.47255 3.10024 5.10011 4.47267 4.53134 6.22319C4.24946 7.0907 4.24963 8.13192 4.24989 9.83819L4.24991 17.4214C4.2499 18.3511 4.2499 19.0942 4.29497 19.6664C4.33938 20.2303 4.43385 20.7651 4.7201 21.1894C5.29451 22.041 6.29561 22.5014 7.31598 22.3834C7.82447 22.3245 8.292 22.0482 8.749 21.715C9.21279 21.3768 9.77698 20.8932 10.4829 20.2881L10.5087 20.266C11.1995 19.6739 11.3961 19.5218 11.5835 19.4556C11.8529 19.3604 12.1469 19.3604 12.4164 19.4556C12.6037 19.5218 12.8003 19.6739 13.4911 20.266L13.5169 20.2881C14.2228 20.8932 14.787 21.3768 15.2508 21.715C15.7078 22.0482 16.1754 22.3245 16.6838 22.3834C17.7042 22.5014 18.7053 22.041 19.2797 21.1894C19.566 20.7651 19.6604 20.2303 19.7049 19.6664C19.7499 19.0942 19.7499 18.3512 19.7499 17.4214L19.7499 9.8382C19.7502 8.13192 19.7504 7.09071 19.4685 6.22319C18.8997 4.47267 17.5273 3.10024 15.7768 2.53146C14.9092 2.24958 13.868 2.24975 12.1617 2.25002H11.8381ZM8.68659 3.95804C9.2983 3.75929 10.0803 3.75003 11.9999 3.75003C13.9196 3.75003 14.7015 3.75929 15.3132 3.95804C16.6071 4.37844 17.6215 5.39285 18.0419 6.68671C18.2407 7.29842 18.2499 8.08038 18.2499 10V17.3874C18.2499 18.3589 18.2494 19.0425 18.2095 19.5486C18.1684 20.0701 18.0919 20.268 18.0362 20.3506C17.7751 20.7377 17.32 20.947 16.8562 20.8933C16.7573 20.8819 16.5572 20.8111 16.1346 20.503C15.7243 20.2038 15.2049 19.7594 14.4673 19.1271L14.3681 19.042C13.826 18.5765 13.4032 18.2134 12.9161 18.0413C12.3233 17.8318 11.6766 17.8318 11.0837 18.0413C10.5966 18.2134 10.1738 18.5765 9.63173 19.042L9.53251 19.1271C8.7949 19.7594 8.27549 20.2038 7.86526 20.503C7.44261 20.8111 7.24252 20.8819 7.14358 20.8933C6.67977 20.947 6.22473 20.7377 5.96363 20.3506C5.90793 20.268 5.83142 20.0701 5.79034 19.5486C5.75047 19.0425 5.74991 18.3589 5.74991 17.3874V10C5.74991 8.08038 5.75916 7.29842 5.95792 6.68671C6.37832 5.39285 7.39273 4.37844 8.68659 3.95804Z" fill="#FAFAFA"/>
</svg>
