<svg width="24" height="24" viewBox="0 0 24 24" fill="none" xmlns="http://www.w3.org/2000/svg">
<path d="M18 11.0002C18 11.5525 17.5523 12.0002 17 12.0002C16.4477 12.0002 16 11.5525 16 11.0002C16 10.4479 16.4477 10.0002 17 10.0002C17.5523 10.0002 18 10.4479 18 11.0002Z" fill="#FAFAFA"/>
<path d="M16 13.0002C16 13.5525 15.5523 14.0002 15 14.0002C14.4477 14.0002 14 13.5525 14 13.0002C14 12.4479 14.4477 12.0002 15 12.0002C15.5523 12.0002 16 12.4479 16 13.0002Z" fill="#FAFAFA"/>
<path d="M20 13.0002C20 13.5525 19.5523 14.0002 19 14.0002C18.4477 14.0002 18 13.5525 18 13.0002C18 12.4479 18.4477 12.0002 19 12.0002C19.5523 12.0002 20 12.4479 20 13.0002Z" fill="#FAFAFA"/>
<path d="M18 15.0002C18 15.5525 17.5523 16.0002 17 16.0002C16.4477 16.0002 16 15.5525 16 15.0002C16 14.4479 16.4477 14.0002 17 14.0002C17.5523 14.0002 18 14.4479 18 15.0002Z" fill="#FAFAFA"/>
<path d="M7.74992 11.0002C7.74992 10.586 7.41414 10.2502 6.99992 10.2502C6.58571 10.2502 6.24992 10.586 6.24992 11.0002V12.2502H4.99992C4.58571 12.2502 4.24992 12.586 4.24992 13.0002C4.24992 13.4144 4.58571 13.7502 4.99992 13.7502H6.24992V15.0002C6.24992 15.4144 6.58571 15.7502 6.99992 15.7502C7.41414 15.7502 7.74992 15.4144 7.74992 15.0002V13.7502H8.99992C9.41414 13.7502 9.74992 13.4144 9.74992 13.0002C9.74992 12.586 9.41414 12.2502 8.99992 12.2502H7.74992V11.0002Z" fill="#FAFAFA"/>
<path fill-rule="evenodd" clip-rule="evenodd" d="M16.7041 3.25839C16.8467 2.8695 16.647 2.43864 16.2581 2.29605C15.8692 2.15345 15.4384 2.35312 15.2958 2.74201L15.0535 3.40263C14.9069 3.80253 14.5263 4.06839 14.1003 4.06839C12.91 4.06839 11.8826 4.9028 11.6385 6.06785L11.2925 7.71933C11.234 7.70944 11.1756 7.69833 11.1174 7.68598C10.6992 7.59721 10.2841 7.41689 9.25881 6.96119L8.72782 6.7252C8.02318 6.41202 7.26065 6.2502 6.48954 6.2502C3.13576 6.2502 0.559514 9.22063 1.03381 12.5407L1.26471 14.157L2.72098 19.254C3.14314 20.7315 4.49365 21.7502 6.03034 21.7502C7.20146 21.7502 8.29221 21.1547 8.9255 20.1696L9.29986 19.5872C10.5634 17.6218 13.4365 17.6218 14.7 19.5872L14.929 19.9435C15.6529 21.0695 16.8997 21.7502 18.2383 21.7502C20.1962 21.7502 21.8561 20.3106 22.1329 18.3724L22.966 12.5407C23.4403 9.22063 20.8641 6.2502 17.5103 6.2502C16.7392 6.2502 15.9767 6.41202 15.272 6.7252L14.741 6.96119C13.7157 7.41689 13.3006 7.59721 12.8825 7.68598C12.8649 7.6897 12.8474 7.69331 12.8298 7.69681L13.1066 6.37546C13.2052 5.90519 13.6199 5.56839 14.1003 5.56839C15.1556 5.56839 16.0986 4.90973 16.4619 3.91901L16.7041 3.25839ZM2.51874 12.3286C2.17353 9.91215 4.04858 7.7502 6.48954 7.7502C7.05077 7.7502 7.60576 7.86798 8.11862 8.09592L8.73053 8.36788C9.64955 8.77645 10.215 9.02785 10.8059 9.15328C11.1642 9.22934 11.528 9.27079 11.8923 9.27761C12.3283 9.28577 12.765 9.24433 13.1939 9.15328C13.7848 9.02785 14.3503 8.77645 15.2693 8.36789L15.8812 8.09592C16.3941 7.86798 16.9491 7.7502 17.5103 7.7502C19.9513 7.7502 21.8263 9.91215 21.4811 12.3286L20.648 18.1603C20.4767 19.3595 19.4497 20.2502 18.2383 20.2502C17.4101 20.2502 16.6386 19.829 16.1908 19.1323L15.9618 18.7761C14.1078 15.8922 9.89207 15.8922 8.0381 18.7761L7.66373 19.3585C7.30644 19.9142 6.69106 20.2502 6.03034 20.2502C5.16337 20.2502 4.40144 19.6755 4.16327 18.8419L2.73514 13.8434L2.51874 12.3286Z" fill="#FAFAFA"/>
</svg>
