<svg width="16" height="16" viewBox="0 0 16 16" fill="none" xmlns="http://www.w3.org/2000/svg">
<g clip-path="url(#clip0_1_6506)">
<rect x="6.09091" y="6.32457" width="0.636364" height="0.665645" fill="black"/>
<rect x="9.27273" y="6.32457" width="0.636364" height="0.665645" fill="black"/>
<rect x="6.09091" y="6.99022" width="0.636364" height="0.665645" fill="black"/>
<rect x="9.27273" y="6.99022" width="0.636364" height="0.665645" fill="black"/>
<rect x="6.09091" y="7.65586" width="0.636364" height="0.665645" fill="black"/>
<rect x="6.09091" y="7.46216" width="0.636364" height="1.55397" fill="black"/>
<rect x="9.27273" y="7.65586" width="0.636364" height="0.665645" fill="black"/>
<rect x="5.45454" y="8.99229" width="0.636364" height="0.667496" fill="black"/>
<rect x="4.81818" y="8.99229" width="0.636364" height="0.667496" fill="black"/>
<rect x="4.18182" y="8.99229" width="0.636364" height="0.667496" fill="black"/>
<rect x="11.8182" y="7.65586" width="0.636364" height="0.665645" fill="#424242"/>
<rect x="11.8182" y="8.30138" width="0.636364" height="0.665645" fill="#424242"/>
<rect x="11.8182" y="6.99022" width="0.636364" height="0.665645" fill="#424242"/>
<rect x="11.8182" y="6.32457" width="0.636364" height="0.665645" fill="#424242"/>
<rect x="4.18182" y="5.65893" width="0.636364" height="0.665645" fill="black"/>
<rect x="11.1818" y="5.65893" width="0.636364" height="0.665645" fill="black"/>
<rect x="4.81818" y="5.65893" width="0.636364" height="0.665645" fill="black"/>
<rect x="10.5455" y="5.65893" width="0.636364" height="0.665645" fill="black"/>
<rect x="5.45454" y="5.65893" width="0.636364" height="0.665645" fill="black"/>
<rect x="9.90909" y="5.65893" width="0.636364" height="0.665645" fill="black"/>
<rect x="6.72727" y="5.65893" width="0.636364" height="0.665645" fill="black"/>
<rect x="8.63637" y="5.65893" width="0.636364" height="0.665645" fill="black"/>
<rect x="7.36363" y="6.99022" width="0.636364" height="0.665645" fill="black"/>
<rect x="8" y="6.99022" width="0.636364" height="0.665645" fill="black"/>
<rect x="8" y="5.65893" width="0.636364" height="0.665645" fill="black"/>
<rect x="7.36363" y="5.65893" width="0.636364" height="0.665645" fill="black"/>
<rect x="6.72727" y="7.65586" width="0.636364" height="0.665645" fill="black"/>
<rect x="8.63637" y="7.65586" width="0.636364" height="0.665645" fill="black"/>
<rect x="4.81818" y="4.99329" width="0.636364" height="0.665645" fill="black"/>
<rect x="10.5455" y="4.99329" width="0.636364" height="0.665645" fill="black"/>
<rect x="4.18182" y="4.32764" width="0.636364" height="0.665645" fill="black"/>
<rect x="11.1818" y="4.32764" width="0.636364" height="0.665645" fill="black"/>
<rect x="3.54546" y="4.32764" width="0.636364" height="0.665645" fill="black"/>
<rect x="11.8182" y="4.32764" width="0.636364" height="0.665645" fill="black"/>
<rect x="2.90909" y="4.99329" width="0.636364" height="0.665645" fill="black"/>
<rect x="2.90909" y="4.32764" width="0.636364" height="0.665645" fill="#AF780F"/>
<rect x="2.27103" y="4.32764" width="0.636364" height="0.665645" fill="#AF780F"/>
<rect x="2.90909" y="3.66199" width="0.636364" height="0.665645" fill="#AF780F"/>
<rect x="2.90909" y="2.99635" width="0.636364" height="0.665645" fill="#AF780F"/>
<rect x="3.54546" y="2.99635" width="0.636364" height="0.665645" fill="#DEA22F"/>
<rect x="3.54546" y="3.6614" width="0.636364" height="0.665645" fill="#DEA22F"/>
<rect x="2.87711" y="4.33178" width="0.636364" height="0.665645" fill="#DEA22F"/>
<rect x="3.54546" y="2.33129" width="0.636364" height="0.665645" fill="#AF780F"/>
<rect x="3.54546" y="1.66564" width="0.636364" height="0.665645" fill="#AF780F"/>
<rect x="4.18182" y="1.66564" width="0.636364" height="0.665645" fill="#AF780F"/>
<rect x="4.18182" y="2.33129" width="0.636364" height="0.665645" fill="#DEA22F"/>
<rect x="4.18182" y="2.99693" width="0.636364" height="0.665645" fill="#DEA22F"/>
<rect x="4.81818" y="2.99693" width="0.636364" height="0.665645" fill="#DEA22F"/>
<rect x="4.81818" y="3.6614" width="0.636364" height="0.665645" fill="#DEA22F"/>
<rect x="5.45454" y="3.6614" width="0.636364" height="0.665645" fill="#DEA22F"/>
<rect x="6.08978" y="3.6614" width="0.636364" height="0.665645" fill="#DEA22F"/>
<rect x="6.72727" y="3.6614" width="0.636364" height="0.665645" fill="#DEA22F"/>
<rect x="7.3642" y="3.6614" width="0.636364" height="0.665645" fill="#DEA22F"/>
<rect x="7.99887" y="3.6614" width="0.636364" height="0.665645" fill="#DEA22F"/>
<rect x="8.63524" y="3.6614" width="0.636364" height="0.665645" fill="#DEA22F"/>
<rect x="9.27386" y="3.6614" width="0.636364" height="0.665645" fill="#DEA22F"/>
<rect x="9.90739" y="3.6614" width="0.636364" height="0.665645" fill="#DEA22F"/>
<rect x="10.5438" y="3.6614" width="0.636364" height="0.665645" fill="#DEA22F"/>
<rect x="10.5438" y="2.99783" width="0.636364" height="0.665645" fill="#DEA22F"/>
<rect x="11.1801" y="2.99783" width="0.636364" height="0.665645" fill="#DEA22F"/>
<rect x="11.1801" y="3.6614" width="0.636364" height="0.665645" fill="#DEA22F"/>
<rect x="11.1801" y="2.3307" width="0.636364" height="0.665645" fill="#DEA22F"/>
<rect x="11.1801" y="1.66505" width="0.636364" height="0.665645" fill="#DEA22F"/>
<rect x="11.8182" y="1.66505" width="0.636364" height="0.665645" fill="#DEA22F"/>
<rect x="11.8182" y="2.3307" width="0.636364" height="0.665645" fill="#DEA22F"/>
<rect x="12.45" y="2.32745" width="0.636364" height="0.665645" fill="#DEA22F"/>
<rect x="12.4545" y="2.99783" width="0.636364" height="0.665645" fill="#DEA22F"/>
<rect x="11.8182" y="2.99783" width="0.636364" height="0.665645" fill="#DEA22F"/>
<rect x="12.45" y="2.99458" width="0.636364" height="0.665645" fill="#DEA22F"/>
<rect x="12.4545" y="3.66495" width="0.636364" height="0.665645" fill="#DEA22F"/>
<rect x="11.8182" y="3.66465" width="0.636364" height="0.665645" fill="#DEA22F"/>
<rect x="12.45" y="3.6614" width="0.636364" height="0.665645" fill="#DEA22F"/>
<rect x="12.4545" y="4.33178" width="0.636364" height="0.665645" fill="#DEA22F"/>
<rect x="13.092" y="4.33178" width="0.636364" height="0.665645" fill="#DEA22F"/>
<rect x="13.092" y="5.65715" width="0.636364" height="0.665645" fill="#DEA22F"/>
<rect x="12.4545" y="5.66011" width="0.636364" height="0.665645" fill="#DEA22F"/>
<rect x="12.4545" y="6.32693" width="0.636364" height="0.665645" fill="#DEA22F"/>
<rect x="12.4545" y="6.99377" width="0.636364" height="0.665645" fill="#DEA22F"/>
<rect x="12.4545" y="7.65941" width="0.636364" height="0.665645" fill="#DEA22F"/>
<rect x="13.092" y="6.32812" width="0.636364" height="1.33129" fill="#DEA22F"/>
<rect x="13.092" y="7.65941" width="0.636364" height="0.665645" fill="#DEA22F"/>
<rect x="13.092" y="8.32861" width="0.636364" height="0.665645" fill="#DEA22F"/>
<rect x="11.8137" y="8.98715" width="0.636364" height="0.665645" fill="#DEA22F"/>
<rect x="11.8137" y="9.65102" width="0.636364" height="0.665645" fill="#DEA22F"/>
<rect x="12.4545" y="8.31855" width="0.636364" height="0.665645" fill="#DEA22F"/>
<rect x="11.1762" y="8.99425" width="0.636364" height="0.665645" fill="#DEA22F"/>
<rect x="13.0864" y="8.99425" width="0.636364" height="0.665645" fill="#DEA22F"/>
<rect x="13.0864" y="9.6528" width="0.636364" height="0.665645" fill="#DEA22F"/>
<rect x="13.0864" y="10.3167" width="0.636364" height="0.665645" fill="#DEA22F"/>
<rect x="13.0864" y="10.8299" width="0.636364" height="0.665645" fill="#DEA22F"/>
<rect x="13.7227" y="8.22069" width="0.636364" height="1.43921" fill="#DEA22F"/>
<rect x="13.7227" y="9.6528" width="0.636364" height="0.665645" fill="#DEA22F"/>
<rect x="13.7227" y="10.3167" width="0.636364" height="0.665645" fill="#DEA22F"/>
<rect x="11.8182" y="5.66011" width="0.636364" height="0.665645" fill="#DEA22F"/>
<rect x="10.5398" y="8.95342" width="0.636364" height="0.706473" fill="#DEA22F"/>
<rect x="12.4545" y="8.98419" width="0.636364" height="0.665645" fill="#DEA22F"/>
<rect x="12.45" y="9.6599" width="0.636364" height="0.665645" fill="#DEA22F"/>
<rect x="12.45" y="10.3167" width="0.636364" height="0.665645" fill="#DEA22F"/>
<rect x="11.8182" y="4.99329" width="0.636364" height="0.665645" fill="#DEA22F"/>
<rect x="11.1801" y="4.99329" width="0.636364" height="0.665645" fill="#DEA22F"/>
<rect x="10.5438" y="4.32852" width="0.636364" height="0.665645" fill="#DEA22F"/>
<rect x="9.27386" y="4.32793" width="0.636364" height="0.665645" fill="#DEA22F"/>
<rect x="6.08978" y="4.32764" width="0.636364" height="0.665645" fill="#DEA22F"/>
<rect x="4.81818" y="4.32764" width="0.636364" height="0.665645" fill="#DEA22F"/>
<rect x="3.54602" y="4.99329" width="1.27727" height="0.665645" fill="#AF780F"/>
<rect x="3.53292" y="4.99329" width="0.636364" height="0.665645" fill="#AF780F"/>
<rect x="3.54546" y="5.65981" width="0.636364" height="0.665645" fill="#DEA22F"/>
<rect x="2.90909" y="5.66011" width="0.636364" height="0.665645" fill="#DEA22F"/>
<rect x="2.90966" y="6.98962" width="0.636364" height="0.665645" fill="#DEA22F"/>
<rect x="2.90966" y="6.32398" width="0.636364" height="0.665645" fill="#DEA22F"/>
<rect x="2.90966" y="7.65527" width="0.636364" height="0.665645" fill="#DEA22F"/>
<rect x="2.27216" y="8.31973" width="0.636364" height="0.665645" fill="#DEA22F"/>
<rect x="2.27216" y="8.98537" width="0.636364" height="0.665645" fill="#DEA22F"/>
<rect x="3.53179" y="8.98537" width="0.636364" height="0.665645" fill="#DEA22F"/>
<rect x="2.27216" y="9.65102" width="0.636364" height="0.665645" fill="#DEA22F"/>
<rect x="2.27216" y="10.319" width="0.636364" height="0.665645" fill="#AF780F"/>
<rect x="2.27216" y="10.8299" width="0.636364" height="0.665645" fill="#AF780F"/>
<rect x="2.27216" y="11.3131" width="0.636364" height="0.665645" fill="#AF780F"/>
<rect x="2.27216" y="11.759" width="0.636364" height="0.665645" fill="#AF780F"/>
<rect x="3.53179" y="9.65102" width="0.655706" height="0.665645" fill="#DEA22F"/>
<rect x="2.27217" y="6.98962" width="0.636364" height="0.665645" fill="#AF780F"/>
<rect x="2.27217" y="6.32812" width="0.636364" height="0.665645" fill="#AF780F"/>
<rect x="2.27217" y="5.66721" width="0.636364" height="0.665645" fill="#AF780F"/>
<rect x="2.27217" y="7.65527" width="0.636364" height="0.665645" fill="#DEA22F"/>
<rect x="1.63466" y="8.31973" width="0.636364" height="0.665645" fill="#AF780F"/>
<rect x="1.63466" y="8.98537" width="0.636364" height="0.665645" fill="#AF780F"/>
<rect x="2.89543" y="8.98537" width="0.636364" height="0.665645" fill="#DEA22F"/>
<rect x="1.63466" y="9.65102" width="0.636364" height="0.665645" fill="#AF780F"/>
<rect x="2.89543" y="9.65102" width="0.636364" height="0.665645" fill="#DEA22F"/>
<rect x="2.89543" y="10.319" width="1.51619" height="0.665645" fill="#DEA22F"/>
<rect x="2.90966" y="8.31973" width="0.636364" height="0.665645" fill="#DEA22F"/>
<rect x="5.45454" y="4.32764" width="0.636364" height="0.665645" fill="#DEA22F"/>
<rect x="6.08978" y="4.32764" width="0.636364" height="0.665645" fill="#DEA22F"/>
<rect x="6.08978" y="9.01612" width="0.636364" height="0.665645" fill="#DEA22F"/>
<rect x="5.45682" y="9.64984" width="0.636364" height="0.665645" fill="#DEA22F"/>
<rect x="4.18579" y="10.3255" width="0.636364" height="0.665645" fill="#DEA22F"/>
<rect x="9.27386" y="10.3255" width="0.636364" height="0.665645" fill="#DEA22F"/>
<rect x="3.53179" y="10.9876" width="0.636364" height="0.665645" fill="#DEA22F"/>
<rect x="7.34883" y="10.9876" width="0.636364" height="0.665645" fill="#DEA22F"/>
<rect x="7.34883" y="11.6497" width="0.636364" height="0.665645" fill="#DEA22F"/>
<rect x="7.34883" y="12.3189" width="0.636364" height="0.665645" fill="#DEA22F"/>
<rect x="7.34883" y="12.9745" width="0.636364" height="0.665645" fill="#DEA22F"/>
<rect x="7.34883" y="13.6402" width="0.636364" height="0.665645" fill="#DEA22F"/>
<rect x="7.34883" y="14.2082" width="0.636364" height="0.665645" fill="#DEA22F"/>
<rect x="7.34883" y="14.7865" width="0.636364" height="0.665645" fill="#DEA22F"/>
<rect x="7.34883" y="15.3176" width="0.636364" height="0.665645" fill="#DEA22F"/>
<rect x="9.57497" y="12.9139" width="0.636364" height="0.665645" fill="#DEA22F"/>
<rect x="11.0736" y="11.8629" width="0.636364" height="0.665645" fill="#DEA22F"/>
<rect x="11.0736" y="11.2332" width="0.636364" height="0.665645" fill="#DEA22F"/>
<rect x="10.4383" y="10.0216" width="0.636364" height="0.665645" fill="#DEA22F"/>
<rect x="5.7767" y="10.147" width="0.636364" height="0.665645" fill="#DEA22F"/>
<rect x="10.9654" y="9.35593" width="0.636364" height="0.665645" fill="#DEA22F"/>
<rect x="5.23808" y="12.6414" width="0.636364" height="0.665645" fill="#DEA22F"/>
<rect x="5.23808" y="13.2937" width="0.636364" height="0.665645" fill="#DEA22F"/>
<rect x="5.98608" y="13.7981" width="0.636364" height="0.665645" fill="#DEA22F"/>
<rect x="6.0761" y="14.7607" width="0.636364" height="0.665645" fill="#DEA22F"/>
<rect x="6.09601" y="15.3244" width="0.636364" height="0.665645" fill="#DEA22F"/>
<rect x="6.29907" y="12.0263" width="0.636364" height="0.665645" fill="#DEA22F"/>
<rect x="7.1631" y="10.5675" width="0.636364" height="0.665645" fill="#DEA22F"/>
<rect x="3.64294" y="9.95869" width="0.636364" height="0.665645" fill="#DEA22F"/>
<rect x="10.7295" y="8.95342" width="0.636364" height="0.665645" fill="#DEA22F"/>
<rect x="6.84491" y="14.1712" width="0.636364" height="0.665645" fill="#DEA22F"/>
<rect x="3.53179" y="11.6533" width="0.636364" height="0.665645" fill="#DEA22F"/>
<rect x="3.53179" y="12.3154" width="0.636364" height="0.665645" fill="#DEA22F"/>
<rect x="3.53179" y="12.9846" width="0.636364" height="0.665645" fill="#DEA22F"/>
<rect x="3.53179" y="13.6538" width="0.636364" height="0.665645" fill="#DEA22F"/>
<rect x="6.72727" y="4.32764" width="0.636364" height="0.665645" fill="#DEA22F"/>
<rect x="6.72727" y="8.32358" width="0.636364" height="0.665645" fill="#DEA22F"/>
<rect x="6.72727" y="8.98419" width="0.636364" height="0.665645" fill="#DEA22F"/>
<rect x="6.09431" y="9.64984" width="0.636364" height="0.665645" fill="#DEA22F"/>
<rect x="4.82329" y="10.3255" width="0.636364" height="0.665645" fill="#DEA22F"/>
<rect x="9.91135" y="10.3255" width="0.636364" height="0.665645" fill="#DEA22F"/>
<rect x="4.16928" y="10.9876" width="0.636364" height="0.665645" fill="#DEA22F"/>
<rect x="7.98633" y="10.9876" width="0.636364" height="0.665645" fill="#DEA22F"/>
<rect x="7.98633" y="11.6497" width="0.636364" height="0.665645" fill="#DEA22F"/>
<rect x="7.98633" y="12.3189" width="0.636364" height="0.665645" fill="#DEA22F"/>
<rect x="7.98633" y="12.9745" width="0.636364" height="0.665645" fill="#DEA22F"/>
<rect x="7.98633" y="13.6402" width="0.636364" height="0.665645" fill="#DEA22F"/>
<rect x="7.98633" y="14.2082" width="0.636364" height="0.665645" fill="#DEA22F"/>
<rect x="7.98633" y="14.7865" width="0.636364" height="0.665645" fill="#DEA22F"/>
<rect x="7.98633" y="15.3176" width="0.636364" height="0.665645" fill="#DEA22F"/>
<rect x="10.2125" y="12.9139" width="0.636364" height="0.665645" fill="#DEA22F"/>
<rect x="11.7111" y="11.8629" width="0.636364" height="0.665645" fill="#DEA22F"/>
<rect x="11.7111" y="11.2332" width="0.636364" height="0.665645" fill="#DEA22F"/>
<rect x="11.0758" y="10.0216" width="0.636364" height="0.665645" fill="#DEA22F"/>
<rect x="6.41419" y="10.147" width="0.636364" height="0.665645" fill="#DEA22F"/>
<rect x="11.6029" y="9.35593" width="0.636364" height="0.665645" fill="#DEA22F"/>
<rect x="5.87556" y="12.6414" width="0.636364" height="0.665645" fill="#DEA22F"/>
<rect x="5.87556" y="13.2937" width="0.636364" height="0.665645" fill="#DEA22F"/>
<rect x="6.62357" y="13.7981" width="0.636364" height="0.665645" fill="#DEA22F"/>
<rect x="6.7136" y="14.7607" width="0.636364" height="0.665645" fill="#DEA22F"/>
<rect x="6.73351" y="15.3244" width="0.636364" height="0.665645" fill="#DEA22F"/>
<rect x="6.93657" y="12.0263" width="0.636364" height="0.665645" fill="#DEA22F"/>
<rect x="7.80059" y="10.5675" width="0.636364" height="0.665645" fill="#DEA22F"/>
<rect x="3.64294" y="9.66185" width="1.27386" height="0.962489" fill="#DEA22F"/>
<rect x="4.70639" y="7.66296" width="0.636364" height="0.665645" fill="#DEA22F"/>
<rect x="11.367" y="10.1368" width="0.636364" height="0.665645" fill="#DEA22F"/>
<rect x="11.3659" y="8.96703" width="1.083" height="0.685767" fill="black"/>
<rect x="7.48241" y="14.1712" width="0.636364" height="0.665645" fill="#DEA22F"/>
<rect x="4.16928" y="11.6533" width="0.636364" height="0.665645" fill="#DEA22F"/>
<rect x="4.16928" y="12.3154" width="0.636364" height="0.665645" fill="#DEA22F"/>
<rect x="4.16928" y="12.9846" width="0.636364" height="0.665645" fill="#DEA22F"/>
<rect x="4.16928" y="13.6538" width="0.636364" height="0.665645" fill="#DEA22F"/>
<rect x="7.3642" y="4.32764" width="0.636364" height="0.665645" fill="#DEA22F"/>
<rect x="7.3642" y="8.32358" width="0.636364" height="0.665645" fill="#DEA22F"/>
<rect x="7.3642" y="8.98419" width="0.636364" height="0.665645" fill="#DEA22F"/>
<rect x="6.73125" y="9.64984" width="0.636364" height="0.665645" fill="#DEA22F"/>
<rect x="5.46022" y="10.3255" width="0.636364" height="0.665645" fill="#DEA22F"/>
<rect x="10.5483" y="10.3255" width="0.636364" height="0.665645" fill="#DEA22F"/>
<rect x="4.80622" y="10.9876" width="0.636364" height="0.665645" fill="#DEA22F"/>
<rect x="8.62326" y="10.9876" width="0.636364" height="0.665645" fill="#DEA22F"/>
<rect x="8.62326" y="11.6497" width="0.636364" height="0.665645" fill="#DEA22F"/>
<rect x="8.62326" y="12.3189" width="0.636364" height="0.665645" fill="#DEA22F"/>
<rect x="8.62326" y="12.9745" width="0.636364" height="0.665645" fill="#DEA22F"/>
<rect x="8.62326" y="13.6402" width="0.636364" height="0.665645" fill="#DEA22F"/>
<rect x="8.62326" y="14.2082" width="0.636364" height="0.665645" fill="#DEA22F"/>
<rect x="8.62326" y="14.7865" width="0.636364" height="0.665645" fill="#DEA22F"/>
<rect x="8.62326" y="15.3176" width="0.636364" height="0.665645" fill="#DEA22F"/>
<rect x="10.8494" y="12.9139" width="0.636364" height="0.665645" fill="#DEA22F"/>
<rect x="12.348" y="11.8629" width="0.636364" height="0.665645" fill="#DEA22F"/>
<rect x="12.348" y="11.2332" width="0.636364" height="0.665645" fill="#DEA22F"/>
<rect x="11.7128" y="10.0216" width="0.636364" height="0.665645" fill="#DEA22F"/>
<rect x="7.05112" y="10.147" width="0.636364" height="0.665645" fill="#DEA22F"/>
<rect x="5.76077" y="9.63268" width="0.636364" height="0.665645" fill="#DEA22F"/>
<rect x="12.4489" y="9.35593" width="0.636364" height="0.665645" fill="#DEA22F"/>
<rect x="6.5125" y="12.6414" width="0.636364" height="0.665645" fill="#DEA22F"/>
<rect x="6.5125" y="13.2937" width="0.636364" height="0.665645" fill="#DEA22F"/>
<rect x="7.2605" y="13.7981" width="0.636364" height="0.665645" fill="#DEA22F"/>
<rect x="7.35053" y="14.7607" width="0.636364" height="0.665645" fill="#DEA22F"/>
<rect x="7.37044" y="15.3244" width="0.636364" height="0.665645" fill="#DEA22F"/>
<rect x="7.57349" y="12.0263" width="0.636364" height="0.665645" fill="#DEA22F"/>
<rect x="8.43753" y="10.5675" width="0.636364" height="0.665645" fill="#DEA22F"/>
<rect x="3.96113" y="9.66185" width="1.59261" height="0.962489" fill="#DEA22F"/>
<rect x="5.34332" y="7.66296" width="0.636364" height="0.665645" fill="#DEA22F"/>
<rect x="12.4455" y="8.96703" width="0.636364" height="0.652035" fill="#DEA22F"/>
<rect x="8.11934" y="14.1712" width="0.636364" height="0.665645" fill="#DEA22F"/>
<rect x="4.80622" y="11.6533" width="0.636364" height="0.665645" fill="#DEA22F"/>
<rect x="4.80622" y="12.3154" width="0.636364" height="0.665645" fill="#DEA22F"/>
<rect x="4.80622" y="12.9846" width="0.636364" height="0.665645" fill="#DEA22F"/>
<rect x="4.80622" y="13.6538" width="0.636364" height="0.665645" fill="#DEA22F"/>
<rect x="7.99887" y="4.32764" width="0.636364" height="0.665645" fill="#DEA22F"/>
<rect x="7.99887" y="8.32358" width="0.636364" height="0.665645" fill="#DEA22F"/>
<rect x="7.99887" y="8.98419" width="0.636364" height="0.665645" fill="#DEA22F"/>
<rect x="7.36591" y="9.64984" width="0.636364" height="0.665645" fill="#DEA22F"/>
<rect x="6.71247" y="10.3155" width="1.33958" height="0.665645" fill="#DEA22F"/>
<rect x="6.09488" y="10.3255" width="0.636364" height="0.665645" fill="#DEA22F"/>
<rect x="11.183" y="10.3255" width="0.636364" height="0.665645" fill="#DEA22F"/>
<rect x="5.44089" y="10.9876" width="0.636364" height="0.665645" fill="#DEA22F"/>
<rect x="9.25793" y="10.9876" width="0.636364" height="0.665645" fill="#DEA22F"/>
<rect x="9.25793" y="11.6497" width="0.636364" height="0.665645" fill="#DEA22F"/>
<rect x="9.25793" y="12.3189" width="0.636364" height="0.665645" fill="#DEA22F"/>
<rect x="9.25793" y="12.9745" width="0.636364" height="0.665645" fill="#DEA22F"/>
<rect x="9.25793" y="13.6402" width="0.636364" height="0.665645" fill="#DEA22F"/>
<rect x="9.25793" y="14.2082" width="0.636364" height="0.665645" fill="#DEA22F"/>
<rect x="9.25793" y="14.7865" width="0.636364" height="0.665645" fill="#DEA22F"/>
<rect x="9.25793" y="15.3176" width="0.636364" height="0.665645" fill="#DEA22F"/>
<rect x="11.4841" y="12.9139" width="0.636364" height="0.665645" fill="#DEA22F"/>
<rect x="12.9827" y="11.8629" width="0.636364" height="0.665645" fill="#DEA22F"/>
<rect x="12.9827" y="11.2332" width="0.636364" height="0.665645" fill="#DEA22F"/>
<rect x="12.3474" y="10.0216" width="0.636364" height="0.665645" fill="#DEA22F"/>
<rect x="7.68579" y="10.147" width="0.636364" height="0.665645" fill="#DEA22F"/>
<rect x="6.39543" y="9.63268" width="0.636364" height="0.665645" fill="#DEA22F"/>
<rect x="12.8745" y="9.35593" width="0.636364" height="0.665645" fill="#DEA22F"/>
<rect x="7.14716" y="12.6414" width="0.636364" height="0.665645" fill="#DEA22F"/>
<rect x="7.14716" y="13.2937" width="0.636364" height="0.665645" fill="#DEA22F"/>
<rect x="7.89516" y="13.7981" width="0.636364" height="0.665645" fill="#DEA22F"/>
<rect x="7.9852" y="14.7607" width="0.636364" height="0.665645" fill="#DEA22F"/>
<rect x="8.0051" y="15.3244" width="0.636364" height="0.665645" fill="#DEA22F"/>
<rect x="8.20816" y="12.0263" width="0.636364" height="0.665645" fill="#DEA22F"/>
<rect x="9.07219" y="10.5675" width="0.636364" height="0.665645" fill="#DEA22F"/>
<rect x="5.87022" y="9.0163" width="0.636364" height="0.665645" fill="#DEA22F"/>
<rect x="5.55203" y="9.95869" width="0.636364" height="0.665645" fill="#DEA22F"/>
<rect x="12.6386" y="8.00939" width="0.636364" height="0.665645" fill="#DEA22F"/>
<rect x="12.6386" y="8.95342" width="0.636364" height="0.665645" fill="#DEA22F"/>
<rect x="8.75401" y="14.1712" width="0.636364" height="0.665645" fill="#DEA22F"/>
<rect x="5.44089" y="11.6533" width="0.636364" height="0.665645" fill="#DEA22F"/>
<rect x="5.44089" y="12.3154" width="0.636364" height="0.665645" fill="#DEA22F"/>
<rect x="5.44089" y="12.9846" width="0.636364" height="0.665645" fill="#DEA22F"/>
<rect x="5.44089" y="13.6538" width="0.636364" height="0.665645" fill="#DEA22F"/>
<rect x="5.44089" y="14.2218" width="0.636364" height="0.665645" fill="#DEA22F"/>
<rect x="5.44089" y="14.8002" width="0.636364" height="0.665645" fill="#DEA22F"/>
<rect x="5.44089" y="15.3312" width="0.636364" height="0.665645" fill="#DEA22F"/>
<rect x="7.66702" y="12.9275" width="0.636364" height="0.665645" fill="#DEA22F"/>
<rect x="9.16562" y="11.8765" width="0.636364" height="0.665645" fill="#DEA22F"/>
<rect x="9.16562" y="11.2468" width="0.636364" height="0.665645" fill="#DEA22F"/>
<rect x="8.53039" y="10.0352" width="0.636364" height="0.665645" fill="#DEA22F"/>
<rect x="3.86874" y="10.1606" width="0.636364" height="0.665645" fill="#DEA22F"/>
<rect x="2.57838" y="9.64629" width="0.636364" height="0.665645" fill="#DEA22F"/>
<rect x="9.05744" y="9.36954" width="0.636364" height="0.665645" fill="#DEA22F"/>
<rect x="3.33012" y="12.655" width="0.636364" height="0.665645" fill="#DEA22F"/>
<rect x="3.33012" y="13.3073" width="0.636364" height="0.665645" fill="#DEA22F"/>
<rect x="4.07812" y="13.8117" width="0.636364" height="0.665645" fill="#DEA22F"/>
<rect x="4.16815" y="14.7743" width="0.636364" height="0.665645" fill="#DEA22F"/>
<rect x="4.18806" y="15.338" width="0.636364" height="0.665645" fill="#DEA22F"/>
<rect x="4.39111" y="12.0399" width="0.636364" height="0.665645" fill="#DEA22F"/>
<rect x="5.25514" y="10.5811" width="0.636364" height="0.665645" fill="#DEA22F"/>
<rect x="2.2733" y="9.02991" width="0.636364" height="0.665645" fill="#DEA22F"/>
<rect x="1.73499" y="9.97231" width="0.636364" height="0.665645" fill="#AF780F"/>
<rect x="2.2733" y="7.65408" width="0.636364" height="0.665645" fill="#AF780F"/>
<rect x="8.82158" y="8.96703" width="0.636364" height="0.665645" fill="#DEA22F"/>
<rect x="8.63524" y="4.32764" width="0.636364" height="0.665645" fill="#DEA22F"/>
<rect x="9.27386" y="4.32764" width="0.636364" height="0.665645" fill="#DEA22F"/>
<rect x="8.63409" y="8.32358" width="0.636364" height="0.665645" fill="#DEA22F"/>
<rect x="8.63409" y="8.98419" width="0.636364" height="0.665645" fill="#DEA22F"/>
<rect x="8.00113" y="9.64984" width="0.636364" height="0.665645" fill="#DEA22F"/>
<rect x="8.04965" y="10.3155" width="1.33958" height="0.665645" fill="#DEA22F"/>
<rect x="9.26594" y="9.64984" width="0.636364" height="0.665645" fill="#DEA22F"/>
<rect x="6.0761" y="10.9876" width="0.636364" height="0.665645" fill="#DEA22F"/>
<rect x="9.89315" y="10.9876" width="0.636364" height="0.665645" fill="#DEA22F"/>
<rect x="9.89315" y="11.6497" width="0.636364" height="0.665645" fill="#DEA22F"/>
<rect x="9.89315" y="12.3189" width="0.636364" height="0.665645" fill="#DEA22F"/>
<rect x="9.89315" y="12.9745" width="0.636364" height="0.665645" fill="#DEA22F"/>
<rect x="9.89315" y="13.6402" width="0.636364" height="0.665645" fill="#DEA22F"/>
<rect x="9.89315" y="14.2082" width="0.636364" height="0.665645" fill="#DEA22F"/>
<rect x="9.89315" y="14.7865" width="0.636364" height="0.665645" fill="#DEA22F"/>
<rect x="9.89315" y="15.3176" width="0.636364" height="0.665645" fill="#DEA22F"/>
<rect x="12.1193" y="12.9139" width="0.636364" height="0.665645" fill="#DEA22F"/>
<rect x="13.6179" y="11.8629" width="0.636364" height="0.665645" fill="#DEA22F"/>
<rect x="13.6179" y="11.2332" width="0.636364" height="0.665645" fill="#DEA22F"/>
<rect x="12.9827" y="10.0216" width="0.636364" height="0.665645" fill="#DEA22F"/>
<rect x="8.32101" y="10.147" width="0.636364" height="0.665645" fill="#DEA22F"/>
<rect x="7.03065" y="9.63268" width="0.636364" height="0.665645" fill="#DEA22F"/>
<rect x="13.5097" y="9.35593" width="0.636364" height="0.665645" fill="#DEA22F"/>
<rect x="7.78239" y="12.6414" width="0.636364" height="0.665645" fill="#DEA22F"/>
<rect x="7.78239" y="13.2937" width="0.636364" height="0.665645" fill="#DEA22F"/>
<rect x="8.53039" y="13.7981" width="0.636364" height="0.665645" fill="#DEA22F"/>
<rect x="8.62042" y="14.7607" width="0.636364" height="0.665645" fill="#DEA22F"/>
<rect x="8.64033" y="15.3244" width="0.636364" height="0.665645" fill="#DEA22F"/>
<rect x="8.84338" y="12.0263" width="0.636364" height="0.665645" fill="#DEA22F"/>
<rect x="9.70741" y="10.5675" width="0.636364" height="0.665645" fill="#DEA22F"/>
<rect x="6.50544" y="9.0163" width="0.636364" height="0.665645" fill="#DEA22F"/>
<rect x="6.18726" y="9.95869" width="0.636364" height="0.665645" fill="#DEA22F"/>
<rect x="13.2738" y="8.00939" width="0.636364" height="0.665645" fill="#DEA22F"/>
<rect x="13.2738" y="8.95342" width="0.636364" height="0.665645" fill="#DEA22F"/>
<rect x="9.38923" y="14.1712" width="0.636364" height="0.665645" fill="#DEA22F"/>
<rect x="6.0761" y="11.6533" width="0.636364" height="0.665645" fill="#DEA22F"/>
<rect x="6.0761" y="12.3154" width="0.636364" height="0.665645" fill="#DEA22F"/>
<rect x="6.0761" y="12.9846" width="0.636364" height="0.665645" fill="#DEA22F"/>
<rect x="6.0761" y="13.6538" width="0.636364" height="0.665645" fill="#DEA22F"/>
<rect x="6.0761" y="14.2218" width="0.636364" height="0.665645" fill="#DEA22F"/>
<rect x="6.0761" y="14.8002" width="0.636364" height="0.665645" fill="#DEA22F"/>
<rect x="6.0761" y="15.3312" width="0.636364" height="0.665645" fill="#DEA22F"/>
<rect x="8.30225" y="12.9275" width="0.636364" height="0.665645" fill="#DEA22F"/>
<rect x="9.80083" y="11.8765" width="0.636364" height="0.665645" fill="#DEA22F"/>
<rect x="9.80083" y="11.2468" width="0.636364" height="0.665645" fill="#DEA22F"/>
<rect x="9.16562" y="10.0352" width="0.636364" height="0.665645" fill="#DEA22F"/>
<rect x="4.50397" y="10.1606" width="0.636364" height="0.665645" fill="#DEA22F"/>
<rect x="3.21361" y="9.64629" width="0.636364" height="0.665645" fill="#DEA22F"/>
<rect x="9.69266" y="9.36954" width="0.636364" height="0.665645" fill="#DEA22F"/>
<rect x="3.96535" y="12.655" width="0.636364" height="0.665645" fill="#DEA22F"/>
<rect x="3.96535" y="13.3073" width="0.636364" height="0.665645" fill="#DEA22F"/>
<rect x="4.71335" y="13.8117" width="0.636364" height="0.665645" fill="#DEA22F"/>
<rect x="4.80338" y="14.7743" width="0.636364" height="0.665645" fill="#DEA22F"/>
<rect x="4.82329" y="15.338" width="0.636364" height="0.665645" fill="#DEA22F"/>
<rect x="5.02634" y="12.0399" width="0.636364" height="0.665645" fill="#DEA22F"/>
<rect x="5.89037" y="10.5811" width="0.636364" height="0.665645" fill="#DEA22F"/>
<rect x="2.6884" y="9.02991" width="0.636364" height="0.665645" fill="#DEA22F"/>
<rect x="2.2733" y="9.66185" width="0.636364" height="0.665645" fill="#DEA22F"/>
<rect x="9.45679" y="8.96703" width="0.636364" height="0.665645" fill="#DEA22F"/>
<rect x="7.3642" y="7.66296" width="0.636364" height="0.665645" fill="#DEA22F"/>
<rect x="8.00056" y="7.66296" width="0.636364" height="0.665645" fill="#DEA22F"/>
<rect x="9.27045" y="8.32358" width="0.636364" height="0.665645" fill="#DEA22F"/>
<rect x="9.27045" y="8.98419" width="0.636364" height="0.665645" fill="#DEA22F"/>
<rect x="8.6375" y="9.64984" width="0.636364" height="0.665645" fill="#DEA22F"/>
<rect x="9.9023" y="9.64984" width="0.636364" height="0.665645" fill="#DEA22F"/>
<rect x="6.71247" y="10.9876" width="0.636364" height="0.665645" fill="#DEA22F"/>
<rect x="10.5295" y="10.9876" width="0.636364" height="0.665645" fill="#DEA22F"/>
<rect x="11.1659" y="10.9876" width="0.636364" height="0.665645" fill="#DEA22F"/>
<rect x="11.8022" y="10.9876" width="0.836375" height="0.665645" fill="#DEA22F"/>
<rect x="10.5295" y="11.6497" width="0.636364" height="0.665645" fill="#DEA22F"/>
<rect x="11.1659" y="11.6497" width="0.636364" height="0.665645" fill="#DEA22F"/>
<rect x="11.8022" y="11.6497" width="0.636364" height="0.665645" fill="#DEA22F"/>
<rect x="10.5295" y="12.3189" width="0.636364" height="0.665645" fill="#DEA22F"/>
<rect x="11.1659" y="12.3189" width="0.636364" height="0.665645" fill="#DEA22F"/>
<rect x="11.8022" y="12.3189" width="0.636364" height="0.665645" fill="#DEA22F"/>
<rect x="10.5295" y="12.9745" width="0.636364" height="0.665645" fill="#DEA22F"/>
<rect x="10.5295" y="13.6402" width="0.636364" height="0.665645" fill="#DEA22F"/>
<rect x="10.0256" y="14.1712" width="0.636364" height="0.665645" fill="#DEA22F"/>
<rect x="6.71247" y="11.6533" width="0.636364" height="0.665645" fill="#DEA22F"/>
<rect x="6.71247" y="12.3154" width="0.636364" height="0.665645" fill="#DEA22F"/>
<rect x="6.71247" y="12.9846" width="0.636364" height="0.665645" fill="#DEA22F"/>
<rect x="6.71247" y="13.6538" width="0.636364" height="0.665645" fill="#DEA22F"/>
<rect x="6.71247" y="14.2218" width="0.636364" height="0.665645" fill="#DEA22F"/>
<rect x="6.71247" y="14.8002" width="0.636364" height="0.665645" fill="#DEA22F"/>
<rect x="6.71247" y="15.3312" width="0.636364" height="0.665645" fill="#DEA22F"/>
<rect x="8.9386" y="12.9275" width="0.636364" height="0.665645" fill="#DEA22F"/>
<rect x="10.4372" y="11.8765" width="0.636364" height="0.665645" fill="#DEA22F"/>
<rect x="10.4372" y="11.2468" width="0.636364" height="0.665645" fill="#DEA22F"/>
<rect x="9.80198" y="10.0352" width="0.636364" height="0.665645" fill="#DEA22F"/>
<rect x="5.14034" y="10.1606" width="0.636364" height="0.665645" fill="#DEA22F"/>
<rect x="10.329" y="9.36954" width="0.636364" height="0.665645" fill="#DEA22F"/>
<rect x="4.60172" y="12.655" width="0.636364" height="0.665645" fill="#DEA22F"/>
<rect x="4.60172" y="13.3073" width="0.636364" height="0.665645" fill="#DEA22F"/>
<rect x="5.34972" y="13.8117" width="0.636364" height="0.665645" fill="#DEA22F"/>
<rect x="5.43974" y="14.7743" width="0.636364" height="0.665645" fill="#DEA22F"/>
<rect x="5.45965" y="15.338" width="0.636364" height="0.665645" fill="#DEA22F"/>
<rect x="5.6627" y="12.0399" width="0.636364" height="0.665645" fill="#DEA22F"/>
<rect x="6.52673" y="10.5811" width="0.636364" height="0.665645" fill="#DEA22F"/>
<rect x="3.32476" y="9.02991" width="0.636364" height="0.665645" fill="#DEA22F"/>
<rect x="3.50792" y="8.31966" width="0.679011" height="0.710254" fill="#DEA22F"/>
<rect x="3.00658" y="9.97231" width="0.636364" height="0.665645" fill="#DEA22F"/>
<rect x="9.90739" y="4.32764" width="0.636364" height="0.665645" fill="#DEA22F"/>
<rect x="9.27386" y="4.99417" width="0.636364" height="0.665645" fill="#DEA22F"/>
<rect x="6.08978" y="4.99387" width="0.636364" height="0.665645" fill="#DEA22F"/>
<rect x="5.45454" y="4.99329" width="0.636364" height="0.665645" fill="#DEA22F"/>
<rect x="6.08978" y="4.99329" width="0.636364" height="0.665645" fill="#DEA22F"/>
<rect x="3.55113" y="6.32457" width="0.636364" height="0.665645" fill="#797979"/>
<rect x="9.91022" y="6.32457" width="0.636364" height="0.665645" fill="#797979"/>
<rect x="3.55113" y="6.98962" width="1.27273" height="0.665645" fill="#797979"/>
<rect x="9.91022" y="6.98962" width="0.636364" height="0.665645" fill="#797979"/>
<rect x="4.18182" y="7.2649" width="0.636364" height="1.73096" fill="#424242"/>
<rect x="9.91022" y="7.65527" width="0.636364" height="0.665645" fill="#424242"/>
<rect x="9.91022" y="7.65408" width="0.636364" height="1.33129" fill="#424242"/>
<rect x="4.18693" y="6.32457" width="0.636364" height="0.665645" fill="#797979"/>
<rect x="6.72557" y="6.32457" width="0.636364" height="0.665645" fill="#424242"/>
<rect x="7.3642" y="6.32457" width="0.636364" height="0.665645" fill="#424242"/>
<rect x="7.99773" y="6.32457" width="0.636364" height="0.665645" fill="#424242"/>
<rect x="8.63409" y="6.32457" width="0.636364" height="0.665645" fill="#424242"/>
<rect x="8.63409" y="6.98962" width="0.636364" height="0.665645" fill="#424242"/>
<rect x="6.72557" y="6.98962" width="0.636364" height="0.665645" fill="#424242"/>
<rect x="10.546" y="6.32457" width="0.636364" height="0.665645" fill="#797979"/>
<rect x="4.81761" y="6.98962" width="0.636364" height="0.665645" fill="#424242"/>
<rect x="10.546" y="6.98962" width="0.636364" height="0.665645" fill="#424242"/>
<rect x="4.81761" y="7.2649" width="0.636364" height="1.73096" fill="#424242"/>
<rect x="6.73152" y="6.32457" width="0.636364" height="0.665645" fill="#797979"/>
<rect x="10.546" y="7.65527" width="0.636364" height="0.665645" fill="#424242"/>
<rect x="10.546" y="7.65408" width="0.636364" height="1.33129" fill="#424242"/>
<rect x="5.45341" y="6.32457" width="0.636364" height="0.665645" fill="#424242"/>
<rect x="4.82385" y="6.32457" width="0.636364" height="0.665645" fill="#424242"/>
<rect x="4.1875" y="6.98844" width="0.636364" height="0.665645" fill="#424242"/>
<rect x="3.54715" y="7.65283" width="0.636364" height="1.34304" fill="#424242"/>
<rect x="6.73152" y="6.98962" width="0.636364" height="0.665645" fill="#424242"/>
<rect x="11.1818" y="6.32457" width="0.636364" height="0.665645" fill="#424242"/>
<rect x="5.45341" y="6.98962" width="0.636364" height="0.665645" fill="#424242"/>
<rect x="11.1818" y="6.98962" width="0.636364" height="0.665645" fill="#424242"/>
<rect x="5.45341" y="7.2649" width="0.636364" height="1.73096" fill="#424242"/>
<rect x="11.1818" y="7.65527" width="0.636364" height="0.665645" fill="#424242"/>
<rect x="11.1818" y="7.65408" width="0.636364" height="1.33129" fill="#424242"/>
<rect x="6.72727" y="4.99329" width="0.636364" height="0.665645" fill="#DEA22F"/>
<rect x="7.3642" y="4.99329" width="0.636364" height="0.665645" fill="#DEA22F"/>
<rect x="7.99887" y="4.99329" width="0.636364" height="0.665645" fill="#DEA22F"/>
<rect x="8.63524" y="4.99329" width="0.636364" height="0.665645" fill="#DEA22F"/>
<rect x="9.27386" y="4.99329" width="0.636364" height="0.665645" fill="#DEA22F"/>
<rect x="7.36732" y="6.32457" width="0.636364" height="0.665645" fill="#797979"/>
<rect x="9.90739" y="4.99329" width="0.636364" height="0.665645" fill="#DEA22F"/>
<rect x="9.27386" y="5.65981" width="0.636364" height="0.665645" fill="#DEA22F"/>
<rect x="6.08978" y="5.65952" width="0.636364" height="0.665645" fill="#DEA22F"/>
<rect x="4.18182" y="3.66199" width="0.636364" height="0.665645" fill="#DEA22F"/>
<rect x="4.18182" y="4.99447" width="0.636364" height="0.665645" fill="#DEA22F"/>
<rect x="2.27273" y="4.99742" width="0.636364" height="0.665645" fill="black"/>
<rect x="1.63466" y="5.66248" width="0.636364" height="0.665645" fill="black"/>
<rect x="13.7284" y="5.65893" width="0.636364" height="0.665645" fill="black"/>
<rect x="1.63466" y="6.32457" width="0.636364" height="0.665645" fill="black"/>
<rect x="1.63637" y="6.99022" width="0.636364" height="0.665645" fill="black"/>
<rect x="13.7273" y="6.99022" width="0.636364" height="0.665645" fill="black"/>
<rect x="1.63637" y="7.65586" width="0.636364" height="0.665645" fill="black"/>
<rect x="13.7273" y="7.65586" width="0.636364" height="0.665645" fill="black"/>
<rect x="1" y="8.32151" width="0.636364" height="0.665645" fill="black"/>
<rect x="14.3636" y="8.3215" width="0.636364" height="0.665645" fill="black"/>
<rect x="1" y="8.98715" width="0.636364" height="0.665645" fill="black"/>
<rect x="14.3636" y="8.98715" width="0.636364" height="0.665645" fill="black"/>
<rect x="1" y="9.6528" width="0.636364" height="0.665645" fill="black"/>
<rect x="14.3636" y="9.6528" width="0.636364" height="0.665645" fill="black"/>
<rect x="1.63637" y="10.3184" width="0.636364" height="0.665645" fill="black"/>
<rect x="13.7284" y="10.3184" width="0.636364" height="0.665645" fill="black"/>
<rect x="1.63637" y="10.9841" width="0.636364" height="0.665645" fill="black"/>
<rect x="13.7273" y="10.9841" width="0.636364" height="0.665645" fill="black"/>
<rect x="1.63637" y="11.6497" width="0.636364" height="0.665645" fill="black"/>
<rect x="13.7273" y="11.6497" width="0.636364" height="0.665645" fill="black"/>
<rect x="12.4545" y="4.99329" width="0.636364" height="0.665645" fill="black"/>
<rect x="13.092" y="4.99329" width="0.636364" height="0.665645" fill="black"/>
<rect x="5.45454" y="9.0163" width="0.636364" height="0.665645" fill="black"/>
<rect x="9.90909" y="8.96703" width="0.636364" height="0.685767" fill="black"/>
<rect x="10.5295" y="8.96703" width="0.636364" height="0.685767" fill="black"/>
<rect x="11.1659" y="8.96703" width="0.864427" height="0.685767" fill="black"/>
<rect x="5.43974" y="9.50565" width="0.655136" height="0.826874" fill="black"/>
<rect x="4.80338" y="10.322" width="0.636364" height="0.665645" fill="black"/>
<rect x="9.91022" y="9.64984" width="0.636364" height="0.665645" fill="black"/>
<rect x="4.18124" y="10.319" width="0.636364" height="0.665645" fill="black"/>
<rect x="3.54546" y="10.3184" width="0.636364" height="0.665645" fill="black"/>
<rect x="11.8182" y="10.3184" width="0.636364" height="0.665645" fill="black"/>
<rect x="11.1852" y="10.3184" width="0.636364" height="0.665645" fill="black"/>
<rect x="10.5489" y="10.3184" width="0.636364" height="0.665645" fill="black"/>
<rect x="2.90909" y="10.9841" width="0.636364" height="0.665645" fill="black"/>
<rect x="12.4545" y="10.9841" width="0.636364" height="0.665645" fill="black"/>
<rect x="2.90909" y="11.6497" width="0.636364" height="0.665645" fill="black"/>
<rect x="2.27273" y="3.66199" width="0.636364" height="0.665645" fill="black"/>
<rect x="2.27273" y="2.99635" width="0.636364" height="0.665645" fill="black"/>
<rect x="2.90909" y="2.33129" width="0.636364" height="0.665645" fill="black"/>
<rect x="2.90909" y="1.66564" width="0.636364" height="0.665645" fill="black"/>
<rect x="3.54546" y="1" width="0.636364" height="0.665645" fill="black"/>
<rect x="4.18182" y="1" width="0.636364" height="0.665645" fill="black"/>
<rect x="4.81818" y="1.66505" width="0.636364" height="0.665645" fill="black"/>
<rect x="4.81818" y="2.3307" width="0.636364" height="0.665645" fill="black"/>
<rect x="5.45341" y="2.9931" width="0.636364" height="1.08755" fill="black"/>
<rect x="9.91196" y="2.9931" width="0.636364" height="0.665645" fill="black"/>
<rect width="0.636364" height="0.665645" transform="matrix(-1 0 0 1 13.7273 3.66199)" fill="black"/>
<rect width="0.636364" height="0.665645" transform="matrix(-1 0 0 1 13.7273 2.99635)" fill="black"/>
<rect width="0.636364" height="0.665645" transform="matrix(-1 0 0 1 13.0909 2.33129)" fill="black"/>
<rect width="0.636364" height="0.665645" transform="matrix(-1 0 0 1 13.0909 1.66564)" fill="black"/>
<rect width="0.636364" height="0.665645" transform="matrix(-1 0 0 1 12.4545 1)" fill="black"/>
<rect width="0.636364" height="0.665645" transform="matrix(-1 0 0 1 11.8182 1)" fill="black"/>
<rect width="0.636364" height="0.665645" transform="matrix(-1 0 0 1 11.1818 1.66505)" fill="black"/>
<rect width="0.636364" height="0.665645" transform="matrix(-1 0 0 1 11.1818 2.3307)" fill="black"/>
<rect x="5.45454" y="3.66022" width="0.636364" height="0.665645" fill="black"/>
<rect x="6.09091" y="3.66022" width="0.636364" height="0.665645" fill="black"/>
<rect x="6.72727" y="3.66022" width="0.636364" height="0.665645" fill="black"/>
<rect x="7.36363" y="3.66022" width="0.636364" height="0.665645" fill="black"/>
<rect x="8.00056" y="3.66022" width="0.636364" height="0.665645" fill="black"/>
<rect x="8.63637" y="3.66022" width="0.636364" height="0.665645" fill="black"/>
<rect x="9.27386" y="3.66022" width="0.636364" height="0.665645" fill="black"/>
<rect x="9.91022" y="3.66022" width="0.636364" height="0.665645" fill="black"/>
<rect x="12.4545" y="11.6497" width="0.636364" height="0.665645" fill="black"/>
<rect x="6.72727" y="10.7008" width="0.636364" height="0.665645" fill="black"/>
<rect x="8.63637" y="10.7008" width="0.636364" height="0.665645" fill="black"/>
<rect x="7.36363" y="10.6872" width="0.636364" height="0.649441" fill="black"/>
<rect x="8" y="10.6872" width="0.636364" height="0.649441" fill="black"/>
<rect x="3.95736" y="12.7193" width="0.636364" height="0.665645" fill="#AF780F"/>
<rect x="4.50624" y="12.7193" width="0.636364" height="0.665645" fill="#AF780F"/>
<rect x="5.12157" y="12.7193" width="0.636364" height="0.665645" fill="#AF780F"/>
<rect x="5.75793" y="12.7193" width="0.636364" height="0.665645" fill="#AF780F"/>
<rect x="5.75793" y="13.3209" width="0.636364" height="0.665645" fill="#AF780F"/>
<rect x="5.75793" y="13.7784" width="0.636364" height="0.665645" fill="#AF780F"/>
<rect x="6.29907" y="13.4789" width="0.700929" height="0.665645" fill="#AF780F"/>
<rect x="7" y="13.3849" width="0.570272" height="0.796301" fill="#DEA22F"/>
<rect x="6.73408" y="8.28777" width="0.636364" height="0.665645" fill="#AF780F"/>
<rect x="7.36874" y="7.65283" width="0.636364" height="0.665645" fill="#AF780F"/>
<rect x="8.00283" y="7.65283" width="0.636364" height="0.665645" fill="#AF780F"/>
<rect x="8.64146" y="8.30138" width="0.636364" height="0.665645" fill="#AF780F"/>
<rect x="6.9339" y="14.1073" width="0.636364" height="0.665645" fill="#DEA22F"/>
<rect x="6.9339" y="14.625" width="0.636364" height="0.665645" fill="#DEA22F"/>
<rect x="1" y="11.3205" width="0.796861" height="0.932562" fill="#38B718"/>
<rect x="14" y="11.3205" width="0.999999" height="0.932562" fill="#38B718"/>
<rect x="2" y="12.253" width="0.999999" height="0.932562" fill="#38B718"/>
<rect x="13" y="12.253" width="0.999999" height="0.743126" fill="#38B718"/>
<rect x="2.99999" y="12.253" width="0.957362" height="0.932562" fill="#38B718"/>
<rect x="12" y="12.253" width="0.999999" height="0.743126" fill="#38B718"/>
<rect x="4" y="13.1856" width="0.999999" height="0.932562" fill="#38B718"/>
<rect x="11" y="13.1856" width="0.999999" height="0.932562" fill="#38B718"/>
<rect x="5" y="13.1856" width="0.999999" height="0.932562" fill="#38B718"/>
<rect x="10" y="13.1856" width="0.999999" height="0.932562" fill="#38B718"/>
<rect x="6" y="14.1181" width="0.999999" height="0.932562" fill="#38B718"/>
<rect x="9" y="14.1181" width="0.999999" height="0.932562" fill="#38B718"/>
<rect x="7" y="15.0507" width="0.999999" height="0.932562" fill="#38B718"/>
<rect x="8" y="15.0507" width="0.999999" height="0.932562" fill="#38B718"/>
<rect x="1" y="12.253" width="0.999999" height="0.74404" fill="#38B718"/>
<rect x="14" y="12.253" width="0.999999" height="0.743126" fill="#38B718"/>
<rect x="2" y="14.1181" width="0.999999" height="0.932562" fill="#38B718"/>
<rect x="13" y="14.1181" width="0.999999" height="0.932562" fill="#38B718"/>
<rect x="2" y="13.1856" width="0.999999" height="0.932562" fill="#38B718"/>
<rect x="13" y="12.9139" width="0.999999" height="1.20428" fill="#38B718"/>
<rect x="2.99999" y="13.1856" width="0.999999" height="0.932562" fill="#38B718"/>
<rect x="12" y="12.9139" width="0.999999" height="1.20428" fill="#38B718"/>
<rect x="2.99999" y="14.1181" width="0.999999" height="0.932562" fill="#38B718"/>
<rect x="12" y="14.1181" width="0.999999" height="0.932562" fill="#38B718"/>
<rect x="2.99999" y="15.0507" width="0.999999" height="0.932562" fill="#38B718"/>
<rect x="12" y="15.0507" width="0.999999" height="0.932562" fill="#38B718"/>
<rect x="4" y="15.0507" width="0.999999" height="0.932562" fill="#38B718"/>
<rect x="11" y="15.0507" width="0.999999" height="0.932562" fill="#38B718"/>
<rect x="5" y="15.0507" width="0.999999" height="0.932562" fill="#38B718"/>
<rect x="10" y="15.0507" width="0.999999" height="0.932562" fill="#38B718"/>
<rect x="5" y="14.1181" width="0.999999" height="0.932562" fill="#38B718"/>
<rect x="10" y="14.1181" width="0.999999" height="0.932562" fill="#38B718"/>
<rect x="4" y="14.1181" width="0.999999" height="0.932562" fill="#38B718"/>
<rect x="11" y="14.1181" width="0.999999" height="0.932562" fill="#38B718"/>
<rect x="6" y="15.0507" width="0.999999" height="0.932562" fill="#38B718"/>
<rect x="9" y="15.0507" width="0.999999" height="0.932562" fill="#38B718"/>
<rect x="1" y="11.322" width="0.796861" height="0.743123" fill="#38691A"/>
<rect x="1" y="12.0106" width="0.796861" height="0.743123" fill="#38691A"/>
<rect x="1" y="12.2539" width="0.796861" height="0.743123" fill="#38691A"/>
<rect x="1.4259" y="12.2539" width="1.37097" height="0.743123" fill="#38691A"/>
<rect x="2" y="12.8032" width="0.796861" height="1.1255" fill="#38691A"/>
<rect x="2" y="13.8629" width="0.796861" height="0.743123" fill="#38691A"/>
<rect x="2" y="14.3076" width="0.796861" height="0.743123" fill="#38691A"/>
<rect x="2.79686" y="14.3076" width="0.796861" height="0.743123" fill="#38691A"/>
<rect x="2.99999" y="14.3076" width="0.796861" height="0.743123" fill="#38691A"/>
<rect x="2.99999" y="15.0507" width="0.796861" height="0.743123" fill="#38691A"/>
<rect x="2.99999" y="15.2401" width="0.796861" height="0.743123" fill="#38691A"/>
<rect x="3.79686" y="15.2401" width="0.796861" height="0.743123" fill="#38691A"/>
<rect x="4.59372" y="15.2401" width="0.796861" height="0.743123" fill="#38691A"/>
<rect x="5.39059" y="15.2401" width="0.796861" height="0.743123" fill="#38691A"/>
<rect x="9" y="14" width="1" height="2" fill="#38691A"/>
<rect x="9.00696" y="14.1218" width="0.796861" height="0.743123" fill="#38691A"/>
<rect x="10.0068" y="14.1218" width="0.796861" height="0.743123" fill="#38691A"/>
<rect x="10.0068" y="13.4069" width="0.796861" height="0.743123" fill="#38691A"/>
<rect x="10.0068" y="13.1856" width="0.796861" height="0.743123" fill="#38691A"/>
<rect x="10.6744" y="13.1856" width="0.796861" height="0.743123" fill="#38691A"/>
<rect x="11.3717" y="13.1856" width="0.796861" height="0.743123" fill="#38691A"/>
<rect x="12" y="13.1856" width="0.796861" height="0.743123" fill="#38691A"/>
<rect x="12" y="12.5679" width="0.796861" height="0.743123" fill="#38691A"/>
<rect x="12" y="12.253" width="0.796861" height="0.743123" fill="#38691A"/>
<rect x="12.7769" y="12.253" width="0.796861" height="0.743123" fill="#38691A"/>
<rect x="13.4784" y="12.253" width="0.796861" height="0.743123" fill="#38691A"/>
<rect x="14" y="12.253" width="1" height="0.743123" fill="#38691A"/>
<rect x="14" y="11.5436" width="1" height="0.743123" fill="#38691A"/>
<rect x="14" y="11.3205" width="1" height="0.743123" fill="#38691A"/>
<rect x="9.48021" y="14.1218" width="0.796861" height="0.743123" fill="#38691A"/>
<rect x="6.72557" y="11.3205" width="0.636364" height="0.665645" fill="#AF780F"/>
<rect x="7.36194" y="11.3367" width="0.636364" height="0.649441" fill="#AF780F"/>
<rect x="7.9983" y="11.3367" width="0.636364" height="0.649441" fill="#AF780F"/>
<rect x="8.64146" y="11.3205" width="0.636364" height="0.665645" fill="#AF780F"/>
<rect x="2.90966" y="7.65585" width="0.636364" height="0.665645" fill="black"/>
<rect x="2.90966" y="8.30138" width="0.636364" height="0.714737" fill="black"/>
<rect x="2.90966" y="6.99021" width="0.636364" height="0.665645" fill="black"/>
<rect x="2.90966" y="6.32457" width="0.636364" height="0.665645" fill="black"/>
<rect x="4.16702" y="6.98844" width="0.650596" height="0.665645" fill="black"/>
<rect x="10.5387" y="6.98844" width="0.650596" height="0.665645" fill="black"/>
<rect x="4.75743" y="6.98844" width="0.636364" height="0.665645" fill="black"/>
<rect x="11.1291" y="6.98844" width="0.636364" height="0.665645" fill="black"/>
<rect x="4.75743" y="7.63574" width="0.636364" height="0.665645" fill="black"/>
<rect x="11.1291" y="7.63574" width="0.636364" height="0.665645" fill="black"/>
<rect x="4.16702" y="7.63574" width="0.636364" height="0.665645" fill="black"/>
<rect x="10.5387" y="7.63574" width="0.636364" height="0.665645" fill="black"/>
<rect x="3.55057" y="5.65893" width="0.636364" height="0.665645" fill="black"/>
<rect x="3.55057" y="8.99586" width="0.636364" height="0.665988" fill="black"/>
<rect x="12.4557" y="7.65585" width="0.636364" height="0.665645" fill="black"/>
<rect x="12.4557" y="8.30138" width="0.636364" height="0.665645" fill="black"/>
<rect x="12.4557" y="6.99021" width="0.636364" height="0.665645" fill="black"/>
<rect x="12.4557" y="6.32279" width="0.636364" height="0.665645" fill="black"/>
<rect x="13.7227" y="6.32812" width="0.636364" height="0.665645" fill="black"/>
<rect x="11.8193" y="5.65893" width="0.636364" height="0.665645" fill="black"/>
<rect x="9.27499" y="6.32812" width="0.636364" height="2.63891" fill="black"/>
<rect x="5.45454" y="3.66613" width="0.636364" height="0.665645" fill="#DEA22F"/>
<rect x="9.91196" y="3.66613" width="0.636364" height="0.665645" fill="#DEA22F"/>
<rect x="3.95736" y="12.253" width="0.636364" height="0.665645" fill="#AF780F"/>
</g>
<defs>
<clipPath id="clip0_1_6506">
<rect width="16" height="16" rx="1" fill="white"/>
</clipPath>
</defs>
</svg>
