<svg width="16" height="16" viewBox="0 0 16 16" fill="none" xmlns="http://www.w3.org/2000/svg">
<g clip-path="url(#clip0_1_6505)">
<rect width="16" height="16" rx="1" fill="white"/>
<rect x="7" y="1" width="1" height="1" fill="black"/>
<rect x="8" y="1" width="1" height="1" fill="black"/>
<rect x="6" y="2" width="1" height="1" fill="black"/>
<rect x="6" y="3" width="1" height="1" fill="black"/>
<rect x="7" y="4" width="1" height="1" fill="black"/>
<rect x="8" y="4" width="1" height="1" fill="black"/>
<rect x="9" y="3" width="1" height="1" fill="black"/>
<rect x="9" y="2" width="1" height="1" fill="black"/>
<rect x="6" y="6" width="1" height="1" fill="black"/>
<rect x="7" y="6" width="1" height="1" fill="black"/>
<rect x="8" y="7" width="1" height="1" fill="black"/>
<rect x="9" y="8" width="1" height="1" fill="black"/>
<rect x="10" y="8" width="1" height="1" fill="black"/>
<rect x="11" y="8" width="1" height="1" fill="black"/>
<rect x="11" y="10" width="1" height="1" fill="black"/>
<rect x="10" y="10" width="1" height="1" fill="black"/>
<rect x="9" y="10" width="1" height="1" fill="black"/>
<rect x="8" y="11" width="1" height="1" fill="black"/>
<rect x="7" y="12" width="1" height="1" fill="black"/>
<rect x="6" y="12" width="1" height="1" fill="black"/>
<rect x="5" y="11" width="1" height="1" fill="black"/>
<rect x="8" y="15" width="1" height="1" fill="black"/>
<rect x="9" y="13" width="1" height="1" fill="black"/>
<rect x="10" y="14" width="1" height="1" fill="black"/>
<rect x="7" y="14" width="1" height="1" fill="black"/>
<rect x="8" y="12" width="1" height="1" fill="black"/>
<rect x="12" y="8" width="1" height="1" fill="black"/>
<rect x="13" y="9" width="1" height="1" fill="black"/>
<rect x="12" y="10" width="1" height="1" fill="black"/>
<rect x="12" y="6" width="1" height="1" fill="black"/>
<rect x="12" y="7" width="1" height="1" fill="black"/>
<rect x="12" y="11" width="1" height="1" fill="black"/>
<rect x="12" y="12" width="1" height="1" fill="black"/>
<rect x="12" y="13" width="1" height="1" fill="black"/>
<rect x="12" y="14" width="1" height="1" fill="black"/>
<rect x="12" y="15" width="1" height="1" fill="black"/>
<rect x="10" y="15" width="1" height="1" fill="black"/>
<rect x="5" y="7" width="1" height="1" fill="black"/>
<rect x="7" y="15" width="1" height="1" fill="black"/>
<rect x="5" y="12" width="1" height="1" fill="black"/>
<rect x="5" y="13" width="1" height="1" fill="black"/>
<rect x="5" y="14" width="1" height="1" fill="black"/>
<rect x="5" y="15" width="1" height="1" fill="black"/>
<rect x="5" y="10" width="1" height="1" fill="black"/>
<rect x="5" y="9" width="1" height="1" fill="black"/>
<rect x="5" y="8" width="1" height="1" fill="black"/>
<rect x="4" y="8" width="1" height="1" fill="black"/>
<rect x="4" y="7" width="1" height="1" fill="#451D00"/>
<rect x="4" y="8" width="1" height="1" fill="#451D00"/>
<rect x="4" y="9" width="1" height="1" fill="#451D00"/>
<rect x="4" y="10" width="1" height="1" fill="#451D00"/>
<rect x="5" y="6" width="1" height="1" fill="black"/>
<rect x="7" y="9" width="1" height="1" fill="#FF7A00"/>
<rect x="7" y="10" width="1" height="1" fill="#FF7A00"/>
<rect x="7" y="11" width="1" height="1" fill="#FF7A00"/>
<rect x="6" y="11" width="1" height="1" fill="#FF7A00"/>
<rect x="6" y="10" width="1" height="1" fill="#FF7A00"/>
<rect x="6" y="9" width="1" height="1" fill="#FF7A00"/>
<rect x="6" y="8" width="1" height="1" fill="#FF7A00"/>
<rect x="6" y="7" width="1" height="1" fill="#FF7A00"/>
<rect x="7" y="7" width="1" height="1" fill="#FF7A00"/>
<rect x="7" y="8" width="1" height="1" fill="#FF7A00"/>
<rect x="8" y="8" width="1" height="1" fill="#FF7A00"/>
<rect x="8" y="9" width="1" height="1" fill="#FF7A00"/>
<rect x="8" y="10" width="1" height="1" fill="#FF7A00"/>
<rect x="9" y="9" width="1" height="1" fill="#FF7A00"/>
<rect x="10" y="9" width="1" height="1" fill="#FF7A00"/>
<rect x="11" y="9" width="1" height="1" fill="#FF7A00"/>
<rect x="12" y="9" width="1" height="1" fill="#FF7A00"/>
<rect x="8" y="13" width="1" height="1" fill="#6788FF"/>
<rect x="8" y="14" width="1" height="1" fill="#6788FF"/>
<rect x="9" y="14" width="1" height="1" fill="#6788FF"/>
<rect x="9" y="15" width="1" height="1" fill="#6788FF"/>
<rect x="7" y="13" width="1" height="1" fill="#6788FF"/>
<rect x="6" y="13" width="1" height="1" fill="#6788FF"/>
<rect x="6" y="14" width="1" height="1" fill="#6788FF"/>
<rect x="6" y="15" width="1" height="1" fill="#6788FF"/>
<rect x="7" y="2" width="1" height="1" fill="#FFD5A4"/>
<rect x="7" y="3" width="1" height="1" fill="#FFD5A4"/>
<rect x="8" y="3" width="1" height="1" fill="#FFD5A4"/>
<rect x="8" y="2" width="1" height="1" fill="#FFD5A4"/>
<rect x="4" y="11" width="1" height="1" fill="#451D00"/>
<rect x="3" y="8" width="1" height="1" fill="#451D00"/>
<rect x="3" y="9" width="1" height="1" fill="#451D00"/>
<rect x="3" y="10" width="1" height="1" fill="#451D00"/>
<rect x="3" y="7" width="1" height="1" fill="#451D00"/>
<rect opacity="0.25" x="15" y="15" width="1" height="1" fill="#BA7E0C"/>
<rect opacity="0.25" x="15" y="14" width="1" height="1" fill="#BA7E0C"/>
<rect opacity="0.25" x="11" y="6" width="1" height="1" fill="#BA7E0C"/>
<g opacity="0.25">
<rect x="13" y="7" width="1" height="2" fill="#BA7E0C"/>
<rect x="13" y="6.18182" width="1" height="1.09091" fill="#BA7E0C"/>
<rect x="13" y="5.09091" width="1" height="1.09091" fill="#BA7E0C"/>
<rect x="13" y="4" width="1" height="1.09091" fill="#BA7E0C"/>
<rect x="13" y="14.9091" width="1" height="1.09091" fill="#BA7E0C"/>
<rect x="13" y="13.8182" width="1" height="1.09091" fill="#BA7E0C"/>
<rect x="13" y="12.7273" width="1" height="1.09091" fill="#BA7E0C"/>
<rect x="13" y="11.6364" width="1" height="1.09091" fill="#BA7E0C"/>
<rect x="13" y="10.5455" width="1" height="1.09091" fill="#BA7E0C"/>
<rect x="13" y="9.45454" width="1" height="1.09091" fill="#BA7E0C"/>
</g>
<rect x="4" y="1" width="1" height="1" fill="white"/>
<rect x="4" y="2" width="1" height="1" fill="white"/>
<rect x="4" y="3" width="1" height="1" fill="white"/>
<rect x="4" y="4" width="1" height="1" fill="white"/>
<rect x="5" y="4" width="1" height="1" fill="white"/>
<rect x="5" y="5" width="1" height="1" fill="white"/>
<rect x="6" y="5" width="1" height="1" fill="white"/>
<rect x="6" y="4" width="1" height="1" fill="white"/>
<rect x="7" y="5" width="1" height="1" fill="white"/>
<rect x="8" y="5" width="1" height="1" fill="white"/>
<rect x="8" y="6" width="1" height="1" fill="white"/>
<rect x="9" y="5" width="1" height="1" fill="white"/>
<rect x="9" y="4" width="1" height="1" fill="white"/>
<rect x="10" y="4" width="1" height="1" fill="white"/>
<rect x="10" y="3" width="1" height="1" fill="white"/>
<rect x="10" y="2" width="1" height="1" fill="white"/>
<rect x="10" y="1" width="1" height="1" fill="white"/>
<rect x="10" width="1" height="1" fill="white"/>
<rect x="11" width="1" height="1" fill="white"/>
<rect x="11" y="1" width="1" height="1" fill="white"/>
<rect x="11" y="2" width="1" height="1" fill="white"/>
<rect x="12" y="1" width="1" height="1" fill="white"/>
<rect x="12" width="1" height="1" fill="white"/>
<rect x="13" width="1" height="1" fill="white"/>
<rect x="14" width="1" height="1" fill="white"/>
<rect x="14" y="1" width="1" height="1" fill="white"/>
<rect x="15" y="1" width="1" height="1" fill="white"/>
<rect x="15" y="2" width="1" height="1" fill="white"/>
<rect x="15" y="3" width="1" height="1" fill="white"/>
<rect x="15" width="1" height="1" fill="white"/>
<rect x="9" width="1" height="1" fill="white"/>
<rect x="9" y="1" width="1" height="1" fill="white"/>
<rect x="8" width="1" height="1" fill="white"/>
<rect x="7" width="1" height="1" fill="white"/>
<rect x="6" width="1" height="1" fill="white"/>
<rect x="6" y="1" width="1" height="1" fill="white"/>
<rect x="5" y="1" width="1" height="1" fill="white"/>
<rect x="5" y="2" width="1" height="1" fill="white"/>
<rect x="5" y="3" width="1" height="1" fill="white"/>
<rect x="5" width="1" height="1" fill="white"/>
<rect x="4" width="1" height="1" fill="white"/>
<rect x="3" width="1" height="1" fill="white"/>
<rect x="3" y="1" width="1" height="1" fill="white"/>
<rect x="3" y="2" width="1" height="1" fill="white"/>
<rect x="3" y="3" width="1" height="1" fill="white"/>
<rect x="2" y="3" width="1" height="1" fill="white"/>
<rect x="2" y="4" width="1" height="1" fill="white"/>
<rect x="1" y="4" width="1" height="1" fill="white"/>
<rect x="1" y="5" width="1" height="1" fill="white"/>
<rect y="5" width="1" height="1" fill="white"/>
<rect y="6" width="1" height="1" fill="white"/>
<rect y="7" width="1" height="1" fill="white"/>
<rect y="4" width="1" height="1" fill="white"/>
<rect y="3" width="1" height="1" fill="white"/>
<rect y="2" width="1" height="1" fill="white"/>
<rect y="1" width="1" height="1" fill="white"/>
<rect width="1" height="1" fill="white"/>
<rect x="1" width="1" height="1" fill="white"/>
<rect x="1" y="1" width="1" height="1" fill="white"/>
<rect x="1" y="2" width="1" height="1" fill="white"/>
<rect x="1" y="3" width="1" height="1" fill="white"/>
<rect x="2" y="2" width="1" height="1" fill="white"/>
<rect x="2" y="1" width="1" height="1" fill="white"/>
<rect x="2" width="1" height="1" fill="white"/>
<g opacity="0.25">
<rect x="9" y="6" width="1" height="1" fill="#002F3E"/>
<rect x="10" y="5" width="1" height="1" fill="#002F3E"/>
<rect x="11" y="4" width="1" height="1" fill="#002F3E"/>
<rect x="11" y="3" width="1" height="1" fill="#002F3E"/>
<rect x="12" y="2" width="1" height="1" fill="#002F3E"/>
<rect x="13" y="1" width="1" height="1" fill="#002F3E"/>
<rect x="14" y="2" width="1" height="1" fill="#002F3E"/>
<rect x="14" y="3" width="1" height="1" fill="#002F3E"/>
<rect x="15" y="4" width="1" height="1" fill="#002F3E"/>
<rect x="14" y="9" width="1" height="1" fill="#CE8700"/>
<rect x="14" y="10" width="1" height="1" fill="#CE8700"/>
<rect x="14" y="11" width="1" height="1" fill="#CE8700"/>
<rect x="14" y="12" width="1" height="1" fill="#CE8700"/>
<rect x="14" y="13" width="1" height="1" fill="#CE8700"/>
<rect x="14" y="14" width="1" height="1" fill="#CE8700"/>
<rect x="14" y="15" width="1" height="1" fill="#CE8700"/>
<rect x="15" y="13" width="1" height="1" fill="#CE8700"/>
<rect x="15" y="12" width="1" height="1" fill="#CE8700"/>
<rect x="15" y="11" width="1" height="1" fill="#CE8700"/>
<rect x="15" y="10" width="1" height="1" fill="#CE8700"/>
<rect x="15" y="9" width="1" height="1" fill="#CE8700"/>
<rect x="15" y="8" width="1" height="1" fill="#CE8700"/>
<rect x="15" y="7" width="1" height="1" fill="#CE8700"/>
<rect x="15" y="6" width="1" height="1" fill="#CE8700"/>
<rect x="15" y="5" width="1" height="1" fill="#CE8700"/>
<rect x="14" y="5" width="1" height="1" fill="#CE8700"/>
<rect x="14" y="6" width="1" height="1" fill="#CE8700"/>
<rect x="14" y="7" width="1" height="1" fill="#CE8700"/>
<rect x="14" y="8" width="1" height="1" fill="#CE8700"/>
<rect x="13" y="3" width="1" height="1" fill="white"/>
<rect x="13" y="2" width="1" height="1" fill="white"/>
<rect x="12" y="3" width="1" height="1" fill="#8D5C01"/>
<rect x="12" y="4" width="1" height="1" fill="#8D5C01"/>
<rect x="12" y="5" width="1" height="1" fill="#CE8700"/>
<rect x="11" y="5" width="1" height="1" fill="#8D5C01"/>
<rect x="11" y="7" width="1" height="1" fill="#CE8700"/>
<rect x="10" y="7" width="1" height="1" fill="#8D5C01"/>
<rect x="10" y="6" width="1" height="1" fill="#8D5C01"/>
<rect x="9" y="7" width="1" height="1" fill="#8D5C01"/>
<rect x="14" y="4" width="1" height="1" fill="white"/>
<rect x="10" y="12" width="1" height="1" fill="#8D5C01"/>
<rect x="10" y="13" width="1" height="1" fill="#8D5C01"/>
<rect x="11" y="13" width="1" height="1" fill="#CE8700"/>
<rect x="11" y="14" width="1" height="1" fill="#CE8700"/>
<rect x="11" y="15" width="1" height="1" fill="#CE8700"/>
<rect x="11" y="12" width="1" height="1" fill="#CE8700"/>
<rect x="11" y="11" width="1" height="1" fill="#CE8700"/>
<rect x="10" y="11" width="1" height="1" fill="#8D5C01"/>
<rect x="9" y="11" width="1" height="1" fill="#8D5C01"/>
<rect x="9" y="12" width="1" height="1" fill="#8D5C01"/>
</g>
<g opacity="0.25">
<rect x="2" y="11" width="1" height="1" fill="#CE8700"/>
<rect x="2" y="12" width="1" height="1" fill="#CE8700"/>
<rect x="2" y="13" width="1" height="1" fill="#CE8700"/>
<rect x="2" y="14" width="1" height="1" fill="#CE8700"/>
<rect x="2" y="15" width="1" height="1" fill="#CE8700"/>
<rect x="3" y="15" width="1" height="1" fill="#CE8700"/>
<rect x="3" y="14" width="1" height="1" fill="#CE8700"/>
<rect x="3" y="13" width="1" height="1" fill="#CE8700"/>
<rect x="3" y="12" width="1" height="1" fill="#CE8700"/>
<rect x="3" y="11" width="1" height="1" fill="#CE8700"/>
<rect x="4" y="12" width="1" height="1" fill="#CE8700"/>
<rect x="4" y="13" width="1" height="1" fill="#CE8700"/>
<rect x="4" y="14" width="1" height="1" fill="#CE8700"/>
<rect x="4" y="15" width="1" height="1" fill="#CE8700"/>
<rect x="1" y="15" width="1" height="1" fill="#8D5C01"/>
<rect x="1" y="14" width="1" height="1" fill="#8D5C01"/>
<rect x="1" y="13" width="1" height="1" fill="#8D5C01"/>
<rect x="1" y="12" width="1" height="1" fill="#8D5C01"/>
<rect x="1" y="11" width="1" height="1" fill="#8D5C01"/>
<rect x="1" y="10" width="1" height="1" fill="#8D5C01"/>
<rect x="1" y="9" width="1" height="1" fill="#8D5C01"/>
<rect x="1" y="8" width="1" height="1" fill="#8D5C01"/>
<rect x="2" y="8" width="1" height="1" fill="#CE8700"/>
<rect x="2" y="9" width="1" height="1" fill="#CE8700"/>
<rect x="2" y="10" width="1" height="1" fill="#CE8700"/>
<rect x="2" y="7" width="1" height="1" fill="#CE8700"/>
<rect x="2" y="5" width="1" height="1" fill="#8D5C01"/>
<rect x="3" y="5" width="1" height="1" fill="#8D5C01"/>
<rect x="3" y="4" width="1" height="1" fill="white"/>
<rect y="9" width="1" height="1" fill="#8D5C01"/>
<rect x="1" y="7" width="1" height="1" fill="#8D5C01"/>
<rect x="2" y="6" width="1" height="1" fill="#8D5C01"/>
<rect x="3" y="6" width="1" height="1" fill="#8D5C01"/>
<rect x="4" y="5" width="1" height="1" fill="white"/>
<rect x="4" y="6" width="1" height="1" fill="#8D5C01"/>
<rect y="8" width="1" height="1" fill="#8D5C01"/>
<rect y="10" width="1" height="1" fill="#8D5C01"/>
<rect y="11" width="1" height="1" fill="#8D5C01"/>
<rect y="12" width="1" height="1" fill="#8D5C01"/>
<rect y="13" width="1" height="1" fill="#8D5C01"/>
<rect y="14" width="1" height="1" fill="#8D5C01"/>
<rect y="15" width="1" height="1" fill="#8D5C01"/>
<rect y="7" width="1" height="1" fill="#002F3E"/>
<rect x="1" y="6" width="1" height="1" fill="#002F3E"/>
<rect x="1" y="5" width="1" height="1" fill="#002F3E"/>
<rect x="2" y="4" width="1" height="1" fill="#002F3E"/>
<rect x="3" y="3" width="1" height="1" fill="#002F3E"/>
<rect x="4" y="4" width="1" height="1" fill="#002F3E"/>
<rect x="5" y="5" width="1" height="1" fill="#002F3E"/>
</g>
</g>
<defs>
<clipPath id="clip0_1_6505">
<rect width="16" height="16" rx="1" fill="white"/>
</clipPath>
</defs>
</svg>
