<svg width="41" height="65" viewBox="0 0 41 65" fill="none" xmlns="http://www.w3.org/2000/svg">
<path d="M5.64208 55.3696C5.64208 55.3696 0.774712 56.1428 0.578546 57.4191C0.37012 58.6832 6.95394 59.5914 6.95394 59.5914C6.95394 59.5914 7.68956 60.5732 9.688 60.6591C11.6864 60.745 12.2259 60.1314 12.2259 60.1314C12.2259 60.1314 14.5186 60.2541 16.8848 60.2541C19.2511 60.2541 20.281 60.0946 20.281 60.0946C20.281 60.0946 20.563 60.9537 22.6963 60.9169C24.8173 60.88 26.0066 59.7755 26.0066 59.7755C26.0066 59.7755 30.6287 59.2478 31.7689 58.6341C32.9092 58.0205 32.9092 57.9346 32.9092 57.9346C32.9092 57.9346 34.9566 58.2169 35.4838 58.9532C36.011 59.6896 34.8708 60.5487 34.8708 60.5487C34.8708 60.5487 30.1874 62.1687 30.0034 62.9664C29.6969 64.1937 30.923 65.421 35.2141 64.6232C39.4439 63.8255 40.4861 60.5119 40.1183 59.2846C39.8731 58.4869 36.2562 54.535 31.9651 54.0441C27.674 53.5532 9.36924 54.6946 9.36924 54.6946L5.64208 55.3696Z" fill="#260212" fill-opacity="0.27"/>
<path d="M11.2451 57.7873C11.2451 57.7873 11.2451 60.1191 9.00143 59.26C6.75778 58.401 5.77695 55.0873 5.77695 55.0873C5.77695 55.0873 2.22143 53.0868 1.69424 46.6191C1.16704 40.1514 2.51568 36.715 2.51568 36.715L3.53329 33.9782C3.53329 33.9782 2.39308 28.7868 2.63829 25.51C2.8835 22.2331 3.98693 22.4049 6.15702 22.8958C8.3271 23.3868 11.3432 25.3504 11.3432 25.3504C11.3432 25.3504 14.3224 25.1909 15.3891 24.4913C16.4557 23.7918 16.8235 23.3499 16.8235 23.3499V24.6631C16.8235 24.6631 17.645 24.3809 18.1354 24.1722C18.6258 23.9636 18.6258 23.9636 18.6258 23.9636L18.54 24.7859C18.54 24.7859 19.7293 24.749 20.3423 25.0313C20.9553 25.3136 21.3231 25.3136 21.3231 25.3136C21.3231 25.3136 27.3675 21.5949 28.9613 22.6995C30.5552 23.804 30.2241 29.6091 29.9054 31.45C29.5743 33.2909 29.2556 33.9413 29.2556 33.9413C29.2556 33.9413 31.7444 39.2186 31.2172 45.0727C30.69 50.9268 29.133 52.9273 29.133 52.9273C29.133 52.9273 36.2072 52.8414 39.3091 56.2409C42.411 59.6405 38.9413 62.9541 35.3858 63.3591C31.8302 63.7641 30.8126 63.5678 30.4448 62.095C30.077 60.6223 32.6149 60.5364 33.8409 60.3769C35.067 60.2173 35.8884 59.7264 36.011 59.0637C36.1336 58.4132 34.9076 57.8732 34.9076 57.8732C34.9076 57.8732 32.1245 56.6828 29.6724 56.4864C27.2203 56.2778 26.5215 56.4005 26.5215 56.4005C26.5215 56.4005 25.3813 58.7691 23.1744 59.3459C20.9676 59.9228 21.4947 57.8364 21.4947 57.8364C21.4947 57.8364 17.8534 58.9409 14.96 58.5359C12.0297 58.1187 11.2451 57.7873 11.2451 57.7873Z" fill="#FA8005"/>
<path d="M10.3869 53.6146C10.3869 53.6146 12.1033 54.5964 16.2351 54.6332C20.3668 54.67 22.402 53.1605 22.402 53.1605C22.402 53.1605 21.6664 57.7014 21.2128 57.91C20.7591 58.1187 17.8657 58.5605 14.9232 58.3641C11.9807 58.1555 11.2083 57.7505 11.2083 57.7505L10.4727 54.4737L10.3869 53.6146Z" fill="#991D1D" fill-opacity="0.32"/>
<path d="M1.80457 45.4286C1.80457 45.4286 2.39307 46.3246 4.31795 46.2264C6.24283 46.1282 6.46351 46.0423 6.46351 46.0423C6.46351 46.0423 3.64363 45.085 2.68732 44.6555C1.73101 44.2259 1.52258 44.005 1.52258 44.005L1.80457 45.4286Z" fill="#DA5F0C"/>
<path d="M5.29879 48.8896C5.29879 48.8896 4.56317 49.1718 3.33713 49.135C2.1111 49.0982 1.89041 48.8527 1.89041 48.8527L1.6452 47.65C1.6452 47.65 2.96932 48.1409 4.01145 48.3005C5.05359 48.46 5.05359 48.46 5.05359 48.46L5.29879 48.8896Z" fill="#DA5F0C"/>
<path d="M10.7301 49.0123C10.7301 49.0123 11.711 50.1782 14.0159 50.2764C16.3209 50.3746 17.2649 49.54 17.2649 49.54C17.2649 49.54 14.7148 49.8223 13.1822 49.54C11.6497 49.2577 11.2818 49.1718 11.2818 49.1718L10.7301 49.0123Z" fill="#DA5F0C"/>
<path d="M14.7148 51.5282C14.7148 51.5282 15.7569 52.7923 17.9024 52.6328C20.048 52.4732 20.6365 51.6509 20.6365 51.6509C20.6365 51.6509 17.9024 51.9946 16.7745 51.7491C15.6465 51.5037 15.2052 51.5037 15.2052 51.5037L14.7148 51.5282Z" fill="#DA5F0C"/>
<path d="M31.3889 45.0236C31.3889 45.0236 30.2241 45.6986 27.8947 45.8827C25.5652 46.0668 25.5652 46.0668 25.5652 46.0668C25.5652 46.0668 27.956 46.6805 29.5253 46.4964C31.0946 46.3123 31.0946 46.1895 31.0946 46.1895L31.3889 45.0236Z" fill="#DA5F0C"/>
<path d="M3.03061 35.7945C3.03061 35.7945 3.95014 36.3836 5.27426 36.2854C6.59838 36.1873 6.59838 36.1872 6.59838 36.1872C6.59838 36.1872 4.78384 35.7209 4.10952 35.3527C3.4352 34.9845 3.4352 34.9845 3.4352 34.9845L3.03061 35.7945Z" fill="#DA5F0C"/>
<path d="M30.1628 36.6168C30.1628 36.6168 30.1015 37.1077 28.3238 37.2059C26.546 37.3041 26.5092 37.2427 26.5092 37.2427C26.5092 37.2427 28.4464 36.6291 29.0594 36.2241C29.6724 35.8191 29.6724 35.8191 29.6724 35.8191L30.1628 36.6168Z" fill="#DA5F0C"/>
<path d="M30.6778 49.0736C30.6778 49.0736 29.9054 49.2946 28.802 49.0736C27.6985 48.8527 27.6617 48.8527 27.6617 48.8527C27.6617 48.8527 29.5989 48.6318 30.1751 48.5091C30.7514 48.3864 30.7636 48.3864 30.7636 48.3864L30.6778 49.0736Z" fill="#DA5F0C"/>
<path d="M13.8197 24.9699C13.8197 24.9699 13.9669 23.4236 12.9615 21.4108C11.9562 19.3981 10.7546 18.7845 10.7546 18.7845C10.7546 18.7845 9.01367 20.1099 8.35161 19.5699C7.68955 19.0299 7.88571 18.5636 7.88571 18.5636C7.88571 18.5636 6.07117 19.4472 5.36007 18.6127C4.64897 17.7781 5.13939 16.9681 5.13939 16.9681C5.13939 16.9681 2.76088 17.4099 2.34402 16.5999C1.92717 15.7899 2.46663 14.9799 2.46663 14.9799L2.85895 14.5381C2.85895 14.5381 0.823734 13.7035 1.31415 12.2554C1.80456 10.8072 3.12868 11.0772 3.12868 11.0772L4.08499 11.2244C4.08499 11.2244 3.81527 10.2672 4.55089 9.94807C5.28651 9.62898 6.12022 10.6108 6.12022 10.6108C6.12022 10.6108 6.29186 9.30989 7.24817 9.82534C8.20448 10.3408 8.57229 11.1263 8.57229 11.1263C8.57229 11.1263 8.71942 10.3654 9.79833 10.7826C10.8772 11.1999 11.1715 11.4699 11.1715 11.4699C11.1715 11.4699 11.3922 11.0772 11.6864 10.9299C11.9807 10.7826 12.1278 10.8808 12.1278 10.8808C12.1278 10.8808 10.632 8.96626 11.0244 7.6408C11.4167 6.31534 13.0841 7.0517 13.0841 7.0517C13.0841 7.0517 11.2451 5.50533 12.0052 3.68896C12.7653 1.87259 14.727 3.00169 14.727 3.00169C14.727 3.00169 15.4871 0.203508 17.1055 1.13624C18.7239 2.06897 18.6013 3.09988 18.6013 3.09988C18.6013 3.09988 20.3423 2.24079 20.9553 3.83625C21.5683 5.4317 20.097 7.51807 20.097 7.51807C20.097 7.51807 21.7399 7.51807 21.6419 8.69626C21.5438 9.87444 20.0725 11.8135 20.0725 11.8135C20.0725 11.8135 21.9116 10.8072 22.5491 11.0772C23.1867 11.3472 23.1621 11.8872 23.1621 11.8872C23.1621 11.8872 24.1184 10.9299 24.9276 11.2735C25.7368 11.6172 25.4671 12.3781 25.4671 12.3781C25.4671 12.3781 26.6196 11.3963 27.3552 11.9608C28.0908 12.5254 27.5514 13.1881 27.5514 13.1881C27.5514 13.1881 30.3222 12.8444 30.1996 14.3663C30.077 15.8881 28.6057 16.0599 28.6057 16.0599C28.6057 16.0599 30.2977 17.5817 28.851 18.2445C27.4042 18.9072 26.595 18.2445 26.595 18.2445C26.595 18.2445 26.7422 19.8154 25.4671 19.7908C24.192 19.7663 23.3093 19.3245 23.3093 19.3245C23.3093 19.3245 23.3583 20.429 22.3775 20.4536C21.3966 20.4781 20.2442 19.9381 19.9009 19.9136C19.5576 19.889 19.4595 20.0117 19.4595 20.0117C19.4595 20.0117 18.7729 20.6499 18.2825 22.319C17.7921 23.9881 18.0128 25.1663 18.0128 25.1663L13.8197 24.9699Z" fill="#85B951"/>
<path d="M9.46729 42.5691C7.81214 42.5691 6.4635 41.7959 6.4635 40.8509C6.4635 39.9059 7.81214 39.1327 9.46729 39.1327C11.1224 39.1327 12.4711 39.9059 12.4711 40.8509C12.4711 41.7959 11.1224 42.5691 9.46729 42.5691Z" fill="#991D1D" fill-opacity="0.33"/>
<path d="M23.1989 42.5691C21.5438 42.5691 20.1951 41.7959 20.1951 40.8509C20.1951 39.9059 21.5438 39.1327 23.1989 39.1327C24.8541 39.1327 26.2027 39.9059 26.2027 40.8509C26.2027 41.7959 24.8541 42.5691 23.1989 42.5691Z" fill="#991D1D" fill-opacity="0.33"/>
<path d="M36.0478 58.806C36.0478 58.806 36.0846 57.8241 34.7605 56.8423C33.4363 55.8605 30.0402 55.4923 30.0402 55.4923C30.0402 55.4923 29.9176 54.6578 30.408 54.0196C30.8984 53.3814 31.3276 53.2218 31.3276 53.2218L29.3904 53.0623C29.3904 53.0623 27.7598 54.8787 27.4288 55.2469C27.0977 55.615 26.8157 56.3268 26.8157 56.3268C26.8157 56.3268 31.9651 56.3882 33.9022 57.4314C35.8394 58.4746 36.0478 58.806 36.0478 58.806Z" fill="#991D1D" fill-opacity="0.56"/>
<path d="M1.80461 43.8332C1.80461 43.8332 2.29502 48.4109 3.39846 50.1782C4.50189 51.9332 4.2199 51.0005 4.2199 51.0005C4.2199 51.0005 4.0973 49.8959 4.50189 50.5955C4.90648 51.295 7.32178 56.8914 8.75624 57.6278C10.1907 58.3641 10.6321 57.9959 10.8405 57.8364C11.0489 57.6769 11.0489 57.6768 11.0489 57.6768C11.0489 57.6768 11.2574 59.395 9.73707 59.3091C8.22905 59.2232 6.5126 56.6459 5.89958 55.6273C5.28656 54.6087 5.28656 54.6087 5.28656 54.6087C5.28656 54.6087 3.57011 53.5041 2.22146 49.4173C0.872823 45.3305 1.57166 42.7532 1.57166 42.7532L1.80461 43.8332Z" fill="#991D1D" fill-opacity="0.3"/>
<path d="M31.0211 43.8332C31.0211 43.8332 30.5306 48.4109 29.4272 50.1782C28.3238 51.9332 28.6058 51.0005 28.6058 51.0005C28.6058 51.0005 28.7284 49.8959 28.3238 50.5955C27.9192 51.295 25.5039 56.8914 24.0694 57.6278C22.635 58.3641 22.1936 57.9959 21.9852 57.8364C21.7767 57.6769 21.7767 57.6768 21.7767 57.6768C21.7767 57.6768 21.5683 59.395 23.0886 59.3091C24.5966 59.2232 26.3131 56.6459 26.9261 55.6273C27.5391 54.6087 27.5391 54.6087 27.5391 54.6087C27.5391 54.6087 29.2556 53.5041 30.6042 49.4173C31.9529 45.3305 31.254 42.7532 31.254 42.7532L31.0211 43.8332Z" fill="#991D1D" fill-opacity="0.3"/>
<path d="M31.0824 61.1991C31.0824 61.1991 30.31 62.4878 32.5536 62.6105C34.7973 62.7332 37.8256 62.0828 39.0884 60.1191C40.3512 58.1555 39.6769 57.1368 39.6769 57.1368C39.6769 57.1368 41.1849 59.5914 39.211 61.6164C37.2371 63.6414 33.1421 64.255 31.2417 63.2119C29.3414 62.1687 30.69 61.15 30.69 61.15L31.0824 61.1991Z" fill="#D27C4E" fill-opacity="0.56"/>
<path d="M8.17998 27.314C8.17998 27.314 5.36009 24.2459 4.25666 23.8409C3.15323 23.4359 2.99384 24.2459 2.99384 24.2459C2.99384 24.2459 2.295 26.86 2.83446 29.6827C3.36166 32.5054 3.90111 33.0822 3.90111 33.0822C3.90111 33.0822 5.24975 30.6277 6.43901 29.2409C7.62826 27.8541 8.17998 27.314 8.17998 27.314Z" fill="#991D1D" fill-opacity="0.42"/>
<path d="M24.4863 27.314C24.4863 27.314 27.3062 24.2459 28.4096 23.8409C29.5131 23.4359 29.6724 24.2459 29.6724 24.2459C29.6724 24.2459 30.3713 26.86 29.8318 29.6827C29.3046 32.5054 28.7652 33.0822 28.7652 33.0822C28.7652 33.0822 27.4165 30.6277 26.2273 29.2409C25.038 27.8541 24.4863 27.314 24.4863 27.314Z" fill="#991D1D" fill-opacity="0.42"/>
<path d="M13.4887 24.8595C13.4887 24.8595 8.21676 24.3318 3.80303 32.5913C-0.610709 40.8509 1.06896 50.0187 3.27583 53.2464C5.4827 56.4741 6.21832 56.6459 6.21832 56.6459L4.8329 53.5409C4.8329 53.5409 1.31417 50.35 2.09884 41.4768C2.87124 32.6036 8.22903 27.3631 10.3133 26.3813C12.3976 25.3995 13.5868 25.154 14.2734 25.154C14.9722 25.154 14.9722 25.154 14.9722 25.154L13.4887 24.8595Z" fill="#5F062D"/>
<path d="M4.01145 51.4055C4.01145 51.4055 5.39687 56.4005 6.86812 58.315C8.33936 60.2419 10.4604 60.1928 11.2819 59.5055C12.1033 58.8059 11.4903 57.7014 10.8773 54.7191C10.2642 51.7368 10.5953 51.16 10.5953 51.16C10.5953 51.16 9.82287 52.3014 10.4359 55.4923C11.0489 58.6832 10.8895 58.9655 9.49184 58.8428C8.10642 58.72 6.58613 56.1796 5.44592 53.6023C4.3057 51.025 3.97467 50.62 3.97467 50.62L4.01145 51.4055Z" fill="#5F062D"/>
<path d="M9.03822 57.7259C9.03822 57.7259 9.38151 58.6219 9.19761 59.0514C9.0137 59.481 9.0137 59.481 9.0137 59.481L9.68802 59.5178C9.68802 59.5178 9.93323 58.7814 9.62672 58.2537C9.32021 57.726 9.03822 57.7259 9.03822 57.7259Z" fill="#5F062D"/>
<path d="M10.2643 57.7259C10.2643 57.7259 10.6076 58.6219 10.4237 59.0514C10.2397 59.481 10.2397 59.481 10.2397 59.481L10.9141 59.5178C10.9141 59.5178 11.1593 58.7814 10.8528 58.2537C10.5463 57.726 10.2643 57.7259 10.2643 57.7259Z" fill="#5F062D"/>
<path d="M3.15327 34.2236C2.69963 33.8186 1.84141 28.6641 2.25826 25.424C2.62607 22.1472 3.72951 22.1472 4.46513 22.1472C5.20075 22.1104 8.14324 22.8468 10.2275 23.9022C12.3118 25.0068 12.0788 25.2522 12.0788 25.2522L10.9386 25.6572C10.9386 25.6572 7.567 23.8777 5.72795 23.2886C3.88889 22.6995 3.70499 23.0431 3.23909 24.3686C2.7732 25.694 3.23909 29.7686 3.58238 31.0941C3.92567 32.4195 4.10957 32.665 4.10957 32.665L3.64368 33.8309L3.15327 34.2236Z" fill="#5F062D"/>
<path d="M4.62447 24.1599C4.62447 24.1599 6.30414 25.7186 6.99072 26.774C7.68956 27.8418 7.44436 28.0381 7.44436 28.0381L8.58457 26.9336C8.58457 26.9336 7.48114 25.2154 5.85051 24.3195C4.21988 23.4236 3.92563 23.7427 3.92563 23.7427L4.62447 24.1599Z" fill="#5F062D"/>
<path d="M19.3002 24.8595C19.3002 24.8595 24.5721 24.3318 28.9859 32.5913C33.3996 40.8509 31.7199 50.0187 29.5131 53.2464C27.3062 56.4741 26.5706 56.6459 26.5706 56.6459L27.956 53.5409C27.956 53.5409 31.4747 50.35 30.69 41.4768C29.9176 32.6036 24.5599 27.3631 22.4756 26.3813C20.3913 25.3995 19.2021 25.154 18.5155 25.154C17.8167 25.154 17.8167 25.154 17.8167 25.154L19.3002 24.8595Z" fill="#5F062D"/>
<path d="M28.7774 51.4055C28.7774 51.4055 27.392 56.4005 25.9208 58.315C24.4495 60.2419 22.3285 60.1928 21.507 59.5055C20.6856 58.8059 21.2986 57.7014 21.9116 54.7191C22.5246 51.7368 22.1936 51.16 22.1936 51.16C22.1936 51.16 22.966 52.3014 22.353 55.4923C21.74 58.6832 21.8994 58.9655 23.297 58.8428C24.6825 58.72 26.2028 56.1796 27.343 53.6023C28.4832 51.025 28.8142 50.62 28.8142 50.62L28.7774 51.4055Z" fill="#5F062D"/>
<path d="M23.7507 57.7259C23.7507 57.7259 23.4074 58.6219 23.5913 59.0514C23.7752 59.481 23.7752 59.481 23.7752 59.481L23.1009 59.5178C23.1009 59.5178 22.8556 58.7814 23.1622 58.2537C23.4687 57.726 23.7507 57.7259 23.7507 57.7259Z" fill="#5F062D"/>
<path d="M22.5246 57.7259C22.5246 57.7259 22.1813 58.6219 22.3652 59.0514C22.5491 59.481 22.5491 59.481 22.5491 59.481L21.8748 59.5178C21.8748 59.5178 21.6296 58.7814 21.9361 58.2537C22.2426 57.726 22.5246 57.7259 22.5246 57.7259Z" fill="#5F062D"/>
<path d="M29.6357 34.2236C30.0893 33.8186 30.9475 28.6641 30.5307 25.424C30.1629 22.1472 29.0594 22.1472 28.3238 22.1472C27.5882 22.1104 24.6457 22.8468 22.5614 23.9022C20.4772 25.0068 20.7101 25.2522 20.7101 25.2522L21.8503 25.6572C21.8503 25.6572 25.2219 23.8777 27.061 23.2886C28.9 22.6995 29.0839 23.0431 29.5498 24.3686C30.0157 25.694 29.5498 29.7686 29.2065 31.0941C28.8633 32.4195 28.6794 32.665 28.6794 32.665L29.1452 33.8309L29.6357 34.2236Z" fill="#5F062D"/>
<path d="M28.1644 24.1599C28.1644 24.1599 26.4847 25.7186 25.7982 26.774C25.0993 27.8418 25.3445 28.0381 25.3445 28.0381L24.2043 26.9336C24.2043 26.9336 25.3077 25.2154 26.9384 24.3195C28.569 23.4236 28.8633 23.7427 28.8633 23.7427L28.1644 24.1599Z" fill="#5F062D"/>
<path d="M11.2818 58.4378C11.2818 58.4378 13.2067 59.0146 16.3454 59.0146C19.4963 59.0146 21.4947 58.3641 21.4947 58.3641L21.7399 57.1368C21.7399 57.1368 19.7415 58.0818 16.3454 58.1187C12.9492 58.1555 11.1102 57.2228 11.1102 57.2228L11.2818 58.4378Z" fill="#5F062D"/>
<path d="M11.4903 25.1418C13.1209 24.6877 14.7148 24.8104 15.8182 23.8286C16.9216 22.8468 17.0442 22.5645 17.0442 22.5645C17.0442 22.5645 17.4488 23.7058 17.0075 24.8595C16.5538 26.0009 15.9408 26.2095 15.9408 26.2095C15.9408 26.2095 16.3944 25.1909 16.468 24.6509C16.5538 24.1231 16.5538 24.1231 16.5538 24.1231C16.5538 24.1231 15.7814 25.1049 14.065 25.3504C12.3485 25.5958 11.2083 25.8413 11.2083 25.8413L11.4903 25.1418Z" fill="#5F062D"/>
<path d="M17.13 24.0986C17.13 24.0986 17.2649 24.344 18.0128 23.8899C18.7607 23.4358 18.9323 23.2395 18.9323 23.2395C18.9323 23.2395 19.0304 24.5895 18.4787 25.2031C17.927 25.8168 17.3998 25.8168 17.3998 25.8168C17.3998 25.8168 18.2212 24.9208 18.3193 24.5895C18.4174 24.2581 17.8902 24.7122 17.2404 24.8718C16.5906 25.0313 16.6151 24.9945 16.6151 24.9945L16.8113 23.7672L17.13 24.0986Z" fill="#5F062D"/>
<path d="M18.8465 24.4422C18.8465 24.4422 20.1583 24.479 20.9675 24.8472C21.789 25.2154 21.8258 25.2522 21.8258 25.2522L21.9484 25.8659C21.9484 25.8659 18.8833 25.0927 18.5155 25.1295C18.1476 25.1663 18.1476 25.1663 18.1476 25.1663L18.8465 24.4422Z" fill="#5F062D"/>
<path d="M26.779 56.8914C26.779 56.8914 29.8808 56.5232 32.8724 57.5419C35.8516 58.5605 35.9007 59.3828 35.9007 59.3828C35.9007 59.3828 36.5995 57.91 33.8164 56.965C31.0333 56.02 29.6111 56.0691 28.3851 55.9832C27.159 55.8973 26.5828 56.2287 26.5828 56.2287L26.0556 57.1737L26.779 56.8914Z" fill="#5F062D"/>
<path d="M35.4838 57.6278C35.4838 57.6278 36.3421 58.8919 35.1528 59.7141C33.9636 60.5364 31.6341 59.7141 30.3345 61.101C29.0226 62.4878 30.3345 64.746 34.5888 64.0464C38.8432 63.3469 41.1236 61.3464 40.6332 58.0696C40.057 54.8419 33.8042 52.9518 31.7199 52.7064C29.6356 52.4609 29.3904 52.5469 29.3904 52.5469L28.9368 53.3691C28.9368 53.3691 33.2892 53.1482 37.0899 55.1609C40.8661 57.1491 39.9834 59.53 39.7382 60.3155C38.8309 62.8191 32.9827 64.206 31.1437 62.856C29.6724 61.7514 31.9161 60.8923 33.2647 60.8064C34.6133 60.7205 36.293 60.4014 36.3298 59.0514C36.3666 57.7014 35.4838 57.6278 35.4838 57.6278Z" fill="#5F062D"/>
<path d="M22.0465 39.01C21.0779 39.1818 20.1461 38.4209 19.95 37.3286C19.7538 36.2363 20.3791 35.1931 21.3477 35.0213C22.3162 34.8495 23.248 35.6104 23.4442 36.7027C23.6403 37.795 23.0151 38.8382 22.0465 39.01Z" fill="#5F062D"/>
<path d="M10.8037 39.01C11.7723 39.1818 12.7041 38.4209 12.9002 37.3286C13.0964 36.2363 12.4711 35.1931 11.5025 35.0213C10.534 34.8495 9.60219 35.6104 9.40602 36.7027C9.20985 37.795 9.83514 38.8382 10.8037 39.01Z" fill="#5F062D"/>
<path d="M16.2473 41.305C15.8182 41.305 15.0581 40.4827 15.0581 40.2618C15.0581 40.0409 15.5975 39.8568 16.2596 39.8568C16.9217 39.8568 17.4611 40.0409 17.4611 40.2618C17.4734 40.4827 16.7377 41.2436 16.2473 41.305Z" fill="#5F062D"/>
<path d="M16.2964 41.9554C16.2964 41.9554 16.2228 42.6059 16.9462 42.8636C17.6695 43.1091 18.1477 42.6427 18.209 42.3604C18.2703 42.0904 18.2457 42.0291 18.2457 42.0291C18.2457 42.0291 17.9025 42.6182 17.2649 42.5691C16.6274 42.52 16.3699 41.9309 16.3331 41.845C16.2964 41.7591 16.2964 41.7591 16.2964 41.7591V41.9554Z" fill="#5F062D"/>
<path d="M16.3454 41.9554C16.3454 41.9554 16.419 42.6059 15.6956 42.8636C14.9723 43.1091 14.4941 42.6427 14.4328 42.3604C14.3715 42.0904 14.396 42.0291 14.396 42.0291C14.396 42.0291 14.7393 42.6182 15.3768 42.5691C16.0144 42.52 16.2719 41.9309 16.3086 41.845C16.3454 41.7591 16.3454 41.7591 16.3454 41.7591V41.9554Z" fill="#5F062D"/>
<path d="M8.82978 41.2191C8.82978 41.2191 7.72635 41.2191 6.58613 40.8509C5.44592 40.4827 5.11489 40.36 4.90646 40.8141C4.69803 41.2682 5.80147 41.6732 7.11333 41.6732C8.42519 41.6732 8.82978 41.2191 8.82978 41.2191Z" fill="#5F062D"/>
<path d="M8.94012 42.3973C8.94012 42.3973 7.87346 42.6795 6.67195 42.6182C5.47043 42.5568 5.12714 42.52 5.04132 43.0109C4.95549 43.5018 6.13248 43.6123 7.3953 43.2686C8.65812 42.925 8.94012 42.3973 8.94012 42.3973Z" fill="#5F062D"/>
<path d="M23.8365 41.2191C23.8365 41.2191 24.9399 41.2191 26.0801 40.8509C27.2203 40.4827 27.5514 40.36 27.7598 40.8141C27.9682 41.2682 26.8648 41.6732 25.5529 41.6732C24.2411 41.6732 23.8365 41.2191 23.8365 41.2191Z" fill="#5F062D"/>
<path d="M23.7261 42.3973C23.7261 42.3973 24.7928 42.6795 25.9943 42.6182C27.1958 42.5568 27.5391 42.52 27.6249 43.0109C27.7108 43.5018 26.5338 43.6123 25.2709 43.2686C24.0081 42.925 23.7261 42.3973 23.7261 42.3973Z" fill="#5F062D"/>
<path d="M12.2259 31.9286C12.2259 31.9286 11.6987 31.5972 10.5094 32.2968C9.32018 32.9963 9.19758 34.015 9.49182 33.9781C9.77381 33.9413 10.3501 33.2418 11.4535 33.0822C12.5569 32.9227 12.7163 32.8 12.6795 32.3827C12.6305 31.9777 12.2259 31.9286 12.2259 31.9286Z" fill="#5F062D"/>
<path d="M20.7223 31.9286C20.7223 31.9286 21.2495 31.5972 22.4388 32.2968C23.628 32.9963 23.7506 34.015 23.4564 33.9781C23.1744 33.9413 22.5982 33.2418 21.4947 33.0822C20.3913 32.9227 20.2319 32.8 20.2687 32.3827C20.3177 31.9777 20.7223 31.9286 20.7223 31.9286Z" fill="#5F062D"/>
<path d="M11.4167 35.5982C11.4167 35.5982 10.9018 35.3773 10.2643 36.04C9.62671 36.7027 10.1907 37.2182 10.8527 36.9727C11.5148 36.7273 11.7845 36.1382 11.6865 35.8927C11.5884 35.6472 11.4167 35.5982 11.4167 35.5982Z" fill="white"/>
<path d="M11.0489 37.9054C11.0489 37.9054 11.4413 37.5618 11.7846 37.8318C12.1279 38.1018 11.3677 38.4945 10.9999 38.3964C10.6321 38.2982 11.0489 37.9054 11.0489 37.9054Z" fill="white"/>
<path d="M9.82291 37.6845C9.82291 37.6845 9.99455 38.6663 11.1225 38.6418C12.2505 38.6172 12.3731 37.6354 12.3976 37.4636C12.3976 37.0218 11.2451 36.8991 10.3869 37.2673C9.5777 37.5863 9.89647 37.9054 9.82291 37.6845Z" fill="white" fill-opacity="0.29"/>
<path d="M22.0833 35.7209C22.0833 35.7209 21.5684 35.5 20.9308 36.1627C20.2933 36.8254 20.8573 37.3409 21.5193 37.0954C22.1814 36.85 22.4511 36.2609 22.353 36.0154C22.2549 35.77 22.0833 35.7209 22.0833 35.7209Z" fill="white"/>
<path d="M21.7154 38.0282C21.7154 38.0282 22.1077 37.6845 22.451 37.9545C22.7943 38.2245 22.0342 38.6172 21.6664 38.5191C21.2986 38.4209 21.7154 38.0282 21.7154 38.0282Z" fill="white"/>
<path d="M14.4573 42.2377C14.4573 42.2377 14.6167 43.0723 15.34 43.0723C16.0756 43.0723 16.3454 42.7041 16.3454 42.7041C16.3454 42.7041 16.75 43.1705 17.3507 43.0477C17.9392 42.925 18.0863 42.4586 18.0863 42.4586C18.0863 42.4586 17.3139 42.8636 16.799 42.5445C16.2841 42.2132 16.3454 42.0291 16.3454 42.0291C16.3454 42.0291 16.0389 42.6059 15.34 42.6182C14.6412 42.655 14.4573 42.2377 14.4573 42.2377Z" fill="#5F062D"/>
<path d="M20.4894 37.6845C20.4894 37.6845 20.661 38.6663 21.789 38.6418C22.9169 38.6172 23.0395 37.6354 23.0641 37.4636C23.0641 37.0218 21.9116 36.8991 21.0534 37.2673C20.2442 37.5863 20.5629 37.9054 20.4894 37.6845Z" fill="white" fill-opacity="0.29"/>
<path d="M8.51099 26.0377C8.51099 26.0377 7.44433 24.7736 6.09569 23.9513C4.74705 23.129 4.13403 23.0063 4.13403 23.0063C4.13403 23.0063 6.18152 23.4604 7.93475 24.3563C9.68798 25.2522 9.89641 25.3013 9.89641 25.3013L8.51099 26.0377Z" fill="#FDEABA" fill-opacity="0.63"/>
<path d="M24.1553 26.0377C24.1553 26.0377 25.2219 24.7736 26.5706 23.9513C27.9192 23.129 28.5322 23.0063 28.5322 23.0063C28.5322 23.0063 26.4847 23.4604 24.7315 24.3563C22.9783 25.2522 22.7698 25.3013 22.7698 25.3013L24.1553 26.0377Z" fill="#FDEABA" fill-opacity="0.63"/>
<path d="M14.1876 25.7186C14.1876 25.7186 11.0367 25.559 8.33938 28.3327C5.6421 31.1186 5.60532 32.26 5.60532 32.26C5.60532 32.26 8.14321 28.8604 10.6688 27.5104C13.2067 26.1604 14.96 25.9518 14.96 25.9518L14.1876 25.7186Z" fill="#FDEABA" fill-opacity="0.63"/>
<path d="M18.5155 25.7186C18.5155 25.7186 21.8258 25.9272 23.7016 27.6454C25.5775 29.3636 25.9453 30.2595 25.9453 30.2595C25.9453 30.2595 23.1622 27.3509 20.5507 26.7372C17.9393 26.1236 17.5224 26.0868 17.5224 26.0868L18.5155 25.7186Z" fill="#FDEABA" fill-opacity="0.63"/>
<path d="M9.93319 52.5468C9.93319 52.5468 9.68798 54.0564 10.0558 55.3696C10.4236 56.6828 10.5462 57.0878 10.1784 57.2964C9.81058 57.505 9.16078 55.7868 9.35695 54.1423C9.56537 52.51 9.93319 51.8964 9.93319 51.8964V52.5468Z" fill="#FDEABA" fill-opacity="0.63"/>
<path d="M23.0151 52.5468C23.0151 52.5468 23.2603 54.0564 22.8924 55.3696C22.5246 56.6828 22.402 57.0878 22.7698 57.2964C23.1377 57.505 23.7875 55.7868 23.5913 54.1423C23.3829 52.51 23.0151 51.8964 23.0151 51.8964V52.5468Z" fill="#FDEABA" fill-opacity="0.63"/>
<path d="M8.05737 27.314C8.05737 27.314 4.95549 23.1781 4.17083 24.209C3.39842 25.2277 5.39687 30.5909 5.39687 30.5909L7.07654 28.5045L7.89798 27.7313L8.05737 27.314Z" fill="#5F062D" fill-opacity="0.35"/>
<path d="M24.7315 27.314C24.7315 27.314 27.8334 23.1781 28.618 24.209C29.3904 25.2277 27.392 30.5909 27.392 30.5909L25.7123 28.5045L24.8909 27.7313L24.7315 27.314Z" fill="#5F062D" fill-opacity="0.35"/>
<path d="M1.47356 12.194C1.47356 12.194 2.02527 13.2372 3.10419 13.5808C4.1831 13.9245 4.45283 14.0717 4.45283 14.0717C4.45283 14.0717 2.85898 14.5626 2.61377 15.3358C2.36856 16.109 3.6559 16.2563 4.75934 16.1336C5.86277 16.0108 6.53709 15.7654 6.53709 15.7654C6.53709 15.7654 5.39688 16.3176 5.37235 17.3608C5.34783 18.404 7.15012 17.9745 7.86122 17.5817C8.57232 17.189 8.94013 17.0295 8.94013 17.0295C8.94013 17.0295 8.04512 18.0481 8.32711 18.7477C8.6091 19.4472 9.34472 18.5267 10.6321 18.3426C11.9194 18.1586 12.8144 18.7722 13.4519 19.9995C14.0895 21.2267 14.347 21.6563 14.5309 21.1654C14.7148 20.6745 14.6535 19.9381 14.6535 19.9381L15.3891 20.9568L15.2665 24.6386L13.9178 24.884C13.9178 24.884 13.9791 22.8222 12.5079 20.7727C11.0366 18.7231 10.4482 18.8949 10.4482 18.8949C10.4482 18.8949 8.97691 20.0977 8.32711 19.6927C7.67731 19.2877 8.0819 18.4899 8.0819 18.4899C8.0819 18.4899 6.51257 19.3858 5.56853 18.674C4.62448 17.9622 5.04133 16.8945 5.04133 16.8945C5.04133 16.8945 3.87659 17.8763 2.49117 16.5508C1.10574 15.2254 3.01837 14.4276 3.01837 14.4276C3.01837 14.4276 1.20383 13.3476 1.20383 12.7708C1.20383 12.194 1.20383 12.1817 1.20383 12.1817H1.47356V12.194Z" fill="#4D913A"/>
<path d="M19.4963 19.9013C19.4963 19.9013 17.3752 20.0608 16.7009 21.5336C16.0266 23.0063 16.1737 23.9881 16.1737 23.9881L16.7254 23.6813L16.8235 24.4545L17.8656 24.3931C17.8656 24.3931 18.025 22.454 18.54 21.3863C19.0549 20.3186 19.4963 19.9013 19.4963 19.9013Z" fill="#4D913A"/>
<path d="M16.5171 18.3304C16.5171 18.3304 15.6589 20.4781 16.2351 20.4167C16.8113 20.3554 17.4366 18.8213 19.6067 19.0054C21.7768 19.1895 22.0342 19.9258 22.7699 19.7417C23.5055 19.5577 23.3216 19.1526 23.3216 19.1526C23.3216 19.1526 23.4442 20.6622 22.5247 20.4781C21.6051 20.294 19.2144 19.2508 17.7676 20.1958C16.3209 21.1408 16.0757 23.3254 16.0757 23.3254L16.0144 24.1599L15.4259 24.4054C15.4259 24.4054 15.4627 20.9936 15.8305 19.7417C16.1983 18.4899 16.1983 18.4776 16.1983 18.4776L16.5171 18.3304Z" fill="#4D913A"/>
<path d="M26.3621 18.0604C26.3621 18.0604 26.9506 19.5699 25.0993 19.6558C23.248 19.7417 22.2181 18.1463 22.2181 18.1463C22.2181 18.1463 24.2779 19.2263 25.32 18.7354C26.3621 18.2445 25.5652 17.1399 25.5652 17.1399L26.3621 18.0604Z" fill="#4D913A"/>
<path d="M28.4096 15.9126C28.4096 15.9126 30.0402 16.7472 29.1207 17.9376C28.2012 19.1281 25.9575 17.8149 25.3813 17.2872C24.805 16.7595 24.7315 16.6367 24.7315 16.6367C24.7315 16.6367 27.1222 17.864 28.1644 17.3731C29.2065 16.8822 28.4096 15.9126 28.4096 15.9126Z" fill="#4D913A"/>
<path d="M29.4885 13.3599C29.4885 13.3599 30.0157 14.6486 28.6303 15.0167C27.2449 15.3849 25.9943 14.9799 25.9943 14.9799C25.9943 14.9799 28.1766 16.3913 29.5253 15.6304C30.8739 14.8695 29.9299 13.6299 29.9299 13.6299L29.4885 13.3599Z" fill="#4D913A"/>
<path d="M18.5155 13.6054C18.5155 13.6054 17.314 15.0167 18.0496 15.3849C18.7852 15.7531 18.6994 15.1026 21.0902 14.4645C23.4809 13.8263 24.4373 14.5013 24.4373 14.5013C24.4373 14.5013 21.3967 14.5626 19.1653 15.8881C16.9339 17.2136 16.468 18.0113 16.468 18.0113C16.468 18.0113 16.4312 16.5999 17.1791 15.1517C17.927 13.7035 18.0128 13.6422 18.0128 13.6422L18.5155 13.6054Z" fill="#4D913A"/>
<path d="M14.347 15.6058C14.347 15.6058 15.2052 17.7904 14.5676 17.0786C13.9301 16.3667 12.7286 14.5258 10.5462 13.8508C8.36389 13.1758 6.70874 13.8876 6.70874 13.8876C6.70874 13.8876 10.4482 13.6422 12.5692 16.4036C14.6902 19.1649 14.8987 19.9013 14.8987 19.9013L15.2665 20.429L15.6098 19.9381L15.8918 18.8336L14.347 15.6058Z" fill="#4D913A"/>
<path d="M12.3485 11.0649C12.3485 11.0649 11.9194 11.2245 12.6305 11.9854C13.3416 12.7463 14.2611 13.4949 14.9355 12.6358C15.6098 11.7767 16.0389 8.18081 16.0389 8.18081C16.0389 8.18081 15.855 12.9058 17.9393 11.7154C20.0235 10.5249 20.9798 9.10126 21.1883 8.64717C21.3967 8.19308 21.409 8.18081 21.409 8.18081C21.409 8.18081 21.507 8.70853 21.0411 9.93581C20.5752 11.1631 20.4526 11.3472 20.4526 11.3472C20.4526 11.3472 18.1845 13.2249 17.5101 14.4767C16.8358 15.7286 16.1247 17.2749 16.1247 17.2749L15.904 18.1095C15.904 18.1095 13.9056 14.6117 12.8389 13.2004C11.7723 11.789 11.0244 11.5435 11.0244 11.5435L11.5761 11.1999L12.3485 11.0649Z" fill="#4D913A"/>
<path d="M19.5821 3.02625C19.5821 3.02625 21.2127 3.21034 20.7468 4.86716C20.281 6.52399 18.0128 8.91717 18.0128 8.91717C18.0128 8.91717 20.5016 7.89854 20.9921 5.60353C21.4825 3.30852 20.3423 3.23488 20.3423 3.23488L19.5821 3.02625Z" fill="#4D913A"/>
<path d="M13.1822 2.84216C13.1822 2.84216 11.8336 3.24716 12.5079 4.92852C13.1822 6.60989 14.8374 8.15625 14.8374 8.15625C14.8374 8.15625 12.4711 6.86762 11.9562 5.41944C11.4412 3.97125 12.4221 2.92806 12.4221 2.92806L13.1822 2.84216Z" fill="#4D913A"/>
<path d="M11.711 7.22353C11.711 7.22353 11.2451 8.08262 12.1769 9.67808C13.1086 11.2735 13.7707 11.4945 13.7707 11.4945C13.7707 11.4945 11.5638 10.6599 10.914 9.16263C10.2642 7.66535 11.711 7.22353 11.711 7.22353Z" fill="#4D913A"/>
<path d="M16.8236 1.14851C16.8236 1.14851 18.0251 1.63942 18.0864 3.21034C18.1477 4.78125 17.4979 5.7017 17.4979 5.7017C17.4979 5.7017 18.6626 4.3517 18.822 3.14897C18.9814 1.94624 17.9025 1.43079 17.9025 1.43079L16.8236 1.14851Z" fill="#4D913A"/>
<path d="M13.2681 24.7122C13.2681 24.7122 14.0037 25.019 13.17 22.6258C12.3363 20.2327 11.0489 19.4349 10.7792 19.3122C10.5095 19.1895 10.4972 19.1895 10.4972 19.1895L11.2328 18.944C11.2328 18.944 12.7041 19.6558 13.6481 21.6195C14.5431 23.5831 14.396 24.7122 14.396 24.7122C14.396 24.7122 14.114 24.8963 13.6236 25.0804C13.1332 25.2645 12.7654 25.2031 12.7654 25.2031L13.2681 24.7122Z" fill="#5F062D"/>
<path d="M12.1646 19.3736C12.1646 19.3736 11.0857 18.8458 10.2643 19.5577C9.44282 20.2695 8.60912 20.3922 7.9961 20.024C7.38308 19.6558 7.68959 18.9195 7.68959 18.9195C7.68959 18.9195 6.54937 19.9381 5.36012 19.1036C4.17086 18.269 4.77162 17.3854 4.77162 17.3854C4.77162 17.3854 3.87661 18.0358 2.38085 17.0417C0.885081 16.0476 2.34407 14.6486 2.34407 14.6486C2.34407 14.6486 0.137199 13.6913 0.934124 11.9117C1.73105 10.1322 3.66819 10.6845 4.1586 11.0772C4.64902 11.4699 4.7471 11.6908 4.7471 11.6908C4.7471 11.6908 2.56475 10.979 1.92721 11.9117C1.28967 12.8445 1.96399 13.6667 2.63831 13.9367C3.31263 14.2067 3.98695 14.3049 3.98695 14.3049C3.98695 14.3049 2.2705 15.1395 2.63831 16.1826C3.00612 17.2258 4.94326 16.8331 5.3969 16.5877C5.85053 16.3422 5.86279 16.3422 5.86279 16.3422C5.86279 16.3422 4.88196 17.6922 5.74018 18.3672C6.59841 19.0422 7.94706 18.2077 8.22905 17.9377C8.51104 17.6677 8.51103 17.6554 8.51103 17.6554C8.51103 17.6554 8.04514 19.5577 9.00145 19.3736C9.95776 19.1895 10.4482 18.3304 11.2451 18.6372C12.042 18.944 12.1646 19.3736 12.1646 19.3736Z" fill="#5F062D"/>
<path d="M7.84894 14.1576C7.84894 14.1576 10.8282 13.9981 13.0964 17.5081C15.3645 21.0181 15.0948 22.5399 15.0948 22.5399L15.4013 20.3554C15.4013 20.3554 14.6289 17.4713 12.3975 15.569C10.1662 13.6667 7.84894 14.1576 7.84894 14.1576Z" fill="#5F062D"/>
<path d="M23.7506 14.4645C23.7506 14.4645 18.6626 14.5872 16.4802 17.594C14.2979 20.6008 14.5431 24.9331 15.0335 24.9822L15.7691 24.4054C15.8059 24.1845 15.2787 21.5213 16.6274 18.6617C17.976 15.8022 22.3652 14.8572 23.1254 14.6976C23.8855 14.5381 23.7506 14.4645 23.7506 14.4645Z" fill="#5F062D"/>
<path d="M15.9653 23.5831C15.9653 23.5831 16.1247 20.294 18.4542 19.7418C20.7837 19.1895 21.6419 20.5149 22.5982 20.1099C23.5545 19.7049 22.8434 18.7231 22.8434 18.7231C22.8434 18.7231 24.2901 19.7663 25.602 19.3367C26.9139 18.9072 25.9453 17.459 25.9453 17.459C25.9453 17.459 26.9629 18.539 28.4341 18.0727C29.9054 17.6063 28.7407 16.2317 28.2135 15.9249C27.6863 15.6181 27.6863 15.6181 27.6863 15.6181C27.6863 15.6181 29.0717 15.5813 29.7092 16.8454C30.3468 18.1095 28.7897 19.0299 28.0173 18.9318C27.2449 18.8336 26.8526 18.6249 26.8526 18.6249C26.8526 18.6249 27.2571 19.889 25.7491 20.1345C24.2411 20.3799 23.6036 19.7295 23.6036 19.7295C23.6036 19.7295 23.9101 21.239 22.5001 20.9322C21.0902 20.6254 19.6189 19.6436 18.1477 20.5027C16.6764 21.3618 16.6887 23.8286 16.6887 23.9145L15.8795 24.3195L15.9653 23.5831Z" fill="#5F062D"/>
<path d="M15.5975 18.8827C15.5975 18.8827 16.4312 14.3417 19.0672 12.1326C21.7032 9.92355 23.1131 10.6231 23.2725 11.1508C23.4319 11.6786 23.3951 11.6417 23.3951 11.6417C23.3951 11.6417 23.861 10.7213 24.9277 10.9054C25.9943 11.0895 25.7859 11.8872 25.7859 11.8872C25.7859 11.8872 26.828 11.0281 27.6249 11.6663C28.4219 12.3045 27.9069 12.9549 27.9069 12.9549C27.9069 12.9549 29.0472 12.464 30.0525 13.3845C31.0579 14.3049 30.359 15.5936 29.746 15.9004C29.133 16.2072 28.8265 16.1458 28.8265 16.1458L28.1767 15.7776C28.1767 15.7776 29.5253 15.8145 29.8073 14.6117C30.0893 13.409 28.851 13.3231 28.238 13.3477C27.6249 13.3722 26.9138 13.7772 26.9138 13.7772C26.9138 13.7772 27.956 12.5745 27.2204 12.0836C26.4847 11.5926 25.0135 13.2249 25.0135 13.2249C25.0135 13.2249 25.6633 11.4085 24.5476 11.5313C23.4319 11.654 22.9783 12.6113 22.9783 12.6113C22.9783 12.6113 22.9783 10.8563 21.3231 11.654C19.668 12.4517 17.8902 14.2926 17.2159 16.0108C16.5416 17.729 16.5416 17.9499 16.5416 17.9499L15.622 19.9136L15.3401 20.6254L15.5975 18.8827Z" fill="#5F062D"/>
<path d="M19.8028 20.2695C19.8028 20.2695 19.0304 20.8831 18.6626 22.2086C18.2948 23.534 18.2703 23.4727 18.3193 24.209L17.2527 24.7367C17.4734 24.4422 17.5347 22.5031 18.1477 21.4354C18.7607 20.3677 19.3492 19.9258 19.3492 19.9258L20.33 19.9627L19.8028 20.2695Z" fill="#5F062D"/>
<path d="M15.7814 17.6308C15.7814 17.6308 15.0458 14.9554 12.4956 12.4395C9.94547 9.92354 9.18532 10.0094 8.75621 10.2917C8.3271 10.574 8.47422 10.8195 8.47422 10.8195C8.47422 10.8195 8.13093 9.7149 7.1501 9.43263C6.16927 9.15036 5.88728 10.1076 5.88728 10.1076C5.88728 10.1076 5.29878 9.27308 4.37925 9.67808C3.45973 10.0831 3.76624 11.1508 3.76624 11.1508L4.44056 11.4945C4.44056 11.4945 4.07274 10.3899 4.84515 10.3285C5.61755 10.2672 6.29187 11.2244 6.29187 11.2244C6.29187 11.2244 6.29188 9.77627 7.12558 10.0831C7.95929 10.3899 8.59683 11.924 8.59683 11.924C8.59683 11.924 8.78073 10.4513 10.1294 11.3104C11.478 12.1695 13.501 14.2313 14.4573 16.4036C15.4136 18.5758 15.622 19.5086 15.622 19.5086L16.2105 18.0972L15.7814 17.6308Z" fill="#5F062D"/>
<path d="M16.2473 5.4808C16.2473 5.4808 15.7201 8.09489 15.6588 12.6604C15.5975 17.2258 15.7201 18.404 15.7201 18.404L15.7569 18.809L16.4925 17.459C16.4925 17.459 16.2105 12.5131 16.2473 10.034C16.2841 7.55489 16.4312 4.63397 16.4312 4.63397L16.2473 5.4808Z" fill="#5F062D"/>
<path d="M11.0979 11.0035L11.5271 10.7213C11.5271 10.7213 9.87191 9.06444 10.6075 7.61625C11.3432 6.16807 12.3853 6.6958 12.3853 6.6958C12.3853 6.6958 10.8527 5.18625 11.8336 3.32079C12.8144 1.45533 14.6289 2.46169 14.6289 2.46169C14.6289 2.46169 14.9968 0.522608 16.8726 0.768063C18.7484 1.01352 18.9569 2.70715 18.9569 2.70715C18.9569 2.70715 20.7346 1.99534 21.3844 3.84852C22.0342 5.70171 20.5875 7.26036 20.5875 7.26036C20.5875 7.26036 21.9974 7.29717 21.9116 8.79445C21.8258 10.2917 20.0358 12.0835 20.0358 12.0835L18.8956 13.0408C18.8956 13.0408 21.1392 10.034 21.2863 8.74536C21.4334 7.45672 19.3492 8.31581 19.3492 8.31581C19.3492 8.31581 21.4089 5.6158 20.7591 4.04488C20.1093 2.47397 18.3683 3.61534 18.3683 3.61534C18.3683 3.61534 18.2457 1.36942 16.7745 1.34488C15.3033 1.32033 15.1193 3.06307 15.058 3.40671C14.9967 3.75034 14.9967 3.75033 14.9967 3.75033C14.9967 3.75033 13.4642 1.99534 12.4221 3.5908C11.3799 5.18626 13.8198 7.46899 13.8198 7.46899C13.8198 7.46899 11.6374 6.54853 11.3309 8.08263C11.0244 9.61672 12.9615 11.249 12.9615 11.249C12.9615 11.249 12.1278 11.0281 11.76 11.3717C11.3922 11.7154 11.4535 11.9854 11.4535 11.9854L10.4972 11.2735L11.0979 11.0035Z" fill="#5F062D"/>
<path d="M12.7899 14.0963C12.7899 14.0963 10.2397 11.249 9.38151 11.249C8.52328 11.249 8.6704 12.2063 8.6704 12.2063C8.6704 12.2063 7.39533 9.97262 6.88039 10.2426C6.36546 10.5126 6.46354 11.519 6.46354 11.519C6.46354 11.519 5.58079 10.5617 5.06585 10.5863C4.55092 10.6108 4.67353 11.0035 4.67353 11.0035C4.67353 11.0035 4.94325 10.6844 5.65436 11.2244C6.36546 11.7644 6.7823 12.4517 6.7823 12.4517C6.7823 12.4517 6.5371 10.7335 7.2482 11.0281C7.95931 11.3226 8.79301 12.6235 8.79301 12.6235C8.79301 12.6235 8.96465 11.4944 10.019 11.9854C11.0734 12.4763 12.9861 14.489 12.9861 14.489L12.7899 14.0963Z" fill="#B5DD65"/>
<path d="M3.33715 15.7899C3.33715 15.7899 3.30037 15.2622 4.25668 14.7467C5.21299 14.2313 6.40224 14.3417 6.40224 14.3417C6.40224 14.3417 5.13943 13.814 3.85209 14.5258C2.56475 15.2376 2.99386 15.6058 2.99386 15.6058L3.33715 15.7899Z" fill="#B5DD65"/>
<path d="M5.33558 12.2922C5.33558 12.2922 3.95016 11.6417 2.90803 11.6417C1.8659 11.6417 2.11111 12.5008 2.11111 12.5008C2.11111 12.5008 2.82221 12.2185 3.70496 12.0958C4.5877 11.9731 5.33558 12.2922 5.33558 12.2922Z" fill="#B5DD65"/>
<path d="M13.1455 18.1831C13.1455 18.1831 12.0052 16.2808 10.3869 15.2008C8.7685 14.1208 7.07657 14.5872 7.07657 14.5872C7.07657 14.5872 9.38152 14.894 11.3677 16.4895C13.3539 18.0849 13.1455 18.1831 13.1455 18.1831Z" fill="#B5DD65"/>
<path d="M14.5554 8.30354C14.5554 8.30354 13.5133 7.5058 12.655 7.40762C11.7968 7.30944 11.8213 7.99672 11.8213 7.99672C11.8213 7.99672 12.1278 7.59171 13.452 8.03353C14.7761 8.47535 14.5554 8.30354 14.5554 8.30354Z" fill="#B5DD65"/>
<path d="M15.291 4.68309C15.291 4.68309 14.4573 3.11217 13.5132 3.08763C12.5692 3.06308 12.655 4.10626 12.655 4.10626C12.655 4.10626 13.1822 3.27172 14.163 3.82399C15.1439 4.37627 15.291 4.68309 15.291 4.68309Z" fill="#B5DD65"/>
<path d="M17.8411 2.68261C17.8411 2.68261 17.6205 1.41851 16.5538 1.54124C15.4872 1.66397 15.3891 3.54171 15.3891 3.54171C15.3891 3.54171 15.9163 2.37579 16.6151 2.06897C17.3139 1.76216 17.8411 2.68261 17.8411 2.68261Z" fill="#B5DD65"/>
<path d="M20.5017 4.64625C20.5017 4.64625 20.8695 3.90987 19.8519 3.50487C18.8343 3.09987 18.3438 4.85488 18.3438 4.85488C18.3438 4.85488 19.2021 3.95897 19.7906 3.95897C20.3791 3.95897 20.5017 4.64625 20.5017 4.64625Z" fill="#B5DD65"/>
<path d="M20.661 8.88036C20.661 8.88036 20.943 8.45081 20.1339 8.35262C19.3247 8.25444 17.7063 9.45717 17.7063 9.45717C17.7063 9.45717 19.2143 8.9049 19.9499 8.9049C20.6856 8.9049 20.661 8.88036 20.661 8.88036Z" fill="#B5DD65"/>
<path d="M22.6227 12.6849C22.6227 12.6849 22.8679 11.5804 21.6051 11.8504C20.3423 12.1204 18.3806 14.5504 18.3806 14.5504C18.3806 14.5504 20.4404 12.8322 21.3844 12.4886C22.3285 12.1449 22.6227 12.6849 22.6227 12.6849Z" fill="#B5DD65"/>
<path d="M24.9154 12.599C24.9154 12.599 25.0748 11.924 24.5476 11.8626C24.0204 11.8013 23.1377 12.8199 23.1377 12.8199C23.1377 12.8199 24.2166 12.1694 24.5231 12.3904C24.8296 12.6113 24.9154 12.599 24.9154 12.599Z" fill="#B5DD65"/>
<path d="M16.8848 18.7599C16.8848 18.7599 17.3507 17.0417 20.4158 15.7776C23.4809 14.5135 25.1361 14.9799 25.1361 14.9799C25.1361 14.9799 21.1147 15.6549 19.2143 16.8822C17.3139 18.1095 16.8848 18.7599 16.8848 18.7599Z" fill="#B5DD65"/>
<path d="M27.9805 17.1399C27.9805 17.1399 28.6303 16.5508 27.674 15.9127C26.7177 15.2745 25.0012 15.3849 25.0012 15.3849C25.0012 15.3849 27.1468 15.7899 27.6372 16.4649C28.1276 17.1399 27.9805 17.1399 27.9805 17.1399Z" fill="#B5DD65"/>
<path d="M25.2587 18.4899C25.2587 18.4899 25.9698 18.1217 25.0748 17.2258C24.1798 16.3299 22.9292 16.6735 22.9292 16.6735C22.9292 16.6735 24.4372 16.8945 24.8909 17.6554C25.3445 18.4163 25.2587 18.4899 25.2587 18.4899Z" fill="#B5DD65"/>
<path d="M29.2433 14.4399C29.2433 14.4399 29.7338 14.0104 28.8387 13.6422C27.9437 13.274 26.4112 14.2558 26.4112 14.2558C26.4112 14.2558 28.3116 13.7281 28.8387 14.0104C29.3659 14.2926 29.2433 14.4399 29.2433 14.4399Z" fill="#B5DD65"/>
<path d="M22.402 19.3122C22.402 19.3122 22.9538 19.1281 22.1814 18.2936C21.409 17.459 19.7293 17.8027 19.7293 17.8027C19.7293 17.8027 21.6909 18.1463 22.0342 18.6372C22.3775 19.1281 22.402 19.3122 22.402 19.3122Z" fill="#B5DD65"/>
<path d="M1.52263 42.9005C1.52263 42.9005 2.22147 44.4591 4.58772 45.1464C6.95397 45.8459 7.44439 45.76 7.44439 45.76C7.44439 45.76 4.90649 46.2509 3.15326 45.4287C1.40002 44.6064 1.40002 44.41 1.40002 44.41L1.64523 43.4282L1.52263 42.9005Z" fill="#5F062D"/>
<path d="M1.76778 46.6191C1.76778 46.6191 2.5034 47.6868 4.18307 48.055C5.86274 48.4232 5.9363 48.4232 5.9363 48.4232C5.9363 48.4232 4.01142 48.7055 2.78539 48.4232C1.55935 48.1409 1.71873 47.9323 1.71873 47.9323L1.76778 46.6191Z" fill="#5F062D"/>
<path d="M10.6321 48.6686C10.6321 48.6686 12.7531 49.3682 14.8374 49.3682C16.9217 49.3682 17.8657 49.1227 17.8657 49.1227C17.8657 49.1227 16.0266 50.2641 13.5378 49.8959C11.0489 49.5277 10.6321 48.6686 10.6321 48.6686Z" fill="#5F062D"/>
<path d="M14.9232 51.2828C14.9232 51.2828 16.1125 51.6141 18.2335 51.5282C20.3546 51.4423 20.7714 51.1232 20.7714 51.1232C20.7714 51.1232 19.9132 52.1909 17.5469 52.105C15.1807 52.0191 14.5186 51.2459 14.5186 51.2459L14.9232 51.2828Z" fill="#5F062D"/>
<path d="M31.3153 43.7595C31.3153 43.7595 29.8808 45.4777 27.723 45.6373C25.5529 45.7968 25.5529 45.7968 25.5529 45.7968C25.5529 45.7968 26.9383 46.3736 29.0226 46.0055C31.1069 45.6373 31.1069 45.4777 31.1069 45.4777L31.3153 43.7595Z" fill="#5F062D"/>
<path d="M30.7759 47.6009C30.7759 47.6009 30.1996 48.2146 28.9368 48.3005C27.674 48.3864 27.674 48.3864 27.674 48.3864C27.674 48.3864 28.9368 48.6686 29.7951 48.7177C30.6533 48.7546 30.9353 48.7177 30.9353 48.7177L30.7759 47.6009Z" fill="#5F062D"/>
<path d="M29.513 35.0827C29.513 35.0827 29.3904 35.9418 27.8824 36.3959C26.3744 36.85 26.3253 36.85 26.3253 36.85C26.3253 36.85 27.8334 37.0586 29.0226 36.6904C30.2119 36.3222 30.2119 36.3222 30.2119 36.3222L29.513 35.0827Z" fill="#5F062D"/>
<path d="M3.60683 34.1009C3.60683 34.1009 3.72943 34.96 5.23746 35.4141C6.74549 35.8681 6.79453 35.8682 6.79453 35.8682C6.79453 35.8682 5.2865 36.0768 4.09725 35.7086C2.90799 35.3404 2.90799 35.3404 2.90799 35.3404L3.60683 34.1009Z" fill="#5F062D"/>
<path d="M2.38086 43.2195C2.38086 43.2195 2.87127 43.9927 4.46512 44.6064C6.05897 45.22 6.34096 45.22 6.34096 45.22C6.34096 45.22 3.76628 44.9745 3.11648 44.3241C2.46668 43.6736 2.38086 43.2195 2.38086 43.2195Z" fill="#FBC276"/>
<path d="M6.30413 35.365C6.30413 35.365 5.16392 35.0336 4.71028 34.6654C4.25665 34.2972 4.09726 34.2604 4.09726 34.2604C4.09726 34.2604 4.06048 34.7882 5.11487 35.2791C6.18153 35.7823 6.30413 35.365 6.30413 35.365Z" fill="#FBC276"/>
<path d="M10.7914 48.1287C10.7914 48.1287 12.1033 48.9877 14.6289 49.1105C17.1668 49.2332 17.8166 48.7055 17.8166 48.7055C17.8166 48.7055 14.347 48.9141 12.7899 48.6686C11.2819 48.4232 10.7914 48.1287 10.7914 48.1287Z" fill="#FBC276"/>
<path d="M15.4994 51.0005C15.4994 51.0005 16.6887 51.5773 18.6013 51.3318C20.5262 51.0864 20.4771 50.8777 20.4771 50.8777C20.4771 50.8777 17.8657 51.2827 16.799 51.0864C15.7446 50.8777 15.4994 51.0005 15.4994 51.0005Z" fill="#FBC276"/>
<path d="M25.7123 45.4286C25.7123 45.4286 27.1468 45.7109 28.5322 45.22C29.9176 44.7291 30.2487 44.2382 30.2487 44.2382C30.2487 44.2382 28.618 45.0604 27.1468 45.22C25.6756 45.3795 25.7123 45.4286 25.7123 45.4286Z" fill="#FBC276"/>
<path d="M26.3253 36.3468C26.3253 36.3468 27.343 36.5554 28.0786 36.1382C28.8142 35.7332 28.9 35.5245 28.9 35.5245L26.3253 36.3468Z" fill="#FBC276"/>
</svg>
