<svg width="72" height="37" viewBox="0 0 72 37" fill="none" xmlns="http://www.w3.org/2000/svg">
<path d="M48.8908 18.5767C48.8908 18.5767 49.0478 16.1134 48.6815 14.5935C48.3152 13.0736 48.1582 12.5495 48.1582 12.5495C48.1582 12.5495 50.4607 12.4447 51.3504 10.3483C52.24 8.25186 51.4027 7.67535 51.4027 7.67535C51.4027 7.67535 51.0887 8.77596 49.8851 8.04222C48.6815 7.30847 49.8328 5.26447 52.083 5.63134C54.3332 5.99821 56.7404 6.62714 59.4616 4.84519C62.1828 3.06324 62.4444 1.12405 62.4444 1.12405C62.4444 1.12405 62.9677 5.00242 66.0029 6.99401C69.0381 8.9856 71.2883 8.9856 71.2883 8.9856L68.2008 10.5579C68.2008 10.5579 64.6423 12.3923 64.5376 14.2266C64.433 16.061 65.2703 16.4279 65.2703 16.4279C65.2703 16.4279 63.491 16.5851 62.0781 16.5851C60.6652 16.5851 60.6652 16.5851 60.6652 16.5851C60.6652 16.5851 58.415 16.6375 57.1067 18.8387C55.7985 21.04 56.1648 22.7171 56.1648 22.7171L54.4379 21.1972C54.4379 21.1972 52.5016 19.3628 50.9841 18.8387C49.4665 18.3146 49.4665 18.3146 49.4665 18.3146L48.8908 18.5767Z" fill="#B566B7"/>
<path d="M48.3885 13.147C48.3885 13.147 49.8851 13.0736 51.1411 11.3965C52.397 9.71935 51.455 7.06738 51.455 7.06738C51.455 7.06738 51.8423 9.61452 50.5864 11.0191C49.3304 12.4132 47.8966 12.0673 47.8966 12.0673L48.3885 13.147Z" fill="#5F062D"/>
<path d="M51.4863 7.06739C51.4863 7.06739 51.9364 8.39861 50.7223 8.77596C49.4978 9.1638 48.4198 7.27703 49.571 6.01918C50.7223 4.76133 51.8736 5.21206 53.9668 5.77809C56.06 6.33364 58.6452 5.49508 60.3825 3.81795C62.1304 2.14081 62.549 0.117775 62.549 0.117775C62.549 0.117775 63.4177 3.0842 61.0523 6.124C58.6451 9.19524 55.5786 8.92271 55.5786 8.92271C55.5786 8.92271 59.315 7.42378 60.529 5.49508C61.7536 3.57686 61.8582 2.94793 61.8582 2.94793C61.8582 2.94793 60.1104 5.91436 56.9392 6.51184C53.7679 7.10931 52.0201 5.64182 50.7642 6.01918C49.5082 6.40702 49.6443 7.8745 50.1676 8.01077C50.6909 8.14704 50.9316 8.22041 51.2142 7.62294C51.4968 7.02546 51.4863 7.06739 51.4863 7.06739Z" fill="#5F062D"/>
<path d="M55.5682 8.84933C55.5682 8.84933 61.4292 9.86609 65.825 9.65644C70.2207 9.4468 72 8.71306 72 8.71306C72 8.71306 69.5195 11.1554 63.4492 11.7214C57.3788 12.277 54.8356 11.061 54.8356 11.061C54.8356 11.061 61.4292 11.407 64.119 10.9877C66.8088 10.5684 68.3368 10.1177 68.3368 10.1177C68.3368 10.1177 64.8098 10.8514 60.4873 10.191C56.1648 9.53066 54.9088 8.72354 54.9088 8.72354L55.5682 8.84933Z" fill="#5F062D"/>
<path d="M54.9402 10.7676C54.9402 10.7676 57.4207 13.5977 61.3559 14.9604C65.3016 16.3231 67.0809 16.5327 67.0809 16.5327C67.0809 16.5327 63.2398 17.8954 58.7813 16.082C54.3122 14.2686 53.2656 12.3399 53.2656 12.3399C53.2656 12.3399 56.7927 14.887 59.5767 15.6627C62.3711 16.4279 63.5538 16.3231 63.5538 16.3231C63.5538 16.3231 59.922 15.8723 57.4102 13.734C54.9088 11.6061 54.9402 10.7676 54.9402 10.7676Z" fill="#5F062D"/>
<path d="M53.5483 12.1617C53.5483 12.1617 53.2343 12.7172 53.9669 16.5956C54.6996 20.4739 57.4207 24.0064 57.4207 24.0064C57.4207 24.0064 55.4008 23.2727 53.3704 20.0232C51.3504 16.7738 51.3504 14.1847 51.3504 14.1847C51.3504 14.1847 50.6492 15.0547 49.8119 15.474C48.9746 15.8933 48.8699 15.8933 48.8699 15.8933L48.692 14.7088C48.692 14.7088 49.6654 14.887 50.8166 13.9751C51.9679 13.0631 51.8946 13.105 51.8946 13.105C51.8946 13.105 51.6539 15.5159 53.0145 18.2413C54.3751 20.9666 55.0764 21.4173 55.0764 21.4173C55.0764 21.4173 53.3285 18.4823 53.0564 15.3063C52.7738 12.1302 53.5064 11.5327 53.5064 11.5327L53.5483 12.1617Z" fill="#5F062D"/>
<path d="M48.9431 18.9121C48.9431 18.9121 49.9583 18.8387 51.6642 19.5725C53.3702 20.3062 55.1181 22.193 55.1181 22.193L53.9982 20.4844C53.9982 20.4844 53.3388 19.6144 51.4863 18.7758C49.6338 17.9373 49.0058 18.0421 49.0058 18.0421L48.9431 18.9121Z" fill="#5F062D"/>
<path d="M61.5339 16.8786C61.5339 16.8786 59.5139 16.4593 57.8707 18.6291C56.2275 20.7989 56.4055 21.8052 56.4787 22.476C56.552 23.1364 56.552 23.1364 56.552 23.1364L55.924 21.91C55.924 21.91 55.6414 20.3691 56.9706 18.4195C58.2998 16.4593 59.7232 16.4279 60.393 16.4279C61.0524 16.4279 62.5177 16.6375 62.5177 16.6375L61.5339 16.8786Z" fill="#5F062D"/>
<path d="M69.6346 10.1701C69.6346 10.1701 67.3635 10.9353 65.7308 12.7591C64.0876 14.5725 64.9249 15.7675 65.2389 15.9771C65.5528 16.1868 66.1075 16.5327 66.1075 16.5327L64.7784 16.2497C64.7784 16.2497 63.3445 15.7989 64.119 13.8702C64.883 11.952 66.1076 11.4594 67.0809 10.8619C68.0542 10.2644 69.7288 9.67741 69.7288 9.67741L69.6346 10.1701Z" fill="#5F062D"/>
<path d="M71.7906 8.67114C71.7906 8.67114 67.8449 8.59777 65.0923 5.87243C62.3397 3.14709 62.863 -0.102349 62.6851 0.00247173C62.5072 0.107292 61.9211 4.16385 64.3597 6.46991C66.7983 8.77596 68.9648 8.95416 69.8335 9.09042C70.7021 9.22669 71.058 9.22669 71.058 9.22669L71.7906 8.67114Z" fill="#5F062D"/>
<path d="M62.3921 1.75297C62.3921 1.75297 62.1304 5.00241 59.9849 6.73196C57.8393 8.4615 55.7984 8.93319 55.7984 8.93319C55.7984 8.93319 60.4558 10.0862 65.1656 9.9814C69.8753 9.87658 71.3929 8.77596 71.3929 8.77596C71.3929 8.77596 67.3111 8.61873 64.8516 6.15544C62.3921 3.69216 62.4444 1.17646 62.4444 1.17646L62.3921 1.75297Z" fill="#5F062D" fill-opacity="0.47"/>
<path d="M55.2228 11.1344C55.2228 11.1344 59.8802 11.7633 63.3864 11.3441C66.8925 10.9248 67.9391 10.5579 67.9391 10.5579C67.9391 10.5579 64.5376 12.4971 64.433 14.2266C64.3283 15.9562 65.1133 16.3755 65.1133 16.3755C65.1133 16.3755 61.5548 15.6417 58.8859 14.279C56.2171 12.9164 55.2228 11.1344 55.2228 11.1344Z" fill="#5F062D" fill-opacity="0.47"/>
<path d="M53.3912 12.3923C53.3912 12.3923 54.9611 13.9122 57.473 15.0652C59.9848 16.2182 60.9791 16.3755 60.9791 16.3755C60.9791 16.3755 58.2579 16.7947 57.0543 19.2056C55.8507 21.6165 56.06 22.5599 56.06 22.5599C56.06 22.5599 54.4378 20.2014 53.7052 16.6899C52.9725 13.1784 53.3912 12.3923 53.3912 12.3923Z" fill="#5F062D" fill-opacity="0.47"/>
<path d="M51.6643 13.9122C51.6643 13.9122 51.769 16.1134 52.7109 18.105C53.6529 20.0966 53.9668 20.6207 53.9668 20.6207C53.9668 20.6207 52.3446 19.2056 50.9317 18.7863C49.5188 18.3671 48.8908 18.3146 48.8908 18.3146L48.7338 15.4321C48.7338 15.4321 49.6234 15.6417 50.5654 14.5935C51.5073 13.5453 51.6643 13.9122 51.6643 13.9122Z" fill="#5F062D" fill-opacity="0.47"/>
<path d="M60.6128 4.68794C60.6128 4.68794 59.4615 6.31266 56.688 6.67954C53.9145 7.04641 52.3969 6.36507 52.3969 6.36507C52.3969 6.36507 54.8041 7.72774 57.4206 7.04641C60.0372 6.36507 60.6128 4.68794 60.6128 4.68794Z" fill="white" fill-opacity="0.4"/>
<path d="M55.2752 9.03801C55.2752 9.03801 56.8974 10.0862 60.9792 10.3483C65.061 10.6103 65.375 10.5579 65.375 10.5579C65.375 10.5579 61.0315 11.1344 58.5197 10.5055C56.0078 9.87657 55.2752 9.03801 55.2752 9.03801Z" fill="white" fill-opacity="0.4"/>
<path d="M54.6995 10.9248C54.6995 10.9248 55.8508 13.0736 57.9963 14.3314C60.1419 15.5893 60.8745 15.6941 60.8745 15.6941C60.8745 15.6941 57.4207 14.8031 56.0078 13.2832C54.5948 11.7633 54.6995 10.9248 54.6995 10.9248Z" fill="white" fill-opacity="0.4"/>
<path d="M53.0248 11.9206C53.0248 11.9206 52.5015 14.4887 53.0248 16.4279C53.5481 18.367 53.5481 18.367 53.5481 18.367C53.5481 18.367 52.3969 16.323 52.5539 14.279C52.7109 12.235 53.0248 11.9206 53.0248 11.9206Z" fill="white" fill-opacity="0.4"/>
<path d="M50.0421 7.36089C50.0421 7.36089 49.9897 6.36509 50.8793 6.26027C51.769 6.15545 51.769 6.4175 51.3503 6.73196C50.9317 7.04642 50.8793 7.78017 50.4607 7.78017C50.0421 7.78017 50.0421 7.36089 50.0421 7.36089Z" fill="white" fill-opacity="0.4"/>
<path d="M49.4141 12.235C49.4141 12.235 50.0421 13.7549 50.1991 15.9038C50.356 18.0526 50.1467 18.6815 50.1467 18.6815L48.8908 18.4194C48.8908 18.4194 48.4721 15.5893 48.3675 14.1742C48.2628 12.7591 48.1058 12.6019 48.1058 12.6019L49.4141 12.235Z" fill="#5F062D" fill-opacity="0.38"/>
<path d="M23.9815 18.5767C23.9815 18.5767 23.8245 16.1134 24.1908 14.5935C24.5571 13.0736 24.7141 12.5495 24.7141 12.5495C24.7141 12.5495 22.4116 12.4447 21.5219 10.3483C20.6323 8.25186 21.4696 7.67535 21.4696 7.67535C21.4696 7.67535 21.7836 8.77596 22.9872 8.04222C24.1908 7.30847 23.0395 5.26447 20.7893 5.63134C18.5391 5.99821 16.1319 6.62714 13.4107 4.84519C10.6895 3.06324 10.4279 1.12405 10.4279 1.12405C10.4279 1.12405 9.90456 5.00242 6.8694 6.99401C3.83423 8.9856 1.58401 8.9856 1.58401 8.9856L4.67151 10.5579C4.67151 10.5579 8.22999 12.3923 8.33465 14.2266C8.43931 16.061 7.60202 16.4279 7.60202 16.4279C7.60202 16.4279 9.38126 16.5851 10.7942 16.5851C12.2071 16.5851 12.2071 16.5851 12.2071 16.5851C12.2071 16.5851 14.4573 16.6375 15.7656 18.8387C17.0738 21.04 16.7075 22.7171 16.7075 22.7171L18.4344 21.1972C18.4344 21.1972 20.3707 19.3628 21.8883 18.8387C23.4058 18.3146 23.4058 18.3146 23.4058 18.3146L23.9815 18.5767Z" fill="#B566B7"/>
<path d="M24.4838 13.147C24.4838 13.147 22.9871 13.0736 21.7312 11.3965C20.4752 9.71935 21.4172 7.06738 21.4172 7.06738C21.4172 7.06738 21.03 9.61452 22.2859 11.0191C23.5418 12.4132 24.9757 12.0673 24.9757 12.0673L24.4838 13.147Z" fill="#5F062D"/>
<path d="M21.3858 7.06739C21.3858 7.06739 20.9358 8.39861 22.1499 8.77596C23.3744 9.1638 24.4524 7.27703 23.3011 6.01918C22.1499 4.76133 20.9986 5.21206 18.9054 5.77809C16.8121 6.33364 14.227 5.49508 12.4896 3.81795C10.7418 2.14081 10.3232 0.117775 10.3232 0.117775C10.3232 0.117775 9.45448 3.0842 11.8198 6.124C14.227 9.19524 17.2936 8.92271 17.2936 8.92271C17.2936 8.92271 13.5572 7.42378 12.3431 5.49508C11.1186 3.57686 11.0139 2.94793 11.0139 2.94793C11.0139 2.94793 12.7618 5.91436 15.933 6.51184C19.1042 7.10931 20.8521 5.64182 22.108 6.01918C23.3639 6.40702 23.2279 7.8745 22.7046 8.01077C22.1813 8.14704 21.9405 8.22041 21.658 7.62294C21.3754 7.02546 21.3858 7.06739 21.3858 7.06739Z" fill="#5F062D"/>
<path d="M17.3041 8.84933C17.3041 8.84933 11.4431 9.86609 7.04731 9.65644C2.65155 9.4468 0.872314 8.71306 0.872314 8.71306C0.872314 8.71306 3.35279 11.1554 9.42313 11.7214C15.4935 12.277 18.0367 11.061 18.0367 11.061C18.0367 11.061 11.4431 11.407 8.75329 10.9877C6.06351 10.5684 4.53545 10.1177 4.53545 10.1177C4.53545 10.1177 8.06253 10.8514 12.385 10.191C16.7075 9.53066 17.9635 8.72354 17.9635 8.72354L17.3041 8.84933Z" fill="#5F062D"/>
<path d="M17.9321 10.7676C17.9321 10.7676 15.4516 13.5977 11.5163 14.9604C7.57063 16.3231 5.79138 16.5327 5.79138 16.5327C5.79138 16.5327 9.63245 17.8954 14.091 16.082C18.56 14.2686 19.6066 12.3399 19.6066 12.3399C19.6066 12.3399 16.0796 14.887 13.2956 15.6627C10.5011 16.4279 9.31847 16.3231 9.31847 16.3231C9.31847 16.3231 12.9502 15.8723 15.4621 13.734C17.9635 11.6061 17.9321 10.7676 17.9321 10.7676Z" fill="#5F062D"/>
<path d="M19.324 12.1617C19.324 12.1617 19.638 12.7172 18.9054 16.5956C18.1727 20.4739 15.4515 24.0064 15.4515 24.0064C15.4515 24.0064 17.4715 23.2727 19.5019 20.0232C21.5219 16.7738 21.5219 14.1847 21.5219 14.1847C21.5219 14.1847 22.2231 15.0547 23.0604 15.474C23.8977 15.8933 24.0023 15.8933 24.0023 15.8933L24.1803 14.7088C24.1803 14.7088 23.2069 14.887 22.0556 13.9751C20.9044 13.0631 20.9776 13.105 20.9776 13.105C20.9776 13.105 21.2184 15.5159 19.8578 18.2413C18.4972 20.9666 17.7959 21.4173 17.7959 21.4173C17.7959 21.4173 19.5438 18.4823 19.8159 15.3063C20.0985 12.1302 19.3659 11.5327 19.3659 11.5327L19.324 12.1617Z" fill="#5F062D"/>
<path d="M23.9292 18.9121C23.9292 18.9121 22.914 18.8387 21.208 19.5725C19.502 20.3062 17.7542 22.193 17.7542 22.193L18.874 20.4844C18.874 20.4844 19.5334 19.6144 21.3859 18.7758C23.2384 17.9373 23.8664 18.0421 23.8664 18.0421L23.9292 18.9121Z" fill="#5F062D"/>
<path d="M11.3385 16.8786C11.3385 16.8786 13.3584 16.4593 15.0016 18.6291C16.6448 20.7989 16.4669 21.8052 16.3936 22.476C16.3203 23.1364 16.3204 23.1364 16.3204 23.1364L16.9483 21.91C16.9483 21.91 17.2309 20.3691 15.9017 18.4195C14.5725 16.4593 13.1491 16.4279 12.4793 16.4279C11.8199 16.4279 10.3547 16.6375 10.3547 16.6375L11.3385 16.8786Z" fill="#5F062D"/>
<path d="M3.23769 10.1701C3.23769 10.1701 5.50883 10.9353 7.14154 12.7591C8.78472 14.5725 7.94744 15.7675 7.63345 15.9771C7.31947 16.1868 6.76476 16.5327 6.76476 16.5327L8.09395 16.2497C8.09395 16.2497 9.52781 15.7989 8.75332 13.8702C7.9893 11.952 6.76476 11.4594 5.79141 10.8619C4.81806 10.2644 3.14349 9.67741 3.14349 9.67741L3.23769 10.1701Z" fill="#5F062D"/>
<path d="M1.08157 8.67114C1.08157 8.67114 5.02729 8.59777 7.77988 5.87243C10.5325 3.14709 10.0092 -0.102349 10.1871 0.00247173C10.365 0.107292 10.9511 4.16385 8.51251 6.46991C6.0739 8.77596 3.90743 8.95416 3.03874 9.09042C2.17006 9.22669 1.8142 9.22669 1.8142 9.22669L1.08157 8.67114Z" fill="#5F062D"/>
<path d="M10.4802 1.75297C10.4802 1.75297 10.7419 5.00241 12.8875 6.73196C15.033 8.4615 17.0739 8.93319 17.0739 8.93319C17.0739 8.93319 12.4165 10.0862 7.70673 9.9814C2.99699 9.87658 1.4794 8.77596 1.4794 8.77596C1.4794 8.77596 5.56118 8.61873 8.02071 6.15544C10.4802 3.69216 10.4279 1.17646 10.4279 1.17646L10.4802 1.75297Z" fill="#5F062D" fill-opacity="0.47"/>
<path d="M17.6494 11.1344C17.6494 11.1344 12.992 11.7633 9.48589 11.3441C5.97975 10.9248 4.93314 10.5579 4.93314 10.5579C4.93314 10.5579 8.33462 12.4971 8.43928 14.2266C8.54394 15.9562 7.75898 16.3755 7.75898 16.3755C7.75898 16.3755 11.3175 15.6417 13.9863 14.279C16.6552 12.9164 17.6494 11.1344 17.6494 11.1344Z" fill="#5F062D" fill-opacity="0.47"/>
<path d="M19.4811 12.3923C19.4811 12.3923 17.9111 13.9122 15.3993 15.0652C12.8874 16.2182 11.8931 16.3755 11.8931 16.3755C11.8931 16.3755 14.6143 16.7947 15.8179 19.2056C17.0215 21.6165 16.8122 22.5599 16.8122 22.5599C16.8122 22.5599 18.4344 20.2014 19.1671 16.6899C19.8997 13.1784 19.4811 12.3923 19.4811 12.3923Z" fill="#5F062D" fill-opacity="0.47"/>
<path d="M21.2079 13.9122C21.2079 13.9122 21.1033 16.1134 20.1613 18.105C19.2194 20.0966 18.9054 20.6207 18.9054 20.6207C18.9054 20.6207 20.5276 19.2056 21.9406 18.7863C23.3535 18.3671 23.9815 18.3146 23.9815 18.3146L24.1384 15.4321C24.1384 15.4321 23.2488 15.6417 22.3069 14.5935C21.3649 13.5453 21.2079 13.9122 21.2079 13.9122Z" fill="#5F062D" fill-opacity="0.47"/>
<path d="M12.2595 4.68794C12.2595 4.68794 13.4108 6.31266 16.1843 6.67954C18.9578 7.04641 20.4754 6.36507 20.4754 6.36507C20.4754 6.36507 18.0682 7.72774 15.4517 7.04641C12.8351 6.36507 12.2595 4.68794 12.2595 4.68794Z" fill="white" fill-opacity="0.4"/>
<path d="M17.5971 9.03801C17.5971 9.03801 15.9749 10.0862 11.8931 10.3483C7.8113 10.6103 7.49731 10.5579 7.49731 10.5579C7.49731 10.5579 11.8407 11.1344 14.3526 10.5055C16.8645 9.87657 17.5971 9.03801 17.5971 9.03801Z" fill="white" fill-opacity="0.4"/>
<path d="M18.1728 10.9248C18.1728 10.9248 17.0215 13.0736 14.8759 14.3314C12.7304 15.5893 11.9978 15.6941 11.9978 15.6941C11.9978 15.6941 15.4516 14.8031 16.8645 13.2832C18.2774 11.7633 18.1728 10.9248 18.1728 10.9248Z" fill="white" fill-opacity="0.4"/>
<path d="M19.8474 11.9206C19.8474 11.9206 20.3707 14.4887 19.8474 16.4279C19.3241 18.367 19.3241 18.367 19.3241 18.367C19.3241 18.367 20.4754 16.323 20.3184 14.279C20.1614 12.235 19.8474 11.9206 19.8474 11.9206Z" fill="white" fill-opacity="0.4"/>
<path d="M22.8301 7.36089C22.8301 7.36089 22.8824 6.36509 21.9928 6.26027C21.1032 6.15545 21.1032 6.4175 21.5219 6.73196C21.9405 7.04642 21.9928 7.78017 22.4115 7.78017C22.8301 7.78017 22.8301 7.36089 22.8301 7.36089Z" fill="white" fill-opacity="0.4"/>
<path d="M23.4582 12.235C23.4582 12.235 22.8302 13.7549 22.6732 15.9038C22.5162 18.0526 22.7256 18.6815 22.7256 18.6815L23.9815 18.4194C23.9815 18.4194 24.4001 15.5893 24.5048 14.1742C24.6095 12.7591 24.7664 12.6019 24.7664 12.6019L23.4582 12.235Z" fill="#5F062D" fill-opacity="0.38"/>
<path d="M27.519 28.5137C27.519 28.5137 23.364 29.1741 23.1965 30.2642C23.0186 31.3438 28.6389 32.1195 28.6389 32.1195C28.6389 32.1195 29.2669 32.9581 30.9728 33.0315C32.6788 33.1048 33.1393 32.5807 33.1393 32.5807C33.1393 32.5807 35.0965 32.6855 37.1164 32.6855C39.1364 32.6855 40.0155 32.5493 40.0155 32.5493C40.0155 32.5493 40.2563 33.283 42.0774 33.2516C43.888 33.2201 44.9032 32.2767 44.9032 32.2767C44.9032 32.2767 48.8489 31.826 49.8223 31.3019C50.7956 30.7778 50.7956 30.7044 50.7956 30.7044C50.7956 30.7044 52.5435 30.9455 52.9935 31.5744C53.4435 32.2034 52.4702 32.9371 52.4702 32.9371C52.4702 32.9371 48.4722 34.3208 48.3152 35.0021C48.0535 36.0503 49.1001 37.0985 52.7633 36.4172C56.3741 35.7358 57.2637 32.9057 56.9497 31.8575C56.7404 31.1761 53.6529 27.8009 49.9897 27.3816C46.3266 26.9623 30.7007 27.9372 30.7007 27.9372L27.519 28.5137Z" fill="#260212" fill-opacity="0.27"/>
<path d="M32.0927 30.5787C32.0927 30.5787 32.0927 32.5702 30.1774 31.8365C28.2621 31.1028 27.4248 28.2726 27.4248 28.2726C27.4248 28.2726 24.3896 26.564 23.9396 21.04C23.4895 15.5159 24.6408 12.5809 24.6408 12.5809L25.5095 10.2434C25.5095 10.2434 24.5362 5.80953 24.7455 3.01082C24.9548 0.212111 25.8968 0.35886 27.7493 0.778142C29.6018 1.19743 32.1764 2.87456 32.1764 2.87456C32.1764 2.87456 34.7197 2.73829 35.6302 2.14081C36.5408 1.54333 36.8548 1.16598 36.8548 1.16598V2.27708C36.8548 2.27708 37.556 2.03599 37.9746 1.8578C38.3933 1.6796 38.3933 1.6796 38.3933 1.6796L38.32 2.3819C38.32 2.3819 39.3352 2.35045 39.8585 2.59154C40.3818 2.83263 40.6958 2.83263 40.6958 2.83263C40.6958 2.83263 45.8556 -0.343438 47.2162 0.599948C48.5768 1.54333 48.2942 6.50135 48.0221 8.07366C47.7395 9.64597 47.4674 10.2015 47.4674 10.2015C47.4674 10.2015 49.592 14.7088 49.142 19.7088C48.6919 24.7087 47.3627 26.4173 47.3627 26.4173C47.3627 26.4173 53.4017 26.3439 56.0496 29.2474C58.6975 32.151 55.7356 34.9811 52.7004 35.327C49.6653 35.6729 48.7966 35.5052 48.4826 34.2474C48.1686 32.9895 50.3351 32.9162 51.3817 32.7799C52.4283 32.6436 53.1295 32.2243 53.2342 31.6583C53.3389 31.1028 52.2923 30.6416 52.2923 30.6416C52.2923 30.6416 49.9165 29.6248 47.8232 29.4571C45.73 29.2789 45.1334 29.3837 45.1334 29.3837C45.1334 29.3837 44.1601 31.4067 42.2762 31.8994C40.3923 32.3921 40.8423 30.6101 40.8423 30.6101C40.8423 30.6101 37.7339 31.5535 35.2639 31.2076C32.7625 30.8617 32.0927 30.5787 32.0927 30.5787Z" fill="#D2A3D3"/>
<path d="M29.4761 4.55167C29.4761 4.55167 27.0689 1.93116 26.127 1.58525C25.185 1.23934 25.049 1.93116 25.049 1.93116C25.049 1.93116 24.4524 4.16384 24.9129 6.57471C25.363 8.98559 25.8235 9.47825 25.8235 9.47825C25.8235 9.47825 26.9747 7.38183 27.9899 6.19736C29.0052 5.01289 29.4761 4.55167 29.4761 4.55167Z" fill="#B566B7"/>
<path d="M43.396 4.55167C43.396 4.55167 45.8032 1.93116 46.7452 1.58525C47.6871 1.23934 47.8232 1.93116 47.8232 1.93116C47.8232 1.93116 48.4198 4.16384 47.9592 6.57471C47.5092 8.98559 47.0487 9.47825 47.0487 9.47825C47.0487 9.47825 45.8974 7.38183 44.8822 6.19736C43.867 5.01289 43.396 4.55167 43.396 4.55167Z" fill="#B566B7"/>
<path d="M30.5751 17.5809C29.1622 17.5809 28.0109 16.9205 28.0109 16.1134C28.0109 15.3063 29.1622 14.6459 30.5751 14.6459C31.988 14.6459 33.1393 15.3063 33.1393 16.1134C33.1393 16.9205 31.988 17.5809 30.5751 17.5809Z" fill="#B566B7" fill-opacity="0.61"/>
<path d="M42.2971 17.5809C40.8842 17.5809 39.7329 16.9205 39.7329 16.1134C39.7329 15.3063 40.8842 14.6459 42.2971 14.6459C43.71 14.6459 44.8613 15.3063 44.8613 16.1134C44.8613 16.9205 43.71 17.5809 42.2971 17.5809Z" fill="#B566B7" fill-opacity="0.61"/>
<path d="M53.2657 31.4487C53.2657 31.4487 53.2971 30.6101 52.1667 29.7715C51.0364 28.933 48.1373 28.6185 48.1373 28.6185C48.1373 28.6185 48.0326 27.9057 48.4512 27.3607C48.8699 26.8156 49.2362 26.6793 49.2362 26.6793L47.5826 26.5431C47.5826 26.5431 46.1906 28.0944 45.908 28.4089C45.6254 28.7233 45.3847 29.3313 45.3847 29.3313C45.3847 29.3313 49.7804 29.3837 51.4341 30.2747C53.0877 31.1657 53.2657 31.4487 53.2657 31.4487Z" fill="#5F062D" fill-opacity="0.22"/>
<path d="M24.0339 18.6605C24.0339 18.6605 24.4525 22.5704 25.3945 24.0798C26.3364 25.5787 26.0957 24.7821 26.0957 24.7821C26.0957 24.7821 25.991 23.8387 26.3364 24.4362C26.6818 25.0336 28.7436 29.8135 29.9682 30.4424C31.1927 31.0713 31.5695 30.7568 31.7474 30.6206C31.9253 30.4843 31.9253 30.4843 31.9253 30.4843C31.9253 30.4843 32.1032 31.9518 30.8054 31.8784C29.5181 31.8051 28.0529 29.6038 27.5296 28.7338C27.0063 27.8638 27.0063 27.8638 27.0063 27.8638C27.0063 27.8638 25.541 26.9204 24.3897 23.4299C23.2385 19.9394 23.835 17.7381 23.835 17.7381L24.0339 18.6605Z" fill="#5F062D" fill-opacity="0.19"/>
<path d="M48.9745 18.6605C48.9745 18.6605 48.5559 22.5704 47.6139 24.0798C46.672 25.5787 46.9127 24.7821 46.9127 24.7821C46.9127 24.7821 47.0174 23.8387 46.672 24.4362C46.3266 25.0336 44.2648 29.8135 43.0402 30.4424C41.8157 31.0713 41.4389 30.7568 41.261 30.6206C41.0831 30.4843 41.0831 30.4843 41.0831 30.4843C41.0831 30.4843 40.9051 31.9518 42.2029 31.8784C43.4903 31.8051 44.9555 29.6038 45.4788 28.7338C46.0021 27.8638 46.0021 27.8638 46.0021 27.8638C46.0021 27.8638 47.4674 26.9204 48.6187 23.4299C49.7699 19.9394 49.1734 17.7381 49.1734 17.7381L48.9745 18.6605Z" fill="#5F062D" fill-opacity="0.19"/>
<path d="M31.3601 27.0147C31.3601 27.0147 32.8253 27.8533 36.3524 27.8848C39.8795 27.9162 41.6169 26.6269 41.6169 26.6269C41.6169 26.6269 40.9889 30.5053 40.6016 30.6835C40.2144 30.8617 37.7444 31.239 35.2325 31.0713C32.7207 30.8931 32.0613 30.5472 32.0613 30.5472L31.4333 27.7485L31.3601 27.0147Z" fill="#5F062D" fill-opacity="0.22"/>
<path d="M49.0268 33.4927C49.0268 33.4927 48.3675 34.5933 50.2828 34.6981C52.1981 34.8029 54.7832 34.2474 55.8612 32.5702C56.9392 30.8931 56.3636 30.0231 56.3636 30.0231C56.3636 30.0231 57.6509 32.1195 55.9659 33.849C54.2808 35.5786 50.7851 36.1027 49.1629 35.2117C47.5407 34.3207 48.6919 33.4507 48.6919 33.4507L49.0268 33.4927Z" fill="#5F062D" fill-opacity="0.17"/>
<path d="M29.3715 4.6565C29.3715 4.6565 26.7236 1.12405 26.0538 2.00454C25.3944 2.87455 27.1004 7.45522 27.1004 7.45522L28.5342 5.67326L29.2354 5.0129L29.3715 4.6565Z" fill="#5F062D" fill-opacity="0.31"/>
<path d="M43.6055 4.6565C43.6055 4.6565 46.2534 1.12405 46.9232 2.00454C47.5826 2.87455 45.8766 7.45522 45.8766 7.45522L44.4428 5.67326L43.7415 5.0129L43.6055 4.6565Z" fill="#5F062D" fill-opacity="0.31"/>
<path d="M34.008 2.45527C34.008 2.45527 29.5076 2.00454 25.7398 9.05897C21.972 16.1134 23.4058 23.9435 25.2897 26.7003C27.1736 29.4571 27.8016 29.6038 27.8016 29.6038L26.6189 26.9519C26.6189 26.9519 23.6151 24.2265 24.285 16.648C24.9443 9.06946 29.518 4.59361 31.2973 3.75505C33.0765 2.91648 34.0917 2.70684 34.6778 2.70684C35.2744 2.70684 35.2744 2.70684 35.2744 2.70684L34.008 2.45527Z" fill="#5F062D"/>
<path d="M25.9177 25.128C25.9177 25.128 27.1004 29.3942 28.3563 31.0294C29.6122 32.6751 31.4229 32.6331 32.1241 32.0461C32.8253 31.4487 32.302 30.5053 31.7787 27.9581C31.2554 25.411 31.538 24.9183 31.538 24.9183C31.538 24.9183 30.8786 25.8932 31.4019 28.6185C31.9252 31.3438 31.7892 31.5849 30.596 31.4801C29.4134 31.3753 28.1156 29.2055 27.1422 27.0043C26.1689 24.803 25.8863 24.4571 25.8863 24.4571L25.9177 25.128Z" fill="#5F062D"/>
<path d="M30.2088 30.5262C30.2088 30.5262 30.5018 31.2914 30.3448 31.6583C30.1878 32.0252 30.1878 32.0252 30.1878 32.0252L30.7635 32.0566C30.7635 32.0566 30.9728 31.4277 30.7111 30.977C30.4495 30.5262 30.2088 30.5262 30.2088 30.5262Z" fill="#5F062D"/>
<path d="M31.2555 30.5262C31.2555 30.5262 31.5485 31.2914 31.3915 31.6583C31.2345 32.0252 31.2345 32.0252 31.2345 32.0252L31.8102 32.0566C31.8102 32.0566 32.0195 31.4277 31.7578 30.977C31.4962 30.5262 31.2555 30.5262 31.2555 30.5262Z" fill="#5F062D"/>
<path d="M25.185 10.4531C24.7977 10.1072 24.0651 5.7047 24.421 2.93744C24.7349 0.138724 25.6769 0.138725 26.3049 0.138725C26.9328 0.107278 29.4447 0.736201 31.2239 1.63766C33.0032 2.58104 32.8043 2.79069 32.8043 2.79069L31.831 3.13659C31.831 3.13659 28.9528 1.61669 27.3829 1.11356C25.813 0.610416 25.656 0.903914 25.2582 2.03598C24.8605 3.16804 25.2583 6.64809 25.5513 7.78015C25.8444 8.91221 26.0014 9.12185 26.0014 9.12185L25.6036 10.1177L25.185 10.4531Z" fill="#5F062D"/>
<path d="M26.4409 1.85779C26.4409 1.85779 27.8748 3.18902 28.4609 4.09047C29.0575 5.00241 28.8481 5.17013 28.8481 5.17013L29.8215 4.22674C29.8215 4.22674 28.8795 2.75925 27.4875 1.99406C26.0955 1.22887 25.8444 1.5014 25.8444 1.5014L26.4409 1.85779Z" fill="#5F062D"/>
<path d="M38.9689 2.45527C38.9689 2.45527 43.4694 2.00454 47.2372 9.05897C51.005 16.1134 49.5711 23.9435 47.6872 26.7003C45.8033 29.4571 45.1753 29.6038 45.1753 29.6038L46.358 26.9519C46.358 26.9519 49.3618 24.2265 48.692 16.648C48.0326 9.06946 43.4589 4.59361 41.6797 3.75505C39.9004 2.91648 38.8852 2.70684 38.2991 2.70684C37.7026 2.70684 37.7025 2.70684 37.7025 2.70684L38.9689 2.45527Z" fill="#5F062D"/>
<path d="M47.0593 25.128C47.0593 25.128 45.8766 29.3942 44.6207 31.0294C43.3648 32.6751 41.5541 32.6331 40.8529 32.0461C40.1517 31.4487 40.675 30.5053 41.1983 27.9581C41.7216 25.411 41.439 24.9183 41.439 24.9183C41.439 24.9183 42.0984 25.8932 41.5751 28.6185C41.0518 31.3438 41.1878 31.5849 42.381 31.4801C43.5636 31.3753 44.8614 29.2055 45.8348 27.0043C46.8081 24.803 47.0907 24.4571 47.0907 24.4571L47.0593 25.128Z" fill="#5F062D"/>
<path d="M42.7681 30.5262C42.7681 30.5262 42.475 31.2914 42.632 31.6583C42.789 32.0252 42.789 32.0252 42.789 32.0252L42.2134 32.0566C42.2134 32.0566 42.0041 31.4277 42.2657 30.977C42.5274 30.5262 42.7681 30.5262 42.7681 30.5262Z" fill="#5F062D"/>
<path d="M41.7215 30.5262C41.7215 30.5262 41.4285 31.2914 41.5855 31.6583C41.7425 32.0252 41.7425 32.0252 41.7425 32.0252L41.1668 32.0566C41.1668 32.0566 40.9575 31.4277 41.2192 30.977C41.4808 30.5262 41.7215 30.5262 41.7215 30.5262Z" fill="#5F062D"/>
<path d="M47.7918 10.4531C48.179 10.1072 48.9117 5.7047 48.5558 2.93744C48.2418 0.138724 47.2999 0.138725 46.6719 0.138725C46.044 0.107278 43.5321 0.736201 41.7529 1.63766C39.9736 2.58104 40.1725 2.79069 40.1725 2.79069L41.1458 3.13659C41.1458 3.13659 44.024 1.61669 45.5939 1.11356C47.1638 0.610416 47.3208 0.903914 47.7185 2.03598C48.1162 3.16804 47.7185 6.64809 47.4255 7.78015C47.1324 8.91221 46.9754 9.12185 46.9754 9.12185L47.3732 10.1177L47.7918 10.4531Z" fill="#5F062D"/>
<path d="M46.5359 1.85779C46.5359 1.85779 45.102 3.18902 44.5159 4.09047C43.9193 5.00241 44.1287 5.17013 44.1287 5.17013L43.1553 4.22674C43.1553 4.22674 44.0973 2.75925 45.4892 1.99406C46.8812 1.22887 47.1324 1.5014 47.1324 1.5014L46.5359 1.85779Z" fill="#5F062D"/>
<path d="M32.1241 31.1342C32.1241 31.1342 33.7673 31.6268 36.4466 31.6268C39.1364 31.6268 40.8424 31.0713 40.8424 31.0713L41.0517 30.0231C41.0517 30.0231 39.3457 30.8302 36.4466 30.8617C33.5475 30.8931 31.9776 30.0965 31.9776 30.0965L32.1241 31.1342Z" fill="#5F062D"/>
<path d="M32.3019 2.69635C33.6939 2.30851 35.0545 2.41334 35.9965 1.57477C36.9384 0.736205 37.0431 0.495117 37.0431 0.495117C37.0431 0.495117 37.3885 1.46995 37.0117 2.45526C36.6244 3.4301 36.1011 3.60829 36.1011 3.60829C36.1011 3.60829 36.4884 2.73828 36.5512 2.27707C36.6244 1.82634 36.6244 1.82634 36.6244 1.82634C36.6244 1.82634 35.9651 2.6649 34.4998 2.87455C33.0346 3.08419 32.0612 3.29383 32.0612 3.29383L32.3019 2.69635Z" fill="#5F062D"/>
<path d="M37.1164 1.80538C37.1164 1.80538 37.2315 2.01503 37.87 1.62719C38.5084 1.23935 38.6549 1.07164 38.6549 1.07164C38.6549 1.07164 38.7386 2.22467 38.2677 2.74877C37.7967 3.27287 37.3467 3.27287 37.3467 3.27287C37.3467 3.27287 38.0479 2.50768 38.1316 2.22467C38.2153 1.94165 37.7653 2.32949 37.2106 2.46576C36.6559 2.60202 36.6768 2.57058 36.6768 2.57058L36.8443 1.52237L37.1164 1.80538Z" fill="#5F062D"/>
<path d="M38.5817 2.09888C38.5817 2.09888 39.7016 2.13032 40.3924 2.44479C41.0936 2.75925 41.125 2.79069 41.125 2.79069L41.2297 3.3148C41.2297 3.3148 38.6131 2.65443 38.2992 2.68587C37.9852 2.71732 37.9852 2.71732 37.9852 2.71732L38.5817 2.09888Z" fill="#5F062D"/>
<path d="M45.3533 29.8135C45.3533 29.8135 48.0012 29.499 50.555 30.369C53.0982 31.239 53.1401 31.9413 53.1401 31.9413C53.1401 31.9413 53.7366 30.6835 51.3608 29.8764C48.985 29.0692 47.771 29.1112 46.7244 29.0378C45.6778 28.9644 45.1858 29.2474 45.1858 29.2474L44.7358 30.0546L45.3533 29.8135Z" fill="#5F062D"/>
<path d="M52.7842 30.4424C52.7842 30.4424 53.5169 31.522 52.5017 32.2243C51.4864 32.9266 49.4979 32.2243 48.3885 33.4088C47.2686 34.5933 48.3885 36.522 52.0202 35.9245C55.6519 35.327 57.5986 33.6185 57.18 30.8197C56.6881 28.063 51.3504 26.4487 49.5711 26.2391C47.7919 26.0294 47.5826 26.1028 47.5826 26.1028L47.1953 26.8051C47.1953 26.8051 50.9108 26.6164 54.1553 28.3355C57.3789 30.0336 56.6253 32.0671 56.416 32.738C55.6415 34.8763 50.6492 36.0608 49.0792 34.9077C47.8233 33.9644 49.7386 33.2306 50.8899 33.1572C52.0411 33.0839 53.475 32.8113 53.5064 31.6583C53.5378 30.5053 52.7842 30.4424 52.7842 30.4424Z" fill="#5F062D"/>
<path d="M41.3133 14.5411C40.4865 14.6878 39.6806 14.038 39.5236 13.1051C39.3666 12.1721 39.8899 11.2812 40.7168 11.1344C41.5436 10.9877 42.3495 11.6376 42.5065 12.5705C42.6635 13.5034 42.1402 14.3943 41.3133 14.5411Z" fill="#5F062D"/>
<path d="M31.7159 14.5411C32.5427 14.6878 33.3486 14.038 33.5056 13.1051C33.6625 12.1721 33.1392 11.2812 32.3124 11.1344C31.4856 10.9877 30.6797 11.6376 30.5227 12.5705C30.3657 13.5034 30.889 14.3943 31.7159 14.5411Z" fill="#5F062D"/>
<path d="M36.3628 16.5012C35.9965 16.5012 35.3476 15.7989 35.3476 15.6103C35.3476 15.4216 35.8081 15.2643 36.3733 15.2643C36.9385 15.2643 37.399 15.4216 37.399 15.6103C37.4094 15.7989 36.7815 16.4488 36.3628 16.5012Z" fill="#5F062D"/>
<path d="M36.4047 17.0568C36.4047 17.0568 36.342 17.6123 36.9595 17.8325C37.577 18.0421 37.9851 17.6438 38.0375 17.4027C38.0898 17.1721 38.0689 17.1197 38.0689 17.1197C38.0689 17.1197 37.7758 17.6228 37.242 17.5809C36.7083 17.539 36.478 17.0358 36.4466 16.9625C36.4152 16.8891 36.4152 16.8891 36.4152 16.8891L36.4047 17.0568Z" fill="#5F062D"/>
<path d="M36.4465 17.0568C36.4465 17.0568 36.5093 17.6123 35.8918 17.8325C35.2743 18.0421 34.8661 17.6438 34.8138 17.4027C34.7615 17.1721 34.7824 17.1197 34.7824 17.1197C34.7824 17.1197 35.0754 17.6228 35.6092 17.5809C36.143 17.539 36.3732 17.0358 36.4046 16.9625C36.436 16.8891 36.436 16.8891 36.436 16.8891L36.4465 17.0568Z" fill="#5F062D"/>
<path d="M30.0309 16.4279C30.0309 16.4279 29.089 16.4279 28.1156 16.1134C27.1423 15.7989 26.8597 15.6941 26.6818 16.082C26.5038 16.4698 27.4458 16.8157 28.5657 16.8157C29.6855 16.8157 30.0309 16.4279 30.0309 16.4279Z" fill="#5F062D"/>
<path d="M30.125 17.4341C30.125 17.4341 29.2145 17.6752 28.1888 17.6333C27.1631 17.5809 26.8701 17.5494 26.7968 17.9687C26.7235 18.388 27.7283 18.4823 28.8063 18.1888C29.8843 17.8953 30.125 17.4341 30.125 17.4341Z" fill="#5F062D"/>
<path d="M42.8413 16.4279C42.8413 16.4279 43.7833 16.4279 44.7566 16.1134C45.73 15.7989 46.0125 15.6941 46.1905 16.082C46.3684 16.4698 45.4264 16.8157 44.3066 16.8157C43.1867 16.8157 42.8413 16.4279 42.8413 16.4279Z" fill="#5F062D"/>
<path d="M42.7471 17.4341C42.7471 17.4341 43.6577 17.6752 44.6834 17.6333C45.709 17.5809 46.0021 17.5494 46.0753 17.9687C46.1486 18.388 45.1439 18.4823 44.0659 18.1888C42.9878 17.8953 42.7471 17.4341 42.7471 17.4341Z" fill="#5F062D"/>
<path d="M32.93 8.49293C32.93 8.49293 32.4799 8.20991 31.4647 8.80739C30.4495 9.40487 30.3448 10.2749 30.596 10.2434C30.8368 10.212 31.3287 9.61451 32.2706 9.47824C33.2126 9.34198 33.3486 9.23716 33.3172 8.88077C33.2754 8.53486 32.93 8.49293 32.93 8.49293Z" fill="#5F062D"/>
<path d="M40.183 8.49293C40.183 8.49293 40.633 8.20991 41.6482 8.80739C42.6634 9.40487 42.7681 10.2749 42.5169 10.2434C42.2762 10.212 41.7843 9.61451 40.8423 9.47824C39.9004 9.34198 39.7643 9.23716 39.7957 8.88077C39.8376 8.53486 40.183 8.49293 40.183 8.49293Z" fill="#5F062D"/>
<path d="M32.2392 11.6271C32.2392 11.6271 31.7996 11.4384 31.2554 12.0044C30.7111 12.5705 31.1926 13.0107 31.7578 12.8011C32.3229 12.5914 32.5532 12.0883 32.4694 11.8787C32.3857 11.669 32.2392 11.6271 32.2392 11.6271Z" fill="white"/>
<path d="M31.9252 13.5977C31.9252 13.5977 32.2602 13.3042 32.5532 13.5348C32.8463 13.7654 32.1974 14.1008 31.8834 14.017C31.5694 13.9331 31.9252 13.5977 31.9252 13.5977Z" fill="white"/>
<path d="M30.8786 13.409C30.8786 13.409 31.0251 14.2476 31.988 14.2266C32.9509 14.2057 33.0556 13.3671 33.0765 13.2204C33.0765 12.843 32.0927 12.7382 31.3601 13.0526C30.6693 13.3252 30.9414 13.5977 30.8786 13.409Z" fill="white" fill-opacity="0.29"/>
<path d="M41.3447 11.7319C41.3447 11.7319 40.9051 11.5432 40.3609 12.1092C39.8167 12.6753 40.2981 13.1155 40.8633 12.9059C41.4285 12.6962 41.6587 12.1931 41.575 11.9835C41.4912 11.7738 41.3447 11.7319 41.3447 11.7319Z" fill="white"/>
<path d="M41.0308 13.7025C41.0308 13.7025 41.3657 13.409 41.6587 13.6396C41.9518 13.8702 41.3029 14.2057 40.9889 14.1218C40.6749 14.038 41.0308 13.7025 41.0308 13.7025Z" fill="white"/>
<path d="M34.8347 17.2979C34.8347 17.2979 34.9708 18.0107 35.5883 18.0107C36.2162 18.0107 36.4465 17.6962 36.4465 17.6962C36.4465 17.6962 36.7919 18.0945 37.3047 17.9897C37.8071 17.8849 37.9327 17.4866 37.9327 17.4866C37.9327 17.4866 37.2733 17.8325 36.8338 17.5599C36.3942 17.2769 36.4465 17.1197 36.4465 17.1197C36.4465 17.1197 36.1849 17.6123 35.5883 17.6228C34.9917 17.6543 34.8347 17.2979 34.8347 17.2979Z" fill="#5F062D"/>
<path d="M39.9842 13.409C39.9842 13.409 40.1307 14.2476 41.0936 14.2266C42.0565 14.2057 42.1611 13.3671 42.1821 13.2204C42.1821 12.843 41.1982 12.7382 40.4656 13.0526C39.7749 13.3252 40.047 13.5977 39.9842 13.409Z" fill="white" fill-opacity="0.29"/>
<path d="M29.7588 3.56637C29.7588 3.56637 28.8482 2.48672 27.6969 1.78442C26.5457 1.08212 26.0224 0.977303 26.0224 0.977303C26.0224 0.977303 27.7702 1.36514 29.2669 2.13033C30.7635 2.89552 30.9414 2.93745 30.9414 2.93745L29.7588 3.56637Z" fill="white" fill-opacity="0.42"/>
<path d="M43.1135 3.56637C43.1135 3.56637 44.024 2.48672 45.1753 1.78442C46.3266 1.08212 46.8499 0.977303 46.8499 0.977303C46.8499 0.977303 45.102 1.36514 43.6054 2.13033C42.1087 2.89552 41.9308 2.93745 41.9308 2.93745L43.1135 3.56637Z" fill="white" fill-opacity="0.42"/>
<path d="M34.6046 3.29384C34.6046 3.29384 31.9148 3.15757 29.6123 5.52652C27.3097 7.90595 27.2783 8.88078 27.2783 8.88078C27.2783 8.88078 29.4448 5.97725 31.6008 4.82422C33.7673 3.67119 35.264 3.493 35.264 3.493L34.6046 3.29384Z" fill="white" fill-opacity="0.42"/>
<path d="M38.2991 3.29383C38.2991 3.29383 41.125 3.47203 42.7263 4.93951C44.3276 6.407 44.6416 7.17219 44.6416 7.17219C44.6416 7.17219 42.2658 4.68795 40.0365 4.16384C37.8072 3.63974 37.4514 3.60829 37.4514 3.60829L38.2991 3.29383Z" fill="white" fill-opacity="0.42"/>
</svg>
