<svg width="24" height="24" viewBox="0 0 24 24" fill="none" xmlns="http://www.w3.org/2000/svg">
<path d="M12 16.5148V13.8868" stroke="black" stroke-width="1.5" stroke-linecap="round" stroke-linejoin="round"/>
<path d="M21.1301 11.4757L21.1001 11.4967C18.6801 12.9887 15.4801 13.8897 12.0001 13.8897C9.69907 13.8897 7.52807 13.4977 5.62207 12.8037" stroke="black" stroke-width="1.5" stroke-linecap="round" stroke-linejoin="round"/>
<path d="M12 21.5518C5.09004 21.5518 2.79004 19.5008 2.79004 13.3488C2.79004 7.19675 5.09004 5.14575 12 5.14575C18.91 5.14575 21.21 7.19675 21.21 13.3488C21.21 18.1848 19.789 20.4868 15.825 21.2498" stroke="black" stroke-width="1.5" stroke-linecap="round" stroke-linejoin="round"/>
<path d="M15.2602 5.36736V4.73736C15.2602 3.47336 14.3402 2.44836 13.2002 2.44836H10.8002C9.66023 2.44836 8.74023 3.47336 8.74023 4.73736V5.36736" stroke="black" stroke-width="1.5" stroke-linecap="round" stroke-linejoin="round"/>
</svg>
