<?xml version="1.0" encoding="UTF-8"?><svg id="b" xmlns="http://www.w3.org/2000/svg" width="26" height="24" viewBox="0 0 26 24"><g id="c"><g id="d"><path d="m6,2.03V0h14v2.04s.04-.04.04-.04h-2.04v4h-2V2h-4v4h-2V2h-4.03l.03.03Z"/><path d="m2,8.03v-2c.69-.04,1.27-.07,2-.11v-3.93c.77,0,1.4,0,2.03,0l-.03-.03v10.03h-2v-4H1.96l.04.03Z"/><path d="m16.3,21.96c.04.64.08,1.28.13,2.04H6v-4.03l-.03.03h1.96c.04.74.08,1.34.12,2h8.28s-.03-.04-.03-.04Z"/><path d="m24.05,4h1.95v10h-1.95l.03.03c0-3.36,0-6.71,0-10.07l-.03.04Z"/><path d="m22,17.96v6.04h-4v-2.03l-.03.03h2.03v-4.03l-.04.04c.69,0,1.38,0,2.06,0l-.03-.03Z"/><path d="m1.94,15.97c-.61.04-1.23.08-1.94.12v-8.09h1.94s-.04-.03-.04-.03c0,2.68,0,5.35,0,8.03,0,0,.03-.03.03-.03Z"/><path d="m19.96,2h4.04v2.04l.04-.04h-2.04c-.05.79-.08,1.41-.11,2h-1.88V1.96l-.04.04Z"/><path d="m24,13.97v4.11c-.72-.04-1.37-.08-2.03-.11,0,0,.03.03.03.03v-4h2.04l-.04-.03Z"/><path d="m4.04,18H1.89c.04-.72.08-1.37.11-2.03,0,0-.04.03-.04.03h2.03v2.03l.04-.03Z"/><path d="m18.03,22c-.69,0-1.37,0-2.06,0,0,0,.03.04.03.04v-2.04h2v2.04l.03-.04Z"/><path d="m6.03,20h-2.03c0-.72,0-1.37,0-2.03,0,0-.04.03-.04.03h2.04v2.04l.03-.04Z"/><path d="m6,20c0-.62,0-2.43,0-2h-2v-2h-1.76c0-2.65,0-5.33,0-8h1.77v4h2V2h4v4h2V2h4v4h2V2h2c0,1.29,0,2.58,0,4h2c.03-.59.07-1.21.11-2h1.87c0,3.33,0,6.67,0,10h-1.98v3.99c-.67,0-1.33,0-2,0,0-2.63,0-5.34,0-7.99h-2v8h2v4h-2v-2h-2v2h-7.93c-.04-.66-.07-1.26-.12-2h-1.96Zm6-11h-2v8h2v-8Zm2,1v8h2v-8h-2Z" style="fill:#fff;"/><rect x="10" y="9" width="2" height="8"/><rect x="14" y="10" width="2" height="8"/><path d="m20.04,18h-2.04v-8h2c0,2.69,0,5.36,0,8.04,0,0,.04-.04.04-.04Z"/></g></g></svg>