<svg xmlns="http://www.w3.org/2000/svg" fill="none" viewBox="0 0 500 502" height="250" width="250"><path fill="#2e3120" fill-rule="evenodd" d="M244.727.5c-16.799 0-33.597.513-50.374 1.7l-1.104.078c-9.267.654-19.675 1.387-29.14 3.77-25.946-.343-52.022-.051-77.858.79-4.18.137-8.35.324-12.515.56-14.636-.44-27.709-1.078-37.12-1.974a1.5 1.5 0 0 0-.284 2.986c3.7.353 7.959.665 12.65.942a651.08 651.08 0 0 0-31.303 3.944A894.793 894.793 0 0 0 0 16.181v3.046a887.768 887.768 0 0 1 18.124-2.963c18.503-2.775 37.016-4.806 55.653-5.864 23.514.7 50.98.883 73.76.784 2.12-.01 4.201-.021 6.235-.035a4.758 4.758 0 0 0-.174.355c-.638 1.466-.344 2.898.304 4.125-20.221.764-40.366 3.084-60.283 7.714l-4.442-.125c-12.673-.348-25.283-.54-37.881-.732-14.569-.221-29.123-.443-43.746-.906-.91-.028-2.233-.001-3.734.03l-.633.012c-.998.02-2.073.04-3.183.045v3c1.14-.006 2.238-.025 3.243-.045l.628-.013c1.526-.031 2.76-.056 3.584-.03 14.569.461 29.22.685 43.859.908 10.45.16 20.894.319 31.295.565-11.06 2.899-22.135 6.433-32.427 11.286-2.328 1.098-4.521 2.285-6.297 3.53-1.736 1.218-3.25 2.611-3.988 4.178-.383.815-.573 1.715-.432 2.657.14.942.593 1.794 1.274 2.547 1.316 1.455 3.603 2.673 6.833 3.738 4.762 1.57 9.668 2.813 14.652 3.81.553.296 1.18.55 1.862.776 2.78.919 6.675 1.424 10.357 1.73 3.098.258 6.154.383 8.426.476l.002 0 1.04.043c7.013.645 13.993 1.049 20.767 1.428.879.049 1.759.097 2.638.144-4.651.394-9.3.84-13.948 1.344-2.495.27-5.019.537-7.566.805-21.528 2.27-44.672 4.712-65.242 11.269-.167.053-.348.101-.575.162l-.303.08c-.345.094-.763.213-1.161.374-.384.156-.866.395-1.263.785a2.409 2.409 0 0 0-.745 1.828c.028.782.413 1.378.889 1.771.43.355.932.55 1.33.67.561.167 1.283.274 1.763.346.152.022.279.04.37.057 1.695.3 3.406.5 5.109.65C17.28 84.557 8.6 86.724 0 89.108v3.114c12.041-3.358 24.254-6.289 36.473-8.988 19.395 1.107 38.983 1.098 58.353.147a718.74 718.74 0 0 0 4.247-.221l-.195.043c-1.087.24-3.203.714-4.805 1.27-.406.141-.804.296-1.158.464-.334.159-.719.37-1.032.651-.264.237-.855.872-.675 1.809.165.86.865 1.28 1.201 1.45.399.2.922.344 1.408.455.073.017.147.034.224.05-10.462.982-20.841 2.693-31.091 4.99-12.627 2.83-25.13 6.398-37.396 10.412-1.255.411-2.587.828-3.97 1.262l-.002 0c-4.036 1.265-8.506 2.666-12.742 4.426-3.084 1.282-6.115 2.78-8.84 4.606v3.691c2.855-2.202 6.298-3.992 9.991-5.527 4.1-1.703 8.375-3.043 12.379-4.298 1.412-.443 2.791-.875 4.117-1.309 12.193-3.99 24.603-7.53 37.119-10.335 15.946-3.574 32.173-5.706 48.511-5.86a103.24 103.24 0 0 1 4.56.09c1.102.048 2.222.119 3.175.222l.071.008c-9.523 4.987-20.563 8.257-31.208 11.41l-.003.001c-1.93.571-3.846 1.139-5.739 1.712a498.508 498.508 0 0 1-26.332 7.196 775.332 775.332 0 0 0-34.2 4.826c-2.216.363-6.566 1.202-9.817 1.952-1.589.367-3.033.739-3.808 1.042a3.23 3.23 0 0 0-.678.346 1.714 1.714 0 0 0-.544.621 1.576 1.576 0 0 0-.137.396c-2.468.013-4.956.017-7.457-.002v3c4.21.031 8.387-.001 12.46-.031 3.93-.03 7.764-.059 11.435-.03 31.333.249 62.548-1.224 93.746-3.15-12.044 2.688-24.078 5.872-35.919 9.656a1488.716 1488.716 0 0 1-35.325 4.838c-6.644.12-13.287.292-19.927.518-1.554-.117-3.103-.25-4.635-.4-8.72-.852-16.69-2.23-21.835-4.371v3.222c2.461.912 5.362 1.669 8.534 2.3-2.845.141-5.69.293-8.534.457l0 3.005c.956-.056 1.912-.109 2.868-.162-.956.074-1.912.146-2.868.217v3.008a732.117 732.117 0 0 0 27.019-2.494c3.432-.38 6.864-.772 10.297-1.176 7.43.277 14.27.289 19.076.237-17.197 7.063-33.667 15.649-48.797 26.114l-.588.405c-1.91 1.313-4.593 3.159-7.007 5.408v4.323c2.551-3.018 6.156-5.502 8.743-7.284l.004-.002.554-.382c17.142-11.857 36.05-21.286 55.825-28.81a592.99 592.99 0 0 0 20.376-1.282c9.16.089 18.319.26 27.475.502a9.092 9.092 0 0 0-.259.997c-.548 2.747.367 5.131 2.146 7.087 1.731 1.904 4.304 3.44 7.251 4.703 2.967 1.271 6.431 2.313 10.055 3.169 13.797 3.261 30.515 3.969 32.695 4.061l.212.009c.721.037 1.442.071 2.164.104a2508.328 2508.328 0 0 0-30.842 3.07c-9.911.43-19.737 1.026-29.405 1.694-34.89 2.41-69.547 7.24-103.837 13.892-.956.186-2.016.395-3.157.625v7.351c.354.091.718.163 1.052.223.548.099 1.14.185 1.663.26l.452.066c18.7 2.778 38.549 1.859 57.302.991 1.541-.072 3.075-.143 4.6-.211 19.6-.882 39.17-2.418 58.7-4.285-6.099 1.905-12.157 3.928-16.979 5.751-.345.13-3.401 1.36-6.585 2.81-1.593.726-3.243 1.518-4.612 2.264a23.96 23.96 0 0 0-1.847 1.099c-.502.337-1.013.725-1.366 1.145-.66.787-1.217 1.8-1.007 2.927.217 1.162 1.125 1.825 1.893 2.191 1.519.724 3.914.978 6.353 1.063.565.02 1.15.031 1.749.034-14.482 2.399-29.016 5.089-43.366 8.45-11.063-.985-21.944-2.897-32.357-6.701-3.152-1.152-9.137-3.71-14.83-6.906-2.845-1.597-5.585-3.337-7.853-5.122-1.144-.9-2.14-1.791-2.962-2.66v4.113c.36.306.729.607 1.107.905 2.43 1.913 5.315 3.738 8.24 5.38 5.847 3.283 11.981 5.907 15.269 7.108 8.09 2.956 16.45 4.796 24.917 5.952-8.274 2.111-16.47 4.472-24.543 7.159-5.443 1.811-15.542 5.59-24.123 8.943L0 228.331v3.808l1.023-.402c5.012 1.406 9.371 2.559 12.625 3.42l.001 0 .017.005 2.514.666c1.834.49 3.67.977 5.51 1.46-3.115 1.297-6.512 2.78-9.762 4.492-4.513 2.379-8.903 5.278-11.928 8.887v10.299c2.353 1.97 6.104 3.322 9.907 4.286 6.721 1.703 14.469 2.383 17.296 2.63.472.042.807.071.977.091 3.547.42 7.099.777 10.654 1.078-12.809 3.045-26.15 6.261-38.834 10.733v3.182c13.171-4.728 27.177-8.058 40.746-11.285l.002 0c2.643-.629 5.269-1.253 7.869-1.883l.207-.05c21.681 1.199 43.478.418 65.241-1.423.018.06.039.119.061.179.328.886.974 1.596 1.651 2.151.69.565 1.518 1.057 2.368 1.482 3.169 1.582 7.357 2.563 8.225 2.766l.118.028c21.181 5.095 43.953 4.868 65.652 4.652h.004c3.323-.033 6.621-.066 9.884-.079 76.193-.313 152.258-3.417 227.994-12.131l4.326-.495c16.043-1.833 32.345-3.695 48.203-7.118l.208-.044c1.477-.311 8.476-1.784 14.443-4.122a42.602 42.602 0 0 0 2.798-1.205v-5.242c-32.766 3.325-65.827 4.942-98.816 6.001a2.502 2.502 0 0 0-.018-.502c-.087-.644-.405-1.185-.793-1.621-.739-.832-1.974-1.552-3.584-2.229-9.986-4.202-22.04-4.722-32.638-5.179a705.847 705.847 0 0 1-3.96-.178c-21.557-1.058-43.208-1.297-64.812-1.054 3.189-.507 6.376-1.028 9.56-1.565a924.325 924.325 0 0 1 30.083-3.391c10.321-.675 20.651-1.511 30.982-2.454l.101-.007c30.021-1.865 60.442-2.359 90.464-.654 8.727.495 22.181 1.721 30.932 3.467 1.555.311 4.788 1.037 7.995 2.069 1.601.515 3.168 1.097 4.504 1.73v-3.281a46.335 46.335 0 0 0-3.585-1.305c-3.351-1.078-6.703-1.831-8.327-2.155-8.96-1.787-22.581-3.023-31.349-3.521a624.965 624.965 0 0 0-6.583-.338c16.674.049 33.321.498 49.844 1.567v-3.006c-22.825-1.47-45.874-1.763-68.872-1.456a6044.483 6044.483 0 0 1 28.023-3.114l1.37-.148c13.102-1.415 26.352-2.846 39.479-4.928v-3.037c-13.2 2.109-26.566 3.553-39.869 4.989l-1.303.141a6530.527 6530.527 0 0 0-29.636 3.296l-.003 0-.005.001c-10.987 1.239-21.984 2.479-32.984 3.656-5.758.193-11.504.406-17.234.629l-3.06.118-.001 0c-9.029.348-18.145.699-27.239 1.361 4.417-1.738 8.584-3.827 12.302-6.389 1.361-.937 2.361-1.979 2.804-3.177.479-1.294.222-2.526-.436-3.552-.618-.965-1.589-1.761-2.636-2.422-1.066-.671-2.323-1.271-3.633-1.8-5.133-2.076-11.71-3.324-12.861-3.542l-.046-.009c-4.94-.939-9.949-1.638-14.999-2.148 13.917-1.415 27.767-3.411 41.546-5.71 3.686-.615 7.516-1.198 11.426-1.793l.002-.001c7.465-1.136 15.228-2.319 22.852-3.853 6.087-1.225 12.139-2.684 17.965-4.543 15.693-.041 31.391-.447 47.025-1.367 1.944-.114 3.977-.215 6.072-.318 6.078-.301 12.682-.627 19.178-1.396a125.48 125.48 0 0 0 4.773-.653v-3.038c-1.69.273-3.402.508-5.126.712-6.384.755-12.834 1.074-18.888 1.374l-.003 0c-2.116.104-4.183.207-6.182.324-12.774.752-25.596 1.159-38.428 1.304a86.09 86.09 0 0 0 6.843-3.171c3.249-1.688 5.505-3.518 6.763-5.498.872-1.374 1.243-2.791 1.156-4.187 2.016-.314 4.029-.64 6.041-.977l.381-.064c8.459-1.419 19.658-3.298 28.069-6.685.095-.038.227-.088.389-.149.217-.082.487-.184.793-.305 5.659.743 12.06 1.765 18.192 3.15v-3.801c-4.494-.874-9.066-1.504-13.645-1.968.576-.562 1.084-1.271 1.282-2.143.325-1.432-.284-2.774-1.47-3.917-1.649-1.589-3.922-2.775-6.396-3.687-2.491-.918-5.291-1.598-8.085-2.121-4.107-.768-8.334-1.219-11.633-1.571-1.166-.125-2.216-.237-3.104-.346-48.044-5.915-97.769-5.182-146.059-2.487 18.494-2.033 37.085-4.416 55.476-7.364l2.315.05.635.013c20.246.432 40.524.355 60.772.279h.003c7.859-.03 15.714-.06 23.56-.06 6.056 0 12.19.116 18.36.232 9.295.175 18.673.352 27.989.137v-2.999c-9.212.215-18.488.039-27.757-.136-6.208-.117-12.412-.234-18.592-.234-7.872 0-15.742.03-23.611.06h-.003c-15.897.06-31.786.12-47.666-.066a710.323 710.323 0 0 0 18.981-3.687l.103-.021c4.282-.894 10.823-2.259 16.944-4.065 27.342.057 54.792 1.884 81.601 5.554v-3.027c-24.108-3.284-48.725-5.084-73.312-5.456.339-.148.672-.299.999-.453 15.682-1.825 31.256-4.187 46.617-7.327.382-.078.986-.185 1.756-.322 2.428-.43 6.513-1.155 10.525-2.19 2.66-.687 5.371-1.528 7.654-2.549 2.219-.992 4.298-2.265 5.383-3.95.158-.245.274-.515.336-.802l.042-.012v-3.114c-.42.118-.84.235-1.261.35a6.566 6.566 0 0 0-.441-.324c-.977-.657-2.231-1.146-3.052-1.401-4.396-1.361-12.114-2.35-16.113-2.682-.536-.045-1.073-.089-1.611-.132 7.5-1.25 14.995-2.533 22.478-3.87v-4.171c-16.24-2.38-33.273-1.285-49.188.533-14.038 1.604-28.009 4.066-41.788 7.271-2.333.176-4.664.372-6.992.588a266.906 266.906 0 0 0-4.688-1.053c-10.516-2.268-20.785-3.878-27.006-4.732a753.992 753.992 0 0 1 15.019-4.102c1.698-.447 3.398-.888 5.1-1.323 15.074-.596 30.138-1.446 45.182-2.617 14.418-1.122 28.994-2.306 43.367-4.434 1.892-.28 7.165-1.063 10.182-2.176.743-.274 1.523-.627 2.079-1.103.283-.242.625-.615.791-1.141a2.056 2.056 0 0 0-.211-1.692c-.264-.442-.653-.757-1.015-.986a7.428 7.428 0 0 0-1.328-.64c-1.008-.383-2.39-.751-4.194-1.114-1.398-.28-2.801-.546-4.209-.797A608.527 608.527 0 0 1 500 76.055v-3.01a616.645 616.645 0 0 0-29.911 3.126c-10.974-1.448-22.108-2.277-33.058-3.092l-.002 0c-3.394-.253-6.769-.504-10.117-.772-27.21-2.178-54.453-3.264-81.708-3.85-11.217-1.892-22.56-3.33-33.968-4.43 1.258-.555 2.52-1.1 3.786-1.636 1.554.157 2.943.263 3.948.339a49.03 49.03 0 0 1 1.386.114c24.993 2.808 50.324 2.026 75.263.718 32.413-1.7 64.637-5.257 96.763-9.457 2.537-.331 5.076-.665 7.618-1.003v-3.027c-2.669.356-5.338.707-8.006 1.055-32.092 4.196-64.229 7.741-96.532 9.436-24.792 1.3-49.783 2.068-74.39-.66 6.598-2.631 13.278-5.043 19.949-7.286a383.921 383.921 0 0 1 30.445-8.831c11.398.027 22.796.02 34.19.015h.001c4.859-.003 9.717-.006 14.573-.006 4.812 0 9.631.018 14.456.035h.002c21.73.077 43.579.154 65.312-1.328v-3.007c-21.674 1.489-43.465 1.412-65.264 1.335a4101.87 4101.87 0 0 0-14.506-.035c-4.854 0-9.707.003-14.561.006l-.031 0c-7.064.003-14.126.007-21.189.003C422.272 32.748 461.152 29.801 500 29.521v-3c-43.336.31-86.818 3.93-128.894 14.267-7.289-.018-14.577-.05-21.864-.104l1.879-.184c21.349-2.081 43.036-4.196 63.938-8.97l.085-.019c.961-.216 7.596-1.712 12.783-3.921l.059-.026c2.928-.213 5.194-.386 6.226-.479l.252-.023c.77-.069 2.197-.196 3.903-.38 15.829-.808 31.698-1.1 47.539-1.12 4.697-.006 9.397.014 14.094.098v-3a735.855 735.855 0 0 0-14.098-.098c-11.326.015-22.678.168-34.027.549.084-.159.152-.332.197-.523.223-.932-.215-1.696-.581-2.145-.714-.876-2.011-1.632-3.262-2.237-2.619-1.268-6.172-2.399-8.235-2.82-10.103-2.064-20.434-3.349-30.777-4.357-2.292-.254-4.539-.46-6.67-.654a541.44 541.44 0 0 1-3.302-.309 374.91 374.91 0 0 0-13.243-1.054c-2.586-.222-5.162-.45-7.726-.693C334.002 4.119 289.36.5 244.727.5Zm-138.32 23.237c16.51-3.069 33.168-4.655 49.896-5.19.807.728 1.71 1.408 2.619 2.022a37.321 37.321 0 0 0 4.929 2.778 99.228 99.228 0 0 0 6.34 2.69c-7.505-.269-15.01-.549-22.517-.829l-.004 0c-13.748-.513-27.501-1.025-41.263-1.471Zm58.714-3.108c4.948 2.31 10.177 4.198 15.567 5.776 2.574.088 5.147.174 7.72.257 2.88-.864 6.303-1.71 9.726-2.478 7.57-1.7 15.343-3.07 17.53-3.455l.002 0 .583-.104c.297-.059.595-.116.893-.174-18.683-1.532-37.395-2.407-56.028-2.03a34.852 34.852 0 0 0 4.007 2.207Zm-17.649 7.574 10.609.395c-26.771 2.381-53.335 6.958-78.945 14.722-.203.062-7.142 2.172-12.505 4.805-1.347.661-2.631 1.373-3.699 2.113-1.037.718-2.007 1.555-2.573 2.508-.256.43-.457.931-.511 1.485-3.852-.857-7.641-1.874-11.337-3.092-3.095-1.02-4.767-2.039-5.547-2.9-.366-.406-.495-.732-.533-.98-.037-.248-.002-.548.18-.936.396-.84 1.376-1.862 2.996-2.998 1.58-1.108 3.605-2.213 5.854-3.273 13.304-6.273 28.018-10.328 42.46-13.699 17.843.519 35.694 1.184 53.551 1.85ZM63.303 54.955c6.826 1.344 13.82 2.23 20.825 2.875l.124.005c12.02.523 22.56.582 34.714.326 56.167-1.18 112.4-7.51 168.451-13.82l.009-.002c4.298-.484 8.594-.968 12.89-1.449-24.367-.672-48.773-1.952-72.993-4.991a724.48 724.48 0 0 1-19.755-.654c.042.002-6.467-.023-12.863-.515-3.215-.247-6.509-.618-9.064-1.183-1.267-.28-2.437-.626-3.343-1.07-.794-.388-1.901-1.099-2.109-2.364-.141-.856.259-1.538.628-1.96l.065-.071c-34.202 1.56-68.34 6.246-100.876 16.109-.204.062-6.932 2.112-12.053 4.627-1.275.626-2.413 1.263-3.312 1.886-.93.644-1.47 1.184-1.703 1.575a.972.972 0 0 0-.092.193.311.311 0 0 0-.011.044l-.002.007a.383.383 0 0 0 .033.054c.065.09.197.22.437.378Zm139.464 4.953c.938.014 1.878.028 2.818.04 1.959-.08 3.918-.165 5.876-.257 20.646-.96 41.306-2.757 61.846-5.124 7.979-.919 21.154-2.633 29.222-4.345l.479-.104c2.177-1.574 5.333-3.086 9.073-4.53 1.237-.478 2.55-.953 3.928-1.424-9.381 1.032-18.773 2.09-28.174 3.148-46.842 5.275-93.923 10.576-140.986 12.868 18.63-.568 37.275-.544 55.918-.272ZM93.691 66.722c14.399-1.561 28.824-2.568 43.269-3.181.753.018 1.506.036 2.258.052-25.388 2.097-50.546 5.795-75.57 10.869-9.08 1.84-18.243 3.73-27.418 5.753-1.425-.082-2.849-.17-4.271-.265a596.05 596.05 0 0 0-1.416-.092c-3.129-.201-6.167-.396-9.154-.926a21.353 21.353 0 0 0-.534-.085c.207-.055.425-.115.616-.176 20.257-6.457 43.08-8.867 64.655-11.144l.005 0c2.54-.269 5.061-.535 7.56-.805Zm132.469-2.994a16.521 16.521 0 0 0-2.047-.527c25.088.354 50.53.875 75.707 2.842a228.733 228.733 0 0 0-3.614 1.825c-23.401-.032-46.746.374-70.054 1.434a9.2 9.2 0 0 0 1.045-.523c.461-.274.931-.627 1.254-1.1.364-.53.548-1.242.275-1.982-.235-.636-.724-1.047-1.119-1.303-.419-.272-.92-.488-1.447-.666Zm17.81-3.191c20.346.427 40.865 1.182 61.212 2.937 1.37-.637 2.747-1.262 4.129-1.876-1.828-.344-3.644-.797-5.18-1.408-1.739-.69-3.538-1.743-4.237-3.457-.404-.993-.386-1.99-.057-2.922-8.162 1.51-19.21 2.933-26.186 3.737a1007.148 1007.148 0 0 1-29.681 2.989Zm96.095-10.76a379.718 379.718 0 0 1 19.705-6.03 3240.916 3240.916 0 0 1-31.023-.283c-2.949.796-5.769 1.61-8.398 2.436-.263.65-.733 1.22-1.314 1.703-.907.752-2.238 1.415-3.634 1.99-1.429.587-3.056 1.133-4.647 1.612-2.457.74-4.882 1.338-6.454 1.698-.818.65-1.297 1.215-1.531 1.672-.221.43-.216.733-.097 1.026.2.49.933 1.152 2.567 1.801 1.541.613 3.527 1.075 5.618 1.423a67.02 67.02 0 0 0 3.707.503c8.41-3.536 16.975-6.685 25.501-9.552Zm101.337-26.481c-1.133.151-2.251.283-3.273.394-1.455.074-2.91.153-4.364.236.21-.24.398-.492.559-.755.653-1.071.843-2.355.188-3.637-.52-1.018-1.496-1.873-2.777-2.624 2.564.427 5.118.896 7.658 1.415 1.83.374 5.144 1.427 7.529 2.581.744.36 1.307.689 1.694.96-.619.22-1.479.445-2.534.664-1.412.292-3.051.548-4.68.766Zm-11.363-.149a18.65 18.65 0 0 1-2.072 1.135 603.275 603.275 0 0 0-21.546 1.794c-2.701.187-5.052.35-6.722.464l-.034.003c-1.33.091-2.221.152-2.506.173-10.682.751-21.354 1.568-32.022 2.384-22.953 1.757-45.889 3.511-68.86 4.616a268.074 268.074 0 0 0-15.481-2.804c1.25-.023 2.504-.056 3.757-.11.429-.018 1.023.03 1.783.105l.237.023c.656.065 1.398.139 2.079.156.719.019 1.627-.01 2.382-.336.41-.177.859-.477 1.171-.98.319-.516.397-1.086.337-1.618-.094-.826-.682-1.32-1.005-1.549-.378-.266-.839-.478-1.301-.653-.936-.355-2.19-.675-3.603-.966-2.844-.587-6.586-1.11-10.318-1.549-3.742-.44-7.511-.802-10.423-1.063-1.646-.147-2.992-.26-3.915-.338-.734-.061-1.201-.1-1.335-.116a1669.809 1669.809 0 0 0-20.689-2.325c23.072-3.463 46.336-5.53 69.702-6.864 25.332-1.446 50.813-2.295 76.101-.727 2.304.198 4.61.39 6.917.583l.002 0c5.419.451 10.843.903 16.249 1.43 1.968.218 3.961.473 5.943.79 5.467.873 10.707 2.2 14.944 4.465 1.333.713 1.856 1.29 2.029 1.63.105.205.125.377-.078.709-.254.417-.804.945-1.723 1.538Zm-64.617 8.94 1.636-.125c-7.632 1.421-16.208 3.133-24.597 5.037-3.324.754-6.625 1.54-9.831 2.35a4504.9 4504.9 0 0 0-9.569 1.027l-.843-.014c-1.743-.03-3.485-.06-5.227-.093-1.686-.981-3.818-1.856-5.948-2.607a84.835 84.835 0 0 0-4.629-1.47c19.687-1.096 39.359-2.601 59.008-4.105Zm27.252-1.405c-2.329.302-17.68 2.675-35.139 6.175 19.14-1.893 38.3-4.013 56.856-8.251l.085-.02.397-.09c-2.858.2-5.679.396-8.198.57a520.904 520.904 0 0 0-14.001 1.616Zm-94.903 6.428c.514.11 5.971 1.275 11.14 2.993-16.733-.375-33.464-.974-50.135-2.167a1173.82 1173.82 0 0 0 30.67-.91c2.195-.091 4.391-.19 6.586-.295.567.121 1.135.245 1.701.37l.038.009Zm-14.837-2.827c-18.427.687-36.942.981-55.394.62-1.637-.206-3.273-.42-4.908-.643-9.035-1.229-18.451-2.519-27.705-4.39 19.946.615 39.9 1.069 59.86 1.155 9.435.72 18.843 1.758 28.147 3.258Zm-99.229-2.615c.45-.265 1.054-.55 1.8-.849 5.165 1.3 10.417 2.36 15.654 3.273a167.82 167.82 0 0 1-6.224-.353c-3.176-.245-6.302-.603-8.646-1.121-1.182-.262-2.082-.546-2.672-.835l-.056-.027a4.17 4.17 0 0 1 .144-.088Zm92.484-3.7c-7.095.072-14.188.088-21.279.058-9.013-.686-18.033-1.082-26.991-1.314a712.73 712.73 0 0 0-26.349-.21c6.446-1.377 12.474-2.44 14.535-2.805l.002 0c.385-.068.631-.111.716-.128a518.733 518.733 0 0 1 11.576-2.12c10.653 1.011 21.291 2.197 31.892 3.448.168.02.734.068 1.588.14.946.08 2.244.189 3.745.323 2.899.26 6.637.619 10.34 1.055 3.507.413 6.948.891 9.606 1.415a10.89 10.89 0 0 0-1.144-.025c-2.484.106-4.972.13-7.488.155l-.749.008Zm13.652 1.113a.147.147 0 0 1-.023-.018.108.108 0 0 1 .023.018ZM157.493 15.509c23.586-.68 47.264.691 70.795 2.915 26.869-4.59 53.989-7.137 81.196-8.69 11.627-.664 23.308-1.204 35.004-1.441-49.898-4.17-100.023-6.632-149.923-3.1l-.953.067c-4.28.302-8.731.617-13.178 1.089 1.426.033 2.852.07 4.278.107 3.091.082 5.421.168 7.055.257.816.045 1.471.09 1.967.138.438.042.897.097 1.215.197.077.025.276.09.481.231.135.093.874.66.619 1.644a1.538 1.538 0 0 1-.803.991c-.155.08-.3.124-.379.146-.305.084-.739.138-1.174.18-.941.093-2.428.18-4.365.263-6.223.265-17.396.49-31.125.611-1.185.61-1.678 1.184-1.854 1.588-.201.46-.156 1.14.642 2.205.15.199.318.4.502.602Zm291.847 6.04Zm-146.468 46.34c.947-.458 1.898-.91 2.852-1.358 5.041.441 10.07.945 15.082 1.52l-5.382-.062c-4.186-.046-8.37-.08-12.552-.1Zm12.52 3.1c9.848.108 19.692.253 29.531.463a376.567 376.567 0 0 1 18.983 3.705c.131.03.34.073.612.13 1.857.388 6.674 1.395 10.026 2.662.954.36 1.713.715 2.225 1.043.043.028.084.055.121.081-.544.297-1.502.652-3.053 1.024-14.606 3.498-30.324 3.983-45.759 4.46-4.354.134-8.685.268-12.963.469a4351.042 4351.042 0 0 1-36.761 1.573 2.887 2.887 0 0 1-.195-.26c-.468-.709-.478-1.554.283-2.801.784-1.287 2.237-2.695 4.078-4.109 1.817-1.394 3.903-2.711 5.839-3.84a206.328 206.328 0 0 1 8.576-4.72c6.147.011 12.299.053 18.457.12Zm61.883 8.415c.001.001.001.001 0 0Zm.015-.596a.118.118 0 0 1 .02-.023c.002 0-.004.008-.02.023Zm-101.41 3.168c-.875 1.435-1.352 3.1-.834 4.749-46.986 1.764-94.04 2.663-141.013 2.012-7.613-.105-19.943-.44-27.834-.98l-.067-.005-.064-.004-.202-.016-.166-.013a204.869 204.869 0 0 1-5.319-.495 99.113 99.113 0 0 1-3.582-.44c1.01-.27 2.03-.498 2.725-.652 6.875-1.516 21.834-3.891 28.029-4.784 1.144-.165 2.289-.328 3.433-.488 6.985-.593 13.964-1.224 20.933-1.855 4.868-.44 9.731-.88 14.589-1.306a1148.4 1148.4 0 0 1 9.858-.808c11.209-.887 22.711-1.798 33.9-3.758 26.71-1.573 53.477-2.22 80.329-2.264a201.549 201.549 0 0 0-3.747 2.129c-1.991 1.16-4.196 2.549-6.154 4.051-1.933 1.484-3.738 3.163-4.814 4.927Zm-182.157 4.17c.001 0 .012.006.03.018a.126.126 0 0 1-.03-.017Zm36.928-8.269c26.399-3.696 52.817-6.167 79.279-7.73 4.17-.734 8.289-1.618 12.333-2.707 1.241-.334 2.145-.647 2.772-.924-.79-.25-1.914-.482-3.357-.672-18.365-2.422-37.817-1.608-56.475-.827l-1.767.074c-33.425 1.394-66.415 5.666-99.193 12.31-5.408 1.097-10.84 2.21-16.281 3.357 15.565.542 31.208.388 46.717-.373 11.994-.589 23.983-1.49 35.972-2.508Zm95.398-10.911-.009-.008.009.008ZM106.12 126.84a466.27 466.27 0 0 1 23.949-5.367c1.048.14 2.069.271 3.035.391-.301.148-.601.297-.898.446a1614.438 1614.438 0 0 1-26.086 4.53Zm27.05-1.656c3.81-.694 7.616-1.402 11.418-2.122a504.75 504.75 0 0 0 18.463 1.281c-.218.107-.432.214-.64.321-1.108.569-1.997 1.13-2.672 1.697l-.141.12c-2.856.401-5.714.79-8.57 1.178-2.704.368-5.407.736-8.104 1.113-6.606.923-13.213 1.812-19.822 2.642 2.929-2.253 6.33-4.325 10.068-6.23Zm35.706-.062c.401-.152.811-.303 1.229-.454l1.33.052c-.852.136-1.705.27-2.559.402Zm9.681-3.167c2.384.068 4.769.126 7.154.173 4.42-.916 8.802-1.949 13.131-3.145 1.222-.337 5.901-1.788 8.668-3.305.375-.206.687-.398.936-.572l-2.01.133c-4.701.98-10.688 2.279-16.822 3.783a276.635 276.635 0 0 0-11.057 2.933Zm-17.479 7.348c8.318-1.176 16.667-2.472 24.907-4.169 10.303.203 20.604.235 30.884.235 27.79 0 55.644-.211 83.438-1.695 2.445-.13 4.805-.264 7.106-.406-.926.769-1.806 1.631-2.49 2.564-.898 1.226-1.575 2.74-1.344 4.412.249 1.799 1.347 3.192 2.642 4.239l-1.445.063c-30.795 1.361-70.034 2.974-101.772 2.183l-.018 0c-13.892-.347-23.33-.582-35.526-4.62a71.633 71.633 0 0 0-1.163-.37 51.752 51.752 0 0 1-2.129-.699c-1.175-.42-2.145-.857-2.731-1.304-.248-.189-.349-.322-.384-.381a.744.744 0 0 1 .025-.052Zm139.069-8.624c4.293-.23 8.316-.469 12.224-.742.56-.319 1.048-.584 1.415-.784.233-.126.418-.227.542-.298 10.931-6.266 22.859-11.253 35.05-15.46-.584.084-1.112.158-1.568.221l-.827.117c-20.295 2.892-40.824 4.426-61.21 5.948l-.024.002-5.262.394c-22.806 1.715-45.625 3.28-68.446 4.791-.03.897-.598 1.59-1.004 1.986-.555.542-1.309 1.029-2.085 1.454-3.094 1.698-8.064 3.223-9.311 3.567-.524.145-1.049.287-1.574.427 6.265.055 12.533.067 18.802.067 27.782 0 55.569-.211 83.278-1.69Zm9.971 4.275a33.12 33.12 0 0 1 3.154-2.073c4.301-.305 8.477-.652 12.735-1.07-1.019.427-2.028.88-3.024 1.364-1.464.71-2.817 1.418-3.886 2.113-.993.646-2.028 1.456-2.488 2.459-.264.575-.363 1.268-.101 1.977.244.663.733 1.144 1.241 1.493.986.677 2.521 1.181 4.525 1.6 1.584.332 3.196.591 4.832.787l-2.567.106c-4.19.173-8.375.346-12.551.524l-.015-.006c-1.478-.571-2.823-1.25-3.815-2.038-.995-.789-1.499-1.576-1.607-2.357-.082-.59.129-1.323.792-2.227.656-.897 1.643-1.8 2.775-2.652Zm29.399-7.705.031-.004c9.555-2.769 19.404-5.065 29.434-6.924.335-.201.633-.399.894-.594.863-.644 1.088-1.081 1.128-1.279.015-.074.067-.37-.56-.993-.645-.641-1.819-1.42-3.736-2.321a52.248 52.248 0 0 0-5.877-2.32c-14.287 4.419-28.417 9.679-41.274 16.572a442.308 442.308 0 0 0 19.96-2.137Zm.645 2.942c-.844.245-1.684.494-2.523.746-4.604 1.387-9.124 2.888-13.346 4.937-1.437.697-2.653 1.339-3.56 1.929-.669.435-1.043.763-1.235.975.486.313 1.512.71 3.391 1.103 7.882 1.65 16.663 1.422 25.567.538 4.445-.442 8.894-1.043 13.259-1.646l1.166-.161.003-.001c3.951-.547 7.831-1.083 11.531-1.483 18.954-2.048 37.895-4.196 56.806-6.553a7.313 7.313 0 0 0-.234-.26c-1.869-1.971-5.329-3.902-9.88-5.724-13.495 2.211-27.129 4.349-40.809 5.314-1.937.137-3.435.185-4.56.156-1.053-.028-1.985-.124-2.634-.404-.314-.136-.91-.462-1.144-1.182-.254-.78.101-1.412.322-1.705.231-.307.529-.544.778-.718.266-.186.57-.363.886-.53 2.418-1.275 7.26-2.801 9.258-3.407a398.785 398.785 0 0 1 6.849-2.016 354.06 354.06 0 0 0-20.015 3.078c-.763.429-1.614.845-2.526 1.251-3.811 1.699-8.94 2.909-13.942 3.81-4.506.811-9.01 1.389-12.504 1.837l-.904.116Zm34.575 9.92c18.954-2.048 37.903-4.197 56.828-6.555a4.89 4.89 0 0 1-.433.534c-.894.967-2.37 1.932-4.293 2.87-22.526 2.606-45.294 4.109-68.021 5.237 1.11-.149 2.213-.301 3.307-.452l1.162-.161c3.961-.548 7.797-1.079 11.45-1.473Zm58.597-3.984-.052.057c13.593-1.708 27.088-3.843 40.422-6.569a90.195 90.195 0 0 1 1.984-.365c2.451-.435 6.27-1.113 10.147-2.113 2.586-.668 5.116-1.46 7.18-2.382a21.46 21.46 0 0 0 1.076-.517c-11.603 2.733-23.572 4.28-35.251 5.789l-.003 0c-2.324.301-4.637.6-6.934.906-5.65.755-11.303 1.486-16.958 2.199-.206 1.138-.82 2.14-1.611 2.995Zm25.143-9.079c12.026-1.555 24.164-3.126 35.855-5.95-4.071-1.255-11.491-2.221-15.448-2.551a453.698 453.698 0 0 0-14.437-.969 8981.788 8981.788 0 0 1-18.72 3.019l-.004.001c-4.546.73-9.09 1.46-13.631 2.194-1.861.301-3.724.606-5.591.913 2.794 1.39 5.104 2.902 6.662 4.546.576.606 1.035 1.244 1.353 1.911 5.666-.714 11.33-1.447 16.99-2.202 2.317-.31 4.642-.61 6.971-.912Zm35.139-17.41a2529.666 2529.666 0 0 1-29.336 4.928 450.585 450.585 0 0 0-35.394-.401 356.458 356.458 0 0 1 22.266-3.266c13.886-1.587 28.432-2.592 42.464-1.26Zm-119.782 9.821c6.17-1.052 12.4-1.942 18.665-2.68a382.883 382.883 0 0 0-23.712-3.97c1.636.825 2.903 1.654 3.773 2.519 1.027 1.021 1.671 2.281 1.386 3.708a3.757 3.757 0 0 1-.112.423Zm10.242 5.526a402.921 402.921 0 0 1 20.223-5.576c3.823.948 7.544 1.98 10.972 3.09-11.707 1.88-23.427 3.584-35.184 4.414-.786.055-1.485.095-2.105.12 2.147-.819 4.684-1.62 6.094-2.048Zm37.362-3.489a91.535 91.535 0 0 0-2.83-1.039 131.266 131.266 0 0 0-7.678-2.399c12.681-.904 25.407-1.217 37.962-1.008l-3.646.586c-4.544.73-9.089 1.46-13.633 2.194-2.482.402-4.964.81-7.446 1.218l-2.729.448Zm-57.421-14.393c-1.312.601-3.289 1.159-5.509 1.654l-1.18-.091c-5.691-1.475-11.755-2.37-17.713-2.929a515.41 515.41 0 0 1 4.724-.07c3.391-.033 6.782-.076 10.173-.128 2.3.274 4.58.614 6.834 1.031l.28.045c.511.077 1.508.23 2.391.488Zm-159.301 8.863c37.715-6.317 74.664-8.9 112.806-8.231-35.225.915-70.165 6.146-104.732 13.143l-.866.176c-.987.199-2.17.438-3.511.712a23.455 23.455 0 0 0-2.362-.414c-8.514-1.1-17.371-1.054-26.223-.39a2.483 2.483 0 0 0-.394-.409c9.002-1.869 17.262-3.248 23.528-4.294l1.754-.293Zm-24.943 8.008c1.397-.107 2.793-.198 4.186-.272l-4.186.272Zm-34.12 5.832a1901.3 1901.3 0 0 0 4.759-.913l-2.717.178c-.685.241-1.366.486-2.042.735Zm15.375-7.979c-3.187.862-6.38 1.794-9.529 2.802-1.979.325-3.937.652-5.87.975l-.001 0-.741.124c-1.637.274-3.276.555-4.917.845l-1.831.121c-4.625.306-9.25.608-13.873.903-2.611-.418-5.03-.863-6.8-1.3l-.728-.174c-1.087-.258-2.331-.554-3.324-.958a4.603 4.603 0 0 1-.847-.43c.531-.765 1.508-1.274 3.028-1.647.814-.2 1.693-.341 2.625-.484l.209-.032c.846-.129 1.742-.265 2.57-.453 2.809-.639 6.394-1.326 10.162-1.991 2.026-.025 4.054-.041 6.081-.047 2.47-.007 5.057-.075 7.724-.145 4.053-.106 8.294-.218 12.599-.13 3.088.063 6.139.23 9.07.571-1.864.461-3.736.944-5.607 1.45Zm-48.745 6.117c.297.121.611.234.933.339-28.151 1.698-56.276 2.978-84.478 2.91 4.038-.738 8.026-1.6 11.904-2.438.89-.192 1.775-.384 2.653-.572 4.64-.994 9.268-2.053 13.879-3.177 18.723-2.209 37.514-3.71 56.361-4.432-1.467.527-2.899 1.394-3.753 2.972-.263.487-.4 1.047-.312 1.639.085.578.362 1.041.669 1.388.574.648 1.418 1.076 2.144 1.371Zm18.597-10.813c-18.323.23-36.596 1.211-54.805 2.878a507.962 507.962 0 0 0 7.768-2.285 913.564 913.564 0 0 1 5.662-1.689c10.772-3.188 22.3-6.6 32.198-11.853.608-.323 1.305-.95 1.754-1.555.184-.247.437-.635.555-1.102 3.669.1 7.152.172 9.98.21 47.732.662 95.538-.275 143.253-2.092 1.384 1.048 3.341 1.896 5.846 2.585l.056.015c-20.993.44-41.947 1.419-62.918 3.434a1520.904 1520.904 0 0 0-71.305 8.58 632.094 632.094 0 0 0-18.044 2.874Zm153.161-17.753c4.514 1.232 9.201 2.073 13.99 2.637 2.471-.025 4.942-.044 7.414-.058 4.135-.023 8.371-.126 12.664-.23 12.058-.292 24.564-.595 36.544.81a1495.07 1495.07 0 0 0 35.369-.956c22.396-5.712 45.173-10.352 68.115-13.753-7.075-.696-14.188-1.226-21.267-1.753-3.41-.254-6.811-.507-10.197-.778-21.14-1.692-42.307-2.725-63.499-3.374a357 357 0 0 1 1.384.305c.102.023.276.059.512.108 1.758.365 6.917 1.439 10.534 2.806 1.033.39 2.016.83 2.786 1.325.385.248.765.538 1.075.881.307.34.617.808.715 1.403.228 1.384-.765 2.309-1.622 2.823-.916.55-2.259 1.017-4.022 1.44-14.936 3.576-31.071 4.072-46.551 4.549l-.002 0c-4.306.132-8.562.263-12.727.458-10.399.488-20.805.943-31.215 1.357Zm83.834 7.334c-.085-.663-.463-1.125-.793-1.416 3.29-.077 6.579-.164 9.869-.262a614.002 614.002 0 0 0-9.157 2.567c.086-.267.123-.565.081-.89Zm67.531-7.753c-9.926.772-19.862 1.405-29.806 1.917 21.263-4.931 42.819-8.871 64.487-11.68 4.924.657 9.81 1.441 14.632 2.41 1.578.317 2.713.619 3.496.895l-.065.024c-2.661.981-7.579 1.726-9.583 2.023-14.256 2.111-28.735 3.288-43.161 4.41Zm-214.89 9.704c17.124-1.645 34.246-2.597 51.405-3.129a604.785 604.785 0 0 0-67.7 7.473l-1.77.295c-7.339 1.225-17.492 2.92-28.394 5.337-5.152-1.268-10.826-1.718-16.431-1.832-1.72-.035-3.455-.038-5.181-.023a1515.07 1515.07 0 0 1 68.071-8.121Zm-49.663 18.897a98.918 98.918 0 0 1-7.183 1.774c-2.641.531-5.284 1.057-7.93 1.576 4.631.304 9.266.545 13.906.736 5.234-1.857 11.541-3.615 17.727-5.16l-12.487.812-4.033.262Zm38.338-2.332-.007-.006.007.006Zm71.071-8.143a6814.5 6814.5 0 0 1-50.704 3.604c38.251-7.04 76.828-11.417 115.663-9.738-19.754 2.757-39.732 4.249-59.686 5.74l-.01 0-5.263.394Zm84.849-9.528-.01-.009.01.01Zm-40.454 39.151 6.713-.278c-2.07.338-4.136.695-6.199 1.07-1.116-.21-2.23-.435-3.339-.675l2.825-.117Zm-13.147.549c2.391.862 4.808 1.403 6.162 1.699-13.234 2.73-26.29 6.303-39.036 10.968-.361.132-.876.307-1.512.524l-.001 0-.001.001c-1.067.363-2.473.842-4.056 1.425-2.664.243-5.333.483-8.007.717-.839-.19-1.6-.366-2.274-.567-9.092-2.705-23.95-5.684-32.77-7.14-31.498-5.198-63.484-7.112-95.279-8.318-5.54-.21-11.082-.397-16.627-.559.296-.348.622-.706.979-1.074a1365.07 1365.07 0 0 0 24.252-3.19c2.672-.374 5.357-.739 8.052-1.105l.008-.001c2.217-.302 4.44-.604 6.667-.912.037.295.121.583.247.859.303.658.809 1.16 1.305 1.538.98.748 2.33 1.311 3.538 1.743.786.281 1.636.547 2.358.773l.003.001c.377.118.719.226.999.318 12.62 4.178 22.446 4.423 36.227 4.767l.186.004c31.859.794 71.201-.825 101.979-2.185 2.197-.097 4.397-.192 6.601-.286Zm13.658 3.294c-13.479 2.478-26.774 5.78-39.755 10.168 21.356-2.047 42.997-4.434 64.468-7.499-8.273-.424-16.572-1.173-24.713-2.669Zm-95.642 7.293c6.759 1.115 17.044 3.125 25.487 5.202-19.326.73-38.631 1.903-57.915 3.397-10.678.138-21.317-.013-31.869-.548a3.01 3.01 0 0 0-.071-.003l-.157-.007c-2.248-.096-18.664-.799-32.141-3.984-3.526-.833-6.81-1.827-9.564-3.007-2.775-1.189-4.898-2.518-6.213-3.964-1.268-1.394-1.75-2.843-1.423-4.481.093-.466.254-.965.497-1.497 6.157.173 12.313.378 18.466.612 31.764 1.204 63.597 3.114 94.903 8.28Zm-32.289 11.597c-7.836.607-15.67 1.268-23.501 1.973 10.998.143 21.992.629 32.887 1.582a809.673 809.673 0 0 1 35.427-5.559c-14.905 1.054-29.89 1.809-44.813 2.004Zm-89.387 31.787c8.902-3.364 22.14-7.445 31.926-10.157 11.237-1.166 22.459-2.413 33.664-3.678.262-.03 1.02-.105 2.201-.223l.008-.001c6.929-.689 28.346-2.82 49.312-5.608a788.252 788.252 0 0 0 11.424-1.599c2.653.485 5.293 1.006 7.921 1.565 2.063.44 4.042.961 5.675 1.553 1.688.612 2.806 1.23 3.335 1.769a1.3 1.3 0 0 1 .219.278c.017.031.025.052.03.065a.097.097 0 0 1 .005.021l0 .006-.003.013a.905.905 0 0 1-.154.276c-.458.6-1.733 1.508-4.507 2.602-14.526 5.731-30.691 8.406-46.271 10.985l-1.081.178c-15.58 2.581-31.281 4.844-47.03 6.497-8.677.391-17.3 1.094-25.956 2.123-4.705.267-9.41.466-14.113.588-1.183.031-2.621.105-4.19.186-3.324.171-7.233.372-10.541.256-2.481-.087-4.282-.351-5.167-.773a2.26 2.26 0 0 1-.162-.085c.05-.09.135-.22.283-.396.07-.083.288-.28.74-.583a21 21 0 0 1 1.61-.956c1.278-.696 2.854-1.454 4.42-2.168a152.957 152.957 0 0 1 6.402-2.734Zm116.715-22.641c.641-.085 1.28-.17 1.919-.257a341.106 341.106 0 0 0-19.723-2.311 807.958 807.958 0 0 0-46.717 9.855c4.354-.482 8.708-.971 13.06-1.462.281-.032 1.077-.111 2.309-.234l.006-.001c7.039-.7 28.284-2.816 49.146-5.59Zm26.439 1.673c-1.782-.646-3.867-1.193-5.968-1.644a334.822 334.822 0 0 0 9.952-1.779c.028.177.064.354.108.533.377 1.523 1.326 2.964 2.789 4.332 4.037 3.772 9.418 6.437 14.939 8.434 5.532 2.001 11.32 3.371 16.225 4.49 1.108.253 2.217.498 3.329.735a383.65 383.65 0 0 0-17.162 5.448c-.089.03-.212.071-.368.121l-.437.14c-.606.194-1.467.47-2.497.816l-.585-.048c-21.178-1.71-44.862-1.014-48.333-.78-13.602.921-27.142 2.445-40.611 4.434l-1.316-.012a950.36 950.36 0 0 0 20.975-3.247l1.212-.2c15.483-2.562 31.923-5.282 46.75-11.132 2.824-1.114 4.794-2.267 5.791-3.573.537-.703.855-1.535.755-2.445-.098-.881-.562-1.593-1.097-2.137-1.029-1.047-2.695-1.85-4.451-2.486Zm-14.57-3.338c6.872-1.022 13.357-2.101 18.873-3.207.088-.24.189-.476.301-.708.875-1.799 2.498-3.383 4.404-4.758a806.078 806.078 0 0 0-42.346 5.882 313.533 313.533 0 0 1 18.768 2.791Zm21.574-.274a3.098 3.098 0 0 1-.074-.41l.246-.052.295-.063c4.519-.968 8.331-1.97 11.008-2.992 1.326-.507 2.47-1.055 3.292-1.662.742-.547 1.686-1.494 1.526-2.834a4.791 4.791 0 0 0-.581-1.804 816.977 816.977 0 0 1 19.515-1.612c18.324-.085 36.662.303 55.014 1.27 19.649 1.035 40.272 2.426 59.902 6.529-26.071.487-52.232 3.657-76.011 12.182-1.014.364-1.923.736-2.688 1.12-10.383 2.069-20.656 4.476-30.762 7.252a248.67 248.67 0 0 1-8.973-1.87c-4.907-1.12-10.532-2.456-15.873-4.387-5.351-1.936-10.3-4.431-13.91-7.805-1.181-1.104-1.729-2.065-1.926-2.862Zm11.867-9.443c-.821.082-1.641.165-2.462.249a45.182 45.182 0 0 0-3.335 1.742c-2.058 1.195-3.713 2.438-4.788 3.677 3.82-.855 6.936-1.71 9.122-2.545 1.239-.473 2.085-.906 2.582-1.272a2.29 2.29 0 0 0 .296-.253c-.132-.593-.563-1.117-1.415-1.598Zm1.483 1.514-.009.015.009-.015Zm77.049-5.226c-4.115-.217-8.23-.405-12.344-.565 40.214-1.553 80.96-1.21 120.519 3.661.962.118 2.065.236 3.267.364l.002 0c3.278.35 7.304.78 11.283 1.524 2.704.506 5.325 1.148 7.599 1.987 2.29.844 4.127 1.851 5.352 3.032.718.693.643 1.025.627 1.091l0 .002c-.047.208-.283.59-.963 1.085-.694.506-1.551.924-2.347 1.263-7.173-.922-13.046-1.395-15.533-1.596l-.001 0-.638-.052c-14.328-1.182-29.313-2.128-44.464-2.309-23.414-6.481-48.758-8.244-72.359-9.487Zm4.692 18.715c21.601-4.996 44.557-6.483 67.246-6.231.24.066.479.134.718.202-22.584.742-45.427 2.657-67.964 6.029Zm-22.639 6.97c32.612-6.466 66.34-9.576 99.388-10.229 1.017.354 2.029.72 3.036 1.096 2.649.992 4.929 2.158 6.67 3.42 1.07.775 1.895 1.557 2.483 2.32-20.457 3.047-41.138 4.923-61.799 5.826-1.824.08-3.663.168-5.512.257-14.034.678-28.666 1.384-42.032-1.588-1.299-.289-2.163-.574-2.695-.825a6.038 6.038 0 0 1 .461-.277Zm49.909 5.43c20.979-.917 41.99-2.833 62.778-5.955-.012.676-.229 1.377-.7 2.12-.857 1.349-2.591 2.874-5.614 4.445-4.499 2.338-9.323 4.266-14.355 5.892-13.22.029-26.443-.201-39.627-.6-25.644-.776-51.796-1.572-77.143-5.702a441.154 441.154 0 0 1 20.931-4.855c.176.963.983 1.613 1.62 1.977.892.509 2.176.921 3.784 1.279 13.79 3.065 28.857 2.335 42.839 1.656 1.85-.089 3.681-.178 5.487-.257Zm2.391 8.9c9.668.293 19.362.495 29.064.571-2.453.589-4.933 1.13-7.429 1.632-7.562 1.522-15.187 2.683-22.604 3.812-3.93.598-7.803 1.188-11.577 1.817-21.345 3.562-42.797 6.382-64.369 7.44.705-1.128 1.137-2.271 1.236-3.422.119-1.377-.249-2.644-.985-3.763-1.411-2.146-4.159-3.728-7.447-4.956-4.969-1.855-11.851-3.139-19.41-4.026a389.364 389.364 0 0 1 19.579-5.964c27.578 5.154 56.172 6.019 83.893 6.858l.049.001Zm-79.752 14.121c-.279.393-.574.778-.885 1.154-9.808-.009-19.578.342-29.105.686-4.512-.193-8.835-.636-12.077-1.495-1.64-.434-2.907-.951-3.768-1.529-.852-.572-1.161-1.101-1.229-1.555a1.5 1.5 0 0 1 .011-.484c.236-.208.469-.476.623-.815.099-.218.154-.442.169-.663.314-.373.73-.78 1.27-1.22 1.626-1.322 3.966-2.602 6.504-3.753 2.724-1.236 5.55-2.271 7.765-3.027 10.073.862 19.312 2.281 25.313 4.522 3.162 1.18 5.13 2.485 5.991 3.793.4.609.558 1.212.502 1.857-.058.671-.358 1.508-1.084 2.529Zm-47.507 1.307c.682.458 1.475.851 2.345 1.191-34.523 1.784-69.001 5.512-103.143 10.537-26.554 3.908-53.501 8.714-79.293 16.538-.139.042-.379.109-.701.199-2.156.605-8.028 2.251-12.58 4.477-.947.462-1.859.96-2.685 1.492-9.473-2.084-18.897-4.348-28.259-6.728 23.18-9.275 47.614-16.033 72.083-21.974 45.696.506 92.16.841 137.521-6.217l.811-.124.006-.001c1.526-.234 3.587-.549 5.676-.959 1.98-.389 4.073-.879 5.809-1.498.364 1.314 1.294 2.318 2.41 3.067ZM75.447 240.312c-2.18.614-7.342 2.068-11.52 4.031 14.557 3.11 29.223 5.776 43.95 7.774 15.865-1.562 31.655-3.508 47.287-5.629 33.043-4.482 65.915-10.333 98.207-18.477 2.294-.579 4.861-1.157 7.602-1.774 5.966-1.343 12.753-2.871 19.325-4.991 7.153-2.307 13.765-5.237 18.523-9.183-1.691.051-3.383.092-5.075.12-.378.006-1.08.038-2.039.081l-.001.001c-3.738.169-11.36.514-18.697.207l-1.033.038c-39.073 1.41-78.158 5.43-116.836 11.123-26.508 3.901-53.281 8.682-78.859 16.44-.179.055-.463.135-.833.239l-.001 0Zm-48.925-1.766c9.952 2.568 19.987 5.017 30.086 7.27a5.8 5.8 0 0 0-.606.945c-.577 1.137-.684 2.429-.06 3.71.58 1.19 1.712 2.206 3.236 3.108a53.038 53.038 0 0 0 3.257 1.773c-20.556.824-41.105.675-61.465-.901.127-.234.282-.483.47-.747 2.588-3.636 6.965-6.676 11.887-9.27 4.159-2.191 8.563-3.993 12.388-5.558l.029-.012.778-.318Zm34.183 12.451c2.633 1.558 5.485 2.894 8.498 4.048a767.179 767.179 0 0 0 26.018-1.768c-11.776-1.884-23.495-4.153-35.131-6.693-.74.58-1.193 1.101-1.412 1.534-.203.4-.205.698-.038 1.039.21.433.77 1.073 2.065 1.84ZM.842 257.45c22.5 1.736 45.212 1.741 67.886.623a86.426 86.426 0 0 0 7.824 2.478 715.673 715.673 0 0 0-28.006 6.178 329.147 329.147 0 0 1-20.014-1.735 51.743 51.743 0 0 0-1.17-.11c-2.982-.265-10.305-.915-16.718-2.54-3.834-.972-7.053-2.228-8.82-3.765-.446-.387-.765-.763-.982-1.129Zm76.313.156c2.148.579 4.345 1.093 6.573 1.554a660.427 660.427 0 0 1 23.006-3.917 834.93 834.93 0 0 1-29.579 2.363Zm-17.397 9.584a696.213 696.213 0 0 1 23.947-4.973c1.549.313 3.106.599 4.665.864 7.028 1.193 14.186 1.953 20.885 2.626-16.523 1.282-33.04 1.911-49.497 1.483Zm51.719-4.277c1.688.169 3.348.335 4.973.504.13-.091.264-.181.402-.27 3.772-2.424 8.219-4.208 12.951-5.568a445.057 445.057 0 0 1-10.742-1.059 640.32 640.32 0 0 0-26.83 4.141c6.52.982 13.057 1.634 19.23 2.251l.016.001Zm5.875 5.126c2.511-.225 5.021-.463 7.53-.713 58.21 5.909 117.299 5.356 175.547 1.801 27.53-1.679 55.211-3.798 82.583-7.6l.009-.001.019-.003.082-.009.274-.032.338-.039a118.102 118.102 0 0 0 3.478-.454c2.29-.334 5.18-.831 7.671-1.501 1.242-.334 2.433-.724 3.417-1.179l.156-.073c32.826-1.023 65.781-2.568 98.478-5.768a47.39 47.39 0 0 1-.827.333c-5.712 2.238-12.473 3.664-13.972 3.98l-.005.001-.212.046c-15.705 3.389-31.861 5.235-47.931 7.072l-4.308.493c-75.592 8.698-151.541 11.798-227.663 12.111-3.296.014-6.613.046-9.946.079-21.731.213-44.09.432-64.88-4.569l-.113-.027-.015-.003c-.904-.214-4.752-1.121-7.577-2.531-.735-.367-1.35-.745-1.806-1.118a4.255 4.255 0 0 1-.327-.296Zm155.103-20.228-1.053.149a310.612 310.612 0 0 0-9.546 2.023c-1.121.255-2.345.397-3.502.525l-.287.031c-1.082.119-2.111.232-3.079.412-2.013.376-3.294.967-3.946 1.994.28.125.741.267 1.419.395.88.167 1.906.275 2.945.374l.203.019.231.022c.863.08 1.733.162 2.42.274 8.692 1.413 15.688 1.862 24.741 2.275 27.315 1.245 54.76.542 82.161-.161l.046-.001 6.549-.167c8.627-.217 17.266-.449 25.91-.716.193-.116.326-.215.416-.293-.307-.314-1.024-.802-2.457-1.405-9.452-3.977-20.922-4.478-31.599-4.945a630.81 630.81 0 0 1-3.983-.181c-29.115-1.429-58.421-1.36-87.589-.624Zm-24.224 4.015c.143-.282.303-.543.477-.785-4.381.579-8.762 1.152-13.14 1.724l-3.128.409c-.314.144-.671.283-1.061.42-2.662.934-5.422 1.307-8.114 1.52-1.22.096-2.37.157-3.497.217-1.475.079-2.913.156-4.418.306-1.734.173-3.424.339-5.086.501-6.443.893-12.91 1.814-19.395 2.737l-.001.001c-16.887 2.404-33.903 4.827-50.977 6.821 53.23 4.418 107.112 3.685 160.356.436 27.085-1.653 54.251-3.727 81.101-7.405-3.174.085-6.346.166-9.515.246l-6.612.169c-27.381.702-54.929 1.408-82.357.158-9.086-.414-16.22-.87-25.085-2.311-.577-.094-1.325-.164-2.199-.246l-.002 0-.257-.025a14.794 14.794 0 0 1-.199-.019c-1.033-.098-2.187-.217-3.218-.412-.972-.184-2.092-.477-2.887-1.062-.428-.316-.868-.794-1.045-1.48-.18-.697-.025-1.363.259-1.92Zm42.494-10.086c-7.139 1.033-12.894 1.933-18.922 3.087-.827.021-1.653.042-2.479.065-22.926.614-45.916 1.564-68.826 3.437a580.466 580.466 0 0 0-50.421 1.868c1.833-.243 3.663-.488 5.491-.736 33.122-4.493 66.108-10.363 98.537-18.541 2.161-.545 4.649-1.106 7.34-1.712l.002-.001c6.024-1.357 13.071-2.944 19.771-5.105 8.486-2.737 16.811-6.502 22.16-12.205.699-.03 1.398-.061 2.097-.095 12.891.126 25.737.949 38.125 3.303l.026.005c1.118.212 7.464 1.418 12.317 3.38 1.214.491 2.294 1.013 3.157 1.558.883.555 1.434 1.069 1.71 1.501.238.371.249.623.149.893-.136.366-.561.968-1.693 1.748-7.019 4.835-15.872 7.965-25.173 10.237a237.79 237.79 0 0 0-6.896.926c-1.625.243-2.837.451-3.702.631-.432.09-.795.176-1.089.261-.26.074-.582.179-.851.338a1.727 1.727 0 0 0-.58.543c-3.295.582-6.548 1.106-9.698 1.614l-.001 0c-2.172.35-4.295.692-6.35 1.04l-.429.072a918.511 918.511 0 0 0-13.772 1.888Zm-157.731 13.093a595.947 595.947 0 0 1 30.178-2.537c-1.944.241-4.013.473-6.166.713-5.263.589-11.02 1.232-16.636 2.206l-.563.099a408.703 408.703 0 0 1-6.813-.481Zm32.021.252c-2.446.322-5.049.613-7.751.915 10.175.16 20.353-.114 30.518-.894 7.829-.601 14.695-1.224 22.119-1.947a1932.29 1932.29 0 0 1 12.166-1.648l1.634-.216-.597-.014c-4.643-.1-10.157-.043-14.909.006-2.92.031-5.553.058-7.519.044l-.066-.001c-11.899.975-23.77 2.199-35.595 3.755Zm-43.536 8.872c5.302-2.691 11.755-4.409 18.504-5.627 9.483.581 18.982.823 28.481.667-14.494 1.994-29.032 3.858-43.579 5.314a982.444 982.444 0 0 1-3.406-.354Zm111.792-14.509c.168.102.395.265.589.515l1.332-.174c2.554-.334 5.109-.668 7.663-1.004-3.332.14-6.663.291-9.993.457.142.059.28.128.409.206ZM14.412 232.256c-2.38-.63-5.343-1.414-8.713-2.336 7.58-2.921 15.622-5.903 20.239-7.44 10.571-3.518 21.365-6.476 32.281-9.044 10.605.92 21.295 1.009 31.76 1.096l1.357.012c-22.009 5.612-43.915 12.116-64.777 20.742l-.253.105c-3.125-.809-6.243-1.63-9.352-2.461-.744-.199-1.589-.422-2.524-.669l-.018-.005Zm75.67-20.724c-7.124-.06-14.286-.121-21.41-.434 15.65-3.33 31.486-5.977 47.221-8.433a358.085 358.085 0 0 1 12.938-1.781 546.269 546.269 0 0 0 25.917-2.12c3.117-.139 6.242-.238 9.378-.296-13.457 2.39-26.835 5.185-40.126 8.242a1826.105 1826.105 0 0 0-21.075 4.955l-3.14-.035-4.015-.044c-1.892-.021-3.789-.037-5.688-.054Zm34.591-1.899c19.156-4.406 38.471-8.259 57.918-11.138 22.787.202 46.293.484 68.436 4.437.184.033.367.065.551.096l.005.001.364.063c-1.473.513-3.331.956-5.243 1.332-2.02.397-4.008.701-5.536.935l-.84.129c-41.129 6.4-83.199 6.688-124.977 6.306a2579.78 2579.78 0 0 1 9.322-2.161Zm131.451-10.25a13.04 13.04 0 0 0-1.369 1.273 11.794 11.794 0 0 0-1.295-.331 45.16 45.16 0 0 0-1.668-.304 15.803 15.803 0 0 1-.237-.042c-15.63-2.79-31.918-3.772-48.064-4.179a482.735 482.735 0 0 1 19.708-1.747c3.032-.206 22.651-.794 41.943.361-.621.259-1.244.53-1.861.81-2.616 1.187-5.233 2.592-7.157 4.159Zm185.191-28.347c-1.085-.786-2.321-1.52-3.672-2.195 7.956-.066 15.865.008 23.699.208 4.232.108 8.555.24 12.907.462-7.202 2.171-15.531 3.568-22.356 4.713l-.214.036c-2.13.357-4.262.702-6.397 1.033-.851-1.6-2.264-3.022-3.967-4.257Zm-298.455 6.092a813.282 813.282 0 0 1 52.198-11.966c-19.41-1.14-39.065-.941-58.44-.102-16.65 1.756-33.29 3.656-49.92 5.617-22.123 2.61-44.228 5.35-66.156 9.053l-.92.154-.002.001c-1.904.318-4.967.83-8.126 1.431-3.038.578-6.082 1.223-8.255 1.84l.369.054c18.396 2.732 37.96 1.828 56.775.958 1.522-.07 3.04-.14 4.551-.208 24.8-1.116 49.56-3.283 74.284-5.846 1.28-.354 2.5-.684 3.642-.986Zm-48.593 20.847a.053.053 0 0 0-.008-.01s0 .002.003.004l.005.006Zm20.167-62.071c-.977-.027-1.955-.052-2.932-.077 1.08-.123 2.16-.248 3.24-.375-.106.151-.209.302-.308.452Zm-29.037-.541c10.79-.861 21.555-1.988 32.31-3.284.162-.156.328-.311.498-.468 1.871-1.721 3.983-3.342 6.291-4.869a1588.382 1588.382 0 0 1-42.09 6.865 345.55 345.55 0 0 0-5.172 1.7c2.721.011 5.442.03 8.163.056Zm249.226 3.587c10.405 1.265 21.019 1.575 31.538 1.806 11.636-1.869 23.186-3.965 34.578-6.342l.01-.003c1.437-.299 3.11-.649 4.923-1.046a628.507 628.507 0 0 0-43.866 2.319c-9.103.802-18.177 1.866-27.183 3.266Z" clip-rule="evenodd"></path><path fill="#2e3120" fill-rule="evenodd" d="m500 202.981-1.04-.084c-1.073-.087-2.123-.172-3.139-.26-21.263-1.846-42.775-1.89-64.047-.768-18.69.986-37.772 2.467-56.259 6.031-.515.099-1.155.211-1.871.335l-.001.001c-2.102.366-4.864.847-7.062 1.471-1.425.405-2.924.947-3.844 1.741-.484.417-1.019 1.09-1.024 2.021-.005.921.512 1.637 1.059 2.14 1.026.943 2.413 1.567 3.831 2.003 1.438.441 3.037.728 4.594.922 2.302.286 4.661.385 6.366.457.578.024 1.082.045 1.482.069 22.896 1.381 45.902-.335 68.547-2.901 16.701-1.892 34.14-3.896 50.472-8.733.597-.177 1.246-.365 1.936-.564v-3.881Zm-68.068 1.884c20.611-1.087 41.417-1.072 61.975.621-15.079 4.084-31.053 5.925-46.653 7.692-22.582 2.559-45.388 4.253-68.028 2.887-.479-.029-1.039-.052-1.66-.078-1.692-.071-3.832-.16-5.998-.43-1.465-.183-2.875-.442-4.084-.813-1.121-.345-1.968-.756-2.527-1.21.459-.28 1.273-.609 2.444-.941 2.032-.577 4.519-1.011 6.593-1.372.768-.134 1.479-.258 2.089-.375 18.278-3.524 37.193-4.997 55.849-5.981Z" clip-rule="evenodd"></path><path fill="#2e3120" fill-rule="evenodd" d="M500 293.637c-5.981.154-10.211.336-11.185.396-32.006 1.98-64.461 6.183-95.771 13.192-2.466.552-4.992 1.13-7.555 1.742l-.002-.017c-.083-.766-.422-1.48-.791-2.058-.736-1.156-1.898-2.247-2.924-2.835-1.144-.656-3.041-1.354-5.248-2.045 17.663-1.723 35.274-3.804 52.77-6.418 1.628-.243 3.287-.481 4.969-.723 13.005-1.872 27.378-3.94 39.29-9.787 1.185-.582 2.127-1.177 2.82-1.801.687-.619 1.227-1.355 1.404-2.228.386-1.904-1.074-3.199-2.178-3.898-1.227-.778-2.845-1.374-4.344-1.814a37.166 37.166 0 0 0-4.119-.947c-32.735-5.524-69.002 1.717-100.271 9.689-9.083 2.316-19.018 5.003-27.821 9.538-14.045-2.403-28.25-4.152-42.437-5.158-34.436-2.442-69.477-3.835-104.227-2.084-12.715-1.281-25.87-1.156-38.023-1.041-3.19.031-6.31.06-9.336.064-30.082.034-59.964 2.617-89.647 7.225C37.11 295.464 17.953 298.46 0 304.231v3.154c17.927-5.875 37.197-8.898 55.834-11.792 29.55-4.587 59.278-7.156 89.191-7.189 3.073-.004 6.223-.033 9.427-.062 4.036-.037 8.158-.075 12.317-.063a465.758 465.758 0 0 0-16.609 1.943c-.923.125-1.854.249-2.793.373-7.996 1.06-16.489 2.186-24.246 4.884-1.549.538-2.95 1.182-4.049 1.904-1.043.685-2.056 1.598-2.432 2.767a2.956 2.956 0 0 0 .045 1.988c.247.644.696 1.168 1.227 1.591l.09.069c.038.03.078.059.118.088-36.886 1.992-75.25 6.587-109.463 19.064-.534.194-1.1.405-1.687.63a376.856 376.856 0 0 1-3.183-.484c-.889-.14-1.801-.28-2.734-.422L0 322.512v3.036l.634.097.038.005 1.078.166a38.55 38.55 0 0 0-1.75.905l0 4.905c5.366.825 10.75 1.395 16.256 1.925 3.796.365 7.596.695 11.398.993a341.974 341.974 0 0 0-23.348 4.625 77.783 77.783 0 0 1-2.435-1.007A24.386 24.386 0 0 1 0 337.26l0 6.048a305.01 305.01 0 0 1 4.092-1.006 86.78 86.78 0 0 0 2.476.899c-2.192.431-4.381.87-6.568 1.32l0 3.063c4.21-.869 8.43-1.702 12.662-2.501 15.577 4.271 32.777 5.162 48.582 5.981 3.158.164 6.26.324 9.283.509 22.737 1.385 45.381 1.595 68.107 1.112-43.59 3.86-87.612 5.538-131.139 4.136A403.77 403.77 0 0 1 0 356.472v3.004c4.034.221 6.995.33 7.399.343 56.78 1.83 114.371-1.567 170.72-8.199l1.414-.169c22.915-.848 45.84-2.042 68.687-4.087-12.251 1.949-24.437 4.263-36.464 6.981-4.248.96-12.25 2.856-18.202 4.953-1.493.526-2.881 1.073-4.061 1.63-1.159.548-2.207 1.146-2.954 1.8-.673.588-1.553 1.629-1.23 2.982.297 1.241 1.452 1.952 2.502 2.399 4.43 1.882 10.184 2.352 15.733 2.382 2.798.016 5.595-.082 8.205-.185l1.025-.04c2.229-.09 4.29-.172 6.105-.181 30.254-.158 60.44-2.447 90.462-5.687 6.864-.741 13.799-1.494 20.748-2.356.653.417 1.409.774 2.19 1.084 1.143.452 2.447.844 3.783 1.182 5.221 1.32 11.754 1.977 11.498 1.93 12.085 2.196 24.229 3.937 36.409 5.357-24.284-.692-48.468-.585-72.65.746-4.816-1.241-10.129-1.755-15.38-1.959-4.227-.165-8.509-.13-12.491-.097h-.002a402.25 402.25 0 0 1-5.842.021c-19.908-.128-39.832.731-59.685 2.221-22.78-.997-45.626-1.141-68.341-1.075-36.39.107-72.846 1.944-108.674 7.965-13.714-.803-27.502-1.857-40.904-3.975l0 3.034c9.467 1.477 19.11 2.436 28.75 3.152a410.33 410.33 0 0 0-28.75 6.7l0 3.11c13.558-3.72 27.256-6.675 41.056-9.005 4.033.235 8.05.449 12.04.66 6.59.35 13.102.696 19.478 1.129 10.6.721 21.209 1.432 31.825 2.088-13.32 2.273-26.588 4.828-39.775 7.727-21.307 4.684-43.315 9.792-64.624 16.46l0 5.617c6.099.395 12.147.663 17.707.909l.35.016c63.096 2.794 126.144-4.936 188.253-14.54 4.834-.747 9.673-1.506 14.512-2.283.57.232 1.181.446 1.834.643-7.255 1.165-14.472 2.55-21.598 4.269-.693.167-1.507.356-2.405.565l-.004.001c-3.789.882-9.082 2.114-13.222 3.514-1.289.437-2.497.899-3.532 1.384-1.017.476-1.954 1.014-2.64 1.629-.651.586-1.38 1.529-1.197 2.761l.013.078.012.062c-25.26 3.755-50.344 8.566-75.258 14.077-25.455 5.631-51.103 11.651-76.048 19.571-7.144.078-16.975.07-26.777-.174v3.001c6.05.15 12.098.21 17.514.216l-.263.09-1.003.339c-2.024.684-4.96 1.675-7.921 2.829-2.945 1.147-6.04 2.501-8.327 3.933v6.717l.158.037c.578.131 1.202.238 1.744.331l.003.001.002 0 .387.067c10.567 1.856 21.719 2.423 32.943 2.358-8.338 2.35-16.65 5.151-24.253 9.083-3.02 1.561-5.025 3.044-5.928 4.565-.488.822-.703 1.738-.473 2.672.22.897.795 1.583 1.422 2.092 1.218.988 3.074 1.669 4.973 2.173 1.953.518 4.169.903 6.27 1.198 13.72 1.924 27.71 2.441 41.642 2.561 5.068 1.692 10.406 2.476 15.55 3.232l.005.001 1.79.264c21.826 3.263 43.838 3.881 65.792 3.205 2.67.181 4.667.197 4.607.193 3.691.277 7.386.525 11.083.746h125.595c7.503-.27 14.994-.557 22.47-.843l1.676-.064c59.945-2.293 120.12-6.596 179.548-15.083 1.922-.275 4.347-.508 7.108-.775l2.294-.222c1.161-.115 2.363-.237 3.592-.372v-3.018c-1.325.147-2.626.28-3.886.404l-2.242.218-.002 0c-2.773.267-5.291.51-7.288.795-59.292 8.468-119.357 12.765-179.239 15.055l-1.597.062c-12.377.473-24.786.948-37.21 1.346a4.89 4.89 0 0 1 .485-1.255c1.107-2.053 3.687-4.146 7.046-6.103 4.087-2.381 8.924-4.337 12.532-5.661 2.57-.406 5.137-.821 7.701-1.244.895-.147 16.553-2.807 31.687-6.058 7.56-1.623 15.034-3.403 20.478-5.1 2.706-.843 4.996-1.691 6.554-2.521.761-.405 1.479-.873 1.969-1.427.394-.445.784-1.139.688-1.937 2.5-.484 4.999-.956 7.496-1.416 1.247-.23 2.498-.454 3.752-.673 4.295-.336 8.59-.67 12.884-.999 7.677-.589 15.375-1.126 23.079-1.663 13.411-.935 26.844-1.872 40.225-3.089 1.109-.101 2.935-.269 5.167-.489 3.185.051 6.368.137 9.546.256 13.524 2.016 26.941 4.598 40.175 7.805v-3.086a439.515 439.515 0 0 0-12.369-2.787c4.144.423 8.268.905 12.369 1.447v-3.026a430.688 430.688 0 0 0-30.693-2.9c2.216-.352 4.143-.718 5.527-1.086a7.446 7.446 0 0 0 2.072-.951c.293-.2.742-.546 1.012-1.051.15-.28.289-.695.214-1.187a1.882 1.882 0 0 0-.646-1.144c-1.05-.906-2.321-1.254-3.428-1.433a23.542 23.542 0 0 0-1.636-.19l-.169-.015c-.461-.041-.875-.077-1.271-.132a286.504 286.504 0 0 0-5.912-.745 402.412 402.412 0 0 0 7.53-1.644c10.15-2.325 19.977-5.043 27.4-8.09v-3.255c-7.263 3.131-17.383 5.973-28.07 8.42-5.71 1.308-11.554 2.496-17.169 3.552-20.488-1.698-41.404-1.624-61.764-1.553l-.015 0c-2.886.01-5.761.02-8.622.025-38.712.068-77.335 1.877-115.897 5.029-20.321 1.66-40.605 3.71-60.867 5.79-4.232.435-8.601.713-13.077.999-3.308.211-6.675.426-10.086.71-3.437.287-6.883.642-10.276 1.134a548.39 548.39 0 0 0-13.898.938 1364.078 1364.078 0 0 0 49.757-6.045l.583-.082c15.458-2.173 31.892-4.483 46.983-9.255l.162-.051c.77-.239 2.826-.879 4.082-1.678.316-.201.691-.478.984-.843 13.403-.246 26.8-.633 40.191-1.072 65.696-2.153 131.402-5.442 196.999-9.64v-3.006c-65.633 4.202-131.371 7.493-197.098 9.648-13.457.441-26.912.829-40.364 1.074a3.597 3.597 0 0 0-.755-.491c-.523-.261-1.189-.473-1.981-.655-2.158-.496-7.064-.925-11.641-1.236-4.629-.316-9.127-.523-10.578-.549-15.695-.289-31.383.696-46.989 2.359l-.243-.01a35.59 35.59 0 0 0-.638-.002h-.002c-.375 0-.902 0-1.558-.002a1085.728 1085.728 0 0 0 65.626-12.156c1.321-.287 2.687-.568 4.085-.85 38.221 1.462 76.533 1.538 114.731.993 42.298-.603 85.099-2.015 127.405-6.011v-3.013c-42.278 4.004-85.084 5.421-127.448 6.025-34.127.486-68.324.477-102.452-.574 5.57-1.328 11.095-2.996 15.902-5.434 1.248-.633 2.223-1.288 2.89-1.992.678-.716 1.15-1.609 1.064-2.635-.083-.995-.662-1.746-1.25-2.266-.595-.527-1.348-.952-2.115-1.298-3.018-1.365-7.541-2.078-9.065-2.178-21.941-1.445-44.639 1.005-66.396 3.55a504.155 504.155 0 0 1 31.01-6.609c13.465 1.32 27.237.969 40.304.376 30.844-1.4 61.674-4.034 92.379-7.285.051.089.104.178.159.266 1.069 1.711 2.846 3.175 4.792 4.407 3.913 2.478 9.072 4.36 12.582 5.49 11.878 3.823 24.711 3.713 36.705 2.908 13.671-.918 27.64-2.79 41.374-5.384 6.05 1.483 11.972 3.319 17.681 5.657 3.802 1.557 8.019 3.48 11.884 5.813v-3.475c-3.65-2.066-7.43-3.756-10.747-5.114-3.96-1.622-8.017-3.007-12.14-4.202a399.14 399.14 0 0 0 13.091-2.937c3.266.293 6.532.598 9.796.916v-3.015l-1.381-.133c.449-.145.911-.301 1.381-.465v-3.188a55.623 55.623 0 0 1-5.237 1.657c-1.587.407-3.182.806-4.785 1.195a1487.795 1487.795 0 0 0-24.095-1.948c-17.085-1.246-34.242-2.272-51.435-3.002 9.98-1.267 19.953-2.643 29.905-4.136 18.705.418 37.489 1.114 55.647 4.56v-3.05c-13.025-2.432-26.313-3.479-39.566-4.029 4.281-.699 8.557-1.421 12.827-2.166.185-.032.618-.089 1.247-.173 1.262-.168 3.314-.441 5.729-.825 1.611.286 3.222.581 4.832.885 1.292.245 2.844.474 4.499.719l.035.005.957.142c2.045.304 4.231.645 6.386 1.083 1.048.213 2.071.446 3.054.704v-3.096a63.83 63.83 0 0 0-2.456-.548c-2.238-.455-4.49-.805-6.542-1.111l-1.012-.15c-.494-.073-.971-.143-1.431-.213 3.408-.781 6.83-1.774 9.426-3.022l.096-.046 1.919.011v-9.735c-.929-.575-2.031-1.059-3.215-1.474-3.168-1.112-7.321-1.865-11.456-2.389-6.608-.837-13.52-1.12-16.65-1.248-.776-.032-1.32-.054-1.568-.073-18.06-1.369-36.129-1.664-54.166-1.959h-.001l-.025 0a3774.07 3774.07 0 0 1-13.067-.229 1.5 1.5 0 0 0-.06 3c4.384.086 8.763.158 13.137.23l.006 0c18.029.295 35.987.588 53.949 1.949.334.026.985.053 1.884.09 3.26.135 9.773.405 16.184 1.216 4.078.517 7.978 1.24 10.839 2.244 1.437.504 2.514 1.046 3.212 1.599.691.548.852.972.861 1.267.009.273-.103.659-.629 1.186-.424.425-1.046.866-1.866 1.309-28.246-.213-56.55-1.589-84.579-3.875-21.704-1.771-43.304-4.231-64.694-8.116a10.257 10.257 0 0 0-.411-.048c-1.454-.161-6.427-.712-10.888-1.84l-.208-.053a31.844 31.844 0 0 1-.363-.095c13.511-1.815 27.01-4.148 40.079-7.708a63.448 63.448 0 0 0 5.949-1.931c2.216-.853 4.57-1.944 6.313-3.249l.204-.156c20.884-.008 41.83-.853 62.761-2.237 13.054 1.704 26.017 3.887 38.843 6.61 3.169.673 6.386 1.366 9.625 2.099v-3.076a792.89 792.89 0 0 0-9.002-1.958 488.016 488.016 0 0 0-25.406-4.683A1664.192 1664.192 0 0 0 500 341.93v-3.014c-16.1 1.577-32.235 2.97-48.372 4.041a566.053 566.053 0 0 0-28.33-2.945c2.838-.359 5.676-.712 8.515-1.06 22.627-2.774 45.384-5.004 68.187-6.571v-3.007c-22.93 1.571-45.81 3.813-68.552 6.6-7.841.961-15.683 1.962-23.519 3.019a657.864 657.864 0 0 0-21.024-.791 25.457 25.457 0 0 0-1.811-.904c-6.905-3.134-14.509-5.245-22.331-6.74 2.777-.688 5.755-1.501 8.624-2.437 4.205-1.372 8.316-3.051 11.301-5.068 1.918-1.296 3.604-2.9 4.365-4.815 23.636.78 47.354.853 70.984.085 13.935-.452 27.968-1.044 41.963-2.14v-3.01c-13.996 1.103-28.057 1.697-42.06 2.152-23.467.762-47.026.693-70.511-.077l-.015-.108-.014-.089a8.005 8.005 0 0 0-1.254-3.156c2.554-.61 5.079-1.188 7.553-1.742 31.132-6.97 63.428-11.154 95.301-13.125.936-.058 5.098-.238 11-.39v-3.001ZM3.262 328.417a60.315 60.315 0 0 1 4.057-1.754c16.818 2.438 33.834 3.656 50.846 4.107-5.47.479-10.93 1.055-16.372 1.738a692.908 692.908 0 0 1-25.25-1.944c-4.877-.469-9.614-.966-14.302-1.638.332-.172.673-.342 1.02-.509Zm58.592 5.053a516.12 516.12 0 0 1 14.784-.971c-3.236.368-6.47.75-9.702 1.149a1075.06 1075.06 0 0 1-5.082-.178Zm-19.963 2.049c2.588.153 5.177.294 7.767.423a844.6 844.6 0 0 0-36.873 6.065 96.112 96.112 0 0 1-3.204-.963c10.67-2.347 21.453-4.153 32.31-5.525Zm25.18 1.135c-15.818 1.957-31.563 4.301-47.178 7.099 13.405 2.847 27.778 3.597 41.428 4.308l.002.001c3.175.165 6.311.329 9.387.516 25.101 1.53 50.11 1.621 75.272.926 11.104-.306 22.212-.636 33.316-1.047 6.617-.801 21.156-2.683 26.973-4.15 1.268-.319 3.391-1.204 4.877-2.189.553-.367.912-.679 1.115-.907-.97-.643-2.598-1.324-4.709-1.99-1.938-.612-4.162-1.176-6.415-1.676-21.445.608-42.966.382-64.381.158-5.543-.058-11.079-.116-16.604-.16-17.656-.139-35.373-.311-53.083-.889Zm202.232 5.543c-20.715 2.389-41.527 3.941-62.377 5.039l.078-.02c1.587-.4 4.025-1.419 5.803-2.598.855-.568 1.769-1.307 2.256-2.188.26-.47.46-1.094.331-1.794-.132-.717-.563-1.26-1.071-1.642-.874-.658-2.076-1.251-3.442-1.786 2.673-.11 5.345-.235 8.014-.377 15.548-.823 31.193-2.705 46.505-5.426l.029-.005.08-.012.261-.04a93.939 93.939 0 0 0 3.646-.629c2.22-.427 5.074-1.062 7.757-1.923 1.334-.429 2.68-.929 3.903-1.514 14.321.317 28.624.953 42.89 2.067 1.609.125 3.241.248 4.89.372l.014.001.002.001c2.507.188 5.055.38 7.626.589-.318.492-.606.997-.854 1.51a11.163 11.163 0 0 0-.631 1.603c-18.431 3.416-37.274 5.548-55.95 7.661l-.001 0c-3.259.369-6.513.737-9.759 1.111Zm-50.567-8.361a717.17 717.17 0 0 1-17.312.699l-.783-.169a179.555 179.555 0 0 0-12.042-2.102c-4.893-.662-10.322-1.198-15.892-1.631 30.35.042 60.77-.59 91.073-2.374l3.593-.214c-.983.172-1.744.289-2.165.354l-.002 0-.331.052c-15.202 2.702-30.724 4.568-46.139 5.385Zm118.563-14.897c-17.425 2.173-34.564 3.699-51.874 4.923.271-.448.473-.94.573-1.479.232-1.254-.143-2.48-.964-3.604-.705-.965-1.811-1.791-2.958-2.481-1.177-.708-2.532-1.352-3.861-1.911a59.166 59.166 0 0 0-6.56-2.284c-2.873-.797-6.228-1.551-9.742-2.24 3.199-.152 6.396-.317 9.592-.495 18.019-1.003 36.114-2.023 54.217-3.244.199 1.655 1.379 2.86 2.63 3.689 1.451.961 3.357 1.674 5.212 2.233 1.697.511 3.462.923 4.956 1.272l.457.107c5.921 1.389 11.893 2.333 17.888 3-9.275 1.48-17.66 2.322-19.287 2.486l-.279.028Zm-65.961-12.567c-7.96.443-15.927.807-23.897 1.087-2.178-.305-4.239-.57-6.093-.789a636.433 636.433 0 0 1 24.19-1.56 797.486 797.486 0 0 1 41.053-.768c-11.764.718-23.521 1.377-35.253 2.03Zm-5.933-4.259c-13.203.588-26.368 1.641-39.502 2.972l-.697-.062c1.01-1.235 1.624-2.506 1.816-3.802.232-1.571-.182-3.004-.962-4.229-1.503-2.361-4.417-4.043-7.237-5.057-3.52-1.265-7.183-2.295-10.946-3.132 29.528-.736 59.211.576 88.518 2.655 12.854.911 25.727 2.438 38.483 4.512a51.599 51.599 0 0 0-5.457 3.856c-.79.642-1.472 1.285-2.028 1.931a801.99 801.99 0 0 0-61.988.356Zm-43.004 1.555c-.335.352-.684.694-1.046 1.027-26.128-2.138-52.48-2.609-78.602-1.819-5.358.162-10.777.356-16.238.598a127.36 127.36 0 0 1-3.222-.721c-1.931-.46-3-.964-3.514-1.373-.202-.16-.268-.267-.286-.302l.002-.009c.054-.165.339-.597 1.224-1.179.829-.544 1.986-1.091 3.387-1.578 7.449-2.59 15.625-3.676 23.666-4.744l.004 0 2.787-.373c13.828-1.874 27.769-3.097 41.766-3.807 8.927.91 17.58 2.531 25.479 5.37 2.591.932 4.75 2.319 5.722 3.846.458.719.634 1.434.524 2.178-.113.766-.555 1.735-1.653 2.886ZM13.366 324.462c35.36-12.209 75.019-16.276 112.906-17.974 17 3.532 35.153 3.935 52.397 4.269-3.752.496-7.503.995-11.251 1.495l-5.132.683c-4.123.548-8.293 1.057-12.488 1.568l-.007.001c-14.529 1.77-29.353 3.577-43.51 7.201l-.097.024-.145.035c-.849.207-3.305.804-4.919 1.503-.457.198-.955.448-1.348.759-.28.22-1.113.951-.85 2.079.122.528.446.885.718 1.103.172.138.359.25.547.342-2.58.091-5.163.165-7.748.223-26.348.591-52.948.052-79.073-3.311Zm172.395-16.563c4.509.099 9.019.168 13.53.208 3.464-.428 6.93-.846 10.398-1.25-22.25-1.41-44.625-1.654-66.845-.982l-.886.027c12.435 1.383 25.211 1.631 37.665 1.873 2.056.04 4.103.079 6.138.124Zm-17.978 7.331c10.558-1.407 21.116-2.813 31.68-4.121 3.684.032 7.368.044 11.052.038-2.428.975-5.008 1.813-7.664 2.55-5.525 1.532-11.209 2.583-16.396 3.543-2.148.397-4.211.779-6.142 1.172-21.197 4.318-42.542 6.972-64.067 8.346a180.892 180.892 0 0 1-12.183-1.359 49.768 49.768 0 0 1 2.628-.705l.16-.04.174-.043c13.95-3.571 28.512-5.346 43.007-7.114l.005 0c4.226-.515 8.447-1.03 12.645-1.588l5.092-.678.009-.001Zm79.5-4.764c-9.911.347-19.829.564-29.747.646-4.192 2.391-9.012 4.125-13.883 5.476-5.659 1.569-11.564 2.662-16.797 3.63l-.001 0c-2.111.39-4.112.761-5.943 1.134a446.95 446.95 0 0 1-32.021 5.299c15.612-.811 31.197-1.362 46.701-1.717 27.973-.64 56.084-1.263 84.159-.681l.768-.052c.666-.361 1.23-.736 1.667-1.122.583-.516.805-.936.862-1.241.047-.258.021-.662-.437-1.29-.349-.478-1.045-1.055-2.082-1.68-1.009-.607-2.222-1.188-3.476-1.716a56.143 56.143 0 0 0-6.199-2.158c-6.556-1.818-15.775-3.427-23.571-4.528Zm-145.691 15.948-.001.002c.002 0 .014-.01.032-.03a.274.274 0 0 0-.031.028Zm230.027-24.506c2.45-1.954 5.11-3.654 7.915-5.156 3.96.687 7.906 1.426 11.835 2.215 1.301.261 4.145.857 7.59 1.634-6.77.577-13.547 1.109-20.326 1.607-2.336-.11-4.674-.21-7.014-.3Zm97.232-9.281c-20.02 2.991-40.195 5.283-60.437 7.138-.608-.153-1.218-.305-1.828-.455a403.445 403.445 0 0 0-14.626-3.285 463.778 463.778 0 0 0-7.844-1.504c7.469-3.315 15.655-5.531 23.49-7.529 31.252-7.968 66.975-15.048 99.031-9.638.99.167 2.384.46 3.773.867 1.412.415 2.712.918 3.584 1.47.437.277.675.51.785.668.035.052.05.085.055.1l.001.003c-.008.034-.075.237-.469.592-.412.37-1.087.822-2.135 1.337-11.454 5.622-25.317 7.622-38.387 9.508l-.003 0c-1.679.242-3.344.483-4.99.728Zm-68.422 10.859c2.583-.222 5.164-.451 7.745-.686a162.13 162.13 0 0 1 6.505 1.783c2.649.798 4.63 1.52 5.602 2.077.517.297 1.202.904 1.689 1.56-2.65-1.505-5.983-2.511-9.33-3.204-4.282-.888-8.779-1.299-12.211-1.53Zm11.602 4.467c2.852.591 5.518 1.386 7.657 2.45-4.469 1.149-8.996 2.419-13.461 3.855-8.96-.641-17.834-1.706-26.565-3.753l-.453-.107c-1.506-.352-3.179-.743-4.78-1.225-1.783-.536-3.345-1.149-4.419-1.861-.82-.543-1.164-1.007-1.274-1.393 3.312-.228 6.624-.463 9.936-.706 5.645.268 11.278.597 16.893.987.487.033 1.086.067 1.775.106 3.475.195 9.253.521 14.691 1.647Zm-8.498 10.366c1.554-.291 3.099-.599 4.607-.924 4.056.261 8.113.444 12.161.601 1.135.043 2.27.086 3.405.126-.56.781-1.441 1.596-2.698 2.445-2.633 1.78-6.425 3.355-10.552 4.702-5.531 1.805-11.414 3.125-15.516 3.992-4.034-.576-8.083-1.028-12.084-1.407a16.036 16.036 0 0 1 1.876-1.263c5.743-3.262 12.146-5.967 18.801-8.272Zm20.824-3.175c-.223-.89-.698-1.71-1.417-2.467l-.313.078c-.762.43-1.613.83-2.52 1.204a40.6 40.6 0 0 1-2.492.926 1296.3 1296.3 0 0 0 6.742.259Zm-44.356 15.465c2.022.178 4.054.371 6.089.587a344.97 344.97 0 0 1-7.555 1.559c.394-.735.896-1.459 1.466-2.146Zm-30.164 9.803c8.312-1.114 16.609-2.369 24.832-3.873a6.743 6.743 0 0 0 .657 2.338c-8.521.39-17.022.907-25.489 1.535Zm27.885-3.725c.139.66.471 1.352 1.125 2.037 13.387-.557 26.821-.794 40.253-.649-7.512-2.795-15.711-4.555-24.058-5.768l-1.611.336c-1.011.209-1.804.374-2.315.493a339.42 339.42 0 0 1-13.477 2.847c.007.242.035.477.083.704Zm-45.087 8.166c14.944-1.374 30.013-2.431 45.137-3.081.249.191.513.377.792.556 4.041 2.598 9.124 4.076 14.501 4.912-1.333.238-2.667.495-3.989.776-6.838 1.452-13.656 3.605-18.918 7.394-1.105.795-2.008 1.777-2.184 3.009-.043.302-.038.589.003.859-6.331.77-12.664 1.457-18.958 2.137-29.962 3.234-60.039 5.513-90.156 5.67-1.871.009-3.989.094-6.21.183l-.814.032-.208.009c-2.607.102-5.346.197-8.071.182-5.496-.03-10.733-.51-14.576-2.143a4.226 4.226 0 0 1-.56-.281l.065-.059.025-.022c.434-.38 1.184-.837 2.26-1.345 1.055-.498 2.339-1.007 3.777-1.513 5.768-2.033 13.614-3.896 17.867-4.857 26.286-5.94 53.358-9.947 80.217-12.418Zm68.325.198c1.677.103 3.355.168 5.019.205.942-.141 1.856-.283 2.736-.428a1226.743 1226.743 0 0 1 18.44-2.89 10.566 10.566 0 0 0-1.087-.753c-14.201-.295-28.418-.15-42.595.361 4.899 2.137 11.05 3.108 17.487 3.505Zm1.946 3.688c1.111-.161 2.204-.319 3.276-.479 3.748.077 7.435.026 10.809-.021 2.039-.029 3.963-.056 5.718-.051-.5.216-1.014.425-1.532.624a60.72 60.72 0 0 1-5.661 1.836c-14.459 3.939-29.473 6.362-44.525 8.258a.418.418 0 0 1-.038-.066l-.005-.012a.808.808 0 0 1 .144-.244c.143-.185.396-.435.818-.739 4.751-3.421 11.077-5.469 17.789-6.895 4.458-.947 8.955-1.597 13.206-2.211l.001 0Zm22.71-3.537c.678.003 1.355.004 2.033.005a4.23 4.23 0 0 0 .318-.357l-2.351.352Zm5.573.001c14.298-.05 28.627-.488 42.964-1.218a598.814 598.814 0 0 0-26.104-1.981c-5.551.75-11.1 1.527-16.641 2.338a4.183 4.183 0 0 1-.219.861Zm-.544-3.908.727.021-.652.095a3.787 3.787 0 0 0-.075-.116Zm74.978 36.27c7.768.287 15.541.495 23.313.616-.387.094-.778.186-1.171.276a121.505 121.505 0 0 1-7.499 1.434 447.112 447.112 0 0 0-14.643-2.326Zm-45.866-1.422c17.131.965 34.035 2.596 50.88 5.198-8.8 1.519-17.627 2.94-26.471 4.268-1.918-.042-3.833-.082-5.744-.121l-2.756-.058c-2.482-.052-4.971-.118-7.465-.184l-.003 0c-7.11-.188-14.259-.377-21.395-.253-.962.017-1.93.03-2.902.043-6.127.08-12.434.162-18.586 1.292l-.365.066-.469.083c-1.526.27-3.34.59-4.964 1.149-1.934.666-3.947 1.78-4.96 3.899a4.432 4.432 0 0 0-.047.099c-38.443-.502-76.922.771-115.031 4.679-9.48.972-19.046 1.995-28.579 3.324-.977-.18-1.95-.371-2.918-.575 20.007-3.295 40.002-6.967 59.737-11.534l.366-.085.002 0c4.774-1.105 13.481-3.119 19.996-5.26 1.676-.551 3.23-1.118 4.548-1.687 1.295-.56 2.45-1.161 3.269-1.803.408-.32.816-.713 1.095-1.193.295-.509.475-1.174.269-1.896a2.416 2.416 0 0 0-.231-.541c34.093-1.616 68.236-.854 102.724 1.09Zm-12.902 11.85c6.415-.112 12.82.032 19.253.199a1389.129 1389.129 0 0 1-28.57 3.581l-2.48.284c-5.627-.162-11.257-.289-16.887-.379.573-.482 1.348-.88 2.322-1.215 1.38-.475 2.916-.748 4.445-1.019.307-.055.614-.109.919-.165 5.882-1.08 11.908-1.161 18.051-1.243l.007 0c.977-.013 1.957-.026 2.94-.043Zm-303.382 44.136c21.175-4.684 42.462-8.859 63.867-12.307-.853.279-1.705.569-2.547.871-3.502 1.255-6.956 2.746-9.748 4.513-2.752 1.741-5.087 3.892-5.993 6.559-.275.809-.297 1.636-.037 2.43.253.772.739 1.409 1.313 1.928 1.118 1.011 2.775 1.761 4.611 2.349 1.407.45 3.019.835 4.758 1.165-40.511 5.177-81.327 8.135-122.138 8.964 21.681-6.426 43.833-11.588 65.914-16.472Zm-76.212 19.636c44.955-.517 89.95-3.604 134.574-9.378a1479.92 1479.92 0 0 0-14.041 2.138c-32.424 5.073-64.666 11.729-96.452 19.793l-2.753.696-.768.193c-15.302.617-30.7.508-45.008-2.005l-.44-.076a30.472 30.472 0 0 1-1.552-.294 8.13 8.13 0 0 1-.73-.196c.145-.132.332-.286.571-.461 1.968-1.45 5.297-2.962 8.754-4.309 2.89-1.126 5.75-2.092 7.778-2.777l1.024-.346a476.43 476.43 0 0 1 9.04-2.978l.003 0Zm-14.899 28.497c11.02-5.699 23.616-8.967 35.888-12.068 6.956-.284 13.863-.713 20.6-1.132 4.119-.256 8.173-.509 12.136-.721 20.665-1.107 41.364-2.574 62.026-4.465l-.497.058c-23.984 2.777-47.896 8.169-70.894 15.29-.95.294-1.921.579-2.906.868l-.006.001c-3.195.937-6.526 1.913-9.623 3.353-.335.156-.683.304-1.068.466-.2.085-.408.173-.63.269-.618.267-1.294.574-1.925.94-1.206.7-2.626 1.831-2.85 3.712-.143 1.206.328 2.195.968 2.959-12.067-.206-24.09-.806-35.916-2.465-2.05-.288-4.132-.653-5.917-1.127-1.84-.488-3.16-1.041-3.852-1.602-.327-.266-.39-.435-.4-.479-.004-.013-.036-.128.14-.424.434-.732 1.745-1.891 4.726-3.433Zm197.702-29.145c15.081-2.121 30.806-4.331 45.296-8.752-21.549.305-43.109.202-64.668-.683-14.196 1.519-28.355 3.603-42.434 5.806-28.434 4.449-56.731 10.12-84.704 16.893 1.679-.102 3.351-.206 5.015-.309 4.143-.257 8.237-.511 12.257-.727 43.006-2.304 86.142-6.169 128.772-12.163l.466-.065Zm27.464-11.801c-5.42-.099-10.84-.046-16.26.136 6.883.074 13.767.085 20.652.047a167.974 167.974 0 0 0-4.392-.183Zm-65.997-1.256a1088.758 1088.758 0 0 0 74.253-12.913c-3.14-.145-6.28-.3-9.419-.465-11.673-.615-28.673-1.829-40.832-3.507-.61-.084-3.701-.575-6.978-1.24-1.64-.333-3.347-.714-4.823-1.113-.3-.082-.598-.166-.889-.252-1.029.294-2.288.624-3.707.996-3.739.981-8.597 2.254-13.331 3.951-3.412 1.223-6.632 2.627-9.156 4.224-2.563 1.622-4.184 3.303-4.756 4.989-.084.246-.069.405-.027.531.048.147.172.364.475.638.636.575 1.799 1.167 3.512 1.716 3.384 1.083 8.254 1.795 13.351 2.254.776.07 1.553.133 2.327.191Zm18.504-21.606-1.461.422.578.119c3.221.654 6.25 1.134 6.791 1.209 12.03 1.659 28.93 2.869 40.579 3.482 7.026.37 14.056.688 21.089.958l1.855-.372.047-.01c8.654-1.734 17.765-3.559 25.132-7.295 1.105-.561 1.738-1.031 2.07-1.381.156-.165.218-.272.241-.325a1.133 1.133 0 0 0-.237-.265c-.28-.248-.733-.527-1.364-.812-2.571-1.162-6.703-1.83-8.026-1.918-22.92-1.509-46.721 1.288-69.683 3.987l-.018.002-2.707.318c-4.968.582-9.931 1.21-14.886 1.881Zm96.934-3.233a.05.05 0 0 1-.003.012c.001-.01.003-.015.003-.012Zm-105.742 1.439c2.727-.396 5.457-.779 8.188-1.15 14.213-4.085 28.637-7.641 43.186-10.541-.589-.097-1.176-.199-1.763-.304-9.795 1.375-19.524 3.075-29.076 5.379-.734.177-1.58.374-2.502.589l-.007.001c-3.793.884-8.882 2.069-12.864 3.416-1.23.416-2.324.838-3.222 1.258-.917.43-1.545.82-1.907 1.145a2.397 2.397 0 0 0-.131.127l.032.028.066.052Zm101.081-13.067c-8.815.4-17.869.684-26.882.429a442.25 442.25 0 0 1 10.344-1.428 729.105 729.105 0 0 1 102.188-5.589c-28.495 2.931-57.073 5.291-85.65 6.588Zm95.952-4.655c3.799-.408 7.597-.825 11.392-1.25a656.55 656.55 0 0 1 36.486 2.726l.811.083c11.89 1.227 24.045 2.481 35.857 4.814-11.326 1.919-22.741 3.319-33.946 4.071-11.928.801-24.279.869-35.585-2.77-3.468-1.116-8.321-2.905-11.896-5.168-1.302-.824-2.361-1.667-3.119-2.506Zm92.25 4.986a389.214 389.214 0 0 0 9.95-2.03c-4.933-.407-9.866-.789-14.795-1.149-7.539-.55-15.09-1.056-22.652-1.514 9.193 1.112 18.462 2.518 27.497 4.693Zm-77.513 46.649c16.371-.057 33-.115 49.441.737a717.007 717.007 0 0 1-15.876 2.468c-23.168-1.913-46.454-2.346-69.497-1.592-28.739.939-57.524 4.432-85.867 8.697-3.253.489-6.427.975-9.562 1.478-14.708-1.04-29.495-1.717-44.284-1.926 17.112-1.741 34.223-3.418 51.356-4.818 38.492-3.146 77.035-4.951 115.657-5.019 2.852-.005 5.713-.014 8.583-.024l.049-.001Zm-35.833 4.611c18.204-.595 36.551-.447 54.862.59-22.379 2.975-44.893 5.409-67.459 7.365a65.996 65.996 0 0 0-3.609-.568c-10.124-1.31-23.936-1.416-33.7-1.213a578.77 578.77 0 0 0-26.652 1.173c25.374-3.643 50.999-6.511 76.558-7.347Zm-49.844 9.173c5.886-.122 13.19-.13 20.232.166-8.204.624-16.411 1.187-24.619 1.691a549.91 549.91 0 0 0-11.727-1.293 570.713 570.713 0 0 1 16.114-.564Zm-35.23 1.814c4.088.337 8.169.701 12.241 1.088-9.703.494-19.402.91-29.089 1.252-2.984.105-5.972.208-8.963.305a630.81 630.81 0 0 1 25.811-2.645Zm-36.405.958c-1.189.161-2.505.339-3.677.567-3.82.551-7.635 1.133-11.447 1.746-14.96.206-29.924.069-44.758-.766-4.109-.231-9.512-.583-13.41-1.839 3.831-1.158 7.884-1.978 12.063-2.589 24.721-1.349 49.675-1.076 74.489.314-3.33.63-6.68 1.312-10.102 2.073-.764.17-1.87.319-3.158.494Zm-60.05 4.542c9.05.51 18.146.76 27.252.833-12.74 2.362-25.443 5.046-38.13 8.002-2.04.476-4.421.92-7.022 1.404l-.722.135-.785.147c-3.169.595-6.581 1.261-9.932 2.108-6.109 1.544-12.27 3.748-16.414 7.446-13.923.181-27.851.198-41.796.133-4.308-.021-8.63-.01-12.957 0h-.009c-5.237.013-10.482.025-15.724-.016l-.18-.063c-.92-.324-1.972-.802-2.734-1.377-.816-.617-.914-1.034-.89-1.235.05-.414.374-.891 1.376-1.472a15.606 15.606 0 0 1 1.609-.781l.546-.232c.414-.176.846-.359 1.229-.536 2.872-1.336 5.899-2.224 9.045-3.147 1.024-.301 2.062-.606 3.11-.93 22.85-7.075 46.58-12.424 70.353-15.176a503.057 503.057 0 0 1 15.672-1.564c-.138.13-.27.284-.381.465a1.881 1.881 0 0 0-.195 1.592c.163.494.493.824.731 1.018.253.207.54.373.812.508.543.271 1.231.52 1.968.757 4.334 1.398 10.147 1.755 14.168 1.981Zm-28.603 15.537c-4.452 1.126-8.613 2.54-11.914 4.462 10.864-.174 21.725-.456 32.59-.882 4.067-.16 8.14-.315 12.217-.471l.002 0c37.562-1.433 75.461-2.878 112.643-7.898 10.533-3.662 21.322-6.797 32.217-9.546a38.375 38.375 0 0 0-1.737-.485c-2.186-.56-4.315-.94-4.945-1.053l-.07-.012c-.986-.177-2.223-.372-3.613-.577-12.354.865-24.715 1.65-37.084 2.291-11.888.616-21.841 1.039-33.61 1.039-1.09 0-2.286.131-3.588.293l-.559.07c-1.111.141-2.289.29-3.432.359-2.634.16-5.591-.056-7.763-2.189a3.663 3.663 0 0 1-.273-.298c-2.429.051-4.86.094-7.291.128-18.528 2.985-36.969 6.698-55.384 10.989-2.112.492-4.573.951-7.171 1.435l-1.485.277c-3.163.594-6.497 1.246-9.75 2.068Zm-58.96 7.671c13.172.061 26.336.05 39.501-.104-.117.38-.171.776-.144 1.186.083 1.248.876 2.132 1.699 2.715.058.041.117.082.178.122-17.615.102-35.193-.803-52.627-3.409l-1.776-.262-.01-.002-1.628-.241 1.946-.004c4.309-.011 8.6-.021 12.861-.001Zm48.193 3.027c1.96.329 4.023.529 5.803.652a657.933 657.933 0 0 0 19.99-.944c27.001-1.659 54.107-4.074 81.073-7.332-21.041 1.43-42.132 2.234-63.065 3.032-4.087.156-8.168.311-12.24.471-12.247.481-24.486.778-36.724.945l-.065.067c-.631.66-.615.962-.615.966.001.004.001.033.049.102.056.082.172.208.391.363.969.687 2.929 1.263 5.403 1.678Zm129.218 2.194c-31.897.989-63.884 1.434-95.674.024 35.727-2.382 71.606-6.097 107.072-11.347-.79.41-1.569.836-2.324 1.276-3.432 1.999-6.651 4.441-8.177 7.272-.471.873-.791 1.804-.897 2.775Zm77.522-31.471c-5.837.45-11.676.893-17.516 1.322.634.192 1.254.399 1.825.621.748.291 1.557.659 2.196 1.135a560.464 560.464 0 0 1 13.495-3.078Zm-31.445 10.92a435.945 435.945 0 0 1 16.634-4.433 1.757 1.757 0 0 1-.286.3c-.793.679-2.441 1.363-4.755 1.986-3.41.917-7.612 1.549-11.028 2.062l-.565.085Zm19.714-4.412a3.137 3.137 0 0 1-.156.789c6.188-1.382 12.034-2.83 16.455-4.208 2.497-.778 4.467-1.512 5.774-2.169a598.357 598.357 0 0 0-22.114 4.829c.043.246.058.499.041.759Zm95.379-18.342c2.292.191 4.582.396 6.871.616-5.241.112-10.478.314-15.702.609l2.448-.338.671-.091c1.057-.143 3.035-.411 5.712-.796Zm12.214-1.859a510.287 510.287 0 0 1 15.998 1.946c1.339-.143 2.73-.297 4.131-.459 5.742-.664 11.522-1.457 14.651-2.225l-.067-.011a20.253 20.253 0 0 0-1.425-.164l-.17-.015-.001 0c-.45-.04-.938-.083-1.409-.147a300.902 300.902 0 0 0-15.658-1.712 643.085 643.085 0 0 1-16.05 2.787ZM17.92 414.029c-5.223-.231-10.839-.48-16.503-.832 20.995-6.541 42.715-11.583 63.851-16.23 17.46-3.838 35.068-7.072 52.761-9.847 27.242 1.544 54.53 2.609 81.832 2.456l1.334-.001c2.689-.001 8.679-.002 16.171-.101l-.064.075c-1.212 1.413-1.989 3.012-1.924 4.697.053 1.347.636 2.54 1.604 3.545-3.711.59-7.421 1.17-11.13 1.743-62.071 9.598-124.876 17.289-187.662 14.507l-.27-.012Zm181.925-27.452c-22.342.124-44.68-.569-67.009-1.673 19.278-2.752 38.636-5.011 57.992-6.965a1072.68 1072.68 0 0 1 27.138-2.407 783.1 783.1 0 0 1 27.146 1.646c.222.017.72.042 1.435.078 1.828.091 5.077.252 8.803.545l-.38.055c-1.666.24-3.434.464-5.261.696-3.587.456-7.404.94-11.126 1.628-5.652 1.043-11.321 2.589-16.12 5.339-.514.295-1.005.595-1.47.901-9.138.153-16.659.154-19.792.155-.648 0-1.108 0-1.356.002Zm-9.318-11.623 2.145-.214c-14.367-.287-28.744-.329-43.085-.288-31.516.092-63.006 1.487-94.05 5.765 5.803.309 11.561.626 17.24 1.012 15.03 1.023 30.065 2.023 45.104 2.877 24.128-3.777 48.398-6.704 72.646-9.152Zm54.821-.767c-.767-.06-1.534-.12-2.301-.177 11.512-.52 23.029-.778 34.537-.704 1.925.012 3.931-.005 5.994-.022h.002c3.902-.032 8.005-.066 12.133.091a639.018 639.018 0 0 0-28.191 2.81 107.69 107.69 0 0 0-5.788-.794c-6.194-.697-12.616-1.013-15.237-1.143l-.001 0a63.446 63.446 0 0 1-1.148-.061Zm30.052 4.102a663.627 663.627 0 0 1 35.612-2.926c.841.227 1.662.477 2.458.754.228.079.412.154.557.222-.514.397-1.378.87-2.587 1.393-1.204.521-2.666 1.056-4.293 1.591-6.384 2.098-14.984 4.087-19.778 5.196l-.326.076c-21.711 5.025-43.755 8.965-65.824 12.519a8.657 8.657 0 0 1-1.497-.893c-1.009-.767-1.322-1.485-1.346-2.092-.026-.656.272-1.541 1.203-2.627.58-.676 1.366-1.382 2.366-2.098 5.709-.1 12.001-.26 18.225-.514 9.37-.382 18.635-.979 25.546-1.918 3.442-.468 6.379-1.03 8.471-1.72 1.035-.342 1.97-.749 2.667-1.26.678-.498 1.427-1.33 1.347-2.514-.095-1.393-1.186-2.286-2.108-2.825a9.952 9.952 0 0 0-.693-.364Zm-35.352 7.604c-4.137.169-8.303.296-12.308.391 3.497-1.437 7.378-2.414 11.388-3.154 3.646-.674 7.299-1.137 10.831-1.585 1.852-.235 3.671-.465 5.439-.72a601.92 601.92 0 0 1 12.052-1.609c1.497.261 2.879.552 4.075.878 1.361.371 2.389.762 3.056 1.15.239.14.39.254.485.339-.324.234-.908.519-1.819.82-1.823.602-4.539 1.135-7.935 1.596-6.765.919-15.915 1.512-25.264 1.894Zm35.208-4.472a.057.057 0 0 0 .01-.014l-.003.003-.007.011Zm-87.041-16.11c-.001 0 .001-.006.01-.021-.005.014-.01.021-.01.021Zm155.035-41.328c-1.454.826-3.053 2.045-4.475 3.505-3.262-.277-6.477-.518-9.608-.753l-.025-.002c-1.673-.125-3.322-.249-4.942-.375a695.268 695.268 0 0 0-17.725-1.15c10.356-.914 20.722-1.986 31.195-3.291l.466-.047a333.062 333.062 0 0 0 5.868-.646 362.77 362.77 0 0 0 6.145-.779 94.633 94.633 0 0 0-6.899 3.538ZM88.992 334.188c9.392-.955 18.8-1.786 28.214-2.506 9.054.058 18.096.247 27.106.51 12.365.36 28.116 1.128 40.896 2.664-16.117.185-32.265.016-48.393-.153-5.549-.058-11.096-.116-16.637-.16-10.39-.081-20.79-.175-31.186-.355Z" clip-rule="evenodd"></path><path fill="#2e3120" d="M500 495.782v-3.069c-5.398 1.151-10.843 2.056-16.105 2.931l-1.24.206a1032.665 1032.665 0 0 1-30.956 4.65h20.923a941.217 941.217 0 0 0 12.002-1.936c4.954-.822 10.155-1.686 15.376-2.782Z"></path></svg>