<svg xmlns="http://www.w3.org/2000/svg" width="24" height="24" fill="none" viewBox="0 0 24 24">
  <path fill="#000" d="M23.505 17.504v2h-1v1h-6.002v1h-1v1h-1v1.001h-4.001v-1h-1v-1h-1v-1H2.5v-1h-1v-2.001h22.005Zm0-2.001v1h-2v-2h1v1h1Zm-3.001-7.001v8.001h-1v-4h-1v-1h-3v-1.001h3v-1h-3v-2h-1.001v-1h-1V5.5h-1v-2h1v-2h1v1h1v1h1v1h1v3.001h2.001v1h1Zm-14.003 4v4.001H1.5v-1h1v-2h1v-1h3.001Z"/>
  <path fill="#000" d="M18.504 12.502v4.001H7.5v-4h-1v-1h-2V4.5h1v-3h3v14.003h1V3.5h1.001v1h1v1h1v1.001h1v1h1.001v8.002h1v-3h3Z"/>
</svg>
