<svg xmlns="http://www.w3.org/2000/svg" width="24" height="24" fill="none" viewBox="0 0 24 24">
  <path fill="#000" d="M15.503 13.502H9.502v2h6.001v-2Z"/>
  <path fill="#000" d="M22.505 10.501v-2h-1v-2h-1v-1h-1V4.5h-4.002v1H9.502v-1H5.5v1h-1v1h-1v2h-1v2.001h-1v8.002h1v1h3v-1h1.001v-1h1v-1h1v-3.001h1v-1h6.002v1h1v3h1v1.001h1v1h1.001v1h3v-1h1.001v-8.002h-1Zm-17.004-2v-1h1v-1h1v1h1v1h1v1h-1v1h-1v1h-1v-1h-1v-1h-1v-1h1Zm8.002 1h-1v1h-1v-1h-1.001v-1h1v-1h1v1h1v1Zm7.001 1h-2v2h-2v-2h-2.001v-2h2v-2h2v2h2.001v2Z"/>
  <path fill="#000" d="M18.504 8.501h-2v2h2v-2Z"/>
</svg>
