<svg width="24" height="24" viewBox="0 0 24 24" fill="none" xmlns="http://www.w3.org/2000/svg">
<path opacity="0.2" d="M12 24C18.6274 24 24 18.6274 24 12C24 5.37258 18.6274 0 12 0C5.37258 0 0 5.37258 0 12C0 18.6274 5.37258 24 12 24Z" fill="#35BAEB"/>
<path fill-rule="evenodd" clip-rule="evenodd" d="M8.30774 4.61536L12.1657 8.17283V12.6678C11.9904 12.7018 11.8039 12.781 11.6506 12.8825C11.2779 12.4985 9.03107 10.1718 8.31864 9.42638C8.30774 9.29081 8.30774 4.61536 8.30774 4.61536ZM15.1797 10.9512C14.5113 10.3527 13.6672 9.95729 12.7247 9.91226V12.6566C12.9329 12.6904 13.1303 12.781 13.2945 12.8939L15.1797 10.9512ZM13.9413 13.899H16.6046C16.5388 12.9274 16.1551 12.0579 15.5965 11.3689L13.7113 13.3115C13.8317 13.4809 13.9083 13.6843 13.9413 13.899ZM11.2013 13.3001L8.30781 10.3186V13.899H10.971C11.004 13.6843 11.0918 13.4809 11.2013 13.3001ZM8.30781 14.486H10.971C11.0039 14.6895 11.0807 14.8926 11.2013 15.0509L9.31599 17.016C8.74621 16.3384 8.3736 15.4575 8.30781 14.486ZM9.72173 17.4226C10.3903 18.0212 11.2342 18.4163 12.1766 18.4615V15.7172C11.9685 15.6833 11.7712 15.593 11.607 15.4801L9.72173 17.4226ZM12.7247 18.4615V15.7172C12.9331 15.6839 13.1316 15.6029 13.3056 15.4801L15.1797 17.4112C14.5221 18.0098 13.6673 18.3938 12.7247 18.4615ZM13.7331 15.0283L15.6293 16.9707C16.1883 16.2819 16.55 15.4237 16.6156 14.4749H13.9305C13.8995 14.6706 13.8325 14.8584 13.7331 15.0283Z" fill="#35BAEB"/>
</svg>
