<svg width="24" height="24" viewBox="0 0 24 24" fill="none" xmlns="http://www.w3.org/2000/svg">
<path opacity="0.2" d="M12 24C18.6274 24 24 18.6274 24 12C24 5.37258 18.6274 0 12 0C5.37258 0 0 5.37258 0 12C0 18.6274 5.37258 24 12 24Z" fill="#3D6FC0"/>
<path fill-rule="evenodd" clip-rule="evenodd" d="M16.1508 9.37831C16.5578 9.74262 16.9588 10.1016 17.3136 10.4365C21.3526 14.2649 17.8343 19.3465 11.8709 19.3465C5.90763 19.3465 2.39639 14.2649 6.44166 10.4372C6.80505 10.0926 7.21807 9.72277 7.63662 9.34801C8.88185 8.23305 10.176 7.07428 10.3579 6.40414C10.6009 5.50876 9.95557 4.69184 9.95557 4.69184C10.9667 4.67568 11.5488 5.11799 11.8745 5.6203C12.2065 5.11799 12.7824 4.67568 13.7979 4.69184C13.7979 4.69184 13.1562 5.51568 13.3974 6.40491C13.5796 7.07668 14.8935 8.25288 16.1508 9.37831ZM6.12923 14.8057C6.73624 17.0595 9.47135 18.1757 11.8745 18.1757C14.2838 18.1757 17.0127 17.0595 17.626 14.8057C18.2168 12.6005 16.2036 11.0241 14.2739 9.51306C13.3663 8.80235 12.4771 8.1061 11.8861 7.36569L11.8736 7.35492L11.8611 7.36569C11.6326 7.638 11.3825 7.89631 11.1126 8.13876C11.7979 8.73569 12.4877 9.33184 13.1784 9.91722C13.4364 10.1345 13.7275 10.3574 14.0291 10.5883L14.0291 10.5883L14.0292 10.5883C15.4384 11.6671 17.076 12.9207 16.6229 14.5903C16.1307 16.408 13.7916 17.2588 11.8745 17.2588C9.95732 17.2588 7.61828 16.408 7.12608 14.5903C6.67206 12.9253 8.30073 11.6766 9.70789 10.5978L9.7079 10.5978L9.70791 10.5978C10.0138 10.3632 10.3093 10.1367 10.5706 9.91569C10.6264 9.86744 10.6854 9.81793 10.746 9.76705L10.746 9.76702C10.81 9.71326 10.8759 9.65798 10.9417 9.60107C10.8332 9.51611 10.7279 9.42798 10.6234 9.34049L10.6234 9.34049L10.6234 9.34048C10.5736 9.29885 10.5241 9.25737 10.4744 9.21646L10.187 8.96722C9.84773 9.27208 9.46339 9.57816 9.06874 9.89246L9.06873 9.89246L9.06872 9.89248C7.41102 11.2126 5.57136 12.6777 6.12923 14.8057ZM13.7027 13.088C13.5798 12.9607 13.4472 12.8407 13.3057 12.7288L14.0498 12.0549C15.1241 13.0049 16.1467 14.1926 14.5678 15.3526C13.8842 15.8557 12.8553 16.0818 11.8647 16.0818C10.8741 16.0818 9.85143 15.8557 9.16698 15.3526C7.58269 14.1872 8.62405 12.9941 9.70101 12.0388L10.4424 12.718C10.2913 12.8303 10.1522 12.9541 10.0268 13.088C8.85724 14.3418 10.5697 15.1211 11.8612 15.1211C13.1526 15.1211 14.8722 14.3418 13.7027 13.088ZM11.0048 13.9003C11.5442 14.1699 12.2085 14.1719 12.7501 13.9057L12.3754 12.0995C12.7063 11.945 12.9116 11.6454 12.9095 11.3203C12.9098 10.885 12.5472 10.5128 12.0509 10.4389C11.5545 10.365 11.0687 10.6108 10.9004 11.0211C10.7321 11.4314 10.9303 11.8868 11.3697 12.0995L11.0048 13.9003Z" fill="#3D6FC0"/>
</svg>
