<svg width="24" height="24" viewBox="0 0 24 24" fill="none" xmlns="http://www.w3.org/2000/svg">
<path opacity="0.2" d="M12 24C18.6274 24 24 18.6274 24 12C24 5.37258 18.6274 0 12 0C5.37258 0 0 5.37258 0 12C0 18.6274 5.37258 24 12 24Z" fill="#F9B71C"/>
<path fill-rule="evenodd" clip-rule="evenodd" d="M12.0001 19.3631C16.0661 19.3631 19.3623 16.067 19.3623 12.0009C19.3623 7.93486 16.0661 4.63867 12.0001 4.63867C7.934 4.63867 4.63782 7.93486 4.63782 12.0009C4.63782 16.067 7.934 19.3631 12.0001 19.3631Z" fill="#F9B71C" stroke="#F6EC34" stroke-width="1.13636"/>
<path fill-rule="evenodd" clip-rule="evenodd" d="M9.73987 9.74023H14.3049V14.3053H9.73987V9.74023Z" fill="#4E4E38" stroke="#F6EC34" stroke-width="0.5"/>
</svg>
