<svg width="24" height="24" viewBox="0 0 24 24" fill="none" xmlns="http://www.w3.org/2000/svg">
<path opacity="0.1" d="M12 24C18.6274 24 24 18.6274 24 12C24 5.37258 18.6274 0 12 0C5.37258 0 0 5.37258 0 12C0 18.6274 5.37258 24 12 24Z" fill="#BEBEBE"/>
<path fill-rule="evenodd" clip-rule="evenodd" d="M12.0428 4.61523H12.0878C13.5803 4.66397 15.0587 5.12625 16.2823 5.99099C15.6716 6.4001 15.0528 6.7996 14.4302 7.18951C13.7287 6.89782 12.9895 6.64674 12.2185 6.63714C11.1264 6.58471 10.0224 6.88674 9.10371 7.48047C7.8786 8.25437 6.99762 9.5489 6.72587 10.9727C6.5346 11.9024 6.63208 12.8712 6.91122 13.7736C6.97916 13.7478 7.03676 13.7079 7.08402 13.6533C7.46359 13.2331 7.88599 12.852 8.34162 12.516C8.27959 11.8256 8.33867 11.11 8.64291 10.4771C9.20193 9.2092 10.5334 8.31714 11.9239 8.32305C12.7584 8.28687 13.595 8.5697 14.2523 9.08071C15.1428 9.75936 15.6989 10.8641 15.6841 11.9866C14.1009 11.6513 12.4268 11.7709 10.9026 12.3122C8.87036 13.0226 7.12242 14.504 6.0834 16.3878C4.59614 14.4353 4.22543 11.7111 5.09608 9.41967C5.81682 7.45831 7.41854 5.84256 9.37842 5.11443C10.2269 4.78287 11.1374 4.65068 12.0428 4.61523Z" fill="#032052"/>
<path fill-rule="evenodd" clip-rule="evenodd" d="M19.3845 11.8671C19.3608 10.3828 18.8742 8.90438 18.0036 7.70068C17.8461 7.94302 17.6895 8.18601 17.5329 8.42903C17.2849 8.814 17.0368 9.19902 16.7851 9.58155C17.3338 10.6892 17.5117 11.9838 17.2252 13.1904C16.9254 14.5263 16.088 15.7307 14.9434 16.481C13.3778 17.534 11.2584 17.6374 9.57992 16.7875C9.32055 16.9622 9.05666 17.1307 8.79279 17.2991C8.42558 17.5335 8.05841 17.7678 7.70349 18.0192C8.87248 18.8478 10.2837 19.3388 11.7178 19.3846H12.2834C14.3024 19.3226 16.2741 18.3766 17.5871 16.8414C18.7132 15.5491 19.3623 13.8506 19.3845 12.1374V11.8671ZM13.555 12.4808C11.8972 12.497 10.2526 13.0634 8.94038 14.0781C9.46321 14.8941 10.3457 15.4641 11.2953 15.6451C12.163 15.8127 13.0898 15.6635 13.8541 15.2175C14.7816 14.6836 15.4691 13.7295 15.6397 12.6683C14.9544 12.5332 14.2544 12.4682 13.555 12.4808Z" fill="url(#paint0_linear_2492_4386)"/>
<defs>
<linearGradient id="paint0_linear_2492_4386" x1="12.9986" y1="3.24306" x2="3.15145" y2="13.9179" gradientUnits="userSpaceOnUse">
<stop stop-color="#00DFA1"/>
<stop offset="1" stop-color="#03ABE7"/>
</linearGradient>
</defs>
</svg>
