<svg width="24" height="24" viewBox="0 0 24 24" fill="none" xmlns="http://www.w3.org/2000/svg">
<path opacity="0.2" d="M12 24C18.6274 24 24 18.6274 24 12C24 5.37258 18.6274 0 12 0C5.37258 0 0 5.37258 0 12C0 18.6274 5.37258 24 12 24Z" fill="#505050"/>
<mask id="mask0_2492_3980" style="mask-type:luminance" maskUnits="userSpaceOnUse" x="0" y="0" width="24" height="24">
<path d="M12 24C18.6274 24 24 18.6274 24 12C24 5.37258 18.6274 0 12 0C5.37258 0 0 5.37258 0 12C0 18.6274 5.37258 24 12 24Z" fill="white"/>
</mask>
<g mask="url(#mask0_2492_3980)">
<path fill-rule="evenodd" clip-rule="evenodd" d="M6.15056 8.59278C6.93924 8.13641 7.76484 7.77899 8.63327 7.52053C9.81628 7.16903 11.017 7.00361 12.2503 7.02724C12.8233 7.03906 13.7774 7.1321 13.9384 7.19413C13.9443 7.20595 13.9325 7.21333 13.9192 7.21333C13.8645 7.23844 13.8025 7.25616 13.7464 7.28127C12.7303 7.70663 12.0095 8.60016 11.7998 9.68422C11.7688 9.86293 11.7511 10.0416 11.7451 10.2203C11.7392 10.4921 11.7141 10.7624 11.6344 11.0267C11.3626 11.9823 10.5813 12.7267 9.61395 12.9497C8.34379 13.2377 7.06182 12.61 6.50798 11.4329C6.47696 11.365 6.45333 11.297 6.44004 11.2291C6.34699 10.8288 6.28053 10.4286 6.23031 10.021C6.17567 9.57198 6.14465 9.12152 6.14465 8.67253C6.15056 8.64152 6.15056 8.62379 6.15056 8.59278Z" fill="#F7A800"/>
<path fill-rule="evenodd" clip-rule="evenodd" d="M15.219 15.9785C15.2308 15.8619 15.2441 15.757 15.25 15.6462C15.281 15.0363 15.1511 14.4573 14.8616 13.9212C14.5839 13.4102 14.1955 13.0025 13.6978 12.6953C13.6549 12.6643 13.6047 12.6407 13.5619 12.6097C12.8781 12.1784 12.4586 11.5685 12.3109 10.7739C12.0466 9.34421 12.946 7.96477 14.3565 7.62507C14.8557 7.5084 15.3416 7.52021 15.829 7.67381C16.2292 7.79787 16.6117 7.96329 16.9928 8.142C17.2572 8.26606 17.5097 8.40046 17.7637 8.54224C17.7948 8.56144 17.8184 8.57326 17.8568 8.59689C17.8568 8.622 17.8627 8.63972 17.8627 8.66483C17.8627 8.99123 17.8435 9.32353 17.8199 9.64993C17.777 10.1299 17.7032 10.6114 17.6042 11.0796C17.3015 12.4723 16.7668 13.7602 15.99 14.955C15.7743 15.2873 15.541 15.6078 15.2943 15.9165C15.2692 15.9357 15.2559 15.9593 15.219 15.9785Z" fill="#67B2E8"/>
<path fill-rule="evenodd" clip-rule="evenodd" d="M12.0044 18.7355C11.9114 18.6985 11.6293 18.5257 11.3265 18.3234C10.6545 17.8744 10.0327 17.356 9.46559 16.7771C8.89993 16.1966 8.39482 15.563 7.96208 14.8792C7.55593 14.2441 7.21771 13.5795 6.94596 12.8765C6.94005 12.8573 6.93414 12.8455 6.92676 12.8145C6.95777 12.8337 6.96959 12.8396 6.98879 12.8514C7.20442 13.0183 7.43187 13.1601 7.67851 13.2635C7.9931 13.3993 8.3195 13.4924 8.66362 13.5219C9.35925 13.5899 10.0121 13.4481 10.6294 13.1025C10.9499 12.9238 11.2955 12.8071 11.6588 12.7569C12.9467 12.5974 14.2287 13.3609 14.6289 14.6916C14.8327 15.3755 14.7707 16.0401 14.4561 16.6884C14.4133 16.7741 14.3764 16.8553 14.332 16.9351C14.3069 16.9838 14.2774 17.034 14.2331 17.071C13.5818 17.6883 12.8669 18.2303 12.0916 18.6867C12.0605 18.7044 12.0295 18.7236 12.0044 18.7355Z" fill="#00C4B3"/>
</g>
</svg>
