<svg width="24" height="24" viewBox="0 0 24 24" fill="none" xmlns="http://www.w3.org/2000/svg">
<path opacity="0.2" d="M12 24C18.6274 24 24 18.6274 24 12C24 5.37258 18.6274 0 12 0C5.37258 0 0 5.37258 0 12C0 18.6274 5.37258 24 12 24Z" fill="#F2C869"/>
<path fill-rule="evenodd" clip-rule="evenodd" d="M14.5977 5.53906C12.4662 5.53906 10.7377 6.13281 10.7377 6.86588V8.04315C10.944 8.46561 12.4017 8.99992 14.5977 8.99992C16.7936 8.99992 18.2506 8.46433 18.457 8.04315V6.86588C18.4577 6.13281 16.7298 5.53906 14.5977 5.53906Z" fill="#F2C869"/>
<path fill-rule="evenodd" clip-rule="evenodd" d="M6.67 16.0039L6.61531 15.8934V15.7617C6.38289 15.9324 6.24878 16.1222 6.24878 16.3254V17.5027C6.45516 17.9252 7.91283 18.4595 10.1088 18.4595C12.3047 18.4595 13.7617 17.9239 13.9688 17.5027V16.8917C13.1901 17.1294 12.1634 17.2688 11.0261 17.2688C8.82558 17.2662 7.03393 16.7479 6.67 16.0039Z" fill="#EFD98B"/>
<path fill-rule="evenodd" clip-rule="evenodd" d="M7.16211 15.4278V15.771C7.36849 16.1934 8.82616 16.7278 11.0221 16.7278C13.2181 16.7278 14.6751 16.1922 14.8821 15.771V14.5937C14.8795 14.5074 14.8548 14.4224 14.8105 14.3477V14.5317L14.7558 14.6429C14.3912 15.3862 12.6028 15.9052 10.401 15.9052C9.11587 15.9052 7.96939 15.7256 7.16211 15.4278Z" fill="#E1AB4C"/>
<path fill-rule="evenodd" clip-rule="evenodd" d="M13.2578 12.5757V11.3991C13.2578 10.6667 11.5293 10.0723 9.3978 10.0723C7.2663 10.0723 5.53845 10.666 5.53845 11.3991V12.5764C5.74418 12.9988 7.2025 13.5331 9.39845 13.5331C11.5944 13.5331 13.0521 12.9969 13.2578 12.5757Z" fill="#FFD97A"/>
<path fill-rule="evenodd" clip-rule="evenodd" d="M13.8079 12.6055V12.7007L13.7532 12.8113C13.3886 13.5546 11.6002 14.0735 9.39842 14.0735C8.30532 14.0735 7.31249 13.9451 6.54688 13.7246V14.4084C6.75325 14.8309 8.21092 15.3652 10.4069 15.3652C12.6028 15.3652 14.0598 14.8296 14.2669 14.4084V13.2305C14.2669 13.0043 14.0996 12.7908 13.8079 12.6055V12.6055Z" fill="#FAC04A"/>
<path fill-rule="evenodd" clip-rule="evenodd" d="M10.7383 8.77344V9.61325C11.9043 9.75385 12.9564 10.0856 13.4713 10.6269C13.8203 10.6589 14.1972 10.6767 14.5983 10.6767C16.7936 10.6767 18.2512 10.1412 18.4576 9.71998V8.77344C17.6523 9.27898 16.1184 9.54039 14.5976 9.54039C13.0768 9.54039 11.5436 9.27898 10.7383 8.77344Z" fill="#F4CE83"/>
<path fill-rule="evenodd" clip-rule="evenodd" d="M13.7844 11.19C13.7994 11.2596 13.8072 11.3306 13.8072 11.4015V11.9927C14.0077 12.0886 14.1952 12.2094 14.3638 12.3519H14.5969C16.7922 12.3519 18.2499 11.8163 18.4563 11.3951V10.4492C17.6509 10.9554 16.1177 11.2168 14.5969 11.2168C14.3261 11.2155 14.052 11.2072 13.7844 11.19Z" fill="#FFDA7F"/>
<path fill-rule="evenodd" clip-rule="evenodd" d="M14.8163 13.2313V13.5771C14.9882 13.6934 15.1366 13.841 15.2532 14.0111C17.08 13.9177 18.2727 13.4473 18.4576 13.0722V12.125C17.6796 12.6133 16.2232 12.8734 14.7551 12.89C14.7948 12.9993 14.8157 13.115 14.8163 13.2313Z" fill="#E8C278"/>
<path fill-rule="evenodd" clip-rule="evenodd" d="M15.4342 14.5927V15.676C17.1569 15.5616 18.2786 15.1123 18.457 14.7467V13.8027C17.7988 14.2156 16.6556 14.4655 15.4297 14.5435C15.4316 14.5588 15.4342 14.578 15.4342 14.5927Z" fill="#FFD166"/>
<path fill-rule="evenodd" clip-rule="evenodd" d="M14.5176 16.6864V17.4834H14.5977C16.7291 17.4834 18.457 16.8896 18.457 16.1566V15.4746C17.7617 15.9111 16.5195 16.1655 15.2174 16.2269C15.0169 16.4231 14.7786 16.579 14.5176 16.6864H14.5176Z" fill="#E0C390"/>
</svg>
