<svg width="24" height="24" viewBox="0 0 24 24" fill="none" xmlns="http://www.w3.org/2000/svg">
<path opacity="0.2" d="M12 24C18.6274 24 24 18.6274 24 12C24 5.37258 18.6274 0 12 0C5.37258 0 0 5.37258 0 12C0 18.6274 5.37258 24 12 24Z" fill="#505050"/>
<path fill-rule="evenodd" clip-rule="evenodd" d="M11.8858 4.61523H12.1267C13.3587 4.65134 14.5856 4.97035 15.6542 5.58935C17.4062 6.58118 18.7124 8.32264 19.1706 10.2833C19.2952 10.753 19.3303 11.2363 19.3652 11.7189C19.3715 11.8056 19.3778 11.8923 19.3846 11.9788V12.1817C19.3373 13.2976 19.0741 14.4095 18.547 15.3981C17.6471 17.1487 16.0146 18.5036 14.1281 19.0648C13.4769 19.2709 12.7955 19.3523 12.1162 19.3845H11.9278C10.2966 19.3621 8.6746 18.8016 7.40182 17.7756C6.00892 16.6702 5.0348 15.0482 4.73351 13.2943C4.68452 13.0452 4.66427 12.7926 4.64403 12.54C4.63525 12.4305 4.62647 12.3211 4.61536 12.2119V11.6145L4.62974 11.4738C4.66869 11.0898 4.70768 10.7055 4.80243 10.3306C5.26126 8.31804 6.61478 6.53392 8.42319 5.54209C9.47804 4.95066 10.6793 4.64871 11.8858 4.61523ZM10.219 7.86316C9.09457 8.32986 8.17494 9.26656 7.72923 10.3995C7.37543 11.2758 7.31635 12.2618 7.5415 13.1781C7.79159 14.2422 8.44866 15.2005 9.33875 15.8326C10.1822 16.4378 11.2364 16.7372 12.2722 16.6755C12.6188 16.5251 12.9648 16.3315 13.1984 16.0263C13.6054 15.5103 13.824 14.825 13.7045 14.1706C13.6153 13.6908 13.3094 13.268 12.9024 13.0042C12.5126 12.7473 12.0788 12.5816 11.6447 12.4158L11.6447 12.4158C11.38 12.3147 11.1152 12.2136 10.8603 12.0918C10.3949 11.8922 9.96825 11.5778 9.69518 11.1459C9.35976 10.6115 9.25867 9.95579 9.33547 9.33548C9.42277 8.75194 9.76476 8.23075 10.219 7.86316ZM10.2997 9.9046C10.1185 9.45233 10.1868 8.92917 10.4093 8.50447C10.6489 8.0673 11.1563 7.83625 11.6414 7.83428C12.1678 7.80802 12.7238 7.96097 13.1091 8.33381C13.52 8.74078 13.7635 9.28101 13.9441 9.82255C14.015 9.80082 14.0856 9.77868 14.1564 9.75644C14.1734 9.75113 14.1903 9.74581 14.2073 9.74049C14.1725 9.44741 14.1464 9.15334 14.1203 8.85927C14.0942 8.5652 14.0681 8.27112 14.0333 7.97803C15.06 8.48741 15.8824 9.39325 16.2828 10.4671C16.7154 11.6172 16.6787 12.9444 16.1437 14.0544C15.5575 15.3088 14.372 16.2626 13.0211 16.5652C13.5338 16.3282 14.0202 15.9836 14.2867 15.471C14.6838 14.7338 14.7094 13.8398 14.5191 13.039C14.334 12.3005 13.7137 11.7649 13.0264 11.4951C12.7527 11.367 12.4613 11.2849 12.1704 11.203C11.7845 11.0944 11.3993 10.9859 11.0565 10.7704C10.7276 10.5643 10.4408 10.2715 10.2997 9.9046Z" fill="#F9F9F9"/>
</svg>
