<svg width="24" height="24" viewBox="0 0 24 24" fill="none" xmlns="http://www.w3.org/2000/svg">
<path opacity="0.2" d="M12 24C18.6274 24 24 18.6274 24 12C24 5.37258 18.6274 0 12 0C5.37258 0 0 5.37258 0 12C0 18.6274 5.37258 24 12 24Z" fill="#505050"/>
<path fill-rule="evenodd" clip-rule="evenodd" d="M14.7206 17.2527C14.8978 17.172 15.08 17.103 15.2651 17.043C15.3015 17.105 15.3744 17.2271 15.4108 17.2891C15.1804 17.2842 14.95 17.2753 14.7206 17.2527Z" fill="#181818"/>
<path fill-rule="evenodd" clip-rule="evenodd" d="M8.23389 17.3279C8.39536 17.1989 8.58835 17.129 8.79413 17.1172C8.80693 17.1733 8.83155 17.2846 8.84336 17.3407C8.64053 17.3387 8.43672 17.3358 8.23389 17.3279Z" fill="#181818"/>
<path fill-rule="evenodd" clip-rule="evenodd" d="M13.5113 5.64102C14.3256 5.31413 15.3378 5.76016 15.647 6.57936C16.0339 7.43204 15.5328 8.53284 14.6417 8.81148C13.6955 9.17874 12.5523 8.46982 12.4391 7.46847C12.3062 6.70244 12.7867 5.9049 13.5113 5.64102Z" fill="#F59F18"/>
<path fill-rule="evenodd" clip-rule="evenodd" d="M16.7646 15.9833C17.0206 15.9508 17.2785 15.9695 17.5355 15.9774C17.2667 16.7808 16.9349 17.5646 16.5893 18.3375C16.3373 18.3316 16.0852 18.3277 15.8331 18.3198C16.0931 17.5232 16.4131 16.7424 16.7646 15.9833Z" fill="#F59F18"/>
<path fill-rule="evenodd" clip-rule="evenodd" d="M17.8407 15.9701C18.1036 15.9671 18.3665 15.9691 18.6294 15.976C18.398 16.7056 18.077 17.4037 17.7974 18.1146C17.6911 18.4946 17.2066 18.2741 16.928 18.3233C17.1672 17.5159 17.5414 16.7568 17.8407 15.9701Z" fill="#F59F18"/>
<path fill-rule="evenodd" clip-rule="evenodd" d="M12.8802 16.1378C13.345 15.997 13.8934 16.0078 14.2931 16.314C14.1169 16.443 13.9554 16.6045 13.7516 16.6892C13.4799 16.6921 13.1717 16.5661 12.9619 16.8103C13.2475 16.9639 13.6197 17.018 13.8127 17.3016C13.8639 17.5113 13.8363 17.7516 13.6827 17.914C13.277 18.4044 12.5563 18.4516 11.9773 18.3108C11.8287 18.2557 11.6061 18.2242 11.617 18.0194C11.7725 17.8776 11.9458 17.7457 12.1427 17.6669C12.4342 17.725 12.7778 17.9062 13.0161 17.6206C12.7345 17.4601 12.3505 17.4168 12.1644 17.1264C12.0522 16.6577 12.4706 16.2678 12.8802 16.1378Z" fill="#F59F18"/>
<path fill-rule="evenodd" clip-rule="evenodd" d="M15.8193 16.7507C15.3841 16.5429 14.8288 16.6237 14.43 16.8846C14.0815 17.1169 13.795 17.5669 13.9466 17.9942C14.1859 18.4353 14.7747 18.3979 15.199 18.327C15.2337 18.3144 15.2734 18.3038 15.3146 18.2929C15.4723 18.251 15.6505 18.2037 15.6372 18.0139C15.5502 17.9412 15.457 17.878 15.3635 17.8147C15.3405 17.7991 15.3175 17.7835 15.2945 17.7678C15.1153 17.8081 14.9351 17.8436 14.754 17.8712C14.7146 17.821 14.6339 17.7205 14.5935 17.6703L14.5935 17.6703C14.9106 17.6608 15.2277 17.6607 15.5448 17.6605C15.6875 17.6605 15.8302 17.6604 15.9729 17.6595C16.0615 17.3562 16.1551 16.9377 15.8193 16.7507ZM15.4107 17.2883C15.1803 17.2833 14.9499 17.2745 14.7205 17.2518C14.8977 17.1711 15.0799 17.1022 15.265 17.0421C15.2832 17.0731 15.3105 17.1192 15.3379 17.1652C15.3652 17.2112 15.3925 17.2573 15.4107 17.2883Z" fill="#F59F18"/>
<path fill-rule="evenodd" clip-rule="evenodd" d="M13.3469 10.1177C14.6545 9.85282 15.9611 10.3875 17.0235 11.1171C17.4538 11.4272 17.9018 11.7364 18.2415 12.1489C18.5723 12.6048 18.1174 13.2793 17.5808 13.1985C17.1791 13.106 16.9378 12.7328 16.6119 12.5103C15.7583 11.8644 14.7096 11.2539 13.597 11.4696C12.6725 11.6881 12.0856 12.5142 11.2684 12.9406C10.3517 13.4772 9.23715 13.4545 8.22497 13.2596C7.3142 13.0705 6.41623 12.7033 5.71715 12.0771C5.37254 11.7738 5.46411 11.1289 5.89734 10.9546C6.13364 10.8187 6.42312 10.8916 6.62201 11.059C7.48454 11.7768 8.6454 12.0544 9.74817 12.0072C10.6885 11.9343 11.3167 11.1624 12.0561 10.6769C12.447 10.4121 12.8842 10.2142 13.3469 10.1177Z" fill="white"/>
<path fill-rule="evenodd" clip-rule="evenodd" d="M11.4772 16.093C11.7519 15.9295 12.0837 15.962 12.3879 15.9886C12.3357 16.1501 12.2757 16.3096 12.2146 16.4681C12.1073 16.4799 11.999 16.4918 11.8917 16.5036C11.8385 16.5804 11.7863 16.6582 11.7332 16.7359C11.8237 16.7448 12.0059 16.7635 12.0975 16.7724C12.0423 16.926 11.9852 17.0796 11.9291 17.2332C11.808 17.2332 11.6869 17.2342 11.5658 17.2342C11.4082 17.5955 11.2635 17.9608 11.1158 18.3261C10.8687 18.3291 10.6215 18.3281 10.3754 18.3202C10.4797 17.9775 10.6176 17.6477 10.7554 17.3179C10.6294 17.1662 10.6698 16.9782 10.6904 16.7999C10.7564 16.7832 10.8884 16.7497 10.9543 16.733C11.0932 16.4957 11.2241 16.2279 11.4772 16.093Z" fill="white"/>
<path fill-rule="evenodd" clip-rule="evenodd" d="M6.67818 16.1639C7.05922 16.0644 7.4511 16.1806 7.79965 16.3381C7.64409 16.5114 7.46292 16.6552 7.27879 16.796C7.05529 16.7192 6.8239 16.6562 6.59842 16.7635C6.60532 16.8048 6.61812 16.8866 6.62501 16.9279C6.95092 17.0274 7.29947 17.1623 7.42255 17.5128C7.18525 18.4511 5.94661 18.5801 5.22095 18.1498C5.23079 18.1124 5.25147 18.0386 5.26132 18.0012C5.42969 17.8899 5.59609 17.7767 5.76347 17.6654C5.93184 17.7333 6.10316 17.7934 6.27547 17.8466C6.37787 17.7944 6.47929 17.7412 6.5807 17.6871C6.33258 17.4626 5.91116 17.4645 5.75756 17.1406C5.68962 16.6158 6.20556 16.2279 6.67818 16.1639Z" fill="white"/>
<path fill-rule="evenodd" clip-rule="evenodd" d="M10.1765 16.0557C10.4295 16.0527 10.6836 16.0557 10.9366 16.0734C10.658 16.8316 10.3468 17.5789 10.0416 18.3272C9.78953 18.3292 9.53649 18.3282 9.28442 18.3193C9.54633 17.5523 9.87125 16.8069 10.1765 16.0557Z" fill="white"/>
<path fill-rule="evenodd" clip-rule="evenodd" d="M9.26177 16.7978C8.65722 16.5122 7.84984 16.8056 7.54657 17.3974C7.39494 17.6613 7.38608 18.0433 7.67064 18.2205C8.12651 18.4913 8.7163 18.3741 9.16331 18.1398C9.14634 18.1194 9.12963 18.0982 9.1128 18.0769C9.03197 17.9744 8.94826 17.8683 8.8187 17.8316C8.70284 17.831 8.58769 17.8432 8.47261 17.8554C8.39601 17.8635 8.31943 17.8716 8.2427 17.8759C8.21217 17.8287 8.15014 17.7341 8.11962 17.6879C8.27042 17.6852 8.42122 17.6857 8.57202 17.6862C8.86824 17.6871 9.16445 17.688 9.46067 17.6652C9.46415 17.6398 9.46803 17.6136 9.47201 17.5867C9.51416 17.3018 9.56677 16.9462 9.26177 16.7978ZM8.84331 17.3403C8.64048 17.3383 8.43667 17.3354 8.23384 17.3275C8.39531 17.1985 8.5883 17.1286 8.79408 17.1168C8.80688 17.1729 8.8315 17.2842 8.84331 17.3403Z" fill="white"/>
</svg>
