<svg width="24" height="24" viewBox="0 0 24 24" fill="none" xmlns="http://www.w3.org/2000/svg">
<path opacity="0.2" d="M12 24C18.6274 24 24 18.6274 24 12C24 5.37258 18.6274 0 12 0C5.37258 0 0 5.37258 0 12C0 18.6274 5.37258 24 12 24Z" fill="#DE5A1A"/>
<path fill-rule="evenodd" clip-rule="evenodd" d="M8.83142 6.10274C9.80149 5.70561 10.744 5.2481 11.7188 4.86278C12.2317 4.67899 12.7292 4.97306 13.1883 5.16539C14.0074 5.52116 14.821 5.89072 15.6461 6.23337C16.1932 6.50972 16.7786 6.7073 17.3325 6.97183C17.55 7.07948 17.8104 7.14578 17.9501 7.35911C17.9843 7.36764 18.0528 7.38602 18.0864 7.39456C18.3119 7.84945 18.2334 8.35948 18.2441 8.84654C18.2435 9.49376 18.2502 10.1403 18.2381 10.7875C18.132 10.7869 18.0259 10.7862 17.9205 10.7856C17.887 10.7593 17.8212 10.7068 17.7876 10.6805C17.1096 10.4265 16.4638 10.095 15.7884 9.83443C15.7636 9.8154 15.7132 9.77864 15.6884 9.76026C15.2594 9.61191 14.8559 9.40449 14.439 9.22791C12.7271 8.5052 11.0374 7.73458 9.32082 7.02434C9.29531 7.00465 9.24429 6.96658 9.21878 6.94754C8.88245 6.82217 8.54611 6.69023 8.22521 6.53203C8.21179 6.49068 8.18426 6.40863 8.17017 6.36728C8.40647 6.32001 8.61593 6.20252 8.83142 6.10274Z" fill="#FDB52B"/>
<path fill-rule="evenodd" clip-rule="evenodd" d="M5.97084 7.41797C6.72139 7.68185 7.42494 8.05731 8.1728 8.32841C8.17817 8.34219 8.18958 8.36911 8.19563 8.38224C8.22516 8.39865 8.28424 8.43147 8.31378 8.44788C8.4514 8.44328 8.57291 8.52599 8.69711 8.57391C9.10259 8.77017 9.53694 8.90736 9.93168 9.12464C10.1076 9.23623 10.2908 9.336 10.4875 9.4082C10.8245 9.52767 11.132 9.72066 11.4851 9.79877C13.379 10.572 15.2399 11.4273 17.1364 12.1986C17.4593 12.3181 17.7614 12.4881 18.0158 12.7165C18.0937 12.8695 18.1689 13.0237 18.2374 13.1799C18.2313 14.1573 18.2447 15.1354 18.2273 16.1121C18.1219 16.0918 18.0145 16.076 17.9138 16.0386C14.1429 14.4028 10.3627 12.7867 6.58981 11.1543C6.234 11.0144 5.93862 10.6849 5.95205 10.2944C5.96883 9.33534 5.92788 8.37633 5.97084 7.41797Z" fill="#DE5A1A"/>
<path fill-rule="evenodd" clip-rule="evenodd" d="M8.19568 8.38281C8.22572 8.3865 8.28722 8.39389 8.31726 8.39758L8.32155 8.50589C8.29008 8.47512 8.22715 8.41358 8.19568 8.38281Z" fill="#EC6853"/>
<path fill-rule="evenodd" clip-rule="evenodd" d="M9.93164 9.125C10.464 9.31208 10.9876 9.5346 11.4851 9.79913C11.132 9.72102 10.8245 9.52804 10.4875 9.40857C10.2908 9.33636 10.1075 9.23659 9.93164 9.125Z" fill="#EC6853"/>
<path fill-rule="evenodd" clip-rule="evenodd" d="M5.74731 12.7227C5.99973 12.7844 6.2367 12.8907 6.47033 12.999C9.56784 14.3486 12.6653 15.6988 15.7676 17.0379C15.7629 17.0898 15.7588 17.141 15.7555 17.1928C14.6149 17.6543 13.4978 18.1676 12.3686 18.6533C12.0081 18.801 11.5899 18.7656 11.2408 18.6041C9.60342 17.8801 7.96135 17.1666 6.31794 16.4576C5.89366 16.2962 5.64862 15.8472 5.69696 15.4113C5.70098 14.6676 5.69964 13.9232 5.69427 13.1795C5.69293 13.0253 5.71911 12.8736 5.74731 12.7227Z" fill="#EC6853"/>
</svg>
