<svg width="24" height="24" viewBox="0 0 24 24" fill="none" xmlns="http://www.w3.org/2000/svg">
<path opacity="0.2" d="M12 24C18.6274 24 24 18.6274 24 12C24 5.37258 18.6274 0 12 0C5.37258 0 0 5.37258 0 12C0 18.6274 5.37258 24 12 24Z" fill="#23B852"/>
<path fill-rule="evenodd" clip-rule="evenodd" d="M13.9989 14.2373H15.9108V15.9095H10.1664L17.2973 8.77252C17.5299 8.53979 17.5988 8.18639 17.4782 7.8847C17.349 7.58302 17.0562 7.38477 16.7203 7.38477H8.20281C7.74636 7.38477 7.38464 7.74679 7.38464 8.20362V14.2373L10.9243 10.6947H9.01236V9.01386H14.7481L7.62579 16.1509C7.39326 16.3836 7.32436 16.737 7.44493 17.0387C7.57411 17.3404 7.86693 17.5386 8.20281 17.5386H16.7203C17.1682 17.5386 17.5385 17.1766 17.5385 16.7198V10.6947L13.9989 14.2373Z" fill="#23B852"/>
</svg>
