<svg xmlns="http://www.w3.org/2000/svg" width="1080" height="1080" fill="none" viewBox="0 0 1080 1080">
  <g filter="url(#a)">
    <path fill="#000" d="M599 421h40v40h-40v-40Z"/>
    <path fill="#fff" fill-rule="evenodd" d="M637.8 422.2h-37.6v37.6h37.6v-37.6ZM599 421v40h40v-40h-40Z" clip-rule="evenodd"/>
    <path fill="#000" d="M363 421h39v40h-39v-40Z"/>
    <path fill="#fff" fill-rule="evenodd" d="M400.83 422.2h-36.66v37.6h36.66v-37.6ZM363 421v40h39v-40h-39Z" clip-rule="evenodd"/>
    <path fill="#000" d="M678 421h40v40h-40v-40Z"/>
    <path fill="#fff" fill-rule="evenodd" d="M716.8 422.2h-37.6v37.6h37.6v-37.6ZM678 421v40h40v-40h-40Z" clip-rule="evenodd"/>
    <path fill="#000" d="M599 382h40v39h-40v-39Z"/>
    <path fill="#fff" fill-rule="evenodd" d="M637.8 383.17h-37.6v36.66h37.6v-36.66ZM599 382v39h40v-39h-40Z" clip-rule="evenodd"/>
    <path fill="#000" d="M363 382h39v39h-39v-39Z"/>
    <path fill="#fff" fill-rule="evenodd" d="M400.83 383.17h-36.66v36.66h36.66v-36.66ZM363 382v39h39v-39h-39Z" clip-rule="evenodd"/>
    <path fill="#000" d="M521 382h39v39h-39v-39Z"/>
    <path fill="#fff" fill-rule="evenodd" d="M558.83 383.17h-36.66v36.66h36.66v-36.66ZM521 382v39h39v-39h-39Z" clip-rule="evenodd"/>
    <path fill="#000" d="M521 342h39v40h-39v-40Z"/>
    <path fill="#fff" fill-rule="evenodd" d="M558.83 343.2h-36.66v37.6h36.66v-37.6ZM521 342v40h39v-40h-39Z" clip-rule="evenodd"/>
    <path fill="#000" d="M521 303h39v39h-39v-39Z"/>
    <path fill="#fff" fill-rule="evenodd" d="M558.83 304.17h-36.66v36.66h36.66v-36.66ZM521 303v39h39v-39h-39Z" clip-rule="evenodd"/>
    <path fill="#000" d="M599 461h40v39h-40v-39Z"/>
    <path fill="#fff" fill-rule="evenodd" d="M637.8 462.17h-37.6v36.66h37.6v-36.66ZM599 461v39h40v-39h-40Z" clip-rule="evenodd"/>
    <path fill="#000" d="M363 461h39v39h-39v-39Z"/>
    <path fill="#fff" fill-rule="evenodd" d="M400.83 462.17h-36.66v36.66h36.66v-36.66ZM363 461v39h39v-39h-39Z" clip-rule="evenodd"/>
    <path fill="#000" d="M678 461h40v39h-40v-39Z"/>
    <path fill="#fff" fill-rule="evenodd" d="M716.8 462.17h-37.6v36.66h37.6v-36.66ZM678 461v39h40v-39h-40Z" clip-rule="evenodd"/>
    <path fill="#000" d="M757 461h39v39h-39v-39Z"/>
    <path fill="#fff" fill-rule="evenodd" d="M794.83 462.17h-36.66v36.66h36.66v-36.66ZM757 461v39h39v-39h-39Z" clip-rule="evenodd"/>
    <path fill="#000" d="M284 461h39v39h-39v-39Z"/>
    <path fill="#fff" fill-rule="evenodd" d="M321.83 462.17h-36.66v36.66h36.66v-36.66ZM284 461v39h39v-39h-39Z" clip-rule="evenodd"/>
    <path fill="#000" d="M599 500h40v40h-40v-40Z"/>
    <path fill="#fff" fill-rule="evenodd" d="M637.8 501.2h-37.6v37.6h37.6v-37.6ZM599 500v40h40v-40h-40Z" clip-rule="evenodd"/>
    <path fill="#000" d="M363 500h39v40h-39v-40Z"/>
    <path fill="#fff" fill-rule="evenodd" d="M400.83 501.2h-36.66v37.6h36.66v-37.6ZM363 500v40h39v-40h-39Z" clip-rule="evenodd"/>
    <path fill="#000" d="M678 500h40v40h-40v-40Z"/>
    <path fill="#fff" fill-rule="evenodd" d="M716.8 501.2h-37.6v37.6h37.6v-37.6ZM678 500v40h40v-40h-40Z" clip-rule="evenodd"/>
    <path fill="#000" d="M757 500h39v40h-39v-40Z"/>
    <path fill="#fff" fill-rule="evenodd" d="M794.83 501.2h-36.66v37.6h36.66v-37.6ZM757 500v40h39v-40h-39Z" clip-rule="evenodd"/>
    <path fill="#000" d="M284 500h39v40h-39v-40Z"/>
    <path fill="#fff" fill-rule="evenodd" d="M321.83 501.2h-36.66v37.6h36.66v-37.6ZM284 500v40h39v-40h-39Z" clip-rule="evenodd"/>
    <path fill="#000" d="M599 540h40v39h-40v-39Z"/>
    <path fill="#fff" fill-rule="evenodd" d="M637.8 541.17h-37.6v36.66h37.6v-36.66ZM599 540v39h40v-39h-40Z" clip-rule="evenodd"/>
    <path fill="#000" d="M363 540h39v39h-39v-39Z"/>
    <path fill="#fff" fill-rule="evenodd" d="M400.83 541.17h-36.66v36.66h36.66v-36.66ZM363 540v39h39v-39h-39Z" clip-rule="evenodd"/>
    <path fill="#000" d="M678 540h40v39h-40v-39Z"/>
    <path fill="#fff" fill-rule="evenodd" d="M716.8 541.17h-37.6v36.66h37.6v-36.66ZM678 540v39h40v-39h-40Z" clip-rule="evenodd"/>
    <path fill="#000" d="M757 540h39v39h-39v-39Z"/>
    <path fill="#fff" fill-rule="evenodd" d="M794.83 541.17h-36.66v36.66h36.66v-36.66ZM757 540v39h39v-39h-39Z" clip-rule="evenodd"/>
    <path fill="#000" d="M284 540h39v39h-39v-39Z"/>
    <path fill="#fff" fill-rule="evenodd" d="M321.83 541.17h-36.66v36.66h36.66v-36.66ZM284 540v39h39v-39h-39Z" clip-rule="evenodd"/>
    <path fill="#000" d="M599 579h40v39h-40v-39Z"/>
    <path fill="#fff" fill-rule="evenodd" d="M637.8 580.17h-37.6v36.66h37.6v-36.66ZM599 579v39h40v-39h-40Z" clip-rule="evenodd"/>
    <path fill="#000" d="M363 579h39v39h-39v-39Z"/>
    <path fill="#fff" fill-rule="evenodd" d="M400.83 580.17h-36.66v36.66h36.66v-36.66ZM363 579v39h39v-39h-39Z" clip-rule="evenodd"/>
    <path fill="#000" d="M678 579h40v39h-40v-39Z"/>
    <path fill="#fff" fill-rule="evenodd" d="M716.8 580.17h-37.6v36.66h37.6v-36.66ZM678 579v39h40v-39h-40Z" clip-rule="evenodd"/>
    <path fill="#000" d="M599 618h40v40h-40v-40Z"/>
    <path fill="#fff" fill-rule="evenodd" d="M637.8 619.2h-37.6v37.6h37.6v-37.6ZM599 618v40h40v-40h-40Z" clip-rule="evenodd"/>
    <path fill="#000" d="M363 618h39v40h-39v-40Z"/>
    <path fill="#fff" fill-rule="evenodd" d="M400.83 619.2h-36.66v37.6h36.66v-37.6ZM363 618v40h39v-40h-39Z" clip-rule="evenodd"/>
    <path fill="#000" d="M599 658h40v39h-40v-39Z"/>
    <path fill="#fff" fill-rule="evenodd" d="M637.8 659.17h-37.6v36.66h37.6v-36.66ZM599 658v39h40v-39h-40Z" clip-rule="evenodd"/>
    <path fill="#000" d="M363 658h39v39h-39v-39Z"/>
    <path fill="#fff" fill-rule="evenodd" d="M400.83 659.17h-36.66v36.66h36.66v-36.66ZM363 658v39h39v-39h-39Z" clip-rule="evenodd"/>
    <path fill="#000" d="M521 461h39v39h-39v-39Z"/>
    <path fill="#fff" fill-rule="evenodd" d="M558.83 462.17h-36.66v36.66h36.66v-36.66ZM521 461v39h39v-39h-39Z" clip-rule="evenodd"/>
    <path fill="#000" d="M521 421h39v40h-39v-40Z"/>
    <path fill="#fff" fill-rule="evenodd" d="M558.83 422.2h-36.66v37.6h36.66v-37.6ZM521 421v40h39v-40h-39Z" clip-rule="evenodd"/>
    <path fill="#000" d="M521 500h39v40h-39v-40Z"/>
    <path fill="#fff" fill-rule="evenodd" d="M558.83 501.2h-36.66v37.6h36.66v-37.6ZM521 500v40h39v-40h-39Z" clip-rule="evenodd"/>
    <path fill="#000" d="M521 540h39v39h-39v-39Z"/>
    <path fill="#fff" fill-rule="evenodd" d="M558.83 541.17h-36.66v36.66h36.66v-36.66ZM521 540v39h39v-39h-39Z" clip-rule="evenodd"/>
    <path fill="#000" d="M521 579h39v39h-39v-39Z"/>
    <path fill="#fff" fill-rule="evenodd" d="M558.83 580.17h-36.66v36.66h36.66v-36.66ZM521 579v39h39v-39h-39Z" clip-rule="evenodd"/>
    <path fill="#000" d="M521 618h39v40h-39v-40Z"/>
    <path fill="#fff" fill-rule="evenodd" d="M558.83 619.2h-36.66v37.6h36.66v-37.6ZM521 618v40h39v-40h-39Z" clip-rule="evenodd"/>
    <path fill="#000" d="M521 658h39v39h-39v-39Z"/>
    <path fill="#fff" fill-rule="evenodd" d="M558.83 659.17h-36.66v36.66h36.66v-36.66ZM521 658v39h39v-39h-39Z" clip-rule="evenodd"/>
    <path fill="#000" d="M521 697h39v40h-39v-40Z"/>
    <path fill="#fff" fill-rule="evenodd" d="M558.83 698.2h-36.66v37.6h36.66v-37.6ZM521 697v40h39v-40h-39Z" clip-rule="evenodd"/>
    <path fill="#000" d="M521 737h39v39h-39v-39Z"/>
    <path fill="#fff" fill-rule="evenodd" d="M558.83 738.17h-36.66v36.66h36.66v-36.66ZM521 737v39h39v-39h-39Z" clip-rule="evenodd"/>
    <path fill="#000" d="M442 500h39v40h-39v-40Z"/>
    <path fill="#fff" fill-rule="evenodd" d="M479.83 501.2h-36.66v37.6h36.66v-37.6ZM442 500v40h39v-40h-39Z" clip-rule="evenodd"/>
    <path fill="#000" d="M442 540h39v39h-39v-39Z"/>
    <path fill="#fff" fill-rule="evenodd" d="M479.83 541.17h-36.66v36.66h36.66v-36.66ZM442 540v39h39v-39h-39Z" clip-rule="evenodd"/>
    <path fill="#000" d="M442 579h39v39h-39v-39Z"/>
    <path fill="#fff" fill-rule="evenodd" d="M479.83 580.17h-36.66v36.66h36.66v-36.66ZM442 579v39h39v-39h-39Z" clip-rule="evenodd"/>
    <path fill="#000" d="M442 618h39v40h-39v-40Z"/>
    <path fill="#fff" fill-rule="evenodd" d="M479.83 619.2h-36.66v37.6h36.66v-37.6ZM442 618v40h39v-40h-39Z" clip-rule="evenodd"/>
    <path fill="#000" d="M442 461h39v39h-39v-39Z"/>
    <path fill="#fff" fill-rule="evenodd" d="M479.83 462.17h-36.66v36.66h36.66v-36.66ZM442 461v39h39v-39h-39Z" clip-rule="evenodd"/>
    <path fill="#000" d="M442 421h39v40h-39v-40Z"/>
    <path fill="#fff" fill-rule="evenodd" d="M479.83 422.2h-36.66v37.6h36.66v-37.6ZM442 421v40h39v-40h-39Z" clip-rule="evenodd"/>
  </g>
  <defs>
    <filter id="a" width="1116" height="1116" x="-18" y="-8" color-interpolation-filters="sRGB" filterUnits="userSpaceOnUse">
      <feFlood flood-opacity="0" result="BackgroundImageFix"/>
      <feColorMatrix in="SourceAlpha" result="hardAlpha" values="0 0 0 0 0 0 0 0 0 0 0 0 0 0 0 0 0 0 127 0"/>
      <feMorphology in="SourceAlpha" operator="dilate" radius="4" result="effect1_dropShadow_4_5430"/>
      <feOffset dy="10"/>
      <feGaussianBlur stdDeviation="7"/>
      <feComposite in2="hardAlpha" operator="out"/>
      <feColorMatrix values="0 0 0 0 0 0 0 0 0 0 0 0 0 0 0 0 0 0 0.1 0"/>
      <feBlend in2="BackgroundImageFix" result="effect1_dropShadow_4_5430"/>
      <feBlend in="SourceGraphic" in2="effect1_dropShadow_4_5430" result="shape"/>
    </filter>
  </defs>
</svg>
