<svg xmlns="http://www.w3.org/2000/svg" width="1080" height="1080" fill="none" viewBox="0 0 1080 1080">
  <g filter="url(#a)">
    <path fill="#000" d="M482 284h29v28h-29v-28Z"/>
    <path fill="#fff" fill-rule="evenodd" d="M510.13 284.84h-27.26v26.32h27.26v-26.32ZM482 284v28h29v-28h-29Z" clip-rule="evenodd"/>
    <path fill="#000" d="M454 312h28v29h-28v-29Z"/>
    <path fill="#fff" fill-rule="evenodd" d="M481.16 312.87h-26.32v27.26h26.32v-27.26ZM454 312v29h28v-29h-28Z" clip-rule="evenodd"/>
    <path fill="#000" d="M425 341h29v28h-29v-28Z"/>
    <path fill="#fff" fill-rule="evenodd" d="M453.13 341.84h-27.26v26.32h27.26v-26.32ZM425 341v28h29v-28h-29Z" clip-rule="evenodd"/>
    <path fill="#000" d="M397 369h28v29h-28v-29Z"/>
    <path fill="#fff" fill-rule="evenodd" d="M424.16 369.87h-26.32v27.26h26.32v-27.26ZM397 369v29h28v-29h-28Z" clip-rule="evenodd"/>
    <path fill="#000" d="M654 369h28v29h-28v-29Z"/>
    <path fill="#fff" fill-rule="evenodd" d="M681.16 369.87h-26.32v27.26h26.32v-27.26ZM654 369v29h28v-29h-28Z" clip-rule="evenodd"/>
    <path fill="#000" d="M397 398h28v28h-28v-28Z"/>
    <path fill="#fff" fill-rule="evenodd" d="M424.16 398.84h-26.32v26.32h26.32v-26.32ZM397 398v28h28v-28h-28Z" clip-rule="evenodd"/>
    <path fill="#000" d="M654 398h28v28h-28v-28Z"/>
    <path fill="#fff" fill-rule="evenodd" d="M681.16 398.84h-26.32v26.32h26.32v-26.32ZM654 398v28h28v-28h-28Z" clip-rule="evenodd"/>
    <path fill="#000" d="M397 426h28v28h-28v-28Z"/>
    <path fill="#fff" fill-rule="evenodd" d="M424.16 426.84h-26.32v26.32h26.32v-26.32ZM397 426v28h28v-28h-28Z" clip-rule="evenodd"/>
    <path fill="#000" d="M654 426h28v28h-28v-28Z"/>
    <path fill="#fff" fill-rule="evenodd" d="M681.16 426.84h-26.32v26.32h26.32v-26.32ZM654 426v28h28v-28h-28Z" clip-rule="evenodd"/>
    <path fill="#000" d="M397 454h28v29h-28v-29Z"/>
    <path fill="#fff" fill-rule="evenodd" d="M424.16 454.87h-26.32v27.26h26.32v-27.26ZM397 454v29h28v-29h-28Z" clip-rule="evenodd"/>
    <path fill="#000" d="M654 454h28v29h-28v-29Z"/>
    <path fill="#fff" fill-rule="evenodd" d="M681.16 454.87h-26.32v27.26h26.32v-27.26ZM654 454v29h28v-29h-28Z" clip-rule="evenodd"/>
    <path fill="#000" d="M397 483h28v28h-28v-28Z"/>
    <path fill="#fff" fill-rule="evenodd" d="M424.16 483.84h-26.32v26.32h26.32v-26.32ZM397 483v28h28v-28h-28Z" clip-rule="evenodd"/>
    <path fill="#000" d="M654 483h28v28h-28v-28Z"/>
    <path fill="#fff" fill-rule="evenodd" d="M681.16 483.84h-26.32v26.32h26.32v-26.32ZM654 483v28h28v-28h-28Z" clip-rule="evenodd"/>
    <path fill="#000" d="M397 511h28v30h-28v-30Z"/>
    <path fill="#fff" fill-rule="evenodd" d="M424.16 511.9h-26.32v28.2h26.32v-28.2ZM397 511v30h28v-30h-28Z" clip-rule="evenodd"/>
    <path fill="#000" d="M654 511h28v30h-28v-30Z"/>
    <path fill="#fff" fill-rule="evenodd" d="M681.16 511.9h-26.32v28.2h26.32v-28.2ZM654 511v30h28v-30h-28Z" clip-rule="evenodd"/>
    <path fill="#000" d="M624 541h30v28h-30v-28Z"/>
    <path fill="#fff" fill-rule="evenodd" d="M653.1 541.84h-28.2v26.32h28.2v-26.32ZM624 541v28h30v-28h-30Z" clip-rule="evenodd"/>
    <path fill="#000" d="M596 569h28v28h-28v-28Z"/>
    <path fill="#fff" fill-rule="evenodd" d="M623.16 569.84h-26.32v26.32h26.32v-26.32ZM596 569v28h28v-28h-28Z" clip-rule="evenodd"/>
    <path fill="#000" d="M425 541h29v28h-29v-28Z"/>
    <path fill="#fff" fill-rule="evenodd" d="M453.13 541.84h-27.26v26.32h27.26v-26.32ZM425 541v28h29v-28h-29Z" clip-rule="evenodd"/>
    <path fill="#000" d="M454 569h28v28h-28v-28Z"/>
    <path fill="#fff" fill-rule="evenodd" d="M481.16 569.84h-26.32v26.32h26.32v-26.32ZM454 569v28h28v-28h-28Z" clip-rule="evenodd"/>
    <path fill="#000" d="M454 426h28v28h-28v-28Z"/>
    <path fill="#fff" fill-rule="evenodd" d="M481.16 426.84h-26.32v26.32h26.32v-26.32ZM454 426v28h28v-28h-28Z" clip-rule="evenodd"/>
    <path fill="#000" d="M454 398h28v28h-28v-28Z"/>
    <path fill="#fff" fill-rule="evenodd" d="M481.16 398.84h-26.32v26.32h26.32v-26.32ZM454 398v28h28v-28h-28Z" clip-rule="evenodd"/>
    <path fill="#000" d="M482 369h29v29h-29v-29Z"/>
    <path fill="#fff" fill-rule="evenodd" d="M510.13 369.87h-27.26v27.26h27.26v-27.26ZM482 369v29h29v-29h-29Z" clip-rule="evenodd"/>
    <path fill="#000" d="M482 597h29v29h-29v-29Z"/>
    <path fill="#fff" fill-rule="evenodd" d="M510.13 597.87h-27.26v27.26h27.26v-27.26ZM482 597v29h29v-29h-29Z" clip-rule="evenodd"/>
    <path fill="#000" d="M511 284h28v28h-28v-28Z"/>
    <path fill="#fff" fill-rule="evenodd" d="M538.16 284.84h-26.32v26.32h26.32v-26.32ZM511 284v28h28v-28h-28Z" clip-rule="evenodd"/>
    <path fill="#000" d="M511 597h28v29h-28v-29Z"/>
    <path fill="#fff" fill-rule="evenodd" d="M538.16 597.87h-26.32v27.26h26.32v-27.26ZM511 597v29h28v-29h-28Z" clip-rule="evenodd"/>
    <path fill="#000" d="M511 626h28v28h-28v-28Z"/>
    <path fill="#fff" fill-rule="evenodd" d="M538.16 626.84h-26.32v26.32h26.32v-26.32ZM511 626v28h28v-28h-28Z" clip-rule="evenodd"/>
    <path fill="#000" d="M539 654h28v29h-28v-29Z"/>
    <path fill="#fff" fill-rule="evenodd" d="M566.16 654.87h-26.32v27.26h26.32v-27.26ZM539 654v29h28v-29h-28Z" clip-rule="evenodd"/>
    <path fill="#000" d="M567 683h29v28h-29v-28Z"/>
    <path fill="#fff" fill-rule="evenodd" d="M595.13 683.84h-27.26v26.32h27.26v-26.32ZM567 683v28h29v-28h-29Z" clip-rule="evenodd"/>
    <path fill="#000" d="M539 711h28v28h-28v-28Z"/>
    <path fill="#fff" fill-rule="evenodd" d="M566.16 711.84h-26.32v26.32h26.32v-26.32ZM539 711v28h28v-28h-28Z" clip-rule="evenodd"/>
    <path fill="#000" d="M511 739h28v29h-28v-29Z"/>
    <path fill="#fff" fill-rule="evenodd" d="M538.16 739.87h-26.32v27.26h26.32v-27.26ZM511 739v29h28v-29h-28Z" clip-rule="evenodd"/>
    <path fill="#000" d="M511 768h28v28h-28v-28Z"/>
    <path fill="#fff" fill-rule="evenodd" d="M538.16 768.84h-26.32v26.32h26.32v-26.32ZM511 768v28h28v-28h-28Z" clip-rule="evenodd"/>
    <path fill="#000" d="M539 284h28v28h-28v-28Z"/>
    <path fill="#fff" fill-rule="evenodd" d="M566.16 284.84h-26.32v26.32h26.32v-26.32ZM539 284v28h28v-28h-28Z" clip-rule="evenodd"/>
    <path fill="#000" d="M539 597h28v29h-28v-29Z"/>
    <path fill="#fff" fill-rule="evenodd" d="M566.16 597.87h-26.32v27.26h26.32v-27.26ZM539 597v29h28v-29h-28Z" clip-rule="evenodd"/>
    <path fill="#000" d="M567 284h29v28h-29v-28Z"/>
    <path fill="#fff" fill-rule="evenodd" d="M595.13 284.84h-27.26v26.32h27.26v-26.32ZM567 284v28h29v-28h-29Z" clip-rule="evenodd"/>
    <path fill="#000" d="M596 312h28v29h-28v-29Z"/>
    <path fill="#fff" fill-rule="evenodd" d="M623.16 312.87h-26.32v27.26h26.32v-27.26ZM596 312v29h28v-29h-28Z" clip-rule="evenodd"/>
    <path fill="#000" d="M624 341h30v28h-30v-28Z"/>
    <path fill="#fff" fill-rule="evenodd" d="M653.1 341.84h-28.2v26.32h28.2v-26.32ZM624 341v28h30v-28h-30Z" clip-rule="evenodd"/>
    <path fill="#000" d="M567 597h29v29h-29v-29Z"/>
    <path fill="#fff" fill-rule="evenodd" d="M595.13 597.87h-27.26v27.26h27.26v-27.26ZM567 597v29h29v-29h-29Z" clip-rule="evenodd"/>
  </g>
  <defs>
    <filter id="a" width="1116" height="1116" x="-18" y="-8" color-interpolation-filters="sRGB" filterUnits="userSpaceOnUse">
      <feFlood flood-opacity="0" result="BackgroundImageFix"/>
      <feColorMatrix in="SourceAlpha" result="hardAlpha" values="0 0 0 0 0 0 0 0 0 0 0 0 0 0 0 0 0 0 127 0"/>
      <feMorphology in="SourceAlpha" operator="dilate" radius="4" result="effect1_dropShadow_4_3923"/>
      <feOffset dy="10"/>
      <feGaussianBlur stdDeviation="7"/>
      <feComposite in2="hardAlpha" operator="out"/>
      <feColorMatrix values="0 0 0 0 0 0 0 0 0 0 0 0 0 0 0 0 0 0 0.1 0"/>
      <feBlend in2="BackgroundImageFix" result="effect1_dropShadow_4_3923"/>
      <feBlend in="SourceGraphic" in2="effect1_dropShadow_4_3923" result="shape"/>
    </filter>
  </defs>
</svg>
