<svg xmlns="http://www.w3.org/2000/svg" width="1080" height="1080" fill="none" viewBox="0 0 1080 1080">
  <g filter="url(#a)">
    <path fill="#000" d="M413 327h41v43h-41v-43Z"/>
    <path fill="#fff" fill-rule="evenodd" d="M452.77 328.29h-38.54v40.42h38.54v-40.42ZM413 327v43h41v-43h-41Z" clip-rule="evenodd"/>
    <path fill="#000" d="M413 497h41v43h-41v-43Z"/>
    <path fill="#fff" fill-rule="evenodd" d="M452.77 498.29h-38.54v40.42h38.54v-40.42ZM413 497v43h41v-43h-41Z" clip-rule="evenodd"/>
    <path fill="#000" d="M370 327h43v43h-43v-43Z"/>
    <path fill="#fff" fill-rule="evenodd" d="M411.71 328.29h-40.42v40.42h40.42v-40.42ZM370 327v43h43v-43h-43Z" clip-rule="evenodd"/>
    <path fill="#000" d="M327 327h43v43h-43v-43Z"/>
    <path fill="#fff" fill-rule="evenodd" d="M368.71 328.29h-40.42v40.42h40.42v-40.42ZM327 327v43h43v-43h-43Z" clip-rule="evenodd"/>
    <path fill="#000" d="M370 327h43v43h-43v-43Z"/>
    <path fill="#fff" fill-rule="evenodd" d="M411.71 328.29h-40.42v40.42h40.42v-40.42ZM370 327v43h43v-43h-43Z" clip-rule="evenodd"/>
    <path fill="#000" d="M370 284h43v43h-43v-43Z"/>
    <path fill="#fff" fill-rule="evenodd" d="M411.71 285.29h-40.42v40.42h40.42v-40.42ZM370 284v43h43v-43h-43Z" clip-rule="evenodd"/>
    <path fill="#000" d="M370 370h43v41h-43v-41Z"/>
    <path fill="#fff" fill-rule="evenodd" d="M411.71 371.23h-40.42v38.54h40.42v-38.54ZM370 370v41h43v-41h-43Z" clip-rule="evenodd"/>
    <path fill="#000" d="M370 411h43v43h-43v-43Z"/>
    <path fill="#fff" fill-rule="evenodd" d="M411.71 412.29h-40.42v40.42h40.42v-40.42ZM370 411v43h43v-43h-43Z" clip-rule="evenodd"/>
    <path fill="#000" d="M370 454h43v43h-43v-43Z"/>
    <path fill="#fff" fill-rule="evenodd" d="M411.71 455.29h-40.42v40.42h40.42v-40.42ZM370 454v43h43v-43h-43Z" clip-rule="evenodd"/>
    <path fill="#000" d="M370 497h43v43h-43v-43Z"/>
    <path fill="#fff" fill-rule="evenodd" d="M411.71 498.29h-40.42v40.42h40.42v-40.42ZM370 497v43h43v-43h-43Z" clip-rule="evenodd"/>
    <path fill="#000" d="M370 540h43v43h-43v-43Z"/>
    <path fill="#fff" fill-rule="evenodd" d="M411.71 541.29h-40.42v40.42h40.42v-40.42ZM370 540v43h43v-43h-43Z" clip-rule="evenodd"/>
    <path fill="#000" d="M370 583h43v41h-43v-41Z"/>
    <path fill="#fff" fill-rule="evenodd" d="M411.71 584.23h-40.42v38.54h40.42v-38.54ZM370 583v41h43v-41h-43Z" clip-rule="evenodd"/>
    <path fill="#000" d="M370 624h43v43h-43v-43Z"/>
    <path fill="#fff" fill-rule="evenodd" d="M411.71 625.29h-40.42v40.42h40.42v-40.42ZM370 624v43h43v-43h-43Z" clip-rule="evenodd"/>
    <path fill="#000" d="M370 667h43v43h-43v-43Z"/>
    <path fill="#fff" fill-rule="evenodd" d="M411.71 668.29h-40.42v40.42h40.42v-40.42ZM370 667v43h43v-43h-43Z" clip-rule="evenodd"/>
    <path fill="#000" d="M370 710h43v43h-43v-43Z"/>
    <path fill="#fff" fill-rule="evenodd" d="M411.71 711.29h-40.42v40.42h40.42v-40.42ZM370 710v43h43v-43h-43Z" clip-rule="evenodd"/>
    <path fill="#000" d="M370 753h43v43h-43v-43Z"/>
    <path fill="#fff" fill-rule="evenodd" d="M411.71 754.29h-40.42v40.42h40.42v-40.42ZM370 753v43h43v-43h-43Z" clip-rule="evenodd"/>
    <path fill="#000" d="M540 327h43v43h-43v-43Z"/>
    <path fill="#fff" fill-rule="evenodd" d="M581.71 328.29h-40.42v40.42h40.42v-40.42ZM540 327v43h43v-43h-43Z" clip-rule="evenodd"/>
    <path fill="#000" d="M540 497h43v43h-43v-43Z"/>
    <path fill="#fff" fill-rule="evenodd" d="M581.71 498.29h-40.42v40.42h40.42v-40.42ZM540 497v43h43v-43h-43Z" clip-rule="evenodd"/>
    <path fill="#000" d="M667 370h43v41h-43v-41Z"/>
    <path fill="#fff" fill-rule="evenodd" d="M708.71 371.23h-40.42v38.54h40.42v-38.54ZM667 370v41h43v-41h-43Z" clip-rule="evenodd"/>
    <path fill="#000" d="M710 411h43v43h-43v-43Z"/>
    <path fill="#fff" fill-rule="evenodd" d="M751.71 412.29h-40.42v40.42h40.42v-40.42ZM710 411v43h43v-43h-43Z" clip-rule="evenodd"/>
    <path fill="#000" d="M710 454h43v43h-43v-43Z"/>
    <path fill="#fff" fill-rule="evenodd" d="M751.71 455.29h-40.42v40.42h40.42v-40.42ZM710 454v43h43v-43h-43Z" clip-rule="evenodd"/>
    <path fill="#000" d="M710 497h43v43h-43v-43Z"/>
    <path fill="#fff" fill-rule="evenodd" d="M751.71 498.29h-40.42v40.42h40.42v-40.42ZM710 497v43h43v-43h-43Z" clip-rule="evenodd"/>
    <path fill="#000" d="M710 540h43v43h-43v-43Z"/>
    <path fill="#fff" fill-rule="evenodd" d="M751.71 541.29h-40.42v40.42h40.42v-40.42ZM710 540v43h43v-43h-43Z" clip-rule="evenodd"/>
    <path fill="#000" d="M667 540h43v43h-43v-43Z"/>
    <path fill="#fff" fill-rule="evenodd" d="M708.71 541.29h-40.42v40.42h40.42v-40.42ZM667 540v43h43v-43h-43Z" clip-rule="evenodd"/>
    <path fill="#000" d="M497 327h43v43h-43v-43Z"/>
    <path fill="#fff" fill-rule="evenodd" d="M538.71 328.29h-40.42v40.42h40.42v-40.42ZM497 327v43h43v-43h-43Z" clip-rule="evenodd"/>
    <path fill="#000" d="M497 497h43v43h-43v-43Z"/>
    <path fill="#fff" fill-rule="evenodd" d="M538.71 498.29h-40.42v40.42h40.42v-40.42ZM497 497v43h43v-43h-43Z" clip-rule="evenodd"/>
    <path fill="#000" d="M626 370h41v41h-41v-41Z"/>
    <path fill="#fff" fill-rule="evenodd" d="M665.77 371.23h-38.54v38.54h38.54v-38.54ZM626 370v41h41v-41h-41Z" clip-rule="evenodd"/>
    <path fill="#000" d="M626 540h41v43h-41v-43Z"/>
    <path fill="#fff" fill-rule="evenodd" d="M665.77 541.29h-38.54v40.42h38.54v-40.42ZM626 540v43h41v-43h-41Z" clip-rule="evenodd"/>
    <path fill="#000" d="M454 327h43v43h-43v-43Z"/>
    <path fill="#fff" fill-rule="evenodd" d="M495.71 328.29h-40.42v40.42h40.42v-40.42ZM454 327v43h43v-43h-43Z" clip-rule="evenodd"/>
    <path fill="#000" d="M454 497h43v43h-43v-43Z"/>
    <path fill="#fff" fill-rule="evenodd" d="M495.71 498.29h-40.42v40.42h40.42v-40.42ZM454 497v43h43v-43h-43Z" clip-rule="evenodd"/>
    <path fill="#000" d="M583 370h43v41h-43v-41Z"/>
    <path fill="#fff" fill-rule="evenodd" d="M624.71 371.23h-40.42v38.54h40.42v-38.54ZM583 370v41h43v-41h-43Z" clip-rule="evenodd"/>
    <path fill="#000" d="M583 540h43v43h-43v-43Z"/>
    <path fill="#fff" fill-rule="evenodd" d="M624.71 541.29h-40.42v40.42h40.42v-40.42ZM583 540v43h43v-43h-43Z" clip-rule="evenodd"/>
  </g>
  <defs>
    <filter id="a" width="1116" height="1116" x="-18" y="-8" color-interpolation-filters="sRGB" filterUnits="userSpaceOnUse">
      <feFlood flood-opacity="0" result="BackgroundImageFix"/>
      <feColorMatrix in="SourceAlpha" result="hardAlpha" values="0 0 0 0 0 0 0 0 0 0 0 0 0 0 0 0 0 0 127 0"/>
      <feMorphology in="SourceAlpha" operator="dilate" radius="4" result="effect1_dropShadow_4_3743"/>
      <feOffset dy="10"/>
      <feGaussianBlur stdDeviation="7"/>
      <feComposite in2="hardAlpha" operator="out"/>
      <feColorMatrix values="0 0 0 0 0 0 0 0 0 0 0 0 0 0 0 0 0 0 0.1 0"/>
      <feBlend in2="BackgroundImageFix" result="effect1_dropShadow_4_3743"/>
      <feBlend in="SourceGraphic" in2="effect1_dropShadow_4_3743" result="shape"/>
    </filter>
  </defs>
</svg>
