<svg xmlns="http://www.w3.org/2000/svg" width="1080" height="1080" fill="none" viewBox="0 0 1080 1080">
  <g filter="url(#a)">
    <path fill="#000" d="M284 331h47v46h-47v-46Z"/>
    <path fill="#fff" fill-rule="evenodd" d="M329.59 332.38h-44.18v43.24h44.18v-43.24ZM284 331v46h47v-46h-47Z" clip-rule="evenodd"/>
    <path fill="#000" d="M284 517h47v46h-47v-46Z"/>
    <path fill="#fff" fill-rule="evenodd" d="M329.59 518.38h-44.18v43.24h44.18v-43.24ZM284 517v46h47v-46h-47Z" clip-rule="evenodd"/>
    <path fill="#000" d="M749 331h47v46h-47v-46Z"/>
    <path fill="#fff" fill-rule="evenodd" d="M794.59 332.38h-44.18v43.24h44.18v-43.24ZM749 331v46h47v-46h-47Z" clip-rule="evenodd"/>
    <path fill="#000" d="M749 517h47v46h-47v-46Z"/>
    <path fill="#fff" fill-rule="evenodd" d="M794.59 518.38h-44.18v43.24h44.18v-43.24ZM749 517v46h47v-46h-47Z" clip-rule="evenodd"/>
    <path fill="#000" d="M331 284h46v47h-46v-47Z"/>
    <path fill="#fff" fill-rule="evenodd" d="M375.62 285.41h-43.24v44.18h43.24v-44.18ZM331 284v47h46v-47h-46Z" clip-rule="evenodd"/>
    <path fill="#000" d="M331 749h46v47h-46v-47Z"/>
    <path fill="#fff" fill-rule="evenodd" d="M375.62 750.41h-43.24v44.18h43.24v-44.18ZM331 749v47h46v-47h-46Z" clip-rule="evenodd"/>
    <path fill="#000" d="M377 284h47v47h-47v-47Z"/>
    <path fill="#fff" fill-rule="evenodd" d="M422.59 285.41h-44.18v44.18h44.18v-44.18ZM377 284v47h47v-47h-47Z" clip-rule="evenodd"/>
    <path fill="#000" d="M377 749h47v47h-47v-47Z"/>
    <path fill="#fff" fill-rule="evenodd" d="M422.59 750.41h-44.18v44.18h44.18v-44.18ZM377 749v47h47v-47h-47Z" clip-rule="evenodd"/>
    <path fill="#000" d="M424 284h46v47h-46v-47Z"/>
    <path fill="#fff" fill-rule="evenodd" d="M468.62 285.41h-43.24v44.18h43.24v-44.18ZM424 284v47h46v-47h-46Z" clip-rule="evenodd"/>
    <path fill="#000" d="M424 749h46v47h-46v-47Z"/>
    <path fill="#fff" fill-rule="evenodd" d="M468.62 750.41h-43.24v44.18h43.24v-44.18ZM424 749v47h46v-47h-46Z" clip-rule="evenodd"/>
    <path fill="#000" d="M470 284h47v47h-47v-47Z"/>
    <path fill="#fff" fill-rule="evenodd" d="M515.59 285.41h-44.18v44.18h44.18v-44.18ZM470 284v47h47v-47h-47Z" clip-rule="evenodd"/>
    <path fill="#000" d="M470 749h47v47h-47v-47Z"/>
    <path fill="#fff" fill-rule="evenodd" d="M515.59 750.41h-44.18v44.18h44.18v-44.18ZM470 749v47h47v-47h-47Z" clip-rule="evenodd"/>
    <path fill="#000" d="M517 284h46v47h-46v-47Z"/>
    <path fill="#fff" fill-rule="evenodd" d="M561.62 285.41h-43.24v44.18h43.24v-44.18ZM517 284v47h46v-47h-46Z" clip-rule="evenodd"/>
    <path fill="#000" d="M517 749h46v47h-46v-47Z"/>
    <path fill="#fff" fill-rule="evenodd" d="M561.62 750.41h-43.24v44.18h43.24v-44.18ZM517 749v47h46v-47h-46Z" clip-rule="evenodd"/>
    <path fill="#000" d="M563 284h47v47h-47v-47Z"/>
    <path fill="#fff" fill-rule="evenodd" d="M608.59 285.41h-44.18v44.18h44.18v-44.18ZM563 284v47h47v-47h-47Z" clip-rule="evenodd"/>
    <path fill="#000" d="M563 749h47v47h-47v-47Z"/>
    <path fill="#fff" fill-rule="evenodd" d="M608.59 750.41h-44.18v44.18h44.18v-44.18ZM563 749v47h47v-47h-47Z" clip-rule="evenodd"/>
    <path fill="#000" d="M610 284h46v47h-46v-47Z"/>
    <path fill="#fff" fill-rule="evenodd" d="M654.62 285.41h-43.24v44.18h43.24v-44.18ZM610 284v47h46v-47h-46Z" clip-rule="evenodd"/>
    <path fill="#000" d="M610 749h46v47h-46v-47Z"/>
    <path fill="#fff" fill-rule="evenodd" d="M654.62 750.41h-43.24v44.18h43.24v-44.18ZM610 749v47h46v-47h-46Z" clip-rule="evenodd"/>
    <path fill="#000" d="M656 284h47v47h-47v-47Z"/>
    <path fill="#fff" fill-rule="evenodd" d="M701.59 285.41h-44.18v44.18h44.18v-44.18ZM656 284v47h47v-47h-47Z" clip-rule="evenodd"/>
    <path fill="#000" d="M656 749h47v47h-47v-47Z"/>
    <path fill="#fff" fill-rule="evenodd" d="M701.59 750.41h-44.18v44.18h44.18v-44.18ZM656 749v47h47v-47h-47Z" clip-rule="evenodd"/>
    <path fill="#000" d="M703 284h46v47h-46v-47Z"/>
    <path fill="#fff" fill-rule="evenodd" d="M747.62 285.41h-43.24v44.18h43.24v-44.18ZM703 284v47h46v-47h-46Z" clip-rule="evenodd"/>
    <path fill="#000" d="M703 749h46v47h-46v-47Z"/>
    <path fill="#fff" fill-rule="evenodd" d="M747.62 750.41h-43.24v44.18h43.24v-44.18ZM703 749v47h46v-47h-46Z" clip-rule="evenodd"/>
    <path fill="#000" d="M284 377h47v47h-47v-47Z"/>
    <path fill="#fff" fill-rule="evenodd" d="M329.59 378.41h-44.18v44.18h44.18v-44.18ZM284 377v47h47v-47h-47Z" clip-rule="evenodd"/>
    <path fill="#000" d="M284 563h47v47h-47v-47Z"/>
    <path fill="#fff" fill-rule="evenodd" d="M329.59 564.41h-44.18v44.18h44.18v-44.18ZM284 563v47h47v-47h-47Z" clip-rule="evenodd"/>
    <path fill="#000" d="M749 377h47v47h-47v-47Z"/>
    <path fill="#fff" fill-rule="evenodd" d="M794.59 378.41h-44.18v44.18h44.18v-44.18ZM749 377v47h47v-47h-47Z" clip-rule="evenodd"/>
    <path fill="#000" d="M749 563h47v47h-47v-47Z"/>
    <path fill="#fff" fill-rule="evenodd" d="M794.59 564.41h-44.18v44.18h44.18v-44.18ZM749 563v47h47v-47h-47Z" clip-rule="evenodd"/>
    <path fill="#000" d="M284 424h47v46h-47v-46Z"/>
    <path fill="#fff" fill-rule="evenodd" d="M329.59 425.38h-44.18v43.24h44.18v-43.24ZM284 424v46h47v-46h-47Z" clip-rule="evenodd"/>
    <path fill="#000" d="M284 610h47v46h-47v-46Z"/>
    <path fill="#fff" fill-rule="evenodd" d="M329.59 611.38h-44.18v43.24h44.18v-43.24ZM284 610v46h47v-46h-47Z" clip-rule="evenodd"/>
    <path fill="#000" d="M284 703h47v46h-47v-46Z"/>
    <path fill="#fff" fill-rule="evenodd" d="M329.59 704.38h-44.18v43.24h44.18v-43.24ZM284 703v46h47v-46h-47Z" clip-rule="evenodd"/>
    <path fill="#000" d="M749 424h47v46h-47v-46Z"/>
    <path fill="#fff" fill-rule="evenodd" d="M794.59 425.38h-44.18v43.24h44.18v-43.24ZM749 424v46h47v-46h-47Z" clip-rule="evenodd"/>
    <path fill="#000" d="M749 610h47v46h-47v-46Z"/>
    <path fill="#fff" fill-rule="evenodd" d="M794.59 611.38h-44.18v43.24h44.18v-43.24ZM749 610v46h47v-46h-47Z" clip-rule="evenodd"/>
    <path fill="#000" d="M749 703h47v46h-47v-46Z"/>
    <path fill="#fff" fill-rule="evenodd" d="M794.59 704.38h-44.18v43.24h44.18v-43.24ZM749 703v46h47v-46h-47Z" clip-rule="evenodd"/>
    <path fill="#000" d="M284 470h47v47h-47v-47Z"/>
    <path fill="#fff" fill-rule="evenodd" d="M329.59 471.41h-44.18v44.18h44.18v-44.18ZM284 470v47h47v-47h-47Z" clip-rule="evenodd"/>
    <path fill="#000" d="M284 656h47v47h-47v-47Z"/>
    <path fill="#fff" fill-rule="evenodd" d="M329.59 657.41h-44.18v44.18h44.18v-44.18ZM284 656v47h47v-47h-47Z" clip-rule="evenodd"/>
    <path fill="#000" d="M749 470h47v47h-47v-47Z"/>
    <path fill="#fff" fill-rule="evenodd" d="M794.59 471.41h-44.18v44.18h44.18v-44.18ZM749 470v47h47v-47h-47Z" clip-rule="evenodd"/>
    <path fill="#000" d="M749 656h47v47h-47v-47Z"/>
    <path fill="#fff" fill-rule="evenodd" d="M794.59 657.41h-44.18v44.18h44.18v-44.18ZM749 656v47h47v-47h-47Z" clip-rule="evenodd"/>
    <path fill="#000" d="M400 610h47v46h-47v-46Z"/>
    <path fill="#fff" fill-rule="evenodd" d="M445.59 611.38h-44.18v43.24h44.18v-43.24ZM400 610v46h47v-46h-47Z" clip-rule="evenodd"/>
    <path fill="#000" d="M400 563h47v47h-47v-47Z"/>
    <path fill="#fff" fill-rule="evenodd" d="M445.59 564.41h-44.18v44.18h44.18v-44.18ZM400 563v47h47v-47h-47Z" clip-rule="evenodd"/>
    <path fill="#000" d="M493 563h47v47h-47v-47Z"/>
    <path fill="#fff" fill-rule="evenodd" d="M538.59 564.41h-44.18v44.18h44.18v-44.18ZM493 563v47h47v-47h-47Z" clip-rule="evenodd"/>
    <path fill="#000" d="M400 470h47v47h-47v-47Z"/>
    <path fill="#fff" fill-rule="evenodd" d="M445.59 471.41h-44.18v44.18h44.18v-44.18ZM400 470v47h47v-47h-47Z" clip-rule="evenodd"/>
    <path fill="#000" d="M587 517h46v46h-46v-46Z"/>
    <path fill="#fff" fill-rule="evenodd" d="M631.62 518.38h-43.24v43.24h43.24v-43.24ZM587 517v46h46v-46h-46Z" clip-rule="evenodd"/>
    <path fill="#000" d="M540 517h47v46h-47v-46Z"/>
    <path fill="#fff" fill-rule="evenodd" d="M585.59 518.38h-44.18v43.24h44.18v-43.24ZM540 517v46h47v-46h-47Z" clip-rule="evenodd"/>
    <path fill="#000" d="M633 563h47v47h-47v-47Z"/>
    <path fill="#fff" fill-rule="evenodd" d="M678.59 564.41h-44.18v44.18h44.18v-44.18ZM633 563v47h47v-47h-47Z" clip-rule="evenodd"/>
    <path fill="#000" d="M400 656h47v47h-47v-47Z"/>
    <path fill="#fff" fill-rule="evenodd" d="M445.59 657.41h-44.18v44.18h44.18v-44.18ZM400 656v47h47v-47h-47Z" clip-rule="evenodd"/>
    <path fill="#000" d="M400 703h47v46h-47v-46Z"/>
    <path fill="#fff" fill-rule="evenodd" d="M445.59 704.38h-44.18v43.24h44.18v-43.24ZM400 703v46h47v-46h-47Z" clip-rule="evenodd"/>
    <path fill="#000" d="M493 610h47v46h-47v-46Z"/>
    <path fill="#fff" fill-rule="evenodd" d="M538.59 611.38h-44.18v43.24h44.18v-43.24ZM493 610v46h47v-46h-47Z" clip-rule="evenodd"/>
    <path fill="#000" d="M633 610h47v46h-47v-46Z"/>
    <path fill="#fff" fill-rule="evenodd" d="M678.59 611.38h-44.18v43.24h44.18v-43.24ZM633 610v46h47v-46h-47Z" clip-rule="evenodd"/>
    <path fill="#000" d="M493 656h47v47h-47v-47Z"/>
    <path fill="#fff" fill-rule="evenodd" d="M538.59 657.41h-44.18v44.18h44.18v-44.18ZM493 656v47h47v-47h-47Z" clip-rule="evenodd"/>
    <path fill="#000" d="M633 656h47v47h-47v-47Z"/>
    <path fill="#fff" fill-rule="evenodd" d="M678.59 657.41h-44.18v44.18h44.18v-44.18ZM633 656v47h47v-47h-47Z" clip-rule="evenodd"/>
    <path fill="#000" d="M493 703h47v46h-47v-46Z"/>
    <path fill="#fff" fill-rule="evenodd" d="M538.59 704.38h-44.18v43.24h44.18v-43.24ZM493 703v46h47v-46h-47Z" clip-rule="evenodd"/>
    <path fill="#000" d="M633 703h47v46h-47v-46Z"/>
    <path fill="#fff" fill-rule="evenodd" d="M678.59 704.38h-44.18v43.24h44.18v-43.24ZM633 703v46h47v-46h-47Z" clip-rule="evenodd"/>
  </g>
  <defs>
    <filter id="a" width="1116" height="1116" x="-18" y="-8" color-interpolation-filters="sRGB" filterUnits="userSpaceOnUse">
      <feFlood flood-opacity="0" result="BackgroundImageFix"/>
      <feColorMatrix in="SourceAlpha" result="hardAlpha" values="0 0 0 0 0 0 0 0 0 0 0 0 0 0 0 0 0 0 127 0"/>
      <feMorphology in="SourceAlpha" operator="dilate" radius="4" result="effect1_dropShadow_4_5131"/>
      <feOffset dy="10"/>
      <feGaussianBlur stdDeviation="7"/>
      <feComposite in2="hardAlpha" operator="out"/>
      <feColorMatrix values="0 0 0 0 0 0 0 0 0 0 0 0 0 0 0 0 0 0 0.1 0"/>
      <feBlend in2="BackgroundImageFix" result="effect1_dropShadow_4_5131"/>
      <feBlend in="SourceGraphic" in2="effect1_dropShadow_4_5131" result="shape"/>
    </filter>
  </defs>
</svg>
