<?xml version="1.0" standalone="no"?>
<!DOCTYPE svg PUBLIC "-//W3C//DTD SVG 1.1//EN" "http://www.w3.org/Graphics/SVG/1.1/DTD/svg11.dtd">
<svg xmlns="http://www.w3.org/2000/svg">
<metadata>Generated by Fontastic.me</metadata>
<defs>
<font id="memorypixel" horiz-adv-x="512">
<font-face font-family="memorypixel" units-per-em="512" ascent="480" descent="-32"/>
<missing-glyph horiz-adv-x="512" />

<glyph glyph-name="account-box-svgrepo-com" unicode="&#97;" d="M93 465l326 0 0-23 23 0 0-23 23 0 0-326-23 0 0-23-23 0 0-23-326 0 0 23-23 0 0 23-23 0 0 326 23 0 0 23 23 0 0 23m0-325l23 0 0 23 47 0 0 23 186 0 0-23 47 0 0-23 23 0 0 256-23 0 0 23-280 0 0-23-23 0 0-256m279-47l0 23-46 0 0 24-140 0 0-24-46 0 0-23 232 0m-163 303l94 0 0-24 23 0 0-23 23 0 0-93-23 0 0-23-23 0 0-24-94 0 0 24-23 0 0 23-23 0 0 93 23 0 0 23 23 0 0 24m70-70l0 23-46 0 0-23-24 0 0-47 24 0 0-23 46 0 0 23 24 0 0 47z"/>
<glyph glyph-name="account-svgrepo-com" unicode="&#98;" d="M209 442l94 0 0-23 23 0 0-23 23 0 0-93-23 0 0-24-23 0 0-23-94 0 0 23-23 0 0 24-23 0 0 93 23 0 0 23 23 0 0 23m24-116l0-23 46 0 0 23 24 0 0 46-24 0 0 24-46 0 0-24-24 0 0-46 24 0m-70-93l186 0 0-24 47 0 0-23 23 0 0-23 23 0 0-93-372 0 0 93 23 0 0 23 23 0 0 23 47 0 0 24m-23-93l-24 0 0-24 280 0 0 24-24 0 0 23-46 0 0 23-140 0 0-23-46 0z"/>
<glyph glyph-name="alert-box-fill-svgrepo-com" unicode="&#99;" d="M419 47l-326 0 0 23-23 0 0 23-23 0 0 326 23 0 0 23 23 0 0 23 326 0 0-23 23 0 0-23 23 0 0-326-23 0 0-23-23 0z m-140 186l0 139-46 0 0-139z m0-93l0 46-46 0 0-46z"/>
<glyph glyph-name="alert-box-svgrepo-com" unicode="&#100;" d="M279 233l-46 0 0 139 46 0m0-232l-46 0 0 46 46 0m140-139l-326 0 0 23-23 0 0 23-23 0 0 326 23 0 0 23 23 0 0 23 326 0 0-23 23 0 0-23 23 0 0-326-23 0 0-23-23 0m-23 23l0 23 23 0 0 280-23 0 0 23-280 0 0-23-23 0 0-280 23 0 0-23z"/>
<glyph glyph-name="alert-circle-fill-svgrepo-com" unicode="&#101;" d="M349 23l-186 0 0 24-47 0 0 23-23 0 0 23-23 0 0 23-23 0 0 47-24 0 0 186 24 0 0 47 23 0 0 23 23 0 0 23 23 0 0 23 47 0 0 24 186 0 0-24 47 0 0-23 23 0 0-23 23 0 0-23 23 0 0-47 24 0 0-186-24 0 0-47-23 0 0-23-23 0 0-23-23 0 0-23-47 0z m-70 210l0 139-46 0 0-139z m0-93l0 46-46 0 0-46z"/>
<glyph glyph-name="alert-circle-svgrepo-com" unicode="&#102;" d="M279 233l-46 0 0 139 46 0z m0-93l-46 0 0 46 46 0z m70-117l-186 0 0 24-47 0 0 23-23 0 0 23-23 0 0 23-23 0 0 47-24 0 0 186 24 0 0 47 23 0 0 23 23 0 0 23 23 0 0 23 47 0 0 24 186 0 0-24 47 0 0-23 23 0 0-23 23 0 0-23 23 0 0-47 24 0 0-186-24 0 0-47-23 0 0-23-23 0 0-23-23 0 0-23-47 0z m-23 47l0 23 46 0 0 23 24 0 0 24 23 0 0 46 23 0 0 140-23 0 0 46-23 0 0 24-24 0 0 23-46 0 0 23-140 0 0-23-46 0 0-23-24 0 0-24-23 0 0-46-23 0 0-140 23 0 0-46 23 0 0-24 24 0 0-23 46 0 0-23z"/>
<glyph glyph-name="alert-rhombus-fill-svgrepo-com" unicode="&#103;" d="M279 23l-46 0 0 24-24 0 0 23-23 0 0 23-23 0 0 23-23 0 0 24-24 0 0 23-23 0 0 23-23 0 0 23-23 0 0 24-24 0 0 46 24 0 0 24 23 0 0 23 23 0 0 23 23 0 0 23 24 0 0 24 23 0 0 23 23 0 0 23 23 0 0 23 24 0 0 24 46 0 0-24 24 0 0-23 23 0 0-23 23 0 0-23 23 0 0-24 24 0 0-23 23 0 0-23 23 0 0-23 23 0 0-24 24 0 0-46-24 0 0-24-23 0 0-23-23 0 0-23-23 0 0-23-24 0 0-24-23 0 0-23-23 0 0-23-23 0 0-23-24 0z m0 210l0 139-46 0 0-139z m0-93l0 46-46 0 0-46z"/>
<glyph glyph-name="alert-rhombus-svgrepo-com" unicode="&#104;" d="M279 233l-46 0 0 139 46 0z m0-93l-46 0 0 46 46 0z m0-117l-46 0 0 24-24 0 0 23-23 0 0 23-23 0 0 23-23 0 0 24-24 0 0 23-23 0 0 23-23 0 0 23-23 0 0 24-24 0 0 46 24 0 0 24 23 0 0 23 23 0 0 23 23 0 0 23 24 0 0 24 23 0 0 23 23 0 0 23 23 0 0 23 24 0 0 24 46 0 0-24 24 0 0-23 23 0 0-23 23 0 0-23 23 0 0-24 24 0 0-23 23 0 0-23 23 0 0-23 23 0 0-24 24 0 0-46-24 0 0-24-23 0 0-23-23 0 0-23-23 0 0-23-24 0 0-24-23 0 0-23-23 0 0-23-23 0 0-23-24 0z m0 70l0 23 24 0 0 24 23 0 0 23 23 0 0 23 23 0 0 23 24 0 0 24 23 0 0 46-23 0 0 24-24 0 0 23-23 0 0 23-23 0 0 23-23 0 0 24-24 0 0 23-46 0 0-23-24 0 0-24-23 0 0-23-23 0 0-23-23 0 0-23-24 0 0-24-23 0 0-46 23 0 0-24 24 0 0-23 23 0 0-23 23 0 0-23 23 0 0-24 24 0 0-23z"/>
<glyph glyph-name="alert-svgrepo-com" unicode="&#105;" d="M465 47l-418 0 0 23-24 0 0 93 24 0 0 46 23 0 0 47 23 0 0 47 23 0 0 46 24 0 0 47 23 0 0 46 23 0 0 23 140 0 0-23 23 0 0-46 23 0 0-47 24 0 0-46 23 0 0-47 23 0 0-47 23 0 0-46 24 0 0-93-24 0 0-23m-256 325l-23 0 0-46-23 0 0-47-23 0 0-46-24 0 0-47-23 0 0-46-23 0 0-47 372 0 0 47-23 0 0 46-23 0 0 47-24 0 0 46-23 0 0 47-23 0 0 46-23 0 0 47-94 0 0-47m24-23l46 0 0-140-46 0 0 140m0-163l46 0 0-46-46 0z"/>
<glyph glyph-name="alpha-a-fill-svgrepo-com" unicode="&#106;" d="M233 326l46 0 0-47-46 0 0 47m116 163l0-24 47 0 0-23 23 0 0-23 23 0 0-23 23 0 0-47 24 0 0-186-24 0 0-47-23 0 0-23-23 0 0-23-23 0 0-23-47 0 0-24-186 0 0 24-47 0 0 23-23 0 0 23-23 0 0 23-23 0 0 47-24 0 0 186 24 0 0 47 23 0 0 23 23 0 0 23 23 0 0 23 47 0 0 24 186 0m-46-117l-94 0 0-23-23 0 0-209 47 0 0 93 46 0 0-93 47 0 0 209-23 0z"/>
<glyph glyph-name="alpha-a-svgrepo-com" unicode="&#107;" d="M349 489l0-24 47 0 0-23 23 0 0-23 23 0 0-23 23 0 0-47 24 0 0-186-24 0 0-47-23 0 0-23-23 0 0-23-23 0 0-23-47 0 0-24-186 0 0 24-47 0 0 23-23 0 0 23-23 0 0 23-23 0 0 47-24 0 0 186 24 0 0 47 23 0 0 23 23 0 0 23 23 0 0 23 47 0 0 24 186 0m-23-47l-140 0 0-23-46 0 0-23-24 0 0-24-23 0 0-46-23 0 0-140 23 0 0-46 23 0 0-24 24 0 0-23 46 0 0-23 140 0 0 23 46 0 0 23 24 0 0 24 23 0 0 46 23 0 0 140-23 0 0 46-23 0 0 24-24 0 0 23-46 0 0 23m-23-70l0-23 23 0 0-209-47 0 0 93-46 0 0-93-47 0 0 209 23 0 0 23 94 0m-24-46l-46 0 0-47 46 0z"/>
<glyph glyph-name="alpha-b-fill-svgrepo-com" unicode="&#108;" d="M349 489l0-24 47 0 0-23 23 0 0-23 23 0 0-23 23 0 0-47 24 0 0-186-24 0 0-47-23 0 0-23-23 0 0-23-23 0 0-23-47 0 0-24-186 0 0 24-47 0 0 23-23 0 0 23-23 0 0 23-23 0 0 47-24 0 0 186 24 0 0 47 23 0 0 23 23 0 0 23 23 0 0 23 47 0 0 24 186 0m-163-117l0-232 117 0 0 23 23 0 0 70-23 0 0 46 23 0 0 70-23 0 0 23-117 0m47-46l46 0 0-47-46 0 0 47m46-93l0-47-46 0 0 47z"/>
<glyph glyph-name="alpha-b-svgrepo-com" unicode="&#109;" d="M349 489l0-24 47 0 0-23 23 0 0-23 23 0 0-23 23 0 0-47 24 0 0-186-24 0 0-47-23 0 0-23-23 0 0-23-23 0 0-23-47 0 0-24-186 0 0 24-47 0 0 23-23 0 0 23-23 0 0 23-23 0 0 47-24 0 0 186 24 0 0 47 23 0 0 23 23 0 0 23 23 0 0 23 47 0 0 24 186 0m-23-47l-140 0 0-23-46 0 0-23-24 0 0-24-23 0 0-46-23 0 0-140 23 0 0-46 23 0 0-24 24 0 0-23 46 0 0-23 140 0 0 23 46 0 0 23 24 0 0 24 23 0 0 46 23 0 0 140-23 0 0 46-23 0 0 24-24 0 0 23-46 0 0 23m-140-70l117 0 0-23 23 0 0-70-23 0 0-46 23 0 0-70-23 0 0-23-117 0 0 232m47-46l0-47 46 0 0 47-46 0m46-93l-46 0 0-47 46 0z"/>
<glyph glyph-name="alpha-c-fill-svgrepo-com" unicode="&#110;" d="M349 489l0-24 47 0 0-23 23 0 0-23 23 0 0-23 23 0 0-47 24 0 0-186-24 0 0-47-23 0 0-23-23 0 0-23-23 0 0-23-47 0 0-24-186 0 0 24-47 0 0 23-23 0 0 23-23 0 0 23-23 0 0 47-24 0 0 186 24 0 0 47 23 0 0 23 23 0 0 23 23 0 0 23 47 0 0 24 186 0m-140-117l0-23-23 0 0-186 23 0 0-23 94 0 0 23 23 0 0 46-47 0 0-23-46 0 0 140 46 0 0-23 47 0 0 46-23 0 0 23z"/>
<glyph glyph-name="alpha-c-svgrepo-com" unicode="&#111;" d="M349 489l0-24 47 0 0-23 23 0 0-23 23 0 0-23 23 0 0-47 24 0 0-186-24 0 0-47-23 0 0-23-23 0 0-23-23 0 0-23-47 0 0-24-186 0 0 24-47 0 0 23-23 0 0 23-23 0 0 23-23 0 0 47-24 0 0 186 24 0 0 47 23 0 0 23 23 0 0 23 23 0 0 23 47 0 0 24 186 0m-23-47l-140 0 0-23-46 0 0-23-24 0 0-24-23 0 0-46-23 0 0-140 23 0 0-46 23 0 0-24 24 0 0-23 46 0 0-23 140 0 0 23 46 0 0 23 24 0 0 24 23 0 0 46 23 0 0 140-23 0 0 46-23 0 0 24-24 0 0 23-46 0 0 23m-117-70l94 0 0-23 23 0 0-46-47 0 0 23-46 0 0-140 46 0 0 23 47 0 0-46-23 0 0-23-94 0 0 23-23 0 0 186 23 0z"/>
<glyph glyph-name="alpha-d-fill-svgrepo-com" unicode="&#112;" d="M349 489l0-24 47 0 0-23 23 0 0-23 23 0 0-23 23 0 0-47 24 0 0-186-24 0 0-47-23 0 0-23-23 0 0-23-23 0 0-23-47 0 0-24-186 0 0 24-47 0 0 23-23 0 0 23-23 0 0 23-23 0 0 47-24 0 0 186 24 0 0 47 23 0 0 23 23 0 0 23 23 0 0 23 47 0 0 24 186 0m-163-117l0-232 117 0 0 23 23 0 0 23 23 0 0 140-23 0 0 23-23 0 0 23-117 0m47-46l46 0 0-23 24 0 0-94-24 0 0-23-46 0z"/>
<glyph glyph-name="alpha-d-svgrepo-com" unicode="&#113;" d="M349 489l0-24 47 0 0-23 23 0 0-23 23 0 0-23 23 0 0-47 24 0 0-186-24 0 0-47-23 0 0-23-23 0 0-23-23 0 0-23-47 0 0-24-186 0 0 24-47 0 0 23-23 0 0 23-23 0 0 23-23 0 0 47-24 0 0 186 24 0 0 47 23 0 0 23 23 0 0 23 23 0 0 23 47 0 0 24 186 0m-23-47l-140 0 0-23-46 0 0-23-24 0 0-24-23 0 0-46-23 0 0-140 23 0 0-46 23 0 0-24 24 0 0-23 46 0 0-23 140 0 0 23 46 0 0 23 24 0 0 24 23 0 0 46 23 0 0 140-23 0 0 46-23 0 0 24-24 0 0 23-46 0 0 23m-140-70l117 0 0-23 23 0 0-23 23 0 0-140-23 0 0-23-23 0 0-23-117 0 0 232m47-46l0-140 46 0 0 23 24 0 0 94-24 0 0 23z"/>
<glyph glyph-name="alpha-e-fill-svgrepo-com" unicode="&#114;" d="M349 489l0-24 47 0 0-23 23 0 0-23 23 0 0-23 23 0 0-47 24 0 0-186-24 0 0-47-23 0 0-23-23 0 0-23-23 0 0-23-47 0 0-24-186 0 0 24-47 0 0 23-23 0 0 23-23 0 0 23-23 0 0 47-24 0 0 186 24 0 0 47 23 0 0 23 23 0 0 23 23 0 0 23 47 0 0 24 186 0m-163-117l0-232 140 0 0 46-93 0 0 47 93 0 0 46-93 0 0 47 93 0 0 46z"/>
<glyph glyph-name="alpha-e-svgrepo-com" unicode="&#115;" d="M349 489l0-24 47 0 0-23 23 0 0-23 23 0 0-23 23 0 0-47 24 0 0-186-24 0 0-47-23 0 0-23-23 0 0-23-23 0 0-23-47 0 0-24-186 0 0 24-47 0 0 23-23 0 0 23-23 0 0 23-23 0 0 47-24 0 0 186 24 0 0 47 23 0 0 23 23 0 0 23 23 0 0 23 47 0 0 24 186 0m-23-47l-140 0 0-23-46 0 0-23-24 0 0-24-23 0 0-46-23 0 0-140 23 0 0-46 23 0 0-24 24 0 0-23 46 0 0-23 140 0 0 23 46 0 0 23 24 0 0 24 23 0 0 46 23 0 0 140-23 0 0 46-23 0 0 24-24 0 0 23-46 0 0 23m-140-70l140 0 0-46-93 0 0-47 93 0 0-46-93 0 0-47 93 0 0-46-140 0z"/>
<glyph glyph-name="alpha-f-fill-svgrepo-com" unicode="&#116;" d="M349 489l0-24 47 0 0-23 23 0 0-23 23 0 0-23 23 0 0-47 24 0 0-186-24 0 0-47-23 0 0-23-23 0 0-23-23 0 0-23-47 0 0-24-186 0 0 24-47 0 0 23-23 0 0 23-23 0 0 23-23 0 0 47-24 0 0 186 24 0 0 47 23 0 0 23 23 0 0 23 23 0 0 23 47 0 0 24 186 0m-163-117l0-232 47 0 0 93 70 0 0 46-70 0 0 47 93 0 0 46z"/>
<glyph glyph-name="alpha-f-svgrepo-com" unicode="&#117;" d="M349 489l0-24 47 0 0-23 23 0 0-23 23 0 0-23 23 0 0-47 24 0 0-186-24 0 0-47-23 0 0-23-23 0 0-23-23 0 0-23-47 0 0-24-186 0 0 24-47 0 0 23-23 0 0 23-23 0 0 23-23 0 0 47-24 0 0 186 24 0 0 47 23 0 0 23 23 0 0 23 23 0 0 23 47 0 0 24 186 0m-23-47l-140 0 0-23-46 0 0-23-24 0 0-24-23 0 0-46-23 0 0-140 23 0 0-46 23 0 0-24 24 0 0-23 46 0 0-23 140 0 0 23 46 0 0 23 24 0 0 24 23 0 0 46 23 0 0 140-23 0 0 46-23 0 0 24-24 0 0 23-46 0 0 23m-140-70l140 0 0-46-93 0 0-47 70 0 0-46-70 0 0-93-47 0z"/>
<glyph glyph-name="alpha-g-fill-svgrepo-com" unicode="&#118;" d="M349 489l0-24 47 0 0-23 23 0 0-23 23 0 0-23 23 0 0-47 24 0 0-186-24 0 0-47-23 0 0-23-23 0 0-23-23 0 0-23-47 0 0-24-186 0 0 24-47 0 0 23-23 0 0 23-23 0 0 23-23 0 0 47-24 0 0 186 24 0 0 47 23 0 0 23 23 0 0 23 23 0 0 23 47 0 0 24 186 0m-140-117l0-23-23 0 0-186 23 0 0-23 94 0 0 23 23 0 0 116-70 0 0-46 23 0 0-47-46 0 0 140 93 0 0 46z"/>
<glyph glyph-name="alpha-g-svgrepo-com" unicode="&#119;" d="M349 489l0-24 47 0 0-23 23 0 0-23 23 0 0-23 23 0 0-47 24 0 0-186-24 0 0-47-23 0 0-23-23 0 0-23-23 0 0-23-47 0 0-24-186 0 0 24-47 0 0 23-23 0 0 23-23 0 0 23-23 0 0 47-24 0 0 186 24 0 0 47 23 0 0 23 23 0 0 23 23 0 0 23 47 0 0 24 186 0m-23-47l-140 0 0-23-46 0 0-23-24 0 0-24-23 0 0-46-23 0 0-140 23 0 0-46 23 0 0-24 24 0 0-23 46 0 0-23 140 0 0 23 46 0 0 23 24 0 0 24 23 0 0 46 23 0 0 140-23 0 0 46-23 0 0 24-24 0 0 23-46 0 0 23m-117-70l117 0 0-46-93 0 0-140 46 0 0 47-23 0 0 46 70 0 0-116-23 0 0-23-94 0 0 23-23 0 0 186 23 0z"/>
<glyph glyph-name="alpha-h-fill-svgrepo-com" unicode="&#120;" d="M349 489l0-24 47 0 0-23 23 0 0-23 23 0 0-23 23 0 0-47 24 0 0-186-24 0 0-47-23 0 0-23-23 0 0-23-23 0 0-23-47 0 0-24-186 0 0 24-47 0 0 23-23 0 0 23-23 0 0 23-23 0 0 47-24 0 0 186 24 0 0 47 23 0 0 23 23 0 0 23 23 0 0 23 47 0 0 24 186 0m-163-117l0-232 47 0 0 93 46 0 0-93 47 0 0 232-47 0 0-93-46 0 0 93z"/>
<glyph glyph-name="alpha-h-svgrepo-com" unicode="&#121;" d="M349 489l0-24 47 0 0-23 23 0 0-23 23 0 0-23 23 0 0-47 24 0 0-186-24 0 0-47-23 0 0-23-23 0 0-23-23 0 0-23-47 0 0-24-186 0 0 24-47 0 0 23-23 0 0 23-23 0 0 23-23 0 0 47-24 0 0 186 24 0 0 47 23 0 0 23 23 0 0 23 23 0 0 23 47 0 0 24 186 0m-23-47l-140 0 0-23-46 0 0-23-24 0 0-24-23 0 0-46-23 0 0-140 23 0 0-46 23 0 0-24 24 0 0-23 46 0 0-23 140 0 0 23 46 0 0 23 24 0 0 24 23 0 0 46 23 0 0 140-23 0 0 46-23 0 0 24-24 0 0 23-46 0 0 23m-140-70l47 0 0-93 46 0 0 93 47 0 0-232-47 0 0 93-46 0 0-93-47 0z"/>
<glyph glyph-name="alpha-i-fill-svgrepo-com" unicode="&#122;" d="M349 489l0-24 47 0 0-23 23 0 0-23 23 0 0-23 23 0 0-47 24 0 0-186-24 0 0-47-23 0 0-23-23 0 0-23-23 0 0-23-47 0 0-24-186 0 0 24-47 0 0 23-23 0 0 23-23 0 0 23-23 0 0 47-24 0 0 186 24 0 0 47 23 0 0 23 23 0 0 23 23 0 0 23 47 0 0 24 186 0m-46-117l-94 0 0-46 24 0 0-140-24 0 0-46 94 0 0 46-24 0 0 140 24 0z"/>
<glyph glyph-name="alpha-i-svgrepo-com" unicode="&#65;" d="M349 489l0-24 47 0 0-23 23 0 0-23 23 0 0-23 23 0 0-47 24 0 0-186-24 0 0-47-23 0 0-23-23 0 0-23-23 0 0-23-47 0 0-24-186 0 0 24-47 0 0 23-23 0 0 23-23 0 0 23-23 0 0 47-24 0 0 186 24 0 0 47 23 0 0 23 23 0 0 23 23 0 0 23 47 0 0 24 186 0m-23-47l-140 0 0-23-46 0 0-23-24 0 0-24-23 0 0-46-23 0 0-140 23 0 0-46 23 0 0-24 24 0 0-23 46 0 0-23 140 0 0 23 46 0 0 23 24 0 0 24 23 0 0 46 23 0 0 140-23 0 0 46-23 0 0 24-24 0 0 23-46 0 0 23m-23-70l0-46-24 0 0-140 24 0 0-46-94 0 0 46 24 0 0 140-24 0 0 46z"/>
<glyph glyph-name="alpha-j-fill-svgrepo-com" unicode="&#66;" d="M349 489l0-24 47 0 0-23 23 0 0-23 23 0 0-23 23 0 0-47 24 0 0-186-24 0 0-47-23 0 0-23-23 0 0-23-23 0 0-23-47 0 0-24-186 0 0 24-47 0 0 23-23 0 0 23-23 0 0 23-23 0 0 47-24 0 0 186 24 0 0 47 23 0 0 23 23 0 0 23 23 0 0 23 47 0 0 24 186 0m-70-117l0-186-46 0 0 23-47 0 0-46 23 0 0-23 94 0 0 23 23 0 0 209z"/>
<glyph glyph-name="alpha-j-svgrepo-com" unicode="&#67;" d="M349 489l0-24 47 0 0-23 23 0 0-23 23 0 0-23 23 0 0-47 24 0 0-186-24 0 0-47-23 0 0-23-23 0 0-23-23 0 0-23-47 0 0-24-186 0 0 24-47 0 0 23-23 0 0 23-23 0 0 23-23 0 0 47-24 0 0 186 24 0 0 47 23 0 0 23 23 0 0 23 23 0 0 23 47 0 0 24 186 0m-23-47l-140 0 0-23-46 0 0-23-24 0 0-24-23 0 0-46-23 0 0-140 23 0 0-46 23 0 0-24 24 0 0-23 46 0 0-23 140 0 0 23 46 0 0 23 24 0 0 24 23 0 0 46 23 0 0 140-23 0 0 46-23 0 0 24-24 0 0 23-46 0 0 23m-47-70l47 0 0-209-23 0 0-23-94 0 0 23-23 0 0 46 47 0 0-23 46 0z"/>
<glyph glyph-name="alpha-k-fill-svgrepo-com" unicode="&#68;" d="M349 489l0-24 47 0 0-23 23 0 0-23 23 0 0-23 23 0 0-47 24 0 0-186-24 0 0-47-23 0 0-23-23 0 0-23-23 0 0-23-47 0 0-24-186 0 0 24-47 0 0 23-23 0 0 23-23 0 0 23-23 0 0 47-24 0 0 186 24 0 0 47 23 0 0 23 23 0 0 23 23 0 0 23 47 0 0 24 186 0m-163-117l0-232 47 0 0 69 23 0 0-23 23 0 0-46 47 0 0 69-23 0 0 24-24 0 0 23-23 0 0 23 23 0 0 24 24 0 0 23 23 0 0 46-47 0 0-23-23 0 0-23-23 0 0 46z"/>
<glyph glyph-name="alpha-k-svgrepo-com" unicode="&#69;" d="M349 489l0-24 47 0 0-23 23 0 0-23 23 0 0-23 23 0 0-47 24 0 0-186-24 0 0-47-23 0 0-23-23 0 0-23-23 0 0-23-47 0 0-24-186 0 0 24-47 0 0 23-23 0 0 23-23 0 0 23-23 0 0 47-24 0 0 186 24 0 0 47 23 0 0 23 23 0 0 23 23 0 0 23 47 0 0 24 186 0m-23-47l-140 0 0-23-46 0 0-23-24 0 0-24-23 0 0-46-23 0 0-140 23 0 0-46 23 0 0-24 24 0 0-23 46 0 0-23 140 0 0 23 46 0 0 23 24 0 0 24 23 0 0 46 23 0 0 140-23 0 0 46-23 0 0 24-24 0 0 23-46 0 0 23m-140-70l47 0 0-46 23 0 0 23 23 0 0 23 47 0 0-46-23 0 0-23-24 0 0-24-23 0 0-23 23 0 0-23 24 0 0-24 23 0 0-69-47 0 0 46-23 0 0 23-23 0 0-69-47 0z"/>
<glyph glyph-name="alpha-l-fill-svgrepo-com" unicode="&#70;" d="M349 489l0-24 47 0 0-23 23 0 0-23 23 0 0-23 23 0 0-47 24 0 0-186-24 0 0-47-23 0 0-23-23 0 0-23-23 0 0-23-47 0 0-24-186 0 0 24-47 0 0 23-23 0 0 23-23 0 0 23-23 0 0 47-24 0 0 186 24 0 0 47 23 0 0 23 23 0 0 23 23 0 0 23 47 0 0 24 186 0m-163-117l0-232 140 0 0 46-93 0 0 186z"/>
<glyph glyph-name="alpha-l-svgrepo-com" unicode="&#71;" d="M349 489l0-24 47 0 0-23 23 0 0-23 23 0 0-23 23 0 0-47 24 0 0-186-24 0 0-47-23 0 0-23-23 0 0-23-23 0 0-23-47 0 0-24-186 0 0 24-47 0 0 23-23 0 0 23-23 0 0 23-23 0 0 47-24 0 0 186 24 0 0 47 23 0 0 23 23 0 0 23 23 0 0 23 47 0 0 24 186 0m-23-47l-140 0 0-23-46 0 0-23-24 0 0-24-23 0 0-46-23 0 0-140 23 0 0-46 23 0 0-24 24 0 0-23 46 0 0-23 140 0 0 23 46 0 0 23 24 0 0 24 23 0 0 46 23 0 0 140-23 0 0 46-23 0 0 24-24 0 0 23-46 0 0 23m-140-70l47 0 0-186 93 0 0-46-140 0z"/>
<glyph glyph-name="alpha-m-fill-svgrepo-com" unicode="&#72;" d="M349 489l0-24 47 0 0-23 23 0 0-23 23 0 0-23 23 0 0-47 24 0 0-186-24 0 0-47-23 0 0-23-23 0 0-23-23 0 0-23-47 0 0-24-186 0 0 24-47 0 0 23-23 0 0 23-23 0 0 23-23 0 0 47-24 0 0 186 24 0 0 47 23 0 0 23 23 0 0 23 23 0 0 23 47 0 0 24 186 0m-186-117l0-23-23 0 0-209 46 0 0 186 47 0 0-163 46 0 0 163 47 0 0-186 46 0 0 209-23 0 0 23z"/>
<glyph glyph-name="alpha-m-svgrepo-com" unicode="&#73;" d="M349 489l0-24 47 0 0-23 23 0 0-23 23 0 0-23 23 0 0-47 24 0 0-186-24 0 0-47-23 0 0-23-23 0 0-23-23 0 0-23-47 0 0-24-186 0 0 24-47 0 0 23-23 0 0 23-23 0 0 23-23 0 0 47-24 0 0 186 24 0 0 47 23 0 0 23 23 0 0 23 23 0 0 23 47 0 0 24 186 0m-23-47l-140 0 0-23-46 0 0-23-24 0 0-24-23 0 0-46-23 0 0-140 23 0 0-46 23 0 0-24 24 0 0-23 46 0 0-23 140 0 0 23 46 0 0 23 24 0 0 24 23 0 0 46 23 0 0 140-23 0 0 46-23 0 0 24-24 0 0 23-46 0 0 23m-163-70l186 0 0-23 23 0 0-209-46 0 0 186-47 0 0-163-46 0 0 163-47 0 0-186-46 0 0 209 23 0z"/>
<glyph glyph-name="alpha-n-fill-svgrepo-com" unicode="&#74;" d="M349 489l0-24 47 0 0-23 23 0 0-23 23 0 0-23 23 0 0-47 24 0 0-186-24 0 0-47-23 0 0-23-23 0 0-23-23 0 0-23-47 0 0-24-186 0 0 24-47 0 0 23-23 0 0 23-23 0 0 23-23 0 0 47-24 0 0 186 24 0 0 47 23 0 0 23 23 0 0 23 23 0 0 23 47 0 0 24 186 0m-163-117l0-232 47 0 0 93 23 0 0-47 23 0 0-46 47 0 0 232-47 0 0-93-23 0 0 47-23 0 0 46z"/>
<glyph glyph-name="alpha-n-svgrepo-com" unicode="&#75;" d="M349 489l0-24 47 0 0-23 23 0 0-23 23 0 0-23 23 0 0-47 24 0 0-186-24 0 0-47-23 0 0-23-23 0 0-23-23 0 0-23-47 0 0-24-186 0 0 24-47 0 0 23-23 0 0 23-23 0 0 23-23 0 0 47-24 0 0 186 24 0 0 47 23 0 0 23 23 0 0 23 23 0 0 23 47 0 0 24 186 0m-23-47l-140 0 0-23-46 0 0-23-24 0 0-24-23 0 0-46-23 0 0-140 23 0 0-46 23 0 0-24 24 0 0-23 46 0 0-23 140 0 0 23 46 0 0 23 24 0 0 24 23 0 0 46 23 0 0 140-23 0 0 46-23 0 0 24-24 0 0 23-46 0 0 23m-140-70l47 0 0-46 23 0 0-47 23 0 0 93 47 0 0-232-47 0 0 46-23 0 0 47-23 0 0-93-47 0z"/>
<glyph glyph-name="alpha-o-fill-svgrepo-com" unicode="&#76;" d="M349 489l0-24 47 0 0-23 23 0 0-23 23 0 0-23 23 0 0-47 24 0 0-186-24 0 0-47-23 0 0-23-23 0 0-23-23 0 0-23-47 0 0-24-186 0 0 24-47 0 0 23-23 0 0 23-23 0 0 23-23 0 0 47-24 0 0 186 24 0 0 47 23 0 0 23 23 0 0 23 23 0 0 23 47 0 0 24 186 0m-140-117l0-23-23 0 0-186 23 0 0-23 94 0 0 23 23 0 0 186-23 0 0 23-94 0m24-46l46 0 0-140-46 0z"/>
<glyph glyph-name="alpha-o-svgrepo-com" unicode="&#77;" d="M349 489l0-24 47 0 0-23 23 0 0-23 23 0 0-23 23 0 0-47 24 0 0-186-24 0 0-47-23 0 0-23-23 0 0-23-23 0 0-23-47 0 0-24-186 0 0 24-47 0 0 23-23 0 0 23-23 0 0 23-23 0 0 47-24 0 0 186 24 0 0 47 23 0 0 23 23 0 0 23 23 0 0 23 47 0 0 24 186 0m-23-47l-140 0 0-23-46 0 0-23-24 0 0-24-23 0 0-46-23 0 0-140 23 0 0-46 23 0 0-24 24 0 0-23 46 0 0-23 140 0 0 23 46 0 0 23 24 0 0 24 23 0 0 46 23 0 0 140-23 0 0 46-23 0 0 24-24 0 0 23-46 0 0 23m-117-70l94 0 0-23 23 0 0-186-23 0 0-23-94 0 0 23-23 0 0 186 23 0 0 23m24-46l0-140 46 0 0 140z"/>
<glyph glyph-name="alpha-p-svgrepo-com" unicode="&#78;" d="M349 489l0-24 47 0 0-23 23 0 0-23 23 0 0-23 23 0 0-47 24 0 0-186-24 0 0-47-23 0 0-23-23 0 0-23-23 0 0-23-47 0 0-24-186 0 0 24-47 0 0 23-23 0 0 23-23 0 0 23-23 0 0 47-24 0 0 186 24 0 0 47 23 0 0 23 23 0 0 23 23 0 0 23 47 0 0 24 186 0m-23-47l-140 0 0-23-46 0 0-23-24 0 0-24-23 0 0-46-23 0 0-140 23 0 0-46 23 0 0-24 24 0 0-23 46 0 0-23 140 0 0 23 46 0 0 23 24 0 0 24 23 0 0 46 23 0 0 140-23 0 0 46-23 0 0 24-24 0 0 23-46 0 0 23m-140-70l117 0 0-23 23 0 0-93-23 0 0-23-70 0 0-93-47 0 0 232m47-46l0-47 46 0 0 47z"/>
<glyph glyph-name="alpha-q-fill-svgrepo-com" unicode="&#79;" d="M349 489l0-24 47 0 0-23 23 0 0-23 23 0 0-23 23 0 0-47 24 0 0-186-24 0 0-47-23 0 0-23-23 0 0-23-23 0 0-23-47 0 0-24-186 0 0 24-47 0 0 23-23 0 0 23-23 0 0 23-23 0 0 47-24 0 0 186 24 0 0 47 23 0 0 23 23 0 0 23 23 0 0 23 47 0 0 24 186 0m-140-117l0-23-23 0 0-186 23 0 0-23 47 0 0 23 23 0 0-23 24 0 0-24 23 0 0 24 23 0 0 23-23 0 0 186-23 0 0 23-94 0m24-46l46 0 0-117-23 0 0-23-23 0z"/>
<glyph glyph-name="alpha-q-svgrepo-com" unicode="&#80;" d="M349 489l0-24 47 0 0-23 23 0 0-23 23 0 0-23 23 0 0-47 24 0 0-186-24 0 0-47-23 0 0-23-23 0 0-23-23 0 0-23-47 0 0-24-186 0 0 24-47 0 0 23-23 0 0 23-23 0 0 23-23 0 0 47-24 0 0 186 24 0 0 47 23 0 0 23 23 0 0 23 23 0 0 23 47 0 0 24 186 0m-23-47l-140 0 0-23-46 0 0-23-24 0 0-24-23 0 0-46-23 0 0-140 23 0 0-46 23 0 0-24 24 0 0-23 46 0 0-23 140 0 0 23 46 0 0 23 24 0 0 24 23 0 0 46 23 0 0 140-23 0 0 46-23 0 0 24-24 0 0 23-46 0 0 23m-117-70l94 0 0-23 23 0 0-186 23 0 0-23-23 0 0-24-23 0 0 24-24 0 0 23-23 0 0-23-47 0 0 23-23 0 0 186 23 0 0 23m24-46l0-140 23 0 0 23 23 0 0 117z"/>
<glyph glyph-name="alpha-r-fill-svgrepo-com" unicode="&#81;" d="M349 489l0-24 47 0 0-23 23 0 0-23 23 0 0-23 23 0 0-47 24 0 0-186-24 0 0-47-23 0 0-23-23 0 0-23-23 0 0-23-47 0 0-24-186 0 0 24-47 0 0 23-23 0 0 23-23 0 0 23-23 0 0 47-24 0 0 186 24 0 0 47 23 0 0 23 23 0 0 23 23 0 0 23 47 0 0 24 186 0m-163-117l0-232 47 0 0 93 23 0 0-47 23 0 0-46 47 0 0 69-23 0 0 47 23 0 0 93-23 0 0 23-117 0m47-46l46 0 0-47-46 0z"/>
<glyph glyph-name="alpha-r-svgrepo-com" unicode="&#82;" d="M349 489l0-24 47 0 0-23 23 0 0-23 23 0 0-23 23 0 0-47 24 0 0-186-24 0 0-47-23 0 0-23-23 0 0-23-23 0 0-23-47 0 0-24-186 0 0 24-47 0 0 23-23 0 0 23-23 0 0 23-23 0 0 47-24 0 0 186 24 0 0 47 23 0 0 23 23 0 0 23 23 0 0 23 47 0 0 24 186 0m-23-47l-140 0 0-23-46 0 0-23-24 0 0-24-23 0 0-46-23 0 0-140 23 0 0-46 23 0 0-24 24 0 0-23 46 0 0-23 140 0 0 23 46 0 0 23 24 0 0 24 23 0 0 46 23 0 0 140-23 0 0 46-23 0 0 24-24 0 0 23-46 0 0 23m-140-70l117 0 0-23 23 0 0-93-23 0 0-47 23 0 0-69-47 0 0 46-23 0 0 47-23 0 0-93-47 0 0 232m47-46l0-47 46 0 0 47z"/>
<glyph glyph-name="alpha-s-fill-svgrepo-com" unicode="&#83;" d="M349 489l0-24 47 0 0-23 23 0 0-23 23 0 0-23 23 0 0-47 24 0 0-186-24 0 0-47-23 0 0-23-23 0 0-23-23 0 0-23-47 0 0-24-186 0 0 24-47 0 0 23-23 0 0 23-23 0 0 23-23 0 0 47-24 0 0 186 24 0 0 47 23 0 0 23 23 0 0 23 23 0 0 23 47 0 0 24 186 0m-140-117l0-23-23 0 0-93 23 0 0-23 70 0 0-47-93 0 0-46 117 0 0 23 23 0 0 93-23 0 0 23-70 0 0 47 93 0 0 46z"/>
<glyph glyph-name="alpha-s-svgrepo-com" unicode="&#84;" d="M349 489l0-24 47 0 0-23 23 0 0-23 23 0 0-23 23 0 0-47 24 0 0-186-24 0 0-47-23 0 0-23-23 0 0-23-23 0 0-23-47 0 0-24-186 0 0 24-47 0 0 23-23 0 0 23-23 0 0 23-23 0 0 47-24 0 0 186 24 0 0 47 23 0 0 23 23 0 0 23 23 0 0 23 47 0 0 24 186 0m-23-47l-140 0 0-23-46 0 0-23-24 0 0-24-23 0 0-46-23 0 0-140 23 0 0-46 23 0 0-24 24 0 0-23 46 0 0-23 140 0 0 23 46 0 0 23 24 0 0 24 23 0 0 46 23 0 0 140-23 0 0 46-23 0 0 24-24 0 0 23-46 0 0 23m-117-70l117 0 0-46-93 0 0-47 70 0 0-23 23 0 0-93-23 0 0-23-117 0 0 46 93 0 0 47-70 0 0 23-23 0 0 93 23 0z"/>
<glyph glyph-name="alpha-t-fill-svgrepo-com" unicode="&#85;" d="M349 489l0-24 47 0 0-23 23 0 0-23 23 0 0-23 23 0 0-47 24 0 0-186-24 0 0-47-23 0 0-23-23 0 0-23-23 0 0-23-47 0 0-24-186 0 0 24-47 0 0 23-23 0 0 23-23 0 0 23-23 0 0 47-24 0 0 186 24 0 0 47 23 0 0 23 23 0 0 23 23 0 0 23 47 0 0 24 186 0m-163-117l0-46 47 0 0-186 46 0 0 186 47 0 0 46z"/>
<glyph glyph-name="alpha-t-svgrepo-com" unicode="&#86;" d="M349 489l0-24 47 0 0-23 23 0 0-23 23 0 0-23 23 0 0-47 24 0 0-186-24 0 0-47-23 0 0-23-23 0 0-23-23 0 0-23-47 0 0-24-186 0 0 24-47 0 0 23-23 0 0 23-23 0 0 23-23 0 0 47-24 0 0 186 24 0 0 47 23 0 0 23 23 0 0 23 23 0 0 23 47 0 0 24 186 0m-23-47l-140 0 0-23-46 0 0-23-24 0 0-24-23 0 0-46-23 0 0-140 23 0 0-46 23 0 0-24 24 0 0-23 46 0 0-23 140 0 0 23 46 0 0 23 24 0 0 24 23 0 0 46 23 0 0 140-23 0 0 46-23 0 0 24-24 0 0 23-46 0 0 23m-140-70l140 0 0-46-47 0 0-186-46 0 0 186-47 0z"/>
<glyph glyph-name="alpha-u-fill-svgrepo-com" unicode="&#87;" d="M349 489l0-24 47 0 0-23 23 0 0-23 23 0 0-23 23 0 0-47 24 0 0-186-24 0 0-47-23 0 0-23-23 0 0-23-23 0 0-23-47 0 0-24-186 0 0 24-47 0 0 23-23 0 0 23-23 0 0 23-23 0 0 47-24 0 0 186 24 0 0 47 23 0 0 23 23 0 0 23 23 0 0 23 47 0 0 24 186 0m-163-117l0-209 23 0 0-23 94 0 0 23 23 0 0 209-47 0 0-186-46 0 0 186z"/>
<glyph glyph-name="alpha-u-svgrepo-com" unicode="&#88;" d="M349 489l0-24 47 0 0-23 23 0 0-23 23 0 0-23 23 0 0-47 24 0 0-186-24 0 0-47-23 0 0-23-23 0 0-23-23 0 0-23-47 0 0-24-186 0 0 24-47 0 0 23-23 0 0 23-23 0 0 23-23 0 0 47-24 0 0 186 24 0 0 47 23 0 0 23 23 0 0 23 23 0 0 23 47 0 0 24 186 0m-23-47l-140 0 0-23-46 0 0-23-24 0 0-24-23 0 0-46-23 0 0-140 23 0 0-46 23 0 0-24 24 0 0-23 46 0 0-23 140 0 0 23 46 0 0 23 24 0 0 24 23 0 0 46 23 0 0 140-23 0 0 46-23 0 0 24-24 0 0 23-46 0 0 23m-140-70l47 0 0-186 46 0 0 186 47 0 0-209-23 0 0-23-94 0 0 23-23 0z"/>
<glyph glyph-name="alpha-v-fill-svgrepo-com" unicode="&#89;" d="M349 489l0-24 47 0 0-23 23 0 0-23 23 0 0-23 23 0 0-47 24 0 0-186-24 0 0-47-23 0 0-23-23 0 0-23-23 0 0-23-47 0 0-24-186 0 0 24-47 0 0 23-23 0 0 23-23 0 0 23-23 0 0 47-24 0 0 186 24 0 0 47 23 0 0 23 23 0 0 23 23 0 0 23 47 0 0 24 186 0m-186-117l0-93 23 0 0-46 23 0 0-47 24 0 0-46 46 0 0 46 24 0 0 47 23 0 0 46 23 0 0 93-46 0 0-69-24 0 0-47-46 0 0 47-24 0 0 69z"/>
<glyph glyph-name="alpha-v-svgrepo-com" unicode="&#90;" d="M349 489l0-24 47 0 0-23 23 0 0-23 23 0 0-23 23 0 0-47 24 0 0-186-24 0 0-47-23 0 0-23-23 0 0-23-23 0 0-23-47 0 0-24-186 0 0 24-47 0 0 23-23 0 0 23-23 0 0 23-23 0 0 47-24 0 0 186 24 0 0 47 23 0 0 23 23 0 0 23 23 0 0 23 47 0 0 24 186 0m-23-47l-140 0 0-23-46 0 0-23-24 0 0-24-23 0 0-46-23 0 0-140 23 0 0-46 23 0 0-24 24 0 0-23 46 0 0-23 140 0 0 23 46 0 0 23 24 0 0 24 23 0 0 46 23 0 0 140-23 0 0 46-23 0 0 24-24 0 0 23-46 0 0 23m-163-70l46 0 0-69 24 0 0-47 46 0 0 47 24 0 0 69 46 0 0-93-23 0 0-46-23 0 0-47-24 0 0-46-46 0 0 46-24 0 0 47-23 0 0 46-23 0z"/>
<glyph glyph-name="alpha-w-fill-svgrepo-com" unicode="&#48;" d="M349 489l0-24 47 0 0-23 23 0 0-23 23 0 0-23 23 0 0-47 24 0 0-186-24 0 0-47-23 0 0-23-23 0 0-23-23 0 0-23-47 0 0-24-186 0 0 24-47 0 0 23-23 0 0 23-23 0 0 23-23 0 0 47-24 0 0 186 24 0 0 47 23 0 0 23 23 0 0 23 23 0 0 23 47 0 0 24 186 0m-209-117l0-163 23 0 0-46 23 0 0-23 47 0 0 23 46 0 0-23 47 0 0 23 23 0 0 46 23 0 0 163-46 0 0-139-23 0 0-24-24 0 0 117-46 0 0-117-24 0 0 24-23 0 0 139z"/>
<glyph glyph-name="alpha-w-svgrepo-com" unicode="&#49;" d="M349 489l0-24 47 0 0-23 23 0 0-23 23 0 0-23 23 0 0-47 24 0 0-186-24 0 0-47-23 0 0-23-23 0 0-23-23 0 0-23-47 0 0-24-186 0 0 24-47 0 0 23-23 0 0 23-23 0 0 23-23 0 0 47-24 0 0 186 24 0 0 47 23 0 0 23 23 0 0 23 23 0 0 23 47 0 0 24 186 0m-23-47l-140 0 0-23-46 0 0-23-24 0 0-24-23 0 0-46-23 0 0-140 23 0 0-46 23 0 0-24 24 0 0-23 46 0 0-23 140 0 0 23 46 0 0 23 24 0 0 24 23 0 0 46 23 0 0 140-23 0 0 46-23 0 0 24-24 0 0 23-46 0 0 23m-186-70l46 0 0-139 23 0 0-24 24 0 0 117 46 0 0-117 24 0 0 24 23 0 0 139 46 0 0-163-23 0 0-46-23 0 0-23-47 0 0 23-46 0 0-23-47 0 0 23-23 0 0 46-23 0z"/>
<glyph glyph-name="alpha-x-fill-svgrepo-com" unicode="&#50;" d="M349 489l0-24 47 0 0-23 23 0 0-23 23 0 0-23 23 0 0-47 24 0 0-186-24 0 0-47-23 0 0-23-23 0 0-23-23 0 0-23-47 0 0-24-186 0 0 24-47 0 0 23-23 0 0 23-23 0 0 23-23 0 0 47-24 0 0 186 24 0 0 47 23 0 0 23 23 0 0 23 23 0 0 23 47 0 0 24 186 0m-46-349l46 0 0 69-23 0 0 24-23 0 0 46 23 0 0 24 23 0 0 69-46 0 0-46-24 0 0-23-46 0 0 23-24 0 0 46-46 0 0-69 23 0 0-24 23 0 0-46-23 0 0-24-23 0 0-69 46 0 0 46 24 0 0 23 46 0 0-23 24 0z"/>
<glyph glyph-name="alpha-x-svgrepo-com" unicode="&#51;" d="M349 489l0-24 47 0 0-23 23 0 0-23 23 0 0-23 23 0 0-47 24 0 0-186-24 0 0-47-23 0 0-23-23 0 0-23-23 0 0-23-47 0 0-24-186 0 0 24-47 0 0 23-23 0 0 23-23 0 0 23-23 0 0 47-24 0 0 186 24 0 0 47 23 0 0 23 23 0 0 23 23 0 0 23 47 0 0 24 186 0m-23-47l-140 0 0-23-46 0 0-23-24 0 0-24-23 0 0-46-23 0 0-140 23 0 0-46 23 0 0-24 24 0 0-23 46 0 0-23 140 0 0 23 46 0 0 23 24 0 0 24 23 0 0 46 23 0 0 140-23 0 0 46-23 0 0 24-24 0 0 23-46 0 0 23m-23-302l0 46-24 0 0 23-46 0 0-23-24 0 0-46-46 0 0 69 23 0 0 24 23 0 0 46-23 0 0 24-23 0 0 69 46 0 0-46 24 0 0-23 46 0 0 23 24 0 0 46 46 0 0-69-23 0 0-24-23 0 0-46 23 0 0-24 23 0 0-69z"/>
<glyph glyph-name="alpha-y-fill-svgrepo-com" unicode="&#52;" d="M349 489l0-24 47 0 0-23 23 0 0-23 23 0 0-23 23 0 0-47 24 0 0-186-24 0 0-47-23 0 0-23-23 0 0-23-23 0 0-23-47 0 0-24-186 0 0 24-47 0 0 23-23 0 0 23-23 0 0 23-23 0 0 47-24 0 0 186 24 0 0 47 23 0 0 23 23 0 0 23 23 0 0 23 47 0 0 24 186 0m-186-117l0-69 23 0 0-47 23 0 0-47 24 0 0-69 46 0 0 69 24 0 0 47 23 0 0 47 23 0 0 69-46 0 0-46-24 0 0-47-46 0 0 47-24 0 0 46z"/>
<glyph glyph-name="alpha-y-svgrepo-com" unicode="&#53;" d="M349 489l0-24 47 0 0-23 23 0 0-23 23 0 0-23 23 0 0-47 24 0 0-186-24 0 0-47-23 0 0-23-23 0 0-23-23 0 0-23-47 0 0-24-186 0 0 24-47 0 0 23-23 0 0 23-23 0 0 23-23 0 0 47-24 0 0 186 24 0 0 47 23 0 0 23 23 0 0 23 23 0 0 23 47 0 0 24 186 0m-23-47l-140 0 0-23-46 0 0-23-24 0 0-24-23 0 0-46-23 0 0-140 23 0 0-46 23 0 0-24 24 0 0-23 46 0 0-23 140 0 0 23 46 0 0 23 24 0 0 24 23 0 0 46 23 0 0 140-23 0 0 46-23 0 0 24-24 0 0 23-46 0 0 23m-163-70l46 0 0-46 24 0 0-47 46 0 0 47 24 0 0 46 46 0 0-69-23 0 0-47-23 0 0-47-24 0 0-69-46 0 0 69-24 0 0 47-23 0 0 47-23 0z"/>
<glyph glyph-name="alpha-z-fill-svgrepo-com" unicode="&#54;" d="M349 489l0-24 47 0 0-23 23 0 0-23 23 0 0-23 23 0 0-47 24 0 0-186-24 0 0-47-23 0 0-23-23 0 0-23-23 0 0-23-47 0 0-24-186 0 0 24-47 0 0 23-23 0 0 23-23 0 0 23-23 0 0 47-24 0 0 186 24 0 0 47 23 0 0 23 23 0 0 23 23 0 0 23 47 0 0 24 186 0m-163-117l0-46 93 0 0-23-23 0 0-24-23 0 0-23-24 0 0-23-23 0 0-93 140 0 0 46-93 0 0 23 23 0 0 24 23 0 0 23 24 0 0 23 23 0 0 93z"/>
<glyph glyph-name="alpha-z-svgrepo-com" unicode="&#55;" d="M349 489l0-24 47 0 0-23 23 0 0-23 23 0 0-23 23 0 0-47 24 0 0-186-24 0 0-47-23 0 0-23-23 0 0-23-23 0 0-23-47 0 0-24-186 0 0 24-47 0 0 23-23 0 0 23-23 0 0 23-23 0 0 47-24 0 0 186 24 0 0 47 23 0 0 23 23 0 0 23 23 0 0 23 47 0 0 24 186 0m-23-47l-140 0 0-23-46 0 0-23-24 0 0-24-23 0 0-46-23 0 0-140 23 0 0-46 23 0 0-24 24 0 0-23 46 0 0-23 140 0 0 23 46 0 0 23 24 0 0 24 23 0 0 46 23 0 0 140-23 0 0 46-23 0 0 24-24 0 0 23-46 0 0 23m-140-70l140 0 0-93-23 0 0-23-24 0 0-23-23 0 0-24-23 0 0-23 93 0 0-46-140 0 0 93 23 0 0 23 24 0 0 23 23 0 0 24 23 0 0 23-93 0z"/>
<glyph glyph-name="application-code-svgrepo-com" unicode="&#56;" d="M256 140l-47 0 0 23-23 0 0 93 23 0 0 23 47 0 0-46-23 0 0-47 23 0m93-46l-46 0 0 46 23 0 0 47-23 0 0 46 46 0 0-23 23 0 0-93-23 0m93-116l-372 0 0 23-23 0 0 372 23 0 0 23 372 0 0-23 23 0 0-372-23 0m-23 302l0 47-326 0 0-47m326-279l0 233-326 0 0-233z"/>
<glyph glyph-name="application-svgrepo-com" unicode="&#57;" d="M442 47l-372 0 0 23-23 0 0 372 23 0 0 23 372 0 0-23 23 0 0-372-23 0z m-23 325l0 47-326 0 0-47z m0-279l0 233-326 0 0-233z"/>
<glyph glyph-name="archive-svgrepo-com" unicode="&#33;" d="M47 465l418 0 0-139-23 0 0-279-372 0 0 279-23 0 0 139m349-372l0 233-280 0 0-233 280 0m-303 326l0-47 326 0 0 47-326 0m70-140l186 0 0-46-186 0z"/>
<glyph glyph-name="arrow-bottom-left-circle-svgrepo-com" unicode="&#34;" d="M23 163l0 186 24 0 0 47 23 0 0 23 23 0 0 23 23 0 0 23 47 0 0 24 186 0 0-24 47 0 0-23 23 0 0-23 23 0 0-23 23 0 0-47 24 0 0-186-24 0 0-47-23 0 0-23-23 0 0-23-23 0 0-23-47 0 0-24-186 0 0 24-47 0 0 23-23 0 0 23-23 0 0 23-23 0 0 47-24 0m93-23l0-24 24 0 0-23 46 0 0-23 140 0 0 23 46 0 0 23 24 0 0 24 23 0 0 46 23 0 0 140-23 0 0 46-23 0 0 24-24 0 0 23-46 0 0 23-140 0 0-23-46 0 0-23-24 0 0-24-23 0 0-46-23 0 0-140 23 0 0-46 23 0m210 23l-163 0 0 163 46 0 0-70 24 0 0 23 23 0 0 24 23 0 0 23 24 0 0 23 23 0 0-23 23 0 0-23-23 0 0-24-23 0 0-23-24 0 0-23-23 0 0-24 70 0z"/>
<glyph glyph-name="arrow-bottom-left-svgrepo-com" unicode="&#35;" d="M326 116l-210 0 0 210 47 0 0-117 23 0 0 24 23 0 0 23 24 0 0 23 23 0 0 24 23 0 0 23 24 0 0 23 23 0 0 23 23 0 0-23 23 0 0-23-23 0 0-23-23 0 0-24-23 0 0-23-24 0 0-23-23 0 0-24-23 0 0-23-24 0 0-23 117 0z"/>
<glyph glyph-name="arrow-bottom-right-circle-svgrepo-com" unicode="&#36;" d="M349 23l-186 0 0 24-47 0 0 23-23 0 0 23-23 0 0 23-23 0 0 47-24 0 0 186 24 0 0 47 23 0 0 23 23 0 0 23 23 0 0 23 47 0 0 24 186 0 0-24 47 0 0-23 23 0 0-23 23 0 0-23 23 0 0-47 24 0 0-186-24 0 0-47-23 0 0-23-23 0 0-23-23 0 0-23-47 0 0-24m23 93l24 0 0 24 23 0 0 46 23 0 0 140-23 0 0 46-23 0 0 24-24 0 0 23-46 0 0 23-140 0 0-23-46 0 0-23-24 0 0-24-23 0 0-46-23 0 0-140 23 0 0-46 23 0 0-24 24 0 0-23 46 0 0-23 140 0 0 23 46 0 0 23m-23 210l0-163-163 0 0 46 70 0 0 24-23 0 0 23-24 0 0 23-23 0 0 24-23 0 0 23 23 0 0 23 23 0 0-23 24 0 0-23 23 0 0-24 23 0 0-23 24 0 0 70z"/>
<glyph glyph-name="arrow-bottom-right-svgrepo-com" unicode="&#37;" d="M396 326l0-210-210 0 0 47 117 0 0 23-24 0 0 23-23 0 0 24-23 0 0 23-24 0 0 23-23 0 0 24-23 0 0 23-23 0 0 23 23 0 0 23 23 0 0-23 23 0 0-23 24 0 0-23 23 0 0-24 23 0 0-23 24 0 0-23 23 0 0-24 23 0 0 117z"/>
<glyph glyph-name="arrow-down-bold-svgrepo-com" unicode="&#38;" d="M465 279l0-46-23 0 0-24-23 0 0-23-23 0 0-23-24 0 0-23-23 0 0-24-23 0 0-23-23 0 0-23-24 0 0-23-46 0 0 23-24 0 0 23-23 0 0 23-23 0 0 24-23 0 0 23-24 0 0 23-23 0 0 23-23 0 0 24-23 0 0 46 116 0 0 186 186 0 0-186 116 0m-93-46l-69 0 0 186-94 0 0-186-69 0 0-24 23 0 0-23 23 0 0-23 23 0 0-23 24 0 0-24 46 0 0 24 24 0 0 23 23 0 0 23 23 0 0 23 23 0z"/>
<glyph glyph-name="arrow-down-circle-svgrepo-com" unicode="&#39;" d="M372 279l0-46-23 0 0-24-23 0 0-23-23 0 0-23-24 0 0-23-46 0 0 23-24 0 0 23-23 0 0 23-23 0 0 24-23 0 0 46 46 0 0-23 23 0 0-23 24 0 0 139 46 0 0-139 24 0 0 23 23 0 0 23 46 0m117 70l0-186-24 0 0-47-23 0 0-23-23 0 0-23-23 0 0-23-47 0 0-24-186 0 0 24-47 0 0 23-23 0 0 23-23 0 0 23-23 0 0 47-24 0 0 186 24 0 0 47 23 0 0 23 23 0 0 23 23 0 0 23 47 0 0 24 186 0 0-24 47 0 0-23 23 0 0-23 23 0 0-23 23 0 0-47 24 0m-93 23l0 24-24 0 0 23-46 0 0 23-140 0 0-23-46 0 0-23-24 0 0-24-23 0 0-46-23 0 0-140 23 0 0-46 23 0 0-24 24 0 0-23 46 0 0-23 140 0 0 23 46 0 0 23 24 0 0 24 23 0 0 46 23 0 0 140-23 0 0 46z"/>
<glyph glyph-name="arrow-down-left-svgrepo-com" unicode="&#40;" d="M70 233l0-47 23 0 0-23 23 0 0-23 24 0 0-24 23 0 0-23 46 0 0 47-23 0 0 23-23 0 0 23 93 0 0 23 47 0 0 24 23 0 0 46 23 0 0 163-46 0 0-139-24 0 0-47-46 0 0-23-70 0 0 23 23 0 0 23 23 0 0 47-46 0 0-23-23 0 0-24-24 0 0-23-23 0 0-23"/>
<glyph glyph-name="arrow-down-right-svgrepo-com" unicode="&#41;" d="M442 233l0-47-23 0 0-23-23 0 0-23-24 0 0-24-23 0 0-23-46 0 0 47 23 0 0 23 23 0 0 23-93 0 0 23-47 0 0 24-23 0 0 46-23 0 0 163 46 0 0-139 24 0 0-47 46 0 0-23 70 0 0 23-23 0 0 23-23 0 0 47 46 0 0-23 23 0 0-24 24 0 0-23 23 0 0-23"/>
<glyph glyph-name="arrow-down-svgrepo-com" unicode="&#42;" d="M279 116l-46 0 0 24-24 0 0 23-23 0 0 23-23 0 0 23-23 0 0 47 46 0 0-23 23 0 0-24 24 0 0 210 46 0 0-210 24 0 0 24 23 0 0 23 46 0 0-47-23 0 0-23-23 0 0-23-23 0 0-23-24 0"/>
<glyph glyph-name="arrow-left-bold-svgrepo-com" unicode="&#43;" d="M279 47l-46 0 0 23-24 0 0 23-23 0 0 23-23 0 0 24-23 0 0 23-24 0 0 23-23 0 0 23-23 0 0 24-23 0 0 46 23 0 0 24 23 0 0 23 23 0 0 23 24 0 0 23 23 0 0 24 23 0 0 23 23 0 0 23 24 0 0 23 46 0 0-116 186 0 0-186-186 0 0-116m-46 93l0 69 186 0 0 94-186 0 0 69-24 0 0-23-23 0 0-23-23 0 0-23-23 0 0-24-24 0 0-46 24 0 0-24 23 0 0-23 23 0 0-23 23 0 0-23z"/>
<glyph glyph-name="arrow-left-circle-svgrepo-com" unicode="&#44;" d="M279 140l-46 0 0 23-24 0 0 23-23 0 0 23-23 0 0 24-23 0 0 46 23 0 0 24 23 0 0 23 23 0 0 23 24 0 0 23 46 0 0-46-23 0 0-23-23 0 0-24 139 0 0-46-139 0 0-24 23 0 0-23 23 0 0-46m70-117l-186 0 0 24-47 0 0 23-23 0 0 23-23 0 0 23-23 0 0 47-24 0 0 186 24 0 0 47 23 0 0 23 23 0 0 23 23 0 0 23 47 0 0 24 186 0 0-24 47 0 0-23 23 0 0-23 23 0 0-23 23 0 0-47 24 0 0-186-24 0 0-47-23 0 0-23-23 0 0-23-23 0 0-23-47 0 0-24m23 93l24 0 0 24 23 0 0 46 23 0 0 140-23 0 0 46-23 0 0 24-24 0 0 23-46 0 0 23-140 0 0-23-46 0 0-23-24 0 0-24-23 0 0-46-23 0 0-140 23 0 0-46 23 0 0-24 24 0 0-23 46 0 0-23 140 0 0 23 46 0z"/>
<glyph glyph-name="arrow-left-down-svgrepo-com" unicode="&#45;" d="M233 70l-47 0 0 23-23 0 0 23-23 0 0 24-24 0 0 23-23 0 0 46 47 0 0-23 23 0 0-23 23 0 0 93 23 0 0 47 24 0 0 23 46 0 0 23 163 0 0-46-139 0 0-24-47 0 0-46-23 0 0-70 23 0 0 23 23 0 0 23 47 0 0-46-23 0 0-23-24 0 0-24-23 0 0-23-23 0"/>
<glyph glyph-name="arrow-left-right-svgrepo-com" unicode="&#46;" d="M442 279l0-46-23 0 0-24-23 0 0-23-24 0 0-23-23 0 0-23-46 0 0 46 23 0 0 23 23 0 0 24-186 0 0-24 23 0 0-23 23 0 0-46-46 0 0 23-23 0 0 23-24 0 0 23-23 0 0 24-23 0 0 46 23 0 0 24 23 0 0 23 24 0 0 23 23 0 0 23 46 0 0-46-23 0 0-23-23 0 0-24 186 0 0 24-23 0 0 23-23 0 0 46 46 0 0-23 23 0 0-23 24 0 0-23 23 0 0-24"/>
<glyph glyph-name="arrow-left-svgrepo-com" unicode="&#47;" d="M116 233l0 46 24 0 0 24 23 0 0 23 23 0 0 23 23 0 0 23 47 0 0-46-23 0 0-23-24 0 0-24 210 0 0-46-210 0 0-24 24 0 0-23 23 0 0-46-47 0 0 23-23 0 0 23-23 0 0 23-23 0 0 24"/>
<glyph glyph-name="arrow-left-up-svgrepo-com" unicode="&#58;" d="M233 442l-47 0 0-23-23 0 0-23-23 0 0-24-24 0 0-23-23 0 0-46 47 0 0 23 23 0 0 23 23 0 0-93 23 0 0-47 24 0 0-23 46 0 0-23 163 0 0 46-139 0 0 24-47 0 0 46-23 0 0 70 23 0 0-23 23 0 0-23 47 0 0 46-23 0 0 23-24 0 0 24-23 0 0 23-23 0"/>
<glyph glyph-name="arrow-right-bold-svgrepo-com" unicode="&#59;" d="M233 465l46 0 0-23 24 0 0-23 23 0 0-23 23 0 0-24 23 0 0-23 24 0 0-23 23 0 0-23 23 0 0-24 23 0 0-46-23 0 0-24-23 0 0-23-23 0 0-23-24 0 0-23-23 0 0-24-23 0 0-23-23 0 0-23-24 0 0-23-46 0 0 116-186 0 0 186 186 0 0 116m46-93l0-69-186 0 0-94 186 0 0-69 24 0 0 23 23 0 0 23 23 0 0 23 23 0 0 24 24 0 0 46-24 0 0 24-23 0 0 23-23 0 0 23-23 0 0 23z"/>
<glyph glyph-name="arrow-right-circle-svgrepo-com" unicode="&#60;" d="M163 489l186 0 0-24 47 0 0-23 23 0 0-23 23 0 0-23 23 0 0-47 24 0 0-186-24 0 0-47-23 0 0-23-23 0 0-23-23 0 0-23-47 0 0-24-186 0 0 24-47 0 0 23-23 0 0 23-23 0 0 23-23 0 0 47-24 0 0 186 24 0 0 47 23 0 0 23 23 0 0 23 23 0 0 23 47 0 0 24m-23-93l-24 0 0-24-23 0 0-46-23 0 0-140 23 0 0-46 23 0 0-24 24 0 0-23 46 0 0-23 140 0 0 23 46 0 0 23 24 0 0 24 23 0 0 46 23 0 0 140-23 0 0 46-23 0 0 24-24 0 0 23-46 0 0 23-140 0 0-23-46 0 0-23m93-24l46 0 0-23 24 0 0-23 23 0 0-23 23 0 0-24 23 0 0-46-23 0 0-24-23 0 0-23-23 0 0-23-24 0 0-23-46 0 0 46 23 0 0 23 23 0 0 24-139 0 0 46 139 0 0 24-23 0 0 23-23 0z"/>
<glyph glyph-name="arrow-right-down-svgrepo-com" unicode="&#61;" d="M279 70l47 0 0 23 23 0 0 23 23 0 0 24 24 0 0 23 23 0 0 46-47 0 0-23-23 0 0-23-23 0 0 93-23 0 0 47-24 0 0 23-46 0 0 23-163 0 0-46 139 0 0-24 47 0 0-46 23 0 0-70-23 0 0 23-23 0 0 23-47 0 0-46 23 0 0-23 24 0 0-24 23 0 0-23 23 0"/>
<glyph glyph-name="arrow-right-svgrepo-com" unicode="&#62;" d="M396 279l0-46-24 0 0-24-23 0 0-23-23 0 0-23-23 0 0-23-47 0 0 46 23 0 0 23 24 0 0 24-210 0 0 46 210 0 0 24-24 0 0 23-23 0 0 46 47 0 0-23 23 0 0-23 23 0 0-23 23 0 0-24"/>
<glyph glyph-name="arrow-right-up-svgrepo-com" unicode="&#63;" d="M279 442l47 0 0-23 23 0 0-23 23 0 0-24 24 0 0-23 23 0 0-46-47 0 0 23-23 0 0 23-23 0 0-93-23 0 0-47-24 0 0-23-46 0 0-23-163 0 0 46 139 0 0 24 47 0 0 46 23 0 0 70-23 0 0-23-23 0 0-23-47 0 0 46 23 0 0 23 24 0 0 24 23 0 0 23 23 0"/>
<glyph glyph-name="arrow-svgrepo-com" unicode="&#64;" d="M465 465l-69 0 0-46-24 0 0-23-23 0 0-24-23 0 0-23-23 0 0-23-24 0 0-23-23 0 0-24-23 0 0-23-24 0 0-23-23 0 0-24-23 0 0-23-23 0 0-23-70 0 0-23-23 0 0-24-24 0 0-23 24 0 0-23 23 0 0-23 23 0 0-24 23 0 0 24 24 0 0 23 23 0 0 70 23 0 0 23 23 0 0 23 24 0 0 23 23 0 0 24 23 0 0 23 24 0 0 23 23 0 0 24 23 0 0 23 23 0 0 23 24 0 0 23 23 0 0 24 46 0"/>
<glyph glyph-name="arrow-top-left-circle-svgrepo-com" unicode="&#91;" d="M163 489l186 0 0-24 47 0 0-23 23 0 0-23 23 0 0-23 23 0 0-47 24 0 0-186-24 0 0-47-23 0 0-23-23 0 0-23-23 0 0-23-47 0 0-24-186 0 0 24-47 0 0 23-23 0 0 23-23 0 0 23-23 0 0 47-24 0 0 186 24 0 0 47 23 0 0 23 23 0 0 23 23 0 0 23 47 0 0 24m-23-93l-24 0 0-24-23 0 0-46-23 0 0-140 23 0 0-46 23 0 0-24 24 0 0-23 46 0 0-23 140 0 0 23 46 0 0 23 24 0 0 24 23 0 0 46 23 0 0 140-23 0 0 46-23 0 0 24-24 0 0 23-46 0 0 23-140 0 0-23-46 0 0-23m23-210l0 163 163 0 0-46-70 0 0-24 23 0 0-23 24 0 0-23 23 0 0-24 23 0 0-23-23 0 0-23-23 0 0 23-24 0 0 23-23 0 0 24-23 0 0 23-24 0 0-70z"/>
<glyph glyph-name="arrow-top-left-svgrepo-com" unicode="&#93;" d="M116 186l0 210 210 0 0-47-117 0 0-23 24 0 0-23 23 0 0-24 23 0 0-23 24 0 0-23 23 0 0-24 23 0 0-23 23 0 0-23-23 0 0-23-23 0 0 23-23 0 0 23-24 0 0 23-23 0 0 24-23 0 0 23-24 0 0 23-23 0 0 24-23 0 0-117z"/>
<glyph glyph-name="arrow-top-right-circle-svgrepo-com" unicode="&#94;" d="M489 349l0-186-24 0 0-47-23 0 0-23-23 0 0-23-23 0 0-23-47 0 0-24-186 0 0 24-47 0 0 23-23 0 0 23-23 0 0 23-23 0 0 47-24 0 0 186 24 0 0 47 23 0 0 23 23 0 0 23 23 0 0 23 47 0 0 24 186 0 0-24 47 0 0-23 23 0 0-23 23 0 0-23 23 0 0-47 24 0m-93 23l0 24-24 0 0 23-46 0 0 23-140 0 0-23-46 0 0-23-24 0 0-24-23 0 0-46-23 0 0-140 23 0 0-46 23 0 0-24 24 0 0-23 46 0 0-23 140 0 0 23 46 0 0 23 24 0 0 24 23 0 0 46 23 0 0 140-23 0 0 46-23 0m-210-23l163 0 0-163-46 0 0 70-24 0 0-23-23 0 0-24-23 0 0-23-24 0 0-23-23 0 0 23-23 0 0 23 23 0 0 24 23 0 0 23 24 0 0 23 23 0 0 24-70 0z"/>
<glyph glyph-name="arrow-top-right-svgrepo-com" unicode="&#95;" d="M186 396l210 0 0-210-47 0 0 117-23 0 0-24-23 0 0-23-24 0 0-23-23 0 0-24-23 0 0-23-24 0 0-23-23 0 0-23-23 0 0 23-23 0 0 23 23 0 0 23 23 0 0 24 23 0 0 23 24 0 0 23 23 0 0 24 23 0 0 23 24 0 0 23-117 0z"/>
<glyph glyph-name="arrow-up-bold-svgrepo-com" unicode="&#96;" d="M47 233l0 46 23 0 0 24 23 0 0 23 23 0 0 23 24 0 0 23 23 0 0 24 23 0 0 23 23 0 0 23 24 0 0 23 46 0 0-23 24 0 0-23 23 0 0-23 23 0 0-24 23 0 0-23 24 0 0-23 23 0 0-23 23 0 0-24 23 0 0-46-116 0 0-186-186 0 0 186-116 0m93 46l69 0 0-186 94 0 0 186 69 0 0 24-23 0 0 23-23 0 0 23-23 0 0 23-24 0 0 24-46 0 0-24-24 0 0-23-23 0 0-23-23 0 0-23-23 0z"/>
<glyph glyph-name="arrow-up-circle-svgrepo-com" unicode="&#123;" d="M140 233l0 46 23 0 0 24 23 0 0 23 23 0 0 23 24 0 0 23 46 0 0-23 24 0 0-23 23 0 0-23 23 0 0-24 23 0 0-46-46 0 0 23-23 0 0 23-24 0 0-139-46 0 0 139-24 0 0-23-23 0 0-23-46 0m-117-70l0 186 24 0 0 47 23 0 0 23 23 0 0 23 23 0 0 23 47 0 0 24 186 0 0-24 47 0 0-23 23 0 0-23 23 0 0-23 23 0 0-47 24 0 0-186-24 0 0-47-23 0 0-23-23 0 0-23-23 0 0-23-47 0 0-24-186 0 0 24-47 0 0 23-23 0 0 23-23 0 0 23-23 0 0 47-24 0m93-23l0-24 24 0 0-23 46 0 0-23 140 0 0 23 46 0 0 23 24 0 0 24 23 0 0 46 23 0 0 140-23 0 0 46-23 0 0 24-24 0 0 23-46 0 0 23-140 0 0-23-46 0 0-23-24 0 0-24-23 0 0-46-23 0 0-140 23 0 0-46z"/>
<glyph glyph-name="arrow-up-down-svgrepo-com" unicode="&#124;" d="M233 442l46 0 0-23 24 0 0-23 23 0 0-24 23 0 0-23 23 0 0-46-46 0 0 23-23 0 0 23-24 0 0-186 24 0 0 23 23 0 0 23 46 0 0-46-23 0 0-23-23 0 0-24-23 0 0-23-24 0 0-23-46 0 0 23-24 0 0 23-23 0 0 24-23 0 0 23-23 0 0 46 46 0 0-23 23 0 0-23 24 0 0 186-24 0 0-23-23 0 0-23-46 0 0 46 23 0 0 23 23 0 0 24 23 0 0 23 24 0"/>
<glyph glyph-name="arrow-up-left-svgrepo-com" unicode="&#125;" d="M70 279l0 47 23 0 0 23 23 0 0 23 24 0 0 24 23 0 0 23 46 0 0-47-23 0 0-23-23 0 0-23 93 0 0-23 47 0 0-24 23 0 0-46 23 0 0-163-46 0 0 139-24 0 0 47-46 0 0 23-70 0 0-23 23 0 0-23 23 0 0-47-46 0 0 23-23 0 0 24-24 0 0 23-23 0 0 23"/>
<glyph glyph-name="arrow-up-right-svgrepo-com" unicode="&#126;" d="M442 279l0 47-23 0 0 23-23 0 0 23-24 0 0 24-23 0 0 23-46 0 0-47 23 0 0-23 23 0 0-23-93 0 0-23-47 0 0-24-23 0 0-46-23 0 0-163 46 0 0 139 24 0 0 47 46 0 0 23 70 0 0-23-23 0 0-23-23 0 0-47 46 0 0 23 23 0 0 24 24 0 0 23 23 0 0 23"/>
<glyph glyph-name="arrow-up-svgrepo-com" unicode="&#92;" d="M233 396l46 0 0-24 24 0 0-23 23 0 0-23 23 0 0-23 23 0 0-47-46 0 0 23-23 0 0 24-24 0 0-210-46 0 0 210-24 0 0-24-23 0 0-23-46 0 0 47 23 0 0 23 23 0 0 23 23 0 0 23 24 0"/>
<glyph glyph-name="axe-svgrepo-com" unicode="&#57344;" d="M256 442l47 0 0-23 23 0 0-23 23 0 0-24 47 0 0-23 46 0 0-23 23 0 0-23 24 0 0-47-24 0 0-47-23 0 0-23-23 0 0-23-47 0 0-23-23 0 0 23-23 0 0 23-23 0 0 47-24 0 0 23-23 0 0 23-23 0 0 24-24 0 0 23-23 0 0 46 23 0 0 24 24 0 0 23 23 0m-23-140l0-23 23 0 0-47-23 0 0-23-24 0 0-23-23 0 0-23-23 0 0-24-23 0 0-23-24 0 0-23-23 0 0-23-23 0 0 23-23 0 0 46 23 0 0 24 23 0 0 23 23 0 0 23 24 0 0 23 23 0 0 24 23 0 0 23 23 0 0 23"/>
<glyph glyph-name="bag-personal-fill-svgrepo-com" unicode="&#57345;" d="M70 326l23 0 0 46 47 0 0 24 23 0 0 69 23 0 0 24 140 0 0-24 23 0 0-69 23 0 0-24 47 0 0-46 23 0 0-279-23 0 0-24-326 0 0 24-23 0 0 279m139 116l0-46 94 0 0 46-94 0m187-256l-280 0 0-23 47 0 0-47 23 0 0 47 210 0 0 23m-117 70l24 0 0 47-24 0 0 23-46 0 0-23-24 0 0-47 24 0 0-23 46 0z"/>
<glyph glyph-name="bag-personal-svgrepo-com" unicode="&#57346;" d="M396 163l-187 0 0-47-46 0 0 47-47 0 0-93 280 0 0 93m0 140l-24 0 0 23-23 0 0 23-186 0 0-23-23 0 0-23-24 0 0-94 280 0 0 94m-93-47l-94 0 0 23 24 0 0 24 46 0 0-24 24 0 0-23m-233 70l23 0 0 46 47 0 0 24 23 0 0 69 23 0 0 24 140 0 0-24 23 0 0-69 23 0 0-24 47 0 0-46 23 0 0-279-23 0 0-24-326 0 0 24-23 0 0 279m139 116l0-46 94 0 0 46z"/>
<glyph glyph-name="battery-0-svgrepo-com" unicode="&#57347;" d="M70 396l349 0 0-24 23 0 0-69 23 0 0-94-23 0 0-69-23 0 0-24-349 0 0 24-23 0 0 232 23 0 0 24m23-47l0-186 303 0 0 186z"/>
<glyph glyph-name="battery-25-svgrepo-com" unicode="&#57348;" d="M163 326l0-140-47 0 0 140 47 0m256 70l0-24 23 0 0-69 23 0 0-94-23 0 0-69-23 0 0-24-349 0 0 24-23 0 0 232 23 0 0 24 349 0m-23-47l-303 0 0-186 303 0z"/>
<glyph glyph-name="battery-50-svgrepo-com" unicode="&#57349;" d="M116 326l47 0 0-140-47 0 0 140m70 0l47 0 0-140-47 0 0 140m233 70l0-24 23 0 0-69 23 0 0-94-23 0 0-69-23 0 0-24-349 0 0 24-23 0 0 232 23 0 0 24 349 0m-23-47l-303 0 0-186 303 0z"/>
<glyph glyph-name="battery-75-svgrepo-com" unicode="&#57350;" d="M116 326l47 0 0-140-47 0 0 140m70 0l47 0 0-140-47 0 0 140m233 70l0-24 23 0 0-69 23 0 0-94-23 0 0-69-23 0 0-24-349 0 0 24-23 0 0 232 23 0 0 24 349 0m-23-47l-303 0 0-186 303 0 0 186m-140-23l47 0 0-140-47 0z"/>
<glyph glyph-name="battery-100-svgrepo-com" unicode="&#57351;" d="M116 326l47 0 0-140-47 0 0 140m70 0l47 0 0-140-47 0 0 140m233 70l0-24 23 0 0-69 23 0 0-94-23 0 0-69-23 0 0-24-349 0 0 24-23 0 0 232 23 0 0 24 349 0m-23-47l-303 0 0-186 303 0 0 186m-140-23l47 0 0-140-47 0 0 140m70 0l46 0 0-140-46 0z"/>
<glyph glyph-name="battle-axe-svgrepo-com" unicode="&#57352;" d="M349 489l-93 0 0-24-23 0 0-23-24 0 0-23-23 0 0-93 93 0 0-23-23 0 0-24-23 0 0-23-24 0 0-23-23 0 0-24-23 0 0-23-23 0 0-23-24 0 0-23-23 0 0-24-23 0 0-23-23 0 0-23-24 0 0-23 24 0 0-24 23 0 0 24 23 0 0 23 23 0 0 23 24 0 0 23 23 0 0 24 23 0 0 23 23 0 0 23 24 0 0 23 23 0 0 24 23 0 0 23 24 0 0 23 23 0 0-93 93 0 0 23 23 0 0 24 23 0 0 23 24 0 0 93-93 0 0 47-47 0"/>
<glyph glyph-name="book-svgrepo-com" unicode="&#57353;" d="M70 465l23 0 0 24 326 0 0-24 23 0 0-418-23 0 0-24-326 0 0 24-23 0 0 418m186-162l-23 0 0 23-24 0 0-23-23 0 0-24-23 0 0 163-47 0 0-372 280 0 0 372-117 0 0-163-23 0z"/>
<glyph glyph-name="bookmark-svgrepo-com" unicode="&#57354;" d="M116 465l280 0 0-23 23 0 0-395-47 0 0 23-46 0 0 23-47 0 0 23-46 0 0-23-47 0 0-23-46 0 0-23-47 0 0 395 23 0 0 23m24-46l0-303 23 0 0 24 46 0 0 23 24 0 0 23 46 0 0-23 24 0 0-23 46 0 0-24 23 0 0 303z"/>
<glyph glyph-name="border-bottom-left-right-svgrepo-com" unicode="&#57355;" d="M233 419l0 46 46 0 0-46-46 0m-93 0l0 46 46 0 0-46-46 0m186 0l0 46 46 0 0-46-46 0m93 46l46 0 0-418-418 0 0 418 46 0 0-372 326 0z"/>
<glyph glyph-name="border-bottom-left-svgrepo-com" unicode="&#57356;" d="M233 419l0 46 46 0 0-46-46 0m186-186l0 46 46 0 0-46-46 0m0-93l0 46 46 0 0-46-46 0m-279 279l0 46 46 0 0-46-46 0m279-93l0 46 46 0 0-46-46 0m0 93l0 46 46 0 0-46-46 0m-93 0l0 46 46 0 0-46-46 0m-279-372l0 418 46 0 0-372 372 0 0-46z"/>
<glyph glyph-name="border-bottom-right-svgrepo-com" unicode="&#57357;" d="M93 233l-46 0 0 46 46 0 0-46m186 186l-46 0 0 46 46 0 0-46m93 0l-46 0 0 46 46 0 0-46m-279-279l-46 0 0 46 46 0 0-46m93 279l-46 0 0 46 46 0 0-46m-93 0l-46 0 0 46 46 0 0-46m0-93l-46 0 0 46 46 0 0-46m372-279l-418 0 0 46 372 0 0 372 46 0z"/>
<glyph glyph-name="border-bottom-svgrepo-com" unicode="&#57358;" d="M465 233l-46 0 0 46 46 0 0-46m-372 0l-46 0 0 46 46 0 0-46m186 186l-46 0 0 46 46 0 0-46m93 0l-46 0 0 46 46 0 0-46m93-93l-46 0 0 46 46 0 0-46m0 93l-46 0 0 46 46 0 0-46m0-279l-46 0 0 46 46 0 0-46m-372 0l-46 0 0 46 46 0 0-46m93 279l-46 0 0 46 46 0 0-46m-93 0l-46 0 0 46 46 0 0-46m0-93l-46 0 0 46 46 0 0-46m372-279l-418 0 0 46 418 0z"/>
<glyph glyph-name="border-inside-svgrepo-com" unicode="&#57359;" d="M47 279l186 0 0 186 46 0 0-186 186 0 0-46-186 0 0-186-46 0 0 186-186 0 0 46m93-186l46 0 0-46-46 0 0 46m-93 93l46 0 0-46-46 0 0 46m0-93l46 0 0-46-46 0 0 46m0 372l46 0 0-46-46 0 0 46m0-93l46 0 0-46-46 0 0 46m93 93l46 0 0-46-46 0 0 46m186 0l46 0 0-46-46 0 0 46m93 0l46 0 0-46-46 0 0 46m0-93l46 0 0-46-46 0 0 46m-93-279l46 0 0-46-46 0 0 46m93 0l46 0 0-46-46 0 0 46m0 93l46 0 0-46-46 0z"/>
<glyph glyph-name="border-left-right-svgrepo-com" unicode="&#57360;" d="M279 465l0-46-46 0 0 46 46 0m0-372l0-46-46 0 0 46 46 0m-93 372l0-46-46 0 0 46 46 0m186 0l0-46-46 0 0 46 46 0m0-372l0-46-46 0 0 46 46 0m-186 0l0-46-46 0 0 46 46 0m-93 372l0-418-46 0 0 418 46 0m326 0l46 0 0-418-46 0z"/>
<glyph glyph-name="border-left-svgrepo-com" unicode="&#57361;" d="M233 47l0 46 46 0 0-46-46 0m0 372l0 46 46 0 0-46-46 0m186-186l0 46 46 0 0-46-46 0m0-93l0 46 46 0 0-46-46 0m-93-93l0 46 46 0 0-46-46 0m93 0l0 46 46 0 0-46-46 0m-279 0l0 46 46 0 0-46-46 0m0 372l0 46 46 0 0-46-46 0m279-93l0 46 46 0 0-46-46 0m0 93l0 46 46 0 0-46-46 0m-93 0l0 46 46 0 0-46-46 0m-279-372l0 418 46 0 0-418z"/>
<glyph glyph-name="border-none-svgrepo-com" unicode="&#57362;" d="M47 279l46 0 0-46-46 0 0 46m372 0l46 0 0-46-46 0 0 46m-186 186l46 0 0-46-46 0 0 46m0-372l46 0 0-46-46 0 0 46m-93 0l46 0 0-46-46 0 0 46m-93 93l46 0 0-46-46 0 0 46m0-93l46 0 0-46-46 0 0 46m0 372l46 0 0-46-46 0 0 46m0-93l46 0 0-46-46 0 0 46m93 93l46 0 0-46-46 0 0 46m186 0l46 0 0-46-46 0 0 46m93 0l46 0 0-46-46 0 0 46m0-93l46 0 0-46-46 0 0 46m-93-279l46 0 0-46-46 0 0 46m93 0l46 0 0-46-46 0 0 46m0 93l46 0 0-46-46 0z"/>
<glyph glyph-name="border-outside-svgrepo-com" unicode="&#57363;" d="M47 465l418 0 0-418-418 0 0 418m46-46l0-326 326 0 0 326-326 0m140-47l46 0 0-46-46 0 0 46m0-93l46 0 0-46-46 0 0 46m-93 0l46 0 0-46-46 0 0 46m186 0l46 0 0-46-46 0 0 46m-93-93l46 0 0-46-46 0z"/>
<glyph glyph-name="border-right-svgrepo-com" unicode="&#57364;" d="M279 465l0-46-46 0 0 46 46 0m0-372l0-46-46 0 0 46 46 0m-186 186l0-46-46 0 0 46 46 0m0 93l0-46-46 0 0 46 46 0m93 93l0-46-46 0 0 46 46 0m-93 0l0-46-46 0 0 46 46 0m279 0l0-46-46 0 0 46 46 0m0-372l0-46-46 0 0 46 46 0m-279 93l0-46-46 0 0 46 46 0m0-93l0-46-46 0 0 46 46 0m93 0l0-46-46 0 0 46 46 0m279 372l0-418-46 0 0 418z"/>
<glyph glyph-name="border-top-bottom-svgrepo-com" unicode="&#57365;" d="M47 279l46 0 0-46-46 0 0 46m372 0l46 0 0-46-46 0 0 46m-372-93l46 0 0-46-46 0 0 46m0 186l46 0 0-46-46 0 0 46m372 0l46 0 0-46-46 0 0 46m0-186l46 0 0-46-46 0 0 46m-372-93l418 0 0-46-418 0 0 46m0 326l0 46 418 0 0-46z"/>
<glyph glyph-name="border-top-left-bottom-svgrepo-com" unicode="&#57366;" d="M419 279l46 0 0-46-46 0 0 46m0 93l46 0 0-46-46 0 0 46m0-186l46 0 0-46-46 0 0 46m46-93l0-46-418 0 0 418 418 0 0-46-372 0 0-326z"/>
<glyph glyph-name="border-top-left-right-svgrepo-com" unicode="&#57367;" d="M279 93l0-46-46 0 0 46 46 0m93 0l0-46-46 0 0 46 46 0m-186 0l0-46-46 0 0 46 46 0m-93-46l-46 0 0 418 418 0 0-418-46 0 0 372-326 0z"/>
<glyph glyph-name="border-top-left-svgrepo-com" unicode="&#57368;" d="M419 279l46 0 0-46-46 0 0 46m-186-186l46 0 0-46-46 0 0 46m-93 0l46 0 0-46-46 0 0 46m279 279l46 0 0-46-46 0 0 46m-93-279l46 0 0-46-46 0 0 46m93 0l46 0 0-46-46 0 0 46m0 93l46 0 0-46-46 0 0 46m-372 279l418 0 0-46-372 0 0-372-46 0z"/>
<glyph glyph-name="border-top-right-bottom-svgrepo-com" unicode="&#57369;" d="M93 233l-46 0 0 46 46 0 0-46m0-93l-46 0 0 46 46 0 0-46m0 186l-46 0 0 46 46 0 0-46m-46 93l0 46 418 0 0-418-418 0 0 46 372 0 0 326z"/>
<glyph glyph-name="border-top-right-svgrepo-com" unicode="&#57370;" d="M279 93l0-46-46 0 0 46 46 0m-186 186l0-46-46 0 0 46 46 0m0 93l0-46-46 0 0 46 46 0m279-279l0-46-46 0 0 46 46 0m-279 93l0-46-46 0 0 46 46 0m0-93l0-46-46 0 0 46 46 0m93 0l0-46-46 0 0 46 46 0m279 372l0-418-46 0 0 372-372 0 0 46z"/>
<glyph glyph-name="border-top-svgrepo-com" unicode="&#57371;" d="M47 279l46 0 0-46-46 0 0 46m372 0l46 0 0-46-46 0 0 46m-186-186l46 0 0-46-46 0 0 46m-93 0l46 0 0-46-46 0 0 46m-93 93l46 0 0-46-46 0 0 46m0-93l46 0 0-46-46 0 0 46m0 279l46 0 0-46-46 0 0 46m372 0l46 0 0-46-46 0 0 46m-93-279l46 0 0-46-46 0 0 46m93 0l46 0 0-46-46 0 0 46m0 93l46 0 0-46-46 0 0 46m-372 279l418 0 0-46-418 0z"/>
<glyph glyph-name="bow-arrow-svgrepo-com" unicode="&#57372;" d="M23 442l233 0 0-23 47 0 0-23 69 0 0 23 24 0 0 46 69 0 0-69-46 0 0-24-23 0 0-69 23 0 0-47 23 0 0-233-46 0 0 47-47 0 0 23-23 0 0 23-23 0 0 24-24 0 0 23-23 0 0 23-47 0 0-23-23 0 0-23-23 0 0-70-23 0 0-23-24 0 0-24-23 0 0 24-23 0 0 23-23 0 0 23-24 0 0 23 24 0 0 24 23 0 0 23 70 0 0 23 23 0 0 23 23 0 0 47-23 0 0 23-23 0 0 24-24 0 0 23-23 0 0 23-23 0 0 47-47 0 0 46m349-349l24 0 0 140-24 0 0 46-23 0 0 24-23 0 0-24-23 0 0-23-24 0 0-23-23 0 0-24 23 0 0-23 24 0 0-23 23 0 0-23 23 0 0-24 23 0 0-23m-93 256l0 23-46 0 0 24-140 0 0-24 23 0 0-23 24 0 0-23 23 0 0-23 23 0 0-24 23 0 0-23 24 0 0 23 23 0 0 24 23 0 0 23 24 0 0 23z"/>
<glyph glyph-name="bow-svgrepo-com" unicode="&#57373;" d="M23 442l233 0 0-23 47 0 0-23 46 0 0-24 23 0 0-23 24 0 0-46 23 0 0-47 23 0 0-233-46 0 0 47-47 0 0 23-23 0 0 23-23 0 0 24-24 0 0 23-23 0 0 23-23 0 0 23-24 0 0 24-23 0 0 23-23 0 0 23-23 0 0 24-24 0 0 23-23 0 0 23-23 0 0 47-47 0m349-303l24 0 0 140-24 0 0 46-23 0 0 47-23 0 0 23-47 0 0 23-46 0 0 24-140 0 0-24 23 0 0-23 24 0 0-23 23 0 0-23 23 0 0-24 23 0 0-23 24 0 0-23 23 0 0-24 23 0 0-23 24 0 0-23 23 0 0-23 23 0 0-24 23 0"/>
<glyph glyph-name="box-light-dashed-down-left-svgrepo-com" unicode="&#57374;" d="M512 233l-47 0 0 46 47 0 0-46m-93 0l-70 0 0 46 70 0 0-46m-116 0l-70 0 0 70 46 0 0-24 24 0 0-46m-24 279l0-47-46 0 0 47 46 0m0-93l0-70-46 0 0 70z"/>
<glyph glyph-name="box-light-dashed-down-right-svgrepo-com" unicode="&#57375;" d="M279 512l0-47-46 0 0 47 46 0m0-93l0-70-46 0 0 70 46 0m0-116l0-70-70 0 0 46 24 0 0 24 46 0m-279-24l47 0 0-46-47 0 0 46m93 0l70 0 0-46-70 0z"/>
<glyph glyph-name="box-light-dashed-up-left-svgrepo-com" unicode="&#57376;" d="M233 0l0 47 46 0 0-47-46 0m0 93l0 70 46 0 0-70-46 0m0 116l0 70 70 0 0-46-24 0 0-24-46 0m279 24l-47 0 0 46 47 0 0-46m-93 0l-70 0 0 46 70 0z"/>
<glyph glyph-name="box-light-dashed-up-right-svgrepo-com" unicode="&#57377;" d="M0 279l47 0 0-46-47 0 0 46m93 0l70 0 0-46-70 0 0 46m116 0l70 0 0-70-46 0 0 24-24 0 0 46m24-279l0 47 46 0 0-47-46 0m0 93l0 70 46 0 0-70z"/>
<glyph glyph-name="box-light-double-horizontal-svgrepo-com" unicode="&#57378;" d="M0 233l512 0 0-47-512 0 0 47m0 93l512 0 0-47-512 0z"/>
<glyph glyph-name="box-light-double-round-down-left-svgrepo-com" unicode="&#57379;" d="M233 512l0-70 23 0 0-46 23 0 0-47 24 0 0-23 23 0 0-23 23 0 0-24 47 0 0-23 46 0 0-23 70 0 0-47-93 0 0 23-47 0 0 24-46 0 0 23-23 0 0 23-24 0 0 24-23 0 0 23-23 0 0 46-24 0 0 47-23 0 0 93 47 0m279-233l-47 0 0 24-69 0 0 23-24 0 0 23-23 0 0 23-23 0 0 24-23 0 0 69-24 0 0 47 47 0 0-23 23 0 0-70 23 0 0-23 24 0 0-24 23 0 0-23 70 0 0-23 23 0z"/>
<glyph glyph-name="box-light-double-round-down-right-svgrepo-com" unicode="&#57380;" d="M0 233l70 0 0 23 46 0 0 23 47 0 0 24 23 0 0 23 23 0 0 23 24 0 0 47 23 0 0 46 23 0 0 70 47 0 0-93-23 0 0-47-24 0 0-46-23 0 0-23-23 0 0-24-24 0 0-23-23 0 0-23-46 0 0-24-47 0 0-23-93 0 0 47m233 279l0-47-24 0 0-69-23 0 0-24-23 0 0-23-23 0 0-23-24 0 0-23-69 0 0-24-47 0 0 47 23 0 0 23 70 0 0 23 23 0 0 24 24 0 0 23 23 0 0 70 23 0 0 23z"/>
<glyph glyph-name="box-light-double-round-up-left-svgrepo-com" unicode="&#57381;" d="M512 279l-70 0 0-23-46 0 0-23-47 0 0-24-23 0 0-23-23 0 0-23-24 0 0-47-23 0 0-46-23 0 0-70-47 0 0 93 23 0 0 47 24 0 0 46 23 0 0 23 23 0 0 24 24 0 0 23 23 0 0 23 46 0 0 24 47 0 0 23 93 0 0-47m-233-279l0 47 24 0 0 69 23 0 0 24 23 0 0 23 23 0 0 23 24 0 0 23 69 0 0 24 47 0 0-47-23 0 0-23-70 0 0-23-23 0 0-24-24 0 0-23-23 0 0-70-23 0 0-23z"/>
<glyph glyph-name="box-light-double-round-up-right-svgrepo-com" unicode="&#57382;" d="M279 0l0 70-23 0 0 46-23 0 0 47-24 0 0 23-23 0 0 23-23 0 0 24-47 0 0 23-46 0 0 23-70 0 0 47 93 0 0-23 47 0 0-24 46 0 0-23 23 0 0-23 24 0 0-24 23 0 0-23 23 0 0-46 24 0 0-47 23 0 0-93-47 0m-279 233l47 0 0-24 69 0 0-23 24 0 0-23 23 0 0-23 23 0 0-24 23 0 0-69 24 0 0-47-47 0 0 23-23 0 0 70-23 0 0 23-24 0 0 24-23 0 0 23-70 0 0 23-23 0z"/>
<glyph glyph-name="box-light-double-vertical-svgrepo-com" unicode="&#57383;" d="M279 0l0 512 47 0 0-512-47 0m-93 0l0 512 47 0 0-512z"/>
<glyph glyph-name="box-light-down-left-circle-svgrepo-com" unicode="&#57384;" d="M303 163l-94 0 0 23-23 0 0 23-23 0 0 94 23 0 0 23 23 0 0 23 24 0 0 163 46 0 0-163 24 0 0-23 23 0 0-23 23 0 0-24 163 0 0-46-163 0 0-24-23 0 0-23-23 0 0-23m-94 70l24 0 0-24 46 0 0 24 24 0 0 46-24 0 0 24-46 0 0-24-24 0z"/>
<glyph glyph-name="box-light-down-left-svgrepo-com" unicode="&#57385;" d="M512 233l-279 0 0 279 46 0 0-233 233 0z"/>
<glyph glyph-name="box-light-down-right-circle-svgrepo-com" unicode="&#57386;" d="M349 303l0-94-23 0 0-23-23 0 0-23-94 0 0 23-23 0 0 23-23 0 0 24-163 0 0 46 163 0 0 24 23 0 0 23 23 0 0 23 24 0 0 163 46 0 0-163 24 0 0-23 23 0 0-23 23 0m-70-94l0 24 24 0 0 46-24 0 0 24-46 0 0-24-24 0 0-46 24 0 0-24z"/>
<glyph glyph-name="box-light-down-right-svgrepo-com" unicode="&#57387;" d="M279 512l0-279-279 0 0 46 233 0 0 233z"/>
<glyph glyph-name="box-light-horizontal-svgrepo-com" unicode="&#57388;" d="M0 279l512 0 0-46-512 0z"/>
<glyph glyph-name="box-light-round-down-left-svgrepo-com" unicode="&#57389;" d="M512 233l-93 0 0 23-70 0 0 23-23 0 0 24-23 0 0 23-24 0 0 23-23 0 0 70-23 0 0 93 46 0 0-70 24 0 0-70 23 0 0-23 23 0 0-23 23 0 0-23 70 0 0-24 70 0z"/>
<glyph glyph-name="box-light-round-down-right-svgrepo-com" unicode="&#57390;" d="M279 512l0-93-23 0 0-70-23 0 0-23-24 0 0-23-23 0 0-24-23 0 0-23-70 0 0-23-93 0 0 46 70 0 0 24 70 0 0 23 23 0 0 23 23 0 0 23 23 0 0 70 24 0 0 70z"/>
<glyph glyph-name="box-light-round-up-left-svgrepo-com" unicode="&#57391;" d="M233 0l0 93 23 0 0 70 23 0 0 23 24 0 0 23 23 0 0 24 23 0 0 23 70 0 0 23 93 0 0-46-70 0 0-24-70 0 0-23-23 0 0-23-23 0 0-23-23 0 0-70-24 0 0-70z"/>
<glyph glyph-name="box-light-round-up-right-svgrepo-com" unicode="&#57392;" d="M0 279l93 0 0-23 70 0 0-23 23 0 0-24 23 0 0-23 24 0 0-23 23 0 0-70 23 0 0-93-46 0 0 70-24 0 0 70-23 0 0 23-23 0 0 23-23 0 0 23-70 0 0 24-70 0z"/>
<glyph glyph-name="box-light-up-left-circle-svgrepo-com" unicode="&#57393;" d="M163 209l0 94 23 0 0 23 23 0 0 23 94 0 0-23 23 0 0-23 23 0 0-24 163 0 0-46-163 0 0-24-23 0 0-23-23 0 0-23-24 0 0-163-46 0 0 163-24 0 0 23-23 0 0 23-23 0m70 94l0-24-24 0 0-46 24 0 0-24 46 0 0 24 24 0 0 46-24 0 0 24z"/>
<glyph glyph-name="box-light-up-left-svgrepo-com" unicode="&#57394;" d="M233 0l0 279 279 0 0-46-233 0 0-233z"/>
<glyph glyph-name="box-light-up-right-circle-svgrepo-com" unicode="&#57395;" d="M209 349l94 0 0-23 23 0 0-23 23 0 0-94-23 0 0-23-23 0 0-23-24 0 0-163-46 0 0 163-24 0 0 23-23 0 0 23-23 0 0 24-163 0 0 46 163 0 0 24 23 0 0 23 23 0 0 23m94-70l-24 0 0 24-46 0 0-24-24 0 0-46 24 0 0-24 46 0 0 24 24 0z"/>
<glyph glyph-name="box-light-up-right-svgrepo-com" unicode="&#57396;" d="M0 279l279 0 0-279-46 0 0 233-233 0z"/>
<glyph glyph-name="box-light-vertical-svgrepo-com" unicode="&#57397;" d="M279 512l0-512-46 0 0 512z"/>
<glyph glyph-name="box-outer-light-all-svgrepo-com" unicode="&#57398;" d="M0 512l512 0 0-512-512 0 0 512m47-47l0-418 418 0 0 418z"/>
<glyph glyph-name="box-outer-light-dashed-all-svgrepo-com" unicode="&#57399;" d="M93 512l0-47-46 0 0-46-47 0 0 93 93 0m-46-140l0-93-47 0 0 93 47 0m0-139l0-93-47 0 0 93 47 0m0-140l0-46 46 0 0-47-93 0 0 93 47 0m93 419l93 0 0-47-93 0 0 47m139 0l93 0 0-47-93 0 0 47m140 0l93 0 0-93-47 0 0 46-46 0 0 47m0-512l0 47 46 0 0 46 47 0 0-93-93 0m-47 0l-93 0 0 47 93 0 0-47m-139 0l-93 0 0 47 93 0 0-47m232 372l47 0 0-93-47 0 0 93m0-139l47 0 0-93-47 0z"/>
<glyph glyph-name="box-outer-light-dashed-down-left-right-svgrepo-com" unicode="&#57400;" d="M0 93l47 0 0-46 46 0 0-47-93 0 0 93m140-46l93 0 0-47-93 0 0 47m139 0l93 0 0-47-93 0 0 47m140 0l46 0 0 46 47 0 0-93-93 0 0 47m-419 93l0 93 47 0 0-93-47 0m0 139l0 70 47 0 0-70-47 0m0 117l0 93 47 0 0-93-47 0m512 93l0-93-47 0 0 93 47 0m0-140l0-70-47 0 0 70 47 0m0-116l0-93-47 0 0 93z"/>
<glyph glyph-name="box-outer-light-dashed-down-left-svgrepo-com" unicode="&#57401;" d="M0 93l47 0 0-46 46 0 0-47-93 0 0 93m140-46l93 0 0-47-93 0 0 47m139 0l93 0 0-47-93 0 0 47m140 0l70 0 0-47-70 0 0 47m-419 93l0 93 47 0 0-93-47 0m0 139l0 70 47 0 0-70-47 0m0 117l0 93 47 0 0-93z"/>
<glyph glyph-name="box-outer-light-dashed-down-right-svgrepo-com" unicode="&#57402;" d="M419 0l0 47 46 0 0 46 47 0 0-93-93 0m46 140l0 93 47 0 0-93-47 0m0 139l0 93 47 0 0-93-47 0m0 140l0 70 47 0 0-70-47 0m-93-419l-93 0 0 47 93 0 0-47m-139 0l-70 0 0 47 70 0 0-47m-117 0l-93 0 0 47 93 0z"/>
<glyph glyph-name="box-outer-light-dashed-down-svgrepo-com" unicode="&#57403;" d="M23 47l93 0 0-47-93 0 0 47m140 0l70 0 0-47-70 0 0 47m116 0l93 0 0-47-93 0 0 47m140 0l70 0 0-47-70 0z"/>
<glyph glyph-name="box-outer-light-dashed-left-right-svgrepo-com" unicode="&#57404;" d="M465 23l0 93 47 0 0-93-47 0m0 140l0 70 47 0 0-70-47 0m0 116l0 93 47 0 0-93-47 0m0 140l0 70 47 0 0-70-47 0m-465-396l0 93 47 0 0-93-47 0m0 140l0 70 47 0 0-70-47 0m0 116l0 93 47 0 0-93-47 0m0 140l0 70 47 0 0-70z"/>
<glyph glyph-name="box-outer-light-dashed-left-svgrepo-com" unicode="&#57405;" d="M0 23l0 93 47 0 0-93-47 0m0 140l0 70 47 0 0-70-47 0m0 116l0 93 47 0 0-93-47 0m0 140l0 70 47 0 0-70z"/>
<glyph glyph-name="box-outer-light-dashed-right-svgrepo-com" unicode="&#57406;" d="M465 23l0 93 47 0 0-93-47 0m0 140l0 70 47 0 0-70-47 0m0 116l0 93 47 0 0-93-47 0m0 140l0 70 47 0 0-70z"/>
<glyph glyph-name="box-outer-light-dashed-up-down-left-svgrepo-com" unicode="&#57407;" d="M93 512l0-47-46 0 0-46-47 0 0 93 93 0m-46-140l0-93-47 0 0 93 47 0m0-139l0-93-47 0 0 93 47 0m0-140l0-46 46 0 0-47-93 0 0 93 47 0m93 419l93 0 0-47-93 0 0 47m139 0l70 0 0-47-70 0 0 47m117 0l93 0 0-47-93 0 0 47m93-512l-93 0 0 47 93 0 0-47m-140 0l-70 0 0 47 70 0 0-47m-116 0l-93 0 0 47 93 0z"/>
<glyph glyph-name="box-outer-light-dashed-up-down-right-svgrepo-com" unicode="&#57408;" d="M419 0l0 47 46 0 0 46 47 0 0-93-93 0m46 140l0 93 47 0 0-93-47 0m0 139l0 93 47 0 0-93-47 0m0 140l0 46-46 0 0 47 93 0 0-93-47 0m-93-419l-93 0 0 47 93 0 0-47m-139 0l-70 0 0 47 70 0 0-47m-117 0l-93 0 0 47 93 0 0-47m-93 512l93 0 0-47-93 0 0 47m140 0l70 0 0-47-70 0 0 47m116 0l93 0 0-47-93 0z"/>
<glyph glyph-name="box-outer-light-dashed-up-down-svgrepo-com" unicode="&#57409;" d="M489 465l-93 0 0 47 93 0 0-47m-140 0l-70 0 0 47 70 0 0-47m-116 0l-93 0 0 47 93 0 0-47m-140 0l-70 0 0 47 70 0 0-47m396-465l-93 0 0 47 93 0 0-47m-140 0l-70 0 0 47 70 0 0-47m-116 0l-93 0 0 47 93 0 0-47m-140 0l-70 0 0 47 70 0z"/>
<glyph glyph-name="box-outer-light-dashed-up-left-right-svgrepo-com" unicode="&#57410;" d="M512 419l-47 0 0 46-46 0 0 47 93 0 0-93m-140 46l-93 0 0 47 93 0 0-47m-139 0l-93 0 0 47 93 0 0-47m-140 0l-46 0 0-46-47 0 0 93 93 0 0-47m419-93l0-93-47 0 0 93 47 0m0-139l0-70-47 0 0 70 47 0m0-117l0-93-47 0 0 93 47 0m-512-93l0 93 47 0 0-93-47 0m0 140l0 70 47 0 0-70-47 0m0 116l0 93 47 0 0-93z"/>
<glyph glyph-name="box-outer-light-dashed-up-left-svgrepo-com" unicode="&#57411;" d="M93 512l0-47-46 0 0-46-47 0 0 93 93 0m-46-140l0-93-47 0 0 93 47 0m0-139l0-93-47 0 0 93 47 0m0-140l0-70-47 0 0 70 47 0m93 419l93 0 0-47-93 0 0 47m139 0l70 0 0-47-70 0 0 47m117 0l93 0 0-47-93 0z"/>
<glyph glyph-name="box-outer-light-dashed-up-right-svgrepo-com" unicode="&#57412;" d="M512 419l-47 0 0 46-46 0 0 47 93 0 0-93m-140 46l-93 0 0 47 93 0 0-47m-139 0l-93 0 0 47 93 0 0-47m-140 0l-70 0 0 47 70 0 0-47m419-93l0-93-47 0 0 93 47 0m0-139l0-70-47 0 0 70 47 0m0-117l0-93-47 0 0 93z"/>
<glyph glyph-name="box-outer-light-dashed-up-svgrepo-com" unicode="&#57413;" d="M23 512l93 0 0-47-93 0 0 47m140 0l70 0 0-47-70 0 0 47m116 0l93 0 0-47-93 0 0 47m140 0l70 0 0-47-70 0z"/>
<glyph glyph-name="box-outer-light-down-left-right-svgrepo-com" unicode="&#57414;" d="M512 0l-512 0 0 512 47 0 0-465 418 0 0 465 47 0z"/>
<glyph glyph-name="box-outer-light-down-left-svgrepo-com" unicode="&#57415;" d="M0 512l47 0 0-465 465 0 0-47-512 0z"/>
<glyph glyph-name="box-outer-light-down-right-svgrepo-com" unicode="&#57416;" d="M0 0l0 47 465 0 0 465 47 0 0-512z"/>
<glyph glyph-name="box-outer-light-down-svgrepo-com" unicode="&#57417;" d="M0 47l512 0 0-47-512 0z"/>
<glyph glyph-name="box-outer-light-left-right-svgrepo-com" unicode="&#57418;" d="M0 0l0 512 47 0 0-512-47 0m465 0l0 512 47 0 0-512z"/>
<glyph glyph-name="box-outer-light-left-svgrepo-com" unicode="&#57419;" d="M0 0l0 512 47 0 0-512z"/>
<glyph glyph-name="box-outer-light-right-svgrepo-com" unicode="&#57420;" d="M465 0l0 512 47 0 0-512z"/>
<glyph glyph-name="box-outer-light-round-down-left-svgrepo-com" unicode="&#57421;" d="M0 512l47 0 0-116 23 0 0-93 23 0 0-47 23 0 0-47 24 0 0-23 23 0 0-23 23 0 0-23 23 0 0-24 47 0 0-23 47 0 0-23 93 0 0-23 116 0 0-47-140 0 0 23-93 0 0 24-46 0 0 23-47 0 0 23-23 0 0 23-23 0 0 24-24 0 0 23-23 0 0 23-23 0 0 47-23 0 0 46-24 0 0 93-23 0z"/>
<glyph glyph-name="box-outer-light-round-down-right-svgrepo-com" unicode="&#57422;" d="M0 0l0 47 116 0 0 23 93 0 0 23 47 0 0 23 47 0 0 24 23 0 0 23 23 0 0 23 23 0 0 23 24 0 0 47 23 0 0 47 23 0 0 93 23 0 0 116 47 0 0-140-23 0 0-93-24 0 0-46-23 0 0-47-23 0 0-23-23 0 0-23-24 0 0-24-23 0 0-23-23 0 0-23-47 0 0-23-46 0 0-24-93 0 0-23z"/>
<glyph glyph-name="box-outer-light-round-up-left-svgrepo-com" unicode="&#57423;" d="M512 512l0-47-116 0 0-23-93 0 0-23-47 0 0-23-47 0 0-24-23 0 0-23-23 0 0-23-23 0 0-23-24 0 0-47-23 0 0-47-23 0 0-93-23 0 0-116-47 0 0 140 23 0 0 93 24 0 0 46 23 0 0 47 23 0 0 23 23 0 0 23 24 0 0 24 23 0 0 23 23 0 0 23 47 0 0 23 46 0 0 24 93 0 0 23z"/>
<glyph glyph-name="box-outer-light-round-up-right-svgrepo-com" unicode="&#57424;" d="M512 0l-47 0 0 116-23 0 0 93-23 0 0 47-23 0 0 47-24 0 0 23-23 0 0 23-23 0 0 23-23 0 0 24-47 0 0 23-47 0 0 23-93 0 0 23-116 0 0 47 140 0 0-23 93 0 0-24 46 0 0-23 47 0 0-23 23 0 0-23 23 0 0-24 24 0 0-23 23 0 0-23 23 0 0-47 23 0 0-46 24 0 0-93 23 0z"/>
<glyph glyph-name="box-outer-light-up-down-left-svgrepo-com" unicode="&#57425;" d="M0 0l0 512 512 0 0-47-465 0 0-418 465 0 0-47z"/>
<glyph glyph-name="box-outer-light-up-down-right-svgrepo-com" unicode="&#57426;" d="M512 512l0-512-512 0 0 47 465 0 0 418-465 0 0 47z"/>
<glyph glyph-name="box-outer-light-up-down-svgrepo-com" unicode="&#57427;" d="M0 512l512 0 0-47-512 0 0 47m0-465l512 0 0-47-512 0z"/>
<glyph glyph-name="box-outer-light-up-left-right-svgrepo-com" unicode="&#57428;" d="M0 512l512 0 0-512-47 0 0 465-418 0 0-465-47 0z"/>
<glyph glyph-name="box-outer-light-up-left-svgrepo-com" unicode="&#57429;" d="M512 512l0-47-465 0 0-465-47 0 0 512z"/>
<glyph glyph-name="box-outer-light-up-right-svgrepo-com" unicode="&#57430;" d="M512 0l-47 0 0 465-465 0 0 47 512 0z"/>
<glyph glyph-name="box-svgrepo-com" unicode="&#57431;" d="M93 465l326 0 0-23 23 0 0-23 23 0 0-326-23 0 0-23-23 0 0-23-326 0 0 23-23 0 0 23-23 0 0 326 23 0 0 23 23 0 0 23m303-69l0 23-280 0 0-23-23 0 0-280 23 0 0-23 280 0 0 23 23 0 0 280z"/>
<glyph glyph-name="briefcase-svgrepo-com" unicode="&#57432;" d="M47 372l116 0 0 70 23 0 0 23 140 0 0-23 23 0 0-70 116 0 0-23 24 0 0-279-24 0 0-23-418 0 0 23-24 0 0 279 24 0 0 23m162 0l94 0 0 47-94 0 0-47m233-46l-372 0 0-233 372 0z"/>
<glyph glyph-name="bug-fill-svgrepo-com" unicode="&#57433;" d="M70 349l70 0 0 23 23 0 0 24 23 0 0 23-23 0 0 23-23 0 0 23 23 0 0 24 23 0 0-24 23 0 0-23 24 0 0-23 46 0 0 23 24 0 0 23 23 0 0 24 23 0 0-24 23 0 0-23-23 0 0-23-23 0 0-23 23 0 0-24 23 0 0-23 70 0 0-46-46 0 0-47 46 0 0-47-46 0 0-46 46 0 0-47-70 0 0-23-23 0 0-23-23 0 0-23-140 0 0 23-23 0 0 23-23 0 0 23-70 0 0 47 46 0 0 46-46 0 0 47 46 0 0 47-46 0 0 46m139-140l0-46 94 0 0 46-94 0m0 94l0-47 94 0 0 47z"/>
<glyph glyph-name="bug-svgrepo-com" unicode="&#57434;" d="M70 349l70 0 0 23 23 0 0 24 23 0 0 23-23 0 0 23-23 0 0 23 23 0 0 24 23 0 0-24 23 0 0-23 24 0 0-23 46 0 0 23 24 0 0 23 23 0 0 24 23 0 0-24 23 0 0-23-23 0 0-23-23 0 0-23 23 0 0-24 23 0 0-23 70 0 0-46-46 0 0-47 46 0 0-47-46 0 0-46 46 0 0-47-70 0 0-23-23 0 0-23-23 0 0-23-140 0 0 23-23 0 0 23-23 0 0 23-70 0 0 47 46 0 0 46-46 0 0 47 46 0 0 47-46 0 0 46m233-256l0 23 23 0 0 24 23 0 0 186-23 0 0 23-23 0 0 23-94 0 0-23-23 0 0-23-23 0 0-186 23 0 0-24 23 0 0-23 94 0m-94 116l94 0 0-46-94 0 0 46m0 94l94 0 0-47-94 0z"/>
<glyph glyph-name="calculator-svgrepo-com" unicode="&#57435;" d="M419 23l-326 0 0 24-23 0 0 395 23 0 0 23 326 0 0-23 23 0 0-395-23 0z m-47 326l0 70-232 0 0-70z m-186-93l0 47-46 0 0-47z m93 0l0 47-46 0 0-47z m93 0l0 47-46 0 0-47z m-186-93l0 46-46 0 0-46z m93 0l0 46-46 0 0-46z m93 0l0 46-46 0 0-46z m-186-93l0 46-46 0 0-46z m93 0l0 46-46 0 0-46z m93 0l0 46-46 0 0-46z"/>
<glyph glyph-name="calendar-month-svgrepo-com" unicode="&#57436;" d="M442 47l-372 0 0 23-23 0 0 372 23 0 0 23 46 0 0 47 47 0 0-47 186 0 0 47 47 0 0-47 46 0 0-23 23 0 0-372-23 0 0-23m-349 372l0-47 326 0 0 47-326 0m0-93l0-233 326 0 0 233-326 0m233-140l46 0 0-46-46 0 0 46m-93 0l46 0 0-46-46 0 0 46m-93 0l46 0 0-46-46 0 0 46m0 93l46 0 0-46-46 0 0 46m93 0l46 0 0-46-46 0 0 46m93 0l46 0 0-46-46 0z"/>
<glyph glyph-name="calendar-svgrepo-com" unicode="&#57437;" d="M442 47l-372 0 0 23-23 0 0 372 23 0 0 23 46 0 0 47 47 0 0-47 186 0 0 47 47 0 0-47 46 0 0-23 23 0 0-372-23 0 0-23m-349 372l0-47 326 0 0 47-326 0m0-93l0-233 326 0 0 233-326 0m186-93l93 0 0-93-93 0z"/>
<glyph glyph-name="cancel-svgrepo-com" unicode="&#57438;" d="M489 349l0-186-24 0 0-47-23 0 0-23-23 0 0-23-23 0 0-23-47 0 0-24-186 0 0 24-47 0 0 23-23 0 0 23-23 0 0 23-23 0 0 47-24 0 0 186 24 0 0 47 23 0 0 23 23 0 0 23 23 0 0 23 47 0 0 24 186 0 0-24 47 0 0-23 23 0 0-23 23 0 0-23 23 0 0-47 24 0m-93 23l0 24-24 0 0 23-46 0 0 23-140 0 0-23-46 0 0-23 23 0 0-24 23 0 0-23 23 0 0-23 24 0 0-23 23 0 0-24 23 0 0-23 24 0 0-23 23 0 0-24 23 0 0-23 23 0 0-23 24 0 0-23 23 0 0 46 23 0 0 140-23 0 0 46-23 0m-70-232l0 23-23 0 0 23-24 0 0 23-23 0 0 24-23 0 0 23-24 0 0 23-23 0 0 24-23 0 0 23-23 0 0 23-24 0 0 23-23 0 0-46-23 0 0-140 23 0 0-46 23 0 0-24 24 0 0-23 46 0 0-23 140 0 0 23 46 0 0 23-23 0 0 24z"/>
<glyph glyph-name="card-svgrepo-com" unicode="&#57439;" d="M47 442l418 0 0-23 24 0 0-326-24 0 0-23-418 0 0 23-24 0 0 326 24 0 0 23m23-46l0-280 372 0 0 280z"/>
<glyph glyph-name="card-text-svgrepo-com" unicode="&#57440;" d="M396 326l0-47-280 0 0 47 280 0m-280-93l233 0 0-47-233 0 0 47m-69 209l418 0 0-23 24 0 0-326-24 0 0-23-418 0 0 23-24 0 0 326 24 0 0 23m23-46l0-280 372 0 0 280z"/>
<glyph glyph-name="cart-svgrepo-com" unicode="&#57441;" d="M442 186l0-46-302 0 0 23-24 0 0 93-23 0 0 70-23 0 0 116-47 0 0 47 93 0 0-70 373 0 0-93-24 0 0-70-23 0 0-23-279 0 0-47 279 0m-326 163l24 0 0-70 279 0 0 70 23 0 0 23-326 0 0-23m47-233l46 0 0-23 24 0 0-46-24 0 0-24-46 0 0 24-23 0 0 46 23 0 0 23m186 0l47 0 0-23 23 0 0-46-23 0 0-24-47 0 0 24-23 0 0 46 23 0z"/>
<glyph glyph-name="chart-bar-svgrepo-com" unicode="&#57442;" d="M47 465l46 0 0-372 372 0 0-46-418 0 0 418m93-325l0 186 93 0 0-186-93 0m116 0l0 279 93 0 0-279-93 0m116 0l0 116 93 0 0-116z"/>
<glyph glyph-name="chat-svgrepo-com" unicode="&#57443;" d="M163 419l209 0 0-23 47 0 0-24 23 0 0-23 23 0 0-23 24 0 0-140-24 0 0-23-23 0 0-23-23 0 0-24-47 0 0-23-186 0 0-23-93 0 0-23-70 0 0 46 47 0 0 23 23 0 0 47-23 0 0 23-23 0 0 140 23 0 0 23 23 0 0 23 23 0 0 24 47 0 0 23m233-93l0 23-47 0 0 23-163 0 0-23-46 0 0-23-24 0 0-23-23 0 0-94 23 0 0-23 24 0 0-23 46 0 0-23 163 0 0 23 47 0 0 23 23 0 0 23 23 0 0 94-23 0 0 23z"/>
<glyph glyph-name="check-svgrepo-com" unicode="&#57444;" d="M93 256l47 0 0-23 23 0 0-24 23 0 0-23 47 0 0 23 23 0 0 24 23 0 0 23 24 0 0 23 23 0 0 24 23 0 0 23 23 0 0 23 24 0 0 23 46 0 0-46-23 0 0-23-23 0 0-24-24 0 0-23-23 0 0-23-23 0 0-24-23 0 0-23-24 0 0-23-23 0 0-23-23 0 0-24-47 0 0 24-23 0 0 23-23 0 0 23-24 0 0 23-23 0z"/>
<glyph glyph-name="checkbox-blank-svgrepo-com" unicode="&#57445;" d="M70 419l23 0 0 23 326 0 0-23 23 0 0-326-23 0 0-23-326 0 0 23-23 0 0 326m46-303l280 0 0 280-280 0z"/>
<glyph glyph-name="checkbox-cross-svgrepo-com" unicode="&#57446;" d="M303 233l23 0 0-24 23 0 0-46-46 0 0 23-24 0 0 23-46 0 0-23-24 0 0-23-46 0 0 46 23 0 0 24 23 0 0 46-23 0 0 24-23 0 0 46 46 0 0-23 24 0 0-23 46 0 0 23 24 0 0 23 46 0 0-46-23 0 0-24-23 0 0-46m116-163l-326 0 0 23-23 0 0 326 23 0 0 23 326 0 0-23 23 0 0-326-23 0 0-23m-303 326l0-280 280 0 0 280z"/>
<glyph glyph-name="checkbox-marked-svgrepo-com" unicode="&#57447;" d="M70 419l23 0 0 23 326 0 0-23-23 0 0-23-280 0 0-280 280 0 0 140 23 0 0 23 23 0 0-186-23 0 0-23-326 0 0 23-23 0 0 326m70-116l46 0 0-24 23 0 0-23 24 0 0-23 46 0 0 23 24 0 0 23 23 0 0 24 23 0 0 23 23 0 0 23 24 0 0 23 23 0 0 24 23 0 0 23 47 0 0-47-24 0 0-23-23 0 0-23-23 0 0-23-23 0 0-24-24 0 0-23-23 0 0-23-23 0 0-24-23 0 0-23-24 0 0-23-46 0 0 23-24 0 0 23-23 0 0 24-23 0 0 23-23 0z"/>
<glyph glyph-name="chevron-down-svgrepo-com" unicode="&#57448;" d="M372 279l24 0 0 24 23 0 0 46-47 0 0-23-23 0 0-23-23 0 0-24-23 0 0-23-24 0 0-23-46 0 0 23-24 0 0 23-23 0 0 24-23 0 0 23-23 0 0 23-47 0 0-46 23 0 0-24 24 0 0-23 23 0 0-23 23 0 0-24 23 0 0-23 24 0 0-23 46 0 0 23 24 0 0 23 23 0 0 24 23 0 0 23 23 0"/>
<glyph glyph-name="chevron-left-circle-svgrepo-com" unicode="&#57449;" d="M303 140l-47 0 0 23-23 0 0 23-24 0 0 23-23 0 0 24-23 0 0 46 23 0 0 24 23 0 0 23 24 0 0 23 23 0 0 23 47 0 0-46-24 0 0-23-23 0 0-24-23 0 0-46 23 0 0-24 23 0 0-23 24 0 0-46m46 349l0-24 47 0 0-23 23 0 0-23 23 0 0-23 23 0 0-47 24 0 0-186-24 0 0-47-23 0 0-23-23 0 0-23-23 0 0-23-47 0 0-24-186 0 0 24-47 0 0 23-23 0 0 23-23 0 0 23-23 0 0 47-24 0 0 186 24 0 0 47 23 0 0 23 23 0 0 23 23 0 0 23 47 0 0 24 186 0m-23-47l-140 0 0-23-46 0 0-23-24 0 0-24-23 0 0-46-23 0 0-140 23 0 0-46 23 0 0-24 24 0 0-23 46 0 0-23 140 0 0 23 46 0 0 23 24 0 0 24 23 0 0 46 23 0 0 140-23 0 0 46-23 0 0 24-24 0 0 23-46 0z"/>
<glyph glyph-name="chevron-left-svgrepo-com" unicode="&#57450;" d="M279 140l0-24 24 0 0-23 46 0 0 47-23 0 0 23-23 0 0 23-24 0 0 23-23 0 0 24-23 0 0 46 23 0 0 24 23 0 0 23 24 0 0 23 23 0 0 23 23 0 0 47-46 0 0-23-24 0 0-24-23 0 0-23-23 0 0-23-24 0 0-23-23 0 0-24-23 0 0-46 23 0 0-24 23 0 0-23 24 0 0-23 23 0 0-23"/>
<glyph glyph-name="chevron-right-circle-svgrepo-com" unicode="&#57451;" d="M209 140l47 0 0 23 23 0 0 23 24 0 0 23 23 0 0 24 23 0 0 46-23 0 0 24-23 0 0 23-24 0 0 23-23 0 0 23-47 0 0-46 24 0 0-23 23 0 0-24 23 0 0-46-23 0 0-24-23 0 0-23-24 0 0-46m140 349l0-24 47 0 0-23 23 0 0-23 23 0 0-23 23 0 0-47 24 0 0-186-24 0 0-47-23 0 0-23-23 0 0-23-23 0 0-23-47 0 0-24-186 0 0 24-47 0 0 23-23 0 0 23-23 0 0 23-23 0 0 47-24 0 0 186 24 0 0 47 23 0 0 23 23 0 0 23 23 0 0 23 47 0 0 24 186 0m-23-47l-140 0 0-23-46 0 0-23-24 0 0-24-23 0 0-46-23 0 0-140 23 0 0-46 23 0 0-24 24 0 0-23 46 0 0-23 140 0 0 23 46 0 0 23 24 0 0 24 23 0 0 46 23 0 0 140-23 0 0 46-23 0 0 24-24 0 0 23-46 0z"/>
<glyph glyph-name="chevron-right-svgrepo-com" unicode="&#57452;" d="M233 372l0 24-24 0 0 23-46 0 0-47 23 0 0-23 23 0 0-23 24 0 0-23 23 0 0-24 23 0 0-46-23 0 0-24-23 0 0-23-24 0 0-23-23 0 0-23-23 0 0-47 46 0 0 23 24 0 0 24 23 0 0 23 23 0 0 23 24 0 0 23 23 0 0 24 23 0 0 46-23 0 0 24-23 0 0 23-24 0 0 23-23 0 0 23"/>
<glyph glyph-name="chevron-up-circle-svgrepo-com" unicode="&#57453;" d="M140 209l0 47 23 0 0 23 23 0 0 24 23 0 0 23 24 0 0 23 46 0 0-23 24 0 0-23 23 0 0-24 23 0 0-23 23 0 0-47-46 0 0 24-23 0 0 23-24 0 0 23-46 0 0-23-24 0 0-23-23 0 0-24-46 0m209 280l0-24 47 0 0-23 23 0 0-23 23 0 0-23 23 0 0-47 24 0 0-186-24 0 0-47-23 0 0-23-23 0 0-23-23 0 0-23-47 0 0-24-186 0 0 24-47 0 0 23-23 0 0 23-23 0 0 23-23 0 0 47-24 0 0 186 24 0 0 47 23 0 0 23 23 0 0 23 23 0 0 23 47 0 0 24 186 0m-23-47l-140 0 0-23-46 0 0-23-24 0 0-24-23 0 0-46-23 0 0-140 23 0 0-46 23 0 0-24 24 0 0-23 46 0 0-23 140 0 0 23 46 0 0 23 24 0 0 24 23 0 0 46 23 0 0 140-23 0 0 46-23 0 0 24-24 0 0 23-46 0z"/>
<glyph glyph-name="chevron-up-svgrepo-com" unicode="&#57454;" d="M140 233l-24 0 0-24-23 0 0-46 47 0 0 23 23 0 0 23 23 0 0 24 23 0 0 23 24 0 0 23 46 0 0-23 24 0 0-23 23 0 0-24 23 0 0-23 23 0 0-23 47 0 0 46-23 0 0 24-24 0 0 23-23 0 0 23-23 0 0 24-23 0 0 23-24 0 0 23-46 0 0-23-24 0 0-23-23 0 0-24-23 0 0-23-23 0"/>
<glyph glyph-name="circle-svgrepo-com" unicode="&#57455;" d="M349 489l0-24 47 0 0-23 23 0 0-23 23 0 0-23 23 0 0-47 24 0 0-186-24 0 0-47-23 0 0-23-23 0 0-23-23 0 0-23-47 0 0-24-186 0 0 24-47 0 0 23-23 0 0 23-23 0 0 23-23 0 0 47-24 0 0 186 24 0 0 47 23 0 0 23 23 0 0 23 23 0 0 23 47 0 0 24 186 0m-23-47l-140 0 0-23-46 0 0-23-24 0 0-24-23 0 0-46-23 0 0-140 23 0 0-46 23 0 0-24 24 0 0-23 46 0 0-23 140 0 0 23 46 0 0 23 24 0 0 24 23 0 0 46 23 0 0 140-23 0 0 46-23 0 0 24-24 0 0 23-46 0z"/>
<glyph glyph-name="clipboard-svgrepo-com" unicode="&#57456;" d="M47 396l23 0 0 23 93 0 0 46 46 0 0 24 94 0 0-24 46 0 0-46 93 0 0-23 23 0 0-349-23 0 0-24-372 0 0 24-23 0 0 349m186 46l0-46 46 0 0 46-46 0m186-70l-47 0 0-46-232 0 0 46-47 0 0-302 326 0z"/>
<glyph glyph-name="clock-svgrepo-com" unicode="&#57457;" d="M233 396l46 0 0-140 24 0 0-23 23 0 0-24 23 0 0-46-46 0 0 23-24 0 0 23-23 0 0 24-23 0 0 163m116 93l0-24 47 0 0-23 23 0 0-23 23 0 0-23 23 0 0-47 24 0 0-186-24 0 0-47-23 0 0-23-23 0 0-23-23 0 0-23-47 0 0-24-186 0 0 24-47 0 0 23-23 0 0 23-23 0 0 23-23 0 0 47-24 0 0 186 24 0 0 47 23 0 0 23 23 0 0 23 23 0 0 23 47 0 0 24 186 0m-23-47l-140 0 0-23-46 0 0-23-24 0 0-24-23 0 0-46-23 0 0-140 23 0 0-46 23 0 0-24 24 0 0-23 46 0 0-23 140 0 0 23 46 0 0 23 24 0 0 24 23 0 0 46 23 0 0 140-23 0 0 46-23 0 0 24-24 0 0 23-46 0z"/>
<glyph glyph-name="coffee-svgrepo-com" unicode="&#57458;" d="M23 47l0 46 373 0 0-46-373 0m24 395l395 0 0-23 23 0 0-140-23 0 0-23-70 0 0-70-23 0 0-23-23 0 0-23-233 0 0 23-23 0 0 23-23 0 0 256m325-46l0-93 47 0 0 93-47 0m-279 0l0-187 23 0 0-23 187 0 0 23 23 0 0 187z"/>
<glyph glyph-name="comment-svgrepo-com" unicode="&#57459;" d="M47 465l418 0 0-23 24 0 0-326-24 0 0-23-186 0 0-23-23 0 0-23-23 0 0-24-93 0 0 70-93 0 0 23-24 0 0 326 24 0 0 23m23-46l0-279 116 0 0-70 23 0 0 23 24 0 0 23 23 0 0 24 186 0 0 279z"/>
<glyph glyph-name="comment-text-svgrepo-com" unicode="&#57460;" d="M47 465l418 0 0-23 24 0 0-326-24 0 0-23-186 0 0-23-23 0 0-23-23 0 0-24-93 0 0 70-93 0 0 23-24 0 0 326 24 0 0 23m23-46l0-279 116 0 0-70 23 0 0 23 24 0 0 23 23 0 0 24 186 0 0 279-372 0m46-70l280 0 0-46-280 0 0 46m0-93l233 0 0-47-233 0z"/>
<glyph glyph-name="compass-east-arrow-svgrepo-com" unicode="&#57461;" d="M140 279l0-46-24 0 0-24-23 0 0-23-23 0 0-23-23 0 0-23-47 0 0 46 23 0 0 23 24 0 0 24 23 0 0 46-23 0 0 24-24 0 0 23-23 0 0 46 47 0 0-23 23 0 0-23 23 0 0-23 23 0 0-24m117 93l139 0 0-46-93 0 0-47 93 0 0-46-93 0 0-47 93 0 0-46-139 0"/>
<glyph glyph-name="compass-north-arrow-svgrepo-com" unicode="&#57462;" d="M186 419l47 0 0-35 23 0 0-58 23 0 0 93 47 0 0-233-47 0 0 47-23 0 0 46-23 0 0-93-47 0m47-70l0 24 46 0 0-24 24 0 0-23 23 0 0-23 23 0 0-23 23 0 0-47-46 0 0 23-23 0 0 24-24 0 0 23-46 0 0-23-24 0 0-24-23 0 0-23-46 0 0 47 23 0 0 23 23 0 0 23 23 0 0 23"/>
<glyph glyph-name="compass-north-east-svgrepo-com" unicode="&#57463;" d="M93 372l47 0 0-35 23 0 0-58 23 0 0 93 47 0 0-232-47 0 0 46-23 0 0 47-23 0 0-93-47 0m186 232l140 0 0-46-93 0 0-47 93 0 0-46-93 0 0-47 93 0 0-46-140 0"/>
<glyph glyph-name="compass-north-west-svgrepo-com" unicode="&#57464;" d="M47 372l46 0 0-35 23 0 0-58 24 0 0 93 46 0 0-232-46 0 0 46-24 0 0 47-23 0 0-93-46 0m186 232l46 0 0-139 24 0 0-24 23 0 0 117 46 0 0-117 24 0 0 24 23 0 0 139 46 0 0-163-23 0 0-46-23 0 0-23-47 0 0 23-46 0 0-23-47 0 0 23-23 0 0 46-23 0"/>
<glyph glyph-name="compass-south-arrow-svgrepo-com" unicode="&#57465;" d="M233 372l46 0 0 24 24 0 0 23 23 0 0 23 23 0 0 23 23 0 0 47-46 0 0-23-23 0 0-24-24 0 0-23-46 0 0 23-24 0 0 24-23 0 0 23-46 0 0-47 23 0 0-23 23 0 0-23 23 0 0-23 24 0m-24-70l117 0 0-47-93 0 0-46 70 0 0-24 23 0 0-93-23 0 0-23-117 0 0 47 93 0 0 46-70 0 0 23-23 0 0 94 23 0"/>
<glyph glyph-name="compass-south-east-svgrepo-com" unicode="&#57466;" d="M116 372l117 0 0-46-93 0 0-47 69 0 0-23 24 0 0-93-24 0 0-23-116 0 0 46 93 0 0 47-70 0 0 23-23 0 0 93 23 0m163 23l140 0 0-46-93 0 0-47 93 0 0-46-93 0 0-47 93 0 0-46-140 0"/>
<glyph glyph-name="compass-south-west-svgrepo-com" unicode="&#57467;" d="M70 372l116 0 0-46-93 0 0-47 70 0 0-23 23 0 0-93-23 0 0-23-116 0 0 46 93 0 0 47-70 0 0 23-23 0 0 93 23 0m163 23l46 0 0-139 24 0 0-24 23 0 0 117 46 0 0-117 24 0 0 24 23 0 0 139 46 0 0-163-23 0 0-46-23 0 0-23-47 0 0 23-46 0 0-23-47 0 0 23-23 0 0 46-23 0"/>
<glyph glyph-name="compass-svgrepo-com" unicode="&#57468;" d="M349 489l0-24 47 0 0-23 23 0 0-23 23 0 0-23 23 0 0-47 24 0 0-186-24 0 0-47-23 0 0-23-23 0 0-23-23 0 0-23-47 0 0-24-186 0 0 24-47 0 0 23-23 0 0 23-23 0 0 23-23 0 0 47-24 0 0 186 24 0 0 47 23 0 0 23 23 0 0 23 23 0 0 23 47 0 0 24 186 0m-23-47l-140 0 0-23-46 0 0-23-24 0 0-24-23 0 0-46-23 0 0-140 23 0 0-46 23 0 0-24 24 0 0-23 46 0 0-23 140 0 0 23 46 0 0 23 24 0 0 24 23 0 0 46 23 0 0 140-23 0 0 46-23 0 0 24-24 0 0 23-46 0 0 23m-93-139l0 23 46 0 0 23 47 0 0 23 46 0 0-46-23 0 0-47-23 0 0-46-23 0 0-24-24 0 0-23-46 0 0-23-47 0 0-23-46 0 0 46 23 0 0 47 23 0 0 46 23 0 0 24 24 0m46-24l-46 0 0-46 46 0z"/>
<glyph glyph-name="compass-west-arrow-svgrepo-com" unicode="&#57469;" d="M93 372l47 0 0-139 23 0 0-24 23 0 0 117 47 0 0-117 23 0 0 24 23 0 0 139 47 0 0-163-23 0 0-46-24 0 0-23-46 0 0 23-47 0 0-23-46 0 0 23-24 0 0 46-23 0m279 70l0-46 24 0 0-24 23 0 0-23 23 0 0-23 23 0 0-23 47 0 0 46-23 0 0 23-24 0 0 24-23 0 0 46 23 0 0 24 24 0 0 23 23 0 0 46-47 0 0-23-23 0 0-23-23 0 0-23-23 0 0-24"/>
<glyph glyph-name="credit-card-svgrepo-com" unicode="&#57470;" d="M47 419l418 0 0-23 24 0 0-280-24 0 0-23-418 0 0 23-24 0 0 280 24 0 0 23m23-47l0-46 372 0 0 46-372 0m0-232l372 0 0 116-372 0z"/>
<glyph glyph-name="crown-svgrepo-com" unicode="&#57471;" d="M47 116l418 0 0-46-418 0 0 46m46 256l0-23 23 0 0-23 24 0 0 23 23 0 0 23 23 0 0 24 23 0 0 23 24 0 0 23 46 0 0-23 24 0 0-23 23 0 0-24 23 0 0-23 23 0 0-23 24 0 0 23 23 0 0 23 23 0 0 24 23 0 0-256-418 0 0 256 23 0 0-24 23 0m70-186l256 0 0 93-70 0 0 24-23 0 0 23-23 0 0 23-24 0 0 23-46 0 0-23-24 0 0-23-23 0 0-23-23 0 0-24-70 0 0-93z"/>
<glyph glyph-name="cube-unfolded-svgrepo-com" unicode="&#57472;" d="M279 442l0-116 233 0 0-163-116 0 0-116-163 0 0 116-233 0 0 163 116 0 0 116 163 0m-46-46l-70 0 0-70 70 0 0 70m-70-117l0-70 70 0 0 70-70 0m-47 0l-69 0 0-70 69 0 0 70m280 0l0-70 69 0 0 70-69 0m-47-116l-70 0 0-70 70 0 0 70m-70 116l0-70 70 0 0 70z"/>
<glyph glyph-name="database-svgrepo-com" unicode="&#57473;" d="M163 465l186 0 0-23 47 0 0-23 23 0 0-23 23 0 0-280-23 0 0-23-23 0 0-23-47 0 0-23-186 0 0 23-47 0 0 23-23 0 0 23-23 0 0 280 23 0 0 23 23 0 0 23 47 0 0 23m23-325l0 23-46 0 0 23-24 0 0-46 24 0 0-24 46 0 0-23 140 0 0 23 46 0 0 24 24 0 0 46-24 0 0-23-46 0 0-23-140 0m0 116l0 23-46 0 0 24-24 0 0-70 47 0 0-24 46 0 0-23 94 0 0 23 46 0 0 24 47 0 0 70-24 0 0-24-46 0 0-23-140 0m23 70l0-23 94 0 0 23 46 0 0 23 47 0 0 23-24 0 0 24-46 0 0 23-140 0 0-23-46 0 0-24-24 0 0-23 47 0 0-23z"/>
<glyph glyph-name="device-svgrepo-com" unicode="&#57474;" d="M47 489l418 0 0-24 22 0 0-418-22 0 0-24-418 0 0 24-22 0 0 418 22 0 0 24m23-47l0-372 372 0 0 372-372 0m23-23l326 0 0-186-326 0 0 186m23-233l70 0 0-70-70 0 0 70m163-23l47 0 0-47-47 0 0 47m70 23l47 0 0-46-47 0z"/>
<glyph glyph-name="diamond-svgrepo-com" unicode="&#57475;" d="M140 465l232 0 0-23 24 0 0-23 23 0 0-23 23 0 0-24 23 0 0-139-23 0 0-24-23 0 0-23-23 0 0-23-24 0 0-23-23 0 0-24-23 0 0-23-23 0 0-23-24 0 0-23-46 0 0 23-24 0 0 23-23 0 0 23-23 0 0 24-23 0 0 23-24 0 0 23-23 0 0 23-23 0 0 24-23 0 0 139 23 0 0 24 23 0 0 23 23 0 0 23 24 0 0 23m209-69l0 23-23 0 0-47 23 0 0-23 47 0 0 23-24 0 0 24-23 0m-70-24l0 47-46 0 0-47-24 0 0-23 94 0 0 23-24 0m-93 0l0 47-23 0 0-23-23 0 0-24-24 0 0-23 47 0 0 23 23 0m-93-116l23 0 0-23 24 0 0-24 23 0 0-23 23 0 0 47-23 0 0 70-70 0 0-47m140-23l0-93 46 0 0 93 24 0 0 70-94 0 0-70 24 0m93 0l0-47 23 0 0 23 23 0 0 24 24 0 0 23 23 0 0 47-70 0 0-70z"/>
<glyph glyph-name="division-svgrepo-com" unicode="&#57476;" d="M279 326l-46 0 0 23-24 0 0 47 24 0 0 23 46 0 0-23 24 0 0-47-24 0z m117-93l-280 0 0 46 280 0z m-117-140l-46 0 0 23-24 0 0 47 24 0 0 23 46 0 0-23 24 0 0-47-24 0z"/>
<glyph glyph-name="door-box-svgrepo-com" unicode="&#57477;" d="M303 186l-47 0 0 47 47 0z m69-93l24 0 0 23 23 0 0 280-23 0 0 23-280 0 0-23-23 0 0-280 23 0 0-23 24 0 0 279 232 0z m47-46l-326 0 0 23-23 0 0 23-23 0 0 326 23 0 0 23 23 0 0 23 326 0 0-23 23 0 0-23 23 0 0-326-23 0 0-23-23 0z m-93 46l0 233-140 0 0-233z"/>
<glyph glyph-name="door-open-svgrepo-com" unicode="&#57478;" d="M233 279l0-46-24 0 0 46 24 0m-93 186l232 0 0-23 24 0 0-349 46 0 0-46-372 0 0 46 46 0 0 349 24 0 0 23m23-46l0-326 93 0 0 326-93 0m140 0l0-23 23 0 0 23-23 0m23-23l0-24 23 0 0 24-23 0m0-24l-23 0 0-23 23 0 0 23m0-23l0-23 23 0 0 23-23 0m0-23l-23 0 0-23 23 0 0 23m0-23l0-24 23 0 0 24-23 0m0-24l-23 0 0-23 23 0 0 23m0-23l0-23 23 0 0 23-23 0m0-23l-23 0 0-24 23 0 0 24m0-24l0-23 23 0 0 23-23 0m0-23l-23 0 0-23 23 0 0 23m0-23l0-23 23 0 0 23-23 0m0-23l-23 0 0-24 23 0 0 24m0-24l0-23 23 0 0 23z"/>
<glyph glyph-name="door-svgrepo-com" unicode="&#57479;" d="M279 279l47 0 0-46-47 0 0 46m93 186l0-23 24 0 0-349 46 0 0-46-372 0 0 46 46 0 0 349 24 0 0 23 232 0m-23-46l-186 0 0-326 186 0z"/>
<glyph glyph-name="download-svgrepo-com" unicode="&#57480;" d="M419 116l0-46-326 0 0 46 326 0m-93 349l0-139 93 0 0-23-23 0 0-24-24 0 0-23-23 0 0-23-23 0 0-24-23 0 0-23-24 0 0-23-46 0 0 23-24 0 0 23-23 0 0 24-23 0 0 23-23 0 0 23-24 0 0 24-23 0 0 23 93 0 0 139 140 0m-47-46l-46 0 0-140-24 0 0-23 24 0 0-23 46 0 0 23 24 0 0 23-24 0z"/>
<glyph glyph-name="email-svgrepo-com" unicode="&#57481;" d="M23 396l24 0 0 23 418 0 0-23 24 0 0-303-24 0 0-23-418 0 0 23-24 0 0 303m47-280l372 0 0 187-23 0 0-24-47 0 0-23-46 0 0-23-47 0 0-24-46 0 0 24-47 0 0 23-46 0 0 23-47 0 0 24-23 0 0-187m372 256l-372 0 0-23 46 0 0-23 47 0 0-23 46 0 0-24 94 0 0 24 46 0 0 23 47 0 0 23 46 0z"/>
<glyph glyph-name="file-svgrepo-com" unicode="&#57482;" d="M303 489l0-24 23 0 0-23 23 0 0-23 23 0 0-23 24 0 0-24 23 0 0-23 23 0 0-302-23 0 0-24-326 0 0 24-23 0 0 418 23 0 0 24 210 0m0-70l-24 0 0-93 93 0 0 23-23 0 0 23-23 0 0 24-23 0 0 23m-187 23l0-372 280 0 0 209-140 0 0 24-23 0 0 139z"/>
<glyph glyph-name="fire-svgrepo-com" unicode="&#57483;" d="M326 47l-163 0 0 23-23 0 0 23-24 0 0 23-23 0 0 117 23 0 0 46 24 0 0 24 23 0 0 23 23 0 0-23 23 0 0-47 24 0 0 47 23 0 0 93-23 0 0 23-24 0 0 23-23 0 0 23 70 0 0-23 47 0 0-23 23 0 0-23 23 0 0-24 23 0 0-23 24 0 0-46 23 0 0-163-23 0 0-47-24 0 0-23-46 0m-47 23l0 23 47 0 0 24 23 0 0 46 23 0 0 93-23 0 0 47-23 0 0 23-23 0 0-93-24 0 0-47-23 0 0-23-23 0 0-23-24 0 0 23-23 0 0 70-23 0 0-23-23 0 0-93 23 0 0-24 23 0 0-23z"/>
<glyph glyph-name="flask-empty-svgrepo-com" unicode="&#57484;" d="M186 489l140 0 0-24 23 0 0-69-23 0 0-47 23 0 0-46 23 0 0-47 24 0 0-47 23 0 0-23 23 0 0-46 23 0 0-93-23 0 0-24-372 0 0 24-23 0 0 93 23 0 0 46 23 0 0 23 23 0 0 47 24 0 0 47 23 0 0 46 23 0 0 47-23 0 0 69 23 0 0 24m47-47l0-116-24 0 0-47-23 0 0-46-23 0 0-24-23 0 0-46-24 0 0-47-23 0 0-46 326 0 0 46-23 0 0 47-24 0 0 23-23 0 0 47-23 0 0 46-23 0 0 47-24 0 0 116z"/>
<glyph glyph-name="flask-round-bottom-empty-svgrepo-com" unicode="&#57485;" d="M209 489l94 0 0-47 23 0 0-116 23 0 0-23 23 0 0-24 24 0 0-23 23 0 0-140-23 0 0-23-24 0 0-23-23 0 0-23-23 0 0-24-140 0 0 24-23 0 0 23-23 0 0 23-24 0 0 23-23 0 0 140 23 0 0 23 24 0 0 24 23 0 0 23 23 0 0 116 23 0 0 47m24-93l0-93-24 0 0-24-23 0 0-23-23 0 0-23-23 0 0-93 23 0 0-24 23 0 0-23 23 0 0-23 94 0 0 23 23 0 0 23 23 0 0 24 23 0 0 93-23 0 0 23-23 0 0 23-23 0 0 24-24 0 0 93z"/>
<glyph glyph-name="flask-round-bottom-svgrepo-com" unicode="&#57486;" d="M256 256l47 0 0-47-47 0 0 47m47 233l0-47 23 0 0-116 23 0 0-23 23 0 0-24 24 0 0-23 23 0 0-140-23 0 0-23-24 0 0-23-23 0 0-23-23 0 0-24-140 0 0 24-23 0 0 23-23 0 0 23-24 0 0 23-23 0 0 140 23 0 0 23 24 0 0 24 23 0 0 23 23 0 0 116 23 0 0 47 94 0m-24-93l-46 0 0-93-24 0 0-24-23 0 0-23-23 0 0-23-23 0 0-47 23 0 0 23 46 0 0-23 24 0 0-23 23 0 0-23 47 0 0 23 23 0 0 23 23 0 0 23 23 0 0 24-23 0 0 23-23 0 0 23-23 0 0 24-24 0z"/>
<glyph glyph-name="flask-svgrepo-com" unicode="&#57487;" d="M256 233l47 0 0-47-47 0 0 47m70 256l0-24 23 0 0-69-23 0 0-47 23 0 0-46 23 0 0-47 24 0 0-47 23 0 0-23 23 0 0-46 23 0 0-93-23 0 0-24-372 0 0 24-23 0 0 93 23 0 0 46 23 0 0 23 23 0 0 47 24 0 0 47 23 0 0 46 23 0 0 47-23 0 0 69 23 0 0 24 140 0m-47-47l-46 0 0-116-24 0 0-47-23 0 0-46-23 0 0-24-23 0 0-46-24 0 0-47 24 0 0 24 23 0 0 23 23 0 0 23 23 0 0-23 24 0 0-23 23 0 0-24 23 0 0-23 47 0 0 23 23 0 0 47 23 0 0 23-23 0 0 47-23 0 0 46-23 0 0 47-24 0z"/>
<glyph glyph-name="floppy-disk-svgrepo-com" unicode="&#57488;" d="M47 442l23 0 0 23 302 0 0-23 24 0 0-23 23 0 0-23 23 0 0-24 23 0 0-302-23 0 0-23-372 0 0 23-23 0 0 372m372-93l-23 0 0 23-24 0 0 24-23 0 0-93-209 0 0 116-47 0 0-326 47 0 0 116 232 0 0-116 47 0 0 256m-163 70l0-70 47 0 0 70-47 0m70-326l0 70-140 0 0-70z"/>
<glyph glyph-name="folder-open-svgrepo-com" unicode="&#57489;" d="M23 419l24 0 0 23 162 0 0-23 24 0 0-23 232 0 0-24 24 0 0-279-24 0 0-23-418 0 0 23-24 0 0 326m47-116l372 0 0 46-233 0 0 23-23 0 0 24-116 0 0-93m0-187l372 0 0 140-372 0z"/>
<glyph glyph-name="folder-svgrepo-com" unicode="&#57490;" d="M47 442l162 0 0-23 24 0 0-23 232 0 0-24 24 0 0-279-24 0 0-23-418 0 0 23-24 0 0 326 24 0 0 23m23-93l0-233 372 0 0 233z"/>
<glyph glyph-name="gamepad-center-svgrepo-com" unicode="&#57491;" d="M326 489l0-24 23 0 0-116 116 0 0-23 24 0 0-140-24 0 0-23-116 0 0-116-23 0 0-24-140 0 0 24-23 0 0 116-116 0 0 23-24 0 0 140 24 0 0 23 116 0 0 116 23 0 0 24 140 0m-23-163l-94 0 0-23-23 0 0-94 23 0 0-23 94 0 0 23 23 0 0 94-23 0z"/>
<glyph glyph-name="gamepad-down-left-svgrepo-com" unicode="&#57492;" d="M326 489l0-24 23 0 0-116 116 0 0-23 24 0 0-140-24 0 0-23-116 0 0-116-23 0 0-24-140 0 0 24-23 0 0 116-116 0 0 23-24 0 0 140 24 0 0 23 116 0 0 116 23 0 0 24 140 0m-163-186l-93 0 0-94 93 0 0 94m46-140l0-93 94 0 0 93z"/>
<glyph glyph-name="gamepad-down-right-svgrepo-com" unicode="&#57493;" d="M326 489l0-24 23 0 0-116 116 0 0-23 24 0 0-140-24 0 0-23-116 0 0-116-23 0 0-24-140 0 0 24-23 0 0 116-116 0 0 23-24 0 0 140 24 0 0 23 116 0 0 116 23 0 0 24 140 0m116-186l-93 0 0-94 93 0 0 94m-233-140l0-93 94 0 0 93z"/>
<glyph glyph-name="gamepad-down-svgrepo-com" unicode="&#57494;" d="M326 489l0-24 23 0 0-116 116 0 0-23 24 0 0-140-24 0 0-23-116 0 0-116-23 0 0-24-140 0 0 24-23 0 0 116-116 0 0 23-24 0 0 140 24 0 0 23 116 0 0 116 23 0 0 24 140 0m-23-326l-94 0 0-93 94 0z"/>
<glyph glyph-name="gamepad-empty-svgrepo-com" unicode="&#57495;" d="M326 489l0-24 23 0 0-116 116 0 0-23 24 0 0-140-24 0 0-23-116 0 0-116-23 0 0-24-140 0 0 24-23 0 0 116-116 0 0 23-24 0 0 140 24 0 0 23 116 0 0 116 23 0 0 24 140 0m-23-47l-94 0 0-139-139 0 0-94 139 0 0-139 94 0 0 139 139 0 0 94-139 0z"/>
<glyph glyph-name="gamepad-left-svgrepo-com" unicode="&#57496;" d="M326 489l0-24 23 0 0-116 116 0 0-23 24 0 0-140-24 0 0-23-116 0 0-116-23 0 0-24-140 0 0 24-23 0 0 116-116 0 0 23-24 0 0 140 24 0 0 23 116 0 0 116 23 0 0 24 140 0m-163-186l-93 0 0-94 93 0z"/>
<glyph glyph-name="gamepad-right-svgrepo-com" unicode="&#57497;" d="M326 489l0-24 23 0 0-116 116 0 0-23 24 0 0-140-24 0 0-23-116 0 0-116-23 0 0-24-140 0 0 24-23 0 0 116-116 0 0 23-24 0 0 140 24 0 0 23 116 0 0 116 23 0 0 24 140 0m116-186l-93 0 0-94 93 0z"/>
<glyph glyph-name="gamepad-up-left-svgrepo-com" unicode="&#57498;" d="M326 489l0-24 23 0 0-116 116 0 0-23 24 0 0-140-24 0 0-23-116 0 0-116-23 0 0-24-140 0 0 24-23 0 0 116-116 0 0 23-24 0 0 140 24 0 0 23 116 0 0 116 23 0 0 24 140 0m-163-186l-93 0 0-94 93 0 0 94m46 139l0-93 94 0 0 93z"/>
<glyph glyph-name="gamepad-up-right-svgrepo-com" unicode="&#57499;" d="M326 489l0-24 23 0 0-116 116 0 0-23 24 0 0-140-24 0 0-23-116 0 0-116-23 0 0-24-140 0 0 24-23 0 0 116-116 0 0 23-24 0 0 140 24 0 0 23 116 0 0 116 23 0 0 24 140 0m116-186l-93 0 0-94 93 0 0 94m-233 139l0-93 94 0 0 93z"/>
<glyph glyph-name="gamepad-up-svgrepo-com" unicode="&#57500;" d="M326 489l0-24 23 0 0-116 116 0 0-23 24 0 0-140-24 0 0-23-116 0 0-116-23 0 0-24-140 0 0 24-23 0 0 116-116 0 0 23-24 0 0 140 24 0 0 23 116 0 0 116 23 0 0 24 140 0m-23-47l-94 0 0-93 94 0z"/>
<glyph glyph-name="heart-svgrepo-com" unicode="&#57501;" d="M279 47l-46 0 0 23-24 0 0 23-23 0 0 23-23 0 0 24-23 0 0 23-24 0 0 23-23 0 0 23-23 0 0 24-23 0 0 46-24 0 0 117 24 0 0 23 23 0 0 23 23 0 0 23 116 0 0-23 24 0 0-23 46 0 0 23 24 0 0 23 116 0 0-23 23 0 0-23 23 0 0-23 24 0 0-117-24 0 0-46-23 0 0-24-23 0 0-23-23 0 0-23-24 0 0-23-23 0 0-24-23 0 0-23-23 0 0-23-24 0 0-23m-163 209l0-23 24 0 0-24 23 0 0-23 23 0 0-23 23 0 0-23 24 0 0-24 46 0 0 24 24 0 0 23 23 0 0 23 23 0 0 23 23 0 0 24 24 0 0 23 23 0 0 47 23 0 0 69-23 0 0 24-23 0 0 23-70 0 0-23-23 0 0-24-24 0 0-23-46 0 0 23-24 0 0 24-23 0 0 23-70 0 0-23-23 0 0-24-23 0 0-69 23 0 0-47z"/>
<glyph glyph-name="image-svgrepo-com" unicode="&#57502;" d="M23 419l24 0 0 23 418 0 0-23 24 0 0-326-24 0 0-23-418 0 0 23-24 0 0 326m47-233l23 0 0 23 23 0 0 24 24 0 0 23 23 0 0 23 23 0 0 24 47 0 0-24 23 0 0-23 23 0 0-23 24 0 0-24 23 0 0-23 23 0 0-23 23 0 0-23 24 0 0-24 46 0 0 280-372 0 0-210m256-70l0 24-23 0 0 23-24 0 0 23-23 0 0 23-23 0 0 24-47 0 0-24-23 0 0-23-23 0 0-23-24 0 0-23-23 0 0-24 233 0m-23 210l23 0 0 23 46 0 0-23 24 0 0-47-24 0 0-23-46 0 0 23-23 0z"/>
<glyph glyph-name="label-svgrepo-com" unicode="&#57503;" d="M47 419l302 0 0-23 23 0 0-24 24 0 0-23 23 0 0-23 23 0 0-23 23 0 0-24 24 0 0-46-24 0 0-24-23 0 0-23-23 0 0-23-23 0 0-23-24 0 0-24-23 0 0-23-302 0 0 23-24 0 0 280 24 0 0 23m325-210l24 0 0 24 23 0 0 46-23 0 0 24-24 0 0 23-23 0 0 23-23 0 0 23-256 0 0-232 256 0 0 23 23 0 0 23 23 0z"/>
<glyph glyph-name="label-variant-svgrepo-com" unicode="&#57504;" d="M349 419l0-23 23 0 0-24 24 0 0-23 23 0 0-23 23 0 0-23 23 0 0-24 24 0 0-46-24 0 0-24-23 0 0-23-23 0 0-23-23 0 0-23-24 0 0-24-23 0 0-23-302 0 0 47 23 0 0 23 23 0 0 23 23 0 0 23 24 0 0 24 23 0 0 46-23 0 0 24-24 0 0 23-23 0 0 23-23 0 0 23-23 0 0 47 302 0m-23-279l0 23 23 0 0 23 23 0 0 23 24 0 0 24 23 0 0 46-23 0 0 24-24 0 0 23-23 0 0 23-23 0 0 23-186 0 0-23 23 0 0-23 23 0 0-23 23 0 0-24 24 0 0-46-24 0 0-24-23 0 0-23-23 0 0-23-23 0 0-23z"/>
<glyph glyph-name="led-svgrepo-com" unicode="&#57505;" d="M186 23l0 140-93 0 0 46 47 0 0 163 23 0 0 47 23 0 0 23 23 0 0 23 94 0 0-23 23 0 0-23 23 0 0-47 23 0 0-163 47 0 0-46-93 0 0-140-47 0 0 140-46 0 0-140-47 0m93 373l0 23-46 0 0-23-24 0 0-47-23 0 0-140 23 0 0 24 94 0 0-24 23 0 0 140-23 0 0 47z"/>
<glyph glyph-name="lightbulb-svgrepo-com" unicode="&#57506;" d="M186 70l140 0 0-47-140 0 0 47m0 23l0 93-23 0 0 23-23 0 0 24-24 0 0 23-23 0 0 140 23 0 0 23 24 0 0 23 23 0 0 23 23 0 0 24 140 0 0-24 23 0 0-23 23 0 0-23 24 0 0-23 23 0 0-140-23 0 0-23-24 0 0-24-23 0 0-23-23 0 0-93-140 0m117 140l23 0 0 23 23 0 0 23 23 0 0 93-23 0 0 24-23 0 0 23-23 0 0 23-94 0 0-23-23 0 0-23-23 0 0-24-23 0 0-93 23 0 0-23 23 0 0-23 23 0 0-24 24 0 0-69 46 0 0 69 24 0z"/>
<glyph glyph-name="lock-open-svgrepo-com" unicode="&#57507;" d="M233 209l46 0 0-23 24 0 0-46-24 0 0-24-46 0 0 24-24 0 0 46 24 0 0 23m93 256l0-23 23 0 0-23 23 0 0-116 24 0 0-24 23 0 0-232-23 0 0-24-280 0 0 24-23 0 0 232 23 0 0 24 210 0 0 93-23 0 0 23-94 0 0-23-23 0 0-47-46 0 0 70 23 0 0 23 23 0 0 23 140 0m46-209l-232 0 0-186 232 0z"/>
<glyph glyph-name="lock-svgrepo-com" unicode="&#57508;" d="M233 233l46 0 0-24 24 0 0-46-24 0 0-23-46 0 0 23-24 0 0 46 24 0 0 24m-47 232l140 0 0-23 23 0 0-23 23 0 0-93 24 0 0-23 23 0 0-233-23 0 0-23-280 0 0 23-23 0 0 233 23 0 0 23 24 0 0 93 23 0 0 23 23 0 0 23m23-46l0-23-23 0 0-70 140 0 0 70-23 0 0 23-94 0m163-140l-232 0 0-186 232 0z"/>
<glyph glyph-name="login-svgrepo-com" unicode="&#57509;" d="M116 489l280 0 0-24 23 0 0-418-23 0 0-24-280 0 0 24-23 0 0 139 47 0 0-116 232 0 0 372-232 0 0-116-47 0 0 139 23 0 0 24m70-117l47 0 0-23 23 0 0-23 23 0 0-23 24 0 0-24 23 0 0-46-23 0 0-24-24 0 0-23-23 0 0-23-23 0 0-23-47 0 0 46 23 0 0 23 24 0 0 24-186 0 0 46 186 0 0 24-24 0 0 23-23 0z"/>
<glyph glyph-name="logout-svgrepo-com" unicode="&#57510;" d="M396 489l0-24 23 0 0-93-23 0 0 24-24 0 0 46-232 0 0-372 232 0 0 46 24 0 0 24 23 0 0-93-23 0 0-24-280 0 0 24-23 0 0 418 23 0 0 24 280 0m-93-117l46 0 0-23 23 0 0-23 24 0 0-23 23 0 0-24 23 0 0-46-23 0 0-24-23 0 0-23-24 0 0-23-23 0 0-23-46 0 0 46 23 0 0 23 23 0 0 24-163 0 0 46 163 0 0 24-23 0 0 23-23 0z"/>
<glyph glyph-name="map-svgrepo-com" unicode="&#57511;" d="M47 419l46 0 0 23 47 0 0 23 93 0 0-23 70 0 0-23 46 0 0 23 47 0 0 23 69 0 0-372-46 0 0-23-47 0 0-23-93 0 0 23-70 0 0 23-46 0 0-23-47 0 0-23-69 0 0 372m46-47l0-256 47 0 0 24 23 0 0 256-47 0 0-24-23 0m186 24l-70 0 0-256 24 0 0-24 70 0 0 256-24 0 0 24m93-24l-23 0 0-256 47 0 0 24 23 0 0 256-47 0z"/>
<glyph glyph-name="menu-bottom-left-svgrepo-com" unicode="&#57512;" d="M163 419l46 0 0-23 24 0 0-24 23 0 0-23 23 0 0-23 24 0 0-23 23 0 0-24 23 0 0-23 23 0 0-23 24 0 0-24 23 0 0-46-256 0 0 256m46-93l0-117 117 0 0 24-23 0 0 23-24 0 0 23-23 0 0 24-23 0 0 23z"/>
<glyph glyph-name="menu-bottom-right-svgrepo-com" unicode="&#57513;" d="M93 163l0 46 23 0 0 24 24 0 0 23 23 0 0 23 23 0 0 24 23 0 0 23 24 0 0 23 23 0 0 23 23 0 0 24 24 0 0 23 46 0 0-256-256 0m93 46l117 0 0 117-24 0 0-23-23 0 0-24-23 0 0-23-24 0 0-23-23 0z"/>
<glyph glyph-name="menu-down-fill-svgrepo-com" unicode="&#57514;" d="M396 303l0 23-280 0 0-23 24 0 0-24 23 0 0-23 23 0 0-23 23 0 0-24 24 0 0-23 46 0 0 23 24 0 0 24 23 0 0 23 23 0 0 23 23 0 0 24"/>
<glyph glyph-name="menu-left-fill-svgrepo-com" unicode="&#57515;" d="M303 116l23 0 0 280-23 0 0-24-24 0 0-23-23 0 0-23-23 0 0-23-24 0 0-24-23 0 0-46 23 0 0-24 24 0 0-23 23 0 0-23 23 0 0-23 24 0"/>
<glyph glyph-name="menu-left-right-svgrepo-com" unicode="&#57516;" d="M279 419l47 0 0-23 23 0 0-24 23 0 0-23 24 0 0-23 23 0 0-23 23 0 0-24 23 0 0-46-23 0 0-24-23 0 0-23-23 0 0-23-24 0 0-23-23 0 0-24-23 0 0-23-47 0 0 326m-46 0l0-326-47 0 0 23-23 0 0 24-23 0 0 23-24 0 0 23-23 0 0 23-23 0 0 24-23 0 0 46 23 0 0 24 23 0 0 23 23 0 0 23 24 0 0 23 23 0 0 24 23 0 0 23 47 0m93-93l0-140 23 0 0 23 23 0 0 24 24 0 0 46-24 0 0 24-23 0 0 23-23 0m-140 0l-23 0 0-23-23 0 0-24-24 0 0-46 24 0 0-24 23 0 0-23 23 0z"/>
<glyph glyph-name="menu-left-svgrepo-com" unicode="&#57517;" d="M349 419l0-326-46 0 0 23-24 0 0 24-23 0 0 23-23 0 0 23-24 0 0 23-23 0 0 24-23 0 0 46 23 0 0 24 23 0 0 23 24 0 0 23 23 0 0 23 23 0 0 24 24 0 0 23 46 0m-46-93l-24 0 0-23-23 0 0-24-23 0 0-46 23 0 0-24 23 0 0-23 24 0z"/>
<glyph glyph-name="menu-right-fill-svgrepo-com" unicode="&#57518;" d="M209 396l-23 0 0-280 23 0 0 24 24 0 0 23 23 0 0 23 23 0 0 23 24 0 0 24 23 0 0 46-23 0 0 24-24 0 0 23-23 0 0 23-23 0 0 23-24 0"/>
<glyph glyph-name="menu-right-svgrepo-com" unicode="&#57519;" d="M163 93l0 326 46 0 0-23 24 0 0-24 23 0 0-23 23 0 0-23 24 0 0-23 23 0 0-24 23 0 0-46-23 0 0-24-23 0 0-23-24 0 0-23-23 0 0-23-23 0 0-24-24 0 0-23-46 0m46 93l24 0 0 23 23 0 0 24 23 0 0 46-23 0 0 24-23 0 0 23-24 0z"/>
<glyph glyph-name="menu-top-right-svgrepo-com" unicode="&#57520;" d="M349 93l-46 0 0 23-24 0 0 24-23 0 0 23-23 0 0 23-24 0 0 23-23 0 0 24-23 0 0 23-23 0 0 23-24 0 0 24-23 0 0 46 256 0 0-256m-46 93l0 117-117 0 0-24 23 0 0-23 24 0 0-23 23 0 0-24 23 0 0-23z"/>
<glyph glyph-name="menu-up-down-svgrepo-com" unicode="&#57521;" d="M93 279l0 47 23 0 0 23 24 0 0 23 23 0 0 24 23 0 0 23 23 0 0 23 24 0 0 23 46 0 0-23 24 0 0-23 23 0 0-23 23 0 0-24 23 0 0-23 24 0 0-23 23 0 0-47-326 0m0-46l326 0 0-47-23 0 0-23-24 0 0-23-23 0 0-24-23 0 0-23-23 0 0-23-24 0 0-23-46 0 0 23-24 0 0 23-23 0 0 23-23 0 0 24-23 0 0 23-24 0 0 23-23 0 0 47m93 93l140 0 0 23-23 0 0 23-24 0 0 24-46 0 0-24-24 0 0-23-23 0 0-23m0-140l0-23 23 0 0-23 24 0 0-24 46 0 0 24 24 0 0 23 23 0 0 23z"/>
<glyph glyph-name="menu-up-fill-svgrepo-com" unicode="&#57522;" d="M116 209l0-23 280 0 0 23-24 0 0 24-23 0 0 23-23 0 0 23-23 0 0 24-24 0 0 23-46 0 0-23-24 0 0-24-23 0 0-23-23 0 0-23-23 0 0-24"/>
<glyph glyph-name="menu-up-svgrepo-com" unicode="&#57523;" d="M419 186l-326 0 0 47 23 0 0 23 24 0 0 23 23 0 0 24 23 0 0 23 23 0 0 23 24 0 0 23 46 0 0-23 24 0 0-23 23 0 0-23 23 0 0-24 23 0 0-23 24 0 0-23 23 0 0-47m-93 47l0 23-23 0 0 23-24 0 0 24-46 0 0-24-24 0 0-23-23 0 0-23z"/>
<glyph glyph-name="message-processing-svgrepo-com" unicode="&#57524;" d="M47 489l418 0 0-24 24 0 0-325-24 0 0-24-349 0 0-23-23 0 0-23-23 0 0-23-23 0 0-24-24 0 0 442 24 0 0 24m46-326l349 0 0 279-372 0 0-302 23 0 0 23m47 163l46 0 0-47-46 0 0 47m93 0l46 0 0-47-46 0 0 47m93 0l46 0 0-47-46 0z"/>
<glyph glyph-name="message-svgrepo-com" unicode="&#57525;" d="M47 489l418 0 0-24 24 0 0-325-24 0 0-24-349 0 0-23-23 0 0-23-23 0 0-23-23 0 0-24-24 0 0 442 24 0 0 24m23-47l0-302 23 0 0 23 349 0 0 279z"/>
<glyph glyph-name="message-text-svgrepo-com" unicode="&#57526;" d="M47 489l418 0 0-24 24 0 0-325-24 0 0-24-349 0 0-23-23 0 0-23-23 0 0-23-23 0 0-24-24 0 0 442 24 0 0 24m23-47l0-302 23 0 0 23 349 0 0 279-372 0m46-70l280 0 0-46-280 0 0 46m0-93l210 0 0-46-210 0z"/>
<glyph glyph-name="microphone-svgrepo-com" unicode="&#57527;" d="M233 23l0 70-47 0 0 23-46 0 0 24-24 0 0 23-23 0 0 46-23 0 0 94 46 0 0-70 24 0 0-47 23 0 0-23 46 0 0-23 94 0 0 23 46 0 0 23 23 0 0 47 24 0 0 70 46 0 0-94-23 0 0-46-23 0 0-23-24 0 0-24-46 0 0-23-47 0 0-70-46 0m-47 186l0 24-23 0 0 209 23 0 0 23 23 0 0 24 94 0 0-24 23 0 0-23 23 0 0-209-23 0 0-24-23 0 0-23-94 0 0 23-23 0m23 47l24 0 0-23 46 0 0 23 24 0 0 163-24 0 0 23-46 0 0-23-24 0z"/>
<glyph glyph-name="minus-box-fill-svgrepo-com" unicode="&#57528;" d="M419 47l-326 0 0 23-23 0 0 23-23 0 0 326 23 0 0 23 23 0 0 23 326 0 0-23 23 0 0-23 23 0 0-326-23 0 0-23-23 0z m-47 186l0 46-232 0 0-46z"/>
</font>
</defs>
</svg>
