<svg xmlns="http://www.w3.org/2000/svg" width="32" height="32" fill="none" viewBox="0 0 32 32">
  <g clip-path="url(#a)">
    <path fill="#000001" d="M30.48 4.575h-1.53v-1.53h-7.61v1.53h6.09v1.52h1.52v1.52h1.53v6.1H32v-7.62h-1.52v-1.52Zm0 9.14h-1.53v1.52h1.53v-1.52Zm-1.53 1.52h-1.52v1.53h1.52v-1.53Zm-1.52 1.53h-1.52v1.52h1.52v-1.52Zm-1.52 1.52h-1.53v1.52h1.53v-1.52Z"/>
    <path fill="#000001" d="M25.91 9.145h-1.53v-1.53h-1.52v1.53h-1.52v1.52h-1.53v1.53h-1.52v1.52h-1.53v1.52h-1.52v1.53h1.52v1.52h1.53v1.52h1.52v-1.52h1.53v-1.52h1.52v-1.53h1.52v-1.52h1.53v-1.52h1.52v-1.53h-1.52v-1.52Zm-1.53 10.66h-1.52v1.53h1.52v-1.53Zm-1.52 1.53h-1.52v1.52h1.52v-1.52Zm-1.52-16.76h-1.53v1.52h1.53v-1.52Zm0 18.28h-3.05v1.53h3.05v-1.53Z"/>
    <path fill="#000001" d="M19.81 6.095h-1.52v1.52h1.52v-1.52Zm-1.52 15.24h-1.53v1.52h1.53v-1.52Zm0-13.72h-1.53v1.53h1.53v-1.53Zm0 16.77h-3.05v1.52h3.05v-1.52Zm-1.53-4.58h-1.52v1.53h1.52v-1.53Zm0-10.66h-1.52v1.52h1.52v-1.52Zm-1.52 16.76h-1.52v1.52h1.52v-1.52Zm0-7.62h-1.52v1.52h1.52v-1.52Zm0-7.62h-1.52v1.53h1.52v-1.53Zm-1.52 13.72h-1.53v1.52h1.53v-1.52Zm0-7.62h-1.53v1.52h1.53v-1.52Zm0-4.57h-1.53v1.52h1.53v-1.52Zm-1.53 10.66h-1.52v1.53h1.52v-1.53Zm0-9.14h-1.52v3.05h1.52v-3.05Zm-4.57 12.19v-1.52H6.1v3.04h6.09v-1.52H7.62Zm3.05-4.57H9.15v1.52h1.52v-1.52Zm0-4.57H9.15v3.04h1.52v-3.04Zm-1.52 6.09H7.62v1.53h1.53v-1.53Zm0-3.05H7.62v1.53h1.53v-1.53Zm-3.05 7.62H0v1.53h6.1v-1.53Z"/>
  </g>
  <defs>
    <clipPath id="a">
      <path fill="#fff" d="M0 0h32v32H0z"/>
    </clipPath>
  </defs>
</svg>
