<svg xmlns="http://www.w3.org/2000/svg" width="32" height="32" fill="none" viewBox="0 0 32 32">
  <g clip-path="url(#a)">
    <path fill="#000001" d="M29.715 15.24h-1.53v1.52h1.53v-1.52Zm0-3.05h-1.53v1.52h1.53v-1.52Zm0-3.05h-1.53v1.52h1.53V9.14Zm0-3.05h-1.53v1.53h1.53V6.09Zm0-3.05h-1.53v1.53h1.53V3.04Zm0-3.04h-1.53v1.52h1.53V0Zm-3.05 13.71h-1.52v1.53h1.52v-1.53Zm0-3.05h-1.52v1.53h1.52v-1.53Zm0-3.04h-1.52v1.52h1.52V7.62Zm0-3.05h-1.52v1.52h1.52V4.57Zm0-3.05h-1.52v1.52h1.52V1.52Zm-3.05 10.67h-1.52v1.52h1.52v-1.52Zm0-3.05h-1.52v1.52h1.52V9.14Zm0-3.05h-1.52v1.53h1.52V6.09Zm0-3.05h-1.52v1.53h1.52V3.04ZM3.805 16.76v-1.52h-1.52V32h1.52V18.28h15.24v3.05h-7.62v1.52h6.1v1.53h-1.53v1.52h-1.52v1.53h-1.53v1.52h-1.52v1.52h7.62V32h1.52V15.24h-1.52v1.52H3.805Zm16.76-6.1h-1.52v1.53h1.52v-1.53Zm0-3.04h-1.52v1.52h1.52V7.62Zm0-3.05h-1.52v1.52h1.52V4.57Zm-1.52 9.14h-1.52v1.53h1.52v-1.53Zm-1.52-1.52h-1.53v1.52h1.53v-1.52Zm-4.58-7.62h-3.04v1.52h3.04V4.57Z"/>
    <path fill="#000001" d="M11.425 22.85h-1.52v6.1h1.52v-6.1Zm-1.52-12.19V6.09h-1.53v4.57h-1.52v1.53h9.14v-1.53h-1.52V9.14h3.05V7.62h-3.05V6.09h-1.53v4.57h-3.04Zm-3.05 1.53h-1.52v1.52h1.52v-1.52Zm-1.52 1.52h-1.53v1.53h1.53v-1.53Z"/>
  </g>
  <defs>
    <clipPath id="a">
      <path fill="#fff" d="M0 0h32v32H0z"/>
    </clipPath>
  </defs>
</svg>
