<svg xmlns="http://www.w3.org/2000/svg" width="32" height="32" fill="none" viewBox="0 0 32 32">
  <g clip-path="url(#a)">
    <path fill="#000001" d="M32 1.52h-1.52v3.05H32V1.52Zm-1.52 3.05h-1.53v1.52h1.53V4.57Zm0-4.57h-3.05v1.52h3.05V0Zm-1.53 6.09h-1.52v1.53h1.52V6.09Zm-1.52 1.53h-1.52v3.04h1.52V7.62Zm0-6.1h-1.52v1.53h1.52V1.52Zm-1.52 9.14h-1.53v1.53h1.53v-1.53Zm0-7.61h-1.53v1.52h1.53V3.05Zm-1.53 9.14h-1.52v1.52h1.52v-1.52Zm0-7.62h-3.04v1.52h3.04V4.57Zm-1.52 9.14h-1.52v1.53h1.52v-1.53Zm-1.52 1.53h-1.53v1.52h1.53v-1.52Zm0-9.15h-1.53v1.53h1.53V6.09Zm-1.53 10.67h-1.52v1.52h1.52v-1.52Zm0-9.14h-1.52v1.52h1.52V7.62Zm-1.52 10.66h-1.53v1.53h1.53v-1.53Zm0-9.14h-1.53v1.52h1.53V9.14Zm-1.53 1.52h-1.52v1.53h1.52v-1.53Zm-1.52 7.62h-1.52v-1.52h-1.53v-1.52h-1.52v1.52H9.15v1.52H4.57v1.53h6.1v1.52h1.52v6.1h1.53v-4.58h1.52v-1.52h1.52v-1.52h-1.52v-1.53Zm0-6.09h-1.52v1.52h1.52v-1.52Zm-1.52 1.52h-1.53v1.53h1.53v-1.53Zm-3.05 15.24h-6.1v1.52h7.62v-3.04h-1.52v1.52Z"/>
    <path fill="#000001" d="M6.1 21.33v4.57h4.57v-4.57H6.1Zm3.05 3.05H7.62v-1.53h1.53v1.53ZM6.1 25.9H4.57v1.53H6.1V25.9Zm-1.53 1.53H3.05v1.52h1.52v-1.52Z"/>
    <path fill="#000001" d="M3.05 28.95H1.53v-1.52H0V32h4.57v-1.53H3.05v-1.52Zm0-7.62h1.52v-1.52H1.53v7.62h1.52v-6.1Z"/>
  </g>
  <defs>
    <clipPath id="a">
      <path fill="#fff" d="M0 0h32v32H0z"/>
    </clipPath>
  </defs>
</svg>
