<svg xmlns="http://www.w3.org/2000/svg" width="32" height="32" fill="none" viewBox="0 0 32 32">
  <g clip-path="url(#a)">
    <path fill="#000001" d="M32 10.67h-1.52v1.52H32v-1.52Zm0-4.57h-1.52v1.52H32V6.1Zm-1.52 1.52h-1.53v1.53h1.53V7.62Zm0-3.05h-1.53V6.1h1.53V4.57Zm-3.05 12.19H4.57v-3.04H3.05v4.57h1.52v9.14H6.1v-1.52h3.05v4.57H7.62v-3.05H6.1V32h19.81v-4.57h-1.53v3.05h-1.52v-4.57h3.05v1.52h1.52v-9.14h1.52v-4.57h-1.52v3.04ZM9.15 24.38H6.1v-3.04h3.05v3.04Zm0-4.57H6.1v-1.52h3.05v1.52Zm4.57 10.67h-3.05v-4.57h3.05v4.57Zm0-6.1h-3.05v-3.04h3.05v3.04Zm0-4.57h-3.05v-1.52h3.05v1.52Zm7.62 10.67h-3.05v-4.57h3.05v4.57Zm0-6.1h-3.05v-3.04h3.05v3.04Zm0-4.57h-3.05v-1.52h3.05v1.52Zm4.57 4.57h-3.05v-3.04h3.05v3.04Zm0-4.57h-3.05v-1.52h3.05v1.52ZM28.95 6.1h-1.52v1.52h1.52V6.1Zm-3.04 1.52h-1.53v3.05h1.53V7.62ZM27.43 0h-3.05v1.53h-1.52v3.04h1.52V3.05h1.53V1.53h1.52V0Zm-3.05 6.1h-4.57v1.52h4.57V6.1Zm-4.57 1.52h-1.52v1.53h1.52V7.62Zm0-4.57h-1.52v1.52h1.52V3.05Zm-3.05 4.57h-1.52v1.53h1.52V7.62Zm-3.04 0h-1.53v1.53h1.53V7.62Zm-1.53-6.09h-1.52v1.52h1.52V1.53Zm0 4.57H7.62v1.52h4.57V6.1Z"/>
    <path fill="#000001" d="M24.38 12.19v-1.52h-1.52v1.52h-1.52v-1.52h1.52V9.15h-3.05v1.52h-1.52V9.15h-1.53v3.04h-1.52V9.15h-1.52v1.52h-1.53V9.15H9.15v1.52h1.52v1.52H9.15v-1.52H7.62v1.52H4.57v1.53h22.86v-1.53h-3.05Z"/>
    <path fill="#000001" d="M7.62 7.62H6.1v3.05h1.52V7.62Zm-3.05 0H3.05v1.53h1.52V7.62ZM3.05 0v1.53H1.53v1.52h1.52v1.52h1.52V3.05H6.1V1.53H4.57V0H3.05Zm0 9.15H1.53v1.52h1.52V9.15Zm0-3.05H1.53v1.52h1.52V6.1ZM1.53 7.62H0v1.53h1.53V7.62Z"/>
  </g>
  <defs>
    <clipPath id="a">
      <path fill="#fff" d="M0 0h32v32H0z"/>
    </clipPath>
  </defs>
</svg>
