<svg xmlns="http://www.w3.org/2000/svg" width="32" height="32" fill="none" viewBox="0 0 32 32">
  <path fill="#000001" d="M24.38 3.805h-1.52v9.15h1.52v-9.15Zm-1.52 22.86h-1.52v3.05h1.52v-3.05Zm0-13.71h-1.52v3.04h1.52v-3.04Zm-1.52 3.04h-1.53v1.53h1.53v-1.53Zm0 13.72H10.67v1.52h10.67v-1.52Z"/>
  <path fill="#000001" d="M12.19 17.525v1.52h3.05v6.1h-4.57v1.52h4.57v1.53h1.52v-1.53h4.58v-1.52h-4.58v-6.1h3.05v-1.52h-7.62Zm7.62-13.72v-1.52h1.53V.765h-4.58v1.52h-1.52v1.52h-1.52v1.53h-1.53v1.52h3.05v1.53h-1.52v1.52h-1.53v1.52h3.05v-1.52h1.52v-1.52h1.53v-1.53h1.52v-1.52h-1.52v-1.53h1.52Z"/>
  <path fill="#000001" d="M12.19 15.995h-1.52v1.53h1.52v-1.53Zm0-13.71H9.15v1.52h3.04v-1.52Zm-1.52 24.38H9.15v3.05h1.52v-3.05Zm0-13.71H9.15v3.04h1.52v-3.04Zm-1.52-9.15H7.62v9.15h1.53v-9.15Z"/>
</svg>
