<svg xmlns="http://www.w3.org/2000/svg" width="32" height="32" fill="none" viewBox="0 0 32 32">
  <g clip-path="url(#a)">
    <path fill="#000001" d="M30.48 22.86h-1.53v4.57h1.53v-1.52H32v-9.15h-1.52v6.1Z"/>
    <path fill="#000001" d="M30.48 15.24h-1.53v1.52h1.53v-1.52Zm-1.53 6.09h-4.57v1.53h4.57v-1.53Zm0 6.1h-4.57v1.52h4.57v-1.52Zm-1.52-3.05h-1.52v1.53h1.52v-1.53Zm-1.52-10.67h-3.05v-1.52h-1.52v-1.52h-3.05v1.52h-1.53v6.1h-3.04v-1.53h1.52v-1.52h-4.57v1.52h1.52v4.57h1.53v-1.52h4.57v-3.05h1.52v-1.52h9.14v-1.53h-1.52V6.1h-1.52v7.61Zm0-9.14h-1.53V6.1h1.53V4.57Zm-1.53 18.29h-1.52v1.52h-1.52v-3.05h-1.53v4.58h3.05v1.52h1.52v-4.57Zm-4.57 3.05h-1.52v1.52h1.52v-1.52Zm0-6.1h-1.52v1.52h1.52v-1.52Zm4.57-16.76h-9.14v1.52h9.14V3.05Zm-6.09 24.38h-4.57v1.52h4.57v-1.52Zm-1.53-4.57h-1.52v1.52h1.52v-1.52ZM15.24 4.57h-1.52V6.1h1.52V4.57Zm-1.52 21.34h-1.53v1.52h1.53v-1.52Zm0-19.81h-1.53v1.52h1.53V6.1Zm-1.53 15.23h-1.52v3.05H9.15v1.53h3.04v-4.58Zm0-13.71h-1.52v3.05h1.52V7.62Zm-1.52 3.05H9.15v3.04h1.52v-3.04Zm-1.52 3.04H7.62v7.62H6.1V4.57H3.05v13.72H0v1.52h3.05v4.57H0v1.53h4.57v-1.53H6.1v-1.52h1.52v1.52h1.53V13.71Z"/>
  </g>
  <defs>
    <clipPath id="a">
      <path fill="#fff" d="M0 0h32v32H0z"/>
    </clipPath>
  </defs>
</svg>
