<svg xmlns="http://www.w3.org/2000/svg" width="32" height="32" fill="none" viewBox="0 0 32 32">
  <g clip-path="url(#a)">
    <path fill="#000001" d="M28.185 12.19v1.53h3.05V6.1h-1.52v6.09h-1.53Zm1.53 7.62v6.1h1.52v-7.62h-3.05v1.52h1.53Zm0 6.1H2.285v1.52h27.43v-1.52Zm-1.53-12.19h-1.52v4.57h1.52v-4.57Zm-6.09 3.04h-3.05v1.53h-1.52v3.05h1.52v1.52h3.05v-1.52h1.52v-3.05h-1.52v-1.53Zm-1.52-6.09h-1.53v1.52h-1.52v1.53h-1.53v1.52h-1.52v1.52h-1.52v1.53h-1.53v1.52h-1.52v1.53h-1.52v1.52h3.04v-1.52h1.53v-1.53h1.52v-1.52h1.52v-1.53h1.53v-1.52h1.52v-1.52h1.53v-1.53h1.52v-1.52h1.52V9.15h-3.04v1.52Zm-10.67 4.57h3.05v-1.52h1.52v-3.05h-1.52V9.15h-3.05v1.52h-1.52v3.05h1.52v1.52Zm-4.57-1.52h-1.53v4.57h1.53v-4.57Zm24.38-9.15H2.285V6.1h27.43V4.57Zm-27.43 7.62V6.1H.765v7.62h3.04v-1.53h-1.52Zm0 7.62h1.52v-1.52H.765v7.62h1.52v-6.1Z"/>
  </g>
  <defs>
    <clipPath id="a">
      <path fill="#fff" d="M0 0h32v32H0z"/>
    </clipPath>
  </defs>
</svg>
