<svg width="24" height="24" viewBox="0 0 24 24" fill="none" xmlns="http://www.w3.org/2000/svg">
<path fill-rule="evenodd" clip-rule="evenodd" d="M15 17V13H9V17H15Z" fill="#D9D9D9"/>
<path fill-rule="evenodd" clip-rule="evenodd" d="M6 18C6 19.1046 6.89543 20 8 20H16C17.1046 20 18 19.1046 18 18V8C18 6.89543 17.1046 6 16 6H14H10H8C6.89543 6 6 6.89543 6 8V18ZM15 17V13H9V17H15Z" fill="#D9D9D9"/>
<path d="M14 6H16C17.1046 6 18 6.89543 18 8V18C18 19.1046 17.1046 20 16 20H8C6.89543 20 6 19.1046 6 18V8C6 6.89543 6.89543 6 8 6H10M14 6V5C14 3.89543 13.1046 3 12 3C10.8954 3 10 3.89543 10 5V6M14 6H10M15 13V17H9V13H15Z" stroke="black" stroke-width="2" stroke-linejoin="round"/>
</svg>
