<svg width="25" height="25" viewBox="0 0 25 25" fill="none" xmlns="http://www.w3.org/2000/svg">
<rect x="0.0649414" y="0.0649414" width="24" height="24" fill="white" fill-opacity="0.01"/>
<path d="M0.0649414 0.0649414H24.0649M0.0649414 0.0649414V24.0649M0.0649414 0.0649414L24.0649 24.0649M24.0649 0.0649414V24.0649M24.0649 0.0649414L0.0649414 24.0649M24.0649 24.0649H0.0649414" stroke="#DADEE4" stroke-width="0.13"/>
<circle cx="12.0649" cy="12.0649" r="10" stroke="#DADEE4" stroke-width="0.13"/>
<rect x="2.06494" y="4.06494" width="20" height="16" rx="1" stroke="#DADEE4" stroke-width="0.13"/>
<rect x="4.06494" y="2.06494" width="16" height="20" rx="1" stroke="#DADEE4" stroke-width="0.13"/>
<rect x="3.06494" y="3.06494" width="18" height="18" rx="1" stroke="#DADEE4" stroke-width="0.13"/>
<circle cx="12.0649" cy="12.0649" r="4" stroke="#DADEE4" stroke-width="0.13"/>
<path fill-rule="evenodd" clip-rule="evenodd" d="M10.5649 4.06494C9.84042 4.06494 9.23386 4.57962 9.09496 5.26387C8.9851 5.80512 8.45726 6.15482 7.91602 6.04495C7.37477 5.93509 7.02507 5.40726 7.13494 4.86601C7.45931 3.26802 8.87051 2.06494 10.5649 2.06494C12.4979 2.06494 14.0649 3.63194 14.0649 5.56494C14.0649 7.49794 12.4979 9.06494 10.5649 9.06494H5.06494C4.51266 9.06494 4.06494 8.61723 4.06494 8.06494C4.06494 7.51266 4.51266 7.06494 5.06494 7.06494H10.5649C11.3934 7.06494 12.0649 6.39337 12.0649 5.56494C12.0649 4.73651 11.3934 4.06494 10.5649 4.06494ZM18.5649 8.06494C17.8404 8.06494 17.2339 8.57962 17.095 9.26387C16.9851 9.80512 16.4573 10.1548 15.916 10.045C15.3748 9.93509 15.0251 9.40726 15.1349 8.86601C15.4593 7.26802 16.8705 6.06494 18.5649 6.06494C20.4979 6.06494 22.0649 7.63194 22.0649 9.56494C22.0649 11.4979 20.4979 13.0649 18.5649 13.0649H3.06494C2.51266 13.0649 2.06494 12.6172 2.06494 12.0649C2.06494 11.5127 2.51266 11.0649 3.06494 11.0649H18.5649C19.3934 11.0649 20.0649 10.3934 20.0649 9.56494C20.0649 8.73651 19.3934 8.06494 18.5649 8.06494ZM13.095 18.866C13.2339 19.5503 13.8404 20.0649 14.5649 20.0649C15.3934 20.0649 16.0649 19.3934 16.0649 18.5649C16.0649 17.7365 15.3934 17.0649 14.5649 17.0649H8.06494C7.51266 17.0649 7.06494 16.6172 7.06494 16.0649C7.06494 15.5127 7.51266 15.0649 8.06494 15.0649H14.5649C16.4979 15.0649 18.0649 16.6319 18.0649 18.5649C18.0649 20.4979 16.4979 22.0649 14.5649 22.0649C12.8705 22.0649 11.4593 20.8619 11.1349 19.2639C11.0251 18.7226 11.3748 18.1948 11.916 18.0849C12.4573 17.9751 12.9851 18.3248 13.095 18.866Z" fill="#09244B"/>
</svg>
