<svg width="24" height="24" viewBox="0 0 24 24" fill="none" xmlns="http://www.w3.org/2000/svg">
<g clip-path="url(#clip0_16_88)">
<path d="M5.76412 8.00004L5.46912 7.27004C5.4199 7.14824 5.39517 7.01794 5.39633 6.88658C5.39748 6.75522 5.42451 6.62538 5.47587 6.50447C5.52722 6.38356 5.6019 6.27395 5.69562 6.18191C5.78935 6.08986 5.90029 6.01719 6.02212 5.96804L15.2941 2.22204C15.5399 2.1229 15.8149 2.12535 16.0588 2.22885C16.3028 2.33235 16.4956 2.52843 16.5951 2.77404L22.2151 16.682C22.2643 16.8038 22.2891 16.9341 22.2879 17.0655C22.2867 17.1969 22.2597 17.3267 22.2084 17.4476C22.157 17.5685 22.0823 17.6781 21.9886 17.7702C21.8949 17.8622 21.7839 17.9349 21.6621 17.984L12.3901 21.73C12.2683 21.7793 12.138 21.804 12.0067 21.8028C11.8753 21.8017 11.7455 21.7746 11.6245 21.7233C11.5036 21.6719 11.394 21.5973 11.302 21.5035C11.2099 21.4098 11.1373 21.2989 11.0881 21.177L11.0001 20.96V21H7.00012C6.7349 21 6.48055 20.8947 6.29301 20.7071C6.10547 20.5196 6.00012 20.2653 6.00012 20V19.73L2.65012 18.377C2.40426 18.2776 2.20799 18.0845 2.10447 17.8404C2.00095 17.5962 1.99867 17.3209 2.09812 17.075L5.76412 8.00004ZM8.00012 19H10.2091L8.00012 13.533V19ZM6.00012 12.756L4.32712 16.897L6.00012 17.608V12.756ZM7.69812 7.44704L12.5681 19.501L19.9861 16.504L15.1161 4.45104L7.69812 7.44704ZM10.6761 9.48004C10.4301 9.57936 10.1548 9.5769 9.91059 9.47319C9.66641 9.36948 9.47344 9.17303 9.37412 8.92704C9.27479 8.68105 9.27726 8.40568 9.38096 8.16151C9.48467 7.91734 9.68113 7.72436 9.92712 7.62504C10.1731 7.52558 10.4485 7.52792 10.6928 7.63153C10.9371 7.73514 11.1302 7.93155 11.2296 8.17754C11.3291 8.42353 11.3267 8.69895 11.2231 8.94321C11.1195 9.18748 10.9231 9.38058 10.6771 9.48004H10.6761Z" fill="#09121F"/>
</g>
<defs>
<clipPath id="clip0_16_88">
<rect width="24" height="24" fill="white"/>
</clipPath>
</defs>
</svg>
