<svg xmlns="http://www.w3.org/2000/svg" width="32" height="32" fill="none" viewBox="0 0 32 32">
  <g clip-path="url(#a)">
    <path fill="#000001" d="M32 7.62h-1.53v7.62H32V7.62Zm-1.53-3.05h-1.52v3.05h1.52V4.57Zm-1.52-1.52h-1.52v1.52h1.52V3.05Zm-1.52 6.09H25.9v4.57h1.53V9.14Zm0-7.62h-3.05v1.53h3.05V1.52ZM9.14 27.43v1.52h1.53v-1.52h4.57v1.52h1.52v-1.52h7.62V25.9h1.52v-7.62h-1.52v4.57H1.52V9.14H0V25.9h1.52v1.53h7.62ZM25.9 7.62h-1.52v1.52h1.52V7.62Zm-1.52-1.53h-1.52v1.53h1.52V6.09Zm0-6.09h-7.62v1.52h7.62V0Zm-1.52 10.66h-1.53v3.05h1.53v-3.05Zm0-6.09h-4.58v1.52h4.58V4.57Zm-1.53 4.57h-3.05v1.52h3.05V9.14Zm0 4.57h-3.05v1.53h3.05v-1.53Z"/>
    <path fill="#000001" d="M18.28 10.66h-1.52v3.05h1.52v-3.05ZM9.14 30.47v-1.52H7.62V32h10.66v-3.05h-1.52v1.52H9.14Zm6.1-12.19h-1.53v1.53h1.53v-1.53Zm-1.53-3.04h-1.52v1.52h1.52v-1.52Zm0 4.57H7.62v1.52h6.09v-1.52Zm-4.57-4.57H7.62v1.52h1.52v-1.52Zm-1.52 3.04H6.09v1.53h1.53v-1.53Zm6.09-10.66H1.52v1.52h12.19V7.62Z"/>
  </g>
  <defs>
    <clipPath id="a">
      <path fill="#fff" d="M0 0h32v32H0z"/>
    </clipPath>
  </defs>
</svg>
