<svg xmlns="http://www.w3.org/2000/svg" width="32" height="32" fill="none" viewBox="0 0 32 32">
  <g clip-path="url(#a)">
    <path fill="#000001" d="M32 16.005h-1.53v6.09H32v-6.09Zm-1.53 6.09h-1.52v1.53h1.52v-1.53Zm0-7.62h-1.52v1.53h1.52v-1.53Zm-1.52 9.15h-1.52v1.52h1.52v-1.52Zm0-10.67h-1.52v1.52h1.52v-1.52Zm-1.52 12.19H3.05v1.52h24.38v-1.52Zm0-13.71h-3.05v1.52h3.05v-1.52Zm-3.05-1.53h-1.53v1.53h1.53v-1.53Zm-1.53 7.62h-1.52v1.52h1.52v-1.52Zm0-3.05h-1.52v1.53h1.52v-1.53Zm0-6.09h-1.52v1.52h1.52v-1.52Zm-1.52 7.62h-1.52v1.52h1.52v-1.52Zm-1.52 1.52h-1.53v1.52h1.53v-1.52Zm0-3.05h-1.53v1.53h1.53v-1.53Zm1.52-7.62h-3.05v1.53h3.05v-1.53Zm-7.62 15.24h3.05v1.53h3.05v-3.05h-6.1v1.52Z"/>
    <path fill="#000001" d="M18.28 5.335h-4.57v1.52h4.57v-1.52Zm-4.57 12.19h-1.52v1.52h1.52v-1.52Zm0-3.05h-1.52v1.53h1.52v-1.53Zm0-7.62h-3.05v1.53h3.05v-1.53Zm-1.52 9.15h-1.53v1.52h1.53v-1.52Zm-1.53 1.52H9.14v1.52h1.52v-1.52Zm0-3.05H9.14v1.53h1.52v-1.53Zm0-6.09H9.14v1.52h1.52v-1.52Zm-1.52 1.52H7.62v3.05h1.52v-3.05Zm-1.52 3.05H3.05v1.52h4.57v-1.52Zm-4.57 10.67H1.52v1.52h1.53v-1.52Zm0-9.15H1.52v1.53h1.53v-1.53Zm-1.53 1.53H0v7.62h1.52v-7.62Z"/>
  </g>
  <defs>
    <clipPath id="a">
      <path fill="#fff" d="M0 0h32v32H0z"/>
    </clipPath>
  </defs>
</svg>
