<svg xmlns="http://www.w3.org/2000/svg" width="32" height="32" fill="none" viewBox="0 0 32 32">
  <g clip-path="url(#a)">
    <path fill="#000001" d="M29.715 8.385h-7.62v1.52h-4.57v1.52h-3.05v1.53h-1.52v1.52h-1.53v3.05h-1.52v4.57h-1.52v7.62h-6.1v1.52h16.76v-1.52h-6.09v-7.62h1.52v-3.05h1.53v-1.52h1.52v-1.52h1.52v-1.53h3.05v-1.52h7.62v6.09h1.52V2.285h-1.52v6.1Z"/>
    <path fill="#000001" d="M29.715 19.045h-7.62v1.53h7.62v-1.53Zm0-18.28h-7.62v1.52h7.62V.765Zm-7.62 19.81h-1.52v1.52h1.52v-1.52Zm-1.52 1.52h-1.53v7.62h1.53v-7.62Zm1.52-19.81h-4.57v1.52h4.57v-1.52Zm-4.57 1.52h-4.57v1.53h4.57v-1.53Zm-4.57 1.53h-3.05v1.52h3.05v-1.52Zm-3.05 1.52h-1.52v1.53h1.52v-1.53Zm-1.52 1.53h-1.53v1.52h1.53v-1.52Z"/>
    <path fill="#000001" d="M6.855 9.905h-1.52v3.05h1.52v-3.05Zm-1.52 3.05h-1.52v4.57h1.52v-4.57Zm-1.52 4.57h-1.53v4.57h1.53v-4.57Zm-1.53 4.57H.765v7.62h1.52v-7.62Z"/>
  </g>
  <defs>
    <clipPath id="a">
      <path fill="#fff" d="M0 0h32v32H0z"/>
    </clipPath>
  </defs>
</svg>
