<svg xmlns="http://www.w3.org/2000/svg" width="32" height="32" fill="none" viewBox="0 0 32 32">
  <g clip-path="url(#a)">
    <path fill="#000001" d="M32 9.15h-1.53v1.52H32V9.15Zm0-4.58h-1.53V6.1H32V4.57ZM32 0h-1.53v1.53H32V0Zm-1.53 13.72h-1.52v1.52h1.52v-1.52Zm0-7.62h-1.52v1.52h1.52V6.1Zm0-4.57h-1.52v1.52h1.52V1.53Zm-1.52 13.71h-1.52v1.53h1.52v-1.53Zm0-7.62h-1.52v1.53h1.52V7.62Zm0-4.57h-1.52v1.52h1.52V3.05Zm-1.52 13.72H25.9v3.04h1.53v-3.04Zm0-6.1H25.9v1.52h1.53v-1.52Zm0-6.1H25.9V6.1h1.53V4.57Zm0-4.57H25.9v1.53h1.53V0ZM25.9 19.81h-1.52v3.05h1.52v-3.05Zm0-7.62h-1.52v1.53h1.52v-1.53Zm0-6.09h-1.52v1.52h1.52V6.1Zm0-4.57h-1.52v1.52h1.52V1.53Zm-1.52 21.33h-1.53v3.05h1.53v-3.05Zm0-19.81h-1.53v1.52h1.53V3.05Zm-1.53 12.19h-1.52v1.53h1.52v-1.53Zm0-6.09h-1.52v1.52h1.52V9.15Zm0-9.15h-1.52v1.53h1.52V0Zm0 25.91h-3.04v1.52h3.04v-1.52ZM21.33 4.57h-1.52V6.1h1.52V4.57Zm0-3.04h-1.52v1.52h1.52V1.53Zm-1.52 25.9h-1.53v1.53h1.53v-1.53Zm0-15.24h-1.53v1.53h1.53v-1.53Zm-1.53-4.57h-1.52v1.53h1.52V7.62Zm0-6.09h-1.52v1.52h1.52V1.53Zm0 27.43h-3.04v1.52h3.04v-1.52ZM16.76 9.15h-1.52v1.52h1.52V9.15Zm0-6.1h-3.05v1.52h3.05V3.05Zm-1.52 27.43h-6.1V32h6.1v-1.52ZM13.71 4.57h-1.52V6.1h1.52V4.57ZM12.19 6.1H9.14v1.52h3.05V6.1Zm3.05 21.33v-1.52h1.52v-1.53h1.52v-1.52h1.53v-6.09h-1.53v-1.53h-1.52v-1.52h-1.52v-1.53h-6.1v1.53H7.62v1.52H6.09v1.53H4.57v6.09h1.52v1.52h1.53v1.53h1.52v1.52h6.1Zm-3.05-12.19h3.05v1.53h1.52v1.52h1.52v3.05h-1.52v-3.05h-1.52v-1.52h-3.05v-1.53ZM9.14 28.96H4.57v1.52h4.57v-1.52Zm0-21.34H6.09v1.53h3.05V7.62ZM6.09 9.15H4.57v1.52h1.52V9.15ZM4.57 27.43H3.05v1.53h1.52v-1.53Zm0-16.76H3.05v1.52h1.52v-1.52ZM3.05 24.38H1.52v3.05h1.53v-3.05Zm0-12.19H1.52v3.05h1.53v-3.05Zm-1.53 3.05H0v9.14h1.52v-9.14Z"/>
  </g>
  <defs>
    <clipPath id="a">
      <path fill="#fff" d="M0 0h32v32H0z"/>
    </clipPath>
  </defs>
</svg>
