<svg width="25" height="25" viewBox="0 0 25 25" fill="none" xmlns="http://www.w3.org/2000/svg">
<rect x="0.0649414" y="0.0650024" width="24" height="24" fill="white" fill-opacity="0.01"/>
<path d="M0.0649414 0.0650024H24.0649M0.0649414 0.0650024V24.065M0.0649414 0.0650024L24.0649 24.065M24.0649 0.0650024V24.065M24.0649 0.0650024L0.0649414 24.065M24.0649 24.065H0.0649414" stroke="#DADEE4" stroke-width="0.13"/>
<circle cx="12.0649" cy="12.065" r="10" stroke="#DADEE4" stroke-width="0.13"/>
<rect x="2.06494" y="4.065" width="20" height="16" rx="1" stroke="#DADEE4" stroke-width="0.13"/>
<rect x="4.06494" y="2.065" width="16" height="20" rx="1" stroke="#DADEE4" stroke-width="0.13"/>
<rect x="3.06494" y="3.065" width="18" height="18" rx="1" stroke="#DADEE4" stroke-width="0.13"/>
<circle cx="12.0649" cy="12.065" r="4" stroke="#DADEE4" stroke-width="0.13"/>
<path fill-rule="evenodd" clip-rule="evenodd" d="M2.06494 12.065C2.06494 6.54216 6.54209 2.065 12.0649 2.065C17.5878 2.065 22.0649 6.54216 22.0649 12.065C22.0649 17.5878 17.5878 22.065 12.0649 22.065C6.54209 22.065 2.06494 17.5878 2.06494 12.065ZM12.0649 4.065C7.64666 4.065 4.06494 7.64672 4.06494 12.065C4.06494 16.4833 7.64666 20.065 12.0649 20.065C16.4832 20.065 20.0649 16.4833 20.0649 12.065C20.0649 9.10387 18.4561 6.5185 16.0649 5.13526V12.065C16.0649 14.2741 14.2741 16.065 12.0649 16.065C9.8558 16.065 8.06494 14.2741 8.06494 12.065C8.06494 9.85586 9.8558 8.065 12.0649 8.065C12.7935 8.065 13.4766 8.25979 14.0649 8.60013V4.31704C13.4257 4.15251 12.7555 4.065 12.0649 4.065ZM14.0649 12.065C14.0649 10.9604 13.1695 10.065 12.0649 10.065C10.9604 10.065 10.0649 10.9604 10.0649 12.065C10.0649 13.1696 10.9604 14.065 12.0649 14.065C13.1695 14.065 14.0649 13.1696 14.0649 12.065Z" fill="#09244B"/>
</svg>
