<svg width="25" height="25" viewBox="0 0 25 25" fill="none" xmlns="http://www.w3.org/2000/svg">
<rect width="24" height="24" transform="matrix(-1 0 0 1 24.0649 0.0650024)" fill="white" fill-opacity="0.01"/>
<path d="M24.0649 0.0650024H0.0649414M24.0649 0.0650024V24.065M24.0649 0.0650024L0.0649414 24.065M0.0649414 0.0650024V24.065M0.0649414 0.0650024L24.0649 24.065M0.0649414 24.065H24.0649" stroke="#DADEE4" stroke-width="0.13"/>
<circle cx="10" cy="10" r="10" transform="matrix(-1 0 0 1 22.0649 2.065)" stroke="#DADEE4" stroke-width="0.13"/>
<rect width="20" height="16" rx="1" transform="matrix(-1 0 0 1 22.0649 4.065)" stroke="#DADEE4" stroke-width="0.13"/>
<rect width="16" height="20" rx="1" transform="matrix(-1 0 0 1 20.0649 2.065)" stroke="#DADEE4" stroke-width="0.13"/>
<rect width="18" height="18" rx="1" transform="matrix(-1 0 0 1 21.0649 3.065)" stroke="#DADEE4" stroke-width="0.13"/>
<circle cx="4" cy="4" r="4" transform="matrix(-1 0 0 1 16.0649 8.065)" stroke="#DADEE4" stroke-width="0.13"/>
<path fill-rule="evenodd" clip-rule="evenodd" d="M19.8525 5.69211C20.6301 5.33301 21.533 5.89554 21.6359 6.80605C21.7283 7.62496 21.9048 9.5239 21.9048 12.0969C21.9048 14.7014 21.724 16.6147 21.6326 17.4159C21.5338 18.2821 20.6898 18.7878 19.9187 18.4334C19.227 18.1155 17.6252 17.3343 15.5337 16.0262C14.4616 15.3556 13.5645 14.7365 12.8639 14.2263C12.8051 15.7411 12.6968 16.853 12.6326 17.4159C12.5338 18.2821 11.6898 18.7878 10.9187 18.4334C10.227 18.1155 8.6252 17.3343 6.53373 16.0262C4.4429 14.7184 3.01773 13.6065 2.41739 13.1163C1.74784 12.5695 1.73091 11.5238 2.37495 10.9984C2.97175 10.5116 4.4164 9.38286 6.49012 8.08583C8.53944 6.80405 10.1506 6.01629 10.8525 5.69211C11.6301 5.33301 12.533 5.89554 12.6359 6.80605C12.6989 7.36455 12.8011 8.42541 12.8596 9.85984C13.5576 9.35191 14.4438 8.74029 15.4901 8.08583C17.5394 6.80405 19.1506 6.01629 19.8525 5.69211ZM19.9657 12.0257C19.9657 10.3351 19.8865 8.95254 19.8091 8.0056C19.0115 8.40798 17.8646 9.02632 16.5166 9.86944C15.1221 10.7416 14.0273 11.5323 13.3065 12.0827C14.0193 12.6252 15.0925 13.3969 16.4744 14.2612C17.8569 15.1259 19.0108 15.7471 19.8009 16.1446C19.8808 15.1958 19.9657 13.7756 19.9657 12.0257ZM10.9641 12.4358C10.8831 12.1664 10.883 11.8776 10.9641 11.6137C10.9526 10.11 10.8801 8.87442 10.8091 8.0056C10.0115 8.40798 8.86459 9.02632 7.51659 9.86944C6.12211 10.7416 5.02734 11.5323 4.30655 12.0827C5.01934 12.6252 6.09253 13.3969 7.47436 14.2612C8.85688 15.1259 10.0108 15.7471 10.8009 16.1446C10.8745 15.271 10.9523 13.9979 10.9641 12.4358Z" fill="#09244B"/>
</svg>
