<svg width="25" height="25" viewBox="0 0 25 25" fill="none" xmlns="http://www.w3.org/2000/svg">
<rect width="24" height="24" transform="matrix(-1 0 0 1 24.0649 0.0650024)" fill="white" fill-opacity="0.01"/>
<path d="M24.0649 0.0650024H0.0649414M24.0649 0.0650024V24.065M24.0649 0.0650024L0.0649414 24.065M0.0649414 0.0650024V24.065M0.0649414 0.0650024L24.0649 24.065M0.0649414 24.065H24.0649" stroke="#DADEE4" stroke-width="0.13"/>
<circle cx="10" cy="10" r="10" transform="matrix(-1 0 0 1 22.0649 2.065)" stroke="#DADEE4" stroke-width="0.13"/>
<rect width="20" height="16" rx="1" transform="matrix(-1 0 0 1 22.0649 4.065)" stroke="#DADEE4" stroke-width="0.13"/>
<rect width="16" height="20" rx="1" transform="matrix(-1 0 0 1 20.0649 2.065)" stroke="#DADEE4" stroke-width="0.13"/>
<rect width="18" height="18" rx="1" transform="matrix(-1 0 0 1 21.0649 3.065)" stroke="#DADEE4" stroke-width="0.13"/>
<circle cx="4" cy="4" r="4" transform="matrix(-1 0 0 1 16.0649 8.065)" stroke="#DADEE4" stroke-width="0.13"/>
<path d="M17.8669 2.24779C17.2848 1.94337 16.5924 2.39407 16.5361 3.11283C16.5256 3.24697 16.515 3.3982 16.5053 3.56502H6.06494C3.57966 3.56502 1.56494 5.57974 1.56494 8.06502V17.065C1.56494 19.5503 3.57966 21.565 6.06494 21.565H18.0649C20.5502 21.565 22.5649 19.5503 22.5649 17.065V12.065C22.5649 11.2366 21.8934 10.565 21.0649 10.565C20.2365 10.565 19.5649 11.2366 19.5649 12.065V17.065C19.5649 17.8934 18.8934 18.565 18.0649 18.565H6.06494C5.23652 18.565 4.56494 17.8934 4.56494 17.065V8.06502C4.56494 7.23659 5.23652 6.56502 6.06494 6.56502H16.5027C16.5147 6.77882 16.5282 6.96804 16.5414 7.12966C16.5963 7.80119 17.2259 8.18624 17.8028 7.88553C18.1829 7.68739 18.7344 7.37941 19.3933 6.95148C20.0527 6.52317 20.5658 6.13953 20.9084 5.86824C21.4277 5.45703 21.4468 4.65185 20.9577 4.26244C20.6151 3.9897 20.0933 3.59719 19.4248 3.16296C18.7879 2.74931 18.2466 2.44634 17.8669 2.24779Z" fill="#09244B"/>
<path d="M10.565 15.065V12.5652C10.0807 12.5647 9.60567 12.3302 9.3169 11.8971C8.85737 11.2078 9.04364 10.2765 9.73293 9.81696L11.2174 8.82732C12.2208 8.15835 13.565 8.87767 13.565 10.0837V15.065C13.565 15.8935 12.8934 16.565 12.065 16.565C11.2366 16.565 10.565 15.8935 10.565 15.065Z" fill="#09244B"/>
</svg>
