<svg width="25" height="25" viewBox="0 0 25 25" fill="none" xmlns="http://www.w3.org/2000/svg">
<rect width="24" height="24" transform="matrix(-1 0 0 1 24.0649 0.0650024)" fill="white" fill-opacity="0.01"/>
<path d="M24.0649 0.0650024H0.0649414M24.0649 0.0650024V24.065M24.0649 0.0650024L0.0649414 24.065M0.0649414 0.0650024V24.065M0.0649414 0.0650024L24.0649 24.065M0.0649414 24.065H24.0649" stroke="#DADEE4" stroke-width="0.13"/>
<circle cx="10" cy="10" r="10" transform="matrix(-1 0 0 1 22.0649 2.065)" stroke="#DADEE4" stroke-width="0.13"/>
<rect width="20" height="16" rx="1" transform="matrix(-1 0 0 1 22.0649 4.065)" stroke="#DADEE4" stroke-width="0.13"/>
<rect width="16" height="20" rx="1" transform="matrix(-1 0 0 1 20.0649 2.065)" stroke="#DADEE4" stroke-width="0.13"/>
<rect width="18" height="18" rx="1" transform="matrix(-1 0 0 1 21.0649 3.065)" stroke="#DADEE4" stroke-width="0.13"/>
<circle cx="4" cy="4" r="4" transform="matrix(-1 0 0 1 16.0649 8.065)" stroke="#DADEE4" stroke-width="0.13"/>
<path fill-rule="evenodd" clip-rule="evenodd" d="M17.8369 12.0608C17.8369 9.8931 17.715 8.16234 17.6092 7.06918C16.6071 7.52608 15.044 8.28795 13.1721 9.3687C11.3002 10.4494 9.85894 11.4221 8.96218 12.0615C9.85061 12.6949 11.2821 13.6597 13.1729 14.7513C15.0646 15.8435 16.6164 16.601 17.6091 17.0536C17.7149 15.9606 17.8369 14.2293 17.8369 12.0608ZM17.6501 4.86534C18.469 4.51785 19.3868 5.04712 19.4963 5.92983C19.6094 6.84191 19.8369 9.04963 19.8369 12.0608C19.8369 15.0735 19.6092 17.282 19.4961 18.1932C19.3866 19.0755 18.4698 19.6037 17.652 19.2578C16.8113 18.9022 14.8043 18.0026 12.1729 16.4834C9.54243 14.9647 7.76011 13.6767 7.0314 13.1261C6.32231 12.5904 6.32191 11.5311 7.03253 10.9955C7.76766 10.4414 9.57339 9.13699 12.1721 7.63665C14.7702 6.13662 16.8024 5.22509 17.6501 4.86534ZM4.06486 6.06501C4.06486 5.51273 4.51258 5.06501 5.06486 5.06501C5.61715 5.06501 6.06486 5.51273 6.06486 6.06501V18.065C6.06486 18.6173 5.61715 19.065 5.06486 19.065C4.51258 19.065 4.06486 18.6173 4.06486 18.065V6.06501Z" fill="#09244B"/>
</svg>
