<svg id="Capa_1" enable-background="new 0 0 502 502" height="512" viewBox="0 0 502 502" width="512" xmlns="http://www.w3.org/2000/svg" xmlns:xlink="http://www.w3.org/1999/xlink"><linearGradient id="SVGID_1_" gradientTransform="matrix(1 0 0 -1 0 504)" gradientUnits="userSpaceOnUse" x1="251" x2="251" y1="387.205" y2="501.628"><stop offset="0" stop-color="#dd5c6e"/><stop offset="1" stop-color="#ec8290"/></linearGradient><linearGradient id="SVGID_2_" gradientTransform="matrix(1 0 0 -1 0 504)" gradientUnits="userSpaceOnUse" x1="-11.659" x2="479.351" y1="197.408" y2="197.408"><stop offset="0" stop-color="#4e5660"/><stop offset="1" stop-color="#64768d"/></linearGradient><linearGradient id="lg1"><stop offset="0" stop-color="#f5e5a2"/><stop offset="1" stop-color="#fcf7cf"/></linearGradient><linearGradient id="SVGID_3_" gradientTransform="matrix(1 0 0 -1 0 504)" gradientUnits="userSpaceOnUse" x1="251" x2="251" xlink:href="#lg1" y1="24.18" y2="315.337"/><linearGradient id="SVGID_4_" gradientTransform="matrix(1 0 0 -1 0 504)" gradientUnits="userSpaceOnUse" x1="251" x2="251" xlink:href="#lg1" y1="128.788" y2="307.897"/><linearGradient id="lg2"><stop offset="0" stop-color="#ec6f80"/><stop offset="1" stop-color="#eca0aa"/></linearGradient><linearGradient id="SVGID_5_" gradientTransform="matrix(1 0 0 -1 0 504)" gradientUnits="userSpaceOnUse" x1="254.642" x2="254.642" xlink:href="#lg2" y1="156.207" y2="255.172"/><linearGradient id="SVGID_6_" gradientTransform="matrix(1 0 0 -1 0 504)" gradientUnits="userSpaceOnUse" x1="250.999" x2="250.999" xlink:href="#lg2" y1="61.199" y2="279.004"/><linearGradient id="lg3"><stop offset="0" stop-color="#74d2e8"/><stop offset="1" stop-color="#baeaf5"/></linearGradient><linearGradient id="SVGID_7_" gradientTransform="matrix(1 0 0 -1 0 504)" gradientUnits="userSpaceOnUse" x1="343.219" x2="377.323" xlink:href="#lg3" y1="103.408" y2="103.408"/><linearGradient id="SVGID_8_" gradientTransform="matrix(1 0 0 -1 0 504)" gradientUnits="userSpaceOnUse" x1="317.477" x2="390.083" xlink:href="#lg3" y1="140.778" y2="140.778"/><g><path d="m251 138.366c-6.957 0-13.912-2.654-19.22-7.961l-84.005-84.004c-10.614-10.615-10.614-27.825 0-38.44 10.616-10.614 27.825-10.614 38.44 0l64.785 64.784 64.784-64.784c10.614-10.613 27.826-10.614 38.44 0 10.614 10.615 10.614 27.825 0 38.44l-84.004 84.004c-5.308 5.307-12.263 7.961-19.22 7.961z" fill="url(#SVGID_1_)"/><path d="m30.747 418.562v-223.939c0-46.081 37.356-83.438 83.438-83.438h273.63c46.081 0 83.438 37.357 83.438 83.438v223.939c0 46.081-37.356 83.438-83.438 83.438h-273.63c-46.082 0-83.438-37.356-83.438-83.438z" fill="url(#SVGID_2_)"/><g fill="#8196ab"><path d="m443.604 283.112c-6.352 0-11.5-5.148-11.5-11.5v-8.344c0-6.352 5.148-11.5 11.5-11.5s11.5 5.148 11.5 11.5v8.344c0 6.352-5.148 11.5-11.5 11.5z"/><path d="m443.604 232.962c-6.352 0-11.5-5.148-11.5-11.5v-25.915c0-6.352 5.148-11.5 11.5-11.5s11.5 5.148 11.5 11.5v25.915c0 6.352-5.148 11.5-11.5 11.5z"/></g><path d="m387.486 165.547h-14.063-75-94.848-74.999-14.063c-16.24 0-29.404 13.165-29.404 29.404v223.282c0 16.24 13.165 29.404 29.404 29.404h14.063 74.999 94.848 75 14.063c16.24 0 29.404-13.165 29.404-29.404v-223.282c0-16.239-13.164-29.404-29.404-29.404z" fill="url(#SVGID_3_)"/><path d="m237.607 447.638h-123.093c-9.443 0-17.844-4.452-23.223-11.371-4.051-5.211-11.168-6.947-17.286-4.469-9.233 3.739-12.354 15.302-6.196 23.133 10.874 13.827 27.75 22.708 46.705 22.708h123.093c8.284 0 15-6.716 15-15 0-8.286-6.716-15.001-15-15.001z" fill="#3c4757"/></g><g><path d="m136.801 219.855h228.398v169.795h-228.398z" fill="url(#SVGID_4_)"/><path d="m212.321 266.881v69.819c0 9.305 10.073 15.121 18.132 10.468l60.465-34.909c8.059-4.653 8.059-16.284 0-20.937l-60.465-34.909c-8.059-4.653-18.132 1.163-18.132 10.468z" fill="url(#SVGID_5_)"/><path d="m382.301 235.705c-4.761-18.298-19.174-32.135-37.613-36.11-25.342-5.465-62.993-9.136-93.689-9.136-30.695 0-68.346 3.671-93.689 9.135-18.439 3.976-32.852 17.812-37.613 36.11-5.315 20.422-8.487 46.234-8.487 69.047s3.173 48.625 8.487 69.047c4.761 18.298 19.174 32.135 37.613 36.11 25.342 5.465 62.993 9.136 93.689 9.136 30.695 0 68.346-3.671 93.689-9.135 18.439-3.976 32.852-17.812 37.613-36.11 5.315-20.422 8.487-46.234 8.487-69.047.001-22.813-3.172-48.625-8.487-69.047zm-31.531 129.888c-1.645 6.322-6.607 11.098-12.948 12.466-23.312 5.026-58.204 8.404-86.822 8.404s-63.509-3.377-86.822-8.404c-6.342-1.368-11.303-6.144-12.948-12.466-4.587-17.628-7.437-40.941-7.437-60.841s2.85-43.213 7.437-60.841c1.645-6.322 6.607-11.098 12.948-12.466 23.312-5.026 58.204-8.404 86.822-8.404s63.509 3.377 86.822 8.404c6.342 1.367 11.303 6.143 12.948 12.465 4.587 17.628 7.437 40.941 7.437 60.841 0 19.901-2.85 43.214-7.437 60.842z" fill="url(#SVGID_6_)"/></g><g><path d="m358.083 421.437-14.1-34.038c-2.114-5.103.309-10.952 5.411-13.065 5.104-2.115 10.952.309 13.065 5.411l14.1 34.038c2.114 5.103-.309 10.952-5.411 13.065-5.14 2.13-10.967-.345-13.065-5.411z" fill="url(#SVGID_7_)"/><path d="m365.212 385.058 15.67-1.176c8.468-.635 12.283-10.918 6.278-16.923l-41.402-41.402c-10.437-10.436-28.281-3.045-28.281 11.715v58.551c0 8.492 9.969 13.066 16.406 7.527l11.912-10.249c5.447-4.687 12.251-7.506 19.417-8.043z" fill="url(#SVGID_8_)"/></g></svg>