<svg xmlns="http://www.w3.org/2000/svg" width="32" height="32" fill="none" viewBox="0 0 32 32">
  <path fill="#000001" d="M29.71 13.71h-1.52v10.67h1.52V13.71Z"/>
  <path fill="#000001" d="M26.67 27.43H11.43v-1.52H9.9v1.52H8.38V32h21.33v-4.57h-1.52v-3.05h-1.52v3.05Zm0 3.05h-3.05v-1.53h3.05v1.53Zm1.52-18.29h-1.52v1.52h1.52v-1.52Zm-3.05 1.52h-1.52v4.58h1.52v-4.58Zm1.53-3.04h-3.05v1.52h3.05v-1.52Zm-4.58-6.1h-1.52V6.1h1.52V4.57Zm0 0h1.53V0h-4.57v1.52h3.04v3.05Zm-1.52 9.14h-1.52v4.58h1.52v-4.58Zm0-7.61h-1.52v1.52h1.52V6.1Zm0-3.05h-1.52v1.52h1.52V3.05Zm-1.52-1.53h-1.53v1.53h1.53V1.52Zm-1.53 1.53H16v1.52h1.52V3.05ZM16 13.71h-1.52v4.58H16v-4.58Z"/>
  <path fill="#000001" d="M14.48 10.67h9.14V9.14h-4.57V7.62h-1.53v1.52H16V4.57h-4.57V6.1h3.05v4.57ZM9.9 15.24H8.38v1.52H9.9v3.05h1.53V6.1H9.9v3.04H8.38v1.53H9.9v4.57Zm0 9.14H8.38v1.53H9.9v-1.53Zm-1.52-3.05H6.86v3.05h1.52v-3.05Zm0-4.57H6.86v1.53h1.52v-1.53Zm0-6.09H6.86v1.52h1.52v-1.52Zm-1.52 7.62H5.33v3.04h1.53v-3.04Zm0-6.1H5.33v1.52h1.53v-1.52Zm-1.53 4.57H3.81v1.53h1.52v-1.53Zm0-3.05H3.81v1.53h1.52v-1.53Zm-1.52 1.53H2.29v1.52h1.52v-1.52Z"/>
</svg>
