<svg xmlns="http://www.w3.org/2000/svg" width="32" height="32" fill="none" viewBox="0 0 32 32">
  <path fill="#000001" d="M29.715 7.62h-1.53v12.19h1.53V7.62Zm-1.53 12.19h-1.52v4.57h1.52v-4.57Zm-3.04 7.62h-13.72v-3.05H9.9v3.05H8.375V32h19.81v-4.57h-1.52v-3.05h-1.52v3.05Zm0 3.05H22.1v-1.53h3.05l-.005 1.53Zm-1.53-16.77h1.53V7.62h3.04V6.1h-3.04V4.57h-1.53v9.14Z"/>
  <path fill="#000001" d="M19.045 13.71h1.52V4.57h3.05V3.05h-3.05V1.52h-1.52v12.19Zm0 4.58h-1.52v3.04h1.52v-3.04Zm0-18.29h-3.05v1.52h3.05V0Zm-1.52 16.76h-1.53v1.53h1.53v-1.53Zm-3.05-3.05h1.52V1.52h-4.57v1.53h3.05v10.66Zm1.52 1.53h-4.57v1.52h4.57v-1.52Zm-6.09 6.09h-1.53v3.05h1.53v-3.05Zm1.52-6.09V3.05h-1.52v10.66h-1.53v1.53h3.05Zm-3.05 4.57h-1.52v1.52h1.52v-1.52Zm0-7.62h-1.52v1.52h1.52v-1.52Zm-1.52 6.1h-1.52v1.52h1.52v-1.52Zm0-7.62h-3.05v1.52h3.05v-1.52Zm-1.52 6.09h-1.53v1.53h1.53v-1.53Zm-1.53-4.57h-1.52v4.57h1.52v-4.57Z"/>
</svg>
