<svg xmlns="http://www.w3.org" xmlns:xlink="http://www.w3.org/1999/xlink" width="36px" height="36px" preserveAspectRatio="xMidYMid meet" viewBox="0 0 48 48" aria-hidden="true" role="img"><path fill="#80DEEA" d="M40 41H8c-2.2 0-4-1.8-4-4V11c0-2.2 1.8-4 4-4h32c2.2 0 4 1.8 4 4v26c0 2.2-1.8 4-4 4z"></path><g fill="#2962FF"><path d="M36 17h-5l-2-2l2-2h5l2 2z"></path><path d="M36 35h-5l-2-2l2-2h5l2 2z"></path><path d="M37 30V18l2-2l2 2v12l-2 2z"></path><path d="M26 30V18l2-2l2 2v12l-2 2z"></path><path d="M17 17h-5l-2-2l2-2h5l2 2z"></path><path d="M17 35h-5l-2-2l2-2h5l2 2z"></path><path d="M18 30V18l2-2l2 2v12l-2 2z"></path><path d="M7 30V18l2-2l2 2v12l-2 2z"></path></g></svg>