<svg xmlns="http://www.w3.org" xmlns:xlink="http://www.w3.org/1999/xlink" width="36px" height="36px" preserveAspectRatio="xMidYMid meet" viewBox="0 0 48 48" aria-hidden="true" role="img"><path fill="#CFD8DC" d="M40 9V7h-9v5H15v11H8v2h7v11h16v5h9v-2h-7v-8h7v-2h-9v5H17V14h14v5h9v-2h-7V9z"></path><path fill="#00BCD4" d="M4 20h8v8H4z"></path><g fill="#3F51B5"><path d="M36 14h8v8h-8z"></path><path d="M36 4h8v8h-8z"></path><path d="M20 9h8v8h-8z"></path><path d="M20 31h8v8h-8z"></path><path d="M36 36h8v8h-8z"></path><path d="M36 26h8v8h-8z"></path></g></svg>