<svg xmlns="http://www.w3.org" xmlns:xlink="http://www.w3.org/1999/xlink" width="36px" height="36px" preserveAspectRatio="xMidYMid meet" viewBox="0 0 48 48" aria-hidden="true" role="img"><path fill="#673AB7" d="M10 9c-2.2 0-4 1.8-4 4v26c0 2.2 1.8 4 4 4h16c2.2 0 4-1.8 4-4V13c0-2.2-1.8-4-4-4"></path><g fill="#311B92"><path d="M14 13h2v26h-2z"></path><path d="M24 9V7c0-1.2-.8-2-2-2h-8c-1.2 0-2 .8-2 2v2h12z"></path></g><path fill="#D84315" d="M30 13H16v26h14V13zm-9 24h-3v-4h3v4zm0-18h-3v-4h3v4zm6 18h-3v-4h3v4zm-3-18v-4h3v4h-3z"></path><path fill="#FF5722" d="M30 13v2h3v4h-3v14h3v4h-3v2h12V13H30zm9 24h-3v-4h3v4zm0-18h-3v-4h3v4z"></path></svg>