<svg width="25" height="25" viewBox="0 0 25 25" fill="none" xmlns="http://www.w3.org/2000/svg">
<rect x="0.0649414" y="0.0649414" width="24" height="24" fill="white" fill-opacity="0.01"/>
<path d="M0.0649414 0.0649414H24.0649M0.0649414 0.0649414V24.0649M0.0649414 0.0649414L24.0649 24.0649M24.0649 0.0649414V24.0649M24.0649 0.0649414L0.0649414 24.0649M24.0649 24.0649H0.0649414" stroke="#DADEE4" stroke-width="0.13"/>
<circle cx="12.0649" cy="12.0649" r="10" stroke="#DADEE4" stroke-width="0.13"/>
<rect x="2.06494" y="4.06494" width="20" height="16" rx="1" stroke="#DADEE4" stroke-width="0.13"/>
<rect x="4.06494" y="2.06494" width="16" height="20" rx="1" stroke="#DADEE4" stroke-width="0.13"/>
<rect x="3.06494" y="3.06494" width="18" height="18" rx="1" stroke="#DADEE4" stroke-width="0.13"/>
<circle cx="12.0649" cy="12.0649" r="4" stroke="#DADEE4" stroke-width="0.13"/>
<path d="M8.15088 13.8578L8.15088 9.47915C8.15088 8.65073 7.47931 7.97915 6.65088 7.97915C5.82245 7.97915 5.15088 8.65073 5.15088 9.47915L5.15088 17.4792C5.15088 18.3076 5.82245 18.9792 6.65088 18.9792L14.6509 18.9792C15.4793 18.9792 16.1509 18.3076 16.1509 17.4792C16.1509 16.6507 15.4793 15.9792 14.6509 15.9792H10.2722L18.429 7.82238C19.0148 7.23659 19.0148 6.28684 18.429 5.70106C17.8432 5.11527 16.8934 5.11527 16.3077 5.70106L8.15088 13.8578Z" fill="#09244B"/>
</svg>
