<svg width="25" height="25" viewBox="0 0 25 25" fill="none" xmlns="http://www.w3.org/2000/svg">
<rect x="0.0649414" y="0.0649414" width="24" height="24" fill="white" fill-opacity="0.01"/>
<path d="M0.0649414 0.0649414H24.0649M0.0649414 0.0649414V24.0649M0.0649414 0.0649414L24.0649 24.0649M24.0649 0.0649414V24.0649M24.0649 0.0649414L0.0649414 24.0649M24.0649 24.0649H0.0649414" stroke="#DADEE4" stroke-width="0.13"/>
<circle cx="12.0649" cy="12.0649" r="10" stroke="#DADEE4" stroke-width="0.13"/>
<rect x="2.06494" y="4.06494" width="20" height="16" rx="1" stroke="#DADEE4" stroke-width="0.13"/>
<rect x="4.06494" y="2.06494" width="16" height="20" rx="1" stroke="#DADEE4" stroke-width="0.13"/>
<rect x="3.06494" y="3.06494" width="18" height="18" rx="1" stroke="#DADEE4" stroke-width="0.13"/>
<circle cx="12.0649" cy="12.0649" r="4" stroke="#DADEE4" stroke-width="0.13"/>
<path d="M15.1255 5.34754L20.7824 11.0044C21.3681 11.5902 21.3681 12.5399 20.7824 13.1257L15.1255 18.7826C14.5397 19.3684 13.59 19.3684 13.0042 18.7826C12.4184 18.1968 12.4184 17.247 13.0042 16.6613L16.1004 13.5651H4.56494C3.73651 13.5651 3.06494 12.8935 3.06494 12.0651C3.06494 11.2366 3.73651 10.5651 4.56494 10.5651H16.1004L13.0042 7.46886C12.4184 6.88308 12.4184 5.93333 13.0042 5.34754C13.59 4.76176 14.5397 4.76176 15.1255 5.34754Z" fill="#09244B"/>
</svg>
