<svg width="25" height="25" viewBox="0 0 25 25" fill="none" xmlns="http://www.w3.org/2000/svg">
<rect x="0.0650024" y="0.0649414" width="24" height="24" fill="white" fill-opacity="0.01"/>
<path d="M0.0650024 0.0649414H24.065M0.0650024 0.0649414V24.0649M0.0650024 0.0649414L24.065 24.0649M24.065 0.0649414V24.0649M24.065 0.0649414L0.0650024 24.0649M24.065 24.0649H0.0650024" stroke="#DADEE4" stroke-width="0.13"/>
<circle cx="12.065" cy="12.0649" r="10" stroke="#DADEE4" stroke-width="0.13"/>
<rect x="2.065" y="4.06494" width="20" height="16" rx="1" stroke="#DADEE4" stroke-width="0.13"/>
<rect x="4.065" y="2.06494" width="16" height="20" rx="1" stroke="#DADEE4" stroke-width="0.13"/>
<rect x="3.065" y="3.06494" width="18" height="18" rx="1" stroke="#DADEE4" stroke-width="0.13"/>
<circle cx="12.065" cy="12.0649" r="4" stroke="#DADEE4" stroke-width="0.13"/>
<path fill-rule="evenodd" clip-rule="evenodd" d="M12.7721 15.7721C12.3816 16.1627 11.7484 16.1627 11.3579 15.7721L5.70104 10.1153C5.31052 9.72476 5.31052 9.0916 5.70104 8.70107C6.09157 8.31055 6.72473 8.31055 7.11525 8.70107L12.065 13.6508L17.0147 8.70107C17.4053 8.31055 18.0384 8.31055 18.429 8.70107C18.8195 9.0916 18.8195 9.72476 18.429 10.1153L12.7721 15.7721Z" fill="#09244B"/>
</svg>
