<svg width="25" height="25" viewBox="0 0 25 25" fill="none" xmlns="http://www.w3.org/2000/svg">
<rect x="0.0650024" y="0.0649414" width="24" height="24" fill="white" fill-opacity="0.01"/>
<path d="M0.0650024 0.0649414H24.065M0.0650024 0.0649414V24.0649M0.0650024 0.0649414L24.065 24.0649M24.065 0.0649414V24.0649M24.065 0.0649414L0.0650024 24.0649M24.065 24.0649H0.0650024" stroke="#DADEE4" stroke-width="0.13"/>
<circle cx="12.065" cy="12.0649" r="10" stroke="#DADEE4" stroke-width="0.13"/>
<rect x="2.065" y="4.06494" width="20" height="16" rx="1" stroke="#DADEE4" stroke-width="0.13"/>
<rect x="4.065" y="2.06494" width="16" height="20" rx="1" stroke="#DADEE4" stroke-width="0.13"/>
<rect x="3.065" y="3.06494" width="18" height="18" rx="1" stroke="#DADEE4" stroke-width="0.13"/>
<circle cx="12.065" cy="12.0649" r="4" stroke="#DADEE4" stroke-width="0.13"/>
<path fill-rule="evenodd" clip-rule="evenodd" d="M22.065 14.0649C22.065 14.9426 21.6606 15.7034 21.0821 16.3113C20.5085 16.914 19.7258 17.4113 18.8351 17.8072C17.0511 18.6001 14.6567 19.0649 12.065 19.0649C9.4733 19.0649 7.07886 18.6001 5.2949 17.8072C4.40418 17.4113 3.62146 16.914 3.04787 16.3113C2.46938 15.7034 2.065 14.9426 2.065 14.0649V10.0649C2.065 9.18727 2.46938 8.42644 3.04787 7.81858C3.62146 7.21586 4.40418 6.71858 5.2949 6.3227C7.07886 5.52983 9.4733 5.06494 12.065 5.06494C14.6567 5.06494 17.0511 5.52983 18.8351 6.3227C19.7258 6.71858 20.5085 7.21586 21.0821 7.81858C21.6606 8.42644 22.065 9.18727 22.065 10.0649V14.0649ZM4.065 10.0649C4.065 9.83804 4.1643 9.54659 4.49666 9.19735C4.83393 8.84295 5.36922 8.47831 6.10718 8.15033C7.58058 7.49548 9.68615 7.06494 12.065 7.06494C14.4439 7.06494 16.5494 7.49548 18.0228 8.15033C18.7608 8.47831 19.2961 8.84295 19.6333 9.19735C19.9657 9.54659 20.065 9.83804 20.065 10.0649C20.065 10.2918 19.9657 10.5833 19.6333 10.9325C19.2961 11.2869 18.7608 11.6516 18.0228 11.9796C16.5494 12.6344 14.4439 13.0649 12.065 13.0649C9.68615 13.0649 7.58058 12.6344 6.10718 11.9796C5.36922 11.6516 4.83393 11.2869 4.49666 10.9325C4.1643 10.5833 4.065 10.2918 4.065 10.0649ZM20.065 13.145C19.6896 13.3909 19.2756 13.6114 18.8351 13.8072C17.0511 14.6001 14.6567 15.0649 12.065 15.0649C9.4733 15.0649 7.07886 14.6001 5.2949 13.8072C4.85445 13.6114 4.44041 13.3909 4.065 13.145V14.0649C4.065 14.2918 4.1643 14.5833 4.49666 14.9325C4.83393 15.2869 5.36922 15.6516 6.10718 15.9796C7.58058 16.6344 9.68615 17.0649 12.065 17.0649C14.4439 17.0649 16.5494 16.6344 18.0228 15.9796C18.7608 15.6516 19.2961 15.2869 19.6333 14.9325C19.9657 14.5833 20.065 14.2918 20.065 14.0649V13.145Z" fill="#09244B"/>
</svg>
