<svg width="25" height="25" viewBox="0 0 25 25" fill="none" xmlns="http://www.w3.org/2000/svg">
<rect x="0.0650024" y="0.0649414" width="24" height="24" fill="white" fill-opacity="0.01"/>
<path d="M0.0650024 0.0649414H24.065M0.0650024 0.0649414V24.0649M0.0650024 0.0649414L24.065 24.0649M24.065 0.0649414V24.0649M24.065 0.0649414L0.0650024 24.0649M24.065 24.0649H0.0650024" stroke="#DADEE4" stroke-width="0.13"/>
<circle cx="12.065" cy="12.0649" r="10" stroke="#DADEE4" stroke-width="0.13"/>
<rect x="2.065" y="4.06494" width="20" height="16" rx="1" stroke="#DADEE4" stroke-width="0.13"/>
<rect x="4.065" y="2.06494" width="16" height="20" rx="1" stroke="#DADEE4" stroke-width="0.13"/>
<rect x="3.065" y="3.06494" width="18" height="18" rx="1" stroke="#DADEE4" stroke-width="0.13"/>
<circle cx="12.065" cy="12.0649" r="4" stroke="#DADEE4" stroke-width="0.13"/>
<path fill-rule="evenodd" clip-rule="evenodd" d="M12.065 2.06494C6.54216 2.06494 2.065 6.54209 2.065 12.0649C2.065 17.5878 6.54216 22.0649 12.065 22.0649C17.5878 22.0649 22.065 17.5878 22.065 12.0649C22.065 6.54209 17.5878 2.06494 12.065 2.06494ZM15.4876 7.48909C15.9319 7.81727 16.0259 8.44341 15.6977 8.88762L14.0892 11.0649H15.065C15.6173 11.0649 16.065 11.5126 16.065 12.0649C16.065 12.6172 15.6173 13.0649 15.065 13.0649H13.065V14.0649H15.065C15.6173 14.0649 16.065 14.5126 16.065 15.0649C16.065 15.6172 15.6173 16.0649 15.065 16.0649H13.065V17.0649C13.065 17.6172 12.6173 18.0649 12.065 18.0649C11.5127 18.0649 11.065 17.6172 11.065 17.0649V16.0649H9.065C8.51272 16.0649 8.065 15.6172 8.065 15.0649C8.065 14.5126 8.51272 14.0649 9.065 14.0649H11.065V13.0649H9.065C8.51272 13.0649 8.065 12.6172 8.065 12.0649C8.065 11.5126 8.51272 11.0649 9.065 11.0649H10.0408L8.43227 8.88762C8.10409 8.44341 8.19815 7.81727 8.64236 7.48909C9.08656 7.16092 9.7127 7.25498 10.0409 7.69918L12.065 10.4389L14.0891 7.69918C14.4173 7.25498 15.0434 7.16092 15.4876 7.48909Z" fill="#09244B"/>
</svg>
