<svg width="25" height="25" viewBox="0 0 25 25" fill="none" xmlns="http://www.w3.org/2000/svg">
<rect x="0.0650024" y="0.0650024" width="24" height="24" fill="white" fill-opacity="0.01"/>
<path d="M0.0650024 0.0650024H24.065M0.0650024 0.0650024V24.065M0.0650024 0.0650024L24.065 24.065M24.065 0.0650024V24.065M24.065 0.0650024L0.0650024 24.065M24.065 24.065H0.0650024" stroke="#DADEE4" stroke-width="0.13"/>
<circle cx="12.065" cy="12.065" r="10" stroke="#DADEE4" stroke-width="0.13"/>
<rect x="2.065" y="4.065" width="20" height="16" rx="1" stroke="#DADEE4" stroke-width="0.13"/>
<rect x="4.065" y="2.065" width="16" height="20" rx="1" stroke="#DADEE4" stroke-width="0.13"/>
<rect x="3.065" y="3.065" width="18" height="18" rx="1" stroke="#DADEE4" stroke-width="0.13"/>
<circle cx="12.065" cy="12.065" r="4" stroke="#DADEE4" stroke-width="0.13"/>
<path d="M11.065 7.065H8.065V9.065H11.065V7.065Z" fill="#09244B"/>
<path d="M8.065 11.065H11.065V13.065H8.065V11.065Z" fill="#09244B"/>
<path d="M11.065 15.065H8.065V17.065H11.065V15.065Z" fill="#09244B"/>
<path fill-rule="evenodd" clip-rule="evenodd" d="M6.065 3.065C4.96043 3.065 4.065 3.96043 4.065 5.065V19.065H3.065C2.51272 19.065 2.065 19.5127 2.065 20.065C2.065 20.6173 2.51272 21.065 3.065 21.065H21.065C21.6173 21.065 22.065 20.6173 22.065 20.065C22.065 19.5127 21.6173 19.065 21.065 19.065H20.065V11.065C20.065 9.96043 19.1696 9.065 18.065 9.065H15.065V5.065C15.065 3.96043 14.1696 3.065 13.065 3.065H6.065ZM15.065 11.065H18.065V19.065H15.065V11.065ZM13.065 19.065V5.065H6.065V19.065H13.065Z" fill="#09244B"/>
</svg>
