<svg width="25" height="25" viewBox="0 0 25 25" fill="none" xmlns="http://www.w3.org/2000/svg">
<rect x="0.0650024" y="0.0649414" width="24" height="24" fill="white" fill-opacity="0.01"/>
<path d="M0.0650024 0.0649414H24.065M0.0650024 0.0649414V24.0649M0.0650024 0.0649414L24.065 24.0649M24.065 0.0649414V24.0649M24.065 0.0649414L0.0650024 24.0649M24.065 24.0649H0.0650024" stroke="#DADEE4" stroke-width="0.13"/>
<circle cx="12.065" cy="12.0649" r="10" stroke="#DADEE4" stroke-width="0.13"/>
<rect x="2.065" y="4.06494" width="20" height="16" rx="1" stroke="#DADEE4" stroke-width="0.13"/>
<rect x="4.065" y="2.06494" width="16" height="20" rx="1" stroke="#DADEE4" stroke-width="0.13"/>
<rect x="3.065" y="3.06494" width="18" height="18" rx="1" stroke="#DADEE4" stroke-width="0.13"/>
<circle cx="12.065" cy="12.0649" r="4" stroke="#DADEE4" stroke-width="0.13"/>
<path d="M5.565 5.06494C5.565 4.23651 4.89343 3.56494 4.065 3.56494C3.23658 3.56494 2.565 4.23651 2.565 5.06494V19.0649C2.565 19.8934 3.23658 20.5649 4.065 20.5649H20.065C20.8934 20.5649 21.565 19.8934 21.565 19.0649C21.565 18.2365 20.8934 17.5649 20.065 17.5649H5.565V5.06494Z" fill="#09244B"/>
<path d="M12.2215 9.01433L14.6257 11.4185L16.8074 9.23677C16.3027 8.99525 15.9541 8.47981 15.9541 7.88296C15.9541 7.05453 16.6257 6.38296 17.4541 6.38296L20.2584 6.38296C21.6037 6.38296 22.2773 8.00947 21.3261 8.96069L15.757 14.5298C15.1322 15.1546 14.1191 15.1546 13.4943 14.5298L11.0902 12.1256L8.61535 14.6005C8.02958 15.1863 7.07983 15.1863 6.49403 14.6005C5.90824 14.0148 5.90822 13.065 6.494 12.4792L9.95875 9.01435C10.5836 8.38949 11.5967 8.38948 12.2215 9.01433Z" fill="#09244B"/>
</svg>
