<svg width="25" height="25" viewBox="0 0 25 25" fill="none" xmlns="http://www.w3.org/2000/svg">
<rect x="0.0650024" y="0.0649414" width="24" height="24" fill="white" fill-opacity="0.01"/>
<path d="M0.0650024 0.0649414H24.065M0.0650024 0.0649414V24.0649M0.0650024 0.0649414L24.065 24.0649M24.065 0.0649414V24.0649M24.065 0.0649414L0.0650024 24.0649M24.065 24.0649H0.0650024" stroke="#DADEE4" stroke-width="0.13"/>
<circle cx="12.065" cy="12.0649" r="10" stroke="#DADEE4" stroke-width="0.13"/>
<rect x="2.065" y="4.06494" width="20" height="16" rx="1" stroke="#DADEE4" stroke-width="0.13"/>
<rect x="4.065" y="2.06494" width="16" height="20" rx="1" stroke="#DADEE4" stroke-width="0.13"/>
<rect x="3.065" y="3.06494" width="18" height="18" rx="1" stroke="#DADEE4" stroke-width="0.13"/>
<circle cx="12.065" cy="12.0649" r="4" stroke="#DADEE4" stroke-width="0.13"/>
<path fill-rule="evenodd" clip-rule="evenodd" d="M8.065 9.16494C8.065 8.55743 8.55749 8.06494 9.165 8.06494H11.065V7.06494C11.065 6.51266 11.5127 6.06494 12.065 6.06494C12.6173 6.06494 13.065 6.51266 13.065 7.06494V8.06494H14.565C15.9457 8.06494 17.065 9.18423 17.065 10.5649C17.065 11.1277 16.879 11.6471 16.5652 12.0649C16.879 12.4828 17.065 13.0021 17.065 13.5649C17.065 14.9457 15.9457 16.0649 14.565 16.0649H13.065V17.0649C13.065 17.6172 12.6173 18.0649 12.065 18.0649C11.5127 18.0649 11.065 17.6172 11.065 17.0649V16.0649H9.165C8.55749 16.0649 8.065 15.5725 8.065 14.9649V9.16494ZM10.065 11.0649H14.565C14.8411 11.0649 15.065 10.8411 15.065 10.5649C15.065 10.2888 14.8411 10.0649 14.565 10.0649H10.065V11.0649ZM10.065 13.0649V14.0649H14.565C14.8411 14.0649 15.065 13.8411 15.065 13.5649C15.065 13.2888 14.8411 13.0649 14.565 13.0649H10.065Z" fill="#09244B"/>
<path fill-rule="evenodd" clip-rule="evenodd" d="M2.065 12.0649C2.065 6.54209 6.54216 2.06494 12.065 2.06494C17.5878 2.06494 22.065 6.54209 22.065 12.0649C22.065 17.5878 17.5878 22.0649 12.065 22.0649C6.54216 22.0649 2.065 17.5878 2.065 12.0649ZM12.065 4.06494C7.64672 4.06494 4.065 7.64666 4.065 12.0649C4.065 16.4832 7.64672 20.0649 12.065 20.0649C16.4833 20.0649 20.065 16.4832 20.065 12.0649C20.065 7.64666 16.4833 4.06494 12.065 4.06494Z" fill="#09244B"/>
</svg>
