<svg width="25" height="25" viewBox="0 0 25 25" fill="none" xmlns="http://www.w3.org/2000/svg">
<rect x="0.0650024" y="0.0649414" width="24" height="24" fill="white" fill-opacity="0.01"/>
<path d="M0.0650024 0.0649414H24.065M0.0650024 0.0649414V24.0649M0.0650024 0.0649414L24.065 24.0649M24.065 0.0649414V24.0649M24.065 0.0649414L0.0650024 24.0649M24.065 24.0649H0.0650024" stroke="#DADEE4" stroke-width="0.13"/>
<circle cx="12.065" cy="12.0649" r="10" stroke="#DADEE4" stroke-width="0.13"/>
<rect x="2.065" y="4.06494" width="20" height="16" rx="1" stroke="#DADEE4" stroke-width="0.13"/>
<rect x="4.065" y="2.06494" width="16" height="20" rx="1" stroke="#DADEE4" stroke-width="0.13"/>
<rect x="3.065" y="3.06494" width="18" height="18" rx="1" stroke="#DADEE4" stroke-width="0.13"/>
<circle cx="12.065" cy="12.0649" r="4" stroke="#DADEE4" stroke-width="0.13"/>
<path fill-rule="evenodd" clip-rule="evenodd" d="M7.565 10.5649C7.565 9.18423 8.68429 8.06494 10.065 8.06494H11.065V7.06494C11.065 6.51266 11.5127 6.06494 12.065 6.06494C12.6173 6.06494 13.065 6.51266 13.065 7.06494V8.06494H15.065C15.6173 8.06494 16.065 8.51266 16.065 9.06494C16.065 9.61723 15.6173 10.0649 15.065 10.0649H13.065V11.0649H14.065C15.4457 11.0649 16.565 12.1842 16.565 13.5649C16.565 14.9457 15.4457 16.0649 14.065 16.0649H13.065V17.0649C13.065 17.6172 12.6173 18.0649 12.065 18.0649C11.5127 18.0649 11.065 17.6172 11.065 17.0649V16.0649H9.065C8.51272 16.0649 8.065 15.6172 8.065 15.0649C8.065 14.5127 8.51272 14.0649 9.065 14.0649H11.065V13.0649H10.065C8.68429 13.0649 7.565 11.9457 7.565 10.5649ZM11.065 11.0649V10.0649H10.065C9.78886 10.0649 9.565 10.2888 9.565 10.5649C9.565 10.8411 9.78886 11.0649 10.065 11.0649H11.065ZM13.065 13.0649V14.0649H14.065C14.3411 14.0649 14.565 13.8411 14.565 13.5649C14.565 13.2888 14.3411 13.0649 14.065 13.0649H13.065Z" fill="#09244B"/>
<path fill-rule="evenodd" clip-rule="evenodd" d="M2.065 12.0649C2.065 6.54209 6.54216 2.06494 12.065 2.06494C17.5878 2.06494 22.065 6.54209 22.065 12.0649C22.065 17.5878 17.5878 22.0649 12.065 22.0649C6.54216 22.0649 2.065 17.5878 2.065 12.0649ZM12.065 4.06494C7.64672 4.06494 4.065 7.64666 4.065 12.0649C4.065 16.4832 7.64672 20.0649 12.065 20.0649C16.4833 20.0649 20.065 16.4832 20.065 12.0649C20.065 7.64666 16.4833 4.06494 12.065 4.06494Z" fill="#09244B"/>
</svg>
