<svg width="25" height="25" viewBox="0 0 25 25" fill="none" xmlns="http://www.w3.org/2000/svg">
<rect x="0.0650024" y="0.0649414" width="24" height="24" fill="white" fill-opacity="0.01"/>
<path d="M0.0650024 0.0649414H24.065M0.0650024 0.0649414V24.0649M0.0650024 0.0649414L24.065 24.0649M24.065 0.0649414V24.0649M24.065 0.0649414L0.0650024 24.0649M24.065 24.0649H0.0650024" stroke="#DADEE4" stroke-width="0.13"/>
<circle cx="12.065" cy="12.0649" r="10" stroke="#DADEE4" stroke-width="0.13"/>
<rect x="2.065" y="4.06494" width="20" height="16" rx="1" stroke="#DADEE4" stroke-width="0.13"/>
<rect x="4.065" y="2.06494" width="16" height="20" rx="1" stroke="#DADEE4" stroke-width="0.13"/>
<rect x="3.065" y="3.06494" width="18" height="18" rx="1" stroke="#DADEE4" stroke-width="0.13"/>
<circle cx="12.065" cy="12.0649" r="4" stroke="#DADEE4" stroke-width="0.13"/>
<path fill-rule="evenodd" clip-rule="evenodd" d="M2.065 12.0649C2.065 6.54209 6.54216 2.06494 12.065 2.06494C17.5878 2.06494 22.065 6.54209 22.065 12.0649C22.065 17.5878 17.5878 22.0649 12.065 22.0649C6.54216 22.0649 2.065 17.5878 2.065 12.0649ZM8.76493 13.0649C8.86927 13.921 9.12163 14.7808 9.55092 15.5226C10.148 16.5543 11.1234 17.4031 12.5105 17.5664C13.9184 17.7322 15.3477 17.0557 16.2103 15.9505C16.5498 15.5149 16.4718 14.8865 16.0362 14.5471C15.5435 14.1633 14.943 14.3482 14.5767 14.7902C13.628 15.9352 12.0259 15.8063 11.282 14.5209C11.0435 14.1088 10.8752 13.6043 10.7851 13.0649H15.065C15.6173 13.0649 16.065 12.6172 16.065 12.0649C16.065 11.5127 15.6173 11.0649 15.065 11.0649H10.8106C10.9112 10.5483 11.0842 10.067 11.3213 9.67145C12.0311 8.48709 13.655 8.18084 14.5643 9.33198C14.9157 9.77693 15.5138 9.97787 16.0116 9.61402C16.4575 9.28814 16.5509 8.6616 16.225 8.21571C15.38 7.05956 14.1271 6.49485 12.6938 6.61725C11.2608 6.73963 10.237 7.59011 9.60579 8.64326C9.17004 9.37028 8.90335 10.2154 8.78346 11.0649H8.065C7.51272 11.0649 7.065 11.5127 7.065 12.0649C7.065 12.6172 7.51272 13.0649 8.065 13.0649H8.76493Z" fill="#09244B"/>
</svg>
