<svg width="25" height="25" viewBox="0 0 25 25" fill="none" xmlns="http://www.w3.org/2000/svg">
<rect x="0.0650024" y="0.0649414" width="24" height="24" fill="white" fill-opacity="0.01"/>
<path d="M0.0650024 0.0649414H24.065M0.0650024 0.0649414V24.0649M0.0650024 0.0649414L24.065 24.0649M24.065 0.0649414V24.0649M24.065 0.0649414L0.0650024 24.0649M24.065 24.0649H0.0650024" stroke="#DADEE4" stroke-width="0.13"/>
<circle cx="12.065" cy="12.0649" r="10" stroke="#DADEE4" stroke-width="0.13"/>
<rect x="2.065" y="4.06494" width="20" height="16" rx="1" stroke="#DADEE4" stroke-width="0.13"/>
<rect x="4.065" y="2.06494" width="16" height="20" rx="1" stroke="#DADEE4" stroke-width="0.13"/>
<rect x="3.065" y="3.06494" width="18" height="18" rx="1" stroke="#DADEE4" stroke-width="0.13"/>
<circle cx="12.065" cy="12.0649" r="4" stroke="#DADEE4" stroke-width="0.13"/>
<path d="M16.065 13.0649C16.6173 13.0649 17.065 12.6172 17.065 12.0649C17.065 11.5127 16.6173 11.0649 16.065 11.0649C15.5127 11.0649 15.065 11.5127 15.065 12.0649C15.065 12.6172 15.5127 13.0649 16.065 13.0649Z" fill="#09244B"/>
<path fill-rule="evenodd" clip-rule="evenodd" d="M3.065 6.06494C3.065 4.96037 3.96043 4.06494 5.065 4.06494H19.065C20.1696 4.06494 21.065 4.96037 21.065 6.06494V8.33251C21.6628 8.67832 22.065 9.32466 22.065 10.0649V14.0649C22.065 14.8052 21.6628 15.4516 21.065 15.7974V18.0649C21.065 19.1695 20.1696 20.0649 19.065 20.0649H5.065C3.96043 20.0649 3.065 19.1695 3.065 18.0649V6.06494ZM19.065 6.06494V8.06494H15.065C12.8559 8.06494 11.065 9.8558 11.065 12.0649C11.065 14.2741 12.8559 16.0649 15.065 16.0649H19.065V18.0649H5.065V6.06494L19.065 6.06494ZM15.065 10.0649C13.9604 10.0649 13.065 10.9604 13.065 12.0649C13.065 13.1695 13.9604 14.0649 15.065 14.0649H20.065V10.0649H15.065Z" fill="#09244B"/>
</svg>
