<svg width="24" height="24" viewBox="0 0 24 24" fill="none" xmlns="http://www.w3.org/2000/svg">
<path fill-rule="evenodd" clip-rule="evenodd" d="M9 9H9.00898H9Z" fill="#D9D9D9"/>
<path d="M4 7.82843C4 7.29799 4.21071 6.78929 4.58579 6.41421L6.41421 4.58579C6.78929 4.21071 7.29799 4 7.82843 4H10.1716C10.702 4 11.2107 4.21071 11.5858 4.58579L19.5858 12.5858C20.3668 13.3668 20.3668 14.6332 19.5858 15.4142L15.4142 19.5858C14.6332 20.3668 13.3668 20.3668 12.5858 19.5858L4.58579 11.5858C4.21071 11.2107 4 10.702 4 10.1716V7.82843Z" fill="#D9D9D9"/>
<path d="M9 9H9.00898M4.58579 11.5858L12.5858 19.5858C13.3668 20.3668 14.6332 20.3668 15.4142 19.5858L19.5858 15.4142C20.3668 14.6332 20.3668 13.3668 19.5858 12.5858L11.5858 4.58579C11.2107 4.21071 10.702 4 10.1716 4H7.82843C7.29799 4 6.78929 4.21071 6.41421 4.58579L4.58579 6.41421C4.21071 6.78929 4 7.29799 4 7.82843V10.1716C4 10.702 4.21071 11.2107 4.58579 11.5858Z" stroke="black" stroke-linecap="round" stroke-linejoin="round"/>
</svg>
