<svg width="24" height="24" viewBox="0 0 24 24" fill="none" xmlns="http://www.w3.org/2000/svg">
<path fill-rule="evenodd" clip-rule="evenodd" d="M7 9H7.00898H7Z" fill="#D9D9D9"/>
<path fill-rule="evenodd" clip-rule="evenodd" d="M7 13H7.00898H7Z" fill="#D9D9D9"/>
<path fill-rule="evenodd" clip-rule="evenodd" d="M7 17H7.00898H7Z" fill="#D9D9D9"/>
<path d="M7 6L4 4V16C4 18.2091 5.79086 20 8 20H16V12V4L13 6L10 4L7 6Z" fill="#D9D9D9"/>
<path d="M16 12V20C18.2091 20 20 18.2091 20 16V12H16Z" fill="#D9D9D9"/>
<path d="M16 20H8C5.79086 20 4 18.2091 4 16V4L7 6L10 4L13 6L16 4V12M16 20V12M16 20C18.2091 20 20 18.2091 20 16V12H16M10 9H13M10 13H13M10 17H13M7 9H7.00898M7 13H7.00898M7 17H7.00898" stroke="black" stroke-linecap="round" stroke-linejoin="round"/>
</svg>
