<svg width="15" height="15" viewBox="0 0 15 15" fill="none" xmlns="http://www.w3.org/2000/svg">
<path fill-rule="evenodd" clip-rule="evenodd" d="M1.5 1C1.77614 1 2 1.22386 2 1.5V12H13.5C13.7761 12 14 12.2239 14 12.5C14 12.7761 13.7761 13 13.5 13H1.5C1.22386 13 1 12.7761 1 12.5V1.5C1 1.22386 1.22386 1 1.5 1ZM7 2.5C7 2.22386 7.22386 2 7.5 2H9.5C9.77614 2 10 2.22386 10 2.5V10.5C10 10.7761 9.77614 11 9.5 11H7.5C7.22386 11 7 10.7761 7 10.5V2.5ZM8 3V10H9V3H8ZM11 4.5C11 4.22386 11.2239 4 11.5 4H13.5C13.7761 4 14 4.22386 14 4.5V10.5C14 10.7761 13.7761 11 13.5 11H11.5C11.2239 11 11 10.7761 11 10.5V4.5ZM12 5V10H13V5H12ZM3 6.5C3 6.22386 3.22386 6 3.5 6H5.5C5.77614 6 6 6.22386 6 6.5V10.5C6 10.7761 5.77614 11 5.5 11H3.5C3.22386 11 3 10.7761 3 10.5V6.5ZM4 7V10H5V7H4Z" fill="#151515"/>
</svg>
