<svg width="15" height="15" viewBox="0 0 15 15" fill="none" xmlns="http://www.w3.org/2000/svg">
<path fill-rule="evenodd" clip-rule="evenodd" d="M7.5 2C4.46243 2 2 4.46243 2 7.5C2 9.36009 2.92338 11.0045 4.33677 11.9999C4.12083 11.5453 4 11.0368 4 10.5C4 8.567 5.567 7 7.5 7C8.88071 7 10 5.88071 10 4.5C10 3.11929 8.88071 2 7.5 2ZM10.6632 3.00011C10.8792 3.45471 11 3.96325 11 4.5C11 6.433 9.433 8 7.5 8C6.11929 8 5 9.11929 5 10.5C5 11.8807 6.11929 13 7.5 13C10.5376 13 13 10.5376 13 7.5C13 5.63991 12.0766 3.99549 10.6632 3.00011ZM7.5 14C3.91015 14 1 11.0899 1 7.5C1 3.91015 3.91015 1 7.5 1C11.0899 1 14 3.91015 14 7.5C14 11.0899 11.0899 14 7.5 14Z" fill="#151515"/>
</svg>
