<svg width="15" height="15" viewBox="0 0 15 15" fill="none" xmlns="http://www.w3.org/2000/svg">
<path d="M7.5 4.5C6.94772 4.5 6.5 4.05228 6.5 3.5C6.5 2.94772 6.94772 2.5 7.5 2.5C8.05228 2.5 8.5 2.94772 8.5 3.5C8.5 4.05228 8.05228 4.5 7.5 4.5Z" fill="#151515"/>
<path d="M6.5 11.5C6.5 12.0523 6.94772 12.5 7.5 12.5C8.05228 12.5 8.5 12.0523 8.5 11.5C8.5 10.9477 8.05228 10.5 7.5 10.5C6.94772 10.5 6.5 10.9477 6.5 11.5Z" fill="#151515"/>
<path fill-rule="evenodd" clip-rule="evenodd" d="M2 7.5C2 7.22386 2.22386 7 2.5 7H12.5C12.7761 7 13 7.22386 13 7.5C13 7.77614 12.7761 8 12.5 8H2.5C2.22386 8 2 7.77614 2 7.5Z" fill="#151515"/>
</svg>
