<svg width="15" height="15" viewBox="0 0 15 15" fill="none" xmlns="http://www.w3.org/2000/svg">
<path fill-rule="evenodd" clip-rule="evenodd" d="M7.5 2C7.77614 2 8 2.22386 8 2.5V9.29289L10.1464 7.14645C10.3417 6.95118 10.6583 6.95118 10.8536 7.14645C11.0488 7.34171 11.0488 7.65829 10.8536 7.85355L7.85355 10.8536C7.65829 11.0488 7.34171 11.0488 7.14645 10.8536L4.14645 7.85355C3.95118 7.65829 3.95118 7.34171 4.14645 7.14645C4.34171 6.95118 4.65829 6.95118 4.85355 7.14645L7 9.29289V2.5C7 2.22386 7.22386 2 7.5 2ZM2.5 10C2.77614 10 3 10.2239 3 10.5V12H12V10.5C12 10.2239 12.2239 10 12.5 10C12.7761 10 13 10.2239 13 10.5V12.5C13 12.7761 12.7761 13 12.5 13H2.5C2.22386 13 2 12.7761 2 12.5V10.5C2 10.2239 2.22386 10 2.5 10Z" fill="#151515"/>
</svg>
