<svg width="15" height="15" viewBox="0 0 15 15" fill="none" xmlns="http://www.w3.org/2000/svg">
<path fill-rule="evenodd" clip-rule="evenodd" d="M8.5 3C8.22386 3 8 2.77614 8 2.5C8 2.22386 8.22386 2 8.5 2H12.5C12.7761 2 13 2.22386 13 2.5V6.5C13 6.77614 12.7761 7 12.5 7C12.2239 7 12 6.77614 12 6.5V3.70711L6.85355 8.85355C6.65829 9.04882 6.34171 9.04882 6.14645 8.85355C5.95118 8.65829 5.95118 8.34171 6.14645 8.14645L11.2929 3H8.5ZM2 4.5C2 4.22386 2.22386 4 2.5 4H5.5C5.77614 4 6 4.22386 6 4.5C6 4.77614 5.77614 5 5.5 5H3V12H10V9.5C10 9.22386 10.2239 9 10.5 9C10.7761 9 11 9.22386 11 9.5V12.5C11 12.7761 10.7761 13 10.5 13H2.5C2.22386 13 2 12.7761 2 12.5V4.5Z" fill="#151515"/>
</svg>
