<svg width="15" height="15" viewBox="0 0 15 15" fill="none" xmlns="http://www.w3.org/2000/svg">
<path fill-rule="evenodd" clip-rule="evenodd" d="M2 2.5C2 2.22386 2.22386 2 2.5 2H9.5C9.77614 2 10 2.22386 10 2.5C10 2.77614 9.77614 3 9.5 3H2.5C2.22386 3 2 2.77614 2 2.5ZM2 4.5C2 4.22386 2.22386 4 2.5 4H12.5C12.7761 4 13 4.22386 13 4.5V6.5C13 6.77614 12.7761 7 12.5 7H2.5C2.22386 7 2 6.77614 2 6.5V4.5ZM3 5V6H12V5H3ZM2 8.5C2 8.22386 2.22386 8 2.5 8H6.5C6.77614 8 7 8.22386 7 8.5C7 8.77614 6.77614 9 6.5 9H2.5C2.22386 9 2 8.77614 2 8.5ZM2 10.5C2 10.2239 2.22386 10 2.5 10H12.5C12.7761 10 13 10.2239 13 10.5V12.5C13 12.7761 12.7761 13 12.5 13H2.5C2.22386 13 2 12.7761 2 12.5V10.5ZM3 11V12H12V11H3Z" fill="#151515"/>
</svg>
