<svg width="15" height="15" viewBox="0 0 15 15" fill="none" xmlns="http://www.w3.org/2000/svg">
<path fill-rule="evenodd" clip-rule="evenodd" d="M9 12.793C8.52317 12.9278 8.02001 13 7.5 13C6.97999 13 6.47683 12.9278 6 12.793V9.5C6 9.22386 5.77614 9 5.5 9H3.19371L3.86038 7H5V7.5C5 7.77614 5.22386 8 5.5 8C5.77614 8 6 7.77614 6 7.5V6.5V4.70711L6.85355 3.85355C6.94732 3.75979 7 3.63261 7 3.5V2.02242C7.16468 2.00758 7.33146 2 7.5 2C8.31896 2 9.09612 2.179 9.79449 2.5H9.5C9.22386 2.5 9 2.72386 9 3V4H8.5C8.22386 4 8 4.22386 8 4.5V6.5C8 6.77614 8.22386 7 8.5 7H9.5C9.63261 7 9.75978 6.94732 9.85355 6.85355L10.7071 6H11V6.5C11 6.77614 11.2239 7 11.5 7C11.7761 7 12 6.77614 12 6.5V6H12.793C12.9278 6.47683 13 6.97999 13 7.5C13 7.66854 12.9924 7.83532 12.9776 8H8.5C8.22386 8 8 8.22386 8 8.5V11.5C8 11.7761 8.22386 12 8.5 12H9V12.793ZM10 12.4003C11.3476 11.7114 12.3735 10.483 12.793 9H9V11H9.5C9.77614 11 10 11.2239 10 11.5V12.4003ZM12.4003 5C12.1123 4.43666 11.7301 3.92953 11.2743 3.49942C11.2663 3.4998 11.2582 3.5 11.25 3.5H10V4.5C10 4.77614 9.77614 5 9.5 5H9V6H9.29289L10.1464 5.14645C10.2402 5.05268 10.3674 5 10.5 5H11.5H12.4003ZM6 2.20703C3.6915 2.85996 2 4.98245 2 7.5C2 7.97966 2.0614 8.44498 2.17678 8.88853L3.02566 6.34189C3.09372 6.13771 3.28478 6 3.5 6H5V4.5C5 4.36739 5.05268 4.24021 5.14645 4.14645L6 3.29289V2.20703ZM2.59971 10C3.12663 11.0308 3.96923 11.8734 5 12.4003V10H2.59971ZM14 7.5C14 11.0899 11.0899 14 7.5 14C3.91015 14 1 11.0899 1 7.5C1 3.91015 3.91015 1 7.5 1C11.0899 1 14 3.91015 14 7.5Z" fill="#151515"/>
</svg>
