<svg width="15" height="15" viewBox="0 0 15 15" fill="none" xmlns="http://www.w3.org/2000/svg">
<path fill-rule="evenodd" clip-rule="evenodd" d="M6.23199 1.12371C6.6425 1.0425 7.06653 1 7.5 1C7.93347 1 8.3575 1.0425 8.76801 1.12371C9.0389 1.1773 9.21506 1.44035 9.16147 1.71124C9.10787 1.98213 8.84483 2.15829 8.57394 2.1047C8.227 2.03606 7.86796 2 7.5 2C7.13204 2 6.773 2.03606 6.42606 2.1047C6.15517 2.15829 5.89212 1.98213 5.83853 1.71124C5.78494 1.44035 5.9611 1.1773 6.23199 1.12371ZM10.4182 2.23245C10.5718 2.00298 10.8824 1.9415 11.1119 2.09512C11.8205 2.56953 12.4305 3.17953 12.9049 3.88815C13.0585 4.11761 12.997 4.42817 12.7676 4.58179C12.5381 4.73541 12.2275 4.67393 12.0739 4.44447C11.6722 3.84447 11.1555 3.32778 10.5555 2.92609C10.3261 2.77247 10.2646 2.46191 10.4182 2.23245ZM4.58179 2.23245C4.73541 2.46191 4.67393 2.77247 4.44447 2.92609C3.84447 3.32778 3.32778 3.84447 2.92609 4.44447C2.77247 4.67393 2.46191 4.73541 2.23245 4.58179C2.00298 4.42817 1.9415 4.11761 2.09512 3.88815C2.56953 3.17953 3.17953 2.56953 3.88815 2.09512C4.11761 1.9415 4.42817 2.00298 4.58179 2.23245ZM1.71124 5.83853C1.98213 5.89213 2.15829 6.15517 2.1047 6.42606C2.03606 6.773 2 7.13204 2 7.5C2 7.86796 2.03606 8.227 2.1047 8.57394C2.15829 8.84483 1.98213 9.10788 1.71124 9.16147C1.44035 9.21506 1.1773 9.0389 1.12371 8.76801C1.0425 8.3575 1 7.93347 1 7.5C1 7.06653 1.0425 6.6425 1.12371 6.23199C1.1773 5.9611 1.44035 5.78494 1.71124 5.83853ZM13.2888 5.83853C13.5597 5.78494 13.8227 5.9611 13.8763 6.23199C13.9575 6.6425 14 7.06653 14 7.5C14 7.93347 13.9575 8.3575 13.8763 8.76801C13.8227 9.0389 13.5597 9.21506 13.2888 9.16147C13.0179 9.10787 12.8417 8.84483 12.8953 8.57394C12.9639 8.227 13 7.86796 13 7.5C13 7.13204 12.9639 6.773 12.8953 6.42606C12.8417 6.15517 13.0179 5.89212 13.2888 5.83853ZM12.7676 10.4182C12.997 10.5718 13.0585 10.8824 12.9049 11.1119C12.4305 11.8205 11.8205 12.4305 11.1119 12.9049C10.8824 13.0585 10.5718 12.997 10.4182 12.7676C10.2646 12.5381 10.3261 12.2275 10.5555 12.0739C11.1555 11.6722 11.6722 11.1555 12.0739 10.5555C12.2275 10.3261 12.5381 10.2646 12.7676 10.4182ZM2.23245 10.4182C2.46191 10.2646 2.77247 10.3261 2.92609 10.5555C3.32778 11.1555 3.84447 11.6722 4.44447 12.0739C4.67393 12.2275 4.73541 12.5381 4.58179 12.7676C4.42817 12.997 4.11761 13.0585 3.88815 12.9049C3.17953 12.4305 2.56953 11.8205 2.09512 11.1119C1.9415 10.8824 2.00298 10.5718 2.23245 10.4182ZM5.83853 13.2888C5.89213 13.0179 6.15517 12.8417 6.42606 12.8953C6.773 12.9639 7.13204 13 7.5 13C7.86796 13 8.227 12.9639 8.57394 12.8953C8.84483 12.8417 9.10788 13.0179 9.16147 13.2888C9.21506 13.5597 9.0389 13.8227 8.76801 13.8763C8.3575 13.9575 7.93347 14 7.5 14C7.06653 14 6.6425 13.9575 6.23199 13.8763C5.9611 13.8227 5.78494 13.5597 5.83853 13.2888Z" fill="#151515"/>
</svg>
