<svg width="15" height="15" viewBox="0 0 15 15" fill="none" xmlns="http://www.w3.org/2000/svg">
<path fill-rule="evenodd" clip-rule="evenodd" d="M5 8H6V7H5C3.89543 7 3 6.10457 3 5C3 3.89543 3.89543 3 5 3C6.10457 3 7 3.89543 7 5V6H8V5C8 3.89543 8.89543 3 10 3C11.1046 3 12 3.89543 12 5C12 6.10457 11.1046 7 10 7H9V8H10C11.1046 8 12 8.89543 12 10C12 11.1046 11.1046 12 10 12C8.89543 12 8 11.1046 8 10V9H7V10C7 11.1046 6.10457 12 5 12C3.89543 12 3 11.1046 3 10C3 8.89543 3.89543 8 5 8ZM8 8V7H7V8H8ZM9 9V10C9 10.5523 9.44772 11 10 11C10.5523 11 11 10.5523 11 10C11 9.44772 10.5523 9 10 9H9ZM9 6H10C10.5523 6 11 5.55228 11 5C11 4.44772 10.5523 4 10 4C9.44772 4 9 4.44772 9 5V6ZM6 6H5C4.44772 6 4 5.55228 4 5C4 4.44772 4.44772 4 5 4C5.55228 4 6 4.44772 6 5V6ZM6 9H5C4.44772 9 4 9.44772 4 10C4 10.5523 4.44772 11 5 11C5.55228 11 6 10.5523 6 10V9Z" fill="#151515"/>
</svg>
