<svg width="15" height="15" viewBox="0 0 15 15" fill="none" xmlns="http://www.w3.org/2000/svg">
<path fill-rule="evenodd" clip-rule="evenodd" d="M8 4C8 2.89543 8.89543 2 10 2H11C11.5523 2 12 2.44772 12 3H13.5C13.7761 3 14 3.22386 14 3.5V4.5C14 5.32843 13.3284 6 12.5 6H11.8865C11.9685 6.56376 12 7.19499 12 7.5V10.5C12 12.433 10.433 14 8.5 14H7.7973C7.61903 14 7.45425 13.9051 7.3648 13.7509C7.27535 13.5967 7.27477 13.4065 7.36327 13.2518C7.43212 13.1314 7.4973 13.0152 7.55911 12.898C7.21617 12.965 6.86203 13 6.5 13C3.46243 13 1 10.5376 1 7.5C1 7.00383 1.06591 6.40331 1.18696 5.83035C1.30668 5.26371 1.48874 4.68341 1.7412 4.24884C1.83069 4.09479 1.99539 4 2.17354 4H4.5C4.77614 4 5 4.22386 5 4.5V5.5C5 6.32843 4.32843 7 3.5 7H2.62683C2.83275 7.5826 3.38837 8 4.04148 8H5.27074C6.77807 8 8 6.77807 8 5.27074V4ZM2.17329 6H3.5C3.77614 6 4 5.77614 4 5.5V5H2.48121C2.36107 5.27431 2.25535 5.621 2.17329 6ZM2.02511 7.9782C2.26388 10.2387 4.17625 12 6.5 12C7.03881 12 7.55459 11.9055 8.0323 11.7325L8.52877 10.3329C8.62108 10.0726 8.90689 9.93645 9.16715 10.0288C9.4274 10.1211 9.56355 10.4069 9.47124 10.6671L8.90151 12.2734C8.81636 12.5449 8.72338 12.781 8.62489 12.9969C9.94758 12.9319 11 11.8388 11 10.5V7.5C11 7.17687 10.96 6.5059 10.8748 6H10.5C10.2239 6 10 5.77614 10 5.5C10 5.22386 10.2239 5 10.5 5H12.5C12.7761 5 13 4.77614 13 4.5V4H12C11.4477 4 11 3.55228 11 3H10C9.44772 3 9 3.44772 9 4V5.27074C9 7.33035 7.33035 9 5.27074 9H4.04148C3.21383 9 2.48011 8.59781 2.02511 7.9782Z" fill="#151515"/>
</svg>
