<svg width="16" height="16" viewBox="0 0 16 16" fill="none" xmlns="http://www.w3.org/2000/svg">
<g clip-path="url(#clip0_1_23)">
<path d="M2.5 14.5H3.5V15.5H2.5V14.5Z" fill="black"/>
<path d="M3.5 14.5H4.5V15.5H3.5V14.5Z" fill="black"/>
<path d="M4.5 14.5H5.5V15.5H4.5V14.5Z" fill="black"/>
<path d="M5.5 14.5H6.5V15.5H5.5V14.5Z" fill="black"/>
<path d="M1.5 14.5H2.5V15.5H1.5V14.5Z" fill="black"/>
<path d="M0.5 13.5H1.5V14.5H0.5V13.5Z" fill="black"/>
<path d="M0.5 12.5H1.5V13.5H0.5V12.5Z" fill="black"/>
<path d="M0.5 11.5H1.5V12.5H0.5V11.5Z" fill="black"/>
<path d="M0.5 10.5H1.5V11.5H0.5V10.5Z" fill="black"/>
<path d="M0.5 9.5H1.5V10.5H0.5V9.5Z" fill="black"/>
<path d="M0.5 8.5H1.5V9.5H0.5V8.5Z" fill="black"/>
<path d="M0.5 7.5H1.5V8.5H0.5V7.5Z" fill="black"/>
<path d="M0.5 4.5H1.5V5.5H0.5V4.5Z" fill="black"/>
<path d="M0.5 5.5H1.5V6.5H0.5V5.5Z" fill="black"/>
<path d="M0.5 6.5H1.5V7.5H0.5V6.5Z" fill="black"/>
<path d="M0.5 3.5H1.5V4.5H0.5V3.5Z" fill="black"/>
<path d="M1.5 2.5H2.5V3.5H1.5V2.5Z" fill="black"/>
<path d="M2.5 2.5H3.5V3.5H2.5V2.5Z" fill="black"/>
<path d="M3.5 2.5H4.5V3.5H3.5V2.5Z" fill="black"/>
<path d="M4.5 2.5H5.5V3.5H4.5V2.5Z" fill="black"/>
<path d="M5.5 2.5H6.5V3.5H5.5V2.5Z" fill="black"/>
<path d="M6.5 14.5H7.5V15.5H6.5V14.5Z" fill="black"/>
<path d="M7.5 13.5H8.5V14.5H7.5V13.5Z" fill="black"/>
<path d="M7.5 12.5H8.5V13.5H7.5V12.5Z" fill="black"/>
<path d="M7.5 11.5H8.5V12.5H7.5V11.5Z" fill="black"/>
<path d="M7.5 10.5H8.5V11.5H7.5V10.5Z" fill="black"/>
<path d="M7.5 9.5H8.5V10.5H7.5V9.5Z" fill="black"/>
<path d="M7.5 8.5H8.5V9.5H7.5V8.5Z" fill="black"/>
<path d="M7.5 7.5H8.5V8.5H7.5V7.5Z" fill="black"/>
<path d="M7.5 6.5H8.5V7.5H7.5V6.5Z" fill="black"/>
<path d="M7.5 5.5H8.5V6.5H7.5V5.5Z" fill="black"/>
<path d="M7.5 4.5H8.5V5.5H7.5V4.5Z" fill="black"/>
<path d="M7.5 3.5H8.5V4.5H7.5V3.5Z" fill="black"/>
<path d="M6.5 2.5H7.5V3.5H6.5V2.5Z" fill="black"/>
<path d="M2.5 4.5H3.5V5.5H2.5V4.5Z" fill="black"/>
<path d="M2.5 5.5H3.5V6.5H2.5V5.5Z" fill="black"/>
<path d="M2.5 6.5H3.5V7.5H2.5V6.5Z" fill="black"/>
<path d="M2.5 7.5H3.5V8.5H2.5V7.5Z" fill="black"/>
<path d="M3.5 7.5H4.5V8.5H3.5V7.5Z" fill="black"/>
<path d="M4.5 7.5H5.5V8.5H4.5V7.5Z" fill="black"/>
<path d="M5.5 7.5H6.5V8.5H5.5V7.5Z" fill="black"/>
<path d="M5.5 6.5H6.5V7.5H5.5V6.5Z" fill="black"/>
<path d="M5.5 5.5H6.5V6.5H5.5V5.5Z" fill="black"/>
<path d="M5.5 4.5H6.5V5.5H5.5V4.5Z" fill="black"/>
<path d="M4.5 4.5H5.5V5.5H4.5V4.5Z" fill="black"/>
<path d="M3.5 4.5H4.5V5.5H3.5V4.5Z" fill="black"/>
<path d="M3.5 9.5H4.5V10.5H3.5V9.5Z" fill="black"/>
<path d="M4.5 9.5H5.5V10.5H4.5V9.5Z" fill="black"/>
<path d="M2.5 10.5H3.5V11.5H2.5V10.5Z" fill="black"/>
<path d="M2.5 11.5H3.5V12.5H2.5V11.5Z" fill="black"/>
<path d="M3.5 12.5H4.5V13.5H3.5V12.5Z" fill="black"/>
<path d="M4.5 12.5H5.5V13.5H4.5V12.5Z" fill="black"/>
<path d="M5.5 10.5H6.5V11.5H5.5V10.5Z" fill="black"/>
<path d="M5.5 11.5H6.5V12.5H5.5V11.5Z" fill="black"/>
<path d="M5.5 1.5H6.5V2.5H5.5V1.5Z" fill="black"/>
<path d="M6.5 0.5H7.5V1.5H6.5V0.5Z" fill="black"/>
<path d="M7.5 0.5H8.5V1.5H7.5V0.5Z" fill="black"/>
<path d="M8.5 0.5H9.5V1.5H8.5V0.5Z" fill="black"/>
<path d="M9.5 1.5H10.5V2.5H9.5V1.5Z" fill="black"/>
<path d="M9.5 2.5H10.5V3.5H9.5V2.5Z" fill="black"/>
<path d="M12.5 3.5H13.5V4.5H12.5V3.5Z" fill="#389FFF"/>
<path d="M11.5 3.5H12.5V4.5H11.5V3.5Z" fill="#389FFF"/>
<path d="M11.5 4.5H12.5V5.5H11.5V4.5Z" fill="#389FFF"/>
<path d="M11.5 5.5H12.5V6.5H11.5V5.5Z" fill="#389FFF"/>
<path d="M12.5 4.5H13.5V5.5H12.5V4.5Z" fill="#389FFF"/>
<path d="M13.5 8.5H14.5V9.5H13.5V8.5Z" fill="#389FFF"/>
<path d="M14.5 8.5H15.5V9.5H14.5V8.5Z" fill="#389FFF"/>
<path d="M14.5 9.5H15.5V10.5H14.5V9.5Z" fill="#389FFF"/>
<path d="M14.5 10.5H15.5V11.5H14.5V10.5Z" fill="#389FFF"/>
<path d="M13.5 9.5H14.5V10.5H13.5V9.5Z" fill="#389FFF"/>
<path d="M9.5 3.5H10.5V4.5H9.5V3.5Z" fill="black"/>
<path d="M9.5 4.5H10.5V5.5H9.5V4.5Z" fill="black"/>
<path d="M9.5 5.5H10.5V6.5H9.5V5.5Z" fill="black"/>
<path d="M9.5 6.5H10.5V7.5H9.5V6.5Z" fill="black"/>
<path d="M9.5 7.5H10.5V8.5H9.5V7.5Z" fill="black"/>
<path d="M9.5 8.5H10.5V9.5H9.5V8.5Z" fill="black"/>
<path d="M9.5 9.5H10.5V10.5H9.5V9.5Z" fill="black"/>
<path d="M9.5 10.5H10.5V11.5H9.5V10.5Z" fill="black"/>
<path d="M10.5 11.5H11.5V12.5H10.5V11.5Z" fill="black"/>
<path d="M11.5 10.5H12.5V11.5H11.5V10.5Z" fill="black"/>
<path d="M11.5 9.5H12.5V10.5H11.5V9.5Z" fill="black"/>
<path d="M11.5 8.5H12.5V9.5H11.5V8.5Z" fill="black"/>
<path d="M11.5 7.5H12.5V8.5H11.5V7.5Z" fill="black"/>
<path d="M11.5 6.5H12.5V7.5H11.5V6.5Z" fill="black"/>
<path d="M11.5 12.5H12.5V13.5H11.5V12.5Z" fill="black"/>
<path d="M12.5 12.5H13.5V13.5H12.5V12.5Z" fill="black"/>
<path d="M12.5 13.5H13.5V14.5H12.5V13.5Z" fill="black"/>
<path d="M13.5 13.5H14.5V14.5H13.5V13.5Z" fill="black"/>
<path d="M14.5 13.5H15.5V14.5H14.5V13.5Z" fill="black"/>
<path d="M14.5 12.5H15.5V13.5H14.5V12.5Z" fill="black"/>
<path d="M14.5 11.5H15.5V12.5H14.5V11.5Z" fill="black"/>
<path d="M6.5 12.5H7.5V13.5H6.5V12.5Z" fill="#D6D6D6"/>
<path d="M6.5 11.5H7.5V12.5H6.5V11.5Z" fill="#D6D6D6"/>
<path d="M6.5 10.5H7.5V11.5H6.5V10.5Z" fill="#D6D6D6"/>
<path d="M6.5 9.5H7.5V10.5H6.5V9.5Z" fill="#D6D6D6"/>
<path d="M6.5 8.5H7.5V9.5H6.5V8.5Z" fill="#D6D6D6"/>
<path d="M6.5 7.5H7.5V8.5H6.5V7.5Z" fill="#D6D6D6"/>
<path d="M6.5 6.5H7.5V7.5H6.5V6.5Z" fill="#D6D6D6"/>
<path d="M6.5 5.5H7.5V6.5H6.5V5.5Z" fill="#D6D6D6"/>
<path d="M6.5 4.5H7.5V5.5H6.5V4.5Z" fill="#D6D6D6"/>
<path d="M6.5 3.5H7.5V4.5H6.5V3.5Z" fill="#D6D6D6"/>
<path d="M5.5 3.5H6.5V4.5H5.5V3.5Z" fill="#D6D6D6"/>
<path d="M4.5 3.5H5.5V4.5H4.5V3.5Z" fill="#D6D6D6"/>
<path d="M3.5 3.5H4.5V4.5H3.5V3.5Z" fill="#D6D6D6"/>
<path d="M2.5 3.5H3.5V4.5H2.5V3.5Z" fill="#D6D6D6"/>
<path d="M1.5 3.5H2.5V4.5H1.5V3.5Z" fill="#D6D6D6"/>
<path d="M1.5 4.5H2.5V5.5H1.5V4.5Z" fill="#D6D6D6"/>
<path d="M1.5 5.5H2.5V6.5H1.5V5.5Z" fill="#D6D6D6"/>
<path d="M1.5 6.5H2.5V7.5H1.5V6.5Z" fill="#D6D6D6"/>
<path d="M1.5 7.5H2.5V8.5H1.5V7.5Z" fill="#D6D6D6"/>
<path d="M1.5 8.5H2.5V9.5H1.5V8.5Z" fill="#D6D6D6"/>
<path d="M1.5 9.5H2.5V10.5H1.5V9.5Z" fill="#D6D6D6"/>
<path d="M1.5 10.5H2.5V11.5H1.5V10.5Z" fill="#D6D6D6"/>
<path d="M1.5 11.5H2.5V12.5H1.5V11.5Z" fill="#D6D6D6"/>
<path d="M1.5 12.5H2.5V13.5H1.5V12.5Z" fill="#D6D6D6"/>
<path d="M1.5 13.5H2.5V14.5H1.5V13.5Z" fill="#D6D6D6"/>
<path d="M2.5 13.5H3.5V14.5H2.5V13.5Z" fill="#D6D6D6"/>
<path d="M3.5 13.5H4.5V14.5H3.5V13.5Z" fill="#D6D6D6"/>
<path d="M4.5 13.5H5.5V14.5H4.5V13.5Z" fill="#D6D6D6"/>
<path d="M5.5 13.5H6.5V14.5H5.5V13.5Z" fill="#D6D6D6"/>
<path d="M6.5 13.5H7.5V14.5H6.5V13.5Z" fill="#D6D6D6"/>
<path d="M5.5 12.5H6.5V13.5H5.5V12.5Z" fill="#D6D6D6"/>
<path d="M2.5 12.5H3.5V13.5H2.5V12.5Z" fill="#D6D6D6"/>
<path d="M2.5 9.5H3.5V10.5H2.5V9.5Z" fill="#D6D6D6"/>
<path d="M2.5 8.5H3.5V9.5H2.5V8.5Z" fill="#D6D6D6"/>
<path d="M3.5 8.5H4.5V9.5H3.5V8.5Z" fill="#D6D6D6"/>
<path d="M4.5 8.5H5.5V9.5H4.5V8.5Z" fill="#D6D6D6"/>
<path d="M5.5 8.5H6.5V9.5H5.5V8.5Z" fill="#D6D6D6"/>
<path d="M5.5 9.5H6.5V10.5H5.5V9.5Z" fill="#D6D6D6"/>
<path d="M3.5 5.5H4.5V6.5H3.5V5.5Z" fill="white"/>
<path d="M3.5 6.5H4.5V7.5H3.5V6.5Z" fill="#389FFF"/>
<path d="M4.5 6.5H5.5V7.5H4.5V6.5Z" fill="#389FFF"/>
<path d="M4.5 5.5H5.5V6.5H4.5V5.5Z" fill="#389FFF"/>
<path d="M4.5 10.5H5.5V11.5H4.5V10.5Z" fill="#D6D6D6"/>
<path d="M4.5 11.5H5.5V12.5H4.5V11.5Z" fill="#D6D6D6"/>
<path d="M3.5 11.5H4.5V12.5H3.5V11.5Z" fill="#D6D6D6"/>
<path d="M3.5 10.5H4.5V11.5H3.5V10.5Z" fill="#D6D6D6"/>
</g>
<defs>
<clipPath id="clip0_1_23">
<rect width="16" height="16" fill="white"/>
</clipPath>
</defs>
</svg>
