<svg xmlns="http://www.w3.org/2000/svg" viewBox="0 0 440 440" fill="none" shape-rendering="auto"><metadata xmlns:rdf="http://www.w3.org/1999/02/22-rdf-syntax-ns#" xmlns:xsi="http://www.w3.org/2001/XMLSchema-instance" xmlns:dc="http://purl.org/dc/elements/1.1/" xmlns:dcterms="http://purl.org/dc/terms/"><rdf:RDF><rdf:Description><dc:title>Face Generator</dc:title><dc:creator>The Visual Team</dc:creator><dc:source xsi:type="dcterms:URI">https://www.figma.com/community/file/986078800058673824</dc:source><dcterms:license xsi:type="dcterms:URI">https://creativecommons.org/licenses/by/4.0/</dcterms:license><dc:rights>Remix of „Face Generator” (https://www.figma.com/community/file/986078800058673824) by „The Visual Team”, licensed under „CC BY 4.0” (https://creativecommons.org/licenses/by/4.0/)</dc:rights></rdf:Description></rdf:RDF></metadata><mask id="viewboxMask"><rect width="440" height="440" rx="0" ry="0" x="0" y="0" fill="#fff" /></mask><g mask="url(#viewboxMask)"><g transform="matrix(.71048 0 0 .71048 24 2)"><g fill="#d6b370"><path d="M287.2 87H277C175.7 87 93.6 181 93.6 297S175.7 426.4 277 426.4h10.2c101.3 0 183.4-13.3 183.4-129.4 0-116-82.1-210-183.4-210Z"/><path d="M131.1 74.4c66.4-6.4 94 60 99.5 94 10.3 21.5 24.8 105 0 267C199.6 638 6.6 550 26.6 539s56.5-84.5 19-205.5 2.5-251 85.5-259Z"/></g></g><g transform="translate(81.7 150.7) scale(.71856)"><circle cx="190.2" cy="167.2" r="121.2" fill="#89532c"/><path fill="#89532c" d="M69 164.5h242.4v191.2H69z"/><path d="M69 336h242v20H69v-20Z" fill="#000" fill-opacity=".2"/></g><g transform="translate(199.5 333.4) scale(.71856)"><path d="M82.7 33.4c0 16.9-24.2 4-54.2 4-30 0-54.2 12.9-54.2-4S-1.4 3 28.5 3c30 0 54.2 13.6 54.2 30.5Z" fill="#DE8383"/></g><g transform="translate(280.7 235.4) scale(.71856)"><rect x="30" y="23" width="80" height="80" rx="21.3" fill="#89532c"/><rect x="38.9" y="31.9" width="42.6" height="62.2" rx="12.4" fill="#000" fill-opacity=".2"/><rect x="30" y="46.1" width="17.8" height="35.5" rx="8.9" fill="#89532c"/></g><g transform="matrix(-.71856 0 0 .71856 161.5 235.4)"><rect x="30" y="23" width="80" height="80" rx="21.3" fill="#89532c"/><rect x="38.9" y="31.9" width="42.6" height="62.2" rx="12.4" fill="#000" fill-opacity=".2"/><rect x="30" y="46.1" width="17.8" height="35.5" rx="8.9" fill="#89532c"/></g><g transform="translate(114.8 215.5) scale(.71856)"><circle cx="202.2" cy="92.6" r="11.6" fill="#161616"/><circle cx="89.2" cy="92.6" r="11.6" fill="#161616"/><path d="M177 68.2c4.4-3 11-9.2 24.1-9.2 11.1 0 20.4 6.8 22.1 9.2M64 68.2c4.4-3 11-9.2 24.1-9.2 11.1 0 20.4 6.8 22.1 9.2" stroke="#000" stroke-width="4.6" stroke-linecap="round"/><path d="M186 81c.9 2.5 4 7.8 9.2 9.2M73 81c.9 2.5 4 7.8 9.2 9.2" stroke="#000" stroke-width="4.6" stroke-linecap="round" stroke-linejoin="round"/></g><g transform="translate(127.7 288.7) scale(.71856)"><g fill="#F88888"><rect x="11" y="16" width="56.3" height="43.4" rx="21.7"/><rect x="191" y="16" width="56.3" height="43.4" rx="21.7"/></g></g><g transform="translate(193 279.4) scale(.71856)"><path d="M37 14v27c-3.7.7-11 4-11 10.5 0 8.2 7.3 10.5 11 11.7" stroke="#000" stroke-opacity=".5" stroke-width="4" stroke-linecap="round" stroke-linejoin="round"/></g><g transform="matrix(.52237 0 0 .52237 122.9 244.8)"><path d="M18 31.8C17.3 12.2 15 2.3 32 0c19.6 3.6 14 22.6 12 31.8-2.2 9.3 9.5 19 7.4 39.4-2 20.4-25 30-36 12.8-14-22 3.5-32.6 2.7-52.2Z" fill="#d6b370"/></g><g transform="matrix(-.52237 0 0 .52237 315.7 244.8)"><path d="M18 31.8C17.3 12.2 15 2.3 32 0c19.6 3.6 14 22.6 12 31.8-2.2 9.3 9.5 19 7.4 39.4-2 20.4-25 30-36 12.8-14-22 3.5-32.6 2.7-52.2Z" fill="#d6b370"/></g><g transform="matrix(.52237 0 0 .52237 108.7 145.6)"><path d="M374 130c6.5 15.9 11.5 34.5 11.5 70-11 0-73.7 6-114.5-10s-46.9-28.5-60-48c-13 27-37 38-73.5 48s-83.3 7.5-99.5 10c0-23.1 2-46 10.9-67.4A176 176 0 0 1 211 24a175 175 0 0 1 124 51.5c16.4 16.4 30.2 33.1 39 54.5Z" fill="#d6b370"/></g></g></svg>