<svg width="24" height="24" viewBox="0 0 24 24" fill="none" xmlns="http://www.w3.org/2000/svg">
<path fill-rule="evenodd" clip-rule="evenodd" d="M2 9C2 8.44772 2.44772 8 3 8H9C10.1046 8 11 8.89543 11 10V11C11 12.1046 10.1046 13 9 13H4V14H10C10.5523 14 11 14.4477 11 15C11 15.5523 10.5523 16 10 16H4C2.89543 16 2 15.1046 2 14V13C2 11.8954 2.89543 11 4 11H9V10H3C2.44772 10 2 9.55228 2 9ZM13 10C13 8.89543 13.8954 8 15 8H21C21.5523 8 22 8.44772 22 9C22 9.55228 21.5523 10 21 10H15V14H20V13H17.5C16.9477 13 16.5 12.5523 16.5 12C16.5 11.4477 16.9477 11 17.5 11H20C21.1046 11 22 11.8954 22 13V14C22 15.1046 21.1046 16 20 16H15C13.8954 16 13 15.1046 13 14V10Z" fill="#1F2937"/>
</svg>
