<svg width="24" height="24" viewBox="0 0 24 24" fill="none" xmlns="http://www.w3.org/2000/svg">
<path fill-rule="evenodd" clip-rule="evenodd" d="M3.29289 3.29289C3.68342 2.90237 4.31658 2.90237 4.70711 3.29289L20.7071 19.2929C21.0976 19.6834 21.0976 20.3166 20.7071 20.7071C20.3166 21.0976 19.6834 21.0976 19.2929 20.7071L15.5858 17H14C13.4477 17 13 16.5523 13 16V14.4142L10.4235 11.8377C10.381 11.8939 10.3366 11.948 10.2905 12C10.719 12.4836 11 13.1487 11 14C11 15.1259 10.5085 15.9261 9.8343 16.4115C9.21113 16.8602 8.49336 17 8 17H5C4.44772 17 4 16.5523 4 16C4 15.4477 4.44772 15 5 15H8C8.17331 15 8.45554 14.9398 8.6657 14.7885C8.82487 14.6739 9 14.4741 9 14C9 13.5259 8.82487 13.3261 8.6657 13.2115C8.45554 13.0602 8.17331 13 8 13H7C6.44772 13 6 12.5523 6 12C6 11.4477 6.44772 11 7 11H8C8.17331 11 8.45554 10.9398 8.6657 10.7885C8.77527 10.7096 8.89241 10.5903 8.95477 10.369L7.58579 9H5C4.44772 9 4 8.55228 4 8C4 7.44772 4.44772 7 5 7H5.58579L3.29289 4.70711C2.90237 4.31658 2.90237 3.68342 3.29289 3.29289ZM14 7H16C16.66 7 17.6278 7.18978 18.4593 7.78847C19.3418 8.42386 20 9.47408 20 11V13C20 13.5523 19.5523 14 19 14C18.4477 14 18 13.5523 18 13V11C18 10.1259 17.6582 9.67614 17.2907 9.41153C16.8722 9.11022 16.34 9 16 9H15C15 9.55228 14.5523 10 14 10C13.4477 10 13 9.55228 13 9V8C13 7.44772 13.4477 7 14 7Z" fill="#1F2937"/>
</svg>
