<svg width="24" height="24" viewBox="0 0 24 24" fill="none" xmlns="http://www.w3.org/2000/svg">
<path fill-rule="evenodd" clip-rule="evenodd" d="M4 8C4 7.44772 4.44772 7 5 7H8C8.49336 7 9.21113 7.13978 9.8343 7.58847C10.5085 8.07386 11 8.87408 11 10C11 10.8513 10.719 11.5164 10.2905 12C10.719 12.4836 11 13.1487 11 14C11 15.1259 10.5085 15.9261 9.8343 16.4115C9.21113 16.8602 8.49336 17 8 17H5C4.44772 17 4 16.5523 4 16C4 15.4477 4.44772 15 5 15H8C8.17331 15 8.45553 14.9398 8.6657 14.7885C8.82487 14.6739 9 14.4741 9 14C9 13.5259 8.82487 13.3261 8.6657 13.2115C8.45553 13.0602 8.17331 13 8 13H7C6.44772 13 6 12.5523 6 12C6 11.4477 6.44772 11 7 11H8C8.17331 11 8.45553 10.9398 8.6657 10.7885C8.82487 10.6739 9 10.4741 9 10C9 9.52592 8.82487 9.32614 8.6657 9.21153C8.45553 9.06022 8.17331 9 8 9H5C4.44772 9 4 8.55228 4 8ZM13 8C13 7.44772 13.4477 7 14 7H16C16.66 7 17.6278 7.18978 18.4593 7.78847C19.3418 8.42386 20 9.47408 20 11V13C20 14.5259 19.3418 15.5761 18.4593 16.2115C17.6278 16.8102 16.66 17 16 17H14C13.4477 17 13 16.5523 13 16V8ZM15 9V15H16C16.34 15 16.8722 14.8898 17.2907 14.5885C17.6582 14.3239 18 13.8741 18 13V11C18 10.1259 17.6582 9.67614 17.2907 9.41153C16.8722 9.11022 16.34 9 16 9H15Z" fill="#1F2937"/>
</svg>
