<svg width="24" height="24" viewBox="0 0 24 24" fill="none" xmlns="http://www.w3.org/2000/svg">
<path d="M19 2H21C21.2652 2 21.5196 2.10536 21.7071 2.29289C21.8946 2.48043 22 2.73478 22 3V7.5H19L19 2Z" fill="#1F2937"/>
<path d="M22 9.5V14.5H19V9.5H22Z" fill="#1F2937"/>
<path d="M22 16.5V21C22 21.2652 21.8946 21.5196 21.7071 21.7071C21.5196 21.8946 21.2652 22 21 22H19V16.5H22Z" fill="#1F2937"/>
<path d="M17 22H14C12.3431 22 11 20.6569 11 19V16.5H17V22Z" fill="#1F2937"/>
<path d="M11 14.5L11 9.5H17V14.5H11Z" fill="#1F2937"/>
<path d="M11 7.5V5C11 3.34315 12.3431 2 14 2H17L17 7.5H11Z" fill="#1F2937"/>
<path d="M5 9C5 8.44772 5.44772 8 6 8C6.55229 8 7 8.44772 7 9V11L9 11C9.55228 11 10 11.4477 10 12C10 12.5523 9.55229 13 9 13L7 13V15C7 15.5523 6.55229 16 6 16C5.44772 16 5 15.5523 5 15V13H3C2.44772 13 2 12.5523 2 12C2 11.4477 2.44772 11 3 11H5V9Z" fill="#1F2937"/>
</svg>
