<svg width="24" height="24" viewBox="0 0 24 24" fill="none" xmlns="http://www.w3.org/2000/svg">
<path fill-rule="evenodd" clip-rule="evenodd" d="M8.50003 6C8.92497 6 9.30351 6.26856 9.44389 6.66965L12.9439 16.6696C13.1263 17.1909 12.8517 17.7614 12.3304 17.9439C11.8091 18.1263 11.2386 17.8516 11.0562 17.3304L10.2405 15H6.75951L5.94389 17.3304C5.76144 17.8516 5.19096 18.1263 4.66968 17.9439C4.1484 17.7614 3.87372 17.1909 4.05617 16.6696L7.55617 6.66965C7.69655 6.26856 8.07508 6 8.50003 6ZM7.45951 13H9.54055L8.50003 10.0271L7.45951 13ZM14 7C14 6.44772 14.4477 6 15 6H19C19.5523 6 20 6.44772 20 7C20 7.55228 19.5523 8 19 8H18V16H19C19.5523 16 20 16.4477 20 17C20 17.5523 19.5523 18 19 18H15C14.4477 18 14 17.5523 14 17C14 16.4477 14.4477 16 15 16H16V8H15C14.4477 8 14 7.55228 14 7Z" fill="#1F2937"/>
</svg>
