<svg width="24" height="24" viewBox="0 0 24 24" fill="none" xmlns="http://www.w3.org/2000/svg">
<path fill-rule="evenodd" clip-rule="evenodd" d="M5 3C3.34315 3 2 4.34315 2 6V12C2 13.6569 3.34315 15 5 15H19C20.6569 15 22 13.6569 22 12V6C22 4.34315 20.6569 3 19 3H5ZM18 5C17.4477 5 17 5.44772 17 6C17 6.55228 17.4477 7 18 7H18.01C18.5623 7 19.01 6.55228 19.01 6C19.01 5.44772 18.5623 5 18.01 5H18ZM7 11C5.89543 11 5 11.8954 5 13H19C19 11.8954 18.1046 11 17 11H7Z" fill="#1F2937"/>
<path d="M6 16C6.55228 16 7 16.4477 7 17V17.7639C7 18.9002 6.35799 19.939 5.34164 20.4472L4.44721 20.8944C3.95324 21.1414 3.35256 20.9412 3.10557 20.4472C2.85858 19.9532 3.05881 19.3526 3.55279 19.1056L4.44721 18.6584C4.786 18.489 5 18.1427 5 17.7639V17C5 16.4477 5.44772 16 6 16Z" fill="#1F2937"/>
<path d="M10 16C10.5523 16 11 16.4477 11 17V19.1716C11 19.9672 10.6839 20.7303 10.1213 21.2929L9.70711 21.7071C9.31658 22.0976 8.68342 22.0976 8.29289 21.7071C7.90237 21.3166 7.90237 20.6834 8.29289 20.2929L8.70711 19.8787C8.89464 19.6911 9 19.4368 9 19.1716V17C9 16.4477 9.44772 16 10 16Z" fill="#1F2937"/>
<path d="M15 17C15 16.4477 14.5523 16 14 16C13.4477 16 13 16.4477 13 17V19.1716C13 19.9672 13.3161 20.7303 13.8787 21.2929L14.2929 21.7071C14.6834 22.0976 15.3166 22.0976 15.7071 21.7071C16.0976 21.3166 16.0976 20.6834 15.7071 20.2929L15.2929 19.8787C15.1054 19.6911 15 19.4368 15 19.1716V17Z" fill="#1F2937"/>
<path d="M18 16C18.5523 16 19 16.4477 19 17V17.7639C19 18.1427 19.214 18.489 19.5528 18.6584L20.4472 19.1056C20.9412 19.3526 21.1414 19.9532 20.8944 20.4472C20.6474 20.9412 20.0468 21.1414 19.5528 20.8944L18.6584 20.4472C17.642 19.939 17 18.9002 17 17.7639V17C17 16.4477 17.4477 16 18 16Z" fill="#1F2937"/>
</svg>
