<svg width="24" height="24" viewBox="0 0 24 24" fill="none" xmlns="http://www.w3.org/2000/svg">
<path d="M18.0208 14.3922L18.0208 10.1213C18.0208 9.59089 18.2315 9.08218 18.6066 8.70711L20.8492 6.46447C21.3206 5.99306 21.9806 4.76741 20.8492 3.63604C19.7179 2.50467 18.4922 3.16464 18.0208 3.63604L17.3285 4.3284L17.3536 4.35353L12.3536 9.35353L12.3285 9.3284L12.2426 9.41422C11.8676 9.78929 11.3589 10 10.8284 10H9.41421C9.03914 10 8.67943 10.149 8.41421 10.4142C7.86193 10.9665 7.86193 11.8619 8.41421 12.4142L10.2426 14.2426C11.0237 15.0237 12.29 15.0237 13.0711 14.2426L14.4853 12.8284L15.4493 14.9492C15.8382 15.8048 16.962 16.0086 17.6266 15.344C17.879 15.0916 18.0208 14.7492 18.0208 14.3922Z" fill="#1F2937"/>
<path d="M12.0481 8.2448L14.9743 5.31856L11.6054 5.09396C11.1887 5.06619 10.7804 5.21961 10.4851 5.51487C9.72398 6.27602 10.0299 7.57208 11.0511 7.91248L12.0481 8.2448Z" fill="#1F2937"/>
<path d="M5.82843 15.7071C6.21895 15.3166 6.21895 14.6834 5.82843 14.2929C5.4379 13.9024 4.80474 13.9024 4.41421 14.2929L2.29289 16.4142C1.90237 16.8047 1.90237 17.4379 2.29289 17.8284C2.68342 18.219 3.31658 18.219 3.70711 17.8284L5.82843 15.7071Z" fill="#1F2937"/>
<path d="M7.94975 17.8284C8.34027 17.4379 8.34027 16.8047 7.94975 16.4142C7.55922 16.0237 6.92606 16.0237 6.53553 16.4142L5.12132 17.8284C4.7308 18.219 4.7308 18.8521 5.12132 19.2426C5.51184 19.6332 6.14501 19.6332 6.53553 19.2426L7.94975 17.8284Z" fill="#1F2937"/>
<path d="M9.36396 20.6569L10.0711 19.9497C10.4616 19.5592 10.4616 18.9261 10.0711 18.5355C9.68054 18.145 9.04738 18.145 8.65685 18.5355L7.94975 19.2426C7.55922 19.6332 7.55922 20.2663 7.94975 20.6569C8.34027 21.0474 8.97344 21.0474 9.36396 20.6569Z" fill="#1F2937"/>
</svg>
