<svg width="24" height="24" viewBox="0 0 24 24" fill="none" xmlns="http://www.w3.org/2000/svg">
<path d="M19.1213 2.70711C17.9498 1.53554 16.0503 1.53554 14.8787 2.70711L12.8787 4.70711C12.3161 5.26972 12 6.03278 12 6.82843V9C12 10.6569 13.3432 12 15 12H19C20.6569 12 22 10.6569 22 9V6.82843C22 6.03278 21.684 5.26972 21.1213 4.70711L19.1213 2.70711Z" fill="#1F2937"/>
<path d="M7.00003 2C6.5113 2 6.02412 2.18449 5.61327 2.41926C5.18509 2.66393 4.75831 3.00926 4.37909 3.43399C3.79797 4.08484 3.29793 4.95835 3.09575 6H2.00003C1.59557 6 1.23093 6.24365 1.07615 6.61732C0.921369 6.99099 1.00692 7.42111 1.29292 7.70711L3.29292 9.70711C3.68345 10.0976 4.31661 10.0976 4.70714 9.70711L6.70714 7.70711C6.99313 7.42111 7.07869 6.99099 6.92391 6.61732C6.76913 6.24365 6.40449 6 6.00003 6H5.15782C5.31363 5.51865 5.57154 5.10138 5.87097 4.76602C6.11675 4.49075 6.37746 4.28608 6.60554 4.15575C6.71899 4.09092 6.81577 4.04938 6.89058 4.02529C6.96037 4.00281 6.99611 4.00028 7.00003 4C7.55231 4 8.00003 3.55229 8.00003 3C8.00003 2.44772 7.55231 2 7.00003 2Z" fill="#1F2937"/>
<path d="M18 18H18.8422C18.6864 18.4814 18.4285 18.8986 18.1291 19.234C17.8833 19.5093 17.6226 19.7139 17.3945 19.8443C17.2811 19.9091 17.1843 19.9506 17.1095 19.9747C17.0397 19.9972 17.0041 19.9997 17.0002 20C16.9997 20 16.9998 20 17.0002 20C16.4479 20 16 20.4477 16 21C16 21.5523 16.4477 22 17 22C17.4888 22 17.9759 21.8155 18.3868 21.5807C18.815 21.3361 19.2417 20.9907 19.621 20.566C20.2021 19.9152 20.7021 19.0417 20.9043 18H22C22.4045 18 22.7691 17.7564 22.9239 17.3827C23.0787 17.009 22.9931 16.5789 22.7071 16.2929L20.7071 14.2929C20.3166 13.9024 19.6834 13.9024 19.2929 14.2929L17.2929 16.2929C17.0069 16.5789 16.9214 17.009 17.0761 17.3827C17.2309 17.7564 17.5956 18 18 18Z" fill="#1F2937"/>
<path d="M6.22631 13.2263L7 14H9.33333L7.20176 12.1729C7.07157 12.0613 6.90574 12 6.73426 12C6.09428 12 5.77377 12.7738 6.22631 13.2263Z" fill="#1F2937"/>
<path d="M10.4667 19.4L7.34164 21.7438C7.11988 21.9101 6.85015 22 6.57295 22C5.62056 22 5.00113 20.9977 5.42705 20.1459L6 19H4C2.89543 19 2 18.1046 2 17V13L4.49615 14.6641C4.82469 14.8831 5.2107 15 5.60555 15H13C13.6667 15 15 15.4 15 17C15 18.6 13.6667 19 13 19H11.6667C11.2339 19 10.8129 19.1404 10.4667 19.4Z" fill="#1F2937"/>
</svg>
