<svg width="24" height="24" viewBox="0 0 24 24" fill="none" xmlns="http://www.w3.org/2000/svg">
<path d="M20.9411 8.0442L17.4602 10.0539C17.1971 10.2058 17.0174 10.469 16.9716 10.7693L16.1523 16.1492C16.1065 16.4495 15.9267 16.7128 15.6637 16.8646L13.8949 17.8858C13.2823 18.2395 12.506 17.8626 12.4052 17.1624L12.0585 14.7561C11.9576 14.0559 11.1814 13.679 10.5687 14.0327L7.22274 15.9645C6.87631 16.1645 6.44401 16.1388 6.1237 15.8992L1.76793 12.6405C1.19308 12.2104 1.24524 11.3327 1.86697 10.9738L3.48248 10.041C3.81051 9.85166 4.21738 9.86386 4.53347 10.0726L5.36798 10.6235C5.68407 10.8322 6.09094 10.8444 6.41897 10.6551L18.4411 3.71408C19.6368 3.02372 21.1658 3.43341 21.8562 4.62914C22.5465 5.82487 22.1368 7.35385 20.9411 8.0442Z" fill="#1F2937"/>
<path d="M12.5284 5.97305L8.41483 8.34805L6.96606 7.3915C6.3457 6.9819 6.37326 6.06265 7.01705 5.69096L8.64688 4.74998C8.91947 4.5926 9.25024 4.57274 9.5397 4.69639L12.5284 5.97305Z" fill="#1F2937"/>
<path d="M5.00001 22L19 22C19.5523 22 20 21.5523 20 21C20 20.4477 19.5523 20 19 20L5.00001 20C4.44773 20 4.00001 20.4477 4.00001 21C4.00001 21.5523 4.44773 22 5.00001 22Z" fill="#1F2937"/>
</svg>
