<svg width="24" height="24" viewBox="0 0 24 24" fill="none" xmlns="http://www.w3.org/2000/svg">
<g clip-path="url(#clip0_1791_2033)">
<path d="M17.4602 12.0539L20.9411 10.0442C22.1368 9.35385 22.5465 7.82488 21.8562 6.62914C21.1658 5.43341 19.6368 5.02373 18.4411 5.71408L6.41896 12.6551C6.09093 12.8445 5.68406 12.8323 5.36797 12.6236L4.53345 12.0726C4.21737 11.8639 3.81049 11.8517 3.48247 12.041L1.86696 12.9738C1.24523 13.3327 1.19307 14.2104 1.76791 14.6405L6.12368 17.8992C6.44399 18.1388 6.87629 18.1645 7.22273 17.9645L10.5687 16.0327C11.1814 15.679 11.9576 16.0559 12.0585 16.7561L12.4051 19.1624C12.506 19.8626 13.2822 20.2396 13.8949 19.8858L15.6636 18.8646C15.9267 18.7128 16.1065 18.4495 16.1522 18.1492L16.9716 12.7694C17.0174 12.469 17.1971 12.2058 17.4602 12.0539Z" fill="#1F2937"/>
<path d="M8.41481 10.3481L12.5284 7.97306L9.53968 6.69639C9.25023 6.57275 8.91945 6.5926 8.64686 6.74998L7.01703 7.69096C6.37325 8.06265 6.34568 8.9819 6.96604 9.3915L8.41481 10.3481Z" fill="#1F2937"/>
</g>
<defs>
<clipPath id="clip0_1791_2033">
<rect width="24" height="24" fill="white"/>
</clipPath>
</defs>
</svg>
