<svg width="24" height="24" viewBox="0 0 24 24" fill="none" xmlns="http://www.w3.org/2000/svg">
<path fill-rule="evenodd" clip-rule="evenodd" d="M10.2516 3.0878C11.0136 1.71618 12.9862 1.71618 13.7482 3.0878L22.0487 18.0287C22.7893 19.3617 21.8253 21 20.3004 21H3.69941C2.17444 21 1.21051 19.3617 1.9511 18.0287L10.2516 3.0878ZM12 8C12.5523 8 13 8.44772 13 9V14C13 14.5523 12.5523 15 12 15C11.4477 15 11 14.5523 11 14V9C11 8.44772 11.4477 8 12 8ZM12 16C12.5523 16 13 16.4477 13 17V17.01C13 17.5623 12.5523 18.01 12 18.01C11.4477 18.01 11 17.5623 11 17.01V17C11 16.4477 11.4477 16 12 16Z" fill="#1F2937"/>
</svg>
