<svg width="24" height="24" viewBox="0 0 24 24" fill="none" xmlns="http://www.w3.org/2000/svg">
<path fill-rule="evenodd" clip-rule="evenodd" d="M4 2C4.55228 2 5 2.44772 5 3V21C5 21.5523 4.55228 22 4 22C3.44772 22 3 21.5523 3 21V3C3 2.44772 3.44772 2 4 2ZM6 8C6 6.34315 7.34315 5 9 5H18C19.6569 5 21 6.34315 21 8C21 9.65685 19.6569 11 18 11H9C7.34315 11 6 9.65685 6 8ZM6 16C6 14.3431 7.34315 13 9 13H14C15.6569 13 17 14.3431 17 16C17 17.6569 15.6569 19 14 19H9C7.34315 19 6 17.6569 6 16Z" fill="#1F2937"/>
</svg>
