<svg width="24" height="24" viewBox="0 0 24 24" fill="none" xmlns="http://www.w3.org/2000/svg">
<path fill-rule="evenodd" clip-rule="evenodd" d="M12 2C12.5523 2 13 2.44772 13 3V5H18C19.6569 5 21 6.34315 21 8C21 9.65685 19.6569 11 18 11H13V13H15C16.6569 13 18 14.3431 18 16C18 17.6569 16.6569 19 15 19H13V21C13 21.5523 12.5523 22 12 22C11.4477 22 11 21.5523 11 21V19H9C7.34315 19 6 17.6569 6 16C6 14.3431 7.34315 13 9 13H11V11H6C4.34315 11 3 9.65685 3 8C3 6.34315 4.34315 5 6 5H11V3C11 2.44772 11.4477 2 12 2Z" fill="#1F2937"/>
</svg>
