<svg width="24" height="24" viewBox="0 0 24 24" fill="none" xmlns="http://www.w3.org/2000/svg">
<path fill-rule="evenodd" clip-rule="evenodd" d="M5 6C5 4.34315 6.34314 3 8 3C9.65685 3 11 4.34315 11 6L11 15C11 16.6569 9.65685 18 8 18C6.34315 18 5 16.6569 5 15L5 6ZM13 10C13 8.34315 14.3431 7 16 7C17.6569 7 19 8.34315 19 10V15C19 16.6569 17.6569 18 16 18C14.3431 18 13 16.6569 13 15V10ZM3 19L21 19C21.5523 19 22 19.4477 22 20C22 20.5523 21.5523 21 21 21H3C2.44772 21 2 20.5523 2 20C2 19.4477 2.44772 19 3 19Z" fill="#1F2937"/>
</svg>
