<svg width="24" height="24" viewBox="0 0 24 24" fill="none" xmlns="http://www.w3.org/2000/svg">
<path fill-rule="evenodd" clip-rule="evenodd" d="M16 2H5C3.34315 2 2 3.34315 2 5V19C2 20.6569 3.34315 22 5 22H19C20.6569 22 22 20.6569 22 19V8C22 9.65685 20.6569 11 19 11C17.3431 11 16 9.65685 16 8C14.3431 8 13 6.65685 13 5C13 3.34315 14.3431 2 16 2ZM12 7C12.5523 7 13 7.44772 13 8V16C13 16.5523 12.5523 17 12 17C11.4477 17 11 16.5523 11 16V8C11 7.44772 11.4477 7 12 7ZM8 10C8.55228 10 9 10.4477 9 11V16C9 16.5523 8.55228 17 8 17C7.44772 17 7 16.5523 7 16V11C7 10.4477 7.44772 10 8 10ZM16 13C16.5523 13 17 13.4477 17 14V16C17 16.5523 16.5523 17 16 17C15.4477 17 15 16.5523 15 16V14C15 13.4477 15.4477 13 16 13Z" fill="#1F2937"/>
<path fill-rule="evenodd" clip-rule="evenodd" d="M19 1C19.5523 1 20 1.44772 20 2V4H22C22.5523 4 23 4.44772 23 5C23 5.55228 22.5523 6 22 6H20V8C20 8.55228 19.5523 9 19 9C18.4477 9 18 8.55228 18 8V6H16C15.4477 6 15 5.55228 15 5C15 4.44772 15.4477 4 16 4H18V2C18 1.44772 18.4477 1 19 1Z" fill="#1F2937"/>
</svg>
