<svg width="24" height="24" viewBox="0 0 24 24" fill="none" xmlns="http://www.w3.org/2000/svg">
<path d="M5 2C3.34315 2 2 3.34315 2 5V6C2 6.5451 2.21807 7.03927 2.57174 7.40002H21.4283C21.7819 7.03927 22 6.5451 22 6V5C22 3.34315 20.6569 2 19 2H5Z" fill="#1F2937"/>
<path fill-rule="evenodd" clip-rule="evenodd" d="M21 8.40002H3V13.5H21V8.40002ZM10 9C9.44772 9 9 9.44772 9 10C9 10.5523 9.44772 11 10 11H14C14.5523 11 15 10.5523 15 10C15 9.44772 14.5523 9 14 9H10Z" fill="#1F2937"/>
<path fill-rule="evenodd" clip-rule="evenodd" d="M21 14.5H3V19C3 20.6569 4.34315 22 6 22H18C19.6569 22 21 20.6569 21 19V14.5ZM10 16C9.44772 16 9 16.4477 9 17C9 17.5523 9.44772 18 10 18H14C14.5523 18 15 17.5523 15 17C15 16.4477 14.5523 16 14 16H10Z" fill="#1F2937"/>
</svg>
