<svg width="24" height="24" viewBox="0 0 24 24" fill="none" xmlns="http://www.w3.org/2000/svg">
<path fill-rule="evenodd" clip-rule="evenodd" d="M13.0761 2.61732C13.2309 2.24364 13.5955 2 14 2H19C20.6569 2 22 3.34315 22 5V19C22 20.6569 20.6569 22 19 22H14C13.5955 22 13.2309 21.7564 13.0761 21.3827C12.9213 21.009 13.0069 20.5789 13.2929 20.2929L19.4142 14.1716C19.7893 13.7965 20 13.2878 20 12.7574V11.2426C20 10.7122 19.7893 10.2035 19.4142 9.82843L13.2929 3.70711C13.0069 3.42111 12.9213 2.99099 13.0761 2.61732ZM10.2929 5.29289C10.6834 4.90237 11.3166 4.90237 11.7071 5.29289L14.7071 8.29289L17.7071 11.2929C18.0976 11.6834 18.0976 12.3166 17.7071 12.7071L11.7071 18.7071C11.3166 19.0976 10.6834 19.0976 10.2929 18.7071C9.90237 18.3166 9.90237 17.6834 10.2929 17.2929L12.5858 15H3C2.44772 15 2 14.5523 2 14V10C2 9.44772 2.44772 9 3 9H12.5858L10.2929 6.70711C9.90237 6.31658 9.90237 5.68342 10.2929 5.29289Z" fill="#1F2937"/>
</svg>
