<svg width="24" height="24" viewBox="0 0 24 24" fill="none" xmlns="http://www.w3.org/2000/svg">
<path fill-rule="evenodd" clip-rule="evenodd" d="M21.7071 11.2929C22.0976 11.6834 22.0976 12.3166 21.7071 12.7071L15.7071 18.7071C15.3166 19.0976 14.6834 19.0976 14.2929 18.7071C13.9024 18.3166 13.9024 17.6834 14.2929 17.2929L16.5858 15L10 15C9.73478 15 9.48043 14.8946 9.29289 14.7071C9.10536 14.5196 9 14.2652 9 14L9 10C9 9.44771 9.44771 9 10 9L16.5858 9L14.2929 6.70711C13.9024 6.31658 13.9024 5.68342 14.2929 5.29289C14.6834 4.90237 15.3166 4.90237 15.7071 5.29289L21.7071 11.2929ZM8 2C9.65685 2 11 3.34315 11 5L11 6C11 6.55228 10.5523 7 10 7L8 7C7.44772 7 7 7.44771 7 8L7 16C7 16.5523 7.44772 17 8 17L10 17C10.5523 17 11 17.4477 11 18L11 19C11 20.6569 9.65686 22 8 22L5 22C3.34315 22 2 20.6569 2 19L2 5C2 3.34314 3.34315 2 5 2L8 2Z" fill="#1F2937"/>
</svg>
