<svg width="24" height="24" viewBox="0 0 24 24" fill="none" xmlns="http://www.w3.org/2000/svg">
<path fill-rule="evenodd" clip-rule="evenodd" d="M21.3827 13.0761C21.7564 13.2309 22 13.5955 22 14L22 19C22 20.6569 20.6569 22 19 22L5 22C3.34314 22 2 20.6569 2 19L2 14C2 13.5955 2.24364 13.2309 2.61732 13.0761C2.99099 12.9213 3.42111 13.0069 3.70711 13.2929L9.82843 19.4142C10.2035 19.7893 10.7122 20 11.2426 20L12.7574 20C13.2878 20 13.7965 19.7893 14.1716 19.4142L20.2929 13.2929C20.5789 13.0069 21.009 12.9213 21.3827 13.0761ZM18.7071 10.2929C19.0976 10.6834 19.0976 11.3166 18.7071 11.7071L12.7071 17.7071C12.3166 18.0976 11.6834 18.0976 11.2929 17.7071L5.29289 11.7071C4.90237 11.3166 4.90237 10.6834 5.29289 10.2929C5.68342 9.90237 6.31658 9.90237 6.70711 10.2929L9 12.5858L9 3C9 2.44771 9.44771 2 10 2L14 2C14.5523 2 15 2.44771 15 3L15 12.5858L17.2929 10.2929C17.6834 9.90237 18.3166 9.90237 18.7071 10.2929Z" fill="#1F2937"/>
</svg>
