<svg width="24" height="24" viewBox="0 0 24 24" fill="none" xmlns="http://www.w3.org/2000/svg">
<path fill-rule="evenodd" clip-rule="evenodd" d="M12 3C12.5523 3 13 3.44772 13 4L13 11H16C16.4045 11 16.7691 11.2436 16.9239 11.6173C17.0787 11.991 16.9931 12.4211 16.7071 12.7071L12.7071 16.7071C12.5196 16.8946 12.2652 17 12 17C11.7348 17 11.4804 16.8946 11.2929 16.7071L7.29289 12.7071C7.0069 12.4211 6.92134 11.991 7.07612 11.6173C7.2309 11.2436 7.59554 11 8 11H11L11 4C11 3.44772 11.4477 3 12 3ZM3 20C3 19.4477 3.44772 19 4 19H20C20.5523 19 21 19.4477 21 20C21 20.5523 20.5523 21 20 21H4C3.44772 21 3 20.5523 3 20Z" fill="#1F2937"/>
</svg>
