<svg width="24" height="24" viewBox="0 0 24 24" fill="none" xmlns="http://www.w3.org/2000/svg">
<path fill-rule="evenodd" clip-rule="evenodd" d="M14 5C14 2.23858 16.2386 0 19 0C21.7614 0 24 2.23858 24 5C24 7.76142 21.7614 10 19 10C18.5076 10 18.0318 9.92881 17.5823 9.79617C17.8519 10.4784 18 11.2219 18 12C18 15.3137 15.3137 18 12 18C8.68629 18 6 15.3137 6 12C6 8.68629 8.68629 6 12 6C12.7781 6 13.5216 6.14811 14.2038 6.41767C14.0712 5.96823 14 5.49243 14 5ZM12 3C10.7182 3 9.50142 3.26737 8.40037 3.74844C7.89428 3.96956 7.30477 3.73855 7.08365 3.23246C6.86253 2.72637 7.09354 2.13685 7.59963 1.91573C8.94843 1.32642 10.4374 1 12 1C12.5523 1 13 1.44772 13 2C13 2.55228 12.5523 3 12 3ZM5.63604 4.22183C6.02656 4.61235 6.02656 5.24551 5.63604 5.63604C4.84548 6.4266 4.20173 7.36291 3.74844 8.40037C3.26737 9.50142 3 10.7182 3 12C3 12.5523 2.55228 13 2 13C1.44772 13 1 12.5523 1 12C1 10.4374 1.32642 8.94843 1.91573 7.59963C2.47037 6.3302 3.25713 5.18652 4.22183 4.22183C4.61235 3.8313 5.24551 3.8313 5.63604 4.22183ZM17 5C17 4.44772 17.4477 4 18 4H20C20.5523 4 21 4.44772 21 5C21 5.55228 20.5523 6 20 6H18C17.4477 6 17 5.55228 17 5ZM12 9.33333C12.5523 9.33333 13 9.78105 13 10.3333V11H13.6667C14.219 11 14.6667 11.4477 14.6667 12C14.6667 12.5523 14.219 13 13.6667 13H13V13.6667C13 14.219 12.5523 14.6667 12 14.6667C11.4477 14.6667 11 14.219 11 13.6667V13H10.3333C9.78105 13 9.33333 12.5523 9.33333 12C9.33333 11.4477 9.78105 11 10.3333 11H11V10.3333C11 9.78105 11.4477 9.33333 12 9.33333ZM22 11C22.5523 11 23 11.4477 23 12C23 13.5626 22.6736 15.0516 22.0843 16.4004C21.8631 16.9065 21.2736 17.1375 20.7675 16.9164C20.2615 16.6952 20.0304 16.1057 20.2516 15.5996C20.7326 14.4986 21 13.2818 21 12C21 11.4477 21.4477 11 22 11ZM2.43172 15.0836C2.9378 14.8625 3.52732 15.0935 3.74844 15.5996C4.20172 16.6371 4.84548 17.5734 5.63604 18.364C6.4266 19.1545 7.36291 19.7983 8.40037 20.2516C8.90646 20.4727 9.13747 21.0622 8.91636 21.5683C8.69524 22.0744 8.10572 22.3054 7.59963 22.0843C6.3302 21.5296 5.18652 20.7429 4.22183 19.7782C3.25713 18.8135 2.47037 17.6698 1.91573 16.4004C1.69461 15.8943 1.92563 15.3048 2.43172 15.0836ZM19.7782 18.364C20.1687 18.7545 20.1687 19.3876 19.7782 19.7782C18.8135 20.7429 17.6698 21.5296 16.4004 22.0843C15.0516 22.6736 13.5626 23 12 23C11.4477 23 11 22.5523 11 22C11 21.4477 11.4477 21 12 21C13.2818 21 14.4986 20.7326 15.5996 20.2516C16.6371 19.7983 17.5734 19.1545 18.364 18.364C18.7545 17.9734 19.3876 17.9734 19.7782 18.364Z" fill="#1F2937"/>
</svg>
