<svg width="24" height="24" viewBox="0 0 24 24" fill="none" xmlns="http://www.w3.org/2000/svg">
<path fill-rule="evenodd" clip-rule="evenodd" d="M1 12C1 5.92487 5.92487 1 12 1C18.0751 1 23 5.92487 23 12C23 18.0751 18.0751 23 12 23C5.92487 23 1 18.0751 1 12ZM9 6C9.55228 6 10 6.44772 10 7V14C10 15.1046 10.8954 16 12 16C13.1046 16 14 15.1046 14 14V8.5C14 8.22386 13.7761 8 13.5 8C13.2239 8 13 8.22386 13 8.5V14C13 14.5523 12.5523 15 12 15C11.4477 15 11 14.5523 11 14V8.5C11 7.11929 12.1193 6 13.5 6C14.8807 6 16 7.11929 16 8.5V14C16 16.2091 14.2091 18 12 18C9.79086 18 8 16.2091 8 14V7C8 6.44772 8.44772 6 9 6Z" fill="#1F2937"/>
</svg>
