<svg width="24" height="24" viewBox="0 0 24 24" fill="none" xmlns="http://www.w3.org/2000/svg">
<path d="M10.7273 1.41425C10.9925 1.41425 11.2469 1.5196 11.4344 1.70714L18.3386 8.61128L22.3573 9.95084C22.686 10.0604 22.9346 10.3325 23.0143 10.6698C23.0939 11.0071 22.9932 11.3616 22.7481 11.6066L16.3842 17.9706C16.1391 18.2157 15.7846 18.3164 15.4473 18.2367C15.11 18.1571 14.838 17.9085 14.7284 17.5797L13.5 13.8945C13.4988 13.7923 13.4666 13.6904 13.4032 13.6043L13.3888 13.561L12.8486 13.0208L12.8383 13.0312L8.59564 8.78856L8.606 8.77821L6.48468 6.65689C6.29714 6.46935 6.19178 6.215 6.19178 5.94978C6.19178 5.68456 6.29714 5.43021 6.48468 5.24267L10.0202 1.70714C10.2077 1.5196 10.4621 1.41425 10.7273 1.41425Z" fill="#1F2937"/>
<path d="M7.88854 9.49567L1.53493 15.8493C0.363357 17.0208 0.363356 18.9203 1.53493 20.0919C2.7065 21.2635 4.606 21.2635 5.77757 20.0919L12.1312 13.7383L7.88854 9.49567Z" fill="#1F2937"/>
</svg>
