<svg width="24" height="24" viewBox="0 0 24 24" fill="none" xmlns="http://www.w3.org/2000/svg">
<path fill-rule="evenodd" clip-rule="evenodd" d="M10 4C10 3.44772 9.55228 3 9 3C8.44772 3 8 3.44772 8 4V5.10002C5.71776 5.56329 4 7.58104 4 10V18C4 19.6569 5.34315 21 7 21H17C18.6569 21 20 19.6569 20 18V10C20 7.58104 18.2822 5.56329 16 5.10002V4C16 3.44772 15.5523 3 15 3C14.4477 3 14 3.44772 14 4V5H10V4ZM8 12C7.44772 12 7 12.4477 7 13C7 13.5523 7.44772 14 8 14H14C14.5523 14 15 14.4477 15 15V16C15 16.5523 15.4477 17 16 17C16.5523 17 17 16.5523 17 16V15C17 13.3431 15.6569 12 14 12H8Z" fill="#1F2937"/>
</svg>
