<svg width="24" height="24" viewBox="0 0 24 24" fill="none" xmlns="http://www.w3.org/2000/svg">
<path fill-rule="evenodd" clip-rule="evenodd" d="M11.9093 4.14195C11.9058 4.14483 11.9024 4.14772 11.8989 4.15062C9.73804 2.33311 6.50791 2.44121 4.47419 4.47493C2.44049 6.50863 2.33238 9.73876 4.14988 11.8997C4.14705 11.903 4.14423 11.9064 4.14141 11.9097L11.8649 19.6771C11.8763 19.6677 11.8876 19.6582 11.8989 19.6487C14.0598 21.466 17.2898 21.3578 19.3234 19.3242C21.3571 17.2905 21.4652 14.0606 19.6479 11.8997C19.6528 11.8939 19.6576 11.8881 19.6624 11.8824L11.9093 4.14195ZM11.1856 9.06412C11.5761 8.67361 12.2093 8.67363 12.5998 9.06417L12.6068 9.07124C12.9974 9.46177 12.9973 10.0949 12.6068 10.4855C12.2163 10.876 11.5831 10.8759 11.1926 10.4854L11.1855 10.4783C10.795 10.0878 10.795 9.45463 11.1856 9.06412ZM9.06444 11.1857C9.45496 10.7952 10.0881 10.7952 10.4787 11.1857L10.4857 11.1928C10.8762 11.5833 10.8762 12.2165 10.4857 12.607C10.0952 12.9975 9.46203 12.9975 9.07151 12.607L9.06444 12.5999C8.67391 12.2094 8.67391 11.5762 9.06444 11.1857ZM13.3067 11.1857C13.6972 10.7952 14.3304 10.7952 14.7209 11.1858L14.728 11.1928C15.1185 11.5834 15.1184 12.2166 14.7279 12.6071C14.3373 12.9976 13.7041 12.9975 13.3137 12.607L13.3066 12.5999C12.9161 12.2093 12.9161 11.5762 13.3067 11.1857ZM11.1856 13.307C11.5761 12.9165 12.2093 12.9166 12.5998 13.3071L12.6069 13.3142C12.9974 13.7047 12.9973 14.3379 12.6068 14.7284C12.2162 15.1189 11.5831 15.1188 11.1926 14.7283L11.1855 14.7212C10.795 14.3307 10.795 13.6975 11.1856 13.307Z" fill="#1F2937"/>
<path d="M20.2386 11.0446L12.7461 3.56434C14.841 2.38958 17.5415 2.69317 19.3235 4.47512C21.1032 6.25483 21.4082 8.95078 20.2386 11.0446Z" fill="#1F2937"/>
<path d="M11.0245 20.2502L3.56355 12.7468C2.38867 14.8418 2.69223 17.5424 4.47422 19.3244C6.24851 21.0986 8.93345 21.4073 11.0245 20.2502Z" fill="#1F2937"/>
</svg>
