<svg width="24" height="24" viewBox="0 0 24 24" fill="none" xmlns="http://www.w3.org/2000/svg">
<path fill-rule="evenodd" clip-rule="evenodd" d="M16.0115 4.9157C16.7602 5.95554 17 7.17331 17 8V9H21C21.5523 9 22 9.44772 22 10C22 10.5523 21.5523 11 21 11H20.905L19.995 20.0995C19.9439 20.6107 19.5138 21 19 21H5C4.48625 21 4.05608 20.6107 4.00496 20.0995L3.09501 11H3C2.44772 11 2 10.5523 2 10C2 9.44772 2.44772 9 3 9H7V8C7 7.17331 7.23978 5.95554 7.98847 4.9157C8.77386 3.82487 10.0741 3 12 3C13.9259 3 15.2261 3.82487 16.0115 4.9157ZM9 8C9 7.49336 9.16022 6.71113 9.61153 6.0843C10.0261 5.50847 10.7259 5 12 5C13.2741 5 13.9739 5.50847 14.3885 6.0843C14.8398 6.71113 15 7.49336 15 8V9H9V8ZM10 14C10 13.4477 9.55228 13 9 13C8.44772 13 8 13.4477 8 14V16C8 16.5523 8.44772 17 9 17C9.55228 17 10 16.5523 10 16V14ZM13 14C13 13.4477 12.5523 13 12 13C11.4477 13 11 13.4477 11 14V16C11 16.5523 11.4477 17 12 17C12.5523 17 13 16.5523 13 16V14ZM16 14C16 13.4477 15.5523 13 15 13C14.4477 13 14 13.4477 14 14V16C14 16.5523 14.4477 17 15 17C15.5523 17 16 16.5523 16 16V14Z" fill="#1F2937"/>
</svg>
