<svg width="24" height="24" viewBox="0 0 24 24" fill="none" xmlns="http://www.w3.org/2000/svg">
<path d="M4 3C3.44772 3 3 3.44772 3 4C3 4.55228 3.44772 5 4 5H5V7H10C10.5523 7 11 7.44772 11 8C11 8.55228 10.5523 9 10 9H5V10H8C8.55228 10 9 10.4477 9 11C9 11.5523 8.55228 12 8 12H5V13H10C10.5523 13 11 13.4477 11 14C11 14.5523 10.5523 15 10 15H5V18C5 19.6569 6.34315 21 8 21H15C13.3431 21 12 19.6569 12 18C12 16.3431 13.3431 15 15 15C15 13.3431 16.3431 12 18 12C18.3506 12 18.6872 12.0602 19 12.1707V5H20C20.5523 5 21 4.55228 21 4C21 3.44772 20.5523 3 20 3H4Z" fill="#1F2937"/>
<path d="M19 15C19 14.4477 18.5523 14 18 14C17.4477 14 17 14.4477 17 15V17H15C14.4477 17 14 17.4477 14 18C14 18.5523 14.4477 19 15 19H17V21C17 21.5523 17.4477 22 18 22C18.5523 22 19 21.5523 19 21V19H21C21.5523 19 22 18.5523 22 18C22 17.4477 21.5523 17 21 17H19V15Z" fill="#1F2937"/>
</svg>
