<svg width="24" height="24" viewBox="0 0 24 24" fill="none" xmlns="http://www.w3.org/2000/svg">
<path d="M10 2C10.6109 2 11 2.57916 11 3.19008V11.7084C10.649 12.106 10.3369 12.5389 10.0697 13.0009C10.046 13.0003 10.0228 13 10 13C9.44772 13 9 13.4477 9 14C9 14.2919 9.12504 14.5545 9.32447 14.7373C9.1133 15.4548 9 16.2142 9 17C9 18.7933 9.59009 20.4489 10.5867 21.783C10.4285 21.9179 10.23 22 10 22C8.69246 22 7.5803 21.1635 7.16946 19.9965C7.11326 19.9988 7.05676 20 7 20C4.79086 20 3 18.2091 3 16C3 15.3145 3.17301 14.6684 3.47728 14.104C2.57631 13.371 2 12.2535 2 10.9999C2 9.50044 2.8247 8.19545 4.04331 7.51068C4.01483 7.34474 3.99999 7.17412 3.99999 7C3.99999 5.34315 5.34313 4 6.99999 4C7.05669 4 7.11306 4.00158 7.16905 4.00471C7.57955 2.83706 8.69202 2 10 2Z" fill="#1F2937"/>
<path d="M21.9922 10.7484C21.9058 9.35534 21.1066 8.15687 19.9567 7.51068C19.9852 7.34475 20 7.17412 20 7C20 5.34315 18.6569 4 17 4C16.9433 4 16.8869 4.00158 16.831 4.00471C16.4204 2.83706 15.308 2 14 2C13.3891 2 13 2.57916 13 3.19008V8.16647C13.3668 8.04514 13.7196 8 14 8C14.5523 8 15 8.44771 15 9C15 9.09028 14.988 9.17777 14.9656 9.26097C15.6152 9.09068 16.297 9 17 9C18.8883 9 20.6238 9.65424 21.9922 10.7484Z" fill="#1F2937"/>
<path d="M18 12C18 11.4477 17.5523 11 17 11C16.4477 11 16 11.4477 16 12C16 12.6733 15.7898 13.7055 15.1885 14.5407C14.6239 15.3249 13.6741 16 12 16C11.4477 16 11 16.4477 11 17C11 17.5523 11.4477 18 12 18C12.6733 18 13.7055 18.2102 14.5407 18.8115C15.3249 19.3761 16 20.3259 16 22C16 22.5523 16.4477 23 17 23C17.5523 23 18 22.5523 18 22C18 20.3259 18.6751 19.3761 19.4593 18.8115C20.2945 18.2102 21.3267 18 22 18C22.5523 18 23 17.5523 23 17C23 16.4477 22.5523 16 22 16C20.3259 16 19.3761 15.3249 18.8115 14.5407C18.2102 13.7055 18 12.6733 18 12Z" fill="#1F2937"/>
</svg>
