<svg width="24" height="24" viewBox="0 0 24 24" fill="none" xmlns="http://www.w3.org/2000/svg">
<path d="M4 8C4 7.44772 3.55228 7 3 7C2.44772 7 2 7.44772 2 8V8.001C2 8.55328 2.44772 9.001 3 9.001C3.55228 9.001 4 8.55328 4 8.001V8Z" fill="#1F2937"/>
<path d="M4 11C4 10.4477 3.55228 10 3 10C2.44772 10 2 10.4477 2 11V16C2 16.5523 2.44772 17 3 17C3.55228 17 4 16.5523 4 16V11Z" fill="#1F2937"/>
<path fill-rule="evenodd" clip-rule="evenodd" d="M5 12C5 9.36818 6.89347 7 9.5 7C12.1065 7 14 9.36818 14 12C14 14.6318 12.1065 17 9.5 17C6.89347 17 5 14.6318 5 12ZM9.5 9C8.24054 9 7 10.2135 7 12C7 13.7865 8.24054 15 9.5 15C10.7595 15 12 13.7865 12 12C12 10.2135 10.7595 9 9.5 9Z" fill="#1F2937"/>
<path d="M18 7C16.3431 7 15 8.34315 15 10C15 11.6569 16.3431 13 18 13H19C19.5523 13 20 13.4477 20 14C20 14.5523 19.5523 15 19 15H16C15.4477 15 15 15.4477 15 16C15 16.5523 15.4477 17 16 17H19C20.6569 17 22 15.6569 22 14C22 12.3431 20.6569 11 19 11H18C17.4477 11 17 10.5523 17 10C17 9.44772 17.4477 9 18 9H21C21.5523 9 22 8.55228 22 8C22 7.44772 21.5523 7 21 7H18Z" fill="#1F2937"/>
</svg>
