<svg width="24" height="24" viewBox="0 0 24 24" fill="none" xmlns="http://www.w3.org/2000/svg">
<path d="M1.98847 5.9157C2.77386 4.82487 4.07408 4 6 4H12C13.9259 4 15.2261 4.82487 16.0115 5.9157C16.7602 6.95554 17 8.17331 17 9C17 10.4453 16.2616 11.8988 15 12.6383V19C15 19.5523 14.5523 20 14 20H4C3.44772 20 3 19.5523 3 19V12.647C1.75493 11.9483 1 10.6112 1 9C1 8.17331 1.23978 6.95554 1.98847 5.9157Z" fill="#1F2937"/>
<path d="M15.7324 20H20C20.5523 20 21 19.5523 21 19V13.5H16V19C16 19.3643 15.9026 19.7058 15.7324 20Z" fill="#1F2937"/>
<path d="M16.7057 12.5H21.2179C22.3462 11.7272 23 10.36 23 9C23 8.17331 22.7602 6.95554 22.0115 5.9157C21.2261 4.82487 19.9259 4 18 4H15.4624C16.0055 4.37054 16.4586 4.82523 16.8231 5.33139C17.7206 6.57794 18 8.01359 18 9C18 10.2534 17.5467 11.53 16.7057 12.5Z" fill="#1F2937"/>
</svg>
