<svg width="24" height="24" viewBox="0 0 24 24" fill="none" xmlns="http://www.w3.org/2000/svg">
<path fill-rule="evenodd" clip-rule="evenodd" d="M2 5C2 3.34315 3.34315 2 5 2H19C20.6569 2 22 3.34315 22 5V8.5L18.7901 8.5C17.9214 8.17669 16.9813 8 16 8C15.0187 8 14.0786 8.17669 13.2099 8.5L2 8.5V5ZM5 6C5 5.44772 5.44772 5 6 5H6.01C6.56228 5 7.01 5.44772 7.01 6C7.01 6.55228 6.56228 7 6.01 7H6C5.44772 7 5 6.55228 5 6ZM8 6C8 5.44772 8.44772 5 9 5H9.01C9.56228 5 10.01 5.44772 10.01 6C10.01 6.55228 9.56228 7 9.01 7H9C8.44772 7 8 6.55228 8 6Z" fill="#1F2937"/>
<path d="M11.3353 9.5L2 9.5V19C2 20.6569 3.34315 22 5 22H10.7084C9.04751 20.5341 8 18.3894 8 16C8 13.3224 9.31542 10.9521 11.3353 9.5Z" fill="#1F2937"/>
<path d="M22 10.7084V9.5H20.6647C21.1541 9.85179 21.602 10.2575 22 10.7084Z" fill="#1F2937"/>
<path fill-rule="evenodd" clip-rule="evenodd" d="M15.175 10C12.3994 10.3823 10.2266 12.6661 10 15.5017H12.9331C12.9702 13.4144 13.7036 11.3888 15.175 10ZM10 16.4836C10.2298 19.3583 12.4597 21.6659 15.2902 22C13.9063 20.4319 13.134 18.4483 12.9665 16.4836H10ZM16.7098 22C19.5403 21.6659 21.7702 19.3583 22 16.4836H19.0335C18.866 18.4483 18.0937 20.4319 16.7098 22ZM22 15.5017C21.7734 12.6661 19.6006 10.3823 16.825 10C18.2964 11.3888 19.0298 13.4144 19.0669 15.5017H22ZM16 21.3243C14.7982 19.9511 14.1119 18.215 13.9475 16.4836H18.0525C17.8881 18.215 17.2018 19.9511 16 21.3243ZM16 10.5743C14.6609 11.7429 13.9488 13.5508 13.9104 15.5017H18.0896C18.0512 13.5508 17.3391 11.7429 16 10.5743Z" fill="#1F2937"/>
</svg>
