<svg width="24" height="24" viewBox="0 0 24 24" fill="none" xmlns="http://www.w3.org/2000/svg">
<path fill-rule="evenodd" clip-rule="evenodd" d="M15 19V6C15 4.34315 13.6569 3 12 3H6C4.34315 3 3 4.34315 3 6V19H2C1.44772 19 1 19.4477 1 20C1 20.5523 1.44772 21 2 21H22.5C23.0523 21 23.5 20.5523 23.5 20C23.5 19.4477 23.0523 19 22.5 19H21V12C21 10.3431 19.6569 9 18 9H17C16.4477 9 16 9.44772 16 10V19H15ZM7 8C7 7.44772 7.44772 7 8 7H10C10.5523 7 11 7.44772 11 8C11 8.55228 10.5523 9 10 9H8C7.44772 9 7 8.55228 7 8ZM7 12C7 11.4477 7.44772 11 8 11H10C10.5523 11 11 11.4477 11 12C11 12.5523 10.5523 13 10 13H8C7.44772 13 7 12.5523 7 12ZM7 16C7 15.4477 7.44772 15 8 15H10C10.5523 15 11 15.4477 11 16C11 16.5523 10.5523 17 10 17H8C7.44772 17 7 16.5523 7 16Z" fill="#1F2937"/>
</svg>
