<svg width="24" height="24" viewBox="0 0 24 24" fill="none" xmlns="http://www.w3.org/2000/svg">
<path d="M9 3C9 2.44772 8.55228 2 8 2C7.44772 2 7 2.44772 7 3V4H6C4.34315 4 3 5.34315 3 7V8H21V7C21 5.34315 19.6569 4 18 4H17V3C17 2.44772 16.5523 2 16 2C15.4477 2 15 2.44772 15 3V4H9V3Z" fill="#1F2937"/>
<path d="M3 19V10H21V13.5367C20.1375 12.6915 18.8828 12 17.25 12C15.3783 12 14.0063 12.8374 13.1148 13.7342C12.5116 13.9056 11.8763 14.1849 11.2783 14.6154C9.93293 15.5841 9 17.1722 9 19.25C9 20.2964 9.23661 21.2186 9.64335 22H6C4.34315 22 3 20.6569 3 19Z" fill="#1F2937"/>
<path d="M17.25 14C15.7412 14 14.7158 14.843 14.1784 15.5453C13.6394 15.6278 13.0103 15.8328 12.4469 16.2385C11.6165 16.8364 11 17.8241 11 19.25C11 20.6759 11.6165 21.6636 12.4469 22.2615C13.2264 22.8227 14.1316 23 14.75 23H19.75C20.285 23 21.0653 22.8477 21.7406 22.3615C22.4668 21.8386 23 20.9759 23 19.75C23 18.5241 22.4668 17.6614 21.7406 17.1385C21.3725 16.8735 20.9733 16.7077 20.5996 16.6117C20.467 16.1902 20.2485 15.7508 19.9506 15.3613C19.4007 14.6422 18.5045 14 17.25 14Z" fill="#1F2937"/>
</svg>
