<svg width="24" height="24" viewBox="0 0 24 24" fill="none" xmlns="http://www.w3.org/2000/svg">
<path d="M19 2C19 1.44772 18.5523 1 18 1C17.4477 1 17 1.44772 17 2C17 3.27408 16.4915 3.97386 15.9157 4.38847C15.2889 4.83978 14.5066 5 14 5C13.4477 5 13 5.44772 13 6C13 6.55228 13.4477 7 14 7C15.2741 7 15.9739 7.50847 16.3885 8.0843C16.8398 8.71113 17 9.49336 17 10C17 10.5523 17.4477 11 18 11C18.5523 11 19 10.5523 19 10C19 8.72592 19.5085 8.02614 20.0843 7.61153C20.7111 7.16022 21.4934 7 22 7C22.5523 7 23 6.55228 23 6C23 5.44772 22.5523 5 22 5C20.7259 5 20.0261 4.49153 19.6115 3.9157C19.1602 3.28887 19 2.50664 19 2Z" fill="#1F2937"/>
<path d="M13.9296 3L13.9647 3.0002C12.3241 3.01914 11 4.35494 11 6C11 6.7709 11.2908 7.47388 11.7686 8.00526C9.1146 8.12615 7 10.3161 7 13C7 15.7614 9.23858 18 12 18C14.7614 18 17 15.7614 17 13C17 12.9425 16.999 12.8853 16.9971 12.8283C17.3107 12.9395 17.6483 13 18 13C19.6569 13 21 11.6569 21 10C21 9.63581 21.0706 9.46445 21.1037 9.40022C21.1362 9.33723 21.1785 9.28819 21.2529 9.2346C21.3426 9.17003 21.4743 9.10601 21.6373 9.0594C21.8027 9.01207 21.9399 9 22 9V18C22 19.6569 20.6569 21 19 21H5C3.34315 21 2 19.6569 2 18V9C2 7.34315 3.34315 6 5 6H5.92963C6.26399 6 6.57622 5.8329 6.76168 5.5547L7.57422 4.3359C8.13061 3.5013 9.06731 3 10.0704 3H13.9296Z" fill="#1F2937"/>
<path d="M9 13C9 11.3431 10.3431 10 12 10C13.6569 10 15 11.3431 15 13C15 14.6569 13.6569 16 12 16C10.3431 16 9 14.6569 9 13Z" fill="#1F2937"/>
</svg>
