<svg width="24" height="24" viewBox="0 0 24 24" fill="none" xmlns="http://www.w3.org/2000/svg">
<path d="M5 2C3.34315 2 2 3.34315 2 5V8C2 8.94802 2.43974 9.79334 3.12637 10.3431C3.39832 10.4445 3.69268 10.5 4 10.5H20C20.3073 10.5 20.6017 10.4445 20.8736 10.3431C21.5603 9.79334 22 8.94802 22 8V5C22 3.34315 20.6569 2 19 2H18.5C17.1193 2 16 3.11929 16 4.5C16 4.77614 15.7761 5 15.5 5C15.2239 5 15 4.77614 15 4.5C15 3.11929 13.8807 2 12.5 2H11.5C10.1193 2 9 3.11929 9 4.5C9 4.77614 8.77614 5 8.5 5C8.22386 5 8 4.77614 8 4.5C8 3.11929 6.88071 2 5.5 2H5Z" fill="#1F2937"/>
<path fill-rule="evenodd" clip-rule="evenodd" d="M20 11.5H4L4 19C4 20.6569 5.34315 22 7 22H17C18.6569 22 20 20.6569 20 19V11.5ZM12 17C12.5523 17 13 17.4477 13 18V20H11V18C11 17.4477 11.4477 17 12 17Z" fill="#1F2937"/>
</svg>
