<svg width="24" height="24" viewBox="0 0 24 24" fill="none" xmlns="http://www.w3.org/2000/svg">
<path fill-rule="evenodd" clip-rule="evenodd" d="M2.29289 2.29289C2.68342 1.90237 3.31658 1.90237 3.70711 2.29289L5.69415 4.27994C5.70249 4.28799 5.71068 4.29619 5.71872 4.30451L21.7071 20.2929C22.0976 20.6834 22.0976 21.3166 21.7071 21.7071C21.3166 22.0976 20.6834 22.0976 20.2929 21.7071L18.5858 20H5C3.34315 20 2 18.6569 2 17V13H11.5858L10.5858 12H2.21922L3.89254 5.30675L3.79289 5.20711C3.79287 5.20708 3.79292 5.20713 3.79289 5.20711L2.29289 3.70711C1.90237 3.31658 1.90237 2.68342 2.29289 2.29289ZM13.5858 15H6C5.44772 15 5 15.4477 5 16C5 16.5523 5.44772 17 6 17H15.5858L13.5858 15Z" fill="#1F2937"/>
<path d="M16.5858 13H22V16C22 16.4045 21.7564 16.7691 21.3827 16.9239C21.009 17.0787 20.5789 16.9931 20.2929 16.7071L16.5858 13Z" fill="#1F2937"/>
<path d="M15.5858 12H21.7808L20.3489 6.27239C20.015 4.93689 18.8151 4 17.4384 4H10C9.59554 4 9.2309 4.24364 9.07612 4.61732C8.92134 4.99099 9.0069 5.42111 9.29289 5.70711L15.5858 12Z" fill="#1F2937"/>
</svg>
