<svg width="24" height="24" viewBox="0 0 24 24" fill="none" xmlns="http://www.w3.org/2000/svg">
<path d="M6.56155 3C5.18495 3 3.985 3.93689 3.65113 5.27239L2.21922 11H21.7808L20.3489 5.27239C20.015 3.93689 18.815 3 17.4384 3H6.56155Z" fill="#1F2937"/>
<path d="M22 12H2V16C2 17.6569 3.34315 19 5 19H8.22506C7.39304 18.2145 6.80602 17.1723 6.59069 16H6C5.44772 16 5 15.5523 5 15C5 14.4477 5.44772 14 6 14H18C18.5523 14 19 14.4477 19 15C19 15.5523 18.5523 16 18 16H17.4093C17.194 17.1723 16.607 18.2145 15.7749 19H19C20.6569 19 22 17.6569 22 16V12Z" fill="#1F2937"/>
<path d="M14.0636 19C15.2252 18.3995 16.0917 17.308 16.3885 16C16.4256 15.8365 16.4538 15.6697 16.4725 15.5H7.52746C7.54622 15.6697 7.57442 15.8365 7.61151 16C7.9083 17.308 8.77483 18.3995 9.9364 19C10.5545 19.3195 11.2562 19.5 12 19.5C12.7438 19.5 13.4455 19.3195 14.0636 19Z" fill="#1F2937"/>
</svg>
