<svg width="24" height="24" viewBox="0 0 24 24" fill="none" xmlns="http://www.w3.org/2000/svg">
<path fill-rule="evenodd" clip-rule="evenodd" d="M2 5C2 3.34315 3.34315 2 5 2H19C20.6569 2 22 3.34315 22 5V19C22 20.6569 20.6569 22 19 22H5C3.34315 22 2 20.6569 2 19V5ZM5 4C4.44772 4 4 4.44772 4 5V19C4 19.5523 4.44772 20 5 20H19C19.5523 20 20 19.5523 20 19V5C20 4.44772 19.5523 4 19 4H5ZM7 6C7.55228 6 8 6.44772 8 7V15C8 15.5523 8.44772 16 9 16H17C17.5523 16 18 16.4477 18 17C18 17.5523 17.5523 18 17 18H9C7.34315 18 6 16.6569 6 15V7C6 6.44772 6.44772 6 7 6ZM13 8C13.5523 8 14 8.44772 14 9V14C14 14.5523 13.5523 15 13 15C12.4477 15 12 14.5523 12 14V9C12 8.44772 12.4477 8 13 8ZM10 11C10.5523 11 11 11.4477 11 12V14C11 14.5523 10.5523 15 10 15C9.44772 15 9 14.5523 9 14V12C9 11.4477 9.44772 11 10 11ZM16 12C16.5523 12 17 12.4477 17 13V14C17 14.5523 16.5523 15 16 15C15.4477 15 15 14.5523 15 14V13C15 12.4477 15.4477 12 16 12Z" fill="#1F2937"/>
</svg>
