<svg width="24" height="24" viewBox="0 0 24 24" fill="none" xmlns="http://www.w3.org/2000/svg">
<path fill-rule="evenodd" clip-rule="evenodd" d="M4 3C4.55228 3 5 3.44772 5 4V18C5 18.5523 5.44772 19 6 19H20C20.5523 19 21 19.4477 21 20C21 20.5523 20.5523 21 20 21H6C4.34315 21 3 19.6569 3 18V4C3 3.44772 3.44772 3 4 3ZM13 5C13.5523 5 14 5.44772 14 6V16C14 16.5523 13.5523 17 13 17C12.4477 17 12 16.5523 12 16V6C12 5.44772 12.4477 5 13 5ZM9 8C9.55228 8 10 8.44772 10 9V16C10 16.5523 9.55228 17 9 17C8.44772 17 8 16.5523 8 16V9C8 8.44772 8.44772 8 9 8ZM17 11C17.5523 11 18 11.4477 18 12V16C18 16.5523 17.5523 17 17 17C16.4477 17 16 16.5523 16 16V12C16 11.4477 16.4477 11 17 11Z" fill="#1F2937"/>
</svg>
