<svg width="24" height="24" viewBox="0 0 24 24" fill="none" xmlns="http://www.w3.org/2000/svg">
<path fill-rule="evenodd" clip-rule="evenodd" d="M10 4C9.44772 4 9 4.44772 9 5C9 5.55228 9.44772 6 10 6H14C14.5523 6 15 5.55228 15 5C15 4.44772 14.5523 4 14 4H10ZM7.17071 4C7.58254 2.83481 8.69378 2 10 2H14C15.3062 2 16.4175 2.83481 16.8293 4H18C19.6569 4 21 5.34315 21 7V19C21 20.6569 19.6569 22 18 22H6C4.34315 22 3 20.6569 3 19V7C3 5.34315 4.34315 4 6 4H7.17071ZM7 11C7 10.4477 7.44772 10 8 10H8.01C8.56228 10 9.01 10.4477 9.01 11C9.01 11.5523 8.56228 12 8.01 12H8C7.44772 12 7 11.5523 7 11ZM7 14C7 13.4477 7.44772 13 8 13H8.01C8.56228 13 9.01 13.4477 9.01 14C9.01 14.5523 8.56228 15 8.01 15H8C7.44772 15 7 14.5523 7 14ZM7 17C7 16.4477 7.44772 16 8 16H8.01C8.56228 16 9.01 16.4477 9.01 17C9.01 17.5523 8.56228 18 8.01 18H8C7.44772 18 7 17.5523 7 17Z" fill="#1F2937"/>
</svg>
