<svg width="24" height="24" viewBox="0 0 24 24" fill="none" xmlns="http://www.w3.org/2000/svg">
<path fill-rule="evenodd" clip-rule="evenodd" d="M10 2C8.69378 2 7.58254 2.83481 7.17071 4H6C4.34315 4 3 5.34315 3 7V19C3 20.6569 4.34315 22 6 22H10.1714C10.0598 21.6844 10 21.3471 10 21V15C10 12.2386 12.2386 10 15 10H19C19.7111 10 20.3875 10.1484 21 10.416V7C21 5.34315 19.6569 4 18 4H16.8293C16.4175 2.83481 15.3062 2 14 2H10ZM9 5C9 4.44772 9.44772 4 10 4H14C14.5523 4 15 4.44772 15 5C15 5.55228 14.5523 6 14 6H10C9.44772 6 9 5.55228 9 5Z" fill="#1F2937"/>
<path fill-rule="evenodd" clip-rule="evenodd" d="M12 15C12 13.3431 13.3431 12 15 12H19C20.6569 12 22 13.3431 22 15V17C22 18.6569 20.6569 20 19 20H15.4142L13.7071 21.7071C13.4211 21.9931 12.991 22.0787 12.6173 21.9239C12.2436 21.7691 12 21.4045 12 21V15Z" fill="#1F2937"/>
</svg>
