<svg width="24" height="24" viewBox="0 0 24 24" fill="none" xmlns="http://www.w3.org/2000/svg">
<path fill-rule="evenodd" clip-rule="evenodd" d="M10 4C9.44772 4 9 4.44772 9 5C9 5.55228 9.44772 6 10 6H14C14.5523 6 15 5.55228 15 5C15 4.44772 14.5523 4 14 4H10ZM7.17071 4C7.58254 2.83481 8.69378 2 10 2H14C15.3062 2 16.4175 2.83481 16.8293 4H18C19.6569 4 21 5.34315 21 7V19C21 20.6569 19.6569 22 18 22H6C4.34315 22 3 20.6569 3 19V7C3 5.34315 4.34315 4 6 4H7.17071ZM12 10C12.5523 10 13 10.4477 13 11V17C13 17.5523 12.5523 18 12 18C11.4477 18 11 17.5523 11 17V11C11 10.4477 11.4477 10 12 10ZM16 12C16.5523 12 17 12.4477 17 13V17C17 17.5523 16.5523 18 16 18C15.4477 18 15 17.5523 15 17V13C15 12.4477 15.4477 12 16 12ZM8 13C8.55228 13 9 13.4477 9 14V17C9 17.5523 8.55228 18 8 18C7.44772 18 7 17.5523 7 17V14C7 13.4477 7.44772 13 8 13Z" fill="#1F2937"/>
</svg>
