<svg width="24" height="24" viewBox="0 0 24 24" fill="none" xmlns="http://www.w3.org/2000/svg">
<path fill-rule="evenodd" clip-rule="evenodd" d="M10 4C9.44772 4 9 4.44772 9 5C9 5.55228 9.44772 6 10 6H14C14.5523 6 15 5.55228 15 5C15 4.44772 14.5523 4 14 4H10ZM7.17071 4C7.58254 2.83481 8.69378 2 10 2H14C15.3062 2 16.4175 2.83481 16.8293 4H18C19.6569 4 21 5.34315 21 7V19C21 20.6569 19.6569 22 18 22H6C4.34315 22 3 20.6569 3 19V7C3 5.34315 4.34315 4 6 4H7.17071ZM16.4472 10.1056C16.9412 10.3526 17.1414 10.9532 16.8944 11.4472L15.7731 13.6899C15.0375 15.161 13.179 15.6545 11.8105 14.7422C11.4862 14.526 11.0494 14.6008 10.8155 14.9126L8.8 17.6C8.46863 18.0418 7.84183 18.1314 7.4 17.8C6.95817 17.4686 6.86863 16.8418 7.2 16.4L9.21553 13.7126C10.0863 12.5516 11.7124 12.2731 12.9199 13.0781C13.2875 13.3231 13.7867 13.1906 13.9842 12.7954L15.1056 10.5528C15.3526 10.0588 15.9532 9.85858 16.4472 10.1056Z" fill="#1F2937"/>
</svg>
