<svg width="24" height="24" viewBox="0 0 24 24" fill="none" xmlns="http://www.w3.org/2000/svg">
<path fill-rule="evenodd" clip-rule="evenodd" d="M2 12C2 6.47715 6.47715 2 12 2C17.5228 2 22 6.47715 22 12C22 17.5228 17.5228 22 12 22C11.3371 22 10.6892 21.9355 10.0624 21.8124C10.4204 21.6836 10.746 21.4851 11.0315 21.2058C11.462 20.7848 11.8877 20.359 12.3135 19.9333C12.4768 19.77 12.6402 19.6066 12.8037 19.4436C12.847 19.4005 12.891 19.3578 12.9349 19.3152C13.0487 19.2048 13.1626 19.0942 13.2656 18.9746C13.7126 18.4557 13.9617 17.8524 13.9955 17.1666C14.0373 16.3192 13.7891 15.5667 13.1949 14.9553C12.4735 14.2131 11.742 13.4803 10.9933 12.7658C10.4924 12.2878 9.87541 12.0396 9.17739 12.0045C8.65115 11.978 8.14782 12.0673 7.67623 12.3036C6.95066 12.6671 6.44239 13.2278 6.16983 13.9952C6.14363 14.0693 6.10933 14.1306 6.02951 14.1572C5.54565 14.3184 5.13352 14.5899 4.79447 14.9698C4.72378 15.0489 4.65729 15.0675 4.54932 15.0455C4.18915 14.9722 3.8257 14.9809 3.46343 15.044C3.14457 15.0996 2.84642 15.1979 2.5729 15.3443C2.20192 14.2986 2 13.1729 2 12ZM12 6C12.5523 6 13 6.44772 13 7V10.7639C13 11.1427 13.214 11.489 13.5528 11.6584L16.4472 13.1056C16.9412 13.3526 17.1414 13.9532 16.8944 14.4472C16.6474 14.9412 16.0468 15.1414 15.5528 14.8944L12.6584 13.4472C11.642 12.939 11 11.9002 11 10.7639V7C11 6.44772 11.4477 6 12 6Z" fill="#1F2937"/>
<path d="M9.70711 14.2929C9.31658 13.9024 8.68342 13.9024 8.29289 14.2929C7.90237 14.6834 7.90237 15.3166 8.29289 15.7071L8.58579 16H7C6.44772 16 6 16.4477 6 17C6 17.5523 6.44772 18 7 18H8.58579L8.29289 18.2929C7.90237 18.6834 7.90237 19.3166 8.29289 19.7071C8.68342 20.0976 9.31658 20.0976 9.70711 19.7071L11.7071 17.7071C12.0976 17.3166 12.0976 16.6834 11.7071 16.2929L9.70711 14.2929Z" fill="#1F2937"/>
<path d="M4.70711 18.7071C5.09763 18.3166 5.09763 17.6834 4.70711 17.2929C4.31658 16.9024 3.68342 16.9024 3.29289 17.2929L1.29289 19.2929C0.902369 19.6834 0.902369 20.3166 1.29289 20.7071L3.29289 22.7071C3.68342 23.0976 4.31658 23.0976 4.70711 22.7071C5.09763 22.3166 5.09763 21.6834 4.70711 21.2929L4.41421 21H6C6.55228 21 7 20.5523 7 20C7 19.4477 6.55228 19 6 19H4.41421L4.70711 18.7071Z" fill="#1F2937"/>
</svg>
