<svg width="24" height="24" viewBox="0 0 24 24" fill="none" xmlns="http://www.w3.org/2000/svg">
<path d="M6.91301 7.02868C7.75078 5.77217 9.62609 4 12.5 4C14.6295 4 16.1507 5.07973 17.1069 6.33005C17.7761 7.20524 18.2051 8.20886 18.3919 9.07502C19.1771 9.20223 20.0868 9.50524 20.8968 10.0885C21.4111 10.4588 21.8723 10.9337 22.2308 11.524C21.5592 11.1887 20.8016 11 20 11H16C13.2386 11 11 13.2386 11 16V20H7.5C6.42331 20 4.83054 19.6852 3.4782 18.7115C2.07487 17.7011 1 16.0259 1 13.5C1 10.9741 2.07487 9.29886 3.4782 8.28847C4.60179 7.47948 5.89136 7.12534 6.91301 7.02868Z" fill="#1F2937"/>
<path fill-rule="evenodd" clip-rule="evenodd" d="M13 16C13 14.3431 14.3431 13 16 13H20C21.6569 13 23 14.3431 23 16V18C23 19.6569 21.6569 21 20 21H16.4142L14.7071 22.7071C14.4211 22.9931 13.991 23.0787 13.6173 22.9239C13.2436 22.7691 13 22.4045 13 22V16Z" fill="#1F2937"/>
</svg>
