<svg width="24" height="24" viewBox="0 0 24 24" fill="none" xmlns="http://www.w3.org/2000/svg">
<path fill-rule="evenodd" clip-rule="evenodd" d="M2 11.9999C2 6.47709 6.47715 1.99994 12 1.99994C17.5228 1.99994 22 6.47709 22 11.9999C22 17.5228 17.5228 21.9999 12 21.9999C6.47715 21.9999 2 17.5228 2 11.9999ZM7.6657 6.3884C9.1222 5.33972 10.84 4.99994 12 4.99994C12.5523 4.99994 13 5.44765 13 5.99994C13 6.55222 12.5523 6.99994 12 6.99994C11.16 6.99994 9.8778 7.26016 8.8343 8.01147C7.8418 8.72608 7 9.92586 7 11.9999C7 12.5522 6.55228 12.9999 6 12.9999C5.44772 12.9999 5 12.5522 5 11.9999C5 9.27402 6.1582 7.4738 7.6657 6.3884ZM9.00001 12C9.00001 10.3432 10.3432 9.00001 12 9.00001C13.6569 9.00001 15 10.3432 15 12C15 13.6569 13.6569 15 12 15C10.3432 15 9.00001 13.6569 9.00001 12ZM18 10.9999C18.5523 10.9999 19 11.4477 19 11.9999C19 13.16 18.6602 14.8777 17.6115 16.3342C16.5261 17.8417 14.7259 18.9999 12 18.9999C11.4477 18.9999 11 18.5522 11 17.9999C11 17.4477 11.4477 16.9999 12 16.9999C14.0741 16.9999 15.2739 16.1581 15.9885 15.1656C16.7398 14.1221 17 12.8399 17 11.9999C17 11.4477 17.4477 10.9999 18 10.9999Z" fill="#1F2937"/>
</svg>
