<svg width="24" height="24" viewBox="0 0 24 24" fill="none" xmlns="http://www.w3.org/2000/svg">
<path d="M2 7C2 5.34315 3.34315 4 5 4H19C20.6569 4 22 5.34315 22 7V8H2V7Z" fill="#1F2937"/>
<path d="M16.0018 10H20.5C19.5732 10 18.7119 10.2626 17.9961 10.7129C17.4662 10.2698 16.7675 10.0004 16.0018 10Z" fill="#1F2937"/>
<path fill-rule="evenodd" clip-rule="evenodd" d="M15.9982 10H2V17C2 18.6569 3.34315 20 5 20H13.0366C13.0124 19.7948 13 19.5863 13 19.375V13V12.8125C13 11.2597 14.3422 10.0009 15.9982 10ZM13 13C13 12.4477 12.5523 12 12 12H7C6.44772 12 6 12.4477 6 13C6 13.5523 6.44772 14 7 14H12C12.5523 14 13 13.5523 13 13Z" fill="#1F2937"/>
<path fill-rule="evenodd" clip-rule="evenodd" d="M21 14.5C21 14.2239 20.7761 14 20.5 14C20.2239 14 20 14.2239 20 14.5V19C20 19.5523 19.5523 20 19 20C18.4477 20 18 19.5523 18 19V14.5C18 13.1193 19.1193 12 20.5 12C21.8807 12 23 13.1193 23 14.5V19C23 21.2091 21.2091 23 19 23C16.7909 23 15 21.2091 15 19V13C15 12.4477 15.4477 12 16 12C16.5523 12 17 12.4477 17 13V19C17 20.1046 17.8954 21 19 21C20.1046 21 21 20.1046 21 19V14.5Z" fill="#1F2937"/>
</svg>
