<svg width="24" height="24" viewBox="0 0 24 24" fill="none" xmlns="http://www.w3.org/2000/svg">
<path d="M5.2299 3.25776C7.01386 2.46489 9.40829 2 12 2C14.5917 2 16.9861 2.46489 18.7701 3.25776C19.6608 3.65364 20.4435 4.15092 21.0171 4.75363C21.5956 5.3615 22 6.12233 22 7C22 7.14563 21.9201 7.41833 21.477 7.79533C21.0386 8.16828 20.347 8.54887 19.4097 8.88812C17.5435 9.56354 14.9135 10 12 10C9.0865 10 6.45651 9.56354 4.59032 8.88812C3.65299 8.54887 2.96136 8.16828 2.52299 7.79533C2.07985 7.41833 2 7.14563 2 7C2 6.12233 2.40438 5.3615 2.98287 4.75363C3.55645 4.15092 4.33918 3.65364 5.2299 3.25776Z" fill="#1F2937"/>
<path d="M2 9.87395V13C2 13.1456 2.07985 13.4183 2.52299 13.7953C2.96136 14.1683 3.65299 14.5489 4.59032 14.8881C6.45651 15.5635 9.0865 16 12 16C14.0815 16 16.0182 15.7772 17.6351 15.4037L18.6574 14.1259C19.47 13.1102 20.8083 12.7626 21.972 13.161C21.9931 13.0967 22 13.0428 22 13V9.87395C21.4432 10.216 20.7952 10.5136 20.0903 10.7687C17.9565 11.541 15.0865 12 12 12C8.9135 12 6.04349 11.541 3.90968 10.7687C3.2048 10.5136 2.55682 10.216 2 9.87395Z" fill="#1F2937"/>
<path d="M12.171 17.9995C11.7986 19.055 12.0345 20.2771 12.8787 21.1213L13.6903 21.9329C13.1396 21.9771 12.5746 22 12 22C9.40829 22 7.01386 21.5351 5.2299 20.7422C4.33918 20.3464 3.55645 19.8491 2.98287 19.2464C2.40438 18.6385 2 17.8777 2 17V15.8739C2.55682 16.216 3.2048 16.5136 3.90968 16.7687C6.04349 17.541 8.9135 18 12 18C12.0571 18 12.1141 17.9998 12.171 17.9995Z" fill="#1F2937"/>
<path fill-rule="evenodd" clip-rule="evenodd" d="M21.6247 15.2191C22.056 15.5641 22.1259 16.1934 21.7809 16.6247L17.7809 21.6247C17.6032 21.8468 17.3393 21.9827 17.0553 21.9985C16.7713 22.0142 16.494 21.9082 16.2929 21.7071L14.2929 19.7071C13.9024 19.3166 13.9024 18.6834 14.2929 18.2929C14.6834 17.9024 15.3166 17.9024 15.7071 18.2929L16.9171 19.5029L20.2191 15.3753C20.5641 14.944 21.1934 14.8741 21.6247 15.2191Z" fill="#1F2937"/>
</svg>
