<svg width="24" height="24" viewBox="0 0 24 24" fill="none" xmlns="http://www.w3.org/2000/svg">
<path fill-rule="evenodd" clip-rule="evenodd" d="M2 5C2 3.34315 3.34315 2 5 2H19C20.6569 2 22 3.34315 22 5V19C22 20.6569 20.6569 22 19 22H5C3.34315 22 2 20.6569 2 19V5ZM7.93794 5.88043C9.00832 5.32542 10.445 5 12 5C13.555 5 14.9917 5.32542 16.0621 5.88043C16.5965 6.15755 17.0661 6.50564 17.4103 6.92754C17.7574 7.35305 18 7.88563 18 8.5C18 8.60194 17.9521 8.79283 17.6862 9.05673C17.4232 9.3178 17.0082 9.58421 16.4458 9.82168C15.3261 10.2945 13.7481 10.6 12 10.6C10.2519 10.6 8.6739 10.2945 7.55419 9.82168C6.99179 9.58421 6.57682 9.3178 6.31379 9.05673C6.04791 8.79283 6 8.60194 6 8.5C6 7.88563 6.24263 7.35305 6.58972 6.92754C6.93387 6.50564 7.40351 6.15755 7.93794 5.88043ZM6 10.5118V12.7C6 12.8019 6.04791 12.9928 6.31379 13.2567C6.57682 13.5178 6.99179 13.7842 7.55419 14.0217C8.6739 14.4945 10.2519 14.8 12 14.8C13.7481 14.8 15.3261 14.4945 16.4458 14.0217C17.0082 13.7842 17.4232 13.5178 17.6862 13.2567C17.9521 12.9928 18 12.8019 18 12.7V10.5118C17.6659 10.7512 17.2771 10.9595 16.8542 11.1381C15.5739 11.6787 13.8519 12 12 12C10.1481 12 8.4261 11.6787 7.14581 11.1381C6.72288 10.9595 6.33409 10.7512 6 10.5118ZM16.8542 15.3381C17.2771 15.1595 17.6659 14.9512 18 14.7118V15.5C18 16.1144 17.7574 16.6469 17.4103 17.0725C17.0661 17.4944 16.5965 17.8425 16.0621 18.1196C14.9917 18.6746 13.555 19 12 19C10.445 19 9.00832 18.6746 7.93794 18.1196C7.40351 17.8425 6.93387 17.4944 6.58972 17.0725C6.24263 16.6469 6 16.1144 6 15.5V14.7118C6.33409 14.9512 6.72288 15.1595 7.14581 15.3381C8.4261 15.8787 10.1481 16.2 12 16.2C13.8519 16.2 15.5739 15.8787 16.8542 15.3381Z" fill="#1F2937"/>
</svg>
