<svg width="24" height="24" viewBox="0 0 24 24" fill="none" xmlns="http://www.w3.org/2000/svg">
<path fill-rule="evenodd" clip-rule="evenodd" d="M3.61732 2.07615C3.99099 1.92137 4.42111 2.00692 4.70711 2.29292L7.77009 5.35591L9.15395 4.89462C11.0014 4.27882 12.9986 4.27882 14.846 4.89462L16.2299 5.35591L19.2929 2.29292C19.5789 2.00692 20.009 1.92137 20.3827 2.07615C20.7564 2.23093 21 2.59557 21 3.00003V13C21 14.4934 20.5602 16.7112 19.2115 18.5843C17.8261 20.5085 15.5259 22 12 22C8.47408 22 6.17386 20.5085 4.78847 18.5843C3.43978 16.7112 3 14.4934 3 13V3.00003C3 2.59557 3.24364 2.23093 3.61732 2.07615ZM10 10C10 9.44775 9.55228 9.00003 9 9.00003C8.44772 9.00003 8 9.44775 8 10V10.01C8 10.5623 8.44772 11.01 9 11.01C9.55228 11.01 10 10.5623 10 10.01V10ZM16 10C16 9.44775 15.5523 9.00003 15 9.00003C14.4477 9.00003 14 9.44775 14 10V10.01C14 10.5623 14.4477 11.01 15 11.01C15.5523 11.01 16 10.5623 16 10.01V10ZM11 12C10.4477 12 10 12.4477 10 13C10 13.3267 10.0898 13.7945 10.3885 14.2093C10.5462 14.4284 10.7514 14.6162 11 14.7538V15C11 15.1733 10.9398 15.4556 10.7885 15.6657C10.6739 15.8249 10.4741 16 10 16C9.52592 16 9.32614 15.8249 9.21153 15.6657C9.06022 15.4556 9 15.1733 9 15C9 14.4477 8.55228 14 8 14C7.44772 14 7 14.4477 7 15C7 15.4934 7.13978 16.2112 7.58847 16.8343C8.07386 17.5085 8.87408 18 10 18C10.8513 18 11.5164 17.719 12 17.2906C12.4836 17.719 13.1487 18 14 18C15.1259 18 15.9261 17.5085 16.4115 16.8343C16.8602 16.2112 17 15.4934 17 15C17 14.4477 16.5523 14 16 14C15.4477 14 15 14.4477 15 15C15 15.1733 14.9398 15.4556 14.7885 15.6657C14.6739 15.8249 14.4741 16 14 16C13.5259 16 13.3261 15.8249 13.2115 15.6657C13.0602 15.4556 13 15.1733 13 15V14.7538C13.2486 14.6162 13.4538 14.4284 13.6115 14.2093C13.9102 13.7945 14 13.3267 14 13C14 12.4477 13.5523 12 13 12H11Z" fill="#1F2937"/>
</svg>
