<svg width="24" height="24" viewBox="0 0 24 24" fill="none" xmlns="http://www.w3.org/2000/svg">
<path d="M16 10C15.5066 10 14.7889 9.86022 14.1657 9.41153C13.4915 8.92614 13 8.12592 13 7V2H6C5.50664 2 4.78887 2.13978 4.1657 2.58846C3.49153 3.07386 3 3.87408 3 5V18.9998C2.99996 19.2558 3.09759 19.5118 3.29289 19.7071L5.29289 21.7071C5.68342 22.0976 6.31658 22.0976 6.70711 21.7071L8 20.4142L9.29289 21.7071C9.68342 22.0976 10.3166 22.0976 10.7071 21.7071L12 20.4142L13.2929 21.7071C13.6834 22.0976 14.3166 22.0976 14.7071 21.7071L16 20.4142L17.2929 21.7071C17.6834 22.0976 18.3166 22.0976 18.7071 21.7071L20.7071 19.7071C20.9026 19.5116 21.0002 19.2553 21 18.999V10H16Z" fill="#1F2937"/>
<path d="M21 8C21 7.73478 20.8946 7.48043 20.7071 7.29289L15.7071 2.29289C15.5196 2.10536 15.2652 2 15 2V7C15 7.47408 15.1751 7.67386 15.3343 7.78847C15.5445 7.93978 15.8267 8 16 8H21Z" fill="#1F2937"/>
</svg>
