<svg width="24" height="24" viewBox="0 0 24 24" fill="none" xmlns="http://www.w3.org/2000/svg">
<path d="M3.70711 2.29289C3.31658 1.90237 2.68342 1.90237 2.29289 2.29289C1.90237 2.68342 1.90237 3.31658 2.29289 3.70711L3.19922 4.61343V5.95001H4.5358L8.14922 9.56343V10.9H9.4858L11.6858 13.1H8.14922V20.8H15.8492V17.2634L18.0492 19.4634V20.8H19.3858L20.2929 21.7071C20.6834 22.0976 21.3166 22.0976 21.7071 21.7071C22.0976 21.3166 22.0976 20.6834 21.7071 20.2929L3.70711 2.29289Z" fill="#1F2937"/>
<path d="M15.8492 10.7278V3.20001H8.32145L15.8492 10.7278Z" fill="#1F2937"/>
<path d="M20.7992 15.6778V13.1H18.2215L20.7992 15.6778Z" fill="#1F2937"/>
<path d="M20.7992 5.95001V4.57501C20.7992 3.81562 20.1836 3.20001 19.4242 3.20001H18.0492V5.95001H20.7992Z" fill="#1F2937"/>
<path d="M18.0492 8.15001V10.9H20.7992V8.15001H18.0492Z" fill="#1F2937"/>
<path d="M3.19922 19.425V18.05H5.94922V20.8H4.57422C3.81483 20.8 3.19922 20.1844 3.19922 19.425Z" fill="#1F2937"/>
<path d="M5.94922 13.1V15.85H3.19922V13.1H5.94922Z" fill="#1F2937"/>
<path d="M5.94922 10.9H3.19922V8.15001H5.94922V10.9Z" fill="#1F2937"/>
</svg>
