<svg width="24" height="24" viewBox="0 0 24 24" fill="none" xmlns="http://www.w3.org/2000/svg">
<path d="M11.7292 1C11.9944 1 12.2488 1.10536 12.4363 1.29289L22.3358 11.1924C22.7263 11.5829 22.7263 12.2161 22.3358 12.6066L18.0932 16.8492C17.9056 17.0368 17.6513 17.1421 17.386 17.1421C17.1208 17.1421 16.8665 17.0368 16.6789 16.8492L13.8505 14.0208L13.8392 14.0321L9.59657 9.78948L9.60787 9.77817L6.77945 6.94975C6.38892 6.55922 6.38892 5.92606 6.77945 5.53553L11.0221 1.29289C11.2096 1.10536 11.464 1 11.7292 1Z" fill="#1F2937"/>
<path d="M8.88946 10.4966L3.24391 16.1421C2.07234 17.3137 2.07234 19.2132 3.24391 20.3848C4.41549 21.5563 6.31498 21.5563 7.48655 20.3848L13.1321 14.7392L8.88946 10.4966Z" fill="#1F2937"/>
</svg>
