<svg width="24" height="24" viewBox="0 0 24 24" fill="none" xmlns="http://www.w3.org/2000/svg">
<path d="M2.0498 10C2.37529 6.72174 4.28396 3.90921 7.00043 2.33782V5C7.00043 6.65685 8.34357 8 10.0004 8H11.0004C11.3693 8 11.6928 8.19922 11.8673 8.50073C12.1438 8.97879 12.7555 9.14215 13.2336 8.86561C13.7117 8.58906 13.875 7.97734 13.5985 7.49927C13.0813 6.60518 12.1121 6 11.0004 6H10.0004C9.44814 6 9.00043 5.55228 9.00043 5V1.4578C9.94747 1.16035 10.9552 1 12.0004 1C15.7018 1 18.9336 3.01099 20.6626 6H19.0004C17.8887 6 16.9196 6.60518 16.4024 7.49927C16.1258 7.97734 16.2892 8.58906 16.7673 8.86561C17.2453 9.14215 17.8571 8.97879 18.1336 8.50073C18.308 8.19922 18.6315 8 19.0004 8H21.5426C21.8401 8.94704 22.0004 9.95479 22.0004 11C22.0004 12.7792 21.5358 14.45 20.7211 15.8974C20.2061 15.547 19.6248 15.2867 19 15.1391V12.5C19 10.567 17.433 9 15.5 9C13.567 9 12 10.567 12 12.5V15.0506C11.8078 15.0171 11.6119 15 11.4142 15C9.5286 15 8 16.5286 8 18.4142V18.5C8 19.172 8.1934 19.8279 8.55442 20.3904C5.02881 19.0962 2.43435 15.8732 2.0498 12H5.00043C5.55271 12 6.00043 12.4477 6.00043 13C6.00043 13.5448 6.14654 14.0584 6.40239 14.5007C6.67893 14.9788 7.29066 15.1421 7.76872 14.8656C8.24678 14.5891 8.41014 13.9773 8.1336 13.4993C8.0491 13.3532 8.00043 13.1838 8.00043 13C8.00043 11.3431 6.65728 10 5.00043 10H2.0498Z" fill="#1F2937"/>
<path d="M15.5 11C16.3284 11 17 11.6716 17 12.5V16.2C17 16.6418 17.3582 17 17.8 17C19.5673 17 21 18.4327 21 20.2V22C21 22.5523 20.5523 23 20 23H13.5C13.1852 23 12.8889 22.8518 12.7 22.6L10.3 19.4C10.1053 19.1404 10 18.8246 10 18.5V18.4142C10 17.6332 10.6332 17 11.4142 17C11.7893 17 12.149 17.149 12.4142 17.4142L14 19V12.5C14 11.6716 14.6716 11 15.5 11Z" fill="#1F2937"/>
</svg>
