<svg width="24" height="24" viewBox="0 0 24 24" fill="none" xmlns="http://www.w3.org/2000/svg">
<path fill-rule="evenodd" clip-rule="evenodd" d="M2 3.5C2 2.67157 2.67157 2 3.5 2C4.32843 2 5 2.67157 5 3.5V14.5C5 15.3284 4.32843 16 3.5 16C2.67157 16 2 15.3284 2 14.5V3.5ZM7 2C7.55228 2 8 2.44772 8 3V15C8 15.5523 7.55228 16 7 16C6.44772 16 6 15.5523 6 15V3C6 2.44772 6.44772 2 7 2ZM9 3.5C9 2.67157 9.67157 2 10.5 2C11.3284 2 12 2.67157 12 3.5V14.5C12 15.3284 11.3284 16 10.5 16C9.67157 16 9 15.3284 9 14.5V3.5ZM14 2C14.5523 2 15 2.44772 15 3V10C15 10.5523 14.5523 11 14 11C13.4477 11 13 10.5523 13 10V3C13 2.44772 13.4477 2 14 2ZM16 3.5C16 2.67157 16.6716 2 17.5 2C18.3284 2 19 2.67157 19 3.5V8.5C19 9.32843 18.3284 10 17.5 10C16.6716 10 16 9.32843 16 8.5V3.5ZM21 2C21.5523 2 22 2.44772 22 3V9C22 9.55228 21.5523 10 21 10C20.4477 10 20 9.55228 20 9V3C20 2.44772 20.4477 2 21 2Z" fill="#1F2937"/>
<path d="M22 20.4C22 21.2837 21.2837 22 20.4 22H14.8506C14.0855 22 13.3874 21.5635 13.0525 20.8756L12.1406 19.003C12.0481 18.813 12 18.6045 12 18.3931V18.3431C12 17.6013 12.6013 17 13.3431 17C13.7576 17 14.1488 17.1914 14.4033 17.5185L16 19.5714V13.5C16 12.6716 16.6716 12 17.5 12C18.3284 12 19 12.6716 19 13.5V17.4C19 17.7314 19.2686 18 19.6 18C20.9255 18 22 19.0745 22 20.4Z" fill="#1F2937"/>
</svg>
