<svg width="24" height="24" viewBox="0 0 24 24" fill="none" xmlns="http://www.w3.org/2000/svg">
<path d="M7 1C4.79086 1 3 2.79086 3 5V15C3 17.2091 4.79086 19 7 19H12.4767L10.747 16.8866C10.3337 16.4515 10.0624 15.8157 10.0095 15.1638C9.9523 14.4588 10.1462 13.6536 10.7871 13.0131C11.3942 12.4064 12.1514 12.1993 12.8308 12.2295C13.253 12.2482 13.6761 12.4025 14.02 12.5565C14.3839 12.7194 14.7627 12.9305 15.1197 13.1436C15.4493 13.3404 15.7806 13.5512 16.0811 13.7423L16.1593 13.7921C16.489 14.0018 16.7691 14.1784 16.9976 14.3073L16.9975 9.20251C16.9975 9.17497 16.9983 9.14779 17 9.12097V5C17 2.79086 15.2091 1 13 1H7Z" fill="#1F2937"/>
<path fill-rule="evenodd" clip-rule="evenodd" d="M12.7866 13.2285C13.7052 13.2692 15.4832 14.6012 16.5066 15.1783C16.8162 15.3529 17.1952 15.35 17.5021 15.1708C17.8091 14.9915 17.9978 14.6627 17.9978 14.3073L17.9976 9.20243C17.9976 9.02428 18.2129 8.93502 18.3389 9.06093L18.9484 9.66993C20.2621 10.9828 21.0002 12.7639 21.0002 14.6212V21.7204L16.0002 21.7263L11.521 16.2533C11.5054 16.2342 11.4891 16.2157 11.4722 16.1979C11.2313 15.9444 11.0426 15.53 11.0063 15.0829C10.9687 14.619 11.0948 14.1196 11.4941 13.7204C11.8733 13.3416 12.3428 13.2088 12.7866 13.2285Z" fill="#1F2937"/>
</svg>
