<svg width="24" height="24" viewBox="0 0 24 24" fill="none" xmlns="http://www.w3.org/2000/svg">
<path fill-rule="evenodd" clip-rule="evenodd" d="M17 2L19 2C20.6569 2 22 3.34315 22 5V19C22 20.6569 20.6569 22 19 22H5C3.34315 22 2 20.6569 2 19L2 5C2 3.34315 3.34315 2 5 2L7 2C7.55229 2 8 2.44772 8 3C8 3.55229 7.55229 4 7 4L5 4C4.44772 4 4 4.44772 4 5L4 14H7C8.10457 14 9 14.8954 9 16H15C15 14.8954 15.8954 14 17 14L20 14V5C20 4.44772 19.5523 4 19 4L17 4C16.4477 4 16 3.55228 16 3C16 2.44772 16.4477 2 17 2ZM12 2C12.5523 2 13 2.44772 13 3V9H15C15.4045 9 15.7691 9.24364 15.9239 9.61732C16.0787 9.99099 15.9931 10.4211 15.7071 10.7071L12.7071 13.7071C12.5196 13.8946 12.2652 14 12 14C11.7348 14 11.4804 13.8946 11.2929 13.7071L8.29289 10.7071C8.00689 10.4211 7.92134 9.99099 8.07612 9.61732C8.2309 9.24364 8.59554 9 9 9H11V3C11 2.44772 11.4477 2 12 2Z" fill="#1F2937"/>
</svg>
