<svg width="24" height="24" viewBox="0 0 24 24" fill="none" xmlns="http://www.w3.org/2000/svg">
<path fill-rule="evenodd" clip-rule="evenodd" d="M19 4L5 4C4.44772 4 4 4.44772 4 5L4 14H6C7.10457 14 8 14.8954 8 16H16C16 14.8954 16.8954 14 18 14L20 14V5C20 4.44772 19.5523 4 19 4ZM5 2L19 2C20.6569 2 22 3.34315 22 5V19C22 20.6569 20.6569 22 19 22H5C3.34315 22 2 20.6569 2 19L2 5C2 3.34315 3.34315 2 5 2ZM17 8L7 8C6.44772 8 6 7.55229 6 7C6 6.44772 6.44772 6 7 6L17 6C17.5523 6 18 6.44772 18 7C18 7.55228 17.5523 8 17 8ZM17 12L7 12C6.44772 12 6 11.5523 6 11C6 10.4477 6.44772 10 7 10L17 10C17.5523 10 18 10.4477 18 11C18 11.5523 17.5523 12 17 12Z" fill="#1F2937"/>
</svg>
