<svg width="24" height="24" viewBox="0 0 24 24" fill="none" xmlns="http://www.w3.org/2000/svg">
<path fill-rule="evenodd" clip-rule="evenodd" d="M7.31879 2C6.11871 2 5.03409 2.71519 4.56136 3.81824L2.08085 9.60608C2.02751 9.73056 2 9.86457 2 10V15H22V10C22 9.86457 21.9725 9.73056 21.9191 9.60608L19.4386 3.81824C18.9659 2.71519 17.8813 2 16.6812 2H7.31879ZM6.39965 4.60608C6.55723 4.2384 6.91877 4 7.31879 4H16.6812C17.0812 4 17.4428 4.2384 17.6004 4.60608L19.4835 9H17.0704C16.0673 9 15.1306 9.5013 14.5742 10.3359L13.7617 11.5547C13.5762 11.8329 13.264 12 12.9296 12H11.0704C10.736 12 10.4238 11.8329 10.2383 11.5547L9.42578 10.3359C8.86939 9.5013 7.93269 9 6.92963 9H4.51654L6.39965 4.60608Z" fill="#1F2937"/>
<path d="M22 17H16.4142L15.2929 18.1213C14.7303 18.6839 13.9672 19 13.1716 19H10.8284C10.0328 19 9.26972 18.6839 8.70711 18.1213L7.58579 17H2V19C2 20.6569 3.34315 22 5 22H19C20.6569 22 22 20.6569 22 19V17Z" fill="#1F2937"/>
</svg>
