<svg width="24" height="24" viewBox="0 0 24 24" fill="none" xmlns="http://www.w3.org/2000/svg">
<path d="M6 5C4.34315 5 3 6.34315 3 8C3 9.65685 4.34315 11 6 11C7.65685 11 9 9.65685 9 8C9 6.34315 7.65685 5 6 5Z" fill="#1F2937"/>
<path d="M6 13C4.34315 13 3 14.3431 3 16C3 17.6569 4.34315 19 6 19C7.65685 19 9 17.6569 9 16C9 14.3431 7.65685 13 6 13Z" fill="#1F2937"/>
<path d="M11 8C11 7.44772 11.4477 7 12 7H20C20.5523 7 21 7.44772 21 8C21 8.55228 20.5523 9 20 9H12C11.4477 9 11 8.55228 11 8Z" fill="#1F2937"/>
<path d="M12 15C11.4477 15 11 15.4477 11 16C11 16.5523 11.4477 17 12 17H18C18.5523 17 19 16.5523 19 16C19 15.4477 18.5523 15 18 15H12Z" fill="#1F2937"/>
</svg>
