<svg width="24" height="24" viewBox="0 0 24 24" fill="none" xmlns="http://www.w3.org/2000/svg">
<path fill-rule="evenodd" clip-rule="evenodd" d="M3.92689 5.3411L2.29289 3.70711C1.90237 3.31658 1.90237 2.68342 2.29289 2.29289C2.68342 1.90237 3.31658 1.90237 3.70711 2.29289L21.7071 20.2929C22.0976 20.6834 22.0976 21.3166 21.7071 21.7071C21.3166 22.0976 20.6834 22.0976 20.2929 21.7071L18.2548 19.6691L12.4856 22.8742C12.1836 23.0419 11.8164 23.0419 11.5144 22.8742L2.51436 17.8742C2.19689 17.6978 2 17.3632 2 17V7C2 6.63683 2.19689 6.30221 2.51436 6.12584L3.92689 5.3411ZM16.784 18.1982L12.6458 14.06L7.64432 18.4362L12 20.856L16.784 18.1982ZM10.0486 11.4628C9.62273 11.7992 9.08482 12 8.5 12C7.11929 12 6 10.8807 6 9.5C6 8.91518 6.20081 8.37727 6.53723 7.95144L10.0486 11.4628Z" fill="#1F2937"/>
<path d="M22 17C22 17.0537 21.9957 17.1068 21.9873 17.1589L7.94002 3.11159L11.5144 1.12584C11.8164 0.958052 12.1836 0.958052 12.4856 1.12584L21.4856 6.12584C21.8031 6.30221 22 6.63683 22 7V17Z" fill="#1F2937"/>
</svg>
