<svg width="24" height="24" viewBox="0 0 24 24" fill="none" xmlns="http://www.w3.org/2000/svg">
<path d="M18.2548 19.6691L20.2929 21.7071C20.6834 22.0976 21.3166 22.0976 21.7071 21.7071C22.0976 21.3166 22.0976 20.6834 21.7071 20.2929L3.70711 2.29289C3.31658 1.90237 2.68342 1.90237 2.29289 2.29289C1.90237 2.68342 1.90237 3.31658 2.29289 3.70711L3.92689 5.3411L2.51436 6.12584C2.19689 6.30221 2 6.63683 2 7V17C2 17.3632 2.19689 17.6978 2.51436 17.8742L11.5144 22.8742C11.8164 23.0419 12.1836 23.0419 12.4856 22.8742L18.2548 19.6691Z" fill="#1F2937"/>
<path d="M22 17C22 17.0537 21.9957 17.1068 21.9873 17.1589L7.94002 3.11159L11.5144 1.12584C11.8164 0.958052 12.1836 0.958052 12.4856 1.12584L21.4856 6.12584C21.8031 6.30221 22 6.63683 22 7V17Z" fill="#1F2937"/>
</svg>
