<svg width="24" height="24" viewBox="0 0 24 24" fill="none" xmlns="http://www.w3.org/2000/svg">
<path fill-rule="evenodd" clip-rule="evenodd" d="M19 15C19.5523 15 20 15.4477 20 16V18H22C22.5523 18 23 18.4477 23 19C23 19.5523 22.5523 20 22 20H20V22C20 22.5523 19.5523 23 19 23C18.4477 23 18 22.5523 18 22V20H16C15.4477 20 15 19.5523 15 19C15 18.4477 15.4477 18 16 18H18V16C18 15.4477 18.4477 15 19 15Z" fill="#1F2937"/>
<path fill-rule="evenodd" clip-rule="evenodd" d="M2 17C2 17.3632 2.19689 17.6978 2.51436 17.8742L11.5144 22.8742C11.8164 23.0419 12.1836 23.0419 12.4856 22.8742L14.6424 21.676C14.0138 21.3564 13.5128 20.8219 13.2364 20.1692L12 20.856L7.64432 18.4362L14.3573 12.5623C14.7275 12.2385 15.2782 12.2318 15.656 12.5467L17.057 13.7142C17.5805 13.2688 18.2588 13 19 13C20.6569 13 22 14.3431 22 16V7C22 6.63683 21.8031 6.30221 21.4856 6.12584L12.4856 1.12584C12.1836 0.958052 11.8164 0.958052 11.5144 1.12584L2.51436 6.12584C2.19689 6.30221 2 6.63683 2 7V17ZM6 9.5C6 8.11929 7.11929 7 8.5 7C9.88071 7 11 8.11929 11 9.5C11 10.8807 9.88071 12 8.5 12C7.11929 12 6 10.8807 6 9.5Z" fill="#1F2937"/>
</svg>
