<svg width="24" height="24" viewBox="0 0 24 24" fill="none" xmlns="http://www.w3.org/2000/svg">
<path d="M2.95833 1C1.83709 1 1 1.93597 1 3V9.39645C1 10.4272 2.29274 11.1398 3.13098 10.2651L4.875 8.44528L6.61902 10.2651C7.45726 11.1398 8.75 10.4272 8.75 9.39645V3C8.75 1.93597 7.91291 1 6.79167 1H2.95833Z" fill="#1F2937"/>
<path d="M2 19V12.6472C2.89058 12.7204 3.83362 12.4225 4.57496 11.6489L4.875 11.3359L5.17504 11.6489C6.23141 12.7512 7.69732 12.8876 8.83744 12.361C9.89515 11.8725 10.75 10.7745 10.75 9.39645V3C10.75 2.66004 10.7059 2.3241 10.6221 2H19C20.6569 2 22 3.34315 22 5V14H17C15.3431 14 14 15.3431 14 17V22H5C3.34315 22 2 20.6569 2 19Z" fill="#1F2937"/>
<path d="M21.8834 16H17C16.4477 16 16 16.4477 16 17V21.8834C16.4843 21.7442 16.9302 21.484 17.2929 21.1213L21.1213 17.2929C21.484 16.9302 21.7442 16.4843 21.8834 16Z" fill="#1F2937"/>
</svg>
