<svg width="24" height="24" viewBox="0 0 24 24" fill="none" xmlns="http://www.w3.org/2000/svg">
<path fill-rule="evenodd" clip-rule="evenodd" d="M12.1707 2C12.0602 2.31278 12 2.64936 12 3C12 3.54643 12.1461 4.05874 12.4013 4.5C12.1461 4.94126 12 5.45357 12 6C12 6.54643 12.1461 7.05874 12.4013 7.5C12.1461 7.94126 12 8.45357 12 9C12 10.6569 13.3431 12 15 12H15.01C15.5544 12 16.0649 11.855 16.505 11.6015C16.9451 11.855 17.4556 12 18 12H18.01C18.5544 12 19.0649 11.855 19.505 11.6015C19.9451 11.855 20.4556 12 21 12H21.01C21.3569 12 21.6901 11.9411 22 11.8328V19C22 20.6569 20.6569 22 19 22H5C3.34315 22 2 20.6569 2 19V5C2 3.34315 3.34315 2 5 2H12.1707ZM6.66667 6C6.29848 6 6 6.29848 6 6.66667C6 8.01516 6.28277 9.82254 7.0553 11.5992C7.98874 13.7459 9.65185 15.8791 12.4033 17.0623C13.7816 17.655 15.4137 18 17.3333 18C17.7015 18 18 17.7015 18 17.3333V14.6667C18 14.3608 17.7918 14.0941 17.495 14.0199L14.8284 13.3532C14.5778 13.2906 14.3136 13.3783 14.1502 13.5784L12.4774 15.6275C10.5482 14.6651 9.27994 13.1371 8.48318 11.5115L10.4339 9.8395C10.6256 9.67517 10.708 9.41662 10.6468 9.17164L9.98009 6.50498C9.9059 6.2082 9.63925 6 9.33333 6H6.66667Z" fill="#1F2937"/>
<path d="M14 3C14 2.44772 14.4477 2 15 2H15.01C15.5623 2 16.01 2.44772 16.01 3C16.01 3.55228 15.5623 4 15.01 4H15C14.4477 4 14 3.55228 14 3Z" fill="#1F2937"/>
<path d="M18 2C17.4477 2 17 2.44772 17 3C17 3.55228 17.4477 4 18 4H18.01C18.5623 4 19.01 3.55228 19.01 3C19.01 2.44772 18.5623 2 18.01 2H18Z" fill="#1F2937"/>
<path d="M20 3C20 2.44772 20.4477 2 21 2H21.01C21.5623 2 22.01 2.44772 22.01 3C22.01 3.55228 21.5623 4 21.01 4H21C20.4477 4 20 3.55228 20 3Z" fill="#1F2937"/>
<path d="M15 5C14.4477 5 14 5.44772 14 6C14 6.55228 14.4477 7 15 7H15.01C15.5623 7 16.01 6.55228 16.01 6C16.01 5.44772 15.5623 5 15.01 5H15Z" fill="#1F2937"/>
<path d="M17 6C17 5.44772 17.4477 5 18 5H18.01C18.5623 5 19.01 5.44772 19.01 6C19.01 6.55228 18.5623 7 18.01 7H18C17.4477 7 17 6.55228 17 6Z" fill="#1F2937"/>
<path d="M21 5C20.4477 5 20 5.44772 20 6C20 6.55228 20.4477 7 21 7H21.01C21.5623 7 22.01 6.55228 22.01 6C22.01 5.44772 21.5623 5 21.01 5H21Z" fill="#1F2937"/>
<path d="M14 9C14 8.44772 14.4477 8 15 8H15.01C15.5623 8 16.01 8.44772 16.01 9C16.01 9.55228 15.5623 10 15.01 10H15C14.4477 10 14 9.55228 14 9Z" fill="#1F2937"/>
<path d="M18 8C17.4477 8 17 8.44772 17 9C17 9.55228 17.4477 10 18 10H18.01C18.5623 10 19.01 9.55228 19.01 9C19.01 8.44772 18.5623 8 18.01 8H18Z" fill="#1F2937"/>
<path d="M20 9C20 8.44772 20.4477 8 21 8H21.01C21.5623 8 22.01 8.44772 22.01 9C22.01 9.55228 21.5623 10 21.01 10H21C20.4477 10 20 9.55228 20 9Z" fill="#1F2937"/>
</svg>
