<svg width="24" height="24" viewBox="0 0 24 24" fill="none" xmlns="http://www.w3.org/2000/svg">
<path fill-rule="evenodd" clip-rule="evenodd" d="M13 4C13 3.44772 13.4477 3 14 3H14.01C14.5623 3 15.01 3.44772 15.01 4C15.01 4.55228 14.5623 5 14.01 5H14C13.4477 5 13 4.55228 13 4ZM16 4C16 3.44772 16.4477 3 17 3H17.01C17.5623 3 18.01 3.44772 18.01 4C18.01 4.55228 17.5623 5 17.01 5H17C16.4477 5 16 4.55228 16 4ZM19 4C19 3.44772 19.4477 3 20 3H20.01C20.5623 3 21.01 3.44772 21.01 4C21.01 4.55228 20.5623 5 20.01 5H20C19.4477 5 19 4.55228 19 4ZM2 5C2 4.44772 2.44772 4 3 4H7C7.45887 4 7.85885 4.3123 7.97014 4.75746L8.97014 8.75746C9.06201 9.12493 8.93838 9.51275 8.65079 9.75926L5.72478 12.2673C6.9199 14.7056 8.82223 16.9977 11.7161 18.4412L14.2254 15.3676C14.4704 15.0675 14.8667 14.9359 15.2425 15.0299L19.2425 16.0299C19.6877 16.1411 20 16.5411 20 17V21C20 21.5523 19.5523 22 19 22C16.1206 22 13.6724 21.4825 11.605 20.5935C7.47777 18.8187 4.98312 15.6188 3.58294 12.3988C2.42416 9.73381 2 7.02274 2 5ZM13 7C13 6.44772 13.4477 6 14 6H14.01C14.5623 6 15.01 6.44772 15.01 7C15.01 7.55228 14.5623 8 14.01 8H14C13.4477 8 13 7.55228 13 7ZM16 7C16 6.44772 16.4477 6 17 6H17.01C17.5623 6 18.01 6.44772 18.01 7C18.01 7.55228 17.5623 8 17.01 8H17C16.4477 8 16 7.55228 16 7ZM19 7C19 6.44772 19.4477 6 20 6H20.01C20.5623 6 21.01 6.44772 21.01 7C21.01 7.55228 20.5623 8 20.01 8H20C19.4477 8 19 7.55228 19 7ZM13 10C13 9.44772 13.4477 9 14 9H14.01C14.5623 9 15.01 9.44772 15.01 10C15.01 10.5523 14.5623 11 14.01 11H14C13.4477 11 13 10.5523 13 10ZM16 10C16 9.44772 16.4477 9 17 9H17.01C17.5623 9 18.01 9.44772 18.01 10C18.01 10.5523 17.5623 11 17.01 11H17C16.4477 11 16 10.5523 16 10ZM19 10C19 9.44772 19.4477 9 20 9H20.01C20.5623 9 21.01 9.44772 21.01 10C21.01 10.5523 20.5623 11 20.01 11H20C19.4477 11 19 10.5523 19 10Z" fill="#1F2937"/>
</svg>
