<svg width="24" height="24" viewBox="0 0 24 24" fill="none" xmlns="http://www.w3.org/2000/svg">
<path fill-rule="evenodd" clip-rule="evenodd" d="M1 5C1 3.34315 2.34315 2 4 2H6C6.55228 2 7 2.44772 7 3C7 3.55228 6.55228 4 6 4H4C3.44772 4 3 4.44772 3 5V7C3 7.55228 2.55228 8 2 8C1.44772 8 1 7.55228 1 7V5ZM17 3C17 2.44772 17.4477 2 18 2H20C21.6569 2 23 3.34315 23 5V7C23 7.55228 22.5523 8 22 8C21.4477 8 21 7.55228 21 7V5C21 4.44772 20.5523 4 20 4H18C17.4477 4 17 3.55228 17 3ZM6 6C6.55228 6 7 6.44772 7 7V17C7 17.5523 6.55228 18 6 18C5.44772 18 5 17.5523 5 17V7C5 6.44772 5.44772 6 6 6ZM10 6C10.5523 6 11 6.44772 11 7V17C11 17.5523 10.5523 18 10 18C9.44772 18 9 17.5523 9 17V7C9 6.44772 9.44772 6 10 6ZM14 6C14.5523 6 15 6.44772 15 7V17C15 17.5523 14.5523 18 14 18C13.4477 18 13 17.5523 13 17V7C13 6.44772 13.4477 6 14 6ZM18 6C18.5523 6 19 6.44772 19 7V17C19 17.5523 18.5523 18 18 18C17.4477 18 17 17.5523 17 17V7C17 6.44772 17.4477 6 18 6ZM2 16C2.55228 16 3 16.4477 3 17V19C3 19.5523 3.44772 20 4 20H6C6.55228 20 7 20.4477 7 21C7 21.5523 6.55228 22 6 22H4C2.34315 22 1 20.6569 1 19V17C1 16.4477 1.44772 16 2 16ZM22 16C22.5523 16 23 16.4477 23 17V19C23 20.6569 21.6569 22 20 22H18C17.4477 22 17 21.5523 17 21C17 20.4477 17.4477 20 18 20H20C20.5523 20 21 19.5523 21 19V17C21 16.4477 21.4477 16 22 16Z" fill="#1F2937"/>
</svg>
