<svg width="24" height="24" viewBox="0 0 24 24" fill="none" xmlns="http://www.w3.org/2000/svg">
<path d="M5 2C3.34315 2 2 3.34315 2 5V7C2 7.55228 2.44772 8 3 8C3.55228 8 4 7.55228 4 7V5C4 4.44772 4.44772 4 5 4H7C7.55228 4 8 3.55228 8 3C8 2.44772 7.55228 2 7 2H5Z" fill="#1F2937"/>
<path d="M17 2C16.4477 2 16 2.44772 16 3C16 3.55228 16.4477 4 17 4H19C19.5523 4 20 4.44772 20 5V7C20 7.55228 20.4477 8 21 8C21.5523 8 22 7.55228 22 7V5C22 3.34315 20.6569 2 19 2H17Z" fill="#1F2937"/>
<path d="M11.0002 6.08292C9.29832 6.36839 7.84028 7.37029 6.94542 8.76617L7.75654 9.05967L7.77721 9.0674L9.94865 9.90776L10.4475 9.65836C10.7862 9.48897 11.0002 9.1427 11.0002 8.76393V6.08292Z" fill="#1F2937"/>
<path d="M6.16214 10.6096C6.05606 11.0564 6 11.5221 6 12C6 15.0739 8.31152 17.6079 11.2911 17.9586C11.1833 17.6838 11.0956 17.4512 11.0504 17.3129L10.4191 15.4189C10.0398 14.2809 10.8332 13.1073 12.0002 13.0069V13C12.0002 11.8954 12.8957 11 14.0002 11H17.917C17.4955 8.48758 15.5126 6.50461 13.0002 6.083V8.76393C13.0002 9.90025 12.3582 10.939 11.3419 11.4472L10.4475 11.8944C10.1955 12.0204 9.90205 12.0343 9.63933 11.9326L7.06567 10.9366L6.16214 10.6096Z" fill="#1F2937"/>
<path d="M17.917 13H14.0002V13.1623C14.0002 14.1025 13.2941 14.8778 12.3833 14.9869L12.9514 16.6913C13.0106 16.8737 13.1937 17.3371 13.3962 17.8367C15.719 17.2831 17.5179 15.3789 17.917 13Z" fill="#1F2937"/>
<path d="M4 17C4 16.4477 3.55228 16 3 16C2.44772 16 2 16.4477 2 17V19C2 20.6569 3.34315 22 5 22H7C7.55228 22 8 21.5523 8 21C8 20.4477 7.55228 20 7 20H5C4.44772 20 4 19.5523 4 19V17Z" fill="#1F2937"/>
<path d="M21 16C21.5523 16 22 16.4477 22 17V19C22 20.6569 20.6569 22 19 22H17C16.4477 22 16 21.5523 16 21C16 20.4477 16.4477 20 17 20H19C19.5523 20 20 19.5523 20 19V17C20 16.4477 20.4477 16 21 16Z" fill="#1F2937"/>
</svg>
