<svg width="24" height="24" viewBox="0 0 24 24" fill="none" xmlns="http://www.w3.org/2000/svg">
<path d="M2 5C2 3.34315 3.34315 2 5 2H19C20.6569 2 22 3.34315 22 5V19C22 20.6569 20.6569 22 19 22H8.69399C9.50907 21.55 10.0452 20.7631 10.1982 19.8909C10.2733 19.8966 10.3488 19.8995 10.4247 19.8995C11.2204 19.8995 11.9834 19.5834 12.546 19.0208L13.9602 17.6066C14.2034 17.3634 14.4006 17.0827 14.546 16.7782C14.8506 16.6327 15.1312 16.4356 15.3745 16.1924L17.1422 14.4246C19.2901 12.2767 19.2901 8.79432 17.1422 6.64644C14.9943 4.49856 11.5119 4.49855 9.36404 6.64643L7.59628 8.4142C7.35307 8.6574 7.15594 8.93807 7.01049 9.24263C6.70593 9.38807 6.42527 9.58521 6.18206 9.82841L4.76785 11.2426C4.1244 11.8861 3.83435 12.7491 3.89768 13.5905C3.14933 13.7218 2.46382 14.1351 2 14.7646V5Z" fill="#1F2937"/>
<path d="M10.7782 8.06065C12.145 6.69381 14.3611 6.69382 15.7279 8.06065C17.0948 9.42748 17.0948 11.6436 15.728 13.0104L13.9602 14.7782C13.7726 14.9657 13.5183 15.0711 13.2531 15.0711L12.8389 15.0711V15.4853C12.8389 15.7505 12.7335 16.0048 12.546 16.1924L11.1318 17.6066C10.9442 17.7941 10.6899 17.8995 10.4247 17.8995C10.1594 17.8995 9.90508 17.7941 9.71754 17.6066L8.65688 16.5459L7.67968 17.5231L8.19135 19.0581C8.34872 19.5302 8.13499 20.0462 7.68988 20.2688L4.86145 21.683C4.47647 21.8755 4.0115 21.8 3.70714 21.4957L2.29292 20.0815C1.98856 19.7771 1.91311 19.3121 2.1056 18.9271L3.51981 16.0987C3.74237 15.6536 4.25836 15.4399 4.73047 15.5972L6.26547 16.1089L7.24267 15.1317L6.18201 14.0711C5.79148 13.6805 5.79148 13.0474 6.18201 12.6568L7.59622 11.2426C7.78376 11.0551 8.03811 10.9497 8.30333 10.9497H8.71754V10.5355C8.71754 10.2703 8.8229 10.016 9.01044 9.82841L10.7782 8.06065Z" fill="#1F2937"/>
</svg>
