<svg width="24" height="24" viewBox="0 0 24 24" fill="none" xmlns="http://www.w3.org/2000/svg">
<path d="M21.2071 2.7929C19.4359 1.02167 16.5641 1.02167 14.7929 2.79291L10.7929 6.7929C10.6054 6.98044 10.5 7.23479 10.5 7.50001V8.50001H9.50002C9.23481 8.50001 8.98045 8.60537 8.79292 8.7929L7.29292 10.2929C6.90239 10.6834 6.90239 11.3166 7.29292 11.7071L9.08581 13.5L6.08581 16.5H4.50002C4.14876 16.5 3.82325 16.6843 3.64253 16.9855L2.14253 19.4855C1.90644 19.879 1.96845 20.3826 2.29292 20.7071L3.29292 21.7071C3.61738 22.0316 4.12104 22.0936 4.51452 21.8575L7.01452 20.3575C7.31572 20.1768 7.50002 19.8513 7.50002 19.5V17.9142L10.5 14.9142L12.2929 16.7071C12.6834 17.0976 13.3166 17.0976 13.7071 16.7071L15.2071 15.2071C15.3947 15.0196 15.5 14.7652 15.5 14.5V13.5H16.5C16.7652 13.5 17.0196 13.3947 17.2071 13.2071L21.2071 9.20712C22.9784 7.43588 22.9784 4.56414 21.2071 2.7929Z" fill="#1F2937"/>
</svg>
