<svg width="24" height="24" viewBox="0 0 24 24" fill="none" xmlns="http://www.w3.org/2000/svg">
<path fill-rule="evenodd" clip-rule="evenodd" d="M11.2929 2.29289C11.6834 1.90237 12.3166 1.90237 12.7071 2.29289C13.5165 3.10231 14.6798 3.5835 15.8896 3.83313C17.0924 4.08133 18.2366 4.07867 18.8896 4.00612C19.1723 3.9747 19.455 4.06517 19.6669 4.25487C19.8789 4.44457 20 4.71556 20 5V14C20 15.2996 19.4319 16.4486 18.6956 17.3952C17.958 18.3435 16.9992 19.158 16.0812 19.8137C15.1579 20.4733 14.2407 20.9969 13.5578 21.3546C13.2151 21.5341 12.9285 21.6733 12.7257 21.7685C12.6242 21.8161 12.5436 21.8528 12.4872 21.8781C12.459 21.8907 12.4368 21.9005 12.4211 21.9073C12.0735 22.0588 11.9472 22.0666 11.5975 21.9154C11.5694 21.9032 11.5433 21.8917 11.5128 21.8781C11.4564 21.8528 11.3758 21.8161 11.2743 21.7685C11.0715 21.6733 10.7849 21.5341 10.4422 21.3546C9.75932 20.9969 8.84211 20.4733 7.91876 19.8137C7.00079 19.158 6.04197 18.3435 5.3044 17.3952C4.56814 16.4486 4 15.2996 4 14V5C4 4.71556 4.12113 4.44457 4.33308 4.25487C4.54503 4.06517 4.82773 3.9747 5.11043 4.00612C5.76343 4.07867 6.90762 4.08133 8.11041 3.83313C9.32017 3.5835 10.4835 3.10231 11.2929 2.29289ZM15.7809 9.62467C16.1259 9.19341 16.056 8.56412 15.6247 8.21911C15.1934 7.8741 14.5641 7.94402 14.2191 8.37528L10.9171 12.5028L9.70711 11.2929C9.31658 10.9023 8.68342 10.9023 8.29289 11.2929C7.90237 11.6834 7.90237 12.3166 8.29289 12.7071L10.2929 14.7071C10.494 14.9082 10.7713 15.0142 11.0553 14.9984C11.3393 14.9827 11.6032 14.8468 11.7809 14.6247L15.7809 9.62467Z" fill="#1F2937"/>
</svg>
