<svg width="24" height="24" viewBox="0 0 24 24" fill="none" xmlns="http://www.w3.org/2000/svg">
<path d="M12.7071 2.29289C12.3166 1.90237 11.6834 1.90237 11.2929 2.29289C10.4835 3.10231 9.32017 3.5835 8.11041 3.83313C6.90762 4.08133 5.76343 4.07867 5.11043 4.00612C4.82773 3.9747 4.54503 4.06517 4.33308 4.25487C4.12113 4.44457 4 4.71556 4 5V14C4 15.2996 4.56814 16.4486 5.3044 17.3952C6.04197 18.3435 7.00079 19.158 7.91876 19.8137C8.74065 20.4008 9.55768 20.8802 10.2089 21.2307C9.44275 20.0034 9 18.5534 9 17C9 12.5817 12.5817 9 17 9C18.0609 9 19.0736 9.20651 20 9.58152V5C20 4.71556 19.8789 4.44457 19.6669 4.25487C19.455 4.06517 19.1723 3.9747 18.8896 4.00612C18.2366 4.07867 17.0924 4.08133 15.8896 3.83313C14.6798 3.5835 13.5165 3.10231 12.7071 2.29289Z" fill="#1F2937"/>
<path d="M16.0002 11.0829C14.2968 11.3687 12.8366 12.3722 11.9415 13.7719L12.7492 14.0571C12.7586 14.0604 12.7679 14.0638 12.7772 14.0674L14.9487 14.9078L15.4475 14.6584C15.7862 14.489 16.0002 14.1427 16.0002 13.764V11.0829Z" fill="#1F2937"/>
<path d="M11.1602 15.617C11.0554 16.061 11 16.524 11 17C11 20.0648 13.2978 22.5928 16.2646 22.9554L15.4191 20.4189C15.0398 19.2809 15.8332 18.1074 17.0002 18.007V18C17.0002 16.8955 17.8957 16 19.0002 16H22.917C22.4955 13.4876 20.5126 11.5046 18.0002 11.083V13.764C18.0002 14.9003 17.3582 15.9391 16.3419 16.4472L15.4475 16.8945C15.1955 17.0204 14.9021 17.0343 14.6393 16.9326L12.0693 15.938L11.1602 15.617Z" fill="#1F2937"/>
<path d="M19.0002 18H22.917C22.5146 20.3988 20.6888 22.315 18.3378 22.8503L17.3833 19.9869C18.2941 19.8778 19.0002 19.1025 19.0002 18.1623V18Z" fill="#1F2937"/>
</svg>
