<svg width="24" height="24" viewBox="0 0 24 24" fill="none" xmlns="http://www.w3.org/2000/svg">
<path fill-rule="evenodd" clip-rule="evenodd" d="M11.2929 2.29289C11.6834 1.90237 12.3166 1.90237 12.7071 2.29289C13.5165 3.10231 14.6798 3.5835 15.8896 3.83313C17.0924 4.08133 18.2366 4.07867 18.8896 4.00612C19.1723 3.9747 19.455 4.06517 19.6669 4.25487C19.8789 4.44457 20 4.71556 20 5V14C20 15.2996 19.4319 16.4486 18.6956 17.3952C17.958 18.3435 16.9992 19.158 16.0812 19.8137C15.1579 20.4733 14.2407 20.9969 13.5578 21.3546C13.2151 21.5341 12.9285 21.6733 12.7257 21.7685C12.6242 21.8161 12.5436 21.8528 12.4872 21.8781C12.459 21.8907 12.4368 21.9005 12.4211 21.9073C12.0735 22.0588 11.9472 22.0666 11.5975 21.9154C11.5694 21.9032 11.5433 21.8917 11.5128 21.8781C11.4564 21.8528 11.3758 21.8161 11.2743 21.7685C11.0715 21.6733 10.7849 21.5341 10.4422 21.3546C9.75932 20.9969 8.84211 20.4733 7.91876 19.8137C7.00079 19.158 6.04197 18.3435 5.3044 17.3952C4.56814 16.4486 4 15.2996 4 14V5C4 4.71556 4.12113 4.44457 4.33308 4.25487C4.54503 4.06517 4.82773 3.9747 5.11043 4.00612C5.76343 4.07867 6.90762 4.08133 8.11041 3.83313C9.32017 3.5835 10.4835 3.10231 11.2929 2.29289ZM10 11.991C10 11.4387 9.55228 10.991 9 10.991C8.44772 10.991 8 11.4387 8 11.991V12.001C8 12.5533 8.44772 13.001 9 13.001C9.55228 13.001 10 12.5533 10 12.001V11.991ZM13 12.001V11.991C13 11.4387 12.5523 10.991 12 10.991C11.4477 10.991 11 11.4387 11 11.991V12.001C11 12.5533 11.4477 13.001 12 13.001C12.5523 13.001 13 12.5533 13 12.001ZM16 11.991C16 11.4387 15.5523 10.991 15 10.991C14.4477 10.991 14 11.4387 14 11.991V12.001C14 12.5533 14.4477 13.001 15 13.001C15.5523 13.001 16 12.5533 16 12.001V11.991Z" fill="#1F2937"/>
</svg>
