<svg width="24" height="24" viewBox="0 0 24 24" fill="none" xmlns="http://www.w3.org/2000/svg">
<path d="M15 2C15.7403 2 16.3866 2.40219 16.7324 2.99999C16.9026 3.29417 17 3.63571 17 4V9C17 10.6481 15.1185 11.5889 13.8 10.6L12 9.25L10.2 10.6C8.88153 11.5889 7 10.6481 7 9V4C7 3.63571 7.09739 3.29417 7.26756 3C7.29089 2.95968 7.31558 2.92026 7.34157 2.88178C7.70098 2.34978 8.30964 2 9 2H15Z" fill="#1F2937"/>
<path d="M6 4C6 3.64936 6.06015 3.31278 6.17071 3H6C4.34315 3 3 4.34315 3 6V19C3 20.6569 4.34315 22 6 22H11L11 11.25L10.8 11.4C8.82229 12.8833 6 11.4721 6 9V4Z" fill="#1F2937"/>
<path fill-rule="evenodd" clip-rule="evenodd" d="M13 11.25L13 22H18C19.6569 22 21 20.6569 21 19V6C21 4.34315 19.6569 3 18 3H17.8293C17.9398 3.31278 18 3.64936 18 4V9C18 11.4721 15.1777 12.8833 13.2 11.4L13 11.25ZM14 15C14 14.4477 14.4477 14 15 14H17C17.5523 14 18 14.4477 18 15C18 15.5523 17.5523 16 17 16H15C14.4477 16 14 15.5523 14 15Z" fill="#1F2937"/>
</svg>
