<svg width="24" height="24" viewBox="0 0 24 24" fill="none" xmlns="http://www.w3.org/2000/svg">
<path fill-rule="evenodd" clip-rule="evenodd" d="M3 6C3 4.34315 4.34315 3 6 3H18C19.6569 3 21 4.34315 21 6V14C20.2842 14 19.5683 14.2546 19 14.7638C17.8221 13.7084 16.0106 13.7467 14.8787 14.8787C13.7467 16.0106 13.7084 17.8221 14.7638 19C14.2546 19.5683 14 20.2842 14 21H6C4.34315 21 3 19.6569 3 18V6ZM7 8C7 7.44772 7.44772 7 8 7H16C16.5523 7 17 7.44772 17 8C17 8.55228 16.5523 9 16 9H8C7.44772 9 7 8.55228 7 8ZM7 12C7 11.4477 7.44772 11 8 11H16C16.5523 11 17 11.4477 17 12C17 12.5523 16.5523 13 16 13H8C7.44772 13 7 12.5523 7 12ZM7 16C7 15.4477 7.44772 15 8 15H12C12.5523 15 13 15.4477 13 16C13 16.5523 12.5523 17 12 17H8C7.44772 17 7 16.5523 7 16Z" fill="#1F2937"/>
<path d="M19 17.5858L17.7071 16.2929C17.3166 15.9024 16.6834 15.9024 16.2929 16.2929C15.9024 16.6834 15.9024 17.3166 16.2929 17.7071L17.5858 19L16.2929 20.2929C15.9024 20.6834 15.9024 21.3166 16.2929 21.7071C16.6834 22.0976 17.3166 22.0976 17.7071 21.7071L19 20.4142L20.2929 21.7071C20.6834 22.0976 21.3166 22.0976 21.7071 21.7071C22.0976 21.3166 22.0976 20.6834 21.7071 20.2929L20.4142 19L21.7071 17.7071C22.0976 17.3166 22.0976 16.6834 21.7071 16.2929C21.3166 15.9024 20.6834 15.9024 20.2929 16.2929L19 17.5858Z" fill="#1F2937"/>
</svg>
