<svg width="24" height="24" viewBox="0 0 24 24" fill="none" xmlns="http://www.w3.org/2000/svg">
<path fill-rule="evenodd" clip-rule="evenodd" d="M3 6C3 4.34315 4.34315 3 6 3H18C19.6569 3 21 4.34315 21 6V11.7721L20.9933 11.7658C20.4924 11.2878 19.8754 11.0396 19.1774 11.0045C18.6511 10.978 18.1478 11.0673 17.6762 11.3036C17.4137 11.4351 17.1796 11.5925 16.9748 11.7761C16.8732 11.3316 16.4753 11 16 11H8C7.44772 11 7 11.4477 7 12C7 12.5523 7.44772 13 8 13H16C16.0592 13 16.1171 12.9949 16.1735 12.985L16.1698 12.9952C16.1436 13.0693 16.1093 13.1306 16.0295 13.1572C15.5456 13.3184 15.1335 13.5899 14.7945 13.9698C14.7238 14.0489 14.6573 14.0675 14.5493 14.0455C14.1892 13.9722 13.8257 13.9809 13.4634 14.044C12.8878 14.1443 12.3796 14.3839 11.962 14.7944C11.8923 14.8628 11.8227 14.9314 11.7532 15H8C7.44772 15 7 15.4477 7 16C7 16.5523 7.44772 17 8 17H9.75783C9.58087 17.2016 9.42452 17.4184 9.30605 17.6668C9.03124 18.2425 8.94154 18.8413 9.03678 19.4701C9.12592 20.0587 9.37441 20.5664 9.76661 21H6C4.34315 21 3 19.6569 3 18V6ZM7 8C7 7.44772 7.44772 7 8 7H16C16.5523 7 17 7.44772 17 8C17 8.55228 16.5523 9 16 9H8C7.44772 9 7 8.55228 7 8Z" fill="#1F2937"/>
<path d="M18.3612 20.9318C18.4191 20.9382 18.4769 20.9453 18.5338 20.9526C18.4384 20.9698 18.3414 20.9824 18.2431 20.9903L18.2541 20.9801C18.2821 20.9545 18.3272 20.9281 18.3612 20.9318Z" fill="#1F2937"/>
<path d="M19.7071 13.2929C19.3166 12.9024 18.6834 12.9024 18.2929 13.2929C17.9024 13.6834 17.9024 14.3166 18.2929 14.7071L18.5858 15H17C16.4477 15 16 15.4477 16 16C16 16.5523 16.4477 17 17 17H18.5858L18.2929 17.2929C17.9024 17.6834 17.9024 18.3166 18.2929 18.7071C18.6834 19.0976 19.3166 19.0976 19.7071 18.7071L21.7071 16.7071C22.0976 16.3166 22.0976 15.6834 21.7071 15.2929L19.7071 13.2929Z" fill="#1F2937"/>
<path d="M14.4142 18L14.7071 17.7071C15.0976 17.3166 15.0976 16.6834 14.7071 16.2929C14.3166 15.9024 13.6834 15.9024 13.2929 16.2929L11.2929 18.2929C10.9024 18.6834 10.9024 19.3166 11.2929 19.7071L13.2929 21.7071C13.6834 22.0976 14.3166 22.0976 14.7071 21.7071C15.0976 21.3166 15.0976 20.6834 14.7071 20.2929L14.4142 20H16C16.5523 20 17 19.5523 17 19C17 18.4477 16.5523 18 16 18H14.4142Z" fill="#1F2937"/>
</svg>
