<svg width="24" height="24" viewBox="0 0 24 24" fill="none" xmlns="http://www.w3.org/2000/svg">
<path d="M6 3C4.34315 3 3 4.34315 3 6V18C3 19.6569 4.34315 21 6 21H12.692C12.2502 20.2164 12 19.3231 12 18.375V17H8C7.44772 17 7 16.5523 7 16C7 15.4477 7.44772 15 8 15H12V13H8C7.44772 13 7 12.5523 7 12C7 11.4477 7.44772 11 8 11H12.1271C12.4988 9.84333 13.6435 9.00073 14.9982 9H8C7.44772 9 7 8.55228 7 8C7 7.44772 7.44772 7 8 7H16C16.5523 7 17 7.44772 17 8C17 8.55228 16.5523 9 16 9H15.0018C15.7675 9.00041 16.4662 9.26981 16.9961 9.71287C17.7119 9.26265 18.5732 9 19.5 9C20.026 9 20.5308 9.08459 21 9.24005V6C21 4.34315 19.6569 3 18 3H6Z" fill="#1F2937"/>
<path fill-rule="evenodd" clip-rule="evenodd" d="M20 13.5C20 13.2239 19.7761 13 19.5 13C19.2239 13 19 13.2239 19 13.5V18C19 18.5523 18.5523 19 18 19C17.4477 19 17 18.5523 17 18V13.5C17 12.1193 18.1193 11 19.5 11C20.8807 11 22 12.1193 22 13.5V18C22 20.2091 20.2091 22 18 22C15.7909 22 14 20.2091 14 18V12C14 11.4477 14.4477 11 15 11C15.5523 11 16 11.4477 16 12V18C16 19.1046 16.8954 20 18 20C19.1046 20 20 19.1046 20 18V13.5Z" fill="#1F2937"/>
</svg>
