<svg width="24" height="24" viewBox="0 0 24 24" fill="none" xmlns="http://www.w3.org/2000/svg">
<path fill-rule="evenodd" clip-rule="evenodd" d="M5 4H16V6C16 6.55228 16.4477 7 17 7C17.5523 7 18 6.55228 18 6V4H19C20.6569 4 22 5.34315 22 7V17C22 18.6569 20.6569 20 19 20H18V18C18 17.4477 17.5523 17 17 17C16.4477 17 16 17.4477 16 18V20H5C3.34315 20 2 18.6569 2 17V7C2 5.34315 3.34314 4 5 4ZM17 7.99098C17.5523 7.99098 18 8.43869 18 8.99098V9.00098C18 9.55326 17.5523 10.001 17 10.001C16.4477 10.001 16 9.55326 16 9.00098V8.99098C16 8.43869 16.4477 7.99098 17 7.99098ZM17 10.991C17.5523 10.991 18 11.4387 18 11.991V12.001C18 12.5533 17.5523 13.001 17 13.001C16.4477 13.001 16 12.5533 16 12.001V11.991C16 11.4387 16.4477 10.991 17 10.991ZM17 13.991C17.5523 13.991 18 14.4387 18 14.991V15.001C18 15.5533 17.5523 16.001 17 16.001C16.4477 16.001 16 15.5533 16 15.001V14.991C16 14.4387 16.4477 13.991 17 13.991ZM8 8C8 7.44772 7.55228 7 7 7C6.44772 7 6 7.44772 6 8V13C6 15.2091 7.79086 17 10 17C12.2091 17 14 15.2091 14 13V9.5C14 8.11929 12.8807 7 11.5 7C10.1193 7 9 8.11929 9 9.5V13C9 13.5523 9.44772 14 10 14C10.5523 14 11 13.5523 11 13V9.5C11 9.22386 11.2239 9 11.5 9C11.7761 9 12 9.22386 12 9.5V13C12 14.1046 11.1046 15 10 15C8.89543 15 8 14.1046 8 13V8Z" fill="#1F2937"/>
</svg>
