<svg width="24" height="24" viewBox="0 0 24 24" fill="none" xmlns="http://www.w3.org/2000/svg">
<path d="M12 2C9.23858 2 7 4.23858 7 7C7 9.76142 9.23858 12 12 12C14.7614 12 17 9.76142 17 7C17 4.23858 14.7614 2 12 2Z" fill="#1F2937"/>
<path d="M9 14C6.23858 14 4 16.2386 4 19V20C4 21.1046 4.89543 22 6 22H12.2547C11.4638 20.8662 11 19.4872 11 18C11 16.5139 11.4654 15.1332 12.2552 14H9Z" fill="#1F2937"/>
<path fill-rule="evenodd" clip-rule="evenodd" d="M18 13C16.6196 13 15.3682 13.5607 14.4645 14.4645C13.5607 15.3682 13 16.6196 13 18C13 20.7614 15.2386 23 18 23C19.3804 23 20.6318 22.4393 21.5355 21.5355C22.4393 20.6318 23 19.3804 23 18C23 15.2386 20.7614 13 18 13ZM20.7078 19.2936L16.7064 15.2922C17.098 15.1047 17.5365 15 18 15C19.6569 15 21 16.3431 21 18C21 18.4635 20.8953 18.902 20.7078 19.2936ZM15.2922 16.7064L19.2936 20.7078C18.902 20.8953 18.4635 21 18 21C16.3431 21 15 19.6569 15 18C15 17.5365 15.1047 17.098 15.2922 16.7064Z" fill="#1F2937"/>
</svg>
