<svg width="24" height="24" viewBox="0 0 24 24" fill="none" xmlns="http://www.w3.org/2000/svg">
<path d="M2 8C2 6.34315 3.34315 5 5 5H15C16.6569 5 18 6.34315 18 8V9.58579L20.2929 7.29289C20.5789 7.0069 21.009 6.92134 21.3827 7.07612C21.7564 7.2309 22 7.59554 22 8V16C22 16.4045 21.7564 16.7691 21.3827 16.9239C21.009 17.0787 20.5789 16.9931 20.2929 16.7071L18 14.4142V16C18 17.6569 16.6569 19 15 19H7.83088C7.86849 18.9071 7.92265 18.8517 8.01805 18.8187C8.32685 18.7122 8.61319 18.561 8.86283 18.3494C8.94368 18.2809 9.01955 18.2065 9.09547 18.1321C9.14779 18.0808 9.20013 18.0296 9.25414 17.9801C9.28215 17.9545 9.32722 17.9281 9.36122 17.9318C9.51536 17.9488 9.66891 17.9707 9.80869 17.9906C9.8224 17.9926 9.83604 17.9945 9.84949 17.9964C9.88129 18.001 9.9123 18.0054 9.94227 18.0096C9.9979 18.0049 10.0498 18.001 10.0991 17.9974C10.1999 17.9898 10.29 17.9831 10.3796 17.972C11.0123 17.894 11.5734 17.6539 12.0315 17.2058C12.462 16.7847 12.8878 16.3589 13.3137 15.9331C13.4769 15.7699 13.6402 15.6066 13.8037 15.4436C13.8471 15.4004 13.891 15.3577 13.935 15.3151C14.0488 15.2047 14.1626 15.0942 14.2656 14.9746C14.7126 14.4557 14.9617 13.8524 14.9955 13.1666C15.0373 12.3192 14.7891 11.5667 14.1949 10.9553C13.4735 10.2131 12.742 9.48027 11.9933 8.76579C11.4924 8.28777 10.8754 8.03964 10.1774 8.00449C9.65115 7.97802 9.14782 8.06731 8.67623 8.30363C7.95066 8.66707 7.44239 9.2278 7.16983 9.99522C7.14363 10.0693 7.10933 10.1306 7.02951 10.1572C6.54565 10.3184 6.13352 10.5899 5.79447 10.9698C5.72378 11.0489 5.65729 11.0675 5.54932 11.0455C5.18915 10.9722 4.8257 10.9809 4.46343 11.044C3.88777 11.1443 3.37965 11.3839 2.96198 11.7944C2.6398 12.1108 2.31978 12.4295 2 12.7484V8Z" fill="#1F2937"/>
<path d="M10.7071 10.2929C10.3166 9.90237 9.68342 9.90237 9.29289 10.2929C8.90237 10.6834 8.90237 11.3166 9.29289 11.7071L9.58579 12H8C7.44772 12 7 12.4477 7 13C7 13.5523 7.44772 14 8 14H9.58579L9.29289 14.2929C8.90237 14.6834 8.90237 15.3166 9.29289 15.7071C9.68342 16.0976 10.3166 16.0976 10.7071 15.7071L12.7071 13.7071C13.0976 13.3166 13.0976 12.6834 12.7071 12.2929L10.7071 10.2929Z" fill="#1F2937"/>
<path d="M5.70711 14.7071C6.09763 14.3166 6.09763 13.6834 5.70711 13.2929C5.31658 12.9024 4.68342 12.9024 4.29289 13.2929L2.29289 15.2929C1.90237 15.6834 1.90237 16.3166 2.29289 16.7071L4.29289 18.7071C4.68342 19.0976 5.31658 19.0976 5.70711 18.7071C6.09763 18.3166 6.09763 17.6834 5.70711 17.2929L5.41421 17H7C7.55228 17 8 16.5523 8 16C8 15.4477 7.55228 15 7 15H5.41421L5.70711 14.7071Z" fill="#1F2937"/>
</svg>
