<svg width="24" height="24" viewBox="0 0 24 24" fill="none" xmlns="http://www.w3.org/2000/svg">
<path d="M2 8C2 6.34315 3.34315 5 5 5H15C16.6569 5 18 6.34315 18 8V9.58579L20.2929 7.29289C20.5789 7.0069 21.009 6.92134 21.3827 7.07612C21.7564 7.2309 22 7.59554 22 8V16C22 16.4045 21.7564 16.7691 21.3827 16.9239C21.009 17.0787 20.5789 16.9931 20.2929 16.7071L18 14.4142V16C18 17.6569 16.6569 19 15 19H13.5732C13.8496 18.2181 14 17.3766 14 16.5C14 12.3579 10.6421 9 6.5 9C4.81159 9 3.25349 9.55792 2 10.4995V8Z" fill="#1F2937"/>
<path fill-rule="evenodd" clip-rule="evenodd" d="M6.5 11C3.46243 11 1 13.4624 1 16.5C1 19.5376 3.46243 22 6.5 22C9.53757 22 12 19.5376 12 16.5C12 13.4624 9.53757 11 6.5 11ZM7 15C7 14.4477 6.55228 14 6 14C5.44772 14 5 14.4477 5 15V17C5 17.5523 5.44772 18 6 18H8C8.55228 18 9 17.5523 9 17C9 16.4477 8.55228 16 8 16H7V15Z" fill="#1F2937"/>
</svg>
