<svg width="180" height="199" viewBox="0 0 180 199" fill="none" xmlns="http://www.w3.org/2000/svg">
<path d="M122.232 0H139.086V16.8539H122.232V0ZM163.056 161.423H179.91V178.277H163.056V161.423ZM163.056 20.2247H179.91V37.0787H163.056V20.2247ZM142.457 0H159.311V16.8539H142.457V0ZM142.457 181.648H159.311V198.502H142.457V181.648ZM102.007 20.2247H118.861V37.0787H102.007V20.2247ZM122.232 20.2247H139.086V37.0787H122.232V20.2247ZM102.007 40.824H118.861V57.6779H102.007V40.824ZM122.232 40.824H139.086V57.6779H122.232V40.824ZM40.9588 61.0487H57.8127V77.9026H40.9588V61.0487ZM81.4082 61.0487H98.2622V77.9026H81.4082V61.0487ZM122.232 61.0487H139.086V77.9026H122.232V61.0487ZM40.9588 81.2734H57.8127V98.1273H40.9588V81.2734ZM61.1835 81.2734H78.0375V98.1273H61.1835V81.2734ZM40.9588 101.873H57.8127V118.727H40.9588V101.873ZM61.1835 101.873H78.0375V118.727H61.1835V101.873ZM122.232 120.974H139.086V137.828H122.232V120.974ZM40.9588 122.097H57.8127V138.951H40.9588V122.097ZM81.4082 122.097H98.2622V138.951H81.4082V122.097ZM102.007 141.573H118.861V158.427H102.007V141.573ZM122.232 141.573H139.086V158.427H122.232V141.573ZM142.457 20.2247H159.311V37.0787H142.457V20.2247ZM122.232 182.022H139.086V198.876H122.232V182.022ZM102.007 161.798H118.861V178.652H102.007V161.798ZM122.232 161.798H139.086V178.652H122.232V161.798ZM142.457 161.798H159.311V178.652H142.457V161.798ZM0.247191 118.719V101.865H17.1011V118.719H0.247191ZM0 98.367V81.5131H16.8539V98.367H0ZM20.4719 139.199V122.345H37.3258V139.199H20.4719ZM20.5992 118.846V101.993H37.4532V118.846H20.5992ZM20.3521 98.4944V81.6404H37.206V98.4944H20.3521ZM20.4794 78.1423V61.2884H37.3333V78.1423H20.4794ZM163.079 158.3V141.446H179.933V158.3H163.079ZM163.071 57.5581V40.7041H179.925V57.5581H163.071ZM142.727 158.547V141.693H159.581V158.547H142.727ZM142.479 138.195V121.341H159.333V138.195H142.479ZM142.592 78.1573V61.3034H159.446V78.1573H142.592ZM142.719 57.8052V40.9513H159.573V57.8052H142.719Z" fill="white"/>
</svg>
