<?xml version="1.0" encoding="utf-8"?><!-- Uploaded to: SVG Repo, www.svgrepo.com, Generator: SVG Repo Mixer Tools -->
<svg version="1.1" id="Uploaded to svgrepo.com" xmlns="http://www.w3.org/2000/svg" xmlns:xlink="http://www.w3.org/1999/xlink" 
	 width="800px" height="800px" viewBox="0 0 32 32" xml:space="preserve">
<style type="text/css">
	.linesandangles_een{fill:#111918;}
</style>
<path class="linesandangles_een" d="M30,11.799C26.134,7.933,21.067,6,16,6S5.866,7.933,2,11.799v0l12,12V26h4v-2.201L30,11.799
	L30,11.799z M15.828,22.799l-2.92-2.92c1.888-1.136,4.26-1.137,6.175,0.008l-2.912,2.912H15.828z M20.546,18.424
	c-2.725-1.885-6.362-1.885-9.092,0.001l-6.548-6.548C8.047,9.364,11.919,8,16,8c4.081,0,7.953,1.364,11.094,3.877L20.546,18.424z"/>
</svg>