<?xml version="1.0" encoding="utf-8"?><!-- Uploaded to: SVG Repo, www.svgrepo.com, Generator: SVG Repo Mixer Tools -->
<svg version="1.1" id="Uploaded to svgrepo.com" xmlns="http://www.w3.org/2000/svg" xmlns:xlink="http://www.w3.org/1999/xlink" 
	 width="800px" height="800px" viewBox="0 0 32 32" xml:space="preserve">
<style type="text/css">
	.linesandangles_een{fill:#111918;}
</style>
<path class="linesandangles_een" d="M12,4l-8,8v16h24V12L12,4z M12.395,6.434L23.528,12H6.828L12.395,6.434z M13,16
	c0,1.103-0.897,2-2,2c-1.103,0-2-0.897-2-2s0.897-2,2-2C12.103,14,13,14.897,13,16z M6,26V14h1.555C7.211,14.59,7,15.268,7,16
	c0,2.209,1.791,4,4,4c2.209,0,4-1.791,4-4c0-0.732-0.211-1.41-0.555-2H26v12H6z M21,17c-2.209,0-4,1.791-4,4s1.791,4,4,4
	c2.209,0,4-1.791,4-4S23.209,17,21,17z M21,23c-1.103,0-2-0.897-2-2s0.897-2,2-2c1.103,0,2,0.897,2,2S22.103,23,21,23z"/>
</svg>