<?xml version="1.0" encoding="utf-8"?><!-- Uploaded to: SVG Repo, www.svgrepo.com, Generator: SVG Repo Mixer Tools -->
<svg version="1.1" id="Uploaded to svgrepo.com" xmlns="http://www.w3.org/2000/svg" xmlns:xlink="http://www.w3.org/1999/xlink" 
	 width="800px" height="800px" viewBox="0 0 32 32" xml:space="preserve">
<style type="text/css">
	.linesandangles_een{fill:#111918;}
</style>
<path class="linesandangles_een" d="M6,4v12.82c0,3.788,2.14,7.25,5.528,8.944L16,28l4.472-2.236C23.86,24.07,26,20.607,26,16.82V4
	H6z M24,14h-7V6h7V14z M15,6v8H8V6H15z M8,16.82V16h7v9.264l-2.578-1.289C9.695,22.611,8,19.869,8,16.82z M19.578,23.975L17,25.264
	V16h7v0.82C24,19.869,22.305,22.611,19.578,23.975z"/>
</svg>