<?xml version="1.0" encoding="utf-8"?><!-- Uploaded to: SVG Repo, www.svgrepo.com, Generator: SVG Repo Mixer Tools -->
<svg version="1.1" id="Uploaded to svgrepo.com" xmlns="http://www.w3.org/2000/svg" xmlns:xlink="http://www.w3.org/1999/xlink" 
	 width="800px" height="800px" viewBox="0 0 32 32" xml:space="preserve">
<style type="text/css">
	.linesandangles_een{fill:#111918;}
</style>
<path class="linesandangles_een" d="M16,2c-4.418,0-8,3.582-8,8c0,4.079,3.055,7.438,7,7.931V30h2V17.931
	c3.945-0.493,7-3.852,7-7.931C24,5.582,20.418,2,16,2z M16,16c-2.757,0-5-2.243-5-5c0-2.206,1.794-4,4-4c1.654,0,3,1.346,3,3
	c0,1.103-0.897,2-2.074,2C15.406,12,15,11.583,15,11.051V10.94c0-0.251,0.098-0.487,0.275-0.664C15.453,10.098,15.689,10,15.94,10
	H16l-0.06-2c-0.784,0-1.522,0.306-2.079,0.861C13.306,9.416,13,10.154,13,10.94v0.111C13,12.677,14.312,14,15.999,14
	C18.205,14,20,12.205,20,10c0-2.757-2.243-5-5-5c-1.4,0-2.686,0.485-3.708,1.292C12.392,4.899,14.091,4,16,4c3.308,0,6,2.692,6,6
	S19.308,16,16,16z"/>
</svg>