<?xml version="1.0" encoding="utf-8"?><!-- Uploaded to: SVG Repo, www.svgrepo.com, Generator: SVG Repo Mixer Tools -->
<svg version="1.1" id="Uploaded to svgrepo.com" xmlns="http://www.w3.org/2000/svg" xmlns:xlink="http://www.w3.org/1999/xlink" 
	 width="800px" height="800px" viewBox="0 0 32 32" xml:space="preserve">
<style type="text/css">
	.linesandangles_een{fill:#111918;}
</style>
<path class="linesandangles_een" d="M22,16v-4h-1V4c0-0.898-0.369-1.619-1.014-1.976c-0.645-0.358-1.451-0.289-2.213,0.188
	l-4.607,2.881C11.932,5.864,11,7.544,11,9v3h-1v4H9v14h14V16H22z M13,9c0-0.756,0.585-1.811,1.227-2.212L19,3.827V12h-6V9z M12,14h8
	v2h-8V14z M21,28H11V18h10V28z"/>
</svg>