<?xml version="1.0" encoding="utf-8"?><!-- Uploaded to: SVG Repo, www.svgrepo.com, Generator: SVG Repo Mixer Tools -->
<svg version="1.1" id="Uploaded to svgrepo.com" xmlns="http://www.w3.org/2000/svg" xmlns:xlink="http://www.w3.org/1999/xlink" 
	 width="800px" height="800px" viewBox="0 0 32 32" xml:space="preserve">
<style type="text/css">
	.linesandangles_een{fill:#111918;}
</style>
<path class="linesandangles_een" d="M11,14h2v2h-2V14z M15,16h2v-2h-2V16z M11,20h2v-2h-2V20z M15,20h2v-2h-2V20z M11,24h2v-2h-2V24
	z M15,24h2v-2h-2V24z M11,28h2v-2h-2V28z M15,28h2v-2h-2V28z M19,16h2v-2h-2V16z M19,20h2v-2h-2V20z M19,24h2v-2h-2V24z M19,28h2v-2
	h-2V28z M22,10v2H10v-2h1c0-2.414,1.721-4.434,4-4.899V4h2v1.101c2.279,0.465,4,2.484,4,4.899H22z M19,10c0-1.654-1.346-3-3-3
	s-3,1.346-3,3H19z"/>
</svg>