<svg width="1560" height="494" viewBox="0 0 1560 494" fill="none" xmlns="http://www.w3.org/2000/svg">
<g filter="url(#filter0_dd_1217_6170)">
<rect x="40.75" y="20.75" width="1478" height="412" rx="40" fill="white"/>
<rect x="40.75" y="20.75" width="1478" height="412" rx="40" stroke="#EBEFF6" stroke-width="1.5"/>
<path d="M128.67 137.75H121.749L132.294 107.205H140.616L151.146 137.75H144.226L136.575 114.185H136.336L128.67 137.75ZM128.237 125.744H144.584V130.785H128.237V125.744ZM154.703 146.341V114.841H160.968V118.689H161.251C161.529 118.072 161.932 117.446 162.459 116.81C162.996 116.163 163.692 115.626 164.547 115.199C165.412 114.761 166.486 114.543 167.769 114.543C169.439 114.543 170.98 114.98 172.392 115.855C173.804 116.72 174.933 118.028 175.778 119.778C176.623 121.518 177.046 123.7 177.046 126.325C177.046 128.881 176.633 131.038 175.808 132.798C174.993 134.548 173.879 135.876 172.467 136.781C171.065 137.675 169.494 138.123 167.754 138.123C166.521 138.123 165.472 137.919 164.607 137.511C163.752 137.104 163.051 136.592 162.504 135.975C161.957 135.349 161.539 134.717 161.251 134.081H161.057V146.341H154.703ZM160.923 126.295C160.923 127.658 161.112 128.846 161.49 129.86C161.868 130.874 162.414 131.665 163.13 132.232C163.846 132.788 164.716 133.067 165.74 133.067C166.775 133.067 167.65 132.783 168.365 132.217C169.081 131.64 169.623 130.844 169.991 129.83C170.369 128.806 170.558 127.628 170.558 126.295C170.558 124.973 170.374 123.81 170.006 122.805C169.638 121.801 169.096 121.016 168.38 120.449C167.664 119.882 166.784 119.599 165.74 119.599C164.706 119.599 163.831 119.872 163.115 120.419C162.409 120.966 161.868 121.741 161.49 122.746C161.112 123.75 160.923 124.933 160.923 126.295ZM181.282 146.341V114.841H187.546V118.689H187.829C188.108 118.072 188.51 117.446 189.037 116.81C189.574 116.163 190.27 115.626 191.125 115.199C191.99 114.761 193.064 114.543 194.347 114.543C196.017 114.543 197.559 114.98 198.971 115.855C200.382 116.72 201.511 118.028 202.356 119.778C203.201 121.518 203.624 123.7 203.624 126.325C203.624 128.881 203.211 131.038 202.386 132.798C201.571 134.548 200.457 135.876 199.045 136.781C197.643 137.675 196.072 138.123 194.332 138.123C193.099 138.123 192.05 137.919 191.185 137.511C190.33 137.104 189.629 136.592 189.082 135.975C188.535 135.349 188.118 134.717 187.829 134.081H187.635V146.341H181.282ZM187.501 126.295C187.501 127.658 187.69 128.846 188.068 129.86C188.446 130.874 188.993 131.665 189.708 132.232C190.424 132.788 191.294 133.067 192.319 133.067C193.353 133.067 194.228 132.783 194.944 132.217C195.659 131.64 196.201 130.844 196.569 129.83C196.947 128.806 197.136 127.628 197.136 126.295C197.136 124.973 196.952 123.81 196.584 122.805C196.216 121.801 195.674 121.016 194.958 120.449C194.243 119.882 193.363 119.599 192.319 119.599C191.284 119.599 190.409 119.872 189.694 120.419C188.988 120.966 188.446 121.741 188.068 122.746C187.69 123.75 187.501 124.933 187.501 126.295ZM214.213 107.205V137.75H207.86V107.205H214.213ZM229.743 138.197C227.387 138.197 225.358 137.72 223.658 136.766C221.968 135.801 220.665 134.439 219.751 132.679C218.836 130.909 218.378 128.816 218.378 126.4C218.378 124.043 218.836 121.975 219.751 120.195C220.665 118.415 221.953 117.028 223.613 116.034C225.284 115.04 227.243 114.543 229.49 114.543C231.001 114.543 232.408 114.786 233.711 115.273C235.023 115.751 236.167 116.472 237.141 117.436C238.126 118.401 238.891 119.614 239.438 121.075C239.985 122.527 240.258 124.227 240.258 126.176V127.921H220.914V123.984H234.278C234.278 123.069 234.079 122.259 233.681 121.553C233.283 120.847 232.731 120.295 232.025 119.897C231.329 119.489 230.519 119.286 229.594 119.286C228.63 119.286 227.775 119.509 227.029 119.957C226.293 120.394 225.716 120.986 225.299 121.732C224.881 122.467 224.667 123.288 224.657 124.192V127.936C224.657 129.07 224.866 130.049 225.284 130.874C225.711 131.7 226.313 132.336 227.089 132.783C227.864 133.231 228.784 133.455 229.848 133.455C230.554 133.455 231.2 133.355 231.787 133.156C232.373 132.957 232.876 132.659 233.293 132.261C233.711 131.864 234.029 131.376 234.248 130.8L240.124 131.188C239.826 132.599 239.214 133.832 238.29 134.886C237.375 135.93 236.192 136.746 234.74 137.332C233.298 137.909 231.633 138.197 229.743 138.197ZM254.245 137.75V107.205H266.296C268.613 107.205 270.586 107.647 272.217 108.532C273.848 109.407 275.091 110.625 275.946 112.186C276.811 113.737 277.243 115.527 277.243 117.555C277.243 119.584 276.806 121.374 275.931 122.925C275.056 124.476 273.788 125.684 272.127 126.549C270.477 127.414 268.478 127.847 266.132 127.847H258.451V122.671H265.088C266.331 122.671 267.355 122.457 268.16 122.03C268.975 121.592 269.582 120.991 269.98 120.225C270.387 119.45 270.591 118.56 270.591 117.555C270.591 116.541 270.387 115.656 269.98 114.901C269.582 114.135 268.975 113.543 268.16 113.126C267.345 112.698 266.311 112.484 265.058 112.484H260.703V137.75H254.245ZM287.236 138.183C285.775 138.183 284.472 137.929 283.328 137.422C282.185 136.905 281.28 136.144 280.614 135.14C279.958 134.126 279.63 132.863 279.63 131.352C279.63 130.079 279.863 129.01 280.331 128.145C280.798 127.28 281.434 126.584 282.24 126.057C283.045 125.53 283.96 125.132 284.984 124.864C286.018 124.595 287.102 124.406 288.235 124.297C289.568 124.158 290.642 124.028 291.457 123.909C292.272 123.78 292.864 123.591 293.232 123.342C293.6 123.094 293.784 122.726 293.784 122.239V122.149C293.784 121.205 293.485 120.474 292.889 119.957C292.302 119.44 291.467 119.181 290.383 119.181C289.24 119.181 288.33 119.435 287.654 119.942C286.978 120.439 286.53 121.065 286.311 121.821L280.435 121.344C280.733 119.952 281.32 118.749 282.195 117.734C283.07 116.71 284.199 115.925 285.581 115.378C286.973 114.821 288.583 114.543 290.413 114.543C291.686 114.543 292.904 114.692 294.067 114.99C295.24 115.288 296.279 115.751 297.184 116.377C298.099 117.004 298.82 117.809 299.347 118.793C299.874 119.768 300.137 120.936 300.137 122.298V137.75H294.112V134.573H293.933C293.565 135.289 293.073 135.92 292.456 136.467C291.84 137.004 291.099 137.427 290.234 137.735C289.369 138.033 288.37 138.183 287.236 138.183ZM289.056 133.798C289.99 133.798 290.816 133.614 291.532 133.246C292.248 132.868 292.809 132.361 293.217 131.724C293.625 131.088 293.828 130.367 293.828 129.562V127.131C293.63 127.26 293.356 127.379 293.008 127.489C292.67 127.588 292.287 127.683 291.86 127.772C291.432 127.852 291.005 127.926 290.577 127.996C290.15 128.055 289.762 128.11 289.414 128.16C288.668 128.269 288.017 128.443 287.46 128.682C286.903 128.92 286.471 129.244 286.162 129.651C285.854 130.049 285.7 130.546 285.7 131.143C285.7 132.008 286.013 132.669 286.64 133.126C287.276 133.574 288.081 133.798 289.056 133.798ZM308.169 146.341C307.364 146.341 306.608 146.276 305.902 146.147C305.206 146.028 304.629 145.874 304.172 145.685L305.604 140.942C306.349 141.17 307.021 141.295 307.617 141.315C308.224 141.335 308.746 141.195 309.183 140.897C309.631 140.599 309.994 140.092 310.272 139.376L310.645 138.406L302.427 114.841H309.109L313.852 131.665H314.09L318.878 114.841H325.604L316.7 140.226C316.273 141.459 315.691 142.533 314.955 143.447C314.229 144.372 313.31 145.083 312.196 145.58C311.082 146.087 309.74 146.341 308.169 146.341Z" fill="#19213D"/>
<a href="https://developer.apple.com/apple-pay/marketing/">
<rect fill="black" fill-opacity="0" y="1.58523" width="205.57" height="50.8295"/>
</a>
<g filter="url(#filter1_dd_1217_6170)">
<rect x="486.75" y="213.75" width="208" height="134" rx="24" fill="white"/>
<rect x="486.25" y="213.25" width="209" height="135" rx="24.5" stroke="#D6DCE5"/>
<path d="M554.026 263.198C555.414 261.462 556.355 259.132 556.107 256.75C554.076 256.851 551.597 258.09 550.162 259.827C548.873 261.315 547.732 263.743 548.03 266.025C550.31 266.222 552.588 264.885 554.026 263.198Z" fill="#000008"/>
<path d="M556.081 266.47C552.77 266.273 549.954 268.35 548.373 268.35C546.79 268.35 544.369 266.57 541.749 266.618C538.34 266.668 535.177 268.595 533.447 271.661C529.888 277.794 532.508 286.891 535.968 291.886C537.648 294.358 539.674 297.078 542.342 296.981C544.863 296.882 545.851 295.348 548.916 295.348C551.979 295.348 552.869 296.981 555.538 296.931C558.305 296.882 560.036 294.459 561.716 291.985C563.644 289.168 564.433 286.448 564.483 286.299C564.433 286.249 559.146 284.221 559.097 278.139C559.047 273.046 563.248 270.624 563.445 270.474C561.073 266.965 557.366 266.57 556.081 266.47Z" fill="#000008"/>
<path d="M584.916 259.578C592.114 259.578 597.126 264.54 597.126 271.763C597.126 279.012 592.011 284 584.736 284H576.766V296.673H571.009V259.578L584.916 259.578ZM576.766 279.167H583.373C588.386 279.167 591.239 276.468 591.239 271.789C591.239 267.111 588.386 264.437 583.399 264.437H576.766V279.167Z" fill="#000008"/>
<path d="M598.63 288.987C598.63 284.256 602.255 281.352 608.682 280.992L616.085 280.555V278.473C616.085 275.465 614.054 273.666 610.661 273.666C607.447 273.666 605.442 275.208 604.954 277.624H599.71C600.018 272.74 604.182 269.141 610.866 269.141C617.422 269.141 621.611 272.611 621.611 278.035V296.673H616.29V292.226H616.162C614.594 295.233 611.175 297.135 607.628 297.135C602.332 297.135 598.63 293.845 598.63 288.987ZM616.085 286.545V284.411L609.427 284.822C606.11 285.054 604.234 286.519 604.234 288.833C604.234 291.197 606.188 292.74 609.17 292.74C613.051 292.74 616.085 290.066 616.085 286.545Z" fill="#000008"/>
<path d="M626.635 306.621V302.123C627.046 302.225 627.971 302.225 628.434 302.225C631.005 302.225 632.393 301.146 633.241 298.37C633.241 298.318 633.73 296.724 633.73 296.699L623.962 269.629H629.976L636.815 291.635H636.917L643.756 269.629H649.617L639.488 298.086C637.175 304.642 634.501 306.75 628.897 306.75C628.434 306.75 627.046 306.698 626.635 306.621Z" fill="#000008"/>
</g>
<g filter="url(#filter2_dd_1217_6170)">
<rect x="120.25" y="213.25" width="327" height="135" rx="24.5" stroke="#D6DCE5"/>
<path d="M338.633 237.75H229.64C229.186 237.75 228.732 237.75 228.279 237.753C227.896 237.755 227.513 237.76 227.131 237.77C226.298 237.793 225.457 237.842 224.634 237.99C223.798 238.14 223.02 238.386 222.261 238.772C221.515 239.152 220.832 239.648 220.239 240.24C219.647 240.833 219.151 241.515 218.771 242.262C218.385 243.021 218.139 243.799 217.99 244.636C217.841 245.459 217.792 246.3 217.769 247.132C217.759 247.514 217.754 247.896 217.752 248.278C217.749 248.733 217.75 249.186 217.75 249.641V310.86C217.75 311.315 217.749 311.768 217.752 312.222C217.754 312.605 217.759 312.987 217.769 313.369C217.792 314.201 217.841 315.041 217.99 315.864C218.139 316.701 218.385 317.479 218.771 318.238C219.151 318.985 219.647 319.668 220.239 320.26C220.832 320.853 221.515 321.349 222.261 321.728C223.02 322.115 223.798 322.361 224.634 322.511C225.457 322.658 226.298 322.708 227.131 322.731C227.513 322.74 227.896 322.745 228.279 322.746C228.732 322.75 229.186 322.75 229.64 322.75H338.633C339.086 322.75 339.54 322.75 339.993 322.746C340.376 322.745 340.758 322.74 341.142 322.731C341.973 322.708 342.814 322.658 343.639 322.511C344.474 322.361 345.252 322.115 346.011 321.728C346.758 321.349 347.439 320.853 348.033 320.26C348.624 319.668 349.12 318.985 349.501 318.238C349.888 317.479 350.134 316.701 350.282 315.864C350.431 315.041 350.479 314.201 350.502 313.369C350.512 312.987 350.518 312.605 350.519 312.222C350.523 311.768 350.523 311.315 350.523 310.86V249.641C350.523 249.186 350.523 248.733 350.519 248.278C350.518 247.896 350.512 247.514 350.502 247.132C350.479 246.3 350.431 245.459 350.282 244.636C350.134 243.799 349.888 243.021 349.501 242.262C349.12 241.515 348.624 240.833 348.033 240.24C347.439 239.648 346.758 239.152 346.011 238.772C345.252 238.386 344.474 238.14 343.639 237.99C342.814 237.842 341.973 237.793 341.142 237.77C340.758 237.76 340.376 237.755 339.993 237.753C339.54 237.75 339.086 237.75 338.633 237.75Z" fill="#000008"/>
<path d="M338.633 240.583L339.973 240.586C340.337 240.588 340.7 240.592 341.065 240.602C341.7 240.619 342.444 240.654 343.136 240.778C343.738 240.886 344.243 241.051 344.728 241.298C345.207 241.541 345.645 241.86 346.028 242.242C346.412 242.627 346.731 243.066 346.977 243.55C347.223 244.031 347.387 244.533 347.494 245.14C347.618 245.825 347.653 246.57 347.67 247.209C347.68 247.57 347.685 247.931 347.686 248.3C347.69 248.747 347.69 249.194 347.69 249.641V310.86C347.69 311.307 347.69 311.753 347.686 312.209C347.685 312.57 347.68 312.931 347.67 313.292C347.653 313.93 347.618 314.675 347.493 315.369C347.387 315.967 347.223 316.469 346.976 316.953C346.73 317.435 346.412 317.874 346.029 318.256C345.644 318.641 345.207 318.959 344.723 319.204C344.242 319.45 343.738 319.615 343.142 319.722C342.435 319.848 341.661 319.883 341.078 319.898C340.711 319.907 340.346 319.912 339.972 319.913C339.526 319.917 339.078 319.917 338.633 319.917H229.64C229.635 319.917 229.629 319.917 229.623 319.917C229.182 319.917 228.74 319.917 228.292 319.913C227.926 319.912 227.561 319.907 227.208 319.899C226.611 319.883 225.837 319.848 225.136 319.723C224.534 319.615 224.03 319.45 223.543 319.201C223.063 318.958 222.626 318.641 222.241 318.255C221.859 317.873 221.542 317.436 221.296 316.953C221.05 316.47 220.886 315.966 220.778 315.36C220.653 314.668 220.618 313.927 220.601 313.293C220.591 312.93 220.587 312.567 220.585 312.206L220.583 311.141V249.36L220.585 248.297C220.587 247.934 220.591 247.571 220.601 247.209C220.618 246.574 220.653 245.832 220.779 245.134C220.886 244.534 221.05 244.03 221.297 243.545C221.541 243.065 221.859 242.627 222.243 242.243C222.626 241.86 223.064 241.542 223.547 241.297C224.029 241.051 224.534 240.886 225.135 240.778C225.828 240.654 226.572 240.619 227.209 240.602C227.572 240.592 227.935 240.588 228.295 240.586L229.64 240.583H338.633Z" fill="white"/>
<path d="M253.996 266.339C255.133 264.917 255.904 263.008 255.701 261.057C254.037 261.14 252.006 262.155 250.83 263.578C249.774 264.796 248.84 266.786 249.084 268.655C250.952 268.817 252.818 267.721 253.996 266.339Z" fill="#000008"/>
<path d="M255.68 269.02C252.967 268.858 250.66 270.56 249.364 270.56C248.068 270.56 246.084 269.101 243.938 269.141C241.145 269.182 238.554 270.761 237.137 273.272C234.222 278.297 236.367 285.75 239.202 289.842C240.579 291.866 242.238 294.095 244.424 294.015C246.489 293.934 247.299 292.678 249.81 292.678C252.319 292.678 253.048 294.015 255.234 293.975C257.502 293.934 258.919 291.949 260.296 289.923C261.875 287.615 262.522 285.386 262.562 285.264C262.522 285.224 258.19 283.562 258.15 278.579C258.109 274.407 261.551 272.423 261.713 272.3C259.769 269.425 256.732 269.101 255.68 269.02Z" fill="#000008"/>
<path d="M279.302 263.374C285.198 263.374 289.304 267.438 289.304 273.356C289.304 279.295 285.114 283.38 279.154 283.38H272.625V293.763H267.908V263.374L279.302 263.374ZM272.625 279.421H278.038C282.145 279.421 284.482 277.21 284.482 273.377C284.482 269.544 282.145 267.354 278.059 267.354H272.625V279.421Z" fill="#000008"/>
<path d="M290.537 287.466C290.537 283.591 293.506 281.211 298.772 280.916L304.836 280.559V278.853C304.836 276.389 303.173 274.915 300.393 274.915C297.76 274.915 296.118 276.178 295.718 278.158H291.422C291.674 274.156 295.086 271.208 300.561 271.208C305.932 271.208 309.364 274.051 309.364 278.495V293.763H305.005V290.12H304.9C303.615 292.584 300.814 294.142 297.908 294.142C293.57 294.142 290.537 291.446 290.537 287.466ZM304.836 285.466V283.718L299.382 284.054C296.665 284.244 295.128 285.444 295.128 287.34C295.128 289.277 296.728 290.541 299.171 290.541C302.351 290.541 304.836 288.35 304.836 285.466Z" fill="#000008"/>
<path d="M313.48 301.913V298.228C313.816 298.312 314.574 298.312 314.954 298.312C317.059 298.312 318.197 297.427 318.891 295.153C318.891 295.111 319.292 293.805 319.292 293.784L311.289 271.608H316.217L321.819 289.635H321.903L327.505 271.608H332.307L324.009 294.921C322.114 300.292 319.924 302.018 315.333 302.018C314.954 302.018 313.816 301.976 313.48 301.913Z" fill="#000008"/>
</g>
<g filter="url(#filter3_dd_1217_6170)">
<rect x="734.75" y="213.75" width="208" height="134" rx="24" fill="#000008"/>
<rect x="734.25" y="213.25" width="209" height="135" rx="24.5" stroke="#D6DCE5"/>
<path d="M801.026 263.198C802.414 261.462 803.355 259.132 803.107 256.75C801.076 256.851 798.597 258.09 797.162 259.827C795.873 261.315 794.732 263.743 795.03 266.025C797.31 266.222 799.588 264.885 801.026 263.198Z" fill="white"/>
<path d="M803.081 266.47C799.77 266.273 796.954 268.35 795.373 268.35C793.79 268.35 791.369 266.57 788.749 266.618C785.34 266.668 782.177 268.595 780.447 271.661C776.888 277.794 779.508 286.891 782.968 291.886C784.648 294.358 786.674 297.078 789.342 296.981C791.863 296.882 792.851 295.348 795.916 295.348C798.979 295.348 799.869 296.981 802.538 296.931C805.305 296.882 807.036 294.459 808.716 291.985C810.644 289.168 811.433 286.448 811.483 286.299C811.433 286.249 806.146 284.221 806.097 278.139C806.047 273.046 810.248 270.624 810.445 270.474C808.073 266.965 804.366 266.57 803.081 266.47Z" fill="white"/>
<path d="M831.916 259.578C839.114 259.578 844.126 264.54 844.126 271.763C844.126 279.012 839.011 284 831.736 284H823.766V296.673H818.009V259.578L831.916 259.578ZM823.766 279.167H830.373C835.386 279.167 838.239 276.468 838.239 271.789C838.239 267.111 835.386 264.437 830.399 264.437H823.766V279.167Z" fill="white"/>
<path d="M845.63 288.987C845.63 284.256 849.255 281.352 855.682 280.992L863.085 280.555V278.473C863.085 275.465 861.054 273.666 857.661 273.666C854.447 273.666 852.442 275.208 851.954 277.624H846.71C847.018 272.74 851.182 269.141 857.866 269.141C864.422 269.141 868.611 272.611 868.611 278.035V296.673H863.29V292.226H863.162C861.594 295.233 858.175 297.135 854.628 297.135C849.332 297.135 845.63 293.845 845.63 288.987ZM863.085 286.545V284.411L856.427 284.822C853.11 285.054 851.234 286.519 851.234 288.833C851.234 291.197 853.188 292.74 856.17 292.74C860.051 292.74 863.085 290.066 863.085 286.545Z" fill="white"/>
<path d="M873.635 306.621V302.123C874.046 302.225 874.971 302.225 875.434 302.225C878.005 302.225 879.393 301.146 880.241 298.37C880.241 298.318 880.73 296.724 880.73 296.699L870.962 269.629H876.976L883.815 291.635H883.917L890.756 269.629H896.617L886.488 298.086C884.175 304.642 881.501 306.75 875.897 306.75C875.434 306.75 874.046 306.698 873.635 306.621Z" fill="white"/>
</g>
<g filter="url(#filter4_dd_1217_6170)">
<rect x="982.75" y="213.75" width="208" height="134" rx="24" fill="#EDEDED"/>
<rect x="982.25" y="213.25" width="209" height="135" rx="24.5" stroke="#D6DCE5"/>
<path d="M1049.03 263.198C1050.41 261.462 1051.36 259.132 1051.11 256.75C1049.08 256.851 1046.6 258.09 1045.16 259.827C1043.87 261.315 1042.73 263.743 1043.03 266.025C1045.31 266.222 1047.59 264.885 1049.03 263.198Z" fill="#000008"/>
<path d="M1051.08 266.47C1047.77 266.273 1044.95 268.35 1043.37 268.35C1041.79 268.35 1039.37 266.57 1036.75 266.618C1033.34 266.668 1030.18 268.595 1028.45 271.661C1024.89 277.794 1027.51 286.891 1030.97 291.886C1032.65 294.358 1034.67 297.078 1037.34 296.981C1039.86 296.882 1040.85 295.348 1043.92 295.348C1046.98 295.348 1047.87 296.981 1050.54 296.931C1053.31 296.882 1055.04 294.459 1056.72 291.985C1058.64 289.168 1059.43 286.448 1059.48 286.299C1059.43 286.249 1054.15 284.221 1054.1 278.139C1054.05 273.046 1058.25 270.624 1058.45 270.474C1056.07 266.965 1052.37 266.57 1051.08 266.47Z" fill="#000008"/>
<path d="M1079.92 259.578C1087.11 259.578 1092.13 264.54 1092.13 271.763C1092.13 279.012 1087.01 284 1079.74 284H1071.77V296.673H1066.01V259.578L1079.92 259.578ZM1071.77 279.167H1078.37C1083.39 279.167 1086.24 276.468 1086.24 271.789C1086.24 267.111 1083.39 264.437 1078.4 264.437H1071.77V279.167Z" fill="#000008"/>
<path d="M1093.63 288.987C1093.63 284.256 1097.25 281.352 1103.68 280.992L1111.08 280.555V278.473C1111.08 275.465 1109.05 273.666 1105.66 273.666C1102.45 273.666 1100.44 275.208 1099.95 277.624H1094.71C1095.02 272.74 1099.18 269.141 1105.87 269.141C1112.42 269.141 1116.61 272.611 1116.61 278.035V296.673H1111.29V292.226H1111.16C1109.59 295.233 1106.17 297.135 1102.63 297.135C1097.33 297.135 1093.63 293.845 1093.63 288.987ZM1111.08 286.545V284.411L1104.43 284.822C1101.11 285.054 1099.23 286.519 1099.23 288.833C1099.23 291.197 1101.19 292.74 1104.17 292.74C1108.05 292.74 1111.08 290.066 1111.08 286.545Z" fill="#000008"/>
<path d="M1121.64 306.621V302.123C1122.05 302.225 1122.97 302.225 1123.43 302.225C1126 302.225 1127.39 301.146 1128.24 298.37C1128.24 298.318 1128.73 296.724 1128.73 296.699L1118.96 269.629H1124.98L1131.82 291.635H1131.92L1138.76 269.629H1144.62L1134.49 298.086C1132.18 304.642 1129.5 306.75 1123.9 306.75C1123.43 306.75 1122.05 306.698 1121.64 306.621Z" fill="#000008"/>
</g>
<g filter="url(#filter5_dd_1217_6170)">
<rect x="1230.75" y="213.75" width="208" height="134" rx="24" fill="#393652"/>
<rect x="1230.25" y="213.25" width="209" height="135" rx="24.5" stroke="#D6DCE5"/>
<path d="M1297.03 263.198C1298.41 261.462 1299.36 259.132 1299.11 256.75C1297.08 256.851 1294.6 258.09 1293.16 259.827C1291.87 261.315 1290.73 263.743 1291.03 266.025C1293.31 266.222 1295.59 264.885 1297.03 263.198Z" fill="white"/>
<path d="M1299.08 266.47C1295.77 266.273 1292.95 268.35 1291.37 268.35C1289.79 268.35 1287.37 266.57 1284.75 266.618C1281.34 266.668 1278.18 268.595 1276.45 271.661C1272.89 277.794 1275.51 286.891 1278.97 291.886C1280.65 294.358 1282.67 297.078 1285.34 296.981C1287.86 296.882 1288.85 295.348 1291.92 295.348C1294.98 295.348 1295.87 296.981 1298.54 296.931C1301.31 296.882 1303.04 294.459 1304.72 291.985C1306.64 289.168 1307.43 286.448 1307.48 286.299C1307.43 286.249 1302.15 284.221 1302.1 278.139C1302.05 273.046 1306.25 270.624 1306.45 270.474C1304.07 266.965 1300.37 266.57 1299.08 266.47Z" fill="white"/>
<path d="M1327.92 259.578C1335.11 259.578 1340.13 264.54 1340.13 271.763C1340.13 279.012 1335.01 284 1327.74 284H1319.77V296.673H1314.01V259.578L1327.92 259.578ZM1319.77 279.167H1326.37C1331.39 279.167 1334.24 276.468 1334.24 271.789C1334.24 267.111 1331.39 264.437 1326.4 264.437H1319.77V279.167Z" fill="white"/>
<path d="M1341.63 288.987C1341.63 284.256 1345.25 281.352 1351.68 280.992L1359.08 280.555V278.473C1359.08 275.465 1357.05 273.666 1353.66 273.666C1350.45 273.666 1348.44 275.208 1347.95 277.624H1342.71C1343.02 272.74 1347.18 269.141 1353.87 269.141C1360.42 269.141 1364.61 272.611 1364.61 278.035V296.673H1359.29V292.226H1359.16C1357.59 295.233 1354.17 297.135 1350.63 297.135C1345.33 297.135 1341.63 293.845 1341.63 288.987ZM1359.08 286.545V284.411L1352.43 284.822C1349.11 285.054 1347.23 286.519 1347.23 288.833C1347.23 291.197 1349.19 292.74 1352.17 292.74C1356.05 292.74 1359.08 290.066 1359.08 286.545Z" fill="white"/>
<path d="M1369.64 306.621V302.123C1370.05 302.225 1370.97 302.225 1371.43 302.225C1374 302.225 1375.39 301.146 1376.24 298.37C1376.24 298.318 1376.73 296.724 1376.73 296.699L1366.96 269.629H1372.98L1379.82 291.635H1379.92L1386.76 269.629H1392.62L1382.49 298.086C1380.18 304.642 1377.5 306.75 1371.9 306.75C1371.43 306.75 1370.05 306.698 1369.64 306.621Z" fill="white"/>
</g>
</g>
<defs>
<filter id="filter0_dd_1217_6170" x="0" y="0" width="1559.5" height="493.5" filterUnits="userSpaceOnUse" color-interpolation-filters="sRGB">
<feFlood flood-opacity="0" result="BackgroundImageFix"/>
<feColorMatrix in="SourceAlpha" type="matrix" values="0 0 0 0 0 0 0 0 0 0 0 0 0 0 0 0 0 0 127 0" result="hardAlpha"/>
<feOffset dy="20"/>
<feGaussianBlur stdDeviation="20"/>
<feColorMatrix type="matrix" values="0 0 0 0 0.717647 0 0 0 0 0.717647 0 0 0 0 0.717647 0 0 0 0.06 0"/>
<feBlend mode="normal" in2="BackgroundImageFix" result="effect1_dropShadow_1217_6170"/>
<feColorMatrix in="SourceAlpha" type="matrix" values="0 0 0 0 0 0 0 0 0 0 0 0 0 0 0 0 0 0 127 0" result="hardAlpha"/>
<feOffset dy="4"/>
<feGaussianBlur stdDeviation="7"/>
<feColorMatrix type="matrix" values="0 0 0 0 0.716667 0 0 0 0 0.716667 0 0 0 0 0.716667 0 0 0 0.02 0"/>
<feBlend mode="normal" in2="effect1_dropShadow_1217_6170" result="effect2_dropShadow_1217_6170"/>
<feBlend mode="normal" in="SourceGraphic" in2="effect2_dropShadow_1217_6170" result="shape"/>
</filter>
<filter id="filter1_dd_1217_6170" x="445.75" y="192.75" width="290" height="216" filterUnits="userSpaceOnUse" color-interpolation-filters="sRGB">
<feFlood flood-opacity="0" result="BackgroundImageFix"/>
<feColorMatrix in="SourceAlpha" type="matrix" values="0 0 0 0 0 0 0 0 0 0 0 0 0 0 0 0 0 0 127 0" result="hardAlpha"/>
<feOffset dy="2"/>
<feGaussianBlur stdDeviation="10"/>
<feColorMatrix type="matrix" values="0 0 0 0 0.717647 0 0 0 0 0.717647 0 0 0 0 0.717647 0 0 0 0.08 0"/>
<feBlend mode="normal" in2="BackgroundImageFix" result="effect1_dropShadow_1217_6170"/>
<feColorMatrix in="SourceAlpha" type="matrix" values="0 0 0 0 0 0 0 0 0 0 0 0 0 0 0 0 0 0 127 0" result="hardAlpha"/>
<feOffset dy="20"/>
<feGaussianBlur stdDeviation="20"/>
<feColorMatrix type="matrix" values="0 0 0 0 0.717647 0 0 0 0 0.717647 0 0 0 0 0.717647 0 0 0 0.08 0"/>
<feBlend mode="normal" in2="effect1_dropShadow_1217_6170" result="effect2_dropShadow_1217_6170"/>
<feBlend mode="normal" in="SourceGraphic" in2="effect2_dropShadow_1217_6170" result="shape"/>
</filter>
<filter id="filter2_dd_1217_6170" x="79.75" y="192.75" width="408" height="216" filterUnits="userSpaceOnUse" color-interpolation-filters="sRGB">
<feFlood flood-opacity="0" result="BackgroundImageFix"/>
<feColorMatrix in="SourceAlpha" type="matrix" values="0 0 0 0 0 0 0 0 0 0 0 0 0 0 0 0 0 0 127 0" result="hardAlpha"/>
<feOffset dy="2"/>
<feGaussianBlur stdDeviation="10"/>
<feColorMatrix type="matrix" values="0 0 0 0 0.717647 0 0 0 0 0.717647 0 0 0 0 0.717647 0 0 0 0.08 0"/>
<feBlend mode="normal" in2="BackgroundImageFix" result="effect1_dropShadow_1217_6170"/>
<feColorMatrix in="SourceAlpha" type="matrix" values="0 0 0 0 0 0 0 0 0 0 0 0 0 0 0 0 0 0 127 0" result="hardAlpha"/>
<feOffset dy="20"/>
<feGaussianBlur stdDeviation="20"/>
<feColorMatrix type="matrix" values="0 0 0 0 0.717647 0 0 0 0 0.717647 0 0 0 0 0.717647 0 0 0 0.08 0"/>
<feBlend mode="normal" in2="effect1_dropShadow_1217_6170" result="effect2_dropShadow_1217_6170"/>
<feBlend mode="normal" in="SourceGraphic" in2="effect2_dropShadow_1217_6170" result="shape"/>
</filter>
<filter id="filter3_dd_1217_6170" x="693.75" y="192.75" width="290" height="216" filterUnits="userSpaceOnUse" color-interpolation-filters="sRGB">
<feFlood flood-opacity="0" result="BackgroundImageFix"/>
<feColorMatrix in="SourceAlpha" type="matrix" values="0 0 0 0 0 0 0 0 0 0 0 0 0 0 0 0 0 0 127 0" result="hardAlpha"/>
<feOffset dy="2"/>
<feGaussianBlur stdDeviation="10"/>
<feColorMatrix type="matrix" values="0 0 0 0 0.717647 0 0 0 0 0.717647 0 0 0 0 0.717647 0 0 0 0.08 0"/>
<feBlend mode="normal" in2="BackgroundImageFix" result="effect1_dropShadow_1217_6170"/>
<feColorMatrix in="SourceAlpha" type="matrix" values="0 0 0 0 0 0 0 0 0 0 0 0 0 0 0 0 0 0 127 0" result="hardAlpha"/>
<feOffset dy="20"/>
<feGaussianBlur stdDeviation="20"/>
<feColorMatrix type="matrix" values="0 0 0 0 0.717647 0 0 0 0 0.717647 0 0 0 0 0.717647 0 0 0 0.08 0"/>
<feBlend mode="normal" in2="effect1_dropShadow_1217_6170" result="effect2_dropShadow_1217_6170"/>
<feBlend mode="normal" in="SourceGraphic" in2="effect2_dropShadow_1217_6170" result="shape"/>
</filter>
<filter id="filter4_dd_1217_6170" x="941.75" y="192.75" width="290" height="216" filterUnits="userSpaceOnUse" color-interpolation-filters="sRGB">
<feFlood flood-opacity="0" result="BackgroundImageFix"/>
<feColorMatrix in="SourceAlpha" type="matrix" values="0 0 0 0 0 0 0 0 0 0 0 0 0 0 0 0 0 0 127 0" result="hardAlpha"/>
<feOffset dy="2"/>
<feGaussianBlur stdDeviation="10"/>
<feColorMatrix type="matrix" values="0 0 0 0 0.717647 0 0 0 0 0.717647 0 0 0 0 0.717647 0 0 0 0.08 0"/>
<feBlend mode="normal" in2="BackgroundImageFix" result="effect1_dropShadow_1217_6170"/>
<feColorMatrix in="SourceAlpha" type="matrix" values="0 0 0 0 0 0 0 0 0 0 0 0 0 0 0 0 0 0 127 0" result="hardAlpha"/>
<feOffset dy="20"/>
<feGaussianBlur stdDeviation="20"/>
<feColorMatrix type="matrix" values="0 0 0 0 0.717647 0 0 0 0 0.717647 0 0 0 0 0.717647 0 0 0 0.08 0"/>
<feBlend mode="normal" in2="effect1_dropShadow_1217_6170" result="effect2_dropShadow_1217_6170"/>
<feBlend mode="normal" in="SourceGraphic" in2="effect2_dropShadow_1217_6170" result="shape"/>
</filter>
<filter id="filter5_dd_1217_6170" x="1189.75" y="192.75" width="290" height="216" filterUnits="userSpaceOnUse" color-interpolation-filters="sRGB">
<feFlood flood-opacity="0" result="BackgroundImageFix"/>
<feColorMatrix in="SourceAlpha" type="matrix" values="0 0 0 0 0 0 0 0 0 0 0 0 0 0 0 0 0 0 127 0" result="hardAlpha"/>
<feOffset dy="2"/>
<feGaussianBlur stdDeviation="10"/>
<feColorMatrix type="matrix" values="0 0 0 0 0.717647 0 0 0 0 0.717647 0 0 0 0 0.717647 0 0 0 0.08 0"/>
<feBlend mode="normal" in2="BackgroundImageFix" result="effect1_dropShadow_1217_6170"/>
<feColorMatrix in="SourceAlpha" type="matrix" values="0 0 0 0 0 0 0 0 0 0 0 0 0 0 0 0 0 0 127 0" result="hardAlpha"/>
<feOffset dy="20"/>
<feGaussianBlur stdDeviation="20"/>
<feColorMatrix type="matrix" values="0 0 0 0 0.717647 0 0 0 0 0.717647 0 0 0 0 0.717647 0 0 0 0.08 0"/>
<feBlend mode="normal" in2="effect1_dropShadow_1217_6170" result="effect2_dropShadow_1217_6170"/>
<feBlend mode="normal" in="SourceGraphic" in2="effect2_dropShadow_1217_6170" result="shape"/>
</filter>
</defs>
</svg>
