<svg width="816" height="494" viewBox="0 0 816 494" fill="none" xmlns="http://www.w3.org/2000/svg">
<g filter="url(#filter0_dd_1222_3174)">
<rect x="40.75" y="20.75" width="734" height="412" rx="40" fill="white"/>
<rect x="40.75" y="20.75" width="734" height="412" rx="40" stroke="#EBEFF6" stroke-width="1.5"/>
<path d="M123.405 137.75V107.205H135.635C137.882 107.205 139.756 107.538 141.258 108.204C142.759 108.87 143.888 109.795 144.643 110.978C145.399 112.151 145.777 113.504 145.777 115.035C145.777 116.228 145.538 117.277 145.061 118.182C144.584 119.077 143.928 119.812 143.092 120.389C142.267 120.956 141.322 121.359 140.259 121.597V121.896C141.422 121.945 142.511 122.273 143.525 122.88C144.549 123.487 145.379 124.337 146.016 125.43C146.652 126.514 146.97 127.807 146.97 129.308C146.97 130.929 146.567 132.376 145.762 133.648C144.967 134.911 143.788 135.911 142.227 136.646C140.666 137.382 138.742 137.75 136.455 137.75H123.405ZM129.863 132.47H135.128C136.928 132.47 138.24 132.127 139.065 131.441C139.891 130.745 140.303 129.82 140.303 128.667C140.303 127.822 140.099 127.076 139.692 126.43C139.284 125.783 138.702 125.276 137.947 124.908C137.201 124.54 136.311 124.357 135.277 124.357H129.863V132.47ZM129.863 119.987H134.651C135.536 119.987 136.321 119.832 137.007 119.524C137.703 119.206 138.25 118.759 138.648 118.182C139.055 117.605 139.259 116.914 139.259 116.109C139.259 115.005 138.866 114.115 138.081 113.439C137.305 112.763 136.202 112.425 134.77 112.425H129.863V119.987ZM151.172 137.75V107.205H163.403C165.65 107.205 167.524 107.538 169.025 108.204C170.527 108.87 171.655 109.795 172.411 110.978C173.167 112.151 173.545 113.504 173.545 115.035C173.545 116.228 173.306 117.277 172.829 118.182C172.351 119.077 171.695 119.812 170.86 120.389C170.035 120.956 169.09 121.359 168.026 121.597V121.896C169.189 121.945 170.278 122.273 171.292 122.88C172.317 123.487 173.147 124.337 173.783 125.43C174.42 126.514 174.738 127.807 174.738 129.308C174.738 130.929 174.335 132.376 173.53 133.648C172.734 134.911 171.556 135.911 169.995 136.646C168.434 137.382 166.51 137.75 164.223 137.75H151.172ZM157.631 132.47H162.895C164.695 132.47 166.008 132.127 166.833 131.441C167.658 130.745 168.071 129.82 168.071 128.667C168.071 127.822 167.867 127.076 167.459 126.43C167.052 125.783 166.47 125.276 165.714 124.908C164.969 124.54 164.079 124.357 163.045 124.357H157.631V132.47ZM157.631 119.987H162.418C163.303 119.987 164.089 119.832 164.775 119.524C165.471 119.206 166.018 118.759 166.415 118.182C166.823 117.605 167.027 116.914 167.027 116.109C167.027 115.005 166.634 114.115 165.849 113.439C165.073 112.763 163.969 112.425 162.537 112.425H157.631V119.987ZM184.458 107.205L191.841 130.412H192.125L199.522 107.205H206.681L196.152 137.75H187.829L177.284 107.205H184.458ZM211.562 137.75H204.642L215.187 107.205H223.509L234.039 137.75H227.118L219.467 114.185H219.229L211.562 137.75ZM211.13 125.744H227.476V130.785H211.13V125.744Z" fill="#19213D"/>
<a href="https://www.bbva.com/en/">
<rect fill="black" fill-opacity="0" y="1.58523" width="114.303" height="50.8295"/>
</a>
<g filter="url(#filter1_dd_1222_3174)">
<rect x="179.75" y="213.75" width="456" height="134" rx="24" fill="white"/>
<rect x="179.25" y="213.25" width="457" height="135" rx="24.5" stroke="#D6DCE5"/>
<path d="M332.759 282.604C333.525 282.862 334.417 283.245 335.434 283.754C337.218 284.778 338.744 286.179 340.026 287.962C341.559 290.513 342.319 293.572 342.319 297.139C342.319 309.382 334.919 315.5 320.133 315.5H291.452C290.686 315.5 290.303 315.117 290.303 314.35V255.443C290.303 254.677 290.686 254.294 291.452 254.294H321.672C327.03 254.294 331.358 255.767 334.675 258.694C337.985 261.627 339.65 265.519 339.65 270.362C339.65 273.17 339.009 275.654 337.74 277.821C336.458 279.995 334.8 281.587 332.759 282.604ZM319.756 306.7C324.09 306.7 327.275 305.999 329.316 304.599C331.351 303.198 332.375 300.773 332.375 297.331C332.375 293.889 331.351 291.471 329.316 290.063C327.275 288.663 324.084 287.962 319.756 287.962H301.779C300.755 287.962 300.246 288.346 300.246 289.112V305.563C300.246 306.33 300.755 306.713 301.779 306.713H319.756V306.7ZM301.779 263.094C301.013 263.094 300.629 263.477 300.629 264.244V278.013C300.629 278.779 301.013 279.162 301.779 279.162H319.373C326 279.162 329.316 276.486 329.316 271.128C329.316 265.77 326 263.094 319.373 263.094H301.779ZM394.731 282.604C395.498 282.862 396.264 283.245 397.024 283.754C399.059 284.778 400.592 286.179 401.616 287.962C403.399 290.513 404.291 293.572 404.291 297.139C404.291 309.382 396.892 315.5 382.105 315.5H353.418C352.652 315.5 352.269 315.117 352.269 314.35V255.443C352.269 254.677 352.652 254.294 353.418 254.294H383.638C388.739 254.294 393.007 255.767 396.456 258.694C399.898 261.627 401.622 265.519 401.622 270.362C401.622 273.17 400.981 275.654 399.713 277.821C398.424 279.995 396.766 281.587 394.731 282.604ZM363.362 263.094C362.595 263.094 362.212 263.477 362.212 264.244V278.013C362.212 278.779 362.595 279.162 363.362 279.162H381.339C387.966 279.162 391.282 276.486 391.282 271.128C391.282 265.77 387.966 263.094 381.339 263.094H363.362ZM381.722 306.7C386.056 306.7 389.241 305.999 391.282 304.599C393.317 303.198 394.341 300.773 394.341 297.331C394.341 293.889 393.317 291.471 391.282 290.063C389.241 288.663 386.05 287.962 381.722 287.962H363.362C362.595 287.962 362.212 288.346 362.212 289.112V305.563C362.212 306.33 362.595 306.713 363.362 306.713H381.722V306.7ZM458.99 255.06C459.241 254.551 459.499 254.294 459.756 254.294H469.7C469.951 254.294 470.208 254.426 470.466 254.677C470.717 254.935 470.717 255.192 470.466 255.443L438.72 315.117C438.462 315.374 438.145 315.5 437.762 315.5C437.379 315.5 437.055 315.374 436.804 315.117L405.058 255.443C404.8 255.192 404.734 254.935 404.866 254.677C404.992 254.426 405.309 254.294 405.824 254.294H415.384C415.893 254.294 416.276 254.551 416.534 255.06L436.804 293.314C436.804 293.572 437.055 293.697 437.57 293.697C438.079 293.697 438.462 293.572 438.72 293.314L458.99 255.06ZM470.466 305.94C470.208 306.455 469.825 306.706 469.316 306.706H459.373C459.115 306.706 458.924 306.581 458.798 306.323C458.666 306.072 458.607 305.814 458.607 305.557L490.359 245.883C490.61 245.632 490.994 245.5 491.509 245.5C492.018 245.5 492.401 245.632 492.659 245.883L524.398 305.557C524.398 305.814 524.332 306.072 524.206 306.323C524.074 306.581 523.883 306.706 523.632 306.706H513.688C513.173 306.706 512.79 306.455 512.539 305.94L492.645 267.686C492.388 267.177 492.004 266.92 491.496 266.92C490.98 266.92 490.597 267.177 490.346 267.686L470.466 305.94Z" fill="#004580"/>
</g>
</g>
<defs>
<filter id="filter0_dd_1222_3174" x="0" y="0" width="815.5" height="493.5" filterUnits="userSpaceOnUse" color-interpolation-filters="sRGB">
<feFlood flood-opacity="0" result="BackgroundImageFix"/>
<feColorMatrix in="SourceAlpha" type="matrix" values="0 0 0 0 0 0 0 0 0 0 0 0 0 0 0 0 0 0 127 0" result="hardAlpha"/>
<feOffset dy="20"/>
<feGaussianBlur stdDeviation="20"/>
<feColorMatrix type="matrix" values="0 0 0 0 0.717647 0 0 0 0 0.717647 0 0 0 0 0.717647 0 0 0 0.06 0"/>
<feBlend mode="normal" in2="BackgroundImageFix" result="effect1_dropShadow_1222_3174"/>
<feColorMatrix in="SourceAlpha" type="matrix" values="0 0 0 0 0 0 0 0 0 0 0 0 0 0 0 0 0 0 127 0" result="hardAlpha"/>
<feOffset dy="4"/>
<feGaussianBlur stdDeviation="7"/>
<feColorMatrix type="matrix" values="0 0 0 0 0.716667 0 0 0 0 0.716667 0 0 0 0 0.716667 0 0 0 0.02 0"/>
<feBlend mode="normal" in2="effect1_dropShadow_1222_3174" result="effect2_dropShadow_1222_3174"/>
<feBlend mode="normal" in="SourceGraphic" in2="effect2_dropShadow_1222_3174" result="shape"/>
</filter>
<filter id="filter1_dd_1222_3174" x="138.75" y="192.75" width="538" height="216" filterUnits="userSpaceOnUse" color-interpolation-filters="sRGB">
<feFlood flood-opacity="0" result="BackgroundImageFix"/>
<feColorMatrix in="SourceAlpha" type="matrix" values="0 0 0 0 0 0 0 0 0 0 0 0 0 0 0 0 0 0 127 0" result="hardAlpha"/>
<feOffset dy="2"/>
<feGaussianBlur stdDeviation="10"/>
<feColorMatrix type="matrix" values="0 0 0 0 0.717647 0 0 0 0 0.717647 0 0 0 0 0.717647 0 0 0 0.08 0"/>
<feBlend mode="normal" in2="BackgroundImageFix" result="effect1_dropShadow_1222_3174"/>
<feColorMatrix in="SourceAlpha" type="matrix" values="0 0 0 0 0 0 0 0 0 0 0 0 0 0 0 0 0 0 127 0" result="hardAlpha"/>
<feOffset dy="20"/>
<feGaussianBlur stdDeviation="20"/>
<feColorMatrix type="matrix" values="0 0 0 0 0.717647 0 0 0 0 0.717647 0 0 0 0 0.717647 0 0 0 0.08 0"/>
<feBlend mode="normal" in2="effect1_dropShadow_1222_3174" result="effect2_dropShadow_1222_3174"/>
<feBlend mode="normal" in="SourceGraphic" in2="effect2_dropShadow_1222_3174" result="shape"/>
</filter>
</defs>
</svg>
