<svg width="816" height="494" viewBox="0 0 816 494" fill="none" xmlns="http://www.w3.org/2000/svg">
<g filter="url(#filter0_dd_1222_3028)">
<rect x="40.75" y="20.75" width="734" height="412" rx="40" fill="white"/>
<rect x="40.75" y="20.75" width="734" height="412" rx="40" stroke="#EBEFF6" stroke-width="1.5"/>
<path d="M150.356 117.898H143.823C143.704 117.053 143.46 116.303 143.092 115.646C142.724 114.98 142.252 114.413 141.675 113.946C141.099 113.479 140.433 113.121 139.677 112.872C138.931 112.624 138.121 112.499 137.246 112.499C135.665 112.499 134.288 112.892 133.114 113.678C131.941 114.453 131.031 115.587 130.385 117.078C129.739 118.56 129.415 120.359 129.415 122.477C129.415 124.655 129.739 126.484 130.385 127.966C131.041 129.447 131.956 130.566 133.129 131.322C134.303 132.077 135.66 132.455 137.201 132.455C138.066 132.455 138.866 132.341 139.602 132.112C140.348 131.884 141.009 131.55 141.586 131.113C142.163 130.665 142.64 130.124 143.018 129.487C143.406 128.851 143.674 128.125 143.823 127.31L150.356 127.339C150.187 128.741 149.764 130.094 149.088 131.396C148.422 132.689 147.522 133.847 146.388 134.871C145.265 135.886 143.923 136.691 142.362 137.288C140.81 137.874 139.055 138.168 137.097 138.168C134.372 138.168 131.936 137.551 129.788 136.318C127.651 135.085 125.96 133.3 124.717 130.964C123.484 128.627 122.868 125.798 122.868 122.477C122.868 119.146 123.494 116.312 124.747 113.976C126 111.639 127.7 109.859 129.848 108.636C131.996 107.403 134.412 106.787 137.097 106.787C138.866 106.787 140.507 107.036 142.018 107.533C143.54 108.03 144.887 108.756 146.06 109.71C147.234 110.655 148.188 111.813 148.924 113.185C149.67 114.558 150.147 116.129 150.356 117.898ZM161.221 124.506V137.75H154.868V107.205H161.042V118.883H161.311C161.828 117.531 162.663 116.472 163.816 115.706C164.97 114.93 166.417 114.543 168.157 114.543C169.748 114.543 171.135 114.891 172.318 115.587C173.511 116.273 174.436 117.262 175.092 118.555C175.758 119.837 176.086 121.374 176.076 123.163V137.75H169.723V124.297C169.733 122.885 169.375 121.786 168.649 121.001C167.933 120.215 166.929 119.822 165.636 119.822C164.771 119.822 164.005 120.006 163.339 120.374C162.683 120.742 162.166 121.279 161.788 121.985C161.42 122.681 161.231 123.521 161.221 124.506ZM187.609 138.183C186.148 138.183 184.845 137.929 183.702 137.422C182.558 136.905 181.653 136.144 180.987 135.14C180.331 134.126 180.003 132.863 180.003 131.352C180.003 130.079 180.236 129.01 180.704 128.145C181.171 127.28 181.807 126.584 182.613 126.057C183.418 125.53 184.333 125.132 185.357 124.864C186.391 124.595 187.475 124.406 188.608 124.297C189.941 124.158 191.015 124.028 191.83 123.909C192.645 123.78 193.237 123.591 193.605 123.342C193.973 123.094 194.157 122.726 194.157 122.239V122.149C194.157 121.205 193.858 120.474 193.262 119.957C192.675 119.44 191.84 119.181 190.756 119.181C189.613 119.181 188.703 119.435 188.027 119.942C187.351 120.439 186.903 121.065 186.684 121.821L180.808 121.344C181.106 119.952 181.693 118.749 182.568 117.734C183.443 116.71 184.572 115.925 185.954 115.378C187.346 114.821 188.956 114.543 190.786 114.543C192.059 114.543 193.277 114.692 194.44 114.99C195.613 115.288 196.653 115.751 197.557 116.377C198.472 117.004 199.193 117.809 199.72 118.793C200.247 119.768 200.51 120.936 200.51 122.298V137.75H194.485V134.573H194.306C193.938 135.289 193.446 135.92 192.829 136.467C192.213 137.004 191.472 137.427 190.607 137.735C189.742 138.033 188.743 138.183 187.609 138.183ZM189.429 133.798C190.363 133.798 191.189 133.614 191.905 133.246C192.621 132.868 193.182 132.361 193.59 131.724C193.998 131.088 194.202 130.367 194.202 129.562V127.131C194.003 127.26 193.729 127.379 193.381 127.489C193.043 127.588 192.66 127.683 192.233 127.772C191.805 127.852 191.378 127.926 190.95 127.996C190.523 128.055 190.135 128.11 189.787 128.16C189.041 128.269 188.39 128.443 187.833 128.682C187.276 128.92 186.844 129.244 186.535 129.651C186.227 130.049 186.073 130.546 186.073 131.143C186.073 132.008 186.386 132.669 187.013 133.126C187.649 133.574 188.454 133.798 189.429 133.798ZM224.501 121.374L218.684 121.732C218.585 121.234 218.371 120.787 218.043 120.389C217.715 119.982 217.282 119.658 216.745 119.42C216.218 119.171 215.587 119.047 214.851 119.047C213.867 119.047 213.036 119.256 212.36 119.673C211.684 120.081 211.346 120.628 211.346 121.314C211.346 121.861 211.565 122.323 212.002 122.701C212.44 123.079 213.191 123.382 214.254 123.611L218.401 124.446C220.628 124.903 222.289 125.639 223.382 126.653C224.476 127.668 225.023 129 225.023 130.651C225.023 132.152 224.58 133.469 223.695 134.603C222.82 135.737 221.617 136.621 220.086 137.258C218.565 137.884 216.81 138.197 214.821 138.197C211.789 138.197 209.372 137.566 207.573 136.303C205.783 135.031 204.734 133.3 204.426 131.113L210.675 130.785C210.864 131.71 211.321 132.415 212.047 132.903C212.773 133.38 213.703 133.619 214.836 133.619C215.95 133.619 216.845 133.405 217.521 132.977C218.207 132.54 218.555 131.978 218.565 131.292C218.555 130.715 218.311 130.243 217.834 129.875C217.357 129.497 216.621 129.209 215.627 129.01L211.659 128.219C209.422 127.772 207.757 126.996 206.663 125.893C205.579 124.789 205.037 123.382 205.037 121.672C205.037 120.2 205.435 118.933 206.23 117.869C207.036 116.805 208.164 115.984 209.616 115.408C211.078 114.831 212.788 114.543 214.747 114.543C217.64 114.543 219.917 115.154 221.578 116.377C223.248 117.6 224.222 119.266 224.501 121.374ZM239.464 138.197C237.108 138.197 235.079 137.72 233.379 136.766C231.689 135.801 230.386 134.439 229.471 132.679C228.556 130.909 228.099 128.816 228.099 126.4C228.099 124.043 228.556 121.975 229.471 120.195C230.386 118.415 231.674 117.028 233.334 116.034C235.005 115.04 236.963 114.543 239.211 114.543C240.722 114.543 242.129 114.786 243.431 115.273C244.744 115.751 245.887 116.472 246.862 117.436C247.846 118.401 248.612 119.614 249.159 121.075C249.706 122.527 249.979 124.227 249.979 126.176V127.921H230.635V123.984H243.998C243.998 123.069 243.799 122.259 243.402 121.553C243.004 120.847 242.452 120.295 241.746 119.897C241.05 119.489 240.24 119.286 239.315 119.286C238.35 119.286 237.495 119.509 236.75 119.957C236.014 120.394 235.437 120.986 235.02 121.732C234.602 122.467 234.388 123.288 234.378 124.192V127.936C234.378 129.07 234.587 130.049 235.005 130.874C235.432 131.7 236.034 132.336 236.809 132.783C237.585 133.231 238.505 133.455 239.569 133.455C240.275 133.455 240.921 133.355 241.507 133.156C242.094 132.957 242.596 132.659 243.014 132.261C243.431 131.864 243.75 131.376 243.968 130.8L249.845 131.188C249.547 132.599 248.935 133.832 248.01 134.886C247.096 135.93 245.912 136.746 244.461 137.332C243.019 137.909 241.353 138.197 239.464 138.197Z" fill="#19213D"/>
<a href="https://www.chase.com/espanol">
<rect fill="black" fill-opacity="0" y="1.58523" width="130.84" height="50.8295"/>
</a>
<g filter="url(#filter1_dd_1222_3028)">
<rect x="179.75" y="213.75" width="456" height="134" rx="24" fill="white"/>
<rect x="179.25" y="213.25" width="457" height="135" rx="24.5" stroke="#D6DCE5"/>
<path d="M497.035 258.933C496.118 258.933 495.568 259.667 495.568 260.4V271.217H524.168L511.151 258.933H497.035Z" fill="#126BC5"/>
<path d="M525.084 274.517C525.084 273.6 524.351 273.05 523.618 273.05H512.801V301.65L525.084 288.634V274.517Z" fill="#126BC5"/>
<path d="M509.501 302.567C510.418 302.567 510.968 301.834 510.968 301.1V290.284H482.368L495.384 302.567H509.501Z" fill="#126BC5"/>
<path d="M481.451 286.984C481.451 287.9 482.184 288.45 482.918 288.45H493.734V260.034L481.451 273.05V286.984Z" fill="#126BC5"/>
<path d="M350.733 264.066V277.266H332.4V264.066H325.8V297.433H332.4V283.133H350.733V297.433H357.517V264.066H350.733Z" fill="#000008"/>
<path d="M439.65 264.066V297.25H468.983L465.317 291.566H446.433V283.133H464.583V277.45H446.433V269.933H465.133L468.8 264.066H439.65Z" fill="#000008"/>
<path d="M300.867 264.066C293.9 264.066 290.417 268.283 290.417 274.516V286.983C290.417 294.133 295 297.433 300.867 297.433H321.767L317.917 291.2H302.15C298.85 291.2 297.384 289.916 297.384 286.25V275.066C297.384 271.4 298.667 269.933 302.334 269.933H318.1L321.767 264.066H300.867Z" fill="#000008"/>
<path d="M410.317 264.066C406.283 264.066 402.25 266.45 402.25 272.683V274.333C402.25 280.75 406.283 283.316 410.133 283.316H424.067C425.533 283.316 426.633 283.5 426.633 286.066V288.816C426.633 291.016 425.533 291.566 423.883 291.566H405.55L401.883 297.433H424.433C429.933 297.433 433.6 294.683 433.6 288.45V286.25C433.6 280.2 430.117 277.45 424.8 277.45H411.417C409.95 277.45 408.85 277.083 408.85 274.883V272.316C408.85 270.483 409.583 269.75 411.233 269.75H428.65L432.317 264.066H410.317Z" fill="#000008"/>
<path d="M376.951 264.066L361.184 297.25H368.701L371.817 290.466H388.867L391.984 297.25H399.501L383.551 264.066H376.951ZM380.067 271.033L386.117 284.783H374.017L380.067 271.033Z" fill="#000008"/>
</g>
</g>
<defs>
<filter id="filter0_dd_1222_3028" x="0" y="0" width="815.5" height="493.5" filterUnits="userSpaceOnUse" color-interpolation-filters="sRGB">
<feFlood flood-opacity="0" result="BackgroundImageFix"/>
<feColorMatrix in="SourceAlpha" type="matrix" values="0 0 0 0 0 0 0 0 0 0 0 0 0 0 0 0 0 0 127 0" result="hardAlpha"/>
<feOffset dy="20"/>
<feGaussianBlur stdDeviation="20"/>
<feColorMatrix type="matrix" values="0 0 0 0 0.717647 0 0 0 0 0.717647 0 0 0 0 0.717647 0 0 0 0.06 0"/>
<feBlend mode="normal" in2="BackgroundImageFix" result="effect1_dropShadow_1222_3028"/>
<feColorMatrix in="SourceAlpha" type="matrix" values="0 0 0 0 0 0 0 0 0 0 0 0 0 0 0 0 0 0 127 0" result="hardAlpha"/>
<feOffset dy="4"/>
<feGaussianBlur stdDeviation="7"/>
<feColorMatrix type="matrix" values="0 0 0 0 0.716667 0 0 0 0 0.716667 0 0 0 0 0.716667 0 0 0 0.02 0"/>
<feBlend mode="normal" in2="effect1_dropShadow_1222_3028" result="effect2_dropShadow_1222_3028"/>
<feBlend mode="normal" in="SourceGraphic" in2="effect2_dropShadow_1222_3028" result="shape"/>
</filter>
<filter id="filter1_dd_1222_3028" x="138.75" y="192.75" width="538" height="216" filterUnits="userSpaceOnUse" color-interpolation-filters="sRGB">
<feFlood flood-opacity="0" result="BackgroundImageFix"/>
<feColorMatrix in="SourceAlpha" type="matrix" values="0 0 0 0 0 0 0 0 0 0 0 0 0 0 0 0 0 0 127 0" result="hardAlpha"/>
<feOffset dy="2"/>
<feGaussianBlur stdDeviation="10"/>
<feColorMatrix type="matrix" values="0 0 0 0 0.717647 0 0 0 0 0.717647 0 0 0 0 0.717647 0 0 0 0.08 0"/>
<feBlend mode="normal" in2="BackgroundImageFix" result="effect1_dropShadow_1222_3028"/>
<feColorMatrix in="SourceAlpha" type="matrix" values="0 0 0 0 0 0 0 0 0 0 0 0 0 0 0 0 0 0 127 0" result="hardAlpha"/>
<feOffset dy="20"/>
<feGaussianBlur stdDeviation="20"/>
<feColorMatrix type="matrix" values="0 0 0 0 0.717647 0 0 0 0 0.717647 0 0 0 0 0.717647 0 0 0 0.08 0"/>
<feBlend mode="normal" in2="effect1_dropShadow_1222_3028" result="effect2_dropShadow_1222_3028"/>
<feBlend mode="normal" in="SourceGraphic" in2="effect2_dropShadow_1222_3028" result="shape"/>
</filter>
</defs>
</svg>
