<svg width="1560" height="494" viewBox="0 0 1560 494" fill="none" xmlns="http://www.w3.org/2000/svg">
<g filter="url(#filter0_dd_1217_4949)">
<rect x="40.75" y="20.75" width="1478" height="412" rx="40" fill="white"/>
<rect x="40.75" y="20.75" width="1478" height="412" rx="40" stroke="#EBEFF6" stroke-width="1.5"/>
<path d="M123.405 137.75V107.205H143.987V112.529H129.863V119.808H142.928V125.132H129.863V132.425H144.047V137.75H123.405ZM161.188 114.841V119.614H147.392V114.841H161.188ZM150.524 109.352H156.877V130.71C156.877 131.297 156.967 131.754 157.146 132.082C157.325 132.401 157.573 132.624 157.892 132.754C158.22 132.883 158.597 132.947 159.025 132.947C159.323 132.947 159.622 132.923 159.92 132.873C160.218 132.813 160.447 132.768 160.606 132.739L161.605 137.467C161.287 137.566 160.84 137.68 160.263 137.81C159.686 137.949 158.985 138.033 158.16 138.063C156.629 138.123 155.286 137.919 154.133 137.452C152.99 136.984 152.1 136.259 151.463 135.274C150.827 134.29 150.514 133.047 150.524 131.545V109.352ZM172.172 124.506V137.75H165.819V107.205H171.993V118.883H172.262C172.779 117.531 173.614 116.472 174.768 115.706C175.921 114.93 177.368 114.543 179.108 114.543C180.699 114.543 182.086 114.891 183.269 115.587C184.462 116.273 185.387 117.262 186.043 118.555C186.709 119.837 187.037 121.374 187.028 123.163V137.75H180.674V124.297C180.684 122.885 180.326 121.786 179.6 121.001C178.884 120.215 177.88 119.822 176.587 119.822C175.722 119.822 174.956 120.006 174.29 120.374C173.634 120.742 173.117 121.279 172.739 121.985C172.371 122.681 172.182 123.521 172.172 124.506ZM202.468 138.197C200.112 138.197 198.083 137.72 196.383 136.766C194.692 135.801 193.39 134.439 192.475 132.679C191.56 130.909 191.103 128.816 191.103 126.4C191.103 124.043 191.56 121.975 192.475 120.195C193.39 118.415 194.678 117.028 196.338 116.034C198.009 115.04 199.967 114.543 202.214 114.543C203.726 114.543 205.133 114.786 206.435 115.273C207.748 115.751 208.891 116.472 209.866 117.436C210.85 118.401 211.616 119.614 212.163 121.075C212.71 122.527 212.983 124.227 212.983 126.176V127.921H193.638V123.984H207.002C207.002 123.069 206.803 122.259 206.406 121.553C206.008 120.847 205.456 120.295 204.75 119.897C204.054 119.489 203.244 119.286 202.319 119.286C201.354 119.286 200.499 119.509 199.754 119.957C199.018 120.394 198.441 120.986 198.023 121.732C197.606 122.467 197.392 123.288 197.382 124.192V127.936C197.382 129.07 197.591 130.049 198.009 130.874C198.436 131.7 199.038 132.336 199.813 132.783C200.589 133.231 201.509 133.455 202.572 133.455C203.278 133.455 203.925 133.355 204.511 133.156C205.098 132.957 205.6 132.659 206.018 132.261C206.435 131.864 206.754 131.376 206.972 130.8L212.849 131.188C212.55 132.599 211.939 133.832 211.014 134.886C210.099 135.93 208.916 136.746 207.464 137.332C206.023 137.909 204.357 138.197 202.468 138.197ZM217.129 137.75V114.841H223.289V118.838H223.528C223.945 117.416 224.646 116.342 225.631 115.616C226.615 114.881 227.749 114.513 229.031 114.513C229.349 114.513 229.692 114.533 230.06 114.572C230.428 114.612 230.751 114.667 231.03 114.737V120.374C230.732 120.285 230.319 120.205 229.792 120.136C229.265 120.066 228.783 120.031 228.345 120.031C227.411 120.031 226.575 120.235 225.839 120.643C225.114 121.04 224.537 121.597 224.109 122.313C223.692 123.029 223.483 123.854 223.483 124.789V137.75H217.129ZM243.689 138.197C241.332 138.197 239.304 137.72 237.604 136.766C235.913 135.801 234.611 134.439 233.696 132.679C232.781 130.909 232.324 128.816 232.324 126.4C232.324 124.043 232.781 121.975 233.696 120.195C234.611 118.415 235.898 117.028 237.559 116.034C239.229 115.04 241.188 114.543 243.435 114.543C244.947 114.543 246.354 114.786 247.656 115.273C248.969 115.751 250.112 116.472 251.086 117.436C252.071 118.401 252.836 119.614 253.383 121.075C253.93 122.527 254.204 124.227 254.204 126.176V127.921H234.859V123.984H248.223C248.223 123.069 248.024 122.259 247.626 121.553C247.229 120.847 246.677 120.295 245.971 119.897C245.275 119.489 244.464 119.286 243.54 119.286C242.575 119.286 241.72 119.509 240.974 119.957C240.238 120.394 239.662 120.986 239.244 121.732C238.827 122.467 238.613 123.288 238.603 124.192V127.936C238.603 129.07 238.812 130.049 239.229 130.874C239.657 131.7 240.258 132.336 241.034 132.783C241.809 133.231 242.729 133.455 243.793 133.455C244.499 133.455 245.145 133.355 245.732 133.156C246.319 132.957 246.821 132.659 247.238 132.261C247.656 131.864 247.974 131.376 248.193 130.8L254.069 131.188C253.771 132.599 253.16 133.832 252.235 134.886C251.32 135.93 250.137 136.746 248.685 137.332C247.243 137.909 245.578 138.197 243.689 138.197ZM273.041 127.996V114.841H279.395V137.75H273.295V133.589H273.056C272.539 134.931 271.679 136.01 270.476 136.825C269.282 137.641 267.826 138.048 266.106 138.048C264.574 138.048 263.227 137.7 262.064 137.004C260.9 136.308 259.991 135.319 259.334 134.036C258.688 132.754 258.36 131.217 258.35 129.428V114.841H264.704V128.294C264.714 129.646 265.077 130.715 265.792 131.501C266.508 132.286 267.468 132.679 268.671 132.679C269.437 132.679 270.153 132.505 270.819 132.157C271.485 131.799 272.022 131.272 272.43 130.576C272.847 129.88 273.051 129.02 273.041 127.996ZM284.477 137.75V114.841H290.532V118.883H290.801C291.278 117.54 292.074 116.482 293.187 115.706C294.301 114.93 295.633 114.543 297.184 114.543C298.755 114.543 300.093 114.935 301.196 115.721C302.3 116.496 303.036 117.55 303.404 118.883H303.642C304.11 117.57 304.955 116.521 306.178 115.736C307.411 114.94 308.868 114.543 310.548 114.543C312.686 114.543 314.421 115.224 315.753 116.586C317.096 117.938 317.767 119.857 317.767 122.343V137.75H311.428V123.596C311.428 122.323 311.09 121.369 310.414 120.732C309.738 120.096 308.892 119.778 307.878 119.778C306.725 119.778 305.825 120.146 305.179 120.881C304.532 121.607 304.209 122.567 304.209 123.76V137.75H298.049V123.462C298.049 122.338 297.726 121.443 297.08 120.777C296.444 120.111 295.603 119.778 294.559 119.778C293.853 119.778 293.217 119.957 292.65 120.315C292.093 120.663 291.651 121.155 291.323 121.791C290.995 122.418 290.831 123.153 290.831 123.999V137.75H284.477Z" fill="#19213D"/>
<a href="https://ethereum.org/en/">
<rect fill="black" fill-opacity="0" y="1.58523" width="199.493" height="50.8295"/>
</a>
<g filter="url(#filter1_dd_1217_4949)">
<rect x="486.75" y="213.75" width="208" height="134" rx="24" fill="white"/>
<rect x="486.25" y="213.25" width="209" height="135" rx="24.5" stroke="#D6DCE5"/>
<path d="M629.561 290.404C624.223 311.819 602.533 324.897 581.078 319.556C559.663 314.202 546.607 292.512 551.944 271.096C557.282 249.681 578.959 236.603 600.362 241.944C621.829 247.22 634.885 268.975 629.561 290.404Z" fill="#ECEFF0"/>
<path d="M590.779 290.649C590.623 290.702 590.535 290.567 590.429 290.505C585.249 287.447 580.074 284.388 574.905 281.327C574.855 281.301 574.803 281.28 574.75 281.263V281.194L574.842 281.142C574.972 281.107 575.1 281.066 575.226 281.017L587.433 275.463C588.521 274.967 589.608 274.479 590.696 273.988H590.774C590.774 274.144 590.774 274.282 590.774 274.43C590.778 279.837 590.78 285.243 590.779 290.649Z" fill="#343535"/>
<path d="M590.786 273.992H590.709C590.709 273.837 590.724 273.681 590.724 273.518C590.724 267.445 590.724 261.371 590.724 255.297C590.706 255.141 590.717 254.983 590.755 254.83H590.788C591.427 255.774 591.983 256.768 592.57 257.743C597.224 265.462 601.876 273.181 606.524 280.898C606.57 280.974 606.605 281.054 606.646 281.138C606.514 281.109 606.385 281.072 606.259 281.024C605.405 280.639 604.549 280.247 603.704 279.854C602.38 279.248 601.055 278.643 599.73 278.039L593.346 275.147C592.496 274.755 591.641 274.374 590.786 273.992Z" fill="#2F3030"/>
<path d="M590.76 254.822C590.722 254.975 590.711 255.133 590.729 255.289C590.729 261.362 590.729 267.436 590.729 273.51C590.729 273.665 590.72 273.821 590.714 273.984C589.626 274.475 588.538 274.963 587.45 275.459L575.243 281.013C575.118 281.062 574.989 281.103 574.859 281.137C575.212 280.404 575.67 279.739 576.088 279.036C580.932 270.985 585.779 262.936 590.63 254.888C590.662 254.843 590.697 254.8 590.734 254.76L590.76 254.822Z" fill="#828384"/>
<path d="M590.786 273.992C591.641 274.374 592.496 274.755 593.349 275.141L599.733 278.033C601.06 278.636 602.384 279.241 603.707 279.848C604.559 280.238 605.417 280.633 606.262 281.018C606.388 281.065 606.517 281.103 606.649 281.132C606.804 281.326 606.574 281.334 606.504 281.375C605.179 282.168 603.847 282.95 602.518 283.736C598.705 285.993 594.892 288.249 591.08 290.504C590.984 290.56 590.88 290.601 590.779 290.649C590.779 285.244 590.779 279.84 590.779 274.433C590.78 274.286 590.785 274.14 590.786 273.992Z" fill="#131313"/>
<path d="M590.724 293.72L600.709 287.834C602.615 286.709 604.521 285.583 606.425 284.456L606.597 284.361C606.614 284.517 606.507 284.599 606.442 284.689C602.091 290.823 597.739 296.956 593.388 303.086C592.564 304.249 591.742 305.417 590.911 306.57C590.867 306.631 590.8 306.915 590.667 306.614C590.772 306.524 590.726 306.402 590.726 306.303C590.727 302.107 590.726 297.913 590.724 293.72Z" fill="#2F3030"/>
<path d="M590.723 293.72C590.723 297.913 590.723 302.105 590.723 306.296C590.723 306.403 590.77 306.524 590.664 306.607C590.442 306.473 590.346 306.234 590.198 306.036C585.152 298.929 580.109 291.821 575.069 284.712C575.005 284.621 574.946 284.525 574.881 284.426C575.012 284.349 575.082 284.454 575.158 284.499C580.26 287.511 585.362 290.527 590.462 293.545C590.557 293.604 590.638 293.665 590.723 293.72Z" fill="#828384"/>
<path d="M590.762 254.822L590.724 254.765C590.793 254.721 590.783 254.785 590.794 254.818L590.762 254.822Z" fill="#393939"/>
</g>
<g filter="url(#filter2_dd_1217_4949)">
<rect x="120.25" y="213.25" width="327" height="135" rx="24.5" stroke="#D6DCE5"/>
<path d="M189.198 291.345C189.029 291.402 188.932 291.255 188.817 291.188C183.183 287.862 177.555 284.535 171.933 281.205C171.879 281.177 171.822 281.154 171.764 281.135V281.061L171.864 281.004C172.005 280.966 172.145 280.921 172.281 280.868L185.559 274.827C186.742 274.288 187.925 273.757 189.108 273.223H189.193C189.193 273.392 189.193 273.543 189.193 273.703C189.197 279.584 189.199 285.465 189.198 291.345Z" fill="#343535"/>
<path d="M189.206 273.227H189.122C189.122 273.058 189.139 272.889 189.139 272.712C189.139 266.106 189.139 259.5 189.139 252.893C189.119 252.724 189.131 252.552 189.172 252.386H189.208C189.903 253.412 190.508 254.494 191.147 255.554C196.209 263.95 201.268 272.345 206.324 280.739C206.373 280.822 206.412 280.908 206.456 280.999C206.312 280.969 206.172 280.927 206.035 280.876C205.107 280.457 204.175 280.031 203.256 279.603C201.816 278.944 200.375 278.286 198.934 277.629L191.99 274.483C191.066 274.057 190.136 273.643 189.206 273.227Z" fill="#2F3030"/>
<path d="M189.178 252.377C189.136 252.543 189.125 252.715 189.144 252.885C189.144 259.49 189.144 266.096 189.144 272.703C189.144 272.872 189.134 273.041 189.127 273.219C187.944 273.753 186.761 274.284 185.578 274.823L172.3 280.864C172.164 280.917 172.025 280.962 171.883 280.999C172.267 280.201 172.765 279.478 173.22 278.714C178.488 269.957 183.76 261.202 189.036 252.448C189.071 252.4 189.109 252.354 189.149 252.31L189.178 252.377Z" fill="#828384"/>
<path d="M189.206 273.227C190.136 273.643 191.066 274.057 191.994 274.477L198.937 277.622C200.38 278.278 201.821 278.936 203.26 279.597C204.186 280.021 205.119 280.45 206.038 280.869C206.175 280.921 206.316 280.962 206.459 280.993C206.628 281.204 206.378 281.212 206.302 281.258C204.86 282.12 203.412 282.97 201.966 283.826C197.819 286.28 193.672 288.734 189.526 291.187C189.421 291.248 189.308 291.292 189.198 291.345C189.198 285.466 189.198 279.587 189.198 273.708C189.2 273.547 189.205 273.388 189.206 273.227Z" fill="#131313"/>
<path d="M189.138 294.684L199.999 288.283C202.072 287.059 204.144 285.834 206.215 284.608L206.403 284.505C206.422 284.674 206.305 284.764 206.234 284.862C201.501 291.534 196.768 298.204 192.036 304.872C191.14 306.136 190.246 307.407 189.341 308.661C189.294 308.727 189.221 309.036 189.076 308.709C189.191 308.61 189.14 308.479 189.14 308.37C189.141 303.807 189.141 299.245 189.138 294.684Z" fill="#2F3030"/>
<path d="M189.137 294.685C189.137 299.245 189.137 303.805 189.137 308.363C189.137 308.479 189.188 308.611 189.073 308.701C188.832 308.556 188.727 308.295 188.566 308.081C183.078 300.35 177.593 292.619 172.111 284.887C172.042 284.788 171.978 284.684 171.907 284.576C172.049 284.493 172.125 284.606 172.208 284.655C177.757 287.932 183.306 291.212 188.854 294.494C188.957 294.558 189.045 294.624 189.137 294.685Z" fill="#828384"/>
<path d="M189.179 252.377L189.139 252.315C189.213 252.268 189.203 252.337 189.215 252.372L189.179 252.377Z" fill="#393939"/>
<path d="M275.738 281.638V290.32C275.733 290.498 275.66 290.667 275.534 290.793C275.408 290.919 275.239 290.992 275.061 290.997C274.971 291 274.882 290.984 274.799 290.951C274.715 290.918 274.64 290.868 274.576 290.804C274.513 290.741 274.463 290.665 274.43 290.582C274.397 290.499 274.381 290.409 274.384 290.32V281.638C274.384 278.702 272.721 275.788 269.457 275.788C265.27 275.788 263.464 279.441 263.71 283.198C263.71 283.255 263.723 283.417 263.735 283.558C263.743 283.668 263.751 283.766 263.751 283.793V290.299C263.751 290.473 263.689 290.64 263.576 290.772C263.463 290.904 263.307 290.991 263.136 291.018C263.04 291.03 262.942 291.022 262.85 290.994C262.758 290.966 262.673 290.918 262.601 290.853C262.528 290.789 262.471 290.71 262.432 290.621C262.394 290.533 262.374 290.437 262.376 290.34V261.79C262.378 261.61 262.45 261.439 262.576 261.312C262.703 261.186 262.874 261.114 263.054 261.112C263.232 261.117 263.401 261.19 263.527 261.316C263.653 261.442 263.726 261.612 263.731 261.79V277.923C264.901 275.829 266.994 274.413 269.437 274.413C273.46 274.413 275.738 277.923 275.738 281.638Z" fill="#393939"/>
<path d="M253.941 274.904C253.815 274.778 253.646 274.705 253.468 274.7H249.835V269.425C249.837 269.329 249.818 269.233 249.779 269.144C249.74 269.056 249.683 268.977 249.611 268.912C249.539 268.848 249.454 268.8 249.361 268.772C249.269 268.743 249.171 268.735 249.076 268.748C248.904 268.775 248.748 268.862 248.635 268.993C248.522 269.125 248.46 269.293 248.46 269.466V274.7H244.95C244.771 274.702 244.6 274.774 244.473 274.9C244.346 275.027 244.274 275.198 244.273 275.377C244.27 275.467 244.286 275.556 244.319 275.64C244.352 275.723 244.402 275.799 244.465 275.862C244.529 275.925 244.605 275.975 244.688 276.008C244.771 276.042 244.86 276.057 244.95 276.055H248.46V290.402C248.465 290.58 248.538 290.749 248.664 290.875C248.79 291.001 248.959 291.074 249.137 291.079C249.316 291.078 249.488 291.006 249.614 290.879C249.741 290.752 249.813 290.581 249.815 290.402V276.055H253.468C253.558 276.057 253.647 276.042 253.73 276.008C253.814 275.975 253.889 275.925 253.953 275.862C254.016 275.799 254.066 275.723 254.099 275.64C254.132 275.556 254.148 275.467 254.145 275.377C254.14 275.199 254.067 275.03 253.941 274.904Z" fill="#393939"/>
<path fill-rule="evenodd" clip-rule="evenodd" d="M236.703 283.319C236.842 283.185 236.921 283.001 236.925 282.808C236.904 278.436 233.62 274.372 229.022 274.372C224.425 274.372 221.161 278.477 221.161 282.849C221.161 287.221 224.445 291.326 229.022 291.326C231.691 291.326 234.421 290.156 235.796 287.775C235.863 287.671 235.899 287.55 235.898 287.426C235.901 287.336 235.885 287.247 235.852 287.164C235.819 287.08 235.769 287.005 235.706 286.941C235.642 286.878 235.567 286.828 235.483 286.795C235.4 286.762 235.311 286.746 235.221 286.748C235.101 286.753 234.984 286.788 234.88 286.849C234.776 286.91 234.689 286.995 234.626 287.097C233.271 289.047 231.465 289.971 229.022 289.971C225.451 289.971 222.926 286.892 222.577 283.526H236.186C236.379 283.528 236.565 283.454 236.703 283.319ZM229.022 275.726C232.594 275.726 235.18 278.805 235.467 282.171H222.577C222.926 278.805 225.451 275.726 229.022 275.726Z" fill="#393939"/>
<path fill-rule="evenodd" clip-rule="evenodd" d="M299.963 283.319C300.101 283.185 300.181 283.001 300.184 282.808C300.163 278.436 296.838 274.372 292.282 274.372C287.684 274.372 284.42 278.477 284.42 282.849C284.42 287.221 287.704 291.326 292.282 291.326C294.95 291.326 297.68 290.156 299.055 287.775C299.122 287.671 299.158 287.55 299.158 287.426C299.16 287.336 299.144 287.247 299.111 287.164C299.078 287.08 299.028 287.005 298.965 286.941C298.901 286.878 298.826 286.828 298.742 286.795C298.659 286.762 298.57 286.746 298.48 286.748C298.36 286.753 298.243 286.788 298.139 286.849C298.035 286.91 297.948 286.995 297.885 287.097C296.53 289.047 294.724 289.971 292.282 289.971C288.71 289.971 286.186 286.892 285.837 283.526H299.445C299.638 283.528 299.824 283.454 299.963 283.319ZM292.261 275.726C295.832 275.726 298.419 278.805 298.706 282.171H285.816C286.165 278.805 288.69 275.726 292.261 275.726Z" fill="#393939"/>
<path d="M316.912 275.336C316.925 275.519 316.865 275.699 316.746 275.837C316.627 275.975 316.458 276.061 316.276 276.075C312.273 276.67 310.467 279.934 310.467 283.731V290.238C310.467 290.411 310.405 290.579 310.292 290.71C310.179 290.842 310.023 290.929 309.851 290.956C309.756 290.969 309.658 290.961 309.566 290.932C309.473 290.904 309.388 290.856 309.316 290.792C309.244 290.727 309.187 290.648 309.148 290.56C309.109 290.471 309.09 290.375 309.092 290.279V275.439C309.092 275.266 309.154 275.098 309.267 274.966C309.38 274.835 309.536 274.747 309.708 274.721C309.803 274.708 309.901 274.716 309.993 274.744C310.085 274.773 310.171 274.821 310.243 274.885C310.315 274.949 310.372 275.028 310.411 275.117C310.45 275.205 310.469 275.301 310.467 275.398V278.415C311.596 276.506 313.833 274.7 316.173 274.7C316.522 274.7 316.912 274.946 316.912 275.336Z" fill="#393939"/>
<path fill-rule="evenodd" clip-rule="evenodd" d="M339.063 283.319C339.202 283.185 339.281 283.001 339.285 282.808C339.264 278.436 335.98 274.372 331.382 274.372C326.785 274.372 323.521 278.477 323.521 282.849C323.521 287.221 326.805 291.326 331.382 291.326C334.051 291.326 336.781 290.156 338.156 287.775C338.223 287.671 338.259 287.55 338.258 287.426C338.261 287.336 338.245 287.247 338.212 287.164C338.179 287.08 338.129 287.005 338.066 286.941C338.002 286.878 337.927 286.828 337.843 286.795C337.76 286.762 337.671 286.746 337.581 286.748C337.461 286.753 337.344 286.788 337.24 286.849C337.136 286.91 337.049 286.995 336.986 287.097C335.631 289.047 333.825 289.971 331.382 289.971C327.811 289.971 325.286 286.892 324.937 283.526H338.546C338.739 283.528 338.925 283.454 339.063 283.319ZM331.382 275.726C334.954 275.726 337.54 278.805 337.827 282.171H324.937C325.286 278.805 327.811 275.726 331.382 275.726Z" fill="#393939"/>
<path d="M361.288 275.501V290.402C361.283 290.58 361.21 290.749 361.084 290.875C360.958 291.001 360.789 291.074 360.611 291.079C360.521 291.082 360.432 291.066 360.348 291.033C360.265 291 360.189 290.95 360.126 290.887C360.062 290.823 360.013 290.747 359.98 290.664C359.946 290.581 359.931 290.492 359.933 290.402V287.569C358.804 289.807 356.813 291.428 354.268 291.428C350.225 291.428 347.987 287.918 347.987 284.203V275.48C347.989 275.301 348.061 275.13 348.188 275.003C348.314 274.876 348.486 274.804 348.665 274.803C348.843 274.808 349.012 274.881 349.138 275.007C349.264 275.133 349.337 275.302 349.342 275.48V284.203C349.342 287.138 351.005 290.053 354.268 290.053C358.845 290.053 359.933 285.763 359.933 281.022V275.459C359.935 275.35 359.963 275.242 360.014 275.145C360.066 275.048 360.14 274.965 360.231 274.903C360.321 274.84 360.425 274.801 360.534 274.787C360.643 274.773 360.754 274.785 360.857 274.823C360.986 274.883 361.095 274.979 361.171 275.099C361.248 275.219 361.288 275.358 361.288 275.501Z" fill="#393939"/>
<path d="M395.75 290.299V281.576C395.75 277.881 393.472 274.413 389.469 274.413C386.657 274.413 384.461 276.198 383.332 278.744C382.45 276.178 380.294 274.413 377.523 274.413C375.081 274.413 372.987 275.788 371.817 277.881V275.398C371.819 275.301 371.8 275.205 371.761 275.117C371.723 275.028 371.665 274.949 371.593 274.885C371.521 274.821 371.436 274.773 371.343 274.744C371.251 274.716 371.154 274.708 371.058 274.721C370.887 274.747 370.73 274.835 370.618 274.966C370.505 275.098 370.443 275.266 370.442 275.439V290.32C370.44 290.416 370.46 290.512 370.498 290.601C370.537 290.689 370.594 290.768 370.666 290.833C370.739 290.897 370.824 290.945 370.916 290.973C371.008 291.002 371.106 291.01 371.202 290.997C371.373 290.97 371.529 290.883 371.642 290.751C371.755 290.62 371.817 290.452 371.817 290.279V283.731C371.845 283.689 371.835 283.59 371.826 283.499C371.822 283.456 371.817 283.415 371.817 283.382C371.674 279.031 373.377 275.767 377.523 275.767C380.787 275.767 382.45 278.641 382.45 281.576V290.299C382.447 290.389 382.463 290.478 382.496 290.561C382.529 290.645 382.579 290.72 382.642 290.784C382.706 290.847 382.781 290.897 382.865 290.93C382.948 290.963 383.037 290.979 383.127 290.977C383.305 290.971 383.474 290.898 383.6 290.772C383.726 290.647 383.799 290.477 383.804 290.299V283.567C383.804 280.16 385.364 275.767 389.469 275.767C392.733 275.767 394.395 278.641 394.395 281.576V290.299C394.393 290.389 394.409 290.478 394.442 290.561C394.475 290.645 394.525 290.72 394.588 290.784C394.651 290.847 394.727 290.897 394.81 290.93C394.894 290.963 394.983 290.979 395.073 290.977C395.251 290.971 395.42 290.898 395.546 290.772C395.672 290.647 395.745 290.477 395.75 290.299Z" fill="#393939"/>
</g>
<g filter="url(#filter3_dd_1217_4949)">
<rect x="734.75" y="213.75" width="208" height="134" rx="24" fill="#131313"/>
<rect x="734.25" y="213.25" width="209" height="135" rx="24.5" stroke="#D6DCE5"/>
<path d="M876.561 291.404C871.223 312.819 849.533 325.897 828.078 320.556C806.663 315.202 793.607 293.512 798.944 272.096C804.282 250.681 825.959 237.603 847.362 242.944C868.829 248.22 881.885 269.975 876.561 291.404Z" fill="#ECEFF0"/>
<path d="M837.779 291.649C837.623 291.702 837.535 291.567 837.429 291.505C832.249 288.447 827.074 285.388 821.905 282.327C821.855 282.301 821.803 282.28 821.75 282.263V282.194L821.842 282.142C821.972 282.107 822.1 282.066 822.226 282.017L834.433 276.463C835.521 275.967 836.608 275.479 837.696 274.988H837.774C837.774 275.144 837.774 275.282 837.774 275.43C837.778 280.837 837.78 286.243 837.779 291.649Z" fill="#343535"/>
<path d="M837.786 274.992H837.709C837.709 274.837 837.724 274.681 837.724 274.518C837.724 268.445 837.724 262.371 837.724 256.297C837.706 256.141 837.717 255.983 837.755 255.83H837.788C838.427 256.774 838.983 257.768 839.57 258.743C844.224 266.462 848.876 274.181 853.524 281.898C853.57 281.974 853.605 282.054 853.646 282.138C853.514 282.109 853.385 282.072 853.259 282.024C852.405 281.639 851.549 281.247 850.704 280.854C849.38 280.248 848.055 279.643 846.73 279.039L840.346 276.147C839.496 275.755 838.641 275.374 837.786 274.992Z" fill="#2F3030"/>
<path d="M837.76 255.822C837.722 255.975 837.711 256.133 837.729 256.289C837.729 262.362 837.729 268.436 837.729 274.51C837.729 274.665 837.72 274.821 837.714 274.984C836.626 275.475 835.538 275.963 834.45 276.459L822.243 282.013C822.118 282.062 821.989 282.103 821.859 282.137C822.212 281.404 822.67 280.739 823.088 280.036C827.932 271.985 832.779 263.936 837.63 255.888C837.662 255.843 837.697 255.8 837.734 255.76L837.76 255.822Z" fill="#828384"/>
<path d="M837.786 274.992C838.641 275.374 839.496 275.755 840.349 276.141L846.733 279.033C848.06 279.636 849.384 280.241 850.707 280.848C851.559 281.238 852.417 281.633 853.262 282.018C853.388 282.065 853.517 282.103 853.649 282.132C853.804 282.326 853.574 282.334 853.504 282.375C852.179 283.168 850.847 283.95 849.518 284.736C845.705 286.993 841.892 289.249 838.08 291.504C837.984 291.56 837.88 291.601 837.779 291.649C837.779 286.244 837.779 280.84 837.779 275.433C837.78 275.286 837.785 275.14 837.786 274.992Z" fill="#131313"/>
<path d="M837.724 294.72L847.709 288.834C849.615 287.709 851.521 286.583 853.425 285.456L853.597 285.361C853.614 285.517 853.507 285.599 853.442 285.689C849.091 291.823 844.739 297.956 840.388 304.086C839.564 305.249 838.742 306.417 837.911 307.57C837.867 307.631 837.8 307.915 837.667 307.614C837.772 307.524 837.726 307.402 837.726 307.303C837.727 303.107 837.726 298.913 837.724 294.72Z" fill="#2F3030"/>
<path d="M837.723 294.72C837.723 298.913 837.723 303.105 837.723 307.296C837.723 307.403 837.77 307.524 837.664 307.607C837.442 307.473 837.346 307.234 837.198 307.036C832.152 299.929 827.109 292.821 822.069 285.712C822.005 285.621 821.946 285.525 821.881 285.426C822.012 285.349 822.082 285.454 822.158 285.499C827.26 288.511 832.362 291.527 837.462 294.545C837.557 294.604 837.638 294.665 837.723 294.72Z" fill="#828384"/>
<path d="M837.762 255.822L837.724 255.765C837.793 255.721 837.783 255.785 837.794 255.818L837.762 255.822Z" fill="#393939"/>
</g>
<g filter="url(#filter4_dd_1217_4949)">
<rect x="982.75" y="213.75" width="208" height="134" rx="24" fill="#E6E6E6"/>
<rect x="982.25" y="213.25" width="209" height="135" rx="24.5" stroke="#D6DCE5"/>
<path d="M1124.56 291.404C1119.22 312.819 1097.53 325.897 1076.08 320.556C1054.66 315.202 1041.61 293.512 1046.94 272.096C1052.28 250.681 1073.96 237.603 1095.36 242.944C1116.83 248.22 1129.89 269.975 1124.56 291.404Z" fill="#ECEFF0"/>
<path d="M1085.78 291.649C1085.62 291.702 1085.53 291.567 1085.43 291.505C1080.25 288.447 1075.07 285.388 1069.91 282.327C1069.86 282.301 1069.8 282.28 1069.75 282.263V282.194L1069.84 282.142C1069.97 282.107 1070.1 282.066 1070.23 282.017L1082.43 276.463C1083.52 275.967 1084.61 275.479 1085.7 274.988H1085.77C1085.77 275.144 1085.77 275.282 1085.77 275.43C1085.78 280.837 1085.78 286.243 1085.78 291.649Z" fill="#343535"/>
<path d="M1085.79 274.992H1085.71C1085.71 274.837 1085.72 274.681 1085.72 274.518C1085.72 268.445 1085.72 262.371 1085.72 256.297C1085.71 256.141 1085.72 255.983 1085.76 255.83H1085.79C1086.43 256.774 1086.98 257.768 1087.57 258.743C1092.22 266.462 1096.88 274.181 1101.52 281.898C1101.57 281.974 1101.61 282.054 1101.65 282.138C1101.51 282.109 1101.38 282.072 1101.26 282.024C1100.41 281.639 1099.55 281.247 1098.7 280.854C1097.38 280.248 1096.06 279.643 1094.73 279.039L1088.35 276.147C1087.5 275.755 1086.64 275.374 1085.79 274.992Z" fill="#2F3030"/>
<path d="M1085.76 255.822C1085.72 255.975 1085.71 256.133 1085.73 256.289C1085.73 262.362 1085.73 268.436 1085.73 274.51C1085.73 274.665 1085.72 274.821 1085.71 274.984C1084.63 275.475 1083.54 275.963 1082.45 276.459L1070.24 282.013C1070.12 282.062 1069.99 282.103 1069.86 282.137C1070.21 281.404 1070.67 280.739 1071.09 280.036C1075.93 271.985 1080.78 263.936 1085.63 255.888C1085.66 255.843 1085.7 255.8 1085.73 255.76L1085.76 255.822Z" fill="#828384"/>
<path d="M1085.79 274.992C1086.64 275.374 1087.5 275.755 1088.35 276.141L1094.73 279.033C1096.06 279.636 1097.38 280.241 1098.71 280.848C1099.56 281.238 1100.42 281.633 1101.26 282.018C1101.39 282.065 1101.52 282.103 1101.65 282.132C1101.8 282.326 1101.57 282.334 1101.5 282.375C1100.18 283.168 1098.85 283.95 1097.52 284.736C1093.7 286.993 1089.89 289.249 1086.08 291.504C1085.98 291.56 1085.88 291.601 1085.78 291.649C1085.78 286.244 1085.78 280.84 1085.78 275.433C1085.78 275.286 1085.78 275.14 1085.79 274.992Z" fill="#131313"/>
<path d="M1085.72 294.72L1095.71 288.834C1097.62 287.709 1099.52 286.583 1101.42 285.456L1101.6 285.361C1101.61 285.517 1101.51 285.599 1101.44 285.689C1097.09 291.823 1092.74 297.956 1088.39 304.086C1087.56 305.249 1086.74 306.417 1085.91 307.57C1085.87 307.631 1085.8 307.915 1085.67 307.614C1085.77 307.524 1085.73 307.402 1085.73 307.303C1085.73 303.107 1085.73 298.913 1085.72 294.72Z" fill="#2F3030"/>
<path d="M1085.72 294.72C1085.72 298.913 1085.72 303.105 1085.72 307.296C1085.72 307.403 1085.77 307.524 1085.66 307.607C1085.44 307.473 1085.35 307.234 1085.2 307.036C1080.15 299.929 1075.11 292.821 1070.07 285.712C1070.01 285.621 1069.95 285.525 1069.88 285.426C1070.01 285.349 1070.08 285.454 1070.16 285.499C1075.26 288.511 1080.36 291.527 1085.46 294.545C1085.56 294.604 1085.64 294.665 1085.72 294.72Z" fill="#828384"/>
<path d="M1085.76 255.822L1085.72 255.765C1085.79 255.721 1085.78 255.785 1085.79 255.818L1085.76 255.822Z" fill="#393939"/>
</g>
<g filter="url(#filter5_dd_1217_4949)">
<rect x="1230.75" y="213.75" width="208" height="134" rx="24" fill="#393652"/>
<rect x="1230.25" y="213.25" width="209" height="135" rx="24.5" stroke="#D6DCE5"/>
<path d="M1372.56 291.404C1367.22 312.819 1345.53 325.897 1324.08 320.556C1302.66 315.202 1289.61 293.512 1294.94 272.096C1300.28 250.681 1321.96 237.603 1343.36 242.944C1364.83 248.22 1377.89 269.975 1372.56 291.404Z" fill="white"/>
<path d="M1333.78 291.649C1333.62 291.702 1333.53 291.567 1333.43 291.505C1328.25 288.447 1323.07 285.388 1317.91 282.327C1317.86 282.301 1317.8 282.28 1317.75 282.263V282.194L1317.84 282.142C1317.97 282.107 1318.1 282.066 1318.23 282.017L1330.43 276.463C1331.52 275.967 1332.61 275.479 1333.7 274.988H1333.77C1333.77 275.144 1333.77 275.282 1333.77 275.43C1333.78 280.837 1333.78 286.243 1333.78 291.649Z" fill="#393652"/>
<path d="M1333.79 274.992H1333.71C1333.71 274.837 1333.72 274.681 1333.72 274.518C1333.72 268.445 1333.72 262.371 1333.72 256.297C1333.71 256.141 1333.72 255.983 1333.76 255.83H1333.79C1334.43 256.774 1334.98 257.768 1335.57 258.743C1340.22 266.462 1344.88 274.181 1349.52 281.898C1349.57 281.974 1349.61 282.054 1349.65 282.138C1349.51 282.109 1349.38 282.072 1349.26 282.024C1348.41 281.639 1347.55 281.247 1346.7 280.854C1345.38 280.248 1344.06 279.643 1342.73 279.039L1336.35 276.147C1335.5 275.755 1334.64 275.374 1333.79 274.992Z" fill="#393652"/>
<path d="M1333.76 255.822C1333.72 255.975 1333.71 256.133 1333.73 256.289C1333.73 262.362 1333.73 268.436 1333.73 274.51C1333.73 274.665 1333.72 274.821 1333.71 274.984C1332.63 275.475 1331.54 275.963 1330.45 276.459L1318.24 282.013C1318.12 282.062 1317.99 282.103 1317.86 282.137C1318.21 281.404 1318.67 280.739 1319.09 280.036C1323.93 271.985 1328.78 263.936 1333.63 255.888C1333.66 255.843 1333.7 255.8 1333.73 255.76L1333.76 255.822Z" fill="#393652"/>
<path d="M1333.79 274.992C1334.64 275.374 1335.5 275.755 1336.35 276.141L1342.73 279.033C1344.06 279.636 1345.38 280.241 1346.71 280.848C1347.56 281.238 1348.42 281.633 1349.26 282.018C1349.39 282.065 1349.52 282.103 1349.65 282.132C1349.8 282.326 1349.57 282.334 1349.5 282.375C1348.18 283.168 1346.85 283.95 1345.52 284.736C1341.7 286.993 1337.89 289.249 1334.08 291.504C1333.98 291.56 1333.88 291.601 1333.78 291.649C1333.78 286.244 1333.78 280.84 1333.78 275.433C1333.78 275.286 1333.78 275.14 1333.79 274.992Z" fill="#393652"/>
<path d="M1333.72 294.72L1343.71 288.834C1345.62 287.709 1347.52 286.583 1349.42 285.456L1349.6 285.361C1349.61 285.517 1349.51 285.599 1349.44 285.689C1345.09 291.823 1340.74 297.956 1336.39 304.086C1335.56 305.249 1334.74 306.417 1333.91 307.57C1333.87 307.631 1333.8 307.915 1333.67 307.614C1333.77 307.524 1333.73 307.402 1333.73 307.303C1333.73 303.107 1333.73 298.913 1333.72 294.72Z" fill="#393652"/>
<path d="M1333.72 294.72C1333.72 298.913 1333.72 303.105 1333.72 307.296C1333.72 307.403 1333.77 307.524 1333.66 307.607C1333.44 307.473 1333.35 307.234 1333.2 307.036C1328.15 299.929 1323.11 292.821 1318.07 285.712C1318.01 285.621 1317.95 285.525 1317.88 285.426C1318.01 285.349 1318.08 285.454 1318.16 285.499C1323.26 288.511 1328.36 291.527 1333.46 294.545C1333.56 294.604 1333.64 294.665 1333.72 294.72Z" fill="#393652"/>
<path d="M1333.76 255.822L1333.72 255.765C1333.79 255.721 1333.78 255.785 1333.79 255.818L1333.76 255.822Z" fill="#393652"/>
</g>
</g>
<defs>
<filter id="filter0_dd_1217_4949" x="0" y="0" width="1559.5" height="493.5" filterUnits="userSpaceOnUse" color-interpolation-filters="sRGB">
<feFlood flood-opacity="0" result="BackgroundImageFix"/>
<feColorMatrix in="SourceAlpha" type="matrix" values="0 0 0 0 0 0 0 0 0 0 0 0 0 0 0 0 0 0 127 0" result="hardAlpha"/>
<feOffset dy="20"/>
<feGaussianBlur stdDeviation="20"/>
<feColorMatrix type="matrix" values="0 0 0 0 0.717647 0 0 0 0 0.717647 0 0 0 0 0.717647 0 0 0 0.06 0"/>
<feBlend mode="normal" in2="BackgroundImageFix" result="effect1_dropShadow_1217_4949"/>
<feColorMatrix in="SourceAlpha" type="matrix" values="0 0 0 0 0 0 0 0 0 0 0 0 0 0 0 0 0 0 127 0" result="hardAlpha"/>
<feOffset dy="4"/>
<feGaussianBlur stdDeviation="7"/>
<feColorMatrix type="matrix" values="0 0 0 0 0.716667 0 0 0 0 0.716667 0 0 0 0 0.716667 0 0 0 0.02 0"/>
<feBlend mode="normal" in2="effect1_dropShadow_1217_4949" result="effect2_dropShadow_1217_4949"/>
<feBlend mode="normal" in="SourceGraphic" in2="effect2_dropShadow_1217_4949" result="shape"/>
</filter>
<filter id="filter1_dd_1217_4949" x="445.75" y="192.75" width="290" height="216" filterUnits="userSpaceOnUse" color-interpolation-filters="sRGB">
<feFlood flood-opacity="0" result="BackgroundImageFix"/>
<feColorMatrix in="SourceAlpha" type="matrix" values="0 0 0 0 0 0 0 0 0 0 0 0 0 0 0 0 0 0 127 0" result="hardAlpha"/>
<feOffset dy="2"/>
<feGaussianBlur stdDeviation="10"/>
<feColorMatrix type="matrix" values="0 0 0 0 0.717647 0 0 0 0 0.717647 0 0 0 0 0.717647 0 0 0 0.08 0"/>
<feBlend mode="normal" in2="BackgroundImageFix" result="effect1_dropShadow_1217_4949"/>
<feColorMatrix in="SourceAlpha" type="matrix" values="0 0 0 0 0 0 0 0 0 0 0 0 0 0 0 0 0 0 127 0" result="hardAlpha"/>
<feOffset dy="20"/>
<feGaussianBlur stdDeviation="20"/>
<feColorMatrix type="matrix" values="0 0 0 0 0.717647 0 0 0 0 0.717647 0 0 0 0 0.717647 0 0 0 0.08 0"/>
<feBlend mode="normal" in2="effect1_dropShadow_1217_4949" result="effect2_dropShadow_1217_4949"/>
<feBlend mode="normal" in="SourceGraphic" in2="effect2_dropShadow_1217_4949" result="shape"/>
</filter>
<filter id="filter2_dd_1217_4949" x="79.75" y="192.75" width="408" height="216" filterUnits="userSpaceOnUse" color-interpolation-filters="sRGB">
<feFlood flood-opacity="0" result="BackgroundImageFix"/>
<feColorMatrix in="SourceAlpha" type="matrix" values="0 0 0 0 0 0 0 0 0 0 0 0 0 0 0 0 0 0 127 0" result="hardAlpha"/>
<feOffset dy="2"/>
<feGaussianBlur stdDeviation="10"/>
<feColorMatrix type="matrix" values="0 0 0 0 0.717647 0 0 0 0 0.717647 0 0 0 0 0.717647 0 0 0 0.08 0"/>
<feBlend mode="normal" in2="BackgroundImageFix" result="effect1_dropShadow_1217_4949"/>
<feColorMatrix in="SourceAlpha" type="matrix" values="0 0 0 0 0 0 0 0 0 0 0 0 0 0 0 0 0 0 127 0" result="hardAlpha"/>
<feOffset dy="20"/>
<feGaussianBlur stdDeviation="20"/>
<feColorMatrix type="matrix" values="0 0 0 0 0.717647 0 0 0 0 0.717647 0 0 0 0 0.717647 0 0 0 0.08 0"/>
<feBlend mode="normal" in2="effect1_dropShadow_1217_4949" result="effect2_dropShadow_1217_4949"/>
<feBlend mode="normal" in="SourceGraphic" in2="effect2_dropShadow_1217_4949" result="shape"/>
</filter>
<filter id="filter3_dd_1217_4949" x="693.75" y="192.75" width="290" height="216" filterUnits="userSpaceOnUse" color-interpolation-filters="sRGB">
<feFlood flood-opacity="0" result="BackgroundImageFix"/>
<feColorMatrix in="SourceAlpha" type="matrix" values="0 0 0 0 0 0 0 0 0 0 0 0 0 0 0 0 0 0 127 0" result="hardAlpha"/>
<feOffset dy="2"/>
<feGaussianBlur stdDeviation="10"/>
<feColorMatrix type="matrix" values="0 0 0 0 0.717647 0 0 0 0 0.717647 0 0 0 0 0.717647 0 0 0 0.08 0"/>
<feBlend mode="normal" in2="BackgroundImageFix" result="effect1_dropShadow_1217_4949"/>
<feColorMatrix in="SourceAlpha" type="matrix" values="0 0 0 0 0 0 0 0 0 0 0 0 0 0 0 0 0 0 127 0" result="hardAlpha"/>
<feOffset dy="20"/>
<feGaussianBlur stdDeviation="20"/>
<feColorMatrix type="matrix" values="0 0 0 0 0.717647 0 0 0 0 0.717647 0 0 0 0 0.717647 0 0 0 0.08 0"/>
<feBlend mode="normal" in2="effect1_dropShadow_1217_4949" result="effect2_dropShadow_1217_4949"/>
<feBlend mode="normal" in="SourceGraphic" in2="effect2_dropShadow_1217_4949" result="shape"/>
</filter>
<filter id="filter4_dd_1217_4949" x="941.75" y="192.75" width="290" height="216" filterUnits="userSpaceOnUse" color-interpolation-filters="sRGB">
<feFlood flood-opacity="0" result="BackgroundImageFix"/>
<feColorMatrix in="SourceAlpha" type="matrix" values="0 0 0 0 0 0 0 0 0 0 0 0 0 0 0 0 0 0 127 0" result="hardAlpha"/>
<feOffset dy="2"/>
<feGaussianBlur stdDeviation="10"/>
<feColorMatrix type="matrix" values="0 0 0 0 0.717647 0 0 0 0 0.717647 0 0 0 0 0.717647 0 0 0 0.08 0"/>
<feBlend mode="normal" in2="BackgroundImageFix" result="effect1_dropShadow_1217_4949"/>
<feColorMatrix in="SourceAlpha" type="matrix" values="0 0 0 0 0 0 0 0 0 0 0 0 0 0 0 0 0 0 127 0" result="hardAlpha"/>
<feOffset dy="20"/>
<feGaussianBlur stdDeviation="20"/>
<feColorMatrix type="matrix" values="0 0 0 0 0.717647 0 0 0 0 0.717647 0 0 0 0 0.717647 0 0 0 0.08 0"/>
<feBlend mode="normal" in2="effect1_dropShadow_1217_4949" result="effect2_dropShadow_1217_4949"/>
<feBlend mode="normal" in="SourceGraphic" in2="effect2_dropShadow_1217_4949" result="shape"/>
</filter>
<filter id="filter5_dd_1217_4949" x="1189.75" y="192.75" width="290" height="216" filterUnits="userSpaceOnUse" color-interpolation-filters="sRGB">
<feFlood flood-opacity="0" result="BackgroundImageFix"/>
<feColorMatrix in="SourceAlpha" type="matrix" values="0 0 0 0 0 0 0 0 0 0 0 0 0 0 0 0 0 0 127 0" result="hardAlpha"/>
<feOffset dy="2"/>
<feGaussianBlur stdDeviation="10"/>
<feColorMatrix type="matrix" values="0 0 0 0 0.717647 0 0 0 0 0.717647 0 0 0 0 0.717647 0 0 0 0.08 0"/>
<feBlend mode="normal" in2="BackgroundImageFix" result="effect1_dropShadow_1217_4949"/>
<feColorMatrix in="SourceAlpha" type="matrix" values="0 0 0 0 0 0 0 0 0 0 0 0 0 0 0 0 0 0 127 0" result="hardAlpha"/>
<feOffset dy="20"/>
<feGaussianBlur stdDeviation="20"/>
<feColorMatrix type="matrix" values="0 0 0 0 0.717647 0 0 0 0 0.717647 0 0 0 0 0.717647 0 0 0 0.08 0"/>
<feBlend mode="normal" in2="effect1_dropShadow_1217_4949" result="effect2_dropShadow_1217_4949"/>
<feBlend mode="normal" in="SourceGraphic" in2="effect2_dropShadow_1217_4949" result="shape"/>
</filter>
</defs>
</svg>
