<svg width="816" height="494" viewBox="0 0 816 494" fill="none" xmlns="http://www.w3.org/2000/svg">
<g filter="url(#filter0_dd_1222_3197)">
<rect x="40.75" y="20.75" width="734" height="412" rx="40" fill="white"/>
<rect x="40.75" y="20.75" width="734" height="412" rx="40" stroke="#EBEFF6" stroke-width="1.5"/>
<path d="M123.405 137.75V107.205H129.863V119.808H142.973V107.205H149.416V137.75H142.973V125.132H129.863V137.75H123.405ZM171.311 115.989C171.192 114.786 170.68 113.852 169.775 113.185C168.87 112.519 167.642 112.186 166.091 112.186C165.037 112.186 164.147 112.335 163.421 112.634C162.695 112.922 162.138 113.325 161.751 113.842C161.373 114.359 161.184 114.945 161.184 115.602C161.164 116.148 161.278 116.626 161.527 117.033C161.786 117.441 162.138 117.794 162.586 118.092C163.033 118.381 163.55 118.634 164.137 118.853C164.724 119.062 165.35 119.241 166.016 119.39L168.761 120.046C170.093 120.344 171.316 120.742 172.43 121.239C173.543 121.737 174.508 122.348 175.323 123.074C176.138 123.8 176.77 124.655 177.217 125.639C177.675 126.624 177.908 127.752 177.918 129.025C177.908 130.894 177.431 132.515 176.487 133.887C175.552 135.249 174.2 136.308 172.43 137.064C170.67 137.81 168.547 138.183 166.061 138.183C163.595 138.183 161.447 137.805 159.618 137.049C157.798 136.293 156.376 135.175 155.352 133.693C154.338 132.202 153.806 130.357 153.756 128.16H160.006C160.075 129.184 160.369 130.039 160.886 130.725C161.413 131.401 162.114 131.913 162.989 132.261C163.874 132.599 164.873 132.768 165.987 132.768C167.08 132.768 168.03 132.609 168.835 132.291C169.651 131.973 170.282 131.531 170.729 130.964C171.177 130.397 171.401 129.746 171.401 129.01C171.401 128.324 171.197 127.747 170.789 127.28C170.391 126.812 169.805 126.415 169.029 126.087C168.263 125.759 167.324 125.46 166.21 125.192L162.884 124.357C160.309 123.73 158.276 122.751 156.784 121.418C155.293 120.086 154.552 118.291 154.562 116.034C154.552 114.185 155.044 112.569 156.038 111.187C157.043 109.805 158.42 108.726 160.17 107.95C161.92 107.175 163.908 106.787 166.136 106.787C168.403 106.787 170.381 107.175 172.072 107.95C173.772 108.726 175.094 109.805 176.039 111.187C176.984 112.569 177.471 114.17 177.501 115.989H171.311ZM182.262 137.75V107.205H194.492C196.74 107.205 198.614 107.538 200.115 108.204C201.617 108.87 202.745 109.795 203.501 110.978C204.257 112.151 204.634 113.504 204.634 115.035C204.634 116.228 204.396 117.277 203.919 118.182C203.441 119.077 202.785 119.812 201.95 120.389C201.124 120.956 200.18 121.359 199.116 121.597V121.896C200.279 121.945 201.368 122.273 202.382 122.88C203.406 123.487 204.237 124.337 204.873 125.43C205.509 126.514 205.828 127.807 205.828 129.308C205.828 130.929 205.425 132.376 204.619 133.648C203.824 134.911 202.646 135.911 201.085 136.646C199.524 137.382 197.6 137.75 195.313 137.75H182.262ZM188.72 132.47H193.985C195.785 132.47 197.097 132.127 197.923 131.441C198.748 130.745 199.161 129.82 199.161 128.667C199.161 127.822 198.957 127.076 198.549 126.43C198.142 125.783 197.56 125.276 196.804 124.908C196.058 124.54 195.169 124.357 194.134 124.357H188.72V132.47ZM188.72 119.987H193.508C194.393 119.987 195.178 119.832 195.865 119.524C196.561 119.206 197.107 118.759 197.505 118.182C197.913 117.605 198.117 116.914 198.117 116.109C198.117 115.005 197.724 114.115 196.938 113.439C196.163 112.763 195.059 112.425 193.627 112.425H188.72V119.987ZM236.981 117.898H230.448C230.329 117.053 230.085 116.303 229.717 115.646C229.349 114.98 228.877 114.413 228.3 113.946C227.724 113.479 227.058 113.121 226.302 112.872C225.556 112.624 224.746 112.499 223.871 112.499C222.29 112.499 220.913 112.892 219.739 113.678C218.566 114.453 217.656 115.587 217.01 117.078C216.364 118.56 216.04 120.359 216.04 122.477C216.04 124.655 216.364 126.484 217.01 127.966C217.666 129.447 218.581 130.566 219.754 131.322C220.928 132.077 222.285 132.455 223.826 132.455C224.691 132.455 225.491 132.341 226.227 132.112C226.973 131.884 227.634 131.55 228.211 131.113C228.788 130.665 229.265 130.124 229.643 129.487C230.031 128.851 230.299 128.125 230.448 127.31L236.981 127.339C236.812 128.741 236.389 130.094 235.713 131.396C235.047 132.689 234.147 133.847 233.013 134.871C231.89 135.886 230.548 136.691 228.987 137.288C227.435 137.874 225.68 138.168 223.722 138.168C220.997 138.168 218.561 137.551 216.413 136.318C214.276 135.085 212.585 133.3 211.342 130.964C210.109 128.627 209.493 125.798 209.493 122.477C209.493 119.146 210.119 116.312 211.372 113.976C212.625 111.639 214.325 109.859 216.473 108.636C218.621 107.403 221.037 106.787 223.722 106.787C225.491 106.787 227.132 107.036 228.643 107.533C230.165 108.03 231.512 108.756 232.685 109.71C233.859 110.655 234.813 111.813 235.549 113.185C236.295 114.558 236.772 116.129 236.981 117.898Z" fill="#19213D"/>
<a href="https://www.hsbc.com/">
<rect fill="black" fill-opacity="0" y="1.58523" width="118.214" height="50.8295"/>
</a>
<g filter="url(#filter1_dd_1222_3197)">
<rect x="179.75" y="213.75" width="456" height="134" rx="24" fill="white"/>
<rect x="179.25" y="213.25" width="457" height="135" rx="24.5" stroke="#D6DCE5"/>
<path d="M382.832 245.75H312.832V315.75H382.832V245.75Z" fill="white"/>
<path d="M417.832 280.832L382.832 245.75V315.832L417.832 280.832Z" fill="#DB0011"/>
<path d="M347.832 280.832L382.832 245.75H312.832L347.832 280.832Z" fill="#DB0011"/>
<path d="M277.75 280.832L312.832 315.832L312.832 245.75L277.75 280.832Z" fill="#DB0011"/>
<path d="M347.832 280.832L312.832 315.832H382.832L347.832 280.832Z" fill="#DB0011"/>
<path d="M448.55 282.891H435.867V295.409H429.526V266.091H435.867V278.115H448.55V266.091H454.891V295.409H448.55V282.891Z" fill="#000008"/>
<path d="M470.209 295.985C463.868 295.985 458.679 293.432 458.597 286.432H464.938C465.021 289.562 466.832 291.456 470.291 291.456C472.844 291.456 475.809 290.138 475.809 287.256C475.809 284.95 473.832 284.291 470.538 283.303L468.397 282.727C463.785 281.409 459.174 279.597 459.174 274.327C459.174 267.821 465.268 265.597 470.785 265.597C476.468 265.597 481.409 267.574 481.491 274.079H475.15C474.903 271.444 473.338 269.879 470.374 269.879C467.985 269.879 465.679 271.115 465.679 273.75C465.679 275.891 467.656 276.55 471.774 277.868L474.244 278.609C479.268 280.174 482.479 281.903 482.479 286.844C482.397 293.432 475.974 295.985 470.209 295.985Z" fill="#000008"/>
<path d="M486.02 266.174H496.232C498.126 266.091 500.103 266.174 501.997 266.503C505.538 267.326 508.256 269.632 508.256 273.585C508.256 277.374 505.867 279.268 502.409 280.174C506.362 280.915 509.326 282.891 509.326 287.256C509.326 293.926 502.738 295.409 497.632 295.409H486.103L486.02 266.174ZM496.232 278.362C499.032 278.362 501.914 277.785 501.914 274.409C501.914 271.362 499.279 270.538 496.644 270.538H492.197V278.362H496.232ZM496.809 291.044C499.773 291.044 502.656 290.385 502.656 286.762C502.656 283.138 500.185 282.479 497.138 282.479H492.114V291.044H496.809Z" fill="#000008"/>
<path d="M525.797 295.985C516.327 295.985 512.127 289.974 512.127 280.997C512.127 272.021 516.821 265.515 526.127 265.515C531.974 265.515 537.656 268.15 537.821 274.738H531.232C530.903 271.774 528.927 270.291 526.127 270.291C520.362 270.291 518.632 276.468 518.632 281.162C518.632 285.856 520.362 291.291 525.879 291.291C528.762 291.291 530.903 289.726 531.315 286.762H537.903C537.244 293.515 531.891 295.985 525.797 295.985Z" fill="#000008"/>
</g>
</g>
<defs>
<filter id="filter0_dd_1222_3197" x="0" y="0" width="815.5" height="493.5" filterUnits="userSpaceOnUse" color-interpolation-filters="sRGB">
<feFlood flood-opacity="0" result="BackgroundImageFix"/>
<feColorMatrix in="SourceAlpha" type="matrix" values="0 0 0 0 0 0 0 0 0 0 0 0 0 0 0 0 0 0 127 0" result="hardAlpha"/>
<feOffset dy="20"/>
<feGaussianBlur stdDeviation="20"/>
<feColorMatrix type="matrix" values="0 0 0 0 0.717647 0 0 0 0 0.717647 0 0 0 0 0.717647 0 0 0 0.06 0"/>
<feBlend mode="normal" in2="BackgroundImageFix" result="effect1_dropShadow_1222_3197"/>
<feColorMatrix in="SourceAlpha" type="matrix" values="0 0 0 0 0 0 0 0 0 0 0 0 0 0 0 0 0 0 127 0" result="hardAlpha"/>
<feOffset dy="4"/>
<feGaussianBlur stdDeviation="7"/>
<feColorMatrix type="matrix" values="0 0 0 0 0.716667 0 0 0 0 0.716667 0 0 0 0 0.716667 0 0 0 0.02 0"/>
<feBlend mode="normal" in2="effect1_dropShadow_1222_3197" result="effect2_dropShadow_1222_3197"/>
<feBlend mode="normal" in="SourceGraphic" in2="effect2_dropShadow_1222_3197" result="shape"/>
</filter>
<filter id="filter1_dd_1222_3197" x="138.75" y="192.75" width="538" height="216" filterUnits="userSpaceOnUse" color-interpolation-filters="sRGB">
<feFlood flood-opacity="0" result="BackgroundImageFix"/>
<feColorMatrix in="SourceAlpha" type="matrix" values="0 0 0 0 0 0 0 0 0 0 0 0 0 0 0 0 0 0 127 0" result="hardAlpha"/>
<feOffset dy="2"/>
<feGaussianBlur stdDeviation="10"/>
<feColorMatrix type="matrix" values="0 0 0 0 0.717647 0 0 0 0 0.717647 0 0 0 0 0.717647 0 0 0 0.08 0"/>
<feBlend mode="normal" in2="BackgroundImageFix" result="effect1_dropShadow_1222_3197"/>
<feColorMatrix in="SourceAlpha" type="matrix" values="0 0 0 0 0 0 0 0 0 0 0 0 0 0 0 0 0 0 127 0" result="hardAlpha"/>
<feOffset dy="20"/>
<feGaussianBlur stdDeviation="20"/>
<feColorMatrix type="matrix" values="0 0 0 0 0.717647 0 0 0 0 0.717647 0 0 0 0 0.717647 0 0 0 0.08 0"/>
<feBlend mode="normal" in2="effect1_dropShadow_1222_3197" result="effect2_dropShadow_1222_3197"/>
<feBlend mode="normal" in="SourceGraphic" in2="effect2_dropShadow_1222_3197" result="shape"/>
</filter>
</defs>
</svg>
