<svg width="1560" height="494" viewBox="0 0 1560 494" fill="none" xmlns="http://www.w3.org/2000/svg">
<g filter="url(#filter0_dd_1217_5914)">
<rect x="40.75" y="20.75" width="1478" height="412" rx="40" fill="white"/>
<rect x="40.75" y="20.75" width="1478" height="412" rx="40" stroke="#EBEFF6" stroke-width="1.5"/>
<path d="M123.405 137.75V107.205H135.456C137.773 107.205 139.746 107.647 141.377 108.532C143.008 109.407 144.251 110.625 145.106 112.186C145.971 113.737 146.403 115.527 146.403 117.555C146.403 119.584 145.966 121.374 145.091 122.925C144.216 124.476 142.948 125.684 141.288 126.549C139.637 127.414 137.638 127.847 135.292 127.847H127.611V122.671H134.248C135.491 122.671 136.515 122.457 137.32 122.03C138.136 121.592 138.742 120.991 139.14 120.225C139.548 119.45 139.751 118.56 139.751 117.555C139.751 116.541 139.548 115.656 139.14 114.901C138.742 114.135 138.136 113.543 137.32 113.126C136.505 112.698 135.471 112.484 134.218 112.484H129.863V137.75H123.405ZM156.396 138.183C154.935 138.183 153.632 137.929 152.489 137.422C151.345 136.905 150.44 136.144 149.774 135.14C149.118 134.126 148.79 132.863 148.79 131.352C148.79 130.079 149.023 129.01 149.491 128.145C149.958 127.28 150.594 126.584 151.4 126.057C152.205 125.53 153.12 125.132 154.144 124.864C155.178 124.595 156.262 124.406 157.396 124.297C158.728 124.158 159.802 124.028 160.617 123.909C161.433 123.78 162.024 123.591 162.392 123.342C162.76 123.094 162.944 122.726 162.944 122.239V122.149C162.944 121.205 162.646 120.474 162.049 119.957C161.462 119.44 160.627 119.181 159.543 119.181C158.4 119.181 157.49 119.435 156.814 119.942C156.138 120.439 155.69 121.065 155.472 121.821L149.595 121.344C149.893 119.952 150.48 118.749 151.355 117.734C152.23 116.71 153.359 115.925 154.741 115.378C156.133 114.821 157.744 114.543 159.573 114.543C160.846 114.543 162.064 114.692 163.227 114.99C164.401 115.288 165.44 115.751 166.344 116.377C167.259 117.004 167.98 117.809 168.507 118.793C169.034 119.768 169.298 120.936 169.298 122.298V137.75H163.272V134.573H163.093C162.725 135.289 162.233 135.92 161.616 136.467C161 137.004 160.259 137.427 159.394 137.735C158.529 138.033 157.53 138.183 156.396 138.183ZM158.216 133.798C159.151 133.798 159.976 133.614 160.692 133.246C161.408 132.868 161.969 132.361 162.377 131.724C162.785 131.088 162.989 130.367 162.989 129.562V127.131C162.79 127.26 162.516 127.379 162.168 127.489C161.83 127.588 161.447 127.683 161.02 127.772C160.592 127.852 160.165 127.926 159.737 127.996C159.31 128.055 158.922 128.11 158.574 128.16C157.828 128.269 157.177 128.443 156.62 128.682C156.063 128.92 155.631 129.244 155.322 129.651C155.014 130.049 154.86 130.546 154.86 131.143C154.86 132.008 155.173 132.669 155.8 133.126C156.436 133.574 157.241 133.798 158.216 133.798ZM177.329 146.341C176.524 146.341 175.768 146.276 175.062 146.147C174.366 146.028 173.789 145.874 173.332 145.685L174.764 140.942C175.51 141.17 176.181 141.295 176.777 141.315C177.384 141.335 177.906 141.195 178.343 140.897C178.791 140.599 179.154 140.092 179.432 139.376L179.805 138.406L171.587 114.841H178.269L183.012 131.665H183.25L188.038 114.841H194.765L185.86 140.226C185.433 141.459 184.851 142.533 184.115 143.447C183.39 144.372 182.47 145.083 181.356 145.58C180.243 146.087 178.9 146.341 177.329 146.341ZM204.37 107.205V137.75H198.016V107.205H204.37ZM209.459 137.75V114.841H215.813V137.75H209.459ZM212.651 111.888C211.706 111.888 210.896 111.575 210.22 110.948C209.554 110.312 209.221 109.551 209.221 108.666C209.221 107.791 209.554 107.04 210.22 106.414C210.896 105.778 211.706 105.46 212.651 105.46C213.596 105.46 214.401 105.778 215.067 106.414C215.743 107.04 216.081 107.791 216.081 108.666C216.081 109.551 215.743 110.312 215.067 110.948C214.401 111.575 213.596 111.888 212.651 111.888ZM227.256 124.506V137.75H220.903V114.841H226.958V118.883H227.227C227.734 117.55 228.584 116.496 229.777 115.721C230.97 114.935 232.417 114.543 234.117 114.543C235.708 114.543 237.095 114.891 238.278 115.587C239.462 116.283 240.381 117.277 241.038 118.57C241.694 119.852 242.022 121.384 242.022 123.163V137.75H235.668V124.297C235.678 122.895 235.32 121.801 234.594 121.016C233.869 120.22 232.869 119.822 231.597 119.822C230.741 119.822 229.986 120.006 229.33 120.374C228.683 120.742 228.176 121.279 227.808 121.985C227.45 122.681 227.266 123.521 227.256 124.506ZM257.47 138.197C255.113 138.197 253.085 137.72 251.385 136.766C249.694 135.801 248.392 134.439 247.477 132.679C246.562 130.909 246.105 128.816 246.105 126.4C246.105 124.043 246.562 121.975 247.477 120.195C248.392 118.415 249.68 117.028 251.34 116.034C253.01 115.04 254.969 114.543 257.216 114.543C258.728 114.543 260.135 114.786 261.437 115.273C262.75 115.751 263.893 116.472 264.868 117.436C265.852 118.401 266.618 119.614 267.165 121.075C267.711 122.527 267.985 124.227 267.985 126.176V127.921H248.64V123.984H262.004C262.004 123.069 261.805 122.259 261.407 121.553C261.01 120.847 260.458 120.295 259.752 119.897C259.056 119.489 258.246 119.286 257.321 119.286C256.356 119.286 255.501 119.509 254.756 119.957C254.02 120.394 253.443 120.986 253.025 121.732C252.608 122.467 252.394 123.288 252.384 124.192V127.936C252.384 129.07 252.593 130.049 253.01 130.874C253.438 131.7 254.04 132.336 254.815 132.783C255.591 133.231 256.51 133.455 257.574 133.455C258.28 133.455 258.927 133.355 259.513 133.156C260.1 132.957 260.602 132.659 261.02 132.261C261.437 131.864 261.756 131.376 261.974 130.8L267.851 131.188C267.552 132.599 266.941 133.832 266.016 134.886C265.101 135.93 263.918 136.746 262.466 137.332C261.025 137.909 259.359 138.197 257.47 138.197Z" fill="#19213D"/>
<a href="https://paylinedata.com/">
<rect fill="black" fill-opacity="0" y="1.58523" width="148.846" height="50.8295"/>
</a>
<g filter="url(#filter1_dd_1217_5914)">
<rect x="120.25" y="213.25" width="327" height="135" rx="24.5" stroke="#D6DCE5"/>
<path d="M361.529 265.622C361.742 265.85 361.901 266.079 362.114 266.365C362.273 266.593 362.432 266.765 362.591 266.993C362.804 267.222 363.017 267.508 363.176 267.736C363.335 267.965 363.548 268.193 363.707 268.422C363.92 268.708 364.132 268.993 364.343 269.279C364.556 269.565 364.715 269.794 364.928 270.079C365.141 270.308 365.3 270.537 365.513 270.765C365.672 270.994 365.831 271.165 365.99 271.394C366.203 271.679 366.469 271.965 366.682 272.251C366.893 272.48 367.054 272.765 367.265 272.994C367.426 273.223 367.637 273.394 367.798 273.623C367.903 273.737 367.957 273.851 368.062 273.965C368.169 274.137 368.329 274.251 368.434 274.423C368.54 274.537 368.647 274.708 368.752 274.823C368.86 274.937 369.019 275.108 369.072 275.28C369.231 275.509 369.444 275.68 369.603 275.966C369.709 276.137 369.868 276.251 369.975 276.423C370.188 276.709 370.453 277.052 370.665 277.337C370.771 277.509 370.93 277.623 371.037 277.794C371.196 278.023 371.356 278.194 371.515 278.423C371.622 278.595 371.781 278.709 371.887 278.88C372.046 279.109 372.206 279.337 372.366 279.566C372.525 279.795 372.738 280.023 372.949 280.252C373.109 280.423 373.215 280.595 373.321 280.766C373.481 280.938 373.428 281.109 373.269 281.281C373.056 281.566 372.843 281.852 372.578 282.138C372.418 282.366 372.206 282.595 372.046 282.766C371.835 282.995 371.674 283.281 371.463 283.509C371.302 283.738 371.091 283.967 370.93 284.195C370.719 284.424 370.56 284.71 370.399 284.938C370.24 285.167 370.027 285.395 369.868 285.624C369.762 285.795 369.603 285.967 369.496 286.138C369.337 286.367 369.178 286.538 369.019 286.767C368.86 286.938 368.752 287.11 368.593 287.281C368.381 287.567 368.116 287.853 367.903 288.138C367.744 288.367 367.531 288.596 367.372 288.824C367.159 289.053 366.947 289.338 366.787 289.567C366.682 289.739 366.521 289.91 366.416 290.081C366.256 290.31 366.044 290.539 365.885 290.767C365.725 290.996 365.513 291.225 365.354 291.453C365.087 291.739 364.874 292.082 364.61 292.367C364.343 292.71 364.079 293.053 363.812 293.396C363.6 293.625 363.389 293.911 363.228 294.139C363.069 294.368 362.91 294.596 362.697 294.825C362.538 295.053 362.325 295.282 362.166 295.511C362.007 295.739 361.794 295.968 361.635 296.197C361.635 296.197 361.581 296.197 361.529 296.254C361.529 286.081 361.529 275.908 361.529 265.736C361.476 265.622 361.529 265.622 361.529 265.622Z" fill="#7FA9B3"/>
<path fill-rule="evenodd" clip-rule="evenodd" d="M200.321 266.635H194.932C194.932 279.5 194.932 292.418 195.038 305.337H200.638V291.786C200.799 291.977 200.978 292.13 201.154 292.28C201.268 292.377 201.38 292.473 201.484 292.577C202.276 293.315 203.227 293.895 204.231 294.264C205.658 294.791 207.084 294.791 208.564 294.686C209.515 294.633 210.466 294.475 211.417 294.211C212.421 293.947 213.319 293.526 214.059 292.84C215.274 291.733 216.067 290.362 216.595 288.833C217.07 287.409 217.387 285.986 217.493 284.456C217.599 283.402 217.704 282.347 217.704 281.293C217.704 280.133 217.652 278.92 217.599 277.76C217.546 277.022 217.44 276.284 217.335 275.546C217.176 274.597 216.965 273.647 216.7 272.698C216.331 271.433 215.749 270.326 214.904 269.324C214.217 268.48 213.425 267.847 212.474 267.426C211.734 267.057 210.941 266.846 210.149 266.635C208.828 266.318 207.507 266.213 206.186 266.371C205.182 266.477 204.178 266.793 203.28 267.215C202.382 267.689 201.537 268.269 200.797 269.007C200.638 269.113 200.48 269.271 200.321 269.429V266.635ZM211.628 276.811C211.892 277.971 211.998 279.236 211.892 280.449C211.892 280.632 211.896 280.818 211.899 281.006C211.909 281.576 211.919 282.161 211.84 282.717C211.681 284.298 211.47 285.933 210.677 287.357C209.99 288.622 208.986 289.413 207.56 289.624C206.873 289.729 206.186 289.782 205.499 289.729C204.231 289.624 203.122 289.096 202.329 288.042C201.537 287.04 201.114 285.88 200.85 284.667C200.744 283.982 200.638 283.244 200.586 282.558C200.572 282.295 200.556 282.031 200.539 281.767C200.49 280.977 200.44 280.186 200.48 279.395C200.533 277.549 200.797 275.704 201.748 274.016C202.54 272.593 203.703 271.696 205.341 271.433C206.186 271.327 207.032 271.275 207.877 271.591C208.986 271.96 209.832 272.698 210.466 273.7C211.047 274.649 211.417 275.704 211.628 276.811Z" fill="#183B56"/>
<path fill-rule="evenodd" clip-rule="evenodd" d="M238.173 292.895V295.358C240.044 295.358 241.861 295.358 243.731 295.413V275.219C243.731 274.179 243.571 273.139 243.196 272.099C242.502 270.184 241.219 268.761 239.456 267.776C238.387 267.174 237.265 266.846 236.036 266.627C234.807 266.463 233.578 266.298 232.349 266.298C231.815 266.298 231.28 266.298 230.746 266.353C230.265 266.353 229.837 266.353 229.357 266.463C228.181 266.681 227.005 266.955 225.937 267.448C224.44 268.104 223.158 268.98 222.196 270.293C222.089 270.458 222.143 270.512 222.25 270.622C222.463 270.786 222.677 271.005 222.891 271.224C223.211 271.552 223.545 271.867 223.879 272.181C224.213 272.496 224.547 272.811 224.868 273.139C225.001 273.249 225.122 273.372 225.242 273.495C225.362 273.618 225.482 273.741 225.616 273.851C225.723 273.96 225.83 274.015 225.99 273.851C226.168 273.632 226.346 273.461 226.524 273.291C226.613 273.206 226.702 273.121 226.792 273.03C227.433 272.428 228.181 271.99 228.982 271.716C230.105 271.278 231.28 271.114 232.509 271.278C233.418 271.388 234.326 271.497 235.181 271.826C236.464 272.318 237.372 273.139 237.746 274.507C237.899 275.03 237.955 275.602 238.006 276.129C238.008 276.154 238.011 276.179 238.013 276.204C238.048 276.711 238.037 277.218 238.025 277.74C238.019 278.008 238.013 278.279 238.013 278.557H237.853C235.234 278.557 232.563 278.557 229.891 278.612C229.357 278.612 228.822 278.667 228.288 278.721C226.899 278.885 225.616 279.378 224.44 280.144C222.998 281.074 221.929 282.333 221.395 284.03C221.02 285.179 220.86 286.383 221.02 287.587C221.074 287.888 221.114 288.203 221.154 288.517C221.194 288.832 221.234 289.147 221.288 289.448C221.555 290.652 222.036 291.746 222.837 292.676C223.585 293.607 224.547 294.264 225.616 294.756C226.898 295.303 228.181 295.577 229.517 295.577C230.479 295.577 231.44 295.522 232.402 295.413C233.097 295.358 233.792 295.249 234.486 295.084C235.395 294.866 236.196 294.318 236.998 293.771C237.372 293.498 237.746 293.224 238.173 292.895ZM238.067 282.662V285.507C238.013 286.219 237.96 286.93 237.799 287.642C237.639 288.353 237.158 288.9 236.624 289.393C235.822 290.104 234.914 290.487 233.899 290.652C233.204 290.761 232.509 290.87 231.815 290.761C231.547 290.734 231.28 290.72 231.013 290.706C230.746 290.693 230.479 290.679 230.212 290.652C229.25 290.542 228.288 290.269 227.54 289.557C227.112 289.119 226.792 288.572 226.685 287.915C226.524 287.094 226.471 286.273 226.738 285.453C227.059 284.522 227.647 283.92 228.448 283.428C229.357 282.88 230.372 282.662 231.44 282.662H238.067Z" fill="#183B56"/>
<path fill-rule="evenodd" clip-rule="evenodd" d="M334.142 285.299C333.925 284.481 333.816 283.662 333.708 282.789C339.947 282.789 346.077 282.789 352.37 282.735C352.374 282.688 352.378 282.642 352.382 282.596C352.432 282.05 352.478 281.543 352.478 280.989C352.478 280.791 352.464 280.607 352.45 280.431C352.437 280.267 352.424 280.11 352.424 279.952C352.424 279.352 352.37 278.752 352.316 278.152C352.207 277.334 352.099 276.57 351.936 275.752C351.556 273.951 350.905 272.26 349.82 270.732C349.169 269.75 348.355 268.932 347.433 268.277C345.589 267.022 343.527 266.422 341.303 266.313C340.57 266.272 339.838 266.323 339.106 266.375C338.862 266.392 338.618 266.409 338.373 266.422C337.397 266.477 336.475 266.75 335.552 267.077C333.925 267.677 332.569 268.659 331.429 269.969C330.778 270.678 330.236 271.496 329.856 272.369C329.422 273.296 329.097 274.224 328.825 275.151C328.391 276.515 328.229 277.879 328.12 279.298C328.066 280.116 328.066 280.88 328.12 281.698C328.12 282.28 328.168 282.862 328.217 283.444C328.241 283.735 328.265 284.026 328.283 284.317C328.337 285.354 328.608 286.39 328.934 287.372C329.422 289.063 330.182 290.536 331.321 291.846C332.297 292.991 333.491 293.864 334.901 294.519C336.42 295.174 338.048 295.501 339.675 295.556C340.815 295.61 341.9 295.556 343.039 295.446C343.744 295.392 344.449 295.283 345.1 295.119C346.402 294.792 347.65 294.355 348.789 293.646C349.766 293.046 350.688 292.282 351.447 291.355C351.556 291.246 351.556 291.136 351.447 291.027C351.176 290.755 350.905 290.495 350.634 290.236C350.363 289.977 350.091 289.718 349.82 289.445L348.03 287.645C347.786 287.836 347.555 288.027 347.325 288.218C347.094 288.409 346.863 288.6 346.619 288.791C345.1 289.991 343.31 290.591 341.357 290.645C340.543 290.7 339.675 290.536 338.862 290.373C337.939 290.154 337.071 289.773 336.366 289.172C335.173 288.136 334.522 286.772 334.142 285.299ZM346.511 278.479H333.816C333.871 277.988 333.871 277.497 333.871 277.006C333.897 276.898 333.924 276.789 333.952 276.678C334.089 276.119 334.232 275.534 334.413 274.988C335.064 273.242 336.203 271.933 337.994 271.387C339.784 270.841 341.574 270.951 343.256 271.878C344.449 272.533 345.209 273.569 345.697 274.77C345.968 275.479 346.185 276.243 346.348 277.006C346.42 277.334 346.444 277.661 346.469 277.988C346.481 278.152 346.493 278.316 346.511 278.479Z" fill="#183B56"/>
<path d="M265.026 266.298C267.108 266.298 269.245 266.298 271.382 266.298C271.382 266.405 271.382 266.458 271.327 266.565C270.779 268.004 270.231 269.496 269.683 270.935C269.245 272.001 268.862 273.121 268.423 274.186C267.766 275.945 267.053 277.704 266.396 279.516C265.903 280.796 265.41 282.075 264.917 283.354C264.259 285.113 263.547 286.925 262.889 288.684C262.396 290.016 261.903 291.349 261.355 292.681C260.752 294.28 260.15 295.879 259.492 297.478C258.944 298.864 258.451 300.25 257.794 301.582C256.917 303.394 255.383 304.62 253.356 305.1C252.808 305.206 252.26 305.259 251.712 305.313C250.945 305.366 250.178 305.313 249.411 305.313C248.534 305.313 247.712 305.313 246.781 305.313C246.781 303.661 246.781 301.955 246.781 300.196C247.055 300.196 247.274 300.196 247.548 300.196C248.479 300.196 249.356 300.196 250.288 300.196C251.767 300.143 253.082 299.343 253.575 297.958C254.178 296.412 254.726 294.813 255.273 293.214C255.383 292.894 255.164 292.681 255.109 292.415C254.671 291.189 254.232 290.016 253.794 288.844C253.191 287.191 252.534 285.539 251.931 283.887C251.164 281.915 250.452 279.943 249.685 277.971C248.973 276.052 248.206 274.133 247.493 272.215C246.836 270.402 246.123 268.59 245.466 266.778C245.411 266.725 245.411 266.618 245.356 266.512C247.329 266.512 249.356 266.512 251.329 266.512C251.493 266.512 251.548 266.618 251.548 266.725C251.876 267.684 252.205 268.644 252.534 269.603C253.246 271.575 253.904 273.547 254.616 275.519C255.273 277.384 255.931 279.25 256.588 281.169C257.136 282.714 257.684 284.26 258.232 285.806C258.232 285.859 258.287 285.912 258.342 285.965C260.643 279.303 262.835 272.801 265.026 266.298Z" fill="#183B56"/>
<path d="M319.026 293.95C319.026 293.846 319.026 293.69 319.026 293.585C319.026 287.955 319.026 282.376 319.026 276.745C319.026 275.337 318.6 274.034 317.642 272.887C316.844 271.896 315.727 271.375 314.503 271.27C313.918 271.218 313.333 271.166 312.748 271.218C311.205 271.375 309.874 271.948 308.97 273.252C308.331 274.138 308.012 275.128 307.853 276.223C307.799 276.588 307.799 276.953 307.799 277.318C307.799 282.741 307.799 288.111 307.799 293.533C307.799 293.638 307.799 293.742 307.799 293.898C305.884 293.898 303.969 293.898 302.053 293.898C302.053 284.774 302.053 275.65 302.053 266.526C303.862 266.526 305.671 266.526 307.533 266.526C307.533 267.412 307.533 268.298 307.533 269.289C307.906 268.976 308.225 268.663 308.597 268.403C309.874 267.464 311.258 266.839 312.854 266.526C313.918 266.317 314.982 266.265 316.046 266.317C317.27 266.369 318.494 266.63 319.611 267.151C320.728 267.673 321.686 268.403 322.537 269.289C323.389 270.28 324.027 271.427 324.347 272.73C324.613 273.773 324.719 274.816 324.719 275.859C324.719 277.683 324.772 279.508 324.772 281.333C324.772 284.67 324.825 288.007 324.825 291.344C324.825 292.178 324.825 293.064 324.825 293.95C322.804 293.95 320.941 293.95 319.026 293.95Z" fill="#183B56"/>
<path d="M274.4 254.912C276.387 254.912 278.321 254.912 280.308 254.912C280.308 255.018 280.308 255.125 280.308 255.231C280.308 265.582 280.308 275.879 280.308 286.177C280.308 287.026 280.523 287.876 281.167 288.512C281.543 288.884 282.027 289.096 282.564 289.096C283.423 289.096 284.229 289.149 285.088 289.149C285.303 289.149 285.572 289.149 285.786 289.096C285.786 290.689 285.786 292.281 285.786 293.927C285.625 293.927 285.572 293.927 285.464 293.927C284.068 293.927 282.725 293.98 281.328 293.927C279.771 293.874 278.375 293.396 277.193 292.441C275.743 291.326 274.937 289.786 274.615 288.035C274.454 287.186 274.4 286.283 274.4 285.434C274.4 275.348 274.4 265.316 274.4 255.231C274.4 255.178 274.4 255.071 274.4 254.912Z" fill="#183B56"/>
<path d="M290.667 266.298C292.577 266.298 294.38 266.298 296.237 266.298C296.237 275.516 296.237 284.733 296.237 293.95C294.38 293.95 292.524 293.95 290.667 293.95C290.667 284.733 290.667 275.516 290.667 266.298Z" fill="#183B56"/>
<path d="M296.237 261.419C294.38 261.419 292.524 261.419 290.667 261.419C290.667 259.27 290.667 257.121 290.667 254.912C292.524 254.912 294.38 254.912 296.237 254.912C296.237 257.061 296.237 259.21 296.237 261.419Z" fill="#183B56"/>
</g>
<g filter="url(#filter2_dd_1217_5914)">
<rect x="486.75" y="213.75" width="208" height="134" rx="24" fill="white"/>
<rect x="486.25" y="213.25" width="209" height="135" rx="24.5" stroke="#D6DCE5"/>
<path d="M657.999 268.628C658.182 268.825 658.32 269.022 658.503 269.269C658.641 269.466 658.778 269.614 658.915 269.811C659.099 270.009 659.282 270.255 659.42 270.452C659.557 270.65 659.741 270.847 659.878 271.044C660.061 271.291 660.245 271.537 660.427 271.784C660.611 272.03 660.748 272.228 660.932 272.474C661.115 272.671 661.253 272.869 661.436 273.066C661.573 273.263 661.711 273.411 661.848 273.608C662.032 273.855 662.261 274.102 662.445 274.348C662.627 274.545 662.766 274.792 662.948 274.989C663.087 275.186 663.269 275.334 663.408 275.531C663.499 275.63 663.545 275.729 663.636 275.827C663.728 275.975 663.866 276.074 663.957 276.222C664.048 276.32 664.14 276.468 664.232 276.567C664.324 276.666 664.461 276.814 664.508 276.962C664.645 277.159 664.828 277.307 664.966 277.553C665.057 277.701 665.194 277.8 665.287 277.948C665.47 278.194 665.699 278.49 665.882 278.737C665.973 278.885 666.111 278.983 666.203 279.131C666.34 279.328 666.478 279.476 666.615 279.674C666.707 279.822 666.845 279.92 666.936 280.068C667.073 280.265 667.212 280.463 667.349 280.66C667.487 280.857 667.67 281.054 667.852 281.252C667.991 281.4 668.082 281.547 668.173 281.695C668.312 281.843 668.266 281.991 668.128 282.139C667.945 282.386 667.761 282.632 667.533 282.879C667.394 283.076 667.212 283.273 667.073 283.421C666.891 283.619 666.752 283.865 666.57 284.062C666.431 284.26 666.249 284.457 666.111 284.654C665.928 284.851 665.791 285.098 665.652 285.295C665.515 285.492 665.331 285.69 665.194 285.887C665.103 286.035 664.966 286.183 664.873 286.331C664.736 286.528 664.599 286.676 664.461 286.873C664.324 287.021 664.232 287.169 664.094 287.317C663.911 287.563 663.682 287.81 663.499 288.057C663.361 288.254 663.178 288.451 663.04 288.648C662.857 288.846 662.673 289.092 662.536 289.289C662.445 289.437 662.306 289.585 662.215 289.733C662.078 289.93 661.894 290.128 661.757 290.325C661.62 290.522 661.436 290.719 661.299 290.917C661.069 291.163 660.885 291.459 660.657 291.706C660.427 292.001 660.199 292.297 659.969 292.593C659.785 292.79 659.603 293.037 659.465 293.234C659.327 293.432 659.19 293.629 659.006 293.826C658.869 294.023 658.686 294.221 658.548 294.418C658.411 294.615 658.227 294.812 658.09 295.01C658.09 295.01 658.044 295.01 657.999 295.059C657.999 286.281 657.999 277.504 657.999 268.727C657.953 268.628 657.999 268.628 657.999 268.628Z" fill="#7FA9B3"/>
<path fill-rule="evenodd" clip-rule="evenodd" d="M518.9 269.502H514.25C514.25 280.603 514.25 291.749 514.341 302.896H519.174V291.204C519.312 291.369 519.467 291.501 519.618 291.63C519.717 291.714 519.813 291.796 519.903 291.886C520.587 292.523 521.408 293.023 522.274 293.342C523.505 293.797 524.736 293.797 526.012 293.706C526.833 293.66 527.653 293.524 528.474 293.296C529.34 293.069 530.115 292.705 530.753 292.113C531.802 291.158 532.486 289.975 532.942 288.656C533.352 287.427 533.626 286.199 533.717 284.88C533.808 283.97 533.899 283.06 533.899 282.15C533.899 281.149 533.854 280.103 533.808 279.102C533.762 278.465 533.671 277.828 533.58 277.191C533.443 276.372 533.261 275.553 533.033 274.734C532.714 273.642 532.212 272.687 531.483 271.822C530.89 271.094 530.206 270.548 529.386 270.184C528.748 269.866 528.064 269.684 527.38 269.502C526.24 269.229 525.1 269.138 523.961 269.275C523.094 269.366 522.228 269.638 521.453 270.002C520.678 270.412 519.949 270.912 519.31 271.549C519.174 271.64 519.037 271.777 518.9 271.913V269.502ZM528.656 278.283C528.884 279.284 528.975 280.375 528.884 281.422C528.884 281.58 528.887 281.74 528.89 281.902C528.898 282.394 528.907 282.899 528.839 283.378C528.702 284.743 528.52 286.153 527.836 287.382C527.243 288.474 526.377 289.156 525.146 289.338C524.553 289.429 523.961 289.475 523.368 289.429C522.274 289.338 521.316 288.883 520.633 287.973C519.949 287.109 519.584 286.108 519.356 285.062C519.265 284.47 519.174 283.833 519.128 283.242C519.117 283.014 519.102 282.787 519.088 282.559C519.045 281.877 519.003 281.194 519.037 280.512C519.082 278.92 519.31 277.327 520.131 275.871C520.815 274.643 521.818 273.87 523.231 273.642C523.961 273.551 524.69 273.506 525.419 273.779C526.377 274.097 527.106 274.734 527.653 275.598C528.155 276.417 528.474 277.327 528.656 278.283Z" fill="#183B56"/>
<path fill-rule="evenodd" clip-rule="evenodd" d="M551.561 292.161V294.286C553.174 294.286 554.742 294.286 556.356 294.333V276.909C556.356 276.012 556.218 275.114 555.895 274.217C555.295 272.564 554.189 271.337 552.667 270.487C551.745 269.967 550.777 269.684 549.716 269.495C548.656 269.353 547.595 269.212 546.535 269.212C546.074 269.212 545.613 269.212 545.152 269.259C544.737 269.259 544.368 269.259 543.953 269.353C542.939 269.542 541.924 269.778 541.002 270.203C539.711 270.77 538.605 271.526 537.774 272.659C537.682 272.801 537.728 272.848 537.821 272.942C538.005 273.084 538.189 273.273 538.374 273.462C538.651 273.745 538.939 274.017 539.227 274.288C539.515 274.56 539.803 274.831 540.08 275.114C540.195 275.209 540.299 275.315 540.403 275.421C540.506 275.528 540.61 275.634 540.725 275.728C540.818 275.823 540.91 275.87 541.048 275.728C541.202 275.539 541.356 275.392 541.509 275.246C541.586 275.172 541.663 275.099 541.74 275.02C542.293 274.501 542.939 274.123 543.63 273.887C544.598 273.509 545.613 273.367 546.673 273.509C547.457 273.603 548.241 273.698 548.979 273.981C550.085 274.406 550.869 275.114 551.192 276.295C551.324 276.746 551.372 277.24 551.416 277.694C551.418 277.716 551.42 277.737 551.422 277.759C551.453 278.196 551.443 278.633 551.433 279.084C551.428 279.315 551.422 279.55 551.422 279.789H551.284C549.025 279.789 546.719 279.789 544.414 279.837C543.953 279.837 543.492 279.884 543.031 279.931C541.832 280.073 540.725 280.498 539.711 281.159C538.466 281.961 537.544 283.047 537.083 284.511C536.76 285.503 536.622 286.542 536.76 287.581C536.806 287.84 536.841 288.112 536.875 288.383C536.91 288.655 536.945 288.926 536.991 289.186C537.221 290.225 537.636 291.169 538.328 291.972C538.973 292.775 539.803 293.342 540.725 293.767C541.832 294.239 542.939 294.475 544.091 294.475C544.921 294.475 545.751 294.428 546.581 294.333C547.181 294.286 547.78 294.192 548.379 294.05C549.163 293.861 549.855 293.389 550.546 292.917C550.869 292.681 551.192 292.444 551.561 292.161ZM551.468 283.331V285.786C551.422 286.4 551.376 287.014 551.238 287.628C551.1 288.242 550.685 288.714 550.224 289.139C549.532 289.753 548.748 290.083 547.872 290.225C547.273 290.32 546.673 290.414 546.074 290.32C545.843 290.296 545.613 290.284 545.382 290.272C545.152 290.261 544.921 290.249 544.691 290.225C543.861 290.131 543.031 289.895 542.385 289.281C542.016 288.903 541.74 288.431 541.648 287.864C541.509 287.156 541.463 286.447 541.694 285.739C541.97 284.936 542.477 284.417 543.169 283.992C543.953 283.52 544.829 283.331 545.751 283.331H551.468Z" fill="#183B56"/>
<path fill-rule="evenodd" clip-rule="evenodd" d="M634.367 285.606C634.18 284.9 634.086 284.194 633.993 283.441C639.376 283.441 644.665 283.441 650.095 283.394C650.099 283.354 650.103 283.314 650.106 283.275C650.149 282.803 650.189 282.365 650.189 281.888C650.189 281.716 650.176 281.558 650.164 281.406C650.153 281.265 650.142 281.129 650.142 280.993C650.142 280.475 650.095 279.958 650.049 279.44C649.955 278.734 649.861 278.075 649.721 277.368C649.393 275.815 648.831 274.356 647.895 273.038C647.334 272.19 646.631 271.484 645.836 270.919C644.244 269.837 642.465 269.319 640.546 269.225C639.914 269.189 639.282 269.233 638.65 269.278C638.44 269.292 638.229 269.307 638.018 269.319C637.176 269.366 636.38 269.601 635.584 269.884C634.18 270.401 633.01 271.249 632.027 272.379C631.465 272.991 630.997 273.697 630.669 274.45C630.295 275.25 630.014 276.05 629.78 276.851C629.405 278.028 629.265 279.204 629.171 280.428C629.125 281.134 629.125 281.793 629.171 282.5C629.171 283.002 629.213 283.504 629.255 284.006C629.275 284.257 629.296 284.508 629.312 284.759C629.359 285.654 629.593 286.548 629.874 287.395C630.295 288.855 630.95 290.126 631.933 291.255C632.776 292.244 633.806 292.997 635.023 293.562C636.333 294.127 637.738 294.409 639.142 294.457C640.125 294.504 641.061 294.457 642.044 294.362C642.653 294.315 643.261 294.221 643.823 294.08C644.946 293.797 646.023 293.421 647.006 292.809C647.849 292.291 648.644 291.632 649.3 290.832C649.393 290.738 649.393 290.643 649.3 290.549C649.066 290.314 648.831 290.09 648.597 289.867C648.363 289.643 648.129 289.42 647.895 289.184L646.351 287.631C646.14 287.795 645.941 287.96 645.742 288.125C645.543 288.29 645.344 288.455 645.134 288.619C643.823 289.655 642.278 290.173 640.593 290.22C639.891 290.267 639.142 290.126 638.44 289.984C637.644 289.796 636.895 289.467 636.286 288.949C635.257 288.054 634.695 286.877 634.367 285.606ZM645.04 279.722H634.086C634.133 279.298 634.133 278.875 634.133 278.451C634.156 278.358 634.18 278.263 634.203 278.168C634.321 277.685 634.445 277.181 634.601 276.709C635.163 275.203 636.146 274.073 637.691 273.603C639.236 273.132 640.78 273.226 642.231 274.026C643.261 274.591 643.916 275.485 644.338 276.521C644.572 277.133 644.759 277.792 644.899 278.451C644.962 278.734 644.983 279.016 645.003 279.298C645.014 279.44 645.024 279.581 645.04 279.722Z" fill="#183B56"/>
<path d="M574.731 269.212C576.527 269.212 578.371 269.212 580.215 269.212C580.215 269.304 580.215 269.35 580.168 269.442C579.695 270.683 579.222 271.971 578.749 273.213C578.371 274.133 578.04 275.098 577.662 276.018C577.095 277.536 576.48 279.053 575.913 280.617C575.487 281.721 575.062 282.824 574.636 283.928C574.069 285.446 573.454 287.009 572.887 288.527C572.462 289.677 572.036 290.827 571.563 291.976C571.043 293.356 570.523 294.736 569.956 296.115C569.483 297.311 569.058 298.507 568.49 299.656C567.734 301.22 566.41 302.278 564.661 302.692C564.188 302.784 563.716 302.83 563.243 302.876C562.581 302.922 561.919 302.876 561.257 302.876C560.501 302.876 559.792 302.876 558.988 302.876C558.988 301.45 558.988 299.978 558.988 298.461C559.224 298.461 559.413 298.461 559.65 298.461C560.453 298.461 561.21 298.461 562.014 298.461C563.29 298.415 564.425 297.725 564.85 296.529C565.37 295.196 565.843 293.816 566.316 292.436C566.41 292.16 566.221 291.976 566.174 291.746C565.796 290.689 565.418 289.677 565.039 288.665C564.519 287.239 563.952 285.814 563.432 284.388C562.77 282.686 562.155 280.985 561.494 279.283C560.879 277.628 560.217 275.972 559.603 274.317C559.035 272.753 558.421 271.189 557.853 269.626C557.806 269.58 557.806 269.488 557.759 269.396C559.461 269.396 561.21 269.396 562.912 269.396C563.054 269.396 563.101 269.488 563.101 269.58C563.385 270.408 563.668 271.235 563.952 272.063C564.567 273.765 565.134 275.466 565.748 277.168C566.316 278.777 566.883 280.387 567.45 282.043C567.923 283.376 568.396 284.71 568.869 286.044C568.869 286.09 568.916 286.136 568.963 286.182C570.949 280.433 572.84 274.822 574.731 269.212Z" fill="#183B56"/>
<path d="M621.324 293.071C621.324 292.981 621.324 292.846 621.324 292.757C621.324 287.898 621.324 283.084 621.324 278.226C621.324 277.011 620.957 275.886 620.131 274.896C619.442 274.042 618.478 273.592 617.422 273.502C616.917 273.457 616.412 273.412 615.907 273.457C614.576 273.592 613.428 274.087 612.648 275.211C612.097 275.976 611.821 276.831 611.684 277.776C611.638 278.091 611.638 278.405 611.638 278.72C611.638 283.399 611.638 288.033 611.638 292.712C611.638 292.802 611.638 292.891 611.638 293.026C609.985 293.026 608.332 293.026 606.679 293.026C606.679 285.154 606.679 277.281 606.679 269.408C608.24 269.408 609.801 269.408 611.408 269.408C611.408 270.173 611.408 270.938 611.408 271.792C611.729 271.522 612.005 271.252 612.326 271.028C613.428 270.218 614.622 269.678 615.999 269.408C616.917 269.228 617.835 269.183 618.754 269.228C619.809 269.273 620.865 269.498 621.829 269.948C622.794 270.398 623.62 271.028 624.354 271.792C625.089 272.647 625.64 273.637 625.915 274.761C626.145 275.661 626.237 276.561 626.237 277.461C626.237 279.035 626.283 280.61 626.283 282.184C626.283 285.064 626.329 287.943 626.329 290.822C626.329 291.542 626.329 292.307 626.329 293.071C624.584 293.071 622.977 293.071 621.324 293.071Z" fill="#183B56"/>
<path d="M582.819 259.387C584.534 259.387 586.202 259.387 587.917 259.387C587.917 259.479 587.917 259.57 587.917 259.662C587.917 268.593 587.917 277.479 587.917 286.364C587.917 287.097 588.102 287.83 588.658 288.379C588.983 288.7 589.4 288.883 589.863 288.883C590.605 288.883 591.3 288.929 592.041 288.929C592.227 288.929 592.459 288.929 592.644 288.883C592.644 290.257 592.644 291.631 592.644 293.051C592.505 293.051 592.459 293.051 592.366 293.051C591.161 293.051 590.002 293.097 588.797 293.051C587.454 293.005 586.249 292.593 585.229 291.769C583.978 290.807 583.283 289.479 583.005 287.967C582.866 287.234 582.819 286.456 582.819 285.723C582.819 277.021 582.819 268.364 582.819 259.662C582.819 259.616 582.819 259.525 582.819 259.387Z" fill="#183B56"/>
<path d="M596.855 269.212C598.503 269.212 600.059 269.212 601.661 269.212C601.661 277.165 601.661 285.118 601.661 293.071C600.059 293.071 598.457 293.071 596.855 293.071C596.855 285.118 596.855 277.165 596.855 269.212Z" fill="#183B56"/>
<path d="M601.661 265.001C600.059 265.001 598.457 265.001 596.855 265.001C596.855 263.147 596.855 261.293 596.855 259.387C598.457 259.387 600.059 259.387 601.661 259.387C601.661 261.241 601.661 263.096 601.661 265.001Z" fill="#183B56"/>
</g>
<g filter="url(#filter3_dd_1217_5914)">
<rect x="734.75" y="213.75" width="208" height="134" rx="24" fill="#7FA9B3"/>
<rect x="734.25" y="213.25" width="209" height="135" rx="24.5" stroke="#D6DCE5"/>
<path d="M904.999 268.628C905.182 268.825 905.32 269.022 905.503 269.269C905.641 269.466 905.778 269.614 905.915 269.811C906.099 270.009 906.282 270.255 906.42 270.452C906.557 270.65 906.741 270.847 906.878 271.044C907.061 271.291 907.245 271.537 907.427 271.784C907.611 272.03 907.748 272.228 907.932 272.474C908.115 272.671 908.253 272.869 908.436 273.066C908.573 273.263 908.711 273.411 908.848 273.608C909.032 273.855 909.261 274.102 909.445 274.348C909.627 274.545 909.766 274.792 909.948 274.989C910.087 275.186 910.269 275.334 910.408 275.531C910.499 275.63 910.545 275.729 910.636 275.827C910.728 275.975 910.866 276.074 910.957 276.222C911.048 276.32 911.14 276.468 911.232 276.567C911.324 276.666 911.461 276.814 911.508 276.962C911.645 277.159 911.828 277.307 911.966 277.553C912.057 277.701 912.194 277.8 912.287 277.948C912.47 278.194 912.699 278.49 912.882 278.737C912.973 278.885 913.111 278.983 913.203 279.131C913.34 279.328 913.478 279.476 913.615 279.674C913.707 279.822 913.845 279.92 913.936 280.068C914.073 280.265 914.212 280.463 914.349 280.66C914.487 280.857 914.67 281.054 914.852 281.252C914.991 281.4 915.082 281.547 915.173 281.695C915.312 281.843 915.266 281.991 915.128 282.139C914.945 282.386 914.761 282.632 914.533 282.879C914.394 283.076 914.212 283.273 914.073 283.421C913.891 283.619 913.752 283.865 913.57 284.062C913.431 284.26 913.249 284.457 913.111 284.654C912.928 284.851 912.791 285.098 912.652 285.295C912.515 285.492 912.331 285.69 912.194 285.887C912.103 286.035 911.966 286.183 911.873 286.331C911.736 286.528 911.599 286.676 911.461 286.873C911.324 287.021 911.232 287.169 911.094 287.317C910.911 287.563 910.682 287.81 910.499 288.057C910.361 288.254 910.178 288.451 910.04 288.648C909.857 288.846 909.673 289.092 909.536 289.289C909.445 289.437 909.306 289.585 909.215 289.733C909.078 289.93 908.894 290.128 908.757 290.325C908.62 290.522 908.436 290.719 908.299 290.917C908.069 291.163 907.885 291.459 907.657 291.706C907.427 292.001 907.199 292.297 906.969 292.593C906.785 292.79 906.603 293.037 906.465 293.234C906.327 293.432 906.19 293.629 906.006 293.826C905.869 294.023 905.686 294.221 905.548 294.418C905.411 294.615 905.227 294.812 905.09 295.01C905.09 295.01 905.044 295.01 904.999 295.059C904.999 286.281 904.999 277.504 904.999 268.727C904.953 268.628 904.999 268.628 904.999 268.628Z" fill="#183B56"/>
<path fill-rule="evenodd" clip-rule="evenodd" d="M765.9 269.502H761.25C761.25 280.603 761.25 291.749 761.341 302.896H766.174V291.204C766.312 291.369 766.467 291.501 766.618 291.63C766.717 291.714 766.813 291.796 766.903 291.886C767.587 292.523 768.408 293.023 769.274 293.342C770.505 293.797 771.736 293.797 773.012 293.706C773.833 293.66 774.653 293.524 775.474 293.296C776.34 293.069 777.115 292.705 777.753 292.113C778.802 291.158 779.486 289.975 779.942 288.656C780.352 287.427 780.626 286.199 780.717 284.88C780.808 283.97 780.899 283.06 780.899 282.15C780.899 281.149 780.854 280.103 780.808 279.102C780.762 278.465 780.671 277.828 780.58 277.191C780.443 276.372 780.261 275.553 780.033 274.734C779.714 273.642 779.212 272.687 778.483 271.822C777.89 271.094 777.206 270.548 776.386 270.184C775.748 269.866 775.064 269.684 774.38 269.502C773.24 269.229 772.1 269.138 770.961 269.275C770.094 269.366 769.228 269.638 768.453 270.002C767.678 270.412 766.949 270.912 766.31 271.549C766.174 271.64 766.037 271.777 765.9 271.913V269.502ZM775.656 278.283C775.884 279.284 775.975 280.375 775.884 281.422C775.884 281.58 775.887 281.74 775.89 281.902C775.898 282.394 775.907 282.899 775.839 283.378C775.702 284.743 775.52 286.153 774.836 287.382C774.243 288.474 773.377 289.156 772.146 289.338C771.553 289.429 770.961 289.475 770.368 289.429C769.274 289.338 768.316 288.883 767.633 287.973C766.949 287.109 766.584 286.108 766.356 285.062C766.265 284.47 766.174 283.833 766.128 283.242C766.117 283.014 766.102 282.787 766.088 282.559C766.045 281.877 766.003 281.194 766.037 280.512C766.082 278.92 766.31 277.327 767.131 275.871C767.815 274.643 768.818 273.87 770.231 273.642C770.961 273.551 771.69 273.506 772.419 273.779C773.377 274.097 774.106 274.734 774.653 275.598C775.155 276.417 775.474 277.327 775.656 278.283Z" fill="#183B56"/>
<path fill-rule="evenodd" clip-rule="evenodd" d="M798.561 292.161V294.286C800.174 294.286 801.742 294.286 803.356 294.333V276.909C803.356 276.012 803.218 275.114 802.895 274.217C802.295 272.564 801.189 271.337 799.667 270.487C798.745 269.967 797.777 269.684 796.716 269.495C795.656 269.353 794.595 269.212 793.535 269.212C793.074 269.212 792.613 269.212 792.152 269.259C791.737 269.259 791.368 269.259 790.953 269.353C789.939 269.542 788.924 269.778 788.002 270.203C786.711 270.77 785.605 271.526 784.774 272.659C784.682 272.801 784.728 272.848 784.821 272.942C785.005 273.084 785.189 273.273 785.374 273.462C785.651 273.745 785.939 274.017 786.227 274.288C786.515 274.56 786.803 274.831 787.08 275.114C787.195 275.209 787.299 275.315 787.403 275.421C787.506 275.528 787.61 275.634 787.725 275.728C787.818 275.823 787.91 275.87 788.048 275.728C788.202 275.539 788.356 275.392 788.509 275.246C788.586 275.172 788.663 275.099 788.74 275.02C789.293 274.501 789.939 274.123 790.63 273.887C791.598 273.509 792.613 273.367 793.673 273.509C794.457 273.603 795.241 273.698 795.979 273.981C797.085 274.406 797.869 275.114 798.192 276.295C798.324 276.746 798.372 277.24 798.416 277.694C798.418 277.716 798.42 277.737 798.422 277.759C798.453 278.196 798.443 278.633 798.433 279.084C798.428 279.315 798.422 279.55 798.422 279.789H798.284C796.025 279.789 793.719 279.789 791.414 279.837C790.953 279.837 790.492 279.884 790.031 279.931C788.832 280.073 787.725 280.498 786.711 281.159C785.466 281.961 784.544 283.047 784.083 284.511C783.76 285.503 783.622 286.542 783.76 287.581C783.806 287.84 783.841 288.112 783.875 288.383C783.91 288.655 783.945 288.926 783.991 289.186C784.221 290.225 784.636 291.169 785.328 291.972C785.973 292.775 786.803 293.342 787.725 293.767C788.832 294.239 789.939 294.475 791.091 294.475C791.921 294.475 792.751 294.428 793.581 294.333C794.181 294.286 794.78 294.192 795.379 294.05C796.163 293.861 796.855 293.389 797.546 292.917C797.869 292.681 798.192 292.444 798.561 292.161ZM798.468 283.331V285.786C798.422 286.4 798.376 287.014 798.238 287.628C798.1 288.242 797.685 288.714 797.224 289.139C796.532 289.753 795.748 290.083 794.872 290.225C794.273 290.32 793.673 290.414 793.074 290.32C792.843 290.296 792.613 290.284 792.382 290.272C792.152 290.261 791.921 290.249 791.691 290.225C790.861 290.131 790.031 289.895 789.385 289.281C789.016 288.903 788.74 288.431 788.648 287.864C788.509 287.156 788.463 286.447 788.694 285.739C788.97 284.936 789.477 284.417 790.169 283.992C790.953 283.52 791.829 283.331 792.751 283.331H798.468Z" fill="#183B56"/>
<path fill-rule="evenodd" clip-rule="evenodd" d="M881.367 285.606C881.18 284.9 881.086 284.194 880.993 283.441C886.376 283.441 891.665 283.441 897.095 283.394C897.099 283.354 897.103 283.314 897.106 283.275C897.149 282.803 897.189 282.365 897.189 281.888C897.189 281.716 897.176 281.558 897.164 281.406C897.153 281.265 897.142 281.129 897.142 280.993C897.142 280.475 897.095 279.958 897.049 279.44C896.955 278.734 896.861 278.075 896.721 277.368C896.393 275.815 895.831 274.356 894.895 273.038C894.334 272.19 893.631 271.484 892.836 270.919C891.244 269.837 889.465 269.319 887.546 269.225C886.914 269.189 886.282 269.233 885.65 269.278C885.44 269.292 885.229 269.307 885.018 269.319C884.176 269.366 883.38 269.601 882.584 269.884C881.18 270.401 880.01 271.249 879.027 272.379C878.465 272.991 877.997 273.697 877.669 274.45C877.295 275.25 877.014 276.05 876.78 276.851C876.405 278.028 876.265 279.204 876.171 280.428C876.125 281.134 876.125 281.793 876.171 282.5C876.171 283.002 876.213 283.504 876.255 284.006C876.275 284.257 876.296 284.508 876.312 284.759C876.359 285.654 876.593 286.548 876.874 287.395C877.295 288.855 877.95 290.126 878.933 291.255C879.776 292.244 880.806 292.997 882.023 293.562C883.333 294.127 884.738 294.409 886.142 294.457C887.125 294.504 888.061 294.457 889.044 294.362C889.653 294.315 890.261 294.221 890.823 294.08C891.946 293.797 893.023 293.421 894.006 292.809C894.849 292.291 895.644 291.632 896.3 290.832C896.393 290.738 896.393 290.643 896.3 290.549C896.066 290.314 895.831 290.09 895.597 289.867C895.363 289.643 895.129 289.42 894.895 289.184L893.351 287.631C893.14 287.795 892.941 287.96 892.742 288.125C892.543 288.29 892.344 288.455 892.134 288.619C890.823 289.655 889.278 290.173 887.593 290.22C886.891 290.267 886.142 290.126 885.44 289.984C884.644 289.796 883.895 289.467 883.286 288.949C882.257 288.054 881.695 286.877 881.367 285.606ZM892.04 279.722H881.086C881.133 279.298 881.133 278.875 881.133 278.451C881.156 278.358 881.18 278.263 881.203 278.168C881.321 277.685 881.445 277.181 881.601 276.709C882.163 275.203 883.146 274.073 884.691 273.603C886.236 273.132 887.78 273.226 889.231 274.026C890.261 274.591 890.916 275.485 891.338 276.521C891.572 277.133 891.759 277.792 891.899 278.451C891.962 278.734 891.983 279.016 892.003 279.298C892.014 279.44 892.024 279.581 892.04 279.722Z" fill="#183B56"/>
<path d="M821.731 269.212C823.527 269.212 825.371 269.212 827.215 269.212C827.215 269.304 827.215 269.35 827.168 269.442C826.695 270.683 826.222 271.971 825.749 273.213C825.371 274.133 825.04 275.098 824.662 276.018C824.095 277.536 823.48 279.053 822.913 280.617C822.487 281.721 822.062 282.824 821.636 283.928C821.069 285.446 820.454 287.009 819.887 288.527C819.462 289.677 819.036 290.827 818.563 291.976C818.043 293.356 817.523 294.736 816.956 296.115C816.483 297.311 816.058 298.507 815.49 299.656C814.734 301.22 813.41 302.278 811.661 302.692C811.188 302.784 810.716 302.83 810.243 302.876C809.581 302.922 808.919 302.876 808.257 302.876C807.501 302.876 806.792 302.876 805.988 302.876C805.988 301.45 805.988 299.978 805.988 298.461C806.224 298.461 806.413 298.461 806.65 298.461C807.453 298.461 808.21 298.461 809.014 298.461C810.29 298.415 811.425 297.725 811.85 296.529C812.37 295.196 812.843 293.816 813.316 292.436C813.41 292.16 813.221 291.976 813.174 291.746C812.796 290.689 812.418 289.677 812.039 288.665C811.519 287.239 810.952 285.814 810.432 284.388C809.77 282.686 809.155 280.985 808.494 279.283C807.879 277.628 807.217 275.972 806.603 274.317C806.035 272.753 805.421 271.189 804.853 269.626C804.806 269.58 804.806 269.488 804.759 269.396C806.461 269.396 808.21 269.396 809.912 269.396C810.054 269.396 810.101 269.488 810.101 269.58C810.385 270.408 810.668 271.235 810.952 272.063C811.567 273.765 812.134 275.466 812.748 277.168C813.316 278.777 813.883 280.387 814.45 282.043C814.923 283.376 815.396 284.71 815.869 286.044C815.869 286.09 815.916 286.136 815.963 286.182C817.949 280.433 819.84 274.822 821.731 269.212Z" fill="#183B56"/>
<path d="M868.324 293.071C868.324 292.981 868.324 292.846 868.324 292.757C868.324 287.898 868.324 283.084 868.324 278.226C868.324 277.011 867.957 275.886 867.131 274.896C866.442 274.042 865.478 273.592 864.422 273.502C863.917 273.457 863.412 273.412 862.907 273.457C861.576 273.592 860.428 274.087 859.648 275.211C859.097 275.976 858.821 276.831 858.684 277.776C858.638 278.091 858.638 278.405 858.638 278.72C858.638 283.399 858.638 288.033 858.638 292.712C858.638 292.802 858.638 292.891 858.638 293.026C856.985 293.026 855.332 293.026 853.679 293.026C853.679 285.154 853.679 277.281 853.679 269.408C855.24 269.408 856.801 269.408 858.408 269.408C858.408 270.173 858.408 270.938 858.408 271.792C858.729 271.522 859.005 271.252 859.326 271.028C860.428 270.218 861.622 269.678 862.999 269.408C863.917 269.228 864.835 269.183 865.754 269.228C866.809 269.273 867.865 269.498 868.829 269.948C869.794 270.398 870.62 271.028 871.354 271.792C872.089 272.647 872.64 273.637 872.915 274.761C873.145 275.661 873.237 276.561 873.237 277.461C873.237 279.035 873.283 280.61 873.283 282.184C873.283 285.064 873.329 287.943 873.329 290.822C873.329 291.542 873.329 292.307 873.329 293.071C871.584 293.071 869.977 293.071 868.324 293.071Z" fill="#183B56"/>
<path d="M829.819 259.387C831.534 259.387 833.202 259.387 834.917 259.387C834.917 259.479 834.917 259.57 834.917 259.662C834.917 268.593 834.917 277.479 834.917 286.364C834.917 287.097 835.102 287.83 835.658 288.379C835.983 288.7 836.4 288.883 836.863 288.883C837.605 288.883 838.3 288.929 839.041 288.929C839.227 288.929 839.459 288.929 839.644 288.883C839.644 290.257 839.644 291.631 839.644 293.051C839.505 293.051 839.459 293.051 839.366 293.051C838.161 293.051 837.002 293.097 835.797 293.051C834.454 293.005 833.249 292.593 832.229 291.769C830.978 290.807 830.283 289.479 830.005 287.967C829.866 287.234 829.819 286.456 829.819 285.723C829.819 277.021 829.819 268.364 829.819 259.662C829.819 259.616 829.819 259.525 829.819 259.387Z" fill="#183B56"/>
<path d="M843.855 269.212C845.503 269.212 847.059 269.212 848.661 269.212C848.661 277.165 848.661 285.118 848.661 293.071C847.059 293.071 845.457 293.071 843.855 293.071C843.855 285.118 843.855 277.165 843.855 269.212Z" fill="#183B56"/>
<path d="M848.661 265.001C847.059 265.001 845.457 265.001 843.855 265.001C843.855 263.147 843.855 261.293 843.855 259.387C845.457 259.387 847.059 259.387 848.661 259.387C848.661 261.241 848.661 263.096 848.661 265.001Z" fill="#183B56"/>
</g>
<g filter="url(#filter4_dd_1217_5914)">
<rect x="982.75" y="213.75" width="208" height="134" rx="24" fill="#F1F5F6"/>
<rect x="982.25" y="213.25" width="209" height="135" rx="24.5" stroke="#D6DCE5"/>
<path d="M1153 268.628C1153.18 268.825 1153.32 269.022 1153.5 269.269C1153.64 269.466 1153.78 269.614 1153.92 269.811C1154.1 270.009 1154.28 270.255 1154.42 270.452C1154.56 270.65 1154.74 270.847 1154.88 271.044C1155.06 271.291 1155.25 271.537 1155.43 271.784C1155.61 272.03 1155.75 272.228 1155.93 272.474C1156.12 272.671 1156.25 272.869 1156.44 273.066C1156.57 273.263 1156.71 273.411 1156.85 273.608C1157.03 273.855 1157.26 274.102 1157.44 274.348C1157.63 274.545 1157.77 274.792 1157.95 274.989C1158.09 275.186 1158.27 275.334 1158.41 275.531C1158.5 275.63 1158.54 275.729 1158.64 275.827C1158.73 275.975 1158.87 276.074 1158.96 276.222C1159.05 276.32 1159.14 276.468 1159.23 276.567C1159.32 276.666 1159.46 276.814 1159.51 276.962C1159.64 277.159 1159.83 277.307 1159.97 277.553C1160.06 277.701 1160.19 277.8 1160.29 277.948C1160.47 278.194 1160.7 278.49 1160.88 278.737C1160.97 278.885 1161.11 278.983 1161.2 279.131C1161.34 279.328 1161.48 279.476 1161.61 279.674C1161.71 279.822 1161.84 279.92 1161.94 280.068C1162.07 280.265 1162.21 280.463 1162.35 280.66C1162.49 280.857 1162.67 281.054 1162.85 281.252C1162.99 281.4 1163.08 281.547 1163.17 281.695C1163.31 281.843 1163.27 281.991 1163.13 282.139C1162.94 282.386 1162.76 282.632 1162.53 282.879C1162.39 283.076 1162.21 283.273 1162.07 283.421C1161.89 283.619 1161.75 283.865 1161.57 284.062C1161.43 284.26 1161.25 284.457 1161.11 284.654C1160.93 284.851 1160.79 285.098 1160.65 285.295C1160.52 285.492 1160.33 285.69 1160.19 285.887C1160.1 286.035 1159.97 286.183 1159.87 286.331C1159.74 286.528 1159.6 286.676 1159.46 286.873C1159.32 287.021 1159.23 287.169 1159.09 287.317C1158.91 287.563 1158.68 287.81 1158.5 288.057C1158.36 288.254 1158.18 288.451 1158.04 288.648C1157.86 288.846 1157.67 289.092 1157.54 289.289C1157.44 289.437 1157.31 289.585 1157.22 289.733C1157.08 289.93 1156.89 290.128 1156.76 290.325C1156.62 290.522 1156.44 290.719 1156.3 290.917C1156.07 291.163 1155.89 291.459 1155.66 291.706C1155.43 292.001 1155.2 292.297 1154.97 292.593C1154.79 292.79 1154.6 293.037 1154.46 293.234C1154.33 293.432 1154.19 293.629 1154.01 293.826C1153.87 294.023 1153.69 294.221 1153.55 294.418C1153.41 294.615 1153.23 294.812 1153.09 295.01C1153.09 295.01 1153.04 295.01 1153 295.059C1153 286.281 1153 277.504 1153 268.727C1152.95 268.628 1153 268.628 1153 268.628Z" fill="#7FA9B3"/>
<path fill-rule="evenodd" clip-rule="evenodd" d="M1013.9 269.502H1009.25C1009.25 280.603 1009.25 291.749 1009.34 302.896H1014.17V291.204C1014.31 291.369 1014.47 291.501 1014.62 291.63C1014.72 291.714 1014.81 291.796 1014.9 291.886C1015.59 292.523 1016.41 293.023 1017.27 293.342C1018.5 293.797 1019.74 293.797 1021.01 293.706C1021.83 293.66 1022.65 293.524 1023.47 293.296C1024.34 293.069 1025.12 292.705 1025.75 292.113C1026.8 291.158 1027.49 289.975 1027.94 288.656C1028.35 287.427 1028.63 286.199 1028.72 284.88C1028.81 283.97 1028.9 283.06 1028.9 282.15C1028.9 281.149 1028.85 280.103 1028.81 279.102C1028.76 278.465 1028.67 277.828 1028.58 277.191C1028.44 276.372 1028.26 275.553 1028.03 274.734C1027.71 273.642 1027.21 272.687 1026.48 271.822C1025.89 271.094 1025.21 270.548 1024.39 270.184C1023.75 269.866 1023.06 269.684 1022.38 269.502C1021.24 269.229 1020.1 269.138 1018.96 269.275C1018.09 269.366 1017.23 269.638 1016.45 270.002C1015.68 270.412 1014.95 270.912 1014.31 271.549C1014.17 271.64 1014.04 271.777 1013.9 271.913V269.502ZM1023.66 278.283C1023.88 279.284 1023.98 280.375 1023.88 281.422C1023.88 281.58 1023.89 281.74 1023.89 281.902C1023.9 282.394 1023.91 282.899 1023.84 283.378C1023.7 284.743 1023.52 286.153 1022.84 287.382C1022.24 288.474 1021.38 289.156 1020.15 289.338C1019.55 289.429 1018.96 289.475 1018.37 289.429C1017.27 289.338 1016.32 288.883 1015.63 287.973C1014.95 287.109 1014.58 286.108 1014.36 285.062C1014.26 284.47 1014.17 283.833 1014.13 283.242C1014.12 283.014 1014.1 282.787 1014.09 282.559C1014.05 281.877 1014 281.194 1014.04 280.512C1014.08 278.92 1014.31 277.327 1015.13 275.871C1015.81 274.643 1016.82 273.87 1018.23 273.642C1018.96 273.551 1019.69 273.506 1020.42 273.779C1021.38 274.097 1022.11 274.734 1022.65 275.598C1023.15 276.417 1023.47 277.327 1023.66 278.283Z" fill="#183B56"/>
<path fill-rule="evenodd" clip-rule="evenodd" d="M1046.56 292.161V294.286C1048.17 294.286 1049.74 294.286 1051.36 294.333V276.909C1051.36 276.012 1051.22 275.114 1050.89 274.217C1050.3 272.564 1049.19 271.337 1047.67 270.487C1046.75 269.967 1045.78 269.684 1044.72 269.495C1043.66 269.353 1042.6 269.212 1041.53 269.212C1041.07 269.212 1040.61 269.212 1040.15 269.259C1039.74 269.259 1039.37 269.259 1038.95 269.353C1037.94 269.542 1036.92 269.778 1036 270.203C1034.71 270.77 1033.6 271.526 1032.77 272.659C1032.68 272.801 1032.73 272.848 1032.82 272.942C1033.01 273.084 1033.19 273.273 1033.37 273.462C1033.65 273.745 1033.94 274.017 1034.23 274.288C1034.52 274.56 1034.8 274.831 1035.08 275.114C1035.2 275.209 1035.3 275.315 1035.4 275.421C1035.51 275.528 1035.61 275.634 1035.73 275.728C1035.82 275.823 1035.91 275.87 1036.05 275.728C1036.2 275.539 1036.36 275.392 1036.51 275.246C1036.59 275.172 1036.66 275.099 1036.74 275.02C1037.29 274.501 1037.94 274.123 1038.63 273.887C1039.6 273.509 1040.61 273.367 1041.67 273.509C1042.46 273.603 1043.24 273.698 1043.98 273.981C1045.09 274.406 1045.87 275.114 1046.19 276.295C1046.32 276.746 1046.37 277.24 1046.42 277.694C1046.42 277.716 1046.42 277.737 1046.42 277.759C1046.45 278.196 1046.44 278.633 1046.43 279.084C1046.43 279.315 1046.42 279.55 1046.42 279.789H1046.28C1044.02 279.789 1041.72 279.789 1039.41 279.837C1038.95 279.837 1038.49 279.884 1038.03 279.931C1036.83 280.073 1035.73 280.498 1034.71 281.159C1033.47 281.961 1032.54 283.047 1032.08 284.511C1031.76 285.503 1031.62 286.542 1031.76 287.581C1031.81 287.84 1031.84 288.112 1031.88 288.383C1031.91 288.655 1031.94 288.926 1031.99 289.186C1032.22 290.225 1032.64 291.169 1033.33 291.972C1033.97 292.775 1034.8 293.342 1035.73 293.767C1036.83 294.239 1037.94 294.475 1039.09 294.475C1039.92 294.475 1040.75 294.428 1041.58 294.333C1042.18 294.286 1042.78 294.192 1043.38 294.05C1044.16 293.861 1044.85 293.389 1045.55 292.917C1045.87 292.681 1046.19 292.444 1046.56 292.161ZM1046.47 283.331V285.786C1046.42 286.4 1046.38 287.014 1046.24 287.628C1046.1 288.242 1045.68 288.714 1045.22 289.139C1044.53 289.753 1043.75 290.083 1042.87 290.225C1042.27 290.32 1041.67 290.414 1041.07 290.32C1040.84 290.296 1040.61 290.284 1040.38 290.272C1040.15 290.261 1039.92 290.249 1039.69 290.225C1038.86 290.131 1038.03 289.895 1037.39 289.281C1037.02 288.903 1036.74 288.431 1036.65 287.864C1036.51 287.156 1036.46 286.447 1036.69 285.739C1036.97 284.936 1037.48 284.417 1038.17 283.992C1038.95 283.52 1039.83 283.331 1040.75 283.331H1046.47Z" fill="#183B56"/>
<path fill-rule="evenodd" clip-rule="evenodd" d="M1129.37 285.606C1129.18 284.9 1129.09 284.194 1128.99 283.441C1134.38 283.441 1139.67 283.441 1145.1 283.394C1145.1 283.354 1145.1 283.314 1145.11 283.275C1145.15 282.803 1145.19 282.365 1145.19 281.888C1145.19 281.716 1145.18 281.558 1145.16 281.406C1145.15 281.265 1145.14 281.129 1145.14 280.993C1145.14 280.475 1145.1 279.958 1145.05 279.44C1144.95 278.734 1144.86 278.075 1144.72 277.368C1144.39 275.815 1143.83 274.356 1142.9 273.038C1142.33 272.19 1141.63 271.484 1140.84 270.919C1139.24 269.837 1137.47 269.319 1135.55 269.225C1134.91 269.189 1134.28 269.233 1133.65 269.278C1133.44 269.292 1133.23 269.307 1133.02 269.319C1132.18 269.366 1131.38 269.601 1130.58 269.884C1129.18 270.401 1128.01 271.249 1127.03 272.379C1126.47 272.991 1126 273.697 1125.67 274.45C1125.29 275.25 1125.01 276.05 1124.78 276.851C1124.41 278.028 1124.27 279.204 1124.17 280.428C1124.12 281.134 1124.12 281.793 1124.17 282.5C1124.17 283.002 1124.21 283.504 1124.25 284.006C1124.28 284.257 1124.3 284.508 1124.31 284.759C1124.36 285.654 1124.59 286.548 1124.87 287.395C1125.29 288.855 1125.95 290.126 1126.93 291.255C1127.78 292.244 1128.81 292.997 1130.02 293.562C1131.33 294.127 1132.74 294.409 1134.14 294.457C1135.12 294.504 1136.06 294.457 1137.04 294.362C1137.65 294.315 1138.26 294.221 1138.82 294.08C1139.95 293.797 1141.02 293.421 1142.01 292.809C1142.85 292.291 1143.64 291.632 1144.3 290.832C1144.39 290.738 1144.39 290.643 1144.3 290.549C1144.07 290.314 1143.83 290.09 1143.6 289.867C1143.36 289.643 1143.13 289.42 1142.9 289.184L1141.35 287.631C1141.14 287.795 1140.94 287.96 1140.74 288.125C1140.54 288.29 1140.34 288.455 1140.13 288.619C1138.82 289.655 1137.28 290.173 1135.59 290.22C1134.89 290.267 1134.14 290.126 1133.44 289.984C1132.64 289.796 1131.9 289.467 1131.29 288.949C1130.26 288.054 1129.7 286.877 1129.37 285.606ZM1140.04 279.722H1129.09C1129.13 279.298 1129.13 278.875 1129.13 278.451C1129.16 278.358 1129.18 278.263 1129.2 278.168C1129.32 277.685 1129.45 277.181 1129.6 276.709C1130.16 275.203 1131.15 274.073 1132.69 273.603C1134.24 273.132 1135.78 273.226 1137.23 274.026C1138.26 274.591 1138.92 275.485 1139.34 276.521C1139.57 277.133 1139.76 277.792 1139.9 278.451C1139.96 278.734 1139.98 279.016 1140 279.298C1140.01 279.44 1140.02 279.581 1140.04 279.722Z" fill="#183B56"/>
<path d="M1069.73 269.212C1071.53 269.212 1073.37 269.212 1075.21 269.212C1075.21 269.304 1075.21 269.35 1075.17 269.442C1074.69 270.683 1074.22 271.971 1073.75 273.213C1073.37 274.133 1073.04 275.098 1072.66 276.018C1072.09 277.536 1071.48 279.053 1070.91 280.617C1070.49 281.721 1070.06 282.824 1069.64 283.928C1069.07 285.446 1068.45 287.009 1067.89 288.527C1067.46 289.677 1067.04 290.827 1066.56 291.976C1066.04 293.356 1065.52 294.736 1064.96 296.115C1064.48 297.311 1064.06 298.507 1063.49 299.656C1062.73 301.22 1061.41 302.278 1059.66 302.692C1059.19 302.784 1058.72 302.83 1058.24 302.876C1057.58 302.922 1056.92 302.876 1056.26 302.876C1055.5 302.876 1054.79 302.876 1053.99 302.876C1053.99 301.45 1053.99 299.978 1053.99 298.461C1054.22 298.461 1054.41 298.461 1054.65 298.461C1055.45 298.461 1056.21 298.461 1057.01 298.461C1058.29 298.415 1059.42 297.725 1059.85 296.529C1060.37 295.196 1060.84 293.816 1061.32 292.436C1061.41 292.16 1061.22 291.976 1061.17 291.746C1060.8 290.689 1060.42 289.677 1060.04 288.665C1059.52 287.239 1058.95 285.814 1058.43 284.388C1057.77 282.686 1057.16 280.985 1056.49 279.283C1055.88 277.628 1055.22 275.972 1054.6 274.317C1054.04 272.753 1053.42 271.189 1052.85 269.626C1052.81 269.58 1052.81 269.488 1052.76 269.396C1054.46 269.396 1056.21 269.396 1057.91 269.396C1058.05 269.396 1058.1 269.488 1058.1 269.58C1058.38 270.408 1058.67 271.235 1058.95 272.063C1059.57 273.765 1060.13 275.466 1060.75 277.168C1061.32 278.777 1061.88 280.387 1062.45 282.043C1062.92 283.376 1063.4 284.71 1063.87 286.044C1063.87 286.09 1063.92 286.136 1063.96 286.182C1065.95 280.433 1067.84 274.822 1069.73 269.212Z" fill="#183B56"/>
<path d="M1116.32 293.071C1116.32 292.981 1116.32 292.846 1116.32 292.757C1116.32 287.898 1116.32 283.084 1116.32 278.226C1116.32 277.011 1115.96 275.886 1115.13 274.896C1114.44 274.042 1113.48 273.592 1112.42 273.502C1111.92 273.457 1111.41 273.412 1110.91 273.457C1109.58 273.592 1108.43 274.087 1107.65 275.211C1107.1 275.976 1106.82 276.831 1106.68 277.776C1106.64 278.091 1106.64 278.405 1106.64 278.72C1106.64 283.399 1106.64 288.033 1106.64 292.712C1106.64 292.802 1106.64 292.891 1106.64 293.026C1104.98 293.026 1103.33 293.026 1101.68 293.026C1101.68 285.154 1101.68 277.281 1101.68 269.408C1103.24 269.408 1104.8 269.408 1106.41 269.408C1106.41 270.173 1106.41 270.938 1106.41 271.792C1106.73 271.522 1107 271.252 1107.33 271.028C1108.43 270.218 1109.62 269.678 1111 269.408C1111.92 269.228 1112.84 269.183 1113.75 269.228C1114.81 269.273 1115.87 269.498 1116.83 269.948C1117.79 270.398 1118.62 271.028 1119.35 271.792C1120.09 272.647 1120.64 273.637 1120.92 274.761C1121.14 275.661 1121.24 276.561 1121.24 277.461C1121.24 279.035 1121.28 280.61 1121.28 282.184C1121.28 285.064 1121.33 287.943 1121.33 290.822C1121.33 291.542 1121.33 292.307 1121.33 293.071C1119.58 293.071 1117.98 293.071 1116.32 293.071Z" fill="#183B56"/>
<path d="M1077.82 259.387C1079.53 259.387 1081.2 259.387 1082.92 259.387C1082.92 259.479 1082.92 259.57 1082.92 259.662C1082.92 268.593 1082.92 277.479 1082.92 286.364C1082.92 287.097 1083.1 287.83 1083.66 288.379C1083.98 288.7 1084.4 288.883 1084.86 288.883C1085.6 288.883 1086.3 288.929 1087.04 288.929C1087.23 288.929 1087.46 288.929 1087.64 288.883C1087.64 290.257 1087.64 291.631 1087.64 293.051C1087.5 293.051 1087.46 293.051 1087.37 293.051C1086.16 293.051 1085 293.097 1083.8 293.051C1082.45 293.005 1081.25 292.593 1080.23 291.769C1078.98 290.807 1078.28 289.479 1078 287.967C1077.87 287.234 1077.82 286.456 1077.82 285.723C1077.82 277.021 1077.82 268.364 1077.82 259.662C1077.82 259.616 1077.82 259.525 1077.82 259.387Z" fill="#183B56"/>
<path d="M1091.86 269.212C1093.5 269.212 1095.06 269.212 1096.66 269.212C1096.66 277.165 1096.66 285.118 1096.66 293.071C1095.06 293.071 1093.46 293.071 1091.86 293.071C1091.86 285.118 1091.86 277.165 1091.86 269.212Z" fill="#183B56"/>
<path d="M1096.66 265.001C1095.06 265.001 1093.46 265.001 1091.86 265.001C1091.86 263.147 1091.86 261.293 1091.86 259.387C1093.46 259.387 1095.06 259.387 1096.66 259.387C1096.66 261.241 1096.66 263.096 1096.66 265.001Z" fill="#183B56"/>
</g>
<g filter="url(#filter5_dd_1217_5914)">
<rect x="1230.75" y="213.75" width="208" height="134" rx="24" fill="#393652"/>
<rect x="1230.25" y="213.25" width="209" height="135" rx="24.5" stroke="#D6DCE5"/>
<path d="M1401 268.628C1401.18 268.825 1401.32 269.022 1401.5 269.269C1401.64 269.466 1401.78 269.614 1401.92 269.811C1402.1 270.009 1402.28 270.255 1402.42 270.452C1402.56 270.65 1402.74 270.847 1402.88 271.044C1403.06 271.291 1403.25 271.537 1403.43 271.784C1403.61 272.03 1403.75 272.228 1403.93 272.474C1404.12 272.671 1404.25 272.869 1404.44 273.066C1404.57 273.263 1404.71 273.411 1404.85 273.608C1405.03 273.855 1405.26 274.102 1405.44 274.348C1405.63 274.545 1405.77 274.792 1405.95 274.989C1406.09 275.186 1406.27 275.334 1406.41 275.531C1406.5 275.63 1406.54 275.729 1406.64 275.827C1406.73 275.975 1406.87 276.074 1406.96 276.222C1407.05 276.32 1407.14 276.468 1407.23 276.567C1407.32 276.666 1407.46 276.814 1407.51 276.962C1407.64 277.159 1407.83 277.307 1407.97 277.553C1408.06 277.701 1408.19 277.8 1408.29 277.948C1408.47 278.194 1408.7 278.49 1408.88 278.737C1408.97 278.885 1409.11 278.983 1409.2 279.131C1409.34 279.328 1409.48 279.476 1409.61 279.674C1409.71 279.822 1409.84 279.92 1409.94 280.068C1410.07 280.265 1410.21 280.463 1410.35 280.66C1410.49 280.857 1410.67 281.054 1410.85 281.252C1410.99 281.4 1411.08 281.547 1411.17 281.695C1411.31 281.843 1411.27 281.991 1411.13 282.139C1410.94 282.386 1410.76 282.632 1410.53 282.879C1410.39 283.076 1410.21 283.273 1410.07 283.421C1409.89 283.619 1409.75 283.865 1409.57 284.062C1409.43 284.26 1409.25 284.457 1409.11 284.654C1408.93 284.851 1408.79 285.098 1408.65 285.295C1408.52 285.492 1408.33 285.69 1408.19 285.887C1408.1 286.035 1407.97 286.183 1407.87 286.331C1407.74 286.528 1407.6 286.676 1407.46 286.873C1407.32 287.021 1407.23 287.169 1407.09 287.317C1406.91 287.563 1406.68 287.81 1406.5 288.057C1406.36 288.254 1406.18 288.451 1406.04 288.648C1405.86 288.846 1405.67 289.092 1405.54 289.289C1405.44 289.437 1405.31 289.585 1405.22 289.733C1405.08 289.93 1404.89 290.128 1404.76 290.325C1404.62 290.522 1404.44 290.719 1404.3 290.917C1404.07 291.163 1403.89 291.459 1403.66 291.706C1403.43 292.001 1403.2 292.297 1402.97 292.593C1402.79 292.79 1402.6 293.037 1402.46 293.234C1402.33 293.432 1402.19 293.629 1402.01 293.826C1401.87 294.023 1401.69 294.221 1401.55 294.418C1401.41 294.615 1401.23 294.812 1401.09 295.01C1401.09 295.01 1401.04 295.01 1401 295.059C1401 286.281 1401 277.504 1401 268.727C1400.95 268.628 1401 268.628 1401 268.628Z" fill="white"/>
<path fill-rule="evenodd" clip-rule="evenodd" d="M1261.9 269.502H1257.25C1257.25 280.603 1257.25 291.749 1257.34 302.896H1262.17V291.204C1262.31 291.369 1262.47 291.501 1262.62 291.63C1262.72 291.714 1262.81 291.796 1262.9 291.886C1263.59 292.523 1264.41 293.023 1265.27 293.342C1266.5 293.797 1267.74 293.797 1269.01 293.706C1269.83 293.66 1270.65 293.524 1271.47 293.296C1272.34 293.069 1273.12 292.705 1273.75 292.113C1274.8 291.158 1275.49 289.975 1275.94 288.656C1276.35 287.427 1276.63 286.199 1276.72 284.88C1276.81 283.97 1276.9 283.06 1276.9 282.15C1276.9 281.149 1276.85 280.103 1276.81 279.102C1276.76 278.465 1276.67 277.828 1276.58 277.191C1276.44 276.372 1276.26 275.553 1276.03 274.734C1275.71 273.642 1275.21 272.687 1274.48 271.822C1273.89 271.094 1273.21 270.548 1272.39 270.184C1271.75 269.866 1271.06 269.684 1270.38 269.502C1269.24 269.229 1268.1 269.138 1266.96 269.275C1266.09 269.366 1265.23 269.638 1264.45 270.002C1263.68 270.412 1262.95 270.912 1262.31 271.549C1262.17 271.64 1262.04 271.777 1261.9 271.913V269.502ZM1271.66 278.283C1271.88 279.284 1271.98 280.375 1271.88 281.422C1271.88 281.58 1271.89 281.74 1271.89 281.902C1271.9 282.394 1271.91 282.899 1271.84 283.378C1271.7 284.743 1271.52 286.153 1270.84 287.382C1270.24 288.474 1269.38 289.156 1268.15 289.338C1267.55 289.429 1266.96 289.475 1266.37 289.429C1265.27 289.338 1264.32 288.883 1263.63 287.973C1262.95 287.109 1262.58 286.108 1262.36 285.062C1262.26 284.47 1262.17 283.833 1262.13 283.242C1262.12 283.014 1262.1 282.787 1262.09 282.559C1262.05 281.877 1262 281.194 1262.04 280.512C1262.08 278.92 1262.31 277.327 1263.13 275.871C1263.81 274.643 1264.82 273.87 1266.23 273.642C1266.96 273.551 1267.69 273.506 1268.42 273.779C1269.38 274.097 1270.11 274.734 1270.65 275.598C1271.15 276.417 1271.47 277.327 1271.66 278.283Z" fill="white"/>
<path fill-rule="evenodd" clip-rule="evenodd" d="M1294.56 292.161V294.286C1296.17 294.286 1297.74 294.286 1299.36 294.333V276.909C1299.36 276.012 1299.22 275.114 1298.89 274.217C1298.3 272.564 1297.19 271.337 1295.67 270.487C1294.75 269.967 1293.78 269.684 1292.72 269.495C1291.66 269.353 1290.6 269.212 1289.53 269.212C1289.07 269.212 1288.61 269.212 1288.15 269.259C1287.74 269.259 1287.37 269.259 1286.95 269.353C1285.94 269.542 1284.92 269.778 1284 270.203C1282.71 270.77 1281.6 271.526 1280.77 272.659C1280.68 272.801 1280.73 272.848 1280.82 272.942C1281.01 273.084 1281.19 273.273 1281.37 273.462C1281.65 273.745 1281.94 274.017 1282.23 274.288C1282.52 274.56 1282.8 274.831 1283.08 275.114C1283.2 275.209 1283.3 275.315 1283.4 275.421C1283.51 275.528 1283.61 275.634 1283.73 275.728C1283.82 275.823 1283.91 275.87 1284.05 275.728C1284.2 275.539 1284.36 275.392 1284.51 275.246C1284.59 275.172 1284.66 275.099 1284.74 275.02C1285.29 274.501 1285.94 274.123 1286.63 273.887C1287.6 273.509 1288.61 273.367 1289.67 273.509C1290.46 273.603 1291.24 273.698 1291.98 273.981C1293.09 274.406 1293.87 275.114 1294.19 276.295C1294.32 276.746 1294.37 277.24 1294.42 277.694C1294.42 277.716 1294.42 277.737 1294.42 277.759C1294.45 278.196 1294.44 278.633 1294.43 279.084C1294.43 279.315 1294.42 279.55 1294.42 279.789H1294.28C1292.02 279.789 1289.72 279.789 1287.41 279.837C1286.95 279.837 1286.49 279.884 1286.03 279.931C1284.83 280.073 1283.73 280.498 1282.71 281.159C1281.47 281.961 1280.54 283.047 1280.08 284.511C1279.76 285.503 1279.62 286.542 1279.76 287.581C1279.81 287.84 1279.84 288.112 1279.88 288.383C1279.91 288.655 1279.94 288.926 1279.99 289.186C1280.22 290.225 1280.64 291.169 1281.33 291.972C1281.97 292.775 1282.8 293.342 1283.73 293.767C1284.83 294.239 1285.94 294.475 1287.09 294.475C1287.92 294.475 1288.75 294.428 1289.58 294.333C1290.18 294.286 1290.78 294.192 1291.38 294.05C1292.16 293.861 1292.85 293.389 1293.55 292.917C1293.87 292.681 1294.19 292.444 1294.56 292.161ZM1294.47 283.331V285.786C1294.42 286.4 1294.38 287.014 1294.24 287.628C1294.1 288.242 1293.68 288.714 1293.22 289.139C1292.53 289.753 1291.75 290.083 1290.87 290.225C1290.27 290.32 1289.67 290.414 1289.07 290.32C1288.84 290.296 1288.61 290.284 1288.38 290.272C1288.15 290.261 1287.92 290.249 1287.69 290.225C1286.86 290.131 1286.03 289.895 1285.39 289.281C1285.02 288.903 1284.74 288.431 1284.65 287.864C1284.51 287.156 1284.46 286.447 1284.69 285.739C1284.97 284.936 1285.48 284.417 1286.17 283.992C1286.95 283.52 1287.83 283.331 1288.75 283.331H1294.47Z" fill="white"/>
<path fill-rule="evenodd" clip-rule="evenodd" d="M1377.37 285.606C1377.18 284.9 1377.09 284.194 1376.99 283.441C1382.38 283.441 1387.67 283.441 1393.1 283.394C1393.1 283.354 1393.1 283.314 1393.11 283.275C1393.15 282.803 1393.19 282.365 1393.19 281.888C1393.19 281.716 1393.18 281.558 1393.16 281.406C1393.15 281.265 1393.14 281.129 1393.14 280.993C1393.14 280.475 1393.1 279.958 1393.05 279.44C1392.95 278.734 1392.86 278.075 1392.72 277.368C1392.39 275.815 1391.83 274.356 1390.9 273.038C1390.33 272.19 1389.63 271.484 1388.84 270.919C1387.24 269.837 1385.47 269.319 1383.55 269.225C1382.91 269.189 1382.28 269.233 1381.65 269.278C1381.44 269.292 1381.23 269.307 1381.02 269.319C1380.18 269.366 1379.38 269.601 1378.58 269.884C1377.18 270.401 1376.01 271.249 1375.03 272.379C1374.47 272.991 1374 273.697 1373.67 274.45C1373.29 275.25 1373.01 276.05 1372.78 276.851C1372.41 278.028 1372.27 279.204 1372.17 280.428C1372.12 281.134 1372.12 281.793 1372.17 282.5C1372.17 283.002 1372.21 283.504 1372.25 284.006C1372.28 284.257 1372.3 284.508 1372.31 284.759C1372.36 285.654 1372.59 286.548 1372.87 287.395C1373.29 288.855 1373.95 290.126 1374.93 291.255C1375.78 292.244 1376.81 292.997 1378.02 293.562C1379.33 294.127 1380.74 294.409 1382.14 294.457C1383.12 294.504 1384.06 294.457 1385.04 294.362C1385.65 294.315 1386.26 294.221 1386.82 294.08C1387.95 293.797 1389.02 293.421 1390.01 292.809C1390.85 292.291 1391.64 291.632 1392.3 290.832C1392.39 290.738 1392.39 290.643 1392.3 290.549C1392.07 290.314 1391.83 290.09 1391.6 289.867C1391.36 289.643 1391.13 289.42 1390.9 289.184L1389.35 287.631C1389.14 287.795 1388.94 287.96 1388.74 288.125C1388.54 288.29 1388.34 288.455 1388.13 288.619C1386.82 289.655 1385.28 290.173 1383.59 290.22C1382.89 290.267 1382.14 290.126 1381.44 289.984C1380.64 289.796 1379.9 289.467 1379.29 288.949C1378.26 288.054 1377.7 286.877 1377.37 285.606ZM1388.04 279.722H1377.09C1377.13 279.298 1377.13 278.875 1377.13 278.451C1377.16 278.358 1377.18 278.263 1377.2 278.168C1377.32 277.685 1377.45 277.181 1377.6 276.709C1378.16 275.203 1379.15 274.073 1380.69 273.603C1382.24 273.132 1383.78 273.226 1385.23 274.026C1386.26 274.591 1386.92 275.485 1387.34 276.521C1387.57 277.133 1387.76 277.792 1387.9 278.451C1387.96 278.734 1387.98 279.016 1388 279.298C1388.01 279.44 1388.02 279.581 1388.04 279.722Z" fill="white"/>
<path d="M1317.73 269.212C1319.53 269.212 1321.37 269.212 1323.21 269.212C1323.21 269.304 1323.21 269.35 1323.17 269.442C1322.69 270.683 1322.22 271.971 1321.75 273.213C1321.37 274.133 1321.04 275.098 1320.66 276.018C1320.09 277.536 1319.48 279.053 1318.91 280.617C1318.49 281.721 1318.06 282.824 1317.64 283.928C1317.07 285.446 1316.45 287.009 1315.89 288.527C1315.46 289.677 1315.04 290.827 1314.56 291.976C1314.04 293.356 1313.52 294.736 1312.96 296.115C1312.48 297.311 1312.06 298.507 1311.49 299.656C1310.73 301.22 1309.41 302.278 1307.66 302.692C1307.19 302.784 1306.72 302.83 1306.24 302.876C1305.58 302.922 1304.92 302.876 1304.26 302.876C1303.5 302.876 1302.79 302.876 1301.99 302.876C1301.99 301.45 1301.99 299.978 1301.99 298.461C1302.22 298.461 1302.41 298.461 1302.65 298.461C1303.45 298.461 1304.21 298.461 1305.01 298.461C1306.29 298.415 1307.42 297.725 1307.85 296.529C1308.37 295.196 1308.84 293.816 1309.32 292.436C1309.41 292.16 1309.22 291.976 1309.17 291.746C1308.8 290.689 1308.42 289.677 1308.04 288.665C1307.52 287.239 1306.95 285.814 1306.43 284.388C1305.77 282.686 1305.16 280.985 1304.49 279.283C1303.88 277.628 1303.22 275.972 1302.6 274.317C1302.04 272.753 1301.42 271.189 1300.85 269.626C1300.81 269.58 1300.81 269.488 1300.76 269.396C1302.46 269.396 1304.21 269.396 1305.91 269.396C1306.05 269.396 1306.1 269.488 1306.1 269.58C1306.38 270.408 1306.67 271.235 1306.95 272.063C1307.57 273.765 1308.13 275.466 1308.75 277.168C1309.32 278.777 1309.88 280.387 1310.45 282.043C1310.92 283.376 1311.4 284.71 1311.87 286.044C1311.87 286.09 1311.92 286.136 1311.96 286.182C1313.95 280.433 1315.84 274.822 1317.73 269.212Z" fill="white"/>
<path d="M1364.32 293.071C1364.32 292.981 1364.32 292.846 1364.32 292.757C1364.32 287.898 1364.32 283.084 1364.32 278.226C1364.32 277.011 1363.96 275.886 1363.13 274.896C1362.44 274.042 1361.48 273.592 1360.42 273.502C1359.92 273.457 1359.41 273.412 1358.91 273.457C1357.58 273.592 1356.43 274.087 1355.65 275.211C1355.1 275.976 1354.82 276.831 1354.68 277.776C1354.64 278.091 1354.64 278.405 1354.64 278.72C1354.64 283.399 1354.64 288.033 1354.64 292.712C1354.64 292.802 1354.64 292.891 1354.64 293.026C1352.98 293.026 1351.33 293.026 1349.68 293.026C1349.68 285.154 1349.68 277.281 1349.68 269.408C1351.24 269.408 1352.8 269.408 1354.41 269.408C1354.41 270.173 1354.41 270.938 1354.41 271.792C1354.73 271.522 1355 271.252 1355.33 271.028C1356.43 270.218 1357.62 269.678 1359 269.408C1359.92 269.228 1360.84 269.183 1361.75 269.228C1362.81 269.273 1363.87 269.498 1364.83 269.948C1365.79 270.398 1366.62 271.028 1367.35 271.792C1368.09 272.647 1368.64 273.637 1368.92 274.761C1369.14 275.661 1369.24 276.561 1369.24 277.461C1369.24 279.035 1369.28 280.61 1369.28 282.184C1369.28 285.064 1369.33 287.943 1369.33 290.822C1369.33 291.542 1369.33 292.307 1369.33 293.071C1367.58 293.071 1365.98 293.071 1364.32 293.071Z" fill="white"/>
<path d="M1325.82 259.387C1327.53 259.387 1329.2 259.387 1330.92 259.387C1330.92 259.479 1330.92 259.57 1330.92 259.662C1330.92 268.593 1330.92 277.479 1330.92 286.364C1330.92 287.097 1331.1 287.83 1331.66 288.379C1331.98 288.7 1332.4 288.883 1332.86 288.883C1333.6 288.883 1334.3 288.929 1335.04 288.929C1335.23 288.929 1335.46 288.929 1335.64 288.883C1335.64 290.257 1335.64 291.631 1335.64 293.051C1335.5 293.051 1335.46 293.051 1335.37 293.051C1334.16 293.051 1333 293.097 1331.8 293.051C1330.45 293.005 1329.25 292.593 1328.23 291.769C1326.98 290.807 1326.28 289.479 1326 287.967C1325.87 287.234 1325.82 286.456 1325.82 285.723C1325.82 277.021 1325.82 268.364 1325.82 259.662C1325.82 259.616 1325.82 259.525 1325.82 259.387Z" fill="white"/>
<path d="M1339.86 269.212C1341.5 269.212 1343.06 269.212 1344.66 269.212C1344.66 277.165 1344.66 285.118 1344.66 293.071C1343.06 293.071 1341.46 293.071 1339.86 293.071C1339.86 285.118 1339.86 277.165 1339.86 269.212Z" fill="white"/>
<path d="M1344.66 265.001C1343.06 265.001 1341.46 265.001 1339.86 265.001C1339.86 263.147 1339.86 261.293 1339.86 259.387C1341.46 259.387 1343.06 259.387 1344.66 259.387C1344.66 261.241 1344.66 263.096 1344.66 265.001Z" fill="white"/>
</g>
</g>
<defs>
<filter id="filter0_dd_1217_5914" x="0" y="0" width="1559.5" height="493.5" filterUnits="userSpaceOnUse" color-interpolation-filters="sRGB">
<feFlood flood-opacity="0" result="BackgroundImageFix"/>
<feColorMatrix in="SourceAlpha" type="matrix" values="0 0 0 0 0 0 0 0 0 0 0 0 0 0 0 0 0 0 127 0" result="hardAlpha"/>
<feOffset dy="20"/>
<feGaussianBlur stdDeviation="20"/>
<feColorMatrix type="matrix" values="0 0 0 0 0.717647 0 0 0 0 0.717647 0 0 0 0 0.717647 0 0 0 0.06 0"/>
<feBlend mode="normal" in2="BackgroundImageFix" result="effect1_dropShadow_1217_5914"/>
<feColorMatrix in="SourceAlpha" type="matrix" values="0 0 0 0 0 0 0 0 0 0 0 0 0 0 0 0 0 0 127 0" result="hardAlpha"/>
<feOffset dy="4"/>
<feGaussianBlur stdDeviation="7"/>
<feColorMatrix type="matrix" values="0 0 0 0 0.716667 0 0 0 0 0.716667 0 0 0 0 0.716667 0 0 0 0.02 0"/>
<feBlend mode="normal" in2="effect1_dropShadow_1217_5914" result="effect2_dropShadow_1217_5914"/>
<feBlend mode="normal" in="SourceGraphic" in2="effect2_dropShadow_1217_5914" result="shape"/>
</filter>
<filter id="filter1_dd_1217_5914" x="79.75" y="192.75" width="408" height="216" filterUnits="userSpaceOnUse" color-interpolation-filters="sRGB">
<feFlood flood-opacity="0" result="BackgroundImageFix"/>
<feColorMatrix in="SourceAlpha" type="matrix" values="0 0 0 0 0 0 0 0 0 0 0 0 0 0 0 0 0 0 127 0" result="hardAlpha"/>
<feOffset dy="2"/>
<feGaussianBlur stdDeviation="10"/>
<feColorMatrix type="matrix" values="0 0 0 0 0.717647 0 0 0 0 0.717647 0 0 0 0 0.717647 0 0 0 0.08 0"/>
<feBlend mode="normal" in2="BackgroundImageFix" result="effect1_dropShadow_1217_5914"/>
<feColorMatrix in="SourceAlpha" type="matrix" values="0 0 0 0 0 0 0 0 0 0 0 0 0 0 0 0 0 0 127 0" result="hardAlpha"/>
<feOffset dy="20"/>
<feGaussianBlur stdDeviation="20"/>
<feColorMatrix type="matrix" values="0 0 0 0 0.717647 0 0 0 0 0.717647 0 0 0 0 0.717647 0 0 0 0.08 0"/>
<feBlend mode="normal" in2="effect1_dropShadow_1217_5914" result="effect2_dropShadow_1217_5914"/>
<feBlend mode="normal" in="SourceGraphic" in2="effect2_dropShadow_1217_5914" result="shape"/>
</filter>
<filter id="filter2_dd_1217_5914" x="445.75" y="192.75" width="290" height="216" filterUnits="userSpaceOnUse" color-interpolation-filters="sRGB">
<feFlood flood-opacity="0" result="BackgroundImageFix"/>
<feColorMatrix in="SourceAlpha" type="matrix" values="0 0 0 0 0 0 0 0 0 0 0 0 0 0 0 0 0 0 127 0" result="hardAlpha"/>
<feOffset dy="2"/>
<feGaussianBlur stdDeviation="10"/>
<feColorMatrix type="matrix" values="0 0 0 0 0.717647 0 0 0 0 0.717647 0 0 0 0 0.717647 0 0 0 0.08 0"/>
<feBlend mode="normal" in2="BackgroundImageFix" result="effect1_dropShadow_1217_5914"/>
<feColorMatrix in="SourceAlpha" type="matrix" values="0 0 0 0 0 0 0 0 0 0 0 0 0 0 0 0 0 0 127 0" result="hardAlpha"/>
<feOffset dy="20"/>
<feGaussianBlur stdDeviation="20"/>
<feColorMatrix type="matrix" values="0 0 0 0 0.717647 0 0 0 0 0.717647 0 0 0 0 0.717647 0 0 0 0.08 0"/>
<feBlend mode="normal" in2="effect1_dropShadow_1217_5914" result="effect2_dropShadow_1217_5914"/>
<feBlend mode="normal" in="SourceGraphic" in2="effect2_dropShadow_1217_5914" result="shape"/>
</filter>
<filter id="filter3_dd_1217_5914" x="693.75" y="192.75" width="290" height="216" filterUnits="userSpaceOnUse" color-interpolation-filters="sRGB">
<feFlood flood-opacity="0" result="BackgroundImageFix"/>
<feColorMatrix in="SourceAlpha" type="matrix" values="0 0 0 0 0 0 0 0 0 0 0 0 0 0 0 0 0 0 127 0" result="hardAlpha"/>
<feOffset dy="2"/>
<feGaussianBlur stdDeviation="10"/>
<feColorMatrix type="matrix" values="0 0 0 0 0.717647 0 0 0 0 0.717647 0 0 0 0 0.717647 0 0 0 0.08 0"/>
<feBlend mode="normal" in2="BackgroundImageFix" result="effect1_dropShadow_1217_5914"/>
<feColorMatrix in="SourceAlpha" type="matrix" values="0 0 0 0 0 0 0 0 0 0 0 0 0 0 0 0 0 0 127 0" result="hardAlpha"/>
<feOffset dy="20"/>
<feGaussianBlur stdDeviation="20"/>
<feColorMatrix type="matrix" values="0 0 0 0 0.717647 0 0 0 0 0.717647 0 0 0 0 0.717647 0 0 0 0.08 0"/>
<feBlend mode="normal" in2="effect1_dropShadow_1217_5914" result="effect2_dropShadow_1217_5914"/>
<feBlend mode="normal" in="SourceGraphic" in2="effect2_dropShadow_1217_5914" result="shape"/>
</filter>
<filter id="filter4_dd_1217_5914" x="941.75" y="192.75" width="290" height="216" filterUnits="userSpaceOnUse" color-interpolation-filters="sRGB">
<feFlood flood-opacity="0" result="BackgroundImageFix"/>
<feColorMatrix in="SourceAlpha" type="matrix" values="0 0 0 0 0 0 0 0 0 0 0 0 0 0 0 0 0 0 127 0" result="hardAlpha"/>
<feOffset dy="2"/>
<feGaussianBlur stdDeviation="10"/>
<feColorMatrix type="matrix" values="0 0 0 0 0.717647 0 0 0 0 0.717647 0 0 0 0 0.717647 0 0 0 0.08 0"/>
<feBlend mode="normal" in2="BackgroundImageFix" result="effect1_dropShadow_1217_5914"/>
<feColorMatrix in="SourceAlpha" type="matrix" values="0 0 0 0 0 0 0 0 0 0 0 0 0 0 0 0 0 0 127 0" result="hardAlpha"/>
<feOffset dy="20"/>
<feGaussianBlur stdDeviation="20"/>
<feColorMatrix type="matrix" values="0 0 0 0 0.717647 0 0 0 0 0.717647 0 0 0 0 0.717647 0 0 0 0.08 0"/>
<feBlend mode="normal" in2="effect1_dropShadow_1217_5914" result="effect2_dropShadow_1217_5914"/>
<feBlend mode="normal" in="SourceGraphic" in2="effect2_dropShadow_1217_5914" result="shape"/>
</filter>
<filter id="filter5_dd_1217_5914" x="1189.75" y="192.75" width="290" height="216" filterUnits="userSpaceOnUse" color-interpolation-filters="sRGB">
<feFlood flood-opacity="0" result="BackgroundImageFix"/>
<feColorMatrix in="SourceAlpha" type="matrix" values="0 0 0 0 0 0 0 0 0 0 0 0 0 0 0 0 0 0 127 0" result="hardAlpha"/>
<feOffset dy="2"/>
<feGaussianBlur stdDeviation="10"/>
<feColorMatrix type="matrix" values="0 0 0 0 0.717647 0 0 0 0 0.717647 0 0 0 0 0.717647 0 0 0 0.08 0"/>
<feBlend mode="normal" in2="BackgroundImageFix" result="effect1_dropShadow_1217_5914"/>
<feColorMatrix in="SourceAlpha" type="matrix" values="0 0 0 0 0 0 0 0 0 0 0 0 0 0 0 0 0 0 127 0" result="hardAlpha"/>
<feOffset dy="20"/>
<feGaussianBlur stdDeviation="20"/>
<feColorMatrix type="matrix" values="0 0 0 0 0.717647 0 0 0 0 0.717647 0 0 0 0 0.717647 0 0 0 0.08 0"/>
<feBlend mode="normal" in2="effect1_dropShadow_1217_5914" result="effect2_dropShadow_1217_5914"/>
<feBlend mode="normal" in="SourceGraphic" in2="effect2_dropShadow_1217_5914" result="shape"/>
</filter>
</defs>
</svg>
