<svg width="1560" height="494" viewBox="0 0 1560 494" fill="none" xmlns="http://www.w3.org/2000/svg">
<g filter="url(#filter0_dd_1297_3413)">
<rect x="40.75" y="20.75" width="1478" height="412" rx="40" fill="white"/>
<rect x="40.75" y="20.75" width="1478" height="412" rx="40" stroke="#EBEFF6" stroke-width="1.5"/>
<path d="M123.405 137.75V107.205H135.456C137.773 107.205 139.746 107.647 141.377 108.532C143.008 109.407 144.251 110.625 145.106 112.186C145.971 113.737 146.403 115.527 146.403 117.555C146.403 119.584 145.966 121.374 145.091 122.925C144.216 124.476 142.948 125.684 141.288 126.549C139.637 127.414 137.638 127.847 135.292 127.847H127.611V122.671H134.248C135.491 122.671 136.515 122.457 137.32 122.03C138.136 121.592 138.742 120.991 139.14 120.225C139.548 119.45 139.751 118.56 139.751 117.555C139.751 116.541 139.548 115.656 139.14 114.901C138.742 114.135 138.136 113.543 137.32 113.126C136.505 112.698 135.471 112.484 134.218 112.484H129.863V137.75H123.405ZM178.668 122.477C178.668 125.808 178.036 128.642 176.774 130.979C175.521 133.315 173.811 135.1 171.643 136.333C169.485 137.556 167.059 138.168 164.365 138.168C161.65 138.168 159.214 137.551 157.056 136.318C154.899 135.085 153.193 133.3 151.941 130.964C150.688 128.627 150.061 125.798 150.061 122.477C150.061 119.146 150.688 116.312 151.941 113.976C153.193 111.639 154.899 109.859 157.056 108.636C159.214 107.403 161.65 106.787 164.365 106.787C167.059 106.787 169.485 107.403 171.643 108.636C173.811 109.859 175.521 111.639 176.774 113.976C178.036 116.312 178.668 119.146 178.668 122.477ZM172.12 122.477C172.12 120.32 171.797 118.5 171.151 117.018C170.514 115.537 169.615 114.413 168.451 113.648C167.288 112.882 165.926 112.499 164.365 112.499C162.803 112.499 161.441 112.882 160.278 113.648C159.115 114.413 158.21 115.537 157.563 117.018C156.927 118.5 156.609 120.32 156.609 122.477C156.609 124.635 156.927 126.455 157.563 127.936C158.21 129.418 159.115 130.541 160.278 131.307C161.441 132.072 162.803 132.455 164.365 132.455C165.926 132.455 167.288 132.072 168.451 131.307C169.615 130.541 170.514 129.418 171.151 127.936C171.797 126.455 172.12 124.635 172.12 122.477ZM183.452 137.75V107.205H189.91V132.425H203.005V137.75H183.452ZM207.162 137.75V114.841H213.516V137.75H207.162ZM210.354 111.888C209.41 111.888 208.599 111.575 207.923 110.948C207.257 110.312 206.924 109.551 206.924 108.666C206.924 107.791 207.257 107.04 207.923 106.414C208.599 105.778 209.41 105.46 210.354 105.46C211.299 105.46 212.104 105.778 212.77 106.414C213.447 107.04 213.785 107.791 213.785 108.666C213.785 109.551 213.447 110.312 212.77 110.948C212.104 111.575 211.299 111.888 210.354 111.888Z" fill="#19213D"/>
<a href="https://www.polipay.co.nz/">
<rect fill="black" fill-opacity="0" y="1.58523" width="95.3017" height="50.8295"/>
</a>
<g filter="url(#filter1_dd_1297_3413)">
<rect x="120.25" y="213.25" width="327" height="135" rx="24.5" stroke="#D6DCE5"/>
<path d="M309.138 307.197H342.526V292.237H325.609V257.283H309.138V307.197Z" fill="#000008"/>
<path fill-rule="evenodd" clip-rule="evenodd" d="M206.75 257.578V307.415L221.63 307.437V292.226H224.978C230.909 292.226 237.677 290.987 240.746 288.015C243.814 285.044 245.081 280.593 245.081 274.908C245.153 271.856 244.583 268.822 243.407 265.994C242.445 263.668 240.758 261.698 238.587 260.363C236.425 259.18 234.084 258.344 231.651 257.889C229.715 257.547 226.237 257.559 222.315 257.572C221.536 257.575 220.74 257.578 219.934 257.578H206.75ZM222.205 283.105C221.974 283.102 221.742 283.084 221.513 283.051L221.497 267.715V266.879C224.454 266.879 227.132 267.278 228.248 268.446C229.845 270.14 229.842 271.903 229.838 274.026C229.838 274.127 229.838 274.231 229.838 274.334C229.838 277.054 229.804 279.992 228.722 281.309C228.019 282.161 226.803 283.275 222.205 283.105Z" fill="#000008"/>
<path d="M361.162 274.498H345.383V307.267H361.162V274.498Z" fill="#000008"/>
<path d="M345.16 257.502H361.274V271.053H345.16V257.502Z" fill="#000008"/>
<path fill-rule="evenodd" clip-rule="evenodd" d="M286.995 303.761C289.121 303.013 291.219 301.434 293.026 299.829C298.12 295.285 303.488 287.573 303.069 278.184C302.634 268.299 297.217 261.963 290.002 258.014C292.083 258.462 293.802 259.817 295.403 261.089C300.034 264.76 303.549 270.445 303.7 278.436C303.901 289.064 298.12 296.311 292.39 301.309C294.187 300.435 295.571 298.818 296.91 297.251C300.704 292.805 304.196 286.475 304.196 278.556C304.196 267.408 297.758 260.991 290.248 256.791C292.667 257.556 294.894 258.815 296.781 260.483C299.555 262.846 301.727 265.811 303.122 269.141C304.517 272.472 305.097 276.075 304.816 279.664C304.36 287.486 300.853 294.838 295.018 300.2C289.272 305.574 281.828 308.872 273.911 309.55C272.865 309.624 271.816 309.624 270.77 309.55C257.658 308.485 248.145 300.266 247.152 287.66C247.049 286.35 247.049 285.033 247.152 283.722C247.71 275.77 251.381 269.435 256.196 264.541C261.435 259.216 268.058 255.202 277.298 254.579C277.527 253.591 277.794 252.46 277.934 251.75C280.975 254.912 284.668 258.359 288.485 262.078C283.887 264.383 279.412 266.808 274.915 269.211C275.016 268.31 275.228 267.283 275.289 266.627C267.573 267.966 261.067 273.449 259.717 281.139C258.043 290.522 264.471 297.693 273.666 297.742C282.955 297.792 290.839 290.768 292.256 282.739C293.372 276.251 290.471 271.718 286.727 268.719C290.22 270.98 293.98 275.066 293.512 281.139C292.753 290.653 283.614 298.534 274.051 298.605C271.536 298.615 269.05 298.082 266.77 297.043C264.49 296.005 262.472 294.487 260.861 292.598C263.991 297.054 269.464 299.403 275.685 298.993C280.573 298.671 284.707 296.322 287.748 293.46C290.789 290.599 293.272 286.47 293.886 282.27C294.134 280.598 294.134 278.9 293.886 277.228C293.121 272.313 290.075 270.025 287.285 266.851C291.258 269.954 295.42 274.088 295.147 280.779C294.734 290.555 285.17 299.173 275.166 299.84C268.605 300.277 264.565 298.081 261.095 294.924C264.381 298.999 270.58 301.09 277.052 300.091C286.286 298.665 294.516 291.123 295.52 281.767C296.424 273.318 292.056 269.397 287.882 265.257C292.346 268.534 296.123 272.198 296.396 278.938C296.636 284.793 293.724 290.522 289.991 294.187C284.021 300.047 272.393 303.892 263.355 298.491C271.054 304.242 283.011 300.948 289.361 295.296C293.969 291.199 297.334 285.738 296.776 277.584C296.324 271.03 292.53 267.676 288.234 264.181C292.653 266.398 296.915 270.833 297.529 277.218C298.349 285.574 294.416 291.746 289.628 295.896C283.843 300.894 275.68 303.87 266.513 301.555C281.7 306.186 295.9 295.148 297.92 282.373C299.37 273.192 294.572 267.78 290.008 263.924C289.539 263.531 289.271 263.247 288.63 262.695C295.152 266.016 300.57 273.356 298.427 283.722C295.933 295.793 283.58 305.569 267.645 303.029C269.961 303.936 272.667 303.739 274.999 303.619C282.252 303.22 288.814 299.676 292.329 295.858C296.592 291.216 299.967 285.366 299.314 276.939C298.723 269.293 294.371 265.661 289.048 261.646C291.279 262.523 293.262 263.908 294.834 265.688C297.87 268.841 299.712 272.915 300.056 277.234C300.704 285.923 296.625 292.379 292.145 296.896C287.369 301.718 280.897 304.815 272.672 304.886C285.572 305.268 294.142 297.518 298.299 288.9C300.681 283.985 301.373 277.005 299.415 271.559C297.624 266.546 293.517 263.105 289.483 260.314C296.53 264 302.461 270.92 301.172 281.641C300.738 285.344 299.485 288.909 297.501 292.09C293.657 298.403 287.369 302.844 280.316 305.258C285.539 304.165 290.493 301.09 294.137 297.136C298.6 292.314 302.026 286.213 301.803 277.709C301.552 268.555 295.771 263.279 289.868 259.14C289.945 259.15 290.02 259.17 290.092 259.2C296.536 262.291 301.412 267.654 302.428 275.989C304.046 289.146 295.197 298.753 286.995 303.761Z" fill="#30469D"/>
</g>
<g filter="url(#filter2_dd_1297_3413)">
<rect x="486.75" y="213.75" width="208" height="134" rx="24" fill="white"/>
<rect x="486.25" y="213.25" width="209" height="135" rx="24.5" stroke="#D6DCE5"/>
<path d="M613.536 304.455H643.466V291.045H628.301V259.71H613.536V304.455Z" fill="#000008"/>
<path fill-rule="evenodd" clip-rule="evenodd" d="M521.75 259.974V304.651L535.09 304.671V291.035H538.091C543.408 291.035 549.475 289.924 552.226 287.26C554.977 284.597 556.112 280.606 556.112 275.51C556.176 272.774 555.666 270.054 554.612 267.519C553.749 265.434 552.237 263.667 550.29 262.471C548.353 261.41 546.253 260.661 544.073 260.253C542.337 259.947 539.219 259.958 535.703 259.97C535.005 259.972 534.291 259.974 533.569 259.974H521.75ZM535.605 282.859C535.397 282.856 535.19 282.839 534.985 282.81L534.97 269.061V268.312C537.621 268.312 540.021 268.67 541.022 269.718C542.454 271.236 542.451 272.817 542.448 274.719V274.72C542.447 274.811 542.447 274.903 542.447 274.996C542.447 277.434 542.417 280.068 541.447 281.248C540.817 282.012 539.726 283.01 535.605 282.859Z" fill="#000008"/>
<path d="M660.173 275.142H646.028V304.519H660.173V275.142Z" fill="#000008"/>
<path d="M645.828 259.906H660.273V272.055H645.828V259.906Z" fill="#000008"/>
<path fill-rule="evenodd" clip-rule="evenodd" d="M593.686 301.376C595.591 300.705 597.472 299.29 599.093 297.85C603.659 293.777 608.471 286.864 608.096 278.447C607.706 269.585 602.849 263.906 596.382 260.366C598.247 260.767 599.788 261.982 601.223 263.122C605.375 266.413 608.526 271.509 608.661 278.672C608.841 288.2 603.659 294.697 598.522 299.177C600.133 298.394 601.373 296.945 602.574 295.539C605.975 291.554 609.106 285.879 609.106 278.78C609.106 268.787 603.334 263.034 596.602 259.269C598.771 259.955 600.767 261.083 602.459 262.579C604.946 264.697 606.892 267.355 608.143 270.341C609.393 273.326 609.913 276.557 609.661 279.774C609.253 286.786 606.109 293.376 600.878 298.183C595.727 303.001 589.054 305.957 581.957 306.565C581.019 306.632 580.078 306.632 579.141 306.565C567.387 305.611 558.859 298.242 557.968 286.942C557.876 285.767 557.876 284.587 557.968 283.412C558.468 276.283 561.76 270.604 566.076 266.217C570.773 261.443 576.71 257.844 584.993 257.286C585.198 256.4 585.438 255.386 585.563 254.75C588.289 257.585 591.6 260.674 595.021 264.009C590.9 266.075 586.888 268.249 582.857 270.403C582.947 269.595 583.137 268.675 583.192 268.087C576.275 269.287 570.443 274.202 569.232 281.096C567.732 289.507 573.494 295.936 581.737 295.98C590.064 296.024 597.132 289.728 598.402 282.53C599.403 276.714 596.802 272.65 593.446 269.962C596.577 271.989 599.948 275.651 599.528 281.096C598.848 289.625 590.655 296.69 582.082 296.754C579.827 296.762 577.599 296.284 575.555 295.353C573.511 294.422 571.702 293.062 570.258 291.368C573.063 295.363 577.97 297.468 583.547 297.101C587.929 296.812 591.635 294.707 594.361 292.142C597.087 289.576 599.313 285.875 599.863 282.109C600.085 280.611 600.085 279.089 599.863 277.59C599.178 273.184 596.447 271.132 593.946 268.288C597.507 271.069 601.238 274.775 600.993 280.773C600.623 289.537 592.05 297.263 583.082 297.86C577.2 298.252 573.579 296.284 570.468 293.454C573.414 297.106 578.971 298.981 584.773 298.085C593.05 296.808 600.428 290.046 601.328 281.659C602.139 274.085 598.222 270.569 594.481 266.858C598.482 269.796 601.869 273.081 602.114 279.123C602.329 284.371 599.718 289.507 596.372 292.793C591.02 298.046 580.596 301.493 572.493 296.651C579.396 301.806 590.114 298.854 595.806 293.787C599.938 290.115 602.954 285.218 602.454 277.909C602.049 272.033 598.647 269.027 594.796 265.894C598.757 267.881 602.579 271.857 603.129 277.581C603.864 285.072 600.338 290.604 596.047 294.325C590.86 298.805 583.542 301.473 575.324 299.398C588.939 303.549 601.668 293.654 603.479 282.202C604.78 273.972 600.478 269.12 596.387 265.663C595.967 265.311 595.726 265.056 595.151 264.562C600.998 267.539 605.855 274.119 603.934 283.412C601.699 294.232 590.625 302.996 576.34 300.719C578.415 301.532 580.841 301.356 582.932 301.248C589.434 300.891 595.316 297.713 598.467 294.291C602.289 290.129 605.315 284.885 604.73 277.331C604.199 270.476 600.298 267.22 595.526 263.622C597.526 264.407 599.304 265.649 600.713 267.245C603.434 270.071 605.086 273.723 605.395 277.595C605.975 285.385 602.319 291.172 598.302 295.221C594.021 299.544 588.219 302.321 580.846 302.384C592.41 302.727 600.093 295.779 603.819 288.053C605.955 283.647 606.575 277.39 604.82 272.508C603.214 268.014 599.533 264.929 595.916 262.427C602.234 265.732 607.551 271.935 606.395 281.546C606.006 284.865 604.883 288.061 603.104 290.913C599.658 296.572 594.021 300.553 587.699 302.717C592.38 301.738 596.822 298.981 600.088 295.437C604.089 291.113 607.16 285.644 606.96 278.021C606.735 269.815 601.553 265.086 596.262 261.374C596.33 261.384 596.398 261.402 596.462 261.428C602.239 264.199 606.61 269.007 607.521 276.479C608.971 288.274 601.038 296.886 593.686 301.376Z" fill="#30469D"/>
</g>
<g filter="url(#filter3_dd_1297_3413)">
<rect x="734.75" y="213.75" width="208" height="134" rx="24" fill="#30469D"/>
<rect x="734.25" y="213.25" width="209" height="135" rx="24.5" stroke="#D6DCE5"/>
<path d="M860.536 305.455H890.466V292.045H875.301V260.71H860.536V305.455Z" fill="white"/>
<path fill-rule="evenodd" clip-rule="evenodd" d="M768.75 260.974V305.651L782.09 305.671V292.035H785.091C790.408 292.035 796.475 290.924 799.226 288.26C801.977 285.597 803.112 281.606 803.112 276.51C803.176 273.774 802.666 271.054 801.612 268.519C800.749 266.434 799.237 264.667 797.29 263.471C795.353 262.41 793.253 261.661 791.073 261.253C789.337 260.947 786.219 260.958 782.703 260.97C782.005 260.972 781.291 260.974 780.569 260.974H768.75ZM782.605 283.859C782.397 283.856 782.19 283.839 781.985 283.81L781.97 270.061V269.312C784.621 269.312 787.021 269.67 788.022 270.718C789.454 272.236 789.451 273.817 789.448 275.719V275.72C789.447 275.811 789.447 275.903 789.447 275.996C789.447 278.434 789.417 281.068 788.447 282.248C787.817 283.012 786.726 284.01 782.605 283.859Z" fill="white"/>
<path d="M907.173 276.142H893.028V305.519H907.173V276.142Z" fill="white"/>
<path d="M892.828 260.906H907.273V273.055H892.828V260.906Z" fill="white"/>
<path fill-rule="evenodd" clip-rule="evenodd" d="M840.686 302.376C842.591 301.705 844.472 300.29 846.093 298.85C850.659 294.777 855.471 287.864 855.096 279.447C854.706 270.585 849.849 264.906 843.382 261.366C845.247 261.767 846.788 262.982 848.223 264.122C852.375 267.413 855.526 272.509 855.661 279.672C855.841 289.2 850.659 295.697 845.522 300.177C847.133 299.394 848.373 297.945 849.574 296.539C852.975 292.554 856.106 286.879 856.106 279.78C856.106 269.787 850.334 264.034 843.602 260.269C845.771 260.955 847.767 262.083 849.459 263.579C851.946 265.697 853.892 268.355 855.143 271.341C856.393 274.326 856.913 277.557 856.661 280.774C856.253 287.786 853.109 294.376 847.878 299.183C842.727 304.001 836.054 306.957 828.957 307.565C828.019 307.632 827.078 307.632 826.141 307.565C814.387 306.611 805.859 299.242 804.968 287.942C804.876 286.767 804.876 285.587 804.968 284.412C805.468 277.283 808.76 271.604 813.076 267.217C817.773 262.443 823.71 258.844 831.993 258.286C832.198 257.4 832.438 256.386 832.563 255.75C835.289 258.585 838.6 261.674 842.021 265.009C837.9 267.075 833.888 269.249 829.857 271.403C829.947 270.595 830.137 269.675 830.192 269.087C823.275 270.287 817.443 275.202 816.232 282.096C814.732 290.507 820.494 296.936 828.737 296.98C837.064 297.024 844.132 290.728 845.402 283.53C846.403 277.714 843.802 273.65 840.446 270.962C843.577 272.989 846.948 276.651 846.528 282.096C845.848 290.625 837.655 297.69 829.082 297.754C826.827 297.762 824.599 297.284 822.555 296.353C820.511 295.422 818.702 294.062 817.258 292.368C820.063 296.363 824.97 298.468 830.547 298.101C834.929 297.812 838.635 295.707 841.361 293.142C844.087 290.576 846.313 286.875 846.863 283.109C847.085 281.611 847.085 280.089 846.863 278.59C846.178 274.184 843.447 272.132 840.946 269.288C844.507 272.069 848.238 275.775 847.993 281.773C847.623 290.537 839.05 298.263 830.082 298.86C824.2 299.252 820.579 297.284 817.468 294.454C820.414 298.106 825.971 299.981 831.773 299.085C840.05 297.808 847.428 291.046 848.328 282.659C849.139 275.085 845.222 271.569 841.481 267.858C845.482 270.796 848.869 274.081 849.114 280.123C849.329 285.371 846.718 290.507 843.372 293.793C838.02 299.046 827.596 302.493 819.493 297.651C826.396 302.806 837.114 299.854 842.806 294.787C846.938 291.115 849.954 286.218 849.454 278.909C849.049 273.033 845.647 270.027 841.796 266.894C845.757 268.881 849.579 272.857 850.129 278.581C850.864 286.072 847.338 291.604 843.047 295.325C837.86 299.805 830.542 302.473 822.324 300.398C835.939 304.549 848.668 294.654 850.479 283.202C851.78 274.972 847.478 270.12 843.387 266.663C842.967 266.311 842.726 266.056 842.151 265.562C847.998 268.539 852.855 275.119 850.934 284.412C848.699 295.232 837.625 303.996 823.34 301.719C825.415 302.532 827.841 302.356 829.932 302.248C836.434 301.891 842.316 298.713 845.467 295.291C849.289 291.129 852.315 285.885 851.73 278.331C851.199 271.476 847.298 268.22 842.526 264.622C844.526 265.407 846.304 266.649 847.713 268.245C850.434 271.071 852.086 274.723 852.395 278.595C852.975 286.385 849.319 292.172 845.302 296.221C841.021 300.544 835.219 303.321 827.846 303.384C839.41 303.727 847.093 296.779 850.819 289.053C852.955 284.647 853.575 278.39 851.82 273.508C850.214 269.014 846.533 265.929 842.916 263.427C849.234 266.732 854.551 272.935 853.395 282.546C853.006 285.865 851.883 289.061 850.104 291.913C846.658 297.572 841.021 301.553 834.699 303.717C839.38 302.738 843.822 299.981 847.088 296.437C851.089 292.113 854.16 286.644 853.96 279.021C853.735 270.815 848.553 266.086 843.262 262.374C843.33 262.384 843.398 262.402 843.462 262.428C849.239 265.199 853.61 270.007 854.521 277.479C855.971 289.274 848.038 297.886 840.686 302.376Z" fill="white"/>
</g>
<g filter="url(#filter4_dd_1297_3413)">
<rect x="982.75" y="213.75" width="208" height="134" rx="24" fill="#EAECF5"/>
<rect x="982.25" y="213.25" width="209" height="135" rx="24.5" stroke="#D6DCE5"/>
<path d="M1108.54 305.455H1138.47V292.045H1123.3V260.71H1108.54V305.455Z" fill="#000008"/>
<path fill-rule="evenodd" clip-rule="evenodd" d="M1016.75 260.974V305.651L1030.09 305.671V292.035H1033.09C1038.41 292.035 1044.47 290.924 1047.23 288.26C1049.98 285.597 1051.11 281.606 1051.11 276.51C1051.18 273.774 1050.67 271.054 1049.61 268.519C1048.75 266.434 1047.24 264.667 1045.29 263.471C1043.35 262.41 1041.25 261.661 1039.07 261.253C1037.34 260.947 1034.22 260.958 1030.7 260.97C1030.01 260.972 1029.29 260.974 1028.57 260.974H1016.75ZM1030.6 283.859C1030.4 283.856 1030.19 283.839 1029.98 283.81L1029.97 270.061V269.312C1032.62 269.312 1035.02 269.67 1036.02 270.718C1037.45 272.236 1037.45 273.817 1037.45 275.719V275.72C1037.45 275.811 1037.45 275.903 1037.45 275.996C1037.45 278.434 1037.42 281.068 1036.45 282.248C1035.82 283.012 1034.73 284.01 1030.6 283.859Z" fill="#000008"/>
<path d="M1155.17 276.142H1141.03V305.519H1155.17V276.142Z" fill="#000008"/>
<path d="M1140.83 260.906H1155.27V273.055H1140.83V260.906Z" fill="#000008"/>
<path fill-rule="evenodd" clip-rule="evenodd" d="M1088.69 302.376C1090.59 301.705 1092.47 300.29 1094.09 298.85C1098.66 294.777 1103.47 287.864 1103.1 279.447C1102.71 270.585 1097.85 264.906 1091.38 261.366C1093.25 261.767 1094.79 262.982 1096.22 264.122C1100.37 267.413 1103.53 272.509 1103.66 279.672C1103.84 289.2 1098.66 295.697 1093.52 300.177C1095.13 299.394 1096.37 297.945 1097.57 296.539C1100.98 292.554 1104.11 286.879 1104.11 279.78C1104.11 269.787 1098.33 264.034 1091.6 260.269C1093.77 260.955 1095.77 262.083 1097.46 263.579C1099.95 265.697 1101.89 268.355 1103.14 271.341C1104.39 274.326 1104.91 277.557 1104.66 280.774C1104.25 287.786 1101.11 294.376 1095.88 299.183C1090.73 304.001 1084.05 306.957 1076.96 307.565C1076.02 307.632 1075.08 307.632 1074.14 307.565C1062.39 306.611 1053.86 299.242 1052.97 287.942C1052.88 286.767 1052.88 285.587 1052.97 284.412C1053.47 277.283 1056.76 271.604 1061.08 267.217C1065.77 262.443 1071.71 258.844 1079.99 258.286C1080.2 257.4 1080.44 256.386 1080.56 255.75C1083.29 258.585 1086.6 261.674 1090.02 265.009C1085.9 267.075 1081.89 269.249 1077.86 271.403C1077.95 270.595 1078.14 269.675 1078.19 269.087C1071.27 270.287 1065.44 275.202 1064.23 282.096C1062.73 290.507 1068.49 296.936 1076.74 296.98C1085.06 297.024 1092.13 290.728 1093.4 283.53C1094.4 277.714 1091.8 273.65 1088.45 270.962C1091.58 272.989 1094.95 276.651 1094.53 282.096C1093.85 290.625 1085.65 297.69 1077.08 297.754C1074.83 297.762 1072.6 297.284 1070.56 296.353C1068.51 295.422 1066.7 294.062 1065.26 292.368C1068.06 296.363 1072.97 298.468 1078.55 298.101C1082.93 297.812 1086.63 295.707 1089.36 293.142C1092.09 290.576 1094.31 286.875 1094.86 283.109C1095.09 281.611 1095.09 280.089 1094.86 278.59C1094.18 274.184 1091.45 272.132 1088.95 269.288C1092.51 272.069 1096.24 275.775 1095.99 281.773C1095.62 290.537 1087.05 298.263 1078.08 298.86C1072.2 299.252 1068.58 297.284 1065.47 294.454C1068.41 298.106 1073.97 299.981 1079.77 299.085C1088.05 297.808 1095.43 291.046 1096.33 282.659C1097.14 275.085 1093.22 271.569 1089.48 267.858C1093.48 270.796 1096.87 274.081 1097.11 280.123C1097.33 285.371 1094.72 290.507 1091.37 293.793C1086.02 299.046 1075.6 302.493 1067.49 297.651C1074.4 302.806 1085.11 299.854 1090.81 294.787C1094.94 291.115 1097.95 286.218 1097.45 278.909C1097.05 273.033 1093.65 270.027 1089.8 266.894C1093.76 268.881 1097.58 272.857 1098.13 278.581C1098.86 286.072 1095.34 291.604 1091.05 295.325C1085.86 299.805 1078.54 302.473 1070.32 300.398C1083.94 304.549 1096.67 294.654 1098.48 283.202C1099.78 274.972 1095.48 270.12 1091.39 266.663C1090.97 266.311 1090.73 266.056 1090.15 265.562C1096 268.539 1100.85 275.119 1098.93 284.412C1096.7 295.232 1085.62 303.996 1071.34 301.719C1073.42 302.532 1075.84 302.356 1077.93 302.248C1084.43 301.891 1090.32 298.713 1093.47 295.291C1097.29 291.129 1100.31 285.885 1099.73 278.331C1099.2 271.476 1095.3 268.22 1090.53 264.622C1092.53 265.407 1094.3 266.649 1095.71 268.245C1098.43 271.071 1100.09 274.723 1100.39 278.595C1100.97 286.385 1097.32 292.172 1093.3 296.221C1089.02 300.544 1083.22 303.321 1075.85 303.384C1087.41 303.727 1095.09 296.779 1098.82 289.053C1100.96 284.647 1101.58 278.39 1099.82 273.508C1098.21 269.014 1094.53 265.929 1090.92 263.427C1097.23 266.732 1102.55 272.935 1101.4 282.546C1101.01 285.865 1099.88 289.061 1098.1 291.913C1094.66 297.572 1089.02 301.553 1082.7 303.717C1087.38 302.738 1091.82 299.981 1095.09 296.437C1099.09 292.113 1102.16 286.644 1101.96 279.021C1101.74 270.815 1096.55 266.086 1091.26 262.374C1091.33 262.384 1091.4 262.402 1091.46 262.428C1097.24 265.199 1101.61 270.007 1102.52 277.479C1103.97 289.274 1096.04 297.886 1088.69 302.376Z" fill="#30469D"/>
</g>
<g filter="url(#filter5_dd_1297_3413)">
<rect x="1230.75" y="213.75" width="208" height="134" rx="24" fill="#393652"/>
<rect x="1230.25" y="213.25" width="209" height="135" rx="24.5" stroke="#D6DCE5"/>
<path d="M1356.54 305.455H1386.47V292.045H1371.3V260.71H1356.54V305.455Z" fill="white"/>
<path fill-rule="evenodd" clip-rule="evenodd" d="M1264.75 260.974V305.651L1278.09 305.671V292.035H1281.09C1286.41 292.035 1292.47 290.924 1295.23 288.26C1297.98 285.597 1299.11 281.606 1299.11 276.51C1299.18 273.774 1298.67 271.054 1297.61 268.519C1296.75 266.434 1295.24 264.667 1293.29 263.471C1291.35 262.41 1289.25 261.661 1287.07 261.253C1285.34 260.947 1282.22 260.958 1278.7 260.97C1278.01 260.972 1277.29 260.974 1276.57 260.974H1264.75ZM1278.6 283.859C1278.4 283.856 1278.19 283.839 1277.98 283.81L1277.97 270.061V269.312C1280.62 269.312 1283.02 269.67 1284.02 270.718C1285.45 272.236 1285.45 273.817 1285.45 275.719V275.72C1285.45 275.811 1285.45 275.903 1285.45 275.996C1285.45 278.434 1285.42 281.068 1284.45 282.248C1283.82 283.012 1282.73 284.01 1278.6 283.859Z" fill="white"/>
<path d="M1403.17 276.142H1389.03V305.519H1403.17V276.142Z" fill="white"/>
<path d="M1388.83 260.906H1403.27V273.055H1388.83V260.906Z" fill="white"/>
<path fill-rule="evenodd" clip-rule="evenodd" d="M1336.69 302.376C1338.59 301.705 1340.47 300.29 1342.09 298.85C1346.66 294.777 1351.47 287.864 1351.1 279.447C1350.71 270.585 1345.85 264.906 1339.38 261.366C1341.25 261.767 1342.79 262.982 1344.22 264.122C1348.37 267.413 1351.53 272.509 1351.66 279.672C1351.84 289.2 1346.66 295.697 1341.52 300.177C1343.13 299.394 1344.37 297.945 1345.57 296.539C1348.98 292.554 1352.11 286.879 1352.11 279.78C1352.11 269.787 1346.33 264.034 1339.6 260.269C1341.77 260.955 1343.77 262.083 1345.46 263.579C1347.95 265.697 1349.89 268.355 1351.14 271.341C1352.39 274.326 1352.91 277.557 1352.66 280.774C1352.25 287.786 1349.11 294.376 1343.88 299.183C1338.73 304.001 1332.05 306.957 1324.96 307.565C1324.02 307.632 1323.08 307.632 1322.14 307.565C1310.39 306.611 1301.86 299.242 1300.97 287.942C1300.88 286.767 1300.88 285.587 1300.97 284.412C1301.47 277.283 1304.76 271.604 1309.08 267.217C1313.77 262.443 1319.71 258.844 1327.99 258.286C1328.2 257.4 1328.44 256.386 1328.56 255.75C1331.29 258.585 1334.6 261.674 1338.02 265.009C1333.9 267.075 1329.89 269.249 1325.86 271.403C1325.95 270.595 1326.14 269.675 1326.19 269.087C1319.27 270.287 1313.44 275.202 1312.23 282.096C1310.73 290.507 1316.49 296.936 1324.74 296.98C1333.06 297.024 1340.13 290.728 1341.4 283.53C1342.4 277.714 1339.8 273.65 1336.45 270.962C1339.58 272.989 1342.95 276.651 1342.53 282.096C1341.85 290.625 1333.65 297.69 1325.08 297.754C1322.83 297.762 1320.6 297.284 1318.56 296.353C1316.51 295.422 1314.7 294.062 1313.26 292.368C1316.06 296.363 1320.97 298.468 1326.55 298.101C1330.93 297.812 1334.63 295.707 1337.36 293.142C1340.09 290.576 1342.31 286.875 1342.86 283.109C1343.09 281.611 1343.09 280.089 1342.86 278.59C1342.18 274.184 1339.45 272.132 1336.95 269.288C1340.51 272.069 1344.24 275.775 1343.99 281.773C1343.62 290.537 1335.05 298.263 1326.08 298.86C1320.2 299.252 1316.58 297.284 1313.47 294.454C1316.41 298.106 1321.97 299.981 1327.77 299.085C1336.05 297.808 1343.43 291.046 1344.33 282.659C1345.14 275.085 1341.22 271.569 1337.48 267.858C1341.48 270.796 1344.87 274.081 1345.11 280.123C1345.33 285.371 1342.72 290.507 1339.37 293.793C1334.02 299.046 1323.6 302.493 1315.49 297.651C1322.4 302.806 1333.11 299.854 1338.81 294.787C1342.94 291.115 1345.95 286.218 1345.45 278.909C1345.05 273.033 1341.65 270.027 1337.8 266.894C1341.76 268.881 1345.58 272.857 1346.13 278.581C1346.86 286.072 1343.34 291.604 1339.05 295.325C1333.86 299.805 1326.54 302.473 1318.32 300.398C1331.94 304.549 1344.67 294.654 1346.48 283.202C1347.78 274.972 1343.48 270.12 1339.39 266.663C1338.97 266.311 1338.73 266.056 1338.15 265.562C1344 268.539 1348.85 275.119 1346.93 284.412C1344.7 295.232 1333.62 303.996 1319.34 301.719C1321.42 302.532 1323.84 302.356 1325.93 302.248C1332.43 301.891 1338.32 298.713 1341.47 295.291C1345.29 291.129 1348.31 285.885 1347.73 278.331C1347.2 271.476 1343.3 268.22 1338.53 264.622C1340.53 265.407 1342.3 266.649 1343.71 268.245C1346.43 271.071 1348.09 274.723 1348.39 278.595C1348.97 286.385 1345.32 292.172 1341.3 296.221C1337.02 300.544 1331.22 303.321 1323.85 303.384C1335.41 303.727 1343.09 296.779 1346.82 289.053C1348.96 284.647 1349.58 278.39 1347.82 273.508C1346.21 269.014 1342.53 265.929 1338.92 263.427C1345.23 266.732 1350.55 272.935 1349.4 282.546C1349.01 285.865 1347.88 289.061 1346.1 291.913C1342.66 297.572 1337.02 301.553 1330.7 303.717C1335.38 302.738 1339.82 299.981 1343.09 296.437C1347.09 292.113 1350.16 286.644 1349.96 279.021C1349.74 270.815 1344.55 266.086 1339.26 262.374C1339.33 262.384 1339.4 262.402 1339.46 262.428C1345.24 265.199 1349.61 270.007 1350.52 277.479C1351.97 289.274 1344.04 297.886 1336.69 302.376Z" fill="white"/>
</g>
</g>
<defs>
<filter id="filter0_dd_1297_3413" x="0" y="0" width="1559.5" height="493.5" filterUnits="userSpaceOnUse" color-interpolation-filters="sRGB">
<feFlood flood-opacity="0" result="BackgroundImageFix"/>
<feColorMatrix in="SourceAlpha" type="matrix" values="0 0 0 0 0 0 0 0 0 0 0 0 0 0 0 0 0 0 127 0" result="hardAlpha"/>
<feOffset dy="20"/>
<feGaussianBlur stdDeviation="20"/>
<feColorMatrix type="matrix" values="0 0 0 0 0.717647 0 0 0 0 0.717647 0 0 0 0 0.717647 0 0 0 0.06 0"/>
<feBlend mode="normal" in2="BackgroundImageFix" result="effect1_dropShadow_1297_3413"/>
<feColorMatrix in="SourceAlpha" type="matrix" values="0 0 0 0 0 0 0 0 0 0 0 0 0 0 0 0 0 0 127 0" result="hardAlpha"/>
<feOffset dy="4"/>
<feGaussianBlur stdDeviation="7"/>
<feColorMatrix type="matrix" values="0 0 0 0 0.716667 0 0 0 0 0.716667 0 0 0 0 0.716667 0 0 0 0.02 0"/>
<feBlend mode="normal" in2="effect1_dropShadow_1297_3413" result="effect2_dropShadow_1297_3413"/>
<feBlend mode="normal" in="SourceGraphic" in2="effect2_dropShadow_1297_3413" result="shape"/>
</filter>
<filter id="filter1_dd_1297_3413" x="79.75" y="192.75" width="408" height="216" filterUnits="userSpaceOnUse" color-interpolation-filters="sRGB">
<feFlood flood-opacity="0" result="BackgroundImageFix"/>
<feColorMatrix in="SourceAlpha" type="matrix" values="0 0 0 0 0 0 0 0 0 0 0 0 0 0 0 0 0 0 127 0" result="hardAlpha"/>
<feOffset dy="2"/>
<feGaussianBlur stdDeviation="10"/>
<feColorMatrix type="matrix" values="0 0 0 0 0.717647 0 0 0 0 0.717647 0 0 0 0 0.717647 0 0 0 0.08 0"/>
<feBlend mode="normal" in2="BackgroundImageFix" result="effect1_dropShadow_1297_3413"/>
<feColorMatrix in="SourceAlpha" type="matrix" values="0 0 0 0 0 0 0 0 0 0 0 0 0 0 0 0 0 0 127 0" result="hardAlpha"/>
<feOffset dy="20"/>
<feGaussianBlur stdDeviation="20"/>
<feColorMatrix type="matrix" values="0 0 0 0 0.717647 0 0 0 0 0.717647 0 0 0 0 0.717647 0 0 0 0.08 0"/>
<feBlend mode="normal" in2="effect1_dropShadow_1297_3413" result="effect2_dropShadow_1297_3413"/>
<feBlend mode="normal" in="SourceGraphic" in2="effect2_dropShadow_1297_3413" result="shape"/>
</filter>
<filter id="filter2_dd_1297_3413" x="445.75" y="192.75" width="290" height="216" filterUnits="userSpaceOnUse" color-interpolation-filters="sRGB">
<feFlood flood-opacity="0" result="BackgroundImageFix"/>
<feColorMatrix in="SourceAlpha" type="matrix" values="0 0 0 0 0 0 0 0 0 0 0 0 0 0 0 0 0 0 127 0" result="hardAlpha"/>
<feOffset dy="2"/>
<feGaussianBlur stdDeviation="10"/>
<feColorMatrix type="matrix" values="0 0 0 0 0.717647 0 0 0 0 0.717647 0 0 0 0 0.717647 0 0 0 0.08 0"/>
<feBlend mode="normal" in2="BackgroundImageFix" result="effect1_dropShadow_1297_3413"/>
<feColorMatrix in="SourceAlpha" type="matrix" values="0 0 0 0 0 0 0 0 0 0 0 0 0 0 0 0 0 0 127 0" result="hardAlpha"/>
<feOffset dy="20"/>
<feGaussianBlur stdDeviation="20"/>
<feColorMatrix type="matrix" values="0 0 0 0 0.717647 0 0 0 0 0.717647 0 0 0 0 0.717647 0 0 0 0.08 0"/>
<feBlend mode="normal" in2="effect1_dropShadow_1297_3413" result="effect2_dropShadow_1297_3413"/>
<feBlend mode="normal" in="SourceGraphic" in2="effect2_dropShadow_1297_3413" result="shape"/>
</filter>
<filter id="filter3_dd_1297_3413" x="693.75" y="192.75" width="290" height="216" filterUnits="userSpaceOnUse" color-interpolation-filters="sRGB">
<feFlood flood-opacity="0" result="BackgroundImageFix"/>
<feColorMatrix in="SourceAlpha" type="matrix" values="0 0 0 0 0 0 0 0 0 0 0 0 0 0 0 0 0 0 127 0" result="hardAlpha"/>
<feOffset dy="2"/>
<feGaussianBlur stdDeviation="10"/>
<feColorMatrix type="matrix" values="0 0 0 0 0.717647 0 0 0 0 0.717647 0 0 0 0 0.717647 0 0 0 0.08 0"/>
<feBlend mode="normal" in2="BackgroundImageFix" result="effect1_dropShadow_1297_3413"/>
<feColorMatrix in="SourceAlpha" type="matrix" values="0 0 0 0 0 0 0 0 0 0 0 0 0 0 0 0 0 0 127 0" result="hardAlpha"/>
<feOffset dy="20"/>
<feGaussianBlur stdDeviation="20"/>
<feColorMatrix type="matrix" values="0 0 0 0 0.717647 0 0 0 0 0.717647 0 0 0 0 0.717647 0 0 0 0.08 0"/>
<feBlend mode="normal" in2="effect1_dropShadow_1297_3413" result="effect2_dropShadow_1297_3413"/>
<feBlend mode="normal" in="SourceGraphic" in2="effect2_dropShadow_1297_3413" result="shape"/>
</filter>
<filter id="filter4_dd_1297_3413" x="941.75" y="192.75" width="290" height="216" filterUnits="userSpaceOnUse" color-interpolation-filters="sRGB">
<feFlood flood-opacity="0" result="BackgroundImageFix"/>
<feColorMatrix in="SourceAlpha" type="matrix" values="0 0 0 0 0 0 0 0 0 0 0 0 0 0 0 0 0 0 127 0" result="hardAlpha"/>
<feOffset dy="2"/>
<feGaussianBlur stdDeviation="10"/>
<feColorMatrix type="matrix" values="0 0 0 0 0.717647 0 0 0 0 0.717647 0 0 0 0 0.717647 0 0 0 0.08 0"/>
<feBlend mode="normal" in2="BackgroundImageFix" result="effect1_dropShadow_1297_3413"/>
<feColorMatrix in="SourceAlpha" type="matrix" values="0 0 0 0 0 0 0 0 0 0 0 0 0 0 0 0 0 0 127 0" result="hardAlpha"/>
<feOffset dy="20"/>
<feGaussianBlur stdDeviation="20"/>
<feColorMatrix type="matrix" values="0 0 0 0 0.717647 0 0 0 0 0.717647 0 0 0 0 0.717647 0 0 0 0.08 0"/>
<feBlend mode="normal" in2="effect1_dropShadow_1297_3413" result="effect2_dropShadow_1297_3413"/>
<feBlend mode="normal" in="SourceGraphic" in2="effect2_dropShadow_1297_3413" result="shape"/>
</filter>
<filter id="filter5_dd_1297_3413" x="1189.75" y="192.75" width="290" height="216" filterUnits="userSpaceOnUse" color-interpolation-filters="sRGB">
<feFlood flood-opacity="0" result="BackgroundImageFix"/>
<feColorMatrix in="SourceAlpha" type="matrix" values="0 0 0 0 0 0 0 0 0 0 0 0 0 0 0 0 0 0 127 0" result="hardAlpha"/>
<feOffset dy="2"/>
<feGaussianBlur stdDeviation="10"/>
<feColorMatrix type="matrix" values="0 0 0 0 0.717647 0 0 0 0 0.717647 0 0 0 0 0.717647 0 0 0 0.08 0"/>
<feBlend mode="normal" in2="BackgroundImageFix" result="effect1_dropShadow_1297_3413"/>
<feColorMatrix in="SourceAlpha" type="matrix" values="0 0 0 0 0 0 0 0 0 0 0 0 0 0 0 0 0 0 127 0" result="hardAlpha"/>
<feOffset dy="20"/>
<feGaussianBlur stdDeviation="20"/>
<feColorMatrix type="matrix" values="0 0 0 0 0.717647 0 0 0 0 0.717647 0 0 0 0 0.717647 0 0 0 0.08 0"/>
<feBlend mode="normal" in2="effect1_dropShadow_1297_3413" result="effect2_dropShadow_1297_3413"/>
<feBlend mode="normal" in="SourceGraphic" in2="effect2_dropShadow_1297_3413" result="shape"/>
</filter>
</defs>
</svg>
