<svg id="Layer_1" height="512" viewBox="0 0 500 500" width="512" xmlns="http://www.w3.org/2000/svg" xmlns:xlink="http://www.w3.org/1999/xlink" data-name="Layer 1"><linearGradient id="linear-gradient" gradientTransform="matrix(458.33 0 0 -270.83 20.83 135437.51)" gradientUnits="userSpaceOnUse" x1=".5" x2=".5" y1="499.97" y2="499.01"><stop offset="0" stop-color="#9aa6e2"/><stop offset="1" stop-color="#7283d6"/></linearGradient><linearGradient id="linear-gradient-2" gradientTransform="matrix(457.29 0 0 -83.33 20.83 41875.01)" gradientUnits="userSpaceOnUse" x1=".5" x2=".5" y1="499.97" y2="499.01"><stop offset="0" stop-color="#7283d6" stop-opacity="0"/><stop offset="1" stop-color="#4d62cb"/></linearGradient><linearGradient id="linear-gradient-3" gradientTransform="matrix(250 0 0 -302.08 125 151218.76)" gradientUnits="userSpaceOnUse" x1=".5" x2=".5" y1="499.99" y2="499.01"><stop offset="0" stop-color="#eaecf7"/><stop offset="1" stop-color="#cdd3f1"/></linearGradient><linearGradient id="linear-gradient-4" gradientTransform="matrix(250 0 0 -41.67 125 21270.84)" gradientUnits="userSpaceOnUse" x1=".5" x2=".5" y1="499.99" y2="498.8"><stop offset="0" stop-color="#e2e5f4" stop-opacity="0"/><stop offset="1" stop-color="#9aa6e2"/></linearGradient><g id="Cloud_Download" data-name="Cloud Download"><g id="Group"><path id="Path" d="m479.17 192.71c0-54.17-44.79-99-99-99h-10.38c-22.92-43.71-67.71-72.88-119.79-72.88-64.58 0-118.75 44.79-132.29 105.21-4.17-1-9.37-1-13.54-1a83.33 83.33 0 0 0 0 166.67h281.25c52.08-3.17 93.75-45.88 93.75-99z" fill="url(#linear-gradient)"/><path id="Path-2" d="m20.83 208.33a83.58 83.58 0 0 0 83.33 83.33h281.26c46.88-2.08 85.42-37.5 92.71-83.33z" fill="url(#linear-gradient-2)" data-name="Path"/><path id="Path-3" d="m354.17 479.17h-208.34a20.89 20.89 0 0 1 -20.83-20.84v-260.41a20.89 20.89 0 0 1 20.83-20.83h166.67v41.67a20.89 20.89 0 0 0 20.83 20.83h41.67v218.74a20.89 20.89 0 0 1 -20.83 20.84z" fill="url(#linear-gradient-3)" data-name="Path"/><path id="Path-4" d="m125 437.5v20.83a20.89 20.89 0 0 0 20.83 20.83h208.34a20.89 20.89 0 0 0 20.83-20.83v-20.83z" fill="url(#linear-gradient-4)" data-name="Path"/><g fill="#9aa6e2"><path id="Path-5" d="m375 239.58h-41.67a20.89 20.89 0 0 1 -20.83-20.83v-41.67z" data-name="Path"/><path id="Path-6" d="m299 351a10.07 10.07 0 0 0 -14.58 0l-24 24v-83.33c0-6.25-4.17-10.42-10.42-10.42s-10.42 4.17-10.42 10.42v83.33l-24-24a10.31 10.31 0 0 0 -14.58 14.62l34.42 34.38a20.14 20.14 0 0 0 29.17 0l34.41-34.38a10.07 10.07 0 0 0 0-14.62z" data-name="Path"/></g></g></g></svg>