<svg id="Layer_1" height="512" viewBox="0 0 500 500" width="512" xmlns="http://www.w3.org/2000/svg" xmlns:xlink="http://www.w3.org/1999/xlink" data-name="Layer 1"><linearGradient id="linear-gradient" gradientTransform="matrix(354.17 0 0 -458.33 72.92 229187.51)" gradientUnits="userSpaceOnUse" x1=".5" x2=".5" y1="499.97" y2="499.03"><stop offset="0" stop-color="#eaecf7"/><stop offset="1" stop-color="#cdd3f1"/></linearGradient><linearGradient id="linear-gradient-2" gradientTransform="matrix(354.17 0 0 -72.92 72.92 36864.59)" gradientUnits="userSpaceOnUse" x1=".5" x2=".5" y1="499.88" y2="499"><stop offset="0" stop-color="#e2e5f4" stop-opacity="0"/><stop offset="1" stop-color="#9aa6e2"/></linearGradient><linearGradient id="linear-gradient-3" gradientTransform="matrix(395.83 0 0 -187.5 52.08 93927.08)" gradientUnits="userSpaceOnUse" x1=".5" x2=".5" y1="499.99" y2="499"><stop offset="0" stop-color="#14a5ff"/><stop offset="1" stop-color="#037cff"/></linearGradient><linearGradient id="linear-gradient-4" gradientTransform="matrix(104.17 0 0 -104.17 197.92 52302.09)" gradientUnits="userSpaceOnUse" x1=".5" x2=".5" y1="499.98" y2="498.97"><stop offset="0" stop-color="#037cff"/><stop offset="1" stop-color="#14a5ff" stop-opacity="0"/></linearGradient><linearGradient id="linear-gradient-5" gradientTransform="matrix(93.75 0 0 -104.17 104.17 52302.09)" x2=".5" xlink:href="#linear-gradient-4" y1="499.98" y2="498.97"/><linearGradient id="linear-gradient-6" gradientTransform="matrix(93.75 0 0 -104.17 302.08 52302.09)" x2=".5" xlink:href="#linear-gradient-4" y1="499.98" y2="498.97"/><linearGradient id="linear-gradient-7" gradientTransform="matrix(395.83 0 0 -52.08 52.08 26354.17)" gradientUnits="userSpaceOnUse" x1=".5" x2=".5" y1="499.99" y2="499"><stop offset="0" stop-color="#037cff" stop-opacity="0"/><stop offset="1" stop-color="#0063cc"/></linearGradient><linearGradient id="linear-gradient-8" gradientTransform="matrix(83.33 0 0 -83.33 208.33 41895.83)" x1=".5" x2=".5" xlink:href="#linear-gradient" y1="499.98" y2="498.97"/><linearGradient id="linear-gradient-9" gradientTransform="matrix(72.92 0 0 -83.33 114.58 41895.83)" x1=".5" x2=".5" xlink:href="#linear-gradient" y1="499.98" y2="498.97"/><linearGradient id="linear-gradient-10" gradientTransform="matrix(72.92 0 0 -83.33 312.5 41895.83)" x1=".5" x2=".5" xlink:href="#linear-gradient" y1="499.98" y2="498.97"/><g id="Fitness_Bench" data-name="Fitness Bench"><g id="Group"><path id="Path" d="m406.25 479.17h-312.5a20.89 20.89 0 0 1 -20.83-20.83v-416.67a20.89 20.89 0 0 1 20.83-20.84h270.83v41.67a20.89 20.89 0 0 0 20.83 20.83h41.67v375a20.89 20.89 0 0 1 -20.83 20.84z" fill="url(#linear-gradient)"/><path id="Path-2" d="m406.25 479.17h-312.5a20.89 20.89 0 0 1 -20.83-20.83v-52.09h354.16v52.08a20.89 20.89 0 0 1 -20.83 20.84z" fill="url(#linear-gradient-2)" data-name="Path"/><path id="Path-3" d="m427.08 83.33h-41.66a20.89 20.89 0 0 1 -20.84-20.83v-41.67z" fill="#9aa6e2" data-name="Path"/><path id="Path-4" d="m427.08 364.58h-354.16a20.89 20.89 0 0 1 -20.83-20.83v-145.83a20.89 20.89 0 0 1 20.83-20.83h354.16a20.89 20.89 0 0 1 20.83 20.83v145.83a20.89 20.89 0 0 1 -20.83 20.83z" fill="url(#linear-gradient-3)" data-name="Path"/><path id="Shape" d="m218.75 322.92a20.89 20.89 0 0 1 -20.83-20.83v-62.5a20.89 20.89 0 0 1 20.83-20.83h31.25a52.08 52.08 0 0 1 0 104.17zm31.25-41.67c6.25 0 10.42-4.17 10.42-10.42s-4.17-10.42-10.42-10.42h-10.42v20.83z" fill="url(#linear-gradient-4)"/><path id="Path-5" d="m125 322.92a20.89 20.89 0 0 1 -20.83-20.83v-62.5a20.89 20.89 0 0 1 20.83-20.84h36.46c19.79 0 36.46 16.67 36.46 36.46s-16.67 36.46-36.46 36.46h-15.63v10.42a20.89 20.89 0 0 1 -20.83 20.83z" fill="url(#linear-gradient-5)" data-name="Path"/><path id="Path-6" d="m322.92 322.92a20.89 20.89 0 0 1 -20.83-20.83v-62.5a20.89 20.89 0 0 1 20.83-20.83h52.08a20.89 20.89 0 0 1 20.83 20.83c0 6.25-3.12 11.46-7.29 15.63 4.17 4.17 7.29 9.38 7.29 15.63a20.89 20.89 0 0 1 -20.83 20.82h-31.25v10.42a20.89 20.89 0 0 1 -20.83 20.83z" fill="url(#linear-gradient-6)" data-name="Path"/><path id="Path-7" d="m427.08 364.58h-354.16a20.89 20.89 0 0 1 -20.83-20.83v-31.25h395.83v31.25a20.89 20.89 0 0 1 -20.84 20.83z" fill="url(#linear-gradient-7)" data-name="Path"/><path id="Shape-2" d="m250 229.17h-31.25c-6.25 0-10.42 4.17-10.42 10.42v62.5c0 6.25 4.17 10.42 10.42 10.42h31.25a41.67 41.67 0 0 0 0-83.33zm0 62.5h-20.83v-41.67h20.83a20.83 20.83 0 0 1 0 41.67z" fill="url(#linear-gradient-8)" data-name="Shape"/><path id="Shape-3" d="m161.46 229.17h-36.46c-6.25 0-10.42 4.17-10.42 10.42v62.5c0 6.25 4.17 10.42 10.42 10.42s10.42-4.17 10.42-10.42v-20.84h26a26 26 0 0 0 0-52.08zm0 31.25h-26v-10.42h26a5.21 5.21 0 0 1 0 10.42z" fill="url(#linear-gradient-9)" data-name="Shape"/><path id="Path-8" d="m375 260.42h-41.67v-10.42h41.67c6.25 0 10.42-4.17 10.42-10.42s-4.17-10.42-10.42-10.42h-52.08c-6.25 0-10.42 4.17-10.42 10.42v62.5c0 6.25 4.17 10.42 10.42 10.42s10.42-4.17 10.42-10.42v-20.83h41.66c6.25 0 10.42-4.17 10.42-10.42s-4.17-10.41-10.42-10.41z" fill="url(#linear-gradient-10)" data-name="Path"/></g></g></svg>