<svg id="Layer_1" height="512" viewBox="0 0 500 500" width="512" xmlns="http://www.w3.org/2000/svg" xmlns:xlink="http://www.w3.org/1999/xlink" data-name="Layer 1"><linearGradient id="linear-gradient" gradientTransform="matrix(312.5 0 0 -104.17 145.83 52156.25)" gradientUnits="userSpaceOnUse" x1=".5" x2=".5" y1="499.51" y2="500.26"><stop offset="0" stop-color="#f7ae30"/><stop offset="1" stop-color="#ffca4f"/></linearGradient><linearGradient id="linear-gradient-2" gradientTransform="matrix(218.75 0 0 -104.17 145.83 52156.25)" gradientUnits="userSpaceOnUse" x1=".35" x2=".49" y1="499.43" y2="499.5"><stop offset="0" stop-color="#f4901f"/><stop offset=".2" stop-color="#f69c29" stop-opacity=".8"/><stop offset="1" stop-color="#ffca4f" stop-opacity="0"/></linearGradient><linearGradient id="linear-gradient-3" gradientTransform="matrix(312.5 0 0 -83.33 145.83 41760.42)" gradientUnits="userSpaceOnUse" x1=".5" x2=".5" y1="499.56" y2="499.96"><stop offset="0" stop-color="#f4901f"/><stop offset="1" stop-color="#ffca4f" stop-opacity="0"/></linearGradient><linearGradient id="linear-gradient-4" gradientTransform="matrix(458.33 0 0 -375 20.83 187562.5)" gradientUnits="userSpaceOnUse" x1=".5" x2=".5" y1="499.78" y2="499.01"><stop offset="0" stop-color="#ffca4f"/><stop offset="1" stop-color="#f7ae30"/></linearGradient><linearGradient id="linear-gradient-5" gradientTransform="matrix(458.33 0 0 -72.92 20.83 36822.91000000001)" gradientUnits="userSpaceOnUse" x1=".5" x2=".5" y1="499.75" y2="499.15"><stop offset="0" stop-color="#ffca4f" stop-opacity="0"/><stop offset="1" stop-color="#f4901f"/></linearGradient><linearGradient id="linear-gradient-6" gradientTransform="matrix(83.33 0 0 -20.83 72.92 10708.33)" gradientUnits="userSpaceOnUse" x1=".5" x2=".5" y1="499.98" y2="498.83"><stop offset="0" stop-color="#e28b5a"/><stop offset="1" stop-color="#b35e3e"/></linearGradient><linearGradient id="linear-gradient-7" gradientTransform="matrix(177.08 0 0 -20.83 72.92 10760.42)" x1=".5" x2=".5" xlink:href="#linear-gradient-6" y1="499.96" y2="499"/><g id="Folder"><g id="Group"><path id="Path" d="m458.33 177.08h-312.5v-104.16h291.67a20.89 20.89 0 0 1 20.83 20.83z" fill="url(#linear-gradient)"/><path id="Path-2" d="m364.58 177.08h-218.75v-104.16h83.34z" fill="url(#linear-gradient-2)" data-name="Path"/><path id="Rectangle" d="m145.83 93.75h312.5v83.33h-312.5z" fill="url(#linear-gradient-3)"/><path id="Path-3" d="m458.33 437.5h-416.66a20.89 20.89 0 0 1 -20.83-20.83v-333.34a20.89 20.89 0 0 1 20.83-20.83h86.46c4.17 0 9.38 1 12.5 4.17l71.88 54.17c3.12 3.16 8.32 4.16 12.49 4.16h233.33a20.89 20.89 0 0 1 20.83 20.83v270.84a20.89 20.89 0 0 1 -20.83 20.83z" fill="url(#linear-gradient-4)" data-name="Path"/><path id="Path-4" d="m20.83 364.58v52.08a20.89 20.89 0 0 0 20.84 20.84h416.66a20.89 20.89 0 0 0 20.83-20.83v-52.09z" fill="url(#linear-gradient-5)" data-name="Path"/><path id="Path-5" d="m145.83 312.5h-62.5c-6.25 0-10.42-4.17-10.42-10.42s4.17-10.42 10.42-10.42h62.5c6.25 0 10.42 4.17 10.42 10.42s-4.17 10.42-10.42 10.42z" fill="url(#linear-gradient-6)" data-name="Path"/><path id="Path-6" d="m239.58 364.58h-156.25c-6.25 0-10.42-4.17-10.42-10.42s4.17-10.42 10.42-10.42h156.25c6.25 0 10.42 4.17 10.42 10.42s-4.17 10.42-10.42 10.42z" fill="url(#linear-gradient-7)" data-name="Path"/></g></g></svg>