<svg id="Layer_1" height="512" viewBox="0 0 500 500" width="512" xmlns="http://www.w3.org/2000/svg" xmlns:xlink="http://www.w3.org/1999/xlink" data-name="Layer 1"><linearGradient id="linear-gradient" gradientTransform="matrix(354.17 0 0 -458.33 72.92 229187.51)" gradientUnits="userSpaceOnUse" x1=".5" x2=".5" y1="499.97" y2="499.03"><stop offset="0" stop-color="#eaecf7"/><stop offset="1" stop-color="#cdd3f1"/></linearGradient><linearGradient id="linear-gradient-2" gradientTransform="matrix(354.17 0 0 -72.92 72.92 36864.59)" gradientUnits="userSpaceOnUse" x1=".5" x2=".5" y1="499.88" y2="499"><stop offset="0" stop-color="#e2e5f4" stop-opacity="0"/><stop offset="1" stop-color="#9aa6e2"/></linearGradient><linearGradient id="linear-gradient-3" gradientTransform="matrix(166.2 0 0 -155.21 167.71 77780.21)" gradientUnits="userSpaceOnUse" x1="-.01" x2=".98" y1="499.92" y2="499.09"><stop offset="0" stop-color="#9aa6e2"/><stop offset="1" stop-color="#7283d6"/></linearGradient><g id="Search_File" data-name="Search File"><g id="Group"><path id="Path" d="m406.25 479.17h-312.5a20.89 20.89 0 0 1 -20.83-20.83v-416.67a20.89 20.89 0 0 1 20.83-20.84h270.83v41.67a20.89 20.89 0 0 0 20.83 20.83h41.67v375a20.89 20.89 0 0 1 -20.83 20.84z" fill="url(#linear-gradient)"/><path id="Path-2" d="m406.25 479.17h-312.5a20.89 20.89 0 0 1 -20.83-20.83v-52.09h354.16v52.08a20.89 20.89 0 0 1 -20.83 20.84z" fill="url(#linear-gradient-2)" data-name="Path"/><path id="Path-3" d="m427.08 83.33h-41.66a20.89 20.89 0 0 1 -20.84-20.83v-41.67z" fill="#9aa6e2" data-name="Path"/><path id="Shape" d="m330.21 314.58-47.92-41.67a63.69 63.69 0 0 0 10.42-34.37 62.5 62.5 0 1 0 -62.5 62.5c14.58 0 27.08-5.21 38.54-13.54l49 41.67c2.08 2.08 4.17 2.08 7.29 2.08a11.83 11.83 0 0 0 8.33-3.12c1.01-3.13 1.01-9.38-3.16-13.55zm-101-33.33a41.67 41.67 0 1 1 41.67-41.67 41.79 41.79 0 0 1 -41.71 41.67z" fill="url(#linear-gradient-3)"/></g></g></svg>