<svg width="80" height="144" viewBox="0 0 80 144" fill="none" xmlns="http://www.w3.org/2000/svg">
<rect x="80" width="16" height="16" transform="rotate(90 80 0)" fill="#1E1E1E"/>
<rect x="64" y="16" width="16" height="16" transform="rotate(90 64 16)" fill="#1E1E1E"/>
<rect x="48" y="32" width="16" height="16" transform="rotate(90 48 32)" fill="#1E1E1E"/>
<rect x="32" y="48" width="16" height="16" transform="rotate(90 32 48)" fill="#1E1E1E"/>
<rect x="16" y="64" width="16" height="16" transform="rotate(90 16 64)" fill="#1E1E1E"/>
<rect x="32" y="80" width="16" height="16" transform="rotate(90 32 80)" fill="#1E1E1E"/>
<rect x="48" y="96" width="16" height="16" transform="rotate(90 48 96)" fill="#1E1E1E"/>
<rect x="64" y="112" width="16" height="16" transform="rotate(90 64 112)" fill="#1E1E1E"/>
<rect x="80" y="128" width="16" height="16" transform="rotate(90 80 128)" fill="#1E1E1E"/>
</svg>
