<svg width="176" height="160" viewBox="0 0 176 160" fill="none" xmlns="http://www.w3.org/2000/svg">
<rect y="80" width="16" height="16" fill="#1E1E1E"/>
<rect y="96" width="16" height="16" fill="#1E1E1E"/>
<rect y="64" width="16" height="16" fill="#1E1E1E"/>
<rect x="16" y="64" width="16" height="16" fill="#1E1E1E"/>
<rect x="32" y="64" width="16" height="16" fill="#1E1E1E"/>
<rect x="48" y="48" width="16" height="16" fill="#1E1E1E"/>
<rect x="48" y="112" width="16" height="16" fill="#1E1E1E"/>
<rect x="64" y="128" width="16" height="16" fill="#1E1E1E"/>
<rect x="64" y="32" width="16" height="16" fill="#1E1E1E"/>
<rect x="80" y="16" width="16" height="16" fill="#1E1E1E"/>
<rect x="96" y="16" width="16" height="16" fill="#1E1E1E"/>
<rect x="112" y="16" width="16" height="16" fill="#1E1E1E"/>
<rect x="80" y="144" width="16" height="16" fill="#1E1E1E"/>
<rect x="96" y="144" width="16" height="16" fill="#1E1E1E"/>
<rect x="112" y="144" width="16" height="16" fill="#1E1E1E"/>
<rect x="128" y="128" width="16" height="16" fill="#1E1E1E"/>
<rect x="128" y="112" width="16" height="16" fill="#1E1E1E"/>
<rect x="128" y="96" width="16" height="16" fill="#1E1E1E"/>
<rect x="128" y="80" width="16" height="16" fill="#1E1E1E"/>
<rect x="128" y="64" width="16" height="16" fill="#1E1E1E"/>
<rect x="128" y="48" width="16" height="16" fill="#1E1E1E"/>
<rect x="128" y="32" width="16" height="16" fill="#1E1E1E"/>
<rect x="16" y="144" width="16" height="16" fill="#1E1E1E"/>
<rect x="80" y="80" width="16" height="16" fill="#1E1E1E"/>
<rect x="144" y="16" width="16" height="16" fill="#1E1E1E"/>
<rect x="32" y="128" width="16" height="16" fill="#1E1E1E"/>
<rect x="96" y="64" width="16" height="16" fill="#1E1E1E"/>
<rect x="160" width="16" height="16" fill="#1E1E1E"/>
<rect x="112" y="48" width="16" height="16" fill="#1E1E1E"/>
<rect x="64" y="96" width="16" height="16" fill="#1E1E1E"/>
<rect x="16" y="96" width="16" height="16" fill="#1E1E1E"/>
<rect x="32" y="96" width="16" height="16" fill="#1E1E1E"/>
<rect x="32" y="80" width="16" height="16" fill="#1E1E1E"/>
<rect x="16" y="80" width="16" height="16" fill="#1E1E1E"/>
</svg>
