<svg width="32" height="32" viewBox="0 0 32 32" fill="none" xmlns="http://www.w3.org/2000/svg">
<g clip-path="url(#clip0_1128_4755)">
<path d="M30.48 19.045H28.95V16H27.43V19.05H22.86V20.57H21.33V26.67H22.86V28.19H24.38V29.72H25.91V28.19H28.95V26.67H30.48V25.15H32V20.57H30.48V19.045ZM25.91 25.145H24.38V22.1H25.91V25.145ZM28.95 25.145H27.43V22.1H28.95V25.145Z" fill="#000001"/>
<path d="M27.43 14.475H25.91V15.995H27.43V14.475Z" fill="#000001"/>
<path d="M25.91 15.995H24.38V17.525H25.91V15.995Z" fill="#000001"/>
<path d="M25.91 11.425H24.38V14.475H25.91V11.425Z" fill="#000001"/>
<path d="M24.38 9.905H21.33V11.425H24.38V9.905Z" fill="#000001"/>
<path d="M24.38 3.80499H22.86V5.33499H24.38V3.80499Z" fill="#000001"/>
<path d="M24.38 29.715H21.33V31.235H24.38V29.715Z" fill="#000001"/>
<path d="M21.3299 28.185H12.1899V29.715H21.3299V28.185Z" fill="#000001"/>
<path d="M21.3301 15.995H19.8101V17.525H21.3301V15.995Z" fill="#000001"/>
<path d="M19.81 8.375H18.29V9.905H19.81V8.375Z" fill="#000001"/>
<path d="M19.81 3.805H21.33V2.285H19.81V0.764999H18.29V2.285H16.76V3.805H18.29V5.335H19.81V3.805Z" fill="#000001"/>
<path d="M21.33 14.475V11.425H19.81V12.955H18.29V11.425H16.76V14.475H21.33Z" fill="#000001"/>
<path d="M16.76 9.905H13.71V11.425H16.76V9.905Z" fill="#000001"/>
<path d="M16.76 5.33501H15.24V6.85501H16.76V5.33501Z" fill="#000001"/>
<path d="M13.7099 3.80499H12.1899V8.37499H13.7099V3.80499Z" fill="#000001"/>
<path d="M13.71 14.475V11.425H12.19V12.955H9.14001V14.475H13.71Z" fill="#000001"/>
<path d="M12.19 8.375H10.67V9.905H12.19V8.375Z" fill="#000001"/>
<path d="M12.19 2.285H10.67V3.805H12.19V2.285Z" fill="#000001"/>
<path d="M12.19 29.715H9.14001V31.235H12.19V29.715Z" fill="#000001"/>
<path d="M9.14 26.665H7.62V29.715H9.14V26.665Z" fill="#000001"/>
<path d="M9.14 14.475H7.62V15.995H9.14V14.475Z" fill="#000001"/>
<path d="M10.67 9.905H6.09998V11.425H10.67V9.905Z" fill="#000001"/>
<path d="M10.67 3.80499H6.09998V8.37499H10.67V3.80499Z" fill="#000001"/>
<path d="M10.67 0.764999H6.09998V2.285H10.67V0.764999Z" fill="#000001"/>
<path d="M7.61998 25.145H6.09998V26.665H7.61998V25.145Z" fill="#000001"/>
<path d="M7.61998 15.995H6.09998V17.525H7.61998V15.995Z" fill="#000001"/>
<path d="M6.09995 17.525H4.56995V25.145H6.09995V17.525Z" fill="#000001"/>
<path d="M6.09995 8.375H4.56995V9.905H6.09995V8.375Z" fill="#000001"/>
<path d="M6.09995 2.285H4.56995V3.805H6.09995V2.285Z" fill="#000001"/>
<path d="M4.57005 12.955H3.05005V14.475H4.57005V12.955Z" fill="#000001"/>
<path d="M4.57005 3.80499H3.05005V8.37499H4.57005V3.80499Z" fill="#000001"/>
<path d="M3.05002 14.475H1.52002V15.995H3.05002V14.475Z" fill="#000001"/>
<path d="M3.05002 11.425H1.52002V12.955H3.05002V11.425Z" fill="#000001"/>
<path d="M3.05002 0.764999H1.52002V2.285H3.05002V0.764999Z" fill="#000001"/>
<path d="M1.52 12.955H0V14.475H1.52V12.955Z" fill="#000001"/>
<path d="M1.52 6.855H0V8.375H1.52V6.855Z" fill="#000001"/>
</g>
<defs>
<clipPath id="clip0_1128_4755">
<rect width="32" height="32" fill="white"/>
</clipPath>
</defs>
</svg>
