<svg width="32" height="32" viewBox="0 0 32 32" fill="none" xmlns="http://www.w3.org/2000/svg">
<g clip-path="url(#clip0_1128_4163)">
<path d="M28.19 9.14V10.67H26.67V12.19H28.19V13.72H29.71V12.19H31.24V10.67H29.71V9.14H28.19Z" fill="#000001"/>
<path d="M29.7101 25.91H28.1901V27.43H29.7101V25.91Z" fill="#000001"/>
<path d="M25.14 24.38H23.62V25.91H25.14V27.43H26.67V19.81H25.14V24.38Z" fill="#000001"/>
<path d="M26.67 4.57H25.14V6.1H26.67V4.57Z" fill="#000001"/>
<path d="M25.14 18.29H23.62V19.81H25.14V18.29Z" fill="#000001"/>
<path d="M20.57 4.57V3.05H19.05V1.52H17.52V0H12.95V1.52H11.43V3.05H9.89998V4.57H8.37999V16.76H6.85999V18.29H8.37999V22.86H6.85999V24.38H9.89998V7.62H20.57V24.38H23.62V22.86H22.1V18.29H23.62V16.76H22.1V4.57H20.57Z" fill="#000001"/>
<path d="M19.05 27.43H17.52V30.48H19.05V27.43Z" fill="#000001"/>
<path d="M20.57 24.38H9.90002V25.91H20.57V24.38Z" fill="#000001"/>
<path d="M17.52 18.29H16V19.81H17.52V18.29Z" fill="#000001"/>
<path d="M17.52 10.67H16V12.19H17.52V10.67Z" fill="#000001"/>
<path d="M16 27.43H14.48V32H16V27.43Z" fill="#000001"/>
<path d="M16 19.81H14.48V21.33H16V19.81Z" fill="#000001"/>
<path d="M16 16.76H14.48V18.29H16V16.76Z" fill="#000001"/>
<path d="M16 12.19H14.48V13.72H16V12.19Z" fill="#000001"/>
<path d="M16 9.14H14.48V10.67H16V9.14Z" fill="#000001"/>
<path d="M14.48 18.29H12.95V19.81H14.48V18.29Z" fill="#000001"/>
<path d="M14.48 10.67H12.95V12.19H14.48V10.67Z" fill="#000001"/>
<path d="M12.9501 27.43H11.4301V30.48H12.9501V27.43Z" fill="#000001"/>
<path d="M6.85996 18.29H5.32996V19.81H6.85996V18.29Z" fill="#000001"/>
<path d="M5.33006 19.81H3.81006V27.43H5.33006V25.91H6.86006V24.38H5.33006V19.81Z" fill="#000001"/>
<path d="M5.33006 4.57H3.81006V6.1H5.33006V4.57Z" fill="#000001"/>
<path d="M3.81004 12.19H2.29004V13.72H3.81004V12.19Z" fill="#000001"/>
<path d="M3.81004 6.1H2.29004V7.62H3.81004V6.1Z" fill="#000001"/>
<path d="M3.81004 3.05H2.29004V4.57H3.81004V3.05Z" fill="#000001"/>
<path d="M2.29001 28.95H0.76001V30.48H2.29001V28.95Z" fill="#000001"/>
<path d="M2.29001 4.57H0.76001V6.1H2.29001V4.57Z" fill="#000001"/>
</g>
<defs>
<clipPath id="clip0_1128_4163">
<rect width="32" height="32" fill="white"/>
</clipPath>
</defs>
</svg>
