<svg width="32" height="32" viewBox="0 0 32 32" fill="none" xmlns="http://www.w3.org/2000/svg">
<path d="M31.2353 8.38H29.7153V14.48H31.2353V8.38Z" fill="#BFFB4F"/>
<path d="M29.7151 6.86002H28.1851V8.38002H29.7151V6.86002Z" fill="#BFFB4F"/>
<path d="M28.185 28.19H26.665V29.72H28.185V28.19Z" fill="#BFFB4F"/>
<path d="M26.665 16H28.185V28.19H29.715V14.48H26.665V16Z" fill="#BFFB4F"/>
<path d="M26.6652 16H23.6152V17.53H26.6652V16Z" fill="#BFFB4F"/>
<path d="M26.665 29.72H5.33496V31.24H26.665V29.72Z" fill="#BFFB4F"/>
<path d="M23.6152 17.53H20.5752V19.05H23.6152V17.53Z" fill="#BFFB4F"/>
<path d="M14.4753 20.57V23.62H17.5253V20.57H20.5753V19.05H17.5253V17.53H14.4753V19.05H11.4253V20.57H14.4753Z" fill="#BFFB4F"/>
<path d="M23.615 0.76001H8.375V2.29001H23.615V0.76001Z" fill="#BFFB4F"/>
<path d="M11.425 17.53H8.375V19.05H11.425V17.53Z" fill="#BFFB4F"/>
<path d="M8.37496 16H5.33496V17.53H8.37496V16Z" fill="#BFFB4F"/>
<path d="M28.1852 6.86001V5.34001H25.1452V2.29001H23.6152V5.34001H8.37518V2.29001H6.85518V5.34001H3.80518V6.86001H28.1852Z" fill="#BFFB4F"/>
<path d="M5.33518 28.19H3.80518V29.72H5.33518V28.19Z" fill="#BFFB4F"/>
<path d="M3.80516 16H5.33516V14.48H2.28516V28.19H3.80516V16Z" fill="#BFFB4F"/>
<path d="M3.80516 6.86002H2.28516V8.38002H3.80516V6.86002Z" fill="#BFFB4F"/>
<path d="M2.28514 8.38H0.765137V14.48H2.28514V8.38Z" fill="#BFFB4F"/>
</svg>
