<svg width="32" height="32" viewBox="0 0 32 32" fill="none" xmlns="http://www.w3.org/2000/svg">
<path d="M29.7198 23.62H28.1898V22.09H26.6698V20.57H25.1498V17.52H23.6198V20.57H22.0998V22.09H20.5698V23.62H17.5298V25.14H20.5698V26.67H22.0998V28.19H23.6198V29.71H25.1498V31.24H29.7198V29.71H31.2398V25.14H29.7198V23.62ZM29.7198 28.19H28.1898V26.67H26.6698V25.14H25.1498V23.62H26.6698V25.14H28.1898V26.67H29.7198V28.19Z" fill="#BFFB4F"/>
<path d="M26.6699 9.90002H25.1499V17.52H26.6699V9.90002Z" fill="#BFFB4F"/>
<path d="M25.1496 6.86002H23.6196V9.90002H25.1496V6.86002Z" fill="#BFFB4F"/>
<path d="M23.6196 5.33002H22.0996V6.86002H23.6196V5.33002Z" fill="#BFFB4F"/>
<path d="M22.0998 9.90002H20.5698V17.52H22.0998V9.90002Z" fill="#BFFB4F"/>
<path d="M22.0998 3.81H20.5698V5.33H22.0998V3.81Z" fill="#BFFB4F"/>
<path d="M20.5698 17.52H19.0498V19.05H20.5698V17.52Z" fill="#BFFB4F"/>
<path d="M20.5698 8.38H19.0498V9.9H20.5698V8.38Z" fill="#BFFB4F"/>
<path d="M19.0498 19.05H17.5298V20.57H19.0498V19.05Z" fill="#BFFB4F"/>
<path d="M19.0498 6.86002H17.5298V8.38002H19.0498V6.86002Z" fill="#BFFB4F"/>
<path d="M20.5698 2.28H17.5298V3.81H20.5698V2.28Z" fill="#BFFB4F"/>
<path d="M17.5297 20.57H9.90967V22.09H17.5297V20.57Z" fill="#BFFB4F"/>
<path d="M17.53 14.47H16V16H17.53V14.47Z" fill="#BFFB4F"/>
<path d="M17.5297 25.14H9.90967V26.67H17.5297V25.14Z" fill="#BFFB4F"/>
<path d="M11.4297 16V17.52H12.9597V19.05H14.4797V17.52H15.9997V16H11.4297Z" fill="#BFFB4F"/>
<path d="M15.9997 11.43V9.9H14.4797V8.38H12.9597V9.9H11.4297V11.43H15.9997Z" fill="#BFFB4F"/>
<path d="M15.9997 12.95H11.4297V14.47H15.9997V12.95Z" fill="#BFFB4F"/>
<path d="M17.5297 5.33002H9.90967V6.86002H17.5297V5.33002Z" fill="#BFFB4F"/>
<path d="M17.5297 0.76001H9.90967V2.28001H17.5297V0.76001Z" fill="#BFFB4F"/>
<path d="M11.4297 11.43H9.90967V12.95H11.4297V11.43Z" fill="#BFFB4F"/>
<path d="M9.90986 23.62H6.85986V25.14H9.90986V23.62Z" fill="#BFFB4F"/>
<path d="M9.90988 19.05H8.37988V20.57H9.90988V19.05Z" fill="#BFFB4F"/>
<path d="M9.90988 6.86002H8.37988V8.38002H9.90988V6.86002Z" fill="#BFFB4F"/>
<path d="M9.90986 2.28H6.85986V3.81H9.90986V2.28Z" fill="#BFFB4F"/>
<path d="M8.37986 17.52H6.85986V19.05H8.37986V17.52Z" fill="#BFFB4F"/>
<path d="M8.37986 8.38H6.85986V9.9H8.37986V8.38Z" fill="#BFFB4F"/>
<path d="M6.85984 22.09H5.33984V23.62H6.85984V22.09Z" fill="#BFFB4F"/>
<path d="M6.85984 9.90002H5.33984V17.52H6.85984V9.90002Z" fill="#BFFB4F"/>
<path d="M6.85984 3.81H5.33984V5.33H6.85984V3.81Z" fill="#BFFB4F"/>
<path d="M5.33957 20.57H3.80957V22.09H5.33957V20.57Z" fill="#BFFB4F"/>
<path d="M5.33957 5.33002H3.80957V6.86002H5.33957V5.33002Z" fill="#BFFB4F"/>
<path d="M3.80955 17.52H2.28955V20.57H3.80955V17.52Z" fill="#BFFB4F"/>
<path d="M3.80955 6.86002H2.28955V9.90002H3.80955V6.86002Z" fill="#BFFB4F"/>
<path d="M2.28977 9.90002H0.759766V17.52H2.28977V9.90002Z" fill="#BFFB4F"/>
</svg>
