<svg width="32" height="32" viewBox="0 0 32 32" fill="none" xmlns="http://www.w3.org/2000/svg">
<path d="M29.7148 10.665H28.1848V21.335H29.7148V10.665Z" fill="#000001"/>
<path d="M28.1848 21.335H26.6648V22.855H28.1848V21.335Z" fill="#000001"/>
<path d="M28.1848 9.14502H26.6648V10.665H28.1848V9.14502Z" fill="#000001"/>
<path d="M26.665 10.665H23.615V12.185H26.665V10.665Z" fill="#000001"/>
<path d="M26.665 22.855H23.615V24.385H26.665V22.855Z" fill="#000001"/>
<path d="M25.1449 9.145V7.615H23.6149V6.095H20.5749V7.615H19.0449V9.145H20.5749V10.665H23.6149V9.145H25.1449Z" fill="#000001"/>
<path d="M23.615 12.185H20.575V13.715H23.615V12.185Z" fill="#000001"/>
<path d="M23.615 24.385H20.575V25.905H23.615V24.385Z" fill="#000001"/>
<path d="M17.5249 28.955V27.425H20.5749V25.905H17.5249V15.235H14.4749V16.765H15.9949V27.425H14.4749V28.955H17.5249Z" fill="#000001"/>
<path d="M20.5749 13.715H17.5249V15.235H20.5749V13.715Z" fill="#000001"/>
<path d="M17.5248 12.185H19.0448V10.665H17.5248V9.14502H14.4748V10.665H12.9548V12.185H14.4748V13.715H17.5248V12.185Z" fill="#000001"/>
<path d="M14.4748 3.04501V4.57501H12.9548V6.09501H14.4748V7.61501H17.5248V6.09501H19.0448V4.57501H17.5248V3.04501H14.4748Z" fill="#000001"/>
<path d="M14.4748 25.905H11.4248V27.425H14.4748V25.905Z" fill="#000001"/>
<path d="M14.4748 13.715H11.4248V15.235H14.4748V13.715Z" fill="#000001"/>
<path d="M11.425 24.385H8.38501V25.905H11.425V24.385Z" fill="#000001"/>
<path d="M11.425 9.145H12.955V7.615H11.425V6.095H8.38498V7.615H6.85498V9.145H8.38498V10.665H11.425V9.145Z" fill="#000001"/>
<path d="M11.425 12.185H8.38501V13.715H11.425V12.185Z" fill="#000001"/>
<path d="M8.38496 22.855H5.33496V24.385H8.38496V22.855Z" fill="#000001"/>
<path d="M8.38496 10.665H5.33496V12.185H8.38496V10.665Z" fill="#000001"/>
<path d="M5.33493 21.335H3.80493V22.855H5.33493V21.335Z" fill="#000001"/>
<path d="M5.33493 9.14502H3.80493V10.665H5.33493V9.14502Z" fill="#000001"/>
<path d="M3.80491 10.665H2.28491V21.335H3.80491V10.665Z" fill="#000001"/>
</svg>
