<svg width="32" height="32" viewBox="0 0 32 32" fill="none" xmlns="http://www.w3.org/2000/svg">
<path d="M29.7101 6.10001H28.1901V30.48H29.7101V6.10001Z" fill="#000001"/>
<path d="M28.1901 30.48H3.81006V32H28.1901V30.48Z" fill="#000001"/>
<path d="M12.9501 22.86V28.96H26.6701V22.86H12.9501ZM25.1401 25.91H23.6201V27.43H20.5701V25.91H19.0501V24.38H20.5701V25.91H23.6201V24.38H25.1401V25.91Z" fill="#000001"/>
<path d="M20.5701 15.24V21.34H26.6701V15.24H20.5701ZM25.1401 19.81H22.0901V16.77H25.1401V19.81Z" fill="#000001"/>
<path d="M20.5701 7.62V13.72H26.6701V7.62H20.5701ZM25.1401 12.19H22.0901V9.14999H25.1401V12.19Z" fill="#000001"/>
<path d="M22.0901 1.53H12.9501V3.05H22.0901V1.53Z" fill="#000001"/>
<path d="M19.0501 21.34V15.24H12.9501V21.34H19.0501ZM14.4801 16.77H17.5201V19.81H14.4801V16.77Z" fill="#000001"/>
<path d="M19.0501 13.72V7.62H12.9501V13.72H19.0501ZM14.4801 9.14999H17.5201V12.19H14.4801V9.14999Z" fill="#000001"/>
<path d="M12.9501 0H11.4301V1.53H12.9501V0Z" fill="#000001"/>
<path d="M5.33008 22.86V28.96H11.4301V22.86H5.33008ZM9.90008 27.43H6.86008V24.38H9.90008V27.43Z" fill="#000001"/>
<path d="M5.33008 15.24V21.34H11.4301V15.24H5.33008ZM9.90008 19.81H6.86008V16.77H9.90008V19.81Z" fill="#000001"/>
<path d="M5.33008 7.62V13.72H11.4301V7.62H5.33008ZM9.90008 12.19H6.86008V9.14999H9.90008V12.19Z" fill="#000001"/>
<path d="M28.1901 6.1V4.58H23.6201V3.05H22.0901V4.58H3.81006V6.1H28.1901Z" fill="#000001"/>
<path d="M3.81004 6.10001H2.29004V30.48H3.81004V6.10001Z" fill="#000001"/>
</svg>
