<svg width="32" height="32" viewBox="0 0 32 32" fill="none" xmlns="http://www.w3.org/2000/svg">
<path d="M30.4751 4.575H28.9551V15.235H30.4751V4.575Z" fill="#000001"/>
<path d="M28.955 15.235H27.425V16.765H28.955V15.235Z" fill="#000001"/>
<path d="M28.955 3.045H27.425V4.575H28.955V3.045Z" fill="#000001"/>
<path d="M27.425 16.765H25.905V18.285H27.425V16.765Z" fill="#000001"/>
<path d="M27.425 7.615H25.905V12.185H27.425V7.615Z" fill="#000001"/>
<path d="M27.425 1.525H25.905V3.045H27.425V1.525Z" fill="#000001"/>
<path d="M25.905 12.185H24.385V13.715H25.905V12.185Z" fill="#000001"/>
<path d="M25.905 6.095H24.385V7.615H25.905V6.095Z" fill="#000001"/>
<path d="M22.8551 4.575H21.3351V15.235H22.8551V4.575Z" fill="#000001"/>
<path d="M21.3351 15.235H19.8151V16.765H21.3351V15.235Z" fill="#000001"/>
<path d="M21.3351 3.045H19.8151V4.575H21.3351V3.045Z" fill="#000001"/>
<path d="M19.815 16.765H13.715V18.285H19.815V16.765Z" fill="#000001"/>
<path d="M18.285 13.715H19.815V6.095H18.285V4.575H16.765V15.235H18.285V13.715Z" fill="#000001"/>
<path d="M19.815 1.525H13.715V3.045H19.815V1.525Z" fill="#000001"/>
<path d="M13.7151 15.235H12.1951V16.765H13.7151V15.235Z" fill="#000001"/>
<path d="M13.715 3.045H10.665V4.575H13.715V3.045Z" fill="#000001"/>
<path d="M12.195 13.715H10.665V15.235H12.195V13.715Z" fill="#000001"/>
<path d="M10.665 12.185H9.14502V13.715H10.665V12.185Z" fill="#000001"/>
<path d="M10.665 4.575H9.14502V6.095H10.665V4.575Z" fill="#000001"/>
<path d="M9.14499 13.715H7.61499V15.235H9.14499V13.715Z" fill="#000001"/>
<path d="M9.14499 6.095H7.61499V7.615H9.14499V6.095Z" fill="#000001"/>
<path d="M7.61497 15.235H6.09497V28.955H7.61497V15.235Z" fill="#000001"/>
<path d="M7.61497 7.615H6.09497V9.145H7.61497V7.615Z" fill="#000001"/>
<path d="M6.09507 9.145H4.57507V10.665H6.09507V9.145Z" fill="#000001"/>
<path d="M6.09504 28.955H3.04504V30.475H6.09504V28.955Z" fill="#000001"/>
<path d="M4.57504 10.665H3.04504V12.185H4.57504V10.665Z" fill="#000001"/>
<path d="M3.04502 12.185H1.52502V28.955H3.04502V12.185Z" fill="#000001"/>
</svg>
