<svg width="32" height="32" viewBox="0 0 32 32" fill="none" xmlns="http://www.w3.org/2000/svg">
<g clip-path="url(#clip0_1178_10206)">
<path d="M29.7152 1.51999H28.1952V22.86H6.86523V24.38H28.1952V28.95H29.7152V1.51999Z" fill="#BFFB4F"/>
<path d="M28.1954 28.95H14.4854V30.48H28.1954V28.95Z" fill="#BFFB4F"/>
<path d="M20.5754 18.29H16.0054V19.81H20.5754V18.29Z" fill="#BFFB4F"/>
<path d="M12.9553 32V27.43H26.6753V25.91H8.38525V27.43H9.90525V30.48H11.4353V32H12.9553Z" fill="#BFFB4F"/>
<path d="M23.6251 15.24H12.9551V16.76H23.6251V15.24Z" fill="#BFFB4F"/>
<path d="M14.4851 10.67H16.0051V12.19H17.5251V13.72H19.0551V12.19H20.5751V10.67H22.0951V9.14001H23.6251V6.10001H22.0951V4.57001H19.0551V6.10001H17.5251V4.57001H14.4851V6.10001H12.9551V9.14001H14.4851V10.67Z" fill="#BFFB4F"/>
<path d="M8.38523 3.04999H6.86523V21.33H8.38523V3.04999Z" fill="#BFFB4F"/>
<path d="M28.195 0H5.33496V1.52H28.195V0Z" fill="#BFFB4F"/>
<path d="M8.38496 28.95H5.33496V30.48H8.38496V28.95Z" fill="#BFFB4F"/>
<path d="M6.86496 24.38H5.33496V25.91H6.86496V24.38Z" fill="#BFFB4F"/>
<path d="M5.33494 1.51999H3.81494V3.04999H5.33494V1.51999Z" fill="#BFFB4F"/>
<path d="M3.81516 3.04999H2.28516V27.43H3.81516V28.95H5.33516V25.91H3.81516V3.04999Z" fill="#BFFB4F"/>
</g>
<defs>
<clipPath id="clip0_1178_10206">
<rect width="32" height="32" fill="white"/>
</clipPath>
</defs>
</svg>
