<svg width="32" height="32" viewBox="0 0 32 32" fill="none" xmlns="http://www.w3.org/2000/svg">
<path d="M29.715 1.52H28.195V22.86H6.86499V24.38H28.195V28.95H29.715V1.52Z" fill="#000001"/>
<path d="M28.195 28.95H14.485V30.48H28.195V28.95Z" fill="#000001"/>
<path d="M20.575 18.29H16.005V19.81H20.575V18.29Z" fill="#000001"/>
<path d="M12.955 32V27.43H26.675V25.91H8.38501V27.43H9.90501V30.48H11.435V32H12.955Z" fill="#000001"/>
<path d="M23.6251 15.24H12.9551V16.76H23.6251V15.24Z" fill="#000001"/>
<path d="M14.4851 10.67H16.0051V12.19H17.5251V13.72H19.0551V12.19H20.5751V10.67H22.0951V9.14001H23.6251V6.10001H22.0951V4.57001H19.0551V6.10001H17.5251V4.57001H14.4851V6.10001H12.9551V9.14001H14.4851V10.67Z" fill="#000001"/>
<path d="M8.38499 3.05H6.86499V21.33H8.38499V3.05Z" fill="#000001"/>
<path d="M28.1951 0H5.33508V1.52H28.1951V0Z" fill="#000001"/>
<path d="M8.38508 28.95H5.33508V30.48H8.38508V28.95Z" fill="#000001"/>
<path d="M6.86508 24.38H5.33508V25.91H6.86508V24.38Z" fill="#000001"/>
<path d="M5.33506 1.52H3.81506V3.05H5.33506V1.52Z" fill="#000001"/>
<path d="M3.81503 3.05H2.28503V27.43H3.81503V28.95H5.33503V25.91H3.81503V3.05Z" fill="#000001"/>
</svg>
