<svg width="32" height="32" viewBox="0 0 32 32" fill="none" xmlns="http://www.w3.org/2000/svg">
<g clip-path="url(#clip0_1178_10072)">
<path d="M30.4718 6.1H25.8998V1.525H27.4298V0H6.09176V12.2H4.57176V13.72H6.09176V16.77H4.57176V13.72H3.05176V25.91H4.57176V27.43H6.09176V32H31.9998V4.575H30.4698L30.4718 6.1ZM7.62176 18.285H12.1918V22.855H9.14176V25.905H7.62176V18.285ZM30.4718 30.475H7.62176V27.425H25.8998V25.905H27.4298V18.285H25.8998V16.765H7.62176V1.525H24.3818V7.615H30.4718V30.475ZM18.2818 19.805V24.385H16.7618V25.905H13.7118V18.285H16.7618V19.805H18.2818ZM24.3818 21.335V22.855H21.3318V25.905H19.8118V18.285H24.3818V19.805H21.3318V21.335H24.3818Z" fill="#BFFB4F"/>
<path d="M30.4717 3.04501H28.9517V4.57501H30.4717V3.04501Z" fill="#BFFB4F"/>
<path d="M28.9516 1.52499H27.4316V3.04499H28.9516V1.52499Z" fill="#BFFB4F"/>
<path d="M16.7617 19.805H15.2417V24.385H16.7617V19.805Z" fill="#BFFB4F"/>
<path d="M10.6716 19.805H9.1416V21.335H10.6716V19.805Z" fill="#BFFB4F"/>
</g>
<defs>
<clipPath id="clip0_1178_10072">
<rect width="32" height="32" fill="white"/>
</clipPath>
</defs>
</svg>
