<svg width="32" height="32" viewBox="0 0 32 32" fill="none" xmlns="http://www.w3.org/2000/svg">
<g clip-path="url(#clip0_1178_9873)">
<path d="M32 20.57H30.48V22.09H32V20.57Z" fill="#BFFB4F"/>
<path d="M7.61979 22.09V17.52H6.09978V3.81H4.57979V5.33H1.52979V6.86H3.04979V17.52H4.57979V22.09H6.09978V23.62H7.61979V25.14H21.3398V26.67H22.8598V23.62H25.9098V29.71H27.4298V23.62H30.4798V22.09H7.61979Z" fill="#BFFB4F"/>
<path d="M30.4802 19.05H27.4302V20.57H30.4802V19.05Z" fill="#BFFB4F"/>
<path d="M27.4302 3.81H25.9102V19.05H27.4302V3.81Z" fill="#BFFB4F"/>
<path d="M25.9101 29.71H6.1001V31.24H25.9101V29.71Z" fill="#BFFB4F"/>
<path d="M22.8598 8.38H21.3398V11.43H22.8598V8.38Z" fill="#BFFB4F"/>
<path d="M21.3401 11.43H19.8101V12.95H21.3401V11.43Z" fill="#BFFB4F"/>
<path d="M21.34 6.86002H18.29V8.38002H21.34V6.86002Z" fill="#BFFB4F"/>
<path d="M21.34 19.05H18.29V20.57H21.34V19.05Z" fill="#BFFB4F"/>
<path d="M19.81 12.95H18.29V14.48H19.81V12.95Z" fill="#BFFB4F"/>
<path d="M18.29 17.52H16.77V19.05H18.29V17.52Z" fill="#BFFB4F"/>
<path d="M18.29 14.48H16.77V16H18.29V14.48Z" fill="#BFFB4F"/>
<path d="M18.29 8.38H16.77V9.9H18.29V8.38Z" fill="#BFFB4F"/>
<path d="M16.7702 16H15.2402V17.52H16.7702V16Z" fill="#BFFB4F"/>
<path d="M16.7702 9.90002H15.2402V11.43H16.7702V9.90002Z" fill="#BFFB4F"/>
<path d="M15.2402 14.48H13.7202V16H15.2402V14.48Z" fill="#BFFB4F"/>
<path d="M15.2402 8.38H13.7202V9.9H15.2402V8.38Z" fill="#BFFB4F"/>
<path d="M15.2402 17.52H12.2002V19.05H15.2402V17.52Z" fill="#BFFB4F"/>
<path d="M13.7202 12.95H12.2002V14.48H13.7202V12.95Z" fill="#BFFB4F"/>
<path d="M13.7199 6.86002H10.6699V8.38002H13.7199V6.86002Z" fill="#BFFB4F"/>
<path d="M12.1999 11.43H10.6699V12.95H12.1999V11.43Z" fill="#BFFB4F"/>
<path d="M10.6699 8.38H9.1499V11.43H10.6699V8.38Z" fill="#BFFB4F"/>
<path d="M10.6701 3.81001V5.33001H21.3401V3.81001H25.9101V2.28001H21.3401V0.76001H10.6701V2.28001H6.1001V3.81001H10.6701Z" fill="#BFFB4F"/>
<path d="M21.3398 28.19V26.67H1.52979V28.19H4.57979V29.71H6.09978V28.19H21.3398Z" fill="#BFFB4F"/>
<path d="M1.53 6.86002H0V26.67H1.53V6.86002Z" fill="#BFFB4F"/>
</g>
<defs>
<clipPath id="clip0_1178_9873">
<rect width="32" height="32" fill="white"/>
</clipPath>
</defs>
</svg>
