<svg width="32" height="32" viewBox="0 0 32 32" fill="none" xmlns="http://www.w3.org/2000/svg">
<g clip-path="url(#clip0_1178_11402)">
<path d="M31.2353 22.095H29.7153V26.665H31.2353V22.095Z" fill="#BFFB4F"/>
<path d="M29.7151 26.665H28.1851V28.195H29.7151V26.665Z" fill="#BFFB4F"/>
<path d="M29.7151 17.525H28.1851V22.095H29.7151V17.525Z" fill="#BFFB4F"/>
<path d="M28.185 23.625H26.665V25.145H28.185V23.625Z" fill="#BFFB4F"/>
<path d="M28.185 14.475H26.665V17.525H28.185V14.475Z" fill="#BFFB4F"/>
<path d="M25.1452 20.575H23.6152V19.045H8.37518V20.575H6.85518V28.195H3.80518V29.715H28.1852V28.195H25.1452V20.575Z" fill="#BFFB4F"/>
<path d="M26.665 11.425H25.145V14.475H26.665V11.425Z" fill="#BFFB4F"/>
<path d="M25.1452 16.0049H23.6152V17.5249H25.1452V16.0049Z" fill="#BFFB4F"/>
<path d="M25.1452 8.38495H23.6152V11.4249H25.1452V8.38495Z" fill="#BFFB4F"/>
<path d="M23.6152 6.85498H22.0952V8.38498H23.6152V6.85498Z" fill="#BFFB4F"/>
<path d="M22.0952 5.33496H20.5752V6.85496H22.0952V5.33496Z" fill="#BFFB4F"/>
<path d="M20.5749 14.475H19.0449V16.005H20.5749V14.475Z" fill="#BFFB4F"/>
<path d="M20.5749 3.815H19.0449V5.335H20.5749V3.815Z" fill="#BFFB4F"/>
<path d="M19.0449 16.0049H17.5249V17.5249H19.0449V16.0049Z" fill="#BFFB4F"/>
<path d="M19.0449 6.85498H17.5249V8.38498H19.0449V6.85498Z" fill="#BFFB4F"/>
<path d="M17.5251 8.38495H15.9951V9.90495H17.5251V8.38495Z" fill="#BFFB4F"/>
<path d="M19.0451 2.28497H12.9551V3.81497H19.0451V2.28497Z" fill="#BFFB4F"/>
<path d="M12.9553 16.0049H11.4253V17.5249H12.9553V16.0049Z" fill="#BFFB4F"/>
<path d="M12.9553 9.90497H11.4253V11.425H12.9553V9.90497Z" fill="#BFFB4F"/>
<path d="M12.9553 3.815H11.4253V5.335H12.9553V3.815Z" fill="#BFFB4F"/>
<path d="M11.4253 14.475H9.90527V16.005H11.4253V14.475Z" fill="#BFFB4F"/>
<path d="M11.4253 5.33496H9.90527V6.85496H11.4253V5.33496Z" fill="#BFFB4F"/>
<path d="M9.905 6.85498H8.375V8.38498H9.905V6.85498Z" fill="#BFFB4F"/>
<path d="M8.37498 8.38495H6.85498V11.4249H8.37498V8.38495Z" fill="#BFFB4F"/>
<path d="M6.85496 11.425H5.33496V14.475H6.85496V11.425Z" fill="#BFFB4F"/>
<path d="M5.33518 23.625H3.80518V25.145H5.33518V23.625Z" fill="#BFFB4F"/>
<path d="M5.33518 14.475H3.80518V17.525H5.33518V14.475Z" fill="#BFFB4F"/>
<path d="M3.80516 26.665H2.28516V28.195H3.80516V26.665Z" fill="#BFFB4F"/>
<path d="M3.80516 17.525H2.28516V22.095H3.80516V17.525Z" fill="#BFFB4F"/>
<path d="M2.28514 22.095H0.765137V26.665H2.28514V22.095Z" fill="#BFFB4F"/>
</g>
<defs>
<clipPath id="clip0_1178_11402">
<rect width="32" height="32" fill="white"/>
</clipPath>
</defs>
</svg>
