<svg width="32" height="32" viewBox="0 0 32 32" fill="none" xmlns="http://www.w3.org/2000/svg">
<g clip-path="url(#clip0_1178_4208)">
<path d="M30.4751 27.43H28.9551V30.48H30.4751V27.43Z" fill="#BFFB4F"/>
<path d="M30.4751 16.77H28.9551V19.81H30.4751V16.77Z" fill="#BFFB4F"/>
<path d="M28.9548 15.24H25.9048V16.77H28.9548V15.24Z" fill="#BFFB4F"/>
<path d="M28.9548 30.48H25.9048V32H28.9548V30.48Z" fill="#BFFB4F"/>
<path d="M27.4348 21.34H25.9048V27.43H27.4348V21.34Z" fill="#BFFB4F"/>
<path d="M25.9048 19.81H24.3848V21.34H25.9048V19.81Z" fill="#BFFB4F"/>
<path d="M24.385 22.86H22.855V28.96H24.385V22.86Z" fill="#BFFB4F"/>
<path d="M24.3849 18.29H19.8149V19.81H24.3849V18.29Z" fill="#BFFB4F"/>
<path d="M22.855 21.34H21.335V22.86H22.855V21.34Z" fill="#BFFB4F"/>
<path d="M22.8549 28.96H19.8149V30.48H22.8549V28.96Z" fill="#BFFB4F"/>
<path d="M21.3349 22.86H19.8149V25.91H21.3349V22.86Z" fill="#BFFB4F"/>
<path d="M19.8147 27.43H18.2847V28.96H19.8147V27.43Z" fill="#BFFB4F"/>
<path d="M19.8147 19.81H18.2847V21.34H19.8147V19.81Z" fill="#BFFB4F"/>
<path d="M19.8147 1.53H18.2847V3.05H19.8147V1.53Z" fill="#BFFB4F"/>
<path d="M18.2851 21.34H16.7651V27.43H18.2851V21.34Z" fill="#BFFB4F"/>
<path d="M18.2851 30.48H15.2451V32H18.2851V30.48Z" fill="#BFFB4F"/>
<path d="M18.2851 15.24H15.2451V16.77H18.2851V15.24Z" fill="#BFFB4F"/>
<path d="M15.2448 27.43H13.7148V30.48H15.2448V27.43Z" fill="#BFFB4F"/>
<path d="M15.2448 16.77H13.7148V19.81H15.2448V16.77Z" fill="#BFFB4F"/>
<path d="M22.8547 13.72V12.2H21.3347V3.04999H19.8147V12.2H6.09469V3.04999H4.57469V12.2H3.05469V13.72H22.8547Z" fill="#BFFB4F"/>
<path d="M12.195 19.81V16.77H9.145V18.29H7.625V21.34H9.145V22.86H10.665V27.43H12.195V21.34H10.665V19.81H12.195Z" fill="#BFFB4F"/>
<path d="M18.285 0H7.625V1.53H18.285V0Z" fill="#BFFB4F"/>
<path d="M7.62473 1.53H6.09473V3.05H7.62473V1.53Z" fill="#BFFB4F"/>
<path d="M12.1947 30.48H4.57471V32H12.1947V30.48Z" fill="#BFFB4F"/>
<path d="M4.57469 28.96H3.05469V30.48H4.57469V28.96Z" fill="#BFFB4F"/>
<path d="M3.0549 13.72H1.5249V28.96H3.0549V13.72Z" fill="#BFFB4F"/>
</g>
<defs>
<clipPath id="clip0_1178_4208">
<rect width="32" height="32" fill="white"/>
</clipPath>
</defs>
</svg>
