<svg width="32" height="32" viewBox="0 0 32 32" fill="none" xmlns="http://www.w3.org/2000/svg">
<g clip-path="url(#clip0_1128_11326)">
<path d="M32 12.19H30.47V19.81H32V12.19Z" fill="#000001"/>
<path d="M30.4699 19.81H28.95V22.86H30.4699V19.81Z" fill="#000001"/>
<path d="M30.4699 9.14001H28.95V12.19H30.4699V9.14001Z" fill="#000001"/>
<path d="M28.9499 22.86H27.4299V25.9H28.9499V22.86Z" fill="#000001"/>
<path d="M28.9499 6.10001H27.4299V9.14001H28.9499V6.10001Z" fill="#000001"/>
<path d="M27.4299 25.9H25.8999V27.43H27.4299V25.9Z" fill="#000001"/>
<path d="M27.4299 12.19H25.8999V19.81H27.4299V12.19Z" fill="#000001"/>
<path d="M27.4299 4.57001H25.8999V6.10001H27.4299V4.57001Z" fill="#000001"/>
<path d="M25.8999 19.81H24.3799V22.86H25.8999V19.81Z" fill="#000001"/>
<path d="M25.8999 9.14001H24.3799V12.19H25.8999V9.14001Z" fill="#000001"/>
<path d="M25.9001 3.04999H22.8501V4.56999H25.9001V3.04999Z" fill="#000001"/>
<path d="M24.3801 22.86H22.8501V24.38H24.3801V22.86Z" fill="#000001"/>
<path d="M24.3801 7.62H22.8501V9.14H24.3801V7.62Z" fill="#000001"/>
<path d="M22.8501 12.19H21.3301V19.81H22.8501V12.19Z" fill="#000001"/>
<path d="M22.8501 6.10001H19.8101V7.62001H22.8501V6.10001Z" fill="#000001"/>
<path d="M22.8501 1.51999H19.8101V3.04999H22.8501V1.51999Z" fill="#000001"/>
<path d="M21.3301 19.81H19.8101V21.33H21.3301V19.81Z" fill="#000001"/>
<path d="M21.3301 10.67H19.8101V12.19H21.3301V10.67Z" fill="#000001"/>
<path d="M19.8099 22.86H18.2799V21.33H13.7099V22.86H12.1899V24.38H10.6599V30.48H12.1899V32H19.8099V30.48H21.3299V24.38H19.8099V22.86ZM16.7599 27.43H15.2399V24.38H16.7599V27.43Z" fill="#000001"/>
<path d="M19.8099 9.14001H12.1899V10.67H19.8099V9.14001Z" fill="#000001"/>
<path d="M19.8099 4.57001H12.1899V6.10001H19.8099V4.57001Z" fill="#000001"/>
<path d="M19.8099 0H12.1899V1.52H19.8099V0Z" fill="#000001"/>
<path d="M13.7099 12.19V13.71H12.1899V18.29H13.7099V19.81H18.2799V18.29H19.8099V13.71H18.2799V12.19H13.7099Z" fill="#000001"/>
<path d="M12.1899 19.81H10.6599V21.33H12.1899V19.81Z" fill="#000001"/>
<path d="M12.1899 10.67H10.6599V12.19H12.1899V10.67Z" fill="#000001"/>
<path d="M10.6599 12.19H9.13989V19.81H10.6599V12.19Z" fill="#000001"/>
<path d="M12.1899 6.10001H9.13989V7.62001H12.1899V6.10001Z" fill="#000001"/>
<path d="M12.1899 1.51999H9.13989V3.04999H12.1899V1.51999Z" fill="#000001"/>
<path d="M9.14012 22.86H7.62012V24.38H9.14012V22.86Z" fill="#000001"/>
<path d="M9.14012 7.62H7.62012V9.14H9.14012V7.62Z" fill="#000001"/>
<path d="M7.62009 19.81H6.09009V22.86H7.62009V19.81Z" fill="#000001"/>
<path d="M7.62009 9.14001H6.09009V12.19H7.62009V9.14001Z" fill="#000001"/>
<path d="M9.14009 3.04999H6.09009V4.56999H9.14009V3.04999Z" fill="#000001"/>
<path d="M6.09007 25.9H4.57007V27.43H6.09007V25.9Z" fill="#000001"/>
<path d="M6.09007 12.19H4.57007V19.81H6.09007V12.19Z" fill="#000001"/>
<path d="M6.09007 4.57001H4.57007V6.10001H6.09007V4.57001Z" fill="#000001"/>
<path d="M4.57005 22.86H3.05005V25.9H4.57005V22.86Z" fill="#000001"/>
<path d="M4.57005 6.10001H3.05005V9.14001H4.57005V6.10001Z" fill="#000001"/>
<path d="M3.05002 19.81H1.52002V22.86H3.05002V19.81Z" fill="#000001"/>
<path d="M3.05002 9.14001H1.52002V12.19H3.05002V9.14001Z" fill="#000001"/>
<path d="M1.52 12.19H0V19.81H1.52V12.19Z" fill="#000001"/>
</g>
<defs>
<clipPath id="clip0_1128_11326">
<rect width="32" height="32" fill="white"/>
</clipPath>
</defs>
</svg>
