<svg width="32" height="32" viewBox="0 0 32 32" fill="none" xmlns="http://www.w3.org/2000/svg">
<path d="M31.2348 9.14502H29.7148V12.185H31.2348V9.14502Z" fill="#000001"/>
<path d="M29.7148 7.61502H26.6648V9.14502H29.7148V7.61502Z" fill="#000001"/>
<path d="M26.6648 18.285H28.1948V13.715H29.7148V12.185H26.6648V9.14502H25.1448V13.715H26.6648V18.285Z" fill="#000001"/>
<path d="M25.145 19.805H23.615V21.335H25.145V22.855H6.85496V21.335H8.38496V19.805H6.85496V18.285H5.33496V25.905H6.85496V27.425H25.145V25.905H26.665V18.285H25.145V19.805Z" fill="#000001"/>
<path d="M25.145 13.715H23.615V15.235H25.145V13.715Z" fill="#000001"/>
<path d="M23.615 15.235H22.095V16.765H23.615V15.235Z" fill="#000001"/>
<path d="M22.0949 16.765H20.575V18.285H22.0949V16.765Z" fill="#000001"/>
<path d="M22.0949 19.805H19.0449V21.335H22.0949V19.805Z" fill="#000001"/>
<path d="M20.5749 13.715H19.0449V16.765H20.5749V13.715Z" fill="#000001"/>
<path d="M19.0449 10.665H17.5249V13.715H19.0449V10.665Z" fill="#000001"/>
<path d="M19.0449 6.095H17.5249V9.145H19.0449V6.095Z" fill="#000001"/>
<path d="M17.5249 9.14502H14.4749V10.665H17.5249V9.14502Z" fill="#000001"/>
<path d="M17.5249 4.57501H14.4749V6.09501H17.5249V4.57501Z" fill="#000001"/>
<path d="M17.5249 18.285H14.4749V21.335H17.5249V18.285Z" fill="#000001"/>
<path d="M14.4748 10.665H12.9548V13.715H14.4748V10.665Z" fill="#000001"/>
<path d="M14.4748 6.095H12.9548V9.145H14.4748V6.095Z" fill="#000001"/>
<path d="M12.9548 13.715H11.4248V16.765H12.9548V13.715Z" fill="#000001"/>
<path d="M12.9548 19.805H9.90479V21.335H12.9548V19.805Z" fill="#000001"/>
<path d="M11.4248 16.765H9.90479V18.285H11.4248V16.765Z" fill="#000001"/>
<path d="M9.90501 15.235H8.38501V16.765H9.90501V15.235Z" fill="#000001"/>
<path d="M8.38498 13.715H6.85498V15.235H8.38498V13.715Z" fill="#000001"/>
<path d="M2.28491 12.185V13.715H3.81491V18.285H5.33491V13.715H6.85491V9.14502H5.33491V12.185H2.28491Z" fill="#000001"/>
<path d="M5.33491 7.61502H2.28491V9.14502H5.33491V7.61502Z" fill="#000001"/>
<path d="M2.28489 9.14502H0.764893V12.185H2.28489V9.14502Z" fill="#000001"/>
</svg>
