<svg width="32" height="32" viewBox="0 0 32 32" fill="none" xmlns="http://www.w3.org/2000/svg">
<g clip-path="url(#clip0_1178_5586)">
<path d="M28.9497 4.57H27.4297V21.33H28.9497V4.57Z" fill="#BFFB4F"/>
<path d="M27.4299 21.33H25.8999V24.38H27.4299V21.33Z" fill="#BFFB4F"/>
<path d="M25.8999 24.38H24.3799V25.9H25.8999V24.38Z" fill="#BFFB4F"/>
<path d="M10.6598 4.57H7.61984V6.1H6.08984V21.33H7.61984V15.24H15.2398V27.43H13.7098V28.95H18.2798V27.43H21.3298V25.9H22.8498V24.38H24.3798V21.33H25.8998V6.1H24.3798V15.24H16.7598V4.57H21.3298V3.05H10.6598V4.57Z" fill="#BFFB4F"/>
<path d="M27.4299 3.05H24.3799V4.57H27.4299V3.05Z" fill="#BFFB4F"/>
<path d="M24.3796 25.9H22.8496V27.43H24.3796V25.9Z" fill="#BFFB4F"/>
<path d="M22.8496 27.43H21.3296V28.95H22.8496V27.43Z" fill="#BFFB4F"/>
<path d="M24.3796 4.57H21.3296V6.1H24.3796V4.57Z" fill="#BFFB4F"/>
<path d="M24.3796 1.52H21.3296V3.05H24.3796V1.52Z" fill="#BFFB4F"/>
<path d="M21.3298 28.95H18.2798V30.48H21.3298V28.95Z" fill="#BFFB4F"/>
<path d="M18.28 30.48H13.71V32H18.28V30.48Z" fill="#BFFB4F"/>
<path d="M13.7097 28.95H10.6597V30.48H13.7097V28.95Z" fill="#BFFB4F"/>
<path d="M13.7097 25.9H10.6597V27.43H13.7097V25.9Z" fill="#BFFB4F"/>
<path d="M21.3297 0H10.6597V1.52H21.3297V0Z" fill="#BFFB4F"/>
<path d="M10.6596 27.43H9.13965V28.95H10.6596V27.43Z" fill="#BFFB4F"/>
<path d="M10.6596 24.38H9.13965V25.9H10.6596V24.38Z" fill="#BFFB4F"/>
<path d="M10.6596 1.52H7.61963V3.05H10.6596V1.52Z" fill="#BFFB4F"/>
<path d="M9.13963 25.9H7.61963V27.43H9.13963V25.9Z" fill="#BFFB4F"/>
<path d="M9.13963 21.33H7.61963V24.38H9.13963V21.33Z" fill="#BFFB4F"/>
<path d="M7.61984 24.38H6.08984V25.9H7.61984V24.38Z" fill="#BFFB4F"/>
<path d="M7.61982 3.05H4.56982V4.57H7.61982V3.05Z" fill="#BFFB4F"/>
<path d="M6.08982 21.33H4.56982V24.38H6.08982V21.33Z" fill="#BFFB4F"/>
<path d="M4.5698 4.57H3.0498V21.33H4.5698V4.57Z" fill="#BFFB4F"/>
</g>
<defs>
<clipPath id="clip0_1178_5586">
<rect width="32" height="32" fill="white"/>
</clipPath>
</defs>
</svg>
