<svg width="32" height="32" viewBox="0 0 32 32" fill="none" xmlns="http://www.w3.org/2000/svg">
<g clip-path="url(#clip0_1128_11834)">
<path d="M32 12.19H30.47V19.81H32V12.19Z" fill="#000001"/>
<path d="M30.4699 19.81H28.95V22.86H30.4699V19.81Z" fill="#000001"/>
<path d="M30.4699 9.14001H28.95V12.19H30.4699V9.14001Z" fill="#000001"/>
<path d="M28.9499 22.86H27.4299V25.9H28.9499V22.86Z" fill="#000001"/>
<path d="M28.9499 12.19H27.4299V19.81H28.9499V12.19Z" fill="#000001"/>
<path d="M28.9499 6.10001H27.4299V9.14001H28.9499V6.10001Z" fill="#000001"/>
<path d="M27.4299 25.9H25.8999V27.43H27.4299V25.9Z" fill="#000001"/>
<path d="M27.4299 19.81H25.8999V22.86H27.4299V19.81Z" fill="#000001"/>
<path d="M27.4299 9.14001H25.8999V12.19H27.4299V9.14001Z" fill="#000001"/>
<path d="M27.4299 4.57001H25.8999V6.10001H27.4299V4.57001Z" fill="#000001"/>
<path d="M25.8999 22.86H24.3799V24.38H25.8999V22.86Z" fill="#000001"/>
<path d="M25.8999 15.24H24.3799V16.76H25.8999V15.24Z" fill="#000001"/>
<path d="M25.8999 7.62H24.3799V9.14H25.8999V7.62Z" fill="#000001"/>
<path d="M25.9001 27.43H22.8501V28.95H25.9001V27.43Z" fill="#000001"/>
<path d="M24.3801 24.38H22.8501V25.9H24.3801V24.38Z" fill="#000001"/>
<path d="M24.3801 6.10001H22.8501V7.62001H24.3801V6.10001Z" fill="#000001"/>
<path d="M25.9001 3.04999H22.8501V4.56999H25.9001V3.04999Z" fill="#000001"/>
<path d="M22.8501 21.33H21.3301V22.86H22.8501V21.33Z" fill="#000001"/>
<path d="M22.8501 10.67H21.3301V12.19H22.8501V10.67Z" fill="#000001"/>
<path d="M22.8501 28.95H19.8101V30.48H22.8501V28.95Z" fill="#000001"/>
<path d="M22.8501 25.9H19.8101V27.43H22.8501V25.9Z" fill="#000001"/>
<path d="M22.8501 4.57001H19.8101V6.10001H22.8501V4.57001Z" fill="#000001"/>
<path d="M22.8501 1.51999H19.8101V3.04999H22.8501V1.51999Z" fill="#000001"/>
<path d="M18.28 13.71H15.24V15.24H13.71V19.81H18.28V18.29H19.81V15.24H21.33V12.19H18.28V13.71Z" fill="#000001"/>
<path d="M19.8099 30.48H12.1899V32H19.8099V30.48Z" fill="#000001"/>
<path d="M19.8099 27.43H12.1899V28.95H19.8099V27.43Z" fill="#000001"/>
<path d="M16.76 24.38H15.24V25.9H16.76V24.38Z" fill="#000001"/>
<path d="M16.76 6.10001H15.24V7.62001H16.76V6.10001Z" fill="#000001"/>
<path d="M19.8099 3.04999H12.1899V4.56999H19.8099V3.04999Z" fill="#000001"/>
<path d="M19.8099 0H12.1899V1.52H19.8099V0Z" fill="#000001"/>
<path d="M12.1899 28.95H9.13989V30.48H12.1899V28.95Z" fill="#000001"/>
<path d="M12.1899 25.9H9.13989V27.43H12.1899V25.9Z" fill="#000001"/>
<path d="M12.1899 4.57001H9.13989V6.10001H12.1899V4.57001Z" fill="#000001"/>
<path d="M12.1899 1.51999H9.13989V3.04999H12.1899V1.51999Z" fill="#000001"/>
<path d="M10.6599 21.33H9.13989V22.86H10.6599V21.33Z" fill="#000001"/>
<path d="M10.6599 9.14001H9.13989V10.67H10.6599V9.14001Z" fill="#000001"/>
<path d="M9.14009 27.43H6.09009V28.95H9.14009V27.43Z" fill="#000001"/>
<path d="M9.14012 24.38H7.62012V25.9H9.14012V24.38Z" fill="#000001"/>
<path d="M9.14012 6.10001H7.62012V7.62001H9.14012V6.10001Z" fill="#000001"/>
<path d="M9.14009 3.04999H6.09009V4.56999H9.14009V3.04999Z" fill="#000001"/>
<path d="M7.62009 22.86H6.09009V24.38H7.62009V22.86Z" fill="#000001"/>
<path d="M7.62009 15.24H6.09009V16.76H7.62009V15.24Z" fill="#000001"/>
<path d="M7.62009 7.62H6.09009V9.14H7.62009V7.62Z" fill="#000001"/>
<path d="M6.09007 25.9H4.57007V27.43H6.09007V25.9Z" fill="#000001"/>
<path d="M6.09007 19.81H4.57007V22.86H6.09007V19.81Z" fill="#000001"/>
<path d="M6.09007 9.14001H4.57007V12.19H6.09007V9.14001Z" fill="#000001"/>
<path d="M6.09007 4.57001H4.57007V6.10001H6.09007V4.57001Z" fill="#000001"/>
<path d="M4.57005 22.86H3.05005V25.9H4.57005V22.86Z" fill="#000001"/>
<path d="M4.57005 12.19H3.05005V19.81H4.57005V12.19Z" fill="#000001"/>
<path d="M4.57005 6.10001H3.05005V9.14001H4.57005V6.10001Z" fill="#000001"/>
<path d="M3.05002 19.81H1.52002V22.86H3.05002V19.81Z" fill="#000001"/>
<path d="M3.05002 9.14001H1.52002V12.19H3.05002V9.14001Z" fill="#000001"/>
<path d="M1.52 12.19H0V19.81H1.52V12.19Z" fill="#000001"/>
</g>
<defs>
<clipPath id="clip0_1128_11834">
<rect width="32" height="32" fill="white"/>
</clipPath>
</defs>
</svg>
