<svg width="32" height="32" viewBox="0 0 32 32" fill="none" xmlns="http://www.w3.org/2000/svg">
<g clip-path="url(#clip0_1178_8101)">
<path d="M19.81 10.67V4.57999H18.29V30.48H19.81V12.2H28.95V3.04999H27.43V10.67H19.81Z" fill="#BFFB4F"/>
<path d="M27.4297 1.53003H25.9097V3.05003H27.4297V1.53003Z" fill="#BFFB4F"/>
<path d="M21.3296 3.04999H19.8096V4.57999H21.3296V3.04999Z" fill="#BFFB4F"/>
<path d="M18.2898 30.48H16.7598V32H18.2898V30.48Z" fill="#BFFB4F"/>
<path d="M16.7597 28.96H15.2397V30.48H16.7597V28.96Z" fill="#BFFB4F"/>
<path d="M15.2397 27.43H13.7197V28.96H15.2397V27.43Z" fill="#BFFB4F"/>
<path d="M15.2396 9.15002H12.1896V10.67H10.6696V9.15002H7.61961V10.67H6.09961V13.72H7.61961V15.24H9.13961V16.77H10.6696V18.29H12.1896V16.77H13.7196V15.24H15.2396V13.72H16.7596V10.67H15.2396V9.15002Z" fill="#BFFB4F"/>
<path d="M13.7199 25.91H12.1899V27.43H13.7199V25.91Z" fill="#BFFB4F"/>
<path d="M12.1899 24.39H10.6699V25.91H12.1899V24.39Z" fill="#BFFB4F"/>
<path d="M10.6696 25.91H9.13965V27.43H10.6696V25.91Z" fill="#BFFB4F"/>
<path d="M7.61963 1.53H21.3296V3.05H22.8596V1.53H25.9096V0H7.61963V1.53Z" fill="#BFFB4F"/>
<path d="M9.13963 27.43H7.61963V28.96H9.13963V27.43Z" fill="#BFFB4F"/>
<path d="M7.61961 28.96H6.09961V30.48H7.61961V28.96Z" fill="#BFFB4F"/>
<path d="M7.61961 1.53003H6.09961V3.05003H7.61961V1.53003Z" fill="#BFFB4F"/>
<path d="M6.09982 30.48H4.56982V32H6.09982V30.48Z" fill="#BFFB4F"/>
<path d="M6.09982 3.04999H4.56982V4.57999H6.09982V3.04999Z" fill="#BFFB4F"/>
<path d="M4.5698 4.58002H3.0498V30.48H4.5698V4.58002Z" fill="#BFFB4F"/>
</g>
<defs>
<clipPath id="clip0_1178_8101">
<rect width="32" height="32" fill="white"/>
</clipPath>
</defs>
</svg>
