<svg width="32" height="32" viewBox="0 0 32 32" fill="none" xmlns="http://www.w3.org/2000/svg">
<g clip-path="url(#clip0_1178_5859)">
<path d="M32 10.67H30.48V21.33H32V10.67Z" fill="#BFFB4F"/>
<path d="M30.4802 21.33H28.9502V22.86H30.4802V21.33Z" fill="#BFFB4F"/>
<path d="M30.4802 9.14H28.9502V10.67H30.4802V9.14Z" fill="#BFFB4F"/>
<path d="M28.9498 22.86H3.0498V24.38H28.9498V22.86Z" fill="#BFFB4F"/>
<path d="M28.9498 16.76H21.3398V18.28H28.9498V16.76Z" fill="#BFFB4F"/>
<path d="M19.81 16.76H18.29V18.28H19.81V16.76Z" fill="#BFFB4F"/>
<path d="M19.81 13.71H18.29V15.24H19.81V13.71Z" fill="#BFFB4F"/>
<path d="M18.2898 15.24H16.7598V16.76H18.2898V15.24Z" fill="#BFFB4F"/>
<path d="M16.7602 16.76H15.2402V18.28H16.7602V16.76Z" fill="#BFFB4F"/>
<path d="M16.7602 13.71H15.2402V15.24H16.7602V13.71Z" fill="#BFFB4F"/>
<path d="M13.7199 16.76H12.1899V18.28H13.7199V16.76Z" fill="#BFFB4F"/>
<path d="M13.7199 13.71H12.1899V15.24H13.7199V13.71Z" fill="#BFFB4F"/>
<path d="M12.1899 15.24H10.6699V16.76H12.1899V15.24Z" fill="#BFFB4F"/>
<path d="M10.6699 16.76H9.1499V18.28H10.6699V16.76Z" fill="#BFFB4F"/>
<path d="M10.6699 13.71H9.1499V15.24H10.6699V13.71Z" fill="#BFFB4F"/>
<path d="M7.6201 16.76H6.1001V18.28H7.6201V16.76Z" fill="#BFFB4F"/>
<path d="M7.6201 13.71H6.1001V15.24H7.6201V13.71Z" fill="#BFFB4F"/>
<path d="M6.09982 15.24H4.56982V16.76H6.09982V15.24Z" fill="#BFFB4F"/>
<path d="M28.9498 7.62H3.0498V9.14H28.9498V7.62Z" fill="#BFFB4F"/>
<path d="M4.5698 16.76H3.0498V18.28H4.5698V16.76Z" fill="#BFFB4F"/>
<path d="M4.5698 13.71H3.0498V15.24H4.5698V13.71Z" fill="#BFFB4F"/>
<path d="M3.04979 21.33H1.52979V22.86H3.04979V21.33Z" fill="#BFFB4F"/>
<path d="M3.04979 9.14H1.52979V10.67H3.04979V9.14Z" fill="#BFFB4F"/>
<path d="M1.53 10.67H0V21.33H1.53V10.67Z" fill="#BFFB4F"/>
</g>
<defs>
<clipPath id="clip0_1178_5859">
<rect width="32" height="32" fill="white"/>
</clipPath>
</defs>
</svg>
