<svg width="32" height="32" viewBox="0 0 32 32" fill="none" xmlns="http://www.w3.org/2000/svg">
<g clip-path="url(#clip0_1178_4837)">
<path d="M32.0002 12.19H30.4702V19.81H32.0002V12.19Z" fill="#BFFB4F"/>
<path d="M30.4702 19.81H28.9502V22.86H30.4702V19.81Z" fill="#BFFB4F"/>
<path d="M30.4702 9.14H28.9502V12.19H30.4702V9.14Z" fill="#BFFB4F"/>
<path d="M28.9502 22.86H27.4302V25.9H28.9502V22.86Z" fill="#BFFB4F"/>
<path d="M28.9502 6.10001H27.4302V9.14001H28.9502V6.10001Z" fill="#BFFB4F"/>
<path d="M27.4299 25.9H25.8999V27.43H27.4299V25.9Z" fill="#BFFB4F"/>
<path d="M27.4299 12.19H25.8999V19.81H27.4299V12.19Z" fill="#BFFB4F"/>
<path d="M27.4299 4.57001H25.8999V6.10001H27.4299V4.57001Z" fill="#BFFB4F"/>
<path d="M25.8999 19.81H24.3799V22.86H25.8999V19.81Z" fill="#BFFB4F"/>
<path d="M25.8999 9.14H24.3799V12.19H25.8999V9.14Z" fill="#BFFB4F"/>
<path d="M25.9001 3.05H22.8501V4.57H25.9001V3.05Z" fill="#BFFB4F"/>
<path d="M24.3801 22.86H22.8501V24.38H24.3801V22.86Z" fill="#BFFB4F"/>
<path d="M24.3801 7.62H22.8501V9.14H24.3801V7.62Z" fill="#BFFB4F"/>
<path d="M22.8501 12.19H21.3301V19.81H22.8501V12.19Z" fill="#BFFB4F"/>
<path d="M22.8501 6.10001H19.8101V7.62001H22.8501V6.10001Z" fill="#BFFB4F"/>
<path d="M22.8501 1.52H19.8101V3.05H22.8501V1.52Z" fill="#BFFB4F"/>
<path d="M21.3301 19.81H19.8101V21.33H21.3301V19.81Z" fill="#BFFB4F"/>
<path d="M21.3301 10.67H19.8101V12.19H21.3301V10.67Z" fill="#BFFB4F"/>
<path d="M19.8102 22.86H18.2802V21.33H13.7102V22.86H12.1902V24.38H10.6602V30.48H12.1902V32H19.8102V30.48H21.3302V24.38H19.8102V22.86ZM16.7602 27.43H15.2402V24.38H16.7602V27.43Z" fill="#BFFB4F"/>
<path d="M19.8099 9.14H12.1899V10.67H19.8099V9.14Z" fill="#BFFB4F"/>
<path d="M19.8099 4.57001H12.1899V6.10001H19.8099V4.57001Z" fill="#BFFB4F"/>
<path d="M19.8099 0H12.1899V1.52H19.8099V0Z" fill="#BFFB4F"/>
<path d="M13.7099 12.19V13.71H12.1899V18.29H13.7099V19.81H18.2799V18.29H19.8099V13.71H18.2799V12.19H13.7099Z" fill="#BFFB4F"/>
<path d="M12.1902 19.81H10.6602V21.33H12.1902V19.81Z" fill="#BFFB4F"/>
<path d="M12.1902 10.67H10.6602V12.19H12.1902V10.67Z" fill="#BFFB4F"/>
<path d="M10.6601 12.19H9.14014V19.81H10.6601V12.19Z" fill="#BFFB4F"/>
<path d="M12.1901 6.10001H9.14014V7.62001H12.1901V6.10001Z" fill="#BFFB4F"/>
<path d="M12.1901 1.52H9.14014V3.05H12.1901V1.52Z" fill="#BFFB4F"/>
<path d="M9.14012 22.86H7.62012V24.38H9.14012V22.86Z" fill="#BFFB4F"/>
<path d="M9.14012 7.62H7.62012V9.14H9.14012V7.62Z" fill="#BFFB4F"/>
<path d="M7.61984 19.81H6.08984V22.86H7.61984V19.81Z" fill="#BFFB4F"/>
<path d="M7.61984 9.14H6.08984V12.19H7.61984V9.14Z" fill="#BFFB4F"/>
<path d="M9.13984 3.05H6.08984V4.57H9.13984V3.05Z" fill="#BFFB4F"/>
<path d="M6.08982 25.9H4.56982V27.43H6.08982V25.9Z" fill="#BFFB4F"/>
<path d="M6.08982 12.19H4.56982V19.81H6.08982V12.19Z" fill="#BFFB4F"/>
<path d="M6.08982 4.57001H4.56982V6.10001H6.08982V4.57001Z" fill="#BFFB4F"/>
<path d="M4.5698 22.86H3.0498V25.9H4.5698V22.86Z" fill="#BFFB4F"/>
<path d="M4.5698 6.10001H3.0498V9.14001H4.5698V6.10001Z" fill="#BFFB4F"/>
<path d="M3.05002 19.81H1.52002V22.86H3.05002V19.81Z" fill="#BFFB4F"/>
<path d="M3.05002 9.14H1.52002V12.19H3.05002V9.14Z" fill="#BFFB4F"/>
<path d="M1.52 12.19H0V19.81H1.52V12.19Z" fill="#BFFB4F"/>
</g>
<defs>
<clipPath id="clip0_1178_4837">
<rect width="32" height="32" fill="white"/>
</clipPath>
</defs>
</svg>
