<svg width="32" height="32" viewBox="0 0 32 32" fill="none" xmlns="http://www.w3.org/2000/svg">
<g clip-path="url(#clip0_1128_11027)">
<path d="M23.615 8.38001V11.43H25.145V8.38001H26.665V6.85001H28.1849V5.33001H31.235V2.28001H29.715V0.76001H26.665V3.81001H25.145V5.33001H23.615V6.85001H20.575V8.38001H23.615Z" fill="#000001"/>
<path d="M28.1848 14.47H26.6648V20.57H28.1848V14.47Z" fill="#000001"/>
<path d="M26.6648 20.57H25.1448V22.09H26.6648V20.57Z" fill="#000001"/>
<path d="M26.6648 11.43H25.1448V14.47H26.6648V11.43Z" fill="#000001"/>
<path d="M23.615 23.62H22.095V28.19H23.615V26.66H25.145V28.19H26.665V31.24H29.715V29.71H31.235V26.66H28.185V25.14H26.665V23.62H25.145V22.09H23.615V23.62Z" fill="#000001"/>
<path d="M19.0449 17.52H22.0949V16H23.6149V12.95H22.0949V11.43H19.0449V12.95H17.5249V16H19.0449V17.52Z" fill="#000001"/>
<path d="M19.0448 25.14H17.5248V28.19H14.4748V25.14H12.9548V28.19H9.90479V29.71H22.0948V28.19H19.0448V25.14Z" fill="#000001"/>
<path d="M17.5249 19.04H14.4749V20.57H17.5249V19.04Z" fill="#000001"/>
<path d="M9.90501 17.52H12.955V16H14.475V12.95H12.955V11.43H9.90501V12.95H8.38501V16H9.90501V17.52Z" fill="#000001"/>
<path d="M20.5748 5.33002H11.4248V6.85002H20.5748V5.33002Z" fill="#000001"/>
<path d="M5.33489 23.62V25.14H3.80489V26.66H0.764893V29.71H2.28489V31.24H5.33489V28.19H6.85489V26.66H8.38489V28.19H9.90489V23.62H8.38489V22.09H6.85489V23.62H5.33489Z" fill="#000001"/>
<path d="M8.38489 8.38001H11.4249V6.85001H8.38489V5.33001H6.85489V3.81001H5.33489V0.76001H2.28489V2.28001H0.764893V5.33001H3.80489V6.85001H5.33489V8.38001H6.85489V11.43H8.38489V8.38001Z" fill="#000001"/>
<path d="M6.85496 20.57H5.33496V22.09H6.85496V20.57Z" fill="#000001"/>
<path d="M6.85496 11.43H5.33496V14.47H6.85496V11.43Z" fill="#000001"/>
<path d="M5.33493 14.47H3.80493V20.57H5.33493V14.47Z" fill="#000001"/>
</g>
<defs>
<clipPath id="clip0_1128_11027">
<rect width="32" height="32" fill="white"/>
</clipPath>
</defs>
</svg>
