<svg width="32" height="32" viewBox="0 0 32 32" fill="none" xmlns="http://www.w3.org/2000/svg">
<g clip-path="url(#clip0_1178_6761)">
<path d="M32.0002 12.19H30.4702V18.29H32.0002V12.19Z" fill="#BFFB4F"/>
<path d="M30.4702 18.29H28.9502V19.81H30.4702V18.29Z" fill="#BFFB4F"/>
<path d="M30.4702 10.67H28.9502V12.19H30.4702V10.67Z" fill="#BFFB4F"/>
<path d="M28.9502 24.38H27.4302V25.9H28.9502V24.38Z" fill="#BFFB4F"/>
<path d="M27.4299 25.9H25.8999V27.43H27.4299V25.9Z" fill="#BFFB4F"/>
<path d="M28.9501 19.81H22.8501V21.33H28.9501V19.81Z" fill="#BFFB4F"/>
<path d="M27.4301 12.19H24.3801V13.71H22.8501V16.76H24.3801V18.29H27.4301V16.76H28.9501V13.71H27.4301V12.19Z" fill="#BFFB4F"/>
<path d="M27.4299 4.57001H25.8999V6.10001H27.4299V4.57001Z" fill="#BFFB4F"/>
<path d="M28.9501 9.14001H22.8501V10.67H28.9501V9.14001Z" fill="#BFFB4F"/>
<path d="M25.9001 27.43H22.8501V28.95H25.9001V27.43Z" fill="#BFFB4F"/>
<path d="M25.9001 3.04999H22.8501V4.56999H25.9001V3.04999Z" fill="#BFFB4F"/>
<path d="M22.8501 18.29H21.3301V19.81H22.8501V18.29Z" fill="#BFFB4F"/>
<path d="M22.8501 10.67H21.3301V12.19H22.8501V10.67Z" fill="#BFFB4F"/>
<path d="M22.8501 28.95H19.8101V30.48H22.8501V28.95Z" fill="#BFFB4F"/>
<path d="M15.2402 15.24V19.81H16.7602V16.76H19.8102V18.29H21.3302V15.24H15.2402Z" fill="#BFFB4F"/>
<path d="M22.8501 1.51999H19.8101V3.04999H22.8501V1.51999Z" fill="#BFFB4F"/>
<path d="M19.8099 30.48H12.1899V32H19.8099V30.48Z" fill="#BFFB4F"/>
<path d="M15.24 19.81H13.71V21.33H15.24V19.81Z" fill="#BFFB4F"/>
<path d="M19.8099 0H12.1899V1.52H19.8099V0Z" fill="#BFFB4F"/>
<path d="M13.7101 15.24H9.14014V19.81H10.6601V16.76H12.1901V19.81H13.7101V15.24Z" fill="#BFFB4F"/>
<path d="M12.1901 28.95H9.14014V30.48H12.1901V28.95Z" fill="#BFFB4F"/>
<path d="M12.1901 1.51999H9.14014V3.04999H12.1901V1.51999Z" fill="#BFFB4F"/>
<path d="M21.3301 12.19H7.62012V13.71H21.3301V12.19Z" fill="#BFFB4F"/>
<path d="M9.13984 27.43H6.08984V28.95H9.13984V27.43Z" fill="#BFFB4F"/>
<path d="M9.14012 19.81H7.62012V21.33H9.14012V19.81Z" fill="#BFFB4F"/>
<path d="M9.13984 3.04999H6.08984V4.56999H9.13984V3.04999Z" fill="#BFFB4F"/>
<path d="M7.61984 13.71H6.08984V19.81H7.61984V13.71Z" fill="#BFFB4F"/>
<path d="M6.08982 25.9H4.56982V27.43H6.08982V25.9Z" fill="#BFFB4F"/>
<path d="M6.08982 4.57001H4.56982V6.10001H6.08982V4.57001Z" fill="#BFFB4F"/>
<path d="M4.5698 22.86H3.0498V25.9H4.5698V22.86Z" fill="#BFFB4F"/>
<path d="M4.5698 6.10001H3.0498V9.14001H4.5698V6.10001Z" fill="#BFFB4F"/>
<path d="M3.05002 19.81H1.52002V22.86H3.05002V19.81Z" fill="#BFFB4F"/>
<path d="M3.05002 9.14001H1.52002V12.19H3.05002V9.14001Z" fill="#BFFB4F"/>
<path d="M1.52 12.19H0V19.81H1.52V12.19Z" fill="#BFFB4F"/>
</g>
<defs>
<clipPath id="clip0_1178_6761">
<rect width="32" height="32" fill="white"/>
</clipPath>
</defs>
</svg>
