<svg width="32" height="32" viewBox="0 0 32 32" fill="none" xmlns="http://www.w3.org/2000/svg">
<path d="M19.81 10.67V4.57999H18.29V30.48H19.81V12.2H28.95V3.04999H27.43V10.67H19.81Z" fill="#000001"/>
<path d="M27.4302 1.53H25.9102V3.05H27.4302V1.53Z" fill="#000001"/>
<path d="M21.3301 3.04999H19.8101V4.57999H21.3301V3.04999Z" fill="#000001"/>
<path d="M18.29 30.48H16.76V32H18.29V30.48Z" fill="#000001"/>
<path d="M16.76 28.96H15.24V30.48H16.76V28.96Z" fill="#000001"/>
<path d="M15.24 27.43H13.72V28.96H15.24V27.43Z" fill="#000001"/>
<path d="M15.2401 9.14999H12.1901V10.67H10.6701V9.14999H7.6201V10.67H6.1001V13.72H7.6201V15.24H9.1401V16.77H10.6701V18.29H12.1901V16.77H13.7201V15.24H15.2401V13.72H16.7601V10.67H15.2401V9.14999Z" fill="#000001"/>
<path d="M13.7199 25.91H12.1899V27.43H13.7199V25.91Z" fill="#000001"/>
<path d="M12.1902 24.39H10.6702V25.91H12.1902V24.39Z" fill="#000001"/>
<path d="M10.6701 25.91H9.14014V27.43H10.6701V25.91Z" fill="#000001"/>
<path d="M7.62012 1.53H21.3301V3.05H22.8601V1.53H25.9101V0H7.62012V1.53Z" fill="#000001"/>
<path d="M9.14012 27.43H7.62012V28.96H9.14012V27.43Z" fill="#000001"/>
<path d="M7.6201 28.96H6.1001V30.48H7.6201V28.96Z" fill="#000001"/>
<path d="M7.6201 1.53H6.1001V3.05H7.6201V1.53Z" fill="#000001"/>
<path d="M6.10007 30.48H4.57007V32H6.10007V30.48Z" fill="#000001"/>
<path d="M6.10007 3.04999H4.57007V4.57999H6.10007V3.04999Z" fill="#000001"/>
<path d="M4.57005 4.57999H3.05005V30.48H4.57005V4.57999Z" fill="#000001"/>
</svg>
