<svg width="32" height="32" viewBox="0 0 32 32" fill="none" xmlns="http://www.w3.org/2000/svg">
<g clip-path="url(#clip0_1178_8211)">
<path d="M32 12.19H30.48V19.81H32V12.19Z" fill="#BFFB4F"/>
<path d="M30.4802 19.81H28.9502V22.86H30.4802V19.81Z" fill="#BFFB4F"/>
<path d="M30.4802 9.14001H28.9502V12.19H30.4802V9.14001Z" fill="#BFFB4F"/>
<path d="M28.9502 22.86H27.4302V25.9H28.9502V22.86Z" fill="#BFFB4F"/>
<path d="M28.9502 6.09003H27.4302V9.14003H28.9502V6.09003Z" fill="#BFFB4F"/>
<path d="M27.4299 25.9H25.8999V27.43H27.4299V25.9Z" fill="#BFFB4F"/>
<path d="M27.4299 4.57001H25.8999V6.09001H27.4299V4.57001Z" fill="#BFFB4F"/>
<path d="M25.8999 27.43H22.8599V28.95H25.8999V27.43Z" fill="#BFFB4F"/>
<path d="M25.8999 3.04999H22.8599V4.56999H25.8999V3.04999Z" fill="#BFFB4F"/>
<path d="M22.8601 28.95H19.8101V30.48H22.8601V28.95Z" fill="#BFFB4F"/>
<path d="M22.8601 1.52002H19.8101V3.05002H22.8601V1.52002Z" fill="#BFFB4F"/>
<path d="M19.8099 30.48H12.1899V32H19.8099V30.48Z" fill="#BFFB4F"/>
<path d="M18.2899 19.81H13.7099V21.33H12.1899V25.9H13.7099V27.43H18.2899V25.9H19.8099V21.33H18.2899V19.81Z" fill="#BFFB4F"/>
<path d="M18.2899 4.57001H13.7099V6.09001H12.1899V15.24H13.7099V18.29H18.2899V15.24H19.8099V6.09001H18.2899V4.57001Z" fill="#BFFB4F"/>
<path d="M19.8099 0H12.1899V1.52H19.8099V0Z" fill="#BFFB4F"/>
<path d="M12.1901 28.95H9.14014V30.48H12.1901V28.95Z" fill="#BFFB4F"/>
<path d="M12.1901 1.52002H9.14014V3.05002H12.1901V1.52002Z" fill="#BFFB4F"/>
<path d="M9.13984 27.43H6.08984V28.95H9.13984V27.43Z" fill="#BFFB4F"/>
<path d="M9.13984 3.04999H6.08984V4.56999H9.13984V3.04999Z" fill="#BFFB4F"/>
<path d="M6.08982 25.9H4.56982V27.43H6.08982V25.9Z" fill="#BFFB4F"/>
<path d="M6.08982 4.57001H4.56982V6.09001H6.08982V4.57001Z" fill="#BFFB4F"/>
<path d="M4.5698 22.86H3.0498V25.9H4.5698V22.86Z" fill="#BFFB4F"/>
<path d="M4.5698 6.09003H3.0498V9.14003H4.5698V6.09003Z" fill="#BFFB4F"/>
<path d="M3.05002 19.81H1.52002V22.86H3.05002V19.81Z" fill="#BFFB4F"/>
<path d="M3.05002 9.14001H1.52002V12.19H3.05002V9.14001Z" fill="#BFFB4F"/>
<path d="M1.52 12.19H0V19.81H1.52V12.19Z" fill="#BFFB4F"/>
</g>
<defs>
<clipPath id="clip0_1178_8211">
<rect width="32" height="32" fill="white"/>
</clipPath>
</defs>
</svg>
