<svg width="32" height="32" viewBox="0 0 32 32" fill="none" xmlns="http://www.w3.org/2000/svg">
<g clip-path="url(#clip0_1178_5795)">
<path d="M32.0002 6.1H30.4702V10.67H32.0002V6.1Z" fill="#BFFB4F"/>
<path d="M30.4702 10.67H28.9502V12.19H30.4702V10.67Z" fill="#BFFB4F"/>
<path d="M30.4702 4.57H28.9502V6.1H30.4702V4.57Z" fill="#BFFB4F"/>
<path d="M28.9502 12.19H27.4302V13.71H28.9502V12.19Z" fill="#BFFB4F"/>
<path d="M28.9502 3.05H27.4302V4.57H28.9502V3.05Z" fill="#BFFB4F"/>
<path d="M27.4299 13.71H25.8999V15.24H27.4299V13.71Z" fill="#BFFB4F"/>
<path d="M27.4299 10.67H25.8999V12.19H27.4299V10.67Z" fill="#BFFB4F"/>
<path d="M27.4299 1.52H25.8999V3.05H27.4299V1.52Z" fill="#BFFB4F"/>
<path d="M25.8999 15.24H24.3799V16.76H25.8999V15.24Z" fill="#BFFB4F"/>
<path d="M25.8999 9.14H24.3799V10.67H25.8999V9.14Z" fill="#BFFB4F"/>
<path d="M24.3801 16.76H22.8501V18.29H24.3801V16.76Z" fill="#BFFB4F"/>
<path d="M24.3801 10.67H22.8501V12.19H24.3801V10.67Z" fill="#BFFB4F"/>
<path d="M24.3801 7.62H22.8501V9.14H24.3801V7.62Z" fill="#BFFB4F"/>
<path d="M25.9001 0H21.3301V1.52H25.9001V0Z" fill="#BFFB4F"/>
<path d="M22.8501 18.29H21.3301V19.81H22.8501V18.29Z" fill="#BFFB4F"/>
<path d="M22.8501 12.19H21.3301V13.71H22.8501V12.19Z" fill="#BFFB4F"/>
<path d="M22.8501 6.1H21.3301V7.62H22.8501V6.1Z" fill="#BFFB4F"/>
<path d="M21.3301 19.81H19.8101V21.33H21.3301V19.81Z" fill="#BFFB4F"/>
<path d="M21.3301 13.71H19.8101V15.24H21.3301V13.71Z" fill="#BFFB4F"/>
<path d="M21.3301 7.62H19.8101V9.14H21.3301V7.62Z" fill="#BFFB4F"/>
<path d="M21.3301 4.57H19.8101V6.1H21.3301V4.57Z" fill="#BFFB4F"/>
<path d="M21.3301 1.52H19.8101V3.05H21.3301V1.52Z" fill="#BFFB4F"/>
<path d="M19.8098 21.33H18.2798V22.86H19.8098V21.33Z" fill="#BFFB4F"/>
<path d="M19.8098 15.24H18.2798V16.76H19.8098V15.24Z" fill="#BFFB4F"/>
<path d="M19.8098 9.14H18.2798V10.67H19.8098V9.14Z" fill="#BFFB4F"/>
<path d="M19.8098 3.05H18.2798V4.57H19.8098V3.05Z" fill="#BFFB4F"/>
<path d="M18.2798 22.86H16.7598V24.38H18.2798V22.86Z" fill="#BFFB4F"/>
<path d="M18.2798 16.76H16.7598V18.29H18.2798V16.76Z" fill="#BFFB4F"/>
<path d="M18.2798 10.67H16.7598V12.19H18.2798V10.67Z" fill="#BFFB4F"/>
<path d="M18.2798 4.57H16.7598V6.1H18.2798V4.57Z" fill="#BFFB4F"/>
<path d="M16.7602 24.38H15.2402V25.9H16.7602V24.38Z" fill="#BFFB4F"/>
<path d="M16.7602 18.29H15.2402V19.81H16.7602V18.29Z" fill="#BFFB4F"/>
<path d="M16.7602 12.19H15.2402V13.71H16.7602V12.19Z" fill="#BFFB4F"/>
<path d="M16.7602 6.1H15.2402V7.62H16.7602V6.1Z" fill="#BFFB4F"/>
<path d="M15.24 25.9H13.71V27.43H15.24V25.9Z" fill="#BFFB4F"/>
<path d="M15.24 19.81H13.71V21.33H15.24V19.81Z" fill="#BFFB4F"/>
<path d="M15.24 13.71H13.71V15.24H15.24V13.71Z" fill="#BFFB4F"/>
<path d="M15.24 7.62H13.71V9.14H15.24V7.62Z" fill="#BFFB4F"/>
<path d="M13.7099 27.43H12.1899V28.95H13.7099V27.43Z" fill="#BFFB4F"/>
<path d="M13.7099 21.33H12.1899V22.86H13.7099V21.33Z" fill="#BFFB4F"/>
<path d="M13.7099 15.24H12.1899V16.76H13.7099V15.24Z" fill="#BFFB4F"/>
<path d="M13.7099 9.14H12.1899V10.67H13.7099V9.14Z" fill="#BFFB4F"/>
<path d="M12.1902 22.86H10.6602V24.38H12.1902V22.86Z" fill="#BFFB4F"/>
<path d="M12.1902 16.76H10.6602V18.29H12.1902V16.76Z" fill="#BFFB4F"/>
<path d="M12.1902 10.67H10.6602V12.19H12.1902V10.67Z" fill="#BFFB4F"/>
<path d="M10.66 30.48H12.19V28.95H10.66V24.38H7.62V21.33H3.05V19.81H1.52V21.33H0V32H10.66V30.48ZM9.14 30.48H4.57V28.95H3.05V27.43H1.52V22.86H6.09V25.9H9.14V30.48Z" fill="#BFFB4F"/>
<path d="M10.6601 18.29H9.14014V19.81H10.6601V18.29Z" fill="#BFFB4F"/>
<path d="M10.6601 12.19H9.14014V13.71H10.6601V12.19Z" fill="#BFFB4F"/>
<path d="M9.14012 19.81H7.62012V21.33H9.14012V19.81Z" fill="#BFFB4F"/>
<path d="M9.14012 13.71H7.62012V15.24H9.14012V13.71Z" fill="#BFFB4F"/>
<path d="M7.61984 15.24H6.08984V16.76H7.61984V15.24Z" fill="#BFFB4F"/>
<path d="M6.08982 16.76H4.56982V18.29H6.08982V16.76Z" fill="#BFFB4F"/>
<path d="M4.5698 18.29H3.0498V19.81H4.5698V18.29Z" fill="#BFFB4F"/>
</g>
<defs>
<clipPath id="clip0_1178_5795">
<rect width="32" height="32" fill="white"/>
</clipPath>
</defs>
</svg>
