<svg width="32" height="32" viewBox="0 0 32 32" fill="none" xmlns="http://www.w3.org/2000/svg">
<g clip-path="url(#clip0_1178_5963)">
<path d="M30.4801 4.57H28.9501V6.1H27.4301V4.57H25.9101V3.05H27.4301V1.52H25.9101V0H24.3801V6.1H19.8101V7.62H24.3801V13.71H25.9101V12.19H27.4301V10.67H28.9501V9.14H30.4801V7.62H32.0001V6.1H30.4801V4.57Z" fill="#BFFB4F"/>
<path d="M28.9502 16.76H27.4302V28.95H28.9502V16.76Z" fill="#BFFB4F"/>
<path d="M28.9502 3.05H27.4302V4.57H28.9502V3.05Z" fill="#BFFB4F"/>
<path d="M27.4302 28.95H25.9102V30.48H27.4302V28.95Z" fill="#BFFB4F"/>
<path d="M25.9098 30.48H3.0498V32H25.9098V30.48Z" fill="#BFFB4F"/>
<path d="M19.8098 7.62H16.7598V9.14H19.8098V7.62Z" fill="#BFFB4F"/>
<path d="M16.7602 9.14H15.2402V10.67H16.7602V9.14Z" fill="#BFFB4F"/>
<path d="M15.24 10.67H13.71V18.29H15.24V10.67Z" fill="#BFFB4F"/>
<path d="M18.2898 3.05H3.0498V4.57H18.2898V3.05Z" fill="#BFFB4F"/>
<path d="M3.05002 28.95H1.52002V30.48H3.05002V28.95Z" fill="#BFFB4F"/>
<path d="M3.05002 4.57H1.52002V6.1H3.05002V4.57Z" fill="#BFFB4F"/>
<path d="M1.52 6.1H0V28.95H1.52V6.1Z" fill="#BFFB4F"/>
</g>
<defs>
<clipPath id="clip0_1178_5963">
<rect width="32" height="32" fill="white"/>
</clipPath>
</defs>
</svg>
