<svg width="32" height="32" viewBox="0 0 32 32" fill="none" xmlns="http://www.w3.org/2000/svg">
<g clip-path="url(#clip0_1178_13451)">
<path d="M1.52 22.86H3.04V25.9H4.57V27.43H6.09V28.95H9.14V30.48H12.19V32H19.81V30.48H22.85V28.95H25.9V27.43H27.42V25.9H28.95V22.86H30.47V19.81H32V12.19H30.47V9.14H28.95V6.09H27.42V4.57H25.9V3.05H22.85V1.52H19.81V0H12.19V1.52H9.14V3.05H6.09V4.57H4.57V6.09H3.04V9.14H1.52V12.19H0V19.81H1.52V22.86ZM6.09 7.62H25.9V18.29H24.38V19.81H22.85V21.33H21.33V22.86H15.23V24.38H13.71V25.9H12.19V27.43H9.14V24.38H7.61V21.33H6.09V7.62Z" fill="#BFFB4F"/>
<path d="M24.3801 10.67H9.14014V22.86H10.6601V25.9H12.1901V24.38H13.7101V22.86H15.2301V21.33H21.3301V19.81H22.8501V18.29H24.3801V10.67ZM16.7601 18.29H15.2301V12.19H16.7601V18.29ZM21.3301 18.29H19.8101V12.19H21.3301V18.29Z" fill="#BFFB4F"/>
</g>
<defs>
<clipPath id="clip0_1178_13451">
<rect width="32" height="32" fill="white"/>
</clipPath>
</defs>
</svg>
