<svg width="32" height="32" viewBox="0 0 32 32" fill="none" xmlns="http://www.w3.org/2000/svg">
<path d="M30.47 23.62H28.95V25.14H3.04004V26.67H4.57004V28.19H30.47V26.67H32V8.38H30.47V23.62Z" fill="#000001"/>
<path d="M28.9501 5.32999H27.4301V22.1H28.9501V5.32999Z" fill="#000001"/>
<path d="M24.38 9.91H21.33V11.43H24.38V9.91Z" fill="#000001"/>
<path d="M24.3801 12.95H21.3301V11.43H19.8101V17.52H21.3301V14.48H24.3801V17.52H25.9001V11.43H24.3801V12.95Z" fill="#000001"/>
<path d="M18.28 14.48H16.76V16H18.28V14.48Z" fill="#000001"/>
<path d="M16.76 12.95H13.71V14.48H16.76V12.95Z" fill="#000001"/>
<path d="M18.28 9.91H13.71V11.43H18.28V9.91Z" fill="#000001"/>
<path d="M16.7599 16H12.1899V17.52H16.7599V16Z" fill="#000001"/>
<path d="M13.7099 11.43H12.1899V12.95H13.7099V11.43Z" fill="#000001"/>
<path d="M10.66 9.91H9.14001V17.52H10.66V9.91Z" fill="#000001"/>
<path d="M7.61997 9.91H6.08997V16H7.61997V9.91Z" fill="#000001"/>
<path d="M6.08995 16H4.56995V17.52H6.08995V16Z" fill="#000001"/>
<path d="M4.57004 9.91H3.04004V16H4.57004V9.91Z" fill="#000001"/>
<path d="M27.43 3.81H1.52002V5.33H27.43V3.81Z" fill="#000001"/>
<path d="M27.43 22.1H1.52002V23.62H27.43V22.1Z" fill="#000001"/>
<path d="M1.52 5.32999H0V22.1H1.52V5.32999Z" fill="#000001"/>
</svg>
