<svg width="32" height="32" viewBox="0 0 32 32" fill="none" xmlns="http://www.w3.org/2000/svg">
<path d="M32 16.76H30.48V18.29H32V16.76Z" fill="#000001"/>
<path d="M30.4799 18.29H28.95V19.81H30.4799V18.29Z" fill="#000001"/>
<path d="M28.9501 22.8601H27.4301V25.9101H28.9501V22.8601Z" fill="#000001"/>
<path d="M28.9501 19.8101H27.4301V21.3401H28.9501V19.8101Z" fill="#000001"/>
<path d="M27.43 21.3401H25.91V22.8601H27.43V21.3401Z" fill="#000001"/>
<path d="M27.43 25.9102H22.86V27.4302H27.43V25.9102Z" fill="#000001"/>
<path d="M24.38 6.1001H22.86V7.6201H24.38V6.1001Z" fill="#000001"/>
<path d="M22.86 24.3801H21.34V25.9101H22.86V24.3801Z" fill="#000001"/>
<path d="M21.3401 22.8601H19.8101V24.3801H21.3401V22.8601Z" fill="#000001"/>
<path d="M19.81 21.3401H18.29V22.8601H19.81V21.3401Z" fill="#000001"/>
<path d="M22.86 4.57007H15.24V6.10007H22.86V4.57007Z" fill="#000001"/>
<path d="M18.29 22.8601H15.24V24.3801H18.29V22.8601Z" fill="#000001"/>
<path d="M15.24 21.3401H13.72V22.8601H15.24V21.3401Z" fill="#000001"/>
<path d="M13.7199 22.8601H12.1899V24.3801H13.7199V22.8601Z" fill="#000001"/>
<path d="M12.19 24.3801H7.62V25.9101H12.19V24.3801Z" fill="#000001"/>
<path d="M10.67 19.8101H9.15002V21.3401H10.67V19.8101Z" fill="#000001"/>
<path d="M10.67 15.24H9.15002V16.76H10.67V15.24Z" fill="#000001"/>
<path d="M10.67 12.1901V10.6701H12.19V12.1901H13.72V15.2401H12.19V16.7601H10.67V18.2901H12.19V19.8101H25.91V18.2901H27.43V16.7601H30.48V15.2401H28.95V12.1901H27.43V15.2401H25.91V16.7601H24.38V15.2401H22.86V12.1901H24.38V10.6701H25.91V12.1901H27.43V9.1501H25.91V7.6201H24.38V9.1501H22.86V10.6701H16.76V7.6201H15.24V6.1001H12.19V7.6201H10.67V9.1501H9.15002V12.1901H10.67ZM15.24 16.7601H16.76V15.2401H21.34V16.7601H22.86V18.2901H15.24V16.7601Z" fill="#000001"/>
<path d="M9.14999 21.3401H7.62V22.8601H9.14999V21.3401Z" fill="#000001"/>
<path d="M9.14999 18.29H7.62V19.81H9.14999V18.29Z" fill="#000001"/>
<path d="M9.14999 12.1902H7.62V15.2402H9.14999V12.1902Z" fill="#000001"/>
<path d="M9.14999 7.62012H7.62V9.15012H9.14999V7.62012Z" fill="#000001"/>
<path d="M7.61998 22.8601H6.09998V24.3801H7.61998V22.8601Z" fill="#000001"/>
<path d="M7.61998 16.76H6.09998V18.29H7.61998V16.76Z" fill="#000001"/>
<path d="M6.09995 15.24H4.56995V16.76H6.09995V15.24Z" fill="#000001"/>
<path d="M7.62005 6.1001H3.05005V7.6201H7.62005V6.1001Z" fill="#000001"/>
<path d="M4.57003 13.72H1.53003V15.24H4.57003V13.72Z" fill="#000001"/>
<path d="M4.57005 10.6702H3.05005V12.1902H4.57005V10.6702Z" fill="#000001"/>
<path d="M3.05003 7.62012H1.53003V9.15012H3.05003V7.62012Z" fill="#000001"/>
<path d="M1.53 9.15015H0V13.7201H1.53V9.15015Z" fill="#000001"/>
</svg>
