<svg width="32" height="32" viewBox="0 0 32 32" fill="none" xmlns="http://www.w3.org/2000/svg">
<g clip-path="url(#clip0_1178_15361)">
<path d="M32 14.475H30.48V20.565H32V14.475Z" fill="#BFFB4F"/>
<path d="M32 3.80505H30.48V9.90505H32V3.80505Z" fill="#BFFB4F"/>
<path d="M30.4802 20.5651H28.9502V23.6151H30.4802V20.5651Z" fill="#BFFB4F"/>
<path d="M30.4802 9.90503H28.9502V14.475H30.4802V9.90503Z" fill="#BFFB4F"/>
<path d="M28.9502 23.615H27.4302V25.135H28.9502V23.615Z" fill="#BFFB4F"/>
<path d="M28.9502 8.375H27.4302V9.905H28.9502V8.375Z" fill="#BFFB4F"/>
<path d="M27.4302 25.135H25.9102V26.665H27.4302V25.135Z" fill="#BFFB4F"/>
<path d="M27.4302 6.85498H25.9102V8.37498H27.4302V6.85498Z" fill="#BFFB4F"/>
<path d="M30.4799 2.28503H22.8599V3.80503H30.4799V2.28503Z" fill="#BFFB4F"/>
<path d="M25.9098 26.665H21.3398V28.185H25.9098V26.665Z" fill="#BFFB4F"/>
<path d="M22.8598 3.80505H21.3398V5.32505H22.8598V3.80505Z" fill="#BFFB4F"/>
<path d="M21.3399 16H10.6699V17.52H9.1499V22.1H10.6699V23.62H21.3399V22.1H22.8599V17.52H21.3399V16ZM15.2399 22.1H12.1899V19.05H15.2399V22.1ZM19.8099 22.1H16.7599V19.05H19.8099V22.1Z" fill="#BFFB4F"/>
<path d="M21.3399 28.1851H10.6699V29.7151H21.3399V28.1851Z" fill="#BFFB4F"/>
<path d="M19.81 12.9451H18.29V14.4751H19.81V12.9451Z" fill="#BFFB4F"/>
<path d="M13.7199 12.9451H12.1899V14.4751H13.7199V12.9451Z" fill="#BFFB4F"/>
<path d="M21.3399 2.28503H10.6699V3.80503H21.3399V2.28503Z" fill="#BFFB4F"/>
<path d="M10.6701 26.665H6.1001V28.185H10.6701V26.665Z" fill="#BFFB4F"/>
<path d="M10.6699 3.80505H9.1499V5.32505H10.6699V3.80505Z" fill="#BFFB4F"/>
<path d="M6.09982 25.135H4.56982V26.665H6.09982V25.135Z" fill="#BFFB4F"/>
<path d="M6.09982 6.85498H4.56982V8.37498H6.09982V6.85498Z" fill="#BFFB4F"/>
<path d="M4.5698 23.615H3.0498V25.135H4.5698V23.615Z" fill="#BFFB4F"/>
<path d="M4.5698 8.375H3.0498V9.905H4.5698V8.375Z" fill="#BFFB4F"/>
<path d="M9.14979 2.28503H1.52979V3.80503H9.14979V2.28503Z" fill="#BFFB4F"/>
<path d="M3.04979 20.5651H1.52979V23.6151H3.04979V20.5651Z" fill="#BFFB4F"/>
<path d="M3.04979 9.90503H1.52979V14.475H3.04979V9.90503Z" fill="#BFFB4F"/>
<path d="M1.53 14.475H0V20.565H1.53V14.475Z" fill="#BFFB4F"/>
<path d="M1.53 3.80505H0V9.90505H1.53V3.80505Z" fill="#BFFB4F"/>
</g>
<defs>
<clipPath id="clip0_1178_15361">
<rect width="32" height="32" fill="white"/>
</clipPath>
</defs>
</svg>
