<svg width="32" height="32" viewBox="0 0 32 32" fill="none" xmlns="http://www.w3.org/2000/svg">
<g clip-path="url(#clip0_1178_16153)">
<path d="M27.4302 0V32H32.0002V0H27.4302ZM30.4802 30.48H28.9602V28.96H30.4802V30.48ZM30.4802 27.43H28.9602V25.91H30.4802V27.43ZM30.4802 24.38H28.9602V22.86H30.4802V24.38ZM30.4802 21.34H28.9602V19.81H30.4802V21.34ZM30.4802 18.29H28.9602V16.77H30.4802V18.29ZM30.4802 15.24H28.9602V13.72H30.4802V15.24ZM30.4802 12.19H28.9602V10.67H30.4802V12.19ZM30.4802 9.15H28.9602V7.62H30.4802V9.15ZM30.4802 6.1H28.9602V4.58H30.4802V6.1ZM30.4802 3.05H28.9602V1.53H30.4802V3.05Z" fill="#BFFB4F"/>
<path d="M25.9101 30.48H24.3901V32H25.9101V30.48Z" fill="#BFFB4F"/>
<path d="M25.9101 13.72H24.3901V24.38H25.9101V13.72Z" fill="#BFFB4F"/>
<path d="M25.9101 0H24.3901V7.62H25.9101V0Z" fill="#BFFB4F"/>
<path d="M24.3901 28.96H7.62012V30.48H24.3901V28.96Z" fill="#BFFB4F"/>
<path d="M24.3901 24.38H7.62012V25.91H24.3901V24.38Z" fill="#BFFB4F"/>
<path d="M22.8598 19.8101H21.3398V21.3401H22.8598V19.8101Z" fill="#BFFB4F"/>
<path d="M24.3901 7.62H7.62012V9.14999H24.3901V7.62Z" fill="#BFFB4F"/>
<path d="M21.3401 16.77H19.8101V18.29H21.3401V16.77Z" fill="#BFFB4F"/>
<path d="M21.34 21.34H16.77V22.86H21.34V21.34Z" fill="#BFFB4F"/>
<path d="M18.29 16.77H16.77V18.29H18.29V16.77Z" fill="#BFFB4F"/>
<path d="M16.7702 19.8101H15.2402V21.3401H16.7702V19.8101Z" fill="#BFFB4F"/>
<path d="M24.3901 12.1899H7.62012V13.7199H24.3901V12.1899Z" fill="#BFFB4F"/>
<path d="M7.6201 30.48H6.1001V32H7.6201V30.48Z" fill="#BFFB4F"/>
<path d="M7.6201 13.72H6.1001V24.38H7.6201V13.72Z" fill="#BFFB4F"/>
<path d="M7.6201 0H6.1001V7.62H7.6201V0Z" fill="#BFFB4F"/>
<path d="M0 0V32H4.58V0H0ZM3.05 30.48H1.53V28.96H3.05V30.48ZM3.05 27.43H1.53V25.91H3.05V27.43ZM3.05 24.38H1.53V22.86H3.05V24.38ZM3.05 21.34H1.53V19.81H3.05V21.34ZM3.05 18.29H1.53V16.77H3.05V18.29ZM3.05 15.24H1.53V13.72H3.05V15.24ZM3.05 12.19H1.53V10.67H3.05V12.19ZM3.05 9.15H1.53V7.62H3.05V9.15ZM3.05 6.1H1.53V4.58H3.05V6.1ZM3.05 3.05H1.53V1.53H3.05V3.05Z" fill="#BFFB4F"/>
</g>
<defs>
<clipPath id="clip0_1178_16153">
<rect width="32" height="32" fill="white"/>
</clipPath>
</defs>
</svg>
