<svg width="32" height="32" viewBox="0 0 32 32" fill="none" xmlns="http://www.w3.org/2000/svg">
<g clip-path="url(#clip0_1178_16172)">
<path d="M19.0498 13.72V15.24H20.5698V21.34H22.0898V15.24H29.7098V24.38H31.2398V7.62H29.7098V13.72H19.0498Z" fill="#BFFB4F"/>
<path d="M29.7099 24.38H28.1899V25.91H29.7099V24.38Z" fill="#BFFB4F"/>
<path d="M29.7099 6.09998H28.1899V7.61998H29.7099V6.09998Z" fill="#BFFB4F"/>
<path d="M28.1899 9.1499H26.6699V10.6699H28.1899V9.1499Z" fill="#BFFB4F"/>
<path d="M28.1896 25.9099H3.80957V27.4299H28.1896V25.9099Z" fill="#BFFB4F"/>
<path d="M26.6698 10.6699H22.0898V12.1899H26.6698V10.6699Z" fill="#BFFB4F"/>
<path d="M26.6698 7.62H22.0898V9.14999H26.6698V7.62Z" fill="#BFFB4F"/>
<path d="M22.0898 9.1499H20.5698V10.6699H22.0898V9.1499Z" fill="#BFFB4F"/>
<path d="M20.5698 21.34H19.0498V22.86H20.5698V21.34Z" fill="#BFFB4F"/>
<path d="M28.1895 4.56995H17.5195V6.09995H28.1895V4.56995Z" fill="#BFFB4F"/>
<path d="M14.4797 21.34H17.5197V19.81H19.0497V16.76H17.5197V18.29H15.9997V16.76H17.5197V15.24H14.4797V16.76H12.9497V19.81H14.4797V21.34Z" fill="#BFFB4F"/>
<path d="M19.0497 12.1899H12.9497V13.7199H19.0497V12.1899Z" fill="#BFFB4F"/>
<path d="M19.0497 22.86H12.9497V24.38H19.0497V22.86Z" fill="#BFFB4F"/>
<path d="M17.52 6.09998H16V7.61998H17.52V6.09998Z" fill="#BFFB4F"/>
<path d="M12.9497 21.34H11.4297V22.86H12.9497V21.34Z" fill="#BFFB4F"/>
<path d="M12.9499 4.56995H8.37988V6.09995H12.9499V4.56995Z" fill="#BFFB4F"/>
<path d="M8.37959 10.6699H5.32959V12.1899H8.37959V10.6699Z" fill="#BFFB4F"/>
<path d="M15.9996 9.14998V7.61998H14.4796V6.09998H12.9496V7.61998H8.37957V6.09998H6.85957V7.61998H3.80957V9.14998H15.9996Z" fill="#BFFB4F"/>
<path d="M3.80979 24.38H2.27979V25.91H3.80979V24.38Z" fill="#BFFB4F"/>
<path d="M3.80979 9.1499H2.27979V10.6699H3.80979V9.1499Z" fill="#BFFB4F"/>
<path d="M2.27977 15.2399H9.89977V21.3399H11.4298V15.2399H12.9498V13.7199H2.27977V10.6699H0.759766V24.3799H2.27977V15.2399Z" fill="#BFFB4F"/>
</g>
<defs>
<clipPath id="clip0_1178_16172">
<rect width="32" height="32" fill="white"/>
</clipPath>
</defs>
</svg>
