<svg width="32" height="32" viewBox="0 0 32 32" fill="none" xmlns="http://www.w3.org/2000/svg">
<g clip-path="url(#clip0_1178_18473)">
<path d="M19.8101 29.715H7.62012V31.235H19.8101V29.715Z" fill="#BFFB4F"/>
<path d="M24.3801 28.195H19.8101V29.715H24.3801V28.195Z" fill="#BFFB4F"/>
<path d="M15.2398 26.665V25.145H4.56982V26.665H6.08982V29.715H7.61982V26.665H15.2398Z" fill="#BFFB4F"/>
<path d="M6.09002 22.095V20.575H1.52002V22.095H3.04002V25.145H4.57002V22.095H6.09002Z" fill="#BFFB4F"/>
<path d="M12.1901 20.575V19.045H15.2401V17.525H12.1901V9.90503H9.14014V11.425H10.6601V19.045H9.14014V20.575H12.1901Z" fill="#BFFB4F"/>
<path d="M9.13984 17.525H6.08984V19.045H9.13984V17.525Z" fill="#BFFB4F"/>
<path d="M1.52 17.525H0V20.575H1.52V17.525Z" fill="#BFFB4F"/>
<path d="M18.2802 16.005H15.2402V17.525H18.2802V16.005Z" fill="#BFFB4F"/>
<path d="M6.09004 16.005H3.04004V17.525H6.09004V16.005Z" fill="#BFFB4F"/>
<path d="M3.04002 8.38502H6.09002V6.85502H3.04002V5.33502H1.52002V16.005H3.04002V8.38502Z" fill="#BFFB4F"/>
<path d="M27.4299 9.90002V11.42H25.8999V12.95H27.4299V26.66H24.3799V28.2H27.4299V29.72H31.9999V9.90002H27.4299ZM30.4699 26.66H28.9499V23.61H30.4699V26.66Z" fill="#BFFB4F"/>
<path d="M25.8999 9.90503H24.3799V11.425H25.8999V9.90503Z" fill="#BFFB4F"/>
<path d="M24.3801 8.38501H21.3301V9.90501H24.3801V8.38501Z" fill="#BFFB4F"/>
<path d="M15.2399 8.38501H12.1899V9.90501H15.2399V8.38501Z" fill="#BFFB4F"/>
<path d="M7.61984 6.85501V8.38501H6.08984V9.90501H9.13984V6.85501H7.61984Z" fill="#BFFB4F"/>
<path d="M15.2402 6.85502V8.38502H18.2802V16.005H19.8102V5.33502H18.2802V6.85502H15.2402Z" fill="#BFFB4F"/>
<path d="M12.1901 5.33502H9.14014V6.85502H12.1901V5.33502Z" fill="#BFFB4F"/>
<path d="M18.2802 3.815H15.2402V5.335H18.2802V3.815Z" fill="#BFFB4F"/>
<path d="M13.7099 5.335V3.815H15.2399V2.285H12.1899V5.335H13.7099Z" fill="#BFFB4F"/>
<path d="M6.09004 3.815H3.04004V5.335H6.09004V3.815Z" fill="#BFFB4F"/>
<path d="M9.13984 2.285H6.08984V3.815H9.13984V2.285Z" fill="#BFFB4F"/>
<path d="M12.1901 0.765015H9.14014V2.28501H12.1901V0.765015Z" fill="#BFFB4F"/>
</g>
<defs>
<clipPath id="clip0_1178_18473">
<rect width="32" height="32" fill="white"/>
</clipPath>
</defs>
</svg>
