<svg width="32" height="32" viewBox="0 0 32 32" fill="none" xmlns="http://www.w3.org/2000/svg">
<g clip-path="url(#clip0_1135_3260)">
<path d="M32 3.04999H30.48V28.96H32V3.04999Z" fill="#000001"/>
<path d="M30.4799 28.96H28.95V30.48H30.4799V28.96Z" fill="#000001"/>
<path d="M30.4799 1.53003H28.95V3.05003H30.4799V1.53003Z" fill="#000001"/>
<path d="M28.9501 30.48H3.05005V32H28.9501V30.48Z" fill="#000001"/>
<path d="M25.91 10.67H24.38V9.14999H22.86V7.62H21.34V9.14999H19.81V10.67H18.29V12.19H16.76V13.72H19.81V21.34H24.38V13.72H27.43V12.19H25.91V10.67Z" fill="#000001"/>
<path d="M25.91 24.38H6.09998V25.91H25.91V24.38Z" fill="#000001"/>
<path d="M7.61995 21.34H12.1899V13.72H15.2399V12.19H13.7199V10.67H12.1899V9.14999H10.6699V7.62H9.14995V9.14999H7.61995V10.67H6.09995V12.19H4.56995V13.72H7.61995V21.34Z" fill="#000001"/>
<path d="M28.9501 0H3.05005V1.53H28.9501V0Z" fill="#000001"/>
<path d="M3.05003 28.96H1.53003V30.48H3.05003V28.96Z" fill="#000001"/>
<path d="M3.05003 1.53003H1.53003V3.05003H3.05003V1.53003Z" fill="#000001"/>
<path d="M1.53 3.04999H0V28.96H1.53V3.04999Z" fill="#000001"/>
</g>
<defs>
<clipPath id="clip0_1135_3260">
<rect width="32" height="32" fill="white"/>
</clipPath>
</defs>
</svg>
