<svg width="32" height="32" viewBox="0 0 32 32" fill="none" xmlns="http://www.w3.org/2000/svg">
<g clip-path="url(#clip0_1178_16898)">
<path d="M32.0002 16.7599H30.4702V24.3799H32.0002V16.7599Z" fill="#BFFB4F"/>
<path d="M30.4702 24.38H28.9502V25.9H30.4702V24.38Z" fill="#BFFB4F"/>
<path d="M30.4702 15.24H28.9502V16.76H30.4702V15.24Z" fill="#BFFB4F"/>
<path d="M28.9501 25.8999H21.3301V27.4299H28.9501V25.8999Z" fill="#BFFB4F"/>
<path d="M25.8999 19.8099H24.3799V21.3299H25.8999V19.8099Z" fill="#BFFB4F"/>
<path d="M21.3301 24.38H19.8101V25.9H21.3301V24.38Z" fill="#BFFB4F"/>
<path d="M21.3301 15.24H19.8101V16.76H21.3301V15.24Z" fill="#BFFB4F"/>
<path d="M21.3298 4.56995H16.7598V6.08995H21.3298V4.56995Z" fill="#BFFB4F"/>
<path d="M19.8098 16.7599H18.2798V19.8099H13.7098V16.7599H12.1898V19.8099H6.08982V18.2799H4.56982V21.3299H12.1898V24.3799H13.7098V21.3299H18.2798V24.3799H19.8098V16.7599Z" fill="#BFFB4F"/>
<path d="M12.1902 24.38H10.6602V25.9H12.1902V24.38Z" fill="#BFFB4F"/>
<path d="M12.1902 15.24H10.6602V16.76H12.1902V15.24Z" fill="#BFFB4F"/>
<path d="M10.6598 25.8999H3.0498V27.4299H10.6598V25.8999Z" fill="#BFFB4F"/>
<path d="M7.61984 16.7599H6.08984V18.2799H7.61984V16.7599Z" fill="#BFFB4F"/>
<path d="M7.6198 15.24V16.76H9.1398V15.24H10.6598V13.71H21.3298V15.24H22.8598V19.81H24.3798V15.24H28.9498V13.71H24.3798V6.08997H21.3298V7.61997H22.8598V12.19H10.6598V10.66H13.7098V9.13997H12.1898V7.61997H9.1398V6.08997H6.0898V10.66H9.1398V13.71H3.0498V15.24H7.6198Z" fill="#BFFB4F"/>
<path d="M3.05002 24.38H1.52002V25.9H3.05002V24.38Z" fill="#BFFB4F"/>
<path d="M3.05002 15.24H1.52002V16.76H3.05002V15.24Z" fill="#BFFB4F"/>
<path d="M1.52 16.7599H0V24.3799H1.52V16.7599Z" fill="#BFFB4F"/>
</g>
<defs>
<clipPath id="clip0_1178_16898">
<rect width="32" height="32" fill="white"/>
</clipPath>
</defs>
</svg>
