<svg width="32" height="32" viewBox="0 0 32 32" fill="none" xmlns="http://www.w3.org/2000/svg">
<g clip-path="url(#clip0_1178_11879)">
<path d="M30.48 7.62505H1.53V3.05505H0V28.9551H1.53V9.14505H30.48V28.9551H32V3.05505H30.48V7.62505Z" fill="#BFFB4F"/>
<path d="M30.4798 28.955H1.52979V30.475H30.4798V28.955Z" fill="#BFFB4F"/>
<path d="M27.4302 19.815H25.9102V24.385H27.4302V19.815Z" fill="#BFFB4F"/>
<path d="M25.9099 24.385H24.3799V25.905H25.9099V24.385Z" fill="#BFFB4F"/>
<path d="M25.9099 18.285H24.3799V19.815H25.9099V18.285Z" fill="#BFFB4F"/>
<path d="M24.3801 25.905H19.8101V27.435H24.3801V25.905Z" fill="#BFFB4F"/>
<path d="M24.3798 18.285V16.765H22.8598V10.675H4.56982V19.815H7.61982V18.285H6.09982V12.195H21.3398V16.765H19.8098V18.285H24.3798Z" fill="#BFFB4F"/>
<path d="M19.81 24.385H18.29V25.905H19.81V24.385Z" fill="#BFFB4F"/>
<path d="M19.81 18.285H18.29V19.815H19.81V18.285Z" fill="#BFFB4F"/>
<path d="M18.2898 19.815H16.7598V24.385H18.2898V19.815Z" fill="#BFFB4F"/>
<path d="M10.6701 4.57501H9.14014V6.09501H10.6701V4.57501Z" fill="#BFFB4F"/>
<path d="M6.09982 21.335V22.865H4.56982V24.385H15.2398V19.815H13.7198V18.285H12.1898V16.765H10.6698V18.285H9.13982V19.815H7.61982V21.335H6.09982Z" fill="#BFFB4F"/>
<path d="M7.6201 4.57501H6.1001V6.09501H7.6201V4.57501Z" fill="#BFFB4F"/>
<path d="M4.5698 4.57501H3.0498V6.09501H4.5698V4.57501Z" fill="#BFFB4F"/>
<path d="M30.4798 1.52502H1.52979V3.05502H30.4798V1.52502Z" fill="#BFFB4F"/>
</g>
<defs>
<clipPath id="clip0_1178_11879">
<rect width="32" height="32" fill="white"/>
</clipPath>
</defs>
</svg>
