<svg width="32" height="32" viewBox="0 0 32 32" fill="none" xmlns="http://www.w3.org/2000/svg">
<path d="M30.4748 3.05005H28.9548V4.57005H30.4748V3.05005Z" fill="#000001"/>
<path d="M27.4349 19.81H21.3349V15.24H19.8149V19.81H12.1949V15.24H10.6649V19.81H4.57493V16.77H3.05493V21.34H15.2449V30.48H16.7649V21.34H28.9549V16.77H27.4349V19.81Z" fill="#000001"/>
<path d="M30.4748 9.15002H27.4348V12.19H30.4748V9.15002Z" fill="#000001"/>
<path d="M27.4348 13.72H25.9048V16.77H27.4348V13.72Z" fill="#000001"/>
<path d="M27.4348 0H25.9048V1.53H27.4348V0Z" fill="#000001"/>
<path d="M25.905 12.1899H24.385V13.7199H25.905V12.1899Z" fill="#000001"/>
<path d="M24.385 6.09998H22.855V7.61998H24.385V6.09998Z" fill="#000001"/>
<path d="M24.385 10.67H21.335V12.19H24.385V10.67Z" fill="#000001"/>
<path d="M21.3349 1.53003H18.2849V4.57003H21.3349V1.53003Z" fill="#000001"/>
<path d="M19.8149 12.1899H18.2849V15.2399H19.8149V12.1899Z" fill="#000001"/>
<path d="M15.2448 30.48H12.1948V32H15.2448V30.48Z" fill="#000001"/>
<path d="M13.7148 12.1899H12.1948V15.2399H13.7148V12.1899Z" fill="#000001"/>
<path d="M13.7148 12.19H15.2448V10.67H16.7648V12.19H18.2848V10.67H21.3348V9.14999H16.7648V7.62H15.2448V9.14999H10.6648V10.67H13.7148V12.19Z" fill="#000001"/>
<path d="M13.7148 3.05005H12.1948V4.57005H13.7148V3.05005Z" fill="#000001"/>
<path d="M12.1948 28.96H10.6648V30.48H12.1948V28.96Z" fill="#000001"/>
<path d="M10.665 10.67H7.625V12.19H10.665V10.67Z" fill="#000001"/>
<path d="M9.145 0H7.625V1.53H9.145V0Z" fill="#000001"/>
<path d="M7.62497 12.1899H6.09497V13.7199H7.62497V12.1899Z" fill="#000001"/>
<path d="M6.09495 13.72H4.57495V16.77H6.09495V13.72Z" fill="#000001"/>
<path d="M7.62495 6.09998H4.57495V9.14998H7.62495V6.09998Z" fill="#000001"/>
<path d="M4.57493 1.53003H3.05493V3.05003H4.57493V1.53003Z" fill="#000001"/>
<path d="M3.0549 9.15002H1.5249V10.67H3.0549V9.15002Z" fill="#000001"/>
</svg>
