<svg width="24" height="24" viewBox="0 0 24 24" fill="none" xmlns="http://www.w3.org/2000/svg">
<path fill-rule="evenodd" clip-rule="evenodd" d="M20.2517 15.4701L20.6721 15.6745C21.0447 15.8556 21.4934 15.7004 21.6745 15.3278C21.8556 14.9553 21.7004 14.5065 21.3279 14.3254L20.9972 14.1647" fill="#5D5D5D"/>
<path d="M3.73413 11.8463L3.73301 11.8413C3.64555 11.4372 3.24734 11.1799 2.84282 11.2666C2.4378 11.3534 2.17991 11.7524 2.2667 12.1574L2.26694 12.1585L2.26733 12.1603L2.2684 12.1652L2.27171 12.1799C2.27444 12.1919 2.27824 12.2082 2.28318 12.2285C2.29306 12.2692 2.30752 12.3263 2.32715 12.3978C2.36639 12.5408 2.42646 12.7423 2.51223 12.9876C2.62587 13.3125 2.78545 13.7167 3.00278 14.1647L2.67212 14.3254C2.29958 14.5065 2.14437 14.9553 2.32545 15.3278C2.50653 15.7004 2.95532 15.8556 3.32786 15.6745L3.74835 15.4701C4.08822 15.9803 4.50135 16.5052 5.00018 17.0052L3.98766 17.9522C3.68515 18.2352 3.6693 18.7098 3.95225 19.0123C4.2352 19.3148 4.70981 19.3307 5.01232 19.0477L6.14939 17.9842C6.67645 18.3629 7.27115 18.7041 7.94107 18.9835L7.33408 20.1549C7.14351 20.5227 7.28716 20.9753 7.65493 21.1659C8.0227 21.3565 8.47532 21.2128 8.66589 20.845L9.38692 19.4536C9.96583 19.5926 10.5861 19.6868 11.25 19.7274V21C11.25 21.4142 11.5858 21.75 12 21.75C12.4142 21.75 12.75 21.4142 12.75 21V19.7274C13.4139 19.6868 14.0341 19.5926 14.6131 19.4536L15.3341 20.845C15.5247 21.2128 15.9773 21.3565 16.345 21.1659C16.7128 20.9753 16.8565 20.5227 16.6659 20.1549L16.0589 18.9835C16.7222 18.7067 17.3131 18.3687 17.8383 17.9928L18.9753 19.106C19.2713 19.3958 19.7461 19.3908 20.0359 19.0949C20.3257 18.7989 20.3207 18.324 20.0247 18.0343L18.9869 17.0182C19.4919 16.5142 19.909 15.9847 20.2517 15.4701L20.6721 15.6745C21.0447 15.8556 21.4934 15.7004 21.6745 15.3278C21.8556 14.9553 21.7004 14.5065 21.3279 14.3254L20.9972 14.1647C21.2145 13.7167 21.3741 13.3125 21.4877 12.9876C21.5735 12.7423 21.6336 12.5408 21.6728 12.3978C21.6925 12.3263 21.7069 12.2692 21.7168 12.2285C21.7217 12.2082 21.7255 12.1919 21.7283 12.1799L21.7316 12.1652L21.7326 12.1603L21.7333 12.1571C21.8201 11.7521 21.5622 11.3534 21.1571 11.2666C20.7522 11.1799 20.3535 11.438 20.2666 11.8428L20.2658 11.8463L20.2591 11.8747C20.2526 11.9017 20.2418 11.9443 20.2263 12.0009C20.1952 12.1141 20.1452 12.2826 20.0718 12.4924C19.9248 12.9129 19.6859 13.4937 19.3216 14.1253C18.8817 14.888 18.2649 15.7146 17.4154 16.4245C16.7125 17.0118 15.8463 17.523 14.7782 17.8537C13.9798 18.1009 13.06 18.25 12 18.25C10.94 18.25 10.0202 18.1009 9.22181 17.8537C8.1596 17.5248 7.29265 17.0153 6.58717 16.4265L6.58057 16.421C5.73206 15.7112 5.11765 14.8869 4.67834 14.1253C4.31406 13.4937 4.07518 12.9129 3.92814 12.4924C3.85478 12.2826 3.80475 12.1141 3.77368 12.0009C3.75815 11.9443 3.7474 11.9017 3.74085 11.8747L3.73413 11.8463Z" fill="#5D5D5D"/>
</svg>
