<svg width="24" height="24" viewBox="0 0 24 24" fill="none" xmlns="http://www.w3.org/2000/svg">
<path d="M13.75 4.07035V7.25004L18.4385 7.25004C19.7003 7.25005 20.8003 8.10886 21.1063 9.33306L21.5482 11.1004C21.7074 11.7372 21.6335 12.41 21.34 12.9972L18.2236 19.2299C17.7578 20.1615 16.8056 20.75 15.7639 20.75L10.6971 20.75C10.2923 20.75 9.89243 20.6607 9.52614 20.4883L6.82907 19.2191C5.86521 18.7655 5.25 17.7961 5.25 16.7308V10.8284C5.25 10.0991 5.53974 9.3996 6.05548 8.88388L7.32963 7.60976C7.38896 7.55043 7.43535 7.49289 7.47231 7.43444C7.80558 6.90746 8.77401 5.29098 9.12589 3.87634C9.2159 3.51445 9.3599 3.08396 9.60917 2.71144C9.8658 2.32791 10.2645 1.96511 10.8495 1.85877C11.3347 1.77057 11.7832 1.80242 12.1574 1.87845C13.3066 2.1119 13.75 3.21648 13.75 4.07035Z" fill="#5D5D5D"/>
<path d="M4 8.25006C3.0335 8.25006 2.25 9.03356 2.25 10.0001V18.0001C2.25 18.9666 3.0335 19.7501 4 19.7501H5C5.9665 19.7501 6.75 18.9666 6.75 18.0001V10C6.75 9.03347 5.96645 8.25006 5 8.25006H4Z" fill="#D9D9D9"/>
</svg>
