<svg width="24" height="24" viewBox="0 0 24 24" fill="none" xmlns="http://www.w3.org/2000/svg">
<path opacity="0.1" d="M23.9349 12.0002C23.9349 18.5927 18.5908 23.937 11.9983 23.937C5.40576 23.937 0.0615234 18.5927 0.0615234 12.0002C0.0615234 5.40772 5.40576 0.0634766 11.9983 0.0634766C18.5907 0.0634766 23.9349 5.40772 23.9349 12.0002Z" fill="black"/>
<path opacity="0.1" d="M21.0134 12.0006C21.0134 16.9797 16.9772 21.016 11.9982 21.016C7.01918 21.016 2.98291 16.9797 2.98291 12.0006C2.98291 7.02162 7.01918 2.98535 11.9982 2.98535C16.9772 2.98535 21.0134 7.02162 21.0134 12.0006Z" fill="black"/>
<path fill-rule="evenodd" clip-rule="evenodd" d="M16.535 4.23948C15.8798 4.70968 15.2247 5.17989 14.5695 5.62965C13.6875 6.25417 12.8055 6.89123 11.9333 7.52119L11.933 7.52137C11.6918 7.6956 11.4513 7.86928 11.2118 8.042C11.0685 8.14422 10.9662 8.16466 10.8433 8.02156C10.6591 7.82734 10.4697 7.64335 10.2803 7.45936C10.0909 7.27536 9.90154 7.09137 9.71727 6.89715C9.61491 6.79494 9.51254 6.77449 9.36922 6.83582C8.48886 7.28558 7.79276 7.91934 7.2195 8.71664C7.17855 8.75753 7.1376 8.81886 7.09665 8.88019C6.96112 8.70256 6.82909 8.53193 6.69911 8.36396C6.51495 8.12595 6.33491 7.89327 6.15487 7.65357C5.966 7.40605 5.78394 7.15852 5.60477 6.91492L5.60476 6.91491C5.47317 6.736 5.34313 6.5592 5.21308 6.38606C5.15161 6.30013 5.11967 6.22893 5.135 6.15478C4.75784 6.59716 4.42269 7.07646 4.13574 7.58649L4.13811 7.58551C4.14659 7.58201 4.15683 7.57777 4.16882 7.57178C4.84444 8.46107 5.52518 9.35036 6.20592 10.2396C6.88667 11.129 7.56743 12.0183 8.24307 12.9076C8.23211 12.924 8.22261 12.939 8.2138 12.9528L8.21377 12.9529C8.18968 12.9908 8.17067 13.0208 8.1407 13.0507L8.14069 13.0507L8.14066 13.0507C7.7312 13.48 7.32174 13.9093 6.89181 14.3182C6.76897 14.4409 6.74849 14.5431 6.83039 14.6862C7.26033 15.5039 7.85407 16.1786 8.59112 16.7305C8.65722 16.7702 8.71479 16.8098 8.78036 16.8549C8.81633 16.8796 8.85471 16.906 8.89822 16.935C8.72921 17.0632 8.56465 17.1871 8.40309 17.3086L8.40309 17.3086L8.40308 17.3086C8.07538 17.5552 7.75999 17.7925 7.4446 18.0389C7.27059 18.1718 7.09658 18.2996 6.92257 18.4273L6.92255 18.4273L6.92253 18.4274C6.7485 18.5551 6.57447 18.6829 6.40044 18.8158C6.32798 18.8778 6.26599 18.9085 6.20123 18.9051C6.60135 19.2414 7.03112 19.5436 7.48605 19.8071C8.20497 19.2726 8.91772 18.7413 9.62796 18.2118L9.62808 18.2117C10.7239 17.3947 11.8137 16.5822 12.911 15.7697C13.113 15.9614 13.3101 16.153 13.5046 16.3422L13.5047 16.3423C13.7044 16.5365 13.9014 16.7282 14.0984 16.9146C14.175 16.9874 14.2328 17.0479 14.2791 17.0965L14.2791 17.0965C14.3643 17.1857 14.4108 17.2344 14.4646 17.2448C14.5295 17.2573 14.605 17.2143 14.7714 17.1195L14.7715 17.1195L14.7718 17.1193C14.814 17.0953 14.8621 17.0679 14.9174 17.0372C15.6749 16.6079 16.3096 16.015 16.8009 15.2995C16.8112 15.2791 16.8265 15.2586 16.8419 15.2382C16.8572 15.2177 16.8726 15.1973 16.8828 15.1768C16.8779 15.1768 16.8753 15.1768 16.8752 15.1763C16.875 15.1756 16.8776 15.1744 16.8828 15.1717C16.8931 15.1666 16.9136 15.1564 16.9443 15.136C17.59 16.0024 18.2557 16.8887 18.9216 17.7754C19.2636 17.3658 19.5699 16.9254 19.8358 16.459C19.4202 15.9248 19.0422 15.4282 18.6642 14.9315C18.3933 14.5749 18.1224 14.2165 17.8509 13.8573C17.2197 13.0221 16.5855 12.183 15.9412 11.3539C15.8184 11.1903 15.8184 11.0881 15.9617 10.945C16.1562 10.7508 16.3456 10.5566 16.535 10.3624C16.7243 10.1681 16.9137 9.97393 17.1082 9.77972C17.2106 9.6775 17.2515 9.57528 17.1697 9.43217C16.7192 8.57354 16.105 7.85801 15.3066 7.28559C15.2845 7.27091 15.2625 7.25361 15.2395 7.23556C15.1984 7.20331 15.1543 7.1687 15.1018 7.14248C15.1356 7.10872 15.1694 7.08115 15.1998 7.05637C15.2247 7.03613 15.2472 7.01776 15.2656 6.99938C15.6546 6.70294 16.0436 6.41161 16.4326 6.12029C16.8216 5.82897 17.2106 5.53765 17.5996 5.24122C17.7013 5.1566 17.7889 5.11401 17.8974 5.18304C17.4702 4.81308 17.0079 4.4826 16.5162 4.19727C16.5183 4.2163 16.5234 4.22789 16.535 4.23948ZM18.2336 5.48924C18.3718 5.62283 18.5051 5.75878 18.6334 5.89712C18.5044 5.75699 18.3711 5.62096 18.2336 5.48924Z" fill="black"/>
</svg>
