<svg width="24" height="24" viewBox="0 0 24 24" fill="none" xmlns="http://www.w3.org/2000/svg">
<path opacity="0.2" d="M12 24C18.6274 24 24 18.6274 24 12C24 5.37258 18.6274 0 12 0C5.37258 0 0 5.37258 0 12C0 18.6274 5.37258 24 12 24Z" fill="black"/>
<path fill-rule="evenodd" clip-rule="evenodd" d="M13.6457 5.53857H10.354C10.1218 5.53846 9.9076 5.66036 9.79388 5.85734L4.69706 14.7018C4.58796 14.8913 4.58796 15.1224 4.69706 15.312L6.32737 18.1422C6.44089 18.3394 6.65513 18.4616 6.88753 18.4617H17.1122C17.3443 18.4614 17.5582 18.3392 17.6716 18.1422L19.3026 15.312C19.4117 15.1224 19.4117 14.8913 19.3026 14.7018L14.2058 5.85734C14.0921 5.66036 13.8779 5.53846 13.6457 5.53857ZM8.56571 15.0069L11.9998 9.05725L15.4338 15.0069H8.56571Z" fill="black"/>
</svg>
