<svg width="24" height="24" viewBox="0 0 24 24" fill="none" xmlns="http://www.w3.org/2000/svg">
<path opacity="0.2" d="M23.64 14.9031C22.0372 21.3317 15.5257 25.2437 9.09637 23.641C2.66999 22.0382 -1.24238 15.5267 0.360743 9.09847C1.96274 2.6691 8.47387 -1.24365 14.9014 0.359098C21.3304 1.96185 25.2424 8.4741 23.6396 14.9031H23.64Z" fill="black"/>
<path fill-rule="evenodd" clip-rule="evenodd" d="M15.6141 10.6063C15.7759 9.52304 14.9512 8.94073 13.8234 8.55227L14.1893 7.08493L13.2958 6.86233L12.9397 8.29101C12.7051 8.2325 12.464 8.1773 12.2243 8.1226L12.583 6.68451L11.6903 6.46191L11.3243 7.92875C11.1299 7.88449 10.9391 7.84073 10.7539 7.79469L10.7549 7.79011L9.52316 7.48255L9.28556 8.43652C9.28556 8.43652 9.94825 8.5884 9.93426 8.59781C10.296 8.68812 10.3616 8.92751 10.3505 9.11728L9.93375 10.7889C9.95868 10.7953 9.99099 10.8044 10.0266 10.8187L9.93248 10.7953L9.34814 13.137C9.30387 13.2469 9.19168 13.4117 8.93882 13.3491C8.94772 13.3621 8.2896 13.1871 8.2896 13.1871L7.84619 14.2098L9.00877 14.4995C9.14002 14.5324 9.26968 14.5662 9.39791 14.5997L9.39804 14.5997C9.48103 14.6214 9.56342 14.6429 9.64527 14.6638L9.27563 16.1482L10.1678 16.3708L10.5341 14.9025C10.7776 14.9686 11.0142 15.0297 11.2457 15.0872L10.8809 16.5487L11.774 16.7713L12.1437 15.2899C13.6667 15.5781 14.8123 15.4619 15.2938 14.0846C15.6823 12.9754 15.2748 12.3356 14.4734 11.9182C15.057 11.7831 15.4966 11.3992 15.6139 10.6063H15.6141ZM13.5731 13.4679C13.3195 14.4859 11.7257 14.0647 10.9972 13.8722L10.9971 13.8722C10.9319 13.8549 10.8736 13.8395 10.8238 13.8271L11.3143 11.8609C11.3752 11.8761 11.4495 11.8928 11.5337 11.9117C12.2875 12.0808 13.8321 12.4275 13.5733 13.4679H13.5731ZM11.6852 10.9993C12.2932 11.1615 13.6183 11.515 13.8491 10.5902C14.0851 9.64414 12.7966 9.35899 12.1673 9.21972C12.0965 9.20407 12.0341 9.19026 11.9831 9.17756L11.5385 10.9609C11.5805 10.9713 11.6299 10.9845 11.6852 10.9993Z" fill="black"/>
</svg>
