<svg width="24" height="24" viewBox="0 0 24 24" fill="none" xmlns="http://www.w3.org/2000/svg">
<path opacity="0.2" d="M12 24C18.6274 24 24 18.6274 24 12C24 5.37258 18.6274 0 12 0C5.37258 0 0 5.37258 0 12C0 18.6274 5.37258 24 12 24Z" fill="black"/>
<mask id="mask0_2493_14482" style="mask-type:luminance" maskUnits="userSpaceOnUse" x="0" y="0" width="24" height="24">
<path d="M12 24C18.6274 24 24 18.6274 24 12C24 5.37258 18.6274 0 12 0C5.37258 0 0 5.37258 0 12C0 18.6274 5.37258 24 12 24Z" fill="white"/>
</mask>
<g mask="url(#mask0_2493_14482)">
<path fill-rule="evenodd" clip-rule="evenodd" d="M11.1621 13.3129H14.755C16.0899 13.3129 17.1834 12.2736 17.1834 10.9744C17.1834 9.67526 16.1041 8.64962 14.7692 8.64962H13.6189L11.1621 6.59834H14.755C17.2686 6.58466 19.3136 8.54022 19.3136 10.9607C19.3278 12.7522 18.1917 14.3659 16.4592 15.0359L19.2994 17.4018H16.0615L11.1621 13.3129Z" fill="black"/>
<path fill-rule="evenodd" clip-rule="evenodd" d="M12.9231 10.701H9.33024C7.99533 10.701 6.90183 11.7403 6.90183 13.0394C6.90183 14.3386 7.98112 15.3779 9.33024 15.3779H10.4805L12.9231 17.4292H9.33024C6.81663 17.4292 4.77166 15.4736 4.75746 13.0668C4.74325 11.2616 5.87935 9.64796 7.61189 8.97788L4.77166 6.59839H8.02373L12.9231 10.701Z" fill="black"/>
<path fill-rule="evenodd" clip-rule="evenodd" d="M12.9231 10.701H9.33024C7.99533 10.701 6.90183 11.7403 6.90183 13.0394C6.90183 14.3386 7.98112 15.3779 9.33024 15.3779H10.4805L12.9231 17.4292H9.33024C6.81663 17.4292 4.77166 15.4736 4.75746 13.0668C4.74325 11.2616 5.87935 9.64796 7.61189 8.97788L4.77166 6.59839H8.02373L12.9231 10.701Z" fill="black"/>
</g>
</svg>
