<svg width="24" height="24" viewBox="0 0 24 24" fill="none" xmlns="http://www.w3.org/2000/svg">
<path opacity="0.2" d="M12 24C18.6274 24 24 18.6274 24 12C24 5.37258 18.6274 0 12 0C5.37258 0 0 5.37258 0 12C0 18.6274 5.37258 24 12 24Z" fill="black"/>
<path fill-rule="evenodd" clip-rule="evenodd" d="M11.3053 16.8276C8.9473 16.4822 7.1377 14.4495 7.1377 11.9933C7.1377 9.53703 8.9473 7.50429 11.3053 7.15913V4.61523C7.55117 4.97431 4.61523 8.14045 4.61523 11.9933C4.61523 15.8461 7.55117 19.012 11.3053 19.3713V16.8276ZM12.7676 7.16407C14.8696 7.48855 16.5279 9.15398 16.8437 11.2612H19.3845C19.0423 7.75813 16.2637 4.97065 12.7676 4.61871V7.16407ZM12.7676 16.8223C14.8696 16.4982 16.5279 14.8318 16.8437 12.7253L19.3845 12.7244C19.0423 16.2282 16.2637 19.0159 12.7676 19.3678V16.8223Z" fill="black"/>
</svg>
