<svg width="24" height="24" viewBox="0 0 24 24" fill="none" xmlns="http://www.w3.org/2000/svg">
<path opacity="0.2" d="M12 24C18.6274 24 24 18.6274 24 12C24 5.37258 18.6274 0 12 0C5.37258 0 0 5.37258 0 12C0 18.6274 5.37258 24 12 24Z" fill="black"/>
<path fill-rule="evenodd" clip-rule="evenodd" d="M15.966 11.027C15.673 10.4438 15.38 9.86067 15.0727 9.28394C14.5496 10.3363 14.0173 11.385 13.4849 12.4337C13.2533 12.8898 13.0218 13.346 12.791 13.8024C13.0054 13.7984 13.2197 13.7969 13.4341 13.8019C13.472 13.7272 13.5101 13.6525 13.5481 13.5778C13.6622 13.3537 13.7764 13.1297 13.8868 12.9039C14.086 12.9039 14.285 12.904 14.4841 12.904C15.0812 12.9041 15.678 12.9042 16.2748 12.9034C16.3244 13.0013 16.3735 13.0993 16.4226 13.1974C16.5239 13.3995 16.6252 13.6018 16.7303 13.8024C16.9392 13.7979 17.1487 13.7994 17.3581 13.8009C17.2153 13.4869 17.0574 13.1789 16.8993 12.8708C16.7929 12.6634 16.6865 12.4559 16.5847 12.2464C16.3752 11.8414 16.1706 11.4342 15.966 11.027ZM14.1585 12.3599C14.4727 11.7594 14.7814 11.1554 15.0732 10.5454C15.2442 10.8641 15.406 11.1866 15.5679 11.5091C15.7107 11.7938 15.8536 12.0784 16.0027 12.3604C15.3879 12.3619 14.7732 12.3624 14.1585 12.3599Z" fill="black"/>
<path fill-rule="evenodd" clip-rule="evenodd" d="M3.25928 9.60034C4.00873 10.2843 4.75273 10.9743 5.50382 11.6568C5.548 11.7263 5.60964 11.6363 5.64946 11.6128C6.37928 10.9443 7.108 10.2748 7.83673 9.60534C7.834 11.0043 7.84164 12.4033 7.83291 13.8023C7.63764 13.7973 7.44182 13.7973 7.24655 13.8013C7.24164 12.8363 7.25037 11.8713 7.24164 10.9063C6.68255 11.4318 6.12128 11.9573 5.53928 12.4618C4.97964 11.9448 4.42 11.4283 3.85328 10.9188C3.84291 11.8793 3.8571 12.8403 3.84619 13.8008C3.65146 13.7973 3.45619 13.7973 3.26146 13.8003C3.25764 12.4003 3.26255 11.0003 3.25928 9.60034Z" fill="black"/>
<path fill-rule="evenodd" clip-rule="evenodd" d="M12.0779 10.0265C11.569 9.67499 10.8938 9.52699 10.2681 9.64649C9.71066 9.74499 9.19466 10.04 8.86248 10.463C8.48066 10.939 8.32957 11.5675 8.47248 12.145C8.62412 12.829 9.18484 13.4195 9.89721 13.662C10.7918 13.99 11.8919 13.712 12.4843 13.0175C12.8628 12.5945 13.0423 12.03 12.9741 11.487C12.9278 10.91 12.5743 10.375 12.0779 10.0265ZM9.00933 11.6895C8.99787 10.9785 9.59242 10.321 10.349 10.1795C10.8961 10.0715 11.4928 10.2285 11.8921 10.5885C12.4026 11.0345 12.551 11.786 12.2401 12.366C12.0301 12.782 11.6068 13.0985 11.1241 13.212C10.7171 13.3035 10.2721 13.261 9.90387 13.0735C9.35623 12.811 8.99733 12.256 9.00933 11.6895Z" fill="black"/>
<path fill-rule="evenodd" clip-rule="evenodd" d="M17.7221 10.3299C18.2005 9.81838 18.9565 9.54188 19.6874 9.61688C20.3196 9.67638 20.8999 9.99338 21.2888 10.4494C21.1307 10.5604 20.9681 10.6659 20.8023 10.7674C20.4805 10.3799 19.9568 10.1319 19.4223 10.1484C18.8365 10.1454 18.2719 10.4559 17.9801 10.9179C17.6125 11.4764 17.6927 12.2454 18.1699 12.7299C18.4923 13.0704 18.9832 13.2679 19.4741 13.2579C19.9928 13.2554 20.499 13.0114 20.8072 12.6304C20.9714 12.7299 21.129 12.8374 21.291 12.9404C20.9381 13.3829 20.391 13.6934 19.7981 13.7714C19.1976 13.8649 18.5599 13.7154 18.0761 13.3774C17.5661 13.0284 17.2214 12.4764 17.1761 11.8919C17.1161 11.3314 17.313 10.7514 17.7221 10.3299Z" fill="black"/>
<path fill-rule="evenodd" clip-rule="evenodd" d="M10.7613 10.3769C10.739 10.3754 10.6942 10.3714 10.6724 10.3694C10.6495 10.4059 10.6266 10.4424 10.6048 10.4794C10.4878 10.5129 10.376 10.5581 10.2642 10.6033C10.1539 10.648 10.0436 10.6926 9.92843 10.7259C9.89707 10.7227 9.8639 10.7105 9.83048 10.6982C9.75869 10.6718 9.68577 10.645 9.62734 10.7064C9.51552 10.7894 9.60661 10.9119 9.6857 10.9799C9.70377 11.2533 9.7016 11.5276 9.69942 11.8017C9.69812 11.9662 9.69682 12.1306 9.69988 12.2949C9.71205 12.3608 9.67506 12.414 9.63836 12.4669C9.60099 12.5207 9.56393 12.5741 9.57934 12.6399C9.6377 12.7629 9.81116 12.7409 9.89679 12.6554L9.99997 12.6948L9.99997 12.6948C10.2565 12.7923 10.5139 12.8902 10.7428 13.0339L10.8082 12.9244L10.9243 12.8817C11.1188 12.8104 11.3134 12.739 11.5032 12.6569C11.5844 12.7044 11.6995 12.7669 11.7862 12.6919C11.8708 12.6079 11.8042 12.5019 11.7421 12.4279C11.7947 12.3393 11.8372 12.2456 11.8795 12.152L11.8795 12.152L11.8795 12.152C11.957 11.9809 12.0343 11.8102 12.1735 11.6719C12.1479 11.6568 12.1027 11.6305 12.0673 11.6099L12.0672 11.6098L12.0671 11.6098L12.0671 11.6098L12.0669 11.6097L12.0669 11.6097L12.0372 11.5924C11.9788 11.4519 11.909 11.3164 11.8386 11.1809C11.8272 11.0939 11.8152 11.0069 11.7792 10.9254C11.9281 10.7784 11.6973 10.5584 11.5413 10.7234C11.4005 10.7137 11.2756 10.6599 11.1504 10.606C11.036 10.5567 10.9214 10.5074 10.7941 10.4914C10.7859 10.4629 10.7695 10.4059 10.7613 10.3769ZM10.0714 10.795C10.0149 10.7897 9.95906 10.7845 9.90435 10.7814C10.1187 10.6674 10.3516 10.5819 10.5845 10.5074L10.7127 10.5114L10.7089 10.6277L10.7051 10.7439C10.5097 10.8358 10.2866 10.815 10.0714 10.795ZM10.7313 10.4949C10.7269 10.5834 10.7231 10.6724 10.7204 10.7609C10.9458 10.8306 11.1863 10.8107 11.4194 10.7915L11.4627 10.7879C11.2446 10.6444 10.9931 10.5459 10.7313 10.4949ZM9.87515 10.8684L9.90815 10.7964C10.1481 10.8298 10.3911 10.8229 10.6333 10.8161L10.6582 10.8154C10.5866 11.0462 10.4583 11.2568 10.3308 11.4662L10.3308 11.4662C10.2939 11.5267 10.2571 11.5871 10.2218 11.6479C10.1469 11.498 10.0659 11.3506 9.98502 11.2033L9.98502 11.2033L9.98502 11.2033C9.93696 11.1158 9.88891 11.0284 9.84215 10.9404L9.87515 10.8684ZM10.7629 10.8049C10.7846 10.9756 10.8754 11.1258 10.9666 11.2767C11.0317 11.3843 11.097 11.4922 11.1376 11.6084C11.0588 11.4924 10.9931 11.3698 10.9275 11.2472C10.8551 11.112 10.7827 10.9768 10.6925 10.8504C10.5848 11.062 10.4673 11.2693 10.3498 11.4764L10.3498 11.4764L10.3498 11.4764L10.3498 11.4764L10.3498 11.4764L10.3497 11.4764L10.3497 11.4764L10.3497 11.4764C10.3132 11.5409 10.2766 11.6053 10.2404 11.6699C10.2877 11.7545 10.3333 11.84 10.3789 11.9255L10.3789 11.9255L10.3789 11.9255L10.3789 11.9256L10.3789 11.9256L10.3789 11.9256L10.3789 11.9256L10.3789 11.9256C10.4782 12.1119 10.5775 12.2982 10.6953 12.4754C10.8539 12.2784 10.9654 12.054 11.0762 11.8309C11.1094 11.764 11.1426 11.6973 11.1769 11.6314C11.2689 11.491 11.3475 11.3442 11.426 11.1975L11.426 11.1975C11.4714 11.1127 11.5168 11.0279 11.5647 10.9444C11.5456 10.9079 11.5069 10.8344 11.4873 10.7974C11.2473 10.8294 11.004 10.8299 10.7629 10.8049ZM11.7085 12.0809V12.0809C11.7032 11.6998 11.6979 11.3181 11.7234 10.9379C11.7641 11.0859 11.8346 11.2225 11.9052 11.3592C11.9494 11.4448 11.9936 11.5304 12.0305 11.6189C11.9902 11.6749 12.0071 11.7354 12.0322 11.7929C11.977 11.8975 11.9274 12.0042 11.8779 12.111L11.8779 12.111L11.8779 12.111L11.8779 12.111L11.8779 12.111L11.8779 12.111L11.8779 12.111L11.8779 12.1111L11.8779 12.1111L11.8779 12.1111L11.8779 12.1111L11.8779 12.1111L11.8779 12.1111C11.825 12.2249 11.7722 12.3387 11.7125 12.4499C11.7119 12.327 11.7102 12.204 11.7085 12.081V12.0809V12.0809V12.0809V12.0809V12.0809V12.0809ZM9.76359 10.9654C9.75486 11.4679 9.74941 11.9709 9.76686 12.4729C9.85519 12.3463 9.92753 12.2119 9.99985 12.0775L9.99985 12.0775L9.99985 12.0775C10.0624 11.9612 10.1249 11.845 10.1978 11.7339C10.1668 11.6759 10.1364 11.6176 10.1059 11.5593C10.0005 11.357 9.89484 11.1544 9.76359 10.9654ZM11.3825 12.0408L11.3825 12.0408C11.3283 11.9382 11.2741 11.8354 11.2085 11.7384C11.2865 11.5847 11.3697 11.4333 11.4529 11.2819C11.5159 11.1673 11.5788 11.0528 11.6394 10.9374C11.6392 11.1054 11.6395 11.2735 11.6398 11.4417V11.4418V11.4418V11.4419V11.442C11.6405 11.7785 11.6411 12.1152 11.6378 12.4519C11.5326 12.3253 11.4576 12.1831 11.3825 12.0408ZM9.8372 12.4259L9.84351 12.4507L9.84352 12.4507C9.85212 12.4845 9.86364 12.5298 9.87047 12.5549C9.96369 12.5541 10.057 12.5557 10.1503 12.5573H10.1503H10.1503H10.1503C10.2804 12.5595 10.4104 12.5618 10.5403 12.5574L10.6117 12.4499C10.4987 12.288 10.4071 12.1149 10.3156 11.9421C10.28 11.8748 10.2444 11.8075 10.2076 11.7409C10.1584 11.8355 10.1057 11.9286 10.053 12.0218C9.97752 12.1551 9.90206 12.2884 9.8372 12.4259ZM11.0138 12.0851C11.0756 11.975 11.1374 11.8649 11.19 11.7509C11.2623 11.8504 11.3184 11.9581 11.3746 12.0657L11.3746 12.0657L11.3746 12.0657C11.4423 12.1954 11.51 12.3251 11.6057 12.4404C11.5789 12.4689 11.5266 12.5269 11.5004 12.5559C11.3881 12.5538 11.2759 12.5562 11.1638 12.5587C11.062 12.5609 10.9602 12.5631 10.8584 12.5619C10.8538 12.5489 10.8465 12.5294 10.8393 12.5099L10.8393 12.5099L10.8393 12.5099L10.8393 12.5099C10.8321 12.4904 10.8249 12.4709 10.8202 12.4579C10.8763 12.3301 10.945 12.2077 11.0138 12.0851L11.0138 12.0851L11.0138 12.0851ZM9.8568 12.5809C10.0389 12.7191 10.2669 12.7866 10.4912 12.853L10.4912 12.853C10.5518 12.8709 10.6121 12.8888 10.6712 12.9079L10.6868 12.8458L10.7132 12.7404C10.6968 12.7344 10.672 12.7255 10.6472 12.7167C10.6223 12.7078 10.5975 12.6989 10.5812 12.6929L10.5694 12.6616L10.5693 12.6616C10.5582 12.6322 10.5447 12.5963 10.537 12.5754C10.4704 12.5754 10.4038 12.5742 10.3372 12.5731C10.1769 12.5703 10.0167 12.5675 9.8568 12.5809ZM10.7209 12.7469C10.794 12.7014 10.8551 12.6429 10.9075 12.5784C10.9294 12.5778 10.9513 12.5772 10.9732 12.5766C11.1609 12.5715 11.3488 12.5664 11.5364 12.5749L11.4377 12.6674C11.4043 12.6804 11.3709 12.6936 11.3375 12.7068C11.1353 12.7865 10.9325 12.8665 10.7204 12.9214C10.7209 12.8779 10.7209 12.7904 10.7209 12.7469Z" fill="black"/>
<path fill-rule="evenodd" clip-rule="evenodd" d="M9.2601 11.7465C9.21046 11.657 9.34028 11.625 9.40028 11.5935C9.40464 11.656 9.40846 11.719 9.41173 11.782C9.36046 11.7715 9.31028 11.76 9.2601 11.7465Z" fill="black"/>
</svg>
