<svg width="24" height="24" viewBox="0 0 24 24" fill="none" xmlns="http://www.w3.org/2000/svg">
<path opacity="0.2" d="M12 24C18.6274 24 24 18.6274 24 12C24 5.37258 18.6274 0 12 0C5.37258 0 0 5.37258 0 12C0 18.6274 5.37258 24 12 24Z" fill="black"/>
<path fill-rule="evenodd" clip-rule="evenodd" d="M8.60792 6.9419C8.60368 6.89334 8.64318 6.83999 8.69469 6.84442C9.67943 6.8435 10.6642 6.84424 11.6489 6.84387C11.9009 6.84479 12.1527 6.84165 12.4045 6.84682C13.1855 6.88079 13.9758 7.0654 14.6428 7.4854C14.0066 7.85833 13.3656 8.22294 12.728 8.59347C12.617 8.65476 12.5094 8.72214 12.3975 8.78159C12.0065 8.7838 11.6151 8.78159 11.2241 8.7827C11.1696 8.77697 11.12 8.82534 11.1237 8.87944C11.1235 9.0934 11.1235 9.30719 11.1239 9.52116C10.2848 10.0049 9.44663 10.4902 8.60645 10.9721C8.6094 9.6286 8.60663 8.28516 8.60792 6.9419Z" fill="black"/>
<path fill-rule="evenodd" clip-rule="evenodd" d="M12.8457 8.85733C14.0036 8.18995 15.1611 7.52182 16.3183 6.85352C16.8277 7.35973 17.3344 7.86872 17.8423 8.37641C16.4906 9.15844 15.1383 9.93918 13.7852 10.719C13.8183 10.5632 13.8068 10.4027 13.8072 10.2447C13.7907 9.90392 13.6881 9.55832 13.4714 9.29007C13.3133 9.08607 13.0903 8.9369 12.8457 8.85733Z" fill="black"/>
<path fill-rule="evenodd" clip-rule="evenodd" d="M13.6607 11.1297C14.4898 10.6469 15.3233 10.1706 16.1522 9.6875C16.2654 10.3981 16.224 11.1537 15.913 11.8119C15.6335 12.4076 15.142 12.8891 14.5675 13.2024C13.9189 13.5593 13.1751 13.701 12.442 13.7367C12.0301 13.7444 11.6183 13.7378 11.2064 13.7409C11.1562 13.7455 11.1176 13.7956 11.1235 13.8454C11.1237 14.4665 11.1235 15.0873 11.1237 15.7082C10.2842 16.1917 9.44534 16.6757 8.60645 17.16C8.60866 16.1226 8.60774 15.0853 8.607 14.0479C9.90521 13.298 11.2036 12.5485 12.502 11.7989C12.5711 11.7768 12.6466 11.782 12.7171 11.7639C13.0116 11.7166 13.302 11.5865 13.4978 11.3559C13.5645 11.2898 13.6027 11.2013 13.6607 11.1297Z" fill="black"/>
<path fill-rule="evenodd" clip-rule="evenodd" d="M6.15332 12.7254C7.81006 11.7678 9.46754 10.8111 11.1241 9.85352C11.1235 10.4705 11.1237 11.0873 11.1241 11.7043C11.1217 11.7477 11.161 11.7944 11.2055 11.7938C11.4446 11.796 11.6837 11.7914 11.9227 11.796C10.5071 12.6135 9.09092 13.4303 7.67492 14.2472C7.16797 13.7397 6.66064 13.2325 6.15332 12.7254Z" fill="black"/>
</svg>
