<svg width="24" height="24" viewBox="0 0 24 24" fill="none" xmlns="http://www.w3.org/2000/svg">
<path opacity="0.1" d="M12 24C18.6274 24 24 18.6274 24 12C24 5.37258 18.6274 0 12 0C5.37258 0 0 5.37258 0 12C0 18.6274 5.37258 24 12 24Z" fill="black"/>
<mask id="mask0_2493_14544" style="mask-type:luminance" maskUnits="userSpaceOnUse" x="0" y="0" width="24" height="24">
<path d="M12 24C18.6274 24 24 18.6274 24 12C24 5.37258 18.6274 0 12 0C5.37258 0 0 5.37258 0 12C0 18.6274 5.37258 24 12 24Z" fill="white"/>
</mask>
<g mask="url(#mask0_2493_14544)">
<path fill-rule="evenodd" clip-rule="evenodd" d="M10.0964 17.714H13.649L16.4757 15.5965L16.5156 15.5554L17.6059 12.0689L16.5156 8.58238L13.649 6.42383H10.094L7.22744 8.58238L6.13721 12.0689L7.22979 15.5554L10.0964 17.714ZM13.5691 17.4629H10.1762L7.43183 15.3888L6.38154 12.0689L7.43183 8.74897L10.1762 6.67493H13.5691L16.3159 8.74897L17.3662 12.0689L16.3159 15.3888L13.5691 17.4629Z" fill="black"/>
<path fill-rule="evenodd" clip-rule="evenodd" d="M18.0121 17.1319L16.3556 15.5963L14.7391 14.9733L11.8725 15.3476L8.96598 14.9733L7.34942 15.5963L7.26953 15.3476L8.92369 14.6836H8.96598L11.8725 15.0989L14.7814 14.6836L14.8213 14.7246L16.5178 15.3886L18.1719 16.9653L18.0121 17.1319Z" fill="black"/>
<path fill-rule="evenodd" clip-rule="evenodd" d="M13.5693 17.8369L11.8728 15.4296L10.0965 17.8369L8.8042 14.8912L9.04621 14.7656L10.1764 17.3395L11.8728 14.9733L13.5293 17.3395L14.6595 14.7656L16.1939 11.6123L16.558 15.4707H16.316L16.0317 12.525L14.9015 14.8912L13.5693 17.8369Z" fill="black"/>
<path fill-rule="evenodd" clip-rule="evenodd" d="M6.29932 11.9434H17.5259V12.1921H6.29932V11.9434Z" fill="black"/>
<path fill-rule="evenodd" clip-rule="evenodd" d="M16.1937 12.5253L14.7816 9.66176L13.5692 12.3587L11.8727 9.24647L10.1363 12.3587L8.92389 9.66176L7.51175 12.5253L7.1875 8.70804L7.43186 8.66699L7.67388 11.6537L8.92389 9.12333L10.1363 11.8203L11.8727 8.74908L13.5292 11.8203L14.7816 9.12333L16.0316 11.6127L16.2337 8.66699H16.478L16.1937 12.5253Z" fill="black"/>
<path fill-rule="evenodd" clip-rule="evenodd" d="M13.5291 6.83918L14.6593 9.45407L14.9013 9.33093L13.569 6.3418L11.8726 8.79009L10.0963 6.3418L8.8439 9.33093L9.04597 9.45407L10.1762 6.83918L11.8726 9.24642L13.5291 6.83918ZM16.0316 12.5253L16.3159 15.471H16.5579L16.1937 11.6126L14.7816 14.5583L13.5691 11.8203L11.8727 14.9325L10.1363 11.8203L8.92389 14.5172L7.51175 11.6126L7.1875 15.471H7.43186L7.67388 12.5253L8.92389 15.0991L10.1363 12.3587L11.8727 15.471L13.5292 12.3587L14.7816 15.0991L16.0316 12.5253Z" fill="black"/>
<path fill-rule="evenodd" clip-rule="evenodd" d="M14.7814 9.5382L11.8326 9.12291L8.92369 9.5382L7.26953 8.78971L7.34942 8.54102L8.96598 9.24605L11.8326 8.87421L14.7814 9.24605L16.3556 8.54102L16.4778 8.78971L14.7814 9.5382Z" fill="black"/>
<path fill-rule="evenodd" clip-rule="evenodd" d="M10.1364 18.0856C10.4037 18.0856 10.6204 17.8629 10.6204 17.5882C10.6204 17.3135 10.4037 17.0908 10.1364 17.0908C9.86905 17.0908 9.65234 17.3135 9.65234 17.5882C9.65234 17.8629 9.86905 18.0856 10.1364 18.0856Z" fill="black"/>
<path fill-rule="evenodd" clip-rule="evenodd" d="M13.5294 18.0856C13.7968 18.0856 14.0135 17.8629 14.0135 17.5882C14.0135 17.3135 13.7968 17.0908 13.5294 17.0908C13.2621 17.0908 13.0454 17.3135 13.0454 17.5882C13.0454 17.8629 13.2621 18.0856 13.5294 18.0856Z" fill="black"/>
<path fill-rule="evenodd" clip-rule="evenodd" d="M10.1364 7.08754C10.4037 7.08754 10.6204 6.86486 10.6204 6.59016C10.6204 6.31546 10.4037 6.09277 10.1364 6.09277C9.86905 6.09277 9.65234 6.31546 9.65234 6.59016C9.65234 6.86486 9.86905 7.08754 10.1364 7.08754Z" fill="black"/>
<path fill-rule="evenodd" clip-rule="evenodd" d="M13.5294 7.08754C13.7968 7.08754 14.0135 6.86486 14.0135 6.59016C14.0135 6.31546 13.7968 6.09277 13.5294 6.09277C13.2621 6.09277 13.0454 6.31546 13.0454 6.59016C13.0454 6.86486 13.2621 7.08754 13.5294 7.08754Z" fill="black"/>
<path fill-rule="evenodd" clip-rule="evenodd" d="M16.3561 9.16371C16.6234 9.16371 16.8401 8.94103 16.8401 8.66633C16.8401 8.39163 16.6234 8.16895 16.3561 8.16895C16.0888 8.16895 15.8721 8.39163 15.8721 8.66633C15.8721 8.94103 16.0888 9.16371 16.3561 9.16371Z" fill="black"/>
<path fill-rule="evenodd" clip-rule="evenodd" d="M7.30971 9.16371C7.57703 9.16371 7.79374 8.94103 7.79374 8.66633C7.79374 8.39163 7.57703 8.16895 7.30971 8.16895C7.04239 8.16895 6.82568 8.39163 6.82568 8.66633C6.82568 8.94103 7.04239 9.16371 7.30971 9.16371Z" fill="black"/>
<path fill-rule="evenodd" clip-rule="evenodd" d="M7.30971 16.0114C7.57703 16.0114 7.79374 15.7887 7.79374 15.514C7.79374 15.2393 7.57703 15.0166 7.30971 15.0166C7.04239 15.0166 6.82568 15.2393 6.82568 15.514C6.82568 15.7887 7.04239 16.0114 7.30971 16.0114Z" fill="black"/>
<path fill-rule="evenodd" clip-rule="evenodd" d="M6.29946 12.5661C6.56678 12.5661 6.78349 12.3434 6.78349 12.0687C6.78349 11.794 6.56678 11.5713 6.29946 11.5713C6.03214 11.5713 5.81543 11.794 5.81543 12.0687C5.81543 12.3434 6.03214 12.5661 6.29946 12.5661Z" fill="black"/>
<path fill-rule="evenodd" clip-rule="evenodd" d="M17.486 12.5661C17.7533 12.5661 17.97 12.3434 17.97 12.0687C17.97 11.794 17.7533 11.5713 17.486 11.5713C17.2187 11.5713 17.002 11.794 17.002 12.0687C17.002 12.3434 17.2187 12.5661 17.486 12.5661Z" fill="black"/>
<path fill-rule="evenodd" clip-rule="evenodd" d="M16.1139 12.5661C16.3812 12.5661 16.5979 12.3434 16.5979 12.0687C16.5979 11.794 16.3812 11.5713 16.1139 11.5713C15.8466 11.5713 15.6299 11.794 15.6299 12.0687C15.6299 12.3434 15.8466 12.5661 16.1139 12.5661Z" fill="black"/>
<path fill-rule="evenodd" clip-rule="evenodd" d="M7.59145 12.5661C7.85877 12.5661 8.07548 12.3434 8.07548 12.0687C8.07548 11.794 7.85877 11.5713 7.59145 11.5713C7.32413 11.5713 7.10742 11.794 7.10742 12.0687C7.10742 12.3434 7.32413 12.5661 7.59145 12.5661Z" fill="black"/>
<path fill-rule="evenodd" clip-rule="evenodd" d="M10.1364 12.5661C10.4037 12.5661 10.6204 12.3434 10.6204 12.0687C10.6204 11.794 10.4037 11.5713 10.1364 11.5713C9.86905 11.5713 9.65234 11.794 9.65234 12.0687C9.65234 12.3434 9.86905 12.5661 10.1364 12.5661Z" fill="black"/>
<path fill-rule="evenodd" clip-rule="evenodd" d="M13.5294 12.5661C13.7968 12.5661 14.0135 12.3434 14.0135 12.0687C14.0135 11.794 13.7968 11.5713 13.5294 11.5713C13.2621 11.5713 13.0454 11.794 13.0454 12.0687C13.0454 12.3434 13.2621 12.5661 13.5294 12.5661Z" fill="black"/>
<path fill-rule="evenodd" clip-rule="evenodd" d="M12.3505 9.07779C12.3933 8.80664 12.2141 8.55116 11.9502 8.50715C11.6864 8.46314 11.4377 8.64727 11.3949 8.91842C11.3521 9.18957 11.5313 9.44506 11.7951 9.48907C12.059 9.53308 12.3076 9.34894 12.3505 9.07779Z" fill="black"/>
<path fill-rule="evenodd" clip-rule="evenodd" d="M8.92397 9.90981C9.19129 9.90981 9.408 9.68712 9.408 9.41242C9.408 9.13773 9.19129 8.91504 8.92397 8.91504C8.65665 8.91504 8.43994 9.13773 8.43994 9.41242C8.43994 9.68712 8.65665 9.90981 8.92397 9.90981Z" fill="black"/>
<path fill-rule="evenodd" clip-rule="evenodd" d="M14.7819 9.90981C15.0492 9.90981 15.2659 9.68712 15.2659 9.41242C15.2659 9.13773 15.0492 8.91504 14.7819 8.91504C14.5146 8.91504 14.2979 9.13773 14.2979 9.41242C14.2979 9.68712 14.5146 9.90981 14.7819 9.90981Z" fill="black"/>
<path fill-rule="evenodd" clip-rule="evenodd" d="M11.8727 15.7194C12.14 15.7194 12.3567 15.4967 12.3567 15.222C12.3567 14.9473 12.14 14.7246 11.8727 14.7246C11.6054 14.7246 11.3887 14.9473 11.3887 15.222C11.3887 15.4967 11.6054 15.7194 11.8727 15.7194Z" fill="black"/>
<path fill-rule="evenodd" clip-rule="evenodd" d="M8.92397 15.3043C9.19129 15.3043 9.408 15.0817 9.408 14.807C9.408 14.5323 9.19129 14.3096 8.92397 14.3096C8.65665 14.3096 8.43994 14.5323 8.43994 14.807C8.43994 15.0817 8.65665 15.3043 8.92397 15.3043Z" fill="black"/>
<path fill-rule="evenodd" clip-rule="evenodd" d="M14.7819 15.3043C15.0492 15.3043 15.2659 15.0817 15.2659 14.807C15.2659 14.5323 15.0492 14.3096 14.7819 14.3096C14.5146 14.3096 14.2979 14.5323 14.2979 14.807C14.2979 15.0817 14.5146 15.3043 14.7819 15.3043Z" fill="black"/>
<path fill-rule="evenodd" clip-rule="evenodd" d="M18.0924 17.7137C18.4493 17.7137 18.7386 17.4164 18.7386 17.0497C18.7386 16.683 18.4493 16.3857 18.0924 16.3857C17.7356 16.3857 17.4463 16.683 17.4463 17.0497C17.4463 17.4164 17.7356 17.7137 18.0924 17.7137Z" fill="black"/>
</g>
</svg>
