<svg width="24" height="24" viewBox="0 0 24 24" fill="none" xmlns="http://www.w3.org/2000/svg">
<path opacity="0.2" d="M12 24C18.6274 24 24 18.6274 24 12C24 5.37258 18.6274 0 12 0C5.37258 0 0 5.37258 0 12C0 18.6274 5.37258 24 12 24Z" fill="black"/>
<path fill-rule="evenodd" clip-rule="evenodd" d="M12.6187 4.76618C12.1859 4.57101 11.6712 4.58608 11.2407 4.77974C10.6327 5.03174 10.0212 5.27438 9.40967 5.51701C8.93685 5.70462 8.46406 5.89221 7.99296 6.08411C7.90301 6.12155 7.81085 6.15626 7.71836 6.19109C7.39014 6.31471 7.05768 6.43992 6.80477 6.69447C6.56103 6.95627 6.42948 7.29233 6.29974 7.62373C6.27265 7.69294 6.24564 7.76195 6.2177 7.83004C5.87036 8.65178 5.52637 9.47498 5.18227 10.2985C5.09912 10.4974 5.01598 10.6964 4.93277 10.8954C4.90732 10.955 4.88067 11.0144 4.85398 11.0738C4.75521 11.2938 4.65593 11.5149 4.61523 11.7552V12.2209C4.61892 12.251 4.62414 12.2946 4.62949 12.3394C4.63592 12.3933 4.64255 12.4488 4.64699 12.4846L4.69794 12.4944C4.78392 12.7395 4.88643 12.9779 4.98889 13.2161C5.03165 13.3155 5.07439 13.4149 5.11591 13.5147C5.1984 13.699 5.27525 13.8859 5.35211 14.0729C5.41698 14.2307 5.48185 14.3885 5.55013 14.5448C5.64539 14.763 5.736 14.9835 5.82662 15.204C5.88493 15.3459 5.94325 15.4878 6.0028 15.6291C6.11579 15.874 6.22213 16.1219 6.31887 16.3736C6.48797 16.8747 6.77745 17.3524 7.2604 17.592C7.63923 17.7284 8.01659 17.8701 8.37991 18.0472L8.56083 18.0653L8.56822 18.1203C9.27862 18.3704 9.97499 18.6598 10.6677 18.9552C10.7046 18.9642 10.7792 18.9816 10.8161 18.9899C10.9671 19.0573 11.1194 19.1203 11.2719 19.1832C11.3902 19.2321 11.5085 19.2809 11.6262 19.332C12.152 19.4277 12.6512 19.2317 13.1216 19.014C13.3202 18.9186 13.5271 18.8442 13.734 18.7698C13.9292 18.6995 14.1244 18.6293 14.3127 18.5415C14.3282 18.5365 14.3506 18.5289 14.3738 18.521C14.4026 18.5112 14.4327 18.501 14.4523 18.4948C15.2055 18.1806 15.9654 17.8807 16.729 17.5905C17.0118 17.421 17.2909 17.2085 17.4261 16.892C17.6916 16.2994 17.9408 15.699 18.1901 15.0987C18.2888 14.8609 18.3875 14.6231 18.4872 14.3858C18.596 14.1009 18.7196 13.8217 18.8431 13.5426C19.0451 13.0863 19.247 12.63 19.3845 12.1485V11.9044C19.2066 11.2979 18.9555 10.7199 18.7043 10.142C18.556 9.80081 18.4078 9.45964 18.2746 9.11255C18.1459 8.82715 18.0277 8.53692 17.9095 8.24673C17.7359 7.82055 17.5624 7.39445 17.3559 6.98382C17.1296 6.55391 16.6659 6.37497 16.2412 6.21111C16.2141 6.20063 16.1871 6.19022 16.1603 6.1798C15.5199 5.92046 14.8776 5.66558 14.2352 5.41067C13.696 5.19674 13.1568 4.98279 12.6187 4.76618ZM10.1854 8.25955C10.5296 7.99356 10.9475 7.8436 11.3685 7.76222C12.3846 7.60473 13.4686 7.77503 14.3607 8.31079C14.5586 8.42458 14.7676 8.55644 14.868 8.77497C15.06 9.17811 14.7403 9.72442 14.2935 9.71613C14.0784 9.74574 13.8971 9.6331 13.7198 9.52297C13.667 9.49016 13.6146 9.45757 13.5617 9.42903C12.948 9.0583 12.2066 8.91588 11.5051 9.05302C11.158 9.13516 10.8493 9.38307 10.7253 9.72894C10.678 9.99418 10.6677 10.3092 10.8552 10.5239C11.0841 10.8169 11.4422 10.9383 11.782 11.0535C11.8303 11.0698 11.8782 11.086 11.9253 11.1026C12.1124 11.1575 12.3031 11.207 12.4944 11.2567C13.1992 11.4397 13.9129 11.625 14.4936 12.089C14.995 12.4597 15.2424 13.1055 15.2151 13.7264C15.238 14.4257 14.9338 15.131 14.3895 15.5613C13.7995 16.0345 13.0322 16.2093 12.2938 16.1905C11.2614 16.2093 10.2438 15.8484 9.40268 15.2486C9.20477 15.1077 9.00096 14.9042 9.00539 14.6397C8.97733 14.2554 9.33991 13.9043 9.7121 13.9291C9.92094 13.928 10.084 14.0542 10.2441 14.1781C10.2992 14.2207 10.3539 14.2631 10.4099 14.2999C11.1019 14.7964 11.9799 15.0044 12.8151 14.8763C13.0898 14.819 13.3667 14.709 13.5558 14.4898C13.9014 14.1446 13.8962 13.4906 13.5056 13.1824C13.0882 12.8656 12.5714 12.7392 12.0725 12.6171C12.048 12.6111 12.0235 12.6051 11.9991 12.5991C11.9677 12.5908 11.9362 12.5826 11.9046 12.5742C11.1561 12.3773 10.3681 12.17 9.79702 11.6075C9.41007 11.2202 9.25277 10.6558 9.27936 10.114C9.24465 9.3906 9.60797 8.67324 10.1854 8.25955Z" fill="black"/>
</svg>
