<?xml version="1.0" ?>
<!DOCTYPE svg  PUBLIC '-//W3C//DTD SVG 1.1//EN'  'http://www.w3.org/Graphics/SVG/1.1/DTD/svg11.dtd'>
<!-- Uploaded to: SVG Repo, www.svgrepo.com, Generator: SVG Repo Mixer Tools -->
<svg fill="#000000" width="800px" height="800px" viewBox="0 -3.5 33 33" style="fill-rule:evenodd;clip-rule:evenodd;stroke-linejoin:round;stroke-miterlimit:2;" version="1.1" xml:space="preserve" xmlns="http://www.w3.org/2000/svg" xmlns:serif="http://www.serif.com/" xmlns:xlink="http://www.w3.org/1999/xlink">
<g transform="matrix(1,0,0,1,-42,-88)">
<g id="Gasfee-digital-future-cost-security-crypto-sign-symbol">
<g transform="matrix(1,0,0,1,0,67)">
<rect height="1" width="1" x="63" y="46"/>
</g>
<g transform="matrix(1,0,0,1,0,67)">
<rect height="1" width="1" x="62" y="46"/>
</g>
<g transform="matrix(1,0,0,1,0,67)">
<rect height="1" width="1" x="61" y="46"/>
</g>
<g transform="matrix(1,0,0,1,0,67)">
<rect height="1" width="1" x="60" y="46"/>
</g>
<g transform="matrix(1,0,0,1,0,67)">
<rect height="1" width="1" x="59" y="46"/>
</g>
<g transform="matrix(1,0,0,1,0,67)">
<rect height="1" width="1.001" x="58" y="46"/>
</g>
<g transform="matrix(1,0,0,1,0,67)">
<rect height="1" width="1" x="57" y="46"/>
</g>
<g transform="matrix(1,0,0,1,0,67)">
<rect height="1" width="1" x="56" y="46"/>
</g>
<g transform="matrix(1,0,0,1,0,67)">
<rect height="1" width="1" x="55" y="46"/>
</g>
<g transform="matrix(1,0,0,1,0,67)">
<rect height="1" width="1" x="54" y="46"/>
</g>
<g transform="matrix(1,0,0,1,0,67)">
<rect height="1" width="1" x="53" y="46"/>
</g>
<g transform="matrix(1,0,0,1,0,67)">
<rect height="1" width="1" x="52" y="46"/>
</g>
<g transform="matrix(1,0,0,1,0,67)">
<rect height="1" width="1" x="51" y="46"/>
</g>
<g transform="matrix(1,0,0,1,0,67)">
<rect height="1" width="1" x="50" y="46"/>
</g>
<g transform="matrix(1,0,0,1,0,65)">
<rect height="1" width="1" x="64" y="47"/>
</g>
<g transform="matrix(1,0,0,1,0,65)">
<rect height="1" style="fill:rgb(91,110,225);" width="1" x="63" y="47"/>
</g>
<g transform="matrix(1,0,0,1,0,65)">
<rect height="1" style="fill:rgb(91,110,225);" width="1" x="62" y="47"/>
</g>
<g transform="matrix(1,0,0,1,0,65)">
<rect height="1" style="fill:rgb(91,110,225);" width="1" x="61" y="47"/>
</g>
<g transform="matrix(1,0,0,1,0,65)">
<rect height="1" style="fill:rgb(91,110,225);" width="1" x="60" y="47"/>
</g>
<g transform="matrix(1,0,0,1,0,65)">
<rect height="1" style="fill:rgb(91,110,225);" width="1" x="59" y="47"/>
</g>
<g transform="matrix(1,0,0,1,0,65)">
<rect height="1" style="fill:rgb(91,110,225);" width="1.001" x="58" y="47"/>
</g>
<g transform="matrix(1,0,0,1,0,65)">
<rect height="1" style="fill:rgb(91,110,225);" width="1" x="57" y="47"/>
</g>
<g transform="matrix(1,0,0,1,0,65)">
<rect height="1" style="fill:rgb(91,110,225);" width="1" x="56" y="47"/>
</g>
<g transform="matrix(1,0,0,1,0,65)">
<rect height="1" style="fill:rgb(91,110,225);" width="1" x="55" y="47"/>
</g>
<g transform="matrix(1,0,0,1,0,65)">
<rect height="1" style="fill:rgb(91,110,225);" width="1" x="54" y="47"/>
</g>
<g transform="matrix(1,0,0,1,0,65)">
<rect height="1" style="fill:rgb(91,110,225);" width="1" x="53" y="47"/>
</g>
<g transform="matrix(1,0,0,1,0,65)">
<rect height="1" style="fill:rgb(91,110,225);" width="1" x="52" y="47"/>
</g>
<g transform="matrix(1,0,0,1,0,65)">
<rect height="1" style="fill:rgb(99,155,255);" width="1" x="51" y="47"/>
</g>
<g transform="matrix(1,0,0,1,0,65)">
<rect height="1" style="fill:rgb(99,155,255);" width="1" x="50" y="47"/>
</g>
<g transform="matrix(1,0,0,1,0,65)">
<rect height="1" width="1.001" x="49" y="47"/>
</g>
<g transform="matrix(1,0,0,1,0,65)">
<rect height="1" width="1" x="42" y="47"/>
</g>
<g transform="matrix(1,0,0,1,0,63)">
<rect height="1" width="1" x="64" y="48"/>
</g>
<g transform="matrix(1,0,0,1,0,63)">
<rect height="1" width="1" x="63" y="48"/>
</g>
<g transform="matrix(1,0,0,1,0,63)">
<rect height="1" width="1" x="62" y="48"/>
</g>
<g transform="matrix(1,0,0,1,0,63)">
<rect height="1" style="fill:rgb(91,110,225);" width="1" x="61" y="48"/>
</g>
<g transform="matrix(1,0,0,1,0,63)">
<rect height="1" width="1" x="60" y="48"/>
</g>
<g transform="matrix(1,0,0,1,0,63)">
<rect height="1" width="1" x="59" y="48"/>
</g>
<g transform="matrix(1,0,0,1,0,63)">
<rect height="1" width="1.001" x="58" y="48"/>
</g>
<g transform="matrix(1,0,0,1,0,63)">
<rect height="1" width="1" x="57" y="48"/>
</g>
<g transform="matrix(1,0,0,1,0,63)">
<rect height="1" width="1" x="56" y="48"/>
</g>
<g transform="matrix(1,0,0,1,0,63)">
<rect height="1" width="1" x="55" y="48"/>
</g>
<g transform="matrix(1,0,0,1,0,63)">
<rect height="1" width="1" x="54" y="48"/>
</g>
<g transform="matrix(1,0,0,1,0,63)">
<rect height="1" width="1" x="53" y="48"/>
</g>
<g transform="matrix(1,0,0,1,0,63)">
<rect height="1" width="1" x="52" y="48"/>
</g>
<g transform="matrix(1,0,0,1,0,63)">
<rect height="1" width="1" x="51" y="48"/>
</g>
<g transform="matrix(1,0,0,1,0,63)">
<rect height="1" width="1" x="50" y="48"/>
</g>
<g transform="matrix(1,0,0,1,0,63)">
<rect height="1" width="1.001" x="49" y="48"/>
</g>
<g transform="matrix(1,0,0,1,0,63)">
<rect height="1" width="1" x="43" y="48"/>
</g>
<g transform="matrix(1,0,0,1,0,60.999)">
<rect height="1.001" width="1" x="65" y="49"/>
</g>
<g transform="matrix(1,0,0,1,0,60.999)">
<rect height="1.001" style="fill:rgb(91,110,225);" width="1" x="64" y="49"/>
</g>
<g transform="matrix(1,0,0,1,0,60.999)">
<rect height="1.001" style="fill:rgb(91,110,225);" width="1" x="63" y="49"/>
</g>
<g transform="matrix(1,0,0,1,0,60.999)">
<rect height="1.001" style="fill:rgb(91,110,225);" width="1" x="62" y="49"/>
</g>
<g transform="matrix(1,0,0,1,0,60.999)">
<rect height="1.001" style="fill:rgb(91,110,225);" width="1" x="61" y="49"/>
</g>
<g transform="matrix(1,0,0,1,0,60.999)">
<rect height="1.001" style="fill:rgb(91,110,225);" width="1" x="60" y="49"/>
</g>
<g transform="matrix(1,0,0,1,0,60.999)">
<rect height="1.001" style="fill:rgb(91,110,225);" width="1" x="59" y="49"/>
</g>
<g transform="matrix(1,0,0,1,0,60.999)">
<rect height="1.001" style="fill:rgb(91,110,225);" width="1.001" x="58" y="49"/>
</g>
<g transform="matrix(1,0,0,1,0,60.999)">
<rect height="1.001" style="fill:rgb(91,110,225);" width="1" x="57" y="49"/>
</g>
<g transform="matrix(1,0,0,1,0,60.999)">
<rect height="1.001" style="fill:rgb(91,110,225);" width="1" x="56" y="49"/>
</g>
<g transform="matrix(1,0,0,1,0,60.999)">
<rect height="1.001" style="fill:rgb(91,110,225);" width="1" x="55" y="49"/>
</g>
<g transform="matrix(1,0,0,1,0,60.999)">
<rect height="1.001" style="fill:rgb(91,110,225);" width="1" x="54" y="49"/>
</g>
<g transform="matrix(1,0,0,1,0,60.999)">
<rect height="1.001" style="fill:rgb(91,110,225);" width="1" x="53" y="49"/>
</g>
<g transform="matrix(1,0,0,1,0,60.999)">
<rect height="1.001" style="fill:rgb(91,110,225);" width="1" x="52" y="49"/>
</g>
<g transform="matrix(1,0,0,1,0,60.999)">
<rect height="1.001" style="fill:rgb(91,110,225);" width="1" x="51" y="49"/>
</g>
<g transform="matrix(1,0,0,1,0,60.999)">
<rect height="1.001" style="fill:rgb(99,155,255);" width="1" x="50" y="49"/>
</g>
<g transform="matrix(1,0,0,1,0,60.999)">
<rect height="1.001" style="fill:rgb(99,155,255);" width="1.001" x="49" y="49"/>
</g>
<g transform="matrix(1,0,0,1,0,60.999)">
<rect height="1.001" width="1" x="48" y="49"/>
</g>
<g transform="matrix(1,0,0,1,0,60.999)">
<rect height="1.001" width="1" x="44" y="49"/>
</g>
<g transform="matrix(1,0,0,1,0,59)">
<rect height="1" width="1" x="65" y="50"/>
</g>
<g transform="matrix(1,0,0,1,0,59)">
<rect height="1" style="fill:rgb(91,110,225);" width="1" x="64" y="50"/>
</g>
<g transform="matrix(1,0,0,1,0,59)">
<rect height="1" style="fill:rgb(91,110,225);" width="1" x="63" y="50"/>
</g>
<g transform="matrix(1,0,0,1,0,59)">
<rect height="1" style="fill:rgb(91,110,225);" width="1" x="62" y="50"/>
</g>
<g transform="matrix(1,0,0,1,0,59)">
<rect height="1" style="fill:rgb(91,110,225);" width="1" x="61" y="50"/>
</g>
<g transform="matrix(1,0,0,1,0,59)">
<rect height="1" style="fill:rgb(91,110,225);" width="1" x="60" y="50"/>
</g>
<g transform="matrix(1,0,0,1,0,59)">
<rect height="1" width="1" x="59" y="50"/>
</g>
<g transform="matrix(1,0,0,1,0,59)">
<rect height="1" width="1.001" x="58" y="50"/>
</g>
<g transform="matrix(1,0,0,1,0,59)">
<rect height="1" width="1" x="57" y="50"/>
</g>
<g transform="matrix(1,0,0,1,0,59)">
<rect height="1" width="1" x="56" y="50"/>
</g>
<g transform="matrix(1,0,0,1,0,59)">
<rect height="1" style="fill:rgb(91,110,225);" width="1" x="55" y="50"/>
</g>
<g transform="matrix(1,0,0,1,0,59)">
<rect height="1" style="fill:rgb(91,110,225);" width="1" x="54" y="50"/>
</g>
<g transform="matrix(1,0,0,1,0,59)">
<rect height="1" style="fill:rgb(91,110,225);" width="1" x="53" y="50"/>
</g>
<g transform="matrix(1,0,0,1,0,59)">
<rect height="1" style="fill:rgb(91,110,225);" width="1" x="52" y="50"/>
</g>
<g transform="matrix(1,0,0,1,0,59)">
<rect height="1" style="fill:rgb(91,110,225);" width="1" x="51" y="50"/>
</g>
<g transform="matrix(1,0,0,1,0,59)">
<rect height="1" style="fill:rgb(99,155,255);" width="1" x="50" y="50"/>
</g>
<g transform="matrix(1,0,0,1,0,59)">
<rect height="1" style="fill:rgb(99,155,255);" width="1.001" x="49" y="50"/>
</g>
<g transform="matrix(1,0,0,1,0,59)">
<rect height="1" width="1" x="48" y="50"/>
</g>
<g transform="matrix(1,0,0,1,0,59)">
<rect height="1" width="1" x="45" y="50"/>
</g>
<g transform="matrix(1,0,0,1,0,57)">
<rect height="1" width="1" x="65" y="51"/>
</g>
<g transform="matrix(1,0,0,1,0,57)">
<rect height="1" style="fill:rgb(91,110,225);" width="1" x="64" y="51"/>
</g>
<g transform="matrix(1,0,0,1,0,57)">
<rect height="1" style="fill:rgb(91,110,225);" width="1" x="63" y="51"/>
</g>
<g transform="matrix(1,0,0,1,0,57)">
<rect height="1" style="fill:rgb(91,110,225);" width="1" x="62" y="51"/>
</g>
<g transform="matrix(1,0,0,1,0,57)">
<rect height="1" width="1" x="61" y="51"/>
</g>
<g transform="matrix(1,0,0,1,0,57)">
<rect height="1" width="1" x="60" y="51"/>
</g>
<g transform="matrix(1,0,0,1,0,57)">
<rect height="1" style="fill:rgb(223,113,38);" width="1" x="59" y="51"/>
</g>
<g transform="matrix(1,0,0,1,0,57)">
<rect height="1" style="fill:rgb(223,113,38);" width="1.001" x="58" y="51"/>
</g>
<g transform="matrix(1,0,0,1,0,57)">
<rect height="1" style="fill:rgb(223,113,38);" width="1" x="57" y="51"/>
</g>
<g transform="matrix(1,0,0,1,0,57)">
<rect height="1" style="fill:rgb(223,113,38);" width="1" x="56" y="51"/>
</g>
<g transform="matrix(1,0,0,1,0,57)">
<rect height="1" width="1" x="55" y="51"/>
</g>
<g transform="matrix(1,0,0,1,0,57)">
<rect height="1" width="1" x="54" y="51"/>
</g>
<g transform="matrix(1,0,0,1,0,57)">
<rect height="1" style="fill:rgb(91,110,225);" width="1" x="53" y="51"/>
</g>
<g transform="matrix(1,0,0,1,0,57)">
<rect height="1" style="fill:rgb(91,110,225);" width="1" x="52" y="51"/>
</g>
<g transform="matrix(1,0,0,1,0,57)">
<rect height="1" style="fill:rgb(91,110,225);" width="1" x="51" y="51"/>
</g>
<g transform="matrix(1,0,0,1,0,57)">
<rect height="1" style="fill:rgb(99,155,255);" width="1" x="50" y="51"/>
</g>
<g transform="matrix(1,0,0,1,0,57)">
<rect height="1" style="fill:rgb(99,155,255);" width="1.001" x="49" y="51"/>
</g>
<g transform="matrix(1,0,0,1,0,57)">
<rect height="1" width="1" x="48" y="51"/>
</g>
<g transform="matrix(1,0,0,1,0,57)">
<rect height="1" width="1" x="46" y="51"/>
</g>
<g transform="matrix(1,0,0,1,0,55)">
<rect height="1" width="1" x="65" y="52"/>
</g>
<g transform="matrix(1,0,0,1,0,55)">
<rect height="1" style="fill:rgb(91,110,225);" width="1" x="64" y="52"/>
</g>
<g transform="matrix(1,0,0,1,0,55)">
<rect height="1" style="fill:rgb(91,110,225);" width="1" x="63" y="52"/>
</g>
<g transform="matrix(1,0,0,1,0,55)">
<rect height="1" width="1" x="62" y="52"/>
</g>
<g transform="matrix(1,0,0,1,0,55)">
<rect height="1" style="fill:rgb(223,113,38);" width="1" x="61" y="52"/>
</g>
<g transform="matrix(1,0,0,1,0,55)">
<rect height="1" style="fill:rgb(223,113,38);" width="1" x="60" y="52"/>
</g>
<g transform="matrix(1,0,0,1,0,55)">
<rect height="1" style="fill:rgb(251,242,54);" width="1" x="59" y="52"/>
</g>
<g transform="matrix(1,0,0,1,0,55)">
<rect height="1" style="fill:rgb(251,242,54);" width="1.001" x="58" y="52"/>
</g>
<g transform="matrix(1,0,0,1,0,55)">
<rect height="1" style="fill:rgb(251,242,54);" width="1" x="57" y="52"/>
</g>
<g transform="matrix(1,0,0,1,0,55)">
<rect height="1" style="fill:rgb(251,242,54);" width="1" x="56" y="52"/>
</g>
<g transform="matrix(1,0,0,1,0,55)">
<rect height="1" style="fill:rgb(223,113,38);" width="1" x="55" y="52"/>
</g>
<g transform="matrix(1,0,0,1,0,55)">
<rect height="1" style="fill:rgb(223,113,38);" width="1" x="54" y="52"/>
</g>
<g transform="matrix(1,0,0,1,0,55)">
<rect height="1" width="1" x="53" y="52"/>
</g>
<g transform="matrix(1,0,0,1,0,55)">
<rect height="1" style="fill:rgb(91,110,225);" width="1" x="52" y="52"/>
</g>
<g transform="matrix(1,0,0,1,0,55)">
<rect height="1" style="fill:rgb(91,110,225);" width="1" x="51" y="52"/>
</g>
<g transform="matrix(1,0,0,1,0,55)">
<rect height="1" style="fill:rgb(99,155,255);" width="1" x="50" y="52"/>
</g>
<g transform="matrix(1,0,0,1,0,55)">
<rect height="1" style="fill:rgb(99,155,255);" width="1.001" x="49" y="52"/>
</g>
<g transform="matrix(1,0,0,1,0,55)">
<rect height="1" width="1" x="48" y="52"/>
</g>
<g transform="matrix(1,0,0,1,0,55)">
<rect height="1" width="1" x="47" y="52"/>
</g>
<g transform="matrix(1,0,0,1,0,53)">
<rect height="1" width="1" x="65" y="53"/>
</g>
<g transform="matrix(1,0,0,1,0,53)">
<rect height="1" style="fill:rgb(91,110,225);" width="1" x="64" y="53"/>
</g>
<g transform="matrix(1,0,0,1,0,53)">
<rect height="1" style="fill:rgb(91,110,225);" width="1" x="63" y="53"/>
</g>
<g transform="matrix(1,0,0,1,0,53)">
<rect height="1" width="1" x="62" y="53"/>
</g>
<g transform="matrix(1,0,0,1,0,53)">
<rect height="1" style="fill:rgb(251,242,54);" width="1" x="61" y="53"/>
</g>
<g transform="matrix(1,0,0,1,0,53)">
<rect height="1" style="fill:rgb(251,242,54);" width="1" x="60" y="53"/>
</g>
<g transform="matrix(1,0,0,1,0,53)">
<rect height="1" style="fill:rgb(251,242,54);" width="1" x="59" y="53"/>
</g>
<g transform="matrix(1,0,0,1,0,53)">
<rect height="1" width="1.001" x="58" y="53"/>
</g>
<g transform="matrix(1,0,0,1,0,53)">
<rect height="1" width="1" x="57" y="53"/>
</g>
<g transform="matrix(1,0,0,1,0,53)">
<rect height="1" style="fill:rgb(251,242,54);" width="1" x="56" y="53"/>
</g>
<g transform="matrix(1,0,0,1,0,53)">
<rect height="1" style="fill:rgb(251,242,54);" width="1" x="55" y="53"/>
</g>
<g transform="matrix(1,0,0,1,0,53)">
<rect height="1" style="fill:rgb(251,242,54);" width="1" x="54" y="53"/>
</g>
<g transform="matrix(1,0,0,1,0,53)">
<rect height="1" width="1" x="53" y="53"/>
</g>
<g transform="matrix(1,0,0,1,0,53)">
<rect height="1" style="fill:rgb(91,110,225);" width="1" x="52" y="53"/>
</g>
<g transform="matrix(1,0,0,1,0,53)">
<rect height="1" style="fill:rgb(91,110,225);" width="1" x="51" y="53"/>
</g>
<g transform="matrix(1,0,0,1,0,53)">
<rect height="1" style="fill:rgb(99,155,255);" width="1" x="50" y="53"/>
</g>
<g transform="matrix(1,0,0,1,0,53)">
<rect height="1" style="fill:rgb(99,155,255);" width="1.001" x="49" y="53"/>
</g>
<g transform="matrix(1,0,0,1,0,53)">
<rect height="1" width="1" x="48" y="53"/>
</g>
<g transform="matrix(1,0,0,1,0,51)">
<rect height="1" width="1" x="65" y="54"/>
</g>
<g transform="matrix(1,0,0,1,0,51)">
<rect height="1" style="fill:rgb(91,110,225);" width="1" x="64" y="54"/>
</g>
<g transform="matrix(1,0,0,1,0,51)">
<rect height="1" width="1" x="63" y="54"/>
</g>
<g transform="matrix(1,0,0,1,0,51)">
<rect height="1" style="fill:rgb(251,242,54);" width="1" x="62" y="54"/>
</g>
<g transform="matrix(1,0,0,1,0,51)">
<rect height="1" style="fill:rgb(251,242,54);" width="1" x="61" y="54"/>
</g>
<g transform="matrix(1,0,0,1,0,51)">
<rect height="1" style="fill:rgb(251,242,54);" width="1" x="60" y="54"/>
</g>
<g transform="matrix(1,0,0,1,0,51)">
<rect height="1" width="1" x="59" y="54"/>
</g>
<g transform="matrix(1,0,0,1,0,51)">
<rect height="1" style="fill:white;" width="1.001" x="58" y="54"/>
</g>
<g transform="matrix(1,0,0,1,0,51)">
<rect height="1" style="fill:white;" width="1" x="57" y="54"/>
</g>
<g transform="matrix(1,0,0,1,0,51)">
<rect height="1" width="1" x="56" y="54"/>
</g>
<g transform="matrix(1,0,0,1,0,51)">
<rect height="1" style="fill:rgb(251,242,54);" width="1" x="55" y="54"/>
</g>
<g transform="matrix(1,0,0,1,0,51)">
<rect height="1" style="fill:rgb(251,242,54);" width="1" x="54" y="54"/>
</g>
<g transform="matrix(1,0,0,1,0,51)">
<rect height="1" style="fill:rgb(251,242,54);" width="1" x="53" y="54"/>
</g>
<g transform="matrix(1,0,0,1,0,51)">
<rect height="1" width="1" x="52" y="54"/>
</g>
<g transform="matrix(1,0,0,1,0,51)">
<rect height="1" style="fill:rgb(91,110,225);" width="1" x="51" y="54"/>
</g>
<g transform="matrix(1,0,0,1,0,51)">
<rect height="1" style="fill:rgb(99,155,255);" width="1" x="50" y="54"/>
</g>
<g transform="matrix(1,0,0,1,0,51)">
<rect height="1" style="fill:rgb(99,155,255);" width="1.001" x="49" y="54"/>
</g>
<g transform="matrix(1,0,0,1,0,51)">
<rect height="1" width="1" x="48" y="54"/>
</g>
<g transform="matrix(1,0,0,1,0,49)">
<rect height="1" width="1" x="65" y="55"/>
</g>
<g transform="matrix(1,0,0,1,0,49)">
<rect height="1" style="fill:rgb(91,110,225);" width="1" x="64" y="55"/>
</g>
<g transform="matrix(1,0,0,1,0,49)">
<rect height="1" width="1" x="63" y="55"/>
</g>
<g transform="matrix(1,0,0,1,0,49)">
<rect height="1" style="fill:rgb(251,242,54);" width="1" x="62" y="55"/>
</g>
<g transform="matrix(1,0,0,1,0,49)">
<rect height="1" style="fill:rgb(251,242,54);" width="1" x="61" y="55"/>
</g>
<g transform="matrix(1,0,0,1,0,49)">
<rect height="1" style="fill:rgb(251,242,54);" width="1" x="60" y="55"/>
</g>
<g transform="matrix(1,0,0,1,0,49)">
<rect height="1" width="1" x="59" y="55"/>
</g>
<g transform="matrix(1,0,0,1,0,49)">
<rect height="1" style="fill:rgb(223,113,38);" width="1.001" x="58" y="55"/>
</g>
<g transform="matrix(1,0,0,1,0,49)">
<rect height="1" style="fill:rgb(251,242,54);" width="1" x="57" y="55"/>
</g>
<g transform="matrix(1,0,0,1,0,49)">
<rect height="1" width="1" x="56" y="55"/>
</g>
<g transform="matrix(1,0,0,1,0,49)">
<rect height="1" style="fill:rgb(251,242,54);" width="1" x="55" y="55"/>
</g>
<g transform="matrix(1,0,0,1,0,49)">
<rect height="1" style="fill:rgb(251,242,54);" width="1" x="54" y="55"/>
</g>
<g transform="matrix(1,0,0,1,0,49)">
<rect height="1" style="fill:rgb(251,242,54);" width="1" x="53" y="55"/>
</g>
<g transform="matrix(1,0,0,1,0,49)">
<rect height="1" width="1" x="52" y="55"/>
</g>
<g transform="matrix(1,0,0,1,0,49)">
<rect height="1" style="fill:rgb(91,110,225);" width="1" x="51" y="55"/>
</g>
<g transform="matrix(1,0,0,1,0,49)">
<rect height="1" style="fill:rgb(99,155,255);" width="1" x="50" y="55"/>
</g>
<g transform="matrix(1,0,0,1,0,49)">
<rect height="1" style="fill:rgb(99,155,255);" width="1.001" x="49" y="55"/>
</g>
<g transform="matrix(1,0,0,1,0,49)">
<rect height="1" width="1" x="48" y="55"/>
</g>
<g transform="matrix(1,0,0,1,0,47)">
<rect height="1" width="1" x="65" y="56"/>
</g>
<g transform="matrix(1,0,0,1,0,47)">
<rect height="1" style="fill:rgb(91,110,225);" width="1" x="64" y="56"/>
</g>
<g transform="matrix(1,0,0,1,0,47)">
<rect height="1" width="1" x="63" y="56"/>
</g>
<g transform="matrix(1,0,0,1,0,47)">
<rect height="1" style="fill:rgb(251,242,54);" width="1" x="62" y="56"/>
</g>
<g transform="matrix(1,0,0,1,0,47)">
<rect height="1" style="fill:rgb(251,242,54);" width="1" x="61" y="56"/>
</g>
<g transform="matrix(1,0,0,1,0,47)">
<rect height="1" style="fill:rgb(251,242,54);" width="1" x="60" y="56"/>
</g>
<g transform="matrix(1,0,0,1,0,47)">
<rect height="1" style="fill:rgb(251,242,54);" width="1" x="59" y="56"/>
</g>
<g transform="matrix(1,0,0,1,0,47)">
<rect height="1" width="1.001" x="58" y="56"/>
</g>
<g transform="matrix(1,0,0,1,0,47)">
<rect height="1" style="fill:rgb(251,242,54);" width="1" x="57" y="56"/>
</g>
<g transform="matrix(1,0,0,1,0,47)">
<rect height="1" width="1" x="56" y="56"/>
</g>
<g transform="matrix(1,0,0,1,0,47)">
<rect height="1" style="fill:rgb(251,242,54);" width="1" x="55" y="56"/>
</g>
<g transform="matrix(1,0,0,1,0,47)">
<rect height="1" style="fill:rgb(251,242,54);" width="1" x="54" y="56"/>
</g>
<g transform="matrix(1,0,0,1,0,47)">
<rect height="1" style="fill:rgb(251,242,54);" width="1" x="53" y="56"/>
</g>
<g transform="matrix(1,0,0,1,0,47)">
<rect height="1" width="1" x="52" y="56"/>
</g>
<g transform="matrix(1,0,0,1,0,47)">
<rect height="1" style="fill:rgb(91,110,225);" width="1" x="51" y="56"/>
</g>
<g transform="matrix(1,0,0,1,0,47)">
<rect height="1" style="fill:rgb(99,155,255);" width="1" x="50" y="56"/>
</g>
<g transform="matrix(1,0,0,1,0,47)">
<rect height="1" style="fill:rgb(99,155,255);" width="1.001" x="49" y="56"/>
</g>
<g transform="matrix(1,0,0,1,0,47)">
<rect height="1" width="1" x="48" y="56"/>
</g>
<g transform="matrix(1,0,0,1,0,45)">
<rect height="1" width="1" x="65" y="57"/>
</g>
<g transform="matrix(1,0,0,1,0,45)">
<rect height="1" style="fill:rgb(91,110,225);" width="1" x="64" y="57"/>
</g>
<g transform="matrix(1,0,0,1,0,45)">
<rect height="1" width="1" x="63" y="57"/>
</g>
<g transform="matrix(1,0,0,1,0,45)">
<rect height="1" style="fill:rgb(251,242,54);" width="1" x="62" y="57"/>
</g>
<g transform="matrix(1,0,0,1,0,45)">
<rect height="1" style="fill:rgb(251,242,54);" width="1" x="61" y="57"/>
</g>
<g transform="matrix(1,0,0,1,0,45)">
<rect height="1" style="fill:rgb(251,242,54);" width="1" x="60" y="57"/>
</g>
<g transform="matrix(1,0,0,1,0,45)">
<rect height="1" width="1" x="59" y="57"/>
</g>
<g transform="matrix(1,0,0,1,0,45)">
<rect height="1" style="fill:rgb(251,242,54);" width="1.001" x="58" y="57"/>
</g>
<g transform="matrix(1,0,0,1,0,45)">
<rect height="1" style="fill:rgb(251,242,54);" width="1" x="57" y="57"/>
</g>
<g transform="matrix(1,0,0,1,0,45)">
<rect height="1" width="1" x="56" y="57"/>
</g>
<g transform="matrix(1,0,0,1,0,45)">
<rect height="1" style="fill:rgb(251,242,54);" width="1" x="55" y="57"/>
</g>
<g transform="matrix(1,0,0,1,0,45)">
<rect height="1" style="fill:rgb(251,242,54);" width="1" x="54" y="57"/>
</g>
<g transform="matrix(1,0,0,1,0,45)">
<rect height="1" style="fill:rgb(251,242,54);" width="1" x="53" y="57"/>
</g>
<g transform="matrix(1,0,0,1,0,45)">
<rect height="1" width="1" x="52" y="57"/>
</g>
<g transform="matrix(1,0,0,1,0,45)">
<rect height="1" style="fill:rgb(91,110,225);" width="1" x="51" y="57"/>
</g>
<g transform="matrix(1,0,0,1,0,45)">
<rect height="1" style="fill:rgb(99,155,255);" width="1" x="50" y="57"/>
</g>
<g transform="matrix(1,0,0,1,0,45)">
<rect height="1" style="fill:rgb(99,155,255);" width="1.001" x="49" y="57"/>
</g>
<g transform="matrix(1,0,0,1,0,45)">
<rect height="1" width="1" x="48" y="57"/>
</g>
<g transform="matrix(1,0,0,1,0,42.999)">
<rect height="1.001" width="1" x="65" y="58"/>
</g>
<g transform="matrix(1,0,0,1,0,42.999)">
<rect height="1.001" style="fill:rgb(91,110,225);" width="1" x="64" y="58"/>
</g>
<g transform="matrix(1,0,0,1,0,42.999)">
<rect height="1.001" style="fill:rgb(91,110,225);" width="1" x="63" y="58"/>
</g>
<g transform="matrix(1,0,0,1,0,42.999)">
<rect height="1.001" width="1" x="62" y="58"/>
</g>
<g transform="matrix(1,0,0,1,0,42.999)">
<rect height="1.001" style="fill:rgb(251,242,54);" width="1" x="61" y="58"/>
</g>
<g transform="matrix(1,0,0,1,0,42.999)">
<rect height="1.001" style="fill:rgb(251,242,54);" width="1" x="60" y="58"/>
</g>
<g transform="matrix(1,0,0,1,0,42.999)">
<rect height="1.001" width="1" x="59" y="58"/>
</g>
<g transform="matrix(1,0,0,1,0,42.999)">
<rect height="1.001" style="fill:rgb(223,113,38);" width="1.001" x="58" y="58"/>
</g>
<g transform="matrix(1,0,0,1,0,42.999)">
<rect height="1.001" style="fill:rgb(223,113,38);" width="1" x="57" y="58"/>
</g>
<g transform="matrix(1,0,0,1,0,42.999)">
<rect height="1.001" width="1" x="56" y="58"/>
</g>
<g transform="matrix(1,0,0,1,0,42.999)">
<rect height="1.001" style="fill:rgb(251,242,54);" width="1" x="55" y="58"/>
</g>
<g transform="matrix(1,0,0,1,0,42.999)">
<rect height="1.001" style="fill:rgb(251,242,54);" width="1" x="54" y="58"/>
</g>
<g transform="matrix(1,0,0,1,0,42.999)">
<rect height="1.001" width="1" x="53" y="58"/>
</g>
<g transform="matrix(1,0,0,1,0,42.999)">
<rect height="1.001" style="fill:rgb(91,110,225);" width="1" x="52" y="58"/>
</g>
<g transform="matrix(1,0,0,1,0,42.999)">
<rect height="1.001" style="fill:rgb(91,110,225);" width="1" x="51" y="58"/>
</g>
<g transform="matrix(1,0,0,1,0,42.999)">
<rect height="1.001" style="fill:rgb(99,155,255);" width="1" x="50" y="58"/>
</g>
<g transform="matrix(1,0,0,1,0,42.999)">
<rect height="1.001" style="fill:rgb(99,155,255);" width="1.001" x="49" y="58"/>
</g>
<g transform="matrix(1,0,0,1,0,42.999)">
<rect height="1.001" width="1" x="48" y="58"/>
</g>
<g transform="matrix(1,0,0,1,0,41)">
<rect height="1" width="1" x="68" y="59"/>
</g>
<g transform="matrix(1,0,0,1,0,41)">
<rect height="1" width="1" x="65" y="59"/>
</g>
<g transform="matrix(1,0,0,1,0,41)">
<rect height="1" style="fill:rgb(91,110,225);" width="1" x="64" y="59"/>
</g>
<g transform="matrix(1,0,0,1,0,41)">
<rect height="1" style="fill:rgb(91,110,225);" width="1" x="63" y="59"/>
</g>
<g transform="matrix(1,0,0,1,0,41)">
<rect height="1" width="1" x="62" y="59"/>
</g>
<g transform="matrix(1,0,0,1,0,41)">
<rect height="1" style="fill:white;" width="1" x="61" y="59"/>
</g>
<g transform="matrix(1,0,0,1,0,41)">
<rect height="1" style="fill:white;" width="1" x="60" y="59"/>
</g>
<g transform="matrix(1,0,0,1,0,41)">
<rect height="1" style="fill:rgb(251,242,54);" width="1" x="59" y="59"/>
</g>
<g transform="matrix(1,0,0,1,0,41)">
<rect height="1" width="1.001" x="58" y="59"/>
</g>
<g transform="matrix(1,0,0,1,0,41)">
<rect height="1" width="1" x="57" y="59"/>
</g>
<g transform="matrix(1,0,0,1,0,41)">
<rect height="1" style="fill:rgb(251,242,54);" width="1" x="56" y="59"/>
</g>
<g transform="matrix(1,0,0,1,0,41)">
<rect height="1" style="fill:white;" width="1" x="55" y="59"/>
</g>
<g transform="matrix(1,0,0,1,0,41)">
<rect height="1" style="fill:white;" width="1" x="54" y="59"/>
</g>
<g transform="matrix(1,0,0,1,0,41)">
<rect height="1" width="1" x="53" y="59"/>
</g>
<g transform="matrix(1,0,0,1,0,41)">
<rect height="1" style="fill:rgb(91,110,225);" width="1" x="52" y="59"/>
</g>
<g transform="matrix(1,0,0,1,0,41)">
<rect height="1" style="fill:rgb(91,110,225);" width="1" x="51" y="59"/>
</g>
<g transform="matrix(1,0,0,1,0,41)">
<rect height="1" style="fill:rgb(99,155,255);" width="1" x="50" y="59"/>
</g>
<g transform="matrix(1,0,0,1,0,41)">
<rect height="1" style="fill:rgb(99,155,255);" width="1.001" x="49" y="59"/>
</g>
<g transform="matrix(1,0,0,1,0,41)">
<rect height="1" width="1" x="48" y="59"/>
</g>
<g transform="matrix(1,0,0,1,0,39)">
<rect height="1" width="1" x="69" y="60"/>
</g>
<g transform="matrix(1,0,0,1,0,39)">
<rect height="1" width="1.001" x="67" y="60"/>
</g>
<g transform="matrix(1,0,0,1,0,39)">
<rect height="1" width="1" x="65" y="60"/>
</g>
<g transform="matrix(1,0,0,1,0,39)">
<rect height="1" style="fill:rgb(91,110,225);" width="1" x="64" y="60"/>
</g>
<g transform="matrix(1,0,0,1,0,39)">
<rect height="1" style="fill:rgb(91,110,225);" width="1" x="63" y="60"/>
</g>
<g transform="matrix(1,0,0,1,0,39)">
<rect height="1" style="fill:rgb(91,110,225);" width="1" x="62" y="60"/>
</g>
<g transform="matrix(1,0,0,1,0,39)">
<rect height="1" width="1" x="61" y="60"/>
</g>
<g transform="matrix(1,0,0,1,0,39)">
<rect height="1" width="1" x="60" y="60"/>
</g>
<g transform="matrix(1,0,0,1,0,39)">
<rect height="1" style="fill:white;" width="1" x="59" y="60"/>
</g>
<g transform="matrix(1,0,0,1,0,39)">
<rect height="1" style="fill:white;" width="1.001" x="58" y="60"/>
</g>
<g transform="matrix(1,0,0,1,0,39)">
<rect height="1" style="fill:white;" width="1" x="57" y="60"/>
</g>
<g transform="matrix(1,0,0,1,0,39)">
<rect height="1" style="fill:white;" width="1" x="56" y="60"/>
</g>
<g transform="matrix(1,0,0,1,0,39)">
<rect height="1" width="1" x="55" y="60"/>
</g>
<g transform="matrix(1,0,0,1,0,39)">
<rect height="1" width="1" x="54" y="60"/>
</g>
<g transform="matrix(1,0,0,1,0,39)">
<rect height="1" style="fill:rgb(91,110,225);" width="1" x="53" y="60"/>
</g>
<g transform="matrix(1,0,0,1,0,39)">
<rect height="1" style="fill:rgb(91,110,225);" width="1" x="52" y="60"/>
</g>
<g transform="matrix(1,0,0,1,0,39)">
<rect height="1" style="fill:rgb(91,110,225);" width="1" x="51" y="60"/>
</g>
<g transform="matrix(1,0,0,1,0,39)">
<rect height="1" style="fill:rgb(99,155,255);" width="1" x="50" y="60"/>
</g>
<g transform="matrix(1,0,0,1,0,39)">
<rect height="1" style="fill:rgb(99,155,255);" width="1.001" x="49" y="60"/>
</g>
<g transform="matrix(1,0,0,1,0,39)">
<rect height="1" width="1" x="48" y="60"/>
</g>
<g transform="matrix(1,0,0,1,0,37)">
<rect height="1" width="1" x="70" y="61"/>
</g>
<g transform="matrix(1,0,0,1,0,37)">
<rect height="1" width="1" x="66" y="61"/>
</g>
<g transform="matrix(1,0,0,1,0,37)">
<rect height="1" width="1" x="65" y="61"/>
</g>
<g transform="matrix(1,0,0,1,0,37)">
<rect height="1" style="fill:rgb(91,110,225);" width="1" x="64" y="61"/>
</g>
<g transform="matrix(1,0,0,1,0,37)">
<rect height="1" style="fill:rgb(91,110,225);" width="1" x="63" y="61"/>
</g>
<g transform="matrix(1,0,0,1,0,37)">
<rect height="1" style="fill:rgb(91,110,225);" width="1" x="62" y="61"/>
</g>
<g transform="matrix(1,0,0,1,0,37)">
<rect height="1" style="fill:rgb(91,110,225);" width="1" x="61" y="61"/>
</g>
<g transform="matrix(1,0,0,1,0,37)">
<rect height="1" style="fill:rgb(91,110,225);" width="1" x="60" y="61"/>
</g>
<g transform="matrix(1,0,0,1,0,37)">
<rect height="1" width="1" x="59" y="61"/>
</g>
<g transform="matrix(1,0,0,1,0,37)">
<rect height="1" width="1.001" x="58" y="61"/>
</g>
<g transform="matrix(1,0,0,1,0,37)">
<rect height="1" width="1" x="57" y="61"/>
</g>
<g transform="matrix(1,0,0,1,0,37)">
<rect height="1" width="1" x="56" y="61"/>
</g>
<g transform="matrix(1,0,0,1,0,37)">
<rect height="1" style="fill:rgb(91,110,225);" width="1" x="55" y="61"/>
</g>
<g transform="matrix(1,0,0,1,0,37)">
<rect height="1" style="fill:rgb(91,110,225);" width="1" x="54" y="61"/>
</g>
<g transform="matrix(1,0,0,1,0,37)">
<rect height="1" style="fill:rgb(91,110,225);" width="1" x="53" y="61"/>
</g>
<g transform="matrix(1,0,0,1,0,37)">
<rect height="1" style="fill:rgb(91,110,225);" width="1" x="52" y="61"/>
</g>
<g transform="matrix(1,0,0,1,0,37)">
<rect height="1" style="fill:rgb(91,110,225);" width="1" x="51" y="61"/>
</g>
<g transform="matrix(1,0,0,1,0,37)">
<rect height="1" style="fill:rgb(99,155,255);" width="1" x="50" y="61"/>
</g>
<g transform="matrix(1,0,0,1,0,37)">
<rect height="1" style="fill:rgb(99,155,255);" width="1.001" x="49" y="61"/>
</g>
<g transform="matrix(1,0,0,1,0,37)">
<rect height="1" width="1" x="48" y="61"/>
</g>
<g transform="matrix(1,0,0,1,0,35)">
<rect height="1" width="1" x="74" y="62"/>
</g>
<g transform="matrix(1,0,0,1,0,35)">
<rect height="1" width="1" x="71" y="62"/>
</g>
<g transform="matrix(1,0,0,1,0,35)">
<rect height="1" width="1" x="65" y="62"/>
</g>
<g transform="matrix(1,0,0,1,0,35)">
<rect height="1" style="fill:rgb(91,110,225);" width="1" x="64" y="62"/>
</g>
<g transform="matrix(1,0,0,1,0,35)">
<rect height="1" style="fill:rgb(91,110,225);" width="1" x="63" y="62"/>
</g>
<g transform="matrix(1,0,0,1,0,35)">
<rect height="1" style="fill:rgb(91,110,225);" width="1" x="62" y="62"/>
</g>
<g transform="matrix(1,0,0,1,0,35)">
<rect height="1" style="fill:rgb(91,110,225);" width="1" x="61" y="62"/>
</g>
<g transform="matrix(1,0,0,1,0,35)">
<rect height="1" style="fill:rgb(91,110,225);" width="1" x="60" y="62"/>
</g>
<g transform="matrix(1,0,0,1,0,35)">
<rect height="1" style="fill:rgb(91,110,225);" width="1" x="59" y="62"/>
</g>
<g transform="matrix(1,0,0,1,0,35)">
<rect height="1" style="fill:rgb(91,110,225);" width="1.001" x="58" y="62"/>
</g>
<g transform="matrix(1,0,0,1,0,35)">
<rect height="1" style="fill:rgb(91,110,225);" width="1" x="57" y="62"/>
</g>
<g transform="matrix(1,0,0,1,0,35)">
<rect height="1" style="fill:rgb(91,110,225);" width="1" x="56" y="62"/>
</g>
<g transform="matrix(1,0,0,1,0,35)">
<rect height="1" style="fill:rgb(91,110,225);" width="1" x="55" y="62"/>
</g>
<g transform="matrix(1,0,0,1,0,35)">
<rect height="1" style="fill:rgb(91,110,225);" width="1" x="54" y="62"/>
</g>
<g transform="matrix(1,0,0,1,0,35)">
<rect height="1" style="fill:rgb(91,110,225);" width="1" x="53" y="62"/>
</g>
<g transform="matrix(1,0,0,1,0,35)">
<rect height="1" style="fill:rgb(91,110,225);" width="1" x="52" y="62"/>
</g>
<g transform="matrix(1,0,0,1,0,35)">
<rect height="1" style="fill:rgb(91,110,225);" width="1" x="51" y="62"/>
</g>
<g transform="matrix(1,0,0,1,0,35)">
<rect height="1" style="fill:rgb(99,155,255);" width="1" x="50" y="62"/>
</g>
<g transform="matrix(1,0,0,1,0,35)">
<rect height="1" style="fill:rgb(99,155,255);" width="1.001" x="49" y="62"/>
</g>
<g transform="matrix(1,0,0,1,0,35)">
<rect height="1" width="1" x="48" y="62"/>
</g>
<g transform="matrix(1,0,0,1,0,33)">
<rect height="1" width="1" x="74" y="63"/>
</g>
<g transform="matrix(1,0,0,1,0,33)">
<rect height="1" width="1" x="72" y="63"/>
</g>
<g transform="matrix(1,0,0,1,0,33)">
<rect height="1" width="1" x="65" y="63"/>
</g>
<g transform="matrix(1,0,0,1,0,33)">
<rect height="1" style="fill:rgb(99,155,255);" width="1" x="64" y="63"/>
</g>
<g transform="matrix(1,0,0,1,0,33)">
<rect height="1" style="fill:rgb(91,110,225);" width="1" x="63" y="63"/>
</g>
<g transform="matrix(1,0,0,1,0,33)">
<rect height="1" style="fill:rgb(91,110,225);" width="1" x="62" y="63"/>
</g>
<g transform="matrix(1,0,0,1,0,33)">
<rect height="1" style="fill:rgb(91,110,225);" width="1" x="61" y="63"/>
</g>
<g transform="matrix(1,0,0,1,0,33)">
<rect height="1" style="fill:rgb(91,110,225);" width="1" x="60" y="63"/>
</g>
<g transform="matrix(1,0,0,1,0,33)">
<rect height="1" style="fill:rgb(91,110,225);" width="1" x="59" y="63"/>
</g>
<g transform="matrix(1,0,0,1,0,33)">
<rect height="1" style="fill:rgb(91,110,225);" width="1.001" x="58" y="63"/>
</g>
<g transform="matrix(1,0,0,1,0,33)">
<rect height="1" style="fill:rgb(91,110,225);" width="1" x="57" y="63"/>
</g>
<g transform="matrix(1,0,0,1,0,33)">
<rect height="1" style="fill:rgb(91,110,225);" width="1" x="56" y="63"/>
</g>
<g transform="matrix(1,0,0,1,0,33)">
<rect height="1" style="fill:rgb(91,110,225);" width="1" x="55" y="63"/>
</g>
<g transform="matrix(1,0,0,1,0,33)">
<rect height="1" style="fill:rgb(91,110,225);" width="1" x="54" y="63"/>
</g>
<g transform="matrix(1,0,0,1,0,33)">
<rect height="1" style="fill:rgb(91,110,225);" width="1" x="53" y="63"/>
</g>
<g transform="matrix(1,0,0,1,0,33)">
<rect height="1" style="fill:rgb(91,110,225);" width="1" x="52" y="63"/>
</g>
<g transform="matrix(1,0,0,1,0,33)">
<rect height="1" style="fill:rgb(99,155,255);" width="1" x="51" y="63"/>
</g>
<g transform="matrix(1,0,0,1,0,33)">
<rect height="1" style="fill:rgb(99,155,255);" width="1" x="50" y="63"/>
</g>
<g transform="matrix(1,0,0,1,0,33)">
<rect height="1" style="fill:rgb(99,155,255);" width="1.001" x="49" y="63"/>
</g>
<g transform="matrix(1,0,0,1,0,33)">
<rect height="1" width="1" x="48" y="63"/>
</g>
<g transform="matrix(1,0,0,1,0,31)">
<rect height="1" width="1" x="74" y="64"/>
</g>
<g transform="matrix(1,0,0,1,0,31)">
<rect height="1" width="1" x="64" y="64"/>
</g>
<g transform="matrix(1,0,0,1,0,31)">
<rect height="1" style="fill:rgb(99,155,255);" width="1" x="63" y="64"/>
</g>
<g transform="matrix(1,0,0,1,0,31)">
<rect height="1" style="fill:rgb(91,110,225);" width="1" x="62" y="64"/>
</g>
<g transform="matrix(1,0,0,1,0,31)">
<rect height="1" style="fill:rgb(91,110,225);" width="1" x="61" y="64"/>
</g>
<g transform="matrix(1,0,0,1,0,31)">
<rect height="1" style="fill:rgb(91,110,225);" width="1" x="60" y="64"/>
</g>
<g transform="matrix(1,0,0,1,0,31)">
<rect height="1" style="fill:rgb(91,110,225);" width="1" x="59" y="64"/>
</g>
<g transform="matrix(1,0,0,1,0,31)">
<rect height="1" style="fill:rgb(91,110,225);" width="1.001" x="58" y="64"/>
</g>
<g transform="matrix(1,0,0,1,0,31)">
<rect height="1" style="fill:rgb(91,110,225);" width="1" x="57" y="64"/>
</g>
<g transform="matrix(1,0,0,1,0,31)">
<rect height="1" style="fill:rgb(91,110,225);" width="1" x="56" y="64"/>
</g>
<g transform="matrix(1,0,0,1,0,31)">
<rect height="1" style="fill:rgb(91,110,225);" width="1" x="55" y="64"/>
</g>
<g transform="matrix(1,0,0,1,0,31)">
<rect height="1" style="fill:rgb(91,110,225);" width="1" x="54" y="64"/>
</g>
<g transform="matrix(1,0,0,1,0,31)">
<rect height="1" style="fill:rgb(91,110,225);" width="1" x="53" y="64"/>
</g>
<g transform="matrix(1,0,0,1,0,31)">
<rect height="1" style="fill:rgb(99,155,255);" width="1" x="52" y="64"/>
</g>
<g transform="matrix(1,0,0,1,0,31)">
<rect height="1" style="fill:rgb(99,155,255);" width="1" x="51" y="64"/>
</g>
<g transform="matrix(1,0,0,1,0,31)">
<rect height="1" style="fill:rgb(99,155,255);" width="1" x="50" y="64"/>
</g>
<g transform="matrix(1,0,0,1,0,31)">
<rect height="1" width="1.001" x="49" y="64"/>
</g>
<g transform="matrix(1,0,0,1,0,29)">
<rect height="1" width="1" x="74" y="65"/>
</g>
<g transform="matrix(1,0,0,1,0,29)">
<rect height="1" width="1" x="73" y="65"/>
</g>
<g transform="matrix(1,0,0,1,0,29)">
<rect height="1" width="1" x="72" y="65"/>
</g>
<g transform="matrix(1,0,0,1,0,29)">
<rect height="1" width="1" x="71" y="65"/>
</g>
<g transform="matrix(1,0,0,1,0,29)">
<rect height="1" width="1" x="64" y="65"/>
</g>
<g transform="matrix(1,0,0,1,0,29)">
<rect height="1" style="fill:rgb(99,155,255);" width="1" x="63" y="65"/>
</g>
<g transform="matrix(1,0,0,1,0,29)">
<rect height="1" style="fill:rgb(99,155,255);" width="1" x="62" y="65"/>
</g>
<g transform="matrix(1,0,0,1,0,29)">
<rect height="1" style="fill:rgb(99,155,255);" width="1" x="61" y="65"/>
</g>
<g transform="matrix(1,0,0,1,0,29)">
<rect height="1" style="fill:rgb(99,155,255);" width="1" x="60" y="65"/>
</g>
<g transform="matrix(1,0,0,1,0,29)">
<rect height="1" style="fill:rgb(99,155,255);" width="1" x="59" y="65"/>
</g>
<g transform="matrix(1,0,0,1,0,29)">
<rect height="1" style="fill:rgb(99,155,255);" width="1.001" x="58" y="65"/>
</g>
<g transform="matrix(1,0,0,1,0,29)">
<rect height="1" style="fill:rgb(99,155,255);" width="1" x="57" y="65"/>
</g>
<g transform="matrix(1,0,0,1,0,29)">
<rect height="1" style="fill:rgb(99,155,255);" width="1" x="56" y="65"/>
</g>
<g transform="matrix(1,0,0,1,0,29)">
<rect height="1" style="fill:rgb(99,155,255);" width="1" x="55" y="65"/>
</g>
<g transform="matrix(1,0,0,1,0,29)">
<rect height="1" style="fill:rgb(99,155,255);" width="1" x="54" y="65"/>
</g>
<g transform="matrix(1,0,0,1,0,29)">
<rect height="1" style="fill:rgb(99,155,255);" width="1" x="53" y="65"/>
</g>
<g transform="matrix(1,0,0,1,0,29)">
<rect height="1" style="fill:rgb(99,155,255);" width="1" x="52" y="65"/>
</g>
<g transform="matrix(1,0,0,1,0,29)">
<rect height="1" style="fill:rgb(99,155,255);" width="1" x="51" y="65"/>
</g>
<g transform="matrix(1,0,0,1,0,29)">
<rect height="1" style="fill:rgb(99,155,255);" width="1" x="50" y="65"/>
</g>
<g transform="matrix(1,0,0,1,0,29)">
<rect height="1" width="1.001" x="49" y="65"/>
</g>
<g transform="matrix(1,0,0,1,0,27)">
<rect height="1" width="1" x="63" y="66"/>
</g>
<g transform="matrix(1,0,0,1,0,27)">
<rect height="1" width="1" x="62" y="66"/>
</g>
<g transform="matrix(1,0,0,1,0,27)">
<rect height="1" width="1" x="61" y="66"/>
</g>
<g transform="matrix(1,0,0,1,0,27)">
<rect height="1" width="1" x="60" y="66"/>
</g>
<g transform="matrix(1,0,0,1,0,27)">
<rect height="1" width="1" x="59" y="66"/>
</g>
<g transform="matrix(1,0,0,1,0,27)">
<rect height="1" width="1.001" x="58" y="66"/>
</g>
<g transform="matrix(1,0,0,1,0,27)">
<rect height="1" width="1" x="57" y="66"/>
</g>
<g transform="matrix(1,0,0,1,0,27)">
<rect height="1" width="1" x="56" y="66"/>
</g>
<g transform="matrix(1,0,0,1,0,27)">
<rect height="1" width="1" x="55" y="66"/>
</g>
<g transform="matrix(1,0,0,1,0,27)">
<rect height="1" width="1" x="54" y="66"/>
</g>
<g transform="matrix(1,0,0,1,0,27)">
<rect height="1" width="1" x="53" y="66"/>
</g>
<g transform="matrix(1,0,0,1,0,27)">
<rect height="1" width="1" x="52" y="66"/>
</g>
<g transform="matrix(1,0,0,1,0,27)">
<rect height="1" width="1" x="51" y="66"/>
</g>
<g transform="matrix(1,0,0,1,0,27)">
<rect height="1" width="1" x="50" y="66"/>
</g>
<g transform="matrix(1,0,0,1,0,24.999)">
<rect height="1.001" width="1" x="61" y="67"/>
</g>
<g transform="matrix(1,0,0,1,0,24.999)">
<rect height="1.001" style="fill:rgb(91,110,225);" width="1" x="60" y="67"/>
</g>
<g transform="matrix(1,0,0,1,0,24.999)">
<rect height="1.001" style="fill:rgb(91,110,225);" width="1" x="59" y="67"/>
</g>
<g transform="matrix(1,0,0,1,0,24.999)">
<rect height="1.001" style="fill:rgb(91,110,225);" width="1.001" x="58" y="67"/>
</g>
<g transform="matrix(1,0,0,1,0,24.999)">
<rect height="1.001" style="fill:rgb(91,110,225);" width="1" x="57" y="67"/>
</g>
<g transform="matrix(1,0,0,1,0,24.999)">
<rect height="1.001" style="fill:rgb(91,110,225);" width="1" x="56" y="67"/>
</g>
<g transform="matrix(1,0,0,1,0,24.999)">
<rect height="1.001" style="fill:rgb(91,110,225);" width="1" x="55" y="67"/>
</g>
<g transform="matrix(1,0,0,1,0,24.999)">
<rect height="1.001" style="fill:rgb(91,110,225);" width="1" x="54" y="67"/>
</g>
<g transform="matrix(1,0,0,1,0,24.999)">
<rect height="1.001" style="fill:rgb(91,110,225);" width="1" x="53" y="67"/>
</g>
<g transform="matrix(1,0,0,1,0,24.999)">
<rect height="1.001" width="1" x="52" y="67"/>
</g>
<g transform="matrix(1,0,0,1,0,23)">
<rect height="1" width="1" x="61" y="68"/>
</g>
<g transform="matrix(1,0,0,1,0,23)">
<rect height="1" style="fill:rgb(91,110,225);" width="1" x="60" y="68"/>
</g>
<g transform="matrix(1,0,0,1,0,23)">
<rect height="1" width="1" x="59" y="68"/>
</g>
<g transform="matrix(1,0,0,1,0,23)">
<rect height="1" width="1.001" x="58" y="68"/>
</g>
<g transform="matrix(1,0,0,1,0,23)">
<rect height="1" width="1" x="57" y="68"/>
</g>
<g transform="matrix(1,0,0,1,0,23)">
<rect height="1" width="1" x="56" y="68"/>
</g>
<g transform="matrix(1,0,0,1,0,23)">
<rect height="1" width="1" x="55" y="68"/>
</g>
<g transform="matrix(1,0,0,1,0,23)">
<rect height="1" style="fill:rgb(91,110,225);" width="1" x="54" y="68"/>
</g>
<g transform="matrix(1,0,0,1,0,23)">
<rect height="1" style="fill:rgb(91,110,225);" width="1" x="53" y="68"/>
</g>
<g transform="matrix(1,0,0,1,0,23)">
<rect height="1" width="1" x="52" y="68"/>
</g>
<g transform="matrix(1,0,0,1,0,21)">
<rect height="1" width="1" x="61" y="69"/>
</g>
<g transform="matrix(1,0,0,1,0,21)">
<rect height="1" style="fill:rgb(91,110,225);" width="1" x="60" y="69"/>
</g>
<g transform="matrix(1,0,0,1,0,21)">
<rect height="1" width="1" x="59" y="69"/>
</g>
<g transform="matrix(1,0,0,1,0,21)">
<rect height="1" style="fill:rgb(91,110,225);" width="1.001" x="58" y="69"/>
</g>
<g transform="matrix(1,0,0,1,0,21)">
<rect height="1" width="1" x="57" y="69"/>
</g>
<g transform="matrix(1,0,0,1,0,21)">
<rect height="1" style="fill:rgb(91,110,225);" width="1" x="56" y="69"/>
</g>
<g transform="matrix(1,0,0,1,0,21)">
<rect height="1" width="1" x="55" y="69"/>
</g>
<g transform="matrix(1,0,0,1,0,21)">
<rect height="1" style="fill:rgb(91,110,225);" width="1" x="54" y="69"/>
</g>
<g transform="matrix(1,0,0,1,0,21)">
<rect height="1" style="fill:rgb(91,110,225);" width="1" x="53" y="69"/>
</g>
<g transform="matrix(1,0,0,1,0,21)">
<rect height="1" width="1" x="52" y="69"/>
</g>
<g transform="matrix(1,0,0,1,0,19)">
<rect height="1" width="1" x="61" y="70"/>
</g>
<g transform="matrix(1,0,0,1,0,19)">
<rect height="1" style="fill:rgb(99,155,255);" width="1" x="60" y="70"/>
</g>
<g transform="matrix(1,0,0,1,0,19)">
<rect height="1" width="1" x="59" y="70"/>
</g>
<g transform="matrix(1,0,0,1,0,19)">
<rect height="1" style="fill:rgb(91,110,225);" width="1.001" x="58" y="70"/>
</g>
<g transform="matrix(1,0,0,1,0,19)">
<rect height="1" width="1" x="57" y="70"/>
</g>
<g transform="matrix(1,0,0,1,0,19)">
<rect height="1" style="fill:rgb(91,110,225);" width="1" x="56" y="70"/>
</g>
<g transform="matrix(1,0,0,1,0,19)">
<rect height="1" width="1" x="55" y="70"/>
</g>
<g transform="matrix(1,0,0,1,0,19)">
<rect height="1" style="fill:rgb(99,155,255);" width="1" x="54" y="70"/>
</g>
<g transform="matrix(1,0,0,1,0,19)">
<rect height="1" style="fill:rgb(99,155,255);" width="1" x="53" y="70"/>
</g>
<g transform="matrix(1,0,0,1,0,19)">
<rect height="1" width="1" x="52" y="70"/>
</g>
<g transform="matrix(1,0,0,1,0,17)">
<rect height="1" width="1" x="61" y="71"/>
</g>
<g transform="matrix(1,0,0,1,0,17)">
<rect height="1" width="1" x="60" y="71"/>
</g>
<g transform="matrix(1,0,0,1,0,17)">
<rect height="1" width="1" x="59" y="71"/>
</g>
<g transform="matrix(1,0,0,1,0,17)">
<rect height="1" width="1.001" x="58" y="71"/>
</g>
<g transform="matrix(1,0,0,1,0,17)">
<rect height="1" width="1" x="57" y="71"/>
</g>
<g transform="matrix(1,0,0,1,0,17)">
<rect height="1" width="1" x="56" y="71"/>
</g>
<g transform="matrix(1,0,0,1,0,17)">
<rect height="1" width="1" x="55" y="71"/>
</g>
<g transform="matrix(1,0,0,1,0,17)">
<rect height="1" width="1" x="54" y="71"/>
</g>
<g transform="matrix(1,0,0,1,0,17)">
<rect height="1" width="1" x="53" y="71"/>
</g>
<g transform="matrix(1,0,0,1,0,17)">
<rect height="1" width="1" x="52" y="71"/>
</g>
</g>
</g>
</svg>