<?xml version="1.0" encoding="utf-8"?><!-- Uploaded to: SVG Repo, www.svgrepo.com, Generator: SVG Repo Mixer Tools -->
<svg version="1.1" id="Uploaded to svgrepo.com" xmlns="http://www.w3.org/2000/svg" xmlns:xlink="http://www.w3.org/1999/xlink" 
	 width="800px" height="800px" viewBox="0 0 32 32" xml:space="preserve">
<style type="text/css">
	.afiado_een{fill:#0B1719;}
</style>
<path class="afiado_een" d="M8,10L4,6h8L8,10z M24,26l4-4h-8L24,26z M20,6h-8l4,4L20,6z M28,6h-8l4,4L28,6z M16,26l4-4h-8L16,26z
	 M8,18l4-4H4L8,18z M16,18l4-4h-8L16,18z M24,18l4-4h-8L24,18z M8,26l4-4H4L8,26z"/>
</svg>