<svg xmlns="http://www.w3.org/2000/svg" width="24" height="24" fill="none" viewBox="0 0 24 24">
  <path fill="#000" d="M22 13h-2v1h2v-1Zm1-2h-1v2h1v-2Zm-1-1h-2v1h2v-1Zm-2 1h-1v2h1v-2Zm-1 8h-2v1h2v-1Zm1-2h-1v2h1v-2Zm-1-1h-2v1h2v-1Zm-2 1h-1v2h1v-2Zm-6 3h-1v2h1v-2Zm2 2h-2v1h2v-1Zm1-2h-1v2h1v-2Zm-1-1h-2v1h2v-1Zm-6 0H5v1h2v-1Zm7-17h-1v2h1V2Zm-1 2h-2v1h2V4Zm0-3h-2v1h2V1Zm-2 1h-1v2h1V2ZM8 17H7v2h1v-2ZM8 5H7v2h1V5ZM7 7H5v1h2V7Zm0 9H5v1h2v-1ZM7 4H5v1h2V4ZM5 17H4v2h1v-2Zm0-6H4v2h1v-2Zm0-6H4v2h1V5Zm-1 5H2v1h2v-1Zm0 3H2v1h2v-1Zm-2-2H1v2h1v-2Z"/>
</svg>
