<svg xmlns="http://www.w3.org" xmlns:xlink="http://www.w3.org/1999/xlink" width="36px" height="36px" preserveAspectRatio="xMidYMid meet" viewBox="0 0 100 100" aria-hidden="true" role="img"><path d="M37.043 74.903a2 2 0 0 1-2-2v-9.161a2 2 0 0 1 4 0v9.161a2 2 0 0 1-2 2z" fill="currentColor"></path><path d="M37.043 56.581a2 2 0 0 1-2-2v-9.162a2 2 0 0 1 4 0v9.162a2 2 0 0 1-2 2z" fill="currentColor"></path><path d="M37.043 38.258a2 2 0 0 1-2-2v-9.161a2 2 0 0 1 4 0v9.161a2 2 0 0 1-2 2z" fill="currentColor"></path><path d="M62.957 74.903a2 2 0 0 1-2-2v-9.161a2 2 0 0 1 4 0v9.161a2 2 0 0 1-2 2z" fill="currentColor"></path><path d="M62.957 56.58a2 2 0 0 1-2-2v-9.161a2 2 0 0 1 4 0v9.161a2 2 0 0 1-2 2z" fill="currentColor"></path><path d="M62.957 38.258a2 2 0 0 1-2-2v-9.161a2 2 0 0 1 4 0v9.161a2 2 0 0 1-2 2z" fill="currentColor"></path><path d="M63 19.936a2 2 0 0 1-2-2V15H39v2.936a2 2 0 0 1-4 0V15H15v70h20v-2.936a2 2 0 0 1 4 0V85h22v-2.936a2 2 0 0 1 4 0V85h20V15H65v2.936a2 2 0 0 1-2 2z" fill="none"></path><path d="M87.064 11H12.936C11.831 11 11 11.831 11 12.936v74.129c0 1.104.831 1.935 1.936 1.935H87.065C88.169 89 89 88.169 89 87.064V12.936C89 11.831 88.169 11 87.064 11zM85 85H65v-2.936a2 2 0 0 0-4 0V85H39v-2.936a2 2 0 0 0-4 0V85H15V15h20v2.936a2 2 0 0 0 4 0V15h22v2.936a2 2 0 0 0 4 0V15h20v70z" fill="currentColor"></path></svg>