<svg width="24" height="24" viewBox="0 0 24 24" fill="none" xmlns="http://www.w3.org/2000/svg">
<path d="M11 3H13V5H11V3Z" fill="black"/>
<path d="M9 9V5H11V9H9Z" fill="black"/>
<path d="M7 9H9V11H7V9Z" fill="black"/>
<path d="M5 7H7V9H5V7Z" fill="black"/>
<path d="M3 7V5H5V7H3Z" fill="black"/>
<path d="M3 17V7H1V17H3Z" fill="black"/>
<path d="M21 17V19H3V17H21Z" fill="black"/>
<path d="M21 7H23V17H21V7Z" fill="black"/>
<path d="M19 7V5H21V7H19Z" fill="black"/>
<path d="M17 9V7H19V9H17Z" fill="black"/>
<path d="M15 9H17V11H15V9Z" fill="black"/>
<path d="M15 9V5H13V9H15Z" fill="black"/>
</svg>
