<svg width="24" height="24" viewBox="0 0 24 24" fill="none" xmlns="http://www.w3.org/2000/svg">
<path d="M11 1H13V3H11V1Z" fill="black"/>
<path d="M9 5V3H11V5H9Z" fill="black"/>
<path d="M5 9V5H9V7H7V9H5Z" fill="black"/>
<path d="M3 11V9H5V11H3Z" fill="black"/>
<path d="M3 13H1V11H3V13Z" fill="black"/>
<path d="M5 15H3V13H5V15Z" fill="black"/>
<path d="M9 19H5V15H7V17H9V19Z" fill="black"/>
<path d="M11 21H9V19H11V21Z" fill="black"/>
<path d="M13 21V23H11V21H13Z" fill="black"/>
<path d="M15 19V21H13V19H15Z" fill="black"/>
<path d="M19 15H17V17H15V19H19V15Z" fill="black"/>
<path d="M21 13V15H19V13H21Z" fill="black"/>
<path d="M21 11H23V13H21V11Z" fill="black"/>
<path d="M19 9H21V11H19V9Z" fill="black"/>
<path d="M15 5H19V9H17V7H15V5Z" fill="black"/>
<path d="M15 5V3H13V5H15Z" fill="black"/>
<path d="M14 12H16V10H14V12Z" fill="black"/>
<path d="M12 14H14V12H12V14Z" fill="black"/>
<path d="M10 14V16H12V14H10Z" fill="black"/>
<path d="M10 14V12H8V14H10Z" fill="black"/>
</svg>
