<?xml version="1.0" ?><svg id="Illustration" style="enable-background:new 0 0 1000 1000;" version="1.1" viewBox="0 0 1000 1000" xml:space="preserve" xmlns="http://www.w3.org/2000/svg" xmlns:xlink="http://www.w3.org/1999/xlink"><style type="text/css">
	.st0{fill:#F2E9E9;}
	.st1{fill:#E6D8D6;}
	.st2{fill:none;stroke:#E6D8D6;stroke-width:2;stroke-linecap:round;stroke-linejoin:round;stroke-miterlimit:10;}
	.st3{fill:#AB4537;}
	.st4{fill:#4BB4AD;}
	.st5{fill:none;stroke:#258A86;stroke-width:2;stroke-linecap:round;stroke-linejoin:round;stroke-miterlimit:10;}
	.st6{fill:#F1AF78;}
	.st7{fill:#FE434C;}
	.st8{fill:none;stroke:#FBFBFD;stroke-width:2;stroke-linecap:round;stroke-linejoin:round;stroke-miterlimit:10;}
	.st9{fill:#FBFBFD;}
	.st10{fill:#303E4E;}
	.st11{fill:#C6725A;}
	.st12{fill:none;stroke:#636E77;stroke-width:1.5;stroke-linecap:round;stroke-linejoin:round;stroke-miterlimit:10;}
	.st13{fill:none;stroke:#303E4E;stroke-width:2;stroke-linecap:round;stroke-linejoin:round;stroke-miterlimit:10;}
	.st14{fill:none;stroke:#F1AF78;stroke-width:2;stroke-linecap:round;stroke-linejoin:round;stroke-miterlimit:10;}
	.st15{fill:none;stroke:#AB4537;stroke-width:1.5;stroke-linecap:round;stroke-linejoin:round;stroke-miterlimit:10;}
	.st16{fill:none;stroke:#E1283A;stroke-width:2;stroke-linecap:round;stroke-linejoin:round;stroke-miterlimit:10;}
	.st17{fill:#E1283A;}
	.st18{fill:#CC7940;}
	.st19{fill:none;stroke:#CC7940;stroke-width:2;stroke-linecap:round;stroke-linejoin:round;stroke-miterlimit:10;}
	.st20{fill:none;stroke:#FBFBFF;stroke-width:2;stroke-linecap:round;stroke-linejoin:round;stroke-miterlimit:10;}
	.st21{fill:#FBFBFF;}
	.st22{fill:#FDFDFF;}
	.st23{fill:none;stroke:#FE434C;stroke-width:2;stroke-linecap:round;stroke-linejoin:round;stroke-miterlimit:10;}
</style><g id="Room_background"><path class="st0" d="M867.143921,806.568787c0,0,49.32959-111.593872,37.515198-196.206665   C889.663086,502.962677,758.401855,495.334503,726.307617,403.36734S711.829651,286.505463,643.7724,224.22493   c-58.21875-53.277115-191.896332-40.956238-235.378876,19.941345c-36.897644,51.675339-131.351593,5.439468-193.748917,80.031174   c-42.983337,51.383636,2.482224,111.287872-38.151154,173.845276c-28.135727,43.316589-68.012619,54.855042-82.610138,121.742371   c-17.684074,81.030212,35.719299,186.318848,35.719299,186.318848L867.143921,806.568787z"/><g><circle class="st1" cx="594.097412" cy="241.069473" r="5.832755"/><circle class="st1" cx="568.426636" cy="253.236374" r="5.832755"/><circle class="st1" cx="546.152893" cy="265.208282" r="5.832755"/><circle class="st1" cx="519.319092" cy="275.116425" r="5.832755"/><circle class="st1" cx="492.657654" cy="287.515594" r="5.832755"/><circle class="st1" cx="465.717163" cy="296.876465" r="5.832755"/><circle class="st1" cx="439.835907" cy="307.430786" r="5.832755"/><circle class="st1" cx="411.886414" cy="315.756104" r="5.832755"/><circle class="st1" cx="388.654663" cy="321.588867" r="5.832755"/><circle class="st1" cx="231.179657" cy="334.542297" r="5.832755"/><circle class="st1" cx="257.53479" cy="336.121399" r="5.832755"/><circle class="st1" cx="286.085968" cy="336.121399" r="5.832755"/><circle class="st1" cx="311.950348" cy="334.542297" r="5.832755"/><circle class="st1" cx="338.503632" cy="331.325623" r="5.832755"/><circle class="st1" cx="363.61499" cy="327.421631" r="5.832755"/><circle class="st1" cx="615.457397" cy="226.865433" r="5.832755"/><circle class="st1" cx="450.9664" cy="235.549133" r="6.934998"/><circle class="st1" cx="552.274414" cy="291.097534" r="6.934998"/><circle class="st1" cx="682.263672" cy="320.883667" r="6.934998"/><circle class="st1" cx="497.878571" cy="266.101044" r="6.934998"/><circle class="st1" cx="474.337708" cy="252.005142" r="6.934998"/><circle class="st1" cx="617.719482" cy="311.857422" r="6.934998"/><circle class="st1" cx="584.996948" cy="303.186829" r="6.934998"/><circle class="st1" cx="651.117432" cy="318.792419" r="6.934998"/><path class="st1" d="M530.849976,336.959961v118.75h92.840027v-118.75H530.849976z M613.330017,445.130005h-72.110046v-97.590027    h72.110046V445.130005z"/><path class="st1" d="M411.080017,404.669983v118.73999h92.839966v-118.73999H411.080017z M493.549988,512.839966h-72.099976    V415.25h72.099976V512.839966z"/><path class="st1" d="M499.909912,767.729126c-115.016296,0-219.370728,4.579468-295.959167,12.019897v-26.194458h438.944214    V571.597168H146.348816v181.957397h37.615234V781.8255c-68.128357,7.572021-109.614258,17.604614-109.614258,28.609863    c0,23.585999,190.529785,42.706238,425.56012,42.706238s425.56012-19.120239,425.56012-42.706238    S734.940308,767.729126,499.909912,767.729126z"/></g><g><path class="st2" d="M625.917114,221.032684c0,0-197.645569,133.58078-407.678894,112.746399"/><path class="st2" d="M694.258789,321.468872c0,0-115.130493,10.22522-256.395447-93.770996"/></g></g><g id="Christmas_tree"><rect class="st3" height="60.254932" width="28.194492" x="424.796173" y="744.50293"/><path class="st4" d="M534.345337,654.181763c4.080688-2.203613,3.2276-7.547729,3.2276-7.547729   s9.741272,6.152405,19.995239,3.845276s10.766602-8.203125,10.766602-8.203125   c-25.057739-24.320312-48.72406-57.362671-63.474487-85.445679c4.420166-3.52179,4.264954-10.645569,4.264954-10.645569   s4.760986,8.206665,12.77948,9.306763s13.280579-5.274902,13.280579-5.274902   c-15.42749-12.90918-36.720154-44.984619-48.706665-69.165344c2.25238-3.238281-0.071655-8.271301-0.071655-8.271301   s4.795227,7.069214,11.029053,7.069214c6.233765,0,8.391602-5.428711,8.391602-5.428711   c-14.513611-14.84845-27.562134-37.561279-36.361023-56.172363c-0.297974-1.277222-0.807373-2.208984-0.807373-2.208984   s4.303345,3.934509,8.237854,3.565613c3.934509-0.368835,5.655823-3.565613,5.655823-3.565613   s-11.680542-8.36084-20.164307-22.746338c-5.822021-9.872192-10.311768-18.932617-12.556274-23.646851   c1.78772,1.94812,5.211304,4.560486,9.736206,2.807617c4.605957-1.78418,4.297913-7.012512,4.297913-7.012512   c-17.878174-12.802979-28.975769-31.075012-36.153198-52.508789c0,0-6.153809,18.953796-13.905151,31.830139   c-9.822327,16.316589-20.225586,25.054321-20.225586,25.054321s2.528198,2.745544,6.067688,2.636841   c3.53949-0.108643,6.067688-4.602905,6.067688-4.602905s-3.792297,7.916138,0.758484,9.491821   c0.837463,0.289978,1.683228,0.242126,2.506287-0.025879c-2.990662,5.881348-6.798889,12.881958-11.079407,19.620239   c-6.239624,9.822144-20.177917,23.19043-20.177917,23.19043s2.016724,3.194031,8.823059,1.307861   c7.068726-1.958923,10.429077-8.96167,10.429077-8.96167s-2.080994,5.537292-0.848145,8.383484   c-8.836914,20.989685-22.391846,45.007751-37.545044,60.644348c0,0,5.544373,5.750671,15.374573,3.036316   c4.503052-1.243408,7.94635-4.039795,10.359375-6.705933c-8.442993,23.438477-24.891724,51.835327-43.33075,70.742249   c0,0,0.947144,5.796875,9.953491,6.917603c6.810669,0.847534,10.593872-3.957031,10.593872-3.957031   s-0.501099,6.767822,4.510437,7.269653c0.019226,0.001953,0.038452-0.000549,0.057678,0.00116   c-11.848267,27.129211-34.302856,60.020996-56.424438,84.239685c0,0,6.152405,6.152405,20.251587,5.639709   s20.677917-9.99762,20.677917-9.99762s-0.576538,1.755493-0.66687,4.060669   c-14.914429,34.854065-37.237488,68.744995-65.897583,101.811523c0,0,3.845276,5.639648,16.66272,2.307129   s15.637329-6.6651,15.637329-6.6651s-4.101624,10.766663,2.563477,13.073853   c6.665039,2.307129,17.175354-4.101624,17.175354-4.101624s-2.54895,8.203186,6.416016,9.741272   s14.604614-5.126953,14.604614-5.126953s4.357971,6.665039,12.817505,6.921387s10.510315-4.35791,10.510315-4.35791   s-1.025391,11.02301,12.561096,12.817444s17.944458-10.510315,17.944458-10.510315s0.512695,6.152405,5.895996,6.408752   c5.383362,0.256348,7.434143-4.357971,7.434143-4.357971s3.33252,8.048096,11.535706,8.638306   c8.203186,0.590271,11.792053-8.381958,11.792053-8.381958s5.896057,9.99762,17.175415,10.253967   s18.457153-12.817444,18.457153-12.817444s4.35791,6.921448,12.304749,6.408752s12.048401-8.715881,12.048401-8.715881   s8.203186,11.279358,21.789673,11.02301s16.66272-15.102356,16.66272-15.102356s1.538086,7.668213,9.228577,7.155518   c7.69043-0.512695,7.69043-9.228577,7.69043-9.228577s4.614319,6.921448,10.253967,7.690491   c5.639709,0.769043,7.690491-7.177795,7.690491-7.177795s1.794434,5.639709,8.972229,5.639709   s10.253967-6.408752,10.253967-6.408752C571.268738,717.324402,550.069763,683.273315,534.345337,654.181763z"/><g><path class="st5" d="M393.58255,369.816895c0,0,2.528198,2.745575,6.067657,2.636871    c3.53949-0.108673,6.067688-4.602905,6.067688-4.602905s-3.792297,7.916107,0.758453,9.491821    c4.550751,1.575745,9.35434-6.767334,9.35434-6.767334s-1.011292,9.101532,5.81485,10.112823    c6.826141,1.011261,8.343079-10.112823,8.343079-10.112823s2.022552,10.365631,11.376892,8.848724    c9.35434-1.516937,7.078949-11.573212,7.078949-11.573212s4.319031,7.239014,11.124084,4.602905    c4.605927-1.78421,4.297913-7.012543,4.297913-7.012543"/><path class="st5" d="M377.725311,420.127472c0,0,2.016754,3.194031,8.823059,1.307861    c7.068756-1.958923,10.429108-8.96167,10.429108-8.96167s-3.403534,9.009766,1.012695,9.957214    c7.516357,1.612549,14.479401-9.957214,14.479401-9.957214s-2.213165,11.311707,5.532898,11.926483    c7.746063,0.614746,10.724182-7.623108,10.724182-7.623108s3.29248,11.557617,11.161499,10.819885    s8.852631-8.729675,8.852631-8.729675s6.038116,7.746063,15.129974,6.393555    c9.091827-1.352478,4.788483-9.221497,4.788483-9.221497s4.303345,3.934509,8.237854,3.565643    c3.934509-0.368835,5.655853-3.565643,5.655853-3.565643"/><path class="st5" d="M358.58432,481.501465c0,0,5.544342,5.750702,15.374542,3.036346    c9.830231-2.714355,14.625458-12.831543,14.625458-12.831543s-3.836182,12.066589,2.157867,13.559479    c5.994019,1.49292,10.309723-6.896942,10.309723-6.896942s-2.397614,10.075226,5.27475,11.083252    c7.672363,1.007996,10.5495-7.950592,10.5495-7.950592s-0.239746,11.672974,8.871185,10.439148    c9.110931-1.233795,7.432617-11.844482,7.432617-11.844482s1.438568,10.321991,10.309723,9.355927    c8.871185-0.966064,9.590454-9.602692,9.590454-9.602692s4.075958,10.568756,13.18689,9.602692    s5.754272-11.083252,5.754272-11.083252s4.315704,6.992065,11.268799,4.85321    c6.953064-2.138855,3.116882-10.441864,3.116882-10.441864s4.795227,7.069214,11.029053,7.069214    c6.233795,0,8.391632-5.428711,8.391632-5.428711"/><path class="st5" d="M340.987518,548.574158c0,0,0.947144,5.796814,9.953491,6.917603    c6.810638,0.847473,10.593872-3.957092,10.593872-3.957092s-0.50116,6.767883,4.510406,7.269714    c5.011536,0.501831,10.273682-5.667236,10.273682-5.667236s-2.255188,10.793884,6.765594,11.195801    c9.020813,0.401978,11.526611-8.841187,11.526611-8.841187s2.004608,9.426331,10.273682,8.841187    c8.269073-0.585083,12.27832-8.841187,12.27832-8.841187s-1.252899,11.647949,9.521973,12.172852    c10.774841,0.524963,12.27829-14.527466,12.27829-14.527466s1.252899,7.995483,9.521973,7.699158    s10.774841-9.301636,10.774841-9.301636s4.116241,11.4729,14.837585,11.226135    c10.721375-0.246765,12.976562-12.534485,12.976562-12.534485s4.760986,9.709106,13.531219,8.40741    c8.770233-1.301636,8.519653-12.448792,8.519653-12.448792s4.760956,8.206726,12.779449,9.306824    c8.018494,1.100037,13.280579-5.274902,13.280579-5.274902"/><path class="st5" d="M309.678497,643.045166c0,0,6.152405,6.152405,20.251617,5.639709    c14.099182-0.512695,20.677887-9.99762,20.677887-9.99762s-4.128998,12.561096,7.976318,14.611877    s15.181488-10.510315,15.181488-10.510315s-5.126984,13.3302,4.101593,15.637329s13.073792-4.870667,13.073792-4.870667    s-0.256348,7.177795,5.639709,7.946838c5.896027,0.769043,8.459503-6.408752,8.459503-6.408752    s-0.769043,5.24231,4.357941,6.466431c5.126984,1.22406,5.896027-4.159241,5.896027-4.159241    s2.050812,10.510315,12.561127,8.972229c10.510315-1.538147,10.230927-11.023071,10.230927-11.023071    s0.792084,12.355896,10.277008,11.176758c9.484894-1.179138,8.459503-11.176758,8.459503-11.176758    s4.357941,9.99762,15.124603,7.177795s7.434143-15.38092,7.434143-15.38092s4.35791,13.586487,16.662689,12.561096    c12.304749-1.025391,9.783295-11.279358,9.783295-11.279358s3.034149,5.126953,8.417511,4.35791    c5.383301-0.769043,5.383301-7.946838,5.383301-7.946838s3.33252,10.766724,11.279358,10.253967    c7.946838-0.512695,6.6651-8.459473,6.6651-8.459473s9.741272,6.152344,19.995239,3.845215s10.766602-8.203125,10.766602-8.203125    "/><path class="st5" d="M284.043579,744.559448c0,0,3.845276,5.639709,16.66272,2.307129    c12.817474-3.33252,15.637299-6.665039,15.637299-6.665039s-4.101593,10.766663,2.563507,13.073792    c6.66507,2.307129,17.175385-4.101562,17.175385-4.101562s-2.549011,8.203125,6.415985,9.741211    c8.964966,1.538147,14.604645-5.126953,14.604645-5.126953s4.357941,6.6651,12.817444,6.921448    c8.459534,0.256348,10.510315-4.357971,10.510315-4.357971s-1.025391,11.02301,12.561127,12.817444    c13.586517,1.794495,17.944427-10.510315,17.944427-10.510315s0.512695,6.152405,5.896027,6.408752    c5.383362,0.256348,7.434143-4.35791,7.434143-4.35791s3.33255,8.048035,11.535706,8.638306    c8.203186,0.590271,11.792053-8.381958,11.792053-8.381958s5.896057,9.99762,17.175415,10.253967    s18.457123-12.817505,18.457123-12.817505s4.357941,6.921448,12.304779,6.408752    c7.946808-0.512695,12.048401-8.715881,12.048401-8.715881s8.203186,11.279358,21.789673,11.02301    s16.66272-15.102356,16.66272-15.102356s1.538086,7.668274,9.228577,7.155579c7.69043-0.512756,7.69043-9.228577,7.69043-9.228577    s4.614319,6.921387,10.253967,7.69043c5.639709,0.769043,7.690491-7.177734,7.690491-7.177734    s1.794434,5.639648,8.972229,5.639648s10.253967-6.408752,10.253967-6.408752"/></g><g><path class="st6" d="M398.127045,485.03125c0,0-1.30777-5.271637,2.261108-5.331238s2.208221,5.382629,2.208221,5.382629    L398.127045,485.03125z"/><path class="st6" d="M469.028961,557.867859c0,0-1.590485-6.411194,2.749908-6.483643    c4.340363-0.07251,2.685547,6.546143,2.685547,6.546143L469.028961,557.867859z"/><path class="st6" d="M371.148773,663.392944c0,0-2.093292-8.438049,3.619293-8.533447s3.534607,8.615723,3.534607,8.615723    L371.148773,663.392944z"/></g><g><g><g><circle class="st7" cx="400.378967" cy="496.827637" r="12.039871"/></g><g><circle class="st7" cx="471.7677" cy="572.214294" r="14.642511"/></g><g><circle class="st7" cx="374.753387" cy="682.275024" r="19.271763"/></g></g></g><g><path class="st8" d="M416.973267,341.676666c0,0,10.47226,11.68338,32.829681,13.209473"/><path class="st8" d="M396.693207,432.148315c0,0,33.652679,27.924438,89.950134,26.124634"/><path class="st8" d="M362.617157,531.955811c0,0,55.462799,5.242004,121.824615-43.612122"/><path class="st8" d="M452.990662,380.753143c0,0-25.475372,16.591949-55.353912,20.366089"/><path class="st8" d="M400.388153,479.700012c0,0-7.458496-20.045258-0.009186-20.045258    C407.318237,459.654755,400.388153,479.700012,400.388153,479.700012z"/><path class="st8" d="M471.77887,551.384216c0,0-9.070801-24.378418-0.011169-24.378418    C480.207031,527.005798,471.77887,551.384216,471.77887,551.384216z"/><path class="st8" d="M374.768066,654.859497c0,0-11.938538-32.085693-0.014679-32.085693    C385.860809,622.773804,374.768066,654.859497,374.768066,654.859497z"/></g><g><circle class="st9" cx="422.819458" cy="347.068787" r="4.989208"/><circle class="st9" cx="438.951843" cy="352.953979" r="4.989208"/><circle class="st9" cx="408.147339" cy="399.51181" r="4.989208"/><circle class="st9" cx="428.726654" cy="393.221893" r="4.989208"/><circle class="st9" cx="445.66864" cy="385.36554" r="4.989208"/><circle class="st9" cx="403.465485" cy="436.948914" r="4.989208"/><circle class="st9" cx="422.711273" cy="445.793274" r="4.989208"/><circle class="st9" cx="444.56308" cy="450.92926" r="5.13599"/><circle class="st9" cx="469.009979" cy="456.065247" r="5.13599"/><circle class="st9" cx="379.390564" cy="531.097168" r="5.13599"/><circle class="st9" cx="404.765961" cy="526.320496" r="5.13599"/><circle class="st9" cx="427.7883" cy="519.947693" r="5.13599"/><circle class="st9" cx="449.699066" cy="510.067719" r="5.13599"/><circle class="st9" cx="470.039825" cy="499.059814" r="5.13599"/></g></g><g id="Mother"><g><path class="st10" d="M747.74469,419.202148c0,0,10.386963,11.863831,13.944092,33.962463    c3.55719,22.098602,0,44.010803,0,44.010803s-109.703247-11.809814-109.703247-12.378967s-0.711426-35.429474,24.473389-65.594299    C701.643677,389.037292,747.74469,419.202148,747.74469,419.202148z"/><path class="st10" d="M684.569275,352.754089c-25.327087,13.517273-26.515198,38.734375-26.515198,38.734375    s10.031982-15.541565,25.092346-19.098755c13.297363-3.140747,27.888245,7.256653,27.888245,7.256653    s-1.280579,12.494446,3.13031,24.104248c2.355896,6.200806,4.62384,10.412598,6.231995,13.006653    c3.080322-1.084412,6.581665-0.94574,9.700195,0.693665c5.947998,3.126831,8.235046,10.483398,5.108215,16.431458    c-3.126831,5.947998-10.483459,8.235046-16.431458,5.108215c-0.633606-0.333069-1.216248-0.723083-1.764648-1.145325    c-1.372498,4.958679-4.304382,14.712585-8.108948,22.620056c-7.256653,15.082458-21.187378,23.761963-13.012573,31.018555    c8.174805,7.256653,26.672119-21.627563,26.672119-21.627563s-18.767944,36.140869-7.036194,41.690063    c11.731689,5.549194,25.960388-30.734009,28.948425-53.499939c2.231995-17.005859,1.605896-28.857849,1.146118-33.768188    c5.354858-2.838257,9.990173-9.838806,11.659668-24.606201C762.115662,356.880432,709.896362,339.236877,684.569275,352.754089z"/></g><path class="st7" d="M786.796509,594.577515c0,0,11.767822-33.944885,1.260803-67.67804   c-3.818848-12.260498-11.493469-22.768677-20.444885-31.40625c-14.499573,5.02301-27.504333,7.550598-39.058777,8.31842   c-4.23822,6.291077-8.79657,9.737183-13.029968,7.734741c-2.695251-1.274902-3.768005-4.1745-3.841064-7.869507   c-39.80011-3.483276-56.971924-28.849487-53.384705-31.415222c-1.704224,0.821533-9.310974,4.566101-17.338806,9.736328   c-18.891724,12.167053-47.491699,57.801453-47.491699,57.801453l-28.125305-20.867981l-26.544373,20.867981   c0,0,21.467529,40.785278,40.380188,49.611145c18.912598,8.825867,36.144104,3.362244,36.144104,3.362244   s2.697632,6.477112,11.475037,17.655457c8.289734,10.55719,16.852234,15.675842,16.852234,15.675842   s-20.762207,38.324219-25.385315,69.110901c-4.623108,30.786743-5.883911,61.887512-5.883911,61.887512   s26.698486,16.39093,81.014404,23.535706s89.199219,4.623047,89.199219,4.623047s56.317566-57.24054,56.317566-104.69104   S786.796509,594.577515,786.796509,594.577515z"/><g><path class="st11" d="M735.210022,433.880005c-3.130005,5.949951-10.490051,8.23999-16.440002,5.109985    c-0.170044-0.090027-0.340027-0.179993-0.5-0.280029c-0.140015-0.079956-0.280029-0.169983-0.410034-0.259949    c-0.149963-0.090027-0.289978-0.190002-0.429993-0.290039c-0.140015-0.099976-0.279968-0.200012-0.419983-0.309998    c-1.330017-1.02002-2.390015-2.279968-3.179993-3.690002l2.299988,6.77002    c-1.570007,5.309998-4.109985,13.049988-7.22998,19.539978c-7.26001,15.080017-21.190002,23.76001-13.01001,31.01001    c7.829956,6.960022,25.159973-19.299988,26.579956-21.469971c-0.97998,1.940002-11.039978,21.889954-10.799988,33.669983    c-40.959961-3.590027-57.950012-30.359985-53.01001-31.590027c8.230042-2.049988,15.280029-2.75,23.210022-3.309998    l-1.219971-13.630005c-5.530029,0.929993-11.850037,0.429993-18.730042-2.849976    c-25.859985-12.320007-12.279968-45.359985-5.279968-58.280029c0.47998-0.879944,0.950012-1.72998,1.409973-2.529968    c0,0,0,0,0.01001-0.01001s0.030029-0.039978,0.059998-0.089966c0.869995-1.310059,10.669983-15.610046,25.030029-19    c13.289978-3.140015,27.880005,7.259949,27.880005,7.259949S709.75,392.140015,714.159973,403.75    c2.360046,6.200012,4.630005,10.409973,6.240051,13.01001c1.399963-0.490051,2.880005-0.740051,4.380005-0.690002    c0.679993,0.019958,1.349976,0.089966,2.029968,0.219971h0.01001c0.210022,0.049988,0.419983,0.100037,0.640015,0.150024    c0.009949,0,0.019958,0,0.039978,0.01001c0.650024,0.169983,1.289978,0.389954,1.919983,0.669983    c0.230042,0.099976,0.460022,0.209961,0.679993,0.330017C736.049988,420.579956,738.330017,427.929993,735.210022,433.880005z"/><path class="st11" d="M767.619995,495.48999c-14.5,5.029968-27.51001,7.559998-39.070007,8.339966    c4.75-7.049988,9.100037-17.679993,12.130005-28.22998C757.72998,485.169983,767.619995,495.48999,767.619995,495.48999z"/><g><path class="st11" d="M563.02832,520.750427c0,0-14.216431-32.310669-17.636963-31.216095     c-3.420593,1.094574-2.052368,14.366333-2.052368,14.366333s-11.601135-12.758728-16.14502-8.893433     c-3.136414,2.667999,1.41925,8.380646,1.41925,8.380646s-4.54364-2.31366-6.869629,0.289246s2.386292,6.869598,2.386292,6.869598     s-4.755188-1.720459-6.43573,0.795441c-1.663208,2.489929,2.60321,6.65271,2.60321,6.65271s-2.742249-0.464539-3.977112,2.313965     c-1.735535,3.904846,7.151062,9.372437,9.924927,9.213196c2.85199-0.163696,2.453857-2.622559,2.453857-2.622559     l12.187866,11.257568L563.02832,520.750427z"/><path class="st11" d="M672.308594,569.85199c0,0-10.2677-15.38446-13.487732-15.789124     c-4.152832-0.521912-2.164185,6.838928-2.164185,6.838928s-6.99762-4.182556-9.586853-2.589172     c-2.589172,1.593323-0.572571,4.804688-0.572571,4.804688s-4.00824-1.076782-5.402405,1.114136     c-1.394165,2.190857,0.696899,5.533325,0.696899,5.533325s-2.81311-0.67218-3.945923,1.120361s1.257202,4.58252,1.257202,4.58252     s-1.891785,0.475525-2.175598,3.110657c-0.522827,4.854858,20.173828,13.224976,20.173828,13.224976L672.308594,569.85199z"/><path class="st11" d="M524.299561,529.118713c0,0,3.222961,1.028748,3.98761-0.516479     c1.980164-4.001404-3.289551-8.076477-3.289551-8.076477s7.954285,3.83252,9.039001,1.01239     c1.084656-2.82019-6.941956-9.472839-6.941956-9.472839s9.183594,5.17511,10.195984,3.037048     c1.012329-2.138-6.074219-9.762054-6.074219-9.762054s7.737366,7.375763,9.906738,4.844879     c2.169312-2.530914-3.760254-11.28064-3.760254-11.28064s-4.38562-1.698212-6.567688,1.392548     c-2.182007,3.09079-10.579956,21.159943-9.74469,23.665741S524.299561,529.118713,524.299561,529.118713z"/></g><path class="st11" d="M858.802002,750.146423c-0.454346-1.358154-1.137512-2.863098-2.009033-4.478027l-1.953308,0.298401    l-7.592468,0.939941c1.797363-6.303162-9.500732-23.315796-16.064575-32.472961    c-2.827087,6.801636-6.248352,13.487793-9.95282,19.873596c1.323547,1.290833,8.305359,8.010559,16.010864,13.838135    l-27.037659,3.347168c-13.893799,19.82428-27.609314,33.768616-27.609314,33.768616s-34.883301,2.521729-89.199219-4.623047    c-7.302795-0.960632-14.089355-2.091858-20.395935-3.324463c-0.051758,13.771545,4.179443,38.899963,35.311768,41.419312    c43.111572,3.48877,140.797791-47.098755,140.797791-47.098755s29.405579,29.079712,37.379944,22.015869    C892.888794,787.980286,868.627686,760.695618,858.802002,750.146423z"/><path class="st11" d="M627.502441,764.25116c0.335571,10.250305,3.371582,26.702454,18.757202,32.053955    c22.926331,7.974426,39.373535-1.495178,39.373535-1.495178l0.798279-15.167847    C659.296387,775.508301,639.690369,769.161499,627.502441,764.25116z"/></g><path class="st3" d="M680.647156,455.148682l0.712219,7.946777c9.060913-0.83197,20.936157-11.821533,21.477661-21.074097   C702.837036,442.021362,694.155396,452.878662,680.647156,455.148682z"/><path class="st10" d="M867.548889,750.452393l7.226746-1.744385l-1.993591-5.482422l-13.27179,2.027649   c-6.462708-13.826233-20.082703-32.365601-20.082703-32.365601l7.226807-1.744385l-1.993591-5.482422l-10.760681,1.643982   c-0.825928,2.38501-1.734436,4.763916-2.717468,7.128967c6.563843,9.157166,17.861938,26.1698,16.064575,32.472961   l7.592468-0.939941c0,0,25.541199,32.916321,19.935974,39.726318c-4.236389,5.146912-10.772522-1.027039-10.772522-1.027039   s17.002502,17.619812,25.475281,12.386658C897.951233,791.819519,867.548889,750.452393,867.548889,750.452393z"/><g><path class="st12" d="M745.618225,424.27829c0,0-2.684692,1.611328-7.458618,2.636688"/><path class="st12" d="M722.559875,469.856323c0,0,8.191895-11.420258,9.070374-30.058075"/><path class="st12" d="M716.469421,372.309143c0,0-11.486267-16.198242-36.13385-11.880493"/><path class="st12" d="M721.906067,370.010956c0,0,1.024414-12.682739-5.436646-17.947296"/><path class="st12" d="M728.015137,370.010956c0,0,8.673706-3.959076,8.590149-9.582306"/><path class="st12" d="M719.217468,379.298859c0,0-2.625549,26.186646,16.395752,38.629974"/><path class="st12" d="M725.376343,377.429169c0,0,10.236877,24.645111,28.423462,26.321442"/><path class="st12" d="M729.391479,375.360077c0,0,13.879211,7.861542,22.01532,3.050934"/><path class="st12" d="M745.009399,430.393036c0,0,2.591797,19.948639-3.032593,41.277374"/></g><g><path class="st10" d="M693.35791,410.407898c0,0-2.742065,5.819214-4.94342,4.661987    c-2.310242-1.214478,0.973083-6.327576,0.973083-6.327576S690.813171,409.07016,693.35791,410.407898z"/><path class="st10" d="M668.08606,397.498962c0,0-2.742126,5.819214-4.943481,4.661987    c-2.310242-1.214478,0.973083-6.327576,0.973083-6.327576S665.541321,396.161224,668.08606,397.498962z"/></g><g><path class="st13" d="M695.887756,412.581024c0,0-3.208557-3.583954-7.667053-4.030487"/><path class="st13" d="M670.615906,399.672089c0,0-3.208618-3.583954-7.667053-4.030487"/><path class="st13" d="M663.881287,388.082733c0,0,6.949158-1.447754,11.147583,5.790955"/><path class="st13" d="M688.927185,399.073303c0,0,10.377747-0.626984,13.99707,9.362427"/></g><path class="st14" d="M728.721741,441.990051c1.296631,2.475494,2.030029,5.29248,2.030029,8.280731   c0,9.870453-8.001587,17.872009-17.87207,17.872009c-9.870422,0-17.872009-8.001556-17.872009-17.872009   s8.001587-17.872009,17.872009-17.872009c1.901794,0,3.734192,0.297028,5.453308,0.84726"/><path class="st11" d="M666.518677,552.543213"/><g><path class="st15" d="M673.813293,408.43573c0,0-2.397827,4.561218-8.765381,4.509827    c-5.132507-0.041412-6.43512,6.973022-0.236084,8.799927"/><path class="st15" d="M677.383972,431.281281c-0.722351,1.905884-4.974976,5.003448-8.940796,2.241455"/><path class="st15" d="M725.405518,429.126251c-3.031372-3.830811-5.105164-3.716553-8.332458-3.179871    c4.049561-3.618958,7.705139-4.69165,12.764832-0.987"/><line class="st15" x1="837.238098" x2="847.271851" y1="748.145813" y2="746.903687"/><path class="st15" d="M676.825562,798.042114c0,0-2.989563-6.855469-3.754761-19.205322"/><path class="st15" d="M672.177856,570.150269c0,0-10.136963-15.682739-13.356995-16.087402    c-4.152832-0.521912-2.164185,6.838928-2.164185,6.838928s-6.99762-4.182556-9.586853-2.589172    c-2.589172,1.593323-0.572571,4.804688-0.572571,4.804688s-4.00824-1.076782-5.402405,1.114136    c-1.394165,2.190857,0.696899,5.533325,0.696899,5.533325s-2.81311-0.67218-3.945923,1.120361s1.257202,4.58252,1.257202,4.58252    s-1.891785,0.475525-2.175598,3.110657c-0.522827,4.854858,19.729248,13.224976,19.729248,13.224976L672.177856,570.150269z"/><path class="st15" d="M537.362915,498.904541c0,0,5.929565,8.749725,3.760254,11.28064    c-2.169373,2.530884-9.906738-4.844879-9.906738-4.844879s7.086548,7.624054,6.074219,9.762054    c-1.01239,2.138062-10.195984-3.037048-10.195984-3.037048s8.026611,6.652649,6.941956,9.472839    c-1.084717,2.820129-9.039001-1.01239-9.039001-1.01239s5.269714,4.075073,3.289551,8.076477    c-0.764648,1.545227-3.98761,0.516479-3.98761,0.516479"/><path class="st15" d="M644.135376,580.874756c-0.263-0.378967,0.254395-9.854431,9.708008-16.771484"/><path class="st15" d="M544.605896,528.335999c0.13147-1.244263-2.096741-7.488403,2.404419-14.389343"/></g><g><path class="st16" d="M670.49115,748.145813c0,0-0.108704-51.622437,37.135498-73.286377"/><path class="st16" d="M769.392517,502.185394c0,0-17.738037,0-27.41571,18.472565"/><path class="st16" d="M633.602783,506.074341l-27.546875,55.417786c0,0,2.096191,16.790955,9.266113,31.280701"/><line class="st16" x1="733.066162" x2="717.073059" y1="543.057312" y2="590.01123"/><path class="st16" d="M786.796509,594.577515c0,0-17.285156,62.123352-39.117371,68.675903    c-54.284668,16.292725-93.011108-68.675903-93.011108-68.675903l20.417053-28.483032l48.370422,28.483032"/><path class="st16" d="M643.649292,626.104126c0,0,21.109375,11.570984,31.234375,12.58313"/></g><g><circle class="st7" cx="499.497711" cy="693.652771" r="11.22246"/><circle class="st7" cx="590.492188" cy="700.795227" r="18.910521"/><circle class="st7" cx="537.657288" cy="694.894531" r="15.7777"/></g><g><path class="st6" d="M492.468292,684.94104c0,0-3.389221-3.760864-0.480682-5.376343    c2.908539-1.615417,4.178345,3.456909,4.178345,3.456909L492.468292,684.94104z"/><path class="st6" d="M557.995178,679.703308c0,0-2.099182-7.227417,2.838989-7.505188    c4.93811-0.277771,3.351929,7.331848,3.351929,7.331848L557.995178,679.703308z"/><path class="st6" d="M584.560974,682.889282c0,0-3.119934-7.939941,2.42511-8.766235    c5.545044-0.826355,4.544861,7.927673,4.544861,7.927673L584.560974,682.889282z"/><path class="st6" d="M614.853333,684.370361c0,0-2.021423-5.958069,2.092346-6.373352    c4.113831-0.415344,3.071533,5.998718,3.071533,5.998718L614.853333,684.370361z"/><path class="st6" d="M532.104187,680.168945c0,0-2.870789-6.513,1.723755-7.39032    c4.594482-0.87738,4.058228,6.454346,4.058228,6.454346L532.104187,680.168945z"/><path class="st6" d="M511.23764,676.300598c0,0-2.099121-7.227417,2.83902-7.505188    c4.93811-0.277771,3.351929,7.331848,3.351929,7.331848L511.23764,676.300598z"/></g><g><circle class="st17" cx="561.758484" cy="695.913147" r="16.683126"/><circle class="st17" cx="618.598022" cy="697.768311" r="13.9467"/><circle class="st17" cx="515.000977" cy="692.510437" r="16.683126"/></g><path class="st18" d="M633.144836,697.905945l-42.382507,10.293579c0,0-0.295593,2.598083-0.575806-0.644714l-101.032593-8.876099   c-6.974121,31.407593-8.602417,65.7948-3.310608,107.177002c69.872559,13.682495,106.749268,11.733276,106.749268,11.733276   s20.945068-4.772827,40.552246-16.733276C639.206787,768.275513,637.710938,733.530396,633.144836,697.905945z"/><path class="st14" d="M590.874817,714.924377c0,31.171265,1.123413,61.486511,1.681091,100.471924"/><g><polygon class="st6" points="633.144836,697.905945 590.762329,708.199524 602.436218,747.745728 647.936279,722.625732   "/><polygon class="st6" points="470.069397,739.466797 489.153931,698.678711 590.762329,708.199524 575.051147,750.348083   "/></g><g><path class="st8" d="M365.036407,567.67804c23.302399,74.913391,158.959564,91.392822,174.514679-55.156799    c0,0,2.467407,102.968933,53.365234,103.190613c26.880859,0.117065,41.843628-14.453186,49.979309-28.229736"/><path class="st8" d="M491.98761,679.564697c0,0-14.931335-13.209534-8.805756-16.479126    C488.888031,660.039795,491.98761,679.564697,491.98761,679.564697z"/><path class="st8" d="M560.834167,672.19812c0,0-7.070251-20.165039-0.703552-21.008972    C566.497253,650.345276,560.834167,672.19812,560.834167,672.19812z"/><path class="st8" d="M586.986084,674.123047c0,0-10.074585-22.027039-2.97583-23.640747    C591.108948,648.868591,586.986084,674.123047,586.986084,674.123047z"/><path class="st8" d="M616.945679,677.997009c0,0-6.65332-16.57843-1.367493-17.519592    C620.864014,659.536316,616.945679,677.997009,616.945679,677.997009z"/><path class="st8" d="M533.827942,672.778625c0,0-9.147339-18.020203-3.284363-19.60675    C536.406494,651.585327,533.827942,672.778625,533.827942,672.778625z"/><path class="st8" d="M514.07666,668.79541c0,0-7.070282-20.165039-0.703552-21.008972    C519.739746,646.942566,514.07666,668.79541,514.07666,668.79541z"/><path class="st8" d="M528.473206,703.419983c0,0-8.495117,86.111938,14.069397,87.783386    c22.564575,1.671448,37.952454-83.80896,37.952454-83.80896"/><path class="st8" d="M506.648773,700.048584c0,0-1.155823,103.330994-17.233856,113.070923    c-16.658417,10.091492-37.337494-1.586426-41.40329-4.833923c-11.559814-9.233215-4.777435-20.045471,16.869965-10.167542    s15.075745,46.736938-24.225861,44.004761s-38.881256-35.308411-38.881256-35.308411"/><path class="st8" d="M597.511902,706.122009c0,0,8.151001,57.675781,37.877319,46.446106    c29.726379-11.229614-2.244385-54.66217-2.244385-54.66217"/><line class="st8" x1="656.656677" x2="660.661072" y1="560.901794" y2="732.796814"/></g><g><circle class="st9" cx="527.917419" cy="716.684631" r="4.875061"/><circle class="st9" cx="526.81012" cy="737.299133" r="4.875061"/><circle class="st9" cx="527.917419" cy="757.294128" r="4.875061"/><circle class="st9" cx="530.90802" cy="776.410889" r="4.875061"/><circle class="st9" cx="542.532349" cy="791.228027" r="4.875061"/><circle class="st9" cx="558.228638" cy="778.535034" r="4.875061"/><circle class="st9" cx="567.651733" cy="759.776062" r="4.875061"/><circle class="st9" cx="572.526794" cy="739.466797" r="4.875061"/><circle class="st9" cx="577.401855" cy="719.799438" r="4.875061"/><circle class="st9" cx="505.846771" cy="703.419983" r="4.875061"/><circle class="st9" cx="505.846771" cy="722.825806" r="4.875061"/><circle class="st9" cx="502.557556" cy="764.651123" r="4.875061"/><circle class="st9" cx="505.057007" cy="743.142029" r="4.875061"/><circle class="st9" cx="499.451141" cy="786.160156" r="4.875061"/><circle class="st9" cx="494.57608" cy="807.127441" r="4.875061"/><circle class="st9" cx="476.360291" cy="816.07019" r="4.875061"/><circle class="st9" cx="454.211548" cy="811.195129" r="4.875061"/><circle class="st9" cx="444.193237" cy="796.103088" r="4.875061"/><circle class="st9" cx="466.610168" cy="798.852112" r="4.875061"/><circle class="st9" cx="471.485229" cy="831.419556" r="4.875061"/><circle class="st9" cx="452.335114" cy="841.169678" r="4.875061"/><circle class="st9" cx="429.778137" cy="839.294495" r="4.875061"/><circle class="st9" cx="411.49234" cy="830.084839" r="4.875061"/><circle class="st9" cx="403.083527" cy="815.396301" r="4.875061"/><circle class="st9" cx="599.446594" cy="714.924377" r="4.875061"/><circle class="st9" cx="604.724121" cy="732.3797" r="4.875061"/><circle class="st9" cx="613.722961" cy="748.723206" r="4.875061"/><circle class="st9" cx="638.019897" cy="706.130737" r="4.875061"/><circle class="st9" cx="645.940552" cy="723.663513" r="4.875061"/><circle class="st9" cx="647.406555" cy="742.129822" r="4.875061"/><circle class="st9" cx="632.253723" cy="752.892151" r="4.875061"/><circle class="st9" cx="369.457703" cy="580.455994" r="4.989208"/><circle class="st9" cx="383.699524" cy="598.254456" r="4.989208"/><circle class="st9" cx="400.378967" cy="611.345215" r="4.989208"/><circle class="st9" cx="422.711273" cy="621.323608" r="4.989208"/><circle class="st9" cx="449.990906" cy="623.707275" r="4.989208"/><circle class="st9" cx="473.31897" cy="618.718079" r="4.989208"/><circle class="st9" cx="492.383118" cy="607.748779" r="4.989208"/><circle class="st9" cx="510.714996" cy="591.846375" r="4.989208"/><circle class="st9" cx="522.202576" cy="574.062378" r="4.989208"/><circle class="st9" cx="531.31604" cy="552.827698" r="4.989208"/><circle class="st9" cx="536.285583" cy="531.592957" r="4.989208"/><circle class="st9" cx="543.786926" cy="547.554016" r="4.989208"/><circle class="st9" cx="549.15802" cy="569.865845" r="4.989208"/><circle class="st9" cx="559.777527" cy="591.043945" r="4.989208"/><circle class="st9" cx="574.34668" cy="608.739624" r="4.989208"/><circle class="st9" cx="601.066711" cy="615.513428" r="4.989208"/><circle class="st9" cx="624.818542" cy="607.748779" r="4.989208"/><circle class="st9" cx="640.210999" cy="592.772827" r="4.989208"/><circle class="st9" cx="656.656677" cy="572.489014" r="4.989208"/><circle class="st9" cx="657.827515" cy="596.033142" r="4.989208"/><circle class="st9" cx="657.827515" cy="620.502625" r="4.989208"/><circle class="st9" cx="659.266479" cy="647.762634" r="4.989208"/><circle class="st9" cx="659.266479" cy="674.859436" r="4.989208"/><circle class="st9" cx="659.266479" cy="698.544922" r="4.989208"/><circle class="st9" cx="660.661072" cy="721.559692" r="4.989208"/></g></g><g id="A_son"><g><polygon class="st10" points="196.725693,578.001648 125.82859,744.900818 166.664536,763.62738 238.04834,642.750793     231.186279,777.047485 271.78714,777.833618 309.841492,586.874207   "/><path class="st10" d="M253.139526,422.132874c0,0-15.883835,5.168823-22.428162,0.064819    c-6.544327-5.104034-4.417633-12.721863-4.417633-12.721863s-12.0858,0.458649-14.426315-8.785217    s5.933655-12.212097,5.933655-12.212097s-9.157303-3.796967-9.111328-10.243622    c0.04599-6.446655,4.970764-8.273438,4.970764-8.273438s-6.671509-9.102356-3.752594-18.177948    c2.918915-9.075623,14.304886-6.877472,14.304886-6.877472s-2.408524-10.126404,3.069336-14.166779    c5.477875-4.040344,12.339996-1.855438,12.339996-1.855438s-2.380798-9.766724,5.338348-12.894318    s12.174927,5.393768,12.174927,5.393768s2.945129-8.735474,7.9328-7.398315c4.987701,1.337158,4.494629,7.888,4.494629,7.888    s4.601776-7.229279,12.985504-6.427979c8.383698,0.80127,7.213135,10.841675,7.213135,10.841675    s8.57254-5.545227,13.705841,0.029327c5.13327,5.574585,3.586914,11.332306,3.586914,11.332306    s7.21283-1.412811,9.277771,2.459686c2.064911,3.872498-0.258911,6.584351-0.258911,6.584351    s7.684845-1.858551,11.590698,6.886078c3.905853,8.744659-3.578003,12.577789-3.578003,12.577789    s5.893555,5.416565,5.375763,10.752625s-5.703522,8.471924-5.703522,8.471924s4.19104,7.433258,0.477295,13.237488    c-3.713715,5.80423-16.178772,3.68924-16.178772,3.68924L253.139526,422.132874z"/></g><path class="st7" d="M105.854568,560.138062c45.242249-33.283386,97.246613-102.89444,106.200516-110.777924   c8.020523-7.061676,33.165405-8.877899,33.165405-8.877899l40.801819,1.63205   c28.888184-34.588959,53.125702-69.248413,69.58017-104.025787l28.652893,11.620361c0,0-18.589996,59.53772-35.10141,89.086884   c-16.511444,29.549194-36.052582,52.323242-36.052582,52.323242c1.67041,33.15921,0.832153,65.189423-3.259888,95.755219   c-34.594482,8.414734-72.860672,3.406555-113.115799-8.872559c7.2267-21.328796,12.581268-42.611206,16.115112-63.848633   c-25.353241,30.071655-56.465759,51.274719-92.094749,65.523132L105.854568,560.138062z"/><g><path class="st11" d="M310.183044,374.420715c-1.827881-3.52002-3.51593-6.333679-5.108398-8.615723    c-5.701721,0.974792-9.102234-4.538086-9.102234-4.538086s-1.461426,7.000122-8.365784,6.614746    c-6.904358-0.385437-7.303833-6.305969-7.303833-6.305969s-0.875244,4.933289-4.302551,5.740112    c-3.427307,0.806885-5.63324-1.000305-5.63324-1.000305s2.073303,3.427979-0.35022,7.193726    c-2.423523,3.765808-9.000549,2.932556-9.000549,2.932556s3.712646,2.86438,2.475769,7.942749    c-0.912842,3.747864-5.478943,3.855774-7.8125,3.655701c1.114929,0.371277,2.584412,1.444458,3.139771,4.498596    c0.469849,2.583862-1.098755,3.838379-2.788818,4.44751c-3.270081-3.544556-8.603882-4.66217-13.125244-2.384766    c-5.467285,2.753906-7.666931,9.418579-4.913025,14.885864c2.753967,5.467285,9.418579,7.666931,14.885864,4.913025    c1.989563-1.002197,3.539795-2.525818,4.582703-4.317566l-11.059326,30.839722l39.620911,1.19165l1.328125-12.392517    c5.016174,0.9328,10.785461,0.57843,17.100586-2.297546C328.203735,416.606934,316.353943,386.304321,310.183044,374.420715z"/><path class="st11" d="M105.854568,560.138062c0,0-35.765656,14.577271-35.541237,17.489624    c0.224411,2.912354,12.065399-0.929688,12.065399-0.929688s-16.534248,8.111145-14.202927,11.209229    c2.331322,3.098145,17.260262-4.120728,17.260262-4.120728s-14.028267,10.760254-12.029861,12.253662    c1.998413,1.493408,18.079315-7.069824,18.079315-7.069824s-9.31192,9.506409-6.911446,10.786255    s23.185257-14.899536,23.185257-14.899536s-4.183823,11.649536-1.63517,12.13678    c2.54866,0.487305,14.621895-17.317688,14.621895-17.317688L105.854568,560.138062z"/><path class="st11" d="M359.451385,339.649445c0,0,9.054169-31.518921,10.781403-31.652008    c1.727264-0.133087,2.084595,11.704834,2.084595,11.704834s6.737671-13.952789,9.860596-13.24118    c2.226929,0.507446,1.790253,3.628723,1.790253,3.628723s3.621918-1.608307,5.430359,0.135681    c1.808472,1.743958,0.933197,4.416748,0.933197,4.416748s2.955414-1.672424,4.317413,0.287201    c1.36203,1.959625,1.412842,4.900696,1.412842,4.900696s2.629944-0.94812,3.890808,0.536285    c2.453918,2.888947-15.697479,29.342438-15.697479,29.342438L359.451385,339.649445z"/></g><g><path class="st10" d="M276.480988,388.767975c0,0,2.405548,5.343903,4.428986,4.324677    c2.123535-1.069641-0.786163-5.778931-0.786163-5.778931S278.820068,387.589752,276.480988,388.767975z"/><path class="st10" d="M299.704529,377.409821c0,0,2.405518,5.343903,4.428986,4.324677    c2.123505-1.069611-0.786194-5.778931-0.786194-5.778931S302.04361,376.231598,299.704529,377.409821z"/></g><g><path class="st13" d="M274.142242,390.707336c0,0,2.979309-3.213684,7.047424-3.549835"/><path class="st13" d="M297.365784,379.349213c0,0,2.979279-3.213715,7.047394-3.549835"/><path class="st13" d="M303.683533,368.899506c0,0-6.306793-1.42868-10.245575,5.098297"/><path class="st13" d="M280.696228,378.513885c0,0-7.927155-0.053314-10.638947,6.851654"/></g><g><path class="st12" d="M257.175842,396.442383c1.168823-0.72699,2.002991-1.926208,1.643433-3.903564    c-0.941864-5.179626-4.5215-4.678345-4.5215-4.678345s7.957321,1.602386,9.194229-3.475952    c1.236877-5.078369-2.4758-7.942749-2.4758-7.942749s6.577057,0.833252,9.00058-2.932526s0.35025-7.193756,0.35025-7.193756    s2.205933,1.80719,5.63324,1.000336c3.427277-0.806824,4.302521-5.740143,4.302521-5.740143s0.399475,5.920563,7.303833,6.305969    c6.904388,0.385406,8.365784-6.614746,8.365784-6.614746s3.400604,5.513092,9.10257,4.538025    c5.701965-0.975098,3.612183-6.965088,3.612183-6.965088s7.594757-2.394348,4.328888-9.560089    c-3.265869-7.165771-8.577728-3.319122-8.577728-3.319122s1.918091-11.053986-8.75351-11.834167    s-16.52951,5.371399-16.52951,5.371399s-4.095154-11.210052-15.650635-8.401947    c-11.555466,2.808136-10.848694,11.980225-10.848694,11.980225"/><path class="st12" d="M235.249741,384.752625c0,0-5.784607-0.990479-6.052322-7.129028    c-0.226288-5.188843,5.005234-6.459686,5.005234-6.459686s-10.233292-6.673798-6.805145-15.441589    c3.428146-8.767761,12.978516-4.943481,12.978516-4.943481"/><line class="st12" x1="137.263214" x2="203.95076" y1="739.430847" y2="592.351746"/><path class="st12" d="M207.846756,603.205566c0,0,11.143036,2.730591,19.387512-6.491089"/><polyline class="st12" points="238.04834,642.750793 260.839508,601.017883 272.10025,598.254456   "/></g><g><path class="st6" d="M365.193512,297.253723c0.030029,0.389771,20.012268,42.089996,20.012268,42.089996l15.356812-13.298798    L365.193512,297.253723z"/><polygon class="st6" points="333.656067,279.805298 313.218048,242.13002 350.546417,266.724243 384.672852,244.46373     370.247864,277.973633 403.158142,297.574799 366.387878,299.026978 355.519867,335.98703 341.97168,302.094757     308.235504,304.703735   "/></g><path class="st11" d="M379.418335,307.979858c0,0-2.913605,6.372772-1.138947,7.421722   c1.774658,1.04892,5.316742-2.442291,5.316742-2.442291s-3.225708,7.597107-0.919189,8.953644   c2.306519,1.356506,6.785553-4.952972,6.785553-4.952972s-3.436157,7.753571-1.097961,9.521332   c2.338196,1.767731,6.468933-5.075348,6.468933-5.075348s-3.476654,6.538605-1.611328,7.665222   c1.865356,1.126648,5.968384-4.526154,5.968384-4.526154"/><g><polyline class="st19" points="319.596771,248.888824 352.141754,284.001617 355.652771,325.733063   "/><polyline class="st19" points="313.407135,302.150604 352.141754,284.001617 379.388184,250.652588   "/><polyline class="st19" points="336.086853,280.489594 352.141754,284.001617 394.748505,295.593262   "/><polyline class="st19" points="350.559662,268.134247 352.141754,284.001617 364.63028,297.297119   "/><polyline class="st19" points="342.91687,300.287903 352.141754,284.001617 368.244415,278.546448   "/></g><g><path class="st15" d="M294.314667,387.281036c0,0,2.111847,4.192596,7.912628,4.246582    c4.675659,0.043518,5.751099,6.453339,0.075714,8.019226"/><path class="st15" d="M290.700592,408.0336c0.627808,1.747437,4.452271,4.6362,8.108307,2.183197"/><path class="st15" d="M246.993805,405.310425c2.821808-3.441345,4.708908-3.304443,7.640045-2.764526    c-3.631287-3.360443-6.944046-4.395386-11.611389-1.101074"/><path class="st15" d="M370.433868,324.594086c0,0,5.299408,6.637421,5.387695,14.96463"/><path class="st15" d="M379.418335,307.979858c0,0-2.913605,6.372772-1.138947,7.421722    c1.774658,1.04892,5.316742-2.442291,5.316742-2.442291s-3.225708,7.597107-0.919189,8.953644    c2.306519,1.356506,6.785553-4.952972,6.785553-4.952972s-3.436157,7.753571-1.097961,9.521332    c2.338196,1.767731,6.468933-5.075348,6.468933-5.075348s-3.476654,6.538605-1.611328,7.665222    c1.865356,1.126648,5.968384-4.526154,5.968384-4.526154"/><path class="st15" d="M90.293671,568.884338c0,0-0.095436,8.431641,10.905334,13.754639"/></g><path class="st3" d="M267.346375,417.41333c0.346741,8.436401,10.989441,18.634338,19.229553,19.535583l0.774536-7.227112   C275.082214,427.440308,267.346375,417.41333,267.346375,417.41333z"/><g><path class="st17" d="M134.652267,748.89502l-16.095001,30.228577c0,0,35.053177,32.867615,41.505386,28.165527    c6.452209-4.702026-12.712997-35.216248-12.712997-35.216248l7.44165-13.89032L134.652267,748.89502z"/><path class="st17" d="M239.462784,777.05365l-0.97374,35.223816c0,0,45.663757,14.960876,49.522247,7.971436    s-26.412628-26.536438-26.412628-26.536438l0.248657-16.071289L239.462784,777.05365z"/><path class="st17" d="M253.139526,422.132874l-7.919037,18.349365c12.946991,7.921448,27.916168,11.598297,44.045532,5.868774    l-2.095642-15.12442C273.687592,433.342865,263.04361,428.777008,253.139526,422.132874z"/><path class="st17" d="M355.602478,338.088501l28.652893,11.620361c-0.341156,6.253967-2.13089,11.370575-5.297882,15.405792    l-31.368927-11.210114C350.209045,347.046814,352.877838,341.697327,355.602478,338.088501z"/><path class="st17" d="M105.854568,560.138062c4.018028-4.013977,8.612419-7.851807,14.199959-11.385986l16.486549,24.000916    c-4.364258,3.791992-9.609688,6.132019-15.795021,6.923157L105.854568,560.138062z"/></g><g><g><line class="st20" x1="135.467514" x2="146.348801" y1="756.342651" y2="761.495178"/><line class="st20" x1="139.843857" x2="140.678253" y1="753.554565" y2="764.382996"/><line class="st20" x1="135.874283" x2="144.671677" y1="761.621521" y2="755.633423"/></g><g><line class="st20" x1="244.17926" x2="256.218628" y1="784.482727" y2="784.550354"/><line class="st20" x1="246.966019" x2="252.30127" y1="780.10553" y2="789.565247"/><line class="st20" x1="246.780197" x2="252.220016" y1="789.094299" y2="779.947754"/></g><path class="st8" d="M311.851044,517.482544c0,0-4.344879,6.244202-5.684418,6.811523    c-1.339508,0.567261-7.540833-11.340271-9.894135-11.923401c-2.353302-0.58316-11.492767,13.397827-13.481537,13.924133    c-1.9888,0.526306-10.192566-10.63855-12.119904-10.760254c-1.927307-0.121643-14.258362,12.136902-16.857101,11.999329    c-2.598724-0.137512-9.24321-11.908813-12.203461-12.253479s-13.672256,10.392883-15.282043,10.51825    c-1.102173,0.085815-10.717163-9.123169-10.717163-9.123169"/><path class="st8" d="M312.33136,529.898071c0,0-3.751892,7.802612-6.022217,7.532532    c-2.270355-0.27002-9.031647-10.003906-11.18219-10.356995c-2.150543-0.353027-8.353546,11.857788-11.189789,12.040588    s-11.279236-10.63446-13.340485-10.520752s-16.206696,10.466309-18.205338,11.148682    c-1.998627,0.682434-9.451447-12.052124-11.591629-11.619507c-2.140198,0.432617-12.027084,9.381714-14.70871,8.983826    c-4.647873-0.689697-12.290787-10.502686-12.290787-10.502686"/></g><g><path class="st21" d="M130.836639,789.991516c2.62178-9.618652,0.575928-17.309448-6.175812-23.056458l-6.103577,12.188538    C118.557251,779.123596,123.923683,784.152283,130.836639,789.991516z"/><path class="st21" d="M158.823669,793.954468c-7.034927-1.700317-11.942841,0.740356-15.404617,5.997131    c7.37027,5.347046,14.147873,9.156311,16.6436,7.337585C162.49881,805.513794,161.281052,800.057678,158.823669,793.954468z"/><path class="st21" d="M254.21228,816.933105c-1.691727-9.824951-6.797928-15.929077-15.346558-18.281738l-0.376678,13.626099    C238.489044,812.277466,245.478546,814.565063,254.21228,816.933105z"/><path class="st21" d="M281.249573,808.689087c-7.093964,1.434204-10.509338,5.721375-11.42337,11.948853    c8.940002,1.728699,16.692627,2.314514,18.185089-0.389038C289.46814,817.609863,286.057343,813.180603,281.249573,808.689087z"/><circle class="st22" cx="226.993896" cy="513.537598" r="2.710652"/><circle class="st22" cx="254.950577" cy="514.007874" r="2.710652"/><circle class="st22" cx="281.761383" cy="513.526245" r="2.710652"/><circle class="st22" cx="306.634705" cy="512.380554" r="2.710652"/><circle class="st22" cx="239.79274" cy="538.317627" r="2.710652"/><circle class="st22" cx="270.000183" cy="538.943909" r="2.710652"/><circle class="st22" cx="295.979095" cy="539.148804" r="2.710652"/><circle class="st22" cx="212.741669" cy="537.683044" r="2.710652"/></g><g><path class="st16" d="M228.891098,494.133087c0,0-8.615356,11.630463-16.050293,20.019928"/><path class="st16" d="M313.101379,491.118988c0,0-3.381561-23.902618-8.039276-35.299133"/><path class="st16" d="M221.87117,447.057556c-0.024475,0.271851,7.088516,4.044525,7.942886,21.034424"/><path class="st16" d="M291.190308,441.716064c0,0,4.830231,1.385803,10.627563,8.154388"/></g><g><line class="st23" x1="254.836334" x2="258.628387" y1="440.88147" y2="429.117218"/><line class="st23" x1="267.155121" x2="269.503052" y1="445.114319" y2="433.657959"/><line class="st23" x1="280.968933" x2="281.11026" y1="445.699829" y2="435.213379"/><line class="st23" x1="111.652199" x2="120.733528" y1="560.927063" y2="554.404236"/><line class="st23" x1="116.825554" x2="126.397987" y1="568.884338" y2="562.718811"/><line class="st23" x1="121.970917" x2="132.493256" y1="576.478394" y2="570.608337"/><line class="st23" x1="359.647736" x2="354.704041" y1="342.197784" y2="353.676697"/><line class="st23" x1="371.09256" x2="366.341492" y1="346.864868" y2="357.251129"/><line class="st23" x1="380.5177" x2="376.802307" y1="350.581512" y2="361.296143"/></g></g></svg>