<?xml version="1.0" encoding="utf-8"?>
<!-- Generator: Adobe Illustrator 16.0.0, SVG Export Plug-In . SVG Version: 6.00 Build 0)  -->
<!DOCTYPE svg PUBLIC "-//W3C//DTD SVG 1.0//EN" "http://www.w3.org/TR/2001/REC-SVG-20010904/DTD/svg10.dtd">
<svg version="1.0" id="Layer_1" xmlns="http://www.w3.org/2000/svg" xmlns:xlink="http://www.w3.org/1999/xlink" x="0px" y="0px"
	 width="256px" height="256px" viewBox="0 0 256 256" enable-background="new 0 0 256 256" xml:space="preserve">
<g id="Card_11_">
	<path id="browser_3_" fill="#D6D6D6" d="M240,0H16C7.164,0,0,7.164,0,16v224c0,8.836,7.164,16,16,16h224c8.836,0,16-7.164,16-16V16
		C256,7.164,248.836,0,240,0z"/>
	<path id="screen_3_" fill="#F6F6F6" d="M232,48H24c-4.418,0-8,3.582-8,8v176c0,4.418,3.582,8,8,8h208c4.418,0,8-3.582,8-8V56
		C240,51.582,236.418,48,232,48z"/>
	<path id="actions_3_" fill="#FFFFFF" d="M32,24c0,4.418-3.582,8-8,8s-8-3.582-8-8s3.582-8,8-8S32,19.582,32,24z M56,16
		c-4.418,0-8,3.582-8,8s3.582,8,8,8s8-3.582,8-8S60.418,16,56,16z M88,16c-4.418,0-8,3.582-8,8s3.582,8,8,8s8-3.582,8-8
		S92.418,16,88,16z"/>
	<path id="text_6_" fill="#D6D6D6" d="M200,204c0,2.211-1.789,4-4,4H52c-2.211,0-4-1.789-4-4l0,0c0-2.211,1.789-4,4-4h144
		C198.211,200,200,201.789,200,204L200,204z M192,180c0-2.211-1.789-4-4-4H52c-2.211,0-4,1.789-4,4l0,0c0,2.211,1.789,4,4,4h136
		C190.211,184,192,182.211,192,180L192,180z M208,156c0-2.211-1.789-4-4-4H52c-2.211,0-4,1.789-4,4l0,0c0,2.211,1.789,4,4,4h152
		C206.211,160,208,158.211,208,156L208,156z M200,132c0-2.211-1.789-4-4-4h-56c-2.211,0-4,1.789-4,4l0,0c0,2.211,1.789,4,4,4h56
		C198.211,136,200,134.211,200,132L200,132z M208,108c0-2.211-1.789-4-4-4h-64c-2.211,0-4,1.789-4,4l0,0c0,2.211,1.789,4,4,4h64
		C206.211,112,208,110.211,208,108L208,108z M192,84c0-2.211-1.789-4-4-4h-48c-2.211,0-4,1.789-4,4l0,0c0,2.211,1.789,4,4,4h48
		C190.211,88,192,86.211,192,84L192,84z"/>
	<g id="thumbnail_1_">
		<path fill="#999999" d="M120,132c0,2.211-1.789,4-4,4H52c-2.211,0-4-1.789-4-4V84c0-2.211,1.789-4,4-4h64c2.211,0,4,1.789,4,4V132
			z"/>
		<circle fill="#F6F6F6" cx="64" cy="96" r="8"/>
		<path fill="#D6D6D6" d="M112,128v-17.656L98.828,97.172c-1.562-1.562-4.094-1.562-5.656,0l-28,28
			c-0.766,0.766-1.133,1.789-1.133,2.828H112z"/>
	</g>
</g>
</svg>
