<?xml version="1.0" encoding="utf-8"?>
<!-- Generator: Adobe Illustrator 16.0.0, SVG Export Plug-In . SVG Version: 6.00 Build 0)  -->
<!DOCTYPE svg PUBLIC "-//W3C//DTD SVG 1.0//EN" "http://www.w3.org/TR/2001/REC-SVG-20010904/DTD/svg10.dtd">
<svg version="1.0" id="Layer_1" xmlns="http://www.w3.org/2000/svg" xmlns:xlink="http://www.w3.org/1999/xlink" x="0px" y="0px"
	 width="256px" height="256px" viewBox="0 0 256 256" enable-background="new 0 0 256 256" xml:space="preserve">
<g id="Card_14_">
	<path id="browser_19_" fill="#D6D6D6" d="M240,0H16C7.164,0,0,7.164,0,16v224c0,8.836,7.164,16,16,16h224c8.836,0,16-7.164,16-16
		V16C256,7.164,248.836,0,240,0z"/>
	<path id="screen_19_" fill="#F6F6F6" d="M232,48H24c-4.418,0-8,3.582-8,8v176c0,4.418,3.582,8,8,8h208c4.418,0,8-3.582,8-8V56
		C240,51.582,236.418,48,232,48z"/>
	<path id="actions_19_" fill="#FFFFFF" d="M32,24c0,4.418-3.582,8-8,8s-8-3.582-8-8s3.582-8,8-8S32,19.582,32,24z M56,16
		c-4.418,0-8,3.582-8,8s3.582,8,8,8s8-3.582,8-8S60.418,16,56,16z M88,16c-4.418,0-8,3.582-8,8s3.582,8,8,8s8-3.582,8-8
		S92.418,16,88,16z"/>
	<path id="text_11_" fill="#D6D6D6" d="M208,204c0,2.211-1.789,4-4,4H100c-2.211,0-4-1.789-4-4l0,0c0-2.211,1.789-4,4-4h104
		C206.211,200,208,201.789,208,204L208,204z M176,180c0-2.211-1.789-4-4-4h-72c-2.211,0-4,1.789-4,4l0,0c0,2.211,1.789,4,4,4h72
		C174.211,184,176,182.211,176,180L176,180z M208,156c0-2.211-1.789-4-4-4H100c-2.211,0-4,1.789-4,4l0,0c0,2.211,1.789,4,4,4h104
		C206.211,160,208,158.211,208,156L208,156z M176,132c0-2.211-1.789-4-4-4h-72c-2.211,0-4,1.789-4,4l0,0c0,2.211,1.789,4,4,4h72
		C174.211,136,176,134.211,176,132L176,132z M208,108c0-2.211-1.789-4-4-4H100c-2.211,0-4,1.789-4,4l0,0c0,2.211,1.789,4,4,4h104
		C206.211,112,208,110.211,208,108L208,108z M176,84c0-2.211-1.789-4-4-4h-72c-2.211,0-4,1.789-4,4l0,0c0,2.211,1.789,4,4,4h72
		C174.211,88,176,86.211,176,84L176,84z"/>
	<path fill="#999999" d="M80,108c0,2.211-1.789,4-4,4H52c-2.211,0-4-1.789-4-4V84c0-2.211,1.789-4,4-4h24c2.211,0,4,1.789,4,4V108z
		 M80,132c0-2.211-1.789-4-4-4H52c-2.211,0-4,1.789-4,4v24c0,2.211,1.789,4,4,4h24c2.211,0,4-1.789,4-4V132z M80,180
		c0-2.211-1.789-4-4-4H52c-2.211,0-4,1.789-4,4v24c0,2.211,1.789,4,4,4h24c2.211,0,4-1.789,4-4V180z"/>
</g>
</svg>
