<?xml version="1.0" encoding="utf-8"?>
<!-- Generator: Adobe Illustrator 16.0.0, SVG Export Plug-In . SVG Version: 6.00 Build 0)  -->
<!DOCTYPE svg PUBLIC "-//W3C//DTD SVG 1.0//EN" "http://www.w3.org/TR/2001/REC-SVG-20010904/DTD/svg10.dtd">
<svg version="1.0" id="Layer_1" xmlns="http://www.w3.org/2000/svg" xmlns:xlink="http://www.w3.org/1999/xlink" x="0px" y="0px"
	 width="256px" height="256px" viewBox="0 0 256 256" enable-background="new 0 0 256 256" xml:space="preserve">
<g id="Card_3_">
	<path id="browser_12_" fill="#D6D6D6" d="M240,0H16C7.164,0,0,7.164,0,16v224c0,8.836,7.164,16,16,16h224c8.836,0,16-7.164,16-16
		V16C256,7.164,248.836,0,240,0z"/>
	<path id="screen_12_" fill="#F6F6F6" d="M232,48H24c-4.418,0-8,3.582-8,8v176c0,4.418,3.582,8,8,8h208c4.418,0,8-3.582,8-8V56
		C240,51.582,236.418,48,232,48z"/>
	<path id="actions_12_" fill="#FFFFFF" d="M32,24c0,4.418-3.582,8-8,8s-8-3.582-8-8s3.582-8,8-8S32,19.582,32,24z M56,16
		c-4.418,0-8,3.582-8,8s3.582,8,8,8s8-3.582,8-8S60.418,16,56,16z M88,16c-4.418,0-8,3.582-8,8s3.582,8,8,8s8-3.582,8-8
		S92.418,16,88,16z"/>
	<g>
		<circle fill="#999999" cx="128" cy="104" r="24"/>
		<circle fill="#F6F6F6" cx="128" cy="100" r="8"/>
		<path fill="#D6D6D6" d="M128,124c5.785,0,10.949-2.492,14.602-6.414C140.133,111.953,134.547,108,128,108
			s-12.133,3.953-14.602,9.586C117.051,121.508,122.215,124,128,124z"/>
	</g>
	<g>
		<circle fill="#999999" cx="72" cy="104" r="24"/>
		<circle fill="#F6F6F6" cx="72" cy="100" r="8"/>
		<path fill="#D6D6D6" d="M72,124c5.785,0,10.949-2.492,14.602-6.414C84.133,111.953,78.547,108,72,108s-12.133,3.953-14.602,9.586
			C61.051,121.508,66.215,124,72,124z"/>
	</g>
	<g>
		<circle fill="#999999" cx="184" cy="104" r="24"/>
		<circle fill="#F6F6F6" cx="184" cy="100" r="8"/>
		<path fill="#D6D6D6" d="M184,124c5.785,0,10.949-2.492,14.602-6.414C196.133,111.953,190.547,108,184,108
			s-12.133,3.953-14.602,9.586C173.051,121.508,178.215,124,184,124z"/>
	</g>
	<g>
		<circle fill="#999999" cx="128" cy="176" r="24"/>
		<circle fill="#F6F6F6" cx="128" cy="172" r="8"/>
		<path fill="#D6D6D6" d="M128,196c5.785,0,10.949-2.492,14.602-6.414C140.133,183.953,134.547,180,128,180
			s-12.133,3.953-14.602,9.586C117.051,193.508,122.215,196,128,196z"/>
	</g>
	<g>
		<circle fill="#999999" cx="72" cy="176" r="24"/>
		<circle fill="#F6F6F6" cx="72" cy="172" r="8"/>
		<path fill="#D6D6D6" d="M72,196c5.785,0,10.949-2.492,14.602-6.414C84.133,183.953,78.547,180,72,180s-12.133,3.953-14.602,9.586
			C61.051,193.508,66.215,196,72,196z"/>
	</g>
	<g>
		<circle fill="#999999" cx="184" cy="176" r="24"/>
		<circle fill="#F6F6F6" cx="184" cy="172" r="8"/>
		<path fill="#D6D6D6" d="M184,196c5.785,0,10.949-2.492,14.602-6.414C196.133,183.953,190.547,180,184,180
			s-12.133,3.953-14.602,9.586C173.051,193.508,178.215,196,184,196z"/>
	</g>
	<path fill="#D6D6D6" d="M96,140c0,2.211-1.789,4-4,4H52c-2.211,0-4-1.789-4-4l0,0c0-2.211,1.789-4,4-4h40
		C94.211,136,96,137.789,96,140L96,140z"/>
	<path fill="#D6D6D6" d="M152,140c0,2.211-1.789,4-4,4h-40c-2.211,0-4-1.789-4-4l0,0c0-2.211,1.789-4,4-4h40
		C150.211,136,152,137.789,152,140L152,140z"/>
	<path fill="#D6D6D6" d="M208,140c0,2.211-1.789,4-4,4h-40c-2.211,0-4-1.789-4-4l0,0c0-2.211,1.789-4,4-4h40
		C206.211,136,208,137.789,208,140L208,140z"/>
	<path fill="#D6D6D6" d="M96,212c0,2.211-1.789,4-4,4H52c-2.211,0-4-1.789-4-4l0,0c0-2.211,1.789-4,4-4h40
		C94.211,208,96,209.789,96,212L96,212z"/>
	<path fill="#D6D6D6" d="M152,212c0,2.211-1.789,4-4,4h-40c-2.211,0-4-1.789-4-4l0,0c0-2.211,1.789-4,4-4h40
		C150.211,208,152,209.789,152,212L152,212z"/>
	<path fill="#D6D6D6" d="M208,212c0,2.211-1.789,4-4,4h-40c-2.211,0-4-1.789-4-4l0,0c0-2.211,1.789-4,4-4h40
		C206.211,208,208,209.789,208,212L208,212z"/>
</g>
</svg>
