<?xml version="1.0" encoding="utf-8"?>
<!-- Generator: Adobe Illustrator 16.0.0, SVG Export Plug-In . SVG Version: 6.00 Build 0)  -->
<!DOCTYPE svg PUBLIC "-//W3C//DTD SVG 1.0//EN" "http://www.w3.org/TR/2001/REC-SVG-20010904/DTD/svg10.dtd">
<svg version="1.0" id="Layer_1" xmlns="http://www.w3.org/2000/svg" xmlns:xlink="http://www.w3.org/1999/xlink" x="0px" y="0px"
	 width="256px" height="256px" viewBox="0 0 256 256" enable-background="new 0 0 256 256" xml:space="preserve">
<g id="Card_40_">
	<path id="browser_41_" fill="#D6D6D6" d="M240,0H16C7.164,0,0,7.164,0,16v224c0,8.836,7.164,16,16,16h224c8.836,0,16-7.164,16-16
		V16C256,7.164,248.836,0,240,0z"/>
	<path id="screen_41_" fill="#F6F6F6" d="M232,48H24c-4.418,0-8,3.582-8,8v176c0,4.418,3.582,8,8,8h208c4.418,0,8-3.582,8-8V56
		C240,51.582,236.418,48,232,48z"/>
	<path id="actions_41_" fill="#FFFFFF" d="M32,24c0,4.418-3.582,8-8,8s-8-3.582-8-8s3.582-8,8-8S32,19.582,32,24z M56,16
		c-4.418,0-8,3.582-8,8s3.582,8,8,8s8-3.582,8-8S60.418,16,56,16z M88,16c-4.418,0-8,3.582-8,8s3.582,8,8,8s8-3.582,8-8
		S92.418,16,88,16z"/>
	<path fill="#999999" d="M136,84c0-2.21-1.789-4-4-4H52c-2.211,0-4,1.79-4,4l0,0c0,2.21,1.789,4,4,4h80C134.211,88,136,86.21,136,84
		L136,84z"/>
	<path id="text_13_" fill="#D6D6D6" d="M208,204c0,2.21-1.79,4-4,4h-56c-2.211,0-4-1.79-4-4l0,0c0-2.21,1.789-4,4-4h56
		C206.21,200,208,201.79,208,204L208,204z M80,108c0-2.21-1.789-4-4-4H52c-2.211,0-4,1.79-4,4l0,0c0,2.21,1.789,4,4,4h24
		C78.211,112,80,110.21,80,108L80,108z M136,156c0-2.21-1.789-4-4-4h-24c-2.211,0-4,1.79-4,4l0,0c0,2.21,1.789,4,4,4h24
		C134.211,160,136,158.21,136,156L136,156z M200,180c0-2.21-1.79-4-4-4h-16c-2.211,0-4,1.79-4,4l0,0c0,2.21,1.789,4,4,4h16
		C198.21,184,200,182.21,200,180L200,180z M168,180c0-2.21-1.789-4-4-4h-24c-2.211,0-4,1.79-4,4l0,0c0,2.21,1.789,4,4,4h24
		C166.211,184,168,182.21,168,180L168,180z M136,204c0-2.21-1.789-4-4-4h-24c-2.211,0-4,1.79-4,4l0,0c0,2.21,1.789,4,4,4h24
		C134.211,208,136,206.21,136,204L136,204z M152,108c0-2.21-1.789-4-4-4H92c-2.211,0-4,1.79-4,4l0,0c0,2.21,1.789,4,4,4h56
		C150.211,112,152,110.21,152,108L152,108z M208,156c0-2.21-1.79-4-4-4h-56c-2.211,0-4,1.79-4,4l0,0c0,2.21,1.789,4,4,4h56
		C206.21,160,208,158.21,208,156L208,156z M128,180c0-2.21-1.789-4-4-4H52c-2.211,0-4,1.79-4,4l0,0c0,2.21,1.789,4,4,4h72
		C126.211,184,128,182.21,128,180L128,180z M200,132c0-2.21-1.79-4-4-4h-48c-2.211,0-4,1.79-4,4l0,0c0,2.21,1.789,4,4,4h48
		C198.21,136,200,134.21,200,132L200,132z M208,108c0-2.21-1.79-4-4-4h-40c-2.211,0-4,1.79-4,4l0,0c0,2.21,1.789,4,4,4h40
		C206.21,112,208,110.21,208,108L208,108z M96,204c0-2.21-1.789-4-4-4H52c-2.211,0-4,1.79-4,4l0,0c0,2.21,1.789,4,4,4h40
		C94.211,208,96,206.21,96,204L96,204z M136,132c0-2.21-1.789-4-4-4H52c-2.211,0-4,1.79-4,4l0,0c0,2.21,1.789,4,4,4h80
		C134.211,136,136,134.21,136,132L136,132z M96,156c0-2.21-1.789-4-4-4H52c-2.211,0-4,1.79-4,4l0,0c0,2.21,1.789,4,4,4h40
		C94.211,160,96,158.21,96,156L96,156z"/>
</g>
</svg>
