<?xml version="1.0" encoding="iso-8859-1"?>
<!-- Generator: Adobe Illustrator 19.0.0, SVG Export Plug-In . SVG Version: 6.00 Build 0)  -->
<svg version="1.1" id="Layer_1" xmlns="http://www.w3.org/2000/svg" xmlns:xlink="http://www.w3.org/1999/xlink" x="0px" y="0px"
	 viewBox="0 0 512 512" style="enable-background:new 0 0 512 512;" xml:space="preserve">
<g>
	<g>
		<rect y="66.783" width="33.391" height="166.957"/>
	</g>
</g>
<g>
	<g>
		<rect x="33.391" y="233.739" width="33.391" height="33.391"/>
	</g>
</g>
<g>
	<g>
		<rect x="33.391" y="33.391" width="33.391" height="33.391"/>
	</g>
</g>
<g>
	<g>
		<rect x="66.783" y="100.174" width="33.391" height="100.173"/>
	</g>
</g>
<g>
	<g>
		<polygon points="66.783,0 66.783,33.391 478.609,33.391 478.609,66.778 411.826,66.778 411.826,478.614 378.435,478.614 
			378.435,100.176 378.436,100.176 378.436,66.778 278.259,66.778 278.259,478.614 244.87,478.614 244.87,267.135 244.87,267.13 
			66.783,267.13 66.783,300.527 211.477,300.527 211.477,512 311.653,512 311.653,100.176 345.043,100.176 345.043,478.614 
			345.043,512 445.217,512 445.217,100.176 512,100.176 512,0 		"/>
	</g>
</g>
<g>
	<g>
		<polygon points="100.174,66.778 100.174,100.176 211.477,100.176 211.477,200.35 100.174,200.35 100.174,233.739 244.87,233.739 
			244.87,66.778 		"/>
	</g>
</g>
<g>
</g>
<g>
</g>
<g>
</g>
<g>
</g>
<g>
</g>
<g>
</g>
<g>
</g>
<g>
</g>
<g>
</g>
<g>
</g>
<g>
</g>
<g>
</g>
<g>
</g>
<g>
</g>
<g>
</g>
</svg>
