<?xml version="1.0" encoding="iso-8859-1"?>
<!-- Generator: Adobe Illustrator 19.0.0, SVG Export Plug-In . SVG Version: 6.00 Build 0)  -->
<svg version="1.1" id="Layer_1" xmlns="http://www.w3.org/2000/svg" xmlns:xlink="http://www.w3.org/1999/xlink" x="0px" y="0px"
	 viewBox="0 0 512 512" style="enable-background:new 0 0 512 512;" xml:space="preserve">
<g>
	<g>
		<polygon points="200.348,0 200.348,122.435 256,122.435 256,155.826 289.391,155.826 289.391,89.044 233.739,89.044 
			233.739,33.391 445.217,33.391 445.217,89.044 356.174,89.044 356.174,155.826 389.565,155.826 389.565,122.435 478.609,122.435 
			478.609,0 		"/>
	</g>
</g>
<g>
	<g>
		<rect x="222.609" y="155.826" width="33.391" height="66.783"/>
	</g>
</g>
<g>
	<g>
		<rect x="189.217" y="222.609" width="33.391" height="66.783"/>
	</g>
</g>
<g>
	<g>
		<rect x="155.826" y="289.391" width="33.391" height="66.783"/>
	</g>
</g>
<g>
	<g>
		<rect x="322.783" y="155.826" width="33.391" height="66.783"/>
	</g>
</g>
<g>
	<g>
		<rect x="289.391" y="222.609" width="33.391" height="66.783"/>
	</g>
</g>
<g>
	<g>
		<rect x="256" y="289.391" width="33.391" height="66.783"/>
	</g>
</g>
<g>
	<g>
		<polygon points="256,389.565 256,356.174 222.609,356.174 222.609,422.957 278.261,422.957 278.261,478.609 66.783,478.609 
			66.783,422.957 155.826,422.957 155.826,356.174 122.435,356.174 122.435,389.565 33.391,389.565 33.391,512 311.652,512 
			311.652,389.565 		"/>
	</g>
</g>
<g>
</g>
<g>
</g>
<g>
</g>
<g>
</g>
<g>
</g>
<g>
</g>
<g>
</g>
<g>
</g>
<g>
</g>
<g>
</g>
<g>
</g>
<g>
</g>
<g>
</g>
<g>
</g>
<g>
</g>
</svg>
