<svg width="25" height="25" viewBox="0 0 25 25" fill="none" xmlns="http://www.w3.org/2000/svg">
<rect x="0.0649414" y="0.0649414" width="24" height="24" fill="white" fill-opacity="0.01"/>
<path d="M9.00635 11.854L9.23877 12.4341L9.47119 11.854H9.59277V12.5649H9.49902V12.2881L9.50781 11.9893L9.27441 12.5649H9.20264L8.96973 11.9907L8.979 12.2881V12.5649H8.88525V11.854H9.00635ZM9.84229 12.5649H9.75195V12.0366H9.84229V12.5649ZM9.74463 11.8965C9.74463 11.8818 9.74902 11.8695 9.75781 11.8594C9.76693 11.8493 9.78027 11.8442 9.79785 11.8442C9.81543 11.8442 9.82878 11.8493 9.83789 11.8594C9.84701 11.8695 9.85156 11.8818 9.85156 11.8965C9.85156 11.9111 9.84701 11.9233 9.83789 11.9331C9.82878 11.9429 9.81543 11.9478 9.79785 11.9478C9.78027 11.9478 9.76693 11.9429 9.75781 11.9331C9.74902 11.9233 9.74463 11.9111 9.74463 11.8965ZM10.0728 12.0366L10.0757 12.103C10.116 12.0522 10.1688 12.0269 10.2339 12.0269C10.3455 12.0269 10.4019 12.0898 10.4028 12.2158V12.5649H10.3125V12.2153C10.3122 12.1772 10.3034 12.1491 10.2861 12.1309C10.2692 12.1126 10.2427 12.1035 10.2065 12.1035C10.1772 12.1035 10.1515 12.1113 10.1294 12.127C10.1073 12.1426 10.09 12.1631 10.0776 12.1885V12.5649H9.9873V12.0366H10.0728ZM10.5176 12.2964C10.5176 12.214 10.5366 12.1486 10.5747 12.1001C10.6128 12.0513 10.6632 12.0269 10.7261 12.0269C10.7905 12.0269 10.8408 12.0496 10.877 12.0952L10.8813 12.0366H10.9639V12.5522C10.9639 12.6206 10.9435 12.6745 10.9028 12.7139C10.8625 12.7533 10.8081 12.7729 10.7397 12.7729C10.7017 12.7729 10.6644 12.7648 10.6279 12.7485C10.5915 12.7323 10.5636 12.71 10.5444 12.6816L10.5913 12.6274C10.63 12.6753 10.6774 12.6992 10.7334 12.6992C10.7773 12.6992 10.8115 12.6868 10.8359 12.6621C10.8607 12.6374 10.873 12.6025 10.873 12.5576V12.5122C10.8369 12.5539 10.7876 12.5747 10.7251 12.5747C10.6632 12.5747 10.6131 12.5498 10.5747 12.5C10.5366 12.4502 10.5176 12.3823 10.5176 12.2964ZM10.6084 12.3066C10.6084 12.3662 10.6206 12.4131 10.645 12.4473C10.6694 12.4811 10.7036 12.498 10.7476 12.498C10.8045 12.498 10.8464 12.4722 10.873 12.4204V12.1792C10.8454 12.1287 10.8039 12.1035 10.7485 12.1035C10.7046 12.1035 10.6702 12.1206 10.6455 12.1548C10.6208 12.189 10.6084 12.2396 10.6084 12.3066ZM11.6377 12.3394C11.6289 12.4146 11.6011 12.4727 11.5542 12.5137C11.5076 12.5544 11.4456 12.5747 11.3682 12.5747C11.2842 12.5747 11.2168 12.5446 11.166 12.4844C11.1156 12.4242 11.0903 12.3436 11.0903 12.2427V12.1743C11.0903 12.1082 11.1021 12.0501 11.1255 12C11.1493 11.9499 11.1828 11.9115 11.2261 11.8848C11.2694 11.8577 11.3195 11.8442 11.3765 11.8442C11.452 11.8442 11.5125 11.8654 11.5581 11.9077C11.6037 11.9497 11.6302 12.008 11.6377 12.0825H11.5435C11.5353 12.0259 11.5176 11.9849 11.4902 11.9595C11.4632 11.9341 11.4253 11.9214 11.3765 11.9214C11.3166 11.9214 11.2695 11.9435 11.2354 11.9878C11.2015 12.0321 11.1846 12.0951 11.1846 12.1768V12.2456C11.1846 12.3228 11.2007 12.3841 11.2329 12.4297C11.2651 12.4753 11.3102 12.498 11.3682 12.498C11.4202 12.498 11.4601 12.4863 11.4878 12.4629C11.5158 12.4391 11.5343 12.3979 11.5435 12.3394H11.6377ZM12.0781 12.5127C12.043 12.554 11.9914 12.5747 11.9233 12.5747C11.867 12.5747 11.8241 12.5584 11.7944 12.5259C11.7651 12.493 11.7503 12.4445 11.75 12.3804V12.0366H11.8403V12.3779C11.8403 12.458 11.8729 12.498 11.938 12.498C12.007 12.498 12.0529 12.4723 12.0757 12.4209V12.0366H12.166V12.5649H12.0801L12.0781 12.5127ZM12.4263 11.9087V12.0366H12.5249V12.1064H12.4263V12.4341C12.4263 12.4552 12.4307 12.4712 12.4395 12.4819C12.4482 12.4924 12.4632 12.4976 12.4844 12.4976C12.4948 12.4976 12.5091 12.4956 12.5273 12.4917V12.5649C12.5036 12.5715 12.4805 12.5747 12.458 12.5747C12.4176 12.5747 12.3872 12.5625 12.3667 12.5381C12.3462 12.5137 12.3359 12.479 12.3359 12.4341V12.1064H12.2397V12.0366H12.3359V11.9087H12.4263ZM12.8501 12.5747C12.7785 12.5747 12.7202 12.5513 12.6753 12.5044C12.6304 12.4572 12.6079 12.3942 12.6079 12.3154V12.2988C12.6079 12.2464 12.6178 12.1997 12.6377 12.1587C12.6579 12.1174 12.6859 12.0851 12.7217 12.062C12.7578 12.0386 12.7969 12.0269 12.8389 12.0269C12.9076 12.0269 12.9609 12.0495 12.999 12.0947C13.0371 12.14 13.0562 12.2048 13.0562 12.2891V12.3267H12.6982C12.6995 12.3787 12.7147 12.4209 12.7437 12.4531C12.7729 12.485 12.8101 12.501 12.855 12.501C12.8869 12.501 12.9139 12.4945 12.936 12.4814C12.9582 12.4684 12.9775 12.4512 12.9941 12.4297L13.0493 12.4727C13.005 12.5407 12.9386 12.5747 12.8501 12.5747ZM12.8389 12.1011C12.8024 12.1011 12.7718 12.1144 12.7471 12.1411C12.7223 12.1675 12.707 12.2046 12.7012 12.2524H12.9658V12.2456C12.9632 12.1997 12.9508 12.1642 12.9287 12.1392C12.9066 12.1138 12.8766 12.1011 12.8389 12.1011ZM13.1631 12.5176C13.1631 12.502 13.1676 12.4889 13.1768 12.4785C13.1862 12.4681 13.2002 12.4629 13.2188 12.4629C13.2373 12.4629 13.2513 12.4681 13.2607 12.4785C13.2705 12.4889 13.2754 12.502 13.2754 12.5176C13.2754 12.5326 13.2705 12.5451 13.2607 12.5552C13.2513 12.5653 13.2373 12.5703 13.2188 12.5703C13.2002 12.5703 13.1862 12.5653 13.1768 12.5552C13.1676 12.5451 13.1631 12.5326 13.1631 12.5176ZM13.6367 12.501C13.6689 12.501 13.6971 12.4912 13.7212 12.4717C13.7453 12.4521 13.7586 12.4277 13.7612 12.3984H13.8467C13.8451 12.4287 13.8346 12.4575 13.8154 12.4849C13.7962 12.5122 13.7705 12.534 13.7383 12.5503C13.7064 12.5666 13.6725 12.5747 13.6367 12.5747C13.5648 12.5747 13.5075 12.5508 13.4648 12.5029C13.4225 12.4548 13.4014 12.389 13.4014 12.3057V12.2905C13.4014 12.2391 13.4108 12.1934 13.4297 12.1533C13.4486 12.1133 13.4756 12.0822 13.5107 12.0601C13.5462 12.0379 13.5881 12.0269 13.6362 12.0269C13.6955 12.0269 13.7446 12.0446 13.7837 12.0801C13.8231 12.1156 13.8441 12.1616 13.8467 12.2183H13.7612C13.7586 12.1841 13.7456 12.1561 13.7222 12.1343C13.6991 12.1121 13.6704 12.1011 13.6362 12.1011C13.5903 12.1011 13.5547 12.1177 13.5293 12.1509C13.5042 12.1838 13.4917 12.2314 13.4917 12.2939V12.311C13.4917 12.3719 13.5042 12.4188 13.5293 12.4517C13.5544 12.4845 13.5902 12.501 13.6367 12.501ZM13.9243 12.2959C13.9243 12.2441 13.9344 12.1976 13.9546 12.1562C13.9751 12.1149 14.0034 12.083 14.0396 12.0605C14.076 12.0381 14.1175 12.0269 14.1641 12.0269C14.236 12.0269 14.2941 12.0518 14.3384 12.1016C14.383 12.1514 14.4053 12.2176 14.4053 12.3003V12.3066C14.4053 12.3581 14.3953 12.4043 14.3755 12.4453C14.356 12.486 14.3278 12.5177 14.291 12.5405C14.2546 12.5633 14.2126 12.5747 14.165 12.5747C14.0934 12.5747 14.0353 12.5498 13.9907 12.5C13.9465 12.4502 13.9243 12.3843 13.9243 12.3022V12.2959ZM14.0151 12.3066C14.0151 12.3652 14.0286 12.4123 14.0557 12.4478C14.083 12.4832 14.1195 12.501 14.165 12.501C14.2109 12.501 14.2474 12.4831 14.2744 12.4473C14.3014 12.4111 14.3149 12.3607 14.3149 12.2959C14.3149 12.238 14.3011 12.1911 14.2734 12.1553C14.2461 12.1191 14.2096 12.1011 14.1641 12.1011C14.1195 12.1011 14.0835 12.1188 14.0562 12.1543C14.0288 12.1898 14.0151 12.2406 14.0151 12.3066ZM14.6035 12.0366L14.606 12.0952C14.6447 12.0496 14.6969 12.0269 14.7627 12.0269C14.8366 12.0269 14.8869 12.0552 14.9136 12.1118C14.9312 12.0864 14.9539 12.0659 14.9819 12.0503C15.0103 12.0347 15.0436 12.0269 15.082 12.0269C15.1979 12.0269 15.2568 12.0882 15.2588 12.2109V12.5649H15.1685V12.2163C15.1685 12.1785 15.1598 12.1504 15.1426 12.1318C15.1253 12.113 15.0964 12.1035 15.0557 12.1035C15.0221 12.1035 14.9943 12.1136 14.9722 12.1338C14.95 12.1536 14.9372 12.1805 14.9336 12.2144V12.5649H14.8428V12.2188C14.8428 12.1419 14.8052 12.1035 14.73 12.1035C14.6707 12.1035 14.6302 12.1287 14.6084 12.1792V12.5649H14.5181V12.0366H14.6035Z" fill="#F2F4F6"/>
<path d="M0.0649414 0.0649414H24.0649M0.0649414 0.0649414V24.0649M0.0649414 0.0649414L24.0649 24.0649M24.0649 0.0649414V24.0649M24.0649 0.0649414L0.0649414 24.0649M24.0649 24.0649H0.0649414" stroke="#DADEE4" stroke-width="0.13"/>
<circle cx="12.0649" cy="12.0649" r="10" stroke="#DADEE4" stroke-width="0.13"/>
<rect x="2.06494" y="4.06494" width="20" height="16" rx="1" stroke="#DADEE4" stroke-width="0.13"/>
<rect x="4.06494" y="2.06494" width="16" height="20" rx="1" stroke="#DADEE4" stroke-width="0.13"/>
<rect x="3.06494" y="3.06494" width="18" height="18" rx="1" stroke="#DADEE4" stroke-width="0.13"/>
<circle cx="12.0649" cy="12.0649" r="4" stroke="#DADEE4" stroke-width="0.13"/>
<path fill-rule="evenodd" clip-rule="evenodd" d="M4.06489 6.47915C2.80496 5.21922 3.69731 3.06494 5.47911 3.06494H18.6507C20.4325 3.06494 21.3248 5.21923 20.0649 6.47916L13.0649 13.4791V19.0649H15.0649C15.6172 19.0649 16.0649 19.5127 16.0649 20.0649C16.0649 20.6172 15.6172 21.0649 15.0649 21.0649H12.0649H9.06488C8.51259 21.0649 8.06488 20.6172 8.06488 20.0649C8.06488 19.5127 8.51259 19.0649 9.06488 19.0649H11.0649V13.4792L4.06489 6.47915ZM5.47911 5.06494L12.0649 11.6507L18.6507 5.06494H5.47911Z" fill="#09244B"/>
</svg>
