<svg xmlns="http://www.w3.org/2000/svg" width="22" height="29" fill="none" viewBox="0 0 22 29">
  <g filter="url(#a)">
    <mask id="b" width="17" height="24" x="1.5" y="1.5" fill="#000" maskUnits="userSpaceOnUse">
      <path fill="#fff" d="M1.5 1.5h17v24h-17z"/>
      <path d="M8.5 14.5h-1v-1h1v1Zm4 0h-1v-1h1v1Zm-5-1h-1v-1h1v1Zm3 0h-1v-2h1v2Zm3 0h-1v-2h1v2Zm-7-1h-1v-2h1v2Zm3-1h-1v-1h-1v-1h1v-5h1v7Zm5 0h-1v-2h1v2Zm-9-1h-1v-1h1v1Zm6 0h-1v-1h1v1Zm-7-1h-1v-2h1v2Zm3 0h-1v-2h1v2Zm4-2h1v2h-1v-1h-1v-4h1v3Zm4 2h-1v-1h1v1Zm1-1h-1v-1h1v1Zm-10-1h-2v-1h2v1Zm7 0h-1v-1h1v1Zm2 0h-1v-1h1v1Zm-1-1h-1v-1h1v1Zm-4-2h-1v-1h1v1Z"/>
      <path fill-rule="evenodd" d="M12.5 19.5h1v2h-1v1h-1v1h-3v-1h-1v-5h1v-3h1v2h1v-2h1v3h1v2Zm-2-1v2h-1v1h1v-1h1v-2h-1Z" clip-rule="evenodd"/>
    </mask>
    <path fill="#fff" d="M8.5 14.5h-1v-1h1v1Zm4 0h-1v-1h1v1Zm-5-1h-1v-1h1v1Zm3 0h-1v-2h1v2Zm3 0h-1v-2h1v2Zm-7-1h-1v-2h1v2Zm3-1h-1v-1h-1v-1h1v-5h1v7Zm5 0h-1v-2h1v2Zm-9-1h-1v-1h1v1Zm6 0h-1v-1h1v1Zm-7-1h-1v-2h1v2Zm3 0h-1v-2h1v2Zm4-2h1v2h-1v-1h-1v-4h1v3Zm4 2h-1v-1h1v1Zm1-1h-1v-1h1v1Zm-10-1h-2v-1h2v1Zm7 0h-1v-1h1v1Zm2 0h-1v-1h1v1Zm-1-1h-1v-1h1v1Zm-4-2h-1v-1h1v1Z"/>
    <path fill="#fff" fill-rule="evenodd" d="M12.5 19.5h1v2h-1v1h-1v1h-3v-1h-1v-5h1v-3h1v2h1v-2h1v3h1v2Zm-2-1v2h-1v1h1v-1h1v-2h-1Z" clip-rule="evenodd"/>
    <path fill="#000" d="M10.5 18.5v-2h-2v2h2Zm-1 2v-2h-2v2h2Zm0 1h-2v2h2v-2Zm1 0v2h2v-2h-2Zm1-1v2h2v-2h-2Zm0-2h2v-2h-2v2Zm-4-4h-2v2h2v-2Zm1-1h2v-2h-2v2Zm4 1v2h2v-2h-2Zm-1-1v-2h-2v2h2Zm-5 0h-2v2h2v-2Zm1-1h2v-2h-2v2Zm3 1v2h2v-2h-2Zm-1 0h-2v2h2v-2Zm1-2h2v-2h-2v2Zm3 2v2h2v-2h-2Zm-1-2v-2h-2v2h2Zm-7 1h-2v2h2v-2Zm1-2h2v-2h-2v2Zm2 1h-2v2h2v-2Zm0-1h2v-2h-2v2Zm-1 0h-2v2h2v-2Zm1-1v2h2v-2h-2Zm0-5v-2h-2v2h2Zm6 7v2h2v-2h-2Zm-1-2v-2h-2v2h2Zm-9 1h-2v2h2v-2Zm1-1h2v-2h-2v2Zm6 1v2h2v-2h-2Zm-1 0h-2v2h2v-2Zm0-1v-2h-2v2h2Zm-7 0h-2v2h2v-2Zm0-2v-2h-2v2h2Zm3 2h-2v2h2v-2Zm1-2h2v-2h-2v2Zm4 0h-2v2h2v-2Zm1 2v2h2v-2h-2Zm-1-1h2v-2h-2v2Zm-1 0h-2v2h2v-2Zm1-4h2v-2h-2v2Zm4 5v2h2v-2h-2Zm-1-1v-2h-2v2h2Zm2 0v2h2v-2h-2Zm0-1h2v-2h-2v2Zm-12-1v-2h-2v2h2Zm2 0h2v-2h-2v2Zm7 1v2h2v-2h-2Zm-1-1v-2h-2v2h2Zm2 1h-2v2h2v-2Zm1-1h2v-2h-2v2Zm-2-1v-2h-2v2h2Zm1 0h2v-2h-2v2Zm-5-2v-2h-2v2h2Zm1 0h2v-2h-2v2Zm2 16h-2v2h2v-2Zm1 0h2v-2h-2v2Zm0 2v2h2v-2h-2Zm-1 0v-2h-2v2h2Zm0 1v2h2v-2h-2Zm-1 0v-2h-2v2h2Zm0 1v2h2v-2h-2Zm-3 0h-2v2h2v-2Zm0-1h2v-2h-2v2Zm-1 0h-2v2h2v-2Zm0-5v-2h-2v2h2Zm1 0v2h2v-2h-2Zm1-3h2v-2h-2v2Zm0 2h-2v2h2v-2Zm1 0v2h2v-2h-2Zm0-2v-2h-2v2h2Zm1 3h-2v2h2v-2Zm1 0h2v-2h-2v2Zm-2 1h-2v2h4v-2h-2Zm0 2v-2h-1v4h1v-2Zm-1 0h-2v1h4v-1h-2Zm0 1v2h1v-4h-1v2Zm1 0h2v-1h-4v1h2Zm0-1v2h1v-4h-1v2Zm1 0h2v-2h-4v2h2Zm0-2v-2h-1v4h1v-2Zm-3-4v-2h-1v4h1v-2Zm-1 0h2v-1h-4v1h2Zm0-1v2h1v-4h-1v2Zm1 0h-2v1h4v-1h-2Zm4 1v-2h-1v4h1v-2Zm-1 0h2v-1h-4v1h2Zm0-1v2h1v-4h-1v2Zm1 0h-2v1h4v-1h-2Zm-5 0v-2h-1v4h1v-2Zm-1 0h2v-1h-4v1h2Zm0-1v2h1v-4h-1v2Zm1 0h-2v1h4v-1h-2Zm3 1v-2h-1v4h1v-2Zm-1 0h2v-2h-4v2h2Zm0-2v2h1v-4h-1v2Zm1 0h-2v2h4v-2h-2Zm3 2v-2h-1v4h1v-2Zm-1 0h2v-2h-4v2h2Zm0-2v2h1v-4h-1v2Zm1 0h-2v2h4v-2h-2Zm-7 1v-2h-1v4h1v-2Zm-1 0h2v-2h-4v2h2Zm0-2v2h1v-4h-1v2Zm1 0h-2v2h4v-2h-2Zm3 1v-2h-1v4h1v-2Zm-1 0h2v-1h-4v1h2Zm0-1v-2h-1v4h1v-2Zm-1 0h2v-1h-4v1h2Zm0-1v2h1v-4h-1v2Zm1 0h2v-5h-4v5h2Zm0-5v2h1v-4h-1v2Zm1 0h-2v7h4v-7h-2Zm5 7v-2h-1v4h1v-2Zm-1 0h2v-2h-4v2h2Zm0-2v2h1v-4h-1v2Zm1 0h-2v2h4v-2h-2Zm-9 1v-2h-1v4h1v-2Zm-1 0h2v-1h-4v1h2Zm0-1v2h1v-4h-1v2Zm1 0h-2v1h4v-1h-2Zm6 1v-2h-1v4h1v-2Zm-1 0h2v-1h-4v1h2Zm0-1v2h1v-4h-1v2Zm1 0h-2v1h4v-1h-2Zm-7 0v-2h-1v4h1v-2Zm-1 0h2v-2h-4v2h2Zm0-2v2h1v-4h-1v2Zm1 0h-2v2h4v-2h-2Zm3 2v-2h-1v4h1v-2Zm-1 0h2v-2h-4v2h2Zm0-2v2h1v-4h-1v2Zm1 0h-2v2h4v-2h-2Zm4 0v2h1v-4h-1v2Zm1 0h-2v2h4v-2h-2Zm0 2v-2h-1v4h1v-2Zm-1 0h2v-1h-4v1h2Zm0-1v-2h-1v4h1v-2Zm-1 0h2v-4h-4v4h2Zm0-4v2h1v-4h-1v2Zm1 0h-2v3h4v-3h-2Zm4 5v-2h-1v4h1v-2Zm-1 0h2v-1h-4v1h2Zm0-1v2h1v-4h-1v2Zm1 0h-2v1h4v-1h-2Zm1 0v-2h-1v4h1v-2Zm-1 0h2v-1h-4v1h2Zm0-1v2h1v-4h-1v2Zm1 0h-2v1h4v-1h-2Zm-10 0v-2h-2v4h2v-2Zm-2 0h2v-1h-4v1h2Zm0-1v2h2v-4h-2v2Zm2 0h-2v1h4v-1h-2Zm7 1v-2h-1v4h1v-2Zm-1 0h2v-1h-4v1h2Zm0-1v2h1v-4h-1v2Zm1 0h-2v1h4v-1h-2Zm2 1v-2h-1v4h1v-2Zm-1 0h2v-1h-4v1h2Zm0-1v2h1v-4h-1v2Zm1 0h-2v1h4v-1h-2Zm-1 0v-2h-1v4h1v-2Zm-1 0h2v-1h-4v1h2Zm0-1v2h1v-4h-1v2Zm1 0h-2v1h4v-1h-2Zm-4-1v-2h-1v4h1v-2Zm-1 0h2v-1h-4v1h2Zm0-1v2h1v-4h-1v2Zm1 0h-2v1h4v-1h-2Zm2 16v2h1v-4h-1v2Zm1 0h-2v2h4v-2h-2Zm0 2v-2h-1v4h1v-2Zm-1 0h-2v1h4v-1h-2Zm0 1v-2h-1v4h1v-2Zm-1 0h-2v1h4v-1h-2Zm0 1v-2h-3v4h3v-2Zm-3 0h2v-1h-4v1h2Zm0-1v-2h-1v4h1v-2Zm-1 0h2v-5h-4v5h2Zm0-5v2h1v-4h-1v2Zm1 0h2v-3h-4v3h2Zm0-3v2h1v-4h-1v2Zm1 0h-2v2h4v-2h-2Zm0 2v2h1v-4h-1v2Zm1 0h2v-2h-4v2h2Zm0-2v2h1v-4h-1v2Zm1 0h-2v3h4v-3h-2Zm0 3v2h1v-4h-1v2Zm1 0h-2v2h4v-2h-2Z" mask="url(#b)"/>
  </g>
  <defs>
    <filter id="a" width="22" height="29" x="0" y="0" color-interpolation-filters="sRGB" filterUnits="userSpaceOnUse">
      <feFlood flood-opacity="0" result="BackgroundImageFix"/>
      <feColorMatrix in="SourceAlpha" result="hardAlpha" values="0 0 0 0 0 0 0 0 0 0 0 0 0 0 0 0 0 0 127 0"/>
      <feOffset dx="1" dy="1"/>
      <feGaussianBlur stdDeviation="1.25"/>
      <feComposite in2="hardAlpha" operator="out"/>
      <feColorMatrix values="0 0 0 0 0 0 0 0 0 0 0 0 0 0 0 0 0 0 0.24 0"/>
      <feBlend in2="BackgroundImageFix" result="effect1_dropShadow_1_4346"/>
      <feBlend in="SourceGraphic" in2="effect1_dropShadow_1_4346" result="shape"/>
    </filter>
  </defs>
</svg>
