<svg width="25" height="25" viewBox="0 0 25 25" fill="none" xmlns="http://www.w3.org/2000/svg">
<rect x="0.0650024" y="0.0649414" width="24" height="24" fill="white" fill-opacity="0.01"/>
<path d="M0.0650024 0.0649414H24.065M0.0650024 0.0649414V24.0649M0.0650024 0.0649414L24.065 24.0649M24.065 0.0649414V24.0649M24.065 0.0649414L0.0650024 24.0649M24.065 24.0649H0.0650024" stroke="#DADEE4" stroke-width="0.13"/>
<circle cx="12.065" cy="12.0649" r="10" stroke="#DADEE4" stroke-width="0.13"/>
<rect x="2.065" y="4.06494" width="20" height="16" rx="1" stroke="#DADEE4" stroke-width="0.13"/>
<rect x="4.065" y="2.06494" width="16" height="20" rx="1" stroke="#DADEE4" stroke-width="0.13"/>
<rect x="3.065" y="3.06494" width="18" height="18" rx="1" stroke="#DADEE4" stroke-width="0.13"/>
<circle cx="12.065" cy="12.0649" r="4" stroke="#DADEE4" stroke-width="0.13"/>
<path fill-rule="evenodd" clip-rule="evenodd" d="M7.065 2.06494C5.96043 2.06494 5.065 2.96037 5.065 4.06494V20.0649C5.065 21.1695 5.96043 22.0649 7.065 22.0649H17.065C18.1696 22.0649 19.065 21.1695 19.065 20.0649V4.06494C19.065 2.96037 18.1696 2.06494 17.065 2.06494H7.065ZM11.565 16.0649C11.2889 16.0649 11.065 16.2888 11.065 16.5649V17.5649C11.065 17.8411 11.2889 18.0649 11.565 18.0649H12.565C12.8411 18.0649 13.065 17.8411 13.065 17.5649V16.5649C13.065 16.2888 12.8411 16.0649 12.565 16.0649H11.565Z" fill="#09244B"/>
</svg>
