<svg width="25" height="25" viewBox="0 0 25 25" fill="none" xmlns="http://www.w3.org/2000/svg">
<rect x="0.0649414" y="0.0649414" width="24" height="24" fill="white" fill-opacity="0.01"/>
<path d="M0.0649414 0.0649414H24.0649M0.0649414 0.0649414V24.0649M0.0649414 0.0649414L24.0649 24.0649M24.0649 0.0649414V24.0649M24.0649 0.0649414L0.0649414 24.0649M24.0649 24.0649H0.0649414" stroke="#DADEE4" stroke-width="0.13"/>
<circle cx="12.0649" cy="12.0649" r="10" stroke="#DADEE4" stroke-width="0.13"/>
<rect x="2.06494" y="4.06494" width="20" height="16" rx="1" stroke="#DADEE4" stroke-width="0.13"/>
<rect x="4.06494" y="2.06494" width="16" height="20" rx="1" stroke="#DADEE4" stroke-width="0.13"/>
<rect x="3.06494" y="3.06494" width="18" height="18" rx="1" stroke="#DADEE4" stroke-width="0.13"/>
<circle cx="12.0649" cy="12.0649" r="4" stroke="#DADEE4" stroke-width="0.13"/>
<path d="M4.06494 4.06494C2.96037 4.06494 2.06494 4.96037 2.06494 6.06494V16.0649C2.06494 17.1695 2.96037 18.0649 4.06494 18.0649H20.0649C21.1695 18.0649 22.0649 17.1695 22.0649 16.0649V6.06494C22.0649 4.96037 21.1695 4.06494 20.0649 4.06494H4.06494Z" fill="#09244B"/>
<path d="M8.06494 19.0649C7.51266 19.0649 7.06494 19.5127 7.06494 20.0649C7.06494 20.6172 7.51266 21.0649 8.06494 21.0649H16.0649C16.6172 21.0649 17.0649 20.6172 17.0649 20.0649C17.0649 19.5127 16.6172 19.0649 16.0649 19.0649H8.06494Z" fill="#09244B"/>
</svg>
