<svg xmlns="http://www.w3.org/2000/svg" width="32" height="32" fill="none" viewBox="0 0 32 32">
  <g clip-path="url(#a)">
    <path fill="#000001" d="M32 19.81h-3.05v3.05H32v-3.05Zm0 9.15h-3.05V32H32v-3.04Zm0-4.57h-7.62v3.04H32v-3.04ZM30.48 9.15h-1.53v1.52h1.53V9.15Zm-3.05 6.09h1.52v-4.57H25.9v1.52h1.53v3.05Zm0 0H25.9v1.53h1.53v-1.53Zm0 13.72h-7.62V32h7.62v-3.04ZM25.9 12.19h-1.52v1.53h1.52v-1.53Zm0-7.61h1.53V3.05h-4.57v1.53h1.52v4.57h1.52V4.58Zm0 12.19h-3.04v1.52h3.04v-1.52Zm-1.52-7.62h-1.52v3.04h1.52V9.15Zm-1.52-4.57h-1.53V6.1h1.53V4.58Zm0 19.81h-9.15v3.04h9.15v-3.04Zm4.57-4.58h-9.14v3.05h9.14v-3.05Zm-6.1-10.66h-1.52v1.52h1.52V9.15Zm0-3.05h-1.52v1.52h1.52V6.1Zm-1.52-1.52h-1.52V6.1h1.52V4.58Z"/>
    <path fill="#000001" d="M16.76 7.62v1.53h-1.52v1.52h-1.53v1.52h1.53v1.53h-1.53v-1.53h-3.04v1.53h1.52v3.05h1.52v1.52h6.1v-1.52h1.52v-4.58h-1.52v-1.52h-1.52v1.52h-1.53v-1.52h1.53V7.62h-1.53Zm1.53 6.1h1.52v1.52h-1.52v-1.52Zm-1.53 3.05h-1.52v-1.53h1.52v1.53Zm3.05-15.24V0h-4.57v1.53h1.52v3.05h1.53V1.53h1.52Zm-1.52 27.43H9.14V32h9.15v-3.04Zm-1.53-9.15H7.62v3.05h9.14v-3.05ZM15.24 1.53h-1.53V6.1h1.53V1.53ZM13.71 6.1h-1.52v1.52h1.52V6.1Zm-1.52-1.52h-1.52V6.1h1.52V4.58Zm0 19.81H4.57v3.04h7.62v-3.04ZM10.67 6.1H9.14v4.57h1.53V6.1Zm0-3.05H9.14v1.53h1.53V3.05Zm0 13.72H7.62v1.52h3.05v-1.52Zm-1.53-6.1H7.62v1.52h1.52v-1.52Zm0-6.09H7.62V6.1h1.52V4.58ZM7.62 15.24H6.1v1.53h1.52v-1.53Zm0 13.72H0V32h7.62v-3.04ZM3.05 9.15v1.52h1.52v4.57H6.1v-4.57h1.52V9.15H3.05Zm0 15.24H0v3.04h3.05v-3.04Zm3.05-4.58H0v3.05h6.1v-3.05ZM3.05 7.62H1.52v1.53h1.53V7.62Z"/>
  </g>
  <defs>
    <clipPath id="a">
      <path fill="#fff" d="M0 0h32v32H0z"/>
    </clipPath>
  </defs>
</svg>
