<svg xmlns="http://www.w3.org/2000/svg" width="32" height="32" fill="none" viewBox="0 0 32 32">
  <g clip-path="url(#a)">
    <path fill="#000001" d="M10.67 18.28v7.62h4.57V32h1.52v-6.1h9.15V32h1.52v-6.1H32v-7.62H10.67Zm6.09 4.58h-1.52v1.52h-3.05v-1.52h1.53v-1.53h1.52v-1.52h3.05v1.52h-1.53v1.53Zm6.1 0h-1.53v1.52h-3.04v-1.52h1.52v-1.53h1.52v-1.52h3.05v1.52h-1.52v1.53Zm7.62-1.53h-1.53v1.53h-1.52v1.52h-3.05v-1.52h1.53v-1.53h1.52v-1.52h3.05v1.52Zm-7.62-9.14h-1.53v1.52h1.53v-1.52Zm0-3.05h-1.53v1.53h1.53V9.14Zm-1.53 1.53h-1.52v1.52h1.52v-1.52Zm-1.52 1.52h-1.52v1.52h1.52v-1.52Zm0-3.05h-1.52v1.53h1.52V9.14Zm-1.52 6.1h-1.53v1.52h1.53v-1.52Zm-1.53-1.53h-4.57v1.53h4.57v-1.53Zm-4.57 1.53h-1.52v1.52h1.52v-1.52Zm-1.52-3.05H9.14v1.52h1.53v-1.52Zm0-3.05H9.14v1.53h1.53V9.14Zm0-6.09H9.14v1.52h1.53V3.05ZM3.05 27.43v-3.05H1.52v3.05H0V32h10.67v-4.57H9.14v-3.05H7.62v3.05H3.05Zm6.09 1.52v1.53H1.52v-1.53h7.62Zm0-18.28H7.62v1.52h1.52v-1.52Zm-1.52 1.52H6.1v1.52h1.52v-1.52Zm0-3.05H6.1v1.53h1.52V9.14Zm0-6.09H6.1v1.52h1.52V3.05ZM4.57 22.86v-1.53H3.05v3.05h4.57v-3.05H6.1v1.53H4.57Zm1.53-3.05H4.57v1.52H6.1v-1.52ZM4.57 3.05H3.05v1.52h1.52V3.05ZM27.43 0H1.52v1.52h25.91V0Z"/>
    <path fill="#000001" d="M28.95 12.19V1.52h-1.52v4.57H1.52V1.52H0v21.34h1.52V7.62h25.91v4.57h1.52Z"/>
  </g>
  <defs>
    <clipPath id="a">
      <path fill="#fff" d="M0 0h32v32H0z"/>
    </clipPath>
  </defs>
</svg>
