<svg xmlns="http://www.w3.org/2000/svg" width="32" height="32" fill="none" viewBox="0 0 32 32">
  <g clip-path="url(#a)">
    <path fill="#000001" d="M31.24 24.38h-1.53v1.52h1.53v-1.52Z"/>
    <path fill="#000001" d="M29.71 22.85h-1.52v1.53h1.52v-1.53Zm0 3.05h-1.52v1.53h1.52V25.9Zm-1.52-4.57h-1.53v1.52h1.53v-1.52Zm0 6.1h-1.53v1.52h1.53v-1.52Zm-1.53-7.62h-1.52v1.52h1.52v-1.52Zm0 6.09h-1.52v1.53h1.52V25.9Zm-1.52-7.62h-1.52v1.53h1.52v-1.53Zm0 6.1h-1.52v1.52h1.52v-1.52Zm-1.52-7.62h-1.53v1.52h1.53v-1.52Zm0 6.09h-1.53v1.53h1.53v-1.53Zm-3.05-1.52v-1.52h-1.52v1.52h1.51v1.52h1.53v-1.52h-1.52Z"/>
    <path fill="#000001" d="M2.28 1.52H.76v28.95h1.52V32h18.28v-1.53h1.53V25.9h-1.53v3.05H2.28V3.04h4.57v1.53h9.14V3.04h4.57v9.15h1.53V1.52h-1.53V0H2.28v1.52Zm9.14 0h3.05v1.52h-3.05V1.52Zm-3.05 0H9.9v1.52H8.37V1.52Z"/>
    <path fill="#000001" d="M19.05 18.28h-1.53v1.53h1.53v-1.53Zm0-10.66H16v3.04h3.05V7.62Zm1.51 7.61v1.53h1.53v-1.53h-1.52v-1.52H16v4.57h1.52v-3.05h3.04Zm-7.61-7.61H9.9v3.04h3.05V7.62Zm0 16.76v-1.53h1.52v-1.52h-1.52v-1.52h-1.52v1.52H9.9v1.52h1.53v1.53h1.52Zm0-10.67H9.9v3.05h3.05v-3.05ZM6.86 7.62H3.81v3.04h3.05V7.62Zm0 6.09H3.81v3.05h3.05v-3.05Zm0 6.1H3.81v3.04h3.05v-3.04Z"/>
  </g>
  <defs>
    <clipPath id="a">
      <path fill="#fff" d="M0 0h32v32H0z"/>
    </clipPath>
  </defs>
</svg>
