<svg xmlns="http://www.w3.org/2000/svg" width="32" height="32" fill="none" viewBox="0 0 32 32">
  <g clip-path="url(#a)">
    <path fill="#000001" d="M32 25.145h-1.52v1.52H32v-1.52Zm0-10.67v-3.05h-1.52v1.53h-1.53v-3.05h-1.52v6.1H25.9v-1.53h-1.52v3.05h3.05v4.57h-7.62v1.53H32v-1.53h-3.05v-7.62H32Zm0-13.71h-3.05v1.52H32V.765Zm-4.57 24.38H25.9v1.52h1.53v-1.52Zm0-21.33h-3.05v1.52h3.05v-1.52Zm-6.1 21.33h-1.52v1.52h1.52v-1.52Zm-1.52-15.24h-4.57v1.52h4.57v1.53h1.52v-7.62h-1.52v4.57Zm-6.1 6.1h-3.04v1.52h3.04v1.52h-3.04v-1.52H9.14v6.1h4.57v1.52H9.14v1.52H4.57V28.2H6.1v3.04h3.04v-1.52H7.62V28.2h4.57v-1.53h1.52v1.53h3.05v-1.53h-1.52v-6.09h1.52v1.52h1.53v-3.05h-3.05v-4.57h4.57v-1.52h-6.1v3.045Zm0 6.09h-3.04v-1.52h3.04v1.52Zm0-21.33h-3.04v1.52h3.04V.765Zm-3.04 6.09H9.14v3.05h1.53v-3.05Z"/>
    <path fill="#000001" d="M19.81 3.815H7.62v1.52h12.19v-1.52ZM9.14 23.625H7.62v1.52h1.52v-1.52ZM7.62 5.335H6.1v10.67h1.52V5.335ZM6.1 16.005H4.57v4.57H6.1v-4.57Zm-1.53 9.14H3.05v1.52h1.52v-1.52Zm0-4.57H3.05v1.52h1.52v-1.52Zm-1.52 3.05H1.52v1.52h1.53v-1.52Zm0-18.29H0v1.52h3.05v-1.52Zm-1.53 15.24h1.53v-1.53H1.52v-1.52H0v6.1h1.52v-3.05Z"/>
  </g>
  <defs>
    <clipPath id="a">
      <path fill="#fff" d="M0 0h32v32H0z"/>
    </clipPath>
  </defs>
</svg>
