<svg xmlns="http://www.w3.org/2000/svg" width="32" height="32" fill="none" viewBox="0 0 32 32">
  <g clip-path="url(#a)">
    <path fill="#000001" d="M32 1.53h-1.52v28.95H32V1.53Zm-1.52 28.95H1.52V32h28.96v-1.52ZM28.95 3.05H3.05v25.91h25.9V3.05ZM15.24 6.1h1.52v6.09h-1.52V6.1Zm-6.1 0h4.57v6.09H9.14V6.1Zm-3.04 0h1.52v6.09H6.1V6.1Zm0 7.62h4.57v6.09H6.1v-6.09Zm6.09 12.19h-1.52v1.52H9.14v-1.52h1.53v-3.05H9.14v-1.52h1.53v1.52h1.52v3.05Zm0-12.19h1.52v6.09h-1.52v-6.09Zm6.1 13.71h-4.58v-1.52h4.58v1.52Zm-3.05-7.62v-6.09h4.57v6.09h-4.57Zm7.62 3.05h-1.53v3.05h1.53v1.52h-1.53v-1.52h-1.52v-3.05h1.52v-1.52h1.53v1.52Zm0-3.05h-1.53v-6.09h1.53v6.09Zm0-7.62h-4.57V6.1h4.57v6.09Zm3.04 7.62h-1.52v-6.09h1.52v6.09Zm0-7.62h-1.52V6.1h1.52v6.09Z"/>
    <path fill="#000001" d="M21.33 7.62h-1.52v3.05h1.52V7.62Zm-3.04 7.62h-1.53v3.05h1.53v-3.05Zm-6.1-7.62h-1.52v3.05h1.52V7.62Zm-3.05 7.62H7.62v3.05h1.52v-3.05ZM30.48 0H1.52v1.53h28.96V0ZM1.52 1.53H0v28.95h1.52V1.53Z"/>
  </g>
  <defs>
    <clipPath id="a">
      <path fill="#fff" d="M0 0h32v32H0z"/>
    </clipPath>
  </defs>
</svg>
