<?xml version="1.0" encoding="utf-8"?>
<!-- Generator: Adobe Illustrator 16.0.0, SVG Export Plug-In . SVG Version: 6.00 Build 0)  -->
<!DOCTYPE svg PUBLIC "-//W3C//DTD SVG 1.0//EN" "http://www.w3.org/TR/2001/REC-SVG-20010904/DTD/svg10.dtd">
<svg version="1.0" id="Layer_1" xmlns="http://www.w3.org/2000/svg" xmlns:xlink="http://www.w3.org/1999/xlink" x="0px" y="0px"
	 width="256px" height="256px" viewBox="0 0 256 256" enable-background="new 0 0 256 256" xml:space="preserve">
<g id="Card_2_">
	<path id="browser_27_" fill="#D6D6D6" d="M240,0H16C7.164,0,0,7.164,0,16v224c0,8.836,7.164,16,16,16h224c8.836,0,16-7.164,16-16
		V16C256,7.164,248.836,0,240,0z"/>
	<path id="screen_27_" fill="#F6F6F6" d="M232,48H24c-4.418,0-8,3.582-8,8v176c0,4.418,3.582,8,8,8h208c4.418,0,8-3.582,8-8V56
		C240,51.582,236.418,48,232,48z"/>
	<path id="actions_27_" fill="#FFFFFF" d="M32,24c0,4.418-3.582,8-8,8s-8-3.582-8-8s3.582-8,8-8S32,19.582,32,24z M56,16
		c-4.418,0-8,3.582-8,8s3.582,8,8,8s8-3.582,8-8S60.418,16,56,16z M88,16c-4.418,0-8,3.582-8,8s3.582,8,8,8s8-3.582,8-8
		S92.418,16,88,16z"/>
	<path fill="#D6D6D6" d="M152,148c0,2.211-1.789,4-4,4H52c-2.211,0-4-1.789-4-4v-24c0-2.211,1.789-4,4-4h96c2.211,0,4,1.789,4,4V148
		z"/>
	<path fill="#999999" d="M208,148c0,2.211-1.789,4-4,4h-40c-2.211,0-4-1.789-4-4v-24c0-2.211,1.789-4,4-4h40c2.211,0,4,1.789,4,4
		V148z"/>
	<path fill="#D6D6D6" d="M176,172c0,2.211-1.789,4-4,4H84c-2.211,0-4-1.789-4-4l0,0c0-2.211,1.789-4,4-4h88
		C174.211,168,176,169.789,176,172L176,172z"/>
</g>
</svg>
