<?xml version="1.0" encoding="utf-8"?>
<!-- Generator: Adobe Illustrator 16.0.0, SVG Export Plug-In . SVG Version: 6.00 Build 0)  -->
<!DOCTYPE svg PUBLIC "-//W3C//DTD SVG 1.0//EN" "http://www.w3.org/TR/2001/REC-SVG-20010904/DTD/svg10.dtd">
<svg version="1.0" id="Layer_1" xmlns="http://www.w3.org/2000/svg" xmlns:xlink="http://www.w3.org/1999/xlink" x="0px" y="0px"
	 width="256px" height="256px" viewBox="0 0 256 256" enable-background="new 0 0 256 256" xml:space="preserve">
<g id="Card_1_">
	<path id="browser_1_" fill="#D6D6D6" d="M240,0H16C7.164,0,0,7.164,0,16v224c0,8.836,7.164,16,16,16h224c8.836,0,16-7.164,16-16V16
		C256,7.164,248.836,0,240,0z"/>
	<path id="screen_1_" fill="#F6F6F6" d="M232,48H24c-4.418,0-8,3.582-8,8v176c0,4.418,3.582,8,8,8h208c4.418,0,8-3.582,8-8V56
		C240,51.582,236.418,48,232,48z"/>
	<path id="actions_1_" fill="#FFFFFF" d="M32,24c0,4.418-3.582,8-8,8s-8-3.582-8-8s3.582-8,8-8S32,19.582,32,24z M56,16
		c-4.418,0-8,3.582-8,8s3.582,8,8,8s8-3.582,8-8S60.418,16,56,16z M88,16c-4.418,0-8,3.582-8,8s3.582,8,8,8s8-3.582,8-8
		S92.418,16,88,16z"/>
	<g>
		<path fill="#D6D6D6" d="M172,112V88c-13.254,0-24,10.746-24,24s10.746,24,24,24s24-10.746,24-24H172z"/>
		<path fill="#888888" d="M176,108h24c0-13.254-10.746-24-24-24V108z"/>
	</g>
	<g>
		<path fill="#D6D6D6" d="M72,136h-8v-24h8V136z M84,104h-8v32h8V104z M60,104h-8v32h8V104z M108,96h-8v40h8V96z"/>
		<rect x="88" y="88" fill="#888888" width="8" height="48"/>
	</g>
	<path fill="#888888" d="M96,156c0,2.211-1.789,4-4,4H52c-2.211,0-4-1.789-4-4l0,0c0-2.211,1.789-4,4-4h40
		C94.211,152,96,153.789,96,156L96,156z M184,156c0-2.211-1.789-4-4-4h-40c-2.211,0-4,1.789-4,4l0,0c0,2.211,1.789,4,4,4h40
		C182.211,160,184,158.211,184,156L184,156z"/>
	<path fill="#D6D6D6" d="M120,180c0,2.211-1.789,4-4,4H52c-2.211,0-4-1.789-4-4l0,0c0-2.211,1.789-4,4-4h64
		C118.211,176,120,177.789,120,180L120,180z M208,180c0-2.211-1.789-4-4-4h-64c-2.211,0-4,1.789-4,4l0,0c0,2.211,1.789,4,4,4h64
		C206.211,184,208,182.211,208,180L208,180z M112,204c0-2.211-1.789-4-4-4H52c-2.211,0-4,1.789-4,4l0,0c0,2.211,1.789,4,4,4h56
		C110.211,208,112,206.211,112,204L112,204z M200,204c0-2.211-1.789-4-4-4h-56c-2.211,0-4,1.789-4,4l0,0c0,2.211,1.789,4,4,4h56
		C198.211,208,200,206.211,200,204L200,204z"/>
</g>
</svg>
