<?xml version="1.0" encoding="utf-8"?>
<!-- Generator: Adobe Illustrator 16.0.0, SVG Export Plug-In . SVG Version: 6.00 Build 0)  -->
<!DOCTYPE svg PUBLIC "-//W3C//DTD SVG 1.0//EN" "http://www.w3.org/TR/2001/REC-SVG-20010904/DTD/svg10.dtd">
<svg version="1.0" id="Layer_1" xmlns="http://www.w3.org/2000/svg" xmlns:xlink="http://www.w3.org/1999/xlink" x="0px" y="0px"
	 width="256px" height="256px" viewBox="0 0 256 256" enable-background="new 0 0 256 256" xml:space="preserve">
<g id="Card_1_">
	<path id="browser_26_" fill="#D6D6D6" d="M240,0H16C7.164,0,0,7.164,0,16v224c0,8.836,7.164,16,16,16h224c8.836,0,16-7.164,16-16
		V16C256,7.164,248.836,0,240,0z"/>
	<path id="screen_26_" fill="#F6F6F6" d="M232,48H24c-4.418,0-8,3.582-8,8v176c0,4.418,3.582,8,8,8h208c4.418,0,8-3.582,8-8V56
		C240,51.582,236.418,48,232,48z"/>
	<path id="actions_26_" fill="#FFFFFF" d="M32,24c0,4.418-3.582,8-8,8s-8-3.582-8-8s3.582-8,8-8S32,19.582,32,24z M56,16
		c-4.418,0-8,3.582-8,8s3.582,8,8,8s8-3.582,8-8S60.418,16,56,16z M88,16c-4.418,0-8,3.582-8,8s3.582,8,8,8s8-3.582,8-8
		S92.418,16,88,16z"/>
	<path fill="#D6D6D6" d="M136,204c0,2.211-1.789,4-4,4H72c-2.211,0-4-1.789-4-4l0,0c0-2.211,1.789-4,4-4h60
		C134.211,200,136,201.789,136,204L136,204z M192,204c0,2.211-1.789,4-4,4h-40c-2.211,0-4-1.789-4-4l0,0c0-2.211,1.789-4,4-4h40
		C190.211,200,192,201.789,192,204L192,204z"/>
	<g id="employee_2_">
		<path fill="#888888" d="M180,132c0-28.719-23.281-52-52-52s-52,23.281-52,52s23.281,52,52,52S180,160.719,180,132z"/>
	</g>
	<g>
		<circle fill="#F6F6F6" cx="128" cy="116" r="20"/>
		<path fill="#F6F6F6" d="M128,136c-15.523,0-28.957,8.871-35.586,21.801C100.41,168.812,113.352,176,128,176
			s27.59-7.188,35.586-18.199C156.957,144.871,143.523,136,128,136z"/>
	</g>
</g>
</svg>
