<svg id="Capa_1" enable-background="new 0 0 512 512" height="512" viewBox="0 0 512 512" width="512" xmlns="http://www.w3.org/2000/svg" xmlns:xlink="http://www.w3.org/1999/xlink"><linearGradient id="SVGID_1_" gradientUnits="userSpaceOnUse" x1="74.98" x2="437.019" y1="437.019" y2="74.98"><stop offset="0" stop-color="#ff4747"/><stop offset="1" stop-color="#fff200"/></linearGradient><radialGradient id="SVGID_2_" cx="257.013" cy="280.338" gradientUnits="userSpaceOnUse" r="256"><stop offset="0" stop-color="#ff4747"/><stop offset="1" stop-color="#fffa78" stop-opacity="0"/></radialGradient><linearGradient id="lg1"><stop offset="0" stop-color="#ffcb00"/><stop offset="1" stop-color="#fffa78"/></linearGradient><linearGradient id="SVGID_3_" gradientUnits="userSpaceOnUse" x1="-410.258" x2="168.299" xlink:href="#lg1" y1="794.392" y2="215.835"/><linearGradient id="SVGID_4_" gradientTransform="matrix(1 0 0 -1 0 5628)" gradientUnits="userSpaceOnUse" x1="-58.14" x2="400.3" xlink:href="#lg1" y1="5104.582" y2="5563.022"/><linearGradient id="SVGID_5_" gradientTransform="matrix(1 0 0 -1 0 5628)" gradientUnits="userSpaceOnUse" x1="-416.384" x2="324.887" xlink:href="#lg1" y1="4664.184" y2="5405.454"/><linearGradient id="SVGID_6_" gradientTransform="matrix(1 0 0 -1 0 5628)" gradientUnits="userSpaceOnUse" x1="17.791" x2="549.298" xlink:href="#lg1" y1="5027.014" y2="5558.521"/><linearGradient id="SVGID_7_" gradientUnits="userSpaceOnUse" x1="-218.738" x2="456.418" xlink:href="#lg1" y1="603.429" y2="-71.726"/><linearGradient id="SVGID_8_" gradientUnits="userSpaceOnUse" x1="122.747" x2="719.79" xlink:href="#lg1" y1="342.057" y2="-254.986"/><linearGradient id="SVGID_9_" gradientUnits="userSpaceOnUse" x1="-173.1" x2="590.706" xlink:href="#lg1" y1="720.941" y2="-42.865"/><linearGradient id="SVGID_10_" gradientUnits="userSpaceOnUse" x1="223.182" x2="775.361" xlink:href="#lg1" y1="381.153" y2="-171.026"/><g><circle cx="256" cy="256" fill="url(#SVGID_1_)" r="256"/><circle cx="256" cy="256" fill="url(#SVGID_2_)" r="256"/><path d="m173.5 77.88c-3.096.081-6.216 1.139-8.899 3.157-22.954 17.274-46.164 34.595-69.49 51.756-4.023 2.96-6.501 7.548-6.647 12.346-2.504 82.635-2.048 165.27 1.368 247.905.533 12.241 14.785 20.023 24.438 13.17 16.22-11.498 32.657-23.271 49.255-35.235 2.627-1.894 5.748-2.809 8.885-2.755 19.649-37.019 40.037-74.498 60.528-112.076-20.513-59.754-40.862-119.37-59.438-178.268z" fill="url(#SVGID_3_)"/><path d="m247.066 128.119c-21.862-16.072-43.506-31.975-64.806-47.526-2.591-1.892-5.664-2.793-8.76-2.713-2.319 96.781-2.683 193.563-1.089 290.344 3.137.054 6.29 1.079 8.983 3.073 22.132 16.385 44.1 32.755 65.777 48.927 2.637 1.969 5.733 2.953 8.83 2.952 20-55.675 40.965-111.537 61.498-167.046-20.474-41.552-41.234-83.379-61.498-125.078-3.139-.002-6.275-.979-8.935-2.933z" fill="url(#SVGID_4_)"/><path d="m329.74 80.593c-21.3 15.551-42.943 31.454-64.806 47.526-2.659 1.956-5.797 2.929-8.934 2.933v292.125c3.096 0 6.193-.985 8.83-2.952 21.677-16.173 43.645-32.543 65.777-48.927 2.692-1.993 5.846-3.017 8.983-3.073 20.943-41.607 42.025-82.974 62.469-123.699-20.574-54.88-42.228-110.609-63.559-166.646-3.096-.079-6.17.818-8.76 2.713z" fill="url(#SVGID_5_)"/><path d="m416.889 132.792c-23.326-17.161-46.536-34.482-69.49-51.756-2.683-2.02-5.803-3.08-8.899-3.157 2.319 96.781 2.683 193.563 1.089 290.344 3.138-.053 6.259.86 8.885 2.755 16.598 11.964 33.036 23.737 49.255 35.235 9.653 6.856 23.906-.931 24.438-13.17 3.416-82.635 3.872-165.27 1.368-247.905-.145-4.799-2.622-9.383-6.646-12.346z" fill="url(#SVGID_6_)"/><path d="m118.743 151.973c-1.616 70.851-1.48 141.702.408 212.553 17.398-12.34 34.986-24.941 52.698-37.707 9.948-23.455 20.104-47.035 30.341-70.684-10.276-48.2-20.26-96.266-29.427-144.079-17.906 13.325-35.935 26.663-54.02 39.917z" fill="url(#SVGID_7_)"/><path d="m172.762 112.056c-1.375 71.588-1.68 143.175-.914 214.763 28.269 20.69 56.406 41.472 84.152 61.971 10.09-44.214 20.486-88.464 30.749-132.645-10.241-27.788-20.549-55.622-30.749-83.435-28.05-20.5-55.883-40.843-83.238-60.654z" fill="url(#SVGID_8_)"/><path d="m339.238 112.056c-27.355 19.811-55.187 40.154-83.238 60.654v216.08c27.746-20.5 55.883-41.282 84.152-61.971 15.552-23.74 31.126-47.369 46.532-70.758-15.312-47.589-31.39-95.679-47.446-144.005z" fill="url(#SVGID_9_)"/><path d="m339.238 112.056c1.375 71.588 1.68 143.175.914 214.763 17.712 12.766 35.3 25.367 52.698 37.707 1.887-70.851 2.023-141.702.408-212.553-18.086-13.254-36.115-26.592-54.02-39.917z" fill="url(#SVGID_10_)"/></g></svg>