<svg id="Capa_1" enable-background="new 0 0 512 512" height="512" viewBox="0 0 512 512" width="512" xmlns="http://www.w3.org/2000/svg" xmlns:xlink="http://www.w3.org/1999/xlink"><linearGradient id="SVGID_1_" gradientUnits="userSpaceOnUse" x1="74.98" x2="437.019" y1="437.019" y2="74.98"><stop offset="0" stop-color="#ff4747"/><stop offset="1" stop-color="#ff9ceb"/></linearGradient><radialGradient id="SVGID_2_" cx="195.154" cy="326.985" gradientUnits="userSpaceOnUse" r="349.114"><stop offset="0" stop-color="#ff2f2b"/><stop offset=".1898" stop-color="#ff4e62" stop-opacity=".81"/><stop offset=".3842" stop-color="#ff6a93" stop-opacity=".616"/><stop offset=".5687" stop-color="#ff7fb9" stop-opacity=".431"/><stop offset=".7382" stop-color="#ff8fd4" stop-opacity=".262"/><stop offset=".8873" stop-color="#ff99e5" stop-opacity=".113"/><stop offset="1" stop-color="#ff9ceb" stop-opacity="0"/></radialGradient><linearGradient id="lg1"><stop offset="0" stop-color="#ffa9d4"/><stop offset=".2953" stop-color="#ffc6e3"/><stop offset=".7601" stop-color="#ffeff7"/><stop offset="1" stop-color="#fff"/></linearGradient><linearGradient id="SVGID_3_" gradientUnits="userSpaceOnUse" x1="-13.821" x2="375.809" xlink:href="#lg1" y1="525.82" y2="136.19"/><linearGradient id="SVGID_4_" gradientUnits="userSpaceOnUse" x1="65.939" x2="459.256" xlink:href="#lg1" y1="446.061" y2="52.744"/><linearGradient id="SVGID_5_" gradientUnits="userSpaceOnUse" x1="167.914" x2="381.466" y1="352.098" y2="138.545"><stop offset="0" stop-color="#ffa9d4"/><stop offset=".2938" stop-color="#ffc6e3"/><stop offset=".7563" stop-color="#ffeff7"/><stop offset=".995" stop-color="#fff"/></linearGradient><radialGradient id="SVGID_6_" cx="200.285" cy="309.639" gradientUnits="userSpaceOnUse" r="295.366"><stop offset="0" stop-color="#ff2f2b"/><stop offset=".0402" stop-color="#ff424d" stop-opacity=".96"/><stop offset=".0936" stop-color="#ff5772" stop-opacity=".906"/><stop offset=".1533" stop-color="#ff6a93" stop-opacity=".847"/><stop offset=".2191" stop-color="#ff79ae" stop-opacity=".781"/><stop offset=".2929" stop-color="#ff86c5" stop-opacity=".707"/><stop offset=".3784" stop-color="#ff90d6" stop-opacity=".622"/><stop offset=".483" stop-color="#ff97e2" stop-opacity=".517"/><stop offset=".6273" stop-color="#ff9be9" stop-opacity=".373"/><stop offset="1" stop-color="#ff9ceb" stop-opacity="0"/></radialGradient><linearGradient id="lg2"><stop offset="0" stop-color="#ff79a2"/><stop offset="1" stop-color="#ffe3f1"/></linearGradient><linearGradient id="SVGID_7_" gradientUnits="userSpaceOnUse" x1="25.939" x2="412.717" xlink:href="#lg2" y1="486.062" y2="99.284"/><linearGradient id="SVGID_8_" gradientUnits="userSpaceOnUse" x1="81.729" x2="407.533" xlink:href="#lg2" y1="434.032" y2="108.228"/><g><circle cx="256" cy="256" fill="url(#SVGID_1_)" r="256"/><circle cx="256" cy="256" fill="url(#SVGID_2_)" r="256"/><path d="m449.387 202.967c1.007 74.565-62.942 137.091-139.283 137.911-76.367.392-139.373-62.612-138.981-138.981.818-76.344 63.345-140.29 137.911-139.284 74.542 1.389 138.966 65.812 140.353 140.354z" fill="url(#SVGID_3_)"/><path d="m232.597 140.251c-18.061.068-35.328 3.703-51.233 10.205-6.478 15.963-10.134 33.31-10.242 51.441-.392 76.365 62.615 139.375 138.981 138.981 18.133-.109 35.48-3.768 51.441-10.242 6.5-15.904 10.141-33.171 10.205-51.232.129-75.972-63.181-139.279-139.152-139.153z" fill="url(#SVGID_4_)"/><path d="m371.508 286.913c.146-2.485.233-4.989.241-7.51.128-75.972-63.181-139.278-139.152-139.153-18.061.068-35.328 3.703-51.233 10.205-6.478 15.963-10.134 33.31-10.242 51.441-.392 76.365 62.615 139.375 138.981 138.981 18.062-.108 35.344-3.738 51.255-10.168 45.37-18.537 79.898-59.435 86.768-107.862-16.183 29.339-43.668 52.523-76.618 64.066z" fill="url(#SVGID_5_)"/><path d="m449.387 202.967c1.007 74.565-62.942 137.091-139.283 137.911-76.367.392-139.373-62.612-138.981-138.981.818-76.344 63.345-140.29 137.911-139.284 74.542 1.389 138.966 65.812 140.353 140.354z" fill="url(#SVGID_6_)"/><path d="m340.878 310.104c-.817 76.342-63.345 140.29-137.911 139.284-74.543-1.385-138.969-65.811-140.354-140.354-1.005-74.564 62.942-137.097 139.283-137.911 76.368-.393 139.373 62.619 138.982 138.981z" fill="url(#SVGID_7_)"/><path d="m217.568 403.489c-75.454-.88-139.583-64.552-139.944-139.425-.012-6.79.502-13.45 1.498-19.975-10.812 19.401-16.844 41.445-16.509 64.944 1.386 74.54 65.811 138.971 140.354 140.354 67.953.97 125.599-52.039 136.282-118.977-23.993 43.395-69.647 73.505-121.681 73.079z" fill="url(#SVGID_8_)"/></g></svg>