<?xml version="1.0" encoding="iso-8859-1"?>
<!-- Generator: Adobe Illustrator 19.0.0, SVG Export Plug-In . SVG Version: 6.00 Build 0)  -->
<svg xmlns="http://www.w3.org/2000/svg" xmlns:xlink="http://www.w3.org/1999/xlink" version="1.1" id="Layer_1" x="0px" y="0px" viewBox="0 0 512 512" style="enable-background:new 0 0 512 512;" xml:space="preserve">
<g>
	<g>
		<rect x="244.87" width="200.348" height="33.391"/>
	</g>
</g>
<g>
	<g>
		<rect x="445.217" y="33.391" width="33.391" height="33.391"/>
	</g>
</g>
<g>
	<g>
		<rect x="211.478" y="33.391" width="33.391" height="33.391"/>
	</g>
</g>
<g>
	<g>
		<rect x="178.087" y="66.783" width="33.391" height="33.391"/>
	</g>
</g>
<g>
	<g>
		<rect x="144.696" y="100.174" width="33.391" height="55.652"/>
	</g>
</g>
<g>
	<g>
		<rect x="211.478" y="133.565" width="33.391" height="55.652"/>
	</g>
</g>
<g>
	<g>
		<rect x="244.87" y="100.174" width="33.391" height="33.391"/>
	</g>
</g>
<g>
	<g>
		<rect x="278.261" y="66.783" width="66.783" height="33.391"/>
	</g>
</g>
<g>
	<g>
		<rect x="111.304" y="155.826" width="33.391" height="178.087"/>
	</g>
</g>
<g>
	<g>
		<rect x="77.913" y="333.913" width="33.391" height="33.391"/>
	</g>
</g>
<g>
	<g>
		<rect x="144.696" y="333.913" width="33.391" height="33.391"/>
	</g>
</g>
<g>
	<g>
		<rect x="144.696" y="400.696" width="33.391" height="33.391"/>
	</g>
</g>
<g>
	<g>
		<polygon points="0,367.304 0,445.217 33.391,445.217 33.391,400.696 77.913,400.696 77.913,367.304   "/>
	</g>
</g>
<g>
	<g>
		<rect x="33.391" y="445.217" width="33.391" height="33.391"/>
	</g>
</g>
<g>
	<g>
		<polygon points="111.304,434.087 111.304,478.609 66.783,478.609 66.783,512 144.696,512 144.696,434.087   "/>
	</g>
</g>
<g>
	<g>
		<rect x="178.087" y="367.304" width="178.087" height="33.391"/>
	</g>
</g>
<g>
	<g>
		<rect x="478.609" y="66.783" width="33.391" height="200.348"/>
	</g>
</g>
<g>
	<g>
		<rect x="445.217" y="267.13" width="33.391" height="33.391"/>
	</g>
</g>
<g>
	<g>
		<rect x="411.826" y="300.522" width="33.391" height="33.391"/>
	</g>
</g>
<g>
	<g>
		<rect x="356.174" y="333.913" width="55.652" height="33.391"/>
	</g>
</g>
<g>
	<g>
		<rect x="378.435" y="66.783" width="33.391" height="33.391"/>
	</g>
</g>
<g>
</g>
<g>
</g>
<g>
</g>
<g>
</g>
<g>
</g>
<g>
</g>
<g>
</g>
<g>
</g>
<g>
</g>
<g>
</g>
<g>
</g>
<g>
</g>
<g>
</g>
<g>
</g>
<g>
</g>
</svg>
