<svg width="24" height="24" viewBox="0 0 24 24" fill="none" xmlns="http://www.w3.org/2000/svg">
<path d="M19.5 3H4.5C3.11981 3.00128 2.00128 4.11981 2 5.5V15.5C2.00128 16.8802 3.11981 17.9987 4.5 18H5.5C5.77612 18 6 17.7761 6 17.5C6 17.2239 5.77612 17 5.5 17H4.5C3.67194 16.9991 3.00092 16.3281 3 15.5V5.5C3.00092 4.67194 3.67194 4.00092 4.5 4H19.5C20.3281 4.00092 20.9991 4.67194 21 5.5V15.5C20.9991 16.3281 20.3281 16.9991 19.5 17H18.5C18.2239 17 18 17.2239 18 17.5C18 17.7761 18.2239 18 18.5 18H19.5C20.8802 17.9987 21.9987 16.8802 22 15.5V5.5C21.9987 4.11981 20.8802 3.00128 19.5 3ZM13.2412 14.4395C13.1548 14.3253 13.0532 14.2234 12.939 14.137C12.2537 13.6182 11.2776 13.7532 10.7588 14.4385L7.89551 18.6582C7.72748 18.9062 7.63757 19.199 7.63733 19.4986C7.63678 20.3273 8.30811 20.9995 9.13672 21H14.8633C15.1629 20.9998 15.4556 20.9099 15.7037 20.7419C16.3897 20.2772 16.5692 19.3443 16.1045 18.6582L13.2412 14.4395ZM14.8633 20H9.13672C9.0365 19.9999 8.93866 19.9698 8.85577 19.9134C8.62744 19.7581 8.5683 19.4471 8.72363 19.2188L11.5869 15C11.6792 14.8624 11.8344 14.7803 12 14.7812C12.166 14.7802 12.3212 14.8628 12.4131 15.001L15.2764 19.2188C15.3328 19.3016 15.3629 19.3995 15.363 19.4997C15.3632 19.7758 15.1394 19.9998 14.8633 20Z" fill="black"/>
</svg>
