<svg width="24" height="24" viewBox="0 0 24 24" fill="none" xmlns="http://www.w3.org/2000/svg">
<path d="M3.50061 9H3.5C3.224 8.99982 3.00018 9.22345 3 9.49939V14.5C3 14.7761 3.22388 15 3.5 15C3.77612 15 4 14.7761 4 14.5V9.5C4.00018 9.224 3.77655 9.00018 3.50061 9ZM15.8436 4.39825L16.917 2.77637C17.0696 2.54608 17.0067 2.23566 16.7764 2.08301C16.5461 1.93036 16.2357 1.99335 16.083 2.22363L15.0228 3.82562C13.1579 2.72479 10.842 2.72479 8.97723 3.82562L7.91699 2.22363C7.76434 1.99335 7.45392 1.93036 7.22363 2.08301C6.99335 2.23566 6.93036 2.54608 7.08301 2.77637L8.15637 4.39825C6.79004 5.53595 6 7.22204 6 9V17.5C5.99982 17.776 6.22345 17.9998 6.49939 18H9.5V21.5C9.5 21.7761 9.72388 22 10 22C10.2761 22 10.5 21.7761 10.5 21.5V18H13.5V21.5C13.5 21.7761 13.7239 22 14 22C14.2761 22 14.5 21.7761 14.5 21.5V18H17.5C17.776 18.0002 17.9998 17.7765 18 17.5005V9C18 7.22204 17.21 5.53595 15.8436 4.39825ZM17 17H7V10H17V17ZM7 9C7 6.23858 9.23859 4 12 4C14.7614 4 17 6.23858 17 9H7ZM20.5006 9H20.5C20.224 8.99982 20.0002 9.22345 20 9.49939V14.5C20 14.7761 20.2239 15 20.5 15C20.7761 15 21 14.7761 21 14.5V9.5C21.0002 9.224 20.7766 9.00018 20.5006 9Z" fill="black"/>
</svg>
