<svg width="24" height="24" viewBox="0 0 24 24" fill="none" xmlns="http://www.w3.org/2000/svg">
<path d="M17 18H7C6.73478 18 6.48043 17.8946 6.29289 17.7071C6.10536 17.5196 6 17.2652 6 17C6 16.7348 6.10536 16.4804 6.29289 16.2929C6.48043 16.1054 6.73478 16 7 16H16V7C16 6.73478 16.1054 6.48043 16.2929 6.29289C16.4804 6.10536 16.7348 6 17 6C17.2652 6 17.5196 6.10536 17.7071 6.29289C17.8946 6.48043 18 6.73478 18 7V17C18 17.2652 17.8946 17.5196 17.7071 17.7071C17.5196 17.8946 17.2652 18 17 18Z" fill="black"/>
<path d="M17.0001 18C16.8687 18.0002 16.7387 17.9743 16.6173 17.9241C16.496 17.8738 16.3858 17.8 16.2931 17.707L6.29308 7.707C6.10837 7.51891 6.00541 7.26549 6.0066 7.00188C6.0078 6.73826 6.11305 6.48578 6.29945 6.29938C6.48586 6.11297 6.73834 6.00772 7.00195 6.00653C7.26557 6.00533 7.51899 6.10829 7.70708 6.293L17.7071 16.293C17.8469 16.4329 17.9421 16.611 17.9807 16.805C18.0192 16.9989 17.9994 17.2 17.9238 17.3827C17.8481 17.5654 17.7199 17.7215 17.5555 17.8314C17.3911 17.9413 17.1978 18 17.0001 18Z" fill="black"/>
</svg>
