<svg width="24" height="24" viewBox="0 0 24 24" fill="none" xmlns="http://www.w3.org/2000/svg">
<path d="M9.84668 15.7539C9.94043 15.8477 10.0676 15.9004 10.2002 15.9004C10.3328 15.9004 10.4599 15.8477 10.5536 15.7539L17.3535 8.95312C17.5439 8.75873 17.5439 8.44763 17.3535 8.25323C17.1602 8.05603 16.8436 8.05286 16.6464 8.24609L10.2001 14.6934L7.35345 11.8467C7.15912 11.6562 6.84802 11.6562 6.65363 11.8467C6.45642 12.04 6.45325 12.3565 6.64648 12.5537L9.84668 15.7539ZM21.5 2H2.5C2.49982 2 2.49963 2 2.49939 2C2.22345 2.00018 1.99982 2.224 2 2.5V21.5C2 21.5002 2 21.5004 2 21.5005C2.00018 21.7766 2.224 22.0002 2.5 22H21.5C21.5002 22 21.5004 22 21.5006 22C21.7766 21.9998 22.0002 21.776 22 21.5V2.5C22 2.49982 22 2.49963 22 2.49939C21.9998 2.22345 21.776 1.99982 21.5 2ZM21 21H3V3H21V21Z" fill="black"/>
</svg>
