<svg width="24" height="24" viewBox="0 0 24 24" fill="none" xmlns="http://www.w3.org/2000/svg">
<path d="M11.9998 11.25C11.5856 11.25 11.2498 11.5858 11.2498 12C11.2498 12.4142 11.5856 12.75 11.9998 12.75C12.414 12.75 12.7498 12.4142 12.7498 12C12.7498 11.5858 12.414 11.25 11.9998 11.25ZM8.99981 11.25C8.58562 11.25 8.24981 11.5858 8.24981 12C8.24981 12.4142 8.58562 12.75 8.99981 12.75C9.41399 12.75 9.74981 12.4142 9.74981 12C9.74981 11.5858 9.41399 11.25 8.99981 11.25ZM14.9998 11.25C14.5856 11.25 14.2498 11.5858 14.2498 12C14.2498 12.4142 14.5856 12.75 14.9998 12.75C15.414 12.75 15.7498 12.4142 15.7498 12C15.7498 11.5858 15.414 11.25 14.9998 11.25ZM19.4151 5.29027C15.7096 1.19475 9.38561 0.878531 5.29009 4.58398C1.19457 8.28948 0.878348 14.6135 4.58379 18.709L2.14629 21.1465C2.05254 21.2402 1.99987 21.3674 1.99987 21.4999C1.99981 21.7761 2.22368 21.9999 2.49981 22H11.9998C14.4792 21.9999 16.8702 21.0787 18.7088 19.4153C22.8044 15.7098 23.1205 9.38579 19.4151 5.29027ZM11.9998 21H3.70678L5.63555 19.0713C5.63561 19.0712 5.63567 19.0712 5.63567 19.0711C5.83086 18.8758 5.8308 18.5594 5.63555 18.3642C3.94817 16.6769 3.00005 14.3884 2.99981 12.002C2.99926 7.03197 7.02776 3.00255 11.9978 3.00201C16.9678 3.00146 20.9972 7.02996 20.9978 12C20.9983 16.97 16.9698 20.9994 11.9998 21Z" fill="black"/>
</svg>
