<svg width="24" height="24" viewBox="0 0 24 24" fill="none" xmlns="http://www.w3.org/2000/svg">
<path d="M7.5 16H2.5C2.22388 16 2 16.2239 2 16.5C2 16.7761 2.22388 17 2.5 17H7V21.5005C7.00018 21.7766 7.224 22.0002 7.5 22H7.50061C7.77655 21.9998 8.00018 21.776 8 21.5V16.4994C7.99982 16.2234 7.776 15.9998 7.5 16ZM16.5 8H21.5C21.7761 8 22 7.77612 22 7.5C22 7.22388 21.7761 7 21.5 7H17V2.5C17 2.22388 16.7761 2 16.5 2C16.2239 2 16 2.22388 16 2.5V7.50061C16.0002 7.77655 16.224 8.00018 16.5 8ZM7.5 2C7.22388 2 7 2.22388 7 2.5V7H2.5C2.22388 7 2 7.22388 2 7.5C2 7.77612 2.22388 8 2.5 8H7.50061C7.77655 7.99982 8.00018 7.776 8 7.5V2.5C8 2.22388 7.77612 2 7.5 2ZM21.5 16H16.4995C16.2234 16.0002 15.9998 16.224 16 16.5V21.5005C16.0002 21.7766 16.224 22.0002 16.5 22H16.5006C16.7766 21.9998 17.0002 21.776 17 21.5V17H21.5C21.7761 17 22 16.7761 22 16.5C22 16.2239 21.7761 16 21.5 16Z" fill="black"/>
</svg>
