<svg width="24" height="24" viewBox="0 0 24 24" fill="none" xmlns="http://www.w3.org/2000/svg">
<path d="M18.9614 16.3088C18.936 16.2476 18.8993 16.1922 18.853 16.1461L14.3535 11.6465C14.1597 11.4594 13.8526 11.4594 13.6588 11.6465C13.4602 11.8384 13.4547 12.1549 13.6465 12.3535L17.293 16H8.5C7.11981 15.9987 6.00128 14.8802 6 13.5V3.5C6 3.22388 5.77612 3 5.5 3C5.22388 3 5 3.22388 5 3.5V13.5C5.00232 15.432 6.56799 16.9977 8.5 17H17.293L13.6465 20.6465C13.5527 20.7402 13.5001 20.8674 13.5001 20.9999C13.5 21.2761 13.7239 21.4999 14 21.5C14.1326 21.5001 14.2598 21.4474 14.3535 21.3535L18.8534 16.8536C18.8995 16.8075 18.9361 16.7523 18.9614 16.691C18.9865 16.6304 18.9995 16.5662 18.9997 16.5016C18.9997 16.501 19 16.5005 19 16.5C19 16.4349 18.9868 16.3699 18.9614 16.3088Z" fill="black"/>
</svg>
