<svg width="24" height="24" viewBox="0 0 24 24" fill="none" xmlns="http://www.w3.org/2000/svg">
<path d="M7 10H2.99939C2.72345 10.0002 2.49982 10.224 2.5 10.5V14.5005C2.50018 14.7766 2.724 15.0002 3 15H7.00061C7.27655 14.9998 7.50018 14.776 7.5 14.5V10.4994C7.49982 10.2234 7.276 9.99982 7 10ZM6.5 14H3.5V11H6.5V14ZM7 3H2.99939C2.72345 3.00018 2.49982 3.224 2.5 3.5V7.50061C2.50018 7.77655 2.724 8.00018 3 8H7.00061C7.27655 7.99982 7.50018 7.776 7.5 7.5V3.49939C7.49982 3.22345 7.276 2.99982 7 3ZM6.5 7H3.5V4H6.5V7ZM14 3H9.99945C9.72345 3.00018 9.49982 3.224 9.5 3.5V7.50061C9.50018 7.77655 9.724 8.00018 10 8H14.0006C14.2766 7.99982 14.5002 7.776 14.5 7.5V3.49939C14.4998 3.22345 14.276 2.99982 14 3ZM13.5 7H10.5V4H13.5V7ZM21 3H16.9995C16.7234 3.00018 16.4998 3.224 16.5 3.5V7.50061C16.5002 7.77655 16.724 8.00018 17 8H21.0006C21.2766 7.99982 21.5002 7.776 21.5 7.5V3.49939C21.4998 3.22345 21.276 2.99982 21 3ZM20.5 7H17.5V4H20.5V7ZM14 17H9.99945C9.72345 17.0002 9.49982 17.224 9.5 17.5V21.5005C9.50018 21.7766 9.724 22.0002 10 22H14.0006C14.2766 21.9998 14.5002 21.776 14.5 21.5V17.4994C14.4998 17.2234 14.276 16.9998 14 17ZM13.5 21H10.5V18H13.5V21ZM21 10H16.9995C16.7234 10.0002 16.4998 10.224 16.5 10.5V14.5005C16.5002 14.7766 16.724 15.0002 17 15H21.0006C21.2766 14.9998 21.5002 14.776 21.5 14.5V10.4994C21.4998 10.2234 21.276 9.99982 21 10ZM20.5 14H17.5V11H20.5V14ZM14 10H9.99945C9.72345 10.0002 9.49982 10.224 9.5 10.5V14.5005C9.50018 14.7766 9.724 15.0002 10 15H14.0006C14.2766 14.9998 14.5002 14.776 14.5 14.5V10.4994C14.4998 10.2234 14.276 9.99982 14 10ZM13.5 14H10.5V11H13.5V14Z" fill="black"/>
</svg>
