<svg width="24" height="24" viewBox="0 0 24 24" fill="none" xmlns="http://www.w3.org/2000/svg">
<path d="M5.46582 14.3017C5.46301 14.2988 5.46014 14.2959 5.45728 14.293C5.26123 14.0985 4.9447 14.0997 4.75018 14.2958C4.55566 14.4918 4.55688 14.8083 4.75293 15.0029L5.53418 15.7969C5.62805 15.8926 5.75653 15.9465 5.89062 15.9463V15.9462C6.02179 15.9462 6.14764 15.8947 6.24115 15.8027C6.43805 15.6091 6.44067 15.2925 6.24707 15.0956L5.46582 14.3017ZM5.53418 8.20215L4.75293 8.99609C4.66095 9.0896 4.60944 9.21552 4.60944 9.34662C4.60938 9.6228 4.83325 9.84668 5.10938 9.84668C5.24347 9.84686 5.37195 9.79297 5.46582 9.69727L6.24707 8.90332C6.24994 8.90045 6.25281 8.89758 6.25562 8.89465C6.44684 8.69543 6.44037 8.37891 6.24115 8.18768C6.04193 7.99646 5.7254 8.00293 5.53418 8.20215ZM3.20117 12L3.38281 11.8154C3.57074 11.6196 3.56818 11.3097 3.37701 11.117C3.1825 10.921 2.86597 10.9197 2.66992 11.1143L2.14355 11.6494C1.95215 11.8439 1.95215 12.1561 2.14355 12.3506L2.66992 12.8857C2.76379 12.9814 2.89227 13.0353 3.02637 13.0352C3.15753 13.0352 3.28339 12.9836 3.37689 12.8917C3.57379 12.698 3.57642 12.3815 3.38281 12.1846L3.20117 12ZM8.08105 17.0771C7.91595 17.0408 7.74377 17.0905 7.62323 17.2089C7.42633 17.4025 7.42358 17.7191 7.61719 17.916L8.14355 18.4502C8.23755 18.5458 8.36597 18.5996 8.5 18.5996C8.565 18.5998 8.62933 18.5872 8.68945 18.5625C8.8772 18.4854 8.99982 18.3026 9 18.0996V17.3496C9.00006 17.1803 8.91443 17.0225 8.77246 16.9302C8.54095 16.7799 8.23145 16.8456 8.08105 17.0771ZM21.8564 11.6494L15.8564 5.5498C15.7624 5.4541 15.6339 5.40021 15.4996 5.40027C15.2236 5.40039 14.9999 5.62433 15 5.90039V18.0996C15.0002 18.3026 15.1228 18.4854 15.3105 18.5625C15.3707 18.5872 15.4351 18.5998 15.5 18.5996C15.6341 18.5998 15.7626 18.546 15.8564 18.4502L21.8564 12.3506C22.0479 12.1561 22.0479 11.8439 21.8564 11.6494ZM16 16.8779V7.12207L20.7988 12L16 16.8779ZM8.5 10.6553C8.22388 10.6553 8 10.8792 8 11.1553V12.8447C8 12.8449 8 12.8451 8 12.8453C8.00018 13.1213 8.224 13.3449 8.5 13.3447C8.50018 13.3447 8.50037 13.3447 8.50055 13.3447C8.77655 13.3446 9.00018 13.1207 9 12.8447V11.1553C9 10.8792 8.77612 10.6553 8.5 10.6553ZM12 2C11.7239 2 11.5 2.22388 11.5 2.5V21.5C11.5 21.5002 11.5 21.5004 11.5 21.5005C11.5002 21.7766 11.724 22.0002 12 22C12.0002 22 12.0004 22 12.0006 22C12.2766 21.9998 12.5002 21.776 12.5 21.5V2.5C12.5 2.22388 12.2761 2 12 2ZM8.14349 5.54987L7.61713 6.08405C7.61713 6.08405 7.61707 6.08411 7.617 6.08417C7.42346 6.28101 7.42615 6.59747 7.62299 6.79102C7.74298 6.91058 7.91583 6.96033 8.08099 6.92285C8.17303 7.06482 8.33081 7.15051 8.5 7.15039C8.50018 7.15039 8.50037 7.15039 8.50061 7.15039C8.77655 7.15021 9.00018 6.92639 9 6.65039V5.90039C9.00006 5.76617 8.94617 5.63757 8.8504 5.54352C8.65344 5.35004 8.33698 5.35291 8.14349 5.54987Z" fill="black"/>
</svg>
