<svg width="24" height="24" viewBox="0 0 24 24" fill="none" xmlns="http://www.w3.org/2000/svg">
<path d="M21.9393 12.8653L20.8744 9.58552L20.8755 9.58998L20.8742 9.58489L20.8741 9.58465V9.58448L18.76 3.07582C18.7044 2.9085 18.597 2.76316 18.4535 2.66071C18.31 2.55826 18.1377 2.50398 17.9614 2.50569C17.7857 2.50471 17.6144 2.56003 17.4725 2.66355C17.3306 2.76706 17.2256 2.91332 17.1729 3.08088L15.1662 9.25874H8.83437L6.82393 3.08046C6.77118 2.91298 6.66617 2.7668 6.52429 2.66335C6.38241 2.55991 6.21113 2.50463 6.03554 2.50563H6.03109C5.85476 2.50567 5.68293 2.5613 5.54002 2.66461C5.39712 2.76792 5.29042 2.91364 5.23509 3.08107L3.12685 9.58381L3.12655 9.58467V9.58479L3.12526 9.58979L3.12636 9.58528L2.05752 12.8653C1.97887 13.1057 1.97854 13.3649 2.05658 13.6056C2.13461 13.8462 2.28699 14.0559 2.49178 14.2044L11.7208 20.91L11.7251 20.9126L11.7368 20.921L11.7258 20.9131L11.7258 20.9131L11.7277 20.9142L11.7293 20.9152L11.7295 20.9154C11.7438 20.9253 11.7586 20.9344 11.7739 20.9427L11.7801 20.9465L11.7802 20.9465L11.784 20.9487L11.787 20.9499L11.7892 20.9508L11.7945 20.953L11.8192 20.9633L11.8424 20.973L11.8434 20.9735L11.8472 20.975L11.8521 20.9768L11.8541 20.9773L11.8605 20.9788L11.8629 20.9794C11.874 20.9827 11.8855 20.9852 11.897 20.9877L11.9103 20.991L11.9122 20.9915L11.9166 20.9925L11.9239 20.994L11.9297 20.9945L11.9307 20.9945H11.931C11.953 20.9979 11.9751 20.9997 11.9973 20.9999H11.9981C12.0204 20.9997 12.0426 20.9979 12.0645 20.9946H12.0648L12.0659 20.9945L12.0718 20.994L12.0791 20.9925L12.0835 20.9915L12.0854 20.991L12.099 20.9877L12.1326 20.9795L12.1349 20.979L12.1415 20.9773L12.1435 20.9769L12.1485 20.9751L12.1523 20.9735L12.1533 20.9731L12.1778 20.9629L12.2006 20.9533L12.2061 20.951L12.2084 20.95L12.2115 20.9488L12.2155 20.9466L12.2155 20.9465L12.2219 20.9426C12.2371 20.9344 12.2518 20.9253 12.2661 20.9154L12.2697 20.9133L12.2706 20.9127L12.2749 20.91L21.5053 14.2044C21.71 14.0558 21.8624 13.8461 21.9403 13.6055C22.0183 13.3649 22.018 13.1057 21.9393 12.8653ZM17.9673 3.68556L19.7774 9.25874H16.157L17.9673 3.68556ZM6.02981 3.6855L7.84334 9.25874H4.22302L6.02981 3.6855ZM3.04602 13.4423C3.00243 13.4106 2.97002 13.3658 2.95345 13.3145C2.93688 13.2633 2.937 13.208 2.9538 13.1568L3.74829 10.7185L9.57013 18.1825L3.04602 13.4423ZM4.54002 10.2012H8.14982L10.7232 18.1285L4.54002 10.2012ZM11.7047 20.8976L11.6993 20.893L11.6982 20.892L11.6877 20.883L11.6681 20.865L11.6697 20.8663L11.6719 20.8681C11.6854 20.8811 11.6996 20.8932 11.7145 20.9044L11.715 20.9048L11.717 20.9066L11.7047 20.8976ZM11.9982 19.0038L10.4839 14.3391L9.14052 10.2012H14.8599L11.9982 19.0038ZM12.3081 20.883L12.2976 20.8921L12.2964 20.8932L12.2911 20.8977L12.2789 20.9067L12.2809 20.905L12.2812 20.9047C12.2961 20.8935 12.3103 20.8814 12.3236 20.8685L12.3254 20.8671L12.3275 20.8653L12.3081 20.883ZM15.8509 10.2012H19.4605L18.7218 11.1476L13.2738 18.1281L15.8509 10.2012ZM20.9512 13.4421L14.428 18.181L20.2518 10.7191L21.0431 13.1563C21.06 13.2076 21.0601 13.2628 21.0436 13.3142C21.0271 13.3655 20.9947 13.4103 20.9511 13.4421H20.9512Z" fill="black"/>
</svg>
