<svg width="24" height="24" viewBox="0 0 24 24" fill="none" xmlns="http://www.w3.org/2000/svg">
<path d="M20.9 11.1C20.5 10.9 16.9 8.79999 16.9 8.79999L4.6 1.69999C4.4 1.49999 4 1.49999 3.7 1.59999C3.7 1.59999 3.6 1.59999 3.6 1.69999C3.2 1.79999 3 2.19999 3 2.59999V21.6C3 21.9 3.2 22.3 3.4 22.4H3.5C3.6 22.4 3.7 22.5 3.8 22.5C4 22.5 4.2 22.4 4.4 22.3C4.8 22.1 16.8 15.1 16.8 15.1L20.8 12.8C21.2 12.6 21.4 12.3 21.4 11.9C21.5 11.6 21.3 11.2 20.9 11.1ZM15.8 9.29999L13.8 11.3L6.4 3.79999L15.8 9.29999ZM4 21V2.89999L13.2 12L4 21ZM6.4 20L13.8 12.6L15.8 14.5C14.2 15.6 9.4 18.3 6.4 20ZM20.4 12L16.7 14.1L14.6 12L16.8 9.89999C17.6 10.3 19.8 11.6 20.4 12Z" fill="black"/>
</svg>
