<svg width="24" height="24" viewBox="0 0 24 24" fill="none" xmlns="http://www.w3.org/2000/svg">
<path d="M13.2305 2.00348C12.2254 1.96485 11.223 2.13247 10.2851 2.49601C9.34729 2.85954 8.49382 3.41129 7.77734 4.11725C7.05829 4.81027 6.4861 5.64093 6.09485 6.55975C5.7036 7.47857 5.5013 8.46674 5.5 9.46539L3.65625 12.463C3.55697 12.6184 3.50287 12.7985 3.5 12.983V13.0235C3.50264 13.1423 3.52645 13.2597 3.57031 13.3702L5.00977 17.2427C5.02246 17.2769 5.03711 17.3096 5.05277 17.3418C5.30052 17.8413 5.68324 18.2614 6.15754 18.5545C6.63185 18.8476 7.17878 19.0019 7.73633 19.0001H8.5V21.0001C8.5 21.2653 8.60536 21.5196 8.79289 21.7072C8.98043 21.8947 9.23478 22.0001 9.5 22.0001C9.76522 22.0001 10.0196 21.8947 10.2071 21.7072C10.3946 21.5196 10.5 21.2653 10.5 21.0001V19.0001H12.4969L12.5 19.0006C12.6093 19.0003 12.7179 18.9822 12.8213 18.9468L16.5215 17.6906C16.5249 17.7311 16.5308 17.7713 16.5391 17.8111L17.5391 21.2774C17.5993 21.4857 17.7256 21.6689 17.8989 21.7993C18.0722 21.9297 18.2831 22.0003 18.5 22.0006C18.5938 22.0002 18.6872 21.9869 18.7773 21.961C19.0322 21.8874 19.2473 21.7156 19.3755 21.4834C19.5037 21.2512 19.5344 20.9776 19.4609 20.7227L18.5371 17.5225L20.4668 10.2564C20.4886 10.1727 20.4997 10.0866 20.5 10.0001V9.77252C20.5214 7.79076 19.7776 5.87711 18.4235 4.42997C17.0694 2.98282 15.2093 2.11368 13.2305 2.00348ZM11.5 17.0001H7.73633C7.55803 17.0007 7.38283 16.9534 7.22907 16.8631C7.07532 16.7728 6.94865 16.6429 6.86233 16.4869L5.93848 14.0001H11.5V17.0001ZM17.023 15.4087L13.5 16.6047V13.721L17.8448 12.2726L17.023 15.4087ZM18.4351 10.0203C18.3503 10.0196 18.2657 10.0301 18.1836 10.0513L12.3374 12.0001H6.28906L7.36328 10.2535C7.46702 10.0849 7.51834 9.88929 7.51074 9.69148C7.51074 9.68122 7.50098 9.51032 7.5 9.50007C7.49741 8.76346 7.64404 8.03396 7.93105 7.35555C8.21805 6.67715 8.63948 6.0639 9.16992 5.55279C9.69953 5.04062 10.3263 4.6396 11.0132 4.37335C11.7002 4.1071 12.4335 3.98101 13.1699 4.0025C14.6301 4.09361 15.999 4.74419 16.9918 5.81889C17.9845 6.89359 18.5247 8.30967 18.5 9.77252L18.4351 10.0203Z" fill="black"/>
</svg>
