<svg width="24" height="24" viewBox="0 0 24 24" fill="none" xmlns="http://www.w3.org/2000/svg">
<path d="M21.5 11H16V6.5C16 6.49982 16 6.49963 16 6.49939C15.9998 6.22345 15.776 5.99982 15.5 6H3V2.5C3 2.22388 2.77612 2 2.5 2C2.22388 2 2 2.22388 2 2.5V6.5V11.5V11.5005V17.5V17.5005V21.5C2 21.5002 2 21.5004 2 21.5005C2.00018 21.7766 2.224 22.0002 2.5 22C2.50018 22 2.50037 22 2.50061 22C2.77655 21.9998 3.00018 21.776 3 21.5V18H21.5C21.5002 18 21.5004 18 21.5006 18C21.7766 17.9998 22.0002 17.776 22 17.5V11.5C22 11.4998 22 11.4996 22 11.4994C21.9998 11.2234 21.776 10.9998 21.5 11ZM3 7H15V11H3V7ZM21 17H3V12H15.5H15.5006H21V17Z" fill="black"/>
</svg>
