<svg width="24" height="24" viewBox="0 0 24 24" fill="none" xmlns="http://www.w3.org/2000/svg">
<path d="M20.8692 2.16211C20.7744 2.05866 20.6404 1.99982 20.5001 2H3.50006C3.22443 1.99945 3.00055 2.22247 3 2.49811C2.99994 2.51343 3.00061 2.52875 3.00202 2.54401L4.50202 19.544C4.52015 19.7501 4.66346 19.9236 4.86237 19.9805L11.8526 21.9805C11.8974 21.9933 11.9437 21.9998 11.9903 22C12.0366 21.9999 12.0826 21.9933 12.127 21.9805L19.1368 19.9805C19.3359 19.9237 19.4796 19.7502 19.4981 19.5439L20.9981 2.54395C21.0107 2.40424 20.9639 2.26563 20.8692 2.16211ZM18.5323 19.1133L11.9903 20.9805L5.46784 19.1143L4.04596 3H19.9542L18.5323 19.1133ZM7.96009 7.5H15.4943L15.2278 10.5H10.0001C9.72394 10.5 9.50006 10.7239 9.50006 11C9.50006 11.2761 9.72394 11.5 10.0001 11.5H15.1389L14.794 15.3828L12.0001 16.0176L9.20606 15.3828L9.07813 13.9551C9.0467 13.6835 8.80793 13.4843 8.53516 13.502C8.26014 13.5269 8.05738 13.77 8.08204 14.0449L8.24219 15.835C8.26166 16.051 8.41828 16.2297 8.62983 16.2773L11.8897 17.0176C11.9622 17.0345 12.0377 17.0345 12.1104 17.0176L15.3701 16.2773C15.582 16.2295 15.7387 16.0503 15.7578 15.834L16.1841 11.0311C16.1849 11.0203 16.1904 11.011 16.1904 11L16.188 10.9879L16.5381 7.04389C16.5628 6.76941 16.3604 6.5268 16.0858 6.50202C16.0706 6.50067 16.0554 6.5 16.04 6.5H7.96009C7.6839 6.5 7.46009 6.72388 7.46009 7C7.46009 7.27612 7.6839 7.5 7.96009 7.5Z" fill="black"/>
</svg>
