<svg width="24" height="24" viewBox="0 0 24 24" fill="none" xmlns="http://www.w3.org/2000/svg">
<path d="M9.99945 14.5H10C10.276 14.5002 10.4998 14.2766 10.5 14.0005V6C10.5 5.72388 10.2761 5.5 10 5.5C9.72388 5.5 9.5 5.72388 9.5 6V14C9.49982 14.276 9.72345 14.4998 9.99945 14.5ZM13.9995 14.5H14C14.276 14.5002 14.4998 14.2766 14.5 14.0005V6C14.5 5.72388 14.2761 5.5 14 5.5C13.7239 5.5 13.5 5.72388 13.5 6V14C13.4998 14.276 13.7234 14.4998 13.9995 14.5ZM20 1H4C2.34387 1.00183 1.00183 2.34387 1 4V20C1.00183 21.6561 2.34387 22.9982 4 23H20C21.6561 22.9982 22.9982 21.6561 23 20V4C22.9982 2.34387 21.6561 1.00183 20 1ZM22 20C21.9986 21.104 21.104 21.9986 20 22H4C2.896 21.9986 2.0014 21.104 2 20V4C2.0014 2.896 2.896 2.0014 4 2H20C21.104 2.0014 21.9986 2.896 22 4V20ZM5.99939 12.5H6C6.276 12.5002 6.49982 12.2766 6.5 12.0005V8C6.5 7.72388 6.27612 7.5 6 7.5C5.72388 7.5 5.5 7.72388 5.5 8V12C5.49982 12.276 5.72345 12.4998 5.99939 12.5ZM18.0006 7.5H18C17.724 7.49982 17.5002 7.72345 17.5 7.99939V12C17.5 12.2761 17.7239 12.5 18 12.5C18.2761 12.5 18.5 12.2761 18.5 12V8C18.5002 7.724 18.2766 7.50018 18.0006 7.5ZM17.6797 15.791C16.0187 16.9549 14.0275 17.554 12 17.5C9.97229 17.5545 7.9809 16.955 6.32031 15.79C6.10864 15.6129 5.7934 15.6408 5.61621 15.8525C5.43903 16.0642 5.46704 16.3795 5.67871 16.5566C7.51337 17.8847 9.73608 18.5681 12 18.5C14.2637 18.5681 16.4864 17.8852 18.3213 16.5576C18.533 16.3804 18.561 16.0652 18.3838 15.8535C18.2066 15.6418 17.8914 15.6138 17.6797 15.791Z" fill="black"/>
</svg>
