<svg width="24" height="24" viewBox="0 0 24 24" fill="none" xmlns="http://www.w3.org/2000/svg">
<path d="M21.54 5.16008C21.3942 5.06143 21.225 5.00301 21.0494 4.99072C20.8738 4.97843 20.6981 5.0127 20.54 5.09008C17.8367 6.21904 14.9292 6.77737 12 6.73008C9.05735 6.78291 6.13575 6.22446 3.42001 5.09008C3.26191 5.0127 3.08619 4.97843 2.91061 4.99072C2.73502 5.00301 2.56579 5.06143 2.42001 5.16008C2.28658 5.255 2.1785 5.38124 2.10527 5.5277C2.03204 5.67417 1.99589 5.83638 2.00001 6.00008V18.0001C2.00029 18.1674 2.04255 18.332 2.12291 18.4787C2.20328 18.6255 2.31918 18.7497 2.46001 18.8401C2.60579 18.9387 2.77502 18.9971 2.95061 19.0094C3.12619 19.0217 3.30191 18.9874 3.46001 18.9101C6.16336 17.7811 9.07078 17.2228 12 17.2701C14.9427 17.2172 17.8643 17.7757 20.58 18.9101C20.7124 18.9684 20.8553 18.9991 21 19.0001C21.1916 18.9996 21.3791 18.944 21.54 18.8401C21.6808 18.7497 21.7967 18.6255 21.8771 18.4787C21.9575 18.332 21.9997 18.1674 22 18.0001V6.00008C21.9997 5.83276 21.9575 5.66818 21.8771 5.52143C21.7967 5.37467 21.6808 5.25043 21.54 5.16008ZM20 16.5201C17.42 15.6674 14.7172 15.2451 12 15.2701C9.28283 15.2451 6.58006 15.6674 4.00001 16.5201V7.52008C6.58006 8.37273 9.28283 8.79503 12 8.77008C14.7172 8.79503 17.42 8.37273 20 7.52008V16.5201Z" fill="black"/>
</svg>
