<svg width="24" height="24" viewBox="0 0 24 24" fill="none" xmlns="http://www.w3.org/2000/svg">
<path d="M18.1876 13.3789L12.1768 19.3886C10.2244 21.3413 7.05872 21.3415 5.10602 19.3891C3.15332 17.4367 3.15314 14.271 5.10553 12.3183L13.5909 3.83298C14.7623 2.66123 16.6619 2.66105 17.8336 3.8325C19.0053 5.00394 19.0055 6.90348 17.834 8.07517L10.0557 15.8535C9.6601 16.2314 9.03723 16.2314 8.64166 15.8535C8.25201 15.4627 8.25201 14.8302 8.64166 14.4394L13.9443 9.13566C13.9468 9.13334 13.9492 9.13096 13.9515 9.12852C14.1448 8.93131 14.1416 8.61478 13.9443 8.42155C13.7471 8.22825 13.4306 8.23148 13.2374 8.42869L7.93463 13.7324C7.93439 13.7326 7.93414 13.7329 7.9339 13.7331C7.15332 14.5141 7.15369 15.7799 7.93463 16.5605C8.72601 17.3159 9.97137 17.3159 10.7628 16.5605L18.5411 8.7822C20.0928 7.22178 20.0927 4.7009 18.5406 3.14072C16.9826 1.57462 14.45 1.56797 12.8839 3.12595L4.3985 11.6113C3.27356 12.7365 2.6416 14.2625 2.6416 15.8536C2.6416 19.1673 5.32794 21.8536 8.64166 21.8535C10.2338 21.858 11.7615 21.225 12.8839 20.0957L18.8946 14.0859C18.897 14.0835 18.8994 14.0812 18.9017 14.0788C19.095 13.8816 19.0917 13.565 18.8946 13.3717C18.6974 13.1785 18.3809 13.1817 18.1876 13.3789Z" fill="black"/>
</svg>
