<svg width="24" height="24" viewBox="0 0 24 24" fill="none" xmlns="http://www.w3.org/2000/svg">
<path d="M17.5625 21.5596H6.43747C6.22622 21.5596 6.0204 21.4927 5.84952 21.3684C5.67865 21.2442 5.5515 21.0691 5.48631 20.8682L2.04881 10.2881C1.98356 10.0874 1.98357 9.87115 2.04883 9.67044C2.1141 9.46973 2.24127 9.29485 2.41209 9.1709L11.4121 2.63184C11.5827 2.50714 11.7886 2.43994 12 2.43994C12.2113 2.43994 12.4172 2.50714 12.5879 2.63184L21.5879 9.1709C21.7587 9.29485 21.8859 9.46973 21.9511 9.67044C22.0164 9.87115 22.0164 10.0874 21.9511 10.2881L18.5136 20.8682C18.4485 21.0691 18.3213 21.2442 18.1504 21.3684C17.9795 21.4927 17.7737 21.5596 17.5625 21.5596Z" fill="black"/>
</svg>
