<svg width="24" height="24" viewBox="0 0 24 24" fill="none" xmlns="http://www.w3.org/2000/svg">
<path d="M20.5 16H16.5C16.2239 16 16 16.2239 16 16.5C16 16.7761 16.2239 17 16.5 17H19.476C17.8161 19.4747 15.035 20.9971 12.0175 21C7.04205 21.0048 3.00482 16.9754 3 12C2.99957 11.5248 3.03748 11.0502 3.11334 10.5811C3.15808 10.3087 2.97357 10.0516 2.70123 10.0069C2.42883 9.96209 2.17175 10.1466 2.12702 10.419C2.04224 10.9417 1.99976 11.4705 2 12C2.00647 17.5201 6.47986 21.9935 12 22C15.1759 22.0013 18.1254 20.4935 20 18.0014V20.5005C20.0002 20.7765 20.224 21.0002 20.5 21H20.5006C20.7766 20.9998 21.0002 20.776 21 20.5V16.4994C20.9998 16.2234 20.776 15.9998 20.5 16ZM16.7373 3.19646C12.3202 0.81774 6.92078 2.10723 4 6.00292V3.49999C4 3.22387 3.77612 2.99999 3.5 2.99999C3.22388 2.99999 3 3.22387 3 3.49999V7.5006C3.00018 7.77654 3.224 8.00017 3.5 7.99999H7.5C7.77612 7.99999 8 7.77611 8 7.49999C8 7.22387 7.77612 6.99999 7.5 6.99999H4.52399C6.1839 4.52532 8.96503 3.00286 11.9825 2.99999C16.9579 2.99517 20.9952 7.02459 21 12C21.0004 12.4753 20.9626 12.9498 20.8868 13.4189C20.8866 13.4197 20.8865 13.4205 20.8864 13.4213C20.8423 13.6931 21.027 13.9491 21.2989 13.9932C21.3259 13.9979 21.3534 14.0001 21.3809 14C21.6254 13.9996 21.8336 13.8223 21.873 13.581C21.9578 13.0583 22.0002 12.5295 22 12C21.9971 8.32128 19.9762 4.94073 16.7373 3.19646ZM15 12C15 10.3431 13.6569 8.99999 12 8.99999C10.3431 8.99999 9 10.3431 9 12C9 13.6569 10.3431 15 12 15C13.6561 14.9982 14.9982 13.6561 15 12ZM10 12C10 10.8954 10.8954 9.99999 12 9.99999C13.104 10.0014 13.9986 10.896 14 12C14 13.1045 13.1046 14 12 14C10.8954 14 10 13.1045 10 12Z" fill="black"/>
</svg>
