<svg width="24" height="24" viewBox="0 0 24 24" fill="none" xmlns="http://www.w3.org/2000/svg">
<g clip-path="url(#clip0_2_15542)">
<path d="M22.96 7.4043L16.5956 1.03999C16.5956 1.03999 16.5956 1.03992 16.5955 1.03986C16.4003 0.844734 16.0838 0.844795 15.8887 1.03999L1.03999 15.8887C1.03999 15.8887 1.03992 15.8888 1.03986 15.8889C0.844734 16.0841 0.844795 16.4006 1.03999 16.5957L7.40382 22.96C7.49757 23.0538 7.6247 23.1065 7.75733 23.1065C7.88996 23.1065 8.0171 23.0538 8.11085 22.96L11.2919 19.7791C11.2922 19.7788 11.2926 19.7787 11.2929 19.7784C11.2932 19.7781 11.2932 19.7777 11.2935 19.7774L14.1202 16.9509C14.1204 16.9507 14.1208 16.9506 14.121 16.9503C14.1213 16.9501 14.1213 16.9497 14.1216 16.9495L16.9497 14.1215C16.9498 14.1214 16.95 14.1213 16.9501 14.1212C16.9502 14.1211 16.9502 14.1209 16.9503 14.1208L19.7781 11.2932C19.7781 11.2931 19.7781 11.2932 19.7782 11.2931C19.7783 11.293 19.7782 11.293 19.7783 11.293L22.96 8.11134L22.9602 8.11115C23.1553 7.9159 23.1552 7.59943 22.96 7.4043ZM19.4248 10.2324L17.6572 8.46491C17.6549 8.46247 17.6525 8.46009 17.6501 8.45777C17.4529 8.26453 17.1364 8.26771 16.9431 8.46491C16.7498 8.66206 16.753 8.97865 16.9502 9.17188L18.7177 10.9394L16.5965 13.0606L13.414 9.87897C13.4116 9.87653 13.4092 9.87415 13.4069 9.87177C13.2097 9.67854 12.8931 9.68171 12.6998 9.87897C12.5066 10.0762 12.5098 10.3927 12.707 10.5859L15.8895 13.7675L13.7675 15.8894L12 14.1211C11.8056 13.9306 11.4946 13.9306 11.3002 14.1211C11.103 14.3144 11.0997 14.6309 11.293 14.8281L13.0605 16.5964L10.9393 18.7175L7.75727 15.5352C7.75495 15.5328 7.75257 15.5304 7.75013 15.528C7.55293 15.3348 7.2364 15.338 7.04316 15.5352C6.84986 15.7324 6.8531 16.049 7.0503 16.2422L10.2322 19.4246L7.75733 21.8994L2.10059 16.2422L16.2422 2.10059L21.8994 7.75782L19.4248 10.2324Z" fill="black"/>
</g>
<defs>
<clipPath id="clip0_2_15542">
<rect width="24" height="24" fill="white"/>
</clipPath>
</defs>
</svg>
