<svg width="24" height="24" viewBox="0 0 24 24" fill="none" xmlns="http://www.w3.org/2000/svg">
<path d="M10.586 20.4853L7.05046 16.9498C6.86292 16.7623 6.75757 16.5079 6.75757 16.2427C6.75757 15.9775 6.86292 15.7231 7.05046 15.5356C7.14332 15.4427 7.25356 15.3691 7.37488 15.3188C7.49621 15.2686 7.62625 15.2427 7.75757 15.2427C7.88889 15.2427 8.01893 15.2686 8.14026 15.3188C8.26158 15.3691 8.37182 15.4427 8.46468 15.5356L12.0002 19.0711L10.586 20.4853ZM13.4144 17.6569L11.2931 15.5356C11.1056 15.348 11.0002 15.0937 11.0002 14.8285C11.0002 14.5633 11.1056 14.3089 11.2931 14.1214C11.4806 13.9338 11.735 13.8285 12.0002 13.8285C12.2654 13.8285 12.5198 13.9338 12.7073 14.1214L14.8286 16.2427L13.4144 17.6569ZM16.2428 14.8285L12.7073 11.2929C12.5198 11.1054 12.4144 10.8511 12.4144 10.5858C12.4144 10.3206 12.5198 10.0663 12.7073 9.87873C12.8949 9.6912 13.1492 9.58584 13.4144 9.58584C13.6796 9.58584 13.934 9.6912 14.1215 9.87873L17.6571 13.4143L16.2428 14.8285ZM19.0713 12.0001L16.95 9.87873C16.7624 9.6912 16.6571 9.43684 16.6571 9.17163C16.6571 8.90641 16.7624 8.65206 16.95 8.46452C17.1375 8.27699 17.3918 8.17163 17.6571 8.17163C17.9223 8.17163 18.1766 8.27699 18.3642 8.46452L20.4855 10.5858L19.0713 12.0001Z" fill="black"/>
<path d="M22.6065 7.05077L16.9497 1.39354C16.8569 1.30067 16.7467 1.22699 16.6253 1.17673C16.504 1.12646 16.374 1.10059 16.2427 1.10059C16.1114 1.10059 15.9813 1.12646 15.86 1.17673C15.7387 1.22699 15.6285 1.30067 15.5356 1.39354L1.39355 15.5352C1.30067 15.628 1.227 15.7382 1.17673 15.8595C1.12646 15.9808 1.10059 16.1109 1.10059 16.2422C1.10059 16.3735 1.12646 16.5035 1.17673 16.6248C1.227 16.7462 1.30067 16.8564 1.39355 16.9492L7.05029 22.6064C7.14313 22.6993 7.25335 22.773 7.37466 22.8233C7.49598 22.8735 7.62601 22.8994 7.75733 22.8994C7.88864 22.8994 8.01867 22.8735 8.13999 22.8233C8.2613 22.773 8.37153 22.6993 8.46436 22.6064L10.5857 20.4852L7.05035 16.9498C6.95749 16.857 6.88384 16.7467 6.83358 16.6254C6.78333 16.5041 6.75747 16.374 6.75747 16.2427C6.75747 16.1114 6.78334 15.9813 6.8336 15.86C6.88386 15.7387 6.95752 15.6285 7.05038 15.5356C7.14324 15.4427 7.25348 15.3691 7.37481 15.3188C7.49614 15.2686 7.62618 15.2427 7.7575 15.2427C7.88882 15.2427 8.01886 15.2686 8.14018 15.3189C8.26151 15.3691 8.37174 15.4428 8.4646 15.5356L11.9999 19.071L13.4142 17.6568L11.293 15.5356C11.1062 15.348 11.0014 15.0938 11.0017 14.829C11.002 14.5642 11.1073 14.3103 11.2946 14.123C11.4818 13.9357 11.7357 13.8304 12.0005 13.8301C12.2654 13.8298 12.5195 13.9346 12.7072 14.1214L14.8284 16.2426L16.2426 14.8284L12.7072 11.293C12.5197 11.1055 12.4143 10.8511 12.4143 10.5859C12.4143 10.3207 12.5197 10.0663 12.7072 9.87877C12.8948 9.69124 13.1491 9.58589 13.4144 9.58589C13.6796 9.5859 13.9339 9.69126 14.1215 9.8788L17.6569 13.4143L19.0711 12.0001L16.9498 9.87877C16.7623 9.69123 16.6569 9.43688 16.6569 9.17165C16.6569 8.90643 16.7623 8.65207 16.9498 8.46453C17.1374 8.27699 17.3917 8.17164 17.657 8.17164C17.9222 8.17164 18.1765 8.27699 18.3641 8.46453L20.4854 10.5859L22.6064 8.46487C22.6993 8.37204 22.773 8.26182 22.8233 8.1405C22.8735 8.01919 22.8994 7.88915 22.8994 7.75783C22.8994 7.62651 22.8736 7.49648 22.8233 7.37516C22.773 7.25384 22.6993 7.14361 22.6065 7.05077Z" fill="#666666"/>
</svg>
