<svg width="24" height="24" viewBox="0 0 24 24" fill="none" xmlns="http://www.w3.org/2000/svg">
<path d="M17.6875 21.7441C17.2378 21.7441 16.801 21.5939 16.4463 21.3174L12.416 18.1953L9.71391 21.1777C9.59498 21.3088 9.44338 21.4061 9.27458 21.4594C9.10579 21.5128 8.92586 21.5204 8.75316 21.4815C8.58047 21.4425 8.4212 21.3585 8.29163 21.2378C8.16206 21.1172 8.06682 20.9644 8.01566 20.7949L5.99516 14.1133L2.37016 12.8525C1.9788 12.7162 1.6382 12.464 1.3936 12.1294C1.149 11.7949 1.01198 11.3938 1.00075 10.9796C0.989516 10.5653 1.1046 10.1574 1.33071 9.81009C1.55682 9.46278 1.88325 9.19249 2.26664 9.03513L20.1866 1.79977C20.5285 1.66078 20.9017 1.61704 21.2665 1.6732C21.6313 1.72936 21.9741 1.88333 22.2583 2.11873C22.5426 2.35414 22.7578 2.66218 22.881 3.01011C23.0042 3.35804 23.0308 3.73285 22.958 4.0947L19.6953 20.1113C19.5987 20.5725 19.3465 20.9864 18.9809 21.2837C18.6153 21.5809 18.1587 21.7435 17.6875 21.7441H17.6875Z" fill="#666666"/>
<path d="M8.97257 21.5059C8.75798 21.5059 8.54906 21.4369 8.37672 21.3091C8.20438 21.1812 8.07775 21.0013 8.01557 20.7959L5.84757 13.6367C5.7798 13.4136 5.7922 13.1739 5.88263 12.959C5.97305 12.744 6.1358 12.5675 6.34268 12.46L16.9101 6.95802C17.1219 6.84748 17.3663 6.81647 17.599 6.87059C17.8318 6.92472 18.0374 7.06041 18.1787 7.25308C18.3201 7.44575 18.3877 7.68266 18.3694 7.9209C18.3511 8.15914 18.2481 8.38295 18.079 8.55178L10.996 15.6348L9.95206 20.707C9.90745 20.925 9.7914 21.1218 9.62229 21.2663C9.45318 21.4108 9.24068 21.4948 9.01846 21.5049C9.00284 21.5059 8.98721 21.5059 8.97257 21.5059Z" fill="black"/>
</svg>
