<svg width="24" height="24" viewBox="0 0 24 24" fill="none" xmlns="http://www.w3.org/2000/svg">
<path d="M15.1737 17.1524C15.0287 17.5141 14.618 17.6896 14.2564 17.5446C14.2273 17.533 14.199 17.5194 14.1717 17.5039L11.4571 15.3946L9.71475 17.002C9.63259 17.0627 9.52518 17.0774 9.42975 17.0409L9.76375 14.0525L9.77444 14.0609L9.78127 14.0019C9.78127 14.0019 14.6663 9.55443 14.8653 9.36494C15.0667 9.17594 15.0003 9.13494 15.0003 9.13494C15.0117 8.90441 14.6387 9.13494 14.6387 9.13494L8.16623 13.299L5.47074 12.381C5.47074 12.381 5.05674 12.2325 5.01774 11.906C4.97674 11.582 5.48423 11.406 5.48423 11.406L16.2012 7.14847C16.2012 7.14847 17.0822 6.75595 17.0822 7.40598L15.1737 17.1524Z" fill="#666666"/>
<path d="M11.9941 2C6.47125 2 1.99414 6.47717 1.99414 12C1.99414 17.5228 6.47125 22 11.9941 22C17.517 22 21.9941 17.5228 21.9941 12C21.9941 6.47717 17.517 2 11.9941 2ZM15.174 17.1525C15.0289 17.5141 14.6182 17.6897 14.2566 17.5446C14.2275 17.533 14.1992 17.5194 14.1719 17.504L11.4573 15.3946L9.71496 17.002C9.63281 17.0627 9.52538 17.0774 9.42999 17.041L9.76397 14.0525L9.77465 14.061L9.78149 14.002C9.78149 14.002 14.6665 9.55444 14.8655 9.36499C15.067 9.17596 15.0005 9.13495 15.0005 9.13495C15.012 8.90442 14.639 9.13495 14.639 9.13495L8.16644 13.299L5.47094 12.381C5.47094 12.381 5.05694 12.2325 5.01794 11.906C4.97692 11.582 5.48443 11.406 5.48443 11.406L16.2014 7.1485C16.2014 7.1485 17.0825 6.75598 17.0825 7.40601L15.174 17.1525Z" fill="black"/>
</svg>
