<svg width="24" height="24" viewBox="0 0 24 24" fill="none" xmlns="http://www.w3.org/2000/svg">
<path d="M16.7854 17.9743C16.2717 18.1833 15.7253 18.3004 15.1711 18.3201C14.9073 18.3479 14.6407 18.3156 14.3912 18.2257C14.1417 18.1357 13.9158 17.9903 13.7306 17.8006C13.5453 17.6108 13.4055 17.3815 13.3215 17.1299C13.2376 16.8783 13.2118 16.6109 13.246 16.3479V10.1219H17.2625V7.0946H13.2611V2H10.3309C10.293 2.00319 10.2575 2.02011 10.2311 2.04759C10.2047 2.07507 10.1892 2.11124 10.1876 2.1493C10.1236 3.33209 9.71774 4.47088 9.01923 5.42752C8.32071 6.38415 7.35958 7.11751 6.25244 7.5386V10.122H8.27663V16.6576C8.27663 18.8943 9.9271 22.0729 14.2842 21.9988C15.5405 22.0282 16.7669 21.6134 17.7474 20.8274L16.7854 17.9744" fill="black"/>
</svg>
