<svg width="24" height="24" viewBox="0 0 24 24" fill="none" xmlns="http://www.w3.org/2000/svg">
<path d="M15.375 13.8672C14.935 13.3946 14.4082 13.011 13.8233 12.7375C15.5037 11.7017 16.6978 10.0347 17.1377 8.11035C17.1987 7.84125 17.0299 7.57367 16.7607 7.5127C16.4916 7.45172 16.2241 7.62054 16.1631 7.88965C15.7126 9.86847 14.3452 11.5137 12.4821 12.3183C12.374 12.3002 12.2637 12.2949 12.1543 12.2839V8.00201C12.1515 7.95807 12.1428 7.91467 12.1283 7.87311C12.1253 7.85138 12.121 7.82983 12.1153 7.80865C12.0919 7.7558 12.0595 7.7074 12.0196 7.66565C12.0152 7.66089 12.0133 7.65424 12.0088 7.64966C11.9728 7.61658 11.9321 7.58893 11.8881 7.56763C11.8745 7.56024 11.8643 7.54797 11.85 7.54187C11.8164 7.53131 11.7819 7.52417 11.7469 7.52069C11.7173 7.51154 11.687 7.50531 11.6562 7.50201L11.002 7.5H11C10.7239 7.49945 10.4996 7.72284 10.499 7.99902C10.4985 8.27515 10.7219 8.49945 10.998 8.5L11.1503 8.50043V13.96C11.1503 13.9669 11.1539 13.9726 11.1542 13.9794V14.9776C9.02545 13.173 7.60565 10.6719 7.14746 7.91901C7.09674 7.64972 6.84235 7.46863 6.57129 7.50885C6.29907 7.55487 6.11554 7.81268 6.16113 8.08502C6.724 11.4383 8.59418 14.4313 11.3613 16.4073C11.3704 16.4138 11.3826 16.4113 11.392 16.4172C11.4694 16.4702 11.5605 16.4996 11.6543 16.502C11.7279 16.5011 11.8004 16.4836 11.8664 16.451L11.8818 16.4473C11.8928 16.4416 11.8976 16.4293 11.9081 16.4229C11.9653 16.3882 12.0148 16.3423 12.0536 16.2878C12.0662 16.2716 12.0776 16.2546 12.088 16.2369C12.1297 16.1655 12.1525 16.0847 12.1543 16.002V13.2627C13.1078 13.382 13.9882 13.8356 14.6387 14.543L16.2861 16.3398C16.3807 16.4432 16.5143 16.502 16.6543 16.502C16.7796 16.5025 16.9004 16.4554 16.9922 16.3702C17.1954 16.1835 17.2089 15.8675 17.0225 15.6641L15.375 13.8672ZM15.0732 1.5H8.9375C3.0293 1.5 1.5 3.02734 1.5 8.92676V15.0625C1.5 20.9707 3.02734 22.5 8.92676 22.5H15.0625C20.9707 22.5 22.5 20.9727 22.5 15.0732V8.9375C22.5 3.0293 20.9727 1.5 15.0732 1.5ZM21.5 15.0732C21.5 20.419 20.417 21.5 15.0625 21.5H8.92676C3.58105 21.5 2.5 20.417 2.5 15.0625V8.92676C2.5 3.58105 3.58301 2.5 8.9375 2.5H15.0732C20.419 2.5 21.5 3.58301 21.5 8.9375V15.0732Z" fill="black"/>
</svg>
