<svg width="24" height="24" viewBox="0 0 24 24" fill="none" xmlns="http://www.w3.org/2000/svg">
<path opacity="0.2" d="M12 24C18.6274 24 24 18.6274 24 12C24 5.37258 18.6274 0 12 0C5.37258 0 0 5.37258 0 12C0 18.6274 5.37258 24 12 24Z" fill="#464646"/>
<path fill-rule="evenodd" clip-rule="evenodd" d="M16.6125 6.23015C15.5341 5.69964 14.315 5.50451 13.125 5.57118C12.1943 5.61887 11.2734 5.82426 10.4001 6.15297C8.65896 6.81092 7.07888 7.95733 5.97936 9.49092C5.3891 10.3184 4.9425 11.263 4.74449 12.2694C4.54521 13.2709 4.61441 14.3384 5.01547 15.2807C5.39816 16.2017 6.08529 16.9773 6.92037 17.4966C7.91572 18.1227 9.08946 18.4076 10.2511 18.4399C11.4551 18.4691 12.6595 18.2302 13.7801 17.7858C15.4916 17.1043 17.0399 15.9496 18.1067 14.4158C18.7453 13.4945 19.2065 12.4289 19.3436 11.304C19.3882 10.9743 19.3819 10.6402 19.3736 10.3081C19.3278 9.53426 19.0955 8.77169 18.6957 8.11143C18.2044 7.29118 17.4576 6.64708 16.6125 6.23015ZM8.78929 7.78964C9.73986 7.04759 10.9149 6.60785 12.1117 6.55554C13.2487 6.51195 14.4034 6.82067 15.3509 7.46836C16.1628 8.01528 16.8102 8.81015 17.1901 9.72323C17.6141 10.7263 17.7022 11.8663 17.4626 12.9289C17.2359 13.9525 16.7176 14.9035 15.9998 15.6543C15.3149 16.3719 14.4492 16.9063 13.5114 17.2027C12.4567 17.5378 11.3046 17.5568 10.2441 17.2361C9.30508 16.9555 8.44032 16.4078 7.79746 15.6537C7.01548 14.7437 6.56359 13.5427 6.56057 12.3319C6.54573 11.4266 6.77393 10.523 7.18531 9.7222C7.57253 8.96836 8.12656 8.30605 8.78929 7.78964Z" fill="white"/>
<path fill-rule="evenodd" clip-rule="evenodd" d="M10.0292 8.79793C10.1005 8.76255 10.187 8.77485 10.2522 8.81896C11.8551 9.81716 13.4586 10.8154 15.0619 11.8133C15.2095 11.89 15.2063 12.1328 15.0576 12.2066C13.4508 13.201 11.8443 14.1961 10.2371 15.1897C10.1025 15.2825 9.89439 15.1695 9.90395 15.002C9.90168 13.0008 9.90118 11.0002 9.90345 8.99896C9.89917 8.91255 9.95477 8.8346 10.0292 8.79793Z" fill="white"/>
</svg>
