<svg width="24" height="24" viewBox="0 0 24 24" fill="none" xmlns="http://www.w3.org/2000/svg">
<path opacity="0.2" d="M12 24C18.6274 24 24 18.6274 24 12C24 5.37258 18.6274 0 12 0C5.37258 0 0 5.37258 0 12C0 18.6274 5.37258 24 12 24Z" fill="#22AF53"/>
<path fill-rule="evenodd" clip-rule="evenodd" d="M8.5451 5.88599C8.55647 5.56627 8.91573 5.35496 9.17264 5.52312C10.6345 6.4303 12.0979 7.33415 13.5608 8.23911C13.6802 8.29719 13.6916 8.45816 13.6218 8.56437C13.2817 9.19718 12.9384 9.82888 12.6076 10.4672C12.5342 10.6193 12.4546 10.7681 12.3512 10.8992C12.2793 10.8533 12.2163 10.7936 12.1811 10.7112C11.9785 10.3173 11.7547 9.93619 11.5598 9.53792C11.5856 9.51856 11.6373 9.47984 11.6632 9.46048C11.9025 9.58107 12.2152 9.4284 12.2752 9.15182C12.3274 8.94107 12.2168 8.68938 12.0126 8.63296C11.4947 8.49965 10.9881 8.31711 10.4712 8.17993C10.2613 8.12627 10.0581 8.31213 10.0142 8.52509C9.9077 8.95877 9.7883 9.38857 9.67147 9.81948C9.61719 10.023 9.58359 10.2598 9.69422 10.4495C9.82448 10.652 10.1165 10.7128 10.299 10.5557C10.4174 10.4744 10.4515 10.3206 10.4841 10.184C10.511 10.1735 10.5647 10.1525 10.5921 10.142C10.833 10.5563 11.0573 10.9822 11.2801 11.4081C11.3396 11.4944 11.2476 11.5907 11.1612 11.573C10.4008 11.573 9.64046 11.5547 8.87954 11.563C8.76582 11.5708 8.65572 11.5387 8.55492 11.4845C8.53476 11.261 8.54303 11.0364 8.54251 10.8124C8.54458 9.17063 8.53941 7.52776 8.5451 5.88599Z" fill="#22AF53"/>
<path fill-rule="evenodd" clip-rule="evenodd" d="M14.2343 9.12648C14.3005 9.0153 14.3656 8.86207 14.5062 8.85156C14.6328 8.90522 14.7445 8.9893 14.8629 9.0601C16.2276 9.90422 17.5938 10.7467 18.9579 11.593C19.143 11.6992 19.2743 11.9636 19.1626 12.1766C19.0892 12.3597 18.9088 12.4366 18.7589 12.5311C17.3715 13.3885 15.9841 14.2465 14.5977 15.1061C14.4664 15.2145 14.3315 15.0718 14.2741 14.9484C13.8828 14.1912 13.4517 13.4582 13.0614 12.701C13.0774 12.6739 13.11 12.6191 13.1265 12.592C13.5938 12.5887 14.0611 12.6003 14.5284 12.5854C14.6365 12.7673 14.3801 12.8564 14.3837 13.0323C14.3377 13.258 14.4685 13.5102 14.682 13.5667C14.8174 13.6175 14.9683 13.5633 15.0665 13.4571C15.4206 13.0566 15.8068 12.6905 16.1666 12.2966C16.3304 12.1323 16.301 11.8342 16.1448 11.6754C15.8424 11.3524 15.5457 11.0232 15.2501 10.693C15.1239 10.5492 14.9626 10.4258 14.775 10.4065C14.5522 10.4209 14.347 10.6233 14.3511 10.8695C14.3454 11.0476 14.4716 11.1781 14.5744 11.2993C14.56 11.3269 14.5305 11.3811 14.516 11.4088C14.0689 11.4022 13.6217 11.4116 13.1746 11.4044C13.0624 11.4149 13.0567 11.2594 13.1126 11.1897C13.4863 10.5022 13.8704 9.82069 14.2343 9.12648Z" fill="#22AF53"/>
<path fill-rule="evenodd" clip-rule="evenodd" d="M8.50379 12.623C8.49087 12.5107 8.56324 12.3674 8.68575 12.399C9.51179 12.4001 10.3378 12.3951 11.1634 12.3995C11.2394 12.3829 11.2735 12.4692 11.3164 12.5168C11.0657 12.9615 10.833 13.4179 10.5844 13.8643C10.403 13.8565 10.4448 13.6253 10.3363 13.5219C10.1724 13.3155 9.83952 13.3305 9.69478 13.5534C9.56504 13.7304 9.64154 13.9649 9.69117 14.1591C9.82195 14.6182 9.90052 15.0928 10.0437 15.5475C10.1114 15.7704 10.3683 15.8401 10.5601 15.7754C10.9297 15.6692 11.2993 15.563 11.671 15.4657C11.8612 15.4142 12.0685 15.3567 12.1967 15.1846C12.3476 14.97 12.266 14.6276 12.0333 14.5231C11.9015 14.4484 11.7583 14.512 11.6239 14.5358C11.6017 14.507 11.5578 14.4501 11.5355 14.4218C11.7444 14.0208 11.9687 13.6297 12.1786 13.2298C12.2091 13.1717 12.2525 13.123 12.2928 13.0738C12.3208 13.0893 12.3755 13.1208 12.4035 13.1363C12.7188 13.7536 13.0491 14.3621 13.3742 14.9733C13.4756 15.1708 13.6069 15.3561 13.6658 15.5741C13.6746 15.6781 13.5882 15.7251 13.5174 15.7688C12.0778 16.6632 10.6413 17.5632 9.19647 18.4483C9.07706 18.5263 8.92302 18.5666 8.79017 18.5025C8.60459 18.4272 8.50018 18.206 8.50173 18.0024C8.50431 16.2091 8.50121 14.4158 8.50379 12.623Z" fill="black"/>
</svg>
