<svg width="24" height="24" viewBox="0 0 24 24" fill="none" xmlns="http://www.w3.org/2000/svg">
<path opacity="0.2" d="M12 24C18.6274 24 24 18.6274 24 12C24 5.37258 18.6274 0 12 0C5.37258 0 0 5.37258 0 12C0 18.6274 5.37258 24 12 24Z" fill="#27BBC0"/>
<path fill-rule="evenodd" clip-rule="evenodd" d="M12.1197 4.61523H11.7129C10.7176 4.64916 9.72737 4.87503 8.82625 5.30114C7.30941 6.00434 6.05369 7.24975 5.33253 8.75794C4.87082 9.71528 4.62733 10.7757 4.61536 11.8382V12.1219C4.65561 13.4116 5.03448 14.6902 5.72105 15.7836C6.19706 16.5507 6.82243 17.2183 7.52662 17.7798C7.61807 17.8164 7.69753 17.8734 7.77693 17.9304C7.81365 17.9567 7.85034 17.983 7.8882 18.0073C8.71615 18.5549 9.65652 18.9314 10.6335 19.1054C12.3306 19.4104 14.1325 19.0927 15.6164 18.2119C16.6476 17.6058 17.5258 16.7423 18.1488 15.7211C18.9685 14.3912 19.334 12.7922 19.1867 11.2381C19.0742 10.0073 18.6418 8.80717 17.9399 7.78995C17.8791 7.70779 17.8198 7.62397 17.7813 7.5285C17.1752 6.76642 16.4421 6.09814 15.5975 5.60883C14.546 4.99145 13.3375 4.65349 12.1197 4.61523ZM5.81586 9.47411C6.32679 8.19478 7.2522 7.08476 8.42076 6.35461C9.54775 5.63777 10.8999 5.2875 12.2335 5.35436C13.6063 5.4149 14.9525 5.92684 16.0226 6.78804C16.0303 6.79973 16.0434 6.82036 16.0537 6.83655C16.0572 6.84201 16.0603 6.84697 16.0628 6.85091C16.9137 7.50056 17.5611 8.39769 17.9782 9.37898C18.5134 10.6477 18.6282 12.0863 18.3125 13.4255C17.9672 14.9154 17.0744 16.267 15.849 17.1801C15.1477 17.703 14.3431 18.0878 13.4935 18.2961C12.2255 18.6087 10.8643 18.5356 9.63989 18.0808C8.55482 17.673 7.55889 16.9885 6.85136 16.0637C6.84338 16.0584 6.83132 16.0505 6.81926 16.0426C6.8072 16.0347 6.79515 16.0268 6.78717 16.0215C6.10226 15.1689 5.6349 14.1424 5.44696 13.0646C5.23473 11.8645 5.36014 10.6051 5.81586 9.47411Z" fill="#27BBC0"/>
<path fill-rule="evenodd" clip-rule="evenodd" d="M11.8572 6.5918C12.1739 6.65433 12.4986 6.68793 12.8103 6.77009L12.8066 6.78373C12.7261 7.12069 12.6782 7.46498 12.621 7.8066C12.6832 7.81492 12.7461 7.8229 12.8086 7.83221C12.9776 7.8555 13.1439 7.89541 13.3089 7.93832C13.3698 7.58573 13.4316 7.23379 13.4935 6.88153C13.8078 6.93541 14.1215 6.99329 14.4365 7.04485L14.4329 7.06681C14.3614 7.48294 14.2862 7.89874 14.215 8.31521C14.2732 8.35246 14.3314 8.38939 14.3903 8.42564C14.4402 8.45658 14.4891 8.48918 14.5373 8.52277C14.533 9.07196 14.5087 9.62049 14.5001 10.1693C14.4997 10.2452 14.4921 10.3207 14.4794 10.3952C14.3567 10.2209 14.2047 10.0719 14.0404 9.93783C14.0124 9.90589 13.9861 9.87263 13.9539 9.84535C13.3907 9.40926 12.6533 9.23263 11.9497 9.29516C10.9764 9.37234 10.0716 10.0539 9.75496 10.9817C9.52111 11.6715 9.54772 12.4616 9.88702 13.1125C9.9928 13.3022 10.1012 13.4994 10.2676 13.6431C10.551 13.9864 10.9448 14.2272 11.3669 14.3609C11.962 14.5462 12.618 14.5718 13.2138 14.3756C13.5537 14.2655 13.8644 14.0779 14.1332 13.844L14.1282 13.8826C14.0613 14.4025 14.0031 14.9238 13.9419 15.4447C13.9303 15.4809 13.9386 15.5412 13.892 15.5538C13.6485 15.6576 13.3977 15.7437 13.1416 15.8089C13.08 15.8109 13.0787 15.8778 13.0681 15.9234C12.9935 16.3621 12.9174 16.8009 12.8379 17.2389C12.5332 17.1944 12.2315 17.1298 11.9264 17.0866C11.9204 17.0786 11.9088 17.0623 11.9028 17.0543C11.9524 16.7263 12.0162 16.4004 12.0715 16.073C12.0798 16.0225 12.0881 15.9723 12.0961 15.9217C11.8536 15.9114 11.6134 15.8791 11.3739 15.8425C11.3127 16.2121 11.2492 16.5813 11.1803 16.9496C10.8736 16.902 10.5689 16.8424 10.2626 16.7925L10.2383 16.7882C10.3055 16.3904 10.3833 15.9945 10.4429 15.5957C10.0194 15.3881 9.65783 15.0748 9.32485 14.7451C8.6476 14.0696 8.21583 13.1521 8.13666 12.1981C8.05517 11.2657 8.30897 10.3087 8.84186 9.53932C9.47853 8.60593 10.5227 7.9676 11.6424 7.8199C11.7145 7.41076 11.7857 7.00128 11.8572 6.5918Z" fill="#27BBC0"/>
<path fill-rule="evenodd" clip-rule="evenodd" d="M11.2968 9.76434C11.8789 9.50887 12.5538 9.52251 13.1502 9.7211C13.3848 9.80692 13.6199 9.91536 13.8082 10.0807C13.7929 10.5028 13.7892 10.9253 13.7776 11.3474C13.6549 11.1874 13.57 10.9978 13.4127 10.8647C13.1868 10.6076 12.8485 10.4725 12.5156 10.4256C11.9704 10.3458 11.3776 10.573 11.0609 11.0314C10.6591 11.6048 10.693 12.488 11.2359 12.962C11.5176 13.2591 11.9341 13.3895 12.3349 13.3991C12.6446 13.4077 12.9557 13.3179 13.2128 13.1453C13.3631 13.0492 13.4879 12.9211 13.6206 12.8033L13.6106 12.8632C13.5494 13.2404 13.4692 13.6143 13.4194 13.9932C12.795 14.2946 12.0529 14.2803 11.4065 14.0577C11.19 13.9885 11.0001 13.8635 10.8055 13.75C10.3428 13.3778 10.0181 12.829 9.94526 12.2369C9.8927 11.7934 9.94393 11.3327 10.1222 10.9213C10.3468 10.4037 10.7845 9.9922 11.2968 9.76434Z" fill="#27BBC0"/>
<path fill-rule="evenodd" clip-rule="evenodd" d="M8.42076 6.35402C9.54775 5.63718 10.8999 5.28691 12.2335 5.35377C13.6063 5.41431 14.9525 5.92624 16.0226 6.78745C16.0329 6.80308 16.0529 6.83468 16.0628 6.85032C15.4298 6.37896 14.72 6.0084 13.9619 5.7852C12.6423 5.39102 11.1993 5.42495 9.90068 5.88366C8.72313 6.2968 7.67166 7.05555 6.90425 8.03917C6.19773 8.94129 5.73236 10.0314 5.57669 11.167C5.3954 12.4546 5.60297 13.7958 6.1771 14.9637C6.36438 15.3519 6.59723 15.7158 6.85136 16.0631C6.8354 16.0525 6.80313 16.0315 6.78716 16.0209C6.10226 15.1683 5.6349 14.1418 5.44696 13.064C5.23473 11.8639 5.36014 10.6045 5.81585 9.47352C6.32679 8.19418 7.2522 7.08416 8.42076 6.35402Z" fill="#007377"/>
<path fill-rule="evenodd" clip-rule="evenodd" d="M12.8066 6.7832C12.8635 6.83144 12.9167 6.88399 12.9659 6.93988C12.9097 7.23626 12.8605 7.53431 12.8086 7.83169C12.746 7.82237 12.6832 7.81439 12.621 7.80607C12.6782 7.46445 12.7261 7.12017 12.8066 6.7832Z" fill="#007377"/>
<path fill-rule="evenodd" clip-rule="evenodd" d="M14.4328 7.06641C14.4897 7.1163 14.5443 7.16853 14.5995 7.22042C14.5333 7.62258 14.4601 8.02375 14.3903 8.42524C14.3314 8.38898 14.2732 8.35206 14.215 8.31481C14.2862 7.89834 14.3613 7.48254 14.4328 7.06641Z" fill="#007377"/>
<path fill-rule="evenodd" clip-rule="evenodd" d="M17.7812 7.52734C18.7825 8.74381 19.3347 10.3066 19.3846 11.8769V12.317C19.3353 13.6526 18.9259 14.9748 18.1864 16.0898C17.5201 17.1037 16.5977 17.948 15.5276 18.5204C14.534 19.0557 13.4147 19.3467 12.2877 19.3833H11.8805C10.3085 19.3344 8.74441 18.7802 7.52661 17.7787C7.66033 17.8322 7.76844 17.9293 7.88819 18.0062C8.71613 18.5537 9.65651 18.9303 10.6335 19.1042C12.3306 19.4093 14.1325 19.0916 15.6164 18.2108C16.6476 17.6047 17.5258 16.7411 18.1488 15.7199C18.9684 14.39 19.334 12.791 19.1867 11.2369C19.0742 10.0062 18.6418 8.80601 17.9399 7.7888C17.879 7.70664 17.8198 7.62281 17.7812 7.52734Z" fill="#007377"/>
<path fill-rule="evenodd" clip-rule="evenodd" d="M14.5374 8.52148C14.5919 8.58202 14.6492 8.63957 14.7074 8.69645C14.6904 9.32248 14.6764 9.94851 14.6578 10.5742C14.5999 10.514 14.5407 10.4555 14.4785 10.3999L14.4795 10.3939C14.4922 10.3194 14.4998 10.2439 14.5001 10.1681C14.5088 9.6192 14.5331 9.07067 14.5374 8.52148Z" fill="#007377"/>
<path fill-rule="evenodd" clip-rule="evenodd" d="M11.9497 9.29347C12.6533 9.23093 13.3907 9.40756 13.9539 9.84366C13.9861 9.87093 14.0124 9.9042 14.0404 9.93613C13.9466 9.89655 13.8661 9.83268 13.7763 9.78611C13.238 9.49605 12.6064 9.39659 12.0023 9.47176C11.4248 9.54561 10.8816 9.82835 10.4778 10.2458C9.63588 11.1024 9.53376 12.5643 10.214 13.5466C10.2333 13.5772 10.2513 13.6088 10.2676 13.6414C10.1012 13.4977 9.9928 13.3005 9.88702 13.1108C9.54773 12.4599 9.52112 11.6699 9.75496 10.98C10.0716 10.0522 10.9764 9.37064 11.9497 9.29347Z" fill="#007377"/>
<path fill-rule="evenodd" clip-rule="evenodd" d="M13.8082 10.0801C13.8624 10.1333 13.9166 10.1869 13.9709 10.2404C13.9635 10.6622 13.9532 11.084 13.9446 11.5058C13.885 11.4572 13.8275 11.4056 13.7776 11.3468C13.7892 10.9247 13.7929 10.5022 13.8082 10.0801Z" fill="#007377"/>
<path fill-rule="evenodd" clip-rule="evenodd" d="M11.0609 11.0297C11.3776 10.5713 11.9704 10.3441 12.5156 10.4239C12.8485 10.4708 13.1868 10.6059 13.4127 10.863C13.2028 10.738 12.9776 10.6308 12.7328 10.5979C12.2278 10.5084 11.676 10.6801 11.3314 11.0646C11.0014 11.4292 10.8909 11.9617 10.9947 12.4361C11.0346 12.6274 11.1338 12.7967 11.2359 12.9603C10.693 12.4863 10.6591 11.6032 11.0609 11.0297Z" fill="#007377"/>
<path fill-rule="evenodd" clip-rule="evenodd" d="M13.6106 12.8613C13.6245 12.868 13.6528 12.881 13.6671 12.8873C13.6987 12.9295 13.73 12.9761 13.7845 12.9911C13.7193 13.3806 13.6359 13.7671 13.5863 14.159C12.9922 14.4434 12.293 14.444 11.6706 14.2551C11.3513 14.152 11.0383 13.9933 10.8054 13.7481C11 13.8616 11.19 13.9867 11.4065 14.0558C12.0528 14.2784 12.7949 14.2927 13.4193 13.9913C13.4692 13.6124 13.5494 13.2385 13.6106 12.8613Z" fill="#007377"/>
<path fill-rule="evenodd" clip-rule="evenodd" d="M14.1283 13.8809C14.1845 13.9314 14.239 13.984 14.2929 14.0372C14.2297 14.5914 14.1592 15.1446 14.0987 15.6991C13.8269 15.8172 13.5475 15.9206 13.2571 15.9831C13.1676 16.4565 13.0901 16.9318 13.0053 17.4062C12.6962 17.3533 12.3876 17.2977 12.0782 17.2449C12.027 17.192 11.9757 17.1394 11.9265 17.0849C12.2315 17.1281 12.5332 17.1926 12.8379 17.2372C12.9174 16.7991 12.9936 16.3604 13.0681 15.9216C13.0788 15.876 13.0801 15.8092 13.1416 15.8072C13.3978 15.742 13.6486 15.6558 13.8921 15.552C13.9387 15.5394 13.9303 15.4792 13.942 15.4429C14.0032 14.922 14.0614 14.4008 14.1283 13.8809Z" fill="#007377"/>
<path fill-rule="evenodd" clip-rule="evenodd" d="M11.3739 15.8418C11.6134 15.8784 11.8536 15.9107 12.0961 15.921C12.0881 15.9715 12.0798 16.0218 12.0715 16.0723C11.8932 16.066 11.7172 16.0334 11.5412 16.0051C11.4804 16.3763 11.4122 16.7466 11.3483 17.1175C11.0682 17.0692 10.7881 17.019 10.5077 16.9714C10.394 16.9691 10.3364 16.861 10.2626 16.7918C10.5689 16.8417 10.8736 16.9013 11.1803 16.9488C11.2492 16.5806 11.3127 16.2114 11.3739 15.8418Z" fill="#007377"/>
</svg>
