<svg width="24" height="24" viewBox="0 0 24 24" fill="none" xmlns="http://www.w3.org/2000/svg">
<path opacity="0.2" d="M12 24C18.6274 24 24 18.6274 24 12C24 5.37258 18.6274 0 12 0C5.37258 0 0 5.37258 0 12C0 18.6274 5.37258 24 12 24Z" fill="#32A4BE"/>
<path opacity="0.2" d="M12 24C18.6274 24 24 18.6274 24 12C24 5.37258 18.6274 0 12 0C5.37258 0 0 5.37258 0 12C0 18.6274 5.37258 24 12 24Z" fill="#C2A633"/>
<mask id="mask0_2492_4002" style="mask-type:luminance" maskUnits="userSpaceOnUse" x="0" y="0" width="24" height="24">
<path d="M12 24C18.6274 24 24 18.6274 24 12C24 5.37258 18.6274 0 12 0C5.37258 0 0 5.37258 0 12C0 18.6274 5.37258 24 12 24Z" fill="white"/>
</mask>
<g mask="url(#mask0_2492_4002)">
<path fill-rule="evenodd" clip-rule="evenodd" d="M12.1985 7.18677H8.92204V11.5384H6.9231V12.989H8.92204V17.3406H12.1985C13.928 17.3406 14.3006 17.1595 15.0459 16.7973C15.1038 16.7691 15.1639 16.7399 15.227 16.7096C16.1038 16.289 16.7851 15.6967 17.2711 14.9327C17.757 14.1687 18 13.2791 18 12.2637C18 11.2483 17.757 10.3586 17.2711 9.59468C16.7851 8.83072 16.1038 8.23842 15.227 7.81776C14.3503 7.3971 13.3408 7.18677 12.1985 7.18677ZM11.3567 12.989V15.4114H12.0782C13.1303 15.4114 13.9694 15.1285 14.5957 14.5628C15.2219 13.9971 15.535 13.2307 15.535 12.2637C15.535 11.2967 15.2219 10.5303 14.5957 9.96457C13.9694 9.39885 13.1303 9.116 12.0782 9.116H11.3567V11.5384H13.6865V12.989H11.3567Z" fill="#C2A633"/>
</g>
</svg>
