<svg width="24" height="24" viewBox="0 0 24 24" fill="none" xmlns="http://www.w3.org/2000/svg">
<path opacity="0.2" d="M12 24C18.6274 24 24 18.6274 24 12C24 5.37258 18.6274 0 12 0C5.37258 0 0 5.37258 0 12C0 18.6274 5.37258 24 12 24Z" fill="#614E80"/>
<path fill-rule="evenodd" clip-rule="evenodd" d="M12 9.1276C14.1412 9.1276 15.8769 8.53065 15.8769 7.79427C15.8769 7.05789 14.1412 6.46094 12 6.46094C9.85882 6.46094 8.12307 7.05789 8.12307 7.79427C8.12307 8.53065 9.85882 9.1276 12 9.1276ZM12 14.4609C15.5686 14.4609 18.4615 13.5655 18.4615 12.4609C18.4615 11.3564 15.5686 10.4609 12 10.4609C8.43138 10.4609 5.53845 11.3564 5.53845 12.4609C5.53845 13.5655 8.43138 14.4609 12 14.4609ZM15.8769 17.1276C15.8769 17.864 14.1412 18.4609 12 18.4609C9.85882 18.4609 8.12307 17.864 8.12307 17.1276C8.12307 16.3912 9.85882 15.7943 12 15.7943C14.1412 15.7943 15.8769 16.3912 15.8769 17.1276Z" fill="#614E80"/>
</svg>
