<svg width="24" height="24" viewBox="0 0 24 24" fill="none" xmlns="http://www.w3.org/2000/svg">
<path opacity="0.2" d="M12 24C18.6274 24 24 18.6274 24 12C24 5.37258 18.6274 0 12 0C5.37258 0 0 5.37258 0 12C0 18.6274 5.37258 24 12 24Z" fill="#0175B0"/>
<path fill-rule="evenodd" clip-rule="evenodd" d="M8.22449 10.123C8.76628 9.23476 9.26063 8.3179 9.80701 7.43188C10.8983 7.43414 11.9903 7.43264 13.0815 7.43264C12.578 8.36002 12.0431 9.27011 11.5242 10.1892C10.472 10.1832 9.41903 10.199 8.36759 10.1817C8.33162 10.1674 8.26045 10.1381 8.22449 10.123Z" fill="#0175B0"/>
<path fill-rule="evenodd" clip-rule="evenodd" d="M8.03227 11.0954C9.11892 11.0917 10.2048 11.0947 11.2907 11.0939C11.2019 11.3 11.1047 11.5031 10.9915 11.6972C10.5782 12.4049 10.1841 13.1225 9.77014 13.8295C8.92072 13.8295 8.0713 13.8295 7.22187 13.8295C6.97087 13.8287 6.71681 13.846 6.46887 13.7979C6.98847 12.8961 7.49966 11.9897 8.03227 11.0954Z" fill="#0175B0"/>
<path fill-rule="evenodd" clip-rule="evenodd" d="M6.06259 14.9029C6.1108 14.8179 6.17202 14.7089 6.29293 14.7352C7.34438 14.7337 8.39583 14.736 9.44727 14.7344C8.94451 15.6626 8.40654 16.5712 7.88847 17.491C6.84467 17.4895 5.80011 17.4925 4.75632 17.4895C4.62776 17.5264 4.59256 17.3617 4.6752 17.2955C5.1443 16.502 5.60268 15.7024 6.06259 14.9029Z" fill="#0175B0"/>
<path fill-rule="evenodd" clip-rule="evenodd" d="M13.0816 7.43262C14.1254 7.43337 15.1699 7.43337 16.2137 7.43262C15.7079 8.35925 15.1737 9.27084 14.6526 10.1884C13.6096 10.1892 12.5666 10.1884 11.5243 10.1892C12.0431 9.27009 12.578 8.36 13.0816 7.43262Z" fill="#00A2D0"/>
<path fill-rule="evenodd" clip-rule="evenodd" d="M11.2908 11.0939C12.34 11.0939 13.3899 11.0932 14.439 11.0947C13.9477 12.0198 13.419 12.9269 12.8848 13.8287C11.8471 13.8302 10.8087 13.8287 9.77026 13.8295C10.1843 13.1225 10.5784 12.4049 10.9916 11.6972C11.1049 11.5031 11.202 11.3 11.2908 11.0939Z" fill="#00A2D0"/>
<path fill-rule="evenodd" clip-rule="evenodd" d="M9.44735 14.7344C10.4858 14.7359 11.5242 14.7336 12.5627 14.7359C12.0821 15.6715 11.5311 16.5703 11.0207 17.4902C9.9769 17.4917 8.93311 17.4902 7.88855 17.491C8.40662 16.5711 8.94459 15.6625 9.44735 14.7344Z" fill="#00A2D0"/>
<path fill-rule="evenodd" clip-rule="evenodd" d="M16.2138 7.43273C17.2591 7.43574 18.3045 7.42671 19.349 7.43799C19.359 7.57639 19.2534 7.67943 19.1929 7.793C18.7728 8.52634 18.3534 9.25967 17.9379 9.99451C17.8866 10.0787 17.8346 10.2119 17.7083 10.1893C16.6898 10.1893 15.6713 10.1886 14.6527 10.1886C15.1738 9.27095 15.708 8.35936 16.2138 7.43273Z" fill="#00CCFF"/>
<path fill-rule="evenodd" clip-rule="evenodd" d="M14.4392 11.0948C15.4937 11.1038 16.549 11.0722 17.602 11.1106C17.1344 12.0275 16.5865 12.9044 16.0983 13.8108C15.0292 13.8544 13.9564 13.8183 12.885 13.8288C13.4192 12.927 13.9479 12.0199 14.4392 11.0948Z" fill="#00CCFF"/>
<path fill-rule="evenodd" clip-rule="evenodd" d="M12.5628 14.7359C13.5378 14.7329 14.5135 14.7359 15.4884 14.7336C15.5871 14.7148 15.7876 14.7585 15.6789 14.8938C15.1785 15.7581 14.6971 16.6335 14.1844 17.4917C13.1299 17.4895 12.0754 17.4917 11.0209 17.4902C11.5313 16.5704 12.0823 15.6716 12.5628 14.7359Z" fill="#00CCFF"/>
</svg>
