<svg width="24" height="24" viewBox="0 0 24 24" fill="none" xmlns="http://www.w3.org/2000/svg">
<path opacity="0.2" d="M12 24C18.6274 24 24 18.6274 24 12C24 5.37258 18.6274 0 12 0C5.37258 0 0 5.37258 0 12C0 18.6274 5.37258 24 12 24Z" fill="#4F9667"/>
<path fill-rule="evenodd" clip-rule="evenodd" d="M16.4608 14.8537C16.3303 14.848 16.2007 14.829 16.0742 14.797C15.1026 14.5444 14.711 13.632 14.711 13.632C14.5355 13.2808 14.444 12.832 14.4046 12.3606H15.8688V10.8495H14.4174C14.4528 10.4224 14.5051 10.0511 14.5445 9.80771C14.5851 9.54752 14.6907 9.30139 14.8518 9.09148C15.8127 7.85031 17.5674 8.41605 17.5674 8.41605V6.84905C14.99 6.69018 13.9563 7.93568 13.8747 8.03997L13.8621 8.05537C13.2123 8.81185 12.9885 9.95441 12.9201 10.8476H12.0394V6.70342H10.5078V10.8495H9.14437V6.48242H7.61305V10.8495H6.02478V12.3606H7.61305V18.4043H9.14437V12.3606H10.5078V15.5486H12.0394V12.3606H12.9277C13.0989 14.5971 14.5048 15.493 14.5048 15.493C15.7001 16.3221 17.8851 16.0274 17.8851 16.0274V14.8481C17.7002 14.9088 16.7779 14.8686 16.4608 14.8537Z" fill="url(#paint0_linear_2492_6053)"/>
<defs>
<linearGradient id="paint0_linear_2492_6053" x1="6.02533" y1="8.67149" x2="17.8851" y2="8.67149" gradientUnits="userSpaceOnUse">
<stop stop-color="#58B27A"/>
<stop offset="0.05" stop-color="#56AA75"/>
<stop offset="0.32" stop-color="#4A875D"/>
<stop offset="0.46" stop-color="#467A54"/>
<stop offset="1" stop-color="#466454"/>
</linearGradient>
</defs>
</svg>
