<svg width="24" height="24" viewBox="0 0 24 24" fill="none" xmlns="http://www.w3.org/2000/svg">
<path opacity="0.2" d="M12 24C18.6274 24 24 18.6274 24 12C24 5.37258 18.6274 0 12 0C5.37258 0 0 5.37258 0 12C0 18.6274 5.37258 24 12 24Z" fill="#008DAD"/>
<mask id="mask0_2492_4254" style="mask-type:luminance" maskUnits="userSpaceOnUse" x="0" y="0" width="24" height="24">
<path d="M12 24C18.6274 24 24 18.6274 24 12C24 5.37258 18.6274 0 12 0C5.37258 0 0 5.37258 0 12C0 18.6274 5.37258 24 12 24Z" fill="white"/>
</mask>
<g mask="url(#mask0_2492_4254)">
<path d="M12 20.3078C16.5882 20.3078 20.3076 16.5883 20.3076 12.0001C20.3076 7.41186 16.5882 3.69238 12 3.69238C7.41174 3.69238 3.69226 7.41186 3.69226 12.0001C3.69226 16.5883 7.41174 20.3078 12 20.3078Z" fill="#008DAD"/>
<mask id="mask1_2492_4254" style="mask-type:luminance" maskUnits="userSpaceOnUse" x="3" y="3" width="18" height="18">
<path d="M12 20.3078C16.5882 20.3078 20.3076 16.5883 20.3076 12.0001C20.3076 7.41186 16.5882 3.69238 12 3.69238C7.41174 3.69238 3.69226 7.41186 3.69226 12.0001C3.69226 16.5883 7.41174 20.3078 12 20.3078Z" fill="white"/>
</mask>
<g mask="url(#mask1_2492_4254)">
<path fill-rule="evenodd" clip-rule="evenodd" d="M15.7747 4.78245C15.5678 4.56053 15.303 4.41632 15.0047 4.35932C14.6666 4.30492 14.3045 4.32219 13.9975 4.4854C13.5154 4.74446 13.2274 5.29625 13.2248 5.83509C13.3365 5.81189 13.3766 5.71819 13.4163 5.62515C13.4343 5.58314 13.4522 5.54128 13.4766 5.50609C13.7689 4.93962 14.6045 4.70301 15.1038 5.13823C15.5747 5.50695 15.579 6.1995 15.3669 6.71158C15.0167 7.56129 14.3484 8.22361 13.706 8.86004C12.7798 8.27284 11.6191 8.14244 10.5567 8.34883C9.62973 8.53103 8.79412 9.10873 8.28707 9.90577C7.58168 10.9878 7.63601 12.5145 8.44229 13.53C8.73635 13.9117 9.12871 14.2113 9.56074 14.4203C9.48919 14.4825 9.41606 14.5448 9.34232 14.6076C8.75573 15.1073 8.13059 15.6398 7.95593 16.4176C7.82227 17.0506 8.43539 17.4444 8.90192 17.7155C8.75997 17.867 8.61564 18.0161 8.47128 18.1652C8.26835 18.3748 8.06535 18.5845 7.86884 18.801C7.774 18.9109 7.68607 19.0272 7.59838 19.1432C7.57444 19.1748 7.55053 19.2064 7.52649 19.2379C7.83693 19.3994 8.15341 19.5479 8.48196 19.6688C8.48282 19.484 8.50697 19.3001 8.55957 19.1231C8.74928 18.6214 9.08559 18.1896 9.45209 17.8036C10.0212 17.8744 10.593 17.9314 11.1656 17.9582C11.6215 17.9974 12.079 18.01 12.5362 18.0226C13.1461 18.0393 13.7557 18.0561 14.3614 18.1361C14.7537 18.1922 15.1901 18.2759 15.4453 18.6119C15.5341 18.8079 15.4841 19.4573 15.4453 19.6688C15.7066 19.5281 16.0252 19.3297 16.2727 19.1665C16.3029 18.3907 16.3029 18.3286 16.2727 18.1361C16.0709 17.2363 15.1754 16.6905 14.2932 16.5774C13.5062 16.4674 12.7129 16.4445 11.9195 16.4215C11.3239 16.4043 10.7282 16.3871 10.1351 16.333C9.80651 16.2924 9.35982 16.2026 9.28566 15.8183C9.28652 15.308 9.68837 14.928 10.0445 14.6163C10.9914 14.884 12.0219 14.9013 12.9592 14.5835C14.0018 14.22 14.8719 13.2943 15.0409 12.1846C15.1573 11.423 15.0357 10.6087 14.6192 9.95153C14.8048 9.95188 14.9903 9.95167 15.1759 9.95147C15.4544 9.95116 15.733 9.95084 16.0119 9.9524C16.0836 9.7492 16.1535 9.54527 16.2235 9.34128C16.3057 9.10142 16.388 8.86149 16.4732 8.62256C16.3693 8.59044 16.3115 8.66161 16.2541 8.73243C16.2282 8.7644 16.2023 8.79629 16.1723 8.81859C15.9812 9.02584 15.6827 9.03334 15.4199 9.03993C15.4122 9.04013 15.4046 9.04032 15.397 9.04051C14.8874 9.04483 14.3778 9.04397 13.8681 9.04051C14.1979 8.72871 14.5032 8.39228 14.8083 8.05602C14.9307 7.92106 15.0532 7.78613 15.1771 7.65282C15.5497 7.22365 15.8946 6.75043 16.0731 6.20468C16.2344 5.72111 16.155 5.14427 15.7747 4.78245ZM9.88847 9.5932C10.1161 9.1977 10.5068 8.8946 10.9543 8.79357C11.4933 8.6839 12.0935 8.83243 12.4703 9.24692C13.1007 9.9127 13.2921 10.8704 13.3128 11.7589C13.3275 12.4791 13.268 13.2943 12.7342 13.8357C12.1478 14.4678 11.0466 14.4808 10.4352 13.878C9.84794 13.3072 9.61942 12.4662 9.56768 11.6708C9.52888 10.9705 9.53577 10.221 9.88847 9.5932Z" fill="white"/>
</g>
</g>
</svg>
