<svg width="24" height="24" viewBox="0 0 24 24" fill="none" xmlns="http://www.w3.org/2000/svg">
<path opacity="0.2" d="M12 24C18.6274 24 24 18.6274 24 12C24 5.37258 18.6274 0 12 0C5.37258 0 0 5.37258 0 12C0 18.6274 5.37258 24 12 24Z" fill="#195047"/>
<path fill-rule="evenodd" clip-rule="evenodd" d="M19.0076 9.89666V10.6475L11.8399 15.1901L6.43826 12.4582L6.44858 12.0375L11.8192 14.7641L18.6461 10.4399V10.131L12.2014 6.92506L5.01297 11.5103V13.5606L11.8192 17.0328L18.925 12.5381L19.1264 12.8576L11.8399 17.4588L4.65149 13.7949V11.3026L12.1807 6.49902L19.0076 9.89666Z" fill="white"/>
<path fill-rule="evenodd" clip-rule="evenodd" d="M18.8868 13.4657L19.003 12.7388L18.2942 12.6177L18.3407 12.335L19.3341 12.5023L19.1714 13.5119L18.8868 13.4657Z" fill="white"/>
</svg>
