<svg width="24" height="24" viewBox="0 0 24 24" fill="none" xmlns="http://www.w3.org/2000/svg">
<path opacity="0.2" d="M12 24C18.6274 24 24 18.6274 24 12C24 5.37258 18.6274 0 12 0C5.37258 0 0 5.37258 0 12C0 18.6274 5.37258 24 12 24Z" fill="#017F04"/>
<path d="M13.021 13.8683L12.3719 11.8855L13.1829 10.8066L12.802 9.64095L12.777 9.62216L11.9786 10.6842L10.8887 7.35495L8.75003 8.74383L10.1703 13.09L9.54225 13.9255L9.93556 15.1268L10.5632 14.2919L11.4002 16.8533L17.0921 13.1569L16.5743 11.5607L13.021 13.8683Z" fill="#017F04"/>
<path fill-rule="evenodd" clip-rule="evenodd" d="M12 20.3068C16.5882 20.3068 20.3076 16.5873 20.3076 11.9991C20.3076 7.41089 16.5882 3.69141 12 3.69141C7.41174 3.69141 3.69226 7.41089 3.69226 11.9991C3.69226 16.5873 7.41174 20.3068 12 20.3068Z" stroke="#017F04"/>
</svg>
