<svg width="24" height="24" viewBox="0 0 24 24" fill="none" xmlns="http://www.w3.org/2000/svg">
<path opacity="0.2" d="M12 24C18.6274 24 24 18.6274 24 12C24 5.37258 18.6274 0 12 0C5.37258 0 0 5.37258 0 12C0 18.6274 5.37258 24 12 24Z" fill="#35B14F"/>
<path fill-rule="evenodd" clip-rule="evenodd" d="M8.30774 7.38477V12.7651C8.30774 12.7651 8.27891 17.8024 13.6794 17.5278C13.6794 17.5278 16.8477 13.1083 10.1367 8.96317C10.1367 8.96317 16.6317 10.824 15.4653 17.5386C15.4653 17.5386 19.2671 15.0985 16.5741 10.6926C16.5741 10.6926 14.7307 7.53577 8.30774 7.38477Z" fill="#35B14F"/>
</svg>
