<svg width="24" height="24" viewBox="0 0 24 24" fill="none" xmlns="http://www.w3.org/2000/svg">
<path opacity="0.2" d="M12 24C18.6274 24 24 18.6274 24 12C24 5.37258 18.6274 0 12 0C5.37258 0 0 5.37258 0 12C0 18.6274 5.37258 24 12 24Z" fill="#B166EE"/>
<path fill-rule="evenodd" clip-rule="evenodd" d="M14.091 14.6202C14.3836 14.6202 14.6208 14.383 14.6208 14.0904C14.6208 13.7978 14.3836 13.5605 14.091 13.5605C13.7984 13.5605 13.5612 13.7978 13.5612 14.0904C13.5612 14.383 13.7984 14.6202 14.091 14.6202Z" fill="#A566EB"/>
<path fill-rule="evenodd" clip-rule="evenodd" d="M9.909 14.6202C10.2016 14.6202 10.4388 14.383 10.4388 14.0904C10.4388 13.7978 10.2016 13.5605 9.909 13.5605C9.61637 13.5605 9.37915 13.7978 9.37915 14.0904C9.37915 14.383 9.61637 14.6202 9.909 14.6202Z" fill="#A566EB"/>
<path fill-rule="evenodd" clip-rule="evenodd" d="M4.61536 11.9998C4.61536 7.92354 7.92366 4.61523 12 4.61523C16.0763 4.61523 19.3846 7.92354 19.3846 11.9998C19.3846 16.0762 16.0763 19.3845 12 19.3845C7.92366 19.3845 4.61536 16.0762 4.61536 11.9998ZM11.6665 9.90882C11.6665 8.93819 10.8797 8.15128 9.90894 8.15128C8.93831 8.15128 8.15141 8.93819 8.15141 9.90882C8.15141 10.8795 8.93831 11.6664 9.90894 11.6664C10.8796 11.6664 11.6665 10.8795 11.6665 9.90882ZM11.6665 14.0909C11.6665 15.0616 10.8796 15.8484 9.90894 15.8484C8.93831 15.8484 8.15141 15.0615 8.15141 14.0909C8.15141 13.1202 8.93831 12.3333 9.90894 12.3333C11.2478 12.3333 12.3333 11.2478 12.3333 9.90897C12.3333 8.93826 13.1202 8.15143 14.0909 8.15143C15.0615 8.15143 15.8484 8.93834 15.8484 9.90897C15.8484 10.8796 15.0615 11.6665 14.0909 11.6665C12.752 11.6665 11.6666 12.7519 11.6666 14.0909H11.6665ZM12.3333 14.0909C12.3333 15.0615 13.1201 15.8484 14.0909 15.8484H14.091C15.0616 15.8484 15.8484 15.0615 15.8484 14.0909C15.8484 13.1202 15.0615 12.3333 14.0909 12.3333C13.1202 12.3333 12.3333 13.1202 12.3333 14.0909Z" fill="url(#paint0_linear_2492_5140)"/>
<path fill-rule="evenodd" clip-rule="evenodd" d="M14.091 10.4386C14.3836 10.4386 14.6208 10.2014 14.6208 9.90875C14.6208 9.61613 14.3836 9.37891 14.091 9.37891C13.7984 9.37891 13.5612 9.61613 13.5612 9.90875C13.5612 10.2014 13.7984 10.4386 14.091 10.4386Z" fill="#A566EB"/>
<path fill-rule="evenodd" clip-rule="evenodd" d="M9.909 10.4386C10.2016 10.4386 10.4388 10.2014 10.4388 9.90875C10.4388 9.61613 10.2016 9.37891 9.909 9.37891C9.61637 9.37891 9.37915 9.61613 9.37915 9.90875C9.37915 10.2014 9.61637 10.4386 9.909 10.4386Z" fill="#A566EB"/>
<defs>
<linearGradient id="paint0_linear_2492_5140" x1="10.2711" y1="3.08846" x2="3.10742" y2="13.7303" gradientUnits="userSpaceOnUse">
<stop stop-color="#C764F5"/>
<stop offset="1" stop-color="#7C6CDF"/>
</linearGradient>
</defs>
</svg>
