<svg width="24" height="24" viewBox="0 0 24 24" fill="none" xmlns="http://www.w3.org/2000/svg">
<path opacity="0.2" d="M12 24C18.6274 24 24 18.6274 24 12C24 5.37258 18.6274 0 12 0C5.37258 0 0 5.37258 0 12C0 18.6274 5.37258 24 12 24Z" fill="#231F20"/>
<path fill-rule="evenodd" clip-rule="evenodd" d="M12.0052 5.86597C11.8437 5.86597 11.6837 5.87415 11.5245 5.8868V4.63235C11.6837 4.62267 11.8415 4.61523 12.0052 4.61523C12.247 4.61598 12.4881 4.62788 12.7291 4.65169V5.90838C12.4888 5.88011 12.247 5.86597 12.0052 5.86597ZM6.05061 10.5229C5.23588 13.8101 7.24033 17.1352 10.5275 17.95V19.2319C7.62426 18.6419 5.35567 16.3726 4.7649 13.4693C3.95241 9.47383 6.532 5.57654 10.5275 4.76404V6.04603C8.32068 6.5929 6.59748 8.3161 6.05061 10.5229Z" fill="#231F20"/>
<path fill-rule="evenodd" clip-rule="evenodd" d="M13.7254 6.11099V4.81934L13.7262 4.82306C16.4218 5.4726 18.5267 7.57676 19.1755 10.2724C20.1294 14.2359 17.6897 18.2225 13.7262 19.1771V17.8862C15.6852 17.3111 17.2306 15.8006 17.8511 13.8557H16.5022C16.0796 14.8773 15.3221 15.7248 14.3534 16.2582C12 17.5544 9.04243 16.698 7.74631 14.3446C6.45019 11.9912 7.30658 9.03359 9.65998 7.73747C12.0134 6.44135 14.971 7.29848 16.2671 9.65114H17.6718C16.9583 7.93538 15.5082 6.6348 13.7254 6.11099ZM11.7284 13.1392L13.151 15.1593L13.1562 15.16H14.9099L13.279 12.9406C13.279 12.9406 14.5468 12.605 14.5468 10.9205C14.5468 9.23597 13.1123 8.83716 12.2098 8.83716H9.36088V9.99638H12.0677C12.7567 9.99638 13.064 10.4592 13.064 10.9659C13.064 11.4726 12.8199 11.8982 12.1406 11.8982H9.36013V13.1392H11.7284Z" fill="#D31F26"/>
<path fill-rule="evenodd" clip-rule="evenodd" d="M12.7291 18.0879C12.4888 18.1162 12.247 18.1303 12.0052 18.1303C11.8415 18.1303 11.6838 18.1221 11.5245 18.1095V19.3624C11.6838 19.3729 11.8437 19.3795 12.0052 19.3795C12.2515 19.3795 12.491 19.3669 12.7291 19.3431V18.0879V18.0879Z" fill="#231F20"/>
</svg>
