<svg width="24" height="24" viewBox="0 0 24 24" fill="none" xmlns="http://www.w3.org/2000/svg">
<path opacity="0.2" d="M12 24C18.6274 24 24 18.6274 24 12C24 5.37258 18.6274 0 12 0C5.37258 0 0 5.37258 0 12C0 18.6274 5.37258 24 12 24Z" fill="#BB1B21"/>
<path fill-rule="evenodd" clip-rule="evenodd" d="M10.983 4.23179C11.3257 4.07809 11.6228 3.81889 11.9798 3.70508C12.0751 4.25172 12.0144 4.80834 12.0304 5.35914C12.0236 6.18243 12.0549 7.00656 12.0101 7.82819C11.4135 8.13889 10.8421 8.49612 10.2589 8.83092C9.6285 9.18566 8.98203 9.51465 8.38113 9.91757C8.44189 9.96908 8.50519 10.0189 8.57018 10.0654C8.5246 10.0779 8.43261 10.1028 8.38704 10.1153C8.29167 10.3712 8.36509 10.6594 8.34315 10.927C8.3153 11.9746 8.37522 13.0246 8.3077 14.0714C7.46037 14.4893 6.65946 14.9944 5.83154 15.4497C5.44332 15.6931 5.02387 15.8866 4.64409 16.1442L4.64325 16.145C4.65253 13.3744 4.62974 10.598 4.65591 7.83068C6.76242 6.62772 8.87738 5.43723 10.983 4.23179Z" fill="#D11D23"/>
<path fill-rule="evenodd" clip-rule="evenodd" d="M15.5556 9.87109C15.6146 9.95168 15.575 10.0763 15.591 10.1718C15.5843 11.467 15.5758 12.763 15.602 14.059C14.7184 14.6638 13.7461 15.1307 12.8237 15.6757C12.5308 15.8302 12.265 16.0404 11.951 16.1517C11.9139 16.1376 11.8396 16.1085 11.8025 16.0936C11.9097 16.072 11.9569 16.0096 11.9451 15.905C11.9687 14.6048 11.9578 13.3038 11.9603 12.0028C12.4177 11.7254 12.8912 11.4753 13.3587 11.2161C13.9959 10.8439 14.6247 10.4593 15.2771 10.1145C15.3893 10.058 15.4762 9.9658 15.5556 9.87109Z" fill="#D11D23"/>
<path fill-rule="evenodd" clip-rule="evenodd" d="M11.9797 3.70508C12.3384 3.838 12.6321 4.10219 12.9874 4.24425C15.083 5.45717 17.1962 6.63936 19.2968 7.83732C19.3323 8.21532 19.3112 8.60163 19.3087 8.98129C19.2639 9.12419 19.2546 9.27455 19.258 9.42326C19.2546 11.5592 19.2698 13.6951 19.2665 15.8302C19.258 15.895 19.2411 16.0246 19.2327 16.0885C18.0098 15.4364 16.8291 14.7053 15.602 14.0598C15.5758 12.7638 15.5843 11.4678 15.591 10.1726C15.575 10.0771 15.6147 9.95246 15.5556 9.87188C14.9606 9.58277 14.4145 9.20726 13.8229 8.91234C13.2305 8.53185 12.5823 8.23942 12.0101 7.82819C12.0548 7.00656 12.0236 6.18243 12.0304 5.35914C12.0143 4.80834 12.0751 4.25172 11.9797 3.70508Z" fill="#BB1B21"/>
<path fill-rule="evenodd" clip-rule="evenodd" d="M8.38707 10.1163C8.43264 10.1038 8.52464 10.0789 8.57021 10.0664C9.29601 10.4627 10.0032 10.8897 10.7189 11.3018C11.1519 11.5028 11.5468 11.7703 11.9604 12.0046C11.9578 13.3056 11.9688 14.6066 11.9452 15.9067C11.957 16.0114 11.9097 16.0737 11.8026 16.0953C10.6506 15.3991 9.45383 14.7777 8.30774 14.0724C8.37526 13.0256 8.31533 11.9755 8.34319 10.9279C8.36513 10.6604 8.2917 10.3721 8.38707 10.1163Z" fill="#BB1B21"/>
<path fill-rule="evenodd" clip-rule="evenodd" d="M10.2589 8.83086C10.8421 8.49606 11.4134 8.13883 12.0101 7.82812C12.5823 8.23936 13.2305 8.53179 13.8229 8.91228C14.4145 9.2072 14.9606 9.58271 15.5556 9.87182C15.4762 9.96653 15.3893 10.0587 15.2771 10.1152C14.6247 10.46 13.9959 10.8446 13.3588 11.2168C12.8912 11.476 12.4177 11.7261 11.9603 12.0036C11.5468 11.7693 11.1518 11.5018 10.7189 11.3007C10.0032 10.8887 9.29595 10.4617 8.57015 10.0654C8.50517 10.0189 8.44187 9.96902 8.3811 9.91751C8.982 9.51459 9.62847 9.1856 10.2589 8.83086Z" fill="#ED4340"/>
<path fill-rule="evenodd" clip-rule="evenodd" d="M19.258 9.42244C19.2546 9.27373 19.2639 9.12336 19.3086 8.98047C19.3103 11.3457 19.3137 13.7117 19.3128 16.0786C19.2732 16.1791 19.1719 16.2115 19.0875 16.2647C16.7489 17.6155 14.3909 18.9273 12.0506 20.2773C11.6548 20.2532 11.3577 19.8918 10.9822 19.7672C8.88155 18.541 6.73959 17.3729 4.64404 16.1434C5.02382 15.8858 5.44327 15.6923 5.83149 15.4488C6.65941 14.9936 7.46032 14.4885 8.30766 14.0706C9.45375 14.7759 10.6505 15.3973 11.8025 16.0935C11.8396 16.1085 11.9139 16.1375 11.951 16.1517C12.265 16.0403 12.5308 15.8302 12.8237 15.6756C13.7461 15.1307 14.7183 14.6638 15.602 14.059C16.8291 14.7045 18.0098 15.4355 19.2327 16.0877C19.2411 16.0237 19.258 15.8941 19.2664 15.8293C19.2698 13.6943 19.2546 11.5583 19.258 9.42244Z" fill="#ED4340"/>
</svg>
