<svg width="24" height="24" viewBox="0 0 24 24" fill="none" xmlns="http://www.w3.org/2000/svg">
<path opacity="0.2" d="M12 24C18.6274 24 24 18.6274 24 12C24 5.37258 18.6274 0 12 0C5.37258 0 0 5.37258 0 12C0 18.6274 5.37258 24 12 24Z" fill="#FF435A"/>
<path d="M8.7741 6.46843C10.0607 6.49865 11.3496 7.17504 11.9769 8.31242C12.9826 6.51075 15.5855 5.92656 17.3265 6.99744C19.006 7.9935 19.7757 10.235 19.0874 12.048C18.6756 13.1521 17.9455 14.1059 17.1438 14.9606C15.5725 16.5817 13.7911 17.9866 11.9761 19.328C11.0991 18.6705 10.2122 18.0236 9.38238 17.3064C8.17267 16.299 6.96829 15.2622 5.99992 14.016C5.35967 13.1809 4.80163 12.2347 4.64937 11.1797C4.48569 9.90929 4.91887 8.57013 5.81569 7.64511C6.57318 6.85612 7.67707 6.41855 8.7741 6.46843Z" fill="#FF435A"/>
<path d="M7.5083 12.6578H9.59274L10.0738 13.7721C10.1043 13.8428 10.2065 13.8368 10.2285 13.7629L10.8132 11.8023C10.8361 11.7254 10.9444 11.7233 10.9703 11.7993L11.9726 14.7382C11.9994 14.817 12.1128 14.8109 12.1311 14.7296L13.3105 9.48251C13.329 9.40022 13.4445 9.39547 13.4697 9.47598L14.447 12.6C14.4577 12.6344 14.4896 12.6578 14.5257 12.6578H16.3744" stroke="white" stroke-width="0.5"/>
<path fill-rule="evenodd" clip-rule="evenodd" d="M16.4155 13.1879C16.7098 13.1879 16.9484 12.9511 16.9484 12.6589C16.9484 12.3667 16.7098 12.1299 16.4155 12.1299C16.1212 12.1299 15.8826 12.3667 15.8826 12.6589C15.8826 12.9511 16.1212 13.1879 16.4155 13.1879Z" fill="white"/>
</svg>
