<svg width="24" height="24" viewBox="0 0 24 24" fill="none" xmlns="http://www.w3.org/2000/svg">
<path opacity="0.2" d="M12 24C18.6274 24 24 18.6274 24 12C24 5.37258 18.6274 0 12 0C5.37258 0 0 5.37258 0 12C0 18.6274 5.37258 24 12 24Z" fill="#418BCA"/>
<path fill-rule="evenodd" clip-rule="evenodd" d="M4.61536 11.9998C4.61536 7.92125 7.92152 4.61523 12 4.61523C16.0786 4.61523 19.3846 7.92125 19.3846 11.9998C19.3846 16.0784 16.0784 19.3845 12 19.3845C7.92152 19.3845 4.61536 16.0784 4.61536 11.9998ZM12.7096 10.5034C12.7096 10.1115 12.3919 9.79377 12 9.79377C11.608 9.79389 11.2904 10.1116 11.2903 10.5036C11.2904 10.8955 11.6082 11.2131 12.0001 11.2131C12.392 11.213 12.7097 10.8953 12.7096 10.5034ZM15.2157 14.5902C14.9286 14.5902 14.6698 14.4173 14.5599 14.1521C14.45 13.8869 14.5107 13.5816 14.7136 13.3786C14.9166 13.1756 15.2219 13.1148 15.4872 13.2247C15.7524 13.3346 15.9253 13.5934 15.9253 13.8805C15.9252 14.2724 15.6076 14.5901 15.2157 14.5902V14.5902ZM7.52327 8.81117L12 17.5309L16.4771 8.81117H14.1214L12.0156 13.2257L9.86301 8.81117H7.52327Z" fill="#418BCA"/>
</svg>
