<svg width="24" height="24" viewBox="0 0 24 24" fill="none" xmlns="http://www.w3.org/2000/svg">
<path opacity="0.2" d="M12 24C18.6274 24 24 18.6274 24 12C24 5.37258 18.6274 0 12 0C5.37258 0 0 5.37258 0 12C0 18.6274 5.37258 24 12 24Z" fill="#8200FE"/>
<path fill-rule="evenodd" clip-rule="evenodd" d="M6.22643 7.85788C6.95347 7.70349 7.66895 7.50082 8.39395 7.33895C8.67212 7.30427 8.90744 7.57495 8.90608 7.84156C8.91424 8.42101 8.91152 9.00183 8.90472 9.58197C8.62655 9.65134 8.3205 9.67038 8.08314 9.84585C7.83014 10.0186 7.66011 10.3172 7.66963 10.6273C7.66351 11.759 7.67439 12.8907 7.66487 14.0218C7.20715 14.136 6.75352 14.2659 6.29308 14.3686C6.10401 14.4081 5.88229 14.4414 5.71702 14.3162C5.57556 14.1979 5.54699 14.002 5.55175 13.8286C5.55311 12.0569 5.55447 10.2859 5.55175 8.51419C5.55855 8.3734 5.54971 8.20814 5.65717 8.1C5.81224 7.95582 6.02579 7.90345 6.22643 7.85788Z" fill="#8200FE"/>
<path fill-rule="evenodd" clip-rule="evenodd" d="M12.2067 7.71348C12.676 7.56997 13.1616 7.4904 13.6329 7.35437C13.9274 7.26256 14.2573 7.5278 14.2369 7.83658C14.2478 8.43168 14.277 9.03222 14.2137 9.6246C13.8982 9.66812 13.5595 9.75314 13.3541 10.017C13.099 10.317 13.1364 10.7366 13.1351 11.1038C13.1324 12.073 13.146 13.0415 13.1276 14.01C12.5597 14.1045 12.0163 14.3113 11.4477 14.3983C11.1743 14.4541 10.8717 14.2555 10.8737 13.963C10.8642 12.1478 10.8737 10.3319 10.8683 8.51669C10.8649 8.33374 10.8989 8.10862 11.0852 8.02293C11.4314 7.83794 11.8347 7.82161 12.2067 7.71348Z" fill="#8200FE"/>
<path fill-rule="evenodd" clip-rule="evenodd" d="M18.9547 7.39377C19.2778 7.21898 19.7369 7.4611 19.7117 7.84264C19.7178 9.63338 19.7124 11.4241 19.7144 13.2155C19.7158 13.4114 19.6933 13.6746 19.4811 13.7569C18.9017 13.9603 18.2909 14.0507 17.7033 14.2248C17.3939 14.2983 17.0831 14.4037 16.7614 14.3996C16.5077 14.3908 16.3193 14.1446 16.3404 13.8977C16.3281 12.1498 16.339 10.4012 16.3349 8.65334C16.3377 8.48739 16.3329 8.31532 16.3934 8.15753C16.7076 7.83516 17.1926 7.85284 17.5979 7.73382C18.0454 7.59984 18.5052 7.51687 18.9547 7.39377Z" fill="#8200FE"/>
<path fill-rule="evenodd" clip-rule="evenodd" d="M14.8556 9.93553C15.2059 9.86956 15.5419 9.74714 15.8826 9.64648C15.9091 11.0394 15.8833 12.4336 15.8962 13.8271C15.8955 14.1373 15.9812 14.476 16.2349 14.6766C16.426 14.8786 16.7266 14.846 16.9796 14.8854C16.9776 15.1547 17.0096 15.4275 16.9654 15.6954C16.9177 15.9824 16.5852 16.0525 16.3485 16.1144C15.6337 16.247 14.9345 16.4469 14.2259 16.6047C14.0313 16.67 13.8042 16.5775 13.6926 16.4102C13.5519 16.1606 13.6049 15.8648 13.5974 15.592C13.6001 13.9577 13.5927 12.3241 13.5974 10.6905C13.5811 10.4871 13.7035 10.2899 13.8899 10.2089C14.1952 10.0695 14.5299 10.0083 14.8556 9.93553Z" fill="#03FEDC"/>
<path fill-rule="evenodd" clip-rule="evenodd" d="M8.23887 10.2762C8.92034 9.97763 9.66983 9.90826 10.3812 9.70898C10.4084 10.9672 10.386 12.2261 10.3928 13.4843C10.4023 13.7387 10.3601 14.0005 10.4234 14.2501C10.5261 14.4283 10.6798 14.5725 10.8355 14.7051C11.0076 14.8745 11.2674 14.8452 11.4878 14.8792C11.4708 15.2104 11.5701 15.5797 11.4021 15.8831C11.0484 16.1231 10.6057 16.1293 10.2071 16.2469C9.74736 16.3816 9.27944 16.4856 8.80948 16.5802C8.61021 16.6087 8.34496 16.6244 8.22526 16.4258C8.14705 16.2503 8.14841 16.0538 8.14705 15.8654C8.15521 14.3236 8.14025 12.7817 8.14977 11.2399C8.15725 10.9175 8.10692 10.5816 8.23887 10.2762Z" fill="#03FEDC"/>
</svg>
