<svg width="306" height="90" viewBox="0 0 306 90" fill="none" xmlns="http://www.w3.org/2000/svg">
<path d="M260.8 89.3H44.9C20.3 89.3 0.300049 69.2 0.300049 44.7C0.300049 20.1 20.4 0.0999756 44.9 0.0999756H260.8C285.4 0.0999756 305.4 20.2 305.4 44.7C305.5 69.2 285.4 89.3 260.8 89.3Z" fill="#4B369D"/>
<path d="M255 24.9C255.9 24.8 256.8 24.8 257.7 24.8C269.7 25 279.2 35 278.9 46.9C278.7 58.9 268.7 68.4 256.8 68.1L256.9 62.9C266 63.1 273.5 55.8 273.7 46.7C273.9 37.6 266.6 30.1 257.5 29.9C256.8 29.9 256.1 29.9 255.4 30L255 24.9Z" fill="white"/>
<path d="M249.8 65.5L258.1 70.5L258.3 60.8L249.8 65.5Z" fill="white"/>
<path d="M246.7 67.8001C245.8 67.9001 244.9 67.9001 244 67.9001C232 67.7001 222.5 57.7001 222.8 45.8001C223 33.8001 233 24.3001 244.9 24.6001L244.8 29.8001C235.7 29.6001 228.2 36.9001 228 46.0001C227.8 55.1001 235.1 62.6001 244.2 62.8001C244.9 62.8001 245.6 62.8001 246.3 62.7001L246.7 67.8001Z" fill="white"/>
<path d="M251.8 27.3L243.6 22.3L243.4 32L251.8 27.3Z" fill="white"/>
</svg>
