<svg width="239" height="73" viewBox="0 0 239 73" fill="none" xmlns="http://www.w3.org/2000/svg">
<path d="M202.4 73H37.1C17.2 73 0.800049 56.7 0.800049 36.7C0.800049 16.8 17.1 0.400024 37.1 0.400024H202.4C222.3 0.400024 238.7 16.7 238.7 36.7C238.7 56.7 222.4 73 202.4 73Z" fill="#A7ADFF"/>
<path fill-rule="evenodd" clip-rule="evenodd" d="M19.1001 36.7C19.1001 51.9 31.5001 64.3 46.7001 64.3C61.9001 64.3 74.3001 51.9 74.3001 36.7C74.3001 21.5 61.9001 9.09998 46.7001 9.09998C31.5001 9.09998 19.1001 21.5 19.1001 36.7ZM22.9001 36.7C22.9001 23.6 33.6001 12.9 46.7001 12.9C59.8001 12.9 70.5001 23.6 70.5001 36.7C70.5001 49.8 59.8001 60.5 46.7001 60.5C33.6001 60.5 22.9001 49.8 22.9001 36.7Z" fill="white"/>
<rect x="44.1001" y="49.8" width="3.7" height="7.2" fill="white"/>
<rect x="44.1001" y="16.6" width="3.7" height="7.2" fill="white"/>
<rect x="45.2119" y="35.4442" width="20.0991" height="3.69983" transform="rotate(-40.2054 45.2119 35.4442)" fill="white"/>
</svg>
