<svg width="1007" height="988" viewBox="0 0 1007 988" fill="none" xmlns="http://www.w3.org/2000/svg">
<path d="M961.8 758.6H45.5C20.8 758.6 0.5 738.4 0.5 713.6V45.2998C0.5 20.5998 20.7 0.299805 45.5 0.299805H961.8C986.5 0.299805 1006.8 20.4998 1006.8 45.2998V713.6C1006.8 738.4 986.6 758.6 961.8 758.6Z" fill="#A7ADFF"/>
<path d="M933.7 695.3H69.3C44.6 695.3 24.3 675.1 24.3 650.3V78.2998C24.3 53.5998 44.5 33.2998 69.3 33.2998H933.7C958.4 33.2998 978.7 53.4998 978.7 78.2998V650.4C978.7 675.1 958.5 695.3 933.7 695.3Z" fill="#E3E5FC"/>
<path d="M556.9 724H486.3C484.6 724 483.2 722.6 483.2 720.9C483.2 719.2 484.6 717.8 486.3 717.8H556.9C558.6 717.8 560 719.2 560 720.9C560 722.6 558.6 724 556.9 724Z" fill="#E3E5FC"/>
<path d="M54.3 25.7998C58.166 25.7998 61.3 22.6658 61.3 18.7998C61.3 14.9338 58.166 11.7998 54.3 11.7998C50.4341 11.7998 47.3 14.9338 47.3 18.7998C47.3 22.6658 50.4341 25.7998 54.3 25.7998Z" fill="#E3E5FC"/>
<path d="M84.5 25.7998C88.366 25.7998 91.5 22.6658 91.5 18.7998C91.5 14.9338 88.366 11.7998 84.5 11.7998C80.634 11.7998 77.5 14.9338 77.5 18.7998C77.5 22.6658 80.634 25.7998 84.5 25.7998Z" fill="white"/>
<path d="M115 25.7998C118.866 25.7998 122 22.6658 122 18.7998C122 14.9338 118.866 11.7998 115 11.7998C111.134 11.7998 108 14.9338 108 18.7998C108 22.6658 111.134 25.7998 115 25.7998Z" fill="#4B369D"/>
<path d="M287.5 408.4H116.4C111.8 408.4 108.1 404.6 108.1 400.1C108.1 395.5 111.9 391.8 116.4 391.8H287.5C292.1 391.8 295.8 395.6 295.8 400.1C295.8 404.6 292 408.4 287.5 408.4Z" fill="white"/>
<path d="M287.5 446.6H116.4C111.8 446.6 108.1 442.8 108.1 438.3C108.1 433.7 111.9 430 116.4 430H287.5C292.1 430 295.8 433.8 295.8 438.3C295.8 442.8 292 446.6 287.5 446.6Z" fill="white"/>
<path d="M287.5 484.8H116.4C111.8 484.8 108.1 481 108.1 476.5C108.1 471.9 111.9 468.2 116.4 468.2H287.5C292.1 468.2 295.8 472 295.8 476.5C295.8 481.1 292 484.8 287.5 484.8Z" fill="white"/>
<path d="M287.5 527.9H116.4C111.8 527.9 108.1 524.1 108.1 519.6C108.1 515 111.9 511.3 116.4 511.3H287.5C292.1 511.3 295.8 515.1 295.8 519.6C295.8 524.1 292 527.9 287.5 527.9Z" fill="white"/>
<path d="M287.5 566.1H116.4C111.8 566.1 108.1 562.3 108.1 557.8C108.1 553.2 111.9 549.5 116.4 549.5H287.5C292.1 549.5 295.8 553.3 295.8 557.8C295.8 562.4 292 566.1 287.5 566.1Z" fill="white"/>
<path d="M287.5 604.4H116.4C111.8 604.4 108.1 600.6 108.1 596.1C108.1 591.5 111.9 587.8 116.4 587.8H287.5C292.1 587.8 295.8 591.6 295.8 596.1C295.8 600.6 292 604.4 287.5 604.4Z" fill="white"/>
<path d="M543.5 408.4H372.4C367.8 408.4 364.1 404.6 364.1 400.1C364.1 395.5 367.9 391.8 372.4 391.8H543.5C548.1 391.8 551.8 395.6 551.8 400.1C551.9 404.6 548.1 408.4 543.5 408.4Z" fill="white"/>
<path d="M543.5 446.6H372.4C367.8 446.6 364.1 442.8 364.1 438.3C364.1 433.7 367.9 430 372.4 430H543.5C548.1 430 551.8 433.8 551.8 438.3C551.9 442.8 548.1 446.6 543.5 446.6Z" fill="white"/>
<path d="M543.5 484.8H372.4C367.8 484.8 364.1 481 364.1 476.5C364.1 471.9 367.9 468.2 372.4 468.2H543.5C548.1 468.2 551.8 472 551.8 476.5C551.9 481.1 548.1 484.8 543.5 484.8Z" fill="white"/>
<path d="M543.5 527.9H372.4C367.8 527.9 364.1 524.1 364.1 519.6C364.1 515 367.9 511.3 372.4 511.3H543.5C548.1 511.3 551.8 515.1 551.8 519.6C551.9 524.1 548.1 527.9 543.5 527.9Z" fill="white"/>
<path d="M543.5 566.1H372.4C367.8 566.1 364.1 562.3 364.1 557.8C364.1 553.2 367.9 549.5 372.4 549.5H543.5C548.1 549.5 551.8 553.3 551.8 557.8C551.9 562.4 548.1 566.1 543.5 566.1Z" fill="white"/>
<path d="M543.5 604.4H372.4C367.8 604.4 364.1 600.6 364.1 596.1C364.1 591.5 367.9 587.8 372.4 587.8H543.5C548.1 587.8 551.8 591.6 551.8 596.1C551.9 600.6 548.1 604.4 543.5 604.4Z" fill="white"/>
<path d="M773 242.1C753.3 237.2 748.4 178.1 728.7 178.1C685.4 182 670.4 239.4 646.1 282.4C649.3 300.1 664.8 313.7 683.5 313.7H856.9C877.8 313.7 894.9 296.6 894.9 275.7V151.4C888.9 151.9 882.7 154 876.6 158.4C842 187.9 817.4 252 773 242.1Z" fill="#A7ADFF"/>
<path d="M857.1 100.2H683.7C662.8 100.2 645.7 117.3 645.7 138.2V275.7C645.7 278 645.9 280.2 646.3 282.4C670.7 239.4 685.7 182.1 728.9 178.1C748.6 178.1 753.5 237.2 773.2 242.1C817.5 252 842.2 187.9 876.6 158.4C882.8 154 888.9 151.8 894.9 151.4V138.2C895.1 117.3 878 100.2 857.1 100.2Z" fill="white"/>
<path d="M795 188.6C807.095 188.6 816.9 178.795 816.9 166.7C816.9 154.605 807.095 144.8 795 144.8C782.905 144.8 773.1 154.605 773.1 166.7C773.1 178.795 782.905 188.6 795 188.6Z" fill="#A7ADFF"/>
<path d="M153 318H506.9C531.6 318 551.9 297.8 551.9 273V145.1C551.9 120.4 531.7 100.1 506.9 100.1H153C128.3 100.1 108 120.3 108 145.1V273C108 297.8 128.2 318 153 318Z" fill="white"/>
<path d="M690.7 481.6H849.8C874.5 481.6 894.8 461.4 894.8 436.6C894.8 411.9 874.6 391.6 849.8 391.6H690.7C666 391.6 645.7 411.8 645.7 436.6C645.7 461.4 666 481.6 690.7 481.6Z" fill="white"/>
<path d="M690.7 594.4H849.8C874.5 594.4 894.8 574.2 894.8 549.4C894.8 524.7 874.6 504.4 849.8 504.4H690.7C666 504.4 645.7 524.6 645.7 549.4C645.7 574.2 666 594.4 690.7 594.4Z" fill="white"/>
<path d="M521.6 987.5C704.351 987.5 852.5 977.382 852.5 964.9C852.5 952.418 704.351 942.3 521.6 942.3C338.849 942.3 190.7 952.418 190.7 964.9C190.7 977.382 338.849 987.5 521.6 987.5Z" fill="#E3E5FC"/>
</svg>
