<svg width="108" height="104" viewBox="0 0 108 104" fill="none" xmlns="http://www.w3.org/2000/svg">
<path d="M101.6 17.7H5.7C2.6 17.7 0 15.2 0 12V6.50005C0 3.40005 2.5 0.800049 5.7 0.800049H101.6C104.7 0.800049 107.3 3.30005 107.3 6.50005V12C107.2 15.2 104.7 17.7 101.6 17.7Z" fill="#E3E5FC"/>
<path d="M101.6 46.2H5.7C2.6 46.2 0 43.7 0 40.5V35C0 31.9 2.5 29.3 5.7 29.3H101.6C104.7 29.3 107.3 31.8 107.3 35V40.5C107.2 43.7 104.7 46.2 101.6 46.2Z" fill="#E3E5FC"/>
<path d="M101.6 74.7H5.7C2.6 74.7 0 72.2 0 69V63.5C0 60.4 2.5 57.8 5.7 57.8H101.6C104.7 57.8 107.3 60.3 107.3 63.5V69C107.2 72.2 104.7 74.7 101.6 74.7Z" fill="#E3E5FC"/>
<path d="M101.6 103.3H5.7C2.6 103.3 0 100.8 0 97.6V92.1C0 89 2.5 86.4 5.7 86.4H101.6C104.7 86.4 107.3 88.9 107.3 92.1V97.6C107.2 100.7 104.7 103.3 101.6 103.3Z" fill="#E3E5FC"/>
</svg>
