<svg width="577" height="565" viewBox="0 0 577 565" fill="none" xmlns="http://www.w3.org/2000/svg">
<path d="M2.59995 274.5C1.59995 274.5 0.699951 273.7 0.699951 272.6V267C0.699951 266 1.49995 265.1 2.59995 265.1C3.59995 265.1 4.49995 265.9 4.49995 267V272.6C4.39995 273.7 3.59995 274.5 2.59995 274.5Z" fill="#4B369D"/>
<path fill-rule="evenodd" clip-rule="evenodd" d="M94.2999 4.7999C92.6794 4.7999 90.9453 4.77719 89.1301 4.75341C87.1369 4.7273 85.0458 4.6999 82.8999 4.6999C81.8999 4.6999 80.9999 3.7999 80.9999 2.7999C80.9999 1.7999 81.9999 0.999902 82.8999 0.899902C85.1107 0.899902 87.2107 0.927611 89.1999 0.953857C90.9896 0.977472 92.6896 0.999902 94.2999 0.999902C95.2999 0.999902 96.1999 1.8999 96.0999 2.8999C96.1999 3.9999 95.2999 4.7999 94.2999 4.7999ZM35.2999 3.2999C35.3999 4.2999 36.1999 5.0999 37.1999 5.0999L37.4998 5.09221C41.2948 4.99484 44.9948 4.8999 48.5999 4.8999C49.5999 4.8999 50.3999 3.9999 50.3999 2.9999C50.3999 1.9999 49.6999 1.1999 48.4999 1.1999C44.7999 1.1999 40.8999 1.2999 37.0999 1.3999C36.0999 1.3999 35.2999 2.2999 35.2999 3.2999ZM15.3999 10.5999C14.7999 10.5999 14.1999 10.2999 13.7999 9.6999C13.1999 8.7999 13.4999 7.6999 14.3999 7.0999C17.5999 4.9999 21.2999 3.4999 25.4999 2.5999C26.4999 2.3999 27.4999 2.9999 27.6999 3.9999C27.8999 4.9999 27.2999 5.9999 26.2999 6.1999C22.5999 7.0999 19.1999 8.3999 16.3999 10.1999C16.0999 10.4999 15.6999 10.5999 15.3999 10.5999ZM2.79989 29.1999H3.19989C4.09989 29.1999 4.79989 28.5999 5.09989 27.6999C5.89989 23.9999 7.29989 20.6999 9.09989 17.7999C9.59989 16.8999 9.39989 15.7999 8.49989 15.1999C7.59989 14.6999 6.49989 14.8999 5.89989 15.7999C3.79989 19.0999 2.29989 22.7999 1.39989 26.9999C1.09989 27.9999 1.79989 28.9999 2.79989 29.1999ZM2.59989 51.8999C1.59989 51.8999 0.699894 51.0999 0.699894 49.9999V40.4999C0.699894 40.4999 0.599894 39.7999 0.499894 38.6999C0.399894 37.6999 1.19989 36.7999 2.29989 36.6999C3.29989 36.5999 4.19989 37.3999 4.29989 38.4999C4.39989 39.5999 4.49989 40.1999 4.49989 40.1999V49.9999C4.39989 51.0999 3.59989 51.8999 2.59989 51.8999ZM0.699894 72.8999C0.699894 73.9999 1.59989 74.7999 2.59989 74.7999C3.59989 74.7999 4.39989 73.9999 4.49989 72.8999V61.4999C4.49989 60.3999 3.59989 59.5999 2.59989 59.5999C1.49989 59.5999 0.699894 60.4999 0.699894 61.4999V72.8999ZM2.59989 97.5999C1.59989 97.5999 0.699894 96.7999 0.699894 95.6999V84.2999C0.699894 83.2999 1.49989 82.3999 2.59989 82.3999C3.59989 82.3999 4.49989 83.1999 4.49989 84.2999V95.6999C4.39989 96.7999 3.59989 97.5999 2.59989 97.5999ZM0.699894 118.6C0.699894 119.7 1.59989 120.5 2.59989 120.5C3.59989 120.5 4.39989 119.6 4.49989 118.6V107.2C4.49989 106.1 3.59989 105.3 2.59989 105.3C1.49989 105.3 0.699894 106.2 0.699894 107.2V118.6ZM2.59989 143.3C1.59989 143.3 0.699894 142.5 0.699894 141.4V130C0.699894 129 1.49989 128.1 2.59989 128.1C3.59989 128.1 4.49989 128.9 4.49989 130V141.4C4.39989 142.5 3.59989 143.3 2.59989 143.3ZM0.699894 164.2C0.699894 165.3 1.59989 166.1 2.59989 166.1C3.59989 166.1 4.39989 165.3 4.49989 164.2V152.8C4.49989 151.7 3.59989 150.9 2.59989 150.9C1.49989 150.9 0.699894 151.8 0.699894 152.8V164.2ZM2.59989 189C1.59989 189 0.699894 188.2 0.699894 187.1V175.7C0.699894 174.7 1.49989 173.8 2.59989 173.8C3.59989 173.8 4.49989 174.6 4.49989 175.7V187.1C4.39989 188.1 3.59989 189 2.59989 189ZM0.699894 209.9C0.699894 211 1.59989 211.8 2.59989 211.8C3.59989 211.8 4.39989 211 4.49989 209.9V198.5C4.49989 197.4 3.59989 196.6 2.59989 196.6C1.49989 196.6 0.699894 197.5 0.699894 198.5V209.9ZM2.59989 234.7C1.59989 234.7 0.699894 233.9 0.699894 232.8V221.4C0.699894 220.4 1.49989 219.5 2.59989 219.5C3.59989 219.5 4.49989 220.3 4.49989 221.4V232.8C4.39989 233.8 3.59989 234.7 2.59989 234.7ZM2.59989 257.5C1.59989 257.5 0.699894 256.7 0.699894 255.6V244.2C0.699894 243.2 1.49989 242.3 2.59989 242.3C3.59989 242.3 4.49989 243.1 4.49989 244.2V255.6C4.39989 256.7 3.59989 257.5 2.59989 257.5ZM58.1999 2.7999C58.1999 3.8999 59.0999 4.6999 60.0999 4.6999H71.4999C72.5999 4.6999 73.3999 3.7999 73.3999 2.7999C73.3999 1.6999 72.4999 0.899902 71.4999 0.899902H60.0999C58.9999 0.899902 58.1999 1.7999 58.1999 2.7999Z" fill="#4B369D"/>
<path d="M111.4 5.0998C111.3 5.0998 109.3 4.9998 105.8 4.9998C104.8 4.9998 103.9 4.0998 104 3.0998C104 2.0998 105 1.2998 105.9 1.2998C109.5 1.3998 111.5 1.3998 111.5 1.3998C112.5 1.3998 113.3 2.2998 113.3 3.2998C113.3 4.2998 112.4 5.0998 111.4 5.0998Z" fill="#4B369D"/>
<path d="M574.6 481.1C573.6 481.1 572.7 480.3 572.7 479.3C572.6 475.7 572.6 473.7 572.6 473.7C572.6 472.7 573.4 471.8 574.4 471.8C575.4 471.8 576.3 472.6 576.3 473.6C576.3 473.6 576.4 475.6 576.4 479.2C576.5 480.2 575.7 481.1 574.6 481.1C574.7 481.1 574.6 481.1 574.6 481.1Z" fill="#4B369D"/>
<path fill-rule="evenodd" clip-rule="evenodd" d="M573 501.4C573 502.5 573.9 503.3 574.9 503.3C575.9 503.3 576.8 502.5 576.8 501.4C576.8 499.319 576.773 497.319 576.747 495.4C576.723 493.631 576.7 491.931 576.7 490.3C576.7 489.2 575.7 488.3 574.8 488.4C573.7 488.4 572.9 489.3 572.9 490.3C573 493.6 573 497.4 573 501.4ZM574.8 525.6C573.7 525.6 572.9 524.7 572.9 523.7C573 519.9 573 516.2 573 512.6C573 511.6 573.8 510.7 574.9 510.7C575.9 510.7 576.8 511.6 576.8 512.6C576.8 514.364 576.776 516.152 576.752 517.976C576.726 519.874 576.7 521.811 576.7 523.8C576.6 524.8 575.8 525.6 574.8 525.6ZM572.2 547.6C572.4 547.7 572.6 547.7 572.8 547.7C573.6 547.7 574.3 547.2 574.5 546.4C575.6 543.2 576.2 539.7 576.3 535.8V534.9C576.3 533.9 575.5 533 574.5 533C573.6 533 572.6 533.8 572.6 534.8V535.7C572.5 539.2 571.9 542.4 571 545.2C570.7 546.2 571.2 547.3 572.2 547.6ZM149.7 553.5C149 553.5 148.3 553.1 148 552.3C147.6 551.3 147.3 550.3 147.2 549.2V540.6C147.2 539.6 148 538.7 149.1 538.7C150.1 538.7 151 539.5 151 540.6V549C151.1 549.5 151.3 550.2 151.6 550.9C152 551.9 151.5 553 150.6 553.3C150.374 553.345 150.21 553.39 150.079 553.426L150.079 553.426C149.92 553.47 149.81 553.5 149.7 553.5ZM555.9 561.6C556.2 562.3 556.9 562.8 557.7 562.8C557.9 562.8 558.1 562.8 558.2 562.7C562.2 561.3 565.6 559.2 568.3 556.5C569 555.8 569 554.6 568.3 553.9C567.6 553.2 566.4 553.2 565.7 553.9C563.4 556.2 560.5 558 557 559.2C556.1 559.6 555.6 560.6 555.9 561.6ZM168.3 563.9H168C163.7 563.2 159.9 562.1 156.8 560.7C155.9 560.3 155.5 559.2 155.9 558.2C156.3 557.3 157.4 556.9 158.4 557.3C161.2 558.6 164.6 559.6 168.6 560.2C169.6 560.4 170.3 561.3 170.2 562.3C170 563.2 169.2 563.9 168.3 563.9ZM179.4 564.7H190.5C191.6 564.7 192.4 563.8 192.4 562.8C192.4 561.7 191.5 560.9 190.5 560.9H179.4C178.3 560.9 177.5 561.8 177.5 562.8C177.5 563.9 178.4 564.7 179.4 564.7ZM212.8 564.7H201.7C200.7 564.7 199.8 563.9 199.8 562.8C199.8 561.8 200.6 560.9 201.7 560.9H212.8C213.8 560.9 214.7 561.7 214.7 562.8C214.7 563.8 213.8 564.7 212.8 564.7ZM224 564.7H235.1C236.1 564.7 236.9 563.8 237 562.8C237 561.7 236.1 560.9 235.1 560.9H224C222.9 560.9 222.1 561.8 222.1 562.8C222.1 563.9 223 564.7 224 564.7ZM257.3 564.7H246.2C245.2 564.7 244.3 563.9 244.3 562.8C244.3 561.8 245.1 560.9 246.2 560.9H257.3C258.3 560.9 259.2 561.7 259.2 562.8C259.2 563.8 258.4 564.7 257.3 564.7ZM268.5 564.7H279.6C280.6 564.7 281.5 563.8 281.5 562.8C281.5 561.7 280.6 560.9 279.6 560.9H268.5C267.4 560.9 266.6 561.8 266.6 562.8C266.6 563.9 267.5 564.7 268.5 564.7ZM301.9 564.7H290.8C289.8 564.7 288.9 563.9 288.9 562.8C288.9 561.8 289.7 560.9 290.8 560.9H301.9C302.9 560.9 303.8 561.7 303.8 562.8C303.7 563.8 302.9 564.7 301.9 564.7ZM313 564.7H324.1C325.2 564.7 326 563.8 326 562.8C326 561.7 325.1 560.9 324.1 560.9H313C311.9 560.9 311.1 561.8 311.1 562.8C311.1 563.9 312 564.7 313 564.7ZM346.4 564.7H335.3C334.3 564.7 333.4 563.9 333.4 562.8C333.4 561.8 334.2 560.9 335.3 560.9H346.4C347.4 560.9 348.3 561.7 348.3 562.8C348.3 563.8 347.4 564.7 346.4 564.7ZM357.5 564.7H368.6C369.7 564.7 370.5 563.8 370.5 562.8C370.5 561.7 369.6 560.9 368.6 560.9H357.5C356.4 560.9 355.6 561.8 355.6 562.8C355.6 563.9 356.5 564.7 357.5 564.7ZM390.9 564.7H379.8C378.8 564.7 377.9 563.9 377.9 562.8C377.9 561.8 378.7 560.9 379.8 560.9H390.9C391.9 560.9 392.8 561.7 392.8 562.8C392.8 563.8 391.9 564.7 390.9 564.7ZM402.1 564.7H413.2C414.2 564.7 415 563.8 415.1 562.8C415.1 561.7 414.2 560.9 413.2 560.9H402.1C401 560.9 400.2 561.8 400.2 562.8C400.2 563.9 401.1 564.7 402.1 564.7ZM435.4 564.7H424.3C423.3 564.7 422.4 563.9 422.4 562.8C422.4 561.8 423.2 560.9 424.3 560.9H435.4C436.4 560.9 437.3 561.7 437.3 562.8C437.3 563.8 436.5 564.7 435.4 564.7ZM446.6 564.7H457.7C458.7 564.7 459.6 563.8 459.6 562.8C459.6 561.7 458.7 560.9 457.7 560.9H446.6C445.5 560.9 444.7 561.8 444.7 562.8C444.7 563.9 445.6 564.7 446.6 564.7ZM480 564.7H468.9C467.9 564.7 467 563.9 467 562.8C467 561.8 467.8 560.9 468.9 560.9H480C481 560.9 481.9 561.7 481.9 562.8C481.8 563.8 481 564.7 480 564.7ZM491.1 564.7H502.2C503.3 564.7 504.1 563.8 504.1 562.8C504.1 561.7 503.2 560.9 502.2 560.9H491.1C490 560.9 489.2 561.8 489.2 562.8C489.2 563.9 490.1 564.7 491.1 564.7ZM524.5 564.7H513.4C512.4 564.7 511.5 563.9 511.5 562.8C511.5 561.8 512.3 560.9 513.4 560.9H524.5C525.5 560.9 526.4 561.7 526.4 562.8C526.4 563.8 525.5 564.7 524.5 564.7ZM544.9 564.9C542.727 564.9 541.182 564.76 540.675 564.714C540.576 564.705 540.517 564.7 540.5 564.7H535.6C534.6 564.7 533.7 563.9 533.7 562.8C533.7 561.8 534.5 560.9 535.6 560.9H540.7C540.762 560.9 540.909 560.913 541.132 560.932C541.991 561.007 543.98 561.179 546.6 561.1C547.6 561.1 548.5 561.9 548.6 562.9C548.6 563.9 547.8 564.8 546.8 564.9H544.9Z" fill="#4B369D"/>
<path d="M148.9 531.2C147.9 531.2 147 530.4 147 529.3V523.7C147 522.7 147.8 521.8 148.9 521.8C149.9 521.8 150.8 522.6 150.8 523.7V529.3C150.8 530.4 150 531.2 148.9 531.2Z" fill="#4B369D"/>
</svg>
