<svg width="345" height="221" viewBox="0 0 345 221" fill="none" xmlns="http://www.w3.org/2000/svg">
<path d="M327.4 69.4001H17.4C7.99995 69.4001 0.199951 61.7001 0.199951 52.2001V17.3001C0.199951 7.9001 7.89995 0.100098 17.4 0.100098H327.4C336.8 0.100098 344.6 7.8001 344.6 17.3001V52.2001C344.5 61.7001 336.8 69.4001 327.4 69.4001Z" fill="#A7ADFF"/>
<path d="M327.4 144.7H17.4C7.99995 144.7 0.199951 137 0.199951 127.5V92.6001C0.199951 83.2001 7.89995 75.4001 17.4 75.4001H327.4C336.8 75.4001 344.6 83.1001 344.6 92.6001V127.5C344.5 136.9 336.8 144.7 327.4 144.7Z" fill="#A7ADFF"/>
<path d="M327.4 220.7H17.4C7.99995 220.7 0.199951 213 0.199951 203.5V168.6C0.199951 159.2 7.89995 151.4 17.4 151.4H327.4C336.8 151.4 344.6 159.1 344.6 168.6V203.5C344.5 213 336.8 220.7 327.4 220.7Z" fill="#A7ADFF"/>
<path d="M28.2 42.1C32.5631 42.1 36.1 38.5631 36.1 34.2C36.1 29.837 32.5631 26.3 28.2 26.3C23.837 26.3 20.3 29.837 20.3 34.2C20.3 38.5631 23.837 42.1 28.2 42.1Z" fill="white"/>
<path d="M314.3 42.1C318.663 42.1 322.2 38.5631 322.2 34.2C322.2 29.837 318.663 26.3 314.3 26.3C309.937 26.3 306.4 29.837 306.4 34.2C306.4 38.5631 309.937 42.1 314.3 42.1Z" fill="white"/>
<path d="M29.7999 114.7C34.163 114.7 37.6999 111.163 37.6999 106.8C37.6999 102.437 34.163 98.8999 29.7999 98.8999C25.4369 98.8999 21.8999 102.437 21.8999 106.8C21.8999 111.163 25.4369 114.7 29.7999 114.7Z" fill="white"/>
<path d="M315.9 114.7C320.263 114.7 323.8 111.163 323.8 106.8C323.8 102.437 320.263 98.8999 315.9 98.8999C311.537 98.8999 308 102.437 308 106.8C308 111.163 311.537 114.7 315.9 114.7Z" fill="white"/>
<path d="M29.7999 193.6C34.163 193.6 37.6999 190.063 37.6999 185.7C37.6999 181.337 34.163 177.8 29.7999 177.8C25.4369 177.8 21.8999 181.337 21.8999 185.7C21.8999 190.063 25.4369 193.6 29.7999 193.6Z" fill="white"/>
<path d="M315.9 193.6C320.263 193.6 323.8 190.063 323.8 185.7C323.8 181.337 320.263 177.8 315.9 177.8C311.537 177.8 308 181.337 308 185.7C308 190.063 311.537 193.6 315.9 193.6Z" fill="white"/>
</svg>
