<svg width="268" height="337" viewBox="0 0 268 337" fill="none" xmlns="http://www.w3.org/2000/svg">
<path fill-rule="evenodd" clip-rule="evenodd" d="M23.9 100.5L27.2 108.5L139.7 62.2001L136.4 54.2001C119.6 13.6001 80.8 -9.09993 49.8 3.70007C34.3 10.1001 23.2 24.0001 18.5 42.9001C14.1 60.8001 16 81.3001 23.9 100.5ZM56.4 19.7001C60.3 18.2001 64.3 17.4001 68.4 17.4001C86 17.4001 105 31.1001 116.6 52.8001L37.1 85.6001C33.1 72.3001 32.5 58.9001 35.4 47.0001C38.7 33.6001 46.2 23.9001 56.4 19.7001Z" fill="#E3E5FC"/>
<path d="M24.5 83.7001C6.1 91.3001 -4.2 109.3 1.8 123.7L46.3 320.7C52.2 335.1 72.2 340.7 90.6 333.1L227.1 276.9L93.1 55.6001L24.5 83.7001Z" fill="#FAE026"/>
<path d="M266 230.1L163.3 57.1001C157.4 42.7001 137.4 37.1001 119 44.7001L92.9 55.4001L226.9 276.7L243.2 270C261.7 262.5 271.9 244.5 266 230.1Z" fill="#FDC510"/>
</svg>
