<svg width="703" height="531" viewBox="0 0 703 531" fill="none" xmlns="http://www.w3.org/2000/svg">
<path d="M678.9 530.5H24.3C11.1 530.5 0.200012 519.7 0.200012 506.4V24.9999C0.200012 11.7999 11 0.899902 24.3 0.899902H678.9C692.1 0.899902 703 11.6999 703 24.9999V506.4C703 519.7 692.2 530.5 678.9 530.5Z" fill="#A7ADFF"/>
<path d="M660.2 486.3H40C27.3 486.3 16.8 475.9 16.8 463.1V47.0999C16.8 34.3999 27.2 23.8999 40 23.8999H660.2C672.9 23.8999 683.4 34.2999 683.4 47.0999V463.1C683.4 475.9 672.9 486.3 660.2 486.3Z" fill="#E3E5FC"/>
<path d="M389.5 506.3H338.7C337.9 506.3 337.3 505.7 337.3 504.9V503.3C337.3 502.5 337.9 501.9 338.7 501.9H389.5C390.3 501.9 390.9 502.5 390.9 503.3V504.9C390.9 505.7 390.3 506.3 389.5 506.3Z" fill="#E3E5FC"/>
<path d="M37.7 18.6999C40.4062 18.6999 42.6 16.5061 42.6 13.7999C42.6 11.0937 40.4062 8.8999 37.7 8.8999C34.9938 8.8999 32.8 11.0937 32.8 13.7999C32.8 16.5061 34.9938 18.6999 37.7 18.6999Z" fill="#E3E5FC"/>
<path d="M58.9 18.6999C61.6062 18.6999 63.8 16.5061 63.8 13.7999C63.8 11.0937 61.6062 8.8999 58.9 8.8999C56.1938 8.8999 54 11.0937 54 13.7999C54 16.5061 56.1938 18.6999 58.9 18.6999Z" fill="white"/>
<path d="M80.2 18.6999C82.9062 18.6999 85.1 16.5061 85.1 13.7999C85.1 11.0937 82.9062 8.8999 80.2 8.8999C77.4938 8.8999 75.3 11.0937 75.3 13.7999C75.3 16.5061 77.4938 18.6999 80.2 18.6999Z" fill="#4B369D"/>
<path d="M381.5 285.9H79C76.9 285.9 75.2 284.2 75.2 282.1V277.9C75.2 275.8 76.9 274.1 79 274.1H381.5C383.6 274.1 385.3 275.8 385.3 277.9V282.1C385.3 284.2 383.6 285.9 381.5 285.9Z" fill="white"/>
<path d="M381.5 312.6H79C76.9 312.6 75.2 310.9 75.2 308.8V304.6C75.2 302.5 76.9 300.8 79 300.8H381.5C383.6 300.8 385.3 302.5 385.3 304.6V308.8C385.3 310.9 383.6 312.6 381.5 312.6Z" fill="white"/>
<path d="M381.5 339.3H79C76.9 339.3 75.2 337.6 75.2 335.5V331.3C75.2 329.2 76.9 327.5 79 327.5H381.5C383.6 327.5 385.3 329.2 385.3 331.3V335.5C385.3 337.6 383.6 339.3 381.5 339.3Z" fill="white"/>
<path d="M381.5 369.4H79C76.9 369.4 75.2 367.7 75.2 365.6V361.4C75.2 359.3 76.9 357.6 79 357.6H381.5C383.6 357.6 385.3 359.3 385.3 361.4V365.6C385.3 367.7 383.6 369.4 381.5 369.4Z" fill="white"/>
<path d="M381.5 396.1H79C76.9 396.1 75.2 394.4 75.2 392.3V388.1C75.2 386 76.9 384.3 79 384.3H381.5C383.6 384.3 385.3 386 385.3 388.1V392.3C385.3 394.4 383.6 396.1 381.5 396.1Z" fill="white"/>
<path d="M381.5 422.8H79C76.9 422.8 75.2 421.1 75.2 419V414.8C75.2 412.7 76.9 411 79 411H381.5C383.6 411 385.3 412.7 385.3 414.8V419C385.3 421.1 383.6 422.8 381.5 422.8Z" fill="white"/>
<path d="M120.2 222.8H340.3C365 222.8 385.3 202.6 385.3 177.8V115.6C385.3 90.9001 365.1 70.6001 340.3 70.6001H120.2C95.5 70.6001 75.2 90.8001 75.2 115.6V177.8C75.3 202.6 95.5 222.8 120.2 222.8Z" fill="white"/>
<path d="M495.8 337H579.8C604.5 337 624.8 316.8 624.8 292V115.5C624.8 90.8 604.6 70.5 579.8 70.5H495.8C471.1 70.5 450.8 90.7 450.8 115.5V292C450.8 316.8 471.1 337 495.8 337Z" fill="white"/>
<path d="M471 415.8H604.5C615.6 415.8 624.7 406.7 624.7 395.6V373.2C624.7 362.1 615.6 353 604.5 353H471C459.9 353 450.8 362.1 450.8 373.2V395.6C450.8 406.7 459.9 415.8 471 415.8Z" fill="white"/>
</svg>
