<svg width="24" height="24" viewBox="0 0 24 24" fill="none" xmlns="http://www.w3.org/2000/svg">
<path d="M11 11H13V9H11V7H9V9H11V11Z" fill="black"/>
<path d="M9 13V11H11V13H9Z" fill="black"/>
<path d="M9 13H7V15H9V13Z" fill="black"/>
<path fill-rule="evenodd" clip-rule="evenodd" d="M13 1H11V3H9V5H7V7H5V9H3V11H1V17H3V23H9V21H11V19H13V17H15V15H17V13H19V11H21V9H23V7H21V5H19V3H17V5H15V3H13V1ZM15 7H17V5H19V7H21V9H19V11H17V9H15V7ZM13 9V7H15V5H13V3H11V5H9V7H7V9H5V11H3V15H7V17H5V19H7V21H9V19H11V17H13V15H15V13H17V11H15V9H13Z" fill="black"/>
</svg>
