<svg width="24" height="24" viewBox="0 0 24 24" fill="none" xmlns="http://www.w3.org/2000/svg">
<path d="M12 2H4V4H2V20H4V22L18 22V20H20V14H18V20H4V8H8V6H4V4H12V2Z" fill="black"/>
<path d="M16 2H18V4H16V2Z" fill="black"/>
<path d="M14 6V4H16V6H14Z" fill="black"/>
<path d="M12 8V6H14V8H12Z" fill="black"/>
<path d="M10 10V8H12V10H10Z" fill="black"/>
<path d="M8 12V10H10V12H8Z" fill="black"/>
<path d="M12 16V18H6V12H8V14H10V16H12Z" fill="black"/>
<path d="M14 14V16H12V14H14Z" fill="black"/>
<path d="M16 12V14H14V12H16Z" fill="black"/>
<path d="M18 10V12H16V10H18Z" fill="black"/>
<path d="M20 8V10H18V8H20Z" fill="black"/>
<path d="M20 6H22V8H20V6Z" fill="black"/>
<path d="M20 6V4H18V6H20Z" fill="black"/>
</svg>
