<svg xmlns="http://www.w3.org" xmlns:xlink="http://www.w3.org/1999/xlink" width="36px" height="36px" preserveAspectRatio="xMidYMid meet" viewBox="0 0 24 24" aria-hidden="true" role="img"><g class="icon-tabler" fill="none" stroke="currentColor" stroke-width="2" stroke-linecap="round" stroke-linejoin="round"><path d="M6 7h11a2 2 0 0 1 2 2v.5a.5.5 0 0 0 .5.5a.5.5 0 0 1 .5.5v3a.5.5 0 0 1-.5.5a.5.5 0 0 0-.5.5v.5a2 2 0 0 1-2 2H6a2 2 0 0 1-2-2V9a2 2 0 0 1 2-2"></path><path d="M7 10v4"></path><path d="M10 10v4"></path><path d="M13 10v4"></path><path d="M16 10v4"></path></g></svg>