<svg xmlns="http://www.w3.org" xmlns:xlink="http://www.w3.org/1999/xlink" width="36px" height="36px" preserveAspectRatio="xMidYMid meet" viewBox="0 0 24 24" aria-hidden="true" role="img"><g class="icon-tabler" fill="none" stroke="currentColor" stroke-width="2" stroke-linecap="round" stroke-linejoin="round"><path d="M4 21c1.147-4.02 1.983-8.027 2-12h6c.017 3.973.853 7.98 2 12"></path><path d="M12.5 13H17c.025 2.612.894 5.296 2 8"></path><path d="M9 5a2.4 2.4 0 0 1 2-1a2.4 2.4 0 0 1 2 1a2.4 2.4 0 0 0 2 1a2.4 2.4 0 0 0 2-1a2.4 2.4 0 0 1 2-1a2.4 2.4 0 0 1 2 1"></path><path d="M3 21h19"></path></g></svg>