<svg xmlns="http://www.w3.org" xmlns:xlink="http://www.w3.org/1999/xlink" width="36px" height="36px" preserveAspectRatio="xMidYMid meet" viewBox="0 0 24 24" aria-hidden="true" role="img"><g class="icon-tabler" fill="none" stroke="currentColor" stroke-width="2" stroke-linecap="round" stroke-linejoin="round"><path d="M7.05 11.293l4.243-4.243a2 2 0 0 1 2.828 0l2.829 2.83a2 2 0 0 1 0 2.828l-4.243 4.243a2 2 0 0 1-2.828 0L7.05 14.12a2 2 0 0 1 0-2.828z"></path><path d="M16.243 9.172l3.086-.772a1.5 1.5 0 0 0 .697-2.516L17.81 3.667a1.5 1.5 0 0 0-2.44.47L14.122 7.05"></path><path d="M9.172 16.243L8.4 19.329a1.5 1.5 0 0 1-2.516.697L3.667 17.81a1.5 1.5 0 0 1 .47-2.44l2.913-1.248"></path></g></svg>