<svg width="25" height="25" viewBox="0 0 25 25" fill="none" xmlns="http://www.w3.org/2000/svg">
<rect x="0.0650024" y="0.0649414" width="24" height="24" fill="white" fill-opacity="0.01"/>
<path d="M0.0650024 0.0649414H24.065M0.0650024 0.0649414V24.0649M0.0650024 0.0649414L24.065 24.0649M24.065 0.0649414V24.0649M24.065 0.0649414L0.0650024 24.0649M24.065 24.0649H0.0650024" stroke="#DADEE4" stroke-width="0.13"/>
<circle cx="12.065" cy="12.0649" r="10" stroke="#DADEE4" stroke-width="0.13"/>
<rect x="2.065" y="4.06494" width="20" height="16" rx="1" stroke="#DADEE4" stroke-width="0.13"/>
<rect x="4.065" y="2.06494" width="16" height="20" rx="1" stroke="#DADEE4" stroke-width="0.13"/>
<rect x="3.065" y="3.06494" width="18" height="18" rx="1" stroke="#DADEE4" stroke-width="0.13"/>
<circle cx="12.065" cy="12.0649" r="4" stroke="#DADEE4" stroke-width="0.13"/>
<path d="M4.065 2.56494C3.23658 2.56494 2.565 3.23651 2.565 4.06494C2.565 4.89337 3.23658 5.56494 4.065 5.56494H20.065C20.8934 5.56494 21.565 4.89337 21.565 4.06494C21.565 3.23651 20.8934 2.56494 20.065 2.56494H4.065Z" fill="#09244B"/>
<path d="M4.065 7.56494C3.23658 7.56494 2.565 8.23651 2.565 9.06494C2.565 9.89337 3.23658 10.5649 4.065 10.5649H14.065C14.8934 10.5649 15.565 9.89337 15.565 9.06494C15.565 8.23651 14.8934 7.56494 14.065 7.56494H4.065Z" fill="#09244B"/>
<path d="M2.565 14.0649C2.565 13.2365 3.23658 12.5649 4.065 12.5649H20.065C20.8934 12.5649 21.565 13.2365 21.565 14.0649C21.565 14.8934 20.8934 15.5649 20.065 15.5649H4.065C3.23658 15.5649 2.565 14.8934 2.565 14.0649Z" fill="#09244B"/>
<path d="M4.065 17.5649C3.23658 17.5649 2.565 18.2365 2.565 19.0649C2.565 19.8934 3.23658 20.5649 4.065 20.5649H14.065C14.8934 20.5649 15.565 19.8934 15.565 19.0649C15.565 18.2365 14.8934 17.5649 14.065 17.5649H4.065Z" fill="#09244B"/>
</svg>
