<svg width="25" height="25" viewBox="0 0 25 25" fill="none" xmlns="http://www.w3.org/2000/svg">
<rect x="0.0649414" y="0.0649414" width="24" height="24" fill="white" fill-opacity="0.01"/>
<path d="M0.0649414 0.0649414H24.0649M0.0649414 0.0649414V24.0649M0.0649414 0.0649414L24.0649 24.0649M24.0649 0.0649414V24.0649M24.0649 0.0649414L0.0649414 24.0649M24.0649 24.0649H0.0649414" stroke="#DADEE4" stroke-width="0.13"/>
<circle cx="12.0649" cy="12.0649" r="10" stroke="#DADEE4" stroke-width="0.13"/>
<rect x="2.06494" y="4.06494" width="20" height="16" rx="1" stroke="#DADEE4" stroke-width="0.13"/>
<rect x="4.06494" y="2.06494" width="16" height="20" rx="1" stroke="#DADEE4" stroke-width="0.13"/>
<rect x="3.06494" y="3.06494" width="18" height="18" rx="1" stroke="#DADEE4" stroke-width="0.13"/>
<circle cx="12.0649" cy="12.0649" r="4" stroke="#DADEE4" stroke-width="0.13"/>
<path d="M5.56494 4.06494C5.56494 3.23651 4.89337 2.56494 4.06494 2.56494C3.23651 2.56494 2.56494 3.23651 2.56494 4.06494V20.0649C2.56494 20.8934 3.23651 21.5649 4.06494 21.5649C4.89337 21.5649 5.56494 20.8934 5.56494 20.0649V13.5649H11.5649V20.0649C11.5649 20.8934 12.2365 21.5649 13.0649 21.5649C13.8934 21.5649 14.5649 20.8934 14.5649 20.0649V4.06494C14.5649 3.23651 13.8934 2.56494 13.0649 2.56494C12.2365 2.56494 11.5649 3.23651 11.5649 4.06494V10.5649H5.56494V4.06494Z" fill="#09244B"/>
<path d="M17.7048 15.4222C17.7048 15.0867 17.8544 14.7727 18.2075 14.6844C18.9553 14.4975 19.378 15.5032 18.9054 16.0095L15.9763 19.1479C15.7338 19.4077 15.7048 19.7209 15.7048 20.0557C15.7048 20.6132 16.1567 21.065 16.7141 21.065H20.4191C20.9714 21.065 21.4191 20.6173 21.4191 20.065C21.4191 19.5127 20.9714 19.065 20.4191 19.065H18.7894L20.3675 17.3741C20.692 17.0265 20.9228 16.602 21.0381 16.1406C21.3522 14.8844 20.7606 13.5463 19.5953 12.9637C19.0148 12.6734 18.355 12.586 17.7224 12.7441C16.4868 13.053 15.7048 14.1758 15.7048 15.4222C15.7048 15.9745 16.1525 16.4222 16.7048 16.4222C17.2571 16.4222 17.7048 15.9745 17.7048 15.4222Z" fill="#09244B"/>
</svg>
