<svg width="25" height="25" viewBox="0 0 25 25" fill="none" xmlns="http://www.w3.org/2000/svg">
<rect x="0.0649414" y="0.0649414" width="24" height="24" fill="white" fill-opacity="0.01"/>
<path d="M0.0649414 0.0649414H24.0649M0.0649414 0.0649414V24.0649M0.0649414 0.0649414L24.0649 24.0649M24.0649 0.0649414V24.0649M24.0649 0.0649414L0.0649414 24.0649M24.0649 24.0649H0.0649414" stroke="#DADEE4" stroke-width="0.13"/>
<circle cx="12.0649" cy="12.0649" r="10" stroke="#DADEE4" stroke-width="0.13"/>
<rect x="2.06494" y="4.06494" width="20" height="16" rx="1" stroke="#DADEE4" stroke-width="0.13"/>
<rect x="4.06494" y="2.06494" width="16" height="20" rx="1" stroke="#DADEE4" stroke-width="0.13"/>
<rect x="3.06494" y="3.06494" width="18" height="18" rx="1" stroke="#DADEE4" stroke-width="0.13"/>
<circle cx="12.0649" cy="12.0649" r="4" stroke="#DADEE4" stroke-width="0.13"/>
<path d="M8.06494 4.06494C8.06494 3.51266 7.61723 3.06494 7.06494 3.06494C6.51266 3.06494 6.06494 3.51266 6.06494 4.06494V12.0649C6.06494 15.3787 8.75123 18.0649 12.0649 18.0649C15.3786 18.0649 18.0649 15.3786 18.0649 12.0649V4.06494C18.0649 3.51266 17.6172 3.06494 17.0649 3.06494C16.5127 3.06494 16.0649 3.51266 16.0649 4.06494V12.0649C16.0649 14.2741 14.2741 16.0649 12.0649 16.0649C9.8558 16.0649 8.06494 14.2741 8.06494 12.0649V4.06494Z" fill="#09244B"/>
<path d="M6.06494 19.0649C5.51266 19.0649 5.06494 19.5127 5.06494 20.0649C5.06494 20.6172 5.51266 21.0649 6.06494 21.0649H18.0649C18.6172 21.0649 19.0649 20.6172 19.0649 20.0649C19.0649 19.5127 18.6172 19.0649 18.0649 19.0649H6.06494Z" fill="#09244B"/>
</svg>
