<svg width="25" height="25" viewBox="0 0 25 25" fill="none" xmlns="http://www.w3.org/2000/svg">
<rect x="0.0649414" y="0.0650024" width="24" height="24" fill="white" fill-opacity="0.01"/>
<path d="M0.0649414 0.0650024H24.0649M0.0649414 0.0650024V24.065M0.0649414 0.0650024L24.0649 24.065M24.0649 0.0650024V24.065M24.0649 0.0650024L0.0649414 24.065M24.0649 24.065H0.0649414" stroke="#DADEE4" stroke-width="0.13"/>
<circle cx="12.0649" cy="12.065" r="10" stroke="#DADEE4" stroke-width="0.13"/>
<rect x="2.06494" y="4.065" width="20" height="16" rx="1" stroke="#DADEE4" stroke-width="0.13"/>
<rect x="4.06494" y="2.065" width="16" height="20" rx="1" stroke="#DADEE4" stroke-width="0.13"/>
<rect x="3.06494" y="3.065" width="18" height="18" rx="1" stroke="#DADEE4" stroke-width="0.13"/>
<circle cx="12.0649" cy="12.065" r="4" stroke="#DADEE4" stroke-width="0.13"/>
<path d="M12.0649 2.065C9.30352 2.065 7.06494 4.30358 7.06494 7.065C7.06494 9.82643 9.30352 12.065 12.0649 12.065C14.8264 12.065 17.0649 9.82643 17.0649 7.065C17.0649 4.30358 14.8264 2.065 12.0649 2.065Z" fill="#09244B"/>
<path d="M8.06494 14.065C5.30352 14.065 3.06494 16.3036 3.06494 19.065V20.065C3.06494 21.1696 3.96037 22.065 5.06494 22.065H19.0649C20.1695 22.065 21.0649 21.1696 21.0649 20.065V19.065C21.0649 16.3036 18.8264 14.065 16.0649 14.065H8.06494Z" fill="#09244B"/>
</svg>
