<svg width="25" height="25" viewBox="0 0 25 25" fill="none" xmlns="http://www.w3.org/2000/svg">
<rect x="0.0649414" y="0.0650024" width="24" height="24" fill="white" fill-opacity="0.01"/>
<path d="M0.0649414 0.0650024H24.0649M0.0649414 0.0650024V24.065M0.0649414 0.0650024L24.0649 24.065M24.0649 0.0650024V24.065M24.0649 0.0650024L0.0649414 24.065M24.0649 24.065H0.0649414" stroke="#DADEE4" stroke-width="0.13"/>
<circle cx="12.0649" cy="12.065" r="10" stroke="#DADEE4" stroke-width="0.13"/>
<rect x="2.06494" y="4.065" width="20" height="16" rx="1" stroke="#DADEE4" stroke-width="0.13"/>
<rect x="4.06494" y="2.065" width="16" height="20" rx="1" stroke="#DADEE4" stroke-width="0.13"/>
<rect x="3.06494" y="3.065" width="18" height="18" rx="1" stroke="#DADEE4" stroke-width="0.13"/>
<circle cx="12.0649" cy="12.065" r="4" stroke="#DADEE4" stroke-width="0.13"/>
<path d="M12.0649 2.065C11.2807 2.065 10.4038 2.25566 9.68476 2.45597C8.0223 2.91912 7.06494 4.47451 7.06494 6.06173V10.0683C7.06494 11.6555 8.02231 13.2109 9.68476 13.674C10.4038 13.8743 11.2807 14.065 12.0649 14.065C12.8492 14.065 13.7261 13.8743 14.4451 13.674C16.1076 13.2109 17.0649 11.6555 17.0649 10.0683V6.06173C17.0649 4.47451 16.1076 2.91912 14.4451 2.45597C13.7261 2.25566 12.8492 2.065 12.0649 2.065Z" fill="#09244B"/>
<path d="M5.62649 15.065C4.24989 15.065 3.04994 16.0019 2.71607 17.3374L2.25012 19.2012C2.01343 20.1479 2.72947 21.065 3.70533 21.065H20.4246C21.4004 21.065 22.1164 20.1479 21.8798 19.2012L21.4138 17.3374C21.0799 16.0019 19.88 15.065 18.5034 15.065H14.4792C13.9487 15.065 13.44 15.2757 13.0649 15.6508L12.0649 16.6508L11.0649 15.6508C10.6899 15.2757 10.1812 15.065 9.65073 15.065H5.62649Z" fill="#09244B"/>
</svg>
