<svg width="120" height="120" viewBox="0 0 120 120" fill="none" xmlns="http://www.w3.org/2000/svg">
<path d="M20 90H15V95H20V90Z" fill="black"/>
<path d="M25 95H20V100H25V95Z" fill="black"/>
<path d="M30 100H25V105H30V100Z" fill="black"/>
<path d="M25 20H20V25H25V20Z" fill="black"/>
<path d="M15 80H10V90H15V80Z" fill="black"/>
<path d="M20 25H15V30H20V25Z" fill="black"/>
<path d="M40 105H30V110H40V105Z" fill="black"/>
<path d="M10 40H5V80H10V40Z" fill="black"/>
<path d="M80 5H40V10H80V5Z" fill="black"/>
<path d="M15 30H10V40H15V30Z" fill="black"/>
<path d="M80 110H40V115H80V110Z" fill="black"/>
<path d="M90 105H80V110H90V105Z" fill="black"/>
<path d="M90 10H80V15H90V10Z" fill="black"/>
<path d="M30 15H25V20H30V15Z" fill="black"/>
<path d="M40 10H30V15H40V10Z" fill="black"/>
<path d="M95 15H90V20H95V15Z" fill="black"/>
<path d="M95 100H90V105H95V100Z" fill="black"/>
<path d="M100 20H95V25H100V20Z" fill="black"/>
<path d="M100 95H95V100H100V95Z" fill="black"/>
<path d="M110 80H105V90H110V80Z" fill="black"/>
<path d="M105 25H100V30H105V25Z" fill="black"/>
<path d="M110 30H105V40H110V30Z" fill="black"/>
<path d="M105 90H100V95H105V90Z" fill="black"/>
<path d="M115 40H110V80H115V40Z" fill="black"/>
<path d="M75 95H45V100H75V95Z" fill="black"/>
<path d="M110 40V80H105V90H100V95H95V100H90V105H80V110H40V105H30V100H40V95H45V100H75V95H85V90H90V85H95V75H100V45H95V40H100V30H105V40H110Z" fill="#CBA600"/>
<path d="M100 45H95V75H100V45Z" fill="black"/>
<path d="M100 25V40H95V35H90V30H85V25H75V20H45V25H35V30H30V35H25V45H20V75H25V85H30V90H35V95H40V100H25V95H20V90H15V80H10V40H15V30H20V25H25V20H30V15H40V10H80V15H90V20H95V25H100Z" fill="#FFD100"/>
<path d="M95 75H90V85H95V75Z" fill="black"/>
<path d="M95 35H90V45H95V35Z" fill="black"/>
<path d="M90 85H85V90H90V85Z" fill="black"/>
<path d="M90 30H85V35H90V30Z" fill="black"/>
<path d="M85 25H75V30H85V25Z" fill="black"/>
<path d="M85 90H75V95H85V90Z" fill="black"/>
<path d="M75 60H70V70H75V60Z" fill="black"/>
<path d="M75 50H70V55H75V50Z" fill="black"/>
<path d="M75 20H45V25H75V20Z" fill="black"/>
<path d="M70 60V70H60V65H65V60H70Z" fill="#CB7419"/>
<path d="M50 50V55H70V60H50V70H70V75H65V80H60V75H55V80H50V75H45V45H50V40H55V45H60V40H65V45H70V50H50Z" fill="black"/>
<path d="M70 50H65V55H70V50Z" fill="#CB7419"/>
<path d="M65 50H50V55H65V50Z" fill="#FFA33E"/>
<path d="M95 45V75H90V85H85V90H75V95H45V90H35V85H45V80H55V75H60V80H65V75H70V70H75V60H70V55H75V50H70V45H75V35H80V30H85V35H90V45H95Z" fill="#CB7419"/>
<path d="M65 60V65H60V70H50V60H65Z" fill="#FFA33E"/>
<path d="M45 25H35V30H45V25Z" fill="black"/>
<path d="M45 90H35V95H45V90Z" fill="black"/>
<path d="M35 85H30V90H35V85Z" fill="black"/>
<path d="M35 30H30V35H35V30Z" fill="black"/>
<path d="M30 75H25V85H30V75Z" fill="black"/>
<path d="M80 30V35H75V45H65V40H60V45H55V40H50V45H45V75H50V80H45V85H30V75H25V45H30V35H35V30H45V25H75V30H80Z" fill="#FFAA4D"/>
<path d="M30 35H25V45H30V35Z" fill="black"/>
<path d="M25 45H20V75H25V45Z" fill="black"/>
</svg>
