<svg width="24" height="24" viewBox="0 0 24 24" fill="none" xmlns="http://www.w3.org/2000/svg">
<path d="M11.6467 10.8535C11.7403 10.9474 11.8676 11.0002 12.0002 11C12.1329 11.0001 12.26 10.9474 12.3537 10.8535L15.8537 7.35352C16.0408 7.15973 16.0408 6.8526 15.8537 6.65881C15.6618 6.46021 15.3453 6.45465 15.1467 6.64648L12.0002 9.79303L8.85368 6.64655C8.65995 6.45941 8.35276 6.45941 8.15897 6.64655C7.96036 6.83838 7.95487 7.15491 8.14671 7.35352L11.6467 10.8535ZM15.1467 12.6465L12.0002 15.793L8.85368 12.6465C8.65995 12.4594 8.35276 12.4594 8.15897 12.6465C7.96036 12.8384 7.95487 13.1549 8.14671 13.3535L11.6467 16.8535C11.7403 16.9474 11.8676 17.0002 12.0002 17C12.1329 17.0001 12.26 16.9474 12.3537 16.8535L15.8537 13.3535C16.0408 13.1597 16.0408 12.8526 15.8537 12.6588C15.6618 12.4602 15.3453 12.4547 15.1467 12.6465Z" fill="black"/>
</svg>
