<svg width="24" height="24" viewBox="0 0 24 24" fill="none" xmlns="http://www.w3.org/2000/svg">
<path d="M17.4582 12.6254C17.467 11.86 17.6699 11.1094 18.0479 10.4438C18.426 9.77824 18.9667 9.2195 19.6195 8.81989C19.2046 8.22904 18.6583 7.74242 18.0236 7.39821C17.3889 7.054 16.6831 6.86159 15.9615 6.83606C14.4039 6.67816 12.9222 7.75299 12.1329 7.75299C11.3432 7.75299 10.1239 6.85925 8.83207 6.88391C7.98424 6.90748 7.15708 7.1509 6.43163 7.59032C5.70618 8.02974 5.10733 8.65008 4.69375 9.39056C2.93136 12.4507 4.2439 16.9843 5.96139 19.4673C6.80184 20.6812 7.80367 22.0485 9.11916 21.9987C10.3869 21.9488 10.8653 21.1799 12.3959 21.1799C13.9269 21.1799 14.3575 21.9987 15.6967 21.9739C17.0596 21.9488 17.9247 20.735 18.7583 19.5165C19.355 18.6404 19.8212 17.6822 20.1424 16.6721C19.3489 16.3332 18.6718 15.7694 18.1949 15.0503C17.7179 14.3312 17.4618 13.4883 17.4582 12.6254ZM14.9413 5.1933C15.6961 4.30799 16.0701 3.16004 15.9816 2C14.842 2.11054 13.7879 2.65288 13.0354 3.51581C12.66 3.93385 12.3725 4.4232 12.1902 4.9547C12.008 5.4862 11.9346 6.04897 11.9744 6.60944C12.5445 6.61731 13.1088 6.49364 13.6233 6.24803C14.1379 6.00243 14.5889 5.64151 14.9413 5.1933Z" fill="black"/>
</svg>
