<svg width="24" height="24" viewBox="0 0 24 24" fill="none" xmlns="http://www.w3.org/2000/svg">
<path d="M17.4526 6.00061C17.1501 6.00031 16.9045 6.2453 16.9042 6.54785V16.1328L6.93347 6.16162C6.7204 5.94861 6.375 5.94861 6.16199 6.16162C5.94897 6.3747 5.94897 6.72009 6.16199 6.93311L16.1328 16.9043H6.54773C6.24567 16.9047 6.00085 17.1494 6.00049 17.4515C6.00018 17.7541 6.24518 17.9996 6.54773 18H17.452C17.4521 18 17.4523 18 17.4525 18C17.7549 17.9999 18 17.7546 17.9999 17.4521V6.54785C17.9995 6.24579 17.7548 6.00098 17.4526 6.00061Z" fill="black"/>
</svg>
