<svg width="24" height="24" viewBox="0 0 24 24" fill="none" xmlns="http://www.w3.org/2000/svg">
<path d="M4 6C3.17157 6 2.5 6.67157 2.5 7.5C2.5 8.32843 3.17157 9 4 9C4.82806 8.99908 5.49908 8.32806 5.5 7.5C5.5 6.67157 4.82843 6 4 6ZM4 8C3.72388 8 3.5 7.77612 3.5 7.5C3.5 7.22388 3.72388 7 4 7C4.27594 7.00055 4.49945 7.22406 4.5 7.5C4.5 7.77612 4.27612 8 4 8ZM3 4H21C21.2761 4 21.5 3.77612 21.5 3.5C21.5 3.22388 21.2761 3 21 3H3C2.72388 3 2.5 3.22388 2.5 3.5C2.5 3.77612 2.72388 4 3 4ZM8 18C7.17157 18 6.5 18.6716 6.5 19.5C6.5 20.3284 7.17157 21 8 21C8.82806 20.9991 9.49908 20.3281 9.5 19.5C9.5 18.6716 8.82843 18 8 18ZM8 20C7.72388 20 7.5 19.7761 7.5 19.5C7.5 19.2239 7.72388 19 8 19C8.27594 19.0005 8.49945 19.2241 8.5 19.5C8.5 19.7761 8.27612 20 8 20ZM4 10C3.17157 10 2.5 10.6716 2.5 11.5C2.5 12.3284 3.17157 13 4 13C4.82806 12.9991 5.49908 12.3281 5.5 11.5C5.5 10.6716 4.82843 10 4 10ZM4 12C3.72388 12 3.5 11.7761 3.5 11.5C3.5 11.2239 3.72388 11 4 11C4.27594 11.0005 4.49945 11.2241 4.5 11.5C4.5 11.7761 4.27612 12 4 12ZM4 14C3.17157 14 2.5 14.6716 2.5 15.5C2.5 16.3284 3.17157 17 4 17C4.82806 16.9991 5.49908 16.3281 5.5 15.5C5.5 14.6716 4.82843 14 4 14ZM4 16C3.72388 16 3.5 15.7761 3.5 15.5C3.5 15.2239 3.72388 15 4 15C4.27594 15.0005 4.49945 15.2241 4.5 15.5C4.5 15.7761 4.27612 16 4 16ZM4 18C3.17157 18 2.5 18.6716 2.5 19.5C2.5 20.3284 3.17157 21 4 21C4.82806 20.9991 5.49908 20.3281 5.5 19.5C5.5 18.6716 4.82843 18 4 18ZM4 20C3.72388 20 3.5 19.7761 3.5 19.5C3.5 19.2239 3.72388 19 4 19C4.27594 19.0005 4.49945 19.2241 4.5 19.5C4.5 19.7761 4.27612 20 4 20ZM20 10C19.1716 10 18.5 10.6716 18.5 11.5C18.5 12.3284 19.1716 13 20 13C20.8281 12.9991 21.4991 12.3281 21.5 11.5C21.5 10.6716 20.8284 10 20 10ZM20 12C19.7239 12 19.5 11.7761 19.5 11.5C19.5 11.2239 19.7239 11 20 11C20.2759 11.0005 20.4995 11.2241 20.5 11.5C20.5 11.7761 20.2761 12 20 12ZM16 18C15.1716 18 14.5 18.6716 14.5 19.5C14.5 20.3284 15.1716 21 16 21C16.8281 20.9991 17.4991 20.3281 17.5 19.5C17.5 18.6716 16.8284 18 16 18ZM16 20C15.7239 20 15.5 19.7761 15.5 19.5C15.5 19.2239 15.7239 19 16 19C16.2759 19.0005 16.4995 19.2241 16.5 19.5C16.5 19.7761 16.2761 20 16 20ZM16 10C15.1716 10 14.5 10.6716 14.5 11.5C14.5 12.3284 15.1716 13 16 13C16.8281 12.9991 17.4991 12.3281 17.5 11.5C17.5 10.6716 16.8284 10 16 10ZM16 12C15.7239 12 15.5 11.7761 15.5 11.5C15.5 11.2239 15.7239 11 16 11C16.2759 11.0005 16.4995 11.2241 16.5 11.5C16.5 11.7761 16.2761 12 16 12ZM20 18C19.1716 18 18.5 18.6716 18.5 19.5C18.5 20.3284 19.1716 21 20 21C20.8281 20.9991 21.4991 20.3281 21.5 19.5C21.5 18.6716 20.8284 18 20 18ZM20 20C19.7239 20 19.5 19.7761 19.5 19.5C19.5 19.2239 19.7239 19 20 19C20.2759 19.0005 20.4995 19.2241 20.5 19.5C20.5 19.7761 20.2761 20 20 20ZM20 14C19.1716 14 18.5 14.6716 18.5 15.5C18.5 16.3284 19.1716 17 20 17C20.8281 16.9991 21.4991 16.3281 21.5 15.5C21.5 14.6716 20.8284 14 20 14ZM20 16C19.7239 16 19.5 15.7761 19.5 15.5C19.5 15.2239 19.7239 15 20 15C20.2759 15.0005 20.4995 15.2241 20.5 15.5C20.5 15.7761 20.2761 16 20 16ZM20 6C19.1716 6 18.5 6.67157 18.5 7.5C18.5 8.32843 19.1716 9 20 9C20.8281 8.99908 21.4991 8.32806 21.5 7.5C21.5 6.67157 20.8284 6 20 6ZM20 8C19.7239 8 19.5 7.77612 19.5 7.5C19.5 7.22388 19.7239 7 20 7C20.2759 7.00055 20.4995 7.22406 20.5 7.5C20.5 7.77612 20.2761 8 20 8ZM12 14C11.1716 14 10.5 14.6716 10.5 15.5C10.5 16.3284 11.1716 17 12 17C12.8281 16.9991 13.4991 16.3281 13.5 15.5C13.5 14.6716 12.8284 14 12 14ZM12 16C11.7239 16 11.5 15.7761 11.5 15.5C11.5 15.2239 11.7239 15 12 15C12.2759 15.0005 12.4995 15.2241 12.5 15.5C12.5 15.7761 12.2761 16 12 16ZM12 18C11.1716 18 10.5 18.6716 10.5 19.5C10.5 20.3284 11.1716 21 12 21C12.8281 20.9991 13.4991 20.3281 13.5 19.5C13.5 18.6716 12.8284 18 12 18ZM12 20C11.7239 20 11.5 19.7761 11.5 19.5C11.5 19.2239 11.7239 19 12 19C12.2759 19.0005 12.4995 19.2241 12.5 19.5C12.5 19.7761 12.2761 20 12 20ZM8 10C7.17157 10 6.5 10.6716 6.5 11.5C6.5 12.3284 7.17157 13 8 13C8.82806 12.9991 9.49908 12.3281 9.5 11.5C9.5 10.6716 8.82843 10 8 10ZM8 12C7.72388 12 7.5 11.7761 7.5 11.5C7.5 11.2239 7.72388 11 8 11C8.27594 11.0005 8.49945 11.2241 8.5 11.5C8.5 11.7761 8.27612 12 8 12ZM12 10C11.1716 10 10.5 10.6716 10.5 11.5C10.5 12.3284 11.1716 13 12 13C12.8281 12.9991 13.4991 12.3281 13.5 11.5C13.5 10.6716 12.8284 10 12 10ZM12 12C11.7239 12 11.5 11.7761 11.5 11.5C11.5 11.2239 11.7239 11 12 11C12.2759 11.0005 12.4995 11.2241 12.5 11.5C12.5 11.7761 12.2761 12 12 12ZM12 6C11.1716 6 10.5 6.67157 10.5 7.5C10.5 8.32843 11.1716 9 12 9C12.8281 8.99908 13.4991 8.32806 13.5 7.5C13.5 6.67157 12.8284 6 12 6ZM12 8C11.7239 8 11.5 7.77612 11.5 7.5C11.5 7.22388 11.7239 7 12 7C12.2759 7.00055 12.4995 7.22406 12.5 7.5C12.5 7.77612 12.2761 8 12 8Z" fill="black"/>
</svg>
