<svg width="24" height="24" viewBox="0 0 24 24" fill="none" xmlns="http://www.w3.org/2000/svg">
<path d="M12 6C11.7239 6 11.5 6.22388 11.5 6.5V11.5H8.5C8.22388 11.5 8 11.7239 8 12C8 12.2761 8.22388 12.5 8.5 12.5H12C12.0002 12.5 12.0004 12.5 12.0006 12.5C12.2766 12.4998 12.5002 12.276 12.5 12V6.5C12.5 6.22388 12.2761 6 12 6ZM12 2C6.47717 2 2 6.47717 2 12C2 17.5228 6.47717 22 12 22C17.5201 21.9935 21.9935 17.5201 22 12C22 6.47717 17.5228 2 12 2ZM12 21C7.02942 21 3 16.9706 3 12C3 7.02942 7.02942 3 12 3C16.9683 3.00543 20.9946 7.03168 21 12C21 16.9706 16.9706 21 12 21Z" fill="black"/>
</svg>
