<svg width="24" height="24" viewBox="0 0 24 24" fill="none" xmlns="http://www.w3.org/2000/svg">
<path d="M20.5002 5H11.3889C8.96622 5.00275 7.00297 6.966 7.00022 9.38867V18.293L2.85368 14.1465C2.65995 13.9594 2.35276 13.9594 2.15897 14.1465C1.96036 14.3384 1.95487 14.6549 2.14671 14.8535L7.14628 19.8531C7.19218 19.899 7.24686 19.9359 7.30765 19.9613C7.36808 19.9865 7.43345 20.0001 7.50022 20H7.50083C7.51145 20 7.52036 19.9946 7.5308 19.994C7.58665 19.9905 7.64207 19.9824 7.69297 19.9611C7.754 19.9356 7.80888 19.8986 7.85484 19.8524L12.8537 14.8535C13.0408 14.6597 13.0408 14.3525 12.8537 14.1588C12.6618 13.9602 12.3453 13.9547 12.1467 14.1465L8.00022 18.293V9.38867C8.0026 7.51813 9.51835 6.00238 11.3889 6H20.5002C20.7763 6 21.0002 5.77612 21.0002 5.5C21.0002 5.22388 20.7763 5 20.5002 5Z" fill="black"/>
</svg>
