<svg width="24" height="24" viewBox="0 0 24 24" fill="none" xmlns="http://www.w3.org/2000/svg">
<path d="M15.1113 7.50001H5.70892L10.3554 2.85353C10.546 2.65913 10.546 2.34809 10.3554 2.1537C10.1622 1.95649 9.84564 1.95326 9.64844 2.14656L4.14844 7.64656C4.14838 7.64656 4.14832 7.64662 4.14825 7.64668C3.95312 7.84193 3.95319 8.1584 4.14844 8.35353L9.64844 13.8535C9.74207 13.9475 9.86932 14.0002 10.002 14C10.1345 14 10.2616 13.9473 10.3553 13.8536C10.5507 13.6583 10.5507 13.3417 10.3554 13.1465L5.70892 8.50001H15.1113C16.9818 8.50239 18.4976 10.0181 18.4999 11.8887V21.5006C18.5001 21.7766 18.7239 22.0002 18.9999 22H19.0005C19.2765 21.9998 19.5001 21.776 19.4999 21.5V11.8887C19.4972 9.46601 17.5339 7.50276 15.1113 7.50001Z" fill="black"/>
</svg>
