<svg width="24" height="24" viewBox="0 0 24 24" fill="none" xmlns="http://www.w3.org/2000/svg">
<path d="M7.79987 3.99999H18.4999C19.2999 3.99999 19.9999 4.69999 19.9999 5.49999V12H16.7999C16.4999 12 16.2999 12.2 16.2999 12.5C16.2999 12.8 16.4999 13 16.7999 13H19.9999V14.5C19.9999 14.9 19.8999 15.2 19.6999 15.5C19.5999 15.6 19.5999 15.7 19.5999 15.8C19.5999 16.1 19.7999 16.3 20.0999 16.3C20.1999 16.3 20.3999 16.2 20.4999 16.1C20.8999 15.7 21.0999 15.1 21.0999 14.5V5.49999C20.9999 4.09999 19.8999 2.99999 18.4999 2.99999H7.79987C7.49987 2.99999 7.29987 3.19999 7.29987 3.49999C7.29987 3.79999 7.49987 3.99999 7.79987 3.99999ZM21.8999 21.1L16.8999 16.1L12.8999 12.1L4.49987 3.79999L4.39987 3.69999H4.29987L2.89987 2.09999C2.69987 1.99999 2.39987 1.99999 2.19987 2.09999C1.99987 2.29999 1.99987 2.69999 2.09987 2.89999L3.39987 4.19999C3.09987 4.49999 2.99987 4.99999 2.99987 5.49999V14.5C2.99987 15.9 4.09986 17 5.49987 17H8.99987V20H5.49987C5.19987 20 4.99987 20.2 4.99987 20.5C4.99987 20.8 5.19987 21 5.49987 21H9.49987H14.4999H18.4999C18.7999 21 18.9999 20.8 18.9999 20.5C18.9999 20.2 18.7999 20 18.4999 20H14.9999V17H16.2999L21.1999 21.9C21.2999 22 21.3999 22 21.5999 22C21.6999 22 21.8999 21.9 21.9999 21.9C21.9999 21.7 21.9999 21.3 21.8999 21.1ZM3.99987 5.49999C3.99987 5.29999 4.09986 5.09999 4.19986 4.89999L11.2999 12H3.99987V5.49999ZM13.9999 20H9.99987V17H13.9999V20ZM5.49987 16C4.69987 16 3.99987 15.3 3.99987 14.5V13H12.2999L15.2999 16H5.49987Z" fill="black"/>
</svg>
