<svg width="24" height="24" viewBox="0 0 24 24" fill="none" xmlns="http://www.w3.org/2000/svg">
<path d="M14 9.20001H9.99995C9.59995 9.20001 9.19995 9.50001 9.19995 10V14C9.19995 14.4 9.49995 14.8 9.99995 14.8H14C14.4 14.8 14.8 14.5 14.8 14V10C14.8 9.60001 14.4 9.20001 14 9.20001ZM14 16.2H9.99995C9.59995 16.2 9.19995 16.5 9.19995 17V21C9.19995 21.4 9.49995 21.8 9.99995 21.8H14C14.4 21.8 14.8 21.5 14.8 21V17C14.8 16.6 14.4 16.2 14 16.2ZM6.99995 2.20001H2.99995C2.59995 2.20001 2.19995 2.60001 2.19995 3.00001V7.00001C2.19995 7.40001 2.49995 7.80001 2.99995 7.80001H6.99995C7.39995 7.80001 7.79995 7.50001 7.79995 7.00001V3.00001C7.79995 2.60001 7.39995 2.20001 6.99995 2.20001ZM6.99995 9.20001H2.99995C2.59995 9.20001 2.19995 9.50001 2.19995 10V14C2.19995 14.4 2.49995 14.8 2.99995 14.8H6.99995C7.39995 14.8 7.79995 14.5 7.79995 14V10C7.79995 9.60001 7.39995 9.20001 6.99995 9.20001ZM21 2.20001H17C16.6 2.20001 16.2 2.50001 16.2 3.00001V7.00001C16.2 7.40001 16.5 7.80001 17 7.80001H21C21.4 7.80001 21.7999 7.50001 21.7999 7.00001V3.00001C21.7999 2.60001 21.4 2.20001 21 2.20001ZM14 2.20001H9.99995C9.59995 2.20001 9.19995 2.60001 9.19995 3.00001V7.00001C9.19995 7.40001 9.49995 7.80001 9.99995 7.80001H14C14.4 7.80001 14.8 7.50001 14.8 7.00001V3.00001C14.8 2.60001 14.4 2.20001 14 2.20001ZM21 9.20001H17C16.6 9.20001 16.2 9.50001 16.2 10V14C16.2 14.4 16.5 14.8 17 14.8H21C21.4 14.8 21.7999 14.5 21.7999 14V10C21.7999 9.60001 21.4 9.20001 21 9.20001Z" fill="black"/>
</svg>
