<svg width="24" height="24" viewBox="0 0 24 24" fill="none" xmlns="http://www.w3.org/2000/svg">
<path d="M12.0001 19.5C11.8687 19.5002 11.7387 19.4743 11.6173 19.4241C11.496 19.3738 11.3858 19.3 11.2931 19.207L8.29308 16.207C8.10837 16.0189 8.00541 15.7655 8.0066 15.5019C8.0078 15.2383 8.11305 14.9858 8.29945 14.7994C8.48586 14.613 8.73834 14.5077 9.00195 14.5065C9.26557 14.5053 9.51899 14.6083 9.70708 14.793L12.0001 17.0859L14.2931 14.7929C14.481 14.6074 14.7347 14.5037 14.9988 14.5045C15.2629 14.5054 15.5159 14.6107 15.7027 14.7974C15.8894 14.9842 15.9947 15.2372 15.9955 15.5013C15.9963 15.7654 15.8926 16.0191 15.7071 16.207L12.7071 19.207C12.6143 19.3 12.5042 19.3738 12.3828 19.4241C12.2615 19.4743 12.1314 19.5002 12.0001 19.5ZM15.0001 10.5C14.8687 10.5002 14.7387 10.4743 14.6173 10.4241C14.496 10.3738 14.3858 10.3 14.2931 10.207L12.0001 7.91406L9.70708 10.207C9.51899 10.3917 9.26557 10.4947 9.00195 10.4935C8.73834 10.4923 8.48586 10.387 8.29945 10.2006C8.11305 10.0142 8.0078 9.76174 8.0066 9.49813C8.00541 9.23451 8.10837 8.98109 8.29308 8.793L11.2931 5.793C11.3859 5.70012 11.4961 5.62644 11.6174 5.57617C11.7388 5.5259 11.8688 5.50003 12.0001 5.50003C12.1314 5.50003 12.2615 5.5259 12.3828 5.57617C12.5041 5.62644 12.6143 5.70012 12.7071 5.793L15.7071 8.793C15.847 8.93286 15.9422 9.11103 15.9807 9.30499C16.0193 9.49895 15.9995 9.69998 15.9238 9.88269C15.8481 10.0654 15.72 10.2216 15.5556 10.3314C15.3911 10.4413 15.1978 10.5 15.0001 10.5Z" fill="black"/>
</svg>
