<svg width="24" height="24" viewBox="0 0 24 24" fill="none" xmlns="http://www.w3.org/2000/svg">
<path d="M12 7C13.104 6.9986 13.9986 6.104 14 5C14 3.89545 13.1046 3 12 3C10.8954 3 10 3.89545 10 5C10 6.10455 10.8954 7 12 7ZM12 4C12.5521 4.00037 12.9996 4.44788 13 5C13 5.55231 12.5523 6 12 6C11.4477 6 11 5.55231 11 5C11 4.44769 11.4477 4 12 4ZM12 10C10.8954 10 10 10.8954 10 12C10 13.1046 10.8954 14 12 14C13.104 13.9986 13.9986 13.104 14 12C14 10.8954 13.1046 10 12 10ZM12 13C11.4477 13 11 12.5523 11 12C11 11.4477 11.4477 11 12 11C12.5521 11.0004 12.9996 11.4479 13 12C13 12.5523 12.5523 13 12 13ZM12 17C10.8954 17 10 17.8954 10 19C10 20.1046 10.8954 21 12 21C13.104 20.9986 13.9986 20.104 14 19C14 17.8954 13.1046 17 12 17ZM12 20C11.4477 20 11 19.5523 11 19C11 18.4477 11.4477 18 12 18C12.5521 18.0004 12.9996 18.4479 13 19C13 19.5523 12.5523 20 12 20Z" fill="black"/>
</svg>
