<svg width="24" height="24" viewBox="0 0 24 24" fill="none" xmlns="http://www.w3.org/2000/svg">
<path d="M21 13H3C2.73478 13 2.48043 12.8946 2.29289 12.7071C2.10536 12.5196 2 12.2652 2 12C2 11.7348 2.10536 11.4804 2.29289 11.2929C2.48043 11.1054 2.73478 11 3 11H21C21.2652 11 21.5196 11.1054 21.7071 11.2929C21.8946 11.4804 22 11.7348 22 12C22 12.2652 21.8946 12.5196 21.7071 12.7071C21.5196 12.8946 21.2652 13 21 13Z" fill="#999999"/>
<path d="M12 21L17 16H7L12 21Z" fill="black"/>
<path d="M11.9999 22C11.8686 22.0001 11.7385 21.9743 11.6172 21.9241C11.4958 21.8738 11.3856 21.8 11.2929 21.707L6.29291 16.707C6.15306 16.5672 6.05782 16.389 6.01922 16.195C5.98063 16.0011 6.00042 15.8 6.0761 15.6173C6.15178 15.4346 6.27994 15.2784 6.44438 15.1685C6.60882 15.0586 6.80214 15 6.99991 15H16.9999C17.1977 15 17.391 15.0586 17.5555 15.1685C17.7199 15.2784 17.8481 15.4346 17.9237 15.6173C17.9994 15.8 18.0192 16.0011 17.9806 16.195C17.942 16.389 17.8468 16.5672 17.7069 16.707L12.7069 21.707C12.6142 21.8 12.504 21.8738 12.3827 21.9241C12.2613 21.9743 12.1313 22.0001 11.9999 22ZM9.41397 17L11.9999 19.5859L14.5859 17H9.41397Z" fill="black"/>
<path d="M12 3.99997C11.8354 4.00151 11.673 3.96201 11.5275 3.88502C11.3819 3.80804 11.2579 3.696 11.1665 3.55904C11.0752 3.42207 11.0194 3.2645 11.0042 3.10056C10.989 2.93663 11.015 2.77149 11.0796 2.62009C11.128 2.49761 11.1995 2.38555 11.29 2.28997C11.4305 2.15097 11.609 2.05681 11.8031 2.01942C11.9971 1.98204 12.1979 2.00311 12.3799 2.07997C12.5023 2.12833 12.6143 2.19961 12.71 2.28997C12.8925 2.48172 12.9961 2.73524 13 2.99997C13.0035 3.13112 12.976 3.26124 12.92 3.37985C12.869 3.50087 12.798 3.61246 12.71 3.70993C12.6168 3.80298 12.5061 3.87654 12.3842 3.92634C12.2623 3.97614 12.1317 4.00117 12 3.99997ZM8.79005 6.20997C8.6026 6.02121 8.4974 5.76599 8.4974 5.49997C8.4974 5.23395 8.6026 4.97873 8.79005 4.78997C8.97869 4.60233 9.23394 4.497 9.50001 4.497C9.76608 4.497 10.0213 4.60233 10.21 4.78997C10.3972 4.97884 10.5022 5.234 10.5022 5.49993C10.5022 5.76586 10.3972 6.02102 10.21 6.20989C10.0196 6.39457 9.76519 6.49848 9.49997 6.49989C9.23474 6.49866 8.98031 6.39476 8.79005 6.20997ZM7.00005 8.99997C6.86837 9.00125 6.73776 8.97626 6.61585 8.92646C6.49395 8.87666 6.3832 8.80304 6.29009 8.70993C6.19697 8.61681 6.12336 8.50607 6.07356 8.38416C6.02376 8.26226 5.99877 8.13165 6.00005 7.99997C5.99889 7.80135 6.05691 7.60688 6.16671 7.44136C6.27652 7.27584 6.43312 7.14677 6.61657 7.0706C6.80001 6.99443 7.00198 6.97462 7.19673 7.01369C7.39148 7.05276 7.57018 7.14894 7.71005 7.28997C7.89259 7.48173 7.99613 7.73525 8.00005 7.99997C8.00133 8.13165 7.97634 8.26226 7.92653 8.38416C7.87673 8.50607 7.80312 8.61681 7.71001 8.70993C7.61689 8.80304 7.50614 8.87666 7.38424 8.92646C7.26234 8.97626 7.13172 9.00125 7.00005 8.99997ZM12.67 7.99997C12.6695 7.86852 12.6951 7.73829 12.7452 7.61676C12.7953 7.49523 12.8689 7.38482 12.9619 7.29187C13.0548 7.19892 13.1652 7.12528 13.2868 7.07518C13.4083 7.02508 13.5385 6.99952 13.67 6.99997C13.9349 7.00081 14.1888 7.10644 14.3761 7.29379C14.5635 7.48115 14.6691 7.73501 14.67 7.99997C14.6691 8.26493 14.5635 8.51879 14.3761 8.70615C14.1888 8.8935 13.9349 8.99913 13.67 8.99997C13.5385 9.00042 13.4083 8.97486 13.2868 8.92476C13.1652 8.87466 13.0548 8.80102 12.9619 8.70807C12.8689 8.61513 12.7953 8.50471 12.7452 8.38318C12.6951 8.26165 12.6695 8.13142 12.67 7.99997ZM9.32964 7.99997C9.33048 7.73501 9.43611 7.48115 9.62346 7.2938C9.81082 7.10644 10.0647 7.00081 10.3296 6.99997C10.4611 6.99952 10.5913 7.02508 10.7128 7.07518C10.8344 7.12528 10.9448 7.19892 11.0377 7.29187C11.1307 7.38482 11.2043 7.49523 11.2544 7.61676C11.3045 7.73829 11.3301 7.86852 11.3296 7.99997C11.3301 8.13142 11.3045 8.26165 11.2544 8.38318C11.2043 8.50471 11.1307 8.61513 11.0377 8.70807C10.9448 8.80102 10.8344 8.87466 10.7128 8.92476C10.5913 8.97486 10.4611 9.00042 10.3296 8.99997C10.0647 8.99913 9.81082 8.8935 9.62346 8.70615C9.43611 8.51879 9.33048 8.26493 9.32964 7.99997ZM17 8.99997C16.8684 9.00125 16.7378 8.97626 16.6159 8.92646C16.4939 8.87666 16.3832 8.80304 16.2901 8.70993C16.197 8.61681 16.1234 8.50607 16.0736 8.38416C16.0238 8.26226 15.9988 8.13165 16 7.99997C16 7.73475 16.1054 7.4804 16.2929 7.29286C16.4805 7.10533 16.7348 6.99997 17 6.99997C17.2653 6.99997 17.5196 7.10533 17.7072 7.29286C17.8947 7.4804 18 7.73475 18 7.99997C18.0013 8.13165 17.9763 8.26226 17.9265 8.38416C17.8767 8.50607 17.8031 8.61681 17.71 8.70993C17.6169 8.80304 17.5061 8.87666 17.3842 8.92646C17.2623 8.97626 17.1317 9.00125 17 8.99997ZM13.79 6.20997C13.6026 6.02122 13.4974 5.76601 13.4974 5.50001C13.4974 5.23401 13.6026 4.9788 13.79 4.79005C13.9787 4.60241 14.2339 4.49708 14.5 4.49708C14.7661 4.49708 15.0213 4.60241 15.21 4.79005C15.3972 4.97892 15.5022 5.23408 15.5022 5.50001C15.5022 5.76594 15.3972 6.0211 15.21 6.20997C15.0196 6.39465 14.7652 6.49856 14.5 6.49997C14.2347 6.49872 13.9803 6.39478 13.79 6.20997Z" fill="#666666"/>
</svg>
