<svg width="24" height="24" viewBox="0 0 24 24" fill="none" xmlns="http://www.w3.org/2000/svg">
<path d="M21.7319 15.1377C21.73 15.1044 21.721 15.0729 21.7123 15.04C21.7035 15.0071 21.6955 14.9755 21.6805 14.9457C21.6759 14.9365 21.6761 14.9261 21.6709 14.917L15.5127 4.25C15.4235 4.09534 15.2586 4.00006 15.0801 4H8.9209C8.83325 4.00006 8.74719 4.02319 8.67126 4.06702C8.59955 4.1084 8.54736 4.16748 8.50562 4.23273C8.50061 4.2395 8.49298 4.24292 8.48828 4.25L2.3291 14.917C2.23926 15.0715 2.23926 15.2625 2.3291 15.417L5.40918 20.75C5.41638 20.7625 5.4306 20.7679 5.43878 20.7797C5.47272 20.8285 5.51331 20.8691 5.56213 20.9031C5.58051 20.9159 5.59595 20.9292 5.61584 20.9394C5.68451 20.975 5.75916 20.9999 5.8418 21H18.1592C18.3377 20.9999 18.5026 20.9047 18.5918 20.75L21.6709 15.417C21.678 15.4047 21.6758 15.3893 21.6818 15.3765C21.7071 15.3226 21.722 15.2672 21.7271 15.2079C21.7283 15.1938 21.7379 15.1816 21.7379 15.1674C21.7379 15.1569 21.7325 15.1481 21.7319 15.1377ZM14.791 5L20.3721 14.667H15.3691L9.78711 5H14.791ZM14.2144 14.667H9.78619L12.0001 10.8322L14.2144 14.667ZM3.33887 15.167L8.9209 5.5L11.4229 9.83301L5.8418 19.5L3.33887 15.167ZM17.8701 20H6.70801L9.21002 15.667H20.3721L17.8701 20Z" fill="black"/>
</svg>
