<svg width="24" height="24" viewBox="0 0 24 24" fill="none" xmlns="http://www.w3.org/2000/svg">
<path d="M21.5 15H20V7C19.9982 5.34387 18.6561 4.00183 17 4H7C5.34387 4.00183 4.00183 5.34387 4 7V15H2.49939C2.22345 15.0002 1.99982 15.224 2 15.5V17C2.00183 18.6561 3.34387 19.9982 5 20H19C20.6561 19.9982 21.9982 18.6561 22 17V15.4994C21.9998 15.2234 21.776 14.9998 21.5 15ZM5 7C5.0014 5.896 5.896 5.0014 7 5H17C18.104 5.0014 18.9986 5.896 19 7V15H5V7ZM21 17C20.9986 18.104 20.104 18.9986 19 19H5C3.896 18.9986 3.0014 18.104 3 17V16H21V17Z" fill="black"/>
</svg>
