<svg width="24" height="24" viewBox="0 0 24 24" fill="none" xmlns="http://www.w3.org/2000/svg">
<path d="M21.5 2H8.5C8.49982 2 8.49963 2 8.49945 2C8.22345 2.00018 7.99982 2.224 8 2.5V7H5.5C5.49982 7 5.49963 7 5.49939 7C5.22345 7.00018 4.99982 7.224 5 7.5V12H2.5C2.49982 12 2.49963 12 2.49939 12C2.22345 12.0002 1.99982 12.224 2 12.5V21.5C2 21.5002 2 21.5004 2 21.5005C2.00018 21.7766 2.224 22.0002 2.5 22H11.5C11.5002 22 11.5004 22 11.5006 22C11.7766 21.9998 12.0002 21.776 12 21.5V19H16.5C16.5002 19 16.5004 19 16.5006 19C16.7766 18.9998 17.0002 18.776 17 18.5V16H21.5C21.5002 16 21.5004 16 21.5006 16C21.7766 15.9998 22.0002 15.776 22 15.5V2.5C22 2.49982 22 2.49963 22 2.49939C21.9998 2.22345 21.776 1.99982 21.5 2ZM11 18.5V18.5005V21H3V13H5.5H11V18.5ZM16 15.5V15.5005V18H12V12.5C12 12.4998 12 12.4996 12 12.4994C11.9998 12.2234 11.776 11.9998 11.5 12H6V8H8.5H16V15.5ZM21 15H17V7.5C17 7.49982 17 7.49963 17 7.49939C16.9998 7.22345 16.776 6.99982 16.5 7H9V3H21V15Z" fill="black"/>
</svg>
