<svg width="24" height="24" viewBox="0 0 24 24" fill="none" xmlns="http://www.w3.org/2000/svg">
<path d="M5.88382 9.17969C5.70694 8.96771 5.39169 8.93933 5.17972 9.11621L2.17972 11.6162C2.15659 11.6355 2.13522 11.6569 2.11594 11.68C1.93918 11.892 1.96774 12.207 2.17972 12.3838L5.17972 14.8838C5.2695 14.959 5.3829 15.0001 5.50003 15C5.64816 14.9999 5.78867 14.9342 5.88364 14.8205C6.06064 14.6085 6.03232 14.2932 5.82034 14.1162L3.28128 12L5.82034 9.88379C6.03232 9.70691 6.0607 9.39166 5.88382 9.17969ZM12.5 7H21.5C21.7762 7 22 6.77612 22 6.5C22 6.22388 21.7762 6 21.5 6H12.5C12.2239 6 12 6.22388 12 6.5C12 6.77612 12.2239 7 12.5 7ZM9.04495 5H9.04202C8.76712 5.00018 8.54385 5.22217 8.54202 5.49707L8.45804 18.4971C8.45657 18.7731 8.67905 18.9982 8.95511 19H8.95804C9.23294 18.9998 9.45621 18.7778 9.45804 18.5029L9.54202 5.50293C9.54349 5.22687 9.32101 5.00177 9.04495 5ZM21.5 18H12.5C12.2239 18 12 18.2239 12 18.5C12 18.7761 12.2239 19 12.5 19H21.5C21.7762 19 22 18.7761 22 18.5C22 18.2239 21.7762 18 21.5 18ZM21.5 10H12.5C12.2239 10 12 10.2239 12 10.5C12 10.7761 12.2239 11 12.5 11H21.5C21.7762 11 22 10.7761 22 10.5C22 10.2239 21.7762 10 21.5 10ZM21.5 14H12.5C12.2239 14 12 14.2239 12 14.5C12 14.7761 12.2239 15 12.5 15H21.5C21.7762 15 22 14.7761 22 14.5C22 14.2239 21.7762 14 21.5 14Z" fill="black"/>
</svg>
