<svg width="24" height="24" viewBox="0 0 24 24" fill="none" xmlns="http://www.w3.org/2000/svg">
<path d="M12 2C8.13403 2 5 5.13403 5 9V15C5.0047 18.8641 8.13593 21.9953 12 22C15.8641 21.9953 18.9953 18.8641 19 15V9C19 5.13403 15.866 2 12 2ZM18 15C18 18.3137 15.3137 21 12 21C8.68628 21 6 18.3137 6 15V9C6.00342 5.85663 8.42249 3.28339 11.5 3.02576V12.501C11.5 12.5012 11.5 12.5014 11.5 12.5016C11.5002 12.7775 11.724 13.0012 12 13.001C12.0002 13.001 12.0004 13.001 12.0005 13.001C12.2766 13.0009 12.5002 12.777 12.5 12.501V3.02576C15.5775 3.28339 17.9966 5.85663 18 9V15Z" fill="black"/>
</svg>
