<svg width="24" height="24" viewBox="0 0 24 24" fill="none" xmlns="http://www.w3.org/2000/svg">
<path d="M8.89164 21.8535C7.65556 21.8535 6.44723 21.487 5.41945 20.8003C4.39167 20.1136 3.59058 19.1376 3.11749 17.9956C2.6444 16.8536 2.52055 15.597 2.7616 14.3847C3.00265 13.1723 3.59777 12.0587 4.47172 11.1846L12.4268 3.22949C13.2709 2.38689 14.415 1.91388 15.6077 1.91437C16.8004 1.91486 17.944 2.38882 18.7875 3.23211C19.6309 4.07539 20.105 5.21902 20.1057 6.4117C20.1063 7.60437 19.6335 8.74853 18.791 9.59277L11.8965 16.4873C11.3726 16.9875 10.6761 17.2666 9.9517 17.2666C9.22733 17.2666 8.53081 16.9875 8.00688 16.4873C7.49146 15.9714 7.20202 15.272 7.20221 14.5428C7.20239 13.8135 7.49219 13.1142 8.00788 12.5986L13.1339 7.47168C13.2267 7.37883 13.337 7.30518 13.4583 7.25493C13.5796 7.20468 13.7096 7.17881 13.8409 7.17881C13.9722 7.17881 14.1022 7.20468 14.2236 7.25493C14.3449 7.30518 14.4551 7.37883 14.5479 7.47168C14.6408 7.56452 14.7144 7.67475 14.7647 7.79606C14.8149 7.91738 14.8408 8.0474 14.8408 8.17871C14.8408 8.31001 14.8149 8.44004 14.7647 8.56135C14.7144 8.68266 14.6408 8.79289 14.5479 8.88574L9.42194 14.0127C9.35228 14.0824 9.29702 14.165 9.25932 14.256C9.22161 14.347 9.20221 14.4445 9.20221 14.543C9.20221 14.6415 9.22161 14.739 9.25932 14.83C9.29702 14.921 9.35228 15.0037 9.42194 15.0733C9.56482 15.2096 9.75472 15.2857 9.95221 15.2857C10.1497 15.2857 10.3396 15.2096 10.4825 15.0733L17.377 8.17871C17.8451 7.70954 18.108 7.07386 18.108 6.41113C18.108 5.74839 17.8451 5.11271 17.377 4.64355C16.9009 4.1885 16.2676 3.93456 15.609 3.93456C14.9503 3.93456 14.3171 4.1885 13.8409 4.64355L5.88578 12.5986C5.49117 12.9933 5.17817 13.4618 4.96463 13.9775C4.75109 14.4931 4.64121 15.0458 4.64126 15.6039C4.6413 16.162 4.75127 16.7146 4.96489 17.2302C5.17851 17.7458 5.49159 18.2143 5.88626 18.6089C6.28094 19.0035 6.74946 19.3165 7.2651 19.53C7.78074 19.7436 8.33339 19.8534 8.89149 19.8534C9.4496 19.8534 10.0022 19.7434 10.5178 19.5298C11.0334 19.3161 11.5019 19.0031 11.8965 18.6084L18.084 12.4219C18.1769 12.329 18.2871 12.2554 18.4084 12.2051C18.5297 12.1549 18.6597 12.129 18.7911 12.129C18.9224 12.129 19.0524 12.1549 19.1737 12.2051C19.295 12.2554 19.4052 12.329 19.4981 12.4219C19.5909 12.5147 19.6646 12.6249 19.7148 12.7463C19.7651 12.8676 19.791 12.9976 19.791 13.1289C19.791 13.2602 19.7651 13.3902 19.7148 13.5115C19.6646 13.6329 19.5909 13.7431 19.4981 13.8359L13.3106 20.0225C12.7318 20.6048 12.0432 21.0666 11.2846 21.3809C10.5261 21.6952 9.71272 21.8558 8.89164 21.8535Z" fill="black"/>
</svg>
