<svg width="24" height="24" viewBox="0 0 24 24" fill="none" xmlns="http://www.w3.org/2000/svg">
<path d="M23 9.32017C23.0626 9.06323 23.027 8.79216 22.9 8.56017C22.5759 7.99781 22.144 7.50498 21.6289 7.10996C21.1139 6.71495 20.526 6.42551 19.8988 6.25828C19.2717 6.09104 18.6177 6.04928 17.9744 6.13541C17.331 6.22154 16.7111 6.43385 16.15 6.76017L14 8.00017L8.99999 5.65017C8.85784 5.57652 8.70008 5.53809 8.53999 5.53809C8.37989 5.53809 8.22214 5.57652 8.07999 5.65017L5.07999 7.38017C4.93173 7.46569 4.8079 7.58783 4.72035 7.73491C4.63281 7.88198 4.58448 8.04907 4.57999 8.22017C4.57515 8.39254 4.61496 8.56323 4.69556 8.71567C4.77616 8.86811 4.89481 8.99712 5.03999 9.09017L8.33999 11.1702L6.59999 12.1702L1.81999 12.7502C1.62783 12.7739 1.44671 12.853 1.29861 12.9777C1.15051 13.1024 1.0418 13.2674 0.985679 13.4527C0.929557 13.6381 0.928438 13.8357 0.982457 14.0216C1.03648 14.2075 1.14331 14.3738 1.28999 14.5002L4.82999 17.5602C5.29604 18.005 5.89289 18.2879 6.53223 18.3672C7.17158 18.4464 7.81945 18.3177 8.37999 18.0002L22.5 9.93017C22.6203 9.8677 22.7267 9.78141 22.8127 9.67655C22.8986 9.57168 22.9624 9.45043 23 9.32017ZM7.46999 16.3202C7.2779 16.4259 7.05639 16.4655 6.83957 16.433C6.62274 16.4005 6.42261 16.2976 6.26999 16.1402L4.36999 14.5102L7.09999 14.1802C7.23414 14.163 7.36342 14.1188 7.47999 14.0502L10.84 12.1202C10.9897 12.0338 11.1144 11.9101 11.2021 11.7611C11.2897 11.6121 11.3372 11.443 11.34 11.2702C11.342 11.0985 11.2999 10.9293 11.2176 10.7786C11.1352 10.628 11.0155 10.5011 10.87 10.4102L7.56999 8.32017L8.66999 7.69017L13.67 10.0102C13.8121 10.0838 13.9699 10.1222 14.13 10.1222C14.2901 10.1222 14.4478 10.0838 14.59 10.0102L17.15 8.53017C17.6746 8.23617 18.2755 8.10662 18.8746 8.15833C19.4737 8.21004 20.0435 8.44063 20.51 8.82017L7.46999 16.3202Z" fill="black"/>
</svg>
