<svg width="24" height="24" viewBox="0 0 24 24" fill="none" xmlns="http://www.w3.org/2000/svg">
<path d="M5.5 18C5.22388 18 5 18.2239 5 18.5V21.5005C5.00018 21.7766 5.224 22.0002 5.5 22H5.50061C5.77655 21.9998 6.00018 21.776 6 21.5V18.5C6 18.2239 5.77612 18 5.5 18ZM10.5 14C10.2239 14 10 14.2239 10 14.5V21.5005C10.0002 21.7766 10.224 22.0002 10.5 22H10.5006C10.7766 21.9998 11.0002 21.776 11 21.5V14.5C11 14.2239 10.7761 14 10.5 14ZM20.5 2C20.2239 2 20 2.22388 20 2.5V21.5005C20.0002 21.7766 20.224 22.0002 20.5 22H20.5006C20.7766 21.9998 21.0002 21.776 21 21.5V2.5C21 2.22388 20.7761 2 20.5 2ZM15.5 9C15.2239 9 15 9.22388 15 9.5V21.5005C15.0002 21.7766 15.224 22.0002 15.5 22H15.5006C15.7766 21.9998 16.0002 21.776 16 21.5V9.5C16 9.22388 15.7761 9 15.5 9Z" fill="black"/>
</svg>
