<svg width="24" height="24" viewBox="0 0 24 24" fill="none" xmlns="http://www.w3.org/2000/svg">
<path d="M21.9188 10.1265C21.9991 9.5797 21.6208 9.0714 21.0741 8.99114L15.4227 8.16497L12.8973 3.01848C12.8064 2.8615 12.6759 2.73113 12.5188 2.64037C12.0227 2.35369 11.3882 2.52336 11.1014 3.01946L8.57701 8.16497L2.92564 8.9912C2.70958 9.02288 2.50987 9.12444 2.35686 9.28026C1.96971 9.67461 1.97563 10.3082 2.36998 10.6953L6.46275 14.708L5.49693 20.3721C5.48778 20.4263 5.48308 20.4811 5.48295 20.5362C5.48143 21.0896 5.92882 21.5395 6.48228 21.541C6.64543 21.5408 6.80607 21.5005 6.95006 21.4238L11.9999 18.7539L17.0487 21.4228C17.2438 21.5264 17.4677 21.5625 17.6855 21.5254C18.2297 21.4325 18.5956 20.9162 18.5028 20.3721L17.537 14.708L21.6307 10.6943C21.786 10.5414 21.8871 10.3421 21.9188 10.1265ZM11.4999 17.887L6.48326 20.54L7.49296 14.6182C7.52012 14.4564 7.46654 14.2916 7.34941 14.1767L3.07011 9.98143L8.98222 9.11718C9.14549 9.09276 9.28636 8.98986 9.35924 8.84178L11.4999 4.47905V17.887ZM16.6503 14.1767C16.5332 14.2916 16.4796 14.4563 16.5067 14.6181L17.5165 20.539L12.4999 17.8869V4.47905L14.6404 8.84172C14.7133 8.9898 14.8542 9.0927 15.0174 9.11711L20.9305 9.9804L16.6503 14.1767Z" fill="black"/>
</svg>
