<svg width="24" height="24" viewBox="0 0 24 24" fill="none" xmlns="http://www.w3.org/2000/svg">
<path d="M7.79987 4.00002H18.6999L20.4999 8.60002C20.4999 9.90002 19.3999 11 17.9999 11C16.5999 11 15.4999 9.90002 15.4999 8.50002C15.4999 8.20002 15.2999 8.00002 14.9999 8.00002C14.6999 8.00002 14.4999 8.20002 14.4999 8.50002C14.4999 9.00002 14.2999 9.50002 14.0999 9.90002C13.9999 10 13.9999 10.1 13.9999 10.2C13.9999 10.5 14.1999 10.7 14.4999 10.7C14.6999 10.7 14.7999 10.6 14.8999 10.5C14.9999 10.4 14.9999 10.4 14.9999 10.3C15.5999 11.3 16.6999 12 17.9999 12C18.2999 12 18.6999 11.9 18.9999 11.8V15.2C18.9999 15.5 19.1999 15.7 19.4999 15.7C19.7999 15.7 19.9999 15.5 19.9999 15.2V11.3C20.8999 10.7 21.4999 9.60002 21.4999 8.40002V8.30002C21.4999 8.30002 21.4999 8.30002 21.4999 8.20002L19.4999 3.20002C19.3999 3.10002 19.1999 3.00002 18.9999 3.00002H7.79987C7.49987 3.00002 7.19986 3.20002 7.19986 3.50002C7.19986 3.80002 7.49987 4.00002 7.79987 4.00002ZM22.8999 22.1L19.8999 19.1L14.8999 14.1L1.89987 1.10002C1.69987 1.00002 1.39987 1.00002 1.19987 1.10002C0.999865 1.30002 0.999865 1.70002 1.09987 1.90002L3.99987 4.70002L2.49987 8.30002C2.49987 8.40002 2.49987 8.40002 2.49987 8.50002C2.49987 9.70002 3.09986 10.7 3.99987 11.4V21.5C3.99987 21.8 4.19987 22 4.49987 22H14.4999H19.4999C19.7999 22 19.9999 21.8 19.9999 21.5V20.7L22.0999 22.8C22.1999 22.9 22.2999 22.9 22.4999 22.9C22.5999 22.9 22.7999 22.8 22.8999 22.8C22.9999 22.7 22.9999 22.3 22.8999 22.1ZM3.49987 8.60002L4.69986 5.50002L8.39986 9.20002C8.09986 10.2 7.09986 11 5.99987 11C4.59986 11 3.49987 9.90002 3.49987 8.60002ZM9.49987 14C9.19987 14 8.99987 14.2 8.99987 14.5V21H4.99987V11.8C5.29987 11.9 5.69986 12 5.99987 12C7.29986 12 8.39987 11.3 8.99987 10.3C9.49986 11.1 10.2999 11.7 11.1999 11.9L13.2999 14H9.49987ZM13.9999 21H9.99987V15H13.9999V21ZM18.9999 21H14.9999V15.7L18.9999 19.7V21Z" fill="black"/>
</svg>
