<svg width="25" height="25" viewBox="0 0 25 25" fill="none" xmlns="http://www.w3.org/2000/svg">
<rect x="0.0649414" y="0.0649414" width="24" height="24" fill="white" fill-opacity="0.01"/>
<path d="M0.0649414 0.0649414H24.0649M0.0649414 0.0649414V24.0649M0.0649414 0.0649414L24.0649 24.0649M24.0649 0.0649414V24.0649M24.0649 0.0649414L0.0649414 24.0649M24.0649 24.0649H0.0649414" stroke="#DADEE4" stroke-width="0.13"/>
<circle cx="12.0649" cy="12.0649" r="10" stroke="#DADEE4" stroke-width="0.13"/>
<rect x="2.06494" y="4.06494" width="20" height="16" rx="1" stroke="#DADEE4" stroke-width="0.13"/>
<rect x="4.06494" y="2.06494" width="16" height="20" rx="1" stroke="#DADEE4" stroke-width="0.13"/>
<rect x="3.06494" y="3.06494" width="18" height="18" rx="1" stroke="#DADEE4" stroke-width="0.13"/>
<circle cx="12.0649" cy="12.0649" r="4" stroke="#DADEE4" stroke-width="0.13"/>
<path fill-rule="evenodd" clip-rule="evenodd" d="M9.05784 5.2282C9.22691 6.65104 8.99553 8.13453 8.4817 9.4668C7.9132 10.9407 7.15669 12.536 7.06312 14.1238C6.98433 15.4608 7.2873 17.0427 8.09526 18.1255C8.98014 19.3114 10.4324 20.0649 12.0317 20.0649H13.5442C16.1446 20.0649 18.3109 18.0716 18.5269 15.4802L18.8879 11.148C18.9365 10.565 18.4764 10.0649 17.8914 10.0649H12.565C11.7339 10.0649 11.0696 9.39237 11.0635 8.57249C11.0562 7.60272 11.1174 6.40578 10.6705 5.51216C10.2709 4.71286 9.89693 4.56494 9.56497 4.56494C9.26526 4.56494 9.02574 4.95802 9.05784 5.2282ZM9.56497 2.56494C10.9205 2.56494 11.859 3.41702 12.4594 4.61773C12.9818 5.66245 13.0311 6.91751 13.0564 8.06494H17.8914C19.6465 8.06494 21.0268 9.56502 20.881 11.3141L20.52 15.6463C20.2177 19.2743 17.1848 22.0649 13.5442 22.0649H12.0317C10.0646 22.0649 8.23634 21.2466 6.96469 19.8864C6.51731 20.0031 6.04809 20.0651 5.56494 20.0651C4.45672 20.0651 3.53652 19.444 2.9409 18.4566C2.36184 17.4967 2.06494 16.1715 2.06494 14.5651C2.06494 12.9586 2.36184 11.6334 2.9409 10.6735C3.53652 9.6861 4.45672 9.06506 5.56494 9.06506C5.84644 9.06506 6.14358 9.11457 6.44226 9.19853C6.89977 7.99934 7.22605 6.76227 7.07181 5.46418C6.90011 4.01915 8.08045 2.56494 9.56497 2.56494ZM5.76077 11.0893C5.27625 10.989 4.8959 11.3046 4.65345 11.7065C4.32769 12.2466 4.06494 13.1714 4.06494 14.5651C4.06494 15.9587 4.32769 16.8836 4.65345 17.4236C4.96265 17.9362 5.29245 18.0651 5.56494 18.0651C5.62852 18.0651 5.69163 18.0634 5.75423 18.0601C5.21881 16.8517 4.98913 15.3204 5.06659 14.0061C5.11406 13.2006 5.4283 12.0881 5.76077 11.0893Z" fill="#09244B"/>
</svg>
