<?xml version="1.0" encoding="iso-8859-1"?>
<!-- Generator: Adobe Illustrator 19.0.0, SVG Export Plug-In . SVG Version: 6.00 Build 0)  -->
<svg version="1.1" id="Layer_1" xmlns="http://www.w3.org/2000/svg" xmlns:xlink="http://www.w3.org/1999/xlink" x="0px" y="0px"
	 viewBox="0 0 512 512" style="enable-background:new 0 0 512 512;" xml:space="preserve">
<g>
	<g>
		<polygon points="267.13,233.739 267.13,200.348 233.739,200.348 233.739,233.739 166.957,233.739 166.957,200.348 
			133.565,200.348 133.565,233.739 0,233.739 0,267.13 200.348,267.13 200.348,300.522 233.739,300.522 233.739,267.13 
			300.522,267.13 300.522,300.522 333.913,300.522 333.913,267.13 512,267.13 512,233.739 		"/>
	</g>
</g>
<g>
	<g>
		<rect x="166.957" width="166.956" height="33.391"/>
	</g>
</g>
<g>
	<g>
		<rect x="133.565" y="33.391" width="33.391" height="33.391"/>
	</g>
</g>
<g>
	<g>
		<rect x="333.913" y="33.391" width="33.391" height="33.391"/>
	</g>
</g>
<g>
	<g>
		<rect x="100.174" y="66.783" width="33.391" height="133.565"/>
	</g>
</g>
<g>
	<g>
		<rect x="166.957" y="478.609" width="166.956" height="33.391"/>
	</g>
</g>
<g>
	<g>
		<rect x="133.565" y="445.217" width="33.391" height="33.391"/>
	</g>
</g>
<g>
	<g>
		<rect x="333.913" y="445.217" width="33.391" height="33.391"/>
	</g>
</g>
<g>
	<g>
		<rect x="367.304" y="333.913" width="33.391" height="111.304"/>
	</g>
</g>
<g>
	<g>
		<rect x="200.348" y="166.957" width="33.391" height="33.391"/>
	</g>
</g>
<g>
	<g>
		<rect x="333.913" y="300.522" width="33.391" height="33.391"/>
	</g>
</g>
<g>
	<g>
		<polygon points="367.304,66.783 367.304,133.565 333.913,133.565 333.913,100.174 300.522,100.174 300.522,166.957 
			400.696,166.957 400.696,66.783 		"/>
	</g>
</g>
<g>
	<g>
		<rect x="166.957" y="100.174" width="33.391" height="66.783"/>
	</g>
</g>
<g>
	<g>
		<rect x="200.348" y="66.783" width="100.174" height="33.391"/>
	</g>
</g>
<g>
	<g>
		<rect x="267.13" y="333.913" width="33.391" height="33.391"/>
	</g>
</g>
<g>
	<g>
		<rect x="233.739" y="300.522" width="33.391" height="33.391"/>
	</g>
</g>
<g>
	<g>
		<rect x="300.522" y="367.304" width="33.391" height="44.522"/>
	</g>
</g>
<g>
	<g>
		<rect x="200.348" y="411.826" width="100.174" height="33.391"/>
	</g>
</g>
<g>
	<g>
		<polygon points="100.174,345.043 100.174,445.217 133.565,445.217 133.565,378.435 166.957,378.435 166.957,411.826 
			200.348,411.826 200.348,345.043 		"/>
	</g>
</g>
<g>
</g>
<g>
</g>
<g>
</g>
<g>
</g>
<g>
</g>
<g>
</g>
<g>
</g>
<g>
</g>
<g>
</g>
<g>
</g>
<g>
</g>
<g>
</g>
<g>
</g>
<g>
</g>
<g>
</g>
</svg>
