<svg xmlns="http://www.w3.org/2000/svg" width="32" height="32" fill="none" viewBox="0 0 32 32">
  <g clip-path="url(#a)">
    <path fill="#000001" d="M30.48 18.29h-1.52v3.05h-1.53v1.52h-1.52v1.52h1.52v1.53h1.53v3.05h1.52v-1.53H32v-7.62h-1.52v-1.52Zm-4.57 9.14h-1.53v-1.52h-1.52v1.52h-1.52v1.53h-3.05v1.52h1.52V32h7.62v-1.52h1.53v-1.52h-3.05v-1.53Zm-4.57-7.62h1.52v1.53h1.52v-1.53h1.53v-1.52h3.05v-1.53h-1.53v-1.52h-7.62v1.52h-1.52v1.53h3.05v1.52Zm-1.53 6.1v-1.53h1.53v-1.52h-1.53v-1.52h-1.52v-3.05h-1.52v1.52h-1.53v7.62h1.53v1.53h1.52v-3.05h1.52Zm-4.57-9.15h1.53v-4.57h1.52v1.53h1.52V9.15h-1.52v1.52h-1.52V3.05h-1.53v13.71Z"/>
    <path fill="#000001" d="M15.24 28.96h-1.52v-1.53h-3.05v-4.57h3.05v-1.52H4.58v1.52h4.57v4.57H4.58v1.53H1.53V32h15.24v-1.52h-1.53v-1.52Zm0-12.2h-1.52v1.53h1.52v-1.53Zm0-15.23h-1.52v1.52h1.52V1.53Zm-1.52 6.09h-1.53v1.53h1.53V7.62Zm0-3.05h-1.53V6.1h1.53V4.57Zm0 13.72H6.1v1.52h7.62v-1.52Zm-3.05-9.14H9.15v1.52h1.52V9.15Zm0-3.05H9.15v1.52h1.52V6.1Zm0-3.05H9.15v1.52h1.52V3.05ZM13.72 0H6.1v1.53h7.62V0Zm-6.1 7.62H6.1v1.53h1.52V7.62Zm0-3.05H6.1V6.1h1.52V4.57ZM6.1 16.76H4.58v1.53H6.1v-1.53Zm0-15.23H4.58v1.52H6.1V1.53ZM4.58 19.81H3.05v1.53h1.53v-1.53Zm-1.53-1.52H1.53v1.52h1.52v-1.52Zm-1.52-6.1h1.52v4.57h1.53V3.05H3.05v7.62H1.53V9.15H0v9.14h1.53v-6.1Z"/>
  </g>
  <defs>
    <clipPath id="a">
      <path fill="#fff" d="M0 0h32v32H0z"/>
    </clipPath>
  </defs>
</svg>
