<svg xmlns="http://www.w3.org/2000/svg" width="32" height="32" fill="none" viewBox="0 0 32 32">
  <path fill="#000001" d="M30.475 1.525H1.525v28.95h28.95V1.525Zm-1.52 27.43H12.2V3.045h16.76l-.005 25.91Z"/>
  <path fill="#000001" d="M27.435 25.905h-1.53v1.53h1.53v-1.53Zm0-9.14h-1.53v6.09h1.53v-6.09Zm0-12.19h-1.53v1.52h1.53v-1.52Zm-1.53 18.28h-1.52v1.53h1.52v-1.53Zm0-7.62h-1.52v1.53h1.52v-1.53Zm-1.52 3.05h-1.53v3.05h1.53v-3.05Zm0-10.66h-1.53v3.04h1.53v-3.04Zm0 16.76h-6.1v1.52h6.1v-1.52Zm-1.53-7.62h-3.04v1.52h3.04v-1.52Zm0-10.67h-3.04v1.53h3.04v-1.53Zm0 15.24h-3.04v1.52h3.04v-1.52Zm1.53-7.62h-6.1v1.52h6.1v-1.52Zm-1.53-3.05h-3.04v1.53h3.04v-1.53Zm-3.04 7.62h-1.53v3.05h1.53v-3.05Zm0-10.66h-1.53v3.04h1.53v-3.04Zm-1.53 15.23h-1.52v1.53h1.52v-1.53Zm0-7.62h-1.52v1.53h1.52v-1.53Zm-1.52 1.53h-1.52v6.09h1.52v-6.09Zm-1.52 9.14h-1.53v1.53h1.53v-1.53Zm0-21.33h-1.53v1.52h1.53v-1.52Z"/>
</svg>
