<svg xmlns="http://www.w3.org/2000/svg" width="32" height="32" fill="none" viewBox="0 0 32 32">
  <g clip-path="url(#a)">
    <path fill="#000001" d="M32 6.09h-1.52v18.29H32V6.09Zm-1.52 18.29h-1.52v1.52h1.52v-1.52Zm-1.52-3.05h-1.53v1.52h1.53v-1.52Zm0-9.14h-1.53v4.57h1.53v-4.57Zm0-4.57h-1.53v1.52h1.53V7.62Zm-1.53 16.76h-1.52v1.52h-4.57v-1.52H10.67v1.52H6.1v-1.52H4.58v1.52H3.05v1.53h25.91V25.9h-1.53v-1.52Zm0-7.62h-1.52v1.52h1.52v-1.52Zm0-6.1h-1.52v1.53h1.52v-1.53Z"/>
    <path fill="#000001" d="M25.91 22.85h-1.53v1.53h1.53v-1.53Zm-3.05-6.09h-1.52v-4.57h1.52v-1.53h3.05V9.14H6.1v1.52h3.05v1.53h1.52v4.57H9.15v1.52H6.1v1.53h19.81v-1.53h-3.05v-1.52Zm-3.05-1.53h-7.62v-4.57h7.62v4.57Z"/>
    <path fill="#000001" d="M25.91 12.19h-3.05v4.57h3.05v-4.57Zm-7.62 0h-1.52v1.52h1.52v-1.52Zm-3.05 0h-1.52v1.52h1.52v-1.52Zm9.14 9.14H7.62v1.52h16.76v-1.52ZM7.62 22.85H6.1v1.53h1.52v-1.53Zm1.53-10.66H6.1v4.57h3.05v-4.57ZM6.1 16.76H4.58v1.52H6.1v-1.52Zm0-6.1H4.58v1.53H6.1v-1.53ZM4.58 21.33H3.05v1.52h1.53v-1.52Zm0-9.14H3.05v4.57h1.53v-4.57Zm0-4.57H3.05v1.52h1.53V7.62Zm25.9-3.05H1.53v1.52h28.95V4.57ZM3.05 24.38H1.53v1.52h1.52v-1.52ZM1.53 6.09H0v18.29h1.53V6.09Z"/>
  </g>
  <defs>
    <clipPath id="a">
      <path fill="#fff" d="M0 0h32v32H0z"/>
    </clipPath>
  </defs>
</svg>
