<?xml version="1.0" ?><svg fill="none" height="2000" viewBox="0 0 2000 2000" width="2000" xmlns="http://www.w3.org/2000/svg"><path d="M339.198 335.042C321.346 335.165 319.253 316.944 317.037 303.278L306.818 315.959C292.044 334.672 262.743 314.112 275.055 293.921C247.6 298.23 237.258 255.386 280.718 253.17C267.052 246.399 251.54 236.673 260.773 219.314C271.854 201.955 287.982 211.804 301.155 220.176C297.462 205.279 293.768 186.196 313.59 181.764C333.411 177.332 337.228 197.892 339.444 213.158L349.539 200.477C365.544 180.656 395.707 204.909 379.949 224.731L370.961 236.057C384.381 231.871 401.371 232.487 404.695 249.354C406.788 259.08 400.139 269.545 390.413 271.884C409.742 286.042 389.921 316.328 369.114 304.263L355.326 296.261C359.635 313.004 362.097 333.318 339.198 335.042ZM319.868 287.027C321 287.032 322.094 287.427 322.969 288.144C323.843 288.862 324.444 289.858 324.67 290.967L329.718 317.436C331.072 325.685 342.645 328.147 347.077 321.007C351.632 316.575 343.753 292.936 343.63 287.643C344.615 269.668 373.177 301.678 381.303 296.753C389.428 294.906 391.029 282.964 383.642 279.148L374.285 273.731C373.412 273.225 372.714 272.463 372.288 271.549C371.862 270.634 371.727 269.61 371.901 268.616C372.076 267.622 372.552 266.705 373.264 265.991C373.977 265.276 374.892 264.797 375.886 264.62C383.273 263.389 397.431 262.281 395.092 251.2C391.029 232.733 361.728 254.525 354.587 245.907C354.074 245.034 353.834 244.028 353.9 243.018C353.966 242.008 354.334 241.041 354.956 240.243L372.315 218.575C380.195 208.972 364.929 196.661 357.172 206.633L340.429 227.562C339.841 228.278 339.063 228.812 338.184 229.106C337.306 229.399 336.363 229.438 335.463 229.22C334.563 229.001 333.743 228.533 333.097 227.87C332.451 227.207 332.005 226.375 331.811 225.469C328.61 217.344 330.333 188.042 315.436 191.367C300.539 194.691 312.728 220.176 312.851 228.794C313.018 229.714 312.92 230.663 312.568 231.529C312.216 232.396 311.624 233.144 310.862 233.687C310.1 234.229 309.199 234.543 308.265 234.592C307.331 234.642 306.402 234.424 305.587 233.964L282.442 220.668C271.731 214.266 261.881 231.256 272.715 237.412L296.969 251.324C297.842 251.82 298.542 252.572 298.976 253.478C299.409 254.384 299.555 255.401 299.394 256.392C299.234 257.383 298.774 258.302 298.076 259.024C297.379 259.747 296.477 260.239 295.492 260.434L269.022 265.482C256.71 267.575 260.281 286.904 272.592 284.318L285.889 281.856C290.198 280.871 293.522 286.411 290.69 289.735L284.165 297.861C276.163 307.464 291.552 319.776 299.185 309.926C301.771 307.956 316.052 285.919 319.868 287.027Z" fill="#D13535"/><path d="M1454.86 237.043C1437.26 237.289 1434.8 218.575 1432.7 205.279L1422.61 217.96C1407.71 236.55 1378.41 216.113 1390.72 195.799C1363.27 200.108 1352.93 157.264 1396.38 155.171C1382.72 148.277 1367.33 138.674 1376.44 121.191C1387.64 103.832 1403.77 113.681 1416.95 122.053C1413.25 107.156 1409.56 88.1965 1429.38 83.6412C1449.2 79.086 1453.02 99.7693 1455.11 115.036C1464.22 102.478 1476.16 87.0884 1492.66 99.3999C1509.16 111.711 1496.85 126.731 1486.63 137.935C1500.17 133.749 1517.04 134.488 1520.48 151.231C1521.42 156.116 1520.45 161.174 1517.77 165.364C1515.09 169.554 1510.91 172.559 1506.08 173.761C1525.41 188.043 1505.71 218.329 1484.9 206.264L1470.99 198.261C1475.42 214.882 1477.89 235.196 1454.86 237.043ZM1435.54 188.905C1445.26 189.028 1440.95 221.776 1449.45 225.593C1457.94 229.409 1466.19 223.869 1464.34 215.744C1464.59 211.927 1456.1 186.812 1461.27 184.596C1462.03 184.054 1462.94 183.743 1463.88 183.7C1464.82 183.656 1465.75 183.881 1466.56 184.349L1489.71 197.769C1491.93 199.022 1494.56 199.35 1497.02 198.682C1499.49 198.014 1501.59 196.404 1502.88 194.198C1508.54 184.842 1496.6 179.055 1490.08 175.608C1486.14 173.515 1487.24 167.236 1491.55 166.621C1499.06 165.266 1513.22 164.158 1510.88 153.078C1506.82 134.611 1477.39 156.525 1470.25 147.784C1469.77 146.902 1469.55 145.902 1469.62 144.899C1469.68 143.896 1470.03 142.932 1470.62 142.121L1487.98 120.576C1495.86 110.85 1480.6 98.6613 1472.96 108.51L1456.1 129.563C1455.5 130.279 1454.71 130.811 1453.82 131.097C1452.94 131.383 1451.99 131.412 1451.09 131.18C1450.18 130.948 1449.37 130.465 1448.73 129.786C1448.09 129.108 1447.65 128.262 1447.48 127.347C1444.4 119.221 1446.12 90.0432 1431.23 93.2442C1416.33 96.4452 1428.39 122.176 1428.52 130.794C1428.69 131.715 1428.59 132.663 1428.23 133.53C1427.88 134.397 1427.29 135.145 1426.53 135.687C1425.77 136.23 1424.87 136.544 1423.93 136.593C1423 136.642 1422.07 136.425 1421.25 135.965L1398.11 122.546C1387.4 116.144 1377.55 133.133 1388.51 139.289L1412.76 153.201C1413.63 153.707 1414.33 154.468 1414.76 155.383C1415.18 156.298 1415.32 157.322 1415.14 158.316C1414.97 159.31 1414.49 160.226 1413.78 160.941C1413.07 161.656 1412.15 162.134 1411.16 162.312L1384.69 167.359C1372.5 169.452 1376.07 188.781 1388.26 186.319L1401.68 183.734C1405.99 182.749 1409.31 188.289 1406.36 191.613L1399.83 199.739C1391.95 209.342 1407.22 221.653 1414.98 211.804C1417.44 209.834 1431.84 187.797 1435.54 188.905Z" fill="#D13535"/><path d="M860.467 369.515C859.494 369.533 858.542 369.23 857.758 368.653C856.689 367.927 855.949 366.811 855.695 365.544C855.442 364.278 855.696 362.962 856.404 361.882L922.27 265.606C922.996 264.537 924.112 263.796 925.379 263.543C926.645 263.29 927.961 263.544 929.042 264.251C930.119 265 930.862 266.138 931.115 267.424C931.368 268.711 931.11 270.046 930.396 271.146L864.529 367.422C864.072 368.073 863.463 368.604 862.756 368.968C862.048 369.333 861.262 369.52 860.467 369.515Z" fill="#CE9C5C"/><path d="M830.672 339.228C829.516 339.187 828.411 338.74 827.551 337.966C826.691 337.192 826.132 336.14 825.97 334.994C825.809 333.848 826.056 332.682 826.668 331.701C827.28 330.719 828.218 329.984 829.318 329.625L954.28 294.66C954.924 294.365 955.624 294.212 956.332 294.211C957.04 294.211 957.74 294.364 958.384 294.659C959.028 294.953 959.601 295.384 960.063 295.92C960.526 296.457 960.867 297.086 961.064 297.767C961.261 298.447 961.309 299.162 961.204 299.862C961.1 300.563 960.846 301.233 960.459 301.826C960.072 302.419 959.562 302.922 958.963 303.3C958.364 303.678 957.69 303.923 956.988 304.017L832.027 339.105L830.672 339.228Z" fill="#CE9C5C"/><path d="M905.156 385.52C904.019 385.538 902.912 385.152 902.032 384.431C901.153 383.709 900.559 382.699 900.355 381.58L876.347 254.033C876.222 253.394 876.226 252.736 876.356 252.099C876.487 251.461 876.743 250.856 877.11 250.318C877.476 249.779 877.946 249.319 878.491 248.964C879.036 248.608 879.647 248.364 880.287 248.246C881.559 248.03 882.865 248.322 883.924 249.059C884.983 249.795 885.71 250.918 885.95 252.186L909.957 379.733C910.173 381.005 909.882 382.311 909.145 383.37C908.408 384.429 907.285 385.157 906.018 385.396L905.156 385.52Z" fill="#CE9C5C"/><path d="M941.599 354.248C940.588 354.266 939.597 353.964 938.767 353.386L842.491 287.643C841.423 286.917 840.682 285.801 840.429 284.534C840.175 283.268 840.43 281.952 841.137 280.871C841.885 279.794 843.023 279.051 844.31 278.798C845.597 278.545 846.932 278.803 848.032 279.517L944.308 345.384C945.12 345.99 945.725 346.833 946.041 347.797C946.356 348.761 946.366 349.798 946.07 350.768C945.774 351.738 945.185 352.593 944.385 353.215C943.585 353.838 942.612 354.199 941.599 354.248Z" fill="#CE9C5C"/><path d="M1714.27 590.136L1717.84 613.036L1704.42 624.978L1536.49 775.055C1527.13 783.304 1514.7 780.842 1508.79 769.269L1446.12 646.892C1440.34 635.443 1443.54 619.93 1453.14 612.42L1646.92 462.466C1654.68 456.433 1665.27 459.758 1670.56 469.853L1723.5 571.3L1726.95 577.702C1732.24 587.92 1721.78 583.365 1714.27 590.136Z" fill="#EFDCC4"/><path d="M1544.74 789.213C1535.51 789.09 1527.5 783.673 1522.95 774.809L1460.28 652.432C1452.9 638.028 1456.84 619.191 1469.15 609.588L1662.93 459.634C1674.38 450.524 1690.26 456.31 1696.66 469.237L1752.06 575.239C1752.47 576.032 1752.71 576.896 1752.78 577.782C1752.85 578.669 1752.75 579.561 1752.47 580.407C1752.2 581.253 1751.76 582.036 1751.18 582.713C1750.61 583.39 1749.9 583.946 1749.11 584.35C1736.18 596.292 1689.15 466.406 1677.09 468.868C1676.06 468.626 1674.98 468.633 1673.95 468.89C1672.93 469.147 1671.97 469.646 1671.18 470.345L1477.4 620.299C1470.25 625.84 1467.92 637.659 1472.35 646.277L1534.89 768.653C1538.58 775.917 1546.09 778.01 1552.13 772.47L1720.05 622.392C1720.71 621.802 1721.48 621.348 1722.32 621.059C1723.16 620.77 1724.04 620.65 1724.92 620.708C1725.81 620.765 1726.67 620.998 1727.46 621.393C1728.25 621.788 1728.96 622.337 1729.53 623.008C1730.15 623.651 1730.63 624.412 1730.93 625.245C1731.24 626.079 1731.38 626.966 1731.33 627.854C1731.29 628.742 1731.06 629.611 1730.67 630.407C1730.27 631.204 1729.72 631.912 1729.04 632.488C1720.67 636.427 1553.73 797.831 1544.74 789.213Z" fill="#452D34"/><path d="M1552.37 655.51C1558.41 667.453 1555.57 683.581 1545.72 691.706C1535.88 699.832 1522.58 696.877 1516.42 684.689C1510.27 672.5 1513.35 656.249 1523.44 648.247C1533.54 640.244 1546.22 643.691 1552.37 655.51Z" fill="white"/><path d="M1533.66 703.033C1493.65 701.925 1500.66 630.518 1540.06 637.782C1572.93 645.169 1567.39 702.663 1533.66 703.033ZM1535.01 650.709C1517.28 651.694 1514.21 684.689 1531.57 689.367C1546.22 691.091 1552.62 670.161 1546.34 658.588C1543.75 653.787 1539.94 650.832 1535.01 650.709Z" fill="#452D34"/><path d="M1586.97 627.071C1589.55 632.119 1588.44 638.767 1584.38 642.091C1580.32 645.415 1574.78 644.061 1572.19 639.013C1569.61 633.965 1570.84 627.194 1574.9 623.993C1578.96 620.792 1584.38 622.023 1586.97 627.071Z" fill="white"/><path d="M1579.46 650.709C1557.3 650.339 1560.62 611.558 1582.66 615.744C1600.76 619.561 1598.17 650.709 1579.46 650.709ZM1579.7 628.918C1577.24 629.656 1576.75 635.689 1579.34 637.166C1581.92 636.551 1582.54 630.272 1579.7 628.918Z" fill="#452D34"/><path d="M1397.99 611.066C1404.51 586.443 1385.18 567.36 1360.56 574.008C1385.18 567.36 1392.2 541.136 1374.1 523.038C1392.2 541.136 1418.42 533.996 1424.95 509.25C1418.42 533.996 1437.63 553.078 1462.25 546.43C1437.63 553.078 1430.61 579.302 1448.71 597.277C1430.61 579.302 1404.51 586.443 1397.99 611.066Z" fill="#CE9C5C"/><path d="M1397.99 617.837C1396.95 617.829 1395.93 617.586 1395 617.128C1394.07 616.67 1393.25 616.008 1392.61 615.192C1391.98 614.376 1391.53 613.426 1391.31 612.413C1391.09 611.4 1391.1 610.351 1391.34 609.342C1397 590.259 1381.37 574.87 1362.41 580.533C1354.03 582.872 1350.22 569.699 1358.84 567.483C1367.45 565.267 1374.72 558.988 1376.81 550.986C1382.47 534.858 1361.3 527.101 1369.3 518.36C1377.3 509.619 1386.04 531.41 1402.05 525.624C1419.16 522.177 1414.98 500.262 1426.67 502.725C1438.37 505.187 1423.59 523.654 1436.64 534.858C1448.09 547.908 1465.08 533.257 1468.78 544.707C1469.23 546.437 1468.98 548.276 1468.08 549.821C1467.18 551.366 1465.7 552.493 1463.98 552.956C1444.77 557.634 1439.11 578.933 1453.51 592.475C1459.79 598.631 1450.19 608.48 1444.03 602.078C1437.88 595.676 1428.64 592.599 1420.76 594.692C1404.02 598.508 1408.08 617.345 1397.99 617.837ZM1382.84 567.976C1387.7 569.652 1392.12 572.405 1395.77 576.029C1399.41 579.654 1402.19 584.055 1403.9 588.905C1407.74 585.51 1412.32 583.045 1417.27 581.7C1422.23 580.355 1427.42 580.167 1432.46 581.149C1431.47 576.111 1431.63 570.914 1432.93 565.947C1434.23 560.98 1436.64 556.371 1439.97 552.463C1435.14 550.763 1430.75 548 1427.12 544.378C1423.5 540.755 1420.74 536.366 1419.04 531.534C1415.15 534.899 1410.55 537.344 1405.58 538.687C1400.62 540.03 1395.41 540.236 1390.35 539.29C1391.37 544.327 1391.22 549.531 1389.92 554.502C1388.62 559.474 1386.2 564.082 1382.84 567.976V567.976Z" fill="#452D34"/><path d="M1733.47 584.596C1734.21 584.719 1734.34 584.596 1734.09 584.596H1733.47Z" fill="#452D34"/><path d="M1794.91 659.942C1794.42 660.065 1794.17 660.312 1794.17 660.435L1794.66 660.066L1794.91 659.942Z" fill="#452D34"/><path d="M1721.9 594.692V594.322H1721.78L1721.9 594.692Z" fill="#452D34"/><path d="M1760.81 515.529C1774.1 533.381 1783.09 549.878 1786.17 569.823V568.961C1786.78 572.911 1786.91 576.922 1786.54 580.903C1786.41 588.782 1798.85 588.905 1798.85 580.903C1799.1 535.843 1764.62 489.798 1725.35 469.73C1690.26 455.079 1683 482.78 1700.85 479.087C1720.55 472.192 1747.02 498.17 1760.81 515.529Z" fill="#452D34"/><path d="M1323.5 807.311L1292.48 701.801C1309.45 712.732 1321.93 729.408 1327.63 748.781C1333.33 768.154 1331.86 788.929 1323.5 807.311Z" fill="#CE9C5C"/><path d="M1082.44 846.093C1081.38 835.097 1078.16 824.42 1072.97 814.669C1067.77 804.919 1060.71 796.287 1052.18 789.267C1043.65 782.247 1033.82 776.977 1023.26 773.756C1012.69 770.536 1001.59 769.43 990.598 770.5C976.686 771.854 968.191 773.085 959.45 778.379C961.912 788.721 974.963 795.739 976.317 806.696C977.179 813.098 975.701 824.548 969.422 823.809C965.237 829.965 989.244 926.61 991.706 928.087C1000.45 933.504 998.724 935.474 1009.56 934.366C1055.73 929.934 1087 892.384 1082.44 846.093Z" fill="#CE9C5C"/><path d="M1316.85 702.787C1293.58 468.499 937.782 546.677 979.887 779.734C986.905 788.844 996.631 782.688 998.724 773.208C981.118 552.956 1273.76 504.079 1316.85 702.787Z" fill="#D13535"/><path d="M1353.42 763.852C1351.22 740.786 1340.29 719.43 1322.89 704.141C1322.99 703.698 1323.04 703.242 1323.01 702.787C1301.83 461.974 939.875 542.491 971.639 766.314C948.493 777.394 960.681 788.598 969.422 806.942C963.267 815.929 957.111 824.301 962.282 832.55C967.453 840.798 962.282 848.185 966.221 856.311C976.44 880.072 980.257 903.71 982.473 917.868C983.827 938.182 993.799 937.444 1008.33 938.675C1138.46 941.63 1134.03 747.6 1004.76 756.095C1006.23 701.679 1024.82 648.739 1067.42 616.114C1129.72 567.237 1235.47 575.116 1284.23 641.106C1296.79 658.219 1306.63 675.824 1309.71 694.661C1301.33 689.526 1292.12 685.862 1282.5 683.827C1281.61 683.551 1280.67 683.463 1279.74 683.569C1278.81 683.674 1277.92 683.97 1277.11 684.439C1276.3 684.907 1275.6 685.538 1275.05 686.291C1274.49 687.044 1274.1 687.903 1273.9 688.815C1273.69 689.726 1273.68 690.67 1273.86 691.587C1274.04 692.504 1274.4 693.375 1274.93 694.143C1275.46 694.912 1276.15 695.563 1276.94 696.054C1277.74 696.546 1278.62 696.868 1279.55 697C1295.53 700.481 1309.98 708.953 1320.83 721.192C1331.67 733.431 1338.34 748.802 1339.88 765.083C1340.93 775.195 1339.94 785.415 1336.98 795.141C1334.02 804.867 1329.14 813.903 1322.64 821.716C1321.5 823.111 1320.95 824.898 1321.11 826.693C1321.27 828.488 1322.13 830.148 1323.5 831.319C1324.74 832.26 1326.25 832.778 1327.81 832.796C1328.82 832.79 1329.81 832.566 1330.73 832.142C1331.64 831.717 1332.45 831.1 1333.1 830.334C1340.71 821.142 1346.42 810.535 1349.91 799.124C1353.4 787.713 1354.59 775.725 1353.42 763.852V763.852ZM1004.88 769.884C1025.93 768.161 1049.08 774.563 1063.85 787.49C1126.89 838.952 1075.18 940.398 997.123 923.285C993.553 903.341 991.337 881.18 978.656 850.894C976.194 842.768 979.641 834.766 973.855 825.655C988.259 802.51 984.442 807.927 972.008 782.319C972.561 781.753 973.181 781.257 973.855 780.841C981.488 799.309 1006.73 787.859 1004.88 769.884ZM990.721 776.532H990.598C990.475 776.779 990.352 776.779 989.983 777.148C989.613 777.517 989.613 777.394 989.613 777.517C989.613 777.55 989.6 777.581 989.577 777.604C989.554 777.627 989.523 777.64 989.49 777.64C989.523 777.64 989.554 777.627 989.577 777.604C989.6 777.581 989.613 777.55 989.613 777.517V777.517C988.982 777.834 988.27 777.957 987.569 777.869C986.867 777.782 986.208 777.488 985.674 777.025C985.551 776.286 985.304 775.301 985.181 774.439C987.592 773.472 990.059 772.649 992.568 771.977C991.953 773.331 991.46 775.055 990.721 776.409C989.983 777.764 990.844 776.286 990.721 776.532V776.532ZM1072.72 597.523C1017.81 629.902 992.691 698.601 992.322 758.065C989.313 758.781 986.353 759.686 983.458 760.774C971.023 599.985 1158.77 505.433 1274.75 613.036C1220.95 566.744 1135.38 557.634 1072.72 597.523Z" fill="#452D34"/><path d="M989.613 777.517L989.983 777.148C989.901 777.148 989.777 777.271 989.613 777.517Z" fill="#452D34"/><path d="M1283 1064.87C1282.87 1065.24 1282.87 1065.73 1282.75 1066.22L1283.37 1062.04C1282.81 1066.06 1281.73 1069.99 1280.16 1073.73L1281.64 1070.04C1279.88 1074.26 1277.56 1078.24 1274.75 1081.86L1277.21 1078.66C1273.21 1083.74 1268.58 1088.29 1263.42 1092.2L1266.5 1089.86C1257.1 1096.88 1246.83 1102.67 1235.97 1107.1L1239.66 1105.5C1216.64 1115.22 1192.14 1120.76 1167.51 1124.21L1171.58 1123.59C1147.45 1126.67 1122.95 1128.03 1098.82 1125.07L1102.88 1125.56C1095.74 1124.58 1088.47 1123.22 1081.83 1120.39L1085.52 1121.99C1066.81 1106.36 1044.28 1130.36 1064.22 1145.38C1093.28 1161.27 1128.98 1157.94 1160.87 1155.6C1210.97 1149.32 1268.47 1138.49 1301.59 1097C1335.44 1050.22 1287.43 1034.34 1283 1064.87V1064.87Z" fill="#D13535"/><path d="M1702.33 770.13C1762.28 754.248 1787.03 749.816 1871.73 720.022C1874.29 719.111 1876.99 718.717 1879.7 718.863C1882.41 719.008 1885.06 719.691 1887.5 720.871C1889.94 722.051 1892.12 723.705 1893.92 725.737C1895.71 727.768 1897.09 730.136 1897.96 732.703C1905.22 754.125 1902.39 789.213 1889.09 799.801C1860.78 822.7 1749.23 851.632 1718.58 837.105C1706.02 831.195 1674.5 777.517 1702.33 770.13Z" fill="#D13535"/><path d="M512.544 1198.32C518.207 1202.39 520.054 1212.11 519.685 1215.56C519.47 1216.73 519.182 1217.88 518.823 1219.01C518.83 1218.91 518.875 1218.82 518.946 1218.76C518.901 1218.81 518.867 1218.87 518.846 1218.93C518.825 1219 518.817 1219.06 518.823 1219.13C518.576 1219.62 518.577 1219.62 518.577 1219.38C518.337 1219.94 518.049 1220.47 517.715 1220.98C498.016 1237.97 467.607 1200.91 465.022 1175.55C464.446 1171.22 464.364 1166.84 464.775 1162.5V1162.87C465.511 1156.63 467.843 1150.7 471.547 1145.63C473.955 1142.58 476.82 1139.92 480.041 1137.75C486.936 1133.81 480.657 1123.1 473.886 1127.16C435.843 1151.54 453.202 1209.77 486.074 1230.83C518.946 1251.88 548.247 1219.99 522.762 1191.06C512.79 1179.24 502.941 1193.65 512.544 1198.32Z" fill="#452D34"/><path d="M518.822 1219.13L518.576 1219.5L518.822 1219.25V1219.13Z" fill="#452D34"/><path d="M464.774 1162.5C464.898 1162.01 464.898 1161.64 464.774 1162.5V1162.5Z" fill="#452D34"/><path d="M466.129 1239.69C466.858 1240.84 467.516 1242.03 468.099 1243.26C466.991 1241.05 468.591 1244.25 468.591 1244.74C468.591 1245.23 469.084 1247.32 469.33 1247.94V1248.92C469.453 1250.56 469.453 1252.21 469.33 1253.85C468.468 1257.91 468.468 1257.91 466.621 1260.99C464.775 1264.07 465.883 1261.97 463.79 1263.21C461.249 1264.02 458.568 1264.32 455.91 1264.07C450.74 1263.08 450.74 1262.96 446.431 1260.37L445.076 1259.39C425.501 1243.14 419.222 1211.25 428.333 1190.45C431.78 1183.55 434.981 1179.98 440.152 1176.41C442.427 1174.91 444.863 1173.67 447.415 1172.72C455.049 1170.5 451.725 1158.56 444.091 1160.77C401.74 1175.67 405.064 1235.63 431.657 1263.82C458.25 1292.01 495.307 1269.36 477.456 1234.52C472.038 1221.84 456.157 1229.35 466.129 1239.69Z" fill="#452D34"/><path d="M549.97 1177.27L550.709 1176.29C551.201 1176.16 552.063 1175.67 551.324 1175.92H550.955C547.385 1177.03 543.568 1176.9 537.289 1176.29C527.686 1175.18 512.666 1169.76 505.033 1159.42L505.649 1160.04C503.693 1157.6 502.078 1154.91 500.847 1152.03C501.832 1154 500.97 1152.28 500.724 1151.66C499.71 1149 499.008 1146.24 498.631 1143.41V1143.41V1143.17H498.508V1142.68C498.056 1138.42 498.098 1134.12 498.631 1129.87C498.754 1128.76 498.631 1130.24 498.631 1130.36C499.001 1124.95 503.802 1116.21 496.046 1113.87C494.48 1113.48 492.827 1113.72 491.429 1114.52C490.031 1115.32 488.995 1116.63 488.536 1118.18C476.224 1156.96 505.033 1189.46 544.184 1189.09C570.161 1190.69 561.912 1166.07 549.97 1177.27Z" fill="#452D34"/><path d="M498.632 1143.54C498.755 1142.55 498.508 1142.43 498.508 1142.8C498.489 1143.01 498.532 1143.23 498.632 1143.42V1143.54Z" fill="#452D34"/><path d="M1043.66 1581.58C1042.31 1574.32 1041.57 1552.9 1043.17 1544.89C1044.77 1536.89 1033.07 1533.94 1031.23 1541.57C1024.95 1594.75 1046.74 1646.34 1064.1 1695.59C1068.9 1708.76 1073.83 1721.93 1078.5 1735.23C1078.96 1736.77 1080 1738.08 1081.4 1738.89C1082.8 1739.69 1084.45 1739.92 1086.01 1739.54C1089.09 1738.55 1091.43 1735.23 1090.32 1731.9C1073.33 1682.41 1051.17 1633.78 1043.66 1581.58Z" fill="#452D34"/><path d="M1249.02 914.298C1228.58 914.298 1215.53 896.57 1210.73 888.444C1209.83 886.96 1209.35 885.256 1209.35 883.519C1209.35 881.782 1209.83 880.079 1210.73 878.595C1211.66 877.12 1212.98 875.928 1214.54 875.147C1216.11 874.366 1217.85 874.026 1219.59 874.163L1225.13 874.778C1240.79 876.266 1256.55 873.412 1270.69 866.53L1275.86 864.067C1277.4 863.288 1279.12 862.955 1280.84 863.107C1282.56 863.26 1284.2 863.891 1285.58 864.929C1286.95 865.983 1288.02 867.382 1288.66 868.983C1289.31 870.584 1289.52 872.33 1289.28 874.039C1287.43 884.627 1280.53 909.62 1255.05 913.806C1253.06 914.148 1251.04 914.313 1249.02 914.298ZM1227.23 888.444C1233.01 895.462 1241.63 902.356 1252.83 900.509C1264.04 898.662 1270.93 888.69 1273.89 879.949C1259.24 886.492 1243.24 889.406 1227.23 888.444V888.444Z" fill="#452D34"/><path d="M1154.09 776.04L1153.36 775.794C1143.75 775.301 1136.49 786.874 1140.92 795.369C1145.35 803.864 1160.87 806.326 1165.67 796.231C1170.47 786.135 1162.22 775.67 1154.09 776.04Z" fill="#452D34"/><path d="M1272.41 743.907L1269.58 743.415C1241.01 746.246 1262.07 786.259 1280.66 765.083C1287.92 756.218 1280.29 745.261 1272.41 743.907Z" fill="#452D34"/><path d="M1166.78 752.894C1155.94 751.17 1099.68 743.291 1098.69 757.203C1098.74 758.33 1099.07 759.428 1099.65 760.395C1100.23 761.363 1101.05 762.17 1102.02 762.743C1102.55 763.48 1103.26 764.078 1104.07 764.485C1104.89 764.892 1105.79 765.097 1106.7 765.082C1126.15 765.944 1145.72 765.944 1165.18 764.959C1172.07 765.082 1173.55 754.495 1166.78 752.894Z" fill="#452D34"/><path d="M1302.45 722.239C1302.45 721.993 1302.57 721.623 1302.57 721.254C1302.45 718.053 1299.86 714.852 1296.42 715.098C1292.97 715.345 1262.93 718.422 1249.76 724.455H1249.63C1242.12 727.902 1239.66 732.088 1249.63 736.767C1266.01 735.289 1282.38 733.442 1298.51 730.488C1302.7 729.503 1303.68 725.44 1302.45 722.239Z" fill="#452D34"/><path d="M1217.99 774.439C1227.35 788.351 1227.47 801.155 1247.66 806.326C1249.1 806.818 1250.44 807.569 1251.6 808.542C1250.49 806.942 1252.34 809.897 1252.83 809.897C1253.33 809.897 1252.1 808.665 1252.71 809.773L1253.33 810.881C1253.2 810.881 1252.83 809.404 1253.2 810.635C1253.42 811.276 1253.59 811.935 1253.7 812.605C1253.94 813.467 1253.7 811.374 1253.7 812.236V815.19C1253.82 814.452 1253.82 814.206 1253.7 814.698C1253.47 816.694 1252.65 818.579 1251.36 820.115L1251.73 819.623C1251.73 820.238 1247.91 823.193 1249.14 822.208C1247.55 823.44 1245.81 824.473 1243.97 825.286H1244.34C1235.97 827.01 1238.31 839.567 1246.68 837.474C1271.79 829.349 1272.78 798.077 1245.57 792.537C1244.06 791.907 1242.61 791.123 1241.26 790.198L1241.88 790.567C1235.6 785.52 1233.87 773.331 1226.73 765.944C1219.59 758.558 1212.45 768.899 1217.99 774.563V774.439Z" fill="#452D34"/><path d="M1054 951.971C1049.69 945.2 1048.22 923.778 1038.24 925.871C1035.29 926.856 1032.83 930.18 1033.93 933.381C1048.09 973.024 1065.45 1011.56 1076.53 1052.19C1078.5 1059.94 1090.44 1056.74 1088.35 1048.99C1079.61 1015.74 1065.82 984.104 1054 951.971Z" fill="#452D34"/><path d="M1254.93 1057.36C1255.37 1058.8 1256.28 1060.05 1257.51 1060.93C1259.85 1069.91 1260.1 1086.78 1269.82 1084.94C1279.8 1080.38 1269.45 1065.73 1269.08 1057.73C1269.08 1046.77 1253.08 1045.54 1254.93 1057.36ZM1256.4 1057.73L1256.9 1058.83C1256.68 1058.49 1256.52 1058.12 1256.4 1057.73Z" fill="#452D34"/><path d="M1122.95 1106.97C1122.5 1103.41 1122.54 1099.81 1123.07 1096.26C1128.49 1082.72 1116.67 1078.41 1112.48 1087.27C1108.3 1096.14 1107.56 1124.7 1121.22 1123.72C1130.21 1120.52 1122.7 1110.54 1122.95 1106.97Z" fill="#452D34"/><path d="M1189.06 1079.89C1190.16 1083.38 1190.94 1086.97 1191.4 1090.6C1191.28 1090.11 1191.28 1089.49 1191.15 1089C1192.51 1094.66 1189.18 1105.25 1197.92 1105.74C1209.74 1103.53 1202.11 1084.57 1200.88 1076.56C1199.65 1068.56 1186.84 1072.13 1189.06 1079.89Z" fill="#452D34"/><path d="M1724.12 771.238C1723.07 770.645 1721.86 770.374 1720.66 770.459C1719.46 770.543 1718.3 770.98 1717.35 771.715C1716.39 772.45 1715.67 773.45 1715.27 774.591C1714.88 775.732 1714.83 776.964 1715.13 778.133C1717.35 786.258 1718.09 799.801 1725.72 804.11C1733.84 805.464 1734.34 797.339 1732.49 794.753C1728.3 787.859 1729.54 776.163 1724.12 771.238Z" fill="#452D34"/><path d="M1781.12 760.035C1784.81 766.806 1783.71 785.52 1794.42 783.919C1804.76 779.241 1793.56 764.713 1792.94 756.711C1792.32 748.708 1778.9 752.279 1781.12 760.035Z" fill="#452D34"/><path d="M1843.79 737.997C1842.6 737.704 1841.36 737.762 1840.21 738.164C1839.05 738.565 1838.05 739.294 1837.3 740.26C1836.56 741.227 1836.11 742.389 1836.02 743.605C1835.92 744.821 1836.18 746.038 1836.77 747.108C1838.25 750.432 1839.23 752.771 1840.95 757.08C1842.68 761.389 1843.79 774.439 1852.53 772.593C1855.48 771.608 1857.82 768.284 1856.71 765.083C1853.02 757.203 1851.3 742.306 1843.79 737.997Z" fill="#452D34"/><path d="M1699.37 811.989C1698.39 810.512 1699 811.62 1699.37 811.989V811.989Z" fill="#452D34"/><path d="M1910.39 935.72C1906.08 885.735 1896.36 836.243 1883.06 787.859C1900.42 762.99 1901.28 694.538 1858.68 701.186L1855.24 702.294C1849.82 688.997 1823.59 621.653 1808.08 600.847L1807.59 601.093C1802.54 593.46 1794.91 596.907 1796.14 604.171C1801.93 620.299 1808.7 647.385 1794.91 659.942H1795.03C1794.79 659.942 1794.29 660.435 1794.17 660.435C1792.71 661.466 1791.14 662.333 1789.49 663.02H1789.86C1763.27 672.5 1717.47 620.792 1722.27 594.199L1723.75 591.737C1724.98 590.152 1726.39 588.707 1727.93 587.428L1727.44 587.92C1729.2 586.428 1731.26 585.336 1733.47 584.719H1733.35C1746.89 584.596 1756.99 592.106 1766.1 602.694C1767.95 606.141 1771.89 609.465 1775.95 606.88C1791.22 590.382 1722.27 549.262 1710.08 591.86C1703.56 652.309 1809.07 718.053 1815.22 640.49C1825.81 662.035 1835.04 683.827 1843.54 706.234C1843.54 706.25 1843.54 706.266 1843.55 706.281C1843.56 706.296 1843.56 706.309 1843.58 706.321C1843.59 706.332 1843.6 706.341 1843.62 706.347C1843.63 706.353 1843.65 706.357 1843.66 706.357C1813.75 716.452 1783.83 726.671 1753.3 734.796C1733.6 740.09 1713.9 745.015 1694.2 750.186C1690.02 735.042 1675.24 673.854 1660.34 680.502C1657.64 682.226 1656.28 686.043 1658.13 688.874C1668.35 705.002 1672.53 719.161 1677.7 736.274C1679.92 740.336 1680.04 748.216 1682.14 753.756C1676.6 756.711 1671.42 763.605 1671.18 768.776C1669.82 789.829 1680.9 812.482 1696.54 826.763C1705.16 880.811 1713.04 943.107 1714.76 994.076C1630.55 1006.76 1545.6 1017.47 1464.59 1045.78C1440.46 1052.8 1417.56 1064.74 1392.32 1067.33C1366.47 1067.82 1321.41 1072.62 1305.16 1048.86C1294.94 1029.9 1290.38 1000.11 1262.31 1004.42C1262.44 1001.46 1260.96 996.416 1260.84 992.845C1374.84 946.8 1339.88 825.409 1300.48 715.467C1308.6 713.99 1317.84 710.912 1316.85 702.786C1286.94 451.632 951.571 500.878 907.25 683.088C936.059 705.864 958.097 754.618 965.36 810.389C966.222 817.037 952.187 816.052 955.634 821.838C954.772 828.856 949.971 841.291 970.777 837.474C967.33 824.178 963.883 825.532 975.948 809.404C979.519 804.233 960.928 783.18 965.483 778.994C998.355 749.57 1058.93 762.743 1082.44 797.339C1124.55 786.012 1119.01 761.881 1115.07 740.583C1111.01 698.847 1129.6 647.631 1171.33 676.317C1175.89 681.364 1180.81 681.98 1182.78 675.455C1189.55 661.173 1214.18 646.523 1224.15 659.081C1240.03 679.394 1263.91 720.515 1288.17 717.56C1333.6 826.024 1366.35 998.385 1193.86 988.044C1187.83 988.167 1177.12 983.981 1176.5 993.215C1177.73 1007.25 1237.2 998.878 1248.52 996.293C1248.89 999.617 1249.76 1003.06 1250.25 1006.39C1197.06 1023.25 1143.26 1041.97 1087.61 1047.88H1087.37C1086.51 1048 1086.63 1047.51 1087.37 1047.75C1075.18 1041.23 1064.59 1049.48 1063.48 1062.53C1059.17 1080.63 1056.96 1098.6 1055.11 1117.81C1048.09 1193.52 987.398 1155.97 944.431 1152.77C936.798 1150.68 933.35 1162.74 941.107 1164.59C1028.64 1180.1 1050.68 1181.83 1060.77 1151.66C1077.52 1162.62 1127.5 1169.02 1137.23 1168.78C1161.13 1169.41 1184.96 1166.08 1207.77 1158.93C1240.65 1149.82 1313.53 1112.14 1312.91 1071.52C1319.15 1074.85 1326.04 1076.78 1333.1 1077.18C1367.95 1082.72 1404.27 1082.23 1437.01 1068.07C1523.44 1036.3 1613.93 1019.07 1705.28 1008.73C1708.74 1008.48 1712.16 1007.91 1715.5 1007C1715.38 1018.08 1715.5 1031.26 1722.89 1031.5C1725.96 1031.38 1729.41 1028.79 1729.04 1025.35C1727.93 1015.38 1727.81 1005.4 1727.32 995.431C1727.67 992.885 1727.55 990.297 1726.95 987.798C1726.7 982.134 1719.69 872.562 1709.34 832.796C1750.59 841.66 1834.8 820.115 1872.35 796.354C1897.09 895.831 1919.75 1007.74 1876.41 1104.63C1845.51 1162.37 1784.81 1202.26 1725.72 1227.01C1671.06 1250.16 1606.91 1265.18 1551.14 1272.69C1536.49 1274.66 1521.72 1276.26 1506.94 1277.12C1499.06 1277.12 1498.82 1289.68 1506.94 1289.43L1510.88 1289.18C1536.37 1401.83 1615.04 1729.2 1695.68 1789.03C1702.45 1792.97 1708.85 1782.38 1701.83 1778.44C1699.91 1777.48 1698.1 1776.33 1696.42 1774.99C1686.32 1766.87 1674.5 1749.14 1666.13 1733.51C1612.82 1629.1 1581.55 1514.98 1550.4 1402.45C1540.43 1364.53 1531.2 1326.49 1523.07 1288.08C1605.07 1280.2 1686.94 1260.99 1760.93 1224.3C1884.54 1163.73 1924.55 1069.3 1910.39 935.72ZM1225.01 1139.6C1177.73 1160.65 1114.82 1162.5 1067.79 1141.44C1066.53 1140.75 1065.22 1140.18 1063.85 1139.72C1067.79 1121.25 1070.25 1094.78 1077.64 1057.97L1079.49 1057.73C1092.78 1064.01 1108.67 1057.11 1122.46 1055.02C1156.31 1047.63 1189.8 1038.52 1222.92 1028.43C1249.39 1021.78 1275.61 1000.6 1286.81 1038.4C1288.57 1043.91 1291.06 1049.17 1294.2 1054.03C1294.3 1054.8 1294.55 1055.54 1294.96 1056.19C1295.36 1056.85 1295.9 1057.42 1296.54 1057.85L1297.52 1058.59L1298.39 1059.7V1059.94L1298.63 1060.19L1299.37 1061.42C1299.81 1062.7 1300.14 1064.02 1300.36 1065.36C1303.19 1097.12 1259.73 1124.46 1225.01 1139.6V1139.6ZM1877.03 773.947C1870.01 796.969 1784.69 816.914 1754.16 820.977C1741.85 822.454 1719.69 824.793 1707 819.622L1707.74 819.869L1707 819.499L1705.77 818.761C1703.42 816.718 1701.28 814.45 1699.37 811.989H1699.49C1688.41 798.447 1680.54 776.286 1683.74 768.899C1684.15 767.641 1684.92 766.53 1685.95 765.698H1685.58L1686.08 765.452C1686.04 765.452 1686.01 765.465 1685.99 765.488C1685.97 765.511 1685.95 765.542 1685.95 765.575V765.575L1686.44 765.206L1687.43 764.59L1688.05 764.344C1688.68 764.215 1689.3 764.008 1689.89 763.728C1747.63 749.324 1804.88 733.319 1860.78 713.005C1862.55 712.598 1864.38 712.474 1866.19 712.636L1869.76 713.62C1869.78 713.62 1869.8 713.624 1869.81 713.63C1869.83 713.636 1869.84 713.645 1869.85 713.657C1869.86 713.668 1869.87 713.681 1869.88 713.696C1869.88 713.711 1869.89 713.727 1869.89 713.744C1870.13 713.867 1870.38 713.99 1870.38 713.867C1871.31 714.354 1872.21 714.888 1873.09 715.467L1873.33 715.713C1874.22 716.514 1875.04 717.378 1875.8 718.299H1875.92C1876.6 719.199 1877.14 720.195 1877.52 721.254C1879.09 725.549 1880.16 730.01 1880.72 734.55C1882.69 748.462 1880.72 764.836 1877.03 773.947V773.947Z" fill="#452D34"/><path d="M1080.23 776.779C1091.06 777.148 1104.36 765.945 1100.66 754.618C1096.23 748.093 1088.97 752.895 1088.47 759.543L1089.09 758.066C1088.62 759.25 1088 760.368 1087.24 761.39L1088.23 760.158C1087.33 761.265 1086.29 762.258 1085.15 763.113L1086.38 762.128C1085.32 762.967 1084.17 763.671 1082.93 764.221L1084.41 763.606C1083.22 764.078 1081.98 764.409 1080.72 764.591L1082.44 764.344C1073.21 762.867 1070.75 775.917 1080.23 776.779Z" fill="white"/><path d="M1095.25 718.545C1096.26 710.457 1098.37 702.546 1101.53 695.03C1104.58 688.163 1108.42 681.676 1112.98 675.701C1114.58 673.238 1124.3 663.389 1126.39 662.035C1129.51 659.594 1132.9 657.528 1136.49 655.879C1135.38 656.372 1136.24 656.002 1136.49 656.002C1139.1 654.88 1141.9 654.254 1144.74 654.156C1152.62 654.156 1152.62 641.721 1144.74 641.844C1108.91 646.153 1086.88 685.673 1082.94 718.545C1082.81 726.424 1095.12 726.547 1095.25 718.545V718.545Z" fill="white"/><path d="M1126.76 556.895L1131.57 556.033L1129.97 556.279C1135.63 554.556 1142.77 558.249 1147.69 554.432C1148.35 553.768 1148.84 552.963 1149.14 552.08C1149.44 551.196 1149.53 550.257 1149.41 549.332C1149.29 548.407 1148.97 547.521 1148.46 546.741C1147.94 545.961 1147.26 545.308 1146.46 544.829C1139.2 542.367 1130.95 543.598 1123.56 545.076C1116.18 546.553 1119.13 558.988 1126.76 556.895Z" fill="white"/><path d="M1211.96 644.553C1213.18 644.053 1214.47 643.722 1215.78 643.568L1214.18 643.814C1215.64 643.569 1217.14 643.569 1218.61 643.814L1217.01 643.568C1218.19 643.68 1219.36 643.971 1220.45 644.43C1221.07 644.553 1222.18 645.292 1220.33 644.307C1223.66 646.031 1222.79 645.415 1225.13 647.754C1225.5 648.124 1225.87 648.985 1224.89 647.385C1228.21 656.003 1240.65 651.325 1236.58 642.83C1232.52 634.335 1213.93 626.455 1205.07 635.566C1202.23 639.998 1206.91 646.277 1211.96 644.553Z" fill="white"/><path d="M409.127 865.914C409.1 865.459 409.141 865.002 409.25 864.559V865.421C409.444 864.118 409.774 862.839 410.235 861.605C414.175 852.74 423.654 846.338 432.396 839.321C439.044 834.027 450.74 826.024 460.343 821.962C462.189 820.854 474.378 817.529 476.225 817.529C480.758 816.937 485.347 816.896 489.89 817.406C494.815 818.268 502.325 821.715 504.418 814.698C504.295 795.984 457.388 807.557 447.785 814.452C428.825 827.009 400.139 841.168 396.938 865.914C396.815 873.793 409.127 873.916 409.25 865.914H409.127Z" fill="#452D34"/><path d="M675.793 907.034C667.791 901.74 655.972 909.251 656.834 918.607C657.695 927.964 670.376 935.474 678.256 928.21C686.135 920.946 682.442 910.359 675.793 907.034Z" fill="#452D34"/><path d="M849.879 910.728C841.876 905.434 830.18 912.821 830.919 922.301C831.658 931.78 844.585 939.167 852.341 931.78C860.097 924.394 856.65 914.052 849.879 910.728Z" fill="#452D34"/><path d="M888.043 969.331C890.998 978.934 865.267 990.014 876.84 989.768C880.056 989.749 883.251 989.251 886.32 988.29C901.34 983.612 910.45 969.946 906.634 957.881C902.817 945.816 887.674 939.66 872.654 944.338C865.373 946.426 859.082 951.057 854.925 957.389C851.601 962.806 886.32 963.544 888.043 969.331Z" fill="#D13535"/><path d="M668.506 972.095C672.033 959.879 662.657 946.444 647.567 942.089C632.476 937.733 617.384 944.105 613.858 956.321C610.332 968.538 619.707 981.972 634.798 986.328C649.889 990.683 664.98 984.311 668.506 972.095Z" fill="#D13535"/><path d="M789.43 1012.17C721.594 1014.76 743.139 950.493 774.041 955.049C811.591 960.466 849.141 969.084 880.166 976.594C888.538 978.564 888.415 990.506 879.92 992.353L789.43 1012.17Z" fill="#CE9C5C"/><path d="M881.888 958.127C848.278 950.002 812.205 941.753 775.147 936.336C764.067 934.735 752.987 939.783 745.6 949.878C738.213 959.974 735.751 974.994 741.045 985.951C744.615 993.338 754.464 1005.77 781.426 1007H783.765C788.116 1006.99 792.452 1006.5 796.693 1005.53L881.519 987.059C884.821 986.356 887.782 984.543 889.91 981.922C892.038 979.301 893.204 976.031 893.215 972.655C893.321 969.292 892.246 965.997 890.177 963.344C888.108 960.69 885.176 958.844 881.888 958.127V958.127ZM792.26 962.805V963.052V962.805ZM793.738 992.353C789.899 993.197 785.971 993.569 782.042 993.461C767.268 992.722 757.05 988.044 753.233 980.165C749.416 972.285 751.386 964.898 756.434 957.881C761.482 950.863 765.791 949.632 771.085 949.632H773.178L782.534 951.11C773.424 975.733 794.23 976.102 792.26 962.929C792.384 963.421 792.384 963.79 792.507 964.283C792.404 963.714 792.363 963.137 792.384 962.559C793.676 959.576 794.546 956.427 794.969 953.203C814.421 956.527 833.627 960.589 852.094 964.898V965.883L851.725 967.115C851.567 967.508 851.36 967.881 851.109 968.223C846.308 974.255 849.509 978.687 853.941 979.057L822.054 986.074C824.024 978.81 827.102 970.562 819.961 967.361C809.004 966.007 811.836 981.765 809.004 988.906L793.738 992.353ZM878.687 973.763L858.25 978.195C860.589 976.964 862.682 974.501 863.667 970.439C864.01 969.607 864.258 968.74 864.406 967.853L878.687 971.3C879.057 971.3 879.672 971.547 879.672 972.532C879.689 972.677 879.677 972.825 879.637 972.966C879.596 973.107 879.528 973.238 879.437 973.353C879.345 973.467 879.232 973.563 879.103 973.633C878.974 973.703 878.833 973.747 878.687 973.763V973.763Z" fill="#452D34"/><path d="M224.454 1018.7C215.836 1022.52 208.326 1028.43 199.462 1031.63C183.334 1037.54 164.744 1032.86 150.585 1023.01C136.427 1013.16 126.455 998.632 118.083 983.612C88.6564 930.019 79.0659 867.768 90.9977 807.804C98.3846 770.992 115.621 733.935 147.508 714.113C179.394 694.292 227.532 698.354 247.6 730.118C267.668 761.882 251.663 806.942 249.077 845.723C248.879 847.916 249.149 850.126 249.871 852.206C250.593 854.287 251.749 856.189 253.263 857.788C262.866 867.637 277.148 855.818 289.705 851.756C312.851 844.123 336.612 868.253 337.72 892.507C338.828 916.76 324.547 938.921 309.404 957.881C298.916 971.096 287.651 983.676 275.67 995.554C263.112 1007.74 260.404 1003.31 242.922 1004.91C241.198 1005.03 225.932 1018.08 224.454 1018.7Z" fill="#D13535"/><path d="M406.049 1241.54C353.356 1198.32 280.964 1082.1 259.296 1014.88C258.681 1012.05 258.311 1010.57 258.065 1009.22C279.487 1004.17 295.738 993.215 312.359 973.763C335.381 947.416 363.328 918.484 363.821 881.426C364.313 844.369 324.793 817.16 290.691 840.06C289.336 840.675 283.673 842.522 281.211 842.153L280.103 841.906H279.733L279.364 841.66L278.256 841.045C278.256 840.921 278.256 840.921 278.133 840.921L277.025 839.69C276.567 839.132 276.194 838.51 275.917 837.844C275.917 837.811 275.904 837.78 275.881 837.757C275.858 837.733 275.826 837.72 275.794 837.72C275.826 837.72 275.858 837.733 275.881 837.757C275.904 837.78 275.917 837.811 275.917 837.844H275.794C275.799 837.777 275.791 837.71 275.77 837.646C275.749 837.583 275.715 837.524 275.671 837.474C275.31 836.744 275.1 835.948 275.055 835.135C275.108 835.338 275.149 835.543 275.178 835.751C274.809 830.087 275.917 824.424 276.532 818.761C285.15 772.716 296.969 705.741 236.397 686.658C104.664 657.357 78.4403 844.492 115.129 934.735C130.518 980.041 168.314 1044.55 225.07 1022.89C232.457 1019.68 238.982 1015.01 246.123 1011.68H246.615C258.434 1065.24 292.168 1112.27 320.484 1158.56C342.645 1190.57 364.929 1223.81 394.969 1248.92C402.725 1257.79 414.79 1250.28 406.049 1241.54ZM219.284 1011.81C216.242 1013.08 213.06 1013.99 209.804 1014.51C206.284 1014.88 202.736 1014.88 199.216 1014.51C198.97 1014.51 196.754 1014.27 198.354 1014.51C193.785 1013.66 189.296 1012.43 184.935 1010.82C180.015 1008.65 175.383 1005.88 171.146 1002.57C154.649 990.014 140.244 963.667 131.995 943.969C123.348 923.184 117.391 901.381 114.267 879.087C108.234 826.394 114.021 772.223 145.292 729.256C148.123 725.07 159.204 713.867 162.897 711.405C173.726 702.777 186.714 697.284 200.447 695.523C213.621 693.676 228.518 696.015 237.628 699.955C252.032 706.357 260.158 714.236 266.56 728.517C272.962 742.799 272.346 765.821 270.007 780.718C267.668 798.201 263.728 815.683 262.743 833.411C263.236 855.326 284.904 858.773 300.909 848.924C306.696 846.215 309.404 844.492 315.683 843.261C317.611 843.118 319.549 843.16 321.469 843.384C327.625 844.492 330.334 845.846 335.874 849.786L337.72 851.386C339.321 852.987 340.921 854.587 342.399 856.311C343.876 858.034 342.522 856.557 342.645 856.68C345.063 859.807 347.051 863.244 348.555 866.899V866.529C349.047 868.253 349.909 870.223 350.278 872.07C350.648 873.916 350.894 874.655 351.14 875.886V876.009C352.371 887.336 350.401 895.954 346.092 906.911C332.919 934.612 308.788 961.697 284.165 984.104C274.529 991.369 263.229 996.109 251.294 997.893C248.324 997.766 245.368 998.357 242.676 999.617L241.198 1000.11C234.181 1003.19 224.824 1009.59 219.284 1011.81Z" fill="#452D34"/><path d="M275.794 837.597C275.671 837.105 275.671 837.105 275.671 837.228C275.715 837.278 275.749 837.337 275.771 837.4C275.792 837.464 275.8 837.531 275.794 837.597V837.597Z" fill="#452D34"/><path d="M1302.82 1312.21C1306.51 1320.82 1307.87 1330.3 1312.05 1338.68C1319.68 1354.07 1336.31 1363.54 1353.42 1366.13C1370.53 1368.72 1387.77 1365.15 1404.14 1359.97C1462.39 1341.45 1512.25 1303 1544.99 1251.39C1564.93 1219.62 1577.98 1180.84 1568.62 1144.52C1559.27 1108.2 1521.47 1078.04 1485.15 1087.15C1448.83 1096.26 1429.13 1139.97 1404.39 1169.89C1402.98 1171.59 1401.24 1172.98 1399.27 1173.98C1397.3 1174.97 1395.14 1175.55 1392.94 1175.67C1379.15 1176.16 1377.06 1157.82 1370.78 1146.12C1359.2 1124.82 1325.47 1125.81 1307.87 1142.55C1290.26 1159.3 1285.34 1185.27 1283.24 1209.53C1281.7 1226.31 1281.21 1243.17 1281.77 1260.01C1282.38 1277.49 1287.43 1276.13 1299 1289.31C1300.23 1290.66 1302.2 1310.61 1302.82 1312.21Z" fill="#D13535"/><path d="M973.485 1406.88C970.807 1403.29 968.536 1399.4 966.714 1395.31C962.528 1385.09 960.435 1368.35 966.837 1353.82L966.591 1354.43C967.814 1351.43 969.384 1348.58 971.269 1345.94C975.332 1339.17 964.621 1332.89 960.558 1339.66C943.815 1364.78 948.37 1401.71 970.654 1421.9C976.317 1427.56 985.058 1418.82 979.395 1413.16C977.237 1411.25 975.259 1409.15 973.485 1406.88Z" fill="#452D34"/><path d="M1359.45 1120.64C1360.07 1121.87 1359.7 1121.01 1359.45 1120.64V1120.64Z" fill="#452D34"/><path d="M1560.38 1101.56C1544.37 1074.72 1511.99 1055.51 1480.35 1063.51C1448.71 1071.52 1426.3 1104.63 1409.31 1126.79C1403.77 1133.32 1397.62 1143.05 1391.71 1146.12C1390.11 1146.74 1386.54 1147.11 1384.69 1145.51C1382.84 1143.91 1381.86 1142.43 1380.13 1138.61C1372.5 1098.36 1332.61 1086.66 1301.34 1110.79C1266.87 1137.26 1254.31 1250.4 1283 1282.41C1210.11 1342.86 1087 1372.04 993.308 1368.72C976.318 1364.9 974.963 1378.56 985.059 1380.53C1091.92 1384.84 1199.4 1358.5 1287.8 1295.46C1339.75 1454.16 1643.85 1225.16 1560.38 1101.56ZM1550.65 1198.32C1527.13 1252.13 1476.66 1297.56 1422.36 1320.33C1390.72 1332.52 1348.13 1347.66 1317.47 1324.64C1314.39 1322.55 1307.13 1314.67 1305.03 1308.64C1302.33 1305.07 1301.71 1291.03 1297.89 1283.52C1294.08 1276.01 1288.29 1270.35 1284.84 1260.87C1273.52 1228.24 1281.4 1177.89 1292.72 1143.66C1297.16 1133.32 1306.27 1119.04 1319.44 1113.99L1318.82 1114.36C1322.59 1112.7 1326.57 1111.58 1330.64 1111.04L1329.9 1111.28C1332.42 1110.85 1334.99 1110.72 1337.54 1110.91C1338.4 1110.67 1343.32 1111.65 1340.74 1111.04C1343.68 1111.51 1346.57 1112.3 1349.36 1113.38C1349.36 1113.34 1349.34 1113.31 1349.32 1113.29C1349.3 1113.27 1349.27 1113.25 1349.23 1113.25C1351.54 1114.36 1353.76 1115.63 1355.88 1117.07L1355.39 1116.82C1356.89 1117.93 1358.25 1119.21 1359.45 1120.64H1359.33C1360.5 1122.16 1361.49 1123.81 1362.28 1125.56C1362.53 1126.06 1363.27 1128.27 1362.65 1126.3C1381.37 1188.6 1408.33 1150.19 1432.21 1117.07C1444.77 1099.46 1467.92 1076.19 1488.6 1074.47C1524.43 1069.92 1556.56 1103.9 1560.5 1137.51C1563.08 1159.79 1558.65 1178.63 1550.65 1198.32V1198.32Z" fill="#452D34"/><path d="M1349.36 1113.38C1350.71 1113.99 1349.85 1113.5 1349.36 1113.38V1113.38Z" fill="#452D34"/><path d="M885.336 654.772C833.751 579.549 642.061 575.732 580.749 595.923C431.288 645.169 420.946 753.387 421.808 780.595C421.808 780.595 465.391 732.211 489.521 715.837C513.652 699.462 546.031 676.563 587.397 663.636C628.764 650.709 687.736 637.289 734.52 634.581C817.992 629.656 885.336 654.772 885.336 654.772Z" fill="#D13535"/><path d="M1008.57 1611.99C1108.54 1463.64 1071.73 1243.88 926.457 1138C1000.94 1055.88 1022.36 921.808 965.361 825.162C992.2 544.214 433.258 506.541 419.839 797.585C395.339 831.441 374.656 938.059 433.012 937.69C418.238 1192.66 741.169 1333.38 917.1 1147.97C1176.13 1338.06 1031.97 1765.51 710.513 1760.71C444.708 1766.99 277.025 1451.69 423.778 1232.18C424.742 1230.66 425.062 1228.82 424.67 1227.07C424.277 1225.31 423.204 1223.79 421.686 1222.82C420.167 1221.86 418.328 1221.54 416.574 1221.93C414.819 1222.32 413.292 1223.4 412.329 1224.92C339.814 1338.8 336.244 1492.57 408.266 1605.71C327.256 1682.9 283.797 1785.34 282.689 1902.42C282.672 1903.31 282.836 1904.2 283.17 1905.03C283.504 1905.86 284.003 1906.61 284.635 1907.24C285.267 1907.88 286.02 1908.37 286.849 1908.71C287.678 1909.04 288.566 1909.21 289.46 1909.19C291.235 1909.19 292.939 1908.49 294.205 1907.25C295.471 1906.01 296.199 1904.32 296.231 1902.54C297.339 1790.14 338.706 1691.65 415.776 1617.28C544.554 1821.53 867.854 1824.98 1000.82 1623.44C1075.43 1700.26 1115.81 1802.08 1114.7 1910.91C1114.7 1912.71 1115.41 1914.43 1116.68 1915.7C1117.95 1916.97 1119.68 1917.68 1121.47 1917.68C1122.35 1917.7 1123.23 1917.54 1124.05 1917.21C1124.87 1916.89 1125.62 1916.4 1126.25 1915.78C1126.88 1915.16 1127.38 1914.42 1127.72 1913.61C1128.07 1912.79 1128.24 1911.92 1128.24 1911.04C1129.47 1797.65 1087 1691.65 1008.57 1611.99ZM467.977 698.108C559.328 585.95 751.511 585.211 866.869 657.726C715.315 619.684 538.645 663.512 433.012 781.457C435.967 754.494 448.894 722.238 467.977 698.108ZM419.839 922.423C404.449 908.265 407.527 884.011 409.251 865.175C415.776 794.876 478.565 749.693 534.089 715.098C663.237 641.721 954.65 597.769 958.959 814.575C894.078 804.602 828.457 764.713 758.528 770.869C654.865 775.424 557.851 826.763 486.567 900.386C468.592 913.067 439.537 934.242 419.839 922.423ZM715.192 1219.5C564.868 1222.82 435.474 1085.3 446.678 935.597C469.454 929.441 494.693 911.835 510.821 895.584C655.481 753.263 801.495 771.115 950.711 826.886C1053.02 995.307 910.083 1225.41 715.192 1219.5Z" fill="#452D34"/><path d="M725.286 1377.95C723.809 1431.01 644.892 1430.27 644.523 1377.21C644.153 1324.15 724.917 1324.89 725.286 1377.95Z" fill="#CE9C5C"/><path d="M723.07 1586.38C721.716 1639.45 642.676 1638.71 642.307 1585.64C643.784 1532.58 722.824 1533.32 723.07 1586.38Z" fill="#CE9C5C"/><path d="M670.008 1420.3C607.466 1418.7 607.958 1326.86 670.5 1325.99C732.304 1328.09 731.935 1418.82 670.008 1420.3ZM670.008 1339.54C626.056 1340.15 625.687 1405.53 669.639 1406.76C687.737 1407.25 703.865 1391.49 703.618 1373.39C704.234 1355.3 688.229 1339.17 670.008 1339.54V1339.54Z" fill="#452D34"/><path d="M667.915 1628.73C626.795 1629.97 604.757 1575.67 634.92 1547.85C663.114 1518.42 716.669 1541.08 715.068 1582.07C714.906 1594.48 709.871 1606.33 701.049 1615.06C692.227 1623.79 680.326 1628.7 667.915 1628.73ZM667.915 1547.97C623.963 1548.59 623.594 1614.08 667.546 1615.19C711.498 1616.3 712.236 1548.71 667.915 1547.97Z" fill="#452D34"/></svg>