<?xml version="1.0" ?><svg fill="none" height="2000" viewBox="0 0 2000 2000" width="2000" xmlns="http://www.w3.org/2000/svg"><path d="M1162.64 322.623C1161.92 322.623 1161.21 322.479 1160.55 322.2C1159.89 321.921 1159.29 321.513 1158.79 320.999C1158.28 320.485 1157.89 319.876 1157.63 319.207C1157.37 318.539 1157.24 317.824 1157.26 317.107V186.516C1157.24 185.798 1157.37 185.084 1157.63 184.415C1157.89 183.747 1158.28 183.138 1158.79 182.624C1159.29 182.109 1159.89 181.701 1160.55 181.422C1161.21 181.143 1161.92 181 1162.64 181C1164.1 181 1165.5 181.581 1166.54 182.616C1167.57 183.65 1168.15 185.053 1168.15 186.516V317.107C1168.15 318.569 1167.57 319.972 1166.54 321.007C1165.5 322.041 1164.1 322.623 1162.64 322.623V322.623Z" fill="#CE9C5C"/><path d="M1116.03 313.383C1114.73 313.373 1113.47 312.937 1112.44 312.142C1111.34 311.204 1110.64 309.868 1110.51 308.422C1110.38 306.977 1110.83 305.539 1111.75 304.42L1205.25 193.135C1206.23 192.196 1207.52 191.652 1208.88 191.606C1210.24 191.56 1211.56 192.016 1212.6 192.887C1213.64 193.758 1214.33 194.982 1214.52 196.325C1214.72 197.668 1214.41 199.037 1213.66 200.168L1120.17 311.453C1119.67 312.073 1119.04 312.571 1118.33 312.906C1117.61 313.241 1116.82 313.405 1116.03 313.383V313.383Z" fill="#CE9C5C"/><path d="M1214.07 309.108C1212.65 309.084 1211.28 308.545 1210.21 307.591L1107.48 204.719C1106.96 204.217 1106.55 203.617 1106.27 202.954C1105.99 202.291 1105.84 201.578 1105.84 200.857C1105.84 200.137 1105.99 199.424 1106.27 198.761C1106.55 198.098 1106.96 197.498 1107.48 196.996C1108.51 195.986 1109.9 195.419 1111.34 195.419C1112.78 195.419 1114.17 195.986 1115.2 196.996L1217.94 299.731C1218.46 300.244 1218.87 300.856 1219.15 301.531C1219.44 302.206 1219.58 302.93 1219.58 303.661C1219.58 304.393 1219.44 305.117 1219.15 305.792C1218.87 306.466 1218.46 307.078 1217.94 307.591C1216.87 308.545 1215.5 309.084 1214.07 309.108V309.108Z" fill="#CE9C5C"/><path d="M1228 257.258H1097.41C1095.95 257.258 1094.55 256.677 1093.51 255.643C1092.48 254.608 1091.9 253.205 1091.9 251.742C1091.9 251.024 1092.04 250.313 1092.32 249.652C1092.6 248.99 1093.01 248.391 1093.52 247.89C1094.03 247.389 1094.64 246.995 1095.31 246.733C1095.98 246.471 1096.69 246.346 1097.41 246.364H1228C1228.72 246.346 1229.43 246.471 1230.1 246.733C1230.77 246.995 1231.38 247.389 1231.9 247.89C1232.41 248.391 1232.82 248.99 1233.1 249.652C1233.38 250.313 1233.52 251.024 1233.52 251.742C1233.52 253.205 1232.94 254.608 1231.9 255.643C1230.87 256.677 1229.47 257.258 1228 257.258Z" fill="#CE9C5C"/><path d="M653.377 394.054C648.319 394.05 643.42 392.287 639.521 389.066C635.621 385.846 632.963 381.369 632.002 376.403L628.555 358.476L617.109 372.68C613.6 376.813 608.676 379.49 603.299 380.187C597.922 380.884 592.479 379.551 588.032 376.449C583.585 373.346 580.455 368.698 579.253 363.41C578.051 358.123 578.863 352.578 581.531 347.858H580.842C575.312 348.612 569.704 347.216 565.174 343.957C560.644 340.698 557.537 335.825 556.493 330.343C555.45 324.861 556.55 319.188 559.566 314.492C562.583 309.797 567.286 306.439 572.706 305.109L587.875 302.213L573.533 293.939C568.523 291.05 564.865 286.289 563.365 280.703C561.865 275.117 562.646 269.164 565.535 264.153C568.424 259.143 573.186 255.485 578.772 253.985C584.358 252.485 590.311 253.266 595.321 256.155L610.766 265.118L607.456 247.605C606.364 241.937 607.565 236.067 610.797 231.283C614.029 226.5 619.027 223.195 624.694 222.094C627.521 221.548 630.428 221.572 633.246 222.164C636.064 222.756 638.735 223.904 641.104 225.541C643.486 227.125 645.521 229.176 647.085 231.57C648.65 233.964 649.711 236.652 650.205 239.469L653.653 257.396L665.098 243.054C666.869 240.818 669.066 238.955 671.564 237.576C674.061 236.197 676.807 235.327 679.643 235.019C682.479 234.711 685.348 234.971 688.083 235.782C690.818 236.593 693.365 237.94 695.574 239.745C697.826 241.525 699.705 243.733 701.101 246.242C702.497 248.75 703.384 251.51 703.71 254.362C704.284 260.101 702.603 265.838 699.021 270.358L688.955 282.907L701.366 280.563C707.026 279.545 712.86 280.777 717.625 283.996C722.39 287.216 725.71 292.169 726.877 297.8C727.917 303.511 726.68 309.401 723.43 314.21C720.449 318.632 715.925 321.779 710.743 323.036C715.271 326.325 718.36 331.231 719.369 336.737C720.378 342.242 719.23 347.925 716.162 352.606C713.094 357.288 708.342 360.609 702.892 361.882C697.441 363.154 691.71 362.28 686.886 359.441L671.442 350.478L674.751 367.991C675.844 373.659 674.642 379.53 671.41 384.313C668.178 389.096 663.18 392.401 657.514 393.502C656.156 393.823 654.771 394.007 653.377 394.054V394.054ZM631.727 340.273H633.106C634.106 340.539 635.012 341.081 635.719 341.837C636.426 342.593 636.906 343.532 637.105 344.548L642.759 374.197C643.023 375.595 643.561 376.927 644.344 378.115C645.126 379.304 646.137 380.325 647.317 381.12C648.497 381.916 649.823 382.469 651.218 382.748C652.613 383.027 654.05 383.026 655.445 382.746C658.252 382.179 660.722 380.53 662.322 378.156C663.922 375.782 664.523 372.873 663.995 370.06L658.341 340.687C658.154 339.656 658.264 338.593 658.658 337.623C659.053 336.652 659.716 335.814 660.569 335.207C661.423 334.599 662.432 334.247 663.478 334.192C664.524 334.137 665.565 334.381 666.477 334.895L692.402 349.926C694.894 351.33 697.838 351.698 700.599 350.949C703.36 350.201 705.715 348.397 707.157 345.927C707.871 344.698 708.334 343.339 708.519 341.929C708.704 340.52 708.607 339.088 708.236 337.716C707.864 336.343 707.224 335.059 706.352 333.936C705.481 332.812 704.395 331.873 703.158 331.172L692.816 325.104C691.806 324.588 690.992 323.757 690.494 322.737C689.997 321.718 689.844 320.565 690.058 319.451C690.279 318.363 690.816 317.365 691.6 316.58C692.385 315.796 693.383 315.259 694.471 315.038L707.433 312.556C710.24 312.003 712.716 310.368 714.328 308.005C715.125 306.85 715.683 305.548 715.967 304.174C716.251 302.8 716.257 301.383 715.983 300.007C715.724 298.612 715.187 297.283 714.406 296.099C713.624 294.914 712.613 293.899 711.432 293.112C709.082 291.544 706.214 290.951 703.434 291.457L676.406 296.697C675.302 296.909 674.159 296.779 673.132 296.324C672.104 295.869 671.239 295.111 670.654 294.151C670.069 293.191 669.791 292.075 669.858 290.953C669.925 289.831 670.333 288.756 671.028 287.872L690.472 263.601C692.203 261.347 692.998 258.511 692.69 255.685C692.381 252.859 690.994 250.261 688.817 248.432C687.714 247.541 686.446 246.876 685.085 246.477C683.724 246.077 682.298 245.951 680.888 246.104C679.478 246.258 678.113 246.689 676.87 247.373C675.628 248.056 674.533 248.979 673.648 250.087L654.756 273.668C654.082 274.474 653.192 275.071 652.19 275.389C651.189 275.707 650.117 275.732 649.102 275.461C648.094 275.211 647.18 274.674 646.47 273.915C645.76 273.156 645.285 272.209 645.103 271.186L639.449 241.538C638.85 238.749 637.194 236.3 634.828 234.706C632.463 233.112 629.572 232.496 626.762 232.988C623.956 233.555 621.486 235.204 619.886 237.578C618.286 239.952 617.685 242.861 618.212 245.674L623.866 275.047C624.047 276.081 623.936 277.144 623.546 278.118C623.156 279.092 622.503 279.939 621.66 280.563C620.801 281.17 619.786 281.518 618.735 281.567C617.685 281.615 616.642 281.363 615.73 280.839L589.805 265.808C587.305 264.44 584.373 264.092 581.623 264.837C578.872 265.583 576.517 267.364 575.05 269.807C574.337 271.036 573.874 272.395 573.689 273.805C573.504 275.214 573.6 276.647 573.972 278.019C574.344 279.391 574.984 280.675 575.855 281.799C576.727 282.922 577.812 283.861 579.049 284.562L606.077 300.283C607.058 300.832 607.848 301.667 608.341 302.678C608.834 303.688 609.007 304.825 608.835 305.936C608.614 307.024 608.078 308.022 607.293 308.807C606.508 309.591 605.51 310.128 604.423 310.349L574.774 316.003C571.979 316.583 569.512 318.212 567.879 320.554C567.064 321.726 566.496 323.052 566.212 324.451C565.927 325.85 565.932 327.292 566.225 328.69C566.759 331.485 568.381 333.955 570.733 335.557C573.085 337.16 575.976 337.765 578.773 337.24L593.804 334.344C594.901 334.16 596.028 334.311 597.037 334.779C598.046 335.246 598.89 336.008 599.458 336.964C600.04 337.914 600.313 339.021 600.239 340.132C600.165 341.244 599.748 342.305 599.045 343.169L591.736 352.271C589.97 354.512 589.155 357.357 589.464 360.193C589.773 363.03 591.183 365.632 593.391 367.44C594.493 368.331 595.762 368.996 597.122 369.395C598.483 369.795 599.909 369.921 601.319 369.768C602.729 369.614 604.095 369.183 605.337 368.499C606.58 367.816 607.675 366.893 608.56 365.785L627.452 342.342C627.958 341.693 628.607 341.169 629.349 340.81C630.09 340.452 630.903 340.268 631.727 340.273V340.273Z" fill="#D13535"/><path d="M585.944 1413.96C734.6 1447.05 917.178 1422.78 1004.47 1284.06C1005.37 1282.48 1005.62 1280.61 1005.15 1278.86C1004.69 1277.1 1003.55 1275.6 1001.99 1274.68C991.919 1269.44 984.611 1291.92 979.646 1295.36C965.443 1313.84 945.172 1333.98 928.624 1346.52C908.434 1362.04 886.325 1374.87 862.846 1384.72C838.162 1395.75 797.895 1405.96 771.143 1409.13C726.326 1415.34 675.027 1413.68 633.106 1408.03C618.488 1406 604.009 1403.52 589.667 1400.58C581.118 1398.24 577.394 1411.61 585.944 1413.96Z" fill="#EFDCC4"/><path d="M750.32 1455.6C752.802 1425.82 713.225 1395.48 694.057 1428.44C689.644 1436.16 683.025 1455.88 695.85 1458.36C703.986 1457.95 702.469 1450.36 702.607 1444.57C702.607 1444.57 702.469 1445.95 702.607 1444.71C702.975 1442.43 703.624 1440.21 704.537 1438.09C704.124 1438.92 704.262 1438.64 704.537 1437.95C704.813 1437.26 706.468 1434.5 707.571 1432.85C708.674 1431.19 707.433 1433.12 707.433 1433.26C707.433 1433.4 711.432 1429.13 710.191 1430.09C712.811 1428.44 712.673 1428.57 716.121 1427.75C713.639 1428.02 720.534 1427.61 718.189 1427.75C719.232 1427.89 720.251 1428.17 721.223 1428.57H720.947L724.671 1430.92C725.636 1431.61 724.671 1430.92 724.533 1430.78C726.835 1432.6 728.918 1434.68 730.738 1436.99C732.945 1439.47 736.392 1447.74 736.53 1451.19C734.186 1462.5 747.976 1468.15 750.32 1455.74V1455.6Z" fill="#D13535"/><path d="M777.21 1491.87C770.466 1479.7 760.576 1469.57 748.576 1462.54C736.575 1455.5 722.905 1451.82 708.994 1451.87C695.083 1451.93 681.443 1455.72 669.5 1462.86C657.557 1469.99 647.75 1480.2 641.104 1492.42C679.853 1471.74 742.598 1475.6 777.21 1491.87Z" fill="#EFDCC4"/><path d="M631.727 1530.62C631.873 1551.21 640.193 1570.9 654.856 1585.36C669.519 1599.81 689.325 1607.85 709.915 1607.71C730.506 1607.56 750.195 1599.24 764.652 1584.58C779.108 1569.91 787.147 1550.11 787.001 1529.52C787.001 1529.52 749.493 1509.38 705.503 1508.97C675.441 1508.69 640.69 1525.79 631.727 1530.62Z" fill="#EFDCC4"/><path d="M641.104 1500.01C642.367 1500.03 643.611 1499.7 644.689 1499.04C681.095 1479.74 740.943 1483.18 774.039 1498.63C775.478 1499.29 777.09 1499.49 778.649 1499.2C780.207 1498.9 781.633 1498.12 782.726 1496.97C783.835 1495.82 784.542 1494.33 784.74 1492.74C784.939 1491.15 784.62 1489.54 783.829 1488.15C776.426 1474.8 765.576 1463.69 752.412 1455.97C739.248 1448.26 724.254 1444.21 708.994 1444.27C693.734 1444.33 678.77 1448.48 665.663 1456.29C652.557 1464.11 641.789 1475.3 634.485 1488.7C633.679 1490.12 633.363 1491.77 633.588 1493.39C633.812 1495.01 634.563 1496.51 635.726 1497.66C637.14 1499.12 639.073 1499.96 641.104 1500.01ZM709.364 1459.46C725.947 1459.46 741.985 1465.38 754.595 1476.15C739.105 1472.43 723.226 1470.58 707.295 1470.63C692.951 1470.56 678.648 1472.18 664.685 1475.46C677.274 1465.11 693.067 1459.46 709.364 1459.46V1459.46Z" fill="#452D34"/><path d="M787.001 1529.52C799.688 1534.76 806.031 1522.21 799.688 1510.07C780.52 1474.08 650.481 1459.88 616.006 1514.76C610.628 1523.31 616.144 1534.89 629.382 1531.86C629.382 1531.86 670.614 1508.69 705.503 1508.97C749.493 1509.38 787.001 1529.52 787.001 1529.52Z" fill="#D13535"/><path d="M800.929 1500.01C758.456 1460.15 644 1458.91 610.214 1511.04C602.768 1522.21 609.801 1538.89 623.728 1539.17H624.556C626.833 1560.2 636.853 1579.64 652.667 1593.69C668.481 1607.75 688.958 1615.42 710.114 1615.21C731.27 1615.01 751.593 1606.94 767.13 1592.58C782.666 1578.22 792.305 1558.59 794.172 1537.51C796.573 1537.35 798.895 1536.59 800.929 1535.31C813.202 1527.31 810.03 1509.38 800.929 1500.01ZM715.845 1599.29L714.466 1572.68C717.799 1570.39 720.311 1567.1 721.635 1563.28C722.958 1559.47 723.023 1555.33 721.82 1551.47C720.616 1547.61 718.208 1544.24 714.949 1541.86C711.689 1539.47 707.75 1538.19 703.71 1538.2C699.422 1538.15 695.243 1539.56 691.861 1542.2C688.479 1544.83 686.095 1548.54 685.1 1552.71C684.106 1556.88 684.56 1561.27 686.388 1565.15C688.216 1569.03 691.31 1572.17 695.16 1574.06V1598.19C680.343 1595.05 666.927 1587.23 656.896 1575.88C646.864 1564.53 640.747 1550.26 639.449 1535.17C651.308 1529.38 680.129 1516.55 704.675 1516.55H705.503C738.736 1516.97 768.523 1529.24 779.279 1534.21C778.115 1550.81 771.103 1566.46 759.488 1578.37C747.874 1590.29 732.41 1597.7 715.845 1599.29V1599.29ZM794.723 1522.35V1522.62C794.723 1523.04 794.31 1523.17 794.172 1523.45L782.864 1519.45C769.212 1513.38 739.426 1502.07 705.641 1501.66H704.675C673.372 1501.66 638.208 1518.9 628.141 1524.14C627.417 1524.53 626.764 1525.04 626.211 1525.66C619.867 1526.62 620.005 1519.59 623.453 1516.28C657.652 1474.63 743.563 1478.22 785.898 1505.11C785.76 1505.11 785.76 1504.97 785.622 1504.83L786.587 1505.66C791.552 1509.38 796.792 1515.59 794.723 1522.35Z" fill="#452D34"/><path d="M794.172 1523.17L794.723 1522.62C794.586 1522.62 794.31 1522.9 794.172 1523.17Z" fill="#452D34"/><path d="M786.312 1505.11L785.898 1504.83L786.587 1505.38L786.312 1505.11Z" fill="#452D34"/><path d="M626.211 1525.38H626.486C627.038 1525.24 626.9 1525.1 626.211 1525.38Z" fill="#452D34"/><path d="M463.352 1474.77C411.915 1512.55 396.608 1624.94 396.057 1685.76C397.298 1705.61 396.746 1729.47 408.468 1746.02C413.294 1749.19 420.741 1743.95 418.672 1738.3C416.604 1732.64 411.777 1714.16 411.639 1710.99C408.33 1684.24 409.847 1657.07 413.432 1630.32C417.018 1603.57 428.05 1556.27 438.806 1532.14C445.149 1516 457.008 1496.14 466.11 1489.39C477.417 1484.97 475.487 1470.91 463.352 1474.77V1474.77Z" fill="#452D34"/><path d="M1676.31 1735.4C1687.76 1740.5 1699.2 1746.16 1709.27 1753.88C1715.78 1759.06 1721.66 1764.98 1726.78 1771.53C1734.92 1782.01 1744.99 1800.63 1751.88 1814.97C1756.16 1822.69 1768.29 1815.8 1763.74 1807.93C1753.67 1787.53 1743.06 1766.84 1726.65 1750.71C1719.48 1743.81 1681 1714.16 1673.83 1725.88C1672.18 1728.92 1672.73 1733.75 1676.31 1735.4Z" fill="#452D34"/><path d="M508.031 720.461C530.233 730.666 552.848 742.663 576.981 738.388C589.064 736.167 600.537 731.403 610.64 724.414C620.744 717.425 629.247 708.369 635.588 697.846C637.123 695.7 638.03 693.17 638.208 690.537C638.208 685.435 633.933 681.712 630.486 678.126C618.902 665.853 614.765 648.34 611.869 631.654C608.973 614.969 606.353 597.593 596.976 583.527C587.599 569.462 568.707 559.947 553.262 566.98C563.329 546.846 564.845 520.921 551.331 502.994C537.817 485.068 507.066 480.931 493 498.444C501.55 471.416 509.272 439.423 492.035 417.083C481.141 403.017 462.938 396.812 445.563 393.916C416.742 389.09 387.093 394.468 367.236 415.153C337.174 446.594 334.002 497.616 341.587 540.503C344.954 557.871 350.758 574.677 358.824 590.422C392.058 657.028 463.628 700.052 508.031 720.461Z" fill="#CE9C5C"/><path d="M845.608 720.737C823.407 730.942 800.791 742.939 776.659 738.664C764.558 736.493 753.064 731.751 742.953 724.756C732.842 717.762 724.351 708.68 718.052 698.122C716.516 695.976 715.609 693.445 715.431 690.813C715.294 685.849 719.706 682.126 723.016 678.402C734.737 666.129 738.874 648.616 741.77 631.93C744.666 615.244 747.148 597.869 756.663 583.803C766.178 569.738 784.933 560.223 800.377 567.255C790.311 547.122 788.794 521.197 802.308 503.27C815.822 485.343 846.574 481.206 860.639 498.72C852.09 471.829 844.229 439.699 861.605 417.359C872.499 403.293 890.563 397.088 908.077 394.192C936.898 389.365 966.546 394.744 986.403 415.428C1016.47 446.869 1019.64 498.03 1012.05 540.779C1008.69 558.191 1002.88 575.043 994.815 590.836C961.582 657.304 890.012 700.328 845.608 720.737Z" fill="#CE9C5C"/><path d="M617.109 686.814C586.496 654.27 607.181 573.047 544.299 569.6C559.467 530.712 529.543 480.517 484.864 494.307C521.821 321.105 203.136 383.16 345.172 626.966C392.058 692.606 539.196 810.923 611.455 727.081C621.936 716.049 632.278 698.673 617.109 686.814ZM611.18 701.294C611.18 701.294 611.042 701.294 611.18 701.156V701.294ZM555.055 585.596C555.091 585.596 555.126 585.611 555.152 585.636C555.178 585.662 555.193 585.697 555.193 585.734C554.917 585.596 554.089 585.182 555.055 585.596V585.596ZM533.818 539.262C533.818 539.124 533.68 537.883 533.818 539.262V539.262ZM530.784 527.678L530.509 526.989C530.677 527.18 530.775 527.424 530.784 527.678V527.678ZM446.942 418.738L446.39 418.462L446.942 418.738ZM334.83 458.729H334.968C335.381 457.35 334.968 458.591 334.83 458.729V458.729ZM608.697 707.775C589.53 739.354 547.746 754.247 512.444 735.768C449.562 708.74 386.818 670.266 350.826 610.142C293.46 523.128 331.934 357.925 459.628 426.047C483.071 442.181 475.487 483.413 466.385 508.51C464.179 514.854 473.28 520.232 477.831 515.13C496.723 493.342 533.129 513.061 533.818 539.538C535.197 551.535 533.129 561.05 528.992 571.944C523.89 578.563 527.613 588.63 536.714 584.769C545.815 580.908 553.814 583.665 562.639 590.009C562.639 590.009 563.604 590.698 562.915 590.285C593.529 617.727 576.843 669.301 607.87 697.157C611.731 700.604 612.421 702.535 608.697 707.775V707.775Z" fill="#452D34"/><path d="M562.639 590.009L562.915 590.285L562.639 590.009Z" fill="#452D34"/><path d="M1030.12 454.178C1001.02 361.924 828.233 387.435 867.259 494.307C822.441 481.069 792.517 530.299 807.686 569.6C745.494 574.427 765.075 648.065 737.771 683.919C704.4 710.947 762.179 750.248 788.104 755.902C927.383 753.558 1084.59 599.662 1030.12 454.178ZM1025.57 490.722C1025.65 490.792 1025.7 490.891 1025.7 490.998C1025.57 490.86 1025.43 489.481 1025.57 490.722ZM810.168 583.39C810.168 583.528 810.306 583.528 810.444 583.528C810.582 583.528 810.444 583.528 810.168 583.39ZM1025.98 534.298C1017.29 639.101 907.801 717.152 813.202 743.767C785.622 747.076 757.904 730.804 743.287 707.775C741.77 705.293 739.426 702.259 741.908 699.639C775.418 671.921 758.042 618.554 789.07 590.285C794.724 585.596 806.997 580.77 815.546 584.907C821.476 588.079 827.957 581.322 824.648 575.392C815.133 556.086 813.754 528.368 831.681 513.475C832.508 512.648 832.232 513.061 831.681 513.475C844.091 503.408 865.328 502.995 874.154 515.13C878.704 520.232 887.805 514.992 885.737 508.511C880.221 490.308 874.981 474.312 877.049 454.178C877.049 453.903 877.049 453.351 877.187 453.351C877.806 447.96 879.49 442.746 882.142 438.011C884.793 433.276 888.359 429.116 892.632 425.771H892.356C933.174 398.053 999.09 407.706 1016.88 457.902C1017.02 457.902 1017.15 458.315 1017.29 458.453C1026.95 482.586 1028.46 508.924 1025.98 534.298V534.298ZM815.271 584.769C815.408 584.769 815.408 584.769 815.408 584.907C815.408 585.045 815.408 584.769 815.271 584.769ZM822.993 571.669C823.002 571.775 823.051 571.874 823.131 571.944C822.993 571.806 822.993 571.806 822.993 571.669Z" fill="#452D34"/><path d="M877.187 453.489C877.155 453.721 877.109 453.952 877.049 454.179C877.14 453.96 877.187 453.726 877.187 453.489V453.489Z" fill="#452D34"/><path d="M1017.29 458.729L1016.88 458.177C1016.88 458.177 1016.88 458.453 1017.29 458.729Z" fill="#452D34"/><path d="M245.333 656.614C242.851 664.612 243.127 673.3 244.23 681.574C245.52 690.573 247.786 699.404 250.987 707.913C253.948 716.271 257.834 724.273 262.57 731.769C267.881 739.305 273.784 746.406 280.222 753.006C293.431 766.859 308.407 778.914 324.763 788.86C340.867 798.499 358.286 805.745 376.475 810.372C395.028 815.05 414.188 816.864 433.29 815.75L440.598 815.198C444.184 814.785 447.631 812.165 447.493 808.303C447.355 804.442 444.459 800.995 440.598 801.408C431.34 802.281 422.029 802.466 412.743 801.96C408.192 801.822 403.641 801.408 399.229 800.857C397.85 800.581 400.332 800.995 398.953 800.719H397.436L393.85 800.167L387.231 798.788C378.559 796.984 370.032 794.541 361.72 791.48L355.377 789.135L354.687 788.722C353.446 788.308 354.825 788.86 354.963 788.86C354.474 788.76 354.007 788.574 353.584 788.308L350.412 786.929C346.413 784.998 342.414 783.068 338.553 780.861C330.611 776.622 323.004 771.781 315.8 766.382L313.042 764.314C311.938 763.486 313.869 764.865 312.766 764.038C312.248 763.749 311.783 763.376 311.387 762.935L306.009 758.66L295.804 749.283C289.163 742.751 282.901 735.845 277.05 728.598L276.636 728.046L277.188 728.736L276.498 727.77L274.843 725.426C273.748 723.899 272.78 722.285 271.948 720.599C269.891 717.13 268.049 713.538 266.432 709.843C266.176 709.35 265.946 708.844 265.742 708.326C265.466 707.637 266.018 708.74 266.018 708.878C266.018 709.016 265.742 708.326 265.742 708.189L264.501 705.155C263.674 703.086 262.984 701.018 262.295 698.949C260.916 694.674 259.812 690.537 258.847 686.263C258.433 684.056 258.158 681.988 257.744 679.919C257.33 677.851 257.882 681.16 257.744 679.919C257.606 678.678 257.606 678.816 257.606 678.264C257.606 677.713 257.468 676.196 257.33 675.231C257.192 674.265 257.192 671.369 257.192 669.301C257.311 668.387 257.357 667.465 257.33 666.543C257.443 666.14 257.49 665.72 257.468 665.302C257.606 663.785 257.33 666.543 257.468 665.302C257.606 664.061 258.158 661.992 258.571 660.338C259.037 658.582 258.791 656.715 257.887 655.14C256.983 653.565 255.495 652.41 253.745 651.926C251.99 651.461 250.122 651.706 248.547 652.61C246.972 653.514 245.817 655.002 245.333 656.752V656.614Z" fill="#D13535"/><path d="M1103.76 651.926C1104.31 653.581 1104.72 655.235 1105.13 656.89C1105.55 658.545 1105.27 657.718 1105.27 658.131C1104.95 657.147 1104.26 656.325 1103.34 655.841C1102.43 655.356 1101.36 655.245 1100.36 655.532C1099.37 655.819 1098.52 656.481 1098.01 657.378C1097.49 658.276 1097.34 659.339 1097.59 660.345C1097.84 661.35 1098.47 662.218 1099.35 662.767C1100.23 663.315 1101.29 663.502 1102.3 663.286C1103.32 663.071 1104.21 662.471 1104.79 661.612C1105.37 660.753 1105.59 659.703 1105.41 658.683C1105.27 657.442 1105.41 659.097 1105.41 659.372C1105.41 659.648 1105.55 660.338 1105.69 660.889C1105.96 664.884 1105.96 668.892 1105.69 672.887C1105.53 673.937 1105.43 674.996 1105.41 676.058C1105.3 676.509 1105.25 676.973 1105.27 677.437C1105.13 677.851 1105 679.781 1105.13 678.678C1105.27 677.575 1105 679.23 1105 679.506C1104.84 680.044 1104.75 680.6 1104.72 681.161C1104.48 682.207 1104.3 683.266 1104.17 684.332C1103.34 688.66 1102.28 692.941 1101 697.157L1098.93 703.362L1097.83 706.258L1097.27 707.637C1097.24 707.843 1097.14 708.035 1097 708.189C1096.72 709.154 1097.55 707.086 1097.14 707.913C1095.64 711.436 1093.89 714.847 1091.9 718.117L1089 722.53C1088.72 722.668 1087.76 723.909 1088.31 723.22L1087.62 724.185L1085.28 727.081C1082.24 730.804 1079.07 734.252 1075.9 737.699C1069.39 744.416 1062.44 750.682 1055.08 756.453L1054.39 757.005C1054.53 757.005 1055.35 756.178 1054.8 756.729L1053.28 757.832L1050.53 759.901L1044.6 764.038C1040.74 766.658 1036.74 769.14 1032.74 771.485C1028.74 773.829 1024.6 776.035 1020.33 778.104L1013.85 781.137L1010.95 782.379L1010.4 782.654L1008.61 783.344C999.95 786.903 991.057 789.852 981.991 792.169C977.44 793.41 972.889 794.376 968.201 795.203L961.168 796.444H959.513C958.824 796.582 960.065 796.444 960.065 796.444H959.099L955.652 796.858C946.219 797.87 936.725 798.193 927.245 797.823L920.35 797.41C918.521 797.41 916.767 798.136 915.474 799.429C914.181 800.722 913.455 802.476 913.455 804.305C913.455 806.133 914.181 807.887 915.474 809.18C916.767 810.473 918.521 811.199 920.35 811.199C940.088 812.632 959.929 811.146 979.233 806.787C998.481 802.455 1017.04 795.495 1034.39 786.102C1051.67 776.747 1067.55 765.002 1081.55 751.213C1088.73 744.317 1095.32 736.845 1101.27 728.874C1106.24 722.254 1109.55 714.394 1112.44 706.672C1115.51 697.725 1117.64 688.481 1118.79 679.092C1120.03 670.529 1119.89 661.823 1118.37 653.305C1118.11 651.572 1117.69 649.865 1117.13 648.203C1116.89 647.324 1116.47 646.503 1115.91 645.785C1115.35 645.067 1114.65 644.467 1113.86 644.019C1113.06 643.57 1112.19 643.283 1111.28 643.173C1110.38 643.063 1109.46 643.132 1108.58 643.376C1107.7 643.621 1106.88 644.036 1106.16 644.598C1105.45 645.16 1104.85 645.857 1104.4 646.651C1103.95 647.445 1103.66 648.32 1103.55 649.225C1103.44 650.13 1103.51 651.048 1103.76 651.926V651.926Z" fill="#D13535"/><path d="M790.173 969.232C789.926 962.718 787.273 956.527 782.726 951.856C780.3 949.236 777.27 947.248 773.901 946.065C765.903 941.238 755.146 941.928 747.286 946.616C739.426 951.305 732.393 961.509 733.22 971.714C734.048 981.919 739.702 991.296 748.803 995.984C753.387 998.521 758.609 999.671 763.834 999.294C767.225 998.91 770.532 997.978 773.625 996.536C775.761 995.511 777.754 994.214 779.555 992.675C782.949 989.797 785.663 986.201 787.499 982.147C789.335 978.093 790.249 973.682 790.173 969.232V969.232Z" fill="#452D34"/><path d="M567.879 951.856C565.38 949.259 562.311 947.276 558.916 946.065C551.056 941.238 540.299 941.928 532.301 946.616C524.303 951.305 517.546 961.509 518.373 971.714C518.703 976.748 520.306 981.616 523.031 985.861C525.757 990.106 529.516 993.589 533.956 995.984C538.497 998.502 543.669 999.652 548.849 999.294C552.247 998.945 555.56 998.012 558.64 996.536C560.776 995.511 562.769 994.214 564.57 992.675C568.011 989.836 570.757 986.248 572.597 982.185C574.438 978.121 575.324 973.691 575.188 969.232C574.94 962.745 572.343 956.57 567.879 951.856Z" fill="#452D34"/><path d="M873.339 1091.09C892.2 1084.82 903.398 1067.43 898.35 1052.26C893.302 1037.08 873.919 1029.86 855.057 1036.14C836.196 1042.41 824.998 1059.8 830.047 1074.98C835.095 1090.15 854.478 1097.37 873.339 1091.09Z" fill="#D13535"/><path d="M508.856 1075.05C513.931 1059.88 502.764 1042.48 483.913 1036.17C465.063 1029.86 445.668 1037.04 440.593 1052.21C435.518 1067.38 446.685 1084.79 465.536 1091.09C484.386 1097.4 503.782 1090.22 508.856 1075.05Z" fill="#D13535"/><path d="M1236.69 1531.45C1186.91 1418.09 1109.82 1312.33 991.644 1264.47C1065.14 1168.08 1071.49 1031.42 1013.43 920.553C1221.25 960.682 1243.31 557.465 1059.63 656.201C978.405 732.873 947.654 721.565 847.401 742.526C842.988 740.457 838.438 735.631 833.197 737.561C818.58 743.077 807.272 744.732 796.378 742.801C785.351 740.781 774.879 736.442 765.655 730.071C756.432 723.7 748.666 715.442 742.873 705.844C741.494 702.948 739.84 699.501 736.254 698.949C715.16 694.573 693.675 692.355 672.131 692.33C653.373 692.361 634.665 694.255 616.282 697.984C612.007 698.536 610.766 702.535 609.111 705.844C590.633 735.493 555.882 752.316 520.994 738.389C517.822 737.147 514.65 738.664 512.168 740.457C417.569 732.735 374.131 724.599 305.733 662.82C118.742 566.842 150.458 980.54 366.546 923.725C222.993 1300.47 732.669 1553.1 982.818 1275.51C1096.72 1320.05 1174.91 1424.71 1222.76 1534.2C1225.11 1545.37 1241.1 1543.44 1236.69 1531.45ZM934.002 743.353C992.057 735.217 1036.32 696.743 1068.59 668.611C1215.59 578.012 1207.87 954.89 1003.5 901.937C971.786 841.813 919.522 796.306 869.741 752.316L934.002 743.353ZM342.552 912.417C175.418 922.76 160.387 661.027 259.812 661.303C273.008 661.363 285.775 665.992 295.942 674.403C356.618 728.184 402.538 748.317 493.138 753.557C442.805 790.79 402.538 841.951 376.613 899.179C373.717 906.35 360.341 911.59 342.552 912.417ZM705.503 1377.14C348.895 1375.34 236.783 941.1 519.339 753.833C560.157 768.588 602.354 747.352 623.039 712.05C658.617 705.431 693.919 706.258 729.635 713.153C748.665 748.593 799.136 769.14 835.266 753.006C1137.82 923.725 1098.38 1376.59 705.503 1377.14Z" fill="#452D34"/><path d="M809.341 1122.44C809.341 1146.71 759.421 1204.35 699.987 1204.35C640.552 1204.35 590.495 1147.95 590.495 1123.82C590.495 1099.68 637.518 1080.65 697.091 1080.65C756.663 1080.65 809.341 1098.31 809.341 1122.44Z" fill="#D13535"/><path d="M677.509 1204.63C614.765 1204.63 560.571 1145.47 560.571 1116.51C560.571 1101.48 573.257 1088.1 596.287 1078.86C617.109 1070.45 644.965 1065.76 674.751 1065.76C732.807 1065.76 794.586 1083.14 794.586 1115.13C794.586 1144.64 740.391 1204.63 677.509 1204.63ZM674.751 1080.93C616.42 1080.93 575.74 1099.68 575.74 1116.51C575.74 1125.2 586.22 1143.4 605.526 1160.08C618.213 1170.98 644.551 1189.46 677.509 1189.46C710.467 1189.46 736.806 1170.7 749.63 1159.39C768.936 1142.57 779.417 1123.95 779.417 1115.13C779.417 1099 734.599 1080.93 674.751 1080.93Z" fill="#452D34"/><path d="M759.697 1121.06L760.662 1122.16C761.311 1122.75 762.058 1123.21 762.869 1123.54C763.734 1123.93 764.677 1124.12 765.627 1124.09C766.531 1124.11 767.427 1123.92 768.247 1123.54C769.058 1123.21 769.804 1122.75 770.453 1122.16L771.556 1120.65C772.164 1119.6 772.497 1118.41 772.522 1117.2L772.246 1115.4C771.9 1114.26 771.285 1113.22 770.453 1112.37L769.35 1111.27C768.759 1110.61 767.994 1110.13 767.144 1109.89C766.318 1109.52 765.426 1109.34 764.524 1109.34C763.621 1109.34 762.729 1109.52 761.903 1109.89C761.053 1110.13 760.288 1110.61 759.697 1111.27L758.594 1112.65C757.937 1113.73 757.602 1114.97 757.629 1116.23L757.904 1118.02C758.172 1119.2 758.799 1120.26 759.697 1121.06V1121.06Z" fill="white"/><path d="M706.882 1108.51H707.985L709.64 1108.23H713.777C716.354 1108.12 718.936 1108.21 721.499 1108.51C721.775 1108.51 723.705 1108.79 722.051 1108.65L723.981 1108.92L727.842 1109.75C730.508 1110.49 733.129 1111.31 735.703 1112.23C739.012 1113.61 743.425 1110.85 744.115 1107.41C744.804 1103.96 743.011 1100.37 739.288 1099C727.785 1094.58 715.305 1093.34 703.158 1095.41C699.573 1096.1 697.229 1100.65 698.332 1103.96C699.435 1107.27 703.021 1109.34 706.882 1108.79V1108.51Z" fill="white"/><path d="M777.348 1249.99C785.34 1251.88 793.641 1252.04 801.701 1250.47C809.76 1248.9 817.394 1245.64 824.096 1240.89C826.992 1238.83 828.785 1234.83 826.578 1231.38C824.372 1227.93 820.373 1226.69 817.201 1229.03C814.39 1231.03 811.387 1232.74 808.238 1234.14C807.686 1234.41 807.272 1234.55 808.1 1234.27L806.859 1234.69L804.376 1235.52L799.274 1236.89L796.792 1237.31H795.551C793.814 1237.54 792.062 1237.63 790.311 1237.58L785.346 1237.31C783.554 1237.17 786.174 1237.45 785.208 1237.31L783.829 1237.03L781.071 1236.48C779.298 1235.99 777.4 1236.22 775.797 1237.12C774.194 1238.03 773.015 1239.53 772.522 1241.31C772.028 1243.08 772.259 1244.98 773.164 1246.58C774.069 1248.19 775.574 1249.36 777.348 1249.86V1249.99Z" fill="#452D34"/><path d="M1311.43 1748.36L1358.73 1784.77C1366.32 1789.46 1373.35 1777.6 1365.76 1772.91L1318.46 1736.5C1310.88 1731.81 1303.85 1743.81 1311.43 1748.36Z" fill="#452D34"/><path d="M1643.08 958.2C1641.57 957.488 1640.28 956.392 1639.33 955.021C1638.37 953.651 1637.8 952.055 1637.66 950.392C1637.52 948.73 1637.82 947.06 1638.53 945.551C1639.24 944.041 1640.33 942.744 1641.7 941.79C1672.31 920.691 1688.72 892.56 1689.55 868.979C1690.52 839.469 1662.25 803.891 1615.64 825.541C1505.32 876.702 1442.02 836.021 1392.52 794.927C1368.25 774.794 1329.77 802.098 1316.26 830.505C1285.37 895.87 1387.83 957.373 1490.84 971.162L1494.15 971.576C1519.8 975.851 1550.96 1006.74 1565.03 1026.18C1579.09 1045.63 1586.4 1071.42 1594.26 1095.13C1602.12 1118.85 1612.47 1143.26 1632.05 1159.12C1651.63 1174.98 1682.52 1178.98 1700.86 1161.88C1709 1154.15 1713.55 1143.54 1720.44 1134.71C1727.34 1125.89 1755.61 1125.33 1761.53 1105.89C1774.91 1062.04 1705.27 986.745 1643.08 958.2Z" fill="#EFDCC4"/><path d="M1645.29 812.854L1644.87 812.578C1645.7 813.268 1645.7 813.13 1645.29 812.854Z" fill="#452D34"/><path d="M1669.42 845.812C1669.56 847.467 1669.56 846.364 1669.42 845.812V845.812Z" fill="#452D34"/><path d="M1308.95 858.361C1308.4 856.982 1308.67 857.81 1308.95 858.361V858.361Z" fill="#452D34"/><path d="M1635.91 810.234C1634.39 809.958 1635.63 810.234 1635.91 810.234V810.234Z" fill="#452D34"/><path d="M1755.19 1061.35C1736.58 1002.88 1684.04 958.338 1629.29 933.93C1657.01 915.727 1682.38 886.906 1683.62 852.293C1681.97 800.305 1632.32 782.93 1590.54 807.476C1546.83 827.747 1488.77 833.953 1447.4 814.647C1429.6 806.7 1412.83 796.604 1397.48 784.585H1397.62C1385.07 773.967 1371.42 761.969 1353.63 765.693C1321.08 771.898 1293.23 803.339 1291.02 836.435C1291.3 888.837 1345.49 919.45 1387.83 938.067C1420.23 953.098 1455.81 957.373 1490.01 965.371H1490.42C1521.53 981.182 1546.22 1007.24 1560.34 1039.15C1570.13 1062.45 1576.75 1093.07 1589.71 1117.06C1617.43 1171.25 1683.9 1184.35 1712.58 1123.4L1713.13 1122.71C1715.2 1120.51 1718.1 1119.54 1720.72 1118.16H1720.58C1749.81 1110.58 1763.33 1091.55 1755.19 1061.35ZM1420.1 935.309C1382.31 922.898 1343.56 905.247 1318.05 873.668L1318.6 874.357C1314.74 869.443 1311.5 864.07 1308.95 858.361C1308.96 858.467 1309.01 858.566 1309.09 858.637C1292.82 824.024 1326.88 779.207 1363.14 779.069H1363.01C1367.26 779.57 1371.3 781.188 1374.73 783.757L1374.45 783.482C1441.19 846.088 1527.52 856.43 1608.33 814.647C1616.05 811.062 1627.91 808.993 1635.91 810.234C1638.98 810.674 1641.98 811.46 1644.87 812.578H1644.73C1650.81 815.223 1656.15 819.291 1660.32 824.438H1660.18C1662.4 827.298 1664.3 830.397 1665.83 833.677C1665.97 834.091 1666.8 836.297 1666.11 834.229C1667.63 838.006 1668.74 841.936 1669.42 845.95V845.674C1671.76 863.463 1663.21 880.839 1652.59 894.766H1652.73C1597.16 961.785 1496.77 959.717 1420.1 935.309ZM1511.66 978.333L1511.94 978.609L1511.66 978.333ZM1624.74 1138.85H1624.46C1623.64 1138.16 1624.33 1138.57 1624.74 1138.85V1138.85ZM1743.47 1079.83C1743.19 1085.89 1741.54 1092.38 1736.44 1095.96H1736.71C1707.2 1111.54 1706.65 1104.24 1687.9 1135.95C1673.42 1156.09 1642.67 1153.05 1624.74 1138.99C1606.81 1124.92 1598.54 1106.58 1591.51 1087.27C1576.61 1037.63 1560.75 995.571 1516.21 964.819C1549.86 964.957 1583.78 958.476 1613.84 943.031C1654.94 956.683 1692.45 987.435 1717.96 1019.7C1725.85 1029.97 1732.52 1041.12 1737.82 1052.94C1737.82 1052.66 1737.68 1052.52 1737.68 1052.39C1741.26 1061.07 1744.02 1070.31 1743.47 1079.83V1079.83Z" fill="#452D34"/><path d="M1719.89 1118.71C1719.61 1118.99 1719.48 1118.99 1720.58 1118.44L1719.89 1118.71Z" fill="#452D34"/><path d="M1712.58 1123.4C1712.99 1123.13 1713.13 1122.85 1713.13 1122.71C1713.13 1122.58 1712.72 1123.4 1712.58 1123.4Z" fill="#452D34"/><path d="M1350.73 836.297C1359.1 851.323 1371.85 863.444 1387.28 871.047C1395.06 874.912 1403.13 878.184 1411.41 880.838C1419.68 883.458 1428.09 886.216 1436.64 888.147C1445.19 890.078 1458.16 891.87 1468.64 888.699C1472.08 887.733 1474.7 883.872 1473.46 880.287C1472.98 878.537 1471.82 877.048 1470.25 876.145C1468.67 875.241 1466.81 874.995 1465.05 875.46L1462.02 876.288L1460.36 876.563C1460.09 876.563 1458.71 876.701 1460.09 876.563C1458.03 876.862 1455.95 876.954 1453.88 876.839H1449.19C1448.78 876.839 1447.4 876.563 1448.78 876.839L1442.44 875.736C1434.3 873.943 1426.16 871.323 1418.3 868.841L1407 864.98L1401.76 862.911L1400.93 862.636L1400.1 862.222L1397.21 860.843C1393.64 859.224 1390.19 857.382 1386.86 855.327C1385.25 854.35 1383.68 853.291 1382.17 852.155L1380.93 851.328C1380.11 850.638 1382.17 852.293 1380.79 851.19L1378.04 848.984C1374.9 846.144 1371.99 843.054 1369.35 839.744L1368.8 839.055C1369.21 839.744 1367.97 838.09 1367.97 837.952C1367.33 837.238 1366.77 836.452 1366.32 835.607C1365.02 833.693 1363.82 831.714 1362.73 829.678C1361.82 828.087 1360.31 826.924 1358.54 826.446C1356.76 825.967 1354.88 826.212 1353.28 827.127C1351.69 828.041 1350.53 829.55 1350.05 831.321C1349.57 833.093 1349.82 834.982 1350.73 836.573V836.297Z" fill="#452D34"/><path d="M1472.36 546.295C1457.88 534.298 1438.71 556.362 1452.36 569.324C1466.84 585.32 1490.7 558.154 1472.36 546.295Z" fill="#452D34"/><path d="M1613.02 578.839C1601.02 558.706 1571.92 578.977 1588.06 596.766C1599.5 609.729 1621.29 593.732 1613.02 578.839Z" fill="#452D34"/><path d="M1479.67 682.263L1486.84 685.159C1508.57 693.856 1532.27 696.478 1555.38 692.744L1563.1 691.503C1563.75 691.384 1564.42 691.449 1565.04 691.69C1565.66 691.931 1566.2 692.338 1566.6 692.867C1567 693.396 1567.24 694.025 1567.31 694.685C1567.37 695.345 1567.25 696.009 1566.96 696.605C1561.03 708.878 1544.9 734.251 1515.66 730.666C1486.43 727.081 1478.15 699.639 1474.84 686.538C1474.66 685.891 1474.67 685.205 1474.86 684.561C1475.05 683.916 1475.42 683.337 1475.92 682.892C1476.42 682.446 1477.04 682.151 1477.7 682.04C1478.37 681.928 1479.05 682.006 1479.67 682.263V682.263Z" fill="#452D34"/><path d="M1326.6 459.97C1331.29 463.417 1335.98 466.589 1340.53 469.623C1306.05 495.134 1316.95 553.052 1351.42 573.875C1346.71 623.526 1358.49 673.347 1384.93 715.635C1386.59 739.354 1384.66 763.21 1381.48 786.791C1381.09 788.543 1381.37 790.379 1382.26 791.937C1383.15 793.494 1384.6 794.66 1386.31 795.203C1389.62 795.892 1394.31 794.238 1394.86 790.376C1397.21 772.036 1399.41 753.695 1399.27 735.217C1445.47 792.583 1526.69 814.509 1591.23 774.656C1591.09 783.757 1582.13 816.853 1595.5 817.405C1599.23 817.129 1602.54 814.371 1602.4 810.51C1602.12 794.514 1603.5 778.379 1608.05 763.21C1648.18 732.873 1682.24 693.847 1702.51 647.651C1746.37 652.201 1784.43 592.077 1759.88 553.879C1819.59 415.704 1729.68 258.913 1530.14 261.257C1415.27 263.05 1285.64 389.917 1326.6 459.97ZM1355.01 549.88C1354.32 552.638 1353.9 555.534 1353.35 558.292C1350.71 556.067 1348.27 553.622 1346.04 550.983C1345.77 550.57 1344.39 549.191 1345.77 550.57C1342.53 546.379 1339.84 541.791 1337.77 536.918C1337.77 537.056 1337.91 537.056 1337.91 537.194C1332.25 523.817 1331.57 508.097 1337.22 494.721C1338.46 490.997 1347.01 479 1354.87 477.759C1358.92 479.873 1362.91 481.804 1366.87 483.551C1362.04 505.477 1359.7 527.954 1355.01 549.88V549.88ZM1750.78 566.152C1750.78 565.96 1750.73 565.769 1750.64 565.601C1750.64 565.739 1750.78 566.015 1750.78 566.152ZM1747.19 560.085C1751.05 564.773 1752.57 570.841 1753.54 576.495V575.667C1757.12 603.109 1735.06 630.551 1708.03 634.964C1717.96 610.694 1722.92 584.769 1727.75 559.12C1734.21 559.785 1740.7 560.107 1747.19 560.085V560.085ZM1462.57 484.792C1476.08 447.973 1522.56 436.389 1547.38 467.279C1550.14 472.519 1555.24 475.001 1560.48 471.829C1569.44 467.141 1580.47 468.658 1590.4 467.692C1641.7 463.831 1618.53 541.193 1663.9 549.467C1677.14 552.363 1696.45 555.534 1713.96 557.603C1705 614.003 1684.04 669.301 1644.46 711.636C1604.88 753.971 1556.75 789.825 1497.6 779.896C1488.41 778.416 1479.44 775.871 1470.84 772.312C1395.41 740.595 1354.04 648.065 1365.9 567.118C1370.31 543.951 1375 514.164 1379.83 488.791C1406.03 497.479 1459.26 518.026 1462.57 484.792Z" fill="#452D34"/><path d="M1337.91 537.194C1338.05 537.607 1338.32 538.021 1337.91 537.194V537.194Z" fill="#452D34"/><path d="M1424.92 526.162C1425.29 527.064 1425.87 527.863 1426.61 528.489C1427.36 529.114 1428.25 529.546 1429.2 529.747C1451.12 534.298 1473.33 537.883 1495.67 540.365C1498.97 540.641 1502.01 537.332 1502.42 534.298C1502.56 519.267 1442.16 514.716 1429.2 514.027C1422.85 513.751 1419.82 522.439 1424.92 526.162Z" fill="#452D34"/><path d="M1587.64 556.775C1600.47 558.706 1658.8 582.287 1662.25 566.566C1665.69 550.846 1602.12 544.364 1589.57 543.123C1581.71 542.985 1580.2 554.845 1587.64 556.775Z" fill="#452D34"/><path d="M1180.43 1131.81C1183.32 1124.51 1192.29 1106.58 1199.73 1097.2C1203.32 1090.45 1217.52 1084.38 1210.49 1075.83C1187.18 1062.04 1151.19 1166.98 1149.12 1185.18C1137.39 1193.73 1124.65 1200.81 1111.2 1206.28C1080.86 1218.69 1039.49 1230 1003.5 1226.41C999.917 1226 996.47 1229.86 996.608 1233.31C999.228 1249.72 1053.56 1237.03 1065.97 1234.96C1093.41 1228.76 1120.58 1219.24 1144.85 1204.63C1133.13 1256.2 1131.75 1309.7 1120.99 1361.28C1118.65 1364.18 1118.1 1368.45 1120.99 1371.07C1136.99 1379.9 1136.58 1350.8 1138.78 1341.28C1142.09 1316.46 1144.71 1291.64 1148.16 1266.96C1154.78 1221.04 1162.78 1174.84 1180.43 1131.81Z" fill="#452D34"/><path d="M1030.39 960.82C1116.65 919.585 1207.14 887.865 1300.26 866.221C1308.81 864.015 1305.36 850.639 1296.68 852.983C1285.37 849.535 958.134 954.063 1030.39 960.82Z" fill="#452D34"/><path d="M1356.52 507.407C1358.18 501.753 1351.56 496.513 1346.32 499.685C1341.08 502.857 1340.25 529.057 1346.32 532.781C1362.32 537.883 1353.77 515.819 1356.52 507.407Z" fill="#452D34"/><path d="M1724.44 581.459C1724.44 587.94 1728.03 594.697 1722.65 600.351L1722.92 599.8C1717.13 606.281 1727.06 615.52 1732.99 609.177C1746.09 596.766 1737.13 563.119 1724.44 581.459Z" fill="#452D34"/><path d="M1647.08 1108.23C1644.78 1107.11 1642.57 1105.82 1640.46 1104.37V1104.37C1636.45 1101.18 1633.28 1097.07 1631.22 1092.38C1630.94 1091.69 1631.08 1091.82 1631.5 1092.79C1629.01 1087.96 1630.25 1078.86 1622.67 1078.86C1619.22 1079.14 1615.36 1082.03 1615.78 1085.76C1617.43 1105.89 1634.81 1122.85 1654.94 1123.95C1663.9 1124.09 1663.9 1110.3 1654.94 1110.16C1652.09 1109.89 1649.31 1109.19 1646.66 1108.1L1647.08 1108.23Z" fill="#452D34"/><path d="M1669.83 1057.49C1662.39 1052.94 1655.08 1064.52 1662.52 1069.21C1666.71 1072.59 1670.54 1076.37 1673.97 1080.52H1673.83C1674.24 1080.93 1674.66 1081.62 1674.11 1080.93C1679.35 1085.89 1681.28 1100.1 1690.93 1095.27C1702.24 1085.62 1677.42 1063.97 1669.83 1057.49Z" fill="#452D34"/><path d="M1673.97 1080.52C1673.97 1080.65 1674.11 1080.65 1674.11 1080.79L1673.97 1080.52Z" fill="#452D34"/><path d="M1695.62 1041.35C1713.27 1050.45 1707.89 1073.62 1720.16 1070.73C1735.89 1062.04 1709.82 1030.6 1698.1 1027.15C1686.38 1023.7 1684.17 1038.46 1695.62 1041.35Z" fill="#452D34"/><path d="M1520.76 655.649C1546 664.75 1569.72 640.756 1551.79 617.589C1548.76 613.314 1547.1 608.349 1548.34 603.247C1549.17 594.146 1559.24 575.254 1545.45 572.496C1542 572.634 1538.28 575.529 1538.55 579.391C1538.97 592.077 1530.55 604.488 1535.93 617.037C1537.86 623.932 1546.27 630 1543.65 637.722C1541.03 645.444 1530.83 644.617 1524.49 642.273C1515.94 639.79 1512.21 653.305 1520.76 655.649ZM1544.34 635.654C1544.48 635.378 1544.48 635.24 1544.34 635.654V635.654ZM1541.03 641.032L1540.48 641.583C1540.34 641.445 1540.9 641.169 1541.03 641.032V641.032Z" fill="#452D34"/><path d="M1499.11 435.975L1504.63 434.045L1507.8 433.355H1508.9C1509.32 433.217 1511.52 432.666 1509.73 433.217C1511.68 432.806 1513.67 432.667 1515.66 432.804L1521.87 433.08L1523.52 433.355L1526.14 433.907C1528.24 434.377 1530.32 434.975 1532.35 435.7L1533.86 436.251L1534.55 436.527L1535.24 436.803L1536.76 437.492C1538.67 438.462 1540.52 439.568 1542.27 440.802L1547.1 443.974C1549.27 445.345 1551.65 446.368 1554.13 447.007C1559.11 448.316 1564.33 448.316 1569.3 447.007L1576.2 445.353L1579.51 444.939C1577.99 445.077 1580.06 444.801 1580.2 444.801H1582.13C1584.51 444.617 1586.91 444.571 1589.3 444.663L1592.75 444.939H1592.61L1594.81 445.353C1597.16 445.755 1599.47 446.355 1601.71 447.145L1602.67 447.559L1603.64 447.835C1604.67 448.201 1605.65 448.712 1606.54 449.352L1609.57 451.144L1610.81 451.834L1611.5 452.385C1613.37 453.862 1615.08 455.525 1616.6 457.35C1617.24 457.996 1618.01 458.509 1618.85 458.859C1619.69 459.209 1620.59 459.389 1621.5 459.389C1622.41 459.389 1623.31 459.209 1624.15 458.859C1624.99 458.509 1625.75 457.996 1626.39 457.35C1627.63 456.022 1628.32 454.272 1628.32 452.454C1628.32 450.637 1627.63 448.887 1626.39 447.559C1613.02 432.114 1591.09 428.529 1571.92 432.39C1569.58 432.804 1567.37 433.493 1565.17 434.045L1563.51 434.321C1565.17 434.183 1563.37 434.321 1563.1 434.321H1559.65C1557.86 434.183 1561.17 434.596 1559.37 434.183L1557.72 433.769L1556.2 433.355C1554.16 432.343 1552.23 431.143 1550.41 429.77C1542.46 424.31 1533.31 420.835 1523.74 419.635C1514.17 418.435 1504.44 419.546 1495.39 422.875C1492.08 424.254 1489.32 427.564 1490.56 431.425C1491.8 435.286 1495.53 437.63 1499.11 436.251V435.975Z" fill="white"/><path d="M1466.57 432.942C1454.71 435.286 1456.78 451.558 1468.77 447.145C1480.77 442.733 1478.57 428.391 1466.57 432.942Z" fill="white"/><path d="M1722.1 345.789C1717.41 336.55 1681.14 301.248 1673.97 318.485C1672.45 323.726 1677.97 327.035 1680.17 327.587C1685.31 329.879 1690.17 332.747 1694.65 336.137C1700.68 340.764 1705.9 346.355 1710.1 352.684C1714.65 360.407 1726.65 353.374 1722.1 345.789V345.789Z" fill="white"/><path d="M1404.38 486.309C1412.88 489.312 1421.83 490.896 1430.85 490.997C1431.76 491.016 1432.67 490.851 1433.51 490.511C1434.36 490.171 1435.13 489.664 1435.77 489.02C1436.41 488.376 1436.92 487.608 1437.26 486.763C1437.6 485.918 1437.77 485.013 1437.75 484.102C1437.33 475.415 1427.54 477.621 1421.61 476.518L1423.41 476.794C1418.17 475.961 1413 474.716 1407.96 473.07C1399.41 470.588 1395.69 483.964 1404.38 486.309Z" fill="white"/><path d="M1708.03 570.289C1707.64 567.314 1706.41 564.513 1704.48 562.216C1702.55 559.919 1700 558.223 1697.14 557.327L1661.14 545.33C1661.01 545.192 1660.73 545.054 1660.73 544.778L1650.11 508.235C1649.3 505.363 1647.7 502.779 1645.49 500.778C1643.27 498.776 1640.54 497.44 1637.6 496.921C1634.67 496.403 1631.64 496.724 1628.88 497.847C1626.12 498.97 1623.72 500.85 1621.98 503.27L1599.37 533.746C1599.31 533.878 1599.21 533.99 1599.09 534.064C1598.96 534.138 1598.82 534.172 1598.68 534.16L1560.75 532.781C1557.78 532.698 1554.84 533.44 1552.26 534.925C1549.68 536.409 1547.56 538.579 1546.14 541.193C1546.04 540.021 1545.81 538.864 1545.45 537.745C1544.49 534.869 1542.74 532.321 1540.39 530.394C1538.05 528.467 1535.22 527.239 1532.21 526.851L1493.6 521.749C1493.43 521.719 1493.27 521.654 1493.13 521.559C1492.98 521.465 1492.86 521.341 1492.77 521.197L1475.12 486.447C1473.78 483.734 1471.69 481.462 1469.1 479.899C1466.51 478.335 1463.53 477.545 1460.5 477.621C1457.48 477.645 1454.53 478.509 1451.97 480.116C1449.41 481.724 1447.35 484.011 1446.02 486.722L1429.2 521.887C1429.13 522.027 1429.04 522.15 1428.92 522.246C1428.8 522.342 1428.66 522.408 1428.51 522.438L1390.03 528.506C1387.04 528.95 1384.22 530.23 1381.92 532.199C1379.61 534.168 1377.91 536.748 1377 539.641C1376.09 542.534 1376.02 545.624 1376.79 548.557C1377.56 551.49 1379.14 554.147 1381.35 556.224L1409.48 583.114C1409.61 583.235 1409.72 583.384 1409.79 583.551C1409.86 583.717 1409.9 583.898 1409.89 584.079L1403.69 622.553C1403.23 625.529 1403.6 628.575 1404.77 631.35C1405.94 634.126 1407.86 636.522 1410.31 638.274C1413.03 640.255 1416.31 641.318 1419.68 641.307C1422.37 641.291 1425.02 640.629 1427.41 639.377L1461.74 620.76C1461.89 620.696 1462.06 620.663 1462.22 620.663C1462.39 620.663 1462.55 620.696 1462.71 620.76L1497.32 638.549C1500.03 639.916 1503.06 640.497 1506.09 640.229C1509.11 639.961 1511.99 638.854 1514.42 637.033C1516.85 635.253 1518.73 632.816 1519.83 630.007C1520.93 627.198 1521.21 624.134 1520.62 621.174L1515.52 592.767L1526.14 593.456L1533.73 594.284H1535.79L1539.66 594.973C1548.35 596.321 1556.96 598.163 1565.44 600.489L1556.48 625.173C1555.47 627.978 1555.26 631.01 1555.88 633.927C1556.5 636.844 1557.92 639.529 1559.99 641.68C1562.05 643.831 1564.68 645.362 1567.57 646.101C1570.45 646.839 1573.49 646.755 1576.34 645.858L1612.6 634.412C1612.88 634.275 1613.16 634.275 1613.29 634.55L1643.22 657.855C1646.03 660.002 1649.47 661.165 1653.01 661.165C1655.45 661.172 1657.86 660.605 1660.04 659.51C1662.73 658.232 1664.99 656.22 1666.58 653.706C1668.17 651.192 1669.01 648.279 1669 645.307L1669.28 607.384C1669.27 607.24 1669.3 607.097 1669.38 606.973C1669.45 606.849 1669.56 606.752 1669.69 606.695L1701.14 585.458C1703.58 583.818 1705.52 581.531 1706.74 578.852C1707.95 576.173 1708.4 573.208 1708.03 570.289V570.289ZM1505.32 624.897C1504.9 625.311 1504.49 625.035 1504.21 625.035L1469.6 607.246C1467.24 606.068 1464.62 605.478 1461.98 605.526C1459.34 605.574 1456.75 606.259 1454.43 607.522L1420.23 626.001C1420.07 626.113 1419.88 626.174 1419.68 626.174C1419.49 626.174 1419.29 626.113 1419.13 626.001C1418.96 625.875 1418.84 625.704 1418.76 625.509C1418.69 625.314 1418.68 625.102 1418.72 624.897L1424.78 586.424C1425.2 583.842 1424.98 581.197 1424.14 578.721C1423.3 576.245 1421.86 574.013 1419.96 572.22L1391.83 545.33C1391.65 545.216 1391.52 545.038 1391.47 544.833C1391.42 544.628 1391.45 544.411 1391.55 544.226C1391.58 544.032 1391.69 543.855 1391.84 543.729C1391.99 543.602 1392.18 543.534 1392.38 543.537L1430.85 537.469C1433.44 537.079 1435.88 536.057 1437.98 534.493C1440.07 532.929 1441.74 530.873 1442.85 528.506L1459.81 493.342C1459.87 493.172 1459.98 493.027 1460.13 492.928C1460.28 492.828 1460.46 492.78 1460.64 492.79V492.79C1460.83 492.788 1461.03 492.838 1461.2 492.935C1461.37 493.032 1461.51 493.172 1461.6 493.342L1479.26 528.092C1480.46 530.414 1482.2 532.413 1484.34 533.924C1486.47 535.436 1488.94 536.415 1491.53 536.78L1530.14 541.882C1530.35 541.893 1530.55 541.964 1530.72 542.086C1530.89 542.208 1531.03 542.377 1531.11 542.572C1531.16 542.763 1531.17 542.967 1531.12 543.161C1531.07 543.356 1530.97 543.533 1530.83 543.675L1503.25 571.117C1501.37 572.979 1499.98 575.27 1499.18 577.793C1498.39 580.316 1498.22 582.995 1498.7 585.596L1505.73 623.932C1505.76 624.116 1505.74 624.305 1505.67 624.476C1505.59 624.647 1505.47 624.794 1505.32 624.897V624.897ZM1516.9 578.977L1541.45 554.431C1542.62 553.31 1543.59 552.006 1544.34 550.57C1544.65 553.303 1545.64 555.914 1547.24 558.154L1568.06 587.113C1551.33 582.684 1534.19 579.958 1516.9 578.977V578.977ZM1692.59 573.185L1661.14 594.422C1659.02 595.897 1657.28 597.853 1656.06 600.13C1654.84 602.406 1654.17 604.939 1654.11 607.522L1653.84 645.444C1653.85 645.588 1653.81 645.732 1653.74 645.856C1653.67 645.979 1653.55 646.077 1653.42 646.134C1653.37 646.193 1653.31 646.24 1653.24 646.272C1653.16 646.304 1653.09 646.321 1653.01 646.321C1652.93 646.321 1652.85 646.304 1652.78 646.272C1652.71 646.24 1652.65 646.193 1652.59 646.134L1622.67 622.829C1619.83 620.622 1616.34 619.411 1612.74 619.381C1611.1 619.399 1609.47 619.678 1607.92 620.209L1571.79 631.654C1571.64 631.69 1571.48 631.683 1571.33 631.634C1571.19 631.586 1571.06 631.497 1570.96 631.379C1570.85 631.275 1570.77 631.138 1570.75 630.988C1570.72 630.839 1570.75 630.685 1570.82 630.551L1583.64 594.835C1584.53 592.425 1584.82 589.835 1584.48 587.289C1584.15 584.742 1583.2 582.316 1581.71 580.218L1559.65 549.329C1559.58 549.288 1559.52 549.232 1559.48 549.166C1559.43 549.1 1559.4 549.025 1559.39 548.947C1559.38 548.868 1559.38 548.788 1559.4 548.711C1559.42 548.634 1559.46 548.562 1559.51 548.501C1559.79 547.95 1560.06 547.95 1560.34 547.95L1598.26 549.191C1600.85 549.298 1603.43 548.762 1605.76 547.631C1608.1 546.5 1610.12 544.809 1611.64 542.709L1634.12 512.234C1634.2 512.1 1634.33 511.999 1634.48 511.948C1634.63 511.898 1634.79 511.902 1634.94 511.958C1635.36 511.958 1635.49 512.372 1635.63 512.51L1646.11 548.915C1646.8 551.43 1648.11 553.732 1649.91 555.611C1651.72 557.491 1653.97 558.886 1656.46 559.671L1692.45 571.668C1692.59 571.668 1692.86 571.806 1693 572.358C1692.97 572.677 1692.82 572.973 1692.59 573.185V573.185Z" fill="#D13535"/><path d="M1189.12 1784.22C1120.17 1817.17 1037.01 1813.59 964.753 1788.49C920.074 1773.05 876.636 1745.19 857.192 1702.03C837.748 1658.87 851.124 1599.43 894.149 1579.71C937.173 1559.99 990.816 1587.57 1038.81 1597.36C1041.53 1597.93 1044.35 1597.93 1047.08 1597.36C1049.81 1596.79 1052.39 1595.67 1054.66 1594.05C1068.59 1583.71 1056.18 1563.85 1053.28 1547.44C1047.63 1517.38 1081.83 1491.59 1112.31 1494.35C1142.78 1497.11 1216.28 1546.75 1231.17 1561.92C1309.91 1641.77 1248.83 1755.81 1189.12 1784.22Z" fill="#D13535"/><path d="M1211.59 1535.17C1212.97 1536.27 1212.01 1535.45 1211.59 1535.17V1535.17Z" fill="#452D34"/><path d="M1225.11 1720.09L1225.38 1719.54C1225.24 1719.82 1224.69 1720.51 1225.11 1720.09Z" fill="#452D34"/><path d="M1809.94 1193.04C1786.77 1085.62 1748.43 964.13 1653.97 898.903C1650.25 896.421 1639.63 905.798 1646.94 910.763C1680.86 931.861 1706.38 963.026 1725.41 997.915C1794.91 1122.58 1832.83 1280.61 1771.74 1415.89C1671.21 1624.39 1429.75 1715.4 1213.25 1751.4C1217.8 1747.67 1222.35 1743.67 1226.62 1739.54C1264.55 1698.17 1284.54 1635.56 1263.31 1581.78C1257.74 1567.12 1249.46 1553.65 1238.9 1542.07C1283.3 1523.04 1616.46 1375.07 1535.1 1381.83C1545.03 1338.1 1552.22 1293.79 1556.62 1249.17C1558 1234.83 1559.1 1220.48 1559.93 1206.14C1559.94 1205.23 1559.78 1204.33 1559.44 1203.48C1559.1 1202.64 1558.59 1201.87 1557.95 1201.23C1557.3 1200.58 1556.54 1200.07 1555.69 1199.73C1554.85 1199.39 1553.94 1199.23 1553.03 1199.25C1551.21 1199.28 1549.48 1200.02 1548.19 1201.31C1546.91 1202.59 1546.17 1204.33 1546.14 1206.14C1542.55 1268.81 1533.32 1331.02 1518.56 1392.03C1425.34 1445.12 1326.74 1488.28 1228.69 1531.58H1228.55C1205.25 1509.93 1175.6 1494.08 1148.16 1479.05C1134.65 1472.29 1119.75 1465.26 1104.31 1465.26C1073.83 1464.98 1039.63 1489.94 1042.39 1522.76C1041.98 1536.27 1062.25 1563.72 1041.43 1568.82C985.438 1560.27 919.798 1519.59 868.775 1563.85C799.826 1634.73 854.848 1730.99 934.967 1763.39C1008.74 1795.25 1111.48 1808.21 1185.94 1769.05C1371.28 1744.78 1561.17 1679.41 1697 1546.89C1691.9 1578.61 1687.07 1610.46 1681.97 1642.18C1673.14 1678.72 1678.38 1725.33 1645.84 1750.71C1646.11 1750.61 1646.25 1750.48 1646.25 1750.29C1641.96 1753.6 1637.28 1756.38 1632.32 1758.57H1632.46C1631.63 1758.84 1631.36 1758.98 1632.32 1758.57C1626.64 1760.95 1620.65 1762.52 1614.53 1763.26C1609.16 1763.39 1601.02 1763.12 1601.16 1770.43C1601.16 1772.25 1601.88 1774.01 1603.18 1775.3C1604.47 1776.59 1606.22 1777.32 1608.05 1777.32C1644.04 1777.32 1677.14 1750.16 1683.35 1714.58C1694.93 1653.07 1703.89 1591.02 1713.55 1529.38C1796.97 1440.02 1832.28 1312.88 1809.94 1193.04ZM1056.32 1514.9C1056.25 1515.17 1056.2 1515.45 1056.18 1515.73C1056.18 1515.31 1056.18 1514.9 1056.32 1514.9ZM1031.5 1776.36C941.724 1766.57 820.097 1703.41 858.985 1601.22C907.249 1497.11 1033.15 1615.7 1061.14 1571.3C1071.9 1552.82 1053.84 1532.41 1056.18 1515.31C1059.35 1495.18 1079.49 1481.94 1098.52 1479.32C1135.61 1478.22 1181.39 1514.62 1211.59 1535.03H1211.32C1228.02 1547.73 1241.13 1564.55 1249.38 1583.85C1255.72 1597.78 1259.72 1621.63 1257.79 1639.7C1256.25 1654.53 1252.58 1669.07 1246.89 1682.86V1682.86C1241.36 1696.06 1234.13 1708.48 1225.38 1719.82C1181.81 1777.18 1098.24 1784.22 1031.5 1776.36V1776.36Z" fill="#452D34"/><path d="M1165.67 1729.47C1175.55 1726.79 1185.15 1723.19 1194.36 1718.71C1197.53 1717.06 1198.63 1712.23 1196.84 1709.2C1195.84 1707.68 1194.32 1706.58 1192.56 1706.12C1190.8 1705.66 1188.93 1705.87 1187.32 1706.72L1180.98 1709.75L1180.01 1710.16H1180.29L1178.77 1710.72L1175.46 1711.96C1171.05 1713.61 1166.64 1714.99 1162.09 1716.23C1161.21 1716.47 1160.38 1716.88 1159.66 1717.44C1158.94 1718 1158.33 1718.7 1157.89 1719.5C1157.44 1720.29 1157.15 1721.17 1157.04 1722.08C1156.94 1722.98 1157.01 1723.9 1157.26 1724.78C1157.74 1726.53 1158.9 1728.02 1160.47 1728.92C1162.05 1729.83 1163.92 1730.07 1165.67 1729.61V1729.47Z" fill="#452D34"/><path d="M1192.98 1597.09L1196.01 1599.02C1196.42 1599.29 1197.39 1600.26 1195.73 1598.88L1196.29 1599.29L1197.67 1600.4L1200.15 1603.02C1200.59 1603.41 1200.96 1603.88 1201.25 1604.4C1202.22 1605.36 1200.29 1603.02 1201.11 1604.12L1201.66 1604.81C1202.34 1605.77 1202.94 1606.79 1203.46 1607.84L1204.28 1609.36L1204.7 1610.19C1204.84 1610.46 1205.25 1611.43 1204.84 1610.33C1204.42 1609.22 1204.84 1610.33 1204.84 1610.46C1204.99 1610.71 1205.08 1611 1205.11 1611.29C1205.39 1611.84 1205.53 1612.39 1205.8 1613.08L1206.63 1616.67C1207.11 1618.42 1208.27 1619.91 1209.84 1620.81C1211.42 1621.71 1213.29 1621.96 1215.04 1621.49C1216.8 1620.98 1218.29 1619.8 1219.19 1618.2C1220.09 1616.6 1220.34 1614.72 1219.87 1612.95C1218.72 1607.18 1216.35 1601.72 1212.93 1596.95C1209.5 1592.17 1205.1 1588.17 1200.01 1585.23C1199.23 1584.75 1198.36 1584.43 1197.46 1584.28C1196.55 1584.14 1195.63 1584.18 1194.74 1584.4C1193.85 1584.62 1193.02 1585.01 1192.28 1585.56C1191.55 1586.11 1190.93 1586.79 1190.46 1587.58C1189.99 1588.37 1189.69 1589.24 1189.56 1590.15C1189.43 1591.05 1189.49 1591.98 1189.72 1592.86C1189.96 1593.75 1190.37 1594.58 1190.93 1595.3C1191.48 1596.03 1192.18 1596.63 1192.98 1597.09V1597.09Z" fill="#452D34"/><path d="M1183.74 1664.93L1204.84 1669.21C1205.71 1669.44 1206.63 1669.5 1207.52 1669.39C1208.42 1669.27 1209.29 1668.97 1210.08 1668.52C1210.87 1668.09 1211.56 1667.5 1212.11 1666.79C1212.65 1666.08 1213.04 1665.26 1213.25 1664.38C1214.07 1660.93 1212.28 1656.66 1208.56 1655.83L1187.46 1651.56C1185.65 1651.09 1183.72 1651.34 1182.08 1652.25C1180.55 1653.19 1179.42 1654.66 1178.91 1656.38C1178.08 1659.83 1180.01 1664.11 1183.74 1664.93V1664.93Z" fill="#452D34"/><path d="M590.357 1375.48H590.219C544.472 1357.5 502.926 1330.27 468.178 1295.5L463.352 1292.33C428.601 1326.53 427.222 1409.54 437.013 1436.99C457.836 1495.59 507.617 1506.07 534.508 1507.18C561.398 1508.28 589.805 1494.77 601.527 1470.5C606.353 1460.15 608.146 1448.71 609.387 1437.4C611.318 1416.44 609.663 1384.03 590.357 1375.48Z" fill="#D13535"/><path d="M515.616 1498.21C473.143 1499.87 421.155 1470.08 407.64 1422.92C397.16 1408.3 399.229 1273.02 445.425 1269.44C482.933 1303.22 522.648 1333.98 571.465 1352.04C598.217 1364.04 596.011 1408.17 594.77 1421.54C594.737 1431.81 592.649 1441.97 588.628 1451.42C584.608 1460.87 578.736 1469.42 571.359 1476.57C563.982 1483.71 555.25 1489.31 545.676 1493.03C536.102 1496.74 525.881 1498.51 515.616 1498.21V1498.21ZM442.253 1285.85C387.645 1370.79 422.809 1484.56 512.72 1483.04C538.231 1484.01 562.777 1470.77 572.43 1450.5C582.497 1427.2 586.22 1377.55 565.121 1365.83C519.158 1347.79 477.352 1320.58 442.253 1285.85V1285.85Z" fill="#452D34"/></svg>