<?xml version="1.0" ?><svg fill="none" height="2000" viewBox="0 0 2000 2000" width="2000" xmlns="http://www.w3.org/2000/svg"><path d="M1175.06 561.321C1119.09 481.387 914.109 479.517 848.899 501.721C689.615 556.062 679.682 671.873 680.967 700.972C680.967 700.972 727.011 648.617 752.721 630.854C778.431 613.091 812.555 588.316 856.729 574.059C900.903 559.801 963.658 544.843 1013.68 541.337C1102.84 535.26 1175.06 561.321 1175.06 561.321Z" fill="#D13535"/><path d="M1268.32 727.266C1268.29 726.599 1268.22 725.935 1268.09 725.28C1258.97 668.718 1238.05 601.288 1182.43 575.111C1119.44 497.28 959.451 494.826 868.298 511.421C784.04 532.923 701.886 593.225 683.538 682.157C682.837 688.468 677.929 708.218 679.682 719.203C643.805 772.258 635.858 909.806 730.167 856.984C766.745 838.637 790.702 804.629 822.605 780.088C922.172 708.568 1053.64 674.444 1170.97 721.073C1193.29 728.435 1215.26 736.732 1237.94 742.225C1251.84 747.6 1269.49 745.848 1268.32 727.266ZM860.819 525.444C915.16 511.654 974.761 512.94 1030.15 519.484C1059.6 523.458 1089.64 530.119 1117.1 541.454C1131.94 547.648 1148.07 556.88 1160.34 567.865C999.419 521.938 801.453 576.864 691.952 704.011C699.081 616.948 776.327 549.985 860.819 525.444ZM1252.31 733.343C1234.78 730.071 1217.84 724.578 1201.01 718.852C1114.65 684.611 1017.42 674.327 930.002 711.139C878.232 730.889 826.812 755.898 787.313 795.514C775.743 806.85 761.953 821.224 750.734 829.872C735.542 841.324 714.858 854.179 698.263 856.75C692.42 857.335 688.68 857.218 683.421 855.114C678.163 853.011 673.839 848.219 671.034 841.091C666.126 827.184 665.308 810.94 667.178 794.462C667.417 793.747 667.536 792.997 667.528 792.242C667.528 791.891 667.645 791.424 667.645 791.073C667.895 789.509 668.326 787.98 668.931 786.516L669.865 784.88C670.45 783.828 671.151 782.776 671.852 781.724L672.086 781.491C678.396 773.544 686.811 767.467 694.64 761.157C702.47 754.846 713.338 747.717 723.155 743.744C725.492 742.575 737.646 739.069 740.1 739.069C744.869 738.446 749.696 738.407 754.474 738.953C756.811 739.303 759.149 739.887 761.486 740.472C768.731 742.575 771.887 731.24 764.641 729.253C746.177 723.76 726.544 728.318 709.949 737.083C699.315 744.095 684.824 752.509 673.488 762.793C675.592 755.547 678.046 748.418 680.734 741.64C681.435 739.069 688.33 726.331 689.732 725.046L689.966 724.812C690.224 724.591 690.424 724.31 690.55 723.994C787.897 600.47 955.829 549.051 1108.8 567.865C1136.85 572.189 1172.02 578.5 1195.98 596.614C1234.08 628.751 1249.15 680.638 1256.75 728.201C1256.87 730.889 1255.7 734.395 1252.31 733.343Z" fill="#452D34"/><path d="M1316.35 1583.4C1354.85 1522.84 1375.21 1452.53 1375.02 1380.76C1375.02 1318.48 1360.64 1259.34 1332.24 1205.12C1305.9 1154.96 1268.6 1111.38 1223.09 1077.62C1271.17 1022.9 1297.6 952.497 1297.42 879.655C1297.42 824.613 1285.85 782.893 1257.57 735.914C1257.14 735.181 1256.56 734.54 1255.88 734.031C1255.2 733.521 1254.42 733.152 1253.59 732.946C1252.77 732.739 1251.91 732.699 1251.06 732.827C1250.22 732.956 1249.41 733.25 1248.69 733.694C1247.97 734.125 1247.34 734.696 1246.84 735.373C1246.35 736.049 1245.99 736.818 1245.79 737.634C1245.6 738.451 1245.57 739.298 1245.7 740.126C1245.84 740.954 1246.14 741.747 1246.58 742.459C1273.58 787.334 1284.56 827.067 1284.56 879.655C1284.56 1038.47 1155.31 1167.72 996.497 1167.72C837.68 1167.72 708.313 1038.47 708.313 879.655V873.929C708.167 870.458 708.285 866.982 708.664 863.528C708.74 862.684 708.65 861.833 708.398 861.024C708.146 860.215 707.737 859.463 707.194 858.812C706.652 858.161 705.986 857.623 705.236 857.229C704.485 856.836 703.665 856.593 702.821 856.517C701.116 856.362 699.419 856.89 698.104 857.986C696.79 859.082 695.964 860.655 695.809 862.36C695.431 866.282 695.314 870.225 695.458 874.163V879.655C695.276 952.497 721.707 1022.9 769.783 1077.62C724.341 1111.46 687.079 1155.07 660.75 1205.24C632.352 1259.46 617.978 1318.59 617.978 1380.76C617.978 1453.57 638.312 1523.34 676.526 1583.29C590.515 1666.61 545.173 1776.58 545.173 1901.74C545.173 1903.44 545.85 1905.08 547.055 1906.28C548.261 1907.49 549.895 1908.17 551.6 1908.17C553.305 1908.17 554.94 1907.49 556.145 1906.28C557.35 1905.08 558.028 1903.44 558.028 1901.74C558.028 1780.9 601.5 1674.79 683.772 1594.27C697.121 1613.65 712.179 1631.8 728.764 1648.5C799.782 1719.44 896.058 1759.29 996.438 1759.29C1096.82 1759.29 1193.09 1719.44 1264.11 1648.5C1280.75 1631.85 1295.82 1613.7 1309.1 1594.27C1390.21 1675.84 1434.85 1784.76 1434.85 1901.74C1434.85 1903.44 1435.53 1905.08 1436.73 1906.28C1437.94 1907.49 1439.57 1908.17 1441.28 1908.17C1442.98 1908.17 1444.62 1907.49 1445.82 1906.28C1447.03 1905.08 1447.7 1903.44 1447.7 1901.74C1447.7 1780.43 1401.08 1667.54 1316.35 1583.4ZM996.497 1746.43C794.792 1746.43 630.833 1582.47 630.833 1380.76C630.833 1263.2 684.59 1156.5 778.431 1087.2L783.573 1092.46C840.044 1148.89 916.608 1180.59 996.438 1180.59C1076.27 1180.59 1152.83 1148.89 1209.3 1092.46L1214.45 1087.2C1308.4 1156.27 1362.16 1262.97 1362.16 1380.76C1362.16 1582.47 1198.09 1746.43 996.497 1746.43Z" fill="#452D34"/><path d="M953.024 833.611C944.844 828.937 933.391 836.65 934.443 845.999C935.495 855.348 948.583 862.827 956.296 855.231C964.009 847.635 960.036 836.416 953.024 833.611Z" fill="#452D34"/><path d="M1139.19 835.598C1131.12 830.924 1119.55 838.637 1120.61 847.986C1121.66 857.335 1134.86 864.814 1142.58 857.218C1150.29 849.622 1146.32 838.403 1139.19 835.598Z" fill="#452D34"/><path d="M1181.49 897.535C1184.76 907.703 1157.3 919.973 1169.69 919.623C1173.11 919.501 1176.5 918.87 1179.74 917.753C1195.75 912.611 1205.45 898.003 1201.24 885.031C1197.03 872.059 1180.79 865.866 1164.78 871.008C1157.02 873.322 1150.35 878.338 1145.96 885.148C1142.46 890.874 1179.5 891.342 1181.49 897.535Z" fill="#D13535"/><path d="M947.839 905.062C951.484 892.008 941.286 877.753 925.061 873.222C908.836 868.692 892.729 875.603 889.084 888.657C885.439 901.712 895.637 915.967 911.862 920.497C928.087 925.027 944.194 918.116 947.839 905.062Z" fill="#D13535"/><path d="M1076.55 944.397C1003.98 948.02 1026.3 879.071 1059.37 883.512C1099.69 889.004 1139.77 897.769 1173.08 905.482C1181.96 907.469 1181.96 920.207 1173.08 922.31L1076.55 944.397Z" fill="#CE9C5C"/><path d="M1174.48 886.433C1138.6 878.136 1099.92 869.722 1060.3 864.346C1048.27 862.71 1036.58 868.437 1028.98 879.772C1021.39 891.108 1019.64 906.768 1026.06 918.103C1031.21 927.452 1043.36 938.204 1071.17 938.204H1076.78L1077.95 937.97L1174.48 915.883C1177.78 915.098 1180.72 913.224 1182.82 910.562C1184.92 907.901 1186.07 904.608 1186.07 901.217C1186.07 897.825 1184.92 894.532 1182.82 891.871C1180.72 889.21 1177.78 887.335 1174.48 886.55V886.433ZM1171.67 903.262L1110.2 917.285C1111.02 912.961 1111.84 908.637 1112.54 904.314C1114.65 896.951 1103.19 893.796 1101.32 901.158C1101.56 906.066 1097.7 914.13 1097.58 920.207L1075.61 925.232C1056.21 926.05 1042.54 921.375 1037.28 911.793C1033.19 904.664 1034.13 894.964 1039.62 887.018C1045.11 879.071 1050.02 876.968 1056.33 876.968H1058.55L1069.42 878.487C1059.84 904.781 1079.82 904.43 1078.42 892.627V890.874C1079.12 887.368 1080.52 883.979 1081.11 880.357C1102.37 883.863 1123.41 888.07 1143.63 892.51C1143.72 893.129 1143.76 893.755 1143.74 894.38C1143.66 894.906 1143.5 895.417 1143.28 895.899C1143.05 896.391 1142.77 896.861 1142.46 897.302C1134.04 907.936 1151.11 913.429 1154.73 898.704C1155.14 897.573 1155.42 896.395 1155.55 895.198L1171.67 898.821C1172.16 898.906 1172.6 899.169 1172.9 899.558C1173.2 899.946 1173.35 900.433 1173.31 900.924C1173.38 901.448 1173.25 901.98 1172.95 902.413C1172.65 902.846 1172.19 903.149 1171.67 903.262V903.262Z" fill="#452D34"/><path d="M1738.23 1083.35C1727.01 1096.79 1716.49 1111.39 1704.8 1123.43C1703.2 1125.17 1701.24 1126.55 1699.07 1127.47C1696.89 1128.4 1694.55 1128.85 1692.18 1128.81C1677.46 1128.34 1676.52 1108.47 1670.8 1095.62C1660.16 1071.89 1623.93 1070.38 1603.95 1086.97C1583.97 1103.56 1576.72 1130.79 1572.63 1156.5C1569.69 1174.29 1567.86 1192.25 1567.14 1210.26C1566.44 1228.96 1574.62 1237.37 1585.95 1252.33C1587 1253.85 1585.02 1265.77 1585.6 1267.41C1588.87 1276.87 1589.46 1287.16 1593.32 1296.39C1600.33 1313.45 1617.39 1324.79 1635.27 1328.88C1653.15 1332.97 1672.08 1330.51 1689.96 1326.19C1753.49 1310.96 1809.61 1273.79 1848.43 1221.25C1872.15 1188.87 1889.1 1148.56 1881.97 1109.17C1880.33 1100.18 1868.64 1067.57 1846.32 1062.66" fill="#D13535"/><path d="M1280.71 1367.32C1278.2 1363.87 1276.08 1360.14 1274.4 1356.22C1274.63 1356.81 1274.75 1356.92 1274.63 1356.81C1272.8 1352.35 1271.54 1347.67 1270.89 1342.9C1270.07 1336.59 1270.66 1325.37 1274.51 1316.84C1274.39 1317.05 1274.31 1317.29 1274.28 1317.54C1275.4 1314.69 1276.85 1311.98 1278.6 1309.48C1282.58 1302.93 1272.41 1297.09 1268.55 1303.52C1252.54 1327.24 1256.87 1362.42 1278.14 1381.58C1283.4 1386.84 1291.81 1378.54 1286.32 1373.28C1284.33 1371.41 1282.46 1369.42 1280.71 1367.32Z" fill="#452D34"/><path d="M1661.91 1077.74H1661.8C1661.91 1078.67 1662.15 1078.44 1661.91 1077.74Z" fill="#452D34"/><path d="M1843.99 1036.13C1833.23 1035.32 1834.99 1048.05 1844.69 1048.52H1844.57C1856.49 1054.01 1862.45 1064.07 1868.53 1077.39C1873.44 1087.2 1875.19 1106.84 1872.97 1121.68C1869.23 1149.26 1854.85 1177.77 1836.62 1201.38L1836.16 1201.96L1835.69 1202.55C1821.7 1220.32 1805.61 1236.33 1787.78 1250.23C1744.54 1283.42 1656.3 1325.37 1609.33 1291.6C1606.64 1289.84 1601.15 1283.88 1600.44 1282.95C1598.34 1280.11 1596.54 1277.05 1595.07 1273.83V1273.83C1592.03 1266.35 1590.98 1258.17 1588.99 1250.46C1587.24 1240.76 1577.77 1230.95 1575.2 1223.58C1565.15 1200.33 1569.83 1175.2 1572.51 1149.73C1572.57 1149.38 1572.61 1149.03 1572.63 1148.67C1576.95 1118.87 1582.1 1088.26 1604.89 1069.67C1607.53 1067.77 1610.34 1066.13 1613.3 1064.77H1613.65C1617.52 1063.18 1621.56 1062.04 1625.69 1061.38H1625.92C1626.62 1061.26 1626.15 1061.38 1625.8 1061.38C1629.72 1060.91 1633.69 1060.91 1637.61 1061.38C1640.96 1061.89 1644.25 1062.75 1647.42 1063.95C1648.36 1064.3 1647.07 1063.83 1647.07 1063.71C1651.4 1065.53 1655.24 1068.33 1658.29 1071.89C1659.7 1073.69 1660.88 1075.65 1661.8 1077.74C1666.94 1090.13 1668.11 1107.3 1682.36 1112.8C1700.83 1118.87 1711.93 1098.66 1722.1 1087.09C1725.6 1080.08 1745.24 1065.23 1738.46 1058.46C1736.36 1056.47 1732.27 1055.88 1730.28 1058.46C1718.59 1072.13 1708.43 1087.2 1695.45 1099.71C1694.74 1100.31 1693.95 1100.82 1693.12 1101.23L1692.18 1101.58L1690.31 1102.05H1687.62L1685.17 1101.34C1687.27 1101.93 1684.94 1101.23 1684.23 1100.76L1684 1100.53L1682.36 1098.77C1681.29 1097.18 1680.35 1095.5 1679.56 1093.75C1672.55 1063.36 1656.3 1045.25 1623.12 1049.92C1573.1 1058.46 1563.98 1118.17 1559.54 1160.24C1554.63 1190.86 1557.09 1223.12 1575.32 1247.31C1554.75 1260.63 1532.43 1270.91 1509.99 1280.61C1459.62 1301.76 1393.36 1322.1 1339.14 1328.76C1323.36 1330.51 1307.59 1331.56 1291.69 1330.51C1284.21 1330.4 1284.1 1342.2 1291.69 1342.2C1376.07 1344.07 1458.57 1315.44 1535.12 1282.13C1540.49 1278.86 1564.57 1269.04 1578.24 1259.69C1599.98 1354.82 1727.94 1308.19 1784.97 1266.82C1836.16 1229.31 1884.07 1173.21 1885.59 1106.84C1885.82 1079.14 1872.62 1044.78 1843.99 1036.13ZM1613.65 1064.65L1614 1064.42L1613.65 1064.65Z" fill="#452D34"/><path d="M1844.69 1048.52C1845.62 1049.22 1845.27 1048.76 1844.69 1048.52V1048.52Z" fill="#452D34"/><path d="M339.144 1195.07C333.184 1203.01 329.444 1212.6 323.017 1220.31C311.096 1234.33 291.464 1240.06 273.116 1238.42C254.769 1236.79 237.707 1228.84 221.93 1219.38C166.032 1185.45 123.838 1132.96 102.73 1071.08C89.992 1033.1 86.1356 989.623 104.95 954.214C123.765 918.804 170.627 896.834 206.154 915.532C243.433 935.048 251.029 984.481 269.376 1021.64C270.348 1023.78 271.77 1025.68 273.545 1027.21C275.32 1028.74 277.407 1029.88 279.66 1030.53C293.918 1034.62 300.813 1016.03 310.162 1005.52C327.574 986.117 362.399 995.583 376.423 1017.55C390.446 1039.52 389.161 1067.57 385.304 1093.28C382.678 1111.11 378.931 1128.75 374.086 1146.1C369.177 1164.1 364.152 1161.41 348.843 1172.28C347.324 1173.33 340.195 1193.55 339.144 1195.07Z" fill="#D13535"/><path d="M413.936 1207.46C399.053 1198 385.155 1187.08 372.449 1174.85C369.995 1173.33 367.658 1170.18 365.087 1167.49C383.201 1151.36 392.082 1127.29 396.289 1103.68C403.535 1066.52 414.17 1022.81 391.148 989.156C365.438 956.785 323.484 959.005 305.604 994.415C303.468 997.328 300.814 999.824 297.774 1001.78L296.138 1002.24H294.035C292.341 1001.96 290.739 1001.28 289.36 1000.26H289.243C288.211 999.374 287.307 998.352 286.555 997.22C276.622 977.82 270.545 955.85 260.612 934.698C241.68 886.55 191.896 863.879 145.969 892.277C77.254 933.646 92.6799 1029.36 125.518 1089.77C155.669 1152.18 273.116 1271.15 340.312 1199.04C346.038 1191.68 349.661 1183.15 355.037 1175.55L355.738 1174.97C367.775 1189.93 401.899 1213.3 408.093 1217.51C414.286 1221.71 420.48 1211.31 413.936 1207.46ZM330.963 1192.26C328.874 1194.8 326.567 1197.14 324.068 1199.28C320.817 1201.65 317.332 1203.69 313.667 1205.35C308.856 1207.41 303.782 1208.78 298.592 1209.44C269.026 1213.42 236.772 1193.55 211.412 1174.5C174.163 1145.7 144.914 1107.84 126.453 1064.53C114.416 1035.78 105.885 1001.66 110.326 969.056C110.91 962.745 114.65 948.371 117.572 942.06C120.361 935.27 124.014 928.868 128.44 923.012C129.842 920.558 140.827 909.806 143.048 908.521C158.474 896.133 180.327 889.589 196.805 892.043C207.673 893.679 215.035 896.951 223.917 903.612C236.071 912.26 248.224 933.763 253.6 947.553C263.183 967.536 266.922 991.727 281.296 1008.91C302.215 1025.27 316.122 999.206 325.471 986.819C337.507 973.496 357.842 976.067 373.501 987.52C376.369 989.901 378.992 992.564 381.331 995.467C383.78 999.042 385.892 1002.84 387.642 1006.8C394.653 1022.46 394.186 1047.12 391.615 1064.53C388.226 1086.39 383.668 1112.33 376.54 1131.26C371.579 1143.19 363.703 1153.67 353.635 1161.76C350.79 1163.16 348.339 1165.25 346.506 1167.84L345.454 1169.12C340.078 1176.49 336.456 1184.9 330.963 1192.26Z" fill="#452D34"/><path d="M628.028 1305.04C591.801 1289.96 553.002 1274.07 517.944 1259.34C500.297 1251.86 482.651 1244.15 465.472 1235.62C458.928 1231.76 452.968 1241.93 459.512 1245.67C501.349 1266.12 544.939 1282.83 587.828 1300.95L624.99 1316.25C632.119 1318.48 635.391 1307.14 628.028 1305.04Z" fill="#452D34"/><path d="M968.683 1379.36C992.499 1379.36 1011.81 1360.05 1011.81 1336.24C1011.81 1312.42 992.499 1293.12 968.683 1293.12C944.868 1293.12 925.561 1312.42 925.561 1336.24C925.561 1360.05 944.868 1379.36 968.683 1379.36Z" fill="#CE9C5C"/><path d="M968.683 1602.22C992.499 1602.22 1011.81 1582.91 1011.81 1559.1C1011.81 1535.28 992.499 1515.97 968.683 1515.97C944.868 1515.97 925.561 1535.28 925.561 1559.1C925.561 1582.91 944.868 1602.22 968.683 1602.22Z" fill="#CE9C5C"/><path d="M952.79 1381.23C887.581 1380.06 887.581 1283.18 952.79 1282.01C1017.88 1283.18 1017.88 1380.06 952.79 1381.23ZM952.79 1294.87C904.409 1295.69 904.409 1367.56 952.79 1368.38C1001.17 1369.19 1001.05 1295.69 952.79 1294.87Z" fill="#452D34"/><path d="M952.79 1604.09C887.581 1602.92 887.581 1506.04 952.79 1504.87C1017.88 1506.04 1017.88 1602.92 952.79 1604.09ZM952.79 1517.73C904.409 1518.54 904.409 1590.42 952.79 1591.23C1001.17 1592.05 1001.05 1518.54 952.79 1517.73Z" fill="#452D34"/><path d="M1711.81 1206.87L1714.39 1204.65C1718.49 1201.51 1722.96 1198.88 1727.71 1196.82C1733.55 1194.13 1744.42 1191.21 1752.72 1190.16C1761.01 1189.11 1773.28 1188.64 1782.87 1188.41C1790.46 1188.52 1790.46 1176.72 1782.87 1176.72C1760.78 1177.31 1737.87 1178.12 1717.77 1188.64C1712.63 1191.35 1707.84 1194.69 1703.52 1198.57C1698.14 1203.83 1706.44 1212.13 1711.81 1206.87V1206.87Z" fill="#452D34"/><path d="M1701.53 1151.83C1699.85 1152.87 1698.41 1154.27 1697.32 1155.92C1693.23 1161.65 1696.74 1169.71 1703.75 1170.99C1710.76 1172.28 1711.46 1173.21 1710.18 1180.11C1709.87 1181.73 1709.98 1183.4 1710.49 1184.96C1711 1186.53 1711.9 1187.94 1713.1 1189.07C1714.29 1190.2 1715.76 1191.01 1717.35 1191.42C1718.95 1191.84 1720.62 1191.85 1722.22 1191.45C1726.62 1190.14 1730.82 1188.26 1734.72 1185.84C1736.2 1184.93 1737.89 1184.41 1739.63 1184.32C1750.73 1184.08 1779.36 1188.99 1771.06 1155.57C1770.81 1154.74 1770.73 1153.86 1770.83 1153C1770.94 1151.75 1770.8 1150.49 1770.42 1149.3C1770.04 1148.11 1769.42 1147.01 1768.6 1146.06C1767.78 1145.11 1766.78 1144.34 1765.66 1143.78C1764.54 1143.23 1763.32 1142.9 1762.07 1142.83C1759.94 1142.61 1757.94 1141.73 1756.33 1140.33C1754.72 1138.93 1753.58 1137.07 1753.07 1135V1134.77C1752.72 1133.37 1752.07 1132.08 1751.16 1130.97C1750.25 1129.85 1749.11 1128.96 1747.81 1128.34C1746.51 1127.73 1745.1 1127.41 1743.66 1127.41C1742.23 1127.41 1740.81 1127.73 1739.51 1128.34C1725.14 1134.53 1703.63 1130.79 1704.45 1146.8C1704.5 1147.83 1704.25 1148.85 1703.73 1149.74C1703.21 1150.64 1702.45 1151.36 1701.53 1151.83Z" fill="#EFDCC4"/><path d="M1718.12 1185.49L1718.59 1185.72C1718.59 1185.6 1718.36 1185.6 1718.12 1185.49Z" fill="#452D34"/><path d="M1759.03 1134.53C1759.03 1134.47 1759.02 1134.41 1759 1134.35C1758.98 1134.29 1758.95 1134.23 1758.91 1134.18C1758.95 1134.23 1758.98 1134.29 1759 1134.35C1759.02 1134.41 1759.03 1134.47 1759.03 1134.53V1134.53Z" fill="#452D34"/><path d="M1778.31 1163.28C1777.02 1151.83 1776.09 1137.46 1761.48 1136.75C1761.25 1136.75 1759.38 1135.23 1760.2 1135.94C1761.01 1136.64 1759.14 1134.88 1759.03 1134.53C1759.03 1134.3 1758.56 1133.48 1758.91 1134.07C1757.27 1123.08 1742.78 1119.22 1737.17 1122.85C1723.38 1128.34 1697.91 1125.77 1698.49 1146.69C1698.49 1146.57 1698.49 1146.57 1698.61 1146.57C1698.73 1146.57 1698.73 1146.22 1698.61 1146.57H1698.49C1684.47 1154.17 1688.79 1175.67 1704.69 1177.07C1704.72 1177.27 1704.68 1177.48 1704.57 1177.66C1704.69 1177.54 1704.69 1177.42 1704.8 1177.07C1700.95 1199.51 1724.32 1201.15 1738.34 1190.28C1758.44 1190.74 1780.41 1189.34 1778.31 1163.28ZM1764.87 1151.71H1764.99C1764.87 1151.36 1764.87 1150.78 1764.87 1151.71ZM1763 1149.02C1763.58 1149.14 1763.23 1149.14 1763 1149.02V1149.02ZM1761.13 1136.64C1761.01 1136.64 1761.01 1136.64 1761.01 1136.52C1761.01 1136.4 1761.01 1136.64 1761.13 1136.64ZM1747.11 1135.23C1746.99 1135.12 1746.99 1135 1747.11 1135.23V1135.23ZM1747.34 1135.82C1747.22 1135.94 1747.22 1135.7 1747.11 1135.59L1747.34 1135.82ZM1698.73 1146.69C1699.19 1145.99 1698.96 1146.45 1698.73 1146.69V1146.69ZM1725.25 1184.2C1725.72 1184.08 1725.49 1184.08 1725.25 1184.2V1184.2ZM1766.74 1167.61C1766.62 1171.23 1764.99 1174.97 1761.6 1176.49C1761.01 1176.84 1759.14 1177.42 1761.25 1176.72C1751.9 1180.93 1741.03 1175.9 1731.91 1180.69C1728.06 1182.8 1724.08 1185.37 1719.64 1185.84C1719.64 1185.87 1719.66 1185.9 1719.68 1185.92C1719.7 1185.94 1719.73 1185.95 1719.76 1185.95H1718.59C1718.83 1186.07 1717.54 1185.6 1718.12 1185.72L1717.66 1185.49C1717.77 1185.72 1717.42 1185.37 1717.31 1185.25C1716.85 1184.85 1716.46 1184.37 1716.14 1183.85V1183.85C1716.14 1183.62 1716.02 1183.5 1716.14 1183.62C1715.99 1183.33 1715.91 1183.01 1715.9 1182.68V1182.68C1718.12 1171.7 1713.8 1166.9 1703.28 1164.92L1702.58 1164.45H1702.82L1702.47 1163.98C1702.7 1164.57 1702.23 1163.63 1702 1163.63H1702.11C1701.51 1162.7 1701.3 1161.56 1701.53 1160.48C1701.65 1160.24 1702.11 1159.54 1701.65 1160.24C1702.32 1158.95 1703.28 1157.83 1704.45 1156.97C1712.28 1152.88 1707.96 1145.99 1712.28 1141.66L1712.05 1141.9C1720.93 1137.22 1733.67 1137.92 1741.85 1133.72L1742.9 1133.48H1742.78C1743.53 1133.33 1744.3 1133.41 1745 1133.72C1744.42 1133.25 1745.35 1133.95 1745.47 1133.83L1745.7 1134.07H1745.82C1745.59 1133.83 1746.29 1134.53 1746.41 1134.42H1746.29C1748.74 1140.49 1751.9 1146.92 1759.14 1148.32C1760.78 1148.79 1762.65 1148.56 1763.94 1149.84C1765.22 1151.13 1764.52 1150.43 1764.52 1150.66C1764.52 1150.89 1764.64 1150.78 1764.75 1151.01C1765.06 1154.67 1765.61 1158.3 1766.39 1161.88C1766.39 1162.11 1766.51 1162.93 1766.39 1162.46C1766.67 1164.16 1766.79 1165.88 1766.74 1167.61V1167.61Z" fill="#452D34"/><path d="M1719.06 1185.84C1719.29 1185.84 1719.41 1185.95 1719.64 1185.84H1719.06Z" fill="#452D34"/><path d="M1745.47 1133.71H1745C1745.12 1133.71 1745.24 1133.83 1745.47 1133.71Z" fill="#452D34"/><path d="M1746.29 1134.3L1745.82 1133.95C1745.94 1134.07 1746.06 1134.3 1746.29 1134.3Z" fill="#452D34"/><path d="M1764.75 1150.89C1764.75 1150.78 1764.64 1150.66 1764.52 1150.54C1764.4 1150.43 1764.64 1150.78 1764.75 1150.89Z" fill="#452D34"/><path d="M1717.42 1185.13H1717.66L1717.31 1184.9C1717.34 1184.89 1717.37 1184.88 1717.41 1184.89C1717.44 1184.9 1717.47 1184.93 1717.48 1184.96C1717.5 1184.99 1717.5 1185.03 1717.49 1185.06C1717.48 1185.09 1717.45 1185.12 1717.42 1185.13V1185.13Z" fill="#452D34"/><path d="M1715.9 1182.33C1716.02 1182.33 1715.9 1182.1 1715.9 1182.33V1182.33Z" fill="#452D34"/><path d="M1702.82 1164.33L1703.28 1164.68C1703.26 1164.58 1703.2 1164.49 1703.11 1164.43C1703.03 1164.36 1702.92 1164.33 1702.82 1164.33V1164.33Z" fill="#452D34"/><path d="M1716.14 1183.38V1183.62C1716.26 1183.5 1716.14 1183.5 1716.14 1183.38Z" fill="#452D34"/><path d="M1702.11 1163.52L1702.47 1163.87C1702.47 1163.79 1702.35 1163.67 1702.11 1163.52Z" fill="#452D34"/><path d="M1716.96 900.223C1720.23 906.022 1722.93 912.128 1725.02 918.454C1725.29 919.29 1725.38 920.171 1725.29 921.044C1725.2 921.917 1724.94 922.763 1724.51 923.529C1724.08 924.295 1723.5 924.966 1722.81 925.5C1722.11 926.034 1721.31 926.42 1720.46 926.634L1689.26 932.243C1688.8 932.319 1688.32 932.276 1687.88 932.121C1687.44 931.965 1687.04 931.7 1686.73 931.351C1686.41 931.002 1686.19 930.58 1686.08 930.124C1685.97 929.667 1685.98 929.19 1686.1 928.738C1687.84 922.545 1690.4 916.611 1693.7 911.091C1697.67 904.196 1704.45 898.353 1712.28 897.652C1713.27 897.591 1714.25 897.836 1715.09 898.353C1715.85 898.822 1716.49 899.463 1716.96 900.223V900.223Z" fill="#CE9C5C"/><path d="M1730.98 918.103C1727.24 908.754 1724.32 891.926 1711.81 891.809C1694.87 889.121 1664.13 939.489 1691.01 937.853C1703.98 933.529 1732.73 938.087 1730.98 918.103ZM1688.44 926.4C1687.39 926.634 1687.86 926.4 1688.56 926.4H1688.44ZM1691.83 929.906C1691.83 930.724 1691.71 930.257 1691.83 929.906V929.906ZM1719.18 920.908H1719.06L1693.23 925.582C1696.86 916.701 1701.65 905.599 1712.05 903.495C1712.98 905.131 1713.8 906.767 1714.62 908.404C1702.11 910.273 1708.31 924.764 1719.29 919.739C1719.41 919.856 1719.41 920.09 1719.53 920.207C1719.41 919.973 1719.53 919.856 1719.53 920.207C1719.53 920.557 1719.64 919.973 1719.53 920.323C1719.5 920.323 1719.47 920.336 1719.44 920.358C1719.42 920.38 1719.41 920.409 1719.41 920.44H1719.18V920.908ZM1719.64 920.674C1719.61 920.674 1719.58 920.662 1719.56 920.64C1719.54 920.618 1719.53 920.588 1719.53 920.557H1719.64V920.674Z" fill="#452D34"/><path d="M1719.41 920.675C1719.5 920.537 1719.54 920.372 1719.53 920.207C1719.45 920.35 1719.41 920.511 1719.41 920.675V920.675Z" fill="#452D34"/><path d="M1719.06 920.908C1719.18 920.908 1719.29 920.908 1719.29 920.792L1719.06 920.908Z" fill="#452D34"/><path d="M1763.58 1083.46L1764.05 1083L1763.58 1083.46Z" fill="#452D34"/><path d="M1790.58 1087.32L1790.81 1087.91C1790.7 1087.67 1790.58 1087.55 1790.58 1087.32Z" fill="#452D34"/><path d="M1784.04 1079.02L1784.5 1079.49L1784.15 1079.14L1784.04 1079.02Z" fill="#452D34"/><path d="M1837.68 1064.18L1838.26 1064.65C1838.26 1064.62 1838.25 1064.59 1838.23 1064.57C1838.2 1064.54 1838.17 1064.53 1838.14 1064.53L1837.68 1064.18Z" fill="#452D34"/><path d="M1746.87 877.318C1740.45 870.774 1727.82 874.864 1725.84 883.746C1722.1 900.808 1746.99 907.235 1751.66 890.173C1753.07 883.746 1750.5 879.422 1746.87 877.318Z" fill="#452D34"/><path d="M1703.63 872.41C1697.09 865.866 1684.47 869.956 1682.6 878.838C1678.74 895.9 1703.63 902.327 1708.31 885.265C1709.71 878.838 1707.26 874.514 1703.63 872.41Z" fill="#452D34"/><path d="M1822.37 955.032L1822.6 954.682L1822.37 955.032Z" fill="#452D34"/><path d="M1889.91 991.844H1889.8L1889.45 991.61C1889.56 991.61 1889.68 991.844 1889.91 991.844Z" fill="#452D34"/><path d="M1905.34 1001.19L1905.11 1000.84V1000.61C1905.11 1000.55 1905.1 1000.48 1905.08 1000.42C1905.06 1000.36 1905.03 1000.31 1904.99 1000.26C1904.99 1000.23 1905 1000.2 1905.02 1000.18C1905.04 1000.15 1905.07 1000.14 1905.11 1000.14C1905.11 999.206 1904.99 999.557 1904.99 999.908C1906.86 980.392 1882.55 972.562 1865.72 978.171C1865.96 973.73 1867.01 967.42 1866.42 962.278C1879.28 957.019 1888.51 945.566 1885.36 929.206C1894.47 925.933 1895.52 911.793 1889.33 904.547C1883.14 897.302 1878.34 894.848 1870.98 893.212C1861.87 890.991 1846.91 890.173 1842.12 886.901C1814.07 840.273 1752.95 805.798 1700.13 831.742C1669.04 848.336 1653.03 876.851 1648.71 908.521C1647.75 908.776 1646.87 909.257 1646.14 909.923C1633.63 922.194 1623.12 937.62 1618.56 954.682C1614.7 965.55 1623.93 977.937 1633.98 977.236C1636.47 981.788 1640.41 985.377 1645.18 987.431C1649.94 989.485 1655.26 989.886 1660.28 988.572C1668.81 1008.91 1681.43 1027.25 1697.09 1041.04C1715.55 1058.92 1736.94 1069.21 1758.09 1072.36C1751.2 1078.44 1746.76 1087.32 1750.5 1095.27C1754.35 1099.24 1760.43 1095.85 1760.55 1090.83C1760.66 1085.8 1761.48 1086.85 1763.7 1083.46L1763.47 1083.7L1763.7 1083.46C1763.94 1083.23 1764.29 1082.88 1764.17 1083.11C1765.06 1081.99 1766.08 1080.97 1767.21 1080.08H1768.84C1770.59 1083.51 1771.69 1087.23 1772.12 1091.06V1090.48C1772.35 1095.27 1771.65 1102.51 1778.19 1102.63C1788.94 1100.64 1782.87 1084.52 1780.06 1076.69C1781.49 1077.35 1782.86 1078.13 1784.15 1079.02V1079.02C1784.04 1079.02 1784.04 1079.02 1784.04 1078.91C1784.04 1078.79 1784.15 1079.02 1784.27 1079.14L1784.62 1079.49C1787.29 1081.53 1789.38 1084.23 1790.7 1087.32C1790.58 1087.2 1790.58 1087.2 1790.58 1087.09C1790.58 1086.97 1790.7 1087.2 1790.7 1087.32C1790.7 1087.54 1790.79 1087.74 1790.93 1087.91C1791.4 1089.19 1791.76 1090.52 1791.98 1091.88C1791.98 1095.15 1794.09 1098.77 1797.83 1098.54C1801.57 1098.31 1803.9 1095.97 1803.67 1092.7C1803.32 1085.22 1799.23 1077.04 1793.27 1071.43C1798.25 1070.28 1803.13 1068.76 1807.88 1066.87C1806.91 1073.68 1807.43 1080.61 1809.39 1087.2C1813.49 1095.85 1824.35 1090.94 1819.45 1078.91C1819 1075.77 1818.96 1072.59 1819.33 1069.44H1819.45L1820.73 1071.54C1821.31 1081.36 1833.82 1082.65 1833 1072.13C1832.09 1067.94 1830.21 1064.01 1827.51 1060.68C1830.08 1060.56 1831.01 1060.91 1834.4 1062.08L1837.79 1064.07L1838.26 1064.42H1838.38C1841.77 1066.87 1843.4 1073.76 1850.06 1070.61C1858.36 1062.9 1845.97 1053.55 1834.29 1050.04L1837.68 1046.77L1838.26 1046.19L1838.61 1045.72L1840.36 1043.96C1849.36 1036.02 1873.44 1037.07 1888.86 1032.04C1901.72 1029.12 1915.51 1013.81 1905.34 1001.19ZM1893.3 995.584C1893.3 995.467 1893.19 995.467 1893.19 995.35C1893.25 995.41 1893.29 995.494 1893.3 995.584V995.584ZM1873.67 939.957C1873.74 939.689 1873.78 939.415 1873.79 939.139C1873.9 939.256 1873.79 939.49 1873.67 939.957V939.957ZM1881.62 916.701C1881.61 916.5 1881.65 916.3 1881.73 916.117C1881.65 916.301 1881.61 916.5 1881.62 916.701V916.701ZM1629.54 958.655C1629.54 959.006 1629.43 959.59 1629.54 958.655V958.655ZM1629.78 962.979C1629.83 963.089 1629.87 963.207 1629.89 963.33C1629.85 963.282 1629.82 963.227 1629.8 963.166C1629.78 963.106 1629.77 963.042 1629.78 962.979V962.979ZM1645.32 973.38C1645.33 973.47 1645.37 973.554 1645.44 973.613C1645.37 973.554 1645.33 973.47 1645.32 973.38V973.38ZM1655.49 977.704H1652.68C1651.57 977.478 1650.47 977.165 1649.41 976.769C1650.93 977.353 1647.42 975.834 1647.19 975.483C1646.96 975.133 1646.37 974.665 1645.55 973.73C1644.74 972.795 1644.62 972.328 1644.5 971.977C1644.38 971.627 1644.27 971.627 1644.15 971.393C1642.75 963.213 1637.37 962.511 1633.75 965.316H1632.93L1632.11 965.082L1631.06 964.498L1630.36 963.797L1630.01 963.213C1629.97 963.165 1629.94 963.11 1629.92 963.049C1629.9 962.989 1629.89 962.925 1629.89 962.862C1629.4 961.437 1629.28 959.907 1629.54 958.421V958.421C1630.18 955.336 1631.12 952.322 1632.35 949.423C1636.12 940.704 1641.16 932.591 1647.31 925.349C1647.28 943.044 1650.2 960.62 1655.95 977.353L1655.49 977.704ZM1713.68 1039.99C1694.17 1025.03 1678.86 1003.3 1670.21 982.612C1665.17 970.606 1661.71 957.996 1659.93 945.099C1658.88 937.62 1658.29 921.376 1659.93 911.092C1659.93 911.326 1659.81 911.676 1659.81 911.91C1661.91 894.147 1669.63 875.566 1678.63 864.23C1681.78 859.906 1690.43 851.375 1692.42 850.206C1696.51 846.934 1706.67 841.091 1709.01 840.39C1715.27 837.823 1721.83 836.056 1728.53 835.131C1739.74 832.794 1763 836.533 1773.87 841.792C1794.55 850.791 1809.98 863.646 1824.12 881.409C1837.09 905.95 1850.88 899.639 1872.5 905.716C1874.11 906.454 1875.63 907.355 1877.06 908.404C1878.05 909.28 1878.99 910.216 1879.86 911.209H1879.75C1879.86 911.326 1879.86 911.442 1879.98 911.442C1880.1 911.442 1881.15 913.079 1881.15 913.663L1880.91 913.079C1881.23 913.699 1881.43 914.372 1881.5 915.065C1881.53 915.065 1881.56 915.077 1881.58 915.099C1881.6 915.121 1881.62 915.151 1881.62 915.182C1881.56 915.687 1881.56 916.197 1881.62 916.701C1881.52 917.058 1881.4 917.409 1881.27 917.753L1880.91 918.337H1880.8C1874.95 917.402 1871.33 924.297 1873.55 931.192C1873.92 933.903 1874 936.645 1873.79 939.373C1873.79 939.606 1873.67 939.723 1873.67 939.84L1873.2 941.359C1872.54 942.71 1871.75 944 1870.86 945.216L1870.51 945.566C1869.53 946.801 1868.39 947.901 1867.12 948.839C1865.7 949.956 1864.13 950.861 1862.45 951.526H1862.68C1861.15 952.039 1859.59 952.468 1858.01 952.812H1856.26C1847.73 953.396 1837.33 951.643 1834.05 949.306C1833.82 949.306 1832.88 948.137 1832.65 947.904C1828.56 942.411 1819.91 947.436 1822.6 953.747V953.981V954.214H1822.72C1822.6 954.214 1822.6 954.214 1822.6 954.331C1822.48 954.565 1822.48 954.682 1822.37 954.565C1822.25 954.448 1822.25 954.799 1822.25 954.915C1822.11 955.131 1821.91 955.295 1821.67 955.383V955.383L1821.08 955.85H1820.96C1820.14 956.192 1819.28 956.428 1818.39 956.551C1813.6 957.253 1803.55 953.747 1799.58 950.358C1797.46 948.63 1795.51 946.713 1793.74 944.631C1792.35 942.718 1791.14 940.684 1790.11 938.555C1788.71 934.815 1788.24 933.179 1788.59 929.556C1792.8 923.129 1782.87 914.481 1778.08 924.18C1767.79 957.837 1822.72 980.859 1832.3 960.992C1839.19 964.328 1846.9 965.626 1854.5 964.732C1854.97 981.443 1851.7 999.206 1846.32 1012.18C1843.22 1019.28 1839.34 1026.02 1834.75 1032.28C1834.17 1032.98 1833.59 1033.8 1832.88 1034.5C1831.52 1035.64 1830.34 1036.98 1829.38 1038.47C1826.67 1041.5 1823.65 1044.24 1820.38 1046.65C1813.37 1052.96 1794.09 1060.79 1785.44 1061.26C1769.66 1063.71 1751.55 1059.86 1739.51 1054.72C1731.1 1051.79 1718.48 1043.85 1713.68 1039.99V1039.99ZM1893.19 1017.09C1882.9 1024.33 1867.71 1023.98 1854.27 1026.67L1852.52 1026.9C1858.48 1016.04 1862.47 1004.21 1864.32 991.961C1864.44 991.961 1864.44 991.961 1864.44 991.844C1870.75 987.053 1880.8 987.52 1886.17 989.624L1886.87 989.974L1889.45 991.493C1889.33 991.377 1889.45 991.377 1889.68 991.61H1889.91L1892.37 993.948C1892.71 994.396 1893.02 994.865 1893.3 995.35L1893.54 996.168V996.752V997.103C1892.37 1000.84 1895.41 1007.27 1896.46 1008.2C1896.66 1008.49 1896.82 1008.81 1896.92 1009.14C1896.92 1009.37 1897.16 1009.72 1897.16 1009.84C1897.16 1009.96 1897.28 1010.31 1897.28 1010.54C1897.28 1010.78 1897.04 1011.94 1896.92 1012.06V1012.41L1895.87 1014.16C1895.09 1015.24 1894.19 1016.22 1893.19 1017.09V1017.09ZM1896.81 1012.88C1896.93 1012.65 1896.93 1012.41 1897.04 1012.41L1896.81 1012.88Z" fill="#452D34"/><path d="M1782.01 1042.45C1797.58 1026.62 1792.46 996.362 1770.6 974.874C1748.73 953.386 1718.39 948.804 1702.83 964.64C1687.27 980.476 1692.38 1010.73 1714.24 1032.22C1736.11 1053.71 1766.45 1058.29 1782.01 1042.45Z" fill="#D13535"/><path d="M579.063 1090.83C576.596 1097.02 574.756 1103.44 573.57 1109.99C573.422 1110.87 573.454 1111.77 573.665 1112.63C573.876 1113.5 574.261 1114.31 574.797 1115.02C575.333 1115.73 576.009 1116.33 576.782 1116.77C577.556 1117.21 578.412 1117.49 579.297 1117.59L610.85 1118.76C611.311 1118.79 611.775 1118.71 612.196 1118.52C612.617 1118.32 612.98 1118.02 613.25 1117.65C613.521 1117.27 613.689 1116.83 613.74 1116.37C613.79 1115.91 613.72 1115.44 613.537 1115.02C610.99 1109.06 607.649 1103.48 603.604 1098.42C598.696 1092.23 591.217 1087.44 583.387 1087.79C582.891 1087.78 582.399 1087.86 581.937 1088.04C581.476 1088.22 581.055 1088.5 580.699 1088.84C579.974 1089.33 579.406 1090.02 579.063 1090.83V1090.83Z" fill="#CE9C5C"/><path d="M579.297 1111.04V1111.28C579.414 1111.28 579.297 1111.16 579.297 1111.04Z" fill="#452D34"/><path d="M617.978 1110.58C612.953 1100.41 606.175 1089.89 595.657 1084.63C588.529 1081.24 576.492 1079.61 573.454 1089.31C564.338 1111.28 564.104 1126.24 592.619 1123.9C602.786 1124.37 625.808 1128.34 617.978 1110.58ZM579.297 1111.04V1110.81C579.312 1110.81 579.327 1110.81 579.341 1110.82C579.356 1110.82 579.368 1110.83 579.379 1110.84C579.39 1110.86 579.399 1110.87 579.405 1110.88C579.41 1110.9 579.413 1110.91 579.413 1110.93L579.297 1111.04ZM579.297 1111.04C579.297 1111.07 579.284 1111.1 579.262 1111.13C579.24 1111.15 579.211 1111.16 579.18 1111.16C579.063 1110.93 579.18 1110.93 579.297 1111.04V1111.04ZM579.998 1111.75H579.881C579.881 1111.75 579.414 1111.63 579.297 1111.28V1110.93C579.376 1110.78 579.416 1110.62 579.413 1110.46C582.803 1111.04 586.542 1110.46 588.646 1108.82C590.749 1107.19 589.581 1098.66 584.555 1098.77H582.452C583.036 1097.02 583.621 1095.27 584.322 1093.4H585.841C595.541 1094.92 601.501 1104.62 606.058 1112.56L579.998 1111.75ZM610.733 1112.91C610.966 1112.91 610.85 1113.03 610.733 1112.91V1112.91Z" fill="#452D34"/><path d="M548.912 1069.91L547.51 1071.19C546.046 1072.04 544.867 1073.3 544.121 1074.82C537.81 1084.63 549.497 1097.6 560.014 1093.51C577.777 1086.74 565.507 1059.97 548.912 1069.91Z" fill="#452D34"/><path d="M591.217 1059.16L589.814 1060.44C588.327 1061.26 587.14 1062.53 586.425 1064.06C580.115 1073.88 591.801 1086.85 602.319 1082.76C620.082 1075.98 607.811 1049.22 591.217 1059.16Z" fill="#452D34"/><path d="M676.293 1117.24C672.553 1112.21 658.296 1092.81 648.596 1090.24C623.471 1001.31 506.374 982.495 454.253 1093.87C453.723 1094.47 453.136 1095.01 452.5 1095.5C439.996 1102.86 415.922 1102.63 408.326 1119.81C403.768 1127.76 407.625 1140.61 416.273 1142.71C415.455 1159.54 426.44 1169.59 439.996 1172.86C440.697 1178.24 441.398 1183.38 442.45 1188.29C424.687 1184.9 401.197 1197.99 406.456 1215.17C406.573 1215.29 406.573 1215.4 406.456 1215.64C406.492 1215.84 406.45 1216.05 406.339 1216.22C399.094 1226.39 408.794 1240.88 421.532 1243.8C438.243 1249.06 463.018 1243.92 474.704 1249.18L479.028 1252.92H479.145L482.651 1255.6C474.47 1258.99 467.459 1265.77 467.225 1274.3C468.277 1278.98 475.756 1280.14 477.976 1275.7C480.197 1271.26 480.08 1271.5 483.235 1268.58C484.518 1267.73 485.844 1266.95 487.209 1266.24C487.178 1266.24 487.148 1266.25 487.126 1266.27C487.104 1266.29 487.092 1266.32 487.092 1266.35C487.092 1266.32 487.104 1266.29 487.126 1266.27C487.148 1266.25 487.178 1266.24 487.209 1266.24H487.325C488.027 1266 487.676 1266.24 487.325 1266.35C488.841 1265.78 490.406 1265.35 492 1265.07C488.143 1270.21 485.923 1276.99 489.429 1282.13C492.935 1287.27 500.18 1281.9 499.479 1276.29C499.713 1275.59 499.83 1274.89 500.063 1274.18C500.381 1273.7 500.654 1273.19 500.881 1272.67C501.232 1274.07 501.583 1275.59 501.816 1277.11C502.186 1280.33 502.147 1283.59 501.7 1286.81C499.713 1291.95 509.529 1298.38 513.035 1289.61C514.121 1282.67 513.722 1275.58 511.867 1268.81C516.895 1269.98 522.019 1270.68 527.176 1270.91C521.894 1276.94 519.133 1284.76 519.463 1292.77C519.696 1295.8 522.034 1298.73 525.306 1298.61C530.798 1298.49 531.5 1293.12 531.266 1288.79C531.53 1287.16 531.961 1285.55 532.551 1284C533.314 1282.37 534.213 1280.81 535.239 1279.33H535.356C536.405 1278.04 537.579 1276.87 538.862 1275.82L540.615 1274.65C538.791 1281.47 538.472 1288.61 539.68 1295.57C541.9 1303.4 553.587 1299.19 550.899 1291.71C550.646 1290.09 550.568 1288.45 550.665 1286.81C550.626 1285.28 550.705 1283.76 550.899 1282.25V1282.01C551.229 1280.16 551.658 1278.33 552.184 1276.52L554.171 1276.05C557.411 1277.9 559.987 1280.72 561.533 1284.12V1284.12C562.234 1288.09 565.039 1292.3 569.597 1290.9C571.063 1290.46 572.306 1289.48 573.067 1288.15C573.829 1286.82 574.051 1285.25 573.687 1283.77C571.857 1276.72 567.432 1270.63 561.3 1266.71C598.696 1255.49 633.521 1222.65 647.077 1171.93L647.427 1170.88C657.828 1172.4 668.229 1165.74 671.852 1155.92C675.216 1155.57 678.376 1154.14 680.85 1151.83C691.134 1141.78 683.071 1126.82 676.293 1117.24ZM419.428 1131.61L419.194 1131.38L419.428 1131.61ZM418.026 1129.04C418.143 1129.16 418.143 1129.27 418.143 1129.51C418.16 1129.34 418.119 1129.18 418.026 1129.04V1129.04ZM419.896 1142.83L421.648 1142.6C421.388 1142.75 421.098 1142.86 420.796 1142.9C420.495 1142.94 420.188 1142.91 419.896 1142.83V1142.83ZM416.039 1226.74C415.854 1226.29 415.735 1225.82 415.688 1225.34C415.688 1224.99 415.572 1224.75 415.572 1224.4V1224.17C415.684 1223.95 415.763 1223.71 415.805 1223.47C417.909 1219.84 419.078 1215.4 417.441 1211.43C417.325 1211.31 417.325 1210.96 417.325 1210.84V1210.03L417.675 1209.09C417.909 1208.74 418.61 1207.34 418.844 1207.11C419.077 1206.87 418.844 1206.99 418.961 1206.87C419.697 1205.9 420.562 1205.04 421.532 1204.3C421.415 1204.3 421.415 1204.18 421.765 1204.07H421.999C422.752 1203.56 423.532 1203.09 424.336 1202.66L425.856 1201.85C431.568 1199.37 438.019 1199.2 443.852 1201.38C444.528 1202.03 445.321 1202.55 446.19 1202.9C449.634 1214.45 454.965 1225.34 461.966 1235.15C443.151 1233.4 422.35 1237.49 416.039 1226.74V1226.74ZM483.001 1268.81L483.235 1268.58C483.118 1268.69 483.118 1268.81 483.001 1268.81V1268.81ZM589.113 1239.83C586.191 1242.63 569.831 1252.21 566.442 1253.15C552.535 1259.34 535.59 1261.21 523.903 1259.58C518.528 1259.11 507.192 1255.6 504.972 1254.55C499.83 1252.68 490.013 1246.49 488.027 1244.73L487.092 1244.03C486.12 1243.05 485.064 1242.15 483.936 1241.35C480.105 1237.85 476.549 1234.06 473.302 1230.01C461.031 1213.88 455.071 1197.41 452.033 1177.07C451.852 1176.03 451.773 1174.97 451.799 1173.92C459.407 1173.72 466.81 1171.41 473.185 1167.25C479.145 1173.68 492.234 1174.03 500.18 1169.01C505.311 1166.63 509.917 1163.26 513.729 1159.09C517.542 1154.92 520.484 1150.02 522.384 1144.7C531.5 1117.82 507.659 1113.03 511.399 1128.57C511.729 1128.93 511.934 1129.38 511.983 1129.86C512.231 1130.46 512.427 1131.09 512.568 1131.73C513.152 1141.19 508.828 1148.44 500.881 1155.1C498.838 1156.61 496.645 1157.9 494.337 1158.96C492.308 1159.81 490.192 1160.44 488.027 1160.83H484.638L483.235 1160.36L482.651 1160.01L482.183 1159.66L481.833 1159.19V1158.84C481.833 1158.72 481.95 1158.72 481.95 1158.61C483.936 1151.48 473.185 1148.32 470.614 1155.1H470.38L469.562 1155.92C469.562 1156.04 469.329 1156.15 469.212 1156.27C465.823 1158.84 458.227 1160.83 451.682 1162H450.747C448.684 1162.11 446.617 1162.11 444.554 1162L440.463 1161.06L439.178 1160.59C435.555 1159.31 432.049 1155.69 431.114 1154.52C430.179 1153.35 430.063 1152.88 429.478 1152.06C429.098 1150.79 428.786 1149.51 428.543 1148.21C428.543 1140.03 428.66 1129.16 419.078 1131.03C419.016 1131.03 418.956 1131 418.912 1130.96C418.868 1130.92 418.844 1130.86 418.844 1130.79L418.61 1130.33C418.579 1130.33 418.549 1130.31 418.527 1130.29C418.506 1130.27 418.493 1130.24 418.493 1130.21C418.371 1129.69 418.215 1129.19 418.026 1128.69C418.007 1128.22 418.046 1127.75 418.143 1127.29C418.282 1126.5 418.477 1125.71 418.727 1124.95C418.493 1125.18 418.61 1125.18 418.727 1124.95C418.844 1124.72 418.844 1124.72 418.844 1124.6C418.844 1124.48 419.896 1122.85 420.129 1122.61L420.363 1122.26C421.381 1120.95 422.558 1119.77 423.869 1118.76C423.635 1118.87 423.518 1118.87 423.518 1118.99C424.46 1118.36 425.436 1117.77 426.44 1117.24L427.842 1116.65C472.25 1103.92 456.824 1104.38 481.365 1070.49C487.83 1062.21 495.287 1054.75 503.569 1048.29C507.893 1044.78 519.346 1037.42 527.059 1034.5C543.536 1026.67 571.35 1025.73 587.711 1033.45C593.639 1036.14 599.277 1039.43 604.539 1043.26C610.07 1047.67 615.088 1052.69 619.497 1058.22C631.417 1073.18 638.312 1093.98 640.416 1110.23C643.805 1136.99 640.065 1160.94 629.781 1185.84C621.718 1205 607.46 1225.8 589.113 1239.83V1239.83ZM481.716 1158.72C481.599 1158.61 481.716 1158.61 481.716 1158.72V1158.72ZM481.716 1159.31V1159.43V1159.31ZM481.599 1158.96V1158.72C481.606 1158.81 481.648 1158.9 481.716 1158.96H481.599ZM511.983 1129.63V1129.39C512.01 1129.47 512.01 1129.55 511.983 1129.63V1129.63ZM673.838 1141.9C673.605 1142.48 673.722 1142.01 673.838 1141.66C673.669 1142.03 673.473 1142.38 673.254 1142.71C673.02 1142.95 672.787 1143.3 672.553 1143.41L671.384 1144H670.683C665.191 1140.14 660.633 1146.69 661.334 1149.37C661.241 1150.5 660.965 1151.61 660.516 1152.65C659.685 1154.3 658.533 1155.77 657.127 1156.97L655.024 1158.26C654.045 1158.64 653.025 1158.92 651.985 1159.07H650.115C653.695 1141.94 654.367 1124.32 652.102 1106.95C662.269 1116.3 671.384 1128.46 674.072 1138.39V1140.49C673.955 1140.73 673.955 1141.31 673.838 1141.55V1141.9Z" fill="#452D34"/><path d="M670.684 1144.12H670.8C670.8 1144.15 670.813 1144.18 670.835 1144.2C670.857 1144.22 670.886 1144.23 670.917 1144.23C670.948 1144.23 670.978 1144.22 671 1144.2C671.022 1144.18 671.034 1144.15 671.034 1144.12H670.684V1144.12Z" fill="#452D34"/><path d="M421.999 1203.72H421.883L421.532 1204.07L421.999 1203.72Z" fill="#452D34"/><path d="M599.626 1222.66C618.374 1198.41 619.331 1167.74 601.764 1154.16C584.197 1140.58 554.758 1149.24 536.01 1173.5C517.262 1197.75 516.305 1228.42 533.872 1242C551.439 1255.58 580.878 1246.92 599.626 1222.66Z" fill="#D13535"/><path d="M874.025 431.486C887.23 472.973 917.965 501.487 956.53 504.292C998.484 507.33 1036.7 476.946 1054.23 431.486" fill="white"/><path d="M962.373 330.401C961.341 336.969 960.949 343.623 961.204 350.267C961.262 351.149 961.498 352.01 961.898 352.798C962.297 353.586 962.852 354.285 963.529 354.853C964.206 355.421 964.991 355.846 965.837 356.102C966.683 356.358 967.572 356.441 968.45 356.344L999.535 350.501C999.987 350.408 1000.41 350.205 1000.76 349.909C1001.12 349.614 1001.39 349.236 1001.57 348.808C1001.74 348.38 1001.81 347.916 1001.76 347.457C1001.71 346.999 1001.55 346.559 1001.29 346.177C997.488 340.93 992.963 336.248 987.849 332.27C981.772 327.245 973.358 324.324 965.762 326.427C964.812 326.674 963.982 327.255 963.425 328.063V328.063C962.826 328.705 962.456 329.527 962.373 330.401V330.401Z" fill="#CE9C5C"/><path d="M938.767 297.445L937.832 298.146C934.793 299.198 932.339 301.769 931.404 306.209C929.535 314.974 938.066 323.973 946.947 322.103C965.996 317.779 956.647 288.914 938.767 297.445Z" fill="#452D34"/><path d="M982.357 296.159L981.422 296.86C978.5 297.912 975.929 300.483 974.994 304.924C973.124 313.688 981.655 322.687 990.537 320.817C1009.59 316.493 1000.24 287.628 982.357 296.159Z" fill="#452D34"/><path d="M1119.79 357.279C1129.14 339.866 1102.61 328.414 1088.12 336.594C1080.99 339.516 1074.33 343.606 1067.32 346.761C1066.61 343.022 1065.68 339.165 1064.63 335.426C1032.49 220.082 900.669 227.094 867.714 337.996C866.779 341.035 865.961 344.19 865.26 347.346C856.261 343.372 841.537 332.738 829.149 334.023C816.762 335.309 804.959 346.995 811.62 357.396C789.416 378.08 809.633 409.984 835.343 414.775C835.109 423.189 843.173 432.188 851.821 434.291C857.315 436.477 863.209 437.472 869.116 437.213C880.335 469.233 901.721 492.957 928.132 503.942C921.12 509.201 915.978 517.381 917.848 525.561C920.069 529.885 927.548 529.067 928.483 524.159C928.716 522.873 929.184 521.705 929.534 520.419C932.339 515.044 933.741 513.641 939.468 510.837H939.701C937.912 515.247 937.504 520.096 938.533 524.743C940.987 532.69 952.439 528.015 949.635 520.536V518.082C949.752 517.498 949.985 516.914 950.102 516.329C950.678 517.265 951.186 518.242 951.621 519.251C952.274 521.048 952.82 522.882 953.258 524.743C953.5 525.668 953.695 526.604 953.842 527.548C952.907 536.313 964.827 539.001 965.762 529.768C965.272 523.21 963.484 516.815 960.503 510.953H962.373C966.48 510.933 970.581 510.62 974.643 510.019C971.415 516.8 970.75 524.522 972.774 531.755C973.709 534.677 976.981 536.897 980.019 535.845C983.058 534.793 984.81 529.652 983.408 525.795C983.233 524.242 983.233 522.674 983.408 521.121C983.408 520.887 983.525 520.536 983.525 520.419C984.694 515.394 985.745 512.706 988.901 509.668C988.784 514.576 989.836 520.887 992.64 528.6C995.445 536.313 1006.08 532.69 1003.86 525.561C1001.41 520.302 1000.7 512.94 1000.94 508.382C1001.6 508.209 1002.23 507.933 1002.81 507.564L1005.03 508.382C1007.01 509.2 1011.69 512.356 1013.32 516.446C1016.95 522.99 1027.23 517.03 1023.38 510.486C1020.38 504.596 1015.36 499.988 1009.23 497.514C1012.39 495.644 1015.43 493.541 1018.47 491.321C1035.88 478.115 1049.79 459.417 1059.02 436.979C1065.3 437.828 1071.7 437.228 1077.72 435.226C1087.07 433.357 1096.65 423.891 1096.41 415.009C1121.89 409.984 1142.46 377.73 1119.79 357.279ZM1117.22 373.406C1117.22 373.172 1117.1 373.055 1117.1 372.938C1117.1 372.822 1117.22 373.172 1117.22 373.406ZM1109.97 350.267L1109.74 349.917C1109.8 349.953 1109.85 350.003 1109.9 350.064C1109.94 350.125 1109.96 350.194 1109.97 350.267V350.267ZM822.605 348.631L822.371 348.982L822.605 348.631ZM814.775 360.668H815.009C815.71 361.252 815.359 361.135 814.775 360.668V360.668ZM814.425 355.058L814.074 355.292L814.425 355.058ZM938.182 511.304L939.117 510.953L938.182 511.304ZM1084.61 414.892L1084.85 415.126L1084.61 414.892ZM1084.14 414.308C1084.21 414.368 1084.25 414.452 1084.26 414.542C1084.25 414.452 1084.21 414.368 1084.14 414.308V414.308ZM1117.8 380.885C1117.46 382.669 1116.99 384.426 1116.4 386.144V386.378C1113.24 394.324 1103.19 399.7 1096.3 402.972C1094.97 403.485 1093.6 403.876 1092.21 404.141H1090.1C1083.44 400.986 1077.83 410.568 1084.26 414.425H1084.49V414.658H1084.61C1084.61 414.822 1084.65 414.983 1084.73 415.126V415.126V415.827C1084.73 415.944 1084.61 416.061 1084.61 416.178C1084.53 416.321 1084.49 416.482 1084.49 416.645V416.645C1083.44 419.216 1078.3 422.021 1076.43 422.839C1071.31 424.874 1065.78 425.636 1060.3 425.059C1057.61 424.703 1054.98 423.996 1052.47 422.956C1050.41 422.096 1048.44 420.998 1046.63 419.684H1046.75C1045.72 418.847 1044.75 417.949 1043.83 416.996C1043.37 416.376 1042.98 415.71 1042.66 415.009C1042.54 415.009 1042.42 414.775 1042.42 414.658H1042.31C1041.49 406.361 1028.63 408.114 1030.62 416.411C1032.61 424.709 1039.15 429.968 1046.51 433.24C1028.87 474.609 993.342 500.319 956.997 497.631C923.224 495.177 895.527 471.688 881.971 434.525C883.894 433.788 885.767 432.929 887.581 431.954C912.706 417.697 895.41 399.349 889.334 414.542C888.834 415.527 888.248 416.466 887.581 417.346C885.15 419.837 882.251 421.823 879.05 423.19C877.328 423.943 875.524 424.492 873.674 424.826H872.388C864.442 425.877 854.976 424.008 849.951 419.917C849.232 419.315 848.567 418.65 847.964 417.931V417.931C847.649 417.49 847.375 417.02 847.146 416.528C847.029 416.295 847.029 416.061 846.912 415.827V415.126C846.98 415.066 847.022 414.982 847.029 414.892L847.38 414.191C853.457 411.503 849.133 400.518 841.887 403.907H839.667C838.225 403.62 836.816 403.189 835.46 402.622C830.435 400.284 822.137 395.96 817.93 390.468C816.894 389.099 816.031 387.607 815.359 386.027C815.292 385.967 815.25 385.883 815.243 385.793C814.73 384.468 814.339 383.099 814.074 381.703C813.957 381.469 813.957 380.768 813.84 380.651C813.606 377.146 813.49 375.393 814.541 372.588C815.593 369.783 822.371 364.758 824.825 359.382C826.111 356.344 823.54 352.02 821.553 350.851V351.085L821.904 350.15C822.083 349.851 822.239 349.538 822.371 349.215V349.215C823.657 347.93 823.54 347.696 825.41 346.878H825.527C829.149 345.709 829.85 345.709 833.824 345.943C835.8 346.336 837.723 346.963 839.55 347.813C894.125 377.964 861.988 347.696 900.319 299.782C907.915 289.031 926.379 273.839 938.65 269.281C945.221 266.491 952.14 264.604 959.218 263.672C965.664 262.96 972.17 262.96 978.617 263.672H978.734L985.395 264.957C989.497 265.942 993.521 267.231 997.432 268.814C1004.06 271.694 1010.3 275.384 1016.01 279.799C1022.43 284.957 1028.24 290.839 1033.31 297.328C1041.26 307.495 1049.55 323.973 1053.29 338.23C1056.33 349.449 1056.21 366.745 1073.04 357.162C1081.34 353.422 1089.17 348.28 1096.53 346.294C1098.52 345.837 1100.58 345.719 1102.61 345.943C1103.8 346.145 1104.98 346.458 1106.11 346.878L1107.98 347.93L1108.22 348.164L1109.15 349.215H1109.27C1109.38 349.51 1109.54 349.786 1109.74 350.033C1109.74 350.15 1109.85 350.267 1109.85 350.384C1109.88 350.632 1109.96 350.872 1110.09 351.085V351.085V351.319C1101.56 357.279 1110.91 365.693 1114.53 369.316C1115.53 370.539 1116.4 371.872 1117.1 373.289C1117.22 373.523 1117.22 373.64 1117.33 373.64C1117.44 374.351 1117.6 375.054 1117.8 375.743C1117.91 377.455 1117.91 379.173 1117.8 380.885V380.885Z" fill="#452D34"/><path d="M1046.63 420.034C1045.93 419.333 1046.4 419.917 1046.63 420.034V420.034Z" fill="#452D34"/><path d="M1007.37 345.592C1000.12 330.4 969.034 306.794 956.997 327.946C952.557 352.37 953.959 368.614 983.408 359.499C991.822 356.811 1009.59 358.798 1007.37 345.592ZM967.398 350.618C967.515 350.618 967.515 350.618 967.515 350.734L967.398 350.618ZM967.866 350.501C967.747 350.535 967.623 350.543 967.502 350.522C967.38 350.502 967.265 350.455 967.164 350.384C967.164 349.916 967.048 349.916 967.048 350.15V349.449C978.266 349.332 980.604 336.828 969.151 337.061L967.515 337.529H967.398C967.515 335.659 967.749 333.789 967.982 331.919C968.333 331.803 970.553 331.452 968.917 331.803C969.735 331.335 972.657 331.803 973.475 331.803C981.772 333.439 987.966 339.866 993.575 345.826L967.866 350.501ZM996.263 349.215C996.38 349.332 996.38 349.449 996.497 349.449L996.263 349.215Z" fill="#452D34"/><path d="M1013.34 431.174C1015.59 400.599 997.368 374.342 972.651 372.527C947.933 370.712 926.076 394.026 923.83 424.601C921.585 455.176 939.802 481.433 964.52 483.249C989.237 485.064 1011.09 461.749 1013.34 431.174Z" fill="#D13535"/><path d="M1633.98 659.836C1617.27 659.953 1614.93 642.307 1612.95 629.569L1603.37 641.723C1589.23 659.369 1561.53 639.97 1573.1 620.687C1547.04 624.778 1537.22 584.109 1578.47 582.123C1565.5 575.578 1550.78 566.463 1559.54 549.869C1570.06 533.391 1585.49 542.74 1597.99 550.687C1594.48 536.546 1590.98 518.549 1609.79 514.225C1628.61 509.901 1632.23 529.534 1634.22 544.025L1643.92 531.989C1659.11 513.174 1687.62 536.196 1672.67 555.011L1664.13 565.762C1696.97 554.076 1708.31 590.771 1682.6 599.769C1700.95 613.325 1682.13 641.956 1662.38 630.504L1649.29 622.908C1653.38 638.801 1655.72 658.084 1633.98 659.836ZM1615.64 614.143C1616.73 614.154 1617.78 614.545 1618.61 615.249C1619.44 615.953 1620 616.926 1620.19 618L1624.99 643.008C1627.09 654.695 1645.32 651.306 1642.98 639.619L1638.19 614.727C1638.03 613.854 1638.12 612.953 1638.46 612.131C1638.79 611.308 1639.36 610.598 1640.08 610.083C1640.8 609.568 1641.66 609.27 1642.54 609.223C1643.43 609.176 1644.31 609.383 1645.09 609.819C1649.88 611.572 1668.57 626.063 1674.07 623.375C1681.78 621.622 1683.18 610.404 1676.29 606.664L1667.41 601.522C1663.67 599.535 1664.72 593.575 1668.81 592.991L1679.79 590.887C1691.48 588.784 1688.09 570.436 1676.4 572.891L1653.5 577.214C1649.41 578.149 1646.25 573.007 1648.94 569.735C1651.63 566.463 1669.16 548.349 1667.41 542.506C1666.82 534.676 1655.84 531.521 1651.16 537.832L1635.15 557.698C1634.59 558.377 1633.86 558.885 1633.02 559.163C1632.19 559.441 1631.29 559.479 1630.44 559.272C1629.58 559.064 1628.81 558.62 1628.19 557.99C1627.58 557.361 1627.16 556.571 1626.97 555.712C1624.05 547.999 1625.69 520.302 1611.55 523.341C1597.41 526.379 1608.86 550.803 1608.97 558.984C1607.34 578.5 1576.49 536.897 1567.61 554.543C1556.74 571.138 1611.2 578.5 1592.5 588.901C1587.82 590.654 1563.87 591.939 1561.53 597.549C1556.85 603.976 1563.05 613.325 1570.76 611.689L1583.5 609.235C1587.59 608.3 1590.74 613.559 1587.94 616.714L1581.75 624.427C1574.27 633.542 1588.76 645.346 1596.12 635.88C1598.46 634.01 1612.13 613.091 1615.64 614.143Z" fill="#D13535"/><path d="M1313.66 212.135C1312.42 212.135 1311.23 211.642 1310.36 210.766C1309.48 209.889 1308.99 208.7 1308.99 207.46V96.6745C1308.99 95.4348 1309.48 94.2458 1310.36 93.3691C1311.23 92.4925 1312.42 92 1313.66 92C1314.9 92 1316.09 92.4925 1316.97 93.3691C1317.84 94.2458 1318.34 95.4348 1318.34 96.6745V207.46C1318.34 208.7 1317.84 209.889 1316.97 210.766C1316.09 211.642 1314.9 212.135 1313.66 212.135Z" fill="#EFDCC4"/><path d="M1274.05 204.305C1272.95 204.297 1271.88 203.927 1271.01 203.253C1270.09 202.442 1269.52 201.301 1269.43 200.077C1269.35 198.852 1269.74 197.643 1270.54 196.709L1349.66 102.284C1350.46 101.339 1351.61 100.752 1352.85 100.653C1354.09 100.555 1355.31 100.952 1356.26 101.758C1357.2 102.564 1357.79 103.712 1357.89 104.95C1357.99 106.189 1357.59 107.415 1356.79 108.361L1277.67 202.669C1277.21 203.174 1276.65 203.579 1276.03 203.861C1275.4 204.142 1274.73 204.293 1274.05 204.305V204.305Z" fill="#EFDCC4"/><path d="M1357.14 200.682C1356.52 200.68 1355.92 200.555 1355.36 200.314C1354.79 200.073 1354.29 199.721 1353.86 199.28L1266.8 112.217C1265.94 111.343 1265.46 110.168 1265.46 108.945C1265.46 107.721 1265.94 106.546 1266.8 105.673C1267.23 105.234 1267.73 104.886 1268.3 104.648C1268.86 104.41 1269.46 104.288 1270.07 104.288C1270.68 104.288 1271.29 104.41 1271.85 104.648C1272.41 104.886 1272.92 105.234 1273.34 105.673L1360.52 192.735C1361.38 193.609 1361.86 194.784 1361.86 196.008C1361.86 197.231 1361.38 198.406 1360.52 199.28C1360.08 199.73 1359.56 200.086 1358.97 200.327C1358.39 200.568 1357.77 200.689 1357.14 200.682V200.682Z" fill="#EFDCC4"/><path d="M1368.94 156.742H1258.27C1257.03 156.742 1255.84 156.249 1254.96 155.373C1254.09 154.496 1253.6 153.307 1253.6 152.067C1253.6 150.828 1254.09 149.639 1254.96 148.762C1255.84 147.885 1257.03 147.393 1258.27 147.393H1368.94C1370.18 147.393 1371.37 147.885 1372.24 148.762C1373.12 149.639 1373.61 150.828 1373.61 152.067C1373.61 153.307 1373.12 154.496 1372.24 155.373C1371.37 156.249 1370.18 156.742 1368.94 156.742Z" fill="#EFDCC4"/><path d="M434.971 560.854C433.732 560.854 432.543 560.361 431.666 559.484C430.789 558.608 430.297 557.419 430.297 556.179V445.51C430.297 444.27 430.789 443.081 431.666 442.205C432.543 441.328 433.732 440.835 434.971 440.835C435.58 440.835 436.182 440.957 436.743 441.193C437.304 441.43 437.811 441.776 438.236 442.211C438.661 442.647 438.994 443.163 439.216 443.73C439.438 444.296 439.545 444.902 439.529 445.51V556.179C439.545 556.787 439.438 557.393 439.216 557.959C438.994 558.526 438.661 559.042 438.236 559.478C437.811 559.913 437.304 560.259 436.743 560.496C436.182 560.732 435.58 560.854 434.971 560.854V560.854Z" fill="#CE9C5C"/><path d="M395.355 553.141C394.233 553.139 393.151 552.723 392.316 551.973C391.378 551.178 390.79 550.045 390.68 548.82C390.571 547.595 390.949 546.377 391.732 545.428L470.965 451.12C471.796 450.324 472.891 449.863 474.041 449.824C475.19 449.785 476.314 450.172 477.197 450.91C478.079 451.647 478.659 452.685 478.824 453.823C478.99 454.962 478.73 456.121 478.094 457.08L398.861 551.388C398.449 551.929 397.919 552.368 397.312 552.672C396.704 552.976 396.034 553.137 395.355 553.141V553.141Z" fill="#CE9C5C"/><path d="M478.444 549.518C477.833 549.516 477.228 549.39 476.665 549.149C476.103 548.908 475.595 548.557 475.172 548.115L388.109 461.053C387.667 460.618 387.317 460.099 387.077 459.527C386.838 458.956 386.715 458.342 386.715 457.722C386.715 457.102 386.838 456.488 387.077 455.917C387.317 455.345 387.667 454.826 388.109 454.391C388.983 453.535 390.158 453.055 391.381 453.055C392.605 453.055 393.78 453.535 394.653 454.391L481.716 541.571C482.155 541.996 482.503 542.505 482.741 543.067C482.979 543.629 483.101 544.233 483.101 544.843C483.101 545.454 482.979 546.058 482.741 546.62C482.503 547.182 482.155 547.691 481.716 548.115C481.297 548.562 480.79 548.917 480.227 549.159C479.664 549.4 479.057 549.522 478.444 549.518Z" fill="#CE9C5C"/><path d="M490.247 505.461H379.578C378.97 505.476 378.365 505.37 377.798 505.148C377.232 504.926 376.715 504.593 376.28 504.168C375.844 503.743 375.498 503.235 375.261 502.675C375.025 502.114 374.903 501.512 374.904 500.903C374.904 499.663 375.396 498.474 376.273 497.598C377.149 496.721 378.338 496.229 379.578 496.229H490.247C491.487 496.229 492.676 496.721 493.553 497.598C494.429 498.474 494.922 499.663 494.922 500.903C494.922 501.512 494.8 502.114 494.564 502.675C494.328 503.235 493.981 503.743 493.546 504.168C493.11 504.593 492.594 504.926 492.027 505.148C491.461 505.37 490.855 505.476 490.247 505.461V505.461Z" fill="#CE9C5C"/></svg>