<svg width="25" height="25" viewBox="0 0 25 25" fill="none" xmlns="http://www.w3.org/2000/svg">
<rect x="0.0650024" y="0.0649414" width="24" height="24" fill="white" fill-opacity="0.01"/>
<path d="M0.0650024 0.0649414H24.065M0.0650024 0.0649414V24.0649M0.0650024 0.0649414L24.065 24.0649M24.065 0.0649414V24.0649M24.065 0.0649414L0.0650024 24.0649M24.065 24.0649H0.0650024" stroke="#DADEE4" stroke-width="0.13"/>
<circle cx="12.065" cy="12.0649" r="10" stroke="#DADEE4" stroke-width="0.13"/>
<rect x="2.065" y="4.06494" width="20" height="16" rx="1" stroke="#DADEE4" stroke-width="0.13"/>
<rect x="4.065" y="2.06494" width="16" height="20" rx="1" stroke="#DADEE4" stroke-width="0.13"/>
<rect x="3.065" y="3.06494" width="18" height="18" rx="1" stroke="#DADEE4" stroke-width="0.13"/>
<circle cx="12.065" cy="12.0649" r="4" stroke="#DADEE4" stroke-width="0.13"/>
<path fill-rule="evenodd" clip-rule="evenodd" d="M8.35792 12.772C7.9674 12.3815 7.9674 11.7484 8.35792 11.3578L14.0148 5.70098C14.4053 5.31046 15.0385 5.31046 15.429 5.70098C15.8195 6.0915 15.8195 6.72467 15.429 7.11519L10.4792 12.0649L15.429 17.0147C15.8195 17.4052 15.8195 18.0384 15.429 18.4289C15.0385 18.8194 14.4053 18.8194 14.0148 18.4289L8.35792 12.772Z" fill="#09244B"/>
</svg>
