<svg width="24" height="24" viewBox="0 0 24 24" fill="none" xmlns="http://www.w3.org/2000/svg">
<g clip-path="url(#clip0_16_1809)">
<path d="M17.3631 11.045C18.7671 9.65201 21.0431 9.65201 22.4471 11.045C23.8511 12.439 23.8511 14.699 22.4471 16.092L17.0001 21.5L11.5531 16.092C10.1491 14.699 10.1491 12.439 11.5531 11.045C12.9571 9.65201 15.2331 9.65201 16.6371 11.045L17.0001 11.405L17.3631 11.045ZM19.2431 4.75701C20.1831 5.70001 20.7461 6.87501 20.9321 8.09501C19.5991 7.84701 18.1931 8.08501 17.0001 8.80801C14.8501 7.50501 12.0061 7.77801 10.1441 9.62601C8.01314 11.741 7.95414 15.141 9.96614 17.327L10.1441 17.512L12.5651 19.916L11.0001 21.485L2.52015 12.993C0.417145 10.637 0.496145 7.01901 2.75715 4.75701C5.02215 2.49301 8.64515 2.41701 11.0011 4.52901C13.3501 2.42001 16.9801 2.49001 19.2431 4.75701Z" fill="#09121F"/>
</g>
<defs>
<clipPath id="clip0_16_1809">
<rect width="24" height="24" fill="white"/>
</clipPath>
</defs>
</svg>
