<svg width="25" height="25" viewBox="0 0 25 25" fill="none" xmlns="http://www.w3.org/2000/svg">
<rect x="0.0649414" y="0.0650024" width="24" height="24" fill="white" fill-opacity="0.01"/>
<path d="M0.0649414 0.0650024H24.0649M0.0649414 0.0650024V24.065M0.0649414 0.0650024L24.0649 24.065M24.0649 0.0650024V24.065M24.0649 0.0650024L0.0649414 24.065M24.0649 24.065H0.0649414" stroke="#DADEE4" stroke-width="0.13"/>
<circle cx="12.0649" cy="12.065" r="10" stroke="#DADEE4" stroke-width="0.13"/>
<rect x="2.06494" y="4.065" width="20" height="16" rx="1" stroke="#DADEE4" stroke-width="0.13"/>
<rect x="4.06494" y="2.065" width="16" height="20" rx="1" stroke="#DADEE4" stroke-width="0.13"/>
<rect x="3.06494" y="3.065" width="18" height="18" rx="1" stroke="#DADEE4" stroke-width="0.13"/>
<circle cx="12.0649" cy="12.065" r="4" stroke="#DADEE4" stroke-width="0.13"/>
<path d="M6.06494 15.065C6.06494 14.5127 6.51266 14.065 7.06494 14.065H8.06494C8.61723 14.065 9.06494 14.5127 9.06494 15.065C9.06494 15.6173 8.61723 16.065 8.06494 16.065H7.06494C6.51266 16.065 6.06494 15.6173 6.06494 15.065Z" fill="#09244B"/>
<path d="M16.0649 14.065C15.5127 14.065 15.0649 14.5127 15.0649 15.065C15.0649 15.6173 15.5127 16.065 16.0649 16.065H17.0649C17.6172 16.065 18.0649 15.6173 18.0649 15.065C18.0649 14.5127 17.6172 14.065 17.0649 14.065H16.0649Z" fill="#09244B"/>
<path fill-rule="evenodd" clip-rule="evenodd" d="M16.0448 3.065H11.0866C11.0727 3.06471 11.0587 3.06471 11.0448 3.065H6.06494C4.40809 3.065 3.06494 4.40815 3.06494 6.065C2.51266 6.065 2.06494 6.51272 2.06494 7.065V9.065C2.06494 9.61729 2.51266 10.065 3.06494 10.065V17.065C3.06494 17.8053 3.46714 18.4516 4.06494 18.7974V19.565C4.06494 20.3934 4.73651 21.065 5.56494 21.065C6.39337 21.065 7.06494 20.3934 7.06494 19.565V19.065H17.0649V19.565C17.0649 20.3934 17.7365 21.065 18.5649 21.065C19.3934 21.065 20.0649 20.3934 20.0649 19.565V18.7974C20.6627 18.4516 21.0649 17.8053 21.0649 17.065V10.065C21.6172 10.065 22.0649 9.61729 22.0649 9.065V7.065C22.0649 6.51272 21.6172 6.065 21.0649 6.065C21.0649 4.40815 19.7218 3.065 18.0649 3.065H16.0866C16.0727 3.06471 16.0587 3.06471 16.0448 3.065ZM14.4469 5.065H11.683L9.95937 8.51221C9.71238 9.00619 9.11171 9.20642 8.61773 8.95943C8.12375 8.71244 7.92352 8.11177 8.17051 7.61779L9.44691 5.065H6.06494C5.51266 5.065 5.06494 5.51272 5.06494 6.065V11.065H19.0649V6.065C19.0649 5.51272 18.6172 5.065 18.0649 5.065H16.683L14.9594 8.51221C14.7124 9.00619 14.1117 9.20642 13.6177 8.95943C13.1237 8.71244 12.9235 8.11177 13.1705 7.61779L14.4469 5.065ZM5.06494 13.065V17.065H19.0649V13.065H5.06494Z" fill="#09244B"/>
</svg>
