<svg width="24" height="24" viewBox="0 0 24 24" fill="none" xmlns="http://www.w3.org/2000/svg">
<path fill-rule="evenodd" clip-rule="evenodd" d="M18 6V4L6 4V6L18 6ZM20 4C20 2.89543 19.1046 2 18 2H6C4.89543 2 4 2.89543 4 4V6C4 7.10457 4.89543 8 6 8L18 8C19.1046 8 20 7.10457 20 6V4ZM16 13V11H8L8 13H16ZM18 11C18 9.89543 17.1046 9 16 9L8 9C6.89543 9 6 9.89543 6 11V13C6 14.1046 6.89543 15 8 15H16C17.1046 15 18 14.1046 18 13V11ZM14 18V20H10V18H14ZM14 16C15.1046 16 16 16.8954 16 18V20C16 21.1046 15.1046 22 14 22H10C8.89543 22 8 21.1046 8 20L8 18C8 16.8954 8.89543 16 10 16H14Z" fill="#333333"/>
</svg>
