<svg width="24" height="24" viewBox="0 0 24 24" fill="none" xmlns="http://www.w3.org/2000/svg">
<path fill-rule="evenodd" clip-rule="evenodd" d="M5.69534 7.38128C6.09226 7.7653 6.10272 8.39838 5.7187 8.7953C5.33468 9.19222 4.7016 9.20268 4.30468 8.81866L2.1486 6.73267C1.75168 6.34865 1.74122 5.71557 2.12524 5.31865L4.21123 3.16258C4.59525 2.76566 5.22833 2.7552 5.62525 3.13922C6.02218 3.52324 6.03263 4.15632 5.64861 4.55324L5.21369 5.00278C8.16485 5.08016 10.718 6.75575 12.0394 9.19586C13.3819 6.83298 15.8928 5.22071 18.7863 5.14484L18.3514 4.6953C17.9674 4.29838 17.9778 3.6653 18.3748 3.28128C18.7717 2.89726 19.4048 2.90772 19.7888 3.30464L21.8748 5.46071C22.2588 5.85763 22.2483 6.49071 21.8514 6.87473L19.6953 8.96072C19.2984 9.34474 18.6653 9.33428 18.2813 8.93736C17.8973 8.54044 17.9078 7.90736 18.3047 7.52334L18.6907 7.14987C15.5207 7.31085 13 9.93207 13 13.142L13 19V19.142C13 19.6943 12.5523 20.142 12 20.142C11.4477 20.142 11 19.6943 11 19.142V19.0002V19L11 13.142L11 13C11 9.79001 8.47928 7.16879 5.30932 7.00781L5.69534 7.38128Z" fill="#333333"/>
</svg>
