<svg width="24" height="24" viewBox="0 0 24 24" fill="none" xmlns="http://www.w3.org/2000/svg">
<path fill-rule="evenodd" clip-rule="evenodd" d="M17.6569 6.34315C14.5327 3.21895 9.46734 3.21895 6.34315 6.34315C3.21895 9.46734 3.21895 14.5327 6.34315 17.6569C9.46734 20.781 14.5327 20.781 17.6569 17.6569C20.781 14.5327 20.781 9.46734 17.6569 6.34315ZM19.0711 4.92893C15.1658 1.02369 8.83418 1.02369 4.92893 4.92893C1.02369 8.83418 1.02369 15.1658 4.92893 19.0711C8.83418 22.9763 15.1658 22.9763 19.0711 19.0711C22.9763 15.1658 22.9763 8.83418 19.0711 4.92893ZM15.364 16C15.364 15.4477 14.9163 15 14.364 15L9.00004 15L9.00002 9.63603C9.00002 9.08375 8.5523 8.63604 8.00002 8.63604C7.44773 8.63604 7.00002 9.08376 7.00002 9.63604L7.00005 16C7.00005 16.2652 7.10541 16.5196 7.29294 16.7071C7.48048 16.8947 7.73483 17 8.00005 17L14.364 17C14.9163 17 15.364 16.5523 15.364 16ZM18.546 12.818C18.546 12.2657 18.0982 11.818 17.546 11.818L12.182 11.818L12.182 6.45406C12.182 5.90177 11.7343 5.45406 11.182 5.45406C10.6297 5.45407 10.182 5.90178 10.182 6.45407L10.182 12.8181C10.182 13.0833 10.2874 13.3376 10.4749 13.5252C10.6625 13.7127 10.9168 13.818 11.182 13.818L17.546 13.818C18.0982 13.818 18.546 13.3703 18.546 12.818Z" fill="#333333"/>
</svg>
