<svg width="24" height="24" viewBox="0 0 24 24" fill="none" xmlns="http://www.w3.org/2000/svg">
<path fill-rule="evenodd" clip-rule="evenodd" d="M10.3358 8.20711C10.7263 7.81659 10.7263 7.18342 10.3358 6.7929C9.94525 6.40237 9.31208 6.40237 8.92156 6.79289L4.42156 11.2929C4.23402 11.4804 4.12866 11.7347 4.12866 12C4.12866 12.2652 4.23402 12.5195 4.42155 12.7071L8.92155 17.2071C9.31208 17.5976 9.94524 17.5976 10.3358 17.2071C10.7263 16.8166 10.7263 16.1834 10.3358 15.7929L6.54288 12L10.3358 8.20711ZM15.3358 8.46443C15.7263 8.07391 15.7263 7.44074 15.3358 7.05022C14.9452 6.65969 14.3121 6.65969 13.9216 7.05022L9.67891 11.2929C9.28839 11.6834 9.28839 12.3165 9.67891 12.7071L13.9216 16.9497C14.3121 17.3402 14.9452 17.3402 15.3358 16.9497C15.7263 16.5592 15.7263 15.926 15.3358 15.5355L12.8002 13H18.8713C19.4236 13 19.8713 12.5522 19.8713 12C19.8713 11.4477 19.4236 11 18.8713 11H12.8002L15.3358 8.46443Z" fill="#333333"/>
</svg>
