<svg width="24" height="24" viewBox="0 0 24 24" fill="none" xmlns="http://www.w3.org/2000/svg">
<path fill-rule="evenodd" clip-rule="evenodd" d="M5 5H19V19H5L5 5ZM3 5C3 3.89543 3.89543 3 5 3H19C20.1046 3 21 3.89543 21 5V19C21 20.1046 20.1046 21 19 21H5C3.89543 21 3 20.1046 3 19V5ZM8.43347 15.176C7.97836 15.4889 7.86307 16.1114 8.17596 16.5665C8.48884 17.0216 9.11142 17.1369 9.56653 16.824L13.5665 14.074C13.8379 13.8875 14 13.5793 14 13.25V8.37501C14 7.82273 13.5523 7.37501 13 7.37501C12.4477 7.37501 12 7.82273 12 8.37501V12.724L8.43347 15.176Z" fill="#333333"/>
</svg>
