<svg width="24" height="24" viewBox="0 0 24 24" fill="none" xmlns="http://www.w3.org/2000/svg">
<path fill-rule="evenodd" clip-rule="evenodd" d="M6 23.0014H18C20.2091 23.0014 22 21.2105 22 19.0014V6.99988C22 4.79074 20.2091 2.99988 18 2.99988H6C3.79086 2.99988 2 4.79074 2 6.99988V19.0014C2 21.2105 3.79086 23.0014 6 23.0014ZM6 21.0014C4.89543 21.0014 4 20.106 4 19.0014V18H8H16H20V19.0014C20 20.106 19.1046 21.0014 18 21.0014H6ZM9 16H15V10H9L9 16ZM8 8H16H20V6.99988C20 5.89531 19.1046 4.99988 18 4.99988H6C4.89543 4.99988 4 5.89531 4 6.99988V8H8ZM4 10H7L7 16H4V10ZM20 10H17V16H20V10Z" fill="#333333"/>
</svg>
