<svg width="24" height="24" viewBox="0 0 24 24" fill="none" xmlns="http://www.w3.org/2000/svg">
<path fill-rule="evenodd" clip-rule="evenodd" d="M14.7855 17.5355C13.8478 18.4732 12.5761 19 11.25 19C9.9239 19 8.65213 18.4732 7.71445 17.5355C6.7519 16.573 6.52325 15.2113 7.09039 13.2771C7.66306 11.324 8.95589 9.20715 10.3519 7.4123L11.25 6.25761L12.1481 7.4123C13.5441 9.20715 14.8369 11.324 15.4096 13.2771C15.9767 15.2113 15.7481 16.573 14.7855 17.5355ZM11.25 21C13.1065 21 14.887 20.2625 16.1997 18.9497C19.5762 15.5733 16.6584 9.9536 13.7268 6.18442L12.0393 4.01484C11.639 3.5001 10.861 3.5001 10.4606 4.01484L8.77318 6.18442C5.84159 9.95361 2.92377 15.5733 6.30023 18.9497C7.61299 20.2625 9.39347 21 11.25 21ZM15.25 15C15.25 14.4477 14.8023 14 14.25 14C13.6977 14 13.25 14.4477 13.25 15C13.25 15.1797 13.1522 15.4383 12.922 15.6698C12.6925 15.9005 12.4351 16 12.25 16C11.6977 16 11.25 16.4477 11.25 17C11.25 17.5522 11.6977 18 12.25 18C13.0809 18 13.8235 17.5994 14.34 17.0802C14.8557 16.5617 15.25 15.8203 15.25 15Z" fill="#333333"/>
</svg>
