<svg width="24" height="24" viewBox="0 0 24 24" fill="none" xmlns="http://www.w3.org/2000/svg">
<path d="M15.0712 12.8063C14.4369 15.4939 12.2771 17.2842 10.2472 16.8051C8.21721 16.326 7.08582 13.7589 7.72013 11.0713C8.35444 8.38377 10.5143 6.59343 12.5442 7.07253C14.5742 7.55163 15.7055 10.1187 15.0712 12.8063ZM15.0712 12.8063C15.0712 12.8063 15.048 14.1158 15.9999 15C17.833 16.7028 21.0081 16 21.0081 12.0059" stroke="#333333" stroke-width="2" stroke-linecap="round"/>
<path d="M3 12C3 7.02944 7.02944 3 12 3C16.9706 3 21 7.02944 21 12" stroke="#333333" stroke-width="2" stroke-linecap="round"/>
<path d="M12 21.2578C7.02944 21.2578 3 17.2283 3 12.2578" stroke="#333333" stroke-width="2" stroke-linecap="round"/>
<path d="M15.9999 9L14.8076 13.7617" stroke="#333333" stroke-width="2" stroke-linecap="round" stroke-linejoin="round"/>
<path d="M12 21.2578C14.5586 21.2578 16.8677 20.1902 18.5063 18.4761" stroke="#333333" stroke-width="2" stroke-linecap="round"/>
</svg>
