<svg width="24" height="24" viewBox="0 0 24 24" fill="none" xmlns="http://www.w3.org/2000/svg">
<path fill-rule="evenodd" clip-rule="evenodd" d="M8 9C8 8.44772 7.55228 8 7 8C6.44772 8 6 8.44772 6 9V11V15C6 15.5523 6.44772 16 7 16C7.55228 16 8 15.5523 8 15V12H9V15C9 15.5523 9.44772 16 10 16C10.5523 16 11 15.5523 11 15V12C11 10.8954 10.1046 10 9 10H8V9ZM14 8C13.4477 8 13 8.44772 13 9V12C13 12.5523 13.4477 13 14 13H15.5C15.7761 13 16 13.2239 16 13.5C16 13.7761 15.7761 14 15.5 14H14C13.4477 14 13 14.4477 13 15C13 15.5523 13.4477 16 14 16H15.5C16.8807 16 18 14.8807 18 13.5C18 12.1193 16.8807 11 15.5 11H15V10H17C17.5523 10 18 9.55228 18 9C18 8.44772 17.5523 8 17 8H14Z" fill="#333333"/>
</svg>
