<svg width="24" height="24" viewBox="0 0 24 24" fill="none" xmlns="http://www.w3.org/2000/svg">
<path fill-rule="evenodd" clip-rule="evenodd" d="M12 1.5C12.8284 1.5 13.5 2.17157 13.5 3V6C13.5 6.82843 12.8284 7.5 12 7.5C11.1716 7.5 10.5 6.82843 10.5 6V3C10.5 2.17157 11.1716 1.5 12 1.5ZM22.5 12C22.5 12.8284 21.8284 13.5 21 13.5H18C17.1716 13.5 16.5 12.8284 16.5 12C16.5 11.1716 17.1716 10.5 18 10.5H21C21.8284 10.5 22.5 11.1716 22.5 12ZM13.5 18C13.5 17.1716 12.8284 16.5 12 16.5C11.1716 16.5 10.5 17.1716 10.5 18V21C10.5 21.8284 11.1716 22.5 12 22.5C12.8284 22.5 13.5 21.8284 13.5 21V18ZM7.5 12C7.5 12.8284 6.82843 13.5 6 13.5H3C2.17157 13.5 1.5 12.8284 1.5 12C1.5 11.1716 2.17157 10.5 3 10.5H6C6.82843 10.5 7.5 11.1716 7.5 12ZM12 11C11.4477 11 11 11.4477 11 12C11 12.5523 11.4477 13 12 13H12.01C12.5623 13 13.01 12.5523 13.01 12C13.01 11.4477 12.5623 11 12.01 11H12Z" fill="#333333"/>
</svg>
