<svg width="24" height="24" viewBox="0 0 24 24" fill="none" xmlns="http://www.w3.org/2000/svg">
<path fill-rule="evenodd" clip-rule="evenodd" d="M5 5C5 3.89543 5.89543 3 7 3H17C18.1046 3 19 3.89543 19 5V19H20C20.5523 19 21 19.4477 21 20C21 20.5523 20.5523 21 20 21H17H14H10H7H4C3.44772 21 3 20.5523 3 20C3 19.4477 3.44772 19 4 19H5V5ZM11 19H13V17H11V19ZM15 19H17V17V7V5H15H9H7V7V17V19H9V16C9 15.4477 9.44772 15 10 15H14C14.5523 15 15 15.4477 15 16V19ZM9 6C8.44772 6 8 6.44772 8 7C8 7.55228 8.44772 8 9 8H10C10.5523 8 11 7.55228 11 7C11 6.44772 10.5523 6 10 6H9ZM8 10C8 9.44772 8.44772 9 9 9H10C10.5523 9 11 9.44772 11 10C11 10.5523 10.5523 11 10 11H9C8.44772 11 8 10.5523 8 10ZM9 12C8.44772 12 8 12.4477 8 13C8 13.5523 8.44772 14 9 14H10C10.5523 14 11 13.5523 11 13C11 12.4477 10.5523 12 10 12H9ZM13.0803 13C13.0803 12.4477 13.528 12 14.0803 12H15.0803C15.6326 12 16.0803 12.4477 16.0803 13C16.0803 13.5523 15.6326 14 15.0803 14H14.0803C13.528 14 13.0803 13.5523 13.0803 13ZM14.1606 6C13.6084 6 13.1606 6.44772 13.1606 7C13.1606 7.55228 13.6084 8 14.1606 8H15.0001C15.5523 8 16.0001 7.55228 16.0001 7C16.0001 6.44772 15.5523 6 15.0001 6H14.1606ZM13.1606 10C13.1606 9.44772 13.6084 9 14.1606 9H15.0001C15.5523 9 16.0001 9.44772 16.0001 10C16.0001 10.5523 15.5523 11 15.0001 11H14.1606C13.6084 11 13.1606 10.5523 13.1606 10Z" fill="#333333"/>
</svg>
