<svg width="24" height="24" viewBox="0 0 24 24" fill="none" xmlns="http://www.w3.org/2000/svg">
<path fill-rule="evenodd" clip-rule="evenodd" d="M20 12C20 16.4183 16.4183 20 12 20C7.58172 20 4 16.4183 4 12C4 7.58172 7.58172 4 12 4C16.4183 4 20 7.58172 20 12ZM22 12C22 17.5228 17.5228 22 12 22C6.47715 22 2 17.5228 2 12C2 6.47715 6.47715 2 12 2C17.5228 2 22 6.47715 22 12ZM15.7809 10.3369C16.1259 9.90565 16.056 9.27636 15.6247 8.93135C15.1934 8.58634 14.5642 8.65626 14.2191 9.08752L10.4566 13.7907L9.01643 12.3505C8.62591 11.9599 7.99274 11.9599 7.60222 12.3505C7.2117 12.741 7.2117 13.3741 7.60222 13.7647L9.04242 15.2049C9.88531 16.0478 11.2737 15.9709 12.0184 15.04L15.7809 10.3369Z" fill="#333333"/>
</svg>
