<svg width="24" height="24" viewBox="0 0 24 24" fill="none" xmlns="http://www.w3.org/2000/svg">
<path fill-rule="evenodd" clip-rule="evenodd" d="M6 20C5.44772 20 5 19.5523 5 19V17H3C2.44772 17 2 16.5523 2 16C2 15.4477 2.44772 15 3 15H5L5 9H3C2.44772 9 2 8.55228 2 8C2 7.44772 2.44772 7 3 7H5V5C5 4.44772 5.44771 4 6 4C6.55228 4 7 4.44772 7 5V7H17V5C17 4.44772 17.4477 4 18 4C18.5523 4 19 4.44772 19 5V7H21C21.5523 7 22 7.44772 22 8C22 8.55228 21.5523 9 21 9H19V15H21C21.5523 15 22 15.4477 22 16C22 16.5523 21.5523 17 21 17H19V19C19 19.5523 18.5523 20 18 20C17.4477 20 17 19.5523 17 19V17H7V19C7 19.5523 6.55228 20 6 20ZM17 15L17 9H7L7 15H17Z" fill="#333333"/>
</svg>
