<svg width="24" height="24" viewBox="0 0 24 24" fill="none" xmlns="http://www.w3.org/2000/svg">
<path fill-rule="evenodd" clip-rule="evenodd" d="M5.56629 11.4121L14.2042 6.42504C14.207 6.44507 14.2098 6.46512 14.2124 6.48519C14.3045 7.18477 14.258 7.89564 14.0753 8.57722C13.8927 9.25879 13.5776 9.89771 13.1481 10.4575C12.7185 11.0173 12.1829 11.487 11.5718 11.8398C10.9607 12.1927 10.2862 12.4216 9.58658 12.5137C8.887 12.6058 8.17613 12.5593 7.49455 12.3766C6.81298 12.194 6.17405 11.8789 5.61425 11.4494C5.59819 11.437 5.5822 11.4246 5.56629 11.4121ZM14.5385 6.232L14.5381 6.23226C14.5425 6.23074 14.5424 6.22977 14.5385 6.232ZM5.23238 11.6049L5.23193 11.6052C5.22806 11.6074 5.22886 11.608 5.23238 11.6049ZM3.72114 12.4492C3.93381 12.6579 4.15937 12.8539 4.39673 13.0361C5.1649 13.6255 6.04165 14.0579 6.97692 14.3085C7.30006 14.3951 7.62801 14.4594 7.95846 14.5012C7.64864 14.7349 7.35476 14.9903 7.07917 15.2659C6.30165 16.0434 5.68488 16.9664 5.26409 17.9823C4.8433 18.9982 4.62672 20.087 4.62672 21.1866C4.62672 21.7389 5.07444 22.1866 5.62672 22.1866C6.17901 22.1866 6.62672 21.7389 6.62672 21.1866C6.62672 20.3496 6.79157 19.5209 7.11185 18.7477C7.43213 17.9744 7.90158 17.2719 8.49338 16.6801C9.08519 16.0883 9.78776 15.6188 10.561 15.2985C11.3342 14.9783 12.163 14.8134 12.9999 14.8134C13.8368 14.8134 14.6656 14.9783 15.4388 15.2985C16.212 15.6188 16.9146 16.0883 17.5064 16.6801C18.0982 17.2719 18.5677 17.9745 18.888 18.7477C19.2082 19.5209 19.3731 20.3497 19.3731 21.1866C19.3731 21.7389 19.8208 22.1866 20.3731 22.1866C20.9254 22.1866 21.3731 21.7389 21.3731 21.1866C21.3731 20.087 21.1565 18.9982 20.7357 17.9823C20.3149 16.9664 19.6982 16.0434 18.9206 15.2659C18.1431 14.4883 17.2201 13.8716 16.2042 13.4508C15.3805 13.1096 14.5088 12.9027 13.6224 12.8366C14.0335 12.4919 14.4067 12.1026 14.7348 11.675C15.3242 10.9069 15.7566 10.0301 16.0072 9.09485C16.2578 8.15959 16.3217 7.18412 16.1953 6.22414C16.1563 5.92751 16.0993 5.63416 16.0249 5.34564C15.7491 4.27605 14.4951 3.94766 13.5385 4.49995L9.47808 6.84426L8.30249 4.97207C8.00879 4.50435 7.39154 4.36328 6.92382 4.65697C6.4561 4.95066 6.31503 5.56791 6.60872 6.03563L7.74484 7.84495L4.23192 9.87313C3.27534 10.4254 2.93274 11.6756 3.72114 12.4492Z" fill="#333333"/>
</svg>
