<svg width="24" height="24" viewBox="0 0 24 24" fill="none" xmlns="http://www.w3.org/2000/svg">
<path fill-rule="evenodd" clip-rule="evenodd" d="M11 5.99994C11 5.44765 10.5523 4.99994 10 4.99994H9.43238C10.3437 4.61316 11.3461 4.39933 12.3994 4.39933C16.5971 4.39933 20 7.80223 20 11.9999C20 16.1976 16.5971 19.6005 12.3994 19.6005C10.7509 19.6005 9.22758 19.0768 7.98301 18.1866C7.53381 17.8653 6.90919 17.9689 6.58788 18.4181C6.26657 18.8673 6.37024 19.492 6.81944 19.8133C8.39218 20.9383 10.3199 21.6005 12.3994 21.6005C17.7017 21.6005 22 17.3022 22 11.9999C22 6.69766 17.7017 2.39933 12.3994 2.39933C10.8146 2.39933 9.31826 2.78394 8 3.46466V2.99994C8 2.44765 7.55228 1.99994 7 1.99994C6.44772 1.99994 6 2.44765 6 2.99994V5.99994C6 6.55222 6.44772 6.99994 7 6.99994H10C10.5523 6.99994 11 6.55222 11 5.99994ZM6 11C6 10.5955 5.75636 10.2309 5.38268 10.0761C5.00901 9.92131 4.57889 10.0069 4.29289 10.2929L2.29289 12.2929C1.90237 12.6834 1.90237 13.3166 2.29289 13.7071C2.68342 14.0976 3.31658 14.0976 3.70711 13.7071L4 13.4142V17H6V11ZM11 13.5C11 14.0077 10.8231 14.4163 10.6028 14.6733C10.3862 14.926 10.1668 15 10 15C9.83321 15 9.61384 14.926 9.39719 14.6733C9.17694 14.4163 9 14.0077 9 13.5C9 12.9922 9.17694 12.5836 9.39719 12.3267C9.61384 12.0739 9.83321 12 10 12C10.1668 12 10.3862 12.0739 10.6028 12.3267C10.8231 12.5836 11 12.9922 11 13.5ZM13 13.5C13 15.433 11.6569 17 10 17C8.34315 17 7 15.433 7 13.5C7 11.567 8.34315 9.99997 10 9.99997C11.6569 9.99997 13 11.567 13 13.5Z" fill="#333333"/>
</svg>
