<svg width="24" height="24" viewBox="0 0 24 24" fill="none" xmlns="http://www.w3.org/2000/svg">
<path fill-rule="evenodd" clip-rule="evenodd" d="M16.2878 5.16157C17.0232 5.47673 17.5 6.19981 17.5 6.99987V16.9999C17.5 17.7999 17.0232 18.523 16.2878 18.8382C15.5525 19.1533 14.7 18.9999 14.1207 18.4481L11.7 16.1427H10.5C8.29086 16.1427 6.5 14.3519 6.5 12.1427V11.857C6.5 9.64787 8.29086 7.85701 10.5 7.85701H11.7L14.1207 5.55159C14.7 4.99983 15.5525 4.84642 16.2878 5.16157ZM12.5 9.85701H10.5C9.39543 9.85701 8.5 10.7524 8.5 11.857V12.1427C8.5 13.2473 9.39543 14.1427 10.5 14.1427H12.5L13.5 15.0951L15.5 16.9999V14.238V9.76177V6.99987L13.5 8.90463L12.5 9.85701Z" fill="#333333"/>
</svg>
