<svg width="24" height="24" viewBox="0 0 24 24" fill="none" xmlns="http://www.w3.org/2000/svg">
<path fill-rule="evenodd" clip-rule="evenodd" d="M15.1508 12.7407C15.5701 13.1001 15.6187 13.7314 15.2593 14.1507L13.0706 16.7043C12.2379 17.6757 10.7198 17.6263 9.95206 16.6027L11.5521 15.4027L13.7408 12.8492C14.1002 12.4298 14.7315 12.3813 15.1508 12.7407ZM9.40005 14.2C9.84188 13.8686 10.4687 13.9582 10.8001 14.4L11.5521 15.4027L9.95206 16.6027L9.20006 15.6C8.86869 15.1582 8.95823 14.5314 9.40005 14.2Z" fill="#333333"/>
<path d="M5 5H19C19.5523 5 20 5.44772 20 6V18C20 18.5523 19.5523 19 19 19H5C4.44772 19 4 18.5523 4 18V6C4 5.44772 4.44771 5 5 5Z" stroke="#333333" stroke-width="2"/>
<path d="M4 11H20" stroke="#333333" stroke-width="2" stroke-linecap="round"/>
<path d="M8 8H16" stroke="#333333" stroke-width="2" stroke-linecap="round"/>
</svg>
