<svg width="24" height="24" viewBox="0 0 24 24" fill="none" xmlns="http://www.w3.org/2000/svg">
<path fill-rule="evenodd" clip-rule="evenodd" d="M22.6635 2.495C23.0147 2.06875 22.9538 1.43852 22.5276 1.08734C22.1013 0.736152 21.4711 0.797005 21.1199 1.22325L18.103 4.88511L16.6477 3.20452C16.2862 2.78701 15.6546 2.74163 15.2371 3.10316C14.8196 3.46469 14.7742 4.09623 15.1358 4.51374L16.591 6.19433C17.4015 7.13036 18.8592 7.11248 19.6465 6.15686L22.6635 2.495ZM11 14C12.6569 14 14 12.6569 14 11C14 9.34314 12.6569 8 11 8C9.34315 8 8 9.34314 8 11C8 12.6569 9.34315 14 11 14ZM16 11C16 12.4811 15.356 13.8117 14.3328 14.7273C15.1893 15.1198 15.9778 15.6641 16.6568 16.3431C19.1105 18.7968 16.187 22 12.7169 22H11H9.28303C5.813 22 2.88945 18.7968 5.34313 16.3431C6.02215 15.6641 6.81066 15.1198 7.66717 14.7273C6.64396 13.8117 6 12.4811 6 11C6 8.23857 8.23858 6 11 6C13.7614 6 16 8.23857 16 11ZM15.2426 17.7574C14.1174 16.6321 12.5913 16 11 16C9.40869 16 7.88257 16.6321 6.75735 17.7574C6.45407 18.0606 6.4366 18.2504 6.43495 18.3141C6.43255 18.4064 6.46427 18.5977 6.67279 18.8669C7.11943 19.4435 8.11151 20 9.28303 20H11H12.7169C13.8885 20 14.8805 19.4435 15.3272 18.8669C15.5357 18.5977 15.5674 18.4064 15.565 18.3141C15.5634 18.2504 15.5459 18.0606 15.2426 17.7574Z" fill="#333333"/>
</svg>
