<svg id="svg1059" height="512" viewBox="0 0 12.7 12.7" width="512" xmlns="http://www.w3.org/2000/svg" xmlns:svg="http://www.w3.org/2000/svg"><g id="layer1" transform="translate(169.333 -118.746)"><path id="path1653" d="m-168.80469 119.27611v11.64063h1.05885v-1.05678c.44172.001.88245-.001 1.32292-.001v-1.05782c.35324.00053.70565-.00053 1.05834-.00053v-1.05782c.35324.00053.70564-.00053 1.05833-.00053v-1.05833h.79479v4.23282h1.05626v-1.05678h1.05885v-.001h.00053v-1.05782h1.05781v-.00053h.00053v-1.0578h1.05833c0-.35295 0-.7059 0-1.05885h1.05833v-1.05834h1.05885v-1.05885h-1.05885v-1.05781-.00053h-1.05833v-1.05781-.001h-1.05833v-1.05728h-1.05834v-1.05833h-1.05938v-1.05782h-1.05626v4.2323h-.79479v-1.05782c-.35258-.00079-.70462-.001-1.05833-.001v-1.05728h-1.05834v-1.05833h-1.32292v-1.05782z" font-variant-ligatures="normal" font-variant-position="normal" font-variant-caps="normal" font-variant-numeric="normal" font-variant-alternates="normal" font-feature-settings="normal" text-indent="0" text-align="start" text-decoration-line="none" text-decoration-style="solid" text-decoration-color="rgb(0,0,0)" text-transform="none" text-orientation="mixed" white-space="normal" shape-padding="0" isolation="auto" mix-blend-mode="normal" solid-color="rgb(0,0,0)" solid-opacity="1" vector-effect="none" paint-order="normal"/></g></svg>