<svg id="svg1059" height="512" viewBox="0 0 12.7 12.7" width="512" xmlns="http://www.w3.org/2000/svg" xmlns:svg="http://www.w3.org/2000/svg"><g id="layer1" transform="translate(169.333 -118.746)"><path id="rect4773" d="m-167.74479 120.59826v1.05885h2.11717v-1.05885c-.70572 0-1.41145 0-2.11717 0zm0 1.05885c-.35295 0-.70591 0-1.05886 0v6.87865h1.05886zm0 6.87865v1.05885h2.11717v-1.05885zm6.34948-7.1422v1.05833h1.05885v-1.05833c-.35295 0-.70591 0-1.05885 0zm1.05885 1.05833v1.05886h1.05833v-1.05886c-.35278 0-.70555 0-1.05833 0zm1.05833 1.05886v1.05626c-2.46944 0-4.93888 0-7.40834 0v1.05885h7.40834v1.05834h1.05886v-1.05834h1.05626v-1.05885h-1.05626v-1.05626c-.35295 0-.70591 0-1.05886 0zm0 3.17345c-.35278 0-.70555 0-1.05833 0v1.05884h1.05833zm-1.05833 1.05884c-.35295 0-.70591 0-1.05885 0v1.05834h1.05885z" font-variant-ligatures="normal" font-variant-position="normal" font-variant-caps="normal" font-variant-numeric="normal" font-variant-alternates="normal" font-feature-settings="normal" text-indent="0" text-align="start" text-decoration-line="none" text-decoration-style="solid" text-decoration-color="rgb(0,0,0)" text-transform="none" text-orientation="mixed" white-space="normal" shape-padding="0" isolation="auto" mix-blend-mode="normal" solid-color="rgb(0,0,0)" solid-opacity="1" vector-effect="none" paint-order="normal"/></g></svg>