<svg id="svg1059" height="512" viewBox="0 0 12.7 12.7" width="512" xmlns="http://www.w3.org/2000/svg" xmlns:svg="http://www.w3.org/2000/svg"><g id="layer1" transform="translate(169.333 -118.746)"><path id="rect4861" d="m-166.6875 119.53992v1.05833h1.05885v-.26355-.79478zm1.05885 1.05833v1.05885h1.05834c0-.35295 0-.7059 0-1.05885zm1.05834 1.05885v1.05834h1.05885c0-.35278 0-.70556 0-1.05834zm-2.11719-1.05885h-1.05833v1.05885h1.05833c0-.35295 0-.7059 0-1.05885zm-1.05833 1.05885h-1.05885v1.05834h1.05885c0-.35278 0-.70556 0-1.05834zm5.29063 0v1.05834h2.11719v-1.05834zm2.11719 1.05834v4.76198h1.05885v-4.76198zm-6.34949 0v4.76198h1.05885v-.26407-4.49791zm1.05885 4.76198v1.05833h2.11719c0-.35277 0-.70555 0-1.05833zm3.17345 0v1.05833h1.05885v-1.05833zm1.05885 1.05833v1.05885h1.05834v-1.05885zm1.05834 1.05885v1.05834h1.05885v-1.05834zm1.05885 0h1.05833v-1.05885h-1.05833zm1.05833-1.05885h1.05885v-1.05833h-1.05885z" font-variant-ligatures="normal" font-variant-position="normal" font-variant-caps="normal" font-variant-numeric="normal" font-variant-alternates="normal" font-feature-settings="normal" text-indent="0" text-align="start" text-decoration-line="none" text-decoration-style="solid" text-decoration-color="rgb(0,0,0)" text-transform="none" text-orientation="mixed" white-space="normal" shape-padding="0" isolation="auto" mix-blend-mode="normal" solid-color="rgb(0,0,0)" solid-opacity="1" vector-effect="none" paint-order="normal"/></g></svg>