<svg id="svg1059" height="512" viewBox="0 0 12.7 12.7" width="512" xmlns="http://www.w3.org/2000/svg" xmlns:svg="http://www.w3.org/2000/svg"><g id="layer1" transform="translate(169.333 -118.746)"><path id="rect3470" d="m-168.80365 119.27612v3.17397h1.05885v-2.11719h2.11718v-1.05678zm8.46718 0v1.05678h2.11719v2.11719h1.05626v-3.17397zm-6.35 2.11512v1.05885h1.05885v-1.05885zm1.05885 1.05885v1.05833h1.05628v-1.05833zm1.05628 1.05833v1.05885h1.05885v-1.05885zm1.05885 1.05885v1.05833h1.05885v-1.05833zm1.05885 0h1.05833v-1.05885h-1.05833zm1.05833-1.05885h1.05885v-1.05833h-1.05885zm1.05885-1.05833h1.05834v-1.05885h-1.05834zm-2.11718 3.17551v1.05885h1.05833v-1.05885zm1.05833 1.05885v1.05627h1.05885v-1.05627zm1.05885 1.05627v1.05885h1.05834v-1.05885zm-3.17603-2.11512h-1.05885v1.05885h1.05885zm-1.05885 1.05885h-1.05627v1.05627h1.05627zm-1.05627 1.05627h-1.05885v1.05885h1.05885zm-3.17603 0v3.17603h3.17603v-1.05885h-2.11718v-2.11718zm10.58437 0v2.11718h-2.11719v1.05885h3.17345v-3.17603z" font-variant-ligatures="normal" font-variant-position="normal" font-variant-caps="normal" font-variant-numeric="normal" font-variant-alternates="normal" font-feature-settings="normal" text-indent="0" text-align="start" text-decoration-line="none" text-decoration-style="solid" text-decoration-color="rgb(0,0,0)" text-transform="none" text-orientation="mixed" white-space="normal" shape-padding="0" isolation="auto" mix-blend-mode="normal" solid-color="rgb(0,0,0)" solid-opacity="1" vector-effect="none" paint-order="normal"/></g></svg>