<svg width="25" height="25" viewBox="0 0 25 25" fill="none" xmlns="http://www.w3.org/2000/svg">
<rect x="0.0649414" y="0.0649414" width="24" height="24" fill="white" fill-opacity="0.01"/>
<path d="M0.0649414 0.0649414H24.0649M0.0649414 0.0649414V24.0649M0.0649414 0.0649414L24.0649 24.0649M24.0649 0.0649414V24.0649M24.0649 0.0649414L0.0649414 24.0649M24.0649 24.0649H0.0649414" stroke="#DADEE4" stroke-width="0.13"/>
<circle cx="12.0649" cy="12.0649" r="10" stroke="#DADEE4" stroke-width="0.13"/>
<rect x="2.06494" y="4.06494" width="20" height="16" rx="1" stroke="#DADEE4" stroke-width="0.13"/>
<rect x="4.06494" y="2.06494" width="16" height="20" rx="1" stroke="#DADEE4" stroke-width="0.13"/>
<rect x="3.06494" y="3.06494" width="18" height="18" rx="1" stroke="#DADEE4" stroke-width="0.13"/>
<circle cx="12.0649" cy="12.0649" r="4" stroke="#DADEE4" stroke-width="0.13"/>
<path d="M8.47925 17.065L18.4289 7.11531C18.8195 6.72479 18.8195 6.09162 18.4289 5.7011C18.0384 5.31057 17.4053 5.31057 17.0147 5.7011L7.06494 15.6509L7.06494 10.065C7.06494 9.51272 6.61723 9.065 6.06494 9.065C5.51266 9.065 5.06494 9.51272 5.06494 10.065V18.065C5.06494 18.6173 5.51266 19.065 6.06494 19.065L14.0649 19.065C14.6172 19.065 15.0649 18.6173 15.0649 18.065C15.0649 17.5127 14.6172 17.065 14.0649 17.065L8.47925 17.065Z" fill="#09244B"/>
</svg>
