<svg width="54" height="28" viewBox="0 0 54 28" fill="none" xmlns="http://www.w3.org/2000/svg">
<rect x="0.5" y="0.5" width="53" height="27" rx="4.5" stroke="#7B61FF" stroke-dasharray="10 5"/>
<circle cx="14" cy="14" r="9" stroke="white" stroke-width="2"/>
<path d="M10 12H14M18 12H14M14 12V15.5M14 15.5L11 18.5M14 15.5L17 18.5" stroke="white" stroke-width="2" stroke-linecap="round"/>
<path d="M15.25 8.75C15.25 9.44036 14.6904 10 14 10C13.3096 10 12.75 9.44036 12.75 8.75C12.75 8.05964 13.3096 7.5 14 7.5C14.6904 7.5 15.25 8.05964 15.25 8.75Z" fill="white"/>
<path d="M49.5 14C49.5 17.5899 46.5899 20.5 43 20.5C39.4101 20.5 36.5 17.5899 36.5 14C36.5 10.4101 39.4101 7.5 43 7.5C46.5899 7.5 49.5 10.4101 49.5 14Z" stroke="white"/>
<path d="M40 12.5H43M46 12.5H43M43 12.5V15.1923M43 15.1923L40.75 17.5M43 15.1923L45.25 17.5" stroke="white" stroke-linecap="round"/>
<path d="M43.75 10.25C43.75 10.6642 43.4142 11 43 11C42.5858 11 42.25 10.6642 42.25 10.25C42.25 9.83579 42.5858 9.5 43 9.5C43.4142 9.5 43.75 9.83579 43.75 10.25Z" fill="white"/>
</svg>
