<svg width="54" height="28" viewBox="0 0 54 28" fill="none" xmlns="http://www.w3.org/2000/svg">
<rect x="0.5" y="0.5" width="53" height="27" rx="4.5" stroke="#7B61FF" stroke-dasharray="10 5"/>
<g clip-path="url(#clip0_1_782)">
<path d="M6 11V19C6 20.8856 6 21.8284 6.58579 22.4142C7.17157 23 8.11438 23 10 23H18C19.8856 23 20.8284 23 21.4142 22.4142C22 21.8284 22 20.8856 22 19V11" stroke="white" stroke-width="2" stroke-linecap="round" stroke-linejoin="round"/>
<path d="M8 11L20 11C20.9319 11 21.3978 11 21.7654 10.8478C22.2554 10.6448 22.6448 10.2554 22.8478 9.76537C23 9.39782 23 8.93188 23 8C23 7.06812 23 6.60218 22.8478 6.23463C22.6448 5.74458 22.2554 5.35523 21.7654 5.15224C21.3978 5 20.9319 5 20 5L13.1 5L8 5C7.06812 5 6.60217 5 6.23463 5.15224C5.74458 5.35523 5.35523 5.74458 5.15224 6.23463C5 6.60218 5 7.06812 5 8C5 8.93188 5 9.39782 5.15224 9.76537C5.35523 10.2554 5.74458 10.6448 6.23463 10.8478C6.60218 11 7.06812 11 8 11Z" stroke="white" stroke-width="2" stroke-linecap="round" stroke-linejoin="round"/>
<path d="M11 15L17 15" stroke="white" stroke-width="2" stroke-linecap="round" stroke-linejoin="round"/>
</g>
<g clip-path="url(#clip1_1_782)">
<path d="M37.5 11.5V19C37.5 19.9428 37.5 20.4142 37.7929 20.7071C38.0858 21 38.5572 21 39.5 21H46.5C47.4428 21 47.9142 21 48.2071 20.7071C48.5 20.4142 48.5 19.9428 48.5 19V11.5" stroke="white" stroke-linecap="round" stroke-linejoin="round"/>
<path d="M38.5 11.5L47.5 11.5C48.4428 11.5 48.9142 11.5 49.2071 11.2071C49.5 10.9142 49.5 10.4428 49.5 9.5C49.5 8.55719 49.5 8.08579 49.2071 7.79289C48.9142 7.5 48.4428 7.5 47.5 7.5L42.3 7.5L38.5 7.5C37.5572 7.5 37.0858 7.5 36.7929 7.79289C36.5 8.08579 36.5 8.55719 36.5 9.5C36.5 10.4428 36.5 10.9142 36.7929 11.2071C37.0858 11.5 37.5572 11.5 38.5 11.5Z" stroke="white" stroke-linecap="round" stroke-linejoin="round"/>
<path d="M41 15L45 15" stroke="white" stroke-linecap="round" stroke-linejoin="round"/>
</g>
<defs>
<clipPath id="clip0_1_782">
<rect width="24" height="24" fill="white" transform="translate(2 2)"/>
</clipPath>
<clipPath id="clip1_1_782">
<rect width="18" height="18" fill="white" transform="translate(34 5)"/>
</clipPath>
</defs>
</svg>
