<svg width="54" height="28" viewBox="0 0 54 28" fill="none" xmlns="http://www.w3.org/2000/svg">
<rect x="0.5" y="0.5" width="53" height="27" rx="4.5" stroke="#7B61FF" stroke-dasharray="10 5"/>
<g clip-path="url(#clip0_1_2005)">
<path d="M16.8284 6.82843L18.2426 8.24264C19.1097 9.10973 19.5433 9.54328 19.7716 10.0946C20 10.6459 20 11.259 20 12.4853V21.5858C20 22.6133 20 23.127 19.6913 23.2548C19.3827 23.3827 19.0194 23.0194 18.2929 22.2929L16.8284 20.8284C15.4951 19.4951 14.8284 18.8284 14 18.8284C13.1716 18.8284 12.5049 19.4951 11.1716 20.8284L9.70711 22.2929C8.98058 23.0194 8.61732 23.3827 8.30866 23.2548C8 23.127 8 22.6133 8 21.5858L8 12.4853C8 11.259 8 10.6459 8.22836 10.0946C8.45672 9.54328 8.89027 9.10973 9.75736 8.24264L11.1716 6.82843C12.5049 5.49509 13.1716 4.82843 14 4.82843C14.8284 4.82843 15.4951 5.49509 16.8284 6.82843Z" stroke="white" stroke-width="2" stroke-linecap="round" stroke-linejoin="round"/>
</g>
<g clip-path="url(#clip1_1_2005)">
<path d="M44.4142 8.41421L45.8284 9.82843C46.4065 10.4065 46.6955 10.6955 46.8478 11.0631C47 11.4306 47 11.8394 47 12.6569V18.5858C47 19.6133 47 20.127 46.6913 20.2548C46.3827 20.3827 46.0194 20.0194 45.2929 19.2929L44.4142 18.4142C43.7475 17.7475 43.4142 17.4142 43 17.4142C42.5858 17.4142 42.2525 17.7475 41.5858 18.4142L40.7071 19.2929C39.9806 20.0194 39.6173 20.3827 39.3087 20.2548C39 20.127 39 19.6133 39 18.5858V12.6569C39 11.8394 39 11.4306 39.1522 11.0631C39.3045 10.6955 39.5935 10.4065 40.1716 9.82843L41.5858 8.41421L41.5858 8.41421C42.2525 7.74755 42.5858 7.41421 43 7.41421C43.4142 7.41421 43.7475 7.74755 44.4142 8.41421Z" stroke="white" stroke-linecap="round" stroke-linejoin="round"/>
</g>
<defs>
<clipPath id="clip0_1_2005">
<rect width="24" height="24" fill="white" transform="translate(2 2)"/>
</clipPath>
<clipPath id="clip1_1_2005">
<rect width="18" height="18" fill="white" transform="translate(34 5)"/>
</clipPath>
</defs>
</svg>
