<svg width="54" height="28" viewBox="0 0 54 28" fill="none" xmlns="http://www.w3.org/2000/svg">
<rect x="0.5" y="0.5" width="53" height="27" rx="4.5" stroke="#7B61FF" stroke-dasharray="10 5"/>
<g clip-path="url(#clip0_1_2077)">
<path d="M23 9.5L16.3431 16.1569C15.187 17.313 14.609 17.891 13.8739 18.1955C13.1388 18.5 12.3213 18.5 10.6863 18.5H5M23 9.5L15 9.5M23 9.5V17.5" stroke="white" stroke-width="2" stroke-linecap="round" stroke-linejoin="round"/>
</g>
<g clip-path="url(#clip1_1_2077)">
<path d="M49 10.5L44.3431 15.1569C43.187 16.313 42.609 16.891 41.8739 17.1955C41.1388 17.5 40.3213 17.5 38.6863 17.5H37M49 10.5H43.5M49 10.5V16" stroke="white" stroke-width="2" stroke-linecap="round" stroke-linejoin="round"/>
</g>
<defs>
<clipPath id="clip0_1_2077">
<rect width="24" height="24" fill="white" transform="translate(2 2)"/>
</clipPath>
<clipPath id="clip1_1_2077">
<rect width="18" height="18" fill="white" transform="translate(34 5)"/>
</clipPath>
</defs>
</svg>
