<svg width="54" height="28" viewBox="0 0 54 28" fill="none" xmlns="http://www.w3.org/2000/svg">
<rect x="0.5" y="0.5" width="53" height="27" rx="4.5" stroke="#7B61FF" stroke-dasharray="10 5"/>
<g clip-path="url(#clip0_1_1347)">
<path d="M6 4C5.44772 4 5 4.44772 5 5C5 5.55228 5.44772 6 6 6V4ZM16 14L15.8039 13.0194C15.3299 13.1142 14.9916 13.5344 15.0002 14.0177C15.0088 14.5011 15.3618 14.909 15.8389 14.9869L16 14ZM21 19H20H21ZM6 22C5.44772 22 5 22.4477 5 23C5 23.5523 5.44772 24 6 24V22ZM15.5757 23.0007L15.5595 24.0005L15.5757 23.0007ZM15.5343 23L15.5424 22.0001L15.5343 23ZM15.5455 5C15.5455 6 15.5451 6 15.5448 6C15.5447 6 15.5444 6 15.5443 6C15.544 6 15.5437 6 15.5436 6C15.5433 6 15.5433 6 15.5436 6C15.5442 6 15.5461 6.00002 15.5493 6.00005C15.5555 6.00013 15.5666 6.0003 15.5823 6.00068C15.6136 6.00144 15.6629 6.00306 15.7275 6.00644C15.8571 6.01323 16.0469 6.02707 16.2764 6.05511C16.7406 6.11184 17.3417 6.22371 17.9285 6.43888C18.5201 6.65582 19.0416 6.95742 19.4078 7.36017C19.7543 7.74137 20 8.25248 20 9H22C22 7.74752 21.5639 6.75863 20.8877 6.01483C20.2311 5.29258 19.389 4.84418 18.617 4.56112C17.8402 4.27629 17.0776 4.13816 16.519 4.06989C16.2372 4.03543 16.0008 4.01802 15.8321 4.00918C15.7477 4.00476 15.6798 4.00246 15.6311 4.00128C15.6068 4.00068 15.5873 4.00036 15.5729 4.00019C15.5657 4.00011 15.5598 4.00006 15.5552 4.00003C15.5529 4.00002 15.551 4.00001 15.5493 4.00001C15.5485 4 15.5478 4 15.5471 4C15.5468 4 15.5464 4 15.5462 4C15.5458 4 15.5455 4 15.5455 5ZM20 9C20 10.503 19.0849 11.4829 17.9855 12.1425C17.4407 12.4694 16.8872 12.6918 16.465 12.8325C16.2557 12.9023 16.083 12.9505 15.9658 12.9807C15.9073 12.9957 15.863 13.0062 15.8351 13.0125C15.8212 13.0156 15.8114 13.0178 15.8061 13.0189C15.8035 13.0195 15.8019 13.0198 15.8015 13.0199C15.8013 13.0199 15.8014 13.0199 15.8018 13.0198C15.802 13.0198 15.8023 13.0197 15.8026 13.0196C15.8028 13.0196 15.8031 13.0195 15.8032 13.0195C15.8035 13.0195 15.8039 13.0194 16 14C16.1961 14.9805 16.1965 14.9805 16.1969 14.9804C16.1971 14.9804 16.1975 14.9803 16.1978 14.9802C16.1985 14.9801 16.1992 14.9799 16.2 14.9798C16.2016 14.9794 16.2035 14.979 16.2057 14.9786C16.2101 14.9777 16.2158 14.9765 16.2226 14.9751C16.2362 14.9722 16.2545 14.9682 16.2772 14.963C16.3226 14.9527 16.3857 14.9378 16.4639 14.9177C16.6201 14.8775 16.8381 14.8164 17.0975 14.7299C17.6128 14.5581 18.3093 14.2806 19.0145 13.8575C20.4151 13.0171 22 11.497 22 9H20ZM16 14C15.8389 14.9869 15.8385 14.9868 15.8382 14.9868C15.8381 14.9868 15.8377 14.9867 15.8375 14.9867C15.8372 14.9866 15.8369 14.9866 15.8366 14.9865C15.8362 14.9865 15.836 14.9864 15.8361 14.9864C15.8364 14.9865 15.8378 14.9867 15.8403 14.9872C15.8453 14.9881 15.8548 14.9898 15.8684 14.9924C15.8957 14.9976 15.9394 15.0063 15.9972 15.0192C16.113 15.0451 16.284 15.0872 16.4915 15.15C16.9102 15.2767 17.4583 15.482 17.9972 15.7955C19.0715 16.4203 20 17.3943 20 19H22C22 16.4218 20.4285 14.8959 19.0028 14.0666C18.2917 13.653 17.5898 13.3928 17.071 13.2358C16.8097 13.1567 16.5901 13.1023 16.4325 13.0672C16.3536 13.0496 16.2899 13.0367 16.2439 13.0279C16.2209 13.0235 16.2023 13.0201 16.1884 13.0177C16.1814 13.0165 16.1757 13.0155 16.1711 13.0147C16.1688 13.0143 16.1669 13.014 16.1652 13.0137C16.1643 13.0136 16.1636 13.0134 16.1629 13.0133C16.1626 13.0133 16.1621 13.0132 16.162 13.0132C16.1615 13.0131 16.1611 13.013 16 14ZM20 19C20 19.7732 19.766 20.2935 19.4489 20.6698C19.1166 21.0642 18.6424 21.3584 18.0919 21.5702C16.973 22.0008 15.7729 22.0037 15.5919 22.0008L15.5595 24.0005C15.8137 24.0047 17.3257 24.008 18.8101 23.4368C19.5614 23.1477 20.3616 22.6905 20.9784 21.9585C21.6103 21.2085 22 20.2275 22 19H20ZM15.5118 22H9.63636V24H15.5118V22ZM9.63636 22H6V24H9.63636V22ZM6 6H9.63636V4H6V6ZM9.63636 6H15.5455V4H9.63636V6ZM10.6364 23V5H8.63636V23H10.6364ZM15.5919 22.0008C15.5708 22.0005 15.5518 22.0001 15.5424 22.0001L15.5262 24C15.524 24 15.523 24 15.5249 24C15.5263 24 15.5284 24 15.5315 24.0001C15.5379 24.0002 15.5469 24.0003 15.5595 24.0005L15.5919 22.0008ZM15.5118 24C15.5182 24 15.5221 24 15.525 24C15.5281 24 15.5278 24 15.5262 24L15.5424 22.0001C15.5331 22 15.5215 22 15.5118 22V24Z" fill="white"/>
</g>
<g clip-path="url(#clip1_1_1347)">
<path d="M37 7C36.7239 7 36.5 7.22386 36.5 7.5C36.5 7.77614 36.7239 8 37 8V7ZM44.5 7.49993L44.5 8.00009L44.5127 7.99977L44.5 7.49993ZM44.8636 13.9994L44.8153 13.5017C44.5531 13.5272 44.3556 13.7518 44.3639 14.0151C44.3722 14.2785 44.5834 14.4902 44.8467 14.4991L44.8636 13.9994ZM37 20C36.7239 20 36.5 20.2238 36.5 20.5C36.5 20.7761 36.7239 21 37 21V20ZM39.9091 20.5V21H39.9091L39.9091 20.5ZM44.5299 20.5005L44.523 21.0005L44.5299 20.5005ZM44.4672 20.4999L44.4672 20.9999L44.4672 20.4999ZM44.4857 20.4999L44.4823 20.9999L44.4857 20.4999ZM44.5 7.49993C44.5127 7.99977 44.5125 7.99977 44.5124 7.99978C44.5124 7.99978 44.5123 7.99978 44.5122 7.99978C44.5121 7.99978 44.5121 7.99978 44.5121 7.99978C44.5122 7.99978 44.5125 7.99978 44.513 7.99976C44.5142 7.99974 44.5163 7.9997 44.5195 7.99966C44.5258 7.99957 44.536 7.99947 44.5498 7.99944C44.5776 7.9994 44.6199 7.99968 44.6747 8.00108C44.7846 8.00388 44.9436 8.01114 45.1353 8.02905C45.5214 8.06511 46.0268 8.1432 46.5247 8.30802C47.0256 8.47384 47.488 8.7173 47.8207 9.06465C48.1421 9.4001 48.3636 9.85309 48.3636 10.4999H49.3636C49.3636 9.59135 49.0398 8.89162 48.5429 8.37292C48.0574 7.86612 47.4289 7.554 46.839 7.35868C46.2459 7.16236 45.6604 7.07374 45.2283 7.03338C45.0109 7.01307 44.8291 7.00469 44.7003 7.0014C44.6358 6.99976 44.5844 6.99939 44.5482 6.99945C44.5301 6.99948 44.5158 6.99961 44.5056 6.99976C44.5004 6.99983 44.4963 6.9999 44.4933 6.99996C44.4918 6.99999 44.4905 7.00002 44.4895 7.00004C44.489 7.00005 44.4886 7.00006 44.4882 7.00007C44.488 7.00007 44.4878 7.00008 44.4877 7.00008C44.4875 7.00009 44.4873 7.00009 44.5 7.49993ZM48.3636 10.4999C48.3636 11.7851 47.5576 12.5231 46.6451 12.9666C46.1898 13.1878 45.7288 13.3229 45.3781 13.4025C45.2038 13.442 45.0594 13.4672 44.96 13.4824C44.9105 13.4899 44.8723 13.495 44.8475 13.498C44.8351 13.4995 44.826 13.5006 44.8206 13.5012C44.8179 13.5015 44.816 13.5017 44.8152 13.5017C44.8147 13.5018 44.8145 13.5018 44.8145 13.5018C44.8145 13.5018 44.8146 13.5018 44.8147 13.5018C44.8148 13.5018 44.8149 13.5018 44.815 13.5018C44.8151 13.5018 44.8153 13.5017 44.8636 13.9994C44.912 14.4971 44.9122 14.497 44.9124 14.497C44.9125 14.497 44.9127 14.497 44.9129 14.497C44.9133 14.4969 44.9137 14.4969 44.9142 14.4968C44.9152 14.4967 44.9164 14.4966 44.9179 14.4965C44.9209 14.4962 44.9248 14.4957 44.9296 14.4952C44.9393 14.4941 44.9527 14.4926 44.9696 14.4905C45.0034 14.4864 45.0512 14.48 45.111 14.4709C45.2304 14.4527 45.3985 14.4232 45.5992 14.3777C45.9984 14.2872 46.5375 14.1307 47.0822 13.866C48.1697 13.3374 49.3636 12.3257 49.3636 10.4999H48.3636ZM44.8636 13.9994C44.8467 14.4991 44.8465 14.4991 44.8463 14.4991C44.8463 14.4991 44.8461 14.4991 44.8461 14.4991C44.8459 14.4991 44.8458 14.4991 44.8458 14.4991C44.8458 14.4991 44.8459 14.4991 44.8464 14.4991C44.8472 14.4991 44.849 14.4992 44.8516 14.4993C44.8569 14.4996 44.8658 14.5 44.8781 14.5008C44.9026 14.5023 44.9404 14.5049 44.9897 14.5095C45.0883 14.5186 45.2318 14.535 45.4051 14.5644C45.754 14.6236 46.2112 14.7329 46.662 14.9315C47.555 15.325 48.3636 16.0304 48.3636 17.389H49.3636C49.3636 15.4937 48.1723 14.5043 47.0653 14.0164C46.516 13.7744 45.9733 13.6465 45.5722 13.5785C45.3704 13.5443 45.2015 13.5247 45.0813 13.5137C45.0212 13.5082 44.9731 13.5047 44.939 13.5026C44.922 13.5016 44.9084 13.5009 44.8986 13.5004C44.8937 13.5002 44.8897 13.5 44.8867 13.4999C44.8852 13.4999 44.8839 13.4998 44.8829 13.4998C44.8824 13.4997 44.882 13.4997 44.8816 13.4997C44.8814 13.4997 44.8811 13.4997 44.881 13.4997C44.8808 13.4997 44.8806 13.4997 44.8636 13.9994ZM48.3636 17.389C48.3636 18.0462 48.1578 18.5115 47.8615 18.8558C47.557 19.2096 47.1327 19.4627 46.6639 19.64C45.7181 19.9976 44.7109 20.0029 44.5368 20.0005L44.523 21.0005C44.7328 21.0033 45.8925 21.0008 47.0176 20.5753C47.5842 20.361 48.1714 20.0287 48.6194 19.5081C49.0757 18.9779 49.3636 18.2797 49.3636 17.389H48.3636ZM44.4672 19.9999L39.9091 20L39.9091 21L44.4672 20.9999L44.4672 19.9999ZM39.9091 20H37V21H39.9091V20ZM37 8H39.9091V7H37V8ZM39.9091 8L44.5 7.99993L44.5 6.99993L39.9091 7L39.9091 8ZM40.4091 20.5V7.5H39.4091V20.5H40.4091ZM44.5368 20.0005C44.5114 20.0002 44.4949 20 44.4891 19.9999L44.4823 20.9999C44.482 20.9999 44.4842 20.9999 44.4923 21C44.4994 21.0001 44.5094 21.0003 44.523 21.0005L44.5368 20.0005ZM44.4672 20.9999C44.4783 20.9999 44.4811 20.9999 44.4823 20.9999L44.4891 19.9999C44.4835 19.9999 44.4762 19.9999 44.4672 19.9999L44.4672 20.9999Z" fill="white"/>
</g>
<defs>
<clipPath id="clip0_1_1347">
<rect width="24" height="24" fill="white" transform="translate(2 2)"/>
</clipPath>
<clipPath id="clip1_1_1347">
<rect width="18" height="18" fill="white" transform="translate(34 5)"/>
</clipPath>
</defs>
</svg>
