<svg width="18" height="18" viewBox="0 0 18 18" fill="none" xmlns="http://www.w3.org/2000/svg">
<g clip-path="url(#clip0_489_197767)">
<path d="M4 4.5C4 3.55719 4 3.08579 4.29289 2.79289C4.58579 2.5 5.05719 2.5 6 2.5H12C12.9428 2.5 13.4142 2.5 13.7071 2.79289C14 3.08579 14 3.55719 14 4.5V13.5C14 14.4428 14 14.9142 13.7071 15.2071C13.4142 15.5 12.9428 15.5 12 15.5H6C5.05719 15.5 4.58579 15.5 4.29289 15.2071C4 14.9142 4 14.4428 4 13.5V4.5Z" stroke="white" stroke-linecap="round" stroke-linejoin="round"/>
<path d="M6 13.5C6 13.2239 6.22386 13 6.5 13H7.5C7.77614 13 8 13.2239 8 13.5C8 13.7761 7.77614 14 7.5 14H6.5C6.22386 14 6 13.7761 6 13.5Z" fill="white"/>
<path d="M6 4.5C6 4.22386 6.22386 4 6.5 4H11.5C11.7761 4 12 4.22386 12 4.5C12 4.77614 11.7761 5 11.5 5H6.5C6.22386 5 6 4.77614 6 4.5Z" fill="white"/>
<path d="M7 7.5C7 7.77614 6.77614 8 6.5 8C6.22386 8 6 7.77614 6 7.5C6 7.22386 6.22386 7 6.5 7C6.77614 7 7 7.22386 7 7.5Z" fill="white"/>
<path d="M7 10.5C7 10.7761 6.77614 11 6.5 11C6.22386 11 6 10.7761 6 10.5C6 10.2239 6.22386 10 6.5 10C6.77614 10 7 10.2239 7 10.5Z" fill="white"/>
<path d="M9.5 10.5C9.5 10.7761 9.27614 11 9 11C8.72386 11 8.5 10.7761 8.5 10.5C8.5 10.2239 8.72386 10 9 10C9.27614 10 9.5 10.2239 9.5 10.5Z" fill="white"/>
<path d="M9.5 7.5C9.5 7.77614 9.27614 8 9 8C8.72386 8 8.5 7.77614 8.5 7.5C8.5 7.22386 8.72386 7 9 7C9.27614 7 9.5 7.22386 9.5 7.5Z" fill="white"/>
<path d="M12 7.5C12 7.77614 11.7761 8 11.5 8C11.2239 8 11 7.77614 11 7.5C11 7.22386 11.2239 7 11.5 7C11.7761 7 12 7.22386 12 7.5Z" fill="white"/>
<path d="M12 10.5C12 10.7761 11.7761 11 11.5 11C11.2239 11 11 10.7761 11 10.5C11 10.2239 11.2239 10 11.5 10C11.7761 10 12 10.2239 12 10.5Z" fill="white"/>
<path d="M12 13.5C12 13.7761 11.7761 14 11.5 14C11.2239 14 11 13.7761 11 13.5C11 13.2239 11.2239 13 11.5 13C11.7761 13 12 13.2239 12 13.5Z" fill="white"/>
</g>
<defs>
<clipPath id="clip0_489_197767">
<rect width="18" height="18" fill="white"/>
</clipPath>
</defs>
</svg>
