<svg width="18" height="18" viewBox="0 0 18 18" fill="none" xmlns="http://www.w3.org/2000/svg">
<g clip-path="url(#clip0_489_197860)">
<path d="M3.94444 15.5V13.3333M13.6944 15.5V13.3333M3.58333 8.27778L4.27031 5.52986C4.63409 4.07474 4.81598 3.34718 5.35851 2.92359C5.90103 2.5 6.65098 2.5 8.15088 2.5H9.84912C11.349 2.5 12.099 2.5 12.6415 2.92359C13.184 3.34718 13.3659 4.07474 13.7297 5.52986L14.4167 8.27778M3.58333 8.27778H14.4167M3.58333 8.27778C2.98502 8.27778 2.5 8.76187 2.5 9.36017C2.5 9.64384 2.5 9.99947 2.5 10.4444C2.5 10.7965 2.52518 11.1177 2.56614 11.4075C2.65527 12.038 2.69984 12.3532 3.26404 12.8433C3.82824 13.3333 4.30948 13.3333 5.27197 13.3333H12.1155C13.5007 13.3333 14.1933 13.3333 14.7654 12.8135C15.3374 12.2937 15.386 11.7873 15.4831 10.7744C15.494 10.6609 15.5 10.5503 15.5 10.4444C15.5 10.0548 15.5 9.683 15.5 9.36085C15.5 8.76255 15.015 8.27778 14.4167 8.27778" stroke="white" stroke-linecap="round" stroke-linejoin="round"/>
<path d="M6 10.5C6 10.9142 5.66421 11.25 5.25 11.25C4.83579 11.25 4.5 10.9142 4.5 10.5C4.5 10.0858 4.83579 9.75 5.25 9.75C5.66421 9.75 6 10.0858 6 10.5Z" fill="white"/>
<path d="M13.5 10.5C13.5 10.9142 13.1642 11.25 12.75 11.25C12.3358 11.25 12 10.9142 12 10.5C12 10.0858 12.3358 9.75 12.75 9.75C13.1642 9.75 13.5 10.0858 13.5 10.5Z" fill="white"/>
</g>
<defs>
<clipPath id="clip0_489_197860">
<rect width="18" height="18" fill="white"/>
</clipPath>
</defs>
</svg>
