<svg width="54" height="28" viewBox="0 0 54 28" fill="none" xmlns="http://www.w3.org/2000/svg">
<rect x="0.5" y="0.5" width="53" height="27" rx="4.5" stroke="#7B61FF" stroke-dasharray="10 5"/>
<g clip-path="url(#clip0_1_1597)">
<g clip-path="url(#clip1_1_1597)">
<circle cx="14" cy="14" r="9" transform="rotate(-180 14 14)" stroke="white" stroke-width="2"/>
<path d="M15.696 16.2864L17.0875 14.06C17.9331 12.707 18.356 12.0305 18.0704 11.5152C17.7848 11 16.9871 11 15.3915 11L12.6085 11C11.0129 11 10.2152 11 9.92961 11.5152C9.64404 12.0305 10.0669 12.707 10.9125 14.06L12.304 16.2864C13.0652 17.5043 13.4458 18.1132 14 18.1132C14.5542 18.1132 14.9348 17.5043 15.696 16.2864Z" fill="white"/>
</g>
</g>
<g clip-path="url(#clip2_1_1597)">
<g clip-path="url(#clip3_1_1597)">
<circle cx="43" cy="14" r="6.5" transform="rotate(-180 43 14)" stroke="white"/>
<path d="M44.6641 15.0038L44.9271 14.6094C45.8396 13.2407 46.2958 12.5563 46.0132 12.0281C45.7305 11.5 44.908 11.5 43.263 11.5L42.737 11.5C41.092 11.5 40.2695 11.5 39.9868 12.0281C39.7042 12.5563 40.1604 13.2407 41.0729 14.6094L41.3359 15.0038C42.0885 16.1328 42.4648 16.6972 43 16.6972C43.5352 16.6972 43.9115 16.1328 44.6641 15.0038Z" fill="white"/>
</g>
</g>
<defs>
<clipPath id="clip0_1_1597">
<rect width="24" height="24" fill="white" transform="translate(2 2)"/>
</clipPath>
<clipPath id="clip1_1_1597">
<rect width="24" height="24" fill="white" transform="translate(26 26) rotate(-180)"/>
</clipPath>
<clipPath id="clip2_1_1597">
<rect width="18" height="18" fill="white" transform="translate(34 5)"/>
</clipPath>
<clipPath id="clip3_1_1597">
<rect width="18" height="18" fill="white" transform="translate(52 23) rotate(-180)"/>
</clipPath>
</defs>
</svg>
