<svg width="54" height="28" viewBox="0 0 54 28" fill="none" xmlns="http://www.w3.org/2000/svg">
<rect x="0.5" y="0.5" width="53" height="27" rx="4.5" stroke="#7B61FF" stroke-dasharray="10 5"/>
<g clip-path="url(#clip0_1_2272)">
<path d="M7 14V19M7 14H14M7 14V9M21 14V19M21 14H14M21 14V9M14 14V9M14 14V19" stroke="white" stroke-width="2"/>
<path d="M16 7C16 8.10457 15.1046 9 14 9C12.8954 9 12 8.10457 12 7C12 5.89543 12.8954 5 14 5C15.1046 5 16 5.89543 16 7Z" stroke="white" stroke-width="2"/>
<path d="M9 7C9 8.10457 8.10457 9 7 9C5.89543 9 5 8.10457 5 7C5 5.89543 5.89543 5 7 5C8.10457 5 9 5.89543 9 7Z" stroke="white" stroke-width="2"/>
<path d="M23 7C23 8.10457 22.1046 9 21 9C19.8954 9 19 8.10457 19 7C19 5.89543 19.8954 5 21 5C22.1046 5 23 5.89543 23 7Z" stroke="white" stroke-width="2"/>
<path d="M16 21C16 22.1046 15.1046 23 14 23C12.8954 23 12 22.1046 12 21C12 19.8954 12.8954 19 14 19C15.1046 19 16 19.8954 16 21Z" stroke="white" stroke-width="2"/>
<path d="M9 21C9 22.1046 8.10457 23 7 23C5.89543 23 5 22.1046 5 21C5 19.8954 5.89543 19 7 19C8.10457 19 9 19.8954 9 21Z" stroke="white" stroke-width="2"/>
<path d="M23 21C23 22.1046 22.1046 23 21 23C19.8954 23 19 22.1046 19 21C19 19.8954 19.8954 19 21 19C22.1046 19 23 19.8954 23 21Z" stroke="white" stroke-width="2"/>
</g>
<g clip-path="url(#clip1_1_2272)">
<path d="M38 14V17.5M38 14H43M38 14V10.5M48 14V17.5M48 14H43M48 14V10.5M43 14V10.5M43 14V17.5" stroke="white"/>
<path d="M44.5 9C44.5 9.82843 43.8284 10.5 43 10.5C42.1716 10.5 41.5 9.82843 41.5 9C41.5 8.17157 42.1716 7.5 43 7.5C43.8284 7.5 44.5 8.17157 44.5 9Z" stroke="white"/>
<path d="M39.5 9C39.5 9.82843 38.8284 10.5 38 10.5C37.1716 10.5 36.5 9.82843 36.5 9C36.5 8.17157 37.1716 7.5 38 7.5C38.8284 7.5 39.5 8.17157 39.5 9Z" stroke="white"/>
<path d="M49.5 9C49.5 9.82843 48.8284 10.5 48 10.5C47.1716 10.5 46.5 9.82843 46.5 9C46.5 8.17157 47.1716 7.5 48 7.5C48.8284 7.5 49.5 8.17157 49.5 9Z" stroke="white"/>
<path d="M44.5 19C44.5 19.8284 43.8284 20.5 43 20.5C42.1716 20.5 41.5 19.8284 41.5 19C41.5 18.1716 42.1716 17.5 43 17.5C43.8284 17.5 44.5 18.1716 44.5 19Z" stroke="white"/>
<path d="M39.5 19C39.5 19.8284 38.8284 20.5 38 20.5C37.1716 20.5 36.5 19.8284 36.5 19C36.5 18.1716 37.1716 17.5 38 17.5C38.8284 17.5 39.5 18.1716 39.5 19Z" stroke="white"/>
<path d="M49.5 19C49.5 19.8284 48.8284 20.5 48 20.5C47.1716 20.5 46.5 19.8284 46.5 19C46.5 18.1716 47.1716 17.5 48 17.5C48.8284 17.5 49.5 18.1716 49.5 19Z" stroke="white"/>
</g>
<defs>
<clipPath id="clip0_1_2272">
<rect width="24" height="24" fill="white" transform="translate(2 2)"/>
</clipPath>
<clipPath id="clip1_1_2272">
<rect width="18" height="18" fill="white" transform="translate(34 5)"/>
</clipPath>
</defs>
</svg>
