<svg width="54" height="28" viewBox="0 0 54 28" fill="none" xmlns="http://www.w3.org/2000/svg">
<rect x="0.5" y="0.5" width="53" height="27" rx="4.5" stroke="#7B61FF" stroke-dasharray="10 5"/>
<g clip-path="url(#clip0_1_2148)">
<path d="M16 14C16 15.1046 15.1046 16 14 16C12.8954 16 12 15.1046 12 14C12 12.8954 12.8954 12 14 12C15.1046 12 16 12.8954 16 14Z" fill="white"/>
</g>
<g clip-path="url(#clip1_1_2148)">
<path d="M44 14C44 14.5523 43.5523 15 43 15C42.4477 15 42 14.5523 42 14C42 13.4477 42.4477 13 43 13C43.5523 13 44 13.4477 44 14Z" fill="white"/>
</g>
<defs>
<clipPath id="clip0_1_2148">
<rect width="24" height="24" fill="white" transform="translate(2 2)"/>
</clipPath>
<clipPath id="clip1_1_2148">
<rect width="18" height="18" fill="white" transform="translate(34 5)"/>
</clipPath>
</defs>
</svg>
