<svg width="54" height="28" viewBox="0 0 54 28" fill="none" xmlns="http://www.w3.org/2000/svg">
<rect x="0.5" y="0.5" width="53" height="27" rx="4.5" stroke="#7B61FF" stroke-dasharray="10 5"/>
<g clip-path="url(#clip0_1_191)">
<path d="M5 17V19C5 20.8856 5 21.8284 5.58579 22.4142C6.17157 23 7.11438 23 9 23H19C20.8856 23 21.8284 23 22.4142 22.4142C23 21.8284 23 20.8856 23 19V17" stroke="white" stroke-width="2" stroke-linecap="round"/>
<path d="M14 5V18M14 18L8 11.9286M14 18L20 11.9286" stroke="white" stroke-width="2" stroke-linecap="round" stroke-linejoin="round"/>
</g>
<g clip-path="url(#clip1_1_191)">
<path d="M36.5 16.8L36.5 18.5001C36.5 19.4429 36.5 19.9143 36.7929 20.2072C37.0858 20.5001 37.5572 20.5001 38.5 20.5001H47.5C48.4428 20.5001 48.9142 20.5001 49.2071 20.2072C49.5 19.9143 49.5 19.4429 49.5 18.5001L49.5 16.8" stroke="white" stroke-linecap="round"/>
<path d="M43 7.5V16.8M43 16.8L39 12.55M43 16.8L47 12.55" stroke="white" stroke-linecap="round" stroke-linejoin="round"/>
</g>
<defs>
<clipPath id="clip0_1_191">
<rect width="24" height="24" fill="white" transform="translate(2 2)"/>
</clipPath>
<clipPath id="clip1_1_191">
<rect width="18" height="18" fill="white" transform="translate(34 5)"/>
</clipPath>
</defs>
</svg>
