<svg width="24" height="24" viewBox="0 0 24 24" fill="none" xmlns="http://www.w3.org/2000/svg">
<path d="M5.42273 5.15954C5.42273 3.41592 6.83621 2.00244 8.57983 2.00244H11.7369V8.31664H8.57983C6.83621 8.31664 5.42273 6.90316 5.42273 5.15954Z" fill="white"/>
<path d="M18.5773 5.15954C18.5773 6.90316 17.1638 8.31664 15.4202 8.31664H12.2631V2.00244H15.4202C17.1638 2.00244 18.5773 3.41592 18.5773 5.15954Z" fill="white"/>
<path d="M5.42273 11.9999C5.42273 10.2563 6.83621 8.84277 8.57983 8.84277H11.7369V15.157H8.57983C6.83621 15.157 5.42273 13.7435 5.42273 11.9999Z" fill="white"/>
<path d="M12.2631 11.9999C12.2631 10.2563 13.6765 8.84277 15.4202 8.84277C17.1638 8.84277 18.5773 10.2563 18.5773 11.9999C18.5773 13.7435 17.1638 15.157 15.4202 15.157C13.6765 15.157 12.2631 13.7435 12.2631 11.9999Z" fill="white"/>
<path d="M5.42273 18.8402C5.42273 17.0966 6.83621 15.6831 8.57983 15.6831H11.7369V18.8402C11.7369 20.5838 10.3234 21.9973 8.57983 21.9973C6.83621 21.9973 5.42273 20.5838 5.42273 18.8402Z" fill="white"/>
</svg>
