<svg width="54" height="28" viewBox="0 0 54 28" fill="none" xmlns="http://www.w3.org/2000/svg">
<rect x="0.5" y="0.5" width="53" height="27" rx="4.5" stroke="#7B61FF" stroke-dasharray="10 5"/>
<g clip-path="url(#clip0_1_671)">
<path d="M8.79193 23C8.00593 22.2307 6.00001 21.5 6.4341 18.0769C6.83486 14.9167 6.78385 14.0615 6.4341 12.6923C6.00785 11.0236 9.57794 15 11.1498 15.7692C11.9358 16.1538 10.3639 12.6923 11.9358 10.3846C13.5077 8.07692 12.7218 7.77702 12.7218 5C14.0317 5.25641 17.7519 6.53846 15.8656 12.6923C13.5078 20.3846 17.1347 10.29 20.5813 9.61538C24.5111 8.84615 19.2016 12.1603 21.3673 17.3077C22.5 20 20.5 22.5 19.5 23" stroke="white" stroke-width="2" stroke-linecap="round" stroke-linejoin="round"/>
</g>
<g clip-path="url(#clip1_1_671)">
<path d="M39.3544 20.5C38.8141 19.9615 37.0934 18.6379 37.7334 17C38.5 15.0385 37.9739 13.843 37.7334 12.8846C37.4404 11.7165 39.8948 14.5 40.9755 15.0385C41.5159 15.3077 40.4352 12.8846 41.5159 11.2692C42.5966 9.65385 42.0562 9.44391 42.0562 7.5C42.9568 7.67949 45.5144 8.57692 44.2176 12.8846C42.5966 18.2692 45.0901 11.203 47.4597 10.7308C50.1614 10.1923 46.178 12.6817 48 16.1154C49 18 47.5 20 46.5 20.5" stroke="white" stroke-linecap="round" stroke-linejoin="round"/>
</g>
<defs>
<clipPath id="clip0_1_671">
<rect width="24" height="24" fill="white" transform="translate(2 2)"/>
</clipPath>
<clipPath id="clip1_1_671">
<rect width="18" height="18" fill="white" transform="translate(34 5)"/>
</clipPath>
</defs>
</svg>
