<svg width="54" height="28" viewBox="0 0 54 28" fill="none" xmlns="http://www.w3.org/2000/svg">
<rect x="0.5" y="0.5" width="53" height="27" rx="4.5" stroke="#7B61FF" stroke-dasharray="10 5"/>
<g clip-path="url(#clip0_1_1120)">
<path d="M23 14V13C23 11.1144 23 10.1716 22.4142 9.58579C21.8284 9 20.8856 9 19 9C18.0186 9 17.5279 9 17.1056 8.78885C16.6833 8.57771 16.3889 8.18514 15.8 7.4L15.2 6.6C14.6111 5.81486 14.3167 5.42229 13.8944 5.21115C13.4721 5 12.9814 5 12 5H9C7.11439 5 6.17158 5 5.58579 5.58579C5 6.17157 5 7.11438 5 9V19C5 20.8856 5 21.8284 5.58579 22.4142C6.17158 23 7.11439 23 9 23H14" stroke="white" stroke-width="2" stroke-linecap="round"/>
<path d="M20.5 23C20.5 23.5523 20.0523 24 19.5 24C18.9477 24 18.5 23.5523 18.5 23C18.5 22.4477 18.9477 22 19.5 22C20.0523 22 20.5 22.4477 20.5 23Z" fill="white"/>
<path d="M19.5 15V19.5" stroke="white" stroke-width="2" stroke-linecap="round"/>
<path d="M20 9H4" stroke="white" stroke-width="2"/>
</g>
<g clip-path="url(#clip1_1_1120)">
<path d="M47 20.5C47 20.7761 46.7761 21 46.5 21C46.2239 21 46 20.7761 46 20.5C46 20.2239 46.2239 20 46.5 20C46.7761 20 47 20.2239 47 20.5Z" fill="white"/>
<path d="M46.5 15V18.5" stroke="white" stroke-linecap="round"/>
<path d="M45 10.5L43.5937 8.3906C43.3031 7.95463 43.1578 7.73665 42.9367 7.61833C42.7156 7.5 42.4536 7.5 41.9296 7.5H38.5C37.5572 7.5 37.0858 7.5 36.7929 7.79289C36.5 8.08579 36.5 8.55719 36.5 9.5L36.5 18.5C36.5 19.4428 36.5 19.9142 36.7929 20.2071C37.0858 20.5 37.5572 20.5 38.5 20.5H43M45 10.5H47.5C48.4428 10.5 48.9142 10.5 49.2071 10.7929C49.5 11.0858 49.5 11.5572 49.5 12.5V13.5M45 10.5H36.5" stroke="white" stroke-linecap="round"/>
</g>
<defs>
<clipPath id="clip0_1_1120">
<rect width="24" height="24" fill="white" transform="translate(2 2)"/>
</clipPath>
<clipPath id="clip1_1_1120">
<rect width="18" height="18" fill="white" transform="translate(34 5)"/>
</clipPath>
</defs>
</svg>
