<svg width="54" height="28" viewBox="0 0 54 28" fill="none" xmlns="http://www.w3.org/2000/svg">
<rect x="0.5" y="0.5" width="53" height="27" rx="4.5" stroke="#7B61FF" stroke-dasharray="10 5"/>
<g clip-path="url(#clip0_1_1738)">
<path d="M19 5H9C7.11438 5 6.17157 5 5.58579 5.58579C5 6.17157 5 7.11438 5 9V19C5 20.8856 5 21.8284 5.58579 22.4142C6.17157 23 7.11438 23 9 23H19C20.8856 23 21.8284 23 22.4142 22.4142C23 21.8284 23 20.8856 23 19V9C23 7.11438 23 6.17157 22.4142 5.58579C21.8284 5 20.8856 5 19 5Z" stroke="white" stroke-width="2"/>
<path d="M14 5V23M9.5 5V23M18.5 5V23M23 14H5M23 9.95H5M23 18.05H5" stroke="white" stroke-linecap="round"/>
</g>
<g clip-path="url(#clip1_1_1738)">
<path d="M47.5 7.5H38.5C37.5572 7.5 37.0858 7.5 36.7929 7.79289C36.5 8.08579 36.5 8.55719 36.5 9.5V18.5C36.5 19.4428 36.5 19.9142 36.7929 20.2071C37.0858 20.5 37.5572 20.5 38.5 20.5H47.5C48.4428 20.5 48.9142 20.5 49.2071 20.2071C49.5 19.9142 49.5 19.4428 49.5 18.5V9.5C49.5 8.55719 49.5 8.08579 49.2071 7.79289C48.9142 7.5 48.4428 7.5 47.5 7.5Z" stroke="white"/>
<path d="M43 8V20M40 8V20M46 8V20M49 14H37M49 11H37M49 17H37" stroke="white" stroke-width="0.5" stroke-linecap="round"/>
</g>
<defs>
<clipPath id="clip0_1_1738">
<rect width="24" height="24" fill="white" transform="translate(2 2)"/>
</clipPath>
<clipPath id="clip1_1_1738">
<rect width="18" height="18" fill="white" transform="translate(34 5)"/>
</clipPath>
</defs>
</svg>
