<svg width="54" height="28" viewBox="0 0 54 28" fill="none" xmlns="http://www.w3.org/2000/svg">
<rect x="0.5" y="0.5" width="53" height="27" rx="4.5" stroke="#7B61FF" stroke-dasharray="10 5"/>
<g clip-path="url(#clip0_1_2786)">
<path d="M7 9L9.15241 11.2076C10.4386 12.5268 11.0817 13.1864 11.0817 14C11.0817 14.8136 10.4386 15.4732 9.15241 16.7924L7 19M21 9L18.8476 11.2076C17.5614 12.5268 16.9183 13.1864 16.9183 14C16.9183 14.8136 17.5614 15.4732 18.8476 16.7924L21 19" stroke="white" stroke-width="2" stroke-linecap="round" stroke-linejoin="round"/>
</g>
<g clip-path="url(#clip1_1_2786)">
<path d="M38.5 11L40.1247 12.5553C40.8334 13.2337 41.1878 13.5729 41.1878 14C41.1878 14.4271 40.8334 14.7663 40.1247 15.4447L38.5 17M47.5 11L45.8753 12.5553C45.1666 13.2337 44.8122 13.5729 44.8122 14C44.8122 14.4271 45.1666 14.7663 45.8753 15.4447L47.5 17" stroke="white" stroke-linecap="round" stroke-linejoin="round"/>
</g>
<defs>
<clipPath id="clip0_1_2786">
<rect width="24" height="24" fill="white" transform="translate(2 2)"/>
</clipPath>
<clipPath id="clip1_1_2786">
<rect width="18" height="18" fill="white" transform="translate(34 5)"/>
</clipPath>
</defs>
</svg>
