<svg width="18" height="18" viewBox="0 0 18 18" fill="none" xmlns="http://www.w3.org/2000/svg">
<path d="M5 3.5H13L12.1834 13.2993C12.1187 14.0756 12.0864 14.4638 11.9144 14.7576C11.7631 15.0163 11.5376 15.2237 11.2672 15.3531C10.9602 15.5 10.5707 15.5 9.79168 15.5H8.20832C7.42931 15.5 7.03981 15.5 6.73276 15.3531C6.46237 15.2237 6.23695 15.0163 6.08556 14.7576C5.91365 14.4638 5.8813 14.0756 5.81661 13.2993L5 3.5Z" stroke="white"/>
<path d="M12 7.5V11H6V7.5H12Z" fill="white" stroke="white"/>
<path d="M4.5 3.5H13.5" stroke="white" stroke-linecap="round" stroke-linejoin="round"/>
<path d="M12.191 2.5C12.3804 2.5 12.5535 2.607 12.6382 2.77639C12.8044 3.10884 12.5627 3.5 12.191 3.5H5.80902C5.43733 3.5 5.19558 3.10884 5.3618 2.77639C5.4465 2.607 5.61963 2.5 5.80902 2.5H12.191Z" stroke="white"/>
</svg>
