<svg width="24" height="24" viewBox="0 0 24 24" fill="none" xmlns="http://www.w3.org/2000/svg">
<g clip-path="url(#clip0_489_191375)">
<path d="M18 17V7C18 5.11438 18 4.17157 17.4142 3.58579C16.8284 3 15.8856 3 14 3H10C8.11438 3 7.17157 3 6.58579 3.58579C6 4.17157 6 5.11438 6 7V17C6 18.8856 6 19.8284 6.58579 20.4142C7.17157 21 8.11438 21 10 21H14C15.8856 21 16.8284 21 17.4142 20.4142C18 19.8284 18 18.8856 18 17Z" stroke="white" stroke-width="2"/>
<path d="M10 5H14C14.5523 5 15 4.55228 15 4C15 3.44772 14.5523 3 14 3L10 3C9.44771 3 9 3.44772 9 4C9 4.55228 9.44772 5 10 5Z" fill="white"/>
<path d="M9 18L15 18" stroke="white" stroke-linecap="round"/>
</g>
<defs>
<clipPath id="clip0_489_191375">
<rect width="24" height="24" fill="white"/>
</clipPath>
</defs>
</svg>
