<svg width="24" height="24" viewBox="0 0 24 24" fill="none" xmlns="http://www.w3.org/2000/svg">
<path d="M12 3C9.79086 3 8 4.79086 8 7C8 9.70141 10 10.6265 10 10.6265V19L12 21L15 18.5L14 17V15L15.5 13.5L14 12V10.6265C14 10.6265 16 9.56376 16 7C16 4.79086 14.2091 3 12 3Z" stroke="white" stroke-width="2" stroke-linejoin="round"/>
<path d="M12.75 6.25C12.75 6.66421 12.4142 7 12 7C11.5858 7 11.25 6.66421 11.25 6.25C11.25 5.83579 11.5858 5.5 12 5.5C12.4142 5.5 12.75 5.83579 12.75 6.25Z" fill="white"/>
</svg>
