<svg width="54" height="28" viewBox="0 0 54 28" fill="none" xmlns="http://www.w3.org/2000/svg">
<rect x="0.5" y="0.5" width="53" height="27" rx="4.5" stroke="#7B61FF" stroke-dasharray="10 5"/>
<g clip-path="url(#clip0_1_2903)">
<path d="M20 10.953C20 12.3001 19.6952 13.6298 19.1085 14.8424L17.0027 19.1944C15.9731 21.3221 15.4584 22.3859 14.7271 22.6713C14.2595 22.8537 13.7405 22.8537 13.2729 22.6713C12.5416 22.3859 12.0269 21.3221 10.9973 19.1944L8.89153 14.8424C8.30479 13.6298 8 12.3001 8 10.953C8 7.66527 10.7122 5 14 5C17.2878 5 20 7.66527 20 10.953Z" stroke="white" stroke-width="2"/>
<path d="M16 11C16 12.1046 15.1046 13 14 13C12.8954 13 12 12.1046 12 11C12 9.89543 12.8954 9 14 9C15.1046 9 16 9.89543 16 11Z" fill="white"/>
</g>
<g clip-path="url(#clip1_1_2903)">
<path d="M47 11.513C47 12.7404 46.7323 13.9591 46.2155 15.0724L44.2691 19.2659C43.963 19.9254 43.8099 20.2551 43.6309 20.4006C43.2634 20.6995 42.7366 20.6995 42.3691 20.4006C42.1901 20.2551 42.037 19.9254 41.7309 19.2659L39.7845 15.0724C39.2677 13.9591 39 12.7404 39 11.513C39 9.30384 40.7909 7.5 43 7.5C45.2091 7.5 47 9.30384 47 11.513Z" stroke="white"/>
<path d="M44.5 11.5C44.5 12.3284 43.8284 13 43 13C42.1716 13 41.5 12.3284 41.5 11.5C41.5 10.6716 42.1716 10 43 10C43.8284 10 44.5 10.6716 44.5 11.5Z" fill="white"/>
</g>
<defs>
<clipPath id="clip0_1_2903">
<rect width="24" height="24" fill="white" transform="translate(2 2)"/>
</clipPath>
<clipPath id="clip1_1_2903">
<rect width="18" height="18" fill="white" transform="translate(34 5)"/>
</clipPath>
</defs>
</svg>
