<svg width="24" height="24" viewBox="0 0 24 24" fill="none" xmlns="http://www.w3.org/2000/svg">
<path d="M7 4H17C18.8856 4 19.8284 4 20.4142 4.58579C21 5.17157 21 6.11438 21 8V17C21 18.7823 19.0745 19.8997 17.527 19.0154L14.6522 17.3727C14.4625 17.2643 14.3677 17.2101 14.269 17.167C14.0829 17.0858 13.8855 17.0334 13.6835 17.0116C13.5765 17 13.4673 17 13.2488 17H7C5.11438 17 4.17157 17 3.58579 16.4142C3 15.8284 3 14.8856 3 13V8C3 6.11438 3 5.17157 3.58579 4.58579C4.17157 4 5.11438 4 7 4Z" stroke="white" stroke-width="2" stroke-linecap="round"/>
</svg>
