<svg width="18" height="18" viewBox="0 0 18 18" fill="none" xmlns="http://www.w3.org/2000/svg">
<path d="M7 4.41177H11C12.8856 4.41177 13.8284 4.41177 14.4142 4.99755C15 5.58334 15 6.52615 15 8.41177V9.87404C15 10.3738 15 10.6237 14.9556 10.831C14.7905 11.6009 14.1891 12.2023 13.4192 12.3673C13.212 12.4118 12.9621 12.4118 12.4623 12.4118C12.2277 12.4118 12.1104 12.4118 11.9985 12.4244C11.5898 12.4706 11.2053 12.6416 10.8974 12.9142C10.813 12.9889 10.7345 13.076 10.5774 13.2502L10.5774 13.2503L10.2948 13.5638C9.78321 14.1312 9.52743 14.415 9.21327 14.4835C9.07274 14.5142 8.92726 14.5142 8.78673 14.4835C8.47258 14.415 8.21679 14.1312 7.70522 13.5638L7.70521 13.5638L7.42259 13.2503L7.42257 13.2502C7.26551 13.076 7.18697 12.9889 7.10262 12.9142C6.79469 12.6416 6.4102 12.4706 6.00155 12.4244C5.8896 12.4118 5.77231 12.4118 5.53773 12.4118C5.03794 12.4118 4.78805 12.4118 4.5808 12.3673C3.81089 12.2023 3.20946 11.6009 3.04443 10.831C3 10.6237 3 10.3738 3 9.87404V8.41177C3 6.52615 3 5.58334 3.58579 4.99755C4.17157 4.41177 5.11438 4.41177 7 4.41177Z" stroke="white" stroke-linecap="round"/>
<path d="M7.77277 8.73832C7.53824 8.66599 7.53824 8.33401 7.77277 8.26169C8.24566 8.11586 8.61586 7.74565 8.76169 7.27277C8.83402 7.03824 9.16599 7.03824 9.23832 7.27277C9.38415 7.74565 9.75435 8.11586 10.2272 8.26169C10.4618 8.33401 10.4618 8.66599 10.2272 8.73832C9.75435 8.88415 9.38415 9.25435 9.23832 9.72724C9.16599 9.96177 8.83402 9.96177 8.76169 9.72724C8.61586 9.25435 8.24566 8.88415 7.77277 8.73832Z" fill="white"/>
</svg>
