<svg width="18" height="18" viewBox="0 0 18 18" fill="none" xmlns="http://www.w3.org/2000/svg">
<path d="M6 2.5H12" stroke="white" stroke-linecap="round"/>
<path d="M6 15.5H12" stroke="white" stroke-linecap="round"/>
<path d="M8 6H10C10.9428 6 11.4142 6 11.7071 6.29289C12 6.58579 12 7.05719 12 8V10C12 10.9428 12 11.4142 11.7071 11.7071C11.4142 12 10.9428 12 10 12H8C7.05719 12 6.58579 12 6.29289 11.7071C6 11.4142 6 10.9428 6 10V8C6 7.05719 6 6.58579 6.29289 6.29289C6.58579 6 7.05719 6 8 6Z" stroke="white" stroke-linecap="round"/>
</svg>
