<svg width="24" height="24" viewBox="0 0 24 24" fill="none" xmlns="http://www.w3.org/2000/svg">
<g clip-path="url(#clip0_489_191437)">
<path d="M5.71608 10.7827C4.34071 10.095 3.65302 9.7512 3.35271 9.23264C3.10673 8.80789 3.02554 8.30752 3.12457 7.82679C3.24549 7.23986 3.78915 6.6962 4.87648 5.60887L5.6088 4.87655C6.69613 3.78923 7.23979 3.24556 7.82671 3.12465C8.30745 3.02561 8.80781 3.10681 9.23256 3.35278C9.75113 3.65309 10.095 4.34078 10.7827 5.71615C11.0923 6.3354 11.2471 6.64502 11.4607 6.90532C11.6383 7.12177 11.8454 7.31229 12.0758 7.47133C12.353 7.66258 12.6744 7.79115 13.3172 8.04828L13.539 8.13699C15.6215 8.97 16.6628 9.3865 16.9793 10.1893C17.0642 10.4046 17.1111 10.633 17.1179 10.8644C17.1432 11.727 16.3502 12.52 14.7642 14.1059L14.1059 14.7643C12.5199 16.3502 11.7269 17.1432 10.8643 17.118C10.633 17.1112 10.4045 17.0643 10.1892 16.9794C9.38643 16.6628 8.96993 15.6216 8.13692 13.5391L8.04821 13.3173C7.79108 12.6745 7.66251 12.3531 7.47126 12.0759C7.31222 11.8455 7.1217 11.6384 6.90525 11.4608C6.64495 11.2472 6.33533 11.0924 5.71608 10.7827Z" stroke="white" stroke-width="2" stroke-linecap="round"/>
<path d="M20 20.0001L15.0503 15.0503" stroke="white" stroke-width="2" stroke-linecap="round"/>
</g>
<defs>
<clipPath id="clip0_489_191437">
<rect width="24" height="24" fill="white"/>
</clipPath>
</defs>
</svg>
