<svg width="54" height="28" viewBox="0 0 54 28" fill="none" xmlns="http://www.w3.org/2000/svg">
<rect x="0.5" y="0.5" width="53" height="27" rx="4.5" stroke="#7B61FF" stroke-dasharray="10 5"/>
<g clip-path="url(#clip0_1_678)">
<path d="M7.71608 12.7827C6.34071 12.095 5.65302 11.7512 5.35271 11.2326C5.10673 10.8079 5.02554 10.3075 5.12457 9.82679C5.24549 9.23986 5.78915 8.6962 6.87648 7.60887L7.6088 6.87655C8.69613 5.78923 9.23979 5.24556 9.82671 5.12465C10.3074 5.02561 10.8078 5.10681 11.2326 5.35278C11.7511 5.65309 12.095 6.34078 12.7827 7.71615C13.0923 8.3354 13.2471 8.64502 13.4607 8.90532C13.6383 9.12177 13.8454 9.31229 14.0758 9.47133C14.353 9.66258 14.6744 9.79115 15.3172 10.0483L15.539 10.137C17.6215 10.97 18.6628 11.3865 18.9793 12.1893C19.0642 12.4046 19.1111 12.633 19.1179 12.8644C19.1432 13.727 18.3502 14.52 16.7642 16.1059L16.1059 16.7643C14.5199 18.3502 13.7269 19.1432 12.8643 19.118C12.633 19.1112 12.4045 19.0643 12.1892 18.9794C11.3864 18.6628 10.9699 17.6216 10.1369 15.5391L10.0482 15.3173C9.79108 14.6745 9.66251 14.3531 9.47126 14.0759C9.31222 13.8455 9.1217 13.6384 8.90525 13.4608C8.64495 13.2472 8.33533 13.0924 7.71608 12.7827Z" stroke="white" stroke-width="2" stroke-linecap="round"/>
<path d="M22 22.0001L17.0503 17.0503" stroke="white" stroke-width="2" stroke-linecap="round"/>
</g>
<g clip-path="url(#clip1_1_678)">
<path d="M37.7565 12.5658C36.942 12.1772 36.5347 11.9828 36.382 11.6658C36.3008 11.4973 36.2685 11.3093 36.2888 11.1233C36.327 10.7735 36.6461 10.4544 37.2842 9.81626L38.7947 8.30576C39.4831 7.61742 39.8272 7.27325 40.2127 7.25442C40.3494 7.24773 40.4861 7.26921 40.6143 7.31752C40.9753 7.45366 41.1974 7.8868 41.6414 8.75307C42.0082 9.46848 42.1915 9.82618 42.4551 10.1181C42.5523 10.2258 42.6571 10.3262 42.7688 10.4186C43.0718 10.6695 43.4371 10.8373 44.1676 11.1729L44.6315 11.3861C45.8184 11.9314 46.4118 12.204 46.5039 12.7182C46.5961 13.2323 46.1343 13.6941 45.2108 14.6176L43.6685 16.1599C42.7245 17.1039 42.2526 17.5758 41.7323 17.4764C41.212 17.3769 40.9474 16.7641 40.4181 15.5386L40.2543 15.1593C39.9423 14.4367 39.7863 14.0754 39.5507 13.7729C39.4218 13.6075 39.2759 13.4561 39.1154 13.321C38.822 13.0742 38.4669 12.9047 37.7565 12.5658Z" stroke="white" stroke-linecap="round"/>
<path d="M49 20L44.5 15.5" stroke="white" stroke-linecap="round"/>
</g>
<defs>
<clipPath id="clip0_1_678">
<rect width="24" height="24" fill="white" transform="translate(2 2)"/>
</clipPath>
<clipPath id="clip1_1_678">
<rect width="18" height="18" fill="white" transform="translate(34 5)"/>
</clipPath>
</defs>
</svg>
