<svg width="54" height="28" viewBox="0 0 54 28" fill="none" xmlns="http://www.w3.org/2000/svg">
<rect x="0.5" y="0.5" width="53" height="27" rx="4.5" stroke="#7B61FF" stroke-dasharray="10 5"/>
<g clip-path="url(#clip0_1_294)">
<path d="M5 23L22.5 23" stroke="white" stroke-width="2" stroke-linecap="round"/>
<path d="M22.1115 10.7917L10.1773 15.1896C9.44475 15.4596 9.07848 15.5946 8.72077 15.5942C8.37 15.5939 8.02548 15.5014 7.72178 15.3258C7.41208 15.1469 7.15846 14.8413 6.65122 14.2302C5.50809 12.853 4.93652 12.1644 4.95401 11.7781C4.97231 11.3736 5.23271 11.0201 5.61355 10.8826C5.97732 10.7514 6.78688 11.0858 8.40601 11.7546L8.40602 11.7546C8.61485 11.8408 8.71927 11.884 8.82693 11.9029C8.94144 11.923 9.05859 11.923 9.1731 11.9029C9.28076 11.884 9.38518 11.8408 9.59401 11.7546L10.3613 11.4376L10.3614 11.4376C10.907 11.2122 11.1799 11.0995 11.3333 10.926C11.5452 10.6862 11.6296 10.3595 11.5603 10.0471C11.5101 9.82095 11.3259 9.59022 10.9577 9.12877C10.0894 8.04088 9.65526 7.49693 9.6435 7.16687C9.62724 6.71035 9.92241 6.30084 10.3607 6.17192C10.6775 6.07871 11.3308 6.31858 12.6374 6.79833L16.0798 8.06227C16.6445 8.26957 16.9268 8.37323 17.2226 8.39032C17.5184 8.40741 17.8108 8.33697 18.3955 8.19607L21.1238 7.53867C22.0048 7.32641 22.8976 7.84129 23.1552 8.71007C23.4103 9.57058 22.9536 10.4813 22.1115 10.7917Z" stroke="white" stroke-width="2"/>
</g>
<g clip-path="url(#clip1_1_294)">
<path d="M37 20L49 20" stroke="white" stroke-linecap="round"/>
<path d="M47.9611 11.5395L38.7183 14.2865C38.2987 14.4112 37.8487 14.2276 37.6361 13.8449L37.1568 12.9822C36.777 12.2985 37.6006 11.5815 38.2255 12.0519C38.4353 12.2098 38.714 12.2419 38.9541 12.1357L39.7255 11.7945L39.7574 11.7803C40.363 11.502 40.5322 10.7204 40.0957 10.2167L40.0726 10.1906L40.0352 10.1487C39.4663 9.51064 39.9192 8.5 40.7741 8.5C40.9228 8.5 41.0696 8.5335 41.2035 8.598L43.8253 9.86037C44.1273 10.0058 44.2783 10.0785 44.4416 10.0986C44.6049 10.1187 44.769 10.0848 45.0973 10.0171L47.4562 9.53019L47.4562 9.53019C47.4859 9.52404 47.5008 9.52096 47.5139 9.51863C47.9886 9.43372 48.4563 9.69965 48.626 10.151C48.6307 10.1634 48.6356 10.1778 48.6456 10.2066C48.6572 10.2402 48.663 10.257 48.6675 10.2712C48.8307 10.7926 48.5453 11.3485 48.0264 11.5196C48.0123 11.5243 47.9953 11.5294 47.9611 11.5395Z" stroke="white"/>
</g>
<defs>
<clipPath id="clip0_1_294">
<rect width="24" height="24" fill="white" transform="translate(2 2)"/>
</clipPath>
<clipPath id="clip1_1_294">
<rect width="18" height="18" fill="white" transform="translate(34 5)"/>
</clipPath>
</defs>
</svg>
