<svg width="54" height="28" viewBox="0 0 54 28" fill="none" xmlns="http://www.w3.org/2000/svg">
<rect x="0.5" y="0.5" width="53" height="27" rx="4.5" stroke="#7B61FF" stroke-dasharray="10 5"/>
<g clip-path="url(#clip0_1_1315)">
<path d="M5 8.51305C5 7.56891 5 7.09685 5.15619 6.72518C5.35893 6.24271 5.74271 5.85893 6.22518 5.65619C6.59685 5.5 7.06891 5.5 8.01305 5.5H14H19.987C20.9311 5.5 21.4032 5.5 21.7748 5.65619C22.2573 5.85893 22.6411 6.24271 22.8438 6.72518C23 7.09685 23 7.56891 23 8.51305V10.4947C23 10.5258 23 10.5413 23 10.5567C22.995 13.1456 22.3619 15.6947 21.1549 17.9851C21.1478 17.9986 21.1405 18.0124 21.126 18.0398C21.0782 18.13 21.0543 18.1752 21.0381 18.2052C18.0143 23.8008 9.98569 23.8008 6.9619 18.2052C6.94567 18.1752 6.92179 18.13 6.87403 18.0398C6.85949 18.0124 6.85222 17.9986 6.84507 17.9851C5.63812 15.6947 5.00499 13.1456 5.00003 10.5567C5 10.5413 5 10.5258 5 10.4947L5 8.51305Z" stroke="white" stroke-width="2"/>
<path d="M10 12L12.5858 14.5858C13.2525 15.2525 13.5858 15.5858 14 15.5858C14.4142 15.5858 14.7475 15.2525 15.4142 14.5858L18 12" stroke="white" stroke-width="2" stroke-linecap="round"/>
</g>
<g clip-path="url(#clip1_1_1315)">
<path d="M37 11.4749C37 10.0943 37 9.40407 37.3262 8.90533C37.4772 8.67439 37.6744 8.4772 37.9053 8.32617C38.4041 8 39.0943 8 40.4749 8H43H45.5251C46.9057 8 47.5959 8 48.0947 8.32617C48.3256 8.4772 48.5228 8.67439 48.6738 8.90533C49 9.40407 49 10.0943 49 11.4749V13.6313C49 14.6826 48.7511 15.7191 48.2735 16.6558C46.0774 20.9635 39.9226 20.9635 37.7265 16.6558C37.2489 15.7191 37 14.6826 37 13.6313L37 11.4749Z" stroke="white"/>
<path d="M40 13L41.5858 14.5858C42.2524 15.2525 42.5858 15.5858 43 15.5858C43.4142 15.5858 43.7475 15.2525 44.4142 14.5858L46 13" stroke="white" stroke-linecap="round"/>
</g>
<defs>
<clipPath id="clip0_1_1315">
<rect width="24" height="24" fill="white" transform="translate(2 2)"/>
</clipPath>
<clipPath id="clip1_1_1315">
<rect width="18" height="18" fill="white" transform="translate(34 5)"/>
</clipPath>
</defs>
</svg>
