<svg width="54" height="28" viewBox="0 0 54 28" fill="none" xmlns="http://www.w3.org/2000/svg">
<rect x="0.5" y="0.5" width="53" height="27" rx="4.5" stroke="#7B61FF" stroke-dasharray="10 5"/>
<g clip-path="url(#clip0_1_394)">
<path d="M14 5V13" stroke="white" stroke-width="2" stroke-linecap="round" stroke-linejoin="round"/>
<path d="M7.69273 7.57983C6.03077 9.21276 5 11.486 5 14C5 18.9706 9.02944 23 14 23C18.9706 23 23 18.9706 23 14C23 11.486 21.9692 9.21276 20.3073 7.57983" stroke="white" stroke-width="2" stroke-linecap="round"/>
</g>
<g clip-path="url(#clip1_1_394)">
<path d="M43 7.5V13" stroke="white" stroke-linecap="round" stroke-linejoin="round"/>
<path d="M38.5849 9.50586C37.4215 10.6489 36.7 12.2402 36.7 14C36.7 17.4794 39.5206 20.3 43 20.3C46.4794 20.3 49.3 17.4794 49.3 14C49.3 12.2402 48.5785 10.6489 47.4151 9.50586" stroke="white" stroke-linecap="round"/>
</g>
<defs>
<clipPath id="clip0_1_394">
<rect width="24" height="24" fill="white" transform="translate(2 2)"/>
</clipPath>
<clipPath id="clip1_1_394">
<rect width="18" height="18" fill="white" transform="translate(34 5)"/>
</clipPath>
</defs>
</svg>
