<svg width="54" height="28" viewBox="0 0 54 28" fill="none" xmlns="http://www.w3.org/2000/svg">
<rect x="0.5" y="0.5" width="53" height="27" rx="4.5" stroke="#7B61FF" stroke-dasharray="10 5"/>
<path d="M14 15.7727C14.979 15.7727 15.7727 14.979 15.7727 13.9999C15.7727 13.0209 14.979 12.2272 14 12.2272C13.021 12.2272 12.2273 13.0209 12.2273 13.9999C12.2273 14.979 13.021 15.7727 14 15.7727Z" fill="white"/>
<path fill-rule="evenodd" clip-rule="evenodd" d="M18.506 6.19527C18.7751 6.35062 18.9994 6.66837 19.1177 7.22105C19.2358 7.77366 19.2335 8.5056 19.0934 9.38C19.0427 9.69621 18.9746 10.0275 18.8894 10.3714C18.0949 10.1947 17.2329 10.0602 16.3238 9.97497C15.7954 9.23029 15.248 8.55104 14.6977 7.95134C14.9529 7.7056 15.2058 7.48096 15.4543 7.27898C16.1415 6.72045 16.7742 6.35244 17.3119 6.1785C17.8496 6.00454 18.237 6.03993 18.506 6.19527ZM13.3022 7.95135C13.0471 7.70561 12.7942 7.48098 12.5457 7.279C11.8585 6.72047 11.2258 6.35246 10.6881 6.17852C10.1504 6.00456 9.76302 6.03995 9.49395 6.19529C9.22489 6.35064 9.00056 6.66839 8.88235 7.22107C8.76415 7.77368 8.76651 8.50562 8.9066 9.38002C8.95726 9.69623 9.02535 10.0275 9.11058 10.3714C9.9051 10.1947 10.7671 10.0603 11.6762 9.97498C12.2046 9.23029 12.752 8.55104 13.3022 7.95135ZM14 7.23499C13.7238 6.96881 13.4486 6.72421 13.1764 6.50297C12.4337 5.89939 11.6922 5.45232 10.9959 5.22707C10.2997 5.00184 9.59344 4.98315 8.99395 5.32927C8.39446 5.67538 8.05752 6.29637 7.90447 7.01191C7.75141 7.72752 7.7678 8.59326 7.91919 9.53822C7.97468 9.88456 8.0489 10.2452 8.14132 10.6174C7.77272 10.7235 7.42328 10.8396 7.09558 10.9647C6.20153 11.3061 5.44358 11.7247 4.90037 12.2151C4.35722 12.7054 3.98791 13.3077 3.98791 13.9999C3.98791 14.6922 4.35722 15.2945 4.90037 15.7848C5.44358 16.2751 6.20153 16.6938 7.09558 17.0352C7.42329 17.1603 7.77273 17.2764 8.14135 17.3824C8.04892 17.7547 7.97469 18.1154 7.9192 18.4618C7.7678 19.4067 7.75141 20.2725 7.90447 20.9881C8.05752 21.7036 8.39447 22.3246 8.99396 22.6707C9.59344 23.0168 10.2997 22.9981 10.9959 22.7729C11.6922 22.5477 12.4337 22.1006 13.1764 21.497C13.4486 21.2758 13.7238 21.0312 14 20.765C14.2762 21.0312 14.5514 21.2758 14.8236 21.497C15.5663 22.1006 16.3078 22.5477 17.0041 22.7729C17.7003 22.9981 18.4066 23.0168 19.006 22.6707C19.6055 22.3246 19.9425 21.7036 20.0955 20.9881C20.2486 20.2725 20.2322 19.4067 20.0808 18.4618C20.0253 18.1154 19.9511 17.7547 19.8587 17.3824C20.2273 17.2764 20.5767 17.1603 20.9044 17.0352C21.7985 16.6938 22.5564 16.2751 23.0996 15.7848C23.6428 15.2945 24.0121 14.6922 24.0121 13.9999C24.0121 13.3077 23.6428 12.7054 23.0996 12.2151C22.5564 11.7247 21.7985 11.3061 20.9044 10.9647C20.5767 10.8396 20.2273 10.7235 19.8587 10.6174C19.9511 10.2452 20.0253 9.88455 20.0808 9.5382C20.2322 8.59324 20.2486 7.7275 20.0955 7.01189C19.9425 6.29635 19.6055 5.67536 19.006 5.32925C18.4066 4.98313 17.7003 5.00182 17.0041 5.22705C16.3078 5.4523 15.5663 5.89937 14.8236 6.50295C14.5514 6.72419 14.2762 6.9688 14 7.23499ZM18.6158 11.335C18.1229 11.2272 17.6 11.1359 17.0524 11.0633C17.2312 11.3465 17.4068 11.6369 17.5783 11.9341C17.7499 12.2312 17.9136 12.5284 18.0694 12.8248C18.2804 12.3143 18.4627 11.8158 18.6158 11.335ZM18.6476 14C19.0284 13.17 19.3429 12.3563 19.5872 11.5799C19.9276 11.678 20.2485 11.7847 20.5477 11.8989C21.375 12.2148 22.0101 12.5787 22.4295 12.9574C22.8491 13.3361 23.0121 13.6893 23.0121 13.9999C23.0121 14.3106 22.8491 14.6638 22.4295 15.0425C22.0101 15.4212 21.375 15.7851 20.5477 16.101C20.2485 16.2152 19.9275 16.3219 19.5871 16.42C19.3429 15.6436 19.0283 14.83 18.6476 14ZM17.5423 14C17.2926 13.4834 17.0157 12.9596 16.7123 12.4341C16.4089 11.9085 16.0936 11.4068 15.7711 10.9322C15.1989 10.8902 14.6068 10.8681 14 10.8681C13.3932 10.8681 12.8011 10.8902 12.2289 10.9322C11.9064 11.4067 11.5911 11.9085 11.2877 12.434C10.9843 12.9596 10.7074 13.4834 10.4577 14C10.7074 14.5166 10.9843 15.0404 11.2877 15.5659C11.5911 16.0915 11.9063 16.5932 12.2288 17.0677C12.801 17.1097 13.3931 17.1318 14 17.1318C14.6069 17.1318 15.199 17.1097 15.7712 17.0677C16.0937 16.5932 16.4089 16.0915 16.7123 15.5659C17.0157 15.0404 17.2926 14.5165 17.5423 14ZM17.0525 16.9365C17.2313 16.6534 17.4068 16.363 17.5783 16.0659C17.7499 15.7688 17.9136 15.4716 18.0694 15.1752C18.2804 15.6856 18.4627 16.1841 18.6157 16.6649C18.1229 16.7727 17.6 16.864 17.0525 16.9365ZM15.017 18.1117C14.6824 18.125 14.3431 18.1318 14 18.1318C13.6569 18.1318 13.3176 18.125 12.983 18.1117C13.3196 18.5497 13.6602 18.9569 14 19.3298C14.3398 18.9569 14.6804 18.5497 15.017 18.1117ZM14.6977 20.0486C15.248 19.4489 15.7954 18.7696 16.3238 18.0249C17.233 17.9396 18.0949 17.8052 18.8894 17.6285C18.9746 17.9724 19.0427 18.3037 19.0934 18.62C19.2335 19.4944 19.2358 20.2263 19.1176 20.7789C18.9994 21.3316 18.7751 21.6494 18.506 21.8047C18.237 21.96 17.8496 21.9954 17.3119 21.8215C16.7742 21.6475 16.1415 21.2795 15.4543 20.721C15.2058 20.519 14.9529 20.2944 14.6977 20.0486ZM13.3022 20.0486C12.752 19.4489 12.2046 18.7696 11.6761 18.0249C10.767 17.9396 9.90509 17.8052 9.1106 17.6285C9.02537 17.9724 8.95727 18.3037 8.90661 18.6199C8.76651 19.4944 8.76416 20.2263 8.88236 20.7789C9.00057 21.3316 9.22489 21.6493 9.49396 21.8047C9.76302 21.96 10.1504 21.9954 10.6881 21.8215C11.2258 21.6475 11.8585 21.2795 12.5457 20.721C12.7942 20.519 13.0471 20.2944 13.3022 20.0486ZM9.38425 16.6649C9.87708 16.7727 10.4 16.864 10.9475 16.9365C10.7687 16.6534 10.5932 16.363 10.4217 16.0659C10.2501 15.7688 10.0864 15.4716 9.93062 15.1752C9.71964 15.6856 9.53728 16.1841 9.38425 16.6649ZM9.93062 12.8248C10.0864 12.5284 10.2501 12.2312 10.4217 11.934C10.5932 11.6369 10.7688 11.3465 10.9476 11.0633C10.4 11.1359 9.87708 11.2272 9.38423 11.335C9.53726 11.8158 9.71962 12.3143 9.93062 12.8248ZM9.35236 14C8.97165 14.8299 8.65708 15.6436 8.41286 16.42C8.07245 16.3219 7.75147 16.2152 7.45228 16.101C6.62499 15.7851 5.98992 15.4212 5.57045 15.0425C5.15093 14.6638 4.98791 14.3106 4.98791 13.9999C4.98791 13.6893 5.15093 13.3361 5.57045 12.9574C5.98992 12.5787 6.62499 12.2148 7.45228 11.8989C7.75147 11.7847 8.07244 11.678 8.41284 11.5799C8.65705 12.3563 8.97164 13.17 9.35236 14ZM12.9831 9.88817C13.3177 9.87486 13.6569 9.86805 14 9.86805C14.3431 9.86805 14.6823 9.87486 15.0169 9.88817C14.6803 9.45022 14.3398 9.04305 14 8.67017C13.6602 9.04305 13.3196 9.45023 12.9831 9.88817Z" fill="white"/>
<path d="M43 15.0606C43.5857 15.0606 44.0606 14.5857 44.0606 14C44.0606 13.4142 43.5857 12.9394 43 12.9394C42.4142 12.9394 41.9394 13.4142 41.9394 14C41.9394 14.5857 42.4142 15.0606 43 15.0606Z" fill="white"/>
<path fill-rule="evenodd" clip-rule="evenodd" d="M46.0772 8.67011C46.2727 8.78301 46.4293 9.01052 46.5109 9.39193C46.5925 9.77329 46.5903 10.2752 46.4948 10.8713C46.4585 11.0984 46.4089 11.3368 46.3465 11.5845C45.7936 11.4596 45.1915 11.3652 44.5551 11.3062C44.1859 10.7846 43.8031 10.3104 43.4186 9.89411C43.6019 9.71616 43.7836 9.55404 43.962 9.40897C44.4305 9.02823 44.8641 8.77541 45.2352 8.65537C45.6063 8.53532 45.8816 8.55721 46.0772 8.67011ZM42.5814 9.89411C42.3981 9.71618 42.2164 9.55408 42.038 9.40904C41.5695 9.02829 41.1359 8.77548 40.7648 8.65544C40.3937 8.53538 40.1184 8.55727 39.9228 8.67017C39.7273 8.78307 39.5707 9.01059 39.4891 9.39199C39.4075 9.77336 39.4097 10.2753 39.5052 10.8714C39.5415 11.0984 39.5911 11.3368 39.6535 11.5845C40.2064 11.4596 40.8085 11.3652 41.4448 11.3062C41.814 10.7846 42.1969 10.3104 42.5814 9.89411ZM43 9.46426C42.8042 9.27416 42.6091 9.10009 42.4164 8.94343C41.9146 8.53564 41.4157 8.23539 40.9495 8.08457C40.4833 7.93375 40.0166 7.9232 39.6228 8.15056C39.229 8.37792 39.0048 8.78737 38.9023 9.2665C38.7999 9.74567 38.8104 10.3279 38.9127 10.9663C38.952 11.2115 39.0052 11.4675 39.072 11.7321C38.8094 11.8066 38.5612 11.8884 38.3291 11.977C37.7251 12.2077 37.2156 12.4896 36.8519 12.818C36.4882 13.1463 36.2457 13.5452 36.2457 13.9999C36.2457 14.4546 36.4882 14.8535 36.8519 15.1818C37.2156 15.5102 37.7251 15.7921 38.3291 16.0227C38.5612 16.1113 38.8095 16.1932 39.072 16.2677C39.0052 16.5323 38.952 16.7883 38.9127 17.0336C38.8104 17.672 38.7999 18.2542 38.9023 18.7334C39.0048 19.2125 39.229 19.622 39.6228 19.8493C40.0166 20.0767 40.4833 20.0661 40.9495 19.9153C41.4157 19.7645 41.9146 19.4642 42.4164 19.0564C42.6091 18.8998 42.8042 18.7257 43 18.5356C43.1958 18.7257 43.3908 18.8998 43.5836 19.0565C44.0854 19.4643 44.5843 19.7645 45.0505 19.9154C45.5167 20.0662 45.9834 20.0767 46.3772 19.8494C46.771 19.622 46.9952 19.2126 47.0976 18.7334C47.2001 18.2543 47.1896 17.6721 47.0873 17.0337C47.048 16.7884 46.9947 16.5324 46.928 16.2677C47.1905 16.1932 47.4388 16.1113 47.6709 16.0227C48.2749 15.7921 48.7844 15.5102 49.1481 15.1818C49.5118 14.8535 49.7543 14.4546 49.7543 13.9999C49.7543 13.5452 49.5118 13.1463 49.1481 12.818C48.7844 12.4896 48.2749 12.2077 47.6709 11.977C47.4388 11.8884 47.1905 11.8065 46.928 11.7321C46.9948 11.4675 47.048 11.2115 47.0873 10.9662C47.1896 10.3278 47.2001 9.7456 47.0976 9.26643C46.9952 8.78731 46.771 8.37785 46.3772 8.15049C45.9834 7.92313 45.5167 7.93369 45.0505 8.0845C44.5843 8.23532 44.0854 8.53557 43.5836 8.94336C43.3908 9.10004 43.1958 9.27414 43 9.46426ZM46.1824 12.1626C45.8098 12.0796 45.4116 12.0105 44.993 11.9576C45.1296 12.1715 45.2635 12.3918 45.394 12.6178C45.5245 12.8438 45.6483 13.0698 45.7652 13.295C45.9287 12.9061 46.0679 12.5267 46.1824 12.1626ZM46.1104 13.9999C46.3775 13.4194 46.5967 12.8507 46.7651 12.3095C47.0108 12.3793 47.242 12.4555 47.4569 12.5376C48.0209 12.7529 48.4566 13.002 48.7461 13.2633C49.0356 13.5247 49.1543 13.7741 49.1543 13.9999C49.1543 14.2257 49.0356 14.4751 48.7461 14.7364C48.4566 14.9978 48.0209 15.2469 47.4569 15.4622C47.242 15.5442 47.0108 15.6205 46.765 15.6903C46.5967 15.1491 46.3775 14.5805 46.1104 13.9999ZM45.4472 13.9999C45.2752 13.643 45.0841 13.2809 44.8744 12.9178C44.6647 12.5546 44.4467 12.208 44.2235 11.8806C43.8284 11.851 43.4193 11.8355 43 11.8355C42.5807 11.8355 42.1716 11.851 41.7764 11.8806C41.5533 12.208 41.3353 12.5545 41.1256 12.9177C40.9159 13.2809 40.7248 13.643 40.5528 13.9999C40.7248 14.3569 40.9159 14.719 41.1256 15.0822C41.3352 15.4453 41.5532 15.7918 41.7763 16.1192C42.1715 16.1487 42.5806 16.1643 43 16.1643C43.4193 16.1643 43.8284 16.1487 44.2236 16.1192C44.4467 15.7918 44.6647 15.4453 44.8744 15.0821C45.0841 14.7189 45.2752 14.3569 45.4472 13.9999ZM44.9931 16.0422C45.1297 15.8283 45.2635 15.6081 45.394 15.3821C45.5245 15.1561 45.6483 14.9301 45.7652 14.7049C45.9286 15.0938 46.0679 15.4731 46.1823 15.8372C45.8098 15.9202 45.4116 15.9893 44.9931 16.0422ZM43.7721 16.7471C43.5186 16.7585 43.2609 16.7643 43 16.7643C42.739 16.7643 42.4814 16.7585 42.2278 16.7471C42.4829 17.0831 42.7418 17.3934 43 17.6746C43.2581 17.3934 43.517 17.0831 43.7721 16.7471ZM43.4186 18.1058C43.8031 17.6894 44.186 17.2152 44.5552 16.6936C45.1915 16.6346 45.7936 16.5401 46.3464 16.4153C46.4089 16.663 46.4584 16.9015 46.4948 17.1286C46.5903 17.7247 46.5925 18.2266 46.5109 18.6079C46.4293 18.9893 46.2727 19.2169 46.0772 19.3298C45.8816 19.4427 45.6063 19.4646 45.2352 19.3445C44.8641 19.2245 44.4305 18.9716 43.962 18.5909C43.7836 18.4458 43.6019 18.2837 43.4186 18.1058ZM42.5814 18.1058C42.1969 17.6894 41.814 17.2152 41.4447 16.6936C40.8085 16.6346 40.2064 16.5401 39.6535 16.4153C39.5911 16.663 39.5415 16.9014 39.5052 17.1285C39.4097 17.7246 39.4075 18.2265 39.4891 18.6079C39.5707 18.9893 39.7273 19.2168 39.9228 19.3297C40.1184 19.4426 40.3937 19.4645 40.7648 19.3444C41.1359 19.2244 41.5695 18.9716 42.038 18.5908C42.2164 18.4458 42.3981 18.2837 42.5814 18.1058ZM39.8176 15.8372C40.1902 15.9202 40.5883 15.9892 41.0068 16.0422C40.8703 15.8283 40.7364 15.6081 40.606 15.3822C40.4755 15.1562 40.3517 14.9301 40.2348 14.7049C40.0713 15.0938 39.9321 15.4731 39.8176 15.8372ZM40.2348 13.295C40.3517 13.0698 40.4755 12.8437 40.606 12.6177C40.7365 12.3917 40.8703 12.1715 41.0069 11.9576C40.5883 12.0105 40.1902 12.0796 39.8176 12.1626C39.932 12.5267 40.0713 12.9061 40.2348 13.295ZM39.8896 13.9999C39.6225 14.5805 39.4033 15.1491 39.2349 15.6903C38.9892 15.6205 38.758 15.5442 38.5431 15.4622C37.9791 15.2469 37.5434 14.9978 37.2539 14.7364C36.9644 14.4751 36.8457 14.2257 36.8457 13.9999C36.8457 13.7741 36.9644 13.5247 37.2539 13.2633C37.5434 13.002 37.9791 12.7529 38.5431 12.5376C38.758 12.4555 38.9892 12.3793 39.2349 12.3095C39.4032 12.8507 39.6225 13.4194 39.8896 13.9999ZM42.2279 11.2527C42.4814 11.2413 42.7391 11.2355 43 11.2355C43.2609 11.2355 43.5186 11.2413 43.7721 11.2527C43.517 10.9167 43.2581 10.6064 43 10.3253C42.7418 10.6064 42.483 10.9167 42.2279 11.2527Z" fill="white"/>
</svg>
