<svg width="24" height="24" viewBox="0 0 24 24" fill="none" xmlns="http://www.w3.org/2000/svg">
<path d="M12 13.7727C12.979 13.7727 13.7727 12.979 13.7727 12C13.7727 11.021 12.979 10.2273 12 10.2273C11.021 10.2273 10.2273 11.021 10.2273 12C10.2273 12.979 11.021 13.7727 12 13.7727Z" fill="white"/>
<path fill-rule="evenodd" clip-rule="evenodd" d="M16.5061 4.19527C16.7751 4.35062 16.9994 4.66837 17.1177 5.22105C17.2359 5.77366 17.2335 6.5056 17.0934 7.38C17.0427 7.69621 16.9747 8.02752 16.8894 8.37136C16.0949 8.19465 15.2329 8.06025 14.3238 7.97497C13.7954 7.23029 13.248 6.55104 12.6977 5.95134C12.9529 5.7056 13.2058 5.48096 13.4543 5.27898C14.1415 4.72045 14.7742 4.35244 15.3119 4.1785C15.8496 4.00454 16.237 4.03993 16.5061 4.19527ZM11.3023 5.95135C11.0471 5.70561 10.7942 5.48098 10.5457 5.279C9.85848 4.72047 9.22578 4.35246 8.68811 4.17852C8.15037 4.00456 7.76303 4.03995 7.49396 4.19529C7.2249 4.35064 7.00057 4.66839 6.88236 5.22107C6.76416 5.77368 6.76652 6.50562 6.90661 7.38002C6.95727 7.69623 7.02536 8.02752 7.11059 8.37136C7.9051 8.19465 8.76706 8.06025 9.67622 7.97498C10.2046 7.23029 10.752 6.55104 11.3023 5.95135ZM12 5.23499C11.7238 4.96881 11.4486 4.72421 11.1764 4.50297C10.4337 3.89939 9.69218 3.45232 8.99591 3.22707C8.29971 3.00184 7.59345 2.98315 6.99396 3.32927C6.39447 3.67538 6.05753 4.29637 5.90448 5.01191C5.75141 5.72752 5.76781 6.59326 5.9192 7.53822C5.97469 7.88456 6.04891 8.24519 6.14133 8.61745C5.77272 8.72354 5.42329 8.83958 5.09559 8.9647C4.20154 9.30607 3.44359 9.72474 2.90038 10.2151C2.35723 10.7054 1.98792 11.3077 1.98792 11.9999C1.98792 12.6922 2.35723 13.2945 2.90038 13.7848C3.44359 14.2751 4.20154 14.6938 5.09559 15.0352C5.4233 15.1603 5.77274 15.2764 6.14136 15.3824C6.04893 15.7547 5.9747 16.1154 5.91921 16.4618C5.76781 17.4067 5.75142 18.2725 5.90448 18.9881C6.05753 19.7036 6.39448 20.3246 6.99397 20.6707C7.59345 21.0168 8.29972 20.9981 8.99592 20.7729C9.69218 20.5477 10.4337 20.1006 11.1764 19.497C11.4486 19.2758 11.7238 19.0312 12 18.765C12.2762 19.0312 12.5514 19.2758 12.8236 19.497C13.5663 20.1006 14.3078 20.5477 15.0041 20.7729C15.7003 20.9981 16.4066 21.0168 17.0061 20.6707C17.6055 20.3246 17.9425 19.7036 18.0955 18.9881C18.2486 18.2725 18.2322 17.4067 18.0808 16.4618C18.0253 16.1154 17.9511 15.7547 17.8587 15.3824C18.2273 15.2764 18.5767 15.1603 18.9044 15.0352C19.7985 14.6938 20.5564 14.2751 21.0996 13.7848C21.6428 13.2945 22.0121 12.6922 22.0121 11.9999C22.0121 11.3077 21.6428 10.7054 21.0996 10.2151C20.5564 9.72474 19.7985 9.30607 18.9044 8.9647C18.5767 8.83958 18.2273 8.72354 17.8587 8.61745C17.9511 8.24518 18.0253 7.88455 18.0808 7.5382C18.2322 6.59324 18.2486 5.7275 18.0955 5.01189C17.9425 4.29635 17.6055 3.67536 17.0061 3.32925C16.4066 2.98313 15.7003 3.00182 15.0041 3.22705C14.3078 3.4523 13.5663 3.89937 12.8236 4.50295C12.5514 4.72419 12.2762 4.9688 12 5.23499ZM16.6158 9.33504C16.1229 9.2272 15.6 9.13586 15.0524 9.06335C15.2312 9.34647 15.4068 9.63692 15.5783 9.93405C15.7499 10.2312 15.9136 10.5284 16.0694 10.8248C16.2804 10.3143 16.4627 9.81578 16.6158 9.33504ZM16.6476 12C17.0284 11.17 17.3429 10.3563 17.5872 9.57989C17.9276 9.67801 18.2485 9.78469 18.5477 9.89892C19.375 10.2148 20.0101 10.5787 20.4296 10.9574C20.8491 11.3361 21.0121 11.6893 21.0121 11.9999C21.0121 12.3106 20.8491 12.6638 20.4296 13.0425C20.0101 13.4212 19.375 13.7851 18.5477 14.101C18.2485 14.2152 17.9276 14.3219 17.5871 14.42C17.3429 13.6436 17.0283 12.83 16.6476 12ZM15.5423 12C15.2926 11.4834 15.0157 10.9596 14.7123 10.4341C14.4089 9.90848 14.0936 9.40675 13.7711 8.93221C13.1989 8.89018 12.6068 8.86805 12 8.86805C11.3932 8.86805 10.8011 8.89018 10.2289 8.93221C9.90637 9.40675 9.59115 9.90847 9.28772 10.434C8.98429 10.9596 8.70739 11.4834 8.45769 12C8.70739 12.5166 8.98429 13.0404 9.28771 13.5659C9.59112 14.0915 9.90632 14.5932 10.2288 15.0677C10.801 15.1097 11.3931 15.1318 12 15.1318C12.6069 15.1318 13.199 15.1097 13.7712 15.0677C14.0937 14.5932 14.4089 14.0915 14.7123 13.5659C15.0157 13.0404 15.2926 12.5165 15.5423 12ZM15.0525 14.9365C15.2313 14.6534 15.4068 14.363 15.5783 14.0659C15.7499 13.7688 15.9136 13.4716 16.0694 13.1752C16.2804 13.6856 16.4627 14.1841 16.6157 14.6649C16.1229 14.7727 15.6 14.864 15.0525 14.9365ZM13.017 16.1117C12.6824 16.125 12.3431 16.1318 12 16.1318C11.6569 16.1318 11.3176 16.125 10.983 16.1117C11.3196 16.5497 11.6602 16.9569 12 17.3298C12.3398 16.9569 12.6804 16.5497 13.017 16.1117ZM12.6977 18.0486C13.248 17.4489 13.7954 16.7696 14.3239 16.0249C15.233 15.9396 16.0949 15.8052 16.8894 15.6285C16.9746 15.9724 17.0427 16.3037 17.0934 16.62C17.2335 17.4944 17.2359 18.2263 17.1177 18.7789C16.9994 19.3316 16.7751 19.6494 16.5061 19.8047C16.237 19.96 15.8496 19.9954 15.3119 19.8215C14.7742 19.6475 14.1415 19.2795 13.4543 18.721C13.2058 18.519 12.9529 18.2944 12.6977 18.0486ZM11.3023 18.0486C10.752 17.4489 10.2046 16.7696 9.67615 16.0249C8.76703 15.9396 7.9051 15.8052 7.11061 15.6285C7.02538 15.9724 6.95728 16.3037 6.90661 16.6199C6.76652 17.4944 6.76417 18.2263 6.88236 18.7789C7.00058 19.3316 7.2249 19.6493 7.49397 19.8047C7.76303 19.96 8.15038 19.9954 8.68812 19.8215C9.22578 19.6475 9.85849 19.2795 10.5457 18.721C10.7942 18.519 11.0471 18.2944 11.3023 18.0486ZM7.38426 14.6649C7.87709 14.7727 8.39998 14.864 8.94754 14.9365C8.76873 14.6534 8.59321 14.363 8.42169 14.0659C8.25014 13.7688 8.0864 13.4716 7.93063 13.1752C7.71964 13.6856 7.53729 14.1841 7.38426 14.6649ZM7.93063 10.8248C8.0864 10.5284 8.25015 10.2312 8.42169 9.93403C8.59324 9.6369 8.76877 9.34647 8.9476 9.06335C8.40001 9.13586 7.87708 9.2272 7.38423 9.33504C7.53727 9.81578 7.71963 10.3143 7.93063 10.8248ZM7.35237 12C6.97166 12.8299 6.65709 13.6436 6.41287 14.42C6.07246 14.3219 5.75148 14.2152 5.45229 14.101C4.62499 13.7851 3.98993 13.4212 3.57046 13.0425C3.15094 12.6638 2.98792 12.3106 2.98792 11.9999C2.98792 11.6893 3.15094 11.3361 3.57046 10.9574C3.98993 10.5787 4.62499 10.2148 5.45229 9.89892C5.75147 9.78469 6.07244 9.67801 6.41284 9.57989C6.65706 10.3563 6.97165 11.17 7.35237 12ZM10.9831 7.88817C11.3177 7.87486 11.6569 7.86805 12 7.86805C12.3431 7.86805 12.6823 7.87486 13.0169 7.88817C12.6803 7.45022 12.3398 7.04305 12 6.67017C11.6602 7.04305 11.3197 7.45023 10.9831 7.88817Z" fill="white"/>
</svg>
