<svg width="54" height="28" viewBox="0 0 54 28" fill="none" xmlns="http://www.w3.org/2000/svg">
<rect x="0.5" y="0.5" width="53" height="27" rx="4.5" stroke="#7B61FF" stroke-dasharray="10 5"/>
<g clip-path="url(#clip0_1_1837)">
<path d="M5 13C5 11.1144 5 10.1716 5.58579 9.58579C6.17157 9 7.11438 9 9 9H19C20.8856 9 21.8284 9 22.4142 9.58579C23 10.1716 23 11.1144 23 13V15C23 16.8856 23 17.8284 22.4142 18.4142C21.8284 19 20.8856 19 19 19H9C7.11438 19 6.17157 19 5.58579 18.4142C5 17.8284 5 16.8856 5 15V13Z" stroke="white" stroke-width="2" stroke-linecap="round" stroke-linejoin="round"/>
<path d="M14 9V13" stroke="white" stroke-width="2" stroke-linecap="round" stroke-linejoin="round"/>
<path d="M9.5 9V12" stroke="white" stroke-width="2" stroke-linecap="round" stroke-linejoin="round"/>
<path d="M18.5 9V12" stroke="white" stroke-width="2" stroke-linecap="round" stroke-linejoin="round"/>
</g>
<g clip-path="url(#clip1_1_1837)">
<path d="M36.5 12.5C36.5 11.5572 36.5 11.0858 36.7929 10.7929C37.0858 10.5 37.5572 10.5 38.5 10.5H47.5C48.4428 10.5 48.9142 10.5 49.2071 10.7929C49.5 11.0858 49.5 11.5572 49.5 12.5V15.5C49.5 16.4428 49.5 16.9142 49.2071 17.2071C48.9142 17.5 48.4428 17.5 47.5 17.5H38.5C37.5572 17.5 37.0858 17.5 36.7929 17.2071C36.5 16.9142 36.5 16.4428 36.5 15.5V12.5Z" stroke="white" stroke-linecap="round" stroke-linejoin="round"/>
<path d="M43 11V14" stroke="white" stroke-linecap="round" stroke-linejoin="round"/>
<path d="M39.5 11V13" stroke="white" stroke-linecap="round" stroke-linejoin="round"/>
<path d="M46.5 11V13" stroke="white" stroke-linecap="round" stroke-linejoin="round"/>
</g>
<defs>
<clipPath id="clip0_1_1837">
<rect width="24" height="24" fill="white" transform="translate(2 2)"/>
</clipPath>
<clipPath id="clip1_1_1837">
<rect width="18" height="18" fill="white" transform="translate(34 5)"/>
</clipPath>
</defs>
</svg>
