<svg width="54" height="28" viewBox="0 0 54 28" fill="none" xmlns="http://www.w3.org/2000/svg">
<rect x="0.5" y="0.5" width="53" height="27" rx="4.5" stroke="#7B61FF" stroke-dasharray="10 5"/>
<path d="M12 5H9C7.11438 5 6.17157 5 5.58579 5.58579C5 6.17157 5 7.11438 5 9V19C5 20.8856 5 21.8284 5.58579 22.4142C6.17157 23 7.11438 23 9 23H19C20.8856 23 21.8284 23 22.4142 22.4142C23 21.8284 23 20.8856 23 19V16" stroke="white" stroke-width="2" stroke-linecap="round"/>
<path d="M17 5L23 5M23 5V11M23 5L10 18M10 18V12M10 18H16" stroke="white" stroke-width="2" stroke-linecap="round" stroke-linejoin="round"/>
<path d="M41.5 7.49997H38.5C37.5572 7.49997 37.0858 7.49997 36.7929 7.79286C36.5 8.08576 36.5 8.55716 36.5 9.49997V18.5C36.5 19.4428 36.5 19.9142 36.7929 20.2071C37.0858 20.5 37.5572 20.5 38.5 20.5H47.5C48.4428 20.5 48.9142 20.5 49.2071 20.2071C49.5 19.9142 49.5 19.4428 49.5 18.5V15.2655" stroke="white" stroke-linecap="round"/>
<path d="M45 7.5L49.5 7.5M49.5 7.5V12M49.5 7.5L40 17M40 17L40 12.5M40 17H44.5" stroke="white" stroke-linecap="round" stroke-linejoin="round"/>
</svg>
