<svg width="54" height="28" viewBox="0 0 54 28" fill="none" xmlns="http://www.w3.org/2000/svg">
<rect x="0.5" y="0.5" width="53" height="27" rx="4.5" stroke="#7B61FF" stroke-dasharray="10 5"/>
<g clip-path="url(#clip0_1_2681)">
<path d="M7 9.69275C7 8.12811 7 7.34579 7.45114 6.79356C7.90228 6.24132 8.66888 6.08526 10.2021 5.77315L12.8031 5.24365C13.3995 5.12224 13.6977 5.06153 14 5.06153C14.3023 5.06153 14.6005 5.12224 15.1969 5.24365L17.7979 5.77315C19.3311 6.08526 20.0977 6.24132 20.5489 6.79356C21 7.34579 21 8.12811 21 9.69276V10.7174C21 13.5629 21 14.9856 20.5357 16.2883C20.4535 16.5191 20.3607 16.7459 20.2577 16.9681C19.6759 18.2228 18.6788 19.2377 16.6846 21.2674C15.5047 22.4684 14.9148 23.0689 14.1876 23.1374C14.0628 23.1491 13.9372 23.1491 13.8124 23.1374C13.0852 23.0689 12.4953 22.4684 11.3154 21.2674C9.3212 19.2377 8.32411 18.2228 7.74233 16.9681C7.63928 16.7459 7.54649 16.5191 7.46426 16.2883C7 14.9856 7 13.5629 7 10.7174V9.69275Z" stroke="white" stroke-width="2"/>
</g>
<g clip-path="url(#clip1_1_2681)">
<path d="M38 10.9825C38 10.1827 38 9.78274 38.1234 9.44798C38.2786 9.02665 38.5711 8.66982 38.9539 8.43494C39.2579 8.24832 39.6501 8.16989 40.4344 8.01303L41.8233 7.73525C42.4097 7.61796 42.7029 7.55932 43 7.55932C43.2971 7.55932 43.5903 7.61796 44.1767 7.73525L45.5656 8.01303C46.3499 8.16989 46.7421 8.24832 47.0462 8.43494C47.4289 8.66982 47.7214 9.02664 47.8766 9.44798C48 9.78274 48 10.1827 48 10.9825V11.5903C48 12.6677 48 13.2064 47.9326 13.7223C47.75 15.1203 47.2012 16.4452 46.3418 17.5629C46.0247 17.9753 45.6438 18.3562 44.8819 19.118C44.447 19.5529 44.2295 19.7704 44.0036 19.9015C43.383 20.2615 42.6171 20.2615 41.9964 19.9015C41.7705 19.7704 41.553 19.5529 41.1181 19.118C40.3562 18.3561 39.9753 17.9752 39.6582 17.5628C38.7988 16.4452 38.25 15.1203 38.0674 13.7223C38 13.2064 38 12.6677 38 11.5903V10.9825Z" stroke="white"/>
</g>
<defs>
<clipPath id="clip0_1_2681">
<rect width="24" height="24" fill="white" transform="translate(2 2)"/>
</clipPath>
<clipPath id="clip1_1_2681">
<rect width="18" height="18" fill="white" transform="translate(34 5)"/>
</clipPath>
</defs>
</svg>
