<svg width="54" height="28" viewBox="0 0 54 28" fill="none" xmlns="http://www.w3.org/2000/svg">
<rect x="0.5" y="0.5" width="53" height="27" rx="4.5" stroke="#7B61FF" stroke-dasharray="10 5"/>
<g clip-path="url(#clip0_1_1235)">
<g clip-path="url(#clip1_1_1235)">
<path d="M9.49995 14H23M23 14L18.2987 19M23 14L18.2987 9" stroke="white" stroke-width="2" stroke-linecap="round" stroke-linejoin="round"/>
<path d="M12 5H9C7.11439 5 6.17158 5 5.58579 5.58579C5 6.17157 5 7.11438 5 9L5 19C5 20.8856 5 21.8284 5.58579 22.4142C6.17158 23 7.11439 23 9 23H12" stroke="white" stroke-width="2" stroke-linecap="round"/>
</g>
</g>
<g clip-path="url(#clip2_1_1235)">
<g clip-path="url(#clip3_1_1235)">
<path d="M40 14H49M49 14L45.8659 17.3333M49 14L45.8659 10.6666" stroke="white" stroke-linecap="round" stroke-linejoin="round"/>
<path d="M41.6667 8H39C38.0572 8 37.5858 8 37.2929 8.29289C37 8.58579 37 9.05719 37 10V18C37 18.9428 37 19.4142 37.2929 19.7071C37.5858 20 38.0572 20 39 20H41.6667" stroke="white" stroke-linecap="round"/>
</g>
</g>
<defs>
<clipPath id="clip0_1_1235">
<rect width="24" height="24" fill="white" transform="translate(2 2)"/>
</clipPath>
<clipPath id="clip1_1_1235">
<rect width="24" height="24" fill="white" transform="matrix(0 1 -1 0 26 2)"/>
</clipPath>
<clipPath id="clip2_1_1235">
<rect width="18" height="18" fill="white" transform="translate(34 5)"/>
</clipPath>
<clipPath id="clip3_1_1235">
<rect width="18" height="18" fill="white" transform="matrix(0 1 -1 0 52 5)"/>
</clipPath>
</defs>
</svg>
