<svg width="54" height="28" viewBox="0 0 54 28" fill="none" xmlns="http://www.w3.org/2000/svg">
<rect x="0.5" y="0.5" width="53" height="27" rx="4.5" stroke="#7B61FF" stroke-dasharray="10 5"/>
<g clip-path="url(#clip0_1_2668)">
<path d="M5 11C5 9.11438 5 8.17157 5.58579 7.58579C6.17157 7 7.11438 7 9 7H11C12.8856 7 13.8284 7 14.4142 7.58579C15 8.17157 15 9.11438 15 11V14C15 15.8856 15 16.8284 14.4142 17.4142C13.8284 18 12.8856 18 11 18H9C7.11438 18 6.17157 18 5.58579 17.4142C5 16.8284 5 15.8856 5 14V11Z" stroke="white" stroke-width="2"/>
<path d="M15 10H17.9076C18.861 10 19.3377 10 19.7511 10.2006C20.1646 10.4013 20.4596 10.7757 21.0496 11.5245L22.3628 13.1913C22.5685 13.4524 22.6714 13.5829 22.7499 13.7249C22.8611 13.9258 22.9368 14.1443 22.9738 14.3709C23 14.531 23 14.6972 23 15.0296C23 15.9337 23 16.3858 22.8565 16.7439C22.6532 17.2512 22.2512 17.6532 21.7439 17.8565C21.3858 18 20.9337 18 20.0296 18H19C17.1144 18 16.1716 18 15.5858 17.4142C15 16.8284 15 15.8856 15 14V10Z" stroke="white" stroke-width="2"/>
<path d="M22 18C22 19.6569 20.6569 21 19 21C17.3431 21 16 19.6569 16 18H12C12 19.6569 10.6569 21 9 21C7.34315 21 6 19.6569 6 18" stroke="white" stroke-width="2"/>
</g>
<g clip-path="url(#clip1_1_2668)">
<path d="M36.5 11C36.5 10.0572 36.5 9.58579 36.7929 9.29289C37.0858 9 37.5572 9 38.5 9H41.5C42.4428 9 42.9142 9 43.2071 9.29289C43.5 9.58579 43.5 10.0572 43.5 11V15C43.5 15.9428 43.5 16.4142 43.2071 16.7071C42.9142 17 42.4428 17 41.5 17H38.5C37.5572 17 37.0858 17 36.7929 16.7071C36.5 16.4142 36.5 15.9428 36.5 15V11Z" stroke="white"/>
<path d="M43.5 13C43.5 12.0572 43.5 11.5858 43.7929 11.2929C44.0858 11 44.5572 11 45.5 11H46.1659C46.6426 11 46.8809 11 47.0877 11.1003C47.2944 11.2006 47.4419 11.3878 47.7369 11.7623L49.071 13.4555C49.2835 13.7252 49.3897 13.86 49.4449 14.0191C49.5 14.1782 49.5 14.3499 49.5 14.6932V15C49.5 15.9428 49.5 16.4142 49.2071 16.7071C48.9142 17 48.4428 17 47.5 17H45.5C44.5572 17 44.0858 17 43.7929 16.7071C43.5 16.4142 43.5 15.9428 43.5 15V13Z" stroke="white"/>
<path d="M49 17C49 18.1046 48.1046 19 47 19C45.8954 19 45 18.1046 45 17H41C41 18.1046 40.1046 19 39 19C37.8954 19 37 18.1046 37 17" stroke="white"/>
</g>
<defs>
<clipPath id="clip0_1_2668">
<rect width="24" height="24" fill="white" transform="translate(2 2)"/>
</clipPath>
<clipPath id="clip1_1_2668">
<rect width="18" height="18" fill="white" transform="translate(34 5)"/>
</clipPath>
</defs>
</svg>
