<svg width="18" height="18" viewBox="0 0 18 18" fill="none" xmlns="http://www.w3.org/2000/svg">
<g clip-path="url(#clip0_489_203125)">
<path d="M2.5 6C2.5 5.05719 2.5 4.58579 2.79289 4.29289C3.08579 4 3.55719 4 4.5 4H7.5C8.44281 4 8.91421 4 9.20711 4.29289C9.5 4.58579 9.5 5.05719 9.5 6V10C9.5 10.9428 9.5 11.4142 9.20711 11.7071C8.91421 12 8.44281 12 7.5 12H4.5C3.55719 12 3.08579 12 2.79289 11.7071C2.5 11.4142 2.5 10.9428 2.5 10V6Z" stroke="white"/>
<path d="M9.5 8C9.5 7.05719 9.5 6.58579 9.79289 6.29289C10.0858 6 10.5572 6 11.5 6H12.1659C12.6426 6 12.8809 6 13.0877 6.10031C13.2944 6.20063 13.4419 6.38784 13.7369 6.76226L15.071 8.45548C15.2835 8.72517 15.3897 8.86001 15.4449 9.01911C15.5 9.17822 15.5 9.34989 15.5 9.69322V10C15.5 10.9428 15.5 11.4142 15.2071 11.7071C14.9142 12 14.4428 12 13.5 12H11.5C10.5572 12 10.0858 12 9.79289 11.7071C9.5 11.4142 9.5 10.9428 9.5 10V8Z" stroke="white"/>
<path d="M15 12C15 13.1046 14.1046 14 13 14C11.8954 14 11 13.1046 11 12H7C7 13.1046 6.10457 14 5 14C3.89543 14 3 13.1046 3 12" stroke="white"/>
</g>
<defs>
<clipPath id="clip0_489_203125">
<rect width="18" height="18" fill="white"/>
</clipPath>
</defs>
</svg>
