<svg width="438" height="891" viewBox="0 0 438 891" fill="none" xmlns="http://www.w3.org/2000/svg">
<path d="M128.7 244.1C128.7 244.1 104 276.8 102.5 300.5C101 324.2 163.7 333.7 163.7 333.7L128.7 244.1Z" fill="#D4A79A"/>
<path d="M198.6 153.2L196 202.5L157.4 217.4C157.4 217.4 180.6 183.4 176.7 153.2C172.7 123 198.6 153.2 198.6 153.2Z" fill="#D4A79A"/>
<path d="M233.1 52.3C233.1 52.3 241.5 63.4 233.3 97.6C225.1 131.8 211.8 160.9 201.5 158.9C173 153.2 163.1 133.1 153.2 115.8C141.1 94.6 165.1 43 165.1 43L187.8 30.8L233.1 52.3Z" fill="#EAC2AB"/>
<path d="M263.4 43.1C265.9 35.1 261.5 24.8 255.7 19.9C253.5 18 250.6 16.8 247.8 17.1C245.7 17.3 243.6 18.3 241.5 18C235.2 16.9 234.4 7.59998 228.5 5.69998C224.1 4.29998 219.9 8.29998 215.4 9.29998C212 10.1 208.5 9.19998 205.1 8.49998C195.5 6.49998 186.7 1.89998 176.9 0.699981C168.6 -0.300019 160 0.599981 152.5 4.59998C144.7 8.79998 139.1 16.5 136.1 25.4C134.3 30.7 133.7 36.7 135.2 42.1C134 37.6 126 42.4 124.6 44.2C119.5 51.1 118.6 66.1 121.3 74.2C123.5 80.6 127 86.2 129 92.7C131.3 100.4 132.3 109 136.6 115.8C141.5 123.6 151.2 127.6 159.6 125.5C157 118.4 154.5 111.1 154 103.5C153.5 95.9 143.4 61.4 181 54C195.9 51 213.9 63.5 228.9 64.1C236 64.4 243.1 63 249.8 60.3C254.9 58.2 260 50.5 262.8 44.9C262.9 44.3 263.2 43.7 263.4 43.1Z" fill="#4B369D"/>
<path d="M154 78.7C154 78.7 143.5 66.9 144.7 84.9C145.8 103 155.3 106.7 155.3 106.7L154 78.7Z" fill="#EAC2AB"/>
<path d="M64.5001 771.3L41.8001 831L21.1001 825.5L48.5001 764.6C48.5001 764.5 60.2001 765.9 64.5001 771.3Z" fill="#D4A79A"/>
<path d="M94.9 886.6C94.2 887.8 86.8 887.3 85.7 887.4C74.4 887.6 57 888.4 47.2 881.8C37.7 875.4 31.6 864.5 23.2 856.8C17.3 851.4 9.79998 848.1 2.79998 844.3C-4.90002 840.1 10.8 805 20.1 810.6C27.7 815.2 23.9 827.9 43.2 826.3C59.7 824.9 49.2 848.5 68.4 862.5C85.5 874.9 103 873.1 94.9 886.6Z" fill="#F3AA02"/>
<path d="M106.5 558.2C97.2999 608.4 77.9999 654.1 49.3999 696.3C35.4999 716.9 20.4999 736.7 6.09988 756.9C-14.5001 785.7 55.2999 792.5 72.4999 797.7C83.7999 801.1 100.5 802 99.6999 793.3C99.4999 790.8 97.4999 788.2 95.8999 785.8C81.1999 763.3 93.9999 740.6 104.2 720.4C134.7 659.9 155.4 590.2 179.3 527.2C188.4 503.2 184.3 479.6 185.6 453.3C186.4 437.2 158.5 366.2 128 383.7C109 394.6 119.5 436 121.6 452.6C123 464.1 125.5 476.6 123.6 488.2C119.8 511.8 110.9 534.4 106.5 558.2Z" fill="#4B369D"/>
<path d="M180.9 791.4L195 855.7L174 862.6L163.2 794.7C163.3 794.6 174.2 789.2 180.9 791.4Z" fill="#EAC2AB"/>
<path d="M281 881C281 881 265.3 886.4 235.2 888.6C205.1 890.8 171.5 892 165.4 887.5C159.3 883 155.4 845 165.4 845C175.4 845 179.3 859.5 197 846.6C212.2 835.5 224.3 856.4 250.7 862C277.1 867.5 287.8 869.8 281 881Z" fill="#FDC510"/>
<path d="M235.6 809.4C234.6 807 231.9 805.3 229.6 803.4C208.6 786.6 213.7 761.1 217.1 738.7C225.1 685.7 216.5 632.3 213.3 579.2C210.2 527.5 215.4 475.5 227.2 425.1C231.5 406.8 237.4 378.4 209.1 383.8C195.7 386.3 182.4 385.8 169 383.5C162 382.3 169.1 380 162 382.3C137.5 390.1 128.4 436.4 133.4 452.5C143.4 484.6 146.7 515.4 148.3 549.4C150.6 597.6 158.6 645.9 152.9 693.7C150.1 717.1 146.8 740.5 143.7 763.9C141.9 777.5 130.5 807.5 138.1 819.8C148.6 836.8 195.4 822.4 211.1 822C222.8 821.8 239 817.4 235.6 809.4Z" fill="#5A54FF"/>
<path d="M214.7 294.3C207.6 265.5 215.3 217 195 195.6C192.9 193.4 190.7 191.2 188 190C162.5 178.5 147.1 199.5 136.1 217.6C125.1 235.8 125.4 255.5 120 275.8C113.9 299 115.1 323.1 114.7 347C114.4 361.6 116.2 376 115.4 390.6C114.8 400.8 113.4 410.9 111.1 420.8C109.6 427.4 100.9 440.5 103.4 447.2C105.4 452.5 114.5 450.5 119 450.7C136.4 451.3 153.4 446.1 168.9 438.5C183 431.5 195.4 420.7 211.7 419.3C219.8 418.6 245.3 421.9 241.6 407.2C232.9 372.4 223 342.7 219.4 318.1C218.2 310.3 216.7 302.3 214.7 294.3Z" fill="#D7384E"/>
<path d="M250.2 318.4C250.2 318.4 280 351.4 284.9 346.7C289.7 342 378.9 246.8 383.3 236.4C387.7 226 398.4 196 397.3 190C396.2 184 393.3 184.6 405.2 182.5C417 180.4 439.5 179.8 437.6 184.4C435.8 189 426.4 189.4 426.4 189.4C426.4 189.4 438.5 192.4 433.9 194.8C429.3 197.3 414.1 199.3 415.6 203.7C417.1 208.1 419.3 218.2 418.5 226.7C417.7 235.2 414.4 239.1 404.5 245.2C394.6 251.3 392.9 247 387.1 259.1C381.3 271.1 293.9 375.5 288.3 379.9C282.7 384.3 281.3 389 268.9 377.6C256.5 366.2 234.7 337.9 217.2 319.6C201.2 302.8 194.6 279.2 194.6 279.2L220.5 275.4C220.6 275.3 223.7 293.3 250.2 318.4Z" fill="#EAC2AB"/>
<path d="M231 276C231 276 210.4 209.4 183.9 222.1C157.4 234.8 194.7 305.9 194.7 305.9L237.8 284.5L231 276Z" fill="#F44E4E"/>
</svg>
