<svg width="482" height="850" viewBox="0 0 482 850" fill="none" xmlns="http://www.w3.org/2000/svg">
<path d="M104 307.9L226.8 170.8L209.5 211.3L111.2 307.9H104Z" fill="#4B369D"/>
<path d="M173.5 448.4L87.8998 415.4C74.4998 410.2 67.6998 395 72.8998 381.6L98.0998 316.2C103.3 302.8 118.5 296 131.9 301.2L217.5 334.2C230.9 339.4 237.7 354.6 232.5 368L207.3 433.4C202.1 446.8 186.9 453.6 173.5 448.4Z" fill="#4B369D"/>
<path d="M417.1 219.1L465.6 137.5C465.6 137.5 484.5 126.7 480.5 141.2C476.4 155.7 433.6 226.1 433.6 226.1L417.1 219.1Z" fill="#4B369D"/>
<path d="M279.9 153.8L265.4 200.2L225 205.1C225 205.1 255.4 178.3 258.9 148.5C262.5 118.7 279.9 153.8 279.9 153.8Z" fill="#D4A79A"/>
<path d="M337.2 65.9C337.2 65.9 342.5 78.6 326.4 109.2C310.3 139.8 290.6 164.4 281.2 160C255.4 147.7 250.8 126.1 245.5 107.2C239.1 84.1 274.5 40.6 274.5 40.6L299.1 34.4L337.2 65.9Z" fill="#EAC2AB"/>
<path d="M252.5 80.1C252.5 80.1 249.9 98.9 249.9 121.7C249.9 122.6 249.8 123.3 249.3 123.9C248 125.5 237.8 108.5 237.1 107.2C232.1 98.6 224.5 88.2 227.5 77.8C228.3 74.9 229.9 72.2 230.1 69.2C230.6 63.6 226.2 60 225.2 54.9C224.3 50.2 225.5 44.8 227 40.4C229.8 32 235.4 22.7 243.1 17.9C249.2 14.1 254.3 16 260.4 13.9C263.6 12.8 265 9.2 267.2 6.6C270.5 2.6 275.9 0.700002 281.1 0.600002C287.5 0.400002 296.8 1.7 302.3 5.4C309.3 10.1 310 22.6 316.6 26.1C317.7 26.7 319 26.8 320.3 27C332.6 28.2 344.3 27.6 354.1 36.1C369.7 49.4 359 96.4 336 83.1C333.4 81.6 331.1 79.5 328.6 77.7C316.5 69.4 301.2 83.3 293.1 62.3C291.6 58.5 266.5 57.2 266.2 67.5C265.8 80.8 252.5 80.1 252.5 80.1Z" fill="#4B369D"/>
<path d="M258.1 79.8C258.1 79.8 251 66 247.7 83.5C244.4 101 252.6 106.9 252.6 106.9L258.1 79.8Z" fill="#EAC2AB"/>
<path d="M75.7999 728.7L39.1999 779.8L20.8999 769.3L62.2999 718.3C62.1999 718.3 72.9999 722.6 75.7999 728.7Z" fill="#D4A79A"/>
<path d="M84.8001 843.1C83.9001 844.2 76.8001 842.5 75.8001 842.4C64.8001 840.8 47.7001 838.8 39.3001 830.9C31.1001 823.2 26.9001 811.6 20.0001 802.8C15.1001 796.6 8.30005 792.2 2.20005 787.4C-4.59995 782.1 16.2001 750.4 24.4001 757.4C31.0001 763.1 25.4001 774.8 44.4001 776.3C60.7001 777.5 46.7001 798.8 63.2001 815.5C77.6001 830.2 94.9001 831.2 84.8001 843.1Z" fill="#F3AA02"/>
<path d="M189.5 517C177.1 561.3 184.3 562.1 153.7 596.6C138.8 613.5 56.1002 683.1 40.7002 699.6C18.7002 723.1 41.6002 733.9 57.9002 740.8C68.6002 745.3 74.9002 768.7 91.1002 751.5C92.7002 749.8 120.6 713.8 128.9 698C138.5 680 193.4 630.6 212.3 613.2C257.4 571.9 234.6 552 262.2 498C272.7 477.4 270.4 455.5 273.5 431.8C275.4 417.3 253.3 349.5 222.5 361.5C203.4 369 210.7 407.8 211.5 423.1C212.1 433.7 213.6 445.4 211 455.6C205.6 476.6 195.4 496.1 189.5 517Z" fill="#4B369D"/>
<path d="M286.6 751.4L300.5 814.7L279.8 821.5L269.2 754.6C269.3 754.6 280 749.3 286.6 751.4Z" fill="#EAC2AB"/>
<path d="M385.2 839.6C385.2 839.6 369.7 844.9 340.1 847.1C310.5 849.3 277.4 850.4 271.4 846C265.4 841.6 261.5 804.2 271.4 804.2C281.3 804.2 285.1 818.5 302.6 805.7C317.5 794.8 329.5 815.4 355.5 820.9C381.3 826.4 391.9 828.6 385.2 839.6Z" fill="#FDC510"/>
<path d="M338.9 776C337.9 773.7 335.3 771.9 333 770.1C312.3 753.6 323.1 728.5 320.7 706.4C313.1 637.5 326.2 597.2 300.3 526.8C282.7 478.9 277.9 447.3 273.6 394.1C272.1 375.6 308.7 351.8 280.8 357C267.6 359.5 254.5 359 241.4 356.7C234.5 355.5 241.5 353.2 234.5 355.5C210.4 363.2 192.5 406.3 192.2 423C191.5 460.3 220.1 484.7 227.9 517.3C241.6 574.5 263.2 615 257.6 662.1C254.8 685.2 251.6 708.2 248.6 731.2C246.8 744.6 235.6 774.1 243.1 786.2C253.4 802.9 299.5 788.7 314.9 788.4C326.4 788.3 342.3 783.9 338.9 776Z" fill="#5A54FF"/>
<path d="M286.4 269C279.4 240.6 287 192.9 267 171.9C265 169.7 262.8 167.6 260.1 166.4C235 155.1 219.8 175.7 209 193.6C198.2 211.5 198.4 230.9 193.1 250.9C187.1 273.7 188.3 297.4 187.9 321C187.6 335.3 189.4 349.6 188.6 364C188 374 186.6 384 184.3 393.8C182.8 400.3 174.3 413.2 176.8 419.8C178.8 425 187.8 423.1 192.2 423.2C209.3 423.8 226.1 418.7 241.3 411.2C255.2 404.3 269.9 404.6 285.9 403.3C293.9 402.6 304.2 395.8 300.6 381.3C292.1 347 294.6 317 291 292.7C289.8 284.8 288.3 276.8 286.4 269Z" fill="#D7384E"/>
<path d="M241.8 208.5C241.8 208.5 277.6 290.1 295 301.1C312.4 312.1 327.5 310.5 358.1 290.4C388.8 270.3 416.4 246.3 419.3 243.6C422.2 240.9 447.4 237.9 449.6 227C451.8 216.1 461.4 181 452.1 187.9C442.9 194.8 434.9 217.5 427.3 217.9C419.6 218.3 430.5 194.4 423.5 198.3C416.5 202.1 416 208.5 413.5 213.9C411 219.3 414.3 225.3 399.1 238.7C383.9 252.1 334 286.9 319.6 284.3C305.2 281.7 252.7 204.3 250.5 198.4C248.3 192.5 241.8 208.5 241.8 208.5Z" fill="#EAC2AB"/>
<path d="M291.1 235.4C291.1 235.4 269.4 170.3 243.5 183.4C217.6 196.5 256 265.7 256 265.7L298 243.6L291.1 235.4Z" fill="#F44E4E"/>
</svg>
