<svg width="32" height="32" viewBox="0 0 32 32" fill="none" xmlns="http://www.w3.org/2000/svg">
<g clip-path="url(#clip0_1178_18908)">
<path d="M32 3.04004H30.48V22.85H32V3.04004Z" fill="#BFFB4F"/>
<path d="M30.48 22.85H28.96V24.38H30.48V22.85Z" fill="#BFFB4F"/>
<path d="M30.48 1.52002H28.96V3.04002H30.48V1.52002Z" fill="#BFFB4F"/>
<path d="M3.0498 24.38V25.9H6.0998V28.95H4.5798V30.47H3.0498V32H13.7198V30.47H12.1898V28.95H10.6698V25.9H21.3398V28.95H19.8098V30.47H18.2898V32H28.9598V30.47H27.4298V28.95H25.9098V25.9H28.9598V24.38H3.0498ZM9.1498 28.95H7.6198V25.9H9.1498V28.95ZM24.3898 28.95H22.8598V25.9H24.3898V28.95Z" fill="#BFFB4F"/>
<path d="M27.4298 6.08995H25.9098V4.56995H24.3898V6.08995H22.8598V7.61995H21.3398V12.1899H24.3898V9.13995H25.9098V12.1899H28.9598V7.61995H27.4298V6.08995Z" fill="#BFFB4F"/>
<path d="M22.8599 13.71V15.24H24.3899V21.33H25.9099V15.24H27.4299V13.71H22.8599Z" fill="#BFFB4F"/>
<path d="M19.81 16.76H18.29V18.28H19.81V21.33H21.34V13.71H19.81V16.76Z" fill="#BFFB4F"/>
<path d="M19.81 9.14001H18.29V12.19H19.81V9.14001Z" fill="#BFFB4F"/>
<path d="M19.81 6.08997H18.29V7.61997H19.81V6.08997Z" fill="#BFFB4F"/>
<path d="M16.7702 15.24V13.71H15.2402V21.33H16.7702V16.76H18.2902V15.24H16.7702Z" fill="#BFFB4F"/>
<path d="M16.7702 9.13995H18.2902V7.61995H16.7702V6.08995H18.2902V4.56995H15.2402V12.1899H16.7702V9.13995Z" fill="#BFFB4F"/>
<path d="M9.1499 13.71V21.33H13.7199V19.81H10.6699V18.28H12.1899V16.76H10.6699V15.24H13.7199V13.71H9.1499Z" fill="#BFFB4F"/>
<path d="M9.1499 4.56995V12.1899H13.7199V4.56995H9.1499ZM12.1899 10.6599H10.6699V6.08995H12.1899V10.6599Z" fill="#BFFB4F"/>
<path d="M7.6201 18.28H6.1001V21.33H7.6201V18.28Z" fill="#BFFB4F"/>
<path d="M7.6201 15.24H6.1001V16.76H7.6201V15.24Z" fill="#BFFB4F"/>
<path d="M3.0498 4.56995V12.1899H4.5798V9.13995H7.6198V7.61995H4.5798V6.08995H7.6198V4.56995H3.0498Z" fill="#BFFB4F"/>
<path d="M28.9598 0H3.0498V1.52H28.9598V0Z" fill="#BFFB4F"/>
<path d="M4.5798 15.24H6.0998V13.71H3.0498V21.33H4.5798V18.28H6.0998V16.76H4.5798V15.24Z" fill="#BFFB4F"/>
<path d="M3.04979 22.85H1.52979V24.38H3.04979V22.85Z" fill="#BFFB4F"/>
<path d="M3.04979 1.52002H1.52979V3.04002H3.04979V1.52002Z" fill="#BFFB4F"/>
<path d="M1.53 3.04004H0V22.85H1.53V3.04004Z" fill="#BFFB4F"/>
</g>
<defs>
<clipPath id="clip0_1178_18908">
<rect width="32" height="32" fill="white"/>
</clipPath>
</defs>
</svg>
