<svg width="32" height="32" viewBox="0 0 32 32" fill="none" xmlns="http://www.w3.org/2000/svg">
<g clip-path="url(#clip0_1178_18895)">
<path d="M32 10.66H30.48V28.95H32V10.66Z" fill="#BFFB4F"/>
<path d="M30.48 28.95H28.96V30.4699H30.48V28.95Z" fill="#BFFB4F"/>
<path d="M30.48 9.14001H28.96V10.66H30.48V9.14001Z" fill="#BFFB4F"/>
<path d="M28.9599 30.47H9.1499V32H28.9599V30.47Z" fill="#BFFB4F"/>
<path d="M31.9998 4.57002V3.04002H27.4298V1.52002H25.9098V3.04002H13.7198V1.52002H12.1898V3.04002H4.5798V1.52002H3.0498V32H4.5798V4.57002H12.1898V7.62002H9.1498V9.14002H28.9598V7.62002H27.4298V4.57002H31.9998ZM25.9098 7.62002H13.7198V4.57002H25.9098V7.62002Z" fill="#BFFB4F"/>
<path d="M12.1899 27.43H18.2899V22.85H19.8099V27.43H25.9099V21.33H27.4299V18.28H25.9099V16.76H24.3899V15.24H22.8599V13.71H21.3399V12.19H19.8099V10.66H18.2899V12.19H16.7699V13.71H15.2399V15.24H13.7199V16.76H12.1899V18.28H10.6699V21.33H12.1899V27.43ZM13.7199 19.81H15.2399V18.28H16.7699V16.76H18.2899V15.24H19.8099V16.76H21.3399V18.28H22.8599V19.81H24.3899V25.9H21.3399V21.33H16.7699V25.9H13.7199V19.81Z" fill="#BFFB4F"/>
<path d="M9.15012 28.95H7.62012V30.4699H9.15012V28.95Z" fill="#BFFB4F"/>
<path d="M9.15012 9.14001H7.62012V10.66H9.15012V9.14001Z" fill="#BFFB4F"/>
<path d="M7.6201 10.66H6.1001V28.95H7.6201V10.66Z" fill="#BFFB4F"/>
<path d="M3.04979 0H1.52979V1.52H3.04979V0Z" fill="#BFFB4F"/>
<path d="M1.53 1.52002H0V32H1.53V1.52002Z" fill="#BFFB4F"/>
</g>
<defs>
<clipPath id="clip0_1178_18895">
<rect width="32" height="32" fill="white"/>
</clipPath>
</defs>
</svg>
