<svg width="32" height="32" viewBox="0 0 32 32" fill="none" xmlns="http://www.w3.org/2000/svg">
<g clip-path="url(#clip0_1178_12989)">
<path d="M32.0002 18.29H30.4702V19.81H32.0002V18.29Z" fill="#BFFB4F"/>
<path d="M30.4702 19.81H28.9502V21.33H30.4702V19.81Z" fill="#BFFB4F"/>
<path d="M30.4702 16.76H28.9502V18.29H30.4702V16.76Z" fill="#BFFB4F"/>
<path d="M28.9502 21.33H27.4302V22.86H28.9502V21.33Z" fill="#BFFB4F"/>
<path d="M28.9502 15.24H27.4302V16.76H28.9502V15.24Z" fill="#BFFB4F"/>
<path d="M27.4299 22.86H25.8999V24.38H27.4299V22.86Z" fill="#BFFB4F"/>
<path d="M27.4299 13.72H25.8999V15.24H27.4299V13.72Z" fill="#BFFB4F"/>
<path d="M25.8999 24.38H24.3799V25.91H25.8999V24.38Z" fill="#BFFB4F"/>
<path d="M25.8999 12.19H24.3799V13.72H25.8999V12.19Z" fill="#BFFB4F"/>
<path d="M24.3799 25.91H22.8599V27.43H24.3799V25.91Z" fill="#BFFB4F"/>
<path d="M24.3799 10.67H22.8599V12.19H24.3799V10.67Z" fill="#BFFB4F"/>
<path d="M22.8601 27.43H21.3301V28.95H22.8601V27.43Z" fill="#BFFB4F"/>
<path d="M22.8601 21.33H21.3301V22.86H22.8601V21.33Z" fill="#BFFB4F"/>
<path d="M22.8601 16.76H21.3301V19.81H22.8601V16.76Z" fill="#BFFB4F"/>
<path d="M22.8601 9.14001H21.3301V10.67H22.8601V9.14001Z" fill="#BFFB4F"/>
<path d="M21.3301 28.95H19.8101V30.48H21.3301V28.95Z" fill="#BFFB4F"/>
<path d="M21.3301 19.81H19.8101V21.33H21.3301V19.81Z" fill="#BFFB4F"/>
<path d="M21.3298 15.24H18.2798V16.76H21.3298V15.24Z" fill="#BFFB4F"/>
<path d="M21.3301 7.62H19.8101V9.14H21.3301V7.62Z" fill="#BFFB4F"/>
<path d="M19.8098 30.48H18.2798V32H19.8098V30.48Z" fill="#BFFB4F"/>
<path d="M19.8098 18.29H18.2798V19.81H19.8098V18.29Z" fill="#BFFB4F"/>
<path d="M19.8098 6.10001H18.2798V7.62001H19.8098V6.10001Z" fill="#BFFB4F"/>
<path d="M18.2798 28.95H16.7598V30.48H18.2798V28.95Z" fill="#BFFB4F"/>
<path d="M19.8098 21.33H16.7598V22.86H19.8098V21.33Z" fill="#BFFB4F"/>
<path d="M18.2798 16.76H16.7598V18.29H18.2798V16.76Z" fill="#BFFB4F"/>
<path d="M18.2802 12.19H15.2402V13.72H18.2802V12.19Z" fill="#BFFB4F"/>
<path d="M18.2798 4.57001H16.7598V6.10001H18.2798V4.57001Z" fill="#BFFB4F"/>
<path d="M16.7602 27.43H15.2402V28.95H16.7602V27.43Z" fill="#BFFB4F"/>
<path d="M16.7602 15.24H15.2402V16.76H16.7602V15.24Z" fill="#BFFB4F"/>
<path d="M16.7602 3.04999H15.2402V4.56999H16.7602V3.04999Z" fill="#BFFB4F"/>
<path d="M15.24 25.91H13.71V27.43H15.24V25.91Z" fill="#BFFB4F"/>
<path d="M16.76 18.29H13.71V19.81H16.76V18.29Z" fill="#BFFB4F"/>
<path d="M15.24 13.72H13.71V15.24H15.24V13.72Z" fill="#BFFB4F"/>
<path d="M13.7099 24.38H12.1899V25.91H13.7099V24.38Z" fill="#BFFB4F"/>
<path d="M13.7099 15.24H12.1899V18.29H13.7099V15.24Z" fill="#BFFB4F"/>
<path d="M13.7099 12.19H12.1899V13.72H13.7099V12.19Z" fill="#BFFB4F"/>
<path d="M12.1902 22.86H10.6602V24.38H12.1902V22.86Z" fill="#BFFB4F"/>
<path d="M10.6601 21.33H9.14014V22.86H10.6601V21.33Z" fill="#BFFB4F"/>
<path d="M9.13982 7.62001H7.61982V9.14001H6.08982V7.62001H4.56982V10.67H10.6598V4.57001H7.61982V6.10001H9.13982V7.62001Z" fill="#BFFB4F"/>
<path d="M9.14012 19.81H7.62012V21.33H9.14012V19.81Z" fill="#BFFB4F"/>
<path d="M7.61984 18.29H6.08984V19.81H7.61984V18.29Z" fill="#BFFB4F"/>
<path d="M7.61984 6.10001H6.08984V7.62001H7.61984V6.10001Z" fill="#BFFB4F"/>
<path d="M15.2398 1.51999H4.56982V3.04999H15.2398V1.51999Z" fill="#BFFB4F"/>
<path d="M6.08982 16.76H4.56982V18.29H6.08982V16.76Z" fill="#BFFB4F"/>
<path d="M6.08982 4.57001H4.56982V6.10001H6.08982V4.57001Z" fill="#BFFB4F"/>
<path d="M4.5698 15.24H3.0498V16.76H4.5698V15.24Z" fill="#BFFB4F"/>
<path d="M4.5698 3.04999H3.0498V4.56999H4.5698V3.04999Z" fill="#BFFB4F"/>
<path d="M3.05002 4.57001H1.52002V15.24H3.05002V4.57001Z" fill="#BFFB4F"/>
<path d="M3.05002 1.51999H1.52002V3.04999H3.05002V1.51999Z" fill="#BFFB4F"/>
<path d="M1.52 0H0V1.52H1.52V0Z" fill="#BFFB4F"/>
</g>
<defs>
<clipPath id="clip0_1178_12989">
<rect width="32" height="32" fill="white"/>
</clipPath>
</defs>
</svg>
