<svg width="32" height="32" viewBox="0 0 32 32" fill="none" xmlns="http://www.w3.org/2000/svg">
<g clip-path="url(#clip0_1178_12640)">
<path d="M30.4749 12.19H28.9549V15.24H27.4249V13.72H25.9049V12.19H28.9549V10.67H25.9049V9.14001H24.3849V15.24H22.8549V16.76H9.1449V15.24H7.6149V9.14001H6.0999V10.67H3.0449V12.19H6.0999V13.72H4.5749V15.24H3.0449V12.19H1.5249V16.76H3.0449V18.29H6.0999V28.95H7.6199V30.48H9.1499V32H22.8599V30.48H24.3899V28.95H25.9099V18.29H28.9599V16.76H30.4799L30.4749 12.19ZM24.3849 21.34H7.6149V19.81H24.3849V21.34Z" fill="#BFFB4F"/>
<path d="M24.385 7.62H22.855V9.14H24.385V7.62Z" fill="#BFFB4F"/>
<path d="M24.385 1.53H22.855V4.57H24.385V1.53Z" fill="#BFFB4F"/>
<path d="M22.855 4.57001H21.335V7.62001H22.855V4.57001Z" fill="#BFFB4F"/>
<path d="M22.8547 0H19.8047V1.53H22.8547V0Z" fill="#BFFB4F"/>
<path d="M21.3347 10.67H19.8047V12.19H21.3347V10.67Z" fill="#BFFB4F"/>
<path d="M19.8047 1.53H18.2847V4.57H19.8047V1.53Z" fill="#BFFB4F"/>
<path d="M18.2851 4.57001H16.7651V6.10001H18.2851V4.57001Z" fill="#BFFB4F"/>
<path d="M15.2348 15.24H16.7648V13.72H18.2848V12.19H13.7148V13.72H15.2348V15.24Z" fill="#BFFB4F"/>
<path d="M16.7649 6.10001H15.2349V7.62001H16.7649V6.10001Z" fill="#BFFB4F"/>
<path d="M15.2348 4.57001H13.7148V6.10001H15.2348V4.57001Z" fill="#BFFB4F"/>
<path d="M13.7151 1.53H12.1851V4.57H13.7151V1.53Z" fill="#BFFB4F"/>
<path d="M12.185 10.67H10.665V12.19H12.185V10.67Z" fill="#BFFB4F"/>
<path d="M12.185 0H9.14502V1.53H12.185V0Z" fill="#BFFB4F"/>
<path d="M10.665 4.57001H9.14502V7.62001H10.665V4.57001Z" fill="#BFFB4F"/>
<path d="M9.14475 7.62H7.61475V9.14H9.14475V7.62Z" fill="#BFFB4F"/>
<path d="M9.14475 1.53H7.61475V4.57H9.14475V1.53Z" fill="#BFFB4F"/>
</g>
<defs>
<clipPath id="clip0_1178_12640">
<rect width="32" height="32" fill="white"/>
</clipPath>
</defs>
</svg>
