<svg width="32" height="32" viewBox="0 0 32 32" fill="none" xmlns="http://www.w3.org/2000/svg">
<g clip-path="url(#clip0_1178_12378)">
<path d="M32.0002 12.19H30.4702V19.81H32.0002V12.19Z" fill="#BFFB4F"/>
<path d="M28.9499 3.05V0H27.4299V1.52H25.8999V3.05H24.3799V7.62H28.9499V6.1H30.4699V4.57H31.9999V3.05H28.9499Z" fill="#BFFB4F"/>
<path d="M30.4702 19.81H28.9502V22.86H30.4702V19.81Z" fill="#BFFB4F"/>
<path d="M30.4702 9.14001H28.9502V12.19H30.4702V9.14001Z" fill="#BFFB4F"/>
<path d="M28.9502 22.86H27.4302V25.91H28.9502V22.86Z" fill="#BFFB4F"/>
<path d="M27.4299 25.91H25.8999V27.43H27.4299V25.91Z" fill="#BFFB4F"/>
<path d="M25.8999 27.43H22.8599V28.95H25.8999V27.43Z" fill="#BFFB4F"/>
<path d="M24.3799 7.62H22.8599V9.14H24.3799V7.62Z" fill="#BFFB4F"/>
<path d="M22.8601 9.14001H21.3301V10.67H22.8601V9.14001Z" fill="#BFFB4F"/>
<path d="M22.8601 28.95H19.8101V30.48H22.8601V28.95Z" fill="#BFFB4F"/>
<path d="M21.3301 13.72H19.8101V18.29H21.3301V13.72Z" fill="#BFFB4F"/>
<path d="M21.3301 10.67H19.8101V12.19H21.3301V10.67Z" fill="#BFFB4F"/>
<path d="M22.8601 1.51999H19.8101V3.04999H22.8601V1.51999Z" fill="#BFFB4F"/>
<path d="M19.8098 18.29H18.2798V19.81H19.8098V18.29Z" fill="#BFFB4F"/>
<path d="M19.8098 12.19H18.2798V13.72H19.8098V12.19Z" fill="#BFFB4F"/>
<path d="M19.8099 30.48H12.1899V32H19.8099V30.48Z" fill="#BFFB4F"/>
<path d="M18.2798 13.72H16.7598V15.24H18.2798V13.72Z" fill="#BFFB4F"/>
<path d="M18.28 19.81H13.71V21.33H18.28V19.81Z" fill="#BFFB4F"/>
<path d="M16.7602 15.24H15.2402V16.76H16.7602V15.24Z" fill="#BFFB4F"/>
<path d="M18.28 10.67H13.71V12.19H18.28V10.67Z" fill="#BFFB4F"/>
<path d="M19.8099 0H12.1899V1.52H19.8099V0Z" fill="#BFFB4F"/>
<path d="M13.7099 18.29H12.1899V19.81H13.7099V18.29Z" fill="#BFFB4F"/>
<path d="M13.7099 12.19H12.1899V13.72H13.7099V12.19Z" fill="#BFFB4F"/>
<path d="M12.1901 28.95H9.14014V30.48H12.1901V28.95Z" fill="#BFFB4F"/>
<path d="M12.1902 13.72H10.6602V18.29H12.1902V13.72Z" fill="#BFFB4F"/>
<path d="M12.1901 1.51999H9.14014V3.04999H12.1901V1.51999Z" fill="#BFFB4F"/>
<path d="M9.13984 27.43H6.08984V28.95H9.13984V27.43Z" fill="#BFFB4F"/>
<path d="M9.13984 3.04999H6.08984V4.56999H9.13984V3.04999Z" fill="#BFFB4F"/>
<path d="M7.61982 12.19H9.13982V9.14001H12.1898V7.62001H21.3298V6.10001H19.8098V4.57001H12.1898V6.10001H9.13982V7.62001H7.61982V9.14001H6.08982V12.19H4.56982V19.81H6.08982V22.86H7.61982V24.38H9.13982V25.91H12.1898V27.43H19.8098V25.91H22.8598V24.38H24.3798V22.86H25.8998V19.81H27.4298V12.19H25.8998V10.67H24.3798V19.81H22.8598V22.86H21.3298V24.38H12.1898V22.86H9.13982V19.81H7.61982V12.19Z" fill="#BFFB4F"/>
<path d="M6.08982 25.91H4.56982V27.43H6.08982V25.91Z" fill="#BFFB4F"/>
<path d="M6.08982 4.57001H4.56982V6.10001H6.08982V4.57001Z" fill="#BFFB4F"/>
<path d="M4.5698 22.86H3.0498V25.91H4.5698V22.86Z" fill="#BFFB4F"/>
<path d="M4.5698 6.10001H3.0498V9.14001H4.5698V6.10001Z" fill="#BFFB4F"/>
<path d="M3.05002 19.81H1.52002V22.86H3.05002V19.81Z" fill="#BFFB4F"/>
<path d="M3.05002 9.14001H1.52002V12.19H3.05002V9.14001Z" fill="#BFFB4F"/>
<path d="M1.52 12.19H0V19.81H1.52V12.19Z" fill="#BFFB4F"/>
</g>
<defs>
<clipPath id="clip0_1178_12378">
<rect width="32" height="32" fill="white"/>
</clipPath>
</defs>
</svg>
