<svg width="32" height="32" viewBox="0 0 32 32" fill="none" xmlns="http://www.w3.org/2000/svg">
<g clip-path="url(#clip0_1178_12477)">
<path d="M32.0002 28.95H28.9502V30.48H32.0002V28.95Z" fill="#BFFB4F"/>
<path d="M28.9502 30.48H27.4302V32H28.9502V30.48Z" fill="#BFFB4F"/>
<path d="M27.4299 19.81H25.8999V21.33H27.4299V22.86H28.9499V15.24H27.4299V19.81Z" fill="#BFFB4F"/>
<path d="M27.4299 28.95H24.3799V30.48H27.4299V28.95Z" fill="#BFFB4F"/>
<path d="M27.4299 13.72H25.8999V15.24H27.4299V13.72Z" fill="#BFFB4F"/>
<path d="M24.3801 27.43H21.3301V28.95H24.3801V27.43Z" fill="#BFFB4F"/>
<path d="M22.8599 21.33H24.3799V19.81H25.8999V18.29H24.3799V13.72H25.8999V12.19H24.3799V7.62H22.8599V21.33Z" fill="#BFFB4F"/>
<path d="M21.3301 30.48H19.8101V32H21.3301V30.48Z" fill="#BFFB4F"/>
<path d="M21.3301 18.29H19.8101V19.81H21.3301V18.29Z" fill="#BFFB4F"/>
<path d="M21.3301 15.24H19.8101V16.76H21.3301V15.24Z" fill="#BFFB4F"/>
<path d="M19.8098 27.43H18.2798V30.48H19.8098V27.43Z" fill="#BFFB4F"/>
<path d="M19.81 24.38H13.71V25.91H19.81V24.38Z" fill="#BFFB4F"/>
<path d="M19.8098 1.51999H18.2798V3.04999H19.8098V1.51999Z" fill="#BFFB4F"/>
<path d="M18.2802 0H15.2402V1.52H18.2802V0Z" fill="#BFFB4F"/>
<path d="M19.81 9.14H18.28V7.62H15.24V9.14H16.76V10.67H15.24V9.14H13.71V12.19H15.24V13.72H18.28V12.19H19.81V9.14Z" fill="#BFFB4F"/>
<path d="M15.24 27.43H13.71V30.48H15.24V27.43Z" fill="#BFFB4F"/>
<path d="M10.6602 22.86H12.1902V24.38H13.7102V22.86H19.8102V24.38H21.3302V22.86H22.8602V21.33H10.6602V22.86Z" fill="#BFFB4F"/>
<path d="M15.24 1.51999H13.71V3.04999H15.24V1.51999Z" fill="#BFFB4F"/>
<path d="M13.7099 30.48H12.1899V32H13.7099V30.48Z" fill="#BFFB4F"/>
<path d="M12.1901 27.43H9.14014V28.95H12.1901V27.43Z" fill="#BFFB4F"/>
<path d="M13.7102 4.56999V3.04999H12.1902V4.56999H10.6602V7.61999H12.1902V6.09999H21.3302V7.61999H22.8602V4.56999H21.3302V3.04999H19.8102V4.56999H13.7102Z" fill="#BFFB4F"/>
<path d="M10.6601 7.62H9.14012V12.19H7.62012V13.72H9.14012V18.29H7.62012V19.81H9.14012V21.33H10.6601V7.62Z" fill="#BFFB4F"/>
<path d="M9.13984 28.95H6.08984V30.48H9.13984V28.95Z" fill="#BFFB4F"/>
<path d="M7.61984 13.72H6.08984V15.24H7.61984V13.72Z" fill="#BFFB4F"/>
<path d="M6.08982 30.48H4.56982V32H6.08982V30.48Z" fill="#BFFB4F"/>
<path d="M6.08982 15.24H4.56982V22.86H6.08982V21.33H7.61982V19.81H6.08982V15.24Z" fill="#BFFB4F"/>
<path d="M4.57002 28.95H1.52002V30.48H4.57002V28.95Z" fill="#BFFB4F"/>
<path d="M1.52 30.48H0V32H1.52V30.48Z" fill="#BFFB4F"/>
</g>
<defs>
<clipPath id="clip0_1178_12477">
<rect width="32" height="32" fill="white"/>
</clipPath>
</defs>
</svg>
