<svg width="32" height="32" viewBox="0 0 32 32" fill="none" xmlns="http://www.w3.org/2000/svg">
<path d="M30.4751 15.245H28.9551V16.765H30.4751V15.245Z" fill="#000001"/>
<path d="M28.955 16.765H27.425V18.285H28.955V16.765Z" fill="#000001"/>
<path d="M28.955 13.715H27.425V15.245H28.955V13.715Z" fill="#000001"/>
<path d="M27.425 18.285H25.905V19.815H27.425V18.285Z" fill="#000001"/>
<path d="M27.425 12.195H25.905V13.715H27.425V12.195Z" fill="#000001"/>
<path d="M24.3851 24.385H19.8051V25.905H25.9051V19.815H24.3851V24.385Z" fill="#000001"/>
<path d="M15.235 16.765H13.715V15.245H12.185V13.715H10.665V15.245H9.14502V16.765H10.665V18.285H12.185V19.815H13.715V21.335H15.235V19.815H16.765V18.285H18.285V16.765H19.805V15.245H21.335V13.715H22.855V12.195H21.335V10.665H19.805V12.195H18.285V13.715H16.765V15.245H15.235V16.765Z" fill="#000001"/>
<path d="M24.3851 7.625V12.195H25.9051V6.095H19.8051V7.625H24.3851Z" fill="#000001"/>
<path d="M19.805 25.905H18.285V27.435H19.805V25.905Z" fill="#000001"/>
<path d="M19.805 4.575H18.285V6.095H19.805V4.575Z" fill="#000001"/>
<path d="M18.285 27.435H16.765V28.955H18.285V27.435Z" fill="#000001"/>
<path d="M18.285 3.05499H16.765V4.57499H18.285V3.05499Z" fill="#000001"/>
<path d="M16.765 28.955H15.235V30.475H16.765V28.955Z" fill="#000001"/>
<path d="M16.765 1.52499H15.235V3.05499H16.765V1.52499Z" fill="#000001"/>
<path d="M15.235 27.435H13.715V28.955H15.235V27.435Z" fill="#000001"/>
<path d="M15.235 3.05499H13.715V4.57499H15.235V3.05499Z" fill="#000001"/>
<path d="M13.7151 25.905H12.1851V27.435H13.7151V25.905Z" fill="#000001"/>
<path d="M13.7151 4.575H12.1851V6.095H13.7151V4.575Z" fill="#000001"/>
<path d="M7.61497 24.385V19.815H6.09497V25.905H12.185V24.385H7.61497Z" fill="#000001"/>
<path d="M7.61497 7.625H12.185V6.095H6.09497V12.195H7.61497V7.625Z" fill="#000001"/>
<path d="M6.09507 18.285H4.57507V19.815H6.09507V18.285Z" fill="#000001"/>
<path d="M6.09507 12.195H4.57507V13.715H6.09507V12.195Z" fill="#000001"/>
<path d="M4.57504 16.765H3.04504V18.285H4.57504V16.765Z" fill="#000001"/>
<path d="M4.57504 13.715H3.04504V15.245H4.57504V13.715Z" fill="#000001"/>
<path d="M3.04502 15.245H1.52502V16.765H3.04502V15.245Z" fill="#000001"/>
</svg>
