<svg width="32" height="32" viewBox="0 0 32 32" fill="none" xmlns="http://www.w3.org/2000/svg">
<g clip-path="url(#clip0_1178_8962)">
<path d="M30.48 0H21.33V1.53H19.81V10.67H1.52V12.19H19.81V16.77H21.33V22.86H1.52V12.19H0V25.91H1.52V24.39H21.33V25.91H22.86V18.29H30.48V16.77H32V1.53H30.48V0ZM24.38 1.53H27.43V3.05H24.38V1.53ZM30.48 15.24H21.33V3.05H22.86V4.58H28.95V3.05H30.48V15.24Z" fill="#BFFB4F"/>
<path d="M28.9502 9.15002H27.4302V10.67H28.9502V9.15002Z" fill="#BFFB4F"/>
<path d="M28.9502 6.09998H27.4302V7.61998H28.9502V6.09998Z" fill="#BFFB4F"/>
<path d="M27.4299 10.67H24.3799V12.19H27.4299V10.67Z" fill="#BFFB4F"/>
<path d="M24.3799 9.15002H22.8599V10.67H24.3799V9.15002Z" fill="#BFFB4F"/>
<path d="M24.3799 6.09998H22.8599V7.61998H24.3799V6.09998Z" fill="#BFFB4F"/>
<path d="M1.52002 25.91V27.43H7.62002V28.96H9.14002V27.43H13.71V28.96H15.24V27.43H21.33V25.91H1.52002Z" fill="#BFFB4F"/>
<path d="M19.81 16.77H18.29V18.29H19.81V16.77Z" fill="#BFFB4F"/>
<path d="M18.2898 18.29H16.7598V19.81H18.2898V18.29Z" fill="#BFFB4F"/>
<path d="M18.2898 15.24H16.7598V16.77H18.2898V15.24Z" fill="#BFFB4F"/>
<path d="M16.7602 19.81H15.2402V21.34H16.7602V19.81Z" fill="#BFFB4F"/>
<path d="M16.7602 13.72H15.2402V15.24H16.7602V13.72Z" fill="#BFFB4F"/>
<path d="M7.6201 30.48V28.96H6.1001V32H16.7601V28.96H15.2401V30.48H7.6201Z" fill="#BFFB4F"/>
<path d="M13.7099 13.72H12.1899V16.77H13.7099V13.72Z" fill="#BFFB4F"/>
<path d="M12.1899 16.77H10.6699V18.29H12.1899V16.77Z" fill="#BFFB4F"/>
<path d="M10.6701 18.29H9.14014V21.34H10.6701V18.29Z" fill="#BFFB4F"/>
<path d="M7.6201 19.81H6.1001V21.34H7.6201V19.81Z" fill="#BFFB4F"/>
<path d="M7.6201 13.72H6.1001V15.24H7.6201V13.72Z" fill="#BFFB4F"/>
<path d="M6.09982 18.29H4.56982V19.81H6.09982V18.29Z" fill="#BFFB4F"/>
<path d="M6.09982 15.24H4.56982V16.77H6.09982V15.24Z" fill="#BFFB4F"/>
<path d="M4.5698 16.77H3.0498V18.29H4.5698V16.77Z" fill="#BFFB4F"/>
</g>
<defs>
<clipPath id="clip0_1178_8962">
<rect width="32" height="32" fill="white"/>
</clipPath>
</defs>
</svg>
