<svg width="32" height="32" viewBox="0 0 32 32" fill="none" xmlns="http://www.w3.org/2000/svg">
<g clip-path="url(#clip0_1128_5572)">
<path d="M32 7.62H30.47V27.43H32V7.62Z" fill="#000001"/>
<path d="M1.52002 27.43V28.95H3.05002V30.48H4.57002V28.95H27.43V30.48H28.95V28.95H30.47V27.43H1.52002Z" fill="#000001"/>
<path d="M28.9501 16.76H27.4301V18.29H28.9501V16.76Z" fill="#000001"/>
<path d="M28.9501 13.71H27.4301V15.24H28.9501V13.71Z" fill="#000001"/>
<path d="M28.9501 10.67H27.4301V12.19H28.9501V10.67Z" fill="#000001"/>
<path d="M24.38 19.81V25.9H28.95V19.81H24.38ZM27.43 22.86H25.9V21.33H27.43V22.86Z" fill="#000001"/>
<path d="M27.4299 30.48H4.56995V32H27.4299V30.48Z" fill="#000001"/>
<path d="M25.9 16.76H24.38V18.29H25.9V16.76Z" fill="#000001"/>
<path d="M25.9 13.71H24.38V15.24H25.9V13.71Z" fill="#000001"/>
<path d="M25.9 10.67H24.38V12.19H25.9V10.67Z" fill="#000001"/>
<path d="M22.85 10.67H21.33V24.38H22.85V10.67Z" fill="#000001"/>
<path d="M21.3299 24.38H4.56995V25.9H21.3299V24.38Z" fill="#000001"/>
<path d="M15.24 0H13.71V1.52H15.24V0Z" fill="#000001"/>
<path d="M13.7099 1.52H12.1899V3.05H13.7099V1.52Z" fill="#000001"/>
<path d="M12.19 3.05H10.66V4.57H12.19V3.05Z" fill="#000001"/>
<path d="M9.14 3.05H7.62V4.57H9.14V3.05Z" fill="#000001"/>
<path d="M21.3299 9.14H4.56995V10.67H21.3299V9.14Z" fill="#000001"/>
<path d="M7.61997 1.52H6.08997V3.05H7.61997V1.52Z" fill="#000001"/>
<path d="M6.08995 0H4.56995V1.52H6.08995V0Z" fill="#000001"/>
<path d="M4.57005 10.67H3.05005V24.38H4.57005V10.67Z" fill="#000001"/>
<path d="M30.47 7.62001V6.10001H10.66V4.57001H9.14002V6.10001H1.52002V7.62001H30.47Z" fill="#000001"/>
<path d="M1.52 7.62H0V27.43H1.52V7.62Z" fill="#000001"/>
</g>
<defs>
<clipPath id="clip0_1128_5572">
<rect width="32" height="32" fill="white"/>
</clipPath>
</defs>
</svg>
