<svg width="32" height="32" viewBox="0 0 32 32" fill="none" xmlns="http://www.w3.org/2000/svg">
<g clip-path="url(#clip0_1178_9329)">
<path d="M25.1401 22.86V15.24H26.6701V12.19H25.1401V9.14H23.6201V22.86H25.1401Z" fill="#BFFB4F"/>
<path d="M23.6198 22.86H22.0898V24.38H23.6198V22.86Z" fill="#BFFB4F"/>
<path d="M23.6198 7.62H22.0898V9.14H23.6198V7.62Z" fill="#BFFB4F"/>
<path d="M22.0903 12.19H20.5703V19.81H22.0903V12.19Z" fill="#BFFB4F"/>
<path d="M19.0499 32V30.48H20.5699V28.95H22.0899V27.43H8.37988V28.95H9.89988V30.48H11.4299V32H19.0499Z" fill="#BFFB4F"/>
<path d="M22.0899 24.38H8.37988V25.9H22.0899V24.38Z" fill="#BFFB4F"/>
<path d="M20.5703 19.81H19.0503V21.33H20.5703V19.81Z" fill="#BFFB4F"/>
<path d="M20.5703 10.67H19.0503V12.19H20.5703V10.67Z" fill="#BFFB4F"/>
<path d="M19.05 13.71H17.52V18.29H19.05V13.71Z" fill="#BFFB4F"/>
<path d="M19.05 9.14H14.48V10.67H19.05V9.14Z" fill="#BFFB4F"/>
<path d="M19.0502 21.33H11.4302V22.86H19.0502V21.33Z" fill="#BFFB4F"/>
<path d="M17.52 12.19H14.48V13.71H17.52V12.19Z" fill="#BFFB4F"/>
<path d="M17.5202 18.29H12.9502V19.81H17.5202V18.29Z" fill="#BFFB4F"/>
<path d="M16 15.24H14.48V16.76H16V15.24Z" fill="#BFFB4F"/>
<path d="M11.4299 19.81H9.8999V21.33H11.4299V19.81Z" fill="#BFFB4F"/>
<path d="M22.0899 6.1H8.37988V7.62H22.0899V6.1Z" fill="#BFFB4F"/>
<path d="M11.4299 0V1.52H9.89988V3.05H8.37988V4.57H22.0899V3.05H20.5699V1.52H19.0499V0H11.4299Z" fill="#BFFB4F"/>
<path d="M8.37986 22.86H6.85986V24.38H8.37986V22.86Z" fill="#BFFB4F"/>
<path d="M8.37986 7.62H6.85986V9.14H8.37986V7.62Z" fill="#BFFB4F"/>
<path d="M6.86008 9.14H5.33008V22.86H6.86008V9.14Z" fill="#BFFB4F"/>
</g>
<defs>
<clipPath id="clip0_1178_9329">
<rect width="32" height="32" fill="white"/>
</clipPath>
</defs>
</svg>
