<svg width="32" height="32" viewBox="0 0 32 32" fill="none" xmlns="http://www.w3.org/2000/svg">
<path d="M30.4751 4.575H28.9551V15.235H30.4751V4.575Z" fill="#BFFB4F"/>
<path d="M28.9548 15.235H27.4248V16.765H28.9548V15.235Z" fill="#BFFB4F"/>
<path d="M28.9548 3.045H27.4248V4.575H28.9548V3.045Z" fill="#BFFB4F"/>
<path d="M27.4248 16.765H25.9048V18.285H27.4248V16.765Z" fill="#BFFB4F"/>
<path d="M27.4248 7.615H25.9048V12.185H27.4248V7.615Z" fill="#BFFB4F"/>
<path d="M27.4248 1.525H25.9048V3.045H27.4248V1.525Z" fill="#BFFB4F"/>
<path d="M25.9048 12.185H24.3848V13.715H25.9048V12.185Z" fill="#BFFB4F"/>
<path d="M25.9048 6.095H24.3848V7.615H25.9048V6.095Z" fill="#BFFB4F"/>
<path d="M22.855 4.575H21.335V15.235H22.855V4.575Z" fill="#BFFB4F"/>
<path d="M21.3349 15.235H19.8149V16.765H21.3349V15.235Z" fill="#BFFB4F"/>
<path d="M21.3349 3.045H19.8149V4.575H21.3349V3.045Z" fill="#BFFB4F"/>
<path d="M19.8148 16.765H13.7148V18.285H19.8148V16.765Z" fill="#BFFB4F"/>
<path d="M18.2851 13.715H19.8151V6.095H18.2851V4.575H16.7651V15.235H18.2851V13.715Z" fill="#BFFB4F"/>
<path d="M19.8148 1.525H13.7148V3.045H19.8148V1.525Z" fill="#BFFB4F"/>
<path d="M13.7148 15.235H12.1948V16.765H13.7148V15.235Z" fill="#BFFB4F"/>
<path d="M13.715 3.045H10.665V4.575H13.715V3.045Z" fill="#BFFB4F"/>
<path d="M12.195 13.715H10.665V15.235H12.195V13.715Z" fill="#BFFB4F"/>
<path d="M10.665 12.185H9.14502V13.715H10.665V12.185Z" fill="#BFFB4F"/>
<path d="M10.665 4.575H9.14502V6.095H10.665V4.575Z" fill="#BFFB4F"/>
<path d="M9.14475 13.715H7.61475V15.235H9.14475V13.715Z" fill="#BFFB4F"/>
<path d="M9.14475 6.095H7.61475V7.615H9.14475V6.095Z" fill="#BFFB4F"/>
<path d="M7.61473 15.235H6.09473V28.955H7.61473V15.235Z" fill="#BFFB4F"/>
<path d="M7.61473 7.615H6.09473V9.145H7.61473V7.615Z" fill="#BFFB4F"/>
<path d="M6.09471 9.145H4.57471V10.665H6.09471V9.145Z" fill="#BFFB4F"/>
<path d="M6.09492 28.955H3.04492V30.475H6.09492V28.955Z" fill="#BFFB4F"/>
<path d="M4.57492 10.665H3.04492V12.185H4.57492V10.665Z" fill="#BFFB4F"/>
<path d="M3.0449 12.185H1.5249V28.955H3.0449V12.185Z" fill="#BFFB4F"/>
</svg>
