<svg width="32" height="32" viewBox="0 0 32 32" fill="none" xmlns="http://www.w3.org/2000/svg">
<g clip-path="url(#clip0_1178_9691)">
<path d="M32 21.34H30.48V28.96H32V21.34Z" fill="#BFFB4F"/>
<path d="M30.48 0H1.53V1.53H0V19.81H1.53V21.34H9.14V19.81H3.05V1.53H28.95V6.1H27.43V15.24H28.95V16.77H30.48V18.29H32V1.53H30.48V0ZM30.48 13.72H28.95V10.67H30.48V13.72ZM30.48 9.15H28.95V7.62H30.48V9.15Z" fill="#BFFB4F"/>
<path d="M30.4802 28.96H28.9502V30.48H30.4802V28.96Z" fill="#BFFB4F"/>
<path d="M30.4802 19.81H28.9502V21.34H30.4802V19.81Z" fill="#BFFB4F"/>
<path d="M28.9502 30.48H27.4302V32H28.9502V30.48Z" fill="#BFFB4F"/>
<path d="M28.9502 18.29H27.4302V19.81H28.9502V18.29Z" fill="#BFFB4F"/>
<path d="M21.3301 16.77V10.67H19.8101V18.29H27.4301V16.77H21.3301Z" fill="#BFFB4F"/>
<path d="M25.9099 19.81H24.3799V24.38H25.9099V19.81Z" fill="#BFFB4F"/>
<path d="M24.3799 4.58H22.8599V6.1H24.3799V4.58Z" fill="#BFFB4F"/>
<path d="M22.8601 6.1H21.3301V7.62H22.8601V6.1Z" fill="#BFFB4F"/>
<path d="M21.3301 19.81H19.8101V24.38H21.3301V19.81Z" fill="#BFFB4F"/>
<path d="M19.8098 9.15H16.7598V10.67H19.8098V9.15Z" fill="#BFFB4F"/>
<path d="M18.2898 3.05H16.7598V7.62H18.2898V3.05Z" fill="#BFFB4F"/>
<path d="M16.7602 28.96H15.2402V32H16.7602V28.96Z" fill="#BFFB4F"/>
<path d="M15.2399 18.29H12.1899V19.81H15.2399V22.86H16.7599V10.67H15.2399V18.29Z" fill="#BFFB4F"/>
<path d="M15.2402 27.43H13.7202V28.96H15.2402V27.43Z" fill="#BFFB4F"/>
<path d="M13.7199 25.91H12.1899V27.43H13.7199V25.91Z" fill="#BFFB4F"/>
<path d="M13.7199 6.1H12.1899V7.62H13.7199V6.1Z" fill="#BFFB4F"/>
<path d="M12.1899 19.81H10.6699V25.91H12.1899V19.81Z" fill="#BFFB4F"/>
<path d="M12.1899 4.58H10.6699V6.1H12.1899V4.58Z" fill="#BFFB4F"/>
</g>
<defs>
<clipPath id="clip0_1178_9691">
<rect width="32" height="32" fill="white"/>
</clipPath>
</defs>
</svg>
