<svg width="32" height="32" viewBox="0 0 32 32" fill="none" xmlns="http://www.w3.org/2000/svg">
<g clip-path="url(#clip0_1178_10190)">
<path d="M30.472 3.045H28.952V1.525H27.432V-0.00500488H6.09197V12.195H1.52197V13.715H9.14197V12.195H7.62197V1.525H24.382V7.615H30.472V22.855H28.952V25.905H30.472V30.475H32.002V4.575H30.472V3.045Z" fill="#BFFB4F"/>
<path d="M30.4721 30.475H7.62207V31.995H30.4721V30.475Z" fill="#BFFB4F"/>
<path d="M28.9521 19.805H27.4321V22.855H28.9521V19.805Z" fill="#BFFB4F"/>
<path d="M27.4319 16.765H25.9019V19.805H27.4319V16.765Z" fill="#BFFB4F"/>
<path d="M25.9019 15.235H10.6719V16.765H25.9019V15.235Z" fill="#BFFB4F"/>
<path d="M21.332 7.61499H19.812V9.14499H21.332V7.61499Z" fill="#BFFB4F"/>
<path d="M19.8122 10.665H15.2422V12.195H19.8122V10.665Z" fill="#BFFB4F"/>
<path d="M15.2419 7.61499H13.7119V9.14499H15.2419V7.61499Z" fill="#BFFB4F"/>
<path d="M10.6721 13.715H9.14209V15.235H10.6721V13.715Z" fill="#BFFB4F"/>
<path d="M7.6218 27.425H6.0918V30.475H7.6218V27.425Z" fill="#BFFB4F"/>
<path d="M6.09178 24.385H4.57178V27.425H6.09178V24.385Z" fill="#BFFB4F"/>
<path d="M4.57176 21.335H3.05176V24.385H4.57176V21.335Z" fill="#BFFB4F"/>
<path d="M3.05197 18.285H1.52197V21.335H3.05197V18.285Z" fill="#BFFB4F"/>
<path d="M1.52195 13.715H0.00195312V18.285H1.52195V13.715Z" fill="#BFFB4F"/>
</g>
<defs>
<clipPath id="clip0_1178_10190">
<rect width="32" height="32" fill="white"/>
</clipPath>
</defs>
</svg>
