<svg width="32" height="32" viewBox="0 0 32 32" fill="none" xmlns="http://www.w3.org/2000/svg">
<g clip-path="url(#clip0_1178_10277)">
<path d="M0.759766 22.09V26.67H3.80977V25.14H2.28977V23.62H3.80977V25.14H6.85977V26.67H9.90977V28.19H11.4298V29.71H9.90977V31.24H14.4798V29.71H12.9598V28.19H14.4798V26.67H17.5298V25.14H20.5698V23.62H23.6198V22.09H26.6698V20.57H29.7198V22.09H31.2398V17.52H29.7198V16H26.6698V12.95H28.1898V6.86002H26.6698V8.38002H25.1498V9.90002H26.6698V11.43H25.1498V12.95H22.0998V14.48H19.0498V16H15.9998V17.52H12.9598V19.05H11.4298V17.52H9.90977V16H6.85977V14.48H3.80977V12.95H2.28977V11.43H3.80977V12.95H6.85977V14.48H9.90977V16H15.9998V14.48H19.0498V12.95H22.0998V11.43H25.1498V9.90002H20.5698V11.43H17.5298V12.95H14.4798V14.48H11.4298V12.95H8.37977V11.43H5.33977V9.90002H2.28977V8.38002H0.759766V14.48H2.28977V16H0.759766V20.57H2.28977V22.09H0.759766ZM2.28977 17.52H3.80977V16H5.33977V17.52H8.37977V19.05H9.90977V20.57H14.4798V19.05H17.5298V17.52H20.5698V16H23.6198V14.48H25.1498V17.52H22.0998V19.05H19.0498V20.57H15.9998V22.09H12.9598V23.62H9.90977V22.09H6.85977V20.57H3.80977V19.05H2.28977V17.52Z" fill="#BFFB4F"/>
<path d="M29.7199 22.09H26.6699V23.62H29.7199V22.09Z" fill="#BFFB4F"/>
<path d="M26.6696 23.62H23.6196V25.14H26.6696V23.62Z" fill="#BFFB4F"/>
<path d="M26.6696 5.33002H23.6196V6.86002H26.6696V5.33002Z" fill="#BFFB4F"/>
<path d="M23.6198 25.14H20.5698V26.67H23.6198V25.14Z" fill="#BFFB4F"/>
<path d="M23.6198 3.81H20.5698V5.33H23.6198V3.81Z" fill="#BFFB4F"/>
<path d="M20.5698 26.67H17.5298V28.19H20.5698V26.67Z" fill="#BFFB4F"/>
<path d="M20.5698 2.28H17.5298V3.81H20.5698V2.28Z" fill="#BFFB4F"/>
<path d="M17.53 0.76001H14.48V2.28001H17.53V0.76001Z" fill="#BFFB4F"/>
<path d="M17.53 28.19H14.48V29.71H17.53V28.19Z" fill="#BFFB4F"/>
<path d="M14.4797 2.28H11.4297V3.81H14.4797V2.28Z" fill="#BFFB4F"/>
<path d="M11.4299 3.81H8.37988V5.33H11.4299V3.81Z" fill="#BFFB4F"/>
<path d="M9.90986 28.19H6.85986V29.71H9.90986V28.19Z" fill="#BFFB4F"/>
<path d="M9.90986 11.43H15.9999V9.90002H19.0499V8.38002H22.0999V6.86002H17.5299V5.33002H12.9599V6.86002H9.90986V8.38002H6.85986V9.90002H9.90986V11.43Z" fill="#BFFB4F"/>
<path d="M8.37984 5.33002H5.33984V6.86002H8.37984V5.33002Z" fill="#BFFB4F"/>
<path d="M6.85957 26.67H3.80957V28.19H6.85957V26.67Z" fill="#BFFB4F"/>
<path d="M5.33955 6.86002H2.28955V8.38002H5.33955V6.86002Z" fill="#BFFB4F"/>
</g>
<defs>
<clipPath id="clip0_1178_10277">
<rect width="32" height="32" fill="white"/>
</clipPath>
</defs>
</svg>
