<svg width="32" height="32" viewBox="0 0 32 32" fill="none" xmlns="http://www.w3.org/2000/svg">
<g clip-path="url(#clip0_1178_9938)">
<path d="M3.80957 1.52H28.1896V3.05H5.33957V4.57H28.1896V6.1H3.80957V7.62H5.33957V30.48H3.80957V32H29.7196V30.48H6.85957V7.62H29.7196V30.48H31.2396V6.1H29.7196V1.52H31.2396V0H3.80957V1.52Z" fill="#BFFB4F"/>
<path d="M25.1499 12.19H9.90988V13.72H8.37988V16.76H12.9599V15.24H22.0999V16.76H26.6699V13.72H25.1499V12.19Z" fill="#BFFB4F"/>
<path d="M23.6197 19.81H22.0997V18.29H20.5697V16.76H19.0497V18.29H15.9997V16.76H14.4797V18.29H12.9597V19.81H11.4297V21.33H9.90967V25.91H11.4297V27.43H23.6197V25.91H25.1497V21.33H23.6197V19.81ZM20.5697 24.38H19.0497V25.91H15.9997V24.38H14.4797V21.33H15.9997V19.81H19.0497V21.33H20.5697V24.38Z" fill="#BFFB4F"/>
<path d="M19.05 21.33H16V24.38H19.05V21.33Z" fill="#BFFB4F"/>
<path d="M3.80955 28.95H2.28955V30.48H3.80955V28.95Z" fill="#BFFB4F"/>
<path d="M3.80955 1.51999H2.28955V3.04999H3.80955V1.51999Z" fill="#BFFB4F"/>
<path d="M2.28977 6.09999H3.80977V4.56999H2.28977V3.04999H0.759766V28.95H2.28977V6.09999Z" fill="#BFFB4F"/>
</g>
<defs>
<clipPath id="clip0_1178_9938">
<rect width="32" height="32" fill="white"/>
</clipPath>
</defs>
</svg>
