<svg width="32" height="32" viewBox="0 0 32 32" fill="none" xmlns="http://www.w3.org/2000/svg">
<g clip-path="url(#clip0_1178_10914)">
<path d="M28.9502 11.425V12.955H30.4802V19.045H32.0002V11.425H28.9502Z" fill="#BFFB4F"/>
<path d="M30.4802 19.045H28.9502V22.095H30.4802V19.045Z" fill="#BFFB4F"/>
<path d="M28.9502 22.095H27.4302V25.145H28.9502V22.095Z" fill="#BFFB4F"/>
<path d="M28.9502 12.955H27.4302V14.475H28.9502V12.955Z" fill="#BFFB4F"/>
<path d="M27.4302 25.145H25.9102V26.665H27.4302V25.145Z" fill="#BFFB4F"/>
<path d="M27.4302 17.525H25.9102V19.045H27.4302V17.525Z" fill="#BFFB4F"/>
<path d="M25.9099 19.045H24.3799V20.575H25.9099V19.045Z" fill="#BFFB4F"/>
<path d="M27.4299 14.475H22.8599V16.005H27.4299V14.475Z" fill="#BFFB4F"/>
<path d="M25.9099 26.665H22.8599V28.195H25.9099V26.665Z" fill="#BFFB4F"/>
<path d="M24.3801 20.575H21.3301V22.095H24.3801V20.575Z" fill="#BFFB4F"/>
<path d="M22.8601 16.005H19.8101V17.525H22.8601V16.005Z" fill="#BFFB4F"/>
<path d="M18.2902 28.195V26.665H15.2402V28.195H16.7602V31.235H18.2902V29.715H22.8602V28.195H18.2902Z" fill="#BFFB4F"/>
<path d="M21.3301 22.095H19.8101V23.615H21.3301V22.095Z" fill="#BFFB4F"/>
<path d="M19.81 23.615H18.29V26.665H19.81V23.615Z" fill="#BFFB4F"/>
<path d="M19.81 17.525H18.29V19.045H19.81V17.525Z" fill="#BFFB4F"/>
<path d="M18.2898 19.045H16.7598V20.575H18.2898V19.045Z" fill="#BFFB4F"/>
<path d="M16.7602 20.575H15.2402V22.095H16.7602V20.575Z" fill="#BFFB4F"/>
<path d="M15.2402 22.095H13.7202V26.665H15.2402V22.095Z" fill="#BFFB4F"/>
<path d="M15.2398 12.955H3.0498V16.005H15.2398V12.955Z" fill="#BFFB4F"/>
<path d="M15.2398 8.38501H3.0498V9.90501H15.2398V8.38501Z" fill="#BFFB4F"/>
<path d="M13.7198 19.045H15.2398V17.525H3.0498V20.575H13.7198V19.045Z" fill="#BFFB4F"/>
<path d="M13.72 29.715H1.52V5.33501H6.1V2.28501H12.19V5.33501H16.76V16.005H18.29V3.80501H13.72V0.765015H4.57V3.80501H0V31.235H13.72V29.715Z" fill="#BFFB4F"/>
<path d="M12.1898 22.095H3.0498V26.665H12.1898V22.095Z" fill="#BFFB4F"/>
</g>
<defs>
<clipPath id="clip0_1178_10914">
<rect width="32" height="32" fill="white"/>
</clipPath>
</defs>
</svg>
