<svg width="32" height="32" viewBox="0 0 32 32" fill="none" xmlns="http://www.w3.org/2000/svg">
<g clip-path="url(#clip0_1178_10514)">
<path d="M32 15.24H30.48V22.86H32V15.24Z" fill="#BFFB4F"/>
<path d="M30.4802 10.67H28.9502V15.24H30.4802V10.67Z" fill="#BFFB4F"/>
<path d="M1.52002 22.86V24.38H12.19V27.43H7.62002V28.96H13.72V24.38H18.29V28.96H24.38V27.43H19.81V24.38H30.48V22.86H1.52002Z" fill="#BFFB4F"/>
<path d="M28.9502 6.09998H27.4302V10.67H28.9502V6.09998Z" fill="#BFFB4F"/>
<path d="M27.4299 13.72H22.8599V18.29H24.3799V21.34H28.9499V16.77H27.4299V13.72Z" fill="#BFFB4F"/>
<path d="M27.4302 3.04999H25.9102V6.09999H27.4302V3.04999Z" fill="#BFFB4F"/>
<path d="M25.9099 1.53003H24.3799V3.05003H25.9099V1.53003Z" fill="#BFFB4F"/>
<path d="M7.6201 30.48V28.96H6.1001V32H25.9101V28.96H24.3801V30.48H7.6201Z" fill="#BFFB4F"/>
<path d="M25.9101 7.62H21.3301V12.19H25.9101V7.62Z" fill="#BFFB4F"/>
<path d="M24.3801 3.04999H19.8101V6.09999H24.3801V3.04999Z" fill="#BFFB4F"/>
<path d="M21.3301 13.72H10.6701V18.29H9.14014V21.34H22.8601V18.29H21.3301V13.72ZM12.1901 15.24H13.7201V16.77H12.1901V15.24ZM18.2901 19.81H13.7201V18.29H18.2901V19.81ZM19.8101 16.77H18.2901V15.24H19.8101V16.77Z" fill="#BFFB4F"/>
<path d="M18.2902 3.04999H13.7202V6.09999H18.2902V3.04999Z" fill="#BFFB4F"/>
<path d="M19.8099 7.62H12.1899V12.19H19.8099V7.62Z" fill="#BFFB4F"/>
<path d="M24.3801 0H7.62012V1.53H24.3801V0Z" fill="#BFFB4F"/>
<path d="M9.1398 13.72H4.5698V16.77H3.0498V21.34H7.6198V18.29H9.1398V13.72Z" fill="#BFFB4F"/>
<path d="M10.6701 7.62H6.1001V12.19H10.6701V7.62Z" fill="#BFFB4F"/>
<path d="M12.1901 3.04999H7.62012V6.09999H12.1901V3.04999Z" fill="#BFFB4F"/>
<path d="M7.6201 1.53003H6.1001V3.05003H7.6201V1.53003Z" fill="#BFFB4F"/>
<path d="M6.09982 3.04999H4.56982V6.09999H6.09982V3.04999Z" fill="#BFFB4F"/>
<path d="M4.5698 6.09998H3.0498V10.67H4.5698V6.09998Z" fill="#BFFB4F"/>
<path d="M3.05002 10.67H1.52002V15.24H3.05002V10.67Z" fill="#BFFB4F"/>
<path d="M1.52 15.24H0V22.86H1.52V15.24Z" fill="#BFFB4F"/>
</g>
<defs>
<clipPath id="clip0_1178_10514">
<rect width="32" height="32" fill="white"/>
</clipPath>
</defs>
</svg>
