<svg width="32" height="32" viewBox="0 0 32 32" fill="none" xmlns="http://www.w3.org/2000/svg">
<g clip-path="url(#clip0_1178_11281)">
<path d="M32 12.19H30.48V19.81H32V12.19Z" fill="#BFFB4F"/>
<path d="M30.4802 19.81H28.9502V22.85H30.4802V19.81Z" fill="#BFFB4F"/>
<path d="M28.9502 22.85H27.4302V25.9H28.9502V22.85Z" fill="#BFFB4F"/>
<path d="M28.9502 6.09H27.4302V9.14H28.9502V6.09Z" fill="#BFFB4F"/>
<path d="M27.4302 25.9H25.9102V27.42H27.4302V25.9Z" fill="#BFFB4F"/>
<path d="M27.4302 4.57H25.9102V6.09H27.4302V4.57Z" fill="#BFFB4F"/>
<path d="M25.9099 27.42H22.8599V28.95H25.9099V27.42Z" fill="#BFFB4F"/>
<path d="M25.9099 3.04H22.8599V4.57H25.9099V3.04Z" fill="#BFFB4F"/>
<path d="M22.8601 28.95H19.8101V30.47H22.8601V28.95Z" fill="#BFFB4F"/>
<path d="M22.8601 1.52H19.8101V3.04H22.8601V1.52Z" fill="#BFFB4F"/>
<path d="M19.8099 30.47H12.1899V32H19.8099V30.47Z" fill="#BFFB4F"/>
<path d="M19.8102 22.85H13.7202V24.38H19.8102V22.85Z" fill="#BFFB4F"/>
<path d="M19.8099 0H12.1899V1.52H19.8099V0Z" fill="#BFFB4F"/>
<path d="M13.7199 21.33H12.1899V22.85H13.7199V21.33Z" fill="#BFFB4F"/>
<path d="M12.1901 28.95H9.14014V30.47H12.1901V28.95Z" fill="#BFFB4F"/>
<path d="M12.1901 1.52H9.14014V3.04H12.1901V1.52Z" fill="#BFFB4F"/>
<path d="M9.1401 27.42H6.1001V28.95H9.1401V27.42Z" fill="#BFFB4F"/>
<path d="M9.1401 3.04H6.1001V4.57H9.1401V3.04Z" fill="#BFFB4F"/>
<path d="M6.09982 25.9H4.56982V27.42H6.09982V25.9Z" fill="#BFFB4F"/>
<path d="M6.09982 4.57H4.56982V6.09H6.09982V4.57Z" fill="#BFFB4F"/>
<path d="M4.5698 22.85H3.0498V25.9H4.5698V22.85Z" fill="#BFFB4F"/>
<path d="M3.04979 15.23H4.56979V16.76H6.09978V18.28H12.1898V16.76H13.7198V15.23H15.2398V13.71H18.2898V15.23H19.8098V16.76H21.3298V18.28H27.4298V16.76H28.9498V12.19H30.4798V9.14H28.9498V10.66H3.04979V9.14H1.52979V12.19H3.04979V15.23Z" fill="#BFFB4F"/>
<path d="M4.5698 6.09H3.0498V9.14H4.5698V6.09Z" fill="#BFFB4F"/>
<path d="M3.04979 19.81H1.52979V22.85H3.04979V19.81Z" fill="#BFFB4F"/>
<path d="M1.53 12.19H0V19.81H1.53V12.19Z" fill="#BFFB4F"/>
</g>
<defs>
<clipPath id="clip0_1178_11281">
<rect width="32" height="32" fill="white"/>
</clipPath>
</defs>
</svg>
