<svg width="32" height="32" viewBox="0 0 32 32" fill="none" xmlns="http://www.w3.org/2000/svg">
<g clip-path="url(#clip0_1128_8343)">
<path d="M31.24 19.8101H29.71V24.3801H31.24V19.8101Z" fill="#000001"/>
<path d="M29.7099 0H28.1899V1.52H26.6599V3.05H28.1899V4.57H29.7099V3.05H31.2399V1.52H29.7099V0Z" fill="#000001"/>
<path d="M29.7099 10.67H28.1899V19.81H29.7099V10.67Z" fill="#000001"/>
<path d="M29.7099 24.38H26.6599V25.9H29.7099V24.38Z" fill="#000001"/>
<path d="M28.1899 7.62H26.6599V10.67H28.1899V7.62Z" fill="#000001"/>
<path d="M26.6599 25.9H25.1399V27.43H26.6599V25.9Z" fill="#000001"/>
<path d="M26.6599 21.33H25.1399V24.38H26.6599V21.33Z" fill="#000001"/>
<path d="M26.6599 6.09998H25.1399V7.61998H26.6599V6.09998Z" fill="#000001"/>
<path d="M25.1401 27.4301H23.6201V28.9501H25.1401V27.4301Z" fill="#000001"/>
<path d="M25.1401 10.67H23.6201V12.19H22.0901V13.71H23.6201V15.24H25.1401V13.71H26.6601V12.19H25.1401V10.67Z" fill="#000001"/>
<path d="M25.1401 4.56995H22.0901V6.09995H25.1401V4.56995Z" fill="#000001"/>
<path d="M23.6201 28.95H20.5701V30.4799H23.6201V28.95Z" fill="#000001"/>
<path d="M17.52 15.24V19.81H22.09V15.24H17.52ZM20.57 18.29H19.04V16.76H20.57V18.29Z" fill="#000001"/>
<path d="M20.5699 30.48H9.8999V32H20.5699V30.48Z" fill="#000001"/>
<path d="M17.52 21.33H16V24.38H17.52V21.33Z" fill="#000001"/>
<path d="M22.09 3.05005H14.47V4.57005H22.09V3.05005Z" fill="#000001"/>
<path d="M14.47 15.24H16V13.71H17.52V12.19H16V10.67H14.47V12.19H12.95V13.71H14.47V15.24Z" fill="#000001"/>
<path d="M16 24.38H12.95V25.9H16V24.38Z" fill="#000001"/>
<path d="M14.4699 4.56995H11.4299V6.09995H14.4699V4.56995Z" fill="#000001"/>
<path d="M12.9499 21.33H11.4299V24.38H12.9499V21.33Z" fill="#000001"/>
<path d="M11.4299 6.09998H9.8999V7.61998H11.4299V6.09998Z" fill="#000001"/>
<path d="M11.4299 0H9.8999V1.52H11.4299V0Z" fill="#000001"/>
<path d="M9.9001 28.95H6.8501V30.4799H9.9001V28.95Z" fill="#000001"/>
<path d="M9.90013 7.62H8.38013V10.67H9.90013V7.62Z" fill="#000001"/>
<path d="M8.3801 10.67H6.8501V19.81H8.3801V10.67Z" fill="#000001"/>
<path d="M6.85008 27.4301H5.33008V28.9501H6.85008V27.4301Z" fill="#000001"/>
<path d="M6.85008 4.56995H5.33008V9.13995H6.85008V4.56995Z" fill="#000001"/>
<path d="M5.33006 25.9H3.81006V27.43H5.33006V25.9Z" fill="#000001"/>
<path d="M6.85006 19.8101H3.81006V21.3301H6.85006V19.8101Z" fill="#000001"/>
<path d="M5.33003 3.05005H2.28003V4.57005H5.33003V3.05005Z" fill="#000001"/>
<path d="M3.81003 24.38H2.28003V25.9H3.81003V24.38Z" fill="#000001"/>
<path d="M3.81003 18.29H2.28003V19.81H3.81003V18.29Z" fill="#000001"/>
<path d="M5.33001 9.14001H0.76001V10.67H5.33001V9.14001Z" fill="#000001"/>
<path d="M3.81003 6.09998H2.28003V7.61998H3.81003V6.09998Z" fill="#000001"/>
<path d="M2.28001 19.8101H0.76001V24.3801H2.28001V19.8101Z" fill="#000001"/>
<path d="M2.28001 13.71H0.76001V15.24H2.28001V13.71Z" fill="#000001"/>
<path d="M2.28001 4.56995H0.76001V6.09995H2.28001V4.56995Z" fill="#000001"/>
</g>
<defs>
<clipPath id="clip0_1128_8343">
<rect width="32" height="32" fill="white"/>
</clipPath>
</defs>
</svg>
