<svg width="32" height="32" viewBox="0 0 32 32" fill="none" xmlns="http://www.w3.org/2000/svg">
<g clip-path="url(#clip0_1178_14919)">
<path d="M32.0002 3.05005H30.4702V28.9501H32.0002V3.05005Z" fill="#BFFB4F"/>
<path d="M30.4702 28.95H28.9502V30.4799H30.4702V28.95Z" fill="#BFFB4F"/>
<path d="M30.4702 1.52002H28.9502V3.05002H30.4702V1.52002Z" fill="#BFFB4F"/>
<path d="M28.95 30.48H3.04004V32H28.95V30.48Z" fill="#BFFB4F"/>
<path d="M27.4199 25.9H25.8999V28.95H27.4199V25.9Z" fill="#BFFB4F"/>
<path d="M24.3799 4.56995V10.6699H25.8999V19.8099H27.4199V10.6699H28.9499V4.56995H24.3799ZM27.4199 9.13995H25.8999V6.09995H27.4199V9.13995Z" fill="#BFFB4F"/>
<path d="M25.8999 19.8101H24.3799V21.3301H25.8999V19.8101Z" fill="#BFFB4F"/>
<path d="M24.3801 25.9H22.8501V28.95H24.3801V25.9Z" fill="#BFFB4F"/>
<path d="M22.85 18.2899H24.38V12.1899H22.85V9.13995H21.33V7.61995H19.8V6.09995H16.76V4.56995H10.66V6.09995H7.61004V7.61995H6.09004V9.13995H4.57004V12.1899H3.04004V18.2899H4.57004V21.3299H6.09004V22.8599H7.61004V24.3799H10.66V25.8999H16.76V24.3799H19.8V22.8599H15.23V21.3299H19.8V22.8599H24.38V21.3299H22.85V18.2899ZM15.23 16.7599H12.19V13.7099H15.23V16.7599ZM21.33 13.7099H19.8V10.6699H18.28V9.13995H15.23V7.61995H18.28V9.13995H19.8V10.6699H21.33V13.7099Z" fill="#BFFB4F"/>
<path d="M9.13986 27.4301H7.60986V28.9501H9.13986V27.4301Z" fill="#BFFB4F"/>
<path d="M6.08982 27.4301H4.56982V28.9501H6.08982V27.4301Z" fill="#BFFB4F"/>
<path d="M28.95 0H3.04004V1.52H28.95V0Z" fill="#BFFB4F"/>
<path d="M3.04002 28.95H1.52002V30.4799H3.04002V28.95Z" fill="#BFFB4F"/>
<path d="M3.04002 1.52002H1.52002V3.05002H3.04002V1.52002Z" fill="#BFFB4F"/>
<path d="M1.52 3.05005H0V28.9501H1.52V3.05005Z" fill="#BFFB4F"/>
</g>
<defs>
<clipPath id="clip0_1178_14919">
<rect width="32" height="32" fill="white"/>
</clipPath>
</defs>
</svg>
