<svg width="32" height="32" viewBox="0 0 32 32" fill="none" xmlns="http://www.w3.org/2000/svg">
<g clip-path="url(#clip0_1178_15035)">
<path d="M30.47 9.13995H28.95V6.09995H27.42V7.61995H25.9V6.09995H22.85V4.56995H19.8V6.09995H21.33V7.61995H22.85V15.2399H21.33V16.7599H19.8V18.2899H12.19V16.7599H10.66V15.2399H9.14V7.61995H10.66V6.09995H12.19V4.56995H9.14V6.09995H6.09V7.61995H4.57V6.09995H3.04V9.13995H1.52V12.1899H0V19.8099H1.52V22.8599H3.04V25.8999H4.57V22.8599H6.09V21.3299H7.61V19.8099H24.38V21.3299H25.9V22.8599H27.42V25.8999H28.95V22.8599H30.47V19.8099H32V12.1899H30.47V9.13995Z" fill="#BFFB4F"/>
<path d="M27.4199 25.9H25.8999V27.43H27.4199V25.9Z" fill="#BFFB4F"/>
<path d="M27.4199 4.56995H25.8999V6.09995H27.4199V4.56995Z" fill="#BFFB4F"/>
<path d="M25.9001 27.4301H22.8501V28.9501H25.9001V27.4301Z" fill="#BFFB4F"/>
<path d="M25.9001 3.05005H22.8501V4.57005H25.9001V3.05005Z" fill="#BFFB4F"/>
<path d="M22.8498 28.95H19.7998V30.4799H22.8498V28.95Z" fill="#BFFB4F"/>
<path d="M22.8498 1.52002H19.7998V3.05002H22.8498V1.52002Z" fill="#BFFB4F"/>
<path d="M19.7998 12.1899H18.2798V15.2399H19.7998V12.1899Z" fill="#BFFB4F"/>
<path d="M19.7998 7.62H18.2798V10.67H19.7998V7.62Z" fill="#BFFB4F"/>
<path d="M19.7999 3.05005H12.1899V4.57005H19.7999V3.05005Z" fill="#BFFB4F"/>
<path d="M19.7999 30.48H12.1899V32H19.7999V30.48Z" fill="#BFFB4F"/>
<path d="M18.28 15.24H13.71V16.76H18.28V15.24Z" fill="#BFFB4F"/>
<path d="M18.28 10.67H13.71V12.19H18.28V10.67Z" fill="#BFFB4F"/>
<path d="M18.28 6.09998H13.71V7.61998H18.28V6.09998Z" fill="#BFFB4F"/>
<path d="M19.7999 0H12.1899V1.52H19.7999V0Z" fill="#BFFB4F"/>
<path d="M13.7099 12.1899H12.1899V15.2399H13.7099V12.1899Z" fill="#BFFB4F"/>
<path d="M13.7099 7.62H12.1899V10.67H13.7099V7.62Z" fill="#BFFB4F"/>
<path d="M12.1901 28.95H9.14014V30.4799H12.1901V28.95Z" fill="#BFFB4F"/>
<path d="M12.1901 1.52002H9.14014V3.05002H12.1901V1.52002Z" fill="#BFFB4F"/>
<path d="M9.13984 27.4301H6.08984V28.9501H9.13984V27.4301Z" fill="#BFFB4F"/>
<path d="M9.13984 3.05005H6.08984V4.57005H9.13984V3.05005Z" fill="#BFFB4F"/>
<path d="M6.08982 25.9H4.56982V27.43H6.08982V25.9Z" fill="#BFFB4F"/>
<path d="M6.08982 4.56995H4.56982V6.09995H6.08982V4.56995Z" fill="#BFFB4F"/>
</g>
<defs>
<clipPath id="clip0_1178_15035">
<rect width="32" height="32" fill="white"/>
</clipPath>
</defs>
</svg>
