<svg width="32" height="32" viewBox="0 0 32 32" fill="none" xmlns="http://www.w3.org/2000/svg">
<g clip-path="url(#clip0_1178_11827)">
<path d="M31.24 15.24H29.71V19.81H31.24V15.24Z" fill="#BFFB4F"/>
<path d="M29.7099 19.81H28.1899V21.33H29.7099V19.81Z" fill="#BFFB4F"/>
<path d="M29.7099 13.72H28.1899V15.24H29.7099V13.72Z" fill="#BFFB4F"/>
<path d="M28.1899 25.91H26.6699V27.43H28.1899V25.91Z" fill="#BFFB4F"/>
<path d="M28.1899 16.76H26.6699V18.29H28.1899V16.76Z" fill="#BFFB4F"/>
<path d="M28.1896 12.19H23.6196V13.72H28.1896V12.19Z" fill="#BFFB4F"/>
<path d="M26.6696 27.43H25.1396V28.95H26.6696V27.43Z" fill="#BFFB4F"/>
<path d="M26.6696 24.38H25.1396V25.91H26.6696V24.38Z" fill="#BFFB4F"/>
<path d="M23.6198 21.33V22.86H22.0898V24.38H25.1398V22.86H28.1898V21.33H23.6198Z" fill="#BFFB4F"/>
<path d="M23.6196 15.24V19.81H26.6696V18.29H25.1396V16.76H26.6696V15.24H23.6196Z" fill="#BFFB4F"/>
<path d="M25.1398 28.95H22.0898V30.48H25.1398V28.95Z" fill="#BFFB4F"/>
<path d="M23.6198 10.67H22.0898V12.19H23.6198V10.67Z" fill="#BFFB4F"/>
<path d="M22.0898 24.38H19.0498V25.91H22.0898V24.38Z" fill="#BFFB4F"/>
<path d="M22.0895 9.14001H17.5195V10.67H22.0895V9.14001Z" fill="#BFFB4F"/>
<path d="M22.0899 30.48H6.85986V32H22.0899V30.48Z" fill="#BFFB4F"/>
<path d="M8.37986 12.19V13.72H6.85986V15.24H8.37986V16.76H20.5699V15.24H22.0899V13.72H20.5699V12.19H8.37986Z" fill="#BFFB4F"/>
<path d="M20.5698 1.52002H19.0498V4.57002H20.5698V1.52002Z" fill="#BFFB4F"/>
<path d="M19.05 0H16V1.52H19.05V0Z" fill="#BFFB4F"/>
<path d="M19.0495 4.57001H17.5195V6.10001H19.0495V4.57001Z" fill="#BFFB4F"/>
<path d="M15.9997 1.52002H14.4697V3.05002H15.9997V1.52002Z" fill="#BFFB4F"/>
<path d="M15.9997 7.62H14.4697V10.67H15.9997V7.62Z" fill="#BFFB4F"/>
<path d="M14.4697 0H11.4297V1.52H14.4697V0Z" fill="#BFFB4F"/>
<path d="M14.4697 6.09998H12.9497V7.61998H14.4697V6.09998Z" fill="#BFFB4F"/>
<path d="M12.9497 4.57001H11.4297V6.10001H12.9497V4.57001Z" fill="#BFFB4F"/>
<path d="M19.0499 25.91H9.8999V27.43H19.0499V25.91Z" fill="#BFFB4F"/>
<path d="M11.4299 1.52002H9.8999V4.57002H11.4299V1.52002Z" fill="#BFFB4F"/>
<path d="M12.9499 9.14001H6.85986V10.67H12.9499V9.14001Z" fill="#BFFB4F"/>
<path d="M9.89986 24.38H6.85986V25.91H9.89986V24.38Z" fill="#BFFB4F"/>
<path d="M6.85957 28.95H3.80957V30.48H6.85957V28.95Z" fill="#BFFB4F"/>
<path d="M6.85957 21.33H5.32957V22.86H3.80957V24.38H6.85957V21.33Z" fill="#BFFB4F"/>
<path d="M6.85959 10.67H5.32959V12.19H6.85959V10.67Z" fill="#BFFB4F"/>
<path d="M5.32957 12.19H3.80957V21.33H5.32957V12.19Z" fill="#BFFB4F"/>
<path d="M3.80979 27.43H2.27979V28.95H3.80979V27.43Z" fill="#BFFB4F"/>
<path d="M3.80979 24.38H2.27979V25.91H3.80979V24.38Z" fill="#BFFB4F"/>
<path d="M2.27977 25.91H0.759766V27.43H2.27977V25.91Z" fill="#BFFB4F"/>
</g>
<defs>
<clipPath id="clip0_1178_11827">
<rect width="32" height="32" fill="white"/>
</clipPath>
</defs>
</svg>
