<svg width="32" height="32" viewBox="0 0 32 32" fill="none" xmlns="http://www.w3.org/2000/svg">
<g clip-path="url(#clip0_1128_8830)">
<path d="M29.7101 19.81H28.1901V27.43H29.7101V19.81Z" fill="#000001"/>
<path d="M28.19 27.43H26.67V28.95H28.19V27.43Z" fill="#000001"/>
<path d="M28.19 18.29H26.67V19.81H28.19V18.29Z" fill="#000001"/>
<path d="M26.67 28.95H25.14V30.48H26.67V28.95Z" fill="#000001"/>
<path d="M26.67 16.76H25.14V18.29H26.67V16.76Z" fill="#000001"/>
<path d="M25.14 30.48H17.52V32H25.14V30.48Z" fill="#000001"/>
<path d="M20.57 25.91H19.05V27.43H20.57V25.91Z" fill="#000001"/>
<path d="M19.0501 6.1V4.57H20.5701V15.24H16.0001V18.29H17.5201V16.76H25.1401V15.24H22.1001V6.1H25.1401V4.57H26.6701V3.05H28.1901V0H23.6201V1.52H22.1001V3.05H20.5701V1.52H19.0501V0H11.4301V3.05H12.9501V4.57H17.5201V6.1H19.0501Z" fill="#000001"/>
<path d="M17.52 28.95H16V30.48H17.52V28.95Z" fill="#000001"/>
<path d="M17.52 21.33H16V25.91H17.52V21.33Z" fill="#000001"/>
<path d="M17.52 6.09998H16V7.61998H17.52V6.09998Z" fill="#000001"/>
<path d="M14.48 27.43V19.81H12.95V27.43H6.85999V28.95H16V27.43H14.48Z" fill="#000001"/>
<path d="M16 18.29H14.48V19.81H16V18.29Z" fill="#000001"/>
<path d="M16 13.71H14.48V15.24H16V13.71Z" fill="#000001"/>
<path d="M16 7.62H14.48V9.14H16V7.62Z" fill="#000001"/>
<path d="M14.4801 9.14001H12.9501V10.67H14.4801V9.14001Z" fill="#000001"/>
<path d="M14.48 13.71V12.19H12.95V10.67H11.43V12.19H6.85999V13.71H14.48Z" fill="#000001"/>
<path d="M8.37999 22.86H6.85999V24.38H8.37999V22.86Z" fill="#000001"/>
<path d="M6.86008 25.91H5.33008V27.43H6.86008V25.91Z" fill="#000001"/>
<path d="M6.86008 18.29H5.33008V22.86H6.86008V18.29Z" fill="#000001"/>
<path d="M6.86008 13.71H5.33008V15.24H6.86008V13.71Z" fill="#000001"/>
<path d="M5.33006 24.38H3.81006V25.91H5.33006V24.38Z" fill="#000001"/>
<path d="M5.33006 15.24H3.81006V16.76H5.33006V15.24Z" fill="#000001"/>
<path d="M3.81004 16.76H2.29004V24.38H3.81004V16.76Z" fill="#000001"/>
</g>
<defs>
<clipPath id="clip0_1128_8830">
<rect width="32" height="32" fill="white"/>
</clipPath>
</defs>
</svg>
