<svg width="32" height="32" viewBox="0 0 32 32" fill="none" xmlns="http://www.w3.org/2000/svg">
<path d="M32 10.665H30.47V16.765H32V10.665Z" fill="#000001"/>
<path d="M30.4699 16.765H28.95V19.815H30.4699V16.765Z" fill="#000001"/>
<path d="M30.4699 7.625H28.95V10.665H30.4699V7.625Z" fill="#000001"/>
<path d="M28.95 19.815H27.42V22.855H28.95V19.815Z" fill="#000001"/>
<path d="M28.95 10.665H27.42V16.765H28.95V10.665Z" fill="#000001"/>
<path d="M28.95 6.09503H27.42V7.62503H28.95V6.09503Z" fill="#000001"/>
<path d="M27.42 22.855H25.9V24.385H27.42V22.855Z" fill="#000001"/>
<path d="M27.42 16.765H25.9V19.815H27.42V16.765Z" fill="#000001"/>
<path d="M27.42 4.57501H25.9V6.09501H27.42V4.57501Z" fill="#000001"/>
<path d="M25.9 24.385H24.38V25.905H25.9V24.385Z" fill="#000001"/>
<path d="M25.9 19.815H24.38V21.335H25.9V19.815Z" fill="#000001"/>
<path d="M25.9 10.665H24.38V12.195H25.9V10.665Z" fill="#000001"/>
<path d="M24.38 21.335H22.85V22.855H24.38V21.335Z" fill="#000001"/>
<path d="M24.38 12.195H22.85V13.715H24.38V12.195Z" fill="#000001"/>
<path d="M25.9 3.04504H22.85V4.57504H25.9V3.04504Z" fill="#000001"/>
<path d="M24.38 25.905H21.33V27.435H24.38V25.905Z" fill="#000001"/>
<path d="M22.85 16.765H21.33V18.285H22.85V16.765Z" fill="#000001"/>
<path d="M22.85 7.625H21.33V9.145H22.85V7.625Z" fill="#000001"/>
<path d="M22.8501 22.855H19.8101V24.385H22.8501V22.855Z" fill="#000001"/>
<path d="M21.33 4.57501H18.28V6.09501H21.33V4.57501Z" fill="#000001"/>
<path d="M21.33 27.435H16.76V28.955H21.33V27.435Z" fill="#000001"/>
<path d="M19.81 19.815H18.28V21.335H19.81V19.815Z" fill="#000001"/>
<path d="M19.81 24.385H15.23V25.905H19.81V24.385Z" fill="#000001"/>
<path d="M16.76 10.665V12.195H13.71V13.715H12.19V16.765H10.66V18.285H9.14001V19.815H13.71V18.285H16.76V16.765H18.28V13.715H19.81V9.14502H18.28V10.665H16.76Z" fill="#000001"/>
<path d="M18.28 7.625H16.76V9.145H18.28V7.625Z" fill="#000001"/>
<path d="M22.85 1.52502H15.23V3.04502H22.85V1.52502Z" fill="#000001"/>
<path d="M16.76 9.14502H13.71V10.665H16.76V9.14502Z" fill="#000001"/>
<path d="M16.76 28.955H9.14001V30.475H16.76V28.955Z" fill="#000001"/>
<path d="M15.23 21.335H13.71V22.855H15.23V21.335Z" fill="#000001"/>
<path d="M15.23 25.905H9.14001V27.435H15.23V25.905Z" fill="#000001"/>
<path d="M13.7099 10.665H12.1899V12.195H13.7099V10.665Z" fill="#000001"/>
<path d="M15.23 3.04504H10.66V4.57504H15.23V3.04504Z" fill="#000001"/>
<path d="M13.71 22.855H10.66V24.385H13.71V22.855Z" fill="#000001"/>
<path d="M12.19 12.195H10.66V13.715H12.19V12.195Z" fill="#000001"/>
<path d="M12.19 7.625H9.14001V9.145H12.19V7.625Z" fill="#000001"/>
<path d="M10.66 13.715H9.14001V16.765H10.66V13.715Z" fill="#000001"/>
<path d="M10.66 4.57501H7.60999V6.09501H10.66V4.57501Z" fill="#000001"/>
<path d="M9.13997 27.435H6.08997V28.955H9.13997V27.435Z" fill="#000001"/>
<path d="M9.13999 16.765H7.60999V18.285H9.13999V16.765Z" fill="#000001"/>
<path d="M7.60997 21.335H6.08997V22.855H7.60997V21.335Z" fill="#000001"/>
<path d="M7.60997 10.665H6.08997V13.715H7.60997V10.665Z" fill="#000001"/>
<path d="M7.60997 6.09503H6.08997V7.62503H7.60997V6.09503Z" fill="#000001"/>
<path d="M6.08995 25.905H4.56995V27.435H6.08995V25.905Z" fill="#000001"/>
<path d="M6.08995 7.625H4.56995V9.145H6.08995V7.625Z" fill="#000001"/>
<path d="M4.57004 24.385H3.04004V25.905H4.57004V24.385Z" fill="#000001"/>
<path d="M4.57004 16.765H3.04004V19.815H4.57004V16.765Z" fill="#000001"/>
<path d="M4.57004 9.14502H3.04004V12.195H4.57004V9.14502Z" fill="#000001"/>
<path d="M3.04002 21.335H1.52002V24.385H3.04002V21.335Z" fill="#000001"/>
<path d="M3.04002 12.195H1.52002V15.235H3.04002V12.195Z" fill="#000001"/>
<path d="M1.52 15.235H0V21.335H1.52V15.235Z" fill="#000001"/>
</svg>
