<svg width="32" height="32" viewBox="0 0 32 32" fill="none" xmlns="http://www.w3.org/2000/svg">
<g clip-path="url(#clip0_1178_14454)">
<path d="M1.52 21.33H0V27.43H1.52V21.33Z" fill="#BFFB4F"/>
<path d="M3.05002 19.81H1.52002V21.33H3.05002V19.81Z" fill="#BFFB4F"/>
<path d="M6.09002 25.9H4.57002V27.43H1.52002V28.95H4.57002V30.48H6.09002V25.9Z" fill="#BFFB4F"/>
<path d="M6.0898 18.28H3.0498V19.81H6.0898V18.28Z" fill="#BFFB4F"/>
<path d="M10.6598 30.48H6.08984V32H10.6598V30.48Z" fill="#BFFB4F"/>
<path d="M9.14012 27.43H7.62012V28.95H9.14012V27.43Z" fill="#BFFB4F"/>
<path d="M10.6598 24.38H6.08984V25.9H10.6598V24.38Z" fill="#BFFB4F"/>
<path d="M13.7098 18.28V16.76H15.2398V9.14001H30.4698V7.62001H22.8598V4.57001H18.2798V7.62001H10.6598V9.14001H13.7098V10.67H12.1898V12.19H10.6598V13.71H9.13984V10.67H7.61984V13.71H6.08984V18.28H13.7098Z" fill="#BFFB4F"/>
<path d="M10.6601 9.14001H9.14014V10.67H10.6601V9.14001Z" fill="#BFFB4F"/>
<path d="M16.76 4.57001H13.71V6.09001H16.76V4.57001Z" fill="#BFFB4F"/>
<path d="M16.7602 0H15.2402V1.52H16.7602V0Z" fill="#BFFB4F"/>
<path d="M18.2798 1.52002H16.7598V3.05002H18.2798V1.52002Z" fill="#BFFB4F"/>
<path d="M21.3301 0H19.8101V3.05H21.3301V0Z" fill="#BFFB4F"/>
<path d="M22.8602 25.9H21.3302V27.43H12.1902V25.9H10.6602V30.48H12.1902V28.95H21.3302V30.48H22.8602V25.9Z" fill="#BFFB4F"/>
<path d="M24.3799 1.52002H22.8599V3.05002H24.3799V1.52002Z" fill="#BFFB4F"/>
<path d="M27.4299 30.48H22.8599V32H27.4299V30.48Z" fill="#BFFB4F"/>
<path d="M25.8999 27.43H24.3799V28.95H25.8999V27.43Z" fill="#BFFB4F"/>
<path d="M27.4299 24.38H22.8599V25.9H27.4299V24.38Z" fill="#BFFB4F"/>
<path d="M27.4299 4.57001H24.3799V6.09001H27.4299V4.57001Z" fill="#BFFB4F"/>
<path d="M25.8999 0H24.3799V1.52H25.8999V0Z" fill="#BFFB4F"/>
<path d="M28.9498 21.33H4.56982V22.86H28.9498V21.33Z" fill="#BFFB4F"/>
<path d="M25.9001 10.67H22.8601V13.71H19.8101V16.76H22.8601V19.81H25.9001V16.76H28.9501V13.71H25.9001V10.67Z" fill="#BFFB4F"/>
<path d="M28.9502 25.9H27.4302V30.48H28.9502V28.95H30.4702V27.43H28.9502V25.9Z" fill="#BFFB4F"/>
<path d="M32.0002 9.14001H30.4702V27.43H32.0002V9.14001Z" fill="#BFFB4F"/>
</g>
<defs>
<clipPath id="clip0_1178_14454">
<rect width="32" height="32" fill="white"/>
</clipPath>
</defs>
</svg>
