<svg width="32" height="32" viewBox="0 0 32 32" fill="none" xmlns="http://www.w3.org/2000/svg">
<path d="M30.4751 28.96H28.9551V32H30.4751V28.96Z" fill="#BFFB4F"/>
<path d="M28.9551 25.91H27.4351V27.43H28.9551V25.91Z" fill="#BFFB4F"/>
<path d="M27.4348 24.38H25.9048V25.91H27.4348V24.38Z" fill="#BFFB4F"/>
<path d="M27.4348 21.34H25.9048V22.86H27.4348V21.34Z" fill="#BFFB4F"/>
<path d="M27.4348 16.77H25.9048V19.81H27.4348V16.77Z" fill="#BFFB4F"/>
<path d="M25.9048 22.86H24.3848V24.38H25.9048V22.86Z" fill="#BFFB4F"/>
<path d="M25.9048 19.8101H24.3848V21.3401H25.9048V19.8101Z" fill="#BFFB4F"/>
<path d="M25.9048 15.24H24.3848V16.77H25.9048V15.24Z" fill="#BFFB4F"/>
<path d="M24.3847 24.38H22.8647V25.91H24.3847V24.38Z" fill="#BFFB4F"/>
<path d="M24.3847 21.34H22.8647V22.86H24.3847V21.34Z" fill="#BFFB4F"/>
<path d="M24.3847 13.72H22.8647V15.24H24.3847V13.72Z" fill="#BFFB4F"/>
<path d="M22.865 22.86H21.335V24.38H22.865V22.86Z" fill="#BFFB4F"/>
<path d="M10.675 15.24H12.195V16.77H13.715V18.29H15.245V19.81H16.765V21.34H18.285V22.86H19.815V21.34H21.335V19.81H22.865V18.29H24.385V16.77H21.335V18.29H19.815V16.77H21.335V13.72H18.285V15.24H16.765V13.72H18.285V10.67H15.245V12.19H13.715V10.67H15.245V7.62H13.715V9.14999H12.195V10.67H10.675V12.19H9.14502V13.72H10.675V15.24Z" fill="#BFFB4F"/>
<path d="M22.865 12.1899H21.335V13.7199H22.865V12.1899Z" fill="#BFFB4F"/>
<path d="M21.3349 10.67H19.8149V12.19H21.3349V10.67Z" fill="#BFFB4F"/>
<path d="M21.3347 24.38H18.2847V25.91H21.3347V24.38Z" fill="#BFFB4F"/>
<path d="M19.8147 9.15002H18.2847V10.67H19.8147V9.15002Z" fill="#BFFB4F"/>
<path d="M18.2851 22.86H16.7651V24.38H18.2851V22.86Z" fill="#BFFB4F"/>
<path d="M18.2851 7.62H16.7651V9.14999H18.2851V7.62Z" fill="#BFFB4F"/>
<path d="M16.7651 21.34H15.2451V22.86H16.7651V21.34Z" fill="#BFFB4F"/>
<path d="M16.7651 4.56995H15.2451V7.61995H16.7651V4.56995Z" fill="#BFFB4F"/>
<path d="M15.2448 19.8101H13.7148V21.3401H15.2448V19.8101Z" fill="#BFFB4F"/>
<path d="M15.2448 3.05005H13.7148V4.57005H15.2448V3.05005Z" fill="#BFFB4F"/>
<path d="M13.7148 18.29H12.1948V19.81H13.7148V18.29Z" fill="#BFFB4F"/>
<path d="M13.7148 4.56995H12.1948V6.09995H13.7148V4.56995Z" fill="#BFFB4F"/>
<path d="M12.1948 16.77H10.6748V18.29H12.1948V16.77Z" fill="#BFFB4F"/>
<path d="M10.675 15.24H9.14502V16.77H10.675V15.24Z" fill="#BFFB4F"/>
<path d="M9.14473 13.72H6.09473V15.24H9.14473V13.72Z" fill="#BFFB4F"/>
<path d="M4.5749 4.57H3.0549V6.1H1.5249V9.15H4.5749V7.62H7.6249V10.67H9.1449V9.15H10.6749V7.62H12.1949V6.1H9.1449V3.05H10.6749V0H7.6249V1.53H6.0949V3.05H4.5749V4.57Z" fill="#BFFB4F"/>
<path d="M7.62473 10.67H6.09473V12.19H7.62473V10.67Z" fill="#BFFB4F"/>
<path d="M6.09471 12.1899H4.57471V13.7199H6.09471V12.1899Z" fill="#BFFB4F"/>
</svg>
