<svg width="32" height="32" viewBox="0 0 32 32" fill="none" xmlns="http://www.w3.org/2000/svg">
<path d="M27.4249 29.72H28.9549V5.33004H27.4249V3.81004H21.3349V2.29004H18.2849V3.81004H19.8049V5.33004H12.1999V3.81004H13.7199V2.29004H10.6699V3.81004H4.57492V5.33004H3.04492V29.72H4.57492V31.24H27.4249V29.72ZM25.9049 28.19H6.09992V5.33004H10.6699V6.86004H21.3399V5.33004H25.9099L25.9049 28.19Z" fill="#BFFB4F"/>
<path d="M22.8548 25.14H12.1948V26.67H22.8548V25.14Z" fill="#BFFB4F"/>
<path d="M22.8548 20.5701H12.1948V22.1001H22.8548V20.5701Z" fill="#BFFB4F"/>
<path d="M22.8551 11.4301H16.7651V12.9501H22.8551V11.4301Z" fill="#BFFB4F"/>
<path d="M18.2848 0.76001H13.7148V2.29001H18.2848V0.76001Z" fill="#BFFB4F"/>
<path d="M22.8548 16H12.1948V17.53H22.8548V16Z" fill="#BFFB4F"/>
<path d="M10.665 25.14H9.14502V26.67H10.665V25.14Z" fill="#BFFB4F"/>
<path d="M10.665 20.5701H9.14502V22.1001H10.665V20.5701Z" fill="#BFFB4F"/>
<path d="M10.665 16H9.14502V17.53H10.665V16Z" fill="#BFFB4F"/>
<path d="M9.14475 14.48H12.1947V12.95H13.7147V9.91H12.1947V8.38H9.14475V9.91H7.61475V12.95H9.14475V14.48Z" fill="#BFFB4F"/>
</svg>
