<svg width="32" height="32" viewBox="0 0 32 32" fill="none" xmlns="http://www.w3.org/2000/svg">
<g clip-path="url(#clip0_1178_6258)">
<path d="M28.9548 4.57001H27.4248V21.33H28.9548V4.57001Z" fill="#BFFB4F"/>
<path d="M27.4248 21.33H25.9048V24.38H27.4248V21.33Z" fill="#BFFB4F"/>
<path d="M25.9048 24.38H24.3848V25.91H25.9048V24.38Z" fill="#BFFB4F"/>
<path d="M27.4248 3.05H24.3848V4.57H27.4248V3.05Z" fill="#BFFB4F"/>
<path d="M24.385 25.91H22.855V27.43H24.385V25.91Z" fill="#BFFB4F"/>
<path d="M24.385 13.71H22.855V22.86H24.385V13.71Z" fill="#BFFB4F"/>
<path d="M22.855 27.43H21.335V28.95H22.855V27.43Z" fill="#BFFB4F"/>
<path d="M22.855 22.86H21.335V24.38H22.855V22.86Z" fill="#BFFB4F"/>
<path d="M24.385 1.52H21.335V3.05H24.385V1.52Z" fill="#BFFB4F"/>
<path d="M21.3352 28.95H18.2852V30.48H21.3352V28.95Z" fill="#BFFB4F"/>
<path d="M21.335 24.38H10.665V25.91H21.335V24.38Z" fill="#BFFB4F"/>
<path d="M18.2848 18.29H16.7648V16.76H15.2348V15.24H13.7148V16.76H12.1948V19.81H13.7148V21.33H15.2348V22.86H16.7648V21.33H18.2848V19.81H19.8148V16.76H18.2848V18.29Z" fill="#BFFB4F"/>
<path d="M19.8152 4.57001H18.2852V6.10001H19.8152V4.57001Z" fill="#BFFB4F"/>
<path d="M18.2851 15.24H16.7651V16.76H18.2851V15.24Z" fill="#BFFB4F"/>
<path d="M18.2848 30.48H13.7148V32H18.2848V30.48Z" fill="#BFFB4F"/>
<path d="M18.2848 3.05H13.7148V4.57H18.2848V3.05Z" fill="#BFFB4F"/>
<path d="M13.715 28.95H10.665V30.48H13.715V28.95Z" fill="#BFFB4F"/>
<path d="M13.7148 4.57001H12.1948V6.10001H13.7148V4.57001Z" fill="#BFFB4F"/>
<path d="M21.335 0H10.665V1.52H21.335V0Z" fill="#BFFB4F"/>
<path d="M22.855 13.71V12.19H21.335V6.10001H19.815V12.19H12.195V6.10001H10.665V12.19H9.14502V13.71H22.855Z" fill="#BFFB4F"/>
<path d="M10.665 27.43H9.14502V28.95H10.665V27.43Z" fill="#BFFB4F"/>
<path d="M10.665 22.86H9.14502V24.38H10.665V22.86Z" fill="#BFFB4F"/>
<path d="M10.665 1.52H7.625V3.05H10.665V1.52Z" fill="#BFFB4F"/>
<path d="M9.145 25.91H7.625V27.43H9.145V25.91Z" fill="#BFFB4F"/>
<path d="M9.145 13.71H7.625V22.86H9.145V13.71Z" fill="#BFFB4F"/>
<path d="M7.62473 24.38H6.09473V25.91H7.62473V24.38Z" fill="#BFFB4F"/>
<path d="M7.62471 3.05H4.57471V4.57H7.62471V3.05Z" fill="#BFFB4F"/>
<path d="M6.09471 21.33H4.57471V24.38H6.09471V21.33Z" fill="#BFFB4F"/>
<path d="M4.57492 4.57001H3.04492V21.33H4.57492V4.57001Z" fill="#BFFB4F"/>
</g>
<defs>
<clipPath id="clip0_1178_6258">
<rect width="32" height="32" fill="white"/>
</clipPath>
</defs>
</svg>
