<svg width="32" height="32" viewBox="0 0 32 32" fill="none" xmlns="http://www.w3.org/2000/svg">
<g clip-path="url(#clip0_1178_4771)">
<path d="M23.6198 20.57H22.0998V22.09H20.5698V23.62H17.5298V25.14H20.5698V26.66H22.0998V28.19H23.6198V29.71H25.1398V31.24H29.7198V29.71H31.2398V25.14H29.7198V23.62H28.1898V22.09H26.6698V20.57H25.1398V17.52H23.6198V20.57ZM25.1398 23.62H26.6698V25.14H28.1898V26.66H29.7198V28.19H28.1898V26.66H26.6698V25.14H25.1398V23.62Z" fill="#BFFB4F"/>
<path d="M26.6696 9.90002H25.1396V17.52H26.6696V9.90002Z" fill="#BFFB4F"/>
<path d="M25.1396 6.85001H23.6196V9.90001H25.1396V6.85001Z" fill="#BFFB4F"/>
<path d="M23.6196 5.33002H22.0996V6.85002H23.6196V5.33002Z" fill="#BFFB4F"/>
<path d="M22.0998 3.81H20.5698V5.33H22.0998V3.81Z" fill="#BFFB4F"/>
<path d="M20.5699 11.43H6.85986V16H20.5699V11.43Z" fill="#BFFB4F"/>
<path d="M20.5698 2.28H17.5298V3.81H20.5698V2.28Z" fill="#BFFB4F"/>
<path d="M17.5297 25.14H9.90967V26.66H17.5297V25.14Z" fill="#BFFB4F"/>
<path d="M17.5297 0.76001H9.90967V2.28001H17.5297V0.76001Z" fill="#BFFB4F"/>
<path d="M9.90986 23.62H6.85986V25.14H9.90986V23.62Z" fill="#BFFB4F"/>
<path d="M9.90986 2.28H6.85986V3.81H9.90986V2.28Z" fill="#BFFB4F"/>
<path d="M6.85984 22.09H5.33984V23.62H6.85984V22.09Z" fill="#BFFB4F"/>
<path d="M6.85984 3.81H5.33984V5.33H6.85984V3.81Z" fill="#BFFB4F"/>
<path d="M5.33957 20.57H3.80957V22.09H5.33957V20.57Z" fill="#BFFB4F"/>
<path d="M5.33957 5.33002H3.80957V6.85002H5.33957V5.33002Z" fill="#BFFB4F"/>
<path d="M3.80955 17.52H2.28955V20.57H3.80955V17.52Z" fill="#BFFB4F"/>
<path d="M3.80955 6.85001H2.28955V9.90001H3.80955V6.85001Z" fill="#BFFB4F"/>
<path d="M2.28977 9.90002H0.759766V17.52H2.28977V9.90002Z" fill="#BFFB4F"/>
</g>
<defs>
<clipPath id="clip0_1178_4771">
<rect width="32" height="32" fill="white"/>
</clipPath>
</defs>
</svg>
