<svg width="32" height="32" viewBox="0 0 32 32" fill="none" xmlns="http://www.w3.org/2000/svg">
<path d="M25.145 14.47V19.05H29.715V14.47H25.145ZM28.195 17.52H26.665V16H28.2L28.195 17.52Z" fill="#000001"/>
<path d="M26.6649 23.62H22.0999V28.19H26.6699L26.6649 23.62ZM25.1449 26.66H23.6249V25.14H25.1449V26.66Z" fill="#000001"/>
<path d="M28.1998 11.43V3.81H20.5798V11.43H28.1998ZM22.0998 5.33H26.6698V9.9H22.0998V5.33Z" fill="#000001"/>
<path d="M19.0448 0.76H11.4348V8.38H19.0448V0.76ZM17.5248 6.85H12.9548V2.28H17.5248V6.85Z" fill="#000001"/>
<path d="M17.5248 26.66H12.9548V31.24H17.5248V26.66Z" fill="#000001"/>
<path d="M8.38494 23.62H3.81494V28.19H8.38494V23.62Z" fill="#000001"/>
<path d="M6.85496 6.85H5.33496V8.38H6.85496V6.85Z" fill="#000001"/>
<path d="M3.81491 16H2.28491V17.52H3.81491V16Z" fill="#000001"/>
</svg>
