<svg width="32" height="32" viewBox="0 0 32 32" fill="none" xmlns="http://www.w3.org/2000/svg">
<g clip-path="url(#clip0_1178_13226)">
<path d="M18.2848 18.28H13.7148V19.81H18.2848V18.28Z" fill="#BFFB4F"/>
<path d="M18.2848 15.24H13.7148V16.76H18.2848V15.24Z" fill="#BFFB4F"/>
<path d="M30.4751 25.9H28.9551V28.95H30.4751V25.9Z" fill="#BFFB4F"/>
<path d="M28.9551 22.86H27.4351V25.9H28.9551V22.86Z" fill="#BFFB4F"/>
<path d="M3.05469 28.95V30.48H4.57469V32H27.4347V30.48H28.9547V28.95H3.05469Z" fill="#BFFB4F"/>
<path d="M25.905 9.14H21.335V10.67H25.905V9.14Z" fill="#BFFB4F"/>
<path d="M18.2848 25.9H13.7148V27.43H18.2848V25.9Z" fill="#BFFB4F"/>
<path d="M13.715 13.71H18.285V6.09H21.335V4.57H19.815V3.05H18.285V1.52H16.765V0H15.245V1.52H13.715V3.05H12.195V4.57H10.665V6.09H13.715V13.71Z" fill="#BFFB4F"/>
<path d="M10.6647 9.14H6.09473V10.67H10.6647V9.14Z" fill="#BFFB4F"/>
<path d="M27.4347 22.86V10.67H25.9047V21.33H6.09471V10.67H4.57471V22.86H27.4347Z" fill="#BFFB4F"/>
<path d="M4.57469 22.86H3.05469V25.9H4.57469V22.86Z" fill="#BFFB4F"/>
<path d="M3.0549 25.9H1.5249V28.95H3.0549V25.9Z" fill="#BFFB4F"/>
</g>
<defs>
<clipPath id="clip0_1178_13226">
<rect width="32" height="32" fill="white"/>
</clipPath>
</defs>
</svg>
