<svg width="32" height="32" viewBox="0 0 32 32" fill="none" xmlns="http://www.w3.org/2000/svg">
<g clip-path="url(#clip0_1178_6115)">
<path d="M31.24 3.81001H29.71V28.19H31.24V3.81001Z" fill="#BFFB4F"/>
<path d="M29.7099 28.19H28.1899V29.71H29.7099V28.19Z" fill="#BFFB4F"/>
<path d="M29.7099 2.28H28.1899V3.81H29.7099V2.28Z" fill="#BFFB4F"/>
<path d="M28.1896 29.71H3.80957V31.24H28.1896V29.71Z" fill="#BFFB4F"/>
<path d="M28.1896 14.47H25.1396V17.52H28.1896V14.47Z" fill="#BFFB4F"/>
<path d="M23.6198 14.47H20.5698V17.52H23.6198V14.47Z" fill="#BFFB4F"/>
<path d="M19.05 14.47H16V17.52H19.05V14.47Z" fill="#BFFB4F"/>
<path d="M5.32957 20.57H6.85957V22.09H11.4296V20.57H12.9496V19.04H14.4796V17.52H11.4296V16H14.4796V14.47H12.9496V12.95H11.4296V11.43H6.85957V12.95H5.32957V14.47H3.80957V19.04H5.32957V20.57ZM8.37957 14.47H9.90957V16H8.37957V14.47Z" fill="#BFFB4F"/>
<path d="M28.1896 0.760002H3.80957V2.28H28.1896V0.760002Z" fill="#BFFB4F"/>
<path d="M3.80955 28.19H2.28955V29.71H3.80955V28.19Z" fill="#BFFB4F"/>
<path d="M3.80955 2.28H2.28955V3.81H3.80955V2.28Z" fill="#BFFB4F"/>
<path d="M2.28977 3.81001H0.759766V28.19H2.28977V3.81001Z" fill="#BFFB4F"/>
</g>
<defs>
<clipPath id="clip0_1178_6115">
<rect width="32" height="32" fill="white"/>
</clipPath>
</defs>
</svg>
