<svg width="32" height="32" viewBox="0 0 32 32" fill="none" xmlns="http://www.w3.org/2000/svg">
<g clip-path="url(#clip0_1128_11575)">
<path d="M29.7148 14.48V17.53H28.1948V19.05H31.2348V12.95H28.1948V14.48H29.7148Z" fill="#000001"/>
<path d="M28.1948 23.62H26.6648V25.14H28.1948V23.62Z" fill="#000001"/>
<path d="M28.1948 19.05H26.6648V22.1H28.1948V19.05Z" fill="#000001"/>
<path d="M28.1948 9.91H26.6648V12.95H28.1948V9.91Z" fill="#000001"/>
<path d="M28.1948 6.86002H26.6648V8.38002H28.1948V6.86002Z" fill="#000001"/>
<path d="M26.6648 25.14H25.1448V26.67H26.6648V25.14Z" fill="#000001"/>
<path d="M26.6648 22.1H25.1448V23.62H26.6648V22.1Z" fill="#000001"/>
<path d="M26.6648 8.38H25.1448V9.91H26.6648V8.38Z" fill="#000001"/>
<path d="M26.6648 5.34H25.1448V6.86H26.6648V5.34Z" fill="#000001"/>
<path d="M25.145 26.67H23.615V28.19H25.145V26.67Z" fill="#000001"/>
<path d="M25.145 12.95H23.615V19.05H25.145V12.95Z" fill="#000001"/>
<path d="M25.145 3.81H23.615V5.34H25.145V3.81Z" fill="#000001"/>
<path d="M23.615 25.14H22.095V26.67H23.615V25.14Z" fill="#000001"/>
<path d="M23.615 19.05H22.095V22.1H23.615V19.05Z" fill="#000001"/>
<path d="M23.615 9.91H22.095V12.95H23.615V9.91Z" fill="#000001"/>
<path d="M23.615 5.34H22.095V6.86H23.615V5.34Z" fill="#000001"/>
<path d="M22.0949 26.67H19.0449V28.19H22.0949V26.67Z" fill="#000001"/>
<path d="M22.0949 22.1H19.0449V23.62H22.0949V22.1Z" fill="#000001"/>
<path d="M22.0949 8.38H19.0449V9.91H22.0949V8.38Z" fill="#000001"/>
<path d="M22.0949 3.81H19.0449V5.34H22.0949V3.81Z" fill="#000001"/>
<path d="M17.5248 29.72H14.4748V28.19H12.9548V31.24H19.0448V28.19H17.5248V29.72Z" fill="#000001"/>
<path d="M19.0448 23.62H12.9548V25.14H19.0448V23.62Z" fill="#000001"/>
<path d="M14.4748 19.05H17.5248V17.53H19.0448V14.48H17.5248V12.95H14.4748V14.48H12.9548V17.53H14.4748V19.05Z" fill="#000001"/>
<path d="M19.0448 6.86002H12.9548V8.38002H19.0448V6.86002Z" fill="#000001"/>
<path d="M14.4748 2.29001H17.5248V3.81001H19.0448V0.76001H12.9548V3.81001H14.4748V2.29001Z" fill="#000001"/>
<path d="M12.9548 26.67H9.90479V28.19H12.9548V26.67Z" fill="#000001"/>
<path d="M12.9548 22.1H9.90479V23.62H12.9548V22.1Z" fill="#000001"/>
<path d="M12.9548 8.38H9.90479V9.91H12.9548V8.38Z" fill="#000001"/>
<path d="M12.9548 3.81H9.90479V5.34H12.9548V3.81Z" fill="#000001"/>
<path d="M9.90501 25.14H8.38501V26.67H9.90501V25.14Z" fill="#000001"/>
<path d="M9.90501 19.05H8.38501V22.1H9.90501V19.05Z" fill="#000001"/>
<path d="M9.90501 9.91H8.38501V12.95H9.90501V9.91Z" fill="#000001"/>
<path d="M9.90501 5.34H8.38501V6.86H9.90501V5.34Z" fill="#000001"/>
<path d="M8.38498 26.67H6.85498V28.19H8.38498V26.67Z" fill="#000001"/>
<path d="M8.38498 12.95H6.85498V19.05H8.38498V12.95Z" fill="#000001"/>
<path d="M8.38498 3.81H6.85498V5.34H8.38498V3.81Z" fill="#000001"/>
<path d="M6.85496 25.14H5.33496V26.67H6.85496V25.14Z" fill="#000001"/>
<path d="M6.85496 22.1H5.33496V23.62H6.85496V22.1Z" fill="#000001"/>
<path d="M6.85496 8.38H5.33496V9.91H6.85496V8.38Z" fill="#000001"/>
<path d="M6.85496 5.34H5.33496V6.86H6.85496V5.34Z" fill="#000001"/>
<path d="M5.33494 23.62H3.81494V25.14H5.33494V23.62Z" fill="#000001"/>
<path d="M5.33494 19.05H3.81494V22.1H5.33494V19.05Z" fill="#000001"/>
<path d="M5.33494 9.91H3.81494V12.95H5.33494V9.91Z" fill="#000001"/>
<path d="M5.33494 6.86002H3.81494V8.38002H5.33494V6.86002Z" fill="#000001"/>
<path d="M3.81489 17.53H2.28489V14.48H3.81489V12.95H0.764893V19.05H3.81489V17.53Z" fill="#000001"/>
</g>
<defs>
<clipPath id="clip0_1128_11575">
<rect width="32" height="32" fill="white"/>
</clipPath>
</defs>
</svg>
