<svg width="32" height="32" viewBox="0 0 32 32" fill="none" xmlns="http://www.w3.org/2000/svg">
<g clip-path="url(#clip0_1128_14314)">
<path d="M19.8101 29.72H7.62012V31.24H19.8101V29.72Z" fill="#000001"/>
<path d="M24.3801 28.19H19.8101V29.72H24.3801V28.19Z" fill="#000001"/>
<path d="M15.2401 26.67V25.14H4.57007V26.67H6.09007V29.72H7.62007V26.67H15.2401Z" fill="#000001"/>
<path d="M6.09002 22.1V20.57H1.52002V22.1H3.05002V25.14H4.57002V22.1H6.09002Z" fill="#000001"/>
<path d="M12.1901 20.57V17.52H10.6701V19.05H9.14012V17.52H7.62012V20.57H12.1901Z" fill="#000001"/>
<path d="M15.24 17.52H13.71V19.05H15.24V17.52Z" fill="#000001"/>
<path d="M6.09007 17.52H4.57007V19.05H6.09007V17.52Z" fill="#000001"/>
<path d="M1.52 17.52H0V20.57H1.52V17.52Z" fill="#000001"/>
<path d="M18.28 16H16.76V17.52H18.28V16Z" fill="#000001"/>
<path d="M13.7099 16H12.1899V17.52H13.7099V16Z" fill="#000001"/>
<path d="M7.62009 16H6.09009V17.52H7.62009V16Z" fill="#000001"/>
<path d="M4.57005 16H3.05005V17.52H4.57005V16Z" fill="#000001"/>
<path d="M16.76 12.95H15.24V16H16.76V12.95Z" fill="#000001"/>
<path d="M3.05002 14.48H1.52002V16H3.05002V14.48Z" fill="#000001"/>
<path d="M12.1901 12.95H7.62012V14.48H12.1901V12.95Z" fill="#000001"/>
<path d="M4.57005 12.95H3.05005V14.48H4.57005V12.95Z" fill="#000001"/>
<path d="M15.24 9.91H13.71V12.95H15.24V9.91Z" fill="#000001"/>
<path d="M27.4299 9.91V11.43H25.8999V12.95H27.4299V26.67H24.3799V28.19H27.4299V29.72H31.9999V9.91H27.4299ZM30.4799 26.67H28.9499V23.62H30.4799V26.67Z" fill="#000001"/>
<path d="M25.8999 9.91H24.3799V11.43H25.8999V9.91Z" fill="#000001"/>
<path d="M7.62009 8.38H6.09009V12.95H7.62009V8.38Z" fill="#000001"/>
<path d="M24.3801 8.38H21.3301V9.91H24.3801V8.38Z" fill="#000001"/>
<path d="M13.7099 8.38H12.1899V9.91H13.7099V8.38Z" fill="#000001"/>
<path d="M0 12.95H3.05V11.43H1.52V9.91H3.05V8.38H0V12.95Z" fill="#000001"/>
<path d="M21.3301 6.86002H19.8101V8.38002H21.3301V6.86002Z" fill="#000001"/>
<path d="M9.14012 6.86002H7.62012V8.38002H9.14012V6.86002Z" fill="#000001"/>
<path d="M4.57005 6.86002H3.05005V8.38002H4.57005V6.86002Z" fill="#000001"/>
<path d="M19.81 5.33002H18.28V6.86002H19.81V5.33002Z" fill="#000001"/>
<path d="M3.05002 5.33002H1.52002V6.86002H3.05002V5.33002Z" fill="#000001"/>
<path d="M18.28 3.81H16.76V5.33H18.28V3.81Z" fill="#000001"/>
<path d="M12.1899 3.81H10.6699V8.38H12.1899V3.81Z" fill="#000001"/>
<path d="M7.62009 3.81H6.09009V5.33H7.62009V3.81Z" fill="#000001"/>
<path d="M4.57005 3.81H3.05005V5.33H4.57005V3.81Z" fill="#000001"/>
<path d="M16.7599 2.29001H12.1899V3.81001H16.7599V2.29001Z" fill="#000001"/>
<path d="M6.09007 2.29001H4.57007V3.81001H6.09007V2.29001Z" fill="#000001"/>
<path d="M7.62012 0.76001V3.81001H9.14012V2.29001H12.1901V0.76001H7.62012Z" fill="#000001"/>
</g>
<defs>
<clipPath id="clip0_1128_14314">
<rect width="32" height="32" fill="white"/>
</clipPath>
</defs>
</svg>
