<svg width="32" height="32" viewBox="0 0 32 32" fill="none" xmlns="http://www.w3.org/2000/svg">
<g clip-path="url(#clip0_1128_11638)">
<path d="M23.62 20.57H22.1V22.09H20.57V23.62H17.53V25.14H20.57V26.66H22.1V28.19H23.62V29.71H25.14V31.24H29.72V29.71H31.24V25.14H29.72V23.62H28.19V22.09H26.67V20.57H25.14V17.52H23.62V20.57ZM25.14 23.62H26.67V25.14H28.19V26.66H29.72V28.19H28.19V26.66H26.67V25.14H25.14V23.62Z" fill="#000001"/>
<path d="M26.6699 9.90002H25.1399V17.52H26.6699V9.90002Z" fill="#000001"/>
<path d="M25.1401 6.85001H23.6201V9.90001H25.1401V6.85001Z" fill="#000001"/>
<path d="M23.6201 5.33002H22.1001V6.85002H23.6201V5.33002Z" fill="#000001"/>
<path d="M22.1001 3.81H20.5701V5.33H22.1001V3.81Z" fill="#000001"/>
<path d="M8.38011 20.57H9.91011V19.04H11.4301V17.52H12.9501V16H14.4801V17.52H16.0001V19.04H17.5301V20.57H19.0501V19.04H20.5701V17.52H19.0501V16H17.5301V14.47H16.0001V12.95H17.5301V11.43H19.0501V9.90001H20.5701V8.38001H19.0501V6.85001H17.5301V8.38001H16.0001V9.90001H14.4801V11.43H12.9501V9.90001H11.4301V8.38001H9.91011V6.85001H8.38011V8.38001H6.86011V9.90001H8.38011V11.43H9.91011V12.95H11.4301V14.47H9.91011V16H8.38011V17.52H6.86011V19.04H8.38011V20.57Z" fill="#000001"/>
<path d="M20.57 2.28H17.53V3.81H20.57V2.28Z" fill="#000001"/>
<path d="M17.5299 25.14H9.90991V26.66H17.5299V25.14Z" fill="#000001"/>
<path d="M17.5299 0.76001H9.90991V2.28001H17.5299V0.76001Z" fill="#000001"/>
<path d="M9.91011 23.62H6.86011V25.14H9.91011V23.62Z" fill="#000001"/>
<path d="M9.91011 2.28H6.86011V3.81H9.91011V2.28Z" fill="#000001"/>
<path d="M6.86009 22.09H5.34009V23.62H6.86009V22.09Z" fill="#000001"/>
<path d="M6.86009 3.81H5.34009V5.33H6.86009V3.81Z" fill="#000001"/>
<path d="M5.34006 20.57H3.81006V22.09H5.34006V20.57Z" fill="#000001"/>
<path d="M5.34006 5.33002H3.81006V6.85002H5.34006V5.33002Z" fill="#000001"/>
<path d="M3.81004 17.52H2.29004V20.57H3.81004V17.52Z" fill="#000001"/>
<path d="M3.81004 6.85001H2.29004V9.90001H3.81004V6.85001Z" fill="#000001"/>
<path d="M2.29001 9.90002H0.76001V17.52H2.29001V9.90002Z" fill="#000001"/>
</g>
<defs>
<clipPath id="clip0_1128_11638">
<rect width="32" height="32" fill="white"/>
</clipPath>
</defs>
</svg>
