<svg width="32" height="32" viewBox="0 0 32 32" fill="none" xmlns="http://www.w3.org/2000/svg">
<g clip-path="url(#clip0_1178_4608)">
<path d="M30.4701 9.14H32.0001V0H22.8501V1.52H28.9501V3.05H30.4701V9.14Z" fill="#BFFB4F"/>
<path d="M22.8501 30.48V32H32.0001V22.86H30.4701V28.95H28.9501V30.48H22.8501Z" fill="#BFFB4F"/>
<path d="M28.9499 27.43H27.4199V28.95H28.9499V27.43Z" fill="#BFFB4F"/>
<path d="M28.9499 3.04999H27.4199V4.56999H28.9499V3.04999Z" fill="#BFFB4F"/>
<path d="M27.4199 25.9H25.8999V27.43H27.4199V25.9Z" fill="#BFFB4F"/>
<path d="M27.4199 4.57001H25.8999V6.09001H27.4199V4.57001Z" fill="#BFFB4F"/>
<path d="M25.8999 24.38H24.3799V25.9H25.8999V24.38Z" fill="#BFFB4F"/>
<path d="M25.8999 6.09H24.3799V7.62H25.8999V6.09Z" fill="#BFFB4F"/>
<path d="M24.3801 22.86H22.8501V24.38H24.3801V22.86Z" fill="#BFFB4F"/>
<path d="M24.3801 7.62H22.8501V9.14H24.3801V7.62Z" fill="#BFFB4F"/>
<path d="M22.8501 21.33H21.3301V22.86H22.8501V21.33Z" fill="#BFFB4F"/>
<path d="M22.8501 9.14001H21.3301V10.67H22.8501V9.14001Z" fill="#BFFB4F"/>
<path d="M21.3298 19.81H19.7998V21.33H21.3298V19.81Z" fill="#BFFB4F"/>
<path d="M21.3298 10.67H19.7998V12.19H21.3298V10.67Z" fill="#BFFB4F"/>
<path d="M19.7998 18.29H18.2798V19.81H19.7998V18.29Z" fill="#BFFB4F"/>
<path d="M19.7998 12.19H18.2798V13.71H19.7998V12.19Z" fill="#BFFB4F"/>
<path d="M18.2798 16.76H16.7598V18.29H18.2798V16.76Z" fill="#BFFB4F"/>
<path d="M18.2798 13.71H16.7598V15.24H18.2798V13.71Z" fill="#BFFB4F"/>
<path d="M16.76 15.24H15.23V16.76H16.76V15.24Z" fill="#BFFB4F"/>
<path d="M15.23 16.76H13.71V18.29H15.23V16.76Z" fill="#BFFB4F"/>
<path d="M15.23 13.71H13.71V15.24H15.23V13.71Z" fill="#BFFB4F"/>
<path d="M13.7099 18.29H12.1899V19.81H13.7099V18.29Z" fill="#BFFB4F"/>
<path d="M13.7099 12.19H12.1899V13.71H13.7099V12.19Z" fill="#BFFB4F"/>
<path d="M12.1902 19.81H10.6602V21.33H12.1902V19.81Z" fill="#BFFB4F"/>
<path d="M12.1902 10.67H10.6602V12.19H12.1902V10.67Z" fill="#BFFB4F"/>
<path d="M10.6601 21.33H9.14014V22.86H10.6601V21.33Z" fill="#BFFB4F"/>
<path d="M10.6601 9.14001H9.14014V10.67H10.6601V9.14001Z" fill="#BFFB4F"/>
<path d="M9.13986 22.86H7.60986V24.38H9.13986V22.86Z" fill="#BFFB4F"/>
<path d="M9.13986 7.62H7.60986V9.14H9.13986V7.62Z" fill="#BFFB4F"/>
<path d="M7.60984 24.38H6.08984V25.9H7.60984V24.38Z" fill="#BFFB4F"/>
<path d="M7.60984 6.09H6.08984V7.62H7.60984V6.09Z" fill="#BFFB4F"/>
<path d="M6.08982 25.9H4.56982V27.43H6.08982V25.9Z" fill="#BFFB4F"/>
<path d="M6.08982 4.57001H4.56982V6.09001H6.08982V4.57001Z" fill="#BFFB4F"/>
<path d="M4.57004 27.43H3.04004V28.95H4.57004V27.43Z" fill="#BFFB4F"/>
<path d="M4.57004 3.04999H3.04004V4.56999H4.57004V3.04999Z" fill="#BFFB4F"/>
<path d="M9.14 1.52V0H0V9.14H1.52V3.05H3.04V1.52H9.14Z" fill="#BFFB4F"/>
<path d="M9.14 30.48H3.04V28.95H1.52V22.86H0V32H9.14V30.48Z" fill="#BFFB4F"/>
</g>
<defs>
<clipPath id="clip0_1178_4608">
<rect width="32" height="32" fill="white"/>
</clipPath>
</defs>
</svg>
