<svg width="32" height="32" viewBox="0 0 32 32" fill="none" xmlns="http://www.w3.org/2000/svg">
<g clip-path="url(#clip0_1128_13948)">
<path d="M32 29.72H30.47V31.24H32V29.72Z" fill="#000001"/>
<path d="M28.9499 26.67H27.4199V28.19H28.9499V26.67Z" fill="#000001"/>
<path d="M28.9499 11.43H27.4199V14.48H28.9499V11.43Z" fill="#000001"/>
<path d="M27.4199 14.48H25.8999V16H27.4199V14.48Z" fill="#000001"/>
<path d="M27.4199 9.91H25.8999V11.43H27.4199V9.91Z" fill="#000001"/>
<path d="M25.8999 29.72H24.3799V31.24H25.8999V29.72Z" fill="#000001"/>
<path d="M25.8999 16H24.3799V17.53H25.8999V16Z" fill="#000001"/>
<path d="M25.8999 8.38H24.3799V9.91H25.8999V8.38Z" fill="#000001"/>
<path d="M24.3801 26.67H22.8501V28.19H24.3801V26.67Z" fill="#000001"/>
<path d="M24.3801 17.53H22.8501V19.05H24.3801V17.53Z" fill="#000001"/>
<path d="M24.3801 6.86002H22.8501V8.38002H24.3801V6.86002Z" fill="#000001"/>
<path d="M22.8501 19.05H21.3301V20.57H22.8501V19.05Z" fill="#000001"/>
<path d="M22.8501 5.33002H21.3301V6.86002H22.8501V5.33002Z" fill="#000001"/>
<path d="M21.33 28.19H19.8V29.72H21.33V28.19Z" fill="#000001"/>
<path d="M21.33 20.57H19.8V22.1H21.33V20.57Z" fill="#000001"/>
<path d="M21.33 3.81H19.8V5.33H21.33V3.81Z" fill="#000001"/>
<path d="M19.8 22.1H18.28V23.62H19.8V22.1Z" fill="#000001"/>
<path d="M19.8 11.43H18.28V12.95H19.8V11.43Z" fill="#000001"/>
<path d="M19.8 2.29001H18.28V3.81001H19.8V2.29001Z" fill="#000001"/>
<path d="M18.28 23.62H16.76V25.14H18.28V23.62Z" fill="#000001"/>
<path d="M18.28 0.76001H15.23V2.29001H18.28V0.76001Z" fill="#000001"/>
<path d="M16.76 25.14H15.23V26.67H16.76V25.14Z" fill="#000001"/>
<path d="M18.28 14.48H15.23V16H18.28V14.48Z" fill="#000001"/>
<path d="M16.76 8.38H15.23V9.91H16.76V8.38Z" fill="#000001"/>
<path d="M15.23 23.62H13.71V25.14H15.23V23.62Z" fill="#000001"/>
<path d="M15.23 12.95H13.71V14.48H15.23V12.95Z" fill="#000001"/>
<path d="M15.23 2.29001H13.71V3.81001H15.23V2.29001Z" fill="#000001"/>
<path d="M13.7099 25.14H12.1899V26.67H13.7099V25.14Z" fill="#000001"/>
<path d="M13.7099 22.1H12.1899V23.62H13.7099V22.1Z" fill="#000001"/>
<path d="M13.7099 9.91H12.1899V12.95H13.7099V9.91Z" fill="#000001"/>
<path d="M13.7099 3.81H12.1899V5.33H13.7099V3.81Z" fill="#000001"/>
<path d="M12.1899 20.57H10.6599V22.1H12.1899V20.57Z" fill="#000001"/>
<path d="M12.1899 5.33002H10.6599V6.86002H12.1899V5.33002Z" fill="#000001"/>
<path d="M6.09 29.72H7.61V31.24H18.28V29.72H15.23V28.19H12.19V26.67H6.09V28.19H1.52V29.72H0V31.24H6.09V29.72Z" fill="#000001"/>
<path d="M10.6599 19.05H9.13989V20.57H10.6599V19.05Z" fill="#000001"/>
<path d="M10.6599 6.86002H9.13989V8.38002H10.6599V6.86002Z" fill="#000001"/>
<path d="M9.14011 17.53H7.61011V19.05H9.14011V17.53Z" fill="#000001"/>
<path d="M9.14011 8.38H7.61011V9.91H9.14011V8.38Z" fill="#000001"/>
<path d="M7.61009 16H6.09009V17.53H7.61009V16Z" fill="#000001"/>
<path d="M7.61009 9.91H6.09009V11.43H7.61009V9.91Z" fill="#000001"/>
<path d="M6.09007 25.14H4.57007V26.67H6.09007V25.14Z" fill="#000001"/>
<path d="M6.09007 14.48H4.57007V16H6.09007V14.48Z" fill="#000001"/>
<path d="M6.09007 11.43H4.57007V12.95H6.09007V11.43Z" fill="#000001"/>
<path d="M4.57004 23.62H3.04004V25.14H4.57004V23.62Z" fill="#000001"/>
<path d="M4.57004 16H3.04004V17.53H4.57004V16Z" fill="#000001"/>
<path d="M4.57004 12.95H3.04004V14.48H4.57004V12.95Z" fill="#000001"/>
<path d="M3.04002 22.1H1.52002V23.62H3.04002V22.1Z" fill="#000001"/>
<path d="M3.04002 17.53H1.52002V19.05H3.04002V17.53Z" fill="#000001"/>
<path d="M1.52 19.05H0V22.1H1.52V19.05Z" fill="#000001"/>
</g>
<defs>
<clipPath id="clip0_1128_13948">
<rect width="32" height="32" fill="white"/>
</clipPath>
</defs>
</svg>
