<svg width="32" height="32" viewBox="0 0 32 32" fill="none" xmlns="http://www.w3.org/2000/svg">
<g clip-path="url(#clip0_1178_6645)">
<path d="M32 16.005H30.48V23.625H32V16.005Z" fill="#BFFB4F"/>
<path d="M30.4802 23.625H28.9502V25.145H30.4802V23.625Z" fill="#BFFB4F"/>
<path d="M30.4802 14.475H28.9502V16.005H30.4802V14.475Z" fill="#BFFB4F"/>
<path d="M28.9502 17.525H27.4302V22.095H28.9502V17.525Z" fill="#BFFB4F"/>
<path d="M28.9501 25.145H19.8101V26.665H28.9501V25.145Z" fill="#BFFB4F"/>
<path d="M27.4298 16.005H21.3398V17.525H27.4298V16.005Z" fill="#BFFB4F"/>
<path d="M24.3799 6.85498H22.8599V8.38498H24.3799V6.85498Z" fill="#BFFB4F"/>
<path d="M27.4298 22.095H21.3398V23.625H27.4298V22.095Z" fill="#BFFB4F"/>
<path d="M28.9501 12.955H19.8101V14.475H28.9501V12.955Z" fill="#BFFB4F"/>
<path d="M22.8598 8.38498H21.3398V9.90498H22.8598V8.38498Z" fill="#BFFB4F"/>
<path d="M21.3401 9.905H19.8101V11.435H21.3401V9.905Z" fill="#BFFB4F"/>
<path d="M19.81 23.625H18.29V25.145H19.81V23.625Z" fill="#BFFB4F"/>
<path d="M21.3398 22.095V20.575H16.7598V23.625H18.2898V22.095H21.3398Z" fill="#BFFB4F"/>
<path d="M18.2898 16.005H16.7598V19.045H21.3398V17.525H18.2898V16.005Z" fill="#BFFB4F"/>
<path d="M19.81 14.475H18.29V16.005H19.81V14.475Z" fill="#BFFB4F"/>
<path d="M16.7602 5.33499H15.2402V11.435H16.7602V5.33499Z" fill="#BFFB4F"/>
<path d="M10.6699 17.525V19.045H15.2399V16.005H13.7199V17.525H10.6699Z" fill="#BFFB4F"/>
<path d="M13.7199 23.625H12.1899V25.145H13.7199V23.625Z" fill="#BFFB4F"/>
<path d="M13.7199 23.625H15.2399V20.575H10.6699V22.095H13.7199V23.625Z" fill="#BFFB4F"/>
<path d="M13.7199 14.475H12.1899V16.005H13.7199V14.475Z" fill="#BFFB4F"/>
<path d="M12.1899 9.905H10.6699V11.435H12.1899V9.905Z" fill="#BFFB4F"/>
<path d="M12.1898 25.145H3.0498V26.665H12.1898V25.145Z" fill="#BFFB4F"/>
<path d="M10.6698 16.005H4.56982V17.525H10.6698V16.005Z" fill="#BFFB4F"/>
<path d="M10.6699 8.38498H9.1499V9.90498H10.6699V8.38498Z" fill="#BFFB4F"/>
<path d="M9.15012 6.85498H7.62012V8.38498H9.15012V6.85498Z" fill="#BFFB4F"/>
<path d="M10.6698 22.095H4.56982V23.625H10.6698V22.095Z" fill="#BFFB4F"/>
<path d="M12.1898 12.955H3.0498V14.475H12.1898V12.955Z" fill="#BFFB4F"/>
<path d="M4.5698 17.525H3.0498V22.095H4.5698V17.525Z" fill="#BFFB4F"/>
<path d="M3.04979 23.625H1.52979V25.145H3.04979V23.625Z" fill="#BFFB4F"/>
<path d="M3.04979 14.475H1.52979V16.005H3.04979V14.475Z" fill="#BFFB4F"/>
<path d="M1.53 16.005H0V23.625H1.53V16.005Z" fill="#BFFB4F"/>
</g>
<defs>
<clipPath id="clip0_1178_6645">
<rect width="32" height="32" fill="white"/>
</clipPath>
</defs>
</svg>
