<svg width="32" height="32" viewBox="0 0 32 32" fill="none" xmlns="http://www.w3.org/2000/svg">
<g clip-path="url(#clip0_1128_12003)">
<path d="M32 3.04999H30.48V28.95H32V3.04999Z" fill="#000001"/>
<path d="M30.4799 28.95H28.95V30.48H30.4799V28.95Z" fill="#000001"/>
<path d="M30.4799 1.51999H28.95V3.04999H30.4799V1.51999Z" fill="#000001"/>
<path d="M28.9501 30.48H3.05005V32H28.9501V30.48Z" fill="#000001"/>
<path d="M27.4299 24.38H25.9099V25.9H24.3799V27.43H25.9099V28.95H27.4299V27.43H28.9499V25.9H27.4299V24.38Z" fill="#000001"/>
<path d="M27.4299 3.04999H25.9099V4.56999H24.3799V6.08999H25.9099V7.61999H27.4299V6.08999H28.9499V4.56999H27.4299V3.04999Z" fill="#000001"/>
<path d="M21.3399 6.09001H19.8099V4.57001H12.1899V6.09001H10.6699V7.62001H9.1499V12.19H12.1899V9.14001H13.7199V7.62001H16.7599V9.14001H18.2899V12.19H16.7599V13.71H15.2399V15.24H13.7199V18.28H18.2899V16.76H19.8099V15.24H21.3399V13.71H22.8599V7.62001H21.3399V6.09001Z" fill="#000001"/>
<path d="M18.2899 19.81H13.7199V21.33H12.1899V25.9H13.7199V27.43H18.2899V25.9H19.8099V21.33H18.2899V19.81Z" fill="#000001"/>
<path d="M6.10005 24.38H4.57005V25.9H3.05005V27.43H4.57005V28.95H6.10005V27.43H7.62005V25.9H6.10005V24.38Z" fill="#000001"/>
<path d="M6.10005 3.04999H4.57005V4.56999H3.05005V6.08999H4.57005V7.61999H6.10005V6.08999H7.62005V4.56999H6.10005V3.04999Z" fill="#000001"/>
<path d="M28.9501 0H3.05005V1.52H28.9501V0Z" fill="#000001"/>
<path d="M3.05003 28.95H1.53003V30.48H3.05003V28.95Z" fill="#000001"/>
<path d="M3.05003 1.51999H1.53003V3.04999H3.05003V1.51999Z" fill="#000001"/>
<path d="M1.53 3.04999H0V28.95H1.53V3.04999Z" fill="#000001"/>
</g>
<defs>
<clipPath id="clip0_1128_12003">
<rect width="32" height="32" fill="white"/>
</clipPath>
</defs>
</svg>
