<svg width="32" height="32" viewBox="0 0 32 32" fill="none" xmlns="http://www.w3.org/2000/svg">
<g clip-path="url(#clip0_1178_5272)">
<path d="M9.14012 22.855H7.62012V24.385H9.14012V22.855Z" fill="#BFFB4F"/>
<path d="M24.3799 22.855H22.8599V24.385H24.3799V22.855Z" fill="#BFFB4F"/>
<path d="M7.6201 21.335H6.1001V22.855H7.6201V21.335Z" fill="#BFFB4F"/>
<path d="M25.9099 21.335H24.3799V22.855H25.9099V21.335Z" fill="#BFFB4F"/>
<path d="M6.09982 19.805H4.56982V21.335H6.09982V19.805Z" fill="#BFFB4F"/>
<path d="M22.8601 9.145H21.3301V22.855H22.8601V9.145Z" fill="#BFFB4F"/>
<path d="M27.4302 19.805H25.9102V21.335H27.4302V19.805Z" fill="#BFFB4F"/>
<path d="M4.5698 18.285H3.0498V19.805H4.5698V18.285Z" fill="#BFFB4F"/>
<path d="M28.9502 18.285H27.4302V19.805H28.9502V18.285Z" fill="#BFFB4F"/>
<path d="M3.05002 16.765H1.52002V18.285H3.05002V16.765Z" fill="#BFFB4F"/>
<path d="M18.2899 12.195H13.7099V13.715H12.1899V18.285H13.7099V19.805H18.2899V18.285H19.8099V13.715H18.2899V12.195Z" fill="#BFFB4F"/>
<path d="M30.4802 16.765H28.9502V18.285H30.4802V16.765Z" fill="#BFFB4F"/>
<path d="M1.52 15.235H0V16.765H1.52V15.235Z" fill="#BFFB4F"/>
<path d="M32 15.235H30.48V16.765H32V15.235Z" fill="#BFFB4F"/>
<path d="M3.05002 13.715H1.52002V15.235H3.05002V13.715Z" fill="#BFFB4F"/>
<path d="M30.4802 13.715H28.9502V15.235H30.4802V13.715Z" fill="#BFFB4F"/>
<path d="M4.5698 12.195H3.0498V13.715H4.5698V12.195Z" fill="#BFFB4F"/>
<path d="M28.9502 12.195H27.4302V13.715H28.9502V12.195Z" fill="#BFFB4F"/>
<path d="M6.09982 10.665H4.56982V12.195H6.09982V10.665Z" fill="#BFFB4F"/>
<path d="M10.6701 9.145H9.14014V22.855H10.6701V9.145Z" fill="#BFFB4F"/>
<path d="M27.4302 10.665H25.9102V12.195H27.4302V10.665Z" fill="#BFFB4F"/>
<path d="M7.6201 9.145H6.1001V10.665H7.6201V9.145Z" fill="#BFFB4F"/>
<path d="M25.9099 9.145H24.3799V10.665H25.9099V9.145Z" fill="#BFFB4F"/>
<path d="M9.14012 7.61501H7.62012V9.14501H9.14012V7.61501Z" fill="#BFFB4F"/>
<path d="M24.3799 7.61501H22.8599V9.14501H24.3799V7.61501Z" fill="#BFFB4F"/>
</g>
<defs>
<clipPath id="clip0_1178_5272">
<rect width="32" height="32" fill="white"/>
</clipPath>
</defs>
</svg>
