<svg width="32" height="32" viewBox="0 0 32 32" fill="none" xmlns="http://www.w3.org/2000/svg">
<path d="M28.9549 22.85H3.0549V7.62H1.5249V25.9H3.0549V27.43H12.1949V28.95H13.7149V27.43H18.2849V28.95H19.8149V27.43H28.9549V25.9H30.4749V7.62H28.9549V22.85Z" fill="#000001"/>
<path d="M28.955 6.09H22.865V7.62H28.955V6.09Z" fill="#000001"/>
<path d="M12.1948 30.47V28.95H10.6748V32H21.3348V28.95H19.8148V30.47H12.1948Z" fill="#000001"/>
<path d="M18.2848 15.24H13.7148V16.76H18.2848V15.24Z" fill="#000001"/>
<path d="M18.2848 18.28H13.7148V19.81H18.2848V18.28Z" fill="#000001"/>
<path d="M15.2448 0V1.52H13.7148V3.05H12.1948V4.57H10.6748V6.09H13.7148V13.71H18.2848V6.09H21.3348V4.57H19.8148V3.05H18.2848V1.52H16.7648V0H15.2448Z" fill="#000001"/>
<path d="M9.14493 6.09H3.05493V7.62H9.14493V6.09Z" fill="#000001"/>
</svg>
