<svg width="32" height="32" viewBox="0 0 32 32" fill="none" xmlns="http://www.w3.org/2000/svg">
<path d="M20.5649 9.14H22.0949V10.67H26.6649V9.14H28.1849V7.62H26.6649V4.57H25.1349V3.05H26.6649V4.57H28.1849V7.62H29.7149V3.05H28.1849V1.52H26.6649V0H22.0949V1.52H20.5649V3.05H19.0449V7.62H20.5649V9.14Z" fill="#000001"/>
<path d="M19.0449 28.95H20.5649V30.48H22.0949V32H26.6649V30.48H28.1849V28.95H26.6649V25.9H25.1349V24.38H26.6649V25.9H28.1849V28.95H29.7149V24.38H28.1849V22.86H26.6649V21.33H22.0949V22.86H20.5649V24.38H19.0449V28.95Z" fill="#000001"/>
<path d="M19.0449 22.86H17.5249V24.38H19.0449V22.86Z" fill="#000001"/>
<path d="M19.0449 7.62H17.5249V9.14H19.0449V7.62Z" fill="#000001"/>
<path d="M17.5249 21.33H15.9949V22.86H17.5249V21.33Z" fill="#000001"/>
<path d="M17.5249 9.14H15.9949V10.67H17.5249V9.14Z" fill="#000001"/>
<path d="M15.9949 19.81H14.4749V21.33H15.9949V19.81Z" fill="#000001"/>
<path d="M15.9949 10.67H14.4749V12.19H15.9949V10.67Z" fill="#000001"/>
<path d="M14.4748 18.29H12.9448V19.81H14.4748V18.29Z" fill="#000001"/>
<path d="M14.4748 12.19H12.9448V13.71H14.4748V12.19Z" fill="#000001"/>
<path d="M5.33491 10.67V12.19H3.80491V13.71H2.28491V18.29H3.80491V19.81H5.33491V21.33H9.90491V19.81H11.4249V18.29H12.9449V13.71H11.4249V12.19H9.90491V10.67H5.33491Z" fill="#000001"/>
</svg>
