<svg width="32" height="32" viewBox="0 0 32 32" fill="none" xmlns="http://www.w3.org/2000/svg">
<g clip-path="url(#clip0_1178_6515)">
<path d="M2.28514 12.95H0.765137V20.57H2.28514V12.95Z" fill="#BFFB4F"/>
<path d="M3.81516 20.57H2.28516V23.62H3.81516V20.57Z" fill="#BFFB4F"/>
<path d="M3.81516 9.89999H2.28516V12.95H3.81516V9.89999Z" fill="#BFFB4F"/>
<path d="M5.33494 23.62H3.81494V26.66H5.33494V23.62Z" fill="#BFFB4F"/>
<path d="M5.33494 6.84999H3.81494V9.89999H5.33494V6.84999Z" fill="#BFFB4F"/>
<path d="M8.38496 26.66H5.33496V28.19H8.38496V26.66Z" fill="#BFFB4F"/>
<path d="M8.38496 5.32999H5.33496V6.84999H8.38496V5.32999Z" fill="#BFFB4F"/>
<path d="M11.4253 28.19H8.38525V29.71H11.4253V28.19Z" fill="#BFFB4F"/>
<path d="M11.4253 3.81H8.38525V5.33H11.4253V3.81Z" fill="#BFFB4F"/>
<path d="M12.9553 23.62H11.4253V25.14H12.9553V23.62Z" fill="#BFFB4F"/>
<path d="M12.9553 19.05H11.4253V20.57H12.9553V19.05Z" fill="#BFFB4F"/>
<path d="M14.4753 17.52V16H11.4253V14.47H14.4753V9.89999H9.90527V11.43H12.9553V12.95H9.90527V17.52H14.4753Z" fill="#BFFB4F"/>
<path d="M14.4751 22.09H12.9551V23.62H14.4751V22.09Z" fill="#BFFB4F"/>
<path d="M16.0051 20.57H14.4751V22.09H16.0051V20.57Z" fill="#BFFB4F"/>
<path d="M19.0453 29.71H11.4253V31.24H19.0453V29.71Z" fill="#BFFB4F"/>
<path d="M17.5254 23.62H16.0054V25.14H17.5254V23.62Z" fill="#BFFB4F"/>
<path d="M17.5254 19.05H16.0054V20.57H17.5254V19.05Z" fill="#BFFB4F"/>
<path d="M20.5754 12.95H17.5254V11.43H20.5754V9.89999H16.0054V14.47H19.0454V16H16.0054V17.52H20.5754V12.95Z" fill="#BFFB4F"/>
<path d="M22.0949 28.19H19.0449V29.71H22.0949V28.19Z" fill="#BFFB4F"/>
<path d="M25.1452 26.66H22.0952V28.19H25.1452V26.66Z" fill="#BFFB4F"/>
<path d="M26.665 23.62H25.145V26.66H26.665V23.62Z" fill="#BFFB4F"/>
<path d="M28.195 20.57H26.665V23.62H28.195V20.57Z" fill="#BFFB4F"/>
<path d="M14.4753 5.32999H17.5253V6.84999H20.5753V8.37999H23.6253V11.43H25.1453V14.47H26.6653V17.52H28.1953V20.57H29.7153V17.52H31.2353V12.95H29.7153V9.89999H28.1953V6.84999H26.6653V5.32999H25.1453V3.80999H22.0953V2.27999H19.0453V0.759995H14.4753V2.27999H11.4253V3.80999H14.4753V5.32999Z" fill="#BFFB4F"/>
</g>
<defs>
<clipPath id="clip0_1178_6515">
<rect width="32" height="32" fill="white"/>
</clipPath>
</defs>
</svg>
