<svg width="32" height="32" viewBox="0 0 32 32" fill="none" xmlns="http://www.w3.org/2000/svg">
<g clip-path="url(#clip0_1178_4880)">
<path d="M30.4751 9.14H28.9551V12.19H30.4751V9.14Z" fill="#BFFB4F"/>
<path d="M28.9548 6.09H27.4248V9.14H28.9548V6.09Z" fill="#BFFB4F"/>
<path d="M27.4248 4.57001H25.9048V6.09001H27.4248V4.57001Z" fill="#BFFB4F"/>
<path d="M18.2847 30.48V28.95H16.7647V30.48H15.2347V28.95H13.7147V30.48H7.61473V28.95H6.09473V32H25.9047V28.95H24.3847V30.48H18.2847Z" fill="#BFFB4F"/>
<path d="M25.905 3.05H22.855V4.57H25.905V3.05Z" fill="#BFFB4F"/>
<path d="M24.385 9.14H22.855V12.19H24.385V9.14Z" fill="#BFFB4F"/>
<path d="M21.335 27.43V28.95H24.385V25.9H22.855V27.43H21.335Z" fill="#BFFB4F"/>
<path d="M22.855 22.86H21.335V25.9H22.855V22.86Z" fill="#BFFB4F"/>
<path d="M22.855 7.62H21.335V9.14H22.855V7.62Z" fill="#BFFB4F"/>
<path d="M22.8547 1.52H19.8047V3.05H22.8547V1.52Z" fill="#BFFB4F"/>
<path d="M21.3347 25.9H19.8047V27.43H21.3347V25.9Z" fill="#BFFB4F"/>
<path d="M21.3347 19.81H19.8047V22.86H21.3347V19.81Z" fill="#BFFB4F"/>
<path d="M19.8047 27.43H18.2847V28.95H19.8047V27.43Z" fill="#BFFB4F"/>
<path d="M19.8047 24.38H18.2847V25.9H19.8047V24.38Z" fill="#BFFB4F"/>
<path d="M19.8047 16.76H18.2847V19.81H19.8047V16.76Z" fill="#BFFB4F"/>
<path d="M21.3347 6.09H18.2847V7.62H21.3347V6.09Z" fill="#BFFB4F"/>
<path d="M19.8048 0H12.1948V1.52H19.8048V0Z" fill="#BFFB4F"/>
<path d="M18.2851 22.86H16.7651V24.38H18.2851V22.86Z" fill="#BFFB4F"/>
<path d="M18.2851 19.81H16.7651V21.33H18.2851V19.81Z" fill="#BFFB4F"/>
<path d="M18.2851 13.71H16.7651V16.76H18.2851V13.71Z" fill="#BFFB4F"/>
<path d="M18.2848 4.57001H13.7148V6.09001H18.2848V4.57001Z" fill="#BFFB4F"/>
<path d="M16.7649 21.33H15.2349V22.86H16.7649V21.33Z" fill="#BFFB4F"/>
<path d="M16.7649 9.14H15.2349V13.71H16.7649V9.14Z" fill="#BFFB4F"/>
<path d="M15.2348 22.86H13.7148V24.38H15.2348V22.86Z" fill="#BFFB4F"/>
<path d="M15.2348 19.81H13.7148V21.33H15.2348V19.81Z" fill="#BFFB4F"/>
<path d="M15.2348 13.71H13.7148V16.76H15.2348V13.71Z" fill="#BFFB4F"/>
<path d="M13.7148 27.43H12.1948V28.95H13.7148V27.43Z" fill="#BFFB4F"/>
<path d="M13.7148 24.38H12.1948V25.9H13.7148V24.38Z" fill="#BFFB4F"/>
<path d="M13.7148 16.76H12.1948V19.81H13.7148V16.76Z" fill="#BFFB4F"/>
<path d="M12.195 25.9H10.665V27.43H12.195V25.9Z" fill="#BFFB4F"/>
<path d="M12.195 19.81H10.665V22.86H12.195V19.81Z" fill="#BFFB4F"/>
<path d="M13.715 6.09H10.665V7.62H13.715V6.09Z" fill="#BFFB4F"/>
<path d="M7.61475 28.95H10.6647V27.43H9.14475V25.9H7.61475V28.95Z" fill="#BFFB4F"/>
<path d="M10.665 22.86H9.14502V25.9H10.665V22.86Z" fill="#BFFB4F"/>
<path d="M10.665 7.62H9.14502V9.14H10.665V7.62Z" fill="#BFFB4F"/>
<path d="M12.195 1.52H9.14502V3.05H12.195V1.52Z" fill="#BFFB4F"/>
<path d="M9.14475 9.14H7.61475V12.19H9.14475V9.14Z" fill="#BFFB4F"/>
<path d="M9.14473 3.05H6.09473V4.57H9.14473V3.05Z" fill="#BFFB4F"/>
<path d="M6.09471 4.57001H4.57471V6.09001H6.09471V4.57001Z" fill="#BFFB4F"/>
<path d="M4.57492 6.09H3.04492V9.14H4.57492V6.09Z" fill="#BFFB4F"/>
<path d="M3.0449 9.14H1.5249V12.19H3.0449V9.14Z" fill="#BFFB4F"/>
</g>
<defs>
<clipPath id="clip0_1178_4880">
<rect width="32" height="32" fill="white"/>
</clipPath>
</defs>
</svg>
