<svg width="32" height="32" viewBox="0 0 32 32" fill="none" xmlns="http://www.w3.org/2000/svg">
<path d="M29.7151 8.38H28.1851V14.47H29.7151V8.38Z" fill="#BFFB4F"/>
<path d="M28.185 14.47H26.665V17.52H28.185V14.47Z" fill="#BFFB4F"/>
<path d="M28.185 6.85999H26.665V8.37999H28.185V6.85999Z" fill="#BFFB4F"/>
<path d="M26.665 17.52H25.145V19.05H26.665V17.52Z" fill="#BFFB4F"/>
<path d="M26.665 5.33002H25.145V6.86002H26.665V5.33002Z" fill="#BFFB4F"/>
<path d="M25.1452 19.05H23.6152V20.57H25.1452V19.05Z" fill="#BFFB4F"/>
<path d="M25.1452 9.90002H23.6152V14.47H25.1452V9.90002Z" fill="#BFFB4F"/>
<path d="M25.1449 3.81H19.0449V5.33H25.1449V3.81Z" fill="#BFFB4F"/>
<path d="M23.6152 20.57H22.0952V22.09H23.6152V20.57Z" fill="#BFFB4F"/>
<path d="M23.6152 14.47H22.0952V16H23.6152V14.47Z" fill="#BFFB4F"/>
<path d="M23.6149 8.38H19.0449V9.9H23.6149V8.38Z" fill="#BFFB4F"/>
<path d="M22.0949 22.09H20.5649V23.62H22.0949V22.09Z" fill="#BFFB4F"/>
<path d="M22.0949 16H20.5649V17.52H22.0949V16Z" fill="#BFFB4F"/>
<path d="M20.5649 23.62H19.0449V25.14H20.5649V23.62Z" fill="#BFFB4F"/>
<path d="M20.5649 17.52H19.0449V19.05H20.5649V17.52Z" fill="#BFFB4F"/>
<path d="M19.0454 25.14H17.5254V26.67H19.0454V25.14Z" fill="#BFFB4F"/>
<path d="M19.0454 19.05H17.5254V20.57H19.0454V19.05Z" fill="#BFFB4F"/>
<path d="M19.0454 9.90002H17.5254V11.43H19.0454V9.90002Z" fill="#BFFB4F"/>
<path d="M17.5251 20.57H15.9951V22.09H17.5251V20.57Z" fill="#BFFB4F"/>
<path d="M17.5251 11.43H15.9951V12.95H17.5251V11.43Z" fill="#BFFB4F"/>
<path d="M19.0451 5.33002H15.9951V6.86002H19.0451V5.33002Z" fill="#BFFB4F"/>
<path d="M15.9951 22.09H14.4751V23.62H15.9951V22.09Z" fill="#BFFB4F"/>
<path d="M15.9951 12.95H14.4751V14.47H15.9951V12.95Z" fill="#BFFB4F"/>
<path d="M15.9951 6.85999H14.4751V8.37999H15.9951V6.85999Z" fill="#BFFB4F"/>
<path d="M14.4753 23.62H12.9453V25.14H14.4753V23.62Z" fill="#BFFB4F"/>
<path d="M14.4753 14.47H12.9453V16H14.4753V14.47Z" fill="#BFFB4F"/>
<path d="M14.4753 8.38H12.9453V9.9H14.4753V8.38Z" fill="#BFFB4F"/>
<path d="M12.9453 25.14H11.4253V26.67H12.9453V25.14Z" fill="#BFFB4F"/>
<path d="M12.9453 16H11.4253V17.52H12.9453V16Z" fill="#BFFB4F"/>
<path d="M12.9453 9.90002H11.4253V11.43H12.9453V9.90002Z" fill="#BFFB4F"/>
<path d="M11.4253 17.52H9.90527V19.05H11.4253V17.52Z" fill="#BFFB4F"/>
<path d="M11.4253 11.43H9.90527V12.95H11.4253V11.43Z" fill="#BFFB4F"/>
<path d="M9.905 12.95H8.375V14.47H9.905V12.95Z" fill="#BFFB4F"/>
<path d="M8.37498 14.47H6.85498V16H8.37498V14.47Z" fill="#BFFB4F"/>
<path d="M11.425 26.67H5.33496V28.19H11.425V26.67Z" fill="#BFFB4F"/>
<path d="M6.85496 16H5.33496V17.52H6.85496V16Z" fill="#BFFB4F"/>
<path d="M5.33518 25.14H3.80518V26.67H5.33518V25.14Z" fill="#BFFB4F"/>
<path d="M5.33518 17.52H3.80518V19.05H5.33518V17.52Z" fill="#BFFB4F"/>
<path d="M3.80516 19.05H2.28516V25.14H3.80516V19.05Z" fill="#BFFB4F"/>
</svg>
