<svg width="32" height="32" viewBox="0 0 32 32" fill="none" xmlns="http://www.w3.org/2000/svg">
<g clip-path="url(#clip0_1128_13904)">
<path d="M32 1.51999H30.47V13.71H32V1.51999Z" fill="#000001"/>
<path d="M30.4699 13.71H27.4199V15.24H30.4699V13.71Z" fill="#000001"/>
<path d="M27.4199 7.62H25.8999V9.14H24.3799V10.67H25.8999V13.71H27.4199V7.62Z" fill="#000001"/>
<path d="M24.3801 10.67H22.8501V12.19H24.3801V10.67Z" fill="#000001"/>
<path d="M22.8501 12.19H21.3301V13.71H22.8501V12.19Z" fill="#000001"/>
<path d="M22.85 6.09001H24.38V4.57001H18.28V6.09001H21.33V7.62001H22.85V6.09001Z" fill="#000001"/>
<path d="M21.33 7.62H19.8V9.14H21.33V7.62Z" fill="#000001"/>
<path d="M30.47 0H18.28V1.52H30.47V0Z" fill="#000001"/>
<path d="M21.33 13.71H18.28V15.24H21.33V13.71Z" fill="#000001"/>
<path d="M19.8 9.14001H18.28V10.67H19.8V9.14001Z" fill="#000001"/>
<path d="M18.28 10.67H16.76V13.71H18.28V10.67Z" fill="#000001"/>
<path d="M18.28 1.51999H16.76V4.56999H18.28V1.51999Z" fill="#000001"/>
<path d="M15.23 27.43H13.71V30.48H15.23V27.43Z" fill="#000001"/>
<path d="M15.23 18.29H13.71V21.33H15.23V18.29Z" fill="#000001"/>
<path d="M13.7099 21.33H12.1899V22.86H13.7099V21.33Z" fill="#000001"/>
<path d="M13.7099 16.76H10.6599V18.29H13.7099V16.76Z" fill="#000001"/>
<path d="M13.71 30.48H1.52002V32H13.71V30.48Z" fill="#000001"/>
<path d="M12.1899 22.86H10.6599V24.38H12.1899V22.86Z" fill="#000001"/>
<path d="M9.14011 25.9H7.61011V27.43H13.7101V25.9H10.6601V24.38H9.14011V25.9Z" fill="#000001"/>
<path d="M10.6599 18.29H9.13989V19.81H10.6599V18.29Z" fill="#000001"/>
<path d="M9.14011 19.81H7.61011V21.33H9.14011V19.81Z" fill="#000001"/>
<path d="M4.57007 24.38H6.09007V22.86H7.61007V21.33H6.09007V18.29H4.57007V24.38Z" fill="#000001"/>
<path d="M4.57002 16.76H1.52002V18.29H4.57002V16.76Z" fill="#000001"/>
<path d="M1.52 18.29H0V30.48H1.52V18.29Z" fill="#000001"/>
</g>
<defs>
<clipPath id="clip0_1128_13904">
<rect width="32" height="32" fill="white"/>
</clipPath>
</defs>
</svg>
