<svg width="32" height="32" viewBox="0 0 32 32" fill="none" xmlns="http://www.w3.org/2000/svg">
<path d="M30.475 3.05002H28.945V1.52002H24.375V3.05002H22.855V7.62002H24.375V9.14002H28.945V7.62002H30.475V3.05002Z" fill="#BFFB4F"/>
<path d="M28.9448 25.9H27.4248V27.43H28.9448V25.9Z" fill="#BFFB4F"/>
<path d="M28.945 18.28H30.475V13.71H28.945V12.19H24.375V13.71H22.855V18.28H24.375V19.81H28.945V18.28Z" fill="#BFFB4F"/>
<path d="M27.4248 27.43H25.9048V28.95H27.4248V27.43Z" fill="#BFFB4F"/>
<path d="M27.4248 24.38H25.9048V25.9H27.4248V24.38Z" fill="#BFFB4F"/>
<path d="M25.905 28.95H24.375V30.48H25.905V28.95Z" fill="#BFFB4F"/>
<path d="M25.905 22.86H24.375V24.38H25.905V22.86Z" fill="#BFFB4F"/>
<path d="M18.2851 30.48V28.95H19.8051V24.38H18.2851V22.86H13.7151V24.38H12.1851V28.95H13.7151V30.48H18.2851Z" fill="#BFFB4F"/>
<path d="M19.8051 13.71H18.2851V12.19H13.7151V13.71H12.1851V18.28H13.7151V19.81H18.2851V18.28H19.8051V13.71Z" fill="#BFFB4F"/>
<path d="M19.8051 3.05002H18.2851V1.52002H13.7151V3.05002H12.1851V7.62002H13.7151V9.14002H18.2851V7.62002H19.8051V3.05002Z" fill="#BFFB4F"/>
<path d="M7.61473 28.95H6.09473V30.48H7.61473V28.95Z" fill="#BFFB4F"/>
<path d="M7.61473 22.86H6.09473V24.38H7.61473V22.86Z" fill="#BFFB4F"/>
<path d="M7.6149 18.28H9.1449V13.71H7.6149V12.19H3.0449V13.71H1.5249V18.28H3.0449V19.81H7.6149V18.28Z" fill="#BFFB4F"/>
<path d="M9.1449 3.05002H7.6149V1.52002H3.0449V3.05002H1.5249V7.62002H3.0449V9.14002H7.6149V7.62002H9.1449V3.05002Z" fill="#BFFB4F"/>
<path d="M6.09494 27.43H4.56494V28.95H6.09494V27.43Z" fill="#BFFB4F"/>
<path d="M6.09494 24.38H4.56494V25.9H6.09494V24.38Z" fill="#BFFB4F"/>
<path d="M4.56492 25.9H3.04492V27.43H4.56492V25.9Z" fill="#BFFB4F"/>
</svg>
