<svg width="32" height="32" viewBox="0 0 32 32" fill="none" xmlns="http://www.w3.org/2000/svg">
<path d="M30.4748 9.14001H28.9548V12.19H30.4748V9.14001Z" fill="#000001"/>
<path d="M28.9548 6.09H27.4248V9.14H28.9548V6.09Z" fill="#000001"/>
<path d="M27.4248 4.57001H25.9048V6.09001H27.4248V4.57001Z" fill="#000001"/>
<path d="M18.285 30.48V28.95H16.765V30.48H15.235V28.95H13.715V30.48H7.61497V28.95H6.09497V32H25.905V28.95H24.385V30.48H18.285Z" fill="#000001"/>
<path d="M25.905 3.04999H22.855V4.56999H25.905V3.04999Z" fill="#000001"/>
<path d="M24.385 9.14001H22.855V12.19H24.385V9.14001Z" fill="#000001"/>
<path d="M21.335 27.43V28.95H24.385V25.9H22.855V27.43H21.335Z" fill="#000001"/>
<path d="M22.855 22.86H21.335V25.9H22.855V22.86Z" fill="#000001"/>
<path d="M22.855 7.62H21.335V9.14H22.855V7.62Z" fill="#000001"/>
<path d="M22.8549 1.51999H19.8049V3.04999H22.8549V1.51999Z" fill="#000001"/>
<path d="M21.3349 25.9H19.8049V27.43H21.3349V25.9Z" fill="#000001"/>
<path d="M21.3349 19.81H19.8049V22.86H21.3349V19.81Z" fill="#000001"/>
<path d="M19.8049 27.43H18.2849V28.95H19.8049V27.43Z" fill="#000001"/>
<path d="M19.8049 24.38H18.2849V25.9H19.8049V24.38Z" fill="#000001"/>
<path d="M19.8049 16.76H18.2849V19.81H19.8049V16.76Z" fill="#000001"/>
<path d="M21.3349 6.09H18.2849V7.62H21.3349V6.09Z" fill="#000001"/>
<path d="M19.8048 0H12.1948V1.52H19.8048V0Z" fill="#000001"/>
<path d="M18.2849 22.86H16.7649V24.38H18.2849V22.86Z" fill="#000001"/>
<path d="M18.2849 19.81H16.7649V21.33H18.2849V19.81Z" fill="#000001"/>
<path d="M18.2849 13.71H16.7649V16.76H18.2849V13.71Z" fill="#000001"/>
<path d="M18.2848 4.57001H13.7148V6.09001H18.2848V4.57001Z" fill="#000001"/>
<path d="M16.7649 21.33H15.2349V22.86H16.7649V21.33Z" fill="#000001"/>
<path d="M16.7649 9.14001H15.2349V13.71H16.7649V9.14001Z" fill="#000001"/>
<path d="M15.2348 22.86H13.7148V24.38H15.2348V22.86Z" fill="#000001"/>
<path d="M15.2348 19.81H13.7148V21.33H15.2348V19.81Z" fill="#000001"/>
<path d="M15.2348 13.71H13.7148V16.76H15.2348V13.71Z" fill="#000001"/>
<path d="M13.7148 27.43H12.1948V28.95H13.7148V27.43Z" fill="#000001"/>
<path d="M13.7148 24.38H12.1948V25.9H13.7148V24.38Z" fill="#000001"/>
<path d="M13.7148 16.76H12.1948V19.81H13.7148V16.76Z" fill="#000001"/>
<path d="M12.1948 25.9H10.6648V27.43H12.1948V25.9Z" fill="#000001"/>
<path d="M12.1948 19.81H10.6648V22.86H12.1948V19.81Z" fill="#000001"/>
<path d="M13.7148 6.09H10.6648V7.62H13.7148V6.09Z" fill="#000001"/>
<path d="M7.61499 28.95H10.665V27.43H9.14499V25.9H7.61499V28.95Z" fill="#000001"/>
<path d="M10.665 22.86H9.14502V25.9H10.665V22.86Z" fill="#000001"/>
<path d="M10.665 7.62H9.14502V9.14H10.665V7.62Z" fill="#000001"/>
<path d="M12.195 1.51999H9.14502V3.04999H12.195V1.51999Z" fill="#000001"/>
<path d="M9.14499 9.14001H7.61499V12.19H9.14499V9.14001Z" fill="#000001"/>
<path d="M9.14497 3.04999H6.09497V4.56999H9.14497V3.04999Z" fill="#000001"/>
<path d="M6.09495 4.57001H4.57495V6.09001H6.09495V4.57001Z" fill="#000001"/>
<path d="M4.57492 6.09H3.04492V9.14H4.57492V6.09Z" fill="#000001"/>
<path d="M3.0449 9.14001H1.5249V12.19H3.0449V9.14001Z" fill="#000001"/>
</svg>
