<svg width="32" height="32" viewBox="0 0 32 32" fill="none" xmlns="http://www.w3.org/2000/svg">
<g clip-path="url(#clip0_1128_13999)">
<path d="M32 12.19H30.48V28.95H32V12.19Z" fill="#000001"/>
<path d="M32 3.04999H30.48V7.61999H32V3.04999Z" fill="#000001"/>
<path d="M30.4799 28.95H28.95V30.48H30.4799V28.95Z" fill="#000001"/>
<path d="M30.4799 7.62H28.95V9.14H30.4799V7.62Z" fill="#000001"/>
<path d="M30.4799 1.51999H28.95V3.04999H30.4799V1.51999Z" fill="#000001"/>
<path d="M28.9499 9.14001H27.4299V10.67H28.9499V9.14001Z" fill="#000001"/>
<path d="M28.9499 6.10001H27.4299V7.62001H28.9499V6.10001Z" fill="#000001"/>
<path d="M28.9501 30.48H3.05005V32H28.9501V30.48Z" fill="#000001"/>
<path d="M27.4299 10.67H25.9099V12.19H27.4299V10.67Z" fill="#000001"/>
<path d="M27.4299 4.57001H25.9099V6.10001H27.4299V4.57001Z" fill="#000001"/>
<path d="M28.9499 0H24.3799V1.52H28.9499V0Z" fill="#000001"/>
<path d="M25.9099 12.19H24.3799V13.71H25.9099V12.19Z" fill="#000001"/>
<path d="M25.9099 6.10001H24.3799V7.62001H25.9099V6.10001Z" fill="#000001"/>
<path d="M25.9099 3.04999H24.3799V4.56999H25.9099V3.04999Z" fill="#000001"/>
<path d="M24.3801 13.71H22.8601V15.24H24.3801V13.71Z" fill="#000001"/>
<path d="M24.3801 7.62H22.8601V9.14H24.3801V7.62Z" fill="#000001"/>
<path d="M24.3801 1.51999H22.8601V3.04999H24.3801V1.51999Z" fill="#000001"/>
<path d="M22.8601 15.24H21.3301V16.76H22.8601V15.24Z" fill="#000001"/>
<path d="M22.8601 9.14001H21.3301V10.67H22.8601V9.14001Z" fill="#000001"/>
<path d="M22.8601 3.04999H21.3301V4.56999H22.8601V3.04999Z" fill="#000001"/>
<path d="M21.3301 16.76H19.8101V18.29H21.3301V16.76Z" fill="#000001"/>
<path d="M21.3301 10.67H19.8101V12.19H21.3301V10.67Z" fill="#000001"/>
<path d="M21.3301 4.57001H19.8101V6.10001H21.3301V4.57001Z" fill="#000001"/>
<path d="M19.81 15.24H18.29V16.76H19.81V15.24Z" fill="#000001"/>
<path d="M19.81 12.19H18.29V13.71H19.81V12.19Z" fill="#000001"/>
<path d="M19.81 6.10001H18.29V7.62001H19.81V6.10001Z" fill="#000001"/>
<path d="M16.7599 16.76H15.2399V15.24H13.7099V12.19H12.1899V19.81H19.8099V18.29H16.7599V16.76Z" fill="#000001"/>
<path d="M18.29 13.71H16.76V15.24H18.29V13.71Z" fill="#000001"/>
<path d="M18.29 7.62H16.76V9.14H18.29V7.62Z" fill="#000001"/>
<path d="M16.76 12.19H15.24V13.71H16.76V12.19Z" fill="#000001"/>
<path d="M16.76 9.14001H15.24V10.67H16.76V9.14001Z" fill="#000001"/>
<path d="M15.24 10.67H13.71V12.19H15.24V10.67Z" fill="#000001"/>
<path d="M18.29 1.51999H3.05005V3.04999H18.29V1.51999Z" fill="#000001"/>
<path d="M3.05002 28.95H1.52002V30.48H3.05002V28.95Z" fill="#000001"/>
<path d="M3.05002 3.04999H1.52002V4.56999H3.05002V3.04999Z" fill="#000001"/>
<path d="M1.52 4.57001H0V28.95H1.52V4.57001Z" fill="#000001"/>
</g>
<defs>
<clipPath id="clip0_1128_13999">
<rect width="32" height="32" fill="white"/>
</clipPath>
</defs>
</svg>
