<svg width="32" height="32" viewBox="0 0 32 32" fill="none" xmlns="http://www.w3.org/2000/svg">
<g clip-path="url(#clip0_1178_4929)">
<path d="M30.4802 25.9H28.9502V27.43H32.0002V21.33H30.4802V25.9Z" fill="#BFFB4F"/>
<path d="M28.9502 4.57001V6.09001H30.4802V10.67H32.0002V4.57001H28.9502Z" fill="#BFFB4F"/>
<path d="M30.4802 19.81H28.9502V21.33H30.4802V19.81Z" fill="#BFFB4F"/>
<path d="M30.4802 10.67H28.9502V12.19H30.4802V10.67Z" fill="#BFFB4F"/>
<path d="M28.9502 24.38H27.4302V25.9H28.9502V24.38Z" fill="#BFFB4F"/>
<path d="M28.9502 6.09H27.4302V7.62H28.9502V6.09Z" fill="#BFFB4F"/>
<path d="M22.8598 22.86V27.43H24.3798V28.95H25.9098V30.48H21.3398V32H28.9498V28.95H27.4298V27.43H25.9098V24.38H27.4298V22.86H22.8598Z" fill="#BFFB4F"/>
<path d="M28.9499 12.19H22.8599V13.71H28.9499V12.19Z" fill="#BFFB4F"/>
<path d="M25.9099 3.05H24.3799V4.57H25.9099V3.05Z" fill="#BFFB4F"/>
<path d="M22.8599 9.14001H27.4299V7.62001H24.3799V4.57001H22.8599V9.14001Z" fill="#BFFB4F"/>
<path d="M25.9098 1.52V3.05H27.4298V0H21.3398V1.52H25.9098Z" fill="#BFFB4F"/>
<path d="M21.3401 28.95H19.8101V30.48H21.3401V28.95Z" fill="#BFFB4F"/>
<path d="M21.3401 19.81H19.8101V21.33H21.3401V19.81Z" fill="#BFFB4F"/>
<path d="M19.8098 12.19H18.2898V9.14H15.2398V3.05H13.7198V1.52H12.1898V0H4.56982V3.05H6.09982V1.52H10.6698V3.05H12.1898V9.14H13.7198V10.67H15.2398V12.19H16.7598V13.71H18.2898V15.24H19.8098V16.76H21.3398V18.28H22.8598V19.81H28.9498V18.28H24.3798V16.76H22.8598V13.71H19.8098V12.19Z" fill="#BFFB4F"/>
<path d="M21.3401 1.52H19.8101V3.05H21.3401V1.52Z" fill="#BFFB4F"/>
<path d="M19.81 22.86H18.29V28.95H19.81V22.86Z" fill="#BFFB4F"/>
<path d="M19.81 18.28H18.29V19.81H19.81V18.28Z" fill="#BFFB4F"/>
<path d="M19.81 3.05H18.29V9.14H19.81V3.05Z" fill="#BFFB4F"/>
<path d="M18.2898 21.33H16.7598V22.86H18.2898V21.33Z" fill="#BFFB4F"/>
<path d="M18.2898 16.76H16.7598V18.28H18.2898V16.76Z" fill="#BFFB4F"/>
<path d="M16.7602 19.81H15.2402V21.33H16.7602V19.81Z" fill="#BFFB4F"/>
<path d="M16.7602 15.24H15.2402V16.76H16.7602V15.24Z" fill="#BFFB4F"/>
<path d="M15.2402 21.33H13.7202V22.86H15.2402V21.33Z" fill="#BFFB4F"/>
<path d="M15.2402 18.28H13.7202V19.81H15.2402V18.28Z" fill="#BFFB4F"/>
<path d="M15.2402 13.71H13.7202V15.24H15.2402V13.71Z" fill="#BFFB4F"/>
<path d="M13.7199 22.86H12.1899V28.95H13.7199V22.86Z" fill="#BFFB4F"/>
<path d="M13.7199 16.76H12.1899V18.28H13.7199V16.76Z" fill="#BFFB4F"/>
<path d="M13.7199 12.19H12.1899V13.71H13.7199V12.19Z" fill="#BFFB4F"/>
<path d="M12.1899 28.95H10.6699V30.48H12.1899V28.95Z" fill="#BFFB4F"/>
<path d="M12.1899 15.24H10.6699V16.76H12.1899V15.24Z" fill="#BFFB4F"/>
<path d="M12.1899 10.67H10.6699V12.19H12.1899V10.67Z" fill="#BFFB4F"/>
<path d="M10.6699 16.76H9.1499V18.28H10.6699V16.76Z" fill="#BFFB4F"/>
<path d="M10.6699 13.71H9.1499V15.24H10.6699V13.71Z" fill="#BFFB4F"/>
<path d="M6.09982 30.48V28.95H4.56982V32H10.6698V30.48H6.09982Z" fill="#BFFB4F"/>
<path d="M9.14982 22.86H4.56982V24.38H7.61982V27.43H9.14982V22.86Z" fill="#BFFB4F"/>
<path d="M9.1498 12.19H3.0498V13.71H9.1498V12.19Z" fill="#BFFB4F"/>
<path d="M7.6201 27.43H6.1001V28.95H7.6201V27.43Z" fill="#BFFB4F"/>
<path d="M7.6201 3.05H6.1001V4.57H7.6201V3.05Z" fill="#BFFB4F"/>
<path d="M9.1498 18.28H3.0498V19.81H9.1498V18.28Z" fill="#BFFB4F"/>
<path d="M9.14982 9.14001V4.57001H7.61982V7.62001H4.56982V9.14001H9.14982Z" fill="#BFFB4F"/>
<path d="M4.5698 24.38H3.0498V25.9H4.5698V24.38Z" fill="#BFFB4F"/>
<path d="M4.5698 6.09H3.0498V7.62H4.5698V6.09Z" fill="#BFFB4F"/>
<path d="M3.04979 19.81H1.52979V21.33H3.04979V19.81Z" fill="#BFFB4F"/>
<path d="M3.04979 10.67H1.52979V12.19H3.04979V10.67Z" fill="#BFFB4F"/>
<path d="M1.53 21.33H0V27.43H3.05V25.9H1.53V21.33Z" fill="#BFFB4F"/>
<path d="M1.53 6.09001H3.05V4.57001H0V10.67H1.53V6.09001Z" fill="#BFFB4F"/>
</g>
<defs>
<clipPath id="clip0_1178_4929">
<rect width="32" height="32" fill="white"/>
</clipPath>
</defs>
</svg>
