<svg width="32" height="32" viewBox="0 0 32 32" fill="none" xmlns="http://www.w3.org/2000/svg">
<g clip-path="url(#clip0_1128_19761)">
<path d="M32 12.19H30.47V19.81H32V12.19Z" fill="#000001"/>
<path d="M30.4699 19.81H28.95V22.86H30.4699V19.81Z" fill="#000001"/>
<path d="M30.4699 9.14001H28.95V12.19H30.4699V9.14001Z" fill="#000001"/>
<path d="M28.95 22.86H27.42V25.9H28.95V22.86Z" fill="#000001"/>
<path d="M28.95 6.09003H27.42V9.14003H28.95V6.09003Z" fill="#000001"/>
<path d="M27.42 25.9H25.9V27.43H27.42V25.9Z" fill="#000001"/>
<path d="M27.42 4.57001H25.9V6.09001H27.42V4.57001Z" fill="#000001"/>
<path d="M25.9 27.43H22.85V28.95H25.9V27.43Z" fill="#000001"/>
<path d="M24.38 18.29H22.85V19.81H24.38V18.29Z" fill="#000001"/>
<path d="M6.08997 7.62V19.81H7.60997V22.86H9.13997V25.9H12.19V24.38H10.66V19.81H9.13997V10.67H24.38V18.29H25.9V7.62H6.08997Z" fill="#000001"/>
<path d="M25.9 3.04999H22.85V4.56999H25.9V3.04999Z" fill="#000001"/>
<path d="M22.85 19.81H21.33V21.33H22.85V19.81Z" fill="#000001"/>
<path d="M22.8501 28.95H19.8101V30.48H22.8501V28.95Z" fill="#000001"/>
<path d="M21.3301 12.19H19.8101V18.29H21.3301V12.19Z" fill="#000001"/>
<path d="M22.8501 1.52002H19.8101V3.05002H22.8501V1.52002Z" fill="#000001"/>
<path d="M21.33 21.33H13.71V22.86H21.33V21.33Z" fill="#000001"/>
<path d="M19.8099 30.48H12.1899V32H19.8099V30.48Z" fill="#000001"/>
<path d="M16.76 12.19H15.23V18.29H16.76V12.19Z" fill="#000001"/>
<path d="M19.8099 0H12.1899V1.52H19.8099V0Z" fill="#000001"/>
<path d="M13.7099 22.86H12.1899V24.38H13.7099V22.86Z" fill="#000001"/>
<path d="M12.19 28.95H9.14001V30.48H12.19V28.95Z" fill="#000001"/>
<path d="M12.19 1.52002H9.14001V3.05002H12.19V1.52002Z" fill="#000001"/>
<path d="M9.13997 27.43H6.08997V28.95H9.13997V27.43Z" fill="#000001"/>
<path d="M9.13997 3.04999H6.08997V4.56999H9.13997V3.04999Z" fill="#000001"/>
<path d="M6.08995 25.9H4.56995V27.43H6.08995V25.9Z" fill="#000001"/>
<path d="M6.08995 4.57001H4.56995V6.09001H6.08995V4.57001Z" fill="#000001"/>
<path d="M4.57004 22.86H3.04004V25.9H4.57004V22.86Z" fill="#000001"/>
<path d="M4.57004 6.09003H3.04004V9.14003H4.57004V6.09003Z" fill="#000001"/>
<path d="M3.04002 19.81H1.52002V22.86H3.04002V19.81Z" fill="#000001"/>
<path d="M3.04002 9.14001H1.52002V12.19H3.04002V9.14001Z" fill="#000001"/>
<path d="M1.52 12.19H0V19.81H1.52V12.19Z" fill="#000001"/>
</g>
<defs>
<clipPath id="clip0_1128_19761">
<rect width="32" height="32" fill="white"/>
</clipPath>
</defs>
</svg>
