<svg width="32" height="32" viewBox="0 0 32 32" fill="none" xmlns="http://www.w3.org/2000/svg">
<g clip-path="url(#clip0_1178_13550)">
<path d="M32.0002 3.04999H30.4702V28.95H32.0002V3.04999Z" fill="#BFFB4F"/>
<path d="M30.4702 28.95H28.9502V30.48H30.4702V28.95Z" fill="#BFFB4F"/>
<path d="M30.4702 1.51999H28.9502V3.04999H30.4702V1.51999Z" fill="#BFFB4F"/>
<path d="M28.95 30.48H3.04004V32H28.95V30.48Z" fill="#BFFB4F"/>
<path d="M27.42 4.56999H25.9V3.04999H6.09004V4.56999H4.57004V6.08999H3.04004V25.9H4.57004V27.43H6.09004V28.95H25.9V27.43H27.42V25.9H28.95V6.08999H27.42V4.56999ZM25.9 24.38H24.38V25.9H7.61004V24.38H6.09004V7.61999H7.61004V6.08999H24.38V7.61999H25.9V24.38Z" fill="#BFFB4F"/>
<path d="M24.3801 7.62H21.3301V10.67H24.3801V7.62Z" fill="#BFFB4F"/>
<path d="M21.3301 12.19H19.8101V10.67H12.1901V12.19H10.6601V13.71H9.14014V21.33H10.6601V22.86H12.1901V24.38H19.8101V22.86H21.3301V21.33H22.8501V13.71H21.3301V12.19ZM19.8101 19.81H18.2801V21.33H13.7101V19.81H12.1901V15.24H13.7101V13.71H18.2801V15.24H19.8101V19.81Z" fill="#BFFB4F"/>
<path d="M28.95 0H3.04004V1.52H28.95V0Z" fill="#BFFB4F"/>
<path d="M3.04002 28.95H1.52002V30.48H3.04002V28.95Z" fill="#BFFB4F"/>
<path d="M3.04002 1.51999H1.52002V3.04999H3.04002V1.51999Z" fill="#BFFB4F"/>
<path d="M1.52 3.04999H0V28.95H1.52V3.04999Z" fill="#BFFB4F"/>
</g>
<defs>
<clipPath id="clip0_1178_13550">
<rect width="32" height="32" fill="white"/>
</clipPath>
</defs>
</svg>
