<svg width="32" height="32" viewBox="0 0 32 32" fill="none" xmlns="http://www.w3.org/2000/svg">
<g clip-path="url(#clip0_1128_20092)">
<path d="M22.8499 15.24H21.3299V13.72H19.8099V12.19H18.2799V10.67H16.7599V9.13998H15.2399V7.61998H13.7099V6.09998H12.1899V24.38H13.7099V22.86H15.2399V21.34H16.7599V19.81H18.2799V18.29H24.3799V16.76H22.8499V15.24ZM15.2399 18.29H13.7099V12.19H15.2399V18.29Z" fill="#000001"/>
<path d="M32 12.19H30.47V19.81H32V12.19Z" fill="#000001"/>
<path d="M30.4699 19.81H28.95V22.86H30.4699V19.81Z" fill="#000001"/>
<path d="M30.4699 9.14001H28.95V12.19H30.4699V9.14001Z" fill="#000001"/>
<path d="M28.9499 22.86H27.4299V25.91H28.9499V22.86Z" fill="#000001"/>
<path d="M28.9499 6.09998H27.4299V9.13998H28.9499V6.09998Z" fill="#000001"/>
<path d="M27.4299 25.91H25.8999V27.43H27.4299V25.91Z" fill="#000001"/>
<path d="M27.4299 4.57001H25.8999V6.10001H27.4299V4.57001Z" fill="#000001"/>
<path d="M25.9001 27.43H22.8501V28.95H25.9001V27.43Z" fill="#000001"/>
<path d="M25.9001 3.04999H22.8501V4.56999H25.9001V3.04999Z" fill="#000001"/>
<path d="M22.8501 28.95H19.8101V30.48H22.8501V28.95Z" fill="#000001"/>
<path d="M22.8501 1.53003H19.8101V3.05003H22.8501V1.53003Z" fill="#000001"/>
<path d="M19.8099 30.48H12.1899V32H19.8099V30.48Z" fill="#000001"/>
<path d="M19.8099 0H12.1899V1.53H19.8099V0Z" fill="#000001"/>
<path d="M12.1899 28.95H9.13989V30.48H12.1899V28.95Z" fill="#000001"/>
<path d="M12.1899 1.53003H9.13989V3.05003H12.1899V1.53003Z" fill="#000001"/>
<path d="M9.14009 27.43H6.09009V28.95H9.14009V27.43Z" fill="#000001"/>
<path d="M9.14009 3.04999H6.09009V4.56999H9.14009V3.04999Z" fill="#000001"/>
<path d="M6.09007 25.91H4.57007V27.43H6.09007V25.91Z" fill="#000001"/>
<path d="M6.09007 4.57001H4.57007V6.10001H6.09007V4.57001Z" fill="#000001"/>
<path d="M4.57004 22.86H3.04004V25.91H4.57004V22.86Z" fill="#000001"/>
<path d="M4.57004 6.09998H3.04004V9.13998H4.57004V6.09998Z" fill="#000001"/>
<path d="M3.04002 19.81H1.52002V22.86H3.04002V19.81Z" fill="#000001"/>
<path d="M3.04002 9.14001H1.52002V12.19H3.04002V9.14001Z" fill="#000001"/>
<path d="M1.52 12.19H0V19.81H1.52V12.19Z" fill="#000001"/>
</g>
<defs>
<clipPath id="clip0_1128_20092">
<rect width="32" height="32" fill="white"/>
</clipPath>
</defs>
</svg>
