<svg width="32" height="32" viewBox="0 0 32 32" fill="none" xmlns="http://www.w3.org/2000/svg">
<g clip-path="url(#clip0_1178_17549)">
<path d="M32.0002 4.57001H30.4702V12.19H32.0002V4.57001Z" fill="#BFFB4F"/>
<path d="M30.4702 12.19H28.9502V13.71H30.4702V12.19Z" fill="#BFFB4F"/>
<path d="M30.4702 3.05H28.9502V4.57H30.4702V3.05Z" fill="#BFFB4F"/>
<path d="M27.4301 27.43V22.86H30.4701V21.33H28.9501V19.81H27.4301V18.29H25.9001V19.81H24.3801V21.33H22.8501V22.86H25.9001V27.43H27.4301Z" fill="#BFFB4F"/>
<path d="M28.9502 13.71H27.4302V15.24H28.9502V13.71Z" fill="#BFFB4F"/>
<path d="M28.9502 1.52H27.4302V3.05H28.9502V1.52Z" fill="#BFFB4F"/>
<path d="M27.4299 9.14H25.8999V10.67H27.4299V9.14Z" fill="#BFFB4F"/>
<path d="M25.8999 27.43H24.3799V28.95H25.8999V27.43Z" fill="#BFFB4F"/>
<path d="M27.4301 15.24H19.8101V16.76H27.4301V15.24Z" fill="#BFFB4F"/>
<path d="M25.9001 7.62H21.3301V9.14H25.9001V7.62Z" fill="#BFFB4F"/>
<path d="M21.3301 10.67V12.19H22.8501V13.71H24.3801V12.19H25.9001V10.67H21.3301Z" fill="#BFFB4F"/>
<path d="M25.9001 6.1V4.57H24.3801V3.05H22.8501V4.57H21.3301V6.1H25.9001Z" fill="#BFFB4F"/>
<path d="M24.3798 28.95H18.2798V30.48H24.3798V28.95Z" fill="#BFFB4F"/>
<path d="M27.4301 0H19.8101V1.52H27.4301V0Z" fill="#BFFB4F"/>
<path d="M21.3301 6.10001H19.8101V7.62001H21.3301V6.10001Z" fill="#BFFB4F"/>
<path d="M19.8098 13.71H18.2798V15.24H19.8098V13.71Z" fill="#BFFB4F"/>
<path d="M19.8098 1.52H18.2798V3.05H19.8098V1.52Z" fill="#BFFB4F"/>
<path d="M18.2798 12.19H16.7598V13.71H18.2798V12.19Z" fill="#BFFB4F"/>
<path d="M18.2798 3.05H16.7598V4.57H18.2798V3.05Z" fill="#BFFB4F"/>
<path d="M16.7602 19.81H15.2402V27.43H16.7602V19.81Z" fill="#BFFB4F"/>
<path d="M16.7602 4.57001H15.2402V12.19H16.7602V4.57001Z" fill="#BFFB4F"/>
<path d="M15.24 27.43H13.71V28.95H15.24V27.43Z" fill="#BFFB4F"/>
<path d="M15.24 18.29H13.71V19.81H15.24V18.29Z" fill="#BFFB4F"/>
<path d="M13.7099 28.95H12.1899V30.48H13.7099V28.95Z" fill="#BFFB4F"/>
<path d="M13.7099 16.76H12.1899V18.29H13.7099V16.76Z" fill="#BFFB4F"/>
<path d="M12.1898 30.48H4.56982V32H12.1898V30.48Z" fill="#BFFB4F"/>
<path d="M13.7101 1.52H7.62012V3.05H13.7101V1.52Z" fill="#BFFB4F"/>
<path d="M10.6601 27.43H7.62012V28.95H10.6601V27.43Z" fill="#BFFB4F"/>
<path d="M10.6601 18.29H7.62012V19.81H10.6601V18.29Z" fill="#BFFB4F"/>
<path d="M6.09004 27.43H7.62004V25.91H9.14004V24.38H6.09004V22.86H10.66V21.33H7.62004V19.81H6.09004V21.33H3.04004V22.86H4.57004V24.38H3.04004V25.91H6.09004V27.43Z" fill="#BFFB4F"/>
<path d="M12.1898 15.24H4.56982V16.76H12.1898V15.24Z" fill="#BFFB4F"/>
<path d="M7.61984 3.05H6.08984V4.57H7.61984V3.05Z" fill="#BFFB4F"/>
<path d="M4.57004 28.95H3.04004V30.48H4.57004V28.95Z" fill="#BFFB4F"/>
<path d="M4.57004 16.76H3.04004V18.29H4.57004V16.76Z" fill="#BFFB4F"/>
<path d="M3.04002 12.19H4.57002V13.71H6.09002V12.19H7.62002V10.67H9.14002V9.14001H6.09002V4.57001H4.57002V9.14001H1.52002V10.67H3.04002V12.19Z" fill="#BFFB4F"/>
<path d="M3.04002 27.43H1.52002V28.95H3.04002V27.43Z" fill="#BFFB4F"/>
<path d="M3.04002 18.29H1.52002V19.81H3.04002V18.29Z" fill="#BFFB4F"/>
<path d="M1.52 19.81H0V27.43H1.52V19.81Z" fill="#BFFB4F"/>
</g>
<defs>
<clipPath id="clip0_1178_17549">
<rect width="32" height="32" fill="white"/>
</clipPath>
</defs>
</svg>
