<svg width="32" height="32" viewBox="0 0 32 32" fill="none" xmlns="http://www.w3.org/2000/svg">
<g clip-path="url(#clip0_1178_18109)">
<path d="M32 12.1851H30.48V19.8051H32V12.1851Z" fill="#BFFB4F"/>
<path d="M30.48 19.8051H28.96V22.8551H30.48V19.8051Z" fill="#BFFB4F"/>
<path d="M30.48 9.14502H28.96V12.185H30.48V9.14502Z" fill="#BFFB4F"/>
<path d="M28.9602 22.8551H27.4302V24.3751H28.9602V22.8551Z" fill="#BFFB4F"/>
<path d="M28.9602 12.1851H27.4302V13.7151H28.9602V12.1851Z" fill="#BFFB4F"/>
<path d="M28.9602 7.61499H27.4302V9.14499H28.9602V7.61499Z" fill="#BFFB4F"/>
<path d="M27.4302 10.665H25.9102V12.185H27.4302V10.665Z" fill="#BFFB4F"/>
<path d="M24.3799 18.2851H25.9099V13.7151H24.3799V7.61506H27.4299V6.09506H24.3799V4.56506H22.8599V27.4251H24.3799V25.9051H27.4299V24.3751H24.3799V18.2851Z" fill="#BFFB4F"/>
<path d="M22.8598 27.425H1.52979V28.955H22.8598V27.425Z" fill="#BFFB4F"/>
<path d="M18.2902 15.235H15.2402V16.755H13.7202V19.805H15.2402V21.335H18.2902V19.805H19.8102V9.14502H18.2902V15.235ZM18.2902 18.285H16.7702V16.755H18.2902V18.285Z" fill="#BFFB4F"/>
<path d="M18.2902 7.61499H15.2402V9.14499H18.2902V7.61499Z" fill="#BFFB4F"/>
<path d="M15.2399 9.14502H12.1899V10.665H15.2399V9.14502Z" fill="#BFFB4F"/>
<path d="M12.1899 10.665H9.1499V12.185H12.1899V10.665Z" fill="#BFFB4F"/>
<path d="M7.6198 18.2851H4.5798V19.8051H3.0498V22.8551H4.5798V24.3751H7.6198V22.8551H9.1498V12.1851H7.6198V18.2851ZM7.6198 21.3351H6.0998V19.8051H7.6198V21.3351Z" fill="#BFFB4F"/>
<path d="M22.8598 3.04504H1.52979V4.56504H22.8598V3.04504Z" fill="#BFFB4F"/>
<path d="M1.53 4.56506H0V27.4251H1.53V4.56506Z" fill="#BFFB4F"/>
</g>
<defs>
<clipPath id="clip0_1178_18109">
<rect width="32" height="32" fill="white"/>
</clipPath>
</defs>
</svg>
