<svg width="32" height="32" viewBox="0 0 32 32" fill="none" xmlns="http://www.w3.org/2000/svg">
<g clip-path="url(#clip0_1178_10349)">
<path d="M31.24 16.005H29.71V17.525H31.24V16.005Z" fill="#BFFB4F"/>
<path d="M31.24 12.955H29.71V14.475H31.24V12.955Z" fill="#BFFB4F"/>
<path d="M31.24 9.90503H29.71V11.425H31.24V9.90503Z" fill="#BFFB4F"/>
<path d="M31.24 6.85504H29.71V8.38504H31.24V6.85504Z" fill="#BFFB4F"/>
<path d="M31.24 3.80499H29.71V5.33499H31.24V3.80499Z" fill="#BFFB4F"/>
<path d="M31.24 0.765015H29.71V2.28501H31.24V0.765015Z" fill="#BFFB4F"/>
<path d="M28.1899 16.005H26.6699V17.525H28.1899V16.005Z" fill="#BFFB4F"/>
<path d="M28.1899 12.955H26.6699V14.475H28.1899V12.955Z" fill="#BFFB4F"/>
<path d="M28.1899 9.90503H26.6699V11.425H28.1899V9.90503Z" fill="#BFFB4F"/>
<path d="M28.1899 6.85504H26.6699V8.38504H28.1899V6.85504Z" fill="#BFFB4F"/>
<path d="M28.1899 3.80499H26.6699V5.33499H28.1899V3.80499Z" fill="#BFFB4F"/>
<path d="M28.1899 0.765015H26.6699V2.28501H28.1899V0.765015Z" fill="#BFFB4F"/>
<path d="M25.1396 16.005H23.6196V17.525H25.1396V16.005Z" fill="#BFFB4F"/>
<path d="M25.1396 12.955H23.6196V14.475H25.1396V12.955Z" fill="#BFFB4F"/>
<path d="M25.1396 9.90503H23.6196V11.425H25.1396V9.90503Z" fill="#BFFB4F"/>
<path d="M25.1396 6.85504H23.6196V8.38504H25.1396V6.85504Z" fill="#BFFB4F"/>
<path d="M25.1396 3.80499H23.6196V5.33499H25.1396V3.80499Z" fill="#BFFB4F"/>
<path d="M25.1396 0.765015H23.6196V2.28501H25.1396V0.765015Z" fill="#BFFB4F"/>
<path d="M22.0898 12.955H20.5698V14.475H22.0898V12.955Z" fill="#BFFB4F"/>
<path d="M22.0898 9.90503H20.5698V11.425H22.0898V9.90503Z" fill="#BFFB4F"/>
<path d="M22.0898 6.85504H20.5698V8.38504H22.0898V6.85504Z" fill="#BFFB4F"/>
<path d="M22.0898 3.80499H20.5698V5.33499H22.0898V3.80499Z" fill="#BFFB4F"/>
<path d="M19.0495 9.90503H17.5195V11.425H19.0495V9.90503Z" fill="#BFFB4F"/>
<path d="M19.0495 6.85504H17.5195V8.38504H19.0495V6.85504Z" fill="#BFFB4F"/>
<path d="M17.52 14.475H16V29.715H17.52V14.475Z" fill="#BFFB4F"/>
<path d="M16 12.955H14.48V14.475H16V12.955Z" fill="#BFFB4F"/>
<path d="M15.9998 29.715H2.27979V31.235H15.9998V29.715Z" fill="#BFFB4F"/>
<path d="M14.4797 3.80499H12.9497V5.33499H14.4797V3.80499Z" fill="#BFFB4F"/>
<path d="M12.9496 16.005H5.32957V17.525H3.80957V25.145H5.32957V26.665H6.85957V25.145H8.37957V26.665H9.89957V25.145H11.4296V26.665H12.9496V25.145H14.4796V17.525H12.9496V16.005ZM8.37957 22.1H5.32957V19.05H8.37957V22.1ZM12.9496 22.1H9.89957V19.05H12.9496V22.1Z" fill="#BFFB4F"/>
<path d="M12.9496 2.28503H5.32959V3.80503H12.9496V2.28503Z" fill="#BFFB4F"/>
<path d="M14.4798 12.955V11.425H9.89979V9.90502H15.9998V8.38502H9.89979V6.85502H12.9498V5.33502H5.32979V6.85502H8.37979V8.38502H2.27979V9.90502H8.37979V11.425H3.80979V12.955H14.4798Z" fill="#BFFB4F"/>
<path d="M5.32957 3.80499H3.80957V5.33499H5.32957V3.80499Z" fill="#BFFB4F"/>
<path d="M3.80979 12.955H2.27979V14.475H3.80979V12.955Z" fill="#BFFB4F"/>
<path d="M2.27977 14.475H0.759766V29.715H2.27977V14.475Z" fill="#BFFB4F"/>
<path d="M2.27977 9.90503H0.759766V11.425H2.27977V9.90503Z" fill="#BFFB4F"/>
</g>
<defs>
<clipPath id="clip0_1178_10349">
<rect width="32" height="32" fill="white"/>
</clipPath>
</defs>
</svg>
