<svg width="32" height="32" viewBox="0 0 32 32" fill="none" xmlns="http://www.w3.org/2000/svg">
<g clip-path="url(#clip0_1178_11064)">
<path d="M30.4701 1.53H28.9501V0H24.3801V1.53H22.8601V3.05H21.3301V7.62H22.8601V9.15H24.3801V10.67H28.9501V9.15H30.4701V7.62H32.0001V3.05H30.4701V1.53ZM27.4301 9.15H25.9001V7.62H27.4301V9.15ZM27.4301 6.1H25.9001V1.53H27.4301V6.1Z" fill="#BFFB4F"/>
<path d="M28.9502 15.24H27.4302V30.48H28.9502V15.24Z" fill="#BFFB4F"/>
<path d="M27.43 30.48H1.52002V32H27.43V30.48Z" fill="#BFFB4F"/>
<path d="M19.8101 16.77V22.86H25.9001V16.77H19.8101ZM24.3801 21.34H21.3301V18.29H24.3801V21.34Z" fill="#BFFB4F"/>
<path d="M13.7098 27.43H3.0498V28.96H13.7098V27.43Z" fill="#BFFB4F"/>
<path d="M19.8101 4.58H7.62012V6.1H19.8101V4.58Z" fill="#BFFB4F"/>
<path d="M21.3298 10.67V9.15H7.61982V6.1H6.08982V9.15H4.56982V10.67H21.3298Z" fill="#BFFB4F"/>
<path d="M9.1398 22.86H3.0498V24.38H9.1398V22.86Z" fill="#BFFB4F"/>
<path d="M27.43 15.24V13.72H25.9V12.19H24.38V13.72H4.57002V10.67H3.05002V13.72H1.52002V15.24H27.43Z" fill="#BFFB4F"/>
<path d="M1.52 15.24H0V30.48H1.52V15.24Z" fill="#BFFB4F"/>
</g>
<defs>
<clipPath id="clip0_1178_11064">
<rect width="32" height="32" fill="white"/>
</clipPath>
</defs>
</svg>
