<svg width="32" height="32" viewBox="0 0 32 32" fill="none" xmlns="http://www.w3.org/2000/svg">
<path d="M30.48 12.9548H28.95V17.5248H25.91V19.0548H28.95V20.5748H25.91V22.0948H28.95V23.6248H30.48V22.0948H32V20.5748H30.48V19.0548H32V17.5248H30.48V12.9548Z" fill="#000001"/>
<path d="M28.9501 23.625H27.4301V25.145H28.9501V23.625Z" fill="#000001"/>
<path d="M28.9501 9.90503H27.4301V12.955H28.9501V9.90503Z" fill="#000001"/>
<path d="M27.43 25.145H25.91V26.675H27.43V25.145Z" fill="#000001"/>
<path d="M27.43 6.86499H25.91V9.90499H27.43V6.86499Z" fill="#000001"/>
<path d="M25.91 3.81494H24.38V6.86494H25.91V3.81494Z" fill="#000001"/>
<path d="M25.91 26.6748H22.86V28.1948H25.91V26.6748Z" fill="#000001"/>
<path d="M24.38 22.095H22.86V23.625H24.38V22.095Z" fill="#000001"/>
<path d="M24.38 19.0549H22.86V20.5749H24.38V19.0549Z" fill="#000001"/>
<path d="M24.38 2.28491H22.86V3.81491H24.38V2.28491Z" fill="#000001"/>
<path d="M22.86 3.81494H21.34V5.33494H22.86V3.81494Z" fill="#000001"/>
<path d="M22.86 28.1948H9.15002V29.7148H22.86V28.1948Z" fill="#000001"/>
<path d="M21.3401 8.38501H19.8101V11.435H21.3401V8.38501Z" fill="#000001"/>
<path d="M21.3401 5.33496H19.8101V6.86496H21.3401V5.33496Z" fill="#000001"/>
<path d="M19.81 14.4749H18.29V16.0049H19.81V14.4749Z" fill="#000001"/>
<path d="M18.29 22.095H16.76V23.625H18.29V22.095Z" fill="#000001"/>
<path d="M12.1899 17.5249V19.0549H13.7199V20.5749H16.7599V19.0549H18.2899V17.5249H12.1899Z" fill="#000001"/>
<path d="M16.76 23.625H13.72V25.145H16.76V23.625Z" fill="#000001"/>
<path d="M15.2399 8.38499V11.435H16.7599V8.38499H19.8099V6.86499H12.1899V8.38499H15.2399Z" fill="#000001"/>
<path d="M12.19 14.4749H10.67V16.0049H12.19V14.4749Z" fill="#000001"/>
<path d="M12.19 8.38501H10.67V11.435H12.19V8.38501Z" fill="#000001"/>
<path d="M12.19 5.33496H10.67V6.86496H12.19V5.33496Z" fill="#000001"/>
<path d="M10.67 3.81494H9.15002V5.33494H10.67V3.81494Z" fill="#000001"/>
<path d="M9.14998 26.6748H6.09998V28.1948H9.14998V26.6748Z" fill="#000001"/>
<path d="M9.14999 22.095H7.62V23.625H9.14999V22.095Z" fill="#000001"/>
<path d="M9.14999 19.0549H7.62V20.5749H9.14999V19.0549Z" fill="#000001"/>
<path d="M9.14999 2.28491H7.62V3.81491H9.14999V2.28491Z" fill="#000001"/>
<path d="M7.61998 3.81494H6.09998V6.86494H7.61998V3.81494Z" fill="#000001"/>
<path d="M6.09995 25.145H4.56995V26.675H6.09995V25.145Z" fill="#000001"/>
<path d="M6.09995 6.86499H4.56995V9.90499H6.09995V6.86499Z" fill="#000001"/>
<path d="M4.57005 23.625H3.05005V25.145H4.57005V23.625Z" fill="#000001"/>
<path d="M6.1 22.0948V20.5748H3.05V19.0548H6.1V17.5248H3.05V12.9548H1.53V17.5248H0V19.0548H1.53V20.5748H0V22.0948H1.53V23.6248H3.05V22.0948H6.1Z" fill="#000001"/>
<path d="M4.57005 9.90503H3.05005V12.955H4.57005V9.90503Z" fill="#000001"/>
</svg>
