<svg width="32" height="32" viewBox="0 0 32 32" fill="none" xmlns="http://www.w3.org/2000/svg">
<g clip-path="url(#clip0_1178_15390)">
<path d="M32 13.72H30.48V15.24H32V13.72Z" fill="#BFFB4F"/>
<path d="M32 4.56995H30.48V9.14995H32V4.56995Z" fill="#BFFB4F"/>
<path d="M30.4802 12.1899H28.9502V13.7199H30.4802V12.1899Z" fill="#BFFB4F"/>
<path d="M30.4802 9.15002H28.9502V10.67H30.4802V9.15002Z" fill="#BFFB4F"/>
<path d="M30.4802 3.05005H28.9502V4.57005H30.4802V3.05005Z" fill="#BFFB4F"/>
<path d="M24.3799 15.24V19.81H25.9099V16.76H30.4799V15.24H24.3799Z" fill="#BFFB4F"/>
<path d="M27.4302 3.05H28.9502V1.53H30.4802V0H25.9102V1.53H27.4302V3.05Z" fill="#BFFB4F"/>
<path d="M28.9502 10.67H25.9102V12.19H28.9502V10.67Z" fill="#BFFB4F"/>
<path d="M27.4299 4.56995H25.9099V6.09995H24.3799V7.61995H27.4299V4.56995Z" fill="#BFFB4F"/>
<path d="M25.9099 1.53003H24.3799V4.57003H25.9099V1.53003Z" fill="#BFFB4F"/>
<path d="M24.3799 19.8101H22.8599V24.3801H24.3799V19.8101Z" fill="#BFFB4F"/>
<path d="M24.3799 13.72H22.8599V15.24H24.3799V13.72Z" fill="#BFFB4F"/>
<path d="M24.3799 7.62H22.8599V9.14999H24.3799V7.62Z" fill="#BFFB4F"/>
<path d="M21.3401 22.86H16.7601V24.38H15.2401V22.86H10.6701V24.38H9.15012V25.91H7.62012V28.96H9.15012V30.48H10.6701V32H21.3401V30.48H22.8601V28.96H24.3801V25.91H22.8601V24.38H21.3401V22.86ZM19.8101 27.43H18.2901V28.96H13.7201V27.43H12.1901V25.91H15.2401V27.43H16.7601V25.91H19.8101V27.43Z" fill="#BFFB4F"/>
<path d="M21.3401 16.76H19.8101V18.29H21.3401V16.76Z" fill="#BFFB4F"/>
<path d="M22.8601 6.09998H19.8101V7.61998H22.8601V6.09998Z" fill="#BFFB4F"/>
<path d="M19.81 18.29H18.29V19.81H19.81V18.29Z" fill="#BFFB4F"/>
<path d="M19.8099 4.56995H12.1899V6.09995H19.8099V4.56995Z" fill="#BFFB4F"/>
<path d="M13.7199 18.29H12.1899V19.81H13.7199V18.29Z" fill="#BFFB4F"/>
<path d="M12.1899 16.76H10.6699V18.29H12.1899V16.76Z" fill="#BFFB4F"/>
<path d="M12.1899 6.09998H9.1499V7.61998H12.1899V6.09998Z" fill="#BFFB4F"/>
<path d="M9.15012 19.8101H7.62012V24.3801H9.15012V19.8101Z" fill="#BFFB4F"/>
<path d="M9.15012 7.62H7.62012V9.14999H9.15012V7.62Z" fill="#BFFB4F"/>
<path d="M7.61979 15.24H1.52979V16.76H6.09978V19.81H7.61979V15.24Z" fill="#BFFB4F"/>
<path d="M7.6201 1.53003H6.1001V4.57003H7.6201V1.53003Z" fill="#BFFB4F"/>
<path d="M6.0998 10.67H3.0498V12.19H6.0998V10.67Z" fill="#BFFB4F"/>
<path d="M4.56982 7.61995H7.61982V6.09995H6.09982V4.56995H4.56982V7.61995Z" fill="#BFFB4F"/>
<path d="M4.56979 1.53H6.09978V0H1.52979V1.53H3.04979V3.05H4.56979V1.53Z" fill="#BFFB4F"/>
<path d="M3.04979 12.1899H1.52979V13.7199H3.04979V12.1899Z" fill="#BFFB4F"/>
<path d="M3.04979 9.15002H1.52979V10.67H3.04979V9.15002Z" fill="#BFFB4F"/>
<path d="M3.04979 3.05005H1.52979V4.57005H3.04979V3.05005Z" fill="#BFFB4F"/>
<path d="M1.53 13.72H0V15.24H1.53V13.72Z" fill="#BFFB4F"/>
<path d="M1.53 4.56995H0V9.14995H1.53V4.56995Z" fill="#BFFB4F"/>
</g>
<defs>
<clipPath id="clip0_1178_15390">
<rect width="32" height="32" fill="white"/>
</clipPath>
</defs>
</svg>
