<svg width="32" height="32" viewBox="0 0 32 32" fill="none" xmlns="http://www.w3.org/2000/svg">
<g clip-path="url(#clip0_1178_15328)">
<path d="M30.4799 1.53003V3.05003H25.9099V4.57003H24.3799V6.10003H22.8599V9.15003H24.3799V13.72H25.9099V9.15003H27.4299V7.62003H30.4799V6.10003H31.9999V1.53003H30.4799Z" fill="#BFFB4F"/>
<path d="M30.4802 19.8101H28.9502V25.9101H30.4802V19.8101Z" fill="#BFFB4F"/>
<path d="M28.9502 25.91H27.4302V27.43H28.9502V25.91Z" fill="#BFFB4F"/>
<path d="M28.9502 16.76H27.4302V19.81H28.9502V16.76Z" fill="#BFFB4F"/>
<path d="M27.4302 27.4301H25.9102V28.9601H27.4302V27.4301Z" fill="#BFFB4F"/>
<path d="M27.4302 13.72H25.9102V16.76H27.4302V13.72Z" fill="#BFFB4F"/>
<path d="M30.4799 0H24.3799V1.53H30.4799V0Z" fill="#BFFB4F"/>
<path d="M25.9099 28.96H22.8599V30.48H25.9099V28.96Z" fill="#BFFB4F"/>
<path d="M25.9098 19.8101H21.3398V21.3401H25.9098V19.8101Z" fill="#BFFB4F"/>
<path d="M24.3799 1.53003H22.8599V3.05003H24.3799V1.53003Z" fill="#BFFB4F"/>
<path d="M24.3798 22.86H21.3398V24.38H24.3798V22.86Z" fill="#BFFB4F"/>
<path d="M22.8598 15.24H21.3398V16.76H22.8598V15.24Z" fill="#BFFB4F"/>
<path d="M22.8598 3.05005H21.3398V4.57005H22.8598V3.05005Z" fill="#BFFB4F"/>
<path d="M22.8599 30.48H9.1499V32H22.8599V30.48Z" fill="#BFFB4F"/>
<path d="M21.3401 4.56995H19.8101V9.14995H21.3401V4.56995Z" fill="#BFFB4F"/>
<path d="M13.7202 18.29V19.81H15.2402V21.34H16.7602V19.81H18.2902V18.29H13.7202Z" fill="#BFFB4F"/>
<path d="M19.8099 9.15002H12.1899V10.67H19.8099V9.15002Z" fill="#BFFB4F"/>
<path d="M12.1899 4.56995H10.6699V9.14995H12.1899V4.56995Z" fill="#BFFB4F"/>
<path d="M10.6699 15.24H9.1499V16.76H10.6699V15.24Z" fill="#BFFB4F"/>
<path d="M10.6699 3.05005H9.1499V4.57005H10.6699V3.05005Z" fill="#BFFB4F"/>
<path d="M9.1501 28.96H6.1001V30.48H9.1501V28.96Z" fill="#BFFB4F"/>
<path d="M10.6701 22.86H7.62012V24.38H10.6701V22.86Z" fill="#BFFB4F"/>
<path d="M10.6701 19.8101H6.1001V21.3401H10.6701V19.8101Z" fill="#BFFB4F"/>
<path d="M9.15012 1.53003H7.62012V3.05003H9.15012V1.53003Z" fill="#BFFB4F"/>
<path d="M7.62 9.15003H9.15V6.10003H7.62V4.57003H6.1V3.05003H1.53V1.53003H0V6.10003H1.53V7.62003H4.57V9.15003H6.1V13.72H7.62V9.15003Z" fill="#BFFB4F"/>
<path d="M6.09982 27.4301H4.56982V28.9601H6.09982V27.4301Z" fill="#BFFB4F"/>
<path d="M6.09982 13.72H4.56982V16.76H6.09982V13.72Z" fill="#BFFB4F"/>
<path d="M4.5698 25.91H3.0498V27.43H4.5698V25.91Z" fill="#BFFB4F"/>
<path d="M4.5698 16.76H3.0498V19.81H4.5698V16.76Z" fill="#BFFB4F"/>
<path d="M7.61979 0H1.52979V1.53H7.61979V0Z" fill="#BFFB4F"/>
<path d="M3.04979 19.8101H1.52979V25.9101H3.04979V19.8101Z" fill="#BFFB4F"/>
</g>
<defs>
<clipPath id="clip0_1178_15328">
<rect width="32" height="32" fill="white"/>
</clipPath>
</defs>
</svg>
