<svg width="32" height="32" viewBox="0 0 32 32" fill="none" xmlns="http://www.w3.org/2000/svg">
<g clip-path="url(#clip0_1178_15714)">
<path d="M31.24 24.38H29.71V25.9H31.24V24.38Z" fill="#BFFB4F"/>
<path d="M31.24 18.28H29.71V19.81H31.24V18.28Z" fill="#BFFB4F"/>
<path d="M31.24 12.19H29.71V13.71H31.24V12.19Z" fill="#BFFB4F"/>
<path d="M31.24 6.09003H29.71V7.62003H31.24V6.09003Z" fill="#BFFB4F"/>
<path d="M29.7099 22.85H28.1899V24.38H29.7099V22.85Z" fill="#BFFB4F"/>
<path d="M29.7099 19.81H28.1899V21.33H29.7099V19.81Z" fill="#BFFB4F"/>
<path d="M29.7099 16.76H28.1899V18.28H29.7099V16.76Z" fill="#BFFB4F"/>
<path d="M29.7099 13.71H28.1899V15.23H29.7099V13.71Z" fill="#BFFB4F"/>
<path d="M29.7099 10.66H28.1899V12.19H29.7099V10.66Z" fill="#BFFB4F"/>
<path d="M29.7099 7.62H28.1899V9.14H29.7099V7.62Z" fill="#BFFB4F"/>
<path d="M28.1897 21.33H26.6597V22.85H28.1897V21.33Z" fill="#BFFB4F"/>
<path d="M28.1897 15.23H26.6597V16.76H28.1897V15.23Z" fill="#BFFB4F"/>
<path d="M28.1897 9.14001H26.6597V10.66H28.1897V9.14001Z" fill="#BFFB4F"/>
<path d="M8.37961 32H23.6196V30.47H25.1396V1.52H23.6196V0H8.37961V1.52H6.84961V30.47H8.37961V32ZM15.9996 1.52H19.0396V3.04H15.9996V1.52ZM12.9496 1.52H14.4696V3.04H12.9496V1.52ZM8.37961 3.04H11.4296V4.57H20.5696V3.04H23.6196V28.95H8.37961V3.04Z" fill="#BFFB4F"/>
<path d="M22.0898 19.81H20.5698V21.33H22.0898V19.81Z" fill="#BFFB4F"/>
<path d="M20.5695 15.23H19.0396V16.76H20.5695V15.23Z" fill="#BFFB4F"/>
<path d="M20.5695 12.19H19.0396V13.71H20.5695V12.19Z" fill="#BFFB4F"/>
<path d="M20.5695 21.33H17.5195V22.85H20.5695V21.33Z" fill="#BFFB4F"/>
<path d="M19.0395 13.71H17.5195V15.23H19.0395V13.71Z" fill="#BFFB4F"/>
<path d="M17.5197 19.81H14.4697V21.33H17.5197V19.81Z" fill="#BFFB4F"/>
<path d="M14.4697 13.71H12.9497V15.23H14.4697V13.71Z" fill="#BFFB4F"/>
<path d="M14.4697 21.33H11.4297V22.85H14.4697V21.33Z" fill="#BFFB4F"/>
<path d="M12.9497 15.23H11.4297V16.76H12.9497V15.23Z" fill="#BFFB4F"/>
<path d="M12.9497 12.19H11.4297V13.71H12.9497V12.19Z" fill="#BFFB4F"/>
<path d="M11.4299 19.81H9.8999V21.33H11.4299V19.81Z" fill="#BFFB4F"/>
<path d="M5.32957 21.33H3.80957V22.85H5.32957V21.33Z" fill="#BFFB4F"/>
<path d="M5.32957 15.23H3.80957V16.76H5.32957V15.23Z" fill="#BFFB4F"/>
<path d="M5.32957 9.14001H3.80957V10.66H5.32957V9.14001Z" fill="#BFFB4F"/>
<path d="M3.80979 22.85H2.27979V24.38H3.80979V22.85Z" fill="#BFFB4F"/>
<path d="M3.80979 19.81H2.27979V21.33H3.80979V19.81Z" fill="#BFFB4F"/>
<path d="M3.80979 16.76H2.27979V18.28H3.80979V16.76Z" fill="#BFFB4F"/>
<path d="M3.80979 13.71H2.27979V15.23H3.80979V13.71Z" fill="#BFFB4F"/>
<path d="M3.80979 10.66H2.27979V12.19H3.80979V10.66Z" fill="#BFFB4F"/>
<path d="M3.80979 7.62H2.27979V9.14H3.80979V7.62Z" fill="#BFFB4F"/>
<path d="M2.27977 24.38H0.759766V25.9H2.27977V24.38Z" fill="#BFFB4F"/>
<path d="M2.27977 18.28H0.759766V19.81H2.27977V18.28Z" fill="#BFFB4F"/>
<path d="M2.27977 12.19H0.759766V13.71H2.27977V12.19Z" fill="#BFFB4F"/>
<path d="M2.27977 6.09003H0.759766V7.62003H2.27977V6.09003Z" fill="#BFFB4F"/>
</g>
<defs>
<clipPath id="clip0_1178_15714">
<rect width="32" height="32" fill="white"/>
</clipPath>
</defs>
</svg>
