<svg width="32" height="32" viewBox="0 0 32 32" fill="none" xmlns="http://www.w3.org/2000/svg">
<path d="M27.4249 6.09H25.9049V4.57H24.3849V3.04H22.8549V1.52H21.3349V0H3.04492V32H28.9549V7.62H27.4249V6.09ZM27.4249 30.47H4.57492V1.52H19.8049V9.14H27.4249V30.47Z" fill="#000001"/>
<path d="M19.805 19.81V18.28H18.285V19.81H9.14497V18.28H7.61497V7.62H6.09497V24.38H7.61497V21.33H24.385V24.38H25.905V10.66H24.385V18.28H22.855V19.81H19.805Z" fill="#000001"/>
<path d="M24.385 24.38H7.61499V25.9H24.385V24.38Z" fill="#000001"/>
<path d="M22.855 16.76H21.335V18.28H22.855V16.76Z" fill="#000001"/>
<path d="M21.3349 15.24H18.2849V16.76H21.3349V15.24Z" fill="#000001"/>
<path d="M18.2849 16.76H16.7649V18.28H18.2849V16.76Z" fill="#000001"/>
<path d="M16.7649 15.24H15.2349V16.76H16.7649V15.24Z" fill="#000001"/>
<path d="M15.2348 13.71H12.1948V15.24H15.2348V13.71Z" fill="#000001"/>
<path d="M12.195 15.24H10.665V16.76H12.195V15.24Z" fill="#000001"/>
<path d="M10.665 16.76H9.14502V18.28H10.665V16.76Z" fill="#000001"/>
<path d="M12.195 9.14001H9.14502V12.19H12.195V9.14001Z" fill="#000001"/>
<path d="M16.765 6.08997H7.61499V7.61997H16.765V6.08997Z" fill="#000001"/>
</svg>
