<svg width="32" height="32" viewBox="0 0 32 32" fill="none" xmlns="http://www.w3.org/2000/svg">
<g clip-path="url(#clip0_1178_18769)">
<path d="M22.86 19.8099V6.08995H21.34V4.56995H16.77V6.08995H15.24V19.8099H12.19V7.61995H10.67V6.08995H6.1V7.61995H4.58V19.8099H0V31.9999H32V19.8099H22.86ZM16.77 9.13995H21.34V10.6599H16.77V9.13995ZM16.77 12.1899H21.34V19.8099H16.77V12.1899ZM6.1 10.6599H10.67V12.1899H6.1V10.6599ZM6.1 13.7099H10.67V19.8099H6.1V13.7099ZM7.62 30.4699H1.53V21.3299H7.62V30.4699ZM30.48 30.4699H9.15V21.3299H30.48V30.4699Z" fill="#BFFB4F"/>
<path d="M28.9599 22.85H22.8599V28.95H28.9599V22.85ZM27.4299 25.9H25.9099V27.43H24.3899V24.38H27.4299V25.9Z" fill="#BFFB4F"/>
<path d="M25.9101 0H24.3901V1.52H25.9101V0Z" fill="#BFFB4F"/>
<path d="M24.3899 1.52002H22.8599V3.04002H24.3899V1.52002Z" fill="#BFFB4F"/>
<path d="M22.8601 0H19.8101V1.52H22.8601V0Z" fill="#BFFB4F"/>
<path d="M21.3399 22.85H10.6699V28.95H21.3399V22.85ZM15.2399 25.9H13.7199V27.43H12.1899V24.38H15.2399V25.9ZM19.8099 25.9H18.2899V27.43H16.7699V24.38H19.8099V25.9Z" fill="#BFFB4F"/>
<path d="M19.81 1.52002H18.29V3.04002H19.81V1.52002Z" fill="#BFFB4F"/>
<path d="M15.2402 1.52002H13.7202V3.04002H15.2402V1.52002Z" fill="#BFFB4F"/>
<path d="M13.7199 3.04004H10.6699V4.57004H13.7199V3.04004Z" fill="#BFFB4F"/>
<path d="M10.6699 1.52002H9.1499V3.04002H10.6699V1.52002Z" fill="#BFFB4F"/>
<path d="M9.15012 3.04004H7.62012V4.57004H9.15012V3.04004Z" fill="#BFFB4F"/>
</g>
<defs>
<clipPath id="clip0_1178_18769">
<rect width="32" height="32" fill="white"/>
</clipPath>
</defs>
</svg>
