<svg width="32" height="32" viewBox="0 0 32 32" fill="none" xmlns="http://www.w3.org/2000/svg">
<path d="M24.3804 3.04498H22.8604V12.195H24.3804V3.04498Z" fill="#BFFB4F"/>
<path d="M22.8603 12.195H21.3403V15.235H22.8603V12.195Z" fill="#BFFB4F"/>
<path d="M21.3401 15.235H19.8101V16.765H21.3401V15.235Z" fill="#BFFB4F"/>
<path d="M12.1899 16.765V18.285H15.2399V24.385H10.6699V25.905H9.1499V28.955H10.6699V30.475H21.3399V28.955H22.8599V25.905H21.3399V24.385H16.7599V18.285H19.8099V16.765H12.1899Z" fill="#BFFB4F"/>
<path d="M16.7602 9.14499H15.2402V10.665H16.7602V9.14499Z" fill="#BFFB4F"/>
<path d="M15.2402 6.09498H13.7202V7.62498H16.7602V9.14498H18.2902V6.09498H16.7602V4.57498H15.2402V6.09498Z" fill="#BFFB4F"/>
<path d="M15.2402 10.665H13.7202V12.195H15.2402V10.665Z" fill="#BFFB4F"/>
<path d="M12.1899 15.235H10.6699V16.765H12.1899V15.235Z" fill="#BFFB4F"/>
<path d="M16.7599 3.04499V4.57499H18.2899V3.04499H22.8599V1.52499H9.1499V3.04499H16.7599Z" fill="#BFFB4F"/>
<path d="M10.6699 12.195H9.1499V15.235H10.6699V12.195Z" fill="#BFFB4F"/>
<path d="M9.15012 3.04498H7.62012V12.195H9.15012V3.04498Z" fill="#BFFB4F"/>
</svg>
