<svg width="32" height="32" viewBox="0 0 32 32" fill="none" xmlns="http://www.w3.org/2000/svg">
<g clip-path="url(#clip0_1178_18544)">
<path d="M32 10.67H30.48V12.19H32V10.67Z" fill="#BFFB4F"/>
<path d="M32 6.10001H30.48V7.62001H32V6.10001Z" fill="#BFFB4F"/>
<path d="M30.4802 7.62H28.9502V9.14999H30.4802V7.62Z" fill="#BFFB4F"/>
<path d="M30.4802 4.57001H28.9502V6.10001H30.4802V4.57001Z" fill="#BFFB4F"/>
<path d="M27.4298 16.76H4.5698V13.72H3.0498V18.29H4.5698V27.43H6.0998V25.91H9.1498V30.48H7.6198V27.43H6.0998V32H25.9098V27.43H24.3798V30.48H22.8598V25.91H25.9098V27.43H27.4298V18.29H28.9498V13.72H27.4298V16.76ZM9.1498 24.38H6.0998V21.34H9.1498V24.38ZM9.1498 19.81H6.0998V18.29H9.1498V19.81ZM13.7198 30.48H10.6698V25.91H13.7198V30.48ZM13.7198 24.38H10.6698V21.34H13.7198V24.38ZM13.7198 19.81H10.6698V18.29H13.7198V19.81ZM21.3398 30.48H18.2898V25.91H21.3398V30.48ZM21.3398 24.38H18.2898V21.34H21.3398V24.38ZM21.3398 19.81H18.2898V18.29H21.3398V19.81ZM25.9098 24.38H22.8598V21.34H25.9098V24.38ZM25.9098 19.81H22.8598V18.29H25.9098V19.81Z" fill="#BFFB4F"/>
<path d="M28.9502 6.10001H27.4302V7.62001H28.9502V6.10001Z" fill="#BFFB4F"/>
<path d="M25.9099 7.62H24.3799V10.67H25.9099V7.62Z" fill="#BFFB4F"/>
<path d="M27.4299 0H24.3799V1.53H22.8599V4.57H24.3799V3.05H25.9099V1.53H27.4299V0Z" fill="#BFFB4F"/>
<path d="M24.3801 6.10001H19.8101V7.62001H24.3801V6.10001Z" fill="#BFFB4F"/>
<path d="M19.81 7.62H18.29V9.14999H19.81V7.62Z" fill="#BFFB4F"/>
<path d="M19.81 3.04999H18.29V4.56999H19.81V3.04999Z" fill="#BFFB4F"/>
<path d="M16.7602 7.62H15.2402V9.14999H16.7602V7.62Z" fill="#BFFB4F"/>
<path d="M13.7199 7.62H12.1899V9.14999H13.7199V7.62Z" fill="#BFFB4F"/>
<path d="M12.1899 1.53H10.6699V3.05H12.1899V1.53Z" fill="#BFFB4F"/>
<path d="M12.1901 6.10001H7.62012V7.62001H12.1901V6.10001Z" fill="#BFFB4F"/>
<path d="M24.3798 12.19V10.67H22.8598V12.19H21.3398V10.67H22.8598V9.14999H19.8098V10.67H18.2898V9.14999H16.7598V12.19H15.2398V9.14999H13.7198V10.67H12.1898V9.14999H9.14982V10.67H10.6698V12.19H9.14982V10.67H7.61982V12.19H4.56982V13.72H27.4298V12.19H24.3798Z" fill="#BFFB4F"/>
<path d="M7.6201 7.62H6.1001V10.67H7.6201V7.62Z" fill="#BFFB4F"/>
<path d="M4.5698 7.62H3.0498V9.14999H4.5698V7.62Z" fill="#BFFB4F"/>
<path d="M3.04979 0V1.53H1.52979V3.05H3.04979V4.57H4.56979V3.05H6.09978V1.53H4.56979V0H3.04979Z" fill="#BFFB4F"/>
<path d="M3.04979 9.14999H1.52979V10.67H3.04979V9.14999Z" fill="#BFFB4F"/>
<path d="M3.04979 6.10001H1.52979V7.62001H3.04979V6.10001Z" fill="#BFFB4F"/>
<path d="M1.53 7.62H0V9.14999H1.53V7.62Z" fill="#BFFB4F"/>
</g>
<defs>
<clipPath id="clip0_1178_18544">
<rect width="32" height="32" fill="white"/>
</clipPath>
</defs>
</svg>
