<svg width="32" height="32" viewBox="0 0 32 32" fill="none" xmlns="http://www.w3.org/2000/svg">
<g clip-path="url(#clip0_1178_17004)">
<path d="M32 18.29H30.48V22.86H32V18.29Z" fill="#BFFB4F"/>
<path d="M30.48 16.76H28.96V18.29H30.48V16.76Z" fill="#BFFB4F"/>
<path d="M28.9601 19.81H27.4301V22.86H18.2901V19.81H16.7701V21.34H15.2401V18.29H13.7201V21.34H10.6701V22.86H6.1001V24.38H10.6701V25.91H12.1901V24.38H18.2901V25.91H19.8101V24.38H27.4301V25.91H28.9601V24.38H30.4801V22.86H28.9601V19.81Z" fill="#BFFB4F"/>
<path d="M27.4302 25.91H25.9102V27.43H27.4302V25.91Z" fill="#BFFB4F"/>
<path d="M27.4302 18.29H25.9102V19.81H27.4302V18.29Z" fill="#BFFB4F"/>
<path d="M25.9098 27.4301H21.3398V28.9501H25.9098V27.4301Z" fill="#BFFB4F"/>
<path d="M24.3898 19.8101H21.3398V21.3401H24.3898V19.8101Z" fill="#BFFB4F"/>
<path d="M25.9101 16.76H19.8101V18.29H25.9101V16.76Z" fill="#BFFB4F"/>
<path d="M21.3401 25.91H19.8101V27.43H21.3401V25.91Z" fill="#BFFB4F"/>
<path d="M19.81 18.29H18.29V19.81H19.81V18.29Z" fill="#BFFB4F"/>
<path d="M16.7702 15.24H27.4302V16.76H28.9602V15.24H30.4802V12.19H28.9602V10.67H15.2402V12.19H13.7202V15.24H15.2402V18.29H16.7702V15.24Z" fill="#BFFB4F"/>
<path d="M10.6699 25.91H9.1499V27.43H10.6699V25.91Z" fill="#BFFB4F"/>
<path d="M9.15012 18.29H7.62012V19.81H9.15012V21.34H10.6701V9.14001H9.15012V18.29Z" fill="#BFFB4F"/>
<path d="M9.1501 7.62005H10.6701V9.14005H12.1901V7.62005H15.2401V6.10005H12.1901V4.57005H10.6701V3.05005H6.1001V4.57005H9.1501V7.62005Z" fill="#BFFB4F"/>
<path d="M9.15008 27.4301H4.58008V28.9501H9.15008V27.4301Z" fill="#BFFB4F"/>
<path d="M7.6198 6.1001H6.0998V9.1401H3.0498V10.6701H6.0998V12.1901H7.6198V6.1001Z" fill="#BFFB4F"/>
<path d="M6.10008 12.1901H4.58008V15.2401H6.10008V12.1901Z" fill="#BFFB4F"/>
<path d="M6.0998 4.57007H3.0498V6.10007H6.0998V4.57007Z" fill="#BFFB4F"/>
<path d="M4.5798 25.91H3.0498V27.43H4.5798V25.91Z" fill="#BFFB4F"/>
<path d="M7.61979 18.29V16.76H4.57979V15.24H3.04979V16.76H1.52979V18.29H7.61979Z" fill="#BFFB4F"/>
<path d="M6.1 22.86V21.34H1.53V18.29H0V22.86H1.53V25.91H3.05V22.86H6.1Z" fill="#BFFB4F"/>
<path d="M3.04979 6.1001H1.52979V9.1401H3.04979V6.1001Z" fill="#BFFB4F"/>
</g>
<defs>
<clipPath id="clip0_1178_17004">
<rect width="32" height="32" fill="white"/>
</clipPath>
</defs>
</svg>
