<svg width="32" height="32" viewBox="0 0 32 32" fill="none" xmlns="http://www.w3.org/2000/svg">
<g clip-path="url(#clip0_1178_16648)">
<path d="M30.4702 12.19H28.9502V15.24H27.4302V16.76H28.9502V19.81H30.4702V16.76H32.0002V15.24H30.4702V12.19Z" fill="#BFFB4F"/>
<path d="M28.9502 19.81H27.4302V22.86H28.9502V19.81Z" fill="#BFFB4F"/>
<path d="M28.9502 9.14001H27.4302V12.19H28.9502V9.14001Z" fill="#BFFB4F"/>
<path d="M27.4299 22.86H25.8999V25.9H27.4299V22.86Z" fill="#BFFB4F"/>
<path d="M27.4299 6.09003H25.8999V9.14003H27.4299V6.09003Z" fill="#BFFB4F"/>
<path d="M24.3801 24.38H22.8501V27.43H25.9001V25.9H24.3801V24.38Z" fill="#BFFB4F"/>
<path d="M25.9001 4.57001H22.8501V6.09001H25.9001V4.57001Z" fill="#BFFB4F"/>
<path d="M22.8501 27.43H19.8101V28.95H22.8501V27.43Z" fill="#BFFB4F"/>
<path d="M22.8501 22.86H19.8101V24.38H22.8501V22.86Z" fill="#BFFB4F"/>
<path d="M21.3301 19.81H19.8101V21.33H21.3301V19.81Z" fill="#BFFB4F"/>
<path d="M22.8501 3.04999H19.8101V4.56999H22.8501V3.04999Z" fill="#BFFB4F"/>
<path d="M19.8098 13.71H18.2798V16.76H19.8098V13.71Z" fill="#BFFB4F"/>
<path d="M16.7599 27.43H15.2299V28.95H12.1899V30.48H15.2299V32H16.7599V30.48H19.8099V28.95H16.7599V27.43Z" fill="#BFFB4F"/>
<path d="M19.8099 21.33H12.1899V22.86H19.8099V21.33Z" fill="#BFFB4F"/>
<path d="M18.28 18.28H13.71V19.81H18.28V18.28Z" fill="#BFFB4F"/>
<path d="M15.2299 4.57H16.7599V3.05H19.8099V1.52H16.7599V0H15.2299V1.52H12.1899V3.05H15.2299V4.57Z" fill="#BFFB4F"/>
<path d="M13.7099 13.71H12.1899V16.76H13.7099V13.71Z" fill="#BFFB4F"/>
<path d="M12.1901 27.43H9.14014V28.95H12.1901V27.43Z" fill="#BFFB4F"/>
<path d="M12.1901 22.86H9.14014V24.38H12.1901V22.86Z" fill="#BFFB4F"/>
<path d="M12.1902 19.81H10.6602V21.33H12.1902V19.81Z" fill="#BFFB4F"/>
<path d="M12.1901 3.04999H9.14014V4.56999H12.1901V3.04999Z" fill="#BFFB4F"/>
<path d="M10.6601 12.19H12.1901V10.67H19.8101V12.19H21.3301V19.81H22.8501V9.14003H21.3301V7.62003H19.8101V6.09003H12.1901V7.62003H10.6601V9.14003H9.14014V19.81H10.6601V12.19Z" fill="#BFFB4F"/>
<path d="M7.61984 24.38V25.9H6.08984V27.43H9.13984V24.38H7.61984Z" fill="#BFFB4F"/>
<path d="M9.13984 4.57001H6.08984V6.09001H9.13984V4.57001Z" fill="#BFFB4F"/>
<path d="M6.08982 22.86H4.56982V25.9H6.08982V22.86Z" fill="#BFFB4F"/>
<path d="M6.08982 6.09003H4.56982V9.14003H6.08982V6.09003Z" fill="#BFFB4F"/>
<path d="M4.57004 19.81H3.04004V22.86H4.57004V19.81Z" fill="#BFFB4F"/>
<path d="M4.57004 9.14001H3.04004V12.19H4.57004V9.14001Z" fill="#BFFB4F"/>
<path d="M4.57 16.76V15.24H3.04V12.19H1.52V15.24H0V16.76H1.52V19.81H3.04V16.76H4.57Z" fill="#BFFB4F"/>
</g>
<defs>
<clipPath id="clip0_1178_16648">
<rect width="32" height="32" fill="white"/>
</clipPath>
</defs>
</svg>
