<svg width="32" height="32" viewBox="0 0 32 32" fill="none" xmlns="http://www.w3.org/2000/svg">
<g clip-path="url(#clip0_1135_4630)">
<path d="M31.24 3.05005H29.71V28.9501H31.24V3.05005Z" fill="#000001"/>
<path d="M29.7099 28.95H28.1899V30.4699H29.7099V28.95Z" fill="#000001"/>
<path d="M29.7099 1.52002H28.1899V3.05002H29.7099V1.52002Z" fill="#000001"/>
<path d="M28.1901 30.47H3.81006V32H28.1901V30.47Z" fill="#000001"/>
<path d="M26.6599 24.38H25.1399V25.9H26.6599V24.38Z" fill="#000001"/>
<path d="M25.1401 25.9H23.6201V27.43H25.1401V25.9Z" fill="#000001"/>
<path d="M25.1401 22.85H23.6201V24.38H25.1401V22.85Z" fill="#000001"/>
<path d="M9.90008 19.81H11.4301V18.28H26.6601V16.76H11.4301V15.24H9.90008V16.76H5.33008V18.28H9.90008V19.81Z" fill="#000001"/>
<path d="M26.6601 12.1899H23.6201V13.7099H26.6601V12.1899Z" fill="#000001"/>
<path d="M26.6601 9.14001H23.6201V10.66H26.6601V9.14001Z" fill="#000001"/>
<path d="M23.6201 27.4301H22.0901V28.9501H23.6201V27.4301Z" fill="#000001"/>
<path d="M23.6201 21.33H22.0901V22.85H23.6201V21.33Z" fill="#000001"/>
<path d="M20.57 12.1899H17.52V13.7099H20.57V12.1899Z" fill="#000001"/>
<path d="M20.57 9.14001H17.52V10.66H20.57V9.14001Z" fill="#000001"/>
<path d="M20.57 6.08997H17.52V7.61997H20.57V6.08997Z" fill="#000001"/>
<path d="M17.52 22.85H16V21.33H14.47V28.95H16V27.43H17.52V25.9H19.05V24.38H17.52V22.85Z" fill="#000001"/>
<path d="M14.4699 12.1899H11.4299V13.7099H14.4699V12.1899Z" fill="#000001"/>
<path d="M14.4699 9.14001H11.4299V10.66H14.4699V9.14001Z" fill="#000001"/>
<path d="M14.4699 6.08997H11.4299V7.61997H14.4699V6.08997Z" fill="#000001"/>
<path d="M14.4699 3.05005H11.4299V4.57005H14.4699V3.05005Z" fill="#000001"/>
<path d="M9.90013 27.4301H8.38013V28.9501H9.90013V27.4301Z" fill="#000001"/>
<path d="M9.90013 21.33H8.38013V22.85H9.90013V21.33Z" fill="#000001"/>
<path d="M8.3801 25.9H6.8501V27.43H8.3801V25.9Z" fill="#000001"/>
<path d="M8.3801 22.85H6.8501V24.38H8.3801V22.85Z" fill="#000001"/>
<path d="M8.38008 12.1899H5.33008V13.7099H8.38008V12.1899Z" fill="#000001"/>
<path d="M8.38008 9.14001H5.33008V10.66H8.38008V9.14001Z" fill="#000001"/>
<path d="M6.85008 24.38H5.33008V25.9H6.85008V24.38Z" fill="#000001"/>
<path d="M28.1901 0H3.81006V1.52H28.1901V0Z" fill="#000001"/>
<path d="M3.81003 28.95H2.28003V30.4699H3.81003V28.95Z" fill="#000001"/>
<path d="M3.81003 1.52002H2.28003V3.05002H3.81003V1.52002Z" fill="#000001"/>
<path d="M2.28001 3.05005H0.76001V28.9501H2.28001V3.05005Z" fill="#000001"/>
</g>
<defs>
<clipPath id="clip0_1135_4630">
<rect width="32" height="32" fill="white"/>
</clipPath>
</defs>
</svg>
