<svg width="32" height="32" viewBox="0 0 32 32" fill="none" xmlns="http://www.w3.org/2000/svg">
<g clip-path="url(#clip0_1178_15681)">
<path d="M31.2353 4.57001H29.7153V9.14001H31.2353V4.57001Z" fill="#BFFB4F"/>
<path d="M29.7153 19.8H28.1953V28.95H29.7153V19.8Z" fill="#BFFB4F"/>
<path d="M29.7153 3.03998H28.1953V4.56998H29.7153V3.03998Z" fill="#BFFB4F"/>
<path d="M28.195 28.95H26.665V30.47H28.195V28.95Z" fill="#BFFB4F"/>
<path d="M28.195 16.76H26.665V19.8H28.195V16.76Z" fill="#BFFB4F"/>
<path d="M29.715 9.14001H25.145V10.66H29.715V9.14001Z" fill="#BFFB4F"/>
<path d="M28.195 1.52002H26.665V3.04002H28.195V1.52002Z" fill="#BFFB4F"/>
<path d="M26.665 15.23H25.145V16.76H26.665V15.23Z" fill="#BFFB4F"/>
<path d="M26.665 30.47H5.33496V32H26.665V30.47Z" fill="#BFFB4F"/>
<path d="M25.145 6.09003H23.625V9.14003H25.145V6.09003Z" fill="#BFFB4F"/>
<path d="M23.6253 4.57001H8.38525V6.09001H23.6253V4.57001Z" fill="#BFFB4F"/>
<path d="M22.0952 19.8H20.5752V25.9H22.0952V19.8Z" fill="#BFFB4F"/>
<path d="M20.5749 25.9H19.0449V27.42H20.5749V25.9Z" fill="#BFFB4F"/>
<path d="M20.5749 18.28H19.0449V19.8H20.5749V18.28Z" fill="#BFFB4F"/>
<path d="M19.0451 27.42H12.9551V28.95H19.0451V27.42Z" fill="#BFFB4F"/>
<path d="M17.5251 19.8H14.4751V21.33H12.9551V24.38H14.4751V25.9H17.5251V24.38H19.0451V21.33H17.5251V19.8Z" fill="#BFFB4F"/>
<path d="M19.0451 16.76H12.9551V18.28H19.0451V16.76Z" fill="#BFFB4F"/>
<path d="M12.9551 25.9H11.4351V27.42H12.9551V25.9Z" fill="#BFFB4F"/>
<path d="M12.9551 18.28H11.4351V19.8H12.9551V18.28Z" fill="#BFFB4F"/>
<path d="M11.4353 19.8H9.90527V25.9H11.4353V19.8Z" fill="#BFFB4F"/>
<path d="M9.90498 12.19H12.955V15.23H19.045V12.19H22.095V15.23H25.145V13.71H23.625V10.66H17.525V13.71H14.475V10.66H8.38498V13.71H6.85498V15.23H9.90498V12.19Z" fill="#BFFB4F"/>
<path d="M8.38498 6.09003H6.85498V9.14003H8.38498V6.09003Z" fill="#BFFB4F"/>
<path d="M26.665 0H5.33496V1.52H26.665V0Z" fill="#BFFB4F"/>
<path d="M6.85496 15.23H5.33496V16.76H6.85496V15.23Z" fill="#BFFB4F"/>
<path d="M5.33494 28.95H3.81494V30.47H5.33494V28.95Z" fill="#BFFB4F"/>
<path d="M5.33494 16.76H3.81494V19.8H5.33494V16.76Z" fill="#BFFB4F"/>
<path d="M6.85516 9.14001H2.28516V10.66H6.85516V9.14001Z" fill="#BFFB4F"/>
<path d="M5.33494 1.52002H3.81494V3.04002H5.33494V1.52002Z" fill="#BFFB4F"/>
<path d="M3.81516 19.8H2.28516V28.95H3.81516V19.8Z" fill="#BFFB4F"/>
<path d="M3.81516 3.03998H2.28516V4.56998H3.81516V3.03998Z" fill="#BFFB4F"/>
<path d="M2.28514 4.57001H0.765137V9.14001H2.28514V4.57001Z" fill="#BFFB4F"/>
</g>
<defs>
<clipPath id="clip0_1178_15681">
<rect width="32" height="32" fill="white"/>
</clipPath>
</defs>
</svg>
