<svg id="Layer_1" height="512" viewBox="0 0 500 500" width="512" xmlns="http://www.w3.org/2000/svg" xmlns:xlink="http://www.w3.org/1999/xlink" data-name="Layer 1"><linearGradient id="linear-gradient" gradientTransform="matrix(312.5 0 0 -104.17 145.83 52218.75)" gradientUnits="userSpaceOnUse" x1=".5" x2=".5" y1="499.51" y2="500.26"><stop offset="0" stop-color="#f7ae30"/><stop offset="1" stop-color="#ffca4f"/></linearGradient><linearGradient id="linear-gradient-2" gradientTransform="matrix(218.75 0 0 -104.17 145.83 52218.75)" gradientUnits="userSpaceOnUse" x1=".35" x2=".49" y1="499.43" y2="499.5"><stop offset="0" stop-color="#f4901f"/><stop offset=".2" stop-color="#f69c29" stop-opacity=".8"/><stop offset="1" stop-color="#ffca4f" stop-opacity="0"/></linearGradient><linearGradient id="linear-gradient-3" gradientTransform="matrix(312.5 0 0 -83.33 145.83 41822.92)" gradientUnits="userSpaceOnUse" x1=".5" x2=".5" y1="499.56" y2="499.96"><stop offset="0" stop-color="#f4901f"/><stop offset="1" stop-color="#ffca4f" stop-opacity="0"/></linearGradient><linearGradient id="linear-gradient-4" gradientTransform="matrix(333.33 0 0 -416.67 83.33 208354.16)" gradientUnits="userSpaceOnUse" x1=".5" x2=".5" y1="500" y2="499.02"><stop offset="0" stop-color="#eaecf7"/><stop offset="1" stop-color="#cdd3f1"/></linearGradient><linearGradient id="linear-gradient-5" gradientTransform="matrix(333.33 0 0 -354.17 83.33 177166.66)" gradientUnits="userSpaceOnUse" x1=".5" x2=".5" y1="499.9" y2="499.61"><stop offset="0" stop-color="#e2e5f4" stop-opacity="0"/><stop offset="1" stop-color="#9aa6e2"/></linearGradient><linearGradient id="linear-gradient-6" gradientTransform="matrix(458.33 0 0 -354.17 20.83 177208.34)" gradientUnits="userSpaceOnUse" x1=".5" x2=".5" y1="499.78" y2="499.01"><stop offset="0" stop-color="#ffca4f"/><stop offset="1" stop-color="#f7ae30"/></linearGradient><linearGradient id="linear-gradient-7" gradientTransform="matrix(458.33 0 0 -72.92 20.83 36864.59)" gradientUnits="userSpaceOnUse" x1=".5" x2=".5" y1="499.75" y2="499.15"><stop offset="0" stop-color="#ffca4f" stop-opacity="0"/><stop offset="1" stop-color="#f4901f"/></linearGradient><linearGradient id="linear-gradient-8" gradientTransform="matrix(83.33 0 0 -20.83 72.92 10750.01)" gradientUnits="userSpaceOnUse" x1=".5" x2=".5" y1="499.98" y2="498.83"><stop offset="0" stop-color="#e28b5a"/><stop offset="1" stop-color="#b35e3e"/></linearGradient><linearGradient id="linear-gradient-9" gradientTransform="matrix(177.08 0 0 -20.83 72.92 10802.07)" x1=".5" x2=".5" xlink:href="#linear-gradient-8" y1="499.96" y2="499"/><g id="FIle_Folder" data-name="FIle Folder"><g id="Group"><path id="Path" d="m458.33 239.58h-312.5v-104.16h291.67a20.89 20.89 0 0 1 20.83 20.83z" fill="url(#linear-gradient)"/><path id="Path-2" d="m364.58 239.58h-218.75v-104.16h83.34z" fill="url(#linear-gradient-2)" data-name="Path"/><path id="Rectangle" d="m145.83 156.25h312.5v83.33h-312.5z" fill="url(#linear-gradient-3)"/><path id="Path-3" d="m395.83 437.5h-291.66a20.89 20.89 0 0 1 -20.83-20.83v-375a20.89 20.89 0 0 1 20.83-20.83h250v41.66a20.89 20.89 0 0 0 20.83 20.83h41.67v333.34a20.89 20.89 0 0 1 -20.84 20.83z" fill="url(#linear-gradient-4)" data-name="Path"/><path id="Path-4" d="m83.33 83.33v333.34a20.89 20.89 0 0 0 20.83 20.83h291.67a20.89 20.89 0 0 0 20.83-20.83v-333.34z" fill="url(#linear-gradient-5)" data-name="Path"/><path id="Path-5" d="m416.67 83.33h-41.67a20.89 20.89 0 0 1 -20.83-20.83v-41.67z" fill="#9aa6e2" data-name="Path"/><path id="Path-6" d="m458.33 479.17h-416.66a20.89 20.89 0 0 1 -20.83-20.83v-312.51a20.89 20.89 0 0 1 20.83-20.83h86.46c4.17 0 9.38 1 12.5 4.17l71.88 54.17c3.13 3.13 8.33 4.17 12.5 4.17h233.32a20.89 20.89 0 0 1 20.83 20.83v250a20.89 20.89 0 0 1 -20.83 20.83z" fill="url(#linear-gradient-6)" data-name="Path"/><path id="Path-7" d="m20.83 406.25v52.08a20.89 20.89 0 0 0 20.83 20.83h416.67a20.89 20.89 0 0 0 20.83-20.83v-52.08z" fill="url(#linear-gradient-7)" data-name="Path"/><path id="Path-8" d="m145.83 354.17h-62.5c-6.25 0-10.42-4.17-10.42-10.42s4.17-10.42 10.42-10.42h62.5c6.25 0 10.42 4.17 10.42 10.42s-4.17 10.42-10.42 10.42z" fill="url(#linear-gradient-8)" data-name="Path"/><path id="Path-9" d="m239.58 406.25h-156.25c-6.25 0-10.42-4.17-10.42-10.42s4.17-10.42 10.42-10.42h156.25c6.25 0 10.42 4.17 10.42 10.42s-4.17 10.42-10.42 10.42z" fill="url(#linear-gradient-9)" data-name="Path"/></g></g></svg>