<svg id="Layer_1" height="512" viewBox="0 0 500 500" width="512" xmlns="http://www.w3.org/2000/svg" xmlns:xlink="http://www.w3.org/1999/xlink" data-name="Layer 1"><linearGradient id="linear-gradient" gradientTransform="matrix(333.33 0 0 -437.5 52.08 218770.83)" gradientUnits="userSpaceOnUse" x1=".5" x2=".5" y1="499.99" y2="499"><stop offset="0" stop-color="#eaecf7"/><stop offset="1" stop-color="#cdd3f1"/></linearGradient><linearGradient id="linear-gradient-2" gradientTransform="matrix(333.33 0 0 -83.33 52.08 42041.67)" gradientUnits="userSpaceOnUse" x1=".5" x2=".5" y1="499.83" y2="498.97"><stop offset="0" stop-color="#e2e5f4" stop-opacity="0"/><stop offset="1" stop-color="#9aa6e2"/></linearGradient><linearGradient id="linear-gradient-3" gradientTransform="matrix(166.67 0 0 -206.77 281.25 103657.82)" gradientUnits="userSpaceOnUse" x1=".5" x2=".5" y1="499.98" y2="499.02"><stop offset="0" stop-color="#36db39"/><stop offset="1" stop-color="#20b823"/></linearGradient><linearGradient id="linear-gradient-4" gradientTransform="matrix(94.02 0 0 -83.33 322.92 41989.57)" gradientUnits="userSpaceOnUse" x1=".5" x2=".5" y1="499.96" y2="498.92"><stop offset="0" stop-color="#20b823"/><stop offset="1" stop-color="#36db39" stop-opacity="0"/></linearGradient><linearGradient id="linear-gradient-5" gradientTransform="matrix(72.65 0 0 -62.23 333.33 31450.44)" x2=".5" xlink:href="#linear-gradient" y1="499.96" y2="498.92"/><linearGradient id="linear-gradient-6" gradientTransform="matrix(154.17 0 0 -63.54 287.5 32186.47)" gradientUnits="userSpaceOnUse" x1=".5" x2=".5" y1="499.97" y2="499.02"><stop offset="0" stop-color="#20b823" stop-opacity="0"/><stop offset="1" stop-color="#198f1b"/></linearGradient><g id="FIle_Protection" data-name="FIle Protection"><g id="Group"><path id="Path" d="m364.58 458.33h-291.66a20.89 20.89 0 0 1 -20.84-20.83v-395.83a20.89 20.89 0 0 1 20.84-20.84h250v41.67a20.89 20.89 0 0 0 20.83 20.83h41.67v354.17a20.89 20.89 0 0 1 -20.84 20.83z" fill="url(#linear-gradient)"/><path id="Path-2" d="m52.08 375v62.5a20.89 20.89 0 0 0 20.83 20.83h291.67a20.89 20.89 0 0 0 20.83-20.83v-62.5z" fill="url(#linear-gradient-2)" data-name="Path"/><g fill="#9aa6e2"><path id="Path-3" d="m385.42 83.33h-41.67a20.89 20.89 0 0 1 -20.83-20.83v-41.67z" data-name="Path"/><path id="Path-4" d="m218.75 156.25h-93.75c-6.25 0-10.42-4.17-10.42-10.42s4.17-10.42 10.42-10.42h93.75c6.25 0 10.42 4.17 10.42 10.42s-4.17 10.42-10.42 10.42z" data-name="Path"/><path id="Path-5" d="m312.5 208.33h-187.5c-6.25 0-10.42-4.17-10.42-10.42s4.17-10.41 10.42-10.41h187.5c6.25 0 10.42 4.17 10.42 10.42s-4.17 10.41-10.42 10.41z" data-name="Path"/><path id="Path-6" d="m270.83 260.42h-145.83c-6.25 0-10.42-4.17-10.42-10.42s4.17-10.42 10.42-10.42h145.83c6.25 0 10.42 4.17 10.42 10.42s-4.17 10.42-10.42 10.42z" data-name="Path"/></g><path id="Path-7" d="m364.58 479.17c-18.75-6.25-83.33-34.37-83.33-92.71v-69.79a21.36 21.36 0 0 1 13.54-19.79l62.5-22.88c4.17-2.08 9.38-2.08 14.58 0l62.5 22.92c8.33 3.13 13.54 10.42 13.54 19.79v69.79c.01 58.29-64.58 86.42-83.33 92.67z" fill="url(#linear-gradient-3)" data-name="Path"/><path id="Path-8" d="m364.58 406.25a20.57 20.57 0 0 1 -14.58-6.25l-20.83-20.83a20.63 20.63 0 1 1 29.16-29.17l4.17 4.17 16.67-22.92a21.75 21.75 0 0 1 16.67-8.33c4.17 0 9.38 1 12.5 4.17a23.16 23.16 0 0 1 8.33 13.54c1 5.21-1 11.46-4.17 15.63l-31.25 41.67c-3.12 5.21-9.37 8.33-15.62 8.33z" fill="url(#linear-gradient-4)" data-name="Path"/><path id="Path-9" d="m364.58 395.83a9.46 9.46 0 0 1 -7.29-3.12l-20.83-20.83a10.31 10.31 0 1 1 14.54-14.59l12.5 12.5 24-32.29c3.13-4.17 10.42-5.21 14.58-2.08s5.21 10.42 2.08 14.58l-31.25 41.67c-2.08 2.08-4.17 4.17-8.33 4.17z" fill="url(#linear-gradient-5)" data-name="Path"/><path id="Path-10" d="m287.5 415.62c16.67 38.54 62.5 57.29 77.08 63.54 14.58-5.21 60.42-25 77.08-63.54z" fill="url(#linear-gradient-6)" data-name="Path"/></g></g></svg>