<svg width="24" height="24" viewBox="0 0 24 24" fill="none" xmlns="http://www.w3.org/2000/svg">
<path fill-rule="evenodd" clip-rule="evenodd" d="M12.0555 3.88389C13.1294 2.80995 14.8706 2.80994 15.9445 3.88389L20.1161 8.05546C21.1901 9.1294 21.1901 10.8706 20.1161 11.9445L11.9445 20.1161C10.8706 21.1901 9.1294 21.1901 8.05546 20.1161L3.88389 15.9445C2.80995 14.8706 2.80994 13.1294 3.88389 12.0555L12.0555 3.88389ZM14.8839 4.94455C14.3957 4.45639 13.6043 4.45639 13.1161 4.94455L13.0607 5L13.1161 5.05546C13.6043 5.54361 14.3957 5.54361 14.8839 5.05546L14.9393 5L14.8839 4.94455ZM19 9.06066L18.9445 9.11612C18.4564 9.60427 18.4564 10.3957 18.9445 10.8839L19 10.9393L19.0555 10.8839C19.5436 10.3957 19.5436 9.60427 19.0555 9.11612L19 9.06066ZM10.9393 19L10.8839 18.9445C10.3957 18.4564 9.60427 18.4564 9.11612 18.9445L9.06066 19L9.11612 19.0555C9.60427 19.5436 10.3957 19.5436 10.8839 19.0555L10.9393 19ZM5 14.9393L5.05546 14.8839C5.54361 14.3957 5.54361 13.6043 5.05546 13.1161L5 13.0607L4.94455 13.1161C4.45639 13.6043 4.45639 14.3957 4.94455 14.8839L5 14.9393ZM9.25 12C9.25 10.4812 10.4812 9.25 12 9.25C13.5188 9.25 14.75 10.4812 14.75 12C14.75 13.5188 13.5188 14.75 12 14.75C10.4812 14.75 9.25 13.5188 9.25 12Z" fill="black"/>
</svg>
