<svg width="24" height="24" viewBox="0 0 24 24" fill="none" xmlns="http://www.w3.org/2000/svg">
<path d="M10.75 8.75V11.25H12.8229L13.6397 10.8416C14.0137 10.6546 14.25 10.2723 14.25 9.8541C14.25 9.24432 13.7557 8.75 13.1459 8.75H10.75Z" fill="black"/>
<path d="M12.8229 12.75H10.75V15.25H13.1459C13.7557 15.25 14.25 14.7557 14.25 14.1459C14.25 13.7277 14.0137 13.3454 13.6397 13.1584L12.8229 12.75Z" fill="black"/>
<path fill-rule="evenodd" clip-rule="evenodd" d="M2.25 12C2.25 6.61522 6.61522 2.25 12 2.25C17.3848 2.25 21.75 6.61522 21.75 12C21.75 17.3848 17.3848 21.75 12 21.75C6.61522 21.75 2.25 17.3848 2.25 12ZM10.75 6.5C10.75 6.08579 10.4142 5.75 10 5.75C9.58579 5.75 9.25 6.08579 9.25 6.5V7.25H8.5C8.08579 7.25 7.75 7.58579 7.75 8C7.75 8.41421 8.08579 8.75 8.5 8.75H9.25V15.25H8.5C8.08579 15.25 7.75 15.5858 7.75 16C7.75 16.4142 8.08579 16.75 8.5 16.75H9.25V17.5C9.25 17.9142 9.58579 18.25 10 18.25C10.4142 18.25 10.75 17.9142 10.75 17.5V16.75H12.25V17.5C12.25 17.9142 12.5858 18.25 13 18.25C13.4142 18.25 13.75 17.9142 13.75 17.5V16.6796C14.8969 16.4071 15.75 15.3761 15.75 14.1459C15.75 13.281 15.3216 12.4813 14.6213 12C15.3216 11.5187 15.75 10.719 15.75 9.8541C15.75 8.62386 14.8969 7.59287 13.75 7.32043V6.5C13.75 6.08579 13.4142 5.75 13 5.75C12.5858 5.75 12.25 6.08579 12.25 6.5V7.25H10.75V6.5Z" fill="black"/>
</svg>
