<svg width="24" height="24" viewBox="0 0 24 24" fill="none" xmlns="http://www.w3.org/2000/svg">
<path d="M12 2.25C11.0804 2.25 10.2108 2.43478 9.54328 2.76852C8.92066 3.07983 8.25001 3.64867 8.25001 4.5C8.25001 5.35133 8.92066 5.92017 9.54328 6.23148C10.2108 6.56522 11.0804 6.75 12 6.75C12.9196 6.75 13.7893 6.56522 14.4567 6.23148C15.0794 5.92017 15.75 5.35133 15.75 4.5C15.75 3.64867 15.0794 3.07983 14.4567 2.76852C13.7893 2.43478 12.9196 2.25 12 2.25Z" fill="black"/>
<path d="M20.1495 7.22308C19.6897 6.42667 19.0949 5.76593 18.4721 5.35474C17.8912 4.97119 17.0632 4.67481 16.326 5.10048C15.5887 5.52615 15.4314 6.39136 15.4731 7.08623C15.5178 7.83115 15.7926 8.67667 16.2524 9.47308C16.7122 10.2695 17.3071 10.9302 17.9298 11.3414C18.5107 11.725 19.3387 12.0213 20.076 11.5957C20.8132 11.17 20.9705 10.3048 20.9288 9.60993C20.8841 8.865 20.6093 8.01949 20.1495 7.22308Z" fill="black"/>
<path d="M7.67405 5.1005C6.93677 4.67483 6.10882 4.97121 5.52791 5.35476C4.90514 5.76595 4.3103 6.42668 3.85049 7.22309C3.39068 8.0195 3.11589 8.86501 3.07118 9.60994C3.02947 10.3048 3.18677 11.17 3.92405 11.5957C4.66132 12.0214 5.48927 11.725 6.07019 11.3414C6.69296 10.9302 7.2878 10.2695 7.7476 9.47309C8.20741 8.67668 8.48221 7.83117 8.52692 7.08624C8.56863 6.39138 8.41132 5.52616 7.67405 5.1005Z" fill="black"/>
<path d="M7.74767 14.2231C7.28786 13.4267 6.69302 12.7659 6.07025 12.3547C5.48934 11.9712 4.66139 11.6748 3.92411 12.1005C3.18683 12.5261 3.02953 13.3914 3.07124 14.0862C3.11595 14.8312 3.39075 15.6767 3.85055 16.4731C4.31036 17.2695 4.9052 17.9302 5.52797 18.3414C6.10888 18.725 6.93683 19.0213 7.67411 18.5957C8.41139 18.17 8.56869 17.3048 8.52698 16.6099C8.48227 15.865 8.20748 15.0195 7.74767 14.2231Z" fill="black"/>
<path d="M20.074 12.1005C19.3368 11.6748 18.5088 11.9712 17.9279 12.3548C17.3051 12.7659 16.7103 13.4267 16.2505 14.2231C15.7907 15.0195 15.5159 15.865 15.4712 16.6099C15.4295 17.3048 15.5868 18.17 16.324 18.5957C17.0613 19.0214 17.8893 18.725 18.4702 18.3414C19.0929 17.9302 19.6878 17.2695 20.1476 16.4731C20.6074 15.6767 20.8822 14.8312 20.9269 14.0862C20.9686 13.3914 20.8113 12.5262 20.074 12.1005Z" fill="black"/>
<path d="M12 17.25C11.0804 17.25 10.2108 17.4348 9.54327 17.7685C8.92065 18.0798 8.25 18.6487 8.25 19.5C8.25 20.3513 8.92065 20.9202 9.54327 21.2315C10.2108 21.5652 11.0804 21.75 12 21.75C12.9196 21.75 13.7893 21.5652 14.4567 21.2315C15.0794 20.9202 15.75 20.3513 15.75 19.5C15.75 18.6487 15.0794 18.0798 14.4567 17.7685C13.7893 17.4348 12.9196 17.25 12 17.25Z" fill="black"/>
</svg>
