<?xml version="1.0" encoding="iso-8859-1"?>
<!-- Generator: Adobe Illustrator 19.0.0, SVG Export Plug-In . SVG Version: 6.00 Build 0)  -->
<svg xmlns="http://www.w3.org/2000/svg" xmlns:xlink="http://www.w3.org/1999/xlink" version="1.1" id="Layer_1" x="0px" y="0px" viewBox="0 0 512 512" style="enable-background:new 0 0 512 512;" xml:space="preserve">
<g>
	<g>
		<polygon points="511.997,166.958 511.997,166.957 478.606,166.957 378.432,166.957 378.432,133.566 345.041,133.566     345.041,89.045 311.65,89.045 311.65,33.393 278.259,33.393 278.259,0.002 233.738,0.002 233.738,33.393 200.347,33.393     200.347,89.045 166.955,89.045 166.955,133.566 133.564,133.566 133.564,166.958 33.391,166.958 33.391,166.957 0,166.957 0,256     0.003,256 33.391,256 33.391,289.391 66.782,289.391 66.782,478.607 66.782,489.738 66.782,511.998 155.825,511.998     155.825,489.738 155.825,478.608 211.477,478.608 211.477,445.217 211.477,445.216 300.52,445.216 300.52,445.217 300.52,478.608     356.172,478.608 356.172,511.998 445.215,511.998 445.215,489.738 445.215,478.607 445.215,289.391 478.606,289.391     478.606,256.001 512,256.001 512,166.958   "/>
	</g>
</g>
<g>
</g>
<g>
</g>
<g>
</g>
<g>
</g>
<g>
</g>
<g>
</g>
<g>
</g>
<g>
</g>
<g>
</g>
<g>
</g>
<g>
</g>
<g>
</g>
<g>
</g>
<g>
</g>
<g>
</g>
</svg>
