<?xml version="1.0" encoding="iso-8859-1"?>
<!-- Generator: Adobe Illustrator 19.0.0, SVG Export Plug-In . SVG Version: 6.00 Build 0)  -->
<svg xmlns="http://www.w3.org/2000/svg" xmlns:xlink="http://www.w3.org/1999/xlink" version="1.1" id="Layer_1" x="0px" y="0px" viewBox="0 0 512 512" style="enable-background:new 0 0 512 512;" xml:space="preserve">
<g>
	<g>
		<polygon points="0.012,244.87 0,244.87 0,278.261 0.012,278.261 0.012,445.217 0,445.217 0,478.609 111.304,478.609     111.304,244.87   "/>
	</g>
</g>
<g>
	<g>
		<path d="M478.609,211.478v-33.391H378.435v-33.391V33.391h-33.391V0h-66.783H244.87v144.696h-33.391v66.783h-33.391v33.391    h-33.391v233.739h33.391V512h267.13v-33.391h33.391v-33.391h-66.783v-33.391h66.783v33.391H512V211.478H478.609z M478.609,367.304    h-66.783v-33.391h66.783V367.304z M478.609,289.391h-66.783V256h66.783V289.391z"/>
	</g>
</g>
<g>
</g>
<g>
</g>
<g>
</g>
<g>
</g>
<g>
</g>
<g>
</g>
<g>
</g>
<g>
</g>
<g>
</g>
<g>
</g>
<g>
</g>
<g>
</g>
<g>
</g>
<g>
</g>
<g>
</g>
</svg>
