<svg xmlns="http://www.w3.org/2000/svg" width="32" height="32" fill="none" viewBox="0 0 32 32">
  <g clip-path="url(#a)">
    <path fill="#000001" d="M27.43 4.57V6.1h3.04v7.62H25.9v1.52h-6.09v1.52h-6.1v1.53H9.14v1.52H1.52v1.53h1.53v1.52h13.71v-1.52h-1.52v-1.53h3.04v-1.52h4.58v1.52h1.52v1.53h1.52v-3.05h3.05v-1.53h1.52v-1.52H32V4.57h-4.57Zm3.04 19.81h-1.52v3.05h1.52v-3.05Zm-1.52-1.52h-1.52v1.52h1.52v-1.52Zm0 4.57H25.9v1.52h3.05v-1.52Zm-1.52-6.09H25.9v1.52h1.53v-1.52Z"/>
    <path fill="#000001" d="M27.43 6.1H25.9v3.04h1.53V6.1ZM25.9 25.91h-3.04v1.52h3.04v-1.52Zm0-16.77h-1.52v1.53h1.52V9.14Zm-1.52-4.57h-1.52v3.05h1.52V4.57Zm-1.52 19.81h-3.05v1.53h3.05v-1.53Zm0-16.76h-1.53v1.52h1.53V7.62Zm0-4.57h-3.05v1.52h3.05V3.05Zm-3.05 19.81h-3.05v1.52h3.05v-1.52Zm0-18.29h-3.05V6.1h3.05V4.57Zm-1.53 9.15h-1.52v1.52h1.52v-1.52ZM16.76 6.1h-1.52v1.52h1.52V6.1Zm-1.52 7.62h-1.53v1.52h1.53v-1.52Zm0-6.1h-1.53v1.52h1.53V7.62Zm-3.05 6.1h-1.53v1.52h1.53v-1.52Zm-4.57 0H6.09v3.04h1.53v-3.04Zm-1.53-1.53h18.29v-1.52h-3.05V9.14h-1.52v1.53h-6.1V9.14h-1.52v1.53H4.57v1.52H3.05v1.53h3.04v-1.53Zm0 6.1v-1.53H1.52v-1.52H0v4.57h1.52v-1.52h4.57Z"/>
    <path fill="#000001" d="M3.05 13.72H1.52v1.52h1.53v-1.52Z"/>
  </g>
  <defs>
    <clipPath id="a">
      <path fill="#fff" d="M0 0h32v32H0z"/>
    </clipPath>
  </defs>
</svg>
