<svg xmlns="http://www.w3.org/2000/svg" width="32" height="32" fill="none" viewBox="0 0 32 32">
  <g clip-path="url(#a)">
    <path fill="#000001" d="M30.47 12.19h-1.52v-1.53h-1.52V9.14H25.9v3.05h-1.52v1.52h-1.52V9.14h3.04V7.62h-7.62V6.09h-1.52v10.67H1.52V6.09H0v16.76h1.52v-4.57h15.24v4.57h-6.1v-1.52H9.14v4.57h1.52v-1.52h9.15v1.52h1.52v-4.57h-1.52v1.52h-1.53V9.14h3.05v6.1h1.53v1.52h7.61v6.09H32v-9.14h-1.53v-1.52Z"/>
    <path fill="#000001" d="M27.43 21.33H25.9v4.57h1.53v-1.52h3.04v-1.53h-3.04v-1.52ZM25.9 25.9h-4.57v1.53h4.57V25.9Zm-1.52-3.05h-1.52v1.53h1.52v-1.53Zm1.52-3.04h-4.57v1.52h4.57v-1.52Zm-16.76 0H4.57v1.52h4.57v-1.52Zm0 6.09H4.57v1.53h4.57V25.9Zm-1.52-3.05H6.09v1.53h1.53v-1.53Zm7.62-10.66H3.05v1.52h12.19v-1.52Zm0-3.05H3.05v1.52h12.19V9.14ZM4.57 21.33H3.05v1.52H1.52v1.53h1.53v1.52h1.52v-4.57ZM16.76 4.57H1.52v1.52h15.24V4.57Z"/>
  </g>
  <defs>
    <clipPath id="a">
      <path fill="#fff" d="M0 0h32v32H0z"/>
    </clipPath>
  </defs>
</svg>
