<svg fill="none" height="512" viewBox="0 0 1000 1000" width="512" xmlns="http://www.w3.org/2000/svg"><path d="m420 60h160v40h80v40h80v40h40v40h-120v40h-80v40h-160v-40h-80v-40h-120v-40h40v-40h80v-40h80z" fill="#e07438"/><path d="m380 60h40v40h-40z" fill="#d1592c"/><path d="m580 60h40v40h-40z" fill="#d1592c"/><path d="m340 100h-40v40h40z" fill="#d1592c"/><path d="m660 100h40v40h-40z" fill="#d1592c"/><path d="m260 140h-40v40h-40v40h40v-40h40z" fill="#d1592c"/><path d="m740 140h40v40h-40z" fill="#d1592c"/><path d="m780 180h40v40h-40z" fill="#d1592c"/><path d="m340 220h-40v40h40z" fill="#d1592c"/><path d="m660 220h40v40h-40z" fill="#d1592c"/><path d="m460 300v40h80v-40z" fill="#d1592c"/><path d="m140 220h80v40h40v40h120v40h-80v160h80v-160h240v160h80v-160h-80v-40h120v-40h40v-40h80v80h40v80h40v160h-880v-160h40v-80h40z" fill="#c64524"/><path d="m660 620h40v40h-40z" fill="#92a1b9"/><path d="m100 660h40v40h-40z" fill="#92a1b9"/><path d="m140 700h40v40h-40z" fill="#92a1b9"/><path d="m380 660h-40v40h40z" fill="#92a1b9"/><path d="m380 740h-40v40h40z" fill="#92a1b9"/><path d="m660 740h40v40h-40z" fill="#92a1b9"/><path d="m380 580h-40v40h40z" fill="#c7cfdd"/><path d="m580 620h-40v40h40z" fill="#c7cfdd"/><path d="m900 620h40v40h-40z" fill="#c7cfdd"/><path d="m900 660v40h-40v-40z" fill="#c7cfdd"/><path d="m100 660h-40v40h40z" fill="#c7cfdd"/><path d="m500 700h-40v40h40z" fill="#c7cfdd"/><path d="m540 740h40v40h-40z" fill="#c7cfdd"/><path d="m860 740h-40v40h40z" fill="#c7cfdd"/><path d="m60 780h80v40h-80z" fill="#c7cfdd"/><path d="m340 780h40v40h-40z" fill="#c7cfdd"/><path d="m100 580v40h-40v40h40v-40h40v40h40v-80z" fill="#fff"/><path d="m460 580h40v120h-40z" fill="#fff"/><path d="m620 580h-40v240h40v-40h40v-40h-40v-80h40v-40h-40z" fill="#fff"/><path d="m700 580h40v40h40v40h-40v80h40v40h-40v40h-40z" fill="#fff"/><path d="m860 580h-40v40h40z" fill="#fff"/><path d="m900 580h40v40h-40z" fill="#fff"/><path d="m300 620v120h80v80h40v-120h-80v-40h80v-40z" fill="#fff"/><path d="m260 660h-40v40h-40v40h-40v40h40v40h40v-40h-40v-40h40v-40h40z" fill="#fff"/><path d="m60 700h40v80h-40z" fill="#fff"/><path d="m900 700h-40v40h40z" fill="#fff"/><path d="m300 780h40v40h-40z" fill="#fff"/><path d="m460 780h40v40h-40z" fill="#fff"/><path d="m860 780h-40v40h40z" fill="#fff"/><path d="m900 780h40v40h-40z" fill="#fff"/><path d="m620 660h80v80h-80z" fill="#131313"/><path d="m100 620h40v40h-40z" fill="#131313"/><path d="m140 780v-80h-40v80z" fill="#131313"/><path clip-rule="evenodd" d="m20 540h960v320h-960zm920 280h-40v-40h40zm-80 0h-40v-80h40zm40-160v80h-40v-80zm0 0h40v-80h-40zm-160 160v-40h40v-40h-40v-80h40v-40h-40v-40h-40v40h-80v-40h-40v40h-40v40h40v80h-40v40h40v40h40v-40h80v40zm-240 0v-40h-40v40zm-80 0v-120h-40v-40h40v-40h-40v-40h-40v40h-40v120h40v40h-40v40zm-200 0h-40v-40h40zm-80-40h40v-40h40v-40h40v-40h-40v40h-80v-40h40v-80h-80v40h-40v200h80zm360-40v-160h-40v160zm360-120h-40v-40h40z" fill="#131313" fill-rule="evenodd"/><path d="m20 860h960v40h-960z" fill="#272727"/><g fill="#8e251d"><path d="m380 20h240v40h-240z"/><path d="m300 100v-40h80v40z"/><path d="m220 140v-40h80v40z"/><path d="m180 180v-40h40v40z"/><path d="m140 220v-40h40v40z"/><path d="m100 300v-80h40v80z"/><path d="m60 380v-80h40v80z"/><path d="m60 380v80h-40v-80z"/><path d="m700 100h-80v-40h80z"/><path d="m780 140h-80v-40h80z"/><path d="m820 180h-40v-40h40z"/><path d="m860 220h-40v-40h40z"/><path d="m900 300h-40v-80h40z"/><path d="m940 380h-40v-80h40z"/><path d="m940 380h40v80h-40z"/><path d="m260 260h40v40h-40z"/><path d="m740 260h-40v40h40z"/><path d="m380 300h40v40h-40z"/><path d="m620 300h-40v40h40z"/><path d="m380 900v40h240v-40z"/></g><path d="m220 220h80v40h-80z" fill="#73110a"/><path d="m420 300h-120v-40h120z" fill="#73110a"/><path d="m420 300h40v40h-40z" fill="#73110a"/><path d="m700 220v40h-120v40h-40v40h40v-40h120v-40h80v-40z" fill="#73110a"/><path d="m300 340v160h80v-160z" fill="#73110a"/><path d="m620 340v160h80v-160z" fill="#73110a"/><path d="m60 460h-40v80h40z" fill="#73110a"/><path d="m940 460h40v80h-40z" fill="#73110a"/><path d="m300 900v40h80v40h240v-40h80v-40h-80v40h-240v-40z" fill="#73110a"/></svg>