<svg fill="none" height="512" viewBox="0 0 1000 1000" width="512" xmlns="http://www.w3.org/2000/svg"><path d="m740 580v40h80v40h40v40h80v-80h-80v-40z" fill="#0cf1ff"/><path d="m900 740h40v40h-40z" fill="#0cf1ff"/><path clip-rule="evenodd" d="m380 60v40h-80v40h-80v40h-40v40h-40v80h-40v80h-40v160h40v80h40v40h40v40h40v40h40v40h80v40h320v-40h80v-80h-40v-40h-40v-40h-80v-40h320v-40h40v-160h-40v-80h-40v-80h-40v-40h-40v-40h-80v-40h-80v-40zm200 520h-80v-40h80zm80 80v40h40v40h-400v-40h40v-40zm120-120v-80h-40v40h-80v-40h-40v-80h-40v120h40v40zm-400 0v-40h40v-120h-40v80h-40v40h-80v-40h-40v80zm440-160v-40h-40v-40h-40v-40h-160v40h120v40h40v40zm-560 0v-40h40v-40h120v-40h-160v40h-40v40h-40v40z" fill="#edab50" fill-rule="evenodd"/><path d="m540 540h40v40h-40z" fill="#0098dc"/><path d="m620 580h40v40h-40z" fill="#0098dc"/><path clip-rule="evenodd" d="m740 580h-40v40h40v40h40v120h40v40h120v-40h40v-80h-120v-40h-40v-40h-80zm160 200h40v-40h-40z" fill="#0098dc" fill-rule="evenodd"/><path d="m860 580h40v40h-40z" fill="#0098dc"/><path d="m540 540h-40v40h40z" fill="#0069aa"/><path d="m620 580h-40v40h40z" fill="#0069aa"/><path d="m660 580h40v40h40v40h40v120h40v40h120v40h-160v-40h-40v-120h-40v-40h-40z" fill="#0069aa"/><path d="m940 820h40v-40h-40z" fill="#0069aa"/><path d="m980 660h-40v40h40z" fill="#0069aa"/><g fill="#e07438"><path d="m380 20h240v40h-240z"/><path d="m300 100v-40h80v40z"/><path d="m220 140v-40h80v40z"/><path d="m180 180v-40h40v40z"/><path d="m140 220v-40h40v40z"/><path d="m100 300v-80h40v80z"/><path d="m60 380v-80h40v80z"/><path d="m60 380v80h-40v-80z"/><path d="m700 100h-80v-40h80z"/><path d="m780 140h-80v-40h80z"/><path d="m820 180h-40v-40h40z"/><path d="m860 220h-40v-40h40z"/><path d="m900 300h-40v-80h40z"/><path d="m940 380h-40v-80h40z"/><path d="m940 380h40v80h-40z"/><path d="m380 260h40v40h-40z"/><path d="m620 260h-40v40h40z"/><path d="m260 300h40v40h-40z"/><path d="m260 340v40h-40v-40z"/><path d="m740 300h-40v40h40v40h40v-40h-40z"/><path d="m380 380h40v40h-40z"/><path d="m620 380h-40v40h40z"/><path d="m420 460h-40v40h-40v40h40v-40h40z"/><path d="m580 460h40v40h-40z"/><path d="m620 500h40v40h-40z"/><path d="m260 500h-40v40h40z"/><path d="m740 500h40v40h-40z"/><path d="m100 540h-40v80h40v80h40v80h40v40h40v40h80v40h80v40h240v-40h80v-40h80v-40h-40v-40h-80v40h-320v-40h-80v-40h-40v-40h-40v-40h-40v-40h-40z"/><path d="m900 540h40v80h-40z"/><path d="m340 660h40v40h-40z"/><path d="m340 700v40h-40v-40z"/><path d="m660 660h-40v40h40v40h40v-40h-40z"/></g><path d="m260 260h120v40h-120z" fill="#c64524"/><path d="m220 340v-40h40v40z" fill="#c64524"/><path d="m220 340v40h-40v-40z" fill="#c64524"/><path d="m620 260h120v40h-120z" fill="#c64524"/><path d="m780 340h-40v-40h40z" fill="#c64524"/><path d="m780 340h40v40h-40z" fill="#c64524"/><path d="m420 420h-40v40h-40v40h-80v-40h-40v40h40v40h80v-40h40v-40h40z" fill="#c64524"/><path d="m580 420h40v40h-40z" fill="#c64524"/><path d="m660 500h-40v-40h40z" fill="#c64524"/><path d="m740 500v40h-80v-40z" fill="#c64524"/><path d="m740 500v-40h40v40z" fill="#c64524"/><path d="m60 460h-40v160h40v80h40v80h40v40h40v40h40v40h80v40h80v40h240v-40h80v-40h80v-40h-80v40h-80v40h-240v-40h-80v-40h-80v-40h-40v-40h-40v-80h-40v-80h-40z" fill="#c64524"/><path d="m940 460h40v160h-40z" fill="#c64524"/><path d="m380 660v40h-40v40h320v-40h-40v-40z" fill="#c64524"/></svg>