<svg width="24" height="24" viewBox="0 0 24 24" fill="none" xmlns="http://www.w3.org/2000/svg">
<g clip-path="url(#clip0_16_2287)">
<path d="M13.4139 5H19.9999C20.2651 5 20.5194 5.10536 20.707 5.29289C20.8945 5.48043 20.9999 5.73478 20.9999 6V7H2.99988V4C2.99988 3.73478 3.10523 3.48043 3.29277 3.29289C3.48031 3.10536 3.73466 3 3.99988 3H11.4139L13.4139 5ZM3.08688 9H20.9129C21.0512 8.99994 21.1881 9.02859 21.3148 9.08413C21.4415 9.13968 21.5553 9.22092 21.649 9.32271C21.7427 9.4245 21.8143 9.54463 21.8592 9.67549C21.9041 9.80636 21.9214 9.94512 21.9099 10.083L21.0759 20.083C21.0551 20.3329 20.9411 20.5658 20.7567 20.7357C20.5722 20.9055 20.3306 20.9999 20.0799 21H3.91988C3.66912 20.9999 3.42757 20.9055 3.2431 20.7357C3.05862 20.5658 2.94469 20.3329 2.92388 20.083L2.08988 10.083C2.07839 9.94512 2.09565 9.80636 2.14054 9.67549C2.18544 9.54463 2.257 9.4245 2.35071 9.32271C2.44442 9.22092 2.55823 9.13968 2.68494 9.08413C2.81166 9.02859 2.94852 8.99994 3.08688 9Z" fill="#09121F"/>
</g>
<defs>
<clipPath id="clip0_16_2287">
<rect width="24" height="24" fill="white"/>
</clipPath>
</defs>
</svg>
