<svg xmlns="http://www.w3.org/2000/svg" viewBox="0 0 210 210" fill="none" shape-rendering="auto"><metadata xmlns:rdf="http://www.w3.org/1999/02/22-rdf-syntax-ns#" xmlns:xsi="http://www.w3.org/2001/XMLSchema-instance" xmlns:dc="http://purl.org/dc/elements/1.1/" xmlns:dcterms="http://purl.org/dc/terms/"><rdf:RDF><rdf:Description><dc:title>Face Generator</dc:title><dc:creator>The Visual Team</dc:creator><dc:source xsi:type="dcterms:URI">https://www.figma.com/community/file/986078800058673824</dc:source><dcterms:license xsi:type="dcterms:URI">https://creativecommons.org/licenses/by/4.0/</dcterms:license><dc:rights>Remix of „Face Generator” (https://www.figma.com/community/file/986078800058673824) by „The Visual Team”, licensed under „CC BY 4.0” (https://creativecommons.org/licenses/by/4.0/)</dc:rights></rdf:Description></rdf:RDF></metadata><mask id="viewboxMask"><rect width="210" height="210" rx="0" ry="0" x="0" y="0" fill="#fff" /></mask><g mask="url(#viewboxMask)"><rect fill="#a66637" width="210" height="210" x="0" y="0" /><g transform="translate(86.8 138.9) scale(.71856)"><path d="M-22.5 25a17 17 0 0 1 17-16.9h65.6a17 17 0 0 1 0 34H-5.5a17 17 0 0 1-17-17Z" fill="#F9F9F9"/></g><g transform="translate(2 11) scale(.71856)"><path d="M55.3 43.2A59.1 59.1 0 0 1 87.4 34c17.8 0 34.4 7.7 32.2 9.2 0 17.8-3.3 0-31.2 0-30 0-33.1 17.8-33.1 0ZM169.3 43.2a59.1 59.1 0 0 1 32.1-9.2c17.8 0 34.4 7.7 32.2 9.2 0 17.8-3.3 0-31.2 0-30 0-33.1 17.8-33.1 0Z" fill="#000"/><path d="m87.2 56.6 8.1 25h26.3l-21.2 15.5 8 25-21.2-15.4L66 122l8.2-25-21.3-15.4H79l8.1-25ZM201 56.6l8.1 25h26.3l-21.3 15.5 8.2 25-21.3-15.4-21.3 15.4 8.1-25-21.2-15.4h26.3l8-25Z" fill="#FFEBB7"/></g><g transform="translate(15 89.2) scale(.71856)"><g fill="#F88888"><rect x="11" y="16" width="56.3" height="43.4" rx="21.7"/><rect x="191" y="16" width="56.3" height="43.4" rx="21.7"/></g></g><g transform="translate(80.3 79.8) scale(.71856)"><path d="M5.6 34.4a17 17 0 0 0 16.3 21.4h33.7A16.9 16.9 0 0 0 72 34.4C70 41.6 63.4 47 55.6 47H22c-7.8 0-14.4-5.3-16.3-12.5Z" fill="#000" fill-opacity=".2"/></g></g></svg>