<svg xmlns="http://www.w3.org/2000/svg" width="32" height="32" fill="none" viewBox="0 0 32 32">
  <g clip-path="url(#a)">
    <path fill="#000001" d="M31.24 24.38h-1.53v1.52h1.53v-1.52Zm0-6.1h-1.53v1.53h1.53v-1.53Zm0-6.09h-1.53v1.52h1.53v-1.52Zm0-6.1h-1.53v1.53h1.53V6.09Z"/>
    <path fill="#000001" d="M29.71 22.85h-1.52v1.53h1.52v-1.53Zm0-3.04h-1.52v1.52h1.52v-1.52Zm0-3.05h-1.52v1.52h1.52v-1.52Zm0-3.05h-1.52v1.52h1.52v-1.52Zm0-3.05h-1.52v1.53h1.52v-1.53Zm0-3.04h-1.52v1.52h1.52V7.62Zm-1.52 13.71h-1.53v1.52h1.53v-1.52Zm0-6.1h-1.53v1.53h1.53v-1.53Zm0-6.09h-1.53v1.52h1.53V9.14ZM8.38 32h15.24v-1.53h1.52V1.52h-1.52V0H8.38v1.52H6.85v28.95h1.53V32ZM16 1.52h3.04v1.52H16V1.52Zm-3.05 0h1.52v1.52h-1.52V1.52ZM8.38 3.04h3.05v1.53h9.14V3.04h3.05v25.91H8.38V3.04Z"/>
    <path fill="#000001" d="M22.09 19.81h-1.52v1.52h1.52v-1.52Zm-1.52-4.58h-1.53v1.53h1.53v-1.53Zm0-3.04h-1.53v1.52h1.53v-1.52Zm0 9.14h-3.05v1.52h3.05v-1.52Zm-1.53-7.62h-1.52v1.52h1.52v-1.52Zm-1.52 6.1h-3.05v1.52h3.05v-1.52Zm-3.05-6.1h-1.52v1.52h1.52v-1.52Zm0 7.62h-3.04v1.52h3.04v-1.52Zm-1.52-6.1h-1.52v1.53h1.52v-1.53Zm0-3.04h-1.52v1.52h1.52v-1.52Zm-1.52 7.62H9.9v1.52h1.53v-1.52Zm-6.1 1.52H3.81v1.52h1.52v-1.52Zm0-6.1H3.81v1.53h1.52v-1.53Zm0-6.09H3.81v1.52h1.52V9.14ZM3.81 22.85H2.28v1.53h1.53v-1.53Zm0-3.04H2.28v1.52h1.53v-1.52Zm0-3.05H2.28v1.52h1.53v-1.52Zm0-3.05H2.28v1.52h1.53v-1.52Zm0-3.05H2.28v1.53h1.53v-1.53Zm0-3.04H2.28v1.52h1.53V7.62Z"/>
    <path fill="#000001" d="M2.28 24.38H.76v1.52h1.52v-1.52Zm0-6.1H.76v1.53h1.52v-1.53Zm0-6.09H.76v1.52h1.52v-1.52Zm0-6.1H.76v1.53h1.52V6.09Z"/>
  </g>
  <defs>
    <clipPath id="a">
      <path fill="#fff" d="M0 0h32v32H0z"/>
    </clipPath>
  </defs>
</svg>
