<svg xmlns="http://www.w3.org/2000/svg" width="32" height="32" fill="none" viewBox="0 0 32 32">
  <path fill="#000001" d="M30.48 24.385h-1.53v4.57h1.53v-4.57Zm0-21.34h-1.53v4.58h1.53v-4.58Zm-1.53-1.52h-4.57v1.52h4.57v-1.52Zm0 27.43h-4.57v1.52h4.57v-1.52ZM25.9 6.1H6.09v19.81H25.9V6.1Zm-6.09 7.62h1.52v4.57h-4.57v-1.52h3.05v-3.05Zm-6.1-6.09h4.57v1.52h-4.57V7.63Zm0 3.04h4.57v4.57h-1.52V12.2h-3.05v-1.53Zm0 3.05h1.53v4.57h-1.53v-4.57Zm-1.52 10.67H7.62v-4.57h4.57v4.57Zm0-7.62H9.14v1.52H7.62v-4.57h1.52v1.52h3.05v1.53Zm0-3.05h-1.52v-3.05h1.52v3.05Zm0-4.57H9.14v3.05H7.62V7.625h4.57V9.15Zm6.09 15.24h-1.52v-1.53h1.52v1.53Zm0-3.05h-3.04v3.05h-1.53v-4.57h4.57v1.52Zm6.1 3.05h-4.57v-4.57h4.57v4.57Zm0-6.1h-1.52v-4.57h1.52v4.57Zm0-6.09h-4.57V7.625h4.57V12.2Z"/>
  <path fill="#000001" d="M22.86 21.335h-1.53v1.52h1.53v-1.52Zm0-12.19h-1.53v1.52h1.53v-1.52Zm-12.19 12.19H9.14v1.52h1.53v-1.52Zm-3.05 7.62H3.05v1.52h4.57v-1.52Zm0-27.43H3.05v1.52h4.57v-1.52Zm-4.57 22.86H1.52v4.57h1.53v-4.57Zm0-21.34H1.52v4.58h1.53v-4.58Z"/>
</svg>
