<svg width="24" height="24" viewBox="0 0 24 24" fill="none" xmlns="http://www.w3.org/2000/svg">
<path fill-rule="evenodd" clip-rule="evenodd" d="M10.8835 7.95399C11.2431 8.15949 11.3681 8.61764 11.1626 8.97727L7.69767 15.0408C8.95009 15.8079 10.4226 16.25 12.0001 16.25C13.5775 16.25 15.05 15.8079 16.3024 15.0408L12.8489 8.9971C12.6434 8.63746 12.7683 8.17932 13.1279 7.97381C13.4876 7.76831 13.9457 7.89325 14.1512 8.25289L17.5136 14.1371C18.2859 13.4428 18.9264 12.605 19.3929 11.6662C19.5773 11.2953 20.0274 11.144 20.3983 11.3284C20.7693 11.5127 20.9205 11.9628 20.7362 12.3338C20.1362 13.5412 19.2936 14.606 18.2724 15.4649L20.6512 19.6279C20.8567 19.9875 20.7318 20.4457 20.3721 20.6512C20.0125 20.8567 19.5544 20.7317 19.3489 20.3721L17.0469 16.3437C15.5744 17.2361 13.8464 17.75 12.0001 17.75C10.1537 17.75 8.42569 17.2361 6.95318 16.3437L4.65123 20.3721C4.44572 20.7317 3.98758 20.8567 3.62794 20.6512C3.2683 20.4457 3.14335 19.9875 3.34886 19.6279L5.72773 15.4649C4.70651 14.606 3.86397 13.5411 3.26395 12.3338C3.07962 11.9628 3.23088 11.5127 3.60182 11.3284C3.97275 11.144 4.42289 11.2953 4.60723 11.6662C5.07377 12.605 5.7142 13.4428 6.48646 14.1371L9.86019 8.23307C10.0657 7.87343 10.5238 7.74848 10.8835 7.95399Z" fill="#D9D9D9"/>
<path d="M12 2.25C9.92893 2.25 8.25 3.92893 8.25 6C8.25 7.39482 9.01189 8.61078 10.1386 9.25601C10.6878 9.57049 11.3241 9.75 12 9.75C14.0711 9.75 15.75 8.07107 15.75 6C15.75 3.92893 14.0711 2.25 12 2.25Z" fill="#5D5D5D"/>
<path d="M3.60169 11.3284C3.97263 11.144 4.42277 11.2953 4.6071 11.6662C5.95798 14.3845 8.7618 16.25 11.9999 16.25C15.2381 16.25 18.0419 14.3845 19.3928 11.6662C19.5771 11.2953 20.0273 11.144 20.3982 11.3284C20.7691 11.5127 20.9204 11.9628 20.7361 12.3338C19.1415 15.5423 15.8292 17.75 11.9999 17.75C8.17065 17.75 4.85836 15.5423 3.26383 12.3338C3.07949 11.9628 3.23076 11.5127 3.60169 11.3284Z" fill="#5D5D5D"/>
</svg>
