<svg width="24" height="24" viewBox="0 0 24 24" fill="none" xmlns="http://www.w3.org/2000/svg">
<path d="M8.25 5.11467L8.25 18.8854L5.4521 19.3517C3.77588 19.631 2.25 18.3384 2.25 16.6391L2.25 7.36093C2.25 5.6616 3.77588 4.36898 5.4521 4.64835L8.25 5.11467Z" fill="#5D5D5D"/>
<path d="M15.75 6.36467L15.75 17.6354L19.4521 17.0183C20.7781 16.7973 21.75 15.6501 21.75 14.3058V9.69426C21.75 8.34996 20.7781 7.20268 19.4521 6.98168L15.75 6.36467Z" fill="#5D5D5D"/>
<path d="M9.75002 18.6354L14.2618 17.8834C14.2541 17.8401 14.25 17.7956 14.25 17.75L14.25 6.11469L9.75002 5.36469L9.75002 18.6354Z" fill="#D9D9D9"/>
</svg>
