<svg width="24" height="24" viewBox="0 0 24 24" fill="none" xmlns="http://www.w3.org/2000/svg">
<path d="M13.9445 7.88389C12.8705 6.80994 11.1293 6.80994 10.0554 7.88389L5.88383 12.0555C4.80988 13.1294 4.80988 14.8706 5.88383 15.9445L10.0554 20.1161C11.1293 21.1901 12.8705 21.1901 13.9445 20.1161L18.1161 15.9445C19.19 14.8706 19.19 13.1294 18.1161 12.0555L13.9445 7.88389Z" fill="#5D5D5D"/>
<path fill-rule="evenodd" clip-rule="evenodd" d="M5.69438 2.25787C6.10423 2.31782 6.38788 2.69867 6.32793 3.10852L6.2181 3.85942C7.75749 2.84249 9.60284 2.24998 11.5858 2.24998C14.292 2.24998 16.7419 3.35349 18.5076 5.13323C18.7993 5.42728 18.7974 5.90215 18.5034 6.19388C18.2093 6.48561 17.7344 6.48373 17.4427 6.18967C15.9471 4.68217 13.876 3.74998 11.5858 3.74998C9.87857 3.74998 8.29309 4.26801 6.97699 5.15624L7.69091 5.25739C8.10103 5.3155 8.38639 5.69508 8.32828 6.1052C8.27017 6.51531 7.8906 6.80067 7.48048 6.74256L5.09132 6.40403C4.8938 6.37605 4.71556 6.27052 4.59604 6.11079C4.47652 5.95106 4.42556 5.7503 4.45443 5.5529L4.84373 2.89143C4.90368 2.48158 5.28453 2.19792 5.69438 2.25787Z" fill="#D9D9D9"/>
</svg>
