<svg id="Capa_1" enable-background="new 0 0 512 512" height="512" viewBox="0 0 512 512" width="512" xmlns="http://www.w3.org/2000/svg" xmlns:xlink="http://www.w3.org/1999/xlink"><linearGradient id="SVGID_1_" gradientUnits="userSpaceOnUse" x1="74.98" x2="437.019" y1="437.019" y2="74.98"><stop offset="0" stop-color="#00aa45"/><stop offset="1" stop-color="#d3ff33"/></linearGradient><radialGradient id="SVGID_2_" cx="256" cy="255.999" gradientUnits="userSpaceOnUse" r="256"><stop offset="0" stop-color="#00aa45"/><stop offset=".109" stop-color="#0fb044" stop-opacity=".891"/><stop offset=".3171" stop-color="#35bf40" stop-opacity=".683"/><stop offset=".6028" stop-color="#73d83b" stop-opacity=".397"/><stop offset=".9518" stop-color="#c7fa34" stop-opacity=".048"/><stop offset="1" stop-color="#d3ff33" stop-opacity="0"/></radialGradient><linearGradient id="lg1"><stop offset="0" stop-color="#008547"/><stop offset=".1212" stop-color="#128f45"/><stop offset=".3647" stop-color="#41ab41"/><stop offset=".7046" stop-color="#8cd63a"/><stop offset="1" stop-color="#d3ff33"/></linearGradient><linearGradient id="SVGID_3_" gradientUnits="userSpaceOnUse" x1="-59.299" x2="751.978" xlink:href="#lg1" y1="571.3" y2="-239.977"/><radialGradient id="SVGID_4_" cx="256" cy="256" gradientUnits="userSpaceOnUse" r="220.007"><stop offset="0" stop-color="#95e12e" stop-opacity="0"/><stop offset=".341" stop-color="#93e02e" stop-opacity=".341"/><stop offset=".4986" stop-color="#8bdb30" stop-opacity=".499"/><stop offset=".6185" stop-color="#7fd332" stop-opacity=".619"/><stop offset=".7194" stop-color="#6cc835" stop-opacity=".719"/><stop offset=".8083" stop-color="#55b939" stop-opacity=".808"/><stop offset=".8886" stop-color="#37a73e" stop-opacity=".889"/><stop offset=".9611" stop-color="#169243" stop-opacity=".961"/><stop offset="1" stop-color="#008547"/></radialGradient><linearGradient id="SVGID_5_" gradientUnits="userSpaceOnUse" x1="-191.967" x2="401.813" y1="703.966" y2="110.186"><stop offset="0" stop-color="#d3ff33"/><stop offset="1" stop-color="#fff"/></linearGradient><linearGradient id="SVGID_6_" gradientUnits="userSpaceOnUse" x1="-27.217" x2="468.212" xlink:href="#lg1" y1="500.261" y2="4.832"/><linearGradient id="SVGID_7_" gradientUnits="userSpaceOnUse" x1="120.673" x2="511.207" xlink:href="#lg1" y1="334.452" y2="-56.082"/><linearGradient id="SVGID_8_" gradientUnits="userSpaceOnUse" x1="65.247" x2="561.08" xlink:href="#lg1" y1="388.708" y2="-107.125"/><linearGradient id="SVGID_9_" gradientUnits="userSpaceOnUse" x1="181.503" x2="672.215" xlink:href="#lg1" y1="330.498" y2="-160.215"/><linearGradient id="SVGID_10_" gradientUnits="userSpaceOnUse" x1="126.607" x2="620.49" xlink:href="#lg1" y1="371.054" y2="-122.828"/><linearGradient id="SVGID_11_" gradientUnits="userSpaceOnUse" x1="-278.583" x2="605.192" xlink:href="#lg1" y1="790.583" y2="-93.192"/><linearGradient id="SVGID_12_" gradientUnits="userSpaceOnUse" x1="184.322" x2="535.275" xlink:href="#lg1" y1="457.172" y2="106.22"/><linearGradient id="SVGID_13_" gradientUnits="userSpaceOnUse" x1="94.616" x2="590.756" xlink:href="#lg1" y1="514.007" y2="17.867"/><linearGradient id="SVGID_14_" gradientUnits="userSpaceOnUse" x1="75.21" x2="452.618" xlink:href="#lg1" y1="397.834" y2="20.426"/><linearGradient id="SVGID_15_" gradientUnits="userSpaceOnUse" x1="195.106" x2="571.468" xlink:href="#lg1" y1="397.33" y2="20.968"/><linearGradient id="SVGID_16_" gradientUnits="userSpaceOnUse" x1="138.311" x2="515.604" xlink:href="#lg1" y1="408.129" y2="30.836"/><g><circle cx="256" cy="256" fill="url(#SVGID_1_)" r="256"/><circle cx="256" cy="256" fill="url(#SVGID_2_)" r="256"/><circle cx="256" cy="256" fill="url(#SVGID_3_)" r="200.9"/><circle cx="256" cy="256" fill="url(#SVGID_4_)" r="200.9"/><path d="m256 109.938c-78.754.276-145.785 67.309-146.063 146.062.279 78.751 67.31 145.786 146.063 146.063 78.753-.279 145.784-67.311 146.062-146.063-.278-78.754-67.308-145.783-146.062-146.062z" fill="url(#SVGID_5_)"/><path d="m209.875 256h92.25c-.055-63.535-21.028-115.292-46.125-115.312-25.097.02-46.07 51.778-46.125 115.312z" fill="url(#SVGID_6_)"/><path d="m161.986 190.14c-13.352 18.766-21.304 41.435-21.298 65.86 38.438 15.216 76.939 30.75 115.313 46.125-31.395-37.482-63.043-75.07-94.015-111.985z" fill="url(#SVGID_7_)"/><path d="m256 140.688c-38.541-.009-72.877 19.833-94.014 49.452-3.728 11.162-5.791 23.032-5.85 35.35-.067 13.846 2.395 27.104 6.952 39.408 30.987 12.345 61.991 24.839 92.912 37.228 0-53.813 0-107.626 0-161.438z" fill="url(#SVGID_8_)"/><path d="m160.216 256c-6.51 0-13.019 0-19.528 0 .138 62.742 52.569 115.176 115.313 115.313-4.549-11.492-9.126-22.988-13.719-34.486-27.241-26.99-54.735-54.074-82.066-80.827z" fill="url(#SVGID_9_)"/><path d="m160.216 256c10.928 39.158 42.579 70.375 82.065 80.826-10.77-26.961-21.627-53.925-32.406-80.826-16.553 0-33.106 0-49.659 0z" fill="url(#SVGID_10_)"/><path d="m256 140.688v161.437c38.374-15.375 76.875-30.909 115.312-46.125-.136-62.742-52.569-115.174-115.312-115.312z" fill="url(#SVGID_11_)"/><path d="m268.248 340.512c-4.099 10.269-8.185 20.537-12.248 30.801 50.597-.019 94.233-34.229 109.604-80.076-32.532 16.361-65.045 32.907-97.356 49.275z" fill="url(#SVGID_12_)"/><path d="m365.604 291.237c3.696-11.12 5.709-22.953 5.708-35.237-23.063 0-46.125 0-69.188 0-11.27 28.127-22.625 56.323-33.877 84.512 1.011.025 2.024.036 3.042.035 38.735-.075 73.245-19.847 94.315-49.31z" fill="url(#SVGID_13_)"/><path d="m209.875 256c15.375 15.35 30.776 30.75 46.125 46.125 15.349-15.375 30.75-30.775 46.125-46.125-.055-63.535-21.028-115.292-46.125-115.312-25.097.02-46.07 51.778-46.125 115.312z" fill="url(#SVGID_14_)"/><path d="m220.309 328.512c8.544 26.073 21.387 42.804 35.691 42.801 12.22.001 23.36-12.197 31.686-31.994-22.429-3.504-44.89-7.119-67.377-10.807z" fill="url(#SVGID_15_)"/><path d="m209.875 256c-.002 27.462 3.948 52.684 10.434 72.512 15.401 7.719 32.688 12.075 50.98 12.035 5.566-.012 11.038-.436 16.397-1.228 8.83-21.019 14.442-50.584 14.439-83.319-30.75 0-61.5 0-92.25 0z" fill="url(#SVGID_16_)"/></g></svg>