<svg width="24" height="24" viewBox="0 0 24 24" fill="none" xmlns="http://www.w3.org/2000/svg">
<path fill-rule="evenodd" clip-rule="evenodd" d="M7.43775 6.42087C7.44374 3.91874 9.47616 1.89487 11.9792 1.89967C14.4809 1.90566 16.505 3.93853 16.4997 6.44019C16.4997 6.44062 16.4997 6.44104 16.4997 6.44146L15.7497 6.43967L16.4997 6.44019V9.47167C16.4997 9.88588 16.164 10.2217 15.7497 10.2217C15.3355 10.2217 14.9997 9.88588 14.9997 9.47167V6.43967L14.9997 6.43787C15.0038 4.76423 13.65 3.40387 11.9763 3.39966C10.3018 3.39665 8.94221 4.75025 8.93774 6.42361V9.47167C8.93774 9.88588 8.60196 10.2217 8.18774 10.2217C7.77353 10.2217 7.43774 9.88588 7.43774 9.47167L7.43775 6.42087Z" fill="black"/>
<path fill-rule="evenodd" clip-rule="evenodd" d="M5.38521 9.28329C4.24823 10.1732 3.69995 11.6442 3.69995 14.2074C3.69995 16.7701 4.2482 18.2409 5.38518 19.1307C6.57922 20.0651 8.60338 20.5154 11.969 20.5154C15.3345 20.5154 17.3587 20.0651 18.5527 19.1307C19.6897 18.2409 20.238 16.7701 20.238 14.2074C20.238 11.6442 19.6897 10.1732 18.5527 9.28329C17.3587 8.34875 15.3345 7.89844 11.969 7.89844C8.60338 7.89844 6.57924 8.34875 5.38521 9.28329ZM4.46069 8.10208C6.08517 6.83063 8.57053 6.39844 11.969 6.39844C15.3674 6.39844 17.8527 6.83063 19.4772 8.10208C21.1587 9.41818 21.738 11.4767 21.738 14.2074C21.738 16.9377 21.1587 18.996 19.4772 20.3119C17.8527 21.5832 15.3674 22.0154 11.969 22.0154C8.57052 22.0154 6.08519 21.5832 4.46072 20.3119C2.7792 18.996 2.19995 16.9377 2.19995 14.2074C2.19995 11.4767 2.77918 9.41818 4.46069 8.10208Z" fill="black"/>
</svg>
