<svg width="24" height="24" viewBox="0 0 24 24" fill="none" xmlns="http://www.w3.org/2000/svg">
<path d="M13.02 10.8919H15.793C16.207 10.8919 16.543 10.5559 16.543 10.1419C16.543 9.72791 16.207 9.39191 15.793 9.39191H13.02C12.605 9.39191 12.27 9.72791 12.27 10.1419C12.27 10.5559 12.605 10.8919 13.02 10.8919Z" fill="black"/>
<path fill-rule="evenodd" clip-rule="evenodd" d="M12.3318 17.8022C12.5808 17.8092 12.8358 17.8132 13.0978 17.8132C15.0608 17.8132 17.3148 17.5822 18.8778 16.3672C20.5978 15.0302 21.7528 11.8942 21.4518 9.37522C21.2518 7.69822 20.4158 6.44822 19.0988 5.85522C18.1458 5.42522 17.1168 5.45822 16.2108 5.48922L16.2018 5.48952C16.0269 5.49542 15.8539 5.50125 15.6828 5.50322C14.6048 5.51722 13.5258 5.55022 12.4468 5.58822C10.4218 5.66008 8.39777 5.75584 6.37274 5.85166L6.36084 5.85222L6.31684 5.85422C6.31784 5.70222 6.31684 5.55222 6.31384 5.40522C6.36784 3.35322 4.58184 2.54222 3.62984 2.40022C3.22584 2.33622 2.83884 2.62122 2.77684 3.03122C2.71684 3.44122 2.99884 3.82222 3.40884 3.88322C3.46784 3.89222 4.84784 4.11322 4.81384 5.40322C4.83484 6.27122 4.76084 7.25022 4.68184 8.28622L4.68172 8.2879C4.45275 11.3075 4.19326 14.7295 6.45384 16.3392C8.15084 17.5482 10.4868 17.7562 12.3318 17.8022ZM6.18563 8.29828C6.20999 7.97941 6.23396 7.6656 6.25384 7.35922L6.43284 7.35122C8.45484 7.25522 10.4778 7.15922 12.4998 7.08722C13.5668 7.04922 14.6358 7.01722 15.7018 7.00322C15.8819 7.00028 16.0639 6.99447 16.2478 6.9886L16.2598 6.98822L16.2781 6.98766C17.0864 6.96285 17.8516 6.93936 18.4828 7.22322C19.3258 7.60222 19.8228 8.38622 19.9628 9.55222C20.1988 11.5382 19.2628 14.1692 17.9578 15.1822C16.5458 16.2802 14.0948 16.3492 12.3698 16.3032C10.7378 16.2622 8.69084 16.0902 7.32484 15.1182C5.75284 13.9982 5.96884 11.1522 6.17784 8.40022L6.18563 8.29828Z" fill="black"/>
<path d="M5.98816 20.3127C5.98816 21.0267 6.56916 21.6077 7.28416 21.6077C7.99816 21.6077 8.57816 21.0267 8.57816 20.3127C8.57816 19.5997 7.99816 19.0187 7.28416 19.0187C6.56916 19.0187 5.98816 19.5997 5.98816 20.3127Z" fill="black"/>
<path d="M16.3203 20.3127C16.3203 21.0267 16.9013 21.6077 17.6153 21.6077C18.3293 21.6077 18.9103 21.0267 18.9103 20.3127C18.9103 19.5997 18.3293 19.0187 17.6153 19.0187C16.9013 19.0187 16.3203 19.5997 16.3203 20.3127Z" fill="black"/>
</svg>
