<svg width="200" height="144" fill="none" xmlns="http://www.w3.org/2000/svg"><g clip-path="url(#clip0)"><path d="M196 0H4a4 4 0 00-4 4v136a4 4 0 004 4h192a4 4 0 004-4V4a4 4 0 00-4-4z" fill="#F8FAFD"/><path d="M196 0H4a4 4 0 00-4 4v136a4 4 0 004 4h192a4 4 0 004-4V4a4 4 0 00-4-4z" fill="#9CAABA" fill-opacity=".5"/><g filter="url(#filter0_d)"><path d="M130 0h66a4 4 0 014 4v136a4 4 0 01-4 4h-66V0z" fill="#fff"/></g><rect x="136" y="15" width="31" height="10" rx="5" fill="#71869D" fill-opacity=".7"/><rect x="138" y="58" width="54" height="6" rx="3" fill="#D9DDEA"/><rect x="138" y="70" width="54" height="6" rx="3" fill="#D9DDEA"/><rect x="138" y="82" width="54" height="6" rx="3" fill="#D9DDEA"/></g><defs><clipPath id="clip0"><path fill="#fff" d="M0 0h200v144H0z"/></clipPath><filter id="filter0_d" x="106" y="-19" width="118" height="192" filterUnits="userSpaceOnUse" color-interpolation-filters="sRGB"><feFlood flood-opacity="0" result="BackgroundImageFix"/><feColorMatrix in="SourceAlpha" values="0 0 0 0 0 0 0 0 0 0 0 0 0 0 0 0 0 0 127 0"/><feOffset dy="5"/><feGaussianBlur stdDeviation="12"/><feColorMatrix values="0 0 0 0 0.54902 0 0 0 0 0.596078 0 0 0 0 0.643137 0 0 0 0.125 0"/><feBlend in2="BackgroundImageFix" result="effect1_dropShadow"/><feBlend in="SourceGraphic" in2="effect1_dropShadow" result="shape"/></filter></defs></svg>