<svg width="200" height="144" fill="none" xmlns="http://www.w3.org/2000/svg"><path d="M196 0H4a4 4 0 00-4 4v136a4 4 0 004 4h192a4 4 0 004-4V4a4 4 0 00-4-4z" fill="#F8FAFD"/><path d="M95.215 90l-2.79-9.238H78.472L75.682 90H67l13.539-39h9.922L104 90h-8.785zm-4.703-16.167c-2.583-8.398-4.03-13.122-4.34-14.225-.31-1.102-.569-1.942-.672-2.624-.569 2.257-2.222 7.873-4.961 16.797h9.973v.052zM126.399 90.472l-1.541-4.059h-.206c-1.336 1.74-2.723 2.9-4.111 3.585-1.387.686-3.236 1.002-5.549 1.002-2.774 0-4.984-.844-6.577-2.478-1.593-1.635-2.415-3.954-2.415-7.012 0-3.163 1.079-5.483 3.237-7.012 2.158-1.529 5.395-2.32 9.763-2.478l5.036-.158v-1.318c0-3.005-1.491-4.534-4.522-4.534-2.312 0-5.035.738-8.17 2.162l-2.621-5.483c3.34-1.793 7.04-2.689 11.151-2.689 3.905 0 6.885.896 8.992 2.636 2.055 1.74 3.134 4.376 3.134 7.96v19.876h-5.601zm-2.363-13.812l-3.083.105c-2.313.053-4.008.475-5.139 1.266-1.13.79-1.695 1.95-1.695 3.584 0 2.32 1.284 3.427 3.853 3.427 1.85 0 3.289-.527 4.419-1.634 1.08-1.107 1.645-2.53 1.645-4.323V76.66z" fill="#71869D"/></svg>