<svg width="200" height="144" fill="none" xmlns="http://www.w3.org/2000/svg"><path d="M196 0H4a4 4 0 00-4 4v136a4 4 0 004 4h192a4 4 0 004-4V4a4 4 0 00-4-4z" fill="#F8FAFD"/><rect x="74" y="53" width="110" height="2" rx="1" fill="#D9DDEA" fill-opacity=".6"/><rect x="16" y="50" width="48" height="8" rx="4" fill="#71869D"/><rect x="16" y="89" width="50" height="2" rx="1" fill="#D9DDEA" fill-opacity=".6"/><rect x="134" y="89" width="50" height="2" rx="1" fill="#D9DDEA" fill-opacity=".6"/><rect x="76" y="86" width="48" height="8" rx="4" fill="#71869D"/><rect x="16" y="71" width="110" height="2" rx="1" fill="#D9DDEA" fill-opacity=".6"/><rect x="136" y="68" width="48" height="8" rx="4" fill="#71869D"/></svg>