<svg width="200" height="144" fill="none" xmlns="http://www.w3.org/2000/svg"><path d="M196 0H4a4 4 0 00-4 4v136a4 4 0 004 4h192a4 4 0 004-4V4a4 4 0 00-4-4z" fill="#F8FAFD"/><rect x="40.5" y="29.5" width="119" height="85" rx="3.5" stroke="#D9DDEA"/><rect x="60" y="39" width="80" height="8" rx="4" fill="#D9DDEA"/><rect x="60" y="68" width="80" height="8" rx="4" fill="#D9DDEA"/><rect x="60" y="97" width="80" height="8" rx="4" fill="#D9DDEA"/><path fill="#D9DDEA" d="M40 57h120v1H40zM40 86h120v1H40z"/></svg>