<svg width="200" height="144" fill="none" xmlns="http://www.w3.org/2000/svg"><path d="M196 0H4a4 4 0 00-4 4v136a4 4 0 004 4h192a4 4 0 004-4V4a4 4 0 00-4-4z" fill="#F3F4F6"/><path d="M33.464 27.682h1.573V32h.915v-4.318h1.573v-.773h-4.061v.773zm5.384 4.395c.599 0 .957-.28 1.12-.601h.03V32h.866v-2.555c0-1.01-.823-1.313-1.551-1.313-.803 0-1.42.358-1.619 1.054l.84.12c.09-.262.343-.485.784-.485.417 0 .646.213.646.589v.015c0 .258-.271.27-.945.343-.74.08-1.449.3-1.449 1.16 0 .751.55 1.15 1.278 1.15zm.233-.661c-.375 0-.644-.172-.644-.502 0-.346.301-.49.704-.547.236-.033.709-.092.825-.187v.45c0 .425-.343.786-.885.786zm2.727.584h.885v-.602h.052c.142.279.438.67 1.094.67.9 0 1.574-.714 1.574-1.972 0-1.273-.694-1.964-1.576-1.964-.674 0-.955.405-1.092.681h-.037V26.91h-.9V32zm.883-1.91c0-.74.318-1.22.897-1.22.6 0 .907.51.907 1.22 0 .717-.313 1.239-.907 1.239-.574 0-.897-.497-.897-1.238zm7.284-3.18h-.878l-1.265.812v.845l1.19-.76h.03V32h.923v-5.09z" fill="#677788"/><g filter="url(#filter0_d)"><rect x="64" y="20" width="32" height="18" rx="2" fill="#fff"/></g><path d="M71.471 27.682h1.574V32h.915v-4.318h1.573v-.773h-4.062v.773zm5.385 4.395c.599 0 .957-.28 1.12-.601h.03V32h.865v-2.555c0-1.01-.822-1.313-1.55-1.313-.804 0-1.42.358-1.619 1.054l.84.12c.09-.262.343-.485.783-.485.418 0 .647.213.647.589v.015c0 .258-.271.27-.945.343-.74.08-1.45.3-1.45 1.16 0 .751.55 1.15 1.279 1.15zm.233-.661c-.375 0-.644-.172-.644-.502 0-.346.301-.49.704-.547.236-.033.708-.092.825-.187v.45c0 .425-.343.786-.885.786zm2.727.584h.885v-.602h.052c.142.279.438.67 1.094.67.9 0 1.574-.714 1.574-1.972 0-1.273-.694-1.964-1.577-1.964-.673 0-.954.405-1.09.681h-.038V26.91h-.9V32zm.883-1.91c0-.74.318-1.22.897-1.22.599 0 .907.51.907 1.22 0 .717-.313 1.239-.907 1.239-.574 0-.897-.497-.897-1.238zM85.912 32h3.49v-.77h-2.217v-.035l.877-.893c.99-.95 1.263-1.412 1.263-1.986 0-.853-.694-1.476-1.718-1.476-1.009 0-1.725.626-1.725 1.593h.877c0-.52.329-.845.836-.845.484 0 .845.296.845.775 0 .425-.259.729-.76 1.238l-1.768 1.733V32z" fill="#0ABF53"/><path d="M109.365 27.682h1.574V32h.915v-4.318h1.573v-.773h-4.062v.773zm5.385 4.395c.599 0 .957-.28 1.121-.601h.029V32h.866v-2.555c0-1.01-.823-1.313-1.552-1.313-.803 0-1.419.358-1.618 1.054l.84.12c.09-.262.343-.485.783-.485.418 0 .647.213.647.589v.015c0 .258-.271.27-.945.343-.741.08-1.449.3-1.449 1.16 0 .751.549 1.15 1.278 1.15zm.233-.661c-.375 0-.644-.172-.644-.502 0-.346.301-.49.704-.547.236-.033.708-.092.825-.187v.45c0 .425-.343.786-.885.786zm2.727.584h.885v-.602h.052c.142.279.438.67 1.094.67.9 0 1.574-.714 1.574-1.972 0-1.273-.694-1.964-1.576-1.964-.674 0-.955.405-1.092.681h-.037V26.91h-.9V32zm.883-1.91c0-.74.318-1.22.897-1.22.599 0 .907.51.907 1.22 0 .717-.313 1.239-.907 1.239-.574 0-.897-.497-.897-1.238zm7.04 1.98c1.089 0 1.882-.624 1.879-1.484.003-.637-.395-1.094-1.108-1.196v-.04c.551-.12.922-.53.919-1.101.003-.776-.658-1.41-1.675-1.41-.989 0-1.755.59-1.775 1.442h.887c.015-.427.413-.693.883-.693.475 0 .79.288.788.716.002.445-.365.74-.892.74h-.45v.711h.45c.643 0 1.026.323 1.024.783.002.45-.388.759-.932.759-.513 0-.908-.267-.93-.682h-.935c.025.86.793 1.455 1.867 1.455zM147.314 27.682h1.574V32h.914v-4.318h1.574v-.773h-4.062v.773zm5.384 4.395c.599 0 .957-.28 1.121-.601h.03V32h.865v-2.555c0-1.01-.823-1.313-1.551-1.313-.803 0-1.419.358-1.618 1.054l.84.12c.09-.262.343-.485.783-.485.418 0 .646.213.646.589v.015c0 .258-.271.27-.944.343-.741.08-1.449.3-1.449 1.16 0 .751.549 1.15 1.277 1.15zm.234-.661c-.375 0-.644-.172-.644-.502 0-.346.301-.49.704-.547.236-.033.708-.092.825-.187v.45c0 .425-.343.786-.885.786zm2.727.584h.885v-.602h.052c.142.279.438.67 1.094.67.9 0 1.573-.714 1.573-1.972 0-1.273-.693-1.964-1.576-1.964-.673 0-.954.405-1.091.681h-.037V26.91h-.9V32zm.882-1.91c0-.74.319-1.22.898-1.22.599 0 .907.51.907 1.22 0 .717-.313 1.239-.907 1.239-.575 0-.898-.497-.898-1.238zm5.122.965h2.428V32h.88v-.945h.652v-.758h-.652V26.91h-1.148l-2.16 3.413v.733zm2.438-.758h-1.494v-.04l1.454-2.304h.04v2.344z" fill="#677788"/><g filter="url(#filter1_d)"><rect x="24" y="47" width="152" height="77" rx="3.288" fill="#fff"/><rect x="24.411" y="47.411" width="151.178" height="76.178" rx="2.877" stroke="#E7EAF3" stroke-width=".822"/></g><rect x="37" y="61" width="33" height="4" rx="2" fill="#71869D"/><rect x="37" y="70" width="35" height="4" rx="2" fill="#D9DDEA"/><rect x="37" y="88" width="23" height="4" rx="2" fill="#D9DDEA"/><rect x="76" y="70" width="50" height="4" rx="2" fill="#D9DDEA"/><rect x="64" y="88" width="46" height="4" rx="2" fill="#D9DDEA"/><rect x="130" y="70" width="32" height="4" rx="2" fill="#D9DDEA"/><rect x="114" y="88" width="48" height="4" rx="2" fill="#D9DDEA"/><rect x="37" y="79" width="60" height="4" rx="2" fill="#D9DDEA"/><rect x="101" y="79" width="25" height="4" rx="2" fill="#D9DDEA"/><rect x="130" y="79" width="17" height="4" rx="2" fill="#D9DDEA"/><rect x="151" y="79" width="11" height="4" rx="2" fill="#D9DDEA"/><rect x="37" y="97" width="35" height="4" rx="2" fill="#D9DDEA"/><rect x="76" y="97" width="50" height="4" rx="2" fill="#D9DDEA"/><rect x="130" y="97" width="32" height="4" rx="2" fill="#D9DDEA"/><rect x="37" y="106" width="60" height="4" rx="2" fill="#D9DDEA"/><rect x="101" y="106" width="25" height="4" rx="2" fill="#D9DDEA"/><rect x="130" y="106" width="17" height="4" rx="2" fill="#D9DDEA"/><rect x="151" y="106" width="11" height="4" rx="2" fill="#D9DDEA"/><path d="M0 104h200v36a4 4 0 01-4 4H4a4 4 0 01-4-4v-36z" fill="url(#paint0_linear)"/><defs><filter id="filter0_d" x="62" y="19" width="36" height="22" filterUnits="userSpaceOnUse" color-interpolation-filters="sRGB"><feFlood flood-opacity="0" result="BackgroundImageFix"/><feColorMatrix in="SourceAlpha" values="0 0 0 0 0 0 0 0 0 0 0 0 0 0 0 0 0 0 127 0"/><feOffset dy="1"/><feGaussianBlur stdDeviation="1"/><feColorMatrix values="0 0 0 0 0.54902 0 0 0 0 0.596078 0 0 0 0 0.643137 0 0 0 0.18 0"/><feBlend in2="BackgroundImageFix" result="effect1_dropShadow"/><feBlend in="SourceGraphic" in2="effect1_dropShadow" result="shape"/></filter><filter id="filter1_d" x="19.89" y="45.356" width="160.219" height="85.219" filterUnits="userSpaceOnUse" color-interpolation-filters="sRGB"><feFlood flood-opacity="0" result="BackgroundImageFix"/><feColorMatrix in="SourceAlpha" values="0 0 0 0 0 0 0 0 0 0 0 0 0 0 0 0 0 0 127 0"/><feOffset dy="2.466"/><feGaussianBlur stdDeviation="2.055"/><feColorMatrix values="0 0 0 0 0.54902 0 0 0 0 0.596078 0 0 0 0 0.643137 0 0 0 0.125 0"/><feBlend in2="BackgroundImageFix" result="effect1_dropShadow"/><feBlend in="SourceGraphic" in2="effect1_dropShadow" result="shape"/></filter><linearGradient id="paint0_linear" x1="100" y1="154" x2="100" y2="92.5" gradientUnits="userSpaceOnUse"><stop offset=".256" stop-color="#F3F4F6"/><stop offset=".749" stop-color="#F3F4F6" stop-opacity="0"/></linearGradient></defs></svg>