<svg width="1231" height="822" xmlns="http://www.w3.org/2000/svg" xmlns:xlink="http://www.w3.org/1999/xlink"><defs><path d="M1007 616c234.807-125.969 302.143-523.241 43-601-259.149-77.186-322.93 165.041-440 165-117.917.041-161.358-124.608-317-125-156.087.392-342.836 121.688-281 384 62.267 262.038 759.796 303.823 995 177z" id="a"/></defs><g fill="none" fill-rule="evenodd"><g transform="translate(1 136)"><mask id="b" fill="#fff"><use xlink:href="#a"/></mask><use fill="#F2F5F9" xlink:href="#a"/><path d="M83 583c-28.71 0-121.948-93.305-113-154 13.744-97.119 89.106 52.56 116 32 26.574-20.456-109.72-107.298-70-155 40.116-47.436 114.297 138.364 87 38-26.874-99.14-17.068-174.783 35-166 52.349 8.535 51.428 113.67 8 174-43.152 59.793 75.94-36.632 95 15 20.406 52.785-104.226 69.012-92 105 13.032 35.175 62.394-40.248 98-8 35.886 31.735-135.116 119-164 119z" fill="#E2EAF5" mask="url(#b)" transform="matrix(-1 0 0 1 221 0)"/></g><path d="M100.814 694.555C188.425 615.615 272.154 593.098 352 627c171.169 72.993 280.179 198.403 515 83 97.297-48.103 182.382-66.33 255.254-54.683-31.366 39.277-69.81 72.84-114.254 96.683-193.223 104.186-698.462 94.582-907.186-57.445z" fill="#D3E0F1"/><path d="M653.966 711.949C653.092 638.556 668.212 533.538 691 550c39.924 28.103 46.914 106.711-5 210-7.705 15.428-13.878 20.8-18.67 18.895-2.624 1.348-7.234-.868-14.33-7.895-52.596-52.396-65.113-102.8-48-130 8.793-12.84 32.705 29.738 48.966 70.949z" fill="#B6C5D9"/><path d="M926 784c-297.137-189.652-45.486-251.85-27-291 19.177-39.737-98.421-130.297-60-183 38.125-49.836 139.446 24.026 140-35-.554-59.165-92.182-75.413-123-177-27.927-101.595 163.976-152.237 212-11 46.735 140.276-29.673 200.289 29 208 59.081 10.267 125.82-19.476 133 45 5.827 65.585-162.644 104.507-162 165-.644 58.448 214.415 199.792-142 279z" fill="#E2EAF5"/><path d="M512 162c19.64 71.656 90.324 102.465 119 80 28.253-23.39 13.074-86.667-15-121-28.855-33.746-124.21-31.526-104 41z" fill="#F2F5F9"/><path d="M880.686 640.605c6.239-10.369 17.254-22.849 31.247-34.624 26.436-22.246 53.492-33.555 60.433-25.26 6.94 8.295-8.864 33.053-35.3 55.298-21.435 18.039-43.28 28.886-54.476 27.922-.125 30.948-11.684 59.178-37.773 86.776l-3.634-3.434c25.364-26.831 36.408-53.995 36.408-83.852 0-.41-.002-.82-.006-1.232a6.404 6.404 0 01-.526-.461c-5.533 9.08-34.062 3.189-64.041-13.282-30.196-16.59-50.43-37.63-45.193-46.995 5.237-9.364 33.961-3.507 64.157 13.083 21.609 11.872 38.115 26.023 43.837 36.543.247-.842.548-1.716.901-2.618-.913-8.043-2.537-16.408-4.845-25.337-2.907-11.248-6.111-21.037-12.686-39.631-7.508-21.23-9.924-28.433-12.806-39.048-.209-.768-.412-1.53-.61-2.288-6.165 8.461-34.258 2.497-63.755-13.71-30.196-16.59-50.43-37.63-45.193-46.994 5.237-9.364 33.961-3.507 64.157 13.083 19.21 10.554 34.387 22.909 41.54 32.913-1.34-7.593-2.022-14.736-2.022-21.675 0-17.71 2.48-35.186 7.265-53.915 2.103-8.228 4.33-15.753 7.39-24.95-10.158 1.538-28.887-18.52-43.42-47.102-15.53-30.538-20.388-59.24-10.852-64.108 9.535-4.869 29.854 15.94 45.383 46.478 8.753 17.214 14.116 33.844 15.422 45.952.626-1.75 1.279-3.564 1.96-5.451 5.287-14.632 6.138-17.012 8.262-23.222 5.056-14.778 8.745-27.54 11.149-39.434C873.93 334.82 867 309.254 867 278.5c0-34.518 8.73-62.5 19.5-62.5s19.5 27.982 19.5 62.5c0 32.897-7.93 59.858-17.997 62.317-2.45 12.184-6.212 25.214-11.362 40.266-2.137 6.248-2.992 8.636-8.29 23.301l-.847 2.349c7.89-8.505 19.747-17.903 33.928-26.357 29.576-17.63 58.06-24.48 63.62-15.3 5.56 9.181-13.908 30.917-43.484 48.548-27.73 16.53-54.5 23.583-62.316 16.833-2.697 8.214-4.725 15.142-6.642 22.648-4.688 18.346-7.11 35.414-7.11 52.677 0 6.19.57 12.58 1.698 19.356 5.476-11.126 17.633-25.608 33.735-39.157 26.436-22.246 53.492-33.555 60.433-25.26 6.94 8.295-8.864 33.053-35.3 55.298-21.544 18.13-43.5 28.996-54.645 27.906 2.748 10.034 5.207 17.337 12.482 37.909 6.621 18.726 9.859 28.616 12.813 40.047 1.678 6.49 3.005 12.702 3.97 18.724z" fill="#B6C5D9" fill-rule="nonzero"/><path d="M966.71 770.798c-91.626 35.422-226.113 52.66-365.524 49.933 100.582-102.668 185.916-136.497 256.003-101.486 36.135 18.064 73.193 35.88 109.52 51.553z" fill="#D3E0F1"/></g></svg>