<svg width="1376" height="710" xmlns="http://www.w3.org/2000/svg" xmlns:xlink="http://www.w3.org/1999/xlink"><defs><path d="M1215 709H246c-318.23 0-351.741-599.425 42-694 393.605-93.23 465.614 275.32 736 222 407.434-78.752 447.367 472 191 472z" id="a"/></defs><g transform="translate(0 1)" fill="none" fill-rule="evenodd"><mask id="b" fill="#fff"><use xlink:href="#a"/></mask><use fill="#F2F5F9" xlink:href="#a"/><path d="M-27 293h456c5.523 0 10 4.477 10 10v456c0 5.523-4.477 10-10 10H-27c-5.523 0-10-4.477-10-10V303c0-5.523 4.477-10 10-10zM734 509h236c13.807 0 25 11.193 25 25s-11.193 25-25 25H734c-13.807 0-25-11.193-25-25s11.193-25 25-25zM744 279h236c13.807 0 25 11.193 25 25s-11.193 25-25 25H744c-13.807 0-25-11.193-25-25s11.193-25 25-25zM734 589h236c13.807 0 25 11.193 25 25s-11.193 25-25 25H734c-13.807 0-25-11.193-25-25s11.193-25 25-25zM744 359h236c13.807 0 25 11.193 25 25s-11.193 25-25 25H744c-13.807 0-25-11.193-25-25s11.193-25 25-25zM744 49h236c13.807 0 25 11.193 25 25s-11.193 25-25 25H744c-13.807 0-25-11.193-25-25s11.193-25 25-25zM744 129h236c13.807 0 25 11.193 25 25s-11.193 25-25 25H744c-13.807 0-25-11.193-25-25s11.193-25 25-25z" fill="#E2EAF5" mask="url(#b)"/><circle fill="#E2EAF5" mask="url(#b)" cx="584" cy="114" r="95"/><circle fill="#E2EAF5" mask="url(#b)" cx="584" cy="344" r="95"/><circle fill="#E2EAF5" mask="url(#b)" cx="584" cy="574" r="95"/><path d="M-27-31h456c5.523 0 10 4.477 10 10v274c0 5.523-4.477 10-10 10H-27c-5.523 0-10-4.477-10-10V-21c0-5.523 4.477-10 10-10zM1055 423h456c5.523 0 10 4.477 10 10v302c0 5.523-4.477 10-10 10h-456c-5.523 0-10-4.477-10-10V433c0-5.523 4.477-10 10-10z" fill="#E2EAF5" mask="url(#b)"/><path d="M1055 33h456c5.523 0 10 4.477 10 10v340c0 5.523-4.477 10-10 10h-456c-5.523 0-10-4.477-10-10V43c0-5.523 4.477-10 10-10zM-10 343h374c13.807 0 25 11.193 25 25s-11.193 25-25 25H-10c-13.807 0-25-11.193-25-25s11.193-25 25-25zM-10 423h374c13.807 0 25 11.193 25 25s-11.193 25-25 25H-10c-13.807 0-25-11.193-25-25s11.193-25 25-25zM-10 503h374c13.807 0 25 11.193 25 25s-11.193 25-25 25H-10c-13.807 0-25-11.193-25-25s11.193-25 25-25zM-10 583h374c13.807 0 25 11.193 25 25s-11.193 25-25 25H-10c-13.807 0-25-11.193-25-25s11.193-25 25-25zM-10 663h374c13.807 0 25 11.193 25 25s-11.193 25-25 25H-10c-13.807 0-25-11.193-25-25s11.193-25 25-25zM30 3h334c13.807 0 25 11.193 25 25s-11.193 25-25 25H30C16.193 53 5 41.807 5 28S16.193 3 30 3zM30 83h334c13.807 0 25 11.193 25 25s-11.193 25-25 25H30c-13.807 0-25-11.193-25-25s11.193-25 25-25zM30 163h334c13.807 0 25 11.193 25 25s-11.193 25-25 25H30c-13.807 0-25-11.193-25-25s11.193-25 25-25z" fill="#B6C5D9" mask="url(#b)"/></g></svg>