<svg width="1317" height="706" xmlns="http://www.w3.org/2000/svg"><g fill="none" fill-rule="evenodd"><path d="M13.01 169.586h464.37s12.583-50.193-75.589-33.462c-88.172 16.73-74.371-30.474-127.142-41.372-52.77-10.898-78.062 33.512-158.507 10.898-80.445-22.614-139.59 63.936-103.133 63.936zM843.01 74.833h255.219c83.047 0 55.313-74.833 6.42-74.833-68.451 0-78.062 33.512-158.507 10.898-80.445-22.614-139.59 63.935-103.133 63.935z" fill="#F2F5F9"/><path d="M1225 681H97c4.282-100.42 64.207-150.631 112.8-150.631S283.24 615.112 322.6 615c104.264.294 47.698-329.517 112.8-330 65.262.483 49.395 170.8 112.8 171 63.646-.258 20.252-286 112.8-286 92.142 0 17.437 445.294 112.8 445 96.492.294 40.912-290.976 112.8-291 72.552.024 34.446 131.742 112.8 132 78.552-.258 34.652-286 112.8-286 51.92 0 88.72 170.333 112.8 511z" stroke="#E2EAF5" stroke-width="10" fill="#F2F5F9" stroke-linecap="round" stroke-linejoin="round"/><circle fill="#E2EAF5" cx="322" cy="612" r="15"/><circle fill="#E2EAF5" cx="658" cy="171" r="15"/><circle fill="#E2EAF5" cx="546" cy="453" r="15"/><circle fill="#E2EAF5" cx="777" cy="612" r="15"/><circle fill="#E2EAF5" cx="890" cy="327" r="15"/><circle fill="#E2EAF5" cx="997" cy="453" r="15"/><circle fill="#E2EAF5" cx="1110" cy="170" r="15"/><path d="M169 706c-28.884 0-199.886-87.265-164-119 35.606-32.248 84.968 43.175 98 8 12.226-35.988-112.406-52.215-92-105 19.06-51.632 138.152 44.793 95-15-43.428-60.33-44.349-165.465 8-174 52.068-8.783 61.874 66.86 35 166-27.297 100.364 46.884-85.436 87-38 39.72 47.702-96.574 134.544-70 155 26.894 20.56 102.256-129.119 116-32 8.948 60.695-84.29 154-113 154zM1164.316 699.57c-149.165-95.206-22.834-126.43-13.554-146.084 9.627-19.948-49.408-65.41-30.12-91.867 19.138-25.018 70.002 12.062 70.28-17.57-.278-29.701-46.276-37.858-61.747-88.855-14.019-51.001 82.318-76.424 106.426-5.522 23.461 70.42-14.896 100.546 14.558 104.417 29.659 5.154 63.162-9.777 66.767 22.59 2.925 32.924-81.649 52.464-81.325 82.832-.324 29.34 107.637 100.296-71.285 140.06z" fill="#B6C5D9"/><path d="M35 676h1248c8.284 0 15 6.716 15 15 0 8.284-6.716 15-15 15H35c-8.284 0-15-6.716-15-15 0-8.284 6.716-15 15-15z" fill="#D3E0F1"/></g></svg>