<svg width="508" height="750" xmlns="http://www.w3.org/2000/svg" xmlns:xlink="http://www.w3.org/1999/xlink"><defs><linearGradient x1="50%" y1="0%" x2="50%" y2="100%" id="b"><stop stop-color="#FEEC80" stop-opacity="0" offset="0%"/><stop stop-color="#FFC42D" stop-opacity=".7" offset="100%"/></linearGradient><linearGradient x1="50%" y1="0%" x2="50%" y2="100%" id="d"><stop stop-color="#D6DFEA" stop-opacity="0" offset="0%"/><stop stop-color="#B6C5D9" stop-opacity=".1" offset="100%"/></linearGradient><linearGradient x1="50%" y1="0%" x2="50%" y2="100%" id="f"><stop stop-color="#B6C5D9" stop-opacity="0" offset="0%"/><stop stop-color="#403F9F" stop-opacity=".05" offset="100%"/></linearGradient><rect id="e" x="85" y="531" width="338" height="50" rx="25"/><rect id="g" x="85" y="611" width="338" height="50" rx="25"/><path d="M393 489c76.667-101.66 115-179.993 115-235C508 113.72 394.28 0 254 0S0 113.72 0 254c0 59.953 38.333 138.287 115 235h278z" id="a"/><path d="M303 703c0 25.957-21.043 47-47 47h-4c-25.957 0-47-21.043-47-47h-60c-16.569 0-30-13.431-30-30V489h278v184c0 16.569-13.431 30-30 30h-60z" id="c"/></defs><g fill="none" fill-rule="evenodd"><g><use fill="#FEEC80" xlink:href="#a"/><use fill="url(#b)" xlink:href="#a"/></g><g><use fill="#D6DFEA" xlink:href="#c"/><use fill="url(#d)" xlink:href="#c"/></g><g><use fill="#B6C5D9" xlink:href="#e"/><use fill="url(#f)" xlink:href="#e"/></g><g><use fill="#B6C5D9" xlink:href="#g"/><use fill="url(#f)" xlink:href="#g"/></g><path fill="#FFF" d="M206 454h96v35h-96z"/><path d="M294.467 444l37.749-236.87-34.39-27.878-33.148 19.38a20 20 0 01-20.436-.146l-33.076-19.982-34.394 28.55L214.532 444h79.935zM204.78 170.81a10 10 0 0111.557-.865l33.077 19.982a10 10 0 0010.218.073l33.148-19.38a10 10 0 0111.344.864l34.39 27.878a10 10 0 013.578 9.342L303 454h-97l-39.103-245.372a10 10 0 013.488-9.268l34.394-28.55z" fill="#FFF" fill-rule="nonzero"/></g></svg>