<svg width="429" height="686" xmlns="http://www.w3.org/2000/svg" xmlns:xlink="http://www.w3.org/1999/xlink"><defs><path d="M18 147c.082-72.075 59.123-119.11 87-133 70.336-36.873 122.282 10.387 129 15 7.639 3.525 101.594-23.63 144 81 42.537 104.507-14.733 169.129-15 219 .267 48.942 96.568 149.045 0 229-96.034 79.903-312.916 60.347-352-46-38.861-105.72 37.421-157.777 39-213 1.55-50.419-31.918-66.052-32-152z" id="a"/><path d="M380.368 541.141c-4.93 5.7-10.688 11.328-17.368 16.859-89.458 74.432-283.782 62.559-341.566-25.38 64.144-114.354 96.216-194.94 96.216-241.755C117.65 208.608 288.574 170.16 297 210c8.426 39.841-22.631 114.46 33.375 159.037 45.702 36.377 76.41 110.213 49.993 172.104z" id="c"/><path d="M253 13c48.493 6.928 27.006 246.206 0 266-27.006 19.794-120.85 25.841-203 0S2.443 4.11 50 1c47.213-3.38 153.665 4.804 203 12z" id="e"/><path d="M0 0h77v47.5C77 68.763 59.763 86 38.5 86S0 68.763 0 47.5V0z" id="i"/><path d="M203 1c51.833 7.693 48.933 72.071 49 145-.067 73.723-14.302 169-57 169-42.567 0-191.23 0-194-48-1.344-33.294 2.77-48.764 22-45 19.465 4.451 67.465 8.451 144 12 18.654-61.294 27.988-101.627 28-121 .33-91.095-18.076-115.106 8-112z" id="l"/><path d="M219 582c12.374 0 29.707 4.333 52 13l-3 10c-18.106 15.213-28.773 23.213-32 24-10.79 2.295-35.56-47-17-47z" id="o"/><path d="M103 360c-29.273 1.816-61.638 36.973-78 122-16.486 85.764-39.932 185.265 0 197 17.766 5.355 82.08 5.355 120-7 51.74-16.857 90.13-43 91-43 1.563 0-6.576-47.095-17-47-6.948-.064-51.614 5.27-134 16-.268-4.422-6.934-33.755-20-88-19.465-81.116 67.273-151.816 38-150z" id="p"/><path d="M124 593c-24.2-42.956-41.2-66.623-51-71-15.508-6.054-48.924-13.57-58-8-8.527 5.329-17.175 33.124-13 45 4.473 11.459 27.128 31.542 43 34 4.655.72 17.988 2.388 40 5l39-5z" id="q"/><path d="M216 102c12.874-2.954 36.477 7.041 25 39-8.58 23.416-26.423 43.994-47 38-30.045 36.988-64.235 63.18-119 49-55.559-13.284-73.21-62.502-74-90C-4.354 109.467 21.047 14.626 26 5c12.185-21.416 55.29 28.452 107 53 51.278 25.197 97.897 3.763 83 44z" id="r"/><linearGradient x1="50%" y1="0%" x2="50%" y2="100%" id="b"><stop stop-color="#1F1845" stop-opacity="0" offset="0%"/><stop stop-opacity=".2" offset="100%"/></linearGradient><linearGradient x1="16.126%" y1="-8.507%" x2="64.018%" y2="108.976%" id="d"><stop stop-opacity=".646" offset="0%"/><stop stop-color="#1F1845" stop-opacity="0" offset="100%"/></linearGradient><linearGradient x1="50%" y1="0%" x2="50%" y2="100%" id="f"><stop stop-color="#403F9F" stop-opacity="0" offset="0%"/><stop stop-opacity=".1" offset="100%"/></linearGradient><linearGradient x1="0%" y1="0%" x2="100%" y2="100%" id="g"><stop stop-opacity=".155" offset="0%"/><stop stop-opacity="0" offset="100%"/></linearGradient><linearGradient x1="53.525%" y1="0%" x2="50%" y2="100%" id="j"><stop stop-color="#C74D75" stop-opacity="0" offset="0%"/><stop stop-color="#AF3B6E" stop-opacity=".2" offset="100%"/></linearGradient><linearGradient x1="0%" y1="0%" x2="100%" y2="100%" id="k"><stop stop-opacity=".2" offset="0%"/><stop stop-color="#FF6663" stop-opacity="0" offset="100%"/></linearGradient><linearGradient x1="13.064%" y1="0%" x2="100%" y2="100%" id="m"><stop stop-opacity=".155" offset="0%"/><stop stop-opacity="0" offset="100%"/></linearGradient></defs><g fill="none" fill-rule="evenodd"><g transform="translate(23)"><use fill="#1F1845" xlink:href="#a"/><use fill="url(#b)" xlink:href="#a"/><use fill="url(#d)" xlink:href="#c"/></g><g transform="translate(51 359)"><mask id="h" fill="#fff"><use xlink:href="#e"/></mask><use fill="#403F9F" xlink:href="#e"/><use fill="url(#f)" xlink:href="#e"/><path d="M22 163c24.388 8 45.054 21.667 62 41 25.632 29 90.946-17.645 141 15 33.78 21.763 34.447 46.43 2 74L9 303l13-140z" fill="url(#g)" mask="url(#h)"/></g><g transform="translate(164 324)"><use fill="#FF6663" xlink:href="#i"/><use fill="url(#j)" xlink:href="#i"/></g><path d="M15 42a103.724 103.724 0 01-15-4.862V0h77v39.63C59.438 46.552 39.244 48.19 15 42z" fill="url(#k)" transform="translate(164 324)"/><g transform="translate(101 371)"><mask id="n" fill="#fff"><use xlink:href="#l"/></mask><use fill="#403F9F" xlink:href="#l"/><use fill="url(#f)" xlink:href="#l"/><path fill="url(#m)" mask="url(#n)" d="M44 301l91-43-69.817 60.97z"/></g><path d="M268.435 603.437a1.5 1.5 0 11-2.87-.874c4.813-15.814 9.005-30.23 12.575-43.249 10.232-37.312 15.351-63.12 15.36-77.315a1.5 1.5 0 013 .002c-.01 14.545-5.166 40.545-15.467 78.107-3.578 13.046-7.777 27.489-12.598 43.329z" fill="#FFF" fill-rule="nonzero"/><g><use fill="#FF6663" xlink:href="#o"/><use fill="url(#j)" xlink:href="#o"/></g><g><use fill="#403F9F" xlink:href="#p"/><use fill="url(#f)" xlink:href="#p"/></g><path d="M71.003 528.591a1.5 1.5 0 01-2.918.697 10095.3 10095.3 0 00-4.544-18.938c-6.594-27.48-1.886-55.327 11.45-84.933a1.5 1.5 0 112.735 1.232c-13.086 29.052-17.685 56.257-11.268 83 1.613 6.693 3.127 13.007 4.545 18.942z" fill="#FFF" fill-rule="nonzero"/><g><use fill="#FF6663" xlink:href="#q"/><use fill="url(#j)" xlink:href="#q"/></g><g transform="translate(104 108)"><mask id="s" fill="#fff"><use xlink:href="#r"/></mask><use fill="#FF6663" xlink:href="#r"/><use fill="url(#j)" xlink:href="#r"/><path d="M24 10c10.524.396 34.191 21.396 71 63s77.142 51.271 121 29l31-50L32-34l-8 44z" fill="url(#k)" mask="url(#s)"/></g></g></svg>