<svg width="782" height="511" xmlns="http://www.w3.org/2000/svg" xmlns:xlink="http://www.w3.org/1999/xlink"><defs><rect id="f" x="-5" y="40" width="22" height="10" rx="5"/><rect id="g" x="-5" y="88" width="22" height="10" rx="5"/><rect id="h" x="-5" y="136" width="22" height="10" rx="5"/><rect id="i" x="-5" y="183" width="22" height="10" rx="5"/><rect id="j" x="-5" y="231" width="22" height="10" rx="5"/><rect id="k" x="-5" y="279" width="22" height="10" rx="5"/><rect id="l" x="-5" y="327" width="22" height="10" rx="5"/><rect id="q" x="29" y="40" width="22" height="10" rx="5"/><rect id="r" x="29" y="88" width="22" height="10" rx="5"/><rect id="s" x="29" y="136" width="22" height="10" rx="5"/><rect id="t" x="29" y="183" width="22" height="10" rx="5"/><rect id="u" x="29" y="231" width="22" height="10" rx="5"/><rect id="v" x="29" y="279" width="22" height="10" rx="5"/><rect id="w" x="29" y="327" width="22" height="10" rx="5"/><rect id="x" x="0" y="0" width="574" height="346" rx="10"/><path d="M33.157 51C195.475 37.667 314.756 31 391 31c82.797 0 202.079 6.667 357.843 20 10.335 0 18.968 7.874 19.916 18.165A1947.661 1947.661 0 01777 248c0 59.612-2.747 119.224-8.24 178.835-.95 10.291-9.582 18.165-19.917 18.165C588.318 459.667 469.037 467 391 467c-81.005 0-200.286-7.333-357.843-22-10.335 0-18.968-7.874-19.916-18.165A1947.66 1947.66 0 015 248a1947.66 1947.66 0 018.24-178.835C14.19 58.874 22.823 51 33.158 51z" id="a"/><path d="M28 0h12.308a5 5 0 014.961 5.626C39.09 54.573 36 115.436 36 188.216c0 72.802 3.092 133.856 9.275 183.162A5 5 0 0140.314 377H28c-10.258 0-18.837-7.796-19.815-18.008C2.728 301.992 0 245.066 0 188.216A1776.44 1776.44 0 018.175 18.009C9.159 7.795 17.74 0 28 0z" id="c"/><path d="M42.917 30C155.639 10 271.667 0 391 0c119.333 0 235.361 10 348.083 30L749 51 550.662 36C497.442 46 444.221 51 391 51c-53.22 0-106.441-5-159.662-15L33 51l9.917-21z" id="m"/><path d="M42.917 475c112.722-20 228.75-30 348.083-30 119.333 0 235.361 10 348.083 30L749 511l-198.338-15c-53.22 10-106.441 15-159.662 15-53.22 0-106.441-5-159.662-15L33 511l9.917-36z" id="n"/><path d="M28 0h12.308a5 5 0 014.961 5.626C39.09 54.573 36 115.436 36 188.216c0 72.802 3.092 133.856 9.275 183.162A5 5 0 0140.314 377H28c-10.258 0-18.837-7.796-19.815-18.008C2.728 301.992 0 245.066 0 188.216A1776.44 1776.44 0 018.175 18.009C9.159 7.795 17.74 0 28 0z" id="o"/><path d="M1 0h28a1 1 0 011 1v18a1 1 0 01-1 1H0V1a1 1 0 011-1z" id="z"/><linearGradient x1="50%" y1="0%" x2="50%" y2="100%" id="b"><stop stop-color="#4E565C" stop-opacity="0" offset="0%"/><stop stop-opacity=".1" offset="100%"/></linearGradient><linearGradient x1="50%" y1="0%" x2="50%" y2="100%" id="d"><stop stop-color="#393E41" stop-opacity="0" offset="0%"/><stop stop-opacity=".2" offset="100%"/></linearGradient></defs><g fill="none" fill-rule="evenodd"><g><use fill="#4E565C" xlink:href="#a"/><use fill="url(#b)" xlink:href="#a"/></g><g transform="translate(0 60)"><mask id="e" fill="#fff"><use xlink:href="#c"/></mask><use fill="#393E41" xlink:href="#c"/><use fill="url(#d)" xlink:href="#c"/><g mask="url(#e)"><use fill="#4E565C" xlink:href="#f"/><use fill="url(#b)" xlink:href="#f"/></g><g mask="url(#e)"><use fill="#4E565C" xlink:href="#g"/><use fill="url(#b)" xlink:href="#g"/></g><g mask="url(#e)"><use fill="#4E565C" xlink:href="#h"/><use fill="url(#b)" xlink:href="#h"/></g><g mask="url(#e)"><use fill="#4E565C" xlink:href="#i"/><use fill="url(#b)" xlink:href="#i"/></g><g mask="url(#e)"><use fill="#4E565C" xlink:href="#j"/><use fill="url(#b)" xlink:href="#j"/></g><g mask="url(#e)"><use fill="#4E565C" xlink:href="#k"/><use fill="url(#b)" xlink:href="#k"/></g><g mask="url(#e)"><use fill="#4E565C" xlink:href="#l"/><use fill="url(#b)" xlink:href="#l"/></g></g><path d="M85.473 43.454C224.423 24.484 326.266 15 391 15c64.734 0 166.576 9.485 305.527 28.454a20 20 0 0117.234 18.257A2374.96 2374.96 0 01721 246.892c0 61.67-2.408 123.34-7.225 185.009a20 20 0 01-17.418 18.283L391 489 85.643 450.184A20 20 0 0168.225 431.9 2374.948 2374.948 0 0161 246.892a2374.96 2374.96 0 017.239-185.18 20 20 0 0117.234-18.258z" fill="#000"/><g><use fill="#393E41" xlink:href="#m"/><use fill="url(#d)" xlink:href="#m"/></g><g transform="matrix(1 0 0 -1 0 956)"><use fill="#393E41" xlink:href="#n"/><use fill="url(#d)" xlink:href="#n"/></g><g transform="translate(736 60)"><mask id="p" fill="#fff"><use xlink:href="#o"/></mask><g transform="matrix(-1 0 0 1 46 0)"><use fill="#393E41" xlink:href="#o"/><use fill="url(#d)" xlink:href="#o"/></g><g mask="url(#p)"><use fill="#4E565C" xlink:href="#q"/><use fill="url(#b)" xlink:href="#q"/></g><g mask="url(#p)"><use fill="#4E565C" xlink:href="#r"/><use fill="url(#b)" xlink:href="#r"/></g><g mask="url(#p)"><use fill="#4E565C" xlink:href="#s"/><use fill="url(#b)" xlink:href="#s"/></g><g mask="url(#p)"><use fill="#4E565C" xlink:href="#t"/><use fill="url(#b)" xlink:href="#t"/></g><g mask="url(#p)"><use fill="#4E565C" xlink:href="#u"/><use fill="url(#b)" xlink:href="#u"/></g><g mask="url(#p)"><use fill="#4E565C" xlink:href="#v"/><use fill="url(#b)" xlink:href="#v"/></g><g mask="url(#p)"><use fill="#4E565C" xlink:href="#w"/><use fill="url(#b)" xlink:href="#w"/></g></g><g transform="translate(104 75)"><mask id="y" fill="#fff"><use xlink:href="#x"/></mask><use fill="#E6E6EF" xlink:href="#x"/><path d="M280 193h-70.745L280 266.259V193zm0-20V0h20v41h73a5 5 0 110 10h-73v122h184V0h10v173h80v20h-80v153h-10V193H300v93.97L357.029 346h-27.81L181.452 193h-59.868l-21.506 153H89.975l21.511-153H0v-20h114.297l6.078-43.247L.83 5.963.924-.156 22.82 0 189.94 173H280zm-150.81-34.118L124.395 173h37.743l-32.948-34.118z" fill="#FFF" mask="url(#y)"/><path d="M338 183c0 5.523-4.477 10-10 10h-28v63.97h-20.004V173H328c5.523 0 10 4.477 10 10z" fill="#00A07D" mask="url(#y)"/><path fill="#757DC0" mask="url(#y)" d="M53 0h207v153h-59zM464 213v133h-37v-54h-54.78L425 346h-53l-52-54v-79zM320 71h37v82h-37zM-5 213h97L78 318H-5zM139 213h31l129 133H121zM523 0h37v153h-37zM523 213h37v133h-37zM320 0h57v21h-57zM427 0h37v153h-37z"/><path fill="#757DC0" mask="url(#y)" d="M325 116h136v37H325zM523 116h51v37h-51zM523 213h51v37h-51z"/><path d="M348 160h5v22.5a2.5 2.5 0 11-5 0V160z" fill="#000" mask="url(#y)"/><g mask="url(#y)"><g transform="translate(348 140)"><mask id="A" fill="#fff"><use xlink:href="#z"/></mask><use fill="#FFF" xlink:href="#z"/><path fill="#000" mask="url(#A)" d="M0 0h10v10H0zM10 10h10v10H10zM20 0h10v10H20z"/></g></g><path d="M287.245 240.396l-22.518 52.274a3 3 0 003.764 4.012l20.5-7.322a3 3 0 012.018 0l20.5 7.322a3 3 0 003.764-4.012l-22.518-52.274a3 3 0 00-5.51 0z" fill="#52C883" mask="url(#y)"/><path fill="#757DC0" mask="url(#y)" d="M.084 153H102.89v-9.114L.084 35.966z"/></g></g></svg>