<svg width="700" height="704" xmlns="http://www.w3.org/2000/svg" xmlns:xlink="http://www.w3.org/1999/xlink"><defs><linearGradient x1="50%" y1="0%" x2="50%" y2="100%" id="b"><stop stop-color="#AF3B6E" stop-opacity="0" offset="0%"/><stop stop-opacity=".2" offset="100%"/></linearGradient><linearGradient x1="50%" y1="0%" x2="50%" y2="100%" id="e"><stop stop-color="#E478A3" stop-opacity="0" offset="0%"/><stop stop-color="#AF3B6E" stop-opacity=".3" offset="100%"/></linearGradient><linearGradient x1="50%" y1="0%" x2="50%" y2="100%" id="h"><stop stop-color="#FFF" stop-opacity="0" offset="0%"/><stop stop-opacity=".05" offset="100%"/></linearGradient><linearGradient x1="0%" y1="0%" x2="100%" y2="0%" id="i"><stop stop-color="#AF3B6E" stop-opacity="0" offset="0%"/><stop stop-opacity=".1" offset="100%"/></linearGradient><path d="M235.335 20.006C207.385 20.01 185 42.393 185 70.004 185 97.616 207.385 120 235 120h98.447c-34.282-68.159-67.826-100.501-98.112-99.994zM235 140c-38.66 0-70-31.338-70-69.996C165 31.347 196.34.01 235 .01 279.836-.742 323.169 45.922 365 140H235z" id="a"/><path d="M465 120c27.615 0 50-22.384 50-49.996 0-27.611-22.385-49.995-50-49.995-30.621-.51-64.165 31.832-98.447 99.991H465zm0 20H335C376.831 45.922 420.164-.742 465 .009c38.66 0 70 31.338 70 69.995C535 108.662 503.66 140 465 140z" id="c"/><path d="M40 297h620v404a3 3 0 01-3 3H43a3 3 0 01-3-3V297z" id="f"/><path d="M350 433c5.516-31.825 33.19-56 67-56 36.78 0 67 30.28 67 68 0 38.77-42.634 91.2-128 157-3.497 2.693-8.503 2.693-12 0-85.366-65.8-128-118.23-128-157 0-37.72 30.22-68 68-68 32.81 0 60.484 24.175 66 56z" id="g"/><rect id="d" x="0" y="140" width="700" height="157" rx="3"/></defs><g fill="none" fill-rule="evenodd"><g fill-rule="nonzero"><use fill="#AF3B6E" xlink:href="#a"/><use fill="url(#b)" xlink:href="#a"/></g><g fill-rule="nonzero"><use fill="#AF3B6E" xlink:href="#c"/><use fill="url(#b)" xlink:href="#c"/></g><g><use fill="#E478A3" xlink:href="#d"/><use fill="url(#e)" xlink:href="#d"/></g><g><use fill="#E478A3" xlink:href="#f"/><use fill="url(#e)" xlink:href="#f"/></g><g><use fill="#FFF" xlink:href="#g"/><use fill="url(#h)" xlink:href="#g"/></g><path fill="url(#i)" d="M40 297h620v40H40z"/></g></svg>