<svg width="530" height="770" xmlns="http://www.w3.org/2000/svg" xmlns:xlink="http://www.w3.org/1999/xlink"><defs><linearGradient x1="50%" y1="0%" x2="50%" y2="100%" id="b"><stop stop-color="#393E41" stop-opacity="0" offset="0%"/><stop stop-opacity=".2" offset="100%"/></linearGradient><linearGradient x1="50%" y1="0%" x2="50%" y2="100%" id="d"><stop stop-color="#FFC62C" stop-opacity="0" offset="0%"/><stop stop-color="#FF6663" stop-opacity=".3" offset="100%"/></linearGradient><path d="M400 205c0-74.558-60.442-135-135-135-74.558 0-135 60.442-135 135v151.132l270 6.298V205zm70 0v159.082l-410-9.563V205C60 91.782 151.782 0 265 0s205 91.782 205 205z" id="a"/><path d="M219.81 482.897C208.787 471.55 202 456.068 202 439c0-34.794 28.206-63 63-63s63 28.206 63 63c0 17.068-6.787 32.551-17.81 43.897l14.596 79.309c6.077 33.019-15.763 64.713-48.782 70.79A60.79 60.79 0 01265 634c-33.574 0-60.79-27.217-60.79-60.79 0-3.691.336-7.374 1.004-11.004l14.596-79.31z" id="e"/><circle id="c" cx="265" cy="505" r="265"/></defs><g fill="none" fill-rule="evenodd"><g fill-rule="nonzero"><use fill="#393E41" xlink:href="#a"/><use fill="url(#b)" xlink:href="#a"/></g><g><use fill="#FFC62C" xlink:href="#c"/><use fill="url(#d)" xlink:href="#c"/></g><g><use fill="#393E41" xlink:href="#e"/><use fill="url(#b)" xlink:href="#e"/></g></g></svg>