<svg width="656" height="512" xmlns="http://www.w3.org/2000/svg" xmlns:xlink="http://www.w3.org/1999/xlink"><defs><linearGradient x1="50%" y1="0%" x2="50%" y2="100%" id="b"><stop stop-color="#E478A3" stop-opacity="0" offset="0%"/><stop stop-color="#AF3B6E" stop-opacity=".3" offset="100%"/></linearGradient><linearGradient x1="100%" y1="100%" x2="0%" y2="0%" id="c"><stop stop-opacity=".1" offset="0%"/><stop stop-color="#E478A3" stop-opacity="0" offset="100%"/></linearGradient><linearGradient x1="50%" y1="0%" x2="50%" y2="100%" id="e"><stop stop-color="#FFF" stop-opacity="0" offset="0%"/><stop stop-opacity=".05" offset="100%"/></linearGradient><path d="M31.388 0h593.224C641.947 0 656 13.977 656 31.22v449.56c0 17.243-14.053 31.22-31.388 31.22H31.388C14.053 512 0 498.023 0 480.78V31.22C0 13.977 14.053 0 31.388 0zM134.5 103c19.054 0 34.5-15.446 34.5-34.5 0-19.054-15.446-34.5-34.5-34.5-19.054 0-34.5 15.446-34.5 34.5 0 19.054 15.446 34.5 34.5 34.5zm387 0c19.054 0 34.5-15.446 34.5-34.5 0-19.054-15.446-34.5-34.5-34.5-19.054 0-34.5 15.446-34.5 34.5 0 19.054 15.446 34.5 34.5 34.5z" id="a"/><path d="M70 137h516c16.569 0 30 13.431 30 30v275c0 16.569-13.431 30-30 30H70c-16.569 0-30-13.431-30-30V167c0-16.569 13.431-30 30-30z" id="d"/></defs><g fill="none" fill-rule="evenodd"><g><use fill="#E478A3" xlink:href="#a"/><use fill="url(#b)" xlink:href="#a"/></g><path d="M615 158c12.029 3.737 21 15.19 21 29v275c0 16.557-13.438 30-30 30H90c-13.815 0-25.265-8.975-29-21 2.76.533 5.687.983 9 1h516c16.552-.017 29.99-13.46 30-30V167c-.01-3.311-.46-6.24-1-9z" fill="url(#c)"/><g><use fill="#FFF" xlink:href="#d"/><use fill="url(#e)" xlink:href="#d"/></g><path d="M318 370v39H160v-31l80-77c9.023-7.874 14.813-14.904 18-21 2.802-5.67 4.3-11.504 4-17 .3-8.664-2.545-15.096-8-20-5.925-4.07-14.26-6.315-25-6-9.424-.315-17.71 1.43-25 5-7.483 3.41-13.672 8.646-19 16l-35-23c8.185-12.275 19.465-21.798 34-29 14.214-6.56 30.684-10 49-10 15.824 0 29.45 2.543 41 8 11.808 4.714 20.891 11.894 27 21 6.868 9.442 10.112 20.36 10 33 .112 11.294-2.283 21.963-7 32-4.866 9.907-14.15 21.275-28 34l-48 46h90zm163-147c16.72 17.709 25 43.435 25 77 0 23.782-4.44 44.163-13 61-9.199 17.132-21.72 30.02-38 39-16.045 8.604-34.702 13-56 13-11.027 0-21.702-1.249-32-4-10.055-2.244-18.735-5.791-26-10l18-36c10.216 6.94 23.286 10.436 39 10 18.008.436 32.075-4.809 42-15 10.828-10.79 16.415-25.925 17-46-12.358 12.881-29.718 19.175-52 19-13.236.175-25.408-2.522-36-8-11.357-5.312-20.037-12.955-26-23-6.807-9.737-10-21.176-10-34 0-14.152 3.492-26.44 10-37 7.46-10.62 16.988-18.763 29-24 12.132-6.153 25.55-9 40-9 29.649 0 52.596 8.942 69 27zm-39 63c6.636-5.82 10-13.407 10-23 0-8.895-3.264-16.43-10-22-6.318-6.086-15.305-9-27-9-10.197 0-18.682 2.813-25 8-6.736 6.067-10 13.703-10 23 0 9.995 3.264 17.682 10 23 6.318 6.136 15.004 9 26 9 10.494 0 19.18-2.964 26-9z" fill="#AF3B6E"/></g></svg>