<svg width="563" height="664" xmlns="http://www.w3.org/2000/svg" xmlns:xlink="http://www.w3.org/1999/xlink"><defs><path d="M108.792 620C42.589 568.551 0 488.212 0 397.937 0 278.794 74.183 176.957 178.929 136H384.07C488.817 176.957 563 278.794 563 397.937c0 90.275-41.797 170.614-108 222.063H108.792z" id="a"/><path d="M108.802 620H455l13.432 29.037c2.319 5.013.135 10.956-4.878 13.275a10 10 0 01-4.198.924h-354.91c-5.523 0-10-4.478-10-10a10 10 0 01.924-4.199L108.802 620z" id="c"/><path id="d" d="M179 91h205v45H179z"/><path d="M183.5 0h197C405.629 0 426 20.371 426 45.5S405.629 91 380.5 91h-197C158.371 91 138 70.629 138 45.5S158.371 0 183.5 0z" id="e"/><path d="M117 606C54.47 557.158 14 476.428 14 394c0 .294 47.523 77.87 136 77 89.29.87 165.92-41.702 213-84 46.908-41.209 161.231-118.524 176-63 6.736 23.274 10 46.85 10 72 0 84.889-40.47 161.158-103 210H117z" id="f"/><linearGradient x1="0%" y1="-2.135%" x2="100%" y2="100%" id="b"><stop stop-color="#F2F5F9" stop-opacity="0" offset="0%"/><stop stop-color="#403F9F" stop-opacity=".2" offset="100%"/></linearGradient><linearGradient x1="50%" y1="0%" x2="50%" y2="100%" id="g"><stop stop-color="#403F9F" stop-opacity="0" offset="0%"/><stop stop-color="#222169" stop-opacity=".5" offset="100%"/></linearGradient></defs><g fill="none" fill-rule="evenodd"><use fill="#F2F5F9" xlink:href="#a"/><use fill="url(#b)" xlink:href="#a"/><use fill="#F2F5F9" xlink:href="#c"/><use fill="url(#b)" xlink:href="#c"/><use fill="#F2F5F9" xlink:href="#d"/><use fill="url(#b)" xlink:href="#d"/><use fill="#F2F5F9" xlink:href="#e"/><use fill="url(#b)" xlink:href="#e"/><path d="M163 321c94.914 23.913 128.045 50.627 230 45-11 9.232-20.877 17.315-29 25-46.994 41.28-123.9 84-214 84-88.306 0-136-79.227-136-78 0-52.087 54.438-100.944 149-76z" fill="#222169"/><use fill="#403F9F" xlink:href="#f"/><use fill="url(#g)" xlink:href="#f"/><circle fill="#8887E1" cx="435.5" cy="424.5" r="14.5"/><circle fill="#8887E1" cx="415.5" cy="486.5" r="21.5"/><circle fill="#FFF" opacity=".4" cx="72.5" cy="396.5" r="22.5"/><path d="M83 350c-22.697-14.429-22.823-56.873 0-95 23.103-38.673 60.46-58.487 84-45 22.697 14.429 22.823 56.873 0 95-23.103 38.673-60.46 58.487-84 45z" fill="#FFF" opacity=".4"/></g></svg>