<svg xmlns="http://www.w3.org/2000/svg" viewBox="0 0 440 440" fill="none" shape-rendering="auto"><metadata xmlns:rdf="http://www.w3.org/1999/02/22-rdf-syntax-ns#" xmlns:xsi="http://www.w3.org/2001/XMLSchema-instance" xmlns:dc="http://purl.org/dc/elements/1.1/" xmlns:dcterms="http://purl.org/dc/terms/"><rdf:RDF><rdf:Description><dc:title>Face Generator</dc:title><dc:creator>The Visual Team</dc:creator><dc:source xsi:type="dcterms:URI">https://www.figma.com/community/file/986078800058673824</dc:source><dcterms:license xsi:type="dcterms:URI">https://creativecommons.org/licenses/by/4.0/</dcterms:license><dc:rights>Remix of „Face Generator” (https://www.figma.com/community/file/986078800058673824) by „The Visual Team”, licensed under „CC BY 4.0” (https://creativecommons.org/licenses/by/4.0/)</dc:rights></rdf:Description></rdf:RDF></metadata><mask id="viewboxMask"><rect width="440" height="440" rx="0" ry="0" x="0" y="0" fill="#fff" /></mask><g mask="url(#viewboxMask)"><g transform="matrix(.71048 0 0 .71048 24 2)"><g fill="#b58143"><path d="M78.2 230.7c13.5-123 115.4-184.4 208.3-180.5C428.7 56 481.7 161 488 230.7c5.4 59.7 63.3 120.8 23.8 179.3-23.5 34.9-57.4 4.4-127.4 8-2.5 45-188.5 46-196.5-6-73.8-7.7-108 24.8-118.4 17-70-53-.8-113.5 8.6-198.3Z"/><path d="M102.8 500c-32.5-21-70-73-63.5-127.9 7-37.2 164.8 28 158.8 61.8-4.7 27 22.4 59.4 36.5 72.3-4-.3-15.7-3.2-30.5-12.3-14.7-9.1-32-22.6-35-27.2a74.4 74.4 0 0 0 35 51.3 190 190 0 0 1-47.9-18c-18.5-10-27.8-32.7-29.5-42.5-.6 3.8-.6 19.4 4 30.7 8 19.3 14 24.5 29.5 36.8-8.3-3.5-31.5-8.1-57.4-25ZM466.6 495c32.5-21.2 59-62.5 59-123.2-7-37.4-160.5 22.9-154.5 56.7 4.8 27.1-22.3 59.7-36.5 72.6 4-.3 15.7-3.2 30.5-12.3 14.8-9.2 32.2-22.7 35-27.3a74.6 74.6 0 0 1-35 51.4 190 190 0 0 0 48-18c18.5-10 27.8-32.8 29.5-42.6a72 72 0 0 1-4 30.8c-8 19.3-14 24.6-29.5 36.9 8.3-3.5 31.5-8.2 57.5-25Z"/></g></g><g transform="translate(81.7 150.7) scale(.71856)"><path d="M190.5 37C120.6 37 64 102.1 64 182.5a170.3 170.3 0 0 0 0 3C64 265.8 120.6 361 190.5 361S317 265.8 317 185.5a182.4 182.4 0 0 0 0-3C317 102 260.4 37 190.5 37Z" fill="#da9969"/><path d="M64 181.5v4C64 265.8 120.6 361 190.5 361S317 265.8 317 185.5v-4C315 261 259.2 353 190.5 353S65.9 261 64 181.5Z" fill="#000" fill-opacity=".2"/></g><g transform="translate(199.5 333.4) scale(.71856)"><path d="M58.4 39.3c0 17.1-13.9 4.2-31 4.2s-31 13-31-4.2a31 31 0 0 1 62 0Z" fill="#DE8383"/><path fill-rule="evenodd" clip-rule="evenodd" d="M52.7 22.6h-51A29.8 29.8 0 0 1 27.4 8C38 8 47.5 13.9 52.7 22.6Z" fill="#F9F9F9"/></g><g transform="translate(280.7 235.4) scale(.71856)"><rect x="22" y="19" width="88.1" height="88.1" rx="44.1" fill="#da9969"/><path d="m79 38.5-39 29L83.5 87" stroke="#000" stroke-opacity=".2" stroke-width="5" stroke-linecap="round" stroke-linejoin="round"/></g><g transform="matrix(-.71856 0 0 .71856 161.5 235.4)"><rect x="22" y="19" width="88.1" height="88.1" rx="44.1" fill="#da9969"/><path d="m79 38.5-39 29L83.5 87" stroke="#000" stroke-opacity=".2" stroke-width="5" stroke-linecap="round" stroke-linejoin="round"/></g><g transform="translate(114.8 215.5) scale(.71856)"><path d="M76 52.4c3.6-2.8 9-8.4 19.8-8.4a25 25 0 0 1 18 8.4M180 52.4c3.6-2.8 9-8.4 19.8-8.4a25 25 0 0 1 18 8.4" stroke="#000" stroke-width="3.7" stroke-linecap="round"/><rect x="71" y="61.5" width="49.6" height="60.6" rx="14.4" fill="#fff"/><rect x="173" y="61.5" width="49.6" height="60.6" rx="14.4" fill="#fff"/><rect x="82" y="69.7" width="30.3" height="46.9" rx="9.6" fill="#757575"/><rect x="181.3" y="69.7" width="30.3" height="46.9" rx="9.6" fill="#757575"/></g><g transform="translate(127.7 288.7) scale(.71856)"><g fill="#F88888"><rect x="21" y="16" width="43.4" height="43.4" rx="21.7"/><rect x="194" y="16" width="43.4" height="43.4" rx="21.7"/></g></g><g transform="translate(193 279.4) scale(.71856)"><path d="M39 28c-3.7.8-11 4-11 10.5 0 8.2 7.3 10.6 11 11.7" stroke="#000" stroke-opacity=".5" stroke-width="4" stroke-linecap="round" stroke-linejoin="round"/></g><g transform="matrix(.52237 0 0 .52237 122.9 244.8)"><path d="M11 103V7.5h40L11 103Z" fill="#b58143"/></g><g transform="matrix(-.52237 0 0 .52237 315.7 244.8)"><path d="M11 103V7.5h40L11 103Z" fill="#b58143"/></g><g transform="matrix(.52237 0 0 .52237 108.7 145.6)"><g fill="#b58143"><path d="M132 85.2c2.7-21 39-24.4 57.5-22.6 18.5 1.8 21.7 3 44 10.7 22.4 7.8 70.2 33 59.3 59.4-8.7 21.2-32.1 12.4-42.8 5.3 2.5 11 5 34.9-4.8 41.8-9.6 6.9-21.8-6-26.8-13.4-2.6 6-12.9 18.5-32.3 19.8-19.4 1.4-15.4-24.8-11-38-8.5-.1-26.8-3.5-32-16.7-5.4-13.2 11.3-21.2 20.3-23.5-10.7.7-33.4-6.7-31.3-22.8Z"/><path d="M375 131c6.5 15.9 11.5 34.5 11.5 70-11 0-38.5 11-92.5-18-54.8-29.5-68.9-59.5-82-79-13 27-37 51.3-72.5 73.5C104 199.7 55.2 198.5 39 201c0-23.1 2-46 10.9-67.4A176 176 0 0 1 212 25a175 175 0 0 1 124 51.5c16.4 16.4 30.2 33.1 39 54.5Z"/></g></g></g></svg>