<svg width="49" height="48" viewBox="0 0 49 48" fill="none" xmlns="http://www.w3.org/2000/svg">
<path d="M24.9644 1.5C18.1458 1.5 13.4896 1.85523 10.6109 2.19108C7.72275 2.52802 5.52013 4.71735 5.19089 7.61641C4.84145 10.6933 4.46454 15.8905 4.46454 24.0001C4.46454 32.1096 4.84145 37.3068 5.19089 40.3837C5.52013 43.2828 7.72274 45.4721 10.6109 45.809C13.4896 46.1449 18.1458 46.5001 24.9644 46.5001C31.783 46.5001 36.4392 46.1449 39.318 45.809C42.2061 45.4721 44.4087 43.2828 44.738 40.3837C45.0874 37.3068 45.4643 32.1096 45.4643 24.0001C45.4643 20.9628 45.4114 18.3343 45.327 16.073C45.3212 15.9184 45.2915 15.7657 45.2391 15.6202C44.7807 14.3489 43.3786 11.4464 39.3164 7.48475C35.0055 3.28068 31.9244 2.00453 30.778 1.64802C30.6488 1.60783 30.5147 1.58532 30.3795 1.58108C28.7515 1.53011 26.9496 1.5 24.9644 1.5Z" fill="#8FBFFA"/>
<path d="M45.2951 15.8153C42.7555 15.8142 38.381 15.7741 35.876 15.5338C33.1464 15.2719 30.9997 13.0938 30.7323 10.3051C30.511 7.99774 30.467 4.14285 30.465 1.58594C30.5712 1.59534 30.6762 1.61605 30.7782 1.64776C31.9246 2.00428 35.0058 3.28042 39.3166 7.4845C43.3788 11.4461 44.7809 14.3487 45.2393 15.6199C45.2623 15.6838 45.281 15.7491 45.2951 15.8153Z" fill="#2859C5"/>
<path fill-rule="evenodd" clip-rule="evenodd" d="M20.9645 35C20.9645 36.1046 21.8599 37 22.9645 37H33.9645C35.0691 37 35.9645 36.1046 35.9645 35C35.9645 33.8954 35.0691 33 33.9645 33H22.9645C21.8599 33 20.9645 33.8954 20.9645 35ZM22.9645 28C21.8599 28 20.9645 27.1046 20.9645 26C20.9645 24.8954 21.8599 24 22.9645 24H29.9645C31.0691 24 31.9645 24.8954 31.9645 26C31.9645 27.1046 31.0691 28 29.9645 28H22.9645ZM13.9645 35C13.9645 36.1046 14.8599 37 15.9645 37H16.9645C18.0691 37 18.9645 36.1046 18.9645 35C18.9645 33.8954 18.0691 33 16.9645 33H15.9645C14.8599 33 13.9645 33.8954 13.9645 35ZM15.9645 28C14.8599 28 13.9645 27.1046 13.9645 26C13.9645 24.8954 14.8599 24 15.9645 24H16.9645C18.0691 24 18.9645 24.8954 18.9645 26C18.9645 27.1046 18.0691 28 16.9645 28H15.9645Z" fill="#2859C5"/>
</svg>
