<svg width="49" height="48" viewBox="0 0 49 48" fill="none" xmlns="http://www.w3.org/2000/svg">
<path d="M25.7522 1.50228C25.4948 1.50045 25.2323 1.49951 24.9645 1.49951C24.6967 1.49951 24.4342 1.50045 24.1768 1.50228C17.1274 1.55232 12.1778 6.02117 10.833 12.3793C5.84686 13.997 2.46454 18.2664 2.46454 23.9995C2.46454 27.5465 3.76452 30.5838 6.01444 32.7642C8.25453 34.9351 11.3528 36.178 14.834 36.3186C16.2596 36.3763 17.8691 36.4237 19.6828 36.4556C19.4406 35.6413 19.4094 34.7409 19.653 33.8157C20.2257 31.6403 21.2069 28.2822 22.608 24.7662C23.3232 22.9715 24.9467 21.5442 27.0544 21.2779C28.1783 21.1359 29.8153 21 31.9645 21C33.6869 21 35.1542 21.0873 36.2981 21.1925C39.5091 21.488 41.6948 24.5938 40.7345 27.7586C40.5411 28.396 40.3312 29.0243 40.1229 29.6135C41.6545 30.4607 42.6374 32.0794 42.6951 33.7937C43.125 33.4782 43.5323 33.1347 43.9146 32.7642C46.1645 30.5838 47.4645 27.5465 47.4645 23.9995C47.4645 18.2664 44.0822 13.997 39.096 12.3793C37.7512 6.02117 32.8016 1.55232 25.7522 1.50228Z" fill="#8FBFFA"/>
<path d="M37.8638 26.8875C38.2605 25.5801 37.3837 24.3051 36.0232 24.1799C34.9613 24.0822 33.5862 24 31.9646 24C29.9421 24 28.4307 24.1278 27.4305 24.2542C26.4999 24.3718 25.7422 25.0053 25.3949 25.8767C24.0539 29.242 23.1083 32.4748 22.5542 34.5795C22.2283 35.817 23.1786 36.9893 24.4583 36.9874C25.4667 36.9859 26.6926 36.9881 27.9646 37C27.9646 37 27.1889 41.0714 26.4134 45.4323C26.2529 46.3347 27.2793 46.9403 27.9761 46.3448C32.3476 42.6085 36.5437 38.1493 39.1799 35.2055C40.309 33.9447 39.4052 31.9999 37.7128 31.9999H35.9646C35.9646 31.9999 37.0759 29.4839 37.8638 26.8875Z" fill="#2859C5"/>
</svg>
