<svg width="49" height="48" viewBox="0 0 49 48" fill="none" xmlns="http://www.w3.org/2000/svg">
<path d="M24.9646 11.5C32.3873 11.5 37.581 11.7133 40.84 11.916C44.0759 12.1172 46.7073 14.518 47.0138 17.8168C47.2485 20.3424 47.4646 24.02 47.4646 29C47.4646 33.9801 47.2485 37.6576 47.0138 40.1832C46.7073 43.482 44.0759 45.8828 40.8399 46.084C37.581 46.2867 32.3873 46.5 24.9646 46.5C17.5419 46.5 12.3482 46.2867 9.08921 46.084C5.85329 45.8828 3.22186 43.482 2.91534 40.1832C2.68065 37.6576 2.46457 33.9801 2.46457 29C2.46457 24.0199 2.68065 20.3424 2.91534 17.8168C3.22187 14.518 5.8533 12.1172 9.08922 11.916C12.3482 11.7133 17.5419 11.5 24.9646 11.5Z" fill="#8FBFFA"/>
<path d="M18.3126 2.61703C18.6777 2.25861 19.2593 2.25849 19.6245 2.61683C21.4496 4.40768 22.6988 6.27791 23.3727 7.41524C23.6966 7.96182 23.3814 8.62415 22.7532 8.71878C21.861 8.85317 20.5332 8.99887 18.9645 9.00017C17.3977 9.00147 16.0715 8.85833 15.1795 8.72555C14.5502 8.63189 14.2341 7.9687 14.5587 7.42152C15.2341 6.28278 16.4856 4.41063 18.3126 2.61703Z" fill="#2859C5"/>
<path d="M30.3124 8.38315C30.6775 8.74157 31.2591 8.74169 31.6243 8.38335C33.4493 6.5925 34.6986 4.72227 35.3725 3.58494C35.6963 3.03836 35.3812 2.37603 34.7529 2.2814C33.8608 2.14701 32.533 2.00131 30.9643 2.00001C29.3975 1.99871 28.0712 2.14185 27.1792 2.27463C26.55 2.36829 26.2339 3.03148 26.5584 3.57866C27.2339 4.7174 28.4853 6.58955 30.3124 8.38315Z" fill="#2859C5"/>
<path fill-rule="evenodd" clip-rule="evenodd" d="M10.6425 27.9189C10.826 27.018 11.4738 26.3185 12.385 26.1956C13.1598 26.0912 14.3009 26 15.9238 26C17.5489 26 18.706 26.0914 19.4982 26.1961C20.4352 26.3199 21.109 27.0365 21.2966 27.9629C21.5188 29.0604 21.7913 30.6641 21.9078 32.3819C21.9717 33.3238 21.3032 34.1327 20.3659 34.2456C20.0991 34.2777 19.8016 34.3099 19.4758 34.3401L18.6556 39.5414C18.5387 40.2832 18.0077 40.8796 17.2597 40.9457C16.9015 40.9774 16.4584 41 15.9235 41C15.3904 41 14.9559 40.9775 14.6089 40.946C13.8928 40.8811 13.3921 40.3119 13.2738 39.6026L12.3968 34.34C12.088 34.3109 11.8058 34.28 11.5519 34.249C10.6202 34.1355 9.95836 33.3305 10.0215 32.394C10.1391 30.6486 10.4182 29.0199 10.6425 27.9189Z" fill="#2859C5"/>
<path d="M19.4646 21.5C19.4646 23.433 17.8976 25 15.9646 25C14.0316 25 12.4646 23.433 12.4646 21.5C12.4646 19.567 14.0316 18 15.9646 18C17.8976 18 19.4646 19.567 19.4646 21.5Z" fill="#2859C5"/>
<path d="M37.5444 26.1956C38.4556 26.3185 39.1033 27.018 39.2869 27.9189C39.5112 29.0199 39.7903 30.6486 39.9079 32.394C39.971 33.3305 39.3091 34.1355 38.3775 34.249C38.1236 34.28 37.8414 34.3109 37.5326 34.34L36.6556 39.6026C36.5373 40.3119 36.0366 40.8811 35.3205 40.946C34.9735 40.9775 34.539 41 34.0059 41C33.471 41 33.0279 40.9774 32.6697 40.9457C31.9217 40.8796 31.3907 40.2832 31.2738 39.5414L30.4536 34.3401C30.1278 34.3099 29.8303 34.2777 29.5635 34.2456C28.6262 34.1327 27.9577 33.3238 28.0216 32.3819C28.1381 30.6641 28.4106 29.0604 28.6328 27.9629C28.8204 27.0365 29.4942 26.3199 30.4312 26.1961C31.2234 26.0914 32.3805 26 34.0056 26C35.6285 26 36.7696 26.0912 37.5444 26.1956Z" fill="#2859C5"/>
<path d="M33.9646 25C32.0316 25 30.4646 23.433 30.4646 21.5C30.4646 19.567 32.0316 18 33.9646 18C35.8976 18 37.4646 19.567 37.4646 21.5C37.4646 23.433 35.8976 25 33.9646 25Z" fill="#2859C5"/>
</svg>
