<svg width="49" height="48" viewBox="0 0 49 48" fill="none" xmlns="http://www.w3.org/2000/svg">
<path d="M16.502 33.8423C19.0039 33.9409 21.9637 34.0001 25.4651 34.0001C28.9659 34.0001 31.9254 33.9409 34.4271 33.8423C34.7751 34.8303 34.9645 35.8931 34.9645 37.0001C34.9645 42.2468 30.7112 46.5001 25.4645 46.5001C20.2178 46.5001 15.9645 42.2468 15.9645 37.0001C15.9645 35.8931 16.1539 34.8303 16.502 33.8423Z" fill="#2859C5"/>
<path d="M43.5954 26.5003C40.9897 28.6847 37.6307 30 33.9645 30C25.6802 30 18.9645 23.2843 18.9645 15C18.9645 9.13687 22.3284 4.05942 27.2315 1.59237C26.6504 1.53129 26.0609 1.5 25.4646 1.5C16.7676 1.5 9.51723 8.15556 8.7745 16.8208L8.29541 22.4102C8.10159 24.6714 7.37966 26.8556 6.18773 28.787L4.7166 31.1708C3.80501 32.6479 3.47589 34.3547 4.04931 35.8674C4.6454 37.4399 6.07764 38.4387 7.9121 38.6827C11.1906 39.1188 16.5868 39.5 25.4646 39.5C34.3424 39.5 39.7386 39.1188 43.0171 38.6827C44.8516 38.4387 46.2838 37.4399 46.8799 35.8674C47.4533 34.3547 47.1242 32.6479 46.2126 31.1708L44.7415 28.787C44.2914 28.0576 43.9083 27.2923 43.5954 26.5003Z" fill="#8FBFFA"/>
<path fill-rule="evenodd" clip-rule="evenodd" d="M45.9645 15C45.9645 21.6274 40.5919 27 33.9645 27C27.3371 27 21.9645 21.6274 21.9645 15C21.9645 8.37258 27.3371 3 33.9645 3C40.5919 3 45.9645 8.37258 45.9645 15Z" fill="#2859C5"/>
<path fill-rule="evenodd" clip-rule="evenodd" d="M35.9645 9C35.9645 7.89543 35.0691 7 33.9645 7C32.8599 7 31.9645 7.89543 31.9645 9V13H27.9645C26.8599 13 25.9645 13.8954 25.9645 15C25.9645 16.1046 26.8599 17 27.9645 17H31.9645V21C31.9645 22.1046 32.8599 23 33.9645 23C35.0691 23 35.9645 22.1046 35.9645 21V17H39.9645C41.0691 17 41.9645 16.1046 41.9645 15C41.9645 13.8954 41.0691 13 39.9645 13H35.9645V9Z" fill="#8FBFFA"/>
</svg>
