<svg width="49" height="48" viewBox="0 0 49 48" fill="none" xmlns="http://www.w3.org/2000/svg">
<path fill-rule="evenodd" clip-rule="evenodd" d="M20.1009 3.67465C21.3471 3.58067 22.9914 3.5 24.9646 3.5C26.9378 3.5 28.5821 3.58067 29.8283 3.67465C32.036 3.84113 33.8607 5.2291 34.7822 7.12783L35.8492 9.3265C37.65 9.39377 39.1882 9.47194 40.4645 9.54902C43.9145 9.75737 46.6581 12.4045 46.9653 15.8559C47.2159 18.6717 47.4646 22.5508 47.4646 26.8636C47.4646 31.1764 47.2159 35.0556 46.9653 37.8713C46.6581 41.3227 43.9145 43.9699 40.4645 44.1783C37.1107 44.3808 31.9484 44.5909 24.9646 44.5909C17.9808 44.5909 12.8185 44.3808 9.46471 44.1783C6.01463 43.9699 3.27104 41.3227 2.96385 37.8713C2.71324 35.0556 2.46457 31.1764 2.46457 26.8636C2.46457 22.5508 2.71325 18.6717 2.96385 15.8559C3.27104 12.4045 6.01464 9.75736 9.46472 9.54901C10.741 9.47194 12.2792 9.39377 14.08 9.32649L15.147 7.12784C16.0685 5.2291 17.8932 3.84113 20.1009 3.67465Z" fill="#8FBFFA"/>
<path fill-rule="evenodd" clip-rule="evenodd" d="M15.4646 26C15.4646 20.7533 19.7179 16.5 24.9646 16.5C30.2113 16.5 34.4646 20.7533 34.4646 26C34.4646 31.2467 30.2113 35.5 24.9646 35.5C19.7179 35.5 15.4646 31.2467 15.4646 26Z" fill="#2859C5"/>
</svg>
