<svg width="49" height="48" viewBox="0 0 49 48" fill="none" xmlns="http://www.w3.org/2000/svg">
<path d="M24.9644 27.5C16.7575 27.5 9.61553 32.1202 7.26546 38.7538C6.02546 42.2541 8.68041 45.2775 11.8849 45.7329C14.6619 46.1276 18.8907 46.5 24.9644 46.5C31.0381 46.5 35.2669 46.1276 38.0439 45.7329C41.2484 45.2775 43.9034 42.2541 42.6634 38.7538C40.3133 32.1202 33.1713 27.5 24.9644 27.5Z" fill="#2859C5"/>
<path fill-rule="evenodd" clip-rule="evenodd" d="M9.46356 17.0001C9.46356 8.43964 16.4032 1.5 24.9636 1.5C33.5241 1.5 40.4638 8.43964 40.4638 17.0001C40.4638 25.5606 33.5241 32.5002 24.9636 32.5002C16.4032 32.5002 9.46356 25.5606 9.46356 17.0001Z" fill="#8FBFFA"/>
<path fill-rule="evenodd" clip-rule="evenodd" d="M24.9645 1.00215C24.9406 1.00062 24.9167 0.999903 24.8926 1.00001C16.5672 1.03721 9.73814 7.52256 8.9693 15.8064C8.94084 16.113 9.04099 16.4177 9.24502 16.645C9.44905 16.8724 9.73796 17.0013 10.0404 17C16.8459 16.9696 22.6516 12.6304 24.9645 6.52228C27.2774 12.6304 33.0831 16.9696 39.8887 17C40.1911 17.0013 40.48 16.8724 40.684 16.645C40.8881 16.4177 40.9882 16.113 40.9597 15.8064C40.1909 7.52256 33.3618 1.03721 25.0364 1.00001C25.0123 0.999903 24.9884 1.00062 24.9645 1.00215Z" fill="#2859C5"/>
<path fill-rule="evenodd" clip-rule="evenodd" d="M22.2186 23.677C21.7641 22.9844 20.8341 22.7914 20.1415 23.2459C19.4489 23.7005 19.2559 24.6304 19.7104 25.323C20.9199 27.1659 23.0105 28 24.9645 28C26.9185 28 29.0091 27.1659 30.2186 25.323C30.6731 24.6304 30.4801 23.7004 29.7875 23.2459C29.0949 22.7914 28.1649 22.9844 27.7104 23.677C27.1699 24.5007 26.1355 25 24.9645 25C23.7935 25 22.7591 24.5007 22.2186 23.677ZM19.9645 16.5C20.7929 16.5 21.4645 17.1716 21.4645 18V18.5C21.4645 19.3284 20.7929 20 19.9645 20C19.1361 20 18.4645 19.3284 18.4645 18.5V18C18.4645 17.1716 19.1361 16.5 19.9645 16.5ZM28.4655 18C28.4655 17.1716 29.137 16.5 29.9655 16.5C30.7939 16.5 31.4655 17.1716 31.4655 18V18.5C31.4655 19.3284 30.7939 20 29.9655 20C29.137 20 28.4655 19.3284 28.4655 18.5V18Z" fill="#2859C5"/>
</svg>
