<svg width="49" height="48" viewBox="0 0 49 48" fill="none" xmlns="http://www.w3.org/2000/svg">
<path d="M15.9449 30.7392C15.9579 30.8866 15.9646 31.0358 15.9646 31.1865C15.9646 33.9479 13.726 36.1865 10.9646 36.1865C8.20314 36.1865 5.96456 33.9479 5.96456 31.1865C5.96456 28.4251 8.20314 26.1865 10.9646 26.1865C12.0123 26.1865 12.9848 26.5088 13.7882 27.0596L16.3412 23.9684C14.8411 22.8491 12.9802 22.1865 10.9646 22.1865C5.994 22.1865 1.96456 26.216 1.96456 31.1865C1.96456 36.1571 5.994 40.1865 10.9646 40.1865C15.9352 40.1865 19.9646 36.1571 19.9646 31.1865C19.9646 31.0661 19.9622 30.9462 19.9575 30.8269C18.811 30.8579 17.388 30.8533 15.9449 30.7392Z" fill="#2859C5"/>
<path fill-rule="evenodd" clip-rule="evenodd" d="M38.9646 26C41.726 26 43.9646 28.2386 43.9646 31C43.9646 33.7614 41.726 36 38.9646 36C36.2032 36 33.9646 33.7614 33.9646 31C33.9646 28.2386 36.2032 26 38.9646 26ZM47.9646 31C47.9646 26.0294 43.9352 22 38.9646 22C33.994 22 29.9646 26.0294 29.9646 31C29.9646 35.9706 33.994 40 38.9646 40C43.9352 40 47.9646 35.9706 47.9646 31Z" fill="#2859C5"/>
<path fill-rule="evenodd" clip-rule="evenodd" d="M39.2129 11.9848C40.3089 11.8478 41.0864 10.8482 40.9494 9.75214C40.8124 8.6561 39.8128 7.87865 38.7168 8.01565C36.5251 8.28961 34.7391 8.8379 33.4899 9.3237C32.8644 9.56695 32.3703 9.79577 32.0235 9.96917C31.8251 10.0684 31.6273 10.1707 31.4368 10.2846L31.4358 10.2852C30.6217 10.7737 30.2632 11.7674 30.5779 12.6632L31.8286 16.2229C30.8663 17.8691 28.9884 20.6829 27.1899 23.3073C26.513 24.295 25.8589 25.2393 25.2874 26.0597C24.8553 25.1912 24.3926 24.2746 23.9251 23.3485C23.6737 22.8504 23.4206 22.3488 23.1703 21.8511C22.2263 19.9736 21.3205 18.1444 20.6181 16.6041C21.0867 16.561 21.4877 16.5356 21.7963 16.5207C22.0192 16.5099 22.2423 16.5032 22.4653 16.4992C23.5697 16.4795 24.4653 15.6042 24.4653 14.4996C24.4653 13.395 23.5698 12.4833 22.4653 12.4994C22.1778 12.5036 21.8903 12.5115 21.603 12.5254C21.0822 12.5506 20.3498 12.6006 19.486 12.7003C17.7752 12.8977 15.4734 13.2981 13.263 14.1269C12.2288 14.5148 11.7048 15.6676 12.0926 16.7018C12.4805 17.7361 13.6333 18.2601 14.6675 17.8723C15.2821 17.6418 15.9154 17.4492 16.5443 17.2886C16.7751 17.8205 17.0334 18.3891 17.3109 18.9822L9.41009 28.742C8.98025 29.273 8.85117 29.9867 9.06779 30.6346C9.2844 31.2825 9.81675 31.775 10.4795 31.9407C13.7823 32.7664 17.5283 32.7507 20.3507 32.5583C21.7815 32.4607 23.0164 32.3145 23.896 32.1923C24.3364 32.1312 24.6894 32.0758 24.9352 32.0352C25.0582 32.0149 25.1545 31.9982 25.2216 31.9863C25.2411 31.9828 25.2605 31.9791 25.2797 31.9752C25.4529 31.9475 25.6253 31.8964 25.7927 31.8203C26.1495 31.6582 26.4356 31.4043 26.6359 31.0993C26.6508 31.0795 26.6654 31.0594 26.6798 31.0391C26.7344 30.9619 26.8146 30.8486 26.917 30.7034C27.1219 30.4131 27.4162 29.9953 27.7744 29.4841C28.4905 28.4621 29.4635 27.0655 30.4894 25.5685C31.4953 24.1007 32.5789 22.4981 33.524 21.0482L37.0779 31.1632C37.4441 32.2053 38.5857 32.7533 39.6278 32.3871C40.6699 32.021 41.2179 30.8794 40.8517 29.8372L34.9524 13.0468C35.9529 12.6587 37.4122 12.2099 39.2129 11.9848ZM21.9826 28.3988C21.4918 27.4051 20.9428 26.3172 20.3734 25.189L20.372 25.1862C20.1165 24.68 19.8569 24.1656 19.5966 23.648C19.4798 23.4156 19.3628 23.1825 19.2459 22.9492L14.6972 28.5683C16.5324 28.7178 18.4165 28.6809 20.0786 28.5675C20.7697 28.5204 21.4117 28.4609 21.9826 28.3988Z" fill="#8FBFFA"/>
</svg>
