<svg width="49" height="48" viewBox="0 0 49 48" fill="none" xmlns="http://www.w3.org/2000/svg">
<path d="M24.9645 46.5C32.579 46.5 37.8542 46.2057 41.1065 45.9332C44.2227 45.6721 46.7 43.3358 47.0048 40.1709C47.2431 37.6963 47.4645 34.0409 47.4645 29C47.4645 23.9591 47.2431 20.3037 47.0048 17.8291C46.7 14.6642 44.2227 12.3279 41.1065 12.0668C37.8542 11.7943 32.579 11.5 24.9645 11.5C17.35 11.5 12.0748 11.7943 8.8225 12.0668C5.70635 12.3279 3.22903 14.6642 2.92424 17.8291C2.68593 20.3037 2.46454 23.9591 2.46454 29C2.46454 34.0409 2.68593 37.6963 2.92424 40.1709C3.22903 43.3358 5.70635 45.6721 8.8225 45.9332C12.0748 46.2057 17.35 46.5 24.9645 46.5Z" fill="#8FBFFA"/>
<path fill-rule="evenodd" clip-rule="evenodd" d="M14.9645 5C12.6097 5 10.9645 6.74976 10.9645 9C10.9645 10.1076 11.4121 11.1072 12.1413 11.8336C10.8624 11.9081 9.75866 11.9884 8.8225 12.0668C8.42352 12.1002 8.03501 12.1677 7.6602 12.2665C7.21345 11.269 6.96454 10.1631 6.96454 9C6.96454 4.62282 10.3193 1 14.9645 1C18.604 1 21.5885 2.67062 23.6287 4.71079C24.1144 5.19645 24.5635 5.72082 24.9645 6.26855C25.3655 5.72082 25.8146 5.19645 26.3003 4.71079C28.3405 2.67062 31.325 1 34.9645 1C39.6097 1 42.9645 4.62282 42.9645 9C42.9645 10.1631 42.7156 11.269 42.2688 12.2665C41.894 12.1677 41.5055 12.1002 41.1065 12.0668C40.1704 11.9884 39.0666 11.9081 37.7877 11.8336C38.5169 11.1072 38.9645 10.1076 38.9645 9C38.9645 6.74976 37.3193 5 34.9645 5C32.604 5 30.5885 6.07938 29.1287 7.53921C27.5967 9.07122 26.9645 10.7175 26.9645 11.5C26.9645 11.5023 26.9645 11.5046 26.9645 11.5069C26.3166 11.5024 25.65 11.5 24.9645 11.5C24.2789 11.5 23.6124 11.5024 22.9645 11.5069C22.9645 11.5046 22.9645 11.5023 22.9645 11.5C22.9645 10.7175 22.3323 9.07122 20.8003 7.53921C19.3405 6.07938 17.325 5 14.9645 5Z" fill="#2859C5"/>
<path d="M22.9645 46.4931V11.5069C23.6124 11.5024 24.2789 11.5 24.9645 11.5C25.65 11.5 26.3166 11.5024 26.9645 11.5069V46.4931C26.3166 46.4976 25.6501 46.5 24.9645 46.5C24.2789 46.5 23.6124 46.4976 22.9645 46.4931Z" fill="#2859C5"/>
<path d="M2.47655 31H47.4525C47.4603 30.3591 47.4645 29.6926 47.4645 29C47.4645 28.3074 47.4603 27.6409 47.4525 27H2.47655C2.46872 27.6409 2.46454 28.3074 2.46454 29C2.46454 29.6927 2.46872 30.3591 2.47655 31Z" fill="#2859C5"/>
</svg>
