<svg width="49" height="48" viewBox="0 0 49 48" fill="none" xmlns="http://www.w3.org/2000/svg">
<path d="M24.9646 1.5C12.5382 1.5 2.46457 11.5736 2.46457 24C2.46457 36.4264 12.5382 46.5 24.9646 46.5C37.391 46.5 47.4646 36.4264 47.4646 24C47.4646 11.5736 37.391 1.5 24.9646 1.5Z" fill="#8FBFFA"/>
<path fill-rule="evenodd" clip-rule="evenodd" d="M13.9424 29.2035C14.7116 28.525 15.8484 28.1928 16.9829 28.3962C19.1061 28.7769 21.9175 29.1359 24.9641 29.1359C28.0108 29.1359 30.8222 28.7769 32.9454 28.3962C34.0799 28.1928 35.2167 28.525 35.9859 29.2035C36.7691 29.8944 37.175 30.9573 36.7682 32.1223C35.0649 36.9995 30.4239 40.4996 24.9641 40.4996C19.5044 40.4996 14.8634 36.9995 13.1601 32.1223C12.7533 30.9573 13.1592 29.8944 13.9424 29.2035Z" fill="#2859C5"/>
<path d="M36.8934 1.71025C37.2612 0.763249 38.668 0.763252 39.0358 1.71025L41.5986 8.30946L47.3315 11.0266C48.1756 11.4267 48.1756 12.5733 47.3315 12.9734L41.5986 15.6905L39.0358 22.2898C38.668 23.2368 37.2612 23.2367 36.8934 22.2898L34.3306 15.6905L28.5977 12.9734C27.7536 12.5733 27.7536 11.4267 28.5977 11.0266L34.3306 8.30946L36.8934 1.71025Z" fill="#2859C5"/>
<path d="M13.0358 1.71025C12.668 0.763249 11.2612 0.763252 10.8934 1.71025L8.33054 8.30946L2.59768 11.0266C1.75353 11.4267 1.75353 12.5733 2.59768 12.9734L8.33054 15.6905L10.8934 22.2898C11.2612 23.2368 12.668 23.2367 13.0358 22.2898L15.5986 15.6905L21.3315 12.9734C22.1756 12.5733 22.1756 11.4267 21.3315 11.0266L15.5986 8.30946L13.0358 1.71025Z" fill="#2859C5"/>
</svg>
