<svg width="49" height="48" viewBox="0 0 49 48" fill="none" xmlns="http://www.w3.org/2000/svg">
<path d="M23.1039 4.36679C21.7345 4.06393 20.5917 3.85156 19.7883 3.71449C18.6785 3.52516 17.544 3.5774 16.4348 3.76983C12.3599 4.47679 8.74976 5.68664 6.56713 6.51503C4.63797 7.24722 3.40304 9.04141 3.29698 11.0484C3.15535 13.7289 2.96457 18.6795 2.96457 25.9002C2.96457 32.8037 3.13896 37.6322 3.27806 40.3856C3.40012 42.8016 5.82557 44.2216 7.9673 43.4693C10.9186 42.4327 13.5718 41.7339 15.4851 41.2947C16.441 41.0753 17.2101 40.9212 17.7369 40.8225C17.9931 40.7745 18.1918 40.7396 18.3267 40.7167C21.7181 41.1855 25.1179 42.0881 27.7056 42.8893C29.0227 43.2971 30.1195 43.6756 30.8849 43.9512C31.2674 44.089 31.5667 44.201 31.7688 44.2778C31.8698 44.3163 31.9465 44.3459 31.9971 44.3656L32.0532 44.3876L32.0662 44.3927L32.0692 44.3939C32.3077 44.4888 32.5665 44.5209 32.821 44.4871C37.5686 43.8571 41.8848 42.4255 44.362 41.4853C46.2912 40.7531 47.5261 38.9589 47.6322 36.9519C47.7738 34.2714 47.9646 29.3208 47.9646 22.1002C47.9646 15.1966 47.7902 10.3681 47.6511 7.61468C47.5291 5.19871 45.1036 3.77872 42.9619 4.53097C40.0105 5.56759 37.3574 6.26644 35.4441 6.70559C34.4882 6.92498 33.7191 7.07906 33.1923 7.17778C33.0343 7.20738 32.8982 7.232 32.7854 7.25189C29.24 5.87337 25.7396 4.94972 23.1039 4.36679Z" fill="#8FBFFA"/>
<path d="M32.4646 7.12783V44.4912C32.3295 44.4768 32.1965 44.444 32.0692 44.3934L32.0662 44.3922L32.0532 44.3871L31.9971 44.3651C31.9465 44.3454 31.8698 44.3158 31.7688 44.2773C31.5667 44.2005 31.2674 44.0885 30.8849 43.9508C30.1195 43.6751 29.0227 43.2966 27.7056 42.8888C25.1179 42.0876 21.7181 41.185 18.3267 40.7162C18.2349 40.7318 18.1135 40.753 17.9646 40.78V3.60311C18.5744 3.57955 19.185 3.61108 19.7883 3.714C20.5917 3.85107 21.7345 4.06344 23.1039 4.36631C25.66 4.93164 29.0296 5.81744 32.4646 7.12783Z" fill="#2859C5"/>
</svg>
