<svg width="49" height="48" viewBox="0 0 49 48" fill="none" xmlns="http://www.w3.org/2000/svg">
<path d="M18.9646 1.5C13.8154 1.5 10.3775 1.64428 8.14007 1.80593C5.18709 2.01929 2.98356 4.223 2.77031 7.17594C2.60875 9.41328 2.46456 12.8509 2.46456 18C2.46456 23.1485 2.60872 26.586 2.77026 28.8235C2.9835 31.7772 5.18782 33.9813 8.14144 34.1945C9.65861 34.3039 11.7269 34.4054 14.5052 34.4594C14.5593 37.2379 14.6608 39.3063 14.7703 40.8235C14.9835 43.7772 17.1879 45.9813 20.1415 46.1945C22.3789 46.3559 25.8163 46.5 30.9646 46.5C36.1127 46.5 39.55 46.3559 41.7875 46.1945C44.7412 45.9813 46.9456 43.7771 47.1589 40.8233C47.3204 38.5858 47.4646 35.1482 47.4646 30C47.4646 24.8512 47.3204 21.4136 47.1588 19.1762C46.9456 16.2231 44.742 14.0193 41.7888 13.8059C40.2715 13.6963 38.203 13.5947 35.424 13.5407C35.3699 10.7619 35.2684 8.6934 35.1588 7.17618C34.9456 4.22313 32.742 2.01927 29.7888 1.80592C27.5514 1.64427 24.1137 1.5 18.9646 1.5Z" fill="#8FBFFA"/>
<path d="M30.9646 13.5C25.8154 13.5 22.3776 13.6443 20.1401 13.8059C17.1871 14.0193 14.9836 16.223 14.7704 19.1759C14.6088 21.4133 14.4646 24.8509 14.4646 30C14.4646 31.0732 14.4709 32.0719 14.4822 33.0008L14.5002 34.4645L15.9638 34.4824C16.8927 34.4937 17.8914 34.5 18.9646 34.5C24.1127 34.5 27.55 34.3559 29.7875 34.1945C32.7412 33.9813 34.9456 31.7771 35.1589 28.8233C35.3204 26.5858 35.4646 23.1482 35.4646 18C35.4646 16.9268 35.4583 15.9281 35.447 14.9992L35.429 13.5356L33.9654 13.5176C33.0365 13.5063 32.0378 13.5 30.9646 13.5Z" fill="#2859C5"/>
</svg>
