<svg width="49" height="48" viewBox="0 0 49 48" fill="none" xmlns="http://www.w3.org/2000/svg">
<path d="M36.9645 30.3125C36.9645 30.5647 36.7767 30.7774 36.5265 30.8086L36.5228 30.8091L36.5132 30.8103L36.4765 30.8147C36.4444 30.8185 36.3968 30.824 36.3342 30.8309C36.2088 30.8449 36.0229 30.8646 35.7783 30.8883C35.2891 30.9356 34.5654 30.9985 33.6228 31.0614C31.7376 31.1871 28.9766 31.3125 25.4649 31.3125C21.9532 31.3125 19.192 31.1871 17.3066 31.0614C16.3638 30.9985 15.64 30.9356 15.1508 30.8883C14.9062 30.8646 14.7202 30.8449 14.5949 30.8309C14.5322 30.824 14.4846 30.8185 14.4525 30.8147L14.4159 30.8103L14.4063 30.8091L14.4025 30.8086L14.4645 30.3125C14.4025 30.8086 14.4025 30.8086 14.4025 30.8086C14.1523 30.7774 13.9645 30.5647 13.9645 30.3125C13.9645 25.3202 14.9255 21.2886 15.6651 18.9243C16.1789 17.2819 17.4965 16.0472 19.2215 15.7604C20.6267 15.5267 22.6755 15.3125 25.4649 15.3125C28.2542 15.3125 30.3028 15.5267 31.7079 15.7604C33.4326 16.0472 34.75 17.2818 35.2638 18.924C36.0034 21.2882 36.9645 25.32 36.9645 30.3125Z" fill="#8FBFFA"/>
<path d="M36.9645 30.3125C36.9645 30.5647 36.7767 30.7774 36.5265 30.8086L36.5228 30.8091L36.5132 30.8103L36.4765 30.8147C36.4444 30.8185 36.3968 30.824 36.3342 30.8309C36.2088 30.8449 36.0229 30.8646 35.7783 30.8883C35.2891 30.9356 34.5654 30.9985 33.6228 31.0614C31.7376 31.1871 28.9766 31.3125 25.4649 31.3125C21.9532 31.3125 19.192 31.1871 17.3066 31.0614C16.3638 30.9985 15.64 30.9356 15.1508 30.8883C14.9062 30.8646 14.7202 30.8449 14.5949 30.8309C14.5322 30.824 14.4846 30.8185 14.4525 30.8147L14.4159 30.8103L14.4063 30.8091L14.4025 30.8086L14.4645 30.3125C14.4025 30.8086 14.4025 30.8086 14.4025 30.8086C14.1523 30.7774 13.9645 30.5647 13.9645 30.3125C13.9645 25.3202 14.9255 21.2886 15.6651 18.9243C16.1789 17.2819 17.4965 16.0472 19.2215 15.7604C20.6267 15.5267 22.6755 15.3125 25.4649 15.3125C28.2542 15.3125 30.3028 15.5267 31.7079 15.7604C33.4326 16.0472 34.75 17.2818 35.2638 18.924C36.0034 21.2882 36.9645 25.32 36.9645 30.3125Z" fill="#8FBFFA"/>
<path d="M25.4645 13.813C28.7782 13.813 31.4645 11.1267 31.4645 7.81299C31.4645 4.49928 28.7782 1.81299 25.4645 1.81299C22.1508 1.81299 19.4645 4.49928 19.4645 7.81299C19.4645 11.1267 22.1508 13.813 25.4645 13.813Z" fill="#8FBFFA"/>
<path d="M10.9645 27.3125C10.5379 27.3125 10.1314 27.4942 9.84686 27.8121C9.5623 28.13 9.4266 28.5541 9.47372 28.9781C10.2239 35.7299 10.9741 41.0797 11.3054 43.3528C11.5074 44.7384 12.6443 45.7992 14.0497 45.8923C16.2057 46.0352 20.967 46.3125 25.4645 46.3125C29.962 46.3125 34.7233 46.0352 36.8793 45.8923C38.2848 45.7992 39.4216 44.7384 39.6236 43.3528C39.9549 41.0797 40.7051 35.7299 41.4553 28.9781C41.5024 28.5541 41.3668 28.13 41.0822 27.8121C40.7976 27.4942 40.3912 27.3125 39.9645 27.3125H10.9645Z" fill="#2859C5"/>
<path fill-rule="evenodd" clip-rule="evenodd" d="M25.4645 20.3125C26.2929 20.3125 26.9645 20.9841 26.9645 21.8125V26.8125C26.9645 27.6409 26.2929 28.3125 25.4645 28.3125C24.6361 28.3125 23.9645 27.6409 23.9645 26.8125V21.8125C23.9645 20.9841 24.6361 20.3125 25.4645 20.3125Z" fill="#2859C5"/>
<path d="M6.96454 29.8125C6.96454 29.0201 7.07665 28.4047 7.21465 27.9496C7.54817 26.8497 8.55614 26.4113 9.34547 26.3998C10.9309 26.3766 16.1618 26.3125 25.4645 26.3125C34.7672 26.3125 39.9981 26.3766 41.5836 26.3998C42.3729 26.4113 43.3809 26.8497 43.7144 27.9496C43.8524 28.4047 43.9645 29.0201 43.9645 29.8125C43.9645 30.6049 43.8524 31.2203 43.7144 31.6754C43.3809 32.7753 42.3729 33.2137 41.5836 33.2252C39.9981 33.2484 34.7672 33.3125 25.4645 33.3125C16.1618 33.3125 10.9309 33.2484 9.34547 33.2252C8.55615 33.2137 7.54818 32.7753 7.21465 31.6754C7.07665 31.2203 6.96454 30.6049 6.96454 29.8125Z" fill="#2859C5"/>
</svg>
