<svg width="49" height="48" viewBox="0 0 49 48" fill="none" xmlns="http://www.w3.org/2000/svg">
<path d="M24.9652 1.5C17.5499 1.5 12.3564 1.72845 9.092 1.94597C5.83687 2.16288 3.22563 4.60273 2.9288 7.9036C2.68491 10.6158 2.45288 14.6518 2.45288 20.1919C2.45288 25.7321 2.68491 29.7681 2.9288 32.4802C3.22563 35.7811 5.83687 38.221 9.09199 38.4379C10.5965 38.5381 12.5108 38.6407 14.8634 38.7222V42.9193C14.8634 45.9405 18.434 47.5423 20.6906 45.5335L28.1771 38.869C33.9068 38.815 38.0675 38.6225 40.8385 38.4379C44.0936 38.221 46.7048 35.7811 47.0017 32.4803C47.2455 29.7681 47.4776 25.7321 47.4776 20.1919C47.4776 14.6518 47.2456 10.6158 47.0017 7.9036C46.7048 4.60273 44.0936 2.16288 40.8385 1.94598C37.574 1.72845 32.3806 1.5 24.9652 1.5Z" fill="#8FBFFA"/>
<path fill-rule="evenodd" clip-rule="evenodd" d="M24.2009 27.333C22.7742 27.333 21.6176 28.4896 21.6176 29.9164C21.6176 31.3431 22.7742 32.4998 24.2009 32.4998C25.6277 32.4998 26.7843 31.3431 26.7843 29.9164C26.7843 28.4896 25.6277 27.333 24.2009 27.333ZM19.0812 12.1979C19.35 11.1247 20.2237 9.9503 21.6592 9.02073C23.0758 8.10336 24.9334 7.5 26.9593 7.5C29.4209 7.5 31.0326 8.36465 32.0484 9.53523C33.0943 10.7405 33.6261 12.409 33.6261 14.1668C33.6261 15.9532 32.9847 17.1893 31.8592 18.282C30.656 19.4502 28.9334 20.4246 26.7525 21.5952C26.2657 21.8565 25.962 22.3643 25.962 22.9168V23.333C25.962 23.8853 25.5142 24.333 24.962 24.333H22.8411C22.2883 24.333 21.8404 23.8844 21.8411 23.3316L21.8454 20.3113C21.8454 19.6363 22.3617 18.8207 23.6591 17.8532C24.6394 17.1222 25.7744 16.5116 26.8349 15.941C27.1256 15.7847 27.4107 15.6313 27.6854 15.4793C28.401 15.0834 28.6676 14.1873 28.2849 13.4647C27.9021 12.742 27.0111 12.4591 26.2815 12.8286C24.9662 13.4948 23.3145 14.4577 22.3617 15.0238C21.8847 15.3073 21.5656 15.4239 21.3156 15.4375C20.4104 15.4868 19.7878 15.1311 19.4163 14.6189C19.0281 14.0838 18.8203 13.2392 19.0812 12.1979Z" fill="#2859C5"/>
</svg>
