<svg width="49" height="48" viewBox="0 0 49 48" fill="none" xmlns="http://www.w3.org/2000/svg">
<g clip-path="url(#clip0_1311_187)">
<path fill-rule="evenodd" clip-rule="evenodd" d="M8.29691 6.93659C11.2308 6.72779 16.0223 6.5 22.9646 6.5C29.9069 6.5 34.6984 6.72778 37.6322 6.93659C40.4674 7.13836 42.7311 9.27659 42.997 12.1465C43.0748 12.9867 43.1527 13.978 43.2219 15.1277L44.8687 15.2949C46.0862 15.4186 47.2789 16.2086 47.6668 17.5692C48.0259 18.8287 48.4646 20.988 48.4646 24.0158C48.4646 27.0395 48.0271 29.1972 47.6682 30.4574C47.2794 31.8229 46.0805 32.6139 44.8584 32.7336L43.2206 32.8941C43.1517 34.0346 43.0743 35.0187 42.997 35.8535C42.7311 38.7234 40.4674 40.8616 37.6322 41.0634C34.6984 41.2722 29.9069 41.5 22.9646 41.5C16.0223 41.5 11.2308 41.2722 8.29691 41.0634C5.46178 40.8616 3.19802 38.7234 2.93218 35.8535C2.69852 33.331 2.46456 29.4457 2.46456 24C2.46456 18.5543 2.69852 14.669 2.93217 12.1465C3.19801 9.2766 5.46177 7.13837 8.29691 6.93659Z" fill="#8FBFFA"/>
<path fill-rule="evenodd" clip-rule="evenodd" d="M19.012 12.9848C19.3014 13.2671 19.4646 13.6543 19.4646 14.0586V33.9413C19.4646 34.3456 19.3014 34.7328 19.012 35.0151C18.7226 35.2974 18.3315 35.4509 17.9273 35.4408C15.5751 35.3823 13.8139 35.2895 12.5883 35.2051C10.6239 35.0699 9.00889 33.6017 8.79908 31.5832C8.63314 29.9869 8.46456 27.5031 8.46456 23.9999C8.46456 20.4968 8.63314 18.013 8.79908 16.4167C9.00889 14.3982 10.6239 12.93 12.5883 12.7948C13.8139 12.7104 15.5751 12.6176 17.9273 12.5591C18.3315 12.549 18.7226 12.7025 19.012 12.9848Z" fill="#2859C5"/>
</g>
<defs>
<clipPath id="clip0_1311_187">
<rect width="48" height="48" fill="white" transform="translate(0.964561)"/>
</clipPath>
</defs>
</svg>
