<svg width="49" height="48" viewBox="0 0 49 48" fill="none" xmlns="http://www.w3.org/2000/svg">
<path d="M29.4646 10.5C24.2984 10.5 20.4984 10.6722 17.9053 10.8574C14.6039 11.0932 12.0578 13.6393 11.822 16.9407C11.6368 19.5338 11.4646 23.3338 11.4646 28.5C11.4646 33.6662 11.6368 37.4662 11.822 40.0593C12.0578 43.3607 14.6039 45.9068 17.9053 46.1426C20.4984 46.3278 24.2984 46.5 29.4646 46.5C34.6308 46.5 38.4308 46.3278 41.0239 46.1426C44.3253 45.9068 46.8714 43.3607 47.1072 40.0593C47.2924 37.4662 47.4646 33.6662 47.4646 28.5C47.4646 23.3338 47.2924 19.5338 47.1072 16.9407C46.8714 13.6393 44.3253 11.0932 41.0239 10.8574C38.4308 10.6722 34.6308 10.5 29.4646 10.5Z" fill="#8FBFFA"/>
<path d="M8.90528 1.8574C11.4984 1.67219 15.2984 1.5 20.4646 1.5C25.6308 1.5 29.4308 1.67219 32.0239 1.8574C35.2386 2.087 37.7371 4.5071 38.0839 7.68205C35.772 7.57579 32.9141 7.5 29.4646 7.5C24.2319 7.5 20.3605 7.6744 17.6916 7.86502C12.9018 8.20712 9.17172 11.9372 8.82962 16.727C8.639 19.3959 8.4646 23.2673 8.4646 28.5C8.4646 31.9495 8.54039 34.8074 8.64665 37.1193C5.4717 36.7725 3.0516 34.274 2.822 31.0593C2.63679 28.4662 2.4646 24.6662 2.4646 19.5C2.4646 14.3338 2.63679 10.5338 2.822 7.94069C3.05779 4.6393 5.6039 2.09319 8.90528 1.8574Z" fill="#2859C5"/>
<path d="M44.3815 34.3897C43.0069 33.1426 41.9356 32.2257 41.1191 31.5578C39.6257 30.3364 37.6213 30.143 35.9826 31.2359C34.9189 31.9454 33.4902 33.0006 31.6539 34.5575C28.8624 31.9001 26.9141 30.2033 25.6131 29.1392C24.1197 27.9177 22.1153 27.7243 20.4766 28.8173C19.1183 29.7232 17.164 31.1935 14.5251 33.5534C14.5904 36.1652 14.7005 38.249 14.8145 39.8456C14.944 41.6586 16.3061 43.0207 18.1192 43.1502C20.6365 43.33 24.3651 43.5 29.4648 43.5C34.5645 43.5 38.293 43.33 40.8103 43.1502C42.6234 43.0207 43.9855 41.6586 44.115 39.8456C44.2166 38.4232 44.315 36.6142 44.3815 34.3897Z" fill="#2859C5"/>
<path d="M33.4646 20.5C33.4646 18.2909 35.2555 16.5 37.4646 16.5C39.6737 16.5 41.4646 18.2909 41.4646 20.5C41.4646 22.7091 39.6737 24.5 37.4646 24.5C35.2555 24.5 33.4646 22.7091 33.4646 20.5Z" fill="#2859C5"/>
<path d="M47.2804 37.0912C44.424 34.3674 42.4383 32.637 41.1189 31.5578C39.6255 30.3364 37.6211 30.143 35.9825 31.2359C34.9188 31.9454 33.49 33.0006 31.6538 34.5575C28.8622 31.9001 26.9139 30.2033 25.6129 29.1392C24.1195 27.9177 22.1152 27.7243 20.4765 28.8173C18.6596 30.0291 15.7755 32.2512 11.6121 36.2628C11.6726 37.7373 11.7461 38.9992 11.8218 40.0593C12.0576 43.3607 14.6037 45.9068 17.9051 46.1426C20.4982 46.3278 24.2982 46.5 29.4644 46.5C34.6306 46.5 38.4306 46.3278 41.0237 46.1426C44.3251 45.9068 46.8712 43.3607 47.107 40.0593C47.1681 39.2034 47.2279 38.2159 47.2804 37.0912Z" fill="#2859C5"/>
</svg>
