<svg width="49" height="48" viewBox="0 0 49 48" fill="none" xmlns="http://www.w3.org/2000/svg">
<path fill-rule="evenodd" clip-rule="evenodd" d="M30.3597 7.38544C31.1865 4.87151 34.7427 4.87153 35.5695 7.38544L38.0467 14.9179L45.5792 17.3951C48.0931 18.2219 48.0931 21.7781 45.5792 22.6049L38.0467 25.0821L35.5695 32.6146C34.7427 35.1285 31.1865 35.1285 30.3597 32.6146L27.8825 25.0821L20.35 22.6049C17.8361 21.7781 17.8361 18.2219 20.35 17.3951L27.8825 14.9179L30.3597 7.38544Z" fill="#2859C5"/>
<path d="M19.3589 25.233C18.599 22.9223 15.3302 22.9223 14.5703 25.233L12.7456 30.781L7.19761 32.6057C4.88689 33.3656 4.88689 36.6344 7.19761 37.3943L12.7456 39.219L14.5703 44.767C15.3302 47.0777 18.599 47.0777 19.3589 44.767L21.1836 39.219L26.7316 37.3943C29.0423 36.6344 29.0423 33.3656 26.7316 32.6057L21.1836 30.781L19.3589 25.233Z" fill="#8FBFFA"/>
<path d="M15.262 3.16288C14.5328 0.945709 11.3964 0.945705 10.6672 3.16288L9.04868 8.08411L4.12745 9.70261C1.91028 10.4318 1.91027 13.5682 4.12745 14.2974L9.04868 15.9159L10.6672 20.8371C11.3964 23.0543 14.5328 23.0543 15.262 20.8371L16.8805 15.9159L21.8017 14.2974C24.0189 13.5682 24.0189 10.4318 21.8017 9.70261L16.8805 8.08411L15.262 3.16288Z" fill="#8FBFFA"/>
</svg>
