<svg width="24" height="24" viewBox="0 0 24 24" fill="none" xmlns="http://www.w3.org/2000/svg">
<path fill-rule="evenodd" clip-rule="evenodd" d="M11.9832 13.688C12.9265 13.688 13.6912 12.9323 13.6912 12C13.6912 11.0678 12.9265 10.312 11.9832 10.312C11.0398 10.312 10.2751 11.0678 10.2751 12C10.2751 12.9323 11.0398 13.688 11.9832 13.688Z" fill="white" stroke="#1F4F77" stroke-width="1.45512"/>
<path fill-rule="evenodd" clip-rule="evenodd" d="M7.83041 15.6076C8.55177 15.6076 9.13654 15.0296 9.13654 14.3167C9.13654 13.6038 8.55177 13.0259 7.83041 13.0259C7.10906 13.0259 6.52429 13.6038 6.52429 14.3167C6.52429 15.0296 7.10906 15.6076 7.83041 15.6076Z" fill="white" stroke="#2C76B7" stroke-width="0.795918"/>
<path fill-rule="evenodd" clip-rule="evenodd" d="M7.83025 10.9408C8.5331 10.9408 9.10288 10.3777 9.10288 9.68303C9.10288 8.9884 8.5331 8.42529 7.83025 8.42529C7.12739 8.42529 6.55762 8.9884 6.55762 9.68303C6.55762 10.3777 7.12739 10.9408 7.83025 10.9408Z" fill="white" stroke="#2C76B7" stroke-width="0.77551"/>
<path fill-rule="evenodd" clip-rule="evenodd" d="M11.9831 8.57445C12.6952 8.57445 13.2725 8.00394 13.2725 7.30017C13.2725 6.5964 12.6952 6.02588 11.9831 6.02588C11.271 6.02588 10.6937 6.5964 10.6937 7.30017C10.6937 8.00394 11.271 8.57445 11.9831 8.57445Z" fill="white" stroke="#2C76B7" stroke-width="0.785714"/>
<path fill-rule="evenodd" clip-rule="evenodd" d="M16.1526 10.9242C16.8555 10.9242 17.4253 10.3611 17.4253 9.66643C17.4253 8.9718 16.8555 8.40869 16.1526 8.40869C15.4498 8.40869 14.88 8.9718 14.88 9.66643C14.88 10.3611 15.4498 10.9242 16.1526 10.9242Z" fill="white" stroke="#2C76B7" stroke-width="0.77551"/>
<path fill-rule="evenodd" clip-rule="evenodd" d="M16.1527 15.6077C16.8648 15.6077 17.442 15.0371 17.442 14.3334C17.442 13.6296 16.8648 13.0591 16.1527 13.0591C15.4406 13.0591 14.8633 13.6296 14.8633 14.3334C14.8633 15.0371 15.4406 15.6077 16.1527 15.6077Z" fill="white" stroke="#2C76B7" stroke-width="0.785714"/>
<path fill-rule="evenodd" clip-rule="evenodd" d="M11.9831 18.1397C12.7137 18.1397 13.306 17.5543 13.306 16.8323C13.306 16.1102 12.7137 15.5249 11.9831 15.5249C11.2525 15.5249 10.6603 16.1102 10.6603 16.8323C10.6603 17.5543 11.2525 18.1397 11.9831 18.1397Z" fill="white" stroke="#2C76B7" stroke-width="0.806122"/>
<path fill-rule="evenodd" clip-rule="evenodd" d="M5.35202 16.5345C5.75894 16.5345 6.08881 16.2084 6.08881 15.8063C6.08881 15.4041 5.75894 15.0781 5.35202 15.0781C4.94511 15.0781 4.61523 15.4041 4.61523 15.8063C4.61523 16.2084 4.94511 16.5345 5.35202 16.5345Z" fill="#2C76B7"/>
<path fill-rule="evenodd" clip-rule="evenodd" d="M11.983 20.3079C12.3899 20.3079 12.7198 19.9819 12.7198 19.5797C12.7198 19.1776 12.3899 18.8516 11.983 18.8516C11.5761 18.8516 11.2462 19.1776 11.2462 19.5797C11.2462 19.9819 11.5761 20.3079 11.983 20.3079Z" fill="#2C76B7"/>
<path fill-rule="evenodd" clip-rule="evenodd" d="M18.6477 16.5345C19.0546 16.5345 19.3845 16.2084 19.3845 15.8063C19.3845 15.4041 19.0546 15.0781 18.6477 15.0781C18.2408 15.0781 17.9109 15.4041 17.9109 15.8063C17.9109 16.2084 18.2408 16.5345 18.6477 16.5345Z" fill="#2C76B7"/>
<path fill-rule="evenodd" clip-rule="evenodd" d="M18.6477 8.95486C19.0546 8.95486 19.3845 8.62885 19.3845 8.2267C19.3845 7.82455 19.0546 7.49854 18.6477 7.49854C18.2408 7.49854 17.9109 7.82455 17.9109 8.2267C17.9109 8.62885 18.2408 8.95486 18.6477 8.95486Z" fill="#2C76B7"/>
<path fill-rule="evenodd" clip-rule="evenodd" d="M11.983 5.14871C12.3899 5.14871 12.7198 4.8227 12.7198 4.42055C12.7198 4.01839 12.3899 3.69238 11.983 3.69238C11.5761 3.69238 11.2462 4.01839 11.2462 4.42055C11.2462 4.8227 11.5761 5.14871 11.983 5.14871Z" fill="#2C76B7"/>
<path fill-rule="evenodd" clip-rule="evenodd" d="M5.35202 8.95486C5.75894 8.95486 6.08881 8.62885 6.08881 8.2267C6.08881 7.82455 5.75894 7.49854 5.35202 7.49854C4.94511 7.49854 4.61523 7.82455 4.61523 8.2267C4.61523 8.62885 4.94511 8.95486 5.35202 8.95486Z" fill="#2C76B7"/>
<path d="M5.60698 8.62643L6.54471 9.156L6.77167 8.75412L5.83394 8.22455L5.60698 8.62643ZM5.86859 15.7784L6.80632 15.2422L6.57722 14.8415L5.63949 15.3777L5.86859 15.7784ZM12.278 19.3182V18.2524H11.8165V19.3182H12.278ZM18.3939 15.3777L17.4562 14.8415L17.2271 15.2422L18.1648 15.7784L18.3939 15.3777ZM18.1042 8.23811L17.2 8.82064L17.4499 9.20864L18.3542 8.62611L18.1042 8.23811ZM11.7829 4.81445V5.88022H12.2444V4.81445H11.7829ZM9.34986 9.06037L10.8904 8.1965L10.6647 7.79394L9.12412 8.6578L9.34986 9.06037ZM13.1783 8.25529L14.7122 9.12908L14.9407 8.72805L13.4068 7.85426L13.1783 8.25529ZM15.8687 11.2587V13.0096H16.3302V11.2587H15.8687ZM14.7122 14.9373L13.1783 15.8111L13.4068 16.2121L14.9407 15.3383L14.7122 14.9373ZM10.721 15.778L9.18715 14.9042L8.95869 15.3052L10.4926 16.179L10.721 15.778ZM8.12529 12.9434V11.1925H7.66375V12.9434H8.12529Z" fill="#2C76B7"/>
</svg>
