<svg width="24" height="24" viewBox="0 0 24 24" fill="none" xmlns="http://www.w3.org/2000/svg">
<path opacity="0.3" d="M12 24C18.6274 24 24 18.6274 24 12C24 5.37258 18.6274 0 12 0C5.37258 0 0 5.37258 0 12C0 18.6274 5.37258 24 12 24Z" fill="#101429"/>
<path fill-rule="evenodd" clip-rule="evenodd" d="M11.1674 9.67034C11.4758 9.23118 11.7425 8.76055 11.9929 8.28223C12.0801 8.45915 12.1913 8.62488 12.2511 8.81649C12.19 9.06195 12.0222 9.25705 11.9025 9.47244C11.3086 10.4291 10.528 11.3501 9.46965 11.685C8.7333 11.9333 7.95986 11.7571 7.22936 11.5822C7.97027 12.8466 8.69817 14.12 9.43322 15.3878C9.28817 15.4585 9.14376 15.5305 8.9987 15.6004C8.82762 15.3612 8.69101 15.0976 8.54335 14.8424C7.72113 13.3906 6.8859 11.9466 6.06824 10.492C7.02381 10.955 8.04963 11.4689 9.12619 11.2871C10.0044 11.134 10.6581 10.4025 11.1674 9.67034Z" fill="white"/>
<path fill-rule="evenodd" clip-rule="evenodd" d="M12.8801 10.5313C12.713 10.3446 12.9699 10.139 13.0382 9.96484C13.5085 10.5537 14.0634 11.1565 14.8069 11.2921C15.901 11.4411 16.9691 10.997 17.9279 10.476C17.1324 11.9096 16.305 13.3236 15.4964 14.7502C15.3299 15.032 15.1848 15.3292 14.991 15.5921C14.7093 15.4844 14.4472 15.3257 14.1629 15.2257C13.2412 14.8879 12.2492 14.804 11.2832 14.9019C11.0471 14.9159 10.8142 15.0089 10.5774 14.9844C10.4779 14.8481 10.4187 14.6844 10.3497 14.5292C11.224 14.3348 12.1275 14.2963 13.0128 14.4229C13.6269 14.5159 14.2481 14.6418 14.803 14.9523C15.4678 13.8215 16.1085 12.6739 16.7837 11.5502C16.0975 11.7383 15.3761 11.9446 14.667 11.7697C13.9515 11.6096 13.3732 11.083 12.8801 10.5313Z" fill="white"/>
</svg>
