<svg width="24" height="24" viewBox="0 0 24 24" fill="none" xmlns="http://www.w3.org/2000/svg">
<path opacity="0.2" d="M12 24C18.6274 24 24 18.6274 24 12C24 5.37258 18.6274 0 12 0C5.37258 0 0 5.37258 0 12C0 18.6274 5.37258 24 12 24Z" fill="#384A53"/>
<path fill-rule="evenodd" clip-rule="evenodd" d="M12.0001 20.3038C16.5864 20.3038 20.3043 16.5859 20.3043 11.9996C20.3043 7.41326 16.5864 3.69531 12.0001 3.69531C7.41374 3.69531 3.6958 7.41326 3.6958 11.9996C3.6958 16.5859 7.41374 20.3038 12.0001 20.3038Z" fill="#7ABDC1" fill-opacity="0.01" stroke="white" stroke-width="0.822987" stroke-linejoin="bevel"/>
<path fill-rule="evenodd" clip-rule="evenodd" d="M7.49093 17.6095C7.49093 17.6095 8.67385 16.4266 8.06611 16.0576C7.91417 15.7429 7.76224 16.0034 7.6103 16.5677C7.52348 16.9367 7.44752 15.8731 7.67542 15.7972C7.89247 15.7103 6.91574 14.8421 6.7204 14.7662C6.5142 14.6794 6.93745 14.484 7.48007 14.9941C8.01185 15.5041 8.00099 15.6452 8.06611 15.5693C8.13122 15.4933 8.08781 15.222 7.99014 15.1026C7.89247 14.9832 7.44752 14.0282 7.51263 14.0499C7.57775 14.0716 8.19634 14.7553 8.36998 15.2111C8.55447 15.6561 8.54362 14.3646 8.54362 14.3646C8.54362 14.3646 8.6847 13.8437 8.74982 13.6918C8.81493 13.5398 8.94516 14.0391 8.94516 14.0391C8.94516 14.0391 9.04284 14.6468 9.33585 14.8638C9.62887 15.0809 9.55291 14.5708 9.55291 14.5708L9.44438 12.129L9.95445 11.6732C9.95445 11.6732 9.90019 13.5941 10.2041 13.4856C10.5079 13.3771 10.5622 12.5306 10.5622 12.5306C10.5622 12.5306 10.7684 11.1523 10.7575 11.0763C10.7467 11.0003 11.018 10.8484 11.018 10.8484L11.7017 10.2298C11.7017 10.2298 11.68 10.9135 11.9622 11.0546C12.2443 11.2065 12.2552 10.3492 12.2552 10.3492L12.3529 9.51355C12.3529 9.51355 16.0644 6.52911 16.8132 6.35547C17.4644 7.01747 17.4535 8.11358 17.1822 8.43915C16.9218 8.76473 14.5125 12.0096 14.5125 12.0096C14.5125 12.0096 13.449 11.9337 13.3187 12.2375C13.1885 12.5414 14.2086 12.4654 14.2086 12.4654L12.5265 14.7011C11.3544 14.2344 9.7374 15.0483 9.55291 15.3414C9.55291 15.3414 9.42267 15.5259 9.81337 15.5476C10.2041 15.5693 12.9823 15.591 12.9823 15.591L11.8428 15.8948C11.8428 15.8948 9.62887 15.8731 9.43353 15.7646C9.23818 15.6561 9.35756 15.9491 9.35756 15.9491C9.35756 15.9491 9.74825 16.6328 10.5296 16.8064C11.311 16.9801 9.74825 16.7196 9.74825 16.7196C9.74825 16.7196 9.12966 16.5677 8.95602 16.0902C8.78238 15.6235 8.74982 16.2204 8.74982 16.2204C8.74982 16.2204 9.06454 16.9475 9.60717 17.0995C10.1389 17.2514 9.29244 17.1103 9.29244 17.1103C9.29244 17.1103 8.56533 16.8282 8.50021 16.6437C8.4351 16.4592 8.31572 16.8499 8.31572 16.8499C8.31572 16.8499 7.67542 17.6312 7.50178 17.6529C7.32814 17.6747 7.49093 17.6095 7.49093 17.6095Z" fill="white"/>
</svg>
