<svg width="24" height="24" viewBox="0 0 24 24" fill="none" xmlns="http://www.w3.org/2000/svg">
<path opacity="0.2" d="M12 24C18.6274 24 24 18.6274 24 12C24 5.37258 18.6274 0 12 0C5.37258 0 0 5.37258 0 12C0 18.6274 5.37258 24 12 24Z" fill="#35A4F3"/>
<path fill-rule="evenodd" clip-rule="evenodd" d="M6.15967 6.24341C6.80686 5.53168 7.92672 5.34352 8.78936 5.74963C9.02301 5.85591 9.23185 6.01058 9.41298 6.1913C10.2802 7.04405 11.142 7.90177 11.9947 8.7694C12.4145 8.36444 12.825 7.94993 13.2355 7.53543L13.2355 7.53539C13.7167 7.04954 14.1978 6.56371 14.6939 6.09329C15.5648 5.28521 17.0796 5.37826 17.8616 6.26616C18.6552 7.08665 18.661 8.52789 17.8699 9.35169C16.9965 10.24 16.1136 11.1192 15.2307 11.9984L15.2306 11.9984C15.5861 12.3599 15.9454 12.7175 16.3047 13.0751C16.836 13.6038 17.3672 14.1325 17.886 14.6737C18.7015 15.5227 18.6366 17.0231 17.7789 17.82C17.0539 18.5566 15.8108 18.6662 14.9499 18.1083C14.7621 17.9926 14.6068 17.8367 14.4521 17.6814C14.4133 17.6424 14.3746 17.6035 14.3353 17.5653C13.8885 17.122 13.4446 16.6758 13.0007 16.2296L13.0005 16.2294C12.6702 15.8974 12.3399 15.5653 12.0084 15.2345C11.6167 15.6145 11.2316 16.001 10.8465 16.3876C10.33 16.9059 9.81353 17.4243 9.28147 17.9267C8.39443 18.7315 6.86558 18.6079 6.10094 17.6927C5.41612 16.9458 5.35451 15.7262 5.92767 14.8975C6.03113 14.7444 6.16164 14.6135 6.29175 14.4829L6.29175 14.4829L6.29176 14.4829C6.32651 14.4481 6.36122 14.4132 6.39538 14.378C7.07772 13.6824 7.76875 12.9951 8.46391 12.3119L8.63306 12.4816C8.90076 12.7502 9.16848 13.0189 9.43903 13.285C9.13341 13.598 8.82272 13.9061 8.512 14.2142L8.51199 14.2142C8.03986 14.6823 7.5677 15.1505 7.11329 15.6361C6.78122 15.9884 6.89329 16.5881 7.24562 16.885C7.45404 17.0794 7.76378 17.1236 8.03424 17.0616C8.29226 16.9856 8.486 16.7937 8.67337 16.6081C8.70012 16.5816 8.72673 16.5552 8.75338 16.5293C9.11218 16.1666 9.47248 15.8052 9.8328 15.4437C10.2292 15.0461 10.6255 14.6485 11.02 14.249C10.3719 13.5977 9.72121 12.949 9.07055 12.3004L9.07045 12.3003C8.09448 11.3273 7.11855 10.3544 6.1514 9.37278C5.33011 8.54691 5.3392 7.06638 6.15967 6.24341ZM7.08299 7.28889C6.84025 7.62594 6.85224 8.14578 7.1719 8.43072C7.6502 8.93068 8.14081 9.41873 8.63141 9.90674L8.63141 9.90675L8.63145 9.90678C9.00276 10.2761 9.37406 10.6455 9.73998 11.02C9.98259 10.7918 10.2172 10.5552 10.4518 10.3184L10.4518 10.3184C10.6395 10.129 10.8272 9.93958 11.0191 9.75451L10.8517 9.58544L10.8516 9.58535C10.0573 8.78273 9.2629 7.98012 8.45842 7.18799C8.32113 7.05317 8.14372 6.95846 7.95349 6.92621C7.62556 6.86128 7.27239 7.01719 7.08299 7.28889ZM12.9712 9.75374C13.8327 8.88884 14.6942 8.02394 15.5648 7.16814C15.7505 6.99445 16.0073 6.89436 16.2624 6.91339C16.5101 6.93779 16.7512 7.06351 16.8997 7.26615C17.0862 7.52049 17.1383 7.87408 17.0155 8.16687C16.964 8.29225 16.8697 8.39104 16.7774 8.48783C16.7674 8.4983 16.7574 8.50876 16.7475 8.51922C16.3233 8.96665 15.8844 9.39974 15.4455 9.83282C15.048 10.2251 14.6504 10.6174 14.2638 11.0204C13.9686 10.7442 13.6827 10.4579 13.3968 10.1717C13.3587 10.1335 13.3206 10.0954 13.2825 10.0572C12.9632 10.3852 12.6406 10.7098 12.3135 11.0299C13.4744 12.2024 14.6431 13.3676 15.8118 14.5329C16.0715 14.7919 16.3312 15.0508 16.5908 15.3098C16.8248 15.5327 17.0585 15.8007 17.0903 16.1365C17.0986 16.4074 16.9919 16.689 16.7785 16.8627C16.4609 17.1389 15.9217 17.1803 15.6119 16.8701C14.9528 16.2485 14.3168 15.603 13.6809 14.9578C13.447 14.7204 13.2131 14.4831 12.9781 14.247C13.177 14.0529 13.3726 13.8557 13.5683 13.6584C13.6925 13.5333 13.8166 13.4082 13.9416 13.2838C13.7097 13.0588 13.4817 12.83 13.2536 12.6011C13.1576 12.5048 13.0616 12.4084 12.9653 12.3123C12.8054 12.474 12.6444 12.6346 12.4833 12.7952C12.3222 12.9557 12.1611 13.1163 12.0013 13.278C11.5882 12.8539 11.1639 12.441 10.7395 12.0279L10.7164 12.0055C11.472 11.2589 12.2216 10.5063 12.9712 9.75374Z" fill="#35A4F3"/>
</svg>
