<svg width="24" height="24" viewBox="0 0 24 24" fill="none" xmlns="http://www.w3.org/2000/svg">
<path fill-rule="evenodd" clip-rule="evenodd" d="M10.7316 1.97313C11.1037 1.88552 11.486 1.86252 11.8672 1.87895C12.2366 1.87128 12.5756 2.03227 12.9189 2.14617C13.2048 2.25076 13.4556 2.43147 13.741 2.5377C13.755 2.55796 13.7827 2.59958 13.7962 2.62038C14.0886 2.77699 14.348 2.98891 14.6329 3.15921C14.8392 3.23478 15.0266 3.35141 15.2269 3.44231C16.3116 3.91105 17.4852 4.09887 18.6386 4.30969C19.2641 4.42852 19.9302 4.45152 20.4934 4.78445C20.9981 5.02868 21.3155 5.53355 21.5164 6.04281C21.7411 6.87843 21.668 7.7595 21.5137 8.60004C21.4471 8.79827 21.3756 8.99705 21.3555 9.20732C21.3263 9.21225 21.2981 9.21718 21.27 9.2221C21.2494 9.32779 21.3209 9.50247 21.1703 9.52437C20.0661 7.71678 18.4361 6.26458 16.5884 5.26961C16.525 5.20774 16.4454 5.16722 16.356 5.16886C15.9374 5.0128 15.5188 4.84359 15.0748 4.77952C14.9659 4.75543 14.8587 4.72312 14.7526 4.69136C13.9901 4.24015 13.1334 3.99264 12.2864 3.76101C11.069 3.4675 9.8213 3.29885 8.57035 3.27037C8.28225 3.26051 7.99361 3.2868 7.70605 3.25723C7.71689 3.25066 7.73909 3.23697 7.74992 3.2304C8.02231 3.23149 8.29579 3.21397 8.5671 3.25285C9.17633 2.66364 9.91716 2.20476 10.7316 1.97313Z" fill="#ECE638"/>
<path fill-rule="evenodd" clip-rule="evenodd" d="M6.28888 3.50599C6.7454 3.35102 7.22845 3.29791 7.70609 3.25684C7.99365 3.28641 8.28229 3.26012 8.57038 3.26998C7.98336 3.79238 7.48568 4.40622 6.97772 5.00474C6.57319 5.51947 6.2239 6.07527 5.86919 6.6256C5.63254 6.97058 5.46683 7.35663 5.27133 7.72515C4.82619 8.63853 4.48123 9.60338 4.26407 10.5983C4.22075 10.876 4.16389 11.1514 4.11352 11.4279C3.99601 12.3862 3.97489 13.3686 4.18338 14.3165C4.29331 14.9659 4.54838 15.5814 4.85922 16.1575C4.97132 16.371 5.11212 16.5665 5.26321 16.7527C5.57134 17.47 5.96938 18.1463 6.45568 18.7541C5.71431 18.6966 5.00165 18.4519 4.31227 18.1824C3.87958 17.9798 3.44039 17.7635 3.09002 17.4295C2.27879 16.8124 1.86235 15.7785 1.86776 14.7677C1.86126 14.2519 1.92462 13.7349 2.05838 13.2366C2.2945 12.148 2.87773 11.1793 3.16204 10.1055C3.47667 9.07113 3.63968 7.99895 3.85954 6.94156C3.99114 6.24557 4.18013 5.55178 4.51534 4.92534C4.89117 4.23866 5.54643 3.72502 6.28888 3.50599Z" fill="#BAD047"/>
<path fill-rule="evenodd" clip-rule="evenodd" d="M8.57039 3.27051C9.82134 3.29898 11.069 3.46764 12.2864 3.76115C13.1334 3.99278 13.9901 4.24029 14.7526 4.6915C12.1196 4.28081 9.3215 5.10383 7.33947 6.90813C6.32571 7.81768 5.54373 8.98733 5.09046 10.2796C4.3518 12.361 4.43574 14.7118 5.26321 16.7532C5.11212 16.567 4.97132 16.3716 4.85922 16.158C4.54838 15.5819 4.29332 14.9664 4.18338 14.317C3.97489 13.3691 3.99601 12.3868 4.11353 11.4285C4.16389 11.1519 4.22075 10.8765 4.26407 10.5989C4.48123 9.60391 4.82619 8.63906 5.27134 7.72568C5.46683 7.35716 5.63254 6.97111 5.86919 6.62613C6.2239 6.0758 6.57319 5.52 6.97772 5.00527C7.48569 4.40675 7.98336 3.79291 8.57039 3.27051Z" fill="#79B553"/>
<path fill-rule="evenodd" clip-rule="evenodd" d="M16.3561 5.16899C16.4454 5.16735 16.525 5.20787 16.5884 5.26975C16.4947 5.32122 16.3848 5.2703 16.3561 5.16899Z" fill="#79B553"/>
<path fill-rule="evenodd" clip-rule="evenodd" d="M14.7526 4.69162C12.1196 4.28093 9.32147 5.10396 7.33944 6.90826C6.32568 7.8178 5.5437 8.98745 5.09043 10.2798C4.35177 12.3611 4.43571 14.7119 5.26318 16.7533C5.57132 17.4707 5.96935 18.147 6.45565 18.7548C6.48544 18.7871 6.51793 18.8221 6.558 18.8413C6.82435 18.8198 7.08758 18.854 7.35089 18.8882C7.48375 18.9054 7.61662 18.9226 7.74993 18.9327C7.90929 18.9512 8.06961 18.9539 8.22993 18.9567C8.41227 18.9598 8.59463 18.9629 8.7756 18.9891C9.93829 19.0592 11.1118 18.9612 12.2431 18.6748C13.031 18.4542 13.7973 18.1426 14.5067 17.7297C14.8197 17.48 15.1528 17.2533 15.5021 17.06C15.6268 16.9265 15.762 16.8042 15.8972 16.682C16.0644 16.5308 16.2315 16.3796 16.3788 16.2074C17.8496 14.6418 18.6089 12.4252 18.4209 10.2759C18.3451 9.16049 18.0538 8.03957 17.4505 7.09279C16.9517 6.26922 16.2353 5.60007 15.4381 5.07658C15.4313 5.07252 15.4244 5.06846 15.4175 5.0644C15.2885 4.98847 15.1565 4.91077 15.0748 4.77978C14.9686 4.75629 14.8641 4.72499 14.7605 4.694L14.7526 4.69162ZM6.93979 9.08054C7.80517 7.43394 9.48393 6.23089 11.323 6.01569C12.3514 5.89358 13.4209 6.10823 14.308 6.65253C14.8701 6.99806 15.352 7.47392 15.7127 8.02917C16.0642 8.58607 16.303 9.20813 16.4768 9.84278C16.7795 10.944 16.8245 12.1306 16.5196 13.2367C16.2331 14.2646 15.6082 15.1955 14.752 15.8252C13.7615 16.5737 12.5046 16.9527 11.2705 16.8722C10.0363 16.7977 8.82651 16.2769 7.93622 15.4063C7.09196 14.6106 6.52551 13.5198 6.35493 12.3661C6.19138 11.2435 6.41287 10.0788 6.93979 9.08054Z" fill="#075229"/>
<path fill-rule="evenodd" clip-rule="evenodd" d="M15.0748 4.7793C15.5189 4.84336 15.9375 5.01257 16.3561 5.16863C16.3848 5.26994 16.4947 5.32086 16.5884 5.26939C18.4362 6.26436 20.0662 7.71656 21.1704 9.52415C21.1855 9.54879 21.2153 9.59807 21.2305 9.62326C21.0507 9.94579 20.9164 10.2908 20.7772 10.6319C20.5455 11.059 20.357 11.5086 20.1117 11.9281C19.8485 12.3393 19.5913 12.7544 19.3205 13.1601C19.1526 13.4022 18.955 13.6207 18.7806 13.8572C18.2585 14.6184 17.6054 15.2749 16.9502 15.9178C16.4845 16.3181 16.0507 16.7753 15.5021 17.0595C15.781 16.7611 16.1124 16.5185 16.3789 16.2069C17.8497 14.6414 18.6089 12.4247 18.421 10.2754C18.3452 9.16 18.0538 8.03909 17.4506 7.09231C16.9518 6.26874 16.2353 5.59958 15.4382 5.07609C15.3028 4.99614 15.1609 4.91729 15.0748 4.7793Z" fill="#2E8260"/>
<path fill-rule="evenodd" clip-rule="evenodd" d="M14.5067 17.7293C14.8197 17.4796 15.1528 17.2529 15.5021 17.0596C15.3889 17.254 15.1528 17.3082 14.9984 17.4604C14.8614 17.5946 14.6795 17.6581 14.5067 17.7293Z" fill="#2E8260"/>
<path fill-rule="evenodd" clip-rule="evenodd" d="M20.7772 10.6317C20.9163 10.2906 21.0506 9.94558 21.2304 9.62305C21.759 10.5507 22.1581 11.6026 22.1088 12.6895C22.0752 13.4627 21.7687 14.225 21.2348 14.783C20.7571 15.3114 20.1349 15.6843 19.4883 15.9625C18.5092 16.3934 17.588 16.9536 16.7443 17.614C15.9418 18.2399 15.2036 18.9435 14.4514 19.628C13.6781 20.3169 12.81 21.0019 11.7578 21.1487C11.0479 21.2796 10.3287 21.1147 9.65179 20.9012C8.69706 20.566 7.77536 20.0847 7.04266 19.3701C6.87749 19.1971 6.68633 19.0454 6.55798 18.8406C6.95872 18.8083 7.35242 18.9019 7.74991 18.932C8.09054 18.9715 8.4355 18.9392 8.77558 18.9884C9.93827 19.0585 11.1118 18.9605 12.2431 18.6741C13.031 18.4535 13.7973 18.1419 14.5067 17.729C14.6794 17.6578 14.8614 17.5943 14.9984 17.4601C15.1527 17.3079 15.3889 17.2537 15.502 17.0593C16.0506 16.7751 16.4844 16.3179 16.9501 15.9176C17.6054 15.2747 18.2585 14.6181 18.7805 13.857C18.9549 13.6204 19.1525 13.402 19.3204 13.1599C19.5912 12.7542 19.8484 12.3391 20.1116 11.9278C20.3569 11.5084 20.5454 11.0588 20.7772 10.6317Z" fill="#0193D6"/>
</svg>
