<svg width="24" height="24" viewBox="0 0 24 24" fill="none" xmlns="http://www.w3.org/2000/svg">
<path opacity="0.2" d="M12 24C18.6274 24 24 18.6274 24 12C24 5.37258 18.6274 0 12 0C5.37258 0 0 5.37258 0 12C0 18.6274 5.37258 24 12 24Z" fill="#6CB0FD"/>
<path fill-rule="evenodd" clip-rule="evenodd" d="M11.4527 3.69141H12.648C13.7225 3.76282 14.7798 4.10716 15.6838 4.7227C16.8256 5.47768 17.6931 6.5889 18.451 7.74177C18.0072 7.4391 17.6071 7.07266 17.1551 6.78189C15.6384 5.73699 13.8215 5.03898 11.9842 5.23452C10.3036 5.40116 8.7561 6.27347 7.49504 7.41614C6.45308 8.35817 5.74058 9.72529 5.69108 11.1808C5.61399 13.0989 6.37923 14.9209 7.29541 16.5371C6.78985 16.3994 6.29808 16.1877 5.87042 15.8689C5.01024 15.244 4.43732 14.2679 4.13788 13.2307C3.69561 11.6859 3.5885 9.9727 4.17277 8.45169C4.67184 7.08797 5.66511 6.00226 6.74197 5.11039C8.0996 4.0757 9.81754 3.80193 11.4527 3.69141Z" fill="#6CB0FD"/>
<path fill-rule="evenodd" clip-rule="evenodd" d="M7.70276 10.2804C7.75713 9.40635 8.43554 8.62076 9.28599 8.5757C11.15 8.56975 13.0148 8.57315 14.8788 8.574C14.8804 9.33834 14.3611 10.0619 13.651 10.2515C13.1422 10.3671 12.6172 10.3314 12.1011 10.3144C12.0881 11.6194 12.1116 12.9245 12.0889 14.2287C12.054 15.2889 11.1484 16.1791 10.1429 16.191C10.2638 14.2381 10.3588 12.2834 10.4967 10.3322C9.66252 10.3263 8.8283 10.3297 7.99409 10.3322C7.89427 10.3305 7.7977 10.3127 7.70276 10.2804Z" fill="#6CB0FD"/>
<path fill-rule="evenodd" clip-rule="evenodd" d="M15.7799 7.39062C16.8828 8.05335 17.9126 8.91903 18.5427 10.0846C19.2956 11.4158 19.4658 13.0362 19.2017 14.5364C18.8646 16.2984 17.7007 17.7688 16.3105 18.7911C15.0719 19.7653 13.5212 20.2599 11.9728 20.3071H11.5442C10.8876 20.2756 10.2318 20.2019 9.58887 20.0552C8.77816 19.878 7.95622 19.6526 7.26191 19.1647C6.09562 18.3603 5.29134 17.1227 4.68372 15.8403C5.51288 16.5503 6.38619 17.2146 7.3486 17.7208C8.69308 18.4465 10.2463 18.8458 11.7609 18.5923C13.4016 18.3305 14.86 17.3629 16.0207 16.1725C16.9454 15.1983 17.6261 13.911 17.6453 12.5226C17.7119 10.6322 16.8097 8.8892 15.7799 7.39062Z" fill="#2B2E7C"/>
</svg>
