<svg width="24" height="24" viewBox="0 0 24 24" fill="none" xmlns="http://www.w3.org/2000/svg">
<path opacity="0.2" d="M12 24C18.6274 24 24 18.6274 24 12C24 5.37258 18.6274 0 12 0C5.37258 0 0 5.37258 0 12C0 18.6274 5.37258 24 12 24Z" fill="#49C1BF"/>
<path fill-rule="evenodd" clip-rule="evenodd" d="M17.5087 11.2486L15.4518 12.1358L9.99488 14.8226L15.4518 17.3606V13.1655L17.5087 12.2689V18.4664L15.4518 19.3535L7.41711 15.6338V13.6566L12.9788 11.0173L7.41711 8.43186V6.42623L9.50684 5.53906L17.5087 9.26517V11.2486Z" fill="#49C1BF"/>
<path fill-rule="evenodd" clip-rule="evenodd" d="M7.41711 6.42623L15.4518 10.1523L17.5087 9.26517L9.50684 5.53906L7.41711 6.42623Z" fill="#077A8F"/>
<path fill-rule="evenodd" clip-rule="evenodd" d="M15.4518 10.143L17.5088 9.25586V11.2393L15.4518 12.1265V10.143V10.143Z" fill="#298E97"/>
<path fill-rule="evenodd" clip-rule="evenodd" d="M7.41711 6.42773V8.43337L12.9788 11.0188L7.41711 13.6582V15.6353L15.4518 19.355V17.3652L9.99488 14.8241L15.4518 12.1373V10.1538L7.41711 6.42773Z" fill="#49C1BF"/>
<path fill-rule="evenodd" clip-rule="evenodd" d="M15.4518 19.3405L17.5088 18.4534V12.2559L15.4518 13.1525V19.3405Z" fill="#298E97"/>
</svg>
