<svg xmlns="http://www.w3.org/2000/svg" width="32" height="32" fill="none" viewBox="0 0 32 32">
  <path fill="#000001" d="M27.43 7.62h-1.52v7.62h1.52V7.62Zm-1.52 7.62h-1.53v3.04h1.53v-3.04Zm0-10.67h-1.53v3.05h1.53V4.57Zm-1.53 13.71h-1.52v1.53h1.52v-1.53Zm0-15.23h-1.52v1.52h1.52V3.05Zm-1.52 16.76h-3.05v1.52h3.05v-1.52Zm0-18.29h-3.05v1.53h3.05V1.52ZM12.19 21.33v1.53h3.05v4.57h-3.05v1.52h3.05V32h1.52v-3.05h3.05v-1.52h-3.05v-4.57h3.05v-1.53h-7.62ZM19.81 0h-7.62v1.52h7.62V0Zm-7.62 19.81H9.15v1.52h3.04v-1.52Zm0-18.29H9.15v1.53h3.04V1.52ZM9.15 18.28H7.62v1.53h1.53v-1.53Zm0-15.23H7.62v1.52h1.53V3.05ZM7.62 15.24H6.1v3.04h1.52v-3.04Zm0-10.67H6.1v3.05h1.52V4.57ZM6.1 7.62H4.57v7.62H6.1V7.62Z"/>
</svg>
