<svg width="24" height="24" viewBox="0 0 24 24" fill="none" xmlns="http://www.w3.org/2000/svg">
<rect width="24" height="24" fill="white"/>
<path fill-rule="evenodd" clip-rule="evenodd" d="M8.7587 3H15.2413C16.0463 2.99999 16.7106 2.99998 17.2518 3.04419C17.8139 3.09012 18.3306 3.18868 18.816 3.43598C19.5686 3.81947 20.1805 4.43139 20.564 5.18404C20.8113 5.66937 20.9099 6.18608 20.9558 6.74818C21 7.28937 21 7.95372 21 8.75868V15.2413C21 16.0463 21 16.7106 20.9558 17.2518C20.9099 17.8139 20.8113 18.3306 20.564 18.816C20.1805 19.5686 19.5686 20.1805 18.816 20.564C18.3306 20.8113 17.8139 20.9099 17.2518 20.9558C16.7106 21 16.0463 21 15.2413 21H8.75868C7.95372 21 7.28937 21 6.74818 20.9558C6.18608 20.9099 5.66937 20.8113 5.18404 20.564C4.43139 20.1805 3.81947 19.5686 3.43598 18.816C3.18868 18.3306 3.09012 17.8139 3.04419 17.2518C2.99998 16.7106 2.99999 16.0463 3 15.2413V8.7587C2.99999 7.95374 2.99998 7.28937 3.04419 6.74818C3.09012 6.18608 3.18868 5.66937 3.43598 5.18404C3.81947 4.43139 4.43139 3.81947 5.18404 3.43598C5.66937 3.18868 6.18608 3.09012 6.74818 3.04419C7.28937 2.99998 7.95374 2.99999 8.7587 3ZM7 9C7 7.89543 7.89543 7 9 7C10.1046 7 11 7.89543 11 9C11 10.1046 10.1046 11 9 11C7.89543 11 7 10.1046 7 9ZM9 13C7.89543 13 7 13.8954 7 15C7 16.1046 7.89543 17 9 17C10.1046 17 11 16.1046 11 15C11 13.8954 10.1046 13 9 13ZM13 9C13 7.89543 13.8954 7 15 7C16.1046 7 17 7.89543 17 9C17 10.1046 16.1046 11 15 11C13.8954 11 13 10.1046 13 9ZM15 13C13.8954 13 13 13.8954 13 15C13 16.1046 13.8954 17 15 17C16.1046 17 17 16.1046 17 15C17 13.8954 16.1046 13 15 13Z" fill="black"/>
</svg>
