<svg width="24" height="24" viewBox="0 0 24 24" fill="none" xmlns="http://www.w3.org/2000/svg">
<g clip-path="url(#clip0_10_2864)">
<rect width="24" height="24" fill="white" fill-opacity="0.7"/>
<path d="M3.97975 2.97972L5.02569 -0.158112H5.97437L7.02032 2.97972L10.1581 4.02566V4.97434L7.02032 6.02029L5.97437 9.15812H5.02569L3.97975 6.02029L0.841919 4.97434V4.02566L3.97975 2.97972Z" fill="black"/>
<path fill-rule="evenodd" clip-rule="evenodd" d="M4 12C4 11.6613 4.02104 11.3276 4.06189 11H7L8.5 7.5L12 6L12 4C16.4183 4.00002 20 7.58174 20 12C20 16.4183 16.4183 20 12 20C10.1513 20 8.44902 19.3729 7.09434 18.3198L3.70706 21.7071L2.29285 20.2929L5.68013 16.9056C4.62708 15.5509 4 13.8487 4 12ZM11 8V11H8V13H11V16H13V13H16V11H13V8H11Z" fill="black"/>
</g>
<defs>
<clipPath id="clip0_10_2864">
<rect width="24" height="24" fill="white"/>
</clipPath>
</defs>
</svg>
