<svg width="24" height="24" viewBox="0 0 24 24" fill="none" xmlns="http://www.w3.org/2000/svg">
<rect width="24" height="24" fill="white"/>
<path d="M13.5416 5.1712C14.3094 5.34533 15.044 5.64768 15.712 6.06452L16.7708 4.36779C15.913 3.83247 14.97 3.44434 13.9839 3.22072L13.5416 5.1712Z" fill="black"/>
<path d="M9.30668 5.53887C9.6767 5.38463 10.0517 5.26471 10.4283 5.17742L9.97664 3.22908C9.49187 3.34145 9.01053 3.49552 8.53717 3.69284C8.06381 3.89015 7.61555 4.12359 7.1945 4.38881L8.26043 6.08108C8.58753 5.87505 8.93667 5.69311 9.30668 5.53887Z" fill="black"/>
<path d="M17.9189 8.26045C18.1249 8.58754 18.3069 8.93668 18.4611 9.3067C18.6153 9.67672 18.7353 10.0517 18.8226 10.4283L20.7709 9.97665C20.6585 9.49189 20.5045 9.01054 20.3071 8.53718C20.1098 8.06383 19.8764 7.61557 19.6112 7.19451L17.9189 8.26045Z" fill="black"/>
<path d="M5.17118 10.4584C5.34531 9.69056 5.64767 8.95595 6.06451 8.28798L4.36778 7.22915C3.83246 8.08698 3.44433 9.02999 3.2207 10.0161L5.17118 10.4584Z" fill="black"/>
<path d="M18.8288 13.5416C18.6547 14.3094 18.3523 15.044 17.9355 15.712L19.6322 16.7708C20.1675 15.913 20.5556 14.97 20.7793 13.9839L18.8288 13.5416Z" fill="black"/>
<path d="M5.53886 14.6933C5.38462 14.3233 5.2647 13.9483 5.1774 13.5717L3.22906 14.0233C3.34144 14.5081 3.4955 14.9894 3.69282 15.4628C3.89014 15.9362 4.12358 16.3844 4.38879 16.8055L6.08106 15.7395C5.87503 15.4125 5.6931 15.0633 5.53886 14.6933Z" fill="black"/>
<path d="M15.7395 17.9189C15.4124 18.1249 15.0633 18.3069 14.6933 18.4611C14.3233 18.6154 13.9483 18.7353 13.5717 18.8226L14.0233 20.7709C14.5081 20.6585 14.9894 20.5045 15.4628 20.3072C15.9362 20.1098 16.3844 19.8764 16.8055 19.6112L15.7395 17.9189Z" fill="black"/>
<path d="M10.4584 18.8288C9.69054 18.6547 8.95593 18.3523 8.28796 17.9355L7.22913 19.6322C8.08697 20.1675 9.02998 20.5557 10.0161 20.7793L10.4584 18.8288Z" fill="black"/>
<path d="M11.5257 5.84189L10.1047 10.1047L5.84192 11.5257V12.4743L10.1047 13.8953L11.5257 18.1581H12.4744L13.8953 13.8953L18.1581 12.4743V11.5257L13.8953 10.1047L12.4744 5.84189H11.5257Z" fill="black"/>
</svg>
