<svg width="24" height="24" viewBox="0 0 24 24" fill="none" xmlns="http://www.w3.org/2000/svg">
<path fill-rule="evenodd" clip-rule="evenodd" d="M12.5257 3.52567L13.4308 0.810272H14.5692L15.4743 3.52567L18.1897 4.4308V5.56922L15.4743 6.47435L14.5692 9.18974H13.4308L12.5257 6.47435L9.81026 5.56922V4.4308L12.5257 3.52567Z" fill="black"/>
<path fill-rule="evenodd" clip-rule="evenodd" d="M9.07633 7H5.92366L2.97459 20H5.02541L5.70596 17H9.29395L9.97448 20H12.0253L9.07633 7ZM8.84027 15H6.15967L7.49999 9.09162L8.84027 15Z" fill="black"/>
<path fill-rule="evenodd" clip-rule="evenodd" d="M19.4087 20L19.2199 18.8047C18.526 19.5355 17.5877 20 16.5 20C14.1518 20 12.5 17.8351 12.5 15.5C12.5 13.1649 14.1518 11 16.5 11C17.0572 11 17.5751 11.1219 18.0411 11.339L17.8563 10.1682L19.8318 9.85627L21.4334 20H19.4087ZM14.5 15.5C14.5 13.9691 15.5345 13 16.5 13C17.4655 13 18.5 13.9691 18.5 15.5C18.5 17.0309 17.4655 18 16.5 18C15.5345 18 14.5 17.0309 14.5 15.5Z" fill="black"/>
</svg>
