<svg width="25" height="24" viewBox="0 0 25 24" fill="none" xmlns="http://www.w3.org/2000/svg">
<path d="M20.0257 2.84189L19.2297 5.22972L16.8419 6.02566V6.97434L19.2297 7.77029L20.0257 10.1581H20.9744L21.7703 7.77029L24.1581 6.97434V6.02566L21.7703 5.22972L20.9744 2.84189H20.0257Z" fill="black"/>
<path d="M3 4H9V6H7V17H9V19H3V17H5V6H3V4Z" fill="black"/>
<path d="M13.3547 11.3547L14.5257 7.84189H15.4744L16.6453 11.3547L20.1581 12.5257V13.4743L16.6453 14.6453L15.4744 18.1581H14.5257L13.3547 14.6453L9.84192 13.4743V12.5257L13.3547 11.3547Z" fill="black"/>
</svg>
