<svg width="24" height="24" viewBox="0 0 24 24" fill="none" xmlns="http://www.w3.org/2000/svg">
<path d="M13.3007 21.2913C12.3781 21.2927 11.4844 20.9698 10.7762 20.3786C10.8084 20.3615 10.8643 20.3306 10.9005 20.3083L15.0906 17.8883C15.305 17.7667 15.4365 17.5385 15.4352 17.2919V11.3848L17.206 12.4074C17.2251 12.4166 17.2376 12.435 17.2402 12.4561V17.3478C17.2376 19.5231 15.4759 21.2867 13.3007 21.2913ZM4.82835 17.6727C4.36607 16.8744 4.19971 15.9386 4.35818 15.0305C4.38909 15.0489 4.44367 15.0824 4.48247 15.1048L8.67259 17.5247C8.88499 17.649 9.14802 17.649 9.36108 17.5247L14.4764 14.5708V16.6159C14.4777 16.637 14.4679 16.6574 14.4514 16.6705L10.2159 19.1161C8.32933 20.2024 5.91929 19.5566 4.82835 17.6727ZM3.72559 8.52633C4.1859 7.72671 4.91253 7.11516 5.77791 6.79755C5.77791 6.83371 5.77593 6.8975 5.77593 6.94221V11.7827C5.77462 12.0286 5.90613 12.2568 6.11985 12.3785L11.2352 15.3317L9.46432 16.3542C9.44656 16.366 9.42421 16.368 9.40448 16.3595L5.16833 13.9119C3.28566 12.8217 2.64057 10.4123 3.72559 8.52633ZM18.2753 11.9122L13.1599 8.95836L14.9308 7.93648C14.9486 7.92464 14.9709 7.92267 14.9906 7.93122L19.2268 10.3768C21.1128 11.4664 21.7592 13.8791 20.6695 15.765C20.2086 16.5633 19.4826 17.1749 18.6179 17.4931V12.508C18.6199 12.2621 18.4883 12.0345 18.2753 11.9122ZM20.0376 9.25954C20.0067 9.24047 19.9521 9.20759 19.9133 9.18523L15.7232 6.76532C15.5108 6.64104 15.2478 6.64104 15.0347 6.76532L9.91937 9.71919V7.6741C9.91805 7.65306 9.92791 7.63268 9.94435 7.61952L14.1798 5.17594C16.0665 4.08764 18.4785 4.73536 19.5661 6.62263C20.0258 7.41962 20.1921 8.35273 20.0363 9.25954H20.0376ZM8.95666 12.9045L7.18513 11.882C7.16606 11.8728 7.15357 11.8544 7.15094 11.8333V6.94156C7.15225 4.76364 8.91918 2.99869 11.0971 3C12.0184 3 12.9101 3.32353 13.6183 3.91273C13.5861 3.92982 13.5308 3.96073 13.494 3.98309L9.30387 6.403C9.0895 6.52465 8.95798 6.75217 8.95929 6.99877L8.95666 12.9045ZM9.91871 10.8305L12.1972 9.51468L14.4758 10.8298V13.4608L12.1972 14.776L9.91871 13.4608V10.8305Z" fill="black"/>
</svg>
