<svg width="24" height="24" viewBox="0 0 24 24" fill="none" xmlns="http://www.w3.org/2000/svg">
<rect width="24" height="24" fill="white"/>
<path fill-rule="evenodd" clip-rule="evenodd" d="M8.7587 4H15.2413C16.0463 3.99999 16.7106 3.99998 17.2518 4.04419C17.8139 4.09012 18.3306 4.18868 18.816 4.43598C19.5686 4.81947 20.1805 5.43139 20.564 6.18404C20.8113 6.66937 20.9099 7.18608 20.9558 7.74818C21 8.28937 21 8.95372 21 9.75868V13.2408C21 14.0457 21 14.7101 20.9558 15.2513C20.9099 15.8134 20.8113 16.3301 20.564 16.8154C20.1805 17.568 19.5686 18.18 18.816 18.5635C18.3306 18.8108 17.8139 18.9093 17.2518 18.9552C16.7106 18.9995 16.0463 18.9995 15.2413 18.9994H15.0314L12 22.5368L8.96859 18.9994H8.75872C7.95374 18.9995 7.28938 18.9995 6.74818 18.9552C6.18608 18.9093 5.66937 18.8108 5.18404 18.5635C4.43139 18.18 3.81947 17.568 3.43598 16.8154C3.18868 16.3301 3.09012 15.8134 3.04419 15.2513C2.99998 14.7101 2.99999 14.0457 3 13.2408V9.7587C2.99999 8.95374 2.99998 8.28937 3.04419 7.74818C3.09012 7.18608 3.18868 6.66937 3.43598 6.18404C3.81947 5.43139 4.43139 4.81947 5.18404 4.43598C5.66937 4.18868 6.18608 4.09012 6.74818 4.04419C7.28937 3.99998 7.95374 3.99999 8.7587 4ZM9.00003 7.58579L12.4142 11L9.00003 14.4142L7.58582 13L9.58582 11L7.58582 9L9.00003 7.58579ZM16 13H12V15H16V13Z" fill="black"/>
</svg>
