<svg width="24" height="24" viewBox="0 0 24 24" fill="none" xmlns="http://www.w3.org/2000/svg">
<path fill-rule="evenodd" clip-rule="evenodd" d="M12 5C12.4304 5 12.8126 5.27543 12.9487 5.68377L14.2906 9.70943L18.3162 11.0513C18.7246 11.1874 19 11.5696 19 12C19 12.4304 18.7246 12.8126 18.3162 12.9487L14.2906 14.2906L12.9487 18.3162C12.8126 18.7246 12.4304 19 12 19C11.5696 19 11.1874 18.7246 11.0513 18.3162L9.70942 14.2906L5.68377 12.9487C5.27542 12.8126 4.99999 12.4304 4.99999 12C4.99999 11.5696 5.27542 11.1874 5.68377 11.0513L9.70942 9.70943L11.0513 5.68377C11.1874 5.27543 11.5696 5 12 5ZM12 9.16228L11.4487 10.8162C11.3491 11.1148 11.1148 11.3491 10.8162 11.4487L9.16227 12L10.8162 12.5513C11.1148 12.6509 11.3491 12.8852 11.4487 13.1838L12 14.8377L12.5513 13.1838C12.6508 12.8852 12.8852 12.6509 13.1838 12.5513L14.8377 12L13.1838 11.4487C12.8852 11.3491 12.6508 11.1148 12.5513 10.8162L12 9.16228Z" fill="black"/>
<path fill-rule="evenodd" clip-rule="evenodd" d="M13.9262 3.15159C14.1027 2.62829 14.6701 2.34719 15.1934 2.52375C15.6067 2.6632 16.0106 2.82944 16.4024 3.02134C16.8983 3.2643 17.1034 3.86332 16.8605 4.3593C16.6175 4.85527 16.0185 5.06037 15.5225 4.81741C15.2087 4.66368 14.8851 4.53051 14.554 4.4188C14.0307 4.24224 13.7496 3.67489 13.9262 3.15159ZM10.0343 3.15947C10.2135 3.68188 9.93524 4.25063 9.41283 4.42981C9.24855 4.48616 9.08487 4.54822 8.92204 4.6161C8.7592 4.68397 8.59991 4.75654 8.44424 4.83357C7.94924 5.07849 7.3494 4.87577 7.10448 4.38076C6.85955 3.88576 7.06228 3.28593 7.55728 3.041C7.75148 2.94491 7.94994 2.85451 8.15252 2.77006C8.3551 2.68561 8.55901 2.60829 8.76397 2.538C9.28638 2.35882 9.85513 2.63706 10.0343 3.15947ZM19.6192 7.10449C20.1142 6.85956 20.7141 7.06229 20.959 7.55729C21.0551 7.75149 21.1455 7.94995 21.2299 8.15253C21.3144 8.35511 21.3917 8.55902 21.462 8.76397C21.6412 9.28638 21.3629 9.85514 20.8405 10.0343C20.3181 10.2135 19.7494 9.93525 19.5702 9.41284C19.5138 9.24855 19.4518 9.08488 19.3839 8.92204C19.316 8.7592 19.2434 8.59991 19.1664 8.44425C18.9215 7.94924 19.1242 7.34941 19.6192 7.10449ZM4.35929 7.13952C4.85526 7.38248 5.06036 7.98151 4.8174 8.47748C4.66368 8.79128 4.5305 9.11486 4.41879 9.44596C4.24223 9.96926 3.67488 10.2504 3.15158 10.0738C2.62828 9.89724 2.34718 9.3299 2.52374 8.80659C2.66319 8.39327 2.82943 7.98937 3.02133 7.59763C3.26429 7.10166 3.86332 6.89656 4.35929 7.13952ZM20.8484 13.9262C21.3717 14.1028 21.6528 14.6701 21.4762 15.1934C21.3368 15.6067 21.1705 16.0106 20.9787 16.4024C20.7357 16.8983 20.1367 17.1034 19.6407 16.8605C19.1447 16.6175 18.9396 16.0185 19.1826 15.5225C19.3363 15.2087 19.4695 14.8851 19.5812 14.554C19.7577 14.0307 20.3251 13.7496 20.8484 13.9262ZM3.15946 13.9657C3.68188 13.7865 4.25063 14.0647 4.42981 14.5872C4.48615 14.7514 4.54821 14.9151 4.61609 15.078C4.68397 15.2408 4.75654 15.4001 4.83356 15.5557C5.07849 16.0508 4.87576 16.6506 4.38075 16.8955C3.88575 17.1404 3.28592 16.9377 3.04099 16.4427C2.9449 16.2485 2.8545 16.05 2.77005 15.8475C2.68561 15.6449 2.60828 15.441 2.53799 15.236C2.35881 14.7136 2.63705 14.1449 3.15946 13.9657ZM16.8955 19.6192C17.1404 20.1142 16.9377 20.7141 16.4427 20.959C16.2485 21.0551 16.05 21.1455 15.8475 21.2299C15.6449 21.3144 15.441 21.3917 15.236 21.462C14.7136 21.6412 14.1449 21.3629 13.9657 20.8405C13.7865 20.3181 14.0647 19.7494 14.5872 19.5702C14.7514 19.5138 14.9151 19.4518 15.0779 19.3839C15.2408 19.316 15.4001 19.2435 15.5557 19.1664C16.0507 18.9215 16.6506 19.1242 16.8955 19.6192ZM7.13951 19.6407C7.38247 19.1447 7.9815 18.9396 8.47747 19.1826C8.79128 19.3363 9.11485 19.4695 9.44595 19.5812C9.96925 19.7578 10.2503 20.3251 10.0738 20.8484C9.89724 21.3717 9.32989 21.6528 8.80658 21.4762C8.39326 21.3368 7.98936 21.1706 7.59763 20.9787C7.10166 20.7357 6.89655 20.1367 7.13951 19.6407Z" fill="black"/>
</svg>
