<?xml version="1.0" encoding="utf-8"?><!-- Uploaded to: SVG Repo, www.svgrepo.com, Generator: SVG Repo Mixer Tools -->
<svg version="1.1" id="Uploaded to svgrepo.com" xmlns="http://www.w3.org/2000/svg" xmlns:xlink="http://www.w3.org/1999/xlink" 
	 width="800px" height="800px" viewBox="0 0 32 32" xml:space="preserve">
<style type="text/css">
	.linesandangles_een{fill:#111918;}
</style>
<path class="linesandangles_een" d="M21.562,9.951c-0.889-0.741-1.932-1.295-3.111-1.618L19,7.236V5h-6v2.236l0.549,1.097
	c-1.214,0.333-2.284,0.911-3.19,1.686C5.77,9.762,4,13.367,4,18c0,4.418,1.582,8,6,8c0.437,0,0.838-0.045,1.219-0.113
	C12.553,26.606,14.159,27,16,27c1.887,0,3.528-0.415,4.88-1.169c0.353,0.058,0.721,0.098,1.12,0.098c4.418,0,6-3.582,6-8
	C28,13.271,26.206,9.643,21.562,9.951z M16.882,7l-0.5,1h-0.764l-0.5-1H16.882z M6,18c0-3.979,1.324-5.318,2.504-5.77
	C7.534,13.861,7,15.849,7,18c0,2.372,0.645,4.363,1.815,5.867C7.57,23.534,6,22.336,6,18z M16,25c-4.449,0-7-2.551-7-7
	c0-3.853,2.191-8,7-8s7,4.147,7,8C23,22.449,20.449,25,16,25z M23.248,23.78C24.376,22.286,25,20.328,25,18
	c0-2.192-0.555-4.213-1.561-5.861C24.633,12.569,26,13.885,26,17.929C26,22.192,24.482,23.423,23.248,23.78z M19,14l1,1v2h-3v-2l1-1
	H19z M15,17h-3v-2l1-1h1l1,1V17z M18,19h2v2l-1,1h-6l-1-1v-2h2l0,1h1l0-1h2v1h1V19z"/>
</svg>