<?xml version="1.0" encoding="utf-8"?><!-- Uploaded to: SVG Repo, www.svgrepo.com, Generator: SVG Repo Mixer Tools -->
<svg version="1.1" id="Uploaded to svgrepo.com" xmlns="http://www.w3.org/2000/svg" xmlns:xlink="http://www.w3.org/1999/xlink" 
	 width="800px" height="800px" viewBox="0 0 32 32" xml:space="preserve">
<style type="text/css">
	.linesandangles_een{fill:#111918;}
</style>
<path class="linesandangles_een" d="M29,19h-6v-2h3V7h-3V6h-2v1h-1V6h-4V5h-2v1h-4v1H9V6H7v1H4v10h3v2H3v2l3,6h18l3-6h2V19z M21,19
	h-5v-1h4v-1h1V19z M24,9v6h-4V9H24z M18,16h-6V8h6V16z M6,9h4v6H6V9z M9,17h1v1h4v1H9V17z M22.764,25H7.236l-2-4h19.528L22.764,25z"
	/>
</svg>