<?xml version="1.0" encoding="utf-8"?><!-- Uploaded to: SVG Repo, www.svgrepo.com, Generator: SVG Repo Mixer Tools -->
<svg version="1.1" id="Uploaded to svgrepo.com" xmlns="http://www.w3.org/2000/svg" xmlns:xlink="http://www.w3.org/1999/xlink" 
	 width="800px" height="800px" viewBox="0 0 32 32" xml:space="preserve">
<style type="text/css">
	.linesandangles_een{fill:#111918;}
</style>
<path class="linesandangles_een" d="M26,22v-9h-4l-5-3.75V4h-2v5.25L10,13H6v9H3v6h8v-6H8v-7h2l5,3.75V22h-3v6h8v-6h-3v-3.25L22,15
	h2v7h-3v6h8v-6H26z M9,26H5v-2h4V26z M18,26h-4v-2h4V26z M16,17l-4-3l4-3l4,3L16,17z M27,26h-4v-2h4V26z"/>
</svg>