<?xml version="1.0" encoding="utf-8"?><!-- Uploaded to: SVG Repo, www.svgrepo.com, Generator: SVG Repo Mixer Tools -->
<svg version="1.1" id="Uploaded to svgrepo.com" xmlns="http://www.w3.org/2000/svg" xmlns:xlink="http://www.w3.org/1999/xlink" 
	 width="800px" height="800px" viewBox="0 0 32 32" xml:space="preserve">
<style type="text/css">
	.linesandangles_een{fill:#111918;}
</style>
<path class="linesandangles_een" d="M26,16c0-3.277-1.565-6.176-4-8V3H10v5c-2.435,1.824-4,4.723-4,8c0,3.277,1.565,6.176,4,8v5h12
	v-5C24.435,22.176,26,19.277,26,16z M12,5h8v1.838C18.774,6.302,17.423,6,16,6s-2.774,0.302-4,0.838V5z M8,16c0-4.411,3.589-8,8-8
	s8,3.589,8,8c0,4.411-3.589,8-8,8S8,20.411,8,16z M20,27h-8v-1.838C13.226,25.698,14.577,26,16,26s2.774-0.302,4-0.838V27z
	 M18.293,19.707L15,16.414V10h2v5.586l2.707,2.707L18.293,19.707z"/>
</svg>