<?xml version="1.0" encoding="utf-8"?><!-- Uploaded to: SVG Repo, www.svgrepo.com, Generator: SVG Repo Mixer Tools -->
<svg version="1.1" id="Uploaded to svgrepo.com" xmlns="http://www.w3.org/2000/svg" xmlns:xlink="http://www.w3.org/1999/xlink" 
	 width="800px" height="800px" viewBox="0 0 32 32" xml:space="preserve">
<style type="text/css">
	.linesandangles_een{fill:#111918;}
</style>
<path class="linesandangles_een" d="M15.78,22.842c0.419,0,0.89-0.157,1.362-0.629c0.189-0.189,0.431-0.431,0.707-0.707l2.828,2.828
	l0.707-0.707c0.099,0.099,2.451,2.414,5.657,2.414l1-1c0-3.205-2.315-5.557-2.415-5.656l0.707-0.707l-2.828-2.828
	c0.276-0.276,0.518-0.518,0.707-0.707c1.414-1.414,0-2.828,0-2.828L13.9,2L4,11.899l10.314,10.314
	C14.314,22.213,14.942,22.842,15.78,22.842z M25.909,23.908c-1.8-0.42-3.097-1.681-3.11-1.694l1.414-1.414
	C24.23,20.816,25.491,22.098,25.909,23.908z M23.506,18.678l-2.828,2.828l-1.414-1.414l2.828-2.828L23.506,18.678z M13.9,4.828
	l8.899,8.899l0,0l-7.066,7.066c-0.013-0.009-8.904-8.895-8.904-8.895L13.9,4.828z M29,26.995c0,2.199-1.771,3.002-2.96,3.005H4v-2
	h22.037C26.468,27.987,27,27.802,27,26.995H29z"/>
</svg>