<?xml version="1.0" encoding="utf-8"?><!-- Uploaded to: SVG Repo, www.svgrepo.com, Generator: SVG Repo Mixer Tools -->
<svg version="1.1" id="Uploaded to svgrepo.com" xmlns="http://www.w3.org/2000/svg" xmlns:xlink="http://www.w3.org/1999/xlink" 
	 width="800px" height="800px" viewBox="0 0 32 32" xml:space="preserve">
<style type="text/css">
	.linesandangles_een{fill:#111918;}
</style>
<path class="linesandangles_een" d="M25,10h-6.167C18.5,8.994,17.639,8,16,8h-5c-1.639,0-2.5,0.994-2.833,2H4v12h4.167
	C8.5,23.006,9.361,24,11,24h6c1.206,0,3-0.799,3-3v-5h5c1.206,0,3-0.799,3-3S26.206,10,25,10z M25,14h-9v2h2v5
	c0,0.803-0.547,0.987-1.008,1H11c-0.806,0-0.988-0.55-1-1v-1H6v-8h4v-0.988C10.012,10.55,10.194,10,11,10h5c0.806,0,0.988,0.55,1,1
	v1h7.988C25.45,12.012,26,12.195,26,13S25.45,13.988,25,14z"/>
</svg>