<?xml version="1.0" encoding="utf-8"?><!-- Uploaded to: SVG Repo, www.svgrepo.com, Generator: SVG Repo Mixer Tools -->
<svg version="1.1" id="Uploaded to svgrepo.com" xmlns="http://www.w3.org/2000/svg" xmlns:xlink="http://www.w3.org/1999/xlink" 
	 width="800px" height="800px" viewBox="0 0 32 32" xml:space="preserve">
<style type="text/css">
	.linesandangles_een{fill:#111918;}
</style>
<path class="linesandangles_een" d="M24,16v5c0,1.639-0.994,2.5-2,2.833V28H10v-4.167C8.994,23.5,8,22.639,8,21v-5
	c0-1.206,0.799-3,3-3h5v-1h2v4h-2v-1h-5c-0.805,0-0.988,0.55-1,1.012V21c0,0.805,0.55,0.988,1.012,1H12v4h8v-4h1
	c0.45-0.012,1-0.195,1-1v-5c0-0.805-0.55-0.988-1.012-1h-0.975L20,12h2v1.167C23.006,13.5,24,14.361,24,16z M18,7.012
	C18.012,6.55,18.195,6,19,6s0.988,0.55,1,1v1h2V7c0-1.206-0.799-3-3-3s-3,1.794-3,3v1h2V7.012z M27,10
	c0,2.578-1.559,2.778-2.037,2.778c-1.261,0-2.702-1.175-3.36-1.778h-5.206c-0.658,0.603-2.098,1.778-3.36,1.778
	C12.559,12.778,11,12.578,11,10s1.559-2.778,2.037-2.778c1.261,0,2.702,1.175,3.36,1.778h5.206c0.658-0.603,2.098-1.778,3.36-1.778
	C25.441,7.222,27,7.422,27,10z M14.481,10c-0.527-0.407-1.07-0.732-1.382-0.773C13.061,9.324,13,9.549,13,10
	s0.061,0.676,0.099,0.773C13.406,10.732,13.953,10.406,14.481,10z M25,10c0-0.449-0.06-0.674-0.098-0.772
	c-0.315,0.046-0.858,0.37-1.383,0.772c0.527,0.407,1.07,0.732,1.382,0.773C24.939,10.676,25,10.451,25,10z"/>
</svg>