<?xml version="1.0" encoding="utf-8"?><!-- Uploaded to: SVG Repo, www.svgrepo.com, Generator: SVG Repo Mixer Tools -->
<svg version="1.1" id="Uploaded to svgrepo.com" xmlns="http://www.w3.org/2000/svg" xmlns:xlink="http://www.w3.org/1999/xlink" 
	 width="800px" height="800px" viewBox="0 0 32 32" xml:space="preserve">
<style type="text/css">
	.linesandangles_een{fill:#111918;}
</style>
<path class="linesandangles_een" d="M29,20h-1c0-2.967-2.167-5.431-5-5.91V6h-2v8.586l-3.836,3.836
	c0.442-2.18,1.625-3.807,1.639-3.827l-1.605-1.192c-0.047,0.063-0.639,0.875-1.198,2.143c-0.558-1.268-1.151-2.081-1.198-2.143
	l-1.605,1.192c0.014,0.02,1.197,1.647,1.639,3.827L11,14.586V6H9v8.09C6.167,14.569,4,17.033,4,20H3v2h1.35
	c0.826,2.327,3.043,4,5.65,4s4.824-1.673,5.65-4h0.7c0.826,2.327,3.043,4,5.65,4s4.824-1.673,5.65-4H29V20z M10,24
	c-2.206,0-4-1.794-4-4c0-2.072,1.584-3.782,3.605-3.98l4.375,4.375C13.782,22.416,12.072,24,10,24z M22,24
	c-2.072,0-3.782-1.584-3.98-3.605l4.375-4.375C24.416,16.218,26,17.928,26,20C26,22.206,24.206,24,22,24z"/>
</svg>