<svg enable-background="new 0 0 960 960" height="512" viewBox="0 0 960 960" width="512" xmlns="http://www.w3.org/2000/svg"><g id="Layer_3" display="none"><g display="inline"><path d="m866.4 561.1c-20-2.5-61.6-2.8-92.7-2.1v-.2c38.8-3.6 99.6-1.8 112.8-33.8 10.9-22.4-6.6-42.5-19.5-48.8-61.6-17.4-252-.1-336.4-2.9-175.8 1.4-42.5-139.9-28.2-232.3 4.5-35-47.3-98.5-104.9-8.4-33.9 53.1-90.7 147.2-170.3 212.7-35.4 29.1-83.3 29.2-162 27.2-22.4 0-22.4 361.8 0 361.8 161.4-.4 310.8-5 471.2-.7 26.5 2.5 65.5.5 97.3.2 33.7-.3 50.6-8.1 59.9-27.2 9.7-19.9-6.5-43.3-17.9-48.9s28.3-17.4 38.5-38.3c10.6-21.7-7.1-47.3-19.5-53.4s-26.7-7-40.5-7.1c60-1.2 249.4-1.5 251.9-46.5 5.8-11.9-4.2-46.8-39.7-51.3z" fill="#ffcbb1"/><g fill="#7d6c5d"><path d="m654.2 667.6c6.6.1 13.2.3 19.8 1.2-.8-.1-1.6-.2-2.4-.3 6.2.8 12.3 2.3 18.1 4.7-.7-.3-1.4-.6-2.1-.9 2.5 1.1 4.9 2.3 7 4-.6-.5-1.2-.9-1.8-1.4 3 2.3 5.7 5.1 8 8.2-.5-.6-.9-1.2-1.4-1.8 2.8 3.7 5.1 7.6 6.9 11.9-.3-.7-.6-1.4-.9-2.1 1.5 3.7 2.6 7.5 3.2 11.4-.1-.8-.2-1.6-.3-2.4.4 3.2.4 6.3 0 9.5.1-.8.2-1.6.3-2.4-.4 2.8-1.1 5.5-2.2 8 .3-.7.6-1.4.9-2.1-1.6 3.9-3.9 7.6-6.4 11 .5-.6.9-1.2 1.4-1.8-2.3 2.9-4.9 5.6-7.8 7.8.6-.5 1.2-.9 1.8-1.4-3.3 2.5-6.9 4.5-10.7 6.1.7-.3 1.4-.6 2.1-.9-6.5 2.7-13.4 4.2-20.4 5.2.8-.1 1.6-.2 2.4-.3-44.5 2.3-89.6 4.4-134.1.4.8.1 1.6.2 2.4.3-6.1-.8-12.1-2.1-17.9-4.5.7.3 1.4.6 2.1.9-4.7-2-9.2-4.6-13.3-7.7.6.5 1.2.9 1.8 1.4-3.5-2.7-6.7-5.8-9.5-9.4.5.6.9 1.2 1.4 1.8-2.3-3-4.2-6.2-5.7-9.7.3.7.6 1.4.9 2.1-1.2-2.8-2-5.8-2.4-8.8.1.8.2 1.6.3 2.4-.4-2.9-.4-5.8 0-8.6-.1.8-.2 1.6-.3 2.4.4-3.1 1.3-6 2.4-8.9-.3.7-.6 1.4-.9 2.1 1.5-3.5 3.4-6.7 5.7-9.7-.5.6-.9 1.2-1.4 1.8 2.5-3.2 5.2-6.1 8.4-8.6-.6.5-1.2.9-1.8 1.4 3.3-2.5 6.9-4.6 10.8-6.2-.7.3-1.4.6-2.1.9 6-2.5 12.3-3.9 18.7-4.8-.8.1-1.6.2-2.4.3 31.4-2.3 63-1.8 94.4-2.4 9.9-1.8 35.4 5.9 35.8-8.8-.2-4.8-3.9-8.8-8.9-8.9-18.1-.2-36.1 0-54.2.2-42 2.6-104.8-9.3-120.8 42.2-6 21.2 6.8 42.9 24.7 53.9 26.1 15.9 58.6 12.1 87.9 12.7 44.4-3.9 110.7 12.2 131.9-39.3 9.2-25.1-7.5-56.7-32.6-64.7-11.8-4-24.5-4.8-36.9-4.9-11.4-.3-11.4 17.5.1 17.5z"/><path d="m638.5 759.9c6.1.1 12.2.3 18.3 1.1-.8-.1-1.6-.2-2.4-.3 5.6.8 11 2.1 16.2 4.2-.7-.3-1.4-.6-2.1-.9 2.4 1 4.6 2.1 6.6 3.7-.6-.5-1.2-.9-1.8-1.4 2.8 2.2 5.2 4.7 7.4 7.5-.5-.6-.9-1.2-1.4-1.8 2.5 3.3 4.6 6.9 6.3 10.7-.3-.7-.6-1.4-.9-2.1 1.5 3.4 2.5 7 3 10.7-.1-.8-.2-1.6-.3-2.4.4 2.8.4 5.6 0 8.4.1-.8.2-1.6.3-2.4-.4 2.7-1.1 5.2-2.1 7.7.3-.7.6-1.4.9-2.1-1.5 3.5-3.5 6.7-5.7 9.7.5-.6.9-1.2 1.4-1.8-2.1 2.7-4.5 5.2-7.3 7.3.6-.5 1.2-.9 1.8-1.4-3 2.3-6.3 4.1-9.8 5.6.7-.3 1.4-.6 2.1-.9-5.9 2.5-12.2 3.9-18.6 4.7.8-.1 1.6-.2 2.4-.3-40.8 2.1-82.1 4-122.9.4.8.1 1.6.2 2.4.3-5.7-.8-11.3-2-16.7-4.2.7.3 1.4.6 2.1.9-4.3-1.8-8.3-4.2-12.1-7.1.6.5 1.2.9 1.8 1.4-3.3-2.5-6.2-5.4-8.7-8.7.5.6.9 1.2 1.4 1.8-2-2.7-3.7-5.5-5-8.6.3.7.6 1.4.9 2.1-1.1-2.6-1.9-5.4-2.3-8.2.1.8.2 1.6.3 2.4-.3-2.7-.4-5.3 0-8-.1.8-.2 1.6-.3 2.4.4-2.8 1.2-5.6 2.3-8.2-.3.7-.6 1.4-.9 2.1 1.3-3.1 3.1-6 5.1-8.7-.5.6-.9 1.2-1.4 1.8 2.3-3 4.9-5.7 7.9-8-.6.5-1.2.9-1.8 1.4 3-2.3 6.2-4.1 9.6-5.6-.7.3-1.4.6-2.1.9 5.5-2.3 11.2-3.6 17.1-4.4-.8.1-1.6.2-2.4.3 37.1-2.3 74.3-1.9 111.4-2 11.4.1 11.5-17.7 0-17.7-30.4-.4-60.9.6-91.3 1.1-28.1-1.4-61.7 8.3-69.8 38.6-7.9 29.5 20 55.7 47.6 59.2 39.1 5.2 78.8 1.6 118 1.3 51.8.9 85.6-49.1 43.2-88.2-6.7-8.1-57.7-21.1-56.7-3 .4 4.7 4.1 8.6 9 8.7z"/><path d="m63.3 481.4c56.6.4 121.1 7.8 168.8-28.6 73.7-59.7 125.3-140.8 175.8-219.8 11.7-17.4 27.2-34.8 46.5-37.7-2 .3-.3.1.2 0 1.1 0 2.1-.1 3.2-.1.7-.1 6.4.6 3.2.1 6.2.6 12.7 4.6 14.7 6.1 6.9 5 12.4 14 14.5 18.9 16.1 43.4-37.9 111.2-51.1 156.9-19.7 61.8.3 102.3 68.4 104.4 106.8 1.5 213.8-5.1 320.6-3.5 13 1.1 26.5.9 38.1 7.9 16.8 10.2 20.1 35.1 2.5 47.1.7-.5-4.3 2.9-5.3 3.2-.6.4-4.4 2.1-3.6 1.7-26.8 9.7-56.2 9.2-84.4 11.8-43.1 2.6-86.3 4.2-129.6 4.4-11.4 0-11.4 17.7 0 17.7 59.2-.6 118.6-2.3 177.5-8.4 26.2-3 57.7-7.6 70.6-34.1 15.4-30.7-11.8-64.6-43.6-66.9-82.4-6.5-165.4 1-248 .6-42.7-1.2-89.9 7.4-129.9-6.3-3.6-1.6-7.1-3.5-10.3-5.8-1.4-1-.2-.2 0 0-1.3-1-2.5-2.2-3.7-3.4-.4-.5-3-3.6-1.7-1.9-34.9-65.4 70.3-153.8 52-225.9-8.4-29.1-40-51.4-69.8-38.6-28.6 11.6-44.7 39.9-60.5 64.8-49.9 74.6-101.3 159.6-180 206.4-24 10.1-54.2 11.9-81.7 12-17.8.2-35.7-.3-53.5-.7-11.3-.3-11.3 17.4.1 17.7z"/><path d="m536.4 824.7c-157.7-4.2-315.4.1-473.1.7-11.3-.1-11.6 17.8 0 17.7 154.8-.7 309.6-4.5 464.3-1 20.7 4.3 23-15.1 8.8-17.4z"/><path d="m773.7 567.9c31-.5 62.2-1.2 93.1 2.1-.8-.1-1.6-.2-2.4-.3 4.6.6 9 1.8 13.2 3.6-.7-.3-1.4-.6-2.1-.9 3.6 1.5 6.9 3.5 10 5.8-.6-.5-1.2-.9-1.8-1.4 3 2.4 5.8 5.1 8.1 8.1-.5-.6-.9-1.2-1.4-1.8 2.5 3.2 4.5 6.7 6.1 10.5-.3-.7-.6-1.4-.9-2.1 1.5 3.5 2.5 7.1 3 10.8-.1-.8-.2-1.6-.3-2.4.3 2.5.4 5.1.1 7.6.1-.8.2-1.6.3-2.4-.2 1.4-.5 2.8-1 4.1.3-.7.6-1.4.9-2.1-1.8 4.2-4.2 8.4-7 12 .5-.6.9-1.2 1.4-1.8-1.9 2.5-4.1 4.6-6.6 6.5.6-.5 1.2-.9 1.8-1.4-3.6 2.8-7.7 4.9-11.8 6.7.7-.3 1.4-.6 2.1-.9-15.9 6.6-33.2 9-50.1 11.5l2.4-.3c-61 7.2-122.6 10.4-184 10.2-4.6-.1-9.1 4.2-8.9 8.9.2 4.9 3.9 8.7 8.9 8.9 16.9.4 33.7-.1 50.6-.7 19.3-.7 38.5-1.7 57.7-2.8 45.8-4.5 95.1-2.8 137.4-23 40.7-23.3 23.8-77.3-17.7-87.3-33.3-5.7-67.6-3.6-101.2-3.5-11.3.1-11.3 17.8.1 17.8z"/></g></g></g><g id="line"><path d="m210 630v120h-30c0-37.6 0-82.4 0-120zm-30-90h30c0-15 0-45 0-60h-30zm30-60h30c0-15 0-45 0-60-15 0-123.3 0-150 0v30h120zm390 300v-60h-30v60zm-150-60h120v-30c-51 0-73.5 0-120 0zm390-120h30v-60h-30zm-390 30h120v60h30v-60h240v-30h-390zm0 90h-30v60c-53.2 0-103.6 0-180 0v-30h-30v30c-37.6 0-82.4 0-120 0v30h480v-30c-47.8 0-85.5 0-120 0zm-30-90v60h30v-60zm-180-210h30c0-7.5 0-22.5 0-60h-30zm30-60h30v-60h-30zm30-60h30v-90h-30zm60 60v60h30v-60zm-30-180v30h60v-30zm90 30h-30v150h30zm390 300s0-45 0-60h-30v60c-92.6 0-228.1 0-240 0v30h300v-30c-8.4 0-18.6 0-30 0zm-420-90v30h390v-30c-17.6 0-369.5 0-390 0z"/></g><g id="color" display="none"><g display="inline"><path d="m840 510v-60h-30v-30c-17.6 0-369.5 0-390 0v-60h30v-150h-30v-30h-60v30h-30v90h-30v60h-30v60c-15 0-123.3 0-150 0v30h-30v30h-30v270h30v30h30v30h480v-30h30v-60h-30v-30h30v-60h-30v-30h300v-60h-30v-30z" fill="#ffcca1"/><path d="m570 720h30v60h-30z" fill="#ffe0c7"/><g fill="#f0a595"><path d="m240 630h-30v120h30c0-15 0-105 0-120z"/><path d="m210 540h30c0-15 0-45 0-60h-30z"/></g><g><path d="m630 720h-30v60h30z" fill="#806752"/><path d="m480 690v30h90v-30c-51 0-43.5 0-90 0z" fill="#f0a595"/></g><path d="m855 555h60v30h-60z" fill="#806752" transform="matrix(0 1 -1 0 1455 -315)"/><path d="m480 600h90v30h-90z" fill="#f0a595"/><path d="m585 645h60v30h-60z" fill="#806752" transform="matrix(0 1 -1 0 1275 45)"/><path d="m435 735h60v30h-60z" fill="#f0a595" transform="matrix(0 1 -1 0 1215 285)"/><path d="m435 645h60v30h-60z" fill="#f0a595" transform="matrix(0 1 -1 0 1125 195)"/><g fill="#806752"><path d="m270 360h30v60h-30z"/><path d="m300 300h30v60h-30z"/><path d="m330 210h30v90h-30z"/><path d="m390 360h30v60h-30z"/><path d="m360 180v30h60v-30z"/><path d="m450 210h-30v150h30z"/><g><path d="m840 510s0-45 0-60h-30v60z"/><path d="m810 450v-30c-17.6 0-369.5 0-390 0v30z"/></g><path d="m780 510h90v30h-90z"/><path d="m570 600h300.2v30h-300.2z"/><path d="m570 690h30v30h-30z"/></g><g><path d="m270 780h-30c-37.6 0-82.4 0-120 0v30h480v-30c-138.5 0-191.8 0-330 0z" fill="#806752"/></g><g><path d="m240 480h30c0-7.5 0-18.7 0-30h-30z" fill="#f0a595"/><path d="m240 780h30c0-7.5 0-18.7 0-30h-30z" fill="#f0a595"/><path d="m120 420v30h120 30c0-11.3 0-22.5 0-30-15 0-123.3 0-150 0z" fill="#806752"/></g><path d="m90 750h30v30h-30z" fill="#ffe0c7"/><path d="m90 450h150v30h-150z" fill="#ffe0c7"/><path d="m60 480h30v270h-30z" fill="#ffe0c7"/><path d="m450 450h360v30h-360z" fill="#ffe0c7"/><path d="m270 420h30v30h-30z" fill="#ffe0c7"/><path d="m300 360h30v60h-30z" fill="#ffe0c7"/><path d="m330 300h30v60h-30z" fill="#ffe0c7"/><path d="m570 510h210v30h-210z" fill="#f0a595"/><path d="m480 630v30h90v30h30v-60z" fill="#ffe0c7"/></g></g></svg>