<svg enable-background="new 0 0 960 960" height="512" viewBox="0 0 960 960" width="512" xmlns="http://www.w3.org/2000/svg"><g id="Layer_3" display="none"><g display="inline"><path d="m797.8 478.6c-26 47.6-57 82.1-111.6 50.3-45.1-32-30-137.9 4.3-150.7 53.6-38.4 97.5 7.3 109.5 33.5 16.7 36.8 58 15.3 63.6 1.1 17.6-45-10.5-90.6-45.6-123.9-69.6-67.7-189.4-14.8-208.4 73.7-22-45.7 16-211.7-35.9-211.5-63.3-6.5-39.8 258.4-82.2 204.5-33.6-43.9-11.5-188.5-55.1-192.5-67.5-3.3-33.8 173.5-44.4 215.2-20.7 51.2-46-81.4-48.2-106.9-3.2-25.8-6.8-88.6-40.9-84.7-23.9 2.7-27.5 45.4-28.8 65-3.7 203.9 47.8 425.3 72.2 600.5 0 35.7 377.9 36 378 .3-11.5-205.7 49.6-171.9 144.3-311.2 31.7-68.5-13.7-139.6-70.8-62.7z" fill="#ffcbb1"/><path d="m354.6 850.1c-27.9-204.2-80.3-409-70.2-616.1.1-3.2 4.4-22 6.1-25 1.3-2.9 2.8-5.7 4.6-8.2-1.2 1.8 0 0 .3-.3.8-.8 1.6-1.5 2.3-2.3 1.3-1.5-1.5.8.2-.2.7-.4 1.5-.9 2.2-1.3.5-.3 2.3-.7.2-.1.6-.3 5.2-1.2 2.2-.7 1.7-.2 3.4-.1 5.1-.1 2 0-1.8-.6 0 0 .7.2 1.5.4 2.3.6.6.1 2.3 1 0-.1 1.6.7 3 1.6 4.4 2.6-2.1-1.5.8.8 1.3 1.3.9.9 1.6 1.8 2.4 2.7 7.2 9.9 12.1 31.1 14.1 48.1 4 41.3 12.2 90.8 30.2 131.5 6.3 20.7 29.3 23.1 36.8 1.8 4.8-17.2 3-35.9 3-53.6-1.7-39.6-1.4-79.3 3.6-118.6.1-2.8 4.1-20.2 5.7-23.2 1.1-2.5 2.4-5 3.9-7.3.2-.3 2.1-2.9.7-1.2 1.3-1.7 2.8-3.2 4.5-4.6 1.7-1.5-1.5.8.5-.3 1.2-.7 2.4-1.5 3.7-2.1-.7.4-.9.4-.8.4 1.6-.8 3.9-1.3 5.9-1.6-2.1.3.6 0 .9 0 1.8-.1 3.5 0 5.3.1-3-.3 2.8.6 3.3 1-2-.5-.8-.4-.1 0 1 .6 1.9 1.1 2.8 1.8-2.5-1.9 2.1 2 2.3 2.6 1.4 1.4-1-1.6.1.1 1.4 2.1 2.7 4.3 3.7 6.6 1 2-.6-1.8.2.4.2.7.5 1.3.7 2 10.8 37 6.5 78 15.9 117.7 3.2 22.7 23.1 97.2 53.1 56.5 17.3-56.5 11.5-124 32.7-177.1 2.2-5.1 4.7-10 7.9-14.4.3-.4 1.3-1.6.1-.2 1.4-1.8 2.9-3.3 4.6-4.9.3-.3 2.1-1.6.2-.2 1.5-1.1 3.1-2 4.8-2.9-1.9 1-.8.3-.1.1 1.3-.4 2.5-.8 3.8-1-1.1.3-1.3.3-1.1.2 1.5-.4 3.3-.1 5-.2 2 0-1.9-.5 0 0 1.1.2 2.2.5 3.3.9 1.7.4-1.5-.9-.1-.1.9.6 1.8 1.1 2.7 1.6 1.6.9-1.3-1.4-.1-.1.8.7 1.6 1.5 2.3 2.3 1.4 1.3-1-1.7 0 0 1.3 2 2.5 4 3.5 6.2-.3-.7-.4-.8-.4-.7 2.5 5.8 3.5 11.4 4.4 17.3 5 10.7-10.5 222.9 26.4 177.5 5.4-17.9 14.5-37.3 24.8-50.4 40.8-53.3 128.1-66.4 174.7-13.6 31.2 29.7 53.5 76.4 37.1 110-3.2 4.4-10.5 8.4-13 9.5-7.2 2.6-9.5 3.1-16.7 2.5.7.1.9.1.8.1-1.6-.3-3.8-.9-5.4-1.5-1.3-.5 1.8 1-.1-.1-1.4-.7-2.8-1.5-4-2.4-.5-.4-.4-.3.3.2-1.6-1.4-3.1-2.9-4.5-4.5-25-57.2-91.4-84.2-140-32.2-30.4 36-29.2 93.4-8.5 133.9 18.8 33.1 70.4 43.9 100.7 21 19.2-15.1 32.3-41.5 44.6-59.4 8.1-9.9 15.3-16.3 26.7-21.4 3.2-1.2 8.9-2.9 13.9-2.2-1.7-.1-.4-.1 0 0 1.3.3 2.6.6 3.8 1 .3.1 1.5.7.1 0 1.5.7 3 1.6 4.4 2.5 2.5 1.5 7.5 8.6 8.1 10.6 7.7 22.6 3.3 45.8-4.7 67.2-72 120.6-150.9 97.7-146.1 277.7 0 13 .1 25.9.1 38.9 0 11.4 17.7 11.4 17.7 0 1-62.8-7.3-136.8 37.8-187 26.6-28.6 57-53.6 81.7-84 16.1-19 29.2-41.2 32.8-66.2 14.2-60-30.1-107.3-81.9-57.5-31.6 34.5-42.3 93-102.6 69-38.3-14.6-39.5-81.7-27.1-114.3 5.2-11.5 10-17.4 19.8-25.4 7.7-6.6 29.8-17.5 45.4-14.2 1.7 0 11.5 2.7 13.3 3.6 12.7 5.3 23.5 15.2 30.8 24.5 10.1 13.5 14.7 31.7 32.3 37.7 56.9 14 73.7-45.4 55.9-89.3-54.5-138.2-228-130.5-270.2 11h17.1c-16.7-61.1-.2-125.3-11.1-186.8-4.1-24.9-30.1-40.8-52.1-24.9-46.4 41.7-34.1 150.6-52.8 205.1-.4.5-.9 1-1.4 1.4.3-.2.5-.4.8-.7-.9.5-.7.4.6-.1-.3.1-.7.2-1 .3 1.5-.1 1.7-.2.8-.1-1.9 0 2.1.6.2 0-1.9-.5 1.8 1 0 .1-.3-.2-.7-.4-1-.6 1.8.9.4.4-.1-.2-.4-.5-.9-.9-1.3-1.5-13.4-22.4-18.8-58.9-22.7-87.7-4.3-27.2.3-69.7-17.7-97-8.5-11.4-21.6-15.5-35.4-12.5-30 6.4-34.4 44.3-36.8 69.2-3.5 32.3-3.9 64.9-2.5 97.3.2 18.7 2.1 40.1-2.1 57.9.6-1.7-.5.7-.5.9-.9 1.9 1-.7-.4.6-.4.3-.7.7-1 1 .2-.2.5-.4.7-.6-.9.5-.7.5.4 0 0 .7-3.2-.1-.1.2-.8-.1.4-.1.8.3-15.1-28-25.7-75.9-30.1-113-2.8-23.8-4.2-50.1-16.4-71.5-12.8-25.1-46.9-26.4-59.2 0-12.1 25.5-11.7 54.9-12.5 82.6 4 193.6 45.2 383.9 73.5 574.9 3.1 10.4 20 6.4 17.2-5.1z" fill="#7d6c5d"/></g></g><g id="line"><path d="m600 720h60v30c-37.6 0-82.4 0-120 0v-30zm-240 120c0-37 0-59.6 0-90h30v-30c-15 0-15 0-30 0h-30v120zm330-150h-30v30h30v120h30c0-169.5 0-400.5 0-570h-30zm-30-450h-30c0-15 0-45 0-60h-30v120 120h30s0-93.3 0-120v-30h60v-30zm-90-90h-30v-30h-30v90 180h30s0-131.9 0-180v-30h60v-30zm-150 180h-30v30h30v60h30c0-78.8 0-221.2 0-300h-30zm60-240h-30v30h60v-30zm-210 210v30h120v-30zm-30 60h30v-30h-30zm30 330v-30h-30v30zm30 30h30v-30h-30-30v30zm60-330h-60v30h60zm-60 210h60v-30h-60zm-90-210h30v-30h-30zm30 270v-30h-30v30zm-60-180h30v-90h-30zm0 150h30v-120h-30zm120-210h-30v60h30zm-30 90v60h30v-60zm120 60v-150h-30v150zm-120-60v-30h-60v30z"/></g><g id="color" display="none"><g display="inline"><path d="m720 270v-30c-15 0-45 0-60 0 0-15 0-45 0-60h-30v-30c-15 0-45 0-60 0v-30h-30v-30c-15 0-45 0-60 0v30h-30v210h-30v-30h-120v30h-30v30h-30v30h-30v90h30v30h-30v120h30v30h30v30h30v30h30v30h30v90h30v30h30v30h270v-30h30v-30h30c0-169.5 0-400.5 0-570zm-330 300h-60v-60h-30v-30h30v-60h60z" fill="#ffcca1"/><g><g><g fill="#f0a595"><path d="m630 720c-15 0-45 0-60 0v30h120v-30c-15 0-45 0-60 0z"/><path d="m390 720v30h60v-30c-15 0-45 0-60 0z"/><path d="m690 690h30v30h-30z"/><path d="m330 690h30v30h-30z"/><path d="m360 690h30v30h-30z"/><path d="m270 630h30v30h-30z"/><path d="m240 600h30v30h-30z"/></g><path d="m240 390h30v30h-30z" fill="#ffe0c7"/><path d="m300 330h120v30h-120z" fill="#ffe0c7"/><path d="m270 360h30v30h-30z" fill="#ffe0c7"/><path d="m420 360h30v30h-30z" fill="#ffe0c7"/><path d="m300 660h30v30h-30z" fill="#f0a595"/><path d="m660 300h-30v120h30s0-93.3 0-120z" fill="#f0a595"/><path d="m570 210h-30v180h30s0-131.9 0-180z" fill="#f0a595"/></g><g fill="#806752"><path d="m360 750v90h30c0-48.1 0-71.9 0-120h-30z"/><path d="m330 720h30v30h-30z"/><path d="m720 270v570h30c0-169.5 0-400.5 0-570z"/><path d="m690 240h-30c0-15 0-45 0-60h-30v120h30v-30h60v-30z"/><path d="m600 150h-30v-30h-30v90h30v-30h60v-30z"/><path d="m450 420h30c0-78.8 0-221.2 0-300h-30z"/><path d="m510 90h-30v30h60v-30z"/></g><g fill="#ffe0c7"><path d="m420 870h270v30h-270z"/><path d="m390 840h30v30h-30z"/><path d="m690 840h30v30h-30z"/></g></g><g fill="#806752"><path d="m300 300h120v30h-120z"/><path d="m420 330h30v30h-30z"/><path d="m270 330h30v30h-30z"/><path d="m270 660h30v30h-30z"/><path d="m300 690h30v30h-30z"/><path d="m330 390h60v30h-60z"/><path d="m330 570h60v30h-60z"/><path d="m240 360h30v30h-30z"/><path d="m240 630h30v30h-30z"/><path d="m210 390h30v90h-30z"/><path d="m210 510h30v120h-30z"/><path d="m300 420h30v60h-30z"/><path d="m300 510h30v60h-30z"/><path d="m390 420h30v150h-30z"/><path d="m240 480h60v30h-60z"/></g></g></g></svg>