<svg enable-background="new 0 0 960 960" height="512" viewBox="0 0 960 960" width="512" xmlns="http://www.w3.org/2000/svg"><g id="line"><path d="m480 120h-30v-90h30zm120 0h30v-30h-30zm30-30h30v-30h-30zm-300 30v-30h-30v30zm-60-60v30h30v-30zm420 150h30v-30h-30zm30-30h30v-30h-30zm30-30h30v-30h-30zm-510 60v-30h-30v30zm-30 210h-30v30h30zm510 0v30h30v-30zm90 90v-30h-30v30zm-60-60v30h30v-30zm-570 0h-30v30h30zm-30 30h-30v30h30zm60-300v-30h-30v30zm-30-60h-30v30h30zm630 180h-90v30h90zm-600 0h-90v30h90zm120-120v30h60v-30zm60 30v270h-30v30h30 30v-300zm-90 180h30v-180h-30zm-30 120h30v-120h-30zm-30 120h30v-120h-30zm180 90h30v-210h-30zm-30 60h30v-60h-30zm-30 30h30v-30h-30zm-150-150h30v-30h-30zm-30 30h30v-30h-30zm-30 30h30v-30h-30zm-30 30h30v-30h-30zm-30 30h30v-30h-30zm240 60h30v-30h-30zm-30 30h30v-30h-30zm-30 30h30v-30h-30zm-30 30h30v-30h-30zm90-270h30v-150h-30zm210-480v30h60v-30zm-30 330h30 30v-30h-30v-270h-30zm90-300v180h30v-180zm30 180v120h30v-120zm30 120v120h30v-120zm-180 210h30v-210h-30zm60 60v-60h-30v60zm30 30v-30h-30v30zm120-180v30h30v-30zm30 30v30h30v-30zm30 30v30h30v-30zm30 30v30h30v-30zm30 60h30v-30h-30zm-210 60v-30h-30v30zm30 30v-30h-30v30zm30 30v-30h-30v30zm30 30v-30h-30v30zm-90-270v-150h-30v150z"/></g><g id="color" display="none"><g display="inline"><g fill="#806752"><path d="m450 30h30v90h-30z"/><path d="m600 90h30v30h-30z"/><path d="m630 60h30v30h-30z"/><path d="m300 90h30v30h-30z"/><path d="m270 60h30v30h-30z"/><path d="m690 180h30v30h-30z"/><path d="m720 150h30v30h-30z"/><path d="m750 120h30v30h-30z"/><path d="m210 180h30v30h-30z"/><path d="m180 420h30v30h-30z"/><path d="m720 420h30v30h-30z"/><path d="m780 480h30v30h-30z"/><path d="m750 450h30v30h-30z"/><path d="m150 450h30v30h-30z"/><path d="m120 480h30v30h-30z"/><path d="m180 150h30v30h-30z"/><path d="m150 120h30v30h-30z"/><path d="m720 300h90v30h-90z"/><path d="m120 300h90v30h-90z"/></g><path d="m420 510v-30-270h-30v-30h-60v30h-30v180h-30v120h-30v120h-30v30h-30v30h-30v30h-30v30h-30v30 30h30v30h30v30h30v30h30v30h30 30v-30h30v-30h30v-30h30v-30h30v-30h30v-60h30v-210z" fill="#ffcca1"/><path d="m330 180h60v30h-60z" fill="#806752"/><path d="m360 480h30v30h-30z" fill="#f0a595"/><path d="m390 210h30v300h-30z" fill="#806752"/><path d="m300 210h30v180h-30z" fill="#806752"/><path d="m270 390h30v120h-30z" fill="#806752"/><path d="m240 510h30v120h-30z" fill="#806752"/><path d="m420 510h30v210h-30z" fill="#806752"/><path d="m390 720h30v60h-30z" fill="#806752"/><path d="m360 780h30v30h-30z" fill="#806752"/><path d="m210 630h30v30h-30z" fill="#806752"/><path d="m180 660h30v30h-30z" fill="#806752"/><path d="m150 690h30v30h-30z" fill="#806752"/><path d="m120 720h30v30h-30z" fill="#806752"/><path d="m90 750h30v30h-30z" fill="#806752"/><path d="m330 810h30v30h-30z" fill="#806752"/><path d="m300 840h30v30h-30z" fill="#806752"/><path d="m270 870h30v30h-30z" fill="#806752"/><path d="m240 900h30v30h-30z" fill="#806752"/><path d="m90 780h30v30h-30z" fill="#ffe0c7"/><path d="m120 810h30v30h-30z" fill="#ffe0c7"/><path d="m150 840h30v30h-30z" fill="#ffe0c7"/><path d="m180 870h30v30h-30z" fill="#ffe0c7"/><path d="m210 900h30v30h-30z" fill="#ffe0c7"/><path d="m330 510h30v150h-30z" fill="#f0a595"/><path d="m510 510v-30-270h30v-30h60v30h30v180h30v120h30v120h30v30h30v30h30v30h30v30h30v30 30h-30v30h-30v30h-30v30h-30v30h-30-30v-30h-30v-30h-30v-30h-30v-30h-30v-30h-30v-60h-30v-210z" fill="#ffcca1"/><path d="m540 180h60v30h-60z" fill="#806752" transform="matrix(-1 0 0 -1 1140 390)"/><path d="m540 480h30v30h-30z" fill="#f0a595" transform="matrix(-1 0 0 -1 1110 990)"/><path d="m510 210h30v300h-30z" fill="#806752" transform="matrix(-1 0 0 -1 1050 720)"/><path d="m600 210h30v180h-30z" fill="#806752" transform="matrix(-1 0 0 -1 1230 600)"/><path d="m630 390h30v120h-30z" fill="#806752" transform="matrix(-1 0 0 -1 1290 900)"/><path d="m660 510h30v120h-30z" fill="#806752" transform="matrix(-1 0 0 -1 1350 1140)"/><path d="m480 510h30v210h-30z" fill="#806752" transform="matrix(-1 0 0 -1 990 1230)"/><path d="m510 720h30v60h-30z" fill="#806752" transform="matrix(-1 0 0 -1 1050 1500)"/><path d="m540 780h30v30h-30z" fill="#806752" transform="matrix(-1 0 0 -1 1110 1590)"/><path d="m690 630h30v30h-30z" fill="#806752" transform="matrix(-1 0 0 -1 1410 1290)"/><path d="m720 660h30v30h-30z" fill="#806752" transform="matrix(-1 0 0 -1 1470 1350)"/><path d="m750 690h30v30h-30z" fill="#806752" transform="matrix(-1 0 0 -1 1530 1410)"/><path d="m780 720h30v30h-30z" fill="#806752" transform="matrix(-1 0 0 -1 1590 1470)"/><path d="m810 750h30v30h-30z" fill="#806752" transform="matrix(-1 0 0 -1 1650 1530)"/><path d="m570 810h30v30h-30z" fill="#806752" transform="matrix(-1 0 0 -1 1170 1650)"/><path d="m600 840h30v30h-30z" fill="#806752" transform="matrix(-1 0 0 -1 1230 1710)"/><path d="m630 870h30v30h-30z" fill="#806752" transform="matrix(-1 0 0 -1 1290 1770)"/><path d="m660 900h30v30h-30z" fill="#806752" transform="matrix(-1 0 0 -1 1350 1830)"/><path d="m810 780h30v30h-30z" fill="#ffe0c7" transform="matrix(-1 0 0 -1 1650 1590)"/><path d="m780 810h30v30h-30z" fill="#ffe0c7" transform="matrix(-1 0 0 -1 1590 1650)"/><path d="m750 840h30v30h-30z" fill="#ffe0c7" transform="matrix(-1 0 0 -1 1530 1710)"/><path d="m720 870h30v30h-30z" fill="#ffe0c7" transform="matrix(-1 0 0 -1 1470 1770)"/><path d="m690 900h30v30h-30z" fill="#ffe0c7" transform="matrix(-1 0 0 -1 1410 1830)"/><path d="m570 510h30v150h-30z" fill="#f0a595" transform="matrix(-1 0 0 -1 1170 1170)"/></g></g></svg>