<svg width="24" height="24" viewBox="0 0 24 24" fill="none" xmlns="http://www.w3.org/2000/svg">
<g clip-path="url(#clip0_16_1973)">
<path d="M16.9999 21H6.99987C5.5831 21.0009 4.21172 20.5004 3.12856 19.5871C2.0454 18.6739 1.32035 17.4068 1.08178 16.0103C0.843215 14.6137 1.10653 13.1778 1.82511 11.9568C2.54368 10.7358 3.67115 9.80844 5.00787 9.33896C4.96259 8.39262 5.10989 7.44694 5.44083 6.5592C5.77178 5.67146 6.2795 4.86014 6.93322 4.17438C7.58694 3.48863 8.37307 2.94272 9.24398 2.56972C10.1149 2.19672 11.0525 2.00439 11.9999 2.00439C12.9473 2.00439 13.8849 2.19672 14.7558 2.56972C15.6267 2.94272 16.4128 3.48863 17.0665 4.17438C17.7203 4.86014 18.228 5.67146 18.5589 6.5592C18.8899 7.44694 19.0372 8.39262 18.9919 9.33896C20.3286 9.80844 21.4561 10.7358 22.1746 11.9568C22.8932 13.1778 23.1565 14.6137 22.918 16.0103C22.6794 17.4068 21.9543 18.6739 20.8712 19.5871C19.788 20.5004 18.4166 21.0009 16.9999 21Z" fill="#09121F"/>
</g>
<defs>
<clipPath id="clip0_16_1973">
<rect width="24" height="24" fill="white"/>
</clipPath>
</defs>
</svg>
