<svg id="Capa_1" enable-background="new 0 0 512 512" height="512" viewBox="0 0 512 512" width="512" xmlns="http://www.w3.org/2000/svg" xmlns:xlink="http://www.w3.org/1999/xlink"><linearGradient id="SVGID_1_" gradientUnits="userSpaceOnUse" x1="256" x2="256" y1="491" y2="21"><stop offset="0" stop-color="#c3ffe8"/><stop offset=".9973" stop-color="#f0fff4"/></linearGradient><linearGradient id="SVGID_00000027569003715038494910000009308343202023367090_" gradientUnits="userSpaceOnUse" x1="276.5" x2="276.5" y1="421" y2="41"><stop offset="0" stop-color="#00b59c"/><stop offset="1" stop-color="#9cffac"/></linearGradient><g><path d="m512 116v360c0 8.284-6.716 15-15 15h-482c-8.284 0-15-6.716-15-15v-360c0-8.284 6.716-15 15-15h38.289l17.159-68.638c1.669-6.677 7.669-11.362 14.552-11.362h122c5.682 0 10.875 3.21 13.417 8.292l35.854 71.708h240.729c8.284 0 15 6.716 15 15z" fill="url(#SVGID_1_)"/><path d="m256.271 101-30-60h230.729c8.284 0 15 6.716 15 15v45zm7.679 237.72c-4.864 3.04-11.036 3.04-15.9 0l-167.05-104.407v131.687c0 30.327 24.673 55 55 55h240c30.327 0 55-24.673 55-55v-131.687zm164.344-138.092c-6.295-17.266-22.877-29.628-42.294-29.628h-260c-19.417 0-35.999 12.362-42.294 29.628l172.294 107.684z" fill="url(#SVGID_00000027569003715038494910000009308343202023367090_)"/></g></svg>