<svg id="Capa_1" enable-background="new 0 0 512 512" height="512" viewBox="0 0 512 512" width="512" xmlns="http://www.w3.org/2000/svg" xmlns:xlink="http://www.w3.org/1999/xlink"><linearGradient id="SVGID_1_" gradientUnits="userSpaceOnUse" x1="256" x2="256" y1="491" y2="21"><stop offset="0" stop-color="#ffedad"/><stop offset="1" stop-color="#ffffe5"/></linearGradient><linearGradient id="SVGID_00000114782703727947395950000013129422803693160107_" gradientUnits="userSpaceOnUse" x1="286.5" x2="286.5" y1="411" y2="41"><stop offset="0" stop-color="#fd5900"/><stop offset="1" stop-color="#ffde00"/></linearGradient><g><path d="m512 116v360c0 8.284-6.716 15-15 15h-482c-8.284 0-15-6.716-15-15v-360c0-8.284 6.716-15 15-15h38.289l17.159-68.638c1.669-6.677 7.669-11.362 14.552-11.362h122c5.682 0 10.875 3.21 13.417 8.292l35.854 71.708h240.729c8.284 0 15 6.716 15 15z" fill="url(#SVGID_1_)"/><path d="m256.271 101-30-60h230.729c8.284 0 15 6.716 15 15v45zm103.872 181.55c-6.622-51.571-50.801-91.55-104.143-91.55s-97.521 39.979-104.143 91.55c-29.062 6.474-50.857 32.466-50.857 63.45 0 35.841 29.159 65 65 65h180c35.841 0 65-29.159 65-65 0-30.984-21.795-56.976-50.857-63.45z" fill="url(#SVGID_00000114782703727947395950000013129422803693160107_)"/></g></svg>