<svg id="Capa_1" enable-background="new 0 0 512 512" height="512" viewBox="0 0 512 512" width="512" xmlns="http://www.w3.org/2000/svg" xmlns:xlink="http://www.w3.org/1999/xlink"><linearGradient id="SVGID_1_" gradientUnits="userSpaceOnUse" x1="256" x2="256" y1="470" y2="0"><stop offset="0" stop-color="#ffedad"/><stop offset="1" stop-color="#ffffe5"/></linearGradient><linearGradient id="SVGID_00000179626978457438560110000000840396770416287873_" gradientUnits="userSpaceOnUse" x1="266.5" x2="266.5" y1="512" y2="20"><stop offset="0" stop-color="#fd5900"/><stop offset="1" stop-color="#ffde00"/></linearGradient><g><path d="m512 95v360c0 8.284-6.716 15-15 15h-482c-8.284 0-15-6.716-15-15v-360c0-8.284 6.716-15 15-15h38.289l17.159-68.638c1.669-6.677 7.669-11.362 14.552-11.362h122c5.682 0 10.875 3.21 13.417 8.292l35.854 71.708h240.729c8.284 0 15 6.716 15 15z" fill="url(#SVGID_1_)"/><path d="m256.271 80-30-60h230.729c8.284 0 15 6.716 15 15v45zm194.729 97v320c0 8.284-6.716 15-15 15h-360c-8.284 0-15-6.716-15-15v-320c0-8.284 6.716-15 15-15h360c8.284 0 15 6.716 15 15zm-280 90c0 24.813 20.187 45 45 45s45-20.187 45-45-20.187-45-45-45-45 20.187-45 45zm217.48 161.679-80-120c-5.937-8.906-19.024-8.906-24.962 0l-49.417 74.125-26.101-34.804c-6-8-18-8-24 0l-60 80c-7.416 9.889-.361 24 12 24h240c11.98 0 19.126-13.352 12.48-23.321z" fill="url(#SVGID_00000179626978457438560110000000840396770416287873_)"/></g></svg>