<svg xmlns="http://www.w3.org/2000/svg" width="32" height="32" fill="none" viewBox="0 0 32 32">
  <path fill="#000001" d="M30.475 15.24h-1.52v9.14h1.52v-9.14Zm-1.52 9.14h-1.52v1.53h1.52v-1.53Zm0-10.66h-1.52v1.52h1.52v-1.52Zm-1.52 3.04h-1.53v6.1h1.53v-6.1Z"/>
  <path fill="#000001" d="M27.435 27.43v-1.52h-3.05v-1.53h1.52v-1.52h-1.52v-6.1h1.52v-1.52h-1.52v-1.52h3.05v-1.53h-3.05v-1.52h-1.52v16.76h4.57Zm-4.57 0h-3.05v1.52h3.05v-1.52Zm-3.05 1.52h-3.05v1.53h3.05v-1.53Zm0-24.38V3.05h-1.53V1.52h-1.52v1.53h-1.52v1.52h4.57Zm-3.05 16.76h-1.52v1.53h1.52v-1.53Zm0-3.04h-1.52v1.52h1.52v-1.52Zm0 12.19h-7.62V32h7.62v-1.52Zm-1.52-7.62h-4.57v1.52h4.57v-1.52Z"/>
  <path fill="#000001" d="M10.675 12.19h-3.05v1.53h10.66v-1.53h3.05v-1.52h1.53V9.14h-1.53V4.57h-1.52V6.1h-4.57V4.57h-1.53v3.05h-3.04v4.57Zm7.61-4.57h1.53v3.05h-1.53V7.62Zm-3.04 0h1.52v4.57h-1.52V7.62Zm-4.57 13.71h-1.53v1.53h1.53v-1.53Zm0-3.04h-1.53v1.52h1.53v-1.52Zm0-13.72h-1.53v3.05h1.53V4.57Zm-1.53 24.38h-3.05v1.53h3.05v-1.53Z"/>
  <path fill="#000001" d="M9.145 10.67V9.14h-3.05v1.53h-1.52v1.52h3.05v-1.52h1.52Zm0-9.15h-1.52v3.05h1.52V1.52ZM7.625 0h-3.05v1.52h3.05V0Zm-1.53 27.43h-3.04v1.52h3.04v-1.52ZM4.575 1.52h-1.52v1.53h1.52V1.52Z"/>
  <path fill="#000001" d="M3.055 10.67h1.52V7.62h1.52V6.1h-3.04v3.04h-1.53v18.29h1.53V10.67Zm0-7.62h-1.53V6.1h1.53V3.05Z"/>
</svg>
