<svg xmlns="http://www.w3.org/2000/svg" width="32" height="32" fill="none" viewBox="0 0 32 32">
  <g clip-path="url(#a)">
    <path fill="#000001" d="M1.53 30.48h7.62V32h1.52v-1.52h10.67V32h1.52v-1.52h7.62V32H32V0H0v32h1.53v-1.52Zm21.33-18.29h1.53v-1.52h1.52V9.14h1.52v1.53h1.53v1.52h1.52v6.1h-7.62v-6.1Zm-1.52 16.76H12.2v-7.62h9.14v7.62Zm-6.1-9.14v-3.05h1.53v3.05h-1.53Zm6.1 0h-1.53v-4.57h-1.52v-1.52h3.05v6.09ZM19.81 1.52h1.53V6.1h-1.53V1.52Zm0 6.1h1.53v4.57h-1.53V7.62Zm-3.04-6.1h1.52v1.53h-1.52V1.52Zm0 3.05h1.52V6.1h-1.52V4.57Zm0 3.05h1.52v4.57h-1.52V7.62Zm0 7.62h-1.53v-1.52h1.53v1.52ZM13.72 1.52h1.52V6.1h-1.52V1.52Zm0 6.1h1.52v4.57h-1.52V7.62Zm-3.05-6.1h1.53V6.1h-1.53V1.52Zm-9.14 0H6.1v1.53h1.52V6.1H4.58V4.57H3.05V6.1H1.53V1.52Zm0 6.1h9.14v1.52h1.53v3.05H9.15v-1.52H7.62v1.52H1.53V7.62Zm0 6.1h12.19v6.09H9.15v-1.52H7.62v-1.53h4.58v-1.52H4.58v1.52H1.53v-3.04Zm0 4.57h1.52v1.52H1.53v-1.52Zm0 3.04h9.14v7.62H1.53v-7.62Z"/>
    <path fill="#000001" d="M28.96 13.72v-1.53h-1.53v-1.52h-1.52v1.52h-1.52v1.53h4.57Zm-13.72 9.14h-1.52v4.57h1.52v-4.57ZM10.67 9.14H9.15v1.53h1.52V9.14ZM9.15 22.86H7.62v4.57h1.53v-4.57ZM6.1 3.05H4.58v1.52H6.1V3.05Z"/>
  </g>
  <defs>
    <clipPath id="a">
      <path fill="#fff" d="M0 0h32v32H0z"/>
    </clipPath>
  </defs>
</svg>
