<svg xmlns="http://www.w3.org/2000/svg" width="32" height="32" fill="none" viewBox="0 0 32 32">
  <g clip-path="url(#a)">
    <path fill="#000001" d="M32 12.19h-1.53v1.52H32v-1.52Zm-12.19 1.52v-1.52h-7.62v1.52H1.52v1.53h7.62v1.52h1.52v1.52h4.57v3.05h-3.04v1.53h7.62v-1.53h-3.05v-3.05h4.57v-1.52h1.52v-1.52h7.62v-1.53H19.81Z"/>
    <path fill="#000001" d="M24.38 19.81h-1.53v3.05h1.53v-3.05Z"/>
    <path fill="#000001" d="M22.85 18.28h-1.52v1.53h1.52v-1.53Zm7.62-6.09v-1.52H25.9V6.09h4.57V4.57H25.9V3.05h-1.52v1.52h-4.57v1.52h4.57v4.58h-3.05v1.52h9.14Zm-9.14 10.67h-1.52v4.57h1.52v-4.57Z"/>
    <path fill="#000001" d="M21.33 9.14h-1.52v1.53h1.52V9.14Zm-1.52 18.29h-7.62v1.52h7.62v-1.52Zm-3.05-3.05h-1.53v1.52h1.53v-1.52Zm3.05-16.76h-7.62v1.52h7.62V7.62Zm-7.62 15.24h-1.53v4.57h1.53v-4.57Zm0-13.72h-1.53v1.53h1.53V9.14Zm-1.53 9.14H9.14v1.53h1.52v-1.53Zm-1.52 1.53H7.62v3.05h1.52v-3.05Z"/>
    <path fill="#000001" d="M10.66 12.19v-1.52H7.62V6.09h4.57V4.57H7.62V3.05H6.09v1.52H1.52v1.52h4.57v4.58H1.52v1.52h9.14Zm-9.14 0H0v1.52h1.52v-1.52Z"/>
  </g>
  <defs>
    <clipPath id="a">
      <path fill="#fff" d="M0 0h32v32H0z"/>
    </clipPath>
  </defs>
</svg>
