<svg xmlns="http://www.w3.org/2000/svg" width="32" height="32" fill="none" viewBox="0 0 32 32">
  <g clip-path="url(#a)">
    <path fill="#000001" d="M32 11.43h-1.53v9.14H32v-9.14Zm-1.53 9.14h-1.52v3.05h1.52v-3.05Zm0-12.19h-1.52v3.05h1.52V8.38Zm-1.52 15.24h-1.53v3.04h1.53v-3.04Zm0-18.29h-1.53v3.05h1.53V5.33Zm-1.53 21.33h-3.04v1.53h3.04v-1.53Zm0-22.85h-3.04v1.52h3.04V3.81Zm-3.04 13.71h-4.57v1.53h-1.53v-1.53h-1.52V16h-1.53v-1.53h-1.52v-1.52h1.52V8.38h-1.52V6.85H9.14v1.53H7.61v4.57h1.53V16h1.52v1.52h1.53v1.53h1.52v1.52h1.52v1.52h1.53v1.53h3.05v1.52h4.57v-1.52h1.52v-4.57h-1.52v-1.53Zm0 10.67h-3.05v1.52h3.05v-1.52Zm0-25.91h-3.05v1.53h3.05V2.28Zm-3.05 27.43h-9.14v1.53h9.14v-1.53Zm0-28.95h-9.14v1.52h9.14V.76Zm-9.14 27.43H7.61v1.52h4.58v-1.52Zm0-25.91H9.14v1.53h3.05V2.28ZM9.14 3.81H6.09v1.52h3.05V3.81Zm-6.1 25.9v-1.52H1.52v1.52H0v1.53h7.61v-1.53H3.04Zm3.05-6.09H4.57v3.04h1.52v-3.04Zm0-18.29H4.57v3.05h1.52V5.33ZM4.57 26.66H3.04v1.53h1.53v-1.53Zm0-6.09H3.04v3.05h1.53v-3.05Zm0-12.19H3.04v3.05h1.53V8.38Zm-1.53 3.05H1.52v9.14h1.52v-9.14Z"/>
  </g>
  <defs>
    <clipPath id="a">
      <path fill="#fff" d="M0 0h32v32H0z"/>
    </clipPath>
  </defs>
</svg>
